<?xml version="1.0" encoding="utf-8"?>
<!-- Generator: Adobe Illustrator 19.0.0, SVG Export Plug-In . SVG Version: 6.00 Build 0)  -->
<svg version="1.1" id="Capa_1" xmlns="http://www.w3.org/2000/svg" xmlns:xlink="http://www.w3.org/1999/xlink" x="0px" y="0px"
	 viewBox="-174 391.8 246 58.1" style="enable-background:new -174 391.8 246 58.1;" xml:space="preserve">
<style type="text/css">
	.st0{fill:#A8A8A8;}
	.st1{fill:#EFEFEF;}
	.st2{opacity:0.25;fill:#303030;enable-background:new    ;}
	.st3{fill:#FFFFFF;}
	.st4{fill:#2B2B2B;}
	.st5{fill-rule:evenodd;clip-rule:evenodd;fill:#727270;}
	.st6{fill-rule:evenodd;clip-rule:evenodd;fill:#E54A3F;}
	.st7{fill-rule:evenodd;clip-rule:evenodd;fill:#FEFEFE;}
</style>
<g id="XMLID_1_">
	<g id="XMLID_4641_">
		<g id="XMLID_4652_">
			<g id="XMLID_25_">
				<polygon id="XMLID_26_" class="st0" points="58,449.9 72,432.2 61.6,412 58,412 				"/>
			</g>
		</g>
		<rect id="XMLID_4649_" x="-174" y="391.8" class="st1" width="246" height="40.4"/>
		<polygon id="XMLID_4646_" class="st2" points="58,439.3 -174,432.2 58,432.2 		"/>
		<rect id="XMLID_4645_" x="-171.4" y="394.3" class="st3" width="240.8" height="35.3"/>
	</g>
</g>
<g>
	<g>
		<path class="st4" d="M-127.3,418.7v-12.2h2.5v12.2H-127.3z"/>
		<path class="st4" d="M-114.5,418.7h-2.3v-4.5c0-1,0-1.6-0.1-1.8s-0.3-0.5-0.5-0.7c-0.2-0.2-0.5-0.2-0.8-0.2
			c-0.4,0-0.8,0.1-1.1,0.3c-0.3,0.2-0.5,0.5-0.7,0.9c-0.1,0.4-0.2,1-0.2,2v4h-2.3v-8.8h2.2v1.3c0.8-1,1.7-1.5,2.9-1.5
			c0.5,0,1,0.1,1.4,0.3s0.7,0.4,1,0.7c0.2,0.3,0.4,0.6,0.5,1c0.1,0.4,0.1,0.9,0.1,1.6V418.7z"/>
		<path class="st4" d="M-108.1,409.9v1.9h-1.6v3.6c0,0.7,0,1.1,0,1.3c0,0.1,0.1,0.2,0.2,0.3c0.1,0.1,0.2,0.1,0.4,0.1
			c0.2,0,0.5-0.1,0.9-0.2l0.2,1.8c-0.5,0.2-1.2,0.3-1.8,0.3c-0.4,0-0.8-0.1-1.1-0.2c-0.3-0.1-0.6-0.3-0.7-0.5
			c-0.2-0.2-0.3-0.5-0.3-0.9c0-0.3-0.1-0.8-0.1-1.6v-3.8h-1.1v-1.9h1.1v-1.8l2.3-1.4v3.1H-108.1z"/>
		<path class="st4" d="M-104.3,418.7h-2.3v-8.8h2.2v1.3c0.4-0.6,0.7-1,1-1.2c0.3-0.2,0.6-0.3,1-0.3c0.5,0,1,0.1,1.5,0.4l-0.7,2
			c-0.4-0.3-0.8-0.4-1.1-0.4c-0.3,0-0.6,0.1-0.8,0.3s-0.4,0.5-0.5,1c-0.1,0.5-0.2,1.5-0.2,3V418.7z"/>
		<path class="st4" d="M-100.4,414.2c0-0.8,0.2-1.5,0.6-2.2c0.4-0.7,0.9-1.3,1.6-1.7c0.7-0.4,1.5-0.6,2.3-0.6c1.3,0,2.4,0.4,3.3,1.3
			s1.3,2,1.3,3.3c0,1.3-0.4,2.4-1.3,3.3c-0.9,0.9-1.9,1.3-3.2,1.3c-0.8,0-1.6-0.2-2.3-0.5c-0.7-0.4-1.3-0.9-1.7-1.6
			C-100.2,416-100.4,415.2-100.4,414.2z M-98,414.3c0,0.9,0.2,1.5,0.6,2s0.9,0.7,1.5,0.7s1.1-0.2,1.5-0.7c0.4-0.5,0.6-1.1,0.6-2
			c0-0.9-0.2-1.5-0.6-2c-0.4-0.5-0.9-0.7-1.5-0.7s-1.1,0.2-1.5,0.7S-98,413.4-98,414.3z"/>
		<path class="st4" d="M-81.4,418.7h-2.2v-1.3c-0.4,0.5-0.8,0.9-1.3,1.1c-0.5,0.2-1,0.4-1.5,0.4c-1,0-1.9-0.4-2.6-1.2
			c-0.7-0.8-1.1-2-1.1-3.4c0-1.5,0.4-2.6,1.1-3.4s1.6-1.2,2.7-1.2c1,0,1.8,0.4,2.6,1.2v-4.4h2.3V418.7z M-87.7,414.1
			c0,0.9,0.1,1.6,0.4,2c0.4,0.6,0.9,0.9,1.6,0.9c0.5,0,1-0.2,1.4-0.7c0.4-0.5,0.6-1.1,0.6-2c0-1-0.2-1.7-0.5-2.2s-0.8-0.7-1.4-0.7
			c-0.6,0-1,0.2-1.4,0.7C-87.5,412.6-87.7,413.2-87.7,414.1z"/>
		<path class="st4" d="M-73.3,418.7v-1.3c-0.3,0.5-0.7,0.8-1.3,1.1c-0.5,0.3-1.1,0.4-1.7,0.4c-0.6,0-1.1-0.1-1.6-0.4
			c-0.5-0.3-0.8-0.6-1-1.1c-0.2-0.5-0.3-1.1-0.3-2v-5.6h2.3v4.1c0,1.2,0,2,0.1,2.3c0.1,0.3,0.2,0.5,0.5,0.7s0.5,0.2,0.9,0.2
			c0.4,0,0.8-0.1,1.1-0.3s0.5-0.5,0.6-0.8c0.1-0.3,0.2-1.1,0.2-2.4v-3.7h2.3v8.8H-73.3z"/>
		<path class="st4" d="M-61.1,412.5l-2.3,0.4c-0.1-0.5-0.3-0.8-0.5-1c-0.3-0.2-0.6-0.3-1.1-0.3c-0.6,0-1,0.2-1.4,0.6
			c-0.3,0.4-0.5,1.1-0.5,2c0,1,0.2,1.8,0.5,2.2c0.4,0.4,0.8,0.6,1.4,0.6c0.4,0,0.8-0.1,1.1-0.4s0.5-0.7,0.6-1.3l2.3,0.4
			c-0.2,1.1-0.7,1.8-1.4,2.4c-0.7,0.5-1.6,0.8-2.7,0.8c-1.3,0-2.3-0.4-3.1-1.2c-0.8-0.8-1.1-1.9-1.1-3.4c0-1.5,0.4-2.6,1.2-3.4
			s1.8-1.2,3.1-1.2c1.1,0,1.9,0.2,2.6,0.7C-61.8,410.8-61.3,411.5-61.1,412.5z"/>
		<path class="st4" d="M-51.6,412.5l-2.3,0.4c-0.1-0.5-0.3-0.8-0.5-1c-0.3-0.2-0.6-0.3-1.1-0.3c-0.6,0-1,0.2-1.4,0.6
			c-0.3,0.4-0.5,1.1-0.5,2c0,1,0.2,1.8,0.5,2.2c0.4,0.4,0.8,0.6,1.4,0.6c0.4,0,0.8-0.1,1.1-0.4s0.5-0.7,0.6-1.3l2.3,0.4
			c-0.2,1.1-0.7,1.8-1.4,2.4c-0.7,0.5-1.6,0.8-2.7,0.8c-1.3,0-2.3-0.4-3.1-1.2c-0.8-0.8-1.1-1.9-1.1-3.4c0-1.5,0.4-2.6,1.2-3.4
			s1.8-1.2,3.1-1.2c1.1,0,1.9,0.2,2.6,0.7C-52.3,410.8-51.9,411.5-51.6,412.5z"/>
		<path class="st4" d="M-49.8,408.7v-2.2h2.3v2.2H-49.8z M-49.8,418.7v-8.8h2.3v8.8H-49.8z"/>
		<path class="st4" d="M-45.7,414.2c0-0.8,0.2-1.5,0.6-2.2c0.4-0.7,0.9-1.3,1.6-1.7c0.7-0.4,1.5-0.6,2.3-0.6c1.3,0,2.4,0.4,3.3,1.3
			c0.9,0.9,1.3,2,1.3,3.3c0,1.3-0.4,2.4-1.3,3.3c-0.9,0.9-1.9,1.3-3.2,1.3c-0.8,0-1.6-0.2-2.3-0.5c-0.7-0.4-1.3-0.9-1.7-1.6
			C-45.5,416-45.7,415.2-45.7,414.2z M-43.3,414.3c0,0.9,0.2,1.5,0.6,2s0.9,0.7,1.5,0.7c0.6,0,1.1-0.2,1.5-0.7
			c0.4-0.5,0.6-1.1,0.6-2c0-0.9-0.2-1.5-0.6-2c-0.4-0.5-0.9-0.7-1.5-0.7c-0.6,0-1.1,0.2-1.5,0.7S-43.3,413.4-43.3,414.3z
			 M-42.3,408.8l1.1-2.5h2.6l-2.3,2.5H-42.3z"/>
		<path class="st4" d="M-26.7,418.7H-29v-4.5c0-1,0-1.6-0.1-1.8s-0.3-0.5-0.5-0.7c-0.2-0.2-0.5-0.2-0.8-0.2c-0.4,0-0.8,0.1-1.1,0.3
			c-0.3,0.2-0.5,0.5-0.7,0.9c-0.1,0.4-0.2,1-0.2,2v4h-2.3v-8.8h2.2v1.3c0.8-1,1.7-1.5,2.9-1.5c0.5,0,1,0.1,1.4,0.3s0.7,0.4,1,0.7
			c0.2,0.3,0.4,0.6,0.5,1s0.1,0.9,0.1,1.6V418.7z"/>
	</g>
</g>
<g id="XMLID_556_">
	<path id="XMLID_567_" class="st5" d="M-149.4,401.8L-149.4,401.8c-4.8,0-8.7,3.9-8.7,8.6c0,3.2,1.1,5,2.1,6.4
		c1.1,1.3,2.7,5.5,2.7,7.1c0,0.5,0.3,1.3,1.8,1.8c0.3,0.3,0.9,1.1,1.3,1.1h1.8c0.3,0,1.2-0.9,1.4-1.1c1.6-0.5,1.8-1.6,1.8-1.8
		c0-1.6,1.6-5.8,2.7-7.1c1-1.4,2.1-3.2,2.1-6.4C-140.4,405.8-144.4,401.8-149.4,401.8L-149.4,401.8z"/>
	<path id="XMLID_566_" class="st6" d="M-144.4,415.5L-144.4,415.5c-1.3,1.8-1.6,5.8-2.1,6.1h-5.5c-0.5-0.3-1-4.2-2.1-6.1
		c-0.7-1.3-1.8-2.6-1.8-5c0-3.4,2.9-6.3,6.6-6.3c3.7,0,6.9,2.9,6.9,6.3C-142.5,412.9-143.6,414.2-144.4,415.5L-144.4,415.5z"/>
	<path id="XMLID_565_" class="st7" d="M-149.9,415L-149.9,415l-0.5-4.2c-0.2-0.3-0.2-0.5-0.2-0.8v-1.8c0-0.8,0.5-1.4,1.3-1.4
		c1,0,1.6,0.5,1.6,1.4v1.8c0,0.3-0.3,0.5-0.3,0.8l-0.5,4.2c0,0.5-0.3,0.5-0.8,0.5C-149.6,415.5-149.9,415.5-149.9,415L-149.9,415z"
		/>
	<polygon id="XMLID_564_" class="st6" points="-135.5,410.3 -135.5,410.3 -135.5,411.4 -139.8,411.4 -139.8,410.3 	"/>
	<polygon id="XMLID_563_" class="st6" points="-137.6,403.5 -137.6,403.5 -137.1,404.4 -140.8,406.6 -141.3,405.7 	"/>
	<polygon id="XMLID_562_" class="st6" points="-142.8,398.6 -142.8,398.6 -141.9,399.1 -144.1,402.9 -145,402.4 	"/>
	<polygon id="XMLID_561_" class="st6" points="-163.2,411.4 -163.2,411.4 -163.2,410.3 -158.8,410.3 -158.8,411.4 	"/>
	<polygon id="XMLID_560_" class="st6" points="-161.6,404.4 -161.6,404.4 -161,403.5 -157.3,405.7 -157.9,406.6 	"/>
	<polygon id="XMLID_559_" class="st6" points="-156.7,399.1 -156.7,399.1 -155.8,398.6 -153.6,402.4 -154.5,402.9 	"/>
	<polygon id="XMLID_558_" class="st6" points="-149.8,397 -149.8,397 -148.8,397 -148.8,401.4 -149.8,401.4 	"/>
	<path id="XMLID_557_" class="st7" d="M-149.3,416.3c0.5,0,0.9,0.4,0.9,0.9c0,0.5-0.3,0.9-0.9,0.9c-0.5,0-0.9-0.4-0.9-0.9
		C-150.2,416.7-149.8,416.3-149.3,416.3L-149.3,416.3z"/>
</g>
</svg>
