<?xml version="1.0" encoding="utf-8"?>
<!-- Generator: Adobe Illustrator 19.0.0, SVG Export Plug-In . SVG Version: 6.00 Build 0)  -->
<svg version="1.1" id="Capa_1" xmlns="http://www.w3.org/2000/svg" xmlns:xlink="http://www.w3.org/1999/xlink" x="0px" y="0px"
	 viewBox="-174 391.8 246 58.1" style="enable-background:new -174 391.8 246 58.1;" xml:space="preserve">
<style type="text/css">
	.st0{fill:#A8A8A8;}
	.st1{fill:#EFEFEF;}
	.st2{opacity:0.25;fill:#303030;enable-background:new    ;}
	.st3{fill:#FFFFFF;}
	.st4{fill:#2B2B2B;}
	.st5{fill-rule:evenodd;clip-rule:evenodd;fill:#727270;}
	.st6{fill-rule:evenodd;clip-rule:evenodd;fill:#E54A3F;}
</style>
<g id="XMLID_4652_">
	<g id="XMLID_25_">
		<polygon id="XMLID_26_" class="st0" points="58,449.9 72,432.2 61.6,412 58,412 		"/>
	</g>
</g>
<rect id="XMLID_4649_" x="-174" y="391.8" class="st1" width="246" height="40.4"/>
<polygon id="XMLID_4646_" class="st2" points="58,439.3 -174,432.2 58,432.2 "/>
<rect id="XMLID_4645_" x="-171.4" y="394.3" class="st3" width="240.8" height="35.3"/>
<g>
	<g>
		<path class="st4" d="M-127.3,418.7v-12.2h3.9c1.5,0,2.5,0.1,2.9,0.2c0.7,0.2,1.3,0.6,1.8,1.2s0.7,1.4,0.7,2.4
			c0,0.7-0.1,1.4-0.4,1.9s-0.6,0.9-1,1.2c-0.4,0.3-0.8,0.5-1.3,0.6c-0.6,0.1-1.4,0.2-2.5,0.2h-1.6v4.6H-127.3z M-124.8,408.6v3.5
			h1.3c1,0,1.6-0.1,1.9-0.2c0.3-0.1,0.6-0.3,0.8-0.6c0.2-0.3,0.3-0.6,0.3-0.9c0-0.4-0.1-0.8-0.4-1.1c-0.3-0.3-0.6-0.5-1-0.5
			c-0.3-0.1-0.9-0.1-1.8-0.1H-124.8z"/>
		<path class="st4" d="M-113.7,418.7h-2.3v-8.8h2.2v1.3c0.4-0.6,0.7-1,1-1.2c0.3-0.2,0.6-0.3,1-0.3c0.5,0,1,0.1,1.5,0.4l-0.7,2
			c-0.4-0.3-0.8-0.4-1.1-0.4c-0.3,0-0.6,0.1-0.8,0.3s-0.4,0.5-0.5,1c-0.1,0.5-0.2,1.5-0.2,3V418.7z"/>
		<path class="st4" d="M-109.9,414.2c0-0.8,0.2-1.5,0.6-2.2c0.4-0.7,0.9-1.3,1.6-1.7c0.7-0.4,1.5-0.6,2.3-0.6c1.3,0,2.4,0.4,3.3,1.3
			s1.3,2,1.3,3.3c0,1.3-0.4,2.4-1.3,3.3c-0.9,0.9-1.9,1.3-3.2,1.3c-0.8,0-1.6-0.2-2.3-0.5c-0.7-0.4-1.3-0.9-1.7-1.6
			C-109.7,416-109.9,415.2-109.9,414.2z M-107.5,414.3c0,0.9,0.2,1.5,0.6,2s0.9,0.7,1.5,0.7s1.1-0.2,1.5-0.7c0.4-0.5,0.6-1.1,0.6-2
			c0-0.9-0.2-1.5-0.6-2c-0.4-0.5-0.9-0.7-1.5-0.7s-1.1,0.2-1.5,0.7S-107.5,413.4-107.5,414.3z"/>
		<path class="st4" d="M-100,409.9h2.5l2.1,6.3l2.1-6.3h2.4l-3.1,8.5l-0.6,1.5c-0.2,0.5-0.4,0.9-0.6,1.2c-0.2,0.3-0.4,0.5-0.6,0.7
			c-0.2,0.2-0.5,0.3-0.9,0.4c-0.4,0.1-0.7,0.1-1.2,0.1c-0.4,0-0.9,0-1.3-0.1l-0.2-1.8c0.4,0.1,0.7,0.1,1,0.1c0.5,0,0.9-0.2,1.2-0.5
			s0.5-0.7,0.6-1.2L-100,409.9z"/>
		<path class="st4" d="M-84.4,415.9l2.3,0.4c-0.3,0.9-0.8,1.5-1.4,1.9c-0.6,0.4-1.5,0.7-2.4,0.7c-1.5,0-2.7-0.5-3.4-1.5
			c-0.6-0.8-0.9-1.8-0.9-3c0-1.5,0.4-2.6,1.1-3.4s1.7-1.2,2.9-1.2c1.3,0,2.3,0.4,3.1,1.3s1.1,2.2,1.1,4h-5.8c0,0.7,0.2,1.2,0.6,1.6
			s0.8,0.6,1.3,0.6c0.4,0,0.7-0.1,0.9-0.3S-84.5,416.3-84.4,415.9z M-84.2,413.5c0-0.7-0.2-1.2-0.5-1.5s-0.7-0.5-1.2-0.5
			c-0.5,0-0.9,0.2-1.3,0.6s-0.5,0.9-0.5,1.5H-84.2z"/>
		<path class="st4" d="M-72.3,412.5l-2.3,0.4c-0.1-0.5-0.3-0.8-0.5-1c-0.3-0.2-0.6-0.3-1.1-0.3c-0.6,0-1,0.2-1.4,0.6
			c-0.3,0.4-0.5,1.1-0.5,2c0,1,0.2,1.8,0.5,2.2c0.4,0.4,0.8,0.6,1.4,0.6c0.4,0,0.8-0.1,1.1-0.4s0.5-0.7,0.6-1.3l2.3,0.4
			c-0.2,1.1-0.7,1.8-1.4,2.4c-0.7,0.5-1.6,0.8-2.7,0.8c-1.3,0-2.3-0.4-3.1-1.2c-0.8-0.8-1.1-1.9-1.1-3.4c0-1.5,0.4-2.6,1.2-3.4
			s1.8-1.2,3.1-1.2c1.1,0,1.9,0.2,2.6,0.7C-73.1,410.8-72.6,411.5-72.3,412.5z"/>
		<path class="st4" d="M-66.5,409.9v1.9h-1.6v3.6c0,0.7,0,1.1,0,1.3c0,0.1,0.1,0.2,0.2,0.3c0.1,0.1,0.2,0.1,0.4,0.1
			c0.2,0,0.5-0.1,0.9-0.2l0.2,1.8c-0.5,0.2-1.2,0.3-1.8,0.3c-0.4,0-0.8-0.1-1.1-0.2c-0.3-0.1-0.6-0.3-0.7-0.5
			c-0.2-0.2-0.3-0.5-0.3-0.9c0-0.3-0.1-0.8-0.1-1.6v-3.8h-1.1v-1.9h1.1v-1.8l2.3-1.4v3.1H-66.5z"/>
		<path class="st4" d="M-65.5,414.2c0-0.8,0.2-1.5,0.6-2.2c0.4-0.7,0.9-1.3,1.6-1.7c0.7-0.4,1.5-0.6,2.3-0.6c1.3,0,2.4,0.4,3.3,1.3
			s1.3,2,1.3,3.3c0,1.3-0.4,2.4-1.3,3.3c-0.9,0.9-1.9,1.3-3.2,1.3c-0.8,0-1.6-0.2-2.3-0.5c-0.7-0.4-1.3-0.9-1.7-1.6
			C-65.3,416-65.5,415.2-65.5,414.2z M-63.1,414.3c0,0.9,0.2,1.5,0.6,2s0.9,0.7,1.5,0.7s1.1-0.2,1.5-0.7c0.4-0.5,0.6-1.1,0.6-2
			c0-0.9-0.2-1.5-0.6-2c-0.4-0.5-0.9-0.7-1.5-0.7s-1.1,0.2-1.5,0.7S-63.1,413.4-63.1,414.3z"/>
		<path class="st4" d="M-41.7,418.7h-2.2v-1.3c-0.4,0.5-0.8,0.9-1.3,1.1s-1,0.4-1.5,0.4c-1,0-1.9-0.4-2.6-1.2s-1.1-2-1.1-3.4
			c0-1.5,0.4-2.6,1.1-3.4s1.6-1.2,2.7-1.2c1,0,1.8,0.4,2.6,1.2v-4.4h2.3V418.7z M-47.9,414.1c0,0.9,0.1,1.6,0.4,2
			c0.4,0.6,0.9,0.9,1.6,0.9c0.5,0,1-0.2,1.4-0.7c0.4-0.5,0.6-1.1,0.6-2c0-1-0.2-1.7-0.5-2.2s-0.8-0.7-1.4-0.7c-0.6,0-1,0.2-1.4,0.7
			C-47.8,412.6-47.9,413.2-47.9,414.1z"/>
		<path class="st4" d="M-34.3,415.9l2.3,0.4c-0.3,0.9-0.8,1.5-1.4,1.9s-1.5,0.7-2.4,0.7c-1.5,0-2.7-0.5-3.4-1.5
			c-0.6-0.8-0.9-1.8-0.9-3c0-1.5,0.4-2.6,1.1-3.4s1.7-1.2,2.9-1.2c1.3,0,2.3,0.4,3.1,1.3s1.1,2.2,1.1,4h-5.8c0,0.7,0.2,1.2,0.6,1.6
			c0.4,0.4,0.8,0.6,1.3,0.6c0.4,0,0.7-0.1,0.9-0.3S-34.4,416.3-34.3,415.9z M-34.2,413.5c0-0.7-0.2-1.2-0.5-1.5s-0.7-0.5-1.2-0.5
			c-0.5,0-0.9,0.2-1.3,0.6s-0.5,0.9-0.5,1.5H-34.2z"/>
		<path class="st4" d="M-22.8,418.7l-3.6-8.8h2.4l1.7,4.5l0.5,1.5c0.1-0.4,0.2-0.6,0.2-0.8c0.1-0.2,0.2-0.5,0.3-0.7l1.7-4.5h2.4
			l-3.5,8.8H-22.8z"/>
		<path class="st4" d="M-15.8,408.7v-2.2h2.3v2.2H-15.8z M-15.8,418.7v-8.8h2.3v8.8H-15.8z"/>
		<path class="st4" d="M-3,418.7h-2.2v-1.3c-0.4,0.5-0.8,0.9-1.3,1.1c-0.5,0.2-1,0.4-1.5,0.4c-1,0-1.9-0.4-2.6-1.2
			c-0.7-0.8-1.1-2-1.1-3.4c0-1.5,0.4-2.6,1.1-3.4c0.7-0.8,1.6-1.2,2.7-1.2c1,0,1.8,0.4,2.6,1.2v-4.4H-3V418.7z M-9.2,414.1
			c0,0.9,0.1,1.6,0.4,2c0.4,0.6,0.9,0.9,1.6,0.9c0.5,0,1-0.2,1.4-0.7c0.4-0.5,0.6-1.1,0.6-2c0-1-0.2-1.7-0.5-2.2s-0.8-0.7-1.4-0.7
			c-0.6,0-1,0.2-1.4,0.7C-9,412.6-9.2,413.2-9.2,414.1z"/>
		<path class="st4" d="M1.1,412.6l-2.1-0.4c0.2-0.9,0.6-1.5,1.2-1.9c0.6-0.4,1.4-0.6,2.6-0.6c1,0,1.8,0.1,2.3,0.4
			c0.5,0.2,0.9,0.6,1.1,0.9c0.2,0.4,0.3,1.1,0.3,2.1l0,2.7c0,0.8,0,1.3,0.1,1.7c0.1,0.4,0.2,0.8,0.4,1.2H4.7
			c-0.1-0.2-0.1-0.4-0.2-0.7c0-0.1-0.1-0.2-0.1-0.3c-0.4,0.4-0.8,0.7-1.3,0.9c-0.5,0.2-0.9,0.3-1.5,0.3c-0.9,0-1.6-0.2-2.1-0.7
			c-0.5-0.5-0.8-1.1-0.8-1.9c0-0.5,0.1-0.9,0.4-1.3c0.2-0.4,0.6-0.7,1-0.9c0.4-0.2,1-0.4,1.9-0.5c1.1-0.2,1.8-0.4,2.3-0.6v-0.2
			c0-0.4-0.1-0.8-0.3-1c-0.2-0.2-0.6-0.3-1.3-0.3c-0.4,0-0.7,0.1-1,0.2S1.2,412.2,1.1,412.6z M4.2,414.5c-0.3,0.1-0.8,0.2-1.4,0.4
			c-0.6,0.1-1.1,0.3-1.3,0.4C1.2,415.4,1,415.7,1,416c0,0.3,0.1,0.6,0.4,0.8c0.2,0.2,0.6,0.4,0.9,0.4c0.4,0,0.8-0.1,1.2-0.4
			c0.3-0.2,0.5-0.5,0.6-0.8c0.1-0.2,0.1-0.6,0.1-1.1V414.5z"/>
	</g>
</g>
<g id="XMLID_502_">
	<polygon id="XMLID_264_" class="st5" points="-154.4,424.1 -154.4,424.1 -151.2,424.1 -151.2,414.8 -154.4,414.8 	"/>
	<polygon id="XMLID_262_" class="st5" points="-148.8,424.1 -148.8,424.1 -145.6,424.1 -145.6,411.9 -148.8,411.9 	"/>
	<path id="XMLID_261_" class="st6" d="M-137.5,405.9L-137.5,405.9c0-1.1-1-2.1-2.2-2.1c-1.1,0-2.1,1-2.1,2.1c0,1.2,1,2.2,2.1,2.2
		C-138.5,408.1-137.5,407.1-137.5,405.9L-137.5,405.9z"/>
	<path id="XMLID_260_" class="st6" d="M-135.2,414.5L-135.2,414.5c-0.5-3.4-1.3-4.8-3.1-6c-0.3-0.2-0.6-0.3-0.9-0.4h-1
		c-0.4,0.1-0.8,0.2-1.1,0.5c-1.6,1.1-2.4,2.6-2.8,5.8c-0.1,0.5,0.2,0.8,0.7,1c0.1,0,0.1,0,0.1,0c0.4,0,0.7-0.3,0.8-0.7
		c0.2-1.1,0.4-2,0.6-2.7v2.7c0,0.2,0.1,0.4,0.1,0.6v0.1v8c0,0.5,0.4,1,1,1c0.5,0,1-0.5,1-1v-6.8c0.1,0,0.1,0,0.1,0s0,0,0.1,0v6.8
		c0,0.5,0.4,1,1,1c0.5,0,1-0.5,1-1v-7.9c0.1-0.2,0.2-0.5,0.2-0.8v-2.9c0.2,0.7,0.5,1.6,0.7,2.9c0.1,0.4,0.4,0.7,0.8,0.7
		c0,0,0.1,0,0.1,0C-135.4,415.4-135.1,415-135.2,414.5L-135.2,414.5z"/>
	<polygon id="XMLID_259_" class="st5" points="-159.8,424.1 -159.8,424.1 -156.7,424.1 -156.7,417.3 -159.8,417.3 	"/>
	<path id="XMLID_258_" class="st6" d="M-161.7,414c-0.1,0-0.2,0.1-0.3,0.1c-0.8,0-1.5-0.6-1.6-1.3c-0.2-0.9,0.4-1.8,1.3-1.9
		c4-0.7,8.2-2.8,12.6-6l-1.9-2.2l8.9-1.5l-3.1,8.5l-1.8-2.2C-152.6,411-157.2,413.2-161.7,414L-161.7,414z"/>
</g>
</svg>
