<?xml version="1.0" encoding="utf-8"?>
<!-- Generator: Adobe Illustrator 19.0.0, SVG Export Plug-In . SVG Version: 6.00 Build 0)  -->
<svg version="1.1" id="Capa_1" xmlns="http://www.w3.org/2000/svg" xmlns:xlink="http://www.w3.org/1999/xlink" x="0px" y="0px"
	 viewBox="-174 391.8 246 58.1" style="enable-background:new -174 391.8 246 58.1;" xml:space="preserve">
<style type="text/css">
	.st0{fill:#A8A8A8;}
	.st1{fill:#EFEFEF;}
	.st2{opacity:0.25;fill:#303030;enable-background:new    ;}
	.st3{fill:#FFFFFF;}
	.st4{fill:#2B2B2B;}
	.st5{fill-rule:evenodd;clip-rule:evenodd;fill:#727270;}
	.st6{fill-rule:evenodd;clip-rule:evenodd;fill:#E54A3F;}
</style>
<g id="XMLID_4652_">
	<g id="XMLID_25_">
		<polygon id="XMLID_26_" class="st0" points="58,449.9 72,432.2 61.6,412 58,412 		"/>
	</g>
</g>
<rect id="XMLID_4649_" x="-174" y="391.8" class="st1" width="246" height="40.4"/>
<polygon id="XMLID_4646_" class="st2" points="58,439.3 -174,432.2 58,432.2 "/>
<rect id="XMLID_4645_" x="-171.4" y="394.3" class="st3" width="240.8" height="35.3"/>
<g>
	<g>
		<path class="st4" d="M-127.3,418.7v-12.2h3.9c1.5,0,2.5,0.1,2.9,0.2c0.7,0.2,1.3,0.6,1.8,1.2s0.7,1.4,0.7,2.4
			c0,0.7-0.1,1.4-0.4,1.9s-0.6,0.9-1,1.2c-0.4,0.3-0.8,0.5-1.3,0.6c-0.6,0.1-1.4,0.2-2.5,0.2h-1.6v4.6H-127.3z M-124.8,408.6v3.5
			h1.3c1,0,1.6-0.1,1.9-0.2c0.3-0.1,0.6-0.3,0.8-0.6c0.2-0.3,0.3-0.6,0.3-0.9c0-0.4-0.1-0.8-0.4-1.1c-0.3-0.3-0.6-0.5-1-0.5
			c-0.3-0.1-0.9-0.1-1.8-0.1H-124.8z"/>
		<path class="st4" d="M-115.9,418.7v-12.2h2.3v12.2H-115.9z"/>
		<path class="st4" d="M-109.5,412.6l-2.1-0.4c0.2-0.9,0.6-1.5,1.2-1.9s1.4-0.6,2.6-0.6c1,0,1.8,0.1,2.3,0.4s0.9,0.6,1.1,0.9
			c0.2,0.4,0.3,1.1,0.3,2.1l0,2.7c0,0.8,0,1.3,0.1,1.7c0.1,0.4,0.2,0.8,0.4,1.2h-2.3c-0.1-0.2-0.1-0.4-0.2-0.7
			c0-0.1-0.1-0.2-0.1-0.3c-0.4,0.4-0.8,0.7-1.3,0.9c-0.5,0.2-0.9,0.3-1.5,0.3c-0.9,0-1.6-0.2-2.1-0.7c-0.5-0.5-0.8-1.1-0.8-1.9
			c0-0.5,0.1-0.9,0.4-1.3c0.2-0.4,0.6-0.7,1-0.9c0.4-0.2,1-0.4,1.9-0.5c1.1-0.2,1.8-0.4,2.3-0.6v-0.2c0-0.4-0.1-0.8-0.3-1
			c-0.2-0.2-0.6-0.3-1.3-0.3c-0.4,0-0.7,0.1-1,0.2S-109.3,412.2-109.5,412.6z M-106.4,414.5c-0.3,0.1-0.8,0.2-1.4,0.4
			c-0.6,0.1-1.1,0.3-1.3,0.4c-0.3,0.2-0.5,0.5-0.5,0.8c0,0.3,0.1,0.6,0.4,0.8c0.2,0.2,0.6,0.4,0.9,0.4c0.4,0,0.8-0.1,1.2-0.4
			c0.3-0.2,0.5-0.5,0.6-0.8c0.1-0.2,0.1-0.6,0.1-1.1V414.5z"/>
		<path class="st4" d="M-93.7,418.7h-2.3v-4.5c0-1,0-1.6-0.1-1.8s-0.3-0.5-0.5-0.7c-0.2-0.2-0.5-0.2-0.8-0.2c-0.4,0-0.8,0.1-1.1,0.3
			c-0.3,0.2-0.5,0.5-0.7,0.9c-0.1,0.4-0.2,1-0.2,2v4h-2.3v-8.8h2.2v1.3c0.8-1,1.7-1.5,2.9-1.5c0.5,0,1,0.1,1.4,0.3s0.7,0.4,1,0.7
			c0.2,0.3,0.4,0.6,0.5,1c0.1,0.4,0.1,0.9,0.1,1.6V418.7z"/>
		<path class="st4" d="M-86.3,415.9l2.3,0.4c-0.3,0.9-0.8,1.5-1.4,1.9c-0.6,0.4-1.5,0.7-2.4,0.7c-1.5,0-2.7-0.5-3.4-1.5
			c-0.6-0.8-0.9-1.8-0.9-3c0-1.5,0.4-2.6,1.1-3.4s1.7-1.2,2.9-1.2c1.3,0,2.3,0.4,3.1,1.3s1.1,2.2,1.1,4h-5.8c0,0.7,0.2,1.2,0.6,1.6
			s0.8,0.6,1.3,0.6c0.4,0,0.7-0.1,0.9-0.3S-86.4,416.3-86.3,415.9z M-86.1,413.5c0-0.7-0.2-1.2-0.5-1.5s-0.7-0.5-1.2-0.5
			c-0.5,0-0.9,0.2-1.3,0.6s-0.5,0.9-0.5,1.5H-86.1z"/>
		<path class="st4" d="M-80.2,412.6l-2.1-0.4c0.2-0.9,0.6-1.5,1.2-1.9s1.4-0.6,2.6-0.6c1,0,1.8,0.1,2.3,0.4s0.9,0.6,1.1,0.9
			c0.2,0.4,0.3,1.1,0.3,2.1l0,2.7c0,0.8,0,1.3,0.1,1.7c0.1,0.4,0.2,0.8,0.4,1.2h-2.3c-0.1-0.2-0.1-0.4-0.2-0.7
			c0-0.1-0.1-0.2-0.1-0.3c-0.4,0.4-0.8,0.7-1.3,0.9c-0.5,0.2-0.9,0.3-1.5,0.3c-0.9,0-1.6-0.2-2.1-0.7c-0.5-0.5-0.8-1.1-0.8-1.9
			c0-0.5,0.1-0.9,0.4-1.3c0.2-0.4,0.6-0.7,1-0.9c0.4-0.2,1-0.4,1.9-0.5c1.1-0.2,1.8-0.4,2.3-0.6v-0.2c0-0.4-0.1-0.8-0.3-1
			c-0.2-0.2-0.6-0.3-1.3-0.3c-0.4,0-0.7,0.1-1,0.2S-80,412.2-80.2,412.6z M-77.1,414.5c-0.3,0.1-0.8,0.2-1.4,0.4
			c-0.6,0.1-1.1,0.3-1.3,0.4c-0.3,0.2-0.5,0.5-0.5,0.8c0,0.3,0.1,0.6,0.4,0.8c0.2,0.2,0.6,0.4,0.9,0.4c0.4,0,0.8-0.1,1.2-0.4
			c0.3-0.2,0.5-0.5,0.6-0.8c0.1-0.2,0.1-0.6,0.1-1.1V414.5z"/>
		<path class="st4" d="M-64.8,412.5l-2.3,0.4c-0.1-0.5-0.3-0.8-0.5-1c-0.3-0.2-0.6-0.3-1.1-0.3c-0.6,0-1,0.2-1.4,0.6
			c-0.3,0.4-0.5,1.1-0.5,2c0,1,0.2,1.8,0.5,2.2c0.4,0.4,0.8,0.6,1.4,0.6c0.4,0,0.8-0.1,1.1-0.4s0.5-0.7,0.6-1.3l2.3,0.4
			c-0.2,1.1-0.7,1.8-1.4,2.4c-0.7,0.5-1.6,0.8-2.7,0.8c-1.3,0-2.3-0.4-3.1-1.2c-0.8-0.8-1.1-1.9-1.1-3.4c0-1.5,0.4-2.6,1.2-3.4
			s1.8-1.2,3.1-1.2c1.1,0,1.9,0.2,2.6,0.7C-65.5,410.8-65.1,411.5-64.8,412.5z"/>
		<path class="st4" d="M-63,408.7v-2.2h2.3v2.2H-63z M-63,418.7v-8.8h2.3v8.8H-63z"/>
		<path class="st4" d="M-58.8,414.2c0-0.8,0.2-1.5,0.6-2.2c0.4-0.7,0.9-1.3,1.6-1.7c0.7-0.4,1.5-0.6,2.3-0.6c1.3,0,2.4,0.4,3.3,1.3
			s1.3,2,1.3,3.3c0,1.3-0.4,2.4-1.3,3.3c-0.9,0.9-1.9,1.3-3.2,1.3c-0.8,0-1.6-0.2-2.3-0.5c-0.7-0.4-1.3-0.9-1.7-1.6
			C-58.6,416-58.8,415.2-58.8,414.2z M-56.4,414.3c0,0.9,0.2,1.5,0.6,2s0.9,0.7,1.5,0.7s1.1-0.2,1.5-0.7c0.4-0.5,0.6-1.1,0.6-2
			c0-0.9-0.2-1.5-0.6-2c-0.4-0.5-0.9-0.7-1.5-0.7s-1.1,0.2-1.5,0.7S-56.4,413.4-56.4,414.3z M-55.5,408.8l1.1-2.5h2.6l-2.3,2.5
			H-55.5z"/>
		<path class="st4" d="M-39.9,418.7h-2.3v-4.5c0-1,0-1.6-0.1-1.8s-0.3-0.5-0.5-0.7c-0.2-0.2-0.5-0.2-0.8-0.2c-0.4,0-0.8,0.1-1.1,0.3
			c-0.3,0.2-0.5,0.5-0.7,0.9c-0.1,0.4-0.2,1-0.2,2v4h-2.3v-8.8h2.2v1.3c0.8-1,1.7-1.5,2.9-1.5c0.5,0,1,0.1,1.4,0.3s0.7,0.4,1,0.7
			c0.2,0.3,0.4,0.6,0.5,1s0.1,0.9,0.1,1.6V418.7z"/>
	</g>
</g>
<g id="XMLID_135027_">
	<path id="XMLID_135031_" class="st5" d="M-138.8,401.3L-138.8,401.3h-7.7c0.1-0.2,0.2-0.3,0.2-0.5c0-0.6-0.5-1.1-1.2-1.1
		c-0.6,0-1.1,0.5-1.1,1.1c0,0.2,0.1,0.4,0.2,0.5h-7.7c-0.3,0-0.6,0.1-0.8,0.3c0.8,0.3,1.5,0.8,1.8,1.5h15.2v9.6h-14.5v2h4.4l-1.2,10
		c-0.1,0.3,0,0.6,0.4,0.6l0.4,0.1c0.3,0,0.6-0.1,0.7-0.4l1.3-10.2h1.4l1.3,10.2c0.1,0.3,0.4,0.5,0.7,0.4l0.4-0.1
		c0.3,0,0.5-0.4,0.4-0.6l-1.2-10h6.3c0.6,0,1-0.5,1-1v-11.4C-137.8,401.8-138.2,401.3-138.8,401.3L-138.8,401.3z"/>
	<path id="XMLID_135030_" class="st5" d="M-159.9,404.6L-159.9,404.6c0-1.3,1-2.4,2.3-2.4c1.3,0,2.4,1,2.4,2.4
		c0,1.3-1.1,2.3-2.4,2.3C-158.9,406.9-159.9,405.9-159.9,404.6L-159.9,404.6z"/>
	<path id="XMLID_135029_" class="st5" d="M-159.1,407.5L-159.1,407.5c0,0,0.1,0,0.1,0c0.3-0.2,2.3-0.4,2.9,0c0,0,0.1,0,0.2,0.1
		c0.4,0.2,0.7,0.3,1.1,0.1c1.3-0.4,1.7-1.7,2.1-2.5c0.1-0.2,0.3-0.3,0.4-0.5l0.2-0.1c0.2,0,0.4,0,0.6,0.1c0.5,0.3,0.7,0.8,0.4,1.3
		c0,0.1-0.3,0.5-0.6,1.1l-0.2,0.3c-0.7,1-1,1.6-2.4,2.1c-0.3,0.1-0.5,0.1-0.8,0.1c0,5-0.1,9.9-0.1,14.8c0,0.6-0.5,1.1-1.1,1.1
		c-0.6,0-1.1-0.5-1.1-1.1v-7.7c0,0-0.1,0-0.1,0h0v7.7c0,0.6-0.4,1.1-1.1,1.1c-0.6,0-1.1-0.5-1.1-1.1v-8.8c0,0-0.1,0.1-0.2,0.1
		c-0.2,0.1-0.3,0.1-0.4,0.1c-0.4,0-0.7-0.2-0.9-0.5C-163.9,410.5-160.3,408.2-159.1,407.5L-159.1,407.5z"/>
	<path id="XMLID_135028_" class="st6" d="M-143,405.4h1.8v1.8h-1.4l-1.8,1.6v1.2h-1.8v-1.1c-0.5-0.4-1.2-1-1.7-1.5h-1.3
		c-0.9,0.7-2.3,1.8-3.2,2.6v1.3h-1.8v-1.8h1.6l3.2-2.5v-1.3h1.7v1.3c0.5,0.4,1,0.8,1.5,1.3h1.5c0.5-0.4,1.1-1,1.6-1.4V405.4z"/>
</g>
</svg>
