<?xml version="1.0" encoding="utf-8"?>
<!-- Generator: Adobe Illustrator 19.0.0, SVG Export Plug-In . SVG Version: 6.00 Build 0)  -->
<svg version="1.1" id="Capa_1" xmlns="http://www.w3.org/2000/svg" xmlns:xlink="http://www.w3.org/1999/xlink" x="0px" y="0px"
	 viewBox="-619 281 40 40" style="enable-background:new -619 281 40 40;" xml:space="preserve">
<style type="text/css">
	.st0{fill:#B73734;}
	.st1{fill:#FFFFFF;}
</style>
<g id="XMLID_1_">
	<rect id="XMLID_2374_" x="-619" y="281" class="st0" width="40" height="40"/>
	<g id="XMLID_2353_">
		<path id="XMLID_2361_" class="st1" d="M-590.1,301.6l-8.5-7c-0.4-0.3-1-0.3-1.3,0l-8.5,7c-0.2,0.2-0.4,0.5-0.4,0.8V313
			c0,0.6,0.5,1.1,1.1,1.1h16.9c0.6,0,1.1-0.5,1.1-1.1v-10.6C-589.8,302.1-589.9,301.8-590.1,301.6L-590.1,301.6z M-598.1,311.9h-2.2
			V306h2.2V311.9z M-591.9,311.9h-4.1V305c0-0.6-0.5-1.1-1.1-1.1h-4.4c-0.6,0-1.1,0.5-1.1,1.1v6.9h-4.2v-9l7.4-6.1l7.4,6.1
			L-591.9,311.9L-591.9,311.9z"/>
		<path id="XMLID_2355_" class="st1" d="M-587.2,299.5c-2.4-1.9-4.6-3.7-7-5.7c-0.7-0.6-1.5-1.3-2.2-1.9c-0.7-0.6-1.5-1.2-2.1-1.8
			c-0.4-0.4-1-0.4-1.4,0c-0.7,0.6-1.4,1.2-2.1,1.8s-1.5,1.2-2.2,1.9c-2.4,2-4.6,3.8-7,5.7c-0.5,0.4-0.5,1-0.2,1.5
			c0.4,0.5,1,0.5,1.5,0.2c2.4-1.9,4.6-3.7,7-5.7l0,0c0.7-0.6,1.4-1.2,2.1-1.8c0.5-0.4,1-0.8,1.5-1.3c0.5,0.4,1,0.8,1.5,1.3
			c0.7,0.6,1.5,1.2,2.1,1.8l0,0c2.4,2,4.7,3.8,7,5.7c0.2,0.2,0.4,0.2,0.7,0.2c0.3,0,0.6-0.1,0.8-0.4
			C-586.7,300.5-586.7,299.9-587.2,299.5L-587.2,299.5z"/>
	</g>
</g>
</svg>
