<?xml version="1.0" encoding="utf-8"?>
<!-- Generator: Adobe Illustrator 19.0.0, SVG Export Plug-In . SVG Version: 6.00 Build 0)  -->
<svg version="1.1" id="Capa_1" xmlns="http://www.w3.org/2000/svg" xmlns:xlink="http://www.w3.org/1999/xlink" x="0px" y="0px"
	 viewBox="-184 387.7 226.9 67.2" style="enable-background:new -184 387.7 226.9 67.2;" xml:space="preserve">
<style type="text/css">
	.st0{fill:#FFFFFF;}
	.st1{fill:#E54A3F;}
</style>
<g id="XMLID_22_">
	<polygon class="st0" points="2.1,446.4 23.7,421.3 2.1,396.2 19.9,396.2 41.6,421.3 19.9,446.4 	"/>
	<path class="st1" d="M19.5,397.2l20.8,24.1l-20.8,24.1H4.3L24,422.6l1.1-1.3L24,420L4.3,397.2H19.5 M20.4,395.2H-0.1l22.5,26.1
		l-22.5,26.1h20.5l22.5-26.1L20.4,395.2L20.4,395.2z"/>
</g>
<g id="XMLID_19_">
	<polygon class="st0" points="-161,446.4 -182.7,421.3 -161,396.2 -143.2,396.2 -164.8,421.3 -143.2,446.4 	"/>
	<path class="st1" d="M-145.4,397.2L-165,420l-1.1,1.3l1.1,1.3l19.7,22.8h-15.2l-20.8-24.1l20.8-24.1L-145.4,397.2 M-141,395.2
		h-20.5l-22.5,26.1l22.5,26.1h20.5l-22.5-26.1L-141,395.2L-141,395.2z"/>
</g>
<polygon class="st1" points="-134.3,446.4 -156,421.3 -134.3,396.2 -6.8,396.2 14.9,421.3 -6.8,446.4 "/>
<path class="st1" d="M-7.2,397.2l20.8,24.1l-20.8,24.1h-126.7l-20.8-24.1l20.8-24.1H-7.2 M-6.3,395.2h-128.5l-22.5,26.1l22.5,26.1
	H-6.3l22.5-26.1L-6.3,395.2L-6.3,395.2z"/>
<g id="XMLID_1_">
	<path id="XMLID_60_" class="st0" d="M-136.3,428.4v-12.8h2.6v12.8H-136.3z"/>
	<path id="XMLID_62_" class="st0" d="M-131.5,428.4v-12.8h2.5l5.2,8.5v-8.5h2.4v12.8h-2.6l-5.2-8.3v8.3H-131.5z"/>
	<path id="XMLID_64_" class="st0" d="M-116,428.4v-10.6h-3.8v-2.2h10.2v2.2h-3.8v10.6H-116z"/>
	<path id="XMLID_66_" class="st0" d="M-108.2,428.4v-12.8h5.4c1.4,0,2.4,0.1,3,0.3c0.6,0.2,1.1,0.6,1.5,1.2c0.4,0.6,0.6,1.3,0.6,2
		c0,1-0.3,1.8-0.8,2.4c-0.6,0.6-1.4,1-2.5,1.2c0.6,0.3,1,0.7,1.4,1.1c0.4,0.4,0.9,1.1,1.5,2.1l1.6,2.5h-3.1l-1.9-2.8
		c-0.7-1-1.1-1.6-1.4-1.9s-0.5-0.4-0.8-0.5s-0.7-0.1-1.3-0.1h-0.5v5.3C-105.5,428.4-108.2,428.4-108.2,428.4z M-105.6,421h1.9
		c1.2,0,2-0.1,2.3-0.2s0.5-0.3,0.7-0.5s0.3-0.6,0.3-1s-0.1-0.8-0.3-1c-0.2-0.3-0.6-0.4-1-0.5c-0.2,0-0.8,0-1.9,0h-2V421z"/>
	<path id="XMLID_69_" class="st0" d="M-96.1,422.1c0-1.3,0.2-2.4,0.6-3.3c0.3-0.7,0.7-1.2,1.2-1.8c0.5-0.5,1.1-0.9,1.7-1.2
		c0.8-0.3,1.7-0.5,2.8-0.5c1.9,0,3.4,0.6,4.5,1.8c1.1,1.2,1.7,2.8,1.7,4.9s-0.6,3.7-1.7,4.8c-1.1,1.1-2.6,1.7-4.5,1.7
		c-1.9,0-3.4-0.6-4.5-1.7C-95.4,425.7-96.1,424.1-96.1,422.1z M-93.5,422c0,1.4,0.3,2.5,1,3.3c0.7,0.7,1.5,1.1,2.5,1.1
		s1.9-0.4,2.5-1.1c0.7-0.7,1-1.9,1-3.3c0-1.5-0.3-2.6-1-3.3c-0.6-0.7-1.5-1.1-2.6-1.1c-1.1,0-1.9,0.4-2.6,1.1
		C-93.1,419.4-93.5,420.5-93.5,422z"/>
	<path id="XMLID_72_" class="st0" d="M-82,415.6h4.7c1.1,0,1.9,0.1,2.4,0.2c0.8,0.2,1.4,0.6,1.9,1.2s0.9,1.3,1.2,2.1
		c0.3,0.8,0.4,1.8,0.4,3c0,1.1-0.1,2-0.4,2.7c-0.3,0.9-0.8,1.7-1.4,2.3c-0.4,0.4-1.1,0.8-1.8,1c-0.6,0.2-1.3,0.3-2.3,0.3H-82V415.6z
		 M-79.4,417.8v8.5h1.9c0.7,0,1.2,0,1.6-0.1c0.4-0.1,0.8-0.3,1-0.5c0.3-0.3,0.5-0.7,0.7-1.2c0.2-0.6,0.3-1.4,0.3-2.3
		c0-1-0.1-1.7-0.3-2.3c-0.2-0.5-0.4-0.9-0.7-1.2c-0.3-0.3-0.7-0.5-1.2-0.6c-0.4-0.1-1.1-0.1-2.1-0.1h-1.2
		C-79.4,418-79.4,417.8-79.4,417.8z"/>
	<path id="XMLID_75_" class="st0" d="M-69.3,415.6h2.6v6.9c0,1.1,0,1.8,0.1,2.1c0.1,0.5,0.4,0.9,0.8,1.3c0.4,0.3,1,0.5,1.7,0.5
		c0.7,0,1.3-0.1,1.7-0.4s0.6-0.7,0.7-1.1s0.1-1.2,0.1-2.2v-7.1h2.6v6.7c0,1.5-0.1,2.6-0.2,3.3c-0.1,0.7-0.4,1.2-0.8,1.6
		c-0.4,0.4-0.9,0.8-1.5,1s-1.4,0.4-2.5,0.4c-1.2,0-2.1-0.1-2.8-0.4c-0.7-0.3-1.1-0.6-1.5-1.1c-0.4-0.5-0.6-0.9-0.7-1.4
		c-0.2-0.7-0.3-1.8-0.3-3.2L-69.3,415.6L-69.3,415.6z"/>
	<path id="XMLID_77_" class="st0" d="M-48.5,423.7l2.5,0.8c-0.4,1.4-1,2.4-1.9,3.1s-2,1-3.4,1c-1.7,0-3.1-0.6-4.2-1.7
		c-1.1-1.2-1.6-2.7-1.6-4.8c0-2.1,0.5-3.8,1.6-5s2.5-1.8,4.3-1.8c1.6,0,2.8,0.5,3.8,1.4c0.6,0.5,1,1.3,1.3,2.4l-2.6,0.6
		c-0.2-0.7-0.5-1.2-0.9-1.6c-0.5-0.4-1.1-0.6-1.8-0.6c-0.9,0-1.7,0.3-2.3,1s-0.9,1.8-0.9,3.3c0,1.6,0.3,2.8,0.9,3.5
		c0.6,0.7,1.3,1,2.3,1c0.7,0,1.3-0.2,1.8-0.7C-49.1,425.3-48.7,424.6-48.5,423.7z"/>
	<path id="XMLID_79_" class="st0" d="M-35.9,423.7l2.5,0.8c-0.4,1.4-1,2.4-1.9,3.1s-2,1-3.4,1c-1.7,0-3.1-0.6-4.2-1.7
		c-1.1-1.2-1.6-2.7-1.6-4.8c0-2.1,0.5-3.8,1.6-5s2.5-1.8,4.3-1.8c1.6,0,2.8,0.5,3.8,1.4c0.6,0.5,1,1.3,1.3,2.4l-2.5,0.6
		c-0.2-0.7-0.5-1.2-0.9-1.6c-0.5-0.4-1.1-0.6-1.8-0.6c-0.9,0-1.7,0.3-2.3,1s-0.9,1.8-0.9,3.3c0,1.6,0.3,2.8,0.9,3.5
		c0.6,0.7,1.3,1,2.3,1c0.7,0,1.3-0.2,1.8-0.7C-36.4,425.3-36.1,424.6-35.9,423.7z"/>
	<path id="XMLID_81_" class="st0" d="M-31.5,428.4v-12.8h2.6v12.8H-31.5z"/>
	<path id="XMLID_83_" class="st0" d="M-27.3,422.1c0-1.3,0.2-2.4,0.6-3.3c0.3-0.7,0.7-1.2,1.2-1.8s1.1-0.9,1.7-1.2
		c0.8-0.3,1.7-0.5,2.8-0.5c1.9,0,3.4,0.6,4.5,1.8c1.1,1.2,1.7,2.8,1.7,4.9s-0.6,3.7-1.7,4.8c-1.1,1.2-2.6,1.7-4.5,1.7
		s-3.4-0.6-4.5-1.7C-26.6,425.7-27.3,424.1-27.3,422.1z M-24.6,422c0,1.4,0.3,2.5,1,3.3c0.7,0.7,1.5,1.1,2.5,1.1s1.9-0.4,2.5-1.1
		c0.7-0.7,1-1.9,1-3.3c0-1.5-0.3-2.6-1-3.3c-0.6-0.7-1.5-1.1-2.6-1.1s-1.9,0.4-2.6,1.1C-24.3,419.4-24.6,420.5-24.6,422z
		 M-22.6,414.9l1.2-2.6h2.7l-2.4,2.6H-22.6z"/>
	<path id="XMLID_87_" class="st0" d="M-13.1,428.4v-12.8h2.5l5.2,8.5v-8.5H-3v12.8h-2.6l-5.2-8.3v8.3H-13.1z"/>
</g>
</svg>
