<?xml version="1.0" encoding="utf-8"?>
<!-- Generator: Adobe Illustrator 19.0.0, SVG Export Plug-In . SVG Version: 6.00 Build 0)  -->
<svg version="1.1" id="Capa_1" xmlns="http://www.w3.org/2000/svg" xmlns:xlink="http://www.w3.org/1999/xlink" x="0px" y="0px"
	 viewBox="-619 281 40 40" style="enable-background:new -619 281 40 40;" xml:space="preserve">
<style type="text/css">
	.st0{fill:#B73734;}
	.st1{fill:#FFFFFF;}
</style>
<g>
	<g id="XMLID_1_">
		<rect id="XMLID_2374_" x="-619" y="281" class="st0" width="40" height="40"/>
	</g>
	<g id="XMLID_7073_">
		<g id="XMLID_7080_">
			<path id="XMLID_7082_" class="st1" d="M-588.3,295.7h-17.6c-0.8,0-1.4-0.6-1.4-1.4s0.6-1.4,1.4-1.4h17.6c0.8,0,1.4,0.6,1.4,1.4
				S-587.5,295.7-588.3,295.7z"/>
			<circle id="XMLID_7081_" class="st1" cx="-609.7" cy="294.4" r="1.4"/>
		</g>
		<g id="XMLID_7077_">
			<path id="XMLID_7079_" class="st1" d="M-588.3,302.4h-17.6c-0.8,0-1.4-0.6-1.4-1.4s0.6-1.4,1.4-1.4h17.6c0.8,0,1.4,0.6,1.4,1.4
				S-587.5,302.4-588.3,302.4z"/>
			<circle id="XMLID_7078_" class="st1" cx="-609.7" cy="301" r="1.4"/>
		</g>
		<g id="XMLID_7074_">
			<path id="XMLID_7076_" class="st1" d="M-588.3,309h-17.6c-0.8,0-1.4-0.6-1.4-1.4s0.6-1.4,1.4-1.4h17.6c0.8,0,1.4,0.6,1.4,1.4
				S-587.5,309-588.3,309z"/>
			<circle id="XMLID_7075_" class="st1" cx="-609.7" cy="307.6" r="1.4"/>
		</g>
	</g>
</g>
</svg>
