<?xml version="1.0" encoding="utf-8"?>
<!-- Generator: Adobe Illustrator 19.0.0, SVG Export Plug-In . SVG Version: 6.00 Build 0)  -->
<svg version="1.1" id="Capa_1" xmlns="http://www.w3.org/2000/svg" xmlns:xlink="http://www.w3.org/1999/xlink" x="0px" y="0px"
	 viewBox="-561 263.7 155.2 74.3" style="enable-background:new -561 263.7 155.2 74.3;" xml:space="preserve">
<style type="text/css">
	.st0{fill:#E54A3F;}
	.st1{fill:#B73734;}
	.st2{fill:#FFFFFF;}
	.st3{fill:#FEFEFE;}
</style>
<g>
	<rect id="XMLID_248_" x="-560.9" y="263.7" class="st0" width="154.9" height="74.3"/>
	<rect id="XMLID_257_" x="-561" y="263.7" class="st1" width="155.2" height="48.2"/>
	<g id="XMLID_1_">
		<path id="XMLID_2_" class="st2" d="M-537.2,329h-1.7l-0.7-1.8h-3.1l-0.6,1.8h-1.7l3.1-7.9h1.7L-537.2,329z M-540.1,325.9l-1.1-2.9
			l-1.1,2.9H-540.1z"/>
		<path id="XMLID_5_" class="st2" d="M-531.3,326.1l1.5,0.5c-0.2,0.9-0.6,1.5-1.2,1.9s-1.2,0.6-2.1,0.6c-1,0-1.9-0.4-2.6-1.1
			s-1-1.7-1-2.9c0-1.3,0.3-2.3,1-3.1c0.7-0.7,1.6-1.1,2.7-1.1c1,0,1.7,0.3,2.3,0.9c0.4,0.3,0.6,0.8,0.8,1.5l-1.5,0.4
			c-0.1-0.4-0.3-0.7-0.6-1c-0.3-0.2-0.7-0.4-1.1-0.4c-0.6,0-1.1,0.2-1.4,0.6c-0.4,0.4-0.5,1.1-0.5,2c0,1,0.2,1.7,0.5,2.1
			c0.3,0.4,0.8,0.6,1.4,0.6c0.4,0,0.8-0.1,1.1-0.4C-531.7,327.1-531.5,326.7-531.3,326.1z"/>
		<path id="XMLID_7_" class="st2" d="M-526.7,329v-6.5h-2.3v-1.3h6.3v1.3h-2.3v6.5H-526.7z"/>
		<path id="XMLID_10_" class="st2" d="M-521.8,329v-7.9h1.6v7.9H-521.8z"/>
		<path id="XMLID_13_" class="st2" d="M-516.6,329l-2.8-7.9h1.7l2,5.8l1.9-5.8h1.7l-2.8,7.9H-516.6z"/>
		<path id="XMLID_15_" class="st2" d="M-511.4,329v-7.9h1.6v7.9H-511.4z"/>
		<path id="XMLID_17_" class="st2" d="M-508.3,321.2h2.9c0.7,0,1.2,0,1.5,0.2c0.5,0.1,0.9,0.4,1.2,0.7c0.3,0.3,0.6,0.8,0.8,1.3
			c0.2,0.5,0.3,1.1,0.3,1.9c0,0.6-0.1,1.2-0.2,1.7c-0.2,0.6-0.5,1-0.8,1.4c-0.3,0.3-0.6,0.5-1.1,0.6c-0.4,0.1-0.8,0.2-1.4,0.2h-3v-8
			L-508.3,321.2L-508.3,321.2z M-506.7,322.5v5.2h1.2c0.4,0,0.8,0,1-0.1c0.3-0.1,0.5-0.2,0.6-0.3c0.1-0.1,0.3-0.4,0.4-0.8
			c0.1-0.4,0.2-0.8,0.2-1.4s-0.1-1.1-0.2-1.4s-0.3-0.6-0.5-0.8c-0.2-0.2-0.4-0.3-0.7-0.4c-0.2,0-0.7-0.1-1.3-0.1L-506.7,322.5
			L-506.7,322.5z"/>
		<path id="XMLID_20_" class="st2" d="M-493.2,329h-1.7l-0.7-1.8h-3.1l-0.6,1.8h-1.7l3.1-7.9h1.7L-493.2,329z M-496.1,325.9
			l-1.1-2.9l-1.1,2.9H-496.1z"/>
		<path id="XMLID_24_" class="st2" d="M-492.4,321.2h2.9c0.7,0,1.2,0,1.5,0.2c0.5,0.1,0.9,0.4,1.2,0.7c0.3,0.3,0.6,0.8,0.8,1.3
			s0.3,1.1,0.3,1.9c0,0.6-0.1,1.2-0.2,1.7c-0.2,0.6-0.5,1-0.8,1.4c-0.3,0.3-0.6,0.5-1.1,0.6c-0.4,0.1-0.8,0.2-1.4,0.2h-3v-8
			L-492.4,321.2L-492.4,321.2z M-490.8,322.5v5.2h1.2c0.4,0,0.8,0,1-0.1c0.3-0.1,0.5-0.2,0.6-0.3c0.1-0.1,0.3-0.4,0.4-0.8
			s0.2-0.8,0.2-1.4s-0.1-1.1-0.2-1.4s-0.3-0.6-0.5-0.8c-0.2-0.2-0.4-0.3-0.7-0.4c-0.2,0-0.7-0.1-1.3-0.1L-490.8,322.5L-490.8,322.5z
			"/>
		<path id="XMLID_27_" class="st2" d="M-481.4,321.2h2.9c0.7,0,1.2,0,1.5,0.2c0.5,0.1,0.9,0.4,1.2,0.7c0.3,0.3,0.6,0.8,0.8,1.3
			s0.3,1.1,0.3,1.9c0,0.6-0.1,1.2-0.2,1.7c-0.2,0.6-0.5,1-0.8,1.4c-0.3,0.3-0.6,0.5-1.1,0.6c-0.4,0.1-0.8,0.2-1.4,0.2h-3v-8
			L-481.4,321.2L-481.4,321.2z M-479.8,322.5v5.2h1.2c0.4,0,0.8,0,1-0.1c0.3-0.1,0.5-0.2,0.6-0.3c0.1-0.1,0.3-0.4,0.4-0.8
			s0.2-0.8,0.2-1.4s-0.1-1.1-0.2-1.4s-0.3-0.6-0.5-0.8c-0.2-0.2-0.4-0.3-0.7-0.4c-0.2,0-0.7-0.1-1.3-0.1L-479.8,322.5L-479.8,322.5z
			"/>
		<path id="XMLID_30_" class="st2" d="M-473.5,329v-7.9h1.6v7.9H-473.5z"/>
		<path id="XMLID_32_" class="st2" d="M-470.4,321.2h2.9c0.7,0,1.2,0,1.5,0.2c0.5,0.1,0.9,0.4,1.2,0.7c0.3,0.3,0.6,0.8,0.8,1.3
			s0.3,1.1,0.3,1.9c0,0.6-0.1,1.2-0.2,1.7c-0.2,0.6-0.5,1-0.8,1.4c-0.3,0.3-0.6,0.5-1.1,0.6c-0.4,0.1-0.8,0.2-1.4,0.2h-3v-8
			L-470.4,321.2L-470.4,321.2z M-468.8,322.5v5.2h1.2c0.4,0,0.8,0,1-0.1c0.3-0.1,0.5-0.2,0.6-0.3c0.1-0.1,0.3-0.4,0.4-0.8
			s0.2-0.8,0.2-1.4s-0.1-1.1-0.2-1.4s-0.3-0.6-0.5-0.8c-0.2-0.2-0.4-0.3-0.7-0.4c-0.2,0-0.7-0.1-1.3-0.1L-468.8,322.5L-468.8,322.5z
			"/>
		<path id="XMLID_35_" class="st2" d="M-455.3,329h-1.7l-0.7-1.8h-3.1l-0.6,1.8h-1.7l3.1-7.9h1.7L-455.3,329z M-458.3,325.9
			l-1.1-2.9l-1.1,2.9H-458.3z M-460.3,320.7l0.7-1.6h1.7l-1.5,1.6H-460.3z"/>
		<path id="XMLID_39_" class="st2" d="M-449.4,326.1l1.5,0.5c-0.2,0.9-0.6,1.5-1.2,1.9s-1.2,0.6-2.1,0.6c-1,0-1.9-0.4-2.6-1.1
			c-0.7-0.7-1-1.7-1-2.9c0-1.3,0.3-2.3,1-3.1c0.7-0.7,1.6-1.1,2.7-1.1c1,0,1.7,0.3,2.3,0.9c0.4,0.3,0.6,0.8,0.8,1.5l-1.6,0.4
			c-0.1-0.4-0.3-0.7-0.6-1c-0.3-0.2-0.7-0.4-1.1-0.4c-0.6,0-1.1,0.2-1.4,0.6c-0.4,0.4-0.5,1.1-0.5,2c0,1,0.2,1.7,0.5,2.1
			c0.3,0.4,0.8,0.6,1.4,0.6c0.4,0,0.8-0.1,1.1-0.4C-449.8,327.1-449.6,326.7-449.4,326.1z"/>
		<path id="XMLID_41_" class="st2" d="M-444.8,329v-6.5h-2.3v-1.3h6.3v1.3h-2.3v6.5H-444.8z"/>
		<path id="XMLID_43_" class="st2" d="M-439.9,329v-7.9h1.6v7.9H-439.9z"/>
		<path id="XMLID_45_" class="st2" d="M-431.7,326.1l1.5,0.5c-0.2,0.9-0.6,1.5-1.2,1.9s-1.2,0.6-2.1,0.6c-1,0-1.9-0.4-2.6-1.1
			c-0.7-0.7-1-1.7-1-2.9c0-1.3,0.3-2.3,1-3.1c0.7-0.7,1.6-1.1,2.7-1.1c1,0,1.7,0.3,2.3,0.9c0.4,0.3,0.6,0.8,0.8,1.5l-1.6,0.4
			c-0.1-0.4-0.3-0.7-0.6-1c-0.3-0.2-0.7-0.4-1.1-0.4c-0.6,0-1.1,0.2-1.4,0.6c-0.4,0.4-0.5,1.1-0.5,2c0,1,0.2,1.7,0.5,2.1
			c0.3,0.4,0.8,0.6,1.4,0.6c0.4,0,0.8-0.1,1.1-0.4C-432.1,327.1-431.9,326.7-431.7,326.1z"/>
		<path id="XMLID_47_" class="st2" d="M-421.7,329h-1.7l-0.7-1.8h-3.1l-0.6,1.8h-1.7l3.1-7.9h1.7L-421.7,329z M-424.6,325.9
			l-1.1-2.9l-1.1,2.9H-424.6z"/>
	</g>
	<path id="XMLID_284_" class="st3" d="M-471.4,281.9v17c0,2.1-1.8,3.8-4,3.8h-20c-2.3,0-4-1.8-4-3.8v-20.2c0-2.3,1.7-4,4-4h17l-4,4
		h-13v20.1h20v-13L-471.4,281.9z M-474.4,273.5l-1.4,1.6l4.2,4.2l1.4-1.4L-474.4,273.5z M-471.6,270.7l-1.4,1.4l4.2,4.4l1.4-1.4
		L-471.6,270.7z M-490,289.1l4.2,4.4l12.8-12.8l-4.2-4.2L-490,289.1z M-491.4,294.9h4l-4-4V294.9z"/>
</g>
</svg>
