<?xml version="1.0" encoding="utf-8"?>
<!-- Generator: Adobe Illustrator 19.0.0, SVG Export Plug-In . SVG Version: 6.00 Build 0)  -->
<svg version="1.1" id="Capa_1" xmlns="http://www.w3.org/2000/svg" xmlns:xlink="http://www.w3.org/1999/xlink" x="0px" y="0px"
	 viewBox="-562 263.7 154.9 74.3" style="enable-background:new -562 263.7 154.9 74.3;" xml:space="preserve">
<style type="text/css">
	.st0{fill:#E54A3F;}
	.st1{fill:#B73734;}
	.st2{fill:#FFFFFF;}
</style>
<g>
	<rect id="XMLID_248_" x="-562" y="263.7" class="st0" width="154.9" height="74.3"/>
	<rect id="XMLID_257_" x="-562.2" y="263.7" class="st1" width="155.2" height="48.2"/>
	<g id="XMLID_2_">
		<path id="XMLID_3_" class="st2" d="M-509.6,326.1v-1.3h3.5v3.1c-0.3,0.3-0.8,0.6-1.4,0.9c-0.6,0.3-1.3,0.4-1.9,0.4
			c-0.8,0-1.5-0.2-2.2-0.5c-0.6-0.3-1.1-0.8-1.4-1.5s-0.5-1.3-0.5-2.1c0-0.8,0.2-1.5,0.5-2.2c0.3-0.6,0.8-1.1,1.5-1.5
			c0.5-0.3,1.1-0.4,1.9-0.4c1,0,1.7,0.2,2.3,0.6s0.9,1,1.1,1.7l-1.6,0.3c-0.1-0.4-0.3-0.7-0.6-0.9c-0.3-0.2-0.7-0.3-1.1-0.3
			c-0.7,0-1.2,0.2-1.7,0.7c-0.4,0.4-0.6,1.1-0.6,2s0.2,1.6,0.6,2.1s1,0.7,1.6,0.7c0.3,0,0.7-0.1,1-0.2c0.3-0.1,0.6-0.3,0.9-0.5v-1
			h-1.9V326.1L-509.6,326.1z"/>
		<path id="XMLID_5_" class="st2" d="M-504.6,329v-7.8h1.6v6.5h4v1.3H-504.6z"/>
		<path id="XMLID_7_" class="st2" d="M-498.4,325.1c0-0.8,0.1-1.5,0.4-2c0.2-0.4,0.4-0.8,0.7-1.1c0.3-0.3,0.6-0.6,1-0.7
			c0.5-0.2,1.1-0.3,1.7-0.3c1.2,0,2.1,0.4,2.8,1.1c0.7,0.7,1,1.7,1,3s-0.3,2.3-1,3c-0.7,0.7-1.6,1.1-2.8,1.1c-1.2,0-2.1-0.4-2.8-1.1
			C-498,327.4-498.4,326.4-498.4,325.1z M-496.6,325.1c0,0.9,0.2,1.6,0.6,2c0.4,0.5,0.9,0.7,1.6,0.7c0.6,0,1.2-0.2,1.6-0.7
			c0.4-0.5,0.6-1.1,0.6-2.1c0-0.9-0.2-1.6-0.6-2s-0.9-0.7-1.6-0.7s-1.2,0.2-1.6,0.7C-496.5,323.5-496.6,324.2-496.6,325.1z"/>
		<path id="XMLID_11_" class="st2" d="M-489.9,326.5l1.5-0.2c0.1,0.5,0.3,0.9,0.6,1.1c0.3,0.2,0.7,0.4,1.2,0.4s0.9-0.1,1.2-0.3
			c0.3-0.2,0.4-0.5,0.4-0.8c0-0.2-0.1-0.3-0.2-0.5c-0.1-0.2-0.3-0.2-0.6-0.3c-0.2-0.1-0.6-0.2-1.3-0.3c-0.9-0.2-1.5-0.5-1.8-0.8
			c-0.5-0.4-0.7-1-0.7-1.6c0-0.4,0.1-0.8,0.3-1.1c0.2-0.3,0.6-0.6,1-0.8c0.4-0.2,0.9-0.3,1.5-0.3c1,0,1.7,0.2,2.2,0.6s0.8,1,0.8,1.7
			l-1.6,0.1c-0.1-0.4-0.2-0.7-0.4-0.9c-0.2-0.2-0.6-0.3-1-0.3c-0.5,0-0.8,0.1-1.1,0.3c-0.2,0.1-0.3,0.3-0.3,0.5s0.1,0.3,0.2,0.5
			c0.2,0.2,0.7,0.3,1.5,0.5c0.8,0.2,1.3,0.4,1.7,0.6s0.7,0.5,0.9,0.8c0.2,0.3,0.3,0.8,0.3,1.3s-0.1,0.9-0.4,1.3
			c-0.3,0.4-0.6,0.7-1.1,0.9s-1,0.3-1.7,0.3c-1,0-1.8-0.2-2.3-0.7S-489.8,327.3-489.9,326.5z"/>
		<path id="XMLID_14_" class="st2" d="M-475,329h-1.7l-0.7-1.8h-3.1l-0.6,1.8h-1.7l3.1-7.9h1.6L-475,329z M-478,325.9l-1.1-2.9
			l-1.1,2.9H-478z"/>
		<path id="XMLID_17_" class="st2" d="M-474.1,329v-7.9h3.3c0.8,0,1.5,0.1,1.8,0.2c0.4,0.1,0.7,0.4,0.9,0.8c0.2,0.4,0.3,0.8,0.3,1.2
			c0,0.6-0.2,1.1-0.5,1.5c-0.3,0.4-0.9,0.6-1.6,0.7c0.3,0.2,0.6,0.4,0.9,0.7c0.3,0.3,0.5,0.7,0.9,1.3l1,1.5h-1.9l-1.1-1.7
			c-0.4-0.6-0.7-1-0.8-1.2s-0.3-0.3-0.5-0.3c-0.2-0.1-0.4-0.1-0.8-0.1h-0.3v3.3H-474.1z M-472.5,324.5h1.2c0.8,0,1.2,0,1.4-0.1
			c0.2-0.1,0.3-0.2,0.4-0.3c0.1-0.1,0.2-0.4,0.2-0.6c0-0.3-0.1-0.5-0.2-0.6s-0.3-0.3-0.6-0.3c-0.1,0-0.5,0-1.2,0h-1.2
			C-472.5,322.6-472.5,324.5-472.5,324.5z"/>
		<path id="XMLID_20_" class="st2" d="M-466.3,329v-7.9h1.6v7.9H-466.3z"/>
		<path id="XMLID_22_" class="st2" d="M-463.5,325.1c0-0.8,0.1-1.5,0.4-2c0.2-0.4,0.4-0.8,0.7-1.1c0.3-0.3,0.6-0.6,1-0.7
			c0.5-0.2,1.1-0.3,1.7-0.3c1.2,0,2.1,0.4,2.8,1.1c0.7,0.7,1,1.7,1,3s-0.3,2.3-1,3c-0.7,0.7-1.6,1.1-2.8,1.1c-1.2,0-2.1-0.4-2.8-1.1
			C-463.1,327.4-463.5,326.4-463.5,325.1z M-461.9,325.1c0,0.9,0.2,1.6,0.6,2c0.4,0.5,0.9,0.7,1.6,0.7c0.6,0,1.2-0.2,1.6-0.7
			c0.4-0.5,0.6-1.1,0.6-2.1c0-0.9-0.2-1.6-0.6-2c-0.4-0.4-0.9-0.7-1.6-0.7c-0.7,0-1.2,0.2-1.6,0.7S-461.9,324.2-461.9,325.1z"/>
	</g>
	<g id="XMLID_339_">
		<path id="XMLID_380_" class="st2" d="M-470.5,303.4l-3.4-3.4c0.7-1.1,1.1-2.5,1.1-3.9c0-4-3.3-7.3-7.3-7.3s-7.3,3.3-7.3,7.3
			s3.3,7.3,7.3,7.3c1.4,0,2.8-0.4,3.9-1.1l3.4,3.4c0.3,0.3,0.7,0.5,1.1,0.5c0.4,0,0.8-0.2,1.1-0.5C-469.9,305-469.9,304-470.5,303.4
			L-470.5,303.4z M-480,301.1c-2.8,0-5-2.2-5-5s2.2-5,5-5c2.8,0,5,2.2,5,5C-475,298.8-477.3,301.1-480,301.1L-480,301.1z"/>
		<path id="XMLID_377_" class="st2" d="M-486,290.1h-8.6c-0.3,0-0.5,0.2-0.5,0.5v0.5c0,0.3,0.2,0.5,0.5,0.5h7.4
			C-486.9,291.1-486.5,290.6-486,290.1L-486,290.1z"/>
		<path id="XMLID_373_" class="st2" d="M-491,274.9h6.8c0.9,0,1.6-0.7,1.6-1.6l0,0c0-0.9-0.7-1.6-1.6-1.6h-0.8
			c-0.4,0-0.8-0.4-0.8-0.8l0,0c0-1-0.8-1.8-1.8-1.8l0,0c-1,0-1.8,0.8-1.8,1.8l0,0c0,0.5-0.4,0.8-0.8,0.8h-0.8
			c-0.9,0-1.6,0.7-1.6,1.6l0,0C-492.5,274.2-491.9,274.9-491,274.9L-491,274.9z M-487.5,270.2c0.4,0,0.8,0.4,0.8,0.8
			s-0.4,0.7-0.8,0.7s-0.8-0.4-0.8-0.8C-488.4,270.5-488,270.2-487.5,270.2L-487.5,270.2z"/>
		<path id="XMLID_370_" class="st2" d="M-494.6,294.8c-0.3,0-0.5,0.2-0.5,0.5v0.5c0,0.3,0.2,0.5,0.5,0.5h6.2c0-0.1,0-0.2,0-0.3
			c0-0.4,0-0.8,0.1-1.3L-494.6,294.8L-494.6,294.8z"/>
		<path id="XMLID_367_" class="st2" d="M-480,287v-0.5c0-0.3-0.2-0.5-0.5-0.5h-14.2c-0.3,0-0.5,0.2-0.5,0.5v0.5
			c0,0.3,0.2,0.5,0.5,0.5h14.2C-480.1,287.5-480,287.2-480,287L-480,287z"/>
		<path id="XMLID_364_" class="st2" d="M-496.8,299.5v-21h18.4v9.3c0.9,0.2,1.8,0.5,2.6,1v-13.4c0-1-0.8-1.8-1.8-1.8h-4
			c-0.1,1.4-1.2,2.4-2.6,2.4h-6.9c-1.4,0-2.5-1.1-2.6-2.4h-4c-1,0-1.8,0.8-1.8,1.8v24.9c0,1,0.8,1.8,1.8,1.8h11.7
			c-0.8-0.7-1.4-1.6-1.9-2.6L-496.8,299.5L-496.8,299.5z"/>
		<path id="XMLID_360_" class="st2" d="M-480,281.7c0-0.3-0.2-0.5-0.5-0.5h-14.2c-0.3,0-0.5,0.2-0.5,0.5v0.5c0,0.3,0.2,0.5,0.5,0.5
			h14.2c0.3,0,0.5-0.2,0.5-0.5V281.7z"/>
	</g>
</g>
</svg>
