<?xml version="1.0" encoding="utf-8"?>
<!-- Generator: Adobe Illustrator 19.0.0, SVG Export Plug-In . SVG Version: 6.00 Build 0)  -->
<svg version="1.1" id="Capa_1" xmlns="http://www.w3.org/2000/svg" xmlns:xlink="http://www.w3.org/1999/xlink" x="0px" y="0px"
	 viewBox="-562 263.7 154.9 74.3" style="enable-background:new -562 263.7 154.9 74.3;" xml:space="preserve">
<style type="text/css">
	.st0{fill:#E54A3F;}
	.st1{fill:#B73734;}
	.st2{fill:#FFFFFF;}
</style>
<g id="XMLID_23_">
	<rect id="XMLID_72_" x="-562" y="263.7" class="st0" width="154.9" height="74.3"/>
	<rect id="XMLID_56_" x="-562" y="263.7" class="st1" width="154.9" height="48.2"/>
	<g id="XMLID_1_">
		<path id="XMLID_2_" class="st2" d="M-543.3,329v-7.9h2.4l1.4,5.4l1.4-5.4h2.4v7.9h-1.5v-6.2l-1.6,6.2h-1.5l-1.6-6.2v6.2H-543.3z"
			/>
		<path id="XMLID_4_" class="st2" d="M-527,329h-1.7l-0.7-1.8h-3.1l-0.6,1.8h-1.7l3.1-7.9h1.7L-527,329z M-529.9,325.9l-1.1-2.9
			l-1,2.9H-529.9z"/>
		<path id="XMLID_7_" class="st2" d="M-526.1,329v-7.9h2.6c1,0,1.6,0,1.9,0.1c0.5,0.1,0.8,0.4,1.1,0.8s0.5,0.9,0.5,1.5
			c0,0.5-0.1,0.9-0.3,1.2s-0.4,0.6-0.7,0.8c-0.3,0.2-0.5,0.3-0.8,0.4c-0.4,0.1-0.9,0.1-1.6,0.1h-1v3H-526.1z M-524.5,322.5v2.2h0.9
			c0.6,0,1,0,1.3-0.1c0.2-0.1,0.4-0.2,0.5-0.4c0.1-0.2,0.2-0.4,0.2-0.6c0-0.3-0.1-0.5-0.3-0.7c-0.2-0.2-0.4-0.3-0.6-0.3
			s-0.6-0.1-1.1-0.1C-523.6,322.5-524.5,322.5-524.5,322.5z"/>
		<path id="XMLID_11_" class="st2" d="M-512.5,329h-1.7l-0.7-1.8h-3.1l-0.6,1.8h-1.7l3.1-7.9h1.7L-512.5,329z M-515.4,325.9
			l-1.1-2.9l-1.1,2.9H-515.4z"/>
		<path id="XMLID_15_" class="st2" d="M-509,321.2h2.9c0.7,0,1.2,0,1.5,0.2c0.5,0.1,0.9,0.4,1.2,0.7c0.3,0.3,0.6,0.8,0.8,1.3
			s0.3,1.1,0.3,1.9c0,0.6-0.1,1.2-0.2,1.7c-0.2,0.6-0.5,1-0.8,1.4c-0.3,0.3-0.6,0.5-1.1,0.6c-0.4,0.1-0.8,0.2-1.4,0.2h-3v-8
			L-509,321.2L-509,321.2z M-507.4,322.5v5.2h1.2c0.4,0,0.8,0,1-0.1c0.3-0.1,0.5-0.2,0.6-0.3c0.1-0.1,0.3-0.4,0.4-0.8
			c0.1-0.4,0.2-0.8,0.2-1.4s-0.1-1.1-0.2-1.4c-0.1-0.3-0.3-0.6-0.5-0.8c-0.2-0.2-0.4-0.3-0.7-0.4c-0.2,0-0.7-0.1-1.3-0.1
			L-507.4,322.5L-507.4,322.5z"/>
		<path id="XMLID_18_" class="st2" d="M-501.1,329v-7.9h5.8v1.3h-4.2v1.7h4v1.3h-4v2.3h4.4v1.3L-501.1,329L-501.1,329z"/>
		<path id="XMLID_20_" class="st2" d="M-485.6,326.1l1.5,0.5c-0.2,0.9-0.6,1.5-1.2,1.9c-0.6,0.4-1.2,0.6-2.1,0.6
			c-1,0-1.9-0.4-2.6-1.1s-1-1.7-1-2.9c0-1.3,0.3-2.3,1-3.1c0.7-0.7,1.6-1.1,2.7-1.1c1,0,1.7,0.3,2.3,0.9c0.4,0.3,0.6,0.8,0.8,1.5
			l-1.5,0.4c-0.1-0.4-0.3-0.7-0.6-1c-0.3-0.2-0.7-0.4-1.1-0.4c-0.6,0-1.1,0.2-1.4,0.6c-0.4,0.4-0.5,1.1-0.5,2c0,1,0.2,1.7,0.5,2.1
			s0.8,0.6,1.4,0.6c0.4,0,0.8-0.1,1.1-0.4C-486,327.1-485.8,326.7-485.6,326.1z"/>
		<path id="XMLID_22_" class="st2" d="M-483.1,325.1c0-0.8,0.1-1.5,0.4-2c0.2-0.4,0.4-0.8,0.7-1.1c0.3-0.3,0.6-0.6,1-0.7
			c0.5-0.2,1.1-0.3,1.7-0.3c1.2,0,2.1,0.4,2.8,1.1c0.7,0.7,1,1.7,1,3s-0.3,2.3-1,3c-0.7,0.7-1.6,1.1-2.8,1.1s-2.1-0.4-2.8-1.1
			C-482.7,327.4-483.1,326.4-483.1,325.1z M-481.4,325.1c0,0.9,0.2,1.6,0.6,2c0.4,0.5,0.9,0.7,1.6,0.7c0.6,0,1.2-0.2,1.6-0.7
			s0.6-1.1,0.6-2.1c0-0.9-0.2-1.6-0.6-2c-0.4-0.4-0.9-0.7-1.6-0.7c-0.7,0-1.2,0.2-1.6,0.7S-481.4,324.2-481.4,325.1z"/>
		<path id="XMLID_26_" class="st2" d="M-474.2,329v-7.9h1.5l3.2,5.3v-5.3h1.5v7.9h-1.6l-3.2-5.1v5.1H-474.2z"/>
		<path id="XMLID_28_" class="st2" d="M-464.5,329v-6.5h-2.3v-1.3h6.3v1.3h-2.3v6.5H-464.5z"/>
		<path id="XMLID_30_" class="st2" d="M-459.5,329v-7.9h5.8v1.3h-4.2v1.7h4v1.3h-4v2.3h4.4v1.3L-459.5,329L-459.5,329z"/>
		<path id="XMLID_32_" class="st2" d="M-452.2,329v-7.9h1.5l3.2,5.3v-5.3h1.5v7.9h-1.6l-3.2-5.1v5.1H-452.2z"/>
		<path id="XMLID_34_" class="st2" d="M-444.3,329v-7.9h1.6v7.9H-444.3z"/>
		<path id="XMLID_36_" class="st2" d="M-441.2,321.2h2.9c0.7,0,1.2,0,1.5,0.2c0.5,0.1,0.9,0.4,1.2,0.7c0.3,0.3,0.6,0.8,0.8,1.3
			s0.3,1.1,0.3,1.9c0,0.6-0.1,1.2-0.2,1.7c-0.2,0.6-0.5,1-0.8,1.4c-0.3,0.3-0.6,0.5-1.1,0.6c-0.4,0.1-0.8,0.2-1.4,0.2h-3v-8
			L-441.2,321.2L-441.2,321.2z M-439.6,322.5v5.2h1.2c0.4,0,0.8,0,1-0.1c0.3-0.1,0.5-0.2,0.6-0.3c0.1-0.1,0.3-0.4,0.4-0.8
			s0.2-0.8,0.2-1.4s-0.1-1.1-0.2-1.4s-0.3-0.6-0.5-0.8c-0.2-0.2-0.4-0.3-0.7-0.4c-0.2,0-0.7-0.1-1.3-0.1L-439.6,322.5L-439.6,322.5z
			"/>
		<path id="XMLID_39_" class="st2" d="M-433.6,325.1c0-0.8,0.1-1.5,0.4-2c0.2-0.4,0.4-0.8,0.7-1.1c0.3-0.3,0.6-0.6,1-0.7
			c0.5-0.2,1.1-0.3,1.7-0.3c1.2,0,2.1,0.4,2.8,1.1s1,1.7,1,3s-0.3,2.3-1,3s-1.6,1.1-2.8,1.1c-1.2,0-2.1-0.4-2.8-1.1
			C-433.2,327.4-433.6,326.4-433.6,325.1z M-431.9,325.1c0,0.9,0.2,1.6,0.6,2c0.4,0.5,0.9,0.7,1.6,0.7c0.6,0,1.2-0.2,1.6-0.7
			s0.6-1.1,0.6-2.1c0-0.9-0.2-1.6-0.6-2s-0.9-0.7-1.6-0.7c-0.7,0-1.2,0.2-1.6,0.7C-431.7,323.5-431.9,324.2-431.9,325.1z"/>
	</g>
	<g id="XMLID_386_">
		<path id="XMLID_387_" class="st2" d="M-488.3,271.3v10.2c0,0.6,0.5,1.1,1.1,1.1h4v3.1h-15.1c-0.6,0-1.1,0.5-1.1,1.1v4h-4
			c-0.6,0-1.1,0.5-1.1,1.1v10.2c0,0.6,0.5,1.1,1.1,1.1h10.2c0.6,0,1.1-0.5,1.1-1.1v-10.2c0-0.6-0.5-1.1-1.1-1.1h-4v-2.9h14v2.9h-4
			c-0.6,0-1.1,0.5-1.1,1.1v10.2c0,0.6,0.5,1.1,1.1,1.1h10.2c0.6,0,1.1-0.5,1.1-1.1v-10.2c0-0.6-0.5-1.1-1.1-1.1h-4v-2.9h14v2.9h-4
			c-0.6,0-1.1,0.5-1.1,1.1v10.2c0,0.6,0.5,1.1,1.1,1.1h10.2c0.6,0,1.1-0.5,1.1-1.1v-10.2c0-0.6-0.5-1.1-1.1-1.1h-4v-4
			c0-0.6-0.5-1.1-1.1-1.1H-481v-3.1h4c0.6,0,1.1-0.5,1.1-1.1v-10.2c0-0.6-0.5-1.1-1.1-1.1h-10.2
			C-487.8,270.2-488.3,270.7-488.3,271.3L-488.3,271.3z M-494.4,300.9h-7.9V293h7.9V300.9z M-478.2,300.9h-7.9V293h7.9V300.9z
			 M-462,300.9h-7.9V293h7.9V300.9L-462,300.9z M-486.1,272.4h7.9v7.9h-7.9V272.4z"/>
	</g>
</g>
</svg>
