<?xml version="1.0" encoding="utf-8"?>
<!-- Generator: Adobe Illustrator 19.0.0, SVG Export Plug-In . SVG Version: 6.00 Build 0)  -->
<svg version="1.1" id="Capa_1" xmlns="http://www.w3.org/2000/svg" xmlns:xlink="http://www.w3.org/1999/xlink" x="0px" y="0px"
	 viewBox="-562 263.7 154.9 74.3" style="enable-background:new -562 263.7 154.9 74.3;" xml:space="preserve">
<style type="text/css">
	.st0{fill:#E54A3F;}
	.st1{fill:#B73734;}
	.st2{fill:#FFFFFF;}
</style>
<g>
	<rect id="XMLID_248_" x="-562" y="263.7" class="st0" width="154.9" height="74.3"/>
	<rect id="XMLID_257_" x="-562.2" y="263.7" class="st1" width="155.2" height="48.2"/>
	<g id="XMLID_2_">
		<path id="XMLID_3_" class="st2" d="M-524,321.2h3.1c0.6,0,1.1,0,1.4,0.1s0.6,0.2,0.8,0.3c0.2,0.2,0.4,0.4,0.6,0.7
			c0.2,0.3,0.2,0.6,0.2,0.9c0,0.4-0.1,0.7-0.3,1c-0.2,0.3-0.5,0.5-0.8,0.7c0.5,0.1,0.8,0.4,1.1,0.7c0.3,0.3,0.4,0.7,0.4,1.2
			c0,0.4-0.1,0.7-0.3,1s-0.4,0.6-0.7,0.8c-0.3,0.2-0.6,0.3-1.1,0.4c-0.3,0-0.9,0-1.9,0.1h-2.7v-7.9L-524,321.2L-524,321.2z
			 M-522.3,322.5v1.8h1c0.6,0,1,0,1.2,0c0.3,0,0.5-0.1,0.6-0.3c0.2-0.2,0.2-0.4,0.2-0.6s-0.1-0.4-0.2-0.6c-0.1-0.2-0.3-0.2-0.6-0.3
			c-0.2,0-0.6,0-1.4,0H-522.3z M-522.3,325.6v2.1h1.5c0.6,0,0.9,0,1.1,0s0.4-0.1,0.6-0.3c0.1-0.2,0.2-0.4,0.2-0.7
			c0-0.2-0.1-0.4-0.2-0.6c-0.1-0.2-0.3-0.3-0.5-0.4c-0.2-0.1-0.7-0.1-1.4-0.1H-522.3z"/>
		<path id="XMLID_7_" class="st2" d="M-516,329v-7.9h1.6v7.9H-516z"/>
		<path id="XMLID_9_" class="st2" d="M-513,321.2h3.1c0.6,0,1.1,0,1.4,0.1s0.6,0.2,0.8,0.3c0.2,0.2,0.4,0.4,0.6,0.7
			c0.2,0.3,0.2,0.6,0.2,0.9c0,0.4-0.1,0.7-0.3,1c-0.2,0.3-0.5,0.5-0.8,0.7c0.5,0.1,0.8,0.4,1.1,0.7c0.3,0.3,0.4,0.7,0.4,1.2
			c0,0.4-0.1,0.7-0.3,1c-0.2,0.3-0.4,0.6-0.7,0.8c-0.3,0.2-0.6,0.3-1.1,0.4c-0.3,0-0.9,0-1.9,0.1h-2.7v-7.9L-513,321.2L-513,321.2z
			 M-511.4,322.5v1.8h1c0.6,0,1,0,1.2,0c0.3,0,0.5-0.1,0.6-0.3c0.2-0.2,0.2-0.4,0.2-0.6s-0.1-0.4-0.2-0.6c-0.1-0.2-0.3-0.2-0.6-0.3
			c-0.2,0-0.6,0-1.4,0H-511.4z M-511.4,325.6v2.1h1.5c0.6,0,0.9,0,1.1,0s0.4-0.1,0.6-0.3c0.1-0.2,0.2-0.4,0.2-0.7
			c0-0.2-0.1-0.4-0.2-0.6s-0.3-0.3-0.5-0.4c-0.2-0.1-0.7-0.1-1.4-0.1H-511.4z"/>
		<path id="XMLID_15_" class="st2" d="M-505,329v-7.8h1.6v6.5h4v1.3H-505z"/>
		<path id="XMLID_17_" class="st2" d="M-498.4,329v-7.9h1.6v7.9H-498.4z"/>
		<path id="XMLID_20_" class="st2" d="M-495.5,325.1c0-0.8,0.1-1.5,0.4-2c0.2-0.4,0.4-0.8,0.7-1.1c0.3-0.3,0.6-0.6,1-0.7
			c0.5-0.2,1.1-0.3,1.7-0.3c1.2,0,2.1,0.4,2.8,1.1c0.7,0.7,1,1.7,1,3s-0.3,2.3-1,3c-0.7,0.7-1.6,1.1-2.8,1.1c-1.2,0-2.1-0.4-2.8-1.1
			C-495.3,327.4-495.5,326.4-495.5,325.1z M-494,325.1c0,0.9,0.2,1.6,0.6,2c0.4,0.5,0.9,0.7,1.6,0.7c0.6,0,1.2-0.2,1.6-0.7
			s0.6-1.1,0.6-2.1c0-0.9-0.2-1.6-0.6-2c-0.4-0.4-0.9-0.7-1.6-0.7s-1.2,0.2-1.6,0.7C-493.8,323.5-494,324.2-494,325.1z"/>
		<path id="XMLID_23_" class="st2" d="M-483,326.1v-1.3h3.4v3.1c-0.3,0.3-0.8,0.6-1.4,0.9c-0.6,0.3-1.3,0.4-1.9,0.4
			c-0.8,0-1.5-0.2-2.2-0.5c-0.6-0.3-1.1-0.8-1.4-1.5s-0.5-1.3-0.5-2.1c0-0.8,0.2-1.5,0.5-2.2c0.3-0.6,0.8-1.1,1.5-1.5
			c0.5-0.3,1.1-0.4,1.9-0.4c1,0,1.7,0.2,2.3,0.6s0.9,1,1.1,1.7l-1.6,0.3c-0.1-0.4-0.3-0.7-0.6-0.9c-0.3-0.2-0.7-0.3-1.1-0.3
			c-0.7,0-1.2,0.2-1.7,0.7c-0.4,0.4-0.6,1.1-0.6,2s0.2,1.6,0.6,2.1c0.4,0.5,1,0.7,1.6,0.7c0.3,0,0.7-0.1,1-0.2
			c0.3-0.1,0.6-0.3,0.9-0.5v-1h-1.8V326.1z"/>
		<path id="XMLID_25_" class="st2" d="M-478.1,329v-7.9h3.3c0.8,0,1.5,0.1,1.8,0.2c0.4,0.1,0.7,0.4,0.9,0.8c0.2,0.4,0.3,0.8,0.3,1.2
			c0,0.6-0.2,1.1-0.5,1.5c-0.3,0.4-0.9,0.6-1.6,0.7c0.3,0.2,0.6,0.4,0.9,0.7c0.3,0.3,0.5,0.7,0.9,1.3l1,1.5h-1.9l-1.1-1.7
			c-0.4-0.6-0.7-1-0.8-1.2s-0.3-0.3-0.5-0.3c-0.2-0.1-0.4-0.1-0.8-0.1h-0.3v3.3H-478.1z M-476.5,324.5h1.2c0.8,0,1.2,0,1.4-0.1
			c0.2-0.1,0.3-0.2,0.4-0.3c0.1-0.1,0.2-0.4,0.2-0.6c0-0.3-0.1-0.5-0.2-0.6s-0.3-0.3-0.6-0.3c-0.1,0-0.5,0-1.2,0h-1.2
			C-476.5,322.6-476.5,324.5-476.5,324.5z"/>
		<path id="XMLID_28_" class="st2" d="M-463.1,329h-1.7l-0.7-1.8h-3.1l-0.6,1.8h-1.7l3.1-7.9h1.7L-463.1,329z M-466,325.9l-1.1-2.9
			l-1,2.9H-466z"/>
		<path id="XMLID_31_" class="st2" d="M-462.3,329v-7.9h5.4v1.3h-3.8v1.9h3.3v1.4h-3.3v3.3L-462.3,329L-462.3,329z"/>
		<path id="XMLID_33_" class="st2" d="M-455.8,320.7l0.7-1.6h1.7l-1.5,1.6H-455.8z M-455.6,329v-7.9h1.6v7.9H-455.6z"/>
		<path id="XMLID_36_" class="st2" d="M-445.4,329h-1.8l-0.7-1.8h-3.1l-0.6,1.8h-1.7l3.1-7.9h1.7L-445.4,329z M-448.4,325.9
			l-1.1-2.9l-1.1,2.9H-448.4z"/>
	</g>
	<g id="XMLID_74_">
		<path id="XMLID_407_" class="st2" d="M-499.3,278l7,2.4c0.6,0.3,3.3,1.3,8.2,0c6.2-1.5,19.5-4.2,19.7-4.2l-0.5-2.5c0,0,0,0-0.1,0
			l-12.7-1.8c-1.4-0.2-3.7-0.1-5,0.1l-17,3.3c-2.2-0.1-4.3,1.2-5,3.5c-0.4,1.3-0.3,2.6,0.3,3.8c0.3,0.6,0.7,1.1,1.3,1.6
			c-0.8,0.6-1.4,1.4-1.7,2.4c-0.4,1.3-0.3,2.6,0.3,3.8c0.3,0.6,0.8,1.2,1.3,1.6c-0.8,0.6-1.3,1.4-1.7,2.4c-0.4,1.3-0.3,2.6,0.3,3.8
			c0.6,1.2,1.6,2.1,2.9,2.5l12.3,3.9c0.7,0.2,1.8,0.3,2.5,0.1l21.5-5c0,0-0.1-0.6-0.3-1.2c-0.2-0.7-0.8-1.1-1.5-1l-19.6,4.5
			c-0.7,0.2-1.8,0.1-2.5-0.1l-11.6-3.7c-0.6-0.2-1.1-0.6-1.4-1.2c-0.3-0.6-0.4-1.2-0.2-1.9c0.4-1.3,1.8-2,3.1-1.6
			c0,0,7.1,2.3,10,3.2c0.7,0.2,1.8,0.3,2.5,0.1l21.5-4.9c0,0-0.1-0.6-0.3-1.3c-0.2-0.7-0.8-1.1-1.5-1l-19.6,4.5
			c-0.7,0.2-1.8,0.1-2.5-0.1l-11.6-3.7c-0.6-0.2-1.1-0.6-1.4-1.2c-0.3-0.6-0.4-1.2-0.2-1.9c0.4-1.3,1.8-2,3.1-1.6
			c0,0,7.2,2.3,10.1,3.2c0.7,0.2,1.8,0.3,2.5,0.1l21.5-4.9c0,0-0.1-0.6-0.3-1.3c-0.2-0.7-0.8-1.1-1.5-1l-19.6,4.5
			c-0.7,0.2-1.8,0.1-2.5-0.1l-11.6-3.7c-0.6-0.2-1.1-0.6-1.4-1.2s-0.4-1.2-0.2-1.9C-501.9,278.3-500.5,277.6-499.3,278L-499.3,278z"
			/>
	</g>
</g>
</svg>
