<?xml version="1.0" encoding="utf-8"?>
<!-- Generator: Adobe Illustrator 19.0.0, SVG Export Plug-In . SVG Version: 6.00 Build 0)  -->
<svg version="1.1" id="Capa_1" xmlns="http://www.w3.org/2000/svg" xmlns:xlink="http://www.w3.org/1999/xlink" x="0px" y="0px"
	 viewBox="-561 263.7 155.3 74.3" style="enable-background:new -561 263.7 155.3 74.3;" xml:space="preserve">
<style type="text/css">
	.st0{fill:#E54A3F;}
	.st1{fill:#B73734;}
	.st2{fill:#FFFFFF;}
</style>
<g>
	<rect id="XMLID_248_" x="-560.8" y="263.7" class="st0" width="154.9" height="74.3"/>
	<rect id="XMLID_257_" x="-561" y="263.7" class="st1" width="155.2" height="48.2"/>
	<g id="XMLID_2_">
		<path id="XMLID_3_" class="st2" d="M-530.7,321.2h2.9c0.7,0,1.2,0,1.5,0.2c0.5,0.1,0.9,0.4,1.2,0.7c0.3,0.3,0.6,0.8,0.8,1.3
			s0.3,1.1,0.3,1.9c0,0.6-0.1,1.2-0.2,1.7c-0.2,0.6-0.5,1-0.8,1.4c-0.3,0.3-0.6,0.5-1.1,0.6c-0.4,0.1-0.8,0.2-1.4,0.2h-3v-8
			L-530.7,321.2L-530.7,321.2z M-529,322.5v5.2h1.2c0.4,0,0.8,0,1-0.1c0.3-0.1,0.5-0.2,0.6-0.3s0.3-0.4,0.4-0.8
			c0.1-0.4,0.2-0.8,0.2-1.4s-0.1-1.1-0.2-1.4c-0.1-0.3-0.3-0.6-0.5-0.8c-0.2-0.2-0.4-0.3-0.7-0.4c-0.2,0-0.7-0.1-1.3-0.1L-529,322.5
			L-529,322.5z"/>
		<path id="XMLID_6_" class="st2" d="M-522.7,329v-7.9h5.8v1.3h-4.2v1.7h4v1.3h-4v2.3h4.4v1.3L-522.7,329L-522.7,329z"/>
		<path id="XMLID_8_" class="st2" d="M-515.8,326.5l1.5-0.2c0.1,0.5,0.3,0.9,0.6,1.1c0.3,0.2,0.7,0.4,1.2,0.4s0.9-0.1,1.2-0.3
			c0.3-0.2,0.3-0.5,0.3-0.8c0-0.2-0.1-0.3-0.2-0.5s-0.3-0.2-0.6-0.3c-0.2-0.1-0.6-0.2-1.3-0.3c-0.9-0.2-1.5-0.5-1.8-0.8
			c-0.5-0.4-0.7-1-0.7-1.6c0-0.4,0.1-0.8,0.3-1.1c0.2-0.3,0.6-0.6,1-0.8c0.4-0.2,0.9-0.3,1.5-0.3c1,0,1.7,0.2,2.2,0.6s0.8,1,0.8,1.7
			l-1.6,0.1c-0.1-0.4-0.2-0.7-0.4-0.9c-0.2-0.2-0.6-0.3-1-0.3c-0.5,0-0.8,0.1-1.1,0.3c0,0.2-0.1,0.4-0.1,0.6s0.1,0.3,0.2,0.5
			c0.2,0.2,0.7,0.3,1.5,0.5c0.8,0.2,1.3,0.4,1.7,0.6s0.7,0.5,0.9,0.8s0.3,0.8,0.3,1.3s-0.1,0.9-0.4,1.3s-0.6,0.7-1.1,0.9
			c-0.5,0.2-1,0.3-1.7,0.3c-1,0-1.8-0.2-2.3-0.7S-515.7,327.3-515.8,326.5z"/>
		<path id="XMLID_11_" class="st2" d="M-503,326.1l1.5,0.5c-0.2,0.9-0.6,1.5-1.2,1.9s-1.2,0.6-2.1,0.6c-1,0-1.9-0.4-2.6-1.1
			c-0.7-0.7-1-1.7-1-2.9c0-1.3,0.3-2.3,1-3.1c0.7-0.7,1.6-1.1,2.7-1.1c1,0,1.7,0.3,2.3,0.9c0.4,0.3,0.6,0.8,0.8,1.5l-1.4,0.4
			c-0.1-0.4-0.3-0.7-0.6-1c-0.3-0.2-0.7-0.4-1.1-0.4c-0.6,0-1.1,0.2-1.4,0.6c-0.4,0.4-0.5,1.1-0.5,2c0,1,0.2,1.7,0.5,2.1
			c0.3,0.4,0.8,0.6,1.4,0.6c0.4,0,0.8-0.1,1.1-0.4C-503.3,327.1-503,326.7-503,326.1z"/>
		<path id="XMLID_14_" class="st2" d="M-493,329h-1.7l-0.7-1.8h-3.1l-0.6,1.8h-1.7l3.1-7.9h1.7L-493,329z M-495.8,325.9l-1.1-2.9
			l-1.1,2.9H-495.8z"/>
		<path id="XMLID_17_" class="st2" d="M-492,329v-7.9h3.3c0.8,0,1.5,0.1,1.8,0.2c0.4,0.1,0.7,0.4,0.9,0.8c0.2,0.4,0.3,0.8,0.3,1.2
			c0,0.6-0.2,1.1-0.5,1.5s-0.9,0.6-1.6,0.7c0.3,0.2,0.6,0.4,0.9,0.7s0.5,0.7,0.9,1.3l1,1.5h-1.9l-1.1-1.7c-0.4-0.6-0.7-1-0.8-1.2
			c-0.1-0.2-0.3-0.3-0.5-0.3c-0.2-0.1-0.4-0.1-0.8-0.1h-0.3v3.3H-492z M-490.5,324.5h1.2c0.8,0,1.2,0,1.4-0.1s0.3-0.2,0.4-0.3
			s0.2-0.4,0.2-0.6c0-0.3-0.1-0.5-0.2-0.6c-0.1-0.1-0.3-0.3-0.6-0.3c-0.1,0-0.5,0-1.2,0h-1.2C-490.5,322.6-490.5,324.5-490.5,324.5z
			"/>
		<path id="XMLID_20_" class="st2" d="M-480.5,326.1v-1.3h3.4v3.1c-0.3,0.3-0.8,0.6-1.4,0.9c-0.6,0.3-1.3,0.4-1.9,0.4
			c-0.8,0-1.5-0.2-2.2-0.5c-0.6-0.3-1.1-0.8-1.4-1.5c-0.3-0.7-0.5-1.3-0.5-2.1c0-0.8,0.2-1.5,0.5-2.2c0.3-0.6,0.8-1.1,1.5-1.5
			c0.5-0.3,1.1-0.4,1.9-0.4c1,0,1.7,0.2,2.3,0.6c0.6,0.4,0.9,1,1.1,1.7l-1.6,0.3c-0.1-0.4-0.3-0.7-0.6-0.9c-0.3-0.2-0.7-0.3-1.1-0.3
			c-0.7,0-1.2,0.2-1.7,0.7c-0.4,0.4-0.6,1.1-0.6,2s0.2,1.6,0.6,2.1s1,0.7,1.6,0.7c0.3,0,0.7-0.1,1-0.2s0.6-0.3,0.9-0.5v-1h-1.8
			V326.1z"/>
		<path id="XMLID_22_" class="st2" d="M-468.5,329h-1.7l-0.8-1.8h-3.1l-0.6,1.8h-1.7l3.1-7.9h1.7L-468.5,329z M-471.5,325.9
			l-1.1-2.9l-1.1,2.9H-471.5z"/>
		<path id="XMLID_25_" class="st2" d="M-467.6,329v-7.9h3.3c0.8,0,1.5,0.1,1.8,0.2c0.4,0.1,0.7,0.4,0.9,0.8c0.2,0.4,0.3,0.8,0.3,1.2
			c0,0.6-0.2,1.1-0.5,1.5s-0.9,0.6-1.6,0.7c0.3,0.2,0.6,0.4,0.9,0.7c0.3,0.3,0.5,0.7,0.9,1.3l1,1.5h-1.9l-1.1-1.7
			c-0.4-0.6-0.7-1-0.8-1.2c-0.1-0.2-0.3-0.3-0.5-0.3c-0.2-0.1-0.4-0.1-0.8-0.1h-0.3v3.3H-467.6z M-466,324.5h1.2
			c0.8,0,1.2,0,1.4-0.1s0.3-0.2,0.4-0.3c0.1-0.1,0.2-0.4,0.2-0.6c0-0.3-0.1-0.5-0.2-0.6s-0.3-0.3-0.6-0.3c-0.1,0-0.5,0-1.2,0h-1.2
			C-466,322.6-466,324.5-466,324.5z"/>
		<path id="XMLID_29_" class="st2" d="M-456.6,329v-7.9h2.6c1,0,1.6,0,1.9,0.1c0.5,0.1,0.8,0.4,1.1,0.8s0.5,0.9,0.5,1.5
			c0,0.5-0.1,0.9-0.3,1.2c-0.2,0.3-0.4,0.6-0.7,0.8c-0.3,0.2-0.5,0.3-0.8,0.4c-0.4,0.1-0.9,0.1-1.6,0.1h-1v3H-456.6z M-455,322.5
			v2.2h0.9c0.6,0,1,0,1.3-0.1c0.2-0.1,0.4-0.2,0.5-0.4c0.1-0.2,0.2-0.4,0.2-0.6c0-0.3-0.1-0.5-0.3-0.7c-0.2-0.2-0.4-0.3-0.6-0.3
			c-0.2,0-0.6-0.1-1.1-0.1H-455z"/>
		<path id="XMLID_32_" class="st2" d="M-449.4,321.2h2.9c0.7,0,1.2,0,1.5,0.2c0.5,0.1,0.9,0.4,1.2,0.7c0.3,0.3,0.6,0.8,0.8,1.3
			c0.2,0.5,0.3,1.1,0.3,1.9c0,0.6-0.1,1.2-0.2,1.7c-0.2,0.6-0.5,1-0.8,1.4c-0.3,0.3-0.6,0.5-1.1,0.6c-0.4,0.1-0.8,0.2-1.4,0.2h-3v-8
			L-449.4,321.2L-449.4,321.2z M-447.8,322.5v5.2h1.2c0.4,0,0.8,0,1-0.1c0.3-0.1,0.5-0.2,0.6-0.3c0.1-0.1,0.3-0.4,0.4-0.8
			c0.1-0.4,0.2-0.8,0.2-1.4s-0.1-1.1-0.2-1.4c-0.1-0.3-0.3-0.6-0.5-0.8c-0.2-0.2-0.4-0.3-0.7-0.4c-0.2,0-0.7-0.1-1.3-0.1
			L-447.8,322.5L-447.8,322.5z"/>
		<path id="XMLID_35_" class="st2" d="M-441.4,329v-7.9h5.4v1.3h-3.8v1.9h3.3v1.4h-3.3v3.3L-441.4,329L-441.4,329z"/>
	</g>
	<g id="XMLID_167_">
		<path id="XMLID_302_" class="st2" d="M-486.5,278.9h-4.8c-0.7,0-1.3,0.6-1.3,1.3s0.6,1.3,1.3,1.3h4.8c0.7,0,1.3-0.6,1.3-1.3
			S-485.8,278.9-486.5,278.9z"/>
		<path id="XMLID_297_" class="st2" d="M-486.5,284.5h-4.8c-0.7,0-1.3,0.6-1.3,1.3c0,0.7,0.6,1.3,1.3,1.3h4.8c0.7,0,1.3-0.6,1.3-1.3
			S-485.8,284.5-486.5,284.5z"/>
		<path id="XMLID_296_" class="st2" d="M-480.8,293.9v1.3h0.7c0.8,0,0.8-0.5,0.8-0.7s0-0.6-0.8-0.6L-480.8,293.9L-480.8,293.9z"/>
		<path id="XMLID_186_" class="st2" d="M-470.8,291.4h-2.2v-13.6c0-0.4-0.1-0.7-0.4-0.9l-5.2-5.2c-0.2-0.2-0.6-0.4-0.9-0.4h-15.8
			c-1.4,0-2.6,1.2-2.6,2.6v27.8c0,1.4,1.2,2.6,2.6,2.6h19.8c1.4,0,2.6-1.2,2.6-2.6V299h2.2c1.1,0,2-0.9,2-2v-3.5
			C-468.6,292.3-469.6,291.4-470.8,291.4z M-475.8,301.4H-495v-27.2h13.7v3.9c0,0.9,0.8,1.7,1.7,1.7h3.9v11.6h-6.6c-1.1,0-2,0.9-2,2
			v3.5c0,1.1,0.9,2,2,2h6.6V301.4L-475.8,301.4z M-478.5,294.5c0,0.9-0.6,1.5-1.7,1.5h-0.7v0.8c0,0.2-0.2,0.4-0.4,0.4h-0.1
			c-0.2,0-0.4-0.2-0.4-0.4v-3.4c0-0.2,0.2-0.4,0.4-0.4h1.2C-479.1,293-478.5,293.6-478.5,294.5z M-476.5,297.2h-1.3
			c-0.2,0-0.4-0.2-0.4-0.4v-3.4c0-0.2,0.2-0.4,0.4-0.4h1.3c1.2,0,2.1,0.9,2.1,2.1C-474.3,296.2-475.3,297.2-476.5,297.2z
			 M-471,293.5c0,0.2-0.2,0.4-0.4,0.4h-1.5v0.8h1.3c0.2,0,0.4,0.2,0.4,0.4v0.1c0,0.2-0.2,0.4-0.4,0.4h-1.3v1.2
			c0,0.2-0.2,0.4-0.4,0.4h-0.1c-0.2,0-0.4-0.2-0.4-0.4v-3.4c0-0.2,0.2-0.4,0.4-0.4h2C-471.3,293-471,293.2-471,293.5L-471,293.5
			L-471,293.5z"/>
		<path id="XMLID_185_" class="st2" d="M-476.5,293.9h-0.9v2.5h0.9c0.7,0,1.3-0.6,1.3-1.2C-475.1,294.4-475.8,293.9-476.5,293.9z"/>
	</g>
</g>
</svg>
