<?xml version="1.0" encoding="utf-8"?>
<!-- Generator: Adobe Illustrator 19.0.0, SVG Export Plug-In . SVG Version: 6.00 Build 0)  -->
<svg version="1.1" id="Capa_1" xmlns="http://www.w3.org/2000/svg" xmlns:xlink="http://www.w3.org/1999/xlink" x="0px" y="0px"
	 viewBox="0 0 279.8 35.4" style="enable-background:new 0 0 279.8 35.4;" xml:space="preserve">
<style type="text/css">
	.st0{fill:#348EA9;stroke:#348EA9;stroke-width:1.7139;stroke-miterlimit:10;}
	.st1{fill:#348EA9;}
	.st2{fill:#FFFFFF;}
</style>
<g id="XMLID_136877_">
	<g id="XMLID_136884_">
		<polygon id="XMLID_136885_" class="st0" points="264.1,0.9 278.6,17.7 264.1,34.5 250.9,34.5 265.4,17.7 250.9,0.9 264.1,0.9 		
			"/>
	</g>
	<g id="XMLID_136882_">
		<polygon id="XMLID_136883_" class="st0" points="15.7,34.5 1.1,17.7 15.7,0.9 28.9,0.9 14.4,17.7 28.9,34.5 15.7,34.5 		"/>
	</g>
	<polygon id="XMLID_136881_" class="st1" points="32.9,0.9 246.9,0.9 261.4,17.7 246.9,34.5 32.9,34.5 18.4,17.7 	"/>
	<g id="XMLID_55_">
		<g id="XMLID_520_">
			<path id="XMLID_576_" class="st2" d="M46,19.9l2.4,0.8c-0.4,1.3-1,2.3-1.8,3s-1.9,1-3.2,1c-1.6,0-2.9-0.6-4-1.7
				c-1-1.1-1.6-2.6-1.6-4.5c0-2,0.5-3.6,1.6-4.7c1-1.1,2.4-1.7,4.1-1.7c1.5,0,2.7,0.4,3.6,1.3c0.6,0.5,1,1.3,1.2,2.2l-2.4,0.6
				c-0.1-0.6-0.4-1.1-0.9-1.5c-0.5-0.4-1-0.5-1.7-0.5c-0.9,0-1.6,0.3-2.2,1c-0.6,0.6-0.8,1.7-0.8,3.1c0,1.5,0.3,2.6,0.8,3.3
				c0.6,0.7,1.3,1,2.2,1c0.7,0,1.2-0.2,1.7-0.6C45.4,21.4,45.8,20.8,46,19.9z"/>
			<path id="XMLID_573_" class="st2" d="M52.2,18.2l-2.1-0.4c0.2-0.9,0.6-1.5,1.2-1.9c0.6-0.4,1.4-0.6,2.6-0.6c1,0,1.8,0.1,2.3,0.4
				c0.5,0.2,0.9,0.6,1.1,0.9c0.2,0.4,0.3,1.1,0.3,2.1l0,2.7c0,0.8,0,1.3,0.1,1.7c0.1,0.4,0.2,0.8,0.4,1.2h-2.3
				c-0.1-0.2-0.1-0.4-0.2-0.7c0-0.1-0.1-0.2-0.1-0.3c-0.4,0.4-0.8,0.7-1.3,0.9c-0.5,0.2-0.9,0.3-1.5,0.3c-0.9,0-1.6-0.2-2.1-0.7
				c-0.5-0.5-0.8-1.1-0.8-1.9c0-0.5,0.1-0.9,0.4-1.3c0.2-0.4,0.6-0.7,1-0.9c0.4-0.2,1-0.4,1.9-0.5c1.1-0.2,1.8-0.4,2.3-0.6v-0.2
				c0-0.4-0.1-0.8-0.3-1c-0.2-0.2-0.6-0.3-1.3-0.3c-0.4,0-0.7,0.1-1,0.2S52.3,17.8,52.2,18.2z M55.3,20.1c-0.3,0.1-0.8,0.2-1.4,0.4
				c-0.6,0.1-1.1,0.3-1.3,0.4c-0.3,0.2-0.5,0.5-0.5,0.8c0,0.3,0.1,0.6,0.4,0.8c0.2,0.2,0.6,0.4,0.9,0.4c0.4,0,0.8-0.1,1.2-0.4
				c0.3-0.2,0.5-0.5,0.6-0.8c0.1-0.2,0.1-0.6,0.1-1.1V20.1z"/>
			<path id="XMLID_571_" class="st2" d="M62.1,24.3h-2.3v-8.8H62v1.3c0.4-0.6,0.7-1,1-1.2s0.6-0.3,1-0.3c0.5,0,1,0.1,1.5,0.4l-0.7,2
				c-0.4-0.3-0.8-0.4-1.1-0.4c-0.3,0-0.6,0.1-0.8,0.3c-0.2,0.2-0.4,0.5-0.5,1c-0.1,0.5-0.2,1.5-0.2,3V24.3z"/>
			<path id="XMLID_568_" class="st2" d="M68.3,18.2l-2.1-0.4c0.2-0.9,0.6-1.5,1.2-1.9c0.6-0.4,1.4-0.6,2.6-0.6c1,0,1.8,0.1,2.3,0.4
				c0.5,0.2,0.9,0.6,1.1,0.9c0.2,0.4,0.3,1.1,0.3,2.1l0,2.7c0,0.8,0,1.3,0.1,1.7c0.1,0.4,0.2,0.8,0.4,1.2h-2.3
				c-0.1-0.2-0.1-0.4-0.2-0.7c0-0.1-0.1-0.2-0.1-0.3c-0.4,0.4-0.8,0.7-1.3,0.9c-0.5,0.2-0.9,0.3-1.5,0.3c-0.9,0-1.6-0.2-2.1-0.7
				c-0.5-0.5-0.8-1.1-0.8-1.9c0-0.5,0.1-0.9,0.4-1.3c0.2-0.4,0.6-0.7,1-0.9c0.4-0.2,1-0.4,1.9-0.5c1.1-0.2,1.8-0.4,2.3-0.6v-0.2
				c0-0.4-0.1-0.8-0.3-1c-0.2-0.2-0.6-0.3-1.3-0.3c-0.4,0-0.7,0.1-1,0.2S68.4,17.8,68.3,18.2z M71.4,20.1c-0.3,0.1-0.8,0.2-1.4,0.4
				c-0.6,0.1-1.1,0.3-1.3,0.4c-0.3,0.2-0.5,0.5-0.5,0.8c0,0.3,0.1,0.6,0.4,0.8c0.2,0.2,0.6,0.4,0.9,0.4c0.4,0,0.8-0.1,1.2-0.4
				c0.3-0.2,0.5-0.5,0.6-0.8c0.1-0.2,0.1-0.6,0.1-1.1V20.1z"/>
			<path id="XMLID_566_" class="st2" d="M83.7,18.1l-2.3,0.4c-0.1-0.5-0.3-0.8-0.5-1c-0.3-0.2-0.6-0.3-1.1-0.3c-0.6,0-1,0.2-1.4,0.6
				s-0.5,1.1-0.5,2c0,1,0.2,1.8,0.5,2.2c0.4,0.4,0.8,0.6,1.4,0.6c0.4,0,0.8-0.1,1.1-0.4s0.5-0.7,0.6-1.3l2.3,0.4
				c-0.2,1.1-0.7,1.8-1.4,2.4c-0.7,0.5-1.6,0.8-2.7,0.8c-1.3,0-2.3-0.4-3.1-1.2c-0.8-0.8-1.2-1.9-1.2-3.4c0-1.5,0.4-2.6,1.2-3.4
				c0.8-0.8,1.8-1.2,3.1-1.2c1.1,0,1.9,0.2,2.6,0.7C82.9,16.5,83.4,17.2,83.7,18.1z"/>
			<path id="XMLID_564_" class="st2" d="M89.5,15.5v1.9h-1.6v3.6c0,0.7,0,1.1,0,1.3s0.1,0.2,0.2,0.3c0.1,0.1,0.2,0.1,0.4,0.1
				c0.2,0,0.5-0.1,0.9-0.2l0.2,1.8c-0.5,0.2-1.2,0.3-1.8,0.3c-0.4,0-0.8-0.1-1.1-0.2c-0.3-0.1-0.6-0.3-0.7-0.5
				c-0.2-0.2-0.3-0.5-0.3-0.9c0-0.3-0.1-0.8-0.1-1.6v-3.8h-1.1v-1.9h1.1v-1.8l2.3-1.4v3.1H89.5z"/>
			<path id="XMLID_561_" class="st2" d="M96.2,21.5l2.3,0.4c-0.3,0.9-0.8,1.5-1.4,1.9s-1.5,0.7-2.4,0.7c-1.5,0-2.7-0.5-3.4-1.5
				c-0.6-0.8-0.9-1.8-0.9-3c0-1.5,0.4-2.6,1.1-3.4c0.8-0.8,1.7-1.2,2.9-1.2c1.3,0,2.3,0.4,3.1,1.3c0.8,0.9,1.1,2.2,1.1,4h-5.8
				c0,0.7,0.2,1.2,0.6,1.6c0.4,0.4,0.8,0.6,1.3,0.6c0.4,0,0.7-0.1,0.9-0.3S96.1,22,96.2,21.5z M96.3,19.2c0-0.7-0.2-1.2-0.5-1.5
				s-0.7-0.5-1.2-0.5c-0.5,0-0.9,0.2-1.3,0.6s-0.5,0.9-0.5,1.5H96.3z"/>
			<path id="XMLID_559_" class="st2" d="M102.8,24.3h-2.3v-8.8h2.2v1.3c0.4-0.6,0.7-1,1-1.2s0.6-0.3,1-0.3c0.5,0,1,0.1,1.5,0.4
				l-0.7,2c-0.4-0.3-0.8-0.4-1.1-0.4c-0.3,0-0.6,0.1-0.8,0.3c-0.2,0.2-0.4,0.5-0.5,1c-0.1,0.5-0.2,1.5-0.2,3V24.3z"/>
			<path id="XMLID_556_" class="st2" d="M107,14.5l1.1-2.5h2.6l-2.3,2.5H107z M107.2,24.3v-8.8h2.3v8.8H107.2z"/>
			<path id="XMLID_554_" class="st2" d="M111.1,21.8l2.3-0.4c0.1,0.5,0.3,0.8,0.6,1c0.3,0.2,0.7,0.4,1.3,0.4c0.6,0,1.1-0.1,1.4-0.3
				c0.2-0.2,0.3-0.4,0.3-0.6c0-0.2-0.1-0.3-0.2-0.4c-0.1-0.1-0.4-0.2-0.8-0.3c-1.9-0.4-3.1-0.8-3.6-1.1c-0.7-0.5-1-1.1-1-2
				c0-0.8,0.3-1.4,0.9-1.9c0.6-0.5,1.5-0.8,2.8-0.8c1.2,0,2.1,0.2,2.7,0.6c0.6,0.4,1,1,1.2,1.7l-2.2,0.4c-0.1-0.3-0.3-0.6-0.5-0.8
				c-0.3-0.2-0.6-0.3-1.1-0.3c-0.6,0-1.1,0.1-1.3,0.3c-0.2,0.1-0.3,0.3-0.3,0.5c0,0.2,0.1,0.3,0.2,0.4c0.2,0.2,0.9,0.4,2.2,0.7
				s2.1,0.6,2.6,1c0.5,0.4,0.7,1,0.7,1.7c0,0.8-0.3,1.5-1,2.1c-0.7,0.6-1.7,0.9-3,0.9c-1.2,0-2.2-0.2-2.9-0.7
				C111.7,23.3,111.3,22.7,111.1,21.8z"/>
			<path id="XMLID_552_" class="st2" d="M125.4,15.5v1.9h-1.6v3.6c0,0.7,0,1.1,0,1.3s0.1,0.2,0.2,0.3c0.1,0.1,0.2,0.1,0.4,0.1
				c0.2,0,0.5-0.1,0.9-0.2l0.2,1.8c-0.5,0.2-1.2,0.3-1.8,0.3c-0.4,0-0.8-0.1-1.1-0.2c-0.3-0.1-0.6-0.3-0.7-0.5
				c-0.2-0.2-0.3-0.5-0.3-0.9c0-0.3-0.1-0.8-0.1-1.6v-3.8h-1.1v-1.9h1.1v-1.8l2.3-1.4v3.1H125.4z"/>
			<path id="XMLID_549_" class="st2" d="M127,14.3v-2.2h2.3v2.2H127z M127,24.3v-8.8h2.3v8.8H127z"/>
			<path id="XMLID_547_" class="st2" d="M139.4,18.1l-2.3,0.4c-0.1-0.5-0.3-0.8-0.5-1c-0.3-0.2-0.6-0.3-1.1-0.3
				c-0.6,0-1,0.2-1.4,0.6s-0.5,1.1-0.5,2c0,1,0.2,1.8,0.5,2.2c0.4,0.4,0.8,0.6,1.4,0.6c0.4,0,0.8-0.1,1.1-0.4s0.5-0.7,0.6-1.3
				l2.3,0.4c-0.2,1.1-0.7,1.8-1.4,2.4c-0.7,0.5-1.6,0.8-2.7,0.8c-1.3,0-2.3-0.4-3.1-1.2c-0.8-0.8-1.2-1.9-1.2-3.4
				c0-1.5,0.4-2.6,1.2-3.4c0.8-0.8,1.8-1.2,3.1-1.2c1.1,0,1.9,0.2,2.6,0.7C138.7,16.5,139.1,17.2,139.4,18.1z"/>
			<path id="XMLID_544_" class="st2" d="M142.9,18.2l-2.1-0.4c0.2-0.9,0.6-1.5,1.2-1.9c0.6-0.4,1.4-0.6,2.6-0.6c1,0,1.8,0.1,2.3,0.4
				c0.5,0.2,0.9,0.6,1.1,0.9c0.2,0.4,0.3,1.1,0.3,2.1l0,2.7c0,0.8,0,1.3,0.1,1.7c0.1,0.4,0.2,0.8,0.4,1.2h-2.3
				c-0.1-0.2-0.1-0.4-0.2-0.7c0-0.1-0.1-0.2-0.1-0.3c-0.4,0.4-0.8,0.7-1.3,0.9c-0.5,0.2-0.9,0.3-1.5,0.3c-0.9,0-1.6-0.2-2.1-0.7
				c-0.5-0.5-0.8-1.1-0.8-1.9c0-0.5,0.1-0.9,0.4-1.3c0.2-0.4,0.6-0.7,1-0.9c0.4-0.2,1-0.4,1.9-0.5c1.1-0.2,1.8-0.4,2.3-0.6v-0.2
				c0-0.4-0.1-0.8-0.3-1c-0.2-0.2-0.6-0.3-1.3-0.3c-0.4,0-0.7,0.1-1,0.2S143.1,17.8,142.9,18.2z M146,20.1c-0.3,0.1-0.8,0.2-1.4,0.4
				c-0.6,0.1-1.1,0.3-1.3,0.4c-0.3,0.2-0.5,0.5-0.5,0.8c0,0.3,0.1,0.6,0.4,0.8c0.2,0.2,0.6,0.4,0.9,0.4c0.4,0,0.8-0.1,1.2-0.4
				c0.3-0.2,0.5-0.5,0.6-0.8c0.1-0.2,0.1-0.6,0.1-1.1V20.1z"/>
			<path id="XMLID_542_" class="st2" d="M149.8,21.8l2.3-0.4c0.1,0.5,0.3,0.8,0.6,1c0.3,0.2,0.7,0.4,1.3,0.4c0.6,0,1.1-0.1,1.4-0.3
				c0.2-0.2,0.3-0.4,0.3-0.6c0-0.2-0.1-0.3-0.2-0.4c-0.1-0.1-0.4-0.2-0.8-0.3c-1.9-0.4-3.1-0.8-3.6-1.1c-0.7-0.5-1-1.1-1-2
				c0-0.8,0.3-1.4,0.9-1.9c0.6-0.5,1.5-0.8,2.8-0.8c1.2,0,2.1,0.2,2.7,0.6c0.6,0.4,1,1,1.2,1.7l-2.2,0.4c-0.1-0.3-0.3-0.6-0.5-0.8
				c-0.3-0.2-0.6-0.3-1.1-0.3c-0.6,0-1.1,0.1-1.3,0.3c-0.2,0.1-0.3,0.3-0.3,0.5c0,0.2,0.1,0.3,0.2,0.4c0.2,0.2,0.9,0.4,2.2,0.7
				s2.1,0.6,2.6,1c0.5,0.4,0.7,1,0.7,1.7c0,0.8-0.3,1.5-1,2.1c-0.7,0.6-1.7,0.9-3,0.9c-1.2,0-2.2-0.2-2.9-0.7
				C150.5,23.3,150,22.7,149.8,21.8z"/>
			<path id="XMLID_540_" class="st2" d="M163.7,15.5h2.5l2.1,6.3l2.1-6.3h2.4l-3.1,8.5l-0.6,1.5c-0.2,0.5-0.4,0.9-0.6,1.2
				c-0.2,0.3-0.4,0.5-0.6,0.7c-0.2,0.2-0.5,0.3-0.9,0.4c-0.4,0.1-0.7,0.1-1.2,0.1c-0.4,0-0.9,0-1.3-0.1l-0.2-1.8
				c0.4,0.1,0.7,0.1,1,0.1c0.5,0,0.9-0.2,1.2-0.5c0.3-0.3,0.5-0.7,0.6-1.2L163.7,15.5z"/>
			<path id="XMLID_538_" class="st2" d="M178,15.5h1.3v-0.7c0-0.7,0.1-1.3,0.2-1.7c0.2-0.4,0.4-0.7,0.9-0.9c0.4-0.2,1-0.3,1.6-0.3
				c0.7,0,1.3,0.1,2,0.3l-0.3,1.6c-0.4-0.1-0.7-0.1-1.1-0.1c-0.3,0-0.6,0.1-0.7,0.2c-0.1,0.2-0.2,0.5-0.2,0.9v0.6h1.7v1.8h-1.7v7
				h-2.3v-7H178V15.5z"/>
			<path id="XMLID_535_" class="st2" d="M186.4,18.2l-2.1-0.4c0.2-0.9,0.6-1.5,1.2-1.9c0.6-0.4,1.4-0.6,2.6-0.6c1,0,1.8,0.1,2.3,0.4
				c0.5,0.2,0.9,0.6,1.1,0.9c0.2,0.4,0.3,1.1,0.3,2.1l0,2.7c0,0.8,0,1.3,0.1,1.7c0.1,0.4,0.2,0.8,0.4,1.2H190
				c-0.1-0.2-0.1-0.4-0.2-0.7c0-0.1-0.1-0.2-0.1-0.3c-0.4,0.4-0.8,0.7-1.3,0.9c-0.5,0.2-0.9,0.3-1.5,0.3c-0.9,0-1.6-0.2-2.1-0.7
				c-0.5-0.5-0.8-1.1-0.8-1.9c0-0.5,0.1-0.9,0.4-1.3c0.2-0.4,0.6-0.7,1-0.9c0.4-0.2,1-0.4,1.9-0.5c1.1-0.2,1.8-0.4,2.3-0.6v-0.2
				c0-0.4-0.1-0.8-0.3-1c-0.2-0.2-0.6-0.3-1.3-0.3c-0.4,0-0.7,0.1-1,0.2S186.5,17.8,186.4,18.2z M189.5,20.1
				c-0.3,0.1-0.8,0.2-1.4,0.4c-0.6,0.1-1.1,0.3-1.3,0.4c-0.3,0.2-0.5,0.5-0.5,0.8c0,0.3,0.1,0.6,0.4,0.8c0.2,0.2,0.6,0.4,0.9,0.4
				c0.4,0,0.8-0.1,1.2-0.4c0.3-0.2,0.5-0.5,0.6-0.8c0.1-0.2,0.1-0.6,0.1-1.1V20.1z"/>
			<path id="XMLID_533_" class="st2" d="M201.8,18.1l-2.3,0.4c-0.1-0.5-0.3-0.8-0.5-1c-0.3-0.2-0.6-0.3-1.1-0.3
				c-0.6,0-1,0.2-1.4,0.6c-0.3,0.4-0.5,1.1-0.5,2c0,1,0.2,1.8,0.5,2.2s0.8,0.6,1.4,0.6c0.4,0,0.8-0.1,1.1-0.4s0.5-0.7,0.6-1.3
				l2.3,0.4c-0.2,1.1-0.7,1.8-1.4,2.4c-0.7,0.5-1.6,0.8-2.7,0.8c-1.3,0-2.3-0.4-3.1-1.2c-0.8-0.8-1.1-1.9-1.1-3.4
				c0-1.5,0.4-2.6,1.2-3.4c0.8-0.8,1.8-1.2,3.1-1.2c1.1,0,1.9,0.2,2.6,0.7C201,16.5,201.5,17.2,201.8,18.1z"/>
			<path id="XMLID_531_" class="st2" d="M207.6,15.5v1.9H206v3.6c0,0.7,0,1.1,0,1.3c0,0.1,0.1,0.2,0.2,0.3c0.1,0.1,0.2,0.1,0.4,0.1
				c0.2,0,0.5-0.1,0.9-0.2l0.2,1.8c-0.5,0.2-1.2,0.3-1.8,0.3c-0.4,0-0.8-0.1-1.1-0.2c-0.3-0.1-0.6-0.3-0.7-0.5
				c-0.2-0.2-0.3-0.5-0.3-0.9c0-0.3-0.1-0.8-0.1-1.6v-3.8h-1.1v-1.9h1.1v-1.8l2.3-1.4v3.1H207.6z"/>
			<path id="XMLID_528_" class="st2" d="M208.7,19.8c0-0.8,0.2-1.5,0.6-2.2c0.4-0.7,0.9-1.3,1.6-1.7c0.7-0.4,1.5-0.6,2.3-0.6
				c1.3,0,2.4,0.4,3.3,1.3c0.9,0.9,1.3,2,1.3,3.3c0,1.3-0.4,2.4-1.3,3.3s-1.9,1.3-3.3,1.3c-0.8,0-1.6-0.2-2.3-0.5s-1.3-0.9-1.7-1.6
				C208.9,21.7,208.7,20.8,208.7,19.8z M211.1,19.9c0,0.9,0.2,1.5,0.6,2s0.9,0.7,1.5,0.7c0.6,0,1.1-0.2,1.5-0.7s0.6-1.1,0.6-2
				c0-0.9-0.2-1.5-0.6-2s-0.9-0.7-1.5-0.7c-0.6,0-1.1,0.2-1.5,0.7S211.1,19.1,211.1,19.9z"/>
			<path id="XMLID_526_" class="st2" d="M221.8,24.3h-2.3v-8.8h2.2v1.3c0.4-0.6,0.7-1,1-1.2c0.3-0.2,0.6-0.3,1-0.3
				c0.5,0,1,0.1,1.5,0.4l-0.7,2c-0.4-0.3-0.8-0.4-1.1-0.4c-0.3,0-0.6,0.1-0.8,0.3c-0.2,0.2-0.4,0.5-0.5,1s-0.2,1.5-0.2,3V24.3z"/>
			<path id="XMLID_523_" class="st2" d="M231.3,21.5l2.3,0.4c-0.3,0.9-0.8,1.5-1.4,1.9c-0.6,0.4-1.5,0.7-2.4,0.7
				c-1.5,0-2.7-0.5-3.4-1.5c-0.6-0.8-0.9-1.8-0.9-3c0-1.5,0.4-2.6,1.1-3.4c0.8-0.8,1.7-1.2,2.9-1.2c1.3,0,2.3,0.4,3.1,1.3
				c0.8,0.9,1.1,2.2,1.1,4h-5.8c0,0.7,0.2,1.2,0.6,1.6c0.4,0.4,0.8,0.6,1.3,0.6c0.4,0,0.7-0.1,0.9-0.3S231.2,22,231.3,21.5z
				 M231.4,19.2c0-0.7-0.2-1.2-0.5-1.5s-0.7-0.5-1.2-0.5c-0.5,0-0.9,0.2-1.3,0.6s-0.5,0.9-0.5,1.5H231.4z"/>
			<path id="XMLID_521_" class="st2" d="M234.8,21.8l2.3-0.4c0.1,0.5,0.3,0.8,0.6,1c0.3,0.2,0.7,0.4,1.3,0.4c0.6,0,1.1-0.1,1.4-0.3
				c0.2-0.2,0.3-0.4,0.3-0.6c0-0.2-0.1-0.3-0.2-0.4c-0.1-0.1-0.4-0.2-0.8-0.3c-1.9-0.4-3.1-0.8-3.6-1.1c-0.7-0.5-1-1.1-1-2
				c0-0.8,0.3-1.4,0.9-1.9c0.6-0.5,1.5-0.8,2.8-0.8c1.2,0,2.1,0.2,2.7,0.6c0.6,0.4,1,1,1.2,1.7l-2.2,0.4c-0.1-0.3-0.3-0.6-0.5-0.8
				c-0.3-0.2-0.6-0.3-1.1-0.3c-0.6,0-1.1,0.1-1.3,0.3c-0.2,0.1-0.3,0.3-0.3,0.5c0,0.2,0.1,0.3,0.2,0.4c0.2,0.2,0.9,0.4,2.2,0.7
				c1.2,0.3,2.1,0.6,2.6,1c0.5,0.4,0.7,1,0.7,1.7c0,0.8-0.3,1.5-1,2.1c-0.7,0.6-1.7,0.9-3,0.9c-1.2,0-2.2-0.2-2.9-0.7
				S235.1,22.7,234.8,21.8z"/>
		</g>
	</g>
</g>
</svg>
