<?xml version="1.0" encoding="utf-8"?>
<!-- Generator: Adobe Illustrator 19.0.0, SVG Export Plug-In . SVG Version: 6.00 Build 0)  -->
<svg version="1.1" id="Capa_1" xmlns="http://www.w3.org/2000/svg" xmlns:xlink="http://www.w3.org/1999/xlink" x="0px" y="0px"
	 viewBox="0 0 336.4 87" style="enable-background:new 0 0 336.4 87;" xml:space="preserve">
<style type="text/css">
	.st0{fill:#348EA9;}
	.st1{fill:#308396;}
	.st2{fill:#FFFFFF;}
	.st3{clip-path:url(#XMLID_186_);fill:#A7A9AC;}
	.st4{clip-path:url(#XMLID_186_);}
</style>
<g id="XMLID_13_">
	<rect id="XMLID_135861_" x="0" y="0.4" class="st0" width="292.9" height="86.2"/>
	<circle id="XMLID_135848_" class="st1" cx="292.9" cy="43.5" r="43.5"/>
	<circle id="XMLID_135847_" class="st2" cx="292.9" cy="43.5" r="34.8"/>
	<g id="XMLID_1_">
		<g id="XMLID_688_">
			<path id="XMLID_765_" class="st2" d="M56.3,39.8V25.5h1.9v14.3H56.3z"/>
			<path id="XMLID_762_" class="st2" d="M68,39.8v-1.3c-0.7,1-1.6,1.5-2.9,1.5c-0.8,0-1.6-0.2-2.3-0.7s-1.2-1.1-1.6-1.9
				s-0.6-1.8-0.6-2.8c0-1,0.2-2,0.5-2.8s0.9-1.5,1.6-1.9s1.5-0.7,2.3-0.7c0.6,0,1.2,0.1,1.7,0.4s0.9,0.6,1.2,1v-5.1h1.7v14.3H68z
				 M62.5,34.6c0,1.3,0.3,2.3,0.8,3s1.2,1,2,1c0.8,0,1.4-0.3,2-0.9s0.8-1.6,0.8-2.9c0-1.4-0.3-2.5-0.8-3.1s-1.2-1-2-1
				c-0.8,0-1.4,0.3-2,1S62.5,33.2,62.5,34.6z"/>
			<path id="XMLID_759_" class="st2" d="M79.5,36.4l1.8,0.2c-0.3,1.1-0.8,1.9-1.6,2.5S78,40,76.8,40c-1.5,0-2.7-0.5-3.6-1.4
				s-1.3-2.2-1.3-3.9c0-1.7,0.4-3.1,1.3-4.1s2.1-1.4,3.5-1.4c1.4,0,2.5,0.5,3.4,1.4s1.3,2.3,1.3,4c0,0.1,0,0.3,0,0.5h-7.7
				c0.1,1.1,0.4,2,1,2.6s1.3,0.9,2.2,0.9c0.6,0,1.2-0.2,1.7-0.5S79.3,37.2,79.5,36.4z M73.8,33.6h5.8c-0.1-0.9-0.3-1.5-0.7-2
				c-0.6-0.7-1.3-1-2.2-1c-0.8,0-1.5,0.3-2,0.8S73.8,32.7,73.8,33.6z"/>
			<path id="XMLID_757_" class="st2" d="M83.6,39.8V29.4h1.6v1.5c0.8-1.1,1.9-1.7,3.3-1.7c0.6,0,1.2,0.1,1.7,0.3s0.9,0.5,1.2,0.9
				s0.4,0.8,0.5,1.3C92,32,92,32.6,92,33.4v6.4h-1.8v-6.3c0-0.7-0.1-1.3-0.2-1.6s-0.4-0.6-0.7-0.8s-0.8-0.3-1.2-0.3
				c-0.7,0-1.4,0.2-1.9,0.7s-0.8,1.4-0.8,2.7v5.7H83.6z"/>
			<path id="XMLID_755_" class="st2" d="M98.5,38.2l0.3,1.6c-0.5,0.1-0.9,0.2-1.3,0.2c-0.6,0-1.1-0.1-1.5-0.3s-0.6-0.5-0.7-0.8
				s-0.2-1-0.2-2.1v-6h-1.3v-1.4H95v-2.6l1.7-1.1v3.6h1.8v1.4h-1.8v6.1c0,0.5,0,0.8,0.1,1s0.2,0.3,0.3,0.3s0.3,0.1,0.6,0.1
				C97.9,38.3,98.2,38.3,98.5,38.2z"/>
			<path id="XMLID_752_" class="st2" d="M100.2,27.5v-2h1.8v2H100.2z M100.2,39.8V29.4h1.8v10.4H100.2z"/>
			<path id="XMLID_750_" class="st2" d="M105.1,39.8v-9h-1.6v-1.4h1.6v-1.1c0-0.7,0.1-1.2,0.2-1.6c0.2-0.5,0.5-0.8,0.9-1.1
				s1-0.4,1.8-0.4c0.5,0,1,0.1,1.6,0.2l-0.3,1.5c-0.4-0.1-0.7-0.1-1-0.1c-0.5,0-0.9,0.1-1.1,0.3s-0.3,0.7-0.3,1.3v1h2v1.4h-2v9
				H105.1z"/>
			<path id="XMLID_747_" class="st2" d="M110.2,27.5v-2h1.8v2H110.2z M110.2,39.8V29.4h1.8v10.4H110.2z"/>
			<path id="XMLID_745_" class="st2" d="M121.4,36l1.7,0.2c-0.2,1.2-0.7,2.1-1.5,2.8s-1.7,1-2.9,1c-1.4,0-2.6-0.5-3.4-1.4
				s-1.3-2.3-1.3-4c0-1.1,0.2-2.1,0.6-2.9s0.9-1.5,1.7-1.9s1.6-0.6,2.5-0.6c1.1,0,2,0.3,2.8,0.9s1.2,1.4,1.4,2.4l-1.7,0.3
				c-0.2-0.7-0.5-1.2-0.9-1.6s-0.9-0.5-1.5-0.5c-0.9,0-1.6,0.3-2.2,1s-0.8,1.6-0.8,3c0,1.4,0.3,2.4,0.8,3s1.2,0.9,2.1,0.9
				c0.7,0,1.3-0.2,1.7-0.6S121.3,36.9,121.4,36z"/>
			<path id="XMLID_742_" class="st2" d="M131.4,38.5c-0.7,0.6-1.3,0.9-1.9,1.2s-1.2,0.3-1.9,0.3c-1.1,0-2-0.3-2.6-0.8
				s-0.9-1.3-0.9-2.1c0-0.5,0.1-1,0.3-1.4s0.5-0.8,0.9-1s0.8-0.4,1.3-0.6c0.3-0.1,0.9-0.2,1.6-0.3c1.4-0.2,2.5-0.4,3.1-0.6
				c0-0.2,0-0.4,0-0.5c0-0.7-0.2-1.2-0.5-1.5c-0.4-0.4-1.1-0.6-2-0.6c-0.8,0-1.4,0.1-1.8,0.4s-0.7,0.8-0.9,1.5l-1.7-0.2
				c0.2-0.7,0.4-1.3,0.8-1.8s0.9-0.8,1.6-1s1.5-0.4,2.4-0.4c0.9,0,1.6,0.1,2.2,0.3s1,0.5,1.2,0.8s0.4,0.7,0.5,1.2
				c0.1,0.3,0.1,0.8,0.1,1.6v2.3c0,1.6,0,2.7,0.1,3.1s0.2,0.8,0.4,1.2h-1.8C131.6,39.4,131.5,39,131.4,38.5z M131.3,34.6
				c-0.6,0.3-1.6,0.5-2.9,0.7c-0.7,0.1-1.2,0.2-1.5,0.4s-0.5,0.3-0.7,0.6S126,36.7,126,37c0,0.5,0.2,0.9,0.5,1.2s0.9,0.5,1.6,0.5
				c0.7,0,1.3-0.1,1.8-0.4s0.9-0.7,1.2-1.2c0.2-0.4,0.3-1,0.3-1.8V34.6z"/>
			<path id="XMLID_740_" class="st2" d="M135.8,39.8V29.4h1.6V31c0.4-0.7,0.8-1.2,1.1-1.5s0.7-0.4,1.1-0.4c0.6,0,1.2,0.2,1.8,0.6
				l-0.6,1.6c-0.4-0.3-0.9-0.4-1.3-0.4c-0.4,0-0.7,0.1-1,0.3s-0.5,0.6-0.7,1c-0.2,0.6-0.3,1.3-0.3,2.1v5.4H135.8z"/>
			<path id="XMLID_738_" class="st2" d="M147.9,43.8l-0.2-1.7c0.4,0.1,0.7,0.2,1,0.2c0.4,0,0.7-0.1,0.9-0.2s0.4-0.3,0.6-0.5
				c0.1-0.2,0.3-0.6,0.5-1.3c0-0.1,0.1-0.2,0.2-0.4L147,29.4h1.9l2.2,6c0.3,0.8,0.5,1.6,0.8,2.4c0.2-0.8,0.4-1.6,0.7-2.4l2.2-6h1.8
				L152.6,40c-0.4,1.1-0.8,1.9-1,2.4c-0.3,0.6-0.7,1-1.1,1.3s-0.9,0.4-1.4,0.4C148.7,44,148.4,43.9,147.9,43.8z"/>
			<path id="XMLID_735_" class="st2" d="M170.3,39.8v-1.3c-0.7,1-1.6,1.5-2.9,1.5c-0.8,0-1.6-0.2-2.3-0.7s-1.2-1.1-1.6-1.9
				s-0.6-1.8-0.6-2.8c0-1,0.2-2,0.5-2.8s0.9-1.5,1.6-1.9s1.5-0.7,2.3-0.7c0.6,0,1.2,0.1,1.7,0.4s0.9,0.6,1.2,1v-5.1h1.7v14.3H170.3z
				 M164.8,34.6c0,1.3,0.3,2.3,0.8,3s1.2,1,2,1c0.8,0,1.4-0.3,2-0.9s0.8-1.6,0.8-2.9c0-1.4-0.3-2.5-0.8-3.1s-1.2-1-2-1
				c-0.8,0-1.4,0.3-2,1S164.8,33.2,164.8,34.6z"/>
			<path id="XMLID_732_" class="st2" d="M181.8,36.4l1.8,0.2c-0.3,1.1-0.8,1.9-1.6,2.5s-1.8,0.9-3,0.9c-1.5,0-2.7-0.5-3.6-1.4
				s-1.3-2.2-1.3-3.9c0-1.7,0.4-3.1,1.3-4.1s2.1-1.4,3.5-1.4c1.4,0,2.5,0.5,3.4,1.4s1.3,2.3,1.3,4c0,0.1,0,0.3,0,0.5h-7.7
				c0.1,1.1,0.4,2,1,2.6s1.3,0.9,2.2,0.9c0.6,0,1.2-0.2,1.7-0.5S181.5,37.2,181.8,36.4z M176,33.6h5.8c-0.1-0.9-0.3-1.5-0.7-2
				c-0.6-0.7-1.3-1-2.2-1c-0.8,0-1.5,0.3-2,0.8S176.1,32.7,176,33.6z"/>
			<path id="XMLID_730_" class="st2" d="M186.2,39.8v-9h-1.6v-1.4h1.6v-1.1c0-0.7,0.1-1.2,0.2-1.6c0.2-0.5,0.5-0.8,0.9-1.1
				s1-0.4,1.8-0.4c0.5,0,1,0.1,1.6,0.2l-0.3,1.5c-0.4-0.1-0.7-0.1-1-0.1c-0.5,0-0.9,0.1-1.1,0.3s-0.3,0.7-0.3,1.3v1h2v1.4h-2v9
				H186.2z"/>
			<path id="XMLID_727_" class="st2" d="M191.4,27.5v-2h1.8v2H191.4z M191.4,39.8V29.4h1.8v10.4H191.4z"/>
			<path id="XMLID_725_" class="st2" d="M195.8,39.8V29.4h1.6v1.5c0.8-1.1,1.9-1.7,3.3-1.7c0.6,0,1.2,0.1,1.7,0.3s0.9,0.5,1.2,0.9
				s0.4,0.8,0.5,1.3c0.1,0.3,0.1,0.9,0.1,1.7v6.4h-1.8v-6.3c0-0.7-0.1-1.3-0.2-1.6s-0.4-0.6-0.7-0.8s-0.8-0.3-1.2-0.3
				c-0.7,0-1.4,0.2-1.9,0.7s-0.8,1.4-0.8,2.7v5.7H195.8z"/>
			<path id="XMLID_722_" class="st2" d="M207,27.5v-2h1.8v2H207z M207,39.8V29.4h1.8v10.4H207z"/>
			<path id="XMLID_720_" class="st2" d="M211.4,39.8V29.4h1.6V31c0.4-0.7,0.8-1.2,1.1-1.5s0.7-0.4,1.1-0.4c0.6,0,1.2,0.2,1.8,0.6
				l-0.6,1.6c-0.4-0.3-0.9-0.4-1.3-0.4c-0.4,0-0.7,0.1-1,0.3s-0.5,0.6-0.7,1c-0.2,0.6-0.3,1.3-0.3,2.1v5.4H211.4z"/>
			<path id="XMLID_718_" class="st2" d="M81.8,63.8V49.5h1.8v14.3H81.8z"/>
			<path id="XMLID_715_" class="st2" d="M85.7,58.6c0-1.9,0.5-3.3,1.6-4.3c0.9-0.8,2-1.2,3.3-1.2c1.4,0,2.6,0.5,3.5,1.4
				s1.4,2.2,1.4,3.9c0,1.3-0.2,2.4-0.6,3.1s-1,1.4-1.7,1.8S91.4,64,90.5,64c-1.5,0-2.6-0.5-3.5-1.4S85.7,60.4,85.7,58.6z M87.5,58.6
				c0,1.3,0.3,2.3,0.9,3s1.3,1,2.2,1c0.9,0,1.6-0.3,2.2-1s0.9-1.7,0.9-3c0-1.3-0.3-2.3-0.9-2.9s-1.3-1-2.2-1c-0.9,0-1.6,0.3-2.2,1
				S87.5,57.3,87.5,58.6z"/>
			<path id="XMLID_713_" class="st2" d="M96.7,60.7l1.7-0.3c0.1,0.7,0.4,1.2,0.8,1.6s1.1,0.6,1.9,0.6c0.8,0,1.4-0.2,1.8-0.5
				s0.6-0.7,0.6-1.2c0-0.4-0.2-0.7-0.5-0.9c-0.2-0.2-0.8-0.4-1.8-0.6c-1.3-0.3-2.2-0.6-2.7-0.8s-0.9-0.6-1.1-1S97,56.7,97,56.2
				c0-0.5,0.1-0.9,0.3-1.3s0.5-0.7,0.9-1c0.3-0.2,0.6-0.4,1.1-0.5s1-0.2,1.5-0.2c0.8,0,1.5,0.1,2.1,0.4s1.1,0.6,1.4,1
				s0.5,0.9,0.6,1.6l-1.7,0.2c-0.1-0.5-0.3-1-0.7-1.3s-0.9-0.4-1.6-0.4c-0.8,0-1.4,0.1-1.7,0.4s-0.5,0.6-0.5,0.9
				c0,0.2,0.1,0.4,0.2,0.6c0.1,0.2,0.4,0.3,0.7,0.5c0.2,0.1,0.7,0.2,1.6,0.4c1.2,0.3,2.1,0.6,2.6,0.8s0.9,0.5,1.2,0.9
				s0.4,0.9,0.4,1.5c0,0.6-0.2,1.1-0.5,1.7s-0.8,0.9-1.5,1.2S102,64,101.2,64c-1.3,0-2.4-0.3-3.1-0.8S96.9,61.8,96.7,60.7z"/>
			<path id="XMLID_710_" class="st2" d="M112.3,58.6c0-1.9,0.5-3.3,1.6-4.3c0.9-0.8,2-1.2,3.3-1.2c1.4,0,2.6,0.5,3.5,1.4
				s1.4,2.2,1.4,3.9c0,1.3-0.2,2.4-0.6,3.1s-1,1.4-1.7,1.8s-1.6,0.6-2.5,0.6c-1.5,0-2.6-0.5-3.5-1.4S112.3,60.4,112.3,58.6z
				 M114.1,58.6c0,1.3,0.3,2.3,0.9,3s1.3,1,2.2,1c0.9,0,1.6-0.3,2.2-1s0.9-1.7,0.9-3c0-1.3-0.3-2.3-0.9-2.9s-1.3-1-2.2-1
				c-0.9,0-1.6,0.3-2.2,1S114.1,57.3,114.1,58.6z"/>
			<path id="XMLID_707_" class="st2" d="M125.7,63.8h-1.6V49.5h1.8v5.1c0.7-0.9,1.7-1.4,2.8-1.4c0.6,0,1.2,0.1,1.8,0.4
				s1,0.6,1.4,1.1s0.7,1,0.9,1.7s0.3,1.4,0.3,2.1c0,1.8-0.4,3.2-1.3,4.1s-1.9,1.5-3.2,1.5c-1.2,0-2.2-0.5-2.9-1.5V63.8z M125.7,58.5
				c0,1.2,0.2,2.1,0.5,2.7c0.6,0.9,1.3,1.4,2.2,1.4c0.8,0,1.4-0.3,2-1s0.8-1.7,0.8-3c0-1.4-0.3-2.4-0.8-3s-1.2-1-1.9-1
				c-0.8,0-1.4,0.3-2,1S125.7,57.3,125.7,58.5z"/>
			<path id="XMLID_704_" class="st2" d="M133,67.8l0.3-1.5c0.4,0.1,0.6,0.1,0.8,0.1c0.4,0,0.6-0.1,0.8-0.4s0.3-0.8,0.3-1.8V53.4h1.8
				v10.9c0,1.3-0.2,2.2-0.5,2.7c-0.4,0.7-1.1,1-2.1,1C133.9,68,133.4,67.9,133,67.8z M135.2,51.5v-2h1.8v2H135.2z"/>
			<path id="XMLID_701_" class="st2" d="M146.8,60.4l1.8,0.2c-0.3,1.1-0.8,1.9-1.6,2.5s-1.8,0.9-3,0.9c-1.5,0-2.7-0.5-3.6-1.4
				s-1.3-2.2-1.3-3.9c0-1.7,0.4-3.1,1.3-4.1s2.1-1.4,3.5-1.4c1.4,0,2.5,0.5,3.4,1.4s1.3,2.3,1.3,4c0,0.1,0,0.3,0,0.5h-7.7
				c0.1,1.1,0.4,2,1,2.6s1.3,0.9,2.2,0.9c0.6,0,1.2-0.2,1.7-0.5S146.5,61.2,146.8,60.4z M141,57.6h5.8c-0.1-0.9-0.3-1.5-0.7-2
				c-0.6-0.7-1.3-1-2.2-1c-0.8,0-1.5,0.3-2,0.8S141.1,56.7,141,57.6z"/>
			<path id="XMLID_699_" class="st2" d="M154.6,62.2l0.3,1.6c-0.5,0.1-0.9,0.2-1.3,0.2c-0.6,0-1.1-0.1-1.5-0.3s-0.6-0.5-0.7-0.8
				s-0.2-1-0.2-2.1v-6h-1.3v-1.4h1.3v-2.6l1.7-1.1v3.6h1.8v1.4h-1.8v6.1c0,0.5,0,0.8,0.1,1s0.2,0.3,0.3,0.3s0.3,0.1,0.6,0.1
				C154.1,62.3,154.3,62.3,154.6,62.2z"/>
			<path id="XMLID_696_" class="st2" d="M156.4,51.5v-2h1.8v2H156.4z M156.4,63.8V53.4h1.8v10.4H156.4z"/>
			<path id="XMLID_694_" class="st2" d="M163.7,63.8l-3.9-10.4h1.9l2.2,6.2c0.2,0.7,0.5,1.4,0.7,2.1c0.2-0.5,0.4-1.2,0.7-2l2.3-6.3
				h1.8l-3.9,10.4H163.7z"/>
			<path id="XMLID_691_" class="st2" d="M170.2,58.6c0-1.9,0.5-3.3,1.6-4.3c0.9-0.8,2-1.2,3.3-1.2c1.4,0,2.6,0.5,3.5,1.4
				s1.4,2.2,1.4,3.9c0,1.3-0.2,2.4-0.6,3.1s-1,1.4-1.7,1.8S175.9,64,175,64c-1.5,0-2.6-0.5-3.5-1.4S170.2,60.4,170.2,58.6z
				 M172,58.6c0,1.3,0.3,2.3,0.9,3s1.3,1,2.2,1c0.9,0,1.6-0.3,2.2-1s0.9-1.7,0.9-3c0-1.3-0.3-2.3-0.9-2.9s-1.3-1-2.2-1
				c-0.9,0-1.6,0.3-2.2,1S172,57.3,172,58.6z"/>
			<path id="XMLID_689_" class="st2" d="M181.2,60.7l1.7-0.3c0.1,0.7,0.4,1.2,0.8,1.6s1.1,0.6,1.9,0.6c0.8,0,1.4-0.2,1.8-0.5
				s0.6-0.7,0.6-1.2c0-0.4-0.2-0.7-0.5-0.9c-0.2-0.2-0.8-0.4-1.8-0.6c-1.3-0.3-2.2-0.6-2.7-0.8s-0.9-0.6-1.1-1s-0.4-0.9-0.4-1.4
				c0-0.5,0.1-0.9,0.3-1.3s0.5-0.7,0.9-1c0.3-0.2,0.6-0.4,1.1-0.5s1-0.2,1.5-0.2c0.8,0,1.5,0.1,2.1,0.4s1.1,0.6,1.4,1
				s0.5,0.9,0.6,1.6l-1.7,0.2c-0.1-0.5-0.3-1-0.7-1.3s-0.9-0.4-1.6-0.4c-0.8,0-1.4,0.1-1.7,0.4s-0.5,0.6-0.5,0.9
				c0,0.2,0.1,0.4,0.2,0.6c0.1,0.2,0.4,0.3,0.7,0.5c0.2,0.1,0.7,0.2,1.6,0.4c1.2,0.3,2.1,0.6,2.6,0.8s0.9,0.5,1.2,0.9
				s0.4,0.9,0.4,1.5c0,0.6-0.2,1.1-0.5,1.7s-0.8,0.9-1.5,1.2s-1.4,0.4-2.2,0.4c-1.3,0-2.4-0.3-3.1-0.8S181.4,61.8,181.2,60.7z"/>
		</g>
	</g>
	<g id="XMLID_135604_">
		<g id="XMLID_135877_">
			<defs>
				<rect id="XMLID_135878_" x="273" y="19.4" width="41.2" height="47.1"/>
			</defs>
			<clipPath id="XMLID_186_">
				<use xlink:href="#XMLID_135878_"  style="overflow:visible;"/>
			</clipPath>
			<path id="XMLID_135886_" class="st3" d="M297,47.1c-4.1,2.4-9.6,1.9-13.1-1.7c-4.2-4.2-4.2-11.1,0-15.3c4.2-4.2,11.1-4.2,15.3,0
				c4.1,4.1,4.2,10.6,0.5,14.8c0.4,0.9,1.1,2.2,2.3,2.8c0.4,0.2,0.3,0.7-0.1,0.8C300.5,48.7,298.6,48.4,297,47.1L297,47.1z
				 M297,47.1"/>
			<path id="XMLID_135880_" class="st4" d="M291.5,19.4c-10.2,0-18.5,8.3-18.5,18.5c0,5,2.1,9.9,5.7,13.4v14.2
				c0,0.5,0.4,0.9,0.9,0.9h20.9c0.5,0,0.9-0.4,0.9-0.9l0-4.1l4.1,0.6c0,0,0.1,0,0.1,0c2.5,0,4.6-2.1,4.6-4.6v-5.7h0.8
				c1.2,0,2.3-0.5,2.8-1.3c0.5-0.9,0.5-2-0.1-3.1l-3.5-6.7V38c0-7.2-4.2-13.8-10.7-16.8C297,20,294.3,19.4,291.5,19.4L291.5,19.4z
				 M280.2,50.4c-3.5-3.2-5.4-7.7-5.4-12.4c0-9.3,7.5-16.8,16.8-16.8c2.5,0,4.9,0.5,7.2,1.6c5.9,2.7,9.7,8.7,9.7,15.2v2.9
				c0,0.1,0,0.3,0.1,0.4l3.6,6.9c0.3,0.5,0.3,1,0.1,1.4c-0.2,0.3-0.7,0.5-1.3,0.5h-1.7c-0.5,0-0.9,0.4-0.9,0.9v6.5
				c0,1.5-1.2,2.8-2.8,2.8l-5-0.7c-0.2,0-0.5,0-0.7,0.2c-0.2,0.2-0.3,0.4-0.3,0.7l0,4.3h-19.2V51C280.5,50.8,280.4,50.5,280.2,50.4
				L280.2,50.4z M280.2,50.4"/>
		</g>
		<path id="XMLID_135858_" d="M291.5,26.1c-3.1,0-6.1,1.2-8.3,3.4c-4.6,4.6-4.6,12,0,16.5c2.2,2.2,5.1,3.4,8.3,3.4
			c1.9,0,3.8-0.5,5.4-1.3c1.3,0.8,2.7,1.3,4.1,1.3c0.3,0,0.6,0,0.8-0.1c0.6-0.1,1-0.5,1.1-1.1c0.1-0.6-0.2-1.1-0.7-1.4
			c-0.6-0.3-1.2-0.9-1.6-1.9c3.7-4.6,3.4-11.3-0.9-15.6C297.6,27.3,294.6,26.1,291.5,26.1L291.5,26.1z M284.5,44.8
			c-3.9-3.9-3.9-10.2,0-14.1c1.9-1.9,4.4-2.9,7-2.9c2.6,0,5.1,1,7,2.9c3.7,3.7,3.9,9.7,0.4,13.6c-0.2,0.2-0.3,0.6-0.1,0.9
			c0.4,1,0.9,1.8,1.5,2.3c-0.7-0.1-1.8-0.4-2.8-1.2c-0.2-0.1-0.3-0.2-0.5-0.2c-0.2,0-0.3,0-0.4,0.1c-1.5,0.9-3.3,1.4-5,1.4
			C288.9,47.7,286.4,46.7,284.5,44.8L284.5,44.8z M284.5,44.8"/>
		<path id="XMLID_135702_" d="M291.5,36.9c-0.2,0-0.5,0.1-0.6,0.3c-0.2,0.2-0.2,0.4-0.2,0.6c0,0.2,0.1,0.5,0.2,0.6
			c0.2,0.2,0.4,0.3,0.6,0.3c0.2,0,0.5-0.1,0.6-0.3c0.2-0.2,0.2-0.4,0.2-0.6c0-0.2-0.1-0.5-0.2-0.6C292,37,291.7,36.9,291.5,36.9
			L291.5,36.9z M291.5,36.9"/>
		<path id="XMLID_135699_" d="M288.3,36.9c-0.2,0-0.5,0.1-0.6,0.3c-0.2,0.2-0.2,0.4-0.2,0.6c0,0.2,0.1,0.5,0.2,0.6
			c0.2,0.2,0.4,0.3,0.6,0.3c0.2,0,0.5-0.1,0.6-0.3c0.2-0.2,0.2-0.4,0.2-0.6c0-0.2-0.1-0.5-0.2-0.6C288.7,37,288.5,36.9,288.3,36.9
			L288.3,36.9z M288.3,36.9"/>
		<path id="XMLID_135605_" d="M294.8,36.9c-0.2,0-0.5,0.1-0.6,0.3c-0.2,0.2-0.2,0.4-0.2,0.6c0,0.2,0.1,0.5,0.2,0.6
			c0.2,0.2,0.4,0.3,0.6,0.3c0.2,0,0.5-0.1,0.6-0.3c0.2-0.2,0.2-0.4,0.2-0.6c0-0.2-0.1-0.5-0.2-0.6C295.2,37,295,36.9,294.8,36.9
			L294.8,36.9z M294.8,36.9"/>
	</g>
</g>
</svg>
