<?xml version="1.0" encoding="utf-8"?>
<!-- Generator: Adobe Illustrator 19.0.0, SVG Export Plug-In . SVG Version: 6.00 Build 0)  -->
<svg version="1.1" id="Capa_1" xmlns="http://www.w3.org/2000/svg" xmlns:xlink="http://www.w3.org/1999/xlink" x="0px" y="0px"
	 viewBox="-129 377.9 336.4 87" style="enable-background:new -129 377.9 336.4 87;" xml:space="preserve">
<style type="text/css">
	.st0{fill:#348EA9;}
	.st1{fill:#308396;}
	.st2{fill:#FFFFFF;}
	.st3{clip-path:url(#SVGID_2_);fill:#348EA9;}
	.st4{clip-path:url(#SVGID_4_);}
</style>
<g id="XMLID_13_">
	<rect id="XMLID_135861_" x="-129" y="378.3" class="st0" width="292.9" height="86.2"/>
	<circle id="XMLID_135848_" class="st1" cx="163.9" cy="421.4" r="43.5"/>
	<circle id="XMLID_135847_" class="st2" cx="163.9" cy="421.4" r="34.8"/>
	<g id="XMLID_1_">
		<g id="XMLID_688_">
			<path id="XMLID_765_" class="st2" d="M-72.7,417.7v-14.3h1.9v14.3H-72.7z"/>
			<path id="XMLID_762_" class="st2" d="M-61,417.7v-1.3c-0.7,1-1.6,1.5-2.9,1.5c-0.8,0-1.6-0.2-2.3-0.7c-0.7-0.5-1.2-1.1-1.6-1.9
				c-0.4-0.8-0.6-1.8-0.6-2.8s0.2-2,0.5-2.8c0.3-0.8,0.9-1.5,1.6-1.9s1.5-0.7,2.3-0.7c0.6,0,1.2,0.1,1.7,0.4c0.5,0.3,0.9,0.6,1.2,1
				v-5.1h1.7v14.3H-61z M-66.5,412.5c0,1.3,0.3,2.3,0.8,3c0.5,0.7,1.2,1,2,1s1.4-0.3,2-0.9s0.8-1.6,0.8-2.9c0-1.4-0.3-2.5-0.8-3.1
				s-1.2-1-2-1s-1.4,0.3-2,1S-66.5,411.1-66.5,412.5z"/>
			<path id="XMLID_759_" class="st2" d="M-49.5,414.3l1.8,0.2c-0.3,1.1-0.8,1.9-1.6,2.5c-0.8,0.6-1.7,0.9-2.9,0.9
				c-1.5,0-2.7-0.5-3.6-1.4c-0.9-0.9-1.3-2.2-1.3-3.9s0.4-3.1,1.3-4.1s2.1-1.4,3.5-1.4s2.5,0.5,3.4,1.4s1.3,2.3,1.3,4
				c0,0.1,0,0.3,0,0.5h-7.7c0.1,1.1,0.4,2,1,2.6s1.3,0.9,2.2,0.9c0.6,0,1.2-0.2,1.7-0.5C-49.9,415.7-49.7,415.1-49.5,414.3z
				 M-55.2,411.5h5.8c-0.1-0.9-0.3-1.5-0.7-2c-0.6-0.7-1.3-1-2.2-1c-0.8,0-1.5,0.3-2,0.8S-55.2,410.6-55.2,411.5z"/>
			<path id="XMLID_757_" class="st2" d="M-45.4,417.7v-10.4h1.6v1.5c0.8-1.1,1.9-1.7,3.3-1.7c0.6,0,1.2,0.1,1.7,0.3
				c0.5,0.2,0.9,0.5,1.2,0.9c0.3,0.4,0.4,0.8,0.5,1.3c0.1,0.3,0.1,0.9,0.1,1.7v6.4h-1.8v-6.3c0-0.7-0.1-1.3-0.2-1.6
				c-0.1-0.3-0.4-0.6-0.7-0.8c-0.3-0.2-0.8-0.3-1.2-0.3c-0.7,0-1.4,0.2-1.9,0.7s-0.8,1.4-0.8,2.7v5.7h-1.8V417.7z"/>
			<path id="XMLID_755_" class="st2" d="M-30.5,416.1l0.3,1.6c-0.5,0.1-0.9,0.2-1.3,0.2c-0.6,0-1.1-0.1-1.5-0.3
				c-0.4-0.2-0.6-0.5-0.7-0.8c-0.1-0.3-0.2-1-0.2-2.1v-6h-1.3v-1.4h1.2v-2.6l1.7-1.1v3.6h1.8v1.4h-1.8v6.1c0,0.5,0,0.8,0.1,1
				s0.2,0.3,0.3,0.3s0.3,0.1,0.6,0.1C-31.1,416.2-30.8,416.2-30.5,416.1z"/>
			<path id="XMLID_752_" class="st2" d="M-28.8,405.4v-2h1.8v2H-28.8z M-28.8,417.7v-10.4h1.8v10.4H-28.8z"/>
			<path id="XMLID_750_" class="st2" d="M-23.9,417.7v-9h-1.6v-1.4h1.6v-1.1c0-0.7,0.1-1.2,0.2-1.6c0.2-0.5,0.5-0.8,0.9-1.1
				c0.4-0.3,1-0.4,1.8-0.4c0.5,0,1,0.1,1.6,0.2l-0.3,1.5c-0.4-0.1-0.7-0.1-1-0.1c-0.5,0-0.9,0.1-1.1,0.3c-0.2,0.2-0.3,0.7-0.3,1.3v1
				h2v1.4h-2v9C-22.1,417.7-23.9,417.7-23.9,417.7z"/>
			<path id="XMLID_747_" class="st2" d="M-18.8,405.4v-2h1.8v2H-18.8z M-18.8,417.7v-10.4h1.8v10.4H-18.8z"/>
			<path id="XMLID_745_" class="st2" d="M-7.6,413.9l1.7,0.2c-0.2,1.2-0.7,2.1-1.5,2.8c-0.8,0.7-1.7,1-2.9,1c-1.4,0-2.6-0.5-3.4-1.4
				c-0.8-0.9-1.3-2.3-1.3-4c0-1.1,0.2-2.1,0.6-2.9c0.4-0.8,0.9-1.5,1.7-1.9s1.6-0.6,2.5-0.6c1.1,0,2,0.3,2.8,0.9s1.2,1.4,1.4,2.4
				l-1.7,0.3c-0.2-0.7-0.5-1.2-0.9-1.6s-0.9-0.5-1.5-0.5c-0.9,0-1.6,0.3-2.2,1s-0.8,1.6-0.8,3s0.3,2.4,0.8,3s1.2,0.9,2.1,0.9
				c0.7,0,1.3-0.2,1.7-0.6C-8.1,415.5-7.7,414.8-7.6,413.9z"/>
			<path id="XMLID_742_" class="st2" d="M2.4,416.4c-0.7,0.6-1.3,0.9-1.9,1.2c-0.6,0.3-1.2,0.3-1.9,0.3c-1.1,0-2-0.3-2.6-0.8
				s-0.9-1.3-0.9-2.1c0-0.5,0.1-1,0.3-1.4s0.5-0.8,0.9-1c0.4-0.2,0.8-0.4,1.3-0.6c0.3-0.1,0.9-0.2,1.6-0.3c1.4-0.2,2.5-0.4,3.1-0.6
				c0-0.2,0-0.4,0-0.5c0-0.7-0.2-1.2-0.5-1.5c-0.4-0.4-1.1-0.6-2-0.6c-0.8,0-1.4,0.1-1.8,0.4c-0.4,0.3-0.7,0.8-0.9,1.5l-1.7-0.2
				c0.2-0.7,0.4-1.3,0.8-1.8s0.9-0.8,1.6-1c0.7-0.2,1.5-0.4,2.4-0.4s1.6,0.1,2.2,0.3c0.6,0.2,1,0.5,1.2,0.8c0.2,0.3,0.4,0.7,0.5,1.2
				c0.1,0.3,0.1,0.8,0.1,1.6v2.3c0,1.6,0,2.7,0.1,3.1s0.2,0.8,0.4,1.2H2.9C2.6,417.3,2.5,416.9,2.4,416.4z M2.3,412.5
				c-0.6,0.3-1.6,0.5-2.9,0.7c-0.7,0.1-1.2,0.2-1.5,0.4c-0.3,0.2-0.5,0.3-0.7,0.6s-0.2,0.4-0.2,0.7c0,0.5,0.2,0.9,0.5,1.2
				c0.3,0.3,0.9,0.5,1.6,0.5c0.7,0,1.3-0.1,1.8-0.4c0.5-0.3,0.9-0.7,1.2-1.2c0.2-0.4,0.3-1,0.3-1.8v-0.7H2.3z"/>
			<path id="XMLID_740_" class="st2" d="M6.8,417.7v-10.4h1.6v1.6c0.4-0.7,0.8-1.2,1.1-1.5c0.3-0.3,0.7-0.4,1.1-0.4
				c0.6,0,1.2,0.2,1.8,0.6l-0.6,1.6c-0.4-0.3-0.9-0.4-1.3-0.4c-0.4,0-0.7,0.1-1,0.3c-0.3,0.2-0.5,0.6-0.7,1
				c-0.2,0.6-0.3,1.3-0.3,2.1v5.4H6.8V417.7z"/>
			<path id="XMLID_738_" class="st2" d="M18.9,421.7l-0.2-1.7c0.4,0.1,0.7,0.2,1,0.2c0.4,0,0.7-0.1,0.9-0.2s0.4-0.3,0.6-0.5
				c0.1-0.2,0.3-0.6,0.5-1.3c0-0.1,0.1-0.2,0.2-0.4L18,407.3h1.9l2.2,6c0.3,0.8,0.5,1.6,0.8,2.4c0.2-0.8,0.4-1.6,0.7-2.4l2.2-6h1.8
				l-4,10.6c-0.4,1.1-0.8,1.9-1,2.4c-0.3,0.6-0.7,1-1.1,1.3c-0.4,0.3-0.9,0.4-1.4,0.4C19.7,421.9,19.4,421.8,18.9,421.7z"/>
			<path id="XMLID_735_" class="st2" d="M41.3,417.7v-1.3c-0.7,1-1.6,1.5-2.9,1.5c-0.8,0-1.6-0.2-2.3-0.7s-1.2-1.1-1.6-1.9
				c-0.4-0.8-0.6-1.8-0.6-2.8s0.2-2,0.5-2.8s0.9-1.5,1.6-1.9s1.5-0.7,2.3-0.7c0.6,0,1.2,0.1,1.7,0.4c0.5,0.3,0.9,0.6,1.2,1v-5.1h1.7
				v14.3H41.3z M35.8,412.5c0,1.3,0.3,2.3,0.8,3c0.5,0.7,1.2,1,2,1s1.4-0.3,2-0.9s0.8-1.6,0.8-2.9c0-1.4-0.3-2.5-0.8-3.1s-1.2-1-2-1
				s-1.4,0.3-2,1S35.8,411.1,35.8,412.5z"/>
			<path id="XMLID_732_" class="st2" d="M52.8,414.3l1.8,0.2c-0.3,1.1-0.8,1.9-1.6,2.5c-0.8,0.6-1.8,0.9-3,0.9
				c-1.5,0-2.7-0.5-3.6-1.4c-0.9-0.9-1.3-2.2-1.3-3.9c0-1.7,0.4-3.1,1.3-4.1s2.1-1.4,3.5-1.4s2.5,0.5,3.4,1.4c0.9,0.9,1.3,2.3,1.3,4
				c0,0.1,0,0.3,0,0.5h-7.7c0.1,1.1,0.4,2,1,2.6s1.3,0.9,2.2,0.9c0.6,0,1.2-0.2,1.7-0.5C52.3,415.7,52.5,415.1,52.8,414.3z
				 M47,411.5h5.8c-0.1-0.9-0.3-1.5-0.7-2c-0.6-0.7-1.3-1-2.2-1c-0.8,0-1.5,0.3-2,0.8S47.1,410.6,47,411.5z"/>
			<path id="XMLID_730_" class="st2" d="M57.2,417.7v-9h-1.6v-1.4h1.6v-1.1c0-0.7,0.1-1.2,0.2-1.6c0.2-0.5,0.5-0.8,0.9-1.1
				c0.4-0.3,1-0.4,1.8-0.4c0.5,0,1,0.1,1.6,0.2l-0.3,1.5c-0.4-0.1-0.7-0.1-1-0.1c-0.5,0-0.9,0.1-1.1,0.3c-0.2,0.2-0.3,0.7-0.3,1.3v1
				h2v1.4h-2v9C59,417.7,57.2,417.7,57.2,417.7z"/>
			<path id="XMLID_727_" class="st2" d="M62.4,405.4v-2h1.8v2H62.4z M62.4,417.7v-10.4h1.8v10.4H62.4z"/>
			<path id="XMLID_725_" class="st2" d="M66.8,417.7v-10.4h1.6v1.5c0.8-1.1,1.9-1.7,3.3-1.7c0.6,0,1.2,0.1,1.7,0.3
				c0.5,0.2,0.9,0.5,1.2,0.9c0.3,0.4,0.4,0.8,0.5,1.3c0.1,0.3,0.1,0.9,0.1,1.7v6.4h-1.8v-6.3c0-0.7-0.1-1.3-0.2-1.6
				c-0.1-0.3-0.4-0.6-0.7-0.8c-0.3-0.2-0.8-0.3-1.2-0.3c-0.7,0-1.4,0.2-1.9,0.7s-0.8,1.4-0.8,2.7v5.7h-1.8V417.7z"/>
			<path id="XMLID_722_" class="st2" d="M78,405.4v-2h1.8v2H78z M78,417.7v-10.4h1.8v10.4H78z"/>
			<path id="XMLID_720_" class="st2" d="M82.4,417.7v-10.4H84v1.6c0.4-0.7,0.8-1.2,1.1-1.5c0.3-0.3,0.7-0.4,1.1-0.4
				c0.6,0,1.2,0.2,1.8,0.6l-0.6,1.6c-0.4-0.3-0.9-0.4-1.3-0.4c-0.4,0-0.7,0.1-1,0.3c-0.3,0.2-0.5,0.6-0.7,1
				c-0.2,0.6-0.3,1.3-0.3,2.1v5.4h-1.7V417.7z"/>
			<path id="XMLID_718_" class="st2" d="M-47.2,441.7v-14.3h1.8v14.3H-47.2z"/>
			<path id="XMLID_715_" class="st2" d="M-43.3,436.5c0-1.9,0.5-3.3,1.6-4.3c0.9-0.8,2-1.2,3.3-1.2c1.4,0,2.6,0.5,3.5,1.4
				c0.9,0.9,1.4,2.2,1.4,3.9c0,1.3-0.2,2.4-0.6,3.1c-0.4,0.7-1,1.4-1.7,1.8s-1.8,0.7-2.7,0.7c-1.5,0-2.6-0.5-3.5-1.4
				C-42.9,439.6-43.3,438.3-43.3,436.5z M-41.5,436.5c0,1.3,0.3,2.3,0.9,3c0.6,0.7,1.3,1,2.2,1c0.9,0,1.6-0.3,2.2-1
				c0.6-0.7,0.9-1.7,0.9-3c0-1.3-0.3-2.3-0.9-2.9s-1.3-1-2.2-1c-0.9,0-1.6,0.3-2.2,1S-41.5,435.2-41.5,436.5z"/>
			<path id="XMLID_713_" class="st2" d="M-32.3,438.6l1.7-0.3c0.1,0.7,0.4,1.2,0.8,1.6c0.4,0.4,1.1,0.6,1.9,0.6s1.4-0.2,1.8-0.5
				c0.4-0.3,0.6-0.7,0.6-1.2c0-0.4-0.2-0.7-0.5-0.9c-0.2-0.2-0.8-0.4-1.8-0.6c-1.3-0.3-2.2-0.6-2.7-0.8c-0.5-0.2-0.9-0.6-1.1-1
				c-0.2-0.4-0.4-0.9-0.4-1.4s0.1-0.9,0.3-1.3s0.5-0.7,0.9-1c0.3-0.2,0.6-0.4,1.1-0.5s1-0.2,1.5-0.2c0.8,0,1.5,0.1,2.1,0.4
				c0.6,0.3,1.1,0.6,1.4,1c0.3,0.4,0.5,0.9,0.6,1.6l-1.7,0.2c-0.1-0.5-0.3-1-0.7-1.3c-0.4-0.3-0.9-0.4-1.6-0.4
				c-0.8,0-1.4,0.1-1.7,0.4c-0.3,0.3-0.5,0.6-0.5,0.9c0,0.2,0.1,0.4,0.2,0.6c0.1,0.2,0.4,0.3,0.7,0.5c0.2,0.1,0.7,0.2,1.6,0.4
				c1.2,0.3,2.1,0.6,2.6,0.8s0.9,0.5,1.2,0.9c0.3,0.4,0.4,0.9,0.4,1.5c0,0.6-0.2,1.1-0.5,1.7s-0.8,0.9-1.5,1.2
				c-0.7,0.3-1.4,0.4-2.2,0.4c-1.3,0-2.4-0.3-3.1-0.8S-32.1,439.7-32.3,438.6z"/>
			<path id="XMLID_710_" class="st2" d="M-16.7,436.5c0-1.9,0.5-3.3,1.6-4.3c0.9-0.8,2-1.2,3.3-1.2c1.4,0,2.6,0.5,3.5,1.4
				c0.9,0.9,1.4,2.2,1.4,3.9c0,1.3-0.2,2.4-0.6,3.1c-0.4,0.7-1,1.4-1.7,1.8s-1.6,0.6-2.5,0.6c-1.5,0-2.6-0.5-3.5-1.4
				C-16.1,439.5-16.7,438.3-16.7,436.5z M-14.9,436.5c0,1.3,0.3,2.3,0.9,3c0.6,0.7,1.3,1,2.2,1c0.9,0,1.6-0.3,2.2-1
				c0.6-0.7,0.9-1.7,0.9-3c0-1.3-0.3-2.3-0.9-2.9s-1.3-1-2.2-1c-0.9,0-1.6,0.3-2.2,1S-14.9,435.2-14.9,436.5z"/>
			<path id="XMLID_707_" class="st2" d="M-3.3,441.7h-1.6v-14.3h1.8v5.1c0.7-0.9,1.7-1.4,2.8-1.4c0.6,0,1.2,0.1,1.8,0.4
				c0.6,0.3,1,0.6,1.4,1.1s0.7,1,0.9,1.7c0.2,0.7,0.3,1.4,0.3,2.1c0,1.8-0.4,3.2-1.3,4.1S0.9,442-0.4,442c-1.2,0-2.2-0.5-2.9-1.5
				C-3.3,440.5-3.3,441.7-3.3,441.7z M-3.3,436.4c0,1.2,0.2,2.1,0.5,2.7c0.6,0.9,1.3,1.4,2.2,1.4c0.8,0,1.4-0.3,2-1
				c0.6-0.7,0.8-1.7,0.8-3c0-1.4-0.3-2.4-0.8-3c-0.5-0.6-1.2-1-1.9-1c-0.8,0-1.4,0.3-2,1C-3.1,434.2-3.3,435.2-3.3,436.4z"/>
			<path id="XMLID_704_" class="st2" d="M4,445.7l0.3-1.5c0.4,0.1,0.6,0.1,0.8,0.1c0.4,0,0.6-0.1,0.8-0.4c0.2-0.3,0.3-0.8,0.3-1.8
				v-10.8H8v10.9c0,1.3-0.2,2.2-0.5,2.7c-0.4,0.7-1.1,1-2.1,1C4.9,445.9,4.4,445.8,4,445.7z M6.2,429.4v-2H8v2H6.2z"/>
			<path id="XMLID_701_" class="st2" d="M17.8,438.3l1.8,0.2c-0.3,1.1-0.8,1.9-1.6,2.5c-0.8,0.6-1.8,0.9-3,0.9
				c-1.5,0-2.7-0.5-3.6-1.4c-0.9-0.9-1.3-2.2-1.3-3.9s0.4-3.1,1.3-4.1s2.1-1.4,3.5-1.4s2.5,0.5,3.4,1.4c0.9,0.9,1.3,2.3,1.3,4
				c0,0.1,0,0.3,0,0.5h-7.7c0.1,1.1,0.4,2,1,2.6s1.3,0.9,2.2,0.9c0.6,0,1.2-0.2,1.7-0.5C17.3,439.7,17.5,439.1,17.8,438.3z
				 M12,435.5h5.8c-0.1-0.9-0.3-1.5-0.7-2c-0.6-0.7-1.3-1-2.2-1c-0.8,0-1.5,0.3-2,0.8S12.1,434.6,12,435.5z"/>
			<path id="XMLID_699_" class="st2" d="M25.6,440.1l0.3,1.6c-0.5,0.1-0.9,0.2-1.3,0.2c-0.6,0-1.1-0.1-1.5-0.3
				c-0.4-0.2-0.6-0.5-0.7-0.8c-0.1-0.3-0.2-1-0.2-2.1v-6h-1.3v-1.4h1.3v-2.6l1.7-1.1v3.6h1.8v1.4h-1.8v6.1c0,0.5,0,0.8,0.1,1
				s0.2,0.3,0.3,0.3s0.3,0.1,0.6,0.1C25.1,440.2,25.3,440.2,25.6,440.1z"/>
			<path id="XMLID_696_" class="st2" d="M27.4,429.4v-2h1.8v2H27.4z M27.4,441.7v-10.4h1.8v10.4C29.2,441.7,27.4,441.7,27.4,441.7z"
				/>
			<path id="XMLID_694_" class="st2" d="M34.7,441.7l-3.9-10.4h1.9l2.2,6.2c0.2,0.7,0.5,1.4,0.7,2.1c0.2-0.5,0.4-1.2,0.7-2l2.3-6.3
				h1.8l-3.9,10.4C36.5,441.7,34.7,441.7,34.7,441.7z"/>
			<path id="XMLID_691_" class="st2" d="M41.2,436.5c0-1.9,0.5-3.3,1.6-4.3c0.9-0.8,2-1.2,3.3-1.2c1.4,0,2.6,0.5,3.5,1.4
				c0.9,0.9,1.4,2.2,1.4,3.9c0,1.3-0.2,2.4-0.6,3.1c-0.4,0.7-1,1.4-1.7,1.8s-1.8,0.7-2.7,0.7c-1.5,0-2.6-0.5-3.5-1.4
				C41.6,439.6,41.2,438.3,41.2,436.5z M43,436.5c0,1.3,0.3,2.3,0.9,3c0.6,0.7,1.3,1,2.2,1s1.6-0.3,2.2-1c0.6-0.7,0.9-1.7,0.9-3
				c0-1.3-0.3-2.3-0.9-2.9s-1.3-1-2.2-1s-1.6,0.3-2.2,1S43,435.2,43,436.5z"/>
			<path id="XMLID_689_" class="st2" d="M52.2,438.6l1.7-0.3c0.1,0.7,0.4,1.2,0.8,1.6c0.4,0.4,1.1,0.6,1.9,0.6
				c0.8,0,1.4-0.2,1.8-0.5c0.4-0.3,0.6-0.7,0.6-1.2c0-0.4-0.2-0.7-0.5-0.9c-0.2-0.2-0.8-0.4-1.8-0.6c-1.3-0.3-2.2-0.6-2.7-0.8
				c-0.5-0.2-0.9-0.6-1.1-1c-0.2-0.4-0.4-0.9-0.4-1.4s0.1-0.9,0.3-1.3s0.5-0.7,0.9-1c0.3-0.2,0.6-0.4,1.1-0.5c0.5-0.1,1-0.2,1.5-0.2
				c0.8,0,1.5,0.1,2.1,0.4c0.6,0.3,1.1,0.6,1.4,1c0.3,0.4,0.5,0.9,0.6,1.6l-1.7,0.2c-0.1-0.5-0.3-1-0.7-1.3
				c-0.4-0.3-0.9-0.4-1.6-0.4c-0.8,0-1.4,0.1-1.7,0.4c-0.3,0.3-0.5,0.6-0.5,0.9c0,0.2,0.1,0.4,0.2,0.6c0.1,0.2,0.4,0.3,0.7,0.5
				c0.2,0.1,0.7,0.2,1.6,0.4c1.2,0.3,2.1,0.6,2.6,0.8s0.9,0.5,1.2,0.9s0.4,0.9,0.4,1.5s-0.2,1.1-0.5,1.7s-0.8,0.9-1.5,1.2
				c-0.7,0.3-1.4,0.4-2.2,0.4c-1.3,0-2.4-0.3-3.1-0.8S52.4,439.7,52.2,438.6z"/>
		</g>
	</g>
	<g id="XMLID_135604_">
		<g id="XMLID_135877_">
			<g>
				<defs>
					<rect id="SVGID_1_" x="144" y="397.3" width="41.2" height="47.1"/>
				</defs>
				<clipPath id="SVGID_2_">
					<use xlink:href="#SVGID_1_"  style="overflow:visible;"/>
				</clipPath>
				<path id="XMLID_135886_" class="st3" d="M168,425c-4.1,2.4-9.6,1.9-13.1-1.7c-4.2-4.2-4.2-11.1,0-15.3c4.2-4.2,11.1-4.2,15.3,0
					c4.1,4.1,4.2,10.6,0.5,14.8c0.4,0.9,1.1,2.2,2.3,2.8c0.4,0.2,0.3,0.7-0.1,0.8C171.5,426.6,169.6,426.3,168,425L168,425z"/>
			</g>
			<g>
				<defs>
					<rect id="SVGID_3_" x="144" y="397.3" width="41.2" height="47.1"/>
				</defs>
				<clipPath id="SVGID_4_">
					<use xlink:href="#SVGID_3_"  style="overflow:visible;"/>
				</clipPath>
				<path id="XMLID_135880_" class="st4" d="M162.5,397.3c-10.2,0-18.5,8.3-18.5,18.5c0,5,2.1,9.9,5.7,13.4v14.2
					c0,0.5,0.4,0.9,0.9,0.9h20.9c0.5,0,0.9-0.4,0.9-0.9v-4.1l4.1,0.6h0.1c2.5,0,4.6-2.1,4.6-4.6v-5.7h0.8c1.2,0,2.3-0.5,2.8-1.3
					c0.5-0.9,0.5-2-0.1-3.1l-3.5-6.7v-2.6c0-7.2-4.2-13.8-10.7-16.8C168,397.9,165.3,397.3,162.5,397.3L162.5,397.3z M151.2,428.3
					c-3.5-3.2-5.4-7.7-5.4-12.4c0-9.3,7.5-16.8,16.8-16.8c2.5,0,4.9,0.5,7.2,1.6c5.9,2.7,9.7,8.7,9.7,15.2v2.9c0,0.1,0,0.3,0.1,0.4
					l3.6,6.9c0.3,0.5,0.3,1,0.1,1.4c-0.2,0.3-0.7,0.5-1.3,0.5h-1.7c-0.5,0-0.9,0.4-0.9,0.9v6.5c0,1.5-1.2,2.8-2.8,2.8l-5-0.7
					c-0.2,0-0.5,0-0.7,0.2c-0.2,0.2-0.3,0.4-0.3,0.7v4.3h-19.2v-13.8C151.5,428.7,151.4,428.4,151.2,428.3L151.2,428.3z"/>
			</g>
		</g>
		<path id="XMLID_135858_" d="M162.5,404c-3.1,0-6.1,1.2-8.3,3.4c-4.6,4.6-4.6,12,0,16.5c2.2,2.2,5.1,3.4,8.3,3.4
			c1.9,0,3.8-0.5,5.4-1.3c1.3,0.8,2.7,1.3,4.1,1.3c0.3,0,0.6,0,0.8-0.1c0.6-0.1,1-0.5,1.1-1.1c0.1-0.6-0.2-1.1-0.7-1.4
			c-0.6-0.3-1.2-0.9-1.6-1.9c3.7-4.6,3.4-11.3-0.9-15.6C168.6,405.2,165.6,404,162.5,404L162.5,404z M155.5,422.7
			c-3.9-3.9-3.9-10.2,0-14.1c1.9-1.9,4.4-2.9,7-2.9s5.1,1,7,2.9c3.7,3.7,3.9,9.7,0.4,13.6c-0.2,0.2-0.3,0.6-0.1,0.9
			c0.4,1,0.9,1.8,1.5,2.3c-0.7-0.1-1.8-0.4-2.8-1.2c-0.2-0.1-0.3-0.2-0.5-0.2s-0.3,0-0.4,0.1c-1.5,0.9-3.3,1.4-5,1.4
			C159.9,425.6,157.4,424.6,155.5,422.7L155.5,422.7z"/>
		<path id="XMLID_135702_" d="M162.5,414.8c-0.2,0-0.5,0.1-0.6,0.3c-0.2,0.2-0.2,0.4-0.2,0.6s0.1,0.5,0.2,0.6
			c0.2,0.2,0.4,0.3,0.6,0.3s0.5-0.1,0.6-0.3c0.2-0.2,0.2-0.4,0.2-0.6c0-0.2-0.1-0.5-0.2-0.6C163,414.9,162.7,414.8,162.5,414.8
			L162.5,414.8z"/>
		<path id="XMLID_135699_" d="M159.3,414.8c-0.2,0-0.5,0.1-0.6,0.3c-0.2,0.2-0.2,0.4-0.2,0.6s0.1,0.5,0.2,0.6
			c0.2,0.2,0.4,0.3,0.6,0.3s0.5-0.1,0.6-0.3c0.2-0.2,0.2-0.4,0.2-0.6c0-0.2-0.1-0.5-0.2-0.6C159.7,414.9,159.5,414.8,159.3,414.8
			L159.3,414.8z"/>
		<path id="XMLID_135605_" d="M165.8,414.8c-0.2,0-0.5,0.1-0.6,0.3c-0.2,0.2-0.2,0.4-0.2,0.6s0.1,0.5,0.2,0.6
			c0.2,0.2,0.4,0.3,0.6,0.3s0.5-0.1,0.6-0.3c0.2-0.2,0.2-0.4,0.2-0.6c0-0.2-0.1-0.5-0.2-0.6C166.2,414.9,166,414.8,165.8,414.8
			L165.8,414.8z"/>
	</g>
</g>
<polygon id="XMLID_243_" class="st2" points="-114.2,408.1 -91.2,421.4 -114.2,434.7 "/>
</svg>
