<?xml version="1.0" encoding="utf-8"?>
<!-- Generator: Adobe Illustrator 19.0.0, SVG Export Plug-In . SVG Version: 6.00 Build 0)  -->
<svg version="1.1" id="Capa_1" xmlns="http://www.w3.org/2000/svg" xmlns:xlink="http://www.w3.org/1999/xlink" x="0px" y="0px"
	 viewBox="0 0 336.4 87" style="enable-background:new 0 0 336.4 87;" xml:space="preserve">
<style type="text/css">
	.st0{fill:#E54A3F;}
	.st1{fill:#CC3E3B;}
	.st2{fill:#FFFFFF;}
	.st3{clip-path:url(#XMLID_185_);fill:#A7A9AC;}
	.st4{clip-path:url(#XMLID_185_);}
</style>
<g id="XMLID_13_">
	<rect id="XMLID_135860_" x="0" y="0.4" class="st0" width="292.9" height="86.2"/>
	<circle id="XMLID_135846_" class="st1" cx="292.9" cy="43.5" r="43.5"/>
	<circle id="XMLID_135845_" class="st2" cx="292.9" cy="43.5" r="34.8"/>
	<g id="XMLID_1_">
		<g id="XMLID_316_">
			<path id="XMLID_340_" class="st2" d="M92.3,51.3V37h10.4v1.7h-8.5v4.4h7.9v1.7h-7.9v4.9h8.8v1.7H92.3z"/>
			<path id="XMLID_338_" class="st2" d="M104.7,48.2l1.7-0.3c0.1,0.7,0.4,1.2,0.8,1.6s1.1,0.6,1.9,0.6c0.8,0,1.4-0.2,1.8-0.5
				s0.6-0.7,0.6-1.2c0-0.4-0.2-0.7-0.5-0.9c-0.2-0.2-0.8-0.4-1.8-0.6c-1.3-0.3-2.2-0.6-2.7-0.8s-0.9-0.6-1.1-1s-0.4-0.9-0.4-1.4
				c0-0.5,0.1-0.9,0.3-1.3s0.5-0.7,0.9-1c0.3-0.2,0.6-0.4,1.1-0.5s1-0.2,1.5-0.2c0.8,0,1.5,0.1,2.1,0.4s1.1,0.6,1.4,1
				s0.5,0.9,0.6,1.6l-1.7,0.2c-0.1-0.5-0.3-1-0.7-1.3s-0.9-0.4-1.6-0.4c-0.8,0-1.4,0.1-1.7,0.4s-0.5,0.6-0.5,0.9
				c0,0.2,0.1,0.4,0.2,0.6c0.1,0.2,0.4,0.3,0.7,0.5c0.2,0.1,0.7,0.2,1.6,0.4c1.2,0.3,2.1,0.6,2.6,0.8s0.9,0.5,1.2,0.9
				s0.4,0.9,0.4,1.5c0,0.6-0.2,1.1-0.5,1.7s-0.8,0.9-1.5,1.2s-1.4,0.4-2.2,0.4c-1.3,0-2.4-0.3-3.1-0.8S104.9,49.3,104.7,48.2z"/>
			<path id="XMLID_336_" class="st2" d="M119.2,49.8l0.3,1.6c-0.5,0.1-0.9,0.2-1.3,0.2c-0.6,0-1.1-0.1-1.5-0.3s-0.6-0.5-0.7-0.8
				s-0.2-1-0.2-2.1v-6h-1.3V41h1.3v-2.6l1.7-1.1V41h1.8v1.4h-1.8v6.1c0,0.5,0,0.8,0.1,1s0.2,0.3,0.3,0.3s0.3,0.1,0.6,0.1
				C118.6,49.8,118.9,49.8,119.2,49.8z"/>
			<path id="XMLID_334_" class="st2" d="M120.9,51.3V41h1.6v1.6c0.4-0.7,0.8-1.2,1.1-1.5s0.7-0.4,1.1-0.4c0.6,0,1.2,0.2,1.8,0.6
				l-0.6,1.6c-0.4-0.3-0.9-0.4-1.3-0.4c-0.4,0-0.7,0.1-1,0.3s-0.5,0.6-0.7,1c-0.2,0.6-0.3,1.3-0.3,2.1v5.4H120.9z"/>
			<path id="XMLID_331_" class="st2" d="M134.3,50c-0.7,0.6-1.3,0.9-1.9,1.2s-1.2,0.3-1.9,0.3c-1.1,0-2-0.3-2.6-0.8
				s-0.9-1.3-0.9-2.1c0-0.5,0.1-1,0.3-1.4s0.5-0.8,0.9-1s0.8-0.4,1.3-0.6c0.3-0.1,0.9-0.2,1.6-0.3c1.4-0.2,2.5-0.4,3.1-0.6
				c0-0.2,0-0.4,0-0.5c0-0.7-0.2-1.2-0.5-1.5c-0.4-0.4-1.1-0.6-2-0.6c-0.8,0-1.4,0.1-1.8,0.4s-0.7,0.8-0.9,1.5l-1.7-0.2
				c0.2-0.7,0.4-1.3,0.8-1.8s0.9-0.8,1.6-1s1.5-0.4,2.4-0.4c0.9,0,1.6,0.1,2.2,0.3s1,0.5,1.2,0.8s0.4,0.7,0.5,1.2
				c0.1,0.3,0.1,0.8,0.1,1.6V47c0,1.6,0,2.7,0.1,3.1s0.2,0.8,0.4,1.2h-1.8C134.5,51,134.4,50.5,134.3,50z M134.2,46.1
				c-0.6,0.3-1.6,0.5-2.9,0.7c-0.7,0.1-1.2,0.2-1.5,0.4s-0.5,0.3-0.7,0.6s-0.2,0.5-0.2,0.8c0,0.5,0.2,0.9,0.5,1.2s0.9,0.5,1.6,0.5
				c0.7,0,1.3-0.1,1.8-0.4s0.9-0.7,1.2-1.2c0.2-0.4,0.3-1,0.3-1.8V46.1z"/>
			<path id="XMLID_329_" class="st2" d="M142.5,49.8l0.3,1.6c-0.5,0.1-0.9,0.2-1.3,0.2c-0.6,0-1.1-0.1-1.5-0.3s-0.6-0.5-0.7-0.8
				s-0.2-1-0.2-2.1v-6h-1.3V41h1.3v-2.6l1.7-1.1V41h1.8v1.4h-1.8v6.1c0,0.5,0,0.8,0.1,1s0.2,0.3,0.3,0.3s0.3,0.1,0.6,0.1
				C142,49.8,142.2,49.8,142.5,49.8z"/>
			<path id="XMLID_326_" class="st2" d="M151.4,48l1.8,0.2c-0.3,1.1-0.8,1.9-1.6,2.5s-1.8,0.9-3,0.9c-1.5,0-2.7-0.5-3.6-1.4
				s-1.3-2.2-1.3-3.9c0-1.7,0.4-3.1,1.3-4.1s2.1-1.4,3.5-1.4c1.4,0,2.5,0.5,3.4,1.4s1.3,2.3,1.3,4c0,0.1,0,0.3,0,0.5h-7.7
				c0.1,1.1,0.4,2,1,2.6s1.3,0.9,2.2,0.9c0.6,0,1.2-0.2,1.7-0.5S151.1,48.7,151.4,48z M145.6,45.1h5.8c-0.1-0.9-0.3-1.5-0.7-2
				c-0.6-0.7-1.3-1-2.2-1c-0.8,0-1.5,0.3-2,0.8S145.6,44.2,145.6,45.1z"/>
			<path id="XMLID_323_" class="st2" d="M155.1,52.2l1.7,0.3c0.1,0.5,0.3,0.9,0.6,1.2c0.4,0.3,1,0.5,1.8,0.5c0.8,0,1.4-0.2,1.9-0.5
				s0.7-0.8,0.9-1.4c0.1-0.4,0.1-1.1,0.1-2.3c-0.8,0.9-1.7,1.4-2.9,1.4c-1.4,0-2.5-0.5-3.3-1.5s-1.2-2.3-1.2-3.7
				c0-1,0.2-1.9,0.5-2.7s0.9-1.5,1.6-1.9s1.5-0.7,2.4-0.7c1.2,0,2.2,0.5,3,1.5V41h1.6v9c0,1.6-0.2,2.8-0.5,3.4s-0.8,1.2-1.6,1.6
				s-1.6,0.6-2.6,0.6c-1.2,0-2.2-0.3-3-0.8S155,53.3,155.1,52.2z M156.5,46c0,1.4,0.3,2.4,0.8,3s1.2,0.9,2,0.9c0.8,0,1.5-0.3,2-0.9
				s0.8-1.6,0.8-2.9c0-1.3-0.3-2.2-0.8-2.9s-1.2-1-2-1c-0.8,0-1.4,0.3-2,1S156.5,44.7,156.5,46z"/>
			<path id="XMLID_320_" class="st2" d="M166.5,39v-2h1.8v2H166.5z M166.5,51.3V41h1.8v10.4H166.5z"/>
			<path id="XMLID_317_" class="st2" d="M177.7,50c-0.7,0.6-1.3,0.9-1.9,1.2s-1.2,0.3-1.9,0.3c-1.1,0-2-0.3-2.6-0.8
				s-0.9-1.3-0.9-2.1c0-0.5,0.1-1,0.3-1.4s0.5-0.8,0.9-1s0.8-0.4,1.3-0.6c0.3-0.1,0.9-0.2,1.6-0.3c1.4-0.2,2.5-0.4,3.1-0.6
				c0-0.2,0-0.4,0-0.5c0-0.7-0.2-1.2-0.5-1.5c-0.4-0.4-1.1-0.6-2-0.6c-0.8,0-1.4,0.1-1.8,0.4s-0.7,0.8-0.9,1.5l-1.7-0.2
				c0.2-0.7,0.4-1.3,0.8-1.8s0.9-0.8,1.6-1s1.5-0.4,2.4-0.4c0.9,0,1.6,0.1,2.2,0.3s1,0.5,1.2,0.8s0.4,0.7,0.5,1.2
				c0.1,0.3,0.1,0.8,0.1,1.6V47c0,1.6,0,2.7,0.1,3.1s0.2,0.8,0.4,1.2h-1.8C177.9,51,177.8,50.5,177.7,50z M177.6,46.1
				c-0.6,0.3-1.6,0.5-2.9,0.7c-0.7,0.1-1.2,0.2-1.5,0.4s-0.5,0.3-0.7,0.6s-0.2,0.5-0.2,0.8c0,0.5,0.2,0.9,0.5,1.2s0.9,0.5,1.6,0.5
				c0.7,0,1.3-0.1,1.8-0.4s0.9-0.7,1.2-1.2c0.2-0.4,0.3-1,0.3-1.8V46.1z"/>
		</g>
	</g>
	<g id="XMLID_136171_">
		<g id="XMLID_136173_">
			<defs>
				<rect id="XMLID_135810_" x="277.5" y="18.9" width="32.1" height="47.1"/>
			</defs>
			<clipPath id="XMLID_185_">
				<use xlink:href="#XMLID_135810_"  style="overflow:visible;"/>
			</clipPath>
			<path id="XMLID_136185_" class="st3" d="M288.2,38.8c-0.4,0.5-0.9,1.1-1.5,1.5c-1.3,1.1-2.4,1.7-2.5,1.8
				c-0.9,0.6-1.4,1.5-1.4,2.5v2.1c0,0.7,0.6,1.2,1.3,1.2l5.8-0.1h13.2c0.8,0,1.4-0.6,1.4-1.4v-3.1c0-1.6,0-3.2-0.1-4.9
				c-0.1-2.2-0.3-4.3-0.8-6.4c-0.5-2-1.1-4-2.3-5.7c-1.1-1.6-2.4-2.7-4.6-2.6c-1.4,0-2.5-0.5-3.3-1.9c-0.5-1-1.4-1.6-2.5-1.9
				c-0.5-0.1-0.7,0-0.7,0.4c0.3,1.7-0.4,3-1.7,4.1c-3.1,2.4-6.3,4.9-9.4,7.3c-0.9,0.7-1,1.4-0.3,2.3c0.5,0.6,1,1.2,1.6,1.8
				c0.9,1,1.9,1.2,3.2,0.6c0.5-0.2,0.9-0.5,1.4-0.8c0.7-0.5,1.6-0.6,2.4-0.4c1.5,0.4,2.7,0,3.9-0.9c0.2-0.2,0.5-0.4,0.7-0.6
				L288.2,38.8z M292.1,33.8"/>
			<path id="XMLID_136181_" class="st4" d="M307.8,59.7c-0.6-0.2-1-0.7-1.1-1.4c-0.1-0.6,0.1-1.1,0.5-1.5c1-0.9,1.4-2,1-3.3v0
				c0,0,0-0.2,0-0.2c0,0,0-0.1,0-0.1c-0.2-1.7-0.8-2.2-2.5-2.2h-23.9c-1.1,0-1.8,0.6-1.9,1.7c-0.1,0.6-0.2,1.2-0.2,1.9
				c-0.1,0.8,0.2,1.5,0.9,1.9c0.9,0.7,0.8,1.5,0.8,1.9c-0.1,0.7-0.6,1.2-1.2,1.4c-0.5,0.2-1.2,0.6-1.4,1.6c0,0,0,0,0,0.1
				c0,0.4-0.1,0.7-0.2,1.1c-0.1,0.4-0.1,0.8-0.2,1.2c-0.1,0.7,0.2,1.4,0.7,1.8c0.4,0.3,0.9,0.4,1.2,0.4h27.6c0.7,0,1.2-0.3,1.5-0.7
				c0.3-0.4,0.5-0.9,0.4-1.6c0-0.3-0.1-0.7-0.1-1c0-0.3-0.1-0.6-0.1-0.9C309.3,60.5,308.4,60,307.8,59.7
				C307.8,59.7,307.8,59.7,307.8,59.7L307.8,59.7z M306,55.6c-0.9,0.8-1.3,1.9-1.1,3.1c0.2,1.2,1,2.2,2.2,2.7
				c0.4,0.2,0.5,0.3,0.5,0.6c0,0.3,0.1,0.7,0.1,1c0,0.3,0.1,0.6,0.1,0.9v0c0,0.1,0,0.2,0,0.3c0,0-0.1,0-0.2,0h-27.5
				c-0.1,0-0.1,0-0.1,0l0,0c0,0,0-0.1,0-0.2c0-0.4,0.1-0.7,0.2-1.1c0.1-0.4,0.1-0.7,0.2-1.1c0-0.2,0.1-0.2,0.2-0.2
				c1.2-0.4,2.2-1.4,2.4-2.7c0.3-1.4-0.3-2.7-1.4-3.6c0,0,0,0,0,0c-0.1-0.1-0.2-0.1-0.1-0.3v0c0-0.6,0.1-1.2,0.2-1.8
				c0-0.1,0-0.2,0-0.2c0,0,0.1,0,0.2,0h23.9c0.4,0,0.6,0,0.7,0c0,0.1,0.1,0.2,0.1,0.6c0,0.2,0,0.4,0.1,0.7
				C306.7,54.7,306.6,55.1,306,55.6L306,55.6z M306,55.6"/>
			<path id="XMLID_136178_" class="st4" d="M299.2,59.4c0.5,0,0.9-0.4,0.9-0.9c0-0.5-0.4-0.9-0.9-0.9h-10.6c-0.5,0-0.9,0.4-0.9,0.9
				c0,0.5,0.4,0.9,0.9,0.9H299.2L299.2,59.4z M299.2,59.4"/>
			<path id="XMLID_136175_" class="st4" d="M289.5,20.5c0.2,1.3-0.2,2.3-1.4,3.2c-1.6,1.2-3.1,2.4-4.7,3.7c-1.6,1.2-3.1,2.4-4.7,3.7
				c-0.7,0.5-1,1-1.1,1.7c-0.1,0.6,0.1,1.2,0.6,1.9c0,0,0,0,0,0l1.6,1.8c0,0,0,0,0,0c1.2,1.3,2.6,1.6,4.2,0.7c0.5-0.2,1-0.5,1.4-0.8
				c0.5-0.3,1.1-0.4,1.8-0.3c1.6,0.4,3.2,0.1,4.6-1c0,0,0,0,0,0l0.7-0.6c0.4-0.3,0.4-0.8,0.1-1.2c-0.3-0.4-0.8-0.4-1.2-0.1l-0.7,0.6
				c-1,0.8-2,1-3.2,0.7c0,0,0,0,0,0c-1.1-0.2-2.2-0.1-3.1,0.5c0,0,0,0,0,0c-0.4,0.3-0.8,0.5-1.3,0.7c0,0,0,0,0,0
				c-0.9,0.5-1.4,0.4-2.1-0.4l-1.5-1.8c-0.2-0.2-0.3-0.4-0.3-0.6c0-0.1,0.2-0.3,0.4-0.5c1.6-1.2,3.1-2.4,4.7-3.7
				c1.6-1.2,3.1-2.4,4.7-3.7c1.5-1.1,2.2-2.5,2.1-4.1c0.7,0.3,1.2,0.7,1.4,1.3c0.8,1.6,2.2,2.4,4.1,2.4c1.5-0.1,2.6,0.6,3.8,2.3
				c1.2,1.6,1.7,3.5,2.2,5.4c0.5,1.9,0.7,3.9,0.8,6.2c0.1,1,0.1,2,0.1,2.9c0,0.6,0,1.3,0,2v3.1c0,0.3-0.2,0.5-0.5,0.5H290l-5.9,0.1
				c-0.2,0-0.4-0.1-0.4-0.4v-2.1c0-0.7,0.4-1.4,1-1.8c0.2-0.1,1.7-1.1,3.5-2.6c0.4-0.3,0.4-0.9,0.1-1.2c-0.3-0.4-0.9-0.4-1.2-0.1
				c-1.7,1.5-3.2,2.4-3.3,2.4c0,0,0,0,0,0c-1.1,0.7-1.8,1.9-1.8,3.3v2.1c0,1.2,0.9,2.1,2.1,2.1l5.9-0.1h13.2c1.3,0,2.3-1,2.3-2.3
				v-3.1c0-0.6,0-1.3,0-1.9c0-1,0-2-0.1-3c-0.1-2.5-0.4-4.6-0.9-6.6c-0.5-1.9-1.1-4.1-2.4-6c-1-1.5-2.6-3.1-5.3-3
				c-1.2,0-1.9-0.4-2.4-1.4c-0.6-1.2-1.6-1.9-3-2.4c-0.7-0.2-1.1,0-1.4,0.2C289.7,19.4,289.4,19.8,289.5,20.5L289.5,20.5z
				 M289.5,20.4"/>
		</g>
	</g>
</g>
</svg>
