<?xml version="1.0" encoding="utf-8"?>
<!-- Generator: Adobe Illustrator 19.0.0, SVG Export Plug-In . SVG Version: 6.00 Build 0)  -->
<svg version="1.1" id="Capa_1" xmlns="http://www.w3.org/2000/svg" xmlns:xlink="http://www.w3.org/1999/xlink" x="0px" y="0px"
	 viewBox="0 0 336.4 87" style="enable-background:new 0 0 336.4 87;" xml:space="preserve">
<style type="text/css">
	.st0{fill:#AACECE;}
	.st1{fill:#9DBAB9;}
	.st2{fill:#FFFFFF;}
	.st3{fill:#A7A9AC;}
</style>
<g id="XMLID_1_">
	<rect id="XMLID_135862_" x="0" y="0.4" class="st0" width="292.9" height="86.2"/>
	<circle id="XMLID_135850_" class="st1" cx="292.9" cy="43.5" r="43.5"/>
	<circle id="XMLID_135849_" class="st2" cx="292.9" cy="43.5" r="34.8"/>
	<g id="XMLID_2_">
		<g id="XMLID_421_">
			<path id="XMLID_471_" d="M80.2,38.3l1.9,0.5c-0.4,1.6-1.1,2.7-2.1,3.6s-2.3,1.2-3.8,1.2c-1.5,0-2.8-0.3-3.8-0.9s-1.7-1.5-2.2-2.7
				s-0.8-2.5-0.8-3.8c0-1.5,0.3-2.8,0.9-3.9c0.6-1.1,1.4-2,2.4-2.5s2.2-0.9,3.5-0.9c1.4,0,2.6,0.4,3.6,1.1s1.7,1.8,2,3.1L80,33.4
				c-0.3-1-0.8-1.8-1.4-2.3s-1.4-0.7-2.4-0.7c-1.1,0-2,0.3-2.8,0.8s-1.3,1.2-1.6,2.1s-0.4,1.8-0.4,2.7c0,1.2,0.2,2.3,0.5,3.2
				s0.9,1.6,1.7,2s1.6,0.7,2.4,0.7c1.1,0,2-0.3,2.7-0.9S80,39.5,80.2,38.3z"/>
			<path id="XMLID_468_" d="M91,42c-0.7,0.6-1.3,0.9-1.9,1.2s-1.2,0.3-1.9,0.3c-1.1,0-2-0.3-2.6-0.8s-0.9-1.3-0.9-2.1
				c0-0.5,0.1-1,0.3-1.4s0.5-0.8,0.9-1s0.8-0.4,1.3-0.6c0.3-0.1,0.9-0.2,1.6-0.3c1.4-0.2,2.5-0.4,3.1-0.6c0-0.2,0-0.4,0-0.5
				c0-0.7-0.2-1.2-0.5-1.5c-0.4-0.4-1.1-0.6-2-0.6c-0.8,0-1.4,0.1-1.8,0.4s-0.7,0.8-0.9,1.5l-1.7-0.2c0.2-0.7,0.4-1.3,0.8-1.8
				s0.9-0.8,1.6-1s1.5-0.4,2.4-0.4c0.9,0,1.6,0.1,2.2,0.3s1,0.5,1.2,0.8s0.4,0.7,0.5,1.2c0.1,0.3,0.1,0.8,0.1,1.6V39
				c0,1.6,0,2.7,0.1,3.1s0.2,0.8,0.4,1.2h-1.8C91.2,43,91.1,42.5,91,42z M90.9,38.1c-0.6,0.3-1.6,0.5-2.9,0.7
				c-0.7,0.1-1.2,0.2-1.5,0.4s-0.5,0.3-0.7,0.6s-0.2,0.5-0.2,0.8c0,0.5,0.2,0.9,0.5,1.2s0.9,0.5,1.6,0.5c0.7,0,1.3-0.1,1.8-0.4
				s0.9-0.7,1.2-1.2c0.2-0.4,0.3-1,0.3-1.8V38.1z"/>
			<path id="XMLID_466_" d="M99.2,41.8l0.3,1.6c-0.5,0.1-0.9,0.2-1.3,0.2c-0.6,0-1.1-0.1-1.5-0.3s-0.6-0.5-0.7-0.8s-0.2-1-0.2-2.1
				v-6h-1.3V33h1.3v-2.6l1.7-1.1V33h1.8v1.4h-1.8v6.1c0,0.5,0,0.8,0.1,1s0.2,0.3,0.3,0.3s0.3,0.1,0.6,0.1
				C98.6,41.8,98.9,41.8,99.2,41.8z"/>
			<path id="XMLID_463_" d="M108,40l1.8,0.2c-0.3,1.1-0.8,1.9-1.6,2.5s-1.8,0.9-3,0.9c-1.5,0-2.7-0.5-3.6-1.4s-1.3-2.2-1.3-3.9
				c0-1.7,0.4-3.1,1.3-4.1s2.1-1.4,3.5-1.4c1.4,0,2.5,0.5,3.4,1.4s1.3,2.3,1.3,4c0,0.1,0,0.3,0,0.5h-7.7c0.1,1.1,0.4,2,1,2.6
				s1.3,0.9,2.2,0.9c0.6,0,1.2-0.2,1.7-0.5S107.7,40.7,108,40z M102.2,37.1h5.8c-0.1-0.9-0.3-1.5-0.7-2c-0.6-0.7-1.3-1-2.2-1
				c-0.8,0-1.5,0.3-2,0.8S102.3,36.2,102.2,37.1z"/>
			<path id="XMLID_460_" d="M111.7,44.2l1.7,0.3c0.1,0.5,0.3,0.9,0.6,1.2c0.4,0.3,1,0.5,1.8,0.5c0.8,0,1.4-0.2,1.9-0.5
				s0.7-0.8,0.9-1.4c0.1-0.4,0.1-1.1,0.1-2.3c-0.8,0.9-1.7,1.4-2.9,1.4c-1.4,0-2.5-0.5-3.3-1.5s-1.2-2.3-1.2-3.7
				c0-1,0.2-1.9,0.5-2.7s0.9-1.5,1.6-1.9s1.5-0.7,2.4-0.7c1.2,0,2.2,0.5,3,1.5V33h1.6v9c0,1.6-0.2,2.8-0.5,3.4s-0.8,1.2-1.6,1.6
				s-1.6,0.6-2.6,0.6c-1.2,0-2.2-0.3-3-0.8S111.7,45.3,111.7,44.2z M113.2,38c0,1.4,0.3,2.4,0.8,3s1.2,0.9,2,0.9
				c0.8,0,1.5-0.3,2-0.9s0.8-1.6,0.8-2.9c0-1.3-0.3-2.2-0.8-2.9s-1.2-1-2-1c-0.8,0-1.4,0.3-2,1S113.2,36.7,113.2,38z"/>
			<path id="XMLID_457_" d="M122.5,38.1c0-1.9,0.5-3.3,1.6-4.3c0.9-0.8,2-1.2,3.3-1.2c1.4,0,2.6,0.5,3.5,1.4s1.4,2.2,1.4,3.9
				c0,1.3-0.2,2.4-0.6,3.1s-1,1.4-1.7,1.8s-1.6,0.6-2.5,0.6c-1.5,0-2.6-0.5-3.5-1.4S122.5,39.9,122.5,38.1z M124.3,38.1
				c0,1.3,0.3,2.3,0.9,3s1.3,1,2.2,1c0.9,0,1.6-0.3,2.2-1s0.9-1.7,0.9-3c0-1.3-0.3-2.3-0.9-2.9s-1.3-1-2.2-1c-0.9,0-1.6,0.3-2.2,1
				S124.3,36.8,124.3,38.1z"/>
			<path id="XMLID_455_" d="M134.3,43.3V33h1.6v1.6c0.4-0.7,0.8-1.2,1.1-1.5s0.7-0.4,1.1-0.4c0.6,0,1.2,0.2,1.8,0.6l-0.6,1.6
				c-0.4-0.3-0.9-0.4-1.3-0.4c-0.4,0-0.7,0.1-1,0.3s-0.5,0.6-0.7,1c-0.2,0.6-0.3,1.3-0.3,2.1v5.4H134.3z"/>
			<path id="XMLID_452_" d="M141,31v-2h1.8v2H141z M141,43.3V33h1.8v10.4H141z"/>
			<path id="XMLID_450_" d="M144.5,43.3v-1.4l6.6-7.6c-0.7,0-1.4,0.1-2,0.1h-4.2V33h8.5v1.2l-5.6,6.6l-1.1,1.2
				c0.8-0.1,1.5-0.1,2.2-0.1h4.8v1.5H144.5z"/>
			<path id="XMLID_447_" d="M162.2,42c-0.7,0.6-1.3,0.9-1.9,1.2s-1.2,0.3-1.9,0.3c-1.1,0-2-0.3-2.6-0.8s-0.9-1.3-0.9-2.1
				c0-0.5,0.1-1,0.3-1.4s0.5-0.8,0.9-1s0.8-0.4,1.3-0.6c0.3-0.1,0.9-0.2,1.6-0.3c1.4-0.2,2.5-0.4,3.1-0.6c0-0.2,0-0.4,0-0.5
				c0-0.7-0.2-1.2-0.5-1.5c-0.4-0.4-1.1-0.6-2-0.6c-0.8,0-1.4,0.1-1.8,0.4s-0.7,0.8-0.9,1.5l-1.7-0.2c0.2-0.7,0.4-1.3,0.8-1.8
				s0.9-0.8,1.6-1s1.5-0.4,2.4-0.4c0.9,0,1.6,0.1,2.2,0.3s1,0.5,1.2,0.8s0.4,0.7,0.5,1.2c0.1,0.3,0.1,0.8,0.1,1.6V39
				c0,1.6,0,2.7,0.1,3.1s0.2,0.8,0.4,1.2h-1.8C162.3,43,162.2,42.5,162.2,42z M162,38.1c-0.6,0.3-1.6,0.5-2.9,0.7
				c-0.7,0.1-1.2,0.2-1.5,0.4s-0.5,0.3-0.7,0.6s-0.2,0.5-0.2,0.8c0,0.5,0.2,0.9,0.5,1.2s0.9,0.5,1.6,0.5c0.7,0,1.3-0.1,1.8-0.4
				s0.9-0.7,1.2-1.2c0.2-0.4,0.3-1,0.3-1.8V38.1z"/>
			<path id="XMLID_445_" d="M166.5,43.3V33h1.6v1.6c0.4-0.7,0.8-1.2,1.1-1.5s0.7-0.4,1.1-0.4c0.6,0,1.2,0.2,1.8,0.6l-0.6,1.6
				c-0.4-0.3-0.9-0.4-1.3-0.4c-0.4,0-0.7,0.1-1,0.3s-0.5,0.6-0.7,1c-0.2,0.6-0.3,1.3-0.3,2.1v5.4H166.5z"/>
			<path id="XMLID_443_" d="M178.7,43.3V29h1.8v14.3H178.7z"/>
			<path id="XMLID_440_" d="M182.5,38.1c0-1.9,0.5-3.3,1.6-4.3c0.9-0.8,2-1.2,3.3-1.2c1.4,0,2.6,0.5,3.5,1.4s1.4,2.2,1.4,3.9
				c0,1.3-0.2,2.4-0.6,3.1s-1,1.4-1.7,1.8s-1.6,0.6-2.5,0.6c-1.5,0-2.6-0.5-3.5-1.4S182.5,39.9,182.5,38.1z M184.3,38.1
				c0,1.3,0.3,2.3,0.9,3s1.3,1,2.2,1c0.9,0,1.6-0.3,2.2-1s0.9-1.7,0.9-3c0-1.3-0.3-2.3-0.9-2.9s-1.3-1-2.2-1c-0.9,0-1.6,0.3-2.2,1
				S184.3,36.8,184.3,38.1z"/>
			<path id="XMLID_438_" d="M193.6,40.2l1.7-0.3c0.1,0.7,0.4,1.2,0.8,1.6s1.1,0.6,1.9,0.6c0.8,0,1.4-0.2,1.8-0.5s0.6-0.7,0.6-1.2
				c0-0.4-0.2-0.7-0.5-0.9c-0.2-0.2-0.8-0.4-1.8-0.6c-1.3-0.3-2.2-0.6-2.7-0.8s-0.9-0.6-1.1-1s-0.4-0.9-0.4-1.4
				c0-0.5,0.1-0.9,0.3-1.3s0.5-0.7,0.9-1c0.3-0.2,0.6-0.4,1.1-0.5s1-0.2,1.5-0.2c0.8,0,1.5,0.1,2.1,0.4s1.1,0.6,1.4,1
				s0.5,0.9,0.6,1.6l-1.7,0.2c-0.1-0.5-0.3-1-0.7-1.3s-0.9-0.4-1.6-0.4c-0.8,0-1.4,0.1-1.7,0.4s-0.5,0.6-0.5,0.9
				c0,0.2,0.1,0.4,0.2,0.6c0.1,0.2,0.4,0.3,0.7,0.5c0.2,0.1,0.7,0.2,1.6,0.4c1.2,0.3,2.1,0.6,2.6,0.8s0.9,0.5,1.2,0.9
				s0.4,0.9,0.4,1.5c0,0.6-0.2,1.1-0.5,1.7s-0.8,0.9-1.5,1.2s-1.4,0.4-2.2,0.4c-1.3,0-2.4-0.3-3.1-0.8S193.8,41.3,193.6,40.2z"/>
			<path id="XMLID_435_" d="M111.5,67.3V66c-0.7,1-1.6,1.5-2.9,1.5c-0.8,0-1.6-0.2-2.3-0.7s-1.2-1.1-1.6-1.9s-0.6-1.8-0.6-2.8
				c0-1,0.2-2,0.5-2.8s0.9-1.5,1.6-1.9s1.5-0.7,2.3-0.7c0.6,0,1.2,0.1,1.7,0.4s0.9,0.6,1.2,1V53h1.7v14.3H111.5z M106,62.1
				c0,1.3,0.3,2.3,0.8,3s1.2,1,2,1c0.8,0,1.4-0.3,2-0.9s0.8-1.6,0.8-2.9c0-1.4-0.3-2.5-0.8-3.1s-1.2-1-2-1c-0.8,0-1.4,0.3-2,1
				S106,60.8,106,62.1z"/>
			<path id="XMLID_432_" d="M123,64l1.8,0.2c-0.3,1.1-0.8,1.9-1.6,2.5s-1.8,0.9-3,0.9c-1.5,0-2.7-0.5-3.6-1.4s-1.3-2.2-1.3-3.9
				c0-1.7,0.4-3.1,1.3-4.1s2.1-1.4,3.5-1.4c1.4,0,2.5,0.5,3.4,1.4s1.3,2.3,1.3,4c0,0.1,0,0.3,0,0.5h-7.7c0.1,1.1,0.4,2,1,2.6
				s1.3,0.9,2.2,0.9c0.6,0,1.2-0.2,1.7-0.5S122.8,64.7,123,64z M117.2,61.1h5.8c-0.1-0.9-0.3-1.5-0.7-2c-0.6-0.7-1.3-1-2.2-1
				c-0.8,0-1.5,0.3-2,0.8S117.3,60.2,117.2,61.1z"/>
			<path id="XMLID_430_" d="M126.3,64.2l1.7-0.3c0.1,0.7,0.4,1.2,0.8,1.6s1.1,0.6,1.9,0.6c0.8,0,1.4-0.2,1.8-0.5s0.6-0.7,0.6-1.2
				c0-0.4-0.2-0.7-0.5-0.9c-0.2-0.2-0.8-0.4-1.8-0.6c-1.3-0.3-2.2-0.6-2.7-0.8c-0.5-0.2-0.9-0.6-1.1-1s-0.4-0.9-0.4-1.4
				c0-0.5,0.1-0.9,0.3-1.3s0.5-0.7,0.9-1c0.3-0.2,0.6-0.4,1.1-0.5s1-0.2,1.5-0.2c0.8,0,1.5,0.1,2.1,0.4s1.1,0.6,1.4,1
				s0.5,0.9,0.6,1.6l-1.7,0.2c-0.1-0.5-0.3-1-0.7-1.3s-0.9-0.4-1.6-0.4c-0.8,0-1.4,0.1-1.7,0.4s-0.5,0.6-0.5,0.9
				c0,0.2,0.1,0.4,0.2,0.6c0.1,0.2,0.4,0.3,0.7,0.5c0.2,0.1,0.7,0.2,1.6,0.4c1.2,0.3,2.1,0.6,2.6,0.8s0.9,0.5,1.2,0.9
				s0.4,0.9,0.4,1.5c0,0.6-0.2,1.1-0.5,1.7s-0.8,0.9-1.5,1.2s-1.4,0.4-2.2,0.4c-1.3,0-2.4-0.3-3.1-0.8
				C127,66.2,126.5,65.3,126.3,64.2z"/>
			<path id="XMLID_427_" d="M144.1,64l1.8,0.2c-0.3,1.1-0.8,1.9-1.6,2.5s-1.8,0.9-3,0.9c-1.5,0-2.7-0.5-3.6-1.4s-1.3-2.2-1.3-3.9
				c0-1.7,0.4-3.1,1.3-4.1s2.1-1.4,3.5-1.4c1.4,0,2.5,0.5,3.4,1.4s1.3,2.3,1.3,4c0,0.1,0,0.3,0,0.5h-7.7c0.1,1.1,0.4,2,1,2.6
				s1.3,0.9,2.2,0.9c0.6,0,1.2-0.2,1.7-0.5S143.9,64.7,144.1,64z M138.4,61.1h5.8c-0.1-0.9-0.3-1.5-0.7-2c-0.6-0.7-1.3-1-2.2-1
				c-0.8,0-1.5,0.3-2,0.8S138.4,60.2,138.4,61.1z"/>
			<path id="XMLID_424_" d="M147.5,62.1c0-1.9,0.5-3.3,1.6-4.3c0.9-0.8,2-1.2,3.3-1.2c1.4,0,2.6,0.5,3.5,1.4s1.4,2.2,1.4,3.9
				c0,1.3-0.2,2.4-0.6,3.1s-1,1.4-1.7,1.8s-1.6,0.6-2.5,0.6c-1.5,0-2.6-0.5-3.5-1.4S147.5,63.9,147.5,62.1z M149.3,62.1
				c0,1.3,0.3,2.3,0.9,3s1.3,1,2.2,1c0.9,0,1.6-0.3,2.2-1s0.9-1.7,0.9-3c0-1.3-0.3-2.3-0.9-2.9s-1.3-1-2.2-1c-0.9,0-1.6,0.3-2.2,1
				S149.3,60.8,149.3,62.1z"/>
			<path id="XMLID_422_" d="M158.6,64.2l1.7-0.3c0.1,0.7,0.4,1.2,0.8,1.6s1.1,0.6,1.9,0.6c0.8,0,1.4-0.2,1.8-0.5s0.6-0.7,0.6-1.2
				c0-0.4-0.2-0.7-0.5-0.9c-0.2-0.2-0.8-0.4-1.8-0.6c-1.3-0.3-2.2-0.6-2.7-0.8s-0.9-0.6-1.1-1s-0.4-0.9-0.4-1.4
				c0-0.5,0.1-0.9,0.3-1.3s0.5-0.7,0.9-1c0.3-0.2,0.6-0.4,1.1-0.5s1-0.2,1.5-0.2c0.8,0,1.5,0.1,2.1,0.4s1.1,0.6,1.4,1
				s0.5,0.9,0.6,1.6l-1.7,0.2c-0.1-0.5-0.3-1-0.7-1.3s-0.9-0.4-1.6-0.4c-0.8,0-1.4,0.1-1.7,0.4s-0.5,0.6-0.5,0.9
				c0,0.2,0.1,0.4,0.2,0.6c0.1,0.2,0.4,0.3,0.7,0.5c0.2,0.1,0.7,0.2,1.6,0.4c1.2,0.3,2.1,0.6,2.6,0.8s0.9,0.5,1.2,0.9
				s0.4,0.9,0.4,1.5c0,0.6-0.2,1.1-0.5,1.7s-0.8,0.9-1.5,1.2s-1.4,0.4-2.2,0.4c-1.3,0-2.4-0.3-3.1-0.8S158.8,65.3,158.6,64.2z"/>
		</g>
	</g>
	<g id="XMLID_135602_">
		<path id="XMLID_135857_" class="st3" d="M284.4,39c-0.6,0-1.2-0.5-1.2-1.2V25.2c0-0.6,0.5-1.2,1.2-1.2h18.3c0.6,0,1.2,0.5,1.2,1.2
			v12.7c0,0.6-0.5,1.2-1.2,1.2H284.4L284.4,39z M284.4,39"/>
		<path id="XMLID_135698_" d="M314.6,61.1c1.3,0,2.4-1.1,2.4-2.4v-4.7c0-1.3-1.1-2.4-2.4-2.4h-3.5v-4.1c0-1.7-1.4-3.1-3.1-3.1h-13.6
			v-4.5h7.1c1.8,0,3.2-1.4,3.2-3.2V26.3c0-1.8-1.4-3.2-3.2-3.2h-15.9c-1.8,0-3.2,1.4-3.2,3.2v10.3c0,1.8,1.4,3.2,3.2,3.2h7.1v4.5
			H279c-1.7,0-3.1,1.4-3.1,3.1v4.1h-3.5c-1.3,0-2.4,1.1-2.4,2.4v4.7c0,1.3,1.1,2.4,2.4,2.4h8.8c1.3,0,2.4-1.1,2.4-2.4V54
			c0-1.3-1.1-2.4-2.4-2.4h-3.5v-4.1c0-0.7,0.6-1.3,1.3-1.3h13.6v5.4h-3.5c-1.3,0-2.4,1.1-2.4,2.4v4.7c0,1.3,1.1,2.4,2.4,2.4h8.8
			c1.3,0,2.4-1.1,2.4-2.4V54c0-1.3-1.1-2.4-2.4-2.4h-3.5v-5.4h13.6c0.7,0,1.3,0.6,1.3,1.3v4.1h-3.5c-1.3,0-2.4,1.1-2.4,2.4v4.7
			c0,1.3,1.1,2.4,2.4,2.4H314.6L314.6,61.1z M288.5,54c0-0.4,0.3-0.7,0.7-0.7h8.8c0.4,0,0.7,0.3,0.7,0.7v4.7c0,0.4-0.3,0.7-0.7,0.7
			h-8.8c-0.4,0-0.7-0.3-0.7-0.7V54L288.5,54z M271.8,54c0-0.4,0.3-0.7,0.7-0.7h8.8c0.4,0,0.7,0.3,0.7,0.7v4.7c0,0.4-0.3,0.7-0.7,0.7
			h-8.8c-0.4,0-0.7-0.3-0.7-0.7V54L271.8,54z M303,36.6c0,0.8-0.6,1.4-1.4,1.4h-15.9c-0.8,0-1.4-0.7-1.4-1.4V26.3
			c0-0.8,0.7-1.4,1.4-1.4h15.9c0.8,0,1.4,0.7,1.4,1.4V36.6L303,36.6z M315.3,58.7c0,0.4-0.3,0.7-0.7,0.7h-8.8
			c-0.4,0-0.7-0.3-0.7-0.7V54c0-0.4,0.3-0.7,0.7-0.7h8.8c0.4,0,0.7,0.3,0.7,0.7V58.7z M315.3,54"/>
		<path id="XMLID_135683_" d="M298.1,30.3c0.5,0,0.9-0.4,0.9-0.9c0-0.5-0.4-0.9-0.9-0.9H289c-0.5,0-0.9,0.4-0.9,0.9
			c0,0.5,0.4,0.9,0.9,0.9H298.1L298.1,30.3z M298.1,30.3"/>
		<path id="XMLID_135603_" d="M288.1,33.5c0,0.5,0.4,0.9,0.9,0.9h9.2c0.5,0,0.9-0.4,0.9-0.9s-0.4-0.9-0.9-0.9H289
			C288.5,32.6,288.1,33,288.1,33.5L288.1,33.5z M288.1,33.5"/>
	</g>
</g>
</svg>
