<?xml version="1.0" encoding="utf-8"?>
<!-- Generator: Adobe Illustrator 19.0.0, SVG Export Plug-In . SVG Version: 6.00 Build 0)  -->
<svg version="1.1" id="Capa_1" xmlns="http://www.w3.org/2000/svg" xmlns:xlink="http://www.w3.org/1999/xlink" x="0px" y="0px"
	 viewBox="-129 377.9 336.4 87" style="enable-background:new -129 377.9 336.4 87;" xml:space="preserve">
<style type="text/css">
	.st0{fill:#AACECE;}
	.st1{fill:#9DBAB9;}
	.st2{fill:#FFFFFF;}
</style>
<g id="XMLID_1_">
	<rect id="XMLID_135862_" x="-129" y="378.3" class="st0" width="292.9" height="86.2"/>
	<circle id="XMLID_135850_" class="st1" cx="163.9" cy="421.4" r="43.5"/>
	<circle id="XMLID_135849_" class="st2" cx="163.9" cy="421.4" r="34.8"/>
	<g id="XMLID_2_">
		<g id="XMLID_421_">
			<path id="XMLID_471_" d="M-48.8,416.2l1.9,0.5c-0.4,1.6-1.1,2.7-2.1,3.6s-2.3,1.2-3.8,1.2s-2.8-0.3-3.8-0.9s-1.7-1.5-2.2-2.7
				c-0.5-1.2-0.8-2.5-0.8-3.8c0-1.5,0.3-2.8,0.9-3.9s1.4-2,2.4-2.5s2.2-0.9,3.5-0.9c1.4,0,2.6,0.4,3.6,1.1c1,0.7,1.7,1.8,2,3.1
				l-1.8,0.3c-0.3-1-0.8-1.8-1.4-2.3s-1.4-0.7-2.4-0.7c-1.1,0-2,0.3-2.8,0.8s-1.3,1.2-1.6,2.1s-0.4,1.8-0.4,2.7
				c0,1.2,0.2,2.3,0.5,3.2s0.9,1.6,1.7,2s1.6,0.7,2.4,0.7c1.1,0,2-0.3,2.7-0.9C-49.6,418.3-49,417.4-48.8,416.2z"/>
			<path id="XMLID_468_" d="M-38,419.9c-0.7,0.6-1.3,0.9-1.9,1.2c-0.6,0.3-1.2,0.3-1.9,0.3c-1.1,0-2-0.3-2.6-0.8s-0.9-1.3-0.9-2.1
				c0-0.5,0.1-1,0.3-1.4s0.5-0.8,0.9-1c0.4-0.2,0.8-0.4,1.3-0.6c0.3-0.1,0.9-0.2,1.6-0.3c1.4-0.2,2.5-0.4,3.1-0.6c0-0.2,0-0.4,0-0.5
				c0-0.7-0.2-1.2-0.5-1.5c-0.4-0.4-1.1-0.6-2-0.6c-0.8,0-1.4,0.1-1.8,0.4c-0.4,0.3-0.7,0.8-0.9,1.5l-1.7-0.2
				c0.2-0.7,0.4-1.3,0.8-1.8s0.9-0.8,1.6-1c0.7-0.2,1.5-0.4,2.4-0.4s1.6,0.1,2.2,0.3s1,0.5,1.2,0.8c0.2,0.3,0.4,0.7,0.5,1.2
				c0.1,0.3,0.1,0.8,0.1,1.6v2.5c0,1.6,0,2.7,0.1,3.1s0.2,0.8,0.4,1.2h-1.8C-37.8,420.9-37.9,420.4-38,419.9z M-38.1,416
				c-0.6,0.3-1.6,0.5-2.9,0.7c-0.7,0.1-1.2,0.2-1.5,0.4c-0.3,0.2-0.5,0.3-0.7,0.6s-0.2,0.5-0.2,0.8c0,0.5,0.2,0.9,0.5,1.2
				s0.9,0.5,1.6,0.5s1.3-0.1,1.8-0.4c0.5-0.3,0.9-0.7,1.2-1.2c0.2-0.4,0.3-1,0.3-1.8V416H-38.1z"/>
			<path id="XMLID_466_" d="M-29.8,419.7l0.3,1.6c-0.5,0.1-0.9,0.2-1.3,0.2c-0.6,0-1.1-0.1-1.5-0.3s-0.6-0.5-0.7-0.8
				c-0.1-0.3-0.2-1-0.2-2.1v-6h-1.3v-1.4h1.3v-2.6l1.7-1.1v3.7h1.8v1.4h-1.8v6.1c0,0.5,0,0.8,0.1,1c0.1,0.2,0.2,0.3,0.3,0.3
				s0.3,0.1,0.6,0.1C-30.4,419.7-30.1,419.7-29.8,419.7z"/>
			<path id="XMLID_463_" d="M-21,417.9l1.8,0.2c-0.3,1.1-0.8,1.9-1.6,2.5s-1.8,0.9-3,0.9c-1.5,0-2.7-0.5-3.6-1.4s-1.3-2.2-1.3-3.9
				s0.4-3.1,1.3-4.1s2.1-1.4,3.5-1.4s2.5,0.5,3.4,1.4s1.3,2.3,1.3,4c0,0.1,0,0.3,0,0.5h-7.7c0.1,1.1,0.4,2,1,2.6s1.3,0.9,2.2,0.9
				c0.6,0,1.2-0.2,1.7-0.5C-21.5,419.3-21.3,418.6-21,417.9z M-26.8,415h5.8c-0.1-0.9-0.3-1.5-0.7-2c-0.6-0.7-1.3-1-2.2-1
				c-0.8,0-1.5,0.3-2,0.8S-26.7,414.1-26.8,415z"/>
			<path id="XMLID_460_" d="M-17.3,422.1l1.7,0.3c0.1,0.5,0.3,0.9,0.6,1.2c0.4,0.3,1,0.5,1.8,0.5s1.4-0.2,1.9-0.5
				c0.5-0.3,0.7-0.8,0.9-1.4c0.1-0.4,0.1-1.1,0.1-2.3c-0.8,0.9-1.7,1.4-2.9,1.4c-1.4,0-2.5-0.5-3.3-1.5s-1.2-2.3-1.2-3.7
				c0-1,0.2-1.9,0.5-2.7c0.3-0.8,0.9-1.5,1.6-1.9c0.7-0.4,1.5-0.7,2.4-0.7c1.2,0,2.2,0.5,3,1.5v-1.4h1.6v9c0,1.6-0.2,2.8-0.5,3.4
				s-0.8,1.2-1.6,1.6c-0.8,0.4-1.6,0.6-2.6,0.6c-1.2,0-2.2-0.3-3-0.8S-17.3,423.2-17.3,422.1z M-15.8,415.9c0,1.4,0.3,2.4,0.8,3
				c0.5,0.6,1.2,0.9,2,0.9s1.5-0.3,2-0.9c0.5-0.6,0.8-1.6,0.8-2.9c0-1.3-0.3-2.2-0.8-2.9s-1.2-1-2-1s-1.4,0.3-2,1
				S-15.8,414.6-15.8,415.9z"/>
			<path id="XMLID_457_" d="M-6.5,416c0-1.9,0.5-3.3,1.6-4.3c0.9-0.8,2-1.2,3.3-1.2c1.4,0,2.6,0.5,3.5,1.4c0.9,0.9,1.4,2.2,1.4,3.9
				c0,1.3-0.2,2.4-0.6,3.1c-0.4,0.7-1,1.4-1.7,1.8s-1.6,0.6-2.5,0.6c-1.5,0-2.6-0.5-3.5-1.4C-5.9,419-6.5,417.8-6.5,416z M-4.7,416
				c0,1.3,0.3,2.3,0.9,3c0.6,0.7,1.3,1,2.2,1c0.9,0,1.6-0.3,2.2-1c0.6-0.7,0.9-1.7,0.9-3c0-1.3-0.3-2.3-0.9-2.9s-1.3-1-2.2-1
				c-0.9,0-1.6,0.3-2.2,1S-4.7,414.7-4.7,416z"/>
			<path id="XMLID_455_" d="M5.3,421.2v-10.3h1.6v1.6c0.4-0.7,0.8-1.2,1.1-1.5c0.3-0.3,0.7-0.4,1.1-0.4c0.6,0,1.2,0.2,1.8,0.6
				l-0.6,1.6c-0.4-0.3-0.9-0.4-1.3-0.4c-0.4,0-0.7,0.1-1,0.3c-0.3,0.2-0.5,0.6-0.7,1C7.1,414.3,7,415,7,415.8v5.4
				C7,421.2,5.3,421.2,5.3,421.2z"/>
			<path id="XMLID_452_" d="M12,408.9v-2h1.8v2H12z M12,421.2v-10.3h1.8v10.4H12V421.2z"/>
			<path id="XMLID_450_" d="M15.5,421.2v-1.4l6.6-7.6c-0.7,0-1.4,0.1-2,0.1h-4.2v-1.4h8.5v1.2l-5.6,6.6l-1.1,1.2
				c0.8-0.1,1.5-0.1,2.2-0.1h4.8v1.5h-9.2V421.2z"/>
			<path id="XMLID_447_" d="M33.2,419.9c-0.7,0.6-1.3,0.9-1.9,1.2c-0.6,0.3-1.2,0.3-1.9,0.3c-1.1,0-2-0.3-2.6-0.8s-0.9-1.3-0.9-2.1
				c0-0.5,0.1-1,0.3-1.4s0.5-0.8,0.9-1c0.4-0.2,0.8-0.4,1.3-0.6c0.3-0.1,0.9-0.2,1.6-0.3c1.4-0.2,2.5-0.4,3.1-0.6c0-0.2,0-0.4,0-0.5
				c0-0.7-0.2-1.2-0.5-1.5c-0.4-0.4-1.1-0.6-2-0.6c-0.8,0-1.4,0.1-1.8,0.4c-0.4,0.3-0.7,0.8-0.9,1.5l-1.7-0.2
				c0.2-0.7,0.4-1.3,0.8-1.8s0.9-0.8,1.6-1c0.7-0.2,1.5-0.4,2.4-0.4s1.6,0.1,2.2,0.3s1,0.5,1.2,0.8c0.2,0.3,0.4,0.7,0.5,1.2
				c0.1,0.3,0.1,0.8,0.1,1.6v2.5c0,1.6,0,2.7,0.1,3.1s0.2,0.8,0.4,1.2h-1.8C33.3,420.9,33.2,420.4,33.2,419.9z M33,416
				c-0.6,0.3-1.6,0.5-2.9,0.7c-0.7,0.1-1.2,0.2-1.5,0.4c-0.3,0.2-0.5,0.3-0.7,0.6s-0.2,0.5-0.2,0.8c0,0.5,0.2,0.9,0.5,1.2
				s0.9,0.5,1.6,0.5c0.7,0,1.3-0.1,1.8-0.4c0.5-0.3,0.9-0.7,1.2-1.2c0.2-0.4,0.3-1,0.3-1.8V416H33z"/>
			<path id="XMLID_445_" d="M37.5,421.2v-10.3h1.6v1.6c0.4-0.7,0.8-1.2,1.1-1.5c0.3-0.3,0.7-0.4,1.1-0.4c0.6,0,1.2,0.2,1.8,0.6
				l-0.6,1.6c-0.4-0.3-0.9-0.4-1.3-0.4c-0.4,0-0.7,0.1-1,0.3c-0.3,0.2-0.5,0.6-0.7,1c-0.2,0.6-0.3,1.3-0.3,2.1v5.4
				C39.2,421.2,37.5,421.2,37.5,421.2z"/>
			<path id="XMLID_443_" d="M49.7,421.2v-14.3h1.8v14.3H49.7z"/>
			<path id="XMLID_440_" d="M53.5,416c0-1.9,0.5-3.3,1.6-4.3c0.9-0.8,2-1.2,3.3-1.2c1.4,0,2.6,0.5,3.5,1.4c0.9,0.9,1.4,2.2,1.4,3.9
				c0,1.3-0.2,2.4-0.6,3.1c-0.4,0.7-1,1.4-1.7,1.8s-1.6,0.6-2.5,0.6c-1.5,0-2.6-0.5-3.5-1.4C54.1,419,53.5,417.8,53.5,416z
				 M55.3,416c0,1.3,0.3,2.3,0.9,3c0.6,0.7,1.3,1,2.2,1s1.6-0.3,2.2-1c0.6-0.7,0.9-1.7,0.9-3c0-1.3-0.3-2.3-0.9-2.9s-1.3-1-2.2-1
				s-1.6,0.3-2.2,1S55.3,414.7,55.3,416z"/>
			<path id="XMLID_438_" d="M64.6,418.1l1.7-0.3c0.1,0.7,0.4,1.2,0.8,1.6c0.4,0.4,1.1,0.6,1.9,0.6c0.8,0,1.4-0.2,1.8-0.5
				c0.4-0.3,0.6-0.7,0.6-1.2c0-0.4-0.2-0.7-0.5-0.9c-0.2-0.2-0.8-0.4-1.8-0.6c-1.3-0.3-2.2-0.6-2.7-0.8c-0.5-0.2-0.9-0.6-1.1-1
				c-0.2-0.4-0.4-0.9-0.4-1.4s0.1-0.9,0.3-1.3s0.5-0.7,0.9-1c0.3-0.2,0.6-0.4,1.1-0.5c0.5-0.1,1-0.2,1.5-0.2c0.8,0,1.5,0.1,2.1,0.4
				c0.6,0.3,1.1,0.6,1.4,1c0.3,0.4,0.5,0.9,0.6,1.6l-1.7,0.2c-0.1-0.5-0.3-1-0.7-1.3c-0.4-0.3-0.9-0.4-1.6-0.4
				c-0.8,0-1.4,0.1-1.7,0.4c-0.3,0.3-0.5,0.6-0.5,0.9c0,0.2,0.1,0.4,0.2,0.6c0.1,0.2,0.4,0.3,0.7,0.5c0.2,0.1,0.7,0.2,1.6,0.4
				c1.2,0.3,2.1,0.6,2.6,0.8s0.9,0.5,1.2,0.9s0.4,0.9,0.4,1.5s-0.2,1.1-0.5,1.7s-0.8,0.9-1.5,1.2c-0.7,0.3-1.4,0.4-2.2,0.4
				c-1.3,0-2.4-0.3-3.1-0.8S64.8,419.2,64.6,418.1z"/>
			<path id="XMLID_435_" d="M-17.5,445.2v-1.3c-0.7,1-1.6,1.5-2.9,1.5c-0.8,0-1.6-0.2-2.3-0.7s-1.2-1.1-1.6-1.9
				c-0.4-0.8-0.6-1.8-0.6-2.8s0.2-2,0.5-2.8s0.9-1.5,1.6-1.9s1.5-0.7,2.3-0.7c0.6,0,1.2,0.1,1.7,0.4c0.5,0.3,0.9,0.6,1.2,1v-5.1h1.7
				v14.3H-17.5z M-23,440c0,1.3,0.3,2.3,0.8,3c0.5,0.7,1.2,1,2,1s1.4-0.3,2-0.9s0.8-1.6,0.8-2.9c0-1.4-0.3-2.5-0.8-3.1s-1.2-1-2-1
				s-1.4,0.3-2,1S-23,438.7-23,440z"/>
			<path id="XMLID_432_" d="M-6,441.9l1.8,0.2c-0.3,1.1-0.8,1.9-1.6,2.5s-1.8,0.9-3,0.9c-1.5,0-2.7-0.5-3.6-1.4s-1.3-2.2-1.3-3.9
				c0-1.7,0.4-3.1,1.3-4.1s2.1-1.4,3.5-1.4s2.5,0.5,3.4,1.4s1.3,2.3,1.3,4c0,0.1,0,0.3,0,0.5h-7.7c0.1,1.1,0.4,2,1,2.6
				s1.3,0.9,2.2,0.9c0.6,0,1.2-0.2,1.7-0.5C-6.5,443.3-6.2,442.6-6,441.9z M-11.8,439H-6c-0.1-0.9-0.3-1.5-0.7-2
				c-0.6-0.7-1.3-1-2.2-1c-0.8,0-1.5,0.3-2,0.8S-11.7,438.1-11.8,439z"/>
			<path id="XMLID_430_" d="M-2.7,442.1l1.7-0.3c0.1,0.7,0.4,1.2,0.8,1.6c0.4,0.4,1.1,0.6,1.9,0.6c0.8,0,1.4-0.2,1.8-0.5
				c0.4-0.3,0.6-0.7,0.6-1.2c0-0.4-0.2-0.7-0.5-0.9c-0.2-0.2-0.8-0.4-1.8-0.6c-1.3-0.3-2.2-0.6-2.7-0.8c-0.5-0.2-0.9-0.6-1.1-1
				c-0.2-0.4-0.4-0.9-0.4-1.4s0.1-0.9,0.3-1.3s0.5-0.7,0.9-1c0.3-0.2,0.6-0.4,1.1-0.5s1-0.2,1.5-0.2c0.8,0,1.5,0.1,2.1,0.4
				c0.6,0.3,1.1,0.6,1.4,1c0.3,0.4,0.5,0.9,0.6,1.6l-1.7,0.2c-0.1-0.5-0.3-1-0.7-1.3c-0.4-0.3-0.9-0.4-1.6-0.4
				c-0.8,0-1.4,0.1-1.7,0.4c-0.3,0.3-0.5,0.6-0.5,0.9c0,0.2,0.1,0.4,0.2,0.6c0.1,0.2,0.4,0.3,0.7,0.5c0.2,0.1,0.7,0.2,1.6,0.4
				c1.2,0.3,2.1,0.6,2.6,0.8s0.9,0.5,1.2,0.9c0.3,0.4,0.4,0.9,0.4,1.5c0,0.6-0.2,1.1-0.5,1.7S4.7,444.7,4,445
				c-0.7,0.3-1.4,0.4-2.2,0.4c-1.3,0-2.4-0.3-3.1-0.8C-2,444.1-2.5,443.2-2.7,442.1z"/>
			<path id="XMLID_427_" d="M15.1,441.9l1.8,0.2c-0.3,1.1-0.8,1.9-1.6,2.5s-1.8,0.9-3,0.9c-1.5,0-2.7-0.5-3.6-1.4s-1.3-2.2-1.3-3.9
				c0-1.7,0.4-3.1,1.3-4.1s2.1-1.4,3.5-1.4s2.5,0.5,3.4,1.4s1.3,2.3,1.3,4c0,0.1,0,0.3,0,0.5H9.2c0.1,1.1,0.4,2,1,2.6
				s1.3,0.9,2.2,0.9c0.6,0,1.2-0.2,1.7-0.5C14.6,443.3,14.9,442.6,15.1,441.9z M9.4,439h5.8c-0.1-0.9-0.3-1.5-0.7-2
				c-0.6-0.7-1.3-1-2.2-1c-0.8,0-1.5,0.3-2,0.8S9.4,438.1,9.4,439z"/>
			<path id="XMLID_424_" d="M18.5,440c0-1.9,0.5-3.3,1.6-4.3c0.9-0.8,2-1.2,3.3-1.2c1.4,0,2.6,0.5,3.5,1.4c0.9,0.9,1.4,2.2,1.4,3.9
				c0,1.3-0.2,2.4-0.6,3.1c-0.4,0.7-1,1.4-1.7,1.8s-1.6,0.6-2.5,0.6c-1.5,0-2.6-0.5-3.5-1.4C19.1,443,18.5,441.8,18.5,440z
				 M20.3,440c0,1.3,0.3,2.3,0.9,3c0.6,0.7,1.3,1,2.2,1s1.6-0.3,2.2-1c0.6-0.7,0.9-1.7,0.9-3c0-1.3-0.3-2.3-0.9-2.9s-1.3-1-2.2-1
				s-1.6,0.3-2.2,1S20.3,438.7,20.3,440z"/>
			<path id="XMLID_422_" d="M29.6,442.1l1.7-0.3c0.1,0.7,0.4,1.2,0.8,1.6c0.4,0.4,1.1,0.6,1.9,0.6c0.8,0,1.4-0.2,1.8-0.5
				c0.4-0.3,0.6-0.7,0.6-1.2c0-0.4-0.2-0.7-0.5-0.9c-0.2-0.2-0.8-0.4-1.8-0.6c-1.3-0.3-2.2-0.6-2.7-0.8c-0.5-0.2-0.9-0.6-1.1-1
				c-0.2-0.4-0.4-0.9-0.4-1.4s0.1-0.9,0.3-1.3s0.5-0.7,0.9-1c0.3-0.2,0.6-0.4,1.1-0.5s1-0.2,1.5-0.2c0.8,0,1.5,0.1,2.1,0.4
				c0.6,0.3,1.1,0.6,1.4,1c0.3,0.4,0.5,0.9,0.6,1.6l-1.7,0.2c-0.1-0.5-0.3-1-0.7-1.3c-0.4-0.3-0.9-0.4-1.6-0.4
				c-0.8,0-1.4,0.1-1.7,0.4c-0.3,0.3-0.5,0.6-0.5,0.9c0,0.2,0.1,0.4,0.2,0.6c0.1,0.2,0.4,0.3,0.7,0.5c0.2,0.1,0.7,0.2,1.6,0.4
				c1.2,0.3,2.1,0.6,2.6,0.8s0.9,0.5,1.2,0.9c0.3,0.4,0.4,0.9,0.4,1.5c0,0.6-0.2,1.1-0.5,1.7s-0.8,0.9-1.5,1.2
				c-0.7,0.3-1.4,0.4-2.2,0.4c-1.3,0-2.4-0.3-3.1-0.8S29.8,443.2,29.6,442.1z"/>
		</g>
	</g>
	<g id="XMLID_135602_">
		<path id="XMLID_135857_" class="st0" d="M155.4,416.9c-0.6,0-1.2-0.5-1.2-1.2v-12.6c0-0.6,0.5-1.2,1.2-1.2h18.3
			c0.6,0,1.2,0.5,1.2,1.2v12.7c0,0.6-0.5,1.2-1.2,1.2L155.4,416.9L155.4,416.9z"/>
		<path id="XMLID_135698_" d="M185.6,439c1.3,0,2.4-1.1,2.4-2.4v-4.7c0-1.3-1.1-2.4-2.4-2.4h-3.5v-4.1c0-1.7-1.4-3.1-3.1-3.1h-13.6
			v-4.5h7.1c1.8,0,3.2-1.4,3.2-3.2v-10.4c0-1.8-1.4-3.2-3.2-3.2h-15.9c-1.8,0-3.2,1.4-3.2,3.2v10.3c0,1.8,1.4,3.2,3.2,3.2h7.1v4.5
			H150c-1.7,0-3.1,1.4-3.1,3.1v4.1h-3.5c-1.3,0-2.4,1.1-2.4,2.4v4.7c0,1.3,1.1,2.4,2.4,2.4h8.8c1.3,0,2.4-1.1,2.4-2.4v-4.6
			c0-1.3-1.1-2.4-2.4-2.4h-3.5v-4.1c0-0.7,0.6-1.3,1.3-1.3h13.6v5.4h-3.5c-1.3,0-2.4,1.1-2.4,2.4v4.7c0,1.3,1.1,2.4,2.4,2.4h8.8
			c1.3,0,2.4-1.1,2.4-2.4v-4.7c0-1.3-1.1-2.4-2.4-2.4h-3.5v-5.4H179c0.7,0,1.3,0.6,1.3,1.3v4.1h-3.5c-1.3,0-2.4,1.1-2.4,2.4v4.7
			c0,1.3,1.1,2.4,2.4,2.4H185.6L185.6,439z M159.5,431.9c0-0.4,0.3-0.7,0.7-0.7h8.8c0.4,0,0.7,0.3,0.7,0.7v4.7
			c0,0.4-0.3,0.7-0.7,0.7h-8.8c-0.4,0-0.7-0.3-0.7-0.7V431.9L159.5,431.9z M142.8,431.9c0-0.4,0.3-0.7,0.7-0.7h8.8
			c0.4,0,0.7,0.3,0.7,0.7v4.7c0,0.4-0.3,0.7-0.7,0.7h-8.8c-0.4,0-0.7-0.3-0.7-0.7V431.9L142.8,431.9z M174,414.5
			c0,0.8-0.6,1.4-1.4,1.4h-15.9c-0.8,0-1.4-0.7-1.4-1.4v-10.3c0-0.8,0.7-1.4,1.4-1.4h15.9c0.8,0,1.4,0.7,1.4,1.4V414.5L174,414.5z
			 M186.3,436.6c0,0.4-0.3,0.7-0.7,0.7h-8.8c-0.4,0-0.7-0.3-0.7-0.7v-4.7c0-0.4,0.3-0.7,0.7-0.7h8.8c0.4,0,0.7,0.3,0.7,0.7V436.6z"
			/>
		<path id="XMLID_135683_" d="M169.1,408.2c0.5,0,0.9-0.4,0.9-0.9s-0.4-0.9-0.9-0.9H160c-0.5,0-0.9,0.4-0.9,0.9s0.4,0.9,0.9,0.9
			H169.1L169.1,408.2z"/>
		<path id="XMLID_135603_" d="M159.1,411.4c0,0.5,0.4,0.9,0.9,0.9h9.2c0.5,0,0.9-0.4,0.9-0.9s-0.4-0.9-0.9-0.9H160
			C159.5,410.5,159.1,410.9,159.1,411.4L159.1,411.4z"/>
	</g>
</g>
<polygon id="XMLID_243_" class="st2" points="-114.2,408.1 -91.2,421.4 -114.2,434.7 "/>
</svg>
