<?xml version="1.0" encoding="utf-8"?>
<!-- Generator: Adobe Illustrator 19.0.0, SVG Export Plug-In . SVG Version: 6.00 Build 0)  -->
<svg version="1.1" id="Capa_1" xmlns="http://www.w3.org/2000/svg" xmlns:xlink="http://www.w3.org/1999/xlink" x="0px" y="0px"
	 viewBox="0 0 336.4 87" style="enable-background:new 0 0 336.4 87;" xml:space="preserve">
<style type="text/css">
	.st0{fill:#444437;}
	.st1{fill:#33332A;}
	.st2{fill:#FFFFFF;}
	.st3{clip-path:url(#XMLID_245_);fill:#444437;}
	.st4{clip-path:url(#XMLID_245_);}
</style>
<g id="XMLID_13_">
	<rect id="XMLID_135859_" x="0" y="0.4" class="st0" width="292.9" height="86.2"/>
	<circle id="XMLID_135844_" class="st1" cx="292.9" cy="43.5" r="43.5"/>
	<circle id="XMLID_135843_" class="st2" cx="292.9" cy="43.5" r="34.8"/>
	<g id="XMLID_1_">
		<g id="XMLID_424_">
			<path id="XMLID_454_" class="st2" d="M71.1,52V37.7h5.4c1,0,1.7,0,2.2,0.1c0.7,0.1,1.3,0.3,1.8,0.7s0.9,0.8,1.1,1.4
				s0.4,1.2,0.4,2c0,1.2-0.4,2.2-1.2,3.1s-2.2,1.3-4.2,1.3H73V52H71.1z M73,44.5h3.7c1.2,0,2.1-0.2,2.6-0.7s0.8-1.1,0.8-1.9
				c0-0.6-0.2-1.1-0.5-1.5s-0.7-0.7-1.2-0.8c-0.3-0.1-0.9-0.1-1.8-0.1H73V44.5z"/>
			<path id="XMLID_452_" class="st2" d="M84.2,52V37.7h1.8V52H84.2z"/>
			<path id="XMLID_449_" class="st2" d="M95.4,50.7c-0.7,0.6-1.3,0.9-1.9,1.2s-1.2,0.3-1.9,0.3c-1.1,0-2-0.3-2.6-0.8
				s-0.9-1.3-0.9-2.1c0-0.5,0.1-1,0.3-1.4s0.5-0.8,0.9-1s0.8-0.4,1.3-0.6c0.3-0.1,0.9-0.2,1.6-0.3c1.4-0.2,2.5-0.4,3.1-0.6
				c0-0.2,0-0.4,0-0.5c0-0.7-0.2-1.2-0.5-1.5c-0.4-0.4-1.1-0.6-2-0.6c-0.8,0-1.4,0.1-1.8,0.4s-0.7,0.8-0.9,1.5l-1.7-0.2
				c0.2-0.7,0.4-1.3,0.8-1.8s0.9-0.8,1.6-1s1.5-0.4,2.4-0.4c0.9,0,1.6,0.1,2.2,0.3s1,0.5,1.2,0.8s0.4,0.7,0.5,1.2
				c0.1,0.3,0.1,0.8,0.1,1.6v2.3c0,1.6,0,2.7,0.1,3.1s0.2,0.8,0.4,1.2h-1.8C95.6,51.6,95.5,51.2,95.4,50.7z M95.3,46.8
				c-0.6,0.3-1.6,0.5-2.9,0.7c-0.7,0.1-1.2,0.2-1.5,0.4s-0.5,0.3-0.7,0.6s-0.2,0.5-0.2,0.8c0,0.5,0.2,0.9,0.5,1.2s0.9,0.5,1.6,0.5
				c0.7,0,1.3-0.1,1.8-0.4s0.9-0.7,1.2-1.2c0.2-0.4,0.3-1,0.3-1.8V46.8z"/>
			<path id="XMLID_447_" class="st2" d="M99.8,52V41.6h1.6v1.5c0.8-1.1,1.9-1.7,3.3-1.7c0.6,0,1.2,0.1,1.7,0.3s0.9,0.5,1.2,0.9
				s0.4,0.8,0.5,1.3c0.1,0.3,0.1,0.9,0.1,1.7V52h-1.8v-6.3c0-0.7-0.1-1.3-0.2-1.6s-0.4-0.6-0.7-0.8s-0.8-0.3-1.2-0.3
				c-0.7,0-1.4,0.2-1.9,0.7s-0.8,1.4-0.8,2.7V52H99.8z"/>
			<path id="XMLID_444_" class="st2" d="M123.2,52v-1.3c-0.7,1-1.6,1.5-2.9,1.5c-0.8,0-1.6-0.2-2.3-0.7s-1.2-1.1-1.6-1.9
				s-0.6-1.8-0.6-2.8c0-1,0.2-2,0.5-2.8s0.9-1.5,1.6-1.9s1.5-0.7,2.3-0.7c0.6,0,1.2,0.1,1.7,0.4s0.9,0.6,1.2,1v-5.1h1.7V52H123.2z
				 M117.6,46.8c0,1.3,0.3,2.3,0.8,3s1.2,1,2,1c0.8,0,1.4-0.3,2-0.9s0.8-1.6,0.8-2.9c0-1.4-0.3-2.5-0.8-3.1s-1.2-1-2-1
				c-0.8,0-1.4,0.3-2,1S117.6,45.4,117.6,46.8z"/>
			<path id="XMLID_441_" class="st2" d="M134.7,48.6l1.8,0.2c-0.3,1.1-0.8,1.9-1.6,2.5s-1.8,0.9-3,0.9c-1.5,0-2.7-0.5-3.6-1.4
				c-0.9-0.9-1.3-2.2-1.3-3.9c0-1.7,0.4-3.1,1.3-4.1c0.9-1,2.1-1.4,3.5-1.4c1.4,0,2.5,0.5,3.4,1.4s1.3,2.3,1.3,4c0,0.1,0,0.3,0,0.5
				h-7.7c0.1,1.1,0.4,2,1,2.6s1.3,0.9,2.2,0.9c0.6,0,1.2-0.2,1.7-0.5S134.4,49.4,134.7,48.6z M128.9,45.8h5.8
				c-0.1-0.9-0.3-1.5-0.7-2c-0.6-0.7-1.3-1-2.2-1c-0.8,0-1.5,0.3-2,0.8S129,44.9,128.9,45.8z"/>
			<path id="XMLID_438_" class="st2" d="M141.8,52l5.5-14.3h2l5.9,14.3h-2.2l-1.7-4.3h-6l-1.6,4.3H141.8z M146,46.1h4.9l-1.5-4
				c-0.5-1.2-0.8-2.2-1-3c-0.2,0.9-0.4,1.8-0.8,2.7L146,46.1z"/>
			<path id="XMLID_436_" class="st2" d="M163.3,48.2l1.7,0.2c-0.2,1.2-0.7,2.1-1.5,2.8s-1.7,1-2.9,1c-1.4,0-2.6-0.5-3.4-1.4
				s-1.3-2.3-1.3-4c0-1.1,0.2-2.1,0.6-2.9s0.9-1.5,1.7-1.9s1.6-0.6,2.5-0.6c1.1,0,2,0.3,2.8,0.9s1.2,1.4,1.4,2.4l-1.7,0.3
				c-0.2-0.7-0.5-1.2-0.9-1.6s-0.9-0.5-1.5-0.5c-0.9,0-1.6,0.3-2.2,1s-0.8,1.6-0.8,3c0,1.4,0.3,2.4,0.8,3s1.2,0.9,2.1,0.9
				c0.7,0,1.3-0.2,1.7-0.6S163.2,49.1,163.3,48.2z"/>
			<path id="XMLID_434_" class="st2" d="M173.3,48.2l1.7,0.2c-0.2,1.2-0.7,2.1-1.5,2.8s-1.7,1-2.9,1c-1.4,0-2.6-0.5-3.4-1.4
				s-1.3-2.3-1.3-4c0-1.1,0.2-2.1,0.6-2.9s0.9-1.5,1.7-1.9s1.6-0.6,2.5-0.6c1.1,0,2,0.3,2.8,0.9s1.2,1.4,1.4,2.4l-1.7,0.3
				c-0.2-0.7-0.5-1.2-0.9-1.6s-0.9-0.5-1.5-0.5c-0.9,0-1.6,0.3-2.2,1s-0.8,1.6-0.8,3c0,1.4,0.3,2.4,0.8,3s1.2,0.9,2.1,0.9
				c0.7,0,1.3-0.2,1.7-0.6S173.2,49.1,173.3,48.2z"/>
			<path id="XMLID_431_" class="st2" d="M176.5,39.7v-2h1.8v2H176.5z M176.5,52V41.6h1.8V52H176.5z"/>
			<path id="XMLID_427_" class="st2" d="M180.3,46.8c0-1.9,0.5-3.3,1.6-4.3c0.9-0.8,2-1.2,3.3-1.2c1.4,0,2.6,0.5,3.5,1.4
				s1.4,2.2,1.4,3.9c0,1.3-0.2,2.4-0.6,3.1s-1,1.4-1.7,1.8s-1.6,0.6-2.5,0.6c-1.5,0-2.6-0.5-3.5-1.4S180.3,48.6,180.3,46.8z
				 M182.1,46.8c0,1.3,0.3,2.3,0.9,3s1.3,1,2.2,1c0.9,0,1.6-0.3,2.2-1s0.9-1.7,0.9-3c0-1.3-0.3-2.3-0.9-2.9s-1.3-1-2.2-1
				c-0.9,0-1.6,0.3-2.2,1S182.1,45.5,182.1,46.8z M184.2,40.3l1.3-2.7h2.3l-2.1,2.7H184.2z"/>
			<path id="XMLID_425_" class="st2" d="M192.1,52V41.6h1.6v1.5c0.8-1.1,1.9-1.7,3.3-1.7c0.6,0,1.2,0.1,1.7,0.3s0.9,0.5,1.2,0.9
				s0.4,0.8,0.5,1.3c0.1,0.3,0.1,0.9,0.1,1.7V52h-1.8v-6.3c0-0.7-0.1-1.3-0.2-1.6s-0.4-0.6-0.7-0.8s-0.8-0.3-1.2-0.3
				c-0.7,0-1.4,0.2-1.9,0.7s-0.8,1.4-0.8,2.7V52H192.1z"/>
		</g>
	</g>
	<g id="XMLID_135811_">
		<g id="XMLID_136167_">
			<defs>
				<rect id="XMLID_135801_" x="270" y="21.3" width="47.1" height="46.8"/>
			</defs>
			<clipPath id="XMLID_245_">
				<use xlink:href="#XMLID_135801_"  style="overflow:visible;"/>
			</clipPath>
			<path id="XMLID_136172_" class="st3" d="M295.8,37.2c0.6,0,1.1-0.5,1.1-1.1v-1.9c0-0.6-0.5-1.1-1.1-1.1h-1.7
				c-0.3-1.4-0.8-2.6-1.5-3.7l1.2-1.2c0.4-0.4,0.4-1.1,0-1.6l-1.3-1.3c-0.4-0.4-1.1-0.4-1.6,0l-1.2,1.2c-1.1-0.7-2.4-1.3-3.7-1.5
				v-1.7c0-0.6-0.5-1.1-1.1-1.1H283c-0.6,0-1.1,0.5-1.1,1.1V25c-1.4,0.3-2.6,0.8-3.7,1.5l-1.2-1.2c-0.4-0.4-1.1-0.4-1.6,0l-1.3,1.3
				c-0.4,0.4-0.4,1.1,0,1.6l1.2,1.2c-0.7,1.1-1.3,2.4-1.5,3.7H272c-0.6,0-1.1,0.5-1.1,1.1v1.9c0,0.6,0.5,1.1,1.1,1.1h1.7
				c0.3,1.4,0.8,2.6,1.5,3.7l-1.2,1.2c-0.4,0.4-0.4,1.1,0,1.6l1.3,1.3c0.4,0.4,1.1,0.4,1.6,0l1.2-1.2c1.1,0.7,2.4,1.3,3.7,1.5v1.7
				c0,0.6,0.5,1.1,1.1,1.1h1.9c0.6,0,1.1-0.5,1.1-1.1v-1.7c1.4-0.3,2.6-0.8,3.7-1.5l1.2,1.2c0.4,0.4,1.1,0.4,1.6,0l1.3-1.3
				c0.4-0.4,0.4-1.1,0-1.6l-1.2-1.2c0.7-1.1,1.3-2.4,1.5-3.7H295.8L295.8,37.2z M284,30.5c2.6,0,4.7,2.1,4.7,4.7
				c0,2.6-2.1,4.7-4.7,4.7s-4.7-2.1-4.7-4.7C279.2,32.6,281.4,30.5,284,30.5L284,30.5z M284,30.5"/>
			<path id="XMLID_136169_" class="st4" d="M282.9,55.3c-0.1-0.2-0.1-0.3,0-0.5c0.1-0.2,0.2-0.3,0.4-0.4l2.2-0.9
				c0.4-0.2,0.7-0.7,0.5-1.1c-0.2-0.4-0.7-0.7-1.1-0.5l-2.2,0.9c-0.6,0.2-1.1,0.7-1.3,1.3c-0.2,0.6-0.2,1.2,0,1.8l1,2.4
				c0.5,1.2,1.9,1.8,3.1,1.3l1.5-0.6c0.9,1.2,2,2.3,3.2,3.2l-0.6,1.5c-0.5,1.2,0.1,2.6,1.3,3.1l2.4,1c0.3,0.1,0.6,0.2,0.9,0.2
				c0.9,0,1.8-0.6,2.2-1.5l0.6-1.5c1.5,0.2,3,0.2,4.5,0l0.6,1.5c0.5,1.2,1.9,1.8,3.1,1.3l2.4-1c0.6-0.2,1.1-0.7,1.3-1.3
				c0.2-0.6,0.2-1.2,0-1.8l-0.6-1.5c1.2-0.9,2.3-2,3.2-3.2l1.5,0.6c1.2,0.5,2.6-0.1,3.1-1.3l1-2.3c0.5-1.2-0.1-2.6-1.3-3.1l-1.5-0.6
				c0.2-1.5,0.2-3,0-4.5l1.5-0.6c0.6-0.2,1.1-0.7,1.3-1.3c0.2-0.6,0.2-1.2,0-1.8l-1-2.4c-0.2-0.6-0.7-1.1-1.3-1.3
				c-0.6-0.2-1.2-0.2-1.8,0l-1.5,0.6c-0.9-1.2-2-2.3-3.2-3.2l0.6-1.5c0.2-0.6,0.2-1.2,0-1.8c-0.2-0.6-0.7-1.1-1.3-1.3l-2.4-1
				c-1.2-0.5-2.6,0.1-3.1,1.3l-0.9,2.2c-0.2,0.4,0,1,0.5,1.1c0.4,0.2,1,0,1.1-0.5l0.9-2.2c0.1-0.3,0.5-0.5,0.8-0.4l2.4,1
				c0.2,0.1,0.3,0.2,0.4,0.4c0.1,0.2,0.1,0.3,0,0.5l-0.9,2.2c-0.2,0.4,0,0.8,0.3,1.1c1.5,1,2.7,2.2,3.7,3.7c0.2,0.3,0.7,0.5,1.1,0.3
				l2.2-0.9c0.2-0.1,0.3-0.1,0.5,0c0.2,0.1,0.3,0.2,0.4,0.4l1,2.4c0.1,0.2,0.1,0.3,0,0.5c-0.1,0.2-0.2,0.3-0.4,0.4l-2.2,0.9
				c-0.4,0.2-0.6,0.6-0.5,1c0.3,1.7,0.3,3.5,0,5.2c-0.1,0.4,0.1,0.8,0.5,1l2.2,0.9c0.3,0.1,0.5,0.5,0.4,0.8l-1,2.4
				c-0.1,0.3-0.5,0.5-0.8,0.4l-2.2-0.9c-0.4-0.2-0.8,0-1.1,0.3c-1,1.5-2.2,2.7-3.7,3.7c-0.3,0.2-0.5,0.7-0.3,1.1l0.9,2.2
				c0.1,0.2,0.1,0.3,0,0.5c-0.1,0.2-0.2,0.3-0.4,0.4l-2.4,1c-0.3,0.1-0.7,0-0.8-0.4l-0.9-2.2c-0.2-0.4-0.6-0.6-1-0.5
				c-1.7,0.3-3.5,0.3-5.2,0c-0.4-0.1-0.8,0.1-1,0.5l-0.9,2.2c-0.1,0.3-0.5,0.5-0.8,0.4l-2.4-1c-0.3-0.1-0.5-0.5-0.4-0.8l0.9-2.2
				c0.2-0.4,0-0.8-0.3-1.1c-1.5-1-2.7-2.2-3.7-3.7c-0.2-0.3-0.7-0.5-1.1-0.3l-2.2,0.9c-0.3,0.1-0.7,0-0.8-0.4L282.9,55.3z
				 M283.9,57.6"/>
		</g>
		<path id="XMLID_135895_" d="M299.2,44c1.6,0,3.1,0.6,4.2,1.8c1.1,1.1,1.7,2.6,1.7,4.2c0,1.6-0.6,3.1-1.8,4.2
			c-1.1,1.1-2.6,1.7-4.2,1.7h0c-1.6,0-3.1-0.6-4.2-1.8c-1.1-1.1-1.7-2.6-1.7-4.2c0-0.5-0.4-0.9-0.9-0.9h0c-0.5,0-0.9,0.4-0.9,0.9
			c0,2,0.8,4,2.2,5.4c1.4,1.5,3.4,2.3,5.4,2.3h0.1c2,0,3.9-0.8,5.4-2.2c1.5-1.4,2.3-3.4,2.3-5.4c0-2-0.8-4-2.2-5.4
			c-1.4-1.5-3.4-2.3-5.4-2.3h0c-0.5,0-0.9,0.4-0.9,0.9S298.7,44,299.2,44L299.2,44z M299.2,44"/>
		<path id="XMLID_135871_" d="M273.1,38.1c0.2,1,0.6,1.9,1.1,2.7l-0.7,0.7c-0.8,0.8-0.8,2,0,2.8l1.3,1.3c0.4,0.4,0.9,0.6,1.4,0.6
			c0.5,0,1-0.2,1.4-0.6l0.7-0.7c0.9,0.5,1.8,0.9,2.7,1.1v1c0,1.1,0.9,2,2,2h1.9c1.1,0,2-0.9,2-2v-1c1-0.2,1.9-0.6,2.7-1.1l0.7,0.7
			c0.4,0.4,0.9,0.6,1.4,0.6c0.5,0,1-0.2,1.4-0.6l1.3-1.3c0.8-0.8,0.8-2,0-2.8l-0.7-0.7c0.5-0.9,0.9-1.8,1.1-2.7h1c1.1,0,2-0.9,2-2
			v-1.9c0-1.1-0.9-2-2-2h-1c-0.2-1-0.6-1.9-1.1-2.7l0.7-0.7c0.8-0.8,0.8-2,0-2.8l-1.3-1.3c-0.4-0.4-0.9-0.6-1.4-0.6
			c-0.5,0-1,0.2-1.4,0.6l-0.7,0.7c-0.9-0.5-1.8-0.9-2.7-1.1v-1c0-1.1-0.9-2-2-2H283c-1.1,0-2,0.9-2,2v1c-1,0.2-1.9,0.6-2.7,1.1
			l-0.7-0.7c-0.4-0.4-0.9-0.6-1.4-0.6c-0.5,0-1,0.2-1.4,0.6l-1.3,1.3c-0.8,0.8-0.8,2,0,2.8l0.7,0.7c-0.5,0.9-0.9,1.8-1.1,2.7h-1
			c-1.1,0-2,0.9-2,2v1.9c0,1.1,0.9,2,2,2H273.1z M274.6,37.1c-0.1-0.4-0.4-0.7-0.8-0.7h-1.7c-0.1,0-0.2-0.1-0.2-0.2v-1.9
			c0-0.1,0.1-0.2,0.2-0.2h1.7c0.4,0,0.8-0.3,0.9-0.7c0.2-1.2,0.7-2.4,1.4-3.4c0.2-0.3,0.2-0.8-0.1-1.1l-1.2-1.2
			c-0.1-0.1-0.1-0.2,0-0.3L276,26c0.1-0.1,0.1-0.1,0.2-0.1c0,0,0.1,0,0.2,0.1l1.2,1.2c0.3,0.3,0.7,0.3,1.1,0.1
			c1-0.7,2.2-1.2,3.4-1.4c0.4-0.1,0.7-0.4,0.7-0.9v-1.7c0-0.1,0.1-0.2,0.2-0.2h1.9c0.1,0,0.2,0.1,0.2,0.2V25c0,0.4,0.3,0.8,0.7,0.9
			c1.2,0.2,2.4,0.7,3.4,1.4c0.3,0.2,0.8,0.2,1.1-0.1l1.2-1.2c0.1-0.1,0.1-0.1,0.2-0.1c0,0,0.1,0,0.2,0.1l1.3,1.3
			c0.1,0.1,0.1,0.1,0.1,0.2c0,0,0,0.1-0.1,0.2l-1.2,1.2c-0.3,0.3-0.3,0.7-0.1,1.1c0.7,1,1.2,2.2,1.4,3.4c0.1,0.4,0.4,0.7,0.9,0.7
			h1.7c0.1,0,0.2,0.1,0.2,0.2v1.9c0,0.1-0.1,0.2-0.2,0.2h-1.7c-0.4,0-0.8,0.3-0.9,0.7c-0.2,1.2-0.7,2.4-1.4,3.4
			c-0.2,0.3-0.2,0.8,0.1,1.1l1.2,1.2c0.1,0.1,0.1,0.2,0,0.3l-1.3,1.3c-0.1,0.1-0.1,0.1-0.2,0.1c0,0-0.1,0-0.2-0.1l-1.2-1.2
			c-0.2-0.2-0.4-0.3-0.6-0.3c-0.2,0-0.3,0-0.5,0.1c-1,0.7-2.2,1.2-3.4,1.4c-0.4,0.1-0.7,0.4-0.7,0.9v1.7c0,0.1-0.1,0.2-0.2,0.2H283
			c-0.1,0-0.2-0.1-0.2-0.2v-1.7c0-0.4-0.3-0.8-0.7-0.9c-1.2-0.2-2.4-0.7-3.4-1.4c-0.3-0.2-0.8-0.2-1.1,0.1l-1.2,1.2
			c-0.1,0.1-0.1,0.1-0.2,0.1c0,0-0.1,0-0.2-0.1l-1.3-1.3c-0.1-0.1-0.1-0.2,0-0.3l1.2-1.2c0.3-0.3,0.3-0.7,0.1-1.1
			C275.3,39.4,274.8,38.3,274.6,37.1L274.6,37.1z M274.6,37.1"/>
		<path id="XMLID_135812_" d="M283.9,29.6c-3.1,0-5.6,2.5-5.6,5.6c0,3.1,2.5,5.6,5.6,5.6c3.1,0,5.6-2.5,5.6-5.6
			C289.5,32.1,287,29.6,283.9,29.6L283.9,29.6z M283.9,39c-2.1,0-3.8-1.7-3.8-3.8c0-2.1,1.7-3.8,3.8-3.8c2.1,0,3.8,1.7,3.8,3.8
			C287.8,37.3,286.1,39,283.9,39L283.9,39z M283.9,39"/>
	</g>
</g>
<polygon id="XMLID_243_" class="st2" points="14.8,30.2 37.8,43.5 14.8,56.8 "/>
</svg>
