<?xml version="1.0" encoding="utf-8"?>
<!-- Generator: Adobe Illustrator 19.0.0, SVG Export Plug-In . SVG Version: 6.00 Build 0)  -->
<svg version="1.1" id="Capa_1" xmlns="http://www.w3.org/2000/svg" xmlns:xlink="http://www.w3.org/1999/xlink" x="0px" y="0px"
	 viewBox="0 0 121.3 29.8" style="enable-background:new 0 0 121.3 29.8;" xml:space="preserve">
<style type="text/css">
	.st0{fill:#348EA9;}
	.st1{fill:#FFFFFF;}
</style>
<polygon id="XMLID_527_" class="st0" points="15.3,0 0,29.8 106,29.8 121.3,0 "/>
<g id="XMLID_1_">
	<path id="XMLID_2_" class="st1" d="M45.3,19.9l-3.1-8.7h1.9l2.2,6.4l2.1-6.4h1.9l-3.1,8.7H45.3z"/>
	<path id="XMLID_4_" class="st1" d="M51.1,19.9v-8.7h1.8v8.7H51.1z"/>
	<path id="XMLID_6_" class="st1" d="M54.1,17.1l1.7-0.2c0.1,0.6,0.3,1,0.6,1.3c0.3,0.3,0.7,0.4,1.3,0.4c0.6,0,1-0.1,1.3-0.4
		c0.3-0.2,0.4-0.5,0.4-0.8c0-0.2-0.1-0.4-0.2-0.5c-0.1-0.1-0.3-0.3-0.6-0.4c-0.2-0.1-0.7-0.2-1.4-0.4c-0.9-0.2-1.6-0.5-2-0.9
		c-0.5-0.5-0.8-1.1-0.8-1.7c0-0.4,0.1-0.9,0.4-1.2c0.3-0.4,0.6-0.7,1.1-0.9c0.5-0.2,1-0.3,1.7-0.3c1.1,0,1.9,0.2,2.5,0.7
		c0.6,0.5,0.8,1.1,0.9,1.9l-1.8,0.1c-0.1-0.4-0.2-0.8-0.5-1s-0.6-0.3-1.1-0.3c-0.5,0-0.9,0.1-1.2,0.3c-0.2,0.1-0.3,0.3-0.3,0.5
		c0,0.2,0.1,0.4,0.3,0.5c0.2,0.2,0.8,0.4,1.6,0.6c0.9,0.2,1.5,0.4,1.9,0.6c0.4,0.2,0.7,0.5,1,0.9c0.2,0.4,0.3,0.8,0.3,1.4
		c0,0.5-0.1,1-0.4,1.4c-0.3,0.4-0.7,0.8-1.2,1c-0.5,0.2-1.1,0.3-1.9,0.3c-1.1,0-1.9-0.3-2.5-0.8C54.6,18.8,54.2,18.1,54.1,17.1z"/>
	<path id="XMLID_8_" class="st1" d="M62.6,19.9v-8.7h1.8v8.7H62.6z"/>
	<path id="XMLID_10_" class="st1" d="M65.7,15.6c0-0.9,0.1-1.6,0.4-2.2c0.2-0.4,0.5-0.8,0.8-1.2c0.3-0.4,0.7-0.6,1.1-0.8
		c0.5-0.2,1.2-0.3,1.9-0.3c1.3,0,2.3,0.4,3.1,1.2c0.8,0.8,1.2,1.9,1.2,3.3c0,1.4-0.4,2.5-1.1,3.3s-1.8,1.2-3.1,1.2
		c-1.3,0-2.3-0.4-3.1-1.2S65.7,17,65.7,15.6z M67.5,15.6c0,1,0.2,1.7,0.7,2.2c0.5,0.5,1,0.8,1.7,0.8s1.3-0.3,1.7-0.8
		s0.7-1.3,0.7-2.3c0-1-0.2-1.7-0.7-2.2c-0.4-0.5-1-0.7-1.7-0.7c-0.7,0-1.3,0.2-1.7,0.7S67.5,14.6,67.5,15.6z M68.8,10.8L69.6,9h1.9
		l-1.6,1.8H68.8z"/>
	<path id="XMLID_14_" class="st1" d="M75.5,19.9v-8.7h1.7l3.6,5.8v-5.8h1.6v8.7h-1.8l-3.5-5.7v5.7H75.5z"/>
</g>
</svg>
