<?xml version="1.0" encoding="utf-8"?>
<!-- Generator: Adobe Illustrator 19.0.0, SVG Export Plug-In . SVG Version: 6.00 Build 0)  -->
<svg version="1.1" id="Capa_1" xmlns="http://www.w3.org/2000/svg" xmlns:xlink="http://www.w3.org/1999/xlink" x="0px" y="0px"
	 viewBox="0 0 192 29.8" style="enable-background:new 0 0 192 29.8;" xml:space="preserve">
<style type="text/css">
	.st0{fill:#348EA9;}
	.st1{fill:#FFFFFF;}
</style>
<g id="XMLID_862_">
	<polygon id="XMLID_1_" class="st0" points="15.3,0 0,29.8 176.6,29.8 192,0 	"/>
	<g id="XMLID_2_">
		<path id="XMLID_3_" class="st1" d="M42.6,13.7V5h2.6l1.6,5.9L48.4,5H51v8.7h-1.6V6.9l-1.7,6.8H46l-1.7-6.8v6.8H42.6z"/>
		<path id="XMLID_5_" class="st1" d="M52.7,13.7V5h6.4v1.5h-4.7v1.9h4.4v1.5h-4.4v2.4h4.8v1.5H52.7z"/>
		<path id="XMLID_7_" class="st1" d="M62.8,13.7V6.5h-2.6V5h6.9v1.5h-2.6v7.2H62.8z"/>
		<path id="XMLID_9_" class="st1" d="M75.1,13.7h-1.9l-0.8-2H69l-0.7,2h-1.9L69.8,5h1.9L75.1,13.7z M71.9,10.3l-1.2-3.2l-1.2,3.2
			H71.9z"/>
		<path id="XMLID_12_" class="st1" d="M75.6,10.9l1.7-0.2c0.1,0.6,0.3,1,0.6,1.3c0.3,0.3,0.7,0.4,1.3,0.4c0.6,0,1-0.1,1.3-0.4
			c0.3-0.2,0.4-0.5,0.4-0.8c0-0.2-0.1-0.4-0.2-0.5c-0.1-0.1-0.3-0.3-0.6-0.4c-0.2-0.1-0.7-0.2-1.4-0.4c-0.9-0.2-1.6-0.5-2-0.9
			c-0.5-0.5-0.8-1.1-0.8-1.7c0-0.4,0.1-0.9,0.4-1.2c0.3-0.4,0.6-0.7,1.1-0.9c0.5-0.2,1-0.3,1.7-0.3c1.1,0,1.9,0.2,2.5,0.7
			c0.6,0.5,0.8,1.1,0.9,1.9l-1.8,0.1c-0.1-0.4-0.2-0.8-0.5-1s-0.6-0.3-1.1-0.3c-0.5,0-0.9,0.1-1.2,0.3c-0.2,0.1-0.3,0.3-0.3,0.5
			c0,0.2,0.1,0.4,0.3,0.5c0.2,0.2,0.8,0.4,1.6,0.6c0.9,0.2,1.5,0.4,1.9,0.6c0.4,0.2,0.7,0.5,1,0.9c0.2,0.4,0.3,0.8,0.3,1.4
			c0,0.5-0.1,1-0.4,1.4c-0.3,0.4-0.7,0.8-1.2,1c-0.5,0.2-1.1,0.3-1.9,0.3c-1.1,0-1.9-0.3-2.5-0.8C76.1,12.6,75.7,11.9,75.6,10.9z"/>
		<path id="XMLID_14_" class="st1" d="M84.1,12.1h1.7v1.2c0,0.5,0,0.9-0.1,1.1c-0.1,0.3-0.2,0.5-0.5,0.7c-0.2,0.2-0.5,0.4-0.9,0.5
			L84,15c0.3-0.1,0.6-0.3,0.7-0.5c0.1-0.2,0.2-0.5,0.2-0.8h-0.8V12.1z"/>
		<path id="XMLID_120_" class="st1" d="M90.5,9.4c0-0.9,0.1-1.6,0.4-2.2c0.2-0.4,0.5-0.8,0.8-1.2c0.3-0.4,0.7-0.6,1.1-0.8
			C93.4,5,94,4.9,94.7,4.9c1.3,0,2.3,0.4,3.1,1.2C98.6,6.9,99,8,99,9.4c0,1.4-0.4,2.5-1.1,3.3s-1.8,1.2-3.1,1.2
			c-1.3,0-2.3-0.4-3.1-1.2S90.5,10.8,90.5,9.4z M92.3,9.4c0,1,0.2,1.7,0.7,2.2c0.5,0.5,1,0.8,1.7,0.8s1.3-0.3,1.7-0.8
			s0.7-1.3,0.7-2.3c0-1-0.2-1.7-0.7-2.2c-0.4-0.5-1-0.7-1.7-0.7c-0.7,0-1.3,0.2-1.7,0.7S92.3,8.4,92.3,9.4z"/>
		<path id="XMLID_123_" class="st1" d="M100.3,5h3.5c0.7,0,1.2,0,1.5,0.1c0.3,0.1,0.6,0.2,0.9,0.4c0.3,0.2,0.5,0.4,0.7,0.7
			c0.2,0.3,0.3,0.6,0.3,1c0,0.4-0.1,0.8-0.3,1.1c-0.2,0.3-0.5,0.6-0.9,0.8c0.5,0.2,0.9,0.4,1.2,0.8c0.3,0.4,0.4,0.8,0.4,1.3
			c0,0.4-0.1,0.8-0.3,1.2s-0.4,0.7-0.8,0.9s-0.7,0.4-1.2,0.4c-0.3,0-1,0.1-2.1,0.1h-3V5z M102.1,6.5v2h1.1c0.7,0,1.1,0,1.3,0
			c0.3,0,0.5-0.1,0.7-0.3s0.3-0.4,0.3-0.7c0-0.3-0.1-0.5-0.2-0.7c-0.1-0.2-0.4-0.3-0.7-0.3c-0.2,0-0.7,0-1.5,0H102.1z M102.1,9.9
			v2.3h1.6c0.6,0,1,0,1.2-0.1c0.3,0,0.5-0.2,0.6-0.3c0.2-0.2,0.2-0.4,0.2-0.7c0-0.3-0.1-0.5-0.2-0.7s-0.3-0.3-0.5-0.4
			c-0.2-0.1-0.8-0.1-1.6-0.1H102.1z"/>
		<path id="XMLID_127_" class="st1" d="M112.2,5h1.7v5.5c0,0.7-0.1,1.3-0.2,1.7c-0.2,0.5-0.5,0.9-0.9,1.2c-0.4,0.3-1,0.5-1.8,0.5
			c-0.9,0-1.5-0.2-2-0.7c-0.5-0.5-0.7-1.2-0.7-2.1l1.7-0.2c0,0.5,0.1,0.8,0.2,1.1c0.2,0.3,0.5,0.5,0.9,0.5c0.4,0,0.7-0.1,0.8-0.3
			c0.2-0.2,0.2-0.7,0.2-1.4V5z"/>
		<path id="XMLID_129_" class="st1" d="M115.8,13.7V5h6.4v1.5h-4.7v1.9h4.4v1.5h-4.4v2.4h4.8v1.5H115.8z"/>
		<path id="XMLID_131_" class="st1" d="M125.9,13.7V6.5h-2.6V5h6.9v1.5h-2.6v7.2H125.9z"/>
		<path id="XMLID_133_" class="st1" d="M131.3,13.7V5h1.8v8.7H131.3z"/>
		<path id="XMLID_135_" class="st1" d="M136.9,13.7L133.8,5h1.9l2.2,6.4L140,5h1.9l-3.1,8.7H136.9z"/>
		<path id="XMLID_137_" class="st1" d="M142.4,9.4c0-0.9,0.1-1.6,0.4-2.2c0.2-0.4,0.5-0.8,0.8-1.2c0.3-0.4,0.7-0.6,1.1-0.8
			c0.5-0.2,1.2-0.3,1.9-0.3c1.3,0,2.3,0.4,3.1,1.2c0.8,0.8,1.2,1.9,1.2,3.3c0,1.4-0.4,2.5-1.1,3.3s-1.8,1.2-3.1,1.2
			c-1.3,0-2.3-0.4-3.1-1.2S142.4,10.8,142.4,9.4z M144.2,9.4c0,1,0.2,1.7,0.7,2.2c0.5,0.5,1,0.8,1.7,0.8s1.3-0.3,1.7-0.8
			s0.7-1.3,0.7-2.3c0-1-0.2-1.7-0.7-2.2c-0.4-0.5-1-0.7-1.7-0.7c-0.7,0-1.3,0.2-1.7,0.7S144.2,8.4,144.2,9.4z"/>
		<path id="XMLID_192_" class="st1" d="M151.8,10.9l1.7-0.2c0.1,0.6,0.3,1,0.6,1.3c0.3,0.3,0.7,0.4,1.3,0.4c0.6,0,1-0.1,1.3-0.4
			c0.3-0.2,0.4-0.5,0.4-0.8c0-0.2-0.1-0.4-0.2-0.5c-0.1-0.1-0.3-0.3-0.6-0.4c-0.2-0.1-0.7-0.2-1.4-0.4c-0.9-0.2-1.6-0.5-2-0.9
			c-0.5-0.5-0.8-1.1-0.8-1.7c0-0.4,0.1-0.9,0.4-1.2c0.3-0.4,0.6-0.7,1.1-0.9c0.5-0.2,1-0.3,1.7-0.3c1.1,0,1.9,0.2,2.5,0.7
			c0.6,0.5,0.8,1.1,0.9,1.9l-1.8,0.1c-0.1-0.4-0.2-0.8-0.5-1s-0.6-0.3-1.1-0.3c-0.5,0-0.9,0.1-1.2,0.3c-0.2,0.1-0.3,0.3-0.3,0.5
			c0,0.2,0.1,0.4,0.3,0.5c0.2,0.2,0.8,0.4,1.6,0.6c0.9,0.2,1.5,0.4,1.9,0.6c0.4,0.2,0.7,0.5,1,0.9c0.2,0.4,0.3,0.8,0.3,1.4
			c0,0.5-0.1,1-0.4,1.4c-0.3,0.4-0.7,0.8-1.2,1c-0.5,0.2-1.1,0.3-1.9,0.3c-1.1,0-1.9-0.3-2.5-0.8C152.2,12.6,151.9,11.9,151.8,10.9z
			"/>
		<path id="XMLID_194_" class="st1" d="M54.7,22.5c0-0.9,0.1-1.6,0.4-2.2c0.2-0.4,0.5-0.8,0.8-1.2c0.3-0.4,0.7-0.6,1.1-0.8
			c0.5-0.2,1.2-0.3,1.9-0.3c1.3,0,2.3,0.4,3.1,1.2c0.8,0.8,1.2,1.9,1.2,3.3c0,1.4-0.4,2.5-1.1,3.3s-1.8,1.2-3.1,1.2
			c-1.3,0-2.3-0.4-3.1-1.2S54.7,23.9,54.7,22.5z M56.5,22.4c0,1,0.2,1.7,0.7,2.2c0.5,0.5,1,0.8,1.7,0.8s1.3-0.3,1.7-0.8
			s0.7-1.3,0.7-2.3c0-1-0.2-1.7-0.7-2.2c-0.4-0.5-1-0.7-1.7-0.7c-0.7,0-1.3,0.2-1.7,0.7S56.5,21.4,56.5,22.4z"/>
		<path id="XMLID_197_" class="st1" d="M67.9,26.8v-8.7h2.8c1.1,0,1.8,0,2.1,0.1c0.5,0.1,0.9,0.4,1.2,0.8c0.3,0.4,0.5,1,0.5,1.7
			c0,0.5-0.1,1-0.3,1.3c-0.2,0.4-0.4,0.6-0.7,0.9c-0.3,0.2-0.6,0.3-0.9,0.4c-0.4,0.1-1,0.1-1.8,0.1h-1.1v3.3H67.9z M69.6,19.6V22h1
			c0.7,0,1.2,0,1.4-0.1c0.2-0.1,0.4-0.2,0.5-0.4c0.1-0.2,0.2-0.4,0.2-0.7c0-0.3-0.1-0.6-0.3-0.8c-0.2-0.2-0.4-0.3-0.7-0.4
			c-0.2,0-0.6-0.1-1.3-0.1H69.6z"/>
		<path id="XMLID_200_" class="st1" d="M76,26.8v-8.7h3.7c0.9,0,1.6,0.1,2,0.2c0.4,0.2,0.8,0.4,1,0.8s0.4,0.9,0.4,1.4
			c0,0.7-0.2,1.2-0.6,1.6s-1,0.7-1.7,0.8c0.4,0.2,0.7,0.5,0.9,0.7c0.2,0.3,0.6,0.7,1,1.4l1.1,1.7h-2.1l-1.3-1.9
			c-0.4-0.7-0.8-1.1-0.9-1.3c-0.2-0.2-0.3-0.3-0.5-0.4c-0.2-0.1-0.5-0.1-0.9-0.1h-0.4v3.6H76z M77.7,21.8H79c0.8,0,1.4,0,1.6-0.1
			s0.4-0.2,0.5-0.4c0.1-0.2,0.2-0.4,0.2-0.7c0-0.3-0.1-0.5-0.2-0.7c-0.2-0.2-0.4-0.3-0.7-0.3c-0.1,0-0.6,0-1.3,0h-1.4V21.8z"/>
		<path id="XMLID_203_" class="st1" d="M84.4,22.5c0-0.9,0.1-1.6,0.4-2.2c0.2-0.4,0.5-0.8,0.8-1.2c0.3-0.4,0.7-0.6,1.1-0.8
			c0.5-0.2,1.2-0.3,1.9-0.3c1.3,0,2.3,0.4,3.1,1.2c0.8,0.8,1.2,1.9,1.2,3.3c0,1.4-0.4,2.5-1.1,3.3s-1.8,1.2-3.1,1.2
			c-1.3,0-2.3-0.4-3.1-1.2S84.4,23.9,84.4,22.5z M86.2,22.4c0,1,0.2,1.7,0.7,2.2c0.5,0.5,1,0.8,1.7,0.8s1.3-0.3,1.7-0.8
			s0.7-1.3,0.7-2.3c0-1-0.2-1.7-0.7-2.2c-0.4-0.5-1-0.7-1.7-0.7c-0.7,0-1.3,0.2-1.7,0.7S86.2,21.4,86.2,22.4z"/>
		<path id="XMLID_206_" class="st1" d="M94.2,26.8v-8.7H97c1.1,0,1.8,0,2.1,0.1c0.5,0.1,0.9,0.4,1.2,0.8c0.3,0.4,0.5,1,0.5,1.7
			c0,0.5-0.1,1-0.3,1.3c-0.2,0.4-0.4,0.6-0.7,0.9c-0.3,0.2-0.6,0.3-0.9,0.4c-0.4,0.1-1,0.1-1.8,0.1h-1.1v3.3H94.2z M95.9,19.6V22h1
			c0.7,0,1.2,0,1.4-0.1c0.2-0.1,0.4-0.2,0.5-0.4c0.1-0.2,0.2-0.4,0.2-0.7c0-0.3-0.1-0.6-0.3-0.8c-0.2-0.2-0.4-0.3-0.7-0.4
			c-0.2,0-0.6-0.1-1.3-0.1H95.9z"/>
		<path id="XMLID_209_" class="st1" d="M101.9,22.5c0-0.9,0.1-1.6,0.4-2.2c0.2-0.4,0.5-0.8,0.8-1.2c0.3-0.4,0.7-0.6,1.1-0.8
			c0.5-0.2,1.2-0.3,1.9-0.3c1.3,0,2.3,0.4,3.1,1.2c0.8,0.8,1.2,1.9,1.2,3.3c0,1.4-0.4,2.5-1.1,3.3s-1.8,1.2-3.1,1.2
			c-1.3,0-2.3-0.4-3.1-1.2S101.9,23.9,101.9,22.5z M103.7,22.4c0,1,0.2,1.7,0.7,2.2c0.5,0.5,1,0.8,1.7,0.8s1.3-0.3,1.7-0.8
			s0.7-1.3,0.7-2.3c0-1-0.2-1.7-0.7-2.2c-0.4-0.5-1-0.7-1.7-0.7c-0.7,0-1.3,0.2-1.7,0.7S103.7,21.4,103.7,22.4z M105,17.6l0.8-1.8
			h1.9l-1.6,1.8H105z"/>
		<path id="XMLID_213_" class="st1" d="M111.2,24l1.7-0.2c0.1,0.6,0.3,1,0.6,1.3c0.3,0.3,0.7,0.4,1.3,0.4c0.6,0,1-0.1,1.3-0.4
			c0.3-0.2,0.4-0.5,0.4-0.8c0-0.2-0.1-0.4-0.2-0.5c-0.1-0.1-0.3-0.3-0.6-0.4c-0.2-0.1-0.7-0.2-1.4-0.4c-0.9-0.2-1.6-0.5-2-0.9
			c-0.5-0.5-0.8-1.1-0.8-1.7c0-0.4,0.1-0.9,0.4-1.2c0.3-0.4,0.6-0.7,1.1-0.9c0.5-0.2,1-0.3,1.7-0.3c1.1,0,1.9,0.2,2.5,0.7
			c0.6,0.5,0.8,1.1,0.9,1.9l-1.8,0.1c-0.1-0.4-0.2-0.8-0.5-1s-0.6-0.3-1.1-0.3c-0.5,0-0.9,0.1-1.2,0.3c-0.2,0.1-0.3,0.3-0.3,0.5
			c0,0.2,0.1,0.4,0.3,0.5c0.2,0.2,0.8,0.4,1.6,0.6c0.9,0.2,1.5,0.4,1.9,0.6c0.4,0.2,0.7,0.5,1,0.9c0.2,0.4,0.3,0.8,0.3,1.4
			c0,0.5-0.1,1-0.4,1.4c-0.3,0.4-0.7,0.8-1.2,1c-0.5,0.2-1.1,0.3-1.9,0.3c-1.1,0-1.9-0.3-2.5-0.8C111.7,25.7,111.3,24.9,111.2,24z"
			/>
		<path id="XMLID_215_" class="st1" d="M119.7,26.8v-8.7h1.8v8.7H119.7z"/>
		<path id="XMLID_217_" class="st1" d="M125.1,26.8v-7.2h-2.6v-1.5h6.9v1.5h-2.6v7.2H125.1z"/>
		<path id="XMLID_219_" class="st1" d="M130,22.5c0-0.9,0.1-1.6,0.4-2.2c0.2-0.4,0.5-0.8,0.8-1.2c0.3-0.4,0.7-0.6,1.1-0.8
			c0.5-0.2,1.2-0.3,1.9-0.3c1.3,0,2.3,0.4,3.1,1.2c0.8,0.8,1.2,1.9,1.2,3.3c0,1.4-0.4,2.5-1.1,3.3s-1.8,1.2-3.1,1.2
			c-1.3,0-2.3-0.4-3.1-1.2S130,23.9,130,22.5z M131.8,22.4c0,1,0.2,1.7,0.7,2.2c0.5,0.5,1,0.8,1.7,0.8s1.3-0.3,1.7-0.8
			s0.7-1.3,0.7-2.3c0-1-0.2-1.7-0.7-2.2c-0.4-0.5-1-0.7-1.7-0.7c-0.7,0-1.3,0.2-1.7,0.7S131.8,21.4,131.8,22.4z"/>
		<path id="XMLID_222_" class="st1" d="M139.3,24l1.7-0.2c0.1,0.6,0.3,1,0.6,1.3c0.3,0.3,0.7,0.4,1.3,0.4c0.6,0,1-0.1,1.3-0.4
			c0.3-0.2,0.4-0.5,0.4-0.8c0-0.2-0.1-0.4-0.2-0.5c-0.1-0.1-0.3-0.3-0.6-0.4c-0.2-0.1-0.7-0.2-1.4-0.4c-0.9-0.2-1.6-0.5-2-0.9
			c-0.5-0.5-0.8-1.1-0.8-1.7c0-0.4,0.1-0.9,0.4-1.2c0.3-0.4,0.6-0.7,1.1-0.9c0.5-0.2,1-0.3,1.7-0.3c1.1,0,1.9,0.2,2.5,0.7
			c0.6,0.5,0.8,1.1,0.9,1.9l-1.8,0.1c-0.1-0.4-0.2-0.8-0.5-1s-0.6-0.3-1.1-0.3c-0.5,0-0.9,0.1-1.2,0.3c-0.2,0.1-0.3,0.3-0.3,0.5
			c0,0.2,0.1,0.4,0.3,0.5c0.2,0.2,0.8,0.4,1.6,0.6c0.9,0.2,1.5,0.4,1.9,0.6c0.4,0.2,0.7,0.5,1,0.9c0.2,0.4,0.3,0.8,0.3,1.4
			c0,0.5-0.1,1-0.4,1.4c-0.3,0.4-0.7,0.8-1.2,1c-0.5,0.2-1.1,0.3-1.9,0.3c-1.1,0-1.9-0.3-2.5-0.8C139.8,25.7,139.4,24.9,139.3,24z"
			/>
	</g>
</g>
</svg>
