<?xml version="1.0" encoding="utf-8"?>
<!-- Generator: Adobe Illustrator 19.0.0, SVG Export Plug-In . SVG Version: 6.00 Build 0)  -->
<svg version="1.1" id="Capa_1" xmlns="http://www.w3.org/2000/svg" xmlns:xlink="http://www.w3.org/1999/xlink" x="0px" y="0px"
	 viewBox="0 0 121.3 29.8" style="enable-background:new 0 0 121.3 29.8;" xml:space="preserve">
<style type="text/css">
	.st0{fill:#7EB7CE;}
	.st1{fill:#FFFFFF;}
</style>
<polygon id="XMLID_14_" class="st0" points="15.3,0 0,29.8 106,29.8 121.3,0 "/>
<g id="XMLID_1_">
	<path id="XMLID_2_" class="st1" d="M38.1,20.7V12h2.6l1.6,5.9l1.6-5.9h2.6v8.7h-1.6v-6.8l-1.7,6.8h-1.7l-1.7-6.8v6.8H38.1z"/>
	<path id="XMLID_4_" class="st1" d="M48.2,20.7V12H50v8.7H48.2z"/>
	<path id="XMLID_6_" class="st1" d="M51.2,17.9l1.7-0.2c0.1,0.6,0.3,1,0.6,1.3c0.3,0.3,0.7,0.4,1.3,0.4c0.6,0,1-0.1,1.3-0.4
		c0.3-0.2,0.4-0.5,0.4-0.8c0-0.2-0.1-0.4-0.2-0.5c-0.1-0.1-0.3-0.3-0.6-0.4c-0.2-0.1-0.7-0.2-1.4-0.4c-0.9-0.2-1.6-0.5-2-0.9
		c-0.5-0.5-0.8-1.1-0.8-1.7c0-0.4,0.1-0.9,0.4-1.2c0.3-0.4,0.6-0.7,1.1-0.9c0.5-0.2,1-0.3,1.7-0.3c1.1,0,1.9,0.2,2.5,0.7
		c0.6,0.5,0.8,1.1,0.9,1.9l-1.8,0.1c-0.1-0.4-0.2-0.8-0.5-1s-0.6-0.3-1.1-0.3c-0.5,0-0.9,0.1-1.2,0.3c-0.2,0.1-0.3,0.3-0.3,0.5
		c0,0.2,0.1,0.4,0.3,0.5c0.2,0.2,0.8,0.4,1.6,0.6c0.9,0.2,1.5,0.4,1.9,0.6c0.4,0.2,0.7,0.5,1,0.9c0.2,0.4,0.3,0.8,0.3,1.4
		c0,0.5-0.1,1-0.4,1.4c-0.3,0.4-0.7,0.8-1.2,1c-0.5,0.2-1.1,0.3-1.9,0.3c-1.1,0-1.9-0.3-2.5-0.8C51.7,19.6,51.3,18.9,51.2,17.9z"/>
	<path id="XMLID_8_" class="st1" d="M59.7,20.7V12h1.8v8.7H59.7z"/>
	<path id="XMLID_10_" class="st1" d="M62.7,16.4c0-0.9,0.1-1.6,0.4-2.2c0.2-0.4,0.5-0.8,0.8-1.2c0.3-0.4,0.7-0.6,1.1-0.8
		c0.5-0.2,1.2-0.3,1.9-0.3c1.3,0,2.3,0.4,3.1,1.2c0.8,0.8,1.2,1.9,1.2,3.3c0,1.4-0.4,2.5-1.1,3.3s-1.8,1.2-3.1,1.2
		c-1.3,0-2.3-0.4-3.1-1.2S62.7,17.8,62.7,16.4z M64.5,16.4c0,1,0.2,1.7,0.7,2.2c0.5,0.5,1,0.8,1.7,0.8s1.3-0.3,1.7-0.8
		s0.7-1.3,0.7-2.3c0-1-0.2-1.7-0.7-2.2c-0.4-0.5-1-0.7-1.7-0.7c-0.7,0-1.3,0.2-1.7,0.7S64.5,15.4,64.5,16.4z M65.9,11.5l0.8-1.8h1.9
		l-1.6,1.8H65.9z"/>
	<path id="XMLID_15_" class="st1" d="M72.5,20.7V12h1.7l3.6,5.8V12h1.6v8.7h-1.8L74.2,15v5.7H72.5z"/>
</g>
</svg>
