<?xml version="1.0" encoding="utf-8"?>
<!-- Generator: Adobe Illustrator 19.0.0, SVG Export Plug-In . SVG Version: 6.00 Build 0)  -->
<svg version="1.1" id="Capa_1" xmlns="http://www.w3.org/2000/svg" xmlns:xlink="http://www.w3.org/1999/xlink" x="0px" y="0px"
	 viewBox="0 0 192 29.8" style="enable-background:new 0 0 192 29.8;" xml:space="preserve">
<style type="text/css">
	.st0{fill:#E54A3F;}
	.st1{fill:#FFFFFF;}
</style>
<g id="XMLID_863_">
	<polygon id="XMLID_9_" class="st0" points="15.3,0 0,29.8 176.6,29.8 192,0 	"/>
	<g id="XMLID_1_">
		<path id="XMLID_2_" class="st1" d="M38.2,19.6l-3.1-8.7H37l2.2,6.4l2.1-6.4h1.9L40,19.6H38.2z"/>
		<path id="XMLID_4_" class="st1" d="M51,19.6h-1.9l-0.8-2h-3.5l-0.7,2h-1.9l3.4-8.7h1.9L51,19.6z M47.7,16.2L46.5,13l-1.2,3.2H47.7
			z"/>
		<path id="XMLID_7_" class="st1" d="M51.9,19.6V11h1.8v7.1h4.4v1.5H51.9z"/>
		<path id="XMLID_10_" class="st1" d="M58.9,15.3c0-0.9,0.1-1.6,0.4-2.2c0.2-0.4,0.5-0.8,0.8-1.2c0.3-0.4,0.7-0.6,1.1-0.8
			c0.5-0.2,1.2-0.3,1.9-0.3c1.3,0,2.3,0.4,3.1,1.2c0.8,0.8,1.2,1.9,1.2,3.3c0,1.4-0.4,2.5-1.1,3.3s-1.8,1.2-3.1,1.2
			c-1.3,0-2.3-0.4-3.1-1.2S58.9,16.7,58.9,15.3z M60.8,15.3c0,1,0.2,1.7,0.7,2.2c0.5,0.5,1,0.8,1.7,0.8s1.3-0.3,1.7-0.8
			s0.7-1.3,0.7-2.3c0-1-0.2-1.7-0.7-2.2c-0.4-0.5-1-0.7-1.7-0.7c-0.7,0-1.3,0.2-1.7,0.7S60.8,14.3,60.8,15.3z"/>
		<path id="XMLID_13_" class="st1" d="M68.7,19.6v-8.7h3.7c0.9,0,1.6,0.1,2,0.2c0.4,0.2,0.8,0.4,1,0.8s0.4,0.9,0.4,1.4
			c0,0.7-0.2,1.2-0.6,1.6s-1,0.7-1.7,0.8c0.4,0.2,0.7,0.5,0.9,0.7c0.2,0.3,0.6,0.7,1,1.4l1.1,1.7h-2.1l-1.3-1.9
			c-0.4-0.7-0.8-1.1-0.9-1.3c-0.2-0.2-0.3-0.3-0.5-0.4C71.5,16,71.2,16,70.8,16h-0.4v3.6H68.7z M70.5,14.6h1.3c0.8,0,1.4,0,1.6-0.1
			s0.4-0.2,0.5-0.4C74,14,74,13.7,74,13.5c0-0.3-0.1-0.5-0.2-0.7c-0.2-0.2-0.4-0.3-0.7-0.3c-0.1,0-0.6,0-1.3,0h-1.4V14.6z"/>
		<path id="XMLID_120_" class="st1" d="M77.5,19.6v-8.7h6.4v1.5h-4.7v1.9h4.4v1.5h-4.4v2.4h4.8v1.5H77.5z"/>
		<path id="XMLID_122_" class="st1" d="M85.1,16.8l1.7-0.2c0.1,0.6,0.3,1,0.6,1.3c0.3,0.3,0.7,0.4,1.3,0.4c0.6,0,1-0.1,1.3-0.4
			c0.3-0.2,0.4-0.5,0.4-0.8c0-0.2-0.1-0.4-0.2-0.5c-0.1-0.1-0.3-0.3-0.6-0.4c-0.2-0.1-0.7-0.2-1.4-0.4c-0.9-0.2-1.6-0.5-2-0.9
			c-0.5-0.5-0.8-1.1-0.8-1.7c0-0.4,0.1-0.9,0.4-1.2c0.3-0.4,0.6-0.7,1.1-0.9c0.5-0.2,1-0.3,1.7-0.3c1.1,0,1.9,0.2,2.5,0.7
			c0.6,0.5,0.8,1.1,0.9,1.9l-1.8,0.1c-0.1-0.4-0.2-0.8-0.5-1s-0.6-0.3-1.1-0.3c-0.5,0-0.9,0.1-1.2,0.3c-0.2,0.1-0.3,0.3-0.3,0.5
			c0,0.2,0.1,0.4,0.3,0.5c0.2,0.2,0.8,0.4,1.6,0.6c0.9,0.2,1.5,0.4,1.9,0.6c0.4,0.2,0.7,0.5,1,0.9c0.2,0.4,0.3,0.8,0.3,1.4
			c0,0.5-0.1,1-0.4,1.4c-0.3,0.4-0.7,0.8-1.2,1c-0.5,0.2-1.1,0.3-1.9,0.3c-1.1,0-1.9-0.3-2.5-0.8C85.6,18.5,85.2,17.8,85.1,16.8z"/>
		<path id="XMLID_124_" class="st1" d="M97,19.6v-8.7h1.8v3.4h3.4v-3.4h1.8v8.7h-1.8v-3.8h-3.4v3.8H97z"/>
		<path id="XMLID_126_" class="st1" d="M105.8,10.9h1.8v4.7c0,0.7,0,1.2,0.1,1.5c0.1,0.4,0.3,0.6,0.5,0.9c0.3,0.2,0.7,0.3,1.2,0.3
			c0.5,0,0.9-0.1,1.1-0.3c0.3-0.2,0.4-0.5,0.5-0.7c0.1-0.3,0.1-0.8,0.1-1.5v-4.8h1.8v4.6c0,1,0,1.8-0.1,2.2
			c-0.1,0.4-0.3,0.8-0.5,1.1c-0.3,0.3-0.6,0.5-1,0.7c-0.4,0.2-1,0.3-1.7,0.3c-0.8,0-1.5-0.1-1.9-0.3c-0.4-0.2-0.8-0.4-1-0.7
			s-0.4-0.6-0.5-1c-0.1-0.5-0.2-1.2-0.2-2.2V10.9z"/>
		<path id="XMLID_128_" class="st1" d="M114.5,19.6v-8.7h2.6l1.6,5.9l1.6-5.9h2.6v8.7h-1.6v-6.8l-1.7,6.8h-1.7l-1.7-6.8v6.8H114.5z"
			/>
		<path id="XMLID_130_" class="st1" d="M132.5,19.6h-1.9l-0.8-2h-3.5l-0.7,2h-1.9l3.4-8.7h1.9L132.5,19.6z M129.2,16.2L128,13
			l-1.2,3.2H129.2z"/>
		<path id="XMLID_133_" class="st1" d="M133.4,19.6v-8.7h1.7l3.6,5.8v-5.8h1.6v8.7h-1.8L135,14v5.7H133.4z"/>
		<path id="XMLID_135_" class="st1" d="M141.8,15.3c0-0.9,0.1-1.6,0.4-2.2c0.2-0.4,0.5-0.8,0.8-1.2c0.3-0.4,0.7-0.6,1.1-0.8
			c0.5-0.2,1.2-0.3,1.9-0.3c1.3,0,2.3,0.4,3.1,1.2c0.8,0.8,1.2,1.9,1.2,3.3c0,1.4-0.4,2.5-1.1,3.3s-1.8,1.2-3.1,1.2
			c-1.3,0-2.3-0.4-3.1-1.2S141.8,16.7,141.8,15.3z M143.6,15.3c0,1,0.2,1.7,0.7,2.2c0.5,0.5,1,0.8,1.7,0.8s1.3-0.3,1.7-0.8
			s0.7-1.3,0.7-2.3c0-1-0.2-1.7-0.7-2.2c-0.4-0.5-1-0.7-1.7-0.7c-0.7,0-1.3,0.2-1.7,0.7S143.6,14.3,143.6,15.3z"/>
		<path id="XMLID_138_" class="st1" d="M151.1,16.8l1.7-0.2c0.1,0.6,0.3,1,0.6,1.3c0.3,0.3,0.7,0.4,1.3,0.4c0.6,0,1-0.1,1.3-0.4
			c0.3-0.2,0.4-0.5,0.4-0.8c0-0.2-0.1-0.4-0.2-0.5c-0.1-0.1-0.3-0.3-0.6-0.4c-0.2-0.1-0.7-0.2-1.4-0.4c-0.9-0.2-1.6-0.5-2-0.9
			c-0.5-0.5-0.8-1.1-0.8-1.7c0-0.4,0.1-0.9,0.4-1.2c0.3-0.4,0.6-0.7,1.1-0.9c0.5-0.2,1-0.3,1.7-0.3c1.1,0,1.9,0.2,2.5,0.7
			c0.6,0.5,0.8,1.1,0.9,1.9l-1.8,0.1c-0.1-0.4-0.2-0.8-0.5-1s-0.6-0.3-1.1-0.3c-0.5,0-0.9,0.1-1.2,0.3c-0.2,0.1-0.3,0.3-0.3,0.5
			c0,0.2,0.1,0.4,0.3,0.5c0.2,0.2,0.8,0.4,1.6,0.6c0.9,0.2,1.5,0.4,1.9,0.6c0.4,0.2,0.7,0.5,1,0.9c0.2,0.4,0.3,0.8,0.3,1.4
			c0,0.5-0.1,1-0.4,1.4c-0.3,0.4-0.7,0.8-1.2,1c-0.5,0.2-1.1,0.3-1.9,0.3c-1.1,0-1.9-0.3-2.5-0.8C151.6,18.5,151.2,17.8,151.1,16.8z
			"/>
	</g>
</g>
</svg>
