<?xml version="1.0" encoding="utf-8"?>
<!-- Generator: Adobe Illustrator 19.0.0, SVG Export Plug-In . SVG Version: 6.00 Build 0)  -->
<svg version="1.1" id="Capa_1" xmlns="http://www.w3.org/2000/svg" xmlns:xlink="http://www.w3.org/1999/xlink" x="0px" y="0px"
	 viewBox="0 0 232 38" style="enable-background:new 0 0 232 38;" xml:space="preserve">
<style type="text/css">
	.st0{opacity:0.75;fill:#B22926;enable-background:new    ;}
	.st1{enable-background:new    ;}
	.st2{fill:#FFFFFF;}
</style>
<rect id="XMLID_134814_" class="st0" width="232" height="38"/>
<g class="st1">
	<path class="st2" d="M78.4,20.6l1.2-0.2c0,0.9,0.2,1.6,0.4,1.9s0.6,0.5,1.1,0.5c0.3,0,0.6-0.1,0.8-0.3c0.2-0.2,0.4-0.4,0.5-0.7
		c0.1-0.4,0.2-0.9,0.2-1.6v-8.4h1.3v8.3c0,1.5-0.2,2.5-0.7,3.2c-0.5,0.6-1.2,0.9-2.1,0.9c-0.9,0-1.5-0.3-1.9-0.8
		C78.6,22.8,78.4,21.8,78.4,20.6z"/>
	<path class="st2" d="M90.6,24v-1.3c-0.3,0.5-0.6,0.9-1,1.1c-0.4,0.2-0.8,0.4-1.3,0.4c-0.6,0-1.1-0.2-1.5-0.5
		c-0.4-0.3-0.7-0.7-0.8-1.2c-0.1-0.5-0.2-1.1-0.2-1.9v-5.5h1.2v4.9c0,0.9,0,1.5,0.1,1.8c0.1,0.3,0.3,0.6,0.5,0.7
		c0.2,0.2,0.5,0.3,0.8,0.3c0.6,0,1.1-0.2,1.4-0.7c0.3-0.4,0.5-1.2,0.5-2.3v-4.7h1.2V24H90.6z"/>
	<path class="st2" d="M93.2,21.4l1.2-0.2c0.1,0.6,0.3,1.1,0.6,1.4c0.3,0.3,0.7,0.5,1.3,0.5s0.9-0.1,1.2-0.4c0.3-0.3,0.4-0.6,0.4-1
		c0-0.3-0.1-0.6-0.4-0.8c-0.2-0.1-0.6-0.3-1.2-0.5c-1-0.3-1.6-0.5-1.9-0.7s-0.6-0.5-0.7-0.8c-0.2-0.3-0.3-0.7-0.3-1.2
		c0-0.8,0.2-1.4,0.7-1.8c0.5-0.5,1.1-0.7,2-0.7c0.5,0,1,0.1,1.4,0.3c0.4,0.2,0.7,0.5,0.9,0.8c0.2,0.3,0.4,0.8,0.4,1.4l-1.2,0.2
		c-0.1-1-0.6-1.4-1.6-1.4c-0.5,0-0.9,0.1-1.2,0.3s-0.4,0.5-0.4,0.8c0,0.3,0.1,0.6,0.4,0.8c0.1,0.1,0.6,0.3,1.3,0.5
		c1,0.3,1.7,0.6,2,0.8s0.5,0.5,0.7,0.8s0.2,0.7,0.2,1.2c0,0.8-0.3,1.5-0.8,2c-0.5,0.5-1.3,0.8-2.2,0.8
		C94.5,24.2,93.5,23.3,93.2,21.4z"/>
	<path class="st2" d="M103.4,22.7l0.2,1.3c-0.3,0.1-0.6,0.1-0.9,0.1c-0.4,0-0.8-0.1-1-0.3s-0.4-0.4-0.5-0.7
		c-0.1-0.3-0.1-0.9-0.1-1.8v-5.1H100v-1.2h0.9V13l1.2-0.9v3.1h1.2v1.2h-1.2v5.2c0,0.5,0,0.8,0.1,0.9c0.1,0.2,0.3,0.3,0.6,0.3
		C103,22.7,103.1,22.7,103.4,22.7z"/>
	<path class="st2" d="M104.5,13.6v-1.7h1.2v1.7H104.5z M104.5,24v-8.8h1.2V24H104.5z"/>
	<path class="st2" d="M107.9,24v-7.7h-1.1v-1.2h1.1v-0.9c0-0.7,0.1-1.2,0.2-1.6s0.4-0.6,0.7-0.8s0.7-0.3,1.1-0.3
		c0.3,0,0.7,0.1,1.1,0.2l-0.2,1.3c-0.3-0.1-0.5-0.1-0.7-0.1c-0.4,0-0.6,0.1-0.8,0.3c-0.2,0.2-0.2,0.6-0.2,1.1v0.8h1.4v1.2h-1.4V24
		H107.9z"/>
	<path class="st2" d="M111.5,13.6v-1.7h1.2v1.7H111.5z M111.5,24v-8.8h1.2V24H111.5z"/>
	<path class="st2" d="M119.3,20.8l1.2,0.2c-0.1,1.1-0.5,1.9-1,2.4c-0.6,0.6-1.2,0.8-2,0.8c-0.9,0-1.7-0.4-2.3-1.2
		c-0.6-0.8-0.9-1.9-0.9-3.4c0-1.5,0.3-2.7,0.9-3.4c0.6-0.8,1.4-1.1,2.4-1.1c0.7,0,1.4,0.2,1.9,0.7c0.5,0.5,0.8,1.2,1,2.1l-1.2,0.2
		c-0.1-0.6-0.3-1-0.6-1.3c-0.3-0.3-0.6-0.4-1-0.4c-0.6,0-1.1,0.3-1.5,0.8c-0.4,0.5-0.6,1.4-0.6,2.5c0,1.2,0.2,2.1,0.6,2.6
		c0.4,0.5,0.9,0.8,1.5,0.8c0.5,0,0.9-0.2,1.2-0.5C119,22.1,119.2,21.5,119.3,20.8z"/>
	<path class="st2" d="M126.3,22.9c-0.4,0.4-0.8,0.7-1.3,1c-0.4,0.2-0.9,0.3-1.4,0.3c-0.8,0-1.4-0.2-1.8-0.7s-0.7-1.1-0.7-1.8
		c0-0.5,0.1-1,0.3-1.4c0.2-0.4,0.5-0.7,0.9-0.9c0.4-0.2,0.9-0.4,1.7-0.5c1-0.1,1.7-0.3,2.2-0.5l0-0.4c0-0.6-0.1-1-0.3-1.3
		c-0.3-0.4-0.8-0.5-1.4-0.5c-0.6,0-1,0.1-1.3,0.4s-0.5,0.7-0.6,1.3l-1.2-0.2c0.2-0.9,0.5-1.6,1-2.1c0.5-0.4,1.3-0.6,2.2-0.6
		c0.8,0,1.4,0.1,1.8,0.4s0.7,0.6,0.8,1.1c0.1,0.4,0.2,1,0.2,1.8v2c0,1.4,0,2.3,0.1,2.6c0.1,0.4,0.2,0.7,0.3,1.1h-1.3
		C126.4,23.7,126.3,23.3,126.3,22.9z M126.2,19.6c-0.4,0.2-1.1,0.4-2,0.6c-0.5,0.1-0.9,0.2-1.1,0.3c-0.2,0.1-0.4,0.3-0.5,0.5
		c-0.1,0.2-0.2,0.4-0.2,0.7c0,0.4,0.1,0.8,0.4,1c0.3,0.3,0.6,0.4,1.1,0.4c0.4,0,0.8-0.1,1.2-0.3c0.4-0.2,0.6-0.5,0.8-0.9
		c0.2-0.4,0.3-0.9,0.3-1.7V19.6z"/>
	<path class="st2" d="M134,20.8l1.2,0.2c-0.1,1.1-0.5,1.9-1,2.4c-0.6,0.6-1.2,0.8-2,0.8c-0.9,0-1.7-0.4-2.3-1.2s-0.9-1.9-0.9-3.4
		c0-1.5,0.3-2.7,0.9-3.4c0.6-0.8,1.4-1.1,2.4-1.1c0.7,0,1.4,0.2,1.9,0.7c0.5,0.5,0.8,1.2,1,2.1l-1.2,0.2c-0.1-0.6-0.3-1-0.6-1.3
		c-0.3-0.3-0.6-0.4-1-0.4c-0.6,0-1.1,0.3-1.5,0.8s-0.6,1.4-0.6,2.5c0,1.2,0.2,2.1,0.6,2.6c0.4,0.5,0.9,0.8,1.5,0.8
		c0.5,0,0.9-0.2,1.2-0.5C133.7,22.1,133.9,21.5,134,20.8z"/>
	<path class="st2" d="M136.3,13.6v-1.7h1.2v1.7H136.3z M136.3,24v-8.8h1.2V24H136.3z"/>
	<path class="st2" d="M138.9,19.6c0-1.5,0.3-2.7,1-3.4c0.6-0.8,1.4-1.2,2.4-1.2c1,0,1.8,0.4,2.4,1.2s1,1.9,1,3.4
		c0,1.6-0.3,2.8-1,3.5c-0.6,0.8-1.4,1.2-2.4,1.2c-1,0-1.8-0.4-2.4-1.2C139.2,22.3,138.9,21.1,138.9,19.6z M140.2,19.6
		c0,1.1,0.2,2,0.6,2.5s0.9,0.8,1.5,0.8c0.6,0,1.1-0.3,1.5-0.8c0.4-0.6,0.6-1.4,0.6-2.5c0-1.1-0.2-2-0.6-2.5
		c-0.4-0.6-0.9-0.8-1.5-0.8c-0.6,0-1.1,0.3-1.5,0.8C140.4,17.6,140.2,18.5,140.2,19.6z M141.4,14.1l0.9-2.3h1.6l-1.5,2.3H141.4z"/>
	<path class="st2" d="M147.1,24v-8.8h1.1v1.2c0.3-0.5,0.6-0.8,1-1.1s0.8-0.4,1.3-0.4c0.4,0,0.7,0.1,1.1,0.2c0.3,0.2,0.6,0.4,0.8,0.6
		c0.2,0.2,0.4,0.6,0.5,1c0.1,0.4,0.1,1,0.1,1.8V24h-1.2v-5.4c0-0.6-0.1-1.1-0.2-1.4c-0.1-0.3-0.3-0.5-0.5-0.7
		c-0.2-0.2-0.5-0.2-0.8-0.2c-0.6,0-1.1,0.2-1.4,0.7s-0.5,1.2-0.5,2.3V24H147.1z"/>
</g>
</svg>
