<?xml version="1.0" encoding="utf-8"?>
<!-- Generator: Adobe Illustrator 19.0.0, SVG Export Plug-In . SVG Version: 6.00 Build 0)  -->
<svg version="1.1" id="Capa_1" xmlns="http://www.w3.org/2000/svg" xmlns:xlink="http://www.w3.org/1999/xlink" x="0px" y="0px"
	 viewBox="0 0 232 38" style="enable-background:new 0 0 232 38;" xml:space="preserve">
<style type="text/css">
	.st0{opacity:0.75;fill:#B22926;enable-background:new    ;}
	.st1{enable-background:new    ;}
	.st2{fill:#FFFFFF;}
</style>
<rect id="XMLID_134814_" class="st0" width="232" height="38"/>
<g class="st1">
	<path class="st2" d="M96.3,19.7l1.3,0.4c-0.3,1.4-0.8,2.4-1.5,3.1c-0.7,0.7-1.6,1-2.7,1c-0.9,0-1.7-0.2-2.4-0.7
		c-0.7-0.5-1.2-1.2-1.6-2.2c-0.4-1-0.6-2.2-0.6-3.5c0-1.3,0.2-2.5,0.6-3.4c0.4-0.9,1-1.6,1.7-2.1c0.7-0.5,1.5-0.7,2.4-0.7
		c1,0,1.8,0.3,2.5,0.9s1.2,1.5,1.5,2.6l-1.3,0.4c-0.4-1.7-1.3-2.5-2.7-2.5c-0.7,0-1.2,0.2-1.7,0.5c-0.5,0.3-0.9,0.9-1.2,1.6
		c-0.3,0.7-0.4,1.6-0.4,2.7c0,1.7,0.3,2.9,0.9,3.8c0.6,0.8,1.4,1.3,2.3,1.3c0.7,0,1.3-0.3,1.9-0.8C95.7,21.6,96.1,20.8,96.3,19.7z"
		/>
	<path class="st2" d="M98.6,19.6c0-1.5,0.3-2.7,1-3.4c0.6-0.8,1.4-1.2,2.4-1.2c1,0,1.8,0.4,2.4,1.2s1,1.9,1,3.4c0,1.6-0.3,2.8-1,3.5
		s-1.4,1.2-2.4,1.2c-1,0-1.8-0.4-2.4-1.2C98.9,22.3,98.6,21.1,98.6,19.6z M99.9,19.6c0,1.1,0.2,2,0.6,2.5s0.9,0.8,1.5,0.8
		c0.6,0,1.1-0.3,1.5-0.8c0.4-0.6,0.6-1.4,0.6-2.5c0-1.1-0.2-2-0.6-2.5c-0.4-0.6-0.9-0.8-1.5-0.8c-0.6,0-1.1,0.3-1.5,0.8
		S99.9,18.5,99.9,19.6z"/>
	<path class="st2" d="M106.8,24v-8.8h1.1v1.2c0.3-0.5,0.6-0.8,1-1.1s0.8-0.4,1.3-0.4c0.4,0,0.7,0.1,1.1,0.2s0.6,0.4,0.8,0.6
		c0.2,0.2,0.4,0.6,0.5,1c0.1,0.4,0.1,1,0.1,1.8V24h-1.2v-5.4c0-0.6-0.1-1.1-0.2-1.4s-0.3-0.5-0.5-0.7c-0.2-0.2-0.5-0.2-0.8-0.2
		c-0.6,0-1.1,0.2-1.4,0.7s-0.5,1.2-0.5,2.3V24H106.8z"/>
	<path class="st2" d="M117.3,22.7l0.2,1.3c-0.3,0.1-0.6,0.1-0.9,0.1c-0.4,0-0.8-0.1-1-0.3s-0.4-0.4-0.5-0.7
		c-0.1-0.3-0.1-0.9-0.1-1.8v-5.1h-0.9v-1.2h0.9V13l1.2-0.9v3.1h1.2v1.2h-1.2v5.2c0,0.5,0,0.8,0.1,0.9c0.1,0.2,0.3,0.3,0.6,0.3
		C116.9,22.7,117.1,22.7,117.3,22.7z"/>
	<path class="st2" d="M123.4,21.2l1.3,0.2c-0.2,0.9-0.6,1.7-1.1,2.1s-1.2,0.7-2,0.7c-1,0-1.9-0.4-2.5-1.2s-1-1.9-1-3.4
		c0-1.5,0.3-2.7,1-3.5c0.6-0.8,1.4-1.2,2.4-1.2c0.9,0,1.7,0.4,2.3,1.2c0.6,0.8,0.9,1.9,0.9,3.4l0,0.4h-5.4c0,1,0.3,1.7,0.7,2.2
		c0.4,0.5,0.9,0.8,1.5,0.8C122.4,23,123,22.4,123.4,21.2z M119.4,18.8h4c-0.1-0.8-0.2-1.3-0.5-1.7c-0.4-0.5-0.9-0.8-1.5-0.8
		c-0.5,0-1,0.2-1.4,0.7C119.6,17.4,119.4,18,119.4,18.8z"/>
	<path class="st2" d="M125.4,24l2.6-4.6l-2.4-4.2h1.5l1.1,2.1c0.2,0.4,0.4,0.7,0.5,1c0.2-0.4,0.4-0.7,0.6-1l1.2-2.1h1.5l-2.5,4.1
		l2.7,4.7h-1.5l-1.5-2.7l-0.4-0.7l-1.9,3.5H125.4z"/>
	<path class="st2" d="M135.9,22.7l0.2,1.3c-0.3,0.1-0.6,0.1-0.9,0.1c-0.4,0-0.8-0.1-1-0.3c-0.3-0.2-0.4-0.4-0.5-0.7
		s-0.1-0.9-0.1-1.8v-5.1h-0.9v-1.2h0.9V13l1.2-0.9v3.1h1.2v1.2h-1.2v5.2c0,0.5,0,0.8,0.1,0.9c0.1,0.2,0.3,0.3,0.6,0.3
		C135.5,22.7,135.7,22.7,135.9,22.7z"/>
	<path class="st2" d="M136.6,19.6c0-1.5,0.3-2.7,1-3.4c0.6-0.8,1.4-1.2,2.4-1.2c1,0,1.8,0.4,2.4,1.2s1,1.9,1,3.4
		c0,1.6-0.3,2.8-1,3.5c-0.6,0.8-1.4,1.2-2.4,1.2c-1,0-1.8-0.4-2.4-1.2S136.6,21.1,136.6,19.6z M137.8,19.6c0,1.1,0.2,2,0.6,2.5
		s0.9,0.8,1.5,0.8c0.6,0,1.1-0.3,1.5-0.8s0.6-1.4,0.6-2.5c0-1.1-0.2-2-0.6-2.5c-0.4-0.6-0.9-0.8-1.5-0.8c-0.6,0-1.1,0.3-1.5,0.8
		C138,17.6,137.8,18.5,137.8,19.6z"/>
</g>
</svg>
