<?xml version="1.0" encoding="utf-8"?>
<!-- Generator: Adobe Illustrator 19.0.0, SVG Export Plug-In . SVG Version: 6.00 Build 0)  -->
<svg version="1.1" id="Capa_1" xmlns="http://www.w3.org/2000/svg" xmlns:xlink="http://www.w3.org/1999/xlink" x="0px" y="0px"
	 viewBox="0 0 232 38" style="enable-background:new 0 0 232 38;" xml:space="preserve">
<style type="text/css">
	.st0{enable-background:new    ;}
	.st1{fill:#F8DEB7;}
</style>
<g class="st0">
	<path class="st1" d="M73.4,19.7l1.3,0.4c-0.3,1.4-0.8,2.4-1.5,3.1c-0.7,0.7-1.6,1-2.7,1c-0.9,0-1.7-0.2-2.4-0.7
		c-0.7-0.5-1.2-1.2-1.6-2.2c-0.4-1-0.6-2.2-0.6-3.5c0-1.3,0.2-2.5,0.6-3.4c0.4-0.9,1-1.6,1.7-2.1c0.7-0.5,1.5-0.7,2.4-0.7
		c1,0,1.8,0.3,2.5,0.9s1.2,1.5,1.5,2.6l-1.3,0.4c-0.4-1.7-1.3-2.5-2.7-2.5c-0.7,0-1.2,0.2-1.7,0.5c-0.5,0.3-0.9,0.9-1.2,1.6
		c-0.3,0.7-0.4,1.6-0.4,2.7c0,1.7,0.3,2.9,0.9,3.8c0.6,0.8,1.4,1.3,2.3,1.3c0.7,0,1.3-0.3,1.9-0.8C72.9,21.6,73.2,20.8,73.4,19.7z"
		/>
	<path class="st1" d="M75.7,19.6c0-1.5,0.3-2.7,1-3.4c0.6-0.8,1.4-1.2,2.4-1.2c1,0,1.8,0.4,2.4,1.2s1,1.9,1,3.4c0,1.6-0.3,2.8-1,3.5
		s-1.4,1.2-2.4,1.2c-1,0-1.8-0.4-2.4-1.2C76.1,22.3,75.7,21.1,75.7,19.6z M77,19.6c0,1.1,0.2,2,0.6,2.5s0.9,0.8,1.5,0.8
		c0.6,0,1.1-0.3,1.5-0.8c0.4-0.6,0.6-1.4,0.6-2.5c0-1.1-0.2-2-0.6-2.5c-0.4-0.6-0.9-0.8-1.5-0.8c-0.6,0-1.1,0.3-1.5,0.8
		S77,18.5,77,19.6z"/>
	<path class="st1" d="M84,24v-8.8h1.1v1.2c0.3-0.5,0.6-0.8,1-1.1s0.8-0.4,1.3-0.4c0.4,0,0.7,0.1,1.1,0.2s0.6,0.4,0.8,0.6
		c0.2,0.2,0.4,0.6,0.5,1c0.1,0.4,0.1,1,0.1,1.8V24h-1.2v-5.4c0-0.6-0.1-1.1-0.2-1.4s-0.3-0.5-0.5-0.7c-0.2-0.2-0.5-0.2-0.8-0.2
		c-0.6,0-1.1,0.2-1.4,0.7s-0.5,1.2-0.5,2.3V24H84z"/>
	<path class="st1" d="M94.4,22.7l0.2,1.3c-0.3,0.1-0.6,0.1-0.9,0.1c-0.4,0-0.8-0.1-1-0.3s-0.4-0.4-0.5-0.7C92,22.9,92,22.3,92,21.4
		v-5.1h-0.9v-1.2H92V13l1.2-0.9v3.1h1.2v1.2h-1.2v5.2c0,0.5,0,0.8,0.1,0.9c0.1,0.2,0.3,0.3,0.6,0.3C94,22.7,94.2,22.7,94.4,22.7z"/>
	<path class="st1" d="M100.5,21.2l1.3,0.2c-0.2,0.9-0.6,1.7-1.1,2.1c-0.6,0.5-1.2,0.7-2,0.7c-1,0-1.9-0.4-2.5-1.2
		c-0.6-0.8-1-1.9-1-3.4c0-1.5,0.3-2.7,1-3.5c0.6-0.8,1.4-1.2,2.4-1.2c0.9,0,1.7,0.4,2.3,1.2s0.9,1.9,0.9,3.4l0,0.4h-5.4
		c0,1,0.3,1.7,0.7,2.2c0.4,0.5,0.9,0.8,1.5,0.8C99.5,23,100.2,22.4,100.5,21.2z M96.5,18.8h4c-0.1-0.8-0.2-1.3-0.5-1.7
		c-0.4-0.5-0.9-0.8-1.5-0.8c-0.5,0-1,0.2-1.4,0.7C96.8,17.4,96.5,18,96.5,18.8z"/>
	<path class="st1" d="M102.5,24l2.6-4.6l-2.4-4.2h1.5l1.1,2.1c0.2,0.4,0.4,0.7,0.5,1c0.2-0.4,0.4-0.7,0.6-1l1.2-2.1h1.5l-2.5,4.1
		l2.7,4.7h-1.5l-1.5-2.7l-0.4-0.7L104,24H102.5z"/>
	<path class="st1" d="M113,22.7l0.2,1.3c-0.3,0.1-0.6,0.1-0.9,0.1c-0.4,0-0.8-0.1-1-0.3s-0.4-0.4-0.5-0.7c-0.1-0.3-0.1-0.9-0.1-1.8
		v-5.1h-0.9v-1.2h0.9V13l1.2-0.9v3.1h1.2v1.2h-1.2v5.2c0,0.5,0,0.8,0.1,0.9c0.1,0.2,0.3,0.3,0.6,0.3C112.6,22.7,112.8,22.7,113,22.7
		z"/>
	<path class="st1" d="M113.7,19.6c0-1.5,0.3-2.7,1-3.4c0.6-0.8,1.4-1.2,2.4-1.2c1,0,1.8,0.4,2.4,1.2s1,1.9,1,3.4
		c0,1.6-0.3,2.8-1,3.5c-0.6,0.8-1.4,1.2-2.4,1.2c-1,0-1.8-0.4-2.4-1.2C114,22.3,113.7,21.1,113.7,19.6z M115,19.6
		c0,1.1,0.2,2,0.6,2.5c0.4,0.6,0.9,0.8,1.5,0.8c0.6,0,1.1-0.3,1.5-0.8c0.4-0.6,0.6-1.4,0.6-2.5c0-1.1-0.2-2-0.6-2.5
		c-0.4-0.6-0.9-0.8-1.5-0.8c-0.6,0-1.1,0.3-1.5,0.8C115.2,17.6,115,18.5,115,19.6z"/>
	<path class="st1" d="M125.8,24V11.8h1.2V24H125.8z"/>
	<path class="st1" d="M133.6,22.9c-0.4,0.4-0.8,0.7-1.3,1c-0.4,0.2-0.9,0.3-1.4,0.3c-0.8,0-1.4-0.2-1.8-0.7s-0.7-1.1-0.7-1.8
		c0-0.5,0.1-1,0.3-1.4c0.2-0.4,0.5-0.7,0.9-0.9c0.4-0.2,0.9-0.4,1.7-0.5c1-0.1,1.7-0.3,2.2-0.5l0-0.4c0-0.6-0.1-1-0.3-1.3
		c-0.3-0.4-0.8-0.5-1.4-0.5c-0.6,0-1,0.1-1.3,0.4s-0.5,0.7-0.6,1.3l-1.2-0.2c0.2-0.9,0.5-1.6,1-2.1c0.5-0.4,1.3-0.6,2.2-0.6
		c0.8,0,1.4,0.1,1.8,0.4s0.7,0.6,0.8,1.1c0.1,0.4,0.2,1,0.2,1.8v2c0,1.4,0,2.3,0.1,2.6s0.2,0.7,0.3,1.1h-1.3
		C133.7,23.7,133.7,23.3,133.6,22.9z M133.5,19.6c-0.4,0.2-1.1,0.4-2,0.6c-0.5,0.1-0.9,0.2-1.1,0.3c-0.2,0.1-0.4,0.3-0.5,0.5
		c-0.1,0.2-0.2,0.4-0.2,0.7c0,0.4,0.1,0.8,0.4,1c0.3,0.3,0.6,0.4,1.1,0.4c0.4,0,0.8-0.1,1.2-0.3c0.4-0.2,0.6-0.5,0.8-0.9
		c0.2-0.4,0.3-0.9,0.3-1.7V19.6z"/>
	<path class="st1" d="M137.8,24h-1.1V11.8h1.2v4.3c0.3-0.4,0.6-0.7,0.9-0.9c0.3-0.2,0.7-0.3,1.1-0.3c0.6,0,1.1,0.2,1.5,0.5
		c0.5,0.3,0.8,0.8,1.1,1.5c0.3,0.7,0.4,1.5,0.4,2.5c0,1.5-0.3,2.6-0.9,3.5c-0.6,0.8-1.4,1.2-2.2,1.2c-0.4,0-0.8-0.1-1.1-0.3
		c-0.3-0.2-0.6-0.5-0.9-1V24z M137.8,19.5c0,0.9,0.1,1.6,0.3,2.1c0.2,0.5,0.4,0.8,0.7,1c0.3,0.2,0.6,0.4,1,0.4c0.5,0,1-0.3,1.3-0.9
		c0.4-0.6,0.6-1.4,0.6-2.5c0-1.2-0.2-2-0.6-2.5c-0.4-0.5-0.8-0.8-1.4-0.8c-0.5,0-1,0.3-1.4,0.9S137.8,18.5,137.8,19.5z"/>
	<path class="st1" d="M144,19.6c0-1.5,0.3-2.7,1-3.4c0.6-0.8,1.4-1.2,2.4-1.2c1,0,1.8,0.4,2.4,1.2s1,1.9,1,3.4c0,1.6-0.3,2.8-1,3.5
		c-0.6,0.8-1.4,1.2-2.4,1.2c-1,0-1.8-0.4-2.4-1.2C144.3,22.3,144,21.1,144,19.6z M145.2,19.6c0,1.1,0.2,2,0.6,2.5s0.9,0.8,1.5,0.8
		c0.6,0,1.1-0.3,1.5-0.8c0.4-0.6,0.6-1.4,0.6-2.5c0-1.1-0.2-2-0.6-2.5c-0.4-0.6-0.9-0.8-1.5-0.8c-0.6,0-1.1,0.3-1.5,0.8
		C145.4,17.6,145.2,18.5,145.2,19.6z"/>
	<path class="st1" d="M152.2,24v-8.8h1.1v1.3c0.3-0.6,0.5-1,0.8-1.2c0.2-0.2,0.5-0.3,0.8-0.3c0.4,0,0.8,0.2,1.3,0.5l-0.4,1.4
		c-0.3-0.2-0.6-0.3-0.9-0.3c-0.3,0-0.5,0.1-0.7,0.3c-0.2,0.2-0.4,0.4-0.5,0.8c-0.2,0.6-0.2,1.2-0.2,1.8V24H152.2z"/>
	<path class="st1" d="M161.5,22.9c-0.4,0.4-0.8,0.7-1.3,1c-0.4,0.2-0.9,0.3-1.4,0.3c-0.8,0-1.4-0.2-1.8-0.7s-0.7-1.1-0.7-1.8
		c0-0.5,0.1-1,0.3-1.4c0.2-0.4,0.5-0.7,0.9-0.9c0.4-0.2,0.9-0.4,1.7-0.5c1-0.1,1.7-0.3,2.2-0.5l0-0.4c0-0.6-0.1-1-0.3-1.3
		c-0.3-0.4-0.8-0.5-1.4-0.5c-0.6,0-1,0.1-1.3,0.4s-0.5,0.7-0.6,1.3l-1.2-0.2c0.2-0.9,0.5-1.6,1-2.1c0.5-0.4,1.3-0.6,2.2-0.6
		c0.8,0,1.4,0.1,1.8,0.4s0.7,0.6,0.8,1.1c0.1,0.4,0.2,1,0.2,1.8v2c0,1.4,0,2.3,0.1,2.6c0.1,0.4,0.2,0.7,0.3,1.1h-1.3
		C161.6,23.7,161.6,23.3,161.5,22.9z M161.4,19.6c-0.4,0.2-1.1,0.4-2,0.6c-0.5,0.1-0.9,0.2-1.1,0.3c-0.2,0.1-0.4,0.3-0.5,0.5
		c-0.1,0.2-0.2,0.4-0.2,0.7c0,0.4,0.1,0.8,0.4,1c0.3,0.3,0.6,0.4,1.1,0.4c0.4,0,0.8-0.1,1.2-0.3c0.4-0.2,0.6-0.5,0.8-0.9
		c0.2-0.4,0.3-0.9,0.3-1.7V19.6z"/>
	<path class="st1" d="M164.5,24V11.8h1.2V24H164.5z"/>
</g>
</svg>
