<?xml version="1.0" encoding="utf-8"?>
<!-- Generator: Adobe Illustrator 19.0.0, SVG Export Plug-In . SVG Version: 6.00 Build 0)  -->
<svg version="1.1" id="Capa_1" xmlns="http://www.w3.org/2000/svg" xmlns:xlink="http://www.w3.org/1999/xlink" x="0px" y="0px"
	 viewBox="0 0 232 38" style="enable-background:new 0 0 232 38;" xml:space="preserve">
<style type="text/css">
	.st0{opacity:0.75;fill:#B22926;enable-background:new    ;}
	.st1{enable-background:new    ;}
	.st2{fill:#FFFFFF;}
</style>
<rect id="XMLID_134814_" class="st0" width="232" height="38"/>
<g class="st1">
	<path class="st2" d="M65.9,18.1c0-2.1,0.5-3.7,1.4-4.8s2.1-1.7,3.4-1.7c0.9,0,1.7,0.2,2.4,0.7s1.3,1.2,1.7,2.2
		c0.4,0.9,0.6,2.1,0.6,3.4c0,1.8-0.4,3.3-1.2,4.4c-0.9,1.3-2.1,1.9-3.5,1.9c-1.5,0-2.7-0.6-3.6-1.9C66.3,21.1,65.9,19.7,65.9,18.1z
		 M67.3,18.1c0,1.5,0.3,2.7,1,3.5c0.7,0.8,1.5,1.2,2.4,1.2c1,0,1.8-0.4,2.4-1.3c0.7-0.8,1-2.1,1-3.7c0-1-0.2-2-0.5-2.8
		c-0.3-0.6-0.7-1.1-1.2-1.5c-0.5-0.4-1.1-0.6-1.7-0.6c-1,0-1.8,0.4-2.5,1.2C67.6,15.1,67.3,16.4,67.3,18.1z"/>
	<path class="st2" d="M78.1,24H77V11.8h1.2v4.3c0.3-0.4,0.6-0.7,0.9-0.9c0.3-0.2,0.7-0.3,1.1-0.3c0.6,0,1.1,0.2,1.5,0.5
		c0.5,0.3,0.8,0.8,1.1,1.5s0.4,1.5,0.4,2.5c0,1.5-0.3,2.6-0.9,3.5s-1.4,1.2-2.2,1.2c-0.4,0-0.8-0.1-1.1-0.3c-0.3-0.2-0.6-0.5-0.9-1
		V24z M78.1,19.5c0,0.9,0.1,1.6,0.2,2.1s0.4,0.8,0.7,1c0.3,0.2,0.6,0.4,1,0.4c0.5,0,1-0.3,1.3-0.9s0.6-1.4,0.6-2.5
		c0-1.2-0.2-2-0.6-2.5s-0.8-0.8-1.4-0.8c-0.5,0-1,0.3-1.4,0.9S78.1,18.5,78.1,19.5z"/>
	<path class="st2" d="M83.2,27.4l0.2-1.3c0.2,0.1,0.4,0.1,0.6,0.1c0.3,0,0.4-0.1,0.6-0.3c0.1-0.2,0.2-0.7,0.2-1.5v-9.3h1.2v9.3
		c0,1.2-0.2,2-0.5,2.4c-0.3,0.4-0.8,0.6-1.3,0.6C83.8,27.6,83.5,27.5,83.2,27.4z M84.7,13.6v-1.7h1.2v1.7H84.7z"/>
	<path class="st2" d="M92.8,21.2l1.3,0.2c-0.2,0.9-0.6,1.7-1.1,2.1c-0.6,0.5-1.2,0.7-2,0.7c-1,0-1.9-0.4-2.5-1.2
		c-0.6-0.8-1-1.9-1-3.4c0-1.5,0.3-2.7,1-3.5c0.6-0.8,1.4-1.2,2.4-1.2c0.9,0,1.7,0.4,2.3,1.2s0.9,1.9,0.9,3.4l0,0.4h-5.4
		c0,1,0.3,1.7,0.7,2.2c0.4,0.5,0.9,0.8,1.5,0.8C91.8,23,92.4,22.4,92.8,21.2z M88.8,18.8h4c-0.1-0.8-0.2-1.3-0.5-1.7
		c-0.4-0.5-0.9-0.8-1.5-0.8c-0.5,0-1,0.2-1.4,0.7C89,17.4,88.8,18,88.8,18.8z"/>
	<path class="st2" d="M98.3,22.7l0.2,1.3c-0.3,0.1-0.6,0.1-0.9,0.1c-0.4,0-0.8-0.1-1-0.3s-0.4-0.4-0.5-0.7c-0.1-0.3-0.1-0.9-0.1-1.8
		v-5.1H95v-1.2h0.9V13l1.2-0.9v3.1h1.2v1.2h-1.2v5.2c0,0.5,0,0.8,0.1,0.9c0.1,0.2,0.3,0.3,0.6,0.3C97.9,22.7,98.1,22.7,98.3,22.7z"
		/>
	<path class="st2" d="M99.5,13.6v-1.7h1.2v1.7H99.5z M99.5,24v-8.8h1.2V24H99.5z"/>
	<path class="st2" d="M104.6,24l-2.8-8.8h1.3l1.6,5.3c0.2,0.6,0.3,1.2,0.5,1.8c0.1-0.5,0.3-1,0.4-1.7l1.6-5.4h1.3l-2.8,8.8H104.6z"
		/>
	<path class="st2" d="M109.1,19.6c0-1.5,0.3-2.7,1-3.4c0.6-0.8,1.4-1.2,2.4-1.2c1,0,1.8,0.4,2.4,1.2s1,1.9,1,3.4
		c0,1.6-0.3,2.8-1,3.5s-1.4,1.2-2.4,1.2c-1,0-1.8-0.4-2.4-1.2C109.4,22.3,109.1,21.1,109.1,19.6z M110.3,19.6c0,1.1,0.2,2,0.6,2.5
		s0.9,0.8,1.5,0.8c0.6,0,1.1-0.3,1.5-0.8c0.4-0.6,0.6-1.4,0.6-2.5c0-1.1-0.2-2-0.6-2.5c-0.4-0.6-0.9-0.8-1.5-0.8
		c-0.6,0-1.1,0.3-1.5,0.8S110.3,18.5,110.3,19.6z"/>
	<path class="st2" d="M120.9,24.7l1.2,0.2c0.1,0.5,0.2,0.8,0.5,1.1c0.3,0.2,0.7,0.3,1.2,0.3c0.5,0,1-0.1,1.3-0.4
		c0.3-0.3,0.5-0.6,0.7-1.1c0.1-0.3,0.1-1,0.1-2c-0.3,0.4-0.6,0.7-0.9,0.9c-0.3,0.2-0.7,0.3-1.1,0.3c-0.9,0-1.6-0.4-2.2-1.1
		c-0.7-0.8-1-2-1-3.4c0-0.9,0.1-1.8,0.4-2.5c0.3-0.7,0.7-1.2,1.1-1.6c0.5-0.3,1-0.5,1.6-0.5c0.4,0,0.8,0.1,1.2,0.3
		c0.4,0.2,0.7,0.5,0.9,0.9v-1.1h1.1v7.6c0,1.4-0.1,2.3-0.3,2.9c-0.2,0.6-0.6,1-1.1,1.4c-0.5,0.3-1.1,0.5-1.8,0.5
		c-0.9,0-1.7-0.3-2.2-0.8C121.2,26.3,120.9,25.6,120.9,24.7z M121.9,19.5c0,1.2,0.2,2,0.6,2.5c0.4,0.5,0.9,0.8,1.4,0.8
		s1-0.3,1.4-0.8c0.4-0.5,0.6-1.4,0.6-2.5c0-1.1-0.2-1.9-0.6-2.5s-0.9-0.8-1.5-0.8c-0.5,0-1,0.3-1.3,0.8
		C122.1,17.6,121.9,18.4,121.9,19.5z"/>
	<path class="st2" d="M133.9,21.2l1.3,0.2c-0.2,0.9-0.6,1.7-1.1,2.1s-1.2,0.7-2,0.7c-1,0-1.9-0.4-2.5-1.2s-1-1.9-1-3.4
		c0-1.5,0.3-2.7,1-3.5c0.6-0.8,1.4-1.2,2.4-1.2c0.9,0,1.7,0.4,2.3,1.2c0.6,0.8,0.9,1.9,0.9,3.4l0,0.4h-5.4c0,1,0.3,1.7,0.7,2.2
		c0.4,0.5,0.9,0.8,1.5,0.8C132.9,23,133.5,22.4,133.9,21.2z M129.8,18.8h4c-0.1-0.8-0.2-1.3-0.5-1.7c-0.4-0.5-0.9-0.8-1.5-0.8
		c-0.5,0-1,0.2-1.4,0.7C130.1,17.4,129.9,18,129.8,18.8z"/>
	<path class="st2" d="M136.7,24v-8.8h1.1v1.2c0.3-0.5,0.6-0.8,1-1.1s0.8-0.4,1.3-0.4c0.4,0,0.7,0.1,1.1,0.2c0.3,0.2,0.6,0.4,0.8,0.6
		c0.2,0.2,0.4,0.6,0.5,1c0.1,0.4,0.1,1,0.1,1.8V24h-1.2v-5.4c0-0.6-0.1-1.1-0.2-1.4c-0.1-0.3-0.3-0.5-0.5-0.7
		c-0.2-0.2-0.5-0.2-0.8-0.2c-0.6,0-1.1,0.2-1.4,0.7s-0.5,1.2-0.5,2.3V24H136.7z"/>
	<path class="st2" d="M149.4,21.2l1.3,0.2c-0.2,0.9-0.6,1.7-1.1,2.1s-1.2,0.7-2,0.7c-1,0-1.9-0.4-2.5-1.2s-1-1.9-1-3.4
		c0-1.5,0.3-2.7,1-3.5c0.6-0.8,1.4-1.2,2.4-1.2c0.9,0,1.7,0.4,2.3,1.2c0.6,0.8,0.9,1.9,0.9,3.4l0,0.4h-5.4c0,1,0.3,1.7,0.7,2.2
		c0.4,0.5,0.9,0.8,1.5,0.8C148.4,23,149,22.4,149.4,21.2z M145.3,18.8h4c-0.1-0.8-0.2-1.3-0.5-1.7c-0.4-0.5-0.9-0.8-1.5-0.8
		c-0.5,0-1,0.2-1.4,0.7C145.6,17.4,145.4,18,145.3,18.8z"/>
	<path class="st2" d="M152.2,24v-8.8h1.1v1.3c0.3-0.6,0.5-1,0.8-1.2c0.2-0.2,0.5-0.3,0.8-0.3c0.4,0,0.8,0.2,1.3,0.5l-0.4,1.4
		c-0.3-0.2-0.6-0.3-0.9-0.3c-0.3,0-0.5,0.1-0.7,0.3c-0.2,0.2-0.4,0.4-0.5,0.8c-0.2,0.6-0.2,1.2-0.2,1.8V24H152.2z"/>
	<path class="st2" d="M161.5,22.9c-0.4,0.4-0.8,0.7-1.3,1c-0.4,0.2-0.9,0.3-1.4,0.3c-0.8,0-1.4-0.2-1.8-0.7s-0.7-1.1-0.7-1.8
		c0-0.5,0.1-1,0.3-1.4c0.2-0.4,0.5-0.7,0.9-0.9c0.4-0.2,0.9-0.4,1.7-0.5c1-0.1,1.7-0.3,2.2-0.5l0-0.4c0-0.6-0.1-1-0.3-1.3
		c-0.3-0.4-0.8-0.5-1.4-0.5c-0.6,0-1,0.1-1.3,0.4s-0.5,0.7-0.6,1.3l-1.2-0.2c0.2-0.9,0.5-1.6,1-2.1c0.5-0.4,1.3-0.6,2.2-0.6
		c0.8,0,1.4,0.1,1.8,0.4s0.7,0.6,0.8,1.1c0.1,0.4,0.2,1,0.2,1.8v2c0,1.4,0,2.3,0.1,2.6c0.1,0.4,0.2,0.7,0.3,1.1h-1.3
		C161.6,23.7,161.6,23.3,161.5,22.9z M161.4,19.6c-0.4,0.2-1.1,0.4-2,0.6c-0.5,0.1-0.9,0.2-1.1,0.3c-0.2,0.1-0.4,0.3-0.5,0.5
		c-0.1,0.2-0.2,0.4-0.2,0.7c0,0.4,0.1,0.8,0.4,1c0.3,0.3,0.6,0.4,1.1,0.4c0.4,0,0.8-0.1,1.2-0.3c0.4-0.2,0.6-0.5,0.8-0.9
		c0.2-0.4,0.3-0.9,0.3-1.7V19.6z"/>
	<path class="st2" d="M164.5,24V11.8h1.2V24H164.5z"/>
</g>
</svg>
