<?xml version="1.0" encoding="utf-8"?>
<!-- Generator: Adobe Illustrator 19.0.0, SVG Export Plug-In . SVG Version: 6.00 Build 0)  -->
<svg version="1.1" id="Capa_1" xmlns="http://www.w3.org/2000/svg" xmlns:xlink="http://www.w3.org/1999/xlink" x="0px" y="0px"
	 viewBox="0 0 232 38" style="enable-background:new 0 0 232 38;" xml:space="preserve">
<style type="text/css">
	.st0{opacity:0.75;fill:#B22926;enable-background:new    ;}
	.st1{enable-background:new    ;}
	.st2{fill:#FFFFFF;}
</style>
<rect id="XMLID_134814_" class="st0" width="232" height="38"/>
<g class="st1">
	<path class="st2" d="M78.7,24V11.8h2l2.4,8.6l0.5,1.8c0.1-0.4,0.3-1.1,0.5-2l2.4-8.5h1.8V24h-1.3V13.8L84,24h-1.2l-2.9-10.4V24
		H78.7z"/>
	<path class="st2" d="M95.1,21.2l1.3,0.2c-0.2,0.9-0.6,1.7-1.1,2.1c-0.6,0.5-1.2,0.7-2,0.7c-1,0-1.9-0.4-2.5-1.2
		c-0.6-0.8-1-1.9-1-3.4c0-1.5,0.3-2.7,1-3.5c0.6-0.8,1.4-1.2,2.4-1.2c0.9,0,1.7,0.4,2.3,1.2s0.9,1.9,0.9,3.4l0,0.4H91
		c0,1,0.3,1.7,0.7,2.2c0.4,0.5,0.9,0.8,1.5,0.8C94.1,23,94.7,22.4,95.1,21.2z M91.1,18.8h4c-0.1-0.8-0.2-1.3-0.5-1.7
		c-0.4-0.5-0.9-0.8-1.5-0.8c-0.5,0-1,0.2-1.4,0.7C91.3,17.4,91.1,18,91.1,18.8z"/>
	<path class="st2" d="M100.6,22.7l0.2,1.3c-0.3,0.1-0.6,0.1-0.9,0.1c-0.4,0-0.8-0.1-1-0.3s-0.4-0.4-0.5-0.7
		c-0.1-0.3-0.1-0.9-0.1-1.8v-5.1h-0.9v-1.2h0.9V13l1.2-0.9v3.1h1.2v1.2h-1.2v5.2c0,0.5,0,0.8,0.1,0.9c0.1,0.2,0.3,0.3,0.6,0.3
		C100.2,22.7,100.4,22.7,100.6,22.7z"/>
	<path class="st2" d="M101.3,19.6c0-1.5,0.3-2.7,1-3.4c0.6-0.8,1.4-1.2,2.4-1.2c1,0,1.8,0.4,2.4,1.2s1,1.9,1,3.4
		c0,1.6-0.3,2.8-1,3.5s-1.4,1.2-2.4,1.2c-1,0-1.8-0.4-2.4-1.2C101.6,22.3,101.3,21.1,101.3,19.6z M102.6,19.6c0,1.1,0.2,2,0.6,2.5
		s0.9,0.8,1.5,0.8c0.6,0,1.1-0.3,1.5-0.8c0.4-0.6,0.6-1.4,0.6-2.5c0-1.1-0.2-2-0.6-2.5c-0.4-0.6-0.9-0.8-1.5-0.8
		c-0.6,0-1.1,0.3-1.5,0.8S102.6,18.5,102.6,19.6z"/>
	<path class="st2" d="M114.2,24v-1.1c-0.2,0.4-0.5,0.8-0.9,1c-0.3,0.2-0.7,0.3-1.1,0.3c-0.9,0-1.6-0.4-2.2-1.2
		c-0.6-0.8-0.9-1.9-0.9-3.4c0-1,0.1-1.9,0.4-2.5c0.3-0.7,0.6-1.2,1.1-1.6c0.5-0.3,1-0.5,1.5-0.5c0.4,0,0.8,0.1,1.1,0.3
		s0.6,0.5,0.9,0.9v-4.4h1.2V24H114.2z M110.3,19.6c0,1.1,0.2,2,0.6,2.5s0.9,0.8,1.4,0.8c0.5,0,1-0.3,1.4-0.8
		c0.4-0.5,0.6-1.3,0.6-2.4c0-1.2-0.2-2.1-0.6-2.7c-0.4-0.6-0.9-0.9-1.4-0.9c-0.5,0-1,0.3-1.3,0.8C110.5,17.6,110.3,18.4,110.3,19.6z
		"/>
	<path class="st2" d="M116.8,19.6c0-1.5,0.3-2.7,1-3.4c0.6-0.8,1.4-1.2,2.4-1.2c1,0,1.8,0.4,2.4,1.2s1,1.9,1,3.4
		c0,1.6-0.3,2.8-1,3.5c-0.6,0.8-1.4,1.2-2.4,1.2c-1,0-1.8-0.4-2.4-1.2S116.8,21.1,116.8,19.6z M118.1,19.6c0,1.1,0.2,2,0.6,2.5
		s0.9,0.8,1.5,0.8c0.6,0,1.1-0.3,1.5-0.8s0.6-1.4,0.6-2.5c0-1.1-0.2-2-0.6-2.5c-0.4-0.6-0.9-0.8-1.5-0.8c-0.6,0-1.1,0.3-1.5,0.8
		C118.3,17.6,118.1,18.5,118.1,19.6z"/>
	<path class="st2" d="M125,24V11.8h1.2V24H125z"/>
	<path class="st2" d="M127.7,19.6c0-1.5,0.3-2.7,1-3.4c0.6-0.8,1.4-1.2,2.4-1.2c1,0,1.8,0.4,2.4,1.2s1,1.9,1,3.4
		c0,1.6-0.3,2.8-1,3.5c-0.6,0.8-1.4,1.2-2.4,1.2c-1,0-1.8-0.4-2.4-1.2C128,22.3,127.7,21.1,127.7,19.6z M128.9,19.6
		c0,1.1,0.2,2,0.6,2.5s0.9,0.8,1.5,0.8c0.6,0,1.1-0.3,1.5-0.8c0.4-0.6,0.6-1.4,0.6-2.5c0-1.1-0.2-2-0.6-2.5
		c-0.4-0.6-0.9-0.8-1.5-0.8c-0.6,0-1.1,0.3-1.5,0.8C129.1,17.6,128.9,18.5,128.9,19.6z"/>
	<path class="st2" d="M135.6,24.7l1.2,0.2c0.1,0.5,0.2,0.8,0.5,1.1c0.3,0.2,0.7,0.3,1.2,0.3c0.5,0,1-0.1,1.3-0.4
		c0.3-0.3,0.5-0.6,0.7-1.1c0.1-0.3,0.1-1,0.1-2c-0.3,0.4-0.6,0.7-0.9,0.9c-0.3,0.2-0.7,0.3-1.1,0.3c-0.9,0-1.6-0.4-2.2-1.1
		c-0.7-0.8-1-2-1-3.4c0-0.9,0.1-1.8,0.4-2.5c0.3-0.7,0.7-1.2,1.1-1.6c0.5-0.3,1-0.5,1.6-0.5c0.4,0,0.8,0.1,1.2,0.3
		c0.4,0.2,0.7,0.5,0.9,0.9v-1.1h1.1v7.6c0,1.4-0.1,2.3-0.3,2.9c-0.2,0.6-0.6,1-1.1,1.4c-0.5,0.3-1.1,0.5-1.8,0.5
		c-0.9,0-1.7-0.3-2.2-0.8C135.9,26.3,135.6,25.6,135.6,24.7z M136.7,19.5c0,1.2,0.2,2,0.6,2.5c0.4,0.5,0.9,0.8,1.4,0.8
		s1-0.3,1.4-0.8c0.4-0.5,0.6-1.4,0.6-2.5c0-1.1-0.2-1.9-0.6-2.5s-0.9-0.8-1.5-0.8c-0.5,0-1,0.3-1.3,0.8
		C136.9,17.6,136.7,18.4,136.7,19.5z"/>
	<path class="st2" d="M143.8,14.1l0.9-2.3h1.6l-1.5,2.3H143.8z M144.1,24v-8.8h1.2V24H144.1z"/>
	<path class="st2" d="M152.2,22.9c-0.4,0.4-0.8,0.7-1.3,1c-0.4,0.2-0.9,0.3-1.4,0.3c-0.8,0-1.4-0.2-1.8-0.7s-0.7-1.1-0.7-1.8
		c0-0.5,0.1-1,0.3-1.4c0.2-0.4,0.5-0.7,0.9-0.9c0.4-0.2,0.9-0.4,1.7-0.5c1-0.1,1.7-0.3,2.2-0.5l0-0.4c0-0.6-0.1-1-0.3-1.3
		c-0.3-0.4-0.8-0.5-1.4-0.5c-0.6,0-1,0.1-1.3,0.4s-0.5,0.7-0.6,1.3l-1.2-0.2c0.2-0.9,0.5-1.6,1-2.1c0.5-0.4,1.3-0.6,2.2-0.6
		c0.8,0,1.4,0.1,1.8,0.4s0.7,0.6,0.8,1.1c0.1,0.4,0.2,1,0.2,1.8v2c0,1.4,0,2.3,0.1,2.6c0.1,0.4,0.2,0.7,0.3,1.1h-1.3
		C152.3,23.7,152.3,23.3,152.2,22.9z M152.1,19.6c-0.4,0.2-1.1,0.4-2,0.6c-0.5,0.1-0.9,0.2-1.1,0.3c-0.2,0.1-0.4,0.3-0.5,0.5
		c-0.1,0.2-0.2,0.4-0.2,0.7c0,0.4,0.1,0.8,0.4,1c0.3,0.3,0.6,0.4,1.1,0.4c0.4,0,0.8-0.1,1.2-0.3c0.4-0.2,0.6-0.5,0.8-0.9
		c0.2-0.4,0.3-0.9,0.3-1.7V19.6z"/>
</g>
</svg>
