<?xml version="1.0" encoding="utf-8"?>
<!-- Generator: Adobe Illustrator 19.0.0, SVG Export Plug-In . SVG Version: 6.00 Build 0)  -->
<svg version="1.1" id="Capa_1" xmlns="http://www.w3.org/2000/svg" xmlns:xlink="http://www.w3.org/1999/xlink" x="0px" y="0px"
	 viewBox="0 0 232 38" style="enable-background:new 0 0 232 38;" xml:space="preserve">
<style type="text/css">
	.st0{enable-background:new    ;}
	.st1{fill:#F8DEB7;}
</style>
<g class="st0">
	<path class="st1" d="M81.9,24V11.8h6.7v1.4h-5.4v3.8h4.7v1.4h-4.7V24H81.9z"/>
	<path class="st1" d="M94.9,22.9c-0.4,0.4-0.8,0.7-1.3,1c-0.4,0.2-0.9,0.3-1.4,0.3c-0.8,0-1.4-0.2-1.8-0.7s-0.7-1.1-0.7-1.8
		c0-0.5,0.1-1,0.3-1.4s0.5-0.7,0.9-0.9c0.4-0.2,0.9-0.4,1.7-0.5c1-0.1,1.7-0.3,2.2-0.5l0-0.4c0-0.6-0.1-1-0.3-1.3
		c-0.3-0.4-0.8-0.5-1.4-0.5c-0.6,0-1,0.1-1.3,0.4s-0.5,0.7-0.6,1.3l-1.2-0.2c0.2-0.9,0.5-1.6,1-2.1c0.5-0.4,1.3-0.6,2.2-0.6
		c0.8,0,1.4,0.1,1.8,0.4s0.7,0.6,0.8,1.1c0.1,0.4,0.2,1,0.2,1.8v2c0,1.4,0,2.3,0.1,2.6c0.1,0.4,0.2,0.7,0.3,1.1h-1.3
		C95,23.7,94.9,23.3,94.9,22.9z M94.8,19.6c-0.4,0.2-1.1,0.4-2,0.6c-0.5,0.1-0.9,0.2-1.1,0.3s-0.4,0.3-0.5,0.5
		c-0.1,0.2-0.2,0.4-0.2,0.7c0,0.4,0.1,0.8,0.4,1s0.6,0.4,1.1,0.4c0.4,0,0.8-0.1,1.2-0.3c0.4-0.2,0.6-0.5,0.8-0.9s0.3-0.9,0.3-1.7
		V19.6z"/>
	<path class="st1" d="M97.4,21.4l1.2-0.2c0.1,0.6,0.3,1.1,0.6,1.4c0.3,0.3,0.7,0.5,1.3,0.5s0.9-0.1,1.2-0.4c0.3-0.3,0.4-0.6,0.4-1
		c0-0.3-0.1-0.6-0.4-0.8c-0.2-0.1-0.6-0.3-1.2-0.5c-1-0.3-1.6-0.5-1.9-0.7s-0.6-0.5-0.7-0.8c-0.2-0.3-0.3-0.7-0.3-1.2
		c0-0.8,0.2-1.4,0.7-1.8c0.5-0.5,1.1-0.7,2-0.7c0.5,0,1,0.1,1.4,0.3c0.4,0.2,0.7,0.5,0.9,0.8c0.2,0.3,0.4,0.8,0.4,1.4l-1.2,0.2
		c-0.1-1-0.6-1.4-1.6-1.4c-0.5,0-0.9,0.1-1.2,0.3s-0.4,0.5-0.4,0.8c0,0.3,0.1,0.6,0.4,0.8c0.1,0.1,0.6,0.3,1.3,0.5
		c1,0.3,1.7,0.6,2,0.8s0.5,0.5,0.7,0.8s0.2,0.7,0.2,1.2c0,0.8-0.3,1.5-0.8,2c-0.5,0.5-1.3,0.8-2.2,0.8
		C98.7,24.2,97.7,23.3,97.4,21.4z"/>
	<path class="st1" d="M109.8,21.2l1.3,0.2c-0.2,0.9-0.6,1.7-1.1,2.1c-0.6,0.5-1.2,0.7-2,0.7c-1,0-1.9-0.4-2.5-1.2
		c-0.6-0.8-1-1.9-1-3.4c0-1.5,0.3-2.7,1-3.5c0.6-0.8,1.4-1.2,2.4-1.2c0.9,0,1.7,0.4,2.3,1.2s0.9,1.9,0.9,3.4l0,0.4h-5.4
		c0,1,0.3,1.7,0.7,2.2c0.4,0.5,0.9,0.8,1.5,0.8C108.8,23,109.5,22.4,109.8,21.2z M105.8,18.8h4c-0.1-0.8-0.2-1.3-0.5-1.7
		c-0.4-0.5-0.9-0.8-1.5-0.8c-0.5,0-1,0.2-1.4,0.7C106.1,17.4,105.8,18,105.8,18.8z"/>
	<path class="st1" d="M118.5,24l-2.7-8.8h1.3l1.6,5.3c0.2,0.6,0.3,1.2,0.5,1.8c0.1-0.5,0.3-1,0.4-1.7l1.6-5.4h1.3l-2.8,8.8H118.5z"
		/>
	<path class="st1" d="M123.5,13.6v-1.7h1.2v1.7H123.5z M123.5,24v-8.8h1.2V24H123.5z"/>
	<path class="st1" d="M126.1,21.4l1.2-0.2c0.1,0.6,0.3,1.1,0.6,1.4c0.3,0.3,0.7,0.5,1.3,0.5c0.5,0,0.9-0.1,1.2-0.4s0.4-0.6,0.4-1
		c0-0.3-0.1-0.6-0.4-0.8c-0.2-0.1-0.6-0.3-1.2-0.5c-1-0.3-1.6-0.5-1.9-0.7c-0.3-0.2-0.6-0.5-0.7-0.8c-0.2-0.3-0.3-0.7-0.3-1.2
		c0-0.8,0.2-1.4,0.7-1.8c0.5-0.5,1.1-0.7,2-0.7c0.5,0,1,0.1,1.4,0.3c0.4,0.2,0.7,0.5,0.9,0.8c0.2,0.3,0.4,0.8,0.4,1.4l-1.2,0.2
		c-0.1-1-0.6-1.4-1.6-1.4c-0.5,0-0.9,0.1-1.2,0.3c-0.3,0.2-0.4,0.5-0.4,0.8c0,0.3,0.1,0.6,0.4,0.8c0.1,0.1,0.6,0.3,1.3,0.5
		c1,0.3,1.7,0.6,2,0.8s0.5,0.5,0.7,0.8c0.2,0.3,0.2,0.7,0.2,1.2c0,0.8-0.3,1.5-0.8,2c-0.5,0.5-1.3,0.8-2.2,0.8
		C127.4,24.2,126.4,23.3,126.1,21.4z"/>
	<path class="st1" d="M138.3,24v-1.3c-0.3,0.5-0.6,0.9-1,1.1c-0.4,0.2-0.8,0.4-1.3,0.4c-0.6,0-1.1-0.2-1.5-0.5
		c-0.4-0.3-0.7-0.7-0.8-1.2s-0.2-1.1-0.2-1.9v-5.5h1.2v4.9c0,0.9,0,1.5,0.1,1.8c0.1,0.3,0.3,0.6,0.5,0.7s0.5,0.3,0.8,0.3
		c0.6,0,1.1-0.2,1.4-0.7c0.3-0.4,0.5-1.2,0.5-2.3v-4.7h1.2V24H138.3z"/>
	<path class="st1" d="M146,22.9c-0.4,0.4-0.8,0.7-1.3,1c-0.4,0.2-0.9,0.3-1.4,0.3c-0.8,0-1.4-0.2-1.8-0.7s-0.7-1.1-0.7-1.8
		c0-0.5,0.1-1,0.3-1.4c0.2-0.4,0.5-0.7,0.9-0.9c0.4-0.2,0.9-0.4,1.7-0.5c1-0.1,1.7-0.3,2.2-0.5l0-0.4c0-0.6-0.1-1-0.3-1.3
		c-0.3-0.4-0.8-0.5-1.4-0.5c-0.6,0-1,0.1-1.3,0.4s-0.5,0.7-0.6,1.3l-1.2-0.2c0.2-0.9,0.5-1.6,1-2.1c0.5-0.4,1.3-0.6,2.2-0.6
		c0.8,0,1.4,0.1,1.8,0.4s0.7,0.6,0.8,1.1c0.1,0.4,0.2,1,0.2,1.8v2c0,1.4,0,2.3,0.1,2.6c0.1,0.4,0.2,0.7,0.3,1.1h-1.3
		C146.1,23.7,146.1,23.3,146,22.9z M145.9,19.6c-0.4,0.2-1.1,0.4-2,0.6c-0.5,0.1-0.9,0.2-1.1,0.3c-0.2,0.1-0.4,0.3-0.5,0.5
		c-0.1,0.2-0.2,0.4-0.2,0.7c0,0.4,0.1,0.8,0.4,1c0.3,0.3,0.6,0.4,1.1,0.4c0.4,0,0.8-0.1,1.2-0.3c0.4-0.2,0.6-0.5,0.8-0.9
		c0.2-0.4,0.3-0.9,0.3-1.7V19.6z"/>
	<path class="st1" d="M149,24V11.8h1.2V24H149z"/>
</g>
</svg>
