<?xml version="1.0" encoding="utf-8"?>
<!-- Generator: Adobe Illustrator 19.0.0, SVG Export Plug-In . SVG Version: 6.00 Build 0)  -->
<svg version="1.1" id="Capa_1" xmlns="http://www.w3.org/2000/svg" xmlns:xlink="http://www.w3.org/1999/xlink" x="0px" y="0px"
	 viewBox="0 0 232 38" style="enable-background:new 0 0 232 38;" xml:space="preserve">
<style type="text/css">
	.st0{enable-background:new    ;}
	.st1{fill:#F8DEB7;}
</style>
<g class="st0">
	<path class="st1" d="M67.1,24V11.8h4.4c0.9,0,1.6,0.1,2,0.3c0.4,0.2,0.8,0.6,1.1,1.1s0.4,1.1,0.4,1.8c0,0.9-0.2,1.7-0.7,2.2
		c-0.5,0.6-1.2,0.9-2.1,1.1c0.4,0.2,0.7,0.4,0.8,0.7c0.4,0.5,0.7,1,1,1.6l1.7,3.3h-1.7l-1.3-2.5c-0.5-1-0.9-1.7-1.2-2
		s-0.5-0.6-0.8-0.7s-0.6-0.2-1-0.2h-1.5V24H67.1z M68.4,17.2h2.8c0.6,0,1.1-0.1,1.4-0.2s0.6-0.4,0.8-0.7c0.2-0.3,0.3-0.7,0.3-1.1
		c0-0.6-0.2-1.1-0.5-1.4s-0.9-0.5-1.6-0.5h-3.2V17.2z"/>
	<path class="st1" d="M81.9,21.2l1.3,0.2C83,22.3,82.6,23,82,23.5c-0.6,0.5-1.2,0.7-2,0.7c-1,0-1.9-0.4-2.5-1.2
		c-0.6-0.8-1-1.9-1-3.4c0-1.5,0.3-2.7,1-3.5C78.2,15.4,79,15,80,15c0.9,0,1.7,0.4,2.3,1.2s0.9,1.9,0.9,3.4l0,0.4h-5.4
		c0,1,0.3,1.7,0.7,2.2c0.4,0.5,0.9,0.8,1.5,0.8C80.9,23,81.6,22.4,81.9,21.2z M77.9,18.8h4c-0.1-0.8-0.2-1.3-0.5-1.7
		c-0.4-0.5-0.9-0.8-1.5-0.8c-0.5,0-1,0.2-1.4,0.7C78.2,17.4,77.9,18,77.9,18.8z"/>
	<path class="st1" d="M89.5,20.8l1.2,0.2c-0.1,1.1-0.5,1.9-1,2.4c-0.6,0.6-1.2,0.8-2,0.8c-0.9,0-1.7-0.4-2.3-1.2
		c-0.6-0.8-0.9-1.9-0.9-3.4c0-1.5,0.3-2.7,0.9-3.4c0.6-0.8,1.4-1.1,2.4-1.1c0.7,0,1.4,0.2,1.9,0.7c0.5,0.5,0.8,1.2,1,2.1L89.4,18
		c-0.1-0.6-0.3-1-0.6-1.3c-0.3-0.3-0.6-0.4-1-0.4c-0.6,0-1.1,0.3-1.5,0.8c-0.4,0.5-0.6,1.4-0.6,2.5c0,1.2,0.2,2.1,0.6,2.6
		c0.4,0.5,0.9,0.8,1.5,0.8c0.5,0,0.9-0.2,1.2-0.5C89.2,22.1,89.4,21.5,89.5,20.8z"/>
	<path class="st1" d="M91.2,19.6c0-1.5,0.3-2.7,1-3.4c0.6-0.8,1.4-1.2,2.4-1.2c1,0,1.8,0.4,2.4,1.2s1,1.9,1,3.4c0,1.6-0.3,2.8-1,3.5
		s-1.4,1.2-2.4,1.2c-1,0-1.8-0.4-2.4-1.2C91.6,22.3,91.2,21.1,91.2,19.6z M92.5,19.6c0,1.1,0.2,2,0.6,2.5s0.9,0.8,1.5,0.8
		c0.6,0,1.1-0.3,1.5-0.8c0.4-0.6,0.6-1.4,0.6-2.5c0-1.1-0.2-2-0.6-2.5c-0.4-0.6-0.9-0.8-1.5-0.8c-0.6,0-1.1,0.3-1.5,0.8
		S92.5,18.5,92.5,19.6z"/>
	<path class="st1" d="M99.5,24v-8.8h1.1v1.2c0.3-0.5,0.6-0.8,1-1.1s0.8-0.4,1.3-0.4c0.4,0,0.7,0.1,1.1,0.2s0.6,0.4,0.8,0.6
		c0.2,0.2,0.4,0.6,0.5,1c0.1,0.4,0.1,1,0.1,1.8V24h-1.2v-5.4c0-0.6-0.1-1.1-0.2-1.4s-0.3-0.5-0.5-0.7c-0.2-0.2-0.5-0.2-0.8-0.2
		c-0.6,0-1.1,0.2-1.4,0.7s-0.5,1.2-0.5,2.3V24H99.5z"/>
	<path class="st1" d="M106.8,19.6c0-1.5,0.3-2.7,1-3.4c0.6-0.8,1.4-1.2,2.4-1.2c1,0,1.8,0.4,2.4,1.2s1,1.9,1,3.4
		c0,1.6-0.3,2.8-1,3.5s-1.4,1.2-2.4,1.2c-1,0-1.8-0.4-2.4-1.2C107.1,22.3,106.8,21.1,106.8,19.6z M108,19.6c0,1.1,0.2,2,0.6,2.5
		s0.9,0.8,1.5,0.8c0.6,0,1.1-0.3,1.5-0.8c0.4-0.6,0.6-1.4,0.6-2.5c0-1.1-0.2-2-0.6-2.5c-0.4-0.6-0.9-0.8-1.5-0.8
		c-0.6,0-1.1,0.3-1.5,0.8S108,18.5,108,19.6z"/>
	<path class="st1" d="M119.7,20.8l1.2,0.2c-0.1,1.1-0.5,1.9-1,2.4c-0.6,0.6-1.2,0.8-2,0.8c-0.9,0-1.7-0.4-2.3-1.2
		c-0.6-0.8-0.9-1.9-0.9-3.4c0-1.5,0.3-2.7,0.9-3.4c0.6-0.8,1.4-1.1,2.4-1.1c0.7,0,1.4,0.2,1.9,0.7s0.8,1.2,1,2.1l-1.2,0.2
		c-0.1-0.6-0.3-1-0.6-1.3c-0.3-0.3-0.6-0.4-1-0.4c-0.6,0-1.1,0.3-1.5,0.8c-0.4,0.5-0.6,1.4-0.6,2.5c0,1.2,0.2,2.1,0.6,2.6
		c0.4,0.5,0.9,0.8,1.5,0.8c0.5,0,0.9-0.2,1.2-0.5C119.4,22.1,119.6,21.5,119.7,20.8z"/>
	<path class="st1" d="M121.9,13.6v-1.7h1.2v1.7H121.9z M121.9,24v-8.8h1.2V24H121.9z"/>
	<path class="st1" d="M125,24v-8.8h1.1v1.2c0.2-0.5,0.6-0.8,0.9-1.1c0.4-0.2,0.8-0.4,1.3-0.4c0.5,0,0.9,0.1,1.3,0.4
		c0.4,0.3,0.6,0.6,0.8,1.1c0.3-0.5,0.6-0.9,1-1.2s0.8-0.4,1.2-0.4c0.7,0,1.2,0.2,1.6,0.7c0.4,0.5,0.6,1.2,0.6,2.3V24h-1.2v-5.6
		c0-0.6,0-1.1-0.1-1.3c-0.1-0.3-0.2-0.5-0.4-0.6c-0.2-0.1-0.4-0.2-0.7-0.2c-0.5,0-1,0.2-1.3,0.6s-0.5,1.1-0.5,2V24h-1.2v-5.7
		c0-0.7-0.1-1.2-0.3-1.5c-0.2-0.3-0.5-0.4-0.9-0.4c-0.6,0-1,0.2-1.3,0.7c-0.3,0.5-0.5,1.3-0.5,2.5V24H125z"/>
	<path class="st1" d="M136.7,13.6v-1.7h1.2v1.7H136.7z M136.7,24v-8.8h1.2V24H136.7z"/>
	<path class="st1" d="M144.7,21.2l1.3,0.2c-0.2,0.9-0.6,1.7-1.1,2.1c-0.5,0.5-1.2,0.7-2,0.7c-1,0-1.9-0.4-2.5-1.2
		c-0.6-0.8-1-1.9-1-3.4c0-1.5,0.3-2.7,1-3.5c0.6-0.8,1.4-1.2,2.4-1.2c0.9,0,1.7,0.4,2.3,1.2c0.6,0.8,0.9,1.9,0.9,3.4l0,0.4h-5.4
		c0,1,0.3,1.7,0.7,2.2c0.4,0.5,0.9,0.8,1.5,0.8C143.7,23,144.3,22.4,144.7,21.2z M140.7,18.8h4c-0.1-0.8-0.2-1.3-0.5-1.7
		c-0.4-0.5-0.9-0.8-1.5-0.8c-0.5,0-1,0.2-1.4,0.7C140.9,17.4,140.7,18,140.7,18.8z"/>
	<path class="st1" d="M147.5,24v-8.8h1.1v1.2c0.3-0.5,0.6-0.8,1-1.1s0.8-0.4,1.3-0.4c0.4,0,0.7,0.1,1.1,0.2c0.3,0.2,0.6,0.4,0.8,0.6
		s0.4,0.6,0.5,1c0.1,0.4,0.1,1,0.1,1.8V24h-1.2v-5.4c0-0.6-0.1-1.1-0.2-1.4c-0.1-0.3-0.3-0.5-0.5-0.7c-0.2-0.2-0.5-0.2-0.8-0.2
		c-0.6,0-1.1,0.2-1.4,0.7s-0.5,1.2-0.5,2.3V24H147.5z"/>
	<path class="st1" d="M158,22.7l0.2,1.3c-0.3,0.1-0.6,0.1-0.9,0.1c-0.4,0-0.8-0.1-1-0.3c-0.3-0.2-0.4-0.4-0.5-0.7
		c-0.1-0.3-0.1-0.9-0.1-1.8v-5.1h-0.9v-1.2h0.9V13l1.2-0.9v3.1h1.2v1.2h-1.2v5.2c0,0.5,0,0.8,0.1,0.9c0.1,0.2,0.3,0.3,0.6,0.3
		C157.6,22.7,157.8,22.7,158,22.7z"/>
	<path class="st1" d="M158.7,19.6c0-1.5,0.3-2.7,1-3.4c0.6-0.8,1.4-1.2,2.4-1.2c1,0,1.8,0.4,2.4,1.2s1,1.9,1,3.4
		c0,1.6-0.3,2.8-1,3.5c-0.6,0.8-1.4,1.2-2.4,1.2c-1,0-1.8-0.4-2.4-1.2C159,22.3,158.7,21.1,158.7,19.6z M159.9,19.6
		c0,1.1,0.2,2,0.6,2.5s0.9,0.8,1.5,0.8c0.6,0,1.1-0.3,1.5-0.8c0.4-0.6,0.6-1.4,0.6-2.5c0-1.1-0.2-2-0.6-2.5
		c-0.4-0.6-0.9-0.8-1.5-0.8c-0.6,0-1.1,0.3-1.5,0.8C160.1,17.6,159.9,18.5,159.9,19.6z"/>
</g>
</svg>
