<?xml version="1.0" encoding="utf-8"?>
<!-- Generator: Adobe Illustrator 19.0.0, SVG Export Plug-In . SVG Version: 6.00 Build 0)  -->
<svg version="1.1" id="Capa_1" xmlns="http://www.w3.org/2000/svg" xmlns:xlink="http://www.w3.org/1999/xlink" x="0px" y="0px"
	 viewBox="0 0 687.6 172" style="enable-background:new 0 0 687.6 172;" xml:space="preserve">
<style type="text/css">
	.st0{fill:#D9A955;}
	.st1{opacity:0.1;}
	.st2{opacity:0.2;}
	.st3{fill:#9C1722;}
	.st4{fill:#760510;}
	.st5{fill:#BE1E2D;}
	.st6{fill:#ED2A3B;}
	.st7{fill:#183E85;}
	.st8{fill:#E7B45B;}
	.st9{opacity:0.2;fill:#FFFFFF;}
	.st10{clip-path:url(#XMLID_55_);}
	.st11{fill:#9E793E;}
</style>
<g id="XMLID_1_">
	<path id="XMLID_116216_" class="st0" d="M687.4,103.7c0-0.7,0-1.4,0.1-2.1l-1.9-0.5l-84.9-2.2l-0.2,6.1l84.6,2.2l2.5-0.5
		C687.5,105.7,687.4,104.7,687.4,103.7z"/>
	<path id="XMLID_116215_" class="st1" d="M687.5,101.6l-1.9-0.5l-84.9-2.2l0,1.7l84.9,2.2l1.8,0.5
		C687.4,102.7,687.4,102.1,687.5,101.6z"/>
	<g id="XMLID_411_">
		<path id="XMLID_444_" class="st2" d="M625.4,105.6l5.8,0.2c0.9-1.3,1.7-3.5,0.2-6.1l-5.9-0.2L625.4,105.6z"/>
		<path id="XMLID_443_" class="st3" d="M48.5,85.5C7,80.6,4.1,43.7,13.2,26.8C22.5,9.5,42.4,3.7,58.3,1c19.8-3.5,41,3.3,58.3,10.7
			c30.6,13,99.6,58,131,79.1L48.5,85.5z"/>
		<path id="XMLID_442_" class="st4" d="M48.4,85.5c-41.5-3.3-44.8-25-35.9-34.9c9.1-10,29-13.2,44.8-14.7c19.8-1.8,41,2.4,58.5,6.9
			c30.7,8,100.2,35.1,131.9,47.9L48.4,85.5z"/>
		<path id="XMLID_441_" class="st5" d="M57.3,35.9c-15.8,1.5-35.7,4.6-44.8,14.7c-2.6,2.9-4.2,6.9-4,11.1c0.3-3.4,1.8-6.5,4-8.9
			c9.1-10,29-13.2,44.8-14.7c19.8-1.8,41,2.4,58.5,6.9c29,7.5,92.5,32.1,126.1,45.6l5.8,0.2C216,78,146.4,50.8,115.7,42.8
			C98.3,38.3,77.1,34.1,57.3,35.9z"/>
		<path id="XMLID_440_" class="st6" d="M42.4,85.3c-42.9,1-47.4,22-38.8,32c8.8,10.3,29.1,14.4,45.3,16.6
			c20.3,2.8,42.3-0.1,60.5-3.6c32-6.1,105-28.9,138.2-39.6L42.4,85.3z"/>
		<path id="XMLID_439_" class="st5" d="M48.4,85.5c-41.7,2.7-46.5,39.3-38.3,56.8c8.3,17.7,28,24.5,43.6,28.2
			c19.6,4.6,41.1-1.1,58.8-7.6c31.2-11.4,102.5-52.6,135-72.1L48.4,85.5z"/>
		<polygon id="XMLID_438_" class="st5" points="601.1,81.9 600.1,121.8 44.8,85.4 		"/>
		<path id="XMLID_437_" class="st7" d="M599.5,81.9c14.7,0.4,26.3,9.6,26,20.6c-0.3,11-12.4,19.6-27.1,19.2
			c-14.7-0.4-26.3-9.6-26-20.6C572.7,90.1,584.8,81.5,599.5,81.9z"/>
		<path id="XMLID_436_" class="st8" d="M479.8,98.7c-0.2,5.9-2.4,11.5-7.7,15.2l125.1,7.8c1,0.1,2,0.2,3.1,0.2c0.2,0,0.5,0,0.7,0
			l0.9,0.1l0-0.1c14-0.3,25.3-8.7,25.6-19.3c0.3-10.7-9.4-19.7-23.3-20.8l-1.2,0L471.1,82C477.4,86,480,92.2,479.8,98.7z"/>
		<path id="XMLID_435_" class="st9" d="M52.8,85.8l552.1,31.8c0,0,10.4-0.5,16.2-9.5L52.8,85.8z"/>
		<g id="XMLID_414_">
			<defs>
				<path id="XMLID_415_" d="M479.8,98.6c-0.2,5.9-2.4,11.5-7.7,15.3l125.1,7.8c1,0.1,2,0.2,3.1,0.2c0.2,0,0.5,0,0.7,0l1,0.1l0-0.1
					c14-0.3,25.3-8.7,25.6-19.3c0.3-10.7-9.4-19.7-23.3-20.8l-1.2,0L471.1,82C477.4,86,480,92.2,479.8,98.6z"/>
			</defs>
			<clipPath id="XMLID_55_">
				<use xlink:href="#XMLID_415_"  style="overflow:visible;"/>
			</clipPath>
			<g id="XMLID_433_" class="st10">
				<path id="XMLID_434_" class="st11" d="M492.6,116.8c11-6.8,10.3-31.1-1.6-36.7c-0.9-0.4-1.8,0.9-0.9,1.4
					c10.7,5,11.7,27.7,1.6,33.9C490.9,115.9,491.7,117.4,492.6,116.8L492.6,116.8z"/>
			</g>
			<g id="XMLID_431_" class="st10">
				<path id="XMLID_432_" class="st11" d="M499.7,117c11-6.8,10.3-31.1-1.6-36.7c-0.9-0.4-1.8,0.9-0.9,1.4
					c10.7,5,11.7,27.7,1.6,33.9C498,116.1,498.8,117.5,499.7,117L499.7,117z"/>
			</g>
			<g id="XMLID_428_" class="st10">
				<path id="XMLID_430_" class="st11" d="M507.9,117.2c10.4-6.9,10.1-31.2-1.6-36.7c-0.9-0.4-1.8,0.9-0.9,1.4
					c10.4,4.9,11.1,27.6,1.6,33.9C506.3,116.4,507,117.8,507.9,117.2L507.9,117.2z"/>
			</g>
			<g id="XMLID_425_" class="st10">
				<path id="XMLID_426_" class="st11" d="M565.5,123.5c15.2-7.5,14.8-38-0.5-45.2c-0.9-0.4-1.8,0.9-0.9,1.4
					c14.1,6.6,14.7,35.4,0.5,42.4C563.8,122.5,564.6,124,565.5,123.5L565.5,123.5z"/>
			</g>
			<g id="XMLID_421_" class="st10">
				<path id="XMLID_424_" class="st11" d="M573,123.7c15.7-7.6,15.4-37.7-0.5-45.2c-0.9-0.4-1.8,0.9-0.9,1.4
					c14.7,6.9,15.1,35.3,0.5,42.4C571.3,122.7,572.1,124.1,573,123.7L573,123.7z"/>
			</g>
			<g id="XMLID_419_" class="st10">
				<path id="XMLID_420_" class="st11" d="M580.6,123.9c16.5-8,16-37.6-0.5-45.2c-0.9-0.4-1.8,0.9-0.8,1.4c15.3,7,16,34.8,0.5,42.4
					C578.8,122.9,579.6,124.3,580.6,123.9L580.6,123.9z"/>
			</g>
			<g id="XMLID_416_" class="st10">
				<path id="XMLID_417_" class="st11" d="M588,124.1c16.7-8.1,16.5-37.4-0.3-45.2c-0.9-0.4-1.8,0.9-0.8,1.4
					c15.7,7.2,16,34.8,0.4,42.4C586.3,123.2,587.1,124.6,588,124.1L588,124.1z"/>
			</g>
		</g>
		<path id="XMLID_413_" class="st2" d="M50.2,85.5l572.5,15.1c0,0,1.5-10.4-11.4-12.7C596.1,85.2,50.2,85.5,50.2,85.5z"/>
		<polygon id="XMLID_412_" class="st2" points="222.8,105.3 47,85.6 235.5,97.9 		"/>
	</g>
</g>
</svg>
