<?xml version="1.0" encoding="utf-8"?>
<!-- Generator: Adobe Illustrator 19.0.0, SVG Export Plug-In . SVG Version: 6.00 Build 0)  -->
<svg version="1.1" id="Capa_1" xmlns="http://www.w3.org/2000/svg" xmlns:xlink="http://www.w3.org/1999/xlink" x="0px" y="0px"
	 viewBox="-66 350.8 478.4 123.2" style="enable-background:new -66 350.8 478.4 123.2;" xml:space="preserve">
<style type="text/css">
	.st0{opacity:0.5;fill:#FFFFFF;}
	.st1{fill:#FFFFFF;}
	.st2{fill-rule:evenodd;clip-rule:evenodd;}
</style>
<rect id="XMLID_576_" x="-66" y="350.8" class="st0" width="478.4" height="123.2"/>
<path id="XMLID_574_" d="M-6.6,447.7c-1,1.9-2.3,3.6-3.9,5.2c-4.6,4.5-10,6.8-16.3,6.8c-6.2,0-11.5-2.2-16-6.7c-1.6-1.6-3-3.4-4-5.2
	H-66V474h478.4v-26.3H-6.6z"/>
<g id="XMLID_559_">
	<g id="XMLID_568_">
		<path id="XMLID_570_" class="st1" d="M5.7,451.9c0.4,0,0.7,0,1,0.1c0.3,0.1,0.6,0.2,0.8,0.3c0.2,0.1,0.4,0.3,0.5,0.6
			c0.1,0.2,0.2,0.5,0.2,0.9c0,0.4-0.1,0.7-0.3,1c-0.2,0.3-0.4,0.5-0.8,0.6c0.5,0.1,0.8,0.4,1,0.7c0.2,0.3,0.3,0.7,0.3,1.2
			c0,0.4-0.1,0.7-0.2,1c-0.1,0.3-0.3,0.5-0.6,0.7c-0.3,0.2-0.5,0.3-0.9,0.4c-0.3,0.1-0.7,0.1-1,0.1H2.2v-7.6H5.7L5.7,451.9z
			 M5.5,454.9c0.3,0,0.5-0.1,0.7-0.2c0.2-0.1,0.3-0.4,0.3-0.7c0-0.2,0-0.3-0.1-0.4c-0.1-0.1-0.1-0.2-0.3-0.3
			c-0.1-0.1-0.2-0.1-0.4-0.1c-0.1,0-0.3,0-0.4,0H3.8v1.8H5.5z M5.6,458.1c0.2,0,0.3,0,0.5,0c0.1,0,0.3-0.1,0.4-0.2
			c0.1-0.1,0.2-0.2,0.3-0.3c0.1-0.1,0.1-0.3,0.1-0.5c0-0.4-0.1-0.7-0.3-0.8c-0.2-0.2-0.5-0.2-0.9-0.2H3.8v2.1H5.6z"/>
		<polygon id="XMLID_569_" class="st1" points="8.8,451.9 10.7,451.9 12.4,454.9 14.2,451.9 16,451.9 13.2,456.5 13.2,459.4 
			11.6,459.4 11.6,456.5 		"/>
	</g>
	<g id="XMLID_563_">
		<path id="XMLID_567_" class="st1" d="M62.8,457.6c0.1,0.2,0.2,0.3,0.4,0.4c0.2,0.1,0.3,0.2,0.5,0.2c0.2,0.1,0.4,0.1,0.6,0.1
			c0.1,0,0.3,0,0.5,0c0.2,0,0.3-0.1,0.5-0.1c0.1-0.1,0.3-0.2,0.4-0.3c0.1-0.1,0.1-0.3,0.1-0.5c0-0.2-0.1-0.4-0.2-0.5
			c-0.1-0.1-0.3-0.2-0.5-0.3c-0.2-0.1-0.5-0.2-0.7-0.2c-0.3-0.1-0.5-0.1-0.8-0.2c-0.3-0.1-0.6-0.2-0.8-0.3c-0.3-0.1-0.5-0.2-0.7-0.4
			c-0.2-0.2-0.4-0.4-0.5-0.6c-0.1-0.2-0.2-0.5-0.2-0.9c0-0.4,0.1-0.7,0.2-1c0.2-0.3,0.4-0.5,0.7-0.7c0.3-0.2,0.6-0.3,0.9-0.4
			c0.3-0.1,0.7-0.1,1-0.1c0.4,0,0.8,0,1.1,0.1c0.4,0.1,0.7,0.2,1,0.4c0.3,0.2,0.5,0.4,0.7,0.8c0.2,0.3,0.2,0.7,0.2,1.1h-1.6
			c0-0.2-0.1-0.4-0.1-0.6c-0.1-0.1-0.2-0.3-0.3-0.3s-0.3-0.1-0.5-0.2c-0.2,0-0.4-0.1-0.6-0.1c-0.1,0-0.3,0-0.4,0
			c-0.1,0-0.3,0.1-0.4,0.1c-0.1,0.1-0.2,0.2-0.3,0.3c-0.1,0.1-0.1,0.2-0.1,0.4c0,0.1,0,0.3,0.1,0.4c0.1,0.1,0.2,0.2,0.3,0.3
			c0.2,0.1,0.4,0.2,0.7,0.2c0.3,0.1,0.7,0.2,1.1,0.3c0.1,0,0.3,0.1,0.6,0.2c0.3,0.1,0.5,0.2,0.7,0.4c0.2,0.2,0.5,0.4,0.6,0.7
			c0.2,0.3,0.3,0.6,0.3,1c0,0.3-0.1,0.7-0.2,1c-0.1,0.3-0.3,0.6-0.6,0.8c-0.3,0.2-0.6,0.4-1,0.5c-0.4,0.1-0.8,0.2-1.4,0.2
			c-0.4,0-0.8-0.1-1.2-0.2c-0.4-0.1-0.7-0.3-1-0.5c-0.3-0.2-0.5-0.5-0.7-0.8c-0.2-0.3-0.3-0.7-0.3-1.2h1.6
			C62.7,457.2,62.7,457.4,62.8,457.6z"/>
		<path id="XMLID_564_" class="st1" d="M72.2,451.9l2.8,7.6h-1.7l-0.6-1.7h-2.8l-0.6,1.7h-1.7l2.9-7.6H72.2z M72.3,456.5l-1-2.8h0
			l-1,2.8H72.3z"/>
	</g>
	<g id="XMLID_560_">
		<polygon id="XMLID_562_" class="st1" points="33.2,451.9 36.4,456.9 36.4,456.9 36.4,451.9 38,451.9 38,459.4 36.3,459.4 
			33.2,454.4 33.1,454.4 33.1,459.4 31.6,459.4 31.6,451.9 		"/>
		<path id="XMLID_561_" class="st1" d="M44.3,453.9c-0.1-0.2-0.2-0.3-0.4-0.4c-0.1-0.1-0.3-0.2-0.5-0.3c-0.2-0.1-0.4-0.1-0.6-0.1
			c-0.4,0-0.7,0.1-1,0.2c-0.3,0.1-0.5,0.3-0.6,0.6c-0.2,0.2-0.3,0.5-0.4,0.8c-0.1,0.3-0.1,0.6-0.1,1c0,0.3,0,0.6,0.1,0.9
			c0.1,0.3,0.2,0.6,0.4,0.8c0.2,0.2,0.4,0.4,0.6,0.6c0.3,0.1,0.6,0.2,1,0.2c0.5,0,0.9-0.2,1.2-0.5c0.3-0.3,0.5-0.7,0.5-1.2h1.6
			c0,0.5-0.2,0.9-0.3,1.3c-0.2,0.4-0.4,0.7-0.7,1c-0.3,0.3-0.6,0.5-1,0.6c-0.4,0.1-0.8,0.2-1.3,0.2c-0.6,0-1.1-0.1-1.6-0.3
			c-0.5-0.2-0.9-0.5-1.2-0.8c-0.3-0.4-0.6-0.8-0.7-1.2c-0.2-0.5-0.3-1-0.3-1.5c0-0.6,0.1-1.1,0.3-1.6c0.2-0.5,0.4-0.9,0.7-1.3
			c0.3-0.4,0.7-0.6,1.2-0.8c0.5-0.2,1-0.3,1.6-0.3c0.4,0,0.8,0.1,1.2,0.2c0.4,0.1,0.7,0.3,1,0.5c0.3,0.2,0.5,0.5,0.7,0.9
			c0.2,0.3,0.3,0.7,0.4,1.2h-1.6C44.4,454.2,44.4,454,44.3,453.9z"/>
	</g>
</g>
<g id="XMLID_515_">
	<path id="XMLID_556_" class="st2" d="M-26.1,392.5c-1.4-2.5-3.8-3.5-6.5-3.5c-4,0-7.2,2.8-7.2,7.6c0,4.9,3,7.6,7.3,7.6
		c2.8,0,5.1-1.5,6.5-3.8l-3.1-1.6c-0.7,1.6-1.7,2.1-3,2.1c-2.3,0-3.3-1.9-3.3-4.4c0-2.5,0.9-4.4,3.3-4.4c0.7,0,2,0.4,2.7,2
		L-26.1,392.5z"/>
	<path id="XMLID_553_" class="st2" d="M-18.3,392.2c2.4,0,3.5,1.9,3.5,4.2c0,2.6-1,4.5-3.5,4.5s-3.5-1.9-3.5-4.4
		C-21.7,394.1-20.7,392.2-18.3,392.2z M-18.3,388.9c-4.5,0-7.7,2.8-7.7,7.6c0,4.9,3.2,7.6,7.7,7.6s7.7-2.8,7.7-7.6
		C-10.6,391.7-13.7,388.9-18.3,388.9z"/>
	<path id="XMLID_552_" class="st2" d="M-9.7,403.8h4.2v-9c0-1.3,0.5-2.4,2.3-2.4c1.6,0,2.1,1,2.1,2.4v9.1h4.2v-8.9
		c0-1.5,0.7-2.5,2.2-2.5c1.6,0,2.2,0.9,2.2,3v8.5h4.2v-11.1c0-3.3-3.1-3.8-4.5-3.8c-1.7,0-3.3,0.5-4.7,1.9c-1-1.3-2.2-1.9-3.8-1.9
		c-1.3,0-3.1,0.4-4.2,1.7v-1.3h-4.2V403.8z"/>
	<path id="XMLID_551_" class="st2" d="M13.1,403.8h4.2v-9c0-1.3,0.5-2.4,2.3-2.4c1.6,0,2.1,1,2.1,2.4v9.1h4.2v-8.9
		c0-1.5,0.7-2.5,2.2-2.5c1.6,0,2.2,0.9,2.2,3v8.5h4.2v-11.1c0-3.3-3.1-3.8-4.5-3.8c-1.7,0-3.3,0.5-4.7,1.9c-1-1.3-2.2-1.9-3.8-1.9
		c-1.3,0-3.1,0.4-4.2,1.7v-1.3h-4.2V403.8z"/>
	<path id="XMLID_542_" class="st2" d="M43.1,392.2c2.4,0,3.5,1.9,3.5,4.2c0,2.6-1,4.5-3.5,4.5c-2.4,0-3.5-1.9-3.5-4.4
		C39.6,394.1,40.6,392.2,43.1,392.2z M43.1,388.9c-4.5,0-7.7,2.8-7.7,7.6c0,4.9,3.2,7.6,7.7,7.6c4.5,0,7.7-2.8,7.7-7.6
		C50.8,391.7,47.6,388.9,43.1,388.9z"/>
	<path id="XMLID_539_" class="st2" d="M51.9,403.8h4.2v-9c0-1.3,0.5-2.4,2.3-2.4c1.6,0,2.1,1,2.1,2.4v9.1h4.2v-10.7
		c0-2.2-1-4.2-4.4-4.2c-1.3,0-3.1,0.4-4.2,1.7v-1.3h-4.2V403.8z"/>
	<path id="XMLID_533_" class="st2" d="M78.9,391c-2-1.3-4.2-2.1-6.4-2.1c-2.9,0-6.1,1.4-6.1,5.1c0,5.1,8.6,3.4,8.6,5.6
		c0,1.3-1.6,1.5-2.3,1.5c-1.9,0-3.3-0.8-4.6-2l-2.6,2.3c2.1,2,3.9,2.9,7.1,2.9c3.2,0,6.5-1.4,6.5-5.2c0-5.4-8.6-3.4-8.6-5.9
		c0-0.7,0.8-1.1,1.8-1.1c1.3,0,3.2,0.5,4,1.6L78.9,391z"/>
	<path id="XMLID_532_" class="st2" d="M-26.1,375.8c-1.4-2.5-3.8-3.5-6.5-3.5c-4,0-7.2,2.8-7.2,7.6c0,4.9,3,7.6,7.3,7.6
		c2.8,0,5.1-1.5,6.5-3.8l-3.1-1.6c-0.7,1.6-1.7,2.1-3,2.1c-2.3,0-3.3-1.9-3.3-4.4c0-2.5,0.9-4.4,3.3-4.4c0.7,0,2,0.4,2.7,2
		L-26.1,375.8z"/>
	<path id="XMLID_531_" class="st2" d="M-25,387.1h4.2v-8.4c0-1.6,1-2,3.5-2.3l0.5-0.1l0-3.8c-1.5,0.1-3.1,0.7-4,1.5v-1.5H-25V387.1z
		"/>
	<path id="XMLID_527_" class="st2" d="M-2.3,380.8c0-4.5-1.8-8.5-7.1-8.5c-4.4,0-7.1,2.9-7.1,8.1c0,4.1,2.6,7.2,7.1,7.2
		c3.2,0,5.6-1.3,7-4l-3.2-1.7c-1.2,1.7-2,2.6-3.5,2.6c-1.4,0-3.1-0.9-3.2-3.7H-2.3z M-12.4,378.1c0.2-1.9,1.7-2.8,2.9-2.8
		c1.2,0,2.8,0.7,2.9,2.8H-12.4z"/>
	<path id="XMLID_524_" class="st2" d="M7.4,381.1c0,2.2-1.3,3.3-2.9,3.3c-1,0-2-0.5-2-1.6c0-1.2,1-1.6,2-1.9l2.9-0.8V381.1z
		 M11.5,376.5c0-3.3-2.5-4.2-6.5-4.2c-2,0-5.8,0.4-6,4.5h4.1c0.2-1.4,0.9-1.9,2.2-1.9c1.1,0,2,0.5,2,1.6v1.2l-1.6,0.2
		c-4.6,0.7-7.4,1.9-7.4,5.4c0,2.8,2.1,4.3,4.8,4.3c1.5,0,3.7-0.7,4.4-1.9h0.1c0,0.5,0.1,1,0.3,1.5h3.9c-0.4-0.9-0.4-2-0.4-3V376.5z"
		/>
	<path id="XMLID_523_" class="st2" d="M21.5,372.9H19v-4.2h-4.2v4.2h-2.1v2.6h2.1v7.6c0,2.1,0.5,4.4,4.1,4.4c0.9,0,2.2-0.1,2.7-0.2
		V384c-0.2,0-0.8,0.1-1.3,0.1c-0.8,0-1.3-0.3-1.3-1.4v-7.1h2.5V372.9z"/>
	<path id="XMLID_520_" class="st2" d="M23.1,372.6v14.5h4.2v-14.5H23.1z M27.3,371v-3.3h-4.2v3.3H27.3z"/>
	<polygon id="XMLID_519_" class="st2" points="33.1,387.1 37.3,387.1 42.3,372.6 37.8,372.6 35.3,382.9 35.2,382.9 32.7,372.6 
		28.2,372.6 	"/>
	<path id="XMLID_516_" class="st2" d="M56,380.8c0-4.5-1.8-8.5-7.1-8.5c-4.4,0-7.1,2.9-7.1,8.1c0,4.1,2.6,7.2,7.1,7.2
		c3.2,0,5.6-1.3,7-4l-3.2-1.7c-1.2,1.7-2,2.6-3.5,2.6c-1.4,0-3.1-0.9-3.2-3.7H56z M46,378.1c0.2-1.9,1.7-2.8,2.9-2.8
		c1.2,0,2.8,0.7,2.9,2.8H46z"/>
</g>
<path id="XMLID_514_" class="st1" d="M-11.2,436.8c0,8.6-7,15.6-15.5,15.6c-8.6,0-15.6-7-15.6-15.5c0,0,0,0,0,0
	c0-8.6,7-15.6,15.5-15.6C-18.2,421.3-11.2,428.2-11.2,436.8C-11.2,436.8-11.2,436.8-11.2,436.8z"/>
<path id="XMLID_506_" d="M-14.1,424.2c3.4,3.4,5.2,7.7,5.2,12.7c0,5-1.7,9.2-5.1,12.5c-3.6,3.5-7.8,5.3-12.8,5.3
	c-4.8,0-9-1.8-12.5-5.3c-3.5-3.5-5.3-7.7-5.3-12.6c0-4.9,1.8-9.1,5.3-12.7c3.4-3.4,7.6-5.2,12.5-5.2
	C-21.8,419-17.6,420.7-14.1,424.2z M-37,426.5c-2.9,2.9-4.4,6.4-4.4,10.3c0,4,1.4,7.4,4.3,10.3c2.9,2.9,6.3,4.3,10.3,4.3
	c4,0,7.4-1.5,10.4-4.4c2.8-2.7,4.2-6.1,4.2-10.2c0-4.1-1.4-7.5-4.3-10.4c-2.8-2.8-6.3-4.3-10.3-4.3C-30.8,422.2-34.2,423.6-37,426.5
	z M-29.3,435.1c-0.4-1-1.1-1.5-2-1.5c-1.6,0-2.4,1.1-2.4,3.2c0,2.1,0.8,3.2,2.4,3.2c1,0,1.8-0.5,2.2-1.5l2.2,1.2
	c-1,1.8-2.6,2.8-4.7,2.8c-1.6,0-2.9-0.5-3.9-1.5c-1-1-1.4-2.3-1.4-4.1c0-1.7,0.5-3,1.5-4c1-1,2.2-1.5,3.7-1.5c2.2,0,3.8,0.9,4.7,2.6
	L-29.3,435.1z M-19.1,435.1c-0.4-1-1.1-1.5-2-1.5c-1.6,0-2.4,1.1-2.4,3.2c0,2.1,0.8,3.2,2.4,3.2c1,0,1.8-0.5,2.2-1.5l2.2,1.2
	c-1,1.8-2.6,2.8-4.7,2.8c-1.6,0-2.9-0.5-3.8-1.5c-1-1-1.4-2.3-1.4-4.1c0-1.7,0.5-3,1.5-4c1-1,2.2-1.5,3.7-1.5c2.2,0,3.8,0.9,4.7,2.6
	L-19.1,435.1z"/>
<circle id="XMLID_502_" class="st1" cx="8.4" cy="431.9" r="12.2"/>
<g id="XMLID_499_">
	<path id="XMLID_501_" d="M12,428.3c0-0.5-0.4-0.9-0.9-0.9H5.7c-0.5,0-0.9,0.4-0.9,0.9v5.4h1.5v6.4h4.1v-6.4H12V428.3L12,428.3z"/>
	<circle id="XMLID_500_" cx="8.4" cy="424.9" r="1.8"/>
</g>
<path id="XMLID_489_" d="M8.4,418.4c-3.7,0-6.8,1.3-9.3,3.8c-2.6,2.6-3.9,5.8-3.9,9.4c0,3.6,1.3,6.7,3.9,9.3
	c2.6,2.6,5.7,3.9,9.3,3.9c3.6,0,6.8-1.3,9.5-3.9c2.5-2.5,3.8-5.6,3.8-9.3c0-3.7-1.3-6.8-3.8-9.4C15.2,419.7,12.1,418.4,8.4,418.4z
	 M8.4,420.8c3,0,5.5,1.1,7.6,3.2c2.1,2.1,3.2,4.7,3.2,7.7c0,3-1,5.6-3.1,7.6c-2.2,2.2-4.8,3.2-7.7,3.2c-3,0-5.5-1.1-7.6-3.2
	c-2.1-2.1-3.2-4.7-3.2-7.6c0-2.9,1.1-5.5,3.2-7.7C2.9,421.8,5.4,420.8,8.4,420.8z"/>
<path id="XMLID_482_" class="st1" d="M80.1,431.6c0,6.7-5.4,12.1-12.1,12.1c-6.7,0-12.1-5.4-12.1-12.1c0,0,0,0,0,0
	c0-6.7,5.4-12.1,12.1-12.1C74.7,419.5,80.1,424.9,80.1,431.6C80.1,431.6,80.1,431.6,80.1,431.6z"/>
<path id="XMLID_476_" d="M67.9,418.4c-3.7,0-6.8,1.3-9.3,3.8c-2.6,2.6-3.9,5.8-3.9,9.4c0,3.6,1.3,6.7,3.9,9.3
	c2.6,2.6,5.7,3.9,9.3,3.9c3.6,0,6.8-1.3,9.5-3.9c2.5-2.5,3.8-5.6,3.8-9.3c0-3.7-1.3-6.8-3.8-9.4C74.7,419.7,71.6,418.4,67.9,418.4z
	 M67.9,420.8c3,0,5.6,1.1,7.6,3.2c2.1,2.1,3.2,4.6,3.2,7.7c0,3-1,5.6-3.1,7.6c-2.2,2.2-4.8,3.2-7.7,3.2c-3,0-5.5-1.1-7.6-3.2
	c-2.1-2.1-3.2-4.7-3.2-7.6c0-2.9,1.1-5.5,3.2-7.7C62.4,421.8,64.9,420.8,67.9,420.8z"/>
<path id="XMLID_474_" d="M62,429.7c0.5-3.3,2.9-5.1,5.8-5.1c4.2,0,6.8,3.1,6.8,7.1c0,4-2.7,7.1-6.9,7.1c-2.8,0-5.4-1.7-5.8-5.2h3.3
	c0.1,1.8,1.3,2.4,2.9,2.4c1.9,0,3.1-1.7,3.1-4.4c0-2.8-1.1-4.3-3-4.3c-1.5,0-2.7,0.5-3,2.3l1,0l-2.6,2.6l-2.6-2.6L62,429.7z"/>
<path id="XMLID_468_" class="st1" d="M50.5,431.6c0,6.8-5.5,12.3-12.3,12.3c-6.8,0-12.3-5.5-12.3-12.3c0,0,0,0,0,0
	c0-6.8,5.5-12.3,12.3-12.3C45,419.3,50.5,424.8,50.5,431.6C50.5,431.6,50.5,431.6,50.5,431.6z"/>
<path id="XMLID_412_" d="M38.1,418.4c3.7,0,6.8,1.3,9.4,3.8c2.6,2.6,3.8,5.7,3.8,9.4c0,3.7-1.3,6.8-3.8,9.3
	c-2.7,2.6-5.8,3.9-9.5,3.9c-3.6,0-6.7-1.3-9.3-3.9c-2.6-2.6-3.9-5.7-3.9-9.3c0-3.6,1.3-6.7,3.9-9.4
	C31.4,419.7,34.5,418.4,38.1,418.4z M27.9,428.1c-0.4,1.1-0.6,2.3-0.6,3.6c0,2.9,1.1,5.5,3.2,7.6c2.1,2.1,4.7,3.2,7.6,3.2
	c3,0,5.5-1.1,7.7-3.2c0.7-0.7,1.3-1.5,1.8-2.3l-5-2.2c-0.3,1.7-1.8,2.8-3.6,2.9v2h-1.5v-2c-1.5,0-2.9-0.6-4-1.6l1.8-1.8
	c0.9,0.8,1.8,1.2,3,1.2c0.8,0,1.6-0.3,1.6-1.3c0-0.4-0.1-0.6-0.4-0.8l-1.3-0.6l-1.6-0.7c-0.8-0.3-1.4-0.6-2.1-0.9L27.9,428.1z
	 M38.2,420.8c-3,0-5.5,1.1-7.6,3.2c-0.6,0.6-1.1,1.2-1.5,1.8l5.1,2.3c0.5-1.4,1.8-2.3,3.4-2.3v-2h1.5v2c1,0.1,2.2,0.3,3.3,1.2
	l-1.7,1.8c-0.6-0.5-1.5-0.8-2.3-0.8c-0.7,0-1.6,0.2-1.6,1c0,0.1,0,0.2,0.1,0.3l1.7,0.8l1.1,0.5c0.7,0.3,1.4,0.6,2.1,0.9l6.8,3
	c0.2-0.9,0.3-1.8,0.3-2.8c0-3-1.1-5.6-3.2-7.7C43.7,421.8,41.2,420.8,38.2,420.8z"/>
</svg>
