<?xml version="1.0" encoding="utf-8"?>
<!-- Generator: Adobe Illustrator 19.0.0, SVG Export Plug-In . SVG Version: 6.00 Build 0)  -->
<svg version="1.1" id="Capa_1" xmlns="http://www.w3.org/2000/svg" xmlns:xlink="http://www.w3.org/1999/xlink" x="0px" y="0px"
	 viewBox="-181 358.3 232 124.6" style="enable-background:new -181 358.3 232 124.6;" xml:space="preserve">
<style type="text/css">
	.st0{fill:#FFFFFF;}
	.st1{opacity:0.3;fill:#111111;enable-background:new    ;}
</style>
<g id="XMLID_1_">
	<g id="XMLID_11722_">
		<path id="XMLID_19_" class="st0" d="M-65,358.7c-43.1,0-83.1,13.4-116,36.3v87.9H51V395C18.1,372.1-21.9,358.7-65,358.7z"/>
	</g>
	<path id="XMLID_11707_" class="st1" d="M-62.8,358.5c-46.2-2-107.8,20.7-116.9,24.2c-0.6,0.2-1,0.7-1.1,1.3v11.7
		c0-0.6,0.3-1.2,0.8-1.5c32.7-22.5,72.4-35.7,115.1-35.7c0.8,0,1.7,0,2.5,0C-62.5,358.6-62.6,358.5-62.8,358.5z"/>
	<path id="XMLID_11689_" class="st1" d="M-67.2,358.5c46.2-2,107.8,20.7,116.9,24.2c0.6,0.2,1,0.7,1.1,1.3v11.7
		c0-0.6-0.3-1.2-0.8-1.5c-32.7-22.5-72.4-35.7-115.1-35.7c-0.8,0-1.7,0-2.5,0C-67.5,358.6-67.4,358.5-67.2,358.5z"/>
</g>
</svg>
