<?xml version="1.0" encoding="utf-8"?>
<!-- Generator: Adobe Illustrator 19.0.0, SVG Export Plug-In . SVG Version: 6.00 Build 0)  -->
<svg version="1.1" id="Capa_1" xmlns="http://www.w3.org/2000/svg" xmlns:xlink="http://www.w3.org/1999/xlink" x="0px" y="0px"
	 viewBox="0 0 935.7 446.6" style="enable-background:new 0 0 935.7 446.6;" xml:space="preserve">
<style type="text/css">
	.st0{fill:#AACECE;stroke:#231F20;stroke-width:2.3336;stroke-miterlimit:10;}
	.st1{fill:#FFFFFF;stroke:#231F20;stroke-width:2.3336;stroke-miterlimit:10;}
	.st2{fill:#F1F1F1;stroke:#231F20;stroke-width:2.3336;stroke-miterlimit:10;}
	.st3{fill:#E54A3F;stroke:#231F20;stroke-width:2.3336;stroke-miterlimit:10;}
	.st4{fill:#041E41;stroke:#231F20;stroke-width:2.3336;stroke-miterlimit:10;}
	.st5{fill:#231F20;}
	.st6{opacity:0.1;fill:#1E1E1E;}
	.st7{fill-rule:evenodd;clip-rule:evenodd;fill:#F1F4F4;stroke:#231F20;stroke-width:2.225;stroke-miterlimit:10;}
	.st8{fill-rule:evenodd;clip-rule:evenodd;fill:#AACECE;stroke:#231F20;stroke-width:2.225;stroke-miterlimit:10;}
	.st9{fill:#FFFFFF;}
	.st10{fill:#F7D0A2;stroke:#231F20;stroke-width:1.5072;stroke-miterlimit:10;}
	.st11{fill:#041E41;}
	.st12{fill:#03162B;}
	.st13{fill:#AACECE;stroke:#231F20;stroke-width:1.5072;stroke-miterlimit:10;}
	.st14{fill:#E54A3F;stroke:#231F20;stroke-width:1.5072;stroke-miterlimit:10;}
	.st15{fill:#FFFFFF;stroke:#231F20;stroke-width:1.5072;stroke-linecap:round;stroke-linejoin:round;stroke-miterlimit:22.9256;}
	.st16{fill:#F7D0A2;}
	.st17{fill:#FFFFFF;stroke:#231F20;stroke-width:1.3836;}
	.st18{fill:#DCDBD9;stroke:#231F20;stroke-width:1.3836;}
	.st19{fill:#4C4C4C;}
	.st20{fill:#E54A3F;}
	.st21{fill:#AACECE;stroke:#000000;stroke-width:2.7464;}
	.st22{fill:#E54A3F;stroke:#000000;stroke-width:2.1972;stroke-miterlimit:10;}
	.st23{fill:none;stroke:#000000;stroke-width:2.1972;stroke-miterlimit:10;}
</style>
<g id="XMLID_116391_">
	<g id="XMLID_459_">
		<path id="XMLID_478_" class="st0" d="M809.2,307.7c-30.5,0-55.3-24.8-55.3-55.3c0-30.5,24.8-55.3,55.3-55.3
			c30.5,0,55.3,24.8,55.3,55.3C864.6,282.9,839.7,307.7,809.2,307.7z"/>
		<path id="XMLID_477_" class="st1" d="M809.2,296.6c-24.4,0-44.3-19.8-44.3-44.2c0-24.4,19.8-44.3,44.3-44.3
			c24.4,0,44.3,19.9,44.3,44.3C853.5,276.8,833.6,296.6,809.2,296.6z"/>
		<path id="XMLID_476_" class="st0" d="M809.2,285.5c-18.3,0-33.2-14.9-33.2-33.2c0-18.3,14.9-33.2,33.2-33.2
			c18.3,0,33.2,14.9,33.2,33.2C842.4,270.7,827.5,285.5,809.2,285.5z"/>
		<path id="XMLID_475_" class="st2" d="M809.2,274.5c-12.2,0-22.1-9.9-22.1-22.1c0-12.2,9.9-22.1,22.1-22.1
			c12.2,0,22.1,9.9,22.1,22.1C831.3,264.6,821.4,274.5,809.2,274.5z"/>
		<path id="XMLID_474_" class="st0" d="M820.2,252.4c0,6.1-4.9,11-11,11c-6.1,0-11-4.9-11-11c0-6.1,4.9-11,11-11
			C815.3,241.4,820.2,246.3,820.2,252.4z"/>
		<g id="XMLID_470_">
			<polygon id="XMLID_473_" class="st3" points="858.4,205.3 873.6,208 888,194.1 872.3,192.4 			"/>
			<polygon id="XMLID_472_" class="st4" points="867.7,195.9 883.7,198.4 883.1,198.9 866.8,196.7 			"/>
			<polygon id="XMLID_471_" class="st4" points="862.4,200.9 878.5,203.3 877.7,203.9 861.5,201.7 			"/>
		</g>
		<g id="XMLID_466_">
			<polygon id="XMLID_469_" class="st3" points="856.4,203.5 853.7,188.4 867.5,174 869.3,189.7 			"/>
			<polygon id="XMLID_468_" class="st4" points="865.8,194.3 863.3,178.3 862.7,178.9 865,195.1 			"/>
			<polygon id="XMLID_467_" class="st4" points="860.7,199.6 858.3,183.5 857.8,184.3 860,200.5 			"/>
		</g>
		<path id="XMLID_465_" class="st5" d="M810.9,254L810.9,254c-0.4,0.4-1,0.7-1.7,0.7c-1.3,0-2.4-1.1-2.4-2.4c0-0.7,0.3-1.4,0.8-1.8
			v0l61.6-61.3l3.1,3.1L810.9,254z"/>
		<path id="XMLID_460_" class="st6" d="M772.4,211.4c-1.5,1.2-1.6,1.6-3.7,3.3l38.4,38.5l1.8-2l1.6-1.4L772.4,211.4z"/>
	</g>
	<g id="XMLID_451_">
		<path id="XMLID_458_" class="st7" d="M522.7,375.3c0-12.4-13.5-22.5-30-22.5c-16.5,0-30,10.1-30,22.5c0,12.4,13.5,22.5,30,22.5
			c1.5,0,3-0.1,4.4-0.3l10.3,13.5l-2.6-15.2C515.3,392.4,522.7,384.5,522.7,375.3z"/>
		<g id="XMLID_452_">
			<path id="XMLID_457_" class="st8" d="M448.9,374c-16.5,0-30,10.1-30,22.5c0,9.2,7.4,17.1,17.9,20.6l-2.6,15.2l10.3-13.5
				c1.4,0.2,2.9,0.3,4.4,0.3c16.5,0,30-10.1,30-22.5C478.8,384.1,465.4,374,448.9,374z"/>
			<g id="XMLID_453_">
				<path id="XMLID_456_" class="st9" d="M438.1,396.6c0,2.1-1.7,3.8-3.8,3.8c-2.1,0-3.8-1.7-3.8-3.8c0-2.1,1.7-3.8,3.8-3.8
					C436.4,392.8,438.1,394.5,438.1,396.6z"/>
				<path id="XMLID_455_" class="st9" d="M467.2,396.6c0,2.1-1.7,3.8-3.8,3.8c-2.1,0-3.8-1.7-3.8-3.8c0-2.1,1.7-3.8,3.8-3.8
					C465.5,392.8,467.2,394.5,467.2,396.6z"/>
				<path id="XMLID_454_" class="st9" d="M452.7,396.6c0,2.1-1.7,3.8-3.8,3.8c-2.1,0-3.8-1.7-3.8-3.8c0-2.1,1.7-3.8,3.8-3.8
					C451,392.8,452.7,394.5,452.7,396.6z"/>
			</g>
		</g>
	</g>
	<g id="XMLID_1_">
		<path id="XMLID_450_" class="st10" d="M111.1,348.5l-15.4,3.8l1-51.7c0-7.6,3.8-32.2-3-32.2l-59,18.4c-6.7,0-12.2,6.2-12.2,13.8
			v53.6c0,4.1,1.6,7.7,4.1,10.2v58.6h53.6v-42c3.5-2.7,7.6-8.4,10.6-14.2L111.1,348.5z"/>
		<g id="XMLID_401_">
			<g id="XMLID_427_">
				<polygon id="XMLID_449_" class="st9" points="90.2,405.3 17.7,404.9 17.7,417.8 90.2,417.8 				"/>
				<path id="XMLID_429_" class="st5" d="M91.3,418.9l-74.8,0v-15.1l74.8,0.4V418.9z M18.8,416.6l70.2,0v-10.2l-70.2-0.4V416.6z"/>
			</g>
			<g id="XMLID_418_">
				<polygon id="XMLID_423_" class="st11" points="91.9,446.6 91.6,414.9 16.2,414.9 16.5,446.6 				"/>
				<polygon id="XMLID_422_" class="st5" points="17.7,446.6 17.3,416.1 90.5,416.1 90.7,446.6 93,446.6 92.8,413.8 15,413.8 
					15.4,446.6 				"/>
			</g>
			<g id="XMLID_408_">
				<polygon id="XMLID_410_" class="st12" points="92.4,446.6 92.2,414.9 55.3,414.9 55.5,446.6 				"/>
				<polygon id="XMLID_409_" class="st5" points="56.6,446.6 56.5,416.1 91.1,416.1 91.2,446.6 93.5,446.6 93.4,413.8 54.2,413.8 
					54.4,446.6 				"/>
			</g>
			<g id="XMLID_402_">
				<path id="XMLID_407_" class="st9" d="M30.6,431.2c0,2.4-1.8,4.3-4.2,4.3c-2.4,0-4.3-1.8-4.3-4.2c0-2.4,1.8-4.3,4.2-4.3
					C28.6,426.9,30.6,428.8,30.6,431.2z"/>
				<path id="XMLID_404_" class="st5" d="M26.3,436.7c-2.9,0-5.4-2.4-5.4-5.3c0-3,2.3-5.4,5.3-5.5c0,0,0,0,0,0c3,0,5.5,2.4,5.5,5.3
					c0,1.4-0.5,2.8-1.5,3.9C29.2,436.1,27.9,436.6,26.3,436.7L26.3,436.7z M26.3,428.1c-1.8,0-3.2,1.5-3.1,3.2
					c0,1.7,1.4,3.1,3.1,3.1v1.1l0.1-1.1c0.8,0,1.6-0.4,2.2-1c0.6-0.6,0.9-1.4,0.9-2.2C29.5,429.5,28.1,428.1,26.3,428.1z"/>
			</g>
		</g>
		<g id="XMLID_394_">
			<polygon id="XMLID_400_" class="st13" points="85.4,306.5 69,301.9 85.5,242.8 101.9,247.4 			"/>
			<polygon id="XMLID_399_" class="st13" points="86.4,304.7 69,299.8 80.1,259.8 97.6,264.6 			"/>
			<path id="XMLID_398_" class="st14" d="M81.4,343.9c-2.1,7.7-10.2,12.2-17.9,10.1c-7.7-2.1-12.2-10.1-10.1-17.9L70,276.7
				c1.2-4.4,4.4-7.8,8.3-9.4l17.5,4.9c2.5,3.5,3.4,8,2.2,12.4L81.4,343.9z"/>
			<path id="XMLID_395_" class="st15" d="M125.7,130.3c-20.6-5.7-41.6-0.6-56.9,12c-9.7,7.9-17.1,18.8-20.7,31.8
				c-9.3,33.5,10.3,68.3,43.8,77.6c20.6,5.7,41.6,0.6,56.9-12c9.7-7.9,17.1-18.8,20.7-31.8C178.8,174.4,159.2,139.6,125.7,130.3z
				 M158.2,204.7c-2.9,10.6-9,19.4-16.9,25.9c-12.5,10.2-29.6,14.4-46.3,9.8c-27.3-7.6-43.2-35.9-35.6-63.2
				c2.9-10.6,9-19.4,16.9-25.9c12.5-10.2,29.6-14.4,46.3-9.8C149.8,149.2,165.8,177.5,158.2,204.7z"/>
		</g>
		<g id="XMLID_385_">
			<g id="XMLID_389_">
				<g id="XMLID_390_">
					<path id="XMLID_393_" class="st10" d="M86.2,296.3c-5.1,2-7.7,7.7-5.7,12.8l0,0c2,5.1,7.7,7.7,12.8,5.7l13.9-5.3
						c5.1-1.9,7.7-7.7,5.7-12.8l0,0c-1.9-5.1-7.7-7.7-12.8-5.7L86.2,296.3z"/>
					<path id="XMLID_392_" class="st10" d="M92.3,316.9c-4.9,1.2-7.8,6.2-6.6,11l0,0c1.2,4.9,6.2,7.8,11,6.6l13.2-3.3
						c4.9-1.2,7.8-6.2,6.6-11l0,0c-1.2-4.9-6.2-7.8-11-6.6L92.3,316.9z"/>
					<path id="XMLID_391_" class="st10" d="M91.8,337.5c-4.3,1.1-7,5.5-5.9,9.8l0,0c1.1,4.3,5.5,6.9,9.8,5.9l11.7-3
						c4.3-1.1,6.9-5.5,5.9-9.8l0,0c-1.1-4.3-5.5-6.9-9.8-5.9L91.8,337.5z"/>
				</g>
			</g>
			<g id="XMLID_386_">
				<g id="XMLID_387_">
					<path id="XMLID_388_" class="st10" d="M83.8,272.4c-5.3,2-7.9,7.9-5.9,13.1l0,0c2,5.3,7.9,7.9,13.1,5.9l14.3-5.4
						c5.3-2,7.9-7.9,5.9-13.1l0,0c-2-5.3-7.9-7.9-13.1-5.9L83.8,272.4z"/>
				</g>
			</g>
		</g>
		<g id="XMLID_381_">
			<g id="XMLID_382_">
				<path id="XMLID_384_" class="st16" d="M69,287.2l-31.9-0.3v19.9l31.7-0.2c5.4,0.1,9.8-4.2,9.8-9.6
					C78.7,291.7,74.4,287.3,69,287.2z"/>
				<path id="XMLID_383_" class="st5" d="M69,286l-32-0.3l-2.3,2.3l34.2,0.3c4.7,0.1,8.5,4,8.5,8.7c-0.1,4.7-3.9,8.5-8.6,8.5l-0.1,0
					l-31.7,0.2v2.3l31.7-0.2l0.1,0c5.9,0,10.8-4.8,10.8-10.7C79.8,291.1,75,286.1,69,286z"/>
			</g>
		</g>
	</g>
	<rect id="XMLID_380_" x="95.5" y="67" class="st5" width="130.8" height="2.1"/>
	<rect id="XMLID_379_" x="839.2" y="77.7" class="st5" width="78" height="2.1"/>
	<g id="XMLID_375_">
		<rect id="XMLID_378_" x="91.4" y="52.4" class="st5" width="33.5" height="2.1"/>
		<rect id="XMLID_377_" x="134.2" y="52.4" class="st5" width="33.5" height="2.1"/>
		<rect id="XMLID_376_" x="174" y="52.4" class="st5" width="3.1" height="2.1"/>
	</g>
	<g id="XMLID_371_">
		<rect id="XMLID_374_" x="619.6" y="395" class="st5" width="33.5" height="2.1"/>
		<rect id="XMLID_373_" x="576.7" y="395" class="st5" width="33.5" height="2.1"/>
		<rect id="XMLID_372_" x="567.3" y="395" class="st5" width="3.1" height="2.1"/>
	</g>
	<g id="XMLID_367_">
		<rect id="XMLID_370_" x="898.5" y="346" class="st5" width="33.5" height="2.1"/>
		<rect id="XMLID_369_" x="855.6" y="346" class="st5" width="33.5" height="2.1"/>
		<rect id="XMLID_368_" x="846.2" y="346" class="st5" width="3.1" height="2.1"/>
	</g>
	<g id="XMLID_363_">
		<rect id="XMLID_366_" x="207.1" y="305.1" class="st5" width="33.5" height="2.1"/>
		<rect id="XMLID_365_" x="164.2" y="305.1" class="st5" width="33.5" height="2.1"/>
		<rect id="XMLID_364_" x="154.8" y="305.1" class="st5" width="3.1" height="2.1"/>
	</g>
	<g id="XMLID_353_">
		<rect id="XMLID_356_" x="768.8" y="128.7" class="st5" width="20" height="2.1"/>
		<rect id="XMLID_355_" x="743.2" y="128.7" class="st5" width="20" height="2.1"/>
		<rect id="XMLID_354_" x="737.6" y="128.7" class="st5" width="1.9" height="2.1"/>
	</g>
	<g id="XMLID_328_">
		<rect id="XMLID_352_" y="106" class="st5" width="3.1" height="2.3"/>
		<rect id="XMLID_351_" x="7.4" y="106" class="st5" width="3.1" height="2.3"/>
		<rect id="XMLID_350_" x="14.9" y="106" class="st5" width="3.1" height="2.3"/>
		<rect id="XMLID_349_" x="22.3" y="106" class="st5" width="3.1" height="2.3"/>
		<rect id="XMLID_348_" x="29.7" y="106" class="st5" width="3.1" height="2.3"/>
		<rect id="XMLID_347_" x="37.1" y="106" class="st5" width="3.1" height="2.3"/>
		<rect id="XMLID_346_" x="44.6" y="106" class="st5" width="3.1" height="2.3"/>
		<rect id="XMLID_345_" x="52" y="106" class="st5" width="3.1" height="2.3"/>
		<rect id="XMLID_344_" x="59.4" y="106" class="st5" width="3.1" height="2.3"/>
		<rect id="XMLID_343_" x="66.8" y="106" class="st5" width="3.1" height="2.3"/>
		<rect id="XMLID_342_" x="74.3" y="106" class="st5" width="3.1" height="2.3"/>
		<rect id="XMLID_341_" x="81.7" y="106" class="st5" width="3.1" height="2.3"/>
		<rect id="XMLID_340_" x="89.1" y="106" class="st5" width="3.1" height="2.3"/>
		<rect id="XMLID_339_" x="96.5" y="106" class="st5" width="3.1" height="2.3"/>
		<rect id="XMLID_338_" x="104" y="106" class="st5" width="3.1" height="2.3"/>
		<rect id="XMLID_337_" x="111.4" y="106" class="st5" width="3.1" height="2.3"/>
		<rect id="XMLID_336_" x="118.8" y="106" class="st5" width="3.1" height="2.3"/>
		<rect id="XMLID_335_" x="126.2" y="106" class="st5" width="3.1" height="2.3"/>
		<rect id="XMLID_334_" x="133.7" y="106" class="st5" width="3.1" height="2.3"/>
		<rect id="XMLID_333_" x="141.1" y="106" class="st5" width="3.1" height="2.3"/>
		<rect id="XMLID_332_" x="148.5" y="106" class="st5" width="3.1" height="2.3"/>
		<rect id="XMLID_331_" x="155.9" y="106" class="st5" width="3.1" height="2.3"/>
		<rect id="XMLID_330_" x="163.4" y="106" class="st5" width="3.1" height="2.3"/>
		<rect id="XMLID_329_" x="170.8" y="106" class="st5" width="3.1" height="2.3"/>
	</g>
	<g id="XMLID_277_">
		<rect id="XMLID_301_" x="761.8" y="381.2" class="st5" width="3.1" height="2.3"/>
		<rect id="XMLID_300_" x="769.2" y="381.2" class="st5" width="3.1" height="2.3"/>
		<rect id="XMLID_299_" x="776.7" y="381.2" class="st5" width="3.1" height="2.3"/>
		<rect id="XMLID_298_" x="784.1" y="381.2" class="st5" width="3.1" height="2.3"/>
		<rect id="XMLID_297_" x="791.5" y="381.2" class="st5" width="3.1" height="2.3"/>
		<rect id="XMLID_296_" x="798.9" y="381.2" class="st5" width="3.1" height="2.3"/>
		<rect id="XMLID_295_" x="806.4" y="381.2" class="st5" width="3.1" height="2.3"/>
		<rect id="XMLID_294_" x="813.8" y="381.2" class="st5" width="3.1" height="2.3"/>
		<rect id="XMLID_293_" x="821.2" y="381.2" class="st5" width="3.1" height="2.3"/>
		<rect id="XMLID_292_" x="828.6" y="381.2" class="st5" width="3.1" height="2.3"/>
		<rect id="XMLID_291_" x="836.1" y="381.2" class="st5" width="3.1" height="2.3"/>
		<rect id="XMLID_290_" x="843.5" y="381.2" class="st5" width="3.1" height="2.3"/>
		<rect id="XMLID_289_" x="850.9" y="381.2" class="st5" width="3.1" height="2.3"/>
		<rect id="XMLID_288_" x="858.3" y="381.2" class="st5" width="3.1" height="2.3"/>
		<rect id="XMLID_287_" x="865.8" y="381.2" class="st5" width="3.1" height="2.3"/>
		<rect id="XMLID_286_" x="873.2" y="381.2" class="st5" width="3.1" height="2.3"/>
		<rect id="XMLID_285_" x="880.6" y="381.2" class="st5" width="3.1" height="2.3"/>
		<rect id="XMLID_284_" x="888" y="381.2" class="st5" width="3.1" height="2.3"/>
		<rect id="XMLID_283_" x="895.5" y="381.2" class="st5" width="3.1" height="2.3"/>
		<rect id="XMLID_282_" x="902.9" y="381.2" class="st5" width="3.1" height="2.3"/>
		<rect id="XMLID_281_" x="910.3" y="381.2" class="st5" width="3.1" height="2.3"/>
		<rect id="XMLID_280_" x="917.7" y="381.2" class="st5" width="3.1" height="2.3"/>
		<rect id="XMLID_279_" x="925.2" y="381.2" class="st5" width="3.1" height="2.3"/>
		<rect id="XMLID_278_" x="932.6" y="381.2" class="st5" width="3.1" height="2.3"/>
	</g>
	<g id="XMLID_263_">
		<rect id="XMLID_276_" x="289.6" y="394.9" class="st5" width="3.1" height="2.3"/>
		<rect id="XMLID_275_" x="297" y="394.9" class="st5" width="3.1" height="2.3"/>
		<rect id="XMLID_274_" x="304.4" y="394.9" class="st5" width="3.1" height="2.3"/>
		<rect id="XMLID_273_" x="311.9" y="394.9" class="st5" width="3.1" height="2.3"/>
		<rect id="XMLID_272_" x="319.3" y="394.9" class="st5" width="3.1" height="2.3"/>
		<rect id="XMLID_271_" x="326.7" y="394.9" class="st5" width="3.1" height="2.3"/>
		<rect id="XMLID_270_" x="334.2" y="394.9" class="st5" width="3.1" height="2.3"/>
		<rect id="XMLID_269_" x="341.6" y="394.9" class="st5" width="3.1" height="2.3"/>
		<rect id="XMLID_268_" x="349" y="394.9" class="st5" width="3.1" height="2.3"/>
		<rect id="XMLID_267_" x="356.4" y="394.9" class="st5" width="3.1" height="2.3"/>
	</g>
	<g id="XMLID_233_">
		<rect id="XMLID_246_" x="814.6" y="107.9" class="st5" width="3.1" height="2.3"/>
		<rect id="XMLID_245_" x="822" y="107.9" class="st5" width="3.1" height="2.3"/>
		<rect id="XMLID_244_" x="829.5" y="107.9" class="st5" width="3.1" height="2.3"/>
		<rect id="XMLID_243_" x="836.9" y="107.9" class="st5" width="3.1" height="2.3"/>
		<rect id="XMLID_242_" x="844.3" y="107.9" class="st5" width="3.1" height="2.3"/>
		<rect id="XMLID_241_" x="851.8" y="107.9" class="st5" width="3.1" height="2.3"/>
		<rect id="XMLID_240_" x="859.2" y="107.9" class="st5" width="3.1" height="2.3"/>
		<rect id="XMLID_239_" x="866.6" y="107.9" class="st5" width="3.1" height="2.3"/>
		<rect id="XMLID_238_" x="874" y="107.9" class="st5" width="3.1" height="2.3"/>
		<rect id="XMLID_237_" x="881.5" y="107.9" class="st5" width="3.1" height="2.3"/>
		<rect id="XMLID_236_" x="888.9" y="107.9" class="st5" width="3.1" height="2.3"/>
		<rect id="XMLID_235_" x="896.3" y="107.9" class="st5" width="3.1" height="2.3"/>
		<rect id="XMLID_234_" x="903.7" y="107.9" class="st5" width="3.1" height="2.3"/>
	</g>
	<g id="XMLID_156_">
		<polygon id="XMLID_189_" class="st17" points="198.3,273.8 198.6,273.9 198.7,273.8 198.4,273.7 		"/>
		<g id="XMLID_182_">
			<polygon id="XMLID_186_" class="st9" points="198.6,273.9 198.3,273.8 177.7,286 177.7,286 219.4,286 198.7,273.8 			"/>
			<path id="XMLID_183_" class="st5" d="M219.8,286.1v-0.6l-21.1-12.4l-0.1,0.1l-0.2-0.1l-21,12.4v0.7H219.8z M198.3,274.5l0.2,0.1
				l0.1-0.1l18.3,10.7h-36.9L198.3,274.5z"/>
		</g>
		<g id="XMLID_177_">
			<polygon id="XMLID_181_" class="st9" points="177.7,261.6 177.7,261.6 177.7,286 198.3,273.8 			"/>
			<path id="XMLID_178_" class="st5" d="M178.7,286.1l20.9-12.3l-21.4-12.5h-0.9v24.9H178.7z M178.3,262.8l18.7,11l-18.7,11.1V262.8
				z"/>
		</g>
		<g id="XMLID_172_">
			<polygon id="XMLID_176_" class="st9" points="219.4,261.6 198.7,273.8 219.4,286 219.4,261.6 			"/>
			<path id="XMLID_173_" class="st5" d="M219.8,286.1v-24.9h-1.1l-21.4,12.6l20.9,12.3H219.8z M218.7,262.8v22.1l-18.7-11
				L218.7,262.8z"/>
		</g>
		<g id="XMLID_157_">
			<polygon id="XMLID_171_" class="st9" points="198.7,279.9 219.4,261.6 177.7,261.6 			"/>
			<path id="XMLID_168_" class="st5" d="M177.3,261.2v1l21.3,18.6l21.1-18.7v-0.9H177.3z M198.7,279.1l-19.3-16.8h38.2L198.7,279.1z
				"/>
		</g>
	</g>
	<path id="XMLID_133_" class="st5" d="M235.3,406.2c-4.7,0-9.3-0.9-13.6-2.7c-4.2-1.8-7.9-4.3-11.1-7.5c-3.2-3.2-5.7-6.9-7.5-11.1
		c-1.8-4.3-2.7-8.9-2.7-13.6c0-4.7,0.9-9.3,2.7-13.6c1.8-4.2,4.3-7.9,7.5-11.1c3.2-3.2,6.9-5.7,11.1-7.5c4.3-1.8,8.9-2.7,13.6-2.7
		c4.7,0,9.3,0.9,13.6,2.7c4.2,1.8,7.9,4.3,11.1,7.5c3.2,3.2,5.7,6.9,7.5,11.1c1.8,4.3,2.7,8.9,2.7,13.6c0,4.7-0.9,9.3-2.7,13.6
		c-1.8,4.2-4.3,7.9-7.5,11.1c-3.2,3.2-6.9,5.7-11.1,7.5C244.6,405.3,240,406.2,235.3,406.2z M236.6,403.6l1.6-0.6
		c0.1,0,0.1,0,0.2-0.1l0.1,0c0.2-0.1,0.3-0.1,0.5-0.2c0,0,0,0,0.1,0l0,0l0,0l0,0c0.1-0.1,0.2-0.1,0.4-0.2l0.1-0.1
		c0.1-0.1,0.3-0.2,0.4-0.2l0,0c0.2-0.1,0.3-0.2,0.4-0.3l0.1-0.1c0.1-0.1,0.2-0.2,0.3-0.2c0,0,0.1-0.1,0.1-0.1
		c0.1-0.1,0.3-0.2,0.4-0.3c0,0,0,0,0.1-0.1c0.1-0.1,0.2-0.2,0.4-0.3l0.1-0.1c0.1-0.1,0.2-0.2,0.3-0.3l0.1-0.1
		c0.1-0.1,0.3-0.3,0.4-0.4l0.1-0.1c0.1-0.1,0.2-0.2,0.3-0.3c0-0.1,0.1-0.1,0.1-0.2c0.1-0.1,0.2-0.2,0.3-0.3l0,0c0,0,0-0.1,0.1-0.1
		c0.1-0.1,0.2-0.3,0.3-0.4c0,0,0.1-0.1,0.1-0.1l0,0c0.1-0.1,0.2-0.2,0.3-0.3c0,0,0.1-0.1,0.1-0.2c0.1-0.1,0.2-0.3,0.3-0.4l0.1-0.1
		c0.1-0.1,0.2-0.3,0.3-0.4c0-0.1,0.1-0.1,0.1-0.2c0.1-0.1,0.1-0.2,0.2-0.3c0-0.1,0.1-0.1,0.1-0.2l0,0c0.1-0.2,0.2-0.4,0.3-0.5
		l0.1-0.2c0.1-0.1,0.1-0.3,0.2-0.4c0-0.1,0.1-0.2,0.1-0.3c0.1-0.1,0.1-0.2,0.2-0.4l0,0c0-0.1,0.1-0.1,0.1-0.2
		c0.1-0.2,0.2-0.4,0.3-0.6l0.1-0.3c0.1-0.1,0.1-0.2,0.2-0.4l0.1-0.3c0-0.1,0.1-0.2,0.1-0.3l0-0.1c0-0.1,0.1-0.2,0.1-0.3l0.2-0.4
		l0.5-1.3l-1.6-0.3c-0.1,0-0.2,0-0.4-0.1c-0.1,0-0.2,0-0.4-0.1c-0.5-0.1-1-0.2-1.5-0.3c-0.1,0-0.2,0-0.3,0l0,0
		c-0.5-0.1-0.9-0.1-1.3-0.2l-0.1,0c-0.1,0-0.1,0-0.2,0c-0.5-0.1-1-0.1-1.6-0.2l-0.4,0c-0.6,0-1-0.1-1.5-0.1l-0.2,0c-0.3,0-0.7,0-1,0
		l-1.4-0.1V403.6z M232.2,403c0.1,0,0.1,0.1,0.2,0.1l1.6,0.6v-14.9l-1.4,0.1c-0.3,0-0.7,0-1,0l-0.2,0c-0.4,0-0.9,0.1-1.5,0.1l-0.4,0
		c-0.6,0.1-1.1,0.1-1.6,0.2c-0.1,0-0.2,0-0.3,0l-0.1,0c-0.4,0.1-0.9,0.1-1.3,0.2c0,0-0.3,0-0.4,0.1c-0.5,0.1-1,0.2-1.5,0.2
		c-0.1,0-0.4,0.1-0.4,0.1c-0.1,0-0.2,0-0.4,0.1l-1.5,0.3l0.6,1.4c0.1,0.1,0.1,0.3,0.2,0.4l0,0.1c0.1,0.2,0.2,0.4,0.3,0.6l0.1,0.2
		c0.1,0.2,0.1,0.3,0.2,0.5l0.1,0.2c0.1,0.2,0.2,0.4,0.3,0.6l0.1,0.2c0.1,0.1,0.1,0.3,0.2,0.4c0,0.1,0.1,0.2,0.1,0.2
		c0.1,0.1,0.2,0.3,0.2,0.4l0.1,0.2c0.1,0.2,0.2,0.4,0.3,0.5l0.1,0.2c0.1,0.1,0.2,0.3,0.2,0.4l0.1,0.2c0.1,0.2,0.2,0.3,0.3,0.5
		c0,0,0.1,0.1,0.1,0.1c0.1,0.2,0.2,0.3,0.3,0.5l0.1,0.2c0.1,0.1,0.2,0.2,0.3,0.3l0,0c0,0,0.1,0.1,0.1,0.1c0.1,0.2,0.2,0.3,0.4,0.4
		c0,0,0.1,0.1,0.1,0.1c0.1,0.1,0.2,0.2,0.3,0.3c0,0,0.1,0.1,0.1,0.1l0,0c0.1,0.1,0.2,0.2,0.3,0.3l0.1,0.1c0.1,0.1,0.3,0.3,0.4,0.4
		l0.1,0.1c0.1,0.1,0.2,0.2,0.3,0.3l0.1,0.1c0.1,0.1,0.3,0.2,0.4,0.3l0,0c0.1,0.1,0.3,0.2,0.4,0.3l0.1,0.1c0.1,0.1,0.2,0.2,0.4,0.3
		l0.1,0.1c0.3,0.2,0.6,0.4,0.9,0.5c0,0,0.1,0,0.1,0.1c0.1,0.1,0.3,0.1,0.4,0.2c0,0,0.1,0,0.1,0C231.8,402.8,232,402.9,232.2,403
		L232.2,403z M218.6,398.9c0.1,0.1,0.2,0.1,0.3,0.2c0.7,0.4,1.5,0.8,2.2,1.2c0.1,0,0.2,0.1,0.3,0.2c0.4,0.2,0.9,0.4,1.3,0.6l3.9,1.6
		l-2.5-3.4c0,0-0.1-0.2-0.1-0.2c-0.1-0.2-0.2-0.3-0.3-0.5l-0.2-0.3c-0.1-0.2-0.2-0.4-0.3-0.5l-0.2-0.3c-0.1-0.2-0.3-0.4-0.4-0.6
		c0,0-0.1-0.1-0.1-0.2c-0.2-0.3-0.3-0.6-0.5-0.9l0,0l0,0c-0.1-0.3-0.3-0.6-0.4-0.8l-0.1-0.3c-0.1-0.2-0.2-0.4-0.3-0.7
		c-0.1-0.1-0.1-0.2-0.1-0.3c-0.1-0.2-0.2-0.5-0.3-0.7l-0.1-0.3c-0.1-0.2-0.2-0.5-0.3-0.7l-0.1-0.2l-0.4-1c0,0-1.3,0.4-1.3,0.4
		c-0.2,0.1-0.5,0.2-0.7,0.2c-0.2,0.1-0.4,0.1-0.7,0.2c-0.2,0.1-0.4,0.2-0.7,0.2c-0.2,0.1-0.4,0.2-0.7,0.2c-0.2,0.1-0.4,0.2-0.6,0.3
		c-0.2,0.1-0.4,0.2-0.6,0.3c-0.2,0.1-0.4,0.2-0.6,0.3l-0.3,0.1l-1.6,0.7l1.3,1.2c1,0.9,2,1.8,3.1,2.6
		C217.1,398,217.8,398.5,218.6,398.9L218.6,398.9z M250.5,391.7l-0.1,0.2c-0.1,0.2-0.2,0.5-0.3,0.7c0,0.1-0.1,0.2-0.1,0.3l-0.1,0.1
		c-0.1,0.2-0.2,0.4-0.3,0.6c0,0.1-0.1,0.2-0.1,0.3l0,0.1c-0.1,0.2-0.2,0.4-0.3,0.6l0,0.1c0,0.1-0.1,0.2-0.1,0.3
		c-0.1,0.3-0.2,0.5-0.4,0.7c0,0-0.1,0.1-0.1,0.2c-0.2,0.3-0.3,0.6-0.5,0.9L248,397c-0.1,0.2-0.2,0.4-0.4,0.6
		c-0.1,0.1-0.1,0.2-0.2,0.3c-0.1,0.2-0.2,0.4-0.3,0.5l-0.2,0.3c-0.1,0.2-0.2,0.3-0.4,0.5c0,0-0.1,0.1-0.1,0.2l-2.4,3.4l3.8-1.6
		c0.3-0.1,0.7-0.3,1-0.4c3.1-1.5,6-3.4,8.5-5.7l1.3-1.2l-1.7-0.8c-0.1,0-0.1-0.1-0.2-0.1c-0.2-0.1-0.4-0.2-0.6-0.3
		c-0.2-0.1-0.4-0.2-0.6-0.3c-0.2-0.1-0.4-0.2-0.6-0.2c-0.2-0.1-0.4-0.2-0.7-0.3c-0.2-0.1-0.4-0.1-0.6-0.2c-0.2-0.1-0.5-0.2-0.7-0.2
		c-0.2-0.1-0.4-0.1-0.7-0.2c-0.1,0-0.2-0.1-0.3-0.1l-1-0.3L250.5,391.7z M203.1,373.8c0.2,3.1,0.9,6.1,2,9c1.1,2.9,2.7,5.7,4.6,8.2
		l0.6,0.8l0.9-0.4c0.2-0.1,0.3-0.2,0.5-0.3l0.2-0.1c0.4-0.2,0.7-0.3,1.1-0.5l0.3-0.1c0.4-0.2,0.8-0.3,1.2-0.5l0.1,0
		c0.4-0.1,0.8-0.3,1.2-0.4c0,0,0.2-0.1,0.2-0.1c0.4-0.2,0.9-0.3,1.3-0.4c0,0,0.2-0.1,0.2-0.1l0.2-0.1c0.1,0,0.2-0.1,0.3-0.1l1.1-0.3
		v0l0,0l-0.3-1.1l0-0.1c-0.1-0.4-0.2-0.8-0.3-1.2l-0.1-0.3c-0.1-0.5-0.2-1-0.3-1.4c0,0,0-0.2-0.1-0.3c-0.1-0.4-0.2-0.8-0.2-1.3
		c0,0,0-0.2-0.1-0.3c-0.1-0.5-0.2-1-0.2-1.5l0-0.1c0-0.1,0-0.1,0-0.2c-0.1-0.4-0.1-0.9-0.2-1.3l0-0.4c-0.1-0.6-0.1-1.1-0.2-1.5
		c0-0.1,0-0.1,0-0.2l0-0.1c0-0.5-0.1-0.9-0.1-1.4c0-0.1,0-0.3,0-0.4l0,0c0-0.5-0.1-1-0.1-1.5l0-1.2l-1.2,0H203L203.1,373.8z
		 M251.7,388.3l1.1,0.3c0.1,0,0.2,0.1,0.3,0.1l0.1,0c0.1,0,0.2,0,0.2,0.1c0.4,0.1,0.8,0.3,1.2,0.4l0.3,0.1c0.4,0.1,0.8,0.3,1.1,0.4
		l0.1,0c0.4,0.2,0.8,0.3,1.2,0.5l0.3,0.1c0.4,0.2,0.7,0.3,1.1,0.5c0.1,0,0.1,0.1,0.2,0.1l0.1,0.1c0.1,0.1,0.3,0.1,0.4,0.2l0.8,0.4
		l0.6-0.8c0.1-0.1,0.1-0.2,0.2-0.3l0,0c0.5-0.7,1-1.4,1.5-2.2c0.4-0.6,0.8-1.3,1.1-2l0.2-0.4c0,0,0.2-0.3,0.2-0.4
		c1.3-2.5,2.2-5.2,2.8-8c0.1-0.6,0.2-1.3,0.3-2c0.1-0.7,0.2-1.3,0.2-2l0.1-1.3H254l-0.1,1.1v0.1c0,0.4,0,0.9-0.1,1.5l0,0.1
		c0,0.1,0,0.2,0,0.3c0,0.4-0.1,0.9-0.1,1.3c0,0,0,0.2,0,0.3c0,0.5-0.1,0.9-0.2,1.5c0,0.1-0.1,0.4-0.1,0.4c-0.1,0.4-0.1,0.8-0.2,1.3
		l0,0.3c-0.1,0.5-0.1,0.9-0.2,1.5l-0.1,0.4c-0.1,0.4-0.2,0.8-0.2,1.2l-0.1,0.3c-0.1,0.5-0.2,1-0.3,1.4c0,0-0.1,0.2-0.1,0.3
		c-0.1,0.4-0.2,0.8-0.3,1.2c0,0,0,0.1,0,0.1L251.7,388.3L251.7,388.3L251.7,388.3z M219.4,377.2c0,0.4,0.1,0.9,0.2,1.4
		c0,0.1,0,0.2,0,0.3c0.1,1,0.3,2,0.4,2.9c0,0.1,0.1,0.3,0.1,0.3c0.1,0.5,0.2,0.9,0.3,1.3l0,0.1c0.1,0.4,0.2,0.9,0.3,1.4l0.1,0.3
		c0.1,0.4,0.2,0.8,0.3,1.1l0.3,1.3l1.1-0.2c0.4-0.1,0.9-0.2,1.3-0.3l0.2,0c0.5-0.1,1-0.2,1.5-0.3c0.1,0,0.3,0,0.4-0.1
		c1.1-0.2,2.3-0.3,3.4-0.4c0.1,0,0.4,0,0.4,0c0.5,0,1-0.1,1.5-0.1l0.3,0c0.5,0,1-0.1,1.5-0.1l1.1,0v-13.6h-14.9l0,1.2
		c0,0,0,0.1,0,0.1c0,0.5,0,0.9,0.1,1.4l0,0.3c0,0.5,0.1,1,0.1,1.5L219.4,377.2z M236.6,386.2l1.1,0c0.5,0,0.9,0,1.4,0.1
		c0.1,0,0.4,0,0.4,0c0.5,0,0.9,0.1,1.3,0.1c0.2,0,0.4,0,0.5,0c0.6,0.1,1.1,0.1,1.6,0.2c0,0,0.2,0,0.2,0c0.5,0.1,1,0.1,1.5,0.2
		c0.1,0,0.2,0,0.3,0l0.2,0c0.5,0.1,0.9,0.1,1.3,0.2c0,0,0.2,0,0.3,0.1c0.4,0.1,0.9,0.2,1.3,0.3l1.1,0.2l0.3-1.1
		c0.1-0.4,0.2-0.8,0.3-1.3l0.1-0.3c0.1-0.5,0.2-1,0.3-1.4l0-0.1c0.1-0.4,0.2-0.9,0.3-1.3l0.1-0.3c0.1-0.4,0.2-0.9,0.2-1.4l0-0.1
		c0.1-0.5,0.1-0.9,0.2-1.4l0-0.4c0.1-0.4,0.1-0.9,0.1-1.3c0,0,0-0.1,0-0.2c0-0.4,0.1-0.9,0.1-1.4c0-0.1,0-0.3,0-0.4
		c0-0.4,0-0.8,0.1-1.2l0.1-1.5h-14.9V386.2z M259.4,351.3c-0.1,0.1-0.3,0.1-0.4,0.2c0,0-0.3,0.1-0.3,0.2c-0.3,0.2-0.7,0.3-1.1,0.5
		c-0.1,0-0.3,0.1-0.3,0.1c-0.4,0.2-0.8,0.3-1.2,0.5l-0.1,0c-0.3,0.1-0.7,0.3-1.2,0.4l-0.2,0.1c-0.4,0.1-0.8,0.3-1.3,0.4l-0.4,0.1
		c-0.1,0-0.2,0.1-0.3,0.1l-1.1,0.3l0.3,1.1l0,0.2c0.1,0.4,0.2,0.8,0.3,1.2l0.1,0.3c0.1,0.5,0.2,1,0.3,1.4c0,0,0,0.2,0.1,0.3
		c0.1,0.4,0.2,0.8,0.2,1.2l0.1,0.4c0.1,0.5,0.2,1,0.2,1.5c0,0.1,0,0.2,0,0.3c0.1,0.4,0.1,0.9,0.2,1.3l0,0.1c0,0.1,0,0.2,0,0.3
		c0.1,0.6,0.1,1.1,0.2,1.5c0,0.1,0,0.3,0,0.3c0,0.4,0.1,0.9,0.1,1.3l0,0.5c0,0.6,0.1,1.1,0.1,1.5v0l0.1,1.1l1.1,0h12.5l-0.1-1.2
		c-0.2-3.1-0.9-6.1-2-9c-1.1-2.9-2.7-5.7-4.6-8.2l-0.6-0.8L259.4,351.3z M248.1,355.1c-3.3,0.7-6.8,1.1-10.4,1.2l-1.1,0V370h14.9
		l-0.1-1.3c0-0.4,0-0.9-0.1-1.4c0-0.1,0-0.2,0-0.3c0-0.5-0.1-1-0.1-1.5l0-0.1c0-0.4-0.1-0.9-0.2-1.4c0,0,0-0.3,0-0.4
		c-0.1-0.5-0.1-0.9-0.2-1.4l0-0.1c-0.1-0.4-0.1-0.9-0.2-1.4l-0.1-0.3c-0.1-0.4-0.2-0.9-0.3-1.3l0-0.1c-0.1-0.5-0.2-0.9-0.3-1.4
		c0-0.1-0.1-0.2-0.1-0.3c-0.1-0.4-0.2-0.8-0.3-1.2l-0.3-1.2L248.1,355.1z M219.4,365.5c0,0.5-0.1,1-0.1,1.5l0,0.3
		c0,0.5-0.1,0.9-0.1,1.4l-0.1,1.3l1.2,0H234v-13.6l-1.1,0c-0.5,0-1.1,0-1.5-0.1c-0.1,0-0.1,0-0.2,0c-0.5,0-1-0.1-1.6-0.1
		c-0.1,0-0.3,0-0.4,0c-0.6-0.1-1.2-0.1-1.7-0.2l0,0c-0.5-0.1-1-0.1-1.6-0.2c-0.1,0-0.2,0-0.3-0.1l-0.1,0c-0.5-0.1-1-0.2-1.4-0.2
		l-0.3,0c-0.4-0.1-0.9-0.2-1.3-0.3l-1.1-0.2l-0.3,1.1c0,0.1,0,0.1,0,0.2c-0.1,0.4-0.2,0.7-0.3,1.1l-0.1,0.3c-0.1,0.5-0.2,1-0.3,1.4
		l0,0.1c-0.1,0.4-0.2,0.8-0.3,1.3c0,0.1,0,0.2-0.1,0.3c-0.2,1-0.3,2-0.4,2.9l0,0.3C219.5,364.4,219.5,364.9,219.4,365.5L219.4,365.5
		z M209.7,351.6c-1.9,2.5-3.5,5.2-4.6,8.2c-1.1,2.9-1.8,5.9-2,9L203,370h13.6l0-1.1l0-0.1c0-0.5,0-0.9,0.1-1.5l0-0.5
		c0-0.4,0.1-0.9,0.1-1.3c0,0,0-0.2,0-0.2c0-0.5,0.1-1,0.2-1.5c0-0.1,0-0.4,0-0.4c0.1-0.4,0.1-0.9,0.2-1.3l0-0.2
		c0.1-0.5,0.2-1,0.2-1.5c0-0.1,0-0.2,0.1-0.3c0.1-0.4,0.2-0.9,0.2-1.3c0,0,0-0.2,0-0.3c0.1-0.5,0.2-0.9,0.3-1.5l0.1-0.3
		c0.1-0.4,0.2-0.8,0.3-1.2c0,0,0-0.1,0-0.1l0.3-1.2l0,0l0,0l-1.1-0.3c-0.1,0-0.2-0.1-0.3-0.1l-0.4-0.1c-0.4-0.1-0.8-0.3-1.2-0.4
		l-0.3-0.1c-0.4-0.2-0.8-0.3-1.1-0.4l-0.1,0c-0.3-0.1-0.7-0.3-1.2-0.5c-0.1,0-0.2-0.1-0.3-0.1c-0.4-0.2-0.7-0.3-1.1-0.5
		c0,0-0.3-0.2-0.3-0.2c-0.1-0.1-0.3-0.1-0.4-0.2l-0.9-0.4L209.7,351.6z M223.6,349.2c-0.1,0.2-0.2,0.4-0.3,0.6c0,0.1,0,0.1-0.1,0.2
		c-0.2,0.4-0.4,0.8-0.5,1.2l-0.5,1.3l1.5,0.3c0.1,0,0.2,0.1,0.4,0.1l0.4,0.1c0.5,0.1,1,0.2,1.5,0.3c0.1,0,0.2,0,0.4,0.1
		c0.4,0.1,0.9,0.1,1.3,0.2l0.3,0c0.5,0.1,1.1,0.1,1.6,0.2c0.1,0,0.4,0,0.4,0c0.6,0,1,0.1,1.5,0.1l0.2,0c0.4,0,0.7,0,1.1,0.1l1.3,0.1
		V339l-1.6,0.6c-0.1,0-0.1,0.1-0.2,0.1l0,0l0,0c-0.2,0.1-0.3,0.1-0.5,0.2c0,0,0,0-0.1,0c-0.1,0.1-0.3,0.1-0.4,0.2c0,0-0.1,0-0.1,0.1
		c-0.3,0.2-0.6,0.4-0.9,0.6l-0.1,0.1c-0.1,0.1-0.2,0.2-0.4,0.3c0,0-0.1,0.1-0.1,0.1c-0.1,0.1-0.3,0.2-0.4,0.3l0,0l0,0
		c-0.1,0.1-0.2,0.2-0.4,0.3l-0.1,0.1c-0.1,0.1-0.2,0.2-0.3,0.3c0,0-0.1,0.1-0.1,0.1c-0.1,0.1-0.3,0.3-0.4,0.4l-0.1,0.1
		c-0.1,0.1-0.2,0.2-0.3,0.4c0,0-0.1,0.1-0.1,0.1c-0.1,0.1-0.2,0.2-0.3,0.4c0,0,0,0-0.1,0.1c-0.1,0.1-0.2,0.3-0.4,0.5
		c0,0-0.1,0.1-0.1,0.1c-0.1,0.1-0.2,0.2-0.3,0.4c0,0-0.1,0.1-0.1,0.1c-0.2,0.3-0.5,0.7-0.7,1l-0.1,0.2c-0.1,0.1-0.2,0.3-0.3,0.4
		c0,0-0.1,0.1-0.1,0.1c-0.1,0.2-0.2,0.4-0.3,0.6c0,0-0.1,0.1-0.1,0.1c-0.1,0.2-0.2,0.3-0.3,0.5l-0.1,0.2c-0.1,0.2-0.2,0.3-0.3,0.5
		l0,0.1c-0.1,0.2-0.2,0.4-0.3,0.6C223.6,349.2,223.6,349.2,223.6,349.2z M236.6,353.9l1.2,0c3.2-0.1,6.3-0.5,9.3-1.1l1.4-0.3
		l-0.5-1.3c-2.5-6.1-5.9-10.3-9.8-11.7l-1.6-0.6V353.9z M222.8,341.5c-0.3,0.1-0.7,0.3-1,0.5c-3.1,1.4-6,3.4-8.5,5.7l-1.2,1.2
		l1.6,0.7c0.1,0,0.2,0.1,0.3,0.1c0.2,0.1,0.4,0.2,0.6,0.3c0.2,0.1,0.4,0.2,0.6,0.3c0.2,0.1,0.4,0.2,0.7,0.3c0.2,0.1,0.4,0.2,0.6,0.2
		c0.2,0.1,0.4,0.2,0.7,0.2c0.2,0.1,0.4,0.1,0.6,0.2c0.2,0.1,0.5,0.2,0.7,0.2c0.1,0,0.3,0.1,0.3,0.1l1,0.3l0.4-1c0,0,0-0.1,0-0.1
		l0-0.1c0.1-0.2,0.2-0.5,0.3-0.7c0-0.1,0.2-0.4,0.2-0.4c0.1-0.2,0.2-0.4,0.3-0.6l0,0c0-0.1,0.1-0.2,0.1-0.3c0.1-0.2,0.2-0.5,0.3-0.7
		l0-0.1c0-0.1,0.1-0.1,0.1-0.2c0.2-0.3,0.3-0.6,0.4-0.9l0,0c0.1-0.3,0.3-0.6,0.5-0.9l0.1-0.2c0.1-0.2,0.3-0.5,0.4-0.7
		c0,0,0.1-0.2,0.2-0.2c0.1-0.2,0.2-0.4,0.4-0.6c0.1-0.1,0.1-0.2,0.2-0.2c0.1-0.2,0.3-0.4,0.4-0.6l0.1-0.1l2.5-3.4L222.8,341.5z
		 M246.5,343.3c1.5,2.1,2.9,4.7,4,7.6l0.4,1c0,0,1.3-0.4,1.3-0.4c0.2-0.1,0.5-0.2,0.7-0.2c0.2-0.1,0.4-0.1,0.6-0.2
		c0.2-0.1,0.5-0.2,0.7-0.3c0.2-0.1,0.4-0.2,0.6-0.2c0.2-0.1,0.4-0.2,0.7-0.3c0.2-0.1,0.4-0.2,0.6-0.3c0.2-0.1,0.4-0.2,0.6-0.3
		c0.1,0,0.2-0.1,0.3-0.1l1.5-0.7l-1.2-1.2c-2.5-2.3-5.4-4.3-8.5-5.7c-0.3-0.2-0.7-0.3-1-0.5l-3.8-1.6L246.5,343.3z"/>
	<g id="XMLID_95_">
		<polygon id="XMLID_131_" class="st17" points="718.6,160.5 713.7,169.5 703.4,170.2 698.2,178.9 713.3,202.3 718.6,193.7 
			728.5,192.5 733.8,183.9 743.7,182.7 728.9,159.7 		"/>
		<polygon id="XMLID_124_" class="st18" points="703.4,170.2 718.6,193.7 728.5,192.5 713.7,169.5 		"/>
		<polygon id="XMLID_97_" class="st18" points="718.6,160.5 733.7,183.9 743.7,182.7 728.9,159.7 		"/>
	</g>
	<g id="XMLID_33_">
		<path id="XMLID_72_" class="st5" d="M69.7,59.7l5.2-2.5l-0.3-0.8c-0.6-1.6-1.1-3.3-1.2-5l-0.1-0.9l-5.6,0.2
			c-0.6-1.5-1.4-2.9-2.2-4.2l3.1-4.7l-0.7-0.6c-1.4-1.1-2.6-2.3-3.6-3.7l-0.5-0.7l-4.7,2.9c-1.3-1-2.7-1.8-4.1-2.5l0.4-5.6l-0.9-0.1
			c-1.7-0.2-3.4-0.7-4.9-1.4l-0.8-0.4l-2.7,4.9c-1.6-0.2-3.1-0.2-4.7-0.1l-2.5-5.1l-0.8,0.3c-1.6,0.6-3.3,1.1-5,1.2L31.9,31l0.2,5.8
			c-1.4,0.6-2.7,1.4-3.9,2.2l-4.9-3.3l-0.6,0.7c-1.1,1.4-2.3,2.6-3.7,3.6l-0.7,0.5l3.2,5.1c-0.8,1.2-1.6,2.4-2.2,3.7L13,48.9
			l-0.1,0.9c-0.2,1.7-0.7,3.4-1.4,5l-0.4,0.8l5.5,3c-0.1,1.4-0.1,2.7-0.1,4.1l-5.7,2.8l0.3,0.8c0.6,1.6,1.1,3.3,1.2,5l0.1,0.9
			l6.4-0.2c0.6,1.2,1.2,2.4,1.9,3.5l-3.6,5.4l0.7,0.6c1.4,1.1,2.6,2.3,3.6,3.7l0.5,0.7l5.5-3.4c1.1,0.8,2.2,1.5,3.4,2.1l-0.4,6.5
			l0.9,0.1c1.7,0.2,3.4,0.7,5,1.4l0.8,0.4l3-5.6c1.3,0.1,2.7,0.2,4,0.1l2.8,5.8l0.8-0.3c1.6-0.6,3.3-1.1,5-1.2l0.9-0.1l-0.2-6.2
			c1.3-0.6,2.5-1.2,3.7-1.9l5.2,3.5l0.6-0.7c1.1-1.4,2.3-2.6,3.7-3.6l0.7-0.5L64.3,77c0.9-1.2,1.7-2.4,2.4-3.7l6,0.4l0.1-0.9
			c0.2-1.7,0.7-3.4,1.4-5l0.4-0.8l-5.1-2.7C69.7,62.8,69.7,61.2,69.7,59.7z M72.1,67.9c-0.5,1.2-0.8,2.5-1.1,3.7l-5.5-0.4l-0.3,0.6
			c-0.8,1.6-1.7,3.1-2.8,4.5l-0.4,0.5l2.9,4.7c-1,0.8-2,1.7-2.8,2.7l-4.8-3.2l-0.5,0.4c-1.4,0.9-2.9,1.7-4.5,2.4l-0.6,0.3l0.2,5.8
			c-1.3,0.2-2.6,0.5-3.8,0.9l-2.6-5.3l-0.6,0c-1.6,0.1-3.3,0-5-0.2l-0.7-0.1l-2.8,5.3c-1.2-0.5-2.5-0.8-3.7-1.1l0.4-6l-0.6-0.3
			c-1.5-0.7-2.9-1.6-4.2-2.6l-0.5-0.4l-5.1,3.2c-0.8-1-1.7-2-2.7-2.8l3.4-5L22.8,75c-0.9-1.3-1.7-2.8-2.4-4.3l-0.3-0.6l-6,0.2
			c-0.2-1.3-0.5-2.6-0.9-3.8l5.3-2.6l-0.1-0.7c-0.2-1.7-0.1-3.4,0.1-5l0.1-0.7l-5.1-2.7c0.5-1.2,0.8-2.5,1.1-3.7l5.7,0.4l0.3-0.6
			c0.7-1.6,1.6-3.1,2.7-4.5l0.4-0.5L20.8,41c1-0.8,2-1.7,2.8-2.7l4.6,3.1l0.5-0.4c1.5-1.1,3.1-2,4.7-2.7l0.6-0.3l-0.2-5.3
			c1.3-0.2,2.6-0.5,3.8-0.9l2.3,4.7l0.7-0.1c1.9-0.2,3.8-0.2,5.6,0.1l0.7,0.1l2.5-4.5c1.2,0.5,2.5,0.8,3.7,1.1l-0.3,5.2l0.6,0.3
			c1.7,0.8,3.3,1.8,4.9,3l0.5,0.4l4.3-2.7c0.8,1,1.7,2,2.7,2.8L63,46.4l0.4,0.5c1.1,1.5,2,3.2,2.7,5l0.3,0.6l5.2-0.2
			c0.2,1.3,0.5,2.6,0.9,3.8l-4.7,2.3l0,0.7c0.1,1.8,0.1,3.7-0.2,5.5l-0.1,0.7L72.1,67.9z"/>
		<path id="XMLID_64_" class="st5" d="M43.1,39.5c-11.8,0-21.3,9.6-21.3,21.3s9.6,21.3,21.3,21.3c11.8,0,21.3-9.6,21.3-21.3
			S54.8,39.5,43.1,39.5z M59.9,51.7c2.5,4.5,3,9.6,1.6,14.6c-2.4,8.2-9.9,13.8-18.4,13.8c-1.8,0-3.6-0.3-5.3-0.8
			c-4.9-1.4-9-4.7-11.5-9.1c-2.5-4.5-3.1-9.6-1.6-14.6c2.4-8.1,9.9-13.8,18.4-13.8c1.8,0,3.6,0.3,5.3,0.8
			C53.3,44,57.4,47.2,59.9,51.7z"/>
		<path id="XMLID_38_" class="st5" d="M33.1,60.8c0,5.5,4.5,10,10,10c5.5,0,10-4.5,10-10s-4.5-10-10-10
			C37.6,50.8,33.1,55.3,33.1,60.8z M51.1,60.8c0,4.4-3.6,8.1-8.1,8.1c-4.4,0-8.1-3.6-8.1-8.1c0-4.4,3.6-8.1,8.1-8.1
			C47.5,52.8,51.1,56.4,51.1,60.8z"/>
	</g>
	<g id="XMLID_206_">
		<path id="XMLID_204_" class="st9" d="M762,14v73.2c2.1,0.9,6.2,3,6.2,5.4c0,0.1,0,0.2,0,0.4l57.9,2.5l1.1-81.5H762z"/>
		<g id="XMLID_190_">
			<g id="XMLID_600_">
				<polygon id="XMLID_203_" points="760.8,14 760.8,87 762.7,87 762.7,15.9 825.5,15.9 825.5,93.3 770.2,93.3 770.2,95.2 
					827.4,95.2 827.4,14 				"/>
			</g>
			<polygon id="XMLID_202_" class="st19" points="761,87.3 770,95.2 770.2,87.2 			"/>
			<g id="XMLID_503_">
				<path id="XMLID_201_" class="st20" d="M815,7.8h-13.4c-0.6,3-3.2,5.2-6.4,5.2c-3.2,0-5.8-2.3-6.4-5.2h-13.4
					c-1.8,0-3.2,1.4-3.2,3.2v5.3h46V11C818.2,9.2,816.8,7.8,815,7.8z"/>
				<path id="XMLID_595_" d="M795.2,0c-3.6,0-6.5,2.9-6.5,6.5c0,0.4,0,0.9,0.1,1.3c0.6,3,3.2,5.2,6.4,5.2c3.2,0,5.8-2.3,6.4-5.2
					c0.1-0.4,0.1-0.8,0.1-1.3C801.7,2.9,798.8,0,795.2,0z M795.2,9.3c-1.1,0-2-0.6-2.5-1.5c-0.2-0.4-0.3-0.8-0.3-1.3
					c0-1.5,1.2-2.8,2.8-2.8c1.5,0,2.8,1.3,2.8,2.8c0,0.5-0.1,0.9-0.3,1.3C797.2,8.7,796.3,9.3,795.2,9.3z"/>
			</g>
			<g id="XMLID_194_">
				<g id="XMLID_498_">
					<rect id="XMLID_198_" x="777.3" y="30.8" width="45.3" height="2.4"/>
					<rect id="XMLID_197_" x="777.3" y="50.6" width="45.3" height="2.4"/>
					<rect id="XMLID_196_" x="777.3" y="70.5" width="45.3" height="2.4"/>
				</g>
				<g id="XMLID_195_">
					<g id="XMLID_218_">
						<path id="XMLID_207_" d="M770,37.2c-0.3,0-0.6-0.1-0.8-0.3l-1.8-1.9c-0.4-0.4-0.4-1.1,0-1.5c0.4-0.4,1.1-0.4,1.5,0l0.9,1
							l3.2-3.9c0.4-0.5,1.1-0.5,1.5-0.2c0.5,0.4,0.5,1.1,0.2,1.5l-3.9,4.8C770.7,37,770.4,37.2,770,37.2C770,37.2,770,37.2,770,37.2
							L770,37.2z"/>
					</g>
					<g id="XMLID_212_">
						<path id="XMLID_208_" d="M770,55.3c-0.3,0-0.6-0.1-0.8-0.3l-1.8-1.9c-0.4-0.4-0.4-1.1,0-1.5c0.4-0.4,1.1-0.4,1.5,0l0.9,1
							l3.2-3.9c0.4-0.5,1.1-0.5,1.5-0.2c0.5,0.4,0.5,1.1,0.2,1.5l-3.9,4.8C770.7,55.2,770.4,55.3,770,55.3
							C770,55.3,770,55.3,770,55.3L770,55.3z"/>
					</g>
					<g id="XMLID_210_">
						<path id="XMLID_209_" d="M770,73.5c-0.3,0-0.6-0.1-0.8-0.3l-1.8-1.9c-0.4-0.4-0.4-1.1,0-1.5c0.4-0.4,1.1-0.4,1.5,0l0.9,1
							l3.2-3.9c0.4-0.5,1.1-0.5,1.5-0.2c0.5,0.4,0.5,1.1,0.2,1.5l-3.9,4.8C770.7,73.3,770.4,73.4,770,73.5
							C770,73.5,770,73.5,770,73.5L770,73.5z"/>
					</g>
				</g>
			</g>
		</g>
	</g>
	<g id="XMLID_495_">
		<g id="XMLID_593_">
			<circle id="XMLID_493_" class="st21" cx="710.1" cy="361.2" r="37.5"/>
			<g id="XMLID_607_">
				<g id="XMLID_608_">
					<path id="XMLID_492_" class="st9" d="M682,361.5c-1.2,0-2.1-0.9-2.2-2.1c-0.3-8.6,2.2-15.9,7.1-21.1c5-5.2,12.1-8,20.7-8.1
						c1.2,0,2.2,1,2.2,2.2c0,1.2-1,2.2-2.2,2.2c-7.3,0.1-13.4,2.4-17.5,6.7c-4.1,4.3-6.2,10.5-5.9,17.9c0,1.2-0.9,2.2-2.1,2.3
						C682.1,361.5,682,361.5,682,361.5z"/>
				</g>
			</g>
			<g id="XMLID_594_">
				<path id="XMLID_491_" d="M711.4,332.6c0,0.8-0.7,1.5-1.5,1.5c-0.8,0-1.5-0.7-1.5-1.5c0-0.8,0.7-1.5,1.5-1.5
					C710.8,331.1,711.4,331.7,711.4,332.6z"/>
				<circle id="XMLID_490_" cx="695.7" cy="336.4" r="1.5"/>
				<circle id="XMLID_489_" cx="685.2" cy="347" r="1.5"/>
				<circle id="XMLID_488_" cx="681.4" cy="361.3" r="1.5"/>
				<circle id="XMLID_487_" cx="685.3" cy="375.6" r="1.5"/>
				<circle id="XMLID_486_" cx="695.8" cy="386" r="1.5"/>
				<circle id="XMLID_485_" cx="710.2" cy="389.8" r="1.5"/>
				<circle id="XMLID_484_" cx="724.5" cy="385.9" r="1.5"/>
				<circle id="XMLID_483_" cx="734.9" cy="375.4" r="1.5"/>
				<circle id="XMLID_482_" cx="738.7" cy="361.1" r="1.5"/>
				<circle id="XMLID_481_" cx="734.8" cy="346.8" r="1.5"/>
				<circle id="XMLID_480_" cx="724.3" cy="336.3" r="1.5"/>
			</g>
		</g>
		<path id="XMLID_479_" d="M728.3,342.5l-17.7,16.9c-0.8-0.4-1.8-0.2-2.5,0.5c-0.7,0.7-0.8,1.8-0.4,2.6l-4.3,4.3l1.1,1.1l4.2-4.4
			c0.9,0.4,1.9,0.3,2.6-0.5c0.7-0.7,0.8-1.8,0.4-2.6L728.3,342.5z"/>
		<g id="XMLID_496_">
			<g id="XMLID_500_">
				<rect id="XMLID_360_" x="709" y="317.2" width="2" height="5.8"/>
				<rect id="XMLID_359_" x="704.4" y="307.9" class="st22" width="11.4" height="8.8"/>
			</g>
			<g id="XMLID_497_">
				<path id="XMLID_358_" class="st23" d="M685.4,328.9l-2.9-4.6c-0.3-0.5-0.2-1.1,0.3-1.4l5.8-3.6c0.5-0.3,1.1-0.2,1.4,0.3l2.9,4.6
					"/>
				<path id="XMLID_357_" class="st23" d="M734.7,328.9l2.9-4.6c0.3-0.5,0.2-1.1-0.3-1.4l-5.8-3.6c-0.5-0.3-1.1-0.2-1.4,0.3
					l-2.9,4.6"/>
			</g>
		</g>
	</g>
</g>
</svg>
