<?xml version="1.0" encoding="utf-8"?>
<!-- Generator: Adobe Illustrator 19.0.0, SVG Export Plug-In . SVG Version: 6.00 Build 0)  -->
<svg version="1.1" id="Capa_1" xmlns="http://www.w3.org/2000/svg" xmlns:xlink="http://www.w3.org/1999/xlink" x="0px" y="0px"
	 viewBox="0 0 430.8 471.4" style="enable-background:new 0 0 430.8 471.4;" xml:space="preserve">
<style type="text/css">
	.st0{opacity:0.5;fill-rule:evenodd;clip-rule:evenodd;fill:#2C2C22;}
	.st1{fill-rule:evenodd;clip-rule:evenodd;fill:#348EA9;}
	.st2{fill:#FFFFFF;}
	.st3{fill:#E54A3F;}
	.st4{fill:#CCCCCC;}
</style>
<g id="XMLID_19_">
	<path id="XMLID_133204_" class="st0" d="M356.9,422.3c-2.9-2-18.4-3.5-34.3-3.5H24.3c-16,0-27,1.6-23.7,3.5l71.1,41.6
		c3.3,1.9,15.8,7.5,31.7,7.5h298.3c16,0,26.6-1.6,23.7-3.5L356.9,422.3z"/>
	<path id="XMLID_133202_" class="st1" d="M430.8,442.3c0,16-13.1,29-29,29H103.4c-16,0-29-13.1-29-29v-374c0-16,13.1-29,29-29h298.3
		c16,0,29,13.1,29,29V442.3z"/>
	<path id="XMLID_133201_" class="st2" d="M414.7,442.3c0,7.1-5.9,13-13,13H103.4c-7.1,0-13-5.9-13-13v-374c0-7.1,5.9-13,13-13h298.3
		c7.1,0,13,5.9,13,13V442.3z"/>
	<path id="XMLID_133199_" class="st3" d="M288,14V9.5c0-5.2-4.3-9.5-9.5-9.5h-52c-5.2,0-9.5,4.2-9.5,9.5V14H288z"/>
	<path id="XMLID_133198_" class="st3" d="M310.8,17.3h-18.8h-4h-70.9h-3h-19.9c-5.2,0-9.5,4.2-9.5,9.4v36.3c0,5.2,4.3,9.5,9.5,9.5
		h116.6c5.2,0,9.5-4.3,9.5-9.5V26.7C320.3,21.6,316,17.3,310.8,17.3L310.8,17.3z"/>
	<g id="XMLID_1_">
		<path id="XMLID_2_" d="M186.2,113.4V102h2.3v11.5H186.2z"/>
		<path id="XMLID_4_" d="M198.4,113.4h-2v-1.2c-0.3,0.5-0.7,0.8-1.2,1.1s-0.9,0.3-1.4,0.3c-1,0-1.8-0.4-2.4-1.2s-1-1.8-1-3.2
			c0-1.4,0.3-2.5,1-3.2s1.5-1.1,2.5-1.1c0.9,0,1.7,0.4,2.4,1.2V102h2.2V113.4z M192.5,109.1c0,0.9,0.1,1.5,0.4,1.9
			c0.4,0.6,0.8,0.9,1.5,0.9c0.5,0,0.9-0.2,1.3-0.6s0.5-1.1,0.5-1.9c0-1-0.2-1.6-0.5-2.1s-0.8-0.6-1.3-0.6c-0.5,0-1,0.2-1.3,0.6
			S192.5,108.3,192.5,109.1z"/>
		<path id="XMLID_7_" d="M205.3,110.8l2.2,0.4c-0.3,0.8-0.7,1.4-1.3,1.8s-1.4,0.6-2.3,0.6c-1.4,0-2.5-0.5-3.2-1.4
			c-0.5-0.8-0.8-1.7-0.8-2.9c0-1.4,0.4-2.5,1.1-3.2s1.6-1.2,2.7-1.2c1.2,0,2.2,0.4,2.9,1.2s1.1,2.1,1,3.7h-5.5
			c0,0.7,0.2,1.2,0.5,1.5s0.8,0.5,1.3,0.5c0.3,0,0.6-0.1,0.9-0.3S205.2,111.2,205.3,110.8z M205.4,108.6c0-0.6-0.2-1.1-0.5-1.4
			s-0.7-0.5-1.1-0.5c-0.5,0-0.9,0.2-1.2,0.5s-0.5,0.8-0.5,1.4H205.4z"/>
		<path id="XMLID_10_" d="M217,113.4h-2.2v-4.2c0-0.9,0-1.5-0.1-1.7s-0.2-0.5-0.5-0.6s-0.5-0.2-0.8-0.2c-0.4,0-0.7,0.1-1,0.3
			s-0.5,0.5-0.6,0.8s-0.2,1-0.2,1.9v3.8h-2.2v-8.3h2v1.2c0.7-0.9,1.6-1.4,2.7-1.4c0.5,0,0.9,0.1,1.3,0.3s0.7,0.4,0.9,0.7
			s0.3,0.6,0.4,0.9s0.1,0.8,0.1,1.5V113.4z"/>
		<path id="XMLID_12_" d="M223,105.1v1.8h-1.5v3.3c0,0.7,0,1.1,0,1.2s0.1,0.2,0.2,0.3s0.2,0.1,0.4,0.1c0.2,0,0.5-0.1,0.9-0.2
			l0.2,1.7c-0.5,0.2-1.1,0.3-1.7,0.3c-0.4,0-0.8-0.1-1.1-0.2s-0.6-0.3-0.7-0.5s-0.3-0.5-0.3-0.9c0-0.3-0.1-0.8-0.1-1.5v-3.6h-1v-1.8
			h1v-1.6l2.2-1.3v2.9H223z"/>
		<path id="XMLID_14_" d="M224.5,104v-2h2.2v2H224.5z M224.5,113.4v-8.3h2.2v8.3H224.5z"/>
		<path id="XMLID_17_" d="M228,105.1h1.2v-0.6c0-0.7,0.1-1.2,0.2-1.6s0.4-0.6,0.8-0.8s0.9-0.3,1.5-0.3c0.6,0,1.2,0.1,1.8,0.3
			l-0.3,1.5c-0.3-0.1-0.7-0.1-1-0.1c-0.3,0-0.5,0.1-0.7,0.2s-0.2,0.4-0.2,0.9v0.6h1.6v1.7h-1.6v6.6h-2.2v-6.6H228V105.1z"/>
		<path id="XMLID_20_" d="M234.3,104v-2h2.2v2H234.3z M234.3,113.4v-8.3h2.2v8.3H234.3z"/>
		<path id="XMLID_24_" d="M246,107.6l-2.2,0.4c-0.1-0.4-0.2-0.8-0.5-1s-0.6-0.3-1-0.3c-0.5,0-1,0.2-1.3,0.6s-0.5,1-0.5,1.9
			c0,1,0.2,1.7,0.5,2.1s0.8,0.6,1.3,0.6c0.4,0,0.8-0.1,1-0.4s0.5-0.6,0.6-1.2l2.2,0.4c-0.2,1-0.7,1.7-1.3,2.2s-1.5,0.8-2.6,0.8
			c-1.2,0-2.2-0.4-2.9-1.1s-1.1-1.8-1.1-3.2c0-1.4,0.4-2.4,1.1-3.2s1.7-1.1,2.9-1.1c1,0,1.8,0.2,2.4,0.7S245.7,106.7,246,107.6z"/>
		<path id="XMLID_26_" d="M249.3,107.7l-2-0.4c0.2-0.8,0.6-1.4,1.2-1.8s1.4-0.6,2.4-0.6c1,0,1.7,0.1,2.2,0.3s0.8,0.5,1,0.9
			s0.3,1,0.3,2l0,2.6c0,0.7,0,1.3,0.1,1.6s0.2,0.7,0.4,1.1h-2.2c-0.1-0.1-0.1-0.4-0.2-0.6c0-0.1-0.1-0.2-0.1-0.3
			c-0.4,0.4-0.8,0.6-1.2,0.8s-0.9,0.3-1.4,0.3c-0.9,0-1.5-0.2-2-0.7s-0.7-1-0.7-1.8c0-0.5,0.1-0.9,0.3-1.3s0.5-0.6,0.9-0.8
			s1-0.4,1.7-0.5c1-0.2,1.7-0.4,2.1-0.5v-0.2c0-0.4-0.1-0.7-0.3-0.9s-0.6-0.3-1.2-0.3c-0.4,0-0.7,0.1-0.9,0.2
			S249.4,107.3,249.3,107.7z M252.2,109.5c-0.3,0.1-0.7,0.2-1.3,0.3s-1,0.3-1.2,0.4c-0.3,0.2-0.4,0.5-0.4,0.8c0,0.3,0.1,0.6,0.3,0.8
			s0.5,0.3,0.9,0.3c0.4,0,0.8-0.1,1.1-0.4c0.3-0.2,0.4-0.4,0.5-0.7c0.1-0.2,0.1-0.5,0.1-1.1V109.5z"/>
		<path id="XMLID_29_" d="M258.6,113.4h-2.2v-8.3h2v1.2c0.3-0.6,0.7-0.9,0.9-1.1s0.6-0.3,0.9-0.3c0.5,0,1,0.1,1.4,0.4l-0.7,1.9
			c-0.4-0.2-0.7-0.4-1-0.4c-0.3,0-0.6,0.1-0.8,0.3s-0.4,0.5-0.5,0.9s-0.2,1.4-0.2,2.8V113.4z"/>
		<path id="XMLID_31_" d="M278.8,113.4V102h2.2v11.5H278.8z"/>
		<path id="XMLID_33_" d="M284.9,107.7l-2-0.4c0.2-0.8,0.6-1.4,1.2-1.8s1.4-0.6,2.4-0.6c1,0,1.7,0.1,2.2,0.3s0.8,0.5,1,0.9
			s0.3,1,0.3,2l0,2.6c0,0.7,0,1.3,0.1,1.6s0.2,0.7,0.4,1.1h-2.2c-0.1-0.1-0.1-0.4-0.2-0.6c0-0.1-0.1-0.2-0.1-0.3
			c-0.4,0.4-0.8,0.6-1.2,0.8s-0.9,0.3-1.4,0.3c-0.9,0-1.5-0.2-2-0.7s-0.7-1-0.7-1.8c0-0.5,0.1-0.9,0.3-1.3s0.5-0.6,0.9-0.8
			s1-0.4,1.7-0.5c1-0.2,1.7-0.4,2.1-0.5v-0.2c0-0.4-0.1-0.7-0.3-0.9s-0.6-0.3-1.2-0.3c-0.4,0-0.7,0.1-0.9,0.2S285,107.3,284.9,107.7
			z M287.8,109.5c-0.3,0.1-0.7,0.2-1.3,0.3s-1,0.3-1.2,0.4c-0.3,0.2-0.4,0.5-0.4,0.8c0,0.3,0.1,0.6,0.3,0.8s0.5,0.3,0.9,0.3
			c0.4,0,0.8-0.1,1.1-0.4c0.3-0.2,0.4-0.4,0.5-0.7c0.1-0.2,0.1-0.5,0.1-1.1V109.5z"/>
		<path id="XMLID_36_" d="M291.4,111.1l2.2-0.3c0.1,0.4,0.3,0.8,0.6,1s0.7,0.3,1.2,0.3c0.6,0,1-0.1,1.3-0.3c0.2-0.1,0.3-0.3,0.3-0.6
			c0-0.2-0.1-0.3-0.2-0.4c-0.1-0.1-0.4-0.2-0.7-0.3c-1.8-0.4-2.9-0.7-3.4-1.1c-0.7-0.4-1-1.1-1-1.9c0-0.7,0.3-1.3,0.9-1.8
			s1.4-0.7,2.6-0.7c1.1,0,2,0.2,2.5,0.6s0.9,0.9,1.1,1.6l-2.1,0.4c-0.1-0.3-0.3-0.6-0.5-0.7s-0.6-0.3-1.1-0.3c-0.6,0-1,0.1-1.2,0.2
			c-0.2,0.1-0.3,0.3-0.3,0.4c0,0.2,0.1,0.3,0.2,0.4c0.2,0.1,0.9,0.4,2.1,0.6s2,0.6,2.4,1c0.5,0.4,0.7,0.9,0.7,1.6c0,0.8-0.3,1.4-1,2
			s-1.6,0.8-2.8,0.8c-1.1,0-2-0.2-2.7-0.7S291.6,111.9,291.4,111.1z"/>
		<path id="XMLID_38_" d="M318.8,107.7l-2-0.4c0.2-0.8,0.6-1.4,1.2-1.8s1.4-0.6,2.4-0.6c1,0,1.7,0.1,2.2,0.3s0.8,0.5,1,0.9
			s0.3,1,0.3,2l0,2.6c0,0.7,0,1.3,0.1,1.6s0.2,0.7,0.4,1.1h-2.2c-0.1-0.1-0.1-0.4-0.2-0.6c0-0.1-0.1-0.2-0.1-0.3
			c-0.4,0.4-0.8,0.6-1.2,0.8s-0.9,0.3-1.4,0.3c-0.9,0-1.5-0.2-2-0.7s-0.7-1-0.7-1.8c0-0.5,0.1-0.9,0.3-1.3s0.5-0.6,0.9-0.8
			s1-0.4,1.7-0.5c1-0.2,1.7-0.4,2.1-0.5v-0.2c0-0.4-0.1-0.7-0.3-0.9s-0.6-0.3-1.2-0.3c-0.4,0-0.7,0.1-0.9,0.2
			S318.9,107.3,318.8,107.7z M321.7,109.5c-0.3,0.1-0.7,0.2-1.3,0.3s-1,0.3-1.2,0.4c-0.3,0.2-0.4,0.5-0.4,0.8c0,0.3,0.1,0.6,0.3,0.8
			s0.5,0.3,0.9,0.3c0.4,0,0.8-0.1,1.1-0.4c0.3-0.2,0.4-0.4,0.5-0.7c0.1-0.2,0.1-0.5,0.1-1.1V109.5z M319.3,104.1l1.1-2.3h2.5
			l-2.1,2.3H319.3z"/>
		<path id="XMLID_42_" d="M328.1,113.4h-2.2v-8.3h2v1.2c0.3-0.6,0.7-0.9,0.9-1.1s0.6-0.3,0.9-0.3c0.5,0,1,0.1,1.4,0.4l-0.7,1.9
			c-0.4-0.2-0.7-0.4-1-0.4c-0.3,0-0.6,0.1-0.8,0.3s-0.4,0.5-0.5,0.9s-0.2,1.4-0.2,2.8V113.4z"/>
		<path id="XMLID_44_" d="M337.1,110.8l2.2,0.4c-0.3,0.8-0.7,1.4-1.3,1.8s-1.4,0.6-2.3,0.6c-1.4,0-2.5-0.5-3.2-1.4
			c-0.5-0.8-0.8-1.7-0.8-2.9c0-1.4,0.4-2.5,1.1-3.2s1.6-1.2,2.7-1.2c1.2,0,2.2,0.4,2.9,1.2s1.1,2.1,1,3.7h-5.5
			c0,0.7,0.2,1.2,0.5,1.5s0.8,0.5,1.3,0.5c0.3,0,0.6-0.1,0.9-0.3S336.9,111.2,337.1,110.8z M337.2,108.6c0-0.6-0.2-1.1-0.5-1.4
			s-0.7-0.5-1.1-0.5c-0.5,0-0.9,0.2-1.2,0.5s-0.5,0.8-0.5,1.4H337.2z"/>
		<path id="XMLID_47_" d="M342.8,107.7l-2-0.4c0.2-0.8,0.6-1.4,1.2-1.8s1.4-0.6,2.4-0.6c1,0,1.7,0.1,2.2,0.3s0.8,0.5,1,0.9
			s0.3,1,0.3,2l0,2.6c0,0.7,0,1.3,0.1,1.6s0.2,0.7,0.4,1.1h-2.2c-0.1-0.1-0.1-0.4-0.2-0.6c0-0.1-0.1-0.2-0.1-0.3
			c-0.4,0.4-0.8,0.6-1.2,0.8s-0.9,0.3-1.4,0.3c-0.9,0-1.5-0.2-2-0.7s-0.7-1-0.7-1.8c0-0.5,0.1-0.9,0.3-1.3s0.5-0.6,0.9-0.8
			s1-0.4,1.7-0.5c1-0.2,1.7-0.4,2.1-0.5v-0.2c0-0.4-0.1-0.7-0.3-0.9s-0.6-0.3-1.2-0.3c-0.4,0-0.7,0.1-0.9,0.2
			S342.9,107.3,342.8,107.7z M345.7,109.5c-0.3,0.1-0.7,0.2-1.3,0.3s-1,0.3-1.2,0.4c-0.3,0.2-0.4,0.5-0.4,0.8c0,0.3,0.1,0.6,0.3,0.8
			s0.5,0.3,0.9,0.3c0.4,0,0.8-0.1,1.1-0.4c0.3-0.2,0.4-0.4,0.5-0.7c0.1-0.2,0.1-0.5,0.1-1.1V109.5z"/>
		<path id="XMLID_50_" d="M349.3,111.1l2.2-0.3c0.1,0.4,0.3,0.8,0.6,1s0.7,0.3,1.2,0.3c0.6,0,1-0.1,1.3-0.3c0.2-0.1,0.3-0.3,0.3-0.6
			c0-0.2-0.1-0.3-0.2-0.4c-0.1-0.1-0.4-0.2-0.7-0.3c-1.8-0.4-2.9-0.7-3.4-1.1c-0.7-0.4-1-1.1-1-1.9c0-0.7,0.3-1.3,0.9-1.8
			s1.4-0.7,2.6-0.7c1.1,0,2,0.2,2.5,0.6s0.9,0.9,1.1,1.6l-2.1,0.4c-0.1-0.3-0.3-0.6-0.5-0.7s-0.6-0.3-1.1-0.3c-0.6,0-1,0.1-1.2,0.2
			c-0.2,0.1-0.3,0.3-0.3,0.4c0,0.2,0.1,0.3,0.2,0.4c0.2,0.1,0.9,0.4,2.1,0.6s2,0.6,2.4,1c0.5,0.4,0.7,0.9,0.7,1.6c0,0.8-0.3,1.4-1,2
			s-1.6,0.8-2.8,0.8c-1.1,0-2-0.2-2.7-0.7S349.5,111.9,349.3,111.1z"/>
		<path id="XMLID_52_" d="M382.6,113.4h-2v-1.2c-0.3,0.5-0.7,0.8-1.2,1.1s-0.9,0.3-1.4,0.3c-1,0-1.8-0.4-2.4-1.2s-1-1.8-1-3.2
			c0-1.4,0.3-2.5,1-3.2s1.5-1.1,2.5-1.1c0.9,0,1.7,0.4,2.4,1.2V102h2.2V113.4z M376.8,109.1c0,0.9,0.1,1.5,0.4,1.9
			c0.4,0.6,0.8,0.9,1.5,0.9c0.5,0,0.9-0.2,1.3-0.6s0.5-1.1,0.5-1.9c0-1-0.2-1.6-0.5-2.1s-0.8-0.6-1.3-0.6c-0.5,0-1,0.2-1.3,0.6
			S376.8,108.3,376.8,109.1z"/>
		<path id="XMLID_55_" d="M389.6,110.8l2.2,0.4c-0.3,0.8-0.7,1.4-1.3,1.8s-1.4,0.6-2.3,0.6c-1.4,0-2.5-0.5-3.2-1.4
			c-0.5-0.8-0.8-1.7-0.8-2.9c0-1.4,0.4-2.5,1.1-3.2s1.6-1.2,2.7-1.2c1.2,0,2.2,0.4,2.9,1.2s1.1,2.1,1,3.7h-5.5
			c0,0.7,0.2,1.2,0.5,1.5s0.8,0.5,1.3,0.5c0.3,0,0.6-0.1,0.9-0.3S389.5,111.2,389.6,110.8z M389.7,108.6c0-0.6-0.2-1.1-0.5-1.4
			s-0.7-0.5-1.1-0.5c-0.5,0-0.9,0.2-1.2,0.5s-0.5,0.8-0.5,1.4H389.7z"/>
		<path id="XMLID_58_" d="M193.9,132.6h-2v-1.2c-0.3,0.5-0.7,0.8-1.2,1.1s-0.9,0.3-1.4,0.3c-1,0-1.8-0.4-2.4-1.2s-1-1.8-1-3.2
			c0-1.4,0.3-2.5,1-3.2s1.5-1.1,2.5-1.1c0.9,0,1.7,0.4,2.4,1.2v-4.1h2.2V132.6z M188,128.3c0,0.9,0.1,1.5,0.4,1.9
			c0.4,0.6,0.8,0.9,1.5,0.9c0.5,0,0.9-0.2,1.3-0.6s0.5-1.1,0.5-1.9c0-1-0.2-1.6-0.5-2.1s-0.8-0.6-1.3-0.6c-0.5,0-1,0.2-1.3,0.6
			S188,127.5,188,128.3z"/>
		<path id="XMLID_61_" d="M200.9,130l2.2,0.4c-0.3,0.8-0.7,1.4-1.3,1.8s-1.4,0.6-2.3,0.6c-1.4,0-2.5-0.5-3.2-1.4
			c-0.5-0.8-0.8-1.7-0.8-2.9c0-1.4,0.4-2.5,1.1-3.2s1.6-1.2,2.7-1.2c1.2,0,2.2,0.4,2.9,1.2s1.1,2.1,1,3.7h-5.5
			c0,0.7,0.2,1.2,0.5,1.5s0.8,0.5,1.3,0.5c0.3,0,0.6-0.1,0.9-0.3S200.8,130.4,200.9,130z M201,127.8c0-0.6-0.2-1.1-0.5-1.4
			s-0.7-0.5-1.1-0.5c-0.5,0-0.9,0.2-1.2,0.5s-0.5,0.8-0.5,1.4H201z"/>
		<path id="XMLID_64_" d="M204.2,130.3l2.2-0.3c0.1,0.4,0.3,0.8,0.6,1s0.7,0.3,1.2,0.3c0.6,0,1-0.1,1.3-0.3c0.2-0.1,0.3-0.3,0.3-0.6
			c0-0.2-0.1-0.3-0.2-0.4c-0.1-0.1-0.4-0.2-0.7-0.3c-1.8-0.4-2.9-0.7-3.4-1.1c-0.7-0.4-1-1.1-1-1.9c0-0.7,0.3-1.3,0.9-1.8
			s1.4-0.7,2.6-0.7c1.1,0,2,0.2,2.5,0.6s0.9,0.9,1.1,1.6l-2.1,0.4c-0.1-0.3-0.3-0.6-0.5-0.7s-0.6-0.3-1.1-0.3c-0.6,0-1,0.1-1.2,0.2
			c-0.2,0.1-0.3,0.3-0.3,0.4c0,0.2,0.1,0.3,0.2,0.4c0.2,0.1,0.9,0.4,2.1,0.6s2,0.6,2.4,1c0.5,0.4,0.7,0.9,0.7,1.6c0,0.8-0.3,1.4-1,2
			s-1.6,0.8-2.8,0.8c-1.1,0-2-0.2-2.7-0.7S204.4,131.1,204.2,130.3z"/>
		<path id="XMLID_66_" d="M218.7,130l2.2,0.4c-0.3,0.8-0.7,1.4-1.3,1.8s-1.4,0.6-2.3,0.6c-1.4,0-2.5-0.5-3.2-1.4
			c-0.5-0.8-0.8-1.7-0.8-2.9c0-1.4,0.4-2.5,1.1-3.2s1.6-1.2,2.7-1.2c1.2,0,2.2,0.4,2.9,1.2s1.1,2.1,1,3.7h-5.5
			c0,0.7,0.2,1.2,0.5,1.5s0.8,0.5,1.3,0.5c0.3,0,0.6-0.1,0.9-0.3S218.6,130.4,218.7,130z M218.8,127.8c0-0.6-0.2-1.1-0.5-1.4
			s-0.7-0.5-1.1-0.5c-0.5,0-0.9,0.2-1.2,0.5s-0.5,0.8-0.5,1.4H218.8z"/>
		<path id="XMLID_69_" d="M222.6,124.3h2v1.1c0.7-0.9,1.6-1.3,2.6-1.3c0.5,0,1,0.1,1.4,0.3s0.7,0.5,1,1c0.4-0.4,0.8-0.8,1.2-1
			s0.9-0.3,1.4-0.3c0.6,0,1.1,0.1,1.5,0.4s0.7,0.6,0.9,1.1c0.2,0.4,0.2,0.9,0.2,1.7v5.3h-2.2v-4.7c0-0.8-0.1-1.4-0.2-1.6
			c-0.2-0.3-0.5-0.5-0.9-0.5c-0.3,0-0.6,0.1-0.9,0.3s-0.5,0.5-0.6,0.8s-0.2,0.9-0.2,1.7v4h-2.2v-4.5c0-0.8,0-1.3-0.1-1.6
			s-0.2-0.4-0.4-0.5s-0.4-0.2-0.7-0.2c-0.3,0-0.6,0.1-0.9,0.3s-0.5,0.4-0.6,0.8s-0.2,0.9-0.2,1.7v4h-2.2V124.3z"/>
		<path id="XMLID_71_" d="M236.9,124.3h2v1.2c0.3-0.4,0.6-0.8,1.1-1s1-0.4,1.5-0.4c1,0,1.8,0.4,2.5,1.1s1,1.8,1,3.2
			c0,1.4-0.3,2.5-1,3.2s-1.5,1.2-2.5,1.2c-0.5,0-0.9-0.1-1.2-0.3s-0.8-0.5-1.2-0.9v4.2h-2.2V124.3z M239.1,128.4
			c0,0.9,0.2,1.6,0.6,2.1s0.8,0.7,1.4,0.7c0.5,0,0.9-0.2,1.3-0.6s0.5-1.1,0.5-2c0-0.9-0.2-1.5-0.5-1.9s-0.8-0.6-1.3-0.6
			c-0.5,0-1,0.2-1.3,0.6S239.1,127.5,239.1,128.4z"/>
		<path id="XMLID_74_" d="M251.6,130l2.2,0.4c-0.3,0.8-0.7,1.4-1.3,1.8s-1.4,0.6-2.3,0.6c-1.4,0-2.5-0.5-3.2-1.4
			c-0.5-0.8-0.8-1.7-0.8-2.9c0-1.4,0.4-2.5,1.1-3.2s1.6-1.2,2.7-1.2c1.2,0,2.2,0.4,2.9,1.2s1.1,2.1,1,3.7h-5.5
			c0,0.7,0.2,1.2,0.5,1.5s0.8,0.5,1.3,0.5c0.3,0,0.6-0.1,0.9-0.3S251.5,130.4,251.6,130z M251.7,127.8c0-0.6-0.2-1.1-0.5-1.4
			s-0.7-0.5-1.1-0.5c-0.5,0-0.9,0.2-1.2,0.5s-0.5,0.8-0.5,1.4H251.7z"/>
		<path id="XMLID_77_" d="M263.2,132.6H261v-4.2c0-0.9,0-1.5-0.1-1.7s-0.2-0.5-0.5-0.6s-0.5-0.2-0.8-0.2c-0.4,0-0.7,0.1-1,0.3
			s-0.5,0.5-0.6,0.8s-0.2,1-0.2,1.9v3.8h-2.2v-8.3h2v1.2c0.7-0.9,1.6-1.4,2.7-1.4c0.5,0,0.9,0.1,1.3,0.3s0.7,0.4,0.9,0.7
			s0.3,0.6,0.4,0.9s0.1,0.8,0.1,1.5V132.6z M257.7,123.2h-1c0-0.1,0-0.2,0-0.3c0-0.5,0.1-1,0.4-1.3s0.6-0.4,1-0.4
			c0.2,0,0.4,0,0.5,0.1s0.4,0.2,0.9,0.3s0.7,0.3,1,0.3c0.2,0,0.3-0.1,0.4-0.2s0.2-0.3,0.2-0.5h1c0,0.7-0.1,1.2-0.4,1.5
			s-0.6,0.5-1,0.5c-0.2,0-0.4,0-0.5-0.1c-0.1,0-0.4-0.1-0.9-0.3s-0.8-0.3-1-0.3c-0.2,0-0.3,0.1-0.4,0.2S257.7,123,257.7,123.2z"/>
		<path id="XMLID_80_" d="M264.9,128.4c0-0.7,0.2-1.4,0.5-2.1s0.9-1.2,1.5-1.6s1.4-0.5,2.2-0.5c1.3,0,2.3,0.4,3.1,1.2
			s1.2,1.8,1.2,3.1c0,1.3-0.4,2.3-1.2,3.1s-1.8,1.2-3.1,1.2c-0.8,0-1.5-0.2-2.2-0.5s-1.2-0.8-1.6-1.5S264.9,129.3,264.9,128.4z
			 M267.2,128.5c0,0.8,0.2,1.5,0.6,1.9s0.9,0.7,1.4,0.7s1.1-0.2,1.4-0.7s0.6-1.1,0.6-1.9c0-0.8-0.2-1.4-0.6-1.9s-0.9-0.7-1.4-0.7
			s-1.1,0.2-1.4,0.7S267.2,127.7,267.2,128.5z"/>
		<path id="XMLID_83_" d="M279.1,128.4c0-0.7,0.2-1.4,0.5-2.1s0.9-1.2,1.5-1.6s1.4-0.5,2.2-0.5c1.3,0,2.3,0.4,3.1,1.2
			s1.2,1.8,1.2,3.1c0,1.3-0.4,2.3-1.2,3.1s-1.8,1.2-3.1,1.2c-0.8,0-1.5-0.2-2.2-0.5s-1.2-0.8-1.6-1.5S279.1,129.3,279.1,128.4z
			 M281.4,128.5c0,0.8,0.2,1.5,0.6,1.9s0.9,0.7,1.4,0.7s1.1-0.2,1.4-0.7s0.6-1.1,0.6-1.9c0-0.8-0.2-1.4-0.6-1.9s-0.9-0.7-1.4-0.7
			s-1.1,0.2-1.4,0.7S281.4,127.7,281.4,128.5z"/>
		<path id="XMLID_86_" d="M296.7,126.8l-2.2,0.4c-0.1-0.4-0.2-0.8-0.5-1s-0.6-0.3-1-0.3c-0.5,0-1,0.2-1.3,0.6s-0.5,1-0.5,1.9
			c0,1,0.2,1.7,0.5,2.1s0.8,0.6,1.3,0.6c0.4,0,0.8-0.1,1-0.4s0.5-0.6,0.6-1.2l2.2,0.4c-0.2,1-0.7,1.7-1.3,2.2s-1.5,0.8-2.6,0.8
			c-1.2,0-2.2-0.4-2.9-1.1s-1.1-1.8-1.1-3.2c0-1.4,0.4-2.4,1.1-3.2s1.7-1.1,2.9-1.1c1,0,1.8,0.2,2.4,0.7S296.4,125.9,296.7,126.8z"
			/>
		<path id="XMLID_88_" d="M303.8,132.6v-1.2c-0.3,0.4-0.7,0.8-1.2,1s-1,0.4-1.6,0.4c-0.6,0-1.1-0.1-1.5-0.4s-0.8-0.6-1-1
			s-0.3-1.1-0.3-1.8v-5.2h2.2v3.8c0,1.2,0,1.9,0.1,2.1s0.2,0.5,0.4,0.6s0.5,0.2,0.8,0.2c0.4,0,0.7-0.1,1-0.3s0.5-0.5,0.6-0.8
			s0.2-1.1,0.2-2.2v-3.5h2.2v8.3H303.8z"/>
		<path id="XMLID_90_" d="M308,124.3h2v1.2c0.3-0.4,0.6-0.8,1.1-1s1-0.4,1.5-0.4c1,0,1.8,0.4,2.5,1.1s1,1.8,1,3.2
			c0,1.4-0.3,2.5-1,3.2s-1.5,1.2-2.5,1.2c-0.5,0-0.9-0.1-1.2-0.3s-0.8-0.5-1.2-0.9v4.2H308V124.3z M310.2,128.4
			c0,0.9,0.2,1.6,0.6,2.1s0.8,0.7,1.4,0.7c0.5,0,0.9-0.2,1.3-0.6s0.5-1.1,0.5-2c0-0.9-0.2-1.5-0.5-1.9s-0.8-0.6-1.3-0.6
			c-0.5,0-1,0.2-1.3,0.6S310.2,127.5,310.2,128.4z"/>
		<path id="XMLID_93_" d="M319.5,126.9l-2-0.4c0.2-0.8,0.6-1.4,1.2-1.8s1.4-0.6,2.4-0.6c1,0,1.7,0.1,2.2,0.3s0.8,0.5,1,0.9
			s0.3,1,0.3,2l0,2.6c0,0.7,0,1.3,0.1,1.6s0.2,0.7,0.4,1.1h-2.2c-0.1-0.1-0.1-0.4-0.2-0.6c0-0.1-0.1-0.2-0.1-0.3
			c-0.4,0.4-0.8,0.6-1.2,0.8s-0.9,0.3-1.4,0.3c-0.9,0-1.5-0.2-2-0.7s-0.7-1-0.7-1.8c0-0.5,0.1-0.9,0.3-1.3s0.5-0.6,0.9-0.8
			s1-0.4,1.7-0.5c1-0.2,1.7-0.4,2.1-0.5V127c0-0.4-0.1-0.7-0.3-0.9s-0.6-0.3-1.2-0.3c-0.4,0-0.7,0.1-0.9,0.2
			S319.7,126.5,319.5,126.9z M322.5,128.7c-0.3,0.1-0.7,0.2-1.3,0.3s-1,0.3-1.2,0.4c-0.3,0.2-0.4,0.5-0.4,0.8c0,0.3,0.1,0.6,0.3,0.8
			s0.5,0.3,0.9,0.3c0.4,0,0.8-0.1,1.1-0.4c0.3-0.2,0.4-0.4,0.5-0.7c0.1-0.2,0.1-0.5,0.1-1.1V128.7z"/>
		<path id="XMLID_96_" d="M334,126.8l-2.2,0.4c-0.1-0.4-0.2-0.8-0.5-1s-0.6-0.3-1-0.3c-0.5,0-1,0.2-1.3,0.6s-0.5,1-0.5,1.9
			c0,1,0.2,1.7,0.5,2.1s0.8,0.6,1.3,0.6c0.4,0,0.8-0.1,1-0.4s0.5-0.6,0.6-1.2l2.2,0.4c-0.2,1-0.7,1.7-1.3,2.2s-1.5,0.8-2.6,0.8
			c-1.2,0-2.2-0.4-2.9-1.1s-1.1-1.8-1.1-3.2c0-1.4,0.4-2.4,1.1-3.2s1.7-1.1,2.9-1.1c1,0,1.8,0.2,2.4,0.7S333.7,125.9,334,126.8z"/>
		<path id="XMLID_98_" d="M335.7,123.2v-2h2.2v2H335.7z M335.7,132.6v-8.3h2.2v8.3H335.7z"/>
		<path id="XMLID_101_" d="M339.6,128.4c0-0.7,0.2-1.4,0.5-2.1s0.9-1.2,1.5-1.6s1.4-0.5,2.2-0.5c1.3,0,2.3,0.4,3.1,1.2
			s1.2,1.8,1.2,3.1c0,1.3-0.4,2.3-1.2,3.1s-1.8,1.2-3.1,1.2c-0.8,0-1.5-0.2-2.2-0.5s-1.2-0.8-1.6-1.5S339.6,129.3,339.6,128.4z
			 M341.9,128.5c0,0.8,0.2,1.5,0.6,1.9s0.9,0.7,1.4,0.7s1.1-0.2,1.4-0.7s0.6-1.1,0.6-1.9c0-0.8-0.2-1.4-0.6-1.9s-0.9-0.7-1.4-0.7
			s-1.1,0.2-1.4,0.7S341.9,127.7,341.9,128.5z"/>
		<path id="XMLID_104_" d="M357.4,132.6h-2.2v-4.2c0-0.9,0-1.5-0.1-1.7s-0.2-0.5-0.5-0.6s-0.5-0.2-0.8-0.2c-0.4,0-0.7,0.1-1,0.3
			s-0.5,0.5-0.6,0.8s-0.2,1-0.2,1.9v3.8h-2.2v-8.3h2v1.2c0.7-0.9,1.6-1.4,2.7-1.4c0.5,0,0.9,0.1,1.3,0.3s0.7,0.4,0.9,0.7
			s0.3,0.6,0.4,0.9s0.1,0.8,0.1,1.5V132.6z"/>
		<path id="XMLID_106_" d="M361.3,126.9l-2-0.4c0.2-0.8,0.6-1.4,1.2-1.8s1.4-0.6,2.4-0.6c1,0,1.7,0.1,2.2,0.3s0.8,0.5,1,0.9
			s0.3,1,0.3,2l0,2.6c0,0.7,0,1.3,0.1,1.6s0.2,0.7,0.4,1.1h-2.2c-0.1-0.1-0.1-0.4-0.2-0.6c0-0.1-0.1-0.2-0.1-0.3
			c-0.4,0.4-0.8,0.6-1.2,0.8s-0.9,0.3-1.4,0.3c-0.9,0-1.5-0.2-2-0.7s-0.7-1-0.7-1.8c0-0.5,0.1-0.9,0.3-1.3s0.5-0.6,0.9-0.8
			s1-0.4,1.7-0.5c1-0.2,1.7-0.4,2.1-0.5V127c0-0.4-0.1-0.7-0.3-0.9s-0.6-0.3-1.2-0.3c-0.4,0-0.7,0.1-0.9,0.2
			S361.4,126.5,361.3,126.9z M364.2,128.7c-0.3,0.1-0.7,0.2-1.3,0.3s-1,0.3-1.2,0.4c-0.3,0.2-0.4,0.5-0.4,0.8c0,0.3,0.1,0.6,0.3,0.8
			s0.5,0.3,0.9,0.3c0.4,0,0.8-0.1,1.1-0.4c0.3-0.2,0.4-0.4,0.5-0.7c0.1-0.2,0.1-0.5,0.1-1.1V128.7z"/>
		<path id="XMLID_109_" d="M368.6,132.6v-11.5h2.2v11.5H368.6z"/>
	</g>
	<path id="XMLID_133645_" class="st4" d="M166.3,148.4h-51c-1.4,0-2.5-1.1-2.5-2.5v-51c0-1.3,1.1-2.4,2.5-2.4h51
		c1.4,0,2.5,1.1,2.5,2.4v51C168.7,147.3,167.6,148.4,166.3,148.4L166.3,148.4z M117.7,143.4L117.7,143.4h46.1V97.3h-46.1V143.4z"/>
	<path id="XMLID_133644_" class="st3" d="M136.2,140.1c-1.1,0-2-0.4-2.7-1.2L122.7,127c-1.4-1.5-1.2-3.8,0.2-5.2
		c1.5-1.4,3.8-1.3,5.3,0.2l7.7,8.4l18.8-26.6c1.2-1.7,3.5-2,5.2-0.9c1.6,1.2,2,3.5,0.9,5.1l-21.4,30.4c-0.7,0.9-1.7,1.5-2.8,1.5
		C136.3,140.1,136.3,140.1,136.2,140.1L136.2,140.1z"/>
</g>
</svg>
