<?xml version="1.0" encoding="utf-8"?>
<!-- Generator: Adobe Illustrator 19.0.0, SVG Export Plug-In . SVG Version: 6.00 Build 0)  -->
<svg version="1.1" id="Capa_1" xmlns="http://www.w3.org/2000/svg" xmlns:xlink="http://www.w3.org/1999/xlink" x="0px" y="0px"
	 viewBox="0 0 447.1 522.6" style="enable-background:new 0 0 447.1 522.6;" xml:space="preserve">
<style type="text/css">
	.st0{opacity:0.3;fill:#FFFFFF;}
	.st1{fill:#FFFFFF;}
	.st2{fill-rule:evenodd;clip-rule:evenodd;fill:#AACECE;}
	.st3{fill-rule:evenodd;clip-rule:evenodd;fill:#FFFFFF;}
	.st4{fill-rule:evenodd;clip-rule:evenodd;fill:#161D21;}
	.st5{opacity:0.2;fill-rule:evenodd;clip-rule:evenodd;fill:#FFFFFF;}
	.st6{fill:#161D21;}
	.st7{fill:#F1F1F1;}
	.st8{fill:#E54A3F;}
	.st9{fill:#AACECE;}
	.st10{opacity:0.2;}
	.st11{opacity:0.2;fill:#FFFFFF;}
	.st12{fill:#B0B0B0;}
	.st13{clip-path:url(#XMLID_55_);}
	.st14{fill:#EABA96;stroke:#E0AA86;stroke-width:1.1528;stroke-miterlimit:10;}
	.st15{fill:#E0AA86;}
	.st16{stroke:#000000;stroke-width:0.8646;stroke-linecap:square;stroke-linejoin:bevel;stroke-miterlimit:10;}
	.st17{fill:#1C1C1C;stroke:#182951;stroke-width:1.1528;stroke-miterlimit:10;}
	.st18{fill:#0C0C0C;}
	.st19{fill:#070707;}
	.st20{fill:none;stroke:#02111C;stroke-width:1.1528;stroke-miterlimit:10;}
	.st21{fill:none;stroke:#02111C;stroke-width:0.8646;stroke-linecap:round;stroke-linejoin:round;}
	.st22{fill:none;stroke:#02111C;stroke-width:0.8646;stroke-linecap:round;stroke-linejoin:round;stroke-dasharray:1.1403,1.1403;}
	
		.st23{fill:none;stroke:#02111C;stroke-width:0.8646;stroke-linecap:round;stroke-linejoin:round;stroke-miterlimit:10;stroke-dasharray:1.1528;}
	.st24{fill:none;stroke:#E0AA86;stroke-width:1.1528;stroke-miterlimit:10;}
	.st25{fill:#00607C;}
	.st26{fill:#005468;}
	.st27{fill:#EABA96;stroke:#E0AA86;stroke-width:0.5764;stroke-miterlimit:10;}
	.st28{fill:#DBA682;}
	.st29{fill:#8A0A8E;stroke:#AC34B2;stroke-width:1.1528;stroke-miterlimit:10;}
	.st30{fill:#EAEAEA;stroke:#FFFFFF;stroke-width:0.2882;stroke-miterlimit:10;}
	.st31{fill:#D8D8D8;}
	.st32{fill:#959DA0;stroke:#959DA0;stroke-width:0.5764;stroke-miterlimit:10;}
	.st33{fill:none;stroke:#959DA0;stroke-width:0.5764;stroke-miterlimit:10;}
	.st34{fill:#282828;stroke:#000000;stroke-width:0.8646;stroke-miterlimit:10;}
	.st35{fill:#B7896A;}
	.st36{fill:#DDAC8A;}
	.st37{stroke:#000000;stroke-width:1.1528;stroke-miterlimit:10;}
	.st38{fill:#C1A578;}
	.st39{stroke:#000000;stroke-width:0.2882;stroke-linecap:round;stroke-linejoin:round;stroke-miterlimit:10;}
	.st40{fill:#FFFFFF;stroke:#000000;stroke-width:0.2882;stroke-linecap:round;stroke-linejoin:round;stroke-miterlimit:10;}
	.st41{fill:#70582D;}
	.st42{stroke:#000000;stroke-width:1.1528;stroke-linecap:round;stroke-linejoin:round;stroke-miterlimit:10;}
	.st43{fill:#9E3025;stroke:#4C2311;stroke-width:0.2882;stroke-miterlimit:10;}
	.st44{fill:#871D08;stroke:#4C2311;stroke-width:0.2882;stroke-miterlimit:10;}
	.st45{fill:none;stroke:#D8A27D;stroke-width:0.8646;stroke-miterlimit:10;}
	.st46{fill:#006E87;}
	.st47{fill:#A5ABAD;stroke:#959DA0;stroke-width:0.5764;stroke-miterlimit:10;}
	.st48{fill:#B1BABC;}
	.st49{opacity:0.33;fill:#FFFFFF;}
	.st50{fill:none;stroke:#000000;stroke-width:1.7292;stroke-linecap:round;stroke-linejoin:round;stroke-miterlimit:10;}
</style>
<g id="XMLID_1_">
	<g id="XMLID_14068_">
		<circle id="XMLID_14066_" class="st0" cx="218.4" cy="228.8" r="151.3"/>
		<g id="XMLID_14251_">
			<g id="XMLID_14311_">
				<path id="XMLID_14065_" class="st1" d="M3,231.3C2.3,172.5,25.5,113.7,71.9,70.7c46.4-43,106.9-61.6,165.5-56.5l1.6-1.5
					c-4.1-0.4-8.2-0.7-12.3-0.8C168.8,9.7,113.5,30.2,70.9,69.6C28.4,109,3.8,162.5,1.6,220.5c-0.2,4.1-0.2,8.2-0.1,12.3L3,231.3z"
					/>
				<path id="XMLID_14064_" class="st1" d="M404.5,119.9l1.2-1.1c-7.9-13.3-17.2-25.9-28-37.6c-15.3-16.6-32.8-30.4-51.9-41.2
					l-1.2,1.1c18.9,10.7,36.5,24.4,52,41.1C387.4,94,396.7,106.7,404.5,119.9z"/>
				<path id="XMLID_14062_" class="st1" d="M432.2,201.9c8.3,66.5-14.5,136-67.3,185c-87.2,80.8-223.8,75.5-304.6-11.6
					c-15.5-16.8-27.8-35.3-37-55l-1.2,1.1c9.4,19.8,21.8,38.3,37.2,54.9c39.4,42.5,93,67.2,150.9,69.4
					c57.9,2.2,113.2-18.3,155.8-57.7c42.5-39.4,67.2-93,69.4-150.9c0.5-12.3-0.1-24.5-1.6-36.5L432.2,201.9z"/>
			</g>
			<g id="XMLID_14306_">
				<path id="XMLID_14061_" class="st1" d="M61.8,142.9c6.6-12,14.7-23.5,24.2-34c64.8-71.5,174.7-78.3,247.8-16.5l1-1.1
					c-35-29.7-79.2-44.7-125.2-42.4c-48,2.4-92.3,23.3-124.6,59c-9.8,10.8-18.1,22.5-24.9,35H61.8z"/>
				<path id="XMLID_14059_" class="st1" d="M40.2,218.5h-1.5c-0.4,6.4-0.4,12.8-0.1,19.2c2.3,46,21.6,88.6,54.6,120.4l1-1.1
					C55.5,319.7,37.3,268.7,40.2,218.5z"/>
				<path id="XMLID_14058_" class="st1" d="M376.8,142.9c-1.8-3.3-3.7-6.6-5.8-9.8l-1,1.2c1.8,2.9,3.5,5.7,5.1,8.7H376.8z"/>
				<path id="XMLID_14057_" class="st1" d="M398.2,218.5h-1.5c2.7,46.2-12.4,93.3-45.8,130.2c-54.7,60.5-141.8,74.7-211.5,40.2
					l-1,1.2c27.3,13.6,57.8,20.1,89.1,18.5c48-2.4,92.3-23.3,124.6-59c32.3-35.6,48.8-81.7,46.4-129.8
					C398.2,219.4,398.2,218.9,398.2,218.5z"/>
			</g>
			<g id="XMLID_14252_">
				<path id="XMLID_14056_" class="st1" d="M291.3,407.7c2.6-1.1,5.3-2.3,7.8-3.5l-0.6-1.3c-2.6,1.2-5.2,2.4-7.8,3.5L291.3,407.7z"
					/>
				<path id="XMLID_14055_" class="st1" d="M62.1,343.7l-1.1,0.9c1.7,2.3,3.5,4.6,5.3,6.7l1.1-0.9C65.5,348.2,63.8,346,62.1,343.7z"
					/>
				<path id="XMLID_14053_" class="st1" d="M52.6,329.7l-1.2,0.7c1.5,2.4,3.1,4.8,4.6,7.2l1.2-0.8C55.6,334.5,54,332.1,52.6,329.7z"
					/>
				<path id="XMLID_14052_" class="st1" d="M31.9,283.2l-1.4,0.4c0.8,2.7,1.7,5.5,2.6,8.2l1.3-0.5C33.5,288.6,32.7,285.9,31.9,283.2
					z"/>
				<path id="XMLID_14049_" class="st1" d="M84.7,369.1l-1,1c2.1,1.9,4.2,3.9,6.4,5.7l0.9-1.1C88.9,372.9,86.8,371,84.7,369.1z"/>
				<path id="XMLID_14048_" class="st1" d="M44.3,314.8l-1.3,0.6c1.3,2.5,2.6,5.1,4,7.6l1.2-0.7C46.9,319.9,45.6,317.3,44.3,314.8z"
					/>
				<path id="XMLID_14047_" class="st1" d="M37.4,299.3l-1.3,0.5c1,2.7,2.2,5.3,3.3,7.9l1.3-0.6C39.5,304.5,38.4,301.9,37.4,299.3z"
					/>
				<path id="XMLID_14046_" class="st1" d="M275.2,413.6c2.7-0.9,5.4-1.8,8.1-2.8l-0.5-1.3c-2.7,1-5.4,1.9-8.1,2.7L275.2,413.6z"/>
				<path id="XMLID_14045_" class="st1" d="M241.6,419.6l0.2,1.4c2.8-0.4,5.7-0.8,8.5-1.3l-0.2-1.4
					C247.2,418.8,244.4,419.2,241.6,419.6z"/>
				<path id="XMLID_14044_" class="st1" d="M258.3,416.7l0.3,1.4c2.8-0.6,5.6-1.3,8.3-2l-0.4-1.4C263.9,415.4,261.1,416,258.3,416.7
					z"/>
				<path id="XMLID_14042_" class="st1" d="M97.6,380.1l-0.9,1.1c2.2,1.8,4.5,3.5,6.9,5.1l0.8-1.2
					C102.1,383.6,99.8,381.9,97.6,380.1z"/>
				<path id="XMLID_14041_" class="st1" d="M111.5,390.1l-0.8,1.2c2.4,1.6,4.8,3.1,7.3,4.5l0.7-1.2
					C116.3,393.1,113.8,391.6,111.5,390.1z"/>
				<path id="XMLID_14040_" class="st1" d="M146.8,408.2c-1.8-0.7-3.6-1.4-5.3-2.2l-0.6,1.3c2,0.9,4.1,1.7,6.1,2.5L146.8,408.2z"/>
				<path id="XMLID_14039_" class="st1" d="M126.1,398.7l-0.7,1.3c2.5,1.3,5.1,2.6,7.7,3.9l0.6-1.3
					C131.2,401.3,128.6,400.1,126.1,398.7z"/>
				<path id="XMLID_14038_" class="st1" d="M72.8,356.9l-1.1,1c1.9,2.1,3.9,4.2,5.8,6.3l1-1C76.7,361.1,74.7,359,72.8,356.9z"/>
				<path id="XMLID_14037_" class="st1" d="M67.8,106.8l-1.1-0.9c-1.8,2.2-3.6,4.5-5.3,6.7l1.1,0.9C64.2,111.2,66,108.9,67.8,106.8z
					"/>
				<path id="XMLID_14036_" class="st1" d="M90.7,81.4c-2.2,1.8-4.3,3.8-6.4,5.7l1,1c2.1-1.9,4.2-3.8,6.3-5.7L90.7,81.4z"/>
				<path id="XMLID_14035_" class="st1" d="M78.1,93.1c-2,2-4,4.1-5.9,6.3l1.1,1c1.9-2.1,3.8-4.2,5.8-6.2L78.1,93.1z"/>
				<path id="XMLID_14034_" class="st1" d="M102.9,71.8c-1.9,1.4-3.8,2.8-5.6,4.2l0.9,1.1c1.6-1.3,3.3-2.5,5-3.7L102.9,71.8z"/>
				<path id="XMLID_14033_" class="st1" d="M182.8,39.4l-0.2-1.4c-2.5,0.4-5.1,1-7.6,1.5l0.2,1.4C177.7,40.4,180.2,39.9,182.8,39.4z
					"/>
				<path id="XMLID_14032_" class="st1" d="M224.7,421.1l0.2,1.4c2.8-0.1,5.6-0.3,8.4-0.5l-0.1-1.4
					C230.3,420.8,227.5,421,224.7,421.1z"/>
				<path id="XMLID_14031_" class="st1" d="M56.4,119.6c-1.6,2.3-3.2,4.8-4.7,7.2l1.2,0.8c1.5-2.4,3.1-4.8,4.6-7.1L56.4,119.6z"/>
				<path id="XMLID_14029_" class="st1" d="M47.4,134.1c-1.4,2.5-2.7,5-4,7.6l1.3,0.6c1.3-2.5,2.6-5.1,4-7.5L47.4,134.1z"/>
				<path id="XMLID_14028_" class="st1" d="M28.4,181.9c-0.7,2.8-1.3,5.6-1.9,8.4l1.4,0.3c0.6-2.8,1.2-5.6,1.9-8.3L28.4,181.9z"/>
				<path id="XMLID_14027_" class="st1" d="M39.6,149.5c-1.2,2.6-2.3,5.3-3.3,7.9l1.3,0.5c1-2.6,2.2-5.3,3.3-7.8L39.6,149.5z"/>
				<path id="XMLID_14026_" class="st1" d="M33.3,165.4c-0.9,2.7-1.8,5.4-2.6,8.2L32,174c0.8-2.7,1.7-5.4,2.6-8.1L33.3,165.4z"/>
				<path id="XMLID_14025_" class="st1" d="M402.3,284.3c0.8-2.7,1.6-5.5,2.3-8.3l-1.4-0.3c-0.7,2.7-1.5,5.5-2.3,8.2L402.3,284.3z"
					/>
				<path id="XMLID_14024_" class="st1" d="M392.4,150.8l1.3-0.6c-1.2-2.6-2.4-5.2-3.6-7.8l-1.3,0.6
					C390,145.6,391.2,148.2,392.4,150.8z"/>
				<path id="XMLID_14022_" class="st1" d="M365.8,107.5l1.1-0.9c-1.8-2.2-3.7-4.4-5.6-6.5l-1.1,0.9
					C362.1,103.1,364,105.3,365.8,107.5z"/>
				<path id="XMLID_14021_" class="st1" d="M306.8,400.4c2.5-1.3,5-2.7,7.5-4.2l-0.7-1.2c-2.4,1.4-4.9,2.8-7.4,4.1L306.8,400.4z"/>
				<path id="XMLID_14020_" class="st1" d="M375.9,121.1l1.2-0.8c-1.6-2.4-3.3-4.7-5-7l-1.1,0.9
					C372.7,116.4,374.3,118.8,375.9,121.1z"/>
				<path id="XMLID_14019_" class="st1" d="M217.1,36.4l0-1.4c-2.8,0-5.7,0.1-8.6,0.2l0.1,1.4C211.4,36.5,214.2,36.4,217.1,36.4z"/>
				<path id="XMLID_14018_" class="st1" d="M191.2,38.1l0.4-0.1c2.8-0.4,5.7-0.7,8.5-0.9l-0.1-1.4c-2.8,0.2-5.7,0.6-8.5,0.9
					l-0.4,0.1L191.2,38.1z"/>
				<path id="XMLID_14017_" class="st1" d="M234.1,37.2l0.1-1.4c-2.8-0.3-5.7-0.5-8.6-0.6l-0.1,1.4C228.4,36.8,231.2,37,234.1,37.2z
					"/>
				<path id="XMLID_14016_" class="st1" d="M283.8,48.6l0.5-1.3c-2.7-1-5.4-2-8.1-2.8l-0.4,1.4C278.4,46.6,281.1,47.6,283.8,48.6z"
					/>
				<path id="XMLID_14015_" class="st1" d="M267.6,43.3l0.4-1.4c-2.7-0.8-5.5-1.5-8.3-2.1l-0.3,1.4C262,41.9,264.8,42.6,267.6,43.3z
					"/>
				<path id="XMLID_14014_" class="st1" d="M250.9,39.5l0.3-1.4c-2.8-0.5-5.7-1-8.5-1.3l-0.2,1.4C245.3,38.6,248.1,39,250.9,39.5z"
					/>
				<path id="XMLID_14013_" class="st1" d="M384.8,135.6l1.2-0.7c-1.4-2.5-2.8-5-4.3-7.4l-1.2,0.7
					C382,130.6,383.4,133.1,384.8,135.6z"/>
				<path id="XMLID_14012_" class="st1" d="M360.6,358.5c1.9-2.1,3.8-4.3,5.6-6.5l-1.1-0.9c-1.8,2.2-3.7,4.4-5.6,6.5L360.6,358.5z"
					/>
				<path id="XMLID_14011_" class="st1" d="M371.4,345.3c1.7-2.3,3.4-4.6,5-7l-1.2-0.8c-1.6,2.3-3.3,4.7-5,6.9L371.4,345.3z"/>
				<path id="XMLID_14009_" class="st1" d="M381.1,331.1c1.5-2.4,3-4.9,4.4-7.4l-1.2-0.7c-1.4,2.5-2.8,4.9-4.3,7.3L381.1,331.1z"/>
				<path id="XMLID_14008_" class="st1" d="M321.6,391.8c2.4-1.5,4.8-3.2,7.1-4.8l-0.8-1.2c-2.3,1.6-4.7,3.2-7,4.8L321.6,391.8z"/>
				<path id="XMLID_14007_" class="st1" d="M389.5,316.2c1.3-2.5,2.5-5.1,3.7-7.7l-1.3-0.6c-1.2,2.6-2.4,5.2-3.7,7.7L389.5,316.2z"
					/>
				<path id="XMLID_14006_" class="st1" d="M335.5,381.9c2.2-1.7,4.5-3.6,6.6-5.4l-0.9-1.1c-2.2,1.8-4.4,3.6-6.6,5.4L335.5,381.9z"
					/>
				<path id="XMLID_14005_" class="st1" d="M348.6,370.7c2.1-1.9,4.1-4,6.1-6l-1-1c-2,2-4,4-6.1,5.9L348.6,370.7z"/>
				<path id="XMLID_14004_" class="st1" d="M406.7,199.7l1.4-0.2c-0.4-2.8-0.9-5.7-1.5-8.4l-1.4,0.3
					C405.7,194,406.2,196.9,406.7,199.7z"/>
				<path id="XMLID_14003_" class="st1" d="M396.6,300.5c1.1-2.6,2.1-5.4,3-8l-1.3-0.5c-0.9,2.7-1.9,5.4-3,8L396.6,300.5z"/>
				<path id="XMLID_14002_" class="st1" d="M398.6,166.6l1.4-0.5c-0.9-2.7-1.9-5.4-2.9-8.1l-1.3,0.5
					C396.7,161.3,397.7,164,398.6,166.6z"/>
				<path id="XMLID_14001_" class="st1" d="M403.4,183l1.4-0.3c-0.7-2.8-1.4-5.5-2.2-8.3l-1.4,0.4
					C401.9,177.5,402.7,180.2,403.4,183z"/>
				<path id="XMLID_14000_" class="st1" d="M409.9,216.5c-0.2-2.8-0.4-5.7-0.7-8.5l-1.4,0.2c0.3,2.8,0.6,5.7,0.7,8.5L409.9,216.5z"
					/>
				<path id="XMLID_13999_" class="st1" d="M406.4,267.7c0.6-2.8,1.1-5.6,1.5-8.4l-1.4-0.2c-0.4,2.8-1,5.6-1.5,8.4L406.4,267.7z"/>
				<path id="XMLID_13998_" class="st1" d="M409.1,250.7c0.3-2.8,0.6-5.7,0.8-8.5l-1.4-0.1c-0.2,2.8-0.4,5.7-0.8,8.5L409.1,250.7z"
					/>
				<path id="XMLID_13997_" class="st1" d="M410.3,233.6c0.1-2.8,0.1-5.7,0-8.6l-1.4,0c0.1,2.8,0.1,5.7,0,8.5L410.3,233.6z"/>
			</g>
		</g>
		<g id="XMLID_14223_">
			<g id="XMLID_14225_">
				<g id="XMLID_14226_">
					<path id="XMLID_13984_" class="st2" d="M233.1,0c8.6,0,16.1,6.4,16.1,15.6c0,11.7-9,16.6-8.1,22.8c-0.9,2.1-1.5,3.4-1.5,3.4
						h-13.1c0,0-2-1.3-1.6-3.8c1.2-6.4-7.9-10.6-7.9-22.4C217,7,224.5,0,233.1,0z"/>
					<rect id="XMLID_13983_" x="230" y="19.7" class="st3" width="0.7" height="19.1"/>
					<rect id="XMLID_13982_" x="226.8" y="19.4" class="st3" width="12.7" height="0.7"/>
					<rect id="XMLID_13981_" x="235.5" y="19.7" class="st3" width="0.7" height="19.1"/>
					<rect id="XMLID_13980_" x="228.1" y="48.1" class="st4" width="9.7" height="2.5"/>
					<rect id="XMLID_13979_" x="224.6" y="38.4" class="st3" width="17.1" height="10.4"/>
					<polygon id="XMLID_13978_" class="st4" points="241.9,41.7 242,38.9 224.3,38.9 224.4,41.7 					"/>
					<polygon id="XMLID_13977_" class="st4" points="241.9,45.1 242.1,42.2 224.3,42.2 224.5,45.1 					"/>
					<polygon id="XMLID_13976_" class="st4" points="241.9,48.3 242,45.5 224.3,45.5 224.4,48.3 					"/>
				</g>
			</g>
			<path id="XMLID_13975_" class="st5" d="M241.9,45.1l0.1-2.8h-0.4v-0.5h0.3l0.1-2.8h-0.4v-0.5h-0.5c-0.9-6.2,8.1-11.1,8.1-22.8
				c0-9.2-7.5-15.6-16.1-15.6c0,0,0,0,0,0v19.4v0.7v18.3v0.5v2.8v0.1v0.4v2.8v0.4v2.5v0.3v0.5v1.7h4.8v-1.7h3.8v-0.5h0.3l0.1-2.8
				h-0.4v-0.4H241.9z"/>
		</g>
		<g id="XMLID_14204_">
			<g id="XMLID_14219_">
				<path id="XMLID_13974_" class="st6" d="M426.5,328.9v-1.8h-73.9c-2.5,0-4.5,2-4.5,4.5v4.2c0,2.5,2,4.5,4.5,4.5h73.9v-1.8h-2
					v-9.7H426.5z"/>
				<path id="XMLID_13973_" class="st7" d="M424.6,328.9h-70.8c-1.6,0-2.9,1.3-2.9,2.9v3.9c0,1.6,1.3,2.9,2.9,2.9h70.8V328.9z"/>
				<polygon id="XMLID_13972_" class="st8" points="362.1,339 360.2,336.6 358.3,339 358.3,333.1 362.1,333.1 				"/>
			</g>
			<g id="XMLID_14214_">
				<g id="XMLID_14216_">
					<path id="XMLID_13971_" class="st9" d="M417.3,307.3v-3.1h-60.7c-2.1,0-3.7,3.5-3.7,7.7v7.2c0,4.3,1.7,7.7,3.7,7.7h60.7v-3.1
						h-1.7v-16.5H417.3z"/>
					<path id="XMLID_13970_" class="st7" d="M415.7,307.3h-58.2c-1.3,0-2.4,2.2-2.4,4.9v6.7c0,2.7,1.1,4.9,2.4,4.9h58.2V307.3z"/>
				</g>
				<polygon id="XMLID_13969_" class="st8" points="368.5,325.9 366.8,323.7 365.1,325.9 365.1,320.6 368.5,320.6 				"/>
			</g>
			<g id="XMLID_14205_">
				<g id="XMLID_14208_">
					<rect id="XMLID_13968_" x="347.3" y="340.7" class="st8" width="73.3" height="15"/>
					<rect id="XMLID_13967_" x="355.1" y="340.7" class="st1" width="1.9" height="15"/>
					<rect id="XMLID_13966_" x="410" y="340.7" class="st1" width="1.9" height="15"/>
					<rect id="XMLID_13965_" x="358.6" y="340.7" class="st1" width="5.7" height="15"/>
					<rect id="XMLID_13963_" x="402.4" y="340.7" class="st1" width="5.7" height="15"/>
				</g>
				<g id="XMLID_14206_" class="st10">
					<rect id="XMLID_13962_" x="360.7" y="348" class="st1" width="1.9" height="7.6"/>
				</g>
			</g>
		</g>
		<g id="XMLID_14176_">
			<g id="XMLID_14200_">
				<g id="XMLID_14201_">
					<path id="XMLID_13961_" class="st1" d="M0,167c0,6.4,5.2,11.7,11.7,11.7c6.4,0,11.7-5.2,11.7-11.7c0-6.4-5.2-11.7-11.7-11.7
						C5.2,155.3,0,160.6,0,167z"/>
					<circle id="XMLID_13960_" class="st9" cx="11.7" cy="166.9" r="11.2"/>
				</g>
			</g>
			<g id="XMLID_14197_">
				<path id="XMLID_13959_" class="st1" d="M20.6,140.6c0,6.4,5.2,11.7,11.7,11.7c6.4,0,11.7-5.2,11.7-11.7
					c0-6.4-5.2-11.7-11.7-11.7C25.9,128.9,20.6,134.2,20.6,140.6z"/>
				<circle id="XMLID_13958_" class="st9" cx="32.4" cy="140.5" r="11.2"/>
			</g>
			<path id="XMLID_13957_" class="st1" d="M42.1,154.7c0,6.4,5.2,11.7,11.7,11.7c6.4,0,11.7-5.2,11.7-11.7c0-6.4-5.2-11.7-11.7-11.7
				C47.4,143.1,42.1,148.3,42.1,154.7z"/>
			<circle id="XMLID_13956_" class="st9" cx="53.9" cy="154.7" r="11.2"/>
			<g id="XMLID_14190_">
				<path id="XMLID_14191_" class="st1" d="M54.3,161.1h-1v-1.5c-1.8-0.2-2.9-1-3.4-2.5l1.1-0.4c0.4,1.1,1.2,1.7,2.3,1.8v-3.7
					c-1.2-0.3-2-0.7-2.4-1.2c-0.4-0.5-0.6-1-0.6-1.6c0-1.5,1-2.5,2.9-2.8V148h1v1.3c1.6,0.1,2.6,0.8,3.1,2.1l-1.1,0.3
					c-0.3-0.9-1-1.3-2-1.4v3.4c2.2,0.4,3.3,1.4,3.3,2.9c0,0.7-0.2,1.3-0.7,1.9c-0.5,0.6-1.3,0.9-2.5,1V161.1z M53.3,150.4
					c-0.5,0-1,0.2-1.3,0.5c-0.3,0.3-0.5,0.7-0.5,1.1c0,0.9,0.6,1.4,1.8,1.6V150.4z M54.3,158.5c0.6,0,1.1-0.2,1.5-0.5
					c0.4-0.3,0.5-0.7,0.5-1.2c0-1-0.7-1.6-2-1.7V158.5z"/>
			</g>
			<g id="XMLID_14185_">
				<path id="XMLID_14186_" class="st1" d="M32.7,147h-1v-1.5c-1.8-0.2-2.9-1-3.4-2.5l1.1-0.4c0.4,1.1,1.2,1.7,2.3,1.8v-3.7
					c-1.2-0.3-2-0.7-2.4-1.2c-0.4-0.5-0.6-1-0.6-1.6c0-1.5,1-2.5,2.9-2.8v-1.3h1v1.3c1.6,0.1,2.6,0.8,3.1,2.1l-1.1,0.3
					c-0.3-0.9-1-1.3-2-1.4v3.4c2.2,0.4,3.3,1.4,3.3,2.9c0,0.7-0.2,1.3-0.7,1.9c-0.5,0.6-1.3,0.9-2.5,1V147z M31.7,136.2
					c-0.5,0-1,0.2-1.3,0.5c-0.3,0.3-0.5,0.7-0.5,1.1c0,0.9,0.6,1.4,1.8,1.6V136.2z M32.7,144.4c0.6,0,1.1-0.2,1.5-0.5
					c0.4-0.3,0.5-0.7,0.5-1.2c0-1-0.7-1.6-2-1.7V144.4z"/>
			</g>
			<g id="XMLID_14180_">
				<path id="XMLID_14181_" class="st1" d="M12.1,173.4h-1v-1.5c-1.8-0.2-2.9-1-3.4-2.5l1.1-0.4c0.4,1.1,1.2,1.7,2.3,1.8v-3.7
					c-1.2-0.3-2-0.7-2.4-1.2c-0.4-0.5-0.5-1-0.5-1.6c0-1.5,1-2.5,2.9-2.8v-1.3h1v1.3c1.6,0.1,2.6,0.8,3.1,2.1l-1.1,0.3
					c-0.3-0.9-1-1.3-2-1.4v3.4c2.2,0.4,3.3,1.4,3.3,2.9c0,0.7-0.2,1.3-0.7,1.9c-0.5,0.6-1.3,0.9-2.5,1V173.4z M11.1,162.7
					c-0.5,0-1,0.2-1.3,0.5c-0.3,0.3-0.5,0.7-0.5,1.1c0,0.9,0.6,1.4,1.8,1.6V162.7z M12.1,170.8c0.6,0,1.1-0.2,1.5-0.5
					c0.4-0.3,0.5-0.7,0.5-1.2c0-1-0.7-1.6-2-1.7V170.8z"/>
			</g>
			<path id="XMLID_13946_" class="st11" d="M53.8,143.1C53.8,143.1,53.8,143.1,53.8,143.1l-0.1,23.3c0,0,0.1,0,0.1,0
				c6.4,0,11.7-5.2,11.7-11.7C65.5,148.3,60.2,143.1,53.8,143.1z"/>
			<path id="XMLID_13945_" class="st11" d="M11.7,155.3C11.6,155.3,11.6,155.3,11.7,155.3l-0.1,23.3c0,0,0.1,0,0.1,0
				c6.4,0,11.7-5.2,11.7-11.7C23.3,160.6,18.1,155.3,11.7,155.3z"/>
			<path id="XMLID_13944_" class="st11" d="M32.3,128.9C32.3,128.9,32.3,128.9,32.3,128.9l-0.1,23.3c0,0,0.1,0,0.1,0
				c6.4,0,11.7-5.2,11.7-11.7C44,134.2,38.8,128.9,32.3,128.9z"/>
		</g>
		<g id="XMLID_14165_">
			<g id="XMLID_14172_">
				<g id="XMLID_14173_">
					<path id="XMLID_13943_" class="st1" d="M384.6,101.9c0,5,4.1,9.1,9.1,9.1c5,0,9.1-4.1,9.1-9.1c0-5-4.1-9.1-9.1-9.1
						C388.7,92.8,384.6,96.9,384.6,101.9z"/>
					<circle id="XMLID_13942_" class="st9" cx="393.8" cy="101.8" r="8.7"/>
				</g>
			</g>
			<g id="XMLID_14167_">
				<path id="XMLID_14168_" class="st1" d="M394,106.9h-0.8v-1.2c-1.4-0.1-2.2-0.8-2.6-1.9l0.8-0.3c0.3,0.9,0.9,1.3,1.8,1.4V102
					c-1-0.2-1.6-0.5-1.9-0.9c-0.3-0.4-0.4-0.8-0.4-1.2c0-1.2,0.8-1.9,2.3-2.2v-1h0.8v1c1.2,0.1,2,0.6,2.4,1.6l-0.8,0.3
					c-0.2-0.7-0.7-1-1.6-1.1v2.6c1.7,0.3,2.5,1.1,2.5,2.3c0,0.5-0.2,1-0.6,1.5c-0.4,0.4-1,0.7-2,0.8V106.9z M393.2,98.5
					c-0.4,0-0.8,0.2-1,0.4c-0.3,0.2-0.4,0.5-0.4,0.9c0,0.7,0.5,1.1,1.4,1.3V98.5z M394,104.9c0.5,0,0.9-0.2,1.2-0.4
					c0.3-0.3,0.4-0.6,0.4-0.9c0-0.8-0.5-1.2-1.6-1.4V104.9z"/>
			</g>
			<path id="XMLID_13937_" class="st11" d="M393.7,92.8C393.7,92.8,393.6,92.8,393.7,92.8l-0.1,18.2c0,0,0,0,0.1,0
				c5,0,9.1-4.1,9.1-9.1C402.8,96.9,398.7,92.8,393.7,92.8z"/>
		</g>
		<g id="XMLID_14139_">
			<g id="XMLID_14158_">
				<g id="XMLID_14160_">
					<g id="XMLID_14163_">
						<polygon id="XMLID_13936_" class="st12" points="430.7,160 388.9,160 388.9,231.5 447.1,231.5 447.1,178.1 						"/>
					</g>
					<g id="XMLID_14161_">
						<polygon id="XMLID_13935_" class="st1" points="430.7,160 388.9,160 388.9,238.5 447.1,238.5 447.1,178.1 430.7,178.1 						
							"/>
					</g>
				</g>
				<rect id="XMLID_13934_" x="388.9" y="160" class="st8" width="41.8" height="5.2"/>
			</g>
			<g id="XMLID_14140_">
				<g id="XMLID_14154_">
					<rect id="XMLID_13933_" x="395.5" y="217.7" class="st12" width="20.3" height="2"/>
					<rect id="XMLID_13932_" x="395.5" y="222.6" class="st12" width="45" height="2"/>
					<rect id="XMLID_13931_" x="395.5" y="227.3" class="st12" width="45" height="2"/>
				</g>
				<g id="XMLID_14145_">
					<polygon id="XMLID_13930_" class="st8" points="398.5,194.4 397.9,194.4 395.5,194.4 395.5,203.7 397.9,203.7 398.5,203.7 
						399.9,203.7 399.9,194.4 					"/>
					<polygon id="XMLID_13929_" class="st8" points="403.3,183.3 402.7,183.3 401.3,183.3 401.3,203.7 402.7,203.7 403.3,203.7 
						405.7,203.7 405.7,183.3 					"/>
					<polygon id="XMLID_13928_" class="st8" points="409,199.4 408.4,199.4 407,199.4 407,203.7 408.4,203.7 409,203.7 411.4,203.7 
						411.4,199.4 					"/>
					<polygon id="XMLID_13926_" class="st8" points="414.8,189.7 414.2,189.7 412.8,189.7 412.8,203.7 414.2,203.7 414.8,203.7 
						417.2,203.7 417.2,189.7 					"/>
					<polygon id="XMLID_13925_" class="st9" points="420.3,193.5 419.7,193.5 418.3,193.5 418.3,203.7 419.7,203.7 420.3,203.7 
						422.7,203.7 422.7,193.5 					"/>
					<polygon id="XMLID_13924_" class="st9" points="425.9,187.3 425.3,187.3 423.9,187.3 423.9,203.7 425.3,203.7 425.9,203.7 
						428.3,203.7 428.3,187.3 					"/>
					<polygon id="XMLID_13923_" class="st9" points="431.8,183.3 431.2,183.3 429.8,183.3 429.8,203.7 431.2,203.7 431.8,203.7 
						434.2,203.7 434.2,183.3 					"/>
					<polygon id="XMLID_13922_" class="st9" points="437.5,185.3 436.9,185.3 435.5,185.3 435.5,203.7 436.9,203.7 437.5,203.7 
						439.9,203.7 439.9,185.3 					"/>
				</g>
				<g id="XMLID_14143_">
					<rect id="XMLID_13921_" x="395.5" y="207.4" class="st12" width="21.4" height="6.9"/>
				</g>
				<g id="XMLID_14141_">
					<rect id="XMLID_13920_" x="418.5" y="207.4" class="st12" width="21.4" height="6.9"/>
				</g>
			</g>
		</g>
		<g id="XMLID_14132_">
			<path id="XMLID_13919_" class="st8" d="M361.7,126.4c0.1,0,0.2,0.1,0.2,0.2v3.1c0,0.1-0.1,0.2-0.2,0.2h-4.4
				c-0.1,0-0.2-0.1-0.2-0.2v-3.1c0-0.1,0.1-0.2,0.2-0.2H361.7z"/>
			<path id="XMLID_13918_" class="st1" d="M357.2,126.7v2.1h4.7v-2.1c0-0.1-0.1-0.2-0.2-0.2h-4.4
				C357.2,126.6,357.2,126.6,357.2,126.7z"/>
			<polygon id="XMLID_13917_" class="st9" points="357.2,78.9 357.2,81.3 357.2,113.6 357.2,118.9 357.2,127.4 361.8,127.4 
				361.8,118.9 361.8,113.6 361.8,81.3 361.8,78.9 361.8,68.2 357.2,68.2 			"/>
			<polygon id="XMLID_13916_" class="st6" points="358.9,78.9 358.9,81.3 358.9,113.6 358.9,118.9 358.9,127.4 360.1,127.4 
				360.1,118.9 360.1,113.6 360.1,81.3 360.1,78.9 360.1,68.2 358.9,68.2 			"/>
			<polygon id="XMLID_13915_" class="st1" points="361.8,68.2 359.5,69.9 357.1,68.2 359.5,60.6 			"/>
			<polygon id="XMLID_13912_" class="st6" points="358.5,63.8 360.5,63.8 359.5,60.6 			"/>
		</g>
		<g id="XMLID_14102_">
			<rect id="XMLID_13911_" x="305.3" y="37.1" class="st6" width="41.3" height="59.9"/>
			<g id="XMLID_14104_">
				<g id="XMLID_14106_">
					<g id="XMLID_14126_">
						<rect id="XMLID_13910_" x="308" y="55.2" class="st9" width="5.8" height="5.8"/>
						<rect id="XMLID_13909_" x="308" y="65.6" class="st1" width="5.8" height="5.8"/>
						<rect id="XMLID_13908_" x="308" y="76.1" class="st1" width="5.8" height="5.8"/>
						<rect id="XMLID_13907_" x="308" y="86.5" class="st1" width="5.8" height="5.8"/>
					</g>
					<g id="XMLID_14121_">
						<rect id="XMLID_13906_" x="318" y="55.2" class="st9" width="5.8" height="5.8"/>
						<rect id="XMLID_13905_" x="318" y="65.6" class="st1" width="5.8" height="5.8"/>
						<rect id="XMLID_13904_" x="318" y="76.1" class="st1" width="5.8" height="5.8"/>
						<rect id="XMLID_13903_" x="318" y="86.5" class="st1" width="5.8" height="5.8"/>
					</g>
					<g id="XMLID_14112_">
						<rect id="XMLID_13902_" x="328" y="55.2" class="st9" width="5.8" height="5.8"/>
						<rect id="XMLID_13901_" x="308" y="52.6" class="st1" width="5.8" height="0.8"/>
						<rect id="XMLID_13900_" x="318" y="52.6" class="st1" width="5.8" height="0.8"/>
						<rect id="XMLID_13899_" x="328" y="52.6" class="st1" width="5.8" height="0.8"/>
						<rect id="XMLID_13898_" x="328" y="65.6" class="st1" width="5.8" height="5.8"/>
						<rect id="XMLID_13897_" x="328" y="76.1" class="st1" width="5.8" height="5.8"/>
						<rect id="XMLID_13896_" x="328" y="86.5" class="st1" width="5.8" height="5.8"/>
					</g>
					<g id="XMLID_14107_">
						<rect id="XMLID_13895_" x="338.1" y="55.2" class="st9" width="5.8" height="5.8"/>
						<rect id="XMLID_13894_" x="338.1" y="65.6" class="st9" width="5.8" height="5.8"/>
						<rect id="XMLID_13893_" x="338.1" y="76.1" class="st9" width="5.8" height="16.3"/>
					</g>
				</g>
				<rect id="XMLID_13892_" x="307.4" y="39.4" class="st1" width="37" height="10.9"/>
			</g>
			<circle id="XMLID_13891_" class="st1" cx="340.9" cy="53" r="1"/>
		</g>
		<g id="XMLID_14082_">
			<g id="XMLID_14083_">
				<rect id="XMLID_13890_" x="87" y="27.8" class="st8" width="47.4" height="3.7"/>
				<rect id="XMLID_13889_" x="87" y="31.4" class="st1" width="47.4" height="66.2"/>
				<g id="XMLID_14093_">
					<rect id="XMLID_13888_" x="91.1" y="49.7" class="st12" width="17.8" height="1.6"/>
					<rect id="XMLID_13887_" x="91.1" y="56.1" class="st12" width="39.2" height="1.6"/>
					<rect id="XMLID_13886_" x="91.1" y="59.7" class="st12" width="39.2" height="1.6"/>
					<rect id="XMLID_13885_" x="91.1" y="63.2" class="st12" width="39.2" height="1.6"/>
					<rect id="XMLID_13884_" x="91.1" y="66.8" class="st12" width="39.2" height="1.6"/>
				</g>
				<g id="XMLID_14088_">
					<rect id="XMLID_13883_" x="91.1" y="70.3" class="st12" width="39.2" height="1.6"/>
					<rect id="XMLID_13882_" x="91.1" y="73.9" class="st12" width="39.2" height="1.6"/>
					<rect id="XMLID_13880_" x="91.1" y="77.4" class="st12" width="39.2" height="1.6"/>
					<rect id="XMLID_13879_" x="91.1" y="81" class="st12" width="39.2" height="1.6"/>
				</g>
				<g id="XMLID_14084_">
					<rect id="XMLID_13877_" x="91.1" y="84.5" class="st12" width="39.2" height="1.6"/>
					<rect id="XMLID_13876_" x="91.1" y="88.1" class="st12" width="39.2" height="1.6"/>
					<rect id="XMLID_13875_" x="91.1" y="91.6" class="st12" width="39.2" height="1.6"/>
				</g>
			</g>
		</g>
		<g id="XMLID_14069_">
			<path id="XMLID_13874_" class="st6" d="M1.2,261.6c0-2.5,2-4.5,4.5-4.5h37.1c2.5,0,4.5,2,4.5,4.5v61.2c0,2.5-2,4.5-4.5,4.5H5.7
				c-2.5,0-4.5-2-4.5-4.5V261.6z"/>
			<rect id="XMLID_13873_" x="5.6" y="262.3" class="st1" width="37.3" height="59.7"/>
			<rect id="XMLID_13872_" x="5.6" y="261.8" class="st9" width="37.3" height="2.8"/>
			<path id="XMLID_13866_" class="st1" d="M24.2,326.5c-1,0-1.8-0.8-1.8-1.8c0-1,0.8-1.8,1.8-1.8c1,0,1.8,0.8,1.8,1.8
				C26,325.7,25.2,326.5,24.2,326.5z"/>
			<g id="XMLID_14072_">
				<rect id="XMLID_13865_" x="21.2" y="312.8" class="st12" width="5.9" height="5.8"/>
				<rect id="XMLID_13864_" x="28.2" y="312.8" class="st9" width="5.8" height="5.8"/>
				<rect id="XMLID_13863_" x="35.1" y="312.8" class="st12" width="5.8" height="5.8"/>
				<rect id="XMLID_13762_" x="14.4" y="312.8" class="st12" width="5.8" height="5.8"/>
				<rect id="XMLID_13761_" x="7.5" y="312.8" class="st12" width="5.8" height="5.8"/>
			</g>
			<path id="XMLID_13760_" class="st1" d="M31.2,260.1c0,0.2-0.2,0.4-0.4,0.4H17.7c-0.2,0-0.4-0.2-0.4-0.4v-1.2
				c0-0.2,0.2-0.4,0.4-0.4h13.1c0.2,0,0.4,0.2,0.4,0.4V260.1z"/>
			<path id="XMLID_13759_" class="st11" d="M42.7,257.2H24v70.1h18.8c2.5,0,4.5-2,4.5-4.5v-61.2C47.2,259.2,45.2,257.2,42.7,257.2z"
				/>
		</g>
	</g>
	<g id="XMLID_3162_">
		<defs>
			<rect id="XMLID_3161_" x="68.3" y="25.3" width="353.8" height="497.3"/>
		</defs>
		<clipPath id="XMLID_55_">
			<use xlink:href="#XMLID_3161_"  style="overflow:visible;"/>
		</clipPath>
		<g id="XMLID_13758_" class="st13">
			<path id="XMLID_13754_" class="st14" d="M72.2,848.1c0,0,15.2-8.4,29.7-13.3c0,0,10.4-2.6,11.9-6.1V811l23-2.9
				c0,0-3.3,18.8-2.6,31.8l0.5,6.6l-8.3,5.5l-11.2,2.2l-11.3,3.6c0,0-11,4.2-11.4,4.3c-0.4,0.1-14.7,1.2-14.7,1.2l-7.4-4.1
				c0,0-0.9-4.5-0.9-4.9C69.5,853.9,72.2,848.1,72.2,848.1z"/>
			<path id="XMLID_13753_" class="st14" d="M126.5,830.7c0,0,3,4.2-1.3,7.4"/>
			<path id="XMLID_13752_" class="st14" d="M268.5,862.9c0,0-13.5-10.9-27-18.2c0,0-9.8-4.4-10.7-8l3-17.4l-22.1-6.8
				c0,0,0.1,19.1-2.9,31.8l-1.7,6.4l7.3,6.8l10.7,4.1l10.5,5.5c0,0,10.1,6.1,10.5,6.2c0.3,0.2,14.3,3.7,14.3,3.7l8-2.8
				c0,0,1.7-4.3,1.7-4.7C270.1,869.1,268.5,862.9,268.5,862.9z"/>
			<path id="XMLID_13751_" class="st14" d="M218,836.4c0,0-3.7,3.6,0,7.5"/>
			<path id="XMLID_13750_" class="st15" d="M113.9,820.5l21.2-1.4l-1,6c0,0-9.2-6-16.9,0c0,0,1.3,6.1-4.5,7.4
				c0,0-43.1,16.2-36.8,21.4c0,0,2.9,5,15.4,5.7c0,0-10.6,5.2-18.7-3.3c0,0-4.7-4.9,1.3-9.2c0,0,23.9-13.4,34.8-16.4
				C108.9,830.7,114.2,829.2,113.9,820.5z"/>
			<path id="XMLID_13749_" class="st16" d="M135.3,849.5c-5,8.2-12.3,8.5-12.3,8.5c-15.1,1.4-23,7.2-23,7.2l-5.7,2.9
				c-15.6,6-28-1.2-28-1.2c-4.2-1.9-5.7-4.2-6-6.3l0,0v3.9c0,0,3.2,8.2,23.6,7.9c0,0,8.6-0.4,17.2-5.7c0,0,4.2-2.9,10-4.9
				c3-1,8.8-1.8,12.2-2.1c4.1-0.4,9.2-1.9,12.1-7.1V849.5z"/>
			<path id="XMLID_13748_" class="st17" d="M72.2,848.1c0,0-7.7,3.3-10.3,7.1c0,0-6.1,7.3,4.3,11.8c0,0,12.5,7.1,28,1.2l5.7-2.9
				c0,0,9.5-7.2,22.2-7.2c0,0,8.3-0.4,12.9-8.5l-0.1-8.7c0,0-1.7,10.9-20.1,11.3c0,0-7.7,0-16.4,5.5c0,0-15.1,8.7-25.7-1.3
				C69.4,853.2,72.2,848.1,72.2,848.1z"/>
			<path id="XMLID_13747_" class="st15" d="M230.7,833.2c0,0-8.3-5.5-16.1,1.8c0,0-3.4,7.8-2,13.8c0,0,2.4,6.6,13.6,9.3
				c0,0,9.9,2.2,12,6.3h-6.3l-15.6-3.2l-7-5.3l-1.3-11c0,0,2.6-11.5,2.8-18.2c0.2-6.7,0,0,0,0l21,1.1L230.7,833.2z"/>
			<path id="XMLID_13746_" class="st16" d="M206.1,853.5c3.7,9.9,14.2,11.2,14.2,11.2c11.9,2.9,17.9,10.4,17.9,10.4l5.2,3.9
				c14.3,8.6,27.8,3.7,27.8,3.7c4.5-1.1,6.3-3.1,7-5.2l0,0l-0.7,3.9c0,0-4.5,7.6-24.6,3.7c0,0-6.3-1.4-12.8-6.1
				c-1.1-0.8-3.9-3.6-5.4-5c-2.6-2.5-7.6-6.1-15.3-7.6c0,0-11.1-0.7-13.8-9.7L206.1,853.5z"/>
			<path id="XMLID_13745_" class="st17" d="M268.5,862.9c0,0,7,4.6,8.9,8.7c0,0,4.7,8.2-6.2,10.9c0,0-13.5,4.9-27.8-3.7l-5.2-3.9
				c0,0-5.6-8.3-19-10.5c0,0-11.7-1.6-12.9-11l1.6-8.6c0,0-0.2,11,17.9,14.6c0,0,7.6,1.3,15.2,8.2c0,0,13.4,11.1,25.5,3.1
				C270.4,868.4,268.5,862.9,268.5,862.9z"/>
			<path id="Pantalon" class="st18" d="M153.6,459.2c0,0-26.9,87.7-26.5,154.8c0,0-5.1,16.8-2.3,28.1c0,0-20,103.9-11.8,177.8
				l22.8-1.5c0,0,37.3-128.4,37.7-161.9c0,0,33.1-85.4,38.2-131.8c0,0,4.7,124.8,8.2,147.4c0,0-1.9,5.1,0,10.1
				c0,0-16.2,36.8-11.5,145.2l26.9,1.4l27.5-120.1c0,0,12.9-11.3,10.1-39.4c0,0,18.7-71.7,18.7-113.8c0,0,6-66.2-9.3-100.4
				l-71.8-8.8L153.6,459.2z"/>
			<path id="XMLID_13744_" class="st19" d="M146.5,487.9c0,0,23.5-17.8,140.3-20c0,0-4.3-14.6-8.7-21.7c-4.4-7-2.7,0-2.7,0
				L156,451.1C156,451.1,153.3,464.1,146.5,487.9z"/>
			<path id="XMLID_13743_" class="st19" d="M213.9,498.9l-2.1,25.7c0,0,6.4,135,8.8,147.4c0,0-1.6,5.3,0,10.4
				c0,0-16.4,42.3-11.3,144.2l25.4,1.3l6.3-25.4c0,0-26.5,17.8-26.5-14c0,0,0.9-37.6,18-109.2c0,0-4.3-5.5-1.2-13.1L213.9,498.9z"/>
			<path id="XMLID_13742_" class="st19" d="M146.5,487.9c0,0-22.1,91.8-17.7,125.9c0,0-5.9,15.2-2.8,28.4c0,0-11.2,65.2-13.4,110.4
				c-1.2,24.9,1.2,66.5,1.2,66.5l21.2-1.4l9-32.4c0,0-17.6-2.4-17.6-16.9c0,0-23.4-2.8,8.9-117.2c0,0-5.5-9.6-1.2-21.6
				c0,0,0.9-80.4,12.4-113.6c11.5-33.2,0,0,0,0s18.7-2.6,24.6-36.9c5.8-34.3,0,0,0,0l-13.9-11.4L146.5,487.9z"/>
			<path id="XMLID_13741_" class="st20" d="M214.4,465.3c0,0-0.8,11.8,0,25.7"/>
			<g id="XMLID_13735_">
				<g id="XMLID_116410_">
					<path id="XMLID_116413_" class="st21" d="M-168.5,583.9c0,0,0,0.2,0,0.6"/>
					<path id="XMLID_116412_" class="st22" d="M-168.6,585.6c-0.7,8.5-5.4,46-31.5,53.1"/>
					<path id="XMLID_116411_" class="st21" d="M-200.7,638.9c-0.2,0-0.4,0.1-0.6,0.1"/>
				</g>
			</g>
			<path id="XMLID_13734_" class="st23" d="M267.3,459.6c0,0-2.3,36.7,27,55.7"/>
			<path id="XMLID_13733_" class="st14" d="M265.9,308.7c0,0,5.4-17.5,26.9-12.5c0,0,19.9,64.7,19.5,80.7c0,0,4.3,7.4,3.5,16.8
				c0,0,3.5,29.6-6.2,90.4v7.4c0,0,9,24.2-7.4,65.1c0,0-2.7,11.7-5.5,8.8c0,0-5.3-0.2,0.4-16l-5.7,12.5c0,0-1.2,10.3-5.3,7.8
				c0,0-4.3-2.7,1.4-25.7c0,0,1.4-14.6,0.4-19.3l-1.9,1.2c0,0-5,22.5-13.3,19.1c0,0-3.9-1.3,2.1-11.9c0,0,1.6-7.7,2.3-20.1
				c0,0,0.1-12.3,11.2-20.1c0,0,4.8-3.1,1.1-31.8c0,0-3.9-47.4-0.6-68C288.9,393.1,267.7,328,265.9,308.7z"/>
			<path id="XMLID_13732_" class="st24" d="M297.1,525.4l-1.9,17.5c0,0-2.9,15-3.7,18.9"/>
			<path id="XMLID_13731_" class="st24" d="M297.1,549.4l5.3-12.1c0,0,1-5.1,1.7-12.6"/>
			<path id="XMLID_13730_" class="st15" d="M295.7,304.6c0,0-19.5,1.2-21.6,13.1l12.5,57.7c0,0,2.7,9.9,1.6,15.6l-19.6-63.2
				l-13.5-24.6l21-5.9l14.7-1.4L295.7,304.6z"/>
			<path id="XMLID_13729_" class="st25" d="M294.8,290.2c0,0,15.4,52.7,19.4,84c0,0,4.5,5.7,3.3,19.1l-1.2,19.4
				c0,0-15.4,6.5-29.6-2.2c0,0-1.4-9,0-17.9l-20.9-65l-5.9-23.4"/>
			<path id="XMLID_13728_" class="st26" d="M262.5,304.6l8.7,36.9l16.3,50.1c0,0-1.1,9.1-0.5,9.6c0,0,8.1,4.2,18.8,3.6
				c10.6-0.6,0,0,0,0s-18.1-5.9-14.7-12.8c0,0-8.9-41.5-15.6-53.2c0,0,6.1-12.3,2.7-23.2C278.1,315.5,272,297.3,262.5,304.6z"/>
			<path id="XMLID_13727_" class="st15" d="M288.5,416.6c0,0,0.1,36.7,2.2,49c0,0-0.7-32.2,3.5-38c0,0,6.7-10,21.1-1.1l0.4-8.7
				C315.8,417.8,300.7,423,288.5,416.6"/>
			<path id="Cuello_3_" class="st27" d="M190.3,223.9l-2,23.3c0,0-5.6,11-17.6,11.9l30.4,29.4l43.9-36.5c0,0-9.8-0.3-11.8-7.7
				l-3.5-29.8L190.3,223.9z"/>
			<path id="Sombra_cuello_2_" class="st28" d="M231.1,230.9c0,0-33-2-42.9,16.2l2.2-23.3l39-9.4L231.1,230.9z"/>
			<g id="XMLID_13724_">
				<path id="XMLID_13726_" class="st29" d="M260.5,254.5C261.1,254.6,261.2,254.6,260.5,254.5L260.5,254.5z"/>
				<path id="XMLID_13725_" class="st25" d="M295.7,295.8c0,0-2.7-30.5-25.6-38.6c0,0-4.6-1.6-10-2.7c0.1,0,0.3,0,0.4,0.1
					c-0.1,0-0.2,0-0.4-0.1c-2-0.4-4-0.7-6-0.9l0,0l0,0l0,0l0,0c-15.5-2.2-16.8-9.4-16.8-9.4c1.8-7.7-2.3-6-2.3-6
					c2.4-6.7,0-7.1,0-7.1c-16.6,11.1-45.7,5.8-45.7,5.8c-7.8-2.3-4.8,6-4.8,6c-2.5,4.1,1.1,4.1,1.1,4.1c-4.2,4.1-1.1,4.7-1.1,4.7
					c-4.9,6.1-19,9.2-19,9.2l0,0c-6.6,0-17.3,1.5-23,10.7c0,0-8.4,15-10.5,28.5c0,0,5.4,8.7,26.3,9c0,0-12.3,21.6,5.5,36.3l9.4,42.3
					c0,0-15.4,56.5-24.2,70.2c0,0,23.4,8.2,66.9,7.2c0,0,31.2,2.9,70-11.1c0,0-26.3-53.4-26.7-62.8l1.8-38.4
					c0,0,15.8-10.5,14.4-34.3c0,0-1-5.5-5.8-14.2"/>
			</g>
			<path id="XMLID_13723_" class="st26" d="M195.3,359.4c0,0-3.6-19,3.9-30.2c0,0-2.1-12.2,7.5-15.9l9.6-3.7l2.1-17.7l11.6,3.8v48.1
				l-6.1,42.5h27.3l4,7c0,0-34.3,10.6-54.9,2.1C200.3,395.5,189.3,380.7,195.3,359.4z"/>
			<path id="sombra_camisa" class="st26" d="M160.9,306.7l-1.9,2.3c0,0-13.6,21.4,5.5,36.3l9.4,42.3c0,0-17.8,63.6-24.2,70.2
				c0,0,70.4,17.9,128.5-2c0,0-110.3,13.4-95.8-11.7c0,0-22.7-13.6,9-52.9l-19.2-45.7C172.1,345.6,151.4,334,160.9,306.7z"/>
			<path id="XMLID_13722_" class="st30" d="M225,292c0,0-17.4,81.9-19.2,90l-1.2,5.8c0,0,8.4,6.9,51.9,0c0,0-4.7-1.9,6-46.4
				c0,0-4.3,18.7,11.7-47.2C274.1,294.2,265.9,295.9,225,292z"/>
			<path id="XMLID_13721_" class="st31" d="M226.5,292.1c0,0-15.1,82.2-10.7,85.4c0,0-15.9,10.8,37.7,10.8c0,0-36.8,6.3-49-0.4
				L225,292L226.5,292.1z"/>
			<path id="Brazo_izq" class="st14" d="M134,301c0,0-12.2,44.6-17.2,81.8c0,0-8.1,17.2,3.6,15.9c0,0,54.5,1.3,88.8-22.9
				c0,0,23.1,1.3,39.9-17.2c0,0,8.6-13,4.9-21.6l3.6-2.9c0,0,3.6-1.8,1.8-6c0,0-0.8-3.6-14,6.2c0,0-10.7,5.2-13.8,7.5
				c0,0-18.2,7.3-15.9-3.1c0,0,0.4-6,1.6-9.6c0,0,4.7-10.1,0-10.4c0,0-1.7-2.1-6.4,8.1l-4.9,8.3c-1,0.1-8,19.9-6.5,24.4
				c0,0-45.5,5.5-56.4,13c0,0,11.3-49.9,14.8-64.2C158.2,308.4,143,301,134,301z"/>
			<path id="XMLID_13720_" class="st15" d="M132,308.7c0,0,11.8,3.4,16.7,10.3c2.3,3.3-5.3,53.6-5.3,53.6l4.5-2.6l12.2-58.4
				l-26.6-8.5L132,308.7z"/>
			<path id="XMLID_13719_" class="st15" d="M114.8,388.5c0,0-0.8,7.1,4.7,7.7c0,0,51.9,0.8,87.9-21.8c0,0,24.9-1,41.7-15.8
				c0,0-12,16.6-39.9,17.2c0,0-25,21.6-88.8,22.9C120.5,398.6,112,400,114.8,388.5z"/>
			<path id="dedo_izq1" class="st24" d="M254.3,337l-14.1,11.4c0,0-4.4,2.6-10.1,2.3"/>
			<path id="dedo_izq2" class="st24" d="M254.9,340.4l-9.5,11c0,0-4.6,6.5-11,6.5"/>
			<path id="dedo_izq3" class="st24" d="M254.5,346.2l-7.2,10c0,0-3.3,4.8-10.4,7.7"/>
			<path id="XMLID_13718_" class="st25" d="M132.6,297c0,0-13.7,55.1-17.3,81.6c0,0-7.6,23,5.2,20c12.9-3,0,0,0,0s17.3,2.4,35.2-2.1
				c0,0-6.7-18.4,0-30.4l-7.8,3.9l14.4-65.4"/>
			<circle id="XMLID_13717_" class="st32" cx="209.5" cy="303.2" r="1.1"/>
			<path id="XMLID_13716_" class="st26" d="M183.8,256.7c0,0,21.9,16.8,57.8-0.9c0,0,11.8-4.1,6.3,6.7c0,0-11.5,11.4-23.5,11.6
				c0,0,23.9,0.5,4.7,5.6c0,0-11.7,5-11.9,8.6c0,0-4.8-10.9-12.4-11.3c0,0-21.6-4.6-4.1-5.3C200.7,271.7,183.1,265.2,183.8,256.7z"
				/>
			<path id="XMLID_13715_" class="st26" d="M185,251.5c0,0-1.2,4.5-19.3,10.2c0,0-13.1-1.9-22.7,9.1c0,0-8,15-10.7,29.1l-9.4,40
				c0,0-7.5,35.7-7.4,38.7c0,0-5.1,16.2,0.2,19.1c0,0,1.6,1.9,10.2-1l0.7,0.6l-3.8,1.1c0,0,20.3,1.4,32.2-2.2c0,0-2.6-4.8-2.8-9
				c0,0-14.6,8.5-19.6,2.6c0,0-19.7,8.8-13.2-6.6l19.7-86.2c0,0-1-26.6,25.1-32.6C164.3,264.5,181.4,259.4,185,251.5"/>
			<path id="XMLID_13714_" class="st33" d="M183.4,252.9c0,0,6.1,10.3,29.5,22.8c0,0,24.3-12,26.5-28.2"/>
			<path id="XMLID_13713_" class="st32" d="M213.4,279.4h-1.1c-0.1,0-0.3-0.1-0.3-0.3v-3.9c0-0.1,0.1-0.3,0.3-0.3h1.1
				c0.1,0,0.3,0.1,0.3,0.3v3.9C213.7,279.3,213.5,279.4,213.4,279.4z"/>
			<path id="XMLID_13712_" class="st33" d="M212.9,279.4c0,0,0.6,30.3,5.8,38.9"/>
			<path id="XMLID_13711_" class="st33" d="M212.9,279.4c0,0-0.2,18.4-3.4,24.1"/>
			<path id="XMLID_13710_" class="st34" d="M179.3,74.5l-50.3,54.8c0,0-7.5,40.9,22.3,60.6c0,0-4.2-3.3-4-7.4c0,0,2.8,5.9,9.5,8.4
				c0,0-2.4-3.2-1.4-5.5c0,0,2.5,5.4,12.2,8.5L179.3,74.5z"/>
			<path id="Cara_6_" class="st27" d="M161.6,155.9c0,0,1.3,16.5,5.1,33.9c0,0,4.9,15.3,18.8,28.6c0,0,6.6,10.7,17.5,10.5
				c0,0,11.5,1.9,21.5-10.5c0,0,19.9-12,23.9-36.2l4.6-33.7l-3.8-29.1L237,96.3l-2.3-9.6l-23.2,6.5l-38.1,15.1l-13.2,14.5
				L161.6,155.9z"/>
			<path id="Sombra_cara_10_" class="st15" d="M231.7,109.1c0,0-16.7,17.6-39.3,16.5c0,0-11.9-2.7-22,11.5c0,0-6.2,10.1-0.8,20.8
				c0,0-8.8,12.9,2.9,38.9c0,0,8.1,13.4,13,18c0,0,14.6,22,36.4,6.5c0,0-19.1,19.9-36.4-2.8c0,0-15.9-12.8-21.9-35.6
				c0,0-5.4-13.6-5.8-17l-10.5-8.7l2.1-14.5c0,0,5.2-3.5,5.7-3.8c0.6-0.3,2.7,4.1,2.7,4.1s2.4,3.9,2.5,2.6
				c0.2-1.3,7.2-23.7,7.4-24.4s20.3-11.9,20.3-11.9l14.2-4.2l16.3-7.3l12.4-5l10.1,15.3C241,107.9,234.4,106.5,231.7,109.1z"/>
			<path id="sombra_oreja_izq_5_" class="st35" d="M155.4,149.2c0,0,0.4,4.6,3.8,8.7c0,0,2.7-0.3,1.1,2.6c0,0-1.1,2.7-3.2-2
				C157.1,158.4,155.1,155.8,155.4,149.2z"/>
			<path id="barbilla_6_" class="st36" d="M203.4,215.6c0,0,5.6,4.1,9.4-1.1C212.8,214.4,209.6,216.2,203.4,215.6z"/>
			<path id="oreja_der_6_" class="st27" d="M245,193.9c-1.1,1,6.1-10.9,7.3-22.8c0,0,3.9,6.4,8.1,0c0,0,9.5-14,6.5-25.1
				c0,0-4.9-14-9.2-6.8l-4.9,9.3"/>
			<path id="Sobra_oreja_der_6_" class="st35" d="M260,150.3c0,0,1.4,10.9-2.3,15.2c0,0-3.3,0.2-2.6-3.1c0,0,0.7-1.4,1.2-1.2
				C256.3,161.2,259.9,159.2,260,150.3z"/>
			<path id="cabello_11_" class="st34" d="M157.8,99.5c0,0,12.3-14.2,26.8-16.5c0,0-18.4,9.6-18.4,24.9c0,0-15.4,19.5-1.9,48.6
				c0,0-10.7-28.3,24.5-39.4c0,0,31.8,0,41-20.3c0,0-1.1,8.8,7.3,8.4c0,0-3.8,18.4,10,22.6c0,0,11.5,18.8,0,37.1
				c0,0,6.9-4.2,10-21.8c0,0,8.9-7.9,8.6,9.9c0,0,0.1,19.9-10.1,21c0,0-0.3,4.3-4.2,8.9c0,0,3.8,0.8,1.9,4.6c0,0,5.7-1.9,6.5-6.5
				c0,0,2.3,3.4,1.5,6.5c0,0,4.6-4.2,2.7-13c0,0,2.7,1.9,1.9,8.8c0,0,3.8-6.1,3.8-13.8c-2.5,9.8-0.2,11.2-3.3,18
				c0,0,24.3,3.1,25.5-40.2c0,0-6.5-62.8-54.7-65.9c0,0-4.6-41.7-67.4-5C169.6,76.5,157.8,85.7,157.8,99.5z"/>
			<path id="mechon_izq_6_" class="st37" d="M169.6,76.5c0,0-62,29.5-32.9,88.1c0,0-1.9-10,5.4-21.8c0,0-2.9,33.8,26.3,41.6
				c0,0-8.2-5.9-7.8-16.1c0,0-12.1-7.5-11.3-18.2c0,0,0.8-12.6,8.5-7.3c0,0,3.1,13.8,6.5,13.8c0,0-13.6-23,1.9-48.6
				c0,0-2.1-12.8,18.4-24.9c0,0-15.5,2.5-26.8,16.5C157.8,99.5,155.7,89.6,169.6,76.5z"/>
			<path id="sombra_cabello_der_6_" class="st37" d="M237,81.5c0,0,45.2,0,54.7,65.9c0,0,1,38.3-25.5,40.2c0,0,3.8-6.3,3.3-18
				c0,0,7.1,1.1,8.2,7.5C277.8,177,307.8,119.6,237,81.5z"/>
			<path id="sombra_cabello_der_2_6_" class="st37" d="M252.6,171.9c0,0,0.7,4.1-3.9,15.5c0,0,6.4-3.5,4.4,0.2c0,0,5.6-2.2,6.5-6.5
				c0,0,3,2.8,1.5,6.5c0,0,4.7-5.2,2.7-13c0,0,3.4,1.8,1.9,8.8c0,0,5.4-10,3.7-16.8c0,0-0.6,3.2-2,4.1c-1.4,1-3.6-0.2-3-3.4
				c0,0,2.5-17.8,0.8-21.2c0,0,1.2,6.5,0,13.1C263.6,168.3,258.8,177.7,252.6,171.9z"/>
			<g id="ojo_der_11_">
				<path id="parpado_der_6_" class="st38" d="M211.5,149.9c0,0,1.9-9.9,11.7-12.4c0,0,11.4-2.8,14.3,7l-0.6,2.3c0,0-4.2-5-11.4-4.7
					C225.5,142,214.4,144.1,211.5,149.9z"/>
				<path id="pestaña_der_6_" class="st39" d="M212.4,150.8l-0.9,0.6v-1.5c0,0,5.8-7.8,14-7.9c0,0,7.1-0.4,11.2,4.1
					c0,0,1.3,0.5,2.8-1.2c0,0-0.9,3.1-3.2,3L212.4,150.8z"/>
				<path id="XMLID_13709_" class="st40" d="M212.4,150.8c0,0-0.5,6.8,10.8,8.7c0,0,9.8,2.8,13-11.6
					C236.3,147.9,227.4,135.4,212.4,150.8z"/>
				<circle id="XMLID_13708_" class="st41" cx="228" cy="151.1" r="5.1"/>
				<circle id="XMLID_13707_" cx="228.3" cy="151.8" r="3.2"/>
				<circle id="XMLID_13706_" class="st1" cx="225.7" cy="150.2" r="1.1"/>
				<circle id="XMLID_13705_" class="st1" cx="224.2" cy="148.4" r="0.7"/>
				<path id="ceja_der_6_" class="st42" d="M211.5,138.7v-2.8c0,0,12.4-13.1,27.9-2.4C239.4,133.5,223.2,126.8,211.5,138.7z"/>
			</g>
			<g id="Ojo_izq_6_">
				<path id="parpado_izq_6_" class="st38" d="M192.4,149.7c0,0-1.7-9.1-10.8-11.5c0,0-10.5-2.6-13.2,6.4l0.6,2.1
					c0,0,3.9-4.6,10.5-4.3C179.5,142.5,189.7,144.4,192.4,149.7z"/>
				<path id="pestaña_izq_6_" class="st39" d="M191.6,150.6l0.8,0.5v-1.4c0,0-5.3-7.2-12.9-7.2c0,0-6.6-0.4-10.3,3.8
					c0,0-1.2,0.5-2.6-1.1c0,0,0.8,2.8,2.9,2.8L191.6,150.6z"/>
				<path id="cuenca_izq_6_" class="st40" d="M191.6,150.6c0,0,0.5,6.2-10,8c0,0-9.1,2.6-12-10.7
					C169.6,147.9,177.7,136.4,191.6,150.6z"/>
				<circle id="iris_izq_6_" class="st41" cx="183.5" cy="151.1" r="4.7"/>
				<circle id="pupila_izq_6_" cx="183.5" cy="151.6" r="2.9"/>
				<circle id="brillo_1_izq_6_" class="st1" cx="181.4" cy="149.9" r="1"/>
				<circle id="brillo_2_izq_6_" class="st1" cx="179.9" cy="148" r="0.7"/>
				<path id="ceja_izq_6_" class="st42" d="M193.5,137v-2.8c0,0-11.4-13.1-25.8-2.4C167.7,131.8,182.7,125.2,193.5,137z"/>
			</g>
			<g id="Boca_2_">
				<path id="XMLID_13704_" class="st43" d="M190.3,199.7c0,0,2.3,5.9,12.5,6.7c0,0,18,1.3,21.1-12.2l-19.2,1.3L190.3,199.7z"/>
				<path id="XMLID_13703_" class="st44" d="M189.3,199.5c0,0,4-2.7,6-5.9c0,0,3.9-4.3,8.3,0c0,0,2.2-3.7,5.2-3.7
					c3.4,0,7.3,6.4,15.1,4.3c0,0-7.7,7.1-19,4C204.9,198.1,197,200.9,189.3,199.5z"/>
				<path id="XMLID_13702_" class="st44" d="M221.7,195.8c0,0,3-1.8,5.4-3.5"/>
			</g>
			<path id="Nariz_6_" class="st45" d="M196.9,146c0,0,2.6,20.7-2.3,28c0,0-2.9,10,12.9,5"/>
			<path id="sombra_seno_izq" class="st26" d="M172.1,345.6c0,0-19.3-13.7-9.9-41l-3.2,4.5c0,0-13.6,21.4,5.5,36.3l1.2,5.5h8.7
				L172.1,345.6z"/>
			<path id="XMLID_13701_" class="st26" d="M184.5,242.9c0,0,19.3,4.9,43.3-2.7C227.8,240.2,210,251.4,184.5,242.9"/>
			<path id="XMLID_13700_" class="st26" d="M185,251.5c0,0,9.3,8.9,48.8,1.1c0,0-41.6,4.3-48-5C185.8,247.6,182,250.6,185,251.5z"/>
			<path id="XMLID_13699_" class="st26" d="M234.2,239c0,0-7.4,11.1-37.1,9.6c0,0,18.4,5.5,37.4-6.9c0,0,2.3-3.1,2.6-1.2
				C237.3,240.5,237.5,237,234.2,239"/>
			<path id="XMLID_13698_" class="st26" d="M184.5,240.2c0,0-1.1-4,3.8-2.9c0,0,31.6,5.8,46.7-5.6c0,0-8.8,12.9-45.7,8.5
				C189.4,240.2,187.2,235.2,184.5,240.2z"/>
			<path id="XMLID_13697_" class="st46" d="M284.7,401.1c0,0,18.7,7.2,34.1,1.3l-0.9,14.7c0,0-19.3,7.2-33.1-2.9V401.1z"/>
			<path id="puño_mang_izq" class="st46" d="M153.7,365.2c0,0-6.2,16.5,1.8,32.3l13.2-2.7c0,0-7.4-17.7-2.5-30.8L153.7,365.2z"/>
			<g id="XMLID_13694_">
				<circle id="XMLID_13696_" class="st47" cx="157.8" cy="164" r="2.5"/>
				<path id="XMLID_13695_" class="st48" d="M157.7,162.5c0,0,1.8,0.5,1.4,2.7c0,0,0.9-1.4,0.2-2.5
					C159.2,162.7,158.7,162,157.7,162.5z"/>
			</g>
			<g id="XMLID_13691_">
				<circle id="XMLID_13693_" class="st47" cx="256" cy="170.8" r="2.5"/>
				<path id="XMLID_13692_" class="st48" d="M255.9,169.3c0,0,1.8,0.5,1.4,2.7c0,0,0.9-1.4,0.2-2.5
					C257.4,169.5,256.9,168.7,255.9,169.3z"/>
			</g>
			<path id="XMLID_13690_" class="st49" d="M255.5,146.9L255.5,146.9l-12.8,1.5l-0.9-4.6l-0.9,0.2c-18.5-15.1-37.4,3.1-37.4,3.1
				l0.5,3.7l-5,0.4l0.5-3.7c0,0-18.9-18.2-37.4-3.1l-0.9-0.2l-1.1,7.4l0.6,0.3c0,0,1.5,14.9,12.4,14.7c0,0,16.4,2.5,21.1-6
				c0,0,2.8-4.7,2.5-9.4c0,0,1.2-1.4,2.2,0l5-0.4c1-1.4,2.2,0,2.2,0c-0.4,4.7,2.5,9.4,2.5,9.4c4.8,8.5,21.1,6,21.1,6
				c10.9,0.2,12.4-14.7,12.4-14.7l0.6-0.3l-0.2-2.8L255.5,146.9z"/>
			<path id="XMLID_13689_" class="st50" d="M255.5,146.9L255.5,146.9l-12.8,1.5l-0.9-4.6l-0.9,0.2c-18.5-15.1-37.4,3.1-37.4,3.1
				l0.5,3.7l-5,0.4l0.5-3.7c0,0-18.9-18.2-37.4-3.1l-0.9-0.2l-1.1,7.4l0.6,0.3c0,0,1.5,14.9,12.4,14.7c0,0,16.4,2.5,21.1-6
				c0,0,2.8-4.7,2.5-9.4c0,0,1.2-1.4,2.2,0l5-0.4c1-1.4,2.2,0,2.2,0c-0.4,4.7,2.5,9.4,2.5,9.4c4.8,8.5,21.1,6,21.1,6
				c10.9,0.2,12.4-14.7,12.4-14.7l0.6-0.3l-0.2-2.8L255.5,146.9z"/>
		</g>
	</g>
</g>
</svg>
