<?xml version="1.0" encoding="utf-8"?>
<!-- Generator: Adobe Illustrator 19.0.0, SVG Export Plug-In . SVG Version: 6.00 Build 0)  -->
<svg version="1.1" id="Capa_1" xmlns="http://www.w3.org/2000/svg" xmlns:xlink="http://www.w3.org/1999/xlink" x="0px" y="0px"
	 viewBox="0 0 471.4 600" style="enable-background:new 0 0 471.4 600;" xml:space="preserve">
<style type="text/css">
	.st0{fill:#F6F6F6;}
	.st1{fill:#FFFFFF;}
	.st2{fill:#696969;}
	.st3{fill:#CECFD1;}
	.st4{opacity:0.15;fill:#231F20;}
	.st5{fill:#C19578;}
	.st6{fill:#F7CDA1;}
	.st7{fill:#F6F4F4;}
	.st8{fill:#424242;}
	.st9{fill:#353535;}
	.st10{fill:#444444;}
	.st11{fill:#FFEDDC;}
	.st12{fill:#EAEAEA;}
	.st13{fill:#DDBF9A;}
	.st14{fill:#282928;}
	.st15{fill:#E54A3F;}
	.st16{fill:#252A26;}
	.st17{fill-rule:evenodd;clip-rule:evenodd;fill:#2F363E;}
	.st18{fill-rule:evenodd;clip-rule:evenodd;fill:#F6F4F4;}
	.st19{fill-rule:evenodd;clip-rule:evenodd;fill:url(#XMLID_114_);}
	.st20{fill:#CBD0D3;}
	.st21{fill:#95A5A5;}
	.st22{fill:#808B8E;}
	.st23{fill:#E9F0FA;}
	.st24{fill:#BEC3C8;}
	.st25{fill:#D6D6D6;}
	.st26{fill:#2F363E;}
	.st27{opacity:0.38;fill:#FFFFFF;}
	.st28{opacity:0.51;fill:#FFFFFF;}
	.st29{fill:#E6E7E9;}
	.st30{fill:#9E9E9E;}
	.st31{fill:#B8B9BB;}
	.st32{fill:#FEFCFE;}
	.st33{fill:#B27E4C;}
	.st34{fill:#432918;}
	.st35{opacity:0.2;fill:#231F20;}
	.st36{fill:#DEDEDE;}
</style>
<g id="XMLID_135600_">
	<g id="XMLID_135840_">
		<path id="XMLID_135799_" class="st0" d="M471.4,0.1v242.6l-12.3,15.5c-5.5,6.9-15.5,8.1-22.4,2.6L204.5,76.9
			c-6.9-5.5-8.1-15.5-2.6-22.4l43.1-54.4h58c0.2-0.2,0.5-0.2,0.8,0H471.4z"/>
		<path id="XMLID_135798_" class="st1" d="M471.4,14v150L272.5,6.5c-2-1.6-2.7-4.2-2-6.4h32.4c0.2-0.2,0.5-0.2,0.8,0h150.2L471.4,14
			z"/>
		<path id="XMLID_135797_" class="st2" d="M447.6,6.4l-3,3.8c-1,1.3-2.9,1.5-4.2,0.5L431,3.4c-1-0.8-1.4-2.1-1-3.3h14.4l2.6,2.1
			C448.4,3.2,448.6,5.1,447.6,6.4z"/>
		<path id="XMLID_135599_" class="st2" d="M455.5,22.7l-8.3-6.6c-1.6-1.2-1.8-3.5-0.6-5.1l2.3-2.8c1.2-1.6,3.5-1.8,5.1-0.6l8.3,6.6
			c1.6,1.2,1.8,3.5,0.6,5.1l-2.3,2.8C459.3,23.7,457,24,455.5,22.7z"/>
		<path id="XMLID_135796_" class="st2" d="M471.4,21.4v13.9l-9-7.1c-1.3-1-1.5-2.9-0.5-4.2l3-3.9c1-1.3,2.9-1.5,4.2-0.5L471.4,21.4z
			"/>
		<path id="XMLID_135795_" class="st2" d="M341.3,0.1l-0.9,1.1c-0.2,0.3-0.6,0.3-0.9,0.1L338,0.1H341.3z"/>
		<path id="XMLID_135794_" class="st2" d="M335.8,22.2L324.1,13c-0.3-0.2-0.3-0.6-0.1-0.9l9.2-11.6c0.2-0.3,0.6-0.3,0.9-0.1
			l11.6,9.2c0.3,0.2,0.3,0.6,0.1,0.9l-9.2,11.6C336.5,22.4,336,22.5,335.8,22.2z"/>
		<path id="XMLID_135793_" class="st2" d="M298.4,0.1l-8.8,11.1c-0.2,0.3-0.7,0.4-1,0.1L277,2.2c-0.3-0.2-0.4-0.7-0.1-1l0.9-1.1
			H298.4z"/>
		<path id="XMLID_135792_" class="st2" d="M315.4,10.3L305,23.5c-0.2,0.3-0.7,0.4-1,0.1l-11.6-9.1c-0.3-0.2-0.4-0.7-0.1-1l10.4-13.2
			c0-0.1,0.1-0.1,0.2-0.2c0.2-0.2,0.5-0.2,0.8,0c0,0,0,0,0.1,0l11.6,9.1C315.6,9.5,315.7,10,315.4,10.3z"/>
		<path id="XMLID_135791_" class="st2" d="M319,35.4l-11.6-9.1c-0.3-0.2-0.4-0.7-0.1-1l10.4-13.2c0.2-0.3,0.7-0.4,1-0.1l11.6,9.1
			c0.3,0.2,0.4,0.7,0.1,1L320,35.3C319.7,35.6,319.3,35.7,319,35.4z"/>
		<path id="XMLID_135790_" class="st2" d="M337.8,50.4l-15.2-12.1c-0.4-0.3-0.4-0.8-0.1-1.1l10.3-13c0.3-0.4,0.8-0.4,1.1-0.1
			l15.2,12.1c0.4,0.3,0.4,0.8,0.1,1.1l-10.3,13C338.7,50.6,338.2,50.6,337.8,50.4z"/>
		<path id="XMLID_135789_" class="st2" d="M431.6,124.6l-15.2-12.1c-0.4-0.3-0.4-0.8-0.1-1.1l10.3-13c0.3-0.4,0.8-0.4,1.1-0.1
			l15.2,12.1c0.4,0.3,0.4,0.8,0.1,1.1l-10.3,13C432.5,124.9,432,124.9,431.6,124.6z"/>
		<path id="XMLID_135788_" class="st2" d="M447.1,136.9l-11.4-9c-0.3-0.2-0.4-0.7-0.1-1l10.4-13.2c0.2-0.3,0.7-0.4,1-0.1l11.4,9
			c0.3,0.2,0.4,0.7,0.1,1l-10.4,13.2C447.8,137.1,447.4,137.1,447.1,136.9z"/>
		<path id="XMLID_135787_" class="st2" d="M412.6,109.6l-70.4-55.7c-0.7-0.6-0.9-1.7-0.3-2.4l9.2-11.6c0.6-0.7,1.7-0.9,2.4-0.3
			l70.4,55.7c0.7,0.6,0.9,1.7,0.3,2.4l-9.2,11.6C414.4,110,413.3,110.1,412.6,109.6z"/>
		<path id="XMLID_135786_" class="st3" d="M365.6,192.1l-77.5-61.4c-1.8-1.4-2.1-4-0.7-5.7l43.2-54.5c1.4-1.8,4-2.1,5.7-0.7
			l77.5,61.4c1.8,1.4,2.1,4,0.7,5.7l-43.2,54.5C370,193.2,367.4,193.5,365.6,192.1z"/>
		<path id="XMLID_135785_" class="st2" d="M350.8,34.2L339.2,25c-0.3-0.2-0.3-0.6-0.1-0.9l9.2-11.6c0.2-0.3,0.6-0.3,0.9-0.1
			l11.6,9.2c0.3,0.2,0.3,0.6,0.1,0.9l-9.2,11.6C351.6,34.4,351.1,34.4,350.8,34.2z"/>
		<path id="XMLID_135784_" class="st2" d="M365.9,46.1l-11.6-9.2c-0.3-0.2-0.3-0.6-0.1-0.9l9.2-11.6c0.2-0.3,0.6-0.3,0.9-0.1
			l11.6,9.2c0.3,0.2,0.3,0.6,0.1,0.9L366.9,46C366.6,46.3,366.2,46.4,365.9,46.1z"/>
		<path id="XMLID_135782_" class="st2" d="M381,58.1l-11.6-9.2c-0.3-0.2-0.3-0.6-0.1-0.9l9.2-11.6c0.2-0.3,0.6-0.3,0.9-0.1l11.6,9.2
			c0.3,0.2,0.3,0.6,0.1,0.9L382,58C381.7,58.3,381.3,58.3,381,58.1z"/>
		<path id="XMLID_135781_" class="st2" d="M396.1,70l-11.6-9.2c-0.3-0.2-0.3-0.6-0.1-0.9l9.2-11.6c0.2-0.3,0.6-0.3,0.9-0.1l11.6,9.2
			c0.3,0.2,0.3,0.6,0.1,0.9L397,69.9C396.8,70.2,396.4,70.3,396.1,70z"/>
		<path id="XMLID_135780_" class="st2" d="M411.2,82l-11.6-9.2c-0.3-0.2-0.3-0.6-0.1-0.9l9.2-11.6c0.2-0.3,0.6-0.3,0.9-0.1l11.6,9.2
			c0.3,0.2,0.3,0.6,0.1,0.9l-9.2,11.6C411.9,82.1,411.5,82.2,411.2,82z"/>
		<path id="XMLID_135779_" class="st2" d="M426.3,93.9l-11.6-9.2c-0.3-0.2-0.3-0.6-0.1-0.9l9.2-11.6c0.2-0.3,0.6-0.3,0.9-0.1
			l11.6,9.2c0.3,0.2,0.3,0.6,0.1,0.9l-9.2,11.6C427,94.1,426.6,94.1,426.3,93.9z"/>
		<path id="XMLID_135778_" class="st2" d="M441.4,105.9l-11.6-9.2c-0.3-0.2-0.3-0.6-0.1-0.9l9.2-11.6c0.2-0.3,0.6-0.3,0.9-0.1
			l11.6,9.2c0.3,0.2,0.3,0.6,0.1,0.9l-9.2,11.6C442.1,106,441.7,106.1,441.4,105.9z"/>
		<path id="XMLID_135777_" class="st2" d="M456.5,117.8l-11.6-9.2c-0.3-0.2-0.3-0.6-0.1-0.9l9.2-11.6c0.2-0.3,0.6-0.3,0.9-0.1
			l11.6,9.2c0.3,0.2,0.3,0.6,0.1,0.9l-9.2,11.6C457.2,118,456.8,118,456.5,117.8z"/>
		<path id="XMLID_135776_" class="st2" d="M460.5,147.9l-8.8-7c-1.1-0.9-1.3-2.5-0.4-3.6l2.6-3.3c0.9-1.1,2.5-1.3,3.6-0.4l8.8,7
			c1.1,0.9,1.3,2.5,0.4,3.6l-2.6,3.3C463.3,148.6,461.6,148.8,460.5,147.9z"/>
		<path id="XMLID_135775_" class="st2" d="M471.4,145v11.5l-4.6-3.6c-1.1-0.9-1.3-2.5-0.4-3.6l2.6-3.3
			C469.6,145.2,470.5,144.8,471.4,145z"/>
		<path id="XMLID_135774_" class="st2" d="M364.8,1.6l-9.2,11.6c-0.2,0.3-0.6,0.3-0.9,0.1l-11.6-9.2c-0.3-0.2-0.3-0.6-0.1-0.9
			l2.5-3.1H364l0.7,0.6C365,0.9,365.1,1.4,364.8,1.6z"/>
		<path id="XMLID_135773_" class="st2" d="M369.9,25.4l-11.6-9.2c-0.3-0.2-0.3-0.6-0.1-0.9l9.2-11.6c0.2-0.3,0.6-0.3,0.9-0.1
			l11.6,9.2c0.3,0.2,0.3,0.6,0.1,0.9l-9.2,11.6C370.6,25.6,370.2,25.7,369.9,25.4z"/>
		<path id="XMLID_135772_" class="st2" d="M385.2,37.5l-11.6-9.2c-0.3-0.2-0.3-0.6-0.1-0.9l9.2-11.6c0.2-0.3,0.6-0.3,0.9-0.1
			l11.6,9.2c0.3,0.2,0.3,0.6,0.1,0.9l-9.2,11.6C385.9,37.7,385.5,37.7,385.2,37.5z"/>
		<path id="XMLID_135771_" class="st2" d="M400.3,49.5l-11.6-9.2c-0.3-0.2-0.3-0.6-0.1-0.9l9.2-11.6c0.2-0.3,0.6-0.3,0.9-0.1
			l11.6,9.2c0.3,0.2,0.3,0.6,0.1,0.9l-9.2,11.6C401,49.7,400.6,49.7,400.3,49.5z"/>
		<path id="XMLID_135770_" class="st2" d="M415.5,61.5l-11.6-9.2c-0.3-0.2-0.3-0.6-0.1-0.9l9.2-11.6c0.2-0.3,0.6-0.3,0.9-0.1
			l11.6,9.2c0.3,0.2,0.3,0.6,0.1,0.9l-9.2,11.6C416.2,61.7,415.8,61.8,415.5,61.5z"/>
		<path id="XMLID_135769_" class="st2" d="M430.1,73.1l-11.6-9.2c-0.3-0.2-0.3-0.6-0.1-0.9l9.2-11.6c0.2-0.3,0.6-0.3,0.9-0.1
			l11.6,9.2c0.3,0.2,0.3,0.6,0.1,0.9L431,73C430.8,73.3,430.4,73.3,430.1,73.1z"/>
		<path id="XMLID_135768_" class="st2" d="M445.2,85l-11.6-9.2c-0.3-0.2-0.3-0.6-0.1-0.9l9.2-11.6c0.2-0.3,0.6-0.3,0.9-0.1l11.6,9.2
			c0.3,0.2,0.3,0.6,0.1,0.9l-9.2,11.6C445.9,85.2,445.5,85.3,445.2,85z"/>
		<path id="XMLID_135767_" class="st2" d="M460.3,97l-11.6-9.2c-0.3-0.2-0.3-0.6-0.1-0.9l9.2-11.6c0.2-0.3,0.6-0.3,0.9-0.1l11.6,9.2
			c0.3,0.2,0.3,0.6,0.1,0.9l-9.2,11.6C461,97.2,460.6,97.2,460.3,97z"/>
		<path id="XMLID_135766_" class="st2" d="M471.4,88.8v16.9l-7.7-6.1c-0.3-0.2-0.3-0.6-0.1-0.9L471.4,88.8z"/>
		<path id="XMLID_135765_" class="st2" d="M471.4,109v20.6l-11.6-9.2c-0.3-0.2-0.3-0.6-0.1-0.9l9.2-11.6c0.2-0.3,0.6-0.3,0.9-0.1
			L471.4,109z"/>
		<path id="XMLID_135764_" class="st2" d="M329.8,0.1L322,10c-0.4,0.5-1,0.5-1.5,0.2l-12.7-10H329.8z"/>
		<path id="XMLID_135763_" class="st2" d="M384.9,0.1l-6.1,7.7c-0.2,0.3-0.6,0.3-0.9,0.1l-9.8-7.8H384.9z"/>
		<path id="XMLID_135762_" class="st2" d="M403.2,8.2L394,19.8c-0.2,0.3-0.7,0.3-0.9,0.1l-11.6-9.2c-0.3-0.2-0.3-0.6-0.1-0.9
			l7.6-9.6h5.2l9,7.1C403.4,7.4,403.4,7.9,403.2,8.2z"/>
		<path id="XMLID_135761_" class="st2" d="M408.2,31.9l-11.6-9.2c-0.3-0.2-0.3-0.6-0.1-0.9l9.2-11.6c0.2-0.3,0.6-0.3,0.9-0.1
			l11.6,9.2c0.3,0.2,0.3,0.6,0.1,0.9l-9.2,11.6C408.9,32.1,408.5,32.1,408.2,31.9z"/>
		<path id="XMLID_135760_" class="st2" d="M423.3,43.8l-11.6-9.2c-0.3-0.2-0.3-0.6-0.1-0.9l9.2-11.6c0.2-0.3,0.6-0.3,0.9-0.1
			l11.6,9.2c0.3,0.2,0.3,0.6,0.1,0.9l-9.2,11.6C424,44,423.6,44,423.3,43.8z"/>
		<path id="XMLID_135759_" class="st2" d="M438,55.5l-11.6-9.2c-0.3-0.2-0.3-0.6-0.1-0.9l9.2-11.6c0.2-0.3,0.6-0.3,0.9-0.1l11.6,9.2
			c0.3,0.2,0.3,0.6,0.1,0.9l-9.2,11.6C438.7,55.6,438.3,55.7,438,55.5z"/>
		<path id="XMLID_135758_" class="st2" d="M453.3,67.6l-11.6-9.2c-0.3-0.2-0.3-0.6-0.1-0.9l9.2-11.6c0.2-0.3,0.6-0.3,0.9-0.1
			l11.6,9.2c0.3,0.2,0.3,0.6,0.1,0.9l-9.2,11.6C454,67.7,453.6,67.8,453.3,67.6z"/>
		<path id="XMLID_135757_" class="st2" d="M471.4,61.3v15.5l-2.1,2.6c-0.2,0.3-0.6,0.3-0.9,0.1l-11.6-9.2c-0.3-0.2-0.3-0.7-0.1-0.9
			l9.2-11.6c0.2-0.3,0.6-0.3,0.9-0.1L471.4,61.3z"/>
		<path id="XMLID_135756_" class="st2" d="M421.7,0.1L413.1,11c-0.2,0.3-0.7,0.3-0.9,0.1l-11.6-9.2c-0.3-0.2-0.3-0.7-0.1-0.9
			l0.7-0.9H421.7z"/>
		<path id="XMLID_135755_" class="st2" d="M426.9,22.8l-11.6-9.2c-0.3-0.2-0.3-0.6-0.1-0.9l9.2-11.6c0.2-0.3,0.6-0.3,0.9-0.1
			l11.6,9.2c0.3,0.2,0.3,0.6,0.1,0.9l-9.2,11.6C427.6,23,427.2,23,426.9,22.8z"/>
		<path id="XMLID_135754_" class="st2" d="M442.3,35l-11.6-9.2c-0.3-0.2-0.3-0.6-0.1-0.9l9.2-11.6c0.2-0.3,0.6-0.3,0.9-0.1l11.6,9.2
			c0.3,0.2,0.3,0.6,0.1,0.9l-9.2,11.6C443,35.1,442.5,35.2,442.3,35z"/>
		<path id="XMLID_135735_" class="st2" d="M457.2,46.8l-11.6-9.2c-0.3-0.2-0.3-0.6-0.1-0.9l9.2-11.6c0.2-0.3,0.6-0.3,0.9-0.1
			l11.6,9.2c0.3,0.2,0.3,0.6,0.1,0.9l-9.2,11.6C457.9,46.9,457.4,47,457.2,46.8z"/>
		<path id="XMLID_135734_" class="st2" d="M471.4,37.4V58l-10.5-8.3c-0.3-0.2-0.3-0.6-0.1-0.9l9.2-11.6c0.2-0.3,0.6-0.3,0.9-0.1
			L471.4,37.4z"/>
		<path id="XMLID_135733_" class="st3" d="M105.1,531.7c1.8,11.5,12.7,19.4,24.2,17.6l143.8-22.6c11.5-1.8,19.4-12.7,17.6-24.2
			L259.3,303c-1.8-11.5-12.7-19.4-24.2-17.6L91.3,308c-11.5,1.8-19.4,12.7-17.6,24.2L105.1,531.7z"/>
		<path id="XMLID_135732_" class="st4" d="M279.6,431.8l-0.8,93.4c-1.7,1-5.7,1.5-7.9,1.8L203,537.2c0,0-96.8-1.7-97.2-1.8
			l-11.1-81.1l-2.9-136.9l3.9-0.9l180.4,94.4L279.6,431.8z"/>
		<path id="XMLID_135731_" class="st5" d="M103.5,427.5c-0.8,0.2-17.9,17.3-44.3,24.2l15.2-35.5L103.5,427.5z"/>
		<path id="XMLID_135714_" class="st6" d="M35.8,448.2l23.3-33.5c0,0,1.9-2.5,4.9-4.8c3-2.4,6.9-3.6,10.7-3.5l51.2,2l-20.4,18.9
			L80,425.2c0,0-3.4-0.3-5.9,6.8l-7.9,18.2c-2.8,6.4-1.2,13.9,4,18.5c0.9,0.8,2,1.6,3.1,2.1L43,489.4l-8.4-21.8
			C34.7,467.6,29.9,456.9,35.8,448.2z"/>
		<path id="XMLID_135713_" class="st7" d="M85.1,507.1c-0.4,11.6,8.8,21.4,20.5,21.8l145.5,4.7c11.6,0.4,21.4-8.8,21.8-20.5
			l6.5-201.9c0.4-11.6-8.8-21.4-20.5-21.8l-145.5-4.7c-11.6-0.4-21.4,8.8-21.8,20.5L85.1,507.1z"/>
		<path id="XMLID_135710_" class="st5" d="M251.2,434.6c1.5,0.3,34.4,27.9,80.1,36.1l-34.7-60.4L251.2,434.6z"/>
		<path id="XMLID_135709_" class="st6" d="M335.4,434.8l-24.9-27.9c0,0-2-2.1-5-3.8c-3-1.9-6.6-2.6-10.1-2l-46.3,7.5l20.7,15
			l22.9-4.8c0,0,3.1-0.6,6.1,5.6l9.2,15.7c3.2,5.5,2.6,12.5-1.6,17.3c-0.8,0.9-1.6,1.6-2.6,2.2l29.6,13.5l5.2-20.7
			C338.5,452.3,341.7,442,335.4,434.8z"/>
		<polygon id="XMLID_135708_" class="st8" points="401.8,600 335.3,600 302.7,540.9 302.8,540.8 330,525.8 353.6,512.8 		"/>
		<polygon id="XMLID_135707_" class="st9" points="370.9,600 335.4,600 302.8,540.8 330,525.8 		"/>
		<g id="XMLID_136249_">
			<path id="XMLID_136267_" class="st10" d="M146.1,479.8l-1,24.7l-24.7-1l1-24.7L146.1,479.8 M150.4,475.8l-4.2-0.2l-24.7-1
				l-4.2-0.2l-0.2,4.2l-1,24.7l-0.2,4.2l4.2,0.2l24.7,1l4.2,0.2l0.2-4.2l1-24.7L150.4,475.8L150.4,475.8z"/>
			<path id="XMLID_135680_" class="st10" d="M148.2,387.8l-2.4-2.7c-0.2-0.3-0.6-0.3-0.9,0l-10.4,9.3l-5-5.3
				c-0.2-0.3-0.6-0.3-0.9-0.1l-2.7,2.4c-0.3,0.2-0.3,0.6-0.1,0.9l7.9,8.4c0.2,0.3,0.6,0.3,0.9,0.1l1.9-1.7c0,0,0,0,0,0l0.3-0.3
				l0.5-0.4c0,0,0,0,0,0l10.8-9.7C148.4,388.4,148.4,388,148.2,387.8z"/>
			
				<rect id="XMLID_135679_" x="170.1" y="385.8" transform="matrix(0.9992 4.010340e-002 -4.010340e-002 0.9992 15.719 -8.1238)" class="st10" width="80.5" height="3.8"/>
			
				<rect id="XMLID_135678_" x="166.1" y="485.4" transform="matrix(0.9992 4.010340e-002 -4.010340e-002 0.9992 19.708 -7.8835)" class="st10" width="80.5" height="3.8"/>
			
				<rect id="XMLID_135677_" x="165.8" y="493.8" transform="matrix(0.9992 4.010340e-002 -4.010340e-002 0.9992 20.0469 -7.8631)" class="st10" width="80.5" height="3.8"/>
			
				<rect id="XMLID_135676_" x="165.4" y="502.3" transform="matrix(0.9992 4.010340e-002 -4.010340e-002 0.9992 20.3858 -7.8426)" class="st10" width="80.5" height="3.8"/>
			
				<rect id="XMLID_135675_" x="169.8" y="394.3" transform="matrix(0.9992 4.010340e-002 -4.010340e-002 0.9992 16.0579 -8.1034)" class="st10" width="80.5" height="3.8"/>
			
				<rect id="XMLID_135674_" x="169.4" y="402.8" transform="matrix(0.9992 4.010340e-002 -4.010340e-002 0.9992 16.3968 -8.0829)" class="st10" width="80.5" height="3.8"/>
			
				<rect id="XMLID_135673_" x="168.1" y="435.9" transform="matrix(0.9992 4.010341e-002 -4.010341e-002 0.9992 17.7237 -8.003)" class="st10" width="80.5" height="3.8"/>
			
				<rect id="XMLID_135672_" x="167.8" y="444.3" transform="matrix(0.9992 4.010340e-002 -4.010340e-002 0.9992 18.0626 -7.9826)" class="st10" width="80.5" height="3.8"/>
			
				<rect id="XMLID_135671_" x="167.4" y="452.8" transform="matrix(0.9992 4.010340e-002 -4.010340e-002 0.9992 18.4015 -7.9622)" class="st10" width="80.5" height="3.8"/>
			<path id="XMLID_136254_" class="st10" d="M150.1,380.3l-1,24.7l-24.7-1l1-24.7L150.1,380.3 M154.4,376.3l-4.2-0.2l-24.7-1
				l-4.2-0.2l-0.2,4.2l-1,24.7l-0.2,4.2l4.2,0.2l24.7,1l4.2,0.2l0.2-4.2l1-24.7L154.4,376.3L154.4,376.3z"/>
			<path id="XMLID_135697_" class="st10" d="M148.2,336.6l-2.4-2.7c-0.2-0.3-0.6-0.3-0.9,0l-10.4,9.3l-5-5.3
				c-0.2-0.3-0.6-0.3-0.9-0.1l-2.7,2.4c-0.3,0.2-0.3,0.6-0.1,0.9l7.9,8.4c0.2,0.3,0.6,0.3,0.9,0.1l1.9-1.7c0,0,0,0,0,0l0.3-0.3
				l0.5-0.4c0,0,0,0,0,0l10.8-9.7C148.4,337.2,148.4,336.8,148.2,336.6z"/>
			
				<rect id="XMLID_135696_" x="170.1" y="334.6" transform="matrix(0.9992 4.010340e-002 -4.010340e-002 0.9992 13.6662 -8.165)" class="st10" width="80.5" height="3.8"/>
			
				<rect id="XMLID_135695_" x="169.8" y="343.1" transform="matrix(0.9992 4.010340e-002 -4.010340e-002 0.9992 14.0051 -8.1445)" class="st10" width="80.5" height="3.8"/>
			
				<rect id="XMLID_135692_" x="169.4" y="351.6" transform="matrix(0.9992 4.010340e-002 -4.010340e-002 0.9992 14.344 -8.1241)" class="st10" width="80.5" height="3.8"/>
			<path id="XMLID_135689_" class="st10" d="M150.1,329.1l-1,24.7l-24.7-1l1-24.7L150.1,329.1 M154.4,325.1l-4.2-0.2l-24.7-1
				l-4.2-0.2l-0.2,4.2l-1,24.7l-0.2,4.2l4.2,0.2l24.7,1l4.2,0.2l0.2-4.2l1-24.7L154.4,325.1L154.4,325.1z"/>
			<path id="XMLID_135667_" class="st10" d="M146.2,437.8l-2.4-2.7c-0.2-0.3-0.6-0.3-0.9,0l-10.4,9.3l-5-5.3
				c-0.2-0.3-0.6-0.3-0.9-0.1l-2.7,2.4c-0.3,0.2-0.3,0.6-0.1,0.9l7.9,8.4c0.2,0.3,0.6,0.3,0.9,0.1l1.9-1.7c0,0,0,0,0,0l0.3-0.3
				l0.5-0.4c0,0,0,0,0,0l10.8-9.7C146.4,438.5,146.4,438.1,146.2,437.8z"/>
			<path id="XMLID_136250_" class="st10" d="M148,430.3l-1,24.7l-24.7-1l1-24.7L148,430.3 M152.4,426.3l-4.2-0.2l-24.7-1l-4.2-0.2
				l-0.2,4.2l-1,24.7L118,458l4.2,0.2l24.7,1l4.2,0.2l0.2-4.2l1-24.7L152.4,426.3L152.4,426.3z"/>
		</g>
		<path id="XMLID_135664_" class="st6" d="M90.6,463.4c1.9-1.9,8.8-10.1,11.9-19.1l6.7-18.2c0,0,2.5-6,9.2-6.4c0.3,0,0.6,0,0.9,0
			c1.8,0.3,7.8,1.6,10.5,7.3c0.3,0.6,0.5,1.3,0.5,2.1c0,1.6-0.5,4.9-2.8,10.6l-17.9,49.7c0,0-5.1,12.3-10.9,19.7
			c-0.1,0.1-0.2,0.2-0.3,0.3c-0.8,1.2-5.2,7.9-8.1,10.7c-0.5,0.5-0.8,1-1.1,1.6l-3,7.4c-0.1,0.1-0.2,0.2-0.3,0.1l-39.3-15.9l1.8-4.3
			c0.4-1,0.5-2.2,0.1-3.3L43,489.4l28.2-17.3c0.6-0.4,1.4-0.9,2.1-1.3C73.9,470.5,77.7,476.5,90.6,463.4z"/>
		<path id="XMLID_135663_" class="st11" d="M122.3,438.6l-9.9-4.2c-0.8-0.4-1.2-1.3-0.8-2.2l2.4-5.3c0,0,2.2-4.1,7.9-2.5
			c0,0,4.7,1.5,5.1,6.4c0,0,0,2-1.7,5.2l-0.7,1.7C124.1,438.6,123.1,438.9,122.3,438.6z"/>
		<polygon id="XMLID_135662_" class="st8" points="85.1,558.9 68.5,600 0,600 26.2,535.1 53.6,546.1 85,558.8 		"/>
		<polygon id="XMLID_135661_" class="st9" points="85,558.8 68.4,600 31.8,600 53.6,546.1 		"/>
		<path id="XMLID_135660_" class="st12" d="M28.4,537.7l53.4,21.6c3.5,1.4,7.4-0.3,8.8-3.7l6.8-16.7c1.4-3.5-0.3-7.4-3.7-8.8
			l-53.4-21.6c-3.5-1.4-7.4,0.3-8.8,3.7l-6.8,16.7C23.2,532.3,24.9,536.3,28.4,537.7z"/>
		<path id="XMLID_135659_" class="st13" d="M246.6,407.3c0,0-19.6-2.3-20-1.5c-0.4,0.8,13.8,16.1,13.8,16.1l4.7-6L246.6,407.3z"/>
		<path id="XMLID_135658_" class="st14" d="M234,406.1c0,0-7.5-0.9-7.6-0.5c-0.2,0.5,4.8,6,4.8,6L234,406.1z"/>
		<path id="XMLID_135657_" class="st15" d="M246.5,407.2l85.3,36.8l-6.2,14.2l-85.3-36.4c0,0-0.8-2.3,1.3-2.8c0,0-1.3-2,1.3-2.8
			c0,0-1.2-2,1.3-3.3c0,0-1.2-1.9,1-2.7C245.2,410.2,244.2,408.8,246.5,407.2z"/>
		<path id="XMLID_135656_" class="st6" d="M287.2,454.6c-1.9-1.5-9.1-8.2-12.9-16l-8.1-15.8c0,0-3-5.2-9.1-4.8
			c-0.3,0-0.6,0.1-0.8,0.1c-1.6,0.4-6.9,2.3-8.8,7.8c-0.2,0.6-0.3,1.3-0.2,1.9c0.2,1.5,0.9,4.4,3.7,9.3l21.8,43.2
			c0,0,6,10.6,12.1,16.7c0.1,0.1,0.2,0.2,0.3,0.3c0.8,1,5.6,6.6,8.5,8.8c0.5,0.4,0.9,0.8,1.2,1.3l3.6,6.4c0.1,0.1,0.2,0.1,0.3,0.1
			l34-18.8l-2.1-3.7c-0.5-0.9-0.7-2-0.4-3l3.3-15.4l-27.6-12.6c-0.6-0.3-1.4-0.7-2.1-1C303.2,459.2,300.3,465.1,287.2,454.6z"/>
		<path id="XMLID_135655_" class="st11" d="M255.6,435.5l8.5-4.9c0.7-0.4,1-1.4,0.5-2.1l-2.8-4.6c0,0-2.4-3.5-7.4-1.4
			c0,0-4.1,1.9-3.9,6.4c0,0,0.2,1.8,2.2,4.6l0.9,1.5C254,435.7,254.9,435.9,255.6,435.5z"/>
		<path id="XMLID_135654_" class="st16" d="M341.1,448l-12-5.1l-6.1,14.2l12,5.1c4.3,1.8,9.2,0.1,10.9-3.8v0
			C347.5,454.6,345.4,449.8,341.1,448z"/>
		<path id="XMLID_135653_" class="st12" d="M352,515.3l-46.3,25.5c-3,1.6-6.8,0.6-8.4-2.4l-8-14.5c-1.6-3-0.6-6.8,2.4-8.4L338,490
			c3-1.6,6.8-0.6,8.4,2.4l8,14.5C356.1,509.9,355,513.7,352,515.3z"/>
		<path id="XMLID_135652_" class="st17" d="M80.7,160.5l-1.4-0.5l0.6-1.5c0,0,0-0.1,0-0.1l0.7-1.1c0.3-0.4,1-0.1,0.9,0.3l-0.2,1.2
			c0,0,0,0.1,0,0.1L80.7,160.5L80.7,160.5z"/>
		<path id="XMLID_135651_" class="st17" d="M49.4,258.6c-0.4-0.1-5-1.6-5-2.6c0-1.2,3-2.4,4-5.6c1-3.1,3.5,2.2,5.2-1.6
			c3.7-8.2,8.8-22.2,8.4-23.1c-0.3-0.7,0.4-2.2,0.8-3.2c0.2-0.4,0.5-0.4,0.6-0.3c1,0.4,1.4,1,0.2,5c-1.4,4.8-4.7,13.3-6.3,17.6
			C53.1,255.9,50.7,259.1,49.4,258.6z"/>
		<path id="XMLID_135650_" class="st17" d="M39.2,258.5l6.9-0.5c5.1-10,11.7-25.1,18.4-42.4c9.4-24.5,16.1-45.9,17.1-54.6
			c0-0.7-0.3-0.8-0.3-0.8l-2.3-0.9c0,0-0.3-0.1-0.8,0.4c-5,7.1-14.4,27.5-23.9,52c-7.1,18.3-12.5,34.9-15.3,45.8
			C38.6,258.6,39.2,258.5,39.2,258.5z"/>
		<path id="XMLID_135649_" class="st18" d="M81.2,160.3l-2.3-0.9c0,0-0.3-0.1-0.8,0.4c-2.4,3.5-5.9,10.1-10,18.8
			c1.4,0.5,2.7,1.1,4.1,1.6s2.8,1.1,4.1,1.6c2.8-9.2,4.7-16.4,5.2-20.7C81.5,160.4,81.2,160.3,81.2,160.3z"/>
		<path id="XMLID_135648_" class="st18" d="M47.8,229c-0.4,1-0.7,2-1,3l9.6,3.7c0.4-1,0.8-1.9,1.2-2.9L47.8,229z"/>
		<path id="XMLID_135647_" class="st18" d="M41.6,266.9l5.1-11.1l-5.7-2.2l-3.7,11.7c-0.7,2.2-0.5,4.3,0.7,4.7
			C39.2,270.4,40.7,269,41.6,266.9z"/>
		<path id="XMLID_135646_" class="st17" d="M46.1,258c3-5.9,6.5-13.6,10.3-22.4l-9.6-3.7c-3.5,10.1-6.2,18.9-7.9,25.5
			c-0.3,1.1,0.3,1,0.3,1L46.1,258z"/>
		
			<linearGradient id="XMLID_114_" gradientUnits="userSpaceOnUse" x1="3241.9863" y1="1439.823" x2="3245.311" y2="1439.823" gradientTransform="matrix(-0.3591 0.9333 -0.9333 -0.3591 2561.8872 -2280.9653)">
			<stop  offset="0.1966" style="stop-color:#FFFFFF"/>
			<stop  offset="1" style="stop-color:#E6E6E6"/>
		</linearGradient>
		<path id="XMLID_135645_" class="st19" d="M48.9,225.8c-0.4,1.1-0.7,2.1-1.1,3.1l9.8,3.8c0.4-1,0.8-2,1.3-3.1L48.9,225.8z"/>
		<path id="XMLID_135644_" class="st8" d="M471.2,319.9v127.2l-66.9,23.4c-2.3,0.8-4.8-0.4-5.6-2.7l-54.2-155.2
			c-0.8-2.3,0.4-4.8,2.7-5.6l102.4-35.8c2.3-0.8,4.8,0.4,5.6,2.7L471.2,319.9z"/>
		<polygon id="XMLID_135643_" class="st1" points="471.2,333.3 471.2,439.4 401.7,463.6 351.3,319.3 373.9,311.4 375.3,311 
			427.3,292.8 428.7,292.3 453.8,283.5 		"/>
		
			<rect id="XMLID_135642_" x="389.9" y="332.6" transform="matrix(0.944 -0.3299 0.3299 0.944 -86.5408 158.2572)" class="st20" width="66.4" height="3"/>
		
			<rect id="XMLID_135641_" x="375.4" y="343.5" transform="matrix(0.944 -0.3299 0.3299 0.944 -90.4497 157.0231)" class="st20" width="84.2" height="3"/>
		
			<rect id="XMLID_135640_" x="378.2" y="351.5" transform="matrix(0.944 -0.3299 0.3299 0.944 -92.9242 158.3887)" class="st20" width="84.2" height="3"/>
		
			<rect id="XMLID_135639_" x="383.8" y="367.4" transform="matrix(0.944 -0.3299 0.3299 0.944 -97.8732 161.1196)" class="st20" width="84.2" height="3"/>
		
			<rect id="XMLID_135638_" x="386.5" y="375.4" transform="matrix(0.944 -0.3299 0.3299 0.944 -100.3477 162.485)" class="st20" width="84.2" height="3"/>
		<polygon id="XMLID_135637_" class="st20" points="471.2,371.2 471.2,372.6 392.2,400.2 391.2,397.4 470.6,369.6 		"/>
		<polygon id="XMLID_135636_" class="st20" points="471.2,378.4 471.2,381.6 395,408.2 394,405.3 		"/>
		<polygon id="XMLID_135635_" class="st20" points="471.2,387.3 471.2,390.5 397.8,416.2 396.8,413.3 		"/>
		<polygon id="XMLID_135634_" class="st20" points="471.2,405.2 471.2,408.4 420.1,426.3 419.1,423.4 		"/>
		<polygon id="XMLID_135633_" class="st20" points="471.2,414.1 471.2,417.4 406.1,440.1 405.1,437.2 		"/>
		<polygon id="XMLID_135632_" class="st20" points="471.2,423.1 471.2,426.3 408.9,448.1 407.9,445.2 		"/>
		
			<rect id="XMLID_135631_" x="375.3" y="290.4" transform="matrix(0.944 -0.3299 0.3299 0.944 -75.1363 148.1732)" class="st21" width="47.4" height="10.2"/>
		<path id="XMLID_135901_" class="st22" d="M423.3,288c1.2-0.4,2.4,0.2,2.9,1.4l1.8,5.3c0.4,1.2-0.2,2.4-1.4,2.9l-47.9,16.7
			c-1.2,0.4-2.4-0.2-2.9-1.4l-1.8-5.3c-0.4-1.2,0.2-2.4,1.4-2.9L423.3,288L423.3,288z M422.8,286.6L375,303.4
			c-1.9,0.7-2.9,2.8-2.3,4.7l1.8,5.3c0.7,1.9,2.8,2.9,4.7,2.3l47.9-16.7c1.9-0.7,2.9-2.8,2.3-4.7l-1.8-5.3
			C426.8,287,424.7,286,422.8,286.6L422.8,286.6z"/>
		
			<rect id="XMLID_135628_" x="374.2" y="294" transform="matrix(0.944 -0.3299 0.3299 0.944 -75.1573 148.1696)" class="st23" width="49.7" height="3"/>
		
			<rect id="XMLID_135627_" x="374.4" y="295.5" transform="matrix(0.944 -0.3299 0.3299 0.944 -75.3722 148.2883)" class="st24" width="49.7" height="1.6"/>
		<g id="XMLID_135879_">
			
				<ellipse id="XMLID_135626_" transform="matrix(0.9792 0.2028 -0.2028 0.9792 42.3905 -54.7049)" class="st25" cx="288.1" cy="179.5" rx="3.5" ry="1"/>
			
				<ellipse id="XMLID_135625_" transform="matrix(0.8764 0.4816 -0.4816 0.8764 151.9717 -159.6683)" class="st25" cx="387" cy="216.2" rx="3.3" ry="0.9"/>
			<path id="XMLID_135624_" class="st26" d="M394.3,214.6L315,200.1c-1.5-0.3-3-0.3-4.5,0l-28.5,5.7c-1.3,0.3-2.3,1.2-2.6,2.4
				c-0.3,1.1,0,2.6,2.4,3.3c0.9,0.3,2.2,0.1,3.1-0.1l24.1-7.1c1.9-0.6,4-0.6,5.9-0.2l77.1,17.4L394.3,214.6z"/>
			<path id="XMLID_135623_" class="st26" d="M285.9,174.8l70.5,39.1c1.3,0.7,2.5,1.7,3.4,2.9l18.4,22.5c0.8,1,1,2.4,0.5,3.5
				c-0.5,1-1.7,2-3.9,1c-0.9-0.3-1.8-1.3-2.3-2.1l-14.1-20.7c-1.1-1.7-2.7-3-4.5-3.9l-70.6-35.5L285.9,174.8z"/>
			<path id="XMLID_135890_" class="st26" d="M388.3,222.7c0.8-0.7,3.3,0.3,4.1-0.4c1.4-1.2,2.2-5.9,2.1-7.3c-0.2-2.2-3-0.5-8.2-5.3
				c-14.3-13.2-39.5-14.5-39.5-14.5c-1.4-1.3-3.6-2.5-6.1-3.4c-2.4-0.9-4.9-1.4-6.8-1.4c0,0-20-15.4-39.5-14.7
				c-7.1,0.3-8.1-2.9-9.7-1.3c-1,1-3.5,5.1-3.2,6.9c0.2,1,2.8,1.9,2.9,2.9c0.7,6.2-6,16,5,24.5c11.1,8.5,26.9,9.8,34.3,1.9
				c5.6-6.6,8.1-13.8,13.7-11.8c0.2,0.1,0.4,0.1,0.5,0.2c0.2,0.1,0.3,0.1,0.5,0.2c5.5,2.1,2.7,9.2,2.7,17.9
				c0.5,10.8,13.4,20.1,27.3,20.9C382.4,238.8,383.8,227,388.3,222.7z M301.1,211.5c-1.5-0.6-3-1.2-4.5-1.9
				c-1.3-0.6-2.5-1.3-3.6-2.1c-0.5-0.4-1-0.7-1.5-1.1c-1.8-1.5-3.2-3.2-4.1-5.3c-0.5-1.2-0.7-2.6-0.7-4.1c0-2.8,0.7-5.8,1.5-8.1
				c1.3-3.6,2.7-6.3,6-8c2.9-1.5,6.5-1.4,10.2-0.6c2.5,0.5,5,1.4,7.4,2.3c1.1,0.4,2.2,0.9,3.4,1.4c0.6,0.2,1.1,0.5,1.7,0.8
				c1.1,0.6,2.3,1.2,3.3,1.8c4.3,2.6,7.9,6,8.6,9.9c0.3,1.5-2,5.3-2.9,7C321.4,211.5,311.4,215.3,301.1,211.5z M357.9,232.6
				c-1.7-0.6-3.3-1.4-4.8-2.4c-1.2-0.8-2.2-1.6-3.2-2.5c-0.4-0.4-0.8-0.8-1.1-1.2c-2.5-2.8-4.1-6.1-4.6-9.5
				c-0.4-2.2-0.4-4.5,0.1-6.8c0.4-1.9,1.2-6.2,2.3-7.2c3.3-2.7,8.7-2.7,14.1-1.7c2.7,0.5,5.4,1.3,7.9,2.2c1,0.4,2.1,0.8,3.1,1.2
				c0.6,0.2,1.2,0.5,1.8,0.8c1.2,0.5,2.3,1.1,3.4,1.8c2.8,1.7,5.1,3.8,6.1,6.4c1.4,3.5,0.7,6.5-0.7,10c-1.3,3.6-4,8.1-7.4,9.8
				C370.2,236.1,363.9,234.8,357.9,232.6z"/>
			<path id="XMLID_135619_" class="st27" d="M328.8,196.4c-1.2-6.3-9.7-11.2-17-13.9c-6.1-2.2-12.7-4.2-17.5-1.7
				c-3.4,1.8-4.7,4.5-6,8c-1.3,3.6-2.2,8.7-0.8,12.2c2,5,7.6,8.2,13.6,10.4c10.3,3.8,20.4,0,24.8-8.1
				C326.8,201.7,329.1,197.9,328.8,196.4z"/>
			<path id="XMLID_135618_" class="st27" d="M382.4,223.7c1.3-3.6,2.1-6.5,0.7-10c-2-5-8.4-7.9-14.4-10.2c-7.3-2.7-17-4.5-22-0.5
				c-1.2,1-2,5.3-2.4,7.2c-1.9,9.1,3.3,18.6,13.6,22.4c6.1,2.2,12.3,3.5,17.2,1C378.4,231.8,381.1,227.3,382.4,223.7z"/>
			<path id="XMLID_135617_" class="st28" d="M291.5,206.4c-1.8-1.5-3.2-3.2-4.1-5.3c-0.5-1.2-0.7-2.6-0.7-4.1l17.7-16.8
				c2.5,0.5,5,1.4,7.4,2.3c1.1,0.4,2.2,0.9,3.4,1.4L291.5,206.4z"/>
			<path id="XMLID_135616_" class="st28" d="M296.6,209.6c-1.3-0.6-2.5-1.3-3.6-2.1l23.8-22.9c1.1,0.6,2.3,1.2,3.3,1.8L296.6,209.6z
				"/>
			<path id="XMLID_135615_" class="st28" d="M348.8,226.5c-2.5-2.8-4.1-6.1-4.6-9.5l16.6-15.7c2.7,0.5,5.4,1.3,7.9,2.2
				c1,0.4,2.1,0.8,3.1,1.2L348.8,226.5z"/>
			<path id="XMLID_135614_" class="st28" d="M353.1,230.2c-1.2-0.8-2.2-1.6-3.2-2.5l23.5-22.2c1.2,0.5,2.3,1.1,3.4,1.8L353.1,230.2z
				"/>
		</g>
		<g id="XMLID_135875_">
			<path id="XMLID_135613_" class="st29" d="M233.5,193.9c0,2.5-0.2,5-0.5,7.4c-3.6,24.6-24.7,43.5-50.3,43.5c-0.7,0-1.5,0-2.2,0
				c-27.1-1.1-48.7-23.5-48.7-50.8c0-28.1,22.8-50.9,50.9-50.9C210.8,143.1,233.5,165.8,233.5,193.9z"/>
			<path id="XMLID_135876_" class="st1" d="M182.7,141.6c-28.8,0-52.3,23.5-52.3,52.3c0,28.1,22,51.1,50.1,52.3c0.5,0,1.1,0,1.6,0
				l-1.5-1.5l-1.5-1.5c-25.8-1.9-45.8-23.2-45.8-49.3c0-27.2,22.2-49.4,49.4-49.4c27.2,0,49.4,22.2,49.4,49.4c0,2-0.1,4-0.4,5.9
				l1.3,1.3l1.3,1.3c0.1-0.3,0.1-0.6,0.1-0.9c0.4-2.5,0.6-5.1,0.6-7.6C235,165.1,211.5,141.6,182.7,141.6z"/>
		</g>
		<path id="XMLID_135611_" class="st30" d="M234.3,202.4c-4.1,25-26.1,43.8-51.6,43.8c-0.2,0-0.4,0-0.6,0l-1.5-1.5l-1.5-1.5
			c0.5,0,1,0.1,1.5,0.1c0.7,0,1.4,0,2.1,0c24.4,0,45.4-18.1,48.9-42.2c0.1-0.4,0.1-0.8,0.2-1.2l1.3,1.3L234.3,202.4z"/>
		<path id="XMLID_135610_" class="st31" d="M231.7,199.9c0,0.4-0.1,0.8-0.2,1.2c-3.5,24.1-24.5,42.2-48.9,42.2c-0.7,0-1.4,0-2.1,0
			c-0.5,0-1,0-1.5-0.1L134.3,198l72.3-23.2L231.7,199.9z"/>
		<path id="XMLID_135609_" class="st32" d="M134.6,198h19c0,0,0,0,0,0v-7.4c0-0.3-0.2-0.5-0.5-0.5h-18.5c-1.5,0-2.7,1.2-2.7,2.7v2.6
			C132,196.8,133.2,198,134.6,198z"/>
		<circle id="XMLID_135608_" class="st32" cx="182.7" cy="193.9" r="30.5"/>
		<path id="XMLID_135607_" class="st33" d="M207.8,193.9c0,13.9-11.3,25.1-25.1,25.1c-7.9,0-14.9-3.6-19.5-9.3
			c-3.5-4.3-5.6-9.8-5.6-15.8c0-13.9,11.3-25.1,25.1-25.1c9.8,0,18.3,5.6,22.4,13.8C206.8,186,207.8,189.8,207.8,193.9z"/>
		<path id="XMLID_135606_" class="st34" d="M207.8,193.9c0,13.9-11.3,25.1-25.1,25.1c-7.9,0-14.9-3.6-19.5-9.3
			c-1.7-3.4-2.7-7.3-2.7-11.4c0-13.9,11.3-25.1,25.1-25.1c7.9,0,14.9,3.6,19.5,9.3C206.8,186,207.8,189.8,207.8,193.9z"/>
		<path id="XMLID_135712_" class="st35" d="M231.6,291.2l1.7,46.3c0,0-0.9,6.2,5.6,6.7c6.5,0.5,39.8-5.7,39.8-5.7L231.6,291.2z"/>
		<path id="XMLID_135711_" class="st36" d="M231.6,288.6l-0.7,42.7c0,0-0.9,6.2,5.6,6.7c6.5,0.5,42.2,0.7,42.2,0.7L231.6,288.6z"/>
	</g>
</g>
</svg>
