<?xml version="1.0" encoding="utf-8"?>
<!-- Generator: Adobe Illustrator 19.0.0, SVG Export Plug-In . SVG Version: 6.00 Build 0)  -->
<svg version="1.1" id="Capa_1" xmlns="http://www.w3.org/2000/svg" xmlns:xlink="http://www.w3.org/1999/xlink" x="0px" y="0px"
	 viewBox="0 0 469.8 508.6" style="enable-background:new 0 0 469.8 508.6;" xml:space="preserve">
<style type="text/css">
	.st0{fill:#FCFAFB;}
	.st1{fill:#EABA96;}
	.st2{fill:#41424D;}
	.st3{fill:#35363D;}
	.st4{fill:#DEE0E0;}
	.st5{fill:#E54A3F;}
	.st6{fill:#E5695D;}
	.st7{fill:#AACECE;}
	.st8{fill:#FFFFFF;}
	.st9{fill:#FDFFFF;}
</style>
<g id="XMLID_132422_">
	<g id="XMLID_132424_">
		<path id="XMLID_132057_" class="st0" d="M188.7,271.4v40.3c-1-1.3-1.8-2.6-2.5-3.9v-36.4c0-0.3,0-0.6,0-0.9
			c-1.3-39.2-33-70.9-72.2-70.9c-39.7,0-72.3,32.3-72.3,71.9c0,38,29.6,69.2,66.9,71.7c0,0,0.1,0,0.1,0c1.6,0.1,3.3,0.2,5.1,0.2v2.6
			c-1.8,0-3.5-0.1-5.1-0.2c0,0-0.1,0-0.1,0C69.8,343.2,39,310.9,39,271.6c0-41.1,33.8-74.5,74.8-74.5c39.4,0,72.3,30.8,74.7,69.7
			C188.6,268.3,188.7,269.8,188.7,271.4z"/>
	</g>
	<circle id="XMLID_132056_" class="st0" cx="113.5" cy="344.7" r="5.2"/>
</g>
<g id="XMLID_132420_">
	<rect id="XMLID_132055_" x="213.7" y="56.4" class="st0" width="2.6" height="208.6"/>
</g>
<g id="XMLID_132416_">
	<g id="XMLID_132418_">
		<rect id="XMLID_132054_" x="238.8" y="142" class="st0" width="2.6" height="135.9"/>
	</g>
	<circle id="XMLID_132053_" class="st0" cx="240.8" cy="140" r="5.2"/>
</g>
<g id="XMLID_132414_">
	<path id="XMLID_132052_" class="st0" d="M199.3,302.6V315c-1.2-0.4-2.3-0.8-3.5-1.3v-11.1c0-13.3-8.9-25.1-22-33.1
		c-0.4-0.2-0.7-0.4-1.1-0.6c-1.4-0.8-3-1.5-4.5-2.2c-4.6-2.2-9.8-4-15.2-5.2c-1.2-0.3-2.4-0.9-3.6-1.1c-4.7-0.9-9.8-1.7-14.9-1.7
		h-34c-1.1,0-2.2,0.4-3.2,0.4c-3.2-0.1-6.4-0.2-9.5-0.7c-1.4-0.2-2.8-0.4-4.3-0.7c-3-0.6-5.8-1.3-8.6-2.2c-1.2-0.4-2.4-0.8-3.6-1.2
		C51.6,246.6,38,231.7,38,214.5V70.2l3.5-1.7v146c0,15.7,12,29.4,29.8,36.7c1.2,0.5,2.4,0.9,3.6,1.3c2.8,1,5.6,1.8,8.6,2.4
		c1.4,0.3,2.8,0.6,4.3,0.8c3.1,0.5,6.3,0.4,9.5,0.5c1.1,0,2.2-0.3,3.3-0.3h34.6c4.9,0,9.6,0.9,14.2,1.7c1.2,0.2,2.4,0.6,3.6,0.9
		c5.4,1.2,10.4,2.9,15.1,5c1.5,0.6,3.4,1.4,4.8,2.1c0.6,0.3,1.2,0.7,1.9,1C189.4,275.1,199.3,288.1,199.3,302.6z"/>
</g>
<g id="XMLID_132412_">
	<path id="XMLID_132051_" class="st0" d="M395.4,81.2v128.9c0,17.2-13.6,32.1-33.3,39.6c-1.2,0.4-2.4,0.8-3.6,1.2
		c-2.8,0.9-5.6,1.6-8.6,2.2c-1.4,0.3-2.8,0.4-4.3,0.6c-3.1,0.5-6.3,0.5-9.5,0.6c-1.1,0-2.1-0.4-3.2-0.4h-34
		c-5.1,0-10.1,0.9-14.9,1.8c-1.2,0.2-2.4,0.9-3.6,1.2c-5.4,1.2-10.6,3-15.2,5.2c-1.5,0.7-3.1,1.5-4.5,2.2c-3.1,1.8-5.9,3.8-8.5,6
		c-8.9,7.5-14.5,17.2-14.5,27.8v24c-1.2,0.6-2.3,1.2-3.6,1.8v-25.8c0-11.6,6.4-22.3,16.5-30.4c3.1-2.5,6.5-4.7,10.2-6.6
		c1.4-0.7,3.3-1.5,4.8-2.1c4.7-2.1,9.7-3.8,15.1-5c1.2-0.3,2.4-0.7,3.6-0.9c4.6-0.8,9.3-1.7,14.2-1.7h34.6c1.1,0,2.2,0.4,3.3,0.4
		c3.2-0.1,6.4,0,9.5-0.5c1.4-0.2,2.9-0.5,4.3-0.8c3-0.6,5.9-1.5,8.6-2.4c1.2-0.4,2.4-0.9,3.5-1.3c17.7-7.3,29.8-21,29.8-36.7V81.2
		H395.4z"/>
</g>
<g id="XMLID_132408_">
	<g id="XMLID_132410_">
		<path id="XMLID_132050_" class="st0" d="M324.1,132.7v68.6c0,15.7-13.1,27.7-28.8,27.7h-20.3c-2.8,0-5.6,0.9-8.1,1.8
			c-0.9,0.3-1.7,0.9-2.6,1.2c-4.1,1.9-7.6,5.1-10.2,8.8c-0.6,0.8-1,1.7-1.4,2.6c-1.8,3.5-2.8,7.5-2.8,11.7v56
			c-1.3,1.8-2.6,3.5-4.2,5.1v-61c0-4.1,1.4-8.1,3-11.6c0.4-0.9,1.1-1.7,1.6-2.5c3.1-5.4,8.1-9.6,13.9-12c0.8-0.3,1.7-0.8,2.6-1.1
			c2.6-0.8,5.3-1.4,8.2-1.4h20.3c14,0,26.3-11.1,26.3-25.1v-68.6H324.1z"/>
	</g>
	<circle id="XMLID_132049_" class="st0" cx="322.6" cy="131.6" r="5.2"/>
</g>
<g id="XMLID_132404_">
	<g id="XMLID_132406_">
		<path id="XMLID_132048_" class="st0" d="M424.4,307.4l-60.6-32.2c-13.9-7.4-30.5-1.4-37.9,12.4l-9.5,17.9
			c-1.3,2.5-3.4,4.5-5.4,6.3c-0.7,0.6-1.6,1.1-2.3,1.7c-3.6,2.7-8.1,4.4-12.6,4.9c-1,0.1-2,0.1-3,0.1c-3.9,0-7.9-1.1-11.6-3
			l-49.4-26.3c-2.2,0.3-4.3,0.7-6.5,1.4l53.9,28.7c3.7,1.9,7.8,2.6,11.7,2.8c1,0.1,2-0.2,3-0.2c6.2-0.2,12.3-2.6,17.1-6.6
			c0.7-0.6,1.6-1.1,2.2-1.8c1.9-1.9,3.7-4.1,5.1-6.6l9.5-17.9c6.6-12.4,22.1-18,34.5-11.4l60.6,32.2L424.4,307.4z"/>
	</g>
	<circle id="XMLID_132047_" class="st0" cx="424.6" cy="309.3" r="5.2"/>
</g>
<g id="XMLID_132400_">
	<g id="XMLID_132402_">
		<path id="XMLID_132046_" class="st0" d="M194.3,203.5v114.3c-1-0.8-1.8-1.6-2.5-2.4V203.5c0-10.1-6-18.9-14.6-22.9
			c-0.8-0.4-1.6-0.7-2.5-1c-2.2-0.7-4.4-0.7-6.8-0.8c-0.4,0-0.8,0.4-1.1,0.4h-20.3c-1.3,0-2.6-0.5-3.8-0.7c-1.4-0.2-3.3-0.7-4.7-1.1
			c-11.9-3.4-21.2-14.6-21.2-27.6V82.9h3.5v66.9c0,11.3,7.8,20.9,18,24.2c1.3,0.4,2.9,1,4.3,1.3c1.2,0.2,2.7,0.6,4,0.6h20.3
			c0.4,0,0.8-0.3,1.2-0.3c2.4,0.1,4.6,0.3,6.8,1c0.9,0.3,1.7,0.5,2.5,0.8c8.8,3.5,15.1,11.4,16.9,21
			C194.4,200,194.3,201.7,194.3,203.5z"/>
	</g>
	<circle id="XMLID_132045_" class="st0" cx="119.3" cy="81.7" r="5.2"/>
</g>
<path id="XMLID_132044_" class="st0" d="M257,289.1c0,8.1-2.5,15.6-6.9,21.8c-1.3,1.8-2.7,3.5-4.3,5.1c-2.5,2.4-5.2,4.6-8.3,6.3
	c-1.2,0.6-2.3,1.2-3.6,1.8c-4.6,2-9.6,3.1-14.9,3.1c-3.9,0-7.7-0.6-11.2-1.7c-1.2-0.4-2.4-0.8-3.6-1.3c-3.7-1.6-7.1-3.7-10-6.3
	c-0.9-0.8-1.7-1.6-2.6-2.4c-1.1-1.1-2.1-2.4-3.1-3.6c-0.9-1.3-1.8-2.6-2.6-3.9c-3.1-5.5-4.9-11.9-4.9-18.7c0-3.2,0.4-6.3,1.1-9.2
	c0.2-1,0.5-1.9,0.8-2.8c0.8-2.3,1.7-4.5,2.9-6.5c0.7-1.3,1.6-2.6,2.4-3.8c1-1.3,2.1-2.6,3.2-3.8c0.8-0.9,1.7-1.7,2.6-2.4
	c6.6-5.8,15.3-9.3,24.8-9.3c10.4,0,19.9,4.2,26.8,11.1c1.6,1.6,3,3.2,4.3,5.1c0.1,0.2,0.2,0.3,0.4,0.5c0.6,0.8,1.1,1.7,1.6,2.6
	C255.2,276,257,282.4,257,289.1z"/>
<path id="XMLID_132043_" class="st0" d="M78.7,39.3c0,8.4-2.6,16.2-7.1,22.6c-1.3,1.9-2.8,3.6-4.4,5.2c-2.5,2.5-5.4,4.7-8.6,6.5
	c-1.2,0.7-2.4,1.3-3.7,1.8c-4.8,2-10,3.2-15.5,3.2c-4.1,0-8-0.6-11.6-1.7c-1.3-0.4-2.5-0.8-3.7-1.4c-3.8-1.6-7.3-3.8-10.4-6.5
	c-0.9-0.8-1.8-1.6-2.7-2.5c-1.1-1.2-2.2-2.4-3.2-3.8c-1-1.3-1.9-2.7-2.7-4.1C1.8,53,0,46.4,0,39.3c0-3.3,0.4-6.5,1.2-9.6
	c0.3-1,0.5-2,0.9-2.9c0.8-2.4,1.8-4.6,3-6.8c0.8-1.4,1.6-2.7,2.5-3.9c1-1.4,2.1-2.7,3.3-4c0.8-0.9,1.7-1.7,2.7-2.5
	C20.5,3.6,29.5,0,39.3,0C50.2,0,60,4.4,67.1,11.5c1.6,1.6,3.1,3.4,4.4,5.2c0.1,0.2,0.2,0.4,0.4,0.5c0.6,0.9,1.2,1.8,1.7,2.7
	C76.8,25.7,78.7,32.3,78.7,39.3z"/>
<path id="XMLID_132042_" class="st0" d="M434.9,70.9c0,8.4-2.7,16.3-7.2,22.7c-1.3,1.9-2.8,3.6-4.4,5.3c-2.6,2.5-5.4,4.7-8.6,6.5
	c-1.2,0.7-2.4,1.3-3.7,1.8c-4.8,2-10,3.2-15.5,3.2c-4.1,0-8-0.6-11.7-1.8c-1.3-0.4-2.5-0.8-3.7-1.4c-3.8-1.6-7.4-3.8-10.5-6.5
	c-0.9-0.8-1.8-1.6-2.7-2.5c-1.1-1.2-2.2-2.4-3.2-3.8c-1-1.3-1.9-2.7-2.7-4.1c-3.3-5.7-5.1-12.4-5.1-19.4c0-3.3,0.4-6.5,1.2-9.6
	c0.3-1,0.5-2,0.9-3c0.8-2.4,1.8-4.6,3-6.8c0.8-1.4,1.6-2.7,2.5-3.9c1-1.4,2.1-2.7,3.3-4c0.8-0.9,1.7-1.7,2.7-2.5
	c6.9-6,16-9.6,25.8-9.6c10.9,0,20.7,4.4,27.8,11.5c1.6,1.6,3.1,3.4,4.4,5.3c0.1,0.2,0.3,0.4,0.4,0.5c0.6,0.9,1.2,1.8,1.7,2.7
	C433,57.2,434.9,63.8,434.9,70.9z"/>
<path id="XMLID_132041_" class="st0" d="M353.3,126.4c0,6.6-2.1,12.6-5.6,17.6c-1,1.5-2.2,2.8-3.4,4.1c-2,2-4.2,3.7-6.7,5.1
	c-0.9,0.5-1.9,1-2.9,1.4c-3.7,1.6-7.8,2.5-12.1,2.5c-3.2,0-6.2-0.5-9.1-1.4c-1-0.3-1.9-0.7-2.9-1.1c-3-1.3-5.7-3-8.1-5.1
	c-0.7-0.6-1.4-1.3-2.1-2c-0.9-0.9-1.7-1.9-2.5-2.9c-0.8-1-1.4-2.1-2.1-3.2c-2.5-4.5-4-9.6-4-15.1c0-2.6,0.3-5.1,0.9-7.5
	c0.2-0.8,0.4-1.5,0.7-2.3c0.6-1.8,1.4-3.6,2.4-5.3c0.6-1.1,1.3-2.1,2-3c0.8-1.1,1.7-2.1,2.6-3.1c0.7-0.7,1.3-1.3,2.1-2
	c5.4-4.7,12.4-7.5,20.1-7.5c8.5,0,16.1,3.4,21.7,9c1.3,1.3,2.4,2.6,3.4,4.1c0.1,0.1,0.2,0.3,0.3,0.4c0.5,0.7,0.9,1.4,1.3,2.1
	C351.8,115.8,353.3,121,353.3,126.4z"/>
<path id="XMLID_132040_" class="st0" d="M469.8,308.1c0,8.6-2.7,16.5-7.3,23c-1.3,1.9-2.8,3.7-4.5,5.3c-2.6,2.6-5.5,4.8-8.7,6.6
	c-1.2,0.7-2.5,1.3-3.8,1.8c-4.8,2.1-10.1,3.2-15.7,3.2c-4.1,0-8.1-0.6-11.8-1.8c-1.3-0.4-2.5-0.9-3.8-1.4c-3.9-1.6-7.5-3.9-10.6-6.6
	c-0.9-0.8-1.8-1.7-2.7-2.6c-1.2-1.2-2.2-2.5-3.2-3.8c-1-1.3-1.9-2.7-2.7-4.1c-3.3-5.8-5.2-12.5-5.2-19.7c0-3.4,0.4-6.6,1.2-9.8
	c0.3-1,0.5-2,0.9-3c0.8-2.4,1.8-4.7,3.1-6.9c0.8-1.4,1.6-2.7,2.6-4c1-1.4,2.2-2.8,3.4-4c0.9-0.9,1.8-1.8,2.7-2.6
	c7-6.1,16.2-9.8,26.2-9.8c11,0,21,4.5,28.2,11.7c1.6,1.6,3.2,3.4,4.5,5.3c0.1,0.2,0.3,0.4,0.4,0.5c0.6,0.9,1.2,1.8,1.7,2.7
	C467.9,294.2,469.8,300.9,469.8,308.1z"/>
<path id="XMLID_132039_" class="st0" d="M261,132.7c0,4.2-1.3,8.1-3.6,11.3c-0.7,0.9-1.4,1.8-2.2,2.6c-1.3,1.3-2.7,2.4-4.3,3.2
	c-0.6,0.3-1.2,0.6-1.8,0.9c-2.4,1-5,1.6-7.7,1.6c-2,0-4-0.3-5.8-0.9c-0.6-0.2-1.2-0.4-1.8-0.7c-1.9-0.8-3.7-1.9-5.2-3.2
	c-0.5-0.4-0.9-0.8-1.3-1.3c-0.6-0.6-1.1-1.2-1.6-1.9c-0.5-0.6-0.9-1.3-1.3-2c-1.6-2.9-2.5-6.1-2.5-9.7c0-1.7,0.2-3.3,0.6-4.8
	c0.1-0.5,0.3-1,0.4-1.5c0.4-1.2,0.9-2.3,1.5-3.4c0.4-0.7,0.8-1.3,1.3-2c0.5-0.7,1.1-1.4,1.7-2c0.4-0.4,0.9-0.9,1.3-1.3
	c3.4-3,7.9-4.8,12.8-4.8c5.4,0,10.3,2.2,13.9,5.7c0.8,0.8,1.5,1.7,2.2,2.6c0.1,0.1,0.1,0.2,0.2,0.3c0.3,0.4,0.6,0.9,0.8,1.3
	C260.1,125.9,261,129.2,261,132.7z"/>
<path id="XMLID_132038_" class="st0" d="M142.9,81.2c0,5.2-1.6,10-4.4,13.9c-0.8,1.2-1.7,2.2-2.7,3.2c-1.6,1.6-3.3,2.9-5.3,4
	c-0.7,0.4-1.5,0.8-2.3,1.1c-2.9,1.3-6.1,1.9-9.5,1.9c-2.5,0-4.9-0.4-7.2-1.1c-0.8-0.2-1.5-0.5-2.3-0.8c-2.4-1-4.5-2.4-6.4-4
	c-0.6-0.5-1.1-1-1.6-1.6c-0.7-0.7-1.4-1.5-2-2.3c-0.6-0.8-1.1-1.6-1.6-2.5c-2-3.5-3.1-7.6-3.1-11.9c0-2,0.3-4,0.7-5.9
	c0.2-0.6,0.3-1.2,0.5-1.8c0.5-1.5,1.1-2.9,1.9-4.2c0.5-0.8,1-1.6,1.6-2.4c0.6-0.9,1.3-1.7,2-2.4c0.5-0.5,1.1-1.1,1.6-1.6
	c4.2-3.7,9.8-5.9,15.9-5.9c6.7,0,12.7,2.7,17.1,7.1c1,1,1.9,2.1,2.7,3.2c0.1,0.1,0.2,0.2,0.2,0.3c0.4,0.5,0.7,1.1,1,1.7
	C141.8,72.8,142.9,76.9,142.9,81.2z"/>
<path id="XMLID_132037_" class="st0" d="M149.1,344.7c0,7.5-2.4,14.4-6.4,20.1c-1.2,1.7-2.5,3.2-3.9,4.7c-2.3,2.3-4.8,4.2-7.6,5.8
	c-1.1,0.6-2.2,1.1-3.3,1.6c-4.2,1.8-8.9,2.8-13.8,2.8c-3.6,0-7.1-0.5-10.4-1.6c-1.1-0.3-2.2-0.7-3.3-1.2c-3.4-1.4-6.5-3.4-9.3-5.8
	c-0.8-0.7-1.6-1.5-2.4-2.2c-1-1.1-2-2.2-2.8-3.3c-0.9-1.2-1.6-2.4-2.4-3.6c-2.9-5.1-4.5-11-4.5-17.2c0-2.9,0.4-5.8,1.1-8.5
	c0.2-0.9,0.5-1.8,0.8-2.6c0.7-2.1,1.6-4.1,2.7-6c0.7-1.2,1.4-2.4,2.2-3.5c0.9-1.2,1.9-2.4,3-3.5c0.8-0.8,1.5-1.5,2.4-2.2
	c6.1-5.3,14.2-8.6,22.9-8.6c9.6,0,18.4,3.9,24.7,10.2c1.4,1.4,2.8,3,3.9,4.7c0.1,0.2,0.2,0.3,0.3,0.5c0.5,0.8,1,1.6,1.5,2.4
	C147.4,332.6,149.1,338.4,149.1,344.7z"/>
<path id="XMLID_132036_" class="st0" d="M243.6,50.3c0,6.4-2,12.4-5.4,17.2c-1,1.4-2.1,2.8-3.4,4c-1.9,1.9-4.1,3.6-6.5,4.9
	c-0.9,0.5-1.8,1-2.8,1.4c-3.6,1.6-7.6,2.4-11.8,2.4c-3.1,0-6.1-0.5-8.9-1.3c-1-0.3-1.9-0.6-2.8-1c-2.9-1.2-5.6-2.9-7.9-5
	c-0.7-0.6-1.4-1.3-2-1.9c-0.9-0.9-1.7-1.9-2.4-2.9c-0.7-1-1.4-2-2-3.1c-2.5-4.4-3.9-9.4-3.9-14.8c0-2.5,0.3-5,0.9-7.3
	c0.2-0.8,0.4-1.5,0.7-2.2c0.6-1.8,1.4-3.5,2.3-5.2c0.6-1,1.2-2,1.9-3c0.8-1.1,1.6-2.1,2.5-3c0.6-0.7,1.3-1.3,2-1.9
	c5.3-4.6,12.1-7.3,19.6-7.3c8.3,0,15.7,3.3,21.2,8.7c1.2,1.2,2.4,2.6,3.4,4c0.1,0.1,0.2,0.3,0.3,0.4c0.5,0.7,0.9,1.4,1.3,2.1
	C242.2,39.9,243.6,45,243.6,50.3z"/>
<path id="XMLID_132035_" class="st1" d="M223.1,444.7v-6c0,0-8.9-0.9-14.8-11.7l-27.1-58.6c0,0-1.6-3.3-1.5-5.2c0,0-0.2-6.4,5.5-9.2
	c0,0,5.7-1.9,9.4,2.4c0,0,2.8,2.1,5.4,8.1l6.1,11.6l2.9,4.8l0-47.8l0.2-45.4c0,0,1.5-7.7,6.3-9.3c0,0,5.5-2,8.6,1.4
	c0,0,4.1,2.7,4.2,8.4v28.8l-0.4,54.6c0,0,0.3-20,1.5-23.1c0,0,3.2-8.1,9.7-7.3c0,0,6.7-0.3,9.4,6.5c0,0,2.6,3.2,1.3,13.5l0.1,10.6
	c0,0-0.2-17.7,0.7-19.1c0.9-1.5,2.1-6.3,9.2-6.5c0,0,6.2,0.3,8.5,6.4c0,0,0.9,0.3,0.9,6l0.3,11.7c0,0-0.4-11.7,0.4-12.7
	c0,0,2.4-6,6.7-6c0,0,4.9-1.6,7.7,3c0,0,2.7,1.8,2.5,9l-1.3,34c0,0-1.9,28.7-13.5,41l-0.1,6.2H223.1z"/>
<path id="XMLID_132034_" class="st1" d="M187.1,358c0,0-4-1.9-5.4,2.1c0,0-1.4,2,0.3,5.1l5.4,11.2c0,0,1.8,0.9,4-0.4
	c0,0,2.9-1.9,2.8-4.9c0,0,0.5-1.9-1.7-5.7C192.5,365.3,188.8,358.8,187.1,358z"/>
<ellipse id="XMLID_132033_" class="st1" cx="219.1" cy="289.1" rx="7.4" ry="7.8"/>
<polygon id="XMLID_132032_" class="st2" points="284.1,477.5 284.1,508.6 212.3,508.6 212.3,477.4 212.4,477.4 250.8,477.5 "/>
<polygon id="XMLID_132031_" class="st3" points="250.8,477.5 250.7,508.6 212.4,508.6 212.4,477.4 "/>
<path id="XMLID_132030_" class="st4" d="M280.8,479.3l-65.2-0.1c-4.2,0-7.6-3.5-7.6-7.7l0-20.4c0-4.2,3.5-7.6,7.7-7.6l65.2,0.1
	c4.2,0,7.6,3.5,7.6,7.7l0,20.4C288.4,475.9,285,479.3,280.8,479.3z"/>
<path id="XMLID_132029_" class="st5" d="M340,114l0,24.8c0,1.3-0.4,2.5-1.2,3.5c-0.4,0.5-0.8,0.9-1.3,1.3c-1,0.7-2.1,1.1-3.4,1.1
	l-23.1,0c-1.3,0-2.4-0.4-3.4-1.1c-0.5-0.4-1-0.8-1.3-1.3c-0.7-1-1.2-2.2-1.2-3.5l0-24.8c0-1.3,0.4-2.5,1.2-3.5
	c0.4-0.5,0.8-0.9,1.3-1.3c1-0.7,2.1-1.1,3.4-1.1l23.1,0c1.3,0,2.4,0.4,3.4,1.1c0.5,0.4,1,0.8,1.3,1.3C339.6,111.5,340,112.7,340,114
	z"/>
<circle id="XMLID_132028_" class="st0" cx="322.6" cy="126.4" r="10.6"/>
<polygon id="XMLID_132027_" class="st5" points="319.7,121.4 328.3,126.4 319.7,131.4 "/>
<path id="XMLID_132026_" class="st5" d="M456.8,303.9c0.3,2,0.3,3.9,0.1,5.8c-0.2,2.3-0.7,4.4-1.4,6.5c-1.2,3.3-3,6.4-5.4,9
	c-0.1,0.1-0.1,0.1-0.2,0.2c-1,1.1-2.1,2.1-3.3,3c-3.6,2.8-7.9,4.7-12.7,5.3c-4.6,0.6-9.1,0-13.1-1.6c-0.2-0.1-0.4-0.2-0.6-0.2
	c-7.4-3.1-13.2-9.5-15.4-17.5c-0.3-1.1-0.5-2.3-0.7-3.5c-0.3-2-0.3-3.9-0.1-5.8c0-0.1,0-0.2,0-0.2c0.1-0.9,0.2-1.8,0.4-2.7
	c0-0.2,0.1-0.4,0.1-0.7c0.5-2,1.1-3.9,2-5.7c0.3-0.5,0.5-1,0.8-1.5c0.9-1.5,1.9-3,3.1-4.3c0.1-0.1,0.2-0.2,0.2-0.3
	c0.3-0.3,0.6-0.6,0.9-0.9c2.1-2.2,4.7-4,7.5-5.3c0.1,0,0.2-0.1,0.3-0.1c2.4-1.1,4.9-1.8,7.6-2.2c0.6-0.1,1.2-0.1,1.8-0.2
	c0.7,0,1.4-0.1,2.1-0.1c2.5,0,4.8,0.4,7.1,1.1c0.1,0,0.3,0.1,0.4,0.1c7.1,2.2,13.1,7.4,16.2,14.3c0.5,1,0.9,2.1,1.2,3.2
	c0,0.1,0.1,0.2,0.1,0.3C456.3,301.2,456.6,302.6,456.8,303.9z"/>
<g id="map_1_">
	<path id="XMLID_132025_" class="st0" d="M454.8,296.4c-3.1-6.9-9.1-12.2-16.3-14.4c-0.9,0.1-1.8,0.4-2.6,1.1
		c-1.1,1.1-0.4,2.8-0.3,4.2c-1.6,0.3-4.5-0.1-5.3,1.5c-0.2,0.5-0.3,0.9-0.6,1.4c-0.4,0.5-0.6,0.8-1,1.4c-0.2,0.4-0.3,0.6-0.6,0.8
		c-0.1,1.6,2.9,0.4,3.9,0.3c0.9-0.1,2.7,0.1,3.4-0.4c0.4-0.3,0.4-1.1,0.8-1.3c0.6-0.3,0.9,0.6,1.2,0.9c0.7,0.7,1.2,0.8,2.1,0.8
		c0.6-0.1,1.3-0.3,1.9-0.3c0.5,0,0.8,0.2,1.2,0.3c-0.4,0.3-0.5,0.9-1,1.2c-0.7,0.3-1.9,0.4-2.6,0.5c-1,0.2-1-0.4-1.8-0.8
		c-0.9-0.6-1.4-0.5-2.4-0.4c-1.6,0.1-4.6,0.2-5.8,1.4c-0.6,0.6-0.2,1.3-0.8,1.9c-0.9,0.9-2.8,1-3.3,2.2c-0.5,1.1,0.3,3.1,0.5,4.1
		c0.4,1.5,0.6,2.8,2.2,3.2c1.5,0.4,3.3,0.2,4.9,0.3c0.8,0,1.8-0.2,2.2,0.6c0.2,0.4,0.1,1.1,0.3,1.5c0.3,1,1.1,1.3,1.9,1.9
		c0.8,0.6,0.8,1,1,2.1c0.2,1.6,0.5,2.5,1.3,3.8c0.3,0.6,0.6,1.3,0.7,2c0.2,1.2-0.1,2.3-0.9,3.1c-1,1-1.9,2.1-1,3.4
		c1,0.6,2.9-0.2,3.7-0.9c1.4-1.1,2.4-1.9,4.1-2.4c3.1-1.1,0.8-3.9,1.7-6.2c0.2-0.7,0.9-1.1,1.1-1.7c0.3-0.8,0.2-1.7,0.1-2.5
		c-0.2-1.4-0.6-2.7-0.8-4.1c-0.2-1.3,0.2-1.2,0.9-1.9c0.9-0.8,0.6-1.8,0.5-3c0-0.3-0.1-0.6-0.1-1c-0.6-0.2-1.2-0.3-1.9-0.4
		c-0.4-0.1-1.3-0.1-1.6-0.3c-0.9-0.7-1.6-3.2-1.7-4.3c2-0.7,2.2,3.2,4.3,3c2.3-0.2,2.3-1.6,1.9-3.4c-1.5,0.1-1.9,0.2-2-1.5
		c0.8-0.2,1.5,0.2,2.1,0.6c0.4,0.2,1,0.3,1.4,0.5c0.9,0.6,0.6,2,1.5,2.7c0.4,0,0.6,0.2,0.8,0.6c0.9,0.3,1.5,1.7,2.3,2.3
		c0-0.4,0-0.9,0-1.3C455.7,298.5,455.3,297.4,454.8,296.4z"/>
	<path id="XMLID_132024_" class="st0" d="M421.3,328.3c0-1.3-1.5-1.8-1.8-2.9c-0.3-1.3,0.8-2.2,1-3.3c0.1-0.6-0.1-1.5-0.1-2.1
		c0.7-0.2,1-0.4,1.5-1c0.6-0.7,1-0.9,1.7-1.4c1.2-1,1.9-2.2,1.5-3.8c-0.4-1.6-1.2-3.6-2.9-4.1c-0.8-0.2-1,0.1-1.4-0.7
		c-0.2-0.5-0.2-1.2-0.4-1.7c-0.9-0.4-2-1-3-1.3c-1-0.4-2.4-1-3.5-1c-0.6,0-1,0.1-1.5,0.4c-0.1,0.1-0.1,0.3-0.3,0.4
		c-0.2,0.1-0.7,0.1-0.9,0c-1.2-0.2-3-1.3-3.5-2.4c-0.1-0.4-0.1-0.8-0.3-1.2c-0.2-0.3-0.5-0.4-0.7-0.6c-0.5-0.6-0.8-1.4,0.1-1.9
		c0.8-0.4,1.1,0.2,1.8,0.3c1,0.2,1.9-0.4,2.8-0.8c-0.1-0.7,0.7-1.8,1.1-2.3c0.6-0.7,1.5-1.2,2.2-1.9c0.5-0.4,0.9-0.9,1.4-1.3
		c0.8-0.6,4.3-1.6,2.8-3c-0.6-0.5-1.5-0.7-2-1.4c-0.2-0.3-0.3-0.5-0.4-0.8c-0.7-1.2-1.5-0.9-2.6-0.4c-1,0.5-1.3,1.6-2.6,1.6
		c-0.2,0-0.4,0-0.6-0.1c-0.1,0.1-0.2,0.2-0.2,0.3c-1.2,1.3-2.2,2.8-3.1,4.4c-0.3,0.5-0.6,1-0.8,1.5c-0.9,1.8-1.6,3.7-2,5.7
		c-0.1,0.2-0.1,0.4-0.1,0.7c-0.2,0.9-0.3,1.8-0.4,2.7c0,0.1,0,0.2,0,0.2c0.6,0.1,0.9-0.6,1.6-0.4c0.7,0.3,1,1.7,1.7,2.2
		c1.1,0.8,2.8-0.4,3.8,0.9c1.3,1.8,0,5.7,2.1,7c0.9,0.5,1.1,0.2,1.1,1.5c0.1,1.1,0,2.2,0.4,3.3c0.4,1.1,1.4,1.8,1.6,3
		c0.2,1,0.4,1.5,1,2.3c0.7,0.9,1.3,1.7,1.9,2.6C420,328.7,420.1,328.5,421.3,328.3z"/>
	<path id="XMLID_132023_" class="st0" d="M419.9,287.8c0.6,0.7,2.4,0.9,3.1,0.3c0.7-0.5,0.7-1.4,1.8-1.9c0.8-0.3,2.7-0.2,3.2-1
		c0.4-0.7-0.5-1.8,0-2.5c0.4-0.5,1.5-0.2,2-0.7c0.1-0.1,0.7-1.1,0.7-1.2c0,0,0-0.1,0-0.1c-0.7,0-1.4,0-2.1,0.1
		c-0.6,0-1.2,0.1-1.8,0.2c-2.7,0.4-5.3,1.1-7.6,2.2c-0.1,0-0.2,0.1-0.3,0.1c0.2,0.3,0.4,0.5,0.5,0.9
		C420,285.4,419.1,286.7,419.9,287.8z"/>
	<path id="XMLID_132022_" class="st0" d="M441.3,327.4c-1,0.3-2.1,0.4-3.2,0.3c-1.1,0-2.9,0-3.8,0.6c-0.6,0.4-0.5,1.1-1,1.6
		c-0.5,0.4-1.4,0.4-2,0.6c0,0.6,0.5,0.9,0.4,1.5c-1.8,0.3-4.2,0.8-5.8-0.1c-1.6-0.8-0.2-2-0.9-3.3c-0.5-0.9-1.2-0.8-1.9-0.3
		c-0.8,0.6-0.9,1.5-1.4,2.3c-0.3,0.5-1.2,0.5-1.4,1c0,0.1,0,0.2,0,0.2c0.2,0.1,0.4,0.2,0.6,0.2c4.1,1.6,8.5,2.2,13.2,1.6
		c4.8-0.6,9.2-2.5,12.8-5.3c1.2-0.9,2.3-1.9,3.3-3c-0.3-0.1-0.6-0.1-1-0.1C446.4,325.5,443.8,326.7,441.3,327.4z"/>
</g>
<path id="XMLID_132358_" class="st6" d="M252.3,130.4h-1.7c-0.2-1-0.6-1.8-1.1-2.6l0,0l1.2-1.2c0.3-0.3,0.3-0.7,0-1l-2.1-2.1
	c-0.3-0.3-0.7-0.3-1,0l-1.1,1.2c-0.8-0.5-1.7-0.9-2.6-1.1v0v-1.7c0-0.4-0.4-0.7-0.8-0.7h-2.9c-0.4,0-0.6,0.3-0.6,0.7v1.7
	c-1,0.2-1.9,0.6-2.7,1.1l0,0l-1.2-1.2c-0.3-0.3-0.7-0.3-1,0l-2.1,2.1c-0.3,0.3-0.3,0.7,0,1l1.2,1.1c-0.5,0.8-0.9,1.7-1.1,2.6h0h-1.7
	c-0.4,0-0.6,0.4-0.6,0.8v2.9c0,0.4,0.2,0.7,0.6,0.7h1.7c0.2,1,0.6,1.8,1.1,2.6l0,0l-1.2,1.2c-0.3,0.3-0.3,0.7,0,1l2.1,2.1
	c0.3,0.3,0.7,0.3,1,0l1.2-1.2c0.8,0.5,1.7,0.9,2.7,1.1v0v1.7c0,0.4,0.2,0.6,0.6,0.6h2.9c0.4,0,0.8-0.2,0.8-0.6v-1.7
	c1-0.2,1.8-0.6,2.6-1.1l0,0l1.2,1.2c0.3,0.3,0.7,0.3,1,0l2.1-2.1c0.3-0.3,0.3-0.7,0-1l-1.2-1.2c0.5-0.8,0.9-1.8,1.1-2.6h0h1.7
	c0.4,0,0.7-0.4,0.7-0.7v-2.9C253,130.8,252.7,130.4,252.3,130.4z M240.1,136.6c0,0-0.1,0-0.1-0.1c-0.1-0.1-0.2-0.1-0.4-0.2
	c-0.1,0-0.1-0.1-0.2-0.1c-0.1,0-0.1-0.1-0.2-0.1c0,0-0.1,0-0.1-0.1c-0.2-0.1-0.3-0.3-0.4-0.4s-0.3-0.3-0.4-0.4
	c0-0.1-0.1-0.1-0.1-0.2c-0.1-0.2-0.2-0.4-0.3-0.6c-0.2-0.5-0.3-1.1-0.3-1.7c0-1.2,0.5-2.4,1.4-3.1c0.1-0.1,0.2-0.1,0.2-0.2
	c0,0,0.1,0,0.1-0.1c0.1,0,0.1-0.1,0.2-0.1c0.2-0.1,0.3-0.2,0.5-0.3c0.1,0,0.1-0.1,0.2-0.1c0.5-0.2,1.1-0.3,1.6-0.3
	c0.7,0,1.3,0.2,1.9,0.5c0.1,0,0.1,0.1,0.2,0.1c0.1,0.1,0.2,0.1,0.3,0.2c0.1,0,0.1,0.1,0.2,0.1c0,0,0.1,0,0.1,0.1
	c0.1,0,0.1,0.1,0.2,0.1c0.1,0.1,0.2,0.1,0.2,0.2c0,0,0.1,0.1,0.1,0.1c0.1,0.1,0.2,0.3,0.3,0.4c0,0.1,0.1,0.1,0.1,0.2
	c0,0.1,0.1,0.1,0.1,0.2c0.1,0.1,0.1,0.2,0.1,0.3c0.3,0.6,0.4,1.2,0.4,1.8c0,0.4,0,0.7-0.1,1.1c0,0.1,0,0.1-0.1,0.2
	c0,0.1-0.1,0.2-0.1,0.3c0,0.1-0.1,0.1-0.1,0.2c0,0,0,0.1-0.1,0.1c0,0.1-0.1,0.2-0.1,0.2c0,0.1-0.1,0.1-0.1,0.2c0,0-0.1,0.1-0.1,0.1
	c0,0-0.1,0.1-0.1,0.1c0,0,0,0.1-0.1,0.1c0,0.1-0.1,0.1-0.1,0.2c0,0,0,0.1-0.1,0.1c0,0-0.1,0.1-0.1,0.1c0,0,0,0-0.1,0.1
	c-0.1,0.1-0.2,0.2-0.3,0.3c0,0-0.1,0-0.1,0.1c-0.1,0-0.1,0.1-0.2,0.1c-0.1,0-0.1,0.1-0.2,0.1c0,0-0.1,0-0.1,0.1
	c-0.1,0-0.1,0.1-0.2,0.1c-0.6,0.3-1.2,0.5-1.9,0.5c-0.6,0-1.1-0.1-1.6-0.3C240.1,136.6,240.1,136.6,240.1,136.6z"/>
<path id="XMLID_132019_" class="st5" d="M118.7,71.6c6.3,0,11.4,4,11.4,9c0,2.7-1.6,5.2-4,6.8c0,0,0,0.1,0,0.1l0.4,3.1
	c0,0.2-0.1,0.3-0.3,0.2l-4.2-1.7c-1.1,0.3-2.2,0.4-3.4,0.4c-6.3,0-11.4-4-11.4-9C107.2,75.6,112.4,71.6,118.7,71.6z"/>
<path id="XMLID_132018_" class="st5" d="M229,49.5c-0.2,0.1-0.4,0.2-0.7,0.3c-0.3,0.1-0.3,0.5-0.1,0.7c0.4,0.3,0.6,0.8,0.7,1.3
	c0.2,0.9-0.2,1.6-0.8,2.2c-0.3,0.2-0.6,0.4-0.9,0.6c-0.3,0.1-0.4,0.6-0.1,0.8c0.6,0.6,0.8,1.3,0.5,2.2c-0.3,0.7-0.7,1.2-1.4,1.6
	c-0.1,0-0.2,0.1-0.3,0.1c-0.2,0.1-0.3,0.2-0.3,0.4c0,0.2,0,0.3,0.2,0.4c0.4,0.3,0.6,0.7,0.7,1.1c0,0.4,0,0.7-0.2,1
	c-0.2,0.5-0.6,0.9-1,1.2c-0.2,0.2-0.7,0.4-1.1,0.6c-0.2,0.1-0.9,0.2-1.1,0.3c-9.6,1.9-16.3-0.6-17.1-0.9c-0.2-0.1-0.8-0.5-0.9-0.5
	c0,0-0.2,0-0.2-0.1V48.6c0.4-0.3,0.7-0.5,1.1-0.8c0,0,0.1-0.1,0.1-0.1c0,0,0,0,0,0c1.9-2.4,3.1-4.9,4.5-7.6c0.9-1.8,1.2-5.7,1.2-7.1
	c0-0.6,0.4-1.5,1.6-1.5c0.3,0,0.9,0,1.2,0.2c0.4,0.2,0.8,0.7,1.2,1.4c0.5,1,0.8,2,1.1,3.1c0.1,0.4,0.2,0.8,0.3,1.2
	c0,0.3,0,0.6,0,0.9c0,0.3,0,0.7-0.1,1c-0.1,0.7-0.2,1.3-0.3,2c-0.1,0.7-0.3,1.4-0.4,2.2c0,0,0,0,0,0c0,0.1,0,0.1,0,0.2
	c-0.2,0.9,0.7,1.5,1.3,1.7c0.1,0.1,0.8,0.1,0.9,0.1c3.1,0,8.2,0,8.8,0c0.4,0,0.8,0,1.2,0c0.7,0,1.4,0.5,1.6,1.4
	C230.3,47.8,229.9,48.9,229,49.5z"/>
<path id="XMLID_132017_" class="st5" d="M204.8,63.8c0,0.7-0.6,1.3-1.3,1.3h-4.9c-0.7,0-1.3-0.6-1.3-1.3V47.4c0-0.7,0.6-1.3,1.3-1.3
	h4.9c0.7,0,1.3,0.6,1.3,1.3V63.8z"/>
<path id="XMLID_132016_" class="st5" d="M51.9,57.7H26.7c7-1.5,8.3-6.6,8.3-6.6l4.3,0.1l4.3-0.1C43.6,51.1,44.9,56.2,51.9,57.7z"/>
<path id="XMLID_132015_" class="st5" d="M16.3,46.5v3.9c0,1,0.9,2,2,2h42c1.1,0,2-0.9,2-2v-3.9H16.3z"/>
<path id="XMLID_132014_" class="st5" d="M62.4,23.4c0-1.3-0.9-2.4-2-2.4h-42c-1.1,0-2,1.1-2,2.4v23.1h46V23.4z"/>
<path id="XMLID_132013_" class="st0" d="M60.6,24.7c0-1.2-0.9-2.1-1.9-2.1H20.1c-1,0-1.9,0.9-1.9,2.1v20.1h42.4V24.7z"/>
<circle id="XMLID_132012_" class="st0" cx="39.3" cy="49.4" r="1.7"/>
<g id="XMLID_132344_">
	<path id="XMLID_132011_" class="st5" d="M134.6,362.6H95l1.8-10.6c0.3-2.2,1-4.3,1.9-6.1c0,0,0,0,0-0.1c1.6-3.1,4.1-5.4,7.3-6.5
		c0,0,0,0,0,0c0.2,0.2,0.4,0.4,0.7,0.6c0,0,0.1,0,0.1,0.1c0,0,0.1,0.1,0.1,0.1c0,0,0.1,0.1,0.1,0.1c0,0,0.1,0.1,0.1,0.1
		c0,0,0.1,0.1,0.1,0.1c0.8,0.6,1.7,1.1,2.7,1.5c0,0,0,0,0,0c0.5,0.2,0.9,0.3,1.4,0.5c0,0,0.1,0,0.1,0c0,0,0.1,0,0.1,0c0,0,0,0,0.1,0
		c0,0,0,0,0.1,0c0,0,0.1,0,0.1,0c0,0,0,0,0,0c0.6,0.1,1.2,0.3,1.9,0.3h0c0.4,0,0.7,0,1.1,0c0.4,0,0.7,0,1.1,0c0,0,0,0,0,0
		c0.5,0,1-0.1,1.5-0.2l0,0c0.1,0,0.2,0,0.3-0.1c0.1,0,0.2-0.1,0.4-0.1c0.1,0,0.1,0,0.2-0.1c0,0,0,0,0.1,0c0.2-0.1,0.4-0.1,0.5-0.2
		c0.1,0,0.2-0.1,0.3-0.1c0.1,0,0.2-0.1,0.3-0.1c1.5-0.6,2.8-1.4,3.9-2.5l0,0c0,0,0,0,0,0c3.2,1.1,5.7,3.4,7.4,6.6
		c0.9,1.8,1.6,3.9,1.9,6.2L134.6,362.6z"/>
</g>
<g id="XMLID_132341_">
	<g id="XMLID_132342_">
		<path id="XMLID_132010_" class="st5" d="M125,330.6c0,3.1-1.5,5.8-3.8,7.6c-1.4,1.1-3.1,1.8-4.9,2c-0.5,0.1-1,0.1-1.5,0.1
			c-0.5,0-1,0-1.5-0.1c-1.8-0.3-3.5-1-4.9-2c-2.3-1.8-3.8-4.5-3.8-7.6c0-0.9,0.1-1.8,0.4-2.7c1.2-4.1,5.1-7,9.8-7s8.6,3,9.8,7
			C124.8,328.8,125,329.7,125,330.6z"/>
	</g>
</g>
<path id="XMLID_132009_" class="st5" d="M419.4,70.8c0,13.3-10.8,24-24,24c-13.3,0-24-10.8-24-24c0-13.3,10.8-24,24-24
	C408.7,46.8,419.4,57.5,419.4,70.8L419.4,70.8z"/>
<path id="XMLID_132008_" class="st0" d="M407.9,74.5c-1.6-0.8-3-1.1-3.3-0.6c-0.2,0.4,0.5,1.2,1.6,1.9c-1,4.9-5.6,8.1-10.7,8.1
	c-5.1,0-9.7-3.2-10.6-8.2c1-0.7,1.6-1.4,1.4-1.8c-0.3-0.5-1.8-0.2-3.3,0.6c-1.6,0.8-2.6,1.9-2.4,2.4c0.2,0.4,1.2,0.3,2.3-0.1
	c1.4,5.8,6.5,10.1,12.6,10.1c6.1,0,11.2-4.3,12.6-10.1c1.1,0.4,2,0.5,2.2,0.1C410.5,76.4,409.5,75.3,407.9,74.5L407.9,74.5z"/>
<circle id="XMLID_132007_" class="st0" cx="389.1" cy="62.5" r="2.9"/>
<circle id="XMLID_132006_" class="st0" cx="402.4" cy="62.5" r="2.9"/>
<g id="XMLID_131542_">
	<path id="XMLID_131550_" class="st7" d="M65.7,164.5c2.3,1.4,0.3,3,0.3,3s4.1-1.9,1-4.3c-2.7-2.1-1.3-3.4,0.3-4.6
		C67.3,158.6,60.2,161.1,65.7,164.5z"/>
	<path id="XMLID_131560_" class="st7" d="M72,167.8c2.3,1.4,0.3,3,0.3,3s4.1-1.9,1-4.3c-2.7-2.1-1.3-3.4,0.3-4.6
		C73.7,161.9,66.5,164.4,72,167.8z"/>
	<path id="XMLID_131563_" class="st7" d="M84,174.7c-0.2-0.6-0.3-1.2-0.6-1.9H69.4H55.3c-0.7,1.7-1.1,3.5-1.1,5.4
		c0,8.2,6.7,14.8,15.1,15.1c6.4-0.2,11.9-4.2,14.1-9.7c0.2,0,0.3,0,0.5,0c2.6,0,4.8-2,4.8-4.5C88.8,176.8,86.6,174.8,84,174.7z
		 M84,182.4C83.9,182.4,83.9,182.4,84,182.4c0.3-1.3,0.5-2.7,0.5-4.1c0-0.7-0.1-1.5-0.2-2.2c1.7,0.2,3,1.5,3,3.1
		C87.3,181,85.8,182.4,84,182.4z"/>
</g>
<path id="XMLID_132000_" class="st7" d="M156.9,130c-3.5-2.2-4.9-6.3-5.4-7.9l0-0.6c0-0.2-0.2-0.4-0.4-0.4c-0.2,0-0.4,0.2-0.4,0.4
	l0.9,27.7c-1.3-1.6-3.8-2.6-6.6-2.3c-3.9,0.3-6.9,2.9-6.7,5.7c0.2,2.8,3.6,4.8,7.5,4.5c3.1-0.3,5.7-1.9,6.4-4c0,0,0,0,0.1,0
	c0.1-0.1,0.2-0.2,0.2-0.4l-0.7-19.5c1.6,3.7,4.6,2.5,8.7,3.2c4.2,0.7,4.6,8,4.6,8C165.8,139.8,161.3,132.8,156.9,130z"/>
<path id="XMLID_132323_" class="st7" d="M87,291h-1.7c-0.2-1-0.6-1.8-1.1-2.6l0,0l1.2-1.2c0.3-0.3,0.3-0.7,0-1l-2.1-2.1
	c-0.3-0.3-0.7-0.3-1,0l-1.1,1.2c-0.8-0.5-1.7-0.9-2.6-1.1v0v-1.7c0-0.4-0.4-0.6-0.8-0.6H75c-0.4,0-0.6,0.3-0.6,0.6v1.7
	c-1,0.2-1.8,0.6-2.6,1.1l0,0l-1.2-1.2c-0.3-0.3-0.7-0.3-1,0l-2.1,2.1c-0.3,0.3-0.3,0.7,0,1l1.2,1.2c-0.5,0.8-0.9,1.7-1.1,2.6h0h-1.7
	c-0.4,0-0.6,0.4-0.6,0.7v2.9c0,0.4,0.3,0.8,0.6,0.8h1.7c0.2,1,0.6,1.8,1.1,2.6l0,0l-1.2,1.2c-0.3,0.3-0.3,0.7,0,1l2.1,2.1
	c0.3,0.3,0.7,0.3,1,0l1.2-1.2c0.8,0.5,1.7,0.9,2.6,1.1v0v1.7c0,0.4,0.3,0.7,0.7,0.7h2.9c0.4,0,0.7-0.3,0.7-0.7v-1.7
	c1-0.2,1.8-0.6,2.6-1.1l0,0l1.2,1.2c0.3,0.3,0.7,0.3,1,0l2.1-2.1c0.3-0.3,0.3-0.7,0-1l-1.2-1.1c0.5-0.8,0.9-1.7,1.1-2.6h0H87
	c0.4,0,0.6-0.4,0.6-0.8v-2.9C87.7,291.4,87.4,291,87,291z M74.8,297.1c0,0-0.1,0-0.1-0.1c-0.1-0.1-0.2-0.1-0.4-0.2
	c-0.1,0-0.1-0.1-0.2-0.1c-0.1,0-0.1-0.1-0.2-0.1c0,0-0.1,0-0.1-0.1c-0.2-0.1-0.3-0.3-0.4-0.4c-0.1-0.1-0.3-0.3-0.4-0.4
	c0-0.1-0.1-0.1-0.1-0.2c-0.1-0.2-0.2-0.4-0.3-0.6c-0.2-0.5-0.3-1.1-0.3-1.7c0-1.2,0.5-2.4,1.4-3.1c0.1-0.1,0.2-0.1,0.2-0.2
	c0,0,0.1,0,0.1-0.1c0.1,0,0.1-0.1,0.2-0.1c0.2-0.1,0.3-0.2,0.5-0.3c0.1,0,0.1-0.1,0.2-0.1c0.5-0.2,1.1-0.3,1.6-0.3
	c0.7,0,1.3,0.2,1.9,0.5c0.1,0,0.1,0.1,0.2,0.1c0.1,0.1,0.2,0.1,0.3,0.2c0.1,0,0.1,0.1,0.2,0.1c0,0,0.1,0,0.1,0.1
	c0.1,0,0.1,0.1,0.2,0.1c0.1,0.1,0.2,0.1,0.2,0.2c0,0,0.1,0.1,0.1,0.1c0.1,0.1,0.2,0.3,0.3,0.4c0,0.1,0.1,0.1,0.1,0.2
	c0,0.1,0.1,0.1,0.1,0.2c0.1,0.1,0.1,0.2,0.1,0.3c0.3,0.6,0.4,1.2,0.4,1.8c0,0.4,0,0.7-0.1,1.1c0,0.1,0,0.1-0.1,0.2
	c0,0.1-0.1,0.2-0.1,0.3c0,0.1-0.1,0.1-0.1,0.2c0,0,0,0.1-0.1,0.1c0,0.1-0.1,0.2-0.1,0.2c0,0.1-0.1,0.1-0.1,0.2c0,0-0.1,0.1-0.1,0.1
	c0,0-0.1,0.1-0.1,0.1c0,0,0,0.1-0.1,0.1c0,0.1-0.1,0.1-0.1,0.2c0,0,0,0.1-0.1,0.1c0,0-0.1,0.1-0.1,0.1c0,0,0,0-0.1,0.1
	c-0.1,0.1-0.2,0.2-0.3,0.3c0,0-0.1,0-0.1,0.1c-0.1,0-0.1,0.1-0.2,0.1c-0.1,0-0.1,0.1-0.2,0.1c0,0-0.1,0-0.1,0.1
	c-0.1,0-0.1,0.1-0.2,0.1c-0.6,0.3-1.2,0.5-1.9,0.5c-0.6,0-1.1-0.1-1.6-0.3C74.8,297.1,74.8,297.1,74.8,297.1z"/>
<path id="XMLID_132320_" class="st7" d="M439.3,128.4h-2.4c-0.3-1.4-0.9-2.6-1.6-3.7l0,0l1.7-1.7c0.4-0.4,0.4-1,0-1.4l-3-3
	c-0.4-0.4-1-0.4-1.4,0l-1.6,1.7c-1.2-0.7-2.5-1.2-3.7-1.5v0v-2.4c0-0.5-0.6-0.9-1.1-0.9h-4.2c-0.5,0-0.9,0.3-0.9,0.9v2.4
	c-1.3,0.3-2.6,0.9-3.8,1.6l0,0l-1.7-1.7c-0.4-0.4-1-0.4-1.4,0l-3,3c-0.4,0.4-0.4,1,0,1.4l1.7,1.7c-0.7,1.2-1.2,2.5-1.5,3.7h0h-2.4
	c-0.5,0-0.9,0.5-0.9,1.1v4.2c0,0.5,0.3,1.1,0.9,1.1h2.4c0.3,1.4,0.9,2.5,1.6,3.7l0,0l-1.7,1.7c-0.4,0.4-0.4,1,0,1.4l3,2.9
	c0.4,0.4,1,0.4,1.4,0l1.7-1.7c1.2,0.7,2.5,1.2,3.8,1.5v0v2.4c0,0.5,0.4,1,0.9,1h4.2c0.5,0,1.1-0.4,1.1-1v-2.4
	c1.4-0.3,2.5-0.9,3.7-1.6l0,0l1.7,1.7c0.4,0.4,1,0.4,1.4,0l2.9-3c0.4-0.4,0.4-1,0-1.4l-1.7-1.6c0.7-1.2,1.2-2.5,1.5-3.7h0h2.4
	c0.5,0,1-0.6,1-1.1v-4.2C440.3,128.9,439.8,128.4,439.3,128.4z M421.8,137.1c-0.1,0-0.1-0.1-0.2-0.1c-0.2-0.1-0.3-0.2-0.5-0.3
	c-0.1-0.1-0.2-0.1-0.2-0.2c-0.1-0.1-0.2-0.1-0.2-0.2c0,0-0.1-0.1-0.1-0.1c-0.2-0.2-0.4-0.4-0.6-0.6c-0.2-0.2-0.4-0.4-0.5-0.6
	c-0.1-0.1-0.1-0.2-0.2-0.3c-0.2-0.3-0.3-0.6-0.5-0.9c-0.3-0.7-0.5-1.5-0.5-2.4c0-1.8,0.8-3.4,2-4.5c0.1-0.1,0.2-0.2,0.3-0.3
	c0,0,0.1-0.1,0.1-0.1c0.1-0.1,0.2-0.1,0.2-0.2c0.2-0.2,0.5-0.3,0.8-0.4c0.1,0,0.2-0.1,0.3-0.1c0.7-0.3,1.5-0.5,2.3-0.5
	c1,0,1.9,0.2,2.7,0.7c0.1,0,0.2,0.1,0.3,0.1c0.1,0.1,0.2,0.1,0.4,0.2c0.1,0.1,0.2,0.1,0.2,0.2c0,0,0.1,0.1,0.1,0.1
	c0.1,0.1,0.1,0.1,0.2,0.2c0.1,0.1,0.2,0.2,0.3,0.3c0.1,0.1,0.1,0.1,0.2,0.2c0.2,0.2,0.3,0.4,0.5,0.6c0.1,0.1,0.1,0.2,0.2,0.2
	c0.1,0.1,0.1,0.2,0.2,0.2c0.1,0.1,0.1,0.3,0.2,0.4c0.4,0.8,0.6,1.7,0.6,2.6c0,0.5-0.1,1-0.2,1.5c0,0.1-0.1,0.2-0.1,0.3
	c0,0.1-0.1,0.3-0.1,0.4c0,0.1-0.1,0.2-0.1,0.3c0,0.1-0.1,0.1-0.1,0.2c-0.1,0.1-0.1,0.2-0.2,0.3c0,0.1-0.1,0.2-0.2,0.2
	c0,0.1-0.1,0.1-0.1,0.2c0,0.1-0.1,0.1-0.1,0.2c0,0-0.1,0.1-0.1,0.1c-0.1,0.1-0.1,0.1-0.2,0.2c0,0-0.1,0.1-0.1,0.1
	c-0.1,0.1-0.1,0.1-0.2,0.2c0,0-0.1,0.1-0.1,0.1c-0.1,0.1-0.3,0.3-0.4,0.4c0,0-0.1,0.1-0.1,0.1c-0.1,0.1-0.2,0.1-0.2,0.2
	c-0.1,0.1-0.2,0.1-0.2,0.2c0,0-0.1,0-0.1,0.1c-0.1,0-0.2,0.1-0.3,0.1c-0.8,0.4-1.8,0.7-2.7,0.7c-0.8,0-1.6-0.2-2.2-0.4
	C421.9,137.1,421.9,137.1,421.8,137.1z"/>
<polygon id="XMLID_131995_" class="st7" points="364.4,197.7 367.4,207.1 377.2,207.1 369.3,212.8 372.3,222.2 364.4,216.4 
	356.4,222.2 359.5,212.8 351.5,207.1 361.3,207.1 "/>
<polygon id="XMLID_131994_" class="st7" points="16.3,88.4 19,96.8 27.8,96.8 20.7,101.9 23.4,110.3 16.3,105.1 9.2,110.3 
	11.9,101.9 4.8,96.8 13.6,96.8 "/>
<polygon id="XMLID_131993_" class="st7" points="201.4,164.2 203,169.3 208.4,169.3 204.1,172.5 205.7,177.6 201.4,174.4 197,177.6 
	198.7,172.5 194.3,169.3 199.7,169.3 "/>
<polygon id="XMLID_131992_" class="st7" points="344.5,61.8 346.1,66.9 351.5,66.9 347.2,70.1 348.8,75.2 344.5,72.1 340.1,75.3 
	341.8,70.1 337.4,66.9 342.8,66.9 "/>
<g id="XMLID_132307_">
	<path id="XMLID_132308_" class="st7" d="M391.1,249.6c-5.9,0-10.6,4.8-10.6,10.6s4.8,10.6,10.6,10.6c5.9,0,10.6-4.8,10.6-10.6
		S397,249.6,391.1,249.6z M388.3,265.2v-10l8.7,5L388.3,265.2z"/>
</g>
<g id="XMLID_132298_">
	<path id="XMLID_132299_" class="st7" d="M21.1,230c-5.9,0-10.6,4.8-10.6,10.6c0,5.9,4.8,10.6,10.6,10.6c5.9,0,10.6-4.8,10.6-10.6
		C31.7,234.7,26.9,230,21.1,230z M18.3,245.6v-10l8.7,5L18.3,245.6z"/>
</g>
<ellipse id="XMLID_131985_" class="st8" cx="295.3" cy="166.1" rx="0.5" ry="0.5"/>
<path id="XMLID_132287_" class="st7" d="M291.5,87.1c-1.3-5-4.8-8.3-4.9-8.1c0,0-4.2-3.8-10.1-3.8c-5.9,0-10.1,3.8-10.1,3.8
	c-0.1-0.2-3.7,3.1-5,8.1c-1.3,5,1.1,9.2,1.1,9.2c2.6,5.8,5.7,9.6,5.7,9.6c1.9,3,8.2,10.5,8.2,10.5s6.3-7.5,8.2-10.5
	c0,0,3.1-3.8,5.7-9.6C290.4,96.2,292.8,92.1,291.5,87.1z M276.4,97.1c-4.3,0-7.8-3.5-7.8-7.8c0-4.3,3.5-7.8,7.8-7.8
	c4.3,0,7.8,3.5,7.8,7.8C284.2,93.6,280.7,97.1,276.4,97.1z"/>
<path id="XMLID_132284_" class="st7" d="M305,295.5c-0.7-2.7-2.6-4.5-2.7-4.4c0,0-2.3-2.1-5.4-2c-3.2,0-5.4,2-5.4,2
	c-0.1-0.1-2,1.7-2.7,4.4c-0.7,2.7,0.6,4.9,0.6,4.9c1.4,3.1,3.1,5.2,3.1,5.2c1,1.6,4.4,5.6,4.4,5.6s3.4-4,4.4-5.6
	c0,0,1.7-2.1,3.1-5.2C304.4,300.5,305.7,298.2,305,295.5z M296.9,300.9c-2.3,0-4.2-1.9-4.2-4.2c0-2.3,1.9-4.2,4.2-4.2
	c2.3,0,4.2,1.9,4.2,4.2C301.1,299.1,299.2,300.9,296.9,300.9z"/>
<g id="XMLID_132273_">
	<g id="XMLID_69_">
		<path id="XMLID_73_" class="st7" d="M409.9,193.8l14.5,10.8c0.4,0.3,1.1,0.3,1.6,0l14.5-10.7L409.9,193.8z"/>
		<path id="XMLID_72_" class="st7" d="M420.2,202.7l-10.1,9.4c-0.2-0.3-0.3-0.6-0.3-0.9V195L420.2,202.7z"/>
		<path id="XMLID_71_" class="st7" d="M429.3,203.3l10.2,9.5c-0.3,0.1-0.6,0.2-1,0.2h-26.6c-0.3,0-0.6,0-0.9-0.2l10.2-9.5l4,3
			L429.3,203.3z"/>
		<path id="XMLID_70_" class="st7" d="M440.5,195v16.2c0,0.3-0.1,0.6-0.2,0.9l-10.1-9.4L440.5,195z"/>
	</g>
</g>
<g id="XMLID_132262_">
	<g id="XMLID_74_">
		<path id="XMLID_78_" class="st7" d="M86,126.1l9.8,7.3c0.3,0.2,0.8,0.2,1.1,0l9.8-7.2L86,126.1z"/>
		<path id="XMLID_77_" class="st7" d="M93,132.1l-6.8,6.4c-0.1-0.2-0.2-0.4-0.2-0.6v-10.9L93,132.1z"/>
		<path id="XMLID_76_" class="st7" d="M99.1,132.5l6.9,6.4c-0.2,0.1-0.4,0.1-0.6,0.1H87.4c-0.2,0-0.4,0-0.6-0.1l6.9-6.4l2.7,2
			L99.1,132.5z"/>
		<path id="XMLID_75_" class="st7" d="M106.7,126.9v10.9c0,0.2,0,0.4-0.1,0.6l-6.8-6.3L106.7,126.9z"/>
	</g>
</g>
<path id="XMLID_131966_" class="st7" d="M206.4,92c-0.2-2.7-2.3-3.3-2.3-3.3c-2.8-0.8-4.7,1.5-4.7,1.5s-1.9-2.3-4.7-1.5
	c0,0-2.2,0.6-2.3,3.3c-0.2,3,5.2,8.1,7.1,9.3C201.2,100.1,206.6,94.9,206.4,92z"/>
<g id="XMLID_132253_">
	<path id="XMLID_131965_" class="st7" d="M71.3,97.5H55.9l0.7-4.1c0.1-0.9,0.4-1.7,0.8-2.4c0,0,0,0,0,0c0.6-1.2,1.6-2.1,2.9-2.6l0,0
		c0.1,0.1,0.2,0.2,0.3,0.2c0,0,0,0,0,0c0,0,0,0,0,0c0,0,0,0,0,0c0,0,0,0,0,0c0,0,0,0,0,0c0.3,0.2,0.7,0.4,1,0.6c0,0,0,0,0,0
		c0.2,0.1,0.4,0.1,0.5,0.2c0,0,0,0,0,0c0,0,0,0,0,0c0,0,0,0,0,0c0,0,0,0,0,0c0,0,0,0,0,0c0,0,0,0,0,0c0.2,0.1,0.5,0.1,0.7,0.1h0
		c0.1,0,0.3,0,0.4,0c0.1,0,0.3,0,0.4,0l0,0c0.2,0,0.4,0,0.6-0.1l0,0c0,0,0.1,0,0.1,0c0,0,0.1,0,0.1,0c0,0,0.1,0,0.1,0c0,0,0,0,0,0
		c0.1,0,0.1,0,0.2-0.1c0,0,0.1,0,0.1,0c0,0,0.1,0,0.1-0.1c0.6-0.2,1.1-0.6,1.5-1l0,0c0,0,0,0,0,0c1.3,0.4,2.2,1.3,2.9,2.6
		c0.4,0.7,0.6,1.5,0.8,2.4L71.3,97.5z"/>
</g>
<g id="XMLID_132250_">
	<g id="XMLID_132251_">
		<path id="XMLID_131964_" class="st7" d="M67.6,85c0,1.2-0.6,2.3-1.5,3c-0.5,0.4-1.2,0.7-1.9,0.8c-0.2,0-0.4,0-0.6,0
			c-0.2,0-0.4,0-0.6,0c-0.7-0.1-1.4-0.4-1.9-0.8c-0.9-0.7-1.5-1.8-1.5-3c0-0.4,0.1-0.7,0.2-1c0.5-1.6,2-2.7,3.8-2.7
			c1.8,0,3.4,1.2,3.8,2.7C67.5,84.3,67.6,84.6,67.6,85z"/>
	</g>
</g>
<path id="XMLID_131564_" class="st7" d="M254.4,210c-4.2,0-7.6,3.4-7.6,7.6s3.4,7.6,7.6,7.6c4.2,0,7.6-3.4,7.6-7.6
	S258.6,210,254.4,210z M258.9,218.5h-3.6v3.8h-1.7v-3.8h-3.6v-1.6h3.6v-3.7h1.7v3.7h3.6V218.5z"/>
<path id="XMLID_131553_" class="st7" d="M194.3,120.4c-6.7,0-12.1,5.4-12.1,12.1c0,6.7,5.4,12.1,12.1,12.1s12.1-5.4,12.1-12.1
	C206.4,125.8,201,120.4,194.3,120.4z M201.5,134.1h-5.7v6h-2.7v-6h-5.7v-2.6h5.7v-6h2.7v6h5.7V134.1z"/>
<path id="XMLID_131570_" class="st7" d="M371.3,154.5c-4.1,0-7.4,3.3-7.4,7.4c0,4.1,3.3,7.4,7.4,7.4c4.1,0,7.4-3.3,7.4-7.4
	C378.7,157.8,375.4,154.5,371.3,154.5z M375.7,162.8h-3.5v3.7h-1.6v-3.7h-3.5v-1.6h3.5v-3.6h1.6v3.6h3.5V162.8z"/>
<path id="XMLID_131567_" class="st7" d="M141.9,264.4c-4.2,0-7.6,3.4-7.6,7.6c0,4.2,3.4,7.6,7.6,7.6c4.2,0,7.6-3.4,7.6-7.6
	C149.5,267.8,146.1,264.4,141.9,264.4z M146.4,272.9h-3.6v3.8h-1.7v-3.8h-3.6v-1.6h3.6v-3.7h1.7v3.7h3.6V272.9z"/>
<g id="XMLID_132211_">
	<g id="XMLID_132212_">
		<path id="XMLID_131955_" class="st9" d="M247.9,280.7C247.9,280.7,247.8,280.6,247.9,280.7c-0.6,0-1.1,0-1.6,0
			c-0.4,0-0.7-0.3-0.7-0.7c0-0.4,0.3-0.7,0.7-0.7c0.5,0,1,0,1.6,0c0.4,0,0.7,0.3,0.7,0.7C248.5,280.4,248.2,280.7,247.9,280.7z"/>
		<path id="XMLID_132216_" class="st9" d="M265.2,281.5c-0.5,0-1.1,0-1.6,0c-0.4,0-0.7-0.3-0.7-0.7c0-0.4,0.3-0.7,0.7-0.7
			c0.6,0,1.1,0,1.6,0c0.5,0,1,0,1.5,0c0.4,0,0.7,0.3,0.7,0.7c0,0.4-0.3,0.7-0.7,0.7C266.2,281.5,265.7,281.5,265.2,281.5z
			 M260.4,281.3C260.4,281.3,260.4,281.3,260.4,281.3c-1,0-2-0.1-3.2-0.2c-0.4,0-0.7-0.3-0.6-0.7c0-0.4,0.3-0.7,0.7-0.6
			c1.2,0.1,2.2,0.1,3.1,0.2c0.4,0,0.7,0.3,0.7,0.7C261.1,281.1,260.8,281.3,260.4,281.3z M269.8,281.3c-0.4,0-0.7-0.3-0.7-0.6
			c0-0.4,0.3-0.7,0.6-0.7c1.1-0.1,2.1-0.2,3.1-0.3c0.4-0.1,0.7,0.2,0.8,0.6c0.1,0.4-0.2,0.7-0.6,0.8
			C272.1,281.1,271,281.2,269.8,281.3C269.9,281.3,269.8,281.3,269.8,281.3z M254.1,281C254.1,281,254.1,281,254.1,281
			c-1.1-0.1-2.2-0.1-3.2-0.2c-0.4,0-0.7-0.3-0.6-0.7c0-0.4,0.3-0.7,0.7-0.6c1,0.1,2.1,0.1,3.1,0.2c0.4,0,0.7,0.4,0.6,0.7
			C254.8,280.7,254.5,281,254.1,281z M276,280.4c-0.3,0-0.6-0.2-0.7-0.5c-0.1-0.4,0.1-0.7,0.5-0.8c1-0.3,2-0.6,2.9-1
			c0.4-0.1,0.8,0,0.9,0.4c0.1,0.4,0,0.8-0.4,0.9c-0.9,0.4-2,0.7-3.1,1C276.2,280.4,276.1,280.4,276,280.4z M281.8,277.9
			c-0.2,0-0.4-0.1-0.6-0.3c-0.2-0.3-0.1-0.7,0.2-1c0.4-0.3,0.9-0.6,1.2-1c0.4-0.3,0.7-0.7,1-1c0.3-0.3,0.7-0.3,1,0
			c0.3,0.3,0.3,0.7,0,1c-0.4,0.4-0.7,0.7-1.1,1.1c-0.4,0.4-0.9,0.7-1.4,1.1C282.1,277.9,281.9,277.9,281.8,277.9z M286.2,273.4
			c-0.1,0-0.3,0-0.4-0.1c-0.3-0.2-0.4-0.7-0.2-1c0.6-0.8,1.1-1.7,1.6-2.6c0.2-0.3,0.6-0.5,0.9-0.3c0.3,0.2,0.5,0.6,0.3,0.9
			c-0.5,1-1.1,1.9-1.7,2.7C286.6,273.3,286.4,273.4,286.2,273.4z M289.2,267.9c-0.1,0-0.2,0-0.3-0.1c-0.4-0.1-0.5-0.5-0.4-0.9
			c0.4-0.9,0.7-1.9,1-2.9c0.1-0.4,0.5-0.6,0.9-0.5c0.4,0.1,0.6,0.5,0.5,0.9c-0.3,1-0.7,2.1-1.1,3
			C289.7,267.8,289.4,267.9,289.2,267.9z M291,261.9c0,0-0.1,0-0.1,0c-0.4-0.1-0.6-0.4-0.5-0.8c0.2-1,0.4-2,0.6-3
			c0.1-0.4,0.4-0.6,0.8-0.6c0.4,0.1,0.6,0.4,0.6,0.8c-0.2,1.1-0.4,2.1-0.6,3.1C291.6,261.7,291.3,261.9,291,261.9z M291.9,255.7
			C291.9,255.7,291.9,255.7,291.9,255.7c-0.4,0-0.7-0.4-0.7-0.8c0.1-1,0.2-2,0.2-3.1c0-0.4,0.3-0.7,0.7-0.7c0.4,0,0.7,0.3,0.7,0.7
			c0,1.1-0.1,2.1-0.2,3.2C292.6,255.5,292.3,255.7,291.9,255.7z M292.2,249.4C292.2,249.4,292.2,249.4,292.2,249.4
			c-0.4,0-0.7-0.3-0.7-0.7c0-0.2,0-0.4,0-0.6c0-0.8,0-1.7,0-2.5c0-0.4,0.3-0.7,0.7-0.7c0,0,0,0,0,0c0.4,0,0.7,0.3,0.7,0.7
			c0,0.9,0,1.7,0,2.6c0,0.2,0,0.4,0,0.6C292.9,249.1,292.6,249.4,292.2,249.4z M292.1,243.2c-0.4,0-0.7-0.3-0.7-0.7
			c-0.1-1-0.1-2-0.2-3.1c0-0.4,0.3-0.7,0.6-0.7c0.4,0,0.7,0.3,0.7,0.6c0.1,1.1,0.1,2.1,0.2,3.2C292.8,242.8,292.5,243.1,292.1,243.2
			C292.1,243.2,292.1,243.2,292.1,243.2z M291.6,236.9c-0.4,0-0.7-0.3-0.7-0.6c-0.1-0.9-0.2-1.8-0.3-2.9l0-0.2
			c0-0.4,0.2-0.7,0.6-0.8c0.4,0,0.7,0.2,0.8,0.6l0,0.2c0.1,1.1,0.2,2.1,0.3,2.9C292.3,236.5,292.1,236.9,291.6,236.9
			C291.7,236.9,291.6,236.9,291.6,236.9z M291,230.6c-0.3,0-0.6-0.3-0.7-0.6c-0.1-1-0.2-2.1-0.3-3.1c0-0.4,0.2-0.7,0.6-0.8
			c0.4,0,0.7,0.2,0.8,0.6c0.1,1,0.2,2.1,0.3,3.1C291.7,230.3,291.4,230.6,291,230.6C291,230.6,291,230.6,291,230.6z M290.4,224.4
			c-0.4,0-0.7-0.3-0.7-0.6c-0.1-1.1-0.2-2.1-0.3-3.1c0-0.4,0.3-0.7,0.6-0.7c0.4,0,0.7,0.3,0.7,0.6c0.1,1,0.2,2,0.3,3.1
			C291.1,224,290.8,224.3,290.4,224.4C290.4,224.4,290.4,224.4,290.4,224.4z M289.9,218.1c-0.4,0-0.7-0.3-0.7-0.6
			c-0.1-1.1-0.1-2.1-0.2-3.1c0-0.4,0.3-0.7,0.6-0.7c0.4,0,0.7,0.3,0.7,0.6c0.1,1,0.1,2.1,0.2,3.1
			C290.6,217.8,290.3,218.1,289.9,218.1C289.9,218.1,289.9,218.1,289.9,218.1z"/>
		<path id="XMLID_131938_" class="st9" d="M289.6,211.8c-0.4,0-0.7-0.3-0.7-0.7c0-0.5,0-1.1-0.1-1.6c0-0.4,0.3-0.7,0.7-0.7
			c0.4,0,0.7,0.3,0.7,0.7c0,0.5,0,1.1,0,1.6C290.3,211.5,290,211.8,289.6,211.8C289.6,211.8,289.6,211.8,289.6,211.8z"/>
		<g id="XMLID_132213_">
			<path id="XMLID_131937_" class="st9" d="M289.5,205.6c0.7,1.8,1.9,4.1,3.2,5.5l-3.1-1.1l-3.1,1.2
				C287.7,209.8,288.8,207.5,289.5,205.6z"/>
		</g>
	</g>
</g>
<g id="XMLID_132188_">
	<g id="XMLID_132189_">
		<path id="XMLID_131936_" class="st9" d="M208.6,260.9c-0.3,0-0.6-0.3-0.7-0.6c-0.1-0.5-0.1-1.1-0.2-1.6c0-0.4,0.2-0.7,0.6-0.8
			c0.4,0,0.7,0.2,0.8,0.6c0.1,0.5,0.1,1.1,0.2,1.6C209.3,260.5,209,260.9,208.6,260.9C208.6,260.9,208.6,260.9,208.6,260.9z"/>
		<path id="XMLID_132193_" class="st9" d="M208.1,256.2c-0.4,0-0.7-0.3-0.7-0.6c-0.1-1-0.1-2.1-0.2-3.2c0-0.4,0.3-0.7,0.7-0.7
			c0.4,0,0.7,0.3,0.7,0.7c0,1.1,0.1,2.1,0.2,3.1C208.8,255.8,208.5,256.2,208.1,256.2C208.1,256.2,208.1,256.2,208.1,256.2z
			 M207.8,249.9c-0.4,0-0.7-0.3-0.7-0.7c0-1,0-2,0-3.2c0-0.4,0.3-0.7,0.7-0.7h0c0.4,0,0.7,0.3,0.7,0.7c0,1.1,0,2.1,0,3.1
			C208.5,249.6,208.2,249.9,207.8,249.9C207.9,249.9,207.8,249.9,207.8,249.9z M207.8,243.6L207.8,243.6c-0.4,0-0.7-0.3-0.7-0.7
			c0-1.1,0-2.2,0-3.2c0-0.4,0.3-0.7,0.7-0.7c0,0,0,0,0,0c0.4,0,0.7,0.3,0.7,0.7c0,0.9,0,2,0,3.1
			C208.5,243.3,208.2,243.6,207.8,243.6z M207.8,237.3C207.8,237.3,207.8,237.3,207.8,237.3c-0.4,0-0.7-0.3-0.7-0.7
			c0-1.3,0-2.2,0-3.1c0-0.4,0.3-0.7,0.7-0.7h0c0.4,0,0.7,0.3,0.7,0.7c0,0.9,0,1.9,0,3.2C208.5,237,208.2,237.3,207.8,237.3z
			 M207.8,231c-0.4,0-0.7-0.3-0.7-0.7c0-1.1,0-2.1-0.1-3.1c0-0.4,0.3-0.7,0.7-0.7c0,0,0,0,0,0c0.4,0,0.7,0.3,0.7,0.7
			c0,1,0,2,0.1,3.2C208.5,230.7,208.2,231,207.8,231C207.8,231,207.8,231,207.8,231z M207.7,224.7c-0.4,0-0.7-0.3-0.7-0.7
			c0-1.1-0.1-2.1-0.2-3.1c0-0.4,0.3-0.7,0.6-0.7c0.4,0,0.7,0.3,0.7,0.6c0.1,1,0.1,2.1,0.2,3.2C208.4,224.3,208.1,224.7,207.7,224.7
			C207.7,224.7,207.7,224.7,207.7,224.7z M207.2,218.4c-0.3,0-0.6-0.3-0.7-0.6c-0.1-0.5-0.1-1.1-0.2-1.7c-0.1-0.5-0.1-1-0.2-1.5
			c0-0.4,0.2-0.7,0.6-0.8c0.4,0,0.7,0.2,0.8,0.6c0.1,0.5,0.1,1,0.2,1.5c0.1,0.6,0.1,1.1,0.2,1.7C207.9,218,207.7,218.3,207.2,218.4
			C207.3,218.4,207.2,218.4,207.2,218.4z M206.6,212.1c-0.4,0-0.7-0.3-0.7-0.6c-0.1-1.2-0.2-2.2-0.2-3.2c0-0.4,0.3-0.7,0.7-0.7
			c0.4,0,0.7,0.3,0.7,0.7c0,1,0.1,2,0.2,3.1C207.3,211.8,207,212.1,206.6,212.1C206.6,212.1,206.6,212.1,206.6,212.1z M206.3,205.8
			C206.3,205.8,206.3,205.8,206.3,205.8c-0.4,0-0.7-0.3-0.7-0.7c0-1.1,0.1-2.2,0.2-3.2c0-0.4,0.4-0.6,0.8-0.6c0.4,0,0.6,0.4,0.6,0.8
			c-0.1,0.9-0.2,2-0.2,3.1C207,205.5,206.7,205.8,206.3,205.8z M207.1,199.6c-0.1,0-0.1,0-0.2,0c-0.4-0.1-0.6-0.5-0.5-0.8
			c0.3-1.2,0.7-2.2,1.2-3.1c0.2-0.3,0.6-0.4,0.9-0.3c0.3,0.2,0.4,0.6,0.3,0.9c-0.4,0.8-0.8,1.7-1.1,2.8
			C207.7,199.4,207.4,199.6,207.1,199.6z M210.2,194.2c-0.2,0-0.4-0.1-0.5-0.2c-0.3-0.3-0.2-0.7,0-1c0.8-0.7,1.7-1.4,2.7-1.9
			c0.3-0.2,0.8,0,0.9,0.3c0.2,0.3,0,0.8-0.3,0.9c-0.9,0.5-1.7,1-2.4,1.7C210.5,194.1,210.4,194.2,210.2,194.2z M215.7,191.2
			c-0.3,0-0.6-0.2-0.7-0.5c-0.1-0.4,0.1-0.8,0.4-0.9c0.5-0.2,0.9-0.3,1.4-0.5c0.5-0.2,1.1-0.3,1.6-0.5c0.4-0.1,0.8,0.1,0.9,0.4
			c0.1,0.4-0.1,0.8-0.4,0.9c-0.5,0.2-1.1,0.4-1.6,0.5c-0.4,0.1-0.9,0.3-1.4,0.4C215.8,191.2,215.7,191.2,215.7,191.2z M221.6,189
			c-0.2,0-0.5-0.1-0.6-0.4c-0.2-0.3-0.1-0.8,0.3-0.9c0.8-0.4,1.4-0.8,2-1.3c0.1-0.1,0.3-0.2,0.4-0.4c0.3-0.3,0.7-0.2,1,0
			c0.3,0.3,0.2,0.7,0,1c-0.1,0.1-0.3,0.3-0.5,0.4c-0.7,0.6-1.4,1.1-2.3,1.5C221.8,189,221.7,189,221.6,189z M226.2,184.8
			c-0.1,0-0.3,0-0.4-0.1c-0.3-0.2-0.4-0.6-0.2-1c0.5-0.8,1-1.7,1.3-2.7c0.1-0.4,0.5-0.5,0.9-0.4c0.4,0.1,0.5,0.5,0.4,0.9
			c-0.4,1.1-0.9,2.1-1.5,3C226.6,184.7,226.4,184.8,226.2,184.8z M228.3,178.9C228.3,178.9,228.3,178.9,228.3,178.9
			c-0.5-0.1-0.7-0.4-0.7-0.8c0.1-0.7,0.1-1.6,0.1-2.4c0-0.2,0-0.4,0-0.6c0-0.4,0.3-0.7,0.7-0.7c0.4,0,0.7,0.3,0.7,0.7
			c0,0.2,0,0.5,0,0.7c0,0.9-0.1,1.8-0.2,2.6C229,178.7,228.7,178.9,228.3,178.9z M228.2,172.6c-0.3,0-0.6-0.3-0.7-0.6
			c-0.1-0.9-0.3-1.9-0.5-3.1c-0.1-0.4,0.2-0.7,0.6-0.8c0.4-0.1,0.7,0.2,0.8,0.6c0.2,1.2,0.4,2.2,0.5,3.2
			C228.9,172.3,228.7,172.6,228.2,172.6C228.3,172.6,228.2,172.6,228.2,172.6z"/>
		<path id="XMLID_131919_" class="st9" d="M227.2,166.4c-0.3,0-0.6-0.2-0.7-0.6c-0.1-0.5-0.2-1-0.3-1.6c-0.1-0.4,0.2-0.7,0.6-0.8
			c0.4-0.1,0.7,0.2,0.8,0.6c0.1,0.5,0.2,1.1,0.3,1.6c0.1,0.4-0.2,0.7-0.6,0.8C227.3,166.4,227.2,166.4,227.2,166.4z"/>
		<g id="XMLID_132190_">
			<path id="XMLID_131918_" class="st9" d="M226.3,160.3c0.9,1.7,2.4,3.8,3.8,5l-3.2-0.7l-2.9,1.5
				C225.1,164.6,225.9,162.2,226.3,160.3z"/>
		</g>
	</g>
</g>
<g id="XMLID_132172_">
	<g id="XMLID_132173_">
		<path id="XMLID_131917_" class="st9" d="M191.6,285.9c-0.1,0-0.2,0-0.3-0.1c-0.5-0.2-0.9-0.5-1.4-0.7c-0.3-0.2-0.5-0.6-0.3-0.9
			c0.2-0.3,0.6-0.5,0.9-0.3c0.5,0.2,1,0.5,1.4,0.7c0.3,0.2,0.5,0.6,0.3,0.9C192.1,285.8,191.9,285.9,191.6,285.9z"/>
		<path id="XMLID_132177_" class="st9" d="M137,297.6c-0.1,0-0.2,0-0.4-0.1c-0.3-0.2-0.4-0.6-0.2-0.9c0.6-0.9,1.2-1.9,2-2.7
			c0.2-0.3,0.7-0.3,1-0.1c0.3,0.2,0.3,0.7,0.1,1c-0.7,0.8-1.3,1.7-1.9,2.6C137.5,297.5,137.3,297.6,137,297.6z M141.2,292.5
			c-0.2,0-0.4-0.1-0.5-0.2c-0.3-0.3-0.3-0.7,0-1c0.4-0.4,0.9-0.9,1.4-1.3c0.4-0.3,0.7-0.6,1.1-0.9c0.3-0.2,0.7-0.2,1,0.1
			c0.2,0.3,0.2,0.7-0.1,1c-0.4,0.3-0.7,0.6-1.1,0.9c-0.5,0.4-0.9,0.8-1.4,1.2C141.5,292.5,141.4,292.5,141.2,292.5z M146.3,288.4
			c-0.2,0-0.4-0.1-0.6-0.3c-0.2-0.3-0.1-0.7,0.2-1c0.9-0.6,1.9-1.2,2.8-1.8c0.3-0.2,0.8-0.1,0.9,0.3c0.2,0.3,0.1,0.8-0.3,0.9
			c-0.9,0.5-1.9,1.1-2.7,1.7C146.6,288.4,146.5,288.4,146.3,288.4z M152,285.2c-0.3,0-0.5-0.1-0.6-0.4c-0.2-0.3,0-0.8,0.3-0.9
			c1-0.5,2-0.9,3.1-1.3c0.4-0.1,0.8,0,0.9,0.4c0.1,0.4,0,0.8-0.4,0.9c-1,0.4-2,0.8-3,1.3C152.2,285.2,152.1,285.2,152,285.2z
			 M187.2,283.9c-0.1,0-0.2,0-0.2,0c-1-0.4-2-0.7-3.1-1c-0.4-0.1-0.6-0.5-0.5-0.9c0.1-0.4,0.5-0.6,0.9-0.5c1.1,0.3,2.1,0.7,3.2,1.1
			c0.4,0.1,0.5,0.5,0.4,0.9C187.7,283.8,187.4,283.9,187.2,283.9z M158.1,282.8c-0.3,0-0.6-0.2-0.7-0.5c-0.1-0.4,0.1-0.7,0.5-0.9
			c1.1-0.3,2.1-0.6,3.2-0.8c0.4-0.1,0.7,0.2,0.8,0.5s-0.2,0.7-0.5,0.8c-1,0.2-2.1,0.5-3.1,0.8C158.3,282.8,158.2,282.8,158.1,282.8z
			 M180.9,282c0,0-0.1,0-0.1,0c-1-0.2-2.1-0.4-3.2-0.6c-0.4-0.1-0.6-0.4-0.6-0.8c0.1-0.4,0.4-0.6,0.8-0.6c1.1,0.2,2.2,0.4,3.3,0.6
			c0.4,0.1,0.6,0.4,0.5,0.8C181.5,281.8,181.2,282,180.9,282z M164.6,281.4c-0.3,0-0.6-0.2-0.7-0.6c-0.1-0.4,0.2-0.7,0.6-0.8
			c1.1-0.2,2.2-0.3,3.3-0.4c0.4,0,0.7,0.3,0.7,0.6c0,0.4-0.3,0.7-0.6,0.7C166.8,281.2,165.7,281.3,164.6,281.4
			C164.6,281.4,164.6,281.4,164.6,281.4z M174.4,281.1C174.4,281.1,174.3,281.1,174.4,281.1c-1.1-0.1-2.2-0.1-3.3-0.1
			c-0.4,0-0.7-0.3-0.7-0.7c0-0.4,0.3-0.7,0.7-0.7h0c1.1,0,2.2,0,3.3,0.1c0.4,0,0.7,0.4,0.6,0.7C175,280.8,174.7,281.1,174.4,281.1z"
			/>
		<path id="XMLID_131907_" class="st9" d="M135,302c-0.1,0-0.1,0-0.2,0c-0.4-0.1-0.6-0.5-0.4-0.9c0.2-0.5,0.4-1,0.6-1.5
			c0.1-0.3,0.6-0.5,0.9-0.4c0.3,0.1,0.5,0.6,0.4,0.9c-0.2,0.5-0.4,1-0.5,1.4C135.5,301.8,135.2,302,135,302z"/>
		<g id="XMLID_132174_">
			<path id="XMLID_131906_" class="st9" d="M134,305.1c-0.2-1.9-0.8-4.4-1.6-6.1l2.7,1.8l3.3-0.3C136.8,301.6,135.1,303.5,134,305.1
				z"/>
		</g>
	</g>
</g>
<g id="XMLID_132152_">
	<g id="XMLID_132153_">
		<path id="XMLID_131905_" class="st9" d="M47.5,68.6c-0.4,0-0.7-0.3-0.7-0.7v-1.6c0-0.4,0.3-0.7,0.7-0.7c0.4,0,0.7,0.3,0.7,0.7v1.6
			C48.2,68.3,47.9,68.6,47.5,68.6z"/>
		<path id="XMLID_132157_" class="st9" d="M69.4,133.3c-0.1,0-0.2,0-0.3,0c-0.4,0-0.7-0.3-0.7-0.7c0-0.4,0.3-0.7,0.7-0.7h0
			c0.1,0,0.2,0,0.3,0c0.8,0,1.8,0,2.8,0c0.4,0,0.7,0.3,0.7,0.7c0,0.4-0.3,0.7-0.7,0.7C71.2,133.3,70.3,133.3,69.4,133.3
			C69.4,133.3,69.4,133.3,69.4,133.3z M65.9,133.2C65.9,133.2,65.9,133.2,65.9,133.2c-1.2-0.1-2.2-0.2-3.3-0.3
			c-0.4-0.1-0.6-0.4-0.6-0.8c0.1-0.4,0.4-0.6,0.8-0.6c1,0.1,2,0.2,3.1,0.3c0.4,0,0.7,0.3,0.6,0.7C66.6,132.9,66.3,133.2,65.9,133.2z
			 M59.6,132.3c-0.1,0-0.1,0-0.2,0c-1.1-0.3-2.2-0.6-3.1-1c-0.4-0.1-0.5-0.5-0.4-0.9c0.1-0.4,0.5-0.5,0.9-0.4c0.9,0.3,1.9,0.6,3,0.9
			c0.4,0.1,0.6,0.5,0.5,0.8C60.2,132.1,59.9,132.3,59.6,132.3z M53.7,130c-0.1,0-0.2,0-0.3-0.1c-1-0.6-1.9-1.2-2.7-1.9
			c-0.3-0.3-0.3-0.7,0-1c0.3-0.3,0.7-0.3,1,0c0.7,0.6,1.5,1.2,2.5,1.7c0.3,0.2,0.5,0.6,0.3,0.9C54.2,129.9,53.9,130,53.7,130z
			 M49.1,125.7c-0.2,0-0.5-0.1-0.6-0.3c-0.6-1-0.9-2.1-1.1-3.2c-0.1-0.4,0.2-0.7,0.6-0.8c0.4-0.1,0.7,0.2,0.8,0.6
			c0.2,1,0.5,1.9,1,2.8c0.2,0.3,0.1,0.8-0.3,0.9C49.3,125.7,49.2,125.7,49.1,125.7z M47.7,119.6c-0.4,0-0.7-0.3-0.7-0.6
			c-0.1-1-0.1-2.1-0.2-3.2c0-0.4,0.3-0.7,0.7-0.7c0.4,0,0.7,0.3,0.7,0.7c0,1.1,0.1,2.2,0.2,3.2C48.4,119.2,48.1,119.5,47.7,119.6
			C47.7,119.6,47.7,119.6,47.7,119.6z M47.4,113.2c-0.4,0-0.7-0.3-0.7-0.7c0-0.5,0-1.1,0-1.6c0-0.5,0-1,0-1.6c0-0.4,0.3-0.7,0.7-0.7
			h0c0.4,0,0.7,0.3,0.7,0.7c0,0.5,0,1,0,1.5c0,0.6,0,1.1,0,1.6C48.1,112.9,47.8,113.2,47.4,113.2L47.4,113.2z M47.5,106.8
			C47.5,106.8,47.5,106.8,47.5,106.8c-0.4,0-0.7-0.3-0.7-0.7c0-1,0-2.1,0-3.2c0-0.4,0.3-0.7,0.7-0.7h0c0.4,0,0.7,0.3,0.7,0.7
			c0,1.1,0,2.2,0,3.2C48.2,106.5,47.9,106.8,47.5,106.8z M47.5,100.5c-0.4,0-0.7-0.3-0.7-0.7v-3.2c0-0.4,0.3-0.7,0.7-0.7
			c0.4,0,0.7,0.3,0.7,0.7v3.2C48.2,100.2,47.9,100.5,47.5,100.5z M47.5,94.1c-0.4,0-0.7-0.3-0.7-0.7v-3.2c0-0.4,0.3-0.7,0.7-0.7
			c0.4,0,0.7,0.3,0.7,0.7v3.2C48.2,93.8,47.9,94.1,47.5,94.1z M47.5,87.7c-0.4,0-0.7-0.3-0.7-0.7v-3.2c0-0.4,0.3-0.7,0.7-0.7
			c0.4,0,0.7,0.3,0.7,0.7V87C48.2,87.4,47.9,87.7,47.5,87.7z M47.5,81.3c-0.4,0-0.7-0.3-0.7-0.7v-3.2c0-0.4,0.3-0.7,0.7-0.7
			c0.4,0,0.7,0.3,0.7,0.7v3.2C48.2,81,47.9,81.3,47.5,81.3z M47.5,75c-0.4,0-0.7-0.3-0.7-0.7v-3.2c0-0.4,0.3-0.7,0.7-0.7
			c0.4,0,0.7,0.3,0.7,0.7v3.2C48.2,74.6,47.9,75,47.5,75z"/>
		<path id="XMLID_131891_" class="st9" d="M75.4,133.2c-0.4,0-0.7-0.3-0.7-0.7c0-0.4,0.3-0.7,0.7-0.7c0.5,0,1.1,0,1.6-0.1
			c0,0,0,0,0,0c0.4,0,0.7,0.3,0.7,0.7c0,0.4-0.3,0.7-0.7,0.7C76.5,133.1,76,133.2,75.4,133.2C75.5,133.2,75.5,133.2,75.4,133.2z"/>
		<g id="XMLID_132154_">
			<path id="XMLID_131890_" class="st9" d="M80.9,132.4c-1.8,0.7-4.1,1.9-5.5,3.2l1-3.1l-1.2-3.1C76.8,130.6,79.1,131.7,80.9,132.4z
				"/>
		</g>
	</g>
</g>
<g id="XMLID_132124_">
	<g id="XMLID_132125_">
		<path id="XMLID_131889_" class="st9" d="M327.3,153.5c-0.3,0-0.6-0.3-0.7-0.6l-0.2-1.6c0-0.4,0.2-0.7,0.6-0.8
			c0.4,0,0.7,0.2,0.8,0.6l0.2,1.6C328,153.1,327.8,153.4,327.3,153.5C327.3,153.5,327.3,153.5,327.3,153.5z"/>
		<path id="XMLID_132129_" class="st9" d="M368.9,180.8C368.9,180.8,368.9,180.8,368.9,180.8l-3.2-0.1c-0.4,0-0.7-0.3-0.7-0.7
			c0-0.4,0.3-0.7,0.7-0.7l3.1,0.1c0.4,0,0.7,0.3,0.7,0.7C369.5,180.5,369.2,180.8,368.9,180.8z M372,180.8c-0.4,0-0.7-0.3-0.7-0.6
			c0-0.4,0.3-0.7,0.6-0.7c1.1-0.1,2-0.3,2.9-0.5c0.4-0.1,0.8,0.1,0.9,0.4c0.1,0.4-0.1,0.8-0.4,0.9
			C374.3,180.5,373.3,180.7,372,180.8C372,180.8,372,180.8,372,180.8z M362.6,180.5C362.6,180.5,362.6,180.5,362.6,180.5l-3.2-0.1
			c-0.4,0-0.7-0.3-0.7-0.7c0-0.4,0.3-0.7,0.7-0.7l3.1,0.1c0.4,0,0.7,0.3,0.7,0.7C363.3,180.2,363,180.5,362.6,180.5z M356.4,180.3
			C356.4,180.3,356.3,180.3,356.4,180.3l-3.2-0.1c-0.4,0-0.7-0.3-0.7-0.7c0-0.4,0.3-0.7,0.7-0.7l3.1,0.1c0.4,0,0.7,0.3,0.7,0.7
			C357,180,356.7,180.3,356.4,180.3z M350.1,180C350.1,180,350.1,180,350.1,180l-3.2-0.1c-0.4,0-0.7-0.3-0.7-0.7
			c0-0.4,0.3-0.7,0.7-0.7l3.1,0.1c0.4,0,0.7,0.3,0.7,0.7C350.8,179.7,350.5,180,350.1,180z M343.9,179.8
			C343.8,179.8,343.8,179.8,343.9,179.8l-3.2-0.1c-0.4,0-0.7-0.3-0.7-0.7c0-0.4,0.3-0.7,0.7-0.7l3.1,0.1c0.4,0,0.7,0.3,0.7,0.7
			C344.5,179.5,344.2,179.8,343.9,179.8z M337.6,179.5C337.6,179.5,337.6,179.5,337.6,179.5c-1.4-0.1-2.4-0.2-3.3-0.4
			c-0.4-0.1-0.6-0.5-0.5-0.8c0.1-0.4,0.5-0.6,0.8-0.5c0.8,0.2,1.7,0.3,3,0.4c0.4,0,0.7,0.3,0.6,0.7
			C338.3,179.3,338,179.5,337.6,179.5z M377.8,178.6c-0.2,0-0.4-0.1-0.5-0.2c-0.2-0.3-0.2-0.7,0.1-1c0.7-0.6,1.4-1.3,1.9-2.2
			c0.2-0.3,0.6-0.4,1-0.2c0.3,0.2,0.4,0.6,0.2,1c-0.6,1-1.4,1.8-2.2,2.5C378.1,178.6,377.9,178.6,377.8,178.6z M331.7,177.8
			c-0.2,0-0.3-0.1-0.4-0.2c-0.2-0.2-0.4-0.4-0.6-0.6c-0.5-0.6-1-1.4-1.3-2.3c-0.1-0.4,0.1-0.7,0.4-0.9c0.4-0.1,0.7,0.1,0.9,0.4
			c0.2,0.7,0.6,1.3,1,1.8c0.1,0.2,0.3,0.3,0.5,0.5c0.3,0.2,0.3,0.7,0.1,1C332.1,177.7,331.9,177.8,331.7,177.8z M381.3,173.5
			c-0.1,0-0.2,0-0.2,0c-0.4-0.1-0.5-0.5-0.4-0.9c0-0.1,0.1-0.2,0.1-0.3c0.3-0.8,0.5-1.6,0.7-2.5c0.1-0.4,0.4-0.6,0.8-0.5
			c0.4,0.1,0.6,0.4,0.5,0.8c-0.2,1-0.4,1.9-0.7,2.7c0,0.1-0.1,0.3-0.1,0.4C381.8,173.4,381.5,173.5,381.3,173.5z M329.5,172.1
			c-0.3,0-0.6-0.3-0.7-0.6l-0.4-3.1c0-0.4,0.2-0.7,0.6-0.8c0.4,0,0.7,0.2,0.8,0.6l0.4,3.1C330.2,171.7,329.9,172.1,329.5,172.1
			C329.5,172.1,329.5,172.1,329.5,172.1z M382.6,167.4C382.5,167.4,382.5,167.4,382.6,167.4c-0.4,0-0.7-0.4-0.7-0.7
			c0.1-1.1,0.1-2.2,0.2-3.1c0-0.4,0.3-0.7,0.7-0.7c0.4,0,0.7,0.3,0.7,0.7c0,0.9-0.1,2.1-0.2,3.2
			C383.2,167.1,382.9,167.4,382.6,167.4z M328.7,165.9c-0.3,0-0.6-0.3-0.7-0.6l-0.4-3.1c0-0.4,0.2-0.7,0.6-0.8
			c0.4,0,0.7,0.2,0.8,0.6l0.4,3.1C329.5,165.5,329.2,165.9,328.7,165.9C328.8,165.9,328.8,165.9,328.7,165.9z M382.9,161.2
			C382.9,161.2,382.8,161.2,382.9,161.2c-0.4,0-0.7-0.3-0.7-0.7c0-1,0.1-2.1,0.1-3.1c0-0.4,0.3-0.7,0.7-0.7c0,0,0,0,0,0
			c0.4,0,0.7,0.3,0.7,0.7c0,1-0.1,2.1-0.1,3.1C383.5,160.9,383.2,161.2,382.9,161.2z M328,159.7c-0.3,0-0.6-0.3-0.7-0.6L327,156
			c0-0.4,0.2-0.7,0.6-0.8c0.4,0,0.7,0.2,0.8,0.6l0.4,3.1C328.7,159.3,328.5,159.6,328,159.7C328.1,159.7,328,159.7,328,159.7z
			 M383,154.9L383,154.9c-0.4,0-0.7-0.3-0.7-0.7c0-1,0-2.1,0.1-3.1c0-0.4,0.3-0.7,0.7-0.7c0.4,0,0.7,0.3,0.7,0.7c0,1,0,2.1-0.1,3.1
			C383.7,154.6,383.4,154.9,383,154.9z M383.1,148.6L383.1,148.6c-0.4,0-0.7-0.3-0.7-0.7c0-1,0-2.1,0-3.1c0-0.4,0.3-0.7,0.7-0.7h0
			c0.4,0,0.7,0.3,0.7,0.7c0,1,0,2.1,0,3.1C383.8,148.3,383.5,148.6,383.1,148.6z M383.2,142.4c-0.4,0-0.7-0.3-0.7-0.7
			c0-1,0-2.1,0-3.1c0-0.4,0.3-0.7,0.7-0.7c0.4,0,0.7,0.3,0.7,0.7c0,1,0,2.1,0,3.1C383.9,142.1,383.6,142.4,383.2,142.4L383.2,142.4z
			 M383.1,136.1c-0.4,0-0.7-0.3-0.7-0.7c0-1,0-2.1-0.1-3.1c0-0.4,0.3-0.7,0.7-0.7c0.4,0,0.7,0.3,0.7,0.7c0,1,0,2.1,0.1,3.1
			C383.8,135.8,383.5,136.1,383.1,136.1C383.1,136.1,383.1,136.1,383.1,136.1z M383,129.9c-0.4,0-0.7-0.3-0.7-0.7
			c0-1-0.1-2.1-0.1-3.1c0-0.4,0.3-0.7,0.7-0.7c0.4,0,0.7,0.3,0.7,0.7c0,1.1,0.1,2.1,0.1,3.1C383.7,129.5,383.4,129.9,383,129.9
			C383,129.9,383,129.9,383,129.9z M382.8,123.6c-0.4,0-0.7-0.3-0.7-0.7c0-1-0.1-2.1-0.1-3.1c0-0.4,0.3-0.7,0.7-0.7
			c0.4,0,0.7,0.3,0.7,0.7c0,1,0.1,2.1,0.1,3.1C383.5,123.3,383.2,123.6,382.8,123.6C382.8,123.6,382.8,123.6,382.8,123.6z"/>
		<path id="XMLID_131867_" class="st9" d="M382.5,117.4c-0.4,0-0.7-0.3-0.7-0.7c0-0.5-0.1-1.1-0.1-1.6c0-0.4,0.3-0.7,0.6-0.7
			c0.4,0,0.7,0.3,0.7,0.6c0,0.5,0.1,1.1,0.1,1.6C383.2,117,382.9,117.3,382.5,117.4C382.5,117.4,382.5,117.4,382.5,117.4z"/>
		<g id="XMLID_132126_">
			<path id="XMLID_131866_" class="st9" d="M382.2,111.2c0.8,1.8,2.1,4,3.4,5.3l-3.1-0.9l-3,1.3
				C380.6,115.4,381.6,113.1,382.2,111.2z"/>
		</g>
	</g>
</g>
<g id="XMLID_132102_">
	<g id="XMLID_132103_">
		<path id="XMLID_132106_" class="st9" d="M380.1,306.7c-0.4,0-0.7-0.3-0.7-0.7c0-0.4,0.3-0.7,0.7-0.7c1,0,2-0.1,3.1-0.2
			c0.4,0,0.7,0.2,0.7,0.6c0,0.4-0.2,0.7-0.6,0.7C382.3,306.6,381.2,306.7,380.1,306.7L380.1,306.7z M377,306.5
			C376.9,306.5,376.9,306.5,377,306.5c-1.2-0.1-2.2-0.3-3.3-0.5c-0.4-0.1-0.6-0.5-0.5-0.8c0.1-0.4,0.4-0.6,0.8-0.5
			c1,0.2,2,0.4,3.1,0.5c0.4,0,0.7,0.4,0.6,0.8C377.6,306.3,377.3,306.5,377,306.5z M386.5,306.1c-0.3,0-0.6-0.2-0.7-0.6
			c-0.1-0.4,0.2-0.7,0.6-0.8c1-0.1,2-0.3,3.1-0.6c0.4-0.1,0.7,0.2,0.8,0.5c0.1,0.4-0.2,0.7-0.5,0.8c-1.1,0.2-2.2,0.4-3.2,0.6
			C386.5,306.1,386.5,306.1,386.5,306.1z M370.8,305.2c-0.1,0-0.2,0-0.2,0c-1-0.4-2.1-0.8-3-1.3c-0.3-0.2-0.5-0.6-0.3-0.9
			c0.2-0.3,0.6-0.5,0.9-0.3c0.9,0.5,1.8,0.9,2.8,1.3c0.4,0.1,0.5,0.5,0.4,0.9C371.3,305,371.1,305.2,370.8,305.2z M392.7,304.9
			c-0.3,0-0.6-0.2-0.7-0.5c-0.1-0.4,0.1-0.7,0.5-0.8c1-0.2,2-0.5,3.1-0.7c0.4-0.1,0.7,0.1,0.8,0.5c0.1,0.4-0.1,0.7-0.5,0.8
			c-1.1,0.3-2.1,0.5-3.1,0.7C392.8,304.9,392.7,304.9,392.7,304.9z M365.2,302.1c-0.1,0-0.3,0-0.4-0.1c-0.9-0.7-1.7-1.5-2.4-2.3
			c-0.2-0.3-0.2-0.7,0.1-1c0.3-0.2,0.7-0.2,1,0.1c0.6,0.8,1.4,1.5,2.2,2.1c0.3,0.2,0.3,0.7,0.1,1C365.6,302,365.4,302.1,365.2,302.1
			z M361.2,297.3c-0.2,0-0.5-0.1-0.6-0.4c-0.5-0.9-1-2-1.3-3c-0.1-0.4,0.1-0.7,0.4-0.9c0.4-0.1,0.7,0.1,0.9,0.4
			c0.3,1,0.7,1.9,1.2,2.8c0.2,0.3,0.1,0.8-0.3,0.9C361.4,297.3,361.3,297.3,361.2,297.3z M359.1,291.3c-0.3,0-0.6-0.2-0.7-0.6
			c-0.2-1-0.3-2.1-0.4-3.2c0-0.4,0.3-0.7,0.6-0.7c0.4,0,0.7,0.3,0.7,0.6c0.1,1.1,0.2,2.1,0.3,3.1c0.1,0.4-0.2,0.7-0.6,0.8
			C359.2,291.3,359.2,291.3,359.1,291.3z M358.8,285L358.8,285c-0.4,0-0.7-0.3-0.7-0.7c0-1,0.1-2.1,0.2-3.2c0-0.4,0.4-0.7,0.7-0.6
			c0.4,0,0.7,0.4,0.6,0.7c-0.1,1.1-0.2,2.2-0.2,3.1C359.4,284.7,359.1,285,358.8,285z M359.3,278.7
			C359.2,278.7,359.2,278.7,359.3,278.7c-0.5,0-0.7-0.4-0.7-0.8c0.1-0.5,0.1-1.1,0.2-1.6l0.2-1.5c0-0.4,0.4-0.6,0.8-0.6
			c0.4,0,0.6,0.4,0.6,0.8l-0.2,1.5c-0.1,0.5-0.1,1.1-0.2,1.6C359.9,278.4,359.6,278.7,359.3,278.7z M360,272.3
			C360,272.3,360,272.3,360,272.3c-0.5-0.1-0.7-0.4-0.7-0.8l0.4-3.2c0-0.4,0.4-0.6,0.8-0.6c0.4,0,0.6,0.4,0.6,0.8l-0.4,3.2
			C360.7,272.1,360.4,272.3,360,272.3z M360.8,266C360.8,266,360.8,266,360.8,266c-0.5-0.1-0.7-0.4-0.7-0.8l0.4-3.2
			c0-0.4,0.4-0.6,0.8-0.6c0.4,0,0.6,0.4,0.6,0.8l-0.4,3.2C361.5,265.8,361.2,266,360.8,266z M361.6,259.7
			C361.6,259.7,361.6,259.7,361.6,259.7c-0.5-0.1-0.7-0.4-0.7-0.8l0.4-3.2c0-0.4,0.4-0.6,0.8-0.6c0.4,0,0.6,0.4,0.6,0.8l-0.4,3.2
			C362.2,259.5,362,259.7,361.6,259.7z M362.4,253.4C362.4,253.4,362.3,253.4,362.4,253.4c-0.5-0.1-0.7-0.4-0.7-0.8l0.4-3.2
			c0-0.4,0.4-0.6,0.8-0.6c0.4,0,0.6,0.4,0.6,0.8l-0.4,3.2C363,253.2,362.7,253.4,362.4,253.4z M363.2,247.1
			C363.1,247.1,363.1,247.1,363.2,247.1c-0.5-0.1-0.7-0.4-0.7-0.8l0.4-3.2c0-0.4,0.4-0.6,0.8-0.6c0.4,0,0.6,0.4,0.6,0.8l-0.4,3.2
			C363.8,246.9,363.5,247.1,363.2,247.1z M364,240.8C363.9,240.8,363.9,240.8,364,240.8c-0.5-0.1-0.7-0.4-0.7-0.8l0.4-3.2
			c0-0.4,0.4-0.6,0.8-0.6c0.4,0,0.6,0.4,0.6,0.8l-0.4,3.2C364.6,240.6,364.3,240.8,364,240.8z M364.7,234.5
			C364.7,234.5,364.7,234.5,364.7,234.5c-0.5-0.1-0.7-0.4-0.7-0.8l0.4-3.2c0-0.4,0.4-0.6,0.8-0.6c0.4,0,0.6,0.4,0.6,0.8l-0.4,3.2
			C365.4,234.3,365.1,234.5,364.7,234.5z"/>
		<g id="XMLID_132104_">
			<path id="XMLID_131478_" class="st9" d="M365.7,226.1c0.4,1.9,1.3,4.3,2.4,5.9l-2.9-1.5l-3.2,0.7
				C363.4,230,364.8,227.9,365.7,226.1z"/>
		</g>
	</g>
</g>
<g id="XMLID_131462_">
	<g id="XMLID_131463_">
		<path id="XMLID_131467_" class="st9" d="M192.1,278.9c-0.1,0-0.1,0-0.2,0c-0.4-0.1-0.6-0.5-0.5-0.9c0.3-1,0.5-2,0.7-3
			c0.1-0.4,0.4-0.6,0.8-0.6c0.4,0.1,0.6,0.4,0.6,0.8c-0.2,1.1-0.4,2.2-0.7,3.2C192.7,278.7,192.4,278.9,192.1,278.9z M193.1,272.7
			C193.1,272.7,193.1,272.7,193.1,272.7c-0.4,0-0.7-0.3-0.7-0.7c0-0.2,0-0.3,0-0.5c0-0.8,0-1.7-0.1-2.6c0-0.4,0.2-0.7,0.6-0.8
			c0.4,0,0.7,0.2,0.8,0.6c0.1,0.9,0.1,1.8,0.1,2.7c0,0.2,0,0.4,0,0.5C193.7,272.4,193.4,272.7,193.1,272.7z M192.4,266.4
			c-0.3,0-0.6-0.2-0.7-0.5c-0.2-1-0.5-2-0.8-3c-0.1-0.4,0.1-0.8,0.4-0.9c0.4-0.1,0.8,0.1,0.9,0.4c0.4,1,0.7,2.1,0.9,3.1
			c0.1,0.4-0.2,0.7-0.5,0.8C192.5,266.4,192.5,266.4,192.4,266.4z M190.4,260.4c-0.3,0-0.5-0.1-0.6-0.4c-0.4-0.9-0.9-1.9-1.5-2.7
			c-0.2-0.3-0.1-0.7,0.2-0.9c0.3-0.2,0.7-0.1,0.9,0.2c0.6,0.9,1.1,1.9,1.5,2.9c0.2,0.3,0,0.8-0.3,0.9
			C190.6,260.4,190.5,260.4,190.4,260.4z M187.1,254.9c-0.2,0-0.4-0.1-0.6-0.3c-0.3-0.4-0.6-0.8-1-1.2c-0.3-0.4-0.7-0.8-1-1.1
			c-0.3-0.3-0.2-0.7,0-1c0.3-0.3,0.7-0.2,1,0c0.4,0.4,0.7,0.8,1,1.2c0.4,0.4,0.7,0.9,1,1.3c0.2,0.3,0.2,0.7-0.1,1
			C187.4,254.9,187.3,254.9,187.1,254.9z M182.8,250.3c-0.2,0-0.3-0.1-0.5-0.2c-0.8-0.7-1.6-1.4-2.4-2c-0.3-0.2-0.4-0.7-0.1-1
			c0.2-0.3,0.7-0.4,1-0.1c0.9,0.7,1.7,1.4,2.5,2.1c0.3,0.3,0.3,0.7,0,1C183.2,250.2,183,250.3,182.8,250.3z M177.8,246.4
			c-0.1,0-0.3,0-0.4-0.1c-0.9-0.6-1.8-1.1-2.7-1.6c-0.3-0.2-0.5-0.6-0.3-0.9s0.6-0.5,0.9-0.3c1,0.5,1.9,1.1,2.8,1.7
			c0.3,0.2,0.4,0.6,0.2,1C178.2,246.3,178,246.4,177.8,246.4z M172.2,243.3c-0.1,0-0.2,0-0.3-0.1c-0.9-0.4-1.9-0.8-2.9-1.2
			c-0.4-0.1-0.5-0.5-0.4-0.9c0.1-0.4,0.5-0.5,0.9-0.4c1,0.4,2,0.8,3,1.3c0.3,0.2,0.5,0.6,0.3,0.9
			C172.7,243.2,172.5,243.3,172.2,243.3z M166.3,241c-0.1,0-0.1,0-0.2,0c-1-0.3-2-0.6-3-0.9c-0.4-0.1-0.6-0.5-0.5-0.8
			c0.1-0.4,0.5-0.6,0.8-0.5c1,0.3,2.1,0.6,3.1,0.9c0.4,0.1,0.6,0.5,0.4,0.9C166.9,240.8,166.6,241,166.3,241z M160.2,239.4
			c0,0-0.1,0-0.1,0c-1-0.2-2-0.4-3.1-0.6c-0.4-0.1-0.6-0.4-0.6-0.8c0.1-0.4,0.4-0.6,0.8-0.6c1.1,0.2,2.1,0.4,3.1,0.6
			c0.4,0.1,0.6,0.4,0.5,0.8C160.8,239.2,160.5,239.4,160.2,239.4z M153.9,238.3C153.9,238.3,153.9,238.3,153.9,238.3
			c-1.1-0.1-2.2-0.3-3.2-0.4c-0.4,0-0.7-0.4-0.6-0.8c0-0.4,0.4-0.7,0.8-0.6c1.1,0.1,2.2,0.2,3.2,0.4c0.4,0.1,0.6,0.4,0.6,0.8
			C154.6,238,154.3,238.3,153.9,238.3z M147.6,237.6C147.6,237.6,147.6,237.6,147.6,237.6c-1.1-0.1-2.1-0.1-3.2-0.2
			c-0.4,0-0.7-0.3-0.6-0.7s0.3-0.7,0.7-0.6c1.1,0.1,2.2,0.1,3.2,0.2c0.4,0,0.7,0.4,0.6,0.7C148.3,237.3,148,237.6,147.6,237.6z
			 M141.3,237.3C141.3,237.3,141.3,237.3,141.3,237.3c-1,0-2-0.1-3.2-0.1c-0.4,0-0.7-0.3-0.7-0.7c0-0.4,0.3-0.7,0.7-0.7c0,0,0,0,0,0
			c1.2,0,2.2,0.1,3.2,0.1c0.4,0,0.7,0.3,0.7,0.7C142,237,141.7,237.3,141.3,237.3z M134.9,237.1
			C134.9,237.1,134.9,237.1,134.9,237.1c-1.3,0-2.3-0.1-3.2-0.1c-0.4,0-0.7-0.4-0.6-0.7c0-0.4,0.4-0.7,0.7-0.6
			c0.9,0.1,1.9,0.1,3.1,0.1c0.4,0,0.7,0.3,0.7,0.7C135.6,236.8,135.3,237.1,134.9,237.1z M128.6,236.6
			C128.6,236.6,128.5,236.6,128.6,236.6c-1.2-0.2-2.3-0.3-3.3-0.6c-0.4-0.1-0.6-0.5-0.5-0.8c0.1-0.4,0.5-0.6,0.8-0.5
			c1,0.2,2,0.4,3.1,0.5c0.4,0,0.6,0.4,0.6,0.8C129.2,236.4,128.9,236.6,128.6,236.6z M122.4,235.2c-0.1,0-0.2,0-0.2,0
			c-1.1-0.4-2.1-0.9-3-1.4c-0.3-0.2-0.4-0.6-0.2-0.9c0.2-0.3,0.6-0.4,0.9-0.2c0.8,0.5,1.8,0.9,2.8,1.3c0.4,0.1,0.5,0.5,0.4,0.9
			C123,235,122.7,235.2,122.4,235.2z M117,231.9c-0.2,0-0.3-0.1-0.5-0.2c-0.2-0.2-0.4-0.4-0.6-0.6c-0.6-0.6-1.1-1.3-1.6-2
			c-0.2-0.3-0.1-0.7,0.2-1c0.3-0.2,0.7-0.1,1,0.2c0.4,0.6,0.9,1.2,1.4,1.8c0.2,0.2,0.3,0.4,0.5,0.5c0.3,0.3,0.3,0.7,0,1
			C117.4,231.9,117.2,231.9,117,231.9z M113.5,226.7c-0.3,0-0.5-0.2-0.6-0.4c-0.4-0.9-0.7-2-1-3.1c-0.1-0.4,0.1-0.7,0.5-0.8
			c0.4-0.1,0.7,0.1,0.8,0.5c0.3,1.1,0.6,2,1,2.9c0.1,0.4,0,0.8-0.4,0.9C113.7,226.7,113.6,226.7,113.5,226.7z M111.9,220.6
			c-0.3,0-0.6-0.2-0.7-0.6c-0.2-1-0.3-2-0.4-3.2c0-0.4,0.2-0.7,0.6-0.8c0.4,0,0.7,0.2,0.8,0.6c0.1,1.2,0.2,2.2,0.4,3.1
			c0.1,0.4-0.2,0.7-0.6,0.8C112,220.6,111.9,220.6,111.9,220.6z M111.3,214.3c-0.4,0-0.7-0.3-0.7-0.6c-0.1-1.1-0.1-2.1-0.2-3.2
			c0-0.4,0.3-0.7,0.6-0.7c0.4,0,0.7,0.3,0.7,0.6c0.1,1,0.1,2.1,0.2,3.2C112,213.9,111.7,214.2,111.3,214.3
			C111.3,214.3,111.3,214.3,111.3,214.3z M110.9,207.9c-0.4,0-0.7-0.3-0.7-0.7c-0.1-1.1-0.1-2.1-0.2-3.2c0-0.4,0.3-0.7,0.7-0.7
			c0.4,0,0.7,0.3,0.7,0.7c0,1,0.1,2.1,0.2,3.2C111.6,207.6,111.3,207.9,110.9,207.9C110.9,207.9,110.9,207.9,110.9,207.9z
			 M110.6,201.6c-0.4,0-0.7-0.3-0.7-0.7c0-1.1-0.1-2.1-0.1-3.2c0-0.4,0.3-0.7,0.7-0.7c0.4,0,0.7,0.3,0.7,0.7c0,1.1,0.1,2.1,0.1,3.2
			C111.3,201.3,111,201.6,110.6,201.6C110.6,201.6,110.6,201.6,110.6,201.6z M110.4,195.2c-0.4,0-0.7-0.3-0.7-0.7
			c0-1.1,0-2.1-0.1-3.2c0-0.4,0.3-0.7,0.7-0.7c0.4,0,0.7,0.3,0.7,0.7c0,1.1,0,2.1,0.1,3.2C111.1,194.9,110.8,195.2,110.4,195.2
			C110.4,195.2,110.4,195.2,110.4,195.2z M110.3,188.9c-0.4,0-0.7-0.3-0.7-0.7c0-0.5,0-1.1,0-1.6c0-0.5,0-1,0-1.6
			c0-0.4,0.3-0.7,0.7-0.7h0c0.4,0,0.7,0.3,0.7,0.7c0,0.5,0,1,0,1.6c0,0.5,0,1.1,0,1.6C111,188.6,110.7,188.9,110.3,188.9
			L110.3,188.9z"/>
		<g id="XMLID_131464_">
			<path id="XMLID_131406_" class="st9" d="M110.5,176c1.4,3.9,3.8,8.8,6.4,11.9l-6.5-2.5l-6.6,2.3
				C106.4,184.7,108.9,179.9,110.5,176z"/>
		</g>
	</g>
</g>
<path id="XMLID_131573_" class="st7" d="M91,225.4c-5.6,0-10.2,4.6-10.2,10.2c0,5.6,4.6,10.2,10.2,10.2s10.2-4.6,10.2-10.2
	C101.2,230,96.6,225.4,91,225.4z M87.2,231c0.8,0,1.5,0.7,1.5,1.5c0,0.8-0.7,1.5-1.5,1.5s-1.5-0.7-1.5-1.5
	C85.7,231.7,86.4,231,87.2,231z M96,239.1c-1.5,1.8-3.2,2.7-5,2.8c0,0-0.1,0-0.1,0c-3.1,0-5.5-2.6-5.6-2.8c-0.2-0.2-0.2-0.5,0-0.7
	s0.5-0.2,0.7,0c0,0,2.2,2.4,4.8,2.4c0,0,0.1,0,0.1,0c1.5,0,2.9-0.8,4.2-2.4c0.2-0.2,0.5-0.2,0.7-0.1C96.2,238.5,96.2,238.8,96,239.1
	z M94.7,234.1c-0.8,0-1.5-0.7-1.5-1.5c0-0.8,0.7-1.5,1.5-1.5s1.5,0.7,1.5,1.5C96.3,233.4,95.6,234.1,94.7,234.1z"/>
<path id="XMLID_97_" class="st7" d="M295.2,164.2h-12.3c-1.7,0-3,1.3-3,2.8v29.8c0,1.6,1.4,2.8,3,2.8h12.3c1.7,0,3-1.3,3-2.8V167
	C298.2,165.4,296.9,164.2,295.2,164.2z M287.1,165.7h3.8c0.2,0,0.4,0.2,0.4,0.4c0,0.2-0.2,0.4-0.4,0.4h-3.8c-0.2,0-0.4-0.2-0.4-0.4
	C286.7,165.9,286.9,165.7,287.1,165.7z M291.6,197.7c0,0.4-0.3,0.7-0.7,0.7h-3.6c-0.4,0-0.7-0.3-0.7-0.7v-0.2c0-0.4,0.3-0.7,0.7-0.7
	h3.6c0.4,0,0.7,0.3,0.7,0.7V197.7z M296.9,194.7h-15.7v-26h15.7V194.7z"/>
</svg>
