<?xml version="1.0" encoding="utf-8"?>
<!-- Generator: Adobe Illustrator 19.0.0, SVG Export Plug-In . SVG Version: 6.00 Build 0)  -->
<svg version="1.1" id="Capa_1" xmlns="http://www.w3.org/2000/svg" xmlns:xlink="http://www.w3.org/1999/xlink" x="0px" y="0px"
	 viewBox="0 0 390 316.3" style="enable-background:new 0 0 390 316.3;" xml:space="preserve">
<style type="text/css">
	.st0{fill:none;stroke:#7D7D7D;stroke-width:2;stroke-linecap:round;stroke-linejoin:round;stroke-miterlimit:10;}
	.st1{fill:#7D7D7D;}
	.st2{fill:none;stroke:#FFFFFF;stroke-width:2;stroke-linecap:round;stroke-linejoin:round;stroke-miterlimit:10;}
	.st3{fill:#8CD4E0;}
	.st4{fill:#FFFFFF;}
	.st5{fill:none;stroke:#CCCBCC;stroke-miterlimit:10;}
	.st6{fill:#E54A3F;}
	.st7{fill:#F7AF19;}
	.st8{fill:#093D5F;}
	.st9{fill:#CCCBCC;}
	.st10{fill:#444849;}
	.st11{fill:#2C2C22;}
	.st12{fill:none;stroke:#444849;stroke-miterlimit:10;}
	.st13{fill:#E2E2E1;}
	.st14{fill:#CB844C;}
	.st15{fill:none;stroke:#E2E2E1;stroke-miterlimit:10;}
	.st16{fill:#B9B9BA;}
	.st17{fill:#3C5E99;}
	.st18{opacity:0.1;fill:#E2E2E1;}
</style>
<g id="XMLID_133196_">
	<path id="XMLID_133634_" class="st0" d="M290.2,190.6c0,0-1.6-7.2,3.7-17.8s8.1-32.1-15.1-13.2s-47.9,17.7-65.6,4.4
		c-17.6-13.2-12.5-31.9,8.9-46.9"/>
	<path id="XMLID_133633_" class="st0" d="M362.4,213.6c0,0-0.8-6.4-5.3-14.4c-4.5-8-9.1-15.9,1.6-29.2
		c24.7-30.6-8.9-100.3-70.9-77.4"/>
	<path id="XMLID_133632_" class="st1" d="M294.9,188.5l-157,28.3c-5,0.9-8.4,5.7-7.5,10.7l10.7,59c0.9,5,5.7,8.4,10.7,7.5l157-28.3
		c5-0.9,8.4-5.7,7.5-10.7l-10.7-59C304.8,191,300,187.6,294.9,188.5z"/>
	<path id="XMLID_133629_" class="st1" d="M120.9,247.3l-12.9-22.2l-1.1,0.7l0,0l-0.1,0.1c-0.5,0.3-0.9,0.8-1.1,1.5
		c-0.2,0.7,0,1.3,0.3,1.9l4.4,7.6l-0.6,0.4l-0.5-0.8l0,0l-20.4-35l-7.4-7c-0.3-0.4-0.8-0.6-1.2-0.3c-0.4,0.3-0.6,0.8-0.3,1.2
		c0,0,0,0,0,0l2.5,9.9l21.5,36.9l0.8,1.5l0,0l5.6,9.6l0,0l0.2,0.4l3.2-1.9l-2.4,1.4l5.4,9.2c0.3,0.5,0.8,0.9,1.5,1.1
		c0.6,0.2,1.3,0.1,1.8-0.2l0.7-0.4c0.5-0.3,0.9-0.8,1.1-1.5c0.2-0.6,0.1-1.3-0.2-1.8l-5.4-9.2l0.8-0.5l-1.1-1.8l0.6,1.1l0.6-0.4
		l1.6,2.7l1.3-0.7c0.3-0.2,0.6-0.5,0.8-0.8l0,0c0,0,0,0,0,0c0.1-0.1,0.1-0.2,0.2-0.3c0.1-0.1,0.1-0.2,0.1-0.4
		C121.3,248.5,121.2,247.9,120.9,247.3z M115.5,247.3l-4.4-7.5l0,0l-0.5-0.8l0.6-0.4l4.8,8.3L115.5,247.3z"/>
	<path id="XMLID_133628_" class="st1" d="M68.3,197.5l-8.3,4.9c-0.5-0.8-1.6-1.1-2.4-0.6c-0.8,0.5-1.1,1.5-0.7,2.4l-2.3,1.4
		c-0.5-0.8-1.6-1.1-2.4-0.6c-0.8,0.5-1.1,1.5-0.7,2.4l-2.3,1.4c-0.5-0.8-1.6-1.1-2.4-0.6c-0.8,0.5-1.1,1.5-0.7,2.4l-2.3,1.4
		c-0.5-0.8-1.6-1.1-2.4-0.6c-0.8,0.5-1.1,1.5-0.7,2.4l-2.3,1.4c-0.5-0.8-1.6-1.1-2.4-0.6c-0.8,0.5-1.1,1.5-0.7,2.4l-2.3,1.4
		c-0.5-0.8-1.6-1.1-2.4-0.6c-0.8,0.5-1.1,1.5-0.7,2.4l-2.3,1.4c-0.5-0.8-1.6-1.1-2.4-0.6c-0.8,0.5-1.1,1.5-0.7,2.4l-2.3,1.4
		c-0.5-0.8-1.6-1.1-2.4-0.6c-0.8,0.5-1.1,1.5-0.7,2.4l-2.3,1.4c-0.5-0.8-1.6-1.1-2.4-0.6c-0.8,0.5-1.1,1.5-0.7,2.4l-8.3,4.9
		l47.9,82.2l62.7-36.5L68.3,197.5z"/>
	<path id="XMLID_133627_" class="st1" d="M383.3,221c-0.8-1.1-1.8-2.1-3-2.8l-4.6-2.9c-1.3-0.8-2.8-1.4-4.5-1.5
		c-1.6-0.2-3.2,0.1-4.7,0.6l-5.3,2c-1.4,0.5-2.7,1.4-3.9,2.5c-1.1,1.1-1.9,2.5-2.4,3.9l-1.9,5.4c-0.4,1.3-0.6,2.7-0.5,4.1
		c0.1,1.4,0.5,2.8,1.1,4l9.2,18.1c1.1,2.2,3,4,5.5,5c2.5,1,5.1,0.9,7.4,0.1l7.3-2.7c2.3-0.9,4.3-2.5,5.6-4.9c1.3-2.4,1.5-5,1-7.4
		l-4.7-19.9C384.7,223.4,384.1,222.1,383.3,221z"/>
	<path id="XMLID_133626_" class="st1" d="M126.2,134.3l-1.1-1.8c-0.2-0.4-0.6-0.7-1.1-0.8c-0.5-0.1-0.9,0-1.3,0.2l-4,2.3
		c-8.4-11.8-24.6-15.4-37.4-8c-13.1,7.7-17.9,24.2-10.9,37.6c0.2,0.4,0.5,0.9,0.7,1.3c0,0,0,0,0,0c0.3,0.6,0.7,1.2,1.1,1.7
		c0.1,0.1,0.2,0.3,0.3,0.4c0.4,0.5,0.8,1.1,1.2,1.6c0.1,0.1,0.2,0.2,0.3,0.4c0.4,0.4,0.8,0.9,1.1,1.3c0.1,0.1,0.2,0.2,0.3,0.3
		c0.4,0.4,0.9,0.9,1.4,1.3c0.1,0.1,0.3,0.3,0.4,0.4c0.5,0.4,0.9,0.8,1.4,1.1c0.1,0.1,0.3,0.2,0.4,0.3c0.4,0.3,0.8,0.6,1.2,0.8
		c0.2,0.1,0.3,0.2,0.5,0.3c0.5,0.3,1,0.6,1.5,0.9c0.2,0.1,0.4,0.2,0.6,0.3c0.4,0.2,0.9,0.4,1.3,0.6c0.2,0.1,0.5,0.2,0.7,0.3
		c0.4,0.2,0.9,0.3,1.3,0.5c0.2,0.1,0.5,0.2,0.7,0.2c0.5,0.2,1.1,0.3,1.6,0.5c0.2,0.1,0.5,0.1,0.7,0.2c0.4,0.1,0.8,0.2,1.2,0.3
		c0.3,0.1,0.6,0.1,0.8,0.1c0.5,0.1,1,0.1,1.5,0.2c0.3,0,0.5,0.1,0.8,0.1c0.5,0,1,0.1,1.5,0.1c0.3,0,0.6,0,0.9,0c0.4,0,0.8,0,1.1,0
		c0.3,0,0.5,0,0.8,0c0.5,0,1.1-0.1,1.6-0.2c0.3,0,0.6-0.1,0.9-0.1c0.4-0.1,0.8-0.1,1.2-0.2c0.2,0,0.4-0.1,0.6-0.1c0,0,0,0,0,0
		c2.7-0.6,5.4-1.7,7.9-3.2c12.7-7.4,17.5-23.2,11.6-36.3l4-2.3c0.4-0.2,0.7-0.6,0.8-1.1C126.5,135.1,126.4,134.6,126.2,134.3z"/>
	<path id="XMLID_133625_" class="st2" d="M288.6,191.2c0,0-1.6-7.2,3.7-17.8s8.1-32.1-15.1-13.2s-47.9,17.7-65.6,4.4
		c-17.6-13.2-12.5-31.9,8.9-46.9"/>
	<path id="XMLID_133624_" class="st2" d="M361.4,214c0,0-0.8-6.4-5.3-14.4c-4.5-8-9.1-15.9,1.6-29.2c24.7-30.6-8.9-100.3-70.9-77.4"
		/>
	<g id="XMLID_133573_">
		
			<rect id="XMLID_133623_" x="19" y="207.8" transform="matrix(0.864 -0.5035 0.5035 0.864 -121.0531 62.5845)" class="st3" width="72.6" height="95.1"/>
		<path id="XMLID_133612_" class="st1" d="M6.5,237.2l42.6,73.1L97.6,282l3.6-13.6l-37.6-64.5L6.5,237.2z M17.3,239.6
			c-1.2,0.7-2.8,0.3-3.6-0.9c-0.7-1.2-0.3-2.8,0.9-3.6c1.2-0.7,2.8-0.3,3.6,0.9C19,237.3,18.6,238.9,17.3,239.6z M22.7,236.4
			c-1.2,0.7-2.8,0.3-3.6-0.9c-0.7-1.2-0.3-2.8,0.9-3.6c1.2-0.7,2.8-0.3,3.6,0.9C24.4,234.1,23.9,235.7,22.7,236.4z M28.1,233.3
			c-1.2,0.7-2.8,0.3-3.6-0.9c-0.7-1.2-0.3-2.8,0.9-3.6c1.2-0.7,2.8-0.3,3.6,0.9C29.7,231,29.3,232.6,28.1,233.3z M33.4,230.2
			c-1.2,0.7-2.8,0.3-3.6-0.9c-0.7-1.2-0.3-2.8,0.9-3.6c1.2-0.7,2.8-0.3,3.6,0.9C35.1,227.9,34.7,229.5,33.4,230.2z M38.8,227.1
			c-1.2,0.7-2.8,0.3-3.6-0.9c-0.7-1.2-0.3-2.8,0.9-3.6c1.2-0.7,2.8-0.3,3.6,0.9C40.5,224.7,40.1,226.3,38.8,227.1z M44.2,223.9
			c-1.2,0.7-2.8,0.3-3.6-0.9c-0.7-1.2-0.3-2.8,0.9-3.6c1.2-0.7,2.8-0.3,3.6,0.9C45.9,221.6,45.4,223.2,44.2,223.9z M49.6,220.8
			c-1.2,0.7-2.8,0.3-3.6-0.9s-0.3-2.8,0.9-3.6c1.2-0.7,2.8-0.3,3.6,0.9C51.2,218.5,50.8,220.1,49.6,220.8z M54.9,217.7
			c-1.2,0.7-2.8,0.3-3.6-0.9c-0.7-1.2-0.3-2.8,0.9-3.6c1.2-0.7,2.8-0.3,3.6,0.9C56.6,215.3,56.2,216.9,54.9,217.7z M60.3,214.5
			c-1.2,0.7-2.8,0.3-3.6-0.9c-0.7-1.2-0.3-2.8,0.9-3.6c1.2-0.7,2.8-0.3,3.6,0.9C62,212.2,61.5,213.8,60.3,214.5z"/>
		<path id="XMLID_133601_" class="st4" d="M5.6,235.6l42.6,73.1l48.5-28.3l3.6-13.6l-37.6-64.5L5.6,235.6z M16.4,238
			c-1.2,0.7-2.8,0.3-3.6-0.9c-0.7-1.2-0.3-2.8,0.9-3.6c1.2-0.7,2.8-0.3,3.6,0.9C18.1,235.7,17.7,237.3,16.4,238z M21.8,234.9
			c-1.2,0.7-2.8,0.3-3.6-0.9c-0.7-1.2-0.3-2.8,0.9-3.6c1.2-0.7,2.8-0.3,3.6,0.9C23.5,232.6,23.1,234.2,21.8,234.9z M27.2,231.8
			c-1.2,0.7-2.8,0.3-3.6-0.9c-0.7-1.2-0.3-2.8,0.9-3.6c1.2-0.7,2.8-0.3,3.6,0.9C28.8,229.5,28.4,231.1,27.2,231.8z M32.6,228.6
			c-1.2,0.7-2.8,0.3-3.6-0.9c-0.7-1.2-0.3-2.8,0.9-3.6c1.2-0.7,2.8-0.3,3.6,0.9C34.2,226.3,33.8,227.9,32.6,228.6z M37.9,225.5
			c-1.2,0.7-2.8,0.3-3.6-0.9c-0.7-1.2-0.3-2.8,0.9-3.6c1.2-0.7,2.8-0.3,3.6,0.9C39.6,223.2,39.2,224.8,37.9,225.5z M43.3,222.4
			c-1.2,0.7-2.8,0.3-3.6-0.9c-0.7-1.2-0.3-2.8,0.9-3.6c1.2-0.7,2.8-0.3,3.6,0.9C45,220.1,44.5,221.7,43.3,222.4z M48.7,219.3
			c-1.2,0.7-2.8,0.3-3.6-0.9c-0.7-1.2-0.3-2.8,0.9-3.6c1.2-0.7,2.8-0.3,3.6,0.9C50.3,216.9,49.9,218.5,48.7,219.3z M54,216.1
			c-1.2,0.7-2.8,0.3-3.6-0.9c-0.7-1.2-0.3-2.8,0.9-3.6c1.2-0.7,2.8-0.3,3.6,0.9C55.7,213.8,55.3,215.4,54,216.1z M59.4,213
			c-1.2,0.7-2.8,0.3-3.6-0.9c-0.7-1.2-0.3-2.8,0.9-3.6c1.2-0.7,2.8-0.3,3.6,0.9C61.1,210.7,60.7,212.3,59.4,213z"/>
		<polygon id="XMLID_133600_" class="st1" points="96.7,280.5 100.3,266.9 91.7,271.9 		"/>
		<g id="XMLID_133584_">
			<line id="XMLID_133599_" class="st5" x1="16" y1="240.9" x2="62.1" y2="214"/>
			<line id="XMLID_133598_" class="st5" x1="19.1" y1="246.2" x2="65.2" y2="219.3"/>
			<line id="XMLID_133597_" class="st5" x1="22.2" y1="251.5" x2="54.4" y2="232.7"/>
			<line id="XMLID_133596_" class="st5" x1="25.3" y1="256.7" x2="57.5" y2="238"/>
			<line id="XMLID_133595_" class="st5" x1="28.4" y1="262" x2="60.6" y2="243.3"/>
			<line id="XMLID_133594_" class="st5" x1="31.5" y1="267.3" x2="77.5" y2="240.5"/>
			<line id="XMLID_133593_" class="st5" x1="34.5" y1="272.6" x2="80.6" y2="245.8"/>
			<line id="XMLID_133592_" class="st5" x1="37.6" y1="277.9" x2="83.7" y2="251.1"/>
			<line id="XMLID_133591_" class="st5" x1="40.7" y1="283.2" x2="86.7" y2="256.4"/>
			
				<rect id="XMLID_133590_" x="58.8" y="227.2" transform="matrix(0.864 -0.5035 0.5035 0.864 -108.569 64.7243)" class="st5" width="13.5" height="12.2"/>
			<g id="XMLID_133585_">
				
					<rect id="XMLID_133589_" x="45.5" y="284.7" transform="matrix(0.8639 -0.5036 0.5036 0.8639 -139.9033 63.6565)" class="st6" width="4.8" height="11.9"/>
				
					<rect id="XMLID_133588_" x="53.5" y="285.5" transform="matrix(0.864 -0.5035 0.5035 0.864 -137.8902 67.4178)" class="st7" width="4.8" height="6.9"/>
				
					<rect id="XMLID_133587_" x="59.8" y="280" transform="matrix(0.864 -0.5035 0.5035 0.864 -134.7026 69.9838)" class="st8" width="4.8" height="8.5"/>
				
					<rect id="XMLID_133586_" x="65.7" y="272.9" transform="matrix(0.864 -0.5036 0.5036 0.864 -131.188 72.2192)" class="st9" width="4.8" height="11.9"/>
			</g>
		</g>
		<g id="XMLID_133574_">
			<path id="XMLID_133583_" class="st10" d="M15.7,233.3c0.5,0.9,0.2,2-0.6,2.5c-0.8,0.5-2,0.2-2.5-0.7l-4.3-7.4
				c-0.5-0.9-0.2-2,0.6-2.5c0.8-0.5,2-0.2,2.5,0.7L15.7,233.3z"/>
			<path id="XMLID_133582_" class="st10" d="M21.1,230.2c0.5,0.9,0.2,2-0.6,2.5c-0.8,0.5-2,0.2-2.5-0.7l-4.3-7.4
				c-0.5-0.9-0.2-2,0.6-2.5c0.8-0.5,2-0.2,2.5,0.7L21.1,230.2z"/>
			<path id="XMLID_133581_" class="st10" d="M26.5,227.1c0.5,0.9,0.2,2-0.6,2.5c-0.8,0.5-2,0.2-2.5-0.7l-4.3-7.4
				c-0.5-0.9-0.2-2,0.6-2.5c0.8-0.5,2-0.2,2.5,0.7L26.5,227.1z"/>
			<path id="XMLID_133580_" class="st10" d="M31.9,223.9c0.5,0.9,0.2,2-0.6,2.5c-0.8,0.5-2,0.2-2.5-0.7l-4.3-7.4
				c-0.5-0.9-0.2-2,0.6-2.5c0.8-0.5,2-0.2,2.5,0.7L31.9,223.9z"/>
			<path id="XMLID_133579_" class="st10" d="M37.2,220.8c0.5,0.9,0.2,2-0.6,2.5c-0.8,0.5-2,0.2-2.5-0.7l-4.3-7.4
				c-0.5-0.9-0.2-2,0.6-2.5c0.8-0.5,2-0.2,2.5,0.7L37.2,220.8z"/>
			<path id="XMLID_133578_" class="st10" d="M42.6,217.7c0.5,0.9,0.2,2-0.6,2.5c-0.8,0.5-2,0.2-2.5-0.7l-4.3-7.4
				c-0.5-0.9-0.2-2,0.6-2.5c0.8-0.5,2-0.2,2.5,0.7L42.6,217.7z"/>
			<path id="XMLID_133577_" class="st10" d="M48,214.5c0.5,0.9,0.2,2-0.6,2.5c-0.8,0.5-2,0.2-2.5-0.7l-4.3-7.4
				c-0.5-0.9-0.2-2,0.6-2.5c0.8-0.5,2-0.2,2.5,0.7L48,214.5z"/>
			<path id="XMLID_133576_" class="st10" d="M53.3,211.4c0.5,0.9,0.2,2-0.6,2.5c-0.8,0.5-2,0.2-2.5-0.7l-4.3-7.4
				c-0.5-0.9-0.2-2,0.6-2.5c0.8-0.5,2-0.2,2.5,0.7L53.3,211.4z"/>
			<path id="XMLID_133575_" class="st10" d="M58.7,208.3c0.5,0.9,0.2,2-0.6,2.5c-0.8,0.5-2,0.2-2.5-0.7l-4.3-7.4
				c-0.5-0.9-0.2-2,0.6-2.5c0.8-0.5,2-0.2,2.5,0.7L58.7,208.3z"/>
		</g>
	</g>
	<g id="XMLID_133311_">
		<g id="XMLID_133570_">
			<path id="XMLID_167_" class="st4" d="M312.3,252c1,5.4-2.7,10.6-8.1,11.6l-155.5,28.1c-5.4,1-10.6-2.7-11.6-8.1l-10.4-57.5
				c-1-5.4,2.7-10.6,8.1-11.6l155.5-28.1c5.4-1,10.6,2.7,11.6,8.1L312.3,252z"/>
		</g>
		<g id="XMLID_133312_">
			<g id="XMLID_133567_">
				<path id="XMLID_163_" class="st11" d="M153.6,224.5c0.2,1.1-0.5,2.1-1.6,2.3l-4.3,0.8c-1.1,0.2-2.1-0.5-2.3-1.6l-0.8-4.3
					c-0.2-1.1,0.5-2.1,1.6-2.3l4.3-0.8c1.1-0.2,2.1,0.5,2.3,1.6L153.6,224.5z"/>
			</g>
			<g id="XMLID_133564_">
				<path id="XMLID_161_" class="st11" d="M164.5,222.5c0.2,1.1-0.5,2.1-1.6,2.3l-4.3,0.8c-1.1,0.2-2.1-0.5-2.3-1.6l-0.8-4.3
					c-0.2-1.1,0.5-2.1,1.6-2.3l4.3-0.8c1.1-0.2,2.1,0.5,2.3,1.6L164.5,222.5z"/>
			</g>
			<g id="XMLID_133561_">
				<path id="XMLID_159_" class="st11" d="M175.4,220.6c0.2,1.1-0.5,2.1-1.6,2.3l-4.3,0.8c-1.1,0.2-2.1-0.5-2.3-1.6l-0.8-4.3
					c-0.2-1.1,0.5-2.1,1.6-2.3l4.3-0.8c1.1-0.2,2.1,0.5,2.3,1.6L175.4,220.6z"/>
			</g>
			<g id="XMLID_133558_">
				<path id="XMLID_157_" class="st11" d="M186.3,218.6c0.2,1.1-0.5,2.1-1.6,2.3l-4.3,0.8c-1.1,0.2-2.1-0.5-2.3-1.6l-0.8-4.3
					c-0.2-1.1,0.5-2.1,1.6-2.3l4.3-0.8c1.1-0.2,2.1,0.5,2.3,1.6L186.3,218.6z"/>
			</g>
			<g id="XMLID_133555_">
				<path id="XMLID_155_" class="st11" d="M197.2,216.6c0.2,1.1-0.5,2.1-1.6,2.3l-4.3,0.8c-1.1,0.2-2.1-0.5-2.3-1.6l-0.8-4.3
					c-0.2-1.1,0.5-2.1,1.6-2.3l4.3-0.8c1.1-0.2,2.1,0.5,2.3,1.6L197.2,216.6z"/>
			</g>
			<g id="XMLID_133552_">
				<path id="XMLID_153_" class="st11" d="M208.1,214.7c0.2,1.1-0.5,2.1-1.6,2.3l-4.3,0.8c-1.1,0.2-2.1-0.5-2.3-1.6l-0.8-4.3
					c-0.2-1.1,0.5-2.1,1.6-2.3l4.3-0.8c1.1-0.2,2.1,0.5,2.3,1.6L208.1,214.7z"/>
			</g>
			<g id="XMLID_133549_">
				<path id="XMLID_151_" class="st11" d="M219,212.7c0.2,1.1-0.5,2.1-1.6,2.3l-4.3,0.8c-1.1,0.2-2.1-0.5-2.3-1.6l-0.8-4.3
					c-0.2-1.1,0.5-2.1,1.6-2.3l4.3-0.8c1.1-0.2,2.1,0.5,2.3,1.6L219,212.7z"/>
			</g>
			<g id="XMLID_133546_">
				<path id="XMLID_149_" class="st11" d="M229.9,210.7c0.2,1.1-0.5,2.1-1.6,2.3l-4.3,0.8c-1.1,0.2-2.1-0.5-2.3-1.6l-0.8-4.3
					c-0.2-1.1,0.5-2.1,1.6-2.3l4.3-0.8c1.1-0.2,2.1,0.5,2.3,1.6L229.9,210.7z"/>
			</g>
			<g id="XMLID_133543_">
				<path id="XMLID_147_" class="st11" d="M240.8,208.8c0.2,1.1-0.5,2.1-1.6,2.3l-4.3,0.8c-1.1,0.2-2.1-0.5-2.3-1.6l-0.8-4.3
					c-0.2-1.1,0.5-2.1,1.6-2.3l4.3-0.8c1.1-0.2,2.1,0.5,2.3,1.6L240.8,208.8z"/>
			</g>
			<g id="XMLID_133540_">
				<path id="XMLID_145_" class="st11" d="M251.7,206.8c0.2,1.1-0.5,2.1-1.6,2.3l-4.3,0.8c-1.1,0.2-2.1-0.5-2.3-1.6l-0.8-4.3
					c-0.2-1.1,0.5-2.1,1.6-2.3l4.3-0.8c1.1-0.2,2.1,0.5,2.3,1.6L251.7,206.8z"/>
			</g>
			<g id="XMLID_133537_">
				<path id="XMLID_143_" class="st11" d="M262.7,204.8c0.2,1.1-0.5,2.1-1.6,2.3l-4.3,0.8c-1.1,0.2-2.1-0.5-2.3-1.6l-0.8-4.3
					c-0.2-1.1,0.5-2.1,1.6-2.3l4.3-0.8c1.1-0.2,2.1,0.5,2.3,1.6L262.7,204.8z"/>
			</g>
			<g id="XMLID_133534_">
				<path id="XMLID_141_" class="st11" d="M273.6,202.8c0.2,1.1-0.5,2.1-1.6,2.3l-4.3,0.8c-1.1,0.2-2.1-0.5-2.3-1.6l-0.8-4.3
					c-0.2-1.1,0.5-2.1,1.6-2.3l4.3-0.8c1.1-0.2,2.1,0.5,2.3,1.6L273.6,202.8z"/>
			</g>
			<g id="XMLID_133531_">
				<path id="XMLID_139_" class="st11" d="M284.5,200.9c0.2,1.1-0.5,2.1-1.6,2.3l-4.3,0.8c-1.1,0.2-2.1-0.5-2.3-1.6l-0.8-4.3
					c-0.2-1.1,0.5-2.1,1.6-2.3l4.3-0.8c1.1-0.2,2.1,0.5,2.3,1.6L284.5,200.9z"/>
			</g>
			<g id="XMLID_133528_">
				<path id="XMLID_137_" class="st11" d="M295.4,198.9c0.2,1.1-0.5,2.1-1.6,2.3l-4.3,0.8c-1.1,0.2-2.1-0.5-2.3-1.6l-0.8-4.3
					c-0.2-1.1,0.5-2.1,1.6-2.3l4.3-0.8c1.1-0.2,2.1,0.5,2.3,1.6L295.4,198.9z"/>
			</g>
			<g id="XMLID_133525_">
				<path id="XMLID_135_" class="st11" d="M156.2,235.5c0.2,1.1-0.5,2.1-1.6,2.3l-4.3,0.8c-1.1,0.2-2.1-0.5-2.3-1.6l-0.8-4.3
					c-0.2-1.1,0.5-2.1,1.6-2.3l4.3-0.8c1.1-0.2,2.1,0.5,2.3,1.6L156.2,235.5z"/>
			</g>
			<g id="XMLID_133522_">
				<path id="XMLID_133_" class="st11" d="M167.1,233.5c0.2,1.1-0.5,2.1-1.6,2.3l-4.3,0.8c-1.1,0.2-2.1-0.5-2.3-1.6l-0.8-4.3
					c-0.2-1.1,0.5-2.1,1.6-2.3l4.3-0.8c1.1-0.2,2.1,0.5,2.3,1.6L167.1,233.5z"/>
			</g>
			<g id="XMLID_133519_">
				<path id="XMLID_131_" class="st11" d="M178,231.6c0.2,1.1-0.5,2.1-1.6,2.3l-4.3,0.8c-1.1,0.2-2.1-0.5-2.3-1.6l-0.8-4.3
					c-0.2-1.1,0.5-2.1,1.6-2.3l4.3-0.8c1.1-0.2,2.1,0.5,2.3,1.6L178,231.6z"/>
			</g>
			<g id="XMLID_133516_">
				<path id="XMLID_129_" class="st11" d="M188.8,229.6c0.2,1.1-0.5,2.1-1.6,2.3l-4.3,0.8c-1.1,0.2-2.1-0.5-2.3-1.6l-0.8-4.3
					c-0.2-1.1,0.5-2.1,1.6-2.3l4.3-0.8c1.1-0.2,2.1,0.5,2.3,1.6L188.8,229.6z"/>
			</g>
			<g id="XMLID_133513_">
				<path id="XMLID_127_" class="st11" d="M199.7,227.7c0.2,1.1-0.5,2.1-1.6,2.3l-4.3,0.8c-1.1,0.2-2.1-0.5-2.3-1.6l-0.8-4.3
					c-0.2-1.1,0.5-2.1,1.6-2.3l4.3-0.8c1.1-0.2,2.1,0.5,2.3,1.6L199.7,227.7z"/>
			</g>
			<g id="XMLID_133510_">
				<path id="XMLID_125_" class="st11" d="M210.5,225.7c0.2,1.1-0.5,2.1-1.6,2.3l-4.3,0.8c-1.1,0.2-2.1-0.5-2.3-1.6l-0.8-4.3
					c-0.2-1.1,0.5-2.1,1.6-2.3l4.3-0.8c1.1-0.2,2.1,0.5,2.3,1.6L210.5,225.7z"/>
			</g>
			<g id="XMLID_133507_">
				<path id="XMLID_123_" class="st11" d="M221.4,223.7c0.2,1.1-0.5,2.1-1.6,2.3l-4.3,0.8c-1.1,0.2-2.1-0.5-2.3-1.6l-0.8-4.3
					c-0.2-1.1,0.5-2.1,1.6-2.3l4.3-0.8c1.1-0.2,2.1,0.5,2.3,1.6L221.4,223.7z"/>
			</g>
			<g id="XMLID_133504_">
				<path id="XMLID_121_" class="st11" d="M232.2,221.8c0.2,1.1-0.5,2.1-1.6,2.3l-4.3,0.8c-1.1,0.2-2.1-0.5-2.3-1.6l-0.8-4.3
					c-0.2-1.1,0.5-2.1,1.6-2.3l4.3-0.8c1.1-0.2,2.1,0.5,2.3,1.6L232.2,221.8z"/>
			</g>
			<g id="XMLID_133501_">
				<path id="XMLID_119_" class="st11" d="M254,217.8c0.2,1.1-0.5,2.1-1.6,2.3l-15.1,2.7c-1.1,0.2-2.1-0.5-2.3-1.6l-0.8-4.3
					c-0.2-1.1,0.5-2.1,1.6-2.3l15.1-2.7c1.1-0.2,2.1,0.5,2.3,1.6L254,217.8z"/>
			</g>
			<g id="XMLID_133498_">
				<path id="XMLID_117_" class="st11" d="M264.8,215.9c0.2,1.1-0.5,2.1-1.6,2.3l-4.3,0.8c-1.1,0.2-2.1-0.5-2.3-1.6l-0.8-4.3
					c-0.2-1.1,0.5-2.1,1.6-2.3l4.3-0.8c1.1-0.2,2.1,0.5,2.3,1.6L264.8,215.9z"/>
			</g>
			<g id="XMLID_133495_">
				<path id="XMLID_115_" class="st11" d="M275.7,213.9c0.2,1.1-0.5,2.1-1.6,2.3l-4.3,0.8c-1.1,0.2-2.1-0.5-2.3-1.6l-0.8-4.3
					c-0.2-1.1,0.5-2.1,1.6-2.3l4.3-0.8c1.1-0.2,2.1,0.5,2.3,1.6L275.7,213.9z"/>
			</g>
			<g id="XMLID_133492_">
				<path id="XMLID_113_" class="st11" d="M286.5,212c0.2,1.1-0.5,2.1-1.6,2.3l-4.3,0.8c-1.1,0.2-2.1-0.5-2.3-1.6l-0.8-4.3
					c-0.2-1.1,0.5-2.1,1.6-2.3l4.3-0.8c1.1-0.2,2.1,0.5,2.3,1.6L286.5,212z"/>
			</g>
			<g id="XMLID_133489_">
				<path id="XMLID_111_" class="st11" d="M297.4,210c0.2,1.1-0.5,2.1-1.6,2.3l-4.3,0.8c-1.1,0.2-2.1-0.5-2.3-1.6l-0.8-4.3
					c-0.2-1.1,0.5-2.1,1.6-2.3l4.3-0.8c1.1-0.2,2.1,0.5,2.3,1.6L297.4,210z"/>
			</g>
			<g id="XMLID_133486_">
				<path id="XMLID_109_" class="st11" d="M166.3,245.1c0.2,1.1-0.5,2.1-1.6,2.3l-4.3,0.8c-1.1,0.2-2.1-0.5-2.3-1.6l-0.8-4.3
					c-0.2-1.1,0.5-2.1,1.6-2.3l4.3-0.8c1.1-0.2,2.1,0.5,2.3,1.6L166.3,245.1z"/>
			</g>
			<g id="XMLID_133483_">
				<path id="XMLID_107_" class="st11" d="M177.3,243.1c0.2,1.1-0.5,2.1-1.6,2.3l-4.3,0.8c-1.1,0.2-2.1-0.5-2.3-1.6l-0.8-4.3
					c-0.2-1.1,0.5-2.1,1.6-2.3l4.3-0.8c1.1-0.2,2.1,0.5,2.3,1.6L177.3,243.1z"/>
			</g>
			<g id="XMLID_133480_">
				<path id="XMLID_105_" class="st11" d="M188.2,241.2c0.2,1.1-0.5,2.1-1.6,2.3l-4.3,0.8c-1.1,0.2-2.1-0.5-2.3-1.6l-0.8-4.3
					c-0.2-1.1,0.5-2.1,1.6-2.3l4.3-0.8c1.1-0.2,2.1,0.5,2.3,1.6L188.2,241.2z"/>
			</g>
			<g id="XMLID_133477_">
				<path id="XMLID_103_" class="st11" d="M199,239.2c0.2,1.1-0.5,2.1-1.6,2.3l-4.3,0.8c-1.1,0.2-2.1-0.5-2.3-1.6l-0.8-4.3
					c-0.2-1.1,0.5-2.1,1.6-2.3l4.3-0.8c1.1-0.2,2.1,0.5,2.3,1.6L199,239.2z"/>
			</g>
			<g id="XMLID_133474_">
				<path id="XMLID_101_" class="st11" d="M209.9,237.3c0.2,1.1-0.5,2.1-1.6,2.3l-4.3,0.8c-1.1,0.2-2.1-0.5-2.3-1.6l-0.8-4.3
					c-0.2-1.1,0.5-2.1,1.6-2.3l4.3-0.8c1.1-0.2,2.1,0.5,2.3,1.6L209.9,237.3z"/>
			</g>
			<g id="XMLID_133471_">
				<path id="XMLID_99_" class="st11" d="M220.7,235.3c0.2,1.1-0.5,2.1-1.6,2.3l-4.3,0.8c-1.1,0.2-2.1-0.5-2.3-1.6l-0.8-4.3
					c-0.2-1.1,0.5-2.1,1.6-2.3l4.3-0.8c1.1-0.2,2.1,0.5,2.3,1.6L220.7,235.3z"/>
			</g>
			<g id="XMLID_133468_">
				<path id="XMLID_97_" class="st11" d="M231.6,233.3c0.2,1.1-0.5,2.1-1.6,2.3l-4.3,0.8c-1.1,0.2-2.1-0.5-2.3-1.6l-0.8-4.3
					c-0.2-1.1,0.5-2.1,1.6-2.3l4.3-0.8c1.1-0.2,2.1,0.5,2.3,1.6L231.6,233.3z"/>
			</g>
			<g id="XMLID_133465_">
				<path id="XMLID_95_" class="st11" d="M266.8,227c0.2,1.1-0.5,2.1-1.6,2.3l-4.3,0.8c-1.1,0.2-2.1-0.5-2.3-1.6l-0.8-4.3
					c-0.2-1.1,0.5-2.1,1.6-2.3l4.3-0.8c1.1-0.2,2.1,0.5,2.3,1.6L266.8,227z"/>
			</g>
			<g id="XMLID_133462_">
				<path id="XMLID_93_" class="st11" d="M277.7,225c0.2,1.1-0.5,2.1-1.6,2.3l-4.3,0.8c-1.1,0.2-2.1-0.5-2.3-1.6l-0.8-4.3
					c-0.2-1.1,0.5-2.1,1.6-2.3l4.3-0.8c1.1-0.2,2.1,0.5,2.3,1.6L277.7,225z"/>
			</g>
			<g id="XMLID_133459_">
				<path id="XMLID_91_" class="st11" d="M288.5,223.1c0.2,1.1-0.5,2.1-1.6,2.3l-4.3,0.8c-1.1,0.2-2.1-0.5-2.3-1.6l-0.8-4.3
					c-0.2-1.1,0.5-2.1,1.6-2.3l4.3-0.8c1.1-0.2,2.1,0.5,2.3,1.6L288.5,223.1z"/>
			</g>
			<g id="XMLID_133456_">
				<path id="XMLID_89_" class="st11" d="M173.8,255.3c0.2,1.1-0.5,2.1-1.6,2.3l-4.3,0.8c-1.1,0.2-2.1-0.5-2.3-1.6l-0.8-4.3
					c-0.2-1.1,0.5-2.1,1.6-2.3l4.3-0.8c1.1-0.2,2.1,0.5,2.3,1.6L173.8,255.3z"/>
			</g>
			<g id="XMLID_133453_">
				<path id="XMLID_87_" class="st11" d="M184.6,253.3c0.2,1.1-0.5,2.1-1.6,2.3l-4.3,0.8c-1.1,0.2-2.1-0.5-2.3-1.6l-0.8-4.3
					c-0.2-1.1,0.5-2.1,1.6-2.3l4.3-0.8c1.1-0.2,2.1,0.5,2.3,1.6L184.6,253.3z"/>
			</g>
			<g id="XMLID_133450_">
				<path id="XMLID_85_" class="st11" d="M195.5,251.3c0.2,1.1-0.5,2.1-1.6,2.3l-4.3,0.8c-1.1,0.2-2.1-0.5-2.3-1.6l-0.8-4.3
					c-0.2-1.1,0.5-2.1,1.6-2.3l4.3-0.8c1.1-0.2,2.1,0.5,2.3,1.6L195.5,251.3z"/>
			</g>
			<g id="XMLID_133447_">
				<path id="XMLID_83_" class="st11" d="M206.3,249.4c0.2,1.1-0.5,2.1-1.6,2.3l-4.3,0.8c-1.1,0.2-2.1-0.5-2.3-1.6l-0.8-4.3
					c-0.2-1.1,0.5-2.1,1.6-2.3l4.3-0.8c1.1-0.2,2.1,0.5,2.3,1.6L206.3,249.4z"/>
			</g>
			<g id="XMLID_133444_">
				<path id="XMLID_81_" class="st11" d="M217.2,247.4c0.2,1.1-0.5,2.1-1.6,2.3l-4.3,0.8c-1.1,0.2-2.1-0.5-2.3-1.6l-0.8-4.3
					c-0.2-1.1,0.5-2.1,1.6-2.3l4.3-0.8c1.1-0.2,2.1,0.5,2.3,1.6L217.2,247.4z"/>
			</g>
			<g id="XMLID_133441_">
				<path id="XMLID_79_" class="st11" d="M228,245.4c0.2,1.1-0.5,2.1-1.6,2.3l-4.3,0.8c-1.1,0.2-2.1-0.5-2.3-1.6l-0.8-4.3
					c-0.2-1.1,0.5-2.1,1.6-2.3l4.3-0.8c1.1-0.2,2.1,0.5,2.3,1.6L228,245.4z"/>
			</g>
			<g id="XMLID_133438_">
				<path id="XMLID_77_" class="st11" d="M238.9,243.5c0.2,1.1-0.5,2.1-1.6,2.3l-4.3,0.8c-1.1,0.2-2.1-0.5-2.3-1.6l-0.8-4.3
					c-0.2-1.1,0.5-2.1,1.6-2.3l4.3-0.8c1.1-0.2,2.1,0.5,2.3,1.6L238.9,243.5z"/>
			</g>
			<g id="XMLID_133435_">
				<path id="XMLID_75_" class="st11" d="M235.1,226.3c-1.1,0.2-1.8,1.2-1.6,2.3l0.8,4.3c0.2,1.1,1.2,1.8,2.3,1.6l1.4-0.2
					c1.1-0.2,2.1,0.5,2.3,1.6l1.3,7.2c0.2,1.1,1.2,1.8,2.3,1.6l12.5-2.3c1.1-0.2,1.8-1.2,1.6-2.3l-2.8-15.4
					c-0.2-1.1-1.2-1.8-2.3-1.6L235.1,226.3z"/>
			</g>
			<g id="XMLID_133432_">
				<path id="XMLID_73_" class="st11" d="M268.8,238.1c0.2,1.1-0.5,2.1-1.6,2.3l-4.3,0.8c-1.1,0.2-2.1-0.5-2.3-1.6l-0.8-4.3
					c-0.2-1.1,0.5-2.1,1.6-2.3l4.3-0.8c1.1-0.2,2.1,0.5,2.3,1.6L268.8,238.1z"/>
			</g>
			<g id="XMLID_133429_">
				<path id="XMLID_71_" class="st11" d="M279.7,236.1c0.2,1.1-0.5,2.1-1.6,2.3l-4.3,0.8c-1.1,0.2-2.1-0.5-2.3-1.6l-0.8-4.3
					c-0.2-1.1,0.5-2.1,1.6-2.3l4.3-0.8c1.1-0.2,2.1,0.5,2.3,1.6L279.7,236.1z"/>
			</g>
			<g id="XMLID_133426_">
				<path id="XMLID_69_" class="st11" d="M290.5,234.2c0.2,1.1-0.5,2.1-1.6,2.3l-4.3,0.8c-1.1,0.2-2.1-0.5-2.3-1.6l-0.8-4.3
					c-0.2-1.1,0.5-2.1,1.6-2.3l4.3-0.8c1.1-0.2,2.1,0.5,2.3,1.6L290.5,234.2z"/>
			</g>
			<g id="XMLID_133423_">
				<path id="XMLID_67_" class="st11" d="M301.4,232.2c0.2,1.1-0.5,2.1-1.6,2.3l-4.3,0.8c-1.1,0.2-2.1-0.5-2.3-1.6l-2.8-15.4
					c-0.2-1.1,0.5-2.1,1.6-2.3l4.3-0.8c1.1-0.2,2.1,0.5,2.3,1.6L301.4,232.2z"/>
			</g>
			<g id="XMLID_133420_">
				<path id="XMLID_65_" class="st11" d="M163.6,268.5c0.2,1.1-0.5,2.1-1.6,2.3l-4.3,0.8c-1.1,0.2-2.1-0.5-2.3-1.6l-0.8-4.3
					c-0.2-1.1,0.5-2.1,1.6-2.3l4.3-0.8c1.1-0.2,2.1,0.5,2.3,1.6L163.6,268.5z"/>
			</g>
			<g id="XMLID_133417_">
				<path id="XMLID_63_" class="st11" d="M174.4,266.6c0.2,1.1-0.5,2.1-1.6,2.3l-4.3,0.8c-1.1,0.2-2.1-0.5-2.3-1.6l-0.8-4.3
					c-0.2-1.1,0.5-2.1,1.6-2.3l4.3-0.8c1.1-0.2,2.1,0.5,2.3,1.6L174.4,266.6z"/>
			</g>
			<g id="XMLID_133414_">
				<path id="XMLID_61_" class="st11" d="M185.3,264.6c0.2,1.1-0.5,2.1-1.6,2.3l-4.3,0.8c-1.1,0.2-2.1-0.5-2.3-1.6l-0.8-4.3
					c-0.2-1.1,0.5-2.1,1.6-2.3l4.3-0.8c1.1-0.2,2.1,0.5,2.3,1.6L185.3,264.6z"/>
			</g>
			<g id="XMLID_133411_">
				<path id="XMLID_59_" class="st11" d="M196.1,262.7c0.2,1.1-0.5,2.1-1.6,2.3l-4.3,0.8c-1.1,0.2-2.1-0.5-2.3-1.6l-0.8-4.3
					c-0.2-1.1,0.5-2.1,1.6-2.3l4.3-0.8c1.1-0.2,2.1,0.5,2.3,1.6L196.1,262.7z"/>
			</g>
			<g id="XMLID_133383_">
				<path id="XMLID_57_" class="st11" d="M207,260.7c0.2,1.1-0.5,2.1-1.6,2.3l-4.3,0.8c-1.1,0.2-2.1-0.5-2.3-1.6l-0.8-4.3
					c-0.2-1.1,0.5-2.1,1.6-2.3l4.3-0.8c1.1-0.2,2.1,0.5,2.3,1.6L207,260.7z"/>
			</g>
			<g id="XMLID_133380_">
				<path id="XMLID_55_" class="st11" d="M217.9,258.7c0.2,1.1-0.5,2.1-1.6,2.3l-4.3,0.8c-1.1,0.2-2.1-0.5-2.3-1.6l-0.8-4.3
					c-0.2-1.1,0.5-2.1,1.6-2.3l4.3-0.8c1.1-0.2,2.1,0.5,2.3,1.6L217.9,258.7z"/>
			</g>
			<g id="XMLID_133377_">
				<path id="XMLID_53_" class="st11" d="M229.1,256.7c0.2,1.1-0.5,2.1-1.6,2.3l-4.3,0.8c-1.1,0.2-2.1-0.5-2.3-1.6l-0.8-4.3
					c-0.2-1.1,0.5-2.1,1.6-2.3l4.3-0.8c1.1-0.2,2.1,0.5,2.3,1.6L229.1,256.7z"/>
			</g>
			<g id="XMLID_133374_">
				<path id="XMLID_51_" class="st11" d="M260,251.1c0.2,1.1-0.5,2.1-1.6,2.3l-24,4.3c-1.1,0.2-2.1-0.5-2.3-1.6l-0.8-4.3
					c-0.2-1.1,0.5-2.1,1.6-2.3l24-4.3c1.1-0.2,2.1,0.5,2.3,1.6L260,251.1z"/>
			</g>
			<g id="XMLID_133371_">
				<path id="XMLID_49_" class="st11" d="M270.8,249.2c0.2,1.1-0.5,2.1-1.6,2.3l-4.3,0.8c-1.1,0.2-2.1-0.5-2.3-1.6l-0.8-4.3
					c-0.2-1.1,0.5-2.1,1.6-2.3l4.3-0.8c1.1-0.2,2.1,0.5,2.3,1.6L270.8,249.2z"/>
			</g>
			<g id="XMLID_133368_">
				<path id="XMLID_47_" class="st11" d="M281.7,247.2c0.2,1.1-0.5,2.1-1.6,2.3l-4.3,0.8c-1.1,0.2-2.1-0.5-2.3-1.6l-0.8-4.3
					c-0.2-1.1,0.5-2.1,1.6-2.3l4.3-0.8c1.1-0.2,2.1,0.5,2.3,1.6L281.7,247.2z"/>
			</g>
			<g id="XMLID_133365_">
				<path id="XMLID_45_" class="st11" d="M292.5,245.3c0.2,1.1-0.5,2.1-1.6,2.3l-4.3,0.8c-1.1,0.2-2.1-0.5-2.3-1.6l-0.8-4.3
					c-0.2-1.1,0.5-2.1,1.6-2.3l4.3-0.8c1.1-0.2,2.1,0.5,2.3,1.6L292.5,245.3z"/>
			</g>
			<g id="XMLID_133362_">
				<path id="XMLID_43_" class="st11" d="M163.5,280c0.2,1.1-0.5,2.1-1.6,2.3l-4.3,0.8c-1.1,0.2-2.1-0.5-2.3-1.6l-0.8-4.3
					c-0.2-1.1,0.5-2.1,1.6-2.3l4.3-0.8c1.1-0.2,2.1,0.5,2.3,1.6L163.5,280z"/>
			</g>
			<g id="XMLID_133358_">
				<path id="XMLID_41_" class="st11" d="M142.7,226.5c0.2,1.1-0.5,2.1-1.6,2.3l-4.3,0.8c-1.1,0.2-2.1-0.5-2.3-1.6l-0.8-4.3
					c-0.2-1.1,0.5-2.1,1.6-2.3l4.3-0.8c1.1-0.2,2.1,0.5,2.3,1.6L142.7,226.5z"/>
			</g>
			<g id="XMLID_133355_">
				<path id="XMLID_39_" class="st11" d="M144.7,237.6c0.2,1.1-0.5,2.1-1.6,2.3l-4.3,0.8c-1.1,0.2-2.1-0.5-2.3-1.6l-0.8-4.3
					c-0.2-1.1,0.5-2.1,1.6-2.3l4.3-0.8c1.1-0.2,2.1,0.5,2.3,1.6L144.7,237.6z"/>
			</g>
			<g id="XMLID_133352_">
				<path id="XMLID_37_" class="st11" d="M155.5,247.1c0.2,1.1-0.5,2.1-1.6,2.3l-13.1,2.4c-1.1,0.2-2.1-0.5-2.3-1.6l-0.8-4.3
					c-0.2-1.1,0.5-2.1,1.6-2.3l13.1-2.4c1.1-0.2,2.1,0.5,2.3,1.6L155.5,247.1z"/>
			</g>
			<g id="XMLID_133349_">
				<path id="XMLID_35_" class="st11" d="M162.9,257.2c0.2,1.1-0.5,2.1-1.6,2.3l-18.5,3.3c-1.1,0.2-2.1-0.5-2.3-1.6l-0.8-4.3
					c-0.2-1.1,0.5-2.1,1.6-2.3l18.5-3.3c1.1-0.2,2.1,0.5,2.3,1.6L162.9,257.2z"/>
			</g>
			<g id="XMLID_133346_">
				<path id="XMLID_33_" class="st11" d="M152.4,270.6c0.2,1.1-0.5,2.1-1.6,2.3l-6,1.1c-1.1,0.2-2.1-0.5-2.3-1.6l-0.8-4.3
					c-0.2-1.1,0.5-2.1,1.6-2.3l6-1.1c1.1-0.2,2.1,0.5,2.3,1.6L152.4,270.6z"/>
			</g>
			<g id="XMLID_133343_">
				<path id="XMLID_31_" class="st11" d="M152.7,282c0.2,1.1-0.5,2.1-1.6,2.3l-4.3,0.8c-1.1,0.2-2.1-0.5-2.3-1.6l-0.8-4.3
					c-0.2-1.1,0.5-2.1,1.6-2.3l4.3-0.8c1.1-0.2,2.1,0.5,2.3,1.6L152.7,282z"/>
			</g>
			<g id="XMLID_133340_">
				<path id="XMLID_29_" class="st11" d="M216.7,270.4c0.2,1.1-0.5,2.1-1.6,2.3l-46.6,8.4c-1.1,0.2-2.1-0.5-2.3-1.6l-0.8-4.3
					c-0.2-1.1,0.5-2.1,1.6-2.3l46.6-8.4c1.1-0.2,2.1,0.5,2.3,1.6L216.7,270.4z"/>
			</g>
			<g id="XMLID_133337_">
				<path id="XMLID_27_" class="st11" d="M238.8,266.4c0.2,1.1-0.5,2.1-1.6,2.3l-4.3,0.8c-1.1,0.2-2.1-0.5-2.3-1.6l-0.8-4.3
					c-0.2-1.1,0.5-2.1,1.6-2.3l4.3-0.8c1.1-0.2,2.1,0.5,2.3,1.6L238.8,266.4z"/>
			</g>
			<g id="XMLID_133334_">
				<path id="XMLID_25_" class="st11" d="M227.9,268.4c0.2,1.1-0.5,2.1-1.6,2.3l-4.3,0.8c-1.1,0.2-2.1-0.5-2.3-1.6l-0.8-4.3
					c-0.2-1.1,0.5-2.1,1.6-2.3l4.3-0.8c1.1-0.2,2.1,0.5,2.3,1.6L227.9,268.4z"/>
			</g>
			<g id="XMLID_133331_">
				<path id="XMLID_23_" class="st11" d="M255.3,258.6c0.2,0.9-0.6,1.7-1.7,1.9l-4.3,0.8c-1.1,0.2-2.1-0.3-2.3-1.2
					c-0.2-0.9,0.6-1.7,1.7-1.9l4.3-0.8C254.1,257.2,255.1,257.8,255.3,258.6z"/>
			</g>
			<g id="XMLID_133328_">
				<path id="XMLID_21_" class="st11" d="M256.2,263.6c0.2,0.9-0.6,1.8-1.7,2l-4.3,0.8c-1.1,0.2-2.1-0.4-2.3-1.3
					c-0.2-0.9,0.6-1.8,1.7-2l4.3-0.8C255,262.2,256,262.7,256.2,263.6z"/>
			</g>
			<g id="XMLID_133325_">
				<path id="XMLID_19_" class="st11" d="M262.3,262.2c0.2,1.1-0.5,2.1-1.6,2.3l-0.6,0.1c-1.1,0.2-2.1-0.5-2.3-1.6l-0.8-4.3
					c-0.2-1.1,0.5-2.1,1.6-2.3l0.6-0.1c1.1-0.2,2.1,0.5,2.3,1.6L262.3,262.2z"/>
			</g>
			<g id="XMLID_133322_">
				<path id="XMLID_17_" class="st11" d="M246.2,265.1c0.2,1.1-0.5,2.1-1.6,2.3l-0.6,0.1c-1.1,0.2-2.1-0.5-2.3-1.6l-0.8-4.3
					c-0.2-1.1,0.5-2.1,1.6-2.3l0.6-0.1c1.1-0.2,2.1,0.5,2.3,1.6L246.2,265.1z"/>
			</g>
			<g id="XMLID_133319_">
				<path id="XMLID_15_" class="st11" d="M283.7,258.3c0.2,1.1-0.5,2.1-1.6,2.3l-15.1,2.7c-1.1,0.2-2.1-0.5-2.3-1.6l-0.8-4.3
					c-0.2-1.1,0.5-2.1,1.6-2.3l15.1-2.7c1.1-0.2,2.1,0.5,2.3,1.6L283.7,258.3z"/>
			</g>
			<g id="XMLID_133316_">
				<path id="XMLID_13_" class="st11" d="M294.5,256.4c0.2,1.1-0.5,2.1-1.6,2.3l-4.3,0.8c-1.1,0.2-2.1-0.5-2.3-1.6l-0.8-4.3
					c-0.2-1.1,0.5-2.1,1.6-2.3l4.3-0.8c1.1-0.2,2.1,0.5,2.3,1.6L294.5,256.4z"/>
			</g>
			<g id="XMLID_133313_">
				<path id="XMLID_162_" class="st11" d="M305.4,254.4c0.2,1.1-0.5,2.1-1.6,2.3l-4.3,0.8c-1.1,0.2-2.1-0.5-2.3-1.6l-2.8-15.4
					c-0.2-1.1,0.5-2.1,1.6-2.3l4.3-0.8c1.1-0.2,2.1,0.5,2.3,1.6L305.4,254.4z"/>
			</g>
		</g>
	</g>
	<g id="XMLID_133307_">
		<path id="XMLID_133310_" class="st4" d="M387.3,243.1c0.6,2.4,0.3,5-1,7.4c-1.3,2.4-3.3,4-5.6,4.9l-7.3,2.7
			c-2.3,0.9-4.9,0.9-7.4-0.1c-2.5-1-4.4-2.8-5.5-5l-9.2-18.1c-0.6-1.2-1-2.6-1.1-4c-0.1-1.4,0.1-2.8,0.5-4.1l1.9-5.4
			c0.5-1.4,1.3-2.8,2.4-3.9s2.4-2,3.9-2.5l5.3-2c1.5-0.5,3-0.8,4.7-0.6c1.6,0.2,3.2,0.7,4.5,1.5l4.6,2.9c1.1,0.7,2.1,1.6,3,2.8
			c0.8,1.1,1.4,2.4,1.7,3.7L387.3,243.1z"/>
		<line id="XMLID_133309_" class="st12" x1="362" y1="215.6" x2="368.9" y2="234.3"/>
		<path id="XMLID_133308_" class="st8" d="M369,227c0.5,1.3-0.2,2.8-1.5,3.3l-0.2,0.1c-1.3,0.5-2.8-0.2-3.3-1.5l-2.5-6.7
			c-0.5-1.3,0.2-2.8,1.5-3.3l0.2-0.1c1.3-0.5,2.8,0.2,3.3,1.5L369,227z"/>
	</g>
	<g id="XMLID_133294_">
		<circle id="XMLID_133306_" class="st6" cx="92.5" cy="148.7" r="28.4"/>
		<path id="XMLID_133305_" class="st13" d="M81.9,163.3c-7.9-13.6-3.3-31,10.2-38.9c2.5-1.5,5.2-2.5,7.9-3.1c-7.1-2-15-1.2-21.8,2.8
			C64.7,132.1,60.1,149.5,68,163c6.4,11,19.1,16.1,30.9,13.4C92,174.5,85.8,170,81.9,163.3z"/>
		<circle id="XMLID_133304_" class="st1" cx="92.5" cy="148.8" r="21.6"/>
		<circle id="XMLID_133303_" class="st4" cx="92.5" cy="148.8" r="20.1"/>
		<circle id="XMLID_133302_" class="st14" cx="92.5" cy="148.8" r="16.5"/>
		<path id="XMLID_133301_" class="st1" d="M84.2,134.6c-5,2.9-7.9,8-8.2,13.4c1.4-2.3,3.3-4.3,5.8-5.7c7.9-4.6,17.9-1.9,22.5,5.9
			c1.7,2.9,2.4,6.1,2.2,9.1c3-5,3.2-11.4,0.1-16.8C102.2,132.7,92.1,130,84.2,134.6z"/>
		<circle id="XMLID_133300_" class="st13" cx="84.4" cy="149" r="2.5"/>
		<circle id="XMLID_133299_" class="st13" cx="88.6" cy="139.5" r="2.5"/>
		<circle id="XMLID_133298_" class="st15" cx="93.4" cy="136.2" r="1.3"/>
		<circle id="XMLID_133297_" class="st15" cx="97.3" cy="136.5" r="0.8"/>
		<circle id="XMLID_133296_" class="st13" cx="97.6" cy="141.3" r="3"/>
		<path id="XMLID_133295_" class="st4" d="M123.1,132.3c0.2,0.4,0.3,0.9,0.2,1.3c-0.1,0.5-0.4,0.8-0.8,1.1l-12.8,7.5l-2.8-4.8
			l12.8-7.5c0.4-0.2,0.9-0.3,1.3-0.2c0.5,0.1,0.8,0.4,1.1,0.8L123.1,132.3z"/>
	</g>
	<g id="XMLID_133282_">
		<circle id="XMLID_133293_" class="st10" cx="76.7" cy="192.3" r="0.9"/>
		
			<rect id="XMLID_133292_" x="91.8" y="196.9" transform="matrix(0.864 -0.5035 0.5035 0.864 -100.1482 78.7012)" class="st6" width="7.5" height="55.6"/>
		<polygon id="XMLID_133291_" class="st4" points="77.5,191.8 75.9,192.7 78.4,202.6 84.9,198.8 		"/>
		
			<rect id="XMLID_133290_" x="99.2" y="235.5" transform="matrix(0.864 -0.5035 0.5035 0.864 -105.5273 84.1463)" class="st8" width="7.5" height="3.9"/>
		<path id="XMLID_133289_" class="st8" d="M114.8,248.7l-12.9-22.1c-0.3-0.6-0.5-1.2-0.3-1.9c0.2-0.7,0.6-1.2,1.1-1.5l1.3-0.7
			l12.9,22.2c0.3,0.5,0.4,1.2,0.2,1.8c-0.2,0.6-0.6,1.2-1.1,1.5L114.8,248.7z"/>
		
			<rect id="XMLID_133288_" x="105.1" y="245.5" transform="matrix(0.864 -0.5035 0.5035 0.864 -109.785 88.4565)" class="st8" width="7.5" height="3.9"/>
		
			<rect id="XMLID_133287_" x="106.2" y="234.2" transform="matrix(0.864 -0.5034 0.5034 0.864 -103.9307 85.6974)" class="st8" width="1" height="2"/>
		
			<rect id="XMLID_133286_" x="112" y="244.3" transform="matrix(0.8637 -0.504 0.504 0.8637 -108.2825 90.1413)" class="st8" width="1" height="2"/>
		<path id="XMLID_133285_" class="st4" d="M117.6,256.9c0.3,0.5,0.4,1.2,0.2,1.8c-0.2,0.6-0.6,1.2-1.1,1.5l-0.7,0.4
			c-0.5,0.3-1.2,0.4-1.8,0.2c-0.6-0.2-1.2-0.6-1.5-1.1l-5.4-9.2l4.9-2.8L117.6,256.9z"/>
		
			<rect id="XMLID_133284_" x="95.5" y="196" transform="matrix(0.864 -0.5035 0.5035 0.864 -99.5362 79.4764)" class="st13" width="3.8" height="56"/>
		<path id="XMLID_133283_" class="st13" d="M116.9,247.2c0.1-0.2,0.2-0.4,0.3-0.7c0.2-0.6,0.1-1.3-0.2-1.8L104,222.5l-1.1,0.7
			L116.9,247.2z"/>
	</g>
	<g id="XMLID_133251_">
		<circle id="XMLID_133281_" class="st1" cx="247.9" cy="129.2" r="31.7"/>
		<circle id="XMLID_133280_" class="st4" cx="245.5" cy="126.5" r="31.7"/>
		<path id="XMLID_133279_" class="st4" d="M347.6,20.2c0,0-2.1-13.3-5.2-16.4c-3-3.1-7.4-4.4-12.1-3.5L121.8,37.9
			c-4.7,0.8-8.3,3.6-10.1,7.5c-1.8,3.9,0.9,17.2,0.9,17.2L347.6,20.2z"/>
		<path id="XMLID_133278_" class="st11" d="M174.3,139.4c-7.5,1.3-16.1-2.4-20-8.6l-39.8-63.3c-2.5-3.9-2.8-8.3-1-12.2
			c1.8-3.8,5.5-6.5,10.1-7.4l208.6-37.7c4.7-0.8,9.1,0.4,12.1,3.4c3,3,4.2,7.3,3.3,11.8l-15.1,73.2c-1.5,7.2-8.3,13.7-15.7,15.1
			L174.3,139.4z"/>
		<path id="XMLID_133277_" class="st6" d="M325.1,99.8c-0.8,4.3-5,8.4-9.3,9.2l-142.3,25.7c-4.3,0.8-9.7-1.6-11.9-5.3l-40.2-65.5
			c-2.3-3.7-0.6-7.4,3.7-8.2L333.6,18c4.3-0.8,7.1,2.1,6.3,6.4L325.1,99.8z"/>
		<path id="XMLID_133276_" class="st1" d="M277.1,127.8c0.1-2.3-0.1-4.6-0.5-6.9l-62.3,11.3c0.4,2.3,1.1,4.5,2,6.6L277.1,127.8z"/>
		<g id="XMLID_133269_">
			<polygon id="XMLID_133275_" class="st13" points="246.3,105.6 170.2,119.3 146.8,81.3 239.8,64.5 			"/>
			<polygon id="XMLID_133274_" class="st16" points="238.2,103.6 173.8,115.2 158.5,88 232.3,74.2 			"/>
			<polygon id="XMLID_133273_" class="st17" points="240.7,70.1 150,86.5 146.8,81.3 239.8,64.5 			"/>
			<polygon id="XMLID_133272_" class="st15" points="157.7,83.6 151.9,84.6 150.5,82 156.6,80.9 			"/>
			<polygon id="XMLID_133271_" class="st15" points="165.7,82.2 159.9,83.2 158.5,80.5 164.5,79.4 			"/>
			<polygon id="XMLID_133270_" class="st15" points="173.6,80.7 167.9,81.8 166.5,79.1 172.5,78 			"/>
		</g>
		<path id="XMLID_133268_" class="st9" d="M333.6,18L125,55.7c-4.3,0.8-5.9,4.4-3.7,8.2l2.3,3.8L339,28.7l0.8-4.3
			C340.7,20.1,337.9,17.3,333.6,18z"/>
		<path id="XMLID_133254_" class="st18" d="M333.6,18L186.9,44.5l100.3,69.6l28.7-5.2c4.3-0.8,8.5-4.9,9.3-9.2l14.7-75.4
			C340.7,20.1,337.9,17.3,333.6,18z"/>
		<path id="XMLID_133253_" class="st9" d="M131.5,64.6c-1.7-4.6,0.8-9,5.5-9.8c4.7-0.9,9.9,2.2,11.6,6.7c1.7,4.6-0.8,9-5.5,9.8
			C138.4,72.2,133.2,69.2,131.5,64.6z"/>
		<path id="XMLID_133252_" class="st16" d="M133.3,64.3c-1.3-3.6,0.6-7,4.3-7.7c3.7-0.7,7.8,1.7,9.1,5.3c1.3,3.6-0.6,7-4.3,7.7
			C138.7,70.3,134.6,67.9,133.3,64.3z"/>
	</g>
</g>
</svg>
