<?xml version="1.0" encoding="utf-8"?>
<!-- Generator: Adobe Illustrator 19.0.0, SVG Export Plug-In . SVG Version: 6.00 Build 0)  -->
<svg version="1.1" id="Capa_1" xmlns="http://www.w3.org/2000/svg" xmlns:xlink="http://www.w3.org/1999/xlink" x="0px" y="0px"
	 viewBox="0 0 372.4 549" style="enable-background:new 0 0 372.4 549;" xml:space="preserve">
<style type="text/css">
	.st0{clip-path:url(#XMLID_59_);}
	.st1{fill:#EABA96;stroke:#E0AA86;stroke-width:1.1528;stroke-miterlimit:10;}
	.st2{fill:#E0AA86;}
	.st3{stroke:#000000;stroke-width:0.8646;stroke-linecap:square;stroke-linejoin:bevel;stroke-miterlimit:10;}
	.st4{fill:#1C1C1C;stroke:#182951;stroke-width:1.1528;stroke-miterlimit:10;}
	.st5{fill:#0C0C0C;}
	.st6{fill:#070707;}
	.st7{fill:none;stroke:#02111C;stroke-width:1.1528;stroke-miterlimit:10;}
	.st8{fill:none;stroke:#02111C;stroke-width:0.8646;stroke-linecap:round;stroke-linejoin:round;}
	.st9{fill:none;stroke:#02111C;stroke-width:0.8646;stroke-linecap:round;stroke-linejoin:round;stroke-dasharray:1.1678,1.1678;}
	.st10{fill:#00607C;}
	.st11{fill:#005468;}
	.st12{fill:#EABA96;stroke:#E0AA86;stroke-width:0.5764;stroke-miterlimit:10;}
	.st13{fill:#DBA682;}
	.st14{fill:#8A0A8E;stroke:#AC34B2;stroke-width:1.1528;stroke-miterlimit:10;}
	.st15{fill:none;stroke:#E0AA86;stroke-width:1.1528;stroke-miterlimit:10;}
	.st16{fill:#959DA0;stroke:#959DA0;stroke-width:0.5764;stroke-miterlimit:10;}
	.st17{fill:none;stroke:#959DA0;stroke-width:0.5764;stroke-miterlimit:10;}
	.st18{fill:#282828;stroke:#000000;stroke-width:0.8646;stroke-miterlimit:10;}
	.st19{fill:#B7896A;}
	.st20{fill:#DDAC8A;}
	.st21{stroke:#000000;stroke-width:1.1528;stroke-miterlimit:10;}
	.st22{fill:#C1A578;}
	.st23{stroke:#000000;stroke-width:0.2882;stroke-linecap:round;stroke-linejoin:round;stroke-miterlimit:10;}
	.st24{fill:#FFFFFF;stroke:#000000;stroke-width:0.2882;stroke-linecap:round;stroke-linejoin:round;stroke-miterlimit:10;}
	.st25{fill:#70582D;}
	.st26{fill:#FFFFFF;}
	.st27{stroke:#000000;stroke-width:1.1528;stroke-linecap:round;stroke-linejoin:round;stroke-miterlimit:10;}
	.st28{fill:#9E3025;stroke:#4C2311;stroke-width:0.2882;stroke-miterlimit:10;}
	.st29{fill:#871D08;stroke:#4C2311;stroke-width:0.2882;stroke-miterlimit:10;}
	.st30{fill:none;stroke:#D8A27D;stroke-width:0.8646;stroke-miterlimit:10;}
	.st31{fill:#A5ABAD;stroke:#959DA0;stroke-width:0.5764;stroke-miterlimit:10;}
	.st32{fill:#B1BABC;}
	.st33{opacity:0.33;fill:#FFFFFF;}
	.st34{fill:none;stroke:#000000;stroke-width:1.7292;stroke-linecap:round;stroke-linejoin:round;stroke-miterlimit:10;}
	.st35{fill:#6CB2C1;}
	.st36{fill:none;}
	.st37{fill:#144466;}
	.st38{fill:#58BFD1;}
	.st39{fill:#1C6C96;}
	.st40{fill:#3B626E;}
	.st41{fill:#334A57;}
	.st42{fill:#EABA96;stroke:#E0AA86;stroke-width:0.75;stroke-miterlimit:10;}
	.st43{fill:#92888A;}
	.st44{fill:#EDAFA7;}
	.st45{fill:#96D1EF;}
	.st46{fill:#D1D94A;}
	.st47{fill:#F2BD52;}
	.st48{fill:#C9C6C5;}
	.st49{fill:#006E87;}
</style>
<g id="XMLID_133098_">
	<defs>
		<rect id="XMLID_133094_" y="0" width="372.4" height="549"/>
	</defs>
	<clipPath id="XMLID_59_">
		<use xlink:href="#XMLID_133094_"  style="overflow:visible;"/>
	</clipPath>
	<g id="XMLID_706_" class="st0">
		<path id="XMLID_133979_" class="st1" d="M-5.7,953c0,0,18.2-10.1,35.5-15.9c0,0,12.5-3.1,14.2-7.2v-21.2l27.4-3.4
			c0,0-4,22.5-3.1,38l0.6,7.9l-10,6.5l-13.4,2.7l-13.5,4.3c0,0-13.2,5-13.6,5.1C18.1,970,1,971.3,1,971.3l-8.9-4.9
			c0,0-1.1-5.4-1.1-5.9S-5.7,953-5.7,953z"/>
		<path id="XMLID_133978_" class="st1" d="M59.1,932.2c0,0,3.6,5-1.5,8.8"/>
		<path id="XMLID_133977_" class="st1" d="M228.6,970.7c0,0-16.2-13.1-32.3-21.7c0,0-11.8-5.2-12.8-9.6l3.6-20.8l-26.4-8.1
			c0,0,0.1,22.8-3.5,38l-2,7.7l8.7,8.2l12.7,4.9l12.6,6.5c0,0,12.1,7.2,12.5,7.4c0.4,0.2,17.1,4.4,17.1,4.4l9.6-3.3
			c0,0,2-5.1,2.1-5.6C230.7,978.1,228.6,970.7,228.6,970.7z"/>
		<path id="XMLID_133976_" class="st1" d="M168.3,939.1c0,0-4.5,4.3,0,8.9"/>
		<path id="XMLID_133975_" class="st2" d="M44,920.1l25.3-1.7l-1.2,7.2c0,0-11-7.2-20.1,0c0,0,1.6,7.3-5.4,8.9
			c0,0-51.5,19.4-43.9,25.6c0,0,3.4,6,18.4,6.7c0,0-12.6,6.2-22.3-4c0,0-5.6-5.8,1.6-11c0,0,28.5-16,41.6-19.6
			C38,932.2,44.4,930.5,44,920.1z"/>
		<path id="XMLID_133974_" class="st3" d="M69.6,954.7c-6,9.8-14.7,10.1-14.7,10.1c-18.1,1.6-27.5,8.6-27.5,8.6l-6.9,3.5
			c-18.6,7.1-33.5-1.4-33.5-1.4c-5.1-2.2-6.8-5-7.1-7.5l-0.1,0v4.7c0,0,3.8,9.8,28.2,9.4c0,0,10.3-0.4,20.6-6.9c0,0,5-3.4,12-5.9
			c3.5-1.2,10.5-2.1,14.6-2.5c4.8-0.4,10.9-2.3,14.4-8.5V954.7z"/>
		<path id="XMLID_133973_" class="st4" d="M-5.7,953c0,0-9.2,4-12.3,8.4c0,0-7.2,8.7,5.1,14.1c0,0,14.9,8.5,33.5,1.4l6.9-3.5
			c0,0,11.4-8.6,26.6-8.5c0,0,9.9-0.5,15.4-10.2l-0.2-10.4c0,0-2,13-24,13.5c0,0-9.2,0-19.6,6.6c0,0-18,10.4-30.7-1.6
			C-9.1,959.1-5.7,953-5.7,953z"/>
		<path id="XMLID_133972_" class="st2" d="M183.5,935.3c0,0-9.9-6.6-19.3,2.1c0,0-4,9.3-2.4,16.4c0,0,2.9,7.9,16.3,11.1
			c0,0,11.9,2.6,14.4,7.6h-7.6l-18.6-3.9l-8.3-6.3l-1.6-13.1c0,0,3.1-13.8,3.4-21.7c0.3-8,0,0,0,0l25.1,1.3L183.5,935.3z"/>
		<path id="XMLID_133971_" class="st3" d="M154.1,959.5c4.4,11.9,17,13.3,17,13.3c14.2,3.5,21.4,12.4,21.4,12.4l6.2,4.6
			c17.1,10.2,33.2,4.4,33.2,4.4c5.4-1.3,7.6-3.7,8.3-6.2l0,0.1l-0.8,4.6c0,0-5.4,9-29.4,4.4c0,0-7.5-1.6-15.3-7.3
			c-1.3-0.9-4.6-4.3-6.5-6c-3.2-3-9.1-7.3-18.3-9.1c0,0-13.2-0.9-16.5-11.6L154.1,959.5z"/>
		<path id="XMLID_133970_" class="st4" d="M228.6,970.7c0,0,8.3,5.5,10.7,10.4c0,0,5.6,9.8-7.4,13c0,0-16.1,5.8-33.2-4.4l-6.2-4.6
			c0,0-6.6-9.9-22.6-12.6c0,0-14-1.9-15.4-13.1l2-10.3c0,0-0.2,13.1,21.3,17.5c0,0,9,1.6,18.2,9.8c0,0,16,13.3,30.5,3.7
			C230.9,977.3,228.6,970.7,228.6,970.7z"/>
		<path id="Pantalon_1_" class="st5" d="M91.5,488.5c0,0-32.1,104.8-31.7,184.9c0,0-6.1,20-2.8,33.5c0,0-23.9,124.1-14.1,212.4
			l27.2-1.8c0,0,44.6-153.3,45.1-193.4c0,0,39.6-102,45.6-157.4c0,0,5.6,149,9.8,176c0,0-2.3,6.1,0,12.1c0,0-19.3,44-13.7,173.4
			l32.1,1.7l32.8-143.4c0,0,15.4-13.5,12.1-47c0,0,22.3-85.7,22.3-136c0,0,7.2-79.1-11.1-119.9l-85.8-10.5L91.5,488.5z"/>
		<path id="XMLID_133969_" class="st6" d="M83,522.9c0,0,28.1-21.3,167.6-23.8c0,0-5.1-17.5-10.4-25.9c-5.3-8.4-3.2,0-3.2,0
			L94.3,479C94.3,479,91.1,494.5,83,522.9z"/>
		<path id="XMLID_133968_" class="st6" d="M163.4,536l-2.6,30.7c0,0,7.6,161.3,10.6,176c0,0-1.9,6.4,0,12.4
			c0,0-19.6,50.5-13.5,172.2l30.3,1.6l7.5-30.3c0,0-31.7,21.2-31.7-16.7c0,0,1.1-44.9,21.6-130.4c0,0-5.1-6.5-1.4-15.6L163.4,536z"
			/>
		<path id="XMLID_133967_" class="st6" d="M83,522.9c0,0-26.4,109.7-21.1,150.4c0,0-7.1,18.1-3.3,33.9c0,0-13.4,77.8-16,131.8
			c-1.4,29.8,1.5,79.4,1.5,79.4l25.3-1.7l10.8-38.6c0,0-21.1-2.8-21.1-20.2c0,0-28-3.3,10.6-139.9c0,0-6.5-11.5-1.4-25.8
			c0,0,1-96,14.8-135.7c13.7-39.7,0,0,0,0s22.4-3.1,29.3-44.1c7-40.9,0,0,0,0l-16.6-13.6L83,522.9z"/>
		<path id="XMLID_133966_" class="st7" d="M164.1,495.8c0,0-0.9,14.1,0,30.7"/>
		<g id="XMLID_133960_">
			<g id="XMLID_133830_">
				<path id="XMLID_133833_" class="st8" d="M-226.7,614c0,0,0,0.2,0,0.6"/>
				<path id="XMLID_133832_" class="st9" d="M-226.9,615.7c-0.8,9.5-6.1,55.3-37.9,63.8"/>
				<path id="XMLID_133831_" class="st8" d="M-265.3,679.7c-0.2,0-0.4,0.1-0.6,0.1"/>
			</g>
		</g>
		<path id="XMLID_133959_" class="st2" d="M261.2,303.9c0,0-23.3,1.4-25.8,15.6l14.9,68.9c0,0,3.2,11.8,2,18.6l-23.4-75.5
			l-16.1-29.3l25.1-7l17.6-1.7L261.2,303.9z"/>
		<path id="XMLID_133958_" class="st10" d="M260.1,286.7c0,0,18.4,62.9,23.2,100.4c0,0,5.4,6.9,4,22.9l0,9.7c0,0-18.4,7.7-35.4-2.6
			c0,0-3,2.7-1.4-8l-24.9-77.6l-7-27.9"/>
		<path id="XMLID_133957_" class="st11" d="M221.5,303.9l10.4,44l19.4,59.9c0,0-1.3,8.7-0.6,9.3c0,0,9.7,5,22.4,4.3s0,2.2,0,2.2
			s-21.6-7-17.6-15.3c0,0-10.7-49.6-18.6-63.6c0,0,7.3-14.7,3.2-27.7C240.2,317,232.8,295.3,221.5,303.9z"/>
		<path id="Cuello_1_" class="st12" d="M135.3,207.5l-2.4,27.8c0,0-6.7,13.1-21,14.2l36.3,35.1l52.4-43.6c0,0-11.8-0.3-14.1-9.1
			l-4.1-35.6L135.3,207.5z"/>
		<path id="Sombra_cuello_1_" class="st13" d="M184,216c0,0-39.4-2.4-51.2,19.4l2.7-27.8l46.5-11.3L184,216z"/>
		<g id="XMLID_133954_">
			<path id="XMLID_133956_" class="st14" d="M219.2,244.1C219.8,244.2,220,244.3,219.2,244.1L219.2,244.1z"/>
			<path id="XMLID_133955_" class="st10" d="M261.2,293.4c0,0-3.3-36.5-30.6-46.1c0,0-5.4-1.9-11.9-3.3c0.2,0,0.3,0,0.4,0.1
				c-0.1,0-0.3,0-0.4-0.1c-2.3-0.5-4.8-0.9-7.2-1l0,0l0,0l0,0l0,0c-18.5-2.7-20.1-11.2-20.1-11.2c2.1-9.2-2.7-7.2-2.7-7.2
				c2.9-8.1,0-8.4,0-8.4c-19.8,13.3-54.6,6.9-54.6,6.9c-9.3-2.7-5.7,7.2-5.7,7.2c-3,4.9,1.3,4.9,1.3,4.9c-5,4.9-1.3,5.6-1.3,5.6
				c-5.8,7.3-22.7,11-22.7,11l0,0c-7.9,0-20.6,1.8-27.5,12.8c0,0-10,17.9-12.6,34c0,0,6.4,10.4,31.4,10.7c0,0-14.7,25.8,6.5,43.3
				l11.2,50.5c0,0-18.4,67.5-28.9,83.8c0,0,27.9,9.8,79.9,8.6c0,0,37.2,3.5,83.6-13.3c0,0-31.4-63.8-31.9-75l2.1-45.9
				c0,0,18.9-12.6,17.2-41c0,0-1.2-6.5-7-17"/>
		</g>
		<path id="sombra_camisa_1_" class="st11" d="M100.1,306.5l-2.3,2.8c0,0-16.3,25.6,6.5,43.3l11.2,50.5c0,0-21.3,76-28.9,83.8
			c0,0,84.1,21.3,153.5-2.4c0,0-131.8,16-114.4-14c0,0-27.2-16.3,10.7-63.1l-23-54.5C113.5,352.9,88.9,339.1,100.1,306.5z"/>
		<path id="XMLID_133953_" class="st2" d="M65.6,308.9c0,0,14.1,4.1,19.9,12.3c2.8,3.9-6.4,64-6.4,64l5.3-3.1l14.6-69.7l-31.8-10.2
			L65.6,308.9z"/>
		<path id="dedo_izq3_1_" class="st15" d="M211.9,353.6l-8.6,12c0,0-4,5.7-12.5,9.2"/>
		<circle id="XMLID_133935_" class="st16" cx="158.2" cy="302.3" r="1.3"/>
		<path id="XMLID_133907_" class="st11" d="M127.6,246.8c0,0,26.1,20.1,69-1.1c0,0,14.1-4.9,7.5,8c0,0-13.8,13.6-28.1,13.8
			c0,0,28.6,0.6,5.6,6.6c0,0-13.9,6-14.2,10.3c0,0-5.7-13.1-14.9-13.5c0,0-25.8-5.4-4.9-6.4C147.7,264.6,126.7,256.9,127.6,246.8z"
			/>
		<path id="XMLID_133906_" class="st17" d="M127.1,242.2c0,0,7.3,12.3,35.2,27.3c0,0,29-14.4,31.7-33.6"/>
		<path id="XMLID_133905_" class="st16" d="M162.9,273.9h-1.4c-0.1,0-0.3-0.1-0.3-0.3v-4.7c0-0.1,0.1-0.3,0.3-0.3h1.4
			c0.1,0,0.3,0.1,0.3,0.3v4.7C163.2,273.8,163.1,273.9,162.9,273.9z"/>
		<path id="XMLID_133904_" class="st17" d="M162.3,273.9c0,0,0.7,36.2,6.9,46.5"/>
		<path id="XMLID_133899_" class="st17" d="M162.3,273.9c0,0-0.3,22-4,28.7"/>
		<path id="XMLID_133888_" class="st18" d="M122.1,29.1L62,94.5c0,0-8.9,48.9,26.7,72.4c0,0-5-4-4.8-8.8c0,0,3.3,7,11.4,10.1
			c0,0-2.8-3.9-1.7-6.5c0,0,3,6.5,14.6,10.1L122.1,29.1z"/>
		<path id="Cara_2_" class="st12" d="M101,126.4c0,0,1.5,19.7,6,40.5c0,0,5.9,18.2,22.5,34.2c0,0,7.8,12.8,20.9,12.6
			c0,0,13.8,2.3,25.6-12.6c0,0,23.8-14.4,28.5-43.2l5.5-40.2l-4.6-34.8l-14.4-27.7l-2.7-11.4l-27.7,7.8l-45.5,18.1L99.4,86.9
			L101,126.4z"/>
		<path id="Sombra_cara_1_" class="st2" d="M184.7,70.4c0,0-19.9,21-46.9,19.7c0,0-14.2-3.2-26.3,13.7c0,0-7.4,12-1,24.9
			c0,0-10.5,15.4,3.5,46.5c0,0,9.7,16,15.5,21.5c0,0,17.4,26.2,43.5,7.7c0,0-22.8,23.8-43.5-3.4c0,0-19-15.3-26.1-42.6
			c0,0-6.5-16.2-6.9-20.3l-12.6-10.4l2.5-17.4c0,0,6.2-4.1,6.9-4.5s3.2,4.9,3.2,4.9s2.8,4.6,3,3.1s8.6-28.3,8.8-29.2
			c0.3-0.9,24.3-14.2,24.3-14.2l16.9-5l19.4-8.7l14.9-5.9l12,18.3C195.8,69.1,188,67.4,184.7,70.4z"/>
		<path id="sombra_oreja_izq_1_" class="st19" d="M93.6,118.3c0,0,0.5,5.5,4.6,10.4c0,0,3.3-0.3,1.3,3.1c0,0-1.3,3.2-3.9-2.4
			C95.6,129.3,93.2,126.3,93.6,118.3z"/>
		<path id="barbilla_2_" class="st20" d="M150.9,197.6c0,0,6.6,4.9,11.3-1.4C162.2,196.3,158.3,198.3,150.9,197.6z"/>
		<path id="oreja_der_2_" class="st12" d="M200.7,171.7c-1.3,1.2,7.3-13,8.7-27.2c0,0,4.6,7.7,9.7,0c0,0,11.3-16.8,7.8-30
			c0,0-5.9-16.7-11-8.2l-5.8,11.1"/>
		<path id="Sobra_oreja_der_2_" class="st19" d="M218.5,119.7c0,0,1.7,13-2.7,18.1c0,0-4,0.3-3-3.7c0,0,0.8-1.7,1.4-1.5
			C214.1,132.7,218.4,130.3,218.5,119.7z"/>
		<path id="cabello_2_" class="st18" d="M96.4,59c0,0,14.6-16.9,32-19.7c0,0-21.9,11.4-21.9,29.7c0,0-18.4,23.3-2.3,58.1
			c0,0-12.8-33.8,29.3-47.1c0,0,38,0,48.9-24.2c0,0-1.4,10.5,8.7,10.1c0,0-4.6,21.9,11.9,27c0,0,13.7,22.4,0,44.4
			c0,0,8.2-5,11.9-26.1c0,0,10.6-9.5,10.2,11.8c0,0,0.1,23.7-12.1,25.1c0,0-0.4,5.1-5,10.6c0,0,4.6,0.9,2.3,5.5c0,0,6.9-2.3,7.8-7.8
			c0,0,2.7,4.1,1.8,7.8c0,0,5.5-5,3.2-15.5c0,0,3.2,2.3,2.3,10.5c0,0,4.6-7.3,4.6-16.5c-2.9,11.7-0.2,13.3-3.9,21.5
			c0,0,29,3.7,30.4-48c0,0-7.8-75-65.4-78.6c0,0-5.5-49.8-80.5-5.9C110.6,31.6,96.4,42.5,96.4,59z"/>
		<path id="mechon_izq_2_" class="st21" d="M110.6,31.6c0,0-74.1,35.2-39.3,105.2c0,0-2.3-11.9,6.4-26.1c0,0-3.5,40.4,31.5,49.7
			c0,0-9.8-7-9.4-19.2c0,0-14.5-9-13.5-21.8c0,0,1-15.1,10.1-8.7c0,0,3.7,16.5,7.8,16.5c0,0-16.2-27.4,2.3-58.1
			c0,0-2.5-15.3,21.9-29.7c0,0-18.5,3-32,19.7C96.4,59,93.9,47.1,110.6,31.6z"/>
		<path id="sombra_cabello_der_2_" class="st21" d="M191.1,37.5c0,0,54,0,65.4,78.6c0,0,1.1,45.7-30.4,48c0,0,4.5-7.6,3.9-21.5
			c0,0,8.5,1.4,9.8,8.9C239.8,151.6,275.7,83,191.1,37.5z"/>
		<path id="sombra_cabello_der_2_2_" class="st21" d="M209.7,145.5c0,0,0.9,4.9-4.6,18.5c0,0,7.7-4.2,5.2,0.2c0,0,6.7-2.7,7.8-7.8
			c0,0,3.6,3.4,1.8,7.8c0,0,5.6-6.2,3.2-15.5c0,0,4.1,2.1,2.3,10.5c0,0,6.5-12,4.4-20c0,0-0.7,3.8-2.4,5c-1.7,1.2-4.3-0.2-3.6-4
			c0,0,3-21.3,1-25.4c0,0,1.4,7.7,0,15.7C222.8,141.1,217.1,152.4,209.7,145.5z"/>
		<g id="ojo_der_2_">
			<path id="parpado_der_2_" class="st22" d="M160.6,119.1c0,0,2.2-11.8,14-14.9c0,0,13.6-3.4,17.1,8.3l-0.8,2.8c0,0-5-6-13.6-5.6
				C177.3,109.7,164.1,112.2,160.6,119.1z"/>
			<path id="pestaña_der_2_" class="st23" d="M161.7,120.3l-1.1,0.7v-1.8c0,0,6.9-9.3,16.7-9.4c0,0,8.5-0.5,13.3,4.9
				c0,0,1.6,0.6,3.4-1.4c0,0-1.1,3.7-3.8,3.6L161.7,120.3z"/>
			<path id="XMLID_133887_" class="st24" d="M161.7,120.3c0,0-0.6,8.1,13,10.4c0,0,11.7,3.3,15.5-13.9
				C190.2,116.8,179.6,101.8,161.7,120.3z"/>
			<circle id="XMLID_133884_" class="st25" cx="180.3" cy="120.6" r="6.1"/>
			<circle id="XMLID_133881_" cx="180.6" cy="121.5" r="3.8"/>
			<circle id="XMLID_133880_" class="st26" cx="177.6" cy="119.6" r="1.3"/>
			<circle id="XMLID_133879_" class="st26" cx="175.8" cy="117.4" r="0.8"/>
			<path id="ceja_der_2_" class="st27" d="M160.6,105.8v-3.4c0,0,14.8-15.7,33.4-2.9C194,99.6,174.6,91.6,160.6,105.8z"/>
		</g>
		<g id="Ojo_izq_2_">
			<path id="parpado_izq_2_" class="st22" d="M137.8,119c0,0-2-10.9-12.9-13.7c0,0-12.5-3.1-15.7,7.7l0.7,2.6c0,0,4.6-5.5,12.6-5.2
				C122.4,110.3,134.6,112.6,137.8,119z"/>
			<path id="pestaña_izq_2_" class="st23" d="M136.8,120l1,0.6V119c0,0-6.4-8.6-15.4-8.7c0,0-7.9-0.5-12.3,4.5c0,0-1.5,0.6-3.1-1.3
				c0,0,1,3.4,3.5,3.3L136.8,120z"/>
			<path id="cuenca_izq_2_" class="st24" d="M136.8,120c0,0,0.6,7.4-11.9,9.6c0,0-10.8,3.1-14.3-12.8
				C110.5,116.8,120.2,103,136.8,120z"/>
			<circle id="iris_izq_2_" class="st25" cx="127.2" cy="120.6" r="5.6"/>
			<circle id="pupila_izq_2_" cx="127.2" cy="121.2" r="3.5"/>
			<circle id="brillo_1_izq_2_" class="st26" cx="124.7" cy="119.2" r="1.2"/>
			<circle id="brillo_2_izq_2_" class="st26" cx="122.9" cy="116.9" r="0.8"/>
			<path id="ceja_izq_2_" class="st27" d="M139.1,103.8v-3.4c0,0-13.7-15.7-30.9-2.9C108.3,97.6,126.2,89.6,139.1,103.8z"/>
		</g>
		<g id="Boca_1_">
			<path id="XMLID_133878_" class="st28" d="M135.3,178.6c0,0,2.8,7,14.9,7.9c0,0,21.5,1.6,25.3-14.6l-23,1.6L135.3,178.6z"/>
			<path id="XMLID_133877_" class="st29" d="M134.1,178.4c0,0,4.7-3.2,7.2-7c0,0,4.7-5.2,9.9,0c0,0,2.7-4.4,6.3-4.4
				c4.1,0,8.7,7.6,18,5.1c0,0-9.1,8.4-22.7,4.8C152.8,176.8,143.3,180.1,134.1,178.4z"/>
			<path id="XMLID_133876_" class="st29" d="M172.7,174c0,0,3.5-2.2,6.4-4.2"/>
		</g>
		<path id="Nariz_2_" class="st30" d="M143.2,114.6c0,0,3,24.8-2.7,33.5c0,0-3.5,11.9,15.4,5.9"/>
		<path id="XMLID_133875_" class="st11" d="M128.4,230.3c0,0,23.1,5.9,51.7-3.3C180.1,227,158.9,240.4,128.4,230.3"/>
		<path id="XMLID_133874_" class="st11" d="M129,240.6c0,0,11.1,10.6,58.3,1.3c0,0-49.7,5.1-57.3-6
			C129.9,235.9,125.3,239.5,129,240.6z"/>
		<path id="XMLID_133873_" class="st11" d="M187.8,225.6c0,0-8.9,13.3-44.3,11.4c0,0,22,6.6,44.7-8.3c0,0,2.7-3.7,3.2-1.4
			C191.4,227.3,191.7,223.2,187.8,225.6"/>
		<path id="XMLID_133870_" class="st11" d="M128.4,227c0,0-1.4-4.7,4.5-3.5c0,0,37.7,7,55.8-6.6c0,0-10.5,15.4-54.6,10.1
			C134.2,227,131.6,221,128.4,227z"/>
		<g id="XMLID_133867_">
			<circle id="XMLID_133869_" class="st31" cx="96.4" cy="136" r="3"/>
			<path id="XMLID_133868_" class="st32" d="M96.3,134.2c0,0,2.1,0.6,1.6,3.2c0,0,1.1-1.6,0.2-3C98.1,134.5,97.6,133.6,96.3,134.2z"
				/>
		</g>
		<g id="XMLID_133864_">
			<circle id="XMLID_133866_" class="st31" cx="213.7" cy="144.1" r="3"/>
			<path id="XMLID_133865_" class="st32" d="M213.6,142.3c0,0,2.1,0.6,1.6,3.2c0,0,1.1-1.6,0.2-3
				C215.4,142.6,214.9,141.7,213.6,142.3z"/>
		</g>
		<path id="XMLID_133863_" class="st33" d="M213.1,115.6L213.1,115.6l-15.3,1.7l-1-5.5l-1,0.2c-22.1-18-44.7,3.7-44.7,3.7l0.6,4.4
			l-5.9,0.4l0.6-4.4c0,0-22.5-21.7-44.7-3.7l-1-0.2l-1.3,8.9l0.7,0.3c0,0,1.8,17.8,14.8,17.6c0,0,19.6,3,25.2-7.2
			c0,0,3.4-5.7,2.9-11.3c0,0,1.5-1.7,2.6,0l5.9-0.4c1.2-1.7,2.6,0,2.6,0c-0.4,5.6,2.9,11.3,2.9,11.3c5.7,10.1,25.2,7.2,25.2,7.2
			c13,0.2,14.8-17.6,14.8-17.6l0.7-0.3l-0.2-3.4L213.1,115.6z"/>
		<path id="XMLID_133862_" class="st34" d="M213.1,115.6L213.1,115.6l-15.3,1.7l-1-5.5l-1,0.2c-22.1-18-44.7,3.7-44.7,3.7l0.6,4.4
			l-5.9,0.4l0.6-4.4c0,0-22.5-21.7-44.7-3.7l-1-0.2l-1.3,8.9l0.7,0.3c0,0,1.8,17.8,14.8,17.6c0,0,19.6,3,25.2-7.2
			c0,0,3.4-5.7,2.9-11.3c0,0,1.5-1.7,2.6,0l5.9-0.4c1.2-1.7,2.6,0,2.6,0c-0.4,5.6,2.9,11.3,2.9,11.3c5.7,10.1,25.2,7.2,25.2,7.2
			c13,0.2,14.8-17.6,14.8-17.6l0.7-0.3l-0.2-3.4L213.1,115.6z"/>
		<g id="XMLID_707_">
			<g id="XMLID_134218_">
				<g id="XMLID_32_">
					<path id="XMLID_33_" class="st35" d="M297.5,344.4l6,1.2l1.2-5.9c2.1,0,4.3-0.4,6.4-1.3l3.3,5l5.1-3.4l-3.3-5
						c1.6-1.6,2.8-3.4,3.6-5.4l5.9,1.2l1.2-6l-5.9-1.2c0-2.1-0.4-4.3-1.3-6.3l5-3.3l-3.4-5.1l-5,3.3c-1.6-1.6-3.4-2.8-5.4-3.6
						l1.2-5.9l-6-1.2l-1.2,5.9c-2.1,0-4.3,0.4-6.3,1.3l-3.3-5l-5.1,3.4l3.3,5c-1.6,1.6-2.8,3.4-3.6,5.4l-5.9-1.2l-1.2,6l5.9,1.2
						c0,2.1,0.4,4.3,1.3,6.3l-5,3.3l3.4,5.1l5-3.3c1.6,1.6,3.4,2.8,5.4,3.6L297.5,344.4z M299.3,327.3c-2-3.1-1.2-7.2,1.9-9.3
						c3.1-2,7.2-1.2,9.3,1.9c2,3.1,1.2,7.2-1.9,9.3C305.5,331.2,301.3,330.4,299.3,327.3z"/>
				</g>
			</g>
			<g id="XMLID_134209_">
				<path id="XMLID_133950_" class="st36" d="M113.6,459L113.6,459l0-0.1C113.6,459,113.6,459,113.6,459z"/>
				<path id="XMLID_133949_" class="st36" d="M182.2,546.6L182.2,546.6C182.3,546.6,182.3,546.6,182.2,546.6
					C182.3,546.6,182.3,546.6,182.2,546.6z"/>
				<path id="XMLID_133948_" class="st37" d="M113.6,459.1C113.6,459.1,113.6,459.1,113.6,459.1L113.6,459.1L113.6,459.1z"/>
				<path id="XMLID_133947_" class="st38" d="M182.2,546.6L182.2,546.6C182.3,546.6,182.3,546.6,182.2,546.6
					C182.3,546.6,182.3,546.6,182.2,546.6z"/>
			</g>
			<g id="XMLID_134197_">
				
					<rect id="XMLID_133946_" x="196.9" y="249.9" transform="matrix(-0.9802 -0.1979 0.1979 -0.9802 457.0271 716.0725)" class="st39" width="134.7" height="170.6"/>
				
					<rect id="XMLID_133945_" x="204" y="258.9" transform="matrix(-0.9802 -0.1979 0.1979 -0.9802 457.027 716.0706)" class="st26" width="120.5" height="152.7"/>
				<g id="XMLID_134198_">
					<g id="XMLID_134203_">
						<path id="XMLID_133944_" class="st40" d="M257.8,242.3l24.1,5.6l24.4,4.2c0,0-2.8,7.7-0.3,15.9l-26.1-5.3l-1.9-0.4l-26.5-5.3
							C257,250.4,257.8,242.3,257.8,242.3z"/>
						<path id="XMLID_133943_" class="st41" d="M251.2,256.3c-0.3,1.6,0.7,3.1,2.3,3.4l50.1,10.1c1.6,0.3,3.1-0.7,3.4-2.3l0,0
							c0.3-1.6-0.7-3.1-2.3-3.4l-50.1-10.1C253.1,253.8,251.5,254.8,251.2,256.3L251.2,256.3z"/>
						<path id="XMLID_133942_" class="st41" d="M256.9,242.4c-0.3,1.4,0.6,2.8,2,3.1l45.2,9.1c1.4,0.3,2.8-0.6,3.1-2l0,0
							c0.3-1.4-0.6-2.8-2-3.1l-45.2-9.1C258.5,240,257.1,240.9,256.9,242.4L256.9,242.4z"/>
					</g>
					<g id="XMLID_134199_">
						<path id="XMLID_134200_" class="st41" d="M267.5,245.1l29.1,5.9l0.9-4.3c1.6-8-3.6-15.9-11.6-17.5c-8-1.6-15.9,3.6-17.5,11.6
							L267.5,245.1z M278.2,237.9c0.6-3.1,3.7-5.1,6.8-4.5c3.1,0.6,5.1,3.7,4.5,6.8c-0.6,3.1-3.7,5.1-6.8,4.5
							C279.6,244.1,277.6,241,278.2,237.9z"/>
					</g>
				</g>
			</g>
			<g id="XMLID_134195_">
				<path id="XMLID_133939_" class="st42" d="M336.3,355.5c-0.3,0-0.5,0-0.8,0l-15.4-1.9c-3-0.4-5.2-2.8-4.7-5.4
					c0.4-2.6,3.2-4.5,6.3-4.1l15.4,1.9c3,0.4,5.2,2.8,4.7,5.4C341.4,353.8,339.1,355.5,336.3,355.5z"/>
			</g>
			<g id="XMLID_134193_">
				<path id="XMLID_133938_" class="st42" d="M337.1,366l-15.1-1.6c-3-0.3-5.2-2.7-4.8-5.4c0.4-2.6,3.2-4.5,6.2-4.2l15.1,1.6
					c3,0.3,5.2,2.7,4.8,5.4c-0.4,2.4-2.7,4.2-5.5,4.2C337.6,366,337.4,366,337.1,366z"/>
			</g>
			<g id="XMLID_134168_">
				<path id="XMLID_133937_" class="st42" d="M318.8,373.8c-3-0.5-5-3-4.4-5.6c0.6-2.6,3.5-4.3,6.5-3.8l15.1,2.5c3,0.5,5,3,4.4,5.6
					c-0.5,2.3-2.8,3.9-5.5,3.9c-0.3,0-0.7,0-1-0.1L318.8,373.8z"/>
			</g>
			<g id="XMLID_134166_">
				<path id="XMLID_133936_" class="st42" d="M311.5,377.7c0.5-2.3,3-3.9,5.7-3.5l13.5,2c2.7,0.4,4.5,2.6,4.1,5
					c-0.4,2.1-2.5,3.6-4.9,3.6c-0.3,0-0.5,0-0.8-0.1l-13.5-2C312.9,382.2,311.1,380,311.5,377.7z"/>
			</g>
			<g id="XMLID_134023_">
				<g id="XMLID_134139_">
					
						<rect id="XMLID_133934_" x="260.7" y="363.4" transform="matrix(-0.9812 -0.193 0.193 -0.9812 493.3676 778.269)" class="st43" width="47.7" height="3.4"/>
					
						<rect id="XMLID_133933_" x="259.7" y="368.6" transform="matrix(-0.9812 -0.193 0.193 -0.9812 490.349 788.3369)" class="st43" width="47.7" height="3.4"/>
					
						<rect id="XMLID_133932_" x="258.7" y="373.8" transform="matrix(-0.9812 -0.193 0.193 -0.9812 487.3281 798.4072)" class="st43" width="47.7" height="3.4"/>
					
						<rect id="XMLID_133931_" x="257.7" y="378.9" transform="matrix(-0.9812 -0.193 0.193 -0.9812 484.308 808.4777)" class="st43" width="47.7" height="3.4"/>
					
						<rect id="XMLID_133930_" x="256.7" y="384.1" transform="matrix(-0.9812 -0.193 0.193 -0.9812 481.2902 818.5436)" class="st43" width="47.7" height="3.4"/>
					
						<rect id="XMLID_133929_" x="255.6" y="389.3" transform="matrix(-0.9812 -0.193 0.193 -0.9812 478.2702 828.6136)" class="st43" width="47.7" height="3.4"/>
					
						<rect id="XMLID_133928_" x="254.6" y="394.5" transform="matrix(-0.9812 -0.193 0.193 -0.9812 475.2489 838.6855)" class="st43" width="47.7" height="3.4"/>
					
						<rect id="XMLID_133927_" x="253.6" y="399.7" transform="matrix(-0.9812 -0.193 0.193 -0.9812 472.2305 848.7535)" class="st43" width="47.7" height="3.4"/>
				</g>
				<g id="XMLID_134114_">
					
						<rect id="XMLID_133926_" x="208.8" y="353.2" transform="matrix(-0.9812 -0.193 0.193 -0.9812 392.4887 748.0157)" class="st43" width="47.7" height="3.4"/>
					
						<rect id="XMLID_133925_" x="207.8" y="358.4" transform="matrix(-0.9812 -0.193 0.193 -0.9812 389.4692 758.084)" class="st43" width="47.7" height="3.4"/>
					
						<rect id="XMLID_133924_" x="206.8" y="363.5" transform="matrix(-0.9812 -0.193 0.193 -0.9812 386.4502 768.1536)" class="st43" width="47.7" height="3.4"/>
					
						<rect id="XMLID_133923_" x="205.8" y="368.7" transform="matrix(-0.9812 -0.193 0.193 -0.9812 383.4284 778.2248)" class="st43" width="47.7" height="3.4"/>
					
						<rect id="XMLID_133922_" x="204.7" y="373.9" transform="matrix(-0.9812 -0.193 0.193 -0.9812 380.4106 788.2906)" class="st43" width="47.7" height="3.4"/>
					
						<rect id="XMLID_133921_" x="203.7" y="379.1" transform="matrix(-0.9812 -0.193 0.193 -0.9812 377.3905 798.3607)" class="st43" width="47.7" height="3.4"/>
					
						<rect id="XMLID_133920_" x="202.7" y="384.3" transform="matrix(-0.9812 -0.193 0.193 -0.9812 374.371 808.4319)" class="st43" width="47.7" height="3.4"/>
					
						<rect id="XMLID_133919_" x="201.7" y="389.5" transform="matrix(-0.9812 -0.193 0.193 -0.9812 371.351 818.5005)" class="st43" width="47.7" height="3.4"/>
				</g>
				
					<rect id="XMLID_133918_" x="303.2" y="345.4" transform="matrix(-0.9812 -0.193 0.193 -0.9812 541.8876 751.3723)" class="st44" width="8.8" height="7.8"/>
				
					<rect id="XMLID_133917_" x="301" y="356.5" transform="matrix(-0.9812 -0.193 0.193 -0.9812 535.4127 772.9627)" class="st45" width="8.8" height="7.8"/>
				
					<rect id="XMLID_133916_" x="252.7" y="335.5" transform="matrix(-0.9812 -0.193 0.193 -0.9812 443.8947 721.9817)" class="st46" width="8.8" height="7.8"/>
				
					<rect id="XMLID_133915_" x="250.5" y="346.6" transform="matrix(-0.9812 -0.193 0.193 -0.9812 437.4209 743.5706)" class="st47" width="8.8" height="7.8"/>
				
					<rect id="XMLID_133914_" x="288.3" y="345.1" transform="matrix(-0.9812 -0.193 0.193 -0.9812 514.5515 743.4243)" class="st48" width="10.3" height="3.2"/>
				
					<rect id="XMLID_133913_" x="286.1" y="356.5" transform="matrix(-0.9812 -0.193 0.193 -0.9812 507.9421 765.4521)" class="st48" width="10.3" height="2.9"/>
				
					<rect id="XMLID_133912_" x="238.9" y="335.4" transform="matrix(-0.9812 -0.193 0.193 -0.9812 418.5661 714.6406)" class="st48" width="10.3" height="3.2"/>
				
					<rect id="XMLID_133911_" x="236.7" y="346.8" transform="matrix(-0.9812 -0.193 0.193 -0.9812 411.9643 736.6658)" class="st48" width="10.3" height="2.9"/>
				<g id="XMLID_134043_">
					<g id="XMLID_165_">
						<path id="XMLID_166_" class="st43" d="M226.9,260.9L216,316.3l3.6,0.7l84,16.5l12.4,2.4l10.9-55.4L226.9,260.9z M262.6,281.4
							l-15.6-3.1l2-10.4l15.6,3.1L262.6,281.4z M300.8,288.9l-15.6-3.1l2-10.4l15.6,3.1L300.8,288.9z M298.5,319.7L298.5,319.7
							c0.1,0,0.1,0,0.1,0.1l5.2,1c0,0,0,0-0.1-0.1l11.1,2.2l0,0l-0.3,1.4l-0.4,2.2l-0.7,3.8l-0.4,2.3l-1.3-0.3l-6.5-1.3l-4.2-0.8
							l-4.4-0.9l0,0L298.5,319.7z M301.2,306l0.4,0.1l0,0l15.6,3.1l0,0l0.5,0.1l-2.2,11.2l-0.5-0.1l-14.5-2.8l-1.1-0.2l0.1-0.8
							c-0.1-0.1-0.2-0.2-0.3-0.3L301.2,306z M303.9,292.2l16.4,3.2l-2.2,11.2l-16.4-3.2L303.9,292.2z M306.5,279.2l16.4,3.2l-2,10.4
							l-16.4-3.2L306.5,279.2z M279.4,315.9l15.6,3.1l-1.9,9.8l-15.6-3.1L279.4,315.9z M282,302.2l15.6,3.1l0,0l0,0l-1.5,7.7
							c0,0,0,0,0,0l-0.7,3.5l-0.1,0l-15.4-3l0,0L282,302.2z M284.6,289.2L284.6,289.2l0.2-0.7l15.5,3.1l-2.2,11.2l-14.9-2.9
							c0,0,0,0,0,0l-0.6-0.1L284.6,289.2z M260.2,312.2l15.6,3.1l-1.9,9.8l-15.6-3.1L260.2,312.2z M262,303L262,303l0.9-4.6
							l15.6,3.1l0,0.2l0,0l-2.2,11l-15.6-3.1L262,303z M265.6,284.7l15.6,3.1l-2.2,11.1l-0.1,0l-15.5-3L265.6,284.7z M268.2,271.7
							l15.6,3.1l-2,10.4l-15.6-3.1L268.2,271.7z M241.1,308.4l15.6,3.1l-1.9,9.8l-15.6-3.1L241.1,308.4z M243.7,294.6l15.6,3.1l0,0
							l0.1,0l-0.6,2.8l-0.1,0l-0.5,2.8l0.1,0l-1.1,5.6l-15.6-3.1l0.1-0.7l-0.1,0L243.7,294.6z M246.4,281.5l0.1-0.6l15.6,3.1
							l-2.2,11.2l-12.8-2.5l-2.7-0.5L246.4,281.5z M222,304.6l15.5,3.1l-1.9,9.8l-15.5-3.1L222,304.6z M224.7,290.9l15.5,3.1
							l-2.2,11.2l-15.5-3.1L224.7,290.9z M227.1,277.1l0.3,0l0,0l8.3,1.6l0,0l4.2,0.8l0,0l3,0.6l-2.2,11.2l-15.5-3.1l-0.3,0l0.1-0.7
							L227.1,277.1z M229.7,264.1l1.9,0.4l13.6,2.7l0.2,0l-2,10.4l-0.2,0l-4.9-1l-4.2-0.8l0,0l-6.2-1.2l0,0l-0.3,0L229.7,264.1z"/>
					</g>
				</g>
				
					<rect id="XMLID_133872_" x="317.7" y="284" transform="matrix(0.9812 0.193 -0.193 0.9812 65.6703 -55.8448)" class="st43" width="3.4" height="50.2"/>
				
					<rect id="XMLID_133871_" x="221.4" y="260.7" transform="matrix(-0.9812 -0.193 0.193 -0.9812 386.4944 615.5538)" class="st43" width="3.7" height="56.4"/>
			</g>
		</g>
		<path id="Brazo_izq_1_" class="st1" d="M68.1,299.6c0,0-14.6,53.3-20.5,97.7c0,0-9.6,20.5,4.3,18.9c0,0,65,1.6,106-27.3
			c0,0,27.6,1.5,47.6-20.5c0,0,10.2-15.5,5.9-25.8l4.3-3.4c0,0,4.3-2.2,2.2-7.1c0,0-0.9-4.3-16.8,7.4c0,0-12.7,6.2-16.5,9
			c0,0-21.7,8.7-18.9-3.7c0,0,0.5-7.1,1.9-11.5c0,0,5.7-12.1,0-12.4c0,0-2.1-2.5-7.6,9.6l-5.8,9.9c-1.2,0.1-9.5,23.8-7.8,29.2
			c0,0-54.3,6.5-67.4,15.5c0,0,13.5-59.6,17.7-76.7C96.9,308.5,78.8,299.6,68.1,299.6z"/>
		<path id="XMLID_133822_" class="st2" d="M45.1,404.2c0,0-0.9,8.5,5.6,9.1c0,0,61.9,0.9,105-26.1c0,0,29.8-1.2,49.8-18.9
			c0,0-14.3,19.8-47.6,20.5c0,0-29.9,25.8-106,27.3C51.9,416.2,41.7,417.9,45.1,404.2z"/>
		<path id="dedo_izq1_1_" class="st15" d="M211.7,342.6l-16.9,13.7c0,0-5.2,3.1-12,2.8"/>
		<path id="dedo_izq2_1_" class="st15" d="M212.5,346.7l-11.4,13.2c0,0-5.5,7.7-13.2,7.7"/>
		<path id="XMLID_133821_" class="st10" d="M66.4,294.9c0,0-16.4,65.8-20.7,97.5c0,0-9.1,27.4,6.2,23.9s0,0,0,0s20.6,2.9,42-2.5
			c0,0-8-22,0-36.3l-9.4,4.7l17.2-78.2"/>
		<path id="XMLID_133818_" class="st11" d="M129,240.6c0,0-1.4,5.4-23,12.2c0,0-15.6-2.3-27.1,10.8c0,0-9.6,17.9-12.8,34.7
			l-11.2,47.8c0,0-9,42.6-8.8,46.2c0,0-6.1,19.3,0.3,22.8c0,0,1.9,2.2,12.2-1.1l0.8,0.7l-4.6,1.3c0,0,24.2,1.7,38.4-2.6
			c0,0-3.1-5.7-3.4-10.8c0,0-17.4,10.1-23.4,3.1c0,0-23.5,10.5-15.7-7.9l23.5-102.9c0,0-1.2-31.7,30-38.9
			C104.2,256,124.6,250,129,240.6"/>
		<path id="puño_mang_izq_1_" class="st49" d="M91.6,376.3c0,0-7.4,19.7,2.1,38.6l15.7-3.2c0,0-8.8-21.1-3-36.8L91.6,376.3z"/>
		<path id="sombra_seno_izq_1_" class="st11" d="M113.5,352.9c0,0-23.1-16.4-11.8-49l-3.9,5.4c0,0-16.3,25.6,6.5,43.3l1.4,6.5h10.3
			L113.5,352.9z"/>
	</g>
</g>
</svg>
