<?xml version="1.0" encoding="utf-8"?>
<!-- Generator: Adobe Illustrator 19.0.0, SVG Export Plug-In . SVG Version: 6.00 Build 0)  -->
<svg version="1.1" id="Capa_1" xmlns="http://www.w3.org/2000/svg" xmlns:xlink="http://www.w3.org/1999/xlink" x="0px" y="0px"
	 viewBox="0 0 1097.4 451.5" style="enable-background:new 0 0 1097.4 451.5;" xml:space="preserve">
<style type="text/css">
	.st0{fill:none;stroke:#B2B2B2;stroke-width:0.75;stroke-miterlimit:10;}
	.st1{fill:#E54A3F;}
	.st2{fill:#FFFFFF;stroke:#E54A3F;stroke-width:1.5;stroke-miterlimit:10;}
	.st3{fill:none;stroke:#FFFFFF;stroke-width:1.5;stroke-miterlimit:10;}
	.st4{fill:#FFFFFF;}
	.st5{fill:#348EA9;}
	.st6{fill:#3A3A3A;}
</style>
<g id="XMLID_1_">
	<g id="XMLID_134385_">
		<g id="XMLID_134374_">
			<polygon id="XMLID_134376_" class="st0" points="881.1,153.9 833.8,120.1 834.4,119.2 883,153.9 			"/>
			<polygon id="XMLID_134375_" class="st0" points="920.3,180.5 951.9,203.1 951.2,204 918.4,180.5 			"/>
		</g>
		<g id="XMLID_134371_">
			<polygon id="XMLID_134373_" class="st0" points="689.8,153.9 737.1,120.1 736.5,119.2 687.9,153.9 			"/>
			<polygon id="XMLID_134372_" class="st0" points="650.6,180.5 619,203.1 619.7,204 652.5,180.5 			"/>
		</g>
		<g id="XMLID_134357_">
			<g id="XMLID_134383_">
				<line id="XMLID_134342_" class="st0" x1="617.1" y1="247.1" x2="617.1" y2="277.4"/>
				<rect id="XMLID_134382_" x="616.3" y="247.1" class="st0" width="1.5" height="30.3"/>
			</g>
			<g id="XMLID_134380_">
				<line id="XMLID_134340_" class="st0" x1="604.4" y1="298.2" x2="536" y2="331.8"/>
				
					<rect id="XMLID_134379_" x="569.4" y="276.9" transform="matrix(0.4415 0.8973 -0.8973 0.4415 601.0865 -335.6795)" class="st0" width="1.5" height="76.2"/>
			</g>
			<g id="XMLID_134378_">
				<line id="XMLID_134338_" class="st0" x1="627.6" y1="298.2" x2="696" y2="331.8"/>
				
					<rect id="XMLID_134377_" x="623.7" y="314.2" transform="matrix(0.8973 0.4414 -0.4414 0.8973 207.0201 -259.7955)" class="st0" width="76.2" height="1.5"/>
			</g>
			<g id="XMLID_134368_">
				<line id="XMLID_134323_" class="st0" x1="957.6" y1="247.1" x2="957.6" y2="277.4"/>
				<rect id="XMLID_134367_" x="956.9" y="247.1" class="st0" width="1.5" height="30.3"/>
			</g>
			<g id="XMLID_134347_">
				<line id="XMLID_134315_" class="st0" x1="944.9" y1="298.2" x2="876.6" y2="331.8"/>
				
					<rect id="XMLID_134346_" x="910" y="276.9" transform="matrix(0.4415 0.8973 -0.8973 0.4415 791.2983 -641.2556)" class="st0" width="1.5" height="76.2"/>
			</g>
			<g id="XMLID_134345_">
				<line id="XMLID_134343_" class="st0" x1="968.2" y1="298.2" x2="1036.5" y2="331.8"/>
				
					<rect id="XMLID_134344_" x="964.3" y="314.2" transform="matrix(0.8973 0.4414 -0.4414 0.8973 241.9987 -410.1325)" class="st0" width="76.2" height="1.5"/>
			</g>
		</g>
	</g>
	<g id="XMLID_609_">
		<g id="XMLID_1156_">
			<path id="XMLID_1212_" class="st1" d="M83.6,17.3V2.9h10.7v2.4h-7.8v3.2h7.2v2.4h-7.2v3.9h8.1v2.4H83.6z"/>
			<path id="XMLID_1210_" class="st1" d="M101.8,6.8V9h-1.9v4.2c0,0.9,0,1.3,0.1,1.5c0,0.1,0.1,0.3,0.2,0.3s0.3,0.1,0.5,0.1
				c0.3,0,0.6-0.1,1.1-0.3l0.2,2.1c-0.6,0.3-1.4,0.4-2.2,0.4c-0.5,0-0.9-0.1-1.3-0.3c-0.4-0.2-0.7-0.4-0.9-0.6
				c-0.2-0.3-0.3-0.6-0.4-1.1c-0.1-0.3-0.1-1-0.1-1.9V9h-1.3V6.8h1.3V4.8l2.8-1.6v3.7H101.8z"/>
			<path id="XMLID_1207_" class="st1" d="M105.8,10l-2.5-0.5c0.3-1,0.8-1.8,1.5-2.2s1.7-0.7,3.1-0.7c1.2,0,2.1,0.1,2.8,0.4
				s1,0.7,1.3,1.1c0.2,0.4,0.4,1.3,0.4,2.5l0,3.2c0,0.9,0,1.6,0.1,2c0.1,0.4,0.3,0.9,0.5,1.4H110c-0.1-0.2-0.2-0.5-0.3-0.8
				c0-0.2-0.1-0.3-0.1-0.3c-0.5,0.5-1,0.8-1.5,1c-0.5,0.2-1.1,0.3-1.7,0.3c-1.1,0-1.9-0.3-2.5-0.9c-0.6-0.6-0.9-1.3-0.9-2.2
				c0-0.6,0.1-1.1,0.4-1.6c0.3-0.5,0.7-0.8,1.2-1.1c0.5-0.2,1.2-0.5,2.2-0.6c1.3-0.2,2.2-0.5,2.7-0.7v-0.3c0-0.5-0.1-0.9-0.4-1.1
				c-0.3-0.2-0.8-0.3-1.5-0.3c-0.5,0-0.9,0.1-1.2,0.3S105.9,9.5,105.8,10z M109.5,12.3c-0.4,0.1-0.9,0.3-1.7,0.4
				c-0.8,0.2-1.3,0.3-1.5,0.5c-0.4,0.3-0.5,0.6-0.5,1c0,0.4,0.1,0.7,0.4,1c0.3,0.3,0.7,0.4,1.1,0.4c0.5,0,1-0.2,1.4-0.5
				c0.3-0.2,0.6-0.6,0.7-0.9c0.1-0.2,0.1-0.7,0.1-1.3V12.3z"/>
			<path id="XMLID_1204_" class="st1" d="M114.8,6.8h2.6v1.5c0.3-0.5,0.8-1,1.4-1.3s1.2-0.5,1.9-0.5c1.2,0,2.2,0.5,3.1,1.4
				c0.8,1,1.3,2.3,1.3,4c0,1.7-0.4,3.1-1.3,4.1c-0.9,1-1.9,1.5-3.1,1.5c-0.6,0-1.1-0.1-1.6-0.3s-1-0.6-1.5-1.2v5.3h-2.8V6.8z
				 M117.6,11.9c0,1.2,0.2,2,0.7,2.6c0.5,0.6,1,0.8,1.7,0.8c0.6,0,1.2-0.3,1.6-0.8c0.4-0.5,0.6-1.4,0.6-2.5c0-1.1-0.2-1.9-0.7-2.4
				s-1-0.8-1.6-0.8c-0.7,0-1.2,0.3-1.7,0.8S117.6,10.9,117.6,11.9z"/>
			<path id="XMLID_1201_" class="st1" d="M129.3,10l-2.5-0.5c0.3-1,0.8-1.8,1.5-2.2s1.7-0.7,3.1-0.7c1.2,0,2.1,0.1,2.8,0.4
				s1,0.7,1.3,1.1c0.2,0.4,0.4,1.3,0.4,2.5l0,3.2c0,0.9,0,1.6,0.1,2c0.1,0.4,0.3,0.9,0.5,1.4h-2.7c-0.1-0.2-0.2-0.5-0.3-0.8
				c0-0.2-0.1-0.3-0.1-0.3c-0.5,0.5-1,0.8-1.5,1c-0.5,0.2-1.1,0.3-1.7,0.3c-1.1,0-1.9-0.3-2.5-0.9c-0.6-0.6-0.9-1.3-0.9-2.2
				c0-0.6,0.1-1.1,0.4-1.6c0.3-0.5,0.7-0.8,1.2-1.1c0.5-0.2,1.2-0.5,2.2-0.6c1.3-0.2,2.2-0.5,2.7-0.7v-0.3c0-0.5-0.1-0.9-0.4-1.1
				c-0.3-0.2-0.8-0.3-1.5-0.3c-0.5,0-0.9,0.1-1.2,0.3S129.4,9.5,129.3,10z M133,12.3c-0.4,0.1-0.9,0.3-1.7,0.4
				c-0.8,0.2-1.3,0.3-1.5,0.5c-0.4,0.3-0.5,0.6-0.5,1c0,0.4,0.1,0.7,0.4,1c0.3,0.3,0.7,0.4,1.1,0.4c0.5,0,1-0.2,1.4-0.5
				c0.3-0.2,0.6-0.6,0.7-0.9c0.1-0.2,0.1-0.7,0.1-1.3V12.3z"/>
			<path id="XMLID_1198_" class="st1" d="M153.6,17.3H151v-1.5c-0.4,0.6-0.9,1-1.5,1.3c-0.6,0.3-1.2,0.4-1.8,0.4
				c-1.2,0-2.2-0.5-3.1-1.5c-0.9-1-1.3-2.3-1.3-4c0-1.8,0.4-3.1,1.2-4c0.8-0.9,1.9-1.4,3.2-1.4c1.2,0,2.2,0.5,3,1.5V2.9h2.8V17.3z
				 M146.2,11.8c0,1.1,0.2,1.9,0.5,2.4c0.4,0.7,1.1,1.1,1.9,1.1c0.6,0,1.2-0.3,1.6-0.8c0.4-0.5,0.7-1.3,0.7-2.4
				c0-1.2-0.2-2.1-0.6-2.6c-0.4-0.5-1-0.8-1.7-0.8c-0.7,0-1.2,0.3-1.6,0.8C146.4,10,146.2,10.8,146.2,11.8z"/>
			<path id="XMLID_1195_" class="st1" d="M162.3,14l2.8,0.5c-0.4,1-0.9,1.8-1.7,2.3c-0.8,0.5-1.7,0.8-2.9,0.8c-1.8,0-3.2-0.6-4-1.8
				c-0.7-1-1-2.2-1-3.6c0-1.7,0.5-3.1,1.4-4.1c0.9-1,2-1.5,3.4-1.5c1.6,0,2.8,0.5,3.7,1.5c0.9,1,1.3,2.6,1.3,4.7h-6.9
				c0,0.8,0.2,1.5,0.7,1.9c0.4,0.5,1,0.7,1.6,0.7c0.4,0,0.8-0.1,1.1-0.4C162,14.9,162.2,14.5,162.3,14z M162.5,11.2
				c0-0.8-0.2-1.4-0.6-1.8c-0.4-0.4-0.9-0.6-1.4-0.6c-0.6,0-1.1,0.2-1.5,0.7c-0.4,0.4-0.6,1-0.6,1.8H162.5z"/>
			<path id="XMLID_1192_" class="st1" d="M175.2,10l-2.5-0.5c0.3-1,0.8-1.8,1.5-2.2s1.7-0.7,3.1-0.7c1.2,0,2.1,0.1,2.8,0.4
				s1,0.7,1.3,1.1c0.2,0.4,0.4,1.3,0.4,2.5l0,3.2c0,0.9,0,1.6,0.1,2c0.1,0.4,0.3,0.9,0.5,1.4h-2.7c-0.1-0.2-0.2-0.5-0.3-0.8
				c0-0.2-0.1-0.3-0.1-0.3c-0.5,0.5-1,0.8-1.5,1c-0.5,0.2-1.1,0.3-1.7,0.3c-1.1,0-1.9-0.3-2.5-0.9c-0.6-0.6-0.9-1.3-0.9-2.2
				c0-0.6,0.1-1.1,0.4-1.6c0.3-0.5,0.7-0.8,1.2-1.1c0.5-0.2,1.2-0.5,2.2-0.6c1.3-0.2,2.2-0.5,2.7-0.7v-0.3c0-0.5-0.1-0.9-0.4-1.1
				c-0.3-0.2-0.8-0.3-1.5-0.3c-0.5,0-0.9,0.1-1.2,0.3S175.3,9.5,175.2,10z M178.9,12.3c-0.4,0.1-0.9,0.3-1.7,0.4
				c-0.8,0.2-1.3,0.3-1.5,0.5c-0.4,0.3-0.5,0.6-0.5,1c0,0.4,0.1,0.7,0.4,1c0.3,0.3,0.7,0.4,1.1,0.4c0.5,0,1-0.2,1.4-0.5
				c0.3-0.2,0.6-0.6,0.7-0.9c0.1-0.2,0.1-0.7,0.1-1.3V12.3z"/>
			<path id="XMLID_1190_" class="st1" d="M193.8,17.3H191v-5.3c0-1.1-0.1-1.9-0.2-2.2s-0.3-0.6-0.6-0.8s-0.6-0.3-1-0.3
				c-0.5,0-0.9,0.1-1.3,0.4c-0.4,0.3-0.6,0.6-0.8,1c-0.1,0.4-0.2,1.2-0.2,2.4v4.7h-2.8V6.8h2.6v1.5c0.9-1.2,2.1-1.8,3.4-1.8
				c0.6,0,1.2,0.1,1.7,0.3s0.9,0.5,1.1,0.8s0.4,0.7,0.5,1.2s0.2,1.1,0.2,1.9V17.3z"/>
			<path id="XMLID_1186_" class="st1" d="M198.7,10l-2.5-0.5c0.3-1,0.8-1.8,1.5-2.2s1.7-0.7,3.1-0.7c1.2,0,2.1,0.1,2.8,0.4
				s1,0.7,1.3,1.1c0.2,0.4,0.4,1.3,0.4,2.5l0,3.2c0,0.9,0,1.6,0.1,2c0.1,0.4,0.3,0.9,0.5,1.4h-2.7c-0.1-0.2-0.2-0.5-0.3-0.8
				c0-0.2-0.1-0.3-0.1-0.3c-0.5,0.5-1,0.8-1.5,1c-0.5,0.2-1.1,0.3-1.7,0.3c-1.1,0-1.9-0.3-2.5-0.9c-0.6-0.6-0.9-1.3-0.9-2.2
				c0-0.6,0.1-1.1,0.4-1.6c0.3-0.5,0.7-0.8,1.2-1.1c0.5-0.2,1.2-0.5,2.2-0.6c1.3-0.2,2.2-0.5,2.7-0.7v-0.3c0-0.5-0.1-0.9-0.4-1.1
				c-0.3-0.2-0.8-0.3-1.5-0.3c-0.5,0-0.9,0.1-1.2,0.3S198.8,9.5,198.7,10z M202.4,12.3c-0.4,0.1-0.9,0.3-1.7,0.4
				c-0.8,0.2-1.3,0.3-1.5,0.5c-0.4,0.3-0.5,0.6-0.5,1c0,0.4,0.1,0.7,0.4,1c0.3,0.3,0.7,0.4,1.1,0.4c0.5,0,1-0.2,1.4-0.5
				c0.3-0.2,0.6-0.6,0.7-0.9c0.1-0.2,0.1-0.7,0.1-1.3V12.3z M199.4,5.6l1.4-2.9h3.1l-2.7,2.9H199.4z"/>
			<path id="XMLID_1184_" class="st1" d="M207.8,17.3V2.9h2.8v14.4H207.8z"/>
			<path id="XMLID_1181_" class="st1" d="M213.4,5.4V2.9h2.8v2.6H213.4z M213.4,17.3V6.8h2.8v10.4H213.4z"/>
			<path id="XMLID_1179_" class="st1" d="M218,14.3l2.8-0.4c0.1,0.5,0.4,0.9,0.7,1.2c0.4,0.3,0.9,0.4,1.5,0.4c0.7,0,1.3-0.1,1.6-0.4
				c0.2-0.2,0.4-0.4,0.4-0.7c0-0.2-0.1-0.4-0.2-0.5c-0.1-0.1-0.4-0.3-0.9-0.4c-2.2-0.5-3.6-0.9-4.2-1.3c-0.8-0.6-1.2-1.3-1.2-2.3
				c0-0.9,0.4-1.7,1.1-2.3c0.7-0.6,1.8-0.9,3.3-0.9c1.4,0,2.5,0.2,3.2,0.7c0.7,0.5,1.2,1.2,1.4,2.1l-2.6,0.5
				c-0.1-0.4-0.3-0.7-0.6-0.9c-0.3-0.2-0.8-0.3-1.3-0.3c-0.7,0-1.2,0.1-1.6,0.3C221.1,9,221,9.2,221,9.5c0,0.2,0.1,0.4,0.3,0.5
				c0.3,0.2,1.1,0.4,2.6,0.8c1.5,0.3,2.5,0.7,3.1,1.2c0.6,0.5,0.9,1.2,0.9,2.1c0,1-0.4,1.8-1.2,2.5c-0.8,0.7-2,1-3.6,1
				c-1.4,0-2.5-0.3-3.4-0.9C218.8,16.1,218.3,15.3,218,14.3z"/>
			<path id="XMLID_1176_" class="st1" d="M230.2,5.4V2.9h2.8v2.6H230.2z M230.2,17.3V6.8h2.8v10.4H230.2z"/>
			<path id="XMLID_1174_" class="st1" d="M234.8,14.3l2.8-0.4c0.1,0.5,0.4,0.9,0.7,1.2c0.4,0.3,0.9,0.4,1.5,0.4
				c0.7,0,1.3-0.1,1.6-0.4c0.2-0.2,0.4-0.4,0.4-0.7c0-0.2-0.1-0.4-0.2-0.5c-0.1-0.1-0.4-0.3-0.9-0.4c-2.2-0.5-3.6-0.9-4.2-1.3
				c-0.8-0.6-1.2-1.3-1.2-2.3c0-0.9,0.4-1.7,1.1-2.3c0.7-0.6,1.8-0.9,3.3-0.9c1.4,0,2.5,0.2,3.2,0.7c0.7,0.5,1.2,1.2,1.4,2.1
				l-2.6,0.5c-0.1-0.4-0.3-0.7-0.6-0.9c-0.3-0.2-0.8-0.3-1.3-0.3c-0.7,0-1.2,0.1-1.6,0.3c-0.2,0.1-0.3,0.3-0.3,0.6
				c0,0.2,0.1,0.4,0.3,0.5c0.3,0.2,1.1,0.4,2.6,0.8c1.5,0.3,2.5,0.7,3.1,1.2c0.6,0.5,0.9,1.2,0.9,2.1c0,1-0.4,1.8-1.2,2.5
				c-0.8,0.7-2,1-3.6,1c-1.4,0-2.5-0.3-3.4-0.9C235.6,16.1,235.1,15.3,234.8,14.3z"/>
			<path id="XMLID_1171_" class="st1" d="M252.6,5.4V2.9h2.8v2.6H252.6z M252.6,17.3V6.8h2.8v10.4H252.6z"/>
			<path id="XMLID_1169_" class="st1" d="M267.7,17.3h-2.8v-5.3c0-1.1-0.1-1.9-0.2-2.2s-0.3-0.6-0.6-0.8s-0.6-0.3-1-0.3
				c-0.5,0-0.9,0.1-1.3,0.4c-0.4,0.3-0.6,0.6-0.8,1c-0.1,0.4-0.2,1.2-0.2,2.4v4.7h-2.8V6.8h2.6v1.5c0.9-1.2,2.1-1.8,3.4-1.8
				c0.6,0,1.2,0.1,1.7,0.3s0.9,0.5,1.1,0.8s0.4,0.7,0.5,1.2s0.2,1.1,0.2,1.9V17.3z"/>
			<path id="XMLID_1167_" class="st1" d="M275.3,6.8V9h-1.9v4.2c0,0.9,0,1.3,0.1,1.5c0,0.1,0.1,0.3,0.2,0.3s0.3,0.1,0.5,0.1
				c0.3,0,0.6-0.1,1.1-0.3l0.2,2.1c-0.6,0.3-1.4,0.4-2.2,0.4c-0.5,0-0.9-0.1-1.3-0.3c-0.4-0.2-0.7-0.4-0.9-0.6
				c-0.2-0.3-0.3-0.6-0.4-1.1c-0.1-0.3-0.1-1-0.1-1.9V9h-1.3V6.8h1.3V4.8l2.8-1.6v3.7H275.3z"/>
			<path id="XMLID_1164_" class="st1" d="M283.2,14l2.8,0.5c-0.4,1-0.9,1.8-1.7,2.3c-0.8,0.5-1.7,0.8-2.9,0.8c-1.8,0-3.2-0.6-4-1.8
				c-0.7-1-1-2.2-1-3.6c0-1.7,0.5-3.1,1.4-4.1c0.9-1,2-1.5,3.4-1.5c1.6,0,2.8,0.5,3.7,1.5c0.9,1,1.3,2.6,1.3,4.7h-6.9
				c0,0.8,0.2,1.5,0.7,1.9c0.4,0.5,1,0.7,1.6,0.7c0.4,0,0.8-0.1,1.1-0.4C282.9,14.9,283.1,14.5,283.2,14z M283.4,11.2
				c0-0.8-0.2-1.4-0.6-1.8c-0.4-0.4-0.9-0.6-1.4-0.6c-0.6,0-1.1,0.2-1.5,0.7c-0.4,0.4-0.6,1-0.6,1.8H283.4z"/>
			<path id="XMLID_1162_" class="st1" d="M291,17.3h-2.8V6.8h2.6v1.5c0.4-0.7,0.8-1.2,1.2-1.4s0.7-0.3,1.2-0.3
				c0.6,0,1.2,0.2,1.8,0.5l-0.9,2.4c-0.5-0.3-0.9-0.5-1.3-0.5c-0.4,0-0.7,0.1-1,0.3c-0.3,0.2-0.5,0.6-0.6,1.2s-0.2,1.7-0.2,3.5V17.3
				z"/>
			<path id="XMLID_1160_" class="st1" d="M305.7,17.3H303v-5.3c0-1.1-0.1-1.9-0.2-2.2s-0.3-0.6-0.6-0.8s-0.6-0.3-1-0.3
				c-0.5,0-0.9,0.1-1.3,0.4c-0.4,0.3-0.6,0.6-0.8,1c-0.1,0.4-0.2,1.2-0.2,2.4v4.7h-2.8V6.8h2.6v1.5c0.9-1.2,2.1-1.8,3.4-1.8
				c0.6,0,1.2,0.1,1.7,0.3s0.9,0.5,1.1,0.8s0.4,0.7,0.5,1.2s0.2,1.1,0.2,1.9V17.3z"/>
			<path id="XMLID_1157_" class="st1" d="M307.9,11.9c0-0.9,0.2-1.8,0.7-2.7c0.5-0.9,1.1-1.5,1.9-2c0.8-0.5,1.8-0.7,2.8-0.7
				c1.6,0,2.9,0.5,3.9,1.5c1,1,1.5,2.3,1.5,3.9c0,1.6-0.5,2.9-1.5,3.9s-2.3,1.6-3.9,1.6c-1,0-1.9-0.2-2.7-0.6
				c-0.9-0.4-1.5-1.1-2-1.9C308.1,14.1,307.9,13.1,307.9,11.9z M310.7,12.1c0,1,0.2,1.8,0.7,2.4c0.5,0.6,1.1,0.8,1.8,0.8
				c0.7,0,1.3-0.3,1.8-0.8s0.7-1.4,0.7-2.4c0-1-0.2-1.8-0.7-2.4s-1.1-0.8-1.8-0.8c-0.7,0-1.3,0.3-1.8,0.8
				C311,10.2,310.7,11,310.7,12.1z"/>
		</g>
	</g>
	<g id="XMLID_551_">
		<g id="XMLID_1097_">
			<path id="XMLID_1153_" class="st1" d="M73.8,251.6v-14.4h10.7v2.4h-7.8v3.2h7.2v2.4h-7.2v3.9h8.1v2.4H73.8z"/>
			<path id="XMLID_1151_" class="st1" d="M92,241.2v2.2h-1.9v4.2c0,0.9,0,1.3,0.1,1.5c0,0.1,0.1,0.3,0.2,0.3s0.3,0.1,0.5,0.1
				c0.3,0,0.6-0.1,1.1-0.3l0.2,2.1c-0.6,0.3-1.4,0.4-2.2,0.4c-0.5,0-0.9-0.1-1.3-0.3c-0.4-0.2-0.7-0.4-0.9-0.6
				c-0.2-0.3-0.3-0.6-0.4-1.1c-0.1-0.3-0.1-1-0.1-1.9v-4.6H86v-2.2h1.3v-2.1l2.8-1.6v3.7H92z"/>
			<path id="XMLID_1148_" class="st1" d="M96,244.4l-2.5-0.5c0.3-1,0.8-1.8,1.5-2.2s1.7-0.7,3.1-0.7c1.2,0,2.1,0.1,2.8,0.4
				s1,0.7,1.3,1.1c0.2,0.4,0.4,1.3,0.4,2.5l0,3.2c0,0.9,0,1.6,0.1,2c0.1,0.4,0.3,0.9,0.5,1.4h-2.7c-0.1-0.2-0.2-0.5-0.3-0.8
				c0-0.2-0.1-0.3-0.1-0.3c-0.5,0.5-1,0.8-1.5,1c-0.5,0.2-1.1,0.3-1.7,0.3c-1.1,0-1.9-0.3-2.5-0.9c-0.6-0.6-0.9-1.3-0.9-2.2
				c0-0.6,0.1-1.1,0.4-1.6c0.3-0.5,0.7-0.8,1.2-1.1c0.5-0.2,1.2-0.5,2.2-0.6c1.3-0.2,2.2-0.5,2.7-0.7v-0.3c0-0.5-0.1-0.9-0.4-1.1
				c-0.3-0.2-0.8-0.3-1.5-0.3c-0.5,0-0.9,0.1-1.2,0.3S96.1,243.9,96,244.4z M99.7,246.6c-0.4,0.1-0.9,0.3-1.7,0.4
				c-0.8,0.2-1.3,0.3-1.5,0.5c-0.4,0.3-0.5,0.6-0.5,1c0,0.4,0.1,0.7,0.4,1c0.3,0.3,0.7,0.4,1.1,0.4c0.5,0,1-0.2,1.4-0.5
				c0.3-0.2,0.6-0.6,0.7-0.9c0.1-0.2,0.1-0.7,0.1-1.3V246.6z"/>
			<path id="XMLID_1145_" class="st1" d="M105,241.2h2.6v1.5c0.3-0.5,0.8-1,1.4-1.3s1.2-0.5,1.9-0.5c1.2,0,2.2,0.5,3.1,1.4
				c0.8,1,1.3,2.3,1.3,4c0,1.7-0.4,3.1-1.3,4.1c-0.9,1-1.9,1.5-3.1,1.5c-0.6,0-1.1-0.1-1.6-0.3s-1-0.6-1.5-1.2v5.3H105V241.2z
				 M107.7,246.3c0,1.2,0.2,2,0.7,2.6c0.5,0.6,1,0.8,1.7,0.8c0.6,0,1.2-0.3,1.6-0.8c0.4-0.5,0.6-1.4,0.6-2.5c0-1.1-0.2-1.9-0.7-2.4
				s-1-0.8-1.6-0.8c-0.7,0-1.2,0.3-1.7,0.8S107.7,245.2,107.7,246.3z"/>
			<path id="XMLID_1142_" class="st1" d="M119.5,244.4l-2.5-0.5c0.3-1,0.8-1.8,1.5-2.2s1.7-0.7,3.1-0.7c1.2,0,2.1,0.1,2.8,0.4
				s1,0.7,1.3,1.1c0.2,0.4,0.4,1.3,0.4,2.5l0,3.2c0,0.9,0,1.6,0.1,2c0.1,0.4,0.3,0.9,0.5,1.4h-2.7c-0.1-0.2-0.2-0.5-0.3-0.8
				c0-0.2-0.1-0.3-0.1-0.3c-0.5,0.5-1,0.8-1.5,1c-0.5,0.2-1.1,0.3-1.7,0.3c-1.1,0-1.9-0.3-2.5-0.9c-0.6-0.6-0.9-1.3-0.9-2.2
				c0-0.6,0.1-1.1,0.4-1.6c0.3-0.5,0.7-0.8,1.2-1.1c0.5-0.2,1.2-0.5,2.2-0.6c1.3-0.2,2.2-0.5,2.7-0.7v-0.3c0-0.5-0.1-0.9-0.4-1.1
				c-0.3-0.2-0.8-0.3-1.5-0.3c-0.5,0-0.9,0.1-1.2,0.3S119.6,243.9,119.5,244.4z M123.2,246.6c-0.4,0.1-0.9,0.3-1.7,0.4
				c-0.8,0.2-1.3,0.3-1.5,0.5c-0.4,0.3-0.5,0.6-0.5,1c0,0.4,0.1,0.7,0.4,1c0.3,0.3,0.7,0.4,1.1,0.4c0.5,0,1-0.2,1.4-0.5
				c0.3-0.2,0.6-0.6,0.7-0.9c0.1-0.2,0.1-0.7,0.1-1.3V246.6z"/>
			<path id="XMLID_1139_" class="st1" d="M143.8,251.6h-2.6v-1.5c-0.4,0.6-0.9,1-1.5,1.3c-0.6,0.3-1.2,0.4-1.8,0.4
				c-1.2,0-2.2-0.5-3.1-1.5c-0.9-1-1.3-2.3-1.3-4c0-1.8,0.4-3.1,1.2-4c0.8-0.9,1.9-1.4,3.2-1.4c1.2,0,2.2,0.5,3,1.5v-5.2h2.8V251.6z
				 M136.4,246.2c0,1.1,0.2,1.9,0.5,2.4c0.4,0.7,1.1,1.1,1.9,1.1c0.6,0,1.2-0.3,1.6-0.8c0.4-0.5,0.7-1.3,0.7-2.4
				c0-1.2-0.2-2.1-0.6-2.6c-0.4-0.5-1-0.8-1.7-0.8c-0.7,0-1.2,0.3-1.6,0.8C136.6,244.4,136.4,245.2,136.4,246.2z"/>
			<path id="XMLID_1136_" class="st1" d="M152.5,248.3l2.8,0.5c-0.4,1-0.9,1.8-1.7,2.3c-0.8,0.5-1.7,0.8-2.9,0.8
				c-1.8,0-3.2-0.6-4-1.8c-0.7-1-1-2.2-1-3.6c0-1.7,0.5-3.1,1.4-4.1c0.9-1,2-1.5,3.4-1.5c1.6,0,2.8,0.5,3.7,1.5
				c0.9,1,1.3,2.6,1.3,4.7h-6.9c0,0.8,0.2,1.5,0.7,1.9c0.4,0.5,1,0.7,1.6,0.7c0.4,0,0.8-0.1,1.1-0.4
				C152.2,249.2,152.4,248.9,152.5,248.3z M152.7,245.5c0-0.8-0.2-1.4-0.6-1.8c-0.4-0.4-0.9-0.6-1.4-0.6c-0.6,0-1.1,0.2-1.5,0.7
				c-0.4,0.4-0.6,1-0.6,1.8H152.7z"/>
			<path id="XMLID_1133_" class="st1" d="M165.4,244.4l-2.5-0.5c0.3-1,0.8-1.8,1.5-2.2s1.7-0.7,3.1-0.7c1.2,0,2.1,0.1,2.8,0.4
				s1,0.7,1.3,1.1c0.2,0.4,0.4,1.3,0.4,2.5l0,3.2c0,0.9,0,1.6,0.1,2c0.1,0.4,0.3,0.9,0.5,1.4h-2.7c-0.1-0.2-0.2-0.5-0.3-0.8
				c0-0.2-0.1-0.3-0.1-0.3c-0.5,0.5-1,0.8-1.5,1c-0.5,0.2-1.1,0.3-1.7,0.3c-1.1,0-1.9-0.3-2.5-0.9c-0.6-0.6-0.9-1.3-0.9-2.2
				c0-0.6,0.1-1.1,0.4-1.6c0.3-0.5,0.7-0.8,1.2-1.1c0.5-0.2,1.2-0.5,2.2-0.6c1.3-0.2,2.2-0.5,2.7-0.7v-0.3c0-0.5-0.1-0.9-0.4-1.1
				c-0.3-0.2-0.8-0.3-1.5-0.3c-0.5,0-0.9,0.1-1.2,0.3S165.5,243.9,165.4,244.4z M169.1,246.6c-0.4,0.1-0.9,0.3-1.7,0.4
				c-0.8,0.2-1.3,0.3-1.5,0.5c-0.4,0.3-0.5,0.6-0.5,1c0,0.4,0.1,0.7,0.4,1c0.3,0.3,0.7,0.4,1.1,0.4c0.5,0,1-0.2,1.4-0.5
				c0.3-0.2,0.6-0.6,0.7-0.9c0.1-0.2,0.1-0.7,0.1-1.3V246.6z"/>
			<path id="XMLID_1131_" class="st1" d="M184,251.6h-2.8v-5.3c0-1.1-0.1-1.9-0.2-2.2s-0.3-0.6-0.6-0.8s-0.6-0.3-1-0.3
				c-0.5,0-0.9,0.1-1.3,0.4c-0.4,0.3-0.6,0.6-0.8,1c-0.1,0.4-0.2,1.2-0.2,2.4v4.7h-2.8v-10.4h2.6v1.5c0.9-1.2,2.1-1.8,3.4-1.8
				c0.6,0,1.2,0.1,1.7,0.3s0.9,0.5,1.1,0.8s0.4,0.7,0.5,1.2s0.2,1.1,0.2,1.9V251.6z"/>
			<path id="XMLID_1127_" class="st1" d="M188.9,244.4l-2.5-0.5c0.3-1,0.8-1.8,1.5-2.2s1.7-0.7,3.1-0.7c1.2,0,2.1,0.1,2.8,0.4
				s1,0.7,1.3,1.1c0.2,0.4,0.4,1.3,0.4,2.5l0,3.2c0,0.9,0,1.6,0.1,2c0.1,0.4,0.3,0.9,0.5,1.4h-2.7c-0.1-0.2-0.2-0.5-0.3-0.8
				c0-0.2-0.1-0.3-0.1-0.3c-0.5,0.5-1,0.8-1.5,1c-0.5,0.2-1.1,0.3-1.7,0.3c-1.1,0-1.9-0.3-2.5-0.9c-0.6-0.6-0.9-1.3-0.9-2.2
				c0-0.6,0.1-1.1,0.4-1.6c0.3-0.5,0.7-0.8,1.2-1.1c0.5-0.2,1.2-0.5,2.2-0.6c1.3-0.2,2.2-0.5,2.7-0.7v-0.3c0-0.5-0.1-0.9-0.4-1.1
				c-0.3-0.2-0.8-0.3-1.5-0.3c-0.5,0-0.9,0.1-1.2,0.3S189,243.9,188.9,244.4z M192.6,246.6c-0.4,0.1-0.9,0.3-1.7,0.4
				c-0.8,0.2-1.3,0.3-1.5,0.5c-0.4,0.3-0.5,0.6-0.5,1c0,0.4,0.1,0.7,0.4,1c0.3,0.3,0.7,0.4,1.1,0.4c0.5,0,1-0.2,1.4-0.5
				c0.3-0.2,0.6-0.6,0.7-0.9c0.1-0.2,0.1-0.7,0.1-1.3V246.6z M189.6,239.9l1.4-2.9h3.1l-2.7,2.9H189.6z"/>
			<path id="XMLID_1125_" class="st1" d="M198,251.6v-14.4h2.8v14.4H198z"/>
			<path id="XMLID_1122_" class="st1" d="M203.6,239.8v-2.6h2.8v2.6H203.6z M203.6,251.6v-10.4h2.8v10.4H203.6z"/>
			<path id="XMLID_1120_" class="st1" d="M208.2,248.7l2.8-0.4c0.1,0.5,0.4,0.9,0.7,1.2c0.4,0.3,0.9,0.4,1.5,0.4
				c0.7,0,1.3-0.1,1.6-0.4c0.2-0.2,0.4-0.4,0.4-0.7c0-0.2-0.1-0.4-0.2-0.5c-0.1-0.1-0.4-0.3-0.9-0.4c-2.2-0.5-3.6-0.9-4.2-1.3
				c-0.8-0.6-1.2-1.3-1.2-2.3c0-0.9,0.4-1.7,1.1-2.3c0.7-0.6,1.8-0.9,3.3-0.9c1.4,0,2.5,0.2,3.2,0.7c0.7,0.5,1.2,1.2,1.4,2.1
				l-2.6,0.5c-0.1-0.4-0.3-0.7-0.6-0.9c-0.3-0.2-0.8-0.3-1.3-0.3c-0.7,0-1.2,0.1-1.6,0.3c-0.2,0.1-0.3,0.3-0.3,0.6
				c0,0.2,0.1,0.4,0.3,0.5c0.3,0.2,1.1,0.4,2.6,0.8c1.5,0.3,2.5,0.7,3.1,1.2c0.6,0.5,0.9,1.2,0.9,2.1c0,1-0.4,1.8-1.2,2.5
				c-0.8,0.7-2,1-3.6,1c-1.4,0-2.5-0.3-3.4-0.9C209,250.4,208.5,249.7,208.2,248.7z"/>
			<path id="XMLID_1117_" class="st1" d="M220.4,239.8v-2.6h2.8v2.6H220.4z M220.4,251.6v-10.4h2.8v10.4H220.4z"/>
			<path id="XMLID_1115_" class="st1" d="M225,248.7l2.8-0.4c0.1,0.5,0.4,0.9,0.7,1.2c0.4,0.3,0.9,0.4,1.5,0.4
				c0.7,0,1.3-0.1,1.6-0.4c0.2-0.2,0.4-0.4,0.4-0.7c0-0.2-0.1-0.4-0.2-0.5c-0.1-0.1-0.4-0.3-0.9-0.4c-2.2-0.5-3.6-0.9-4.2-1.3
				c-0.8-0.6-1.2-1.3-1.2-2.3c0-0.9,0.4-1.7,1.1-2.3c0.7-0.6,1.8-0.9,3.3-0.9c1.4,0,2.5,0.2,3.2,0.7c0.7,0.5,1.2,1.2,1.4,2.1
				l-2.6,0.5c-0.1-0.4-0.3-0.7-0.6-0.9c-0.3-0.2-0.8-0.3-1.3-0.3c-0.7,0-1.2,0.1-1.6,0.3c-0.2,0.1-0.3,0.3-0.3,0.6
				c0,0.2,0.1,0.4,0.3,0.5c0.3,0.2,1.1,0.4,2.6,0.8c1.5,0.3,2.5,0.7,3.1,1.2c0.6,0.5,0.9,1.2,0.9,2.1c0,1-0.4,1.8-1.2,2.5
				c-0.8,0.7-2,1-3.6,1c-1.4,0-2.5-0.3-3.4-0.9C225.8,250.4,225.3,249.7,225,248.7z"/>
			<path id="XMLID_1112_" class="st1" d="M248.8,248.3l2.8,0.5c-0.4,1-0.9,1.8-1.7,2.3c-0.8,0.5-1.7,0.8-2.9,0.8
				c-1.8,0-3.2-0.6-4-1.8c-0.7-1-1-2.2-1-3.6c0-1.7,0.5-3.1,1.4-4.1c0.9-1,2-1.5,3.4-1.5c1.6,0,2.8,0.5,3.7,1.5
				c0.9,1,1.3,2.6,1.3,4.7h-6.9c0,0.8,0.2,1.5,0.7,1.9c0.4,0.5,1,0.7,1.6,0.7c0.4,0,0.8-0.1,1.1-0.4
				C248.5,249.2,248.7,248.9,248.8,248.3z M249,245.5c0-0.8-0.2-1.4-0.6-1.8c-0.4-0.4-0.9-0.6-1.4-0.6c-0.6,0-1.1,0.2-1.5,0.7
				c-0.4,0.4-0.6,1-0.6,1.8H249z"/>
			<path id="XMLID_1110_" class="st1" d="M252.7,251.6l3.8-5.4l-3.6-5.1h3.4l1.8,2.9l1.9-2.9h3.2l-3.5,4.9l3.9,5.5h-3.4l-2.1-3.2
				l-2.1,3.2H252.7z"/>
			<path id="XMLID_1108_" class="st1" d="M270,241.2v2.2h-1.9v4.2c0,0.9,0,1.3,0.1,1.5c0,0.1,0.1,0.3,0.2,0.3s0.3,0.1,0.5,0.1
				c0.3,0,0.6-0.1,1.1-0.3l0.2,2.1c-0.6,0.3-1.4,0.4-2.2,0.4c-0.5,0-0.9-0.1-1.3-0.3c-0.4-0.2-0.7-0.4-0.9-0.6
				c-0.2-0.3-0.3-0.6-0.4-1.1c-0.1-0.3-0.1-1-0.1-1.9v-4.6H264v-2.2h1.3v-2.1l2.8-1.6v3.7H270z"/>
			<path id="XMLID_1105_" class="st1" d="M277.9,248.3l2.8,0.5c-0.4,1-0.9,1.8-1.7,2.3c-0.8,0.5-1.7,0.8-2.9,0.8
				c-1.8,0-3.2-0.6-4-1.8c-0.7-1-1-2.2-1-3.6c0-1.7,0.5-3.1,1.4-4.1c0.9-1,2-1.5,3.4-1.5c1.6,0,2.8,0.5,3.7,1.5
				c0.9,1,1.3,2.6,1.3,4.7h-6.9c0,0.8,0.2,1.5,0.7,1.9c0.4,0.5,1,0.7,1.6,0.7c0.4,0,0.8-0.1,1.1-0.4
				C277.6,249.2,277.8,248.9,277.9,248.3z M278.1,245.5c0-0.8-0.2-1.4-0.6-1.8c-0.4-0.4-0.9-0.6-1.4-0.6c-0.6,0-1.1,0.2-1.5,0.7
				c-0.4,0.4-0.6,1-0.6,1.8H278.1z"/>
			<path id="XMLID_1103_" class="st1" d="M285.7,251.6H283v-10.4h2.6v1.5c0.4-0.7,0.8-1.2,1.2-1.4s0.7-0.3,1.2-0.3
				c0.6,0,1.2,0.2,1.8,0.5l-0.9,2.4c-0.5-0.3-0.9-0.5-1.3-0.5c-0.4,0-0.7,0.1-1,0.3c-0.3,0.2-0.5,0.6-0.6,1.2s-0.2,1.7-0.2,3.5
				V251.6z"/>
			<path id="XMLID_1101_" class="st1" d="M300.4,251.6h-2.8v-5.3c0-1.1-0.1-1.9-0.2-2.2s-0.3-0.6-0.6-0.8s-0.6-0.3-1-0.3
				c-0.5,0-0.9,0.1-1.3,0.4c-0.4,0.3-0.6,0.6-0.8,1c-0.1,0.4-0.2,1.2-0.2,2.4v4.7h-2.8v-10.4h2.6v1.5c0.9-1.2,2.1-1.8,3.4-1.8
				c0.6,0,1.2,0.1,1.7,0.3s0.9,0.5,1.1,0.8s0.4,0.7,0.5,1.2s0.2,1.1,0.2,1.9V251.6z"/>
			<path id="XMLID_1098_" class="st1" d="M302.6,246.3c0-0.9,0.2-1.8,0.7-2.7c0.5-0.9,1.1-1.5,1.9-2c0.8-0.5,1.8-0.7,2.8-0.7
				c1.6,0,2.9,0.5,3.9,1.5c1,1,1.5,2.3,1.5,3.9c0,1.6-0.5,2.9-1.5,3.9s-2.3,1.6-3.9,1.6c-1,0-1.9-0.2-2.7-0.6
				c-0.9-0.4-1.5-1.1-2-1.9C302.8,248.5,302.6,247.5,302.6,246.3z M305.4,246.4c0,1,0.2,1.8,0.7,2.4c0.5,0.6,1.1,0.8,1.8,0.8
				c0.7,0,1.3-0.3,1.8-0.8s0.7-1.4,0.7-2.4c0-1-0.2-1.8-0.7-2.4s-1.1-0.8-1.8-0.8c-0.7,0-1.3,0.3-1.8,0.8
				C305.7,244.6,305.4,245.4,305.4,246.4z"/>
		</g>
	</g>
	<rect id="XMLID_134455_" x="0.8" y="33.6" class="st2" width="400" height="184.5"/>
	<line id="XMLID_134454_" class="st2" x1="0.8" y1="197.6" x2="400.8" y2="197.6"/>
	<line id="XMLID_134453_" class="st2" x1="0.8" y1="177.1" x2="400.8" y2="177.1"/>
	<line id="XMLID_134452_" class="st2" x1="0.8" y1="156.6" x2="400.8" y2="156.6"/>
	<line id="XMLID_134451_" class="st2" x1="0.8" y1="136.1" x2="400.8" y2="136.1"/>
	<line id="XMLID_134450_" class="st2" x1="0.8" y1="115.6" x2="400.8" y2="115.6"/>
	<line id="XMLID_134449_" class="st2" x1="0.8" y1="95.1" x2="400.8" y2="95.1"/>
	<line id="XMLID_134448_" class="st2" x1="0.8" y1="74.6" x2="400.8" y2="74.6"/>
	<line id="XMLID_134447_" class="st2" x1="0.8" y1="54.1" x2="400.8" y2="54.1"/>
	<line id="XMLID_134364_" class="st2" x1="200.8" y1="33.6" x2="200.8" y2="218.1"/>
	<rect id="XMLID_134312_" x="0.8" y="33.6" class="st1" width="400" height="20.5"/>
	<line id="XMLID_134313_" class="st3" x1="200.8" y1="33.6" x2="200.8" y2="54.1"/>
	<g id="XMLID_526_">
		<path id="XMLID_527_" class="st4" d="M58.2,48.6v-9.2h6.3V41H60v2.2h3.8v1.6H60v3.9H58.2z"/>
		<path id="XMLID_529_" class="st4" d="M65.6,44.1c0-0.9,0.1-1.7,0.4-2.4c0.2-0.5,0.5-0.9,0.9-1.3c0.4-0.4,0.8-0.6,1.2-0.8
			c0.6-0.2,1.2-0.4,2-0.4c1.4,0,2.4,0.4,3.2,1.3s1.2,2,1.2,3.5c0,1.5-0.4,2.6-1.2,3.5c-0.8,0.8-1.9,1.3-3.2,1.3
			c-1.4,0-2.4-0.4-3.3-1.2C66,46.7,65.6,45.6,65.6,44.1z M67.5,44c0,1,0.2,1.8,0.7,2.4s1.1,0.8,1.8,0.8s1.3-0.3,1.8-0.8
			s0.7-1.3,0.7-2.4c0-1.1-0.2-1.8-0.7-2.4s-1.1-0.8-1.8-0.8s-1.4,0.3-1.8,0.8C67.7,42.2,67.5,43,67.5,44z"/>
		<path id="XMLID_532_" class="st4" d="M76,48.6v-9.2h3.9c1,0,1.7,0.1,2.1,0.2c0.4,0.2,0.8,0.5,1.1,0.9c0.3,0.4,0.4,0.9,0.4,1.4
			c0,0.7-0.2,1.3-0.6,1.7c-0.4,0.4-1,0.7-1.8,0.8c0.4,0.2,0.7,0.5,1,0.8s0.6,0.8,1.1,1.5l1.1,1.8H82l-1.3-2c-0.5-0.7-0.8-1.2-1-1.3
			c-0.2-0.2-0.4-0.3-0.6-0.4c-0.2-0.1-0.5-0.1-0.9-0.1h-0.4v3.8H76z M77.8,43.3h1.4c0.9,0,1.4,0,1.7-0.1c0.2-0.1,0.4-0.2,0.5-0.4
			s0.2-0.4,0.2-0.7c0-0.3-0.1-0.6-0.2-0.7c-0.2-0.2-0.4-0.3-0.7-0.4c-0.2,0-0.6,0-1.4,0h-1.4V43.3z"/>
		<path id="XMLID_535_" class="st4" d="M87.3,48.6V41h-2.7v-1.6h7.3V41h-2.7v7.6H87.3z"/>
		<path id="XMLID_537_" class="st4" d="M100.4,48.6h-2l-0.8-2.1h-3.7l-0.8,2.1h-2l3.6-9.2h2L100.4,48.6z M96.9,45l-1.3-3.4L94.4,45
			H96.9z"/>
		<path id="XMLID_540_" class="st4" d="M101.4,48.6v-9.1h1.9v7.6h4.6v1.5H101.4z"/>
		<path id="XMLID_542_" class="st4" d="M109.2,48.6v-9.2h6.8V41h-5v2h4.6v1.5H111v2.5h5.1v1.5H109.2z"/>
		<path id="XMLID_544_" class="st4" d="M116.9,48.6V47l4.8-6h-4.3v-1.6h6.7v1.4l-5,6.2h5.2v1.5H116.9z"/>
		<path id="XMLID_546_" class="st4" d="M133.8,48.6h-2l-0.8-2.1h-3.7l-0.8,2.1h-2l3.6-9.2h2L133.8,48.6z M130.4,45l-1.3-3.4
			l-1.2,3.4H130.4z"/>
		<path id="XMLID_549_" class="st4" d="M134.3,45.7l1.8-0.2c0.1,0.6,0.3,1,0.7,1.3c0.3,0.3,0.8,0.4,1.3,0.4c0.6,0,1-0.1,1.3-0.4
			c0.3-0.3,0.5-0.5,0.5-0.9c0-0.2-0.1-0.4-0.2-0.6c-0.1-0.2-0.3-0.3-0.7-0.4c-0.2-0.1-0.7-0.2-1.5-0.4c-1-0.2-1.7-0.5-2.1-0.9
			c-0.6-0.5-0.8-1.1-0.8-1.8c0-0.5,0.1-0.9,0.4-1.3c0.3-0.4,0.6-0.7,1.1-0.9c0.5-0.2,1.1-0.3,1.8-0.3c1.2,0,2,0.3,2.6,0.8
			c0.6,0.5,0.9,1.2,0.9,2l-1.9,0.1c-0.1-0.5-0.2-0.8-0.5-1c-0.3-0.2-0.7-0.3-1.2-0.3c-0.5,0-1,0.1-1.3,0.3c-0.2,0.1-0.3,0.3-0.3,0.6
			c0,0.2,0.1,0.4,0.3,0.6c0.2,0.2,0.8,0.4,1.7,0.6c0.9,0.2,1.6,0.4,2,0.7c0.4,0.2,0.8,0.5,1,0.9c0.2,0.4,0.4,0.9,0.4,1.5
			c0,0.5-0.1,1-0.4,1.5s-0.7,0.8-1.2,1c-0.5,0.2-1.2,0.3-2,0.3c-1.2,0-2.1-0.3-2.7-0.8C134.8,47.5,134.5,46.7,134.3,45.7z"/>
	</g>
	<g id="XMLID_497_">
		<path id="XMLID_498_" class="st4" d="M253.3,39.5h3.4c0.8,0,1.3,0.1,1.7,0.2c0.5,0.2,1,0.4,1.4,0.8c0.4,0.4,0.7,0.9,0.9,1.5
			s0.3,1.3,0.3,2.2c0,0.8-0.1,1.4-0.3,2c-0.2,0.7-0.6,1.2-1,1.6c-0.3,0.3-0.8,0.6-1.3,0.7c-0.4,0.1-1,0.2-1.6,0.2h-3.5V39.5z
			 M255.1,41v6.1h1.4c0.5,0,0.9,0,1.1-0.1c0.3-0.1,0.5-0.2,0.7-0.4c0.2-0.2,0.4-0.5,0.5-0.9s0.2-1,0.2-1.7s-0.1-1.3-0.2-1.6
			c-0.1-0.4-0.3-0.7-0.5-0.9c-0.2-0.2-0.5-0.4-0.9-0.4c-0.3-0.1-0.8-0.1-1.5-0.1H255.1z"/>
		<path id="XMLID_501_" class="st4" d="M262.5,48.6v-9.2h6.8V41h-5v2h4.6v1.5h-4.6v2.5h5.1v1.5H262.5z"/>
		<path id="XMLID_503_" class="st4" d="M271.1,39.5h3.7c0.7,0,1.3,0,1.6,0.1c0.4,0.1,0.7,0.2,1,0.4c0.3,0.2,0.5,0.4,0.7,0.8
			s0.3,0.7,0.3,1.1c0,0.4-0.1,0.8-0.3,1.2c-0.2,0.4-0.5,0.6-0.9,0.8c0.6,0.2,1,0.4,1.3,0.8c0.3,0.4,0.5,0.9,0.5,1.4
			c0,0.4-0.1,0.8-0.3,1.2c-0.2,0.4-0.5,0.7-0.8,0.9c-0.3,0.2-0.8,0.4-1.2,0.4c-0.3,0-1.1,0.1-2.2,0.1h-3.1V39.5z M273,41v2.1h1.2
			c0.7,0,1.2,0,1.3,0c0.3,0,0.6-0.1,0.7-0.3s0.3-0.4,0.3-0.7c0-0.3-0.1-0.5-0.2-0.7c-0.2-0.2-0.4-0.3-0.7-0.3c-0.2,0-0.7,0-1.6,0
			H273z M273,44.6v2.5h1.7c0.7,0,1.1,0,1.3-0.1c0.3,0,0.5-0.2,0.7-0.4c0.2-0.2,0.3-0.5,0.3-0.8c0-0.3-0.1-0.5-0.2-0.7
			c-0.1-0.2-0.3-0.3-0.6-0.4c-0.3-0.1-0.8-0.1-1.6-0.1H273z"/>
		<path id="XMLID_507_" class="st4" d="M280.3,48.6v-9.2h1.9v9.2H280.3z"/>
		<path id="XMLID_509_" class="st4" d="M284,48.6v-9.1h1.9v7.6h4.6v1.5H284z"/>
		<path id="XMLID_511_" class="st4" d="M291.7,48.6v-9.2h1.9v9.2H291.7z"/>
		<path id="XMLID_513_" class="st4" d="M295.3,39.5h3.4c0.8,0,1.3,0.1,1.7,0.2c0.5,0.2,1,0.4,1.4,0.8c0.4,0.4,0.7,0.9,0.9,1.5
			s0.3,1.3,0.3,2.2c0,0.8-0.1,1.4-0.3,2c-0.2,0.7-0.6,1.2-1,1.6c-0.3,0.3-0.8,0.6-1.3,0.7c-0.4,0.1-1,0.2-1.6,0.2h-3.5V39.5z
			 M297.1,41v6.1h1.4c0.5,0,0.9,0,1.1-0.1c0.3-0.1,0.5-0.2,0.7-0.4c0.2-0.2,0.4-0.5,0.5-0.9s0.2-1,0.2-1.7s-0.1-1.3-0.2-1.6
			c-0.1-0.4-0.3-0.7-0.5-0.9c-0.2-0.2-0.5-0.4-0.9-0.4c-0.3-0.1-0.8-0.1-1.5-0.1H297.1z"/>
		<path id="XMLID_516_" class="st4" d="M312.8,48.6h-2l-0.8-2.1h-3.7l-0.8,2.1h-2l3.6-9.2h2L312.8,48.6z M309.4,45l-1.3-3.4
			l-1.2,3.4H309.4z"/>
		<path id="XMLID_519_" class="st4" d="M313.8,39.5h3.4c0.8,0,1.3,0.1,1.7,0.2c0.5,0.2,1,0.4,1.4,0.8c0.4,0.4,0.7,0.9,0.9,1.5
			s0.3,1.3,0.3,2.2c0,0.8-0.1,1.4-0.3,2c-0.2,0.7-0.6,1.2-1,1.6c-0.3,0.3-0.8,0.6-1.3,0.7c-0.4,0.1-1,0.2-1.6,0.2h-3.5V39.5z
			 M315.7,41v6.1h1.4c0.5,0,0.9,0,1.1-0.1c0.3-0.1,0.5-0.2,0.7-0.4c0.2-0.2,0.4-0.5,0.5-0.9s0.2-1,0.2-1.7s-0.1-1.3-0.2-1.6
			c-0.1-0.4-0.3-0.7-0.5-0.9c-0.2-0.2-0.5-0.4-0.9-0.4c-0.3-0.1-0.8-0.1-1.5-0.1H315.7z"/>
		<path id="XMLID_522_" class="st4" d="M323.1,48.6v-9.2h6.8V41h-5v2h4.6v1.5h-4.6v2.5h5.1v1.5H323.1z"/>
		<path id="XMLID_524_" class="st4" d="M331.1,45.7l1.8-0.2c0.1,0.6,0.3,1,0.7,1.3c0.3,0.3,0.8,0.4,1.3,0.4c0.6,0,1-0.1,1.3-0.4
			c0.3-0.3,0.5-0.5,0.5-0.9c0-0.2-0.1-0.4-0.2-0.6c-0.1-0.2-0.3-0.3-0.7-0.4c-0.2-0.1-0.7-0.2-1.5-0.4c-1-0.2-1.7-0.5-2.1-0.9
			c-0.6-0.5-0.8-1.1-0.8-1.8c0-0.5,0.1-0.9,0.4-1.3c0.3-0.4,0.6-0.7,1.1-0.9c0.5-0.2,1.1-0.3,1.8-0.3c1.2,0,2,0.3,2.6,0.8
			c0.6,0.5,0.9,1.2,0.9,2l-1.9,0.1c-0.1-0.5-0.2-0.8-0.5-1c-0.3-0.2-0.7-0.3-1.2-0.3c-0.5,0-1,0.1-1.3,0.3c-0.2,0.1-0.3,0.3-0.3,0.6
			c0,0.2,0.1,0.4,0.3,0.6c0.2,0.2,0.8,0.4,1.7,0.6c0.9,0.2,1.6,0.4,2,0.7c0.4,0.2,0.8,0.5,1,0.9c0.2,0.4,0.4,0.9,0.4,1.5
			c0,0.5-0.1,1-0.4,1.5s-0.7,0.8-1.2,1c-0.5,0.2-1.2,0.3-2,0.3c-1.2,0-2.1-0.3-2.7-0.8C331.6,47.5,331.3,46.7,331.1,45.7z"/>
	</g>
	<rect id="XMLID_134334_" x="0.8" y="266.2" class="st2" width="400" height="184.5"/>
	<line id="XMLID_134333_" class="st2" x1="0.8" y1="430.3" x2="400.8" y2="430.3"/>
	<line id="XMLID_134332_" class="st2" x1="0.8" y1="409.8" x2="400.8" y2="409.8"/>
	<line id="XMLID_134330_" class="st2" x1="0.8" y1="389.3" x2="400.8" y2="389.3"/>
	<line id="XMLID_134329_" class="st2" x1="0.8" y1="368.8" x2="400.8" y2="368.8"/>
	<line id="XMLID_134327_" class="st2" x1="0.8" y1="348.3" x2="400.8" y2="348.3"/>
	<line id="XMLID_134325_" class="st2" x1="0.8" y1="327.8" x2="400.8" y2="327.8"/>
	<line id="XMLID_134324_" class="st2" x1="0.8" y1="307.2" x2="400.8" y2="307.2"/>
	<line id="XMLID_134322_" class="st2" x1="0.8" y1="286.7" x2="400.8" y2="286.7"/>
	<line id="XMLID_134321_" class="st2" x1="200.8" y1="266.2" x2="200.8" y2="450.8"/>
	<rect id="XMLID_134320_" x="0.8" y="266.2" class="st1" width="400" height="20.5"/>
	<line id="XMLID_134319_" class="st3" x1="200.8" y1="266.2" x2="200.8" y2="286.7"/>
	<g id="XMLID_463_">
		<path id="XMLID_464_" class="st4" d="M44.1,276.8c0-0.9,0.1-1.7,0.4-2.4c0.2-0.5,0.5-0.9,0.9-1.3c0.4-0.4,0.8-0.6,1.2-0.8
			c0.6-0.2,1.2-0.4,2-0.4c1.4,0,2.4,0.4,3.2,1.3s1.2,2,1.2,3.5c0,1.5-0.4,2.6-1.2,3.5c-0.8,0.8-1.9,1.3-3.2,1.3
			c-1.4,0-2.4-0.4-3.3-1.2C44.5,279.4,44.1,278.2,44.1,276.8z M46,276.7c0,1,0.2,1.8,0.7,2.4s1.1,0.8,1.8,0.8s1.3-0.3,1.8-0.8
			s0.7-1.3,0.7-2.4c0-1.1-0.2-1.8-0.7-2.4s-1.1-0.8-1.8-0.8s-1.4,0.3-1.8,0.8C46.3,274.9,46,275.7,46,276.7z"/>
		<path id="XMLID_467_" class="st4" d="M54.5,281.3v-9.2h3c1.1,0,1.9,0,2.2,0.1c0.5,0.1,1,0.4,1.3,0.9s0.5,1.1,0.5,1.8
			c0,0.6-0.1,1-0.3,1.4c-0.2,0.4-0.5,0.7-0.8,0.9c-0.3,0.2-0.6,0.4-1,0.4c-0.4,0.1-1.1,0.1-1.9,0.1h-1.2v3.5H54.5z M56.3,273.7v2.6
			h1c0.7,0,1.2,0,1.5-0.1s0.4-0.2,0.6-0.5c0.1-0.2,0.2-0.4,0.2-0.7c0-0.3-0.1-0.6-0.3-0.8c-0.2-0.2-0.4-0.4-0.7-0.4
			c-0.2,0-0.7-0.1-1.3-0.1H56.3z"/>
		<path id="XMLID_470_" class="st4" d="M62.6,276.8c0-0.9,0.1-1.7,0.4-2.4c0.2-0.5,0.5-0.9,0.9-1.3c0.4-0.4,0.8-0.6,1.2-0.8
			c0.6-0.2,1.2-0.4,2-0.4c1.4,0,2.4,0.4,3.2,1.3s1.2,2,1.2,3.5c0,1.5-0.4,2.6-1.2,3.5c-0.8,0.8-1.9,1.3-3.2,1.3
			c-1.4,0-2.4-0.4-3.3-1.2C63,279.4,62.6,278.2,62.6,276.8z M64.5,276.7c0,1,0.2,1.8,0.7,2.4s1.1,0.8,1.8,0.8s1.3-0.3,1.8-0.8
			s0.7-1.3,0.7-2.4c0-1.1-0.2-1.8-0.7-2.4s-1.1-0.8-1.8-0.8s-1.4,0.3-1.8,0.8C64.8,274.9,64.5,275.7,64.5,276.7z"/>
		<path id="XMLID_473_" class="st4" d="M73,281.3v-9.2h3.9c1,0,1.7,0.1,2.1,0.2c0.4,0.2,0.8,0.5,1.1,0.9c0.3,0.4,0.4,0.9,0.4,1.4
			c0,0.7-0.2,1.3-0.6,1.7c-0.4,0.4-1,0.7-1.8,0.8c0.4,0.2,0.7,0.5,1,0.8s0.6,0.8,1.1,1.5l1.1,1.8H79l-1.3-2c-0.5-0.7-0.8-1.2-1-1.3
			c-0.2-0.2-0.4-0.3-0.6-0.4c-0.2-0.1-0.5-0.1-0.9-0.1h-0.4v3.8H73z M74.8,276h1.4c0.9,0,1.4,0,1.7-0.1c0.2-0.1,0.4-0.2,0.5-0.4
			s0.2-0.4,0.2-0.7c0-0.3-0.1-0.6-0.2-0.7c-0.2-0.2-0.4-0.3-0.7-0.4c-0.2,0-0.6,0-1.4,0h-1.4V276z"/>
		<path id="XMLID_476_" class="st4" d="M84.3,281.3v-7.6h-2.7v-1.6h7.3v1.6h-2.7v7.6H84.3z"/>
		<path id="XMLID_478_" class="st4" d="M90.1,272.1h1.9v5c0,0.8,0,1.3,0.1,1.5c0.1,0.4,0.3,0.7,0.6,0.9c0.3,0.2,0.7,0.3,1.2,0.3
			c0.5,0,0.9-0.1,1.2-0.3c0.3-0.2,0.4-0.5,0.5-0.8c0.1-0.3,0.1-0.8,0.1-1.6v-5.1h1.9v4.8c0,1.1,0,1.9-0.1,2.3
			c-0.1,0.5-0.3,0.8-0.6,1.2c-0.3,0.3-0.6,0.6-1.1,0.7s-1,0.3-1.8,0.3c-0.9,0-1.5-0.1-2-0.3c-0.5-0.2-0.8-0.5-1.1-0.8
			s-0.4-0.7-0.5-1c-0.1-0.5-0.2-1.3-0.2-2.3V272.1z"/>
		<path id="XMLID_480_" class="st4" d="M99.3,281.3v-9.2h1.8l3.8,6.1v-6.1h1.7v9.2h-1.9l-3.7-6v6H99.3z"/>
		<path id="XMLID_482_" class="st4" d="M108.5,281.3v-9.2h1.9v9.2H108.5z"/>
		<path id="XMLID_484_" class="st4" d="M112.1,272.1h3.4c0.8,0,1.3,0.1,1.7,0.2c0.5,0.2,1,0.4,1.4,0.8c0.4,0.4,0.7,0.9,0.9,1.5
			s0.3,1.3,0.3,2.2c0,0.8-0.1,1.4-0.3,2c-0.2,0.7-0.6,1.2-1,1.6c-0.3,0.3-0.8,0.6-1.3,0.7c-0.4,0.1-1,0.2-1.6,0.2h-3.5V272.1z
			 M114,273.7v6.1h1.4c0.5,0,0.9,0,1.1-0.1c0.3-0.1,0.5-0.2,0.7-0.4c0.2-0.2,0.4-0.5,0.5-0.9s0.2-1,0.2-1.7s-0.1-1.3-0.2-1.6
			c-0.1-0.4-0.3-0.7-0.5-0.9c-0.2-0.2-0.5-0.4-0.9-0.4c-0.3-0.1-0.8-0.1-1.5-0.1H114z"/>
		<path id="XMLID_487_" class="st4" d="M129.7,281.3h-2l-0.8-2.1h-3.7l-0.8,2.1h-2l3.6-9.2h2L129.7,281.3z M126.3,277.7l-1.3-3.4
			l-1.2,3.4H126.3z"/>
		<path id="XMLID_490_" class="st4" d="M130.6,272.1h3.4c0.8,0,1.3,0.1,1.7,0.2c0.5,0.2,1,0.4,1.4,0.8c0.4,0.4,0.7,0.9,0.9,1.5
			s0.3,1.3,0.3,2.2c0,0.8-0.1,1.4-0.3,2c-0.2,0.7-0.6,1.2-1,1.6c-0.3,0.3-0.8,0.6-1.3,0.7c-0.4,0.1-1,0.2-1.6,0.2h-3.5V272.1z
			 M132.5,273.7v6.1h1.4c0.5,0,0.9,0,1.1-0.1c0.3-0.1,0.5-0.2,0.7-0.4c0.2-0.2,0.4-0.5,0.5-0.9s0.2-1,0.2-1.7s-0.1-1.3-0.2-1.6
			c-0.1-0.4-0.3-0.7-0.5-0.9c-0.2-0.2-0.5-0.4-0.9-0.4c-0.3-0.1-0.8-0.1-1.5-0.1H132.5z"/>
		<path id="XMLID_493_" class="st4" d="M139.9,281.3v-9.2h6.8v1.6h-5v2h4.6v1.5h-4.6v2.5h5.1v1.5H139.9z"/>
		<path id="XMLID_495_" class="st4" d="M148,278.3l1.8-0.2c0.1,0.6,0.3,1,0.7,1.3c0.3,0.3,0.8,0.4,1.3,0.4c0.6,0,1-0.1,1.3-0.4
			c0.3-0.3,0.5-0.5,0.5-0.9c0-0.2-0.1-0.4-0.2-0.6c-0.1-0.2-0.3-0.3-0.7-0.4c-0.2-0.1-0.7-0.2-1.5-0.4c-1-0.2-1.7-0.5-2.1-0.9
			c-0.6-0.5-0.8-1.1-0.8-1.8c0-0.5,0.1-0.9,0.4-1.3c0.3-0.4,0.6-0.7,1.1-0.9c0.5-0.2,1.1-0.3,1.8-0.3c1.2,0,2,0.3,2.6,0.8
			c0.6,0.5,0.9,1.2,0.9,2l-1.9,0.1c-0.1-0.5-0.2-0.8-0.5-1c-0.3-0.2-0.7-0.3-1.2-0.3c-0.5,0-1,0.1-1.3,0.3c-0.2,0.1-0.3,0.3-0.3,0.6
			c0,0.2,0.1,0.4,0.3,0.6c0.2,0.2,0.8,0.4,1.7,0.6c0.9,0.2,1.6,0.4,2,0.7c0.4,0.2,0.8,0.5,1,0.9c0.2,0.4,0.4,0.9,0.4,1.5
			c0,0.5-0.1,1-0.4,1.5s-0.7,0.8-1.2,1c-0.5,0.2-1.2,0.3-2,0.3c-1.2,0-2.1-0.3-2.7-0.8C148.5,280.1,148.1,279.3,148,278.3z"/>
	</g>
	<g id="XMLID_443_">
		<path id="XMLID_444_" class="st4" d="M268.7,281.3h-2l-0.8-2.1h-3.7l-0.8,2.1h-2l3.6-9.2h2L268.7,281.3z M265.3,277.7l-1.3-3.4
			l-1.2,3.4H265.3z"/>
		<path id="XMLID_447_" class="st4" d="M269.6,281.3v-9.2h2.8l1.7,6.3l1.6-6.3h2.8v9.2h-1.7v-7.2l-1.8,7.2h-1.8l-1.8-7.2v7.2H269.6z
			"/>
		<path id="XMLID_449_" class="st4" d="M280.3,281.3v-9.2h6.8v1.6h-5v2h4.6v1.5h-4.6v2.5h5.1v1.5H280.3z"/>
		<path id="XMLID_451_" class="st4" d="M288.9,281.3v-9.2h1.8l3.8,6.1v-6.1h1.7v9.2h-1.9l-3.7-6v6H288.9z"/>
		<path id="XMLID_453_" class="st4" d="M306.4,281.3h-2l-0.8-2.1h-3.7l-0.8,2.1h-2l3.6-9.2h2L306.4,281.3z M303,277.7l-1.3-3.4
			l-1.2,3.4H303z"/>
		<path id="XMLID_456_" class="st4" d="M306.6,281.3v-1.7l4.8-6h-4.3v-1.6h6.7v1.4l-5,6.2h5.2v1.5H306.6z"/>
		<path id="XMLID_458_" class="st4" d="M323.5,281.3h-2l-0.8-2.1H317l-0.8,2.1h-2l3.6-9.2h2L323.5,281.3z M320.1,277.7l-1.3-3.4
			l-1.2,3.4H320.1z"/>
		<path id="XMLID_461_" class="st4" d="M324,278.3l1.8-0.2c0.1,0.6,0.3,1,0.7,1.3c0.3,0.3,0.8,0.4,1.3,0.4c0.6,0,1-0.1,1.3-0.4
			c0.3-0.3,0.5-0.5,0.5-0.9c0-0.2-0.1-0.4-0.2-0.6c-0.1-0.2-0.3-0.3-0.7-0.4c-0.2-0.1-0.7-0.2-1.5-0.4c-1-0.2-1.7-0.5-2.1-0.9
			c-0.6-0.5-0.8-1.1-0.8-1.8c0-0.5,0.1-0.9,0.4-1.3c0.3-0.4,0.6-0.7,1.1-0.9c0.5-0.2,1.1-0.3,1.8-0.3c1.2,0,2,0.3,2.6,0.8
			c0.6,0.5,0.9,1.2,0.9,2l-1.9,0.1c-0.1-0.5-0.2-0.8-0.5-1c-0.3-0.2-0.7-0.3-1.2-0.3c-0.5,0-1,0.1-1.3,0.3c-0.2,0.1-0.3,0.3-0.3,0.6
			c0,0.2,0.1,0.4,0.3,0.6c0.2,0.2,0.8,0.4,1.7,0.6c0.9,0.2,1.6,0.4,2,0.7c0.4,0.2,0.8,0.5,1,0.9c0.2,0.4,0.4,0.9,0.4,1.5
			c0,0.5-0.1,1-0.4,1.5s-0.7,0.8-1.2,1c-0.5,0.2-1.2,0.3-2,0.3c-1.2,0-2.1-0.3-2.7-0.8C324.5,280.1,324.1,279.3,324,278.3z"/>
	</g>
	<ellipse id="XMLID_134370_" class="st1" cx="778.1" cy="98.4" rx="65.2" ry="34.3"/>
	<path id="XMLID_134369_" class="st5" d="M727.1,247.1H508.2c-4.4,0-8-3.6-8-8v-28.6c0-4.4,3.6-8,8-8h218.9c4.4,0,8,3.6,8,8v28.6
		C735.1,243.5,731.5,247.1,727.1,247.1z"/>
	<g id="XMLID_417_">
		<g id="XMLID_846_">
			<path id="XMLID_870_" class="st4" d="M745.2,97.6V84.3h4l2.4,9l2.4-9h4v13.2h-2.5V87.2l-2.6,10.4h-2.6l-2.6-10.4v10.4H745.2z"/>
			<path id="XMLID_867_" class="st4" d="M772.6,97.6h-2.9l-1.2-3h-5.3l-1.1,3h-2.8l5.2-13.2h2.8L772.6,97.6z M767.6,92.3l-1.8-4.9
				l-1.8,4.9H767.6z"/>
			<path id="XMLID_865_" class="st4" d="M775.6,97.6v-11h-3.9v-2.2h10.5v2.2h-3.9v11H775.6z"/>
			<path id="XMLID_862_" class="st4" d="M783.9,97.6V84.3h5.6c1.4,0,2.4,0.1,3.1,0.4s1.2,0.7,1.5,1.3c0.4,0.6,0.6,1.3,0.6,2.1
				c0,1-0.3,1.8-0.9,2.5c-0.6,0.6-1.5,1.1-2.6,1.2c0.6,0.3,1.1,0.7,1.4,1.1c0.4,0.4,0.9,1.1,1.5,2.1l1.6,2.6h-3.2l-1.9-2.9
				c-0.7-1-1.2-1.7-1.4-1.9c-0.3-0.3-0.5-0.5-0.8-0.6c-0.3-0.1-0.7-0.1-1.3-0.1h-0.5v5.5H783.9z M786.6,89.9h2
				c1.3,0,2.1-0.1,2.4-0.2c0.3-0.1,0.6-0.3,0.7-0.6c0.2-0.3,0.3-0.6,0.3-1c0-0.4-0.1-0.8-0.4-1.1c-0.2-0.3-0.6-0.4-1-0.5
				c-0.2,0-0.9,0-2,0h-2.1V89.9z"/>
			<path id="XMLID_860_" class="st4" d="M797.2,97.6V84.3h2.7v13.2H797.2z"/>
			<path id="XMLID_858_" class="st4" d="M801.2,97.6v-2.4l7-8.6H802v-2.2h9.7v2.1l-7.2,8.9h7.5v2.2H801.2z"/>
			<path id="XMLID_855_" class="st4" d="M754.1,105h4.9c1.1,0,1.9,0.1,2.5,0.3c0.8,0.2,1.4,0.6,2,1.2c0.6,0.6,1,1.3,1.3,2.1
				s0.4,1.9,0.4,3.1c0,1.1-0.1,2-0.4,2.8c-0.3,1-0.8,1.7-1.4,2.3c-0.5,0.5-1.1,0.8-1.9,1.1c-0.6,0.2-1.4,0.3-2.4,0.3h-5V105z
				 M756.8,107.2v8.8h2c0.7,0,1.3,0,1.6-0.1c0.4-0.1,0.8-0.3,1.1-0.5c0.3-0.3,0.5-0.7,0.7-1.3s0.3-1.4,0.3-2.4c0-1-0.1-1.8-0.3-2.4
				s-0.4-1-0.8-1.3c-0.3-0.3-0.7-0.5-1.2-0.6c-0.4-0.1-1.1-0.1-2.2-0.1H756.8z"/>
			<path id="XMLID_852_" class="st4" d="M766.9,111.7c0-1.3,0.2-2.5,0.6-3.4c0.3-0.7,0.7-1.3,1.2-1.8c0.5-0.5,1.1-0.9,1.7-1.2
				c0.8-0.3,1.8-0.5,2.9-0.5c2,0,3.5,0.6,4.7,1.8c1.2,1.2,1.8,2.9,1.8,5c0,2.1-0.6,3.8-1.7,5c-1.2,1.2-2.7,1.8-4.7,1.8
				c-2,0-3.5-0.6-4.7-1.8C767.5,115.5,766.9,113.8,766.9,111.7z M769.7,111.6c0,1.5,0.3,2.6,1,3.4s1.6,1.2,2.6,1.2s1.9-0.4,2.6-1.2
				c0.7-0.8,1-1.9,1-3.5c0-1.5-0.3-2.6-1-3.4c-0.7-0.7-1.5-1.1-2.6-1.1s-2,0.4-2.7,1.1C770,108.9,769.7,110.1,769.7,111.6z"/>
			<path id="XMLID_850_" class="st4" d="M781.9,118.2V105h9.1v2.2h-6.4v3.1h5.5v2.2h-5.5v5.6H781.9z"/>
			<path id="XMLID_847_" class="st4" d="M804.1,118.2h-2.9l-1.2-3h-5.3l-1.1,3h-2.8l5.2-13.2h2.8L804.1,118.2z M799.1,113l-1.8-4.9
				l-1.8,4.9H799.1z"/>
		</g>
	</g>
	<g id="XMLID_353_">
		<path id="XMLID_354_" class="st4" d="M536.2,226c-0.1-1.4-0.2-3.2-0.2-4.4h0c-0.4,1.2-0.8,2.5-1.3,3.9l-1.8,5h-1l-1.7-4.9
			c-0.5-1.4-0.9-2.8-1.2-4h0c0,1.3-0.1,3-0.2,4.5l-0.3,4.4h-1.3l0.7-10.3h1.7l1.8,5c0.4,1.3,0.8,2.4,1,3.5h0c0.3-1,0.6-2.2,1.1-3.5
			l1.8-5h1.7l0.6,10.3h-1.3L536.2,226z"/>
		<path id="XMLID_356_" class="st4" d="M543.9,230.5l-0.1-0.9h0c-0.4,0.6-1.2,1.1-2.3,1.1c-1.5,0-2.3-1.1-2.3-2.1
			c0-1.8,1.6-2.8,4.4-2.7v-0.2c0-0.6-0.2-1.7-1.7-1.7c-0.7,0-1.4,0.2-1.9,0.5l-0.3-0.9c0.6-0.4,1.5-0.7,2.4-0.7c2.3,0,2.8,1.5,2.8,3
			v2.8c0,0.6,0,1.3,0.1,1.8H543.9z M543.7,226.8c-1.5,0-3.1,0.2-3.1,1.7c0,0.9,0.6,1.3,1.3,1.3c1,0,1.6-0.6,1.8-1.2
			c0-0.1,0.1-0.3,0.1-0.4V226.8z"/>
		<path id="XMLID_359_" class="st4" d="M548.7,221.1v2.1h1.9v1h-1.9v4c0,0.9,0.3,1.4,1,1.4c0.4,0,0.6,0,0.8-0.1l0.1,1
			c-0.3,0.1-0.7,0.2-1.2,0.2c-0.6,0-1.1-0.2-1.4-0.6c-0.4-0.4-0.5-1.1-0.5-1.9v-4h-1.1v-1h1.1v-1.8L548.7,221.1z"/>
		<path id="XMLID_361_" class="st4" d="M552.1,225.5c0-0.9,0-1.6-0.1-2.3h1.2l0,1.4h0.1c0.3-1,1.1-1.6,2-1.6c0.2,0,0.3,0,0.4,0v1.3
			c-0.1,0-0.3,0-0.5,0c-0.9,0-1.6,0.7-1.8,1.7c0,0.2-0.1,0.4-0.1,0.6v3.9h-1.3V225.5z"/>
		<path id="XMLID_363_" class="st4" d="M558.7,221.1c0,0.5-0.3,0.8-0.9,0.8c-0.5,0-0.8-0.4-0.8-0.8c0-0.5,0.3-0.8,0.8-0.8
			C558.3,220.3,558.7,220.6,558.7,221.1z M557.2,230.5v-7.4h1.3v7.4H557.2z"/>
		<path id="XMLID_366_" class="st4" d="M559.9,229.8l3.3-4.3c0.3-0.4,0.6-0.7,1-1.1v0h-4v-1.1h5.6l0,0.8l-3.3,4.3
			c-0.3,0.4-0.6,0.8-0.9,1.2v0h4.3v1.1h-6V229.8z"/>
		<path id="XMLID_368_" class="st4" d="M576.8,219.7v8.9c0,0.7,0,1.4,0.1,1.9h-1.2l-0.1-1.3h0c-0.4,0.8-1.3,1.4-2.5,1.4
			c-1.8,0-3.2-1.5-3.2-3.7c0-2.5,1.5-4,3.3-4c1.1,0,1.9,0.5,2.2,1.1h0v-4.4H576.8z M575.5,226.2c0-0.2,0-0.4-0.1-0.6
			c-0.2-0.9-0.9-1.6-1.9-1.6c-1.4,0-2.2,1.2-2.2,2.8c0,1.5,0.7,2.7,2.2,2.7c0.9,0,1.7-0.6,2-1.6c0-0.2,0.1-0.4,0.1-0.6V226.2z"/>
		<path id="XMLID_371_" class="st4" d="M579.8,227.1c0,1.8,1.2,2.6,2.5,2.6c1,0,1.5-0.2,2-0.4l0.2,1c-0.5,0.2-1.3,0.5-2.5,0.5
			c-2.3,0-3.6-1.5-3.6-3.7c0-2.2,1.3-4,3.5-4c2.4,0,3,2.1,3,3.5c0,0.3,0,0.5,0,0.6H579.8z M583.7,226.1c0-0.9-0.4-2.2-1.9-2.2
			c-1.4,0-1.9,1.2-2.1,2.2H583.7z"/>
		<path id="XMLID_374_" class="st4" d="M590.7,227.1c0,1.8,1.2,2.6,2.5,2.6c1,0,1.5-0.2,2-0.4l0.2,1c-0.5,0.2-1.3,0.5-2.5,0.5
			c-2.3,0-3.6-1.5-3.6-3.7c0-2.2,1.3-4,3.5-4c2.4,0,3,2.1,3,3.5c0,0.3,0,0.5,0,0.6H590.7z M594.6,226.1c0-0.9-0.4-2.2-1.9-2.2
			c-1.4,0-1.9,1.2-2.1,2.2H594.6z"/>
		<path id="XMLID_377_" class="st4" d="M598.1,223.2l1.4,4.1c0.2,0.7,0.4,1.3,0.6,1.9h0c0.2-0.6,0.4-1.2,0.6-1.9l1.4-4.1h1.4
			l-2.9,7.4h-1.3l-2.8-7.4H598.1z"/>
		<path id="XMLID_379_" class="st4" d="M608.9,230.5l-0.1-0.9h0c-0.4,0.6-1.2,1.1-2.3,1.1c-1.5,0-2.3-1.1-2.3-2.1
			c0-1.8,1.6-2.8,4.4-2.7v-0.2c0-0.6-0.2-1.7-1.7-1.7c-0.7,0-1.4,0.2-1.9,0.5l-0.3-0.9c0.6-0.4,1.5-0.7,2.4-0.7c2.3,0,2.8,1.5,2.8,3
			v2.8c0,0.6,0,1.3,0.1,1.8H608.9z M608.7,226.8c-1.5,0-3.1,0.2-3.1,1.7c0,0.9,0.6,1.3,1.3,1.3c1,0,1.6-0.6,1.8-1.2
			c0-0.1,0.1-0.3,0.1-0.4V226.8z"/>
		<path id="XMLID_382_" class="st4" d="M612.1,219.7h1.3v10.8h-1.3V219.7z"/>
		<path id="XMLID_384_" class="st4" d="M621.9,228.5c0,0.8,0,1.4,0.1,2h-1.2l-0.1-1.2h0c-0.4,0.6-1.1,1.4-2.4,1.4
			c-1.2,0-2.5-0.6-2.5-3.2v-4.3h1.3v4.1c0,1.4,0.4,2.3,1.6,2.3c0.9,0,1.5-0.6,1.8-1.2c0.1-0.2,0.1-0.4,0.1-0.7v-4.5h1.3V228.5z"/>
		<path id="XMLID_386_" class="st4" d="M628.2,230.5l-0.1-0.9h0c-0.4,0.6-1.2,1.1-2.3,1.1c-1.5,0-2.3-1.1-2.3-2.1
			c0-1.8,1.6-2.8,4.4-2.7v-0.2c0-0.6-0.2-1.7-1.7-1.7c-0.7,0-1.4,0.2-1.9,0.5l-0.3-0.9c0.6-0.4,1.5-0.7,2.4-0.7c2.3,0,2.8,1.5,2.8,3
			v2.8c0,0.6,0,1.3,0.1,1.8H628.2z M628,226.8c-1.5,0-3.1,0.2-3.1,1.7c0,0.9,0.6,1.3,1.3,1.3c1,0,1.6-0.6,1.8-1.2
			c0-0.1,0.1-0.3,0.1-0.4V226.8z"/>
		<path id="XMLID_389_" class="st4" d="M636.7,230.3c-0.3,0.2-1.1,0.4-2.1,0.4c-2.2,0-3.7-1.5-3.7-3.8c0-2.3,1.6-3.9,4-3.9
			c0.8,0,1.5,0.2,1.9,0.4l-0.3,1c-0.3-0.2-0.8-0.4-1.6-0.4c-1.7,0-2.6,1.2-2.6,2.8c0,1.7,1.1,2.8,2.6,2.8c0.8,0,1.3-0.2,1.6-0.4
			L636.7,230.3z"/>
		<path id="XMLID_391_" class="st4" d="M639.8,221.1c0,0.5-0.3,0.8-0.9,0.8c-0.5,0-0.8-0.4-0.8-0.8c0-0.5,0.3-0.8,0.8-0.8
			C639.5,220.3,639.8,220.6,639.8,221.1z M638.3,230.5v-7.4h1.3v7.4H638.3z"/>
		<path id="XMLID_394_" class="st4" d="M648.5,226.8c0,2.7-1.9,3.9-3.7,3.9c-2,0-3.5-1.5-3.5-3.8c0-2.5,1.6-3.9,3.7-3.9
			C647.1,223,648.5,224.5,648.5,226.8z M642.7,226.9c0,1.6,0.9,2.8,2.2,2.8c1.3,0,2.2-1.2,2.2-2.9c0-1.2-0.6-2.8-2.2-2.8
			S642.7,225.5,642.7,226.9z M646.9,220l-1.9,2.2h-1l1.3-2.2H646.9z"/>
		<path id="XMLID_398_" class="st4" d="M650.2,225.2c0-0.8,0-1.4-0.1-2h1.2l0.1,1.2h0c0.4-0.7,1.2-1.4,2.4-1.4c1,0,2.6,0.6,2.6,3.1
			v4.4h-1.3v-4.2c0-1.2-0.4-2.2-1.7-2.2c-0.9,0-1.6,0.6-1.8,1.4c-0.1,0.2-0.1,0.4-0.1,0.6v4.4h-1.3V225.2z"/>
		<path id="XMLID_400_" class="st4" d="M662.6,227.1c0,1.8,1.2,2.6,2.5,2.6c1,0,1.5-0.2,2-0.4l0.2,1c-0.5,0.2-1.3,0.5-2.5,0.5
			c-2.3,0-3.6-1.5-3.6-3.7c0-2.2,1.3-4,3.5-4c2.4,0,3,2.1,3,3.5c0,0.3,0,0.5,0,0.6H662.6z M666.6,226.1c0-0.9-0.4-2.2-1.9-2.2
			c-1.4,0-1.9,1.2-2.1,2.2H666.6z"/>
		<path id="XMLID_403_" class="st4" d="M670.1,223.2l1.1,1.6c0.3,0.4,0.5,0.8,0.7,1.2h0c0.2-0.4,0.5-0.8,0.7-1.2l1-1.6h1.4l-2.5,3.6
			l2.6,3.8h-1.5l-1.1-1.7c-0.3-0.4-0.5-0.8-0.8-1.3h0c-0.2,0.4-0.5,0.8-0.8,1.3l-1.1,1.7h-1.5l2.6-3.8l-2.5-3.6H670.1z"/>
		<path id="XMLID_405_" class="st4" d="M678.3,221.1v2.1h1.9v1h-1.9v4c0,0.9,0.3,1.4,1,1.4c0.4,0,0.6,0,0.8-0.1l0.1,1
			c-0.3,0.1-0.7,0.2-1.2,0.2c-0.6,0-1.1-0.2-1.4-0.6c-0.4-0.4-0.5-1.1-0.5-1.9v-4h-1.1v-1h1.1v-1.8L678.3,221.1z"/>
		<path id="XMLID_407_" class="st4" d="M682.4,227.1c0,1.8,1.2,2.6,2.5,2.6c1,0,1.5-0.2,2-0.4l0.2,1c-0.5,0.2-1.3,0.5-2.5,0.5
			c-2.3,0-3.6-1.5-3.6-3.7c0-2.2,1.3-4,3.5-4c2.4,0,3,2.1,3,3.5c0,0.3,0,0.5,0,0.6H682.4z M686.3,226.1c0-0.9-0.4-2.2-1.9-2.2
			c-1.4,0-1.9,1.2-2.1,2.2H686.3z"/>
		<path id="XMLID_410_" class="st4" d="M689.3,225.5c0-0.9,0-1.6-0.1-2.3h1.2l0,1.4h0.1c0.3-1,1.1-1.6,2-1.6c0.2,0,0.3,0,0.4,0v1.3
			c-0.1,0-0.3,0-0.5,0c-0.9,0-1.6,0.7-1.8,1.7c0,0.2-0.1,0.4-0.1,0.6v3.9h-1.3V225.5z"/>
		<path id="XMLID_412_" class="st4" d="M694.3,225.2c0-0.8,0-1.4-0.1-2h1.2l0.1,1.2h0c0.4-0.7,1.2-1.4,2.4-1.4c1,0,2.6,0.6,2.6,3.1
			v4.4h-1.3v-4.2c0-1.2-0.4-2.2-1.7-2.2c-0.9,0-1.6,0.6-1.8,1.4c-0.1,0.2-0.1,0.4-0.1,0.6v4.4h-1.3V225.2z"/>
		<path id="XMLID_414_" class="st4" d="M706.9,230.5l-0.1-0.9h0c-0.4,0.6-1.2,1.1-2.3,1.1c-1.5,0-2.3-1.1-2.3-2.1
			c0-1.8,1.6-2.8,4.4-2.7v-0.2c0-0.6-0.2-1.7-1.7-1.7c-0.7,0-1.4,0.2-1.9,0.5l-0.3-0.9c0.6-0.4,1.5-0.7,2.4-0.7c2.3,0,2.8,1.5,2.8,3
			v2.8c0,0.6,0,1.3,0.1,1.8H706.9z M706.7,226.8c-1.5,0-3.1,0.2-3.1,1.7c0,0.9,0.6,1.3,1.3,1.3c1,0,1.6-0.6,1.8-1.2
			c0-0.1,0.1-0.3,0.1-0.4V226.8z"/>
	</g>
	<g id="XMLID_322_">
		<path id="XMLID_323_" class="st4" d="M629.7,169.4c-0.3,0.2-1,0.4-1.8,0.4c-1.9,0-3.1-1.3-3.1-3.2c0-1.9,1.3-3.4,3.4-3.4
			c0.7,0,1.3,0.2,1.6,0.3l-0.3,0.9c-0.3-0.2-0.7-0.3-1.3-0.3c-1.4,0-2.2,1.1-2.2,2.4c0,1.5,0.9,2.4,2.2,2.4c0.7,0,1.1-0.2,1.4-0.3
			L629.7,169.4z"/>
		<path id="XMLID_325_" class="st4" d="M636.7,166.4c0,2.3-1.6,3.4-3.1,3.4c-1.7,0-3-1.3-3-3.2c0-2.1,1.4-3.4,3.1-3.4
			C635.5,163.2,636.7,164.5,636.7,166.4z M631.7,166.5c0,1.4,0.8,2.4,1.9,2.4c1.1,0,1.9-1,1.9-2.5c0-1.1-0.5-2.4-1.9-2.4
			C632.3,164.1,631.7,165.3,631.7,166.5z"/>
		<path id="XMLID_328_" class="st4" d="M638.1,165c0-0.7,0-1.2-0.1-1.7h1l0.1,1h0c0.4-0.6,0.9-1.2,2-1.2c0.9,0,1.5,0.5,1.8,1.3h0
			c0.2-0.4,0.4-0.6,0.7-0.8c0.4-0.3,0.8-0.4,1.4-0.4c0.8,0,2.1,0.5,2.1,2.7v3.7H646v-3.6c0-1.2-0.4-1.9-1.4-1.9
			c-0.7,0-1.2,0.5-1.4,1c-0.1,0.2-0.1,0.4-0.1,0.6v3.9h-1.1v-3.8c0-1-0.4-1.7-1.3-1.7c-0.7,0-1.2,0.6-1.4,1.1
			c-0.1,0.2-0.1,0.4-0.1,0.6v3.8h-1.1V165z"/>
		<path id="XMLID_330_" class="st4" d="M649,165.4c0-0.8,0-1.5-0.1-2.1h1l0.1,1.1h0c0.5-0.8,1.2-1.2,2.2-1.2c1.5,0,2.7,1.3,2.7,3.2
			c0,2.3-1.4,3.4-2.9,3.4c-0.8,0-1.6-0.4-1.9-1h0v3.4H649V165.4z M650.2,167.1c0,0.2,0,0.3,0.1,0.5c0.2,0.8,0.9,1.3,1.7,1.3
			c1.2,0,1.9-1,1.9-2.4c0-1.3-0.7-2.3-1.9-2.3c-0.8,0-1.5,0.6-1.7,1.4c0,0.1-0.1,0.3-0.1,0.5V167.1z"/>
		<path id="XMLID_333_" class="st4" d="M661.7,167.9c0,0.7,0,1.2,0.1,1.7h-1l-0.1-1h0c-0.3,0.5-1,1.2-2.1,1.2c-1,0-2.2-0.5-2.2-2.8
			v-3.7h1.1v3.5c0,1.2,0.4,2,1.4,2c0.8,0,1.3-0.5,1.5-1c0.1-0.2,0.1-0.4,0.1-0.6v-3.9h1.1V167.9z"/>
		<path id="XMLID_335_" class="st4" d="M664.3,166.7c0,1.6,1,2.2,2.2,2.2c0.8,0,1.3-0.1,1.7-0.3l0.2,0.8c-0.4,0.2-1.1,0.4-2.1,0.4
			c-1.9,0-3.1-1.3-3.1-3.2c0-1.9,1.1-3.4,3-3.4c2.1,0,2.6,1.8,2.6,3c0,0.2,0,0.4,0,0.5H664.3z M667.6,165.9c0-0.7-0.3-1.9-1.6-1.9
			c-1.2,0-1.7,1.1-1.8,1.9H667.6z"/>
		<path id="XMLID_338_" class="st4" d="M670,168.5c0.3,0.2,0.9,0.5,1.5,0.5c0.8,0,1.2-0.4,1.2-0.9c0-0.5-0.3-0.8-1.2-1.2
			c-1.1-0.4-1.7-1-1.7-1.8c0-1,0.8-1.9,2.2-1.9c0.6,0,1.2,0.2,1.6,0.4l-0.3,0.8c-0.2-0.2-0.7-0.4-1.3-0.4c-0.7,0-1.1,0.4-1.1,0.9
			c0,0.5,0.4,0.8,1.2,1.1c1.1,0.4,1.7,1,1.7,1.9c0,1.1-0.9,1.9-2.4,1.9c-0.7,0-1.3-0.2-1.8-0.4L670,168.5z"/>
		<path id="XMLID_340_" class="st4" d="M676.7,161.5v1.8h1.6v0.9h-1.6v3.4c0,0.8,0.2,1.2,0.9,1.2c0.3,0,0.5,0,0.7-0.1l0.1,0.9
			c-0.2,0.1-0.6,0.2-1,0.2c-0.5,0-1-0.2-1.2-0.5c-0.3-0.3-0.4-0.9-0.4-1.6v-3.4h-1v-0.9h1v-1.5L676.7,161.5z"/>
		<path id="XMLID_342_" class="st4" d="M683.2,169.6l-0.1-0.8h0c-0.4,0.5-1,0.9-1.9,0.9c-1.3,0-1.9-0.9-1.9-1.8
			c0-1.5,1.4-2.4,3.8-2.3v-0.1c0-0.5-0.1-1.5-1.4-1.5c-0.6,0-1.2,0.2-1.6,0.5l-0.3-0.8c0.5-0.3,1.3-0.6,2.1-0.6
			c1.9,0,2.4,1.3,2.4,2.6v2.4c0,0.5,0,1.1,0.1,1.5H683.2z M683,166.4c-1.3,0-2.7,0.2-2.7,1.4c0,0.7,0.5,1.1,1.1,1.1
			c0.8,0,1.3-0.5,1.5-1.1c0-0.1,0.1-0.2,0.1-0.4V166.4z"/>
		<path id="XMLID_345_" class="st4" d="M688.7,165.4c0-0.8,0-1.5-0.1-2.1h1l0.1,1.1h0c0.5-0.8,1.2-1.2,2.2-1.2
			c1.5,0,2.7,1.3,2.7,3.2c0,2.3-1.4,3.4-2.9,3.4c-0.8,0-1.6-0.4-1.9-1h0v3.4h-1.1V165.4z M689.8,167.1c0,0.2,0,0.3,0.1,0.5
			c0.2,0.8,0.9,1.3,1.7,1.3c1.2,0,1.9-1,1.9-2.4c0-1.3-0.7-2.3-1.9-2.3c-0.8,0-1.5,0.6-1.7,1.4c0,0.1-0.1,0.3-0.1,0.5V167.1z"/>
		<path id="XMLID_348_" class="st4" d="M701.9,166.4c0,2.3-1.6,3.4-3.1,3.4c-1.7,0-3-1.3-3-3.2c0-2.1,1.4-3.4,3.1-3.4
			C700.6,163.2,701.9,164.5,701.9,166.4z M696.8,166.5c0,1.4,0.8,2.4,1.9,2.4c1.1,0,1.9-1,1.9-2.5c0-1.1-0.5-2.4-1.9-2.4
			C697.4,164.1,696.8,165.3,696.8,166.5z"/>
		<path id="XMLID_351_" class="st4" d="M703.3,165.3c0-0.7,0-1.4-0.1-2h1l0,1.2h0.1c0.3-0.8,1-1.4,1.7-1.4c0.1,0,0.2,0,0.3,0v1.1
			c-0.1,0-0.2,0-0.4,0c-0.8,0-1.4,0.6-1.5,1.5c0,0.2-0.1,0.3-0.1,0.5v3.4h-1.1V165.3z"/>
	</g>
	<g id="XMLID_295_">
		<path id="XMLID_296_" class="st4" d="M585.2,289.6c0,1.6,1,2.2,2.2,2.2c0.8,0,1.3-0.1,1.7-0.3l0.2,0.8c-0.4,0.2-1.1,0.4-2.1,0.4
			c-1.9,0-3.1-1.3-3.1-3.2c0-1.9,1.1-3.4,3-3.4c2.1,0,2.6,1.8,2.6,3c0,0.2,0,0.4,0,0.5H585.2z M588.6,288.8c0-0.7-0.3-1.9-1.6-1.9
			c-1.2,0-1.7,1.1-1.8,1.9H588.6z"/>
		<path id="XMLID_299_" class="st4" d="M591.1,287.9c0-0.7,0-1.2-0.1-1.7h1l0.1,1h0c0.3-0.6,1-1.2,2.1-1.2c0.9,0,2.2,0.5,2.2,2.7
			v3.8h-1.1v-3.6c0-1-0.4-1.9-1.5-1.9c-0.8,0-1.3,0.5-1.5,1.2c-0.1,0.1-0.1,0.3-0.1,0.5v3.8h-1.1V287.9z"/>
		<path id="XMLID_301_" class="st4" d="M598.5,292.5v-5.4h-0.9v-0.9h0.9v-0.3c0-0.9,0.2-1.7,0.7-2.2c0.4-0.4,1-0.6,1.5-0.6
			c0.4,0,0.8,0.1,1,0.2l-0.2,0.9c-0.2-0.1-0.4-0.1-0.7-0.1c-1,0-1.2,0.9-1.2,1.8v0.3h1.5v0.9h-1.5v5.4H598.5z"/>
		<path id="XMLID_303_" class="st4" d="M607.7,289.3c0,2.3-1.6,3.4-3.1,3.4c-1.7,0-3-1.3-3-3.2c0-2.1,1.4-3.4,3.1-3.4
			C606.5,286.1,607.7,287.4,607.7,289.3z M602.7,289.4c0,1.4,0.8,2.4,1.9,2.4c1.1,0,1.9-1,1.9-2.5c0-1.1-0.5-2.4-1.9-2.4
			C603.3,286.9,602.7,288.2,602.7,289.4z"/>
		<path id="XMLID_306_" class="st4" d="M613.7,292.3c-0.3,0.2-1,0.4-1.8,0.4c-1.9,0-3.1-1.3-3.1-3.2c0-1.9,1.3-3.4,3.4-3.4
			c0.7,0,1.3,0.2,1.6,0.3l-0.3,0.9c-0.3-0.2-0.7-0.3-1.3-0.3c-1.4,0-2.2,1.1-2.2,2.4c0,1.5,0.9,2.4,2.2,2.4c0.7,0,1.1-0.2,1.4-0.3
			L613.7,292.3z"/>
		<path id="XMLID_308_" class="st4" d="M618.5,292.5l-0.1-0.8h0c-0.4,0.5-1,0.9-1.9,0.9c-1.3,0-1.9-0.9-1.9-1.8
			c0-1.5,1.4-2.4,3.8-2.3v-0.1c0-0.5-0.1-1.5-1.4-1.5c-0.6,0-1.2,0.2-1.6,0.5l-0.3-0.8c0.5-0.3,1.3-0.6,2.1-0.6
			c1.9,0,2.4,1.3,2.4,2.6v2.4c0,0.5,0,1.1,0.1,1.5H618.5z M618.3,289.3c-1.3,0-2.7,0.2-2.7,1.4c0,0.7,0.5,1.1,1.1,1.1
			c0.8,0,1.3-0.5,1.5-1.1c0-0.1,0.1-0.2,0.1-0.4V289.3z"/>
		<path id="XMLID_311_" class="st4" d="M626.7,283.3v7.6c0,0.6,0,1.2,0.1,1.6h-1l-0.1-1.1h0c-0.4,0.7-1.1,1.2-2.2,1.2
			c-1.5,0-2.7-1.3-2.7-3.2c0-2.1,1.3-3.4,2.8-3.4c1,0,1.6,0.5,1.9,1h0v-3.8H626.7z M625.6,288.8c0-0.1,0-0.3-0.1-0.5
			c-0.2-0.7-0.8-1.3-1.7-1.3c-1.2,0-1.9,1-1.9,2.4c0,1.3,0.6,2.3,1.9,2.3c0.8,0,1.5-0.5,1.7-1.4c0-0.2,0.1-0.3,0.1-0.5V288.8z"/>
		<path id="XMLID_314_" class="st4" d="M632.2,292.5l-0.1-0.8h0c-0.4,0.5-1,0.9-1.9,0.9c-1.3,0-1.9-0.9-1.9-1.8
			c0-1.5,1.4-2.4,3.8-2.3v-0.1c0-0.5-0.1-1.5-1.4-1.5c-0.6,0-1.2,0.2-1.6,0.5l-0.3-0.8c0.5-0.3,1.3-0.6,2.1-0.6
			c1.9,0,2.4,1.3,2.4,2.6v2.4c0,0.5,0,1.1,0.1,1.5H632.2z M632,289.3c-1.3,0-2.7,0.2-2.7,1.4c0,0.7,0.5,1.1,1.1,1.1
			c0.8,0,1.3-0.5,1.5-1.1c0-0.1,0.1-0.2,0.1-0.4V289.3z"/>
		<path id="XMLID_317_" class="st4" d="M638.4,289.6c0,1.6,1,2.2,2.2,2.2c0.8,0,1.3-0.1,1.7-0.3l0.2,0.8c-0.4,0.2-1.1,0.4-2.1,0.4
			c-1.9,0-3.1-1.3-3.1-3.2c0-1.9,1.1-3.4,3-3.4c2.1,0,2.6,1.8,2.6,3c0,0.2,0,0.4,0,0.5H638.4z M641.7,288.8c0-0.7-0.3-1.9-1.6-1.9
			c-1.2,0-1.7,1.1-1.8,1.9H641.7z"/>
		<path id="XMLID_320_" class="st4" d="M644.2,287.9c0-0.7,0-1.2-0.1-1.7h1l0.1,1h0c0.3-0.6,1-1.2,2.1-1.2c0.9,0,2.2,0.5,2.2,2.7
			v3.8h-1.1v-3.6c0-1-0.4-1.9-1.5-1.9c-0.8,0-1.3,0.5-1.5,1.2c-0.1,0.1-0.1,0.3-0.1,0.5v3.8h-1.1V287.9z"/>
	</g>
	<path id="XMLID_134360_" class="st5" d="M1060.3,247.1H841.4c-4.4,0-8-3.6-8-8v-28.6c0-4.4,3.6-8,8-8h218.9c4.4,0,8,3.6,8,8v28.6
		C1068.3,243.5,1064.7,247.1,1060.3,247.1z"/>
	<g id="XMLID_231_">
		<path id="XMLID_232_" class="st4" d="M870.8,226c-0.1-1.4-0.2-3.2-0.2-4.4h0c-0.3,1.2-0.8,2.5-1.3,3.9l-1.8,5h-1l-1.7-4.9
			c-0.5-1.4-0.9-2.8-1.2-4h0c0,1.3-0.1,3-0.2,4.5l-0.3,4.4h-1.3l0.7-10.3h1.7l1.8,5c0.4,1.3,0.8,2.4,1,3.5h0c0.3-1,0.6-2.2,1.1-3.5
			l1.8-5h1.7l0.6,10.3H871L870.8,226z"/>
		<path id="XMLID_234_" class="st4" d="M878.5,230.5l-0.1-0.9h0c-0.4,0.6-1.2,1.1-2.3,1.1c-1.5,0-2.3-1.1-2.3-2.1
			c0-1.8,1.6-2.8,4.4-2.7v-0.2c0-0.6-0.2-1.7-1.7-1.7c-0.7,0-1.4,0.2-1.9,0.5l-0.3-0.9c0.6-0.4,1.5-0.7,2.4-0.7c2.3,0,2.8,1.5,2.8,3
			v2.8c0,0.6,0,1.3,0.1,1.8H878.5z M878.3,226.8c-1.5,0-3.1,0.2-3.1,1.7c0,0.9,0.6,1.3,1.3,1.3c1,0,1.6-0.6,1.8-1.2
			c0-0.1,0.1-0.3,0.1-0.4V226.8z"/>
		<path id="XMLID_237_" class="st4" d="M883.3,221.1v2.1h1.9v1h-1.9v4c0,0.9,0.3,1.4,1,1.4c0.4,0,0.6,0,0.8-0.1l0.1,1
			c-0.3,0.1-0.7,0.2-1.2,0.2c-0.6,0-1.1-0.2-1.4-0.6c-0.4-0.4-0.5-1.1-0.5-1.9v-4h-1.1v-1h1.1v-1.8L883.3,221.1z"/>
		<path id="XMLID_239_" class="st4" d="M886.7,225.5c0-0.9,0-1.6-0.1-2.3h1.2l0,1.4h0.1c0.3-1,1.1-1.6,2-1.6c0.2,0,0.3,0,0.4,0v1.3
			c-0.1,0-0.3,0-0.5,0c-0.9,0-1.6,0.7-1.8,1.7c0,0.2-0.1,0.4-0.1,0.6v3.9h-1.3V225.5z"/>
		<path id="XMLID_241_" class="st4" d="M893.2,221.1c0,0.5-0.3,0.8-0.9,0.8c-0.5,0-0.8-0.4-0.8-0.8c0-0.5,0.3-0.8,0.8-0.8
			C892.9,220.3,893.2,220.6,893.2,221.1z M891.8,230.5v-7.4h1.3v7.4H891.8z"/>
		<path id="XMLID_244_" class="st4" d="M894.5,229.8l3.3-4.3c0.3-0.4,0.6-0.7,1-1.1v0h-4v-1.1h5.6l0,0.8l-3.3,4.3
			c-0.3,0.4-0.6,0.8-0.9,1.2v0h4.3v1.1h-6V229.8z"/>
		<path id="XMLID_246_" class="st4" d="M911.4,219.7v8.9c0,0.7,0,1.4,0.1,1.9h-1.2l-0.1-1.3h0c-0.4,0.8-1.3,1.4-2.5,1.4
			c-1.8,0-3.2-1.5-3.2-3.7c0-2.5,1.5-4,3.3-4c1.1,0,1.9,0.5,2.2,1.1h0v-4.4H911.4z M910.1,226.2c0-0.2,0-0.4-0.1-0.6
			c-0.2-0.9-0.9-1.6-1.9-1.6c-1.4,0-2.2,1.2-2.2,2.8c0,1.5,0.7,2.7,2.2,2.7c0.9,0,1.7-0.6,2-1.6c0-0.2,0.1-0.4,0.1-0.6V226.2z"/>
		<path id="XMLID_249_" class="st4" d="M914.4,227.1c0,1.8,1.2,2.6,2.5,2.6c1,0,1.5-0.2,2-0.4l0.2,1c-0.5,0.2-1.3,0.5-2.5,0.5
			c-2.3,0-3.6-1.5-3.6-3.7c0-2.2,1.3-4,3.5-4c2.4,0,3,2.1,3,3.5c0,0.3,0,0.5,0,0.6H914.4z M918.3,226.1c0-0.9-0.4-2.2-1.9-2.2
			c-1.4,0-1.9,1.2-2.1,2.2H918.3z"/>
		<path id="XMLID_252_" class="st4" d="M925.2,227.1c0,1.8,1.2,2.6,2.5,2.6c1,0,1.5-0.2,2-0.4l0.2,1c-0.5,0.2-1.3,0.5-2.5,0.5
			c-2.3,0-3.6-1.5-3.6-3.7c0-2.2,1.3-4,3.5-4c2.4,0,3,2.1,3,3.5c0,0.3,0,0.5,0,0.6H925.2z M929.2,226.1c0-0.9-0.3-2.2-1.9-2.2
			c-1.4,0-1.9,1.2-2.1,2.2H929.2z"/>
		<path id="XMLID_255_" class="st4" d="M932.6,223.2l1.4,4.1c0.2,0.7,0.4,1.3,0.6,1.9h0c0.2-0.6,0.4-1.2,0.6-1.9l1.4-4.1h1.4
			l-2.9,7.4H934l-2.8-7.4H932.6z"/>
		<path id="XMLID_257_" class="st4" d="M943.5,230.5l-0.1-0.9h0c-0.4,0.6-1.2,1.1-2.3,1.1c-1.5,0-2.3-1.1-2.3-2.1
			c0-1.8,1.6-2.8,4.4-2.7v-0.2c0-0.6-0.2-1.7-1.7-1.7c-0.7,0-1.4,0.2-1.9,0.5l-0.3-0.9c0.6-0.4,1.5-0.7,2.4-0.7c2.3,0,2.8,1.5,2.8,3
			v2.8c0,0.6,0,1.3,0.1,1.8H943.5z M943.3,226.8c-1.5,0-3.1,0.2-3.1,1.7c0,0.9,0.6,1.3,1.3,1.3c1,0,1.6-0.6,1.8-1.2
			c0-0.1,0.1-0.3,0.1-0.4V226.8z"/>
		<path id="XMLID_260_" class="st4" d="M946.7,219.7h1.3v10.8h-1.3V219.7z"/>
		<path id="XMLID_262_" class="st4" d="M956.5,228.5c0,0.8,0,1.4,0.1,2h-1.2l-0.1-1.2h0c-0.3,0.6-1.1,1.4-2.4,1.4
			c-1.2,0-2.5-0.6-2.5-3.2v-4.3h1.3v4.1c0,1.4,0.4,2.3,1.6,2.3c0.9,0,1.5-0.6,1.8-1.2c0.1-0.2,0.1-0.4,0.1-0.7v-4.5h1.3V228.5z"/>
		<path id="XMLID_264_" class="st4" d="M962.8,230.5l-0.1-0.9h0c-0.4,0.6-1.2,1.1-2.3,1.1c-1.5,0-2.3-1.1-2.3-2.1
			c0-1.8,1.6-2.8,4.4-2.7v-0.2c0-0.6-0.2-1.7-1.7-1.7c-0.7,0-1.4,0.2-1.9,0.5l-0.3-0.9c0.6-0.4,1.5-0.7,2.4-0.7c2.3,0,2.8,1.5,2.8,3
			v2.8c0,0.6,0,1.3,0.1,1.8H962.8z M962.6,226.8c-1.5,0-3.1,0.2-3.1,1.7c0,0.9,0.6,1.3,1.3,1.3c1,0,1.6-0.6,1.8-1.2
			c0-0.1,0.1-0.3,0.1-0.4V226.8z"/>
		<path id="XMLID_267_" class="st4" d="M971.3,230.3c-0.3,0.2-1.1,0.4-2.1,0.4c-2.2,0-3.7-1.5-3.7-3.8c0-2.3,1.6-3.9,4-3.9
			c0.8,0,1.5,0.2,1.9,0.4l-0.3,1c-0.3-0.2-0.8-0.4-1.6-0.4c-1.7,0-2.6,1.2-2.6,2.8c0,1.7,1.1,2.8,2.6,2.8c0.8,0,1.3-0.2,1.6-0.4
			L971.3,230.3z"/>
		<path id="XMLID_269_" class="st4" d="M974.4,221.1c0,0.5-0.3,0.8-0.9,0.8c-0.5,0-0.8-0.4-0.8-0.8c0-0.5,0.3-0.8,0.8-0.8
			C974,220.3,974.4,220.6,974.4,221.1z M972.9,230.5v-7.4h1.3v7.4H972.9z"/>
		<path id="XMLID_272_" class="st4" d="M983.1,226.8c0,2.7-1.9,3.9-3.7,3.9c-2,0-3.5-1.5-3.5-3.8c0-2.5,1.6-3.9,3.7-3.9
			C981.7,223,983.1,224.5,983.1,226.8z M977.3,226.9c0,1.6,0.9,2.8,2.2,2.8c1.3,0,2.2-1.2,2.2-2.9c0-1.2-0.6-2.8-2.2-2.8
			S977.3,225.5,977.3,226.9z M981.5,220l-1.9,2.2h-1l1.3-2.2H981.5z"/>
		<path id="XMLID_276_" class="st4" d="M984.8,225.2c0-0.8,0-1.4-0.1-2h1.2l0.1,1.2h0c0.4-0.7,1.2-1.4,2.4-1.4c1,0,2.6,0.6,2.6,3.1
			v4.4h-1.3v-4.2c0-1.2-0.4-2.2-1.7-2.2c-0.9,0-1.6,0.6-1.8,1.4c-0.1,0.2-0.1,0.4-0.1,0.6v4.4h-1.3V225.2z"/>
		<path id="XMLID_278_" class="st4" d="M998,221.1c0,0.5-0.3,0.8-0.9,0.8c-0.5,0-0.8-0.4-0.8-0.8c0-0.5,0.3-0.8,0.8-0.8
			C997.6,220.3,998,220.6,998,221.1z M996.5,230.5v-7.4h1.3v7.4H996.5z"/>
		<path id="XMLID_281_" class="st4" d="M1000,225.2c0-0.8,0-1.4-0.1-2h1.2l0.1,1.2h0c0.4-0.7,1.2-1.4,2.4-1.4c1,0,2.6,0.6,2.6,3.1
			v4.4h-1.3v-4.2c0-1.2-0.4-2.2-1.7-2.2c-0.9,0-1.6,0.6-1.8,1.4c-0.1,0.2-0.1,0.4-0.1,0.6v4.4h-1.3V225.2z"/>
		<path id="XMLID_283_" class="st4" d="M1010,221.1v2.1h1.9v1h-1.9v4c0,0.9,0.3,1.4,1,1.4c0.3,0,0.6,0,0.8-0.1l0.1,1
			c-0.3,0.1-0.7,0.2-1.2,0.2c-0.6,0-1.1-0.2-1.4-0.6c-0.4-0.4-0.5-1.1-0.5-1.9v-4h-1.1v-1h1.1v-1.8L1010,221.1z"/>
		<path id="XMLID_285_" class="st4" d="M1014.1,227.1c0,1.8,1.2,2.6,2.5,2.6c1,0,1.5-0.2,2-0.4l0.2,1c-0.5,0.2-1.3,0.5-2.5,0.5
			c-2.3,0-3.6-1.5-3.6-3.7c0-2.2,1.3-4,3.5-4c2.4,0,3,2.1,3,3.5c0,0.3,0,0.5,0,0.6H1014.1z M1018,226.1c0-0.9-0.3-2.2-1.9-2.2
			c-1.4,0-1.9,1.2-2.1,2.2H1018z"/>
		<path id="XMLID_288_" class="st4" d="M1021,225.5c0-0.9,0-1.6-0.1-2.3h1.2l0,1.4h0.1c0.3-1,1.1-1.6,2-1.6c0.2,0,0.3,0,0.4,0v1.3
			c-0.1,0-0.3,0-0.5,0c-0.9,0-1.6,0.7-1.8,1.7c0,0.2-0.1,0.4-0.1,0.6v3.9h-1.3V225.5z"/>
		<path id="XMLID_290_" class="st4" d="M1026,225.2c0-0.8,0-1.4-0.1-2h1.2l0.1,1.2h0c0.4-0.7,1.2-1.4,2.4-1.4c1,0,2.6,0.6,2.6,3.1
			v4.4h-1.3v-4.2c0-1.2-0.4-2.2-1.7-2.2c-0.9,0-1.6,0.6-1.8,1.4c-0.1,0.2-0.1,0.4-0.1,0.6v4.4h-1.3V225.2z"/>
		<path id="XMLID_292_" class="st4" d="M1038.6,230.5l-0.1-0.9h0c-0.4,0.6-1.2,1.1-2.3,1.1c-1.5,0-2.3-1.1-2.3-2.1
			c0-1.8,1.6-2.8,4.4-2.7v-0.2c0-0.6-0.2-1.7-1.7-1.7c-0.7,0-1.4,0.2-1.9,0.5l-0.3-0.9c0.6-0.4,1.5-0.7,2.4-0.7c2.3,0,2.8,1.5,2.8,3
			v2.8c0,0.6,0,1.3,0.1,1.8H1038.6z M1038.4,226.8c-1.5,0-3.1,0.2-3.1,1.7c0,0.9,0.6,1.3,1.3,1.3c1,0,1.6-0.6,1.8-1.2
			c0-0.1,0.1-0.3,0.1-0.4V226.8z"/>
	</g>
	<g id="XMLID_200_">
		<path id="XMLID_201_" class="st4" d="M865.1,169.4c-0.3,0.2-1,0.4-1.8,0.4c-1.9,0-3.1-1.3-3.1-3.2c0-1.9,1.3-3.4,3.4-3.4
			c0.7,0,1.3,0.2,1.6,0.3l-0.3,0.9c-0.3-0.2-0.7-0.3-1.3-0.3c-1.4,0-2.2,1.1-2.2,2.4c0,1.5,0.9,2.4,2.2,2.4c0.7,0,1.1-0.2,1.4-0.3
			L865.1,169.4z"/>
		<path id="XMLID_203_" class="st4" d="M872.1,166.4c0,2.3-1.6,3.4-3.1,3.4c-1.7,0-3-1.3-3-3.2c0-2.1,1.4-3.4,3.1-3.4
			C870.9,163.2,872.1,164.5,872.1,166.4z M867.1,166.5c0,1.4,0.8,2.4,1.9,2.4c1.1,0,1.9-1,1.9-2.5c0-1.1-0.5-2.4-1.9-2.4
			C867.7,164.1,867.1,165.3,867.1,166.5z"/>
		<path id="XMLID_206_" class="st4" d="M873.6,165c0-0.7,0-1.2-0.1-1.7h1l0.1,1h0c0.4-0.6,0.9-1.2,2-1.2c0.9,0,1.5,0.5,1.8,1.3h0
			c0.2-0.4,0.4-0.6,0.7-0.8c0.4-0.3,0.8-0.4,1.4-0.4c0.8,0,2.1,0.5,2.1,2.7v3.7h-1.1v-3.6c0-1.2-0.4-1.9-1.4-1.9
			c-0.7,0-1.2,0.5-1.4,1c-0.1,0.2-0.1,0.4-0.1,0.6v3.9h-1.1v-3.8c0-1-0.4-1.7-1.3-1.7c-0.7,0-1.2,0.6-1.4,1.1
			c-0.1,0.2-0.1,0.4-0.1,0.6v3.8h-1.1V165z"/>
		<path id="XMLID_208_" class="st4" d="M884.5,165.4c0-0.8,0-1.5-0.1-2.1h1l0.1,1.1h0c0.5-0.8,1.2-1.2,2.2-1.2
			c1.5,0,2.7,1.3,2.7,3.2c0,2.3-1.4,3.4-2.9,3.4c-0.8,0-1.6-0.4-1.9-1h0v3.4h-1.1V165.4z M885.6,167.1c0,0.2,0,0.3,0.1,0.5
			c0.2,0.8,0.9,1.3,1.7,1.3c1.2,0,1.9-1,1.9-2.4c0-1.3-0.7-2.3-1.9-2.3c-0.8,0-1.5,0.6-1.7,1.4c0,0.1-0.1,0.3-0.1,0.5V167.1z"/>
		<path id="XMLID_211_" class="st4" d="M897.2,167.9c0,0.7,0,1.2,0.1,1.7h-1l-0.1-1h0c-0.3,0.5-1,1.2-2.1,1.2c-1,0-2.2-0.5-2.2-2.8
			v-3.7h1.1v3.5c0,1.2,0.4,2,1.4,2c0.8,0,1.3-0.5,1.5-1c0.1-0.2,0.1-0.4,0.1-0.6v-3.9h1.1V167.9z"/>
		<path id="XMLID_213_" class="st4" d="M899.7,166.7c0,1.6,1,2.2,2.2,2.2c0.8,0,1.3-0.1,1.7-0.3l0.2,0.8c-0.4,0.2-1.1,0.4-2.1,0.4
			c-1.9,0-3.1-1.3-3.1-3.2c0-1.9,1.1-3.4,3-3.4c2.1,0,2.6,1.8,2.6,3c0,0.2,0,0.4,0,0.5H899.7z M903.1,165.9c0-0.7-0.3-1.9-1.6-1.9
			c-1.2,0-1.7,1.1-1.8,1.9H903.1z"/>
		<path id="XMLID_216_" class="st4" d="M905.5,168.5c0.3,0.2,0.9,0.5,1.5,0.5c0.8,0,1.2-0.4,1.2-0.9c0-0.5-0.3-0.8-1.2-1.2
			c-1.1-0.4-1.7-1-1.7-1.8c0-1,0.8-1.9,2.2-1.9c0.6,0,1.2,0.2,1.6,0.4l-0.3,0.8c-0.2-0.2-0.7-0.4-1.3-0.4c-0.7,0-1.1,0.4-1.1,0.9
			c0,0.5,0.4,0.8,1.2,1.1c1.1,0.4,1.7,1,1.7,1.9c0,1.1-0.9,1.9-2.4,1.9c-0.7,0-1.3-0.2-1.8-0.4L905.5,168.5z"/>
		<path id="XMLID_218_" class="st4" d="M912.2,161.5v1.8h1.6v0.9h-1.6v3.4c0,0.8,0.2,1.2,0.9,1.2c0.3,0,0.5,0,0.7-0.1l0.1,0.9
			c-0.2,0.1-0.6,0.2-1,0.2c-0.5,0-1-0.2-1.2-0.5c-0.3-0.3-0.4-0.9-0.4-1.6v-3.4h-1v-0.9h1v-1.5L912.2,161.5z"/>
		<path id="XMLID_220_" class="st4" d="M918.6,169.6l-0.1-0.8h0c-0.4,0.5-1,0.9-1.9,0.9c-1.3,0-1.9-0.9-1.9-1.8
			c0-1.5,1.4-2.4,3.8-2.3v-0.1c0-0.5-0.1-1.5-1.4-1.5c-0.6,0-1.2,0.2-1.6,0.5l-0.3-0.8c0.5-0.3,1.3-0.6,2.1-0.6
			c1.9,0,2.4,1.3,2.4,2.6v2.4c0,0.5,0,1.1,0.1,1.5H918.6z M918.4,166.4c-1.3,0-2.7,0.2-2.7,1.4c0,0.7,0.5,1.1,1.1,1.1
			c0.8,0,1.3-0.5,1.5-1.1c0-0.1,0.1-0.2,0.1-0.4V166.4z"/>
		<path id="XMLID_223_" class="st4" d="M924.2,165.4c0-0.8,0-1.5-0.1-2.1h1l0.1,1.1h0c0.5-0.8,1.2-1.2,2.2-1.2
			c1.5,0,2.7,1.3,2.7,3.2c0,2.3-1.4,3.4-2.9,3.4c-0.8,0-1.6-0.4-1.9-1h0v3.4h-1.1V165.4z M925.3,167.1c0,0.2,0,0.3,0.1,0.5
			c0.2,0.8,0.9,1.3,1.7,1.3c1.2,0,1.9-1,1.9-2.4c0-1.3-0.7-2.3-1.9-2.3c-0.8,0-1.5,0.6-1.7,1.4c0,0.1-0.1,0.3-0.1,0.5V167.1z"/>
		<path id="XMLID_226_" class="st4" d="M937.3,166.4c0,2.3-1.6,3.4-3.1,3.4c-1.7,0-3-1.3-3-3.2c0-2.1,1.4-3.4,3.1-3.4
			C936.1,163.2,937.3,164.5,937.3,166.4z M932.3,166.5c0,1.4,0.8,2.4,1.9,2.4c1.1,0,1.9-1,1.9-2.5c0-1.1-0.5-2.4-1.9-2.4
			S932.3,165.3,932.3,166.5z"/>
		<path id="XMLID_229_" class="st4" d="M938.7,165.3c0-0.7,0-1.4-0.1-2h1l0,1.2h0.1c0.3-0.8,1-1.4,1.7-1.4c0.1,0,0.2,0,0.3,0v1.1
			c-0.1,0-0.2,0-0.4,0c-0.8,0-1.4,0.6-1.5,1.5c0,0.2-0.1,0.3-0.1,0.5v3.4h-1.1V165.3z"/>
	</g>
	<ellipse id="XMLID_134356_" class="st4" cx="536" cy="355" rx="58.7" ry="23.2"/>
	<g id="XMLID_165_">
		<path id="XMLID_166_" class="st6" d="M497.7,355.5c0,3.5-2.1,5.4-4.8,5.4c-2.7,0-4.6-2.1-4.6-5.2c0-3.3,2-5.4,4.8-5.4
			C495.9,350.3,497.7,352.4,497.7,355.5z M489.7,355.7c0,2.2,1.2,4.2,3.3,4.2c2.1,0,3.3-1.9,3.3-4.3c0-2-1.1-4.2-3.3-4.2
			C490.8,351.4,489.7,353.4,489.7,355.7z"/>
		<path id="XMLID_169_" class="st6" d="M499.4,355.8c0-0.9,0-1.7-0.1-2.4h1.2l0.1,1.3h0c0.5-0.9,1.4-1.4,2.6-1.4
			c1.8,0,3.1,1.5,3.1,3.7c0,2.6-1.6,4-3.3,4c-1,0-1.8-0.4-2.3-1.2h0v4h-1.3V355.8z M500.7,357.7c0,0.2,0,0.4,0.1,0.5
			c0.2,0.9,1.1,1.6,2,1.6c1.4,0,2.2-1.2,2.2-2.8c0-1.5-0.8-2.7-2.2-2.7c-0.9,0-1.8,0.7-2,1.7c0,0.2-0.1,0.4-0.1,0.5V357.7z"/>
		<path id="XMLID_172_" class="st6" d="M514.7,357c0,2.7-1.9,3.9-3.7,3.9c-2,0-3.5-1.5-3.5-3.8c0-2.5,1.6-3.9,3.7-3.9
			C513.3,353.2,514.7,354.7,514.7,357z M508.9,357.1c0,1.6,0.9,2.8,2.2,2.8c1.3,0,2.2-1.2,2.2-2.9c0-1.2-0.6-2.8-2.2-2.8
			C509.5,354.2,508.9,355.7,508.9,357.1z"/>
		<path id="XMLID_175_" class="st6" d="M516.4,355.7c0-0.9,0-1.6-0.1-2.3h1.2l0,1.4h0.1c0.3-1,1.1-1.6,2-1.6c0.2,0,0.3,0,0.4,0v1.3
			c-0.1,0-0.3,0-0.5,0c-0.9,0-1.6,0.7-1.8,1.7c0,0.2-0.1,0.4-0.1,0.6v3.9h-1.3V355.7z"/>
		<path id="XMLID_177_" class="st6" d="M523.4,351.2v2.1h1.9v1h-1.9v4c0,0.9,0.3,1.4,1,1.4c0.4,0,0.6,0,0.8-0.1l0.1,1
			c-0.3,0.1-0.7,0.2-1.2,0.2c-0.6,0-1.1-0.2-1.4-0.6c-0.4-0.4-0.5-1.1-0.5-1.9v-4h-1.1v-1h1.1v-1.8L523.4,351.2z"/>
		<path id="XMLID_179_" class="st6" d="M532.9,358.7c0,0.8,0,1.4,0.1,2h-1.2l-0.1-1.2h0c-0.4,0.6-1.1,1.4-2.4,1.4
			c-1.2,0-2.5-0.6-2.5-3.2v-4.3h1.3v4.1c0,1.4,0.4,2.3,1.6,2.3c0.9,0,1.5-0.6,1.8-1.2c0.1-0.2,0.1-0.4,0.1-0.7v-4.5h1.3V358.7z"/>
		<path id="XMLID_181_" class="st6" d="M535.2,355.4c0-0.8,0-1.4-0.1-2h1.2l0.1,1.2h0c0.4-0.7,1.2-1.4,2.4-1.4c1,0,2.6,0.6,2.6,3.1
			v4.4h-1.3v-4.2c0-1.2-0.4-2.2-1.7-2.2c-0.9,0-1.6,0.6-1.8,1.4c-0.1,0.2-0.1,0.4-0.1,0.6v4.4h-1.3V355.4z"/>
		<path id="XMLID_183_" class="st6" d="M545.1,351.3c0,0.5-0.3,0.8-0.9,0.8c-0.5,0-0.8-0.4-0.8-0.8c0-0.5,0.3-0.8,0.8-0.8
			C544.8,350.5,545.1,350.8,545.1,351.3z M543.6,360.7v-7.4h1.3v7.4H543.6z"/>
		<path id="XMLID_186_" class="st6" d="M553.5,349.9v8.9c0,0.7,0,1.4,0.1,1.9h-1.2l-0.1-1.3h0c-0.4,0.8-1.3,1.4-2.5,1.4
			c-1.8,0-3.2-1.5-3.2-3.7c0-2.5,1.5-4,3.3-4c1.1,0,1.9,0.5,2.2,1.1h0v-4.4H553.5z M552.2,356.4c0-0.2,0-0.4-0.1-0.6
			c-0.2-0.9-0.9-1.6-1.9-1.6c-1.4,0-2.2,1.2-2.2,2.8c0,1.5,0.7,2.7,2.2,2.7c0.9,0,1.7-0.6,2-1.6c0-0.2,0.1-0.4,0.1-0.6V356.4z"/>
		<path id="XMLID_189_" class="st6" d="M559.9,360.7l-0.1-0.9h0c-0.4,0.6-1.2,1.1-2.3,1.1c-1.5,0-2.3-1.1-2.3-2.1
			c0-1.8,1.6-2.8,4.4-2.7v-0.2c0-0.6-0.2-1.7-1.7-1.7c-0.7,0-1.4,0.2-1.9,0.5l-0.3-0.9c0.6-0.4,1.5-0.7,2.4-0.7c2.3,0,2.8,1.5,2.8,3
			v2.8c0,0.6,0,1.3,0.1,1.8H559.9z M559.7,357c-1.5,0-3.1,0.2-3.1,1.7c0,0.9,0.6,1.3,1.3,1.3c1,0,1.6-0.6,1.8-1.2
			c0-0.1,0.1-0.3,0.1-0.4V357z"/>
		<path id="XMLID_192_" class="st6" d="M569.5,349.9v8.9c0,0.7,0,1.4,0.1,1.9h-1.2l-0.1-1.3h0c-0.4,0.8-1.3,1.4-2.5,1.4
			c-1.8,0-3.2-1.5-3.2-3.7c0-2.5,1.5-4,3.3-4c1.1,0,1.9,0.5,2.2,1.1h0v-4.4H569.5z M568.1,356.4c0-0.2,0-0.4-0.1-0.6
			c-0.2-0.9-0.9-1.6-1.9-1.6c-1.4,0-2.2,1.2-2.2,2.8c0,1.5,0.7,2.7,2.2,2.7c0.9,0,1.7-0.6,2-1.6c0-0.2,0.1-0.4,0.1-0.6V356.4z"/>
		<path id="XMLID_195_" class="st6" d="M572.4,357.3c0,1.8,1.2,2.6,2.5,2.6c1,0,1.5-0.2,2-0.4l0.2,1c-0.5,0.2-1.3,0.5-2.5,0.5
			c-2.3,0-3.6-1.5-3.6-3.7s1.3-4,3.5-4c2.4,0,3,2.1,3,3.5c0,0.3,0,0.5,0,0.6H572.4z M576.4,356.3c0-0.9-0.4-2.2-1.9-2.2
			c-1.4,0-1.9,1.2-2.1,2.2H576.4z"/>
		<path id="XMLID_198_" class="st6" d="M579.1,359.4c0.4,0.3,1.1,0.5,1.8,0.5c1,0,1.4-0.5,1.4-1.1c0-0.6-0.4-1-1.4-1.4
			c-1.3-0.5-1.9-1.2-1.9-2.1c0-1.2,1-2.2,2.5-2.2c0.7,0,1.4,0.2,1.8,0.5l-0.3,1c-0.3-0.2-0.8-0.4-1.5-0.4c-0.8,0-1.2,0.5-1.2,1
			c0,0.6,0.4,0.9,1.4,1.2c1.3,0.5,1.9,1.1,1.9,2.2c0,1.3-1,2.2-2.8,2.2c-0.8,0-1.6-0.2-2.1-0.5L579.1,359.4z"/>
	</g>
	<ellipse id="XMLID_134353_" class="st4" cx="698.2" cy="355" rx="58.7" ry="23.2"/>
	<g id="XMLID_144_">
		<path id="XMLID_145_" class="st6" d="M668.3,357.5l-1.1,3.2h-1.4l3.5-10.3h1.6l3.5,10.3h-1.4l-1.1-3.2H668.3z M671.7,356.5l-1-3
			c-0.2-0.7-0.4-1.3-0.5-1.9h0c-0.2,0.6-0.3,1.2-0.5,1.9l-1,3H671.7z"/>
		<path id="XMLID_148_" class="st6" d="M675.9,355.4c0-0.8,0-1.4-0.1-2h1.2l0.1,1.2h0c0.4-0.7,1.1-1.4,2.3-1.4c1,0,1.8,0.6,2.1,1.5
			h0c0.2-0.4,0.5-0.7,0.8-1c0.4-0.3,0.9-0.5,1.6-0.5c1,0,2.4,0.6,2.4,3.2v4.3h-1.3v-4.2c0-1.4-0.5-2.3-1.6-2.3
			c-0.8,0-1.4,0.6-1.6,1.2c-0.1,0.2-0.1,0.4-0.1,0.7v4.6h-1.3v-4.4c0-1.2-0.5-2-1.5-2c-0.8,0-1.4,0.7-1.7,1.3
			c-0.1,0.2-0.1,0.4-0.1,0.7v4.4h-1.3V355.4z"/>
		<path id="XMLID_150_" class="st6" d="M689.3,357.3c0,1.8,1.2,2.6,2.5,2.6c1,0,1.5-0.2,2-0.4l0.2,1c-0.5,0.2-1.3,0.5-2.5,0.5
			c-2.3,0-3.6-1.5-3.6-3.7s1.3-4,3.5-4c2.4,0,3,2.1,3,3.5c0,0.3,0,0.5,0,0.6H689.3z M693.3,356.3c0-0.9-0.3-2.2-1.9-2.2
			c-1.4,0-1.9,1.2-2.1,2.2H693.3z"/>
		<path id="XMLID_153_" class="st6" d="M696.2,355.4c0-0.8,0-1.4-0.1-2h1.2l0.1,1.2h0c0.4-0.7,1.2-1.4,2.4-1.4c1,0,2.6,0.6,2.6,3.1
			v4.4h-1.3v-4.2c0-1.2-0.4-2.2-1.7-2.2c-0.9,0-1.6,0.6-1.8,1.4c-0.1,0.2-0.1,0.4-0.1,0.6v4.4h-1.3V355.4z"/>
		<path id="XMLID_155_" class="st6" d="M708.8,360.7l-0.1-0.9h0c-0.4,0.6-1.2,1.1-2.3,1.1c-1.5,0-2.3-1.1-2.3-2.1
			c0-1.8,1.6-2.8,4.4-2.7v-0.2c0-0.6-0.2-1.7-1.7-1.7c-0.7,0-1.4,0.2-1.9,0.5l-0.3-0.9c0.6-0.4,1.5-0.7,2.4-0.7c2.3,0,2.8,1.5,2.8,3
			v2.8c0,0.6,0,1.3,0.1,1.8H708.8z M708.6,357c-1.5,0-3.1,0.2-3.1,1.7c0,0.9,0.6,1.3,1.3,1.3c1,0,1.6-0.6,1.8-1.2
			c0-0.1,0.1-0.3,0.1-0.4V357z"/>
		<path id="XMLID_158_" class="st6" d="M711.2,360l3.3-4.3c0.3-0.4,0.6-0.7,1-1.1v0h-4v-1.1h5.6l0,0.8l-3.3,4.3
			c-0.3,0.4-0.6,0.8-0.9,1.2v0h4.3v1.1h-6V360z"/>
		<path id="XMLID_160_" class="st6" d="M722.6,360.7l-0.1-0.9h0c-0.4,0.6-1.2,1.1-2.3,1.1c-1.5,0-2.3-1.1-2.3-2.1
			c0-1.8,1.6-2.8,4.4-2.7v-0.2c0-0.6-0.2-1.7-1.7-1.7c-0.7,0-1.4,0.2-1.9,0.5l-0.3-0.9c0.6-0.4,1.5-0.7,2.4-0.7c2.3,0,2.8,1.5,2.8,3
			v2.8c0,0.6,0,1.3,0.1,1.8H722.6z M722.4,357c-1.5,0-3.1,0.2-3.1,1.7c0,0.9,0.6,1.3,1.3,1.3c1,0,1.6-0.6,1.8-1.2
			c0-0.1,0.1-0.3,0.1-0.4V357z"/>
		<path id="XMLID_163_" class="st6" d="M725.7,359.4c0.4,0.3,1.1,0.5,1.8,0.5c1,0,1.4-0.5,1.4-1.1c0-0.6-0.4-1-1.4-1.4
			c-1.3-0.5-1.9-1.2-1.9-2.1c0-1.2,1-2.2,2.5-2.2c0.7,0,1.4,0.2,1.8,0.5l-0.3,1c-0.3-0.2-0.8-0.4-1.5-0.4c-0.8,0-1.2,0.5-1.2,1
			c0,0.6,0.4,0.9,1.4,1.2c1.3,0.5,1.9,1.1,1.9,2.2c0,1.3-1,2.2-2.8,2.2c-0.8,0-1.6-0.2-2.1-0.5L725.7,359.4z"/>
	</g>
	<g id="XMLID_117_">
		<path id="XMLID_118_" class="st4" d="M925.8,289.6c0,1.6,1,2.2,2.2,2.2c0.8,0,1.3-0.1,1.7-0.3l0.2,0.8c-0.4,0.2-1.1,0.4-2.1,0.4
			c-1.9,0-3.1-1.3-3.1-3.2c0-1.9,1.1-3.4,3-3.4c2.1,0,2.6,1.8,2.6,3c0,0.2,0,0.4,0,0.5H925.8z M929.1,288.8c0-0.7-0.3-1.9-1.6-1.9
			c-1.2,0-1.7,1.1-1.8,1.9H929.1z"/>
		<path id="XMLID_121_" class="st4" d="M931.7,287.9c0-0.7,0-1.2-0.1-1.7h1l0.1,1h0c0.3-0.6,1-1.2,2.1-1.2c0.9,0,2.2,0.5,2.2,2.7
			v3.8h-1.1v-3.6c0-1-0.4-1.9-1.5-1.9c-0.8,0-1.3,0.5-1.5,1.2c-0.1,0.1-0.1,0.3-0.1,0.5v3.8h-1.1V287.9z"/>
		<path id="XMLID_123_" class="st4" d="M939,292.5v-5.4h-0.9v-0.9h0.9v-0.3c0-0.9,0.2-1.7,0.7-2.2c0.4-0.4,1-0.6,1.5-0.6
			c0.4,0,0.8,0.1,1,0.2l-0.2,0.9c-0.2-0.1-0.4-0.1-0.7-0.1c-1,0-1.2,0.9-1.2,1.8v0.3h1.5v0.9h-1.5v5.4H939z"/>
		<path id="XMLID_125_" class="st4" d="M948.3,289.3c0,2.3-1.6,3.4-3.1,3.4c-1.7,0-3-1.3-3-3.2c0-2.1,1.4-3.4,3.1-3.4
			C947,286.1,948.3,287.4,948.3,289.3z M943.3,289.4c0,1.4,0.8,2.4,1.9,2.4c1.1,0,1.9-1,1.9-2.5c0-1.1-0.5-2.4-1.9-2.4
			C943.8,286.9,943.3,288.2,943.3,289.4z"/>
		<path id="XMLID_128_" class="st4" d="M954.2,292.3c-0.3,0.2-1,0.4-1.8,0.4c-1.9,0-3.1-1.3-3.1-3.2c0-1.9,1.3-3.4,3.4-3.4
			c0.7,0,1.3,0.2,1.6,0.3l-0.3,0.9c-0.3-0.2-0.7-0.3-1.3-0.3c-1.4,0-2.2,1.1-2.2,2.4c0,1.5,0.9,2.4,2.2,2.4c0.7,0,1.1-0.2,1.4-0.3
			L954.2,292.3z"/>
		<path id="XMLID_130_" class="st4" d="M959.1,292.5l-0.1-0.8h0c-0.4,0.5-1,0.9-1.9,0.9c-1.3,0-1.9-0.9-1.9-1.8
			c0-1.5,1.4-2.4,3.8-2.3v-0.1c0-0.5-0.1-1.5-1.4-1.5c-0.6,0-1.2,0.2-1.6,0.5l-0.3-0.8c0.5-0.3,1.3-0.6,2.1-0.6
			c1.9,0,2.4,1.3,2.4,2.6v2.4c0,0.5,0,1.1,0.1,1.5H959.1z M958.9,289.3c-1.3,0-2.7,0.2-2.7,1.4c0,0.7,0.5,1.1,1.1,1.1
			c0.8,0,1.3-0.5,1.5-1.1c0-0.1,0.1-0.2,0.1-0.4V289.3z"/>
		<path id="XMLID_133_" class="st4" d="M967.3,283.3v7.6c0,0.6,0,1.2,0.1,1.6h-1l-0.1-1.1h0c-0.4,0.7-1.1,1.2-2.2,1.2
			c-1.5,0-2.7-1.3-2.7-3.2c0-2.1,1.3-3.4,2.8-3.4c1,0,1.6,0.5,1.9,1h0v-3.8H967.3z M966.2,288.8c0-0.1,0-0.3-0.1-0.5
			c-0.2-0.7-0.8-1.3-1.7-1.3c-1.2,0-1.9,1-1.9,2.4c0,1.3,0.6,2.3,1.9,2.3c0.8,0,1.5-0.5,1.7-1.4c0-0.2,0.1-0.3,0.1-0.5V288.8z"/>
		<path id="XMLID_136_" class="st4" d="M972.7,292.5l-0.1-0.8h0c-0.4,0.5-1,0.9-1.9,0.9c-1.3,0-1.9-0.9-1.9-1.8
			c0-1.5,1.4-2.4,3.8-2.3v-0.1c0-0.5-0.1-1.5-1.4-1.5c-0.6,0-1.2,0.2-1.6,0.5l-0.3-0.8c0.5-0.3,1.3-0.6,2.1-0.6
			c1.9,0,2.4,1.3,2.4,2.6v2.4c0,0.5,0,1.1,0.1,1.5H972.7z M972.5,289.3c-1.3,0-2.7,0.2-2.7,1.4c0,0.7,0.5,1.1,1.1,1.1
			c0.8,0,1.3-0.5,1.5-1.1c0-0.1,0.1-0.2,0.1-0.4V289.3z"/>
		<path id="XMLID_139_" class="st4" d="M978.9,289.6c0,1.6,1,2.2,2.2,2.2c0.8,0,1.3-0.1,1.7-0.3l0.2,0.8c-0.4,0.2-1.1,0.4-2.1,0.4
			c-1.9,0-3.1-1.3-3.1-3.2c0-1.9,1.1-3.4,3-3.4c2.1,0,2.6,1.8,2.6,3c0,0.2,0,0.4,0,0.5H978.9z M982.3,288.8c0-0.7-0.3-1.9-1.6-1.9
			c-1.2,0-1.7,1.1-1.8,1.9H982.3z"/>
		<path id="XMLID_142_" class="st4" d="M984.8,287.9c0-0.7,0-1.2-0.1-1.7h1l0.1,1h0c0.3-0.6,1-1.2,2.1-1.2c0.9,0,2.2,0.5,2.2,2.7
			v3.8H989v-3.6c0-1-0.4-1.9-1.5-1.9c-0.8,0-1.3,0.5-1.5,1.2c-0.1,0.1-0.1,0.3-0.1,0.5v3.8h-1.1V287.9z"/>
	</g>
	<ellipse id="XMLID_134337_" class="st4" cx="876.1" cy="355" rx="58.7" ry="23.2"/>
	<g id="XMLID_92_">
		<path id="XMLID_93_" class="st6" d="M845.2,350.5h5.5v1.1h-4.2v3.4h3.9v1.1h-3.9v4.6h-1.3V350.5z"/>
		<path id="XMLID_95_" class="st6" d="M858.8,357c0,2.7-1.9,3.9-3.7,3.9c-2,0-3.5-1.5-3.5-3.8c0-2.5,1.6-3.9,3.7-3.9
			C857.3,353.2,858.8,354.7,858.8,357z M852.9,357.1c0,1.6,0.9,2.8,2.2,2.8c1.3,0,2.2-1.2,2.2-2.9c0-1.2-0.6-2.8-2.2-2.8
			S852.9,355.7,852.9,357.1z"/>
		<path id="XMLID_98_" class="st6" d="M860.4,355.7c0-0.9,0-1.6-0.1-2.3h1.2l0,1.4h0.1c0.3-1,1.1-1.6,2-1.6c0.2,0,0.3,0,0.4,0v1.3
			c-0.1,0-0.3,0-0.5,0c-0.9,0-1.6,0.7-1.8,1.7c0,0.2-0.1,0.4-0.1,0.6v3.9h-1.3V355.7z"/>
		<path id="XMLID_100_" class="st6" d="M867.4,351.2v2.1h1.9v1h-1.9v4c0,0.9,0.3,1.4,1,1.4c0.3,0,0.6,0,0.8-0.1l0.1,1
			c-0.3,0.1-0.7,0.2-1.2,0.2c-0.6,0-1.1-0.2-1.4-0.6c-0.4-0.4-0.5-1.1-0.5-1.9v-4H865v-1h1.1v-1.8L867.4,351.2z"/>
		<path id="XMLID_102_" class="st6" d="M874.9,360.7l-0.1-0.9h0c-0.4,0.6-1.2,1.1-2.3,1.1c-1.5,0-2.3-1.1-2.3-2.1
			c0-1.8,1.6-2.8,4.4-2.7v-0.2c0-0.6-0.2-1.7-1.7-1.7c-0.7,0-1.4,0.2-1.9,0.5l-0.3-0.9c0.6-0.4,1.5-0.7,2.4-0.7c2.3,0,2.8,1.5,2.8,3
			v2.8c0,0.6,0,1.3,0.1,1.8H874.9z M874.7,357c-1.5,0-3.1,0.2-3.1,1.7c0,0.9,0.6,1.3,1.3,1.3c1,0,1.6-0.6,1.8-1.2
			c0-0.1,0.1-0.3,0.1-0.4V357z"/>
		<path id="XMLID_105_" class="st6" d="M878.2,349.9h1.3v10.8h-1.3V349.9z"/>
		<path id="XMLID_107_" class="st6" d="M882.5,357.3c0,1.8,1.2,2.6,2.5,2.6c1,0,1.5-0.2,2-0.4l0.2,1c-0.5,0.2-1.3,0.5-2.5,0.5
			c-2.3,0-3.6-1.5-3.6-3.7s1.3-4,3.5-4c2.4,0,3,2.1,3,3.5c0,0.3,0,0.5,0,0.6H882.5z M886.4,356.3c0-0.9-0.4-2.2-1.9-2.2
			c-1.4,0-1.9,1.2-2.1,2.2H886.4z"/>
		<path id="XMLID_110_" class="st6" d="M888.6,360l3.3-4.3c0.3-0.4,0.6-0.7,1-1.1v0h-4v-1.1h5.6l0,0.8l-3.3,4.3
			c-0.3,0.4-0.6,0.8-0.9,1.2v0h4.3v1.1h-6V360z"/>
		<path id="XMLID_112_" class="st6" d="M900,360.7l-0.1-0.9h0c-0.4,0.6-1.2,1.1-2.3,1.1c-1.5,0-2.3-1.1-2.3-2.1
			c0-1.8,1.6-2.8,4.4-2.7v-0.2c0-0.6-0.2-1.7-1.7-1.7c-0.7,0-1.4,0.2-1.9,0.5l-0.3-0.9c0.6-0.4,1.5-0.7,2.4-0.7c2.3,0,2.8,1.5,2.8,3
			v2.8c0,0.6,0,1.3,0.1,1.8H900z M899.8,357c-1.5,0-3.1,0.2-3.1,1.7c0,0.9,0.6,1.3,1.3,1.3c1,0,1.6-0.6,1.8-1.2
			c0-0.1,0.1-0.3,0.1-0.4V357z"/>
		<path id="XMLID_115_" class="st6" d="M903.1,359.4c0.4,0.3,1.1,0.5,1.8,0.5c1,0,1.4-0.5,1.4-1.1c0-0.6-0.4-1-1.4-1.4
			c-1.3-0.5-1.9-1.2-1.9-2.1c0-1.2,1-2.2,2.5-2.2c0.7,0,1.4,0.2,1.8,0.5l-0.3,1c-0.3-0.2-0.8-0.4-1.5-0.4c-0.8,0-1.2,0.5-1.2,1
			c0,0.6,0.4,0.9,1.4,1.2c1.3,0.5,1.9,1.1,1.9,2.2c0,1.3-1,2.2-2.8,2.2c-0.8,0-1.6-0.2-2.1-0.5L903.1,359.4z"/>
	</g>
	<ellipse id="XMLID_134331_" class="st4" cx="1038.7" cy="355" rx="58.7" ry="23.2"/>
	<g id="XMLID_60_">
		<path id="XMLID_61_" class="st6" d="M1002.2,350.6c0.8-0.1,1.8-0.2,2.8-0.2c1.9,0,3.3,0.4,4.2,1.3c0.9,0.8,1.4,2,1.4,3.7
			c0,1.7-0.5,3-1.5,4c-1,1-2.5,1.5-4.5,1.5c-0.9,0-1.7,0-2.4-0.1V350.6z M1003.5,359.7c0.3,0.1,0.8,0.1,1.3,0.1
			c2.8,0,4.4-1.6,4.4-4.4c0-2.4-1.4-4-4.2-4c-0.7,0-1.2,0.1-1.6,0.1V359.7z"/>
		<path id="XMLID_64_" class="st6" d="M1013.1,357.3c0,1.8,1.2,2.6,2.5,2.6c1,0,1.5-0.2,2-0.4l0.2,1c-0.5,0.2-1.3,0.5-2.5,0.5
			c-2.3,0-3.6-1.5-3.6-3.7s1.3-4,3.5-4c2.4,0,3,2.1,3,3.5c0,0.3,0,0.5,0,0.6H1013.1z M1017,356.3c0-0.9-0.4-2.2-1.9-2.2
			c-1.4,0-1.9,1.2-2.1,2.2H1017z"/>
		<path id="XMLID_67_" class="st6" d="M1019.9,360.7c0-0.5,0.1-1.2,0.1-1.9v-8.9h1.3v4.6h0c0.5-0.8,1.3-1.4,2.5-1.4
			c1.8,0,3.1,1.5,3.1,3.8c0,2.6-1.7,3.9-3.3,3.9c-1.1,0-1.9-0.4-2.5-1.4h0l-0.1,1.2H1019.9z M1021.3,357.8c0,0.2,0,0.3,0.1,0.5
			c0.3,0.9,1,1.6,2,1.6c1.4,0,2.2-1.1,2.2-2.8c0-1.5-0.8-2.7-2.2-2.7c-0.9,0-1.8,0.6-2,1.6c0,0.2-0.1,0.3-0.1,0.5V357.8z"/>
		<path id="XMLID_70_" class="st6" d="M1030.1,351.3c0,0.5-0.3,0.8-0.9,0.8c-0.5,0-0.8-0.4-0.8-0.8c0-0.5,0.3-0.8,0.8-0.8
			C1029.8,350.5,1030.1,350.8,1030.1,351.3z M1028.6,360.7v-7.4h1.3v7.4H1028.6z"/>
		<path id="XMLID_73_" class="st6" d="M1032.2,349.9h1.3v10.8h-1.3V349.9z"/>
		<path id="XMLID_75_" class="st6" d="M1037.3,351.3c0,0.5-0.3,0.8-0.9,0.8c-0.5,0-0.8-0.4-0.8-0.8c0-0.5,0.3-0.8,0.8-0.8
			C1037,350.5,1037.3,350.8,1037.3,351.3z M1035.8,360.7v-7.4h1.3v7.4H1035.8z"/>
		<path id="XMLID_78_" class="st6" d="M1045.7,349.9v8.9c0,0.7,0,1.4,0.1,1.9h-1.2l-0.1-1.3h0c-0.4,0.8-1.3,1.4-2.5,1.4
			c-1.8,0-3.2-1.5-3.2-3.7c0-2.5,1.5-4,3.3-4c1.1,0,1.9,0.5,2.2,1.1h0v-4.4H1045.7z M1044.4,356.4c0-0.2,0-0.4-0.1-0.6
			c-0.2-0.9-0.9-1.6-1.9-1.6c-1.4,0-2.2,1.2-2.2,2.8c0,1.5,0.7,2.7,2.2,2.7c0.9,0,1.7-0.6,2-1.6c0-0.2,0.1-0.4,0.1-0.6V356.4z"/>
		<path id="XMLID_81_" class="st6" d="M1052,360.7l-0.1-0.9h0c-0.4,0.6-1.2,1.1-2.3,1.1c-1.5,0-2.3-1.1-2.3-2.1
			c0-1.8,1.6-2.8,4.4-2.7v-0.2c0-0.6-0.2-1.7-1.7-1.7c-0.7,0-1.4,0.2-1.9,0.5l-0.3-0.9c0.6-0.4,1.5-0.7,2.4-0.7c2.3,0,2.8,1.5,2.8,3
			v2.8c0,0.6,0,1.3,0.1,1.8H1052z M1051.8,357c-1.5,0-3.1,0.2-3.1,1.7c0,0.9,0.6,1.3,1.3,1.3c1,0,1.6-0.6,1.8-1.2
			c0-0.1,0.1-0.3,0.1-0.4V357z"/>
		<path id="XMLID_84_" class="st6" d="M1061.6,349.9v8.9c0,0.7,0,1.4,0.1,1.9h-1.2l-0.1-1.3h0c-0.4,0.8-1.3,1.4-2.5,1.4
			c-1.8,0-3.2-1.5-3.2-3.7c0-2.5,1.5-4,3.3-4c1.1,0,1.9,0.5,2.2,1.1h0v-4.4H1061.6z M1060.3,356.4c0-0.2,0-0.4-0.1-0.6
			c-0.2-0.9-0.9-1.6-1.9-1.6c-1.4,0-2.2,1.2-2.2,2.8c0,1.5,0.7,2.7,2.2,2.7c0.9,0,1.7-0.6,2-1.6c0-0.2,0.1-0.4,0.1-0.6V356.4z"/>
		<path id="XMLID_87_" class="st6" d="M1064.6,357.3c0,1.8,1.2,2.6,2.5,2.6c1,0,1.5-0.2,2-0.4l0.2,1c-0.5,0.2-1.3,0.5-2.5,0.5
			c-2.3,0-3.6-1.5-3.6-3.7s1.3-4,3.5-4c2.4,0,3,2.1,3,3.5c0,0.3,0,0.5,0,0.6H1064.6z M1068.5,356.3c0-0.9-0.3-2.2-1.9-2.2
			c-1.4,0-1.9,1.2-2.1,2.2H1068.5z"/>
		<path id="XMLID_90_" class="st6" d="M1071.3,359.4c0.4,0.3,1.1,0.5,1.8,0.5c1,0,1.4-0.5,1.4-1.1c0-0.6-0.4-1-1.4-1.4
			c-1.3-0.5-1.9-1.2-1.9-2.1c0-1.2,1-2.2,2.5-2.2c0.7,0,1.4,0.2,1.8,0.5l-0.3,1c-0.3-0.2-0.8-0.4-1.5-0.4c-0.8,0-1.2,0.5-1.2,1
			c0,0.6,0.4,0.9,1.4,1.2c1.3,0.5,1.9,1.1,1.9,2.2c0,1.3-1,2.2-2.8,2.2c-0.8,0-1.6-0.2-2.1-0.5L1071.3,359.4z"/>
	</g>
</g>
</svg>
