<?xml version="1.0" encoding="utf-8"?>
<!-- Generator: Adobe Illustrator 19.0.0, SVG Export Plug-In . SVG Version: 6.00 Build 0)  -->
<svg version="1.1" id="Capa_1" xmlns="http://www.w3.org/2000/svg" xmlns:xlink="http://www.w3.org/1999/xlink" x="0px" y="0px"
	 viewBox="0 0 176.5 176.5" style="enable-background:new 0 0 176.5 176.5;" xml:space="preserve">
<style type="text/css">
	.st0{clip-path:url(#XMLID_59_);}
	.st1{fill:#50565B;stroke:#656C70;stroke-miterlimit:10;}
	.st2{fill:#808589;stroke:#656C70;stroke-miterlimit:10;}
	.st3{fill:#252728;stroke:#000000;stroke-miterlimit:10;}
	.st4{fill:#1A1B1C;stroke:#000000;stroke-miterlimit:10;}
	.st5{fill:#A0A6AA;}
	.st6{fill:#262C35;stroke:#161A1E;stroke-miterlimit:10;}
	.st7{fill:#181D23;}
	.st8{fill:#EABA96;stroke:#E0AA86;stroke-miterlimit:10;}
	.st9{fill:#E0AA86;}
	.st10{stroke:#000000;stroke-width:0.75;stroke-linecap:square;stroke-linejoin:bevel;stroke-miterlimit:10;}
	.st11{fill:#0C0C0C;}
	.st12{fill:#070707;}
	.st13{fill:#0F1C3F;}
	.st14{fill:none;stroke:#3F6093;stroke-width:0.75;stroke-miterlimit:10;}
	.st15{fill:none;stroke:#1C1C1C;stroke-width:0.75;stroke-miterlimit:10;}
	.st16{fill:#DBA682;}
	.st17{fill:none;stroke:#E0AA86;stroke-miterlimit:10;}
	.st18{fill:none;stroke:#E0AA86;stroke-linejoin:bevel;stroke-miterlimit:10;}
	.st19{fill:#00607C;}
	.st20{fill:#005468;}
	.st21{fill:#006E87;}
	.st22{fill:#AC34B2;stroke:#AC34B2;stroke-width:0.5;stroke-miterlimit:10;}
	.st23{fill:none;stroke:#959DA0;stroke-width:0.5;stroke-miterlimit:10;}
	.st24{fill:#959DA0;stroke:#959DA0;stroke-width:0.5;stroke-miterlimit:10;}
	.st25{fill:#282828;stroke:#000000;stroke-miterlimit:10;}
	.st26{fill:#EABA96;stroke:#E0AA86;stroke-width:0.5;stroke-miterlimit:10;}
	.st27{fill:#B7896A;}
	.st28{stroke:#000000;stroke-miterlimit:10;}
	.st29{fill:#C1A578;}
	.st30{stroke:#000000;stroke-width:0.25;stroke-linecap:round;stroke-linejoin:round;stroke-miterlimit:10;}
	.st31{fill:#FFFFFF;stroke:#000000;stroke-width:0.25;stroke-linecap:round;stroke-linejoin:round;stroke-miterlimit:10;}
	.st32{fill:#70582D;}
	.st33{fill:#FFFFFF;}
	.st34{stroke:#000000;stroke-linecap:round;stroke-linejoin:round;stroke-miterlimit:10;}
	.st35{fill:none;stroke:#D8A27D;stroke-width:0.75;stroke-miterlimit:10;}
	.st36{fill:#561409;}
	.st37{fill:#BA2A13;}
	.st38{fill:#9E3025;stroke:#4C2311;stroke-width:0.25;stroke-miterlimit:10;}
	.st39{fill:#871D08;stroke:#4C2311;stroke-width:0.25;stroke-miterlimit:10;}
	.st40{fill:#DDAC8A;}
	.st41{fill:#A5ABAD;stroke:#959DA0;stroke-width:0.5;stroke-miterlimit:10;}
	.st42{fill:#B1BABC;}
</style>
<g id="XMLID_1_">
	<g id="XMLID_65_">
		<defs>
			<circle id="XMLID_68_" cx="88.2" cy="88.2" r="88.2"/>
		</defs>
		<clipPath id="XMLID_59_">
			<use xlink:href="#XMLID_68_"  style="overflow:visible;"/>
		</clipPath>
		<g id="XMLID_106_" class="st0">
			<path id="XMLID_859_" class="st1" d="M148.1,286.8l-1.5-2.8c0,0,8.2,2.3,8.3-2.8s0.3-46.1,0.3-46.1l2.9-0.4l-0.3,50.2l-1.6,3.1
				l-4-0.3L148.1,286.8"/>
			<path id="XMLID_858_" class="st2" d="M148.1,286.8c0,0,8.6,1.2,8.6-4.1v-47.9h7v47.9c0,0,1,10.4-7.4,10.4l-8.3,0L148.1,286.8z"/>
			<rect id="XMLID_857_" x="96.3" y="347.9" class="st2" width="7.9" height="35.9"/>
			<path id="XMLID_856_" class="st3" d="M95.2,348.7h10.3c1.4,0,2.5-1.1,2.5-2.4l1.8-38.3h-19l1.8,38.3
				C92.7,347.6,93.8,348.7,95.2,348.7z"/>
			<circle id="XMLID_855_" class="st4" cx="100.2" cy="420.7" r="9.9"/>
			<circle id="XMLID_854_" class="st4" cx="71.1" cy="418.8" r="9.5"/>
			<circle id="XMLID_853_" class="st4" cx="129.3" cy="418.8" r="9.5"/>
			<circle id="XMLID_852_" class="st5" cx="100.2" cy="420.7" r="6.9"/>
			<circle id="XMLID_851_" class="st5" cx="71.1" cy="418.8" r="6.2"/>
			<circle id="XMLID_850_" class="st5" cx="129.3" cy="418.8" r="6.2"/>
			<circle id="XMLID_849_" class="st4" cx="100.2" cy="419.7" r="5.9"/>
			<circle id="XMLID_848_" class="st4" cx="71.1" cy="418.1" r="5.2"/>
			<circle id="XMLID_847_" class="st4" cx="129.3" cy="418.1" r="5"/>
			<path id="XMLID_846_" class="st5" d="M96.8,351c0,0,6-2.3,5.6,3.7V381c0,0,1,1.4-4.7,2.1h5.7l0.3-33.9h-7L96.8,351z"/>
			<path id="XMLID_845_" class="st2" d="M65.9,397c1.5-7.6,16.1-7.5,16.1-7.5h8.4v-4.2c0-0.8,0.7-1.5,1.5-1.5h16.8
				c0.8,0,1.5,0.7,1.5,1.5v4.2h12.4c13,0,11.7,9.5,11.7,9.5v11.9c0,1.6-1.3,2.9-2.9,2.9h-4c-1.6,0-2.9-1.3-2.9-2.9v-1.1
				c0,0.1,0-1,0-4.5c0-9.5-6.3-9-6.3-9l-13-0.1V412c0,1-0.8,1.8-1.8,1.8h-6.2c-1,0-1.8-0.8-1.8-1.8v-15.7l-13.3-0.1
				c-5,0-5.9,4.5-6,6.9v8.7c0,1.1-0.9,2-2,2h-5.8c-1.1,0-2-0.9-2-2v-14.4c0,0,0,0,0-0.1L65.9,397z"/>
			<path id="XMLID_844_" class="st5" d="M100.1,392c0,0,4.8-0.4,4.6,3.9l0,14.9c0,0,0.6,2.9-2.9,2.3c0,0,1.1,0.1,1.6-2.6l0.1-14.6
				C103.6,395.9,103,392.8,100.1,392z"/>
			<path id="XMLID_843_" class="st5" d="M100.2,384.3h7.5c0,0,2.6-0.6,2,2.5l0.1,3.2l-2.5-4.2L100.2,384.3z"/>
			<path id="XMLID_842_" class="st5" d="M126.9,390.5c0,0,7,0.7,6.7,9.6l0,10c0,0,1.1,3.5-4.3,3c0,0,2.4-0.8,2.1-5.7l-0.1-9.9
				C131.4,397.4,131.6,393.9,126.9,390.5z"/>
			<path id="XMLID_841_" class="st6" d="M130.5,132.8c0,0,3.3-8.7,26.7-8.2c0,0,24.8-6.7,27.3,47.7V221c0,0,1.9,33.7-26,32.7
				c0,0-29.7,2.2-29.3-23.8L130.5,132.8"/>
			<path id="XMLID_840_" class="st7" d="M144.8,129.5c0,0,21.7-9.3,26.7,41.3l3,55.5c0,0,0.9,20.8-17.2,21.2s-0.9,1.2-0.9,1.2
				s-23.7,1.6-24.9-21.2l-5.1-77.4C126.5,150.2,129.3,129.1,144.8,129.5z"/>
			<path id="XMLID_839_" class="st1" d="M87.2,312.1h28.9c5,0,9.2-4.1,9.2-9.2v-0.2c0-3.4-2.8-6.2-6.2-6.2H84.2
				c-3.4,0-6.2,2.8-6.2,6.2v0.2C78.1,308,82.2,312.1,87.2,312.1z"/>
			<path id="XMLID_812_" class="st6" d="M71.8,301.9c-4-0.2,10.8,1.5,32.9,1.9c8.8,0.2,25.9-1,25.9-1c4.1,0,19.8-2.4,19.8-10.9v-5.1
				c0-9.3-15.7-11.9-19.8-11.9c0,0-16.9-0.3-25.7,0c-18.8,0.6-43.4,1.9-43.4,1.9c-4.1,0-10.5,5.1-10.5,9v6.1
				C51.5,297.8,67.7,301.9,71.8,301.9z"/>
			<path id="XMLID_811_" class="st7" d="M150.3,285.6c0,0-50.2,10.3-98.5-2.4s0,0,0,0s1.1,11.9,21.3,14.5c0,0,47.4,4.1,66,0
				c0,0,0.3,3.4-7.8,5.1s0,0,0,0s16.2-0.3,19-9.7c2.8-9.4,0,0,0,0V285.6"/>
			<path id="XMLID_795_" class="st8" d="M56.5,371.8c0,0,3.2,11.8,7.2,19.2l2.1,3.7l-3.3,5.5l-5.9,4.4l-5.6,5.2c0,0-5.3,5.5-5.4,5.6
				c-0.2,0.2-8.2,4.7-8.2,4.7l-5.4-0.4c0,0-1.7-2.4-1.9-2.6s-0.1-4.4-0.1-4.4s6.5-9.1,13.6-15.8c0,0,5.4-4.4,5.3-6.8l-4.8-10.3"/>
			<path id="XMLID_794_" class="st8" d="M56.6,387.7c0,0,2.9,1.6,1.3,4.6"/>
			<path id="XMLID_789_" class="st9" d="M58.5,386.2c0,0,3.4,4.3,3.5,8.2c0,0-0.4,4.5-6.9,8.1c0,0-5.8,3-6.4,6l3.9-1.1l9.1-4.6
				l3.4-4.5l-1-7c0,0-3.6-6.7-4.8-10.8"/>
			<path id="XMLID_788_" class="st10" d="M66.9,396.2c-0.6,6.8-6.9,9.3-6.9,9.3c-6.9,3.8-9.3,9.5-9.3,9.5l-2.5,3.3
				c-7.4,7.7-16.6,7-16.6,7c-3,0.1-4.5-0.9-5.2-2l0,0l1.1,2.3c0,0,4.1,3.9,15.8-1.9c0,0,3.6-1.9,6.9-5.9c0.5-0.6,1.8-2.9,2.5-4
				c1.2-2,3.7-5.1,8.2-7.3c0,0,6.7-2.3,6.9-8.3L66.9,396.2z"/>
			<path id="XMLID_787_" class="st11" d="M29.9,412.6c0,0-3.5,4-4,6.9c0,0-1.5,5.9,5.7,5.7c0,0,9.2,0.7,16.6-7l2.5-3.3
				c0,0,2-6.1,10-9.7c0,0,7-3,6.1-9l-2.5-5c0,0,2,6.8-8.6,12.1c0,0-4.4,2.1-8,7.7c0,0-6.4,9.2-15.3,6.3
				C29.6,416.4,29.9,412.6,29.9,412.6z"/>
			<path id="XMLID_759_" class="st11" d="M135.7,237.9c0,0,12.7,26.8-6.5,38.2c0,0-39,10.7-81.3,15.4l-5.3,1.3
				c0,0,12,55.6,16.7,83.2c0,0-1.3,5.7-14.8,8.1c0,0-36.6-73.4-38.9-80.2c0,0-15.4-26.3-3.1-34.9c0,0-23.9-34-26.7-42
				c0,0-14.9-23.9,1.9-27.5c0,0,10.8-6,40.3,5.7L68.1,226C68.1,226,113.5,222.6,135.7,237.9"/>
			<path id="XMLID_758_" class="st12" d="M2.2,269.8c0,0-10.1,7.8,3.6,33.6c0,0,34.6,75.3,39,80.3c0,0,10.4-1.6,14.4-7.8
				c0,0-4.5-19.3-9.4-46.8l-39-47.7L2.2,269.8z"/>
			<path id="XMLID_756_" class="st13" d="M16.3,205c0,0-8.2,1.6-16.2,0c0,0-3.6,0.2-3.5,4.7c0,0,0.6,4-2.8,4c0,0-5.7,1.5-9-1.5
				c0,0-7-4.4-10.4,3.6c0,0-1.5,3.7-1.3,6.3l-5.2-10.8l3.1-9.6l14.3-1.9l17.2-1.5L16.3,205z"/>
			<path id="XMLID_755_" class="st12" d="M66.8,226c0,0,1,10.8-19,12.9c0,0-19.3,0.8-23.4-2.6c-4.1-3.4,0,0,0,0s3.3,3.7,6.9,17.4
				c0,0,17.8-8,36.7-12.3l17.7-7.6L66.8,226z"/>
			<path id="XMLID_738_" class="st12" d="M119.1,237.5c0,0,11.5,20.7-6,27.5c0,0-41,19-74.4,5.9l7.5,20.3c0,0,60.1-8.2,77.8-13.8
				c3.9-1.2,7.9-1.9,11.6-6.7c4.1-5.3,6.8-16.3,0.2-32.8c-12.3-30.3,0,0,0,0L119.1,237.5z"/>
			<line id="XMLID_737_" class="st14" x1="81.2" y1="231.5" x2="67.6" y2="225.7"/>
			<path id="XMLID_736_" class="st15" d="M64.8,242.6c0,0-24.7,6.8-33.4,11.8"/>
			<path id="XMLID_735_" class="st8" d="M50.1,302c0,0,5.4,11,10.7,17.5l2.8,3.2l-2.2,6l-5,5.4l-4.5,6.1c0,0-4.1,6.4-4.3,6.5
				c-0.2,0.2-7.2,6.2-7.2,6.2l-5.4,0.7c0,0-2.2-2-2.3-2.2c-0.2-0.2-1-4.3-1-4.3S36.5,337,42.2,329c0,0,4.4-5.3,3.9-7.6l-6.7-9.2"/>
			<path id="XMLID_734_" class="st8" d="M53.3,317.6c0,0,3.2,1,2.1,4.3"/>
			<path id="XMLID_733_" class="st9" d="M52.3,309.5c0,0,6.7,9.8,7.6,13.6c0,0,0.5,4.5-5.2,9.2c0,0-5.1,4.1-5.1,7.1l3.6-1.8l8-6.3
				l2.5-5l-2.3-6.7c0,0-6.1-7.9-8.2-11.7"/>
			<path id="XMLID_732_" class="st10" d="M65,324c0.7,6.8-5,10.5-5,10.5c-6,5.1-7.4,11.1-7.4,11.1l-1.9,3.7c-5.8,9-14.9,10-14.9,10
				c-2.9,0.6-4.5,0-5.5-1l0,0l1.5,2c0,0,4.8,3.1,15.2-4.9c0,0,3.2-2.6,5.6-7.1c0.4-0.7,1.2-3.2,1.7-4.4c0.8-2.2,2.7-5.7,6.6-8.8
				c0,0,6.2-3.6,5.2-9.5L65,324z"/>
			<path id="XMLID_731_" class="st11" d="M31.8,347.2c0,0-2.7,4.6-2.6,7.6c0,0-0.4,6.1,6.7,4.5c0,0,9.2-1,14.9-10l1.9-3.7
				c0,0,0.8-6.3,7.9-11.4c0,0,6.3-4.3,4.3-10l-3.4-4.5c0,0,3.2,6.3-6.1,13.5c0,0-4,2.9-6.4,9.1c0,0-4.5,10.2-13.8,9.1
				C32.3,350.9,31.8,347.2,31.8,347.2z"/>
			<path id="XMLID_730_" class="st11" d="M4,212.2c0,0,20.7,15.8,26.2,38.6c0,0,20.6,48.7,23.5,55.7c0,0-2.2,5.6-12.9,8.5
				c0,0-38.1-45.1-39.2-47"/>
			<path id="XMLID_729_" class="st8" d="M108.4,98.8c0,0-1.6,16.4-1.7,22.2c0,0-23.1,12.1-27.9,17.7c0,0-1.8-7.4-0.8-16.3
				c0,0,4.1-7.6,2.3-15.6s0,0,0,0L108.4,98.8"/>
			<path id="XMLID_728_" class="st16" d="M80.6,113.4c0,0,10.6-3.9,26.1,5.8l1.3-20.1l-28.2,6C79.8,105,81.2,109.6,80.6,113.4z"/>
			<path id="XMLID_727_" class="st8" d="M63,150.2c0,0-2.7-8.2-13.5-8.4c0,0-26.8,37.1-31.1,44.9c0,0-15.4-1.4-29.4,4.5
				c0,0,13.1,2.8,9.6,10.6c0,0,14,2.3,20.1,2.3c0,0,6.3,0.2,8.7-5.2L63,150.2z"/>
			<path id="XMLID_726_" class="st8" d="M-1.4,201.8c0,0-3,2.6-3.5,4.9c0,0-0.8,5.2-0.3,8.4c0,0,3.3,6-0.2,7.5c0,0-3.8,2.1-4.8-5.7
				c0,0-0.1-4.1-2.1-7c0,0-1.8-5.6-9-1.6l-5.9,4.4l-1.2,4.5l0.9,9c0,0,1.3,3.8-0.9,4.2c0,0-2.9,1.5-3.5-3.4c0,0-0.4,3.5-3.2,2.4
				c0,0-1.9-0.3-0.6-5.6l0.7-2.4c0,0-1.4-1.5-1.4-4.7c0,0-2.7-1.9-2.9-4.9v-5.5c0,0,0-3.8,3-6.6c0,0,6.1-8.6,25-8.6
				C-11.2,191.2,2.4,194.4-1.4,201.8z"/>
			<path id="XMLID_725_" class="st17" d="M-13.8,207.6c0,0-1.6-1.4-1.9-3.6"/>
			<path id="XMLID_724_" class="st17" d="M-28.2,217.1c0,0-3,8.3-3.5,9.9"/>
			<path id="XMLID_723_" class="st18" d="M-34.9,221.4l2.8-10.1c0,0-0.1-2.1,2.7-4.5l6.4-5"/>
			<path id="XMLID_722_" class="st18" d="M-28.2,199.1l-5.8,5.6c0,0-2.3,1.3-2.4,4.8c0,0.1,0,0.2,0,0.3c0,3.8,0.2,6.9,0.2,6.9"/>
			<path id="XMLID_721_" class="st19" d="M51.8,137.5c0,0-1.9,2.3-4.1,5.4c-7.2,9.9-23.1,32-29.4,42.3c0,0-1.4-0.1-4.4,0
				c0,0,3.6,10.2,0.4,18.9c0,0,3.8,1.9,10.4-0.7c0,0,3.7,0.8,29-37l11.8-18.8"/>
			<path id="XMLID_720_" class="st19" d="M49.1,140.8c0,0,7.5-9.5,11.6-14.2c0,0,2-3.3,11.7-3.9l4.4-3.2c-1-3.4,1.7-3.3,1.7-3.3
				c-2.8-2.7,0-2.1,0-2.1c19,4.7,29.8,0.3,29.8,0.3c2.9-0.9,1.2,2.7,1.2,2.7c1.4,1.6-0.3,3.2-0.3,3.2c1.2,2.1,2.6,3,2.6,3l15.3,6.6
				c0,0,8.4,3.9,10.4,15l2.1,10.7l0.7,3.6c0,0-7,7-19.5,4.2c0,0,1.5,8.4-2.8,14.4l-3.8,16.8c0,0,1.9,1.4,0.6,3.1
				c0,0,18.8,27.1,20.9,40.3c0,0-26.9-1.5-42.4-3c0,0-18.4-6.1-25.1-9c0,0,0.4-12.6,1.4-15c0,0-3.2-3.5-1.1-4.8
				c0,0-5.5-19.9-4.9-23.5c0,0-12.1-5.3-11-22.7c0,0,0.2-7.2,6.5-12.1"/>
			<path id="XMLID_719_" class="st20" d="M94.5,180c0,0-11.5-0.2-16.1-7.6c0,0-9,11.2-19.6,4.7l5.7,5.6c0,0,6.9,2.5,7.8,8.4
				c0,0,3.5,2.7,3.7-4.3c0,0,4.2-7.8,10.7-2.5C86.8,184.3,98.7,189.3,94.5,180z"/>
			<path id="XMLID_718_" class="st20" d="M64.8,143.3c0,0-8.1,2.5-11.9,10.1c0,0-3.7,6.6-2.9,13.3l-24.9,33.4c0,0-4.7,2.9-10.1,1.6
				l-0.7,2.3c0,0,2.5,2.1,10.4-0.7c0,0,3.4-1.6,16.5-18.9l11.3-17.1C52.5,167.3,48.5,151,64.8,143.3"/>
			<path id="XMLID_717_" class="st20" d="M115.7,155.5c0,0,5.4,5.5,5.1,11c0,0,0.4,5.7-2.8,11.2l-4.1,17c0,0,2.2,1.1,0.6,3l8.3,12.7
				c0,0,12.1,20.2,12.6,27.1l-22.4-1.4l-21.6-1.6l-22.9-8.8c0,0,25.3-3.6,34.1-7.6c0,0,9.3-4.5,3.5-10.5l3.5-9.3c0,0,1.7-1.8-0.3-3
				l0.6-12.2C109.9,183.1,126.5,172.9,115.7,155.5z"/>
			<path id="XMLID_716_" class="st8" d="M54.1,254.4c-3.9,2.7-5.7,1.5-5.7,1.5c-1.7-1.8,0.4-3,0.4-3l4.2-2.2
				c3.4-1.2,7.3-3.4,7.3-3.4l4.4-4.6c0,0,3-6.4,17.1-11.2c0,0,8.4-2,15.6-6.1c0,0,22.7-12.6,36.8-17.1c0,0-7.2-23.8-12.1-43.8
				c0,0,8.1,2.2,17.5-4.4c0,0,7.8,36.7,9.3,48.7c0,0,5,13.6-1,12c-6-1.6-1,0.1-1,0.1s-8.8,10.8-57.1,19.9c0,0-1.2,4.9-11,8.4
				c0,0-0.2,0.1-0.6,0.2c-1.4,5-4.8,7.9-4.8,7.9c-1.4,4.2-5,7.1-5,7.1c-2.5,4.1-4.5,2.5-4.5,2.5c-1.2-1.6,1.3-4,1.3-4
				c3.8-4.1,4.6-6.8,4.6-6.8l2-7.7c0,0,0,0,0,0l0,0l-1.5,5.5c-0.5,1.9-2.5,3.6-2.5,3.6l-6.6,5.8c-3.5,3.8-5.3,2.1-5.3,2.1
				c-1.6-1.6,1.1-3.8,1.1-3.8c1.7-2.2,4.7-4.9,6.6-6.7c1.1-1,1.8-1.9,1.8-1.9c0-0.1,0,0.1,0,0l0,0l-1.8,1.9l-8.5,5.1
				c-3.7,3.3-5.5,1.7-5.5,1.7c-1.6-2.1,1.9-4,1.9-4l4.5-2.8c2.8-1.4,4.9-3.2,5.8-4.1c0.3-0.3,0.5-0.6,0.5-0.6l3.6-6.3l-4.1,6.9
				l-2.4,1.2L54.1,254.4z"/>
			<path id="XMLID_715_" class="st17" d="M68.1,246c0,0-2,6-2.5,6.7"/>
			<path id="XMLID_714_" class="st19" d="M139.6,155.5l10.8,52.1c0,0,4.3,9.9,0.5,13.8c0,0-3.2,2.8-6.3,3.1c0,0-3.5,3.1-8.6,5
				c0,0-5.3-15.9-10.4-19.3l6.9-2.6l-11.7-41.1c0,0,1-4.6-5.1-11"/>
			<path id="XMLID_713_" class="st20" d="M110.4,123.8l11.3,7c0,0,11.4,6.9,11.4,15.5l13.4,61.6c0,0,7.3,9.9-1.8,13.5
				c0,0-2.2,2.1-6.4,0.6c0,0-8.2-9.2-10-11.1c0,0,7.1,12.5,7.7,18.5c0,0,6.8-3.6,8.3-5.4c0,0,12.4-0.7,5.6-16.1l-10.5-50.6
				l-2.3-11.6c0,0-1.1-9.8-9.7-14.9l-16.2-7.1c0,0-2.1-1.6-2.7-3.4C108.6,120.2,109,123,110.4,123.8z"/>
			<path id="XMLID_710_" class="st20" d="M109.2,127.7c0,0-8.3,11.1-33.3-1.6c0,0-7.9-0.9-4.7,3.6c0,0,6.3,6.9,13.3,5.9
				c0,0-18.6,1.8-8.6,6.1c0,0,6.3,6.1,4.4,11c0,0,2.8-5.8,10.8-8.7c0,0,13-1.3,5.2-5.2C96.4,138.8,119.8,127.9,109.2,127.7z"/>
			<path id="XMLID_658_" class="st20" d="M109.2,114.9c0,0,0.1-0.3-4.2,1c0,0-12.4,2.5-23.5-0.5l-3.7-0.9c0,0,7.2,5.5,21.6,3.6
				c0,0,7.4-0.8,9.3-1.6C108.6,116.5,109.4,116.5,109.2,114.9z"/>
			<path id="XMLID_656_" class="st20" d="M108.9,117.2c0,0-5.9,4.7-22.6,2.3C86.3,119.5,100.4,120.8,108.9,117.2z"/>
			<path id="XMLID_655_" class="st20" d="M79.8,117c0,0,5.1,4.6,17,4.5c0,0-11.8,1.1-19-4.3C77.8,117.2,76.8,116.5,79.8,117z"/>
			<path id="XMLID_644_" class="st20" d="M108.6,120.2c0,0-2.9,3.7-20.7,2.7c0,0,12.4,2.6,21.3-1.5L108.6,120.2z"/>
			<path id="XMLID_628_" class="st21" d="M126.5,209c0,0,7.8,6.9,10.5,21.1l-7.7,2.2c0,0-4.5-16.4-10.4-19.2
				C118.9,213,122.7,209.5,126.5,209z"/>
			<path id="XMLID_627_" class="st22" d="M15.7,184"/>
			<path id="XMLID_615_" class="st21" d="M13.3,184c0,0,5.7,7.7,3.3,21.8l-4.4-0.3c0,0,1.5-14.3-4.6-20.8L13.3,184z"/>
			<path id="XMLID_612_" class="st23" d="M111.3,123.6c0,0-3.3,9.7-26.2,16.5c0,0-7.7-3.3-12.7-17.5"/>
			<circle id="XMLID_611_" class="st24" cx="84.7" cy="157.4" r="0.7"/>
			<circle id="XMLID_610_" class="st24" cx="76.2" cy="172.8" r="0.7"/>
			<path id="XMLID_606_" class="st24" d="M84.9,141.9L84.9,141.9c0.3,0,0.5-0.1,0.6-0.4l0.3-1.8c0-0.3-0.1-0.5-0.4-0.6h0
				c-0.3,0-0.5,0.1-0.6,0.4l-0.3,1.8C84.4,141.6,84.6,141.9,84.9,141.9z"/>
			<path id="XMLID_604_" class="st23" d="M84.9,141.9c0,0-4.3,24.4-8.6,30.9"/>
			<path id="XMLID_603_" class="st23" d="M84.9,141.9c0,0-1.7,11.7-0.3,15.6"/>
			<path id="XMLID_602_" class="st25" d="M74.4,15.9L43.5,49.5c0,0-4.6,25.1,13.7,37.2c0,0-2.6-2-2.5-4.5c0,0,1.7,3.6,5.8,5.2
				c0,0-1.5-2-0.8-3.3c0,0,1.5,3.3,7.5,5.2L74.4,15.9z"/>
			<path id="Cara_1_" class="st8" d="M63.5,65.9c0,0,0.8,10.1,3.1,20.8c0,0,3,9.4,11.6,17.6c0,0,4,6.6,10.7,6.5
				c0,0,7.1,1.2,13.2-6.5c0,0,12.2-7.4,14.7-22.2l2.8-20.7l-2.4-17.9l-7.4-14.2l-1.4-5.9l-14.2,4l-23.4,9.3l-8.1,8.9L63.5,65.9z"/>
			<path id="oreja_der_1_" class="st26" d="M114.8,89.2c-0.7,0.6,3.8-6.7,4.5-14c0,0,2.4,4,5,0c0,0,5.8-8.6,4-15.4
				c0,0-3-8.6-5.7-4.2l-3,5.7"/>
			<path id="Sobra_oreja_der_1_" class="st27" d="M124,62.5c0,0,0.9,6.7-1.4,9.3c0,0-2,0.1-1.6-1.9c0,0,0.4-0.9,0.7-0.7
				C121.7,69.2,123.9,67.9,124,62.5z"/>
			<path id="cabello_1_" class="st25" d="M61.2,31.3c0,0,7.5-8.7,16.5-10.1c0,0-11.3,5.9-11.3,15.3c0,0-9.5,12-1.2,29.9
				c0,0-6.6-17.4,15-24.2c0,0,19.5,0,25.2-12.5c0,0-0.7,5.4,4.5,5.2c0,0-2.4,11.3,6.1,13.9c0,0,7.1,11.5,0,22.8
				c0,0,4.2-2.6,6.1-13.4c0,0,5.4-4.9,5.3,6.1c0,0,0.1,12.2-6.2,12.9c0,0-0.2,2.6-2.6,5.5c0,0,2.4,0.5,1.2,2.8c0,0,3.5-1.2,4-4
				c0,0,1.4,2.1,0.9,4c0,0,2.8-2.6,1.6-8c0,0,1.6,1.2,1.2,5.4c0,0,2.4-3.8,2.4-8.5c-1.5,6-0.1,6.9-2,11c0,0,14.9,1.9,15.6-24.7
				c0,0-4-38.6-33.6-40.4c0,0-2.8-25.6-41.4-3.1C68.5,17.2,61.2,22.8,61.2,31.3z"/>
			<path id="mechon_izq_1_" class="st28" d="M68.5,17.2c0,0-38.1,18.1-20.2,54.1c0,0-1.2-6.1,3.3-13.4c0,0-1.8,20.8,16.2,25.5
				c0,0-5.1-3.6-4.8-9.9c0,0-3.4-5.5-2.9-12.1c0,0,0.5-1.6,1.1-3.6c0,0,1.9,8.5,4,8.5c0,0-8.3-14.1,1.2-29.9c0,0-1.3-7.9,11.3-15.3
				c0,0-9.5,1.5-16.5,10.1C61.2,31.3,59.9,25.2,68.5,17.2z"/>
			<path id="sombra_cabello_der_1_" class="st28" d="M109.9,20.2c0,0,27.7,0,33.6,40.4c0,0,0.6,23.5-15.6,24.7c0,0,2.3-3.9,2-11
				c0,0,4.3,0.7,5.1,4.6C134.9,78.9,153.3,43.6,109.9,20.2z"/>
			<path id="sombra_cabello_der_2_1_" class="st28" d="M119.4,75.7c0,0,0.5,2.5-2.4,9.5c0,0,3.9-2.2,2.7,0.1c0,0,3.4-1.4,4-4
				c0,0,1.8,1.7,0.9,4c0,0,2.9-3.2,1.6-8c0,0,2.1,1.1,1.2,5.4c0,0,3.3-6.2,2.3-10.3c0,0-0.4,1.9-1.3,2.5c-0.9,0.6-2.2-0.1-1.8-2.1
				c0,0,1.5-10.9,0.5-13c0,0,0.7,4,0,8.1C126.2,73.5,123.2,79.3,119.4,75.7z"/>
			<g id="ojo_der_1_">
				<path id="parpado_der_1_" class="st29" d="M93.2,62.2c0,0,1.1-6.1,7.2-7.6c0,0,7-1.7,8.8,4.3l-0.4,1.4c0,0-2.6-3.1-7-2.9
					C101.8,57.4,95,58.6,93.2,62.2z"/>
				<path id="pestaña_der_1_" class="st30" d="M93.8,62.8l-0.5,0.4v-1c0,0,3.5-4.8,8.6-4.8c0,0,4.4-0.3,6.9,2.5
					c0,0,0.8,0.3,1.7-0.7c0,0-0.5,1.9-2,1.8L93.8,62.8z"/>
				<path id="XMLID_601_" class="st31" d="M93.8,62.8c0,0-0.3,4.2,6.7,5.3c0,0,6,1.7,8-7.1C108.4,61,103,53.3,93.8,62.8z"/>
				<circle id="XMLID_599_" class="st32" cx="101.2" cy="63.1" r="3.1"/>
				<circle id="XMLID_591_" cx="101.4" cy="63.6" r="1.9"/>
				<circle id="XMLID_581_" class="st33" cx="99.8" cy="62.6" r="0.7"/>
				<circle id="XMLID_572_" class="st33" cx="98.9" cy="61.5" r="0.4"/>
				<path id="ceja_der_1_" class="st34" d="M93.2,55.3v-1.7c0,0,7.6-8.1,17.2-1.5C110.4,52.1,100.5,48,93.2,55.3z"/>
			</g>
			<g id="Ojo_izq_1_">
				<path id="parpado_izq_1_" class="st29" d="M81.5,62.1c0,0-1-5.6-6.6-7c0,0-6.4-1.6-8.1,3.9l0.4,1.3c0,0,2.4-2.8,6.5-2.7
					C73.6,57.7,79.9,58.8,81.5,62.1z"/>
				<path id="pestaña_izq_1_" class="st30" d="M81,62.6l0.5,0.3v-0.9c0,0-3.3-4.4-7.9-4.4c0,0-4-0.2-6.3,2.3c0,0-0.8,0.3-1.6-0.7
					c0,0,0.5,1.7,1.8,1.7L81,62.6z"/>
				<path id="cuenca_izq_1_" class="st31" d="M81,62.6c0,0,0.3,3.8-6.1,4.9c0,0-5.6,1.6-7.4-6.6C67.5,61,72.5,53.9,81,62.6z"/>
				<circle id="iris_izq_1_" class="st32" cx="74.2" cy="62.9" r="2.9"/>
				<circle id="pupila_izq_1_" cx="74.2" cy="63.2" r="1.8"/>
				<circle id="brillo_1_izq_1_" class="st33" cx="72.8" cy="62.3" r="0.6"/>
				<circle id="brillo_2_izq_1_" class="st33" cx="71.9" cy="61.2" r="0.4"/>
				<path id="ceja_izq_1_" class="st34" d="M82.2,54.3v-1.7c0,0-7-8.1-15.9-1.5C66.3,51.1,75.5,47,82.2,54.3z"/>
			</g>
			<path id="Nariz_1_" class="st35" d="M84.3,59.8c0,0,1.6,12.7-1.4,17.2c0,0-1.8,6.1,7.9,3.1"/>
			<g id="XMLID_530_">
				<path id="XMLID_541_" class="st36" d="M81.3,90.1L80,90.9c0,0-0.7,3,1,4.2c1.7,1.2,8.1,2.2,15.1-2.2c7-4.4,1.5-2.6,1.5-2.6
					s-9.4-1.7-9.7-1.6"/>
				<path id="XMLID_535_" class="st33" d="M80.7,90.5c0,0-0.8,1.8,0.1,2.1c0.9,0.4,10.9,0.3,12.7-0.3c1.9-0.5,1.9-1.7,1.9-1.7
					l-11.5-1"/>
				<path id="XMLID_533_" class="st37" d="M93.3,95.1c0,0-0.9-1.7-4.3-1.2c-3.4,0.4-4.4,1.2-5,2.4"/>
				<path id="XMLID_532_" class="st38" d="M80.3,90.7c0,0,0,3.9,2.8,4.5c5.7,1.3,8,0.3,14.1-3.8c0.8-0.5,3.2-1.7,2.5-1
					c-0.4,0.3-3.4,6.8-8.6,8.3s-8,0.3-9.9-1.7c-2.1-2.1-1.4-6.3-1.4-6.3"/>
				<path id="XMLID_531_" class="st39" d="M101,89.8c0.9,0-4.3,2.7-7.8,1.5c-6.7-2.4-14.2,1-15.5,0.2c-1.3-0.8,3.1-0.5,5.9-4.5
					c0.3-0.4,0.7-0.7,1.7-0.2c1,0.5,1.1,0.7,1.8,0.7c0.7,0,1.6-1.2,2.3-1.2C90,86.3,91.7,90,101,89.8z"/>
			</g>
			<path id="barbilla_1_" class="st40" d="M84.6,103.1c0,0,3,3,5.8,0.3C90.4,103.4,88.3,104.1,84.6,103.1z"/>
			<g id="XMLID_111_">
				<circle id="XMLID_129_" class="st41" cx="121.7" cy="75.4" r="1.6"/>
				<path id="XMLID_128_" class="st42" d="M121.7,74.5c0,0-1.1,0.3-0.9,1.7c0,0-0.6-0.9-0.1-1.6C120.8,74.6,121,74.1,121.7,74.5z"/>
			</g>
		</g>
	</g>
	<g id="XMLID_7_">
		<path id="XMLID_28_" class="st33" d="M36.6,111.4h-6.4c0-0.9,0-1.5,0-1.7c0-2.1,0.3-3.8,1-5.1c0.7-1.3,2.1-2.8,4.1-4.5
			s3.3-2.8,3.7-3.3c0.6-0.8,0.9-1.7,0.9-2.7c0-1.4-0.5-2.5-1.6-3.5c-1.1-1-2.6-1.5-4.4-1.5c-1.8,0-3.3,0.5-4.5,1.5
			c-1.2,1-2,2.6-2.5,4.7l-6.5-0.8c0.2-3,1.5-5.5,3.8-7.6c2.4-2.1,5.5-3.1,9.3-3.1c4,0,7.3,1.1,9.7,3.2c2.4,2.1,3.6,4.6,3.6,7.4
			c0,1.6-0.4,3-1.3,4.4c-0.9,1.4-2.8,3.3-5.6,5.7c-1.5,1.2-2.4,2.2-2.8,3C36.8,108.2,36.6,109.5,36.6,111.4z M30.2,120.9v-7h7v7
			H30.2z"/>
	</g>
</g>
</svg>
