<?xml version="1.0" encoding="utf-8"?>
<!-- Generator: Adobe Illustrator 19.0.0, SVG Export Plug-In . SVG Version: 6.00 Build 0)  -->
<svg version="1.1" id="Capa_1" xmlns="http://www.w3.org/2000/svg" xmlns:xlink="http://www.w3.org/1999/xlink" x="0px" y="0px"
	 viewBox="0 0 74 106" style="enable-background:new 0 0 74 106;" xml:space="preserve">
<style type="text/css">
	.st0{fill:#FFFFFF;}
	.st1{fill:#333333;}
	.st2{fill:#E54A3F;}
</style>
<g id="XMLID_131426_">
	<path id="XMLID_131448_" class="st0" d="M1.3,15.5v81.3c2.4,1,6.9,3.3,6.9,6c0,0.1,0,0.3,0,0.4l64.3,2.8l1.2-90.5H1.3z"/>
	<g id="XMLID_131427_">
		<g id="XMLID_131446_">
			<polygon id="XMLID_131447_" points="0,15.6 0,96.7 2.1,96.7 2.1,17.7 71.9,17.7 71.9,103.7 10.4,103.7 10.4,105.8 74,105.8 
				74,15.6 			"/>
		</g>
		<polygon id="XMLID_131445_" class="st1" points="0.2,97 10.2,105.7 10.4,96.9 		"/>
		<g id="XMLID_131440_">
			<path id="XMLID_131444_" class="st2" d="M60.2,8.7H45.3c-0.7,3.3-3.6,5.8-7.1,5.8c-3.5,0-6.4-2.5-7.1-5.8H16.2
				c-2,0-3.5,1.6-3.5,3.5v5.9h51.1v-5.9C63.7,10.3,62.2,8.7,60.2,8.7z"/>
			<path id="XMLID_131441_" d="M38.2,0c-4,0-7.3,3.3-7.3,7.3c0,0.5,0,1,0.1,1.4c0.7,3.3,3.6,5.8,7.1,5.8c3.5,0,6.4-2.5,7.1-5.8
				c0.1-0.5,0.1-0.9,0.1-1.4C45.5,3.3,42.2,0,38.2,0z M38.2,10.4c-1.2,0-2.2-0.7-2.7-1.7c-0.2-0.4-0.4-0.9-0.4-1.4
				c0-1.7,1.4-3.1,3.1-3.1c1.7,0,3.1,1.4,3.1,3.1c0,0.5-0.1,1-0.4,1.4C40.4,9.7,39.4,10.4,38.2,10.4z"/>
		</g>
		<g id="XMLID_131428_">
			<g id="XMLID_131436_">
				<rect id="XMLID_131439_" x="18.2" y="34.2" width="50.3" height="2.6"/>
				<rect id="XMLID_131438_" x="18.2" y="56.3" width="50.3" height="2.6"/>
				<rect id="XMLID_131437_" x="18.2" y="78.4" width="50.3" height="2.6"/>
			</g>
			<g id="XMLID_131429_">
				<g id="XMLID_131434_">
					<path id="XMLID_131435_" d="M10.2,41.3c-0.3,0-0.6-0.1-0.9-0.4l-2-2.1c-0.5-0.5-0.4-1.2,0-1.7c0.5-0.5,1.2-0.4,1.7,0l1,1.1
						l3.5-4.3c0.4-0.5,1.2-0.6,1.7-0.2c0.5,0.4,0.6,1.2,0.2,1.7l-4.4,5.3C10.9,41.2,10.6,41.3,10.2,41.3
						C10.2,41.3,10.2,41.3,10.2,41.3L10.2,41.3z"/>
				</g>
				<g id="XMLID_131432_">
					<path id="XMLID_131433_" d="M10.2,61.5c-0.3,0-0.6-0.1-0.9-0.4l-2-2.1c-0.5-0.5-0.4-1.2,0-1.7c0.5-0.5,1.2-0.4,1.7,0l1,1.1
						l3.5-4.3c0.4-0.5,1.2-0.6,1.7-0.2c0.5,0.4,0.6,1.2,0.2,1.7L11.1,61C10.9,61.3,10.6,61.5,10.2,61.5
						C10.2,61.5,10.2,61.5,10.2,61.5L10.2,61.5z"/>
				</g>
				<g id="XMLID_131430_">
					<path id="XMLID_131431_" d="M10.2,81.6c-0.3,0-0.6-0.1-0.9-0.4l-2-2.1c-0.5-0.5-0.4-1.2,0-1.7c0.5-0.5,1.2-0.4,1.7,0l1,1.1
						l3.5-4.3c0.4-0.5,1.2-0.6,1.7-0.2c0.5,0.4,0.6,1.2,0.2,1.7l-4.4,5.3C10.9,81.4,10.6,81.6,10.2,81.6
						C10.2,81.6,10.2,81.6,10.2,81.6L10.2,81.6z"/>
				</g>
			</g>
		</g>
	</g>
</g>
</svg>
