<?xml version="1.0" encoding="utf-8"?>
<!-- Generator: Adobe Illustrator 19.0.0, SVG Export Plug-In . SVG Version: 6.00 Build 0)  -->
<svg version="1.1" id="Capa_1" xmlns="http://www.w3.org/2000/svg" xmlns:xlink="http://www.w3.org/1999/xlink" x="0px" y="0px"
	 viewBox="0 0 96.7 96.7" style="enable-background:new 0 0 96.7 96.7;" xml:space="preserve">
<path id="XMLID_131488_" d="M48.3,96.7c-6.5,0-12.9-1.3-18.8-3.8c-5.8-2.4-10.9-5.9-15.4-10.4c-4.4-4.4-7.9-9.6-10.4-15.4
	C1.3,61.2,0,54.9,0,48.3c0-6.5,1.3-12.9,3.8-18.8c2.4-5.8,5.9-10.9,10.4-15.4c4.4-4.4,9.6-7.9,15.4-10.4C35.5,1.3,41.8,0,48.3,0
	c6.5,0,12.9,1.3,18.8,3.8c5.8,2.4,10.9,5.9,15.4,10.4c4.4,4.4,7.9,9.6,10.4,15.4c2.5,6,3.8,12.3,3.8,18.8c0,6.5-1.3,12.9-3.8,18.8
	c-2.4,5.8-5.9,10.9-10.4,15.4c-4.4,4.4-9.6,7.9-15.4,10.4C61.2,95.4,54.9,96.7,48.3,96.7z M50.1,93.1l2.3-0.9c0.1,0,0.2-0.1,0.2-0.1
	l0.1,0c0.2-0.1,0.4-0.2,0.6-0.3c0,0,0.1,0,0.1,0l0,0l0,0l0,0c0.2-0.1,0.3-0.2,0.5-0.3l0.2-0.1c0.2-0.1,0.4-0.2,0.6-0.3l0,0
	c0.2-0.1,0.4-0.3,0.6-0.4l0.2-0.1c0.2-0.1,0.3-0.2,0.5-0.3c0.1,0,0.1-0.1,0.2-0.1c0.2-0.1,0.4-0.3,0.6-0.4c0,0,0.1,0,0.1-0.1
	c0.2-0.1,0.3-0.3,0.5-0.4l0.2-0.2c0.1-0.1,0.3-0.3,0.4-0.4l0.1-0.1c0.2-0.2,0.4-0.4,0.5-0.5l0.1-0.2c0.1-0.1,0.3-0.3,0.4-0.4
	c0.1-0.1,0.1-0.1,0.2-0.2c0.1-0.1,0.3-0.3,0.4-0.5l0,0c0,0,0.1-0.1,0.1-0.1c0.1-0.2,0.3-0.4,0.5-0.6c0,0,0.1-0.1,0.1-0.2l0-0.1
	c0.1-0.1,0.2-0.3,0.3-0.5c0-0.1,0.1-0.2,0.2-0.2c0.1-0.2,0.3-0.4,0.4-0.6l0.1-0.2c0.1-0.2,0.3-0.4,0.4-0.6c0.1-0.1,0.1-0.2,0.2-0.3
	c0.1-0.2,0.2-0.3,0.3-0.5c0-0.1,0.1-0.2,0.2-0.3l0,0c0.1-0.2,0.3-0.5,0.4-0.7l0.1-0.3c0.1-0.2,0.2-0.4,0.3-0.5
	c0.1-0.1,0.1-0.2,0.2-0.4c0.1-0.2,0.2-0.3,0.3-0.5l0,0c0-0.1,0.1-0.2,0.1-0.3c0.1-0.3,0.3-0.5,0.4-0.8l0.2-0.4
	c0.1-0.2,0.2-0.3,0.2-0.5l0.2-0.4c0.1-0.1,0.1-0.3,0.2-0.4l0.1-0.1c0.1-0.2,0.1-0.3,0.2-0.5l0.2-0.6l0.7-1.8l-2.2-0.4
	c-0.2,0-0.3-0.1-0.5-0.1c-0.2,0-0.3-0.1-0.5-0.1c-0.7-0.1-1.4-0.2-2.1-0.4c-0.1,0-0.3,0-0.4-0.1l0,0c-0.6-0.1-1.3-0.2-1.9-0.3
	l-0.1,0c-0.1,0-0.2,0-0.3,0c-0.7-0.1-1.4-0.2-2.2-0.2l-0.5,0c-0.8-0.1-1.4-0.1-2.1-0.2l-0.2,0c-0.5,0-0.9,0-1.4-0.1l-2-0.1V93.1z
	 M44,92.2c0.1,0,0.2,0.1,0.3,0.1l2.3,0.9V72.5l-2,0.1c-0.5,0-0.9,0-1.4,0.1l-0.3,0c-0.6,0-1.3,0.1-2,0.2l-0.5,0
	c-0.8,0.1-1.5,0.1-2.1,0.2c-0.1,0-0.2,0-0.4,0l-0.1,0c-0.6,0.1-1.2,0.2-1.8,0.2c0,0-0.4,0.1-0.5,0.1c-0.7,0.1-1.3,0.2-2,0.3
	c-0.1,0-0.6,0.1-0.6,0.1c-0.2,0-0.3,0.1-0.5,0.1l-2.1,0.4l0.8,2c0.1,0.2,0.2,0.4,0.2,0.6l0,0.1c0.1,0.3,0.2,0.6,0.4,0.8l0.1,0.3
	c0.1,0.2,0.2,0.4,0.3,0.7l0.1,0.3c0.1,0.3,0.3,0.5,0.4,0.8l0.1,0.2c0.1,0.2,0.2,0.4,0.3,0.6c0,0.1,0.2,0.3,0.2,0.3
	c0.1,0.2,0.2,0.4,0.3,0.6l0.1,0.2c0.1,0.3,0.3,0.5,0.4,0.7l0.2,0.3c0.1,0.2,0.2,0.4,0.3,0.5l0.2,0.3c0.1,0.2,0.3,0.4,0.4,0.6
	c0,0.1,0.1,0.2,0.1,0.2c0.1,0.2,0.3,0.4,0.4,0.6l0.2,0.2c0.1,0.2,0.2,0.3,0.4,0.5l0,0c0,0.1,0.1,0.1,0.1,0.2
	c0.2,0.2,0.3,0.4,0.5,0.6c0,0,0.1,0.1,0.1,0.1c0.1,0.2,0.3,0.3,0.4,0.5c0,0.1,0.1,0.1,0.1,0.1l0,0c0.1,0.2,0.3,0.3,0.4,0.5l0.1,0.1
	c0.2,0.2,0.4,0.4,0.6,0.6l0.1,0.1c0.1,0.1,0.3,0.3,0.4,0.4l0.2,0.1c0.2,0.2,0.3,0.3,0.5,0.4l0.1,0c0.2,0.2,0.4,0.3,0.6,0.5l0.1,0.1
	c0.2,0.1,0.3,0.3,0.5,0.4l0.1,0.1c0.4,0.3,0.8,0.5,1.2,0.8c0,0,0.1,0.1,0.1,0.1c0.2,0.1,0.3,0.2,0.5,0.3c0,0,0.1,0,0.1,0
	C43.6,92,43.8,92.1,44,92.2L44,92.2z M25.2,86.6c0.1,0.1,0.3,0.2,0.4,0.3c1,0.6,2,1.1,3.1,1.6c0.1,0.1,0.3,0.1,0.4,0.2
	c0.6,0.3,1.2,0.5,1.8,0.8l5.4,2.3l-3.4-4.7c0,0-0.2-0.2-0.2-0.2c-0.2-0.2-0.3-0.5-0.5-0.7L32,85.8c-0.2-0.2-0.3-0.5-0.5-0.7
	l-0.2-0.4c-0.2-0.3-0.4-0.6-0.5-0.9c0,0-0.1-0.2-0.1-0.2c-0.2-0.4-0.4-0.8-0.7-1.2l0-0.1l0,0c-0.2-0.4-0.4-0.8-0.6-1.2l-0.2-0.4
	c-0.1-0.3-0.3-0.6-0.4-0.9c-0.1-0.2-0.1-0.3-0.2-0.4c-0.1-0.3-0.3-0.6-0.4-1l-0.2-0.4c-0.1-0.3-0.3-0.7-0.4-1l-0.1-0.3l-0.5-1.4
	c0,0-1.7,0.5-1.8,0.6c-0.3,0.1-0.7,0.2-1,0.3c-0.3,0.1-0.6,0.2-0.9,0.3c-0.3,0.1-0.6,0.2-0.9,0.3c-0.3,0.1-0.6,0.2-0.9,0.3
	c-0.3,0.1-0.6,0.2-0.9,0.3c-0.3,0.1-0.6,0.2-0.9,0.4c-0.3,0.1-0.6,0.3-0.9,0.4l-0.4,0.2l-2.2,1l1.8,1.6c1.4,1.3,2.8,2.5,4.3,3.6
	C23.1,85.3,24.2,86,25.2,86.6L25.2,86.6z M69.3,76.6L69.2,77c-0.1,0.3-0.3,0.6-0.4,0.9c-0.1,0.1-0.1,0.2-0.2,0.4l-0.1,0.2
	c-0.1,0.3-0.2,0.6-0.4,0.8c-0.1,0.2-0.1,0.3-0.2,0.4l0,0.1c-0.1,0.3-0.3,0.6-0.4,0.8l0,0.1c-0.1,0.1-0.1,0.3-0.2,0.4
	c-0.2,0.3-0.3,0.7-0.5,1c0,0.1-0.1,0.1-0.1,0.2c-0.2,0.4-0.4,0.8-0.7,1.2l-0.2,0.3c-0.2,0.3-0.3,0.6-0.5,0.8
	c-0.1,0.1-0.2,0.3-0.2,0.4c-0.2,0.3-0.3,0.5-0.5,0.7l-0.3,0.4c-0.2,0.2-0.3,0.5-0.5,0.7c0,0-0.1,0.2-0.2,0.2l-3.4,4.7l5.3-2.2
	c0.4-0.2,0.9-0.4,1.4-0.6c4.3-2,8.3-4.7,11.8-7.9l1.7-1.6l-2.3-1.1c-0.1,0-0.2-0.1-0.3-0.1c-0.3-0.1-0.5-0.2-0.8-0.4
	c-0.3-0.1-0.6-0.2-0.9-0.4c-0.3-0.1-0.6-0.2-0.9-0.3c-0.3-0.1-0.6-0.2-0.9-0.3c-0.3-0.1-0.6-0.2-0.9-0.3c-0.3-0.1-0.7-0.2-1-0.3
	c-0.3-0.1-0.6-0.2-0.9-0.3c-0.2-0.1-0.3-0.1-0.5-0.1l-1.4-0.4L69.3,76.6z M3.8,51.8c0.3,4.3,1.3,8.5,2.8,12.5
	c1.6,4.1,3.7,7.9,6.3,11.3l0.8,1.1l1.2-0.6c0.2-0.1,0.5-0.2,0.7-0.4l0.2-0.1c0.5-0.2,1-0.5,1.6-0.7l0.4-0.2c0.5-0.2,1.1-0.5,1.6-0.7
	l0.1,0c0.5-0.2,1-0.4,1.6-0.6c0,0,0.3-0.1,0.3-0.1c0.6-0.2,1.2-0.4,1.8-0.6c0,0,0.3-0.1,0.3-0.1l0.2-0.1c0.1,0,0.2-0.1,0.4-0.1
	l1.6-0.5v0l0,0l-0.4-1.6l0-0.1c-0.2-0.6-0.3-1.1-0.4-1.7l-0.1-0.4c-0.2-0.7-0.3-1.4-0.4-2c0,0-0.1-0.3-0.1-0.4
	c-0.1-0.6-0.2-1.2-0.3-1.8c0,0-0.1-0.3-0.1-0.4c-0.1-0.7-0.2-1.4-0.3-2.1l0-0.1c0-0.1,0-0.1,0-0.2c-0.1-0.6-0.2-1.2-0.2-1.8
	l-0.1-0.5c-0.1-0.8-0.2-1.5-0.2-2.1c0-0.1,0-0.1,0-0.2l0-0.1c-0.1-0.6-0.1-1.2-0.1-1.9c0-0.2,0-0.4,0-0.6l0,0c0-0.7-0.1-1.4-0.1-2.1
	l-0.1-1.6l-1.6,0H3.7L3.8,51.8z M71,71.9l1.5,0.5c0.1,0,0.3,0.1,0.4,0.1l0.2,0.1c0.1,0,0.2,0.1,0.3,0.1c0.6,0.2,1.2,0.4,1.7,0.6
	l0.4,0.1c0.5,0.2,1,0.4,1.5,0.6l0.2,0.1c0.5,0.2,1,0.4,1.6,0.7l0.4,0.2c0.5,0.2,1,0.5,1.5,0.7c0.1,0,0.2,0.1,0.2,0.1l0.2,0.1
	c0.2,0.1,0.4,0.2,0.6,0.3l1.2,0.6l0.8-1c0.1-0.1,0.2-0.3,0.3-0.4l0-0.1c0.7-1,1.4-2,2.1-3c0.6-0.9,1.1-1.8,1.6-2.7l0.3-0.5
	c0,0,0.2-0.5,0.3-0.6c1.7-3.5,3-7.2,3.8-11.1c0.2-0.9,0.3-1.8,0.5-2.7c0.1-0.9,0.2-1.8,0.3-2.7l0.1-1.7H74.3l-0.1,1.5v0.1
	c0,0.6-0.1,1.3-0.1,2.1l0,0.2c0,0.1,0,0.3,0,0.4c0,0.6-0.1,1.2-0.1,1.8c0,0,0,0.3,0,0.4c-0.1,0.6-0.1,1.3-0.2,2.1
	c0,0.1-0.1,0.6-0.1,0.6c-0.1,0.6-0.1,1.2-0.2,1.7l-0.1,0.4c-0.1,0.6-0.2,1.3-0.3,2L72.8,64c-0.1,0.6-0.2,1.2-0.3,1.7l-0.1,0.4
	c-0.1,0.7-0.3,1.3-0.4,2c0,0-0.1,0.3-0.1,0.4c-0.1,0.5-0.3,1.1-0.4,1.7c0,0,0,0.1,0,0.2L71,71.9L71,71.9L71,71.9z M26.4,56.5
	c0.1,0.6,0.1,1.2,0.2,2c0,0.1,0,0.3,0.1,0.4c0.2,1.4,0.4,2.7,0.6,4.1c0,0.1,0.1,0.4,0.1,0.4c0.1,0.7,0.2,1.3,0.4,1.8l0,0.2
	c0.1,0.6,0.3,1.2,0.4,1.9l0.1,0.5c0.1,0.5,0.3,1,0.4,1.6l0.4,1.7l1.5-0.3c0.6-0.1,1.2-0.2,1.8-0.4l0.2,0c0.7-0.1,1.4-0.2,2.1-0.4
	c0.2,0,0.4-0.1,0.5-0.1c1.5-0.2,3.1-0.4,4.7-0.6c0.1,0,0.6-0.1,0.6-0.1c0.7-0.1,1.4-0.1,2-0.2l0.4,0c0.7,0,1.4-0.1,2-0.1l1.5-0.1
	V50.1H26l0,1.7c0,0,0,0.2,0,0.2c0,0.6,0.1,1.3,0.1,1.9l0,0.4c0,0.7,0.1,1.4,0.2,2.1L26.4,56.5z M50.1,69l1.5,0.1
	c0.6,0,1.3,0.1,2,0.1c0.1,0,0.5,0,0.5,0c0.7,0,1.3,0.1,1.9,0.1c0.2,0,0.5,0,0.7,0.1c0.8,0.1,1.6,0.2,2.3,0.2c0.1,0,0.2,0,0.2,0
	c0.7,0.1,1.4,0.2,2.1,0.3c0.2,0,0.3,0,0.5,0.1l0.2,0c0.7,0.1,1.3,0.2,1.9,0.3c0,0,0.3,0.1,0.4,0.1c0.6,0.1,1.2,0.2,1.8,0.4l1.5,0.3
	l0.4-1.6c0.1-0.6,0.3-1.1,0.4-1.8l0.1-0.4c0.2-0.8,0.3-1.4,0.4-2l0-0.1c0.1-0.6,0.2-1.2,0.3-1.8l0.1-0.5c0.1-0.5,0.2-1.3,0.3-2
	l0-0.1c0.1-0.6,0.2-1.3,0.3-1.9l0.1-0.6c0.1-0.6,0.1-1.2,0.2-1.8c0,0,0-0.2,0-0.3c0.1-0.6,0.1-1.3,0.2-2c0-0.2,0-0.4,0-0.6
	c0-0.5,0.1-1.1,0.1-1.6l0.1-2H50.1V69z M81.7,20.6c-0.2,0.1-0.4,0.2-0.5,0.3c0,0-0.4,0.2-0.4,0.2c-0.4,0.2-0.9,0.4-1.5,0.7
	c-0.1,0-0.4,0.2-0.4,0.2c-0.6,0.2-1.1,0.5-1.6,0.7l-0.1,0.1c-0.5,0.2-1,0.4-1.6,0.6l-0.3,0.1c-0.6,0.2-1.2,0.4-1.7,0.6l-0.6,0.2
	c-0.1,0-0.3,0.1-0.4,0.1L71,24.8l0.4,1.5l0.1,0.3c0.1,0.6,0.3,1.1,0.4,1.7l0.1,0.4c0.2,0.6,0.3,1.3,0.4,2c0,0,0.1,0.3,0.1,0.4
	c0.1,0.5,0.2,1.1,0.3,1.7l0.1,0.5c0.1,0.7,0.2,1.4,0.3,2c0,0.1,0,0.3,0.1,0.4c0.1,0.6,0.2,1.2,0.2,1.8l0,0.2c0,0.1,0,0.3,0.1,0.4
	c0.1,0.8,0.2,1.5,0.2,2.1c0,0.1,0,0.4,0,0.4c0.1,0.6,0.1,1.2,0.1,1.8l0,0.6c0,0.8,0.1,1.5,0.1,2.1v0.1l0.1,1.5l1.5,0H93l-0.1-1.7
	c-0.3-4.3-1.3-8.5-2.8-12.5c-1.6-4.1-3.7-7.9-6.3-11.3L82.9,20L81.7,20.6z M66.1,26c-4.6,1-9.5,1.5-14.4,1.7l-1.5,0.1v18.9h20.6
	l-0.1-1.9c0-0.6-0.1-1.3-0.1-1.9c0-0.2,0-0.3,0-0.5c-0.1-0.7-0.1-1.4-0.2-2.1l0-0.1c-0.1-0.6-0.1-1.2-0.2-2c0,0,0-0.4-0.1-0.5
	c-0.1-0.7-0.2-1.3-0.2-1.9l0-0.1c-0.1-0.6-0.2-1.3-0.3-2l-0.1-0.5c-0.1-0.6-0.2-1.2-0.3-1.8l0-0.2c-0.1-0.7-0.3-1.3-0.4-1.9
	c0-0.2-0.1-0.3-0.1-0.4c-0.1-0.6-0.3-1.1-0.4-1.6l-0.4-1.7L66.1,26z M26.4,40.3c-0.1,0.6-0.1,1.3-0.2,2.1l0,0.5
	c0,0.6-0.1,1.3-0.1,1.9L26,46.6l1.7,0h18.9V27.7l-1.6,0c-0.7,0-1.5-0.1-2-0.1c-0.1,0-0.2,0-0.3,0c-0.7,0-1.4-0.1-2.2-0.2
	c-0.2,0-0.4,0-0.6-0.1c-0.9-0.1-1.7-0.2-2.4-0.2l-0.1,0c-0.7-0.1-1.4-0.2-2.2-0.3c-0.2,0-0.3,0-0.5-0.1l-0.2,0
	c-0.7-0.1-1.3-0.2-2-0.3l-0.4-0.1c-0.6-0.1-1.2-0.2-1.8-0.4l-1.5-0.3l-0.4,1.5c0,0.1,0,0.2-0.1,0.2c-0.1,0.5-0.3,1-0.4,1.5l-0.1,0.5
	c-0.2,0.7-0.3,1.3-0.4,1.9l0,0.2c-0.1,0.6-0.2,1.2-0.3,1.8c0,0.1-0.1,0.3-0.1,0.4c-0.2,1.3-0.4,2.7-0.6,4.1l-0.1,0.4
	C26.5,38.8,26.4,39.5,26.4,40.3L26.4,40.3z M12.9,21.1c-2.7,3.4-4.8,7.2-6.3,11.3c-1.5,4-2.5,8.2-2.8,12.5l-0.1,1.7h18.9l0.1-1.5
	l0-0.1c0-0.6,0.1-1.3,0.1-2.1l0-0.6c0-0.6,0.1-1.2,0.1-1.8c0,0,0-0.3,0-0.3c0.1-0.7,0.1-1.4,0.2-2.1c0-0.1,0.1-0.5,0.1-0.5
	c0.1-0.6,0.2-1.2,0.2-1.8l0-0.3c0.1-0.7,0.2-1.4,0.3-2.1c0-0.1,0.1-0.3,0.1-0.4c0.1-0.6,0.2-1.2,0.3-1.8c0,0,0.1-0.3,0.1-0.4
	c0.1-0.6,0.3-1.3,0.4-2l0.1-0.4c0.1-0.6,0.3-1.1,0.4-1.7c0,0,0-0.1,0-0.1l0.4-1.6l0,0l0,0l-1.6-0.5c-0.1,0-0.2-0.1-0.3-0.1L23.2,24
	c-0.6-0.2-1.2-0.4-1.7-0.6l-0.4-0.1c-0.6-0.2-1.1-0.4-1.6-0.6l-0.2-0.1c-0.5-0.2-1-0.4-1.6-0.7c-0.1-0.1-0.3-0.1-0.4-0.2
	c-0.5-0.2-1-0.5-1.5-0.7c-0.1,0-0.4-0.2-0.4-0.2c-0.2-0.1-0.4-0.2-0.6-0.3L13.8,20L12.9,21.1z M32.1,17.8c-0.1,0.3-0.2,0.5-0.4,0.8
	c0,0.1-0.1,0.1-0.1,0.2c-0.2,0.5-0.5,1.1-0.7,1.7l-0.7,1.8l2.1,0.4c0.2,0,0.3,0.1,0.5,0.1l0.5,0.1c0.7,0.1,1.4,0.2,2.1,0.3
	c0.2,0,0.3,0.1,0.5,0.1c0.6,0.1,1.2,0.2,1.8,0.3l0.4,0.1c0.7,0.1,1.5,0.2,2.2,0.2c0.1,0,0.5,0,0.5,0c0.8,0.1,1.5,0.1,2.1,0.2l0.2,0
	c0.5,0,1,0.1,1.5,0.1l1.9,0.1V3.6l-2.2,0.8c-0.1,0-0.2,0.1-0.3,0.1l0,0l-0.1,0c-0.2,0.1-0.4,0.2-0.6,0.3c0,0-0.1,0-0.1,0
	c-0.2,0.1-0.4,0.2-0.6,0.3c0,0-0.1,0-0.1,0.1c-0.4,0.2-0.9,0.5-1.3,0.8l-0.1,0.1c-0.2,0.1-0.3,0.2-0.5,0.4c0,0-0.1,0.1-0.1,0.1
	C40.4,6.7,40.2,6.8,40,7L39.9,7l0,0c-0.2,0.1-0.3,0.3-0.5,0.4l-0.2,0.1C39.1,7.8,39,7.9,38.8,8c0,0-0.1,0.1-0.1,0.1
	c-0.2,0.2-0.4,0.3-0.5,0.5L38,8.8c-0.2,0.2-0.3,0.3-0.5,0.5c-0.1,0.1-0.1,0.1-0.2,0.2C37.3,9.6,37.1,9.8,37,10c0,0-0.1,0.1-0.1,0.1
	c-0.2,0.2-0.3,0.4-0.5,0.6c0,0.1-0.1,0.1-0.1,0.2c-0.1,0.2-0.3,0.3-0.4,0.5c0,0.1-0.1,0.1-0.1,0.2c-0.3,0.5-0.7,0.9-1,1.5l-0.1,0.2
	c-0.1,0.2-0.2,0.4-0.4,0.6c0,0-0.1,0.1-0.1,0.2c-0.2,0.3-0.3,0.5-0.5,0.8c0,0-0.1,0.1-0.1,0.1c-0.1,0.2-0.3,0.5-0.4,0.7l-0.1,0.2
	c-0.1,0.2-0.3,0.5-0.4,0.7l-0.1,0.1c-0.1,0.3-0.3,0.6-0.4,0.9C32.2,17.7,32.1,17.8,32.1,17.8z M50.1,24.2l1.7-0.1
	c4.4-0.2,8.7-0.7,12.8-1.5l1.9-0.4l-0.7-1.8C62.3,12,57.5,6.3,52.2,4.4l-2.2-0.8V24.2z M31,7.2c-0.4,0.2-0.9,0.4-1.4,0.6
	c-4.3,2-8.3,4.7-11.8,7.9l-1.7,1.6l2.2,1c0.1,0.1,0.2,0.1,0.4,0.2c0.3,0.1,0.6,0.3,0.9,0.4c0.3,0.1,0.6,0.2,0.8,0.3
	c0.3,0.1,0.6,0.2,0.9,0.4c0.3,0.1,0.6,0.2,0.9,0.3c0.3,0.1,0.6,0.2,0.9,0.3c0.3,0.1,0.6,0.2,0.9,0.3c0.3,0.1,0.7,0.2,1,0.3
	c0.1,0,0.4,0.1,0.4,0.1l1.4,0.4l0.5-1.4c0-0.1,0-0.1,0.1-0.2l0.1-0.2c0.1-0.3,0.3-0.6,0.4-0.9c0.1-0.1,0.2-0.5,0.2-0.5
	c0.1-0.3,0.3-0.6,0.4-0.9l0,0c0.1-0.1,0.1-0.3,0.2-0.4c0.1-0.3,0.3-0.6,0.4-0.9l0.1-0.1c0-0.1,0.1-0.2,0.1-0.3
	c0.2-0.4,0.4-0.8,0.6-1.2l0-0.1c0.2-0.4,0.4-0.8,0.7-1.2l0.1-0.2c0.2-0.3,0.4-0.6,0.6-0.9c0,0,0.2-0.3,0.2-0.3
	c0.2-0.2,0.3-0.5,0.5-0.8c0.1-0.1,0.1-0.2,0.2-0.3c0.2-0.3,0.4-0.5,0.5-0.8l0.1-0.2l3.5-4.7L31,7.2z M63.8,9.6
	c2.1,2.9,4,6.5,5.5,10.5l0.5,1.4c0,0,1.7-0.5,1.9-0.6c0.3-0.1,0.7-0.2,1-0.3c0.3-0.1,0.6-0.2,0.9-0.3c0.3-0.1,0.7-0.2,1-0.4
	c0.3-0.1,0.6-0.2,0.8-0.3c0.3-0.1,0.6-0.2,0.9-0.4c0.3-0.1,0.6-0.2,0.9-0.4c0.3-0.1,0.6-0.2,0.8-0.4c0.1-0.1,0.3-0.1,0.4-0.2l2.1-1
	l-1.7-1.6c-3.5-3.2-7.4-5.9-11.8-7.9c-0.5-0.2-0.9-0.4-1.4-0.6l-5.3-2.2L63.8,9.6z"/>
</svg>
