<?xml version="1.0" encoding="utf-8"?>
<!-- Generator: Adobe Illustrator 19.0.0, SVG Export Plug-In . SVG Version: 6.00 Build 0)  -->
<svg version="1.1" id="Capa_1" xmlns="http://www.w3.org/2000/svg" xmlns:xlink="http://www.w3.org/1999/xlink" x="0px" y="0px"
	 viewBox="0 0 116.7 93.1" style="enable-background:new 0 0 116.7 93.1;" xml:space="preserve">
<style type="text/css">
	.st0{fill-rule:evenodd;clip-rule:evenodd;fill:#F1F4F4;stroke:#231F20;stroke-width:2.225;stroke-miterlimit:10;}
	.st1{fill-rule:evenodd;clip-rule:evenodd;fill:#AACECE;stroke:#231F20;stroke-width:2.225;stroke-miterlimit:10;}
	.st2{fill:#FFFFFF;}
</style>
<g id="XMLID_131532_">
	<path id="XMLID_131539_" class="st0" d="M115.6,26c0-13.7-14.8-24.8-33-24.8c-18.2,0-33,11.2-33,24.8c0,13.7,14.8,24.9,33,24.9
		c1.7,0,3.3-0.1,4.9-0.3l11.3,14.9l-2.9-16.7C107.4,44.8,115.6,36.1,115.6,26z"/>
	<g id="XMLID_131533_">
		<path id="XMLID_131538_" class="st1" d="M34.2,24.5c-18.2,0-33,11.2-33,24.8c0,10.1,8.1,18.9,19.7,22.7L18,88.8l11.3-14.9
			c1.6,0.2,3.2,0.3,4.9,0.3c18.2,0,33-11.2,33-24.9C67.2,35.7,52.4,24.5,34.2,24.5z"/>
		<g id="XMLID_131534_">
			<path id="XMLID_131537_" class="st2" d="M22.3,49.5c0,2.3-1.9,4.2-4.2,4.2c-2.3,0-4.2-1.9-4.2-4.2c0-2.3,1.9-4.2,4.2-4.2
				C20.4,45.3,22.3,47.1,22.3,49.5z"/>
			<path id="XMLID_131536_" class="st2" d="M54.4,49.5c0,2.3-1.9,4.2-4.2,4.2c-2.3,0-4.2-1.9-4.2-4.2c0-2.3,1.9-4.2,4.2-4.2
				C52.5,45.3,54.4,47.1,54.4,49.5z"/>
			<path id="XMLID_131535_" class="st2" d="M38.4,49.5c0,2.3-1.9,4.2-4.2,4.2c-2.3,0-4.2-1.9-4.2-4.2c0-2.3,1.9-4.2,4.2-4.2
				C36.5,45.3,38.4,47.1,38.4,49.5z"/>
		</g>
	</g>
</g>
</svg>
