<?xml version="1.0" encoding="utf-8"?>
<!-- Generator: Adobe Illustrator 19.0.0, SVG Export Plug-In . SVG Version: 6.00 Build 0)  -->
<svg version="1.1" id="Capa_1" xmlns="http://www.w3.org/2000/svg" xmlns:xlink="http://www.w3.org/1999/xlink" x="0px" y="0px"
	 viewBox="0 0 106.3 106" style="enable-background:new 0 0 106.3 106;" xml:space="preserve">
<style type="text/css">
	.st0{fill:#AACECE;stroke:#231F20;stroke-width:2.3336;stroke-miterlimit:10;}
	.st1{fill:#FFFFFF;stroke:#231F20;stroke-width:2.3336;stroke-miterlimit:10;}
	.st2{fill:#F1F1F1;stroke:#231F20;stroke-width:2.3336;stroke-miterlimit:10;}
	.st3{fill:#E54A3F;stroke:#231F20;stroke-width:2.3336;stroke-miterlimit:10;}
	.st4{fill:#041E41;stroke:#231F20;stroke-width:2.3336;stroke-miterlimit:10;}
	.st5{fill:#231F20;}
	.st6{opacity:0.2;fill:#212121;}
</style>
<g id="XMLID_131614_">
	<path id="XMLID_131629_" class="st0" d="M43.5,104.9c-23.3,0-42.3-19-42.3-42.3c0-23.3,19-42.3,42.3-42.3c23.3,0,42.3,19,42.3,42.3
		C85.8,85.9,66.8,104.9,43.5,104.9z"/>
	<path id="XMLID_131628_" class="st1" d="M43.5,96.4c-18.7,0-33.8-15.2-33.8-33.8c0-18.7,15.2-33.8,33.8-33.8
		c18.7,0,33.8,15.2,33.8,33.8C77.3,81.2,62.1,96.4,43.5,96.4z"/>
	<path id="XMLID_131627_" class="st0" d="M43.5,87.9c-14,0-25.4-11.4-25.4-25.4c0-14,11.4-25.4,25.4-25.4c14,0,25.4,11.4,25.4,25.4
		C68.9,76.5,57.5,87.9,43.5,87.9z"/>
	<path id="XMLID_131626_" class="st2" d="M43.5,79.4c-9.3,0-16.9-7.6-16.9-16.9c0-9.3,7.6-16.9,16.9-16.9c9.3,0,16.9,7.6,16.9,16.9
		C60.4,71.9,52.8,79.4,43.5,79.4z"/>
	<path id="XMLID_131625_" class="st0" d="M51.9,62.5c0,4.6-3.8,8.4-8.4,8.4c-4.6,0-8.4-3.8-8.4-8.4c0-4.6,3.8-8.4,8.4-8.4
		C48.1,54.1,51.9,57.9,51.9,62.5z"/>
	<g id="XMLID_131621_">
		<polygon id="XMLID_131624_" class="st3" points="81.1,26.5 92.7,28.6 103.7,18 91.7,16.6 		"/>
		<polygon id="XMLID_131623_" class="st4" points="88.2,19.4 100.4,21.2 100,21.7 87.6,19.9 		"/>
		<polygon id="XMLID_131622_" class="st4" points="84.1,23.2 96.5,25 95.8,25.5 83.5,23.8 		"/>
	</g>
	<g id="XMLID_131617_">
		<polygon id="XMLID_131620_" class="st3" points="79.6,25.2 77.5,13.6 88.1,2.6 89.4,14.6 		"/>
		<polygon id="XMLID_131619_" class="st4" points="86.7,18.1 84.8,5.9 84.4,6.3 86.1,18.8 		"/>
		<polygon id="XMLID_131618_" class="st4" points="82.9,22.2 81,9.8 80.6,10.5 82.3,22.8 		"/>
	</g>
	<path id="XMLID_131616_" class="st5" d="M44.7,63.8L44.7,63.8c-0.3,0.3-0.8,0.5-1.3,0.5c-1,0-1.8-0.8-1.8-1.8c0-0.6,0.2-1,0.6-1.4
		v0l47.1-46.9l2.4,2.4L44.7,63.8z"/>
	<path id="XMLID_131615_" class="st6" d="M15.3,31.2c-1.2,0.9-1.3,1.2-2.8,2.6l29.4,29.5l1.3-1.5l1.2-1.1L15.3,31.2z"/>
</g>
</svg>
