<?xml version="1.0" encoding="utf-8"?>
<!-- Generator: Adobe Illustrator 19.0.0, SVG Export Plug-In . SVG Version: 6.00 Build 0)  -->
<svg version="1.1" id="Capa_1" xmlns="http://www.w3.org/2000/svg" xmlns:xlink="http://www.w3.org/1999/xlink" x="0px" y="0px"
	 viewBox="0 0 387.1 6.6" style="enable-background:new 0 0 387.1 6.6;" xml:space="preserve">
<style type="text/css">
	.st0{fill:#E54A3F;}
	.st1{fill:#604F51;}
</style>
<g id="XMLID_86_">
	<circle id="XMLID_2982_" class="st0" cx="383.8" cy="3.3" r="3.3"/>
	<circle id="XMLID_2981_" class="st0" cx="3.3" cy="3.3" r="3.3"/>
	<g id="XMLID_2948_">
		<g id="XMLID_2965_">
			<circle id="XMLID_2980_" class="st1" cx="208.4" cy="3.3" r="1.7"/>
			<circle id="XMLID_2979_" class="st1" cx="188.3" cy="3.3" r="1.7"/>
			<circle id="XMLID_2978_" class="st1" cx="168.3" cy="3.3" r="1.7"/>
			<circle id="XMLID_2977_" class="st1" cx="148.2" cy="3.3" r="1.7"/>
			<circle id="XMLID_2976_" class="st1" cx="128.1" cy="3.3" r="1.7"/>
			<circle id="XMLID_2975_" class="st1" cx="201.7" cy="3.3" r="1.7"/>
			<circle id="XMLID_2974_" class="st1" cx="181.6" cy="3.3" r="1.7"/>
			<circle id="XMLID_2973_" class="st1" cx="161.6" cy="3.3" r="1.7"/>
			<circle id="XMLID_2972_" class="st1" cx="141.5" cy="3.3" r="1.7"/>
			<circle id="XMLID_2971_" class="st1" cx="121.5" cy="3.3" r="1.7"/>
			<circle id="XMLID_2970_" class="st1" cx="195" cy="3.3" r="1.7"/>
			<circle id="XMLID_2969_" class="st1" cx="174.9" cy="3.3" r="1.7"/>
			<circle id="XMLID_2968_" class="st1" cx="154.9" cy="3.3" r="1.7"/>
			<circle id="XMLID_2967_" class="st1" cx="134.8" cy="3.3" r="1.7"/>
			<circle id="XMLID_2966_" class="st1" cx="114.8" cy="3.3" r="1.7"/>
		</g>
		<g id="XMLID_2949_">
			<circle id="XMLID_2964_" class="st1" cx="107.1" cy="3.3" r="1.7"/>
			<circle id="XMLID_2963_" class="st1" cx="87" cy="3.3" r="1.7"/>
			<circle id="XMLID_2962_" class="st1" cx="67" cy="3.3" r="1.7"/>
			<circle id="XMLID_2961_" class="st1" cx="46.9" cy="3.3" r="1.7"/>
			<circle id="XMLID_2960_" class="st1" cx="26.8" cy="3.3" r="1.7"/>
			<circle id="XMLID_2959_" class="st1" cx="100.4" cy="3.3" r="1.7"/>
			<circle id="XMLID_2958_" class="st1" cx="80.3" cy="3.3" r="1.7"/>
			<circle id="XMLID_2957_" class="st1" cx="60.3" cy="3.3" r="1.7"/>
			<circle id="XMLID_2956_" class="st1" cx="40.2" cy="3.3" r="1.7"/>
			<circle id="XMLID_2955_" class="st1" cx="20.2" cy="3.3" r="1.7"/>
			<circle id="XMLID_2954_" class="st1" cx="93.7" cy="3.3" r="1.7"/>
			<circle id="XMLID_2953_" class="st1" cx="73.7" cy="3.3" r="1.7"/>
			<circle id="XMLID_2952_" class="st1" cx="53.6" cy="3.3" r="1.7"/>
			<circle id="XMLID_2951_" class="st1" cx="33.5" cy="3.3" r="1.7"/>
			<circle id="XMLID_2950_" class="st1" cx="13.5" cy="3.3" r="1.7"/>
		</g>
	</g>
	<g id="XMLID_90_">
		<g id="XMLID_14122_">
			<circle id="XMLID_19198_" class="st1" cx="369.7" cy="3.3" r="1.7"/>
			<circle id="XMLID_19197_" class="st1" cx="349.7" cy="3.3" r="1.7"/>
			<circle id="XMLID_19196_" class="st1" cx="329.6" cy="3.3" r="1.7"/>
			<circle id="XMLID_14142_" class="st1" cx="363" cy="3.3" r="1.7"/>
			<circle id="XMLID_14138_" class="st1" cx="343" cy="3.3" r="1.7"/>
			<circle id="XMLID_14137_" class="st1" cx="322.9" cy="3.3" r="1.7"/>
			<circle id="XMLID_14134_" class="st1" cx="376.4" cy="3.3" r="1.7"/>
			<circle id="XMLID_14131_" class="st1" cx="356.4" cy="3.3" r="1.7"/>
			<circle id="XMLID_14130_" class="st1" cx="336.3" cy="3.3" r="1.7"/>
			<circle id="XMLID_14123_" class="st1" cx="316.2" cy="3.3" r="1.7"/>
		</g>
		<g id="XMLID_91_">
			<circle id="XMLID_14120_" class="st1" cx="308.6" cy="3.3" r="1.7"/>
			<circle id="XMLID_14110_" class="st1" cx="288.5" cy="3.3" r="1.7"/>
			<circle id="XMLID_14109_" class="st1" cx="268.4" cy="3.3" r="1.7"/>
			<circle id="XMLID_13812_" class="st1" cx="248.4" cy="3.3" r="1.7"/>
			<circle id="XMLID_13811_" class="st1" cx="228.3" cy="3.3" r="1.7"/>
			<circle id="XMLID_316_" class="st1" cx="301.9" cy="3.3" r="1.7"/>
			<circle id="XMLID_315_" class="st1" cx="281.8" cy="3.3" r="1.7"/>
			<circle id="XMLID_310_" class="st1" cx="261.8" cy="3.3" r="1.7"/>
			<circle id="XMLID_309_" class="st1" cx="241.7" cy="3.3" r="1.7"/>
			<circle id="XMLID_308_" class="st1" cx="221.6" cy="3.3" r="1.7"/>
			<circle id="XMLID_307_" class="st1" cx="295.2" cy="3.3" r="1.7"/>
			<circle id="XMLID_306_" class="st1" cx="275.1" cy="3.3" r="1.7"/>
			<circle id="XMLID_305_" class="st1" cx="255.1" cy="3.3" r="1.7"/>
			<circle id="XMLID_304_" class="st1" cx="235" cy="3.3" r="1.7"/>
			<circle id="XMLID_99_" class="st1" cx="214.9" cy="3.3" r="1.7"/>
		</g>
	</g>
</g>
</svg>
