<?xml version="1.0" encoding="utf-8"?>
<!-- Generator: Adobe Illustrator 19.0.0, SVG Export Plug-In . SVG Version: 6.00 Build 0)  -->
<svg version="1.1" id="Capa_1" xmlns="http://www.w3.org/2000/svg" xmlns:xlink="http://www.w3.org/1999/xlink" x="0px" y="0px"
	 viewBox="0 0 76.5 74.6" style="enable-background:new 0 0 76.5 74.6;" xml:space="preserve">
<style type="text/css">
	.st0{fill-rule:evenodd;clip-rule:evenodd;}
</style>
<g id="XMLID_11711_">
	<path id="XMLID_11721_" class="st0" d="M38.4,0c4.5,0,8.2,3.7,8.2,8.3c0,4.6-3.7,8.3-8.2,8.3c-4.5,0-8.2-3.7-8.2-8.3
		C30.2,3.7,33.9,0,38.4,0"/>
	<path id="XMLID_11715_" class="st0" d="M8.5,26.7L8.5,26.7l0,0.3c0,0.4,0.2,0.7,0.7,1c0.5,0.2,1.2,0.3,2.3,0.3
		c0.8,0,1.4-0.1,1.8-0.3c0.4-0.2,0.7-0.4,0.7-0.7c0-0.5-0.9-0.8-2.6-1.1c-0.2,0-0.4-0.1-0.5-0.1c-0.1,0-0.3,0-0.5-0.1
		c-2.8-0.5-4.5-0.9-5.3-1.5c-0.4-0.3-0.7-0.6-0.9-0.9c-0.2-0.4-0.3-0.8-0.3-1.2c0-1.1,0.6-1.9,1.9-2.5s3.1-0.8,5.6-0.8
		c2.4,0,4.2,0.3,5.4,0.8c1.2,0.5,1.7,1.4,1.7,2.4v0.1h-4.6v0c0-0.4-0.2-0.7-0.7-0.9c-0.5-0.2-1.1-0.3-2-0.3c-0.7,0-1.2,0.1-1.6,0.2
		C9.2,21.7,9,21.9,9,22.2c0,0.5,1,0.8,3,1.2c0.4,0.1,0.7,0.1,0.9,0.1c1.4,0.2,2.4,0.4,3,0.6c0.6,0.2,1.1,0.4,1.6,0.6
		c0.5,0.3,0.9,0.6,1.1,1c0.3,0.4,0.4,0.9,0.4,1.3c0,1.1-0.7,2-2.1,2.6c-1.4,0.6-3.4,0.9-6,0.9c-2.6,0-4.4-0.3-5.6-0.9
		c-1.2-0.6-1.7-1.5-1.7-2.8v-0.2H8.5z M21,30.3v-11h13.1v2.4h-8.2v1.7h7.5v2.3h-7.5v2.1h8.5v2.4H21z M36.4,30.3v-11h6.2l6.6,7.4
		v-7.4H54v11h-6.4l-6.4-7.4v7.4H36.4z M66.7,26l-2.3-4l-2.5,4H66.7z M59.2,30.3h-4.9l7.6-11h5.4l7.2,11h-5.5l-1.1-2h-7.6L59.2,30.3z
		"/>
	<path id="XMLID_11714_" class="st0" d="M14.5,69l-4.4-4.1l13.3-23.1c0.7-1.3-0.2-2.8-1.6-2.8H0v-5.8h35.1L14.5,69z"/>
	<path id="XMLID_11713_" class="st0" d="M62,69l4.4-4.1L53,41.7c-0.7-1.3,0.2-2.8,1.6-2.8h21.8v-5.8H41.4L62,69z"/>
	<path id="XMLID_11712_" class="st0" d="M38.2,39.2L38.2,39.2l19.8,32.6l-5.3,2.7L40,53.2c-0.8-1.3-2.6-1.3-3.3,0
		C32.5,60.4,24,74.6,24,74.6l-5.1-2.5C18.9,72.1,37.2,41,38.2,39.2"/>
</g>
</svg>
