<?xml version="1.0" encoding="utf-8"?>
<!-- Generator: Adobe Illustrator 19.0.0, SVG Export Plug-In . SVG Version: 6.00 Build 0)  -->
<svg version="1.1" id="Capa_1" xmlns="http://www.w3.org/2000/svg" xmlns:xlink="http://www.w3.org/1999/xlink" x="0px" y="0px"
	 viewBox="-228 250.5 154.5 292" style="enable-background:new -228 250.5 154.5 292;" xml:space="preserve">
<style type="text/css">
	.st0{fill:#FFFFFF;}
</style>
<rect id="XMLID_54_" x="-228" y="250.5" width="154.5" height="292"/>
<g id="XMLID_127_">
	<g id="XMLID_862_">
		<path id="XMLID_872_" class="st0" d="M-153.7,393.5c4.5,0,8.2,3.7,8.2,8.3s-3.7,8.3-8.2,8.3s-8.2-3.7-8.2-8.3
			C-161.9,397.3-158.2,393.5-153.7,393.5"/>
		<path id="XMLID_866_" class="st0" d="M-183.7,420.3L-183.7,420.3v0.3c0,0.4,0.2,0.7,0.7,1c0.5,0.2,1.2,0.3,2.3,0.3
			c0.8,0,1.4-0.1,1.8-0.3c0.4-0.2,0.7-0.4,0.7-0.7c0-0.5-0.9-0.8-2.6-1.1c-0.2,0-0.4-0.1-0.5-0.1c-0.1,0-0.3,0-0.5-0.1
			c-2.8-0.5-4.5-0.9-5.3-1.5c-0.4-0.3-0.7-0.6-0.9-0.9c-0.2-0.4-0.3-0.8-0.3-1.2c0-1.1,0.6-1.9,1.9-2.5c1.3-0.6,3.1-0.8,5.6-0.8
			c2.4,0,4.2,0.3,5.4,0.8c1.2,0.5,1.7,1.4,1.7,2.4v0.1h-4.6l0,0c0-0.4-0.2-0.7-0.7-0.9c-0.5-0.2-1.1-0.3-2-0.3
			c-0.7,0-1.2,0.1-1.6,0.2c-0.4,0.1-0.6,0.3-0.6,0.6c0,0.5,1,0.8,3,1.2c0.4,0.1,0.7,0.1,0.9,0.1c1.4,0.2,2.4,0.4,3,0.6
			c0.6,0.2,1.1,0.4,1.6,0.6c0.5,0.3,0.9,0.6,1.1,1c0.3,0.4,0.4,0.9,0.4,1.3c0,1.1-0.7,2-2.1,2.6c-1.4,0.6-3.4,0.9-6,0.9
			c-2.6,0-4.4-0.3-5.6-0.9s-1.7-1.5-1.7-2.8V420h4.9V420.3z M-171.1,423.9v-11h13.1v2.4h-8.2v1.7h7.5v2.3h-7.5v2.1h8.5v2.4h-13.4
			V423.9z M-155.7,423.9v-11h6.2l6.6,7.4v-7.4h4.7v11h-6.4l-6.4-7.4v7.4H-155.7z M-125.5,419.5l-2.3-4l-2.5,4H-125.5z M-133,423.9
			h-4.9l7.6-11h5.4l7.2,11h-5.5l-1.1-2h-7.6L-133,423.9z"/>
		<path id="XMLID_865_" class="st0" d="M-177.6,462.5l-4.4-4.1l13.3-23.1c0.7-1.3-0.2-2.8-1.6-2.8h-21.9v-5.8h35.2L-177.6,462.5z"/>
		<path id="XMLID_864_" class="st0" d="M-130.2,462.5l4.4-4.1l-13.3-23.1c-0.7-1.3,0.2-2.8,1.6-2.8h21.8v-5.8h-35.1L-130.2,462.5z"
			/>
		<path id="XMLID_863_" class="st0" d="M-154,432.8L-154,432.8l19.8,32.6l-5.3,2.7l-12.8-21.4c-0.8-1.3-2.6-1.3-3.3,0
			c-4.3,7.2-12.7,21.4-12.7,21.4l-5.1-2.5C-173.3,465.6-155,434.6-154,432.8"/>
	</g>
	<g id="XMLID_96_">
		<g id="XMLID_78_">
			<path id="XMLID_97_" class="st0" d="M-194.9,332.5l1.7,0.5c-0.3,0.9-0.7,1.6-1.3,2.1c-0.6,0.4-1.3,0.7-2.2,0.7
				c-1.1,0-2-0.4-2.8-1.2c-0.7-0.8-1.1-1.8-1.1-3.1c0-1.4,0.4-2.5,1.1-3.3c0.7-0.8,1.7-1.2,2.9-1.2c1,0,1.9,0.3,2.5,0.9
				c0.4,0.4,0.7,0.9,0.9,1.6l-1.8,0.3c-0.1-0.4-0.3-0.8-0.6-1c-0.3-0.3-0.7-0.4-1.2-0.4c-0.6,0-1.1,0.2-1.5,0.7
				c-0.4,0.4-0.6,1.2-0.6,2.2c0,1.1,0.2,1.8,0.6,2.3c0.4,0.5,0.9,0.7,1.5,0.7c0.5,0,0.8-0.1,1.2-0.4
				C-195.3,333.5-195.1,333.1-194.9,332.5z"/>
			<path id="XMLID_99_" class="st0" d="M-192.1,331.4c0-0.9,0.1-1.6,0.4-2.2c0.2-0.4,0.5-0.8,0.8-1.2c0.3-0.3,0.7-0.6,1.1-0.8
				c0.5-0.2,1.1-0.3,1.8-0.3c1.2,0,2.2,0.4,3,1.2c0.7,0.8,1.1,1.8,1.1,3.2s-0.4,2.4-1.1,3.2s-1.7,1.2-3,1.2s-2.3-0.4-3-1.2
				C-191.8,333.8-192.1,332.7-192.1,331.4z M-190.4,331.3c0,1,0.2,1.7,0.7,2.2c0.4,0.5,1,0.7,1.7,0.7s1.2-0.2,1.7-0.7
				c0.4-0.5,0.7-1.2,0.7-2.2s-0.2-1.7-0.6-2.2c-0.4-0.5-1-0.7-1.7-0.7c-0.7,0-1.3,0.2-1.7,0.7C-190.2,329.6-190.4,330.4-190.4,331.3
				z"/>
			<path id="XMLID_102_" class="st0" d="M-182.6,335.6v-8.5h1.7l3.5,5.6v-5.6h1.6v8.5h-1.7l-3.5-5.5v5.5H-182.6z"/>
			<path id="XMLID_104_" class="st0" d="M-174.5,332.8l1.7-0.2c0.1,0.6,0.3,1,0.6,1.2c0.3,0.3,0.7,0.4,1.2,0.4c0.6,0,1-0.1,1.2-0.3
				c0.3-0.2,0.4-0.5,0.4-0.8c0-0.2-0.1-0.4-0.2-0.5c-0.1-0.1-0.3-0.3-0.6-0.4c-0.2-0.1-0.7-0.2-1.4-0.4c-0.9-0.2-1.6-0.5-1.9-0.8
				c-0.5-0.5-0.8-1-0.8-1.7c0-0.4,0.1-0.8,0.4-1.2c0.2-0.4,0.6-0.7,1.1-0.9c0.5-0.2,1-0.3,1.7-0.3c1.1,0,1.9,0.2,2.4,0.7
				s0.8,1.1,0.8,1.9l-1.7,0.1c-0.1-0.4-0.2-0.7-0.5-0.9c-0.2-0.2-0.6-0.3-1.1-0.3s-0.9,0.1-1.2,0.3c-0.2,0.1-0.3,0.3-0.3,0.5
				c0,0.2,0.1,0.4,0.3,0.5c0.2,0.2,0.7,0.4,1.6,0.6c0.8,0.2,1.4,0.4,1.8,0.6c0.4,0.2,0.7,0.5,0.9,0.9c0.2,0.4,0.3,0.8,0.3,1.3
				s-0.1,0.9-0.4,1.4c-0.3,0.4-0.6,0.7-1.1,0.9c-0.5,0.2-1.1,0.3-1.8,0.3c-1.1,0-1.9-0.2-2.5-0.7
				C-174.1,334.5-174.4,333.8-174.5,332.8z"/>
			<path id="XMLID_106_" class="st0" d="M-164.3,335.6v-7h-2.5v-1.4h6.7v1.4h-2.5v7H-164.3z"/>
			<path id="XMLID_111_" class="st0" d="M-159,335.6v-8.5h3.6c0.9,0,1.6,0.1,2,0.2c0.4,0.2,0.7,0.4,1,0.8c0.2,0.4,0.4,0.8,0.4,1.3
				c0,0.6-0.2,1.2-0.6,1.6c-0.4,0.4-0.9,0.7-1.7,0.8c0.4,0.2,0.7,0.5,0.9,0.7c0.2,0.3,0.6,0.7,1,1.4l1,1.6h-2l-1.2-1.8
				c-0.4-0.7-0.7-1.1-0.9-1.2c-0.2-0.2-0.3-0.3-0.5-0.4c-0.2-0.1-0.5-0.1-0.9-0.1h-0.3v3.5h-1.8V335.6z M-157.3,330.7h1.3
				c0.8,0,1.3,0,1.5-0.1s0.4-0.2,0.5-0.4c0.1-0.2,0.2-0.4,0.2-0.6c0-0.3-0.1-0.5-0.2-0.7c-0.2-0.2-0.4-0.3-0.6-0.3
				c-0.1,0-0.6,0-1.2,0h-1.3v2.1H-157.3z"/>
			<path id="XMLID_114_" class="st0" d="M-150.5,327.1h1.7v4.6c0,0.7,0,1.2,0.1,1.4c0.1,0.3,0.2,0.6,0.5,0.8
				c0.3,0.2,0.7,0.3,1.1,0.3c0.5,0,0.9-0.1,1.1-0.3c0.2-0.2,0.4-0.4,0.4-0.7c0.1-0.3,0.1-0.8,0.1-1.4v-4.7h1.7v4.4
				c0,1,0,1.7-0.1,2.2c-0.1,0.4-0.3,0.8-0.5,1.1c-0.2,0.3-0.6,0.5-1,0.7c-0.4,0.2-1,0.3-1.6,0.3c-0.8,0-1.4-0.1-1.8-0.3
				c-0.4-0.2-0.7-0.4-1-0.7c-0.2-0.3-0.4-0.6-0.5-0.9c-0.1-0.5-0.2-1.2-0.2-2.1C-150.5,331.8-150.5,327.1-150.5,327.1z"/>
			<path id="XMLID_116_" class="st0" d="M-136.5,332.5l1.7,0.5c-0.3,0.9-0.7,1.6-1.3,2.1c-0.6,0.4-1.3,0.7-2.2,0.7
				c-1.1,0-2-0.4-2.8-1.2c-0.7-0.8-1.1-1.8-1.1-3.1c0-1.4,0.4-2.5,1.1-3.3c0.7-0.8,1.7-1.2,2.9-1.2c1,0,1.9,0.3,2.5,0.9
				c0.4,0.4,0.7,0.9,0.9,1.6l-1.7,0.4c-0.1-0.4-0.3-0.8-0.6-1c-0.3-0.3-0.7-0.4-1.2-0.4c-0.6,0-1.1,0.2-1.5,0.7
				c-0.4,0.4-0.6,1.2-0.6,2.2c0,1.1,0.2,1.8,0.6,2.3c0.4,0.5,0.9,0.7,1.5,0.7c0.5,0,0.8-0.1,1.2-0.4
				C-136.9,333.5-136.6,333.1-136.5,332.5z"/>
			<path id="XMLID_118_" class="st0" d="M-128,332.5l1.7,0.5c-0.3,0.9-0.7,1.6-1.3,2.1c-0.6,0.4-1.3,0.7-2.2,0.7
				c-1.1,0-2-0.4-2.8-1.2c-0.7-0.8-1.1-1.8-1.1-3.1c0-1.4,0.4-2.5,1.1-3.3c0.7-0.8,1.7-1.2,2.9-1.2c1,0,1.9,0.3,2.5,0.9
				c0.4,0.4,0.7,0.9,0.9,1.6l-1.7,0.4c-0.1-0.4-0.3-0.8-0.6-1c-0.3-0.3-0.7-0.4-1.2-0.4c-0.6,0-1.1,0.2-1.5,0.7
				c-0.4,0.4-0.6,1.2-0.6,2.2c0,1.1,0.2,1.8,0.6,2.3c0.4,0.5,0.9,0.7,1.5,0.7c0.5,0,0.8-0.1,1.2-0.4
				C-128.3,333.5-128.1,333.1-128,332.5z"/>
			<path id="XMLID_157_" class="st0" d="M-124.9,335.6v-8.5h1.7v8.5H-124.9z"/>
			<path id="XMLID_159_" class="st0" d="M-121.9,331.4c0-0.9,0.1-1.6,0.4-2.2c0.2-0.4,0.5-0.8,0.8-1.2c0.3-0.3,0.7-0.6,1.1-0.8
				c0.5-0.2,1.1-0.3,1.8-0.3c1.2,0,2.2,0.4,3,1.2c0.7,0.8,1.1,1.8,1.1,3.2s-0.4,2.4-1.1,3.2s-1.7,1.2-3,1.2s-2.3-0.4-3-1.2
				C-121.5,333.8-121.9,332.7-121.9,331.4z M-120.1,331.3c0,1,0.2,1.7,0.7,2.2c0.4,0.5,1,0.7,1.7,0.7s1.2-0.2,1.7-0.7
				c0.4-0.5,0.7-1.2,0.7-2.2s-0.2-1.7-0.6-2.2s-1-0.7-1.7-0.7s-1.3,0.2-1.7,0.7C-119.9,329.6-120.1,330.4-120.1,331.3z
				 M-118.8,326.6l0.8-1.7h1.8l-1.6,1.7H-118.8z"/>
			<path id="XMLID_163_" class="st0" d="M-112.3,335.6v-8.5h1.7l3.5,5.6v-5.6h1.6v8.5h-1.7l-3.4-5.5v5.5H-112.3z"/>
		</g>
		<g id="XMLID_94_">
			<path id="XMLID_190_" class="st0" d="M-190.9,363.6h-2.1l-0.8-2.2h-3.9l-0.8,2.2h-2.1l3.8-9.7h2.1L-190.9,363.6z M-194.5,359.7
				l-1.3-3.6l-1.3,3.6H-194.5z"/>
			<path id="XMLID_193_" class="st0" d="M-189.9,363.6v-9.7h3.1c1.2,0,2,0,2.3,0.1c0.6,0.1,1,0.5,1.4,0.9c0.4,0.5,0.6,1.1,0.6,1.9
				c0,0.6-0.1,1.1-0.3,1.5c-0.2,0.4-0.5,0.7-0.8,1c-0.3,0.2-0.7,0.4-1,0.5c-0.5,0.1-1.1,0.1-2,0.1h-1.3v3.7H-189.9z M-187.9,355.5
				v2.8h1.1c0.8,0,1.3-0.1,1.5-0.2c0.3-0.1,0.5-0.3,0.6-0.5c0.1-0.2,0.2-0.5,0.2-0.8c0-0.4-0.1-0.6-0.3-0.9
				c-0.2-0.2-0.5-0.4-0.8-0.4c-0.2,0-0.7-0.1-1.4-0.1h-0.9V355.5z"/>
			<path id="XMLID_196_" class="st0" d="M-180.8,363.6v-9.7h4.1c1,0,1.8,0.1,2.3,0.3s0.8,0.5,1.1,0.9s0.4,1,0.4,1.5
				c0,0.7-0.2,1.3-0.6,1.8s-1.1,0.8-1.9,0.9c0.4,0.2,0.8,0.5,1,0.8c0.2,0.3,0.6,0.8,1.1,1.6l1.2,1.9h-2.3l-1.4-2.1
				c-0.5-0.8-0.8-1.2-1-1.4c-0.2-0.2-0.4-0.3-0.6-0.4c-0.2-0.1-0.5-0.1-1-0.1h-0.4v4.1h-2V363.6z M-178.8,358h1.4
				c0.9,0,1.5,0,1.8-0.1c0.2-0.1,0.4-0.2,0.5-0.4c0.1-0.2,0.2-0.4,0.2-0.7c0-0.3-0.1-0.6-0.3-0.8c-0.2-0.2-0.4-0.3-0.7-0.4
				c-0.2,0-0.6,0-1.4,0h-1.5V358z"/>
			<path id="XMLID_199_" class="st0" d="M-171,363.6v-9.7h7.2v1.6h-5.2v2.2h4.9v1.6h-4.9v2.6h5.4v1.6h-7.4V363.6z"/>
			<path id="XMLID_201_" class="st0" d="M-162,363.6v-9.7h1.9l4,6.5v-6.5h1.8v9.7h-2l-3.9-6.3v6.3H-162z"/>
			<path id="XMLID_204_" class="st0" d="M-152.2,353.9h3.6c0.8,0,1.4,0.1,1.8,0.2c0.6,0.2,1.1,0.5,1.5,0.9c0.4,0.4,0.7,1,0.9,1.6
				c0.2,0.6,0.3,1.4,0.3,2.3c0,0.8-0.1,1.5-0.3,2.1c-0.2,0.7-0.6,1.3-1,1.7c-0.3,0.3-0.8,0.6-1.4,0.8c-0.4,0.1-1,0.2-1.7,0.2h-3.7
				C-152.2,363.7-152.2,353.9-152.2,353.9z M-150.2,355.5v6.4h1.5c0.5,0,0.9,0,1.2-0.1c0.3-0.1,0.6-0.2,0.8-0.4
				c0.2-0.2,0.4-0.5,0.5-0.9s0.2-1,0.2-1.8c0-0.8-0.1-1.3-0.2-1.7s-0.3-0.7-0.6-0.9c-0.2-0.2-0.5-0.4-0.9-0.5
				c-0.3-0.1-0.8-0.1-1.6-0.1H-150.2z"/>
			<path id="XMLID_207_" class="st0" d="M-142.5,363.6v-9.7h2v9.7H-142.5z"/>
			<path id="XMLID_209_" class="st0" d="M-139.5,363.6v-1.8l5.1-6.3h-4.5v-1.6h7.1v1.5l-5.3,6.5h5.5v1.6h-7.9V363.6z"/>
			<path id="XMLID_211_" class="st0" d="M-121.6,363.6h-2.1l-0.8-2.2h-3.9l-0.8,2.2h-2.1l3.8-9.7h2.1L-121.6,363.6z M-125.2,359.7
				l-1.3-3.6l-1.3,3.6H-125.2z"/>
			<path id="XMLID_214_" class="st0" d="M-117.1,353.9h2v6.1c0,0.8-0.1,1.4-0.2,1.9c-0.2,0.6-0.5,1-1,1.4c-0.5,0.3-1.2,0.5-2,0.5
				c-1,0-1.7-0.3-2.2-0.8s-0.8-1.3-0.8-2.4l1.8-0.2c0,0.6,0.1,0.9,0.2,1.2c0.2,0.3,0.5,0.5,1,0.5c0.4,0,0.7-0.1,0.9-0.4
				c0.2-0.2,0.3-0.8,0.3-1.6C-117.1,360.1-117.1,353.9-117.1,353.9z"/>
			<path id="XMLID_216_" class="st0" d="M-113,363.6v-9.7h7.2v1.6h-5.2v2.2h4.9v1.6h-4.9v2.6h5.4v1.6h-7.4V363.6z"/>
		</g>
		<g id="XMLID_71_">
			<path id="XMLID_165_" class="st0" d="M-200.6,344.9c0-1.2,0.2-2.2,0.5-3.1c0.3-0.6,0.6-1.2,1.1-1.6c0.5-0.5,1-0.8,1.6-1.1
				c0.7-0.3,1.6-0.5,2.6-0.5c1.8,0,3.2,0.5,4.2,1.6c1.1,1.1,1.6,2.6,1.6,4.6c0,1.9-0.5,3.5-1.6,4.5c-1,1.1-2.4,1.7-4.2,1.7
				s-3.2-0.5-4.3-1.6C-200.1,348.3-200.6,346.8-200.6,344.9z M-198.1,344.8c0,1.4,0.3,2.4,0.9,3.1c0.6,0.7,1.4,1.1,2.4,1.1
				s1.8-0.3,2.4-1c0.6-0.7,0.9-1.7,0.9-3.1c0-1.4-0.3-2.4-0.9-3.1c-0.6-0.7-1.4-1-2.4-1s-1.8,0.3-2.4,1
				C-197.8,342.4-198.1,343.4-198.1,344.8z"/>
			<path id="XMLID_170_" class="st0" d="M-187.1,338.8h4.8c0.9,0,1.7,0,2.1,0.1c0.5,0.1,0.9,0.2,1.3,0.5c0.4,0.3,0.7,0.6,0.9,1
				c0.2,0.4,0.4,0.9,0.4,1.4c0,0.6-0.2,1.1-0.5,1.5c-0.3,0.5-0.7,0.8-1.2,1.1c0.7,0.2,1.3,0.6,1.7,1.1c0.4,0.5,0.6,1.1,0.6,1.8
				c0,0.5-0.1,1.1-0.4,1.6c-0.3,0.5-0.6,0.9-1,1.2c-0.4,0.3-1,0.5-1.6,0.6c-0.4,0-1.4,0.1-2.9,0.1h-4.1v-12H-187.1z M-184.7,340.8
				v2.8h1.6c0.9,0,1.5,0,1.8,0c0.4,0,0.7-0.2,1-0.4c0.2-0.2,0.4-0.5,0.4-0.9c0-0.4-0.1-0.7-0.3-0.9c-0.2-0.2-0.5-0.4-0.9-0.4
				c-0.2,0-0.9,0-2.1,0h-1.5V340.8z M-184.7,345.6v3.2h2.2c0.9,0,1.4,0,1.7-0.1c0.4-0.1,0.7-0.2,0.9-0.5c0.2-0.3,0.3-0.6,0.3-1
				c0-0.4-0.1-0.7-0.3-0.9c-0.2-0.3-0.4-0.4-0.8-0.5c-0.3-0.1-1-0.2-2.1-0.2H-184.7z"/>
			<path id="XMLID_174_" class="st0" d="M-170.7,338.8h2.4v7.6c0,1-0.1,1.8-0.3,2.3c-0.2,0.7-0.7,1.3-1.3,1.7
				c-0.6,0.4-1.4,0.6-2.4,0.6c-1.2,0-2.1-0.3-2.7-1c-0.6-0.7-1-1.6-1-2.9l2.3-0.3c0,0.7,0.1,1.2,0.3,1.5c0.3,0.4,0.7,0.6,1.2,0.6
				s0.9-0.2,1.1-0.5c0.2-0.3,0.3-0.9,0.3-1.9v-7.7H-170.7z"/>
			<path id="XMLID_176_" class="st0" d="M-165.7,350.8v-12h8.9v2h-6.5v2.7h6v2h-6v3.3h6.7v2H-165.7z"/>
			<path id="XMLID_178_" class="st0" d="M-151.8,350.8v-10h-3.6v-2h9.5v2h-3.6v10H-151.8z"/>
			<path id="XMLID_180_" class="st0" d="M-145.1,344.9c0-1.2,0.2-2.2,0.5-3.1c0.3-0.6,0.6-1.2,1.1-1.6c0.5-0.5,1-0.8,1.6-1.1
				c0.7-0.3,1.6-0.5,2.6-0.5c1.8,0,3.2,0.5,4.2,1.6c1.1,1.1,1.6,2.6,1.6,4.6c0,1.9-0.5,3.5-1.6,4.5c-0.9,1.1-2.4,1.7-4.1,1.7
				c-1.8,0-3.2-0.5-4.3-1.6C-144.5,348.3-145.1,346.8-145.1,344.9z M-142.6,344.8c0,1.4,0.3,2.4,0.9,3.1c0.6,0.7,1.4,1.1,2.4,1.1
				s1.8-0.3,2.4-1c0.6-0.7,0.9-1.7,0.9-3.1c0-1.4-0.3-2.4-0.9-3.1c-0.6-0.7-1.4-1-2.4-1s-1.8,0.3-2.4,1
				C-142.3,342.4-142.6,343.4-142.6,344.8z"/>
			<path id="XMLID_183_" class="st0" d="M-126.9,338.8h4.4c1,0,1.8,0.1,2.3,0.2c0.7,0.2,1.3,0.6,1.8,1.1s0.9,1.2,1.1,1.9
				c0.3,0.8,0.4,1.7,0.4,2.8c0,1-0.1,1.8-0.4,2.6c-0.3,0.9-0.7,1.6-1.3,2.1c-0.4,0.4-1,0.7-1.7,1c-0.5,0.2-1.2,0.3-2.1,0.3h-4.6
				L-126.9,338.8L-126.9,338.8z M-124.5,340.8v7.9h1.8c0.7,0,1.2,0,1.5-0.1c0.4-0.1,0.7-0.3,1-0.5c0.3-0.2,0.5-0.6,0.6-1.2
				c0.2-0.5,0.2-1.3,0.2-2.2s-0.1-1.6-0.2-2.1c-0.2-0.5-0.4-0.9-0.7-1.2c-0.3-0.3-0.7-0.5-1.1-0.6c-0.3-0.1-1-0.1-2-0.1h-1.1V340.8z
				"/>
			<path id="XMLID_188_" class="st0" d="M-114.8,350.8v-12h8.9v2h-6.5v2.7h6v2h-6v3.3h6.7v2H-114.8z"/>
		</g>
	</g>
</g>
</svg>
