<?xml version="1.0" encoding="utf-8"?>
<!-- Generator: Adobe Illustrator 19.0.0, SVG Export Plug-In . SVG Version: 6.00 Build 0)  -->
<svg version="1.1" id="Capa_1" xmlns="http://www.w3.org/2000/svg" xmlns:xlink="http://www.w3.org/1999/xlink" x="0px" y="0px"
	 viewBox="0 0 100.4 111.5" style="enable-background:new 0 0 100.4 111.5;" xml:space="preserve">
<style type="text/css">
	.st0{fill:#E54A3F;}
	.st1{fill:#FFFFFF;stroke:#FFFFFF;stroke-width:0.115;stroke-miterlimit:10;}
	.st2{fill:#FFFFFF;stroke:#E54A3F;stroke-width:1.7139;stroke-miterlimit:10;}
	.st3{fill:#282828;}
</style>
<g id="XMLID_15_">
	<g id="XMLID_133981_">
		<path id="XMLID_133999_" class="st0" d="M42.8,60.5c-6.8,0-13.5-2.3-18.8-6.6C10.9,43.5,8.7,24.5,19.1,11.4
			C24.9,4.2,33.5,0,42.8,0c6.8,0,13.5,2.3,18.8,6.6c6.3,5,10.3,12.2,11.2,20.2c0.4,3.8,0.2,7.6-0.8,11.3c-0.6,2.3-1.5,4.5-2.6,6.6
			c-0.5,1-1.7,1.3-2.7,0.8c-1-0.5-1.3-1.7-0.8-2.7c1-1.8,1.8-3.7,2.3-5.7c0.9-3.2,1.1-6.5,0.7-9.8c-0.8-7-4.3-13.2-9.8-17.6
			C54.5,6,48.7,4,42.8,4c-8.1,0-15.6,3.6-20.6,9.9c-9,11.3-7.1,27.9,4.2,36.9c4.6,3.7,10.4,5.7,16.3,5.7c1.1,0,2,0.9,2,2
			C44.7,59.6,43.9,60.5,42.8,60.5L42.8,60.5z M42.8,60.5"/>
		<path id="XMLID_133996_" class="st0" d="M42.8,51.5c-4.8,0-9.5-1.6-13.2-4.6c-9.2-7.3-10.7-20.7-3.4-29.9
			c4.1-5.1,10.1-8.1,16.7-8.1c4.8,0,9.5,1.6,13.2,4.6c4.5,3.5,7.3,8.6,7.9,14.3c0.3,2.8,0.1,5.6-0.7,8.3c-0.3,1.1-1.4,1.7-2.5,1.4
			c-1.1-0.3-1.7-1.4-1.4-2.5c0.6-2.2,0.8-4.5,0.6-6.8c-0.5-4.6-2.8-8.7-6.4-11.6c-3.1-2.4-6.9-3.8-10.8-3.8
			c-5.3,0-10.3,2.4-13.6,6.6c-5.9,7.5-4.7,18.4,2.8,24.4c3.1,2.4,6.9,3.8,10.8,3.8c1.1,0,2,0.9,2,2C44.7,50.7,43.9,51.5,42.8,51.5
			L42.8,51.5z M42.8,51.5"/>
		<path id="XMLID_133993_" class="st1" d="M53.2,30.2c0,5.7-4.7,10.4-10.4,10.4c-5.7,0-10.4-4.7-10.4-10.4c0-5.7,4.7-10.4,10.4-10.4
			C48.5,19.8,53.2,24.5,53.2,30.2L53.2,30.2z M53.2,30.2"/>
		<path id="XMLID_133989_" class="st0" d="M42.8,42.6c-2.8,0-5.5-1-7.7-2.7c-5.3-4.2-6.2-12-2-17.4c2.4-3,5.9-4.7,9.7-4.7
			c2.8,0,5.5,1,7.7,2.7c5.3,4.2,6.2,12,2,17.4C50.1,40.9,46.6,42.6,42.8,42.6L42.8,42.6z M42.8,21.8c-2.6,0-5,1.2-6.6,3.2
			c-2.9,3.6-2.3,8.9,1.4,11.8c1.5,1.2,3.3,1.8,5.2,1.8c2.6,0,5-1.2,6.6-3.2c2.9-3.6,2.3-8.9-1.4-11.8C46.5,22.5,44.7,21.8,42.8,21.8
			L42.8,21.8z M42.8,21.8"/>
		<path id="XMLID_133986_" class="st2" d="M55.7,66.4c2.8,0,5.1-2.3,5.1-5.1v-13c0-3.8-3.1-6.9-6.9-6.9l-7,0V31.2
			c0-2.2-1.7-4-3.8-4.1c-2.3-0.1-4.1,1.7-4.1,4v17.8l-1-2.2c-0.6-1.2-1.6-1.9-2.7-1.9c-0.5,0-1,0.1-1.5,0.4
			c-1.5,0.9-2.1,3.1-1.2,4.8c0,0,3.4,8,5.9,13.3c0.8,1.8,2.6,2.9,4.6,2.9H55.7z M55.7,66.4"/>
	</g>
	<g id="XMLID_1_">
		<path id="XMLID_2_" class="st3" d="M9.7,84.2l1.7,0.4c-0.4,1.4-1,2.5-1.9,3.2S7.4,89,6.1,89c-1.4,0-2.5-0.3-3.4-0.8
			c-0.9-0.6-1.5-1.4-2-2.5S0,83.4,0,82.2c0-1.3,0.3-2.5,0.8-3.5c0.5-1,1.2-1.8,2.2-2.3c0.9-0.5,2-0.8,3.1-0.8c1.3,0,2.4,0.3,3.3,1
			s1.5,1.6,1.8,2.8l-1.7,0.4c-0.3-0.9-0.7-1.6-1.3-2S6.9,77.1,6,77.1c-1,0-1.8,0.2-2.5,0.7s-1.1,1.1-1.4,1.9
			c-0.3,0.8-0.4,1.6-0.4,2.5c0,1.1,0.2,2.1,0.5,2.9c0.3,0.8,0.8,1.4,1.5,1.8s1.4,0.6,2.2,0.6c1,0,1.8-0.3,2.4-0.8S9.5,85.3,9.7,84.2
			z"/>
		<path id="XMLID_4_" class="st3" d="M13.3,88.7V75.9h1.6v12.9H13.3z"/>
		<path id="XMLID_6_" class="st3" d="M17.3,77.7v-1.8h1.6v1.8H17.3z M17.3,88.7v-9.3h1.6v9.3H17.3z"/>
		<path id="XMLID_9_" class="st3" d="M27.4,85.3l1.6,0.2c-0.2,1.1-0.6,1.9-1.3,2.5C26.9,88.7,26.1,89,25,89c-1.3,0-2.3-0.4-3.1-1.3
			c-0.8-0.8-1.2-2-1.2-3.6c0-1,0.2-1.9,0.5-2.6s0.8-1.3,1.5-1.7c0.7-0.4,1.4-0.6,2.2-0.6c1,0,1.8,0.3,2.5,0.8s1.1,1.2,1.2,2.2
			l-1.5,0.2c-0.1-0.6-0.4-1.1-0.8-1.4s-0.8-0.5-1.3-0.5c-0.8,0-1.4,0.3-1.9,0.9c-0.5,0.6-0.7,1.5-0.7,2.7c0,1.3,0.2,2.2,0.7,2.7
			s1.1,0.9,1.9,0.9c0.6,0,1.1-0.2,1.6-0.6S27.3,86.1,27.4,85.3z"/>
		<path id="XMLID_11_" class="st3" d="M35.3,92.3V79.4h1.4v1.2c0.3-0.5,0.7-0.8,1.2-1.1c0.4-0.2,0.9-0.4,1.6-0.4
			c0.8,0,1.5,0.2,2.1,0.6s1.1,1,1.4,1.7c0.3,0.7,0.5,1.6,0.5,2.5c0,1-0.2,1.8-0.5,2.6c-0.3,0.8-0.8,1.4-1.5,1.8
			C40.7,88.7,40,89,39.3,89c-0.5,0-1-0.1-1.4-0.3s-0.8-0.5-1-0.8v4.5H35.3z M36.7,84.1c0,1.2,0.2,2.1,0.7,2.7s1.1,0.9,1.8,0.9
			c0.7,0,1.3-0.3,1.8-0.9c0.5-0.6,0.8-1.5,0.8-2.8c0-1.2-0.2-2.1-0.7-2.7s-1.1-0.9-1.8-0.9c-0.7,0-1.3,0.3-1.8,0.9
			C37,82,36.7,82.9,36.7,84.1z"/>
		<path id="XMLID_14_" class="st3" d="M51.4,87.6c-0.6,0.5-1.2,0.8-1.7,1.1S48.6,89,48,89c-1,0-1.8-0.3-2.4-0.8
			c-0.6-0.5-0.8-1.1-0.8-1.9c0-0.5,0.1-0.9,0.3-1.3c0.2-0.4,0.5-0.7,0.8-0.9s0.7-0.4,1.1-0.5c0.3-0.1,0.8-0.2,1.4-0.2
			c1.3-0.2,2.2-0.3,2.8-0.5c0-0.2,0-0.4,0-0.4c0-0.6-0.1-1.1-0.4-1.4c-0.4-0.4-1-0.5-1.8-0.5c-0.7,0-1.3,0.1-1.6,0.4
			s-0.6,0.7-0.8,1.4L45,82.1c0.1-0.7,0.4-1.2,0.7-1.6c0.3-0.4,0.8-0.7,1.4-0.9c0.6-0.2,1.3-0.3,2.1-0.3c0.8,0,1.4,0.1,1.9,0.3
			s0.9,0.4,1.1,0.7c0.2,0.3,0.4,0.6,0.5,1.1c0.1,0.3,0.1,0.8,0.1,1.5v2.1c0,1.5,0,2.4,0.1,2.8c0.1,0.4,0.2,0.8,0.4,1.1h-1.7
			C51.5,88.4,51.4,88,51.4,87.6z M51.3,84.1c-0.6,0.2-1.4,0.4-2.6,0.6c-0.7,0.1-1.1,0.2-1.4,0.3s-0.5,0.3-0.6,0.5s-0.2,0.5-0.2,0.8
			c0,0.4,0.2,0.8,0.5,1.1s0.8,0.4,1.4,0.4c0.6,0,1.2-0.1,1.6-0.4s0.8-0.6,1-1.1c0.2-0.4,0.3-0.9,0.3-1.6V84.1z"/>
		<path id="XMLID_18_" class="st3" d="M55.3,88.7v-9.3h1.4v1.4c0.4-0.7,0.7-1.1,1-1.3s0.6-0.3,1-0.3c0.5,0,1.1,0.2,1.6,0.5l-0.5,1.5
			c-0.4-0.2-0.8-0.3-1.2-0.3c-0.3,0-0.7,0.1-0.9,0.3s-0.5,0.5-0.6,0.9c-0.2,0.6-0.3,1.2-0.3,1.8v4.9H55.3z"/>
		<path id="XMLID_20_" class="st3" d="M67.4,87.6c-0.6,0.5-1.2,0.8-1.7,1.1S64.6,89,64,89c-1,0-1.8-0.3-2.4-0.8
			c-0.6-0.5-0.8-1.1-0.8-1.9c0-0.5,0.1-0.9,0.3-1.3c0.2-0.4,0.5-0.7,0.8-0.9s0.7-0.4,1.1-0.5c0.3-0.1,0.8-0.2,1.4-0.2
			c1.3-0.2,2.2-0.3,2.8-0.5c0-0.2,0-0.4,0-0.4c0-0.6-0.1-1.1-0.4-1.4c-0.4-0.4-1-0.5-1.8-0.5c-0.7,0-1.3,0.1-1.6,0.4
			s-0.6,0.7-0.8,1.4L61,82.1c0.1-0.7,0.4-1.2,0.7-1.6c0.3-0.4,0.8-0.7,1.4-0.9c0.6-0.2,1.3-0.3,2.1-0.3c0.8,0,1.4,0.1,1.9,0.3
			s0.9,0.4,1.1,0.7c0.2,0.3,0.4,0.6,0.5,1.1c0.1,0.3,0.1,0.8,0.1,1.5v2.1c0,1.5,0,2.4,0.1,2.8c0.1,0.4,0.2,0.8,0.4,1.1h-1.7
			C67.5,88.4,67.4,88,67.4,87.6z M67.3,84.1c-0.6,0.2-1.4,0.4-2.6,0.6c-0.7,0.1-1.1,0.2-1.4,0.3s-0.5,0.3-0.6,0.5s-0.2,0.5-0.2,0.8
			c0,0.4,0.2,0.8,0.5,1.1s0.8,0.4,1.4,0.4c0.6,0,1.2-0.1,1.6-0.4s0.8-0.6,1-1.1c0.2-0.4,0.3-0.9,0.3-1.6V84.1z"/>
		<path id="XMLID_23_" class="st3" d="M78.9,88.7l-3.6-9.3H77l2,5.6c0.2,0.6,0.4,1.2,0.6,1.9c0.1-0.5,0.3-1.1,0.6-1.8l2.1-5.7h1.6
			l-3.5,9.3H78.9z"/>
		<path id="XMLID_25_" class="st3" d="M91.7,85.7l1.6,0.2c-0.3,1-0.7,1.7-1.4,2.2S90.3,89,89.2,89c-1.4,0-2.4-0.4-3.2-1.3
			c-0.8-0.8-1.2-2-1.2-3.5c0-1.6,0.4-2.8,1.2-3.7s1.9-1.3,3.1-1.3c1.2,0,2.3,0.4,3.1,1.3s1.2,2,1.2,3.6c0,0.1,0,0.2,0,0.4h-7
			c0.1,1,0.3,1.8,0.9,2.4s1.2,0.8,2,0.8c0.6,0,1.1-0.2,1.5-0.5S91.5,86.4,91.7,85.7z M86.5,83.2h5.2c-0.1-0.8-0.3-1.4-0.6-1.8
			c-0.5-0.6-1.2-0.9-2-0.9c-0.7,0-1.3,0.2-1.8,0.7S86.6,82.4,86.5,83.2z"/>
		<path id="XMLID_28_" class="st3" d="M95.3,88.7v-9.3h1.4v1.4c0.4-0.7,0.7-1.1,1-1.3s0.6-0.3,1-0.3c0.5,0,1.1,0.2,1.6,0.5l-0.5,1.5
			c-0.4-0.2-0.8-0.3-1.2-0.3c-0.3,0-0.7,0.1-0.9,0.3s-0.5,0.5-0.6,0.9c-0.2,0.6-0.3,1.2-0.3,1.8v4.9H95.3z"/>
		<path id="XMLID_30_" class="st3" d="M19,108.5l1.5,0.2c0.1,0.5,0.2,0.8,0.5,1c0.4,0.3,0.9,0.4,1.6,0.4c0.7,0,1.3-0.1,1.7-0.4
			s0.7-0.7,0.8-1.2c0.1-0.3,0.1-1,0.1-2c-0.7,0.8-1.6,1.2-2.6,1.2c-1.3,0-2.3-0.5-3-1.4s-1.1-2-1.1-3.3c0-0.9,0.2-1.7,0.5-2.5
			c0.3-0.8,0.8-1.3,1.4-1.7s1.3-0.6,2.2-0.6c1.1,0,2,0.4,2.7,1.3v-1.1h1.5v8.1c0,1.5-0.1,2.5-0.4,3.1c-0.3,0.6-0.8,1.1-1.4,1.4
			s-1.4,0.5-2.4,0.5c-1.1,0-2-0.3-2.7-0.8C19.3,110.3,19,109.5,19,108.5z M20.3,102.9c0,1.2,0.2,2.1,0.7,2.7s1.1,0.8,1.8,0.8
			c0.7,0,1.3-0.3,1.8-0.8s0.7-1.4,0.7-2.6c0-1.1-0.3-2-0.8-2.6s-1.1-0.9-1.8-0.9c-0.7,0-1.3,0.3-1.8,0.9
			C20.6,100.9,20.3,101.8,20.3,102.9z"/>
		<path id="XMLID_33_" class="st3" d="M29.3,107.7v-9.3h1.4v1.4c0.4-0.7,0.7-1.1,1-1.3s0.6-0.3,1-0.3c0.5,0,1.1,0.2,1.6,0.5
			l-0.5,1.5c-0.4-0.2-0.8-0.3-1.2-0.3c-0.3,0-0.7,0.1-0.9,0.3s-0.5,0.5-0.6,0.9c-0.2,0.6-0.3,1.2-0.3,1.8v4.9H29.3z"/>
		<path id="XMLID_35_" class="st3" d="M41.4,106.6c-0.6,0.5-1.2,0.8-1.7,1.1S38.6,108,38,108c-1,0-1.8-0.3-2.4-0.8
			c-0.6-0.5-0.8-1.1-0.8-1.9c0-0.5,0.1-0.9,0.3-1.3c0.2-0.4,0.5-0.7,0.8-0.9s0.7-0.4,1.1-0.5c0.3-0.1,0.8-0.2,1.4-0.2
			c1.3-0.2,2.2-0.3,2.8-0.5c0-0.2,0-0.4,0-0.4c0-0.6-0.1-1.1-0.4-1.4c-0.4-0.4-1-0.5-1.8-0.5c-0.7,0-1.3,0.1-1.6,0.4
			s-0.6,0.7-0.8,1.4l-1.5-0.2c0.1-0.7,0.4-1.2,0.7-1.6c0.3-0.4,0.8-0.7,1.4-0.9c0.6-0.2,1.3-0.3,2.1-0.3c0.8,0,1.4,0.1,1.9,0.3
			s0.9,0.4,1.1,0.7c0.2,0.3,0.4,0.6,0.5,1.1c0.1,0.3,0.1,0.8,0.1,1.5v2.1c0,1.5,0,2.4,0.1,2.8c0.1,0.4,0.2,0.8,0.4,1.1h-1.7
			C41.5,107.4,41.4,107,41.4,106.6z M41.3,103.1c-0.6,0.2-1.4,0.4-2.6,0.6c-0.7,0.1-1.1,0.2-1.4,0.3s-0.5,0.3-0.6,0.5
			s-0.2,0.5-0.2,0.8c0,0.4,0.2,0.8,0.5,1.1s0.8,0.4,1.4,0.4c0.6,0,1.2-0.1,1.6-0.4s0.8-0.6,1-1.1c0.2-0.4,0.3-0.9,0.3-1.6V103.1z
			 M38.2,97.2l1.2-2.5h2.1l-1.9,2.5H38.2z"/>
		<path id="XMLID_39_" class="st3" d="M45.7,107.7v-8.1h-1.4v-1.2h1.4v-1c0-0.6,0.1-1.1,0.2-1.4c0.2-0.4,0.4-0.7,0.8-1
			c0.4-0.3,0.9-0.4,1.6-0.4c0.4,0,0.9,0.1,1.5,0.2l-0.2,1.4c-0.3-0.1-0.6-0.1-0.9-0.1c-0.5,0-0.8,0.1-1,0.3s-0.3,0.6-0.3,1.2v0.9
			h1.8v1.2h-1.8v8.1H45.7z"/>
		<path id="XMLID_41_" class="st3" d="M50.3,96.7v-1.8h1.6v1.8H50.3z M50.3,107.7v-9.3h1.6v9.3H50.3z"/>
		<path id="XMLID_44_" class="st3" d="M60.4,104.3l1.6,0.2c-0.2,1.1-0.6,1.9-1.3,2.5c-0.7,0.6-1.6,0.9-2.6,0.9
			c-1.3,0-2.3-0.4-3.1-1.3c-0.8-0.8-1.2-2-1.2-3.6c0-1,0.2-1.9,0.5-2.6s0.8-1.3,1.5-1.7c0.7-0.4,1.4-0.6,2.2-0.6
			c1,0,1.8,0.3,2.5,0.8s1.1,1.2,1.2,2.2l-1.5,0.2c-0.1-0.6-0.4-1.1-0.8-1.4s-0.8-0.5-1.3-0.5c-0.8,0-1.4,0.3-1.9,0.9
			c-0.5,0.6-0.7,1.5-0.7,2.7c0,1.3,0.2,2.2,0.7,2.7s1.1,0.9,1.9,0.9c0.6,0,1.1-0.2,1.6-0.6S60.3,105.1,60.4,104.3z"/>
		<path id="XMLID_46_" class="st3" d="M69.4,106.6c-0.6,0.5-1.2,0.8-1.7,1.1S66.6,108,66,108c-1,0-1.8-0.3-2.4-0.8
			c-0.6-0.5-0.8-1.1-0.8-1.9c0-0.5,0.1-0.9,0.3-1.3c0.2-0.4,0.5-0.7,0.8-0.9s0.7-0.4,1.1-0.5c0.3-0.1,0.8-0.2,1.4-0.2
			c1.3-0.2,2.2-0.3,2.8-0.5c0-0.2,0-0.4,0-0.4c0-0.6-0.1-1.1-0.4-1.4c-0.4-0.4-1-0.5-1.8-0.5c-0.7,0-1.3,0.1-1.6,0.4
			s-0.6,0.7-0.8,1.4l-1.5-0.2c0.1-0.7,0.4-1.2,0.7-1.6c0.3-0.4,0.8-0.7,1.4-0.9c0.6-0.2,1.3-0.3,2.1-0.3c0.8,0,1.4,0.1,1.9,0.3
			s0.9,0.4,1.1,0.7c0.2,0.3,0.4,0.6,0.5,1.1c0.1,0.3,0.1,0.8,0.1,1.5v2.1c0,1.5,0,2.4,0.1,2.8c0.1,0.4,0.2,0.8,0.4,1.1h-1.7
			C69.6,107.4,69.4,107,69.4,106.6z M69.3,103.1c-0.6,0.2-1.4,0.4-2.6,0.6c-0.7,0.1-1.1,0.2-1.4,0.3s-0.5,0.3-0.6,0.5
			s-0.2,0.5-0.2,0.8c0,0.4,0.2,0.8,0.5,1.1s0.8,0.4,1.4,0.4c0.6,0,1.2-0.1,1.6-0.4s0.8-0.6,1-1.1c0.2-0.4,0.3-0.9,0.3-1.6V103.1z"/>
		<path id="XMLID_49_" class="st3" d="M72.7,105l1.6-0.2c0.1,0.6,0.3,1.1,0.7,1.4s1,0.5,1.7,0.5c0.7,0,1.3-0.1,1.6-0.4
			s0.5-0.6,0.5-1c0-0.4-0.2-0.6-0.5-0.8c-0.2-0.1-0.8-0.3-1.6-0.5c-1.2-0.3-2-0.5-2.4-0.8s-0.8-0.5-1-0.9c-0.2-0.4-0.3-0.8-0.3-1.3
			c0-0.4,0.1-0.8,0.3-1.2c0.2-0.4,0.5-0.6,0.8-0.9c0.2-0.2,0.6-0.3,1-0.5s0.9-0.2,1.4-0.2c0.7,0,1.4,0.1,1.9,0.3s1,0.5,1.2,0.9
			c0.3,0.4,0.4,0.8,0.5,1.4l-1.5,0.2c-0.1-0.5-0.3-0.9-0.6-1.1s-0.8-0.4-1.4-0.4c-0.7,0-1.2,0.1-1.6,0.4s-0.5,0.5-0.5,0.8
			c0,0.2,0.1,0.4,0.2,0.6c0.1,0.2,0.3,0.3,0.6,0.4c0.2,0.1,0.6,0.2,1.4,0.4c1.1,0.3,1.9,0.5,2.3,0.7s0.8,0.5,1,0.8s0.4,0.8,0.4,1.4
			c0,0.5-0.2,1-0.5,1.5c-0.3,0.5-0.8,0.8-1.3,1.1c-0.6,0.3-1.2,0.4-2,0.4c-1.2,0-2.1-0.3-2.8-0.8S72.9,105.9,72.7,105z"/>
	</g>
</g>
</svg>
