<?xml version="1.0" encoding="utf-8"?>
<!-- Generator: Adobe Illustrator 19.0.0, SVG Export Plug-In . SVG Version: 6.00 Build 0)  -->
<svg version="1.1" id="Capa_1" xmlns="http://www.w3.org/2000/svg" xmlns:xlink="http://www.w3.org/1999/xlink" x="0px" y="0px"
	 viewBox="0 0 429.1 61.5" style="enable-background:new 0 0 429.1 61.5;" xml:space="preserve">
<style type="text/css">
	.st0{fill:#E54A3F;}
	.st1{fill:#FFFFFF;}
	.st2{fill-rule:evenodd;clip-rule:evenodd;fill:#FFFFFF;}
	.st3{fill-rule:evenodd;clip-rule:evenodd;fill:#727270;}
</style>
<g id="XMLID_136319_">
	<g id="XMLID_136327_">
		<polygon id="XMLID_136330_" class="st0" points="56.5,6.8 32.1,54.3 374.1,54.3 398.6,6.8 		"/>
		<polygon id="XMLID_136329_" class="st0" points="32.9,41 54,0 10.3,0 20.8,20.5 0,41 		"/>
		<polygon id="XMLID_136328_" class="st0" points="429.1,20.5 398.5,20.5 377.4,61.5 419.3,61.5 409.1,41 		"/>
	</g>
	<g id="XMLID_1_">
		<path id="XMLID_2_" class="st1" d="M182.8,29c-0.2,0.5-0.5,1-0.9,1.4s-0.8,0.7-1.4,0.9c-0.5,0.2-1.1,0.3-1.7,0.3h-4v6.7h-1.6V20.8
			h5.5c0.6,0,1.2,0.1,1.7,0.3c0.5,0.2,1,0.5,1.4,0.9s0.7,0.8,0.9,1.4c0.2,0.5,0.3,1.1,0.3,1.7v2.2C183.2,27.9,183.1,28.5,182.8,29z
			 M181.6,25.2c0-0.4-0.1-0.8-0.2-1.1s-0.3-0.6-0.6-0.9c-0.3-0.3-0.6-0.5-0.9-0.6c-0.3-0.1-0.7-0.2-1.1-0.2h-3.9v7.8h3.9
			c0.4,0,0.8-0.1,1.1-0.2c0.3-0.1,0.6-0.3,0.9-0.6c0.3-0.3,0.5-0.5,0.6-0.9c0.1-0.3,0.2-0.7,0.2-1.1V25.2z"/>
		<path id="XMLID_5_" class="st1" d="M185.9,38.4V20.8h1.6v16h6.7v1.5H185.9z"/>
		<path id="XMLID_7_" class="st1" d="M203.3,34.3h-5.5l-1.1,4.1h-1.6l5.1-17.5h0.8l5.2,17.5h-1.6L203.3,34.3z M198.2,32.8h4.7
			l-2.3-8.1l0-0.6l0,0.6L198.2,32.8z"/>
		<path id="XMLID_10_" class="st1" d="M217.3,38.4L210,25.6l-0.1-0.8v13.5h-1.6V20.8h0.8l7.3,12.8l0.2,0.7V20.8h1.6v17.5H217.3z"/>
		<path id="XMLID_12_" class="st1" d="M222.2,38.4V20.8h9.9v1.5h-8.3v6.5h6.7v1.5h-6.7v6.5h8.3v1.5H222.2z"/>
		<path id="XMLID_14_" class="st1" d="M241.6,34.3H236l-1.1,4.1h-1.6l5.1-17.5h0.8l5.2,17.5h-1.6L241.6,34.3z M236.5,32.8h4.7
			l-2.3-8.1l0-0.6l0,0.6L236.5,32.8z"/>
		<path id="XMLID_17_" class="st1" d="M255.9,36c-0.2,0.5-0.5,1-0.9,1.4s-0.8,0.7-1.4,0.9c-0.5,0.2-1.1,0.3-1.7,0.3h-1.2
			c-0.6,0-1.2-0.1-1.7-0.3c-0.5-0.2-1-0.5-1.4-0.9s-0.7-0.8-0.9-1.4c-0.2-0.5-0.3-1.1-0.3-1.7v-9.4c0-0.6,0.1-1.2,0.3-1.7
			c0.2-0.5,0.5-1,0.9-1.4s0.8-0.7,1.4-0.9c0.5-0.2,1.1-0.3,1.7-0.3h1.2c0.6,0,1.2,0.1,1.7,0.3c0.5,0.2,1,0.5,1.4,0.9
			s0.7,0.8,0.9,1.4c0.2,0.5,0.3,1.1,0.3,1.7v0.7l-1.6,0.2v-1c0-0.4-0.1-0.8-0.2-1.1c-0.1-0.3-0.3-0.6-0.6-0.9s-0.5-0.5-0.9-0.6
			s-0.7-0.2-1.1-0.2h-1.1c-0.4,0-0.8,0.1-1.1,0.2c-0.3,0.1-0.6,0.3-0.9,0.6c-0.3,0.3-0.5,0.5-0.6,0.9c-0.1,0.3-0.2,0.7-0.2,1.1v9.4
			c0,0.4,0.1,0.8,0.2,1.1s0.3,0.6,0.6,0.9c0.3,0.3,0.6,0.5,0.9,0.6c0.3,0.1,0.7,0.2,1.1,0.2h1.1c0.4,0,0.8-0.1,1.1-0.2
			s0.6-0.3,0.9-0.6c0.3-0.3,0.5-0.6,0.6-0.9s0.2-0.7,0.2-1.1v-1l1.6,0.3v0.7C256.2,34.9,256.1,35.4,255.9,36z"/>
		<path id="XMLID_19_" class="st1" d="M259.7,38.4V20.8h1.6v17.5H259.7z"/>
		<path id="XMLID_22_" class="st1" d="M274.5,36c-0.2,0.5-0.5,1-0.9,1.4s-0.8,0.7-1.4,0.9c-0.5,0.2-1.1,0.3-1.7,0.3h-1.2
			c-0.6,0-1.2-0.1-1.7-0.3c-0.5-0.2-1-0.5-1.4-0.9s-0.7-0.8-0.9-1.4c-0.2-0.5-0.3-1.1-0.3-1.7v-9.4c0-0.6,0.1-1.2,0.3-1.7
			c0.2-0.5,0.5-1,0.9-1.4s0.8-0.7,1.4-0.9c0.5-0.2,1.1-0.3,1.7-0.3h1.2c0.6,0,1.2,0.1,1.7,0.3c0.5,0.2,1,0.5,1.4,0.9
			s0.7,0.8,0.9,1.4c0.2,0.5,0.3,1.1,0.3,1.7v9.4C274.9,34.9,274.8,35.4,274.5,36z M273.3,24.9c0-0.4-0.1-0.8-0.2-1.1
			c-0.1-0.3-0.3-0.6-0.6-0.9s-0.5-0.5-0.9-0.6s-0.7-0.2-1.1-0.2h-1.1c-0.4,0-0.8,0.1-1.1,0.2c-0.3,0.1-0.6,0.3-0.9,0.6
			c-0.3,0.3-0.5,0.5-0.6,0.9c-0.1,0.3-0.2,0.7-0.2,1.1v9.4c0,0.4,0.1,0.8,0.2,1.1s0.3,0.6,0.6,0.9c0.3,0.3,0.6,0.5,0.9,0.6
			c0.3,0.1,0.7,0.2,1.1,0.2h1.1c0.4,0,0.8-0.1,1.1-0.2s0.6-0.3,0.9-0.6c0.3-0.3,0.5-0.6,0.6-0.9s0.2-0.7,0.2-1.1V24.9z M269.6,18.9
			h-1.1l2-3h2.5L269.6,18.9z"/>
		<path id="XMLID_26_" class="st1" d="M287.7,38.4l-7.3-12.7l-0.1-0.8v13.5h-1.6V20.8h0.8l7.3,12.8l0.2,0.7V20.8h1.6v17.5H287.7z"/>
	</g>
	<g id="XMLID_136320_">
		<path id="XMLID_136324_" class="st2" d="M154.1,17.4L154.1,17.4h-9.5c0.1-0.2,0.2-0.4,0.2-0.7c0-0.7-0.7-1.3-1.4-1.3
			c-0.7,0-1.4,0.6-1.4,1.3c0,0.3,0.1,0.4,0.2,0.7h-9.4c-0.3,0-0.7,0.2-0.9,0.4c1,0.3,1.8,0.9,2.3,1.8H153v11.9h-17.8V34h5.5
			l-1.5,12.3c-0.1,0.3,0.1,0.7,0.5,0.8l0.6,0.1c0.4,0.1,0.8-0.2,0.9-0.6l1.6-12.6h1.7l1.6,12.6c0.1,0.4,0.5,0.6,0.9,0.6l0.6-0.1
			c0.4-0.1,0.6-0.4,0.5-0.8L146.4,34h7.7c0.7,0,1.3-0.6,1.3-1.3v-14C155.4,18.1,154.9,17.4,154.1,17.4L154.1,17.4z"/>
		<path id="XMLID_136323_" class="st3" d="M128.1,21.5L128.1,21.5c0-1.7,1.3-2.9,2.9-2.9c1.6,0,2.9,1.3,2.9,2.9
			c0,1.6-1.3,2.9-2.9,2.9C129.4,24.4,128.1,23.1,128.1,21.5L128.1,21.5z"/>
		<path id="XMLID_136322_" class="st3" d="M129,25.1L129,25.1c0.1,0,0.1-0.1,0.2-0.1c0.3-0.2,2.9-0.4,3.5-0.1
			c0.1,0.1,0.2,0.1,0.2,0.1c0.5,0.2,0.9,0.3,1.4,0.2c1.6-0.5,2.1-2.2,2.5-3c0.1-0.2,0.3-0.4,0.6-0.6l0.3-0.1c0.3,0,0.5,0,0.7,0.1
			c0.6,0.3,0.8,1,0.6,1.5c-0.1,0.2-0.3,0.7-0.7,1.3L138,25c-0.9,1.3-1.2,2-2.9,2.5c-0.3,0.1-0.7,0.2-1,0.2c0,6.1-0.2,12.2-0.2,18.3
			c0,0.8-0.7,1.4-1.4,1.4c-0.8,0-1.4-0.6-1.4-1.4v-9.5c-0.1,0-0.1,0-0.2,0h-0.1V46c0,0.8-0.6,1.4-1.3,1.4c-0.8,0-1.4-0.6-1.4-1.4
			V35.1c-0.1,0.1-0.2,0.1-0.2,0.2c-0.2,0.1-0.4,0.2-0.6,0.2c-0.4,0-0.9-0.2-1-0.6C123.1,28.8,127.6,26,129,25.1L129,25.1z"/>
		<path id="XMLID_136321_" class="st2" d="M149,22.5h2.2v2.2h-1.8l-2.2,2v1.4H145v-1.4c-0.6-0.6-1.4-1.3-2.1-1.8h-1.6
			c-1.1,0.9-2.8,2.3-3.9,3.1v1.5h-2.2v-2.2h2l4-3.1v-1.5h2.2v1.6c0.6,0.4,1.3,1,1.9,1.5h1.9c0.6-0.6,1.4-1.2,1.9-1.8V22.5z"/>
	</g>
</g>
</svg>
