<?xml version="1.0" encoding="utf-8"?>
<!-- Generator: Adobe Illustrator 19.0.0, SVG Export Plug-In . SVG Version: 6.00 Build 0)  -->
<svg version="1.1" id="Capa_1" xmlns="http://www.w3.org/2000/svg" xmlns:xlink="http://www.w3.org/1999/xlink" x="0px" y="0px"
	 viewBox="0 0 429.1 61.5" style="enable-background:new 0 0 429.1 61.5;" xml:space="preserve">
<style type="text/css">
	.st0{fill:#E54A3F;}
	.st1{fill:#FFFFFF;}
	.st2{fill-rule:evenodd;clip-rule:evenodd;fill:#727270;}
	.st3{fill-rule:evenodd;clip-rule:evenodd;fill:#FFFFFF;}
</style>
<g id="XMLID_1_">
	<g id="XMLID_741_">
		<polygon id="XMLID_744_" class="st0" points="56.5,6.8 32.1,54.3 374.1,54.3 398.6,6.8 		"/>
		<polygon id="XMLID_743_" class="st0" points="32.9,41 54,0 10.3,0 20.8,20.5 0,41 		"/>
		<polygon id="XMLID_742_" class="st0" points="429.1,20.5 398.5,20.5 377.4,61.5 419.3,61.5 409.1,41 		"/>
	</g>
	<g id="XMLID_2_">
		<path id="XMLID_3_" class="st1" d="M152,29c-0.2,0.5-0.5,1-0.9,1.4s-0.8,0.7-1.4,0.9c-0.5,0.2-1.1,0.3-1.7,0.3h-4v6.7h-1.6V20.8
			h5.5c0.6,0,1.2,0.1,1.7,0.3c0.5,0.2,1,0.5,1.4,0.9s0.7,0.8,0.9,1.4c0.2,0.5,0.3,1.1,0.3,1.7v2.2C152.3,27.9,152.2,28.5,152,29z
			 M150.7,25.2c0-0.4-0.1-0.8-0.2-1.1s-0.3-0.6-0.6-0.9c-0.3-0.3-0.6-0.5-0.9-0.6c-0.3-0.1-0.7-0.2-1.1-0.2H144v7.8h3.9
			c0.4,0,0.8-0.1,1.1-0.2c0.3-0.1,0.6-0.3,0.9-0.6c0.3-0.3,0.5-0.5,0.6-0.9c0.1-0.3,0.2-0.7,0.2-1.1V25.2z"/>
		<path id="XMLID_6_" class="st1" d="M163.5,38.4l-4.7-7.5h-2.2v7.5H155V20.8h5.6c0.6,0,1.2,0.1,1.7,0.3c0.5,0.2,1,0.5,1.4,0.9
			s0.7,0.8,0.9,1.4c0.2,0.5,0.3,1.1,0.3,1.7v1.4c0,0.6-0.1,1.2-0.3,1.7c-0.2,0.5-0.5,1-0.9,1.4s-0.8,0.7-1.4,0.9
			c-0.5,0.2-1.1,0.3-1.7,0.3l4.7,7.5H163.5z M163.3,25.2c0-0.4-0.1-0.8-0.2-1.1s-0.3-0.6-0.6-0.9c-0.3-0.3-0.5-0.5-0.9-0.6
			c-0.3-0.1-0.7-0.2-1.1-0.2h-3.9v7h3.9c0.4,0,0.8-0.1,1.1-0.2c0.3-0.1,0.6-0.3,0.9-0.6c0.3-0.3,0.5-0.6,0.6-0.9
			c0.1-0.3,0.2-0.7,0.2-1.1V25.2z"/>
		<path id="XMLID_9_" class="st1" d="M177.6,36c-0.2,0.5-0.5,1-0.9,1.4s-0.8,0.7-1.4,0.9c-0.5,0.2-1.1,0.3-1.7,0.3h-1.2
			c-0.6,0-1.2-0.1-1.7-0.3c-0.5-0.2-1-0.5-1.4-0.9s-0.7-0.8-0.9-1.4c-0.2-0.5-0.3-1.1-0.3-1.7v-9.4c0-0.6,0.1-1.2,0.3-1.7
			c0.2-0.5,0.5-1,0.9-1.4s0.8-0.7,1.4-0.9c0.5-0.2,1.1-0.3,1.7-0.3h1.2c0.6,0,1.2,0.1,1.7,0.3c0.5,0.2,1,0.5,1.4,0.9
			s0.7,0.8,0.9,1.4c0.2,0.5,0.3,1.1,0.3,1.7v9.4C177.9,34.9,177.8,35.4,177.6,36z M176.4,24.9c0-0.4-0.1-0.8-0.2-1.1
			c-0.1-0.3-0.3-0.6-0.6-0.9c-0.3-0.3-0.5-0.5-0.9-0.6c-0.3-0.1-0.7-0.2-1.1-0.2h-1.1c-0.4,0-0.8,0.1-1.1,0.2
			c-0.3,0.1-0.6,0.3-0.9,0.6c-0.3,0.3-0.5,0.5-0.6,0.9c-0.1,0.3-0.2,0.7-0.2,1.1v9.4c0,0.4,0.1,0.8,0.2,1.1s0.3,0.6,0.6,0.9
			c0.3,0.3,0.6,0.5,0.9,0.6c0.3,0.1,0.7,0.2,1.1,0.2h1.1c0.4,0,0.8-0.1,1.1-0.2c0.3-0.1,0.6-0.3,0.9-0.6c0.3-0.3,0.5-0.6,0.6-0.9
			s0.2-0.7,0.2-1.1V24.9z"/>
		<path id="XMLID_12_" class="st1" d="M185.8,30v8.4h-1.6V30l-4.5-9.2h1.7l3.6,7.3l3.6-7.3h1.7L185.8,30z"/>
		<path id="XMLID_14_" class="st1" d="M192.8,38.4V20.8h9.9v1.5h-8.3v6.5h6.7v1.5h-6.7v6.5h8.3v1.5H192.8z"/>
		<path id="XMLID_16_" class="st1" d="M214.9,36c-0.2,0.5-0.5,1-0.9,1.4s-0.8,0.7-1.4,0.9c-0.5,0.2-1.1,0.3-1.7,0.3h-1.2
			c-0.6,0-1.2-0.1-1.7-0.3c-0.5-0.2-1-0.5-1.4-0.9s-0.7-0.8-0.9-1.4c-0.2-0.5-0.3-1.1-0.3-1.7v-9.4c0-0.6,0.1-1.2,0.3-1.7
			c0.2-0.5,0.5-1,0.9-1.4s0.8-0.7,1.4-0.9c0.5-0.2,1.1-0.3,1.7-0.3h1.2c0.6,0,1.2,0.1,1.7,0.3c0.5,0.2,1,0.5,1.4,0.9
			s0.7,0.8,0.9,1.4c0.2,0.5,0.3,1.1,0.3,1.7v0.7l-1.6,0.2v-1c0-0.4-0.1-0.8-0.2-1.1c-0.1-0.3-0.3-0.6-0.6-0.9
			c-0.3-0.3-0.5-0.5-0.9-0.6c-0.3-0.1-0.7-0.2-1.1-0.2h-1.1c-0.4,0-0.8,0.1-1.1,0.2c-0.3,0.1-0.6,0.3-0.9,0.6
			c-0.3,0.3-0.5,0.5-0.6,0.9c-0.1,0.3-0.2,0.7-0.2,1.1v9.4c0,0.4,0.1,0.8,0.2,1.1s0.3,0.6,0.6,0.9c0.3,0.3,0.6,0.5,0.9,0.6
			c0.3,0.1,0.7,0.2,1.1,0.2h1.1c0.4,0,0.8-0.1,1.1-0.2c0.3-0.1,0.6-0.3,0.9-0.6c0.3-0.3,0.5-0.6,0.6-0.9s0.2-0.7,0.2-1.1v-1l1.6,0.3
			v0.7C215.3,34.9,215.1,35.4,214.9,36z"/>
		<path id="XMLID_18_" class="st1" d="M223,22.3v16h-1.6v-16h-4.2v-1.5h9.9v1.5H223z"/>
		<path id="XMLID_20_" class="st1" d="M238.9,36c-0.2,0.5-0.5,1-0.9,1.4s-0.8,0.7-1.4,0.9c-0.5,0.2-1.1,0.3-1.7,0.3h-1.2
			c-0.6,0-1.2-0.1-1.7-0.3c-0.5-0.2-1-0.5-1.4-0.9s-0.7-0.8-0.9-1.4c-0.2-0.5-0.3-1.1-0.3-1.7v-9.4c0-0.6,0.1-1.2,0.3-1.7
			c0.2-0.5,0.5-1,0.9-1.4s0.8-0.7,1.4-0.9c0.5-0.2,1.1-0.3,1.7-0.3h1.2c0.6,0,1.2,0.1,1.7,0.3c0.5,0.2,1,0.5,1.4,0.9
			s0.7,0.8,0.9,1.4c0.2,0.5,0.3,1.1,0.3,1.7v9.4C239.3,34.9,239.2,35.4,238.9,36z M237.7,24.9c0-0.4-0.1-0.8-0.2-1.1
			c-0.1-0.3-0.3-0.6-0.6-0.9c-0.3-0.3-0.5-0.5-0.9-0.6c-0.3-0.1-0.7-0.2-1.1-0.2h-1.1c-0.4,0-0.8,0.1-1.1,0.2s-0.6,0.3-0.9,0.6
			c-0.3,0.3-0.5,0.5-0.6,0.9c-0.1,0.3-0.2,0.7-0.2,1.1v9.4c0,0.4,0.1,0.8,0.2,1.1s0.3,0.6,0.6,0.9c0.3,0.3,0.6,0.5,0.9,0.6
			s0.7,0.2,1.1,0.2h1.1c0.4,0,0.8-0.1,1.1-0.2c0.3-0.1,0.6-0.3,0.9-0.6c0.3-0.3,0.5-0.6,0.6-0.9s0.2-0.7,0.2-1.1V24.9z"/>
		<path id="XMLID_24_" class="st1" d="M258.3,35.7c-0.2,0.5-0.5,1-0.9,1.4s-0.8,0.7-1.4,0.9c-0.5,0.2-1.1,0.3-1.7,0.3h-5.5V20.8h5.5
			c0.6,0,1.2,0.1,1.7,0.3c0.5,0.2,1,0.5,1.4,0.9s0.7,0.8,0.9,1.4c0.2,0.5,0.3,1.1,0.3,1.7v8.9C258.6,34.6,258.5,35.2,258.3,35.7z
			 M257.1,25.2c0-0.4-0.1-0.8-0.2-1.1s-0.3-0.6-0.6-0.9c-0.3-0.3-0.6-0.5-0.9-0.6c-0.3-0.1-0.7-0.2-1.1-0.2h-3.9v14.5h3.9
			c0.4,0,0.8-0.1,1.1-0.2c0.3-0.1,0.6-0.3,0.9-0.6c0.3-0.3,0.5-0.5,0.6-0.9s0.2-0.7,0.2-1.1V25.2z"/>
		<path id="XMLID_27_" class="st1" d="M262.4,38.4V20.8h9.9v1.5H264v6.5h6.7v1.5H264v6.5h8.3v1.5H262.4z"/>
		<path id="XMLID_29_" class="st1" d="M284.7,34.5l0,0.6L284.7,34.5l4-13.7h1.6l-5.2,17.5h-0.8l-5.1-17.5h1.6L284.7,34.5z"/>
		<path id="XMLID_31_" class="st1" d="M292.6,38.4V20.8h1.6v17.5H292.6z"/>
		<path id="XMLID_33_" class="st1" d="M307.7,35.7c-0.2,0.5-0.5,1-0.9,1.4s-0.8,0.7-1.4,0.9c-0.5,0.2-1.1,0.3-1.7,0.3h-5.5V20.8h5.5
			c0.6,0,1.2,0.1,1.7,0.3c0.5,0.2,1,0.5,1.4,0.9s0.7,0.8,0.9,1.4c0.2,0.5,0.3,1.1,0.3,1.7v8.9C308,34.6,307.9,35.2,307.7,35.7z
			 M306.4,25.2c0-0.4-0.1-0.8-0.2-1.1s-0.3-0.6-0.6-0.9c-0.3-0.3-0.6-0.5-0.9-0.6s-0.7-0.2-1.1-0.2h-3.9v14.5h3.9
			c0.4,0,0.8-0.1,1.1-0.2s0.6-0.3,0.9-0.6c0.3-0.3,0.5-0.5,0.6-0.9s0.2-0.7,0.2-1.1V25.2z"/>
		<path id="XMLID_36_" class="st1" d="M318.3,34.3h-5.5l-1.1,4.1H310l5.1-17.5h0.8l5.2,17.5h-1.6L318.3,34.3z M313.2,32.8h4.7
			l-2.3-8.1l0-0.6l0,0.6L313.2,32.8z"/>
	</g>
	<g id="XMLID_504_">
		<polygon id="XMLID_510_" class="st2" points="102,43.8 102,43.8 105.6,43.8 105.6,33.2 102,33.2 		"/>
		<polygon id="XMLID_509_" class="st2" points="108.3,43.8 108.3,43.8 111.9,43.8 111.9,30 108.3,30 		"/>
		<path id="XMLID_508_" class="st3" d="M121.1,23.1L121.1,23.1c0-1.3-1.1-2.4-2.5-2.4c-1.3,0-2.4,1.1-2.4,2.4c0,1.4,1.1,2.5,2.4,2.5
			C120,25.6,121.1,24.5,121.1,23.1L121.1,23.1z"/>
		<path id="XMLID_507_" class="st3" d="M123.8,32.9L123.8,32.9c-0.5-3.8-1.4-5.5-3.5-6.8c-0.3-0.2-0.7-0.3-1-0.4h-1.2
			c-0.5,0.1-0.9,0.3-1.2,0.6c-1.9,1.3-2.7,2.9-3.2,6.6c-0.1,0.5,0.3,1,0.8,1.1c0.1,0,0.1,0,0.1,0c0.5,0,0.8-0.3,0.9-0.8
			c0.2-1.3,0.4-2.3,0.7-3v3c0,0.2,0.1,0.5,0.1,0.7V34v9.1c0,0.5,0.5,1.1,1.1,1.1c0.6,0,1.1-0.5,1.1-1.1v-7.7c0.1,0,0.1,0,0.1,0
			s0,0,0.1,0v7.7c0,0.5,0.5,1.1,1.1,1.1c0.6,0,1.1-0.5,1.1-1.1v-9c0.1-0.3,0.3-0.5,0.3-0.9v-3.3c0.3,0.8,0.5,1.8,0.8,3.3
			c0.1,0.5,0.5,0.8,1,0.8c0,0,0.1,0,0.1,0C123.5,33.9,123.9,33.5,123.8,32.9L123.8,32.9z"/>
		<polygon id="XMLID_506_" class="st2" points="95.8,43.8 95.8,43.8 99.4,43.8 99.4,36.1 95.8,36.1 		"/>
		<path id="XMLID_505_" class="st3" d="M93.7,32.3c-0.1,0-0.2,0.1-0.3,0.1c-0.9,0-1.6-0.7-1.8-1.5c-0.2-1,0.5-2,1.4-2.1
			c4.5-0.8,9.3-3.2,14.3-6.8l-2.1-2.5l10.1-1.7l-3.6,9.6l-2.1-2.5C104,28.9,98.8,31.4,93.7,32.3L93.7,32.3z"/>
	</g>
</g>
</svg>
