<?xml version="1.0" encoding="utf-8"?>
<!-- Generator: Adobe Illustrator 19.0.0, SVG Export Plug-In . SVG Version: 6.00 Build 0)  -->
<svg version="1.1" id="Capa_1" xmlns="http://www.w3.org/2000/svg" xmlns:xlink="http://www.w3.org/1999/xlink" x="0px" y="0px"
	 viewBox="0 0 429.1 61.5" style="enable-background:new 0 0 429.1 61.5;" xml:space="preserve">
<style type="text/css">
	.st0{fill:#E54A3F;}
	.st1{fill:#FFFFFF;}
	.st2{fill-rule:evenodd;clip-rule:evenodd;fill:#727270;}
	.st3{fill-rule:evenodd;clip-rule:evenodd;fill:#FFFFFF;}
	.st4{fill-rule:evenodd;clip-rule:evenodd;fill:#E54A3F;}
</style>
<g id="XMLID_1_">
	<g id="XMLID_2_">
		<polygon id="XMLID_5_" class="st0" points="56.5,6.8 32.1,54.3 374.1,54.3 398.6,6.8 		"/>
		<polygon id="XMLID_10_" class="st0" points="32.9,41 54,0 10.3,0 20.8,20.5 0,41 		"/>
		<polygon id="XMLID_11_" class="st0" points="429.1,20.5 398.5,20.5 377.4,61.5 419.3,61.5 409.1,41 		"/>
	</g>
	<g id="XMLID_3_">
		<path id="XMLID_4_" class="st1" d="M145.2,39.9V22.4h1.6v17.5H145.2z"/>
		<path id="XMLID_7_" class="st1" d="M159.8,39.9l-7.3-12.7l-0.1-0.8v13.5h-1.6V22.4h0.8l7.3,12.8l0.2,0.7V22.4h1.6v17.5H159.8z"/>
		<path id="XMLID_9_" class="st1" d="M168.9,23.9v16h-1.6v-16h-4.2v-1.5h9.9v1.5H168.9z"/>
		<path id="XMLID_13_" class="st1" d="M183.8,39.9l-4.7-7.5h-2.2v7.5h-1.6V22.4h5.6c0.6,0,1.2,0.1,1.7,0.3c0.5,0.2,1,0.5,1.4,0.9
			s0.7,0.8,0.9,1.4c0.2,0.5,0.3,1.1,0.3,1.7v1.4c0,0.6-0.1,1.2-0.3,1.7c-0.2,0.5-0.5,1-0.9,1.4s-0.8,0.7-1.4,0.9
			c-0.5,0.2-1.1,0.3-1.7,0.3l4.7,7.5H183.8z M183.6,26.7c0-0.4-0.1-0.8-0.2-1.1s-0.3-0.6-0.6-0.9c-0.3-0.3-0.5-0.5-0.9-0.6
			c-0.3-0.1-0.7-0.2-1.1-0.2h-3.9v7h3.9c0.4,0,0.8-0.1,1.1-0.2c0.3-0.1,0.6-0.3,0.9-0.6c0.3-0.3,0.5-0.6,0.6-0.9
			c0.1-0.3,0.2-0.7,0.2-1.1V26.7z"/>
		<path id="XMLID_16_" class="st1" d="M197.9,37.5c-0.2,0.5-0.5,1-0.9,1.4s-0.8,0.7-1.4,0.9c-0.5,0.2-1.1,0.3-1.7,0.3h-1.2
			c-0.6,0-1.2-0.1-1.7-0.3c-0.5-0.2-1-0.5-1.4-0.9s-0.7-0.8-0.9-1.4c-0.2-0.5-0.3-1.1-0.3-1.7v-9.4c0-0.6,0.1-1.2,0.3-1.7
			c0.2-0.5,0.5-1,0.9-1.4s0.8-0.7,1.4-0.9c0.5-0.2,1.1-0.3,1.7-0.3h1.2c0.6,0,1.2,0.1,1.7,0.3c0.5,0.2,1,0.5,1.4,0.9
			s0.7,0.8,0.9,1.4c0.2,0.5,0.3,1.1,0.3,1.7v9.4C198.2,36.4,198.1,37,197.9,37.5z M196.6,26.4c0-0.4-0.1-0.8-0.2-1.1
			c-0.1-0.3-0.3-0.6-0.6-0.9c-0.3-0.3-0.5-0.5-0.9-0.6c-0.3-0.1-0.7-0.2-1.1-0.2h-1.1c-0.4,0-0.8,0.1-1.1,0.2
			c-0.3,0.1-0.6,0.3-0.9,0.6c-0.3,0.3-0.5,0.5-0.6,0.9c-0.1,0.3-0.2,0.7-0.2,1.1v9.4c0,0.4,0.1,0.8,0.2,1.1s0.3,0.6,0.6,0.9
			c0.3,0.3,0.6,0.5,0.9,0.6c0.3,0.1,0.7,0.2,1.1,0.2h1.1c0.4,0,0.8-0.1,1.1-0.2c0.3-0.1,0.6-0.3,0.9-0.6c0.3-0.3,0.5-0.6,0.6-0.9
			s0.2-0.7,0.2-1.1V26.4z"/>
		<path id="XMLID_19_" class="st1" d="M211.5,37.2c-0.2,0.5-0.5,1-0.9,1.4s-0.8,0.7-1.4,0.9c-0.5,0.2-1.1,0.3-1.7,0.3H202V22.4h5.5
			c0.6,0,1.2,0.1,1.7,0.3c0.5,0.2,1,0.5,1.4,0.9s0.7,0.8,0.9,1.4c0.2,0.5,0.3,1.1,0.3,1.7v8.9C211.8,36.2,211.7,36.7,211.5,37.2z
			 M210.2,26.7c0-0.4-0.1-0.8-0.2-1.1s-0.3-0.6-0.6-0.9c-0.3-0.3-0.6-0.5-0.9-0.6c-0.3-0.1-0.7-0.2-1.1-0.2h-3.9v14.5h3.9
			c0.4,0,0.8-0.1,1.1-0.2c0.3-0.1,0.6-0.3,0.9-0.6c0.3-0.3,0.5-0.5,0.6-0.9s0.2-0.7,0.2-1.1V26.7z"/>
		<path id="XMLID_22_" class="st1" d="M224.8,37.5c-0.2,0.5-0.5,1-0.9,1.4s-0.8,0.7-1.4,0.9s-1.1,0.3-1.7,0.3h-1.2
			c-0.6,0-1.2-0.1-1.7-0.3c-0.5-0.2-1-0.5-1.4-0.9s-0.7-0.8-0.9-1.4c-0.2-0.5-0.3-1.1-0.3-1.7V22.4h1.6v13.5c0,0.4,0.1,0.8,0.2,1.1
			s0.3,0.6,0.6,0.9c0.3,0.3,0.6,0.5,0.9,0.6s0.7,0.2,1.1,0.2h1.1c0.4,0,0.8-0.1,1.1-0.2s0.6-0.3,0.9-0.6c0.3-0.3,0.5-0.6,0.6-0.9
			s0.2-0.7,0.2-1.1V22.4h1.6v13.5C225.1,36.4,225,37,224.8,37.5z"/>
		<path id="XMLID_24_" class="st1" d="M238.2,37.5c-0.2,0.5-0.5,1-0.9,1.4s-0.8,0.7-1.4,0.9c-0.5,0.2-1.1,0.3-1.7,0.3H233
			c-0.6,0-1.2-0.1-1.7-0.3s-1-0.5-1.4-0.9s-0.7-0.8-0.9-1.4c-0.2-0.5-0.3-1.1-0.3-1.7v-9.4c0-0.6,0.1-1.2,0.3-1.7
			c0.2-0.5,0.5-1,0.9-1.4s0.8-0.7,1.4-0.9s1.1-0.3,1.7-0.3h1.2c0.6,0,1.2,0.1,1.7,0.3c0.5,0.2,1,0.5,1.4,0.9s0.7,0.8,0.9,1.4
			c0.2,0.5,0.3,1.1,0.3,1.7v0.7l-1.6,0.2v-1c0-0.4-0.1-0.8-0.2-1.1c-0.1-0.3-0.3-0.6-0.6-0.9c-0.3-0.3-0.5-0.5-0.9-0.6
			c-0.3-0.1-0.7-0.2-1.1-0.2H233c-0.4,0-0.8,0.1-1.1,0.2c-0.3,0.1-0.6,0.3-0.9,0.6s-0.5,0.5-0.6,0.9c-0.1,0.3-0.2,0.7-0.2,1.1v9.4
			c0,0.4,0.1,0.8,0.2,1.1s0.3,0.6,0.6,0.9c0.3,0.3,0.6,0.5,0.9,0.6c0.3,0.1,0.7,0.2,1.1,0.2h1.1c0.4,0,0.8-0.1,1.1-0.2
			c0.3-0.1,0.6-0.3,0.9-0.6c0.3-0.3,0.5-0.6,0.6-0.9s0.2-0.7,0.2-1.1v-1l1.6,0.3v0.7C238.5,36.4,238.4,37,238.2,37.5z"/>
		<path id="XMLID_26_" class="st1" d="M251.3,37.5c-0.2,0.5-0.5,1-0.9,1.4s-0.8,0.7-1.4,0.9c-0.5,0.2-1.1,0.3-1.7,0.3h-1.2
			c-0.6,0-1.2-0.1-1.7-0.3c-0.5-0.2-1-0.5-1.4-0.9s-0.7-0.8-0.9-1.4c-0.2-0.5-0.3-1.1-0.3-1.7v-9.4c0-0.6,0.1-1.2,0.3-1.7
			c0.2-0.5,0.5-1,0.9-1.4s0.8-0.7,1.4-0.9c0.5-0.2,1.1-0.3,1.7-0.3h1.2c0.6,0,1.2,0.1,1.7,0.3c0.5,0.2,1,0.5,1.4,0.9
			s0.7,0.8,0.9,1.4c0.2,0.5,0.3,1.1,0.3,1.7v0.7l-1.6,0.2v-1c0-0.4-0.1-0.8-0.2-1.1c-0.1-0.3-0.3-0.6-0.6-0.9s-0.5-0.5-0.9-0.6
			s-0.7-0.2-1.1-0.2h-1.1c-0.4,0-0.8,0.1-1.1,0.2c-0.3,0.1-0.6,0.3-0.9,0.6c-0.3,0.3-0.5,0.5-0.6,0.9c-0.1,0.3-0.2,0.7-0.2,1.1v9.4
			c0,0.4,0.1,0.8,0.2,1.1s0.3,0.6,0.6,0.9c0.3,0.3,0.6,0.5,0.9,0.6c0.3,0.1,0.7,0.2,1.1,0.2h1.1c0.4,0,0.8-0.1,1.1-0.2
			s0.6-0.3,0.9-0.6c0.3-0.3,0.5-0.6,0.6-0.9s0.2-0.7,0.2-1.1v-1l1.6,0.3v0.7C251.6,36.4,251.5,37,251.3,37.5z"/>
		<path id="XMLID_28_" class="st1" d="M255.1,39.9V22.4h1.6v17.5H255.1z"/>
		<path id="XMLID_30_" class="st1" d="M269.9,37.5c-0.2,0.5-0.5,1-0.9,1.4s-0.8,0.7-1.4,0.9c-0.5,0.2-1.1,0.3-1.7,0.3h-1.2
			c-0.6,0-1.2-0.1-1.7-0.3c-0.5-0.2-1-0.5-1.4-0.9s-0.7-0.8-0.9-1.4c-0.2-0.5-0.3-1.1-0.3-1.7v-9.4c0-0.6,0.1-1.2,0.3-1.7
			c0.2-0.5,0.5-1,0.9-1.4s0.8-0.7,1.4-0.9c0.5-0.2,1.1-0.3,1.7-0.3h1.2c0.6,0,1.2,0.1,1.7,0.3c0.5,0.2,1,0.5,1.4,0.9
			s0.7,0.8,0.9,1.4c0.2,0.5,0.3,1.1,0.3,1.7v9.4C270.3,36.4,270.2,37,269.9,37.5z M268.7,26.4c0-0.4-0.1-0.8-0.2-1.1
			c-0.1-0.3-0.3-0.6-0.6-0.9c-0.3-0.3-0.5-0.5-0.9-0.6c-0.3-0.1-0.7-0.2-1.1-0.2h-1.1c-0.4,0-0.8,0.1-1.1,0.2s-0.6,0.3-0.9,0.6
			c-0.3,0.3-0.5,0.5-0.6,0.9c-0.1,0.3-0.2,0.7-0.2,1.1v9.4c0,0.4,0.1,0.8,0.2,1.1s0.3,0.6,0.6,0.9c0.3,0.3,0.6,0.5,0.9,0.6
			s0.7,0.2,1.1,0.2h1.1c0.4,0,0.8-0.1,1.1-0.2c0.3-0.1,0.6-0.3,0.9-0.6c0.3-0.3,0.5-0.6,0.6-0.9s0.2-0.7,0.2-1.1V26.4z M265,20.4
			h-1.1l2-3h2.5L265,20.4z"/>
		<path id="XMLID_35_" class="st1" d="M283.1,39.9l-7.3-12.7l-0.1-0.8v13.5H274V22.4h0.8l7.3,12.8l0.2,0.7V22.4h1.6v17.5H283.1z"/>
	</g>
	<g id="XMLID_119_">
		<path id="XMLID_251_" class="st2" d="M119.2,19.1L119.2,19.1c-5.2,0-9.5,4.3-9.5,9.4c0,3.5,1.2,5.5,2.3,7c1.2,1.4,2.9,6,2.9,7.7
			c0,0.6,0.3,1.4,2,2c0.3,0.3,1,1.2,1.4,1.2h2c0.4,0,1.3-1,1.5-1.2c1.7-0.6,2-1.7,2-2c0-1.7,1.7-6.3,2.9-7.7c1.1-1.5,2.3-3.5,2.3-7
			C129,23.4,124.6,19.1,119.2,19.1L119.2,19.1z"/>
		<path id="XMLID_250_" class="st3" d="M124.6,34L124.6,34c-1.4,2-1.7,6.3-2.3,6.6h-6c-0.6-0.3-1.1-4.6-2.3-6.6
			c-0.8-1.4-2-2.8-2-5.5c0-3.7,3.2-6.8,7.2-6.8c4,0,7.5,3.1,7.5,6.8C126.7,31.2,125.5,32.6,124.6,34L124.6,34z"/>
		<path id="XMLID_249_" class="st4" d="M118.6,33.5L118.6,33.5l-0.6-4.6c-0.2-0.4-0.2-0.6-0.2-0.9v-2c0-0.9,0.5-1.5,1.4-1.5
			c1.1,0,1.7,0.6,1.7,1.5v2c0,0.3-0.3,0.5-0.3,0.9l-0.5,4.6c0,0.5-0.3,0.5-0.9,0.5C118.9,34,118.6,34,118.6,33.5L118.6,33.5z"/>
		<polygon id="XMLID_247_" class="st3" points="134.3,28.4 134.3,28.4 134.3,29.5 129.6,29.5 129.6,28.4 		"/>
		<polygon id="XMLID_213_" class="st3" points="132,20.9 132,20.9 132.6,21.9 128.6,24.3 128,23.3 		"/>
		<polygon id="XMLID_211_" class="st3" points="126.3,15.6 126.3,15.6 127.3,16.2 124.9,20.2 124,19.7 		"/>
		<polygon id="XMLID_205_" class="st3" points="104.2,29.5 104.2,29.5 104.2,28.4 108.9,28.4 108.9,29.5 		"/>
		<polygon id="XMLID_125_" class="st3" points="105.9,21.9 105.9,21.9 106.5,20.9 110.6,23.3 110,24.3 		"/>
		<polygon id="XMLID_123_" class="st3" points="111.2,16.2 111.2,16.2 112.2,15.6 114.6,19.7 113.6,20.2 		"/>
		<polygon id="XMLID_121_" class="st3" points="118.7,13.9 118.7,13.9 119.8,13.9 119.8,18.6 118.7,18.6 		"/>
		<path id="XMLID_120_" class="st4" d="M119.3,34.9c0.6,0,1,0.4,1,1c0,0.5-0.4,1-1,1c-0.5,0-1-0.4-1-1
			C118.3,35.3,118.8,34.9,119.3,34.9L119.3,34.9z"/>
	</g>
</g>
</svg>
