<?xml version="1.0" encoding="utf-8"?>
<!-- Generator: Adobe Illustrator 19.0.0, SVG Export Plug-In . SVG Version: 6.00 Build 0)  -->
<svg version="1.1" id="Capa_1" xmlns="http://www.w3.org/2000/svg" xmlns:xlink="http://www.w3.org/1999/xlink" x="0px" y="0px"
	 viewBox="0 0 40 40" style="enable-background:new 0 0 40 40;" xml:space="preserve">
<style type="text/css">
	.st0{fill:#75C6F0;}
	.st1{fill-rule:evenodd;clip-rule:evenodd;fill:none;}
	.st2{fill:#3B86B1;}
</style>
<g id="XMLID_1031_">
	<rect id="XMLID_1046_" x="0" class="st0" width="40" height="40"/>
	<g id="XMLID_1032_">
		<g id="XMLID_1042_">
			<rect id="XMLID_1043_" x="0" class="st1" width="40" height="40"/>
		</g>
		<g id="XMLID_1033_">
			<g id="XMLID_69_">
				<path id="XMLID_73_" class="st2" d="M28.9,19.3l-8.5-7c-0.4-0.3-1-0.3-1.3,0l-8.5,7c-0.2,0.2-0.4,0.5-0.4,0.8v10.5
					c0,0.6,0.5,1.1,1.1,1.1h16.9c0.6,0,1.1-0.5,1.1-1.1V20.1C29.2,19.8,29.1,19.5,28.9,19.3L28.9,19.3z M20.9,29.5h-2.2v-5.9h2.2
					V29.5z M27.1,29.5H23v-6.9c0-0.6-0.5-1.1-1.1-1.1h-4.4c-0.6,0-1.1,0.5-1.1,1.1v6.9h-4.2v-9l7.4-6.1l7.4,6.1V29.5z M27.1,29.5"/>
				<path id="XMLID_70_" class="st2" d="M31.8,17.1c-2.4-1.9-4.6-3.7-7-5.7c-0.7-0.6-1.5-1.3-2.2-1.9c-0.7-0.6-1.5-1.2-2.1-1.8
					c-0.4-0.4-1-0.4-1.4,0c-0.7,0.6-1.4,1.2-2.1,1.8c-0.7,0.6-1.5,1.2-2.2,1.9c-2.4,2-4.6,3.8-7,5.7c-0.5,0.4-0.5,1-0.2,1.5
					c0.4,0.5,1,0.5,1.5,0.2c2.4-1.9,4.6-3.7,7-5.7c0,0,0,0,0,0c0.7-0.6,1.4-1.2,2.1-1.8c0.5-0.4,1-0.8,1.5-1.3
					c0.5,0.4,1,0.8,1.5,1.3c0.7,0.6,1.5,1.2,2.1,1.8c0,0,0,0,0,0c2.4,2,4.7,3.8,7,5.7c0.2,0.2,0.4,0.2,0.7,0.2
					c0.3,0,0.6-0.1,0.8-0.4C32.3,18.2,32.3,17.5,31.8,17.1L31.8,17.1z M31.8,17.1"/>
			</g>
		</g>
	</g>
</g>
</svg>
