<?xml version="1.0" encoding="utf-8"?>
<!-- Generator: Adobe Illustrator 19.0.0, SVG Export Plug-In . SVG Version: 6.00 Build 0)  -->
<svg version="1.1" id="Capa_1" xmlns="http://www.w3.org/2000/svg" xmlns:xlink="http://www.w3.org/1999/xlink" x="0px" y="0px"
	 viewBox="-462 263.5 34.5 34.5" style="enable-background:new -462 263.5 34.5 34.5;" xml:space="preserve">
<style type="text/css">
	.st0{fill:#F4941B;}
	.st1{fill:#F4941B;stroke:#FFFFFF;stroke-width:1.7139;stroke-miterlimit:10;}
	.st2{fill:#FFFFFF;}
</style>
<path id="XMLID_1_" class="st0" d="M-444.8,267.3L-444.8,267.3c-7.4,0-13.5,6.1-13.5,13.5s6.1,13.5,13.5,13.5s13.5-6.1,13.5-13.5
	C-431.3,273.3-437.3,267.3-444.8,267.3"/>
<g id="XMLID_2129_">
	<path id="XMLID_2305_" class="st1" d="M-439,275c1,1,1,2.5,0,3.5l-2.2,2.2l2.2,2.2c1,1,1,2.5,0,3.5s-2.5,1-3.5,0l-2.2-2.2l-2.2,2.2
		c-1,1-2.5,1-3.5,0s-1-2.5,0-3.5l2.2-2.2l-2.2-2.2c-1-1-1-2.5,0-3.5s2.5-1,3.5,0l2.2,2.2l2.2-2.2C-441.5,274.1-440,274.1-439,275
		L-439,275z"/>
	<path id="XMLID_2293_" class="st2" d="M-444.8,298c-9.5,0-17.3-7.7-17.3-17.3c0-9.5,7.7-17.3,17.3-17.3c9.5,0,17.3,7.7,17.3,17.3
		S-435.3,298-444.8,298L-444.8,298z M-444.8,267.3c-7.4,0-13.5,6.1-13.5,13.5s6.1,13.5,13.5,13.5s13.5-6.1,13.5-13.5
		C-431.3,273.3-437.3,267.3-444.8,267.3L-444.8,267.3z"/>
</g>
</svg>
