<?xml version="1.0" encoding="utf-8"?>
<!-- Generator: Adobe Illustrator 19.0.0, SVG Export Plug-In . SVG Version: 6.00 Build 0)  -->
<svg version="1.1" id="Capa_1" xmlns="http://www.w3.org/2000/svg" xmlns:xlink="http://www.w3.org/1999/xlink" x="0px" y="0px"
	 viewBox="-365 255.424 228.0517 50.576" style="enable-background:new -365 255.424 228.0517 50.576;" xml:space="preserve">
<style type="text/css">
	.st0{fill:#EB631D;}
	.st1{fill:#FFFFFF;}
</style>
<g id="XMLID_759_">
	<polygon id="XMLID_782_" class="st0" points="-162.7842,255.4241 -140.9741,280.7121 -162.7842,306 -182.6376,306 
		-160.8275,280.7121 -182.6376,255.4241 -162.7842,255.4241 	"/>
</g>
<g id="XMLID_729_">
	<polygon id="XMLID_756_" class="st0" points="-339.164,305.9998 -360.9741,280.7119 -339.164,255.424 -319.3106,255.424 
		-341.1207,280.7119 -319.3106,305.9998 -339.164,305.9998 	"/>
</g>
<polygon id="XMLID_630_" class="st0" points="-313.3032,255.424 -188.6451,255.4241 -166.835,280.7121 -188.6451,306 
	-313.3032,305.9998 -335.1133,280.7119 "/>
<g>
	<g>
		<path class="st1" d="M-312.0352,287.5891v-15.0493h3.0381v15.0493H-312.0352z"/>
		<path class="st1" d="M-296.2061,287.5891h-2.8848v-5.5635c0-1.1772-0.0615-1.939-0.1846-2.2847
			c-0.123-0.3452-0.3232-0.6138-0.6006-0.8057c-0.2773-0.1914-0.6113-0.2876-1.001-0.2876c-0.5,0-0.9482,0.1372-1.3447,0.4106
			c-0.3975,0.2739-0.6689,0.6367-0.8164,1.0884s-0.2207,1.2871-0.2207,2.5049v4.9375h-2.8848v-10.9019h2.6797v1.6016
			c0.9512-1.2319,2.1484-1.8481,3.5928-1.8481c0.6367,0,1.2178,0.1147,1.7451,0.3442c0.5273,0.229,0.9258,0.5215,1.1963,0.8774
			c0.2695,0.356,0.458,0.7598,0.5645,1.2114c0.1055,0.4517,0.1592,1.0981,0.1592,1.9399V287.5891z"/>
		<path class="st1" d="M-288.2803,276.6872v2.2993h-1.9717v4.3936c0,0.8896,0.0186,1.4082,0.0566,1.5557
			c0.0371,0.1475,0.123,0.2686,0.2568,0.3643s0.2959,0.1436,0.4873,0.1436c0.2666,0,0.6533-0.0918,1.1602-0.2773l0.2461,2.2383
			c-0.6709,0.2871-1.4297,0.4316-2.2783,0.4316c-0.5205,0-0.9893-0.0879-1.4063-0.2627c-0.418-0.1738-0.7246-0.3994-0.9189-0.6768
			c-0.1953-0.2773-0.3301-0.6523-0.4053-1.124c-0.0625-0.3359-0.0928-1.0127-0.0928-2.0332v-4.7529h-1.3242v-2.2993h1.3242v-2.166
			l2.8945-1.6836v3.8496H-288.2803z"/>
		<path class="st1" d="M-283.5176,287.5891h-2.8848v-10.9019h2.6797v1.5498c0.458-0.7319,0.8701-1.2144,1.2363-1.4473
			c0.3662-0.2324,0.7822-0.3491,1.248-0.3491c0.6563,0,1.2891,0.1816,1.8984,0.5439l-0.8926,2.5151
			c-0.4863-0.3145-0.9375-0.4722-1.3555-0.4722c-0.4033,0-0.7461,0.1113-1.0264,0.3335c-0.2803,0.2227-0.501,0.625-0.6621,1.2065
			s-0.2412,1.7998-0.2412,3.6543V287.5891z"/>
		<path class="st1" d="M-278.7646,281.9846c0-0.9585,0.2363-1.8857,0.708-2.7822c0.4727-0.8965,1.1416-1.5811,2.0068-2.0532
			c0.8662-0.4722,1.833-0.7085,2.9004-0.7085c1.6494,0,3.001,0.5356,4.0547,1.6064c1.0537,1.0713,1.5811,2.4248,1.5811,4.0605
			c0,1.6494-0.5322,3.0166-1.5967,4.1006c-1.0635,1.085-2.4033,1.6279-4.0186,1.6279c-0.999,0-1.9521-0.2266-2.8594-0.6777
			c-0.9063-0.4521-1.5957-1.1143-2.0684-1.9863C-278.5283,284.299-278.7646,283.2365-278.7646,281.9846z M-275.8086,282.1379
			c0,1.082,0.2568,1.9102,0.7705,2.4844c0.5127,0.5752,1.1455,0.8623,1.8984,0.8623s1.3848-0.2871,1.8945-0.8623
			c0.5098-0.5742,0.7646-1.4092,0.7646-2.5049c0-1.0674-0.2549-1.8887-0.7646-2.4634c-0.5098-0.5752-1.1416-0.8623-1.8945-0.8623
			s-1.3857,0.2871-1.8984,0.8623C-275.5518,280.2287-275.8086,281.0568-275.8086,282.1379z"/>
		<path class="st1" d="M-255.2568,287.5891h-2.6797v-1.6016c-0.4443,0.623-0.9697,1.0869-1.5752,1.3916
			c-0.6064,0.3037-1.2168,0.457-1.833,0.457c-1.252,0-2.3252-0.5049-3.2178-1.5146c-0.8936-1.0098-1.3398-2.418-1.3398-4.2246
			c0-1.8477,0.4346-3.2524,1.3037-4.2139s1.9678-1.4424,3.2949-1.4424c1.2188,0,2.2725,0.5068,3.1621,1.5195v-5.4204h2.8848
			V287.5891z M-262.9561,281.9025c0,1.1631,0.1602,2.0049,0.4824,2.5254c0.4648,0.7529,1.1152,1.1289,1.9502,1.1289
			c0.6641,0,1.2285-0.2822,1.6943-0.8467c0.4648-0.5645,0.6973-1.4082,0.6973-2.5313c0-1.252-0.2256-2.1538-0.6768-2.7046
			c-0.4521-0.5508-1.0303-0.8267-1.7354-0.8267c-0.6846,0-1.2578,0.272-1.7197,0.8164
			C-262.7256,280.008-262.9561,280.8205-262.9561,281.9025z"/>
		<path class="st1" d="M-245.2383,287.5891v-1.6318c-0.3965,0.582-0.9189,1.04-1.5654,1.375
			c-0.6465,0.3359-1.3291,0.5039-2.0479,0.5039c-0.7324,0-1.3896-0.1611-1.9707-0.4834c-0.582-0.3213-1.0029-0.7725-1.2627-1.3545
			c-0.2607-0.582-0.3906-1.3857-0.3906-2.4121v-6.8989h2.8848v5.0093c0,1.5332,0.0527,2.4727,0.1592,2.8184
			s0.2988,0.6191,0.5801,0.8213c0.2803,0.2021,0.6367,0.3027,1.0674,0.3027c0.4932,0,0.9346-0.1348,1.3242-0.4053
			c0.3906-0.2705,0.6572-0.6055,0.8008-1.0059s0.2158-1.3809,0.2158-2.9419v-4.5986h2.8848v10.9019H-245.2383z"/>
		<path class="st1" d="M-230.0654,279.9103l-2.8438,0.5132c-0.0957-0.5679-0.3125-0.9956-0.6514-1.2832
			c-0.3389-0.2871-0.7783-0.4312-1.3193-0.4312c-0.7188,0-1.292,0.2485-1.7197,0.7446s-0.6416,1.3257-0.6416,2.4897
			c0,1.293,0.2178,2.207,0.6523,2.7402c0.4346,0.5342,1.0176,0.8008,1.75,0.8008c0.5479,0,0.9961-0.1553,1.3447-0.4668
			c0.3496-0.3115,0.5957-0.8467,0.7393-1.6064l2.833,0.4824c-0.2939,1.3008-0.8584,2.2822-1.6934,2.9463
			s-1.9541,0.9961-3.3564,0.9961c-1.5947,0-2.8662-0.5039-3.8145-1.5098c-0.9473-1.0059-1.4209-2.3984-1.4209-4.1777
			c0-1.8003,0.4756-3.2012,1.4268-4.2041c0.9512-1.0024,2.2373-1.5039,3.8594-1.5039c1.3281,0,2.3838,0.2861,3.167,0.8574
			S-230.4072,278.7404-230.0654,279.9103z"/>
		<path class="st1" d="M-218.373,279.9103l-2.8438,0.5132c-0.0957-0.5679-0.3125-0.9956-0.6514-1.2832
			c-0.3389-0.2871-0.7783-0.4312-1.3193-0.4312c-0.7188,0-1.292,0.2485-1.7197,0.7446s-0.6416,1.3257-0.6416,2.4897
			c0,1.293,0.2178,2.207,0.6523,2.7402c0.4346,0.5342,1.0176,0.8008,1.75,0.8008c0.5479,0,0.9961-0.1553,1.3447-0.4668
			c0.3496-0.3115,0.5957-0.8467,0.7393-1.6064l2.833,0.4824c-0.2939,1.3008-0.8584,2.2822-1.6934,2.9463
			s-1.9541,0.9961-3.3564,0.9961c-1.5947,0-2.8662-0.5039-3.8145-1.5098c-0.9473-1.0059-1.4209-2.3984-1.4209-4.1777
			c0-1.8003,0.4756-3.2012,1.4268-4.2041c0.9512-1.0024,2.2373-1.5039,3.8594-1.5039c1.3281,0,2.3838,0.2861,3.167,0.8574
			S-218.7148,278.7404-218.373,279.9103z"/>
		<path class="st1" d="M-216.1865,275.2087v-2.6689h2.8848v2.6689H-216.1865z M-216.1865,287.5891v-10.9019h2.8848v10.9019
			H-216.1865z"/>
		<path class="st1" d="M-211.0127,281.9846c0-0.9585,0.2363-1.8857,0.708-2.7822c0.4727-0.8965,1.1416-1.5811,2.0068-2.0532
			c0.8662-0.4722,1.833-0.7085,2.9004-0.7085c1.6494,0,3.001,0.5356,4.0547,1.6064c1.0537,1.0713,1.5811,2.4248,1.5811,4.0605
			c0,1.6494-0.5322,3.0166-1.5967,4.1006c-1.0635,1.085-2.4033,1.6279-4.0186,1.6279c-0.999,0-1.9521-0.2266-2.8594-0.6777
			c-0.9063-0.4521-1.5957-1.1143-2.0684-1.9863C-210.7764,284.299-211.0127,283.2365-211.0127,281.9846z M-208.0566,282.1379
			c0,1.082,0.2568,1.9102,0.7705,2.4844c0.5127,0.5752,1.1455,0.8623,1.8984,0.8623s1.3848-0.2871,1.8945-0.8623
			c0.5098-0.5742,0.7646-1.4092,0.7646-2.5049c0-1.0674-0.2549-1.8887-0.7646-2.4634c-0.5098-0.5752-1.1416-0.8623-1.8945-0.8623
			s-1.3857,0.2871-1.8984,0.8623C-207.7998,280.2287-208.0566,281.0568-208.0566,282.1379z M-206.8447,275.3527l1.416-3.0693h3.2344
			l-2.8232,3.0693H-206.8447z"/>
		<path class="st1" d="M-187.5869,287.5891h-2.8848v-5.5635c0-1.1772-0.0615-1.939-0.1846-2.2847
			c-0.123-0.3452-0.3232-0.6138-0.6006-0.8057c-0.2773-0.1914-0.6113-0.2876-1.001-0.2876c-0.5,0-0.9482,0.1372-1.3447,0.4106
			c-0.3975,0.2739-0.6689,0.6367-0.8164,1.0884s-0.2207,1.2871-0.2207,2.5049v4.9375h-2.8848v-10.9019h2.6797v1.6016
			c0.9512-1.2319,2.1484-1.8481,3.5928-1.8481c0.6367,0,1.2178,0.1147,1.7451,0.3442c0.5273,0.229,0.9258,0.5215,1.1963,0.8774
			c0.2695,0.356,0.458,0.7598,0.5645,1.2114c0.1055,0.4517,0.1592,1.0981,0.1592,1.9399V287.5891z"/>
	</g>
</g>
</svg>
