<?xml version="1.0" encoding="utf-8"?>
<!-- Generator: Adobe Illustrator 19.0.0, SVG Export Plug-In . SVG Version: 6.00 Build 0)  -->
<svg version="1.1" id="Capa_1" xmlns="http://www.w3.org/2000/svg" xmlns:xlink="http://www.w3.org/1999/xlink" x="0px" y="0px"
	 viewBox="-339 290.3 112 33.7" style="enable-background:new -339 290.3 112 33.7;" xml:space="preserve">
<style type="text/css">
	.st0{fill:#FFFFFF;}
	.st1{enable-background:new    ;}
</style>
<polygon id="XMLID_610_" class="st0" points="-324.5,290.3 -241.5,290.3 -227,307.2 -241.5,324 -324.5,324 -339,307.2 "/>
<g class="st1">
	<path d="M-311.6,311.6v-11.2h6.3v1h-5.3v4.2h4.3v1h-4.3v4.2h5.3v1H-311.6z"/>
	<path d="M-300.9,301.3c-0.2,0-0.3,0-0.4,0.1c-0.1,0.1-0.3,0.1-0.4,0.2c-0.1,0.1-0.2,0.2-0.2,0.4c-0.1,0.1-0.1,0.3-0.1,0.5v1.1h1.9
		v0.9h-1.9v7.1h-1v-7.1h-1.4v-0.9h1.4v-1.1c0-0.3,0.1-0.6,0.2-0.8s0.3-0.5,0.5-0.7c0.2-0.2,0.4-0.3,0.7-0.5c0.3-0.1,0.5-0.2,0.8-0.2
		h0.9v0.9H-300.9z"/>
	<path d="M-298.8,301.7v-1.3h1.1v1.3H-298.8z M-298.8,311.6v-8h1v8H-298.8z"/>
	<path d="M-290.4,310.3c-0.1,0.3-0.3,0.5-0.5,0.8c-0.2,0.2-0.5,0.4-0.8,0.5c-0.3,0.1-0.6,0.2-0.9,0.2h-0.6c-0.3,0-0.6-0.1-0.9-0.2
		c-0.3-0.1-0.5-0.3-0.8-0.5c-0.2-0.2-0.4-0.5-0.5-0.8c-0.1-0.3-0.2-0.6-0.2-0.9v-3.6c0-0.3,0.1-0.6,0.2-0.9c0.1-0.3,0.3-0.5,0.5-0.8
		c0.2-0.2,0.5-0.4,0.8-0.5c0.3-0.1,0.6-0.2,0.9-0.2h0.6c0.3,0,0.6,0.1,0.9,0.2c0.3,0.1,0.5,0.3,0.8,0.5c0.2,0.2,0.4,0.5,0.5,0.8
		c0.1,0.3,0.2,0.6,0.2,0.9v0.3l-1,0.2v-0.5c0-0.2,0-0.4-0.1-0.5c-0.1-0.2-0.2-0.3-0.3-0.4s-0.3-0.2-0.4-0.3
		c-0.2-0.1-0.4-0.1-0.5-0.1h-0.6c-0.2,0-0.4,0-0.5,0.1c-0.2,0.1-0.3,0.2-0.4,0.3s-0.2,0.3-0.3,0.4c-0.1,0.2-0.1,0.4-0.1,0.5v3.7
		c0,0.2,0,0.4,0.1,0.5c0.1,0.2,0.2,0.3,0.3,0.4s0.3,0.2,0.4,0.3c0.2,0.1,0.4,0.1,0.5,0.1h0.6c0.2,0,0.4,0,0.5-0.1
		c0.2-0.1,0.3-0.2,0.4-0.3s0.2-0.3,0.3-0.4c0.1-0.2,0.1-0.4,0.1-0.5v-0.5l1,0.2v0.3C-290.2,309.7-290.3,310-290.4,310.3z"/>
	<path d="M-288,301.7v-1.3h1.1v1.3H-288z M-288,311.6v-8h1v8H-288z"/>
	<path d="M-279.6,310.3c-0.1,0.3-0.3,0.5-0.5,0.8s-0.5,0.4-0.8,0.5s-0.6,0.2-0.9,0.2h-0.6c-0.3,0-0.6-0.1-0.9-0.2
		c-0.3-0.1-0.5-0.3-0.8-0.5c-0.2-0.2-0.4-0.5-0.5-0.8c-0.1-0.3-0.2-0.6-0.2-0.9v-3.6c0-0.3,0.1-0.6,0.2-0.9c0.1-0.3,0.3-0.5,0.5-0.8
		c0.2-0.2,0.5-0.4,0.8-0.5c0.3-0.1,0.6-0.2,0.9-0.2h0.6c0.3,0,0.6,0.1,0.9,0.2s0.5,0.3,0.8,0.5s0.4,0.5,0.5,0.8s0.2,0.6,0.2,0.9v1.9
		h-4.4v1.8c0,0.2,0,0.4,0.1,0.5c0.1,0.2,0.2,0.3,0.3,0.4s0.3,0.2,0.4,0.3c0.2,0.1,0.4,0.1,0.5,0.1h0.6c0.2,0,0.4,0,0.5-0.1
		s0.3-0.2,0.4-0.3s0.2-0.3,0.3-0.4s0.1-0.4,0.1-0.5v-0.5l1,0.2v0.3C-279.4,309.7-279.5,310-279.6,310.3z M-280.4,305.7
		c0-0.2,0-0.4-0.1-0.5s-0.2-0.3-0.3-0.4s-0.3-0.2-0.4-0.3s-0.4-0.1-0.5-0.1h-0.6c-0.2,0-0.4,0-0.5,0.1c-0.2,0.1-0.3,0.2-0.4,0.3
		s-0.2,0.3-0.3,0.4c-0.1,0.2-0.1,0.4-0.1,0.5v1.2h3.4V305.7z"/>
	<path d="M-273.1,311.6v-5.9c0-0.2,0-0.4-0.1-0.5s-0.2-0.3-0.3-0.4s-0.3-0.2-0.4-0.3s-0.4-0.1-0.5-0.1h-0.6c-0.2,0-0.4,0-0.5,0.1
		s-0.3,0.2-0.4,0.3s-0.2,0.3-0.3,0.4s-0.1,0.4-0.1,0.5v5.9h-1v-8h0.3l0.5,0.8c0.2-0.3,0.5-0.5,0.8-0.7s0.7-0.3,1.1-0.3h0.2
		c0.3,0,0.6,0.1,0.9,0.2s0.5,0.3,0.8,0.5s0.4,0.5,0.5,0.8s0.2,0.6,0.2,0.9v5.8H-273.1z"/>
	<path d="M-265.1,310.3c-0.1,0.3-0.3,0.5-0.5,0.8s-0.5,0.4-0.8,0.5s-0.6,0.2-0.9,0.2h-0.6c-0.3,0-0.6-0.1-0.9-0.2s-0.5-0.3-0.8-0.5
		s-0.4-0.5-0.5-0.8s-0.2-0.6-0.2-0.9v-3.6c0-0.3,0.1-0.6,0.2-0.9s0.3-0.5,0.5-0.8s0.5-0.4,0.8-0.5s0.6-0.2,0.9-0.2h0.6
		c0.3,0,0.6,0.1,0.9,0.2s0.5,0.3,0.8,0.5s0.4,0.5,0.5,0.8s0.2,0.6,0.2,0.9v0.3l-1,0.2v-0.5c0-0.2,0-0.4-0.1-0.5s-0.2-0.3-0.3-0.4
		s-0.3-0.2-0.4-0.3s-0.4-0.1-0.5-0.1h-0.6c-0.2,0-0.4,0-0.5,0.1s-0.3,0.2-0.4,0.3s-0.2,0.3-0.3,0.4s-0.1,0.4-0.1,0.5v3.7
		c0,0.2,0,0.4,0.1,0.5s0.2,0.3,0.3,0.4s0.3,0.2,0.4,0.3s0.4,0.1,0.5,0.1h0.6c0.2,0,0.4,0,0.5-0.1s0.3-0.2,0.4-0.3s0.2-0.3,0.3-0.4
		s0.1-0.4,0.1-0.5v-0.5l1,0.2v0.3C-264.9,309.7-265,310-265.1,310.3z"/>
	<path d="M-262.7,301.7v-1.3h1.1v1.3H-262.7z M-262.6,311.6v-8h1v8H-262.6z"/>
	<path d="M-254.4,311.6l-0.5-0.8c-0.2,0.3-0.5,0.5-0.8,0.7s-0.7,0.3-1.1,0.3h-0.2c-0.3,0-0.6-0.1-0.9-0.2s-0.5-0.3-0.8-0.5
		s-0.4-0.5-0.5-0.8s-0.2-0.6-0.2-0.9v-0.1c0-0.3,0.1-0.6,0.2-0.9s0.3-0.5,0.5-0.8s0.5-0.4,0.8-0.5s0.6-0.2,0.9-0.2h2v-1.2
		c0-0.2,0-0.4-0.1-0.5s-0.2-0.3-0.3-0.4s-0.3-0.2-0.4-0.3s-0.4-0.1-0.5-0.1h-0.6c-0.2,0-0.4,0-0.5,0.1s-0.3,0.2-0.4,0.3
		s-0.2,0.3-0.3,0.4s-0.1,0.4-0.1,0.5v0.3l-1-0.2v-0.1c0-0.3,0.1-0.6,0.2-0.9s0.3-0.5,0.5-0.8s0.5-0.4,0.8-0.5s0.6-0.2,0.9-0.2h0.6
		c0.3,0,0.6,0.1,0.9,0.2s0.5,0.3,0.8,0.5s0.4,0.5,0.5,0.8s0.2,0.6,0.2,0.9v5.8H-254.4z M-255.1,307.7h-2c-0.2,0-0.4,0-0.5,0.1
		s-0.3,0.2-0.4,0.3s-0.2,0.3-0.3,0.4s-0.1,0.4-0.1,0.5v0.3c0,0.2,0,0.4,0.1,0.5s0.2,0.3,0.3,0.4s0.3,0.2,0.4,0.3s0.4,0.1,0.5,0.1
		h0.6c0.2,0,0.4,0,0.5-0.1s0.3-0.2,0.4-0.3s0.2-0.3,0.3-0.4s0.1-0.4,0.1-0.5V307.7z"/>
</g>
</svg>
