<?xml version="1.0" encoding="utf-8"?>
<!-- Generator: Adobe Illustrator 19.0.0, SVG Export Plug-In . SVG Version: 6.00 Build 0)  -->
<svg version="1.1" id="Capa_1" xmlns="http://www.w3.org/2000/svg" xmlns:xlink="http://www.w3.org/1999/xlink" x="0px" y="0px"
	 viewBox="-307 224.8 24 32.2" style="enable-background:new -307 224.8 24 32.2;" xml:space="preserve">
<style type="text/css">
	.st0{fill:none;stroke:#FFFFFF;stroke-miterlimit:10;}
</style>
<path id="XMLID_726_" class="st0" d="M-287.4,256.5c1.9,0,3.5-1.6,3.5-3.5v-9c0-2.6-2.1-4.7-4.7-4.7h-4.8v-3c0-1.5-1.2-2.7-2.6-2.8
	c-1.6-0.1-2.8,1.2-2.8,2.7v8.3l-0.7-1.5c-0.4-0.8-1.1-1.3-1.9-1.3c-0.3,0-0.7,0.1-1,0.3c-1,0.7-1.4,2.1-0.9,3.3c0,0,2.4,5.5,4.1,9.2
	c0.6,1.2,1.8,2,3.2,2H-287.4z"/>
<line class="st0" x1="-299.9" y1="231.8" x2="-303.9" y2="228.6"/>
<line class="st0" x1="-302" y1="235.6" x2="-307" y2="236.3"/>
<line class="st0" x1="-296.2" y1="230.3" x2="-296.8" y2="225.3"/>
<line class="st0" x1="-292.6" y1="231.8" x2="-289.5" y2="227.8"/>
<line class="st0" x1="-291.1" y1="235.4" x2="-286.1" y2="234.8"/>
</svg>
