<?xml version="1.0" encoding="utf-8"?>
<!-- Generator: Adobe Illustrator 19.0.0, SVG Export Plug-In . SVG Version: 6.00 Build 0)  -->
<svg version="1.1" id="Capa_1" xmlns="http://www.w3.org/2000/svg" xmlns:xlink="http://www.w3.org/1999/xlink" x="0px" y="0px"
	 viewBox="-308 226.2 21.5 28.8" style="enable-background:new -308 226.2 21.5 28.8;" xml:space="preserve">
<style type="text/css">
	.st0{fill:none;stroke:#FFFFFF;stroke-miterlimit:10;}
</style>
<path id="XMLID_726_" class="st0" d="M-290.9,254.1c1.9,0,3.5-1.6,3.5-3.5v-9c0-2.6-2.1-4.7-4.7-4.7h-4.8v-7c0-1.5-1.2-2.7-2.6-2.8
	c-1.6-0.1-2.8,1.2-2.8,2.7v12.3l-0.7-1.5c-0.4-0.8-1.1-1.3-1.9-1.3c-0.3,0-0.7,0.1-1,0.3c-1,0.7-1.4,2.1-0.9,3.3
	c0,0,2.4,5.5,4.1,9.2c0.6,1.2,1.8,2,3.2,2H-290.9z"/>
</svg>
