<?xml version="1.0" encoding="utf-8"?>
<!-- Generator: Adobe Illustrator 19.0.0, SVG Export Plug-In . SVG Version: 6.00 Build 0)  -->
<svg version="1.1" id="Capa_1" xmlns="http://www.w3.org/2000/svg" xmlns:xlink="http://www.w3.org/1999/xlink" x="0px" y="0px"
	 viewBox="-455.7672 234.2734 52.9562 94.6635" style="enable-background:new -455.7672 234.2734 52.9562 94.6635;"
	 xml:space="preserve">
<style type="text/css">
	.st0{fill:#CED8D7;}
	.st1{fill:#777A7A;}
	.st2{fill:#626262;}
	.st3{fill:#51B3AC;}
	.st4{fill:#C2E3E1;}
</style>
<g id="XMLID_460_">
	<g id="XMLID_465_">
		<path class="st0" d="M-448.3164,327.748c-3.4097,0-6.1836-2.7744-6.1836-6.1836v-80.0967c0-3.4048,2.7739-6.1748,6.1836-6.1748
			h38.0547c3.4092,0,6.1836,2.77,6.1836,6.1748v80.0967c0,3.4092-2.7744,6.1836-6.1836,6.1836H-448.3164z"/>
		<path class="st1" d="M-410.2618,235.7928c3.1436,0,5.6836,2.5381,5.6836,5.6748v80.0967c0,3.1435-2.54,5.6836-5.6836,5.6836
			h-19.0273h-19.0274c-3.1445,0-5.6835-2.5401-5.6835-5.6836v-80.0967c0-3.1367,2.539-5.6748,5.6835-5.6748h19.0274H-410.2618
			 M-410.2618,234.7928h-19.0273h-19.0274c-3.6853,0-6.6835,2.9943-6.6835,6.6748v80.0967c0,3.6853,2.9982,6.6836,6.6835,6.6836
			h19.0274h19.0273c3.6854,0,6.6836-2.9983,6.6836-6.6836v-80.0967c0-1.7846-0.6947-3.4613-1.9563-4.7213
			C-406.7959,235.4866-408.4748,234.7928-410.2618,234.7928L-410.2618,234.7928z"/>
	</g>
	<path id="XMLID_464_" class="st2" d="M-427.3721,322.6678c0,1.0586-0.8584,1.9179-1.917,1.9179
		c-1.0606,0-1.917-0.8593-1.917-1.9179c0-1.0596,0.8564-1.917,1.917-1.917C-428.2305,320.7508-427.3721,321.6082-427.3721,322.6678
		L-427.3721,322.6678z"/>
	<path id="XMLID_463_" class="st2" d="M-420.3418,237.2449c0,0.294-0.2403,0.5332-0.5332,0.5332h-16.8291
		c-0.294,0-0.5323-0.2392-0.5323-0.5332l0,0c0-0.2939,0.2383-0.5322,0.5323-0.5322h16.8291
		C-420.5821,236.7127-420.3418,236.951-420.3418,237.2449L-420.3418,237.2449L-420.3418,237.2449z"/>
	<path id="XMLID_462_" class="st3" d="M-407.3497,240.8631v76.2627c0,0.8867-0.7158,1.6025-1.5937,1.6025h-40.6875
		c-0.8857,0-1.6016-0.7158-1.6016-1.6025v-76.2627c0-0.8779,0.7159-1.5928,1.6016-1.5928h40.6875
		c0.6309,0,1.1846,0.375,1.4326,0.9111C-407.4092,240.3855-407.3497,240.616-407.3497,240.8631L-407.3497,240.8631z"/>
	<path id="XMLID_461_" class="st4" d="M-407.5108,240.1814l-26.2031,78.5469h-15.917l28.2305-79.458h12.457
		C-408.3125,239.2703-407.7588,239.6453-407.5108,240.1814L-407.5108,240.1814z"/>
</g>
</svg>
