<?xml version="1.0" encoding="utf-8"?>
<!-- Generator: Adobe Illustrator 19.0.0, SVG Export Plug-In . SVG Version: 6.00 Build 0)  -->
<svg version="1.1" id="Capa_1" xmlns="http://www.w3.org/2000/svg" xmlns:xlink="http://www.w3.org/1999/xlink" x="0px" y="0px"
	 viewBox="-422 241.709 114.5098 79.291" style="enable-background:new -422 241.709 114.5098 79.291;" xml:space="preserve">
<style type="text/css">
	.st0{fill:#98CFC9;}
	.st1{fill:#626262;}
	.st2{fill:#CED8D7;}
	.st3{fill:#505050;}
	.st4{fill:#C2E3E1;}
</style>
<g id="XMLID_64_">
	<path id="XMLID_74_" class="st0" d="M-318.805,249.2851v57.1455c0,1.0821-0.8828,1.9551-1.9629,1.9551h-85.2813
		c-1.082,0-1.957-0.873-1.957-1.9551v-57.1455c0-1.082,0.875-1.9648,1.957-1.9648h85.2813
		C-319.6878,247.3203-318.805,248.2031-318.805,249.2851L-318.805,249.2851z"/>
	<path id="XMLID_71_" class="st1" d="M-318.807,306.4297c0,1.081-0.8789,1.9599-1.959,1.9599h-85.2812
		c-1.0801,0-1.961-0.8789-1.961-1.9599v-57.1455c0-1.0811,0.8809-1.96,1.961-1.96h85.2812c1.0801,0,1.959,0.8789,1.959,1.96
		V306.4297L-318.807,306.4297z M-320.766,242.5791h-85.2812c-3.6973,0-6.7051,3.0088-6.7051,6.7051v57.1455
		c0,3.6963,3.0078,6.7041,6.7051,6.7041h85.2812c3.6973,0,6.7051-3.0078,6.7051-6.7041v-57.1455
		C-314.0609,245.588-317.0687,242.5791-320.766,242.5791L-320.766,242.5791z"/>
	<path id="XMLID_70_" class="st2" d="M-306.1644,315.7021h-114.4902c0.0371-0.7119,0.6269-1.2627,1.3379-1.2627h111.8144
		C-306.7816,314.4395-306.2015,314.9902-306.1644,315.7021L-306.1644,315.7021z"/>
	<polygon id="XMLID_69_" class="st3" points="-393.18,314.4395 -402.6703,314.4395 -402.6703,313.1339 -393.18,313.1339 
		-393.18,314.4395 	"/>
	<polygon id="XMLID_68_" class="st3" points="-324.1449,314.4395 -333.6332,314.4395 -333.6332,313.1339 -324.1449,313.1339 
		-324.1449,314.4395 	"/>
	<path id="XMLID_67_" class="st1" d="M-306.1546,315.7871v0.7021c0,2.9707-2.4024,5.3809-5.3809,5.3809h-103.748
		c-2.9707,0-5.3809-2.4102-5.3809-5.3809v-0.7021c0-0.0283,0-0.0557,0.0098-0.085h114.4902
		C-306.1546,315.7314-306.1546,315.7589-306.1546,315.7871L-306.1546,315.7871z"/>
	<path id="XMLID_66_" class="st3" d="M-359.9242,311.1943h-6.8965c-0.4531,0-0.8222-0.3672-0.8222-0.8222v-0.0157
		c0-0.455,0.3691-0.8222,0.8222-0.8222h6.8965c0.4551,0,0.8223,0.3672,0.8223,0.8222v0.0157
		C-359.1019,310.8271-359.4691,311.1943-359.9242,311.1943L-359.9242,311.1943z"/>
	<path id="XMLID_65_" class="st4" d="M-350.1585,247.3203l9.0156,0.0039l-33.1367,61.0615h-31.7696
		c-1.082,0-1.957-0.873-1.957-1.9551v-11.1308L-350.1585,247.3203L-350.1585,247.3203z"/>
</g>
</svg>
