<?xml version="1.0" encoding="utf-8"?>
<!-- Generator: Adobe Illustrator 19.0.0, SVG Export Plug-In . SVG Version: 6.00 Build 0)  -->
<svg version="1.1" id="Capa_1" xmlns="http://www.w3.org/2000/svg" xmlns:xlink="http://www.w3.org/1999/xlink" x="0px" y="0px"
	 viewBox="-426.9781 220.1427 120.1953 120.8573" style="enable-background:new -426.9781 220.1427 120.1953 120.8573;"
	 xml:space="preserve">
<style type="text/css">
	.st0{fill:#888989;stroke:#888989;stroke-width:3;stroke-linecap:round;stroke-linejoin:round;stroke-miterlimit:10;}
	.st1{fill:#E2E2E2;}
	.st2{fill:#FFFFFF;}
	.st3{fill:#6EC6D5;}
	.st4{fill:#5BB4BA;}
	.st5{fill:#D6D6D6;}
	.st6{fill:#E5E6E6;}
	.st7{fill:#CED0D0;}
	.st8{fill:#BFBEBE;}
</style>
<g id="XMLID_115_">
	<path id="XMLID_116_" class="st0" d="M-412.5169,297.5h32.0875c-0.0447,1,0.9295,0.8536,0.9295,1.164v1.6941v6.3016
		c0,0.2066-0.4874,0.4173-0.4676,0.6175l-14.1346,9.2228h27.9407h27.9433l-13.4732-9.2214
		c0.0192-0.2016,0.1913-0.4123,0.1913-0.6189v-6.3016v-1.6941c0-0.3104-0.3468-0.164-0.3918-1.164h32.0874
		c2.8789,0,6.3044-2.0789,6.3044-4.9596v-62.4079c0-2.8793-3.4255-5.6325-6.3044-5.6325h-46.3563h-46.3563
		c-2.8793,0-4.9831,2.7532-4.9831,5.6325v62.4079C-417.5,295.4211-415.3963,297.5-412.5169,297.5z"/>
	<polygon id="XMLID_165_" class="st0" points="-319.3018,327.5 -416.4439,327.5 -421.5,334.919 -421.5,337.5 -309.5,337.5 
		-309.5,334.919 	"/>
</g>
<g id="XMLID_111_">
	<g id="XMLID_118_">
		<g id="XMLID_134_">
			<g id="XMLID_135_">
				<polygon id="XMLID_101_" class="st1" points="-351.8354,307.2092 -351.8354,307.2078 -366.1426,307.2078 -380.4479,307.2078 
					-394.0833,316.4201 -366.1426,316.4201 -338.1993,316.4201 				"/>
				<path id="XMLID_136_" class="st2" d="M-417.7109,230.0736v62.4079c0,2.8807,2.3335,5.2145,5.2128,5.2145h32.0875h14.2688
					h14.2688h32.0874c2.8789,0,5.2128-2.3338,5.2128-5.2145v-62.4079c0-2.8793-2.3338-5.2124-5.2128-5.2124h-46.3562h-46.3563
					C-415.3774,224.8612-417.7109,227.1943-417.7109,230.0736z"/>
			</g>
		</g>
		<g id="XMLID_127_">
			<path id="XMLID_98_" class="st3" d="M-413.9221,285.9199v-51.8913c0-2.3922,2.1605-4.3333,4.8285-4.3333h42.9518h42.9518
				c1.1249,0,2.1435,0.359,2.9643,0.937l-92.6891,57.9088C-413.5366,287.8102-413.9221,286.9108-413.9221,285.9199z"/>
			<path id="XMLID_97_" class="st4" d="M-320.2258,230.6322c1.1281,0.7932,1.8642,2.0116,1.8642,3.3963v51.8913
				c0,2.3919-2.1605,4.3316-4.8285,4.3316h-42.9518h-42.9518c-1.563,0-2.9367-0.6779-3.8212-1.7104L-320.2258,230.6322z"/>
		</g>
		<circle id="XMLID_96_" class="st5" cx="-366.1416" cy="294.5307" r="2.133"/>
		<g id="XMLID_122_">
			<path id="XMLID_123_" class="st1" d="M-323.1901,231.0865c0.7812,0,1.5297,0.2357,2.1641,0.6824
				c0.8095,0.5699,1.2738,1.3939,1.2738,2.2597v51.8913c0,1.621-1.5417,2.9405-3.4378,2.9405h-42.9518h-42.9518
				c-1.0908,0-2.0992-0.4462-2.7623-1.2209c-0.3083-0.3622-0.6755-0.9542-0.6755-1.7196v-51.8913
				c0-1.6218,1.5431-2.942,3.4378-2.942h42.9518H-323.1901 M-323.1901,229.6952h-42.9518h-42.9518
				c-2.668,0-4.8285,1.9411-4.8285,4.3333v51.8913c0,0.9909,0.3856,1.8903,1.0073,2.6212c0.8846,1.0325,2.2583,1.7104,3.8212,1.7104
				h42.9518h42.9518c2.668,0,4.8285-1.9397,4.8285-4.3316v-51.8913c0-1.3847-0.7361-2.6032-1.8642-3.3963
				C-321.0465,230.0542-322.0652,229.6952-323.1901,229.6952L-323.1901,229.6952z"/>
		</g>
		<g id="XMLID_119_">
			<path id="XMLID_79_" class="st5" d="M-351.8071,298.6051c0-0.3104-0.0209-0.6146-0.0659-0.9091h-14.2696h-14.2681
				c-0.0447,0.2945-0.0688,0.5987-0.0688,0.9091v1.6941h28.6723V298.6051z"/>
			<path id="XMLID_78_" class="st2" d="M-380.4795,300.2992v6.3016c0,0.2066,0.0117,0.4068,0.0316,0.607h14.3053h14.3071v0.0014
				c0.0192-0.2016,0.0283-0.4018,0.0283-0.6084v-6.3016H-380.4795z"/>
		</g>
	</g>
	<g id="XMLID_82_">
		<polygon id="XMLID_77_" class="st6" points="-422.2612,334.8601 -310.0221,334.8601 -319.283,326.8188 -416.4251,326.8188 		"/>
		<rect id="XMLID_76_" x="-422.2612" y="334.8601" class="st7" width="112.2391" height="2.8583"/>
		<polygon id="XMLID_75_" class="st7" points="-364.9379,333.065 -406.6914,333.1632 -405.6175,330.4278 -365.7193,330.4278 		"/>
		<rect id="XMLID_62_" x="-406.6914" y="333.1632" class="st8" width="41.7535" height="0.6347"/>
	</g>
</g>
</svg>
