<?xml version="1.0" encoding="utf-8"?>
<!-- Generator: Adobe Illustrator 19.0.0, SVG Export Plug-In . SVG Version: 6.00 Build 0)  -->
<svg version="1.1" id="Capa_1" xmlns="http://www.w3.org/2000/svg" xmlns:xlink="http://www.w3.org/1999/xlink" x="0px" y="0px"
	 viewBox="-402 232.0183 154.6389 96.9817" style="enable-background:new -402 232.0183 154.6389 96.9817;" xml:space="preserve">
<style type="text/css">
	.st0{fill:#98CFC9;}
	.st1{fill:#3B4551;}
	.st2{fill:#C2E3E1;}
	.st3{fill:#E94D49;}
	.st4{opacity:0.2;fill:#231F20;}
	.st5{fill:#72BFC5;}
	.st6{fill:#F0B04E;}
	.st7{opacity:0.15;fill:#231F20;}
	.st8{fill:#E36A5D;}
	.st9{fill:#FFFFFF;}
</style>
<g id="XMLID_90_">
	<g id="XMLID_13_">
		<path id="XMLID_22_" class="st0" d="M-313.9385,257.9287v52.957c0,1.0039-0.8174,1.8125-1.8193,1.8125h-79.0313
			c-1.0019,0-1.8115-0.8086-1.8115-1.8125v-52.957c0-1.002,0.8096-1.8203,1.8115-1.8203h79.0313
			C-314.7559,256.1084-313.9385,256.9267-313.9385,257.9287L-313.9385,257.9287z"/>
		<path id="XMLID_19_" class="st1" d="M-313.9405,310.8857c0,1-0.8144,1.8164-1.8164,1.8164h-79.0293
			c-1.0019,0-1.8164-0.8164-1.8164-1.8164v-52.957c0-1.002,0.8145-1.8164,1.8164-1.8164h79.0293
			c1.002,0,1.8164,0.8144,1.8164,1.8164V310.8857L-313.9405,310.8857z M-315.7569,251.7158h-79.0293
			c-3.4257,0-6.2138,2.7871-6.2138,6.2129v52.957c0,3.4258,2.7881,6.2129,6.2138,6.2129h79.0293
			c3.4278,0,6.2129-2.7871,6.2129-6.2129v-52.957C-309.544,254.5029-312.3291,251.7158-315.7569,251.7158L-315.7569,251.7158z"/>
		<path id="XMLID_18_" class="st2" d="M-342.9932,256.1084l8.3545,0.0039l-30.709,56.5859h-29.4414
			c-1.0019,0-1.8115-0.8086-1.8115-1.8125v-10.3144L-342.9932,256.1084L-342.9932,256.1084z"/>
		<path id="XMLID_17_" class="st3" d="M-324.1524,315.0244c0,0.7266-0.5908,1.3184-1.3193,1.3184
			c-0.7275,0-1.3184-0.5918-1.3184-1.3184c0-0.7285,0.5909-1.3203,1.3184-1.3203
			C-324.7432,313.7041-324.1524,314.2959-324.1524,315.0244L-324.1524,315.0244z"/>
		<polygon id="XMLID_16_" class="st1" points="-347.0156,324.0361 -363.2842,324.0361 -361.5264,320.5635 -359.7676,317.0986 
			-350.5332,317.0986 -348.7744,320.5635 -347.0156,324.0361 		"/>
		<path id="XMLID_15_" class="st1" d="M-343.0586,326.8955h-23.5235v-1.0996c0-0.9707,0.7872-1.7598,1.7588-1.7598h20.0059
			c0.9707,0,1.7588,0.7891,1.7588,1.7598V326.8955L-343.0586,326.8955z"/>
		<polygon id="XMLID_14_" class="st4" points="-348.7744,320.5635 -361.5264,320.5635 -359.7676,317.0986 -350.5332,317.0986 
			-348.7744,320.5635 		"/>
	</g>
	<g id="XMLID_112_">
		<g id="XMLID_113_">
			<path id="XMLID_143_" class="st1" d="M-250.4555,232.0183h-45.3523c-2.2613,0-4.0944,1.8332-4.0944,4.0944v88.7928
				c0,2.2613,1.8332,4.0945,4.0944,4.0945h3.9562c0.5156,0,0.9335-0.418,0.9335-0.9336l0,0c0-0.5156,0.418-0.9336,0.9336-0.9336
				h33.2133c0.5155,0,0.9335,0.418,0.9335,0.9336l0,0c0,0.5156,0.418,0.9336,0.9336,0.9336h4.4485
				c2.2613,0,4.0945-1.8332,4.0945-4.0945v-88.7928C-246.3611,233.8515-248.1942,232.0183-250.4555,232.0183z"/>
			<path id="XMLID_142_" class="st4" d="M-250.4555,232.0183h-22.6761v95.1145h16.3605c0.5156,0,0.9335,0.418,0.9335,0.9336
				S-255.4196,329-254.904,329h4.4485c2.2613,0,4.0945-1.8332,4.0945-4.0945v-88.7928
				C-246.3611,233.8515-248.1942,232.0183-250.4555,232.0183z"/>
			<path id="XMLID_83_" class="st5" d="M-254.0626,249.2421h-38.6303c-0.4269,0-0.773-0.3461-0.773-0.773v-9.4828
				c0-0.427,0.3461-0.7731,0.773-0.7731h38.6303c0.427,0,0.7731,0.3461,0.7731,0.7731v9.4828
				C-253.2896,248.896-253.6357,249.2421-254.0626,249.2421z"/>
			<path id="XMLID_141_" class="st5" d="M-254.0626,262.0433h-38.6303c-0.4269,0-0.773-0.3461-0.773-0.773v-9.4828
				c0-0.4269,0.3461-0.773,0.773-0.773h38.6303c0.427,0,0.7731,0.3461,0.7731,0.773v9.4828
				C-253.2896,261.6972-253.6357,262.0433-254.0626,262.0433z"/>
			<path id="XMLID_81_" class="st5" d="M-254.0626,274.8446h-38.6303c-0.4269,0-0.773-0.3461-0.773-0.7731v-9.4828
				c0-0.4269,0.3461-0.773,0.773-0.773h38.6303c0.427,0,0.7731,0.3461,0.7731,0.773v9.4828
				C-253.2896,274.4985-253.6357,274.8446-254.0626,274.8446z"/>
			<circle id="XMLID_140_" class="st6" cx="-257.514" cy="294.0661" r="4.2244"/>
			<circle id="XMLID_137_" class="st7" cx="-257.514" cy="294.0661" r="3.0895"/>
			<circle id="XMLID_93_" class="st8" cx="-266.0384" cy="294.0661" r="1.2719"/>
			<path id="XMLID_89_" class="st7" d="M-264.7664,294.0661c0,0.7025-0.5695,1.2719-1.2719,1.2719v-2.5439
				C-265.3359,292.7942-264.7664,293.3637-264.7664,294.0661z"/>
			<path id="XMLID_88_" class="st8" d="M-256.8247,281.8755h-33.1061c-0.3046,0-0.5514-0.2468-0.5514-0.5514v-1.1981
				c0-0.3045,0.2468-0.5514,0.5514-0.5514h33.1061c0.3045,0,0.5514,0.2469,0.5514,0.5514v1.1981
				C-256.2733,281.6286-256.5202,281.8755-256.8247,281.8755z"/>
			<rect id="XMLID_87_" x="-261.1046" y="282.9903" class="st9" width="4.8313" height="1.354"/>
			<path id="XMLID_86_" class="st7" d="M-293.4659,243.7277v4.7414c0,0.4269,0.3461,0.773,0.773,0.773h38.6302
				c0.4269,0,0.7731-0.3461,0.7731-0.773v-4.7414H-293.4659z"/>
			<path id="XMLID_85_" class="st7" d="M-293.4659,256.5289v4.7414c0,0.4269,0.3461,0.773,0.773,0.773h38.6302
				c0.4269,0,0.7731-0.3461,0.7731-0.773v-4.7414H-293.4659z"/>
			<path id="XMLID_84_" class="st7" d="M-293.4659,269.3302v4.7414c0,0.427,0.3461,0.7731,0.773,0.7731h38.6302
				c0.4269,0,0.7731-0.3461,0.7731-0.7731v-4.7414H-293.4659z"/>
		</g>
	</g>
</g>
</svg>
