<?xml version="1.0" encoding="utf-8"?>
<!-- Generator: Adobe Illustrator 19.0.0, SVG Export Plug-In . SVG Version: 6.00 Build 0)  -->
<svg version="1.1" id="Capa_1" xmlns="http://www.w3.org/2000/svg" xmlns:xlink="http://www.w3.org/1999/xlink" x="0px" y="0px"
	 viewBox="-429 236.5276 100.4464 89.4724" style="enable-background:new -429 236.5276 100.4464 89.4724;" xml:space="preserve">
<style type="text/css">
	.st0{fill:#626262;}
	.st1{fill:#BABABA;}
	.st2{fill:#9E9D9D;}
	.st3{fill:#1F67B0;}
	.st4{fill:#E96045;}
	.st5{fill:#5A5A5B;}
</style>
<g id="XMLID_63_">
	<path id="XMLID_103_" class="st0" d="M-425.8017,281.95h95.9429v-28.4181h-95.9429V281.95L-425.8017,281.95z M-327.6071,284.2018
		h-100.4464v-32.9175h100.4464V284.2018L-327.6071,284.2018z"/>
	<path id="XMLID_100_" class="st0" d="M-425.8017,312.692h95.9429V284.27h-95.9429V312.692L-425.8017,312.692z M-327.6071,314.9438
		h-100.4464v-32.9216h100.4464V314.9438L-327.6071,314.9438z"/>
	<polygon id="XMLID_57_" class="st1" points="-417.3625,237.7776 -417.3625,263.101 -392.3884,263.101 -367.0671,237.7776 
		-417.3625,237.7776 	"/>
	<polygon id="XMLID_56_" class="st2" points="-338.0171,237.7776 -367.0671,237.7776 -392.3884,263.101 -338.0171,263.101 
		-338.0171,237.7776 	"/>
	<path id="XMLID_55_" class="st3" d="M-371.5004,246.4998c0,2.641-2.1414,4.7845-4.7826,4.7845
		c-2.643,0-4.7845-2.1435-4.7845-4.7845c0-2.6412,2.1414-4.7846,4.7845-4.7846
		C-373.6418,241.7152-371.5004,243.8586-371.5004,246.4998L-371.5004,246.4998z"/>
	<path id="XMLID_54_" class="st3" d="M-357.9939,246.4998c0,2.641-2.1414,4.7845-4.7845,4.7845
		c-2.641,0-4.7824-2.1435-4.7824-4.7845c0-2.6412,2.1414-4.7846,4.7824-4.7846
		C-360.1353,241.7152-357.9939,243.8586-357.9939,246.4998L-357.9939,246.4998z"/>
	<path id="XMLID_53_" class="st3" d="M-344.4893,246.4998c0,2.641-2.1393,4.7845-4.7824,4.7845
		c-2.6432,0-4.7844-2.1435-4.7844-4.7845c0-2.6412,2.1412-4.7846,4.7844-4.7846
		C-346.6287,241.7152-344.4893,243.8586-344.4893,246.4998L-344.4893,246.4998z"/>
	<path id="XMLID_52_" class="st4" d="M-346.4863,256.1491c0,1.469-1.1901,2.6611-2.659,2.6611c-1.469,0-2.6591-1.1921-2.6591-2.6611
		c0-1.4692,1.1901-2.6611,2.6591-2.6611C-347.6764,253.4879-346.4863,254.6799-346.4863,256.1491L-346.4863,256.1491z"/>
	<path id="XMLID_51_" class="st4" d="M-359.9907,256.1491c0,1.469-1.1921,2.6611-2.6593,2.6611
		c-1.469,0-2.6591-1.1921-2.6591-2.6611c0-1.4692,1.1901-2.6611,2.6591-2.6611
		C-361.1828,253.4879-359.9907,254.6799-359.9907,256.1491L-359.9907,256.1491z"/>
	<path id="XMLID_50_" class="st4" d="M-373.4973,256.1491c0,1.469-1.1901,2.6611-2.6572,2.6611
		c-1.471,0-2.6611-1.1921-2.6611-2.6611c0-1.4692,1.1901-2.6611,2.6611-2.6611
		C-374.6874,253.4879-373.4973,254.6799-373.4973,256.1491L-373.4973,256.1491z"/>
	<path id="XMLID_49_" class="st5" d="M-409.4835,257.4816c-0.5959,0-1.0756-0.4817-1.0756-1.0756v-11.5759
		c0-0.598,0.4797-1.0797,1.0756-1.0797c0.5941,0,1.0779,0.4817,1.0779,1.0797v11.5759
		C-408.4056,256.9999-408.8893,257.4816-409.4835,257.4816L-409.4835,257.4816z"/>
	<path id="XMLID_48_" class="st5" d="M-401.6061,257.4816c-0.5941,0-1.0758-0.4817-1.0758-1.0756v-11.5759
		c0-0.598,0.4817-1.0797,1.0758-1.0797c0.596,0,1.0796,0.4817,1.0796,1.0797v11.5759
		C-400.5266,256.9999-401.0102,257.4816-401.6061,257.4816L-401.6061,257.4816z"/>
	<path id="XMLID_47_" class="st5" d="M-394.8529,257.4816c-0.5941,0-1.0757-0.4817-1.0757-1.0756v-11.5759
		c0-0.598,0.4815-1.0797,1.0757-1.0797c0.5941,0,1.0777,0.4817,1.0777,1.0797v11.5759
		C-393.7752,256.9999-394.2588,257.4816-394.8529,257.4816L-394.8529,257.4816z"/>
	<path id="XMLID_46_" class="st5" d="M-388.0997,257.4816c-0.596,0-1.0756-0.4817-1.0756-1.0756v-11.5759
		c0-0.598,0.4796-1.0797,1.0756-1.0797c0.5941,0,1.0777,0.4817,1.0777,1.0797v11.5759
		C-387.022,256.9999-387.5056,257.4816-388.0997,257.4816L-388.0997,257.4816z"/>
	<polygon id="XMLID_45_" class="st1" points="-417.3625,270.4142 -417.3625,295.7376 -392.3884,295.7376 -367.0671,270.4142 
		-417.3625,270.4142 	"/>
	<polygon id="XMLID_44_" class="st2" points="-338.0171,270.4142 -367.0671,270.4142 -392.3884,295.7376 -338.0171,295.7376 
		-338.0171,270.4142 	"/>
	<path id="XMLID_43_" class="st3" d="M-371.5004,279.1362c0,2.6412-2.1414,4.7846-4.7826,4.7846
		c-2.643,0-4.7845-2.1435-4.7845-4.7846c0-2.641,2.1414-4.7803,4.7845-4.7803
		C-373.6418,274.3559-371.5004,276.4952-371.5004,279.1362L-371.5004,279.1362z"/>
	<path id="XMLID_42_" class="st3" d="M-357.9939,279.1362c0,2.6412-2.1414,4.7846-4.7845,4.7846
		c-2.641,0-4.7824-2.1435-4.7824-4.7846c0-2.641,2.1414-4.7803,4.7824-4.7803
		C-360.1353,274.3559-357.9939,276.4952-357.9939,279.1362L-357.9939,279.1362z"/>
	<path id="XMLID_41_" class="st3" d="M-344.4893,279.1362c0,2.6412-2.1393,4.7846-4.7824,4.7846
		c-2.6432,0-4.7844-2.1435-4.7844-4.7846c0-2.641,2.1412-4.7803,4.7844-4.7803
		C-346.6287,274.3559-344.4893,276.4952-344.4893,279.1362L-344.4893,279.1362z"/>
	<path id="XMLID_40_" class="st4" d="M-346.4863,288.7855c0,1.4692-1.1901,2.6613-2.659,2.6613
		c-1.469,0-2.6591-1.1922-2.6591-2.6613c0-1.4649,1.1901-2.657,2.6591-2.657
		C-347.6764,286.1284-346.4863,287.3206-346.4863,288.7855L-346.4863,288.7855z"/>
	<path id="XMLID_39_" class="st4" d="M-359.9907,288.7855c0,1.4692-1.1921,2.6613-2.6593,2.6613
		c-1.469,0-2.6591-1.1922-2.6591-2.6613c0-1.4649,1.1901-2.657,2.6591-2.657
		C-361.1828,286.1284-359.9907,287.3206-359.9907,288.7855L-359.9907,288.7855z"/>
	<path id="XMLID_38_" class="st4" d="M-373.4973,288.7855c0,1.4692-1.1901,2.6613-2.6572,2.6613
		c-1.471,0-2.6611-1.1922-2.6611-2.6613c0-1.4649,1.1901-2.657,2.6611-2.657
		C-374.6874,286.1284-373.4973,287.3206-373.4973,288.7855L-373.4973,288.7855z"/>
	<path id="XMLID_37_" class="st5" d="M-409.4835,290.1221c-0.5959,0-1.0756-0.4856-1.0756-1.0797v-11.5759
		c0-0.5939,0.4797-1.0756,1.0756-1.0756c0.5941,0,1.0779,0.4817,1.0779,1.0756v11.5759
		C-408.4056,289.6365-408.8893,290.1221-409.4835,290.1221L-409.4835,290.1221z"/>
	<path id="XMLID_36_" class="st5" d="M-401.6061,290.1221c-0.5941,0-1.0758-0.4856-1.0758-1.0797v-11.5759
		c0-0.5939,0.4817-1.0756,1.0758-1.0756c0.596,0,1.0796,0.4817,1.0796,1.0756v11.5759
		C-400.5266,289.6365-401.0102,290.1221-401.6061,290.1221L-401.6061,290.1221z"/>
	<path id="XMLID_35_" class="st5" d="M-394.8529,290.1221c-0.5941,0-1.0757-0.4856-1.0757-1.0797v-11.5759
		c0-0.5939,0.4815-1.0756,1.0757-1.0756c0.5941,0,1.0777,0.4817,1.0777,1.0756v11.5759
		C-393.7752,289.6365-394.2588,290.1221-394.8529,290.1221L-394.8529,290.1221z"/>
	<path id="XMLID_34_" class="st5" d="M-388.0997,290.1221c-0.596,0-1.0756-0.4856-1.0756-1.0797v-11.5759
		c0-0.5939,0.4796-1.0756,1.0756-1.0756c0.5941,0,1.0777,0.4817,1.0777,1.0756v11.5759
		C-387.022,289.6365-387.5056,290.1221-388.0997,290.1221L-388.0997,290.1221z"/>
	<polygon id="XMLID_33_" class="st1" points="-417.3625,301.9269 -417.3625,327.2501 -392.3884,327.2501 -367.0671,301.9269 
		-417.3625,301.9269 	"/>
	<polygon id="XMLID_32_" class="st2" points="-338.0171,301.9269 -367.0671,301.9269 -392.3884,327.2501 -338.0171,327.2501 
		-338.0171,301.9269 	"/>
	<path id="XMLID_31_" class="st3" d="M-371.5004,310.6489c0,2.6412-2.1414,4.7844-4.7826,4.7844
		c-2.643,0-4.7845-2.1432-4.7845-4.7844c0-2.641,2.1414-4.7805,4.7845-4.7805
		C-373.6418,305.8683-371.5004,308.0079-371.5004,310.6489L-371.5004,310.6489z"/>
	<path id="XMLID_30_" class="st3" d="M-357.9939,310.6489c0,2.6412-2.1414,4.7844-4.7845,4.7844
		c-2.641,0-4.7824-2.1432-4.7824-4.7844c0-2.641,2.1414-4.7805,4.7824-4.7805
		C-360.1353,305.8683-357.9939,308.0079-357.9939,310.6489L-357.9939,310.6489z"/>
	<path id="XMLID_29_" class="st3" d="M-344.4893,310.6489c0,2.6412-2.1393,4.7844-4.7824,4.7844
		c-2.6432,0-4.7844-2.1432-4.7844-4.7844c0-2.641,2.1412-4.7805,4.7844-4.7805
		C-346.6287,305.8683-344.4893,308.0079-344.4893,310.6489L-344.4893,310.6489z"/>
	<path id="XMLID_28_" class="st4" d="M-346.4863,320.2981c0,1.4692-1.1901,2.6613-2.659,2.6613
		c-1.469,0-2.6591-1.1922-2.6591-2.6613c0-1.4651,1.1901-2.657,2.6591-2.657
		C-347.6764,317.6411-346.4863,318.8331-346.4863,320.2981L-346.4863,320.2981z"/>
	<path id="XMLID_27_" class="st4" d="M-359.9907,320.2981c0,1.4692-1.1921,2.6613-2.6593,2.6613
		c-1.469,0-2.6591-1.1922-2.6591-2.6613c0-1.4651,1.1901-2.657,2.6591-2.657
		C-361.1828,317.6411-359.9907,318.8331-359.9907,320.2981L-359.9907,320.2981z"/>
	<path id="XMLID_26_" class="st4" d="M-373.4973,320.2981c0,1.4692-1.1901,2.6613-2.6572,2.6613
		c-1.471,0-2.6611-1.1922-2.6611-2.6613c0-1.4651,1.1901-2.657,2.6611-2.657
		C-374.6874,317.6411-373.4973,318.8331-373.4973,320.2981L-373.4973,320.2981z"/>
	<path id="XMLID_25_" class="st5" d="M-409.4835,321.6348c-0.5959,0-1.0756-0.4856-1.0756-1.0797v-11.5759
		c0-0.5939,0.4797-1.0756,1.0756-1.0756c0.5941,0,1.0779,0.4817,1.0779,1.0756v11.5759
		C-408.4056,321.1491-408.8893,321.6348-409.4835,321.6348L-409.4835,321.6348z"/>
	<path id="XMLID_24_" class="st5" d="M-401.6061,321.6348c-0.5941,0-1.0758-0.4856-1.0758-1.0797v-11.5759
		c0-0.5939,0.4817-1.0756,1.0758-1.0756c0.596,0,1.0796,0.4817,1.0796,1.0756v11.5759
		C-400.5266,321.1491-401.0102,321.6348-401.6061,321.6348L-401.6061,321.6348z"/>
	<path id="XMLID_23_" class="st5" d="M-394.8529,321.6348c-0.5941,0-1.0757-0.4856-1.0757-1.0797v-11.5759
		c0-0.5939,0.4815-1.0756,1.0757-1.0756c0.5941,0,1.0777,0.4817,1.0777,1.0756v11.5759
		C-393.7752,321.1491-394.2588,321.6348-394.8529,321.6348L-394.8529,321.6348z"/>
	<path id="XMLID_1_" class="st5" d="M-388.0997,321.6348c-0.596,0-1.0756-0.4856-1.0756-1.0797v-11.5759
		c0-0.5939,0.4796-1.0756,1.0756-1.0756c0.5941,0,1.0777,0.4817,1.0777,1.0756v11.5759
		C-387.022,321.1491-387.5056,321.6348-388.0997,321.6348L-388.0997,321.6348z"/>
</g>
</svg>
