<?xml version="1.0" encoding="utf-8"?>
<!-- Generator: Adobe Illustrator 19.0.0, SVG Export Plug-In . SVG Version: 6.00 Build 0)  -->
<svg version="1.1" id="Capa_1" xmlns="http://www.w3.org/2000/svg" xmlns:xlink="http://www.w3.org/1999/xlink" x="0px" y="0px"
	 viewBox="-309 262 177 90" style="enable-background:new -309 262 177 90;" xml:space="preserve">
<style type="text/css">
	.st0{fill:#FFFFFF;}
</style>
<g id="XMLID_1_">
	<g>
		<g id="XMLID_56_">
			<path id="XMLID_58_" class="st0" d="M-206.9,287.3l8.3-0.2l-6,21.6c-1,3.4-1.5,5.6-1.5,6.6c-0.1,1.6,0.4,2.9,1.4,3.9
				c1,0.9,2.8,1.4,5.1,1.4c2.4,0,4.2-0.5,5.7-1.5s2.5-2.1,3.1-3.5s1.4-3.6,2.2-6.8l6.1-22l8.3-0.2l-5.8,20.9
				c-1.3,4.8-2.5,8.2-3.5,10.1c-1,2-2.3,3.7-3.9,5.1c-1.6,1.4-3.5,2.5-5.7,3.3c-2.2,0.9-5,1.3-8.3,1.4c-3.9,0.1-6.8-0.3-8.5-1.2
				c-1.8-0.8-3.1-1.9-3.9-3.3c-0.8-1.4-1.2-2.8-1.1-4.4c0.1-2.3,0.8-5.6,2-10.1L-206.9,287.3L-206.9,287.3z"/>
			<path id="XMLID_57_" class="st0" d="M-180,326.4l19.8-21l-7.4-18.8l9.7-0.2l4.7,12.6l11.6-12.9l9.6-0.2l-18.1,19.6l8.3,20.2
				l-10,0.2l-5.2-13.7l-13,14L-180,326.4L-180,326.4z"/>
		</g>
	</g>
</g>
<g id="XMLID_20_">
</g>
<g id="XMLID_21_">
</g>
<g id="XMLID_22_">
</g>
<g id="XMLID_23_">
</g>
<g id="XMLID_24_">
</g>
<g id="XMLID_25_">
</g>
<g id="XMLID_26_">
</g>
<g id="XMLID_27_">
</g>
<g id="XMLID_28_">
</g>
<g id="XMLID_29_">
</g>
<g id="XMLID_30_">
</g>
<g id="XMLID_31_">
</g>
<g id="XMLID_32_">
</g>
<g id="XMLID_33_">
</g>
<g id="XMLID_34_">
</g>
<g id="XMLID_40_">
</g>
<g id="XMLID_39_">
</g>
<g id="XMLID_38_">
</g>
<g id="XMLID_37_">
</g>
<g id="XMLID_36_">
</g>
<g id="XMLID_35_">
</g>
<g id="XMLID_19_">
</g>
<g id="XMLID_18_">
</g>
<g id="XMLID_15_">
</g>
<g id="XMLID_14_">
</g>
<g id="XMLID_10_">
</g>
<g id="XMLID_8_">
</g>
<g id="XMLID_6_">
</g>
<g id="XMLID_4_">
</g>
<g>
	<g>
		<path class="st0" d="M-309,309.2c0-1.3,0-2.7,0-4c0,0,0,0.1,0.1,0v-0.1c0.1-0.9,0.1-1.7,0.2-2.6c0.5-5.1,1.8-9.9,4-14.5
			c4.8-10,12.2-17.3,22.3-21.9c2-0.9,4-1.7,6.1-2.2c0,0,0,0,0.1,0c0,0.2-0.1,0.3-0.1,0.5c-0.5,1.4-1,2.8-1.5,4.2
			c-7,19.2-14,38.5-21,57.7c-0.2,0.5-0.2,0.5,0.3,0.5c2.8,0,5.6,0,8.4,0c0.5,0,0.7-0.1,0.8-0.6c3.9-10.8,7.9-21.6,11.8-32.4
			c0.1-0.3,0.3-0.4,0.6-0.4c2.1,0,4.1,0,6.2,0c0.5,0,0.5,0,0.4,0.5c-3.9,10.8-7.9,21.6-11.8,32.4c-0.2,0.5-0.2,0.5,0.4,0.5
			c2.8,0,5.7,0,8.5,0c0.3,0,0.5-0.1,0.6-0.4c3.3-9.2,6.7-18.3,10-27.5c0.5-1.5,1.2-3,1.5-4.6c0.5-2.4-0.4-4.6-2.3-5.8
			c-1-0.7-2.2-1-3.4-1c-2.6,0-5.3,0-7.9,0c-0.4,0-0.5-0.1-0.3-0.5c2.5-6.9,5-13.9,7.6-20.8c0.5-1.4,0.9-2.9,1.6-4.2
			c1.2,0,2.5,0,3.7,0c0,0,0,0,0,0.1l0,0c0.2,0,0.4,0.1,0.6,0.1c3.8,0.2,7.5,0.8,11.1,2c9.1,2.9,16.6,8.2,22.4,15.8
			c4.3,5.7,7,12,8.3,19c0.4,1.9,0.6,3.8,0.7,5.8c0,0.1-0.1,0.3,0.1,0.4c0,1.2,0,2.5,0,3.7c0,0,0,0-0.1,0l0,0c0,0.1-0.1,0.3-0.1,0.4
			c-0.1,2.5-0.4,5-1,7.5c-1.7,7.8-5.3,14.7-10.7,20.6c-4.1,4.6-9,8.1-14.6,10.6c-3.4,1.6-7,2.7-10.7,3.3c-1.9,0.3-3.7,0.5-5.6,0.6
			c-0.1,0-0.3-0.1-0.3,0.1c-1.1,0-2.1,0-3.2,0c0.1-0.2,0.1-0.4,0.2-0.6c2.9-8.1,5.9-16.2,8.8-24.3c0.1-0.3,0.3-0.4,0.6-0.4
			c4,0,8,0,12,0c2.5,0,4.8-1.6,5.6-4c2.2-6.1,4.4-12.2,6.7-18.3c1.1-3.1,2.3-6.1,3.3-9.2c0.7-1.9,0.6-3.8-0.6-5.5
			c-1.2-1.6-2.9-2.3-4.8-2.3c-5.8,0-11.7,0-17.5,0c-0.3,0-0.4,0.2-0.5,0.4c-7.6,20.8-15.2,41.6-22.7,62.4c-0.1,0.3-0.2,0.4-0.6,0.3
			c-2.6-0.7-5.2-1.5-7.6-2.6c-7.7-3.5-14-8.8-18.7-15.8c-3.8-5.6-6.2-11.7-7.2-18.4c-0.2-1.5-0.4-2.9-0.4-4.4
			C-308.9,309.4-308.8,309.2-309,309.2z"/>
		<path class="st0" d="M-254,320.9c0.3-0.9,0.6-1.8,1-2.7c2.9-8.1,5.9-16.2,8.8-24.3c0.1-0.4,0.3-0.5,0.7-0.5c2.1,0,4.1,0,6.2,0
			c0.3,0,0.4,0.1,0.3,0.4c-3.3,8.9-6.5,17.8-9.7,26.7c-0.1,0.2-0.1,0.4-0.4,0.4c-2.2,0-4.4,0-6.6,0
			C-253.8,320.9-253.9,320.9-254,320.9z"/>
		<path class="st0" d="M-276.3,264C-276.2,264-276.2,264-276.3,264C-276.2,264-276.2,264-276.3,264C-276.2,264-276.2,264-276.3,264z
			"/>
	</g>
</g>
</svg>
