<?xml version="1.0" encoding="utf-8"?>
<!-- Generator: Adobe Illustrator 19.0.0, SVG Export Plug-In . SVG Version: 6.00 Build 0)  -->
<svg version="1.1" id="Capa_1" xmlns="http://www.w3.org/2000/svg" xmlns:xlink="http://www.w3.org/1999/xlink" x="0px" y="0px"
	 viewBox="0 0 419 375" style="enable-background:new 0 0 419 375;" xml:space="preserve">
<style type="text/css">
	.st0{fill:none;stroke:#828282;stroke-width:8;stroke-linecap:round;stroke-linejoin:round;stroke-miterlimit:10;}
	.st1{fill:none;stroke:#828282;stroke-width:13;stroke-linecap:round;stroke-linejoin:round;stroke-miterlimit:10;}
	.st2{fill:none;stroke:#828282;stroke-width:10.6;stroke-linecap:round;stroke-linejoin:round;stroke-miterlimit:10;}
	.st3{fill:none;stroke:#828282;stroke-width:6;stroke-linecap:round;stroke-linejoin:round;stroke-miterlimit:10;}
	.st4{fill:#828282;}
	.st5{fill:none;stroke:#828282;stroke-width:18;stroke-linecap:round;stroke-linejoin:round;stroke-miterlimit:10;}
	.st6{fill:none;stroke:#828282;stroke-width:6;stroke-miterlimit:10;}
	.st7{fill:none;stroke:#828282;stroke-width:6;stroke-miterlimit:10;stroke-dasharray:21.0645,21.0645;}
	.st8{fill:none;}
</style>
<path id="XMLID_23_" class="st0" d="M168.8185,132.1354c22.8172-22.4011,59.4693-22.1761,81.7878,0.5022
	c22.3782,22.7389,22.0837,59.5108-0.6545,81.717"/>
<path id="XMLID_9_" class="st1" d="M208.0399,361.9866c-105.6694-1.2508-189.4545-86.0421-188.6444-190.9094
	c0.321-41.5585,14.004-79.9556,36.9119-111.1091"/>
<path id="XMLID_11_" class="st2" d="M210.3879,11.1846c89.1539,0.8203,160.9748,73.5284,160.2654,162.2456"/>
<path id="XMLID_17_" class="st3" d="M153.7464,292.3077c-27.8924-12.8224-50.4251-34.9115-63.7059-62.3282"/>
<path id="XMLID_16_" class="st3" d="M76.9329,171.424c0.5647-73.1047,60.4341-132.1778,133.2803-131.5076
	c73.2474,0.6739,132.2542,60.4097,131.6714,133.2983c-0.5843,73.0833-60.6268,132.1717-133.4302,131.3099"/>
<path id="XMLID_18_" class="st1" d="M282.4468,246.3395c-41.2638,40.2984-106.3227,39.9101-146.4816-0.8742
	C95.8107,204.6856,96.2515,138.845,136.9465,98.892"/>
<path id="XMLID_12_" class="st4" d="M209.0763,218.3316c-25.6757-0.3039-46.034-20.9066-45.8371-46.3875
	c0.1968-25.478,21.0621-46.0658,46.4501-45.8322c25.5278,0.2349,46.0925,21.0536,45.8894,46.4564
	C255.375,198.0388,234.4493,218.6319,209.0763,218.3316z"/>
<path id="XMLID_25_" class="st5" d="M229.7857,303.0428c-6.953,1.0586-14.0788,1.5676-21.3312,1.4818"/>
<path id="XMLID_22_" class="st5" d="M331.3379,223.9635c-7.2224,16.9416-17.8688,32.0764-31.0485,44.5278"/>
<path id="XMLID_20_" class="st5" d="M322.9869,104.2155c12.1749,20.1612,19.0993,43.7938,18.8978,68.9992"/>
<path id="XMLID_15_" class="st5" d="M210.2132,39.9164c23.4576,0.2158,45.4546,6.4891,64.5017,17.3119"/>
<g id="XMLID_29_">
	<g id="XMLID_76_">
		<path id="XMLID_79_" class="st6" d="M152.476,114.593c2.7765-2.7259,5.6991-5.2129,8.7419-7.4612"/>
		<path id="XMLID_78_" class="st7" d="M179.5923,96.938c29.4082-11.6262,64.1471-5.4724,87.6009,18.3594
			c26.0869,26.5074,30.2074,66.6106,12.546,97.2815"/>
		<path id="XMLID_77_" class="st6" d="M273.9054,221.3207c-2.3035,3.0026-4.847,5.8763-7.6302,8.5944"/>
	</g>
</g>
<g id="XMLID_14_">
	<path id="XMLID_70_" class="st8" d="M152.476,114.593"/>
</g>
<g id="XMLID_13_">
	<path id="XMLID_67_" class="st8" d="M266.2752,229.9151"/>
</g>
<g id="XMLID_8_">
</g>
<g id="XMLID_10_">
</g>
<g id="XMLID_24_">
</g>
<g id="XMLID_26_">
</g>
<g id="XMLID_28_">
</g>
<g id="XMLID_71_">
</g>
<g id="XMLID_72_">
</g>
<g id="XMLID_73_">
</g>
<g id="XMLID_74_">
</g>
<g id="XMLID_80_">
</g>
<g id="XMLID_81_">
</g>
<g id="XMLID_82_">
</g>
<g id="XMLID_83_">
</g>
<g id="XMLID_84_">
</g>
<g id="XMLID_85_">
</g>
</svg>
