<?xml version="1.0" encoding="utf-8"?>
<!-- Generator: Adobe Illustrator 19.0.0, SVG Export Plug-In . SVG Version: 6.00 Build 0)  -->
<svg version="1.1" id="Capa_1" xmlns="http://www.w3.org/2000/svg" xmlns:xlink="http://www.w3.org/1999/xlink" x="0px" y="0px"
	 viewBox="0 0 154.5 265" style="enable-background:new 0 0 154.5 265;" xml:space="preserve">
<style type="text/css">
	.st0{fill-rule:evenodd;clip-rule:evenodd;fill:#FFFFFF;}
	.st1{fill:#FFFFFF;}
</style>
<g id="XMLID_1_">
	<rect id="XMLID_54_" width="154.5" height="265"/>
	<g id="XMLID_127_">
		<g id="XMLID_862_">
			<path id="XMLID_872_" class="st0" d="M74.3,129.5c4.5,0,8.2,3.7,8.2,8.3c0,4.6-3.7,8.3-8.2,8.3c-4.5,0-8.2-3.7-8.2-8.3
				C66.1,133.3,69.8,129.5,74.3,129.5"/>
			<path id="XMLID_866_" class="st0" d="M44.3,156.3L44.3,156.3l0,0.3c0,0.4,0.2,0.7,0.7,1c0.5,0.2,1.2,0.3,2.3,0.3
				c0.8,0,1.4-0.1,1.8-0.3c0.4-0.2,0.7-0.4,0.7-0.7c0-0.5-0.9-0.8-2.6-1.1c-0.2,0-0.4-0.1-0.5-0.1c-0.1,0-0.3,0-0.5-0.1
				c-2.8-0.5-4.5-0.9-5.3-1.5c-0.4-0.3-0.7-0.6-0.9-0.9c-0.2-0.4-0.3-0.8-0.3-1.2c0-1.1,0.6-1.9,1.9-2.5c1.3-0.6,3.1-0.8,5.6-0.8
				c2.4,0,4.2,0.3,5.4,0.8c1.2,0.5,1.7,1.4,1.7,2.4v0.1h-4.6v0c0-0.4-0.2-0.7-0.7-0.9c-0.5-0.2-1.1-0.3-2-0.3
				c-0.7,0-1.2,0.1-1.6,0.2c-0.4,0.1-0.6,0.3-0.6,0.6c0,0.5,1,0.8,3,1.2c0.4,0.1,0.7,0.1,0.9,0.1c1.4,0.2,2.4,0.4,3,0.6
				c0.6,0.2,1.1,0.4,1.6,0.6c0.5,0.3,0.9,0.6,1.1,1c0.3,0.4,0.4,0.9,0.4,1.3c0,1.1-0.7,2-2.1,2.6c-1.4,0.6-3.4,0.9-6,0.9
				c-2.6,0-4.4-0.3-5.6-0.9c-1.2-0.6-1.7-1.5-1.7-2.8v-0.2H44.3z M56.9,159.9v-11h13.1v2.4h-8.2v1.7h7.5v2.3h-7.5v2.1h8.5v2.4H56.9z
				 M72.3,159.9v-11h6.2l6.6,7.4v-7.4h4.7v11h-6.4l-6.4-7.4v7.4H72.3z M102.5,155.5l-2.3-4l-2.5,4H102.5z M95,159.9h-4.9l7.6-11h5.4
				l7.2,11h-5.5l-1.1-2h-7.6L95,159.9z"/>
			<path id="XMLID_865_" class="st0" d="M50.4,198.5l-4.4-4.1l13.3-23.1c0.7-1.3-0.2-2.8-1.6-2.8H35.8v-5.8H71L50.4,198.5z"/>
			<path id="XMLID_864_" class="st0" d="M97.8,198.5l4.4-4.1l-13.3-23.1c-0.7-1.3,0.2-2.8,1.6-2.8h21.8v-5.8H77.2L97.8,198.5z"/>
			<path id="XMLID_863_" class="st0" d="M74,168.8L74,168.8l19.8,32.6l-5.3,2.7l-12.8-21.4c-0.8-1.3-2.6-1.3-3.3,0
				c-4.3,7.2-12.7,21.4-12.7,21.4l-5.1-2.5C54.7,201.6,73,170.6,74,168.8"/>
		</g>
		<g id="XMLID_96_">
			<g id="XMLID_78_">
				<path id="XMLID_97_" class="st1" d="M33.1,68.5l1.7,0.5c-0.3,0.9-0.7,1.6-1.3,2.1c-0.6,0.4-1.3,0.7-2.2,0.7
					c-1.1,0-2-0.4-2.8-1.2c-0.7-0.8-1.1-1.8-1.1-3.1c0-1.4,0.4-2.5,1.1-3.3c0.7-0.8,1.7-1.2,2.9-1.2c1,0,1.9,0.3,2.5,0.9
					c0.4,0.4,0.7,0.9,0.9,1.6L33,65.8c-0.1-0.4-0.3-0.8-0.6-1c-0.3-0.3-0.7-0.4-1.2-0.4c-0.6,0-1.1,0.2-1.5,0.7
					c-0.4,0.4-0.6,1.2-0.6,2.2c0,1.1,0.2,1.8,0.6,2.3c0.4,0.5,0.9,0.7,1.5,0.7c0.5,0,0.8-0.1,1.2-0.4C32.7,69.5,32.9,69.1,33.1,68.5
					z"/>
				<path id="XMLID_99_" class="st1" d="M35.9,67.4c0-0.9,0.1-1.6,0.4-2.2c0.2-0.4,0.5-0.8,0.8-1.2c0.3-0.3,0.7-0.6,1.1-0.8
					c0.5-0.2,1.1-0.3,1.8-0.3c1.2,0,2.2,0.4,3,1.2c0.7,0.8,1.1,1.8,1.1,3.2c0,1.4-0.4,2.4-1.1,3.2s-1.7,1.2-3,1.2
					c-1.3,0-2.3-0.4-3-1.2C36.2,69.8,35.9,68.7,35.9,67.4z M37.6,67.3c0,1,0.2,1.7,0.7,2.2c0.4,0.5,1,0.7,1.7,0.7s1.2-0.2,1.7-0.7
					c0.4-0.5,0.7-1.2,0.7-2.2c0-1-0.2-1.7-0.6-2.2c-0.4-0.5-1-0.7-1.7-0.7s-1.3,0.2-1.7,0.7C37.8,65.6,37.6,66.4,37.6,67.3z"/>
				<path id="XMLID_102_" class="st1" d="M45.4,71.6v-8.5h1.7l3.5,5.6v-5.6h1.6v8.5h-1.7L47,66.1v5.5H45.4z"/>
				<path id="XMLID_104_" class="st1" d="M53.5,68.8l1.7-0.2c0.1,0.6,0.3,1,0.6,1.2c0.3,0.3,0.7,0.4,1.2,0.4c0.6,0,1-0.1,1.2-0.3
					c0.3-0.2,0.4-0.5,0.4-0.8c0-0.2-0.1-0.4-0.2-0.5c-0.1-0.1-0.3-0.3-0.6-0.4c-0.2-0.1-0.7-0.2-1.4-0.4c-0.9-0.2-1.6-0.5-1.9-0.8
					c-0.5-0.5-0.8-1-0.8-1.7c0-0.4,0.1-0.8,0.4-1.2c0.2-0.4,0.6-0.7,1.1-0.9c0.5-0.2,1-0.3,1.7-0.3c1.1,0,1.9,0.2,2.4,0.7
					c0.5,0.5,0.8,1.1,0.8,1.9l-1.7,0.1c-0.1-0.4-0.2-0.7-0.5-0.9c-0.2-0.2-0.6-0.3-1.1-0.3c-0.5,0-0.9,0.1-1.2,0.3
					c-0.2,0.1-0.3,0.3-0.3,0.5c0,0.2,0.1,0.4,0.3,0.5c0.2,0.2,0.7,0.4,1.6,0.6c0.8,0.2,1.4,0.4,1.8,0.6c0.4,0.2,0.7,0.5,0.9,0.9
					c0.2,0.4,0.3,0.8,0.3,1.3c0,0.5-0.1,0.9-0.4,1.4c-0.3,0.4-0.6,0.7-1.1,0.9c-0.5,0.2-1.1,0.3-1.8,0.3c-1.1,0-1.9-0.2-2.5-0.7
					C53.9,70.5,53.6,69.8,53.5,68.8z"/>
				<path id="XMLID_106_" class="st1" d="M63.7,71.6v-7h-2.5v-1.4h6.7v1.4h-2.5v7H63.7z"/>
				<path id="XMLID_111_" class="st1" d="M69,71.6v-8.5h3.6c0.9,0,1.6,0.1,2,0.2c0.4,0.2,0.7,0.4,1,0.8c0.2,0.4,0.4,0.8,0.4,1.3
					c0,0.6-0.2,1.2-0.6,1.6c-0.4,0.4-0.9,0.7-1.7,0.8c0.4,0.2,0.7,0.5,0.9,0.7c0.2,0.3,0.6,0.7,1,1.4l1,1.6h-2l-1.2-1.8
					c-0.4-0.7-0.7-1.1-0.9-1.2c-0.2-0.2-0.3-0.3-0.5-0.4c-0.2-0.1-0.5-0.1-0.9-0.1h-0.3v3.5H69z M70.7,66.7H72c0.8,0,1.3,0,1.5-0.1
					c0.2-0.1,0.4-0.2,0.5-0.4c0.1-0.2,0.2-0.4,0.2-0.6c0-0.3-0.1-0.5-0.2-0.7c-0.2-0.2-0.4-0.3-0.6-0.3c-0.1,0-0.6,0-1.2,0h-1.3
					V66.7z"/>
				<path id="XMLID_114_" class="st1" d="M77.5,63.1h1.7v4.6c0,0.7,0,1.2,0.1,1.4c0.1,0.3,0.2,0.6,0.5,0.8c0.3,0.2,0.7,0.3,1.1,0.3
					c0.5,0,0.9-0.1,1.1-0.3c0.2-0.2,0.4-0.4,0.4-0.7c0.1-0.3,0.1-0.8,0.1-1.4v-4.7h1.7v4.4c0,1,0,1.7-0.1,2.2
					c-0.1,0.4-0.3,0.8-0.5,1.1c-0.2,0.3-0.6,0.5-1,0.7c-0.4,0.2-1,0.3-1.6,0.3c-0.8,0-1.4-0.1-1.8-0.3c-0.4-0.2-0.7-0.4-1-0.7
					c-0.2-0.3-0.4-0.6-0.5-0.9c-0.1-0.5-0.2-1.2-0.2-2.1V63.1z"/>
				<path id="XMLID_116_" class="st1" d="M91.5,68.5l1.7,0.5c-0.3,0.9-0.7,1.6-1.3,2.1c-0.6,0.4-1.3,0.7-2.2,0.7
					c-1.1,0-2-0.4-2.8-1.2c-0.7-0.8-1.1-1.8-1.1-3.1c0-1.4,0.4-2.5,1.1-3.3c0.7-0.8,1.7-1.2,2.9-1.2c1,0,1.9,0.3,2.5,0.9
					c0.4,0.4,0.7,0.9,0.9,1.6l-1.7,0.4c-0.1-0.4-0.3-0.8-0.6-1c-0.3-0.3-0.7-0.4-1.2-0.4c-0.6,0-1.1,0.2-1.5,0.7
					c-0.4,0.4-0.6,1.2-0.6,2.2c0,1.1,0.2,1.8,0.6,2.3c0.4,0.5,0.9,0.7,1.5,0.7c0.5,0,0.8-0.1,1.2-0.4C91.1,69.5,91.4,69.1,91.5,68.5
					z"/>
				<path id="XMLID_118_" class="st1" d="M100,68.5l1.7,0.5c-0.3,0.9-0.7,1.6-1.3,2.1c-0.6,0.4-1.3,0.7-2.2,0.7
					c-1.1,0-2-0.4-2.8-1.2c-0.7-0.8-1.1-1.8-1.1-3.1c0-1.4,0.4-2.5,1.1-3.3c0.7-0.8,1.7-1.2,2.9-1.2c1,0,1.9,0.3,2.5,0.9
					c0.4,0.4,0.7,0.9,0.9,1.6l-1.7,0.4c-0.1-0.4-0.3-0.8-0.6-1c-0.3-0.3-0.7-0.4-1.2-0.4c-0.6,0-1.1,0.2-1.5,0.7
					c-0.4,0.4-0.6,1.2-0.6,2.2c0,1.1,0.2,1.8,0.6,2.3c0.4,0.5,0.9,0.7,1.5,0.7c0.5,0,0.8-0.1,1.2-0.4C99.7,69.5,99.9,69.1,100,68.5z
					"/>
				<path id="XMLID_157_" class="st1" d="M103.1,71.6v-8.5h1.7v8.5H103.1z"/>
				<path id="XMLID_159_" class="st1" d="M106.1,67.4c0-0.9,0.1-1.6,0.4-2.2c0.2-0.4,0.5-0.8,0.8-1.2c0.3-0.3,0.7-0.6,1.1-0.8
					c0.5-0.2,1.1-0.3,1.8-0.3c1.2,0,2.2,0.4,3,1.2c0.7,0.8,1.1,1.8,1.1,3.2c0,1.4-0.4,2.4-1.1,3.2s-1.7,1.2-3,1.2
					c-1.3,0-2.3-0.4-3-1.2C106.5,69.8,106.1,68.7,106.1,67.4z M107.9,67.3c0,1,0.2,1.7,0.7,2.2c0.4,0.5,1,0.7,1.7,0.7
					s1.2-0.2,1.7-0.7c0.4-0.5,0.7-1.2,0.7-2.2c0-1-0.2-1.7-0.6-2.2c-0.4-0.5-1-0.7-1.7-0.7s-1.3,0.2-1.7,0.7
					C108.1,65.6,107.9,66.4,107.9,67.3z M109.2,62.6l0.8-1.7h1.8l-1.6,1.7H109.2z"/>
				<path id="XMLID_163_" class="st1" d="M115.7,71.6v-8.5h1.7l3.5,5.6v-5.6h1.6v8.5h-1.7l-3.4-5.5v5.5H115.7z"/>
			</g>
			<g id="XMLID_94_">
				<path id="XMLID_190_" class="st1" d="M37.1,99.6H35l-0.8-2.2h-3.9l-0.8,2.2h-2.1l3.8-9.7h2.1L37.1,99.6z M33.5,95.7l-1.3-3.6
					l-1.3,3.6H33.5z"/>
				<path id="XMLID_193_" class="st1" d="M38.1,99.6v-9.7h3.1c1.2,0,2,0,2.3,0.1c0.6,0.1,1,0.5,1.4,0.9c0.4,0.5,0.6,1.1,0.6,1.9
					c0,0.6-0.1,1.1-0.3,1.5s-0.5,0.7-0.8,1c-0.3,0.2-0.7,0.4-1,0.5c-0.5,0.1-1.1,0.1-2,0.1h-1.3v3.7H38.1z M40.1,91.5v2.8h1.1
					c0.8,0,1.3-0.1,1.5-0.2c0.3-0.1,0.5-0.3,0.6-0.5c0.1-0.2,0.2-0.5,0.2-0.8c0-0.4-0.1-0.6-0.3-0.9c-0.2-0.2-0.5-0.4-0.8-0.4
					c-0.2,0-0.7-0.1-1.4-0.1H40.1z"/>
				<path id="XMLID_196_" class="st1" d="M47.2,99.6v-9.7h4.1c1,0,1.8,0.1,2.3,0.3s0.8,0.5,1.1,0.9c0.3,0.4,0.4,1,0.4,1.5
					c0,0.7-0.2,1.3-0.6,1.8c-0.4,0.5-1.1,0.8-1.9,0.9c0.4,0.2,0.8,0.5,1,0.8s0.6,0.8,1.1,1.6l1.2,1.9h-2.3l-1.4-2.1
					c-0.5-0.8-0.8-1.2-1-1.4c-0.2-0.2-0.4-0.3-0.6-0.4c-0.2-0.1-0.5-0.1-1-0.1h-0.4v4.1H47.2z M49.2,94h1.4c0.9,0,1.5,0,1.8-0.1
					c0.2-0.1,0.4-0.2,0.5-0.4c0.1-0.2,0.2-0.4,0.2-0.7c0-0.3-0.1-0.6-0.3-0.8c-0.2-0.2-0.4-0.3-0.7-0.4c-0.2,0-0.6,0-1.4,0h-1.5V94z
					"/>
				<path id="XMLID_199_" class="st1" d="M57,99.6v-9.7h7.2v1.6h-5.2v2.2h4.9v1.6h-4.9v2.6h5.4v1.6H57z"/>
				<path id="XMLID_201_" class="st1" d="M66,99.6v-9.7h1.9l4,6.5v-6.5h1.8v9.7h-2l-3.9-6.3v6.3H66z"/>
				<path id="XMLID_204_" class="st1" d="M75.8,89.9h3.6c0.8,0,1.4,0.1,1.8,0.2c0.6,0.2,1.1,0.5,1.5,0.9c0.4,0.4,0.7,1,0.9,1.6
					c0.2,0.6,0.3,1.4,0.3,2.3c0,0.8-0.1,1.5-0.3,2.1c-0.2,0.7-0.6,1.3-1,1.7c-0.3,0.3-0.8,0.6-1.4,0.8c-0.4,0.1-1,0.2-1.7,0.2h-3.7
					V89.9z M77.8,91.5v6.4h1.5c0.5,0,0.9,0,1.2-0.1c0.3-0.1,0.6-0.2,0.8-0.4c0.2-0.2,0.4-0.5,0.5-0.9c0.1-0.4,0.2-1,0.2-1.8
					c0-0.8-0.1-1.3-0.2-1.7c-0.1-0.4-0.3-0.7-0.6-0.9c-0.2-0.2-0.5-0.4-0.9-0.5c-0.3-0.1-0.8-0.1-1.6-0.1H77.8z"/>
				<path id="XMLID_207_" class="st1" d="M85.5,99.6v-9.7h2v9.7H85.5z"/>
				<path id="XMLID_209_" class="st1" d="M88.5,99.6v-1.8l5.1-6.3h-4.5v-1.6h7.1v1.5l-5.3,6.5h5.5v1.6H88.5z"/>
				<path id="XMLID_211_" class="st1" d="M106.4,99.6h-2.1l-0.8-2.2h-3.9l-0.8,2.2h-2.1l3.8-9.7h2.1L106.4,99.6z M102.8,95.7
					l-1.3-3.6l-1.3,3.6H102.8z"/>
				<path id="XMLID_214_" class="st1" d="M110.9,89.9h2V96c0,0.8-0.1,1.4-0.2,1.9c-0.2,0.6-0.5,1-1,1.4c-0.5,0.3-1.2,0.5-2,0.5
					c-1,0-1.7-0.3-2.2-0.8c-0.5-0.5-0.8-1.3-0.8-2.4l1.8-0.2c0,0.6,0.1,0.9,0.2,1.2c0.2,0.3,0.5,0.5,1,0.5c0.4,0,0.7-0.1,0.9-0.4
					c0.2-0.2,0.3-0.8,0.3-1.6V89.9z"/>
				<path id="XMLID_216_" class="st1" d="M115,99.6v-9.7h7.2v1.6h-5.2v2.2h4.9v1.6h-4.9v2.6h5.4v1.6H115z"/>
			</g>
			<g id="XMLID_71_">
				<path id="XMLID_165_" class="st1" d="M27.4,80.9c0-1.2,0.2-2.2,0.5-3.1c0.3-0.6,0.6-1.2,1.1-1.6c0.5-0.5,1-0.8,1.6-1.1
					c0.7-0.3,1.6-0.5,2.6-0.5c1.8,0,3.2,0.5,4.2,1.6c1.1,1.1,1.6,2.6,1.6,4.6c0,1.9-0.5,3.5-1.6,4.5C36.4,86.4,35,87,33.2,87
					c-1.8,0-3.2-0.5-4.3-1.6C27.9,84.3,27.4,82.8,27.4,80.9z M29.9,80.8c0,1.4,0.3,2.4,0.9,3.1c0.6,0.7,1.4,1.1,2.4,1.1
					c1,0,1.8-0.3,2.4-1c0.6-0.7,0.9-1.7,0.9-3.1c0-1.4-0.3-2.4-0.9-3.1c-0.6-0.7-1.4-1-2.4-1c-1,0-1.8,0.3-2.4,1
					C30.2,78.4,29.9,79.4,29.9,80.8z"/>
				<path id="XMLID_170_" class="st1" d="M40.9,74.8h4.8c0.9,0,1.7,0,2.1,0.1c0.5,0.1,0.9,0.2,1.3,0.5s0.7,0.6,0.9,1
					c0.2,0.4,0.4,0.9,0.4,1.4c0,0.6-0.2,1.1-0.5,1.5c-0.3,0.5-0.7,0.8-1.2,1.1c0.7,0.2,1.3,0.6,1.7,1.1c0.4,0.5,0.6,1.1,0.6,1.8
					c0,0.5-0.1,1.1-0.4,1.6c-0.3,0.5-0.6,0.9-1,1.2c-0.4,0.3-1,0.5-1.6,0.6c-0.4,0-1.4,0.1-2.9,0.1h-4.1V74.8z M43.3,76.8v2.8h1.6
					c0.9,0,1.5,0,1.8,0c0.4,0,0.7-0.2,1-0.4c0.2-0.2,0.4-0.5,0.4-0.9c0-0.4-0.1-0.7-0.3-0.9c-0.2-0.2-0.5-0.4-0.9-0.4
					c-0.2,0-0.9,0-2.1,0H43.3z M43.3,81.6v3.2h2.2c0.9,0,1.4,0,1.7-0.1c0.4-0.1,0.7-0.2,0.9-0.5c0.2-0.3,0.3-0.6,0.3-1
					c0-0.4-0.1-0.7-0.3-0.9c-0.2-0.3-0.4-0.4-0.8-0.5c-0.3-0.1-1-0.2-2.1-0.2H43.3z"/>
				<path id="XMLID_174_" class="st1" d="M57.3,74.8h2.4v7.6c0,1-0.1,1.8-0.3,2.3c-0.2,0.7-0.7,1.3-1.3,1.7
					c-0.6,0.4-1.4,0.6-2.4,0.6c-1.2,0-2.1-0.3-2.7-1c-0.6-0.7-1-1.6-1-2.9l2.3-0.3c0,0.7,0.1,1.2,0.3,1.5c0.3,0.4,0.7,0.6,1.2,0.6
					c0.5,0,0.9-0.2,1.1-0.5c0.2-0.3,0.3-0.9,0.3-1.9V74.8z"/>
				<path id="XMLID_176_" class="st1" d="M62.3,86.8v-12h8.9v2h-6.5v2.7h6v2h-6v3.3h6.7v2H62.3z"/>
				<path id="XMLID_178_" class="st1" d="M76.2,86.8v-10h-3.6v-2h9.5v2h-3.6v10H76.2z"/>
				<path id="XMLID_180_" class="st1" d="M82.9,80.9c0-1.2,0.2-2.2,0.5-3.1c0.3-0.6,0.6-1.2,1.1-1.6c0.5-0.5,1-0.8,1.6-1.1
					c0.7-0.3,1.6-0.5,2.6-0.5c1.8,0,3.2,0.5,4.2,1.6c1.1,1.1,1.6,2.6,1.6,4.6c0,1.9-0.5,3.5-1.6,4.5C92,86.4,90.5,87,88.8,87
					c-1.8,0-3.2-0.5-4.3-1.6C83.5,84.3,82.9,82.8,82.9,80.9z M85.4,80.8c0,1.4,0.3,2.4,0.9,3.1c0.6,0.7,1.4,1.1,2.4,1.1
					c1,0,1.8-0.3,2.4-1c0.6-0.7,0.9-1.7,0.9-3.1c0-1.4-0.3-2.4-0.9-3.1c-0.6-0.7-1.4-1-2.4-1c-1,0-1.8,0.3-2.4,1
					C85.7,78.4,85.4,79.4,85.4,80.8z"/>
				<path id="XMLID_183_" class="st1" d="M101.1,74.8h4.4c1,0,1.8,0.1,2.3,0.2c0.7,0.2,1.3,0.6,1.8,1.1c0.5,0.5,0.9,1.2,1.1,1.9
					c0.3,0.8,0.4,1.7,0.4,2.8c0,1-0.1,1.8-0.4,2.6c-0.3,0.9-0.7,1.6-1.3,2.1c-0.4,0.4-1,0.7-1.7,1c-0.5,0.2-1.2,0.3-2.1,0.3h-4.6
					V74.8z M103.5,76.8v7.9h1.8c0.7,0,1.2,0,1.5-0.1c0.4-0.1,0.7-0.3,1-0.5c0.3-0.2,0.5-0.6,0.6-1.2c0.2-0.5,0.2-1.3,0.2-2.2
					c0-0.9-0.1-1.6-0.2-2.1c-0.2-0.5-0.4-0.9-0.7-1.2c-0.3-0.3-0.7-0.5-1.1-0.6c-0.3-0.1-1-0.1-2-0.1H103.5z"/>
				<path id="XMLID_188_" class="st1" d="M113.2,86.8v-12h8.9v2h-6.5v2.7h6v2h-6v3.3h6.7v2H113.2z"/>
			</g>
		</g>
	</g>
</g>
</svg>
