<?xml version="1.0" encoding="utf-8"?>
<!-- Generator: Adobe Illustrator 19.0.0, SVG Export Plug-In . SVG Version: 6.00 Build 0)  -->
<svg version="1.1" id="Capa_1" xmlns="http://www.w3.org/2000/svg" xmlns:xlink="http://www.w3.org/1999/xlink" x="0px" y="0px"
	 viewBox="-354 251.8 249.6 58.2" style="enable-background:new -354 251.8 249.6 58.2;" xml:space="preserve">
<style type="text/css">
	.st0{opacity:0.5;enable-background:new    ;}
	.st1{fill:#A8A8A8;}
	.st2{fill:#FCB575;stroke:#FFFFFF;stroke-miterlimit:10;}
	.st3{enable-background:new    ;}
	.st4{fill:#1D1D1B;}
	.st5{stroke:#000000;stroke-miterlimit:10;}
	.st6{fill:#3B86B1;}
	.st7{fill:#FFFFFF;}
</style>
<polyline id="XMLID_2_" class="st0" points="-352.2,292.3 -118.2,292.6 -118.2,299.2 "/>
<g id="XMLID_1_">
	<g id="XMLID_29_">
		<polygon id="XMLID_30_" class="st1" points="-118.4,310.3 -104.4,292.6 -114.8,272.4 -118.4,272.4 		"/>
	</g>
</g>
<rect id="XMLID_321_" x="-354" y="251.5" class="st2" width="249.6" height="41.1"/>
<g id="XMLID_99_">
	<g id="XMLID_924_">
		<g class="st3">
			<path class="st4" d="M-308.4,266v4.7h4.8v1.1h-4.8v5.8h-1.1V265h7.1v1.1h-6V266z"/>
			<path class="st4" d="M-295.4,277.5l-0.6-0.9c-0.2,0.3-0.6,0.6-0.9,0.8c-0.4,0.2-0.8,0.3-1.2,0.3h-0.3c-0.4,0-0.7-0.1-1-0.2
				s-0.6-0.3-0.8-0.6s-0.4-0.5-0.6-0.8s-0.2-0.7-0.2-1v-6.5h1.1v6.6c0,0.2,0,0.4,0.1,0.6s0.2,0.4,0.3,0.5s0.3,0.3,0.5,0.3
				s0.4,0.1,0.6,0.1h0.7c0.2,0,0.4,0,0.6-0.1s0.4-0.2,0.5-0.3s0.3-0.3,0.3-0.5s0.1-0.4,0.1-0.6v-6.6h1.1v9L-295.4,277.5
				L-295.4,277.5z"/>
			<path class="st4" d="M-287.9,277.5v-6.6c0-0.2,0-0.4-0.1-0.6s-0.2-0.4-0.3-0.5s-0.3-0.3-0.5-0.3s-0.4-0.1-0.6-0.1h-0.7
				c-0.2,0-0.4,0-0.6,0.1s-0.4,0.2-0.5,0.3s-0.3,0.3-0.3,0.5c-0.1,0.2-0.1,0.4-0.1,0.6v6.6h-1.1v-9h0.4l0.6,0.9
				c0.2-0.3,0.6-0.6,0.9-0.8s0.8-0.3,1.2-0.3h0.3c0.4,0,0.7,0.1,1,0.2s0.6,0.3,0.8,0.6s0.4,0.5,0.6,0.8s0.2,0.7,0.2,1v6.5
				L-287.9,277.5L-287.9,277.5z"/>
			<path class="st4" d="M-278.9,276.1c-0.1,0.3-0.3,0.6-0.6,0.8s-0.5,0.4-0.8,0.6c-0.3,0.1-0.7,0.2-1,0.2h-0.7c-0.4,0-0.7-0.1-1-0.2
				s-0.6-0.3-0.8-0.6s-0.4-0.5-0.6-0.8s-0.2-0.7-0.2-1V271c0-0.4,0.1-0.7,0.2-1s0.3-0.6,0.6-0.8s0.5-0.4,0.8-0.6s0.7-0.2,1-0.2h0.7
				c0.4,0,0.7,0.1,1,0.2s0.6,0.3,0.8,0.6s0.4,0.5,0.6,0.8s0.2,0.7,0.2,1v0.4l-1.1,0.2V271c0-0.2,0-0.4-0.1-0.6s-0.2-0.4-0.3-0.5
				s-0.3-0.3-0.5-0.3s-0.4-0.1-0.6-0.1h-0.7c-0.2,0-0.4,0-0.6,0.1s-0.4,0.2-0.5,0.3s-0.3,0.3-0.3,0.5c-0.1,0.2-0.1,0.4-0.1,0.6v4.2
				c0,0.2,0,0.4,0.1,0.6s0.2,0.4,0.3,0.5s0.3,0.3,0.5,0.3s0.4,0.1,0.6,0.1h0.7c0.2,0,0.4,0,0.6-0.1s0.4-0.2,0.5-0.3s0.3-0.3,0.3-0.5
				s0.1-0.4,0.1-0.6v-0.6l1.1,0.2v0.4C-278.7,275.4-278.7,275.8-278.9,276.1z"/>
			<path class="st4" d="M-276.2,266.4V265h1.3v1.4H-276.2z M-276.1,277.5v-9h1.1v9H-276.1z"/>
			<path class="st4" d="M-266.7,276.1c-0.1,0.3-0.3,0.6-0.6,0.8s-0.5,0.4-0.8,0.6c-0.3,0.1-0.7,0.2-1,0.2h-0.7c-0.4,0-0.7-0.1-1-0.2
				s-0.6-0.3-0.8-0.6s-0.4-0.5-0.6-0.8s-0.2-0.7-0.2-1V271c0-0.4,0.1-0.7,0.2-1s0.3-0.6,0.6-0.8s0.5-0.4,0.8-0.6s0.7-0.2,1-0.2h0.7
				c0.4,0,0.7,0.1,1,0.2s0.6,0.3,0.8,0.6s0.4,0.5,0.6,0.8s0.2,0.7,0.2,1v4.1C-266.5,275.4-266.6,275.8-266.7,276.1z M-267.6,270.9
				c0-0.2,0-0.4-0.1-0.6s-0.2-0.4-0.3-0.5s-0.3-0.3-0.5-0.3s-0.4-0.1-0.6-0.1h-0.7c-0.2,0-0.4,0-0.6,0.1s-0.4,0.2-0.5,0.3
				s-0.3,0.3-0.3,0.5c-0.1,0.2-0.1,0.4-0.1,0.6v4.2c0,0.2,0,0.4,0.1,0.6s0.2,0.4,0.3,0.5s0.3,0.3,0.5,0.3s0.4,0.1,0.6,0.1h0.7
				c0.2,0,0.4,0,0.6-0.1s0.4-0.2,0.5-0.3s0.3-0.3,0.3-0.5s0.1-0.4,0.1-0.6V270.9z"/>
			<path class="st4" d="M-259.4,277.5v-6.6c0-0.2,0-0.4-0.1-0.6s-0.2-0.4-0.3-0.5s-0.3-0.3-0.5-0.3s-0.4-0.1-0.6-0.1h-0.7
				c-0.2,0-0.4,0-0.6,0.1s-0.4,0.2-0.5,0.3s-0.3,0.3-0.3,0.5c-0.1,0.2-0.1,0.4-0.1,0.6v6.6h-1.1v-9h0.4l0.6,0.9
				c0.2-0.3,0.6-0.6,0.9-0.8s0.8-0.3,1.2-0.3h0.3c0.4,0,0.7,0.1,1,0.2s0.6,0.3,0.8,0.6s0.4,0.5,0.6,0.8s0.2,0.7,0.2,1v6.5
				L-259.4,277.5L-259.4,277.5z"/>
			<path class="st4" d="M-250.4,276.1c-0.1,0.3-0.3,0.6-0.6,0.8s-0.5,0.4-0.8,0.6c-0.3,0.1-0.7,0.2-1,0.2h-0.7c-0.4,0-0.7-0.1-1-0.2
				s-0.6-0.3-0.8-0.6s-0.4-0.5-0.6-0.8c-0.2-0.3-0.2-0.7-0.2-1V271c0-0.4,0.1-0.7,0.2-1s0.3-0.6,0.6-0.8s0.5-0.4,0.8-0.6
				s0.7-0.2,1-0.2h0.7c0.4,0,0.7,0.1,1,0.2s0.6,0.3,0.8,0.6s0.4,0.5,0.6,0.8s0.2,0.7,0.2,1v2.1h-4.9v2c0,0.2,0,0.4,0.1,0.6
				s0.2,0.4,0.3,0.5s0.3,0.3,0.5,0.3s0.4,0.1,0.6,0.1h0.7c0.2,0,0.4,0,0.6-0.1s0.4-0.2,0.5-0.3s0.3-0.3,0.3-0.5s0.1-0.4,0.1-0.6
				v-0.6l1.1,0.2v0.4C-250.2,275.4-250.2,275.8-250.4,276.1z M-251.3,270.9c0-0.2,0-0.4-0.1-0.6s-0.2-0.4-0.3-0.5s-0.3-0.3-0.5-0.3
				s-0.4-0.1-0.6-0.1h-0.7c-0.2,0-0.4,0-0.6,0.1s-0.4,0.2-0.5,0.3s-0.3,0.3-0.3,0.5c-0.1,0.2-0.1,0.4-0.1,0.6v1.3h3.8L-251.3,270.9
				L-251.3,270.9z"/>
			<path class="st4" d="M-241.8,275.2c0,0.4-0.1,0.7-0.2,1s-0.3,0.6-0.6,0.8s-0.5,0.4-0.9,0.5c-0.3,0.1-0.7,0.2-1,0.2h-0.7
				c-0.4,0-0.7-0.1-1-0.2s-0.6-0.3-0.9-0.6s-0.4-0.5-0.6-0.8s-0.2-0.7-0.2-1v-0.4l1.1-0.2v0.6c0,0.2,0,0.4,0.1,0.6s0.2,0.4,0.4,0.5
				s0.3,0.3,0.5,0.3s0.4,0.1,0.6,0.1h0.7c0.2,0,0.4,0,0.6-0.1s0.4-0.2,0.5-0.3s0.3-0.3,0.4-0.4s0.1-0.4,0.1-0.6
				c0-0.3-0.1-0.6-0.2-0.8s-0.3-0.4-0.6-0.5s-0.5-0.3-0.8-0.3c-0.3-0.1-0.6-0.2-0.9-0.3s-0.6-0.2-0.9-0.3s-0.6-0.3-0.8-0.5
				s-0.4-0.4-0.6-0.7s-0.2-0.6-0.2-1.1c0-0.4,0.1-0.7,0.2-1c0.1-0.3,0.3-0.6,0.6-0.8s0.5-0.4,0.8-0.5s0.7-0.2,1-0.2h0.6
				c0.4,0,0.7,0.1,1,0.2s0.6,0.3,0.8,0.6s0.4,0.5,0.6,0.8s0.2,0.7,0.2,1l0,0l-1.1,0.2v-0.3c0-0.2,0-0.4-0.1-0.6s-0.2-0.4-0.3-0.5
				s-0.3-0.3-0.5-0.3s-0.4-0.1-0.6-0.1h-0.6c-0.2,0-0.4,0-0.6,0.1s-0.4,0.2-0.5,0.3c-0.1,0.1-0.3,0.3-0.3,0.4s-0.1,0.4-0.1,0.6
				c0,0.3,0.1,0.6,0.2,0.8c0.1,0.2,0.3,0.4,0.6,0.5s0.5,0.2,0.8,0.3s0.6,0.2,0.9,0.3c0.3,0.1,0.6,0.2,0.9,0.3s0.6,0.3,0.8,0.5
				s0.4,0.4,0.6,0.7C-241.9,274.5-241.8,274.8-241.8,275.2z"/>
		</g>
	</g>
</g>
<path id="XMLID_4_" class="st5" d="M-346.3,280c0.2-0.3,0.5-0.5,0.7-0.8c0.6-0.7,1.1-1.4,1.7-2.1c0.1-0.1,0.1-0.3,0.1-0.4
	c0,0,0-12,0-12.8c0-0.7,0.4-1.1,1.1-1.1c3.7,0,7.4,0,11,0c0.1,0,0.1,0,0.2,0c0,0.3,0,0.6,0,0.9c-0.1,0-0.2,0-0.3,0
	c-3.2,0-6.4,0-9.6,0c-0.7,0-1.1,0.4-1.1,1.1c0,3.4,0,6.8,0,10.2c0,0.7,0.3,1.1,1.1,1.1c5.8,0,11.6,0,17.3,0c0.7,0,1-0.3,1-1
	c0-0.9,0-1.8,0-2.7c0-0.1,0-0.2,0-0.3c0.5,0,0.9,0,1.4,0c0,0.1,0,0.2,0,0.3c0,1.4,0,2.9,0,4.3c0,0.2,0,0.3,0.2,0.4
	c0.8,0.9,1.5,1.8,2.3,2.8c0.1,0.1,0.1,0.2,0.1,0.3c0,0.7-0.6,1.3-1.3,1.3c-0.1,0-0.3,0-0.4,0c-7.9,0-15.9,0-23.8,0
	c-0.9,0-1.5-0.4-1.8-1.2l0,0C-346.3,280.2-346.3,280.1-346.3,280z M-328.5,280.1c-0.3-0.3-0.5-0.6-0.7-0.9c0,0-0.1-0.1-0.2-0.1
	c-2.2,0-4.3,0-6.5,0c-0.1,0-0.2,0-0.2,0.1c-0.2,0.3-0.5,0.5-0.7,0.9C-334,280.1-331.3,280.1-328.5,280.1z M-332.6,280.6
	c-0.6,0-1.2,0-1.8,0c-0.1,0-0.2,0-0.2,0c-0.1,0.1-0.2,0.2-0.2,0.3s0.1,0.2,0.2,0.2c0.1,0,0.2,0,0.3,0c1.2,0,2.4,0,3.6,0
	c0.1,0,0.2,0,0.3,0s0.2-0.1,0.2-0.2s-0.1-0.2-0.2-0.2s-0.2,0-0.3,0C-331.4,280.6-332,280.6-332.6,280.6z"/>
<g id="XMLID_3_">
	<g id="XMLID_289_">
		<g id="XMLID_290_">
			<path id="XMLID_302_" class="st6" d="M-346.3,280c0.2-0.3,0.5-0.5,0.7-0.8c0.6-0.7,1.1-1.4,1.7-2.1c0.1-0.1,0.1-0.3,0.1-0.4
				c0,0,0-12,0-12.8c0-0.7,0.4-1.1,1.1-1.1c3.7,0,7.4,0,11,0c0.1,0,0.1,0,0.2,0c0,0.3,0,0.6,0,0.9c-0.1,0-0.2,0-0.3,0
				c-3.2,0-6.4,0-9.6,0c-0.7,0-1.1,0.4-1.1,1.1c0,3.4,0,6.8,0,10.2c0,0.7,0.3,1.1,1.1,1.1c5.8,0,11.6,0,17.3,0c0.7,0,1-0.3,1-1
				c0-0.9,0-1.8,0-2.7c0-0.1,0-0.2,0-0.3c0.5,0,0.9,0,1.4,0c0,0.1,0,0.2,0,0.3c0,1.4,0,2.9,0,4.3c0,0.2,0,0.3,0.2,0.4
				c0.8,0.9,1.5,1.8,2.3,2.8c0.1,0.1,0.1,0.2,0.1,0.3c0,0.7-0.6,1.3-1.3,1.3c-0.1,0-0.3,0-0.4,0c-7.9,0-15.9,0-23.8,0
				c-0.9,0-1.5-0.4-1.8-1.2l0,0C-346.3,280.2-346.3,280.1-346.3,280z M-328.5,280.1c-0.3-0.3-0.5-0.6-0.7-0.9c0,0-0.1-0.1-0.2-0.1
				c-2.2,0-4.3,0-6.5,0c-0.1,0-0.2,0-0.2,0.1c-0.2,0.3-0.5,0.5-0.7,0.9C-334,280.1-331.3,280.1-328.5,280.1z M-332.6,280.6
				c-0.6,0-1.2,0-1.8,0c-0.1,0-0.2,0-0.2,0c-0.1,0.1-0.2,0.2-0.2,0.3s0.1,0.2,0.2,0.2c0.1,0,0.2,0,0.3,0c1.2,0,2.4,0,3.6,0
				c0.1,0,0.2,0,0.3,0s0.2-0.1,0.2-0.2s-0.1-0.2-0.2-0.2s-0.2,0-0.3,0C-331.4,280.6-332,280.6-332.6,280.6z"/>
			<path id="XMLID_301_" class="st7" d="M-316.5,263.9c-1.8,0-3.6,0-5.4,0c0-0.1,0-0.2,0-0.3c0-1.6,0-3.2,0-4.8c0-0.3,0-0.3,0.3-0.3
				c1.7,0,3.4,0,5.1,0C-316.5,260.3-316.5,262.1-316.5,263.9z"/>
			<path id="XMLID_300_" class="st7" d="M-323.6,271c0-1.4,0-2.9,0-4.3c0.1,0,0.2,0,0.2,0c1.3,0,2.5,0,3.8,0c0.2,0,0.3,0,0.3,0.3
				c0,1.3,0,2.6,0,3.8c0,0.2,0,0.2-0.2,0.2c-1.3,0-2.6,0-4,0C-323.5,271-323.5,271-323.6,271z"/>
			<path id="XMLID_299_" class="st7" d="M-326.2,265.9c0-1.2,0-2.3,0-3.5c0.1,0,0.1,0,0.2,0c1.1,0,2.1,0,3.2,0c0.1,0,0.2,0,0.2,0.2
				c0,1.1,0,2.2,0,3.3c0,0,0,0,0,0.1C-323.9,265.9-325,265.9-326.2,265.9z"/>
			<path id="XMLID_298_" class="st7" d="M-324.4,261.4c-0.4,0-0.7,0-1.1,0c-0.1,0-0.2,0-0.2-0.2c0-0.7,0-1.4,0-2.1
				c0-0.1,0.1-0.2,0.2-0.2c0.7,0,1.4,0,2.1,0c0.2,0,0.2,0,0.2,0.2c0,0.7,0,1.4,0,2.1c0,0.2-0.1,0.2-0.2,0.2
				C-323.7,261.4-324,261.4-324.4,261.4z"/>
			<path id="XMLID_297_" class="st7" d="M-330.2,265.9c0-0.8,0-1.6,0-2.5c0.8,0,1.6,0,2.5,0c0,0.8,0,1.6,0,2.5
				C-328.5,265.9-329.3,265.9-330.2,265.9z"/>
			<path id="XMLID_296_" class="st7" d="M-329.2,266.6c0.8,0,1.6,0,2.5,0c0,0.8,0,1.6,0,2.5c-0.8,0-1.6,0-2.5,0
				C-329.2,268.2-329.2,267.4-329.2,266.6z"/>
			<path id="XMLID_295_" class="st7" d="M-324.4,269.4c0,0.8,0,1.6,0,2.4c-0.8,0-1.6,0-2.5,0c0-0.1,0-0.1,0-0.2c0-0.7,0-1.4,0-2.1
				c0-0.1,0-0.2,0.2-0.2C-326,269.4-325.2,269.4-324.4,269.4C-324.5,269.4-324.4,269.4-324.4,269.4z"/>
			<path id="XMLID_294_" class="st7" d="M-328.8,270.1c0,0.7,0,1.4,0,2.1c-0.7,0-1.4,0-2.1,0c0-0.2,0-0.3,0-0.5c0-0.5,0-0.9,0-1.4
				c0-0.1,0-0.2,0.2-0.2C-330.1,270.1-329.5,270.1-328.8,270.1L-328.8,270.1z"/>
			<path id="XMLID_293_" class="st7" d="M-330.9,267.5c0,0.7,0,1.4,0,2.1c-0.7,0-1.4,0-2.1,0c0-0.7,0-1.4,0-2.1
				C-332.2,267.5-331.6,267.5-330.9,267.5z"/>
			<path id="XMLID_291_" class="st7" d="M-334.3,270.3c0.7,0,1.4,0,2.1,0c0,0.7,0,1.4,0,2.1c-0.7,0-1.4,0-2.1,0
				C-334.3,271.7-334.3,271.1-334.3,270.3z"/>
		</g>
	</g>
</g>
</svg>
