<?xml version="1.0" encoding="utf-8"?>
<!-- Generator: Adobe Illustrator 19.0.0, SVG Export Plug-In . SVG Version: 6.00 Build 0)  -->
<svg version="1.1" id="Capa_1" xmlns="http://www.w3.org/2000/svg" xmlns:xlink="http://www.w3.org/1999/xlink" x="0px" y="0px"
	 viewBox="-355 251.8 248.1 58.2" style="enable-background:new -355 251.8 248.1 58.2;" xml:space="preserve">
<style type="text/css">
	.st0{opacity:0.5;enable-background:new    ;}
	.st1{fill:#A8A8A8;}
	.st2{fill:#FFFFFF;}
	.st3{fill:#1D1D1B;}
</style>
<g id="XMLID_1_">
	<polygon id="XMLID_95_" class="st0" points="-120.4,299.7 -355,291.6 -120.4,291.6 	"/>
	<g id="XMLID_90_">
		<g id="XMLID_29_">
			<polygon id="XMLID_30_" class="st1" points="-121,310 -106.9,292.2 -117.4,272.1 -121,272.1 			"/>
		</g>
	</g>
	<g id="XMLID_87_">
		<rect id="XMLID_22_" x="-354.6" y="251.8" class="st2" width="247.6" height="40.4"/>
	</g>
	<g id="XMLID_2_">
		<g id="XMLID_259_">
			<path id="XMLID_281_" d="M-303.2,275.8c0,0.4-0.1,0.8-0.3,1.2s-0.4,0.7-0.7,1c-0.3,0.3-0.6,0.5-1,0.7c-0.4,0.2-0.8,0.2-1.2,0.2
				h-0.9c-0.4,0-0.8-0.1-1.2-0.2c-0.4-0.2-0.7-0.4-1-0.7c-0.3-0.3-0.5-0.6-0.7-1c-0.2-0.4-0.3-0.8-0.3-1.2v-0.5l1.1-0.2v0.7
				c0,0.3,0.1,0.5,0.2,0.8c0.1,0.3,0.3,0.5,0.5,0.6c0.2,0.2,0.4,0.3,0.7,0.4s0.5,0.2,0.8,0.2h0.8c0.3,0,0.5-0.1,0.8-0.2
				s0.5-0.3,0.7-0.4c0.2-0.2,0.3-0.4,0.5-0.6c0.2-0.2,0.2-0.5,0.2-0.8v-0.4c0-0.4-0.1-0.8-0.3-1.1c-0.2-0.3-0.5-0.5-0.8-0.7
				c-0.3-0.2-0.6-0.4-1-0.5c-0.4-0.1-0.7-0.3-1-0.4c-0.3-0.1-0.7-0.3-1.1-0.5c-0.4-0.2-0.7-0.4-1-0.6c-0.3-0.3-0.5-0.6-0.7-0.9
				c-0.2-0.3-0.3-0.8-0.3-1.4v-0.2c0-0.4,0.1-0.8,0.2-1.2c0.2-0.4,0.4-0.7,0.7-1c0.3-0.3,0.6-0.5,1-0.7c0.4-0.2,0.8-0.2,1.2-0.2h0.8
				c0.4,0,0.8,0.1,1.2,0.2c0.4,0.1,0.7,0.4,1,0.7c0.3,0.3,0.5,0.6,0.7,1c0.2,0.4,0.2,0.8,0.2,1.2v0.3l-1.1,0.2v-0.5
				c0-0.3-0.1-0.5-0.2-0.8c-0.1-0.2-0.2-0.5-0.4-0.6c-0.2-0.2-0.4-0.3-0.6-0.4c-0.2-0.1-0.5-0.2-0.8-0.2h-0.7
				c-0.3,0-0.5,0.1-0.8,0.2c-0.3,0.1-0.5,0.2-0.6,0.4c-0.2,0.2-0.3,0.4-0.4,0.6c-0.1,0.2-0.2,0.5-0.2,0.8v0.2c0,0.4,0.1,0.7,0.3,1
				c0.2,0.3,0.4,0.5,0.7,0.7c0.3,0.2,0.6,0.4,1,0.5c0.4,0.1,0.7,0.3,1.1,0.4c0.4,0.1,0.7,0.3,1.1,0.5c0.4,0.2,0.7,0.4,1,0.7
				c0.3,0.3,0.5,0.6,0.7,1c0.2,0.4,0.3,0.8,0.3,1.4v0.3H-303.2z"/>
			<path id="XMLID_279_" d="M-301.3,278.7v-1.4h1.3v1.4H-301.3z"/>
			<path id="XMLID_276_" d="M-290.6,277c-0.2,0.4-0.4,0.7-0.7,1c-0.3,0.3-0.6,0.5-1,0.7c-0.4,0.2-0.8,0.2-1.2,0.2h-0.9
				c-0.4,0-0.8-0.1-1.2-0.2c-0.4-0.2-0.7-0.4-1-0.7c-0.3-0.3-0.5-0.6-0.7-1c-0.2-0.4-0.2-0.8-0.2-1.2V269c0-0.4,0.1-0.8,0.2-1.2
				c0.2-0.4,0.4-0.7,0.7-1c0.3-0.3,0.6-0.5,1-0.7c0.4-0.2,0.8-0.2,1.2-0.2h0.9c0.4,0,0.8,0.1,1.2,0.2c0.4,0.1,0.7,0.4,1,0.7
				c0.3,0.3,0.5,0.6,0.7,1c0.2,0.4,0.2,0.8,0.2,1.2v6.8C-290.3,276.2-290.4,276.6-290.6,277z M-291.5,269c0-0.3-0.1-0.5-0.2-0.8
				c-0.1-0.2-0.2-0.5-0.4-0.6c-0.2-0.2-0.4-0.3-0.6-0.4c-0.2-0.1-0.5-0.2-0.8-0.2h-0.8c-0.3,0-0.5,0.1-0.8,0.2
				c-0.3,0.1-0.5,0.2-0.6,0.4c-0.2,0.2-0.3,0.4-0.4,0.6c-0.1,0.2-0.2,0.5-0.2,0.8v6.8c0,0.3,0.1,0.5,0.2,0.8
				c0.1,0.3,0.3,0.5,0.4,0.6c0.2,0.2,0.4,0.3,0.6,0.4c0.2,0.1,0.5,0.2,0.8,0.2h0.8c0.3,0,0.5-0.1,0.8-0.2c0.3-0.1,0.5-0.3,0.6-0.4
				c0.2-0.2,0.3-0.4,0.4-0.6c0.1-0.2,0.2-0.5,0.2-0.8V269z"/>
			<path id="XMLID_274_" d="M-288.3,278.7v-1.4h1.3v1.4H-288.3z"/>
			<path id="XMLID_271_" d="M-274.8,278.7l-0.6-0.9c-0.2,0.3-0.6,0.6-0.9,0.8c-0.4,0.2-0.8,0.3-1.2,0.3h-0.3c-0.4,0-0.7-0.1-1-0.2
				c-0.3-0.1-0.6-0.3-0.8-0.6c-0.2-0.3-0.4-0.5-0.6-0.8c-0.2-0.3-0.2-0.7-0.2-1v-4.1c0-0.4,0.1-0.7,0.2-1c0.1-0.3,0.3-0.6,0.6-0.8
				c0.3-0.2,0.5-0.4,0.8-0.6c0.3-0.2,0.7-0.2,1-0.2h0.3c0.4,0,0.8,0.1,1.1,0.2c0.3,0.1,0.6,0.4,0.9,0.7v-4.4h1.1v12.6H-274.8z
				 M-275.6,272.1c0-0.2,0-0.4-0.1-0.6c-0.1-0.2-0.2-0.4-0.3-0.5s-0.3-0.3-0.5-0.3s-0.4-0.1-0.6-0.1h-0.7c-0.2,0-0.4,0-0.6,0.1
				c-0.2,0.1-0.4,0.2-0.5,0.3s-0.3,0.3-0.3,0.5c-0.1,0.2-0.1,0.4-0.1,0.6v4.2c0,0.2,0,0.4,0.1,0.6c0.1,0.2,0.2,0.4,0.3,0.5
				s0.3,0.3,0.5,0.3s0.4,0.1,0.6,0.1h0.7c0.2,0,0.4,0,0.6-0.1c0.2-0.1,0.4-0.2,0.5-0.3c0.1-0.1,0.3-0.3,0.3-0.5
				c0-0.2,0.1-0.4,0.1-0.6V272.1z"/>
			<path id="XMLID_268_" d="M-266.5,277.3c-0.1,0.3-0.3,0.6-0.6,0.8c-0.3,0.2-0.5,0.4-0.8,0.6c-0.3,0.1-0.7,0.2-1,0.2h-0.7
				c-0.4,0-0.7-0.1-1-0.2c-0.3-0.1-0.6-0.3-0.8-0.6c-0.2-0.3-0.4-0.5-0.6-0.8c-0.2-0.3-0.2-0.7-0.2-1v-4.1c0-0.4,0.1-0.7,0.2-1
				c0.1-0.3,0.3-0.6,0.6-0.8c0.3-0.2,0.5-0.4,0.8-0.6c0.3-0.2,0.7-0.2,1-0.2h0.6c0.4,0,0.7,0.1,1,0.2c0.3,0.1,0.6,0.3,0.8,0.6
				c0.2,0.3,0.4,0.5,0.6,0.8c0.2,0.3,0.2,0.7,0.2,1v2.1h-4.9v2c0,0.2,0,0.4,0.1,0.6c0.1,0.2,0.2,0.4,0.3,0.5s0.3,0.3,0.5,0.3
				c0.2,0,0.4,0.1,0.6,0.1h0.8c0.2,0,0.4,0,0.6-0.1c0.2-0.1,0.4-0.2,0.5-0.3c0.1-0.1,0.3-0.3,0.3-0.5c0-0.2,0.1-0.4,0.1-0.6v-0.6
				l1.1,0.2v0.4C-266.3,276.6-266.4,277-266.5,277.3z M-267.4,272.1c0-0.2,0-0.4-0.1-0.6s-0.2-0.4-0.3-0.5c-0.1-0.1-0.3-0.3-0.5-0.3
				c-0.2,0-0.4-0.1-0.6-0.1h-0.7c-0.2,0-0.4,0-0.6,0.1c-0.2,0.1-0.4,0.2-0.5,0.3c-0.1,0.1-0.3,0.3-0.3,0.5c-0.1,0.2-0.1,0.4-0.1,0.6
				v1.3h3.8v-1.3H-267.4z"/>
			<path id="XMLID_266_" d="M-257.4,270.8c-0.2,0-0.4,0-0.6,0.1s-0.4,0.2-0.5,0.3c-0.1,0.1-0.3,0.3-0.3,0.5c0,0.2-0.1,0.4-0.1,0.6
				v6.4h-1.1v-9h0.4l0.6,0.9c0.2-0.3,0.6-0.6,0.9-0.8c0.3-0.2,0.8-0.3,1.2-0.3h0.6v1.3H-257.4z"/>
			<path id="XMLID_263_" d="M-249,277.3c-0.1,0.3-0.3,0.6-0.6,0.8c-0.3,0.2-0.5,0.4-0.8,0.6c-0.3,0.1-0.7,0.2-1,0.2h-0.7
				c-0.4,0-0.7-0.1-1-0.2c-0.3-0.1-0.6-0.3-0.8-0.6c-0.2-0.3-0.4-0.5-0.6-0.8c-0.2-0.3-0.2-0.7-0.2-1v-4.1c0-0.4,0.1-0.7,0.2-1
				c0.1-0.3,0.3-0.6,0.6-0.8c0.3-0.2,0.5-0.4,0.8-0.6c0.3-0.2,0.7-0.2,1-0.2h0.7c0.4,0,0.7,0.1,1,0.2c0.3,0.1,0.6,0.3,0.8,0.6
				c0.2,0.3,0.4,0.5,0.6,0.8c0.2,0.3,0.2,0.7,0.2,1v2.1h-4.9v2c0,0.2,0,0.4,0.1,0.6c0.1,0.2,0.2,0.4,0.3,0.5s0.3,0.3,0.5,0.3
				s0.4,0.1,0.6,0.1h0.7c0.2,0,0.4,0,0.6-0.1c0.2-0.1,0.4-0.2,0.5-0.3c0.1-0.1,0.3-0.3,0.3-0.5c0-0.2,0.1-0.4,0.1-0.6v-0.6l1.1,0.2
				v0.4C-248.8,276.6-248.9,277-249,277.3z M-249.9,272.1c0-0.2,0-0.4-0.1-0.6s-0.2-0.4-0.3-0.5s-0.3-0.3-0.5-0.3s-0.4-0.1-0.6-0.1
				h-0.7c-0.2,0-0.4,0-0.6,0.1c-0.2,0.1-0.4,0.2-0.5,0.3s-0.3,0.3-0.3,0.5c-0.1,0.2-0.1,0.4-0.1,0.6v1.3h3.8v-1.3H-249.9z"/>
			<path id="XMLID_260_" d="M-241,278.7l-0.6-0.9c-0.2,0.3-0.6,0.6-0.9,0.8c-0.4,0.2-0.8,0.3-1.2,0.3h-0.3c-0.4,0-0.7-0.1-1-0.2
				c-0.3-0.1-0.6-0.3-0.8-0.6c-0.2-0.3-0.4-0.5-0.6-0.8c-0.2-0.3-0.2-0.7-0.2-1v-4.1c0-0.4,0.1-0.7,0.2-1c0.1-0.3,0.3-0.6,0.6-0.8
				c0.3-0.2,0.5-0.4,0.8-0.6c0.3-0.2,0.7-0.2,1-0.2h0.3c0.4,0,0.8,0.1,1.1,0.2c0.3,0.1,0.6,0.4,0.9,0.7v-4.4h1.1v12.6H-241z
				 M-241.7,272.1c0-0.2,0-0.4-0.1-0.6c-0.1-0.2-0.2-0.4-0.3-0.5s-0.3-0.3-0.5-0.3c-0.2,0-0.4-0.1-0.6-0.1h-0.8
				c-0.2,0-0.4,0-0.6,0.1c-0.2,0.1-0.4,0.2-0.5,0.3c-0.1,0.1-0.3,0.3-0.3,0.5c-0.1,0.2-0.1,0.4-0.1,0.6v4.2c0,0.2,0,0.4,0.1,0.6
				c0.1,0.2,0.2,0.4,0.3,0.5s0.3,0.3,0.5,0.3c0.2,0,0.4,0.1,0.6,0.1h0.7c0.2,0,0.4,0,0.6-0.1c0.2-0.1,0.4-0.2,0.5-0.3
				c0.1-0.1,0.3-0.3,0.3-0.5c0-0.2,0.1-0.4,0.1-0.6v-4.2H-241.7z"/>
		</g>
	</g>
	<g id="XMLID_80_">
		<g id="XMLID_117_">
			<g id="XMLID_125_">
				<path id="XMLID_127_" class="st3" d="M-333.9,272.2h-16c-0.4,0-0.7-0.3-0.7-0.7v-8.8c0-0.4,0.3-0.7,0.7-0.7h15.9
					c0.4,0,0.7,0.3,0.7,0.7v8.8C-333.3,271.9-333.6,272.2-333.9,272.2z M-349.4,262.9c-0.1,0-0.3,0.1-0.3,0.3v7.9
					c0,0.1,0.1,0.3,0.3,0.3h15c0.1,0,0.3-0.1,0.3-0.3v-7.9c0-0.1-0.1-0.3-0.3-0.3C-334.4,262.9-349.4,262.9-349.4,262.9z"/>
				<polygon id="XMLID_126_" class="st3" points="-339.8,273.2 -339.8,272.2 -343.8,272.2 -343.8,273.2 -345.8,273.2 -345.8,274.2 
					-337.8,274.2 -337.8,273.2 				"/>
			</g>
			<g id="XMLID_120_">
				<path id="XMLID_122_" class="st3" d="M-316.8,282.8h-15.9c-0.4,0-0.7-0.3-0.7-0.7v-8.8c0-0.4,0.3-0.7,0.7-0.7h15.9
					c0.4,0,0.7,0.3,0.7,0.7v8.8C-316.1,282.5-316.4,282.8-316.8,282.8z M-332.2,273.5c-0.1,0-0.3,0.1-0.3,0.3v7.9
					c0,0.1,0.1,0.3,0.3,0.3h15c0.1,0,0.3-0.1,0.3-0.3v-7.9c0-0.1-0.1-0.3-0.3-0.3H-332.2z"/>
				<polygon id="XMLID_121_" class="st3" points="-322.8,284.2 -322.8,282.2 -326.8,282.2 -326.8,284.2 -328.8,284.2 -328.8,285.2 
					-320.8,285.2 -320.8,284.2 				"/>
			</g>
			<path id="XMLID_119_" class="st3" d="M-334.3,280.6l-5.5-1.5v1.1h0.1c-1,0-2.1-0.8-2.1-1.9v-3.1h-1v3.1c0,1.5,1.6,2.9,3.1,2.9
				h-0.1v0.9L-334.3,280.6z"/>
			<path id="XMLID_118_" class="st3" d="M-331.2,265.9l5.5,1.5v-1.2h-0.2c1,0,2.2,1,2.2,2v3h1v-3c0-1.5-1.7-3-3.2-3h0.2v-0.7
				L-331.2,265.9z"/>
		</g>
	</g>
</g>
</svg>
