<?xml version="1.0" encoding="utf-8"?>
<!-- Generator: Adobe Illustrator 19.0.0, SVG Export Plug-In . SVG Version: 6.00 Build 0)  -->
<svg version="1.1" id="Capa_1" xmlns="http://www.w3.org/2000/svg" xmlns:xlink="http://www.w3.org/1999/xlink" x="0px" y="0px"
	 viewBox="0 0 247.6 58.9" style="enable-background:new 0 0 247.6 58.9;" xml:space="preserve">
<style type="text/css">
	.st0{opacity:0.5;}
	.st1{fill-rule:evenodd;clip-rule:evenodd;fill:#A8A8A8;}
	.st2{fill-rule:evenodd;clip-rule:evenodd;fill:#FFFFFF;}
	.st3{fill-rule:evenodd;clip-rule:evenodd;fill:#FF0000;stroke:#1D1D1B;stroke-miterlimit:10;}
	.st4{fill-rule:evenodd;clip-rule:evenodd;fill:#3B86B1;stroke:#1D1D1B;stroke-miterlimit:10;}
	.st5{opacity:0.5;fill:#2C6882;}
</style>
<g id="XMLID_98_">
	<polygon id="XMLID_83_" class="st0" points="234.2,47.9 -0.4,40.8 234.2,39.8 	"/>
	<g id="XMLID_61_">
		<g id="XMLID_119_">
			<polygon id="XMLID_130_" class="st1" points="233.6,58.2 247.6,40.4 237.2,20.3 233.6,20.3 			"/>
		</g>
	</g>
	<g id="XMLID_52_">
		<rect id="XMLID_108_" class="st2" width="247.6" height="40.4"/>
	</g>
	<g id="XMLID_2_">
		<g id="XMLID_341_">
			<path id="XMLID_375_" d="M51.1,24.3c-0.2,0.4-0.4,0.7-0.7,1s-0.6,0.5-1,0.7c-0.4,0.2-0.8,0.2-1.2,0.2h-0.9
				c-0.4,0-0.8-0.1-1.2-0.2c-0.4-0.2-0.7-0.4-1-0.7s-0.5-0.6-0.7-1s-0.2-0.8-0.2-1.2v-6.8c0-0.4,0.1-0.8,0.2-1.2s0.4-0.7,0.7-1
				s0.6-0.5,1-0.7s0.8-0.2,1.2-0.2h0.9c0.4,0,0.8,0.1,1.2,0.2s0.7,0.4,1,0.7s0.5,0.6,0.7,1s0.2,0.8,0.2,1.2v0.5L50.2,17v-0.7
				c0-0.3-0.1-0.5-0.2-0.8c-0.1-0.2-0.2-0.5-0.4-0.6s-0.4-0.3-0.6-0.4s-0.5-0.2-0.8-0.2h-0.8c-0.3,0-0.5,0.1-0.8,0.2
				s-0.5,0.2-0.6,0.4s-0.3,0.4-0.4,0.6c-0.1,0.2-0.2,0.5-0.2,0.8v6.8c0,0.3,0.1,0.5,0.2,0.8s0.3,0.5,0.4,0.6
				c0.2,0.2,0.4,0.3,0.6,0.4s0.5,0.2,0.8,0.2h0.8c0.3,0,0.5-0.1,0.8-0.2s0.5-0.3,0.6-0.4c0.2-0.2,0.3-0.4,0.4-0.6s0.2-0.5,0.2-0.8
				v-0.7l1.1,0.2v0.5C51.3,23.5,51.3,23.9,51.1,24.3z"/>
			<path id="XMLID_373_" d="M53.9,26V13.4H55V26H53.9z"/>
			<path id="XMLID_370_" d="M63.1,26l-0.6-0.9c-0.2,0.3-0.6,0.6-0.9,0.8c-0.4,0.2-0.8,0.3-1.2,0.3h-0.3c-0.4,0-0.7-0.1-1-0.2
				c-0.3-0.1-0.6-0.3-0.8-0.6s-0.4-0.5-0.6-0.8s-0.2-0.7-0.2-1v-0.1c0-0.4,0.1-0.7,0.2-1s0.3-0.6,0.6-0.8s0.5-0.4,0.8-0.6
				s0.7-0.2,1-0.2h2.3v-1.4c0-0.2,0-0.4-0.1-0.6c-0.1-0.2-0.2-0.4-0.3-0.5s-0.3-0.3-0.5-0.3s-0.4-0.1-0.6-0.1h-0.6
				c-0.2,0-0.4,0-0.6,0.1s-0.4,0.2-0.5,0.3s-0.3,0.3-0.3,0.5c-0.1,0.2-0.1,0.4-0.1,0.6v0.3l-1.1-0.2v-0.1c0-0.4,0.1-0.7,0.2-1
				s0.3-0.6,0.6-0.8s0.5-0.4,0.8-0.6s0.7-0.2,1-0.2h0.6c0.4,0,0.7,0.1,1,0.2s0.6,0.3,0.8,0.6s0.4,0.5,0.6,0.8s0.2,0.7,0.2,1V26H63.1
				z M62.4,21.7h-2.3c-0.2,0-0.4,0-0.6,0.1S59.2,22,59,22.1c-0.1,0.1-0.3,0.3-0.3,0.5s-0.1,0.4-0.1,0.6v0.4c0,0.2,0,0.4,0.1,0.6
				s0.2,0.4,0.3,0.5s0.3,0.3,0.5,0.3s0.4,0.1,0.6,0.1h0.7c0.2,0,0.4,0,0.6-0.1s0.4-0.2,0.5-0.3s0.3-0.3,0.3-0.5s0.1-0.4,0.1-0.6
				V21.7z"/>
			<path id="XMLID_368_" d="M71.8,23.8c0,0.4-0.1,0.7-0.2,1s-0.3,0.6-0.6,0.8s-0.5,0.4-0.9,0.5c-0.3,0.1-0.7,0.2-1,0.2h-0.7
				c-0.4,0-0.7-0.1-1-0.2c-0.3-0.1-0.6-0.3-0.9-0.6s-0.4-0.5-0.6-0.8s-0.2-0.7-0.2-1v-0.4l1.1-0.2v0.6c0,0.2,0,0.4,0.1,0.6
				s0.2,0.4,0.4,0.5s0.3,0.3,0.5,0.3s0.4,0.1,0.6,0.1h0.7c0.2,0,0.4,0,0.6-0.1s0.4-0.2,0.5-0.3s0.3-0.3,0.4-0.4s0.1-0.4,0.1-0.6
				c0-0.3-0.1-0.6-0.2-0.8s-0.3-0.4-0.6-0.5s-0.5-0.3-0.8-0.3c-0.3-0.1-0.6-0.2-0.9-0.3s-0.6-0.2-0.9-0.3s-0.6-0.3-0.8-0.5
				s-0.4-0.4-0.6-0.7s-0.2-0.6-0.2-1.1c0-0.4,0.1-0.7,0.2-1c0.1-0.3,0.3-0.6,0.6-0.8s0.5-0.4,0.8-0.5c0.3-0.1,0.7-0.2,1-0.2h0.6
				c0.4,0,0.7,0.1,1,0.2s0.6,0.3,0.8,0.6s0.4,0.5,0.6,0.8s0.2,0.7,0.2,1v0l-1.1,0.2v-0.3c0-0.2,0-0.4-0.1-0.6
				c-0.1-0.2-0.2-0.4-0.3-0.5s-0.3-0.3-0.5-0.3s-0.4-0.1-0.6-0.1h-0.6c-0.2,0-0.4,0-0.6,0.1s-0.4,0.2-0.5,0.3
				c-0.1,0.1-0.3,0.3-0.3,0.4s-0.1,0.4-0.1,0.6c0,0.3,0.1,0.6,0.2,0.8c0.1,0.2,0.3,0.4,0.6,0.5s0.5,0.2,0.8,0.3s0.6,0.2,0.9,0.3
				c0.3,0.1,0.6,0.2,0.9,0.3s0.6,0.3,0.8,0.5s0.4,0.4,0.6,0.7C71.8,23,71.8,23.3,71.8,23.8z"/>
			<path id="XMLID_365_" d="M74.2,14.9v-1.4h1.3v1.4H74.2z M74.3,26v-9h1.1v9H74.3z"/>
			<path id="XMLID_363_" d="M81,14.5c-0.2,0-0.4,0-0.5,0.1c-0.2,0.1-0.3,0.2-0.4,0.3s-0.2,0.3-0.3,0.4s-0.1,0.3-0.1,0.5V17h2.1v1
				h-2.1v8h-1.1v-8H77v-1h1.6v-1.2c0-0.3,0.1-0.6,0.2-0.9c0.1-0.3,0.3-0.5,0.5-0.8s0.5-0.4,0.8-0.5s0.6-0.2,0.9-0.2h1v1H81z"/>
			<path id="XMLID_360_" d="M83.3,14.9v-1.4h1.3v1.4H83.3z M83.4,26v-9h1.1v9H83.4z"/>
			<path id="XMLID_358_" d="M92.8,24.6c-0.1,0.3-0.3,0.6-0.6,0.8s-0.5,0.4-0.8,0.6c-0.3,0.1-0.7,0.2-1,0.2h-0.7
				c-0.4,0-0.7-0.1-1-0.2c-0.3-0.1-0.6-0.3-0.8-0.6s-0.4-0.5-0.6-0.8s-0.2-0.7-0.2-1v-4.1c0-0.4,0.1-0.7,0.2-1s0.3-0.6,0.6-0.8
				s0.5-0.4,0.8-0.6s0.7-0.2,1-0.2h0.7c0.4,0,0.7,0.1,1,0.2s0.6,0.3,0.8,0.6s0.4,0.5,0.6,0.8s0.2,0.7,0.2,1v0.4L91.9,20v-0.6
				c0-0.2,0-0.4-0.1-0.6c-0.1-0.2-0.2-0.4-0.3-0.5S91.2,18.1,91,18s-0.4-0.1-0.6-0.1h-0.7c-0.2,0-0.4,0-0.6,0.1s-0.4,0.2-0.5,0.3
				s-0.3,0.3-0.3,0.5c-0.1,0.2-0.1,0.4-0.1,0.6v4.2c0,0.2,0,0.4,0.1,0.6s0.2,0.4,0.3,0.5s0.3,0.3,0.5,0.3s0.4,0.1,0.6,0.1h0.7
				c0.2,0,0.4,0,0.6-0.1s0.4-0.2,0.5-0.3s0.3-0.3,0.3-0.5s0.1-0.4,0.1-0.6V23l1.1,0.2v0.4C93,23.9,92.9,24.3,92.8,24.6z"/>
			<path id="XMLID_355_" d="M100.8,26l-0.6-0.9c-0.2,0.3-0.6,0.6-0.9,0.8c-0.4,0.2-0.8,0.3-1.2,0.3h-0.3c-0.4,0-0.7-0.1-1-0.2
				c-0.3-0.1-0.6-0.3-0.8-0.6s-0.4-0.5-0.6-0.8s-0.2-0.7-0.2-1v-0.1c0-0.4,0.1-0.7,0.2-1s0.3-0.6,0.6-0.8s0.5-0.4,0.8-0.6
				s0.7-0.2,1-0.2h2.3v-1.4c0-0.2,0-0.4-0.1-0.6c-0.1-0.2-0.2-0.4-0.3-0.5s-0.3-0.3-0.5-0.3s-0.4-0.1-0.6-0.1h-0.6
				c-0.2,0-0.4,0-0.6,0.1s-0.4,0.2-0.5,0.3s-0.3,0.3-0.3,0.5c-0.1,0.2-0.1,0.4-0.1,0.6v0.3l-1.1-0.2v-0.1c0-0.4,0.1-0.7,0.2-1
				s0.3-0.6,0.6-0.8s0.5-0.4,0.8-0.6s0.7-0.2,1-0.2h0.6c0.4,0,0.7,0.1,1,0.2s0.6,0.3,0.8,0.6s0.4,0.5,0.6,0.8s0.2,0.7,0.2,1V26
				H100.8z M100.1,21.7h-2.3c-0.2,0-0.4,0-0.6,0.1s-0.4,0.2-0.5,0.3c-0.1,0.1-0.3,0.3-0.3,0.5s-0.1,0.4-0.1,0.6v0.4
				c0,0.2,0,0.4,0.1,0.6s0.2,0.4,0.3,0.5s0.3,0.3,0.5,0.3s0.4,0.1,0.6,0.1h0.7c0.2,0,0.4,0,0.6-0.1s0.4-0.2,0.5-0.3s0.3-0.3,0.3-0.5
				s0.1-0.4,0.1-0.6V21.7z"/>
			<path id="XMLID_353_" d="M109.2,24.6c-0.1,0.3-0.3,0.6-0.6,0.8s-0.5,0.4-0.8,0.6c-0.3,0.1-0.7,0.2-1,0.2H106
				c-0.4,0-0.7-0.1-1-0.2c-0.3-0.1-0.6-0.3-0.8-0.6s-0.4-0.5-0.6-0.8s-0.2-0.7-0.2-1v-4.1c0-0.4,0.1-0.7,0.2-1s0.3-0.6,0.6-0.8
				s0.5-0.4,0.8-0.6s0.7-0.2,1-0.2h0.7c0.4,0,0.7,0.1,1,0.2s0.6,0.3,0.8,0.6s0.4,0.5,0.6,0.8s0.2,0.7,0.2,1v0.4l-1.1,0.2v-0.6
				c0-0.2,0-0.4-0.1-0.6c-0.1-0.2-0.2-0.4-0.3-0.5s-0.3-0.3-0.5-0.3s-0.4-0.1-0.6-0.1H106c-0.2,0-0.4,0-0.6,0.1s-0.4,0.2-0.5,0.3
				s-0.3,0.3-0.3,0.5c-0.1,0.2-0.1,0.4-0.1,0.6v4.2c0,0.2,0,0.4,0.1,0.6s0.2,0.4,0.3,0.5s0.3,0.3,0.5,0.3s0.4,0.1,0.6,0.1h0.7
				c0.2,0,0.4,0,0.6-0.1s0.4-0.2,0.5-0.3s0.3-0.3,0.3-0.5s0.1-0.4,0.1-0.6V23l1.1,0.2v0.4C109.4,23.9,109.3,24.3,109.2,24.6z"/>
			<path id="XMLID_350_" d="M111.8,14.9v-1.4h1.3v1.4H111.8z M111.9,26v-9h1.1v9H111.9z"/>
			<path id="XMLID_345_" d="M121.3,24.6c-0.1,0.3-0.3,0.6-0.6,0.8s-0.5,0.4-0.8,0.6c-0.3,0.1-0.7,0.2-1,0.2h-0.7
				c-0.4,0-0.7-0.1-1-0.2c-0.3-0.1-0.6-0.3-0.8-0.6s-0.4-0.5-0.6-0.8s-0.2-0.7-0.2-1v-4.1c0-0.4,0.1-0.7,0.2-1s0.3-0.6,0.6-0.8
				s0.5-0.4,0.8-0.6s0.7-0.2,1-0.2h0.7c0.4,0,0.7,0.1,1,0.2s0.6,0.3,0.8,0.6s0.4,0.5,0.6,0.8s0.2,0.7,0.2,1v4.1
				C121.5,23.9,121.4,24.3,121.3,24.6z M120.4,19.4c0-0.2,0-0.4-0.1-0.6c-0.1-0.2-0.2-0.4-0.3-0.5s-0.3-0.3-0.5-0.3
				s-0.4-0.1-0.6-0.1h-0.7c-0.2,0-0.4,0-0.6,0.1s-0.4,0.2-0.5,0.3s-0.3,0.3-0.3,0.5c-0.1,0.2-0.1,0.4-0.1,0.6v4.2
				c0,0.2,0,0.4,0.1,0.6s0.2,0.4,0.3,0.5s0.3,0.3,0.5,0.3s0.4,0.1,0.6,0.1h0.7c0.2,0,0.4,0,0.6-0.1s0.4-0.2,0.5-0.3s0.3-0.3,0.3-0.5
				s0.1-0.4,0.1-0.6V19.4z M118,15.6h-0.8l1.4-2.2h1.8L118,15.6z"/>
			<path id="XMLID_342_" d="M128.6,26v-6.6c0-0.2,0-0.4-0.1-0.6c-0.1-0.2-0.2-0.4-0.3-0.5s-0.3-0.3-0.5-0.3s-0.4-0.1-0.6-0.1h-0.7
				c-0.2,0-0.4,0-0.6,0.1s-0.4,0.2-0.5,0.3s-0.3,0.3-0.3,0.5c-0.1,0.2-0.1,0.4-0.1,0.6V26h-1.1v-9h0.4l0.6,0.9
				c0.2-0.3,0.6-0.6,0.9-0.8s0.8-0.3,1.2-0.3h0.3c0.4,0,0.7,0.1,1,0.2s0.6,0.3,0.8,0.6s0.4,0.5,0.6,0.8s0.2,0.7,0.2,1V26H128.6z"/>
		</g>
	</g>
	<g id="XMLID_242_">
		<circle id="XMLID_267_" class="st3" cx="20.3" cy="20.7" r="4.7"/>
		<circle id="XMLID_264_" class="st4" cx="20.3" cy="10.2" r="3"/>
		<circle id="XMLID_261_" class="st4" cx="27.7" cy="13.3" r="3"/>
		<circle id="XMLID_258_" class="st4" cx="30.8" cy="20.7" r="3"/>
		<circle id="XMLID_255_" class="st4" cx="27.7" cy="28.1" r="3"/>
		<circle id="XMLID_252_" class="st4" cx="20.3" cy="31.2" r="3"/>
		<circle id="XMLID_249_" class="st4" cx="12.9" cy="28.1" r="3"/>
		<circle id="XMLID_246_" class="st4" cx="9.8" cy="20.7" r="3"/>
		<circle id="XMLID_243_" class="st4" cx="12.9" cy="13.3" r="3"/>
	</g>
</g>
<g id="XMLID_1_">
	<g id="XMLID_1049_">
		<path id="XMLID_71_" class="st2" d="M116.6,216.9c-43.4,0-83.7,13.5-116.8,36.5v88.6h233.6v-88.6
			C200.3,230.5,160,216.9,116.6,216.9z"/>
	</g>
	<path id="XMLID_1011_" class="st5" d="M118.7,216.5C72.1,214.4,10.2,237.4,1,240.9c-0.6,0.2-1,0.7-1.1,1.4v11.8
		c0-0.6,0.3-1.2,0.8-1.6c33-22.7,72.9-36,116-36c0.8,0,1.7,0,2.5,0C119,216.6,118.9,216.6,118.7,216.5z"/>
	<path id="XMLID_1008_" class="st5" d="M114.2,216.5c46.6-2.1,108.5,20.8,117.8,24.3c0.6,0.2,1,0.7,1.1,1.4v11.8
		c0-0.6-0.3-1.2-0.8-1.6c-33-22.7-72.9-36-116-36c-0.8,0-1.7,0-2.5,0C113.9,216.6,114.1,216.6,114.2,216.5z"/>
</g>
</svg>
