<?xml version="1.0" encoding="utf-8"?>
<!-- Generator: Adobe Illustrator 19.0.0, SVG Export Plug-In . SVG Version: 6.00 Build 0)  -->
<svg version="1.1" id="Capa_1" xmlns="http://www.w3.org/2000/svg" xmlns:xlink="http://www.w3.org/1999/xlink" x="0px" y="0px"
	 viewBox="-355 251.8 247.6 58.2" style="enable-background:new -355 251.8 247.6 58.2;" xml:space="preserve">
<style type="text/css">
	.st0{fill:#3B86B1;}
	.st1{opacity:0.5;enable-background:new    ;}
	.st2{fill:#A8A8A8;}
	.st3{fill:#FCB575;}
	.st4{fill:#FFFFFF;}
	.st5{fill:#1D1D1B;}
	.st6{opacity:0.5;fill:#2C6882;enable-background:new    ;}
	.st7{fill:#3B86B1;stroke:#000000;stroke-miterlimit:10;}
</style>
<g id="XMLID_331_">
	<g id="XMLID_110_">
		<path id="XMLID_116_" class="st0" d="M-318.4,270.7v-0.5v2.3V270.7z"/>
	</g>
</g>
<polygon id="XMLID_569_" class="st1" points="-121.2,299.7 -355.2,292.6 -121.2,292.2 "/>
<g id="XMLID_502_">
	<g id="XMLID_74_">
		<polygon id="XMLID_81_" class="st2" points="-121.2,310 -107.2,292.2 -117.6,272.1 -121.2,272.1 		"/>
	</g>
</g>
<g id="XMLID_500_">
	<rect id="XMLID_50_" x="-354.3" y="252.3" class="st3" width="246.6" height="39.4"/>
	<path id="XMLID_46_" class="st4" d="M-108.2,252.8v38.4h-245.6v-38.4L-108.2,252.8 M-107.2,251.8h-247.6v40.4h247.6L-107.2,251.8
		L-107.2,251.8z"/>
</g>
<g id="XMLID_3_">
	<g id="XMLID_273_">
		<path id="XMLID_304_" class="st5" d="M-301.7,275.6c-0.2,0.4-0.4,0.7-0.7,1c-0.3,0.3-0.6,0.5-1,0.7s-0.8,0.2-1.2,0.2h-0.9
			c-0.4,0-0.8-0.1-1.2-0.2c-0.4-0.2-0.7-0.4-1-0.7c-0.3-0.3-0.5-0.6-0.7-1s-0.2-0.8-0.2-1.2v-6.8c0-0.4,0.1-0.8,0.2-1.2
			s0.4-0.7,0.7-1c0.3-0.3,0.6-0.5,1-0.7s0.8-0.2,1.2-0.2h0.9c0.4,0,0.8,0.1,1.2,0.2c0.4,0.1,0.7,0.4,1,0.7c0.3,0.3,0.5,0.6,0.7,1
			s0.2,0.8,0.2,1.2v0.5l-1.1,0.2v-0.7c0-0.3-0.1-0.5-0.2-0.8c-0.1-0.2-0.2-0.5-0.4-0.6c-0.2-0.1-0.4-0.3-0.6-0.4s-0.5-0.2-0.8-0.2
			h-0.8c-0.3,0-0.5,0.1-0.8,0.2s-0.5,0.2-0.6,0.4c-0.1,0.2-0.3,0.4-0.4,0.6s-0.2,0.5-0.2,0.8v6.8c0,0.3,0.1,0.5,0.2,0.8
			s0.3,0.5,0.4,0.6c0.2,0.2,0.4,0.3,0.6,0.4s0.5,0.2,0.8,0.2h0.8c0.3,0,0.5-0.1,0.8-0.2s0.5-0.3,0.6-0.4c0.2-0.2,0.3-0.4,0.4-0.6
			s0.2-0.5,0.2-0.8v-0.6l1.1,0.2v0.5C-301.5,274.9-301.5,275.3-301.7,275.6z"/>
		<path id="XMLID_301_" class="st5" d="M-293.5,275.9c-0.1,0.3-0.3,0.6-0.6,0.8c-0.3,0.2-0.5,0.4-0.8,0.6c-0.3,0.1-0.7,0.2-1,0.2
			h-0.7c-0.4,0-0.7-0.1-1-0.2s-0.6-0.3-0.8-0.6c-0.2-0.3-0.4-0.5-0.6-0.8s-0.2-0.7-0.2-1v-4.1c0-0.4,0.1-0.7,0.2-1s0.3-0.6,0.6-0.8
			c0.3-0.2,0.5-0.4,0.8-0.6s0.7-0.2,1-0.2h0.7c0.4,0,0.7,0.1,1,0.2s0.6,0.3,0.8,0.6c0.2,0.3,0.4,0.5,0.6,0.8s0.2,0.7,0.2,1v4.1
			C-293.3,275.3-293.3,275.6-293.5,275.9z M-294.4,270.8c0-0.2,0-0.4-0.1-0.6s-0.2-0.4-0.3-0.5c-0.1-0.1-0.3-0.3-0.5-0.3
			s-0.4-0.1-0.6-0.1h-0.7c-0.2,0-0.4,0-0.6,0.1s-0.4,0.2-0.5,0.3c-0.1,0.1-0.3,0.3-0.3,0.5c-0.1,0.2-0.1,0.4-0.1,0.6v4.2
			c0,0.2,0,0.4,0.1,0.6s0.2,0.4,0.3,0.5s0.3,0.3,0.5,0.3s0.4,0.1,0.6,0.1h0.7c0.2,0,0.4,0,0.6-0.1s0.4-0.2,0.5-0.3s0.3-0.3,0.3-0.5
			s0.1-0.4,0.1-0.6V270.8z"/>
		<path id="XMLID_299_" class="st5" d="M-281.6,277.4v-6.6c0-0.2,0-0.4-0.1-0.6s-0.2-0.4-0.3-0.5c-0.1-0.1-0.3-0.3-0.5-0.3
			s-0.4-0.1-0.6-0.1h-0.5c-0.2,0-0.4,0-0.6,0.1s-0.4,0.2-0.5,0.3c-0.1,0.1-0.3,0.3-0.3,0.5c-0.1,0.2-0.1,0.4-0.1,0.6v6.6h-1.1v-6.6
			c0-0.2,0-0.4-0.1-0.6s-0.2-0.4-0.3-0.5c-0.1-0.1-0.3-0.3-0.5-0.3s-0.4-0.1-0.6-0.1h-0.5c-0.2,0-0.4,0-0.6,0.1s-0.4,0.2-0.5,0.3
			c-0.1,0.1-0.3,0.3-0.3,0.5c-0.1,0.2-0.1,0.4-0.1,0.6v6.6h-1.1v-9l0,0l0.6,0.9c0.2-0.3,0.6-0.6,0.9-0.8c0.3-0.2,0.8-0.3,1.2-0.3
			h0.1c0.5,0,1,0.1,1.4,0.4s0.7,0.6,0.9,1c0.1-0.2,0.2-0.4,0.4-0.6s0.3-0.3,0.5-0.4s0.4-0.2,0.7-0.3c0.3-0.1,0.5-0.1,0.7-0.1h0.1
			c0.4,0,0.7,0.1,1,0.2s0.6,0.3,0.8,0.6c0.2,0.3,0.4,0.5,0.6,0.8s0.2,0.7,0.2,1v6.5L-281.6,277.4L-281.6,277.4z"/>
		<path id="XMLID_296_" class="st5" d="M-272.6,275.9c-0.1,0.3-0.3,0.6-0.6,0.8c-0.3,0.2-0.5,0.4-0.8,0.6c-0.3,0.1-0.7,0.2-1,0.2
			h-0.3c-0.4,0-0.8-0.1-1.1-0.2c-0.3-0.1-0.6-0.4-0.9-0.7v4.4h-1.1v-12.6h0.4l0.6,0.9c0.2-0.3,0.6-0.6,0.9-0.8
			c0.3-0.2,0.8-0.3,1.2-0.3h0.3c0.4,0,0.7,0.1,1,0.2s0.6,0.3,0.8,0.6c0.2,0.3,0.4,0.5,0.6,0.8s0.2,0.7,0.2,1v4.1
			C-272.4,275.3-272.4,275.6-272.6,275.9z M-273.4,270.8c0-0.2,0-0.4-0.1-0.6s-0.2-0.4-0.3-0.5c-0.1-0.1-0.3-0.3-0.5-0.3
			s-0.4-0.1-0.6-0.1h-0.7c-0.2,0-0.4,0-0.6,0.1s-0.4,0.2-0.5,0.3c-0.1,0.1-0.3,0.3-0.3,0.5c-0.1,0.2-0.1,0.4-0.1,0.6v4.2
			c0,0.2,0,0.4,0.1,0.6s0.2,0.4,0.3,0.5s0.3,0.3,0.5,0.3s0.4,0.1,0.6,0.1h0.7c0.2,0,0.4,0,0.6-0.1s0.4-0.2,0.5-0.3s0.3-0.3,0.3-0.5
			s0.1-0.4,0.1-0.6V270.8z"/>
		<path id="XMLID_293_" class="st5" d="M-264.4,275.9c-0.1,0.3-0.3,0.6-0.6,0.8c-0.3,0.2-0.5,0.4-0.8,0.6c-0.3,0.1-0.7,0.2-1,0.2
			h-0.7c-0.4,0-0.7-0.1-1-0.2s-0.6-0.3-0.8-0.6c-0.2-0.3-0.4-0.5-0.6-0.8s-0.2-0.7-0.2-1v-4.1c0-0.4,0.1-0.7,0.2-1s0.3-0.6,0.6-0.8
			c0.3-0.2,0.5-0.4,0.8-0.6s0.7-0.2,1-0.2h0.7c0.4,0,0.7,0.1,1,0.2s0.6,0.3,0.8,0.6c0.2,0.3,0.4,0.5,0.6,0.8s0.2,0.7,0.2,1v4.1
			C-264.2,275.3-264.3,275.6-264.4,275.9z M-265.3,270.8c0-0.2,0-0.4-0.1-0.6s-0.2-0.4-0.3-0.5c-0.1-0.1-0.3-0.3-0.5-0.3
			s-0.4-0.1-0.6-0.1h-0.7c-0.2,0-0.4,0-0.6,0.1s-0.4,0.2-0.5,0.3c-0.1,0.1-0.3,0.3-0.3,0.5c-0.1,0.2-0.1,0.4-0.1,0.6v4.2
			c0,0.2,0,0.4,0.1,0.6s0.2,0.4,0.3,0.5s0.3,0.3,0.5,0.3s0.4,0.1,0.6,0.1h0.7c0.2,0,0.4,0,0.6-0.1s0.4-0.2,0.5-0.3s0.3-0.3,0.3-0.5
			s0.1-0.4,0.1-0.6V270.8z"/>
		<path id="XMLID_291_" class="st5" d="M-257.1,277.4v-6.6c0-0.2,0-0.4-0.1-0.6s-0.2-0.4-0.3-0.5c-0.1-0.1-0.3-0.3-0.5-0.3
			s-0.4-0.1-0.6-0.1h-0.7c-0.2,0-0.4,0-0.6,0.1s-0.4,0.2-0.5,0.3c-0.1,0.1-0.3,0.3-0.3,0.5c-0.1,0.2-0.1,0.4-0.1,0.6v6.6h-1.1v-9
			h0.4l0.6,0.9c0.2-0.3,0.6-0.6,0.9-0.8c0.3-0.2,0.8-0.3,1.2-0.3h0.3c0.4,0,0.7,0.1,1,0.2s0.6,0.3,0.8,0.6c0.2,0.3,0.4,0.5,0.6,0.8
			s0.2,0.7,0.2,1v6.5L-257.1,277.4L-257.1,277.4z"/>
		<path id="XMLID_283_" class="st5" d="M-248,275.9c-0.1,0.3-0.3,0.6-0.6,0.8c-0.3,0.2-0.5,0.4-0.8,0.6c-0.3,0.1-0.7,0.2-1,0.2h-0.7
			c-0.4,0-0.7-0.1-1-0.2s-0.6-0.3-0.8-0.6c-0.2-0.3-0.4-0.5-0.6-0.8c-0.2-0.3-0.2-0.7-0.2-1v-4.1c0-0.4,0.1-0.7,0.2-1
			c0.1-0.3,0.3-0.6,0.6-0.8c0.3-0.2,0.5-0.4,0.8-0.6s0.7-0.2,1-0.2h0.7c0.4,0,0.7,0.1,1,0.2s0.6,0.3,0.8,0.6
			c0.2,0.3,0.4,0.5,0.6,0.8c0.2,0.3,0.2,0.7,0.2,1v2.1h-5v2c0,0.2,0,0.4,0.1,0.6s0.2,0.4,0.3,0.5s0.3,0.3,0.5,0.3s0.4,0.1,0.6,0.1
			h0.7c0.2,0,0.4,0,0.6-0.1c0.2-0.1,0.4-0.2,0.5-0.3c0.1-0.1,0.3-0.3,0.3-0.5s0.1-0.4,0.1-0.6v-0.6l1.1,0.2v0.4
			C-247.8,275.3-247.9,275.6-248,275.9z M-248.9,270.8c0-0.2,0-0.4-0.1-0.6s-0.2-0.4-0.3-0.5s-0.3-0.3-0.5-0.3s-0.4-0.1-0.6-0.1
			h-0.7c-0.2,0-0.4,0-0.6,0.1s-0.4,0.2-0.5,0.3c-0.1,0.1-0.3,0.3-0.3,0.5c-0.1,0.2-0.1,0.4-0.1,0.6v1.3h3.8L-248.9,270.8
			L-248.9,270.8z"/>
		<path id="XMLID_281_" class="st5" d="M-240.7,277.4v-6.6c0-0.2,0-0.4-0.1-0.6s-0.2-0.4-0.3-0.5s-0.3-0.3-0.5-0.3s-0.4-0.1-0.6-0.1
			h-0.7c-0.2,0-0.4,0-0.6,0.1s-0.4,0.2-0.5,0.3c-0.1,0.1-0.3,0.3-0.3,0.5c-0.1,0.2-0.1,0.4-0.1,0.6v6.6h-1.1v-9h0.4l0.6,0.9
			c0.2-0.3,0.6-0.6,0.9-0.8c0.3-0.2,0.8-0.3,1.2-0.3h0.3c0.4,0,0.7,0.1,1,0.2s0.6,0.3,0.8,0.6c0.2,0.3,0.4,0.5,0.6,0.8
			c0.2,0.3,0.2,0.7,0.2,1v6.5L-240.7,277.4L-240.7,277.4z"/>
		<path id="XMLID_279_" class="st5" d="M-234.2,277.4c-0.3,0-0.6-0.1-0.9-0.2c-0.3-0.1-0.5-0.3-0.8-0.5s-0.4-0.5-0.5-0.8
			s-0.2-0.6-0.2-0.9v-5.6h-1.6v-1h1.6v-2.2l1.1-0.2v2.3h2.3v1h-2.3v5.7c0,0.2,0,0.4,0.1,0.5s0.2,0.3,0.3,0.4s0.3,0.2,0.4,0.3
			c0.1,0.1,0.3,0.1,0.5,0.1h1v1h-1L-234.2,277.4L-234.2,277.4z"/>
		<path id="XMLID_276_" class="st5" d="M-225.4,275.9c-0.1,0.3-0.3,0.6-0.6,0.8c-0.3,0.2-0.5,0.4-0.8,0.6c-0.3,0.1-0.7,0.2-1,0.2
			h-0.7c-0.4,0-0.7-0.1-1-0.2s-0.6-0.3-0.8-0.6c-0.2-0.3-0.4-0.5-0.6-0.8c-0.2-0.3-0.2-0.7-0.2-1v-4.1c0-0.4,0.1-0.7,0.2-1
			c0.1-0.3,0.3-0.6,0.6-0.8c0.3-0.2,0.5-0.4,0.8-0.6s0.7-0.2,1-0.2h0.7c0.4,0,0.7,0.1,1,0.2s0.6,0.3,0.8,0.6
			c0.2,0.3,0.4,0.5,0.6,0.8c0.2,0.3,0.2,0.7,0.2,1v2.1h-4.9v2c0,0.2,0,0.4,0.1,0.6s0.2,0.4,0.3,0.5s0.3,0.3,0.5,0.3s0.4,0.1,0.6,0.1
			h0.7c0.2,0,0.4,0,0.6-0.1c0.2-0.1,0.4-0.2,0.5-0.3s0.3-0.3,0.3-0.5s0.1-0.4,0.1-0.6v-0.6l1.1,0.2v0.4
			C-225.2,275.3-225.3,275.6-225.4,275.9z M-226.3,270.8c0-0.2,0-0.4-0.1-0.6s-0.2-0.4-0.3-0.5s-0.3-0.3-0.5-0.3s-0.4-0.1-0.6-0.1
			h-0.7c-0.2,0-0.4,0-0.6,0.1s-0.4,0.2-0.5,0.3c-0.1,0.1-0.3,0.3-0.3,0.5c-0.1,0.2-0.1,0.4-0.1,0.6v1.3h3.8L-226.3,270.8
			L-226.3,270.8z"/>
		<path id="XMLID_274_" class="st5" d="M-216.9,275.1c0,0.4-0.1,0.7-0.2,1c-0.1,0.3-0.3,0.6-0.6,0.8c-0.3,0.2-0.5,0.4-0.9,0.5
			c-0.3,0.1-0.7,0.2-1,0.2h-0.7c-0.4,0-0.7-0.1-1-0.2s-0.6-0.3-0.9-0.6c-0.3-0.3-0.4-0.5-0.6-0.8s-0.2-0.7-0.2-1v-0.4l1.1-0.2v0.6
			c0,0.2,0,0.4,0.1,0.6s0.2,0.4,0.4,0.5s0.3,0.3,0.5,0.3s0.4,0.1,0.6,0.1h0.7c0.2,0,0.4,0,0.6-0.1s0.4-0.2,0.5-0.3s0.3-0.3,0.4-0.4
			c0.1-0.1,0.1-0.4,0.1-0.6c0-0.3-0.1-0.6-0.2-0.8c-0.1-0.2-0.3-0.4-0.6-0.5s-0.5-0.3-0.8-0.3c-0.3-0.1-0.6-0.2-0.9-0.3
			c-0.3-0.1-0.6-0.2-0.9-0.3c-0.3-0.1-0.6-0.3-0.8-0.5s-0.4-0.4-0.6-0.7c-0.2-0.3-0.2-0.6-0.2-1.1c0-0.4,0.1-0.7,0.2-1
			c0.1-0.3,0.3-0.6,0.6-0.8c0.3-0.2,0.5-0.4,0.8-0.5s0.7-0.2,1-0.2h0.6c0.4,0,0.7,0.1,1,0.2s0.6,0.3,0.8,0.6
			c0.2,0.3,0.4,0.5,0.6,0.8c0.2,0.3,0.2,0.7,0.2,1l0,0l-1.1,0.2v-0.1c0-0.2,0-0.4-0.1-0.6s-0.2-0.4-0.3-0.5s-0.3-0.3-0.5-0.3
			s-0.4-0.1-0.6-0.1h-0.6c-0.2,0-0.4,0-0.6,0.1s-0.4,0.2-0.5,0.3c-0.1,0.1-0.3,0.3-0.3,0.4s-0.1,0.4-0.1,0.6c0,0.3,0.1,0.6,0.2,0.8
			c0.1,0.2,0.3,0.4,0.6,0.5s0.5,0.2,0.8,0.3c0.3,0.1,0.6,0.2,0.9,0.3c0.3,0.1,0.6,0.2,0.9,0.3s0.6,0.3,0.8,0.5s0.4,0.4,0.6,0.7
			C-217,274.3-216.9,274.6-216.9,275.1z"/>
	</g>
</g>
<g id="XMLID_2_">
	<g id="XMLID_1049_">
		<path id="XMLID_71_" class="st4" d="M-593.4,894.8c-43.4,0-83.7,13.5-116.8,36.5v88.6h233.6v-88.6
			C-509.7,908.4-550,894.8-593.4,894.8z"/>
	</g>
	<path id="XMLID_1011_" class="st6" d="M-591.3,894.4c-46.6-2.1-108.5,20.9-117.7,24.4c-0.6,0.2-1,0.7-1.1,1.4V932
		c0-0.6,0.3-1.2,0.8-1.6c33-22.7,72.9-36,116-36c0.8,0,1.7,0,2.5,0C-591,894.5-591.1,894.4-591.3,894.4z"/>
	<path id="XMLID_1008_" class="st6" d="M-595.8,894.4c46.6-2.1,108.5,20.8,117.8,24.3c0.6,0.2,1,0.7,1.1,1.4v11.8
		c0-0.6-0.3-1.2-0.8-1.6c-33-22.7-72.9-36-116-36c-0.8,0-1.7,0-2.5,0C-596.1,894.5-595.9,894.4-595.8,894.4z"/>
</g>
<path class="st7" d="M-320.2,269.7l-2.6-0.6c-0.2-0.3-0.2-0.8-0.5-1.1l1.5-2.1c0.5-0.8,0.3-1.5-0.2-2.1l-1.7-1.7
	c-0.3-0.3-0.8-0.5-1.2-0.5c-0.3,0-0.6,0.2-0.9,0.3l-2.1,1.4c-0.5-0.2-0.8-0.3-1.1-0.5l-0.6-2.4c-0.1-0.9-0.7-1.4-1.6-1.4h-2.3
	c-0.8,0-1.4,0.5-1.5,1.4l-0.6,2.4c-0.3,0.2-0.8,0.3-1.1,0.5l-2.1-1.4c-0.3-0.2-0.6-0.3-0.9-0.3c-0.5,0-0.9,0.2-1.2,0.5l-1.7,1.7
	c-0.5,0.6-0.6,1.4-0.2,2.1l1.5,2.1c-0.3,0.3-0.5,0.8-0.5,1.1l-2.6,0.6c-0.8,0.2-1.4,0.8-1.4,1.5v2.3c0,0.9,0.6,1.5,1.4,1.7l2.6,0.6
	c0,0.3,0.2,0.6,0.5,1.1l-1.5,2.1c-0.5,0.6-0.3,1.5,0.2,2.1l1.7,1.5c0.3,0.5,0.8,0.6,1.2,0.6c0.3,0,0.6-0.2,0.9-0.3l2.1-1.5
	c0.3,0.2,0.8,0.3,1.1,0.5l0.6,2.6c0.2,0.8,0.8,1.4,1.5,1.4h2.3c0.9,0,1.5-0.6,1.7-1.4l0.6-2.5c0.3-0.2,0.6-0.3,1.1-0.5l2.1,1.5
	c0.3,0.1,0.6,0.3,0.9,0.3c0.5,0,0.9-0.2,1.2-0.6l1.7-1.5c0.5-0.6,0.6-1.5,0.2-2.1l-1.5-2.1c0.3-0.5,0.3-0.8,0.5-1.2l2.6-0.5
	c0.8-0.1,1.4-0.8,1.4-1.7v-2.3C-318.8,270.5-319.3,269.9-320.2,269.7L-320.2,269.7z M-326.8,272.4c0,3-2.4,5.4-5.4,5.4
	s-5.4-2.4-5.4-5.4s2.4-5.4,5.4-5.4S-326.8,269.5-326.8,272.4z"/>
<path class="st7" d="M-329.7,273.3c-0.5,1.1-1.4,1.7-2.4,1.7c-0.8,0-1.4-0.3-1.8-0.8c-0.2-0.1-0.3-0.3-0.3-0.3
	c-0.4-0.4-0.6-1-0.6-1.5c0-1.5,1.1-2.6,2.6-2.6c0.8,0,1.5,0.3,2,0.8s0.6,1.1,0.6,1.8C-329.6,272.7-329.6,273-329.7,273.3
	L-329.7,273.3z"/>
</svg>
