<?xml version="1.0" encoding="utf-8"?>
<!-- Generator: Adobe Illustrator 19.0.0, SVG Export Plug-In . SVG Version: 6.00 Build 0)  -->
<svg version="1.1" id="Capa_1" xmlns="http://www.w3.org/2000/svg" xmlns:xlink="http://www.w3.org/1999/xlink" x="0px" y="0px"
	 viewBox="-354 251.2 249.6 58.8" style="enable-background:new -354 251.2 249.6 58.8;" xml:space="preserve">
<style type="text/css">
	.st0{opacity:0.5;enable-background:new    ;}
	.st1{fill:#A8A8A8;}
	.st2{fill:#FFFFFF;}
	.st3{fill:#FCB575;stroke:#FFFFFF;stroke-miterlimit:10;}
	.st4{enable-background:new    ;}
	.st5{fill:#FFFFFF;stroke:#000000;stroke-miterlimit:10;}
	.st6{fill:#3B86B1;}
	.st7{opacity:0.5;fill:#2C6882;enable-background:new    ;}
</style>
<g id="XMLID_56_">
	<polygon id="XMLID_128_" class="st0" points="-118.4,300.3 -352.4,293.2 -118.4,293.2 	"/>
	<g id="XMLID_123_">
		<g id="XMLID_125_">
			<polygon id="XMLID_126_" class="st1" points="-118.4,311 -104.4,293.3 -114.8,273.1 -118.4,273.1 			"/>
		</g>
	</g>
	<g id="XMLID_120_">
		<rect id="XMLID_122_" x="-352" y="252.8" class="st2" width="247.6" height="40.4"/>
	</g>
</g>
<rect id="XMLID_321_" x="-354" y="252.2" class="st3" width="249.6" height="41.1"/>
<g id="XMLID_304_">
	<g class="st4">
		<path d="M-300.7,277.6c-0.2,0.4-0.4,0.7-0.7,1s-0.6,0.5-1,0.7s-0.8,0.2-1.2,0.2h-4v-12.6h4c0.4,0,0.8,0.1,1.2,0.2s0.7,0.4,1,0.7
			s0.5,0.6,0.7,1s0.2,0.8,0.2,1.2v6.4C-300.5,276.8-300.5,277.2-300.7,277.6z M-301.6,270c0-0.3-0.1-0.5-0.2-0.8s-0.3-0.5-0.4-0.6
			c-0.2-0.2-0.4-0.3-0.6-0.4s-0.5-0.2-0.8-0.2h-2.8v10.4h2.8c0.3,0,0.5-0.1,0.8-0.2s0.5-0.2,0.6-0.4s0.3-0.4,0.4-0.6
			s0.2-0.5,0.2-0.8V270z"/>
		<path d="M-292.3,278.1c-0.1,0.3-0.3,0.6-0.6,0.8s-0.5,0.4-0.8,0.6c-0.3,0.1-0.7,0.2-1,0.2h-0.7c-0.4,0-0.7-0.1-1-0.2
			s-0.6-0.3-0.8-0.6s-0.4-0.5-0.6-0.8s-0.2-0.7-0.2-1V273c0-0.4,0.1-0.7,0.2-1s0.3-0.6,0.6-0.8s0.5-0.4,0.8-0.6s0.7-0.2,1-0.2h0.7
			c0.4,0,0.7,0.1,1,0.2s0.6,0.3,0.8,0.6s0.4,0.5,0.6,0.8s0.2,0.7,0.2,1v2.1h-4.9v2c0,0.2,0,0.4,0.1,0.6s0.2,0.4,0.3,0.5
			s0.3,0.3,0.5,0.3s0.4,0.1,0.6,0.1h0.7c0.2,0,0.4,0,0.6-0.1s0.4-0.2,0.5-0.3s0.3-0.3,0.3-0.5s0.1-0.4,0.1-0.6v-0.6l1.1,0.2v0.4
			C-292.1,277.4-292.2,277.7-292.3,278.1z M-293.2,272.9c0-0.2,0-0.4-0.1-0.6s-0.2-0.4-0.3-0.5s-0.3-0.3-0.5-0.3s-0.4-0.1-0.6-0.1
			h-0.7c-0.2,0-0.4,0-0.6,0.1s-0.4,0.2-0.5,0.3s-0.3,0.3-0.3,0.5c-0.1,0.2-0.1,0.4-0.1,0.6v1.3h3.8L-293.2,272.9L-293.2,272.9z"/>
		<path d="M-286.9,267.9c-0.2,0-0.4,0-0.5,0.1c-0.2,0.1-0.3,0.2-0.4,0.3s-0.2,0.3-0.3,0.4s-0.1,0.3-0.1,0.5v1.3h2.1v1h-2.1v8h-1.1
			v-8h-1.6v-1h1.6v-1.2c0-0.3,0.1-0.6,0.2-0.9s0.3-0.5,0.5-0.8s0.5-0.4,0.8-0.5s0.6-0.2,0.9-0.2h1v1L-286.9,267.9L-286.9,267.9z"/>
		<path d="M-284.5,268.3v-1.4h1.3v1.4H-284.5z M-284.4,279.5v-9h1.1v9H-284.4z"/>
		<path d="M-275.9,279.5v-6.6c0-0.2,0-0.4-0.1-0.6s-0.2-0.4-0.3-0.5s-0.3-0.3-0.5-0.3s-0.4-0.1-0.6-0.1h-0.7c-0.2,0-0.4,0-0.6,0.1
			s-0.4,0.2-0.5,0.3s-0.3,0.3-0.3,0.5c-0.1,0.2-0.1,0.4-0.1,0.6v6.6h-1.1v-9h0.4l0.6,0.9c0.2-0.3,0.6-0.6,0.9-0.8s0.8-0.3,1.2-0.3
			h0.3c0.4,0,0.7,0.1,1,0.2s0.6,0.3,0.8,0.6s0.4,0.5,0.6,0.8s0.2,0.7,0.2,1v6.5L-275.9,279.5L-275.9,279.5z"/>
		<path d="M-272.4,268.3v-1.4h1.3v1.4H-272.4z M-272.3,279.5v-9h1.1v9H-272.3z"/>
		<path d="M-262.9,278.1c-0.1,0.3-0.3,0.6-0.6,0.8s-0.5,0.4-0.8,0.6c-0.3,0.1-0.7,0.2-1,0.2h-0.7c-0.4,0-0.7-0.1-1-0.2
			s-0.6-0.3-0.8-0.6s-0.4-0.5-0.6-0.8s-0.2-0.7-0.2-1V273c0-0.4,0.1-0.7,0.2-1s0.3-0.6,0.6-0.8s0.5-0.4,0.8-0.6s0.7-0.2,1-0.2h0.7
			c0.4,0,0.7,0.1,1,0.2s0.6,0.3,0.8,0.6s0.4,0.5,0.6,0.8s0.2,0.7,0.2,1v0.4l-1.1,0.2V273c0-0.2,0-0.4-0.1-0.6s-0.2-0.4-0.3-0.5
			s-0.3-0.3-0.5-0.3s-0.4-0.1-0.6-0.1h-0.7c-0.2,0-0.4,0-0.6,0.1s-0.4,0.2-0.5,0.3s-0.3,0.3-0.3,0.5c-0.1,0.2-0.1,0.4-0.1,0.6v4.2
			c0,0.2,0,0.4,0.1,0.6s0.2,0.4,0.3,0.5s0.3,0.3,0.5,0.3s0.4,0.1,0.6,0.1h0.7c0.2,0,0.4,0,0.6-0.1s0.4-0.2,0.5-0.3s0.3-0.3,0.3-0.5
			s0.1-0.4,0.1-0.6v-0.6l1.1,0.2v0.4C-262.7,277.4-262.7,277.7-262.9,278.1z"/>
		<path d="M-260.2,268.3v-1.4h1.3v1.4H-260.2z M-260.2,279.5v-9h1.1v9H-260.2z"/>
		<path d="M-250.7,278.1c-0.1,0.3-0.3,0.6-0.6,0.8s-0.5,0.4-0.8,0.6c-0.3,0.1-0.7,0.2-1,0.2h-0.7c-0.4,0-0.7-0.1-1-0.2
			s-0.6-0.3-0.8-0.6s-0.4-0.5-0.6-0.8s-0.2-0.7-0.2-1V273c0-0.4,0.1-0.7,0.2-1s0.3-0.6,0.6-0.8s0.5-0.4,0.8-0.6s0.7-0.2,1-0.2h0.7
			c0.4,0,0.7,0.1,1,0.2s0.6,0.3,0.8,0.6s0.4,0.5,0.6,0.8s0.2,0.7,0.2,1v4.1C-250.5,277.4-250.6,277.7-250.7,278.1z M-251.6,272.9
			c0-0.2,0-0.4-0.1-0.6s-0.2-0.4-0.3-0.5s-0.3-0.3-0.5-0.3s-0.4-0.1-0.6-0.1h-0.7c-0.2,0-0.4,0-0.6,0.1s-0.4,0.2-0.5,0.3
			s-0.3,0.3-0.3,0.5c-0.1,0.2-0.1,0.4-0.1,0.6v4.2c0,0.2,0,0.4,0.1,0.6s0.2,0.4,0.3,0.5s0.3,0.3,0.5,0.3s0.4,0.1,0.6,0.1h0.7
			c0.2,0,0.4,0,0.6-0.1s0.4-0.2,0.5-0.3s0.3-0.3,0.3-0.5s0.1-0.4,0.1-0.6V272.9z M-254,269.1h-0.8l1.4-2.2h1.8L-254,269.1z"/>
		<path d="M-243.4,279.5v-6.6c0-0.2,0-0.4-0.1-0.6s-0.2-0.4-0.3-0.5s-0.3-0.3-0.5-0.3s-0.4-0.1-0.6-0.1h-0.7c-0.2,0-0.4,0-0.6,0.1
			s-0.4,0.2-0.5,0.3s-0.3,0.3-0.3,0.5c-0.1,0.2-0.1,0.4-0.1,0.6v6.6h-1.1v-9h0.4l0.6,0.9c0.2-0.3,0.6-0.6,0.9-0.8s0.8-0.3,1.2-0.3
			h0.3c0.4,0,0.7,0.1,1,0.2s0.6,0.3,0.8,0.6s0.4,0.5,0.6,0.8s0.2,0.7,0.2,1v6.5L-243.4,279.5L-243.4,279.5z"/>
	</g>
</g>
<g id="XMLID_37_">
	<rect id="XMLID_63_" x="-344.6" y="264.4" class="st5" width="26" height="17.5"/>
	<rect id="XMLID_62_" x="-342.8" y="268.4" class="st6" width="4.2" height="4"/>
	<rect id="XMLID_58_" x="-342.8" y="274.9" class="st6" width="4.2" height="4"/>
	<rect id="XMLID_53_" x="-335.8" y="268.4" class="st6" width="14.2" height="10.5"/>
</g>
<g id="XMLID_8_">
	<g id="XMLID_1049_">
		<path id="XMLID_71_" class="st2" d="M-589.4,981.1c-43.4,0-83.7,13.5-116.8,36.5v88.6h233.6v-88.6
			C-505.7,994.6-546,981.1-589.4,981.1z"/>
	</g>
	<path id="XMLID_1011_" class="st7" d="M-587.3,980.7c-46.6-2.1-108.5,20.8-117.7,24.3c-0.6,0.2-1,0.7-1.1,1.4v11.8
		c0-0.6,0.3-1.2,0.8-1.6c33-22.7,72.9-36,116-36c0.8,0,1.7,0,2.5,0C-587,980.7-587.1,980.7-587.3,980.7z"/>
	<path id="XMLID_1008_" class="st7" d="M-591.8,980.7c46.6-2.1,108.5,20.8,117.8,24.3c0.6,0.2,1,0.7,1.1,1.4v11.8
		c0-0.6-0.3-1.2-0.8-1.6c-33-22.7-72.9-36-116-36c-0.8,0-1.7,0-2.5,0C-592.1,980.7-591.9,980.7-591.8,980.7z"/>
</g>
</svg>
