<?xml version="1.0" encoding="utf-8"?>
<!-- Generator: Adobe Illustrator 19.0.0, SVG Export Plug-In . SVG Version: 6.00 Build 0)  -->
<svg version="1.1" id="Capa_1" xmlns="http://www.w3.org/2000/svg" xmlns:xlink="http://www.w3.org/1999/xlink" x="0px" y="0px"
	 viewBox="0 0 247.6 58.2" style="enable-background:new 0 0 247.6 58.2;" xml:space="preserve">
<style type="text/css">
	.st0{fill-rule:evenodd;clip-rule:evenodd;fill:#3B86B1;}
	.st1{opacity:0.5;}
	.st2{fill-rule:evenodd;clip-rule:evenodd;fill:#A8A8A8;}
	.st3{fill-rule:evenodd;clip-rule:evenodd;fill:#FFFFFF;}
	.st4{fill-rule:evenodd;clip-rule:evenodd;fill:#3B86B1;stroke:#1D1D1B;stroke-miterlimit:10;}
	.st5{opacity:0.5;fill:#2C6882;}
</style>
<g id="XMLID_1_">
	<g id="XMLID_331_">
		<g id="XMLID_110_">
			<path id="XMLID_116_" class="st0" d="M36.4,18.9v-0.5v2.3V18.9z"/>
		</g>
	</g>
	<g id="XMLID_100_">
		<polygon id="XMLID_569_" class="st1" points="234.2,47.9 -0.4,39.8 234.2,39.8 		"/>
		<g id="XMLID_502_">
			<g id="XMLID_74_">
				<polygon id="XMLID_81_" class="st2" points="233.6,58.2 247.6,40.4 237.2,20.3 233.6,20.3 				"/>
			</g>
		</g>
		<g id="XMLID_500_">
			<rect id="XMLID_66_" class="st3" width="247.6" height="40.4"/>
		</g>
		<g id="XMLID_3_">
			<g id="XMLID_273_">
				<path id="XMLID_304_" d="M53.1,23.8c-0.2,0.4-0.4,0.7-0.7,1s-0.6,0.5-1,0.7c-0.4,0.2-0.8,0.2-1.2,0.2h-0.9
					c-0.4,0-0.8-0.1-1.2-0.2c-0.4-0.2-0.7-0.4-1-0.7s-0.5-0.6-0.7-1s-0.2-0.8-0.2-1.2v-6.8c0-0.4,0.1-0.8,0.2-1.2s0.4-0.7,0.7-1
					s0.6-0.5,1-0.7s0.8-0.2,1.2-0.2h0.9c0.4,0,0.8,0.1,1.2,0.2s0.7,0.4,1,0.7s0.5,0.6,0.7,1s0.2,0.8,0.2,1.2v0.5l-1.1,0.2v-0.7
					c0-0.3-0.1-0.5-0.2-0.8c-0.1-0.2-0.2-0.5-0.4-0.6S51.2,14.1,51,14s-0.5-0.2-0.8-0.2h-0.8c-0.3,0-0.5,0.1-0.8,0.2
					s-0.5,0.2-0.6,0.4s-0.3,0.4-0.4,0.6c-0.1,0.2-0.2,0.5-0.2,0.8v6.8c0,0.3,0.1,0.5,0.2,0.8s0.3,0.5,0.4,0.6
					c0.2,0.2,0.4,0.3,0.6,0.4s0.5,0.2,0.8,0.2h0.8c0.3,0,0.5-0.1,0.8-0.2s0.5-0.3,0.6-0.4c0.2-0.2,0.3-0.4,0.4-0.6s0.2-0.5,0.2-0.8
					V22l1.1,0.2v0.5C53.3,23.1,53.3,23.5,53.1,23.8z"/>
				<path id="XMLID_301_" d="M61.3,24.1c-0.1,0.3-0.3,0.6-0.6,0.8s-0.5,0.4-0.8,0.6c-0.3,0.1-0.7,0.2-1,0.2h-0.7
					c-0.4,0-0.7-0.1-1-0.2c-0.3-0.1-0.6-0.3-0.8-0.6s-0.4-0.5-0.6-0.8s-0.2-0.7-0.2-1V19c0-0.4,0.1-0.7,0.2-1s0.3-0.6,0.6-0.8
					s0.5-0.4,0.8-0.6s0.7-0.2,1-0.2h0.7c0.4,0,0.7,0.1,1,0.2s0.6,0.3,0.8,0.6s0.4,0.5,0.6,0.8s0.2,0.7,0.2,1v4.1
					C61.5,23.5,61.5,23.8,61.3,24.1z M60.4,19c0-0.2,0-0.4-0.1-0.6c-0.1-0.2-0.2-0.4-0.3-0.5s-0.3-0.3-0.5-0.3s-0.4-0.1-0.6-0.1
					h-0.7c-0.2,0-0.4,0-0.6,0.1s-0.4,0.2-0.5,0.3s-0.3,0.3-0.3,0.5c-0.1,0.2-0.1,0.4-0.1,0.6v4.2c0,0.2,0,0.4,0.1,0.6
					s0.2,0.4,0.3,0.5s0.3,0.3,0.5,0.3s0.4,0.1,0.6,0.1h0.7c0.2,0,0.4,0,0.6-0.1s0.4-0.2,0.5-0.3s0.3-0.3,0.3-0.5s0.1-0.4,0.1-0.6V19
					z"/>
				<path id="XMLID_299_" d="M73.2,25.6V19c0-0.2,0-0.4-0.1-0.6c-0.1-0.2-0.2-0.4-0.3-0.5s-0.3-0.3-0.5-0.3s-0.4-0.1-0.6-0.1h-0.5
					c-0.2,0-0.4,0-0.6,0.1s-0.4,0.2-0.5,0.3s-0.3,0.3-0.3,0.5c-0.1,0.2-0.1,0.4-0.1,0.6v6.6h-1.1V19c0-0.2,0-0.4-0.1-0.6
					c-0.1-0.2-0.2-0.4-0.3-0.5s-0.3-0.3-0.5-0.3s-0.4-0.1-0.6-0.1h-0.5c-0.2,0-0.4,0-0.6,0.1s-0.4,0.2-0.5,0.3s-0.3,0.3-0.3,0.5
					c-0.1,0.2-0.1,0.4-0.1,0.6v6.6h-1.1v-9H64l0.6,0.9c0.2-0.3,0.6-0.6,0.9-0.8s0.8-0.3,1.2-0.3h0.1c0.5,0,1,0.1,1.4,0.4
					s0.7,0.6,0.9,1c0.1-0.2,0.2-0.4,0.4-0.6s0.3-0.3,0.5-0.4s0.4-0.2,0.7-0.3s0.5-0.1,0.7-0.1h0.1c0.4,0,0.7,0.1,1,0.2
					s0.6,0.3,0.8,0.6s0.4,0.5,0.6,0.8s0.2,0.7,0.2,1v6.5H73.2z"/>
				<path id="XMLID_296_" d="M82.2,24.1c-0.1,0.3-0.3,0.6-0.6,0.8s-0.5,0.4-0.8,0.6c-0.3,0.1-0.7,0.2-1,0.2h-0.3
					c-0.4,0-0.8-0.1-1.1-0.2s-0.6-0.4-0.9-0.7v4.4h-1.1V16.6h0.4l0.6,0.9c0.2-0.3,0.6-0.6,0.9-0.8s0.8-0.3,1.2-0.3h0.3
					c0.4,0,0.7,0.1,1,0.2s0.6,0.3,0.8,0.6s0.4,0.5,0.6,0.8s0.2,0.7,0.2,1v4.1C82.4,23.5,82.4,23.8,82.2,24.1z M81.4,19
					c0-0.2,0-0.4-0.1-0.6c-0.1-0.2-0.2-0.4-0.3-0.5s-0.3-0.3-0.5-0.3s-0.4-0.1-0.6-0.1h-0.7c-0.2,0-0.4,0-0.6,0.1s-0.4,0.2-0.5,0.3
					s-0.3,0.3-0.3,0.5c-0.1,0.2-0.1,0.4-0.1,0.6v4.2c0,0.2,0,0.4,0.1,0.6s0.2,0.4,0.3,0.5s0.3,0.3,0.5,0.3s0.4,0.1,0.6,0.1h0.7
					c0.2,0,0.4,0,0.6-0.1s0.4-0.2,0.5-0.3s0.3-0.3,0.3-0.5s0.1-0.4,0.1-0.6V19z"/>
				<path id="XMLID_293_" d="M90.4,24.1c-0.1,0.3-0.3,0.6-0.6,0.8s-0.5,0.4-0.8,0.6c-0.3,0.1-0.7,0.2-1,0.2h-0.7
					c-0.4,0-0.7-0.1-1-0.2c-0.3-0.1-0.6-0.3-0.8-0.6s-0.4-0.5-0.6-0.8s-0.2-0.7-0.2-1V19c0-0.4,0.1-0.7,0.2-1s0.3-0.6,0.6-0.8
					s0.5-0.4,0.8-0.6s0.7-0.2,1-0.2H88c0.4,0,0.7,0.1,1,0.2s0.6,0.3,0.8,0.6s0.4,0.5,0.6,0.8s0.2,0.7,0.2,1v4.1
					C90.6,23.5,90.5,23.8,90.4,24.1z M89.5,19c0-0.2,0-0.4-0.1-0.6c-0.1-0.2-0.2-0.4-0.3-0.5s-0.3-0.3-0.5-0.3s-0.4-0.1-0.6-0.1
					h-0.7c-0.2,0-0.4,0-0.6,0.1s-0.4,0.2-0.5,0.3s-0.3,0.3-0.3,0.5c-0.1,0.2-0.1,0.4-0.1,0.6v4.2c0,0.2,0,0.4,0.1,0.6
					s0.2,0.4,0.3,0.5s0.3,0.3,0.5,0.3s0.4,0.1,0.6,0.1H88c0.2,0,0.4,0,0.6-0.1s0.4-0.2,0.5-0.3s0.3-0.3,0.3-0.5s0.1-0.4,0.1-0.6V19z
					"/>
				<path id="XMLID_291_" d="M97.7,25.6V19c0-0.2,0-0.4-0.1-0.6c-0.1-0.2-0.2-0.4-0.3-0.5s-0.3-0.3-0.5-0.3s-0.4-0.1-0.6-0.1h-0.7
					c-0.2,0-0.4,0-0.6,0.1s-0.4,0.2-0.5,0.3s-0.3,0.3-0.3,0.5c-0.1,0.2-0.1,0.4-0.1,0.6v6.6h-1.1v-9h0.4l0.6,0.9
					c0.2-0.3,0.6-0.6,0.9-0.8s0.8-0.3,1.2-0.3h0.3c0.4,0,0.7,0.1,1,0.2s0.6,0.3,0.8,0.6s0.4,0.5,0.6,0.8s0.2,0.7,0.2,1v6.5H97.7z"/>
				<path id="XMLID_283_" d="M106.8,24.1c-0.1,0.3-0.3,0.6-0.6,0.8s-0.5,0.4-0.8,0.6c-0.3,0.1-0.7,0.2-1,0.2h-0.7
					c-0.4,0-0.7-0.1-1-0.2c-0.3-0.1-0.6-0.3-0.8-0.6s-0.4-0.5-0.6-0.8s-0.2-0.7-0.2-1V19c0-0.4,0.1-0.7,0.2-1s0.3-0.6,0.6-0.8
					s0.5-0.4,0.8-0.6s0.7-0.2,1-0.2h0.7c0.4,0,0.7,0.1,1,0.2s0.6,0.3,0.8,0.6s0.4,0.5,0.6,0.8s0.2,0.7,0.2,1v2.1H102v2
					c0,0.2,0,0.4,0.1,0.6s0.2,0.4,0.3,0.5s0.3,0.3,0.5,0.3s0.4,0.1,0.6,0.1h0.7c0.2,0,0.4,0,0.6-0.1s0.4-0.2,0.5-0.3
					s0.3-0.3,0.3-0.5s0.1-0.4,0.1-0.6v-0.6l1.1,0.2v0.4C107,23.5,106.9,23.8,106.8,24.1z M105.9,19c0-0.2,0-0.4-0.1-0.6
					c-0.1-0.2-0.2-0.4-0.3-0.5s-0.3-0.3-0.5-0.3s-0.4-0.1-0.6-0.1h-0.7c-0.2,0-0.4,0-0.6,0.1s-0.4,0.2-0.5,0.3s-0.3,0.3-0.3,0.5
					c-0.1,0.2-0.1,0.4-0.1,0.6v1.3h3.8V19z"/>
				<path id="XMLID_281_" d="M114.1,25.6V19c0-0.2,0-0.4-0.1-0.6c-0.1-0.2-0.2-0.4-0.3-0.5s-0.3-0.3-0.5-0.3s-0.4-0.1-0.6-0.1h-0.7
					c-0.2,0-0.4,0-0.6,0.1s-0.4,0.2-0.5,0.3s-0.3,0.3-0.3,0.5c-0.1,0.2-0.1,0.4-0.1,0.6v6.6h-1.1v-9h0.4l0.6,0.9
					c0.2-0.3,0.6-0.6,0.9-0.8s0.8-0.3,1.2-0.3h0.3c0.4,0,0.7,0.1,1,0.2s0.6,0.3,0.8,0.6s0.4,0.5,0.6,0.8s0.2,0.7,0.2,1v6.5H114.1z"
					/>
				<path id="XMLID_279_" d="M120.6,25.6c-0.3,0-0.6-0.1-0.9-0.2s-0.5-0.3-0.8-0.5s-0.4-0.5-0.5-0.8s-0.2-0.6-0.2-0.9v-5.6h-1.6v-1
					h1.6v-2.2l1.1-0.2v2.3h2.3v1h-2.3v5.7c0,0.2,0,0.4,0.1,0.5s0.2,0.3,0.3,0.4s0.3,0.2,0.4,0.3s0.3,0.1,0.5,0.1h1v1H120.6z"/>
				<path id="XMLID_276_" d="M129.4,24.1c-0.1,0.3-0.3,0.6-0.6,0.8s-0.5,0.4-0.8,0.6c-0.3,0.1-0.7,0.2-1,0.2h-0.7
					c-0.4,0-0.7-0.1-1-0.2c-0.3-0.1-0.6-0.3-0.8-0.6s-0.4-0.5-0.6-0.8s-0.2-0.7-0.2-1V19c0-0.4,0.1-0.7,0.2-1s0.3-0.6,0.6-0.8
					s0.5-0.4,0.8-0.6s0.7-0.2,1-0.2h0.7c0.4,0,0.7,0.1,1,0.2s0.6,0.3,0.8,0.6s0.4,0.5,0.6,0.8s0.2,0.7,0.2,1v2.1h-4.9v2
					c0,0.2,0,0.4,0.1,0.6s0.2,0.4,0.3,0.5s0.3,0.3,0.5,0.3s0.4,0.1,0.6,0.1h0.7c0.2,0,0.4,0,0.6-0.1s0.4-0.2,0.5-0.3
					s0.3-0.3,0.3-0.5s0.1-0.4,0.1-0.6v-0.6l1.1,0.2v0.4C129.6,23.5,129.5,23.8,129.4,24.1z M128.5,19c0-0.2,0-0.4-0.1-0.6
					c-0.1-0.2-0.2-0.4-0.3-0.5s-0.3-0.3-0.5-0.3s-0.4-0.1-0.6-0.1h-0.7c-0.2,0-0.4,0-0.6,0.1s-0.4,0.2-0.5,0.3s-0.3,0.3-0.3,0.5
					c-0.1,0.2-0.1,0.4-0.1,0.6v1.3h3.8V19z"/>
				<path id="XMLID_274_" d="M137.9,23.3c0,0.4-0.1,0.7-0.2,1s-0.3,0.6-0.6,0.8s-0.5,0.4-0.9,0.5c-0.3,0.1-0.7,0.2-1,0.2h-0.7
					c-0.4,0-0.7-0.1-1-0.2c-0.3-0.1-0.6-0.3-0.9-0.6s-0.4-0.5-0.6-0.8s-0.2-0.7-0.2-1v-0.4l1.1-0.2v0.6c0,0.2,0,0.4,0.1,0.6
					s0.2,0.4,0.4,0.5s0.3,0.3,0.5,0.3s0.4,0.1,0.6,0.1h0.7c0.2,0,0.4,0,0.6-0.1s0.4-0.2,0.5-0.3s0.3-0.3,0.4-0.4s0.1-0.4,0.1-0.6
					c0-0.3-0.1-0.6-0.2-0.8s-0.3-0.4-0.6-0.5s-0.5-0.3-0.8-0.3c-0.3-0.1-0.6-0.2-0.9-0.3s-0.6-0.2-0.9-0.3s-0.6-0.3-0.8-0.5
					s-0.4-0.4-0.6-0.7s-0.2-0.6-0.2-1.1c0-0.4,0.1-0.7,0.2-1c0.1-0.3,0.3-0.6,0.6-0.8s0.5-0.4,0.8-0.5c0.3-0.1,0.7-0.2,1-0.2h0.6
					c0.4,0,0.7,0.1,1,0.2s0.6,0.3,0.8,0.6s0.4,0.5,0.6,0.8s0.2,0.7,0.2,1v0l-1.1,0.2V19c0-0.2,0-0.4-0.1-0.6
					c-0.1-0.2-0.2-0.4-0.3-0.5s-0.3-0.3-0.5-0.3s-0.4-0.1-0.6-0.1h-0.6c-0.2,0-0.4,0-0.6,0.1s-0.4,0.2-0.5,0.3
					c-0.1,0.1-0.3,0.3-0.3,0.4s-0.1,0.4-0.1,0.6c0,0.3,0.1,0.6,0.2,0.8c0.1,0.2,0.3,0.4,0.6,0.5s0.5,0.2,0.8,0.3s0.6,0.2,0.9,0.3
					c0.3,0.1,0.6,0.2,0.9,0.3s0.6,0.3,0.8,0.5s0.4,0.4,0.6,0.7C137.8,22.5,137.9,22.8,137.9,23.3z"/>
			</g>
		</g>
		<g id="XMLID_143_">
			<g id="XMLID_77_">
				<path id="XMLID_78_" class="st4" d="M34.7,17.7l-2.6-0.6c-0.2-0.3-0.2-0.8-0.5-1.1l1.5-2.1c0.5-0.8,0.3-1.5-0.2-2.1l-1.7-1.7
					c-0.3-0.3-0.8-0.5-1.2-0.5c-0.3,0-0.6,0.2-0.9,0.3l-2.1,1.4c-0.5-0.2-0.8-0.3-1.1-0.5l-0.6-2.4C25.2,7.5,24.6,7,23.7,7h-2.3
					c-0.8,0-1.4,0.5-1.5,1.4l-0.6,2.4c-0.3,0.2-0.8,0.3-1.1,0.5l-2.1-1.4c-0.3-0.2-0.6-0.3-0.9-0.3c-0.5,0-0.9,0.2-1.2,0.5l-1.7,1.7
					c-0.5,0.6-0.6,1.4-0.2,2.1l1.5,2.1c-0.3,0.3-0.5,0.8-0.5,1.1l-2.6,0.6c-0.8,0.2-1.4,0.8-1.4,1.5v2.3c0,0.9,0.6,1.5,1.4,1.7
					l2.6,0.6c0,0.3,0.2,0.6,0.5,1.1l-1.5,2.1c-0.5,0.6-0.3,1.5,0.2,2.1l1.7,1.5c0.3,0.5,0.8,0.6,1.2,0.6c0.3,0,0.6-0.2,0.9-0.3
					l2.1-1.5c0.3,0.2,0.8,0.3,1.1,0.5l0.6,2.6c0.2,0.8,0.8,1.4,1.5,1.4h2.3c0.9,0,1.5-0.6,1.7-1.4L26,30c0.3-0.2,0.6-0.3,1.1-0.5
					l2.1,1.5c0.3,0.1,0.6,0.3,0.9,0.3c0.5,0,0.9-0.2,1.2-0.6l1.7-1.5c0.5-0.6,0.6-1.5,0.2-2.1l-1.5-2.1c0.3-0.5,0.3-0.8,0.5-1.2
					l2.6-0.5c0.8-0.1,1.4-0.8,1.4-1.7v-2.3C36.1,18.5,35.5,17.9,34.7,17.7L34.7,17.7z M25.1,21.4c-0.5,1.1-1.4,1.7-2.4,1.7
					c-0.8,0-1.4-0.3-1.8-0.8c-0.2-0.1-0.3-0.3-0.3-0.3C20.2,21.6,20,21,20,20.5c0-1.5,1.1-2.6,2.6-2.6c0.8,0,1.5,0.3,2,0.8
					c0.5,0.5,0.6,1.1,0.6,1.8C25.2,20.8,25.2,21.1,25.1,21.4L25.1,21.4z M22.6,26.3c3.2,0,5.7-2.4,5.8-5.5c0-0.2,0-0.2,0-0.3
					c0-1.5-0.5-2.8-1.4-3.8c-1.1-1.2-2.6-2.1-4.4-2.1c-3.2,0-6,2.8-6,6c0,1.1,0.5,2.1,0.9,3.1c0.2,0.2,0.2,0.3,0.3,0.5
					C19,25.4,20.7,26.3,22.6,26.3L22.6,26.3z"/>
			</g>
		</g>
	</g>
</g>
<g id="XMLID_2_">
	<g id="XMLID_1049_">
		<path id="XMLID_71_" class="st3" d="M116.6,391.2c-43.4,0-83.7,13.5-116.8,36.5v88.6h233.6v-88.6
			C200.3,404.8,160,391.2,116.6,391.2z"/>
	</g>
	<path id="XMLID_1011_" class="st5" d="M118.7,390.8C72.1,388.7,10.2,411.7,1,415.2c-0.6,0.2-1,0.7-1.1,1.4v11.8
		c0-0.6,0.3-1.2,0.8-1.6c33-22.7,72.9-36,116-36c0.8,0,1.7,0,2.5,0C119,390.9,118.9,390.8,118.7,390.8z"/>
	<path id="XMLID_1008_" class="st5" d="M114.2,390.8c46.6-2.1,108.5,20.8,117.8,24.3c0.6,0.2,1,0.7,1.1,1.4v11.8
		c0-0.6-0.3-1.2-0.8-1.6c-33-22.7-72.9-36-116-36c-0.8,0-1.7,0-2.5,0C113.9,390.9,114.1,390.8,114.2,390.8z"/>
</g>
</svg>
