<?xml version="1.0" encoding="utf-8"?>
<!-- Generator: Adobe Illustrator 19.0.0, SVG Export Plug-In . SVG Version: 6.00 Build 0)  -->
<svg version="1.1" id="Capa_1" xmlns="http://www.w3.org/2000/svg" xmlns:xlink="http://www.w3.org/1999/xlink" x="0px" y="0px"
	 viewBox="-355 251.1 247.6 58.9" style="enable-background:new -355 251.1 247.6 58.9;" xml:space="preserve">
<style type="text/css">
	.st0{opacity:0.5;enable-background:new    ;}
	.st1{fill:#A8A8A8;}
	.st2{fill:#FCB575;stroke:#FFFFFF;stroke-miterlimit:10;}
	.st3{fill:#FFFFFF;}
	.st4{fill:#1D1D1B;}
	.st5{fill:#FF0000;stroke:#1D1D1B;stroke-miterlimit:10;}
	.st6{fill:#3B86B1;stroke:#1D1D1B;stroke-miterlimit:10;}
	.st7{fill:#3B86B1;}
</style>
<g id="XMLID_98_">
	<polygon id="XMLID_83_" class="st0" points="-120.8,299.4 -355,291.9 -120.8,291.3 	"/>
	<g id="XMLID_61_">
		<g id="XMLID_119_">
			<polygon id="XMLID_130_" class="st1" points="-121.4,309.6 -107.4,291.9 -117.8,271.8 -121.4,271.8 			"/>
		</g>
	</g>
	<g id="XMLID_52_">
		<rect id="XMLID_75_" x="-354.5" y="252" class="st2" width="246.6" height="39.4"/>
		<path id="XMLID_72_" class="st3" d="M-108.4,252.5v38.4H-354v-38.4H-108.4 M-107.4,251.5H-355v40.4h247.6L-107.4,251.5
			L-107.4,251.5z"/>
	</g>
	<g id="XMLID_2_">
		<g id="XMLID_341_">
			<path id="XMLID_375_" class="st4" d="M-303.9,275.8c-0.2,0.4-0.4,0.7-0.7,1c-0.3,0.3-0.6,0.5-1,0.7s-0.8,0.2-1.2,0.2h-0.9
				c-0.4,0-0.8-0.1-1.2-0.2c-0.4-0.2-0.7-0.4-1-0.7c-0.3-0.3-0.5-0.6-0.7-1s-0.2-0.8-0.2-1.2v-6.8c0-0.4,0.1-0.8,0.2-1.2
				s0.4-0.7,0.7-1c0.3-0.3,0.6-0.5,1-0.7s0.8-0.2,1.2-0.2h0.9c0.4,0,0.8,0.1,1.2,0.2s0.7,0.4,1,0.7c0.3,0.3,0.5,0.6,0.7,1
				s0.2,0.8,0.2,1.2v0.5l-1.1,0.2v-0.7c0-0.3-0.1-0.5-0.2-0.8c-0.1-0.2-0.2-0.5-0.4-0.6c-0.2-0.1-0.4-0.3-0.6-0.4s-0.5-0.2-0.8-0.2
				h-0.8c-0.3,0-0.5,0.1-0.8,0.2s-0.5,0.2-0.6,0.4c-0.1,0.2-0.3,0.4-0.4,0.6s-0.2,0.5-0.2,0.8v6.8c0,0.3,0.1,0.5,0.2,0.8
				s0.3,0.5,0.4,0.6c0.2,0.2,0.4,0.3,0.6,0.4s0.5,0.2,0.8,0.2h0.8c0.3,0,0.5-0.1,0.8-0.2s0.5-0.3,0.6-0.4c0.2-0.2,0.3-0.4,0.4-0.6
				s0.2-0.5,0.2-0.8v-0.7l1.1,0.2v0.5C-303.7,275-303.7,275.4-303.9,275.8z"/>
			<path id="XMLID_373_" class="st4" d="M-301.1,277.5v-12.6h1.1v12.6H-301.1z"/>
			<path id="XMLID_370_" class="st4" d="M-291.9,277.5l-0.6-0.9c-0.2,0.3-0.6,0.6-0.9,0.8c-0.4,0.2-0.8,0.3-1.2,0.3h-0.3
				c-0.4,0-0.7-0.1-1-0.2s-0.6-0.3-0.8-0.6c-0.2-0.3-0.4-0.5-0.6-0.8s-0.2-0.7-0.2-1v-0.1c0-0.4,0.1-0.7,0.2-1s0.3-0.6,0.6-0.8
				c0.3-0.2,0.5-0.4,0.8-0.6s0.7-0.2,1-0.2h2.3v-1.4c0-0.2,0-0.4-0.1-0.6s-0.2-0.4-0.3-0.5s-0.3-0.3-0.5-0.3s-0.4-0.1-0.6-0.1h-0.6
				c-0.2,0-0.4,0-0.6,0.1s-0.4,0.2-0.5,0.3c-0.1,0.1-0.3,0.3-0.3,0.5c-0.1,0.2-0.1,0.4-0.1,0.6v0.3l-1.1-0.2v-0.1
				c0-0.4,0.1-0.7,0.2-1s0.3-0.6,0.6-0.8c0.3-0.2,0.5-0.4,0.8-0.6s0.7-0.2,1-0.2h0.6c0.4,0,0.7,0.1,1,0.2s0.6,0.3,0.8,0.6
				c0.2,0.3,0.4,0.5,0.6,0.8s0.2,0.7,0.2,1v6.5L-291.9,277.5L-291.9,277.5z M-292.6,273.1h-2.3c-0.2,0-0.4,0-0.6,0.1
				s-0.3,0.2-0.5,0.3c-0.1,0.1-0.3,0.3-0.3,0.5s-0.1,0.4-0.1,0.6v0.4c0,0.2,0,0.4,0.1,0.6s0.2,0.4,0.3,0.5c0.1,0.1,0.3,0.3,0.5,0.3
				s0.4,0.1,0.6,0.1h0.7c0.2,0,0.4,0,0.6-0.1s0.4-0.2,0.5-0.3c0.1-0.1,0.3-0.3,0.3-0.5s0.1-0.4,0.1-0.6L-292.6,273.1L-292.6,273.1z"
				/>
			<path id="XMLID_368_" class="st4" d="M-283.2,275.3c0,0.4-0.1,0.7-0.2,1s-0.3,0.6-0.6,0.8c-0.3,0.2-0.5,0.4-0.9,0.5
				c-0.3,0.1-0.7,0.2-1,0.2h-0.7c-0.4,0-0.7-0.1-1-0.2s-0.6-0.3-0.9-0.6c-0.3-0.3-0.4-0.5-0.6-0.8s-0.2-0.7-0.2-1v-0.4l1.1-0.2v0.6
				c0,0.2,0,0.4,0.1,0.6s0.2,0.4,0.4,0.5c0.2,0.1,0.3,0.3,0.5,0.3s0.4,0.1,0.6,0.1h0.7c0.2,0,0.4,0,0.6-0.1s0.4-0.2,0.5-0.3
				c0.1-0.1,0.3-0.3,0.4-0.4s0.1-0.4,0.1-0.6c0-0.3-0.1-0.6-0.2-0.8c-0.1-0.2-0.3-0.4-0.6-0.5c-0.3-0.1-0.5-0.3-0.8-0.3
				c-0.3-0.1-0.6-0.2-0.9-0.3c-0.3-0.1-0.6-0.2-0.9-0.3c-0.3-0.1-0.6-0.3-0.8-0.5s-0.4-0.4-0.6-0.7c-0.2-0.3-0.2-0.6-0.2-1.1
				c0-0.4,0.1-0.7,0.2-1s0.3-0.6,0.6-0.8c0.3-0.2,0.5-0.4,0.8-0.5s0.7-0.2,1-0.2h0.6c0.4,0,0.7,0.1,1,0.2s0.6,0.3,0.8,0.6
				c0.2,0.3,0.4,0.5,0.6,0.8s0.2,0.7,0.2,1l0,0l-1.1,0.2v-0.3c0-0.2,0-0.4-0.1-0.6s-0.2-0.4-0.3-0.5s-0.3-0.3-0.5-0.3
				s-0.4-0.1-0.6-0.1h-0.6c-0.2,0-0.4,0-0.6,0.1s-0.4,0.2-0.5,0.3c-0.1,0.1-0.3,0.3-0.3,0.4s-0.1,0.4-0.1,0.6c0,0.3,0.1,0.6,0.2,0.8
				c0.1,0.2,0.3,0.4,0.6,0.5c0.3,0.1,0.5,0.2,0.8,0.3c0.3,0.1,0.6,0.2,0.9,0.3c0.3,0.1,0.6,0.2,0.9,0.3c0.3,0.1,0.6,0.3,0.8,0.5
				c0.2,0.2,0.4,0.4,0.6,0.7C-283.2,274.5-283.2,274.8-283.2,275.3z"/>
			<path id="XMLID_365_" class="st4" d="M-280.8,266.4V265h1.3v1.4H-280.8z M-280.7,277.5v-9h1.1v9H-280.7z"/>
			<path id="XMLID_363_" class="st4" d="M-274,266c-0.2,0-0.4,0-0.5,0.1c-0.2,0.1-0.3,0.2-0.4,0.3s-0.2,0.3-0.3,0.4
				c-0.1,0.1-0.1,0.3-0.1,0.5v1.2h2.1v1h-2.1v8h-1.1v-8h-1.6v-1h1.6v-1.2c0-0.3,0.1-0.6,0.2-0.9s0.3-0.5,0.5-0.8s0.5-0.4,0.8-0.5
				s0.6-0.2,0.9-0.2h1v1h-1V266z"/>
			<path id="XMLID_360_" class="st4" d="M-271.7,266.4V265h1.3v1.4H-271.7z M-271.6,277.5v-9h1.1v9H-271.6z"/>
			<path id="XMLID_358_" class="st4" d="M-262.2,276.1c-0.1,0.3-0.3,0.6-0.6,0.8c-0.3,0.2-0.5,0.4-0.8,0.6c-0.3,0.1-0.7,0.2-1,0.2
				h-0.7c-0.4,0-0.7-0.1-1-0.2s-0.6-0.3-0.8-0.6c-0.2-0.3-0.4-0.5-0.6-0.8s-0.2-0.7-0.2-1V271c0-0.4,0.1-0.7,0.2-1s0.3-0.6,0.6-0.8
				c0.3-0.2,0.5-0.4,0.8-0.6s0.7-0.2,1-0.2h0.7c0.4,0,0.7,0.1,1,0.2s0.6,0.3,0.8,0.6c0.2,0.3,0.4,0.5,0.6,0.8s0.2,0.7,0.2,1v0.4
				l-1.1,0.1v-0.6c0-0.2,0-0.4-0.1-0.6s-0.2-0.4-0.3-0.5c-0.1-0.1-0.3-0.2-0.5-0.3s-0.4-0.1-0.6-0.1h-0.7c-0.2,0-0.4,0-0.6,0.1
				s-0.4,0.2-0.5,0.3c-0.1,0.1-0.3,0.3-0.3,0.5c-0.1,0.2-0.1,0.4-0.1,0.6v4.2c0,0.2,0,0.4,0.1,0.6s0.2,0.4,0.3,0.5
				c0.1,0.1,0.3,0.3,0.5,0.3s0.4,0.1,0.6,0.1h0.7c0.2,0,0.4,0,0.6-0.1s0.4-0.2,0.5-0.3c0.1-0.1,0.3-0.3,0.3-0.5s0.1-0.4,0.1-0.6
				v-0.6l1.1,0.2v0.4C-262,275.4-262.1,275.8-262.2,276.1z"/>
			<path id="XMLID_355_" class="st4" d="M-254.2,277.5l-0.6-0.9c-0.2,0.3-0.6,0.6-0.9,0.8c-0.4,0.2-0.8,0.3-1.2,0.3h-0.3
				c-0.4,0-0.7-0.1-1-0.2s-0.6-0.3-0.8-0.6c-0.2-0.3-0.4-0.5-0.6-0.8s-0.2-0.7-0.2-1v-0.1c0-0.4,0.1-0.7,0.2-1s0.3-0.6,0.6-0.8
				c0.3-0.2,0.5-0.4,0.8-0.6s0.7-0.2,1-0.2h2.3v-1.4c0-0.2,0-0.4-0.1-0.6s-0.2-0.4-0.3-0.5s-0.3-0.3-0.5-0.3s-0.4-0.1-0.6-0.1h-0.6
				c-0.2,0-0.4,0-0.6,0.1s-0.4,0.2-0.5,0.3c-0.1,0.1-0.3,0.3-0.3,0.5c-0.1,0.2-0.1,0.4-0.1,0.6v0.3l-1.1-0.2v-0.1
				c0-0.4,0.1-0.7,0.2-1s0.3-0.6,0.6-0.8c0.3-0.2,0.5-0.4,0.8-0.6s0.7-0.2,1-0.2h0.6c0.4,0,0.7,0.1,1,0.2s0.6,0.3,0.8,0.6
				c0.2,0.3,0.4,0.5,0.6,0.8c0.2,0.3,0.2,0.7,0.2,1v6.5L-254.2,277.5L-254.2,277.5z M-254.9,273.1h-2.3c-0.2,0-0.4,0-0.6,0.1
				s-0.4,0.2-0.5,0.3c-0.1,0.1-0.3,0.3-0.3,0.5s-0.1,0.4-0.1,0.6v0.4c0,0.2,0,0.4,0.1,0.6s0.2,0.4,0.3,0.5c0.1,0.1,0.3,0.3,0.5,0.3
				s0.4,0.1,0.6,0.1h0.7c0.2,0,0.4,0,0.6-0.1s0.4-0.2,0.5-0.3c0.1-0.1,0.3-0.3,0.3-0.5s0.1-0.4,0.1-0.6L-254.9,273.1L-254.9,273.1z"
				/>
			<path id="XMLID_353_" class="st4" d="M-245.8,276.1c-0.1,0.3-0.3,0.6-0.6,0.8c-0.3,0.2-0.5,0.4-0.8,0.6c-0.3,0.1-0.7,0.2-1,0.2
				h-0.8c-0.4,0-0.7-0.1-1-0.2s-0.6-0.3-0.8-0.6c-0.2-0.3-0.4-0.5-0.6-0.8c-0.2-0.3-0.2-0.7-0.2-1V271c0-0.4,0.1-0.7,0.2-1
				c0.1-0.3,0.3-0.6,0.6-0.8c0.3-0.2,0.5-0.4,0.8-0.6s0.7-0.2,1-0.2h0.7c0.4,0,0.7,0.1,1,0.2s0.6,0.3,0.8,0.6
				c0.2,0.3,0.4,0.5,0.6,0.8c0.2,0.3,0.2,0.7,0.2,1v0.4l-1.1,0.2V271c0-0.2,0-0.4-0.1-0.6s-0.2-0.4-0.3-0.5s-0.3-0.3-0.5-0.3
				s-0.4-0.1-0.6-0.1h-0.7c-0.2,0-0.4,0-0.6,0.1c-0.2,0.1-0.4,0.2-0.5,0.3c-0.1,0.1-0.3,0.3-0.3,0.5c-0.1,0.2-0.1,0.4-0.1,0.6v4.2
				c0,0.2,0,0.4,0.1,0.6s0.2,0.4,0.3,0.5s0.3,0.3,0.5,0.3s0.4,0.1,0.6,0.1h0.7c0.2,0,0.4,0,0.6-0.1c0.2-0.1,0.4-0.2,0.5-0.3
				c0.1-0.1,0.3-0.3,0.3-0.5s0.1-0.4,0.1-0.6v-0.7l1.1,0.2v0.4C-245.6,275.4-245.7,275.8-245.8,276.1z"/>
			<path id="XMLID_350_" class="st4" d="M-243.2,266.4V265h1.3v1.4H-243.2z M-243.1,277.5v-9h1.1v9H-243.1z"/>
			<path id="XMLID_345_" class="st4" d="M-233.7,276.1c-0.1,0.3-0.3,0.6-0.6,0.8c-0.3,0.2-0.5,0.4-0.8,0.6c-0.3,0.1-0.7,0.2-1,0.2
				h-0.7c-0.4,0-0.7-0.1-1-0.2s-0.6-0.3-0.8-0.6c-0.2-0.3-0.4-0.5-0.6-0.8c-0.2-0.3-0.2-0.7-0.2-1V271c0-0.4,0.1-0.7,0.2-1
				s0.3-0.6,0.6-0.8c0.3-0.2,0.5-0.4,0.8-0.6s0.7-0.2,1-0.2h0.7c0.4,0,0.7,0.1,1,0.2s0.6,0.3,0.8,0.6c0.2,0.3,0.4,0.5,0.6,0.8
				s0.2,0.7,0.2,1v4.1C-233.5,275.4-233.6,275.8-233.7,276.1z M-234.6,270.9c0-0.2,0-0.4-0.1-0.6s-0.2-0.4-0.3-0.5s-0.3-0.3-0.5-0.3
				s-0.4-0.1-0.6-0.1h-0.7c-0.2,0-0.4,0-0.6,0.1s-0.4,0.2-0.5,0.3c-0.1,0.1-0.3,0.3-0.3,0.5c-0.1,0.2-0.1,0.4-0.1,0.6v4.2
				c0,0.2,0,0.4,0.1,0.6s0.2,0.4,0.3,0.5s0.3,0.3,0.5,0.3s0.4,0.1,0.6,0.1h0.7c0.2,0,0.4,0,0.6-0.1s0.4-0.2,0.5-0.3
				c0.1-0.1,0.3-0.3,0.3-0.5s0.1-0.4,0.1-0.6V270.9z M-237,267.1h-0.8l1.4-2.2h1.8L-237,267.1z"/>
			<path id="XMLID_342_" class="st4" d="M-226.4,277.5v-6.6c0-0.2,0-0.4-0.1-0.6s-0.2-0.4-0.3-0.5s-0.3-0.3-0.5-0.3
				s-0.4-0.1-0.6-0.1h-0.7c-0.2,0-0.4,0-0.6,0.1s-0.4,0.2-0.5,0.3c-0.1,0.1-0.3,0.3-0.3,0.5c-0.1,0.2-0.1,0.4-0.1,0.6v6.6h-1.1v-9
				h0.4l0.6,0.9c0.2-0.3,0.6-0.6,0.9-0.8c0.3-0.2,0.8-0.3,1.2-0.3h0.3c0.4,0,0.7,0.1,1,0.2s0.6,0.3,0.8,0.6c0.2,0.3,0.4,0.5,0.6,0.8
				c0.2,0.3,0.2,0.7,0.2,1v6.6L-226.4,277.5L-226.4,277.5z"/>
		</g>
	</g>
	<g id="XMLID_242_">
		<circle id="XMLID_267_" class="st5" cx="-334.7" cy="272.1" r="4.7"/>
		<circle id="XMLID_264_" class="st6" cx="-334.7" cy="261.6" r="3"/>
		<circle id="XMLID_261_" class="st6" cx="-327.3" cy="264.8" r="3"/>
		<circle id="XMLID_258_" class="st6" cx="-324.2" cy="272.1" r="3"/>
		<circle id="XMLID_255_" class="st6" cx="-327.3" cy="279.6" r="3"/>
		<circle id="XMLID_252_" class="st6" cx="-334.7" cy="282.6" r="3"/>
		<circle id="XMLID_249_" class="st6" cx="-342.1" cy="279.6" r="3"/>
		<circle id="XMLID_246_" class="st6" cx="-345.2" cy="272.1" r="3"/>
		<circle id="XMLID_243_" class="st6" cx="-342.1" cy="264.8" r="3"/>
	</g>
</g>
<path class="st7" d="M-316.8,351.4c-7.9,0-15.9,0-23.8,0"/>
</svg>
