<?xml version="1.0" encoding="utf-8"?>
<!-- Generator: Adobe Illustrator 19.0.0, SVG Export Plug-In . SVG Version: 6.00 Build 0)  -->
<svg version="1.1" id="Capa_1" xmlns="http://www.w3.org/2000/svg" xmlns:xlink="http://www.w3.org/1999/xlink" x="0px" y="0px"
	 viewBox="-354 251.2 249.6 58.8" style="enable-background:new -354 251.2 249.6 58.8;" xml:space="preserve">
<style type="text/css">
	.st0{opacity:0.5;enable-background:new    ;}
	.st1{fill:#A8A8A8;}
	.st2{fill:#FFFFFF;}
	.st3{fill:#FFFFFF;stroke:#000000;stroke-miterlimit:10;}
	.st4{fill:#3B86B1;}
	.st5{opacity:0.5;fill:#2C6882;enable-background:new    ;}
</style>
<g id="XMLID_9_">
	<g id="XMLID_56_">
		<polygon id="XMLID_128_" class="st0" points="-117.8,299.8 -352.4,292.6 -117.8,291.6 		"/>
		<g id="XMLID_123_">
			<g id="XMLID_125_">
				<polygon id="XMLID_126_" class="st1" points="-118.4,309.7 -104.4,292 -114.8,271.8 -118.4,271.8 				"/>
			</g>
		</g>
		<g id="XMLID_120_">
			<rect id="XMLID_122_" x="-352" y="251.8" class="st2" width="247.6" height="40.4"/>
		</g>
	</g>
	<rect id="XMLID_321_" x="-354" y="251.2" class="st2" width="249.6" height="40.4"/>
	<g id="XMLID_1_">
		<g id="XMLID_270_">
			<path id="XMLID_297_" d="M-300.7,276.6c-0.2,0.4-0.4,0.7-0.7,1c-0.3,0.3-0.6,0.5-1,0.7c-0.4,0.2-0.8,0.2-1.2,0.2h-4v-12.6h4
				c0.4,0,0.8,0.1,1.2,0.2c0.4,0.1,0.7,0.4,1,0.7c0.3,0.3,0.5,0.6,0.7,1c0.2,0.4,0.2,0.8,0.2,1.2v6.4
				C-300.5,275.8-300.5,276.2-300.7,276.6z M-301.6,269c0-0.3-0.1-0.5-0.2-0.8c-0.1-0.3-0.3-0.5-0.4-0.6c-0.2-0.2-0.4-0.3-0.6-0.4
				c-0.2-0.1-0.5-0.2-0.8-0.2h-2.8v10.4h2.8c0.3,0,0.5-0.1,0.8-0.2c0.3-0.1,0.5-0.2,0.6-0.4c0.1-0.2,0.3-0.4,0.4-0.6
				c0.1-0.2,0.2-0.5,0.2-0.8V269z"/>
			<path id="XMLID_294_" d="M-292.3,277.1c-0.1,0.3-0.3,0.6-0.6,0.8c-0.3,0.2-0.5,0.4-0.8,0.6c-0.3,0.1-0.7,0.2-1,0.2h-0.7
				c-0.4,0-0.7-0.1-1-0.2c-0.3-0.1-0.6-0.3-0.8-0.6c-0.2-0.3-0.4-0.5-0.6-0.8c-0.2-0.3-0.2-0.7-0.2-1V272c0-0.4,0.1-0.7,0.2-1
				s0.3-0.6,0.6-0.8c0.3-0.2,0.5-0.4,0.8-0.6c0.3-0.2,0.7-0.2,1-0.2h0.7c0.4,0,0.7,0.1,1,0.2c0.3,0.1,0.6,0.3,0.8,0.6
				c0.2,0.3,0.4,0.5,0.6,0.8c0.2,0.3,0.2,0.7,0.2,1v2.1h-4.9v2c0,0.2,0,0.4,0.1,0.6c0.1,0.2,0.2,0.4,0.3,0.5
				c0.1,0.1,0.3,0.3,0.5,0.3c0.2,0,0.4,0.1,0.6,0.1h0.7c0.2,0,0.4,0,0.6-0.1c0.2-0.1,0.4-0.2,0.5-0.3c0.1-0.1,0.3-0.3,0.3-0.5
				c0-0.2,0.1-0.4,0.1-0.6v-0.6l1.1,0.2v0.4C-292.1,276.4-292.2,276.7-292.3,277.1z M-293.2,271.9c0-0.2,0-0.4-0.1-0.6
				c-0.1-0.2-0.2-0.4-0.3-0.5c-0.1-0.1-0.3-0.3-0.5-0.3c-0.2,0-0.4-0.1-0.6-0.1h-0.7c-0.2,0-0.4,0-0.6,0.1c-0.2,0.1-0.4,0.2-0.5,0.3
				c-0.1,0.1-0.3,0.3-0.3,0.5c-0.2,0.2-0.2,0.4-0.2,0.6v1.3h3.8V271.9z"/>
			<path id="XMLID_291_" d="M-286.9,266.9c-0.2,0-0.4,0-0.5,0.1c-0.2,0.1-0.3,0.2-0.4,0.3c-0.1,0.1-0.2,0.3-0.3,0.4
				c-0.1,0.1-0.1,0.3-0.1,0.5v1.3h2.1v1h-2.1v8h-1.1v-8h-1.6v-1h1.6v-1.2c0-0.3,0.1-0.6,0.2-0.9s0.3-0.5,0.5-0.8
				c0.2-0.3,0.5-0.4,0.8-0.5c0.3-0.1,0.6-0.2,0.9-0.2h1v1C-285.9,266.9-286.9,266.9-286.9,266.9z"/>
			<path id="XMLID_288_" d="M-284.5,267.3v-1.4h1.3v1.4H-284.5z M-284.4,278.5v-9h1.1v9H-284.4z"/>
			<path id="XMLID_286_" d="M-275.9,278.5v-6.6c0-0.2,0-0.4-0.1-0.6c-0.1-0.2-0.2-0.4-0.3-0.5c-0.1-0.1-0.3-0.3-0.5-0.3
				c-0.2,0-0.4-0.1-0.6-0.1h-0.7c-0.2,0-0.4,0-0.6,0.1c-0.2,0.1-0.4,0.2-0.5,0.3c-0.1,0.1-0.3,0.3-0.3,0.5c-0.1,0.2-0.1,0.4-0.1,0.6
				v6.6h-1.1v-9h0.4l0.6,0.9c0.2-0.3,0.6-0.6,0.9-0.8c0.3-0.2,0.8-0.3,1.2-0.3h0.3c0.4,0,0.7,0.1,1,0.2c0.3,0.1,0.6,0.3,0.8,0.6
				c0.2,0.3,0.4,0.5,0.6,0.8c0.2,0.3,0.2,0.7,0.2,1v6.5h-1.2V278.5z"/>
			<path id="XMLID_283_" d="M-272.4,267.3v-1.4h1.3v1.4H-272.4z M-272.3,278.5v-9h1.1v9H-272.3z"/>
			<path id="XMLID_280_" d="M-262.9,277.1c-0.1,0.3-0.3,0.6-0.6,0.8c-0.3,0.2-0.5,0.4-0.8,0.6c-0.3,0.1-0.7,0.2-1,0.2h-0.7
				c-0.4,0-0.7-0.1-1-0.2s-0.6-0.3-0.8-0.6c-0.2-0.3-0.4-0.5-0.6-0.8c-0.2-0.3-0.2-0.7-0.2-1V272c0-0.4,0.1-0.7,0.2-1
				s0.3-0.6,0.6-0.8c0.3-0.2,0.5-0.4,0.8-0.6c0.3-0.2,0.7-0.2,1-0.2h0.7c0.4,0,0.7,0.1,1,0.2c0.3,0.1,0.6,0.3,0.8,0.6
				c0.2,0.3,0.4,0.5,0.6,0.8c0.2,0.3,0.2,0.7,0.2,1v0.4l-1.1,0.2V272c0-0.2,0-0.4-0.1-0.6s-0.2-0.4-0.3-0.5s-0.3-0.3-0.5-0.3
				c-0.2,0-0.4-0.1-0.6-0.1h-0.7c-0.2,0-0.4,0-0.6,0.1c-0.2,0.1-0.4,0.2-0.5,0.3s-0.3,0.3-0.3,0.5c-0.1,0.2-0.1,0.4-0.1,0.6v4.2
				c0,0.2,0,0.4,0.1,0.6c0.1,0.2,0.2,0.4,0.3,0.5c0.1,0.1,0.3,0.3,0.5,0.3c0.2,0,0.4,0.1,0.6,0.1h0.7c0.2,0,0.4,0,0.6-0.1
				c0.2-0.1,0.4-0.2,0.5-0.3c0.1-0.1,0.3-0.3,0.3-0.5c0-0.2,0.1-0.4,0.1-0.6v-0.6l1.1,0.2v0.4C-262.7,276.4-262.7,276.7-262.9,277.1
				z"/>
			<path id="XMLID_277_" d="M-260.2,267.3v-1.4h1.2v1.4H-260.2z M-260.2,278.5v-9h1.1v9H-260.2z"/>
			<path id="XMLID_273_" d="M-250.7,277.1c-0.1,0.3-0.3,0.6-0.6,0.8c-0.3,0.2-0.5,0.4-0.8,0.6c-0.3,0.1-0.7,0.2-1,0.2h-0.7
				c-0.4,0-0.7-0.1-1-0.2c-0.3-0.1-0.6-0.3-0.8-0.6c-0.2-0.3-0.4-0.5-0.6-0.8c-0.2-0.3-0.2-0.7-0.2-1V272c0-0.4,0.1-0.7,0.2-1
				c0.1-0.3,0.3-0.6,0.6-0.8c0.3-0.2,0.5-0.4,0.8-0.6c0.3-0.2,0.7-0.2,1-0.2h0.7c0.4,0,0.7,0.1,1,0.2c0.3,0.1,0.6,0.3,0.8,0.6
				c0.2,0.3,0.4,0.5,0.6,0.8s0.2,0.7,0.2,1v4.1C-250.5,276.4-250.6,276.7-250.7,277.1z M-251.6,271.9c0-0.2,0-0.4-0.1-0.6
				c-0.1-0.2-0.2-0.4-0.3-0.5c-0.1-0.1-0.3-0.3-0.5-0.3s-0.4-0.1-0.6-0.1h-0.7c-0.2,0-0.4,0-0.6,0.1s-0.4,0.2-0.5,0.3
				c-0.1,0.1-0.3,0.3-0.3,0.5c-0.1,0.2-0.1,0.4-0.1,0.6v4.2c0,0.2,0,0.4,0.1,0.6c0.1,0.2,0.2,0.4,0.3,0.5c0.1,0.1,0.3,0.3,0.5,0.3
				s0.4,0.1,0.6,0.1h0.7c0.2,0,0.4,0,0.6-0.1s0.4-0.2,0.5-0.3c0.1-0.1,0.3-0.3,0.3-0.5c0-0.2,0.1-0.4,0.1-0.6V271.9z M-254,268.1
				h-0.8l1.4-2.2h1.8L-254,268.1z"/>
			<path id="XMLID_271_" d="M-243.4,278.5v-6.6c0-0.2,0-0.4-0.1-0.6c-0.1-0.2-0.2-0.4-0.3-0.5s-0.3-0.3-0.5-0.3s-0.4-0.1-0.6-0.1
				h-0.7c-0.2,0-0.4,0-0.6,0.1s-0.4,0.2-0.5,0.3c-0.1,0.1-0.3,0.3-0.3,0.5c-0.1,0.2-0.1,0.4-0.1,0.6v6.6h-1.1v-9h0.4l0.6,0.9
				c0.2-0.3,0.6-0.6,0.9-0.8c0.3-0.2,0.8-0.3,1.2-0.3h0.3c0.4,0,0.7,0.1,1,0.2c0.3,0.1,0.6,0.3,0.8,0.6c0.2,0.3,0.4,0.5,0.6,0.8
				c0.2,0.3,0.2,0.7,0.2,1v6.5h-1.2V278.5z"/>
		</g>
	</g>
	<g id="XMLID_37_">
		<rect id="XMLID_63_" x="-344.6" y="263.4" class="st3" width="26" height="17.5"/>
		<rect id="XMLID_62_" x="-342.8" y="267.4" class="st4" width="4.2" height="4"/>
		<rect id="XMLID_58_" x="-342.8" y="273.9" class="st4" width="4.2" height="4"/>
		<rect id="XMLID_53_" x="-335.8" y="267.4" class="st4" width="14.2" height="10.5"/>
	</g>
</g>
<g id="XMLID_8_">
	<g id="XMLID_1049_">
		<path id="XMLID_71_" class="st2" d="M-235.4,729.9c-43.4,0-83.7,13.5-116.8,36.5V855h233.6v-88.6
			C-151.7,743.4-192,729.9-235.4,729.9z"/>
	</g>
	<path id="XMLID_1011_" class="st5" d="M-233.3,729.5c-46.6-2.1-108.5,20.8-117.7,24.3c-0.6,0.2-1,0.7-1.1,1.4V767
		c0-0.6,0.3-1.2,0.8-1.6c33-22.7,72.9-36,116-36c0.8,0,1.7,0,2.5,0C-233,729.5-233.1,729.5-233.3,729.5z"/>
	<path id="XMLID_1008_" class="st5" d="M-237.8,729.5c46.6-2.1,108.5,20.8,117.8,24.3c0.6,0.2,1,0.7,1.1,1.4V767
		c0-0.6-0.3-1.2-0.8-1.6c-33-22.7-72.9-36-116-36c-0.8,0-1.7,0-2.5,0C-238.1,729.5-237.9,729.5-237.8,729.5z"/>
</g>
</svg>
