<?xml version="1.0" encoding="utf-8"?>
<!-- Generator: Adobe Illustrator 19.0.0, SVG Export Plug-In . SVG Version: 6.00 Build 0)  -->
<svg version="1.1" id="Capa_1" xmlns="http://www.w3.org/2000/svg" xmlns:xlink="http://www.w3.org/1999/xlink" x="0px" y="0px"
	 viewBox="-355 251.8 248.1 58.2" style="enable-background:new -355 251.8 248.1 58.2;" xml:space="preserve">
<style type="text/css">
	.st0{opacity:0.5;enable-background:new    ;}
	.st1{fill:#A8A8A8;}
	.st2{fill:#FCB575;}
	.st3{fill:#FFFFFF;}
	.st4{enable-background:new    ;}
	.st5{fill:#1D1D1B;}
</style>
<g id="XMLID_1_">
	<polygon id="XMLID_95_" class="st0" points="-120.4,299.7 -355,291.6 -120.4,291.6 	"/>
	<g id="XMLID_90_">
		<g id="XMLID_29_">
			<polygon id="XMLID_30_" class="st1" points="-121,310 -106.9,292.2 -117.4,272.1 -121,272.1 			"/>
		</g>
	</g>
	<g id="XMLID_87_">
		<rect id="XMLID_28_" x="-354.1" y="252.3" class="st2" width="246.6" height="39.4"/>
		<path id="XMLID_22_" class="st3" d="M-107.9,252.8v38.4h-245.7v-38.4L-107.9,252.8 M-106.9,251.8h-247.7v40.4H-107L-106.9,251.8
			L-106.9,251.8L-106.9,251.8z"/>
	</g>
	<g id="XMLID_971_">
		<g class="st4">
			<path class="st5" d="M-303.2,275.8c0,0.4-0.1,0.8-0.3,1.2s-0.4,0.7-0.7,1s-0.6,0.5-1,0.7s-0.8,0.2-1.2,0.2h-0.9
				c-0.4,0-0.8-0.1-1.2-0.2c-0.4-0.2-0.7-0.4-1-0.7s-0.5-0.6-0.7-1s-0.3-0.8-0.3-1.2v-0.5l1.1-0.2v0.7c0,0.3,0.1,0.5,0.2,0.8
				s0.3,0.5,0.5,0.6c0.2,0.2,0.4,0.3,0.7,0.4s0.5,0.2,0.8,0.2h0.8c0.3,0,0.5-0.1,0.8-0.2s0.5-0.3,0.7-0.4c0.2-0.2,0.3-0.4,0.5-0.6
				s0.2-0.5,0.2-0.8v-0.4c0-0.4-0.1-0.8-0.3-1.1s-0.4-0.5-0.7-0.7c-0.3-0.2-0.6-0.4-1-0.5s-0.7-0.3-1.1-0.4s-0.7-0.3-1.1-0.5
				s-0.7-0.4-1-0.6c-0.3-0.3-0.5-0.6-0.7-0.9s-0.3-0.8-0.3-1.4V269c0-0.4,0.1-0.8,0.2-1.2s0.4-0.7,0.7-1s0.6-0.5,1-0.7
				s0.8-0.2,1.2-0.2h0.8c0.4,0,0.8,0.1,1.2,0.2s0.7,0.4,1,0.7s0.5,0.6,0.7,1s0.2,0.8,0.2,1.2v0.3l-1.1,0.2V269
				c0-0.3-0.1-0.5-0.2-0.8c-0.1-0.2-0.2-0.5-0.4-0.6s-0.4-0.3-0.6-0.4s-0.5-0.2-0.8-0.2h-0.7c-0.3,0-0.5,0.1-0.8,0.2
				s-0.5,0.2-0.6,0.4s-0.3,0.4-0.4,0.6s-0.2,0.5-0.2,0.8v0.2c0,0.4,0.1,0.7,0.3,1s0.4,0.5,0.7,0.7s0.6,0.4,1,0.5s0.7,0.3,1.1,0.4
				s0.7,0.3,1.1,0.5s0.7,0.4,1,0.7c0.3,0.3,0.5,0.6,0.7,1s0.3,0.8,0.3,1.4v0.4H-303.2z"/>
			<path class="st5" d="M-301.3,278.7v-1.4h1.4v1.4H-301.3z"/>
			<path class="st5" d="M-290.6,277c-0.2,0.4-0.4,0.7-0.7,1s-0.6,0.5-1,0.7s-0.8,0.2-1.2,0.2h-0.9c-0.4,0-0.8-0.1-1.2-0.2
				c-0.4-0.2-0.7-0.4-1-0.7s-0.5-0.6-0.7-1s-0.2-0.8-0.2-1.2V269c0-0.4,0.1-0.8,0.2-1.2s0.4-0.7,0.7-1s0.6-0.5,1-0.7
				s0.8-0.2,1.2-0.2h0.9c0.4,0,0.8,0.1,1.2,0.2s0.7,0.4,1,0.7s0.5,0.6,0.7,1s0.2,0.8,0.2,1.2v6.8
				C-290.3,276.2-290.4,276.6-290.6,277z M-291.5,269c0-0.3-0.1-0.5-0.2-0.8c-0.1-0.2-0.2-0.5-0.4-0.6s-0.4-0.3-0.6-0.4
				s-0.5-0.2-0.8-0.2h-0.8c-0.3,0-0.5,0.1-0.8,0.2s-0.5,0.2-0.6,0.4s-0.3,0.4-0.4,0.6s-0.2,0.5-0.2,0.8v6.8c0,0.3,0.1,0.5,0.2,0.8
				s0.3,0.5,0.4,0.6c0.2,0.2,0.4,0.3,0.6,0.4s0.5,0.2,0.8,0.2h0.8c0.3,0,0.5-0.1,0.8-0.2s0.5-0.3,0.6-0.4c0.2-0.2,0.3-0.4,0.4-0.6
				s0.2-0.5,0.2-0.8V269z"/>
			<path class="st5" d="M-288.3,278.7v-1.4h1.4v1.4H-288.3z"/>
			<path class="st5" d="M-274.8,278.7l-0.6-0.9c-0.2,0.3-0.6,0.6-0.9,0.8c-0.4,0.2-0.8,0.3-1.2,0.3h-0.3c-0.4,0-0.7-0.1-1-0.2
				s-0.6-0.3-0.8-0.6s-0.4-0.5-0.6-0.8s-0.2-0.7-0.2-1v-4.1c0-0.4,0.1-0.7,0.2-1s0.3-0.6,0.6-0.8s0.5-0.4,0.8-0.6s0.7-0.2,1-0.2h0.3
				c0.4,0,0.8,0.1,1.1,0.2s0.6,0.4,0.9,0.7v-4.4h1.1v12.6H-274.8z M-275.6,272.1c0-0.2,0-0.4-0.1-0.6s-0.2-0.4-0.3-0.5
				s-0.3-0.3-0.5-0.3s-0.4-0.1-0.6-0.1h-0.7c-0.2,0-0.4,0-0.6,0.1s-0.4,0.2-0.5,0.3s-0.3,0.3-0.3,0.5c-0.1,0.2-0.1,0.4-0.1,0.6v4.2
				c0,0.2,0,0.4,0.1,0.6s0.2,0.4,0.3,0.5s0.3,0.3,0.5,0.3s0.4,0.1,0.6,0.1h0.7c0.2,0,0.4,0,0.6-0.1s0.4-0.2,0.5-0.3s0.3-0.3,0.3-0.5
				s0.1-0.4,0.1-0.6V272.1z"/>
			<path class="st5" d="M-266.5,277.3c-0.1,0.3-0.3,0.6-0.6,0.8s-0.5,0.4-0.8,0.6c-0.3,0.1-0.7,0.2-1,0.2h-0.7c-0.4,0-0.7-0.1-1-0.2
				s-0.6-0.3-0.8-0.6s-0.4-0.5-0.6-0.8s-0.2-0.7-0.2-1v-4.1c0-0.4,0.1-0.7,0.2-1s0.3-0.6,0.6-0.8s0.5-0.4,0.8-0.6s0.7-0.2,1-0.2h0.7
				c0.4,0,0.7,0.1,1,0.2s0.6,0.3,0.8,0.6s0.4,0.5,0.6,0.8s0.2,0.7,0.2,1v2.1h-4.9v2c0,0.2,0,0.4,0.1,0.6s0.2,0.4,0.3,0.5
				s0.3,0.3,0.5,0.3s0.4,0.1,0.6,0.1h0.7c0.2,0,0.4,0,0.6-0.1s0.4-0.2,0.5-0.3s0.3-0.3,0.3-0.5s0.1-0.4,0.1-0.6v-0.6l1.1,0.2v0.4
				C-266.3,276.6-266.4,277-266.5,277.3z M-267.4,272.1c0-0.2,0-0.4-0.1-0.6s-0.2-0.4-0.3-0.5s-0.3-0.3-0.5-0.3s-0.4-0.1-0.6-0.1
				h-0.7c-0.2,0-0.4,0-0.6,0.1s-0.4,0.2-0.5,0.3s-0.3,0.3-0.3,0.5c-0.1,0.2-0.1,0.4-0.1,0.6v1.3h3.8L-267.4,272.1L-267.4,272.1z"/>
			<path class="st5" d="M-257.4,270.8c-0.2,0-0.4,0-0.6,0.1s-0.4,0.2-0.5,0.3s-0.3,0.3-0.3,0.5s-0.1,0.4-0.1,0.6v6.4h-1.1v-9h0.4
				l0.6,0.9c0.2-0.3,0.6-0.6,0.9-0.8s0.8-0.3,1.2-0.3h0.6v1.2L-257.4,270.8L-257.4,270.8z"/>
			<path class="st5" d="M-249,277.3c-0.1,0.3-0.3,0.6-0.6,0.8s-0.5,0.4-0.8,0.6c-0.3,0.1-0.7,0.2-1,0.2h-0.7c-0.4,0-0.7-0.1-1-0.2
				s-0.6-0.3-0.8-0.6s-0.4-0.5-0.6-0.8s-0.2-0.7-0.2-1v-4.1c0-0.4,0.1-0.7,0.2-1s0.3-0.6,0.6-0.8s0.5-0.4,0.8-0.6s0.7-0.2,1-0.2h0.7
				c0.4,0,0.7,0.1,1,0.2s0.6,0.3,0.8,0.6s0.4,0.5,0.6,0.8s0.2,0.7,0.2,1v2.1h-4.9v2c0,0.2,0,0.4,0.1,0.6s0.2,0.4,0.3,0.5
				s0.3,0.3,0.5,0.3s0.4,0.1,0.6,0.1h0.7c0.2,0,0.4,0,0.6-0.1s0.4-0.2,0.5-0.3s0.3-0.3,0.3-0.5s0.1-0.4,0.1-0.6v-0.6l1.1,0.2v0.4
				C-248.8,276.6-248.9,277-249,277.3z M-249.9,272.1c0-0.2,0-0.4-0.1-0.6s-0.2-0.4-0.3-0.5s-0.3-0.3-0.5-0.3s-0.4-0.1-0.6-0.1h-0.7
				c-0.2,0-0.4,0-0.6,0.1s-0.4,0.2-0.5,0.3s-0.3,0.3-0.3,0.5c-0.1,0.2-0.1,0.4-0.1,0.6v1.3h3.8L-249.9,272.1L-249.9,272.1z"/>
			<path class="st5" d="M-241,278.7l-0.6-0.9c-0.2,0.3-0.6,0.6-0.9,0.8c-0.4,0.2-0.8,0.3-1.2,0.3h-0.3c-0.4,0-0.7-0.1-1-0.2
				s-0.6-0.3-0.8-0.6s-0.4-0.5-0.6-0.8s-0.2-0.7-0.2-1v-4.1c0-0.4,0.1-0.7,0.2-1s0.3-0.6,0.6-0.8s0.5-0.4,0.8-0.6s0.7-0.2,1-0.2h0.3
				c0.4,0,0.8,0.1,1.1,0.2s0.6,0.4,0.9,0.7v-4.4h1.1v12.6H-241z M-241.7,272.1c0-0.2,0-0.4-0.1-0.6s-0.2-0.4-0.3-0.5
				s-0.3-0.3-0.5-0.3s-0.4-0.1-0.6-0.1h-0.7c-0.2,0-0.4,0-0.6,0.1s-0.4,0.2-0.5,0.3s-0.3,0.3-0.3,0.5c-0.1,0.2-0.1,0.4-0.1,0.6v4.2
				c0,0.2,0,0.4,0.1,0.6s0.2,0.4,0.3,0.5s0.3,0.3,0.5,0.3s0.4,0.1,0.6,0.1h0.7c0.2,0,0.4,0,0.6-0.1s0.4-0.2,0.5-0.3s0.3-0.3,0.3-0.5
				s0.1-0.4,0.1-0.6V272.1z"/>
		</g>
	</g>
	<g id="XMLID_80_">
		<g id="XMLID_117_">
			<g id="XMLID_125_">
				<path id="XMLID_127_" class="st5" d="M-333.9,272.2h-16c-0.4,0-0.7-0.3-0.7-0.7v-8.8c0-0.4,0.3-0.7,0.7-0.7h15.9
					c0.4,0,0.7,0.3,0.7,0.7v8.8C-333.3,271.9-333.6,272.2-333.9,272.2z M-349.4,262.9c-0.1,0-0.3,0.1-0.3,0.3v7.9
					c0,0.1,0.1,0.3,0.3,0.3h15c0.1,0,0.3-0.1,0.3-0.3v-7.9c0-0.1-0.1-0.3-0.3-0.3H-349.4z"/>
				<polygon id="XMLID_126_" class="st5" points="-339.8,273.2 -339.8,272.2 -343.8,272.2 -343.8,273.2 -345.8,273.2 -345.8,274.2 
					-337.8,274.2 -337.8,273.2 				"/>
			</g>
			<g id="XMLID_120_">
				<path id="XMLID_122_" class="st5" d="M-316.8,282.8h-15.9c-0.4,0-0.7-0.3-0.7-0.7v-8.8c0-0.4,0.3-0.7,0.7-0.7h15.9
					c0.4,0,0.7,0.3,0.7,0.7v8.8C-316.1,282.5-316.4,282.8-316.8,282.8z M-332.2,273.5c-0.1,0-0.3,0.1-0.3,0.3v7.9
					c0,0.1,0.1,0.3,0.3,0.3h15c0.1,0,0.3-0.1,0.3-0.3v-7.9c0-0.1-0.1-0.3-0.3-0.3H-332.2z"/>
				<polygon id="XMLID_121_" class="st5" points="-322.8,284.2 -322.8,282.2 -326.8,282.2 -326.8,284.2 -328.8,284.2 -328.8,285.2 
					-320.8,285.2 -320.8,284.2 				"/>
			</g>
			<path id="XMLID_119_" class="st5" d="M-334.3,280.6l-5.5-1.5v1.1h0.1c-1,0-2.1-0.8-2.1-1.9v-3.1h-1v3.1c0,1.5,1.6,2.9,3.1,2.9
				h-0.1v0.9L-334.3,280.6z"/>
			<path id="XMLID_118_" class="st5" d="M-331.2,265.9l5.5,1.5v-1.2h-0.2c1,0,2.2,1,2.2,2v3h1v-3c0-1.5-1.7-3-3.2-3h0.2v-0.7
				L-331.2,265.9z"/>
		</g>
	</g>
</g>
</svg>
