<?xml version="1.0" encoding="utf-8"?>
<!-- Generator: Adobe Illustrator 19.0.0, SVG Export Plug-In . SVG Version: 6.00 Build 0)  -->
<svg version="1.1" id="Capa_1" xmlns="http://www.w3.org/2000/svg" xmlns:xlink="http://www.w3.org/1999/xlink" x="0px" y="0px"
	 viewBox="-355 251.8 248.1 58.2" style="enable-background:new -355 251.8 248.1 58.2;" xml:space="preserve">
<style type="text/css">
	.st0{opacity:0.5;enable-background:new    ;}
	.st1{fill:#A8A8A8;}
	.st2{fill:#FFFFFF;}
	.st3{stroke:#000000;stroke-miterlimit:10;}
	.st4{fill:#3B86B1;}
</style>
<g id="XMLID_99_">
	<polygon id="XMLID_41_" class="st0" points="-121.4,299.7 -355,292.6 -121.4,292.6 	"/>
	<g id="XMLID_29_">
		<g id="XMLID_131_">
			<polygon id="XMLID_132_" class="st1" points="-121,310 -106.9,292.2 -117.4,272.1 -121,272.1 			"/>
		</g>
	</g>
	<g id="XMLID_6_">
		<rect id="XMLID_114_" x="-354.6" y="251.8" class="st2" width="247.6" height="40.4"/>
	</g>
	<g id="XMLID_1_">
		<g id="XMLID_232_">
			<path id="XMLID_253_" d="M-309,266.3v4.7h4.8v1.1h-4.8v5.7h-1.1v-12.6h7.1v1.1H-309z"/>
			<path id="XMLID_251_" d="M-296,277.8l-0.6-0.9c-0.2,0.3-0.6,0.6-0.9,0.8c-0.4,0.2-0.8,0.3-1.2,0.3h-0.3c-0.4,0-0.7-0.1-1-0.2
				c-0.3-0.1-0.6-0.3-0.8-0.6c-0.2-0.3-0.4-0.5-0.6-0.8c-0.2-0.3-0.2-0.7-0.2-1v-6.6h1.1v6.6c0,0.2,0,0.4,0.1,0.6s0.2,0.4,0.3,0.5
				s0.3,0.3,0.5,0.3c0.2,0,0.4,0.1,0.6,0.1h0.7c0.2,0,0.4,0,0.6-0.1c0.2-0.1,0.4-0.2,0.5-0.3c0.1-0.1,0.3-0.3,0.3-0.5
				s0.1-0.4,0.1-0.6v-6.6h1.1v9H-296z"/>
			<path id="XMLID_249_" d="M-288.5,277.8v-6.6c0-0.2,0-0.4-0.1-0.6c-0.1-0.2-0.2-0.4-0.3-0.5s-0.3-0.3-0.5-0.3
				c-0.2,0-0.4-0.1-0.6-0.1h-0.7c-0.2,0-0.4,0-0.6,0.1c-0.2,0.1-0.4,0.2-0.5,0.3c-0.1,0.1-0.3,0.3-0.3,0.5c-0.1,0.2-0.1,0.4-0.1,0.6
				v6.6h-1.1v-9h0.4l0.6,0.9c0.2-0.3,0.6-0.6,0.9-0.8c0.3-0.2,0.8-0.3,1.2-0.3h0.3c0.4,0,0.7,0.1,1,0.2c0.3,0.1,0.6,0.3,0.8,0.6
				c0.2,0.3,0.4,0.5,0.6,0.8c0.2,0.3,0.2,0.7,0.2,1v6.6H-288.5z"/>
			<path id="XMLID_247_" d="M-279.4,276.4c-0.1,0.3-0.3,0.6-0.6,0.8c-0.3,0.2-0.5,0.4-0.8,0.6c-0.3,0.1-0.7,0.2-1,0.2h-0.7
				c-0.4,0-0.7-0.1-1-0.2c-0.3-0.1-0.6-0.3-0.8-0.6c-0.2-0.3-0.4-0.5-0.6-0.8c-0.2-0.3-0.2-0.7-0.2-1v-4.1c0-0.4,0.1-0.7,0.2-1
				c0.1-0.3,0.3-0.6,0.6-0.8c0.3-0.2,0.5-0.4,0.8-0.6c0.3-0.2,0.7-0.2,1-0.2h0.7c0.4,0,0.7,0.1,1,0.2c0.3,0.1,0.6,0.3,0.8,0.6
				c0.2,0.3,0.4,0.5,0.6,0.8c0.2,0.3,0.2,0.7,0.2,1v0.4l-1.1,0.1v-0.6c0-0.2,0-0.4-0.1-0.6c-0.1-0.2-0.2-0.4-0.3-0.5
				s-0.3-0.3-0.5-0.3c-0.2,0-0.4-0.1-0.6-0.1h-0.7c-0.2,0-0.4,0-0.6,0.1c-0.2,0.1-0.4,0.2-0.5,0.3s-0.3,0.3-0.3,0.5
				c-0.1,0.2-0.1,0.4-0.1,0.6v4.2c0,0.2,0,0.4,0.1,0.6s0.2,0.4,0.3,0.5s0.3,0.3,0.5,0.3c0.2,0,0.4,0.1,0.6,0.1h0.7
				c0.2,0,0.4,0,0.6-0.1c0.2-0.1,0.4-0.2,0.5-0.3c0.1-0.1,0.3-0.3,0.3-0.5s0.1-0.4,0.1-0.6v-0.6l1.1,0.2v0.4
				C-279.2,275.7-279.3,276.1-279.4,276.4z"/>
			<path id="XMLID_243_" d="M-276.8,266.7v-1.4h1.3v1.4H-276.8z M-276.7,277.8v-9h1.1v9H-276.7z"/>
			<path id="XMLID_240_" d="M-267.3,276.4c-0.1,0.3-0.3,0.6-0.6,0.8c-0.3,0.2-0.5,0.4-0.8,0.6c-0.3,0.1-0.7,0.2-1,0.2h-0.7
				c-0.4,0-0.7-0.1-1-0.2c-0.3-0.1-0.6-0.3-0.8-0.6c-0.2-0.3-0.4-0.5-0.6-0.8c-0.2-0.3-0.2-0.7-0.2-1v-4.1c0-0.4,0.1-0.7,0.2-1
				c0.1-0.3,0.3-0.6,0.6-0.8c0.3-0.2,0.5-0.4,0.8-0.6c0.3-0.2,0.7-0.2,1-0.2h0.7c0.4,0,0.7,0.1,1,0.2c0.3,0.1,0.6,0.3,0.8,0.6
				c0.2,0.3,0.4,0.5,0.6,0.8c0.2,0.3,0.2,0.7,0.2,1v4.1C-267.1,275.7-267.2,276.1-267.3,276.4z M-268.2,271.2c0-0.2,0-0.4-0.1-0.6
				c-0.1-0.2-0.2-0.4-0.3-0.5s-0.3-0.3-0.5-0.3c-0.2,0-0.4-0.1-0.6-0.1h-0.7c-0.2,0-0.4,0-0.6,0.1c-0.2,0.1-0.4,0.2-0.5,0.3
				c-0.1,0.1-0.3,0.3-0.3,0.5c-0.2,0.2-0.2,0.4-0.2,0.6v4.2c0,0.2,0,0.4,0.1,0.6s0.2,0.4,0.3,0.5s0.3,0.3,0.5,0.3
				c0.2,0,0.4,0.1,0.6,0.1h0.7c0.2,0,0.4,0,0.6-0.1c0.2-0.1,0.4-0.2,0.5-0.3c0.1-0.1,0.3-0.3,0.3-0.5s0.1-0.4,0.1-0.6L-268.2,271.2
				L-268.2,271.2z"/>
			<path id="XMLID_238_" d="M-260,277.8v-6.6c0-0.2,0-0.4-0.1-0.6c-0.1-0.2-0.2-0.4-0.3-0.5s-0.4-0.2-0.6-0.3
				c-0.2-0.1-0.4-0.1-0.6-0.1h-0.7c-0.2,0-0.4,0-0.6,0.1c-0.2,0.1-0.4,0.2-0.5,0.3s-0.3,0.3-0.3,0.5c-0.1,0.2-0.1,0.4-0.1,0.6v6.6
				h-1.1v-9h0.4l0.6,0.9c0.2-0.3,0.6-0.6,0.9-0.8c0.3-0.2,0.8-0.3,1.2-0.3h0.3c0.4,0,0.7,0.1,1,0.2c0.3,0.1,0.6,0.3,0.8,0.6
				c0.2,0.3,0.4,0.5,0.6,0.8c0.2,0.3,0.2,0.7,0.2,1v6.6H-260z"/>
			<path id="XMLID_235_" d="M-251,276.4c-0.1,0.3-0.3,0.6-0.6,0.8c-0.3,0.2-0.5,0.4-0.8,0.6c-0.3,0.1-0.7,0.2-1,0.2h-0.7
				c-0.4,0-0.7-0.1-1-0.2c-0.3-0.1-0.6-0.3-0.8-0.6c-0.2-0.3-0.4-0.5-0.6-0.8c-0.2-0.3-0.2-0.7-0.2-1v-4.1c0-0.4,0.1-0.7,0.2-1
				c0.1-0.3,0.3-0.6,0.6-0.8c0.3-0.2,0.5-0.4,0.8-0.6c0.3-0.2,0.7-0.2,1-0.2h0.7c0.4,0,0.7,0.1,1,0.2c0.3,0.1,0.6,0.3,0.8,0.6
				c0.2,0.3,0.4,0.5,0.6,0.8c0.2,0.3,0.2,0.7,0.2,1v2.1h-4.9v2c0,0.2,0,0.4,0.1,0.6s0.2,0.4,0.3,0.5s0.3,0.3,0.5,0.3
				s0.4,0.1,0.6,0.1h0.7c0.2,0,0.4,0,0.6-0.1c0.2-0.1,0.4-0.2,0.5-0.3s0.3-0.3,0.3-0.5s0.1-0.4,0.1-0.6v-0.6l1.1,0.2v0.4
				C-250.8,275.7-250.8,276.1-251,276.4z M-251.8,271.2c0-0.2,0-0.4-0.1-0.6c-0.1-0.2-0.2-0.4-0.3-0.5s-0.3-0.3-0.5-0.3
				c-0.2,0-0.4-0.1-0.6-0.1h-0.7c-0.2,0-0.4,0-0.6,0.1c-0.2,0.1-0.4,0.2-0.5,0.3c-0.1,0.1-0.3,0.3-0.3,0.5c-0.1,0.2-0.1,0.4-0.1,0.6
				v1.3h3.8v-1.3H-251.8z"/>
			<path id="XMLID_233_" d="M-242.4,275.6c0,0.4-0.1,0.7-0.2,1c-0.1,0.3-0.3,0.6-0.6,0.8c-0.3,0.2-0.5,0.4-0.9,0.5
				c-0.3,0.1-0.7,0.2-1,0.2h-0.7c-0.4,0-0.7-0.1-1-0.2c-0.3-0.1-0.6-0.3-0.9-0.6c-0.3-0.3-0.4-0.5-0.6-0.8c-0.2-0.3-0.2-0.7-0.2-1
				v-0.4l1.1-0.2v0.6c0,0.2,0,0.4,0.1,0.6c0.1,0.2,0.2,0.4,0.4,0.5s0.3,0.3,0.5,0.3s0.4,0.1,0.6,0.1h0.7c0.2,0,0.4,0,0.6-0.1
				s0.4-0.2,0.5-0.3s0.3-0.3,0.4-0.4c0.1-0.1,0.1-0.4,0.1-0.6c0-0.3-0.1-0.6-0.2-0.8c-0.1-0.2-0.3-0.4-0.6-0.5
				c-0.3-0.1-0.5-0.3-0.8-0.3c-0.3-0.1-0.6-0.2-0.9-0.3c-0.3-0.1-0.6-0.2-0.9-0.3c-0.3-0.1-0.6-0.3-0.8-0.5
				c-0.2-0.2-0.4-0.4-0.6-0.7c-0.2-0.3-0.2-0.6-0.2-1.1c0-0.4,0.1-0.7,0.2-1s0.3-0.6,0.6-0.8c0.3-0.2,0.5-0.4,0.8-0.5
				c0.3-0.1,0.7-0.2,1-0.2h0.6c0.4,0,0.7,0.1,1,0.2c0.3,0.1,0.6,0.3,0.8,0.6c0.2,0.3,0.4,0.5,0.6,0.8c0.2,0.3,0.2,0.7,0.2,1l0,0
				l-1.1,0.2v-0.3c0-0.2,0-0.4-0.1-0.6c-0.1-0.2-0.2-0.4-0.3-0.5s-0.3-0.3-0.5-0.3c-0.2,0-0.4-0.1-0.6-0.1h-0.6
				c-0.2,0-0.4,0-0.6,0.1s-0.4,0.2-0.5,0.3s-0.3,0.3-0.3,0.4c0,0.1-0.1,0.4-0.1,0.6c0,0.3,0.1,0.6,0.2,0.8c0.1,0.2,0.3,0.4,0.6,0.5
				c0.3,0.1,0.5,0.2,0.8,0.3s0.6,0.2,0.9,0.3c0.3,0.1,0.6,0.2,0.9,0.3c0.3,0.1,0.6,0.3,0.8,0.5c0.2,0.2,0.4,0.4,0.6,0.7
				C-242.5,274.8-242.4,275.1-242.4,275.6z"/>
		</g>
	</g>
	<path id="XMLID_2_" class="st3" d="M-346.9,280.3c0.2-0.3,0.5-0.5,0.7-0.8c0.6-0.7,1.1-1.4,1.7-2.1c0.1-0.1,0.1-0.3,0.1-0.4
		c0,0,0-12,0-12.8c0-0.7,0.4-1.1,1.1-1.1c3.7,0,7.4,0,11,0c0.1,0,0.1,0,0.2,0c0,0.3,0,0.6,0,0.9c-0.1,0-0.2,0-0.3,0
		c-3.2,0-6.4,0-9.6,0c-0.7,0-1.1,0.4-1.1,1.1c0,3.4,0,6.8,0,10.2c0,0.7,0.3,1.1,1.1,1.1c5.8,0,11.6,0,17.3,0c0.7,0,1-0.3,1-1
		c0-0.9,0-1.8,0-2.7c0-0.1,0-0.2,0-0.3c0.5,0,0.9,0,1.4,0c0,0.1,0,0.2,0,0.3c0,1.4,0,2.9,0,4.3c0,0.2,0,0.3,0.2,0.4
		c0.8,0.9,1.5,1.8,2.3,2.8c0.1,0.1,0.1,0.2,0.1,0.3c0,0.7-0.6,1.3-1.3,1.3c-0.1,0-0.3,0-0.4,0c-7.9,0-15.9,0-23.8,0
		c-0.9,0-1.5-0.4-1.8-1.2l0,0C-346.9,280.5-346.9,280.4-346.9,280.3z M-329.1,280.4c-0.3-0.3-0.5-0.6-0.7-0.9c0,0-0.1-0.1-0.2-0.1
		c-2.2,0-4.3,0-6.5,0c-0.1,0-0.2,0-0.2,0.1c-0.2,0.3-0.5,0.5-0.7,0.9C-334.6,280.4-331.9,280.4-329.1,280.4z M-333.2,280.9
		c-0.6,0-1.2,0-1.8,0c-0.1,0-0.2,0-0.2,0c-0.1,0.1-0.2,0.2-0.2,0.3c0,0.1,0.1,0.2,0.2,0.2c0.1,0,0.2,0,0.3,0c1.2,0,2.4,0,3.6,0
		c0.1,0,0.2,0,0.3,0s0.2-0.1,0.2-0.2c0-0.1-0.1-0.2-0.2-0.2s-0.2,0-0.3,0C-332,280.9-332.6,280.9-333.2,280.9z"/>
	<g id="XMLID_194_">
		<g id="XMLID_289_">
			<g id="XMLID_290_">
				<path id="XMLID_302_" class="st4" d="M-346.9,280.3c0.2-0.3,0.5-0.5,0.7-0.8c0.6-0.7,1.1-1.4,1.7-2.1c0.1-0.1,0.1-0.3,0.1-0.4
					c0,0,0-12,0-12.8c0-0.7,0.4-1.1,1.1-1.1c3.7,0,7.4,0,11,0c0.1,0,0.1,0,0.2,0c0,0.3,0,0.6,0,0.9c-0.1,0-0.2,0-0.3,0
					c-3.2,0-6.4,0-9.6,0c-0.7,0-1.1,0.4-1.1,1.1c0,3.4,0,6.8,0,10.2c0,0.7,0.3,1.1,1.1,1.1c5.8,0,11.6,0,17.3,0c0.7,0,1-0.3,1-1
					c0-0.9,0-1.8,0-2.7c0-0.1,0-0.2,0-0.3c0.5,0,0.9,0,1.4,0c0,0.1,0,0.2,0,0.3c0,1.4,0,2.9,0,4.3c0,0.2,0,0.3,0.2,0.4
					c0.8,0.9,1.5,1.8,2.3,2.8c0.1,0.1,0.1,0.2,0.1,0.3c0,0.7-0.6,1.3-1.3,1.3c-0.1,0-0.3,0-0.4,0c-7.9,0-15.9,0-23.8,0
					c-0.9,0-1.5-0.4-1.8-1.2l0,0C-346.9,280.5-346.9,280.4-346.9,280.3z M-329.1,280.4c-0.3-0.3-0.5-0.6-0.7-0.9
					c0,0-0.1-0.1-0.2-0.1c-2.2,0-4.3,0-6.5,0c-0.1,0-0.2,0-0.2,0.1c-0.2,0.3-0.5,0.5-0.7,0.9C-334.6,280.4-331.9,280.4-329.1,280.4z
					 M-333.2,280.9c-0.6,0-1.2,0-1.8,0c-0.1,0-0.2,0-0.2,0c-0.1,0.1-0.2,0.2-0.2,0.3c0,0.1,0.1,0.2,0.2,0.2c0.1,0,0.2,0,0.3,0
					c1.2,0,2.4,0,3.6,0c0.1,0,0.2,0,0.3,0s0.2-0.1,0.2-0.2c0-0.1-0.1-0.2-0.2-0.2s-0.2,0-0.3,0C-332,280.9-332.6,280.9-333.2,280.9z
					"/>
				<path id="XMLID_301_" class="st4" d="M-317.1,264.2c-1.8,0-3.6,0-5.4,0c0-0.1,0-0.2,0-0.3c0-1.6,0-3.2,0-4.8
					c0-0.3,0-0.3,0.3-0.3c1.7,0,3.4,0,5.1,0C-317.1,260.6-317.1,262.4-317.1,264.2z"/>
				<path id="XMLID_300_" class="st4" d="M-324.2,271.3c0-1.4,0-2.9,0-4.3c0.1,0,0.2,0,0.2,0c1.3,0,2.5,0,3.8,0c0.2,0,0.3,0,0.3,0.3
					c0,1.3,0,2.6,0,3.8c0,0.2,0,0.2-0.2,0.2c-1.3,0-2.6,0-4,0C-324.1,271.3-324.1,271.3-324.2,271.3z"/>
				<path id="XMLID_299_" class="st4" d="M-326.8,266.2c0-1.2,0-2.3,0-3.5c0.1,0,0.1,0,0.2,0c1.1,0,2.1,0,3.2,0c0.1,0,0.2,0,0.2,0.2
					c0,1.1,0,2.2,0,3.3c0,0,0,0,0,0.1C-324.5,266.2-325.6,266.2-326.8,266.2z"/>
				<path id="XMLID_298_" class="st4" d="M-325,261.7c-0.4,0-0.7,0-1.1,0c-0.1,0-0.2,0-0.2-0.2c0-0.7,0-1.4,0-2.1
					c0-0.1,0.1-0.2,0.2-0.2c0.7,0,1.4,0,2.1,0c0.2,0,0.2,0,0.2,0.2c0,0.7,0,1.4,0,2.1c0,0.2-0.1,0.2-0.2,0.2
					C-324.3,261.7-324.6,261.7-325,261.7z"/>
				<path id="XMLID_297_" class="st4" d="M-330.8,266.2c0-0.8,0-1.6,0-2.5c0.8,0,1.6,0,2.5,0c0,0.8,0,1.6,0,2.5
					C-329.1,266.2-329.9,266.2-330.8,266.2z"/>
				<path id="XMLID_296_" class="st4" d="M-329.8,266.9c0.8,0,1.6,0,2.5,0c0,0.8,0,1.6,0,2.5c-0.8,0-1.6,0-2.5,0
					C-329.8,268.5-329.8,267.7-329.8,266.9z"/>
				<path id="XMLID_295_" class="st4" d="M-325,269.7c0,0.8,0,1.6,0,2.4c-0.8,0-1.6,0-2.5,0c0-0.1,0-0.1,0-0.2c0-0.7,0-1.4,0-2.1
					c0-0.1,0-0.2,0.2-0.2C-326.6,269.7-325.8,269.7-325,269.7C-325.1,269.7-325,269.7-325,269.7z"/>
				<path id="XMLID_294_" class="st4" d="M-329.4,270.4c0,0.7,0,1.4,0,2.1c-0.7,0-1.4,0-2.1,0c0-0.2,0-0.3,0-0.5c0-0.5,0-0.9,0-1.4
					c0-0.1,0-0.2,0.2-0.2C-330.7,270.4-330.1,270.4-329.4,270.4L-329.4,270.4z"/>
				<path id="XMLID_293_" class="st4" d="M-331.5,267.8c0,0.7,0,1.4,0,2.1c-0.7,0-1.4,0-2.1,0c0-0.7,0-1.4,0-2.1
					C-332.8,267.8-332.2,267.8-331.5,267.8z"/>
				<path id="XMLID_291_" class="st4" d="M-334.9,270.6c0.7,0,1.4,0,2.1,0c0,0.7,0,1.4,0,2.1c-0.7,0-1.4,0-2.1,0
					C-334.9,272-334.9,271.4-334.9,270.6z"/>
			</g>
		</g>
	</g>
</g>
</svg>
