<?xml version="1.0" encoding="utf-8"?>
<!-- Generator: Adobe Illustrator 19.0.0, SVG Export Plug-In . SVG Version: 6.00 Build 0)  -->
<svg version="1.1" id="Layer_1" xmlns="http://www.w3.org/2000/svg" xmlns:xlink="http://www.w3.org/1999/xlink" x="0px" y="0px"
	 viewBox="-487.3 326.8 230 56.7" style="enable-background:new -487.3 326.8 230 56.7;" xml:space="preserve">
<style type="text/css">
	.st0{fill:#FFFFFF;}
	.st1{fill:#E31B23;}
</style>
<g>
	<g>
		<path class="st0" d="M-327.1,339.3c5.5,0,10,1.7,13.3,5c3.5,3.5,5.5,8.9,5.5,15.3v1.1v0.7h-29.5c0.4,5.5,4.1,11.1,11.1,11.1
			c5.7,0,8.5-2.8,11.1-7l0.2-0.4l7.2,3.9l-0.2,0.4c-3.7,6.5-10.7,10.5-18.5,10.5c-5.7,0-10.5-2-14-5.5c-3.7-3.7-5.7-8.7-5.7-14.6
			C-346.6,347.1-339.1,339.3-327.1,339.3 M-337.4,354.5h20.3c-1.1-5-4.8-8.1-10-8.1C-332.1,346.5-336.3,349.7-337.4,354.5
			 M-327.1,337.1c-13.1,0-21.6,8.9-21.6,22.7c0,6.3,2.2,12,6.3,16.1c3.9,3.9,9.4,6.1,15.5,6.1c8.7,0,16.4-4.4,20.3-11.6l0.2-0.4
			c0.2-0.4,0.4-1.1,0.2-1.7c-0.2-0.7-0.4-1.1-1.1-1.3l-6.5-3.5h5.2c1.3,0,2.2-0.9,2.2-2.2v-0.7v-1.1c0-7-2.2-12.9-6.1-16.8
			C-316,338.8-321,337.1-327.1,337.1L-327.1,337.1z M-334.1,352.4c1.5-2.4,4.1-3.7,7-3.7c3.3,0,5.5,1.3,7,3.7H-334.1L-334.1,352.4z
			 M-335.2,363.3h18.3c0,0-0.2,0.2-0.2,0.4l-0.2,0.4c-2.4,3.7-4.6,5.9-9.2,5.9C-331.3,370-334.3,367-335.2,363.3L-335.2,363.3z"/>
		<path class="st1" d="M-326.9,380.7c-5.9,0-11.1-2-14.8-5.7c-3.9-3.9-5.9-9.4-5.9-15.3c0-13.3,7.9-21.6,20.5-21.6
			c5.9,0,10.5,1.7,14,5.2c3.7,3.7,5.9,9.4,5.9,16.1v1.7c0,0.7-0.4,1.1-1.1,1.1h-28.4c0.7,4.6,4.1,8.9,9.8,8.9c5,0,7.6-2.4,10.3-6.3
			l0.2-0.4c0.2-0.2,0.7-0.4,0.9-0.4s0.4,0,0.4,0.2l7.2,3.9c0.2,0.2,0.4,0.4,0.4,0.7c0,0.2,0,0.7,0,0.9l-0.2,0.4
			C-311.4,376.6-318.6,380.7-326.9,380.7z M-318.4,353.5c-1.3-3.7-4.4-5.9-8.5-5.9s-7.4,2.2-8.7,5.9H-318.4z"/>
	</g>
	<g>
		<path class="st0" d="M-413.1,339.7c5.5,0,10.5,2,14.2,5.9c3.7,3.7,5.7,8.7,5.7,14.2s-2,10.5-5.7,14.2c-3.7,3.7-8.7,5.9-14.2,5.9
			c-5.5,0-10.5-2-14.2-5.9c-3.7-3.7-5.7-8.7-5.7-14.2C-433.2,348.7-424.2,339.7-413.1,339.7 M-413.1,371.3c6.3,0,11.3-5.2,11.3-11.8
			c0-3.1-1.3-6.1-3.5-8.3s-5-3.3-8.1-3.3c-3.1,0-5.9,1.1-8.1,3.3c-2.2,2.2-3.5,5.2-3.5,8.3s1.3,6.1,3.5,8.3
			C-418.8,370.3-415.9,371.3-413.1,371.3 M-413.1,337.5c-12.4,0-22.3,9.8-22.3,22c0,5.9,2.2,11.6,6.3,15.7c4.1,4.1,9.8,6.3,15.7,6.3
			c6.1,0,11.6-2.2,15.7-6.3c4.1-4.1,6.3-9.6,6.3-15.7c0-5.9-2.2-11.6-6.3-15.7C-401.3,339.9-407,337.5-413.1,337.5L-413.1,337.5z
			 M-413.1,369.2c-2.4,0-4.6-0.9-6.3-2.6c-1.7-1.7-2.8-4.4-2.8-6.8c0-2.6,1.1-5,2.8-6.8c1.7-1.7,3.9-2.6,6.5-2.6
			c2.4,0,4.8,0.9,6.5,2.6c1.7,1.7,2.8,4.1,2.8,6.8C-403.7,365-407.9,369.2-413.1,369.2L-413.1,369.2z"/>
		<path class="st1" d="M-413.1,380.7c-5.7,0-11.1-2.2-15.1-6.1c-3.9-3.9-6.1-9.2-6.1-14.8c0-11.8,9.4-20.9,21.2-20.9
			c5.7,0,11.1,2.2,15.1,6.1c3.9,3.9,6.1,9.2,6.1,14.8c0,5.7-2.2,10.9-6.1,14.8C-402,378.5-407.2,380.7-413.1,380.7z M-413.1,349.1
			c-2.6,0-5.2,1.1-7.2,3.1s-3.1,4.8-3.1,7.6c0,2.8,1.1,5.5,3.1,7.6c2,2,4.6,3.1,7.2,3.1c5.7,0,10.3-4.8,10.3-10.7
			c0-2.8-1.1-5.5-3.1-7.6C-407.9,350.2-410.3,349.1-413.1,349.1z"/>
	</g>
	<g>
		<path class="st0" d="M-350.7,339.7L-350.7,339.7 M-350.7,339.7l-19.4,41.2l-19.4-41.2h9.6l9.8,22.5l9.8-22.5H-350.7 M-350.5,337.5
			L-350.5,337.5h-9.6c-0.9,0-1.7,0.4-2,1.3l-7.9,17.9l-7.9-17.9c-0.4-0.9-1.1-1.3-2-1.3h-9.6c-0.7,0-1.5,0.4-1.7,1.1
			c-0.4,0.7-0.4,1.5-0.2,2.2l19.4,41.2c0.4,0.9,1.1,1.3,2,1.3l0,0c0.9,0,1.5-0.4,2-1.3l19.4-41c0.2-0.2,0.2-0.7,0.2-1.1
			C-348.3,338.4-349.4,337.5-350.5,337.5L-350.5,337.5z"/>
		<path class="st1" d="M-370.1,381.8c-0.4,0-0.9-0.2-1.1-0.7l-19.4-41.2c-0.2-0.4-0.2-0.7,0-1.1c0.2-0.2,0.7-0.4,0.9-0.4h9.6
			c0.4,0,0.9,0.2,1.1,0.7l8.7,20.1l8.7-20.1c0.2-0.4,0.7-0.7,1.1-0.7h9.6c0.4,0,0.7,0.2,0.9,0.4s0.2,0.7,0,1.1l-19.4,41.2
			C-369.2,381.6-369.7,381.8-370.1,381.8L-370.1,381.8z"/>
	</g>
	<g>
		<path class="st0" d="M-289.8,329v49.5h-8.3V329H-289.8 M-289.8,326.8h-8.3c-1.3,0-2.2,0.9-2.2,2.2v49.5c0,1.3,0.9,2.2,2.2,2.2h8.3
			c1.3,0,2.2-0.9,2.2-2.2V329C-287.6,327.9-288.7,326.8-289.8,326.8L-289.8,326.8z"/>
		<path class="st1" d="M-298.1,379.6c-0.7,0-1.1-0.4-1.1-1.1V329c0-0.7,0.4-1.1,1.1-1.1h8.3c0.7,0,1.1,0.4,1.1,1.1v49.5
			c0,0.7-0.4,1.1-1.1,1.1H-298.1z"/>
	</g>
	<g>
		<path class="st0" d="M-271.5,329v49.5h-8.3V329H-271.5 M-271.5,326.8h-8.3c-1.3,0-2.2,0.9-2.2,2.2v49.5c0,1.3,0.9,2.2,2.2,2.2h8.3
			c1.3,0,2.2-0.9,2.2-2.2V329C-269.3,327.9-270.4,326.8-271.5,326.8L-271.5,326.8z"/>
		<path class="st1" d="M-279.8,379.6c-0.7,0-1.1-0.4-1.1-1.1V329c0-0.7,0.4-1.1,1.1-1.1h8.3c0.7,0,1.1,0.4,1.1,1.1v49.5
			c0,0.7-0.4,1.1-1.1,1.1H-279.8z"/>
	</g>
	<g>
		<path class="st0" d="M-485.1,330.5l33,30.6v-29.7h8.5v49.8l-33-30.6v27.9h-8.5V330.5 M-485.1,328.4c-0.2,0-0.7,0-0.9,0.2
			c-0.9,0.4-1.3,1.1-1.3,2v48.2c0,1.3,0.9,2.2,2.2,2.2h8.5c1.3,0,2.2-0.9,2.2-2.2v-22.9l29.2,27.1c0.4,0.4,0.9,0.7,1.5,0.7
			c0.2,0,0.7,0,0.9-0.2c0.9-0.4,1.3-1.1,1.3-2v-49.8c0-1.3-0.9-2.2-2.2-2.2h-8.5c-1.3,0-2.2,0.9-2.2,2.2v24.7l-29.2-27.1
			C-484,328.6-484.7,328.4-485.1,328.4L-485.1,328.4z"/>
		<path class="st1" d="M-443.7,382.3c-0.2,0-0.4,0-0.7-0.2l-31.2-28.8v25.5c0,0.7-0.4,1.1-1.1,1.1h-8.5c-0.7,0-1.1-0.4-1.1-1.1
			v-48.2c0-0.4,0.2-0.9,0.7-1.1c0.2,0,0.2,0,0.4,0s0.4,0,0.7,0.2l31.2,28.8v-27.1c0-0.7,0.4-1.1,1.1-1.1h8.5c0.7,0,1.1,0.4,1.1,1.1
			v49.8c0,0.4-0.2,0.9-0.7,1.1C-443.4,382.3-443.4,382.3-443.7,382.3z"/>
	</g>
	<g>
		<path class="st1" d="M-263.6,381.4c-2.8,0-5.2-2.4-5.2-5.2c0-2.8,2.4-5.2,5.2-5.2c2.8,0,5.2,2.4,5.2,5.2
			C-258.4,379-260.8,381.4-263.6,381.4z"/>
		<path class="st0" d="M-263.6,371.8c2.2,0,4.1,1.7,4.1,4.1s-1.7,4.1-4.1,4.1c-2.2,0-4.1-1.7-4.1-4.1
			C-267.8,373.7-265.8,371.8-263.6,371.8L-263.6,371.8 M-263.6,379.6c2,0,3.3-1.7,3.3-3.7c0-2-1.5-3.7-3.5-3.7l0,0
			c-2,0-3.5,1.5-3.5,3.7C-266.9,378.1-265.6,379.6-263.6,379.6L-263.6,379.6 M-263.8,373.7c0.7,0,1.1,0.2,1.3,0.4s0.4,0.4,0.4,0.9
			c0,0.7-0.4,1.1-0.9,1.1l0,0c0.4,0,0.7,0.4,0.9,1.1s0.2,1.1,0.2,1.1h-0.7c-0.2-0.2-0.2-0.7-0.4-1.1c-0.2-0.7-0.4-0.9-1.1-0.9h-0.7
			v2h-0.7v-4.6C-264.5,373.7-264.3,373.7-263.8,373.7 M-264.5,375.9h0.7c0.7,0,1.3-0.2,1.3-0.9c0-0.4-0.2-0.9-1.3-0.9
			c-0.2,0-0.4,0-0.4,0v1.7 M-263.6,369.6L-263.6,369.6c-3.5,0-6.3,2.8-6.3,6.3c0,3.5,2.8,6.3,6.3,6.3c3.5,0,6.3-2.8,6.3-6.3
			C-257.3,372.4-260.1,369.6-263.6,369.6L-263.6,369.6z"/>
	</g>
</g>
</svg>
