<?xml version="1.0" encoding="utf-8"?>
<!-- Generator: Adobe Illustrator 19.0.0, SVG Export Plug-In . SVG Version: 6.00 Build 0)  -->
<svg version="1.1" id="Capa_1" xmlns="http://www.w3.org/2000/svg" xmlns:xlink="http://www.w3.org/1999/xlink" x="0px" y="0px"
	 viewBox="0 0 154.9 74.3" style="enable-background:new 0 0 154.9 74.3;" xml:space="preserve">
<style type="text/css">
	.st0{opacity:0.5;fill:#FFFFFF;}
	.st1{fill:#F4941B;}
	.st2{fill:#FFFFFF;}
</style>
<g id="XMLID_644_">
	<rect id="XMLID_435_" x="0" y="0" class="st0" width="154.9" height="74.3"/>
	<rect id="XMLID_430_" x="0" y="0" class="st1" width="154.9" height="48.2"/>
	<g id="XMLID_1_">
		<path id="XMLID_2_" d="M38.5,57.5h3.1c0.6,0,1.1,0,1.4,0.1c0.3,0.1,0.6,0.2,0.8,0.3c0.2,0.2,0.4,0.4,0.6,0.7
			c0.2,0.3,0.2,0.6,0.2,0.9c0,0.4-0.1,0.7-0.3,1c-0.2,0.3-0.5,0.5-0.8,0.7c0.5,0.1,0.8,0.4,1.1,0.7s0.4,0.7,0.4,1.2
			c0,0.4-0.1,0.7-0.3,1c-0.2,0.3-0.4,0.6-0.7,0.8s-0.6,0.3-1.1,0.4c-0.3,0-0.9,0-1.9,0.1h-2.7V57.5z M40.1,58.8v1.8h1
			c0.6,0,1,0,1.2,0c0.3,0,0.5-0.1,0.6-0.3c0.2-0.2,0.2-0.4,0.2-0.6c0-0.2-0.1-0.4-0.2-0.6c-0.1-0.2-0.3-0.2-0.6-0.3
			c-0.2,0-0.6,0-1.4,0H40.1z M40.1,61.9V64h1.5c0.6,0,0.9,0,1.1,0c0.2,0,0.4-0.1,0.6-0.3c0.1-0.2,0.2-0.4,0.2-0.7
			c0-0.2-0.1-0.4-0.2-0.6c-0.1-0.2-0.3-0.3-0.5-0.4s-0.7-0.1-1.4-0.1H40.1z"/>
		<path id="XMLID_6_" d="M46.4,65.3v-7.9H48v7.9H46.4z"/>
		<path id="XMLID_9_" d="M49.5,57.5h3.1c0.6,0,1.1,0,1.4,0.1c0.3,0.1,0.6,0.2,0.8,0.3c0.2,0.2,0.4,0.4,0.6,0.7
			c0.2,0.3,0.2,0.6,0.2,0.9c0,0.4-0.1,0.7-0.3,1c-0.2,0.3-0.5,0.5-0.8,0.7c0.5,0.1,0.8,0.4,1.1,0.7s0.4,0.7,0.4,1.2
			c0,0.4-0.1,0.7-0.3,1c-0.2,0.3-0.4,0.6-0.7,0.8s-0.6,0.3-1.1,0.4c-0.3,0-0.9,0-1.9,0.1h-2.7V57.5z M51.1,58.8v1.8h1
			c0.6,0,1,0,1.2,0c0.3,0,0.5-0.1,0.6-0.3c0.2-0.2,0.2-0.4,0.2-0.6c0-0.2-0.1-0.4-0.2-0.6c-0.1-0.2-0.3-0.2-0.6-0.3
			c-0.2,0-0.6,0-1.4,0H51.1z M51.1,61.9V64h1.5c0.6,0,0.9,0,1.1,0c0.2,0,0.4-0.1,0.6-0.3c0.1-0.2,0.2-0.4,0.2-0.7
			c0-0.2-0.1-0.4-0.2-0.6c-0.1-0.2-0.3-0.3-0.5-0.4s-0.7-0.1-1.4-0.1H51.1z"/>
		<path id="XMLID_13_" d="M57.5,65.3v-7.8h1.6V64h4v1.3H57.5z"/>
		<path id="XMLID_15_" d="M64.1,65.3v-7.9h1.6v7.9H64.1z"/>
		<path id="XMLID_17_" d="M66.9,61.4c0-0.8,0.1-1.5,0.4-2c0.2-0.4,0.4-0.8,0.7-1.1c0.3-0.3,0.6-0.6,1-0.7c0.5-0.2,1.1-0.3,1.7-0.3
			c1.2,0,2.1,0.4,2.8,1.1s1,1.7,1,3c0,1.3-0.3,2.3-1,3c-0.7,0.7-1.6,1.1-2.8,1.1c-1.2,0-2.1-0.4-2.8-1.1
			C67.3,63.7,66.9,62.7,66.9,61.4z M68.6,61.4c0,0.9,0.2,1.6,0.6,2c0.4,0.5,0.9,0.7,1.6,0.7c0.6,0,1.2-0.2,1.6-0.7
			c0.4-0.5,0.6-1.1,0.6-2.1c0-0.9-0.2-1.6-0.6-2s-0.9-0.7-1.6-0.7c-0.7,0-1.2,0.2-1.6,0.7S68.6,60.5,68.6,61.4z"/>
		<path id="XMLID_20_" d="M79.5,62.4v-1.3h3.4v3.1c-0.3,0.3-0.8,0.6-1.4,0.9s-1.3,0.4-1.9,0.4c-0.8,0-1.5-0.2-2.2-0.5
			c-0.6-0.3-1.1-0.8-1.4-1.5c-0.3-0.6-0.5-1.3-0.5-2.1c0-0.8,0.2-1.5,0.5-2.2c0.3-0.6,0.8-1.1,1.5-1.5c0.5-0.3,1.1-0.4,1.9-0.4
			c1,0,1.7,0.2,2.3,0.6s0.9,1,1.1,1.7l-1.6,0.3c-0.1-0.4-0.3-0.7-0.6-0.9c-0.3-0.2-0.7-0.3-1.1-0.3c-0.7,0-1.2,0.2-1.7,0.7
			c-0.4,0.4-0.6,1.1-0.6,2c0,0.9,0.2,1.6,0.6,2.1c0.4,0.5,1,0.7,1.6,0.7c0.3,0,0.7-0.1,1-0.2c0.3-0.1,0.6-0.3,0.9-0.5v-1H79.5z"/>
		<path id="XMLID_22_" d="M84.4,65.3v-7.9h3.3c0.8,0,1.5,0.1,1.8,0.2c0.4,0.1,0.7,0.4,0.9,0.8c0.2,0.4,0.3,0.8,0.3,1.2
			c0,0.6-0.2,1.1-0.5,1.5s-0.9,0.6-1.6,0.7c0.3,0.2,0.6,0.4,0.9,0.7s0.5,0.7,0.9,1.3l1,1.5h-1.9l-1.1-1.7c-0.4-0.6-0.7-1-0.8-1.2
			s-0.3-0.3-0.5-0.3c-0.2-0.1-0.4-0.1-0.8-0.1H86v3.3H84.4z M86,60.8h1.2c0.8,0,1.2,0,1.4-0.1c0.2-0.1,0.3-0.2,0.4-0.3
			s0.2-0.4,0.2-0.6c0-0.3-0.1-0.5-0.2-0.6s-0.3-0.3-0.6-0.3c-0.1,0-0.5,0-1.2,0H86V60.8z"/>
		<path id="XMLID_28_" d="M99.4,65.3h-1.7L97,63.5h-3.1l-0.6,1.8h-1.7l3.1-7.9h1.7L99.4,65.3z M96.5,62.2l-1.1-2.9l-1.1,2.9H96.5z"
			/>
		<path id="XMLID_31_" d="M100.3,65.3v-7.9h5.4v1.3h-3.8v1.9h3.3V62h-3.3v3.3H100.3z"/>
		<path id="XMLID_33_" d="M106.7,57l0.7-1.6h1.7l-1.5,1.6H106.7z M106.9,65.3v-7.9h1.6v7.9H106.9z"/>
		<path id="XMLID_36_" d="M117.1,65.3h-1.7l-0.7-1.8h-3.1l-0.6,1.8h-1.7l3.1-7.9h1.7L117.1,65.3z M114.2,62.2l-1.1-2.9l-1.1,2.9
			H114.2z"/>
	</g>
	<g id="XMLID_8_">
		<path id="XMLID_24_" class="st2" d="M63.6,14.3l7,2.4c0.6,0.3,3.3,1.3,8.2,0c6.2-1.5,19.5-4.2,19.7-4.2L98,10c0,0,0,0-0.1,0
			L85.2,8.2c-1.4-0.2-3.7-0.1-5,0.1l-17,3.3c-2.2-0.1-4.3,1.2-5,3.5c-0.4,1.3-0.3,2.6,0.3,3.8c0.3,0.6,0.7,1.1,1.3,1.6
			c-0.8,0.6-1.4,1.4-1.7,2.4c-0.4,1.3-0.3,2.6,0.3,3.8c0.3,0.6,0.8,1.2,1.3,1.6c-0.8,0.6-1.3,1.4-1.7,2.4c-0.4,1.3-0.3,2.6,0.3,3.8
			c0.6,1.2,1.6,2.1,2.9,2.5l12.3,3.9c0.7,0.2,1.8,0.3,2.5,0.1L97.5,36c0,0-0.1-0.6-0.3-1.2c-0.2-0.7-0.8-1.1-1.5-1l-19.6,4.5
			c-0.7,0.2-1.8,0.1-2.5-0.1L62,34.5c-0.6-0.2-1.1-0.6-1.4-1.2c-0.3-0.6-0.4-1.2-0.2-1.9c0.4-1.3,1.8-2,3.1-1.6c0,0,7.1,2.3,10,3.2
			c0.7,0.2,1.8,0.3,2.5,0.1l21.5-4.9c0,0-0.1-0.6-0.3-1.3c-0.2-0.7-0.8-1.1-1.5-1l-19.6,4.5c-0.7,0.2-1.8,0.1-2.5-0.1L62,26.7
			c-0.6-0.2-1.1-0.6-1.4-1.2c-0.3-0.6-0.4-1.2-0.2-1.9c0.4-1.3,1.8-2,3.1-1.6c0,0,7.2,2.3,10.1,3.2c0.7,0.2,1.8,0.3,2.5,0.1
			l21.5-4.9c0,0-0.1-0.6-0.3-1.3c-0.2-0.7-0.8-1.1-1.5-1l-19.6,4.5c-0.7,0.2-1.8,0.1-2.5-0.1l-11.6-3.7c-0.6-0.2-1.1-0.6-1.4-1.2
			c-0.3-0.6-0.4-1.2-0.2-1.9C60.9,14.6,62.3,13.9,63.6,14.3L63.6,14.3z M63.6,14.3"/>
	</g>
</g>
</svg>
