<?xml version="1.0" encoding="utf-8"?>
<!-- Generator: Adobe Illustrator 19.0.0, SVG Export Plug-In . SVG Version: 6.00 Build 0)  -->
<svg version="1.1" id="Capa_1" xmlns="http://www.w3.org/2000/svg" xmlns:xlink="http://www.w3.org/1999/xlink" x="0px" y="0px"
	 viewBox="-361 204.3 236.9 153.7" style="enable-background:new -361 204.3 236.9 153.7;" xml:space="preserve">
<style type="text/css">
	.st0{fill:#F4941B;}
	.st1{fill:#FFFFFF;}
</style>
<rect id="XMLID_224_" x="-360.9" y="204.2" class="st0" width="236.9" height="153.7"/>
<path id="XMLID_585_" d="M-308.8,332.7c-0.9,1.6-2,3.2-3.4,4.6c-4,4-8.8,6-14.3,6c-5.4,0-10.1-2-14.1-5.9c-1.4-1.4-2.6-3-3.5-4.6
	H-361V358h237v-25.2h-184.8V332.7z"/>
<g id="XMLID_41_">
	<path id="XMLID_42_" class="st1" d="M-333.2,330v-15.4h6.6c1.6,0,2.8,0.1,3.6,0.4c0.7,0.3,1.3,0.8,1.8,1.5s0.7,1.5,0.7,2.4
		c0,1.2-0.3,2.1-1,2.9c-0.7,0.8-1.7,1.2-3.1,1.4c0.7,0.4,1.2,0.8,1.7,1.3c0.4,0.5,1,1.3,1.8,2.5l1.9,3h-3.7l-2.3-3.4
		c-0.8-1.2-1.3-2-1.6-2.3c-0.3-0.3-0.6-0.5-0.9-0.6c-0.3-0.1-0.9-0.2-1.6-0.2h-0.6v6.4L-333.2,330L-333.2,330z M-330,321.1h2.3
		c1.5,0,2.4-0.1,2.8-0.2c0.4-0.1,0.7-0.3,0.9-0.7c0.2-0.3,0.3-0.7,0.3-1.2s-0.1-0.9-0.4-1.3c-0.3-0.3-0.7-0.5-1.2-0.6
		c-0.3,0-1-0.1-2.3-0.1h-2.4V321.1L-330,321.1z"/>
</g>
<g id="XMLID_11_">
	<g id="XMLID_732_">
		<path id="XMLID_779_" class="st1" d="M-299,324.6v-11.5h4.9c1.2,0,2.1,0.1,2.7,0.3c0.6,0.2,1,0.6,1.3,1.1s0.5,1.1,0.5,1.8
			c0,0.9-0.3,1.6-0.8,2.1s-1.3,0.9-2.3,1.1c0.5,0.3,0.9,0.6,1.2,1c0.3,0.4,0.8,1,1.3,1.9l1.4,2.2h-2.8l-1.7-2.5
			c-0.6-0.9-1-1.5-1.2-1.7s-0.5-0.4-0.7-0.5c-0.2-0.1-0.6-0.1-1.2-0.1h-0.5v4.8L-299,324.6L-299,324.6z M-296.6,318h1.7
			c1.1,0,1.8,0,2.1-0.1c0.3-0.1,0.5-0.3,0.7-0.5s0.2-0.5,0.2-0.9c0-0.4-0.1-0.7-0.3-0.9c-0.2-0.2-0.5-0.4-0.9-0.5
			c-0.2,0-0.8,0-1.7,0h-1.8L-296.6,318L-296.6,318z"/>
		<path id="XMLID_776_" class="st1" d="M-282.6,322l2.2,0.4c-0.3,0.8-0.7,1.4-1.3,1.8c-0.6,0.4-1.4,0.6-2.3,0.6
			c-1.4,0-2.5-0.5-3.2-1.4c-0.5-0.8-0.8-1.7-0.8-2.9c0-1.4,0.4-2.5,1.1-3.2c0.7-0.8,1.6-1.2,2.7-1.2c1.2,0,2.2,0.4,2.9,1.2
			c0.7,0.8,1.1,2.1,1,3.8h-5.5c0,0.7,0.2,1.2,0.5,1.5c0.3,0.4,0.8,0.5,1.3,0.5c0.3,0,0.6-0.1,0.9-0.3
			C-282.9,322.7-282.7,322.4-282.6,322z M-282.5,319.7c0-0.6-0.2-1.1-0.5-1.5c-0.3-0.3-0.7-0.5-1.1-0.5c-0.5,0-0.9,0.2-1.2,0.5
			c-0.3,0.3-0.5,0.8-0.5,1.4L-282.5,319.7L-282.5,319.7z"/>
		<path id="XMLID_773_" class="st1" d="M-278.7,325.2l2.5,0.3c0,0.3,0.1,0.5,0.3,0.6c0.2,0.2,0.5,0.2,1,0.2c0.6,0,1-0.1,1.3-0.3
			c0.2-0.1,0.3-0.3,0.4-0.6c0.1-0.2,0.1-0.5,0.1-1v-1.2c-0.7,0.9-1.5,1.3-2.5,1.3c-1.1,0-2-0.5-2.7-1.4c-0.5-0.7-0.8-1.7-0.8-2.8
			c0-1.4,0.3-2.5,1-3.2s1.5-1.1,2.5-1.1s1.9,0.5,2.5,1.4v-1.2h2.1v7.5c0,1-0.1,1.7-0.2,2.2c-0.2,0.5-0.4,0.9-0.7,1.1
			c-0.3,0.3-0.7,0.5-1.2,0.7s-1.1,0.2-1.9,0.2c-1.4,0-2.4-0.2-3-0.7s-0.9-1.1-0.9-1.8C-278.7,325.3-278.7,325.3-278.7,325.2z
			 M-276.7,320.3c0,0.9,0.2,1.5,0.5,1.9c0.3,0.4,0.8,0.6,1.3,0.6s1-0.2,1.4-0.6c0.4-0.4,0.6-1,0.6-1.9c0-0.9-0.2-1.5-0.5-1.9
			c-0.4-0.4-0.8-0.6-1.3-0.6s-1,0.2-1.3,0.6C-276.5,318.8-276.7,319.4-276.7,320.3z"/>
		<path id="XMLID_770_" class="st1" d="M-268.7,315.2v-2h2.2v2H-268.7z M-268.7,324.6v-8.3h2.2v8.3H-268.7z"/>
		<path id="XMLID_768_" class="st1" d="M-265,322.2l2.2-0.3c0.1,0.4,0.3,0.8,0.6,1c0.3,0.2,0.7,0.3,1.2,0.3c0.6,0,1-0.1,1.3-0.3
			c0.2-0.1,0.3-0.3,0.3-0.6c0-0.2-0.1-0.3-0.2-0.4c-0.1-0.1-0.4-0.2-0.7-0.3c-1.8-0.4-2.9-0.7-3.4-1.1c-0.7-0.4-1-1.1-1-1.9
			c0-0.7,0.3-1.3,0.9-1.8s1.5-0.7,2.6-0.7s2,0.2,2.5,0.6c0.6,0.4,0.9,0.9,1.1,1.6l-2.1,0.4c-0.1-0.3-0.3-0.6-0.5-0.7
			c-0.2-0.2-0.6-0.3-1.1-0.3c-0.6,0-1,0.1-1.2,0.2c-0.2,0.1-0.3,0.3-0.3,0.4c0,0.2,0.1,0.3,0.2,0.4c0.2,0.1,0.9,0.4,2.1,0.6
			c1.2,0.3,2,0.6,2.5,1c0.5,0.4,0.7,0.9,0.7,1.6c0,0.8-0.3,1.4-1,2c-0.6,0.5-1.6,0.8-2.8,0.8c-1.1,0-2-0.2-2.7-0.7
			S-264.8,323-265,322.2z"/>
		<path id="XMLID_766_" class="st1" d="M-251.5,316.3v1.8h-1.5v3.4c0,0.7,0,1.1,0,1.2c0,0.1,0.1,0.2,0.2,0.3s0.2,0.1,0.4,0.1
			c0.2,0,0.5-0.1,0.9-0.2l0.2,1.7c-0.5,0.2-1.1,0.3-1.7,0.3c-0.4,0-0.8-0.1-1.1-0.2c-0.3-0.1-0.6-0.3-0.7-0.5s-0.3-0.5-0.3-0.9
			c0-0.3-0.1-0.8-0.1-1.6V318h-1v-1.8h1v-1.7l2.2-1.3v2.9h1.5V316.3z"/>
		<path id="XMLID_763_" class="st1" d="M-245.1,322l2.2,0.4c-0.3,0.8-0.7,1.4-1.3,1.8c-0.6,0.4-1.4,0.6-2.3,0.6
			c-1.4,0-2.5-0.5-3.2-1.4c-0.5-0.8-0.8-1.7-0.8-2.9c0-1.4,0.4-2.5,1.1-3.2c0.7-0.8,1.6-1.2,2.7-1.2c1.2,0,2.2,0.4,2.9,1.2
			c0.7,0.8,1.1,2.1,1,3.8h-5.5c0,0.7,0.2,1.2,0.5,1.5c0.3,0.4,0.8,0.5,1.3,0.5c0.3,0,0.6-0.1,0.9-0.3
			C-245.4,322.7-245.2,322.4-245.1,322z M-245,319.7c0-0.6-0.2-1.1-0.5-1.5c-0.3-0.3-0.7-0.5-1.1-0.5c-0.5,0-0.9,0.2-1.2,0.5
			c-0.3,0.3-0.5,0.8-0.5,1.4L-245,319.7L-245,319.7z"/>
		<path id="XMLID_761_" class="st1" d="M-238.9,324.6h-2.2v-8.3h2v1.2c0.3-0.6,0.7-0.9,0.9-1.1s0.6-0.3,1-0.3c0.5,0,1,0.1,1.4,0.4
			l-0.7,1.9c-0.4-0.2-0.7-0.4-1-0.4s-0.6,0.1-0.8,0.3c-0.2,0.2-0.4,0.5-0.5,0.9c-0.1,0.4-0.2,1.4-0.2,2.8L-238.9,324.6L-238.9,324.6
			z"/>
		<path id="XMLID_758_" class="st1" d="M-229.9,322l2.2,0.4c-0.3,0.8-0.7,1.4-1.3,1.8c-0.6,0.4-1.4,0.6-2.3,0.6
			c-1.4,0-2.5-0.5-3.2-1.4c-0.5-0.8-0.8-1.7-0.8-2.9c0-1.4,0.4-2.5,1.1-3.2c0.7-0.8,1.6-1.2,2.7-1.2c1.2,0,2.2,0.4,2.9,1.2
			c0.7,0.8,1.1,2.1,1,3.8h-5.5c0,0.7,0.2,1.2,0.5,1.5c0.3,0.4,0.8,0.5,1.3,0.5c0.3,0,0.6-0.1,0.9-0.3
			C-230.2,322.7-230.1,322.4-229.9,322z M-229.8,319.7c0-0.6-0.2-1.1-0.5-1.5c-0.3-0.3-0.7-0.5-1.1-0.5c-0.5,0-0.9,0.2-1.2,0.5
			s-0.5,0.8-0.5,1.4L-229.8,319.7L-229.8,319.7z"/>
		<path id="XMLID_755_" class="st1" d="M-218.2,324.6h-2v-1.2c-0.3,0.5-0.7,0.8-1.2,1.1c-0.5,0.2-0.9,0.3-1.4,0.3
			c-1,0-1.8-0.4-2.5-1.2c-0.7-0.8-1-1.8-1-3.2c0-1.4,0.3-2.5,1-3.2s1.5-1.1,2.5-1.1c0.9,0,1.7,0.4,2.4,1.2v-4.1h2.2V324.6
			L-218.2,324.6z M-224.1,320.3c0,0.9,0.1,1.5,0.4,1.9c0.4,0.6,0.9,0.9,1.5,0.9c0.5,0,0.9-0.2,1.3-0.6c0.4-0.4,0.5-1.1,0.5-1.9
			c0-1-0.2-1.6-0.5-2.1c-0.3-0.4-0.8-0.6-1.3-0.6s-1,0.2-1.3,0.6C-223.9,318.8-224.1,319.4-224.1,320.3z"/>
		<path id="XMLID_753_" class="st1" d="M-207.8,316.3v1.8h-1.5v3.4c0,0.7,0,1.1,0,1.2c0,0.1,0.1,0.2,0.2,0.3s0.2,0.1,0.4,0.1
			c0.2,0,0.5-0.1,0.9-0.2l0.2,1.7c-0.5,0.2-1.1,0.3-1.7,0.3c-0.4,0-0.8-0.1-1.1-0.2c-0.3-0.1-0.6-0.3-0.7-0.5s-0.3-0.5-0.3-0.9
			c0-0.3-0.1-0.8-0.1-1.6V318h-1v-1.8h1v-1.7l2.2-1.3v2.9h1.5V316.3z"/>
		<path id="XMLID_751_" class="st1" d="M-204.1,324.6h-2.2v-8.3h2v1.2c0.3-0.6,0.7-0.9,0.9-1.1c0.3-0.2,0.6-0.3,1-0.3
			c0.5,0,1,0.1,1.4,0.4l-0.7,1.9c-0.4-0.2-0.7-0.4-1-0.4s-0.6,0.1-0.8,0.3c-0.2,0.2-0.4,0.5-0.5,0.9c-0.1,0.4-0.2,1.4-0.2,2.8
			L-204.1,324.6L-204.1,324.6z"/>
		<path id="XMLID_748_" class="st1" d="M-198.3,318.8l-2-0.4c0.2-0.8,0.6-1.4,1.2-1.8c0.5-0.4,1.4-0.6,2.4-0.6s1.7,0.1,2.2,0.3
			c0.5,0.2,0.8,0.5,1,0.9c0.2,0.4,0.3,1,0.3,2v2.6c0,0.7,0,1.3,0.1,1.6c0.1,0.3,0.2,0.7,0.4,1.1h-2.2c-0.1-0.1-0.1-0.4-0.2-0.7
			c0-0.1-0.1-0.2-0.1-0.3c-0.4,0.4-0.8,0.6-1.2,0.8c-0.4,0.2-0.9,0.3-1.4,0.3c-0.9,0-1.5-0.2-2-0.7s-0.7-1.1-0.7-1.8
			c0-0.5,0.1-0.9,0.3-1.3c0.2-0.4,0.5-0.7,0.9-0.8c0.4-0.2,1-0.4,1.8-0.5c1-0.2,1.7-0.4,2.1-0.5l0,0c0-0.4-0.1-0.7-0.3-0.9
			c-0.2-0.2-0.6-0.3-1.2-0.3c-0.4,0-0.7,0.1-0.9,0.2C-198,318.2-198.2,318.4-198.3,318.8z M-195.4,320.6c-0.3,0.1-0.7,0.2-1.3,0.3
			s-1,0.3-1.2,0.4c-0.3,0.2-0.4,0.5-0.4,0.8s0.1,0.6,0.3,0.8c0.2,0.2,0.5,0.3,0.9,0.3s0.8-0.1,1.1-0.4c0.3-0.2,0.4-0.4,0.5-0.7
			c0.1-0.2,0.1-0.5,0.1-1.1V320.6z"/>
		<path id="XMLID_745_" class="st1" d="M-183.4,324.6h-2v-1.2c-0.3,0.5-0.7,0.8-1.2,1.1c-0.5,0.2-0.9,0.3-1.4,0.3
			c-1,0-1.8-0.4-2.5-1.2c-0.7-0.8-1-1.8-1-3.2c0-1.4,0.3-2.5,1-3.2s1.5-1.1,2.5-1.1c0.9,0,1.7,0.4,2.4,1.2v-4.1h2.2V324.6
			L-183.4,324.6z M-189.3,320.3c0,0.9,0.1,1.5,0.4,1.9c0.4,0.6,0.9,0.9,1.5,0.9c0.5,0,0.9-0.2,1.3-0.6c0.4-0.4,0.5-1.1,0.5-1.9
			c0-1-0.2-1.6-0.5-2.1s-0.8-0.6-1.3-0.6s-1,0.2-1.3,0.6C-189.1,318.8-189.3,319.4-189.3,320.3z"/>
		<path id="XMLID_742_" class="st1" d="M-176.4,322l2.2,0.4c-0.3,0.8-0.7,1.4-1.3,1.8c-0.6,0.4-1.4,0.6-2.3,0.6
			c-1.4,0-2.5-0.5-3.2-1.4c-0.5-0.8-0.8-1.7-0.8-2.9c0-1.4,0.4-2.5,1.1-3.2c0.7-0.8,1.6-1.2,2.7-1.2c1.2,0,2.2,0.4,2.9,1.2
			c0.7,0.8,1.1,2.1,1,3.8h-5.5c0,0.7,0.2,1.2,0.5,1.5c0.3,0.4,0.8,0.5,1.3,0.5c0.3,0,0.6-0.1,0.9-0.3
			C-176.7,322.7-176.5,322.4-176.4,322z M-176.3,319.7c0-0.6-0.2-1.1-0.5-1.5c-0.3-0.3-0.7-0.5-1.1-0.5c-0.5,0-0.9,0.2-1.2,0.5
			c-0.3,0.3-0.5,0.8-0.5,1.4L-176.3,319.7L-176.3,319.7z"/>
		<path id="XMLID_740_" class="st1" d="M-172.5,316.3h2v1.1c0.7-0.9,1.6-1.3,2.6-1.3c0.5,0,1,0.1,1.4,0.3s0.7,0.6,1,1
			c0.4-0.4,0.8-0.8,1.2-1c0.4-0.2,0.9-0.3,1.4-0.3c0.6,0,1.1,0.1,1.6,0.4c0.4,0.2,0.7,0.6,0.9,1.1c0.2,0.4,0.2,0.9,0.2,1.7v5.3h-2.2
			v-4.8c0-0.8-0.1-1.4-0.2-1.6c-0.2-0.3-0.5-0.5-0.9-0.5c-0.3,0-0.6,0.1-0.9,0.3c-0.3,0.2-0.5,0.5-0.6,0.8c-0.1,0.4-0.2,0.9-0.2,1.7
			v4h-2.3V320c0-0.8,0-1.3-0.1-1.6c-0.1-0.2-0.2-0.4-0.4-0.5c-0.2-0.1-0.4-0.2-0.7-0.2c-0.3,0-0.6,0.1-0.9,0.3s-0.5,0.4-0.6,0.8
			c-0.1,0.3-0.2,0.9-0.2,1.7v4h-2.1V316.3L-172.5,316.3z"/>
		<path id="XMLID_737_" class="st1" d="M-156.4,318.8l-2-0.4c0.2-0.8,0.6-1.4,1.2-1.8c0.5-0.4,1.4-0.6,2.4-0.6s1.7,0.1,2.2,0.3
			c0.5,0.2,0.8,0.5,1,0.9c0.2,0.4,0.3,1,0.3,2v2.6c0,0.7,0,1.3,0.1,1.6c0.1,0.3,0.2,0.7,0.4,1.1h-2.2c-0.1-0.1-0.1-0.4-0.2-0.7
			c0-0.1-0.1-0.2-0.1-0.3c-0.4,0.4-0.8,0.6-1.2,0.8c-0.4,0.2-0.9,0.3-1.4,0.3c-0.9,0-1.5-0.2-2-0.7s-0.7-1.1-0.7-1.8
			c0-0.5,0.1-0.9,0.3-1.3c0.2-0.4,0.5-0.7,0.9-0.8c0.4-0.2,1-0.4,1.8-0.5c1-0.2,1.7-0.4,2.1-0.5l0,0c0-0.4-0.1-0.7-0.3-0.9
			c-0.2-0.2-0.6-0.3-1.2-0.3c-0.4,0-0.7,0.1-0.9,0.2C-156.1,318.2-156.3,318.4-156.4,318.8z M-153.5,320.6c-0.3,0.1-0.7,0.2-1.3,0.3
			s-1,0.3-1.2,0.4c-0.3,0.2-0.4,0.5-0.4,0.8s0.1,0.6,0.3,0.8c0.2,0.2,0.5,0.3,0.9,0.3s0.8-0.1,1.1-0.4c0.3-0.2,0.4-0.4,0.5-0.7
			c0.1-0.2,0.1-0.5,0.1-1.1V320.6z"/>
		<path id="XMLID_735_" class="st1" d="M-147,324.6h-2.2v-8.3h2v1.2c0.3-0.6,0.7-0.9,0.9-1.1c0.3-0.2,0.6-0.3,1-0.3
			c0.5,0,1,0.1,1.4,0.4l-0.7,1.9c-0.4-0.2-0.7-0.4-1-0.4s-0.6,0.1-0.8,0.3c-0.2,0.2-0.4,0.5-0.5,0.9c-0.1,0.4-0.2,1.4-0.2,2.8
			L-147,324.6L-147,324.6z"/>
		<path id="XMLID_733_" class="st1" d="M-143,324.6v-11.5h2.2v6.1l2.6-2.9h2.7l-2.8,3l3,5.3h-2.4l-2.1-3.7l-1,1.1v2.7L-143,324.6
			L-143,324.6z"/>
	</g>
</g>
<g id="XMLID_1_">
</g>
<g id="XMLID_359_">
</g>
<g id="XMLID_360_">
</g>
<g id="XMLID_361_">
</g>
<g id="XMLID_362_">
</g>
<g id="XMLID_363_">
</g>
<g id="XMLID_364_">
</g>
<g id="XMLID_365_">
</g>
<g id="XMLID_366_">
</g>
<g id="XMLID_367_">
</g>
<g id="XMLID_368_">
</g>
<g id="XMLID_369_">
</g>
<g id="XMLID_370_">
</g>
<g id="XMLID_371_">
</g>
<g id="XMLID_372_">
</g>
<g id="XMLID_149_">
	<path id="XMLID_150_" class="st1" d="M-316,311.3c3,3,4.5,6.7,4.5,11.1c0,4.4-1.5,8.1-4.5,11c-3.2,3.1-6.9,4.7-11.2,4.7
		c-4.3,0-7.9-1.5-11-4.6c-3.1-3.1-4.6-6.8-4.6-11.1s1.5-8,4.6-11.1c3-3,6.7-4.6,11-4.6C-322.7,306.7-319,308.3-316,311.3z
		 M-336.1,313.3c-2.6,2.6-3.8,5.6-3.8,9.1s1.3,6.5,3.8,9s5.6,3.8,9.1,3.8s6.6-1.3,9.1-3.8c2.5-2.4,3.7-5.4,3.7-9
		c0-3.6-1.3-6.6-3.7-9.1c-2.5-2.5-5.5-3.7-9.1-3.7C-330.6,309.6-333.6,310.8-336.1,313.3z"/>
</g>
<g id="XMLID_477_">
	<g id="XMLID_167_">
		<path id="XMLID_302_" class="st1" d="M-247.1,236.2h-6.7c-1,0-1.9,0.8-1.9,1.9c0,1,0.8,1.9,1.9,1.9h6.7c1,0,1.9-0.8,1.9-1.9
			C-245.3,237-246.1,236.2-247.1,236.2z"/>
		<path id="XMLID_297_" class="st1" d="M-247.1,243.9h-6.7c-1,0-1.9,0.8-1.9,1.9c0,1,0.8,1.9,1.9,1.9h6.7c1,0,1.9-0.8,1.9-1.9
			C-245.3,244.8-246.1,243.9-247.1,243.9z"/>
		<path id="XMLID_296_" class="st1" d="M-239.3,257v1.8h1c1.2,0,1.2-0.7,1.2-0.9c0-0.2,0-0.9-1.2-0.9H-239.3L-239.3,257z"/>
		<path id="XMLID_186_" class="st1" d="M-225.2,253.5h-3v-18.9c0-0.5-0.2-1-0.5-1.3l-7.3-7.3c-0.3-0.3-0.8-0.5-1.3-0.5h-22
			c-2,0-3.6,1.6-3.6,3.6v38.7c0,2,1.6,3.6,3.6,3.6h27.5c2,0,3.6-1.6,3.6-3.6v-3.7h3c1.6,0,2.9-1.3,2.9-2.9v-4.9
			C-222.3,254.8-223.6,253.5-225.2,253.5z M-232.1,267.5H-259v-37.9h19.1v5.4c0,1.3,1.1,2.4,2.4,2.4h5.4v16.2h-9.2
			c-1.6,0-2.9,1.3-2.9,2.9v4.9c0,1.6,1.3,2.9,2.9,2.9h9.2V267.5L-232.1,267.5z M-236,257.9c0,1.3-0.9,2.1-2.3,2.1h-1v1.1
			c0,0.3-0.2,0.5-0.5,0.5h-0.1c-0.3,0-0.5-0.2-0.5-0.5v-4.8c0-0.3,0.2-0.5,0.5-0.5h1.6C-236.9,255.8-236,256.6-236,257.9z
			 M-233.1,261.6h-1.9c-0.3,0-0.5-0.2-0.5-0.5v-4.8c0-0.3,0.2-0.5,0.5-0.5h1.9c1.6,0,3,1.3,3,2.9S-231.4,261.6-233.1,261.6z
			 M-225.6,256.4c0,0.3-0.2,0.5-0.5,0.5h-2.1v1.2h1.8c0.3,0,0.5,0.2,0.5,0.5v0.1c0,0.3-0.2,0.5-0.5,0.5h-1.8v1.7
			c0,0.3-0.2,0.5-0.5,0.5h-0.1c-0.3,0-0.5-0.2-0.5-0.5v-4.8c0-0.3,0.2-0.5,0.5-0.5h2.8c0.3,0,0.5,0.2,0.5,0.5L-225.6,256.4
			L-225.6,256.4z"/>
		<path id="XMLID_185_" class="st1" d="M-233.1,257h-1.2v3.4h1.2c1,0,1.8-0.8,1.8-1.7C-231.3,257.7-232.1,257-233.1,257z"/>
	</g>
</g>
<g>
	<path class="st1" d="M-297.6,278.5h2.9c0.7,0,1.2,0,1.5,0.2c0.5,0.1,0.9,0.4,1.2,0.7c0.3,0.3,0.6,0.8,0.8,1.3s0.3,1.1,0.3,1.9
		c0,0.6-0.1,1.2-0.2,1.7c-0.2,0.6-0.5,1-0.8,1.4c-0.3,0.3-0.6,0.5-1.1,0.6c-0.4,0.1-0.8,0.2-1.4,0.2h-3v-8H-297.6z M-296,279.8v5.2
		h1.2c0.4,0,0.8,0,1-0.1c0.3-0.1,0.5-0.2,0.6-0.3c0.1-0.1,0.3-0.4,0.4-0.8c0.1-0.4,0.2-0.8,0.2-1.4c0-0.6-0.1-1.1-0.2-1.4
		c-0.1-0.3-0.3-0.6-0.5-0.8c-0.2-0.2-0.4-0.3-0.7-0.4c-0.2,0-0.7-0.1-1.3-0.1L-296,279.8L-296,279.8z"/>
	<path class="st1" d="M-289.6,286.3v-7.9h5.8v1.3h-4.2v1.7h4v1.3h-4v2.1h4.4v1.3h-6V286.3z"/>
	<path class="st1" d="M-282.7,283.8l1.5-0.2c0.1,0.5,0.3,0.9,0.6,1.1c0.3,0.2,0.7,0.4,1.2,0.4s0.9-0.1,1.2-0.3
		c0.3-0.2,0.4-0.5,0.4-0.8c0-0.2-0.1-0.3-0.2-0.5s-0.3-0.2-0.6-0.3c-0.2-0.1-0.6-0.2-1.3-0.3c-0.9-0.2-1.5-0.5-1.8-0.8
		c-0.5-0.4-0.7-1-0.7-1.6c0-0.4,0.1-0.8,0.3-1.1c0.2-0.3,0.6-0.6,1-0.8c0.4-0.2,0.9-0.3,1.5-0.3c1,0,1.7,0.2,2.2,0.6
		c0.5,0.4,0.8,1,0.8,1.7l-1.6,0.1c-0.1-0.4-0.2-0.7-0.4-0.9c-0.2-0.2-0.6-0.3-1-0.3c-0.5,0-0.8,0.1-1.1,0.3
		c-0.2,0.1-0.3,0.3-0.3,0.5s0.1,0.3,0.2,0.5c0.2,0.2,0.7,0.3,1.5,0.5s1.3,0.4,1.7,0.6c0.4,0.2,0.7,0.5,0.9,0.8
		c0.2,0.3,0.3,0.8,0.3,1.3s-0.1,0.9-0.4,1.3c-0.3,0.4-0.6,0.7-1.1,0.9c-0.5,0.2-1,0.3-1.7,0.3c-1,0-1.8-0.2-2.3-0.7
		S-282.6,284.7-282.7,283.8z"/>
	<path class="st1" d="M-269.9,283.4l1.5,0.5c-0.2,0.9-0.6,1.5-1.2,1.9c-0.6,0.4-1.2,0.6-2.1,0.6c-1,0-1.9-0.4-2.6-1.1s-1-1.7-1-2.9
		c0-1.3,0.3-2.3,1-3.1c0.7-0.7,1.6-1.1,2.7-1.1c1,0,1.7,0.3,2.3,0.9c0.4,0.3,0.6,0.8,0.8,1.5l-1.6,0.4c-0.1-0.4-0.3-0.7-0.6-1
		c-0.3-0.2-0.7-0.4-1.1-0.4c-0.6,0-1.1,0.2-1.4,0.6c-0.4,0.4-0.5,1.1-0.5,2c0,1,0.2,1.7,0.5,2.1c0.3,0.4,0.8,0.6,1.4,0.6
		c0.4,0,0.8-0.1,1.1-0.4C-270.3,284.4-270.1,284-269.9,283.4z"/>
	<path class="st1" d="M-259.9,286.3h-1.7l-0.7-1.8h-3.2l-0.6,1.8h-1.7l3.1-7.9h1.7L-259.9,286.3z M-262.9,283.2l-1.1-2.9l-1.1,2.9
		H-262.9z"/>
	<path class="st1" d="M-259.1,286.3v-7.9h3.3c0.8,0,1.5,0.1,1.8,0.2c0.4,0.1,0.7,0.4,0.9,0.8c0.2,0.4,0.3,0.8,0.3,1.2
		c0,0.6-0.2,1.1-0.5,1.5c-0.3,0.4-0.9,0.6-1.6,0.7c0.3,0.2,0.6,0.4,0.9,0.7c0.3,0.3,0.5,0.7,0.9,1.3l1,1.5h-1.9l-1.1-1.7
		c-0.4-0.6-0.7-1-0.8-1.2s-0.3-0.3-0.5-0.3c-0.2-0.1-0.4-0.1-0.8-0.1h-0.3v3.3H-259.1z M-257.5,281.8h1.2c0.8,0,1.2,0,1.4-0.1
		c0.2-0.1,0.3-0.2,0.4-0.3s0.2-0.4,0.2-0.6c0-0.3-0.1-0.5-0.2-0.6c-0.1-0.1-0.3-0.3-0.6-0.3c-0.1,0-0.5,0-1.2,0h-1.2V281.8z"/>
	<path class="st1" d="M-247.5,283.4v-1.3h3.4v3.1c-0.3,0.3-0.8,0.6-1.4,0.9s-1.3,0.4-1.9,0.4c-0.8,0-1.5-0.2-2.2-0.5
		c-0.6-0.3-1.1-0.8-1.4-1.5s-0.5-1.3-0.5-2.1s0.2-1.5,0.5-2.2c0.3-0.6,0.8-1.1,1.5-1.5c0.5-0.3,1.1-0.4,1.9-0.4c1,0,1.7,0.2,2.3,0.6
		c0.6,0.4,0.9,1,1.1,1.7l-1.6,0.3c-0.1-0.4-0.3-0.7-0.6-0.9c-0.3-0.2-0.7-0.3-1.1-0.3c-0.7,0-1.2,0.2-1.7,0.7
		c-0.4,0.4-0.6,1.1-0.6,2c0,0.9,0.2,1.6,0.6,2.1s1,0.7,1.6,0.7c0.3,0,0.7-0.1,1-0.2c0.3-0.1,0.6-0.3,0.9-0.5v-1h-1.8V283.4z"/>
	<path class="st1" d="M-235.5,286.3h-1.7l-0.7-1.8h-3.1l-0.6,1.8h-1.7l3.1-7.9h1.7L-235.5,286.3z M-238.4,283.2l-1.1-2.9l-1.1,2.9
		H-238.4z"/>
	<path class="st1" d="M-234.6,286.3v-7.9h3.3c0.8,0,1.5,0.1,1.8,0.2c0.4,0.1,0.7,0.4,0.9,0.8c0.2,0.4,0.3,0.8,0.3,1.2
		c0,0.6-0.2,1.1-0.5,1.5c-0.3,0.4-0.9,0.6-1.6,0.7c0.3,0.2,0.6,0.4,0.9,0.7c0.3,0.3,0.5,0.7,0.9,1.3l1,1.5h-1.9l-1.1-1.7
		c-0.4-0.6-0.7-1-0.8-1.2s-0.3-0.3-0.5-0.3c-0.2-0.1-0.4-0.1-0.8-0.1h-0.3v3.3H-234.6z M-233,281.8h1.2c0.8,0,1.2,0,1.4-0.1
		c0.2-0.1,0.3-0.2,0.4-0.3s0.2-0.4,0.2-0.6c0-0.3-0.1-0.5-0.2-0.6c-0.1-0.1-0.3-0.3-0.6-0.3c-0.1,0-0.5,0-1.2,0h-1.2L-233,281.8
		L-233,281.8z"/>
	<path class="st1" d="M-223.6,286.3v-7.9h5.8v1.3h-4.2v1.7h4v1.3h-4v2.1h4.4v1.3h-6V286.3z"/>
	<path class="st1" d="M-216.3,286.3v-7.9h1.5l3.2,5.3v-5.3h1.5v7.9h-1.6l-3.2-5.1v5.1H-216.3z"/>
	<path class="st1" d="M-205.3,286.3v-7.9h2.6c1,0,1.6,0,1.9,0.1c0.5,0.1,0.8,0.4,1.1,0.8c0.3,0.4,0.5,0.9,0.5,1.5
		c0,0.5-0.1,0.9-0.3,1.2c-0.2,0.3-0.4,0.6-0.7,0.8c-0.3,0.2-0.5,0.3-0.8,0.4c-0.4,0.1-0.9,0.1-1.6,0.1h-1v3H-205.3z M-203.7,279.8
		v2.2h0.9c0.6,0,1,0,1.3-0.1c0.2-0.1,0.4-0.2,0.5-0.4s0.2-0.4,0.2-0.6c0-0.3-0.1-0.5-0.3-0.7c-0.2-0.2-0.4-0.3-0.6-0.3
		s-0.6-0.1-1.1-0.1H-203.7z"/>
	<path class="st1" d="M-198,278.5h2.9c0.7,0,1.2,0,1.5,0.2c0.5,0.1,0.9,0.4,1.2,0.7c0.3,0.3,0.6,0.8,0.8,1.3s0.3,1.1,0.3,1.9
		c0,0.6-0.1,1.2-0.2,1.7c-0.2,0.6-0.5,1-0.8,1.4c-0.3,0.3-0.6,0.5-1.1,0.6c-0.4,0.1-0.8,0.2-1.4,0.2h-3v-8H-198z M-196.4,279.8v5.2
		h1.2c0.4,0,0.8,0,1-0.1c0.3-0.1,0.5-0.2,0.6-0.3s0.3-0.4,0.4-0.8c0.1-0.4,0.2-0.8,0.2-1.4c0-0.6-0.1-1.1-0.2-1.4s-0.3-0.6-0.5-0.8
		c-0.2-0.2-0.4-0.3-0.7-0.4c-0.2,0-0.7-0.1-1.3-0.1L-196.4,279.8L-196.4,279.8z"/>
	<path class="st1" d="M-190,286.3v-7.9h5.4v1.3h-3.8v1.9h3.3v1.3h-3.3v3.3h-1.6V286.3z"/>
</g>
</svg>
