<?xml version="1.0" encoding="utf-8"?>
<!-- Generator: Adobe Illustrator 19.0.0, SVG Export Plug-In . SVG Version: 6.00 Build 0)  -->
<svg version="1.1" id="Capa_1" xmlns="http://www.w3.org/2000/svg" xmlns:xlink="http://www.w3.org/1999/xlink" x="0px" y="0px"
	 viewBox="0 0 154.9 74.3" style="enable-background:new 0 0 154.9 74.3;" xml:space="preserve">
<style type="text/css">
	.st0{opacity:0.5;fill:#FFFFFF;}
	.st1{fill:#FFFFFF;}
</style>
<g id="XMLID_472_">
	<rect id="XMLID_72_" x="0" y="0" class="st0" width="154.9" height="74.3"/>
	<rect id="XMLID_56_" x="0" y="0" width="154.9" height="48.2"/>
	<g id="XMLID_1_">
		<path id="XMLID_2_" d="M18.7,65.3v-7.9h2.4l1.4,5.4l1.4-5.4h2.4v7.9h-1.5v-6.2l-1.6,6.2h-1.5l-1.6-6.2v6.2H18.7z"/>
		<path id="XMLID_4_" d="M35,65.3h-1.7l-0.7-1.8h-3.1l-0.6,1.8h-1.7l3.1-7.9h1.7L35,65.3z M32.1,62.2L31,59.3L30,62.2H32.1z"/>
		<path id="XMLID_7_" d="M35.9,65.3v-7.9h2.6c1,0,1.6,0,1.9,0.1c0.5,0.1,0.8,0.4,1.1,0.8c0.3,0.4,0.5,0.9,0.5,1.5
			c0,0.5-0.1,0.9-0.3,1.2c-0.2,0.3-0.4,0.6-0.7,0.8c-0.3,0.2-0.5,0.3-0.8,0.4c-0.4,0.1-0.9,0.1-1.6,0.1h-1v3H35.9z M37.5,58.8V61
			h0.9c0.6,0,1,0,1.3-0.1c0.2-0.1,0.4-0.2,0.5-0.4c0.1-0.2,0.2-0.4,0.2-0.6c0-0.3-0.1-0.5-0.3-0.7c-0.2-0.2-0.4-0.3-0.6-0.3
			c-0.2,0-0.6-0.1-1.1-0.1H37.5z"/>
		<path id="XMLID_10_" d="M49.5,65.3h-1.7l-0.7-1.8h-3.1l-0.6,1.8h-1.7l3.1-7.9h1.7L49.5,65.3z M46.6,62.2l-1.1-2.9l-1.1,2.9H46.6z"
			/>
		<path id="XMLID_13_" d="M53,57.5h2.9c0.7,0,1.2,0,1.5,0.2c0.5,0.1,0.9,0.4,1.2,0.7c0.3,0.3,0.6,0.8,0.8,1.3s0.3,1.1,0.3,1.9
			c0,0.6-0.1,1.2-0.2,1.7c-0.2,0.6-0.5,1-0.8,1.4c-0.3,0.3-0.6,0.5-1.1,0.6c-0.4,0.1-0.8,0.2-1.4,0.2h-3V57.5z M54.6,58.8V64h1.2
			c0.4,0,0.8,0,1-0.1c0.3-0.1,0.5-0.2,0.6-0.3s0.3-0.4,0.4-0.8s0.2-0.8,0.2-1.4s-0.1-1.1-0.2-1.4c-0.1-0.3-0.3-0.6-0.5-0.8
			c-0.2-0.2-0.4-0.3-0.7-0.4c-0.2,0-0.7-0.1-1.3-0.1H54.6z"/>
		<path id="XMLID_16_" d="M60.9,65.3v-7.9h5.8v1.3h-4.2v1.7h4v1.3h-4V64h4.4v1.3H60.9z"/>
		<path id="XMLID_18_" d="M76.4,62.4l1.5,0.5c-0.2,0.9-0.6,1.5-1.2,1.9s-1.2,0.6-2.1,0.6c-1,0-1.9-0.4-2.6-1.1c-0.7-0.7-1-1.7-1-2.9
			c0-1.3,0.3-2.3,1-3.1c0.7-0.7,1.6-1.1,2.7-1.1c1,0,1.7,0.3,2.3,0.9c0.4,0.3,0.6,0.8,0.8,1.5L76.3,60c-0.1-0.4-0.3-0.7-0.6-1
			c-0.3-0.2-0.7-0.4-1.1-0.4c-0.6,0-1.1,0.2-1.4,0.6c-0.4,0.4-0.5,1.1-0.5,2c0,1,0.2,1.7,0.5,2.1s0.8,0.6,1.4,0.6
			c0.4,0,0.8-0.1,1.1-0.4C76,63.4,76.2,63,76.4,62.4z"/>
		<path id="XMLID_20_" d="M78.9,61.4c0-0.8,0.1-1.5,0.4-2c0.2-0.4,0.4-0.8,0.7-1.1c0.3-0.3,0.6-0.6,1-0.7c0.5-0.2,1.1-0.3,1.7-0.3
			c1.2,0,2.1,0.4,2.8,1.1s1,1.7,1,3c0,1.3-0.3,2.3-1,3c-0.7,0.7-1.6,1.1-2.8,1.1c-1.2,0-2.1-0.4-2.8-1.1
			C79.3,63.7,78.9,62.7,78.9,61.4z M80.6,61.4c0,0.9,0.2,1.6,0.6,2c0.4,0.5,0.9,0.7,1.6,0.7c0.6,0,1.2-0.2,1.6-0.7
			c0.4-0.5,0.6-1.1,0.6-2.1c0-0.9-0.2-1.6-0.6-2s-0.9-0.7-1.6-0.7c-0.7,0-1.2,0.2-1.6,0.7S80.6,60.5,80.6,61.4z"/>
		<path id="XMLID_23_" d="M87.8,65.3v-7.9h1.5l3.2,5.3v-5.3h1.5v7.9h-1.6l-3.2-5.1v5.1H87.8z"/>
		<path id="XMLID_25_" d="M97.5,65.3v-6.5h-2.3v-1.3h6.3v1.3h-2.3v6.5H97.5z"/>
		<path id="XMLID_27_" d="M102.5,65.3v-7.9h5.8v1.3h-4.2v1.7h4v1.3h-4V64h4.4v1.3H102.5z"/>
		<path id="XMLID_29_" d="M109.8,65.3v-7.9h1.5l3.2,5.3v-5.3h1.5v7.9h-1.6l-3.2-5.1v5.1H109.8z"/>
		<path id="XMLID_31_" d="M117.7,65.3v-7.9h1.6v7.9H117.7z"/>
		<path id="XMLID_33_" d="M120.8,57.5h2.9c0.7,0,1.2,0,1.5,0.2c0.5,0.1,0.9,0.4,1.2,0.7c0.3,0.3,0.6,0.8,0.8,1.3s0.3,1.1,0.3,1.9
			c0,0.6-0.1,1.2-0.2,1.7c-0.2,0.6-0.5,1-0.8,1.4c-0.3,0.3-0.6,0.5-1.1,0.6c-0.4,0.1-0.8,0.2-1.4,0.2h-3V57.5z M122.4,58.8V64h1.2
			c0.4,0,0.8,0,1-0.1c0.3-0.1,0.5-0.2,0.6-0.3s0.3-0.4,0.4-0.8s0.2-0.8,0.2-1.4s-0.1-1.1-0.2-1.4c-0.1-0.3-0.3-0.6-0.5-0.8
			c-0.2-0.2-0.4-0.3-0.7-0.4c-0.2,0-0.7-0.1-1.3-0.1H122.4z"/>
		<path id="XMLID_36_" d="M128.4,61.4c0-0.8,0.1-1.5,0.4-2c0.2-0.4,0.4-0.8,0.7-1.1c0.3-0.3,0.6-0.6,1-0.7c0.5-0.2,1.1-0.3,1.7-0.3
			c1.2,0,2.1,0.4,2.8,1.1s1,1.7,1,3c0,1.3-0.3,2.3-1,3c-0.7,0.7-1.6,1.1-2.8,1.1c-1.2,0-2.1-0.4-2.8-1.1
			C128.8,63.7,128.4,62.7,128.4,61.4z M130.1,61.4c0,0.9,0.2,1.6,0.6,2c0.4,0.5,0.9,0.7,1.6,0.7c0.6,0,1.2-0.2,1.6-0.7
			c0.4-0.5,0.6-1.1,0.6-2.1c0-0.9-0.2-1.6-0.6-2s-0.9-0.7-1.6-0.7c-0.7,0-1.2,0.2-1.6,0.7S130.1,60.5,130.1,61.4z"/>
	</g>
	<g id="XMLID_386_">
		<path id="XMLID_387_" class="st1" d="M73.7,7.6v10.2c0,0.6,0.5,1.1,1.1,1.1h4V22H63.7c-0.6,0-1.1,0.5-1.1,1.1v4h-4
			c-0.6,0-1.1,0.5-1.1,1.1v10.2c0,0.6,0.5,1.1,1.1,1.1h10.2c0.6,0,1.1-0.5,1.1-1.1V28.2c0-0.6-0.5-1.1-1.1-1.1h-4v-2.9h14v2.9h-4
			c-0.6,0-1.1,0.5-1.1,1.1v10.2c0,0.6,0.5,1.1,1.1,1.1h10.2c0.6,0,1.1-0.5,1.1-1.1V28.2c0-0.6-0.5-1.1-1.1-1.1h-4v-2.9h14v2.9h-4
			c-0.6,0-1.1,0.5-1.1,1.1v10.2c0,0.6,0.5,1.1,1.1,1.1h10.2c0.6,0,1.1-0.5,1.1-1.1V28.2c0-0.6-0.5-1.1-1.1-1.1h-4v-4
			c0-0.6-0.5-1.1-1.1-1.1H81v-3.1h4c0.6,0,1.1-0.5,1.1-1.1V7.6c0-0.6-0.5-1.1-1.1-1.1H74.8C74.2,6.5,73.7,7,73.7,7.6L73.7,7.6z
			 M67.6,37.2h-7.9v-7.9h7.9V37.2z M83.8,37.2h-7.9v-7.9h7.9V37.2z M100,37.2h-7.9v-7.9h7.9L100,37.2L100,37.2z M75.9,8.7h7.9v7.9
			h-7.9V8.7z M75.9,8.7"/>
	</g>
</g>
</svg>
