<?xml version="1.0" encoding="utf-8"?>
<!-- Generator: Adobe Illustrator 19.0.0, SVG Export Plug-In . SVG Version: 6.00 Build 0)  -->
<svg version="1.1" id="Capa_1" xmlns="http://www.w3.org/2000/svg" xmlns:xlink="http://www.w3.org/1999/xlink" x="0px" y="0px"
	 viewBox="0 0 155.7 74.3" style="enable-background:new 0 0 155.7 74.3;" xml:space="preserve">
<style type="text/css">
	.st0{opacity:0.5;fill:#FFFFFF;}
	.st1{fill-rule:evenodd;clip-rule:evenodd;fill:#FEFEFE;}
</style>
<g id="XMLID_475_">
	<rect id="XMLID_248_" x="0.5" y="0" class="st0" width="154.9" height="74.3"/>
	<rect id="XMLID_257_" x="0.5" y="0" width="155.2" height="48.2"/>
	<g id="XMLID_1_">
		<path id="XMLID_2_" d="M24.2,65.3h-1.7l-0.7-1.8h-3.1L18,65.3h-1.7l3.1-7.9h1.7L24.2,65.3z M21.3,62.2l-1.1-2.9l-1.1,2.9H21.3z"/>
		<path id="XMLID_5_" d="M30.1,62.4l1.5,0.5c-0.2,0.9-0.6,1.5-1.2,1.9s-1.2,0.6-2.1,0.6c-1,0-1.9-0.4-2.6-1.1c-0.7-0.7-1-1.7-1-2.9
			c0-1.3,0.3-2.3,1-3.1c0.7-0.7,1.6-1.1,2.7-1.1c1,0,1.7,0.3,2.3,0.9c0.4,0.3,0.6,0.8,0.8,1.5L30.1,60c-0.1-0.4-0.3-0.7-0.6-1
			c-0.3-0.2-0.7-0.4-1.1-0.4c-0.6,0-1.1,0.2-1.4,0.6c-0.4,0.4-0.5,1.1-0.5,2c0,1,0.2,1.7,0.5,2.1s0.8,0.6,1.4,0.6
			c0.4,0,0.8-0.1,1.1-0.4C29.8,63.4,30,63,30.1,62.4z"/>
		<path id="XMLID_7_" d="M34.8,65.3v-6.5h-2.3v-1.3h6.3v1.3h-2.3v6.5H34.8z"/>
		<path id="XMLID_9_" d="M39.7,65.3v-7.9h1.6v7.9H39.7z"/>
		<path id="XMLID_11_" d="M44.8,65.3L42,57.5h1.7l2,5.8l1.9-5.8h1.7l-2.8,7.9H44.8z"/>
		<path id="XMLID_13_" d="M50.1,65.3v-7.9h1.6v7.9H50.1z"/>
		<path id="XMLID_15_" d="M53.2,57.5h2.9c0.7,0,1.2,0,1.5,0.2c0.5,0.1,0.9,0.4,1.2,0.7c0.3,0.3,0.6,0.8,0.8,1.3s0.3,1.1,0.3,1.9
			c0,0.6-0.1,1.2-0.2,1.7c-0.2,0.6-0.5,1-0.8,1.4c-0.3,0.3-0.6,0.5-1.1,0.6c-0.4,0.1-0.8,0.2-1.4,0.2h-3V57.5z M54.8,58.8V64H56
			c0.4,0,0.8,0,1-0.1c0.3-0.1,0.5-0.2,0.6-0.3s0.3-0.4,0.4-0.8s0.2-0.8,0.2-1.4S58.1,60.3,58,60c-0.1-0.3-0.3-0.6-0.5-0.8
			c-0.2-0.2-0.4-0.3-0.7-0.4c-0.2,0-0.7-0.1-1.3-0.1H54.8z"/>
		<path id="XMLID_18_" d="M68.2,65.3h-1.7l-0.7-1.8h-3.1L62,65.3h-1.7l3.1-7.9h1.7L68.2,65.3z M65.3,62.2l-1.1-2.9l-1.1,2.9H65.3z"
			/>
		<path id="XMLID_21_" d="M69.1,57.5H72c0.7,0,1.2,0,1.5,0.2c0.5,0.1,0.9,0.4,1.2,0.7c0.3,0.3,0.6,0.8,0.8,1.3s0.3,1.1,0.3,1.9
			c0,0.6-0.1,1.2-0.2,1.7c-0.2,0.6-0.5,1-0.8,1.4c-0.3,0.3-0.6,0.5-1.1,0.6c-0.4,0.1-0.8,0.2-1.4,0.2h-3V57.5z M70.7,58.8V64h1.2
			c0.4,0,0.8,0,1-0.1c0.3-0.1,0.5-0.2,0.6-0.3s0.3-0.4,0.4-0.8S74,62,74,61.4S74,60.3,73.9,60c-0.1-0.3-0.3-0.6-0.5-0.8
			c-0.2-0.2-0.4-0.3-0.7-0.4c-0.2,0-0.7-0.1-1.3-0.1H70.7z"/>
		<path id="XMLID_24_" d="M80.1,57.5H83c0.7,0,1.2,0,1.5,0.2c0.5,0.1,0.9,0.4,1.2,0.7c0.3,0.3,0.6,0.8,0.8,1.3s0.3,1.1,0.3,1.9
			c0,0.6-0.1,1.2-0.2,1.7c-0.2,0.6-0.5,1-0.8,1.4c-0.3,0.3-0.6,0.5-1.1,0.6c-0.4,0.1-0.8,0.2-1.4,0.2h-3V57.5z M81.7,58.8V64h1.2
			c0.4,0,0.8,0,1-0.1c0.3-0.1,0.5-0.2,0.6-0.3s0.3-0.4,0.4-0.8S85,62,85,61.4S85,60.3,84.9,60c-0.1-0.3-0.3-0.6-0.5-0.8
			c-0.2-0.2-0.4-0.3-0.7-0.4c-0.2,0-0.7-0.1-1.3-0.1H81.7z"/>
		<path id="XMLID_27_" d="M88,65.3v-7.9h1.6v7.9H88z"/>
		<path id="XMLID_29_" d="M91.1,57.5H94c0.7,0,1.2,0,1.5,0.2c0.5,0.1,0.9,0.4,1.2,0.7c0.3,0.3,0.6,0.8,0.8,1.3s0.3,1.1,0.3,1.9
			c0,0.6-0.1,1.2-0.2,1.7c-0.2,0.6-0.5,1-0.8,1.4c-0.3,0.3-0.6,0.5-1.1,0.6c-0.4,0.1-0.8,0.2-1.4,0.2h-3V57.5z M92.7,58.8V64h1.2
			c0.4,0,0.8,0,1-0.1c0.3-0.1,0.5-0.2,0.6-0.3s0.3-0.4,0.4-0.8S96,62,96,61.4S96,60.3,95.9,60c-0.1-0.3-0.3-0.6-0.5-0.8
			c-0.2-0.2-0.4-0.3-0.7-0.4c-0.2,0-0.7-0.1-1.3-0.1H92.7z"/>
		<path id="XMLID_32_" d="M106.1,65.3h-1.7l-0.7-1.8h-3.1l-0.6,1.8h-1.7l3.1-7.9h1.7L106.1,65.3z M103.2,62.2l-1.1-2.9l-1.1,2.9
			H103.2z M101.2,57l0.7-1.6h1.7l-1.5,1.6H101.2z"/>
		<path id="XMLID_36_" d="M112,62.4l1.5,0.5c-0.2,0.9-0.6,1.5-1.2,1.9s-1.2,0.6-2.1,0.6c-1,0-1.9-0.4-2.6-1.1c-0.7-0.7-1-1.7-1-2.9
			c0-1.3,0.3-2.3,1-3.1c0.7-0.7,1.6-1.1,2.7-1.1c1,0,1.7,0.3,2.3,0.9c0.4,0.3,0.6,0.8,0.8,1.5L112,60c-0.1-0.4-0.3-0.7-0.6-1
			c-0.3-0.2-0.7-0.4-1.1-0.4c-0.6,0-1.1,0.2-1.4,0.6c-0.4,0.4-0.5,1.1-0.5,2c0,1,0.2,1.7,0.5,2.1s0.8,0.6,1.4,0.6
			c0.4,0,0.8-0.1,1.1-0.4C111.7,63.4,111.9,63,112,62.4z"/>
		<path id="XMLID_38_" d="M116.7,65.3v-6.5h-2.3v-1.3h6.3v1.3h-2.3v6.5H116.7z"/>
		<path id="XMLID_40_" d="M121.6,65.3v-7.9h1.6v7.9H121.6z"/>
		<path id="XMLID_42_" d="M129.7,62.4l1.5,0.5c-0.2,0.9-0.6,1.5-1.2,1.9s-1.2,0.6-2.1,0.6c-1,0-1.9-0.4-2.6-1.1
			c-0.7-0.7-1-1.7-1-2.9c0-1.3,0.3-2.3,1-3.1c0.7-0.7,1.6-1.1,2.7-1.1c1,0,1.7,0.3,2.3,0.9c0.4,0.3,0.6,0.8,0.8,1.5l-1.6,0.4
			c-0.1-0.4-0.3-0.7-0.6-1c-0.3-0.2-0.7-0.4-1.1-0.4c-0.6,0-1.1,0.2-1.4,0.6c-0.4,0.4-0.5,1.1-0.5,2c0,1,0.2,1.7,0.5,2.1
			s0.8,0.6,1.4,0.6c0.4,0,0.8-0.1,1.1-0.4C129.4,63.4,129.6,63,129.7,62.4z"/>
		<path id="XMLID_44_" d="M139.7,65.3H138l-0.7-1.8h-3.1l-0.6,1.8h-1.7l3.1-7.9h1.7L139.7,65.3z M136.8,62.2l-1.1-2.9l-1.1,2.9
			H136.8z"/>
	</g>
	<path id="XMLID_284_" class="st1" d="M90.6,18.2v17c0,2.1-1.8,3.8-4,3.8h-20c-2.3,0-4-1.8-4-3.8V15c0-2.3,1.7-4,4-4h17l-4,4h-13
		v20.1h20v-13L90.6,18.2z M87.7,9.8l-1.4,1.6l4.2,4.2l1.4-1.4L87.7,9.8z M90.5,7l-1.4,1.4l4.2,4.4l1.4-1.4L90.5,7z M72.1,25.4
		l4.2,4.4L89.1,17l-4.2-4.2L72.1,25.4z M70.7,31.2h4l-4-4V31.2z"/>
</g>
</svg>
