<?xml version="1.0" encoding="utf-8"?>
<!-- Generator: Adobe Illustrator 19.0.0, SVG Export Plug-In . SVG Version: 6.00 Build 0)  -->
<svg version="1.1" id="Capa_1" xmlns="http://www.w3.org/2000/svg" xmlns:xlink="http://www.w3.org/1999/xlink" x="0px" y="0px"
	 viewBox="0 0 362.4 400" style="enable-background:new 0 0 362.4 400;" xml:space="preserve">
<style type="text/css">
	.st0{fill:#E8EDEF;}
	.st1{fill:#929292;}
	.st2{fill:#FFFFFF;}
	.st3{fill:#012F58;}
	.st4{fill:none;stroke:#012F58;stroke-width:1.9903;stroke-miterlimit:10;}
	.st5{fill:#05C0D0;}
	.st6{fill:#A0A0A0;}
	.st7{fill:#BBD655;}
	.st8{fill:none;stroke:#A0A0A0;stroke-miterlimit:10;}
	.st9{fill:#FCC43C;}
	.st10{fill:#F94B4B;}
	.st11{fill:#636464;}
	.st12{fill:#4A494A;}
	.st13{fill:#F15523;}
	.st14{fill:#5B595A;}
</style>
<g>
	<g>
		<path class="st0" d="M328.3,223.3l-11,3.7c-3,1-7.4-0.5-9.6-3.3c-2.1-2.6-4.3-5.1-6.6-7.5c-2.5-2.5-3.4-7.1-2-9.9l5.2-10.5
			c3.6-7.4,0.6-16.3-6.8-20l-17.1-8.4c-3.6-1.8-7.6-2-11.4-0.8c-3.8,1.3-6.8,4-8.6,7.5l-5.2,10.5c-0.8,1.7-2.7,3.2-4.9,3.9
			c-1.4,0.5-2.9,0.6-4.2,0.5c-3.3-0.4-6.7-0.6-10-0.7c-3.6-0.1-7.5-2.6-8.5-5.6l-3.7-11c-2.6-7.8-11.1-12-18.9-9.3l-18,6.1
			c-7.8,2.6-12,11.1-9.3,18.9l3.7,11c1,3-0.5,7.4-3.3,9.6c-2.6,2.1-5.2,4.3-7.5,6.6c-0.9,0.9-2.2,1.7-3.6,2.1
			c-2.3,0.8-4.6,0.7-6.3-0.1l-10.5-5.2c-3.6-1.8-7.6-2-11.4-0.8c-3.8,1.3-6.8,4-8.6,7.5l-8.4,17.1c-1.8,3.6-2,7.6-0.8,11.4
			c1.3,3.8,4,6.8,7.5,8.6l10.5,5.2c2.8,1.4,4.9,5.6,4.4,9.1c-0.4,3.3-0.6,6.7-0.7,10c-0.1,3.6-2.6,7.5-5.6,8.5l-11,3.7
			c-7.8,2.6-12,11.1-9.3,18.9l6.1,18c2.6,7.8,11.1,12,18.9,9.3l11-3.7c3-1,7.4,0.5,9.6,3.3c2.1,2.6,4.3,5.1,6.6,7.5
			c2.5,2.5,3.4,7.1,2,9.9l-5.2,10.5c-3.6,7.4-0.6,16.3,6.8,20l17.1,8.4c3.6,1.8,7.6,2,11.4,0.8c3.8-1.3,6.8-4,8.6-7.5l5.2-10.5
			c0.8-1.7,2.7-3.2,4.9-3.9c1.4-0.5,2.8-0.6,4.2-0.5c3.3,0.4,6.7,0.6,10,0.7c3.6,0.1,7.5,2.6,8.5,5.6l3.7,11
			c2.6,7.8,11.1,12,18.9,9.3l18-6.1c7.8-2.6,12-11.1,9.3-18.9l-3.7-11c-1-3,0.5-7.4,3.3-9.6c2.6-2.1,5.2-4.3,7.5-6.6
			c0.9-0.9,2.2-1.7,3.6-2.1c2.3-0.8,4.6-0.7,6.3,0.1L320,350c3.6,1.8,7.6,2,11.4,0.8c3.8-1.3,6.8-4,8.6-7.5l8.4-17.1
			c3.6-7.4,0.6-16.3-6.8-20l-10.5-5.2c-2.8-1.4-4.8-5.6-4.4-9.1c0.4-3.3,0.6-6.7,0.7-10c0-3.6,2.6-7.5,5.6-8.5l11-3.7
			c7.8-2.6,12-11.1,9.3-18.9l-6.1-18C344.6,224.9,336.1,220.7,328.3,223.3z M276.3,266.8c7.7,22.8-4.5,47.7-27.4,55.4
			c-22.8,7.7-47.7-4.5-55.4-27.4c-7.7-22.8,4.5-47.7,27.4-55.4C243.7,231.7,268.6,243.9,276.3,266.8z"/>
		<path class="st0" d="M110.8,196c0-0.8,0.7-1.8,1.1-1.9l5.5-1.9c5.2-1.8,8-7.4,6.2-12.6l-3.1-9c-1.8-5.2-7.4-8-12.6-6.2l-5.5,1.9
			c-0.4,0.1-1.5-0.2-2.1-0.8c-1.1-1.4-2.3-2.7-3.5-4c-0.6-0.6-0.8-1.7-0.6-2.1l2.6-5.3c2.4-4.9,0.4-10.9-4.5-13.3l-8.5-4.2
			c-2.4-1.2-5.1-1.4-7.6-0.5c-2.5,0.9-4.5,2.6-5.7,5l-2.6,5.3c-0.1,0.2-0.4,0.5-1,0.7c-0.3,0.1-0.7,0.2-1,0.1
			c-1.8-0.2-3.5-0.3-5.3-0.4c-0.8,0-1.8-0.7-1.9-1.1l-1.9-5.5c-1.8-5.2-7.4-8-12.6-6.2l-9,3.1c-5.2,1.8-8,7.4-6.2,12.6l1.9,5.5
			c0.1,0.4-0.2,1.5-0.9,2c-1.4,1.1-2.7,2.3-4,3.5c-0.2,0.2-0.5,0.4-0.9,0.5c-0.6,0.2-1.1,0.2-1.3,0.1l-5.3-2.6
			c-2.4-1.2-5.1-1.4-7.6-0.5s-4.5,2.6-5.7,5l-4.2,8.5c-2.4,4.9-0.4,10.9,4.5,13.3l5.3,2.6c0.4,0.2,0.9,1.2,0.8,2
			c-0.2,1.8-0.3,3.5-0.4,5.3c0,0.8-0.7,1.8-1.1,1.9l-5.5,1.9c-5.2,1.8-8,7.4-6.2,12.6l3.1,9c1.8,5.2,7.4,8,12.6,6.2l5.5-1.9
			c0.4-0.1,1.5,0.2,2.1,0.8c1.1,1.4,2.3,2.7,3.5,4c0.6,0.6,0.8,1.7,0.6,2.1l-2.6,5.3c-1.2,2.4-1.4,5.1-0.5,7.6
			c0.9,2.5,2.6,4.5,5,5.7l8.5,4.2c2.4,1.2,5.1,1.4,7.6,0.5c2.5-0.9,4.5-2.6,5.7-5l2.6-5.3c0.1-0.2,0.4-0.5,1-0.7
			c0.3-0.1,0.7-0.2,1-0.1c1.8,0.2,3.5,0.3,5.3,0.4c0.8,0,1.8,0.7,1.9,1.1l1.9,5.5c1.8,5.2,7.4,8,12.6,6.2l9-3.1
			c5.2-1.8,8-7.4,6.2-12.6l-1.9-5.5c-0.1-0.4,0.2-1.5,0.9-2c1.4-1.1,2.7-2.3,4-3.5c0.2-0.2,0.5-0.4,0.9-0.5c0.6-0.2,1.1-0.2,1.3-0.1
			l5.3,2.6c2.4,1.2,5.1,1.4,7.6,0.5c2.5-0.9,4.5-2.6,5.7-5l4.2-8.5c2.4-4.9,0.4-10.9-4.5-13.3l-5.3-2.6c-0.4-0.2-0.9-1.2-0.8-2
			C110.6,199.6,110.8,197.8,110.8,196z M80.4,189.3c3.4,10.1-2,21.1-12.1,24.6c-10.1,3.4-21.1-2-24.6-12.1
			c-3.4-10.1,2-21.1,12.1-24.6C66,173.7,77,179.1,80.4,189.3z"/>
	</g>
</g>
<g>
	<g>
		<g>
			<rect x="292.4" y="56" class="st1" width="4" height="4"/>
			<g>
				<circle class="st1" cx="295" cy="58" r="2"/>
			</g>
		</g>
		<g>
			<rect x="292.4" y="63" class="st1" width="4" height="4"/>
			<g>
				<circle class="st1" cx="295" cy="65.2" r="2"/>
			</g>
		</g>
		<g>
			<rect x="292.4" y="71" class="st1" width="4" height="4"/>
			<g>
				<circle class="st1" cx="294.9" cy="72.3" r="2"/>
			</g>
		</g>
		<g>
			<rect x="292.4" y="77" class="st1" width="4" height="4"/>
			<g>
				<circle class="st1" cx="294.9" cy="79.5" r="2"/>
			</g>
		</g>
		<g>
			<rect x="292.4" y="85" class="st1" width="4" height="4"/>
			<g>
				<circle class="st1" cx="294.9" cy="86.7" r="2"/>
			</g>
		</g>
		<g>
			<rect x="292.4" y="92" class="st1" width="4" height="4"/>
			<g>
				<circle class="st1" cx="294.9" cy="93.8" r="2"/>
			</g>
		</g>
		<g>
			<rect x="292.4" y="99" class="st1" width="4" height="4"/>
			<g>
				<circle class="st1" cx="294.8" cy="101" r="2"/>
			</g>
		</g>
		<g>
			<rect x="292.4" y="106" class="st1" width="4" height="4"/>
			<g>
				<circle class="st1" cx="294.8" cy="108.2" r="2"/>
			</g>
		</g>
		<g>
			<rect x="292.4" y="113" class="st1" width="4" height="4"/>
			<g>
				<circle class="st1" cx="294.8" cy="115.3" r="2"/>
			</g>
		</g>
		<g>
			<rect x="292.4" y="120" class="st1" width="4" height="4"/>
			<g>
				<circle class="st1" cx="294.7" cy="122.5" r="2"/>
			</g>
		</g>
		<g>
			<rect x="292.4" y="128" class="st1" width="4" height="4"/>
			<g>
				<circle class="st1" cx="294.7" cy="129.7" r="2"/>
			</g>
		</g>
		<g>
			<rect x="292.4" y="135" class="st1" width="4" height="4"/>
			<g>
				<circle class="st1" cx="294.7" cy="136.8" r="2"/>
			</g>
		</g>
		<g>
			<rect x="285.4" y="135" class="st1" width="4" height="4"/>
			<g>
				<circle class="st1" cx="287.7" cy="137" r="2"/>
			</g>
		</g>
		<g>
			<rect x="278.4" y="135" class="st1" width="4" height="4"/>
			<g>
				<circle class="st1" cx="280.5" cy="137" r="2"/>
			</g>
		</g>
		<g>
			<rect x="271.4" y="135" class="st1" width="4" height="4"/>
			<g>
				<circle class="st1" cx="273.4" cy="137" r="2"/>
			</g>
		</g>
		<g>
			<rect x="264.4" y="135" class="st1" width="4" height="4"/>
			<g>
				<circle class="st1" cx="266.2" cy="137" r="2"/>
			</g>
		</g>
	</g>
</g>
<g>
	<path class="st1" d="M257.2,78.9H100.6c-2.1,0-4.3,1.2-4.3,3.4v108.1c0,2.1,2.1,3.8,4.3,3.8h58.5c0,0,0,10,0.1,10h-8.1
		c-2,0-3.6,1.5-3.6,3.5c0,2,1.6,3.5,3.6,3.5h57.6c2,0,3.6-1.5,3.6-3.5c0-2-1.6-3.5-3.6-3.5h-8.3c0,0-0.1-10-0.1-10h57
		c2.1,0,4.2-1.6,4.2-3.8V82.3C261.5,80.1,259.4,78.9,257.2,78.9z"/>
	<path class="st2" d="M255.4,176c0,2.3-1.8,4.1-4.1,4.1H108.5c-2.3,0-4.1-1.8-4.1-4.1V90.1c0-2.3,1.8-4.1,4.1-4.1h142.8
		c2.3,0,4.1,1.8,4.1,4.1V176z"/>
</g>
<rect x="263.2" y="274" class="st3" width="5.3" height="11.9"/>
<line class="st4" x1="92.3" y1="279.6" x2="179.6" y2="279.6"/>
<rect x="94" y="274" class="st3" width="5.3" height="11.9"/>
<rect x="173.6" y="315.1" class="st3" width="11.9" height="5.3"/>
<rect x="114.9" y="99.9" class="st5" width="128.7" height="19.2"/>
<rect x="114.4" y="163" class="st6" width="96" height="7"/>
<rect x="215.4" y="163" class="st6" width="28" height="7"/>
<rect x="114.9" y="122.7" class="st7" width="28.4" height="19.8"/>
<rect x="148.3" y="122.7" class="st7" width="28.4" height="19.8"/>
<rect x="181.7" y="122.7" class="st7" width="28.4" height="19.8"/>
<rect x="215.2" y="122.7" class="st7" width="28.4" height="19.8"/>
<line class="st8" x1="114.4" y1="145.5" x2="136.4" y2="145.5"/>
<line class="st8" x1="114.4" y1="148.5" x2="136.4" y2="148.5"/>
<line class="st8" x1="114.4" y1="151.5" x2="134.4" y2="151.5"/>
<line class="st8" x1="114.4" y1="153.5" x2="140.4" y2="153.5"/>
<line class="st8" x1="114.4" y1="156.5" x2="139.4" y2="156.5"/>
<line class="st8" x1="114.4" y1="159.5" x2="143.4" y2="159.5"/>
<line class="st8" x1="181.4" y1="145.5" x2="203.4" y2="145.5"/>
<line class="st8" x1="181.4" y1="148.5" x2="203.4" y2="148.5"/>
<line class="st8" x1="181.4" y1="151.5" x2="207.4" y2="151.5"/>
<line class="st8" x1="181.4" y1="153.5" x2="210.4" y2="153.5"/>
<line class="st8" x1="181.4" y1="156.5" x2="206.4" y2="156.5"/>
<line class="st8" x1="181.4" y1="159.5" x2="210.4" y2="159.5"/>
<line class="st8" x1="148.4" y1="145.5" x2="176.4" y2="145.5"/>
<line class="st8" x1="148.4" y1="148.5" x2="173.4" y2="148.5"/>
<line class="st8" x1="148.4" y1="151.5" x2="167.4" y2="151.5"/>
<line class="st8" x1="148.4" y1="153.5" x2="176.4" y2="153.5"/>
<line class="st8" x1="148.4" y1="156.5" x2="176.4" y2="156.5"/>
<line class="st8" x1="148.4" y1="159.5" x2="176.4" y2="159.5"/>
<g>
	<g>
		<path class="st9" d="M352.5,252.1h-82.6c-1.1,0-2.1,0.8-2.1,1.9v57c0,1.1,0.9,2.2,2.1,2.2h82.6c1.1,0,1.9-1.1,1.9-2.2v-57
			C354.4,252.9,353.7,252.1,352.5,252.1z"/>
		<path class="st2" d="M349.4,306.2c0,1.2-0.2,1.8-1.4,1.8h-73.4c-1.2,0-2.3-0.6-2.3-1.8v-47.4c0-1.2,1.1-2.8,2.3-2.8h73.4
			c1.2,0,1.4,1.6,1.4,2.8V306.2z"/>
		<path class="st9" d="M361.7,319.3c0,0.5-0.4,0.9-0.9,0.9H261c-0.5,0-0.9-0.4-0.9-0.9V316c0-0.5,0.4-0.9,0.9-0.9h99.8
			c0.5,0,0.9,0.4,0.9,0.9V319.3z"/>
	</g>
	<rect x="276.6" y="265.8" class="st3" width="32.2" height="7.8"/>
	<rect x="276.4" y="276" class="st6" width="33" height="4"/>
	<line class="st8" x1="276.4" y1="282.5" x2="309.4" y2="282.5"/>
	<line class="st8" x1="276.4" y1="284.5" x2="309.4" y2="284.5"/>
	<line class="st8" x1="276.4" y1="285.5" x2="309.4" y2="285.5"/>
	<line class="st8" x1="276.4" y1="287.5" x2="309.4" y2="287.5"/>
	<line class="st8" x1="276.4" y1="289.5" x2="309.4" y2="289.5"/>
	<line class="st8" x1="276.4" y1="291.5" x2="309.4" y2="291.5"/>
	<line class="st8" x1="276.4" y1="293.5" x2="309.4" y2="293.5"/>
	<line class="st8" x1="276.4" y1="294.5" x2="309.4" y2="294.5"/>
	<line class="st8" x1="276.4" y1="296.5" x2="309.4" y2="296.5"/>
	<path class="st7" d="M327.7,282.4l6.9,12c-1.9,0.9-4,1.5-6.2,1.5c-7.7,0-13.9-6.2-13.9-13.9c0-7.4,5.8-13.4,13.1-13.9v13.9
		C327.6,282.1,327.6,282.2,327.7,282.4z"/>
	<path class="st10" d="M329.2,268v13.2h13.2C341.9,273.9,336.5,268.5,329.2,268z M331.2,270c4.6,1,8.2,4.5,9.2,9.2h-9.2V270z"/>
	<path class="st5" d="M336.2,293.5c3.5-2.3,5.9-6.3,6.2-10.7H330L336.2,293.5z"/>
</g>
<g>
	<g>
		<path class="st9" d="M92.5,252.1H9.8c-1.1,0-2.1,0.8-2.1,1.9v57c0,1.1,0.9,2.2,2.1,2.2h82.6c1.1,0,1.9-1.1,1.9-2.2v-57
			C94.3,252.9,93.6,252.1,92.5,252.1z"/>
		<path class="st2" d="M89.4,306.2c0,1.2-0.3,1.8-1.4,1.8H14.6c-1.2,0-2.2-0.6-2.2-1.8v-47.4c0-1.2,1-2.8,2.2-2.8H88
			c1.2,0,1.4,1.6,1.4,2.8V306.2z"/>
		<path class="st9" d="M101.7,319.3c0,0.5-0.4,0.9-0.9,0.9H1c-0.5,0-0.9-0.4-0.9-0.9V316c0-0.5,0.4-0.9,0.9-0.9h99.8
			c0.5,0,0.9,0.4,0.9,0.9V319.3z"/>
	</g>
	<rect x="50.5" y="265.8" class="st3" width="34.3" height="7.8"/>
	<rect x="50.4" y="276" class="st6" width="35" height="4"/>
	<line class="st8" x1="50.4" y1="282.5" x2="66.4" y2="282.5"/>
	<line class="st8" x1="50.4" y1="284.5" x2="66.4" y2="284.5"/>
	<line class="st8" x1="50.4" y1="285.5" x2="66.4" y2="285.5"/>
	<line class="st8" x1="50.4" y1="287.5" x2="66.4" y2="287.5"/>
	<line class="st8" x1="50.4" y1="289.5" x2="66.4" y2="289.5"/>
	<line class="st8" x1="50.4" y1="291.5" x2="66.4" y2="291.5"/>
	<line class="st8" x1="50.4" y1="293.5" x2="66.4" y2="293.5"/>
	<line class="st8" x1="50.4" y1="294.5" x2="66.4" y2="294.5"/>
	<line class="st8" x1="50.4" y1="296.5" x2="66.4" y2="296.5"/>
	<line class="st8" x1="69.4" y1="282.5" x2="85.4" y2="282.5"/>
	<line class="st8" x1="69.4" y1="284.5" x2="85.4" y2="284.5"/>
	<line class="st8" x1="69.4" y1="285.5" x2="85.4" y2="285.5"/>
	<line class="st8" x1="69.4" y1="287.5" x2="85.4" y2="287.5"/>
	<line class="st8" x1="69.4" y1="289.5" x2="85.4" y2="289.5"/>
	<line class="st8" x1="69.4" y1="291.5" x2="85.4" y2="291.5"/>
	<line class="st8" x1="69.4" y1="293.5" x2="85.4" y2="293.5"/>
	<line class="st8" x1="69.4" y1="294.5" x2="85.4" y2="294.5"/>
	<line class="st8" x1="69.4" y1="296.5" x2="85.4" y2="296.5"/>
</g>
<g>
	<g>
		<g>
			<path class="st3" d="M140.5,382.2c-1.5,0-2.7-1.3-2.7-2.8v-57c0-1.5,1.2-2.6,2.7-2.6h82.6c1.5,0,2.5,1.1,2.5,2.6v57
				c0,1.6-1.1,2.8-2.5,2.8H140.5z"/>
			<path class="st2" d="M223.2,320.5c1.1,0,1.9,0.8,1.9,1.9v57c0,1.1-0.7,2.2-1.9,2.2h-82.6c-1.1,0-2.1-1.1-2.1-2.2v-57
				c0-1.1,0.9-1.9,2.1-1.9H223.2 M223.2,319.2h-82.6c-1.9,0-3.4,1.4-3.4,3.2v57c0,1.9,1.6,3.5,3.4,3.5h82.6c1.8,0,3.2-1.5,3.2-3.5
				v-57C226.3,320.5,225,319.2,223.2,319.2L223.2,319.2z"/>
		</g>
		<path class="st2" d="M220.4,374.5c0,1.2-0.6,1.5-1.7,1.5h-73.4c-1.2,0-2.9-0.3-2.9-1.5v-47.4c0-1.2,1.7-2.1,2.9-2.1h73.4
			c1.2,0,1.7,0.9,1.7,2.1V374.5z"/>
		<g>
			<path class="st3" d="M233.4,387.5c0,0.8-0.7,1.5-1.5,1.5H132c-0.8,0-1.5-0.7-1.5-1.5v-3c0-0.8,0.7-1.5,1.5-1.5h100
				c0.8,0,1.5,0.7,1.5,1.5V387.5z"/>
			<path class="st2" d="M231.5,383c0.5,0,0.9,0.8,0.9,1.3v3.3c0,0.5-0.5,0.4-0.9,0.4h-99.8c-0.5,0-1.2,0.1-1.2-0.4v-3.3
				c0-0.5,0.8-1.3,1.2-1.3H231.5 M231.5,382h-99.8c-1.2,0-2.2,1.1-2.2,2.3v3.3c0,1.2,1,2.4,2.2,2.4h99.8c1.2,0,1.9-1.2,1.9-2.4v-3.3
				C233.4,383.1,232.7,382,231.5,382L231.5,382z"/>
		</g>
	</g>
	<rect x="147.2" y="334.2" class="st3" width="68.1" height="7.8"/>
	<rect x="147.4" y="345" class="st6" width="68" height="4"/>
	<line class="st8" x1="147.4" y1="350.5" x2="168.4" y2="350.5"/>
	<line class="st8" x1="147.4" y1="352.5" x2="168.4" y2="352.5"/>
	<line class="st8" x1="147.4" y1="354.5" x2="168.4" y2="354.5"/>
	<line class="st8" x1="147.4" y1="356.5" x2="168.4" y2="356.5"/>
	<line class="st8" x1="147.4" y1="358.5" x2="168.4" y2="358.5"/>
	<line class="st8" x1="147.4" y1="359.5" x2="168.4" y2="359.5"/>
	<line class="st8" x1="147.4" y1="361.5" x2="168.4" y2="361.5"/>
	<line class="st8" x1="147.4" y1="362.5" x2="168.4" y2="362.5"/>
	<line class="st8" x1="147.4" y1="364.5" x2="168.4" y2="364.5"/>
	<line class="st8" x1="170.4" y1="350.5" x2="191.4" y2="350.5"/>
	<line class="st8" x1="170.4" y1="352.5" x2="191.4" y2="352.5"/>
	<line class="st8" x1="170.4" y1="354.5" x2="191.4" y2="354.5"/>
	<line class="st8" x1="170.4" y1="356.5" x2="191.4" y2="356.5"/>
	<line class="st8" x1="170.4" y1="358.5" x2="191.4" y2="358.5"/>
	<line class="st8" x1="170.4" y1="359.5" x2="191.4" y2="359.5"/>
	<line class="st8" x1="170.4" y1="361.5" x2="191.4" y2="361.5"/>
	<line class="st8" x1="170.4" y1="362.5" x2="191.4" y2="362.5"/>
	<line class="st8" x1="170.4" y1="364.5" x2="191.4" y2="364.5"/>
	<line class="st8" x1="194.4" y1="350.5" x2="215.4" y2="350.5"/>
	<line class="st8" x1="194.4" y1="352.5" x2="215.4" y2="352.5"/>
	<line class="st8" x1="194.4" y1="354.5" x2="215.4" y2="354.5"/>
	<line class="st8" x1="194.4" y1="356.5" x2="215.4" y2="356.5"/>
	<line class="st8" x1="194.4" y1="358.5" x2="215.4" y2="358.5"/>
	<line class="st8" x1="194.4" y1="359.5" x2="215.4" y2="359.5"/>
	<line class="st8" x1="194.4" y1="361.5" x2="215.4" y2="361.5"/>
	<line class="st8" x1="194.4" y1="362.5" x2="215.4" y2="362.5"/>
	<line class="st8" x1="194.4" y1="364.5" x2="215.4" y2="364.5"/>
</g>
<polygon class="st5" points="48.3,294.7 48.3,296.8 15.1,296.8 15.1,263.6 17.2,263.6 17.2,294.7 "/>
<polygon class="st7" points="30,275.1 38.4,277.3 41.4,272.4 44,274 44.2,265.7 36.9,269.7 39.6,271.3 37.4,274.9 29.3,272.8 
	20.6,281.6 22.1,283 "/>
<polygon class="st5" points="27.6,292.7 31.7,292.7 31.7,277.7 30.6,277.4 27.6,280.5 "/>
<polygon class="st5" points="21.3,285.2 21.3,292.7 25.5,292.7 25.5,282.5 22.1,286 "/>
<polygon class="st5" points="40,278.7 40,292.7 44.2,292.7 44.2,276.5 42.1,275.2 "/>
<polygon class="st5" points="37.9,292.7 37.9,279.3 33.8,278.2 33.8,292.7 "/>
<line class="st4" x1="179.6" y1="211.3" x2="179.6" y2="320.1"/>
<line class="st4" x1="268.5" y1="279.6" x2="179.6" y2="279.6"/>
<g>
	<path class="st11" d="M294.9,18.9v13.6l-25.2,1.1l-1.1,10.4h-4.5c-1,0-1.9-0.3-2.7-0.7c-0.8-0.5-1.5-1.2-2-2
		c-0.5-0.8-0.7-1.7-0.7-2.7V22.1c0-1.2,0.4-2.3,1-3.2H294.9L294.9,18.9z"/>
	<path class="st11" d="M331.3,22.1v16.5c0,3-2.4,5.5-5.5,5.5h-54.2v-8.6h23.3V18.9h35.3C330.9,19.8,331.3,20.9,331.3,22.1
		L331.3,22.1z"/>
	<polygon class="st2" points="271.6,46.3 318.4,46.3 318.4,35.5 271.6,35.5 271.6,46.3 	"/>
	<path class="st12" d="M294.9,32.6v3h23c0.2,0,0.4,0.2,0.4,0.4v9.9c0,0.2-0.2,0.4-0.4,0.4h-23v3h24.8c0.9,0,1.6-0.7,1.6-1.6V34.2
		c0-0.9-0.7-1.6-1.6-1.6H294.9L294.9,32.6z"/>
	<path class="st12" d="M272,35.5h22.9v-3h-24.7c-0.9,0-1.6,0.7-1.6,1.6v9.9v3.5c0,0.9,0.7,1.6,1.6,1.6h24.7v-3H272
		c-0.2,0-0.4-0.2-0.4-0.4v-1.7v-8.2C271.6,35.7,271.8,35.5,272,35.5L272,35.5z"/>
	<path class="st2" d="M294.9,3v13.7h-17.2V4c0-0.6,0.5-1,1-1H294.9L294.9,3z"/>
	<path class="st2" d="M311.2,3h-16.2v13.7h17.3V4C312.2,3.4,311.7,3,311.2,3L311.2,3z"/>
	<path class="st11" d="M294.9,0v3h-16.1c-0.6,0-1,0.5-1,1v12.6h-3V3c0-1.7,1.4-3,3-3H294.9L294.9,0z"/>
	<path class="st11" d="M315.2,3v13.6h-3V4c0-0.6-0.5-1-1-1h-16.2V0h17.2c0.5,0,1,0.1,1.4,0.4c0,0,0,0,0,0c0.5,0.3,0.9,0.7,1.2,1.2
		c0,0,0,0,0,0C315,2,315.2,2.5,315.2,3L315.2,3z"/>
	<path class="st2" d="M319.3,20.6c0,0.5-0.4,0.9-0.9,0.9c-0.5,0-0.9-0.4-0.9-0.9c0-0.5,0.4-0.9,0.9-0.9
		C318.9,19.7,319.3,20.1,319.3,20.6L319.3,20.6z"/>
	<path class="st13" d="M323.1,20.6c0,0.5-0.4,0.9-0.9,0.9c-0.5,0-0.9-0.4-0.9-0.9c0-0.5,0.4-0.9,0.9-0.9
		C322.7,19.7,323.1,20.1,323.1,20.6L323.1,20.6z"/>
	<path class="st12" d="M294.9,16.6v2.3h-35.2c1-1.4,2.6-2.3,4.4-2.3H294.9L294.9,16.6z"/>
	<path class="st12" d="M330.2,18.9h-35.3v-2.3h30.9C327.6,16.6,329.3,17.5,330.2,18.9L330.2,18.9z"/>
	<polygon class="st14" points="313.5,38.5 276.4,38.5 276.4,37.7 313.5,37.7 313.5,38.5 	"/>
	<polygon class="st14" points="313.5,40.7 276.4,40.7 276.4,39.9 313.5,39.9 313.5,40.7 	"/>
	<polygon class="st14" points="313.5,42.9 276.4,42.9 276.4,42.1 313.5,42.1 313.5,42.9 	"/>
</g>
</svg>
