<?xml version="1.0" encoding="utf-8"?>
<!-- Generator: Adobe Illustrator 19.0.0, SVG Export Plug-In . SVG Version: 6.00 Build 0)  -->
<svg version="1.1" id="Capa_1" xmlns="http://www.w3.org/2000/svg" xmlns:xlink="http://www.w3.org/1999/xlink" x="0px" y="0px"
	 viewBox="155.9 307.1 283.5 226.9" style="enable-background:new 155.9 307.1 283.5 226.9;" xml:space="preserve">
<style type="text/css">
	.st0{fill:#ADDADA;}
	.st1{fill:#76C2A3;}
	.st2{fill:#FFFFFF;}
	.st3{fill:#373E4E;}
	.st4{fill:#393B41;}
	.st5{fill:#D7D9E1;}
	.st6{fill:#B5BAC4;}
	.st7{fill:#6A6F7A;}
	.st8{fill:#FFFFFF;stroke:#504F4E;stroke-width:0.507;stroke-miterlimit:10;}
	.st9{fill:#105061;}
	.st10{opacity:0.1;}
	.st11{clip-path:url(#SVGID_2_);fill:#FFFFFF;}
	.st12{fill:#DADADA;}
	.st13{clip-path:url(#SVGID_4_);fill:#CFDCDF;}
	.st14{clip-path:url(#SVGID_6_);fill:none;}
	.st15{clip-path:url(#SVGID_8_);fill:#CFDCDF;}
	.st16{clip-path:url(#SVGID_10_);fill:#CFDCDF;}
	.st17{clip-path:url(#SVGID_12_);fill:#CFDCDF;}
	.st18{clip-path:url(#SVGID_14_);fill:#CFDCDF;}
	.st19{clip-path:url(#SVGID_16_);fill:#CFDCDF;}
	.st20{clip-path:url(#SVGID_18_);fill:#CFDCDF;}
	.st21{clip-path:url(#SVGID_20_);fill:#CFDCDF;}
	.st22{clip-path:url(#SVGID_22_);fill:#CFDCDF;}
	.st23{clip-path:url(#SVGID_24_);fill:#CFDCDF;}
	.st24{clip-path:url(#SVGID_26_);fill:#CFDCDF;}
	.st25{clip-path:url(#SVGID_28_);fill:#CFDCDF;}
	.st26{clip-path:url(#SVGID_30_);fill:#CFDCDF;}
	.st27{clip-path:url(#SVGID_32_);fill:#CFDCDF;}
	.st28{clip-path:url(#SVGID_34_);fill:#CFDCDF;}
	.st29{clip-path:url(#SVGID_36_);fill:#CFDCDF;}
	.st30{clip-path:url(#SVGID_38_);fill:#CFDCDF;}
	.st31{clip-path:url(#SVGID_40_);fill:#CFDCDF;}
	.st32{clip-path:url(#SVGID_42_);fill:#CFDCDF;}
	.st33{clip-path:url(#SVGID_44_);fill:#CFDCDF;}
	.st34{clip-path:url(#SVGID_46_);fill:#CFDCDF;}
	.st35{clip-path:url(#SVGID_48_);fill:#CFDCDF;}
	.st36{clip-path:url(#SVGID_50_);fill:#CFDCDF;}
	.st37{clip-path:url(#SVGID_52_);fill:#CFDCDF;}
	.st38{clip-path:url(#SVGID_54_);fill:#CFDCDF;}
	.st39{clip-path:url(#SVGID_56_);fill:#CFDCDF;}
	.st40{clip-path:url(#SVGID_58_);fill:#CFDCDF;}
	.st41{clip-path:url(#SVGID_60_);fill:#CFDCDF;}
	.st42{clip-path:url(#SVGID_62_);fill:#CFDCDF;}
	.st43{fill:#E83278;}
	.st44{fill:#95C23D;}
</style>
<g id="XMLID_2_">
	<g id="XMLID_3_">
		<rect id="XMLID_31_" x="167.1" y="313.3" class="st0" width="95.1" height="48.1"/>
		<rect id="XMLID_30_" x="177.1" y="376.4" class="st1" width="29.5" height="48.3"/>
		<rect id="XMLID_29_" x="214.6" y="372.8" class="st2" width="42.7" height="47.8"/>
		<polygon id="XMLID_28_" class="st2" points="167.1,367.8 168.4,367.8 214.6,368.9 213.8,383.8 206.5,383.8 206.6,377.5 
			202.7,376.2 177.1,375.8 176,383.8 165.9,383.8 		"/>
		<g id="XMLID_4_">
			<g id="XMLID_5_">
				<path id="XMLID_25_" class="st3" d="M186.2,344h7l1.9,6.2h5.9l-7.5-24.2h-7.2l-7.4,24.2h5.6L186.2,344z M188.5,334.7
					c0.4-1.4,0.8-3.2,1.1-4.7h0.1c0.3,1.4,0.8,3.2,1.2,4.7l1.5,5.2H187L188.5,334.7z"/>
				<polygon id="XMLID_24_" class="st3" points="206.7,350.2 212.2,350.2 212.2,330.5 218.8,330.5 218.8,325.9 200.2,325.9 
					200.2,330.5 206.7,330.5 				"/>
				<path id="XMLID_23_" class="st3" d="M227.4,341c0.2-3,0.3-6.8,0.4-10h0c0.6,3.2,1.4,6.6,2.2,9.5l2.6,9.4h4.3l2.9-9.5
					c0.9-2.8,1.9-6.3,2.7-9.4h0.1c0,3.5,0.1,7.1,0.2,9.9l0.3,9.3h5.4l-1.4-24.2h-7.1l-2.6,8.1c-0.8,2.7-1.6,5.9-2.3,8.7h-0.1
					c-0.5-2.8-1.3-5.8-2-8.7l-2.4-8.1h-7.3l-1.5,24.2h5.1L227.4,341z"/>
				<path id="XMLID_6_" class="st3" d="M160,306.4v140.1h107.6V306.4H160z M204.2,419.4h-25.8v-41.8h25.8V419.4z M211.6,374.2
					L211.6,374.2v6.6h-3.9v-6.6h-32.9v6.6h-3.9v-10.5h0.2h3.7h32.9h3.9l0,0V374.2z M223.3,418.4h-8v-8h8V418.4z M223.3,406.4h-8v-8
					h8V406.4z M223.3,394.8h-8v-8h8V394.8z M223.3,382.8h-8v-8h8V382.8z M239.3,418.4h-8v-8h8V418.4z M239.3,406.4h-8v-8h8V406.4z
					 M239.3,394.8h-8v-8h8V394.8z M239.3,382.8h-8v-8h8V382.8z M255.3,418.4h-8v-8h8V418.4z M255.3,406.4h-8v-8h8V406.4z
					 M255.3,394.8h-8v-8h8V394.8z M255.3,382.8h-8v-8h8V382.8z M257.6,359h-87.6v-43.1h87.6V359z"/>
			</g>
		</g>
	</g>
</g>
<g id="XMLID_114_">
	<path id="XMLID_64_" class="st4" d="M441.7,357.6H429v-8v-3.5v-21.6h-1.8h-25.4c0,0,0,8.1,0,10.5c-3.3,0-58.8,0-58.8,0v11.1h-43.6
		v41.7l-21.2-9.4v2.7v54.1l21.2,9.5V465H343h3.5H429v-53.7h14.4v-53.7H441.7L441.7,357.6z"/>
	<path id="XMLID_63_" class="st5" d="M299.4,440.8c-6.9-3.1-16.4-7.3-17.6-7.9c0-0.5,0-3,0-6.7l17.6,7.9V440.8L299.4,440.8z"/>
	<path id="XMLID_62_" class="st5" d="M299.4,430.2l-17.6-7.9c0-2.1,0-4.3,0-6.7l17.6,7.9L299.4,430.2L299.4,430.2z"/>
	<path id="XMLID_61_" class="st5" d="M299.4,419.6l-17.6-7.9c0-2.2,0-4.5,0-6.7l17.6,7.9V419.6L299.4,419.6z"/>
	<path id="XMLID_60_" class="st5" d="M299.4,409l-17.6-7.9c0-2.4,0-4.6,0-6.7l17.6,7.9V409L299.4,409z"/>
	<path id="XMLID_59_" class="st5" d="M299.4,398.4l-17.6-7.9c0-3.3,0-5.8,0-6.7c2.6,1.2,11.6,5.2,17.6,7.9V398.4L299.4,398.4z"/>
	<path id="XMLID_58_" class="st6" d="M343,461.5c-3.1,0-36.9,0-40,0c0-3.4,0-108.6,0-111.9c3.1,0,36.9,0,40,0V461.5L343,461.5z"/>
	<path id="XMLID_57_" class="st7" d="M425.5,461.5c-3.3,0-75.6,0-78.9,0c0-0.7,0-6.1,0-14.1h28.9v5.3H399v-5.3h26.5
		C425.5,455.4,425.5,460.8,425.5,461.5L425.5,461.5z"/>
	<path id="XMLID_56_" class="st7" d="M425.5,443.8h-78.9c0-4.3,0-9.2,0-14.5h28.9v5.3H399v-5.3h26.5
		C425.5,434.6,425.5,439.5,425.5,443.8L425.5,443.8z"/>
	<path id="XMLID_55_" class="st7" d="M425.5,425.8h-78.9c0-4.7,0-9.6,0-14.5h28.9v5.3H399v-5.3h26.5
		C425.5,416.2,425.5,421.1,425.5,425.8L425.5,425.8z"/>
	<path id="XMLID_54_" class="st7" d="M425.5,407.7h-78.9c0-27.9,0-56.5,0-58.2c3.3,0,75.6,0,78.9,0
		C425.5,351.3,425.5,379.9,425.5,407.7L425.5,407.7z"/>
	<path id="XMLID_53_" class="st7" d="M425.5,346.1h-78.9c0-2,0-5.6,0-7.5c3.3,0,58.8,0,58.8,0s0-8.1,0-10.5c2.8,0,17.3,0,20.1,0
		C425.5,330.7,425.5,343.4,425.5,346.1L425.5,346.1z"/>
	<path id="XMLID_52_" class="st5" d="M440,407.7c-2.3,0-8.1,0-10.4,0c0-3.2,0-43.5,0-46.6c2.3,0,8.1,0,10.4,0
		C440,364.3,440,404.6,440,407.7L440,407.7z"/>
	<polygon id="XMLID_1_" class="st4" points="420.3,354.4 400.3,354.4 400.3,360.3 420.3,360.3 	"/>
</g>
<g id="XMLID_33_">
	<g id="XMLID_34_">
		<g id="XMLID_35_">
			<g id="XMLID_128_">
				<path id="XMLID_96_" class="st8" d="M267.9,423.5l-24.7,26.1c-4.8,5.1-4.6,13.1,0.5,17.9l69.4,65.6c5.1,4.8,13.1,4.5,17.9-0.5
					l24.7-26.1c4.8-5.1,4.6-13.1-0.5-17.9L285.8,423C280.7,418.2,272.7,418.5,267.9,423.5"/>
				<path id="XMLID_95_" class="st9" d="M280.2,425.3l-34.5,36.5c0,0,0,0.2,0,0.2l72,68.2c0,0,0.2,0,0.2,0l34.5-36.5
					c0,0,0-0.2,0-0.2l-72-68.2C280.4,425.2,280.2,425.2,280.2,425.3"/>
				<g id="XMLID_131_" class="st10">
					<g id="XMLID_132_">
						<g>
							<defs>
								
									<rect id="SVGID_1_" x="273.8" y="428" transform="matrix(0.6872 -0.7265 0.7265 0.6872 -253.5538 366.6819)" width="50.4" height="99.6"/>
							</defs>
							<clipPath id="SVGID_2_">
								<use xlink:href="#SVGID_1_"  style="overflow:visible;"/>
							</clipPath>
							<path id="XMLID_94_" class="st11" d="M280.1,425.4l-34.4,36.4c0,0,0,0.2,0,0.2l72,68.2c0,0,0.2,0,0.2,0l-37.7-104.8
								C280.3,425.3,280.2,425.3,280.1,425.4"/>
						</g>
					</g>
				</g>
				<path id="XMLID_92_" class="st12" d="M264.1,431.9l-12.7,13.5c-0.3,0.4-0.3,1,0,1.3l0,0c0.4,0.3,1,0.3,1.3,0l12.7-13.5
					c0.3-0.4,0.3-1,0-1.3l0,0C265,431.5,264.5,431.5,264.1,431.9"/>
				<path id="XMLID_91_" class="st12" d="M336.9,513.5c-1.2,1.3-1.1,3.2,0.1,4.4c1.3,1.2,3.2,1.1,4.4-0.1c1.2-1.3,1.1-3.2-0.1-4.4
					C340,512.2,338.1,512.3,336.9,513.5"/>
			</g>
			<g id="XMLID_89_">
				<g>
					<defs>
						<path id="SVGID_3_" d="M245.7,461.8c0,0,0,0.2,0,0.2l72,68.2c0,0,0.2,0,0.2,0l34.5-36.5c0,0,0-0.2,0-0.2l-72-68.2
							c0,0-0.2,0-0.2,0L245.7,461.8z"/>
					</defs>
					<clipPath id="SVGID_4_">
						<use xlink:href="#SVGID_3_"  style="overflow:visible;"/>
					</clipPath>
					<path id="XMLID_88_" class="st13" d="M303.4,519.4l2.4-2.2c0.4-0.3,2.6-1.9,3-2.1c0.3-0.1,2.4-1.3,3.7-2l1.7-1.2l0.3,0.4
						l-1.7,1.2c-0.3,0.2-3.3,1.9-3.8,2c-0.2,0-1.6,1.1-2.9,2l-2.4,2.2"/>
				</g>
				<g>
					<defs>
						<path id="SVGID_5_" d="M245.7,461.8c0,0,0,0.2,0,0.2l72,68.2c0,0,0.2,0,0.2,0l34.5-36.5c0,0,0-0.2,0-0.2l-72-68.2
							c0,0-0.2,0-0.2,0L245.7,461.8z"/>
					</defs>
					<clipPath id="SVGID_6_">
						<use xlink:href="#SVGID_5_"  style="overflow:visible;"/>
					</clipPath>
					<line id="XMLID_87_" class="st14" x1="306.9" y1="522.8" x2="307.3" y2="523.2"/>
				</g>
				<g>
					<defs>
						<path id="SVGID_7_" d="M245.7,461.8c0,0,0,0.2,0,0.2l72,68.2c0,0,0.2,0,0.2,0l34.5-36.5c0,0,0-0.2,0-0.2l-72-68.2
							c0,0-0.2,0-0.2,0L245.7,461.8z"/>
					</defs>
					<clipPath id="SVGID_8_">
						<use xlink:href="#SVGID_7_"  style="overflow:visible;"/>
					</clipPath>
					<polygon id="XMLID_86_" class="st15" points="323.2,506.1 323.7,506.5 318.2,512 317.8,511.7 					"/>
				</g>
				<g>
					<defs>
						<path id="SVGID_9_" d="M245.7,461.8c0,0,0,0.2,0,0.2l72,68.2c0,0,0.2,0,0.2,0l34.5-36.5c0,0,0-0.2,0-0.2l-72-68.2
							c0,0-0.2,0-0.2,0L245.7,461.8z"/>
					</defs>
					<clipPath id="SVGID_10_">
						<use xlink:href="#SVGID_9_"  style="overflow:visible;"/>
					</clipPath>
					<polygon id="XMLID_85_" class="st16" points="310.2,493 313.3,496.1 324.2,506.4 330.2,512.1 329.9,512.4 323.9,506.7 
						313,496.4 309.8,493.3 295.3,480.1 295.6,479.7 					"/>
				</g>
				<g>
					<defs>
						<path id="SVGID_11_" d="M245.7,461.8c0,0,0,0.2,0,0.2l72,68.2c0,0,0.2,0,0.2,0l34.5-36.5c0,0,0-0.2,0-0.2l-72-68.2
							c0,0-0.2,0-0.2,0L245.7,461.8z"/>
					</defs>
					<clipPath id="SVGID_12_">
						<use xlink:href="#SVGID_11_"  style="overflow:visible;"/>
					</clipPath>
					<polygon id="XMLID_84_" class="st17" points="315.3,504 320.3,509.1 320,509.4 315,504.3 309.8,500.3 310.1,499.9 					"/>
				</g>
				<g>
					<defs>
						<path id="SVGID_13_" d="M245.7,461.8c0,0,0,0.2,0,0.2l72,68.2c0,0,0.2,0,0.2,0l34.5-36.5c0,0,0-0.2,0-0.2l-72-68.2
							c0,0-0.2,0-0.2,0L245.7,461.8z"/>
					</defs>
					<clipPath id="SVGID_14_">
						<use xlink:href="#SVGID_13_"  style="overflow:visible;"/>
					</clipPath>
					<path id="XMLID_83_" class="st18" d="M329.9,495.5l0.2,0.5c-0.1,0-2,0.5-3,0.4c-1.4-0.2-3.3-1.8-4.3-2.8
						c-1.6-1.4-3.8-3.3-3.8-3.3l0.3-0.4c0,0,2.2,1.8,3.8,3.3c1.7,1.5,3.2,2.5,4,2.6C328,496,329.9,495.5,329.9,495.5"/>
				</g>
				<g>
					<defs>
						<path id="SVGID_15_" d="M245.7,461.8c0,0,0,0.2,0,0.2l72,68.2c0,0,0.2,0,0.2,0l34.5-36.5c0,0,0-0.2,0-0.2l-72-68.2
							c0,0-0.2,0-0.2,0L245.7,461.8z"/>
					</defs>
					<clipPath id="SVGID_16_">
						<use xlink:href="#SVGID_15_"  style="overflow:visible;"/>
					</clipPath>
					<path id="XMLID_82_" class="st19" d="M327.2,474.6l1.5,2.8l1.8,4.6c0,0,0.8,2.9,1.3,4.2c0.4,1.2,0.3,3.1,0.2,4.2
						c0,0.1,0,0.3,0,0.4c0,0.7,0.3,2.2,1.2,5.1c0.4,1.4,0.6,2.2,0.7,2.8c0.1,0.6,0.2,1,0.4,1.5c0.4,0.9,0.6,1.1,1.2,1.6
						c0.1,0.1,0.3,0.2,0.5,0.4c0.9,0.8,2.4,1.8,2.4,1.8l-0.2,0.4c0,0-1.6-1.1-2.5-1.9c-0.2-0.1-0.3-0.3-0.4-0.4
						c-0.6-0.5-0.9-0.8-1.4-1.8c-0.2-0.6-0.3-1-0.5-1.6c-0.1-0.6-0.3-1.4-0.7-2.8c-0.9-3-1.2-4.6-1.2-5.3c0-0.1,0-0.2,0-0.4
						c0-0.9,0.2-2.9-0.2-4c-0.5-1.3-1.3-4.1-1.3-4.2l-1.8-4.6l-1.5-2.5L327.2,474.6z"/>
				</g>
				<g>
					<defs>
						<path id="SVGID_17_" d="M245.7,461.8c0,0,0,0.2,0,0.2l72,68.2c0,0,0.2,0,0.2,0l34.5-36.5c0,0,0-0.2,0-0.2l-72-68.2
							c0,0-0.2,0-0.2,0L245.7,461.8z"/>
					</defs>
					<clipPath id="SVGID_18_">
						<use xlink:href="#SVGID_17_"  style="overflow:visible;"/>
					</clipPath>
					<polygon id="XMLID_81_" class="st20" points="313.5,457.2 324.2,467.6 322.9,469.4 327.7,473.7 327.3,474 322.3,469.4 
						323.5,467.6 313.2,457.5 303,448.2 303.3,447.8 					"/>
				</g>
				<g>
					<defs>
						<path id="SVGID_19_" d="M245.7,461.8c0,0,0,0.2,0,0.2l72,68.2c0,0,0.2,0,0.2,0l34.5-36.5c0,0,0-0.2,0-0.2l-72-68.2
							c0,0-0.2,0-0.2,0L245.7,461.8z"/>
					</defs>
					<clipPath id="SVGID_20_">
						<use xlink:href="#SVGID_19_"  style="overflow:visible;"/>
					</clipPath>
					<path id="XMLID_80_" class="st21" d="M322.2,461.8c-1.4,1.4-2.7,2.7-2.8,2.8c-0.3,0.1-1.2,1-1.4,1.2l-2.5,3.2l-4.6,5.2
						l-6.4,7.6l0.4,0.3l6.4-7.6l4.6-5.2l2.5-3.2c0.4-0.4,1.1-1,1.3-1.1c0.2-0.1,1.5-1.4,3-2.9C322.5,462.1,322.3,461.9,322.2,461.8"
						/>
				</g>
				<g>
					<defs>
						<path id="SVGID_21_" d="M356.7,535.7c0.1,0,0.2-0.1,0.2-0.2l-4.8-99.1c0-0.1-0.1-0.2-0.2-0.2l-50.1,2.5
							c-0.1,0-0.2,0.1-0.2,0.2l4.8,99.1c0,0.1,0.1,0.2,0.2,0.2L356.7,535.7z"/>
					</defs>
					<clipPath id="SVGID_22_">
						<use xlink:href="#SVGID_21_"  style="overflow:visible;"/>
					</clipPath>
					
						<rect id="XMLID_79_" x="315.8" y="471.7" transform="matrix(0.7219 0.692 -0.692 0.7219 417.5836 -86.2084)" class="st22" width="0.5" height="9.4"/>
				</g>
				<g>
					<defs>
						<path id="SVGID_23_" d="M245.7,461.8c0,0,0,0.2,0,0.2l72,68.2c0,0,0.2,0,0.2,0l34.5-36.5c0,0,0-0.2,0-0.2l-72-68.2
							c0,0-0.2,0-0.2,0L245.7,461.8z"/>
					</defs>
					<clipPath id="SVGID_24_">
						<use xlink:href="#SVGID_23_"  style="overflow:visible;"/>
					</clipPath>
					<polygon id="XMLID_78_" class="st23" points="321.4,487.4 321.1,487.7 312.1,479.6 302.6,470.8 303,470.4 312.4,479.3 					"/>
				</g>
				<g>
					<defs>
						<path id="SVGID_25_" d="M245.7,461.8c0,0,0,0.2,0,0.2l72,68.2c0,0,0.2,0,0.2,0l34.5-36.5c0,0,0-0.2,0-0.2l-72-68.2
							c0,0-0.2,0-0.2,0L245.7,461.8z"/>
					</defs>
					<clipPath id="SVGID_26_">
						<use xlink:href="#SVGID_25_"  style="overflow:visible;"/>
					</clipPath>
					<polygon id="XMLID_77_" class="st24" points="305.1,468 304.8,468.3 293.3,458.7 293.7,458.4 					"/>
				</g>
				<g>
					<defs>
						<path id="SVGID_27_" d="M245.7,461.8c0,0,0,0.2,0,0.2l72,68.2c0,0,0.2,0,0.2,0l34.5-36.5c0,0,0-0.2,0-0.2l-72-68.2
							c0,0-0.2,0-0.2,0L245.7,461.8z"/>
					</defs>
					<clipPath id="SVGID_28_">
						<use xlink:href="#SVGID_27_"  style="overflow:visible;"/>
					</clipPath>
					<polygon id="XMLID_76_" class="st25" points="300.3,464.3 293.5,471.6 293.2,471.3 299.9,463.9 					"/>
				</g>
				<g>
					<defs>
						<path id="SVGID_29_" d="M245.7,461.8c0,0,0,0.2,0,0.2l72,68.2c0,0,0.2,0,0.2,0l34.5-36.5c0,0,0-0.2,0-0.2l-72-68.2
							c0,0-0.2,0-0.2,0L245.7,461.8z"/>
					</defs>
					<clipPath id="SVGID_30_">
						<use xlink:href="#SVGID_29_"  style="overflow:visible;"/>
					</clipPath>
					<polygon id="XMLID_75_" class="st26" points="304.4,488.1 301,491.9 300.6,491.6 304,487.8 					"/>
				</g>
				<g>
					<defs>
						<path id="SVGID_31_" d="M245.7,461.8c0,0,0,0.2,0,0.2l72,68.2c0,0,0.2,0,0.2,0l34.5-36.5c0,0,0-0.2,0-0.2l-72-68.2
							c0,0-0.2,0-0.2,0L245.7,461.8z"/>
					</defs>
					<clipPath id="SVGID_32_">
						<use xlink:href="#SVGID_31_"  style="overflow:visible;"/>
					</clipPath>
					<polygon id="XMLID_74_" class="st27" points="309.8,514.7 309.5,515 300.3,507.5 291.8,500.1 292.1,499.7 300.5,507.1 					"/>
				</g>
				<g>
					<defs>
						<path id="SVGID_33_" d="M245.7,461.8c0,0,0,0.2,0,0.2l72,68.2c0,0,0.2,0,0.2,0l34.5-36.5c0,0,0-0.2,0-0.2l-72-68.2
							c0,0-0.2,0-0.2,0L245.7,461.8z"/>
					</defs>
					<clipPath id="SVGID_34_">
						<use xlink:href="#SVGID_33_"  style="overflow:visible;"/>
					</clipPath>
					<polygon id="XMLID_73_" class="st28" points="292.1,482 291.8,482.4 285.2,477.4 277.1,470.3 277.4,469.9 285.5,477 					"/>
				</g>
				<g>
					<defs>
						<path id="SVGID_35_" d="M245.7,461.8c0,0,0,0.2,0,0.2l72,68.2c0,0,0.2,0,0.2,0l34.5-36.5c0,0,0-0.2,0-0.2l-72-68.2
							c0,0-0.2,0-0.2,0L245.7,461.8z"/>
					</defs>
					<clipPath id="SVGID_36_">
						<use xlink:href="#SVGID_35_"  style="overflow:visible;"/>
					</clipPath>
					<path id="XMLID_72_" class="st29" d="M281.3,481.4c0.1,0.1,0.2,0.2,0.2,0.2c0.2,0.2,0.8,0.8,1.5,1.4c1.3,1.2,2.1,1.9,2.3,2.2
						c0.3,0.5,1.7,2.5,1.7,2.5l-0.4,0.2c0,0-1.4-2-1.7-2.5c-0.2-0.2-1.3-1.3-2.2-2.1c-0.7-0.7-1.4-1.3-1.5-1.5
						c-0.4-0.4-2-1.7-2.8-2.4c-0.3-0.2-3.5-2.4-4-2.9c-0.4-0.4-15.5-13.9-18.5-16.6l0.3-0.3c0.3,0.3,18.1,16.1,18.6,16.7
						c0.3,0.4,2.5,1.9,3.9,2.8C278.8,479.3,280.6,480.7,281.3,481.4"/>
				</g>
				<g>
					<defs>
						<path id="SVGID_37_" d="M245.7,461.8c0,0,0,0.2,0,0.2l72,68.2c0,0,0.2,0,0.2,0l34.5-36.5c0,0,0-0.2,0-0.2l-72-68.2
							c0,0-0.2,0-0.2,0L245.7,461.8z"/>
					</defs>
					<clipPath id="SVGID_38_">
						<use xlink:href="#SVGID_37_"  style="overflow:visible;"/>
					</clipPath>
					<path id="XMLID_71_" class="st30" d="M277.6,469.9c-0.1,0.1-3.1,3.5-3.5,3.9c-0.3,0.3-1.1,1.7-1.5,2.5c-0.2,0.5-1.8,2-2,2.2
						l-0.4-0.4c0.7-0.7,1.7-1.8,1.9-2.1c0.2-0.3,1.2-2.1,1.5-2.6c0.4-0.4,3.4-3.8,3.5-3.9L277.6,469.9z"/>
				</g>
				<g>
					<defs>
						<path id="SVGID_39_" d="M245.7,461.8c0,0,0,0.2,0,0.2l72,68.2c0,0,0.2,0,0.2,0l34.5-36.5c0,0,0-0.2,0-0.2l-72-68.2
							c0,0-0.2,0-0.2,0L245.7,461.8z"/>
					</defs>
					<clipPath id="SVGID_40_">
						<use xlink:href="#SVGID_39_"  style="overflow:visible;"/>
					</clipPath>
					<polygon id="XMLID_70_" class="st31" points="276.4,438.6 249.4,467.5 249,467.2 276,438.2 					"/>
				</g>
				<g>
					<defs>
						<path id="SVGID_41_" d="M245.7,461.8c0,0,0,0.2,0,0.2l72,68.2c0,0,0.2,0,0.2,0l34.5-36.5c0,0,0-0.2,0-0.2l-72-68.2
							c0,0-0.2,0-0.2,0L245.7,461.8z"/>
					</defs>
					<clipPath id="SVGID_42_">
						<use xlink:href="#SVGID_41_"  style="overflow:visible;"/>
					</clipPath>
					<path id="XMLID_69_" class="st32" d="M289.7,457.8c1.2,1.1,2.5,2.4,2.6,2.5l-0.3,0.3c0,0-3.1-3.1-4-3.7l-0.2-0.1
						c-0.9-0.7-2.6-1.9-3.8-2.5c-1.3-0.6-3.8-3-3.9-3.1l0.3-0.3c0,0,2.5,2.5,3.8,3c1.2,0.6,2.9,1.9,3.9,2.6l0.2,0.1
						C288.6,456.7,289.1,457.2,289.7,457.8"/>
				</g>
				<g>
					<defs>
						<path id="SVGID_43_" d="M245.7,461.8c0,0,0,0.2,0,0.2l72,68.2c0,0,0.2,0,0.2,0l34.5-36.5c0,0,0-0.2,0-0.2l-72-68.2
							c0,0-0.2,0-0.2,0L245.7,461.8z"/>
					</defs>
					<clipPath id="SVGID_44_">
						<use xlink:href="#SVGID_43_"  style="overflow:visible;"/>
					</clipPath>
					<path id="XMLID_68_" class="st33" d="M277.5,439.6l0.4,0.4l-2.6,2.8l4.8,4.5c1.1,1.1,1.2,1.9,1.2,1.9l-0.4,0.3
						c0,0-0.2-1.1-1.2-1.9l-5.2-4.9L277.5,439.6z"/>
				</g>
				<g>
					<defs>
						<path id="SVGID_45_" d="M245.7,461.8c0,0,0,0.2,0,0.2l72,68.2c0,0,0.2,0,0.2,0l34.5-36.5c0,0,0-0.2,0-0.2l-72-68.2
							c0,0-0.2,0-0.2,0L245.7,461.8z"/>
					</defs>
					<clipPath id="SVGID_46_">
						<use xlink:href="#SVGID_45_"  style="overflow:visible;"/>
					</clipPath>
					<polygon id="XMLID_67_" class="st34" points="284.8,445.3 284.5,445.7 271.4,434.2 271.7,433.8 					"/>
				</g>
				<g>
					<defs>
						<path id="SVGID_47_" d="M266.5,490.8c0,0.1,0.1,0.2,0.2,0.2l99-6.5c0.1,0,0.2-0.1,0.2-0.2l-3.3-50.1c0-0.1-0.1-0.2-0.2-0.2
							l-99,6.5c-0.1,0-0.2,0.1-0.2,0.2L266.5,490.8z"/>
					</defs>
					<clipPath id="SVGID_48_">
						<use xlink:href="#SVGID_47_"  style="overflow:visible;"/>
					</clipPath>
					
						<rect id="XMLID_66_" x="289.1" y="444.8" transform="matrix(-0.6795 0.7337 -0.7337 -0.6795 817.8405 547.6562)" class="st35" width="0.5" height="15.4"/>
				</g>
				<g>
					<defs>
						<path id="SVGID_49_" d="M245.7,461.8c0,0,0,0.2,0,0.2l72,68.2c0,0,0.2,0,0.2,0l34.5-36.5c0,0,0-0.2,0-0.2l-72-68.2
							c0,0-0.2,0-0.2,0L245.7,461.8z"/>
					</defs>
					<clipPath id="SVGID_50_">
						<use xlink:href="#SVGID_49_"  style="overflow:visible;"/>
					</clipPath>
					<polygon id="XMLID_65_" class="st36" points="298.2,441.9 295.9,444.8 292.7,449 292.2,448.6 295.4,444.4 297.7,441.6 					"/>
				</g>
				<g>
					<defs>
						<path id="SVGID_51_" d="M245.7,461.8c0,0,0,0.2,0,0.2l72,68.2c0,0,0.2,0,0.2,0l34.5-36.5c0,0,0-0.2,0-0.2l-72-68.2
							c0,0-0.2,0-0.2,0L245.7,461.8z"/>
					</defs>
					<clipPath id="SVGID_52_">
						<use xlink:href="#SVGID_51_"  style="overflow:visible;"/>
					</clipPath>
					<polygon id="XMLID_51_" class="st37" points="304,447.1 303.7,447.4 292.6,437 285.1,430.5 279.8,436.7 279.3,436.4 285,429.8 
						292.9,436.7 					"/>
				</g>
				<g>
					<defs>
						<path id="SVGID_53_" d="M245.7,461.8c0,0,0,0.2,0,0.2l72,68.2c0,0,0.2,0,0.2,0l34.5-36.5c0,0,0-0.2,0-0.2l-72-68.2
							c0,0-0.2,0-0.2,0L245.7,461.8z"/>
					</defs>
					<clipPath id="SVGID_54_">
						<use xlink:href="#SVGID_53_"  style="overflow:visible;"/>
					</clipPath>
					<polyline id="XMLID_50_" class="st38" points="325,518.4 318,511.8 318.4,511.5 325.3,518.1 					"/>
				</g>
				<g>
					<defs>
						<path id="SVGID_55_" d="M245.7,461.8c0,0,0,0.2,0,0.2l72,68.2c0,0,0.2,0,0.2,0l34.5-36.5c0,0,0-0.2,0-0.2l-72-68.2
							c0,0-0.2,0-0.2,0L245.7,461.8z"/>
					</defs>
					<clipPath id="SVGID_56_">
						<use xlink:href="#SVGID_55_"  style="overflow:visible;"/>
					</clipPath>
					<polyline id="XMLID_49_" class="st39" points="266.9,482.1 270.3,478.5 270.7,479 267.4,482.5 					"/>
				</g>
				<g>
					<defs>
						<path id="SVGID_57_" d="M245.7,461.8c0,0,0,0.2,0,0.2l72,68.2c0,0,0.2,0,0.2,0l34.5-36.5c0,0,0-0.2,0-0.2l-72-68.2
							c0,0-0.2,0-0.2,0L245.7,461.8z"/>
					</defs>
					<clipPath id="SVGID_58_">
						<use xlink:href="#SVGID_57_"  style="overflow:visible;"/>
					</clipPath>
					<polygon id="XMLID_48_" class="st40" points="278.1,470.1 277.7,470.4 277,470.4 259.3,456.4 259.9,455.6 					"/>
				</g>
				<g>
					<defs>
						<path id="SVGID_59_" d="M245.7,461.8c0,0,0,0.2,0,0.2l72,68.2c0,0,0.2,0,0.2,0l34.5-36.5c0,0,0-0.2,0-0.2l-72-68.2
							c0,0-0.2,0-0.2,0L245.7,461.8z"/>
					</defs>
					<clipPath id="SVGID_60_">
						<use xlink:href="#SVGID_59_"  style="overflow:visible;"/>
					</clipPath>
					<path id="XMLID_47_" class="st41" d="M326.9,481l-0.4-0.4l-9.7,11.3l-4.2,4.8l-7.1,8.1l-2.3-2l-16.5-14.9l-0.3,0.3l4.6,4.1v0.1
						c0,0.2,0.3,1.9,0.6,3.4l0.1,0.7l-38.5-33.3l-0.5,0.6l39.3,33.9v0.1c0,0.8-0.1,2.1-0.2,2.7l-0.3,8.8l0.5,0.1l0.2-8.6
						c0-0.2,0.3-2.3,0.2-3.2c-0.1-0.6-0.5-2.6-0.7-3.9l-0.1-0.7l11.3,10.2l10.9,9.6l0.3-0.3l-8.2-7.2l7.1-8.1l4.2-4.8L326.9,481z"/>
				</g>
				<g>
					<defs>
						<path id="SVGID_61_" d="M245.7,461.8c0,0,0,0.2,0,0.2l72,68.2c0,0,0.2,0,0.2,0l34.5-36.5c0,0,0-0.2,0-0.2l-72-68.2
							c0,0-0.2,0-0.2,0L245.7,461.8z"/>
					</defs>
					<clipPath id="SVGID_62_">
						<use xlink:href="#SVGID_61_"  style="overflow:visible;"/>
					</clipPath>
					<path id="XMLID_46_" class="st42" d="M313.1,529.2l0.4,0.5c5.1-3.8,6.9-5.1,7.4-5.6c0.1-0.1,0.1-0.2,0.1-0.2
						c0.2-0.6,2.1-3,3.1-4.1c0.5-0.6,2.7-2.9,5.9-6.5l0.1-0.1l3.1-4.5l0,0c0,0,0.3-0.3,0.8-0.7c2.9-2.5,5.9-5,6.4-5.3
						c0.1-0.1,0.2-0.2,0.4-0.3c0.4-0.5,1-1.2,1.5-2c0.2-0.4,0.5-0.7,0.7-1.1c0.1-0.1,0.4-0.6,8.6-9.7l-0.5-0.4
						c-6.8,7.5-8.5,9.4-8.6,9.7c-0.2,0.3-0.4,0.6-0.7,1l0,0c-0.6,0.9-1.4,2-1.8,2.3c-0.4,0.3-3.3,2.7-5,4.2l-0.4,0.3l-3.9-9.8
						c0,0,0-0.1-0.1-0.4c-0.2-1-1-3.5-1.4-4.7c-0.4-1.4-0.5-3.5-0.3-5.5c0.5-3.8-3.2-7.3-3.2-7.4l0,0l0,0c0-0.1-0.4-0.4-0.7-0.6
						l-0.2-0.2l6-7.1l-0.5-0.5l-6.1,7.1l-0.4-0.4c-3.2-3-9.6-8.8-14.3-13.1l-0.3-0.2l6.4-7.4l-0.5-0.5l-6.4,7.4l-2.3-2l-7.9-7.2
						l0.2-0.3c2.2-2.4,4.3-4.9,6.4-7.2c-0.1-0.1-0.3-0.3-0.5-0.4c-2.1,2.4-4.2,4.8-6.4,7.2l-0.2,0.3l-11-10.1l6.1-6.9l-0.5-0.4
						l-6.1,6.9l-11.1-10.1l-0.3,0.4l11.1,10.1L269,462.8l0.5,0.4l17.4-19.6l11,10.1l-0.2,0.3c-0.8,0.9-1.6,1.8-2.5,2.8
						c-6.1,6.7-7.5,8.4-8,8.9l0,0c-0.1,0.1-0.1,0.1-0.2,0.2c-1.4,1.5-2.2,1.9-2.5,2c-0.5,0.1-1.2-0.1-2.1-0.5
						c-0.2-0.1-0.5-0.2-0.7-0.3c-1.1-0.4-2.2,0-2.4,0c-0.1,0-0.3,0.1-0.8,0.6c-0.4,0.4-0.8,1-1.2,1.4l0.5,0.4
						c0.4-0.6,0.9-1.1,1.2-1.4c0.2-0.3,0.4-0.3,0.5-0.4h0c0.5-0.1,1.4-0.3,2,0c0.2,0,0.4,0.1,0.6,0.2c0.8,0.4,1.8,0.8,2.6,0.6
						c0.4-0.1,1.2-0.6,2.7-2.1c0,0,0.1-0.1,0.2-0.3c0.5-0.5,1.9-2.2,8-8.9c0.9-1,1.7-1.9,2.5-2.8l0.2-0.3l7.9,7.2
						c0.6,0.5,1.3,1.2,2,1.8l0.3,0.2l-7.4,8.5l-7.1,7.9l-8.4,9.1l0.5,0.5l8.4-9.1l7.1-7.9l7.4-8.5l1,0.9c4.3,3.9,9.8,8.7,13.9,12.6
						l0.3,0.2L313,490.2l-10.6,12.2l0.7,0.5l10.4-12.3l11.2-12.5l0.3,0.3c0.5,0.4,0.9,0.9,1.3,1.3c2.4,2.3,2.3,5,2.3,6.2v0.5
						c0,1.9-0.1,3.9,0.3,5.3c0.3,1,0.8,2.9,1.2,4.1c0.1,0.6,0.3,1,0.3,1.1l4,10.1l-0.2,0.2c-0.6,0.5-1,0.8-1.1,1l0,0l-3.2,4.6
						l-0.3,0.3c-3.3,3.7-5.3,5.8-5.8,6.4c-0.9,0.9-2.8,3.4-3.2,4.2l-0.1,0.1C319.9,524.3,316.7,526.6,313.1,529.2"/>
				</g>
			</g>
			<g id="XMLID_36_">
				<path id="XMLID_44_" class="st43" d="M273,449.2c-4.2,0.1-7.5,3.6-7.4,7.8c0.1,4.2,8,14.8,8,14.8s7.3-11.1,7.2-15.3
					S277.2,449.1,273,449.2"/>
				<path id="XMLID_43_" class="st44" d="M334,472.8c-4.2,0.1-7.5,3.6-7.4,7.8s8,14.8,8,14.8s7.3-11.1,7.2-15.3
					C341.7,476,338.2,472.7,334,472.8"/>
				<path id="XMLID_42_" class="st2" d="M338.1,480.7c0,2.2-1.6,4-3.8,4.1c-2.2,0-4-1.6-4.1-3.8c0-2.2,1.6-4,3.8-4.1
					C336.3,476.8,338.1,478.5,338.1,480.7"/>
				<path id="XMLID_41_" class="st2" d="M277.2,457.1c0,2.2-1.6,4-3.8,4.1c-2.2,0-4-1.6-4.1-3.8c0-2.2,1.6-4,3.8-4.1
					C275.3,453.2,277.1,454.9,277.2,457.1"/>
			</g>
		</g>
	</g>
</g>
<g id="XMLID_118_">
</g>
<g id="XMLID_119_">
</g>
<g id="XMLID_120_">
</g>
<g id="XMLID_121_">
</g>
<g id="XMLID_122_">
</g>
<g id="XMLID_123_">
</g>
</svg>
