<?xml version="1.0" encoding="utf-8"?>
<!-- Generator: Adobe Illustrator 19.0.0, SVG Export Plug-In . SVG Version: 6.00 Build 0)  -->
<svg version="1.1" id="Capa_1" xmlns="http://www.w3.org/2000/svg" xmlns:xlink="http://www.w3.org/1999/xlink" x="0px" y="0px"
	 viewBox="0 0 595.3 610.1" style="enable-background:new 0 0 595.3 610.1;" xml:space="preserve">
<style type="text/css">
	.st0{fill:#ADDADA;}
	.st1{fill:#76C2A3;}
	.st2{fill:#FFFFFF;}
	.st3{fill:#373E4E;}
	.st4{fill:#393B41;}
	.st5{fill:#D7D9E1;}
	.st6{fill:#B5BAC4;}
	.st7{fill:#6A6F7A;}
	.st8{fill-rule:evenodd;clip-rule:evenodd;fill:#FFFFFF;stroke:#504F4E;stroke-width:1.0499;stroke-miterlimit:10;}
	.st9{fill-rule:evenodd;clip-rule:evenodd;fill:#105061;}
	.st10{opacity:0.1;}
	.st11{clip-path:url(#XMLID_141_);fill-rule:evenodd;clip-rule:evenodd;fill:#FFFFFF;}
	.st12{fill-rule:evenodd;clip-rule:evenodd;fill:#DADADA;}
	.st13{clip-path:url(#XMLID_142_);fill:#CFDCDF;}
	.st14{fill:#E83278;}
	.st15{fill:#95C23D;}
</style>
<g id="XMLID_2_">
	<g id="XMLID_3_">
		<rect id="XMLID_31_" x="23" y="14.3" class="st0" width="196.9" height="99.6"/>
		<rect id="XMLID_30_" x="43.6" y="145" class="st1" width="61" height="100"/>
		<rect id="XMLID_29_" x="121.4" y="137.6" class="st2" width="88.5" height="99"/>
		<polygon id="XMLID_28_" class="st2" points="23,127.2 25.6,127.2 121.4,129.5 119.6,160.4 104.5,160.4 104.8,147.3 96.7,144.6 
			43.6,143.8 41.4,160.4 20.5,160.4 		"/>
		<g id="XMLID_4_">
			<g id="XMLID_5_">
				<path id="XMLID_25_" class="st3" d="M62.6,77.8H77l3.9,12.9h12.2L77.5,40.5H62.6L47.3,90.7H59L62.6,77.8z M67.2,58.6
					c0.8-2.9,1.6-6.7,2.3-9.7h0.2c0.7,3,1.6,6.7,2.5,9.7l3.1,10.7H64.2L67.2,58.6z"/>
				<polygon id="XMLID_24_" class="st3" points="105,90.7 116.4,90.7 116.4,50 130.1,50 130.1,40.5 91.5,40.5 91.5,50 105,50 				
					"/>
				<path id="XMLID_23_" class="st3" d="M147.9,71.6c0.4-6.3,0.6-14,0.9-20.8h0.1c1.2,6.6,2.9,13.7,4.5,19.6l5.4,19.4h8.9l6.1-19.6
					c1.9-5.9,4-13,5.6-19.4h0.2c0,7.3,0.2,14.6,0.4,20.6l0.7,19.2h11.1l-2.8-50.2h-14.8l-5.4,16.7c-1.6,5.6-3.4,12.2-4.8,18h-0.2
					c-1.1-5.9-2.7-12.1-4.2-18l-4.9-16.8h-15.1l-3.2,50.2H147L147.9,71.6z"/>
				<path id="XMLID_6_" class="st3" d="M8.2,0v290.1H231V0H8.2z M99.7,234H46.2v-86.6h53.5V234z M115.2,140.5L115.2,140.5l0,13.6
					h-8.1v-13.6H38.9v13.6h-8.1v-21.7h0.5h7.6h68.2h8.1h0V140.5z M139.3,231.9h-16.5v-16.5h16.5V231.9z M139.3,207.2h-16.5v-16.5
					h16.5V207.2z M139.3,183h-16.5v-16.5h16.5V183z M139.3,158.2h-16.5v-16.5h16.5V158.2z M172.4,231.9h-16.5v-16.5h16.5V231.9z
					 M172.4,207.2h-16.5v-16.5h16.5V207.2z M172.4,183h-16.5v-16.5h16.5V183z M172.4,158.2h-16.5v-16.5h16.5V158.2z M205.6,231.9
					h-16.5v-16.5h16.5V231.9z M205.6,207.2h-16.5v-16.5h16.5V207.2z M205.6,183h-16.5v-16.5h16.5V183z M205.6,158.2h-16.5v-16.5
					h16.5V158.2z M210.3,108.9H28.8V19.6h181.5V108.9z"/>
			</g>
		</g>
	</g>
</g>
<g id="XMLID_114_">
	<path id="XMLID_64_" class="st4" d="M591.6,244.3h-26.3v-16.5v-7.3v-44.7h-3.7H509c0,0,0,16.7,0,21.7c-6.9,0-121.8,0-121.8,0v23
		H297v86.3l-43.8-19.5v5.6V405l43.8,19.6v42.2h90.2h7.3h170.8V355.5h29.9V244.3H591.6L591.6,244.3z"/>
	<path id="XMLID_63_" class="st5" d="M297,416.5c-14.3-6.4-34-15.2-36.5-16.3c0-1,0-6.3,0-13.9l36.5,16.3V416.5L297,416.5z"/>
	<path id="XMLID_62_" class="st5" d="M297,394.6l-36.5-16.3c0-4.3,0-9,0-13.9l36.5,16.3V394.6L297,394.6z"/>
	<path id="XMLID_61_" class="st5" d="M297,372.6l-36.5-16.3c0-4.6,0-9.3,0-13.9l36.5,16.3V372.6L297,372.6z"/>
	<path id="XMLID_60_" class="st5" d="M297,350.6l-36.5-16.3c0-4.9,0-9.6,0-13.9l36.5,16.3V350.6L297,350.6z"/>
	<path id="XMLID_59_" class="st5" d="M297,328.7l-36.5-16.3c0-6.9,0-12,0-13.9c5.4,2.4,24,10.7,36.5,16.3V328.7L297,328.7z"/>
	<path id="XMLID_58_" class="st6" d="M387.3,459.5c-6.5,0-76.5,0-82.9,0c0-7,0-224.8,0-231.7c6.4,0,76.5,0,82.9,0V459.5L387.3,459.5
		z"/>
	<path id="XMLID_57_" class="st7" d="M558,459.5c-6.9,0-156.6,0-163.4,0c0-1.5,0-12.6,0-29.3h59.8v11h48.8v-11H558
		C558,446.8,558,458,558,459.5L558,459.5z"/>
	<path id="XMLID_56_" class="st7" d="M558,422.9H394.6c0-9,0-19.1,0-30h59.8v11h48.8v-11H558C558,403.7,558,413.9,558,422.9
		L558,422.9z"/>
	<path id="XMLID_55_" class="st7" d="M558,385.5H394.6c0-9.7,0-19.8,0-30h59.8v11h48.8v-11H558C558,365.7,558,375.9,558,385.5
		L558,385.5z"/>
	<path id="XMLID_54_" class="st7" d="M558,348.2H394.6c0-57.7,0-116.9,0-120.5c6.9,0,156.6,0,163.4,0C558,231.3,558,290.5,558,348.2
		L558,348.2z"/>
	<path id="XMLID_53_" class="st7" d="M558,220.4H394.6c0-4.2,0-11.5,0-15.6c6.9,0,121.8,0,121.8,0s0-16.7,0-21.7
		c5.8,0,35.9,0,41.7,0C558,188.6,558,214.8,558,220.4L558,220.4z"/>
	<path id="XMLID_52_" class="st5" d="M588,348.2c-4.8,0-16.8,0-21.6,0c0-6.6,0-90,0-96.6c4.8,0,16.8,0,21.6,0
		C588,258.1,588,341.6,588,348.2L588,348.2z"/>
	<polygon id="XMLID_1_" class="st4" points="547.3,237.8 505.9,237.8 505.9,250 547.3,250 547.3,237.8 	"/>
</g>
<g id="XMLID_33_">
	<g id="XMLID_34_">
		<g id="XMLID_35_">
			<g id="XMLID_128_">
				<path id="XMLID_96_" class="st8" d="M122.6,372.5l-51.2,54.1c-9.9,10.5-9.5,27.2,1,37.1l143.7,135.9c10.5,9.9,27.2,9.4,37.1-1
					l51.2-54.1c9.9-10.5,9.5-27.2-1-37.1L159.7,371.5C149.2,361.6,132.5,362,122.6,372.5"/>
				<path id="XMLID_95_" class="st9" d="M147.9,376.3l-71.4,75.5c-0.1,0.1-0.1,0.4,0,0.5l149.2,141.2c0.1,0.1,0.4,0.1,0.5,0
					l71.4-75.5c0.1-0.1,0.1-0.4,0-0.5L148.4,376.3C148.3,376.1,148.1,376.1,147.9,376.3"/>
				<g id="XMLID_131_" class="st10">
					<g id="XMLID_132_">
						<defs>
							
								<rect id="XMLID_93_" x="134.8" y="381.8" transform="matrix(-0.6872 0.7265 -0.7265 -0.6872 667.8522 682.2675)" width="104.4" height="206.2"/>
						</defs>
						<clipPath id="XMLID_141_">
							<use xlink:href="#XMLID_93_"  style="overflow:visible;"/>
						</clipPath>
						<path id="XMLID_94_" class="st11" d="M147.8,376.4l-71.3,75.3c-0.1,0.1-0.1,0.4,0,0.5l149.2,141.2c0.1,0.1,0.4,0.1,0.5,0
							l-78-217C148.2,376.3,147.9,376.3,147.8,376.4"/>
					</g>
				</g>
				<path id="XMLID_92_" class="st12" d="M114.7,389.9l-26.4,28c-0.7,0.8-0.7,2,0.1,2.7l0,0c0.8,0.7,2,0.7,2.7-0.1l26.4-28
					c0.7-0.8,0.7-2-0.1-2.7l0,0C116.6,389.1,115.4,389.1,114.7,389.9"/>
				<path id="XMLID_91_" class="st12" d="M265.5,559c-2.4,2.6-2.3,6.6,0.3,9.1c2.6,2.4,6.6,2.3,9.1-0.3c2.4-2.6,2.3-6.6-0.3-9.1
					C272,556.3,267.9,556.4,265.5,559"/>
			</g>
			<g id="XMLID_89_">
				<defs>
					<path id="XMLID_45_" d="M76.5,451.7c-0.1,0.1-0.1,0.4,0,0.5l149.2,141.2c0.1,0.1,0.4,0.1,0.5,0l71.4-75.5
						c0.1-0.1,0.1-0.4,0-0.5L148.4,376.3c-0.1-0.1-0.4-0.1-0.5,0L76.5,451.7z"/>
				</defs>
				<clipPath id="XMLID_142_">
					<use xlink:href="#XMLID_45_"  style="overflow:visible;"/>
				</clipPath>
				<path id="XMLID_88_" class="st13" d="M196.1,571.2l5-4.6c0.9-0.7,5.4-4,6.3-4.3c0.6-0.2,5-2.6,7.6-4.1l3.6-2.4l0.7,0.9l-3.6,2.4
					c-0.7,0.4-6.9,3.9-7.8,4.2c-0.5,0.1-3.4,2.2-6,4.1l-4.9,4.5"/>
				<line id="XMLID_87_" class="st13" x1="203.3" y1="578.1" x2="204.1" y2="578.9"/>
				<polygon id="XMLID_86_" class="st13" points="237.2,543.5 238,544.2 226.7,555.8 225.9,555 				"/>
				<polygon id="XMLID_85_" class="st13" points="210.1,516.4 216.6,522.8 239.2,544.1 251.6,555.9 250.9,556.6 238.5,544.8 
					215.9,523.5 209.4,517.1 179.2,489.7 179.9,488.9 				"/>
				<polygon id="XMLID_84_" class="st13" points="220.8,539.2 231,549.8 230.3,550.5 220.1,539.9 209.3,531.6 209.9,530.8 				"/>
				<path id="XMLID_83_" class="st13" d="M250.9,521.6l0.4,1c-0.2,0-4.1,1.1-6.3,0.8c-2.8-0.4-6.8-3.7-9-5.7c-3.3-3-7.8-6.8-7.8-6.8
					l0.6-0.8c0,0,4.5,3.8,7.9,6.8c3.5,3.2,6.6,5.2,8.3,5.4C246.9,522.7,250.8,521.6,250.9,521.6"/>
				<path id="XMLID_82_" class="st13" d="M245.3,478.4l3.1,5.8l3.8,9.6c0,0.1,1.7,6,2.7,8.6c0.9,2.4,0.7,6.5,0.5,8.6
					c0,0.3,0,0.6,0,0.8c-0.1,1.4,0.7,4.5,2.4,10.6c0.9,2.9,1.2,4.6,1.4,5.8c0.3,1.2,0.4,2,0.9,3.2c0.8,1.9,1.3,2.3,2.4,3.3
					c0.3,0.2,0.6,0.5,1,0.8c1.8,1.6,5,3.8,5,3.8l-0.5,0.8c-0.1-0.1-3.3-2.2-5.2-3.9c-0.4-0.3-0.7-0.6-0.9-0.8
					c-1.2-1-1.9-1.6-2.8-3.8c-0.5-1.3-0.7-2.1-1-3.4c-0.2-1.2-0.6-2.8-1.4-5.7c-1.8-6.3-2.5-9.5-2.5-11c0-0.2,0-0.5,0-0.8
					c0.1-1.9,0.4-6-0.5-8.2c-1-2.7-2.6-8.4-2.7-8.6l-3.8-9.5l-3.2-5.2L245.3,478.4z"/>
				<polygon id="XMLID_81_" class="st13" points="217.1,442.2 239.2,463.9 236.6,467.5 246.3,476.5 245.7,477.2 235.2,467.5 
					237.8,463.9 216.4,443 195.1,423.6 195.8,422.9 				"/>
				<path id="XMLID_80_" class="st13" d="M235,451.9c-2.9,3-5.5,5.5-5.8,5.8c-0.7,0.3-2.5,2-2.9,2.4l-5.2,6.6l-9.6,10.8l-13.3,15.8
					l0.8,0.7l13.3-15.7l9.6-10.8l5.2-6.6c0.8-0.8,2.2-2,2.6-2.2c0.4-0.2,3.2-2.9,6.2-6C235.6,452.4,235.3,452.1,235,451.9"/>
				
					<rect id="XMLID_79_" x="221.7" y="472.4" transform="matrix(-0.7219 -0.692 0.692 -0.7219 48.9917 983.9608)" class="st13" width="1.1" height="19.4"/>
				<polygon id="XMLID_78_" class="st13" points="233.3,504.8 232.7,505.5 214.1,488.7 194.4,470.4 195.1,469.7 214.8,487.9 				"/>
				<polygon id="XMLID_77_" class="st13" points="199.6,464.5 198.9,465.3 175.3,445.5 175.9,444.7 				"/>
				<polygon id="XMLID_76_" class="st13" points="189.7,457 175.7,472.2 174.9,471.4 188.9,456.2 				"/>
				<polygon id="XMLID_75_" class="st13" points="198.1,506.4 191.1,514.2 190.3,513.5 197.3,505.6 				"/>
				<polygon id="XMLID_74_" class="st13" points="209.3,561.3 208.7,562 189.6,546.4 172.1,531.2 172.7,530.4 190.2,545.7 				"/>
				<polygon id="XMLID_73_" class="st13" points="172.7,493.6 172.1,494.4 158.4,484.1 141.6,469.4 142.3,468.6 159.1,483.4 				"/>
				<path id="XMLID_72_" class="st13" d="M150.4,492.5c0.2,0.2,0.4,0.4,0.5,0.5c0.4,0.4,1.7,1.7,3.1,3c2.6,2.4,4.3,4,4.7,4.6
					c0.7,1,3.5,5.1,3.5,5.1l-0.9,0.5c0,0-2.8-4.1-3.5-5.1c-0.4-0.5-2.7-2.7-4.5-4.4c-1.5-1.4-2.8-2.6-3.2-3.1
					c-0.8-0.9-4.2-3.6-5.9-5c-0.7-0.5-7.3-4.9-8.3-6c-0.8-0.9-32.1-28.8-38.4-34.4l0.7-0.7c0.7,0.7,37.5,33.4,38.5,34.5
					c0.7,0.8,5.2,3.9,8.1,5.8C145,487.9,148.8,491,150.4,492.5"/>
				<path id="XMLID_71_" class="st13" d="M142.7,468.7c-0.3,0.3-6.4,7.2-7.2,8c-0.7,0.7-2.3,3.6-3.1,5.2c-0.5,1-3.7,4.2-4.1,4.6
					l-0.8-0.8c1.4-1.4,3.6-3.7,4-4.4c0.4-0.7,2.4-4.4,3.2-5.4c0.8-0.8,7.1-7.9,7.2-8L142.7,468.7z"/>
				<polygon id="XMLID_70_" class="st13" points="140.1,403.8 84.3,463.7 83.5,462.9 139.3,403 				"/>
				<path id="XMLID_69_" class="st13" d="M167.8,443.5c2.4,2.3,5.1,5,5.3,5.2l-0.7,0.7c-0.1-0.1-6.5-6.5-8.2-7.7l-0.4-0.3
					c-1.9-1.4-5.4-4-7.8-5.2c-2.7-1.3-7.9-6.3-8.1-6.5l0.7-0.7c0.1,0.1,5.2,5.1,7.8,6.3c2.5,1.2,6.1,3.9,8,5.3l0.4,0.3
					C165.4,441.3,166.5,442.3,167.8,443.5"/>
				<path id="XMLID_68_" class="st13" d="M142.3,405.9l0.8,0.8l-5.4,5.7l9.9,9.3c2.3,2.2,2.5,3.9,2.5,4l-0.8,0.7c0,0-0.5-2.2-2.4-4
					l-10.7-10.1L142.3,405.9z"/>
				<polygon id="XMLID_67_" class="st13" points="157.6,417.6 156.9,418.3 129.7,394.6 130.3,393.8 				"/>
				
					<rect id="XMLID_66_" x="166.3" y="416.5" transform="matrix(0.6795 -0.7337 0.7337 0.6795 -263.8233 261.0335)" class="st13" width="1" height="31.8"/>
				<polygon id="XMLID_65_" class="st13" points="185.2,410.6 180.4,416.6 173.8,425.3 172.9,424.6 179.5,415.9 184.3,409.9 				"/>
				<polygon id="XMLID_51_" class="st13" points="197.3,421.3 196.6,422 173.7,400.5 158.2,387.1 147.1,399.9 146.3,399.1 
					158,385.6 174.4,399.8 				"/>
				<polyline id="XMLID_50_" class="st13" points="240.8,569.1 226.3,555.4 227,554.7 241.4,568.4 				"/>
				<polyline id="XMLID_49_" class="st13" points="120.6,493.9 127.5,486.4 128.5,487.4 121.5,494.7 				"/>
				<polygon id="XMLID_48_" class="st13" points="143.6,469 143,469.7 141.3,469.6 104.9,440.6 106.1,439 				"/>
				<path id="XMLID_47_" class="st13" d="M244.8,491.5l-0.9-0.8l-20,23.4l-8.6,9.9l-14.7,16.7l-4.7-4.2l-34.2-30.8l-0.6,0.7l9.5,8.5
					l0,0.2c0.1,0.4,0.7,4,1.2,7l0.3,1.5l-79.8-69l-1.1,1.2l81.3,70.3l0,0.2c0.1,1.6-0.3,4.3-0.5,5.5l-0.6,18.2l1.1,0.2l0.5-17.9
					c0.1-0.5,0.7-4.7,0.4-6.6c-0.2-1.2-1-5.3-1.4-8l-0.3-1.5l23.5,21.2l22.5,19.9l0.6-0.7l-16.9-14.9l14.7-16.7l8.6-9.9L244.8,491.5
					z"/>
				<path id="XMLID_46_" class="st13" d="M216.2,591.5l0.9,1.1c10.6-7.8,14.3-10.5,15.3-11.7c0.2-0.3,0.3-0.4,0.3-0.4
					c0.4-1.2,4.4-6.2,6.5-8.5c1.1-1.2,5.5-6,12.3-13.5l0.3-0.3l6.5-9.4l0.1-0.1c0.1,0,0.7-0.6,1.7-1.4c6-5.1,12.2-10.3,13.2-11
					c0.2-0.2,0.5-0.4,0.8-0.7c0.9-1,2-2.5,3.1-4.1c0.5-0.8,1-1.5,1.5-2.2c0.2-0.3,0.8-1.2,17.9-20l-1.1-0.9
					c-14.1,15.5-17.5,19.4-17.9,20c-0.4,0.6-0.9,1.3-1.4,2l-0.1,0.1c-1.3,1.9-2.8,4.1-3.7,4.7c-0.9,0.6-6.8,5.6-10.4,8.7l-0.8,0.7
					l-8-20.2c0,0-0.1-0.3-0.2-0.9c-0.5-2-2-7.3-2.8-9.8c-0.9-2.9-1.1-7.3-0.6-11.4c1-7.9-6.6-15.2-6.7-15.3l-0.1-0.1l-0.1-0.1
					c-0.1-0.2-0.9-0.9-1.4-1.3l-0.6-0.5l12.5-14.6l-1-1L239.8,484l-0.9-0.9c-6.7-6.3-19.9-18.3-29.7-27.1l-0.6-0.5l13.3-15.3l-1-1
					l-13.3,15.4l-4.7-4.2l-16.4-15l0.5-0.6c4.5-5,9-10.1,13.3-15c-0.3-0.3-0.7-0.6-1-0.9c-4.3,5-8.8,10-13.3,15l-0.5,0.6l-22.8-20.9
					l12.7-14.3l-1.1-0.9l-12.7,14.2l-23-20.9l-0.7,0.8l23,20.9l-36.1,40.5l1,0.9l36.1-40.5l22.8,20.9l-0.5,0.6
					c-1.7,1.9-3.4,3.8-5.2,5.7c-12.6,13.8-15.6,17.4-16.5,18.5l-0.1,0.1c-0.2,0.2-0.3,0.3-0.4,0.5c-3,3.2-4.5,4-5.1,4.2
					c-1,0.3-2.5-0.3-4.3-1.1c-0.5-0.2-1-0.5-1.4-0.6c-2.2-0.8-4.6-0.1-5,0c-0.2,0.1-0.7,0.3-1.7,1.3c-0.8,0.9-1.7,2-2.4,2.9l1.1,0.8
					c0.9-1.2,1.8-2.3,2.5-3c0.5-0.6,0.8-0.7,1-0.8l0.1,0c1.1-0.3,2.9-0.6,4.2-0.1c0.4,0.1,0.8,0.3,1.3,0.5c1.7,0.8,3.7,1.7,5.3,1.2
					c0.9-0.3,2.5-1.2,5.5-4.4c0.1-0.1,0.3-0.3,0.5-0.6c1-1.1,3.9-4.6,16.5-18.5c1.8-2,3.5-3.9,5.2-5.7l0.5-0.6l16.4,15
					c1.2,1.1,2.6,2.4,4.1,3.7l0.6,0.5l-15.3,17.5l-14.8,16.3l-17.3,18.9l1,1l17.3-18.9l14.8-16.3l15.3-17.5l2,1.8
					c9,8,20.2,18,28.7,26.1l0.6,0.5L216,510.6l-21.9,25.2l1.4,1.1l21.5-25.4l23.2-25.9l0.6,0.6c1,0.9,1.9,1.8,2.7,2.7
					c4.9,4.8,4.8,10.3,4.7,12.9l0,1.1c-0.1,4-0.2,8.1,0.7,10.9c0.7,2.1,1.7,6,2.4,8.5c0.3,1.2,0.6,2,0.6,2.2l8.3,20.9l-0.4,0.4
					c-1.2,1-2,1.7-2.3,2l0,0l-6.6,9.5l-0.6,0.7c-6.9,7.6-10.9,12.1-12,13.2c-1.8,1.9-5.9,7-6.6,8.6l-0.2,0.3
					C230.2,581.2,223.5,586.1,216.2,591.5"/>
			</g>
			<g id="XMLID_36_">
				<path id="XMLID_44_" class="st14" d="M133.2,425.8c-8.7,0.2-15.5,7.5-15.3,16.2c0.2,8.7,16.6,30.7,16.6,30.7
					s15.1-22.9,14.9-31.6C149.1,432.4,141.9,425.5,133.2,425.8"/>
				<path id="XMLID_43_" class="st15" d="M259.4,474.6c-8.7,0.2-15.5,7.5-15.3,16.2c0.2,8.7,16.6,30.7,16.6,30.7
					s15.1-22.9,14.9-31.6C275.3,481.3,268.1,474.4,259.4,474.6"/>
				<path id="XMLID_42_" class="st2" d="M268,491c0.1,4.5-3.4,8.2-7.9,8.4c-4.5,0.1-8.2-3.4-8.4-7.9c-0.1-4.5,3.4-8.2,7.9-8.4
					C264.1,482.9,267.8,486.5,268,491"/>
				<path id="XMLID_41_" class="st2" d="M141.8,442.1c0.1,4.5-3.4,8.2-7.9,8.4c-4.5,0.1-8.2-3.4-8.4-7.9c-0.1-4.5,3.4-8.2,7.9-8.4
					C137.9,434,141.6,437.6,141.8,442.1"/>
			</g>
		</g>
	</g>
</g>
<g id="XMLID_134_">
</g>
<g id="XMLID_135_">
</g>
<g id="XMLID_136_">
</g>
<g id="XMLID_137_">
</g>
<g id="XMLID_138_">
</g>
<g id="XMLID_139_">
</g>
</svg>
