<?xml version="1.0" encoding="utf-8"?>
<!-- Generator: Adobe Illustrator 19.0.0, SVG Export Plug-In . SVG Version: 6.00 Build 0)  -->
<svg version="1.1" id="Capa_1" xmlns="http://www.w3.org/2000/svg" xmlns:xlink="http://www.w3.org/1999/xlink" x="0px" y="0px"
	 viewBox="0 0 188.7611 600.629" style="enable-background:new 0 0 188.7611 600.629;" xml:space="preserve">
<style type="text/css">
	.st0{fill:#EABA96;stroke:#E0AA86;stroke-width:0.8386;stroke-miterlimit:10;}
	.st1{fill:#E0AA86;}
	.st2{stroke:#000000;stroke-width:0.629;stroke-linecap:square;stroke-linejoin:bevel;stroke-miterlimit:10;}
	.st3{fill:#0F1C3F;stroke:#182951;stroke-width:0.8386;stroke-miterlimit:10;}
	.st4{fill:#132354;stroke:#3F6093;stroke-width:0.8386;stroke-miterlimit:10;}
	.st5{fill:#0F1C3F;}
	.st6{fill:none;stroke:#3F6093;stroke-width:0.8386;stroke-miterlimit:10;}
	.st7{fill:none;stroke:#3F6093;stroke-width:0.629;stroke-linecap:round;stroke-linejoin:round;}
	.st8{fill:none;stroke:#3F6093;stroke-width:0.629;stroke-linecap:round;stroke-linejoin:round;stroke-dasharray:0.8296,0.8296;}
	
		.st9{fill:none;stroke:#3F6093;stroke-width:0.629;stroke-linecap:round;stroke-linejoin:round;stroke-miterlimit:10;stroke-dasharray:0.8386;}
	.st10{fill:none;stroke:#E0AA86;stroke-width:0.8386;stroke-miterlimit:10;}
	.st11{fill:#8A0A8E;stroke:#AC34B2;stroke-width:0.8386;stroke-miterlimit:10;}
	.st12{fill:#680B6D;}
	.st13{fill:#EABA96;stroke:#E0AA86;stroke-width:0.4193;stroke-miterlimit:10;}
	.st14{fill:#DBA682;}
	.st15{fill:#810C87;}
	.st16{fill:#EAEAEA;stroke:#FFFFFF;stroke-width:0.2097;stroke-miterlimit:10;}
	.st17{fill:#D8D8D8;}
	.st18{fill:#959DA0;stroke:#959DA0;stroke-width:0.4193;stroke-miterlimit:10;}
	.st19{fill:none;stroke:#959DA0;stroke-width:0.4193;stroke-miterlimit:10;}
	.st20{fill:#282828;stroke:#000000;stroke-width:0.629;stroke-miterlimit:10;}
	.st21{fill:#B7896A;}
	.st22{fill:#DDAC8A;}
	.st23{stroke:#000000;stroke-width:0.8386;stroke-miterlimit:10;}
	.st24{fill:#C1A578;}
	.st25{stroke:#000000;stroke-width:0.2097;stroke-linecap:round;stroke-linejoin:round;stroke-miterlimit:10;}
	.st26{fill:#FFFFFF;stroke:#000000;stroke-width:0.2097;stroke-linecap:round;stroke-linejoin:round;stroke-miterlimit:10;}
	.st27{fill:#70582D;}
	.st28{fill:#FFFFFF;}
	.st29{stroke:#000000;stroke-width:0.8386;stroke-linecap:round;stroke-linejoin:round;stroke-miterlimit:10;}
	.st30{fill:#9E3025;stroke:#4C2311;stroke-width:0.2097;stroke-miterlimit:10;}
	.st31{fill:#871D08;stroke:#4C2311;stroke-width:0.2097;stroke-miterlimit:10;}
	.st32{fill:none;stroke:#D8A27D;stroke-width:0.629;stroke-miterlimit:10;}
	.st33{fill:#AC34B2;stroke:#AC34B2;stroke-width:0.4193;stroke-miterlimit:10;}
	.st34{fill:#A5ABAD;stroke:#959DA0;stroke-width:0.4193;stroke-miterlimit:10;}
	.st35{fill:#B1BABC;}
	.st36{opacity:0.33;fill:#FFFFFF;}
	.st37{fill:none;stroke:#000000;stroke-width:1.258;stroke-linecap:round;stroke-linejoin:round;stroke-miterlimit:10;}
</style>
<g id="XMLID_59_">
	<path id="XMLID_58_" class="st0" d="M9.1937,572.6309c0,0,11.0713-6.14,21.6347-9.6635c0,0,7.599-1.8934,8.6571-4.405v-12.8864
		l16.7181-2.088c0,0-2.4302,13.6837-1.8923,23.1638l0.3915,4.8286l-6.0671,3.9803l-8.1575,1.6312l-8.2215,2.61
		c0,0-8.0258,3.0668-8.2868,3.132s-10.701,0.8483-10.701,0.8483l-5.4158-3.0015c0,0-0.6525-3.2625-0.6525-3.5887
		S9.1937,572.6309,9.1937,572.6309z"/>
	<path id="XMLID_57_" class="st0" d="M48.6998,559.9659c0,0,2.2185,3.0668-0.9135,5.3505"/>
	<path id="XMLID_56_" class="st0" d="M151.9509,583.4207c0,0-9.8493-7.9539-19.6486-13.2429c0,0-7.1597-3.1732-7.7697-5.8293
		l2.218-12.694l-16.1093-4.9343c0,0,0.0387,13.8977-2.1229,23.1439l-1.2167,4.6891l5.2915,4.9651l7.755,3.0109l7.6496,3.9861
		c0,0,7.3782,4.4023,7.6241,4.5116c0.2459,0.1092,10.3953,2.6774,10.3953,2.6774l5.8516-2.0246c0,0,1.2043-3.1015,1.2605-3.4229
		C153.1853,587.9354,151.9509,583.4207,151.9509,583.4207z"/>
	<path id="XMLID_55_" class="st0" d="M115.2142,564.1451c0,0-2.7132,2.6392-0.021,5.4279"/>
	<path id="XMLID_54_" class="st1" d="M39.4854,552.5927l15.406-1.044l-0.7107,4.3718c0,0-6.7208-4.3718-12.267,0
		c0,0,0.9788,4.4371-3.2625,5.4158c0,0-31.3854,11.8103-26.7526,15.5948c0,0,2.088,3.654,11.223,4.1108
		c0,0-7.6995,3.7503-13.5721-2.4313c0,0-3.4306-3.5416,0.96-6.6887c0,0,17.3754-9.7374,25.3359-11.9559
		C35.8455,559.9659,39.7324,558.9219,39.4854,552.5927z"/>
	<path id="XMLID_53_" class="st2" d="M55.0793,573.6749c-3.6606,5.9905-8.9636,6.1547-8.9636,6.1547
		c-11.016,0.9921-16.7537,5.2632-16.7537,5.2632l-4.1775,2.1171c-11.3136,4.3412-20.3813-0.8441-20.3813-0.8441
		c-3.086-1.3517-4.1563-3.0438-4.3486-4.5688l-0.0351,0.0277v2.871c0,0,2.3117,5.9937,17.1561,5.742c0,0,6.264-0.2584,12.528-4.1747
		c0,0,3.0558-2.0984,7.294-3.59c2.1469-0.7556,6.3989-1.2823,8.8879-1.5015c2.9523-0.2599,6.6661-1.4108,8.7939-5.2004V573.6749z"/>
	<path id="XMLID_52_" class="st3" d="M9.1937,572.6309c0,0-5.5818,2.4078-7.4854,5.139c0,0-4.414,5.307,3.0948,8.5959
		c0,0,9.0677,5.1853,20.3813,0.8441l4.1776-2.1171c0,0,6.9403-5.2256,16.1745-5.207c0,0,6.0607-0.3247,9.355-6.211l-0.0998-6.3641
		c0,0-1.2416,7.902-14.6396,8.25c0,0-5.5764,0-11.9232,4.002c0,0-10.9796,6.3075-18.6792-0.9523
		C7.1414,576.3397,9.1937,572.6309,9.1937,572.6309z"/>
	<path id="XMLID_51_" class="st1" d="M124.4553,561.8147c0,0-6.0465-4.002-11.745,1.305c0,0-2.4378,5.6726-1.4355,10.0051
		c0,0,1.74,4.8285,9.918,6.786c0,0,7.221,1.6107,8.7435,4.6116h-4.611l-11.3233-2.3535l-5.0762-3.8676l-0.9767-7.9695
		c0,0,1.9022-8.3942,2.0702-13.2407c0.168-4.8464,0,0,0,0l15.299,0.8109L124.4553,561.8147z"/>
	<path id="XMLID_50_" class="st2" d="M106.5703,576.5514c2.6817,7.2309,10.3316,8.1172,10.3316,8.1172
		c8.672,2.1254,13.0367,7.5568,13.0367,7.5568l3.7508,2.8046c10.3976,6.2237,20.2225,2.6765,20.2225,2.6765
		c3.2726-0.8004,4.6181-2.283,5.0701-3.7521l0.0298,0.0334l-0.4942,2.8281c0,0-3.3088,5.5063-17.8884,2.7035
		c0,0-4.55-0.9898-9.3257-4.4229c-0.7657-0.5505-2.8313-2.6033-3.9456-3.6484c-1.9203-1.801-5.5628-4.4561-11.1592-5.5593
		c0,0-8.0552-0.5403-10.0238-7.0753L106.5703,576.5514z"/>
	<path id="XMLID_13_" class="st3" d="M151.9509,583.4207c0,0,5.0841,3.3326,6.4892,6.3507c0,0,3.4347,5.9875-4.5281,7.935
		c0,0-9.8249,3.5472-20.2225-2.6765l-3.7508-2.8046c0,0-4.0478-6.0289-13.7967-7.6539c0,0-8.5212-1.1807-9.3866-7.9877l1.1937-6.252
		c0,0-0.137,7.9977,13.0012,10.6466c0,0,5.4931,0.9598,11.0565,5.9944c0,0,9.7301,8.1032,18.5643,2.2769
		C153.3342,587.4274,151.9509,583.4207,151.9509,583.4207z"/>
	<path id="Pantalon" class="st4" d="M68.4153,289.6886c0,0-19.5706,63.8173-19.287,112.602c0,0-3.6872,12.1962-1.7018,20.4215
		c0,0-14.5825,75.5923-8.5795,129.3585l16.5791-1.0786c0,0,27.1708-93.3931,27.4544-117.7855c0,0,24.1087-62.1155,27.796-95.8677
		c0,0,3.4036,90.7624,5.9563,107.213c0,0-1.4182,3.6872,0,7.3745c0,0-11.7525,26.8031-8.3595,105.6254l19.5751,1.044l19.984-87.3824
		c0,0,9.3599-8.2253,7.3745-28.6469c0,0,13.6143-52.1884,13.6143-82.8206c0,0,4.3691-48.1682-6.7498-73.0107l-52.2457-6.4063
		L68.4153,289.6886z"/>
	<path id="XMLID_12_" class="st5" d="M63.239,310.6065c0,0,17.0888-12.9762,102.0689-14.5172c0,0-3.1049-10.6552-6.3194-15.7605
		c-3.2145-5.1054-1.9382,0-1.9382,0l-86.9312,3.5252C70.1191,283.8539,68.2026,293.3049,63.239,310.6065z"/>
	<path id="XMLID_11_" class="st5" d="M112.2365,318.6191l-1.56,18.7197c0,0,4.6327,98.2313,6.429,107.213
		c0,0-1.1345,3.8763,0,7.5635c0,0-11.9642,30.79-8.245,104.9143l18.4658,0.9788l4.5532-18.4864c0,0-19.2998,12.9401-19.2998-10.1584
		c0,0,0.6494-27.3762,13.1292-79.4227c0,0-3.12-3.9709-0.8509-9.5017L112.2365,318.6191z"/>
	<path id="XMLID_10_" class="st5" d="M63.239,310.6065c0,0-16.0961,66.819-12.8816,91.5896c0,0-4.2964,11.0356-2.0273,20.679
		c0,0-8.178,47.4152-9.744,80.3013c-0.864,18.1432,0.8994,48.3722,0.8994,48.3722l15.406-1.044l6.5727-23.5394
		c0,0-12.84-1.7158-12.84-12.3047c0,0-17.0415-2.001,6.4604-85.2357c0,0-3.9667-6.9963-0.8488-15.6943
		c0,0,0.637-58.4694,9.0033-82.6418c8.3663-24.1724,0,0,0,0s13.626-1.9122,17.8628-26.8561c4.2369-24.9439,0,0,0,0l-10.1259-8.3041
		L63.239,310.6065z"/>
	<path id="XMLID_9_" class="st6" d="M112.6619,294.1271c0,0-0.5673,8.6086,0,18.6775"/>
	<g id="XMLID_49_">
		<g id="XMLID_69_">
			<path id="XMLID_72_" class="st7" d="M82.8964,292.4052c0,0-0.0065,0.1439-0.0246,0.4146"/>
			<path id="XMLID_71_" class="st8" d="M82.8088,293.6431c-0.5237,6.1626-3.9034,33.4438-22.9375,38.666"/>
			<path id="XMLID_70_" class="st7" d="M59.4632,332.4171c-0.1352,0.0345-0.2711,0.0678-0.4078,0.1"/>
		</g>
	</g>
	<path id="XMLID_48_" class="st9" d="M151.0979,289.9782c0,0-1.7056,26.7027,19.6378,40.5062"/>
	<path id="XMLID_47_" class="st0" d="M150.1014,180.2065c0,0,3.9612-12.7634,19.5658-9.0762c0,0,14.4701,47.083,14.1864,58.7119
		c0,0,3.12,5.389,2.5527,12.1962c0,0,2.5527,21.5561-4.5381,65.8027v5.389c0,0,6.5235,17.5852-5.389,47.3666
		c0,0-1.9854,8.509-3.9709,6.3817c0,0-3.829-0.1418,0.2836-11.6762l-4.1127,9.1235c0,0-0.8509,7.5163-3.829,5.6727
		c0,0-3.12-1.9854,0.9927-18.7197c0,0,0.9927-10.6362,0.2836-14.0398l-1.3901,0.885c0,0-3.6105,16.3996-9.657,13.9201
		c0,0-2.871-0.978,1.5225-8.6566c0,0,1.131-5.5812,1.6855-14.6574c0,0,0.098-8.9196,8.1228-14.6071c0,0,3.4981-2.269,0.8272-23.116
		c0,0-2.8127-34.4613-0.4018-49.4938C166.8357,241.6129,151.3777,194.2464,150.1014,180.2065z"/>
	<path id="XMLID_46_" class="st10" d="M172.792,337.9061l-1.4182,12.7634c0,0-2.1178,10.9224-2.6945,13.7562"/>
	<path id="XMLID_45_" class="st10" d="M172.792,355.3022l3.8763-8.7926c0,0,0.7563-3.6872,1.2291-9.1708"/>
	<path id="XMLID_44_" class="st1" d="M171.7993,177.2284c0,0-14.1816,0.8509-15.7416,9.5017l9.0762,41.9776
		c0,0,1.9627,7.2153,1.1941,11.3366l-14.2412-46.004l-9.7853-17.8648l15.2823-4.2918l10.7297-1.037L171.7993,177.2284z"/>
	<path id="XMLID_43_" class="st11" d="M171.1187,166.7704c0,0,11.1919,38.3429,14.1499,61.137c0,0,3.2971,4.1793,2.436,13.9201
		l-0.851,14.0941c0,0-11.2303,4.698-21.5457-1.566c0,0-0.9952-6.5144,0-13.05l-15.1771-47.2652l-4.2914-17.0063"/>
	<path id="XMLID_42_" class="st12" d="M147.6213,177.2284l6.3271,26.8226l11.832,36.4715c0,0-0.783,6.612-0.348,6.96
		c0,0,5.9256,3.0453,13.6638,2.6101c7.7383-0.4351,0,0,0,0s-13.1418-4.2631-10.7058-9.3092c0,0-6.4982-30.1891-11.3401-38.7152
		c0,0,4.4552-8.961,1.9382-16.8781C158.9885,185.1902,154.5182,171.9636,147.6213,177.2284z"/>
	<path id="XMLID_41_" class="st1" d="M166.569,258.708c0,0,0.1032,26.6868,1.604,35.6251c0,0-0.4863-23.4258,2.5626-27.6671
		c0,0,4.8759-7.2428,15.3159-0.783l0.311-6.3184C186.3625,259.5647,175.4051,263.4085,166.569,258.708"/>
	<path id="Cuello_3_" class="st13" d="M95.08,118.5122l-1.4663,16.9486c0,0-4.0852,7.9846-12.8126,8.6346l22.097,21.3543
		l31.9368-26.5536c0,0-7.165-0.1857-8.5952-5.5707l-2.5179-21.6792L95.08,118.5122z"/>
	<path id="Sombra_cuello_2_" class="st14" d="M124.7971,123.6538c0,0-23.9982-1.4698-31.1834,11.807l1.6211-16.9486l28.3423-6.8661
		L124.7971,123.6538z"/>
	<g>
		<path id="XMLID_40_" class="st11" d="M146.1803,140.8191C146.5891,140.8785,146.6768,140.8913,146.1803,140.8191
			L146.1803,140.8191z"/>
		<path id="XMLID_39_" class="st11" d="M171.7992,170.8467c0,0-1.9854-22.2179-18.6324-28.0796c0,0-3.3119-1.1878-7.2467-1.9857
			c0.1002,0.0145,0.1867,0.027,0.2601,0.0377c-0.0759-0.011-0.1648-0.0239-0.2606-0.0379c-1.4246-0.2888-2.929-0.5263-4.3899-0.6377
			l-0.0005-0.0001l0.0005,0.0001l-0.0005-0.0001l0,0c-11.2447-1.6336-12.2454-6.849-12.2454-6.849
			c1.305-5.6115-1.6457-4.3853-1.6457-4.3853c1.7472-4.9073,0-5.1397,0-5.1397c-12.0423,8.0926-33.2463,4.2076-33.2463,4.2076
			c-5.66-1.6635-3.4932,4.3934-3.4932,4.3934c-1.8451,2.991,0.7745,2.9694,0.7745,2.9694
			c-3.0281,2.9588-0.7745,3.4357-0.7745,3.4357c-3.5416,4.437-13.8148,6.6826-13.8148,6.6826l0,0
			c-4.8351-0.0168-12.5697,1.1117-16.752,7.8033c0,0-6.0981,10.9199-7.6581,20.7052c0,0,3.9236,6.3344,19.1452,6.5235
			c0,0-8.9344,15.7416,3.9708,26.3778l6.8072,30.7742c0,0-11.2035,41.1267-17.5852,51.0538c0,0,17.0179,5.9562,48.6429,5.2472
			c0,0,22.6906,2.1273,50.912-8.0835c0,0-19.1452-38.8576-19.4288-45.6648l1.2763-27.9377c0,0,11.4871-7.6581,10.4944-24.9597
			c0,0-0.7091-3.9708-4.2545-10.3526"/>
	</g>
	<path id="XMLID_38_" class="st15" d="M98.7403,217.1006c0,0-2.6236-13.8253,2.86-21.9561c0,0-1.5127-8.8871,5.4836-11.5344
		l6.9963-2.6945l1.5127-12.858l8.4236,2.789v34.988l-4.4542,30.9163h19.8556l2.8836,5.0983c0,0-24.953,7.731-39.9449,1.5127
		C102.3566,243.362,94.3676,232.6277,98.7403,217.1006z"/>
	<path id="sombra_camisa" class="st12" d="M73.6874,178.7884l-1.3958,1.7018c0,0-9.9271,15.5998,3.9708,26.3778l6.8072,30.7741
		c0,0-12.9525,46.2793-17.5852,51.0538c0,0,51.2429,12.9998,93.5041-1.4655c0,0-80.2679,9.738-69.679-8.509
		c0,0-16.5452-9.9271,6.5282-38.4522l-13.9971-33.2122C81.8405,207.0571,66.808,198.6427,73.6874,178.7884z"/>
	<path id="XMLID_37_" class="st16" d="M120.32,168.0576c0,0-12.6689,59.6101-13.9925,65.4718l-0.8509,4.2545
		c0,0,6.1454,5.0108,37.7231,0c0,0-3.3981-1.3638,4.349-33.7496c0,0-3.1199,13.6117,8.509-34.3221
		C156.0577,169.7122,150.1014,170.9412,120.32,168.0576z"/>
	<path id="XMLID_36_" class="st17" d="M121.4532,168.1662c0,0-10.9785,59.8324-7.7576,62.1014c0,0-11.6026,7.8707,27.4341,7.8353
		c0,0-26.7865,4.5735-35.6531-0.319l14.8434-69.7263L121.4532,168.1662z"/>
	<path id="Brazo_izq" class="st0" d="M54.1628,174.6048c0,0-8.9108,32.4523-12.5035,59.4919c0,0-5.8617,12.4798,2.6472,11.5344
		c0,0,39.6131,0.9454,64.5727-16.6398c0,0,16.8298,0.9218,29.026-12.4798c0,0,6.2399-9.4544,3.5927-15.6943l2.6472-2.08
		c0,0,2.6472-1.3236,1.3236-4.349c0,0-0.5673-2.6472-10.2108,4.5381c0,0-7.7526,3.7818-10.0217,5.4836
		c0,0-13.2362,5.2945-11.5344-2.2691c0,0,0.2836-4.349,1.1818-6.9963c0,0,3.4509-7.3744,0-7.5635c0,0-1.2515-1.5127-4.6202,5.8617
		l-3.5578,6.0508c-0.7331,0.0426-5.7884,14.4982-4.7272,17.7743c0,0-33.0904,3.9709-41.0321,9.4544
		c0,0,8.2029-36.3049,10.778-46.7048C71.7243,180.0175,60.6863,174.6048,54.1628,174.6048z"/>
	<path id="XMLID_35_" class="st1" d="M52.6737,180.2563c0,0,8.5949,2.4885,12.1421,7.4978
		c1.685,2.3796-3.8694,38.9681-3.8694,38.9681l3.2513-1.888l8.8976-42.4521L53.74,176.1755L52.6737,180.2563z"/>
	<path id="XMLID_34_" class="st1" d="M40.1726,238.3092c0,0-0.546,5.1473,3.4248,5.5728c0,0,37.7291,0.5685,63.9621-15.8828
		c0,0,18.1495-0.7097,30.3457-11.4877c0,0-8.6999,12.0544-29.026,12.4798c0,0-18.1988,15.6943-64.5727,16.6398
		C44.3065,245.6311,38.1004,246.6669,40.1726,238.3092z"/>
	<path id="dedo_izq1" class="st10" d="M141.631,200.8172l-10.2881,8.3199c0,0-3.1718,1.8909-7.3264,1.7018"/>
	<path id="dedo_izq2" class="st10" d="M142.1035,203.2831l-6.9235,8.0355c0,0-3.3255,4.6965-8.0121,4.6965"/>
	<path id="dedo_izq3" class="st10" d="M141.7765,207.4998l-5.2186,7.3098c0,0-2.4109,3.4745-7.5872,5.6017"/>
	<path id="XMLID_33_" class="st11" d="M53.1065,171.7228c0,0-9.9965,40.1071-12.6065,59.3689c0,0-5.5645,16.6985,3.8065,14.5394
		c9.371-2.1591,0,0,0,0s12.5495,1.7644,25.5996-1.5416c0,0-4.872-13.3981,0-22.0981l-5.7085,2.8429l10.4576-47.6059"/>
	<circle id="XMLID_32_" class="st18" cx="109.0563" cy="176.2292" r="0.8048"/>
	<path id="XMLID_31_" class="st15" d="M90.3891,142.4296c0,0,15.9266,12.2388,42.0267-0.6666c0,0,8.613-2.9999,4.5675,4.9016
		c0,0-8.3942,8.2931-17.1167,8.4236c0,0,17.4222,0.3915,3.4364,4.0455c0,0-8.4901,3.654-8.6279,6.264
		c0,0-3.4901-7.9605-9.0568-8.2215c0,0-15.7457-3.3135-2.9566-3.8752C102.6617,153.3009,89.8616,148.5631,90.3891,142.4296z"/>
	<path id="XMLID_30_" class="st15" d="M91.2429,138.645c0,0-0.8483,3.2625-14.0288,7.4385c0,0-9.5226-1.4058-16.5064,6.6051
		c0,0-5.8527,10.9254-7.7667,21.148l-6.8295,29.1016c0,0-5.481,25.9437-5.3505,28.1534c0,0-3.741,11.7797,0.174,13.9112
		c0,0,1.1745,1.3485,7.4385-0.696l0.4785,0.435l-2.784,0.783c0,0,14.7466,1.044,23.4031-1.566c0,0-1.914-3.48-2.0445-6.5685
		c0,0-10.614,6.177-14.2681,1.8705c0,0-14.3116,6.3945-9.57-4.8285l14.3116-62.7096c0,0-0.7397-19.3317,18.2482-23.6818
		C76.1483,148.0411,88.5962,144.3699,91.2429,138.645"/>
	<path id="XMLID_29_" class="st19" d="M90.0852,139.6527c0,0,4.4202,7.4749,21.4506,16.6099c0,0,17.6711-8.7435,19.3082-20.4886"/>
	<path id="XMLID_28_" class="st18" d="M111.8745,158.9379h-0.7101c-0.1187,0-0.2159-0.0972-0.2159-0.2159v-2.7654
		c0-0.1187,0.0972-0.2159,0.2159-0.2159h0.7101c0.1188,0,0.2159,0.0972,0.2159,0.2159v2.7655
		C112.0904,158.8407,111.9932,158.9379,111.8745,158.9379z"/>
	<path id="XMLID_27_" class="st19" d="M111.5195,158.9379c0,0,0.4513,22.0328,4.1923,28.2969"/>
	<path id="XMLID_26_" class="st19" d="M111.5195,158.9379c0,0-0.1577,13.3763-2.4632,17.5088"/>
	<path id="XMLID_25_" class="st20" d="M87.0821,9.8419L50.4535,49.6783c0,0-5.4482,29.7625,16.2353,44.0952
		c0,0-3.0639-2.414-2.9246-5.385c0,0,2.0087,4.2709,6.9232,6.1277c0,0-1.7282-2.3616-1.0065-3.9662c0,0,1.8002,3.9372,8.8742,6.18
		L87.0821,9.8419z"/>
	<path id="Cara_6_" class="st13" d="M74.2092,69.0684c0,0,0.9285,11.9854,3.6763,24.6504c0,0,3.5656,11.1032,13.6856,20.8055
		c0,0,4.7815,7.799,12.7197,7.6597c0,0,8.4002,1.3927,15.62-7.6597c0,0,14.4902-8.7591,17.3863-26.3215L140.6396,63.7
		l-2.7853-21.1768l-8.7738-16.8513l-1.6712-6.9634l-16.8513,4.7351L82.8438,34.4457L73.2588,45.03L74.2092,69.0684z"/>
	<path id="Sombra_cara_10_" class="st1" d="M125.1925,35.0028c0,0-12.1342,12.8126-28.5645,11.977c0,0-8.6663-1.9505-16.0125,8.3622
		c0,0-4.5232,7.3128-0.5904,15.1428c0,0-6.3729,9.362,2.1223,28.3023c0,0,5.8956,9.7487,9.4237,13.0911
		c0,0,10.5994,15.9802,26.4915,4.7173c0,0-13.8646,14.5015-26.4915-2.0712c0,0-11.5461-9.3309-15.922-25.932
		c0,0-3.9468-9.8596-4.2253-12.3664l-7.6597-6.3551l1.5319-10.5802c0,0,3.7602-2.5157,4.178-2.7478s1.9497,2.971,1.9497,2.971
		s1.7201,2.8284,1.8349,1.9017c0.1148-0.9268,5.2284-17.221,5.3873-17.7781c0.159-0.5571,14.782-8.6346,14.782-8.6346
		l10.3058-3.0639l11.8377-5.2921l9.0524-3.6209l7.3347,11.1414C131.9586,34.1672,127.1941,33.1442,125.1925,35.0028z"/>
	<path id="sombra_oreja_izq_5_" class="st21" d="M69.7063,64.177c0,0,0.325,3.3521,2.7853,6.3078c0,0,1.9986-0.201,0.7672,1.888
		c0,0-0.7672,1.9497-2.3456-1.4855C70.9132,70.8873,69.4741,69.026,69.7063,64.177z"/>
	<path id="barbilla_6_" class="st22" d="M104.6159,112.4817c0,0,4.0387,2.971,6.8705-0.8356
		C111.4864,111.6461,109.1188,112.8995,104.6159,112.4817z"/>
	<path id="oreja_der_6_" class="st13" d="M134.9201,96.6883c-0.8143,0.7176,4.4661-7.9284,5.3017-16.563c0,0,2.8289,4.685,5.9258,0
		c0,0,6.8868-10.2168,4.7514-18.2459c0,0-3.5757-10.1646-6.7086-4.9653L140.6396,63.7"/>
	<path id="Sobra_oreja_der_6_" class="st21" d="M145.7925,65.0201c0,0,1.0213,7.9049-1.6712,11.0409c0,0-2.414,0.1649-1.8569-2.249
		c0,0,0.494-1.0333,0.8505-0.888C143.1149,72.9239,145.7015,71.4658,145.7925,65.0201z"/>
	<path id="cabello_11_" class="st20" d="M71.4239,28.0394c0,0,8.9131-10.3058,19.4974-11.977c0,0-13.3696,6.9634-13.3696,18.1047
		c0,0-11.2342,14.2052-1.3927,35.3738c0,0-7.799-20.6115,17.8262-28.689c0,0,23.1183,0,29.8032-14.7623
		c0,0-0.8356,6.4063,5.2921,6.1278c0,0-2.7853,13.3696,7.2419,16.4335c0,0,8.356,13.6482,0,27.0178
		c0,0,5.0136-3.0639,7.2419-15.8764c0,0,6.4411-5.7796,6.2322,7.1944c0,0,0.0696,14.4616-7.3736,15.2978
		c0,0-0.2513,3.1329-3.0367,6.4753c0,0,2.7853,0.5571,1.3927,3.3424c0,0,4.178-1.3927,4.7351-4.7351
		c0,0,1.6712,2.5068,1.1141,4.7351c0,0,3.3424-3.0639,1.9497-9.4702c0,0,1.9498,1.3927,1.3927,6.4063
		c0,0,2.7854-4.4565,2.7854-10.0272c-1.7894,7.1273-0.1522,8.1194-2.3676,13.0911c0,0,17.6869,2.2283,18.5225-29.2461
		c0,0-4.7351-45.6796-39.8304-47.9079c0,0-3.3424-30.3602-49.022-3.6209C80.0584,11.3274,71.4239,18.0122,71.4239,28.0394z"/>
	<path id="mechon_izq_6_" class="st23" d="M80.0584,11.3274c0,0-45.1225,21.4471-23.9539,64.0629c0,0-1.3927-7.2419,3.8995-15.8764
		c0,0-2.1354,24.6039,19.1653,30.2674c0,0-5.9909-4.264-5.7028-11.6984c0,0-8.8077-5.4778-8.2105-13.2768
		c0,0,0.5972-9.1916,6.1679-5.2922c0,0,2.2283,10.0272,4.7351,10.0272c0,0-9.888-16.712,1.3927-35.3738
		c0,0-1.5319-9.3309,13.3696-18.1047c0,0-11.2806,1.8105-19.4974,11.977C71.4239,28.0394,69.8919,20.7976,80.0584,11.3274z"/>
	<path id="sombra_cabello_der_6_" class="st23" d="M129.0804,14.9483c0,0,32.867-0.0009,39.8304,47.9079
		c0,0,0.6963,27.8534-18.5225,29.2461c0,0,2.759-4.6042,2.3676-13.0911c0,0,5.1529,0.8356,5.9885,5.4314
		C158.7443,84.4426,180.6093,42.6625,129.0804,14.9483z"/>
	<path id="sombra_cabello_der_2_6_" class="st23" d="M140.4307,80.7172c0,0,0.5339,2.9909-2.8318,11.2458
		c0,0,4.6655-2.5532,3.1799,0.1393c0,0,4.0852-1.6248,4.7351-4.7351c0,0,2.1819,2.0426,1.1141,4.7351
		c0,0,3.4299-3.7628,1.9497-9.4702c0,0,2.5068,1.2998,1.3927,6.4063c0,0,3.9459-7.2883,2.6925-12.2091
		c0,0-0.4527,2.2921-1.4855,3.0175c-1.0328,0.7254-2.6458-0.1161-2.1817-2.4604c0,0,1.8014-12.9521,0.6033-15.4586
		c0,0,0.8678,4.6947-0.0108,9.5442C148.3952,78.0572,144.9221,84.9279,140.4307,80.7172z"/>
	<g id="ojo_der_11_">
		<path id="parpado_der_6_" class="st24" d="M110.5115,64.6667c0,0,1.3463-7.1955,8.5417-9.0524c0,0,8.2632-2.0426,10.3986,5.06
			l-0.4642,1.6916c0,0-3.0639-3.6414-8.3096-3.4181C120.678,58.9479,112.6469,60.4423,110.5115,64.6667z"/>
		<path id="pestaña_der_6_" class="st25" d="M111.1614,65.363l-0.6499,0.4292v-1.1255c0,0,4.202-5.6723,10.1665-5.7188
			c0,0,5.1993-0.3161,8.1239,2.9798c0,0,0.9749,0.3714,2.0426-0.882c0,0-0.6499,2.2283-2.3211,2.1819L111.1614,65.363z"/>
		<path id="XMLID_24_" class="st26" d="M111.1614,65.363c0,0-0.3714,4.9208,7.8918,6.3134c0,0,7.149,2.0328,9.4702-8.4489
			C128.5234,63.2276,122.1171,54.1288,111.1614,65.363z"/>
		<circle id="XMLID_5_" class="st27" cx="120.0023" cy="65.5547" r="3.7215"/>
		<circle id="XMLID_4_" cx="120.2103" cy="66.1012" r="2.3047"/>
		<circle id="XMLID_3_" class="st28" cx="118.3295" cy="64.9392" r="0.8069"/>
		<circle id="XMLID_2_" class="st28" cx="117.2333" cy="63.6169" r="0.5176"/>
		<path id="ceja_der_6_" class="st29" d="M110.5115,56.5428v-2.0426c0,0,9.0059-9.563,20.333-1.7543
			C130.8445,52.7459,119.0532,47.9082,110.5115,56.5428z"/>
	</g>
	<g id="Ojo_izq_6_">
		<path id="parpado_izq_6_" class="st24" d="M96.628,64.5695c0,0-1.2409-6.6326-7.8735-8.3442c0,0-7.6168-1.8828-9.5852,4.6642
			l0.4279,1.5593c0,0,2.8242-3.3565,7.6596-3.1507C87.2568,59.2981,94.6596,60.6755,96.628,64.5695z"/>
		<path id="pestaña_izq_6_" class="st25" d="M96.0289,65.2114l0.5991,0.3956v-1.0375c0,0-3.8733-5.2286-9.3712-5.2714
			c0,0-4.7926-0.2914-7.4884,2.7467c0,0-0.8986,0.3423-1.8828-0.813c0,0,0.5991,2.054,2.1395,2.0112L96.0289,65.2114z"/>
		<path id="cuenca_izq_6_" class="st26" d="M96.0289,65.2114c0,0,0.3423,4.5358-7.2745,5.8196c0,0-6.5898,1.8738-8.7294-7.788
			C80.0251,63.243,85.9303,54.856,96.0289,65.2114z"/>
		<circle id="iris_izq_6_" class="st27" cx="88.4834" cy="65.5547" r="3.4304"/>
		<circle id="pupila_izq_6_" cx="88.4834" cy="65.9209" r="2.1244"/>
		<circle id="brillo_1_izq_6_" class="st28" cx="86.9615" cy="64.6936" r="0.7438"/>
		<circle id="brillo_2_izq_6_" class="st28" cx="85.8819" cy="63.2914" r="0.4771"/>
		<path id="ceja_izq_6_" class="st29" d="M97.4471,55.342v-2.0426c0,0-8.3274-9.563-18.8011-1.7543
			C78.6461,51.5451,89.549,46.7074,97.4471,55.342z"/>
	</g>
	<g id="Boca_2_">
		<path id="XMLID_6_" class="st30" d="M93.0821,99.9995c0,0,2.3938,4.207,9.7844,4.7714c0,0,14.3842,1.9511,16.6805-7.8859
			l-13.9952,0.9676L93.0821,99.9995z"/>
		<path id="XMLID_1_" class="st31" d="M92.363,99.7739c0,0,4.8652-0.9839,6.38-3.2921c0,0,2.8652-3.1446,6.0098,0
			c0,0,1.6228-2.6935,3.8159-2.7083c2.4734-0.0166,5.2955,4.6434,10.9783,3.1114c0,0-5.5675,5.1296-13.7999,2.9027
			C105.7472,99.7877,96.499,101.3328,92.363,99.7739z"/>
		<path id="XMLID_23_" class="st31" d="M117.9138,98.0619c0,0,2.1608-1.3174,3.9248-2.5708"/>
	</g>
	<path id="Nariz_6_" class="st32" d="M99.9272,61.8794c0,0,1.8569,15.0892-1.6712,20.3814c0,0-2.1354,7.2419,9.3773,3.6209"/>
	<path id="sombra_seno_izq" class="st12" d="M81.8405,207.057c0,0-14.0647-9.9743-7.1853-29.8286l-2.3636,3.2618
		c0,0-9.9271,15.5998,3.9708,26.3778l0.8813,3.9842H83.44L81.8405,207.057z"/>
	<path id="XMLID_22_" class="st12" d="M90.8986,132.3704c0,0,14.0687,3.5776,31.4687-1.9904
		C122.3673,130.38,109.4551,138.5369,90.8986,132.3704"/>
	<path id="XMLID_21_" class="st12" d="M91.2429,138.645c0,0,6.786,6.4598,35.4961,0.783c0,0-30.2761,3.132-34.9089-3.654
		C91.8302,135.774,89.0244,137.9925,91.2429,138.645z"/>
	<path id="XMLID_20_" class="st12" d="M127.0653,129.51c0,0-5.394,8.091-26.9701,6.96c0,0,13.3981,4.002,27.2311-5.046
		c0,0,1.6445-2.2338,1.9249-0.8374C129.2512,130.5866,129.447,128.0745,127.0653,129.51"/>
	<path id="XMLID_19_" class="st12" d="M90.8986,130.38c0,0-0.8302-2.8928,2.7586-2.1098c0,0,22.9681,4.2413,33.9954-4.0455
		c0,0-6.3799,9.3743-33.2377,6.1553C94.4149,130.38,92.838,126.7477,90.8986,130.38z"/>
	<path id="XMLID_18_" class="st33" d="M163.736,247.4825c0,0,13.5721,5.22,24.7951,0.9135l-0.6831,10.701
		c0,0-14.0635,5.22-24.112-2.088V247.4825z"/>
	<path id="puño_mang_izq" class="st33" d="M68.4706,221.3171c0,0-4.5023,12.006,1.305,23.4901l9.5918-1.9575
		c0,0-5.3505-12.879-1.827-22.4383L68.4706,221.3171z"/>
	<g>
		<circle id="XMLID_17_" class="st34" cx="71.4239" cy="74.9424" r="1.8285"/>
		<path id="XMLID_16_" class="st35" d="M71.3535,73.8621c0,0,1.2785,0.3739,0.9891,1.966c0,0,0.6819-0.9923,0.1206-1.8213
			C72.4632,74.0069,72.1375,73.4762,71.3535,73.8621z"/>
	</g>
	<g>
		<circle id="XMLID_15_" class="st34" cx="142.8661" cy="79.8688" r="1.8285"/>
		<path id="XMLID_14_" class="st35" d="M142.7958,78.7885c0,0,1.2785,0.3739,0.9891,1.966c0,0,0.6819-0.9923,0.1206-1.8213
			C143.9055,78.9333,143.5798,78.4026,142.7958,78.7885z"/>
	</g>
	<path id="XMLID_8_" class="st36" d="M142.5189,62.4882L142.5189,62.4882l-9.2976,1.0561l-0.6236-3.3562l-0.639,0.1359
		c-13.4844-10.9701-27.2133,2.2684-27.2133,2.2684l0.3631,2.6964l-3.6017,0.2668l0.3631-2.6964c0,0-13.7288-13.2385-27.2132-2.2684
		l-0.639-0.1359l-0.7689,5.4029l0.4485,0.2037c0,0,1.0893,10.8388,9.0349,10.7029c0,0,11.9184,1.8216,15.3786-4.3558
		c0,0,2.0505-3.4513,1.7942-6.853c0,0,0.8971-1.0154,1.6019,0l3.6017-0.2668c0.7048-1.0154,1.6019,0,1.6019,0
		c-0.2563,3.4017,1.7942,6.853,1.7942,6.853c3.4602,6.1775,15.3786,4.3558,15.3786,4.3558
		c7.9456,0.1359,9.0349-10.7029,9.0349-10.7029l0.4485-0.2038l-0.1454-2.0467L142.5189,62.4882z"/>
	<path id="XMLID_7_" class="st37" d="M142.5189,62.4882L142.5189,62.4882l-9.2976,1.0561l-0.6236-3.3562l-0.639,0.1359
		c-13.4844-10.9701-27.2133,2.2684-27.2133,2.2684l0.3631,2.6964l-3.6017,0.2668l0.3631-2.6964c0,0-13.7288-13.2385-27.2132-2.2684
		l-0.639-0.1359l-0.7689,5.4029l0.4485,0.2037c0,0,1.0893,10.8388,9.0349,10.7029c0,0,11.9184,1.8216,15.3786-4.3558
		c0,0,2.0505-3.4513,1.7942-6.853c0,0,0.8971-1.0154,1.6019,0l3.6017-0.2668c0.7048-1.0154,1.6019,0,1.6019,0
		c-0.2563,3.4017,1.7942,6.853,1.7942,6.853c3.4602,6.1775,15.3786,4.3558,15.3786,4.3558
		c7.9456,0.1359,9.0349-10.7029,9.0349-10.7029l0.4485-0.2038l-0.1454-2.0467L142.5189,62.4882z"/>
</g>
<g id="XMLID_104_">
</g>
<g id="XMLID_105_">
</g>
<g id="XMLID_106_">
</g>
<g id="XMLID_107_">
</g>
<g id="XMLID_108_">
</g>
<g id="XMLID_109_">
</g>
<g id="XMLID_110_">
</g>
<g id="XMLID_111_">
</g>
<g id="XMLID_112_">
</g>
<g id="XMLID_113_">
</g>
<g id="XMLID_114_">
</g>
<g id="XMLID_115_">
</g>
<g id="XMLID_116_">
</g>
<g id="XMLID_117_">
</g>
<g id="XMLID_118_">
</g>
</svg>
