<?xml version="1.0" encoding="utf-8"?>
<!-- Generator: Adobe Illustrator 19.0.0, SVG Export Plug-In . SVG Version: 6.00 Build 0)  -->
<svg version="1.1" id="Capa_1" xmlns="http://www.w3.org/2000/svg" xmlns:xlink="http://www.w3.org/1999/xlink" x="0px" y="0px"
	 viewBox="0 0 308.4717 232.3915" style="enable-background:new 0 0 308.4717 232.3915;" xml:space="preserve">
<style type="text/css">
	.st0{fill:#00ACC1;}
	.st1{fill:url(#XMLID_18_);stroke:#828282;stroke-miterlimit:10;}
	.st2{fill:#5E5E5F;}
	.st3{fill:url(#XMLID_19_);stroke:#828282;stroke-miterlimit:10;}
	.st4{fill:url(#XMLID_20_);stroke:#828282;stroke-miterlimit:10;}
	.st5{fill:#75C6F0;}
</style>
<path id="XMLID_311_" class="st0" d="M156.3515,79.0371"/>
<g id="XMLID_279_">
	<linearGradient id="XMLID_18_" gradientUnits="userSpaceOnUse" x1="1.5871" y1="174.3805" x2="306.8843" y2="174.3805">
		<stop  offset="0" style="stop-color:#FFFFFF"/>
		<stop  offset="1" style="stop-color:#D5DADC"/>
	</linearGradient>
	<path id="XMLID_310_" class="st1" d="M1.5871,157.7239v25.5835c0,4.269,3.4606,7.7296,7.7295,7.7296h289.8381
		c4.269,0,7.7296-3.4606,7.7296-7.7296v-25.5835H1.5871z"/>
	<path id="XMLID_307_" class="st2" d="M299.1548,1.1958H9.3166c-4.269,0-7.7295,3.4606-7.7295,7.7295v148.7986h305.2972V8.9253
		C306.8843,4.6564,303.4237,1.1958,299.1548,1.1958z M298.4521,147.9309H10.0193V10.3307h288.4328V147.9309z"/>
	<linearGradient id="XMLID_19_" gradientUnits="userSpaceOnUse" x1="153.3211" y1="222.0691" x2="153.3211" y2="191.037">
		<stop  offset="0" style="stop-color:#FFFFFF;stop-opacity:0"/>
		<stop  offset="0.1433" style="stop-color:#FAFAFA;stop-opacity:0.0897"/>
		<stop  offset="0.3195" style="stop-color:#EBEBEB;stop-opacity:0.1999"/>
		<stop  offset="0.513" style="stop-color:#D2D2D2;stop-opacity:0.321"/>
		<stop  offset="0.7188" style="stop-color:#B0AFAF;stop-opacity:0.4497"/>
		<stop  offset="0.9322" style="stop-color:#848383;stop-opacity:0.5833"/>
		<stop  offset="1" style="stop-color:#757373;stop-opacity:0.6257"/>
	</linearGradient>
	<rect id="XMLID_283_" x="117.4977" y="191.037" class="st3" width="71.6469" height="31.0321"/>
	<linearGradient id="XMLID_20_" gradientUnits="userSpaceOnUse" x1="80.9899" y1="226.6324" x2="227.478" y2="226.6324">
		<stop  offset="0" style="stop-color:#FFFFFF"/>
		<stop  offset="1" style="stop-color:#D5DADC"/>
	</linearGradient>
	<path id="XMLID_281_" class="st4" d="M227.478,231.1958H80.9899v-4.1781c0-2.733,2.2155-4.9485,4.9485-4.9485h136.591
		c2.733,0,4.9485,2.2155,4.9485,4.9485V231.1958z"/>
	<path id="XMLID_280_" class="st2" d="M168.1545,173.0115c0,2.1424-1.7368,3.8792-3.8792,3.8792h-20.9917
		c-2.1423,0-3.8792-1.7368-3.8792-3.8792l0,0c0-2.1423,1.7368-3.8792,3.8792-3.8792h20.9917
		C166.4178,169.1323,168.1545,170.8691,168.1545,173.0115L168.1545,173.0115z"/>
</g>
<rect id="XMLID_2_" x="10.0193" y="10.3307" class="st5" width="288.4328" height="137.6002"/>
<g id="XMLID_1_">
</g>
<g id="XMLID_3_">
</g>
<g id="XMLID_4_">
</g>
<g id="XMLID_5_">
</g>
<g id="XMLID_6_">
</g>
<g id="XMLID_7_">
</g>
<g id="XMLID_8_">
</g>
<g id="XMLID_9_">
</g>
<g id="XMLID_10_">
</g>
<g id="XMLID_11_">
</g>
<g id="XMLID_12_">
</g>
<g id="XMLID_13_">
</g>
<g id="XMLID_14_">
</g>
<g id="XMLID_15_">
</g>
<g id="XMLID_16_">
</g>
</svg>
