<?xml version="1.0" encoding="utf-8"?>
<!-- Generator: Adobe Illustrator 19.0.0, SVG Export Plug-In . SVG Version: 6.00 Build 0)  -->
<svg version="1.1" id="Capa_1" xmlns="http://www.w3.org/2000/svg" xmlns:xlink="http://www.w3.org/1999/xlink" x="0px" y="0px"
	 viewBox="-224 394.9 147 53" style="enable-background:new -224 394.9 147 53;" xml:space="preserve">
<style type="text/css">
	.st0{fill:#647BBC;}
	.st1{fill:#FFFFFF;}
</style>
<rect id="XMLID_366_" x="-224" y="395.4" class="st0" width="147" height="53"/>
<g>
	<g>
		<path class="st1" d="M-193.2,435.9v-24.7h4.9l10.1,16.5v-16.5h4.6v24.7h-5l-10-16.1v16.1H-193.2z"/>
		<path class="st1" d="M-162.8,435.9v-20.5h-7.3v-4.2h19.6v4.2h-7.3v20.5H-162.8z"/>
		<path class="st1" d="M-147.3,435.9v-24.7h16.9v4.2h-11.9v5.8h10.3v4.2h-10.3v10.5H-147.3z"/>
		<path class="st1" d="M-127.5,427.9l4.9-0.5c0.3,1.6,0.9,2.8,1.8,3.6c0.9,0.8,2.1,1.1,3.6,1.1c1.6,0,2.8-0.3,3.6-1s1.2-1.5,1.2-2.4
			c0-0.6-0.2-1.1-0.5-1.5s-0.9-0.8-1.8-1.1c-0.6-0.2-1.9-0.6-4-1.1c-2.7-0.7-4.6-1.5-5.6-2.4c-1.5-1.4-2.3-3-2.3-5
			c0-1.3,0.4-2.4,1.1-3.5s1.7-1.9,3.1-2.5s3-0.9,4.9-0.9c3.1,0,5.4,0.7,7,2c1.6,1.4,2.4,3.2,2.5,5.4l-5,0.2
			c-0.2-1.3-0.7-2.2-1.4-2.7c-0.7-0.6-1.8-0.8-3.2-0.8c-1.4,0-2.6,0.3-3.4,0.9c-0.5,0.4-0.8,0.9-0.8,1.5s0.2,1.1,0.7,1.5
			c0.6,0.5,2.2,1.1,4.6,1.7s4.2,1.2,5.4,1.8c1.2,0.6,2.1,1.4,2.7,2.5s1,2.4,1,3.9c0,1.4-0.4,2.7-1.2,4c-0.8,1.2-1.9,2.2-3.3,2.8
			c-1.4,0.6-3.2,0.9-5.4,0.9c-3.1,0-5.5-0.7-7.2-2.2C-126.1,432.7-127.1,430.6-127.5,427.9z"/>
	</g>
</g>
</svg>
