<?xml version="1.0" encoding="utf-8"?>
<!-- Generator: Adobe Illustrator 18.1.1, SVG Export Plug-In . SVG Version: 6.00 Build 0)  -->
<svg version="1.1" id="Capa_1" xmlns="http://www.w3.org/2000/svg" xmlns:xlink="http://www.w3.org/1999/xlink" x="0px" y="0px"
	 viewBox="163.5 253.5 285 285" enable-background="new 163.5 253.5 285 285" xml:space="preserve">
<circle fill="#5DB45E" cx="305.8" cy="396" r="142.5"/>
<g>
	<path fill="#FFFFFF" d="M208.2,401.9l-27.1,1.3l-0.1-2.4l27.1-1.3L208.2,401.9z"/>
	<path fill="#FFFFFF" d="M208.7,384.3l-14.2-1.1c-0.5,0-0.9,0-1.4,0.2c-0.4,0.1-0.8,0.4-1.2,0.7c-0.3,0.3-0.6,0.6-0.8,1
		c-0.2,0.4-0.3,0.9-0.4,1.3l-0.1,1.5c0,0.5,0,0.9,0.2,1.4c0.1,0.4,0.4,0.8,0.6,1.2c0.3,0.3,0.6,0.6,1,0.8c0.4,0.2,0.9,0.3,1.3,0.4
		l14.2,1.2l-0.2,2.3l-19.3-1.6l0.1-0.8l2-1.1c-0.7-0.6-1.2-1.3-1.5-2.1c-0.4-0.9-0.5-1.7-0.4-2.6v-0.6c0.1-0.8,0.3-1.5,0.6-2.1
		c0.4-0.7,0.8-1.3,1.4-1.7c0.6-0.5,1.2-0.9,2-1.1c0.7-0.2,1.4-0.3,2.2-0.3l14,1.2L208.7,384.3z"/>
	<path fill="#FFFFFF" d="M211.2,371.4c-0.2,0.7-0.5,1.3-0.9,1.8c-0.4,0.6-0.9,1-1.4,1.4c-0.6,0.4-1.2,0.6-1.8,0.7
		c-0.7,0.1-1.4,0.1-2-0.1l-11.7-2.8l-0.8,3.4l-2.1-0.5l0.8-3.4l-4.6-1.1l0.2-2.3l4.9,1.2l1.2-4.8l2.1,0.5l-1.2,4.8l11.8,2.8
		c0.4,0.1,0.8,0.1,1.1,0c0.4-0.1,0.7-0.2,1-0.4c0.3-0.2,0.6-0.4,0.8-0.8c0.2-0.3,0.4-0.7,0.5-1.1l0.5-2l2.1,0.5L211.2,371.4z"/>
	<path fill="#FFFFFF" d="M207.3,337.5c-0.2,0.4-0.4,0.9-0.4,1.3c-0.1,0.5,0,0.9,0.1,1.3c0.1,0.4,0.3,0.8,0.6,1.2
		c0.3,0.4,0.6,0.7,1,0.9l12,6.9l-1.2,2l-16.9-9.6l0.4-0.7l2.3-0.1c-0.4-0.8-0.5-1.6-0.5-2.6c0-0.9,0.3-1.7,0.8-2.6l0.7-1.2l2.2,1.3
		L207.3,337.5z"/>
	<path fill="#FFFFFF" d="M229.6,330.2c0.4,0.7,0.6,1.4,0.7,2c0.1,0.7,0,1.4-0.1,2.2c-0.2,0.8-0.5,1.4-1,2l-0.4,0.5
		c-0.5,0.7-1.2,1.3-2,1.5c-0.8,0.4-1.5,0.6-2.3,0.6l7.5,5.7l-1.4,1.8l-21.5-16.5l0.5-0.6l2.3,0.2c-0.3-0.9-0.3-1.7-0.1-2.6
		c0.2-0.9,0.5-1.7,1.1-2.4l0.4-0.5c0.5-0.6,1.1-1.1,1.7-1.4c0.7-0.4,1.4-0.6,2-0.7c0.7-0.1,1.4,0,2.2,0.1c0.8,0.2,1.4,0.5,2,1
		l6.9,5.3C228.7,329.1,229.2,329.6,229.6,330.2z M219.6,325c-0.4-0.3-0.8-0.5-1.2-0.6c-0.4-0.1-0.9-0.1-1.3-0.1
		c-0.4,0.1-0.9,0.2-1.3,0.4c-0.4,0.2-0.8,0.5-1,0.9l-1,1.3c-0.3,0.4-0.5,0.8-0.6,1.2c-0.1,0.4-0.1,0.9-0.1,1.3
		c0.1,0.4,0.2,0.9,0.4,1.3s0.5,0.8,0.9,1l7.2,5.5c0.4,0.3,0.8,0.5,1.2,0.6c0.4,0.1,0.9,0.1,1.3,0.1c0.4-0.1,0.9-0.2,1.3-0.4
		c0.4-0.2,0.8-0.5,1-0.9l1-1.3c0.3-0.4,0.5-0.8,0.6-1.2c0.1-0.4,0.1-0.9,0.1-1.3c-0.1-0.4-0.2-0.9-0.4-1.3s-0.5-0.8-0.9-1L219.6,325
		z"/>
	<path fill="#FFFFFF" d="M227,312.9c-0.3,0.3-0.6,0.7-0.8,1.1c-0.2,0.4-0.3,0.9-0.3,1.3s0.1,0.9,0.2,1.3c0.2,0.4,0.4,0.8,0.8,1.2
		l9.7,9.9l-1.6,1.6l-13.6-13.8l0.6-0.6l2.3,0.5c-0.1-0.9,0-1.7,0.2-2.6c0.3-0.9,0.8-1.6,1.4-2.3l1-1l1.8,1.8L227,312.9z"/>
	<path fill="#FFFFFF" d="M250.4,312.2c0.2,0.8,0.2,1.4,0.1,2.2c-0.1,0.7-0.4,1.4-0.8,2c-0.4,0.7-0.9,1.2-1.5,1.6l-1.3,1
		c-0.6,0.5-1.4,0.8-2,1c-0.8,0.2-1.4,0.2-2.2,0.1c-0.7-0.1-1.4-0.4-2-0.8c-0.7-0.4-1.2-0.9-1.6-1.5l-5.2-7.1c-0.5-0.6-0.8-1.4-1-2
		c-0.2-0.8-0.2-1.4-0.1-2.2c0.1-0.7,0.4-1.4,0.8-2c0.4-0.7,0.9-1.2,1.5-1.6l1.3-1c0.6-0.5,1.4-0.8,2-1c0.8-0.2,1.4-0.2,2.2-0.1
		c0.7,0.1,1.4,0.4,2,0.8c0.7,0.4,1.2,0.9,1.6,1.5l2.7,3.7l-8.5,6.3l2.5,3.5c0.3,0.4,0.6,0.7,1,0.9c0.4,0.2,0.8,0.4,1.3,0.4
		c0.5,0,0.9,0,1.3-0.1c0.4-0.1,0.9-0.3,1.3-0.6l1.3-1c0.4-0.3,0.7-0.6,0.9-1c0.2-0.4,0.4-0.8,0.4-1.3c0.1-0.4,0-0.9-0.1-1.3
		s-0.3-0.9-0.6-1.3l-0.8-1.1l2.1-1.1l0.5,0.6C249.9,310.7,250.3,311.4,250.4,312.2z M242.4,304.3c-0.3-0.4-0.6-0.7-1-0.9
		c-0.4-0.2-0.8-0.4-1.3-0.4s-0.9,0-1.3,0.1c-0.4,0.1-0.9,0.3-1.3,0.6l-1.3,1c-0.4,0.3-0.7,0.6-0.9,1c-0.2,0.4-0.4,0.8-0.4,1.3
		c-0.1,0.4,0,0.9,0.1,1.3c0.1,0.4,0.3,0.9,0.6,1.3l1.7,2.3l6.7-4.9L242.4,304.3z"/>
	<path fill="#FFFFFF" d="M262.1,309.2c-0.6,0.3-1.3,0.5-2,0.6c-0.7,0.1-1.4,0-2-0.2c-0.6-0.2-1.2-0.5-1.7-1c-0.5-0.4-1-1-1.3-1.5
		l-5.6-10.7l-3.1,1.6l-1.1-2l3.1-1.6l-2.1-4.1l1.8-1.4l2.3,4.5l4.4-2.3l1.1,2l-4.4,2.3l5.7,10.8c0.2,0.4,0.4,0.7,0.7,0.9
		c0.3,0.2,0.6,0.4,1,0.5c0.4,0.1,0.7,0.1,1.1,0.1s0.8-0.1,1.1-0.3l1.8-1l1.1,2L262.1,309.2z"/>
	<path fill="#FFFFFF" d="M277.7,299.8c-0.1,0.8-0.2,1.4-0.6,2.1c-0.3,0.7-0.8,1.3-1.4,1.7c-0.6,0.5-1.2,0.9-2,1.2l-1.4,0.5
		c-0.8,0.3-1.4,0.4-2.2,0.3c-0.8-0.1-1.4-0.2-2.1-0.6c-0.7-0.4-1.3-0.8-1.7-1.4c-0.5-0.6-0.9-1.2-1.2-2l-2.9-8.2
		c-0.3-0.8-0.4-1.4-0.3-2.2c0.1-0.8,0.2-1.4,0.6-2.1c0.3-0.7,0.8-1.3,1.4-1.7c0.6-0.5,1.2-0.9,2-1.2l1.4-0.5
		c0.8-0.3,1.4-0.4,2.2-0.3c0.8,0.1,1.4,0.2,2.1,0.6c0.7,0.3,1.3,0.8,1.7,1.4c0.5,0.6,0.9,1.2,1.2,2l1.4,4.2l-10,3.5l1.4,4.1
		c0.2,0.5,0.4,0.9,0.7,1.2c0.3,0.3,0.7,0.6,1.1,0.8c0.4,0.2,0.8,0.3,1.3,0.3c0.5,0,0.9,0,1.4-0.2l1.4-0.5c0.5-0.2,0.9-0.4,1.2-0.7
		c0.3-0.3,0.6-0.7,0.8-1.1c0.2-0.4,0.3-0.8,0.3-1.3c0-0.5,0-0.9-0.2-1.4L275,297l2.3-0.4l0.3,0.8
		C277.7,298.3,277.8,299.1,277.7,299.8z M272.3,290c-0.2-0.5-0.4-0.9-0.7-1.2c-0.3-0.3-0.7-0.6-1.1-0.8c-0.4-0.2-0.8-0.3-1.3-0.3
		c-0.5,0-0.9,0-1.4,0.2l-1.4,0.5c-0.5,0.2-0.9,0.4-1.2,0.7c-0.3,0.3-0.6,0.7-0.8,1.1c-0.2,0.4-0.3,0.8-0.3,1.3c0,0.5,0,0.9,0.2,1.4
		l1,2.7l7.8-2.7L272.3,290z"/>
	<path fill="#FFFFFF" d="M303,299.1l-1.4-1.8c-0.5,0.8-1.1,1.4-1.8,1.8c-0.8,0.5-1.6,0.8-2.5,0.9h-0.7c-0.8,0.1-1.5,0-2.2-0.3
		c-0.7-0.2-1.4-0.6-2-1.1c-0.6-0.5-1-1.1-1.4-1.7c-0.4-0.7-0.6-1.4-0.6-2.1l-0.7-8.7c-0.1-0.8,0-1.5,0.3-2.2c0.2-0.7,0.6-1.4,1.1-2
		c0.5-0.6,1.1-1,1.7-1.4c0.7-0.4,1.4-0.6,2.1-0.6h0.6c0.9-0.1,1.6,0,2.4,0.3c0.8,0.3,1.4,0.8,2,1.4l-0.8-9.4l2.3-0.2l2.2,27
		L303,299.1z M300.3,285.2c0-0.5-0.2-0.9-0.4-1.3c-0.2-0.4-0.5-0.8-0.8-1c-0.3-0.3-0.7-0.5-1.2-0.7c-0.4-0.1-0.9-0.2-1.4-0.2
		l-1.5,0.1c-0.5,0-0.9,0.2-1.3,0.4c-0.4,0.2-0.8,0.5-1,0.8c-0.3,0.3-0.5,0.7-0.6,1.2c-0.1,0.4-0.2,0.9-0.2,1.4l0.8,9
		c0,0.5,0.2,0.9,0.4,1.3c0.2,0.4,0.5,0.8,0.8,1c0.3,0.3,0.7,0.5,1.2,0.7c0.4,0.1,0.9,0.2,1.4,0.2l1.5-0.1c0.5,0,0.9-0.2,1.3-0.4
		c0.4-0.2,0.8-0.5,1-0.8c0.3-0.3,0.5-0.7,0.7-1.2c0.1-0.4,0.2-0.9,0.2-1.4L300.3,285.2z"/>
	<path fill="#FFFFFF" d="M320,297c-0.4,0.7-0.8,1.3-1.4,1.7c-0.6,0.5-1.2,0.8-2,1.1c-0.7,0.2-1.4,0.3-2.2,0.3l-1.5-0.1
		c-0.8-0.1-1.4-0.3-2.1-0.7c-0.7-0.4-1.3-0.8-1.7-1.4c-0.5-0.6-0.8-1.2-1.1-2c-0.2-0.7-0.3-1.4-0.3-2.2l0.8-8.7
		c0.1-0.8,0.3-1.4,0.7-2.1c0.4-0.7,0.8-1.3,1.4-1.7s1.2-0.8,2-1.1c0.7-0.2,1.4-0.3,2.2-0.3l1.5,0.1c0.8,0.1,1.4,0.3,2.1,0.7
		c0.7,0.4,1.3,0.8,1.7,1.4c0.5,0.6,0.8,1.2,1.1,2c0.2,0.7,0.3,1.4,0.3,2.2l-0.4,4.6l-10.6-1l-0.4,4.2c0,0.5,0,0.9,0.2,1.4
		c0.1,0.4,0.4,0.8,0.6,1.2c0.3,0.3,0.6,0.6,1,0.8c0.4,0.2,0.8,0.3,1.3,0.4l1.5,0.1c0.5,0,0.9,0,1.4-0.2c0.4-0.1,0.8-0.4,1.2-0.6
		c0.3-0.3,0.6-0.6,0.8-1c0.2-0.4,0.3-0.8,0.4-1.3l0.1-1.3l2.3,0.6l-0.1,0.8C320.6,295.7,320.3,296.5,320,297z M319.1,285.9
		c0-0.5,0-0.9-0.2-1.4c-0.1-0.4-0.4-0.8-0.6-1.2c-0.3-0.3-0.6-0.6-1-0.8c-0.4-0.2-0.8-0.3-1.3-0.4l-1.5-0.1c-0.5,0-0.9,0-1.4,0.2
		c-0.4,0.1-0.8,0.4-1.2,0.6c-0.3,0.3-0.6,0.6-0.8,1c-0.2,0.4-0.3,0.8-0.4,1.3l-0.3,2.9l8.2,0.8L319.1,285.9z"/>
	<path fill="#FFFFFF" d="M347.2,304.5c-0.6,0.7-1.3,1.2-2,1.4c-0.8,0.4-1.6,0.6-2.5,0.6s-1.7-0.1-2.6-0.4l-1.8-0.7
		c-0.9-0.3-1.6-0.8-2.2-1.4c-0.6-0.6-1.2-1.3-1.4-2.1c-0.4-0.8-0.6-1.6-0.6-2.5s0.1-1.7,0.4-2.6l5.1-13.6c0.3-0.9,0.8-1.6,1.4-2.2
		c0.6-0.7,1.3-1.2,2-1.4c0.8-0.4,1.6-0.6,2.5-0.6s1.7,0.1,2.6,0.4l1.8,0.7c0.9,0.3,1.6,0.8,2.2,1.4c0.7,0.6,1.2,1.3,1.4,2
		c0.3,0.8,0.6,1.6,0.6,2.5s-0.1,1.7-0.4,2.6l-0.4,1.2l-2.4-0.5l0.5-1.4c0.2-0.6,0.3-1.2,0.3-1.7c0-0.6-0.2-1.1-0.4-1.6
		c-0.2-0.5-0.6-1-1-1.4c-0.4-0.4-0.9-0.7-1.4-0.9l-1.5-0.6c-0.6-0.2-1.2-0.3-1.7-0.3c-0.6,0-1.1,0.2-1.6,0.4c-0.5,0.2-1,0.6-1.4,1
		c-0.4,0.4-0.7,0.9-0.9,1.4l-5.1,13.6c-0.2,0.6-0.3,1.2-0.3,1.7c0,0.6,0.2,1.1,0.4,1.6c0.2,0.5,0.6,1,1,1.4c0.4,0.4,0.9,0.7,1.4,0.9
		l1.5,0.6c0.6,0.2,1.2,0.3,1.7,0.3c0.6,0,1.1-0.2,1.6-0.4c0.5-0.2,1-0.6,1.4-1c0.4-0.4,0.7-0.9,0.9-1.4l0.5-1.4l2.1,1.3l-0.4,1
		C348.3,303.1,347.8,303.9,347.2,304.5z"/>
	<path fill="#FFFFFF" d="M361.7,313.6c-0.6,0.5-1.3,0.8-2,1c-0.7,0.2-1.4,0.2-2.2,0.1c-0.8-0.1-1.4-0.4-2.1-0.8l-1.4-0.8
		c-0.7-0.4-1.3-0.9-1.6-1.5c-0.5-0.6-0.8-1.3-1-2c-0.2-0.7-0.2-1.4-0.1-2.2c0.1-0.8,0.4-1.4,0.8-2.1l4.6-7.5
		c0.4-0.7,0.9-1.3,1.5-1.6c0.6-0.5,1.3-0.8,2-1s1.4-0.2,2.2-0.1s1.4,0.4,2.1,0.8l1.4,0.8c0.7,0.4,1.3,0.9,1.6,1.5
		c0.4,0.7,0.8,1.3,1,2c0.2,0.7,0.2,1.4,0.1,2.2c-0.1,0.8-0.4,1.4-0.8,2.1l-4.6,7.5C362.9,312.5,362.4,313.2,361.7,313.6z
		 M365.9,303.1c0.2-0.4,0.4-0.8,0.5-1.3c0.1-0.5,0-0.9-0.1-1.3c-0.1-0.4-0.3-0.8-0.6-1.2c-0.3-0.4-0.6-0.7-1-0.9l-1.4-0.8
		c-0.4-0.2-0.8-0.4-1.3-0.5s-0.9,0-1.3,0.1s-0.8,0.3-1.2,0.6c-0.4,0.3-0.7,0.6-0.9,1l-4.7,7.7c-0.2,0.4-0.4,0.8-0.5,1.3
		c-0.1,0.5,0,0.9,0.1,1.3s0.3,0.8,0.6,1.2s0.6,0.7,1,0.9l1.4,0.8c0.4,0.2,0.8,0.4,1.3,0.5s0.9,0,1.3-0.1c0.4-0.1,0.8-0.3,1.2-0.6
		c0.4-0.3,0.7-0.6,0.9-1L365.9,303.1z"/>
	<path fill="#FFFFFF" d="M378.3,332.1l9.8-10.2c0.3-0.3,0.6-0.7,0.7-1.2c0.2-0.4,0.2-0.9,0.2-1.3c0-0.4-0.1-0.9-0.3-1.3
		c-0.2-0.4-0.4-0.8-0.8-1.1l-0.9-0.8c-0.4-0.3-0.7-0.6-1.2-0.7c-0.4-0.2-0.9-0.2-1.3-0.2c-0.4,0-0.9,0.1-1.3,0.3
		c-0.4,0.2-0.8,0.4-1.1,0.8l-9.8,10.2l-1.6-1.5l9.8-10.2c0.3-0.3,0.6-0.7,0.7-1.2c0.2-0.4,0.2-0.9,0.2-1.3c0-0.4-0.1-0.9-0.3-1.3
		c-0.2-0.4-0.4-0.8-0.8-1.1l-0.9-0.8c-0.4-0.3-0.7-0.6-1.2-0.7c-0.4-0.2-0.9-0.2-1.3-0.2s-0.9,0.1-1.3,0.3c-0.4,0.2-0.8,0.4-1.1,0.8
		l-9.8,10.2l-1.6-1.5l13.3-14l0.6,0.5l-0.4,2.3c0.9-0.2,1.7-0.1,2.6,0.1c0.9,0.3,1.6,0.7,2.3,1.4l0.1,0.1c0.8,0.8,1.4,1.6,1.6,2.6
		c0.3,1,0.3,2,0,3c0.5-0.2,1-0.3,1.4-0.3c0.5,0,1,0,1.4,0.1c0.5,0.1,1,0.3,1.4,0.5c0.5,0.2,0.9,0.6,1.3,1l0.1,0.1
		c0.6,0.6,1,1.2,1.3,1.8c0.3,0.7,0.5,1.4,0.5,2.1s-0.1,1.4-0.4,2.1c-0.3,0.7-0.7,1.4-1.2,2l-9.7,10.2L378.3,332.1z"/>
	<path fill="#FFFFFF" d="M388.6,346.5l0.9-2.1c-0.9-0.1-1.7-0.3-2.5-0.7c-0.8-0.4-1.4-1.1-2-1.8l-0.3-0.5c-0.5-0.7-0.8-1.4-0.9-2
		c-0.1-0.8-0.2-1.4,0-2.2c0.1-0.7,0.4-1.4,0.8-2c0.4-0.7,1-1.2,1.5-1.6l0.2-0.1c0.7-0.5,1.4-0.8,2-0.9c0.8-0.1,1.4-0.2,2.2,0
		c0.7,0.1,1.4,0.4,2,0.8c0.7,0.4,1.2,1,1.6,1.5l2.7,4.1l2.5-1.6c0.4-0.3,0.7-0.6,1-1c0.2-0.4,0.4-0.8,0.5-1.2c0.1-0.4,0.1-0.9,0-1.3
		c-0.1-0.5-0.3-0.9-0.5-1.3l-0.8-1.2c-0.3-0.4-0.6-0.7-1-1c-0.4-0.2-0.8-0.4-1.2-0.5c-0.4-0.1-0.9-0.1-1.3,0
		c-0.5,0.1-0.9,0.3-1.3,0.5l-0.6,0.4l-1-2.1l0.2-0.1c0.7-0.5,1.4-0.8,2.1-0.9c0.8-0.1,1.4-0.2,2.2,0c0.7,0.1,1.4,0.4,2,0.8
		c0.7,0.4,1.2,1,1.6,1.5l0.8,1.2c0.5,0.7,0.8,1.4,0.9,2c0.1,0.8,0.2,1.4,0,2.2c-0.1,0.7-0.4,1.4-0.8,2c-0.4,0.7-1,1.2-1.5,1.6
		l-11.6,7.8L388.6,346.5z M395.4,340l-2.7-4.1c-0.3-0.4-0.6-0.7-1-1c-0.4-0.2-0.8-0.4-1.2-0.5c-0.4-0.1-0.9-0.1-1.3,0
		c-0.5,0.1-0.9,0.3-1.3,0.5l-0.7,0.5c-0.4,0.3-0.7,0.6-1,1c-0.2,0.4-0.4,0.8-0.5,1.2c-0.1,0.4-0.1,0.9,0,1.3
		c0.1,0.5,0.3,0.9,0.5,1.3l0.9,1.3c0.3,0.4,0.6,0.7,1,1c0.4,0.2,0.8,0.4,1.2,0.5c0.4,0.1,0.9,0.1,1.3,0c0.5-0.1,0.9-0.3,1.3-0.5
		L395.4,340z"/>
	<path fill="#FFFFFF" d="M395.2,360l12.9-5.8c0.4-0.2,0.8-0.5,1.1-0.8c0.3-0.3,0.5-0.7,0.7-1.1c0.2-0.4,0.2-0.9,0.2-1.3
		c0-0.5-0.1-0.9-0.3-1.3l-0.7-1.4c-0.2-0.4-0.5-0.8-0.8-1.1c-0.3-0.3-0.7-0.5-1.1-0.7c-0.4-0.2-0.8-0.2-1.3-0.2s-0.9,0.1-1.3,0.3
		l-12.9,5.8l-1-2.1l17.6-7.9l0.3,0.7l-1.3,2c0.9,0.2,1.6,0.6,2.4,1.1c0.7,0.6,1.3,1.3,1.6,2.1l0.3,0.6c0.3,0.7,0.5,1.4,0.5,2.2
		s-0.1,1.4-0.4,2.1c-0.3,0.7-0.7,1.3-1.2,1.8c-0.5,0.6-1.2,1-1.8,1.4l-12.8,5.8L395.2,360z"/>
	<path fill="#FFFFFF" d="M400.4,377.2l1.5-1.7c-0.9-0.3-1.5-0.9-2.1-1.4c-0.6-0.7-1.1-1.4-1.3-2.3l-0.2-0.6
		c-0.2-0.8-0.2-1.5-0.1-2.2c0.1-0.8,0.4-1.4,0.7-2c0.4-0.7,0.9-1.2,1.4-1.6c0.6-0.5,1.3-0.8,2-1l8.4-2.2c0.8-0.2,1.5-0.2,2.2-0.1
		c0.8,0.1,1.4,0.4,2,0.7c0.7,0.4,1.2,0.9,1.6,1.4c0.5,0.6,0.8,1.3,1,2l0.2,0.6c0.2,0.9,0.3,1.6,0.1,2.5c-0.2,0.8-0.5,1.5-1,2.2
		l9.1-2.4l0.6,2.2l-26.2,6.9L400.4,377.2z M413.7,372.2c0.5-0.1,0.9-0.3,1.2-0.6c0.4-0.3,0.7-0.6,0.9-1c0.2-0.4,0.4-0.8,0.4-1.3
		c0.1-0.5,0-0.9-0.1-1.4l-0.4-1.4c-0.1-0.5-0.3-0.9-0.6-1.2c-0.3-0.4-0.6-0.7-1-0.9c-0.4-0.2-0.8-0.4-1.3-0.4
		c-0.5-0.1-0.9,0-1.4,0.1l-8.7,2.3c-0.5,0.1-0.9,0.3-1.2,0.6c-0.4,0.3-0.7,0.6-0.9,1c-0.2,0.4-0.4,0.8-0.4,1.3
		c-0.1,0.5,0,0.9,0.1,1.4l0.4,1.4c0.1,0.5,0.3,0.9,0.6,1.2c0.3,0.3,0.6,0.7,1,0.9c0.4,0.2,0.8,0.4,1.3,0.4c0.5,0,0.9,0,1.4-0.1
		L413.7,372.2z"/>
	<path fill="#FFFFFF" d="M405.3,393.7c-0.7-0.2-1.4-0.6-2-1.1c-0.6-0.5-1.1-1.1-1.4-1.7c-0.4-0.7-0.6-1.4-0.7-2.1l-0.1-1.5
		c-0.1-0.8,0-1.5,0.3-2.2c0.2-0.7,0.6-1.4,1.1-2c0.5-0.6,1.1-1.1,1.7-1.4c0.7-0.4,1.4-0.6,2.1-0.7l8.7-0.8c0.8-0.1,1.5,0,2.2,0.3
		c0.7,0.3,1.4,0.6,2,1.1c0.6,0.5,1,1.1,1.4,1.7c0.4,0.7,0.6,1.4,0.7,2.1l0.1,1.5c0.1,0.8,0,1.5-0.3,2.2c-0.2,0.7-0.6,1.4-1.1,2
		c-0.5,0.6-1.1,1.1-1.7,1.4c-0.7,0.4-1.4,0.6-2.1,0.7l-8.7,0.8C406.8,394,406.1,393.9,405.3,393.7z M416.2,390.9
		c0.5,0,0.9-0.2,1.3-0.4c0.4-0.2,0.8-0.5,1-0.8c0.3-0.3,0.5-0.7,0.6-1.2c0.1-0.4,0.2-0.9,0.2-1.4l-0.1-1.5c0-0.5-0.2-0.9-0.4-1.3
		c-0.2-0.4-0.5-0.8-0.8-1c-0.3-0.3-0.7-0.5-1.2-0.6c-0.4-0.1-0.9-0.2-1.4-0.2l-9,0.8c-0.5,0-0.9,0.2-1.3,0.4c-0.4,0.2-0.8,0.5-1,0.8
		c-0.3,0.3-0.5,0.7-0.6,1.2c-0.1,0.4-0.2,0.9-0.2,1.4l0.1,1.5c0,0.5,0.2,0.9,0.4,1.3c0.2,0.4,0.5,0.8,0.8,1c0.3,0.3,0.7,0.5,1.2,0.6
		c0.4,0.1,0.9,0.2,1.4,0.2L416.2,390.9z"/>
	<path fill="#FFFFFF" d="M406.1,411.6c-0.8-0.1-1.4-0.3-2.1-0.7c-0.6-0.4-1.2-0.9-1.5-1.4c-0.4-0.6-0.8-1.3-1-2
		c-0.2-0.8-0.3-1.4-0.2-2.2l0.1-1.5c0.1-0.8,0.3-1.5,0.6-2.2c0.4-0.7,0.8-1.3,1.4-1.7s1.2-0.9,2-1.2c0.7-0.3,1.4-0.4,2.2-0.3
		l0.8,0.1l0.2,2.3l-1.3-0.1c-0.5,0-0.9,0-1.4,0.2c-0.4,0.2-0.8,0.4-1.2,0.7c-0.3,0.3-0.6,0.7-0.8,1.1c-0.2,0.4-0.3,0.9-0.4,1.4
		l-0.1,1.5c0,0.5,0,0.9,0.1,1.4c0.1,0.5,0.3,0.9,0.5,1.2c0.2,0.4,0.5,0.7,0.9,0.9c0.4,0.2,0.8,0.4,1.3,0.4c0.7,0.1,1.3,0,1.7-0.3
		s0.9-0.7,1.2-1.1c0.3-0.5,0.6-1,0.9-1.6c0.3-0.6,0.5-1.3,0.8-2c0.3-0.7,0.5-1.3,0.9-2c0.3-0.6,0.7-1.2,1.2-1.6
		c0.5-0.5,1-0.8,1.6-1.1c0.7-0.3,1.4-0.3,2.3-0.3c0.8,0.1,1.4,0.3,2.1,0.7c0.6,0.4,1.2,0.8,1.5,1.4c0.4,0.6,0.8,1.2,1,2
		c0.2,0.7,0.3,1.4,0.2,2.2l-0.1,1.4c-0.1,0.8-0.3,1.5-0.6,2.1c-0.4,0.7-0.8,1.3-1.4,1.7c-0.6,0.5-1.2,0.9-2,1.1
		c-0.7,0.2-1.4,0.3-2.2,0.3h-0.1l-0.2-2.3l0.6,0.1c0.5,0,0.9,0,1.4-0.2c0.4-0.1,0.8-0.4,1.2-0.6c0.3-0.3,0.6-0.6,0.8-1
		c0.2-0.4,0.3-0.8,0.4-1.3l0.1-1.4c0-0.5,0-0.9-0.1-1.4c-0.1-0.4-0.3-0.8-0.5-1.2c-0.2-0.3-0.5-0.6-0.9-0.8
		c-0.4-0.2-0.8-0.3-1.3-0.4c-0.7-0.1-1.3,0.1-1.6,0.3c-0.5,0.3-0.9,0.7-1.2,1.1c-0.3,0.5-0.6,1.1-0.9,1.6c-0.3,0.6-0.5,1.3-0.8,2
		c-0.3,0.7-0.6,1.3-0.9,1.8c-0.3,0.6-0.7,1.2-1.2,1.6c-0.5,0.5-1,0.8-1.6,1.1C407.7,411.6,406.9,411.7,406.1,411.6z"/>
</g>
<g>
	<path fill="#FFFFFF" d="M214.5,353.3c0.6,0.6,1,1.2,1.3,1.9c0.3,0.7,0.5,1.4,0.5,2.2c0,0.7-0.1,1.5-0.4,2.3l-0.6,1.4
		c-0.3,0.7-0.7,1.4-1.3,1.9c-0.6,0.6-1.2,1-1.9,1.3s-1.4,0.5-2.2,0.5c-0.7,0-1.5-0.1-2.3-0.4l-8.2-3.3c-0.7-0.3-1.4-0.7-1.9-1.3
		c-0.6-0.6-1-1.2-1.3-1.9c-0.3-0.7-0.5-1.4-0.5-2.2c0-0.7,0.1-1.5,0.4-2.3l0.6-1.4c0.3-0.7,0.7-1.4,1.3-1.9c0.6-0.6,1.2-1,1.9-1.3
		c0.7-0.3,1.4-0.5,2.2-0.5c0.7,0,1.5,0.1,2.3,0.4l4.3,1.7l-4,10l4.1,1.6c0.4,0.2,0.9,0.3,1.4,0.2c0.5,0,0.9-0.1,1.3-0.3
		c0.4-0.2,0.7-0.4,1.1-0.7c0.3-0.3,0.6-0.7,0.7-1.2l0.6-1.4c0.2-0.4,0.3-0.9,0.2-1.4c0-0.5-0.1-0.9-0.3-1.3
		c-0.2-0.4-0.4-0.7-0.7-1.1c-0.3-0.3-0.7-0.6-1.2-0.7l-1.2-0.5l1.3-2l0.7,0.3C213.3,352.4,214,352.8,214.5,353.3z M203.3,350.9
		c-0.4-0.2-0.9-0.3-1.4-0.2c-0.5,0-0.9,0.1-1.3,0.3c-0.4,0.2-0.7,0.4-1.1,0.7c-0.3,0.3-0.6,0.7-0.7,1.2l-0.6,1.4
		c-0.2,0.4-0.3,0.9-0.2,1.4c0,0.5,0.1,0.9,0.3,1.3c0.2,0.4,0.4,0.7,0.7,1.1c0.3,0.3,0.7,0.6,1.2,0.7l2.7,1.1l3.2-7.8L203.3,350.9z
		 M193.5,352.6l-0.7,1.6l-3.2-4.7l1.5-3.7L193.5,352.6z"/>
</g>
</svg>
