<?xml version="1.0" encoding="utf-8"?>
<!-- Generator: Adobe Illustrator 19.0.0, SVG Export Plug-In . SVG Version: 6.00 Build 0)  -->
<svg version="1.1" id="Capa_1" xmlns="http://www.w3.org/2000/svg" xmlns:xlink="http://www.w3.org/1999/xlink" x="0px" y="0px"
	 viewBox="-88 211.9 418 418" style="enable-background:new -88 211.9 418 418;" xml:space="preserve">
<style type="text/css">
	.st0{fill:#485EA8;}
	.st1{fill:#FFFFFF;}
</style>
<circle class="st0" cx="121" cy="420.9" r="209"/>
<g>
	<path class="st1" d="M-15.3,312.8c0.8,0.6,1.4,1.4,1.8,2.2c0.4,0.9,0.7,1.8,0.8,2.7c0.1,0.9,0,1.9-0.3,2.8s-0.7,1.8-1.3,2.6
		l-1.3,1.7c-0.6,0.8-1.4,1.4-2.2,1.9c-0.9,0.5-1.8,0.8-2.7,0.9c-0.9,0.1-1.9,0.1-2.8-0.2c-0.9-0.2-1.8-0.7-2.6-1.3l-0.9-0.7l1.3-2.4
		l1.3,1c0.5,0.4,1.1,0.7,1.7,0.8c0.6,0.1,1.2,0.2,1.9,0.1c0.6-0.1,1.2-0.3,1.8-0.6c0.6-0.3,1.1-0.7,1.5-1.2l1.2-1.5
		c0.4-0.5,0.7-1.1,0.9-1.7s0.2-1.2,0.2-1.9c-0.1-0.6-0.2-1.2-0.5-1.8c-0.3-0.6-0.7-1.1-1.2-1.5l-0.7-0.6c-0.8-0.6-1.6-1-2.4-1.1
		s-1.6-0.1-2.3,0.2c-0.8,0.2-1.6,0.6-2.3,1c-0.8,0.4-1.6,0.9-2.4,1.4s-1.6,0.9-2.5,1.3c-0.8,0.4-1.7,0.7-2.6,0.8
		c-0.9,0.1-1.8,0.1-2.7-0.1s-1.9-0.7-2.9-1.5l-0.4-0.3c-0.8-0.6-1.4-1.4-1.9-2.2c-0.5-0.8-0.7-1.7-0.8-2.7c-0.1-0.9,0-1.9,0.2-2.8
		c0.3-0.9,0.7-1.8,1.3-2.6l1.2-1.5c0.6-0.8,1.4-1.4,2.2-1.9s1.7-0.7,2.7-0.8s1.9,0,2.8,0.2s1.8,0.7,2.6,1.3l0.6,0.5l-1.3,2.4
		l-0.9-0.8c-0.5-0.4-1.1-0.7-1.7-0.9c-0.6-0.2-1.2-0.2-1.8-0.1s-1.2,0.2-1.7,0.5c-0.6,0.3-1,0.7-1.4,1.2l-1,1.3
		c-0.4,0.5-0.7,1.1-0.9,1.7s-0.2,1.2-0.2,1.8s0.2,1.2,0.5,1.7c0.3,0.6,0.7,1,1.2,1.4l0.4,0.3c0.7,0.6,1.5,0.9,2.3,1s1.5,0,2.3-0.2
		s1.6-0.6,2.3-1c0.8-0.4,1.6-0.9,2.4-1.4s1.7-0.9,2.5-1.3c0.9-0.4,1.7-0.7,2.6-0.8c0.9-0.1,1.8-0.1,2.8,0.2c0.9,0.2,1.9,0.8,2.9,1.5
		L-15.3,312.8z"/>
	<path class="st1" d="M-25.8,295.8l-2.5-2.3l2-2.2l2.5,2.3L-25.8,295.8z M-6.6,313.7L-22,299.1l1.8-1.9l15.4,14.6L-6.6,313.7z"/>
	<path class="st1" d="M6.1,294.2c0.6,0.6,1,1.3,1.2,2.1c0.2,0.8,0.3,1.5,0.2,2.3s-0.3,1.5-0.7,2.3s-0.9,1.4-1.5,2L4,304
		c-0.6,0.6-1.4,1-2.2,1.3s-1.6,0.4-2.4,0.4s-1.6-0.2-2.4-0.5s-1.4-0.8-2-1.4l-0.6-0.6l1.6-2l0.9,1c0.3,0.4,0.7,0.7,1.2,0.9
		c0.5,0.2,0.9,0.3,1.4,0.3s1-0.1,1.5-0.2c0.5-0.2,0.9-0.4,1.3-0.8l1.3-1.1c0.4-0.3,0.7-0.7,0.9-1.2c0.2-0.4,0.4-0.9,0.5-1.3
		s0.1-0.9,0-1.3s-0.3-0.9-0.7-1.2c-0.5-0.6-1-0.9-1.6-1.1c-0.6-0.1-1.2-0.1-1.8,0s-1.3,0.3-1.9,0.6c-0.7,0.3-1.3,0.6-2,1
		c-0.7,0.3-1.4,0.6-2.1,0.9s-1.4,0.4-2.1,0.4s-1.4-0.1-2.1-0.4s-1.4-0.8-2.1-1.5c-0.6-0.6-1-1.3-1.2-2.1c-0.2-0.8-0.3-1.5-0.2-2.3
		s0.3-1.5,0.7-2.2s0.9-1.4,1.5-1.9l1.1-1c0.6-0.6,1.3-1,2.1-1.3s1.6-0.4,2.4-0.3c0.8,0,1.6,0.2,2.3,0.6c0.7,0.3,1.4,0.8,2,1.5
		l0.1,0.1l-1.6,2l-0.4-0.5c-0.3-0.4-0.7-0.7-1.2-0.9c-0.4-0.2-0.9-0.3-1.4-0.3s-0.9,0-1.4,0.2s-0.9,0.4-1.3,0.7l-1.1,1
		c-0.4,0.3-0.7,0.7-0.9,1.1s-0.4,0.8-0.4,1.3c-0.1,0.4,0,0.9,0.1,1.3s0.4,0.8,0.7,1.2c0.5,0.5,1,0.9,1.6,1s1.1,0.1,1.8,0
		c0.6-0.1,1.3-0.3,1.9-0.7c0.7-0.3,1.3-0.6,2-0.9s1.4-0.6,2.1-0.9s1.4-0.4,2.1-0.4s1.4,0.1,2.1,0.4C4.7,292.9,5.4,293.4,6.1,294.2z"
		/>
	<path class="st1" d="M19.2,291c-0.6,0.5-1.3,0.8-2,1s-1.4,0.2-2.1,0.1c-0.7-0.1-1.4-0.3-2-0.7c-0.6-0.4-1.2-0.9-1.7-1.5l-7.9-10.6
		l-3.1,2.3l-1.4-1.9l3.1-2.3l-3-4.1l1.8-1.9l3.3,4.4l4.3-3.2l1.4,1.9l-4.3,3.2l7.9,10.7c0.3,0.3,0.6,0.6,0.9,0.8
		c0.3,0.2,0.7,0.3,1.1,0.4s0.8,0,1.2-0.1s0.8-0.3,1.1-0.5l1.9-1.4l1.4,1.9L19.2,291z"/>
	<path class="st1" d="M34.3,277.3c0.1,0.8,0.1,1.6-0.1,2.4c-0.2,0.8-0.5,1.5-1,2.2s-1.1,1.2-1.8,1.7l-1.5,0.9
		c-0.7,0.4-1.5,0.7-2.3,0.8c-0.8,0.1-1.6,0.1-2.4-0.1s-1.5-0.5-2.2-1s-1.2-1.1-1.7-1.8l-5-8.2c-0.4-0.7-0.7-1.5-0.8-2.3
		s-0.1-1.6,0.1-2.4c0.2-0.8,0.5-1.5,1-2.2s1.1-1.2,1.8-1.7l1.5-0.9c0.7-0.4,1.5-0.7,2.3-0.8c0.8-0.1,1.6-0.1,2.4,0.1s1.5,0.5,2.2,1
		s1.2,1.1,1.7,1.8l2.6,4.3l-9.9,6l2.4,4c0.3,0.4,0.6,0.8,1,1.1c0.4,0.3,0.8,0.5,1.3,0.6s0.9,0.1,1.4,0.1c0.5-0.1,0.9-0.2,1.4-0.5
		l1.5-0.9c0.4-0.3,0.8-0.6,1.1-1c0.3-0.4,0.5-0.8,0.6-1.3c0.1-0.5,0.1-0.9,0.1-1.4c-0.1-0.5-0.2-0.9-0.5-1.4l-0.7-1.2l2.4-1l0.4,0.7
		C33.9,275.7,34.2,276.5,34.3,277.3z M26.3,268c-0.3-0.4-0.6-0.8-1-1.1c-0.4-0.3-0.8-0.5-1.3-0.6s-0.9-0.1-1.4-0.1
		c-0.5,0.1-0.9,0.2-1.4,0.5l-1.5,0.9c-0.4,0.3-0.8,0.6-1.1,1s-0.5,0.8-0.6,1.3s-0.1,0.9-0.1,1.4c0.1,0.5,0.2,0.9,0.5,1.4l1.6,2.7
		l7.8-4.7L26.3,268z"/>
	<path class="st1" d="M60.6,268.8l-6.2-14.3c-0.2-0.5-0.5-0.9-0.8-1.2s-0.8-0.6-1.2-0.8s-0.9-0.3-1.4-0.3s-1,0.1-1.4,0.3l-1.2,0.5
		c-0.5,0.2-0.9,0.5-1.2,0.8c-0.3,0.4-0.6,0.8-0.8,1.2s-0.3,0.9-0.3,1.4c0,0.5,0.1,1,0.3,1.4l6.2,14.3l-2.3,1l-6.2-14.3
		c-0.2-0.5-0.5-0.9-0.8-1.2c-0.4-0.3-0.8-0.6-1.2-0.8c-0.4-0.2-0.9-0.3-1.4-0.3s-1,0.1-1.4,0.3l-1.2,0.5c-0.5,0.2-0.9,0.5-1.2,0.8
		c-0.3,0.4-0.6,0.8-0.8,1.2c-0.2,0.4-0.3,0.9-0.3,1.4s0.1,1,0.3,1.4l6.2,14.3l-2.3,1l-8.4-19.5l0.8-0.3l2.1,1.4
		c0.2-1,0.6-1.8,1.3-2.6c0.6-0.8,1.4-1.4,2.4-1.8l0.2-0.1c1.1-0.5,2.2-0.6,3.3-0.5c1.1,0.2,2.1,0.6,3,1.3c0-0.5,0.2-1.1,0.4-1.6
		s0.5-1,0.8-1.5c0.3-0.4,0.7-0.9,1.1-1.2s0.9-0.7,1.5-0.9l0.2-0.1c0.8-0.3,1.6-0.5,2.4-0.5s1.6,0.1,2.4,0.4c0.7,0.3,1.4,0.7,2,1.3
		s1.1,1.2,1.4,2l6.1,14.1L60.6,268.8z"/>
	<path class="st1" d="M79.8,263.3l-1.9-1.7c-0.4,0.9-0.9,1.7-1.6,2.3c-0.7,0.7-1.6,1.2-2.6,1.4l-0.6,0.2c-0.8,0.2-1.6,0.3-2.5,0.2
		c-0.8-0.1-1.6-0.4-2.3-0.8c-0.7-0.4-1.3-0.9-1.8-1.6c-0.5-0.6-0.9-1.4-1.1-2.2l-0.1-0.2c-0.2-0.8-0.3-1.6-0.2-2.5
		c0.1-0.8,0.4-1.6,0.8-2.3c0.4-0.7,0.9-1.3,1.6-1.8c0.6-0.5,1.4-0.9,2.2-1.1l5.2-1.4l-0.9-3.2c-0.1-0.5-0.4-0.9-0.7-1.3
		c-0.3-0.4-0.7-0.7-1.1-0.9s-0.9-0.4-1.3-0.4c-0.5-0.1-1,0-1.5,0.1l-1.4,0.4c-0.5,0.1-0.9,0.4-1.3,0.7s-0.7,0.7-0.9,1.1
		c-0.2,0.4-0.4,0.9-0.4,1.3c-0.1,0.5,0,1,0.1,1.5l0.2,0.7l-2.6,0.3l-0.1-0.2c-0.2-0.8-0.3-1.6-0.2-2.5c0.1-0.8,0.4-1.6,0.8-2.3
		s0.9-1.3,1.6-1.8s1.4-0.9,2.2-1.1l1.4-0.4c0.8-0.2,1.6-0.3,2.5-0.2c0.8,0.1,1.6,0.4,2.3,0.8c0.7,0.4,1.3,0.9,1.8,1.6
		c0.5,0.6,0.9,1.4,1.1,2.2l4.1,14.8L79.8,263.3z M75.4,253.8l-5.2,1.4c-0.5,0.1-0.9,0.4-1.3,0.7c-0.4,0.3-0.7,0.7-0.9,1.1
		s-0.4,0.9-0.4,1.3c-0.1,0.5,0,1,0.1,1.5l0.2,0.9c0.1,0.5,0.4,0.9,0.7,1.3s0.7,0.7,1.1,0.9c0.4,0.2,0.9,0.4,1.3,0.4s1,0,1.5-0.1
		l1.6-0.5c0.5-0.1,0.9-0.4,1.3-0.7c0.4-0.3,0.7-0.7,0.9-1.1c0.2-0.4,0.4-0.9,0.4-1.3c0.1-0.5,0-1-0.1-1.5L75.4,253.8z"/>
	<path class="st1" d="M98.4,254.4c0.1,0.8,0.1,1.6-0.1,2.4s-0.6,1.4-1.1,2s-1.1,1.1-1.8,1.5s-1.5,0.7-2.4,0.8l-1.7,0.3
		c-0.8,0.1-1.7,0.1-2.5-0.1s-1.6-0.5-2.2-1c-0.7-0.5-1.2-1-1.7-1.7s-0.8-1.5-0.9-2.3l-0.1-0.8l2.4-0.8l0.2,1.4
		c0.1,0.5,0.3,1,0.5,1.4c0.3,0.4,0.6,0.7,1,1s0.9,0.5,1.4,0.6s1,0.1,1.5,0l1.7-0.3c0.5-0.1,1-0.2,1.4-0.5c0.4-0.2,0.8-0.5,1.1-0.8
		c0.3-0.3,0.5-0.7,0.7-1.2c0.1-0.4,0.2-0.9,0.1-1.4c-0.1-0.7-0.4-1.3-0.8-1.8c-0.4-0.4-0.9-0.8-1.5-1s-1.2-0.4-2-0.5
		c-0.7-0.1-1.5-0.2-2.2-0.3c-0.8-0.1-1.5-0.2-2.2-0.4s-1.4-0.4-2-0.8c-0.6-0.4-1.1-0.8-1.6-1.5c-0.4-0.6-0.7-1.4-0.9-2.4
		c-0.1-0.8-0.1-1.6,0.1-2.4s0.6-1.4,1-2c0.5-0.6,1.1-1.1,1.8-1.5c0.7-0.4,1.5-0.7,2.3-0.8l1.5-0.2c0.8-0.1,1.7-0.1,2.5,0.1
		c0.8,0.2,1.5,0.5,2.2,1s1.2,1.1,1.6,1.7c0.4,0.7,0.7,1.5,0.9,2.3v0.1l-2.4,0.8l-0.1-0.6c-0.1-0.5-0.3-1-0.5-1.4
		c-0.3-0.4-0.6-0.8-1-1c-0.4-0.3-0.8-0.5-1.3-0.6s-1-0.1-1.5-0.1l-1.5,0.2c-0.5,0.1-1,0.2-1.4,0.5s-0.8,0.5-1.1,0.8
		c-0.3,0.3-0.5,0.7-0.6,1.1c-0.1,0.4-0.1,0.9-0.1,1.4c0.1,0.7,0.4,1.3,0.8,1.7s0.9,0.7,1.5,0.9s1.2,0.4,2,0.5
		c0.7,0.1,1.5,0.2,2.2,0.3c0.8,0.1,1.5,0.2,2.2,0.4s1.4,0.4,2,0.8c0.6,0.4,1.1,0.9,1.6,1.5C97.9,252.6,98.2,253.4,98.4,254.4z"/>
	<path class="st1" d="M126,258.6l-1.4-2.1c-0.6,0.8-1.3,1.4-2.1,1.9c-0.9,0.5-1.8,0.7-2.8,0.7h-0.6c-0.9,0-1.7-0.1-2.4-0.4
		s-1.4-0.7-2-1.3c-0.6-0.6-1-1.2-1.4-2c-0.3-0.8-0.5-1.6-0.5-2.4l-0.2-9.6c0-0.9,0.1-1.7,0.4-2.4c0.3-0.8,0.7-1.4,1.3-2
		c0.6-0.6,1.2-1,2-1.4c0.8-0.3,1.6-0.5,2.4-0.5h0.6c1,0,1.8,0.2,2.7,0.5c0.8,0.4,1.5,0.9,2.1,1.6l-0.2-10.3h2.5l0.5,29.7L126,258.6z
		 M124.1,243.1c0-0.5-0.1-1-0.3-1.4c-0.2-0.4-0.5-0.8-0.8-1.2c-0.3-0.3-0.7-0.6-1.2-0.8s-0.9-0.3-1.4-0.3h-1.7c-0.5,0-1,0.1-1.4,0.3
		s-0.8,0.5-1.2,0.8c-0.3,0.3-0.6,0.7-0.8,1.2c-0.2,0.5-0.3,0.9-0.3,1.4l0.2,9.9c0,0.5,0.1,1,0.3,1.4c0.2,0.4,0.5,0.8,0.8,1.2
		c0.3,0.3,0.7,0.6,1.2,0.8s0.9,0.3,1.4,0.3h1.7c0.5,0,1-0.1,1.4-0.3c0.4-0.2,0.8-0.5,1.2-0.8s0.6-0.7,0.8-1.2
		c0.2-0.5,0.3-0.9,0.3-1.4L124.1,243.1z"/>
	<path class="st1" d="M145.2,256.9c-0.4,0.7-0.9,1.3-1.5,1.8s-1.3,0.9-2.1,1.1s-1.6,0.3-2.5,0.2l-1.7-0.2c-0.9-0.1-1.6-0.3-2.4-0.7
		c-0.7-0.4-1.3-0.9-1.8-1.5s-0.9-1.3-1.1-2.1c-0.2-0.8-0.3-1.6-0.2-2.5l1-9.5c0.1-0.9,0.3-1.6,0.7-2.4c0.4-0.7,0.9-1.3,1.5-1.8
		s1.3-0.9,2.1-1.1c0.8-0.2,1.6-0.3,2.5-0.2l1.7,0.2c0.9,0.1,1.6,0.3,2.4,0.7c0.7,0.4,1.3,0.9,1.8,1.5s0.9,1.3,1.1,2.1
		c0.2,0.8,0.3,1.6,0.2,2.5l-0.5,5l-11.6-1.2l-0.5,4.7c-0.1,0.5,0,1,0.1,1.5s0.4,0.9,0.7,1.2c0.3,0.4,0.7,0.7,1.1,0.9
		c0.4,0.2,0.9,0.4,1.4,0.4l1.7,0.2c0.5,0.1,1,0,1.5-0.1s0.9-0.4,1.2-0.7c0.4-0.3,0.7-0.7,0.9-1.1s0.4-0.9,0.4-1.4l0.1-1.4l2.5,0.7
		l-0.1,0.8C145.8,255.4,145.6,256.2,145.2,256.9z M144.4,244.7c0.1-0.5,0-1-0.1-1.5s-0.4-0.9-0.7-1.2s-0.7-0.7-1.1-0.9
		s-0.9-0.4-1.4-0.4l-1.7-0.2c-0.5-0.1-1,0-1.5,0.1s-0.9,0.4-1.2,0.7c-0.4,0.3-0.7,0.7-0.9,1.1c-0.2,0.4-0.4,0.9-0.4,1.4l-0.3,3.1
		l9,0.9L144.4,244.7z"/>
	<path class="st1" d="M172.1,259.4l-9-2.5l-3.7,6.2l-2.7-0.7l16.2-26.4l1.4,0.4l0.6,31l-2.7-0.7L172.1,259.4z M164.4,254.6l7.7,2.1
		l-0.2-14.2l0.2-1.1l-0.4,1L164.4,254.6z"/>
	<path class="st1" d="M189.4,252.8c-0.5-0.2-1-0.3-1.5-0.2s-0.9,0.1-1.4,0.3c-0.4,0.2-0.8,0.5-1.1,0.8c-0.3,0.4-0.6,0.8-0.8,1.2
		l-5.3,14.2l-2.4-0.9l7.4-19.9l0.8,0.3l0.5,2.5c0.8-0.5,1.7-0.9,2.7-1s2,0,2.9,0.3l1.4,0.5l-1,2.7L189.4,252.8z"/>
	<path class="st1" d="M201.7,275.1c-0.6,0.5-1.3,1-2.1,1.2c-0.8,0.3-1.5,0.4-2.4,0.4s-1.6-0.2-2.4-0.6l-1.5-0.7
		c-0.8-0.4-1.4-0.9-2-1.5c-0.5-0.6-1-1.3-1.2-2.1c-0.3-0.8-0.4-1.5-0.4-2.4c0-0.8,0.2-1.6,0.6-2.4l4.1-8.6c0.4-0.8,0.9-1.4,1.5-2
		c0.6-0.5,1.3-1,2.1-1.2s1.5-0.4,2.4-0.4c0.8,0,1.6,0.2,2.4,0.6l1.5,0.7c0.8,0.4,1.4,0.9,2,1.5s1,1.3,1.2,2.1
		c0.3,0.8,0.4,1.5,0.4,2.4c0,0.8-0.2,1.6-0.6,2.4l-0.4,0.8l-2.5-0.7l0.6-1.3c0.2-0.5,0.3-0.9,0.4-1.4c0-0.5-0.1-1-0.2-1.4
		c-0.2-0.4-0.4-0.8-0.7-1.2c-0.3-0.4-0.7-0.7-1.2-0.9l-1.5-0.7c-0.5-0.2-0.9-0.3-1.4-0.4c-0.5,0-1,0.1-1.4,0.2
		c-0.4,0.2-0.8,0.4-1.2,0.7c-0.4,0.3-0.7,0.7-0.9,1.2l-4.2,8.9c-0.2,0.5-0.3,0.9-0.4,1.4c0,0.5,0.1,1,0.2,1.4
		c0.2,0.4,0.4,0.8,0.7,1.2s0.7,0.7,1.2,0.9l1.5,0.7c0.5,0.2,0.9,0.3,1.4,0.4s1-0.1,1.4-0.2c0.4-0.2,0.8-0.4,1.2-0.7
		c0.4-0.3,0.7-0.7,0.9-1.2l0.6-1.3l2.1,1.5l-0.4,0.8C202.8,273.9,202.3,274.6,201.7,275.1z"/>
	<path class="st1" d="M214.3,286.6l8.1-13.2c0.3-0.4,0.4-0.9,0.5-1.4s0.1-1-0.1-1.4c-0.1-0.5-0.3-0.9-0.6-1.3s-0.6-0.7-1.1-1
		l-1.4-0.9c-0.4-0.3-0.9-0.4-1.4-0.5s-1-0.1-1.4,0.1s-0.9,0.3-1.3,0.6c-0.4,0.3-0.7,0.6-1,1.1l-8.1,13.2l-2.2-1.3l15.6-25.3l2.2,1.3
		l-5.4,8.8c0.9-0.3,1.7-0.4,2.6-0.3s1.8,0.4,2.6,0.9l0.5,0.3c0.7,0.4,1.3,1,1.8,1.7s0.8,1.4,1,2.2c0.2,0.8,0.2,1.6,0.1,2.4
		c-0.1,0.8-0.4,1.6-0.9,2.3l-8.1,13.1L214.3,286.6z"/>
	<path class="st1" d="M220.9,291.1l12.5-17.1l2.1,1.5L223,292.6L220.9,291.1z M236.2,269.7l2-2.7l2.4,1.7l-2,2.7L236.2,269.7z"/>
	<path class="st1" d="M232.4,300.1l-1-0.8l8-21l1.9,1.6l-6.2,15.8l-0.6,0.9l0.8-0.8l14.6-8.7l1.9,1.6L232.4,300.1z"/>
	<path class="st1" d="M251.6,314c-0.8,0.3-1.6,0.4-2.4,0.4s-1.6-0.2-2.3-0.5c-0.8-0.3-1.4-0.8-2-1.4l-1.2-1.2
		c-0.6-0.6-1-1.3-1.3-2.1c-0.3-0.8-0.4-1.6-0.4-2.4s0.2-1.6,0.5-2.3c0.3-0.8,0.8-1.4,1.4-2l6.9-6.6c0.6-0.6,1.3-1,2.1-1.3
		s1.6-0.4,2.4-0.4c0.8,0,1.6,0.2,2.3,0.5c0.8,0.3,1.4,0.8,2,1.4l1.2,1.2c0.6,0.6,1,1.3,1.3,2.1c0.3,0.8,0.4,1.6,0.4,2.4
		s-0.2,1.6-0.5,2.3s-0.8,1.4-1.4,2l-6.9,6.6C253.1,313.3,252.4,313.7,251.6,314z M258.9,304.1c0.4-0.4,0.6-0.8,0.8-1.2
		s0.3-0.9,0.3-1.4s-0.1-0.9-0.2-1.4c-0.2-0.5-0.4-0.9-0.8-1.2l-1.2-1.2c-0.4-0.4-0.8-0.6-1.2-0.8c-0.5-0.2-0.9-0.3-1.4-0.3
		s-0.9,0.1-1.4,0.2s-0.9,0.4-1.2,0.8l-7.1,6.8c-0.4,0.4-0.6,0.8-0.8,1.2c-0.2,0.5-0.3,0.9-0.3,1.4s0.1,0.9,0.2,1.4
		c0.2,0.5,0.4,0.9,0.8,1.2l1.2,1.2c0.4,0.4,0.8,0.6,1.2,0.8c0.5,0.2,0.9,0.3,1.4,0.3s0.9-0.1,1.4-0.2c0.5-0.2,0.9-0.4,1.2-0.8
		L258.9,304.1z"/>
	<path class="st1" d="M265.6,328.2c-0.7,0.5-1.4,0.9-2.2,1c-0.8,0.2-1.5,0.2-2.3,0s-1.5-0.5-2.2-0.9s-1.3-1-1.8-1.7l-1-1.3
		c-0.5-0.7-0.9-1.4-1.1-2.2c-0.2-0.8-0.3-1.6-0.2-2.4s0.3-1.6,0.7-2.3s0.9-1.4,1.6-1.9l0.7-0.5l1.9,1.8l-1.1,0.9
		c-0.4,0.3-0.7,0.7-0.9,1.1c-0.2,0.4-0.4,0.9-0.4,1.4s0,1,0.1,1.5s0.4,0.9,0.7,1.3l1,1.3c0.3,0.4,0.7,0.7,1.1,1s0.8,0.5,1.3,0.6
		s0.9,0.1,1.3,0.1c0.4-0.1,0.9-0.3,1.3-0.6c0.6-0.5,1-1,1.2-1.5c0.2-0.6,0.2-1.2,0.1-1.8s-0.2-1.3-0.5-2s-0.5-1.4-0.8-2.1
		s-0.5-1.4-0.7-2.1s-0.3-1.4-0.3-2.1s0.2-1.4,0.5-2.1s0.9-1.3,1.7-1.9c0.7-0.5,1.4-0.9,2.2-1c0.8-0.2,1.5-0.2,2.3-0.1
		s1.5,0.4,2.2,0.8s1.3,1,1.8,1.6l0.9,1.2c0.5,0.7,0.9,1.4,1.1,2.2s0.3,1.6,0.2,2.4c-0.1,0.8-0.4,1.6-0.8,2.3
		c-0.4,0.7-0.9,1.3-1.6,1.9l-0.1,0.1l-1.9-1.8l0.5-0.4c0.4-0.3,0.7-0.7,1-1.1c0.2-0.4,0.4-0.9,0.4-1.3c0.1-0.5,0-0.9-0.1-1.4
		s-0.3-0.9-0.7-1.3l-0.9-1.2c-0.3-0.4-0.7-0.7-1.1-1s-0.8-0.4-1.2-0.5c-0.4-0.1-0.9-0.1-1.3,0s-0.9,0.3-1.3,0.6
		c-0.6,0.4-0.9,0.9-1.1,1.5c-0.2,0.5-0.2,1.1-0.1,1.8c0.1,0.6,0.3,1.3,0.5,2s0.5,1.4,0.8,2.1s0.5,1.4,0.7,2.2
		c0.2,0.7,0.3,1.4,0.3,2.2s-0.2,1.4-0.5,2.1C266.9,327,266.4,327.6,265.6,328.2z"/>
</g>
</svg>
