<?xml version="1.0" encoding="utf-8"?>
<!-- Generator: Adobe Illustrator 19.0.0, SVG Export Plug-In . SVG Version: 6.00 Build 0)  -->
<svg version="1.1" id="Capa_1" xmlns="http://www.w3.org/2000/svg" xmlns:xlink="http://www.w3.org/1999/xlink" x="0px" y="0px"
	 viewBox="-92 211.9 409.9 418" style="enable-background:new -92 211.9 409.9 418;" xml:space="preserve">
<style type="text/css">
	.st0{fill:#485EA8;}
	.st1{fill:#FFFFFF;}
</style>
<rect id="XMLID_6_" x="-92" y="211.9" class="st0" width="409.9" height="418"/>
<g>
	<g>
		<path class="st1" d="M-61,245.8c0,0.9-0.2,1.7-0.5,2.5c-0.4,0.8-0.8,1.5-1.5,2.1s-1.3,1.1-2.1,1.4c-0.8,0.3-1.7,0.5-2.6,0.5h-1.9
			c-0.9,0-1.7-0.2-2.6-0.5s-1.5-0.8-2.1-1.4c-0.6-0.6-1.1-1.3-1.5-2.1s-0.5-1.6-0.5-2.5v-1.1l2.4-0.4v1.4c0,0.6,0.1,1.1,0.4,1.6
			c0.2,0.5,0.6,1,1,1.3c0.4,0.4,0.9,0.7,1.4,0.9s1.1,0.3,1.7,0.3h1.7c0.6,0,1.1-0.1,1.7-0.3c0.5-0.2,1-0.5,1.4-0.9
			c0.4-0.4,0.7-0.8,1-1.3c0.2-0.5,0.4-1.1,0.4-1.6v-0.8c0-0.9-0.2-1.7-0.5-2.3c-0.4-0.6-0.8-1.1-1.4-1.5c-0.6-0.4-1.3-0.8-2-1.1
			s-1.5-0.6-2.3-0.9c-0.8-0.3-1.6-0.6-2.3-1s-1.4-0.8-2-1.3s-1.1-1.2-1.4-2s-0.5-1.7-0.5-2.9v-0.5c0-0.9,0.2-1.7,0.5-2.5
			s0.8-1.5,1.4-2.1s1.3-1.1,2.1-1.4c0.8-0.3,1.6-0.5,2.5-0.5h1.7c0.9,0,1.7,0.2,2.5,0.5c0.8,0.3,1.5,0.8,2.1,1.4
			c0.6,0.6,1.1,1.3,1.4,2.1s0.5,1.6,0.5,2.5v0.7l-2.4,0.4v-1.1c0-0.6-0.1-1.1-0.3-1.6s-0.5-1-0.9-1.3c-0.4-0.4-0.8-0.7-1.3-0.9
			s-1.1-0.3-1.7-0.3H-69c-0.6,0-1.1,0.1-1.6,0.3s-1,0.5-1.3,0.9c-0.3,0.4-0.7,0.8-0.9,1.3c-0.2,0.5-0.3,1.1-0.3,1.6v0.5
			c0,0.8,0.2,1.6,0.5,2.1c0.4,0.6,0.8,1.1,1.4,1.5s1.3,0.8,2,1.1s1.5,0.6,2.3,0.9c0.8,0.3,1.6,0.7,2.3,1c0.7,0.4,1.4,0.8,2,1.4
			c0.6,0.5,1.1,1.2,1.4,2c0.4,0.8,0.5,1.7,0.5,2.9L-61,245.8L-61,245.8z"/>
		<path class="st1" d="M-56.5,228.5v-3h2.6v3H-56.5z M-56.3,252v-18.9h2.3V252H-56.3z"/>
		<path class="st1" d="M-35.7,247.2c0,0.8-0.2,1.5-0.5,2.1s-0.7,1.2-1.3,1.6c-0.5,0.5-1.1,0.8-1.8,1.1s-1.4,0.4-2.2,0.4H-43
			c-0.8,0-1.5-0.1-2.2-0.4s-1.3-0.7-1.8-1.2s-0.9-1.1-1.3-1.8c-0.3-0.7-0.5-1.4-0.5-2.2V246l2.3-0.4v1.3c0,0.5,0.1,0.9,0.3,1.3
			c0.2,0.4,0.4,0.7,0.8,1c0.3,0.3,0.7,0.5,1.1,0.7c0.4,0.2,0.9,0.3,1.3,0.3h1.5c0.5,0,0.9-0.1,1.3-0.2c0.4-0.1,0.8-0.3,1.1-0.6
			s0.6-0.6,0.8-0.9c0.2-0.4,0.3-0.8,0.3-1.2c0-0.7-0.1-1.2-0.4-1.7c-0.3-0.4-0.7-0.8-1.2-1.1s-1-0.5-1.7-0.7
			c-0.7-0.2-1.3-0.4-1.9-0.6c-0.7-0.2-1.3-0.4-1.9-0.7c-0.6-0.2-1.2-0.6-1.7-1s-0.9-0.9-1.2-1.5s-0.4-1.4-0.4-2.3
			c0-0.8,0.1-1.5,0.4-2.1s0.7-1.2,1.2-1.6c0.5-0.5,1.1-0.8,1.8-1.1s1.4-0.4,2.1-0.4h1.3c0.8,0,1.5,0.1,2.2,0.4
			c0.7,0.3,1.3,0.7,1.8,1.2s0.9,1.1,1.2,1.8c0.3,0.7,0.4,1.4,0.4,2.2v0.1l-2.3,0.4V238c0-0.5-0.1-0.9-0.3-1.3
			c-0.2-0.4-0.4-0.7-0.7-1s-0.6-0.5-1-0.7s-0.8-0.3-1.3-0.3h-1.3c-0.5,0-0.9,0.1-1.3,0.2c-0.4,0.1-0.7,0.3-1,0.6
			c-0.3,0.3-0.5,0.6-0.7,0.9c-0.2,0.4-0.3,0.8-0.3,1.2c0,0.7,0.1,1.2,0.4,1.6c0.3,0.4,0.7,0.8,1.2,1c0.5,0.3,1,0.5,1.7,0.7
			s1.3,0.4,1.9,0.6c0.6,0.2,1.3,0.4,1.9,0.7c0.6,0.3,1.2,0.6,1.7,1s0.9,0.9,1.2,1.5C-35.9,245.5-35.7,246.3-35.7,247.2z"/>
		<path class="st1" d="M-24.5,252c-0.7,0-1.3-0.1-1.9-0.4c-0.6-0.3-1.1-0.6-1.6-1.1c-0.4-0.5-0.8-1-1.1-1.6
			c-0.3-0.6-0.4-1.2-0.4-1.9v-11.8h-3.4V233h3.4v-4.5l2.3-0.4v4.9h4.8v2.2h-4.8v11.9c0,0.4,0.1,0.7,0.2,1.1c0.1,0.3,0.3,0.6,0.6,0.9
			c0.2,0.2,0.5,0.4,0.9,0.6c0.3,0.1,0.7,0.2,1.1,0.2h2.1v2.2L-24.5,252L-24.5,252z"/>
		<path class="st1" d="M-6.1,248.9c-0.3,0.7-0.7,1.3-1.2,1.8s-1.1,0.9-1.8,1.2c-0.7,0.3-1.4,0.4-2.2,0.4h-1.5
			c-0.8,0-1.5-0.1-2.2-0.4s-1.3-0.7-1.8-1.2s-0.9-1.1-1.2-1.8s-0.4-1.4-0.4-2.2v-8.5c0-0.8,0.1-1.5,0.4-2.2c0.3-0.7,0.7-1.3,1.2-1.8
			s1.1-0.9,1.8-1.2c0.7-0.3,1.4-0.4,2.2-0.4h1.5c0.8,0,1.5,0.1,2.2,0.4s1.3,0.7,1.8,1.2s0.9,1.1,1.2,1.8s0.4,1.4,0.4,2.2v4.4H-16
			v4.2c0,0.5,0.1,0.9,0.3,1.3c0.2,0.4,0.4,0.7,0.7,1s0.6,0.5,1,0.7s0.8,0.3,1.3,0.3h1.5c0.5,0,0.9-0.1,1.3-0.3s0.7-0.4,1-0.7
			s0.5-0.6,0.7-1s0.3-0.8,0.3-1.3v-1.3l2.3,0.4v0.8C-5.7,247.5-5.8,248.3-6.1,248.9z M-7.9,238.1c0-0.5-0.1-0.9-0.3-1.3
			c-0.2-0.4-0.4-0.7-0.7-1s-0.6-0.5-1-0.7s-0.8-0.3-1.3-0.3h-1.5c-0.5,0-0.9,0.1-1.3,0.3s-0.7,0.4-1,0.7s-0.5,0.6-0.7,1
			s-0.3,0.8-0.3,1.3v2.8h8.1L-7.9,238.1L-7.9,238.1z"/>
		<path class="st1" d="M18.8,252v-13.9c0-0.5-0.1-0.9-0.3-1.3c-0.2-0.4-0.4-0.7-0.7-1s-0.6-0.5-1-0.7s-0.8-0.3-1.3-0.3h-1.1
			c-0.5,0-0.9,0.1-1.3,0.3c-0.4,0.2-0.7,0.4-1.1,0.7c-0.3,0.3-0.5,0.6-0.7,1s-0.3,0.8-0.3,1.3v13.8H8.8v-13.8c0-0.5-0.1-0.9-0.3-1.3
			c-0.2-0.4-0.4-0.7-0.7-1s-0.7-0.5-1.1-0.7c-0.4-0.2-0.8-0.3-1.3-0.3H4.3c-0.5,0-0.9,0.1-1.3,0.3c-0.4,0.2-0.7,0.4-1,0.7
			s-0.5,0.6-0.7,1S1,237.6,1,238.1v13.8h-2.3v-18.8h0.8l1.2,1.9c0.5-0.7,1.2-1.3,1.9-1.7c0.8-0.4,1.6-0.6,2.6-0.6h0.2
			c1.1,0,2,0.3,2.9,0.8s1.5,1.2,2,2.1c0.2-0.4,0.5-0.8,0.9-1.2c0.3-0.4,0.7-0.7,1.1-0.9c0.4-0.2,0.9-0.4,1.4-0.6
			c0.5-0.1,1-0.2,1.5-0.2h0.2c0.8,0,1.5,0.1,2.2,0.4s1.3,0.7,1.8,1.2s0.9,1.1,1.2,1.8s0.4,1.4,0.4,2.2V252C21,252,18.8,252,18.8,252
			z"/>
		<path class="st1" d="M37.5,252l-1.3-1.9c-0.5,0.7-1.2,1.2-1.9,1.6c-0.8,0.4-1.6,0.6-2.5,0.6h-0.6c-0.8,0-1.5-0.1-2.2-0.4
			s-1.3-0.7-1.8-1.2s-0.9-1.1-1.2-1.8s-0.4-1.4-0.4-2.2v-0.2c0-0.8,0.1-1.5,0.4-2.2c0.3-0.7,0.7-1.3,1.2-1.8s1.1-0.9,1.8-1.2
			s1.4-0.4,2.2-0.4H36V238c0-0.5-0.1-0.9-0.3-1.3c-0.2-0.4-0.4-0.7-0.7-1s-0.6-0.5-1-0.7s-0.8-0.3-1.3-0.3h-1.3
			c-0.5,0-0.9,0.1-1.3,0.3c-0.4,0.2-0.7,0.4-1,0.7s-0.5,0.6-0.7,1s-0.3,0.8-0.3,1.3v0.7l-2.3-0.4v-0.2c0-0.8,0.1-1.5,0.4-2.2
			c0.3-0.7,0.7-1.3,1.2-1.8s1.1-0.9,1.8-1.2s1.4-0.4,2.2-0.4h1.3c0.8,0,1.5,0.1,2.2,0.4s1.3,0.7,1.8,1.2s0.9,1.1,1.2,1.8
			s0.4,1.4,0.4,2.2v13.7L37.5,252L37.5,252z M36,242.8h-4.8c-0.5,0-0.9,0.1-1.3,0.3c-0.4,0.2-0.7,0.4-1,0.7s-0.5,0.7-0.7,1.1
			c-0.2,0.4-0.3,0.8-0.3,1.3v0.8c0,0.5,0.1,0.9,0.3,1.3c0.2,0.4,0.4,0.7,0.7,1s0.6,0.5,1,0.7s0.8,0.3,1.3,0.3h1.5
			c0.5,0,0.9-0.1,1.3-0.3s0.7-0.4,1-0.7s0.5-0.6,0.7-1s0.3-0.8,0.3-1.3V242.8z"/>
		<path class="st1" d="M55.7,247.2c0,0.8-0.2,1.5-0.5,2.1s-0.7,1.2-1.3,1.6c-0.5,0.5-1.1,0.8-1.8,1.1s-1.4,0.4-2.2,0.4h-1.5
			c-0.8,0-1.5-0.1-2.2-0.4s-1.3-0.7-1.8-1.2s-0.9-1.1-1.3-1.8c-0.3-0.7-0.5-1.4-0.5-2.2V246l2.3-0.4v1.3c0,0.5,0.1,0.9,0.3,1.3
			c0.2,0.4,0.4,0.7,0.8,1c0.3,0.3,0.7,0.5,1.1,0.7s0.9,0.3,1.3,0.3h1.5c0.5,0,0.9-0.1,1.3-0.2c0.4-0.1,0.8-0.3,1.1-0.6
			c0.3-0.3,0.6-0.6,0.8-0.9c0.2-0.4,0.3-0.8,0.3-1.2c0-0.7-0.1-1.2-0.4-1.7c-0.3-0.4-0.7-0.8-1.2-1.1s-1-0.5-1.7-0.7
			s-1.3-0.4-1.9-0.6c-0.7-0.2-1.3-0.4-1.9-0.7c-0.6-0.2-1.2-0.6-1.7-1s-0.9-0.9-1.2-1.5c-0.3-0.6-0.4-1.4-0.4-2.3
			c0-0.8,0.1-1.5,0.4-2.1s0.7-1.2,1.2-1.6c0.5-0.5,1.1-0.8,1.8-1.1c0.7-0.3,1.4-0.4,2.1-0.4h1.3c0.8,0,1.5,0.1,2.2,0.4
			s1.3,0.7,1.8,1.2s0.9,1.1,1.2,1.8c0.3,0.7,0.4,1.4,0.4,2.2v0.1l-2.3,0.4V238c0-0.5-0.1-0.9-0.3-1.3c-0.2-0.4-0.4-0.7-0.7-1
			s-0.6-0.5-1-0.7s-0.8-0.3-1.3-0.3h-1.3c-0.5,0-0.9,0.1-1.3,0.2c-0.4,0.1-0.7,0.3-1,0.6s-0.5,0.6-0.7,0.9c-0.2,0.4-0.3,0.8-0.3,1.2
			c0,0.7,0.1,1.2,0.4,1.6c0.3,0.4,0.7,0.8,1.2,1c0.5,0.3,1,0.5,1.7,0.7s1.3,0.4,1.9,0.6c0.6,0.2,1.3,0.4,1.9,0.7s1.2,0.6,1.7,1
			s0.9,0.9,1.2,1.5C55.6,245.5,55.7,246.3,55.7,247.2z"/>
		<path class="st1" d="M80.6,252l-1.3-1.9c-0.5,0.7-1.2,1.3-1.9,1.7c-0.8,0.4-1.6,0.6-2.5,0.6h-0.6c-0.8,0-1.5-0.1-2.2-0.4
			s-1.3-0.7-1.8-1.2s-0.9-1.1-1.2-1.8c-0.3-0.7-0.4-1.4-0.4-2.2v-8.5c0-0.8,0.1-1.5,0.4-2.2s0.7-1.3,1.2-1.8s1.1-0.9,1.8-1.2
			s1.4-0.4,2.2-0.4h0.6c0.8,0,1.6,0.2,2.4,0.5c0.7,0.3,1.3,0.8,1.9,1.4v-9.1h2.3v26.4L80.6,252L80.6,252z M79.1,238.1
			c0-0.5-0.1-0.9-0.3-1.3c-0.2-0.4-0.4-0.7-0.7-1s-0.6-0.5-1-0.7s-0.8-0.3-1.3-0.3h-1.5c-0.5,0-0.9,0.1-1.3,0.3s-0.7,0.4-1,0.7
			s-0.5,0.6-0.7,1s-0.3,0.8-0.3,1.3v8.8c0,0.5,0.1,0.9,0.3,1.3c0.2,0.4,0.4,0.7,0.7,1s0.6,0.5,1,0.7s0.8,0.3,1.3,0.3h1.5
			c0.5,0,0.9-0.1,1.3-0.3s0.7-0.4,1-0.7s0.5-0.6,0.7-1s0.3-0.8,0.3-1.3C79.1,246.9,79.1,238.1,79.1,238.1z"/>
		<path class="st1" d="M98.1,248.9c-0.3,0.7-0.7,1.3-1.2,1.8s-1.1,0.9-1.8,1.2c-0.7,0.3-1.4,0.4-2.2,0.4h-1.5
			c-0.8,0-1.5-0.1-2.2-0.4s-1.3-0.7-1.8-1.2s-0.9-1.1-1.2-1.8c-0.3-0.7-0.4-1.4-0.4-2.2v-8.5c0-0.8,0.1-1.5,0.4-2.2s0.7-1.3,1.2-1.8
			s1.1-0.9,1.8-1.2c0.7-0.3,1.4-0.4,2.2-0.4h1.5c0.8,0,1.5,0.1,2.2,0.4s1.3,0.7,1.8,1.2s0.9,1.1,1.2,1.8s0.4,1.4,0.4,2.2v4.4H88.2
			v4.2c0,0.5,0.1,0.9,0.3,1.3c0.2,0.4,0.4,0.7,0.7,1s0.6,0.5,1,0.7s0.8,0.3,1.3,0.3H93c0.5,0,0.9-0.1,1.3-0.3s0.7-0.4,1-0.7
			s0.5-0.6,0.7-1s0.3-0.8,0.3-1.3v-1.3l2.3,0.4v0.8C98.5,247.5,98.4,248.3,98.1,248.9z M96.3,238.1c0-0.5-0.1-0.9-0.3-1.3
			c-0.2-0.4-0.4-0.7-0.7-1c-0.3-0.3-0.6-0.5-1-0.7s-0.8-0.3-1.3-0.3h-1.5c-0.5,0-0.9,0.1-1.3,0.3s-0.7,0.4-1,0.7s-0.5,0.6-0.7,1
			s-0.3,0.8-0.3,1.3v2.8h8.1C96.3,240.9,96.3,238.1,96.3,238.1z"/>
		<path class="st1" d="M122.4,245.8H114l-1.7,6.2h-2.5l7.7-26.4h1.3l7.8,26.4h-2.5L122.4,245.8z M114.7,243.5h7.1l-3.5-12.2l-0.1-1
			l-0.1,1L114.7,243.5z"/>
		<path class="st1" d="M134.8,235.2c-0.5,0-0.9,0.1-1.3,0.3s-0.7,0.4-1,0.7s-0.5,0.6-0.7,1s-0.3,0.8-0.3,1.3v13.4h-2.3v-18.8h0.8
			l1.2,1.9c0.5-0.7,1.2-1.3,1.9-1.7c0.8-0.4,1.6-0.6,2.6-0.6h1.3v2.5L134.8,235.2L134.8,235.2z"/>
		<path class="st1" d="M152.3,248.9c-0.3,0.7-0.7,1.3-1.2,1.8s-1.1,0.9-1.8,1.2s-1.4,0.4-2.2,0.4h-1.5c-0.8,0-1.5-0.1-2.2-0.4
			c-0.7-0.3-1.3-0.7-1.8-1.2s-0.9-1.1-1.2-1.8s-0.4-1.4-0.4-2.2v-8.5c0-0.8,0.1-1.5,0.4-2.2c0.3-0.7,0.7-1.3,1.2-1.8
			s1.1-0.9,1.8-1.2s1.4-0.4,2.2-0.4h1.5c0.8,0,1.5,0.1,2.2,0.4s1.3,0.7,1.8,1.2s0.9,1.1,1.2,1.8s0.4,1.4,0.4,2.2v0.8l-2.3,0.4v-1.3
			c0-0.5-0.1-0.9-0.3-1.3c-0.2-0.4-0.4-0.7-0.7-1s-0.6-0.5-1-0.7s-0.8-0.3-1.3-0.3h-1.5c-0.5,0-0.9,0.1-1.3,0.3
			c-0.4,0.2-0.7,0.4-1,0.7s-0.5,0.6-0.7,1s-0.3,0.8-0.3,1.3v8.8c0,0.5,0.1,0.9,0.3,1.3c0.2,0.4,0.4,0.7,0.7,1s0.6,0.5,1,0.7
			s0.8,0.3,1.3,0.3h1.5c0.5,0,0.9-0.1,1.3-0.3c0.4-0.2,0.7-0.4,1-0.7s0.5-0.6,0.7-1s0.3-0.8,0.3-1.3v-1.3l2.3,0.4v0.8
			C152.7,247.5,152.6,248.3,152.3,248.9z"/>
		<path class="st1" d="M167.6,252v-13.9c0-0.5-0.1-0.9-0.3-1.3c-0.2-0.4-0.4-0.7-0.7-1s-0.6-0.5-1-0.7s-0.8-0.3-1.3-0.3h-1.5
			c-0.5,0-0.9,0.1-1.3,0.3c-0.4,0.2-0.7,0.4-1,0.7s-0.5,0.6-0.7,1s-0.3,0.8-0.3,1.3v13.8h-2.3v-26.4h2.3v9.1
			c0.5-0.6,1.1-1.1,1.9-1.4c0.7-0.3,1.5-0.5,2.4-0.5h0.6c0.8,0,1.5,0.1,2.2,0.4c0.7,0.3,1.3,0.7,1.8,1.2s0.9,1.1,1.2,1.8
			s0.4,1.4,0.4,2.2V252C170,252,167.6,252,167.6,252z"/>
		<path class="st1" d="M175,228.5v-3h2.6v3H175z M175.2,252v-18.9h2.3V252H175.2z"/>
		<path class="st1" d="M188.6,252h-1.1l-6.7-18.9h2.3l4.9,14.3l0.1,1l0.1-1l4.9-14.3h2.3L188.6,252z"/>
		<path class="st1" d="M210.1,248.9c-0.3,0.7-0.7,1.3-1.2,1.8s-1.1,0.9-1.8,1.2s-1.4,0.4-2.2,0.4h-1.4c-0.8,0-1.5-0.1-2.2-0.4
			s-1.3-0.7-1.8-1.2s-0.9-1.1-1.2-1.8s-0.4-1.4-0.4-2.2v-8.5c0-0.8,0.1-1.5,0.4-2.2s0.7-1.3,1.2-1.8s1.1-0.9,1.8-1.2
			s1.4-0.4,2.2-0.4h1.5c0.8,0,1.5,0.1,2.2,0.4s1.3,0.7,1.8,1.2s0.9,1.1,1.2,1.8s0.4,1.4,0.4,2.2v8.5
			C210.6,247.5,210.4,248.3,210.1,248.9z M208.3,238.1c0-0.5-0.1-0.9-0.3-1.3c-0.2-0.4-0.4-0.7-0.7-1s-0.6-0.5-1-0.7
			s-0.8-0.3-1.3-0.3h-1.5c-0.5,0-0.9,0.1-1.3,0.3c-0.4,0.2-0.7,0.4-1,0.7s-0.5,0.6-0.7,1s-0.3,0.8-0.3,1.3v8.8
			c0,0.5,0.1,0.9,0.3,1.3c0.2,0.4,0.4,0.7,0.7,1s0.6,0.5,1,0.7s0.8,0.3,1.3,0.3h1.5c0.5,0,0.9-0.1,1.3-0.3c0.4-0.2,0.7-0.4,1-0.7
			s0.5-0.6,0.7-1s0.3-0.8,0.3-1.3C208.3,246.9,208.3,238.1,208.3,238.1z"/>
		<path class="st1" d="M228.1,247.2c0,0.8-0.2,1.5-0.5,2.1s-0.7,1.2-1.3,1.6c-0.5,0.5-1.1,0.8-1.8,1.1c-0.7,0.3-1.4,0.4-2.2,0.4
			h-1.5c-0.8,0-1.5-0.1-2.2-0.4s-1.3-0.7-1.8-1.2s-0.9-1.1-1.3-1.8c-0.3-0.7-0.5-1.4-0.5-2.2V246l2.3-0.4v1.3c0,0.5,0.1,0.9,0.3,1.3
			c0.2,0.4,0.4,0.7,0.8,1c0.4,0.3,0.7,0.5,1.1,0.7c0.4,0.2,0.9,0.3,1.3,0.3h1.5c0.5,0,0.9-0.1,1.3-0.2c0.4-0.1,0.8-0.3,1.1-0.6
			s0.6-0.6,0.8-0.9c0.2-0.4,0.3-0.8,0.3-1.2c0-0.7-0.1-1.2-0.4-1.7c-0.3-0.4-0.7-0.8-1.2-1.1c-0.5-0.3-1-0.5-1.7-0.7
			c-0.6-0.2-1.3-0.4-1.9-0.6c-0.7-0.2-1.3-0.4-1.9-0.7c-0.6-0.2-1.2-0.6-1.7-1s-0.9-0.9-1.2-1.5c-0.2-0.5-0.3-1.2-0.3-2.1
			c0-0.8,0.1-1.5,0.4-2.1c0.3-0.6,0.7-1.2,1.2-1.6c0.5-0.5,1.1-0.8,1.8-1.1s1.4-0.4,2.1-0.4h1.3c0.8,0,1.5,0.1,2.2,0.4
			c0.7,0.3,1.3,0.7,1.8,1.2s0.9,1.1,1.2,1.8c0.3,0.7,0.4,1.4,0.4,2.2v0.1l-2.3,0.4v-0.6c0-0.5-0.1-0.9-0.3-1.3
			c-0.2-0.4-0.4-0.7-0.7-1c-0.3-0.3-0.6-0.5-1-0.7s-0.8-0.3-1.3-0.3H221c-0.5,0-0.9,0.1-1.3,0.2c-0.4,0.1-0.7,0.3-1,0.6
			s-0.5,0.6-0.7,0.9c-0.2,0.4-0.3,0.8-0.3,1.2c0,0.7,0.1,1.2,0.4,1.6c0.3,0.4,0.7,0.8,1.2,1c0.5,0.3,1,0.5,1.7,0.7
			c0.6,0.2,1.3,0.4,1.9,0.6c0.6,0.2,1.3,0.4,1.9,0.7s1.2,0.6,1.7,1s0.9,0.9,1.2,1.5C227.9,245.5,228.1,246.3,228.1,247.2z"/>
	</g>
</g>
</svg>
