<?xml version="1.0" encoding="utf-8"?>
<!-- Generator: Adobe Illustrator 19.0.0, SVG Export Plug-In . SVG Version: 6.00 Build 0)  -->
<svg version="1.1" id="Capa_1" xmlns="http://www.w3.org/2000/svg" xmlns:xlink="http://www.w3.org/1999/xlink" x="0px" y="0px"
	 viewBox="-88 211.9 418 418" style="enable-background:new -88 211.9 418 418;" xml:space="preserve">
<style type="text/css">
	.st0{fill:#485EA8;}
	.st1{fill:#FFFFFF;}
	.st2{fill:none;stroke:#7A94DD;stroke-miterlimit:10;}
</style>
<circle class="st0" cx="120.9" cy="420.9" r="209"/>
<g>
	<path class="st1" d="M-15.4,312.8c0.8,0.6,1.4,1.4,1.8,2.2c0.4,0.9,0.7,1.8,0.8,2.7c0.1,0.9,0,1.9-0.3,2.8s-0.7,1.8-1.3,2.6
		l-1.3,1.7c-0.6,0.8-1.4,1.4-2.2,1.9c-0.9,0.5-1.8,0.8-2.7,0.9c-0.9,0.1-1.9,0.1-2.8-0.2c-0.9-0.2-1.8-0.7-2.6-1.3l-0.9-0.7l1.3-2.4
		l1.3,1c0.5,0.4,1.1,0.7,1.7,0.8c0.6,0.1,1.2,0.2,1.9,0.1c0.6-0.1,1.2-0.3,1.8-0.6c0.6-0.3,1.1-0.7,1.5-1.2l1.2-1.5
		c0.4-0.5,0.7-1.1,0.9-1.7c0.2-0.6,0.2-1.2,0.2-1.9c-0.1-0.6-0.2-1.2-0.5-1.8c-0.3-0.6-0.7-1.1-1.2-1.5l-0.7-0.6
		c-0.8-0.6-1.6-1-2.4-1.1s-1.6-0.1-2.3,0.2c-0.8,0.2-1.6,0.6-2.3,1c-0.8,0.4-1.6,0.9-2.4,1.4c-0.8,0.5-1.6,0.9-2.5,1.3
		c-0.8,0.4-1.7,0.7-2.6,0.8s-1.8,0.1-2.7-0.1s-1.9-0.7-2.9-1.5l-0.4-0.3c-0.8-0.6-1.4-1.4-1.9-2.2c-0.5-0.8-0.7-1.7-0.8-2.7
		c-0.1-0.9,0-1.9,0.2-2.8c0.3-0.9,0.7-1.8,1.3-2.6l1.2-1.5c0.6-0.8,1.4-1.4,2.2-1.9s1.7-0.7,2.7-0.8s1.9,0,2.8,0.2s1.8,0.7,2.6,1.3
		l0.6,0.5l-1.3,2.4l-0.9-0.8c-0.5-0.4-1.1-0.7-1.7-0.9c-0.6-0.2-1.2-0.2-1.8-0.1s-1.2,0.2-1.7,0.5c-0.6,0.3-1,0.7-1.4,1.2l-1,1.3
		c-0.4,0.5-0.7,1.1-0.9,1.7s-0.2,1.2-0.2,1.8s0.2,1.2,0.5,1.7c0.3,0.6,0.7,1,1.2,1.4l0.4,0.3c0.7,0.6,1.5,0.9,2.3,1s1.5,0,2.3-0.2
		s1.6-0.6,2.3-1c0.8-0.4,1.6-0.9,2.4-1.4c0.8-0.5,1.7-0.9,2.5-1.3c0.9-0.4,1.7-0.7,2.6-0.8c0.9-0.1,1.8-0.1,2.8,0.2
		c0.9,0.2,1.9,0.8,2.9,1.5L-15.4,312.8z"/>
	<path class="st1" d="M-25.9,295.8l-2.5-2.3l2-2.2l2.5,2.3L-25.9,295.8z M-6.7,313.7l-15.4-14.6l1.8-1.9l15.4,14.6L-6.7,313.7z"/>
	<path class="st1" d="M6,294.2c0.6,0.6,1,1.3,1.2,2.1c0.2,0.8,0.3,1.5,0.2,2.3s-0.3,1.5-0.7,2.3s-0.9,1.4-1.5,2L3.9,304
		c-0.6,0.6-1.4,1-2.2,1.3s-1.6,0.4-2.4,0.4c-0.8,0-1.6-0.2-2.4-0.5c-0.8-0.3-1.4-0.8-2-1.4l-0.6-0.6l1.6-2l0.9,1
		c0.3,0.4,0.7,0.7,1.2,0.9c0.5,0.2,0.9,0.3,1.4,0.3s1-0.1,1.5-0.2c0.5-0.2,0.9-0.4,1.3-0.8l1.3-1.1c0.4-0.3,0.7-0.7,0.9-1.2
		c0.2-0.4,0.4-0.9,0.5-1.3s0.1-0.9,0-1.3s-0.3-0.9-0.7-1.2c-0.5-0.6-1-0.9-1.6-1.1c-0.6-0.1-1.2-0.1-1.8,0s-1.3,0.3-1.9,0.6
		c-0.7,0.3-1.3,0.6-2,1c-0.7,0.3-1.4,0.6-2.1,0.9s-1.4,0.4-2.1,0.4s-1.4-0.1-2.1-0.4s-1.4-0.8-2.1-1.5c-0.6-0.6-1-1.3-1.2-2.1
		c-0.2-0.8-0.3-1.5-0.2-2.3c0.1-0.8,0.3-1.5,0.7-2.2s0.9-1.4,1.5-1.9l1.1-1c0.6-0.6,1.3-1,2.1-1.3c0.8-0.3,1.6-0.4,2.4-0.3
		c0.8,0,1.6,0.2,2.3,0.6c0.7,0.3,1.4,0.8,2,1.5l0.1,0.1l-1.6,2l-0.4-0.5c-0.3-0.4-0.7-0.7-1.2-0.9c-0.4-0.2-0.9-0.3-1.4-0.3
		s-0.9,0-1.4,0.2s-0.9,0.4-1.3,0.7l-1.1,1c-0.4,0.3-0.7,0.7-0.9,1.1c-0.2,0.4-0.4,0.8-0.4,1.3c-0.1,0.4,0,0.9,0.1,1.3
		s0.4,0.8,0.7,1.2c0.5,0.5,1,0.9,1.6,1s1.1,0.1,1.8,0c0.6-0.1,1.3-0.3,1.9-0.7c0.7-0.3,1.3-0.6,2-0.9s1.4-0.6,2.1-0.9
		s1.4-0.4,2.1-0.4c0.7,0,1.4,0.1,2.1,0.4C4.6,292.9,5.3,293.4,6,294.2z"/>
	<path class="st1" d="M19.1,291c-0.6,0.5-1.3,0.8-2,1s-1.4,0.2-2.1,0.1c-0.7-0.1-1.4-0.3-2-0.7c-0.6-0.4-1.2-0.9-1.7-1.5l-7.9-10.6
		l-3.1,2.3l-1.4-1.9l3.1-2.3l-3-4.1l1.8-1.9l3.3,4.4l4.3-3.2l1.4,1.9l-4.3,3.2l7.9,10.7c0.3,0.3,0.6,0.6,0.9,0.8
		c0.3,0.2,0.7,0.3,1.1,0.4s0.8,0,1.2-0.1s0.8-0.3,1.1-0.5l1.9-1.4l1.4,1.9L19.1,291z"/>
	<path class="st1" d="M34.2,277.3c0.1,0.8,0.1,1.6-0.1,2.4c-0.2,0.8-0.5,1.5-1,2.2s-1.1,1.2-1.8,1.7l-1.5,0.9
		c-0.7,0.4-1.5,0.7-2.3,0.8c-0.8,0.1-1.6,0.1-2.4-0.1s-1.5-0.5-2.2-1c-0.7-0.5-1.2-1.1-1.7-1.8l-5-8.2c-0.4-0.7-0.7-1.5-0.8-2.3
		c-0.1-0.8-0.1-1.6,0.1-2.4c0.2-0.8,0.5-1.5,1-2.2s1.1-1.2,1.8-1.7l1.5-0.9c0.7-0.4,1.5-0.7,2.3-0.8c0.8-0.1,1.6-0.1,2.4,0.1
		c0.8,0.2,1.5,0.5,2.2,1c0.7,0.5,1.2,1.1,1.7,1.8l2.6,4.3l-9.9,6l2.4,4c0.3,0.4,0.6,0.8,1,1.1c0.4,0.3,0.8,0.5,1.3,0.6
		s0.9,0.1,1.4,0.1c0.5-0.1,0.9-0.2,1.4-0.5l1.5-0.9c0.4-0.3,0.8-0.6,1.1-1c0.3-0.4,0.5-0.8,0.6-1.3s0.1-0.9,0.1-1.4
		c-0.1-0.5-0.2-0.9-0.5-1.4l-0.7-1.2l2.4-1l0.4,0.7C33.8,275.7,34.1,276.5,34.2,277.3z M26.2,268c-0.3-0.4-0.6-0.8-1-1.1
		c-0.4-0.3-0.8-0.5-1.3-0.6s-0.9-0.1-1.4-0.1c-0.5,0.1-0.9,0.2-1.4,0.5l-1.5,0.9c-0.4,0.3-0.8,0.6-1.1,1s-0.5,0.8-0.6,1.3
		c-0.1,0.5-0.1,0.9-0.1,1.4c0.1,0.5,0.2,0.9,0.5,1.4l1.6,2.7l7.8-4.7L26.2,268z"/>
	<path class="st1" d="M60.5,268.8l-6.2-14.3c-0.2-0.5-0.5-0.9-0.8-1.2s-0.8-0.6-1.2-0.8s-0.9-0.3-1.4-0.3s-1,0.1-1.4,0.3l-1.2,0.5
		c-0.5,0.2-0.9,0.5-1.2,0.8c-0.3,0.4-0.6,0.8-0.8,1.2s-0.3,0.9-0.3,1.4c0,0.5,0.1,1,0.3,1.4l6.2,14.3l-2.3,1L44,258.8
		c-0.2-0.5-0.5-0.9-0.8-1.2c-0.4-0.3-0.8-0.6-1.2-0.8c-0.4-0.2-0.9-0.3-1.4-0.3s-1,0.1-1.4,0.3l-1.2,0.5c-0.5,0.2-0.9,0.5-1.2,0.8
		c-0.3,0.4-0.6,0.8-0.8,1.2c-0.2,0.4-0.3,0.9-0.3,1.4s0.1,1,0.3,1.4l6.2,14.3l-2.3,1l-8.4-19.5l0.8-0.3l2.1,1.4
		c0.2-1,0.6-1.8,1.3-2.6c0.6-0.8,1.4-1.4,2.4-1.8l0.2-0.1c1.1-0.5,2.2-0.6,3.3-0.5c1.1,0.2,2.1,0.6,3,1.3c0-0.5,0.2-1.1,0.4-1.6
		s0.5-1,0.8-1.5c0.3-0.4,0.7-0.9,1.1-1.2s0.9-0.7,1.5-0.9l0.2-0.1c0.8-0.3,1.6-0.5,2.4-0.5s1.6,0.1,2.4,0.4c0.7,0.3,1.4,0.7,2,1.3
		s1.1,1.2,1.4,2l6.1,14.1L60.5,268.8z"/>
	<path class="st1" d="M79.7,263.3l-1.9-1.7c-0.4,0.9-0.9,1.7-1.6,2.3c-0.7,0.7-1.6,1.2-2.6,1.4l-0.6,0.2c-0.8,0.2-1.6,0.3-2.5,0.2
		c-0.8-0.1-1.6-0.4-2.3-0.8c-0.7-0.4-1.3-0.9-1.8-1.6c-0.5-0.6-0.9-1.4-1.1-2.2l-0.1-0.2c-0.2-0.8-0.3-1.6-0.2-2.5
		c0.1-0.8,0.4-1.6,0.8-2.3c0.4-0.7,0.9-1.3,1.6-1.8c0.6-0.5,1.4-0.9,2.2-1.1l5.2-1.4l-0.9-3.2c-0.1-0.5-0.4-0.9-0.7-1.3
		c-0.3-0.4-0.7-0.7-1.1-0.9c-0.4-0.2-0.9-0.4-1.3-0.4c-0.5-0.1-1,0-1.5,0.1l-1.4,0.4c-0.5,0.1-0.9,0.4-1.3,0.7
		c-0.4,0.3-0.7,0.7-0.9,1.1c-0.2,0.4-0.4,0.9-0.4,1.3c-0.1,0.5,0,1,0.1,1.5l0.2,0.7l-2.6,0.3l-0.1-0.2c-0.2-0.8-0.3-1.6-0.2-2.5
		c0.1-0.8,0.4-1.6,0.8-2.3s0.9-1.3,1.6-1.8s1.4-0.9,2.2-1.1l1.4-0.4c0.8-0.2,1.6-0.3,2.5-0.2c0.8,0.1,1.6,0.4,2.3,0.8
		c0.7,0.4,1.3,0.9,1.8,1.6c0.5,0.6,0.9,1.4,1.1,2.2l4.1,14.8L79.7,263.3z M75.3,253.8l-5.2,1.4c-0.5,0.1-0.9,0.4-1.3,0.7
		c-0.4,0.3-0.7,0.7-0.9,1.1s-0.4,0.9-0.4,1.3c-0.1,0.5,0,1,0.1,1.5l0.2,0.9c0.1,0.5,0.4,0.9,0.7,1.3s0.7,0.7,1.1,0.9
		c0.4,0.2,0.9,0.4,1.3,0.4c0.4,0,1,0,1.5-0.1l1.6-0.5c0.5-0.1,0.9-0.4,1.3-0.7c0.4-0.3,0.7-0.7,0.9-1.1c0.2-0.4,0.4-0.9,0.4-1.3
		c0.1-0.5,0-1-0.1-1.5L75.3,253.8z"/>
	<path class="st1" d="M98.3,254.4c0.1,0.8,0.1,1.6-0.1,2.4s-0.6,1.4-1.1,2s-1.1,1.1-1.8,1.5s-1.5,0.7-2.4,0.8l-1.7,0.3
		c-0.8,0.1-1.7,0.1-2.5-0.1s-1.6-0.5-2.2-1c-0.7-0.5-1.2-1-1.7-1.7s-0.8-1.5-0.9-2.3l-0.1-0.8l2.4-0.8l0.2,1.4
		c0.1,0.5,0.3,1,0.5,1.4c0.3,0.4,0.6,0.7,1,1s0.9,0.5,1.4,0.6s1,0.1,1.5,0l1.7-0.3c0.5-0.1,1-0.2,1.4-0.5c0.4-0.2,0.8-0.5,1.1-0.8
		c0.3-0.3,0.5-0.7,0.7-1.2c0.1-0.4,0.2-0.9,0.1-1.4c-0.1-0.7-0.4-1.3-0.8-1.8c-0.4-0.4-0.9-0.8-1.5-1s-1.2-0.4-2-0.5
		c-0.7-0.1-1.5-0.2-2.2-0.3c-0.8-0.1-1.5-0.2-2.2-0.4s-1.4-0.4-2-0.8c-0.6-0.4-1.1-0.8-1.6-1.5c-0.4-0.6-0.7-1.4-0.9-2.4
		c-0.1-0.8-0.1-1.6,0.1-2.4s0.6-1.4,1-2c0.5-0.6,1.1-1.1,1.8-1.5c0.7-0.4,1.5-0.7,2.3-0.8l1.5-0.2c0.8-0.1,1.7-0.1,2.5,0.1
		c0.8,0.2,1.5,0.5,2.2,1s1.2,1.1,1.6,1.7c0.4,0.7,0.7,1.5,0.9,2.3v0.1l-2.4,0.8l-0.1-0.6c-0.1-0.5-0.3-1-0.5-1.4
		c-0.3-0.4-0.6-0.8-1-1c-0.4-0.3-0.8-0.5-1.3-0.6s-1-0.1-1.5-0.1l-1.5,0.2c-0.5,0.1-1,0.2-1.4,0.5s-0.8,0.5-1.1,0.8
		c-0.3,0.3-0.5,0.7-0.6,1.1c-0.1,0.4-0.1,0.9-0.1,1.4c0.1,0.7,0.4,1.3,0.8,1.7s0.9,0.7,1.5,0.9s1.2,0.4,2,0.5
		c0.7,0.1,1.5,0.2,2.2,0.3c0.8,0.1,1.5,0.2,2.2,0.4s1.4,0.4,2,0.8c0.6,0.4,1.1,0.9,1.6,1.5C97.8,252.6,98.1,253.4,98.3,254.4z"/>
	<path class="st1" d="M125.9,258.6l-1.4-2.1c-0.6,0.8-1.3,1.4-2.1,1.9c-0.9,0.5-1.8,0.7-2.8,0.7H119c-0.9,0-1.7-0.1-2.4-0.4
		s-1.4-0.7-2-1.3c-0.6-0.6-1-1.2-1.4-2c-0.3-0.8-0.5-1.6-0.5-2.4l-0.2-9.6c0-0.9,0.1-1.7,0.4-2.4c0.3-0.8,0.7-1.4,1.3-2
		c0.6-0.6,1.2-1,2-1.4c0.8-0.3,1.6-0.5,2.4-0.5h0.6c1,0,1.8,0.2,2.7,0.5c0.8,0.4,1.5,0.9,2.1,1.6l-0.2-10.3h2.5l0.5,29.7
		L125.9,258.6z M124,243.1c0-0.5-0.1-1-0.3-1.4c-0.2-0.4-0.5-0.8-0.8-1.2c-0.3-0.3-0.7-0.6-1.2-0.8s-0.9-0.3-1.4-0.3h-1.7
		c-0.5,0-1,0.1-1.4,0.3s-0.8,0.5-1.2,0.8c-0.3,0.3-0.6,0.7-0.8,1.2c-0.2,0.5-0.3,0.9-0.3,1.4l0.2,9.9c0,0.5,0.1,1,0.3,1.4
		c0.2,0.4,0.5,0.8,0.8,1.2c0.3,0.3,0.7,0.6,1.2,0.8c0.5,0.2,0.9,0.3,1.4,0.3h1.7c0.5,0,1-0.1,1.4-0.3c0.4-0.2,0.8-0.5,1.2-0.8
		s0.6-0.7,0.8-1.2c0.2-0.5,0.3-0.9,0.3-1.4L124,243.1z"/>
	<path class="st1" d="M145.1,256.9c-0.4,0.7-0.9,1.3-1.5,1.8s-1.3,0.9-2.1,1.1s-1.6,0.3-2.5,0.2l-1.7-0.2c-0.9-0.1-1.6-0.3-2.4-0.7
		c-0.7-0.4-1.3-0.9-1.8-1.5s-0.9-1.3-1.1-2.1c-0.2-0.8-0.3-1.6-0.2-2.5l1-9.5c0.1-0.9,0.3-1.6,0.7-2.4c0.4-0.7,0.9-1.3,1.5-1.8
		s1.3-0.9,2.1-1.1c0.8-0.2,1.6-0.3,2.5-0.2l1.7,0.2c0.9,0.1,1.6,0.3,2.4,0.7c0.7,0.4,1.3,0.9,1.8,1.5s0.9,1.3,1.1,2.1
		c0.2,0.8,0.3,1.6,0.2,2.5l-0.5,5l-11.6-1.2l-0.5,4.7c-0.1,0.5,0,1,0.1,1.5s0.4,0.9,0.7,1.2c0.3,0.4,0.7,0.7,1.1,0.9
		c0.4,0.2,0.9,0.4,1.4,0.4l1.7,0.2c0.5,0.1,1,0,1.5-0.1s0.9-0.4,1.2-0.7c0.4-0.3,0.7-0.7,0.9-1.1c0.2-0.4,0.4-0.9,0.4-1.4l0.1-1.4
		l2.5,0.7l-0.1,0.8C145.7,255.4,145.5,256.2,145.1,256.9z M144.3,244.7c0.1-0.5,0-1-0.1-1.5s-0.4-0.9-0.7-1.2s-0.7-0.7-1.1-0.9
		s-0.9-0.4-1.4-0.4l-1.7-0.2c-0.5-0.1-1,0-1.5,0.1s-0.9,0.4-1.2,0.7c-0.4,0.3-0.7,0.7-0.9,1.1c-0.2,0.4-0.4,0.9-0.4,1.4l-0.3,3.1
		l9,0.9L144.3,244.7z"/>
	<path class="st1" d="M172,259.4l-9-2.5l-3.7,6.2l-2.7-0.7l16.2-26.4l1.4,0.4l0.6,31l-2.7-0.7L172,259.4z M164.3,254.6l7.7,2.1
		l-0.2-14.2l0.2-1.1l-0.4,1L164.3,254.6z"/>
	<path class="st1" d="M189.3,252.8c-0.5-0.2-1-0.3-1.5-0.2s-0.9,0.1-1.4,0.3c-0.4,0.2-0.8,0.5-1.1,0.8c-0.3,0.4-0.6,0.8-0.8,1.2
		l-5.3,14.2l-2.4-0.9l7.4-19.9l0.8,0.3l0.5,2.5c0.8-0.5,1.7-0.9,2.7-1s2,0,2.9,0.3l1.4,0.5l-1,2.7L189.3,252.8z"/>
	<path class="st1" d="M201.6,275.1c-0.6,0.5-1.3,1-2.1,1.2c-0.8,0.3-1.5,0.4-2.4,0.4s-1.6-0.2-2.4-0.6l-1.5-0.7
		c-0.8-0.4-1.4-0.9-2-1.5c-0.5-0.6-1-1.3-1.2-2.1c-0.3-0.8-0.4-1.5-0.4-2.4c0-0.8,0.2-1.6,0.6-2.4l4.1-8.6c0.4-0.8,0.9-1.4,1.5-2
		c0.6-0.5,1.3-1,2.1-1.2s1.5-0.4,2.4-0.4c0.8,0,1.6,0.2,2.4,0.6l1.5,0.7c0.8,0.4,1.4,0.9,2,1.5s1,1.3,1.2,2.1
		c0.3,0.8,0.4,1.5,0.4,2.4c0,0.8-0.2,1.6-0.6,2.4l-0.4,0.8l-2.5-0.7l0.6-1.3c0.2-0.5,0.3-0.9,0.4-1.4c0-0.5-0.1-1-0.2-1.4
		c-0.2-0.4-0.4-0.8-0.7-1.2c-0.3-0.4-0.7-0.7-1.2-0.9l-1.5-0.7c-0.5-0.2-0.9-0.3-1.4-0.4c-0.5,0-1,0.1-1.4,0.2
		c-0.4,0.2-0.8,0.4-1.2,0.7c-0.4,0.3-0.7,0.7-0.9,1.2l-4.2,8.9c-0.2,0.5-0.3,0.9-0.4,1.4c0,0.5,0.1,1,0.2,1.4
		c0.2,0.4,0.4,0.8,0.7,1.2s0.7,0.7,1.2,0.9l1.5,0.7c0.5,0.2,0.9,0.3,1.4,0.4s1-0.1,1.4-0.2c0.4-0.2,0.8-0.4,1.2-0.7
		c0.4-0.3,0.7-0.7,0.9-1.2l0.6-1.3l2.1,1.5l-0.4,0.8C202.7,273.9,202.2,274.6,201.6,275.1z"/>
	<path class="st1" d="M214.2,286.6l8.1-13.2c0.3-0.4,0.4-0.9,0.5-1.4s0.1-1-0.1-1.4c-0.1-0.5-0.3-0.9-0.6-1.3s-0.6-0.7-1.1-1
		l-1.4-0.9c-0.4-0.3-0.9-0.4-1.4-0.5s-1-0.1-1.4,0.1s-0.9,0.3-1.3,0.6c-0.4,0.3-0.7,0.6-1,1.1l-8.1,13.2l-2.2-1.3l15.6-25.3l2.2,1.3
		l-5.4,8.8c0.9-0.3,1.7-0.4,2.6-0.3s1.8,0.4,2.6,0.9l0.5,0.3c0.7,0.4,1.3,1,1.8,1.7s0.8,1.4,1,2.2c0.2,0.8,0.2,1.6,0.1,2.4
		c-0.1,0.8-0.4,1.6-0.9,2.3l-8.1,13.1L214.2,286.6z"/>
	<path class="st1" d="M220.8,291.1l12.5-17.1l2.1,1.5l-12.5,17.1L220.8,291.1z M236.1,269.7l2-2.7l2.4,1.7l-2,2.7L236.1,269.7z"/>
	<path class="st1" d="M232.3,300.1l-1-0.8l8-21l1.9,1.6l-6.2,15.8l-0.6,0.9l0.8-0.8l14.6-8.7l1.9,1.6L232.3,300.1z"/>
	<path class="st1" d="M251.5,314c-0.8,0.3-1.6,0.4-2.4,0.4s-1.6-0.2-2.3-0.5c-0.8-0.3-1.4-0.8-2-1.4l-1.2-1.2
		c-0.6-0.6-1-1.3-1.3-2.1c-0.3-0.8-0.4-1.6-0.4-2.4s0.2-1.6,0.5-2.3c0.3-0.8,0.8-1.4,1.4-2l6.9-6.6c0.6-0.6,1.3-1,2.1-1.3
		s1.6-0.4,2.4-0.4c0.8,0,1.6,0.2,2.3,0.5c0.8,0.3,1.4,0.8,2,1.4l1.2,1.2c0.6,0.6,1,1.3,1.3,2.1c0.3,0.8,0.4,1.6,0.4,2.4
		s-0.2,1.6-0.5,2.3s-0.8,1.4-1.4,2l-6.9,6.6C253,313.3,252.3,313.7,251.5,314z M258.8,304.1c0.4-0.4,0.6-0.8,0.8-1.2
		s0.3-0.9,0.3-1.4s-0.1-0.9-0.2-1.4c-0.2-0.5-0.4-0.9-0.8-1.2l-1.2-1.2c-0.4-0.4-0.8-0.6-1.2-0.8c-0.5-0.2-0.9-0.3-1.4-0.3
		s-0.9,0.1-1.4,0.2s-0.9,0.4-1.2,0.8l-7.1,6.8c-0.4,0.4-0.6,0.8-0.8,1.2c-0.2,0.5-0.3,0.9-0.3,1.4s0.1,0.9,0.2,1.4
		c0.2,0.5,0.4,0.9,0.8,1.2l1.2,1.2c0.4,0.4,0.8,0.6,1.2,0.8c0.5,0.2,0.9,0.3,1.4,0.3s0.9-0.1,1.4-0.2c0.5-0.2,0.9-0.4,1.2-0.8
		L258.8,304.1z"/>
	<path class="st1" d="M265.5,328.2c-0.7,0.5-1.4,0.9-2.2,1c-0.8,0.2-1.5,0.2-2.3,0s-1.5-0.5-2.2-0.9c-0.7-0.4-1.3-1-1.8-1.7l-1-1.3
		c-0.5-0.7-0.9-1.4-1.1-2.2c-0.2-0.8-0.3-1.6-0.2-2.4s0.3-1.6,0.7-2.3s0.9-1.4,1.6-1.9l0.7-0.5l1.9,1.8l-1.1,0.9
		c-0.4,0.3-0.7,0.7-0.9,1.1c-0.2,0.4-0.4,0.9-0.4,1.4s0,1,0.1,1.5c0.1,0.5,0.4,0.9,0.7,1.3l1,1.3c0.3,0.4,0.7,0.7,1.1,1
		s0.8,0.5,1.3,0.6s0.9,0.1,1.3,0.1c0.4-0.1,0.9-0.3,1.3-0.6c0.6-0.5,1-1,1.2-1.5c0.2-0.6,0.2-1.2,0.1-1.8s-0.2-1.3-0.5-2
		s-0.5-1.4-0.8-2.1c-0.3-0.7-0.5-1.4-0.7-2.1s-0.3-1.4-0.3-2.1s0.2-1.4,0.5-2.1c0.3-0.7,0.9-1.3,1.7-1.9c0.7-0.5,1.4-0.9,2.2-1
		c0.8-0.2,1.5-0.2,2.3-0.1s1.5,0.4,2.2,0.8s1.3,1,1.8,1.6l0.9,1.2c0.5,0.7,0.9,1.4,1.1,2.2s0.3,1.6,0.2,2.4
		c-0.1,0.8-0.4,1.6-0.8,2.3c-0.4,0.7-0.9,1.3-1.6,1.9l-0.1,0.1l-1.9-1.8l0.5-0.4c0.4-0.3,0.7-0.7,1-1.1c0.2-0.4,0.4-0.9,0.4-1.3
		c0.1-0.5,0-0.9-0.1-1.4s-0.3-0.9-0.7-1.3l-0.9-1.2c-0.3-0.4-0.7-0.7-1.1-1s-0.8-0.4-1.2-0.5c-0.4-0.1-0.9-0.1-1.3,0
		s-0.9,0.3-1.3,0.6c-0.6,0.4-0.9,0.9-1.1,1.5c-0.2,0.5-0.2,1.1-0.1,1.8c0.1,0.6,0.3,1.3,0.5,2c0.2,0.7,0.5,1.4,0.8,2.1
		s0.5,1.4,0.7,2.2c0.2,0.7,0.3,1.4,0.3,2.2s-0.2,1.4-0.5,2.1C266.8,327,266.3,327.6,265.5,328.2z"/>
</g>
<g>
	<path class="st1" d="M-36.6,467.1l-10.7,2.8l2.9,11l-2.5,0.7l-2.9-11l-13.1,3.5l-0.7-2.6l28.7-7.7l4.3,16.2l-2.5,0.7L-36.6,467.1z"
		/>
	<path class="st1" d="M-47,500.2l-3.4-8.8l-7.2,0.7l-1-2.6l30.8-2.7l0.5,1.3l-24.5,19l-1-2.6L-47,500.2z M-47.8,491.2l2.9,7.4
		l11.3-8.6l1-0.5l-1.1,0.3L-47.8,491.2z"/>
	<path class="st1" d="M-22.4,504.7l-24.1,12.5l-1.2-2.4l24.1-12.5l-3.3-6.3l2.3-1.2l7.7,15l-2.3,1.2L-22.4,504.7z"/>
	<path class="st1" d="M-18.8,556.7l10.3-8.9l-7.4-8.6l-10.3,8.9l-1.7-2l22.5-19.4l1.7,2l-10.3,8.9l7.4,8.6l10.3-8.9l1.7,2
		l-22.5,19.4L-18.8,556.7z"/>
	<path class="st1" d="M11.7,563.9c-0.9,0.4-1.8,0.6-2.7,0.7c-0.9,0.1-1.9-0.1-2.8-0.4c-0.9-0.3-1.8-0.8-2.5-1.5l-5-4.5l-7.6,8.5
		l-2-1.8l19.8-22.1l7,6.3c0.8,0.7,1.3,1.4,1.7,2.3c0.4,0.9,0.6,1.8,0.7,2.7s-0.1,1.9-0.4,2.8c-0.3,0.9-0.8,1.8-1.5,2.5l-2.4,2.7
		C13.3,562.9,12.5,563.5,11.7,563.9z M14.5,557.6c0.4-0.5,0.8-1,1-1.6s0.3-1.2,0.2-1.8s-0.2-1.2-0.4-1.8c-0.2-0.6-0.6-1.1-1.1-1.5
		l-4.9-4.4l-8.8,9.8l4.9,4.4c0.5,0.4,1,0.8,1.6,1s1.2,0.3,1.8,0.3c0.6,0,1.2-0.2,1.8-0.4c0.6-0.2,1.1-0.6,1.5-1.1L14.5,557.6z"/>
	<path class="st1" d="M24.7,559.5l-6.3,9.1l9.3,6.5l-1.5,2.1l-9.2-6.5l-7.7,11.1l-2.2-1.5L24,555.9l13.7,9.5l-1.5,2.1L24.7,559.5z"
		/>
	<path class="st1" d="M43.7,594.3c-0.5,0.9-1.1,1.6-1.9,2.2c-0.8,0.6-1.6,1-2.5,1.3c-0.9,0.3-1.9,0.4-2.8,0.3
		c-1-0.1-1.9-0.4-2.8-0.8l-1.9-1c-0.9-0.5-1.7-1.1-2.3-1.8c-0.6-0.8-1.1-1.6-1.4-2.5s-0.4-1.8-0.4-2.8s0.3-1.9,0.8-2.8l0.5-1
		l2.6,0.9l-0.8,1.4c-0.3,0.6-0.5,1.2-0.5,1.8s0.1,1.2,0.3,1.8s0.5,1.1,0.9,1.6s0.9,0.9,1.5,1.2l1.7,0.9c0.6,0.3,1.2,0.5,1.8,0.5
		c0.6,0.1,1.3,0,1.9-0.2c0.6-0.2,1.2-0.5,1.7-0.8c0.5-0.4,0.9-0.9,1.2-1.5l0.4-0.8c0.5-0.9,0.7-1.8,0.6-2.5
		c-0.1-0.7-0.2-1.5-0.6-2.3s-0.8-1.4-1.4-2.1c-0.6-0.7-1.2-1.4-1.8-2.1c-0.6-0.7-1.2-1.4-1.8-2.2c-0.6-0.7-1-1.5-1.3-2.4
		c-0.3-0.9-0.4-1.7-0.4-2.7s0.4-2,1-3.1l0.3-0.5c0.5-0.9,1.1-1.6,1.8-2.3c0.7-0.6,1.6-1.1,2.5-1.3s1.8-0.4,2.8-0.3
		c1,0.1,1.9,0.3,2.8,0.8l1.7,0.9c0.9,0.5,1.6,1.1,2.3,1.8s1.1,1.6,1.3,2.5s0.4,1.8,0.3,2.8c-0.1,1-0.3,1.9-0.8,2.8l-0.4,0.7
		l-2.6-0.8l0.6-1.1c0.3-0.6,0.5-1.2,0.5-1.8s0-1.2-0.2-1.8s-0.5-1.1-0.9-1.6s-0.9-0.9-1.5-1.2l-1.5-0.8c-0.6-0.3-1.2-0.5-1.8-0.5
		s-1.2,0-1.8,0.2c-0.6,0.2-1.1,0.5-1.6,0.9s-0.9,0.9-1.2,1.5l-0.3,0.5c-0.4,0.8-0.6,1.6-0.6,2.4c0.1,0.8,0.3,1.5,0.6,2.2
		c0.3,0.7,0.9,1.4,1.4,2.1c0.6,0.7,1.2,1.4,1.8,2.1c0.6,0.7,1.2,1.5,1.7,2.2c0.5,0.8,1,1.6,1.3,2.4c0.3,0.9,0.4,1.8,0.4,2.7
		c-0.1,1-0.4,2-1,3.1L43.7,594.3z"/>
	<path class="st1" d="M82.5,614.2l-7-23.9l0.1-1.3l-5.4,22.3l-2.6-0.6l7-28.9l1.3,0.3l7,23.9v1.3l5.4-22.3l2.6,0.6l-7,28.9
		L82.5,614.2z"/>
	<path class="st1" d="M102.6,589.7l-3.1,27l-2.7-0.3l3.1-27l-7-0.8l0.3-2.5l16.7,1.9l-0.3,2.5L102.6,589.7z"/>
	<path class="st1" d="M115.3,590.5l-0.1,11l11.4,0.1v2.5l-11.4-0.1l-0.1,13.6h-2.7l0.3-29.7l16.7,0.2v2.5L115.3,590.5z"/>
	<path class="st1" d="M150.6,608.5c0.1,1,0,2-0.3,2.9s-0.7,1.8-1.3,2.5s-1.3,1.4-2.2,1.8c-0.9,0.5-1.8,0.8-2.8,0.9l-2.1,0.3
		c-1,0.1-2,0-2.9-0.2c-0.9-0.3-1.8-0.7-2.6-1.3c-0.8-0.6-1.4-1.3-1.9-2.1s-0.8-1.7-1-2.7l-0.1-1.2l2.6-0.8l0.2,1.6
		c0.1,0.7,0.3,1.3,0.6,1.8c0.3,0.5,0.8,1,1.3,1.4s1.1,0.7,1.7,0.8c0.6,0.2,1.3,0.2,1.9,0.1l1.8-0.2c0.7-0.1,1.3-0.3,1.8-0.6
		s1-0.7,1.4-1.2s0.7-1,0.9-1.6s0.3-1.2,0.2-1.9l-0.1-0.9c-0.1-1-0.4-1.8-0.9-2.5c-0.5-0.6-1.1-1.1-1.8-1.5s-1.5-0.7-2.4-0.9
		s-1.8-0.5-2.7-0.7c-0.9-0.2-1.8-0.5-2.7-0.8s-1.7-0.7-2.4-1.2c-0.7-0.5-1.3-1.2-1.8-2s-0.8-1.9-1-3.1l-0.1-0.6c-0.1-1,0-2,0.2-2.9
		c0.3-0.9,0.7-1.8,1.3-2.5s1.3-1.3,2.1-1.8c0.8-0.5,1.8-0.8,2.8-0.9l1.9-0.2c1-0.1,2,0,2.9,0.2s1.8,0.7,2.5,1.3s1.3,1.3,1.8,2.1
		s0.8,1.7,0.9,2.7l0.1,0.8l-2.6,0.8l-0.1-1.2c-0.1-0.7-0.3-1.3-0.6-1.8s-0.7-1-1.2-1.4s-1-0.6-1.6-0.8s-1.2-0.2-1.9-0.1l-1.6,0.2
		c-0.7,0.1-1.3,0.3-1.8,0.6s-1,0.7-1.4,1.2s-0.7,1-0.8,1.6c-0.2,0.6-0.2,1.2-0.1,1.9l0.1,0.6c0.1,0.9,0.4,1.7,0.9,2.3
		s1.1,1.1,1.8,1.5c0.7,0.4,1.5,0.7,2.4,0.9s1.8,0.5,2.7,0.7s1.8,0.5,2.7,0.8s1.7,0.7,2.4,1.3s1.4,1.2,1.9,2s0.8,1.9,1,3.1
		L150.6,608.5z"/>
	<path class="st1" d="M179.4,608.3l-10.5-27.8l15.6-5.9l0.9,2.4l-13.1,5l3.9,10.3l10.6-4l0.9,2.4l-10.6,4L181,605l13.1-5l0.9,2.4
		L179.4,608.3z"/>
	<path class="st1" d="M212.8,593.3l-11.2-8.1l0.3,13.8l-2.6,1.4l-0.4-17l-13-9.5l2.5-1.3l10.4,7.5l-0.3-12.8l2.5-1.3l0.4,16.1
		l13.8,10L212.8,593.3z"/>
	<path class="st1" d="M211.4,562.1l15.3,22.5l-2.2,1.5l-15.3-22.5l-5.9,4l-1.4-2.1l13.9-9.5l1.4,2.1L211.4,562.1z"/>
	<path class="st1" d="M245.8,564c0.3,0.9,0.4,1.8,0.3,2.8c-0.1,0.9-0.3,1.8-0.7,2.7s-1,1.6-1.8,2.3l-1,0.8c-0.8,0.7-1.6,1.1-2.5,1.4
		c-0.9,0.3-1.9,0.4-2.8,0.3c-0.9-0.1-1.8-0.3-2.7-0.7s-1.6-1-2.3-1.8l-0.5-0.6l1.7-2.1l0.8,0.9c0.4,0.5,0.9,0.9,1.5,1.2
		s1.2,0.4,1.8,0.5c0.6,0,1.2,0,1.8-0.2s1.1-0.5,1.6-0.9l0.8-0.7c0.5-0.4,0.9-0.9,1.2-1.5s0.4-1.2,0.5-1.8c0-0.6,0-1.2-0.2-1.8
		s-0.5-1.1-0.9-1.6l-1.6-1.9c-0.4-0.5-0.9-0.9-1.5-1.2s-1.1-0.4-1.8-0.5s-1.2,0-1.8,0.2s-1.1,0.5-1.6,0.9l-1.5,1.3l-1.7-1.9l1.5-1.3
		c0.5-0.4,0.9-0.9,1.2-1.5s0.4-1.1,0.5-1.8c0-0.6,0-1.2-0.2-1.8s-0.5-1.1-0.9-1.6l-0.9-1.1c-0.4-0.5-0.9-0.9-1.5-1.2
		s-1.1-0.4-1.8-0.5c-0.6,0-1.2,0-1.8,0.2s-1.1,0.5-1.6,0.9l-0.8,0.7c-0.5,0.4-0.9,0.9-1.2,1.5s-0.4,1.1-0.5,1.8c0,0.6,0,1.2,0.2,1.8
		s0.5,1.1,0.9,1.6l0.8,0.9l-2.3,1.4l-0.5-0.2c-0.7-0.8-1.1-1.6-1.4-2.5s-0.4-1.8-0.3-2.8c0.1-0.9,0.3-1.8,0.7-2.7s1-1.6,1.8-2.3
		l1-0.8c0.8-0.7,1.6-1.1,2.5-1.4c0.9-0.3,1.8-0.4,2.8-0.3c0.9,0.1,1.8,0.3,2.7,0.7s1.6,1,2.3,1.8l0.7,0.8c0.5,0.5,0.8,1.1,1.1,1.7
		c0.3,0.6,0.5,1.2,0.6,1.9s0.1,1.3,0.1,1.9c-0.1,0.6-0.2,1.3-0.4,1.9c0.6-0.2,1.3-0.2,1.9-0.2c0.6,0,1.3,0.1,1.9,0.3
		c0.6,0.2,1.2,0.5,1.8,0.8c0.6,0.4,1.1,0.8,1.5,1.3l1.3,1.5C245.1,562.3,245.5,563.1,245.8,564z"/>
	<path class="st1" d="M276.2,534.4l-13.6-2.2l6.5,12.2l-1.7,2.4l-8-15.1l-15.9-2.6l1.7-2.3l12.7,2.1l-6-11.3l1.7-2.3l7.6,14.2
		l16.8,2.8L276.2,534.4z"/>
	<path class="st1" d="M258.7,511.1l9.7,5.3l5.5-10l2.2,1.2l-5.5,10l11.9,6.5l-1.3,2.3l-26-14.3l8.1-14.6l2.2,1.2L258.7,511.1z"/>
	<path class="st1" d="M291.4,488.7c0.9,0.4,1.7,0.9,2.4,1.6c0.7,0.7,1.2,1.5,1.6,2.4s0.6,1.8,0.6,2.8s-0.2,1.9-0.5,2.9l-0.8,2
		c-0.4,0.9-0.9,1.8-1.6,2.5s-1.5,1.2-2.3,1.6c-0.9,0.4-1.8,0.6-2.8,0.7s-1.9-0.1-2.9-0.5l-1.1-0.4l0.6-2.6l1.5,0.6
		c0.6,0.2,1.2,0.3,1.9,0.3c0.6,0,1.2-0.2,1.8-0.5c0.6-0.3,1.1-0.6,1.5-1.1s0.8-1,1-1.6l0.7-1.7c0.2-0.6,0.4-1.2,0.4-1.9
		c0-0.6-0.1-1.3-0.4-1.8c-0.2-0.6-0.6-1.1-1-1.6s-1-0.8-1.6-1.1l-0.8-0.3c-1-0.4-1.8-0.5-2.6-0.4c-0.8,0.1-1.5,0.4-2.2,0.8
		s-1.3,1-2,1.6c-0.6,0.7-1.2,1.3-1.9,2c-0.6,0.7-1.3,1.4-2,2s-1.4,1.1-2.2,1.5c-0.8,0.4-1.7,0.6-2.6,0.7c-1,0.1-2-0.2-3.2-0.6
		l-0.5-0.2c-0.9-0.4-1.7-0.9-2.4-1.6c-0.7-0.7-1.2-1.5-1.6-2.3s-0.6-1.8-0.6-2.7s0.2-1.9,0.5-2.9l0.7-1.8c0.4-0.9,0.9-1.7,1.6-2.4
		c0.7-0.7,1.5-1.2,2.3-1.6c0.9-0.4,1.8-0.6,2.7-0.6c1,0,1.9,0.1,2.8,0.5l0.7,0.3l-0.6,2.6l-1.1-0.4c-0.6-0.2-1.2-0.4-1.9-0.3
		c-0.6,0-1.2,0.1-1.8,0.4c-0.6,0.2-1.1,0.6-1.5,1s-0.8,1-1,1.6l-0.6,1.5c-0.2,0.6-0.4,1.2-0.3,1.9c0,0.6,0.1,1.2,0.4,1.8
		c0.2,0.6,0.6,1.1,1,1.5s1,0.8,1.6,1l0.5,0.2c0.9,0.4,1.7,0.5,2.5,0.3c0.8-0.1,1.5-0.4,2.1-0.9s1.3-1,1.9-1.6c0.6-0.7,1.3-1.3,1.9-2
		c0.7-0.7,1.3-1.3,2-2s1.5-1.1,2.3-1.5s1.7-0.6,2.7-0.7c1,0,2,0.2,3.2,0.6L291.4,488.7z"/>
</g>
<path class="st2" d="M48.7,616.1L69.8,558c-27.7-9.9-51.5-27.9-68.7-51l-49.6,36.2c68.1,93.2,198.9,113.5,292.1,45.4
	c38.2-27.9,64.1-66.4,76.8-108.5c-0.1,0-0.2-0.1-0.3-0.1c-1.1,3.7-2.3,7.4-3.6,11C277.1,599.6,157.2,655.6,48.7,616.1z"/>
<path class="st2" d="M168,623l-14.3-60.4c-11,2.6-22.4,4-34.2,4c-17.4,0-34.2-3-49.7-8.6l-21.1,58.1
	c108.5,39.4,228.4-16.6,267.8-125.1c1.3-3.7,2.5-7.3,3.6-11c-0.1,0-0.2-0.1-0.2-0.1C299.1,548.9,243.1,605.2,168,623z"/>
<path class="st2" d="M223,524.1c-18.8,18.6-42.7,32.2-69.3,38.5L168,623c75.1-17.8,131-74.1,151.9-143.1c-0.1,0-0.1-0.1-0.2-0.1
	c-9.7,32.4-27.3,62.9-53,88.3L223,524.1z"/>
<path class="st2" d="M266.7,568.2c25.7-25.5,43.3-56,53-88.3c0,0,0,0,0,0c0,0.1-0.1,0.2-0.1,0.3l-59.2-17.8
	c-7.2,23.7-20.2,44.8-37.3,61.7L266.7,568.2z"/>
<path class="st2" d="M320.4,480.1c-12.6,42.1-38.6,80.5-76.8,108.5c-93.2,68.1-223.9,47.8-292.1-45.4L1.1,507
	c-13-17.5-22.1-37.9-26.3-60.2l-60,11c20.8,113.5,129.8,188.7,243.3,167.8c79.8-14.6,140.6-72.8,162.5-145.5
	C320.5,480.2,320.5,480.2,320.4,480.1z"/>
</svg>
