<?xml version="1.0" encoding="utf-8"?>
<!-- Generator: Adobe Illustrator 19.0.0, SVG Export Plug-In . SVG Version: 6.00 Build 0)  -->
<svg version="1.1" id="Capa_1" xmlns="http://www.w3.org/2000/svg" xmlns:xlink="http://www.w3.org/1999/xlink" x="0px" y="0px"
	 viewBox="-423 252 113 58" style="enable-background:new -423 252 113 58;" xml:space="preserve">
<style type="text/css">
	.st0{fill:#FFFFFF;}
	.st1{fill:#647BBC;}
</style>
<rect id="XMLID_368_" x="-423" y="252" class="st0" width="113" height="58"/>
<g>
	<g>
		<path class="st1" d="M-398.2,289.9v-19.3h14.3v3.3h-10.4v4.3h9.7v3.2h-9.7v5.2h10.8v3.2L-398.2,289.9L-398.2,289.9z"/>
		<path class="st1" d="M-382.2,289.9l6.6-10.1l-6-9.2h4.5l3.9,6.2l3.8-6.2h4.5l-6,9.4l6.6,9.9h-4.7l-4.3-6.7l-4.3,6.7L-382.2,289.9
			L-382.2,289.9z"/>
		<path class="st1" d="M-358,289.9v-16h-5.7v-3.3h15.3v3.3h-5.7v16H-358z"/>
		<path class="st1" d="M-346.8,284.8l3.6-0.4c0.1,0.9,0.4,1.6,0.9,2.1s1.1,0.7,1.8,0.7c0.8,0,1.4-0.3,1.9-0.9s0.8-1.4,0.8-2.3
			s-0.2-1.7-0.7-2.2s-1.1-0.8-1.8-0.8c-0.5,0-1,0.1-1.7,0.3l0.4-3c1,0,1.8-0.2,2.3-0.7s0.8-1.1,0.8-1.8c0-0.6-0.2-1.2-0.6-1.5
			c-0.4-0.4-0.9-0.6-1.5-0.6s-1.2,0.2-1.6,0.7c-0.4,0.4-0.7,1.1-0.8,1.9l-3.4-0.6c0.2-1.2,0.6-2.1,1.1-2.8s1.1-1.2,2-1.6
			s1.8-0.6,2.9-0.6c1.8,0,3.3,0.6,4.4,1.7c0.9,0.9,1.4,2,1.4,3.2c0,1.7-0.9,3-2.8,4c1.1,0.2,2,0.8,2.6,1.6s1,1.8,1,3
			c0,1.7-0.6,3.1-1.9,4.3s-2.8,1.8-4.6,1.8c-1.7,0-3.2-0.5-4.3-1.5S-346.6,286.4-346.8,284.8z"/>
	</g>
</g>
</svg>
