<?xml version="1.0" encoding="utf-8"?>
<!-- Generator: Adobe Illustrator 19.0.0, SVG Export Plug-In . SVG Version: 6.00 Build 0)  -->
<svg version="1.1" id="Capa_1" xmlns="http://www.w3.org/2000/svg" xmlns:xlink="http://www.w3.org/1999/xlink" x="0px" y="0px"
	 viewBox="-240 391.9 115 58" style="enable-background:new -240 391.9 115 58;" xml:space="preserve">
<style type="text/css">
	.st0{fill:#647BBC;}
	.st1{fill:#FFFFFF;}
</style>
<rect id="XMLID_369_" x="-240" y="391.9" class="st0" width="115" height="58"/>
<g>
	<g>
		<path class="st1" d="M-216.4,430.8v-19.3h3.9v7.6h7.6v-7.6h3.9v19.3h-3.9v-8.4h-7.6v8.4H-216.4z"/>
		<path class="st1" d="M-197,430.8v-19.3h6.2c2.4,0,3.9,0.1,4.6,0.3c1.1,0.3,2,0.9,2.8,1.9c0.7,1,1.1,2.2,1.1,3.8
			c0,1.2-0.2,2.2-0.6,3s-1,1.4-1.6,1.9c-0.7,0.5-1.3,0.8-2,0.9c-0.9,0.2-2.3,0.3-4,0.3h-2.5v7.3L-197,430.8L-197,430.8z
			 M-193.1,414.8v5.5h2.1c1.5,0,2.6-0.1,3.1-0.3c0.5-0.2,0.9-0.5,1.2-0.9c0.3-0.4,0.4-0.9,0.4-1.5c0-0.7-0.2-1.3-0.6-1.7
			c-0.4-0.5-0.9-0.7-1.6-0.9c-0.5-0.1-1.4-0.1-2.8-0.1L-193.1,414.8L-193.1,414.8z"/>
		<path class="st1" d="M-179,430.8v-19.3h13.2v3.3h-9.3v4.6h8v3.3h-8v8.2h-3.9V430.8z"/>
		<path class="st1" d="M-163.6,424.5l3.8-0.4c0.2,1.3,0.7,2.2,1.4,2.8c0.7,0.6,1.6,0.9,2.8,0.9c1.3,0,2.2-0.3,2.8-0.8
			c0.6-0.5,1-1.1,1-1.9c0-0.5-0.1-0.8-0.4-1.2c-0.3-0.3-0.7-0.6-1.4-0.8c-0.5-0.2-1.5-0.4-3.1-0.8c-2.1-0.5-3.5-1.2-4.4-1.9
			c-1.2-1.1-1.8-2.4-1.8-3.9c0-1,0.3-1.9,0.8-2.8c0.6-0.9,1.4-1.5,2.4-2c1-0.4,2.3-0.7,3.8-0.7c2.4,0,4.2,0.5,5.5,1.6
			c1.2,1.1,1.9,2.5,1.9,4.2l-3.9,0.2c-0.2-1-0.5-1.7-1.1-2.1c-0.5-0.4-1.4-0.7-2.5-0.7s-2,0.2-2.7,0.7c-0.4,0.3-0.6,0.7-0.6,1.2
			s0.2,0.8,0.6,1.2c0.5,0.4,1.7,0.8,3.6,1.3c1.9,0.4,3.3,0.9,4.2,1.4s1.6,1.1,2.1,2c0.5,0.8,0.8,1.9,0.8,3.1c0,1.1-0.3,2.1-0.9,3.1
			s-1.5,1.7-2.6,2.1s-2.5,0.7-4.2,0.7c-2.4,0-4.3-0.6-5.6-1.7C-162.6,428.3-163.3,426.7-163.6,424.5z"/>
	</g>
</g>
</svg>
