<?xml version="1.0" encoding="utf-8"?>
<!-- Generator: Adobe Illustrator 19.0.0, SVG Export Plug-In . SVG Version: 6.00 Build 0)  -->
<svg version="1.1" id="Capa_1" xmlns="http://www.w3.org/2000/svg" xmlns:xlink="http://www.w3.org/1999/xlink" x="0px" y="0px"
	 viewBox="-246 269.6 101.2 302.3" style="enable-background:new -246 269.6 101.2 302.3;" xml:space="preserve">
<style type="text/css">
	.st0{fill-rule:evenodd;clip-rule:evenodd;fill:#F2BF96;}
	.st1{fill-rule:evenodd;clip-rule:evenodd;fill:#FCD6B7;}
	.st2{fill-rule:evenodd;clip-rule:evenodd;fill:#FCD3A5;}
	.st3{fill-rule:evenodd;clip-rule:evenodd;fill:#FFFFFF;}
	.st4{fill-rule:evenodd;clip-rule:evenodd;fill:#E5A557;}
	.st5{fill-rule:evenodd;clip-rule:evenodd;fill:#FAB95D;}
</style>
<g id="XMLID_68_">
	<g id="XMLID_69_">
		<path id="XMLID_82_" class="st0" d="M-245.9,302L-245.9,302c0.5-5.1,5.2-9,10.3-8.3l48.5,6.8c5.1,0.7,8.9,5.2,8.3,10.3l0,0
			c-0.5,5.1-5.2,8.8-10.3,8.3l-48.5-6.8C-242.7,311.6-246.5,307.1-245.9,302z"/>
		<path id="XMLID_81_" class="st0" d="M-240.7,322.1L-240.7,322.1c-0.3-5.1,3.7-9.7,8.8-9.8l49-1c5.1-0.1,9.6,3.7,9.8,8.8l0,0
			c0.3,5.1-3.7,9.6-8.8,9.8l-49,1C-236,331.1-240.4,327.3-240.7,322.1z"/>
		<polygon id="XMLID_80_" class="st0" points="-179.2,380.7 -156.4,324.5 -191,290.4 -222.5,290.3 -208.7,367.6 		"/>
		<path id="XMLID_79_" class="st0" d="M-233.7,343L-233.7,343c-1.7-4.9,0.9-10.4,5.8-11.9l46.9-14.3c4.9-1.5,10.2,1,11.9,5.8l0,0
			c1.7,4.9-1,10.2-5.8,11.9l-46.9,14.3C-226.7,350.4-232,347.9-233.7,343z"/>
		<path id="XMLID_78_" class="st1" d="M-176.7,366c11.2,16-6.9,40.5-20.7,42.8s-26.6-11-31-30.2c-4.3-19.1,7.8-34.6,15.1-35.6
			C-205.9,342-187.9,350-176.7,366z"/>
		<path id="XMLID_77_" class="st1" d="M-181.6,390.4L-181.6,390.4c-5-1.1-9.3-6.4-7.2-11.1l25.4-57.2c2.1-4.7,6.1-8.3,11.1-7.2l0,0
			c5,1.1,8.3,6.1,7.2,11.1l-25.4,57.2C-172.5,388-176.5,391.5-181.6,390.4z"/>
		<path id="XMLID_76_" class="st2" d="M-187,285.7L-187,285.7c4-3.2,9.9-2.5,13.2,1.4l26.4,30.5c3.4,3.9,2.6,9.9-1.4,13.2l0,0
			c-4,3.2-9.9,2.6-13.2-1.4l-26.4-30.5C-191.8,294.9-191,288.9-187,285.7z"/>
		<path id="XMLID_75_" class="st2" d="M-239.3,278L-239.3,278c1.1-5,6.2-8.4,11.1-7.2l47.5,12c5,1.3,8.2,6.1,7.2,11.1l0,0
			c-1.1,5-6.1,8.2-11.1,7.1l-47.5-12C-237.1,287.9-240.4,283-239.3,278z"/>
		<path id="XMLID_74_" class="st1" d="M-173.6,316.9c-2.4,8.5-12.6,42.4-28.9,27.2c-16.4-15.2,0.7,39.9,0.7,39.9l32.9-15.8
			C-168.8,368.3-151.1,338.9-173.6,316.9z"/>
		<polygon id="XMLID_73_" class="st1" points="-169,369.9 -216.3,374.6 -217.8,403.9 -170.1,404.4 		"/>
		
			<rect id="XMLID_72_" x="-226.2" y="399" transform="matrix(0.9998 1.797625e-002 -1.797625e-002 0.9998 7.3104 3.5861)" class="st3" width="60.7" height="18.8"/>
		<polygon id="XMLID_71_" class="st4" points="-222.5,572.9 -232.4,417.2 -159.6,418.5 -149.2,564.6 		"/>
		<path id="XMLID_70_" class="st1" d="M-201.2,346.7c1.5,5.9-1.2,12-7,13.9l0,0c-5.7,1.9-12.4-1.1-13.9-7l-13.5-52.8
			c-1.5-5.8,1.2-12,7-13.9l0,0c5.7-1.9,12,1.2,13.9,7"/>
	</g>
</g>
<polygon id="XMLID_67_" class="st5" points="-185.9,568.8 -195.8,418.4 -159.6,418.5 -149.2,564.6 "/>
</svg>
