<?xml version="1.0" encoding="utf-8"?>
<!-- Generator: Adobe Illustrator 19.0.0, SVG Export Plug-In . SVG Version: 6.00 Build 0)  -->
<svg version="1.1" id="Capa_1" xmlns="http://www.w3.org/2000/svg" xmlns:xlink="http://www.w3.org/1999/xlink" x="0px" y="0px"
	 viewBox="0 0 128.7 128.7" style="enable-background:new 0 0 128.7 128.7;" xml:space="preserve">
<style type="text/css">
	.st0{opacity:0.66;fill:#757575;enable-background:new    ;}
	.st1{fill:#FDD835;}
	.st2{fill:#FFFFFF;}
</style>
<circle id="XMLID_313_" class="st0" cx="64.3" cy="64.3" r="64.3"/>
<circle id="XMLID_312_" class="st1" cx="64.3" cy="64.3" r="59.3"/>
<g id="XMLID_1_">
	<g id="XMLID_153_">
		<path id="XMLID_167_" class="st2" d="M32.4,74.8l-11-19.3l-0.2-1.1v20.4h-2.4V48.4H20l11,19.3l0.2,1.1V48.4h2.4v26.4H32.4z"/>
		<path id="XMLID_164_" class="st2" d="M50.5,74.8l-1.3-1.9c-0.5,0.7-1.2,1.3-1.9,1.7c-0.8,0.4-1.6,0.6-2.5,0.6h-0.6
			c-0.8,0-1.5-0.1-2.2-0.4c-0.7-0.3-1.3-0.7-1.8-1.2c-0.5-0.5-0.9-1.1-1.2-1.8c-0.3-0.7-0.4-1.4-0.4-2.2V55.9h2.3v13.8
			c0,0.5,0.1,0.9,0.3,1.3c0.2,0.4,0.4,0.7,0.7,1s0.6,0.5,1,0.7c0.4,0.2,0.8,0.3,1.3,0.3h1.5c0.5,0,0.9-0.1,1.3-0.3
			c0.4-0.2,0.7-0.4,1-0.7s0.5-0.6,0.7-1c0.2-0.4,0.3-0.8,0.3-1.3V55.9h2.3v18.9H50.5z M44.7,52.9H43l3-4.5h3.8L44.7,52.9z"/>
		<path id="XMLID_162_" class="st2" d="M67.9,71.8c-0.3,0.7-0.7,1.3-1.2,1.8c-0.5,0.5-1.1,0.9-1.8,1.2c-0.7,0.3-1.4,0.4-2.2,0.4
			h-1.5c-0.8,0-1.5-0.1-2.2-0.4c-0.7-0.3-1.3-0.7-1.8-1.2c-0.5-0.5-0.9-1.1-1.2-1.8c-0.3-0.7-0.4-1.4-0.4-2.2v-8.5
			c0-0.8,0.1-1.5,0.4-2.2c0.3-0.7,0.7-1.3,1.2-1.8c0.5-0.5,1.1-0.9,1.8-1.2c0.7-0.3,1.4-0.4,2.2-0.4h1.5c0.8,0,1.5,0.1,2.2,0.4
			c0.7,0.3,1.3,0.7,1.8,1.2c0.5,0.5,0.9,1.1,1.2,1.8c0.3,0.7,0.4,1.4,0.4,2.2v0.8l-2.3,0.4V61c0-0.5-0.1-0.9-0.3-1.3
			c-0.2-0.4-0.4-0.7-0.7-1c-0.3-0.3-0.6-0.5-1-0.7c-0.4-0.2-0.8-0.3-1.3-0.3h-1.5c-0.5,0-0.9,0.1-1.3,0.3s-0.7,0.4-1,0.7
			c-0.3,0.3-0.5,0.6-0.7,1C58.1,60.1,58,60.5,58,61v8.8c0,0.5,0.1,0.9,0.3,1.3c0.2,0.4,0.4,0.7,0.7,1s0.6,0.5,1,0.7
			c0.4,0.2,0.8,0.3,1.3,0.3h1.5c0.5,0,0.9-0.1,1.3-0.3c0.4-0.2,0.7-0.4,1-0.7s0.5-0.6,0.7-1c0.2-0.4,0.3-0.8,0.3-1.3v-1.3l2.3,0.4
			v0.8C68.4,70.4,68.2,71.1,67.9,71.8z"/>
		<path id="XMLID_160_" class="st2" d="M73.3,74.8V48.4h2.3v26.4H73.3z"/>
		<path id="XMLID_157_" class="st2" d="M93,71.8c-0.3,0.7-0.7,1.3-1.2,1.8c-0.5,0.5-1.1,0.9-1.8,1.2c-0.7,0.3-1.4,0.4-2.2,0.4h-1.5
			c-0.8,0-1.5-0.1-2.2-0.4c-0.7-0.3-1.3-0.7-1.8-1.2c-0.5-0.5-0.9-1.1-1.2-1.8c-0.3-0.7-0.4-1.4-0.4-2.2v-8.5c0-0.8,0.1-1.5,0.4-2.2
			c0.3-0.7,0.7-1.3,1.2-1.8c0.5-0.5,1.1-0.9,1.8-1.2c0.7-0.3,1.4-0.4,2.2-0.4h1.5c0.8,0,1.5,0.1,2.2,0.4c0.7,0.3,1.3,0.7,1.8,1.2
			c0.5,0.5,0.9,1.1,1.2,1.8c0.3,0.7,0.4,1.4,0.4,2.2v4.4H83.1v4.2c0,0.5,0.1,0.9,0.3,1.3c0.2,0.4,0.4,0.7,0.7,1s0.6,0.5,1,0.7
			c0.4,0.2,0.8,0.3,1.3,0.3h1.5c0.5,0,0.9-0.1,1.3-0.3c0.4-0.2,0.7-0.4,1-0.7s0.5-0.6,0.7-1c0.2-0.4,0.3-0.8,0.3-1.3v-1.3l2.3,0.4
			v0.8C93.5,70.4,93.3,71.1,93,71.8z M91.2,61c0-0.5-0.1-0.9-0.3-1.3c-0.2-0.4-0.4-0.7-0.7-1c-0.3-0.3-0.6-0.5-1-0.7
			c-0.4-0.2-0.8-0.3-1.3-0.3h-1.5c-0.5,0-0.9,0.1-1.3,0.3s-0.7,0.4-1,0.7c-0.3,0.3-0.5,0.6-0.7,1c-0.2,0.4-0.3,0.8-0.3,1.3v2.8h8.1
			V61z"/>
		<path id="XMLID_154_" class="st2" d="M110.2,71.8c-0.3,0.7-0.7,1.3-1.2,1.8c-0.5,0.5-1.1,0.9-1.8,1.2c-0.7,0.3-1.4,0.4-2.2,0.4
			h-1.5c-0.8,0-1.5-0.1-2.2-0.4c-0.7-0.3-1.3-0.7-1.8-1.2c-0.5-0.5-0.9-1.1-1.2-1.8c-0.3-0.7-0.4-1.4-0.4-2.2v-8.5
			c0-0.8,0.1-1.5,0.4-2.2c0.3-0.7,0.7-1.3,1.2-1.8c0.5-0.5,1.1-0.9,1.8-1.2c0.7-0.3,1.4-0.4,2.2-0.4h1.5c0.8,0,1.5,0.1,2.2,0.4
			c0.7,0.3,1.3,0.7,1.8,1.2c0.5,0.5,0.9,1.1,1.2,1.8c0.3,0.7,0.4,1.4,0.4,2.2v8.5C110.6,70.4,110.5,71.1,110.2,71.8z M108.3,61
			c0-0.5-0.1-0.9-0.3-1.3c-0.2-0.4-0.4-0.7-0.7-1c-0.3-0.3-0.6-0.5-1-0.7c-0.4-0.2-0.8-0.3-1.3-0.3h-1.5c-0.5,0-0.9,0.1-1.3,0.3
			s-0.7,0.4-1,0.7c-0.3,0.3-0.5,0.6-0.7,1c-0.2,0.4-0.3,0.8-0.3,1.3v8.8c0,0.5,0.1,0.9,0.3,1.3c0.2,0.4,0.4,0.7,0.7,1s0.6,0.5,1,0.7
			c0.4,0.2,0.8,0.3,1.3,0.3h1.5c0.5,0,0.9-0.1,1.3-0.3c0.4-0.2,0.7-0.4,1-0.7s0.5-0.6,0.7-1c0.2-0.4,0.3-0.8,0.3-1.3V61z"/>
	</g>
</g>
<g id="XMLID_12_">
</g>
<g id="XMLID_15_">
</g>
<g id="XMLID_19_">
</g>
<g id="XMLID_20_">
</g>
<g id="XMLID_21_">
</g>
<g id="XMLID_22_">
</g>
<g id="XMLID_23_">
</g>
<g id="XMLID_24_">
</g>
<g id="XMLID_25_">
</g>
<g id="XMLID_26_">
</g>
<g id="XMLID_27_">
</g>
<g id="XMLID_28_">
</g>
<g id="XMLID_29_">
</g>
<g id="XMLID_30_">
</g>
<g id="XMLID_31_">
</g>
</svg>
