<?xml version="1.0" encoding="utf-8"?>
<!-- Generator: Adobe Illustrator 18.1.1, SVG Export Plug-In . SVG Version: 6.00 Build 0)  -->
<svg version="1.1" id="Layer_1" xmlns="http://www.w3.org/2000/svg" xmlns:xlink="http://www.w3.org/1999/xlink" x="0px" y="0px"
	 viewBox="0 0 612 792" enable-background="new 0 0 612 792" xml:space="preserve">
<rect x="142.5" y="298" fill="#C82030" width="326.9" height="74.8"/>
<rect x="142.5" y="393.8" fill="#58A051" stroke="#FFFFFF" stroke-miterlimit="10" width="468.3" height="74.8"/>
<rect x="1.1" y="489.9" fill="#8B173E" stroke="#FFFFFF" stroke-miterlimit="10" width="609.7" height="74.8"/>
<rect x="1.1" y="586.7" fill="#AC64A9" stroke="#FFFFFF" stroke-miterlimit="10" width="609.7" height="74.8"/>
<rect x="1.1" y="683.6" fill="#DECD56" stroke="#FFFFFF" stroke-miterlimit="10" width="609.7" height="74.8"/>
<polygon fill="#95BD3D" stroke="#FFFFFF" stroke-miterlimit="10" points="328.1,184.5 328.1,259.3 536.1,259.3 536.1,372.8 
	610.9,372.8 610.9,259.3 610.9,186.8 610.9,184.5 "/>
<polygon fill="#53BC7E" stroke="#FFFFFF" stroke-miterlimit="10" points="283.9,184.5 1.1,184.5 1.1,252.8 1.1,252.8 1.1,469.6 
	75.9,469.6 75.9,259.3 283.9,259.3 "/>
<rect x="1.1" y="33.6" fill="#F4951F" stroke="#FFFFFF" stroke-miterlimit="10" width="609.7" height="74.8"/>
<g>
	<path fill="#FFFFFF" d="M29.3,76.5l3.2-0.3c0.2,1.3,0.5,2.4,1.1,3.2c0.6,0.8,1.4,1.5,2.6,2c1.2,0.5,2.5,0.8,4,0.8
		c1.3,0,2.5-0.2,3.5-0.6c1-0.4,1.8-0.9,2.2-1.6c0.5-0.7,0.7-1.4,0.7-2.2c0-0.8-0.2-1.5-0.7-2.1c-0.5-0.6-1.3-1.1-2.3-1.5
		c-0.7-0.3-2.2-0.7-4.6-1.3c-2.4-0.6-4.1-1.1-5-1.6c-1.2-0.6-2.2-1.5-2.8-2.4c-0.6-1-0.9-2-0.9-3.2c0-1.3,0.4-2.5,1.1-3.7
		c0.7-1.1,1.8-2,3.3-2.6c1.4-0.6,3-0.9,4.8-0.9c1.9,0,3.6,0.3,5.1,0.9c1.5,0.6,2.6,1.5,3.4,2.7c0.8,1.2,1.2,2.6,1.3,4.1l-3.3,0.2
		c-0.2-1.6-0.8-2.9-1.8-3.7c-1-0.8-2.5-1.3-4.5-1.3c-2.1,0-3.6,0.4-4.5,1.1s-1.4,1.7-1.4,2.8c0,0.9,0.3,1.7,1,2.3
		c0.7,0.6,2.4,1.2,5.2,1.9c2.8,0.6,4.7,1.2,5.8,1.7c1.5,0.7,2.6,1.6,3.4,2.7c0.7,1.1,1.1,2.3,1.1,3.7c0,1.4-0.4,2.7-1.2,3.9
		c-0.8,1.2-1.9,2.2-3.4,2.9s-3.2,1-5,1c-2.4,0-4.3-0.3-5.9-1c-1.6-0.7-2.8-1.7-3.7-3.1C29.8,79.8,29.3,78.2,29.3,76.5z"/>
	<path fill="#FFFFFF" d="M54.1,92.1l-0.4-3c0.7,0.2,1.3,0.3,1.8,0.3c0.7,0,1.3-0.1,1.7-0.4c0.4-0.2,0.8-0.6,1-1
		c0.2-0.3,0.5-1.1,1-2.4c0.1-0.2,0.2-0.4,0.3-0.8L52.5,66h3.4l3.9,10.9c0.5,1.4,1,2.8,1.4,4.4c0.4-1.5,0.8-2.9,1.3-4.3l4-11h3.2
		l-7.2,19.1c-0.8,2.1-1.4,3.5-1.8,4.3c-0.6,1.1-1.2,1.8-2,2.3c-0.7,0.5-1.6,0.7-2.6,0.7C55.6,92.5,54.9,92.4,54.1,92.1z"/>
	<path fill="#FFFFFF" d="M71.1,79.2l3.2-0.5c0.2,1.3,0.7,2.2,1.5,2.9s1.9,1,3.4,1c1.5,0,2.6-0.3,3.3-0.9c0.7-0.6,1.1-1.3,1.1-2.1
		c0-0.7-0.3-1.3-0.9-1.7c-0.4-0.3-1.5-0.6-3.3-1.1c-2.3-0.6-4-1.1-4.9-1.5c-0.9-0.4-1.6-1-2.1-1.8s-0.7-1.6-0.7-2.5
		c0-0.8,0.2-1.6,0.6-2.3c0.4-0.7,0.9-1.3,1.6-1.8c0.5-0.4,1.2-0.7,2-0.9c0.9-0.3,1.8-0.4,2.8-0.4c1.5,0,2.8,0.2,3.9,0.6
		s1.9,1,2.5,1.7c0.5,0.7,0.9,1.7,1.1,2.9l-3.1,0.4c-0.1-1-0.6-1.7-1.2-2.3c-0.7-0.5-1.6-0.8-2.9-0.8c-1.5,0-2.5,0.2-3.1,0.7
		c-0.6,0.5-0.9,1.1-0.9,1.7c0,0.4,0.1,0.8,0.4,1.1c0.3,0.3,0.7,0.6,1.2,0.9c0.3,0.1,1.3,0.4,2.8,0.8c2.3,0.6,3.8,1.1,4.7,1.5
		c0.9,0.4,1.6,0.9,2.1,1.7c0.5,0.7,0.8,1.6,0.8,2.7c0,1.1-0.3,2.1-0.9,3c-0.6,0.9-1.5,1.7-2.7,2.2c-1.2,0.5-2.5,0.8-4,0.8
		c-2.4,0-4.3-0.5-5.6-1.5C72.3,82.7,71.5,81.2,71.1,79.2z"/>
	<path fill="#FFFFFF" d="M97.5,82l0.5,2.8c-0.9,0.2-1.7,0.3-2.4,0.3c-1.2,0-2.1-0.2-2.7-0.5c-0.6-0.4-1.1-0.8-1.3-1.4
		c-0.3-0.6-0.4-1.9-0.4-3.8V68.5h-2.3V66h2.3v-4.7l3.2-1.9V66h3.2v2.5h-3.2v11c0,0.9,0.1,1.5,0.2,1.8c0.1,0.3,0.3,0.5,0.5,0.6
		c0.3,0.2,0.6,0.2,1.1,0.2C96.5,82.1,97,82.1,97.5,82z"/>
	<path fill="#FFFFFF" d="M113.5,78.8l3.3,0.4c-0.5,1.9-1.5,3.4-2.9,4.5c-1.4,1.1-3.2,1.6-5.4,1.6c-2.8,0-4.9-0.8-6.6-2.5
		c-1.6-1.7-2.4-4.1-2.4-7.1c0-3.2,0.8-5.6,2.4-7.4c1.6-1.7,3.7-2.6,6.3-2.6c2.5,0,4.6,0.9,6.2,2.6c1.6,1.7,2.4,4.1,2.4,7.2
		c0,0.2,0,0.5,0,0.9h-14c0.1,2.1,0.7,3.7,1.8,4.8c1.1,1.1,2.4,1.6,3.9,1.6c1.2,0,2.2-0.3,3-0.9C112.4,81.1,113.1,80.1,113.5,78.8z
		 M103.1,73.6h10.5c-0.1-1.6-0.5-2.8-1.2-3.6c-1-1.2-2.3-1.8-4-1.8c-1.5,0-2.7,0.5-3.7,1.5C103.7,70.7,103.2,72,103.1,73.6z"/>
	<path fill="#FFFFFF" d="M120.9,84.8V66h2.9v2.6c0.6-0.9,1.4-1.7,2.4-2.2c1-0.6,2.1-0.8,3.4-0.8c1.4,0,2.5,0.3,3.4,0.9
		c0.9,0.6,1.5,1.4,1.9,2.4c1.5-2.2,3.4-3.3,5.8-3.3c1.9,0,3.3,0.5,4.3,1.6c1,1,1.5,2.6,1.5,4.8v12.9h-3.2V73c0-1.3-0.1-2.2-0.3-2.8
		c-0.2-0.6-0.6-1-1.1-1.4c-0.5-0.3-1.2-0.5-1.9-0.5c-1.3,0-2.4,0.4-3.3,1.3c-0.9,0.9-1.3,2.3-1.3,4.2v10.9H132V72.6
		c0-1.4-0.3-2.5-0.8-3.2s-1.4-1.1-2.6-1.1c-0.9,0-1.7,0.2-2.5,0.7c-0.8,0.5-1.3,1.2-1.7,2.1c-0.3,0.9-0.5,2.2-0.5,3.9v9.8
		L120.9,84.8L120.9,84.8z"/>
	<path fill="#FFFFFF" d="M180.1,75.7l3.4,0.9c-0.7,2.8-2,5-3.9,6.5c-1.9,1.5-4.2,2.2-6.9,2.2c-2.8,0-5.1-0.6-6.8-1.7
		c-1.8-1.1-3.1-2.8-4-5c-0.9-2.2-1.4-4.5-1.4-7c0-2.7,0.5-5.1,1.6-7.1c1-2,2.5-3.5,4.4-4.6s4-1.6,6.3-1.6c2.6,0,4.8,0.7,6.6,2
		c1.8,1.3,3,3.2,3.7,5.6l-3.4,0.8c-0.6-1.9-1.5-3.3-2.6-4.1c-1.1-0.9-2.6-1.3-4.3-1.3c-2,0-3.7,0.5-5,1.4s-2.3,2.2-2.8,3.9
		s-0.8,3.3-0.8,5c0,2.2,0.3,4.1,1,5.8c0.6,1.6,1.6,2.9,3,3.7s2.8,1.2,4.4,1.2c1.9,0,3.6-0.6,4.9-1.7
		C178.8,79.6,179.7,77.9,180.1,75.7z"/>
	<path fill="#FFFFFF" d="M199.7,82.5c-1.2,1-2.3,1.7-3.4,2.1s-2.3,0.6-3.5,0.6c-2.1,0-3.7-0.5-4.8-1.5c-1.1-1-1.7-2.3-1.7-3.9
		c0-0.9,0.2-1.8,0.6-2.5s1-1.4,1.6-1.8c0.7-0.5,1.4-0.8,2.3-1c0.6-0.2,1.6-0.3,2.8-0.5c2.6-0.3,4.5-0.7,5.7-1.1c0-0.4,0-0.7,0-0.8
		c0-1.3-0.3-2.2-0.9-2.7c-0.8-0.7-2-1.1-3.6-1.1c-1.5,0-2.6,0.3-3.3,0.8c-0.7,0.5-1.2,1.5-1.6,2.8l-3.1-0.4c0.3-1.3,0.8-2.4,1.4-3.2
		c0.6-0.8,1.6-1.5,2.8-1.9c1.2-0.4,2.7-0.7,4.3-0.7c1.6,0,2.9,0.2,3.9,0.6c1,0.4,1.7,0.9,2.2,1.4c0.5,0.6,0.8,1.3,1,2.2
		c0.1,0.5,0.2,1.5,0.2,2.9V77c0,3,0.1,4.8,0.2,5.6c0.1,0.8,0.4,1.5,0.8,2.3h-3.3C200,84.2,199.8,83.4,199.7,82.5z M199.4,75.4
		c-1.2,0.5-2.9,0.9-5.2,1.2c-1.3,0.2-2.2,0.4-2.8,0.6c-0.5,0.2-1,0.6-1.3,1c-0.3,0.5-0.4,1-0.4,1.5c0,0.9,0.3,1.6,1,2.1
		c0.6,0.6,1.6,0.9,2.8,0.9c1.2,0,2.3-0.3,3.3-0.8c1-0.5,1.7-1.3,2.1-2.2c0.3-0.7,0.5-1.8,0.5-3.2V75.4z"/>
	<path fill="#FFFFFF" d="M207.5,84.8v-26h3.2v26H207.5z"/>
	<path fill="#FFFFFF" d="M215.6,84.8v-26h3.2v26H215.6z"/>
	<path fill="#FFFFFF" d="M246.1,82.5c-1.2,1-2.3,1.7-3.4,2.1s-2.3,0.6-3.5,0.6c-2.1,0-3.7-0.5-4.8-1.5c-1.1-1-1.7-2.3-1.7-3.9
		c0-0.9,0.2-1.8,0.6-2.5c0.4-0.8,1-1.4,1.6-1.8c0.7-0.5,1.4-0.8,2.3-1c0.6-0.2,1.6-0.3,2.8-0.5c2.6-0.3,4.5-0.7,5.7-1.1
		c0-0.4,0-0.7,0-0.8c0-1.3-0.3-2.2-0.9-2.7c-0.8-0.7-2-1.1-3.6-1.1c-1.5,0-2.6,0.3-3.3,0.8c-0.7,0.5-1.2,1.5-1.6,2.8l-3.1-0.4
		c0.3-1.3,0.8-2.4,1.4-3.2c0.6-0.8,1.6-1.5,2.8-1.9c1.2-0.4,2.7-0.7,4.3-0.7c1.6,0,2.9,0.2,3.9,0.6c1,0.4,1.7,0.9,2.2,1.4
		c0.5,0.6,0.8,1.3,1,2.2c0.1,0.5,0.2,1.5,0.2,2.9V77c0,3,0.1,4.8,0.2,5.6c0.1,0.8,0.4,1.5,0.8,2.3h-3.3
		C246.4,84.2,246.2,83.4,246.1,82.5z M245.8,75.4c-1.2,0.5-2.9,0.9-5.2,1.2c-1.3,0.2-2.2,0.4-2.8,0.6c-0.5,0.2-1,0.6-1.3,1
		c-0.3,0.5-0.4,1-0.4,1.5c0,0.9,0.3,1.6,1,2.1c0.6,0.6,1.6,0.9,2.8,0.9c1.2,0,2.3-0.3,3.3-0.8c1-0.5,1.7-1.3,2.1-2.2
		c0.3-0.7,0.5-1.8,0.5-3.2V75.4z"/>
	<path fill="#FFFFFF" d="M254,84.8V66h2.9v2.7c1.4-2.1,3.4-3.1,6-3.1c1.1,0,2.2,0.2,3.1,0.6s1.7,0.9,2.1,1.6c0.5,0.7,0.8,1.4,1,2.4
		c0.1,0.6,0.2,1.6,0.2,3.1v11.6h-3.2V73.4c0-1.3-0.1-2.3-0.4-2.9c-0.2-0.6-0.7-1.2-1.3-1.5c-0.6-0.4-1.4-0.6-2.2-0.6
		c-1.4,0-2.5,0.4-3.5,1.3c-1,0.9-1.5,2.5-1.5,4.9v10.3C257.2,84.8,254,84.8,254,84.8z"/>
	<path fill="#FFFFFF" d="M286.4,84.8v-2.4c-1.2,1.9-2.9,2.8-5.3,2.8c-1.5,0-2.9-0.4-4.1-1.2c-1.3-0.8-2.2-2-2.9-3.5
		c-0.7-1.5-1-3.2-1-5.1c0-1.9,0.3-3.6,0.9-5.1c0.6-1.5,1.6-2.7,2.8-3.5c1.3-0.8,2.7-1.2,4.2-1.2c1.1,0,2.1,0.2,3,0.7
		c0.9,0.5,1.6,1.1,2.2,1.9v-9.3h3.2v26L286.4,84.8L286.4,84.8z M276.3,75.5c0,2.4,0.5,4.2,1.5,5.4c1,1.2,2.2,1.8,3.6,1.8
		c1.4,0,2.6-0.6,3.6-1.7c1-1.1,1.5-2.9,1.5-5.2c0-2.6-0.5-4.5-1.5-5.7c-1-1.2-2.2-1.8-3.7-1.8c-1.4,0-2.6,0.6-3.6,1.7
		C276.8,71.1,276.3,73,276.3,75.5z"/>
	<path fill="#FFFFFF" d="M312.3,84.8l-10.1-26h3.7l6.8,18.9c0.5,1.5,1,2.9,1.4,4.3c0.4-1.4,0.9-2.8,1.4-4.3l7-18.9h3.5l-10.2,26
		H312.3z"/>
	<path fill="#FFFFFF" d="M329.1,84.8v-26h3.5l13.7,20.4V58.9h3.3v26H346l-13.7-20.4v20.4H329.1z"/>
	<path fill="#FFFFFF" d="M354.3,72.2c0-4.3,1.2-7.7,3.5-10.1c2.3-2.4,5.3-3.7,9-3.7c2.4,0,4.6,0.6,6.5,1.7c1.9,1.1,3.4,2.7,4.4,4.8
		c1,2.1,1.5,4.4,1.5,7c0,2.6-0.5,5-1.6,7.1c-1.1,2.1-2.6,3.7-4.5,4.7c-2,1.1-4.1,1.6-6.3,1.6c-2.4,0-4.6-0.6-6.6-1.8
		c-1.9-1.2-3.4-2.8-4.4-4.8C354.8,76.6,354.3,74.5,354.3,72.2z M357.8,72.2c0,3.1,0.8,5.6,2.5,7.4c1.7,1.8,3.8,2.7,6.3,2.7
		c2.6,0,4.7-0.9,6.4-2.7c1.7-1.8,2.5-4.4,2.5-7.7c0-2.1-0.4-4-1.1-5.5c-0.7-1.6-1.8-2.8-3.1-3.7c-1.4-0.9-2.9-1.3-4.6-1.3
		c-2.4,0-4.5,0.8-6.3,2.5C358.7,65.5,357.8,68.3,357.8,72.2z"/>
	<path fill="#FFFFFF" d="M383.6,84.8v-26h9c2,0,3.6,0.1,4.6,0.4c1.5,0.3,2.8,1,3.8,1.9c1.4,1.2,2.4,2.6,3.1,4.4c0.7,1.8,1,3.9,1,6.2
		c0,2-0.2,3.7-0.7,5.2c-0.5,1.5-1.1,2.8-1.8,3.8c-0.7,1-1.5,1.8-2.4,2.4c-0.9,0.6-1.9,1-3.1,1.3c-1.2,0.3-2.6,0.4-4.2,0.4
		L383.6,84.8L383.6,84.8z M387,81.8h5.5c1.7,0,3.1-0.2,4-0.5c1-0.3,1.8-0.8,2.3-1.3c0.8-0.8,1.5-1.9,1.9-3.3c0.5-1.4,0.7-3,0.7-5
		c0-2.7-0.4-4.8-1.3-6.3c-0.9-1.5-2-2.4-3.3-2.9c-0.9-0.4-2.4-0.5-4.4-0.5H387L387,81.8L387,81.8z"/>
	<path fill="#FFFFFF" d="M409.9,84.8v-26h18.8v3.1h-15.4v8h14.4v3h-14.4v8.8h16v3.1H409.9z"/>
	<path fill="#FFFFFF" d="M444.7,84.8v-26h3.4v26H444.7z"/>
	<path fill="#FFFFFF" d="M453.8,84.8V66h2.9v2.7c1.4-2.1,3.4-3.1,6-3.1c1.1,0,2.2,0.2,3.1,0.6s1.7,0.9,2.1,1.6
		c0.5,0.7,0.8,1.4,1,2.4c0.1,0.6,0.2,1.6,0.2,3.1v11.6h-3.2V73.4c0-1.3-0.1-2.3-0.4-2.9c-0.2-0.6-0.7-1.2-1.3-1.5
		c-0.6-0.4-1.4-0.6-2.2-0.6c-1.4,0-2.5,0.4-3.5,1.3c-1,0.9-1.5,2.5-1.5,4.9v10.3C457,84.8,453.8,84.8,453.8,84.8z"/>
	<path fill="#FFFFFF" d="M481,82l0.5,2.8c-0.9,0.2-1.7,0.3-2.4,0.3c-1.2,0-2.1-0.2-2.7-0.5c-0.6-0.4-1.1-0.8-1.3-1.4
		c-0.3-0.6-0.4-1.9-0.4-3.8V68.5h-2.3V66h2.3v-4.7l3.2-1.9V66h3.2v2.5h-3.2v11c0,0.9,0.1,1.5,0.2,1.8c0.1,0.3,0.3,0.5,0.5,0.6
		c0.3,0.2,0.6,0.2,1.1,0.2C479.9,82.1,480.4,82.1,481,82z"/>
	<path fill="#FFFFFF" d="M497,78.8l3.3,0.4c-0.5,1.9-1.5,3.4-2.9,4.5c-1.4,1.1-3.2,1.6-5.4,1.6c-2.8,0-4.9-0.8-6.6-2.5
		c-1.6-1.7-2.4-4.1-2.4-7.1c0-3.2,0.8-5.6,2.4-7.4c1.6-1.7,3.7-2.6,6.3-2.6c2.5,0,4.6,0.9,6.2,2.6c1.6,1.7,2.4,4.1,2.4,7.2
		c0,0.2,0,0.5,0,0.9h-14c0.1,2.1,0.7,3.7,1.8,4.8c1.1,1.1,2.4,1.6,3.9,1.6c1.2,0,2.2-0.3,3-0.9C495.8,81.1,496.5,80.1,497,78.8z
		 M486.5,73.6H497c-0.1-1.6-0.5-2.8-1.2-3.6c-1-1.2-2.3-1.8-4-1.8c-1.5,0-2.7,0.5-3.7,1.5C487.1,70.7,486.6,72,486.5,73.6z"/>
	<path fill="#FFFFFF" d="M504.2,84.8V66h2.9v2.9c0.7-1.3,1.4-2.2,2-2.6c0.6-0.4,1.3-0.6,2-0.6c1.1,0,2.2,0.3,3.3,1l-1.1,3
		c-0.8-0.5-1.6-0.7-2.3-0.7c-0.7,0-1.3,0.2-1.9,0.6c-0.6,0.4-1,1-1.2,1.7c-0.4,1.1-0.5,2.4-0.5,3.7v9.9L504.2,84.8L504.2,84.8z"/>
	<path fill="#FFFFFF" d="M517.1,84.8V68.5h-2.8V66h2.8v-2c0-1.3,0.1-2.2,0.3-2.8c0.3-0.8,0.8-1.5,1.6-2c0.8-0.5,1.9-0.8,3.3-0.8
		c0.9,0,1.9,0.1,3,0.3l-0.5,2.8c-0.7-0.1-1.3-0.2-1.9-0.2c-1,0-1.7,0.2-2.1,0.6c-0.4,0.4-0.6,1.2-0.6,2.3V66h3.7v2.5h-3.7v16.3
		H517.1z"/>
	<path fill="#FFFFFF" d="M538.7,82.5c-1.2,1-2.3,1.7-3.4,2.1c-1.1,0.4-2.3,0.6-3.5,0.6c-2.1,0-3.7-0.5-4.8-1.5
		c-1.1-1-1.7-2.3-1.7-3.9c0-0.9,0.2-1.8,0.6-2.5c0.4-0.8,1-1.4,1.6-1.8c0.7-0.5,1.4-0.8,2.3-1c0.6-0.2,1.6-0.3,2.8-0.5
		c2.6-0.3,4.5-0.7,5.7-1.1c0-0.4,0-0.7,0-0.8c0-1.3-0.3-2.2-0.9-2.7c-0.8-0.7-2-1.1-3.6-1.1c-1.5,0-2.6,0.3-3.3,0.8
		c-0.7,0.5-1.2,1.5-1.6,2.8l-3.1-0.4c0.3-1.3,0.8-2.4,1.4-3.2c0.6-0.8,1.6-1.5,2.8-1.9c1.2-0.4,2.7-0.7,4.3-0.7
		c1.6,0,2.9,0.2,3.9,0.6c1,0.4,1.7,0.9,2.2,1.4c0.5,0.6,0.8,1.3,1,2.2c0.1,0.5,0.2,1.5,0.2,2.9V77c0,3,0.1,4.8,0.2,5.6
		c0.1,0.8,0.4,1.5,0.8,2.3h-3.3C539,84.2,538.8,83.4,538.7,82.5z M538.5,75.4c-1.2,0.5-2.9,0.9-5.2,1.2c-1.3,0.2-2.2,0.4-2.8,0.6
		c-0.5,0.2-1,0.6-1.3,1c-0.3,0.5-0.4,1-0.4,1.5c0,0.9,0.3,1.6,1,2.1c0.6,0.6,1.6,0.9,2.8,0.9c1.2,0,2.3-0.3,3.3-0.8
		c1-0.5,1.7-1.3,2.1-2.2c0.3-0.7,0.5-1.8,0.5-3.2L538.5,75.4L538.5,75.4z"/>
	<path fill="#FFFFFF" d="M558.9,78l3.1,0.4c-0.3,2.2-1.2,3.9-2.6,5.1c-1.4,1.2-3.1,1.8-5.2,1.8c-2.6,0-4.6-0.8-6.2-2.5
		c-1.6-1.7-2.3-4.1-2.3-7.2c0-2,0.3-3.8,1-5.3c0.7-1.5,1.7-2.7,3.1-3.4c1.4-0.8,2.9-1.1,4.5-1.1c2,0,3.7,0.5,5,1.6
		c1.3,1,2.1,2.5,2.5,4.4l-3.1,0.5c-0.3-1.3-0.8-2.2-1.6-2.9c-0.8-0.6-1.7-1-2.7-1c-1.6,0-2.9,0.6-3.9,1.7c-1,1.2-1.5,3-1.5,5.5
		c0,2.5,0.5,4.4,1.5,5.5c1,1.1,2.2,1.7,3.8,1.7c1.3,0,2.3-0.4,3.1-1.2C558.2,80.7,558.7,79.5,558.9,78z"/>
	<path fill="#FFFFFF" d="M577.7,78.8l3.3,0.4c-0.5,1.9-1.5,3.4-2.9,4.5c-1.4,1.1-3.2,1.6-5.4,1.6c-2.8,0-4.9-0.8-6.6-2.5
		c-1.6-1.7-2.4-4.1-2.4-7.1c0-3.2,0.8-5.6,2.4-7.4c1.6-1.7,3.7-2.6,6.3-2.6c2.5,0,4.6,0.9,6.2,2.6c1.6,1.7,2.4,4.1,2.4,7.2
		c0,0.2,0,0.5,0,0.9h-14c0.1,2.1,0.7,3.7,1.8,4.8c1.1,1.1,2.4,1.6,3.9,1.6c1.2,0,2.2-0.3,3-0.9C576.5,81.1,577.2,80.1,577.7,78.8z
		 M567.2,73.6h10.5c-0.1-1.6-0.5-2.8-1.2-3.6c-1-1.2-2.3-1.8-4-1.8c-1.5,0-2.7,0.5-3.7,1.5C567.9,70.7,567.3,72,567.2,73.6z"/>
</g>
<g>
	<path fill="#FFFFFF" d="M25.7,235.8v-26h3.4v26L25.7,235.8L25.7,235.8z"/>
	<path fill="#FFFFFF" d="M42.5,236.2l7.5-26.9h2.6l-7.5,26.9H42.5z"/>
	<path fill="#FFFFFF" d="M64.2,223c0-3.1,0.3-5.5,0.9-7.4c0.6-1.9,1.6-3.3,2.8-4.3c1.2-1,2.8-1.5,4.7-1.5c1.4,0,2.6,0.3,3.7,0.8
		c1.1,0.6,1.9,1.4,2.6,2.4c0.7,1.1,1.2,2.3,1.6,3.9c0.4,1.5,0.6,3.6,0.6,6.1c0,3-0.3,5.5-0.9,7.4c-0.6,1.9-1.6,3.3-2.8,4.3
		c-1.2,1-2.8,1.5-4.7,1.5c-2.5,0-4.5-0.9-5.9-2.7C65.1,231.4,64.2,227.9,64.2,223z M67.5,223c0,4.3,0.5,7.1,1.5,8.5
		c1,1.4,2.2,2.1,3.7,2.1c1.5,0,2.7-0.7,3.7-2.1s1.5-4.3,1.5-8.5c0-4.3-0.5-7.1-1.5-8.5c-1-1.4-2.2-2.1-3.7-2.1
		c-1.5,0-2.6,0.6-3.5,1.9C68,215.8,67.5,218.7,67.5,223z"/>
	<path fill="#FFFFFF" d="M95.7,235.8v-26h5.2l6.2,18.4c0.6,1.7,1,3,1.2,3.8c0.3-0.9,0.8-2.3,1.4-4.2l6.2-18.1h4.6v26h-3.3V214
		l-7.6,21.8h-3.1L99,213.7v22.1H95.7z"/>
	<path fill="#FFFFFF" d="M137.9,233.5c-1.2,1-2.3,1.7-3.4,2.1c-1.1,0.4-2.3,0.6-3.5,0.6c-2.1,0-3.7-0.5-4.8-1.5s-1.7-2.3-1.7-3.9
		c0-0.9,0.2-1.8,0.6-2.5c0.4-0.8,1-1.4,1.6-1.8s1.4-0.8,2.3-1c0.6-0.2,1.6-0.3,2.8-0.5c2.6-0.3,4.5-0.7,5.7-1.1c0-0.4,0-0.7,0-0.8
		c0-1.3-0.3-2.2-0.9-2.7c-0.8-0.7-2-1.1-3.6-1.1c-1.5,0-2.6,0.3-3.3,0.8c-0.7,0.5-1.2,1.5-1.6,2.8l-3.1-0.4c0.3-1.3,0.8-2.4,1.4-3.2
		c0.6-0.8,1.6-1.5,2.8-1.9c1.2-0.4,2.7-0.7,4.3-0.7c1.6,0,2.9,0.2,3.9,0.6c1,0.4,1.7,0.9,2.2,1.4c0.5,0.6,0.8,1.3,1,2.2
		c0.1,0.5,0.2,1.5,0.2,2.9v4.3c0,3,0.1,4.8,0.2,5.6c0.1,0.8,0.4,1.5,0.8,2.3h-3.3C138.2,235.1,138,234.4,137.9,233.5z M137.6,226.3
		c-1.2,0.5-2.9,0.9-5.2,1.2c-1.3,0.2-2.2,0.4-2.8,0.6c-0.5,0.2-1,0.6-1.3,1c-0.3,0.5-0.4,1-0.4,1.5c0,0.9,0.3,1.6,1,2.1
		s1.6,0.9,2.8,0.9c1.2,0,2.3-0.3,3.3-0.8c1-0.5,1.7-1.3,2.1-2.2c0.3-0.7,0.5-1.8,0.5-3.2V226.3z"/>
	<path fill="#FFFFFF" d="M145.8,235.8V217h2.9v2.7c1.4-2.1,3.4-3.1,6-3.1c1.1,0,2.2,0.2,3.1,0.6s1.7,0.9,2.1,1.6
		c0.5,0.7,0.8,1.4,1,2.4c0.1,0.6,0.2,1.6,0.2,3.1v11.6h-3.2v-11.5c0-1.3-0.1-2.3-0.4-2.9c-0.2-0.6-0.7-1.2-1.3-1.5
		c-0.6-0.4-1.4-0.6-2.2-0.6c-1.4,0-2.5,0.4-3.5,1.3c-1,0.9-1.5,2.5-1.5,4.9v10.3H145.8z"/>
	<path fill="#FFFFFF" d="M178.3,233.5c-1.2,1-2.3,1.7-3.4,2.1c-1.1,0.4-2.3,0.6-3.5,0.6c-2.1,0-3.7-0.5-4.8-1.5s-1.7-2.3-1.7-3.9
		c0-0.9,0.2-1.8,0.6-2.5c0.4-0.8,1-1.4,1.6-1.8s1.4-0.8,2.3-1c0.6-0.2,1.6-0.3,2.8-0.5c2.6-0.3,4.5-0.7,5.7-1.1c0-0.4,0-0.7,0-0.8
		c0-1.3-0.3-2.2-0.9-2.7c-0.8-0.7-2-1.1-3.6-1.1c-1.5,0-2.6,0.3-3.3,0.8c-0.7,0.5-1.2,1.5-1.6,2.8l-3.1-0.4c0.3-1.3,0.8-2.4,1.4-3.2
		c0.6-0.8,1.6-1.5,2.8-1.9c1.2-0.4,2.7-0.7,4.3-0.7c1.6,0,2.9,0.2,3.9,0.6c1,0.4,1.7,0.9,2.2,1.4c0.5,0.6,0.8,1.3,1,2.2
		c0.1,0.5,0.2,1.5,0.2,2.9v4.3c0,3,0.1,4.8,0.2,5.6c0.1,0.8,0.4,1.5,0.8,2.3h-3.3C178.6,235.1,178.4,234.4,178.3,233.5z M178,226.3
		c-1.2,0.5-2.9,0.9-5.2,1.2c-1.3,0.2-2.2,0.4-2.8,0.6c-0.5,0.2-1,0.6-1.3,1c-0.3,0.5-0.4,1-0.4,1.5c0,0.9,0.3,1.6,1,2.1
		s1.6,0.9,2.8,0.9c1.2,0,2.3-0.3,3.3-0.8c1-0.5,1.7-1.3,2.1-2.2c0.3-0.7,0.5-1.8,0.5-3.2V226.3z"/>
	<path fill="#FFFFFF" d="M185.6,237.4l3.1,0.5c0.1,1,0.5,1.7,1.1,2.1c0.8,0.6,1.9,0.9,3.2,0.9c1.5,0,2.6-0.3,3.4-0.9
		c0.8-0.6,1.3-1.4,1.6-2.5c0.2-0.7,0.2-2,0.2-4.1c-1.4,1.6-3.1,2.5-5.2,2.5c-2.6,0-4.6-0.9-6-2.8c-1.4-1.9-2.1-4.1-2.1-6.7
		c0-1.8,0.3-3.5,1-5c0.6-1.5,1.6-2.7,2.8-3.5c1.2-0.8,2.7-1.2,4.4-1.2c2.2,0,4.1,0.9,5.5,2.7V217h2.9v16.3c0,2.9-0.3,5-0.9,6.2
		c-0.6,1.2-1.5,2.2-2.8,2.9s-2.9,1.1-4.8,1.1c-2.2,0-4.1-0.5-5.4-1.5S185.6,239.4,185.6,237.4z M188.3,226c0,2.5,0.5,4.3,1.5,5.4
		c1,1.1,2.2,1.7,3.7,1.7c1.5,0,2.7-0.6,3.7-1.7c1-1.1,1.5-2.9,1.5-5.3c0-2.3-0.5-4-1.5-5.2c-1-1.2-2.3-1.8-3.7-1.8
		c-1.4,0-2.6,0.6-3.6,1.7C188.7,222.1,188.3,223.8,188.3,226z"/>
	<path fill="#FFFFFF" d="M219.3,229.7l3.3,0.4c-0.5,1.9-1.5,3.4-2.9,4.5c-1.4,1.1-3.2,1.6-5.4,1.6c-2.8,0-4.9-0.8-6.6-2.5
		c-1.6-1.7-2.4-4.1-2.4-7.1c0-3.2,0.8-5.6,2.4-7.4c1.6-1.7,3.7-2.6,6.3-2.6c2.5,0,4.6,0.9,6.2,2.6c1.6,1.7,2.4,4.1,2.4,7.2
		c0,0.2,0,0.5,0,0.9h-14c0.1,2.1,0.7,3.7,1.8,4.8c1.1,1.1,2.4,1.6,3.9,1.6c1.2,0,2.2-0.3,3-0.9C218.1,232.1,218.8,231.1,219.3,229.7
		z M208.8,224.6h10.5c-0.1-1.6-0.5-2.8-1.2-3.6c-1-1.2-2.3-1.8-4-1.8c-1.5,0-2.7,0.5-3.7,1.5C209.5,221.6,208.9,222.9,208.8,224.6z"
		/>
	<path fill="#FFFFFF" d="M226.5,235.8V217h2.9v2.9c0.7-1.3,1.4-2.2,2-2.6c0.6-0.4,1.3-0.6,2-0.6c1.1,0,2.2,0.3,3.3,1l-1.1,3
		c-0.8-0.5-1.6-0.7-2.3-0.7c-0.7,0-1.3,0.2-1.9,0.6c-0.6,0.4-1,1-1.2,1.7c-0.4,1.1-0.5,2.4-0.5,3.7v9.9L226.5,235.8L226.5,235.8z"/>
</g>
<g>
	<path fill="#FFFFFF" d="M344.9,235.8v-26h9c2,0,3.6,0.1,4.6,0.4c1.5,0.3,2.8,1,3.8,1.9c1.4,1.2,2.4,2.6,3.1,4.4
		c0.7,1.8,1,3.9,1,6.2c0,2-0.2,3.7-0.7,5.2s-1.1,2.8-1.8,3.8c-0.7,1-1.5,1.8-2.4,2.4c-0.9,0.6-1.9,1-3.1,1.3
		c-1.2,0.3-2.6,0.4-4.2,0.4L344.9,235.8L344.9,235.8z M348.3,232.7h5.5c1.7,0,3.1-0.2,4-0.5c1-0.3,1.8-0.8,2.3-1.3
		c0.8-0.8,1.5-1.9,1.9-3.3c0.5-1.4,0.7-3,0.7-5c0-2.7-0.4-4.8-1.3-6.3c-0.9-1.5-2-2.4-3.3-2.9c-0.9-0.4-2.4-0.5-4.4-0.5h-5.5
		L348.3,232.7L348.3,232.7z"/>
	<path fill="#FFFFFF" d="M370.7,213.5v-3.7h3.2v3.7H370.7z M370.7,235.8V217h3.2v18.8H370.7z"/>
	<path fill="#FFFFFF" d="M378.7,235.8V217h2.9v2.9c0.7-1.3,1.4-2.2,2-2.6c0.6-0.4,1.3-0.6,2-0.6c1.1,0,2.2,0.3,3.3,1l-1.1,3
		c-0.8-0.5-1.6-0.7-2.3-0.7c-0.7,0-1.3,0.2-1.9,0.6c-0.6,0.4-1,1-1.2,1.7c-0.4,1.1-0.5,2.4-0.5,3.7v9.9L378.7,235.8L378.7,235.8z"/>
	<path fill="#FFFFFF" d="M403.7,229.7l3.3,0.4c-0.5,1.9-1.5,3.4-2.9,4.5c-1.4,1.1-3.2,1.6-5.4,1.6c-2.8,0-4.9-0.8-6.6-2.5
		c-1.6-1.7-2.4-4.1-2.4-7.1c0-3.2,0.8-5.6,2.4-7.4c1.6-1.7,3.7-2.6,6.3-2.6c2.5,0,4.6,0.9,6.2,2.6c1.6,1.7,2.4,4.1,2.4,7.2
		c0,0.2,0,0.5,0,0.9h-14c0.1,2.1,0.7,3.7,1.8,4.8c1.1,1.1,2.4,1.6,3.9,1.6c1.2,0,2.2-0.3,3-0.9C402.6,232.1,403.2,231.1,403.7,229.7
		z M393.3,224.6h10.5c-0.1-1.6-0.5-2.8-1.2-3.6c-1-1.2-2.3-1.8-4-1.8c-1.5,0-2.7,0.5-3.7,1.5C393.9,221.6,393.4,222.9,393.3,224.6z"
		/>
	<path fill="#FFFFFF" d="M423.3,228.9l3.1,0.4c-0.3,2.2-1.2,3.9-2.6,5.1c-1.4,1.2-3.1,1.8-5.2,1.8c-2.6,0-4.6-0.8-6.2-2.5
		c-1.6-1.7-2.3-4.1-2.3-7.2c0-2,0.3-3.8,1-5.3c0.7-1.5,1.7-2.7,3.1-3.4c1.4-0.8,2.9-1.1,4.5-1.1c2,0,3.7,0.5,5,1.6
		c1.3,1,2.1,2.5,2.5,4.4l-3.1,0.5c-0.3-1.3-0.8-2.2-1.6-2.9c-0.8-0.6-1.7-1-2.7-1c-1.6,0-2.9,0.6-3.9,1.7c-1,1.2-1.5,3-1.5,5.5
		c0,2.5,0.5,4.4,1.5,5.5c1,1.1,2.2,1.7,3.8,1.7c1.3,0,2.3-0.4,3.1-1.2C422.6,231.7,423.1,230.5,423.3,228.9z"/>
	<path fill="#FFFFFF" d="M436.2,232.9l0.5,2.8c-0.9,0.2-1.7,0.3-2.4,0.3c-1.2,0-2.1-0.2-2.7-0.5s-1.1-0.8-1.3-1.4
		c-0.3-0.6-0.4-1.9-0.4-3.8v-10.8h-2.3V217h2.3v-4.7l3.2-1.9v6.6h3.2v2.5H433v11c0,0.9,0.1,1.5,0.2,1.8c0.1,0.3,0.3,0.5,0.5,0.6
		c0.3,0.2,0.6,0.2,1.1,0.2C435.1,233.1,435.6,233,436.2,232.9z"/>
	<path fill="#FFFFFF" d="M438.1,226.4c0-3.5,1-6.1,2.9-7.7c1.6-1.4,3.6-2.1,5.9-2.1c2.6,0,4.7,0.8,6.3,2.5c1.6,1.7,2.5,4,2.5,7
		c0,2.4-0.4,4.3-1.1,5.7c-0.7,1.4-1.8,2.5-3.2,3.2c-1.4,0.8-2.9,1.2-4.5,1.2c-2.6,0-4.8-0.8-6.4-2.5
		C438.9,232,438.1,229.6,438.1,226.4z M441.4,226.4c0,2.4,0.5,4.2,1.6,5.4c1.1,1.2,2.4,1.8,4,1.8c1.6,0,2.9-0.6,4-1.8s1.6-3,1.6-5.5
		c0-2.3-0.5-4.1-1.6-5.3c-1.1-1.2-2.4-1.8-3.9-1.8c-1.6,0-2.9,0.6-4,1.8C441.9,222.2,441.4,224,441.4,226.4z"/>
	<path fill="#FFFFFF" d="M459.4,235.8V217h2.9v2.9c0.7-1.3,1.4-2.2,2-2.6c0.6-0.4,1.3-0.6,2-0.6c1.1,0,2.2,0.3,3.3,1l-1.1,3
		c-0.8-0.5-1.6-0.7-2.3-0.7c-0.7,0-1.3,0.2-1.9,0.6c-0.6,0.4-1,1-1.2,1.7c-0.4,1.1-0.5,2.4-0.5,3.7v9.9L459.4,235.8L459.4,235.8z"/>
	<path fill="#FFFFFF" d="M471.4,243l-0.4-3c0.7,0.2,1.3,0.3,1.8,0.3c0.7,0,1.3-0.1,1.7-0.4c0.4-0.2,0.8-0.6,1-1
		c0.2-0.3,0.5-1.1,1-2.4c0.1-0.2,0.2-0.4,0.3-0.8l-7.1-18.9h3.4l3.9,10.9c0.5,1.4,1,2.8,1.4,4.4c0.4-1.5,0.8-2.9,1.3-4.3l4-11h3.2
		l-7.2,19.1c-0.8,2.1-1.4,3.5-1.8,4.3c-0.6,1.1-1.2,1.8-2,2.3c-0.7,0.5-1.6,0.7-2.6,0.7C472.9,243.4,472.2,243.3,471.4,243z"/>
	<path fill="#FFFFFF" d="M500.1,235.8v-26h5.2l6.2,18.4c0.6,1.7,1,3,1.2,3.8c0.3-0.9,0.8-2.3,1.4-4.2l6.2-18.1h4.6v26h-3.3V214
		l-7.6,21.8h-3.1l-7.5-22.1v22.1H500.1z"/>
	<path fill="#FFFFFF" d="M529.5,237.4l3.1,0.5c0.1,1,0.5,1.7,1.1,2.1c0.8,0.6,1.9,0.9,3.2,0.9c1.5,0,2.6-0.3,3.4-0.9
		c0.8-0.6,1.3-1.4,1.6-2.5c0.2-0.7,0.2-2,0.2-4.1c-1.4,1.6-3.1,2.5-5.2,2.5c-2.6,0-4.6-0.9-6-2.8c-1.4-1.9-2.1-4.1-2.1-6.7
		c0-1.8,0.3-3.5,1-5c0.6-1.5,1.6-2.7,2.8-3.5c1.2-0.8,2.7-1.2,4.4-1.2c2.2,0,4.1,0.9,5.5,2.7V217h2.9v16.3c0,2.9-0.3,5-0.9,6.2
		c-0.6,1.2-1.5,2.2-2.8,2.9s-2.9,1.1-4.8,1.1c-2.2,0-4.1-0.5-5.4-1.5C530.1,240.9,529.4,239.4,529.5,237.4z M532.1,226
		c0,2.5,0.5,4.3,1.5,5.4c1,1.1,2.2,1.7,3.7,1.7c1.5,0,2.7-0.6,3.7-1.7c1-1.1,1.5-2.9,1.5-5.3c0-2.3-0.5-4-1.5-5.2
		c-1-1.2-2.3-1.8-3.7-1.8c-1.4,0-2.6,0.6-3.6,1.7C532.6,222.1,532.1,223.8,532.1,226z"/>
	<path fill="#FFFFFF" d="M550.2,235.8V217h2.9v2.9c0.7-1.3,1.4-2.2,2-2.6c0.6-0.4,1.3-0.6,2-0.6c1.1,0,2.2,0.3,3.3,1l-1.1,3
		c-0.8-0.5-1.6-0.7-2.3-0.7c-0.7,0-1.3,0.2-1.9,0.6c-0.6,0.4-1,1-1.2,1.7c-0.4,1.1-0.5,2.4-0.5,3.7v9.9L550.2,235.8L550.2,235.8z"/>
</g>
<g>
	<path fill="#FFFFFF" d="M178.6,339.7l3.2-0.3c0.2,1.3,0.5,2.4,1.1,3.2c0.6,0.8,1.4,1.5,2.6,2c1.2,0.5,2.5,0.8,4,0.8
		c1.3,0,2.5-0.2,3.5-0.6c1-0.4,1.8-0.9,2.2-1.6c0.5-0.7,0.7-1.4,0.7-2.2c0-0.8-0.2-1.5-0.7-2.1c-0.5-0.6-1.3-1.1-2.3-1.5
		c-0.7-0.3-2.2-0.7-4.6-1.3c-2.4-0.6-4.1-1.1-5-1.6c-1.2-0.6-2.2-1.5-2.8-2.4c-0.6-1-0.9-2-0.9-3.2c0-1.3,0.4-2.5,1.1-3.7
		c0.7-1.1,1.8-2,3.3-2.6c1.4-0.6,3-0.9,4.8-0.9c1.9,0,3.6,0.3,5.1,0.9c1.5,0.6,2.6,1.5,3.4,2.7c0.8,1.2,1.2,2.6,1.3,4.1l-3.3,0.2
		c-0.2-1.6-0.8-2.9-1.8-3.7c-1-0.8-2.5-1.3-4.5-1.3c-2.1,0-3.6,0.4-4.5,1.1c-1,0.8-1.4,1.7-1.4,2.8c0,0.9,0.3,1.7,1,2.3
		c0.7,0.6,2.4,1.2,5.2,1.9c2.8,0.6,4.7,1.2,5.8,1.7c1.5,0.7,2.6,1.6,3.4,2.7c0.7,1.1,1.1,2.3,1.1,3.7c0,1.4-0.4,2.7-1.2,3.9
		s-1.9,2.2-3.4,2.9c-1.5,0.7-3.2,1-5,1c-2.4,0-4.3-0.3-5.9-1c-1.6-0.7-2.8-1.7-3.7-3.1C179.1,343,178.6,341.4,178.6,339.7z"/>
	<path fill="#FFFFFF" d="M203.6,355.2v-26h2.9v2.4c0.7-1,1.5-1.7,2.3-2.2c0.9-0.5,1.9-0.7,3.1-0.7c1.6,0,3,0.4,4.3,1.2
		c1.2,0.8,2.2,2,2.8,3.5c0.6,1.5,0.9,3.2,0.9,5c0,1.9-0.3,3.7-1,5.2s-1.7,2.7-3,3.5c-1.3,0.8-2.7,1.2-4.2,1.2c-1.1,0-2-0.2-2.9-0.7
		c-0.8-0.4-1.5-1-2.1-1.7v9.2L203.6,355.2L203.6,355.2z M206.4,338.7c0,2.4,0.5,4.2,1.5,5.4c1,1.2,2.2,1.7,3.6,1.7
		c1.4,0,2.6-0.6,3.6-1.8c1-1.2,1.5-3.1,1.5-5.6c0-2.4-0.5-4.2-1.5-5.4c-1-1.2-2.2-1.8-3.5-1.8c-1.4,0-2.6,0.6-3.6,1.9
		C207,334.4,206.4,336.3,206.4,338.7z"/>
	<path fill="#FFFFFF" d="M236,345.7c-1.2,1-2.3,1.7-3.4,2.1c-1.1,0.4-2.3,0.6-3.5,0.6c-2.1,0-3.7-0.5-4.8-1.5
		c-1.1-1-1.7-2.3-1.7-3.9c0-0.9,0.2-1.8,0.6-2.5c0.4-0.8,1-1.4,1.6-1.8s1.4-0.8,2.3-1c0.6-0.2,1.6-0.3,2.8-0.5
		c2.6-0.3,4.5-0.7,5.7-1.1c0-0.4,0-0.7,0-0.8c0-1.3-0.3-2.2-0.9-2.7c-0.8-0.7-2-1.1-3.6-1.1c-1.5,0-2.6,0.3-3.3,0.8
		c-0.7,0.5-1.2,1.5-1.6,2.8l-3.1-0.4c0.3-1.3,0.8-2.4,1.4-3.2c0.6-0.8,1.6-1.5,2.8-1.9c1.2-0.4,2.7-0.7,4.3-0.7
		c1.6,0,2.9,0.2,3.9,0.6c1,0.4,1.7,0.9,2.2,1.4c0.5,0.6,0.8,1.3,1,2.2c0.1,0.5,0.2,1.5,0.2,2.9v4.3c0,3,0.1,4.8,0.2,5.6
		c0.1,0.8,0.4,1.5,0.8,2.3h-3.3C236.3,347.4,236.1,346.6,236,345.7z M235.8,338.6c-1.2,0.5-2.9,0.9-5.2,1.2
		c-1.3,0.2-2.2,0.4-2.8,0.6c-0.5,0.2-1,0.6-1.3,1c-0.3,0.5-0.4,1-0.4,1.5c0,0.9,0.3,1.6,1,2.1c0.6,0.6,1.6,0.9,2.8,0.9
		c1.2,0,2.3-0.3,3.3-0.8c1-0.5,1.7-1.3,2.1-2.2c0.3-0.7,0.5-1.8,0.5-3.2V338.6z"/>
	<path fill="#FFFFFF" d="M256.2,341.1l3.1,0.4c-0.3,2.2-1.2,3.9-2.6,5.1c-1.4,1.2-3.1,1.8-5.2,1.8c-2.6,0-4.6-0.8-6.2-2.5
		c-1.6-1.7-2.3-4.1-2.3-7.2c0-2,0.3-3.8,1-5.3c0.7-1.5,1.7-2.7,3.1-3.4s2.9-1.1,4.5-1.1c2,0,3.7,0.5,5,1.6c1.3,1,2.1,2.5,2.5,4.4
		l-3.1,0.5c-0.3-1.3-0.8-2.2-1.6-2.9c-0.8-0.6-1.7-1-2.7-1c-1.6,0-2.9,0.6-3.9,1.7c-1,1.2-1.5,3-1.5,5.5c0,2.5,0.5,4.4,1.5,5.5
		c1,1.1,2.2,1.7,3.8,1.7c1.3,0,2.3-0.4,3.1-1.2C255.5,343.9,256,342.7,256.2,341.1z"/>
	<path fill="#FFFFFF" d="M275,342l3.3,0.4c-0.5,1.9-1.5,3.4-2.9,4.5c-1.4,1.1-3.2,1.6-5.4,1.6c-2.8,0-4.9-0.8-6.6-2.5
		c-1.6-1.7-2.4-4.1-2.4-7.1c0-3.2,0.8-5.6,2.4-7.4c1.6-1.7,3.7-2.6,6.3-2.6c2.5,0,4.6,0.9,6.2,2.6c1.6,1.7,2.4,4.1,2.4,7.2
		c0,0.2,0,0.5,0,0.9h-14c0.1,2.1,0.7,3.7,1.8,4.8s2.4,1.6,3.9,1.6c1.2,0,2.2-0.3,3-0.9C273.8,344.3,274.5,343.3,275,342z
		 M264.5,336.8H275c-0.1-1.6-0.5-2.8-1.2-3.6c-1-1.2-2.3-1.8-4-1.8c-1.5,0-2.7,0.5-3.7,1.5C265.2,333.8,264.6,335.2,264.5,336.8z"/>
	<path fill="#FFFFFF" d="M292.7,348v-26h5.2l6.2,18.4c0.6,1.7,1,3,1.2,3.8c0.3-0.9,0.8-2.3,1.4-4.2l6.2-18.1h4.6v26h-3.3v-21.8
		l-7.6,21.8h-3.1l-7.5-22.1V348L292.7,348L292.7,348z"/>
	<path fill="#FFFFFF" d="M334.9,345.7c-1.2,1-2.3,1.7-3.4,2.1c-1.1,0.4-2.3,0.6-3.5,0.6c-2.1,0-3.7-0.5-4.8-1.5
		c-1.1-1-1.7-2.3-1.7-3.9c0-0.9,0.2-1.8,0.6-2.5c0.4-0.8,1-1.4,1.6-1.8s1.4-0.8,2.3-1c0.6-0.2,1.6-0.3,2.8-0.5
		c2.6-0.3,4.5-0.7,5.7-1.1c0-0.4,0-0.7,0-0.8c0-1.3-0.3-2.2-0.9-2.7c-0.8-0.7-2-1.1-3.6-1.1c-1.5,0-2.6,0.3-3.3,0.8
		c-0.7,0.5-1.2,1.5-1.6,2.8l-3.1-0.4c0.3-1.3,0.8-2.4,1.4-3.2c0.6-0.8,1.6-1.5,2.8-1.9c1.2-0.4,2.7-0.7,4.3-0.7
		c1.6,0,2.9,0.2,3.9,0.6c1,0.4,1.7,0.9,2.2,1.4c0.5,0.6,0.8,1.3,1,2.2c0.1,0.5,0.2,1.5,0.2,2.9v4.3c0,3,0.1,4.8,0.2,5.6
		c0.1,0.8,0.4,1.5,0.8,2.3h-3.3C335.2,347.4,335,346.6,334.9,345.7z M334.6,338.6c-1.2,0.5-2.9,0.9-5.2,1.2
		c-1.3,0.2-2.2,0.4-2.8,0.6c-0.5,0.2-1,0.6-1.3,1c-0.3,0.5-0.4,1-0.4,1.5c0,0.9,0.3,1.6,1,2.1c0.6,0.6,1.6,0.9,2.8,0.9
		c1.2,0,2.3-0.3,3.3-0.8c1-0.5,1.7-1.3,2.1-2.2c0.3-0.7,0.5-1.8,0.5-3.2L334.6,338.6L334.6,338.6z"/>
	<path fill="#FFFFFF" d="M342.8,348v-18.8h2.9v2.7c1.4-2.1,3.4-3.1,6-3.1c1.1,0,2.2,0.2,3.1,0.6s1.7,0.9,2.1,1.6
		c0.5,0.7,0.8,1.4,1,2.4c0.1,0.6,0.2,1.6,0.2,3.1V348h-3.2v-11.5c0-1.3-0.1-2.3-0.4-2.9c-0.2-0.6-0.7-1.2-1.3-1.5
		c-0.6-0.4-1.4-0.6-2.2-0.6c-1.4,0-2.5,0.4-3.5,1.3c-1,0.9-1.5,2.5-1.5,4.9V348L342.8,348L342.8,348z"/>
	<path fill="#FFFFFF" d="M375.3,345.7c-1.2,1-2.3,1.7-3.4,2.1c-1.1,0.4-2.3,0.6-3.5,0.6c-2.1,0-3.7-0.5-4.8-1.5
		c-1.1-1-1.7-2.3-1.7-3.9c0-0.9,0.2-1.8,0.6-2.5c0.4-0.8,1-1.4,1.6-1.8s1.4-0.8,2.3-1c0.6-0.2,1.6-0.3,2.8-0.5
		c2.6-0.3,4.5-0.7,5.7-1.1c0-0.4,0-0.7,0-0.8c0-1.3-0.3-2.2-0.9-2.7c-0.8-0.7-2-1.1-3.6-1.1c-1.5,0-2.6,0.3-3.3,0.8
		c-0.7,0.5-1.2,1.5-1.6,2.8l-3.1-0.4c0.3-1.3,0.8-2.4,1.4-3.2c0.6-0.8,1.6-1.5,2.8-1.9c1.2-0.4,2.7-0.7,4.3-0.7
		c1.6,0,2.9,0.2,3.9,0.6c1,0.4,1.7,0.9,2.2,1.4c0.5,0.6,0.8,1.3,1,2.2c0.1,0.5,0.2,1.5,0.2,2.9v4.3c0,3,0.1,4.8,0.2,5.6
		c0.1,0.8,0.4,1.5,0.8,2.3h-3.3C375.6,347.4,375.4,346.6,375.3,345.7z M375,338.6c-1.2,0.5-2.9,0.9-5.2,1.2
		c-1.3,0.2-2.2,0.4-2.8,0.6c-0.5,0.2-1,0.6-1.3,1c-0.3,0.5-0.4,1-0.4,1.5c0,0.9,0.3,1.6,1,2.1c0.6,0.6,1.6,0.9,2.8,0.9
		c1.2,0,2.3-0.3,3.3-0.8c1-0.5,1.7-1.3,2.1-2.2c0.3-0.7,0.5-1.8,0.5-3.2L375,338.6L375,338.6z"/>
	<path fill="#FFFFFF" d="M382.6,349.6l3.1,0.5c0.1,1,0.5,1.7,1.1,2.1c0.8,0.6,1.9,0.9,3.2,0.9c1.5,0,2.6-0.3,3.4-0.9
		c0.8-0.6,1.3-1.4,1.6-2.5c0.2-0.7,0.2-2,0.2-4.1c-1.4,1.6-3.1,2.5-5.2,2.5c-2.6,0-4.6-0.9-6-2.8c-1.4-1.9-2.1-4.1-2.1-6.7
		c0-1.8,0.3-3.5,1-5c0.6-1.5,1.6-2.7,2.8-3.5c1.2-0.8,2.7-1.2,4.4-1.2c2.2,0,4.1,0.9,5.5,2.7v-2.3h2.9v16.3c0,2.9-0.3,5-0.9,6.2
		c-0.6,1.2-1.5,2.2-2.8,2.9s-2.9,1.1-4.8,1.1c-2.2,0-4.1-0.5-5.4-1.5C383.2,353.1,382.6,351.6,382.6,349.6z M385.3,338.3
		c0,2.5,0.5,4.3,1.5,5.4c1,1.1,2.2,1.7,3.7,1.7c1.5,0,2.7-0.6,3.7-1.7c1-1.1,1.5-2.9,1.5-5.3c0-2.3-0.5-4-1.5-5.2
		c-1-1.2-2.3-1.8-3.7-1.8c-1.4,0-2.6,0.6-3.6,1.7S385.3,336,385.3,338.3z"/>
	<path fill="#FFFFFF" d="M416.3,342l3.3,0.4c-0.5,1.9-1.5,3.4-2.9,4.5s-3.2,1.6-5.4,1.6c-2.8,0-4.9-0.8-6.6-2.5
		c-1.6-1.7-2.4-4.1-2.4-7.1c0-3.2,0.8-5.6,2.4-7.4c1.6-1.7,3.7-2.6,6.3-2.6c2.5,0,4.6,0.9,6.2,2.6c1.6,1.7,2.4,4.1,2.4,7.2
		c0,0.2,0,0.5,0,0.9h-14c0.1,2.1,0.7,3.7,1.8,4.8s2.4,1.6,3.9,1.6c1.2,0,2.2-0.3,3-0.9C415.2,344.3,415.8,343.3,416.3,342z
		 M405.8,336.8h10.5c-0.1-1.6-0.5-2.8-1.2-3.6c-1-1.2-2.3-1.8-4-1.8c-1.5,0-2.7,0.5-3.7,1.5C406.5,333.8,405.9,335.2,405.8,336.8z"
		/>
	<path fill="#FFFFFF" d="M423.6,348v-18.8h2.9v2.9c0.7-1.3,1.4-2.2,2-2.6c0.6-0.4,1.3-0.6,2-0.6c1.1,0,2.2,0.3,3.3,1l-1.1,3
		c-0.8-0.5-1.6-0.7-2.3-0.7c-0.7,0-1.3,0.2-1.9,0.6c-0.6,0.4-1,1-1.2,1.7c-0.4,1.1-0.5,2.4-0.5,3.7v9.9L423.6,348L423.6,348z"/>
</g>
<g>
	<path fill="#FFFFFF" d="M219,440.8v-22.9h-8.6v-3.1h20.6v3.1h-8.6v22.9H219z"/>
	<path fill="#FFFFFF" d="M232.8,440.8v-18.8h2.9v2.9c0.7-1.3,1.4-2.2,2-2.6c0.6-0.4,1.3-0.6,2-0.6c1.1,0,2.2,0.3,3.3,1l-1.1,3
		c-0.8-0.5-1.6-0.7-2.3-0.7c-0.7,0-1.3,0.2-1.9,0.6c-0.6,0.4-1,1-1.2,1.7c-0.4,1.1-0.5,2.4-0.5,3.7v9.9L232.8,440.8L232.8,440.8z"/>
	<path fill="#FFFFFF" d="M257.2,438.4c-1.2,1-2.3,1.7-3.4,2.1s-2.3,0.6-3.5,0.6c-2.1,0-3.7-0.5-4.8-1.5s-1.7-2.3-1.7-3.9
		c0-0.9,0.2-1.8,0.6-2.5c0.4-0.8,1-1.4,1.6-1.8c0.7-0.5,1.4-0.8,2.3-1c0.6-0.2,1.6-0.3,2.8-0.5c2.6-0.3,4.5-0.7,5.7-1.1
		c0-0.4,0-0.7,0-0.8c0-1.3-0.3-2.2-0.9-2.7c-0.8-0.7-2-1.1-3.6-1.1c-1.5,0-2.6,0.3-3.3,0.8c-0.7,0.5-1.2,1.5-1.6,2.8l-3.1-0.4
		c0.3-1.3,0.8-2.4,1.4-3.2c0.6-0.8,1.6-1.5,2.8-1.9c1.2-0.4,2.7-0.7,4.3-0.7c1.6,0,2.9,0.2,3.9,0.6c1,0.4,1.7,0.9,2.2,1.4
		c0.5,0.6,0.8,1.3,1,2.2c0.1,0.5,0.2,1.5,0.2,2.9v4.3c0,3,0.1,4.8,0.2,5.6c0.1,0.8,0.4,1.5,0.8,2.3h-3.3
		C257.5,440.1,257.3,439.3,257.2,438.4z M257,431.3c-1.2,0.5-2.9,0.9-5.2,1.2c-1.3,0.2-2.2,0.4-2.8,0.6c-0.5,0.2-1,0.6-1.3,1
		c-0.3,0.5-0.4,1-0.4,1.5c0,0.9,0.3,1.6,1,2.1c0.6,0.6,1.6,0.9,2.8,0.9c1.2,0,2.3-0.3,3.3-0.8c1-0.5,1.7-1.3,2.1-2.2
		c0.3-0.7,0.5-1.8,0.5-3.2V431.3z"/>
	<path fill="#FFFFFF" d="M265.1,440.8v-18.8h2.9v2.7c1.4-2.1,3.4-3.1,6-3.1c1.1,0,2.2,0.2,3.1,0.6s1.7,0.9,2.1,1.6
		c0.5,0.7,0.8,1.4,1,2.4c0.1,0.6,0.2,1.6,0.2,3.1v11.6h-3.2v-11.5c0-1.3-0.1-2.3-0.4-2.9c-0.2-0.6-0.7-1.2-1.3-1.5
		c-0.6-0.4-1.4-0.6-2.2-0.6c-1.4,0-2.5,0.4-3.5,1.3c-1,0.9-1.5,2.5-1.5,4.9v10.3L265.1,440.8L265.1,440.8z"/>
	<path fill="#FFFFFF" d="M284,435.2l3.2-0.5c0.2,1.3,0.7,2.2,1.5,2.9c0.8,0.7,1.9,1,3.4,1c1.5,0,2.6-0.3,3.3-0.9
		c0.7-0.6,1.1-1.3,1.1-2.1c0-0.7-0.3-1.3-0.9-1.7c-0.4-0.3-1.5-0.6-3.3-1.1c-2.3-0.6-4-1.1-4.9-1.5c-0.9-0.4-1.6-1-2.1-1.8
		c-0.5-0.8-0.7-1.6-0.7-2.5c0-0.8,0.2-1.6,0.6-2.3c0.4-0.7,0.9-1.3,1.6-1.8c0.5-0.4,1.2-0.7,2-0.9c0.9-0.3,1.8-0.4,2.8-0.4
		c1.5,0,2.8,0.2,3.9,0.6c1.1,0.4,1.9,1,2.5,1.7c0.5,0.7,0.9,1.7,1.1,2.9l-3.1,0.4c-0.1-1-0.6-1.7-1.2-2.3c-0.7-0.5-1.6-0.8-2.9-0.8
		c-1.5,0-2.5,0.2-3.1,0.7c-0.6,0.5-0.9,1.1-0.9,1.7c0,0.4,0.1,0.8,0.4,1.1c0.3,0.3,0.7,0.6,1.2,0.9c0.3,0.1,1.3,0.4,2.8,0.8
		c2.3,0.6,3.8,1.1,4.7,1.5c0.9,0.4,1.6,0.9,2.1,1.7c0.5,0.7,0.8,1.6,0.8,2.7c0,1.1-0.3,2.1-0.9,3c-0.6,0.9-1.5,1.7-2.7,2.2
		c-1.2,0.5-2.5,0.8-4,0.8c-2.4,0-4.3-0.5-5.6-1.5C285.2,438.7,284.4,437.1,284,435.2z"/>
	<path fill="#FFFFFF" d="M303.5,418.4v-3.7h3.2v3.7H303.5z M303.5,440.8v-18.8h3.2v18.8H303.5z"/>
	<path fill="#FFFFFF" d="M318.5,437.9l0.5,2.8c-0.9,0.2-1.7,0.3-2.4,0.3c-1.2,0-2.1-0.2-2.7-0.5c-0.6-0.4-1.1-0.8-1.3-1.4
		c-0.3-0.6-0.4-1.9-0.4-3.8v-10.8h-2.3v-2.5h2.3v-4.7l3.2-1.9v6.6h3.2v2.5h-3.2v11c0,0.9,0.1,1.5,0.2,1.8c0.1,0.3,0.3,0.5,0.5,0.6
		c0.3,0.2,0.6,0.2,1.1,0.2C317.5,438,317.9,438,318.5,437.9z"/>
	<path fill="#FFFFFF" d="M321.6,418.4v-3.7h3.2v3.7H321.6z M321.6,440.8v-18.8h3.2v18.8H321.6z"/>
	<path fill="#FFFFFF" d="M328.5,431.4c0-3.5,1-6.1,2.9-7.7c1.6-1.4,3.6-2.1,5.9-2.1c2.6,0,4.7,0.8,6.3,2.5c1.6,1.7,2.5,4,2.5,7
		c0,2.4-0.4,4.3-1.1,5.7c-0.7,1.4-1.8,2.5-3.2,3.2c-1.4,0.8-2.9,1.2-4.5,1.2c-2.6,0-4.8-0.8-6.4-2.5
		C329.3,437,328.5,434.5,328.5,431.4z M331.8,431.4c0,2.4,0.5,4.2,1.6,5.4c1.1,1.2,2.4,1.8,4,1.8c1.6,0,2.9-0.6,4-1.8s1.6-3,1.6-5.5
		c0-2.3-0.5-4.1-1.6-5.3c-1.1-1.2-2.4-1.8-3.9-1.8c-1.6,0-2.9,0.6-4,1.8C332.3,427.1,331.8,428.9,331.8,431.4z"/>
	<path fill="#FFFFFF" d="M349.9,440.8v-18.8h2.9v2.7c1.4-2.1,3.4-3.1,6-3.1c1.1,0,2.2,0.2,3.1,0.6s1.7,0.9,2.1,1.6
		c0.5,0.7,0.8,1.4,1,2.4c0.1,0.6,0.2,1.6,0.2,3.1v11.6H362v-11.5c0-1.3-0.1-2.3-0.4-2.9c-0.2-0.6-0.7-1.2-1.3-1.5
		c-0.6-0.4-1.4-0.6-2.2-0.6c-1.4,0-2.5,0.4-3.5,1.3c-1,0.9-1.5,2.5-1.5,4.9v10.3L349.9,440.8L349.9,440.8z"/>
	<path fill="#FFFFFF" d="M380.5,440.8v-26h5.2l6.2,18.4c0.6,1.7,1,3,1.2,3.8c0.3-0.9,0.8-2.3,1.4-4.2l6.2-18.1h4.6v26H402V419
		l-7.6,21.8h-3.1l-7.5-22.1v22.1H380.5z"/>
	<path fill="#FFFFFF" d="M422.7,438.4c-1.2,1-2.3,1.7-3.4,2.1s-2.3,0.6-3.5,0.6c-2.1,0-3.7-0.5-4.8-1.5c-1.1-1-1.7-2.3-1.7-3.9
		c0-0.9,0.2-1.8,0.6-2.5c0.4-0.8,1-1.4,1.6-1.8c0.7-0.5,1.4-0.8,2.3-1c0.6-0.2,1.6-0.3,2.8-0.5c2.6-0.3,4.5-0.7,5.7-1.1
		c0-0.4,0-0.7,0-0.8c0-1.3-0.3-2.2-0.9-2.7c-0.8-0.7-2-1.1-3.6-1.1c-1.5,0-2.6,0.3-3.3,0.8c-0.7,0.5-1.2,1.5-1.6,2.8l-3.1-0.4
		c0.3-1.3,0.8-2.4,1.4-3.2c0.6-0.8,1.6-1.5,2.8-1.9c1.2-0.4,2.7-0.7,4.3-0.7c1.6,0,2.9,0.2,3.9,0.6c1,0.4,1.7,0.9,2.2,1.4
		c0.5,0.6,0.8,1.3,1,2.2c0.1,0.5,0.2,1.5,0.2,2.9v4.3c0,3,0.1,4.8,0.2,5.6c0.1,0.8,0.4,1.5,0.8,2.3h-3.3
		C423,440.1,422.8,439.3,422.7,438.4z M422.4,431.3c-1.2,0.5-2.9,0.9-5.2,1.2c-1.3,0.2-2.2,0.4-2.8,0.6c-0.5,0.2-1,0.6-1.3,1
		c-0.3,0.5-0.4,1-0.4,1.5c0,0.9,0.3,1.6,1,2.1c0.6,0.6,1.6,0.9,2.8,0.9c1.2,0,2.3-0.3,3.3-0.8c1-0.5,1.7-1.3,2.1-2.2
		c0.3-0.7,0.5-1.8,0.5-3.2L422.4,431.3L422.4,431.3z"/>
	<path fill="#FFFFFF" d="M430.6,440.8v-18.8h2.9v2.7c1.4-2.1,3.4-3.1,6-3.1c1.1,0,2.2,0.2,3.1,0.6c1,0.4,1.7,0.9,2.1,1.6
		c0.5,0.7,0.8,1.4,1,2.4c0.1,0.6,0.2,1.6,0.2,3.1v11.6h-3.2v-11.5c0-1.3-0.1-2.3-0.4-2.9c-0.2-0.6-0.7-1.2-1.3-1.5
		c-0.6-0.4-1.4-0.6-2.2-0.6c-1.4,0-2.5,0.4-3.5,1.3c-1,0.9-1.5,2.5-1.5,4.9v10.3L430.6,440.8L430.6,440.8z"/>
	<path fill="#FFFFFF" d="M463.1,438.4c-1.2,1-2.3,1.7-3.4,2.1c-1.1,0.4-2.3,0.6-3.5,0.6c-2.1,0-3.7-0.5-4.8-1.5s-1.7-2.3-1.7-3.9
		c0-0.9,0.2-1.8,0.6-2.5c0.4-0.8,1-1.4,1.6-1.8c0.7-0.5,1.4-0.8,2.3-1c0.6-0.2,1.6-0.3,2.8-0.5c2.6-0.3,4.5-0.7,5.7-1.1
		c0-0.4,0-0.7,0-0.8c0-1.3-0.3-2.2-0.9-2.7c-0.8-0.7-2-1.1-3.6-1.1c-1.5,0-2.6,0.3-3.3,0.8c-0.7,0.5-1.2,1.5-1.6,2.8l-3.1-0.4
		c0.3-1.3,0.8-2.4,1.4-3.2c0.6-0.8,1.6-1.5,2.8-1.9c1.2-0.4,2.7-0.7,4.3-0.7c1.6,0,2.9,0.2,3.9,0.6c1,0.4,1.7,0.9,2.2,1.4
		c0.5,0.6,0.8,1.3,1,2.2c0.1,0.5,0.2,1.5,0.2,2.9v4.3c0,3,0.1,4.8,0.2,5.6c0.1,0.8,0.4,1.5,0.8,2.3h-3.3
		C463.4,440.1,463.2,439.3,463.1,438.4z M462.8,431.3c-1.2,0.5-2.9,0.9-5.2,1.2c-1.3,0.2-2.2,0.4-2.8,0.6c-0.5,0.2-1,0.6-1.3,1
		c-0.3,0.5-0.4,1-0.4,1.5c0,0.9,0.3,1.6,1,2.1c0.6,0.6,1.6,0.9,2.8,0.9c1.2,0,2.3-0.3,3.3-0.8c1-0.5,1.7-1.3,2.1-2.2
		c0.3-0.7,0.5-1.8,0.5-3.2L462.8,431.3L462.8,431.3z"/>
	<path fill="#FFFFFF" d="M470.4,442.3l3.1,0.5c0.1,1,0.5,1.7,1.1,2.1c0.8,0.6,1.9,0.9,3.2,0.9c1.5,0,2.6-0.3,3.4-0.9
		c0.8-0.6,1.3-1.4,1.6-2.5c0.2-0.7,0.2-2,0.2-4.1c-1.4,1.6-3.1,2.5-5.2,2.5c-2.6,0-4.6-0.9-6-2.8c-1.4-1.9-2.1-4.1-2.1-6.7
		c0-1.8,0.3-3.5,1-5c0.6-1.5,1.6-2.7,2.8-3.5c1.2-0.8,2.7-1.2,4.4-1.2c2.2,0,4.1,0.9,5.5,2.7v-2.3h2.9v16.3c0,2.9-0.3,5-0.9,6.2
		s-1.5,2.2-2.8,2.9s-2.9,1.1-4.8,1.1c-2.2,0-4.1-0.5-5.4-1.5C471,445.9,470.4,444.4,470.4,442.3z M473.1,431c0,2.5,0.5,4.3,1.5,5.4
		s2.2,1.7,3.7,1.7c1.5,0,2.7-0.6,3.7-1.7c1-1.1,1.5-2.9,1.5-5.3c0-2.3-0.5-4-1.5-5.2c-1-1.2-2.3-1.8-3.7-1.8c-1.4,0-2.6,0.6-3.6,1.7
		C473.6,427,473.1,428.8,473.1,431z"/>
	<path fill="#FFFFFF" d="M504.1,434.7l3.3,0.4c-0.5,1.9-1.5,3.4-2.9,4.5c-1.4,1.1-3.2,1.6-5.4,1.6c-2.8,0-4.9-0.8-6.6-2.5
		c-1.6-1.7-2.4-4.1-2.4-7.1c0-3.2,0.8-5.6,2.4-7.4c1.6-1.7,3.7-2.6,6.3-2.6c2.5,0,4.6,0.9,6.2,2.6c1.6,1.7,2.4,4.1,2.4,7.2
		c0,0.2,0,0.5,0,0.9h-14c0.1,2.1,0.7,3.7,1.8,4.8c1.1,1.1,2.4,1.6,3.9,1.6c1.2,0,2.2-0.3,3-0.9C502.9,437,503.6,436.1,504.1,434.7z
		 M493.6,429.5h10.5c-0.1-1.6-0.5-2.8-1.2-3.6c-1-1.2-2.3-1.8-4-1.8c-1.5,0-2.7,0.5-3.7,1.5C494.3,426.6,493.7,427.9,493.6,429.5z"
		/>
	<path fill="#FFFFFF" d="M511.4,440.8v-18.8h2.9v2.9c0.7-1.3,1.4-2.2,2-2.6c0.6-0.4,1.3-0.6,2-0.6c1.1,0,2.2,0.3,3.3,1l-1.1,3
		c-0.8-0.5-1.6-0.7-2.3-0.7c-0.7,0-1.3,0.2-1.9,0.6c-0.6,0.4-1,1-1.2,1.7c-0.4,1.1-0.5,2.4-0.5,3.7v9.9L511.4,440.8L511.4,440.8z"/>
</g>
<g>
	<path fill="#FFFFFF" d="M203,538.7v-26h9.8c2,0,3.6,0.3,4.8,0.8c1.2,0.5,2.1,1.3,2.8,2.4c0.7,1.1,1,2.2,1,3.4
		c0,1.1-0.3,2.2-0.9,3.1c-0.6,1-1.5,1.8-2.7,2.4c1.6,0.5,2.8,1.2,3.6,2.4c0.8,1.1,1.3,2.4,1.3,3.9c0,1.2-0.3,2.3-0.8,3.4
		s-1.2,1.9-1.9,2.4c-0.8,0.6-1.7,1-2.8,1.3c-1.1,0.3-2.5,0.4-4.2,0.4L203,538.7L203,538.7z M206.5,523.6h5.6c1.5,0,2.6-0.1,3.3-0.3
		c0.9-0.3,1.5-0.7,2-1.3s0.7-1.4,0.7-2.3c0-0.9-0.2-1.6-0.6-2.3s-1-1.1-1.8-1.3c-0.8-0.2-2.1-0.4-4-0.4h-5.2L206.5,523.6
		L206.5,523.6z M206.5,535.6h6.5c1.1,0,1.9,0,2.3-0.1c0.8-0.1,1.5-0.4,2-0.7c0.5-0.3,1-0.8,1.3-1.4c0.3-0.6,0.5-1.4,0.5-2.2
		c0-1-0.2-1.8-0.7-2.5c-0.5-0.7-1.2-1.2-2.1-1.5c-0.9-0.3-2.1-0.4-3.8-0.4h-6L206.5,535.6L206.5,535.6z"/>
	<path fill="#FFFFFF" d="M239.3,538.7v-2.8c-1.5,2.1-3.5,3.2-6,3.2c-1.1,0-2.1-0.2-3.1-0.6c-1-0.4-1.7-1-2.1-1.6
		c-0.5-0.6-0.8-1.4-1-2.4c-0.1-0.6-0.2-1.6-0.2-3v-11.7h3.2v10.4c0,1.7,0.1,2.8,0.2,3.4c0.2,0.8,0.6,1.5,1.3,2
		c0.6,0.5,1.5,0.7,2.4,0.7s1.9-0.2,2.7-0.7c0.8-0.5,1.4-1.2,1.8-2c0.3-0.8,0.5-2.1,0.5-3.7v-10.1h3.2v18.8L239.3,538.7L239.3,538.7z
		"/>
	<path fill="#FFFFFF" d="M247.9,538.7v-16.3h-2.8v-2.5h2.8v-2c0-1.3,0.1-2.2,0.3-2.8c0.3-0.8,0.8-1.5,1.6-2c0.8-0.5,1.9-0.8,3.3-0.8
		c0.9,0,1.9,0.1,3,0.3l-0.5,2.8c-0.7-0.1-1.3-0.2-1.9-0.2c-1,0-1.7,0.2-2.1,0.6c-0.4,0.4-0.6,1.2-0.6,2.3v1.7h3.7v2.5h-3.7v16.3
		H247.9z"/>
	<path fill="#FFFFFF" d="M257.4,538.7v-16.3h-2.8v-2.5h2.8v-2c0-1.3,0.1-2.2,0.3-2.8c0.3-0.8,0.8-1.5,1.6-2c0.8-0.5,1.9-0.8,3.3-0.8
		c0.9,0,1.9,0.1,3,0.3l-0.5,2.8c-0.7-0.1-1.3-0.2-1.9-0.2c-1,0-1.7,0.2-2.1,0.6c-0.4,0.4-0.6,1.2-0.6,2.3v1.7h3.7v2.5h-3.7v16.3
		H257.4z"/>
	<path fill="#FFFFFF" d="M279.6,532.6l3.3,0.4c-0.5,1.9-1.5,3.4-2.9,4.5c-1.4,1.1-3.2,1.6-5.4,1.6c-2.8,0-4.9-0.8-6.6-2.5
		c-1.6-1.7-2.4-4.1-2.4-7.1c0-3.2,0.8-5.6,2.4-7.4c1.6-1.7,3.7-2.6,6.3-2.6c2.5,0,4.6,0.9,6.2,2.6c1.6,1.7,2.4,4.1,2.4,7.2
		c0,0.2,0,0.5,0,0.9h-14c0.1,2.1,0.7,3.7,1.8,4.8s2.4,1.6,3.9,1.6c1.2,0,2.2-0.3,3-0.9C278.4,534.9,279.1,534,279.6,532.6z
		 M269.1,527.4h10.5c-0.1-1.6-0.5-2.8-1.2-3.6c-1-1.2-2.3-1.8-4-1.8c-1.5,0-2.7,0.5-3.7,1.5C269.8,524.5,269.2,525.8,269.1,527.4z"
		/>
	<path fill="#FFFFFF" d="M286.9,538.7v-18.8h2.9v2.9c0.7-1.3,1.4-2.2,2-2.6c0.6-0.4,1.3-0.6,2-0.6c1.1,0,2.2,0.3,3.3,1l-1.1,3
		c-0.8-0.5-1.6-0.7-2.3-0.7c-0.7,0-1.3,0.2-1.9,0.6c-0.6,0.4-1,1-1.2,1.7c-0.4,1.1-0.5,2.4-0.5,3.7v9.9L286.9,538.7L286.9,538.7z"/>
	<path fill="#FFFFFF" d="M328,529.6l3.4,0.9c-0.7,2.8-2,5-3.9,6.5c-1.9,1.5-4.2,2.2-6.9,2.2c-2.8,0-5.1-0.6-6.8-1.7
		c-1.8-1.1-3.1-2.8-4-5c-0.9-2.2-1.4-4.5-1.4-7c0-2.7,0.5-5.1,1.6-7.1c1-2,2.5-3.5,4.4-4.6c1.9-1,4-1.6,6.3-1.6c2.6,0,4.8,0.7,6.6,2
		c1.8,1.3,3,3.2,3.7,5.6l-3.4,0.8c-0.6-1.9-1.5-3.3-2.6-4.1c-1.1-0.9-2.6-1.3-4.3-1.3c-2,0-3.7,0.5-5,1.4c-1.3,1-2.3,2.2-2.8,3.9
		s-0.8,3.3-0.8,5c0,2.2,0.3,4.1,1,5.8s1.6,2.9,3,3.7s2.8,1.2,4.4,1.2c1.9,0,3.6-0.6,4.9-1.7C326.6,533.4,327.5,531.7,328,529.6z"/>
	<path fill="#FFFFFF" d="M347.6,536.3c-1.2,1-2.3,1.7-3.4,2.1c-1.1,0.4-2.3,0.6-3.5,0.6c-2.1,0-3.7-0.5-4.8-1.5
		c-1.1-1-1.7-2.3-1.7-3.9c0-0.9,0.2-1.8,0.6-2.5s1-1.4,1.6-1.8c0.7-0.5,1.4-0.8,2.3-1c0.6-0.2,1.6-0.3,2.8-0.5
		c2.6-0.3,4.5-0.7,5.7-1.1c0-0.4,0-0.7,0-0.8c0-1.3-0.3-2.2-0.9-2.7c-0.8-0.7-2-1.1-3.6-1.1c-1.5,0-2.6,0.3-3.3,0.8
		c-0.7,0.5-1.2,1.5-1.6,2.8l-3.1-0.4c0.3-1.3,0.8-2.4,1.4-3.2c0.6-0.8,1.6-1.5,2.8-1.9c1.2-0.4,2.7-0.7,4.3-0.7
		c1.6,0,2.9,0.2,3.9,0.6c1,0.4,1.7,0.9,2.2,1.4c0.5,0.6,0.8,1.3,1,2.2c0.1,0.5,0.2,1.5,0.2,2.9v4.3c0,3,0.1,4.8,0.2,5.6
		c0.1,0.8,0.4,1.5,0.8,2.3h-3.3C347.9,538,347.7,537.2,347.6,536.3z M347.3,529.2c-1.2,0.5-2.9,0.9-5.2,1.2
		c-1.3,0.2-2.2,0.4-2.8,0.6c-0.5,0.2-1,0.6-1.3,1c-0.3,0.5-0.4,1-0.4,1.5c0,0.9,0.3,1.6,1,2.1c0.6,0.6,1.6,0.9,2.8,0.9
		c1.2,0,2.3-0.3,3.3-0.8c1-0.5,1.7-1.3,2.1-2.2c0.3-0.7,0.5-1.8,0.5-3.2L347.3,529.2L347.3,529.2z"/>
	<path fill="#FFFFFF" d="M367.8,531.8l3.1,0.4c-0.3,2.2-1.2,3.9-2.6,5.1c-1.4,1.2-3.1,1.8-5.2,1.8c-2.6,0-4.6-0.8-6.2-2.5
		c-1.6-1.7-2.3-4.1-2.3-7.2c0-2,0.3-3.8,1-5.3c0.7-1.5,1.7-2.7,3.1-3.4c1.4-0.8,2.9-1.1,4.5-1.1c2,0,3.7,0.5,5,1.6
		c1.3,1,2.1,2.5,2.5,4.4l-3.1,0.5c-0.3-1.3-0.8-2.2-1.6-2.9c-0.8-0.6-1.7-1-2.7-1c-1.6,0-2.9,0.6-3.9,1.7c-1,1.2-1.5,3-1.5,5.5
		c0,2.5,0.5,4.4,1.5,5.5c1,1.1,2.2,1.7,3.8,1.7c1.3,0,2.3-0.4,3.1-1.2C367,534.6,367.5,533.4,367.8,531.8z"/>
	<path fill="#FFFFFF" d="M373.6,538.7v-26h3.2v9.3c1.5-1.7,3.4-2.6,5.6-2.6c1.4,0,2.6,0.3,3.6,0.8c1,0.5,1.8,1.3,2.2,2.3
		c0.4,1,0.7,2.4,0.7,4.2v11.9h-3.2v-11.9c0-1.6-0.3-2.8-1-3.5s-1.7-1.1-2.9-1.1c-0.9,0-1.8,0.2-2.7,0.7c-0.8,0.5-1.4,1.2-1.8,2
		c-0.4,0.8-0.5,2-0.5,3.5v10.3L373.6,538.7L373.6,538.7z"/>
	<path fill="#FFFFFF" d="M406.7,532.6l3.3,0.4c-0.5,1.9-1.5,3.4-2.9,4.5c-1.4,1.1-3.2,1.6-5.4,1.6c-2.8,0-4.9-0.8-6.6-2.5
		c-1.6-1.7-2.4-4.1-2.4-7.1c0-3.2,0.8-5.6,2.4-7.4c1.6-1.7,3.7-2.6,6.3-2.6c2.5,0,4.6,0.9,6.2,2.6c1.6,1.7,2.4,4.1,2.4,7.2
		c0,0.2,0,0.5,0,0.9h-14c0.1,2.1,0.7,3.7,1.8,4.8c1.1,1.1,2.4,1.6,3.9,1.6c1.2,0,2.2-0.3,3-0.9C405.6,534.9,406.2,534,406.7,532.6z
		 M396.2,527.4h10.5c-0.1-1.6-0.5-2.8-1.2-3.6c-1-1.2-2.3-1.8-4-1.8c-1.5,0-2.7,0.5-3.7,1.5C396.9,524.5,396.3,525.8,396.2,527.4z"
		/>
</g>
<g>
	<path fill="#FFFFFF" d="M168.6,636l-10.1-26h3.7l6.8,18.9c0.5,1.5,1,2.9,1.4,4.3c0.4-1.4,0.9-2.8,1.4-4.3l7-18.9h3.5l-10.2,26
		L168.6,636L168.6,636z"/>
	<path fill="#FFFFFF" d="M181.8,626.6c0-3.5,1-6.1,2.9-7.7c1.6-1.4,3.6-2.1,5.9-2.1c2.6,0,4.7,0.9,6.3,2.5c1.6,1.7,2.5,4,2.5,7
		c0,2.4-0.4,4.3-1.1,5.7c-0.7,1.4-1.8,2.5-3.2,3.2c-1.4,0.8-2.9,1.2-4.5,1.2c-2.6,0-4.8-0.8-6.4-2.5
		C182.6,632.2,181.8,629.8,181.8,626.6z M185.1,626.6c0,2.4,0.5,4.2,1.6,5.4c1.1,1.2,2.4,1.8,4,1.8c1.6,0,2.9-0.6,4-1.8
		c1.1-1.2,1.6-3,1.6-5.5c0-2.3-0.5-4.1-1.6-5.3c-1.1-1.2-2.4-1.8-3.9-1.8c-1.6,0-2.9,0.6-4,1.8C185.6,622.4,185.1,624.2,185.1,626.6
		z"/>
	<path fill="#FFFFFF" d="M203.1,636v-26h3.2v26H203.1z"/>
	<path fill="#FFFFFF" d="M223.6,636v-2.8c-1.5,2.1-3.5,3.2-6,3.2c-1.1,0-2.1-0.2-3.1-0.6c-1-0.4-1.7-1-2.1-1.6
		c-0.5-0.6-0.8-1.4-1-2.4c-0.1-0.6-0.2-1.6-0.2-3v-11.7h3.2v10.4c0,1.7,0.1,2.8,0.2,3.4c0.2,0.8,0.6,1.5,1.3,2
		c0.7,0.5,1.5,0.7,2.4,0.7s1.9-0.2,2.7-0.7c0.8-0.5,1.4-1.2,1.8-2c0.4-0.8,0.5-2.1,0.5-3.7v-10.1h3.2V636L223.6,636L223.6,636z"/>
	<path fill="#FFFFFF" d="M231.5,636v-18.8h2.9v2.6c0.6-0.9,1.4-1.7,2.4-2.2c1-0.6,2.1-0.8,3.4-0.8c1.4,0,2.5,0.3,3.4,0.9
		c0.9,0.6,1.5,1.4,1.9,2.4c1.5-2.2,3.4-3.3,5.8-3.3c1.9,0,3.3,0.5,4.3,1.6c1,1,1.5,2.6,1.5,4.8V636h-3.2v-11.9
		c0-1.3-0.1-2.2-0.3-2.8c-0.2-0.6-0.6-1-1.1-1.4c-0.5-0.3-1.2-0.5-1.9-0.5c-1.3,0-2.4,0.4-3.3,1.3c-0.9,0.9-1.3,2.3-1.3,4.2V636
		h-3.2v-12.2c0-1.4-0.3-2.5-0.8-3.2c-0.5-0.7-1.4-1.1-2.6-1.1c-0.9,0-1.7,0.2-2.5,0.7c-0.8,0.5-1.3,1.2-1.7,2.1
		c-0.3,0.9-0.5,2.2-0.5,3.9v9.8L231.5,636L231.5,636z"/>
	<path fill="#FFFFFF" d="M274.6,629.9l3.3,0.4c-0.5,1.9-1.5,3.4-2.9,4.5c-1.4,1.1-3.2,1.6-5.4,1.6c-2.8,0-4.9-0.8-6.6-2.5
		c-1.6-1.7-2.4-4.1-2.4-7.1c0-3.2,0.8-5.6,2.4-7.4c1.6-1.7,3.7-2.6,6.3-2.6c2.5,0,4.6,0.9,6.2,2.6c1.6,1.7,2.4,4.1,2.4,7.2
		c0,0.2,0,0.5,0,0.9h-14c0.1,2.1,0.7,3.7,1.8,4.8c1.1,1.1,2.4,1.6,3.9,1.6c1.2,0,2.2-0.3,3-0.9C273.5,632.3,274.1,631.3,274.6,629.9
		z M264.1,624.8h10.5c-0.1-1.6-0.5-2.8-1.2-3.6c-1-1.2-2.3-1.8-4-1.8c-1.5,0-2.7,0.5-3.7,1.5C264.8,621.8,264.2,623.2,264.1,624.8z"
		/>
	<path fill="#FFFFFF" d="M312.5,636v-26h5.2l6.2,18.4c0.6,1.7,1,3,1.2,3.8c0.3-0.9,0.8-2.3,1.4-4.2l6.2-18.1h4.6v26H334v-21.8
		l-7.6,21.8h-3.1l-7.5-22.1V636L312.5,636L312.5,636z"/>
	<path fill="#FFFFFF" d="M354.7,633.7c-1.2,1-2.3,1.7-3.4,2.1c-1.1,0.4-2.3,0.6-3.5,0.6c-2.1,0-3.7-0.5-4.8-1.5
		c-1.1-1-1.7-2.3-1.7-3.9c0-0.9,0.2-1.8,0.6-2.5c0.4-0.8,1-1.4,1.6-1.8c0.7-0.5,1.4-0.8,2.3-1c0.6-0.2,1.6-0.3,2.8-0.5
		c2.6-0.3,4.5-0.7,5.7-1.1c0-0.4,0-0.7,0-0.8c0-1.3-0.3-2.2-0.9-2.7c-0.8-0.7-2-1.1-3.6-1.1c-1.5,0-2.6,0.3-3.3,0.8
		c-0.7,0.5-1.2,1.5-1.6,2.8l-3.1-0.4c0.3-1.3,0.8-2.4,1.4-3.2c0.7-0.8,1.6-1.5,2.8-1.9c1.2-0.4,2.7-0.7,4.3-0.7
		c1.6,0,2.9,0.2,3.9,0.6c1,0.4,1.7,0.9,2.2,1.4c0.5,0.6,0.8,1.3,1,2.2c0.1,0.5,0.2,1.5,0.2,2.9v4.3c0,3,0.1,4.8,0.2,5.6
		c0.1,0.8,0.4,1.5,0.8,2.3h-3.3C355,635.4,354.8,634.6,354.7,633.7z M354.4,626.6c-1.2,0.5-2.9,0.9-5.2,1.2
		c-1.3,0.2-2.2,0.4-2.8,0.6c-0.5,0.2-1,0.6-1.3,1c-0.3,0.5-0.4,1-0.4,1.5c0,0.9,0.3,1.6,1,2.1c0.6,0.6,1.6,0.9,2.8,0.9
		c1.2,0,2.3-0.3,3.3-0.8c1-0.5,1.7-1.3,2.1-2.2c0.3-0.7,0.5-1.8,0.5-3.2L354.4,626.6L354.4,626.6z"/>
	<path fill="#FFFFFF" d="M362.6,636v-18.8h2.9v2.7c1.4-2.1,3.4-3.1,6-3.1c1.1,0,2.2,0.2,3.1,0.6c1,0.4,1.7,0.9,2.1,1.6
		c0.5,0.7,0.8,1.4,1,2.4c0.1,0.6,0.2,1.6,0.2,3.1V636h-3.2v-11.5c0-1.3-0.1-2.3-0.4-2.9c-0.2-0.6-0.7-1.2-1.3-1.5
		c-0.6-0.4-1.4-0.6-2.2-0.6c-1.4,0-2.5,0.4-3.5,1.3c-1,0.9-1.5,2.5-1.5,4.9V636H362.6z"/>
	<path fill="#FFFFFF" d="M395.1,633.7c-1.2,1-2.3,1.7-3.4,2.1c-1.1,0.4-2.3,0.6-3.5,0.6c-2.1,0-3.7-0.5-4.8-1.5
		c-1.1-1-1.7-2.3-1.7-3.9c0-0.9,0.2-1.8,0.6-2.5c0.4-0.8,1-1.4,1.6-1.8c0.7-0.5,1.4-0.8,2.3-1c0.6-0.2,1.6-0.3,2.8-0.5
		c2.6-0.3,4.5-0.7,5.7-1.1c0-0.4,0-0.7,0-0.8c0-1.3-0.3-2.2-0.9-2.7c-0.8-0.7-2-1.1-3.6-1.1c-1.5,0-2.6,0.3-3.3,0.8
		c-0.7,0.5-1.2,1.5-1.6,2.8l-3.1-0.4c0.3-1.3,0.8-2.4,1.4-3.2c0.7-0.8,1.6-1.5,2.8-1.9c1.2-0.4,2.7-0.7,4.3-0.7
		c1.6,0,2.9,0.2,3.9,0.6c1,0.4,1.7,0.9,2.2,1.4c0.5,0.6,0.8,1.3,1,2.2c0.1,0.5,0.2,1.5,0.2,2.9v4.3c0,3,0.1,4.8,0.2,5.6
		c0.1,0.8,0.4,1.5,0.8,2.3h-3.3C395.4,635.4,395.2,634.6,395.1,633.7z M394.8,626.6c-1.2,0.5-2.9,0.9-5.2,1.2
		c-1.3,0.2-2.2,0.4-2.8,0.6c-0.5,0.2-1,0.6-1.3,1c-0.3,0.5-0.4,1-0.4,1.5c0,0.9,0.3,1.6,1,2.1c0.6,0.6,1.6,0.9,2.8,0.9
		c1.2,0,2.3-0.3,3.3-0.8c1-0.5,1.7-1.3,2.1-2.2c0.3-0.7,0.5-1.8,0.5-3.2L394.8,626.6L394.8,626.6z"/>
	<path fill="#FFFFFF" d="M402.4,637.6l3.1,0.5c0.1,1,0.5,1.7,1.1,2.1c0.8,0.6,1.9,0.9,3.2,0.9c1.5,0,2.6-0.3,3.4-0.9
		c0.8-0.6,1.3-1.4,1.6-2.5c0.2-0.6,0.2-2,0.2-4.1c-1.4,1.6-3.1,2.5-5.2,2.5c-2.6,0-4.6-0.9-6-2.8c-1.4-1.9-2.1-4.1-2.1-6.7
		c0-1.8,0.3-3.5,1-5c0.7-1.5,1.6-2.7,2.8-3.5c1.2-0.8,2.7-1.2,4.4-1.2c2.2,0,4.1,0.9,5.5,2.7v-2.3h2.9v16.3c0,2.9-0.3,5-0.9,6.2
		c-0.6,1.2-1.5,2.2-2.8,2.9c-1.3,0.7-2.9,1.1-4.8,1.1c-2.2,0-4.1-0.5-5.4-1.5S402.4,639.6,402.4,637.6z M405.1,626.3
		c0,2.5,0.5,4.3,1.5,5.4c1,1.1,2.2,1.7,3.7,1.7c1.5,0,2.7-0.6,3.7-1.7c1-1.1,1.5-2.9,1.5-5.3c0-2.3-0.5-4-1.5-5.2
		c-1-1.2-2.3-1.8-3.7-1.8c-1.4,0-2.6,0.6-3.6,1.7C405.6,622.3,405.1,624,405.1,626.3z"/>
	<path fill="#FFFFFF" d="M436.1,629.9l3.3,0.4c-0.5,1.9-1.5,3.4-2.9,4.5c-1.4,1.1-3.2,1.6-5.4,1.6c-2.8,0-4.9-0.8-6.6-2.5
		c-1.6-1.7-2.4-4.1-2.4-7.1c0-3.2,0.8-5.6,2.4-7.4c1.6-1.7,3.7-2.6,6.3-2.6c2.5,0,4.6,0.9,6.2,2.6c1.6,1.7,2.4,4.1,2.4,7.2
		c0,0.2,0,0.5,0,0.9h-14c0.1,2.1,0.7,3.7,1.8,4.8c1.1,1.1,2.4,1.6,3.9,1.6c1.2,0,2.2-0.3,3-0.9C435,632.3,435.6,631.3,436.1,629.9z
		 M425.6,624.8h10.5c-0.1-1.6-0.5-2.8-1.2-3.6c-1-1.2-2.3-1.8-4-1.8c-1.5,0-2.7,0.5-3.7,1.5C426.3,621.8,425.7,623.2,425.6,624.8z"
		/>
	<path fill="#FFFFFF" d="M443.4,636v-18.8h2.9v2.9c0.7-1.3,1.4-2.2,2-2.6c0.6-0.4,1.3-0.6,2-0.6c1.1,0,2.2,0.3,3.3,1l-1.1,3
		c-0.8-0.5-1.6-0.7-2.3-0.7c-0.7,0-1.3,0.2-1.9,0.6c-0.6,0.4-0.9,1-1.2,1.7c-0.4,1.1-0.5,2.4-0.5,3.7v9.9L443.4,636L443.4,636z"/>
</g>
<g>
	<path fill="#FFFFFF" d="M211,729.5v-26h9c2,0,3.6,0.1,4.6,0.4c1.5,0.3,2.8,1,3.8,1.9c1.4,1.2,2.4,2.6,3.1,4.4c0.7,1.8,1,3.9,1,6.2
		c0,2-0.2,3.7-0.7,5.2c-0.5,1.5-1.1,2.8-1.8,3.8c-0.7,1-1.5,1.8-2.4,2.4c-0.9,0.6-1.9,1-3.1,1.3c-1.2,0.3-2.6,0.4-4.2,0.4L211,729.5
		L211,729.5z M214.4,726.5h5.5c1.7,0,3.1-0.2,4-0.5c1-0.3,1.8-0.8,2.3-1.3c0.8-0.8,1.5-1.9,1.9-3.3c0.5-1.4,0.7-3,0.7-5
		c0-2.7-0.4-4.8-1.3-6.3c-0.9-1.5-2-2.4-3.3-2.9c-0.9-0.4-2.4-0.5-4.4-0.5h-5.5L214.4,726.5L214.4,726.5z"/>
	<path fill="#FFFFFF" d="M236.8,707.2v-3.7h3.2v3.7H236.8z M236.8,729.5v-18.8h3.2v18.8H236.8z"/>
	<path fill="#FFFFFF" d="M243.6,723.9l3.2-0.5c0.2,1.3,0.7,2.2,1.5,2.9s1.9,1,3.4,1c1.5,0,2.6-0.3,3.3-0.9c0.7-0.6,1.1-1.3,1.1-2.1
		c0-0.7-0.3-1.3-0.9-1.7c-0.4-0.3-1.5-0.6-3.3-1.1c-2.3-0.6-4-1.1-4.9-1.5c-0.9-0.4-1.6-1-2.1-1.8c-0.5-0.8-0.7-1.6-0.7-2.5
		c0-0.8,0.2-1.6,0.6-2.3c0.4-0.7,0.9-1.3,1.6-1.8c0.5-0.4,1.2-0.7,2-0.9c0.9-0.3,1.8-0.4,2.8-0.4c1.5,0,2.8,0.2,3.9,0.6
		c1.1,0.4,1.9,1,2.5,1.7s0.9,1.7,1.1,2.9l-3.1,0.4c-0.1-1-0.6-1.7-1.2-2.3c-0.7-0.5-1.6-0.8-2.9-0.8c-1.5,0-2.5,0.2-3.1,0.7
		c-0.6,0.5-0.9,1.1-0.9,1.7c0,0.4,0.1,0.8,0.4,1.1c0.3,0.3,0.7,0.6,1.2,0.9c0.3,0.1,1.3,0.4,2.8,0.8c2.3,0.6,3.8,1.1,4.7,1.5
		c0.9,0.4,1.6,0.9,2.1,1.7c0.5,0.7,0.8,1.6,0.8,2.7c0,1.1-0.3,2.1-0.9,3c-0.6,0.9-1.5,1.7-2.7,2.2c-1.2,0.5-2.5,0.8-4,0.8
		c-2.4,0-4.3-0.5-5.6-1.5C244.7,727.4,243.9,725.9,243.6,723.9z"/>
	<path fill="#FFFFFF" d="M263,729.5v-26h3.2v14.8l7.6-7.7h4.1l-7.2,7l7.9,11.8h-3.9l-6.2-9.6l-2.3,2.2v7.5L263,729.5L263,729.5z"/>
	<path fill="#FFFFFF" d="M291.7,729.5v-26h9c2,0,3.6,0.1,4.6,0.4c1.5,0.3,2.8,1,3.8,1.9c1.4,1.2,2.4,2.6,3.1,4.4
		c0.7,1.8,1,3.9,1,6.2c0,2-0.2,3.7-0.7,5.2c-0.5,1.5-1.1,2.8-1.8,3.8c-0.7,1-1.5,1.8-2.4,2.4c-0.9,0.6-1.9,1-3.1,1.3
		c-1.2,0.3-2.6,0.4-4.2,0.4L291.7,729.5L291.7,729.5z M295.1,726.5h5.5c1.7,0,3.1-0.2,4-0.5c1-0.3,1.8-0.8,2.3-1.3
		c0.8-0.8,1.5-1.9,1.9-3.3c0.5-1.4,0.7-3,0.7-5c0-2.7-0.4-4.8-1.3-6.3c-0.9-1.5-2-2.4-3.3-2.9c-0.9-0.4-2.4-0.5-4.4-0.5h-5.5
		L295.1,726.5L295.1,726.5z"/>
	<path fill="#FFFFFF" d="M317.4,729.5v-18.8h2.9v2.9c0.7-1.3,1.4-2.2,2-2.6c0.6-0.4,1.3-0.6,2-0.6c1.1,0,2.2,0.3,3.3,1l-1.1,3
		c-0.8-0.5-1.6-0.7-2.3-0.7c-0.7,0-1.3,0.2-1.9,0.6c-0.6,0.4-1,1-1.2,1.7c-0.4,1.1-0.5,2.4-0.5,3.7v9.9L317.4,729.5L317.4,729.5z"/>
	<path fill="#FFFFFF" d="M329.6,707.2v-3.7h3.2v3.7H329.6z M329.6,729.5v-18.8h3.2v18.8H329.6z"/>
	<path fill="#FFFFFF" d="M342.9,729.5l-7.2-18.8h3.4l4,11.3c0.4,1.2,0.8,2.5,1.2,3.8c0.3-1,0.7-2.2,1.2-3.6l4.2-11.5h3.3l-7.1,18.8
		L342.9,729.5L342.9,729.5z"/>
	<path fill="#FFFFFF" d="M368.7,723.5l3.3,0.4c-0.5,1.9-1.5,3.4-2.9,4.5c-1.4,1.1-3.2,1.6-5.4,1.6c-2.8,0-4.9-0.8-6.6-2.5
		c-1.6-1.7-2.4-4.1-2.4-7.1c0-3.2,0.8-5.6,2.4-7.4c1.6-1.8,3.7-2.6,6.3-2.6c2.5,0,4.6,0.9,6.2,2.6c1.6,1.7,2.4,4.1,2.4,7.2
		c0,0.2,0,0.5,0,0.9h-14c0.1,2.1,0.7,3.7,1.8,4.8c1.1,1.1,2.4,1.6,3.9,1.6c1.2,0,2.2-0.3,3-0.9C367.5,725.8,368.2,724.8,368.7,723.5
		z M358.2,718.3h10.5c-0.1-1.6-0.5-2.8-1.2-3.6c-1-1.2-2.3-1.8-4-1.8c-1.5,0-2.7,0.5-3.7,1.5C358.9,715.4,358.3,716.7,358.2,718.3z"
		/>
	<path fill="#FFFFFF" d="M375.9,729.5v-18.8h2.9v2.9c0.7-1.3,1.4-2.2,2-2.6c0.6-0.4,1.3-0.6,2-0.6c1.1,0,2.2,0.3,3.3,1l-1.1,3
		c-0.8-0.5-1.6-0.7-2.3-0.7c-0.7,0-1.3,0.2-1.9,0.6c-0.6,0.4-1,1-1.2,1.7c-0.4,1.1-0.5,2.4-0.5,3.7v9.9L375.9,729.5L375.9,729.5z"/>
	<path fill="#FFFFFF" d="M386.8,723.9l3.2-0.5c0.2,1.3,0.7,2.2,1.5,2.9c0.8,0.7,1.9,1,3.4,1c1.5,0,2.6-0.3,3.3-0.9
		c0.7-0.6,1.1-1.3,1.1-2.1c0-0.7-0.3-1.3-0.9-1.7c-0.4-0.3-1.5-0.6-3.3-1.1c-2.3-0.6-4-1.1-4.9-1.5c-0.9-0.4-1.6-1-2.1-1.8
		c-0.5-0.8-0.7-1.6-0.7-2.5c0-0.8,0.2-1.6,0.6-2.3c0.4-0.7,0.9-1.3,1.6-1.8c0.5-0.4,1.2-0.7,2-0.9c0.9-0.3,1.8-0.4,2.8-0.4
		c1.5,0,2.8,0.2,3.9,0.6c1.1,0.4,1.9,1,2.5,1.7s0.9,1.7,1.1,2.9l-3.1,0.4c-0.1-1-0.6-1.7-1.2-2.3c-0.7-0.5-1.6-0.8-2.9-0.8
		c-1.5,0-2.5,0.2-3.1,0.7c-0.6,0.5-0.9,1.1-0.9,1.7c0,0.4,0.1,0.8,0.4,1.1c0.3,0.3,0.7,0.6,1.2,0.9c0.3,0.1,1.3,0.4,2.8,0.8
		c2.3,0.6,3.8,1.1,4.7,1.5c0.9,0.4,1.6,0.9,2.1,1.7c0.5,0.7,0.8,1.6,0.8,2.7c0,1.1-0.3,2.1-0.9,3s-1.5,1.7-2.7,2.2
		c-1.2,0.5-2.5,0.8-4,0.8c-2.4,0-4.3-0.5-5.6-1.5C388,727.4,387.1,725.9,386.8,723.9z"/>
</g>
<g>
	<g>
		<line fill="none" stroke="#FFFFFF" stroke-miterlimit="10" x1="129.3" y1="108.4" x2="129.3" y2="164.4"/>
		<g>
			<polygon fill="#FFFFFF" points="122.7,159.9 129.3,184.5 135.9,159.9 			"/>
		</g>
	</g>
</g>
<g>
	<g>
		<line fill="none" stroke="#FFFFFF" stroke-miterlimit="10" x1="306" y1="108.4" x2="306" y2="277.9"/>
		<g>
			<polygon fill="#FFFFFF" points="299.4,273.4 306,298 312.6,273.4 			"/>
		</g>
	</g>
</g>
<g>
	<g>
		<line fill="none" stroke="#FFFFFF" stroke-miterlimit="10" x1="482.7" y1="108.4" x2="482.7" y2="164.4"/>
		<g>
			<polygon fill="#FFFFFF" points="476.1,159.9 482.7,184.5 489.3,159.9 			"/>
		</g>
	</g>
</g>
</svg>
