<?xml version="1.0" encoding="utf-8"?>
<!-- Generator: Adobe Illustrator 19.0.0, SVG Export Plug-In . SVG Version: 6.00 Build 0)  -->
<svg version="1.1" id="Layer_1" xmlns="http://www.w3.org/2000/svg" xmlns:xlink="http://www.w3.org/1999/xlink" x="0px" y="0px"
	 viewBox="-143 158.7 504.4 297.3" style="enable-background:new -143 158.7 504.4 297.3;" xml:space="preserve">
<style type="text/css">
	.st0{fill:none;stroke:#FFFFFF;stroke-miterlimit:10;}
	.st1{fill:#FFFFFF;}
	.st2{fill:#EFD305;stroke:#FFFFFF;stroke-miterlimit:10;}
	.st3{fill:#8BCB2F;stroke:#FFFFFF;stroke-miterlimit:10;}
	.st4{fill:#ADCAA6;stroke:#FFFFFF;stroke-miterlimit:10;}
	.st5{fill:#FFFFFF;stroke:#FFFFFF;stroke-miterlimit:10;}
</style>
<g>
	<rect x="-141" y="297" class="st0" width="44" height="124.7"/>
	<line class="st0" x1="-141" y1="409" x2="-97" y2="409"/>
	<line class="st0" x1="-141" y1="396.2" x2="-97" y2="396.2"/>
	<line class="st0" x1="-141" y1="383.5" x2="-97" y2="383.5"/>
	<line class="st0" x1="-141" y1="370.7" x2="-97" y2="370.7"/>
	<line class="st0" x1="-141" y1="358" x2="-97" y2="358"/>
	<line class="st0" x1="-141" y1="345.2" x2="-97" y2="345.2"/>
	<line class="st0" x1="-141" y1="332.5" x2="-97" y2="332.5"/>
</g>
<g>
	<path class="st1" d="M-134.9,318.1v-11.5h1.5v11.5H-134.9z"/>
	<path class="st1" d="M-130.9,318.1v-8.3h1.3v1.2c0.6-0.9,1.5-1.4,2.6-1.4c0.5,0,1,0.1,1.4,0.3s0.7,0.4,0.9,0.7
		c0.2,0.3,0.4,0.6,0.4,1c0.1,0.3,0.1,0.7,0.1,1.4v5.1h-1.4v-5c0-0.6-0.1-1-0.2-1.3c-0.1-0.3-0.3-0.5-0.6-0.7s-0.6-0.3-1-0.3
		c-0.6,0-1.1,0.2-1.6,0.6c-0.4,0.4-0.7,1.1-0.7,2.2v4.5L-130.9,318.1L-130.9,318.1z"/>
	<path class="st1" d="M-121.6,318.1v-7.2h-1.2v-1.1h1.2v-0.9c0-0.6,0-1,0.1-1.2c0.1-0.4,0.4-0.7,0.7-0.9c0.3-0.2,0.8-0.3,1.4-0.3
		c0.4,0,0.8,0,1.3,0.1l-0.2,1.2c-0.3-0.1-0.6-0.1-0.8-0.1c-0.4,0-0.7,0.1-0.9,0.3s-0.3,0.5-0.3,1v0.8h1.6v1.1h-1.6v7.2H-121.6z"/>
	<path class="st1" d="M-118,314c0-1.5,0.4-2.7,1.3-3.4c0.7-0.6,1.6-0.9,2.6-0.9c1.1,0,2.1,0.4,2.8,1.1s1.1,1.8,1.1,3.1
		c0,1.1-0.2,1.9-0.5,2.5c-0.3,0.6-0.8,1.1-1.4,1.4c-0.6,0.3-1.3,0.5-2,0.5c-1.2,0-2.1-0.4-2.8-1.1C-117.7,316.5-118,315.4-118,314z
		 M-116.6,314c0,1.1,0.2,1.9,0.7,2.4s1,0.8,1.8,0.8c0.7,0,1.3-0.3,1.7-0.8c0.5-0.5,0.7-1.3,0.7-2.4c0-1-0.2-1.8-0.7-2.3
		s-1-0.8-1.7-0.8s-1.3,0.3-1.8,0.8C-116.4,312.1-116.6,312.9-116.6,314z"/>
	<path class="st1" d="M-109.2,315.7l1.4-0.2c0.1,0.6,0.3,1,0.7,1.3s0.9,0.4,1.5,0.4s1.1-0.1,1.4-0.4c0.3-0.3,0.5-0.6,0.5-0.9
		s-0.1-0.6-0.4-0.8c-0.2-0.1-0.7-0.3-1.4-0.5c-1-0.3-1.7-0.5-2.1-0.7c-0.4-0.2-0.7-0.5-0.9-0.8s-0.3-0.7-0.3-1.1
		c0-0.4,0.1-0.7,0.3-1s0.4-0.6,0.7-0.8c0.2-0.2,0.5-0.3,0.9-0.4c0.4-0.1,0.8-0.2,1.2-0.2c0.7,0,1.2,0.1,1.7,0.3s0.9,0.4,1.1,0.8
		c0.2,0.3,0.4,0.7,0.5,1.3l-1.4,0.2c-0.1-0.4-0.2-0.8-0.5-1s-0.7-0.4-1.3-0.4s-1.1,0.1-1.4,0.3c-0.3,0.2-0.4,0.5-0.4,0.8
		c0,0.2,0.1,0.3,0.2,0.5c0.1,0.2,0.3,0.3,0.5,0.4c0.1,0.1,0.6,0.2,1.2,0.4c1,0.3,1.7,0.5,2.1,0.7c0.4,0.2,0.7,0.4,0.9,0.7
		s0.3,0.7,0.3,1.2s-0.1,0.9-0.4,1.3c-0.3,0.4-0.7,0.7-1.2,1c-0.5,0.2-1.1,0.3-1.8,0.3c-1.1,0-1.9-0.2-2.5-0.7
		C-108.7,317.2-109,316.5-109.2,315.7z"/>
</g>
<rect x="-30" y="183.9" class="st2" width="34.1" height="25.7"/>
<rect x="-30" y="221.8" class="st2" width="34.1" height="25.7"/>
<rect x="-30" y="259.7" class="st2" width="34.1" height="25.7"/>
<rect x="-30" y="297.7" class="st2" width="34.1" height="25.7"/>
<rect x="-30" y="335.6" class="st2" width="34.1" height="25.7"/>
<rect x="117" y="252.6" class="st3" width="34.1" height="25.7"/>
<rect x="117" y="290.5" class="st3" width="34.1" height="25.7"/>
<rect x="117" y="328.4" class="st3" width="34.1" height="25.7"/>
<rect x="313.9" y="286" class="st3" width="34.1" height="25.7"/>
<rect x="313.9" y="323.9" class="st3" width="34.1" height="25.7"/>
<rect x="313.9" y="361.9" class="st3" width="34.1" height="25.7"/>
<g>
	<rect x="34.6" y="355.7" class="st4" width="31.3" height="25.5"/>
	<line class="st0" x1="34.6" y1="374.9" x2="65.9" y2="374.9"/>
	<line class="st0" x1="34.6" y1="368.5" x2="65.9" y2="368.5"/>
	<line class="st0" x1="34.6" y1="362.1" x2="65.9" y2="362.1"/>
</g>
<g>
	<rect x="127.4" y="403.1" class="st4" width="31.3" height="25.5"/>
	<line class="st0" x1="127.4" y1="422.2" x2="158.7" y2="422.2"/>
	<line class="st0" x1="127.4" y1="415.8" x2="158.7" y2="415.8"/>
	<line class="st0" x1="127.4" y1="409.4" x2="158.7" y2="409.4"/>
</g>
<g>
	<rect x="220.3" y="314.5" class="st4" width="31.3" height="25.5"/>
	<line class="st0" x1="220.3" y1="375.4" x2="251.6" y2="375.4"/>
	<line class="st0" x1="220.3" y1="327.3" x2="251.6" y2="327.3"/>
	<line class="st0" x1="220.3" y1="320.9" x2="251.6" y2="320.9"/>
</g>
<g>
	<rect x="220.3" y="372.5" class="st4" width="31.3" height="25.5"/>
	<line class="st0" x1="220.3" y1="391.6" x2="251.6" y2="391.6"/>
	<line class="st0" x1="220.3" y1="385.2" x2="251.6" y2="385.2"/>
	<line class="st0" x1="220.3" y1="378.8" x2="251.6" y2="378.8"/>
</g>
<g>
	<rect x="220.3" y="430.4" class="st4" width="31.3" height="25.5"/>
	<line class="st0" x1="220.3" y1="449.5" x2="251.6" y2="449.5"/>
	<line class="st0" x1="220.3" y1="443.2" x2="251.6" y2="443.2"/>
	<line class="st0" x1="220.3" y1="436.8" x2="251.6" y2="436.8"/>
</g>
<g>
	<g>
		<line class="st0" x1="-97" y1="338.4" x2="-33.8" y2="204.8"/>
		<g>
			<polygon class="st5" points="-32,207.8 -30,196.8 -37.3,205.3 			"/>
		</g>
	</g>
</g>
<g>
	<g>
		<line class="st0" x1="-97" y1="353.9" x2="-34.4" y2="242.4"/>
		<g>
			<polygon class="st5" points="-32.8,245.5 -30,234.7 -37.9,242.7 			"/>
		</g>
	</g>
</g>
<g>
	<g>
		<line class="st0" x1="-97" y1="362.7" x2="-35.3" y2="279.7"/>
		<g>
			<polygon class="st5" points="-34.2,283 -30,272.6 -38.8,279.5 			"/>
		</g>
	</g>
</g>
<g>
	<g>
		<line class="st0" x1="-97" y1="376.8" x2="-36.3" y2="316.7"/>
		<g>
			<polygon class="st5" points="-35.7,320.2 -30,310.5 -39.8,316 			"/>
		</g>
	</g>
</g>
<g>
	<g>
		<line class="st0" x1="-97" y1="392.5" x2="-37.4" y2="353.3"/>
		<g>
			<polygon class="st5" points="-37.5,356.8 -30,348.4 -40.7,351.9 			"/>
		</g>
	</g>
</g>
<g>
	<g>
		<line class="st0" x1="61" y1="355" x2="112.3" y2="273.1"/>
		<g>
			<polygon class="st5" points="113.7,276.3 117,265.6 108.8,273.2 			"/>
		</g>
	</g>
</g>
<g>
	<g>
		<line class="st0" x1="66.6" y1="359" x2="111.1" y2="310"/>
		<g>
			<polygon class="st5" points="111.9,313.4 117,303.5 107.6,309.5 			"/>
		</g>
	</g>
</g>
<g>
	<g>
		<line class="st0" x1="67.6" y1="370.2" x2="109.4" y2="345.8"/>
		<g>
			<polygon class="st5" points="109.1,349.3 117,341.4 106.2,344.3 			"/>
		</g>
	</g>
</g>
<g>
	<g>
		<line class="st0" x1="153.3" y1="403.1" x2="214.4" y2="333.9"/>
		<g>
			<polygon class="st5" points="215.3,337.3 220.3,327.3 210.9,333.5 			"/>
		</g>
	</g>
</g>
<g>
	<g>
		<line class="st0" x1="158.9" y1="413.6" x2="212.2" y2="388.9"/>
		<g>
			<polygon class="st5" points="211.7,392.4 220.3,385.2 209.2,387.1 			"/>
		</g>
	</g>
</g>
<g>
	<g>
		<line class="st0" x1="159.9" y1="424.7" x2="211.8" y2="440.6"/>
		<g>
			<polygon class="st5" points="209,442.8 220.3,443.2 210.7,437.2 			"/>
		</g>
	</g>
</g>
<g>
	<g>
		<line class="st0" x1="-97" y1="402.2" x2="26" y2="370.7"/>
		<g>
			<polygon class="st5" points="24.8,374 34.6,368.5 23.4,368.4 			"/>
		</g>
	</g>
</g>
<g>
	<g>
		<line class="st0" x1="-97" y1="414" x2="118.5" y2="415.8"/>
		<g>
			<polygon class="st5" points="116.5,418.6 127.4,415.8 116.6,412.8 			"/>
		</g>
	</g>
</g>
<g>
	<g>
		<line class="st0" x1="246.6" y1="314.4" x2="305.3" y2="300.7"/>
		<g>
			<polygon class="st5" points="304,304 313.9,298.7 302.7,298.3 			"/>
		</g>
	</g>
</g>
<g>
	<g>
		<line class="st0" x1="252.1" y1="325.7" x2="305.2" y2="335.2"/>
		<g>
			<polygon class="st5" points="302.8,337.7 313.9,336.8 303.8,332 			"/>
		</g>
	</g>
</g>
<g>
	<g>
		<line class="st0" x1="253.1" y1="336.8" x2="306.4" y2="368.8"/>
		<g>
			<polygon class="st5" points="303.2,370.3 313.9,373.4 306.2,365.3 			"/>
		</g>
	</g>
</g>
<g>
	<path class="st1" d="M-138.1,290.5v-11h1.5v11H-138.1z"/>
	<path class="st1" d="M-134.2,290.5v-8h1.2v1.1c0.6-0.9,1.4-1.3,2.5-1.3c0.5,0,0.9,0.1,1.3,0.3c0.4,0.2,0.7,0.4,0.9,0.7
		c0.2,0.3,0.3,0.6,0.4,1c0,0.3,0.1,0.7,0.1,1.3v4.9h-1.4v-4.9c0-0.6-0.1-1-0.2-1.2s-0.3-0.5-0.6-0.7c-0.3-0.2-0.6-0.2-0.9-0.2
		c-0.6,0-1.1,0.2-1.5,0.6s-0.6,1.1-0.6,2.1v4.4H-134.2z"/>
	<path class="st1" d="M-126.2,286.5c0-1.5,0.4-2.6,1.2-3.3c0.7-0.6,1.5-0.9,2.5-0.9c1.1,0,2,0.4,2.7,1.1s1,1.7,1,3
		c0,1-0.2,1.8-0.5,2.4c-0.3,0.6-0.8,1-1.3,1.4c-0.6,0.3-1.2,0.5-1.9,0.5c-1.1,0-2-0.4-2.7-1.1C-125.8,288.9-126.2,287.9-126.2,286.5
		z M-124.8,286.5c0,1,0.2,1.8,0.7,2.3c0.4,0.5,1,0.8,1.7,0.8c0.7,0,1.2-0.3,1.7-0.8c0.4-0.5,0.7-1.3,0.7-2.3c0-1-0.2-1.7-0.7-2.2
		c-0.4-0.5-1-0.8-1.7-0.8c-0.7,0-1.2,0.3-1.7,0.8C-124.6,284.7-124.8,285.5-124.8,286.5z"/>
	<path class="st1" d="M-111.9,290.5v-1c-0.5,0.8-1.3,1.2-2.2,1.2c-0.6,0-1.2-0.2-1.8-0.5c-0.5-0.4-0.9-0.8-1.2-1.5s-0.4-1.4-0.4-2.2
		c0-0.8,0.1-1.5,0.4-2.2s0.7-1.1,1.2-1.5s1.1-0.5,1.8-0.5c0.5,0,0.9,0.1,1.3,0.3c0.4,0.2,0.7,0.5,0.9,0.8v-4h1.3v11H-111.9z
		 M-116.2,286.5c0,1,0.2,1.8,0.6,2.3c0.4,0.5,0.9,0.8,1.5,0.8c0.6,0,1.1-0.2,1.5-0.7c0.4-0.5,0.6-1.2,0.6-2.2c0-1.1-0.2-1.9-0.6-2.4
		c-0.4-0.5-0.9-0.8-1.6-0.8c-0.6,0-1.1,0.2-1.5,0.7C-116,284.7-116.2,285.4-116.2,286.5z"/>
	<path class="st1" d="M-103,287.9l1.4,0.2c-0.2,0.8-0.6,1.5-1.2,1.9c-0.6,0.5-1.4,0.7-2.3,0.7c-1.2,0-2.1-0.4-2.8-1.1
		c-0.7-0.7-1-1.7-1-3c0-1.3,0.3-2.4,1-3.1c0.7-0.7,1.6-1.1,2.7-1.1c1.1,0,1.9,0.4,2.6,1.1c0.7,0.7,1,1.8,1,3.1c0,0.1,0,0.2,0,0.4h-6
		c0.1,0.9,0.3,1.6,0.7,2c0.4,0.5,1,0.7,1.7,0.7c0.5,0,0.9-0.1,1.3-0.4C-103.5,288.9-103.2,288.5-103,287.9z M-107.5,285.7h4.5
		c-0.1-0.7-0.2-1.2-0.5-1.5c-0.4-0.5-1-0.8-1.7-0.8c-0.6,0-1.1,0.2-1.6,0.6C-107.2,284.5-107.4,285-107.5,285.7z"/>
</g>
<g>
	<path class="st1" d="M-55.7,177.3v-10h3.5c0.8,0,1.4,0,1.8,0.1c0.6,0.1,1.1,0.4,1.5,0.7c0.5,0.4,0.9,1,1.2,1.7s0.4,1.5,0.4,2.4
		c0,0.8-0.1,1.4-0.3,2s-0.4,1.1-0.7,1.5s-0.6,0.7-0.9,0.9s-0.7,0.4-1.2,0.5s-1,0.2-1.6,0.2H-55.7z M-54.4,176.2h2.1
		c0.7,0,1.2-0.1,1.6-0.2s0.7-0.3,0.9-0.5c0.3-0.3,0.6-0.7,0.7-1.3s0.3-1.2,0.3-1.9c0-1-0.2-1.9-0.5-2.4s-0.8-0.9-1.3-1.1
		c-0.4-0.1-0.9-0.2-1.7-0.2h-2.1V176.2z"/>
	<path class="st1" d="M-45.7,168.7v-1.4h1.2v1.4H-45.7z M-45.7,177.3v-7.3h1.2v7.3H-45.7z"/>
	<path class="st1" d="M-42.6,177.3v-7.3h1.1v1.1c0.3-0.5,0.5-0.9,0.8-1s0.5-0.2,0.8-0.2c0.4,0,0.8,0.1,1.3,0.4l-0.4,1.1
		c-0.3-0.2-0.6-0.3-0.9-0.3c-0.3,0-0.5,0.1-0.7,0.2s-0.4,0.4-0.5,0.7c-0.1,0.4-0.2,0.9-0.2,1.4v3.8H-42.6z"/>
	<path class="st1" d="M-33,175l1.3,0.2c-0.2,0.7-0.6,1.3-1.1,1.7s-1.2,0.6-2.1,0.6c-1.1,0-1.9-0.3-2.5-1s-0.9-1.6-0.9-2.8
		c0-1.2,0.3-2.2,0.9-2.8s1.4-1,2.4-1c1,0,1.8,0.3,2.4,1s0.9,1.6,0.9,2.8c0,0.1,0,0.2,0,0.3h-5.4c0,0.8,0.3,1.4,0.7,1.8
		s0.9,0.6,1.5,0.6c0.5,0,0.8-0.1,1.2-0.4S-33.2,175.5-33,175z M-37,173h4.1c-0.1-0.6-0.2-1.1-0.5-1.4c-0.4-0.5-0.9-0.7-1.5-0.7
		c-0.6,0-1,0.2-1.4,0.6S-37,172.4-37,173z"/>
	<path class="st1" d="M-25.4,174.7l1.2,0.2c-0.1,0.8-0.5,1.5-1,2s-1.2,0.7-2,0.7c-1,0-1.8-0.3-2.4-1s-0.9-1.6-0.9-2.8
		c0-0.8,0.1-1.5,0.4-2.1s0.7-1,1.2-1.3s1.1-0.4,1.7-0.4c0.8,0,1.4,0.2,1.9,0.6s0.8,1,1,1.7l-1.2,0.2c-0.1-0.5-0.3-0.9-0.6-1.1
		s-0.6-0.4-1-0.4c-0.6,0-1.1,0.2-1.5,0.7s-0.6,1.1-0.6,2.1c0,1,0.2,1.7,0.6,2.1s0.9,0.7,1.5,0.7c0.5,0,0.9-0.1,1.2-0.4
		S-25.5,175.3-25.4,174.7z"/>
	<path class="st1" d="M-20.5,176.2l0.2,1.1c-0.3,0.1-0.7,0.1-0.9,0.1c-0.4,0-0.8-0.1-1-0.2s-0.4-0.3-0.5-0.6s-0.2-0.7-0.2-1.5V171
		h-0.9v-1h0.9v-1.8l1.2-0.7v2.5h1.2v1h-1.2v4.2c0,0.4,0,0.6,0.1,0.7s0.1,0.2,0.2,0.2s0.2,0.1,0.4,0.1
		C-20.9,176.3-20.7,176.3-20.5,176.2z"/>
	<path class="st1" d="M-15.3,177.3v-10h3.8c0.8,0,1.4,0.1,1.8,0.3s0.8,0.5,1.1,0.9s0.4,0.9,0.4,1.3c0,0.4-0.1,0.8-0.3,1.2
		s-0.6,0.7-1.1,0.9c0.6,0.2,1.1,0.5,1.4,0.9s0.5,0.9,0.5,1.5c0,0.5-0.1,0.9-0.3,1.3s-0.4,0.7-0.7,0.9s-0.7,0.4-1.1,0.5
		s-1,0.2-1.6,0.2H-15.3z M-14,171.5h2.2c0.6,0,1,0,1.3-0.1c0.3-0.1,0.6-0.3,0.8-0.5s0.3-0.5,0.3-0.9c0-0.3-0.1-0.6-0.2-0.9
		s-0.4-0.4-0.7-0.5s-0.8-0.1-1.5-0.1h-2V171.5z M-14,176.2h2.5c0.4,0,0.7,0,0.9,0c0.3-0.1,0.6-0.1,0.8-0.3s0.4-0.3,0.5-0.6
		s0.2-0.5,0.2-0.8c0-0.4-0.1-0.7-0.3-1s-0.5-0.5-0.8-0.6s-0.8-0.2-1.5-0.2H-14V176.2z"/>
	<path class="st1" d="M-6.1,177.3v-10h1.2v10H-6.1z"/>
	<path class="st1" d="M-3.4,173.7c0-1.3,0.4-2.3,1.1-3c0.6-0.5,1.4-0.8,2.3-0.8c1,0,1.8,0.3,2.4,1s1,1.6,1,2.7
		c0,0.9-0.1,1.7-0.4,2.2s-0.7,1-1.2,1.2s-1.1,0.4-1.8,0.4c-1,0-1.8-0.3-2.5-1S-3.4,174.9-3.4,173.7z M-2.1,173.7
		c0,0.9,0.2,1.6,0.6,2.1s0.9,0.7,1.5,0.7c0.6,0,1.1-0.2,1.5-0.7s0.6-1.2,0.6-2.1c0-0.9-0.2-1.6-0.6-2s-0.9-0.7-1.5-0.7
		c-0.6,0-1.1,0.2-1.5,0.7S-2.1,172.8-2.1,173.7z"/>
	<path class="st1" d="M9.6,174.7l1.2,0.2c-0.1,0.8-0.5,1.5-1,2s-1.2,0.7-2,0.7c-1,0-1.8-0.3-2.4-1s-0.9-1.6-0.9-2.8
		c0-0.8,0.1-1.5,0.4-2.1s0.7-1,1.2-1.3s1.1-0.4,1.7-0.4c0.8,0,1.4,0.2,1.9,0.6s0.8,1,1,1.7l-1.2,0.2c-0.1-0.5-0.3-0.9-0.6-1.1
		s-0.6-0.4-1-0.4c-0.6,0-1.1,0.2-1.5,0.7s-0.6,1.1-0.6,2.1c0,1,0.2,1.7,0.6,2.1s0.9,0.7,1.5,0.7c0.5,0,0.9-0.1,1.2-0.4
		S9.5,175.3,9.6,174.7z"/>
	<path class="st1" d="M11.8,177.3v-10h1.2v5.7l2.9-3h1.6l-2.8,2.7l3.1,4.6h-1.5l-2.4-3.7l-0.9,0.8v2.9H11.8z"/>
	<path class="st1" d="M18.3,175.2l1.2-0.2c0.1,0.5,0.3,0.9,0.6,1.1s0.7,0.4,1.3,0.4c0.6,0,1-0.1,1.3-0.3s0.4-0.5,0.4-0.8
		c0-0.3-0.1-0.5-0.4-0.7c-0.2-0.1-0.6-0.2-1.3-0.4c-0.9-0.2-1.5-0.4-1.9-0.6s-0.6-0.4-0.8-0.7s-0.3-0.6-0.3-1c0-0.3,0.1-0.6,0.2-0.9
		s0.3-0.5,0.6-0.7c0.2-0.1,0.5-0.3,0.8-0.4s0.7-0.1,1.1-0.1c0.6,0,1.1,0.1,1.5,0.2s0.7,0.4,1,0.7s0.3,0.7,0.4,1.1l-1.2,0.2
		c-0.1-0.4-0.2-0.7-0.5-0.9s-0.6-0.3-1.1-0.3c-0.6,0-1,0.1-1.2,0.3s-0.4,0.4-0.4,0.7c0,0.2,0.1,0.3,0.2,0.4c0.1,0.1,0.3,0.2,0.5,0.3
		c0.1,0,0.5,0.2,1.1,0.3c0.9,0.2,1.5,0.4,1.8,0.6s0.6,0.4,0.8,0.6s0.3,0.6,0.3,1.1c0,0.4-0.1,0.8-0.4,1.2s-0.6,0.6-1,0.8
		s-1,0.3-1.5,0.3c-0.9,0-1.7-0.2-2.2-0.6S18.5,175.9,18.3,175.2z"/>
</g>
<g>
	<path class="st1" d="M95.5,245.5v-10h1.3v10H95.5z"/>
	<path class="st1" d="M99,245.5v-7.3h1.1v1c0.5-0.8,1.3-1.2,2.3-1.2c0.4,0,0.8,0.1,1.2,0.2s0.6,0.4,0.8,0.6s0.3,0.6,0.4,0.9
		c0,0.2,0.1,0.6,0.1,1.2v4.5h-1.2v-4.4c0-0.5,0-0.9-0.1-1.1s-0.3-0.4-0.5-0.6s-0.5-0.2-0.9-0.2c-0.5,0-1,0.2-1.4,0.5s-0.6,1-0.6,1.9
		v4H99z"/>
	<path class="st1" d="M111.5,245.5v-0.9c-0.5,0.7-1.1,1.1-2,1.1c-0.6,0-1.1-0.2-1.6-0.5s-0.9-0.8-1.1-1.3s-0.4-1.2-0.4-2
		c0-0.7,0.1-1.4,0.4-2s0.6-1,1.1-1.4s1-0.5,1.6-0.5c0.4,0,0.8,0.1,1.2,0.3s0.6,0.4,0.8,0.7v-3.6h1.2v10H111.5z M107.6,241.9
		c0,0.9,0.2,1.6,0.6,2.1s0.9,0.7,1.4,0.7c0.5,0,1-0.2,1.4-0.7s0.6-1.1,0.6-2c0-1-0.2-1.7-0.6-2.2s-0.9-0.7-1.4-0.7
		c-0.5,0-1,0.2-1.4,0.7S107.6,240.9,107.6,241.9z"/>
	<path class="st1" d="M114.6,236.9v-1.4h1.2v1.4H114.6z M114.6,245.5v-7.3h1.2v7.3H114.6z"/>
	<path class="st1" d="M117.7,245.5v-7.3h1.1v1.1c0.3-0.5,0.5-0.9,0.8-1s0.5-0.2,0.8-0.2c0.4,0,0.8,0.1,1.3,0.4l-0.4,1.1
		c-0.3-0.2-0.6-0.3-0.9-0.3c-0.3,0-0.5,0.1-0.7,0.2c-0.2,0.2-0.4,0.4-0.5,0.7c-0.1,0.4-0.2,0.9-0.2,1.4v3.8H117.7z"/>
	<path class="st1" d="M127.4,243.2l1.3,0.2c-0.2,0.7-0.6,1.3-1.1,1.7c-0.5,0.4-1.2,0.6-2.1,0.6c-1.1,0-1.9-0.3-2.5-1
		s-0.9-1.6-0.9-2.8c0-1.2,0.3-2.2,0.9-2.8s1.4-1,2.4-1c1,0,1.8,0.3,2.4,1s0.9,1.6,0.9,2.8c0,0.1,0,0.2,0,0.3h-5.4
		c0,0.8,0.3,1.4,0.7,1.8c0.4,0.4,0.9,0.6,1.5,0.6c0.5,0,0.8-0.1,1.2-0.4C126.9,244.1,127.2,243.7,127.4,243.2z M123.3,241.2h4.1
		c-0.1-0.6-0.2-1.1-0.5-1.4c-0.4-0.5-0.9-0.7-1.5-0.7c-0.6,0-1,0.2-1.4,0.6C123.6,240,123.4,240.5,123.3,241.2z"/>
	<path class="st1" d="M134.9,242.8l1.2,0.2c-0.1,0.8-0.5,1.5-1,2c-0.5,0.5-1.2,0.7-2,0.7c-1,0-1.8-0.3-2.4-1
		c-0.6-0.6-0.9-1.6-0.9-2.8c0-0.8,0.1-1.5,0.4-2.1s0.7-1,1.2-1.3c0.5-0.3,1.1-0.4,1.7-0.4c0.8,0,1.4,0.2,1.9,0.6
		c0.5,0.4,0.8,1,1,1.7l-1.2,0.2c-0.1-0.5-0.3-0.9-0.6-1.1c-0.3-0.2-0.6-0.4-1-0.4c-0.6,0-1.1,0.2-1.5,0.7c-0.4,0.4-0.6,1.1-0.6,2.1
		c0,1,0.2,1.7,0.6,2.1c0.4,0.4,0.9,0.7,1.5,0.7c0.5,0,0.9-0.1,1.2-0.4C134.6,243.9,134.8,243.5,134.9,242.8z"/>
	<path class="st1" d="M139.9,244.4l0.2,1.1c-0.3,0.1-0.7,0.1-0.9,0.1c-0.4,0-0.8-0.1-1-0.2s-0.4-0.3-0.5-0.6
		c-0.1-0.2-0.2-0.7-0.2-1.5v-4.2h-0.9v-1h0.9v-1.8l1.2-0.7v2.5h1.2v1h-1.2v4.2c0,0.4,0,0.6,0.1,0.7c0,0.1,0.1,0.2,0.2,0.2
		c0.1,0.1,0.2,0.1,0.4,0.1C139.5,244.4,139.6,244.4,139.9,244.4z"/>
	<path class="st1" d="M145.1,245.5v-10h3.8c0.8,0,1.4,0.1,1.8,0.3c0.5,0.2,0.8,0.5,1.1,0.9c0.3,0.4,0.4,0.9,0.4,1.3
		c0,0.4-0.1,0.8-0.3,1.2s-0.6,0.7-1.1,0.9c0.6,0.2,1.1,0.5,1.4,0.9c0.3,0.4,0.5,0.9,0.5,1.5c0,0.5-0.1,0.9-0.3,1.3s-0.4,0.7-0.7,0.9
		c-0.3,0.2-0.7,0.4-1.1,0.5c-0.4,0.1-1,0.2-1.6,0.2H145.1z M146.4,239.7h2.2c0.6,0,1,0,1.3-0.1c0.3-0.1,0.6-0.3,0.8-0.5
		s0.3-0.5,0.3-0.9c0-0.3-0.1-0.6-0.2-0.9c-0.2-0.3-0.4-0.4-0.7-0.5c-0.3-0.1-0.8-0.1-1.5-0.1h-2V239.7z M146.4,244.3h2.5
		c0.4,0,0.7,0,0.9,0c0.3-0.1,0.6-0.1,0.8-0.3s0.4-0.3,0.5-0.6c0.1-0.2,0.2-0.5,0.2-0.8c0-0.4-0.1-0.7-0.3-1s-0.5-0.5-0.8-0.6
		c-0.3-0.1-0.8-0.2-1.5-0.2h-2.3V244.3z"/>
	<path class="st1" d="M154.3,245.5v-10h1.2v10H154.3z"/>
	<path class="st1" d="M156.9,241.9c0-1.3,0.4-2.3,1.1-3c0.6-0.5,1.4-0.8,2.3-0.8c1,0,1.8,0.3,2.4,1c0.6,0.7,1,1.6,1,2.7
		c0,0.9-0.1,1.7-0.4,2.2s-0.7,1-1.2,1.2c-0.5,0.3-1.1,0.4-1.8,0.4c-1,0-1.8-0.3-2.5-1C157.3,244,156.9,243.1,156.9,241.9z
		 M158.2,241.9c0,0.9,0.2,1.6,0.6,2.1c0.4,0.5,0.9,0.7,1.5,0.7c0.6,0,1.1-0.2,1.5-0.7c0.4-0.5,0.6-1.2,0.6-2.1c0-0.9-0.2-1.6-0.6-2
		c-0.4-0.5-0.9-0.7-1.5-0.7c-0.6,0-1.1,0.2-1.5,0.7C158.4,240.2,158.2,240.9,158.2,241.9z"/>
	<path class="st1" d="M169.9,242.8l1.2,0.2c-0.1,0.8-0.5,1.5-1,2c-0.5,0.5-1.2,0.7-2,0.7c-1,0-1.8-0.3-2.4-1
		c-0.6-0.6-0.9-1.6-0.9-2.8c0-0.8,0.1-1.5,0.4-2.1s0.7-1,1.2-1.3c0.5-0.3,1.1-0.4,1.7-0.4c0.8,0,1.4,0.2,1.9,0.6
		c0.5,0.4,0.8,1,1,1.7l-1.2,0.2c-0.1-0.5-0.3-0.9-0.6-1.1c-0.3-0.2-0.6-0.4-1-0.4c-0.6,0-1.1,0.2-1.5,0.7c-0.4,0.4-0.6,1.1-0.6,2.1
		c0,1,0.2,1.7,0.6,2.1c0.4,0.4,0.9,0.7,1.5,0.7c0.5,0,0.9-0.1,1.2-0.4C169.6,243.9,169.8,243.5,169.9,242.8z"/>
	<path class="st1" d="M172.2,245.5v-10h1.2v5.7l2.9-3h1.6l-2.8,2.7l3.1,4.6h-1.5l-2.4-3.7l-0.9,0.8v2.9H172.2z"/>
	<path class="st1" d="M178.7,243.3l1.2-0.2c0.1,0.5,0.3,0.9,0.6,1.1c0.3,0.3,0.7,0.4,1.3,0.4c0.6,0,1-0.1,1.3-0.3s0.4-0.5,0.4-0.8
		c0-0.3-0.1-0.5-0.4-0.7c-0.2-0.1-0.6-0.2-1.3-0.4c-0.9-0.2-1.5-0.4-1.9-0.6s-0.6-0.4-0.8-0.7c-0.2-0.3-0.3-0.6-0.3-1
		c0-0.3,0.1-0.6,0.2-0.9c0.1-0.3,0.3-0.5,0.6-0.7c0.2-0.1,0.5-0.3,0.8-0.4c0.3-0.1,0.7-0.1,1.1-0.1c0.6,0,1.1,0.1,1.5,0.2
		s0.7,0.4,1,0.7s0.3,0.7,0.4,1.1l-1.2,0.2c-0.1-0.4-0.2-0.7-0.5-0.9c-0.3-0.2-0.6-0.3-1.1-0.3c-0.6,0-1,0.1-1.2,0.3
		c-0.2,0.2-0.4,0.4-0.4,0.7c0,0.2,0,0.3,0.2,0.4c0.1,0.1,0.3,0.2,0.5,0.3c0.1,0,0.5,0.2,1.1,0.3c0.9,0.2,1.5,0.4,1.8,0.6
		c0.3,0.1,0.6,0.4,0.8,0.6c0.2,0.3,0.3,0.6,0.3,1.1c0,0.4-0.1,0.8-0.4,1.2s-0.6,0.6-1,0.8s-1,0.3-1.5,0.3c-0.9,0-1.7-0.2-2.2-0.6
		C179.1,244.7,178.8,244.1,178.7,243.3z"/>
</g>
<g>
	<path class="st1" d="M313.7,252.6v-10h3.5c0.8,0,1.4,0,1.8,0.1c0.6,0.1,1.1,0.4,1.5,0.7c0.5,0.4,0.9,1,1.2,1.7
		c0.3,0.7,0.4,1.5,0.4,2.4c0,0.8-0.1,1.4-0.3,2s-0.4,1.1-0.7,1.5s-0.6,0.7-0.9,0.9c-0.3,0.2-0.7,0.4-1.2,0.5c-0.5,0.1-1,0.2-1.6,0.2
		H313.7z M315.1,251.4h2.1c0.7,0,1.2-0.1,1.6-0.2c0.4-0.1,0.7-0.3,0.9-0.5c0.3-0.3,0.6-0.7,0.7-1.3c0.2-0.5,0.3-1.2,0.3-1.9
		c0-1-0.2-1.9-0.5-2.4c-0.3-0.6-0.8-0.9-1.3-1.1c-0.4-0.1-0.9-0.2-1.7-0.2h-2.1V251.4z"/>
	<path class="st1" d="M323.2,249c0-1.3,0.4-2.3,1.1-3c0.6-0.5,1.4-0.8,2.3-0.8c1,0,1.8,0.3,2.4,1s1,1.6,1,2.7c0,0.9-0.1,1.7-0.4,2.2
		c-0.3,0.5-0.7,1-1.2,1.2c-0.5,0.3-1.1,0.4-1.8,0.4c-1,0-1.8-0.3-2.5-1C323.5,251.1,323.2,250.2,323.2,249z M324.5,249
		c0,0.9,0.2,1.6,0.6,2.1s0.9,0.7,1.5,0.7c0.6,0,1.1-0.2,1.5-0.7s0.6-1.2,0.6-2.1c0-0.9-0.2-1.6-0.6-2c-0.4-0.5-0.9-0.7-1.5-0.7
		c-0.6,0-1.1,0.2-1.5,0.7S324.5,248,324.5,249z"/>
	<path class="st1" d="M332.6,252.6h-1.1v-10h1.2v3.6c0.5-0.7,1.2-1,2-1c0.4,0,0.9,0.1,1.3,0.3c0.4,0.2,0.7,0.4,1,0.8
		c0.3,0.3,0.5,0.7,0.6,1.2s0.2,1,0.2,1.5c0,1.2-0.3,2.2-0.9,2.9s-1.4,1-2.2,1c-0.9,0-1.5-0.4-2-1.1V252.6z M332.6,248.9
		c0,0.9,0.1,1.5,0.4,1.9c0.4,0.6,0.9,1,1.6,1c0.5,0,1-0.2,1.4-0.7s0.6-1.2,0.6-2.1c0-0.9-0.2-1.6-0.6-2.1c-0.4-0.5-0.8-0.7-1.4-0.7
		c-0.5,0-1,0.2-1.4,0.7S332.6,248,332.6,248.9z"/>
	<path class="st1" d="M339.2,252.6v-10h1.2v10H339.2z"/>
	<path class="st1" d="M347.3,250.3l1.3,0.2c-0.2,0.7-0.6,1.3-1.1,1.7s-1.2,0.6-2.1,0.6c-1.1,0-1.9-0.3-2.5-1
		c-0.6-0.7-0.9-1.6-0.9-2.8c0-1.2,0.3-2.2,0.9-2.8s1.4-1,2.4-1c1,0,1.8,0.3,2.4,1s0.9,1.6,0.9,2.8c0,0.1,0,0.2,0,0.3h-5.4
		c0,0.8,0.3,1.4,0.7,1.8s0.9,0.6,1.5,0.6c0.5,0,0.8-0.1,1.2-0.4S347.2,250.8,347.3,250.3z M343.3,248.3h4.1
		c-0.1-0.6-0.2-1.1-0.5-1.4c-0.4-0.5-0.9-0.7-1.5-0.7c-0.6,0-1,0.2-1.4,0.6C343.6,247.1,343.3,247.6,343.3,248.3z"/>
	<path class="st1" d="M309.3,266.6v-10h1.3v10H309.3z"/>
	<path class="st1" d="M312.8,266.6v-7.3h1.1v1c0.5-0.8,1.3-1.2,2.3-1.2c0.4,0,0.8,0.1,1.2,0.2s0.6,0.4,0.8,0.6
		c0.2,0.3,0.3,0.6,0.4,0.9c0,0.2,0.1,0.6,0.1,1.2v4.5h-1.2v-4.4c0-0.5,0-0.9-0.1-1.1s-0.3-0.4-0.5-0.6s-0.5-0.2-0.9-0.2
		c-0.5,0-1,0.2-1.4,0.5s-0.6,1-0.6,1.9v4H312.8z"/>
	<path class="st1" d="M325.3,266.6v-0.9c-0.5,0.7-1.1,1.1-2,1.1c-0.6,0-1.1-0.2-1.6-0.5s-0.9-0.8-1.1-1.3s-0.4-1.2-0.4-2
		c0-0.7,0.1-1.4,0.4-2c0.2-0.6,0.6-1,1.1-1.4c0.5-0.3,1-0.5,1.6-0.5c0.4,0,0.8,0.1,1.2,0.3s0.6,0.4,0.8,0.7v-3.6h1.2v10H325.3z
		 M321.4,263c0,0.9,0.2,1.6,0.6,2.1c0.4,0.5,0.9,0.7,1.4,0.7c0.5,0,1-0.2,1.4-0.7s0.6-1.1,0.6-2c0-1-0.2-1.7-0.6-2.2
		s-0.9-0.7-1.4-0.7c-0.5,0-1,0.2-1.4,0.7S321.4,262,321.4,263z"/>
	<path class="st1" d="M328.4,258v-1.4h1.2v1.4H328.4z M328.4,266.6v-7.3h1.2v7.3H328.4z"/>
	<path class="st1" d="M331.5,266.6v-7.3h1.1v1.1c0.3-0.5,0.5-0.9,0.8-1s0.5-0.2,0.8-0.2c0.4,0,0.8,0.1,1.3,0.4l-0.4,1.1
		c-0.3-0.2-0.6-0.3-0.9-0.3c-0.3,0-0.5,0.1-0.7,0.2c-0.2,0.2-0.4,0.4-0.5,0.7c-0.1,0.4-0.2,0.9-0.2,1.4v3.8H331.5z"/>
	<path class="st1" d="M341.1,264.3l1.3,0.2c-0.2,0.7-0.6,1.3-1.1,1.7c-0.5,0.4-1.2,0.6-2.1,0.6c-1.1,0-1.9-0.3-2.5-1
		s-0.9-1.6-0.9-2.8c0-1.2,0.3-2.2,0.9-2.8s1.4-1,2.4-1c1,0,1.8,0.3,2.4,1s0.9,1.6,0.9,2.8c0,0.1,0,0.2,0,0.3H337
		c0,0.8,0.3,1.4,0.7,1.8c0.4,0.4,0.9,0.6,1.5,0.6c0.5,0,0.8-0.1,1.2-0.4C340.7,265.2,340.9,264.8,341.1,264.3z M337.1,262.3h4.1
		c-0.1-0.6-0.2-1.1-0.5-1.4c-0.4-0.5-0.9-0.7-1.5-0.7c-0.6,0-1,0.2-1.4,0.6S337.1,261.6,337.1,262.3z"/>
	<path class="st1" d="M348.7,263.9l1.2,0.2c-0.1,0.8-0.5,1.5-1,2s-1.2,0.7-2,0.7c-1,0-1.8-0.3-2.4-1s-0.9-1.6-0.9-2.8
		c0-0.8,0.1-1.5,0.4-2.1s0.7-1,1.2-1.3s1.1-0.4,1.7-0.4c0.8,0,1.4,0.2,1.9,0.6c0.5,0.4,0.8,1,1,1.7l-1.2,0.2
		c-0.1-0.5-0.3-0.9-0.6-1.1s-0.6-0.4-1-0.4c-0.6,0-1.1,0.2-1.5,0.7c-0.4,0.4-0.6,1.1-0.6,2.1c0,1,0.2,1.7,0.6,2.1
		c0.4,0.4,0.9,0.7,1.5,0.7c0.5,0,0.9-0.1,1.2-0.4C348.4,265,348.6,264.6,348.7,263.9z"/>
	<path class="st1" d="M353.6,265.5l0.2,1.1c-0.3,0.1-0.7,0.1-0.9,0.1c-0.4,0-0.8-0.1-1-0.2s-0.4-0.3-0.5-0.6
		c-0.1-0.2-0.2-0.7-0.2-1.5v-4.2h-0.9v-1h0.9v-1.8l1.2-0.7v2.5h1.2v1h-1.2v4.2c0,0.4,0,0.6,0.1,0.7s0.1,0.2,0.2,0.2s0.2,0.1,0.4,0.1
		C353.2,265.5,353.4,265.5,353.6,265.5z"/>
	<path class="st1" d="M311.4,280.6v-10h3.8c0.8,0,1.4,0.1,1.8,0.3s0.8,0.5,1.1,0.9s0.4,0.9,0.4,1.3c0,0.4-0.1,0.8-0.3,1.2
		s-0.6,0.7-1.1,0.9c0.6,0.2,1.1,0.5,1.4,0.9s0.5,0.9,0.5,1.5c0,0.5-0.1,0.9-0.3,1.3s-0.4,0.7-0.7,0.9c-0.3,0.2-0.7,0.4-1.1,0.5
		s-1,0.2-1.6,0.2H311.4z M312.7,274.8h2.2c0.6,0,1,0,1.3-0.1c0.3-0.1,0.6-0.3,0.8-0.5s0.3-0.5,0.3-0.9c0-0.3-0.1-0.6-0.2-0.9
		c-0.2-0.3-0.4-0.4-0.7-0.5c-0.3-0.1-0.8-0.1-1.5-0.1h-2V274.8z M312.7,279.4h2.5c0.4,0,0.7,0,0.9,0c0.3-0.1,0.6-0.1,0.8-0.3
		s0.4-0.3,0.5-0.6c0.1-0.2,0.2-0.5,0.2-0.8c0-0.4-0.1-0.7-0.3-1s-0.5-0.5-0.8-0.6s-0.8-0.2-1.5-0.2h-2.3V279.4z"/>
	<path class="st1" d="M320.6,280.6v-10h1.2v10H320.6z"/>
	<path class="st1" d="M323.2,277c0-1.3,0.4-2.3,1.1-3c0.6-0.5,1.4-0.8,2.3-0.8c1,0,1.8,0.3,2.4,1c0.6,0.7,0.9,1.6,0.9,2.7
		c0,0.9-0.1,1.7-0.4,2.2s-0.7,1-1.2,1.2s-1.1,0.4-1.8,0.4c-1,0-1.8-0.3-2.5-1S323.2,278.2,323.2,277z M324.5,277
		c0,0.9,0.2,1.6,0.6,2.1c0.4,0.5,0.9,0.7,1.5,0.7c0.6,0,1.1-0.2,1.5-0.7c0.4-0.5,0.6-1.2,0.6-2.1c0-0.9-0.2-1.6-0.6-2
		s-0.9-0.7-1.5-0.7c-0.6,0-1.1,0.2-1.5,0.7C324.7,275.3,324.5,276,324.5,277z"/>
	<path class="st1" d="M336.2,277.9l1.2,0.2c-0.1,0.8-0.5,1.5-1,2s-1.2,0.7-2,0.7c-1,0-1.8-0.3-2.4-1s-0.9-1.6-0.9-2.8
		c0-0.8,0.1-1.5,0.4-2.1s0.7-1,1.2-1.3s1.1-0.4,1.7-0.4c0.8,0,1.4,0.2,1.9,0.6c0.5,0.4,0.8,1,1,1.7l-1.2,0.2
		c-0.1-0.5-0.3-0.9-0.6-1.1s-0.6-0.4-1-0.4c-0.6,0-1.1,0.2-1.5,0.7c-0.4,0.4-0.6,1.1-0.6,2.1c0,1,0.2,1.7,0.6,2.1
		c0.4,0.4,0.9,0.7,1.5,0.7c0.5,0,0.9-0.1,1.2-0.4C335.9,279,336.1,278.6,336.2,277.9z"/>
	<path class="st1" d="M338.5,280.6v-10h1.2v5.7l2.9-3h1.6l-2.8,2.7l3.1,4.6H343l-2.4-3.7l-0.9,0.8v2.9H338.5z"/>
	<path class="st1" d="M345,278.4l1.2-0.2c0.1,0.5,0.3,0.9,0.6,1.1s0.7,0.4,1.3,0.4c0.6,0,1-0.1,1.3-0.3s0.4-0.5,0.4-0.8
		c0-0.3-0.1-0.5-0.4-0.7c-0.2-0.1-0.6-0.2-1.3-0.4c-0.9-0.2-1.5-0.4-1.9-0.6s-0.6-0.4-0.8-0.7s-0.3-0.6-0.3-1c0-0.3,0.1-0.6,0.2-0.9
		s0.3-0.5,0.6-0.7c0.2-0.1,0.5-0.3,0.8-0.4s0.7-0.1,1.1-0.1c0.6,0,1.1,0.1,1.5,0.2s0.7,0.4,1,0.7s0.3,0.7,0.4,1.1l-1.2,0.2
		c-0.1-0.4-0.2-0.7-0.5-0.9s-0.6-0.3-1.1-0.3c-0.6,0-1,0.1-1.2,0.3c-0.2,0.2-0.4,0.4-0.4,0.7c0,0.2,0,0.3,0.2,0.4
		c0.1,0.1,0.3,0.2,0.5,0.3c0.1,0,0.5,0.2,1.1,0.3c0.9,0.2,1.5,0.4,1.8,0.6s0.6,0.4,0.8,0.6c0.2,0.3,0.3,0.6,0.3,1.1
		c0,0.4-0.1,0.8-0.4,1.2s-0.6,0.6-1,0.8s-1,0.3-1.5,0.3c-0.9,0-1.7-0.2-2.2-0.6S345.1,279.2,345,278.4z"/>
</g>
</svg>
