<?xml version="1.0" encoding="utf-8"?>
<!-- Generator: Adobe Illustrator 18.1.1, SVG Export Plug-In . SVG Version: 6.00 Build 0)  -->
<svg version="1.1" id="Layer_1" xmlns="http://www.w3.org/2000/svg" xmlns:xlink="http://www.w3.org/1999/xlink" x="0px" y="0px"
	 viewBox="-6 370.3 618 201.9" enable-background="new -6 370.3 618 201.9" xml:space="preserve">
<g>
	<rect x="-1.4" y="534.1" fill="#F8DBAD" stroke="#FAFCFD" stroke-miterlimit="10" width="126.6" height="38.1"/>
	<rect x="139.8" y="534.1" fill="#F8DBAD" stroke="#FAFCFD" stroke-miterlimit="10" width="126.6" height="38.1"/>
	<rect x="280.9" y="534.1" fill="#F8DBAD" stroke="#FAFCFD" stroke-miterlimit="10" width="126.6" height="38.1"/>
	<rect x="-1.4" y="444.2" fill="#E3F2E3" stroke="#E3F2E3" stroke-miterlimit="10" width="610.9" height="45.1"/>
	<rect x="367.8" y="444.2" fill="#8BA38A" stroke="#415641" stroke-miterlimit="10" width="16.6" height="45.1"/>
	<rect x="384.4" y="444.2" fill="#8BA38A" stroke="#415641" stroke-miterlimit="10" width="16.6" height="45.1"/>
	<rect x="473.2" y="444.8" fill="#8BA38A" stroke="#415641" stroke-miterlimit="10" width="16.6" height="45.1"/>
	<rect x="489.8" y="444.8" fill="#8BA38A" stroke="#415641" stroke-miterlimit="10" width="16.6" height="45.1"/>
	<rect x="54.9" y="444.2" fill="#8BA38A" stroke="#415641" stroke-miterlimit="10" width="16.6" height="45.1"/>
	<rect x="71.5" y="444.2" fill="#8BA38A" stroke="#415641" stroke-miterlimit="10" width="16.6" height="45.1"/>
	<rect x="176.3" y="444.2" fill="#8BA38A" stroke="#415641" stroke-miterlimit="10" width="16.6" height="45.1"/>
	<rect x="193" y="444.2" fill="#8BA38A" stroke="#415641" stroke-miterlimit="10" width="16.6" height="45.1"/>
	<g>
		<path fill="#FFFFFF" d="M79.1,379.6v-9.3h3.5c0.8,0,1.3,0.1,1.7,0.3c0.4,0.2,0.8,0.4,1,0.9s0.3,0.8,0.3,1.2s-0.1,0.8-0.3,1.1
			c-0.2,0.3-0.5,0.6-1,0.9c0.5,0.2,1,0.4,1.3,0.9c0.3,0.4,0.4,0.9,0.4,1.4c0,0.4-0.1,0.9-0.3,1.2c-0.2,0.3-0.4,0.6-0.6,0.9
			c-0.2,0.2-0.6,0.3-1,0.4c-0.4,0.1-0.9,0.1-1.5,0.1h-3.5V379.6z M80.3,374.2h2c0.5,0,1,0,1.2-0.1c0.3-0.1,0.5-0.2,0.8-0.4
			c0.1-0.2,0.2-0.4,0.2-0.9c0-0.3-0.1-0.5-0.2-0.9c-0.1-0.2-0.3-0.4-0.6-0.4c-0.3-0.1-0.8-0.1-1.4-0.1h-1.8v2.8H80.3z M80.3,378.5
			h2.3c0.4,0,0.6,0,0.9,0c0.3,0,0.5-0.1,0.8-0.2c0.2-0.1,0.3-0.3,0.4-0.5c0.1-0.2,0.2-0.5,0.2-0.8c0-0.3-0.1-0.6-0.2-0.9
			c-0.1-0.2-0.4-0.4-0.8-0.5s-0.8-0.1-1.4-0.1h-2.2C80.3,375.5,80.3,378.5,80.3,378.5z"/>
		<path fill="#FFFFFF" d="M87.6,371.6v-1.3h1.2v1.3H87.6z M87.6,379.6v-6.7h1.2v6.7H87.6L87.6,379.6z"/>
		<path fill="#FFFFFF" d="M93,378.6l0.2,1c-0.3,0.1-0.6,0.1-0.9,0.1c-0.4,0-0.8-0.1-1-0.2c-0.2-0.1-0.4-0.3-0.4-0.5
			c0-0.2-0.1-0.6-0.1-1.3v-3.9H90v-0.9h0.9v-1.6l1.1-0.6v2.4h1.2v0.9h-1.2v3.9c0,0.3,0,0.5,0.1,0.6s0.1,0.2,0.2,0.2
			c0.1,0.1,0.2,0.1,0.4,0.1C92.6,378.6,92.8,378.6,93,378.6z"/>
		<path fill="#FFFFFF" d="M94.1,379.6v-6.7h1v1c0.2-0.3,0.5-0.5,0.9-0.8c0.3-0.2,0.8-0.3,1.2-0.3c0.5,0,0.9,0.1,1.2,0.3
			c0.3,0.2,0.5,0.5,0.6,0.9c0.5-0.8,1.2-1.2,2-1.2c0.6,0,1.2,0.2,1.5,0.5c0.3,0.3,0.5,1,0.5,1.7v4.6h-1.1v-4.3c0-0.4,0-0.8-0.1-1
			s-0.2-0.3-0.4-0.4c-0.2-0.1-0.4-0.2-0.6-0.2c-0.4,0-0.9,0.1-1.2,0.4c-0.3,0.3-0.4,0.9-0.4,1.5v3.9h-1.2v-4.3
			c0-0.5-0.1-0.9-0.3-1.2c-0.2-0.2-0.5-0.4-0.9-0.4s-0.6,0.1-0.9,0.2c-0.3,0.2-0.4,0.4-0.5,0.8c-0.1,0.3-0.2,0.8-0.2,1.4v3.5
			L94.1,379.6L94.1,379.6z"/>
		<path fill="#FFFFFF" d="M109.3,378.8c-0.4,0.3-0.9,0.6-1.2,0.8c-0.4,0.1-0.8,0.2-1.3,0.2c-0.8,0-1.3-0.2-1.7-0.5s-0.6-0.9-0.6-1.4
			c0-0.3,0.1-0.6,0.2-0.9c0.1-0.2,0.3-0.5,0.5-0.6c0.2-0.1,0.5-0.3,0.9-0.3c0.2-0.1,0.5-0.1,1-0.2c1-0.1,1.6-0.2,2-0.4
			c0-0.1,0-0.2,0-0.3c0-0.4-0.1-0.8-0.3-1c-0.3-0.2-0.8-0.4-1.3-0.4s-1,0.1-1.2,0.3c-0.2,0.2-0.4,0.5-0.5,1l-1.1-0.1
			c0.1-0.4,0.2-0.9,0.5-1.2c0.3-0.3,0.5-0.5,1-0.6s1-0.2,1.5-0.2s1.1,0.1,1.4,0.2c0.3,0.1,0.6,0.3,0.8,0.5c0.1,0.2,0.3,0.4,0.3,0.8
			c0,0.2,0.1,0.5,0.1,1.1v1.5c0,1.1,0,1.7,0.1,2c0,0.3,0.1,0.5,0.3,0.8h-1.2C109.4,379.4,109.3,379,109.3,378.8z M109.2,376.2
			c-0.4,0.2-1.1,0.3-1.8,0.4c-0.4,0.1-0.8,0.1-1,0.2s-0.3,0.2-0.4,0.3c-0.1,0.2-0.1,0.3-0.1,0.5c0,0.3,0.1,0.5,0.3,0.8
			s0.5,0.3,1,0.3s0.9-0.1,1.2-0.3s0.5-0.4,0.8-0.8c0.1-0.2,0.2-0.6,0.2-1.2v-0.3H109.2z"/>
		<path fill="#FFFFFF" d="M112.1,382.2v-9.3h1.1v0.9c0.2-0.3,0.5-0.6,0.9-0.8c0.3-0.2,0.6-0.2,1.1-0.2c0.5,0,1.1,0.1,1.5,0.4
			c0.4,0.3,0.8,0.8,1,1.3c0.2,0.5,0.3,1.1,0.3,1.7c0,0.6-0.1,1.3-0.3,1.8s-0.6,1-1.1,1.3s-1,0.4-1.5,0.4c-0.4,0-0.8-0.1-1-0.2
			c-0.2-0.1-0.5-0.3-0.8-0.6v3.2L112.1,382.2L112.1,382.2z M113,376.2c0,0.9,0.2,1.5,0.5,1.9s0.8,0.6,1.3,0.6s1-0.2,1.3-0.6
			c0.3-0.4,0.5-1.1,0.5-1.9s-0.2-1.5-0.5-1.9s-0.8-0.6-1.3-0.6c-0.4,0-0.9,0.2-1.3,0.6S113,375.4,113,376.2z"/>
		<path fill="#FFFFFF" d="M79.2,395.1v-5.8h-1v-0.9h1v-0.8c0-0.4,0-0.8,0.1-1c0.1-0.3,0.3-0.5,0.5-0.8c0.3-0.2,0.6-0.3,1.2-0.3
			c0.3,0,0.6,0,1.1,0.1l-0.2,1c-0.2,0-0.4-0.1-0.6-0.1c-0.3,0-0.5,0.1-0.8,0.2c-0.1,0.1-0.2,0.4-0.2,0.9v0.6h1.3v0.9h-1.3v5.8
			L79.2,395.1L79.2,395.1z"/>
		<path fill="#FFFFFF" d="M82.1,391.8c0-1.3,0.3-2.2,1.1-2.8c0.5-0.5,1.3-0.8,2.2-0.8c1,0,1.7,0.3,2.3,0.9c0.5,0.6,0.9,1.4,0.9,2.5
			c0,0.9-0.1,1.5-0.4,2c-0.2,0.5-0.6,0.9-1.1,1.2c-0.5,0.3-1.1,0.4-1.6,0.4c-1,0-1.7-0.3-2.3-0.9C82.4,393.8,82.1,393,82.1,391.8z
			 M83.3,391.8c0,0.9,0.2,1.5,0.5,1.9c0.3,0.4,0.9,0.6,1.4,0.6s1.1-0.2,1.4-0.6c0.3-0.4,0.5-1.1,0.5-1.9s-0.2-1.5-0.5-1.8
			c-0.3-0.4-0.9-0.6-1.4-0.6s-1.1,0.2-1.4,0.6C83.5,390.4,83.3,390.9,83.3,391.8z"/>
		<path fill="#FFFFFF" d="M89.7,395.1v-6.7h1v1c0.2-0.4,0.5-0.8,0.8-1c0.2-0.1,0.4-0.2,0.8-0.2c0.4,0,0.8,0.1,1.2,0.3l-0.4,1.1
			c-0.3-0.2-0.5-0.2-0.9-0.2c-0.2,0-0.4,0.1-0.6,0.2c-0.2,0.1-0.3,0.3-0.4,0.6c-0.1,0.4-0.2,0.9-0.2,1.3v3.6L89.7,395.1L89.7,395.1z
			"/>
		<path fill="#FFFFFF" d="M97.7,395.1v-9.3h3.5c0.8,0,1.3,0.1,1.7,0.3c0.4,0.2,0.8,0.4,1,0.9c0.2,0.4,0.3,0.8,0.3,1.2
			c0,0.4-0.1,0.8-0.3,1.1c-0.2,0.3-0.5,0.6-1,0.9c0.5,0.2,1,0.4,1.3,0.9c0.3,0.4,0.4,0.9,0.4,1.4c0,0.4-0.1,0.9-0.3,1.2
			c-0.2,0.3-0.4,0.6-0.6,0.9c-0.2,0.2-0.6,0.3-1,0.4c-0.3,0.1-0.9,0.1-1.5,0.1L97.7,395.1L97.7,395.1z M99,389.7h2
			c0.5,0,1,0,1.2-0.1c0.3-0.1,0.5-0.2,0.8-0.4c0.1-0.2,0.2-0.4,0.2-0.9c0-0.3-0.1-0.5-0.2-0.9c-0.1-0.2-0.3-0.4-0.6-0.4
			c-0.3-0.1-0.8-0.1-1.4-0.1h-1.8v2.8H99z M99,394h2.3c0.4,0,0.6,0,0.9,0c0.3,0,0.5-0.1,0.8-0.2c0.2-0.1,0.3-0.3,0.4-0.5
			c0.1-0.2,0.2-0.5,0.2-0.8c0-0.3-0.1-0.6-0.2-0.9c-0.2-0.2-0.4-0.4-0.8-0.5s-0.8-0.1-1.4-0.1H99V394L99,394z"/>
		<path fill="#FFFFFF" d="M110.7,394.4c-0.4,0.3-0.9,0.6-1.2,0.8c-0.4,0.1-0.8,0.2-1.3,0.2c-0.8,0-1.3-0.2-1.7-0.5s-0.6-0.9-0.6-1.4
			c0-0.3,0.1-0.6,0.2-0.9c0.1-0.2,0.3-0.5,0.5-0.6s0.5-0.3,0.9-0.3c0.2-0.1,0.5-0.1,1-0.2c1-0.1,1.6-0.2,2-0.4c0-0.1,0-0.2,0-0.3
			c0-0.4-0.1-0.8-0.3-1c-0.3-0.2-0.8-0.4-1.3-0.4s-1,0.1-1.2,0.3c-0.2,0.2-0.4,0.5-0.5,1l-1.1-0.1c0.1-0.4,0.2-0.9,0.5-1.2
			c0.2-0.3,0.5-0.5,1-0.6s1-0.2,1.6-0.2c0.5,0,1.1,0.1,1.4,0.2c0.3,0.1,0.6,0.3,0.8,0.5c0.1,0.2,0.3,0.4,0.3,0.8
			c0,0.2,0.1,0.5,0.1,1.1v1.5c0,1.1,0,1.7,0.1,2s0.1,0.5,0.3,0.8H111C110.8,394.9,110.7,394.6,110.7,394.4z M110.6,391.8
			c-0.4,0.2-1.1,0.3-1.8,0.4c-0.4,0.1-0.8,0.1-1,0.2c-0.2,0.1-0.3,0.2-0.4,0.3c-0.1,0.2-0.1,0.3-0.1,0.5c0,0.3,0.1,0.5,0.3,0.8
			c0.2,0.2,0.5,0.3,1,0.3s0.9-0.1,1.2-0.3c0.3-0.2,0.5-0.4,0.8-0.8c0.1-0.2,0.2-0.6,0.2-1.2v-0.3H110.6z"/>
		<path fill="#FFFFFF" d="M113.5,395.1v-6.7h1.1v1c0.5-0.8,1.2-1.1,2.2-1.1c0.4,0,0.8,0.1,1.1,0.2s0.5,0.3,0.8,0.5
			c0.2,0.2,0.3,0.5,0.3,0.9c0,0.2,0.1,0.5,0.1,1.1v4.1h-1.2V391c0-0.4,0-0.9-0.1-1.1c-0.1-0.2-0.2-0.4-0.4-0.5s-0.5-0.2-0.8-0.2
			c-0.4,0-0.9,0.1-1.3,0.4c-0.3,0.3-0.5,0.9-0.5,1.7v3.7L113.5,395.1L113.5,395.1z"/>
		<path fill="#FFFFFF" d="M125,395.1v-0.9c-0.4,0.6-1.1,1-1.8,1c-0.5,0-1.1-0.1-1.5-0.4s-0.8-0.8-1.1-1.2c-0.3-0.4-0.3-1.2-0.3-1.8
			c0-0.6,0.1-1.3,0.3-1.8c0.2-0.5,0.5-1,1-1.3c0.4-0.3,1-0.4,1.5-0.4c0.4,0,0.8,0.1,1.1,0.2c0.3,0.1,0.5,0.4,0.8,0.6v-3.3h1.1v9.3
			C126.1,395.1,125,395.1,125,395.1z M121.5,391.8c0,0.9,0.2,1.5,0.5,1.9c0.3,0.4,0.8,0.6,1.3,0.6s1-0.2,1.3-0.6s0.5-1.1,0.5-1.8
			c0-1-0.2-1.6-0.5-2s-0.8-0.6-1.3-0.6c-0.5,0-1,0.2-1.3,0.6S121.5,390.9,121.5,391.8z"/>
		<path fill="#FFFFFF" d="M135.5,395.1h-1.2v-7.2c-0.3,0.2-0.6,0.5-1.1,0.8c-0.4,0.2-0.9,0.4-1.2,0.5v-1.1c0.6-0.3,1.2-0.6,1.6-1.1
			c0.4-0.4,0.9-0.9,1-1.2h0.8v9.3H135.5z"/>
	</g>
	<g>
		<path fill="#010101" d="M96.4,471.5v-9.3h3.5c0.8,0,1.3,0.1,1.7,0.3c0.4,0.2,0.8,0.4,1,0.9c0.2,0.4,0.3,0.8,0.3,1.2
			s-0.1,0.8-0.3,1.1c-0.2,0.3-0.5,0.6-1,0.9c0.5,0.2,1,0.4,1.3,0.9c0.3,0.4,0.4,0.9,0.4,1.4c0,0.4-0.1,0.9-0.3,1.2s-0.4,0.6-0.6,0.9
			s-0.6,0.3-1,0.4c-0.4,0.1-0.9,0.1-1.5,0.1L96.4,471.5L96.4,471.5z M97.6,466.1h2c0.5,0,1,0,1.2-0.1c0.3-0.1,0.5-0.2,0.8-0.4
			c0.2-0.2,0.2-0.4,0.2-0.9c0-0.3-0.1-0.5-0.2-0.9c-0.1-0.3-0.3-0.4-0.6-0.4c-0.3-0.1-0.8-0.1-1.4-0.1h-1.8v2.8H97.6z M97.6,470.4
			h2.3c0.4,0,0.6,0,0.9,0c0.3,0,0.5-0.1,0.8-0.2s0.3-0.3,0.4-0.5c0.1-0.2,0.2-0.5,0.2-0.8c0-0.3-0.1-0.6-0.2-0.9
			c-0.1-0.2-0.4-0.4-0.8-0.5c-0.3-0.1-0.8-0.1-1.4-0.1h-2.2V470.4L97.6,470.4z"/>
		<path fill="#010101" d="M109.3,470.6c-0.4,0.3-0.9,0.6-1.2,0.8c-0.4,0.1-0.8,0.2-1.3,0.2c-0.8,0-1.3-0.2-1.7-0.5s-0.6-0.9-0.6-1.4
			c0-0.3,0.1-0.6,0.2-0.9c0.1-0.3,0.3-0.5,0.5-0.6c0.2-0.2,0.5-0.3,0.9-0.3c0.2-0.1,0.5-0.1,1-0.2c1-0.1,1.6-0.2,2-0.4
			c0-0.1,0-0.2,0-0.3c0-0.4-0.1-0.8-0.3-1c-0.3-0.2-0.8-0.4-1.3-0.4s-1,0.1-1.2,0.3c-0.2,0.2-0.4,0.5-0.5,1l-1.1-0.1
			c0.1-0.4,0.2-0.9,0.5-1.2c0.2-0.3,0.5-0.5,1-0.6s1-0.2,1.5-0.2s1.1,0.1,1.4,0.2s0.6,0.3,0.8,0.5c0.2,0.2,0.3,0.4,0.3,0.8
			c0,0.2,0.1,0.5,0.1,1.1v1.5c0,1.1,0,1.7,0.1,2c0,0.3,0.1,0.5,0.3,0.8h-1.2C109.5,471.2,109.4,470.9,109.3,470.6z M109.3,468.1
			c-0.4,0.2-1.1,0.3-1.8,0.4c-0.4,0.1-0.8,0.1-1,0.2s-0.3,0.2-0.4,0.3c-0.1,0.2-0.1,0.3-0.1,0.5c0,0.3,0.1,0.5,0.3,0.8
			s0.5,0.3,1,0.3s0.9-0.1,1.2-0.3s0.5-0.4,0.8-0.8c0.1-0.2,0.2-0.6,0.2-1.2v-0.3H109.3z"/>
		<path fill="#010101" d="M112.2,471.5v-6.7h1v1c0.5-0.8,1.2-1.1,2.2-1.1c0.4,0,0.8,0.1,1.1,0.2s0.5,0.3,0.8,0.5
			c0.2,0.2,0.3,0.5,0.3,0.9c0,0.2,0.1,0.5,0.1,1.1v4.1h-1.2v-4.1c0-0.4,0-0.9-0.1-1.1s-0.2-0.4-0.4-0.5s-0.5-0.2-0.8-0.2
			c-0.4,0-0.9,0.1-1.3,0.4s-0.5,0.9-0.5,1.7v3.7L112.2,471.5L112.2,471.5z"/>
		<path fill="#010101" d="M123.7,471.5v-0.9c-0.4,0.6-1.1,1-1.8,1c-0.5,0-1.1-0.1-1.5-0.4s-0.8-0.8-1.1-1.2
			c-0.3-0.4-0.3-1.2-0.3-1.8c0-0.6,0.1-1.3,0.3-1.8s0.5-1,1-1.3c0.4-0.3,1-0.4,1.5-0.4c0.4,0,0.8,0.1,1.1,0.2
			c0.3,0.2,0.5,0.4,0.8,0.6v-3.3h1.1v9.3L123.7,471.5L123.7,471.5z M120.1,468.1c0,0.9,0.2,1.5,0.5,1.9s0.8,0.6,1.3,0.6
			s1-0.2,1.3-0.6s0.5-1.1,0.5-1.8c0-1-0.2-1.6-0.5-2s-0.8-0.6-1.3-0.6s-1,0.2-1.3,0.6C120.3,466.6,120.1,467.3,120.1,468.1z"/>
		<path fill="#010101" d="M134.1,471.5h-1.2v-7.2c-0.3,0.2-0.6,0.5-1.1,0.8s-0.9,0.4-1.2,0.5v-1.1c0.6-0.3,1.2-0.6,1.6-1.1
			c0.4-0.4,0.9-0.9,1-1.2h0.8v9.3H134.1z"/>
	</g>
	<g>
		<path fill="#010101" d="M33.7,557.4v-9.3h3.5c0.8,0,1.3,0.1,1.7,0.3c0.4,0.2,0.8,0.4,1,0.9c0.2,0.4,0.3,0.8,0.3,1.2
			s-0.1,0.8-0.3,1.1c-0.2,0.3-0.5,0.6-1,0.9c0.5,0.2,1,0.4,1.3,0.9c0.3,0.4,0.4,0.9,0.4,1.4c0,0.4-0.1,0.9-0.3,1.2
			c-0.2,0.3-0.4,0.6-0.6,0.9c-0.2,0.2-0.6,0.3-1,0.4c-0.3,0.1-0.9,0.1-1.5,0.1h-3.5V557.4z M35,552h2c0.5,0,1,0,1.2-0.1
			c0.3-0.1,0.5-0.2,0.8-0.4c0.1-0.2,0.2-0.4,0.2-0.9c0-0.3-0.1-0.5-0.2-0.9c-0.1-0.3-0.3-0.4-0.6-0.4c-0.3-0.1-0.8-0.1-1.4-0.1h-1.8
			v2.8H35z M35,556.2h2.3c0.4,0,0.6,0,0.9,0c0.3,0,0.5-0.1,0.8-0.2s0.3-0.3,0.4-0.5c0.1-0.2,0.2-0.5,0.2-0.8c0-0.3-0.1-0.6-0.2-0.9
			c-0.2-0.2-0.4-0.4-0.8-0.5s-0.8-0.1-1.4-0.1H35V556.2L35,556.2z"/>
		<path fill="#010101" d="M41.9,554c0-1.3,0.3-2.2,1.1-2.8c0.5-0.5,1.3-0.8,2.2-0.8c1,0,1.7,0.3,2.3,0.9c0.5,0.6,0.9,1.4,0.9,2.5
			c0,0.9-0.1,1.5-0.4,2c-0.2,0.5-0.6,0.9-1.1,1.2s-1.1,0.4-1.6,0.4c-1,0-1.7-0.3-2.3-0.9C42.1,556,41.9,555.1,41.9,554z M43.1,554
			c0,0.9,0.2,1.5,0.5,1.9c0.3,0.4,0.9,0.6,1.4,0.6s1.1-0.2,1.4-0.6c0.3-0.4,0.5-1.1,0.5-1.9c0-0.9-0.2-1.5-0.5-1.8
			c-0.3-0.4-0.9-0.6-1.4-0.6s-1.1,0.2-1.4,0.6C43.3,552.6,43.1,553.1,43.1,554z"/>
		<path fill="#010101" d="M49,554c0-1.3,0.3-2.2,1.1-2.8c0.5-0.5,1.3-0.8,2.2-0.8c1,0,1.7,0.3,2.3,0.9c0.5,0.6,0.9,1.4,0.9,2.5
			c0,0.9-0.1,1.5-0.4,2c-0.2,0.5-0.6,0.9-1.1,1.2s-1.1,0.4-1.6,0.4c-1,0-1.7-0.3-2.3-0.9S49,555.1,49,554z M50.2,554
			c0,0.9,0.2,1.5,0.5,1.9c0.3,0.4,0.9,0.6,1.4,0.6s1.1-0.2,1.4-0.6c0.3-0.4,0.5-1.1,0.5-1.9c0-0.9-0.2-1.5-0.5-1.8
			c-0.3-0.3-0.9-0.6-1.4-0.6s-1.1,0.2-1.4,0.6C50.4,552.6,50.2,553.1,50.2,554z"/>
		<path fill="#010101" d="M59.1,556.3l0.2,1c-0.3,0.1-0.6,0.1-0.9,0.1c-0.4,0-0.8-0.1-1-0.2s-0.4-0.3-0.4-0.5
			c-0.1-0.2-0.1-0.6-0.1-1.3v-3.9h-0.9v-0.9H57V549l1.1-0.6v2.4h1.2v0.9H58v3.9c0,0.3,0,0.5,0.1,0.6c0.1,0.1,0.1,0.2,0.2,0.2
			c0.1,0,0.2,0.1,0.4,0.1C58.8,556.4,58.9,556.3,59.1,556.3z"/>
		<path fill="#010101" d="M60.3,557.4v-9.3h3.5c0.8,0,1.3,0.1,1.7,0.3c0.4,0.2,0.8,0.4,1,0.9c0.2,0.4,0.3,0.8,0.3,1.2
			s-0.1,0.8-0.3,1.1c-0.2,0.3-0.5,0.6-1,0.9c0.5,0.2,1,0.4,1.3,0.9c0.3,0.4,0.4,0.9,0.4,1.4c0,0.4-0.1,0.9-0.3,1.2
			c-0.2,0.3-0.4,0.6-0.6,0.9c-0.2,0.2-0.6,0.3-1,0.4c-0.3,0.1-0.9,0.1-1.5,0.1h-3.5V557.4z M61.6,552h2c0.5,0,1,0,1.2-0.1
			c0.3-0.1,0.5-0.2,0.8-0.4c0.1-0.2,0.2-0.4,0.2-0.9c0-0.3-0.1-0.5-0.2-0.9c-0.1-0.3-0.3-0.4-0.6-0.4c-0.3-0.1-0.8-0.1-1.4-0.1h-1.8
			v2.8H61.6z M61.6,556.2h2.3c0.4,0,0.6,0,0.9,0c0.3,0,0.5-0.1,0.8-0.2s0.3-0.3,0.4-0.5s0.2-0.5,0.2-0.8c0-0.3-0.1-0.6-0.2-0.9
			c-0.2-0.2-0.4-0.4-0.8-0.5c-0.3-0.1-0.8-0.1-1.4-0.1h-2.2V556.2L61.6,556.2z"/>
		<path fill="#010101" d="M68.8,557.4v-9.3H70v9.3H68.8z"/>
		<path fill="#010101" d="M71.3,554c0-1.3,0.3-2.2,1.1-2.8c0.5-0.5,1.3-0.8,2.2-0.8c1,0,1.7,0.3,2.3,0.9c0.5,0.6,0.9,1.4,0.9,2.5
			c0,0.9-0.1,1.5-0.4,2c-0.2,0.5-0.6,0.9-1.1,1.2s-1.1,0.4-1.6,0.4c-1,0-1.7-0.3-2.3-0.9C71.7,556,71.3,555.1,71.3,554z M72.5,554
			c0,0.9,0.2,1.5,0.5,1.9c0.3,0.4,0.9,0.6,1.4,0.6s1.1-0.2,1.4-0.6c0.3-0.4,0.5-1.1,0.5-1.9c0-0.9-0.2-1.5-0.5-1.8
			c-0.3-0.3-0.9-0.6-1.4-0.6s-1.1,0.2-1.4,0.6C72.7,552.6,72.5,553.1,72.5,554z"/>
		<path fill="#010101" d="M83.3,554.9l1.1,0.1c-0.1,0.8-0.4,1.4-1,1.8c-0.5,0.4-1.1,0.6-1.8,0.6c-1,0-1.6-0.3-2.3-0.9
			c-0.6-0.5-0.9-1.5-0.9-2.6c0-0.8,0.1-1.4,0.3-1.9c0.2-0.5,0.6-1,1.1-1.2s1.1-0.4,1.6-0.4c0.8,0,1.3,0.2,1.8,0.5
			c0.5,0.3,0.8,0.9,0.9,1.6l-1.1,0.2c-0.1-0.4-0.3-0.8-0.5-1c-0.2-0.2-0.5-0.3-1-0.3c-0.5,0-1.1,0.2-1.4,0.6
			c-0.3,0.4-0.5,1.1-0.5,1.9c0,0.9,0.2,1.5,0.5,1.9c0.3,0.4,0.8,0.6,1.4,0.6c0.4,0,0.9-0.1,1.1-0.4C82.8,556,83.3,555.5,83.3,554.9z
			"/>
		<path fill="#010101" d="M85.4,557.4v-9.3h1.2v5.3l2.7-2.7h1.5l-2.6,2.5l2.8,4.2h-1.4l-2.3-3.5l-0.8,0.8v2.7H85.4L85.4,557.4z"/>
	</g>
	<g>
		<path fill="#010101" d="M167.7,554.4l1.2-0.1c0.1,0.4,0.2,0.9,0.4,1.2s0.5,0.5,1,0.8s0.9,0.3,1.4,0.3c0.4,0,0.9-0.1,1.2-0.2
			c0.3-0.1,0.6-0.3,0.8-0.5c0.1-0.2,0.2-0.5,0.2-0.8c0-0.3-0.1-0.5-0.2-0.8c-0.2-0.2-0.4-0.4-0.9-0.5c-0.2-0.1-0.8-0.2-1.6-0.4
			c-0.9-0.2-1.4-0.4-1.8-0.5c-0.4-0.2-0.8-0.5-1-0.9c-0.2-0.3-0.3-0.8-0.3-1.2c0-0.4,0.1-0.9,0.4-1.3s0.6-0.8,1.2-1
			c0.5-0.2,1.1-0.3,1.7-0.3s1.3,0.1,1.8,0.3c0.5,0.2,1,0.5,1.2,1c0.3,0.4,0.4,0.9,0.4,1.5l-1.2,0.1c-0.1-0.5-0.3-1.1-0.6-1.3
			c-0.3-0.2-0.9-0.4-1.6-0.4c-0.8,0-1.3,0.1-1.6,0.4c-0.3,0.3-0.5,0.6-0.5,1c0,0.3,0.1,0.6,0.3,0.9c0.2,0.2,0.9,0.4,1.8,0.6
			c1,0.2,1.7,0.4,2,0.5c0.5,0.2,1,0.5,1.2,1c0.2,0.4,0.4,0.9,0.4,1.3c0,0.5-0.1,1-0.4,1.4c-0.3,0.4-0.6,0.8-1.2,1
			c-0.5,0.2-1.1,0.3-1.8,0.3c-0.9,0-1.5-0.1-2.2-0.3c-0.6-0.2-1-0.6-1.3-1.1C167.8,555.9,167.7,555,167.7,554.4z"/>
		<path fill="#010101" d="M181.1,557.4v-1c-0.5,0.8-1.2,1.2-2.2,1.2c-0.4,0-0.8-0.1-1.1-0.2s-0.6-0.3-0.8-0.5
			c-0.1-0.2-0.3-0.5-0.3-0.9c0-0.2-0.1-0.5-0.1-1.1v-4.2h1.2v3.8c0,0.6,0,1,0.1,1.2c0.1,0.3,0.2,0.5,0.4,0.8
			c0.2,0.2,0.5,0.2,0.9,0.2c0.3,0,0.6-0.1,1-0.2s0.5-0.4,0.6-0.8c0.1-0.3,0.2-0.8,0.2-1.3v-3.6h1.2v6.7h-1.2V557.4z"/>
		<path fill="#010101" d="M183.9,559.9v-9.3h1.1v0.9c0.2-0.3,0.5-0.6,0.9-0.8c0.3-0.1,0.6-0.2,1.1-0.2c0.5,0,1.1,0.1,1.5,0.4
			c0.4,0.3,0.8,0.8,1,1.3s0.3,1.1,0.3,1.7s-0.1,1.3-0.3,1.8c-0.2,0.5-0.6,1-1.1,1.3s-1,0.4-1.5,0.4c-0.4,0-0.8-0.1-1-0.2
			s-0.5-0.3-0.8-0.6v3.2L183.9,559.9L183.9,559.9z M184.9,554.1c0,0.9,0.2,1.5,0.5,1.9c0.3,0.4,0.8,0.6,1.3,0.6c0.5,0,1-0.2,1.3-0.6
			c0.3-0.4,0.5-1.1,0.5-1.9c0-0.9-0.2-1.5-0.5-1.9c-0.3-0.4-0.8-0.6-1.3-0.6c-0.4,0-0.9,0.2-1.3,0.6S184.9,553.2,184.9,554.1z"/>
		<path fill="#010101" d="M195.6,555.3l1.2,0.1c-0.2,0.6-0.5,1.2-1.1,1.6c-0.5,0.4-1.2,0.5-1.9,0.5c-1,0-1.7-0.3-2.4-0.9
			c-0.6-0.5-0.9-1.4-0.9-2.6c0-1.1,0.3-2,0.9-2.6c0.5-0.5,1.3-1,2.3-1c0.9,0,1.6,0.3,2.2,0.9c0.5,0.5,0.9,1.5,0.9,2.6
			c0,0.1,0,0.2,0,0.3h-5c0,0.8,0.2,1.3,0.6,1.7c0.4,0.4,0.9,0.5,1.4,0.5c0.4,0,0.8-0.1,1.1-0.3S195.4,555.7,195.6,555.3z
			 M191.9,553.3h3.8c0-0.5-0.2-1-0.4-1.3c-0.3-0.4-0.9-0.6-1.4-0.6c-0.5,0-1,0.2-1.3,0.5C192.1,552.3,192,552.8,191.9,553.3z"/>
		<path fill="#010101" d="M198.2,557.4v-6.7h1v1c0.2-0.4,0.5-0.8,0.8-1c0.2-0.1,0.4-0.2,0.8-0.2c0.4,0,0.8,0.1,1.2,0.3l-0.4,1.1
			c-0.3-0.2-0.5-0.2-0.9-0.2c-0.2,0-0.4,0.1-0.6,0.2c-0.2,0.1-0.3,0.3-0.4,0.6c-0.1,0.4-0.2,0.9-0.2,1.3v3.6H198.2L198.2,557.4z"/>
		<path fill="#010101" d="M202.7,557.4v-9.3h3.5c0.8,0,1.3,0.1,1.7,0.3c0.4,0.2,0.8,0.4,1,0.9c0.2,0.4,0.3,0.8,0.3,1.2
			s-0.1,0.8-0.3,1.1c-0.2,0.3-0.5,0.6-1,0.9c0.5,0.2,1,0.4,1.3,0.9c0.3,0.4,0.4,0.9,0.4,1.4c0,0.4-0.1,0.9-0.3,1.2s-0.4,0.6-0.6,0.9
			c-0.2,0.2-0.6,0.3-1,0.4c-0.3,0.1-0.9,0.1-1.5,0.1h-3.5V557.4z M203.8,552h2c0.5,0,1,0,1.2-0.1c0.3-0.1,0.5-0.2,0.8-0.4
			c0.1-0.2,0.2-0.4,0.2-0.9c0-0.3-0.1-0.5-0.2-0.9c-0.1-0.3-0.3-0.4-0.6-0.4c-0.3-0.1-0.8-0.1-1.4-0.1H204L203.8,552L203.8,552z
			 M203.8,556.2h2.4c0.4,0,0.6,0,0.9,0c0.3,0,0.5-0.1,0.8-0.2c0.2-0.1,0.3-0.3,0.4-0.5c0.1-0.2,0.2-0.5,0.2-0.8
			c0-0.3-0.1-0.6-0.2-0.9c-0.2-0.2-0.4-0.4-0.8-0.5s-0.8-0.1-1.4-0.1H204L203.8,556.2L203.8,556.2z"/>
		<path fill="#010101" d="M211.2,557.4v-9.3h1.2v9.3H211.2z"/>
		<path fill="#010101" d="M213.7,554c0-1.3,0.3-2.2,1.1-2.8c0.5-0.5,1.3-0.8,2.2-0.8c1,0,1.7,0.3,2.3,0.9c0.5,0.6,0.9,1.4,0.9,2.5
			c0,0.9-0.1,1.5-0.4,2c-0.2,0.5-0.6,0.9-1.1,1.2c-0.4,0.3-1.1,0.4-1.6,0.4c-1,0-1.7-0.3-2.3-0.9C214.1,556,213.7,555.1,213.7,554z
			 M214.8,554c0,0.9,0.2,1.5,0.5,1.9c0.3,0.4,0.9,0.6,1.4,0.6c0.5,0,1.1-0.2,1.4-0.6c0.3-0.4,0.5-1.1,0.5-1.9c0-0.9-0.2-1.5-0.5-1.8
			c-0.3-0.3-0.9-0.6-1.4-0.6c-0.5,0-1.1,0.2-1.4,0.6C215.1,552.6,214.8,553.1,214.8,554z"/>
		<path fill="#010101" d="M225.6,554.9l1.1,0.1c-0.1,0.8-0.4,1.4-1,1.8c-0.5,0.4-1.1,0.6-1.8,0.6c-1,0-1.6-0.3-2.3-0.9
			s-0.9-1.5-0.9-2.6c0-0.8,0.1-1.4,0.3-1.9c0.2-0.5,0.6-1,1.1-1.2c0.4-0.2,1.1-0.4,1.6-0.4c0.8,0,1.3,0.2,1.8,0.5
			c0.5,0.3,0.8,0.9,0.9,1.6l-1.1,0.2c-0.1-0.4-0.3-0.8-0.5-1c-0.2-0.2-0.5-0.3-1-0.3c-0.5,0-1.1,0.2-1.4,0.6
			c-0.3,0.4-0.5,1.1-0.5,1.9c0,0.9,0.2,1.5,0.5,1.9c0.3,0.4,0.8,0.6,1.4,0.6c0.4,0,0.9-0.1,1.1-0.4
			C225.2,556,225.5,555.5,225.6,554.9z"/>
		<path fill="#010101" d="M227.7,557.4v-9.3h1.2v5.3l2.7-2.7h1.5l-2.6,2.5l2.8,4.2h-1.4l-2.3-3.5l-0.8,0.8v2.7H227.7L227.7,557.4z"
			/>
	</g>
	<g>
		<path fill="#010101" d="M313.5,554.4l1.2-0.1c0.1,0.4,0.2,0.9,0.4,1.2c0.2,0.3,0.5,0.5,1,0.8s0.9,0.3,1.4,0.3
			c0.4,0,0.9-0.1,1.2-0.2c0.3-0.1,0.6-0.3,0.8-0.5c0.1-0.2,0.2-0.5,0.2-0.8c0-0.3-0.1-0.5-0.2-0.8c-0.2-0.2-0.4-0.4-0.9-0.5
			c-0.2-0.1-0.8-0.2-1.6-0.4c-0.9-0.2-1.4-0.4-1.8-0.5c-0.4-0.2-0.8-0.5-1-0.9c-0.2-0.3-0.3-0.8-0.3-1.2c0-0.4,0.1-0.9,0.4-1.3
			s0.6-0.8,1.2-1c0.5-0.2,1.1-0.3,1.7-0.3c0.6,0,1.3,0.1,1.8,0.3c0.5,0.2,1,0.5,1.2,1c0.3,0.4,0.4,0.9,0.4,1.5l-1.2,0.1
			c-0.1-0.5-0.3-1.1-0.6-1.3c-0.3-0.2-0.9-0.4-1.6-0.4s-1.3,0.1-1.6,0.4c-0.3,0.3-0.5,0.6-0.5,1c0,0.3,0.1,0.6,0.3,0.9
			c0.2,0.2,0.9,0.4,1.8,0.6c1,0.2,1.7,0.4,2,0.5c0.5,0.2,1,0.5,1.2,1c0.2,0.4,0.4,0.9,0.4,1.3c0,0.5-0.1,1-0.4,1.4
			c-0.3,0.4-0.6,0.8-1.2,1c-0.5,0.2-1.1,0.3-1.8,0.3c-0.9,0-1.5-0.1-2.2-0.3c-0.6-0.2-1-0.6-1.3-1.1
			C313.6,555.9,313.6,555,313.5,554.4z"/>
		<path fill="#010101" d="M322.5,559.9v-9.3h1.1v0.9c0.2-0.3,0.5-0.6,0.9-0.8c0.3-0.1,0.6-0.2,1.1-0.2c0.5,0,1.1,0.1,1.5,0.4
			c0.4,0.3,0.8,0.8,1,1.3s0.3,1.1,0.3,1.7s-0.1,1.3-0.3,1.8c-0.2,0.5-0.6,1-1.1,1.3c-0.4,0.3-1,0.4-1.5,0.4c-0.4,0-0.8-0.1-1-0.2
			c-0.2-0.1-0.5-0.3-0.8-0.6v3.2L322.5,559.9L322.5,559.9z M323.4,554.1c0,0.9,0.2,1.5,0.5,1.9c0.3,0.4,0.8,0.6,1.3,0.6
			c0.5,0,1-0.2,1.3-0.6s0.5-1.1,0.5-1.9c0-0.9-0.2-1.5-0.5-1.9s-0.8-0.6-1.3-0.6c-0.4,0-0.9,0.2-1.3,0.6
			C323.5,552.6,323.4,553.2,323.4,554.1z"/>
		<path fill="#010101" d="M334,556.5c-0.4,0.3-0.9,0.6-1.2,0.8c-0.4,0.1-0.8,0.2-1.3,0.2c-0.8,0-1.3-0.2-1.7-0.5
			c-0.4-0.3-0.6-0.9-0.6-1.4c0-0.3,0.1-0.6,0.2-0.9c0.1-0.2,0.3-0.5,0.5-0.6c0.2-0.2,0.5-0.3,0.9-0.3c0.2-0.1,0.5-0.1,1-0.2
			c1-0.1,1.6-0.2,2-0.4c0-0.1,0-0.2,0-0.3c0-0.4-0.1-0.8-0.3-1c-0.3-0.2-0.8-0.4-1.3-0.4c-0.5,0-1,0.1-1.2,0.3
			c-0.2,0.2-0.4,0.5-0.5,1l-1.1-0.1c0.1-0.4,0.2-0.9,0.5-1.2c0.3-0.3,0.5-0.5,1-0.6s1-0.2,1.5-0.2s1.1,0.1,1.4,0.2s0.6,0.3,0.8,0.5
			c0.1,0.2,0.3,0.4,0.3,0.8c0,0.2,0.1,0.5,0.1,1.1v1.5c0,1.1,0,1.7,0.1,2s0.1,0.5,0.3,0.8h-1.2C334.1,557.1,334.1,556.9,334,556.5z
			 M333.9,554c-0.4,0.2-1.1,0.3-1.8,0.4c-0.4,0.1-0.8,0.1-1,0.2s-0.3,0.2-0.4,0.3c-0.1,0.1-0.1,0.3-0.1,0.5c0,0.3,0.1,0.5,0.3,0.8
			c0.2,0.2,0.5,0.3,1,0.3s0.9-0.1,1.2-0.3c0.3-0.2,0.5-0.4,0.8-0.8c0.1-0.2,0.2-0.6,0.2-1.2L333.9,554L333.9,554z"/>
		<path fill="#010101" d="M336.8,557.4v-6.7h1v1c0.2-0.4,0.5-0.8,0.8-1c0.2-0.1,0.4-0.2,0.8-0.2c0.4,0,0.8,0.1,1.2,0.3l-0.4,1.1
			c-0.3-0.2-0.5-0.2-0.9-0.2c-0.2,0-0.4,0.1-0.6,0.2c-0.2,0.1-0.3,0.3-0.4,0.6c-0.1,0.4-0.2,0.9-0.2,1.3v3.6H336.8L336.8,557.4z"/>
		<path fill="#010101" d="M345.8,555.3l1.2,0.1c-0.2,0.6-0.5,1.2-1.1,1.6c-0.5,0.4-1.2,0.5-1.9,0.5c-1,0-1.7-0.3-2.4-0.9
			c-0.6-0.5-0.9-1.4-0.9-2.6c0-1.1,0.3-2,0.9-2.6c0.5-0.5,1.3-1,2.3-1c0.9,0,1.6,0.3,2.2,0.9c0.5,0.5,0.9,1.5,0.9,2.6
			c0,0.1,0,0.2,0,0.3h-5c0,0.8,0.2,1.3,0.6,1.7c0.4,0.4,0.9,0.5,1.4,0.5c0.4,0,0.8-0.1,1.1-0.3C345.3,556,345.5,555.7,345.8,555.3z
			 M342,553.3h3.8c0-0.5-0.2-1-0.4-1.3c-0.3-0.4-0.9-0.6-1.4-0.6c-0.5,0-1,0.2-1.3,0.5C342.3,552.3,342.1,552.8,342,553.3z"/>
		<path fill="#010101" d="M348.5,557.4v-9.3h3.5c0.8,0,1.3,0.1,1.7,0.3c0.4,0.2,0.8,0.4,1,0.9c0.2,0.4,0.3,0.8,0.3,1.2
			s-0.1,0.8-0.3,1.1c-0.2,0.3-0.5,0.6-1,0.9c0.5,0.2,1,0.4,1.3,0.9c0.3,0.4,0.4,0.9,0.4,1.4c0,0.4-0.1,0.9-0.3,1.2
			c-0.2,0.3-0.4,0.6-0.6,0.9c-0.2,0.2-0.6,0.3-1,0.4s-0.9,0.1-1.5,0.1h-3.5V557.4z M349.6,552h2c0.5,0,1,0,1.2-0.1
			c0.3-0.1,0.5-0.2,0.8-0.4c0.1-0.2,0.2-0.4,0.2-0.9c0-0.3-0.1-0.5-0.2-0.9c-0.1-0.3-0.3-0.4-0.6-0.4c-0.3-0.1-0.8-0.1-1.4-0.1h-1.9
			V552L349.6,552z M349.6,556.2h2.3c0.4,0,0.6,0,0.9,0c0.3,0,0.5-0.1,0.8-0.2c0.2-0.1,0.3-0.3,0.4-0.5c0.1-0.2,0.2-0.5,0.2-0.8
			c0-0.3-0.1-0.6-0.2-0.9c-0.2-0.2-0.4-0.4-0.8-0.5s-0.8-0.1-1.4-0.1h-2.2V556.2L349.6,556.2z"/>
		<path fill="#010101" d="M357,557.4v-9.3h1.2v9.3H357z"/>
		<path fill="#010101" d="M359.5,554c0-1.3,0.3-2.2,1.1-2.8c0.5-0.5,1.3-0.8,2.2-0.8c1,0,1.7,0.3,2.3,0.9c0.5,0.6,0.9,1.4,0.9,2.5
			c0,0.9-0.1,1.5-0.4,2c-0.2,0.5-0.6,0.9-1.1,1.2s-1.1,0.4-1.6,0.4c-1,0-1.7-0.3-2.3-0.9C359.9,556,359.5,555.1,359.5,554z
			 M360.6,554c0,0.9,0.2,1.5,0.5,1.9c0.3,0.4,0.9,0.6,1.4,0.6s1.1-0.2,1.4-0.6c0.3-0.4,0.5-1.1,0.5-1.9c0-0.9-0.2-1.5-0.5-1.8
			c-0.3-0.3-0.9-0.6-1.4-0.6s-1.1,0.2-1.4,0.6C360.9,552.6,360.6,553.1,360.6,554z"/>
		<path fill="#010101" d="M371.4,554.9l1.1,0.1c-0.1,0.8-0.4,1.4-1,1.8s-1.1,0.6-1.8,0.6c-1,0-1.6-0.3-2.3-0.9
			c-0.6-0.5-0.9-1.5-0.9-2.6c0-0.8,0.1-1.4,0.3-1.9c0.2-0.5,0.6-1,1.1-1.2c0.4-0.2,1.1-0.4,1.6-0.4c0.8,0,1.3,0.2,1.8,0.5
			c0.5,0.3,0.8,0.9,0.9,1.6l-1.1,0.2c-0.1-0.4-0.3-0.8-0.5-1c-0.2-0.2-0.5-0.3-1-0.3c-0.5,0-1.1,0.2-1.4,0.6
			c-0.3,0.4-0.5,1.1-0.5,1.9c0,0.9,0.2,1.5,0.5,1.9c0.3,0.4,0.8,0.6,1.4,0.6c0.4,0,0.9-0.1,1.1-0.4C371,556,371.3,555.5,371.4,554.9
			z"/>
		<path fill="#010101" d="M373.6,557.4v-9.3h1.2v5.3l2.7-2.7h1.5l-2.6,2.5l2.8,4.2h-1.5l-2.3-3.5l-0.8,0.8v2.7H373.6L373.6,557.4z"
			/>
	</g>
	<g>
		<path fill="#010101" d="M214.3,471.5v-9.3h3.5c0.8,0,1.3,0.1,1.7,0.3c0.4,0.2,0.8,0.4,1,0.9c0.2,0.4,0.3,0.8,0.3,1.2
			s-0.1,0.8-0.3,1.1c-0.2,0.3-0.5,0.6-1,0.9c0.5,0.2,1,0.4,1.3,0.9c0.3,0.4,0.4,0.9,0.4,1.4c0,0.4-0.1,0.9-0.3,1.2
			c-0.2,0.3-0.4,0.6-0.6,0.9s-0.6,0.3-1,0.4c-0.4,0.1-0.9,0.1-1.5,0.1L214.3,471.5L214.3,471.5z M215.5,466.1h2c0.5,0,1,0,1.2-0.1
			c0.3-0.1,0.5-0.2,0.8-0.4c0.2-0.2,0.2-0.4,0.2-0.9c0-0.3-0.1-0.5-0.2-0.9c-0.1-0.3-0.3-0.4-0.6-0.4c-0.3-0.1-0.8-0.1-1.4-0.1h-1.8
			L215.5,466.1L215.5,466.1z M215.5,470.4h2.3c0.4,0,0.6,0,0.9,0c0.3,0,0.5-0.1,0.8-0.2s0.3-0.3,0.4-0.5c0.1-0.2,0.2-0.5,0.2-0.8
			c0-0.3-0.1-0.6-0.2-0.9c-0.1-0.2-0.4-0.4-0.8-0.5c-0.3-0.1-0.8-0.1-1.4-0.1h-2.2V470.4L215.5,470.4z"/>
		<path fill="#010101" d="M227.2,470.6c-0.4,0.3-0.9,0.6-1.2,0.8c-0.4,0.1-0.8,0.2-1.3,0.2c-0.8,0-1.3-0.2-1.7-0.5s-0.6-0.9-0.6-1.4
			c0-0.3,0.1-0.6,0.2-0.9c0.1-0.3,0.3-0.5,0.5-0.6c0.2-0.2,0.5-0.3,0.9-0.3c0.2-0.1,0.5-0.1,1-0.2c1-0.1,1.6-0.2,2-0.4
			c0-0.1,0-0.2,0-0.3c0-0.4-0.1-0.8-0.3-1c-0.3-0.2-0.8-0.4-1.3-0.4c-0.5,0-1,0.1-1.2,0.3c-0.2,0.2-0.4,0.5-0.5,1l-1.1-0.1
			c0.1-0.4,0.2-0.9,0.5-1.2c0.2-0.3,0.5-0.5,1-0.6s1-0.2,1.5-0.2c0.5,0,1.1,0.1,1.4,0.2c0.3,0.1,0.6,0.3,0.8,0.5
			c0.2,0.2,0.3,0.4,0.3,0.8c0,0.2,0.1,0.5,0.1,1.1v1.5c0,1.1,0,1.7,0.1,2c0,0.3,0.1,0.5,0.3,0.8h-1.2
			C227.4,471.2,227.2,470.9,227.2,470.6z M227.1,468.1c-0.4,0.2-1.1,0.3-1.8,0.4c-0.4,0.1-0.8,0.1-1,0.2c-0.2,0.1-0.3,0.2-0.4,0.3
			c-0.1,0.2-0.1,0.3-0.1,0.5c0,0.3,0.1,0.5,0.3,0.8c0.2,0.2,0.5,0.3,1,0.3s0.9-0.1,1.2-0.3c0.3-0.2,0.5-0.4,0.8-0.8
			c0.1-0.2,0.2-0.6,0.2-1.2v-0.3H227.1z"/>
		<path fill="#010101" d="M230,471.5v-6.7h1v1c0.5-0.8,1.2-1.1,2.2-1.1c0.4,0,0.8,0.1,1.1,0.2c0.3,0.1,0.5,0.3,0.8,0.5
			c0.2,0.2,0.3,0.5,0.3,0.9c0,0.2,0.1,0.5,0.1,1.1v4.1h-1.2v-4.1c0-0.4,0-0.9-0.1-1.1c-0.1-0.2-0.2-0.4-0.4-0.5s-0.5-0.2-0.8-0.2
			c-0.4,0-0.9,0.1-1.3,0.4c-0.4,0.3-0.5,0.9-0.5,1.7v3.7L230,471.5L230,471.5z"/>
		<path fill="#010101" d="M241.6,471.5v-0.9c-0.4,0.6-1.1,1-1.8,1c-0.5,0-1.1-0.1-1.5-0.4s-0.8-0.8-1.1-1.2
			c-0.3-0.4-0.3-1.2-0.3-1.8c0-0.6,0.1-1.3,0.3-1.8c0.2-0.5,0.5-1,1-1.3c0.4-0.3,1-0.4,1.5-0.4c0.4,0,0.8,0.1,1.1,0.2
			c0.3,0.2,0.5,0.4,0.8,0.6v-3.3h1.1v9.3L241.6,471.5L241.6,471.5z M238,468.1c0,0.9,0.2,1.5,0.5,1.9c0.3,0.4,0.8,0.6,1.3,0.6
			c0.5,0,1-0.2,1.3-0.6s0.5-1.1,0.5-1.8c0-1-0.2-1.6-0.5-2s-0.8-0.6-1.3-0.6c-0.5,0-1,0.2-1.3,0.6C238.1,466.6,238,467.3,238,468.1z
			"/>
		<path fill="#010101" d="M253.7,470.4v1.1h-6.1c0-0.3,0-0.5,0.1-0.8c0.1-0.4,0.4-0.9,0.8-1.2c0.3-0.3,0.9-0.9,1.5-1.4
			c1-0.9,1.7-1.5,2-1.9s0.5-1,0.5-1.4s-0.1-0.9-0.4-1.2c-0.3-0.3-0.8-0.4-1.3-0.4c-0.5,0-1,0.2-1.3,0.5c-0.3,0.3-0.5,0.8-0.5,1.4
			l-1.2-0.1c0.1-0.9,0.4-1.5,0.9-1.9c0.5-0.4,1.2-0.6,2.2-0.6c0.9,0,1.6,0.2,2.2,0.8c0.5,0.5,0.8,1.1,0.8,1.8c0,0.3-0.1,0.8-0.2,1.1
			c-0.1,0.3-0.4,0.8-0.8,1.1c-0.3,0.4-1,1-1.7,1.6c-0.6,0.5-1.1,1-1.3,1.2c-0.2,0.2-0.3,0.4-0.4,0.6L253.7,470.4L253.7,470.4z"/>
	</g>
	<g>
		<path fill="#010101" d="M294.9,471.5v-9.3h3.5c0.8,0,1.3,0.1,1.7,0.3c0.4,0.2,0.8,0.4,1,0.9c0.2,0.4,0.3,0.8,0.3,1.2
			s-0.1,0.8-0.3,1.1c-0.2,0.3-0.5,0.6-1,0.9c0.5,0.2,1,0.4,1.3,0.9c0.3,0.4,0.4,0.9,0.4,1.4c0,0.4-0.1,0.9-0.3,1.2s-0.4,0.6-0.6,0.9
			s-0.6,0.3-1,0.4c-0.4,0.1-0.9,0.1-1.5,0.1L294.9,471.5L294.9,471.5z M296.2,466.1h2c0.5,0,1,0,1.2-0.1c0.3-0.1,0.5-0.2,0.8-0.4
			c0.2-0.2,0.2-0.4,0.2-0.9c0-0.3-0.1-0.5-0.2-0.9c-0.1-0.3-0.3-0.4-0.6-0.4c-0.3-0.1-0.8-0.1-1.4-0.1h-1.8L296.2,466.1L296.2,466.1
			z M296.2,470.4h2.3c0.4,0,0.6,0,0.9,0c0.3,0,0.5-0.1,0.8-0.2c0.2-0.1,0.3-0.3,0.4-0.5c0.1-0.2,0.2-0.5,0.2-0.8
			c0-0.3-0.1-0.6-0.2-0.9c-0.1-0.2-0.4-0.4-0.8-0.5c-0.3-0.1-0.8-0.1-1.4-0.1h-2.2V470.4L296.2,470.4z"/>
		<path fill="#010101" d="M307.8,470.6c-0.4,0.3-0.9,0.6-1.2,0.8c-0.4,0.1-0.8,0.2-1.3,0.2c-0.8,0-1.3-0.2-1.7-0.5s-0.6-0.9-0.6-1.4
			c0-0.3,0.1-0.6,0.2-0.9c0.1-0.3,0.3-0.5,0.5-0.6c0.2-0.2,0.5-0.3,0.9-0.3c0.2-0.1,0.5-0.1,1-0.2c1-0.1,1.6-0.2,2-0.4
			c0-0.1,0-0.2,0-0.3c0-0.4-0.1-0.8-0.3-1c-0.3-0.2-0.8-0.4-1.3-0.4c-0.5,0-1,0.1-1.2,0.3c-0.2,0.2-0.4,0.5-0.5,1l-1.1-0.1
			c0.1-0.4,0.2-0.9,0.5-1.2c0.2-0.3,0.5-0.5,1-0.6s1-0.2,1.5-0.2c0.5,0,1.1,0.1,1.4,0.2c0.3,0.1,0.6,0.3,0.8,0.5
			c0.2,0.2,0.3,0.4,0.3,0.8c0,0.2,0.1,0.5,0.1,1.1v1.5c0,1.1,0,1.7,0.1,2c0,0.3,0.1,0.5,0.3,0.8H308
			C307.9,471.2,307.8,470.9,307.8,470.6z M307.7,468.1c-0.4,0.2-1.1,0.3-1.8,0.4c-0.4,0.1-0.8,0.1-1,0.2c-0.2,0.1-0.3,0.2-0.4,0.3
			c-0.1,0.2-0.1,0.3-0.1,0.5c0,0.3,0.1,0.5,0.3,0.8c0.2,0.2,0.5,0.3,1,0.3s0.9-0.1,1.2-0.3c0.3-0.2,0.5-0.4,0.8-0.8
			c0.1-0.2,0.2-0.6,0.2-1.2L307.7,468.1L307.7,468.1z"/>
		<path fill="#010101" d="M310.6,471.5v-6.7h1v1c0.5-0.8,1.2-1.1,2.2-1.1c0.4,0,0.8,0.1,1.1,0.2s0.5,0.3,0.8,0.5
			c0.2,0.2,0.3,0.5,0.3,0.9c0,0.2,0.1,0.5,0.1,1.1v4.1h-1.2v-4.1c0-0.4,0-0.9-0.1-1.1s-0.2-0.4-0.4-0.5c-0.2-0.1-0.5-0.2-0.8-0.2
			c-0.4,0-0.9,0.1-1.3,0.4s-0.5,0.9-0.5,1.7v3.7L310.6,471.5L310.6,471.5z"/>
		<path fill="#010101" d="M322.1,471.5v-0.9c-0.4,0.6-1.1,1-1.8,1c-0.5,0-1.1-0.1-1.5-0.4s-0.8-0.8-1.1-1.2
			c-0.3-0.4-0.3-1.2-0.3-1.8c0-0.6,0.1-1.3,0.3-1.8c0.2-0.5,0.5-1,1-1.3c0.4-0.3,1-0.4,1.5-0.4c0.4,0,0.8,0.1,1.1,0.2
			c0.3,0.2,0.5,0.4,0.8,0.6v-3.3h1.1v9.3L322.1,471.5L322.1,471.5z M318.6,468.1c0,0.9,0.2,1.5,0.5,1.9c0.3,0.4,0.8,0.6,1.3,0.6
			c0.5,0,1-0.2,1.3-0.6c0.3-0.4,0.5-1.1,0.5-1.8c0-1-0.2-1.6-0.5-2c-0.3-0.4-0.8-0.6-1.3-0.6c-0.5,0-1,0.2-1.3,0.6
			C318.8,466.6,318.6,467.3,318.6,468.1z"/>
		<path fill="#010101" d="M328.3,469l1.2-0.1c0.1,0.6,0.3,1.1,0.6,1.4c0.3,0.3,0.6,0.4,1.2,0.4s1-0.2,1.4-0.5
			c0.3-0.3,0.5-0.9,0.5-1.4s-0.2-1-0.5-1.3c-0.3-0.3-0.8-0.5-1.3-0.5c-0.2,0-0.4,0-0.8,0.1l0.1-1c0.1,0,0.1,0,0.2,0
			c0.4,0,1-0.1,1.3-0.4c0.3-0.3,0.5-0.6,0.5-1.2c0-0.4-0.1-0.8-0.4-1.1c-0.3-0.3-0.6-0.4-1.1-0.4c-0.4,0-0.9,0.1-1.1,0.4
			c-0.2,0.3-0.4,0.6-0.5,1.3l-1.2-0.2c0.1-0.8,0.4-1.4,1-1.7c0.5-0.4,1.1-0.6,1.8-0.6c0.5,0,1,0.1,1.4,0.3c0.4,0.2,0.8,0.5,1,0.9
			c0.2,0.3,0.3,0.8,0.3,1.2s-0.1,0.8-0.3,1.1c-0.2,0.3-0.5,0.5-1,0.8c0.5,0.1,1,0.4,1.3,0.8c0.3,0.3,0.4,0.9,0.4,1.5
			c0,0.9-0.3,1.5-0.9,2c-0.5,0.5-1.3,0.9-2.3,0.9c-0.9,0-1.5-0.2-2-0.8C328.7,470.4,328.4,469.7,328.3,469z"/>
	</g>
	<g>
		<path fill="#010101" d="M528.4,471.5v-9.3h3.5c0.8,0,1.3,0.1,1.7,0.3c0.4,0.2,0.8,0.4,1,0.9c0.2,0.4,0.3,0.8,0.3,1.2
			s-0.1,0.8-0.3,1.1c-0.2,0.3-0.5,0.6-1,0.9c0.5,0.2,1,0.4,1.3,0.9c0.3,0.4,0.4,0.9,0.4,1.4c0,0.4-0.1,0.9-0.3,1.2
			c-0.2,0.3-0.4,0.6-0.6,0.9s-0.6,0.3-1,0.4c-0.4,0.1-0.9,0.1-1.5,0.1L528.4,471.5L528.4,471.5z M529.6,466.1h2c0.5,0,1,0,1.2-0.1
			c0.3-0.1,0.5-0.2,0.8-0.4c0.2-0.2,0.2-0.4,0.2-0.9c0-0.3-0.1-0.5-0.2-0.9c-0.1-0.3-0.3-0.4-0.6-0.4c-0.3-0.1-0.8-0.1-1.4-0.1h-1.8
			L529.6,466.1L529.6,466.1z M529.6,470.4h2.3c0.4,0,0.6,0,0.9,0c0.3,0,0.5-0.1,0.8-0.2s0.3-0.3,0.4-0.5c0.1-0.2,0.2-0.5,0.2-0.8
			c0-0.3-0.1-0.6-0.2-0.9s-0.4-0.4-0.8-0.5c-0.3-0.1-0.8-0.1-1.4-0.1h-2.2V470.4L529.6,470.4z"/>
		<path fill="#010101" d="M541.4,470.6c-0.4,0.3-0.9,0.6-1.2,0.8c-0.4,0.1-0.8,0.2-1.3,0.2c-0.8,0-1.3-0.2-1.7-0.5
			c-0.4-0.3-0.6-0.9-0.6-1.4c0-0.3,0.1-0.6,0.2-0.9c0.1-0.3,0.3-0.5,0.5-0.6c0.2-0.2,0.5-0.3,0.9-0.3c0.2-0.1,0.5-0.1,1-0.2
			c1-0.1,1.6-0.2,2-0.4c0-0.1,0-0.2,0-0.3c0-0.4-0.1-0.8-0.3-1c-0.3-0.2-0.8-0.4-1.3-0.4c-0.5,0-1,0.1-1.2,0.3
			c-0.2,0.2-0.4,0.5-0.5,1l-1.1-0.1c0.1-0.4,0.2-0.9,0.5-1.2c0.2-0.3,0.5-0.5,1-0.6c0.4-0.1,1-0.2,1.5-0.2c0.5,0,1.1,0.1,1.4,0.2
			c0.3,0.1,0.6,0.3,0.8,0.5c0.2,0.2,0.3,0.4,0.3,0.8c0,0.2,0.1,0.5,0.1,1.1v1.5c0,1.1,0,1.7,0.1,2c0,0.3,0.1,0.5,0.3,0.8h-1.2
			C541.5,471.2,541.4,470.9,541.4,470.6z M541.3,468.1c-0.4,0.2-1.1,0.3-1.8,0.4c-0.4,0.1-0.8,0.1-1,0.2c-0.2,0.1-0.3,0.2-0.4,0.3
			c-0.1,0.2-0.1,0.3-0.1,0.5c0,0.3,0.1,0.5,0.3,0.8c0.2,0.2,0.5,0.3,1,0.3c0.4,0,0.9-0.1,1.2-0.3s0.5-0.4,0.8-0.8
			c0.1-0.2,0.2-0.6,0.2-1.2L541.3,468.1L541.3,468.1z"/>
		<path fill="#010101" d="M544.2,471.5v-6.7h1v1c0.5-0.8,1.2-1.1,2.2-1.1c0.4,0,0.8,0.1,1.1,0.2c0.3,0.1,0.5,0.3,0.8,0.5
			c0.2,0.2,0.3,0.5,0.3,0.9c0,0.2,0.1,0.5,0.1,1.1v4.1h-1.2v-4.1c0-0.4,0-0.9-0.1-1.1s-0.2-0.4-0.4-0.5c-0.2-0.1-0.5-0.2-0.8-0.2
			c-0.4,0-0.9,0.1-1.3,0.4s-0.5,0.9-0.5,1.7v3.7L544.2,471.5L544.2,471.5z"/>
		<path fill="#010101" d="M555.7,471.5v-0.9c-0.4,0.6-1.1,1-1.8,1c-0.5,0-1.1-0.1-1.5-0.4c-0.4-0.3-0.8-0.8-1.1-1.2
			c-0.3-0.4-0.3-1.2-0.3-1.8c0-0.6,0.1-1.3,0.3-1.8c0.2-0.5,0.5-1,1-1.3c0.4-0.3,1-0.4,1.5-0.4c0.4,0,0.8,0.1,1.1,0.2
			c0.3,0.2,0.5,0.4,0.8,0.6v-3.3h1.1v9.3L555.7,471.5L555.7,471.5z M552.2,468.1c0,0.9,0.2,1.5,0.5,1.9c0.3,0.4,0.8,0.6,1.3,0.6
			c0.5,0,1-0.2,1.3-0.6s0.5-1.1,0.5-1.8c0-1-0.2-1.6-0.5-2s-0.8-0.6-1.3-0.6c-0.5,0-1,0.2-1.3,0.6
			C552.3,466.6,552.2,467.3,552.2,468.1z"/>
		<path fill="#010101" d="M562.2,471.5v-6.7h1v1c0.5-0.8,1.2-1.1,2.2-1.1c0.4,0,0.8,0.1,1.1,0.2c0.3,0.1,0.5,0.3,0.8,0.5
			c0.2,0.2,0.3,0.5,0.3,0.9c0,0.2,0.1,0.5,0.1,1.1v4.1h-1.2v-4.1c0-0.4,0-0.9-0.1-1.1s-0.2-0.4-0.4-0.5c-0.2-0.1-0.5-0.2-0.8-0.2
			c-0.4,0-0.9,0.1-1.3,0.4s-0.5,0.9-0.5,1.7v3.7L562.2,471.5L562.2,471.5z"/>
	</g>
	<g>
		<path fill="#FFFFFF" d="M172,379.6v-9.3h3.5c0.8,0,1.3,0.1,1.7,0.3c0.4,0.2,0.8,0.4,1,0.9s0.3,0.8,0.3,1.2s-0.1,0.8-0.3,1.1
			c-0.2,0.3-0.5,0.6-1,0.9c0.5,0.2,1,0.4,1.3,0.9c0.3,0.4,0.4,0.9,0.4,1.4c0,0.4-0.1,0.9-0.3,1.2c-0.2,0.3-0.4,0.6-0.6,0.9
			c-0.2,0.2-0.6,0.3-1,0.4c-0.4,0.1-0.9,0.1-1.5,0.1H172V379.6z M173.3,374.2h2c0.5,0,1,0,1.2-0.1c0.3-0.1,0.5-0.2,0.8-0.4
			c0.1-0.2,0.2-0.4,0.2-0.9c0-0.3-0.1-0.5-0.2-0.9c-0.1-0.2-0.3-0.4-0.6-0.4c-0.3-0.1-0.8-0.1-1.4-0.1h-1.8L173.3,374.2L173.3,374.2
			z M173.3,378.5h2.3c0.4,0,0.6,0,0.9,0c0.3,0,0.5-0.1,0.8-0.2c0.2-0.1,0.3-0.3,0.4-0.5c0.1-0.2,0.2-0.5,0.2-0.8
			c0-0.3-0.1-0.6-0.2-0.9c-0.1-0.2-0.4-0.4-0.8-0.5c-0.3-0.1-0.8-0.1-1.4-0.1h-2.2V378.5L173.3,378.5z"/>
		<path fill="#FFFFFF" d="M180.7,371.6v-1.3h1.2v1.3H180.7z M180.7,379.6v-6.7h1.2v6.7H180.7L180.7,379.6z"/>
		<path fill="#FFFFFF" d="M185.9,378.6l0.2,1c-0.3,0.1-0.6,0.1-0.9,0.1c-0.4,0-0.8-0.1-1-0.2c-0.2-0.1-0.4-0.3-0.4-0.5
			c0-0.2-0.1-0.6-0.1-1.3v-3.9h-0.9v-0.9h0.9v-1.6l1.1-0.6v2.4h1.2v0.9h-1.2v3.9c0,0.3,0,0.5,0.1,0.6c0.1,0.1,0.1,0.2,0.2,0.2
			c0.1,0.1,0.2,0.1,0.4,0.1C185.6,378.6,185.7,378.6,185.9,378.6z"/>
		<path fill="#FFFFFF" d="M187.1,379.6v-6.7h1v1c0.2-0.3,0.5-0.5,0.9-0.8c0.3-0.2,0.8-0.3,1.2-0.3c0.5,0,0.9,0.1,1.2,0.3
			c0.3,0.2,0.5,0.5,0.6,0.9c0.5-0.8,1.2-1.2,2-1.2c0.6,0,1.2,0.2,1.5,0.5c0.3,0.3,0.5,1,0.5,1.7v4.6H195v-4.3c0-0.4,0-0.8-0.1-1
			c-0.1-0.2-0.2-0.3-0.4-0.4c-0.2-0.1-0.4-0.2-0.6-0.2c-0.4,0-0.9,0.1-1.2,0.4c-0.3,0.3-0.4,0.9-0.4,1.5v3.9h-1.1v-4.3
			c0-0.5-0.1-0.9-0.3-1.2c-0.2-0.2-0.5-0.4-0.9-0.4s-0.6,0.1-0.9,0.2c-0.3,0.2-0.4,0.4-0.5,0.8c-0.1,0.3-0.2,0.8-0.2,1.4v3.5
			L187.1,379.6L187.1,379.6z"/>
		<path fill="#FFFFFF" d="M202.2,378.8c-0.4,0.3-0.9,0.6-1.2,0.8c-0.4,0.1-0.8,0.2-1.3,0.2c-0.8,0-1.3-0.2-1.7-0.5s-0.6-0.9-0.6-1.4
			c0-0.3,0.1-0.6,0.2-0.9c0.1-0.2,0.3-0.5,0.5-0.6c0.2-0.1,0.5-0.3,0.9-0.3c0.2-0.1,0.5-0.1,1-0.2c1-0.1,1.6-0.2,2-0.4
			c0-0.1,0-0.2,0-0.3c0-0.4-0.1-0.8-0.3-1c-0.3-0.2-0.8-0.4-1.3-0.4c-0.5,0-1,0.1-1.2,0.3c-0.2,0.2-0.4,0.5-0.5,1l-1.1-0.1
			c0.1-0.4,0.2-0.9,0.5-1.2c0.3-0.3,0.5-0.5,1-0.6c0.4-0.1,1-0.2,1.5-0.2c0.5,0,1.1,0.1,1.4,0.2c0.3,0.1,0.6,0.3,0.8,0.5
			c0.1,0.2,0.3,0.4,0.3,0.8c0,0.2,0.1,0.5,0.1,1.1v1.5c0,1.1,0,1.7,0.1,2c0,0.3,0.1,0.5,0.3,0.8h-1.2
			C202.3,379.4,202.3,379,202.2,378.8z M202.1,376.2c-0.4,0.2-1.1,0.3-1.8,0.4c-0.4,0.1-0.8,0.1-1,0.2c-0.2,0.1-0.3,0.2-0.4,0.3
			c-0.1,0.2-0.1,0.3-0.1,0.5c0,0.3,0.1,0.5,0.3,0.8c0.2,0.2,0.5,0.3,1,0.3s0.9-0.1,1.2-0.3c0.3-0.2,0.5-0.4,0.8-0.8
			c0.1-0.2,0.2-0.6,0.2-1.2v-0.3H202.1z"/>
		<path fill="#FFFFFF" d="M205,382.2v-9.3h1.1v0.9c0.2-0.3,0.5-0.6,0.9-0.8c0.3-0.2,0.6-0.2,1.1-0.2c0.5,0,1.1,0.1,1.5,0.4
			c0.4,0.3,0.8,0.8,1,1.3c0.2,0.5,0.3,1.1,0.3,1.7c0,0.6-0.1,1.3-0.3,1.8c-0.2,0.5-0.6,1-1.1,1.3s-1,0.4-1.5,0.4
			c-0.4,0-0.8-0.1-1-0.2c-0.2-0.1-0.5-0.3-0.8-0.6v3.2L205,382.2L205,382.2z M206.1,376.2c0,0.9,0.2,1.5,0.5,1.9s0.8,0.6,1.3,0.6
			c0.5,0,1-0.2,1.3-0.6c0.3-0.4,0.5-1.1,0.5-1.9s-0.2-1.5-0.5-1.9c-0.3-0.4-0.8-0.6-1.3-0.6c-0.4,0-0.9,0.2-1.3,0.6
			C206.2,374.7,206.1,375.4,206.1,376.2z"/>
		<path fill="#FFFFFF" d="M172.2,395.1v-5.8h-1v-0.9h1v-0.8c0-0.4,0-0.8,0.1-1c0.1-0.3,0.3-0.5,0.5-0.8c0.3-0.2,0.6-0.3,1.2-0.3
			c0.3,0,0.6,0,1.1,0.1l-0.2,1c-0.2,0-0.4-0.1-0.6-0.1c-0.3,0-0.5,0.1-0.8,0.2c-0.1,0.1-0.2,0.4-0.2,0.9v0.6h1.3v0.9h-1.3v5.8
			L172.2,395.1L172.2,395.1z"/>
		<path fill="#FFFFFF" d="M175.2,391.8c0-1.3,0.3-2.2,1.1-2.8c0.5-0.5,1.3-0.8,2.2-0.8c1,0,1.7,0.3,2.3,0.9c0.5,0.6,0.9,1.4,0.9,2.5
			c0,0.9-0.1,1.5-0.4,2c-0.2,0.5-0.6,0.9-1.1,1.2c-0.5,0.3-1.1,0.4-1.6,0.4c-1,0-1.7-0.3-2.3-0.9C175.5,393.8,175.2,393,175.2,391.8
			z M176.3,391.8c0,0.9,0.2,1.5,0.5,1.9c0.3,0.4,0.9,0.6,1.4,0.6c0.5,0,1.1-0.2,1.4-0.6c0.3-0.4,0.5-1.1,0.5-1.9s-0.2-1.5-0.5-1.8
			c-0.3-0.4-0.9-0.6-1.4-0.6c-0.5,0-1.1,0.2-1.4,0.6C176.6,390.4,176.3,390.9,176.3,391.8z"/>
		<path fill="#FFFFFF" d="M182.8,395.1v-6.7h1v1c0.2-0.4,0.5-0.8,0.8-1c0.2-0.1,0.4-0.2,0.8-0.2c0.4,0,0.8,0.1,1.2,0.3l-0.4,1.1
			c-0.3-0.2-0.5-0.2-0.9-0.2c-0.2,0-0.4,0.1-0.6,0.2c-0.2,0.1-0.3,0.3-0.4,0.6c-0.1,0.4-0.2,0.9-0.2,1.3v3.6L182.8,395.1
			L182.8,395.1z"/>
		<path fill="#FFFFFF" d="M190.8,395.1v-9.3h3.5c0.8,0,1.3,0.1,1.7,0.3c0.4,0.2,0.8,0.4,1,0.9c0.2,0.4,0.3,0.8,0.3,1.2
			c0,0.4-0.1,0.8-0.3,1.1c-0.2,0.3-0.5,0.6-1,0.9c0.5,0.2,1,0.4,1.3,0.9c0.3,0.4,0.4,0.9,0.4,1.4c0,0.4-0.1,0.9-0.3,1.2
			c-0.2,0.3-0.4,0.6-0.6,0.9c-0.2,0.2-0.6,0.3-1,0.4c-0.3,0.1-0.9,0.1-1.5,0.1L190.8,395.1L190.8,395.1z M192,389.7h2
			c0.5,0,1,0,1.2-0.1c0.3-0.1,0.5-0.2,0.8-0.4c0.1-0.2,0.2-0.4,0.2-0.9c0-0.3-0.1-0.5-0.2-0.9c-0.1-0.2-0.3-0.4-0.6-0.4
			c-0.3-0.1-0.8-0.1-1.4-0.1h-1.8L192,389.7L192,389.7z M192,394h2.4c0.4,0,0.6,0,0.9,0c0.3,0,0.5-0.1,0.8-0.2
			c0.2-0.1,0.3-0.3,0.4-0.5c0.1-0.2,0.2-0.5,0.2-0.8c0-0.3-0.1-0.6-0.2-0.9c-0.2-0.2-0.4-0.4-0.8-0.5c-0.3-0.1-0.8-0.1-1.4-0.1h-2.2
			L192,394L192,394z"/>
		<path fill="#FFFFFF" d="M203.7,394.4c-0.4,0.3-0.9,0.6-1.2,0.8c-0.4,0.1-0.8,0.2-1.3,0.2c-0.8,0-1.3-0.2-1.7-0.5
			c-0.4-0.3-0.6-0.9-0.6-1.4c0-0.3,0.1-0.6,0.2-0.9c0.1-0.2,0.3-0.5,0.5-0.6s0.5-0.3,0.9-0.3c0.2-0.1,0.5-0.1,1-0.2
			c1-0.1,1.6-0.2,2-0.4c0-0.1,0-0.2,0-0.3c0-0.4-0.1-0.8-0.3-1c-0.3-0.2-0.8-0.4-1.3-0.4c-0.5,0-1,0.1-1.2,0.3
			c-0.2,0.2-0.4,0.5-0.5,1l-1.1-0.1c0.1-0.4,0.2-0.9,0.5-1.2c0.2-0.3,0.5-0.5,1-0.6s1-0.2,1.5-0.2c0.5,0,1.1,0.1,1.4,0.2
			c0.3,0.1,0.6,0.3,0.8,0.5c0.1,0.2,0.3,0.4,0.3,0.8c0,0.2,0.1,0.5,0.1,1.1v1.5c0,1.1,0,1.7,0.1,2c0.1,0.3,0.1,0.5,0.3,0.8H204
			C203.8,394.9,203.7,394.6,203.7,394.4z M203.6,391.8c-0.4,0.2-1.1,0.3-1.8,0.4c-0.4,0.1-0.8,0.1-1,0.2c-0.2,0.1-0.3,0.2-0.4,0.3
			c-0.1,0.2-0.1,0.3-0.1,0.5c0,0.3,0.1,0.5,0.3,0.8c0.2,0.2,0.5,0.3,1,0.3s0.9-0.1,1.2-0.3c0.3-0.2,0.5-0.4,0.8-0.8
			c0.1-0.2,0.2-0.6,0.2-1.2v-0.3H203.6z"/>
		<path fill="#FFFFFF" d="M206.5,395.1v-6.7h1v1c0.5-0.8,1.2-1.1,2.2-1.1c0.4,0,0.8,0.1,1.1,0.2s0.5,0.3,0.8,0.5
			c0.2,0.2,0.3,0.5,0.3,0.9c0,0.2,0.1,0.5,0.1,1.1v4.1h-1.2V391c0-0.4,0-0.9-0.1-1.1c-0.1-0.2-0.2-0.4-0.4-0.5
			c-0.2-0.1-0.5-0.2-0.8-0.2c-0.4,0-0.9,0.1-1.3,0.4c-0.3,0.3-0.5,0.9-0.5,1.7v3.7L206.5,395.1L206.5,395.1z"/>
		<path fill="#FFFFFF" d="M218.1,395.1v-0.9c-0.4,0.6-1.1,1-1.8,1c-0.5,0-1.1-0.1-1.5-0.4s-0.8-0.8-1.1-1.2
			c-0.3-0.4-0.3-1.2-0.3-1.8c0-0.6,0.1-1.3,0.3-1.8c0.2-0.5,0.5-1,1-1.3c0.4-0.3,1-0.4,1.5-0.4c0.4,0,0.8,0.1,1.1,0.2
			c0.3,0.1,0.5,0.4,0.8,0.6v-3.3h1.1v9.3C219.2,395.1,218.1,395.1,218.1,395.1z M214.5,391.8c0,0.9,0.2,1.5,0.5,1.9
			c0.3,0.4,0.8,0.6,1.3,0.6c0.5,0,1-0.2,1.3-0.6s0.5-1.1,0.5-1.8c0-1-0.2-1.6-0.5-2c-0.3-0.4-0.8-0.6-1.3-0.6c-0.5,0-1,0.2-1.3,0.6
			C214.7,390.3,214.5,390.9,214.5,391.8z"/>
		<path fill="#FFFFFF" d="M230.2,394v1.1H224c0-0.3,0-0.5,0.1-0.8c0.1-0.4,0.4-0.9,0.8-1.2s0.9-0.9,1.5-1.4c1-0.9,1.7-1.5,2-1.9
			c0.3-0.4,0.5-1,0.5-1.4s-0.1-0.9-0.4-1.2c-0.3-0.3-0.8-0.4-1.3-0.4c-0.5,0-1,0.2-1.3,0.5c-0.3,0.3-0.5,0.8-0.5,1.4l-1.2-0.1
			c0.1-0.9,0.4-1.5,0.9-1.9c0.4-0.4,1.2-0.6,2.2-0.6c0.9,0,1.6,0.2,2.2,0.8c0.5,0.5,0.8,1.1,0.8,1.8c0,0.3-0.1,0.8-0.2,1.1
			c-0.1,0.3-0.4,0.8-0.8,1.1c-0.3,0.4-1,1-1.7,1.6c-0.6,0.5-1.1,1-1.3,1.2c-0.2,0.2-0.3,0.4-0.4,0.6h4.4V394z"/>
	</g>
	<g>
		<path fill="#FFFFFF" d="M265.1,379.6v-9.3h3.5c0.8,0,1.3,0.1,1.7,0.3c0.4,0.2,0.8,0.4,1,0.9c0.2,0.4,0.3,0.8,0.3,1.2
			s-0.1,0.8-0.3,1.1c-0.2,0.3-0.5,0.6-1,0.9c0.5,0.2,1,0.4,1.3,0.9c0.3,0.4,0.4,0.9,0.4,1.4c0,0.4-0.1,0.9-0.3,1.2
			c-0.2,0.3-0.4,0.6-0.6,0.9c-0.2,0.2-0.6,0.3-1,0.4c-0.4,0.1-0.9,0.1-1.5,0.1h-3.5V379.6z M266.3,374.2h2c0.5,0,1,0,1.2-0.1
			c0.3-0.1,0.5-0.2,0.8-0.4c0.1-0.2,0.2-0.4,0.2-0.9c0-0.3-0.1-0.5-0.2-0.9c-0.1-0.2-0.3-0.4-0.6-0.4c-0.3-0.1-0.8-0.1-1.4-0.1h-1.8
			L266.3,374.2L266.3,374.2z M266.3,378.5h2.3c0.4,0,0.6,0,0.9,0c0.3,0,0.5-0.1,0.8-0.2c0.2-0.1,0.3-0.3,0.4-0.5
			c0.1-0.2,0.2-0.5,0.2-0.8c0-0.3-0.1-0.6-0.2-0.9c-0.1-0.2-0.4-0.4-0.8-0.5c-0.3-0.1-0.8-0.1-1.4-0.1h-2.2V378.5L266.3,378.5z"/>
		<path fill="#FFFFFF" d="M273.6,371.6v-1.3h1.2v1.3H273.6z M273.6,379.6v-6.7h1.2v6.7H273.6L273.6,379.6z"/>
		<path fill="#FFFFFF" d="M279,378.6l0.2,1c-0.3,0.1-0.6,0.1-0.9,0.1c-0.4,0-0.8-0.1-1-0.2c-0.2-0.1-0.4-0.3-0.4-0.5
			c0-0.2-0.1-0.6-0.1-1.3v-3.9H276v-0.9h0.9v-1.6l1.1-0.6v2.4h1.2v0.9h-1.2v3.9c0,0.3,0,0.5,0.1,0.6s0.1,0.2,0.2,0.2
			c0.1,0.1,0.2,0.1,0.4,0.1C278.7,378.6,278.8,378.6,279,378.6z"/>
		<path fill="#FFFFFF" d="M280.1,379.6v-6.7h1v1c0.2-0.3,0.5-0.5,0.9-0.8c0.3-0.2,0.8-0.3,1.2-0.3c0.5,0,0.9,0.1,1.2,0.3
			c0.3,0.2,0.5,0.5,0.6,0.9c0.5-0.8,1.2-1.2,2-1.2c0.6,0,1.2,0.2,1.5,0.5s0.5,1,0.5,1.7v4.6H288v-4.3c0-0.4,0-0.8-0.1-1
			s-0.2-0.3-0.4-0.4c-0.2-0.1-0.4-0.2-0.6-0.2c-0.4,0-0.9,0.1-1.2,0.4c-0.3,0.3-0.4,0.9-0.4,1.5v3.9H284v-4.3c0-0.5-0.1-0.9-0.3-1.2
			c-0.2-0.2-0.5-0.4-0.9-0.4c-0.3,0-0.6,0.1-0.9,0.2c-0.3,0.2-0.4,0.4-0.5,0.8c-0.1,0.3-0.2,0.8-0.2,1.4v3.5L280.1,379.6
			L280.1,379.6z"/>
		<path fill="#FFFFFF" d="M295.3,378.8c-0.4,0.3-0.9,0.6-1.2,0.8c-0.4,0.1-0.8,0.2-1.3,0.2c-0.8,0-1.3-0.2-1.7-0.5
			c-0.4-0.3-0.6-0.9-0.6-1.4c0-0.3,0.1-0.6,0.2-0.9c0.1-0.2,0.3-0.5,0.5-0.6c0.2-0.1,0.5-0.3,0.9-0.3c0.2-0.1,0.5-0.1,1-0.2
			c1-0.1,1.6-0.2,2-0.4c0-0.1,0-0.2,0-0.3c0-0.4-0.1-0.8-0.3-1c-0.3-0.2-0.8-0.4-1.3-0.4c-0.5,0-1,0.1-1.2,0.3
			c-0.2,0.2-0.4,0.5-0.5,1l-1.1-0.1c0.1-0.4,0.2-0.9,0.5-1.2c0.3-0.3,0.5-0.5,1-0.6s1-0.2,1.5-0.2s1.1,0.1,1.4,0.2
			c0.3,0.1,0.6,0.3,0.8,0.5c0.1,0.2,0.3,0.4,0.3,0.8c0,0.2,0.1,0.5,0.1,1.1v1.5c0,1.1,0,1.7,0.1,2c0,0.3,0.1,0.5,0.3,0.8h-1.2
			C295.4,379.4,295.3,379,295.3,378.8z M295.2,376.2c-0.4,0.2-1.1,0.3-1.8,0.4c-0.4,0.1-0.8,0.1-1,0.2s-0.3,0.2-0.4,0.3
			c-0.1,0.2-0.1,0.3-0.1,0.5c0,0.3,0.1,0.5,0.3,0.8c0.2,0.2,0.5,0.3,1,0.3s0.9-0.1,1.2-0.3c0.3-0.2,0.5-0.4,0.8-0.8
			c0.1-0.2,0.2-0.6,0.2-1.2L295.2,376.2L295.2,376.2z"/>
		<path fill="#FFFFFF" d="M298.1,382.2v-9.3h1.1v0.9c0.2-0.3,0.5-0.6,0.9-0.8c0.3-0.2,0.6-0.2,1.1-0.2c0.5,0,1.1,0.1,1.5,0.4
			c0.4,0.3,0.8,0.8,1,1.3c0.2,0.5,0.3,1.1,0.3,1.7c0,0.6-0.1,1.3-0.3,1.8c-0.2,0.5-0.6,1-1.1,1.3c-0.4,0.3-1,0.4-1.5,0.4
			c-0.4,0-0.8-0.1-1-0.2c-0.2-0.1-0.5-0.3-0.8-0.6v3.2L298.1,382.2L298.1,382.2z M299.2,376.2c0,0.9,0.2,1.5,0.5,1.9
			c0.3,0.4,0.8,0.6,1.3,0.6s1-0.2,1.3-0.6c0.3-0.4,0.5-1.1,0.5-1.9s-0.2-1.5-0.5-1.9s-0.8-0.6-1.3-0.6c-0.4,0-0.9,0.2-1.3,0.6
			C299.3,374.7,299.2,375.4,299.2,376.2z"/>
		<path fill="#FFFFFF" d="M265.3,395.1v-5.8h-1v-0.9h1v-0.8c0-0.4,0-0.8,0.1-1c0.1-0.3,0.3-0.5,0.5-0.8c0.3-0.2,0.6-0.3,1.2-0.3
			c0.3,0,0.6,0,1.1,0.1l-0.2,1c-0.2,0-0.4-0.1-0.6-0.1c-0.3,0-0.5,0.1-0.8,0.2c-0.1,0.1-0.2,0.4-0.2,0.9v0.6h1.3v0.9h-1.3v5.8
			L265.3,395.1L265.3,395.1z"/>
		<path fill="#FFFFFF" d="M268.2,391.8c0-1.3,0.3-2.2,1.1-2.8c0.5-0.5,1.3-0.8,2.2-0.8c1,0,1.7,0.3,2.3,0.9c0.5,0.6,0.9,1.4,0.9,2.5
			c0,0.9-0.1,1.5-0.4,2c-0.2,0.5-0.6,0.9-1.1,1.2c-0.5,0.3-1.1,0.4-1.6,0.4c-1,0-1.7-0.3-2.3-0.9C268.4,393.8,268.2,393,268.2,391.8
			z M269.3,391.8c0,0.9,0.2,1.5,0.5,1.9c0.3,0.4,0.9,0.6,1.4,0.6s1.1-0.2,1.4-0.6c0.3-0.4,0.5-1.1,0.5-1.9s-0.2-1.5-0.5-1.8
			c-0.3-0.4-0.9-0.6-1.4-0.6s-1.1,0.2-1.4,0.6C269.5,390.4,269.3,390.9,269.3,391.8z"/>
		<path fill="#FFFFFF" d="M275.8,395.1v-6.7h1v1c0.2-0.4,0.5-0.8,0.8-1c0.2-0.1,0.4-0.2,0.8-0.2c0.4,0,0.8,0.1,1.2,0.3l-0.4,1.1
			c-0.3-0.2-0.5-0.2-0.9-0.2c-0.2,0-0.4,0.1-0.6,0.2c-0.2,0.1-0.3,0.3-0.4,0.6c-0.1,0.4-0.2,0.9-0.2,1.3v3.6L275.8,395.1
			L275.8,395.1z"/>
		<path fill="#FFFFFF" d="M283.8,395.1v-9.3h3.5c0.8,0,1.3,0.1,1.7,0.3c0.4,0.2,0.8,0.4,1,0.9c0.2,0.4,0.3,0.8,0.3,1.2
			c0,0.4-0.1,0.8-0.3,1.1c-0.2,0.3-0.5,0.6-1,0.9c0.5,0.2,1,0.4,1.3,0.9c0.3,0.4,0.4,0.9,0.4,1.4c0,0.4-0.1,0.9-0.3,1.2
			c-0.2,0.3-0.4,0.6-0.6,0.9c-0.2,0.2-0.6,0.3-1,0.4c-0.3,0.1-0.9,0.1-1.5,0.1L283.8,395.1L283.8,395.1z M285,389.7h2
			c0.5,0,1,0,1.2-0.1c0.3-0.1,0.5-0.2,0.8-0.4c0.1-0.2,0.2-0.4,0.2-0.9c0-0.3-0.1-0.5-0.2-0.9c-0.1-0.2-0.3-0.4-0.6-0.4
			c-0.3-0.1-0.8-0.1-1.4-0.1h-1.8L285,389.7L285,389.7z M285,394h2.3c0.4,0,0.6,0,0.9,0c0.3,0,0.5-0.1,0.8-0.2
			c0.2-0.1,0.3-0.3,0.4-0.5c0.1-0.2,0.2-0.5,0.2-0.8c0-0.3-0.1-0.6-0.2-0.9c-0.2-0.2-0.4-0.4-0.8-0.5c-0.3-0.1-0.8-0.1-1.4-0.1H285
			V394L285,394z"/>
		<path fill="#FFFFFF" d="M296.7,394.4c-0.4,0.3-0.9,0.6-1.2,0.8c-0.4,0.1-0.8,0.2-1.3,0.2c-0.8,0-1.3-0.2-1.7-0.5s-0.6-0.9-0.6-1.4
			c0-0.3,0.1-0.6,0.2-0.9c0.1-0.2,0.3-0.5,0.5-0.6c0.2-0.1,0.5-0.3,0.9-0.3c0.2-0.1,0.5-0.1,1-0.2c1-0.1,1.6-0.2,2-0.4
			c0-0.1,0-0.2,0-0.3c0-0.4-0.1-0.8-0.3-1c-0.3-0.2-0.8-0.4-1.3-0.4c-0.5,0-1,0.1-1.2,0.3c-0.2,0.2-0.4,0.5-0.5,1l-1.1-0.1
			c0.1-0.4,0.2-0.9,0.5-1.2c0.2-0.3,0.5-0.5,1-0.6s1-0.2,1.5-0.2c0.5,0,1.1,0.1,1.4,0.2c0.3,0.1,0.6,0.3,0.8,0.5
			c0.2,0.2,0.3,0.4,0.3,0.8c0,0.2,0.1,0.5,0.1,1.1v1.5c0,1.1,0,1.7,0.1,2c0,0.3,0.1,0.5,0.3,0.8h-1.2
			C296.8,394.9,296.8,394.6,296.7,394.4z M296.6,391.8c-0.4,0.2-1.1,0.3-1.8,0.4c-0.4,0.1-0.8,0.1-1,0.2c-0.2,0.1-0.3,0.2-0.4,0.3
			c-0.1,0.2-0.1,0.3-0.1,0.5c0,0.3,0.1,0.5,0.3,0.8c0.2,0.2,0.5,0.3,1,0.3s0.9-0.1,1.2-0.3c0.3-0.2,0.5-0.4,0.8-0.8
			c0.1-0.2,0.2-0.6,0.2-1.2L296.6,391.8L296.6,391.8z"/>
		<path fill="#FFFFFF" d="M299.5,395.1v-6.7h1v1c0.5-0.8,1.2-1.1,2.2-1.1c0.4,0,0.8,0.1,1.1,0.2c0.3,0.1,0.5,0.3,0.8,0.5
			c0.2,0.2,0.3,0.5,0.3,0.9c0,0.2,0.1,0.5,0.1,1.1v4.1h-1.2V391c0-0.4,0-0.9-0.1-1.1c-0.1-0.2-0.2-0.4-0.4-0.5s-0.5-0.2-0.8-0.2
			c-0.4,0-0.9,0.1-1.3,0.4c-0.3,0.3-0.5,0.9-0.5,1.7v3.7L299.5,395.1L299.5,395.1z"/>
		<path fill="#FFFFFF" d="M311.1,395.1v-0.9c-0.4,0.6-1.1,1-1.8,1c-0.5,0-1.1-0.1-1.5-0.4s-0.8-0.8-1.1-1.2
			c-0.3-0.4-0.3-1.2-0.3-1.8c0-0.6,0.1-1.3,0.3-1.8c0.2-0.5,0.5-1,1-1.3c0.4-0.3,1-0.4,1.5-0.4c0.4,0,0.8,0.1,1.1,0.2
			c0.3,0.1,0.5,0.4,0.8,0.6v-3.3h1.1v9.3C312.1,395.1,311.1,395.1,311.1,395.1z M307.5,391.8c0,0.9,0.2,1.5,0.5,1.9
			c0.3,0.4,0.8,0.6,1.3,0.6c0.5,0,1-0.2,1.3-0.6c0.3-0.4,0.5-1.1,0.5-1.8c0-1-0.2-1.6-0.5-2c-0.3-0.4-0.8-0.6-1.3-0.6
			c-0.5,0-1,0.2-1.3,0.6C307.7,390.3,307.5,390.9,307.5,391.8z"/>
		<path fill="#FFFFFF" d="M317.2,392.7l1.2-0.1c0.1,0.6,0.3,1.1,0.6,1.4c0.3,0.3,0.6,0.4,1.2,0.4s1-0.2,1.4-0.5
			c0.3-0.3,0.5-0.9,0.5-1.4s-0.2-1-0.5-1.3c-0.3-0.3-0.8-0.5-1.3-0.5c-0.2,0-0.4,0-0.8,0.1l0.1-1c0.1,0,0.1,0,0.2,0
			c0.4,0,1-0.1,1.3-0.4c0.4-0.2,0.5-0.6,0.5-1.2c0-0.4-0.1-0.8-0.4-1.1c-0.3-0.3-0.6-0.4-1.1-0.4c-0.4,0-0.9,0.1-1.1,0.4
			c-0.2,0.3-0.4,0.6-0.5,1.3l-1.2-0.2c0.1-0.8,0.4-1.4,1-1.7c0.5-0.3,1.1-0.6,1.8-0.6c0.5,0,1,0.1,1.4,0.3c0.4,0.2,0.8,0.5,1,0.9
			c0.2,0.3,0.3,0.8,0.3,1.2c0,0.4-0.1,0.8-0.3,1.1c-0.2,0.3-0.5,0.5-1,0.8c0.5,0.1,1,0.4,1.3,0.8c0.3,0.3,0.4,0.9,0.4,1.5
			c0,0.9-0.3,1.5-0.9,2c-0.5,0.5-1.3,0.9-2.3,0.9c-0.9,0-1.5-0.2-2-0.8C317.6,393.9,317.3,393.5,317.2,392.7z"/>
	</g>
	<g>
		<path fill="#FFFFFF" d="M358.2,379.6v-9.3h3.5c0.8,0,1.3,0.1,1.7,0.3c0.4,0.2,0.8,0.4,1,0.9c0.2,0.4,0.3,0.8,0.3,1.2
			s-0.1,0.8-0.3,1.1c-0.2,0.3-0.5,0.6-1,0.9c0.5,0.2,1,0.4,1.3,0.9c0.3,0.4,0.4,0.9,0.4,1.4c0,0.4-0.1,0.9-0.3,1.2
			c-0.2,0.3-0.4,0.6-0.6,0.9c-0.2,0.2-0.6,0.3-1,0.4c-0.4,0.1-0.9,0.1-1.5,0.1h-3.5V379.6z M359.4,374.2h2c0.5,0,1,0,1.2-0.1
			c0.3-0.1,0.5-0.2,0.8-0.4c0.1-0.2,0.2-0.4,0.2-0.9c0-0.3-0.1-0.5-0.2-0.9c-0.1-0.2-0.3-0.4-0.6-0.4c-0.3-0.1-0.8-0.1-1.4-0.1h-1.9
			V374.2L359.4,374.2z M359.4,378.5h2.3c0.4,0,0.6,0,0.9,0c0.3,0,0.5-0.1,0.8-0.2c0.2-0.1,0.3-0.3,0.4-0.5c0.1-0.2,0.2-0.5,0.2-0.8
			c0-0.3-0.1-0.6-0.2-0.9c-0.1-0.2-0.4-0.4-0.8-0.5c-0.3-0.1-0.8-0.1-1.4-0.1h-2.2V378.5L359.4,378.5z"/>
		<path fill="#FFFFFF" d="M366.7,371.6v-1.3h1.2v1.3H366.7z M366.7,379.6v-6.7h1.2v6.7H366.7L366.7,379.6z"/>
		<path fill="#FFFFFF" d="M372.1,378.6l0.2,1c-0.3,0.1-0.6,0.1-0.9,0.1c-0.4,0-0.8-0.1-1-0.2c-0.2-0.1-0.4-0.3-0.4-0.5
			c0-0.2-0.1-0.6-0.1-1.3v-3.9h-0.9v-0.9h0.9v-1.6l1.1-0.6v2.4h1.2v0.9H371v3.9c0,0.3,0,0.5,0.1,0.6s0.1,0.2,0.2,0.2
			c0.1,0.1,0.2,0.1,0.4,0.1C371.6,378.6,371.9,378.6,372.1,378.6z"/>
		<path fill="#FFFFFF" d="M373.2,379.6v-6.7h1v1c0.2-0.3,0.5-0.5,0.9-0.8c0.3-0.2,0.8-0.3,1.2-0.3c0.5,0,0.9,0.1,1.2,0.3
			c0.3,0.2,0.5,0.5,0.6,0.9c0.5-0.8,1.2-1.2,2-1.2c0.6,0,1.2,0.2,1.5,0.5s0.5,1,0.5,1.7v4.6H381v-4.3c0-0.4,0-0.8-0.1-1
			s-0.2-0.3-0.4-0.4c-0.2-0.1-0.4-0.2-0.6-0.2c-0.4,0-0.9,0.1-1.2,0.4c-0.3,0.3-0.4,0.9-0.4,1.5v3.9H377v-4.3c0-0.5-0.1-0.9-0.3-1.2
			c-0.2-0.2-0.5-0.4-0.9-0.4c-0.3,0-0.6,0.1-0.9,0.2c-0.3,0.2-0.4,0.4-0.5,0.8c-0.1,0.3-0.2,0.8-0.2,1.4v3.5L373.2,379.6
			L373.2,379.6z"/>
		<path fill="#FFFFFF" d="M388.3,378.8c-0.4,0.3-0.9,0.6-1.2,0.8c-0.4,0.1-0.8,0.2-1.3,0.2c-0.8,0-1.3-0.2-1.7-0.5
			c-0.4-0.3-0.6-0.9-0.6-1.4c0-0.3,0.1-0.6,0.2-0.9c0.1-0.2,0.3-0.5,0.5-0.6c0.2-0.1,0.5-0.3,0.9-0.3c0.2-0.1,0.5-0.1,1-0.2
			c1-0.1,1.6-0.2,2-0.4c0-0.1,0-0.2,0-0.3c0-0.4-0.1-0.8-0.3-1c-0.3-0.2-0.8-0.4-1.3-0.4c-0.5,0-1,0.1-1.2,0.3
			c-0.2,0.2-0.4,0.5-0.5,1l-1.1-0.1c0.1-0.4,0.2-0.9,0.5-1.2c0.3-0.3,0.5-0.5,1-0.6s1-0.2,1.5-0.2s1.1,0.1,1.4,0.2
			c0.3,0.1,0.6,0.3,0.8,0.5c0.1,0.2,0.3,0.4,0.3,0.8c0,0.2,0.1,0.5,0.1,1.1v1.5c0,1.1,0,1.7,0.1,2c0,0.3,0.1,0.5,0.3,0.8h-1.2
			C388.4,379.4,388.4,379,388.3,378.8z M388.3,376.2c-0.4,0.2-1.1,0.3-1.8,0.4c-0.4,0.1-0.8,0.1-1,0.2s-0.3,0.2-0.4,0.3
			c-0.1,0.2-0.1,0.3-0.1,0.5c0,0.3,0.1,0.5,0.3,0.8c0.2,0.2,0.5,0.3,1,0.3s0.9-0.1,1.2-0.3c0.3-0.2,0.5-0.4,0.8-0.8
			c0.1-0.2,0.2-0.6,0.2-1.2L388.3,376.2L388.3,376.2z"/>
		<path fill="#FFFFFF" d="M391.2,382.2v-9.3h1.1v0.9c0.2-0.3,0.5-0.6,0.9-0.8c0.3-0.2,0.6-0.2,1.1-0.2c0.5,0,1.1,0.1,1.5,0.4
			c0.4,0.3,0.8,0.8,1,1.3c0.2,0.5,0.3,1.1,0.3,1.7c0,0.6-0.1,1.3-0.3,1.8c-0.2,0.5-0.6,1-1.1,1.3s-1,0.4-1.5,0.4
			c-0.4,0-0.8-0.1-1-0.2c-0.2-0.1-0.5-0.3-0.8-0.6v3.2L391.2,382.2L391.2,382.2z M392.1,376.2c0,0.9,0.2,1.5,0.5,1.9
			c0.3,0.4,0.8,0.6,1.3,0.6c0.5,0,1-0.2,1.3-0.6c0.3-0.4,0.5-1.1,0.5-1.9s-0.2-1.5-0.5-1.9s-0.8-0.6-1.3-0.6c-0.4,0-0.9,0.2-1.3,0.6
			S392.1,375.4,392.1,376.2z"/>
		<path fill="#FFFFFF" d="M358.3,395.1v-5.8h-1v-0.9h1v-0.8c0-0.4,0-0.8,0.1-1c0.1-0.3,0.3-0.5,0.5-0.8c0.3-0.2,0.6-0.3,1.2-0.3
			c0.3,0,0.6,0,1.1,0.1l-0.2,1c-0.2,0-0.4-0.1-0.6-0.1c-0.3,0-0.5,0.1-0.8,0.2c-0.1,0.1-0.2,0.4-0.2,0.9v0.6h1.3v0.9h-1.3v5.8
			L358.3,395.1L358.3,395.1z"/>
		<path fill="#FFFFFF" d="M361.2,391.8c0-1.3,0.3-2.2,1.1-2.8c0.5-0.5,1.3-0.8,2.2-0.8c1,0,1.7,0.3,2.3,0.9c0.5,0.6,0.9,1.4,0.9,2.5
			c0,0.9-0.1,1.5-0.4,2c-0.2,0.5-0.6,0.9-1.1,1.2c-0.5,0.3-1.1,0.4-1.6,0.4c-1,0-1.7-0.3-2.3-0.9C361.5,393.8,361.2,393,361.2,391.8
			z M362.4,391.8c0,0.9,0.2,1.5,0.5,1.9c0.3,0.4,0.9,0.6,1.4,0.6s1.1-0.2,1.4-0.6c0.3-0.4,0.5-1.1,0.5-1.9s-0.2-1.5-0.5-1.8
			c-0.3-0.4-0.9-0.6-1.4-0.6s-1.1,0.2-1.4,0.6C362.6,390.4,362.4,390.9,362.4,391.8z"/>
		<path fill="#FFFFFF" d="M368.8,395.1v-6.7h1v1c0.2-0.4,0.5-0.8,0.8-1c0.2-0.1,0.4-0.2,0.8-0.2c0.4,0,0.8,0.1,1.2,0.3l-0.4,1.1
			c-0.3-0.2-0.5-0.2-0.9-0.2c-0.2,0-0.4,0.1-0.6,0.2c-0.2,0.1-0.3,0.3-0.4,0.6c-0.1,0.4-0.2,0.9-0.2,1.3v3.6L368.8,395.1
			L368.8,395.1z"/>
		<path fill="#FFFFFF" d="M376.8,395.1v-9.3h3.5c0.8,0,1.3,0.1,1.7,0.3c0.4,0.2,0.8,0.4,1,0.9c0.2,0.4,0.3,0.8,0.3,1.2
			c0,0.4-0.1,0.8-0.3,1.1c-0.2,0.3-0.5,0.6-1,0.9c0.5,0.2,1,0.4,1.3,0.9c0.3,0.4,0.4,0.9,0.4,1.4c0,0.4-0.1,0.9-0.3,1.2
			c-0.2,0.3-0.4,0.6-0.6,0.9c-0.2,0.2-0.6,0.3-1,0.4c-0.3,0.1-0.9,0.1-1.5,0.1L376.8,395.1L376.8,395.1z M378.1,389.7h2
			c0.5,0,1,0,1.2-0.1c0.3-0.1,0.5-0.2,0.8-0.4c0.1-0.2,0.2-0.4,0.2-0.9c0-0.3-0.1-0.5-0.2-0.9c-0.1-0.2-0.3-0.4-0.6-0.4
			c-0.3-0.1-0.8-0.1-1.4-0.1h-1.8L378.1,389.7L378.1,389.7z M378.1,394h2.3c0.4,0,0.6,0,0.9,0c0.3,0,0.5-0.1,0.8-0.2
			c0.2-0.1,0.3-0.3,0.4-0.5c0.1-0.2,0.2-0.5,0.2-0.8c0-0.3-0.1-0.6-0.2-0.9c-0.2-0.2-0.4-0.4-0.8-0.5c-0.3-0.1-0.8-0.1-1.4-0.1h-2.2
			V394L378.1,394z"/>
		<path fill="#FFFFFF" d="M389.8,394.4c-0.4,0.3-0.9,0.6-1.2,0.8c-0.4,0.1-0.8,0.2-1.3,0.2c-0.8,0-1.3-0.2-1.7-0.5s-0.6-0.9-0.6-1.4
			c0-0.3,0.1-0.6,0.2-0.9c0.1-0.2,0.3-0.5,0.5-0.6c0.2-0.1,0.5-0.3,0.9-0.3c0.2-0.1,0.5-0.1,1-0.2c1-0.1,1.6-0.2,2-0.4
			c0-0.1,0-0.2,0-0.3c0-0.4-0.1-0.8-0.3-1c-0.3-0.2-0.8-0.4-1.3-0.4c-0.5,0-1,0.1-1.2,0.3c-0.2,0.2-0.4,0.5-0.5,1l-1.1-0.1
			c0.1-0.4,0.2-0.9,0.5-1.2c0.2-0.3,0.5-0.5,1-0.6s1-0.2,1.5-0.2c0.5,0,1.1,0.1,1.4,0.2c0.3,0.1,0.6,0.3,0.8,0.5
			c0.1,0.2,0.3,0.4,0.3,0.8c0,0.2,0.1,0.5,0.1,1.1v1.5c0,1.1,0,1.7,0.1,2c0.1,0.3,0.1,0.5,0.3,0.8H390
			C389.9,394.9,389.8,394.6,389.8,394.4z M389.7,391.8c-0.4,0.2-1.1,0.3-1.8,0.4c-0.4,0.1-0.8,0.1-1,0.2c-0.2,0.1-0.3,0.2-0.4,0.3
			c-0.1,0.2-0.1,0.3-0.1,0.5c0,0.3,0.1,0.5,0.3,0.8c0.2,0.2,0.5,0.3,1,0.3s0.9-0.1,1.2-0.3c0.3-0.2,0.5-0.4,0.8-0.8
			c0.1-0.2,0.2-0.6,0.2-1.2L389.7,391.8L389.7,391.8z"/>
		<path fill="#FFFFFF" d="M392.6,395.1v-6.7h1v1c0.5-0.8,1.2-1.1,2.2-1.1c0.4,0,0.8,0.1,1.1,0.2c0.3,0.1,0.5,0.3,0.8,0.5
			c0.2,0.2,0.3,0.5,0.3,0.9c0,0.2,0.1,0.5,0.1,1.1v4.1h-1.2V391c0-0.4,0-0.9-0.1-1.1c-0.1-0.2-0.2-0.4-0.4-0.5
			c-0.2-0.1-0.5-0.2-0.8-0.2c-0.4,0-0.9,0.1-1.3,0.4c-0.3,0.3-0.5,0.9-0.5,1.7v3.7L392.6,395.1L392.6,395.1z"/>
		<path fill="#FFFFFF" d="M404.1,395.1v-0.9c-0.4,0.6-1.1,1-1.8,1c-0.5,0-1.1-0.1-1.5-0.4c-0.4-0.3-0.8-0.8-1.1-1.2
			c-0.3-0.4-0.3-1.2-0.3-1.8c0-0.6,0.1-1.3,0.3-1.8c0.2-0.5,0.5-1,1-1.3c0.4-0.3,1-0.4,1.5-0.4c0.4,0,0.8,0.1,1.1,0.2
			c0.3,0.1,0.5,0.4,0.8,0.6v-3.3h1.1v9.3C405.2,395.1,404.1,395.1,404.1,395.1z M400.5,391.8c0,0.9,0.2,1.5,0.5,1.9
			c0.3,0.4,0.8,0.6,1.3,0.6c0.5,0,1-0.2,1.3-0.6c0.3-0.4,0.5-1.1,0.5-1.8c0-1-0.2-1.6-0.5-2s-0.8-0.6-1.3-0.6c-0.5,0-1,0.2-1.3,0.6
			S400.5,390.9,400.5,391.8z"/>
		<path fill="#FFFFFF" d="M413.9,395.1v-2.3h-4v-1.1l4.2-6h1v6h1.3v1.1h-1.3v2.3H413.9z M413.9,391.9v-4.2l-2.9,4.2H413.9z"/>
	</g>
	<g>
		<path fill="#FFFFFF" d="M451.1,379.6v-9.3h3.5c0.8,0,1.3,0.1,1.7,0.3c0.4,0.2,0.8,0.4,1,0.9c0.2,0.4,0.3,0.8,0.3,1.2
			s-0.1,0.8-0.3,1.1c-0.2,0.3-0.5,0.6-1,0.9c0.5,0.2,1,0.4,1.3,0.9c0.3,0.4,0.4,0.9,0.4,1.4c0,0.4-0.1,0.9-0.3,1.2
			c-0.2,0.3-0.4,0.6-0.6,0.9c-0.2,0.2-0.6,0.3-1,0.4c-0.4,0.1-0.9,0.1-1.5,0.1h-3.5V379.6z M452.4,374.2h2c0.5,0,1,0,1.2-0.1
			c0.3-0.1,0.5-0.2,0.8-0.4c0.1-0.2,0.2-0.4,0.2-0.9c0-0.3-0.1-0.5-0.2-0.9c-0.1-0.2-0.3-0.4-0.6-0.4c-0.3-0.1-0.8-0.1-1.4-0.1h-1.8
			L452.4,374.2L452.4,374.2z M452.4,378.5h2.3c0.4,0,0.6,0,0.9,0c0.3,0,0.5-0.1,0.8-0.2c0.2-0.1,0.3-0.3,0.4-0.5
			c0.1-0.2,0.2-0.5,0.2-0.8c0-0.3-0.1-0.6-0.2-0.9c-0.1-0.2-0.4-0.4-0.8-0.5c-0.3-0.1-0.8-0.1-1.4-0.1h-2.2V378.5L452.4,378.5z"/>
		<path fill="#FFFFFF" d="M459.8,371.6v-1.3h1.2v1.3H459.8z M459.8,379.6v-6.7h1.2v6.7H459.8L459.8,379.6z"/>
		<path fill="#FFFFFF" d="M465,378.6l0.2,1c-0.3,0.1-0.6,0.1-0.9,0.1c-0.4,0-0.8-0.1-1-0.2c-0.2-0.1-0.4-0.3-0.4-0.5
			c0-0.2-0.1-0.6-0.1-1.3v-3.9H462v-0.9h0.9v-1.6l1.1-0.6v2.4h1.2v0.9H464v3.9c0,0.3,0,0.5,0.1,0.6s0.1,0.2,0.2,0.2
			c0.1,0.1,0.2,0.1,0.4,0.1C464.7,378.6,464.8,378.6,465,378.6z"/>
		<path fill="#FFFFFF" d="M466.2,379.6v-6.7h1v1c0.2-0.3,0.5-0.5,0.9-0.8c0.3-0.2,0.8-0.3,1.2-0.3c0.5,0,0.9,0.1,1.2,0.3
			c0.3,0.2,0.5,0.5,0.6,0.9c0.5-0.8,1.2-1.2,2-1.2c0.6,0,1.2,0.2,1.5,0.5s0.5,1,0.5,1.7v4.6h-1.1v-4.3c0-0.4,0-0.8-0.1-1
			c-0.1-0.2-0.2-0.3-0.4-0.4c-0.2-0.1-0.4-0.2-0.6-0.2c-0.4,0-0.9,0.1-1.2,0.4c-0.3,0.3-0.4,0.9-0.4,1.5v3.9h-1.2v-4.3
			c0-0.5-0.1-0.9-0.3-1.2c-0.2-0.2-0.5-0.4-0.9-0.4s-0.6,0.1-0.9,0.2c-0.3,0.2-0.4,0.4-0.5,0.8c-0.1,0.3-0.2,0.8-0.2,1.4v3.5
			L466.2,379.6L466.2,379.6z"/>
		<path fill="#FFFFFF" d="M481.3,378.8c-0.4,0.3-0.9,0.6-1.2,0.8c-0.4,0.1-0.8,0.2-1.3,0.2c-0.8,0-1.3-0.2-1.7-0.5s-0.6-0.9-0.6-1.4
			c0-0.3,0.1-0.6,0.2-0.9c0.1-0.2,0.3-0.5,0.5-0.6c0.2-0.1,0.5-0.3,0.9-0.3c0.2-0.1,0.5-0.1,1-0.2c1-0.1,1.6-0.2,2-0.4
			c0-0.1,0-0.2,0-0.3c0-0.4-0.1-0.8-0.3-1c-0.3-0.2-0.8-0.4-1.3-0.4s-1,0.1-1.2,0.3c-0.2,0.2-0.4,0.5-0.5,1l-1.1-0.1
			c0.1-0.4,0.2-0.9,0.5-1.2c0.3-0.3,0.5-0.5,1-0.6c0.4-0.1,1-0.2,1.5-0.2c0.5,0,1.1,0.1,1.4,0.2c0.3,0.1,0.6,0.3,0.8,0.5
			c0.1,0.2,0.3,0.4,0.3,0.8c0,0.2,0.1,0.5,0.1,1.1v1.5c0,1.1,0,1.7,0.1,2c0,0.3,0.1,0.5,0.3,0.8h-1.2
			C481.4,379.4,481.3,379,481.3,378.8z M481.2,376.2c-0.4,0.2-1.1,0.3-1.8,0.4c-0.4,0.1-0.8,0.1-1,0.2c-0.2,0.1-0.3,0.2-0.4,0.3
			c-0.1,0.2-0.1,0.3-0.1,0.5c0,0.3,0.1,0.5,0.3,0.8c0.2,0.2,0.5,0.3,1,0.3s0.9-0.1,1.2-0.3c0.3-0.2,0.5-0.4,0.8-0.8
			c0.1-0.2,0.2-0.6,0.2-1.2L481.2,376.2L481.2,376.2z"/>
		<path fill="#FFFFFF" d="M484.1,382.2v-9.3h1.1v0.9c0.2-0.3,0.5-0.6,0.9-0.8c0.3-0.2,0.6-0.2,1.1-0.2c0.5,0,1.1,0.1,1.5,0.4
			c0.4,0.3,0.8,0.8,1,1.3c0.2,0.5,0.3,1.1,0.3,1.7c0,0.6-0.1,1.3-0.3,1.8c-0.2,0.5-0.6,1-1.1,1.3c-0.4,0.3-1,0.4-1.5,0.4
			c-0.4,0-0.8-0.1-1-0.2c-0.2-0.1-0.5-0.3-0.8-0.6v3.2L484.1,382.2L484.1,382.2z M485.2,376.2c0,0.9,0.2,1.5,0.5,1.9
			s0.8,0.6,1.3,0.6c0.5,0,1-0.2,1.3-0.6c0.3-0.4,0.5-1.1,0.5-1.9s-0.2-1.5-0.5-1.9c-0.3-0.4-0.8-0.6-1.3-0.6c-0.4,0-0.9,0.2-1.3,0.6
			S485.2,375.4,485.2,376.2z"/>
		<path fill="#FFFFFF" d="M451.3,395.1v-5.8h-1v-0.9h1v-0.8c0-0.4,0-0.8,0.1-1c0.1-0.3,0.3-0.5,0.5-0.8c0.3-0.2,0.6-0.3,1.2-0.3
			c0.3,0,0.6,0,1.1,0.1l-0.2,1c-0.2,0-0.4-0.1-0.6-0.1c-0.3,0-0.5,0.1-0.8,0.2c-0.1,0.1-0.2,0.4-0.2,0.9v0.6h1.3v0.9h-1.3v5.8
			L451.3,395.1L451.3,395.1z"/>
		<path fill="#FFFFFF" d="M454.3,391.8c0-1.3,0.3-2.2,1.1-2.8c0.5-0.5,1.3-0.8,2.2-0.8c1,0,1.7,0.3,2.3,0.9c0.5,0.6,0.9,1.4,0.9,2.5
			c0,0.9-0.1,1.5-0.4,2c-0.2,0.5-0.6,0.9-1.1,1.2c-0.5,0.3-1.1,0.4-1.6,0.4c-1,0-1.7-0.3-2.3-0.9C454.6,393.8,454.3,393,454.3,391.8
			z M455.4,391.8c0,0.9,0.2,1.5,0.5,1.9c0.3,0.4,0.9,0.6,1.4,0.6c0.5,0,1.1-0.2,1.4-0.6c0.3-0.4,0.5-1.1,0.5-1.9s-0.2-1.5-0.5-1.8
			c-0.3-0.4-0.9-0.6-1.4-0.6c-0.5,0-1.1,0.2-1.4,0.6C455.7,390.4,455.4,390.9,455.4,391.8z"/>
		<path fill="#FFFFFF" d="M461.8,395.1v-6.7h1v1c0.2-0.4,0.5-0.8,0.8-1c0.2-0.1,0.4-0.2,0.8-0.2c0.4,0,0.8,0.1,1.2,0.3l-0.4,1.1
			c-0.3-0.2-0.5-0.2-0.9-0.2c-0.2,0-0.4,0.1-0.6,0.2c-0.2,0.1-0.3,0.3-0.4,0.6c-0.1,0.4-0.2,0.9-0.2,1.3v3.6L461.8,395.1
			L461.8,395.1z"/>
		<path fill="#FFFFFF" d="M469.9,395.1v-9.3h3.5c0.8,0,1.3,0.1,1.7,0.3c0.4,0.2,0.8,0.4,1,0.9c0.2,0.4,0.3,0.8,0.3,1.2
			c0,0.4-0.1,0.8-0.3,1.1c-0.2,0.3-0.5,0.6-1,0.9c0.5,0.2,1,0.4,1.3,0.9c0.3,0.4,0.4,0.9,0.4,1.4c0,0.4-0.1,0.9-0.3,1.2
			c-0.2,0.3-0.4,0.6-0.6,0.9c-0.2,0.2-0.6,0.3-1,0.4c-0.3,0.1-0.9,0.1-1.5,0.1L469.9,395.1L469.9,395.1z M471.1,389.7h2
			c0.5,0,1,0,1.2-0.1c0.3-0.1,0.5-0.2,0.8-0.4c0.1-0.2,0.2-0.4,0.2-0.9c0-0.3-0.1-0.5-0.2-0.9c-0.1-0.2-0.3-0.4-0.6-0.4
			c-0.3-0.1-0.8-0.1-1.4-0.1h-1.8L471.1,389.7L471.1,389.7z M471.1,394h2.3c0.4,0,0.6,0,0.9,0c0.3,0,0.5-0.1,0.8-0.2
			c0.2-0.1,0.3-0.3,0.4-0.5c0.1-0.2,0.2-0.5,0.2-0.8c0-0.3-0.1-0.6-0.2-0.9c-0.2-0.2-0.4-0.4-0.8-0.5c-0.3-0.1-0.8-0.1-1.4-0.1h-2.2
			V394L471.1,394z"/>
		<path fill="#FFFFFF" d="M482.8,394.4c-0.4,0.3-0.9,0.6-1.2,0.8c-0.4,0.1-0.8,0.2-1.3,0.2c-0.8,0-1.3-0.2-1.7-0.5s-0.6-0.9-0.6-1.4
			c0-0.3,0.1-0.6,0.2-0.9c0.1-0.2,0.3-0.5,0.5-0.6s0.5-0.3,0.9-0.3c0.2-0.1,0.5-0.1,1-0.2c1-0.1,1.6-0.2,2-0.4c0-0.1,0-0.2,0-0.3
			c0-0.4-0.1-0.8-0.3-1c-0.3-0.2-0.8-0.4-1.3-0.4s-1,0.1-1.2,0.3c-0.2,0.2-0.4,0.5-0.5,1l-1.1-0.1c0.1-0.4,0.2-0.9,0.5-1.2
			c0.2-0.3,0.5-0.5,1-0.6c0.4-0.1,1-0.2,1.5-0.2s1.1,0.1,1.4,0.2s0.6,0.3,0.8,0.5c0.1,0.2,0.3,0.4,0.3,0.8c0,0.2,0.1,0.5,0.1,1.1
			v1.5c0,1.1,0,1.7,0.1,2c0.1,0.3,0.1,0.5,0.3,0.8H483C482.9,394.9,482.8,394.6,482.8,394.4z M482.7,391.8c-0.4,0.2-1.1,0.3-1.8,0.4
			c-0.4,0.1-0.8,0.1-1,0.2c-0.2,0.1-0.3,0.2-0.4,0.3c-0.1,0.2-0.1,0.3-0.1,0.5c0,0.3,0.1,0.5,0.3,0.8c0.2,0.2,0.5,0.3,1,0.3
			s0.9-0.1,1.2-0.3c0.3-0.2,0.5-0.4,0.8-0.8c0.1-0.2,0.2-0.6,0.2-1.2L482.7,391.8L482.7,391.8z"/>
		<path fill="#FFFFFF" d="M485.6,395.1v-6.7h1v1c0.5-0.8,1.2-1.1,2.2-1.1c0.4,0,0.8,0.1,1.1,0.2s0.5,0.3,0.8,0.5
			c0.2,0.2,0.3,0.5,0.3,0.9c0,0.2,0.1,0.5,0.1,1.1v4.1h-1.2V391c0-0.4,0-0.9-0.1-1.1c-0.1-0.2-0.2-0.4-0.4-0.5s-0.5-0.2-0.8-0.2
			c-0.4,0-0.9,0.1-1.3,0.4c-0.3,0.3-0.5,0.9-0.5,1.7v3.7L485.6,395.1L485.6,395.1z"/>
		<path fill="#FFFFFF" d="M497.2,395.1v-0.9c-0.4,0.6-1.1,1-1.8,1c-0.5,0-1.1-0.1-1.5-0.4s-0.8-0.8-1.1-1.2
			c-0.3-0.4-0.3-1.2-0.3-1.8c0-0.6,0.1-1.3,0.3-1.8c0.2-0.5,0.5-1,1-1.3c0.4-0.3,1-0.4,1.5-0.4c0.4,0,0.8,0.1,1.1,0.2
			c0.3,0.1,0.5,0.4,0.8,0.6v-3.3h1.1v9.3C498.3,395.1,497.2,395.1,497.2,395.1z M493.5,391.8c0,0.9,0.2,1.5,0.5,1.9
			c0.3,0.4,0.8,0.6,1.3,0.6s1-0.2,1.3-0.6c0.3-0.4,0.5-1.1,0.5-1.8c0-1-0.2-1.6-0.5-2c-0.3-0.4-0.8-0.6-1.3-0.6s-1,0.2-1.3,0.6
			S493.5,390.9,493.5,391.8z"/>
		<path fill="#FFFFFF" d="M503.5,395.1v-6.7h1v1c0.5-0.8,1.2-1.1,2.2-1.1c0.4,0,0.8,0.1,1.1,0.2s0.5,0.3,0.8,0.5
			c0.2,0.2,0.3,0.5,0.3,0.9c0,0.2,0.1,0.5,0.1,1.1v4.1h-1.2V391c0-0.4,0-0.9-0.1-1.1c-0.1-0.2-0.2-0.4-0.4-0.5s-0.5-0.2-0.8-0.2
			c-0.4,0-0.9,0.1-1.3,0.4c-0.3,0.3-0.5,0.9-0.5,1.7v3.7L503.5,395.1L503.5,395.1z"/>
		<path fill="#FFFFFF" d="M510.3,392.3v-1.2h3.5v1.2H510.3z"/>
		<path fill="#FFFFFF" d="M519.1,395.1h-1.2v-7.2c-0.3,0.2-0.6,0.5-1.1,0.8c-0.4,0.2-0.9,0.4-1.2,0.5v-1.1c0.6-0.3,1.2-0.6,1.6-1.1
			c0.4-0.4,0.9-0.9,1-1.2h0.8v9.3H519.1z"/>
	</g>
	<g>
		<path fill="#FFFFFF" d="M544.2,379.6v-9.3h3.5c0.8,0,1.3,0.1,1.7,0.3c0.4,0.2,0.8,0.4,1,0.9s0.3,0.8,0.3,1.2s-0.1,0.8-0.3,1.1
			c-0.2,0.3-0.5,0.6-1,0.9c0.5,0.2,1,0.4,1.3,0.9c0.3,0.4,0.4,0.9,0.4,1.4c0,0.4-0.1,0.9-0.3,1.2c-0.2,0.3-0.4,0.6-0.6,0.9
			c-0.2,0.2-0.6,0.3-1,0.4c-0.4,0.1-0.9,0.1-1.5,0.1h-3.5V379.6z M545.4,374.2h2c0.5,0,1,0,1.2-0.1c0.3-0.1,0.5-0.2,0.8-0.4
			c0.1-0.2,0.2-0.4,0.2-0.9c0-0.3-0.1-0.5-0.2-0.9c-0.1-0.2-0.3-0.4-0.6-0.4c-0.3-0.1-0.8-0.1-1.4-0.1h-1.8L545.4,374.2L545.4,374.2
			z M545.4,378.5h2.3c0.4,0,0.6,0,0.9,0c0.3,0,0.5-0.1,0.8-0.2c0.2-0.1,0.3-0.3,0.4-0.5c0.1-0.2,0.2-0.5,0.2-0.8
			c0-0.3-0.1-0.6-0.2-0.9c-0.1-0.2-0.4-0.4-0.8-0.5c-0.3-0.1-0.8-0.1-1.4-0.1h-2.2V378.5L545.4,378.5z"/>
		<path fill="#FFFFFF" d="M552.7,371.6v-1.3h1.2v1.3H552.7z M552.7,379.6v-6.7h1.2v6.7H552.7L552.7,379.6z"/>
		<path fill="#FFFFFF" d="M558.1,378.6l0.2,1c-0.3,0.1-0.6,0.1-0.9,0.1c-0.4,0-0.8-0.1-1-0.2c-0.2-0.1-0.4-0.3-0.4-0.5
			c0-0.2-0.1-0.6-0.1-1.3v-3.9h-0.9v-0.9h0.9v-1.6l1.1-0.6v2.4h1.2v0.9H557v3.9c0,0.3,0,0.5,0.1,0.6s0.1,0.2,0.2,0.2
			c0.1,0.1,0.2,0.1,0.4,0.1C557.7,378.6,557.9,378.6,558.1,378.6z"/>
		<path fill="#FFFFFF" d="M559.2,379.6v-6.7h1v1c0.2-0.3,0.5-0.5,0.9-0.8c0.3-0.2,0.8-0.3,1.2-0.3c0.5,0,0.9,0.1,1.2,0.3
			c0.3,0.2,0.5,0.5,0.6,0.9c0.5-0.8,1.2-1.2,2-1.2c0.6,0,1.2,0.2,1.5,0.5c0.3,0.3,0.5,1,0.5,1.7v4.6h-1.1v-4.3c0-0.4,0-0.8-0.1-1
			c-0.1-0.2-0.2-0.3-0.4-0.4c-0.2-0.1-0.4-0.2-0.6-0.2c-0.4,0-0.9,0.1-1.2,0.4c-0.3,0.3-0.4,0.9-0.4,1.5v3.9h-1.1v-4.3
			c0-0.5-0.1-0.9-0.3-1.2c-0.2-0.2-0.5-0.4-0.9-0.4c-0.3,0-0.6,0.1-0.9,0.2c-0.3,0.2-0.4,0.4-0.5,0.8c-0.1,0.3-0.2,0.8-0.2,1.4v3.5
			L559.2,379.6L559.2,379.6z"/>
		<path fill="#FFFFFF" d="M574.4,378.8c-0.4,0.3-0.9,0.6-1.2,0.8c-0.4,0.1-0.8,0.2-1.3,0.2c-0.8,0-1.3-0.2-1.7-0.5
			c-0.4-0.3-0.6-0.9-0.6-1.4c0-0.3,0.1-0.6,0.2-0.9c0.1-0.2,0.3-0.5,0.5-0.6c0.2-0.1,0.5-0.3,0.9-0.3c0.2-0.1,0.5-0.1,1-0.2
			c1-0.1,1.6-0.2,2-0.4c0-0.1,0-0.2,0-0.3c0-0.4-0.1-0.8-0.3-1c-0.3-0.2-0.8-0.4-1.3-0.4c-0.5,0-1,0.1-1.2,0.3
			c-0.2,0.2-0.4,0.5-0.5,1l-1.1-0.1c0.1-0.4,0.2-0.9,0.5-1.2c0.3-0.3,0.5-0.5,1-0.6s1-0.2,1.5-0.2s1.1,0.1,1.4,0.2
			c0.3,0.1,0.6,0.3,0.8,0.5c0.1,0.2,0.3,0.4,0.3,0.8c0,0.2,0.1,0.5,0.1,1.1v1.5c0,1.1,0,1.7,0.1,2c0,0.3,0.1,0.5,0.3,0.8h-1.2
			C574.5,379.4,574.4,379,574.4,378.8z M574.3,376.2c-0.4,0.2-1.1,0.3-1.8,0.4c-0.4,0.1-0.8,0.1-1,0.2s-0.3,0.2-0.4,0.3
			c-0.1,0.2-0.1,0.3-0.1,0.5c0,0.3,0.1,0.5,0.3,0.8c0.2,0.2,0.5,0.3,1,0.3c0.4,0,0.9-0.1,1.2-0.3s0.5-0.4,0.8-0.8
			c0.1-0.2,0.2-0.6,0.2-1.2L574.3,376.2L574.3,376.2z"/>
		<path fill="#FFFFFF" d="M577.2,382.2v-9.3h1.1v0.9c0.2-0.3,0.5-0.6,0.9-0.8c0.3-0.2,0.6-0.2,1.1-0.2c0.5,0,1.1,0.1,1.5,0.4
			c0.4,0.3,0.8,0.8,1,1.3c0.2,0.5,0.3,1.1,0.3,1.7c0,0.6-0.1,1.3-0.3,1.8s-0.6,1-1.1,1.3c-0.4,0.3-1,0.4-1.5,0.4
			c-0.4,0-0.8-0.1-1-0.2c-0.2-0.1-0.5-0.3-0.8-0.6v3.2L577.2,382.2L577.2,382.2z M578.2,376.2c0,0.9,0.2,1.5,0.5,1.9
			c0.3,0.4,0.8,0.6,1.3,0.6s1-0.2,1.3-0.6c0.3-0.4,0.5-1.1,0.5-1.9s-0.2-1.5-0.5-1.9c-0.3-0.4-0.8-0.6-1.3-0.6
			c-0.4,0-0.9,0.2-1.3,0.6S578.2,375.4,578.2,376.2z"/>
		<path fill="#FFFFFF" d="M544.4,395.1v-5.8h-1v-0.9h1v-0.8c0-0.4,0-0.8,0.1-1c0.1-0.3,0.3-0.5,0.5-0.8c0.3-0.2,0.6-0.3,1.2-0.3
			c0.3,0,0.6,0,1.1,0.1l-0.2,1c-0.2,0-0.4-0.1-0.6-0.1c-0.3,0-0.5,0.1-0.8,0.2c-0.1,0.1-0.2,0.4-0.2,0.9v0.6h1.3v0.9h-1.3v5.8
			L544.4,395.1L544.4,395.1z"/>
		<path fill="#FFFFFF" d="M547.3,391.8c0-1.3,0.3-2.2,1.1-2.8c0.5-0.5,1.3-0.8,2.2-0.8c1,0,1.7,0.3,2.3,0.9c0.5,0.6,0.9,1.4,0.9,2.5
			c0,0.9-0.1,1.5-0.4,2c-0.2,0.5-0.6,0.9-1.1,1.2c-0.5,0.3-1.1,0.4-1.6,0.4c-1,0-1.7-0.3-2.3-0.9C547.5,393.8,547.3,393,547.3,391.8
			z M548.4,391.8c0,0.9,0.2,1.5,0.5,1.9c0.3,0.4,0.9,0.6,1.4,0.6s1.1-0.2,1.4-0.6c0.3-0.4,0.5-1.1,0.5-1.9s-0.2-1.5-0.5-1.8
			c-0.3-0.4-0.9-0.6-1.4-0.6s-1.1,0.2-1.4,0.6C548.6,390.4,548.4,390.9,548.4,391.8z"/>
		<path fill="#FFFFFF" d="M554.9,395.1v-6.7h1v1c0.2-0.4,0.5-0.8,0.8-1c0.2-0.1,0.4-0.2,0.8-0.2c0.4,0,0.8,0.1,1.2,0.3l-0.4,1.1
			c-0.3-0.2-0.5-0.2-0.9-0.2c-0.2,0-0.4,0.1-0.6,0.2c-0.2,0.1-0.3,0.3-0.4,0.6c-0.1,0.4-0.2,0.9-0.2,1.3v3.6L554.9,395.1
			L554.9,395.1z"/>
		<path fill="#FFFFFF" d="M562.8,395.1v-9.3h3.5c0.8,0,1.3,0.1,1.7,0.3c0.4,0.2,0.8,0.4,1,0.9c0.2,0.4,0.3,0.8,0.3,1.2
			c0,0.4-0.1,0.8-0.3,1.1c-0.2,0.3-0.5,0.6-1,0.9c0.5,0.2,1,0.4,1.3,0.9c0.3,0.4,0.4,0.9,0.4,1.4c0,0.4-0.1,0.9-0.3,1.2
			c-0.2,0.3-0.4,0.6-0.6,0.9c-0.2,0.2-0.6,0.3-1,0.4c-0.3,0.1-0.9,0.1-1.5,0.1L562.8,395.1L562.8,395.1z M564.1,389.7h2
			c0.5,0,1,0,1.2-0.1c0.3-0.1,0.5-0.2,0.8-0.4c0.1-0.2,0.2-0.4,0.2-0.9c0-0.3-0.1-0.5-0.2-0.9c-0.1-0.2-0.3-0.4-0.6-0.4
			c-0.3-0.1-0.8-0.1-1.4-0.1h-1.8L564.1,389.7L564.1,389.7z M564.1,394h2.3c0.4,0,0.6,0,0.9,0c0.3,0,0.5-0.1,0.8-0.2
			c0.2-0.1,0.3-0.3,0.4-0.5c0.1-0.2,0.2-0.5,0.2-0.8c0-0.3-0.1-0.6-0.2-0.9c-0.2-0.2-0.4-0.4-0.8-0.5s-0.8-0.1-1.4-0.1h-2.2V394
			L564.1,394z"/>
		<path fill="#FFFFFF" d="M575.8,394.4c-0.4,0.3-0.9,0.6-1.2,0.8c-0.4,0.1-0.8,0.2-1.3,0.2c-0.8,0-1.3-0.2-1.7-0.5
			c-0.4-0.3-0.6-0.9-0.6-1.4c0-0.3,0.1-0.6,0.2-0.9c0.1-0.2,0.3-0.5,0.5-0.6s0.5-0.3,0.9-0.3c0.2-0.1,0.5-0.1,1-0.2
			c1-0.1,1.6-0.2,2-0.4c0-0.1,0-0.2,0-0.3c0-0.4-0.1-0.8-0.3-1c-0.3-0.2-0.8-0.4-1.3-0.4c-0.5,0-1,0.1-1.2,0.3
			c-0.2,0.2-0.4,0.5-0.5,1l-1.1-0.1c0.1-0.4,0.2-0.9,0.5-1.2c0.2-0.3,0.5-0.5,1-0.6c0.4-0.1,1-0.2,1.5-0.2c0.5,0,1.1,0.1,1.4,0.2
			c0.3,0.1,0.6,0.3,0.8,0.5c0.2,0.2,0.3,0.4,0.3,0.8c0,0.2,0.1,0.5,0.1,1.1v1.5c0,1.1,0,1.7,0.1,2c0,0.3,0.1,0.5,0.3,0.8H576
			C575.9,394.9,575.8,394.6,575.8,394.4z M575.7,391.8c-0.4,0.2-1.1,0.3-1.8,0.4c-0.4,0.1-0.8,0.1-1,0.2c-0.2,0.1-0.3,0.2-0.4,0.3
			c-0.1,0.2-0.1,0.3-0.1,0.5c0,0.3,0.1,0.5,0.3,0.8c0.2,0.2,0.5,0.3,1,0.3s0.9-0.1,1.2-0.3c0.3-0.2,0.5-0.4,0.8-0.8
			c0.1-0.2,0.2-0.6,0.2-1.2L575.7,391.8L575.7,391.8z"/>
		<path fill="#FFFFFF" d="M578.6,395.1v-6.7h1v1c0.5-0.8,1.2-1.1,2.2-1.1c0.4,0,0.8,0.1,1.1,0.2c0.3,0.1,0.5,0.3,0.8,0.5
			c0.2,0.2,0.3,0.5,0.3,0.9c0,0.2,0.1,0.5,0.1,1.1v4.1h-1.2V391c0-0.4,0-0.9-0.1-1.1c-0.1-0.2-0.2-0.4-0.4-0.5
			c-0.2-0.1-0.5-0.2-0.8-0.2c-0.4,0-0.9,0.1-1.3,0.4c-0.3,0.3-0.5,0.9-0.5,1.7v3.7L578.6,395.1L578.6,395.1z"/>
		<path fill="#FFFFFF" d="M590.1,395.1v-0.9c-0.4,0.6-1.1,1-1.8,1c-0.5,0-1.1-0.1-1.5-0.4c-0.4-0.3-0.8-0.8-1.1-1.2
			c-0.3-0.4-0.3-1.2-0.3-1.8c0-0.6,0.1-1.3,0.3-1.8c0.2-0.5,0.5-1,1-1.3c0.4-0.3,1-0.4,1.5-0.4c0.4,0,0.8,0.1,1.1,0.2
			c0.3,0.1,0.5,0.4,0.8,0.6v-3.3h1.1v9.3C591.2,395.1,590.1,395.1,590.1,395.1z M586.6,391.8c0,0.9,0.2,1.5,0.5,1.9
			c0.3,0.4,0.8,0.6,1.3,0.6c0.5,0,1-0.2,1.3-0.6c0.3-0.4,0.5-1.1,0.5-1.8c0-1-0.2-1.6-0.5-2s-0.8-0.6-1.3-0.6c-0.5,0-1,0.2-1.3,0.6
			S586.6,390.9,586.6,391.8z"/>
		<path fill="#FFFFFF" d="M596.6,395.1v-6.7h1v1c0.5-0.8,1.2-1.1,2.2-1.1c0.4,0,0.8,0.1,1.1,0.2c0.3,0.1,0.5,0.3,0.8,0.5
			c0.2,0.2,0.3,0.5,0.3,0.9c0,0.2,0.1,0.5,0.1,1.1v4.1h-1.1V391c0-0.4,0-0.9-0.1-1.1c-0.1-0.2-0.2-0.4-0.4-0.5
			c-0.2-0.1-0.5-0.2-0.8-0.2c-0.4,0-0.9,0.1-1.3,0.4c-0.3,0.3-0.5,0.9-0.5,1.7v3.7L596.6,395.1L596.6,395.1z"/>
	</g>
	<line fill="none" stroke="#415641" stroke-miterlimit="10" x1="290.1" y1="444.2" x2="290.1" y2="489.4"/>
	<g>
		<g>
			<line fill="none" stroke="#FFFFFF" stroke-miterlimit="10" x1="133.7" y1="399.7" x2="178" y2="438.4"/>
			<g>
				<polygon fill="#FFFFFF" points="174.6,439.2 184.6,444.2 178.4,434.9 				"/>
			</g>
		</g>
	</g>
	<g>
		<g>
			<line fill="none" stroke="#FAFCFD" stroke-miterlimit="10" x1="57.6" y1="527.3" x2="27.1" y2="489.9"/>
			<g>
				<polygon fill="#FAFCFD" points="58.6,523.9 63.2,534.1 54.1,527.6 				"/>
			</g>
		</g>
	</g>
	<g>
		<g>
			<line fill="none" stroke="#FFFFFF" stroke-miterlimit="10" x1="194.6" y1="531.5" x2="62.6" y2="489.9"/>
			<g>
				<polygon fill="#FFFFFF" points="193.6,528.1 203.1,534.1 191.9,533.6 				"/>
			</g>
		</g>
	</g>
	<g>
		<g>
			<line fill="none" stroke="#FFFFFF" stroke-miterlimit="10" x1="335.5" y1="532.6" x2="83.2" y2="489.9"/>
			<g>
				<polygon fill="#FFFFFF" points="334,529.4 344.3,534.1 333.1,535.2 				"/>
			</g>
		</g>
	</g>
	<g>
		<g>
			<line fill="none" stroke="#FFFFFF" stroke-miterlimit="10" x1="222.3" y1="399.3" x2="200.9" y2="436.1"/>
			<g>
				<polygon fill="#FFFFFF" points="199.3,432.9 196.4,443.7 204.4,435.8 				"/>
			</g>
		</g>
	</g>
	<g>
		<g>
			<line fill="none" stroke="#FFFFFF" stroke-miterlimit="10" x1="327.5" y1="399.7" x2="371.8" y2="438.4"/>
			<g>
				<polygon fill="#FFFFFF" points="368.4,439.2 378.4,444.2 372.2,434.9 				"/>
			</g>
		</g>
	</g>
	<g>
		<g>
			<line fill="none" stroke="#FFFFFF" stroke-miterlimit="10" x1="416.1" y1="399.3" x2="394.7" y2="436.1"/>
			<g>
				<polygon fill="#FFFFFF" points="393.1,432.9 390.2,443.7 398.2,435.8 				"/>
			</g>
		</g>
	</g>
	<g>
		<g>
			<line fill="none" stroke="#FFFFFF" stroke-miterlimit="10" x1="548.2" y1="400.4" x2="504" y2="439"/>
			<g>
				<polygon fill="#FFFFFF" points="503.5,435.5 497.3,444.8 507.4,439.9 				"/>
			</g>
		</g>
	</g>
	<g>
		<g>
			<line fill="none" stroke="#FFFFFF" stroke-miterlimit="10" x1="471" y1="400.4" x2="481.4" y2="436.3"/>
			<g>
				<polygon fill="#FFFFFF" points="478.1,435.2 483.9,444.8 483.7,433.6 				"/>
			</g>
		</g>
	</g>
</g>
</svg>
