<?xml version="1.0" encoding="utf-8"?>
<!-- Generator: Adobe Illustrator 19.0.0, SVG Export Plug-In . SVG Version: 6.00 Build 0)  -->
<svg version="1.1" id="Layer_1" xmlns="http://www.w3.org/2000/svg" xmlns:xlink="http://www.w3.org/1999/xlink" x="0px" y="0px"
	 viewBox="-112 184.3 566.2 245.7" style="enable-background:new -112 184.3 566.2 245.7;" xml:space="preserve">
<style type="text/css">
	.st0{fill:#D6C2DE;stroke:#FFFFFF;stroke-width:2;stroke-miterlimit:10;}
	.st1{fill:#FDF7BD;stroke:#FFFFFF;stroke-width:2;stroke-miterlimit:10;}
	.st2{fill:#289AD6;}
	.st3{fill:#7FCFF7;}
	.st4{fill:#FFFFFF;}
	.st5{fill:#231F20;}
	.st6{fill:none;stroke:#FFFFFF;stroke-width:0.8172;stroke-miterlimit:10;}
	.st7{fill:none;stroke:#FFFFFF;stroke-miterlimit:10;}
</style>
<path class="st0" d="M131.3,220.2c0,2.7-2.2,5-5,5H18.6c-2.7,0-5-2.2-5-5v-26.6c0-2.7,2.2-5,5-5h107.6c2.7,0,5,2.2,5,5v26.6H131.3z"
	/>
<path class="st1" d="M131.3,265.4c0,2.7-2.2,5-5,5H18.6c-2.7,0-5-2.2-5-5v-26.6c0-2.7,2.2-5,5-5h107.6c2.7,0,5,2.2,5,5v26.6H131.3z"
	/>
<path class="st0" d="M21.4,420.9c0,2.2-1.8,4.1-4.1,4.1h-76.5c-2.2,0-4.1-1.8-4.1-4.1v-21.8c0-2.2,1.8-4.1,4.1-4.1h76.5
	c2.2,0,4.1,1.8,4.1,4.1C21.4,399.1,21.4,420.9,21.4,420.9z"/>
<path class="st0" d="M112.3,420.9c0,2.2-1.8,4.1-4.1,4.1H31.7c-2.2,0-4.1-1.8-4.1-4.1v-21.8c0-2.2,1.8-4.1,4.1-4.1h76.5
	c2.2,0,4.1,1.8,4.1,4.1C112.3,399.1,112.3,420.9,112.3,420.9z"/>
<rect x="340.6" y="395" class="st1" width="111.4" height="29.9"/>
<g>
	<g>
		<g>
			<path class="st2" d="M-61,201.8v47.6c0,1.9-1.8,3.3-3.7,3.3h-41.7c-1.9,0-3.6-1.5-3.6-3.3V195c0-1.9,1.7-3.2,3.6-3.2h34.9
				L-61,201.8z"/>
			<path class="st3" d="M-64.7,253.8h-41.7c-2.7,0-4.6-1.6-4.6-4.3v-54.4c0-2.7,1.9-5.2,4.6-5.2h35.5l10.9,11.4v48.2
				C-60,252.2-62,253.8-64.7,253.8z M-106.4,192.8c-1,0-1.6,1.2-1.6,2.2v54.4c0,1,0.6,1.3,1.6,1.3h41.7c1,0,1.7-0.3,1.7-1.3v-47
				l-9.1-9.7L-106.4,192.8L-106.4,192.8z"/>
		</g>
		<path class="st3" d="M-61.3,201.8h-6.8c-1.9,0-2.9-1.5-2.9-3.4v-6.8L-61.3,201.8z"/>
	</g>
</g>
<g>
	<path class="st4" d="M-102.8,226.1v-15.7h10.6v1.9h-8.5v4.9h7.4v1.9h-7.4v7.2h-2.1V226.1z"/>
	<path class="st4" d="M-92.5,226.1l6-15.7h2.2l6.4,15.7h-2.4l-1.8-4.8h-6.6l-1.7,4.8H-92.5z M-87.9,219.7h5.3l-1.6-4.4
		c-0.5-1.3-0.9-2.4-1.1-3.3c-0.2,1-0.5,2-0.8,3L-87.9,219.7z"/>
	<path class="st4" d="M-73.7,226.1v-13.9h-5.2v-1.9h12.5v1.9h-5.2v13.9L-73.7,226.1L-73.7,226.1z"/>
	<path class="st4" d="M-94.2,240.1v-8.6h5.8v1h-4.7v2.7h4.1v1h-4.1v3.9L-94.2,240.1L-94.2,240.1z"/>
	<path class="st4" d="M-87,232.7v-1.2h1.1v1.2H-87z M-87,240.1v-6.3h1.1v6.3H-87z"/>
	<path class="st4" d="M-84.4,240.1v-8.6h1.1v8.6H-84.4z"/>
	<path class="st4" d="M-77.4,238.1l1.1,0.1c-0.2,0.6-0.5,1.1-1,1.5s-1.1,0.5-1.8,0.5c-0.9,0-1.6-0.3-2.2-0.8
		c-0.5-0.6-0.8-1.4-0.8-2.4c0-1.1,0.3-1.9,0.8-2.4c0.5-0.6,1.2-0.9,2.1-0.9c0.8,0,1.5,0.3,2,0.9s0.8,1.4,0.8,2.4c0,0.1,0,0.2,0,0.3
		H-81c0,0.7,0.2,1.2,0.6,1.6s0.8,0.5,1.3,0.5c0.4,0,0.7-0.1,1-0.3C-77.8,238.9-77.6,238.6-77.4,238.1z M-80.9,236.4h3.5
		c0-0.5-0.2-0.9-0.4-1.2c-0.3-0.4-0.8-0.6-1.3-0.6s-0.9,0.2-1.2,0.5C-80.7,235.4-80.9,235.9-80.9,236.4z"/>
</g>
<g>
	<path class="st4" d="M-105.4,264.1v-5.2h0.8v0.7c0.4-0.6,0.9-0.9,1.7-0.9c0.3,0,0.6,0.1,0.9,0.2s0.5,0.3,0.6,0.4s0.2,0.4,0.3,0.6
		c0,0.2,0,0.4,0,0.9v3.2h-0.9v-3.2c0-0.4,0-0.6-0.1-0.8c-0.1-0.2-0.2-0.3-0.4-0.4c-0.2-0.1-0.4-0.2-0.6-0.2c-0.4,0-0.7,0.1-1,0.4
		s-0.4,0.7-0.4,1.4v2.8h-0.9V264.1z"/>
	<path class="st4" d="M-96.5,263.5c-0.3,0.3-0.6,0.5-0.9,0.6s-0.6,0.2-1,0.2c-0.6,0-1-0.1-1.3-0.4s-0.5-0.6-0.5-1.1
		c0-0.3,0.1-0.5,0.2-0.7s0.3-0.4,0.5-0.5s0.4-0.2,0.6-0.3c0.2,0,0.4-0.1,0.8-0.1c0.7-0.1,1.2-0.2,1.6-0.3c0-0.1,0-0.2,0-0.2
		c0-0.4-0.1-0.6-0.2-0.8c-0.2-0.2-0.6-0.3-1-0.3s-0.7,0.1-0.9,0.2c-0.2,0.1-0.3,0.4-0.4,0.8l-0.9-0.1c0.1-0.4,0.2-0.7,0.4-0.9
		c0.2-0.2,0.4-0.4,0.8-0.5s0.7-0.2,1.2-0.2c0.4,0,0.8,0.1,1.1,0.2c0.3,0.1,0.5,0.2,0.6,0.4c0.1,0.2,0.2,0.4,0.3,0.6
		c0,0.1,0,0.4,0,0.8v1.2c0,0.8,0,1.3,0.1,1.6c0.1,0.3,0.1,0.4,0.2,0.6h-0.9C-96.4,264-96.4,263.7-96.5,263.5z M-96.5,261.5
		c-0.3,0.1-0.8,0.2-1.4,0.3c-0.4,0.1-0.6,0.1-0.8,0.2c-0.2,0.1-0.3,0.2-0.3,0.3s-0.1,0.3-0.1,0.4c0,0.2,0.1,0.4,0.3,0.6
		s0.4,0.2,0.8,0.2c0.3,0,0.6-0.1,0.9-0.2s0.5-0.4,0.6-0.6s0.1-0.5,0.1-0.9L-96.5,261.5L-96.5,261.5z"/>
	<path class="st4" d="M-94.3,264.1v-5.2h0.8v0.7c0.2-0.3,0.4-0.5,0.6-0.6s0.6-0.2,0.9-0.2c0.4,0,0.7,0.1,0.9,0.2
		c0.2,0.1,0.4,0.4,0.5,0.7c0.4-0.6,0.9-0.9,1.6-0.9c0.5,0,0.9,0.1,1.2,0.4s0.4,0.7,0.4,1.3v3.6h-0.9v-3.3c0-0.4,0-0.6-0.1-0.8
		c-0.1-0.2-0.2-0.3-0.3-0.4c-0.1-0.1-0.3-0.1-0.5-0.1c-0.4,0-0.7,0.1-0.9,0.4s-0.4,0.6-0.4,1.2v3h-0.9v-3.3c0-0.4-0.1-0.7-0.2-0.9
		c-0.1-0.2-0.4-0.3-0.7-0.3c-0.2,0-0.5,0.1-0.7,0.2s-0.4,0.3-0.5,0.6c-0.1,0.3-0.1,0.6-0.1,1.1v2.7h-0.7
		C-94.3,264.2-94.3,264.1-94.3,264.1z"/>
	<path class="st4" d="M-82.4,262.5l0.9,0.1c-0.1,0.5-0.4,0.9-0.8,1.2c-0.4,0.3-0.9,0.4-1.5,0.4c-0.8,0-1.4-0.2-1.8-0.7
		s-0.7-1.1-0.7-2s0.2-1.5,0.7-2s1-0.7,1.7-0.7s1.3,0.2,1.7,0.7s0.7,1.1,0.7,2c0,0.1,0,0.1,0,0.2h-3.9c0,0.6,0.2,1,0.5,1.3
		s0.7,0.5,1.1,0.5c0.3,0,0.6-0.1,0.8-0.3C-82.8,263-82.5,262.8-82.4,262.5z M-85.3,261.1h2.9c0-0.4-0.1-0.8-0.3-1
		c-0.3-0.3-0.6-0.5-1.1-0.5c-0.4,0-0.7,0.1-1,0.4S-85.3,260.6-85.3,261.1z"/>
	<path class="st4" d="M-80.1,264.1v-1h1v1H-80.1z"/>
	<path class="st4" d="M-74.1,262.5l0.9,0.1c-0.1,0.5-0.4,0.9-0.8,1.2c-0.4,0.3-0.9,0.4-1.5,0.4c-0.8,0-1.4-0.2-1.8-0.7
		s-0.7-1.1-0.7-2s0.2-1.5,0.7-2s1-0.7,1.7-0.7s1.3,0.2,1.7,0.7s0.7,1.1,0.7,2c0,0.1,0,0.1,0,0.2H-77c0,0.6,0.2,1,0.5,1.3
		s0.7,0.5,1.1,0.5c0.3,0,0.6-0.1,0.8-0.3C-74.4,263-74.2,262.8-74.1,262.5z M-77,261.1h2.9c0-0.4-0.1-0.8-0.3-1
		c-0.3-0.3-0.6-0.5-1.1-0.5c-0.4,0-0.7,0.1-1,0.4S-76.9,260.6-77,261.1z"/>
	<path class="st4" d="M-72.6,264.1l1.9-2.7l-1.8-2.5h1.1l0.8,1.2c0.1,0.2,0.3,0.4,0.4,0.6c0.1-0.2,0.3-0.4,0.4-0.6l0.9-1.2h1
		l-1.8,2.4l1.9,2.7h-1.1l-1.1-1.6l-0.3-0.4l-1.4,2h-0.9V264.1z"/>
	<path class="st4" d="M-65.1,263.4l0.1,0.8c-0.2,0.1-0.5,0.1-0.7,0.1c-0.3,0-0.6-0.1-0.7-0.2s-0.3-0.2-0.4-0.4
		c-0.1-0.2-0.1-0.5-0.1-1v-3h-0.6V259h0.6v-1.3l0.9-0.5v1.8h0.9v0.7H-66v3c0,0.3,0,0.4,0,0.5s0.1,0.1,0.2,0.2s0.2,0.1,0.3,0.1
		C-65.4,263.4-65.3,263.4-65.1,263.4z"/>
</g>
<g>
	<g>
		<g>
			<path class="st2" d="M-58,322.6v47.6c0,1.9-1.8,3.3-3.7,3.3h-41.7c-1.9,0-3.6-1.5-3.6-3.3v-54.4c0-1.9,1.7-3.2,3.6-3.2h34.9
				L-58,322.6z"/>
			<path class="st3" d="M-61.7,374.6h-41.7c-2.7,0-4.6-1.6-4.6-4.3v-54.4c0-2.7,1.9-5.2,4.6-5.2h35.5l10.9,11.4v48.2
				C-57,373-59,374.6-61.7,374.6z M-103.4,313.6c-1,0-1.6,1.2-1.6,2.2v54.4c0,1,0.6,1.3,1.6,1.3h41.7c1,0,1.7-0.3,1.7-1.3v-47
				l-9.1-9.7L-103.4,313.6L-103.4,313.6z"/>
		</g>
		<path class="st3" d="M-58.3,322.6h-6.8c-1.9,0-2.9-1.5-2.9-3.4v-6.8L-58.3,322.6z"/>
	</g>
</g>
<g>
	<path class="st4" d="M-102.2,344.9v-11.5h1.6l6,9v-9h1.5v11.5h-1.6l-6-9v9H-102.2z"/>
	<path class="st4" d="M-87.7,344.9v-10.1h-3.8v-1.4h9.1v1.4h-3.8v10.1H-87.7z"/>
	<path class="st4" d="M-80.7,344.9v-11.5h7.7v1.4h-6.2v3.5h5.4v1.4h-5.4v5.2H-80.7z"/>
	<path class="st4" d="M-71.6,341.3l1.4-0.1c0.1,0.6,0.2,1,0.5,1.4s0.6,0.7,1.2,0.9c0.6,0.2,1.1,0.3,1.8,0.3c0.6,0,1.1-0.1,1.5-0.3
		c0.4-0.2,0.8-0.4,1-0.7c0.2-0.3,0.3-0.6,0.3-1s-0.1-0.7-0.3-0.9c-0.2-0.3-0.6-0.5-1-0.7c-0.3-0.1-1-0.3-2-0.6
		c-1.1-0.3-1.8-0.5-2.2-0.7c-0.5-0.3-1-0.6-1.2-1.1c-0.3-0.4-0.4-0.9-0.4-1.4c0-0.6,0.2-1.1,0.5-1.6s0.8-0.9,1.4-1.1
		c0.6-0.3,1.3-0.4,2.1-0.4c0.8,0,1.6,0.1,2.2,0.4s1.1,0.7,1.5,1.2s0.5,1.1,0.6,1.8l-1.5,0.1c-0.1-0.7-0.3-1.3-0.8-1.6
		c-0.5-0.4-1.1-0.6-2-0.6s-1.6,0.2-2,0.5s-0.6,0.7-0.6,1.2c0,0.4,0.1,0.8,0.4,1c0.3,0.3,1.1,0.5,2.3,0.8c1.2,0.3,2.1,0.5,2.5,0.7
		c0.7,0.3,1.2,0.7,1.5,1.2s0.5,1,0.5,1.6s-0.2,1.2-0.5,1.7s-0.9,1-1.5,1.3s-1.4,0.4-2.2,0.4c-1,0-1.9-0.2-2.6-0.5s-1.3-0.8-1.6-1.4
		C-71.3,342.7-71.5,342-71.6,341.3z"/>
	<path class="st4" d="M-91.2,358.9v-8.6h5.8v1h-4.7v2.7h4.1v1h-4.1v3.9H-91.2z"/>
	<path class="st4" d="M-84,351.5v-1.2h1.1v1.2H-84z M-84,358.9v-6.3h1.1v6.3H-84z"/>
	<path class="st4" d="M-81.4,358.9v-8.6h1.1v8.6H-81.4z"/>
	<path class="st4" d="M-74.4,356.9l1.1,0.1c-0.2,0.6-0.5,1.1-1,1.5s-1.1,0.5-1.8,0.5c-0.9,0-1.6-0.3-2.2-0.8
		c-0.5-0.6-0.8-1.4-0.8-2.4c0-1.1,0.3-1.9,0.8-2.4c0.5-0.6,1.2-0.9,2.1-0.9c0.8,0,1.5,0.3,2,0.9s0.8,1.4,0.8,2.4c0,0.1,0,0.2,0,0.3
		H-78c0,0.7,0.2,1.2,0.6,1.6s0.8,0.5,1.3,0.5c0.4,0,0.7-0.1,1-0.3C-74.8,357.7-74.6,357.4-74.4,356.9z M-77.9,355.2h3.5
		c0-0.5-0.2-0.9-0.4-1.2c-0.3-0.4-0.8-0.6-1.3-0.6s-0.9,0.2-1.2,0.5S-77.9,354.7-77.9,355.2z"/>
</g>
<g>
	<path class="st4" d="M-102.4,384.9v-5.2h0.8v0.7c0.4-0.6,0.9-0.9,1.7-0.9c0.3,0,0.6,0.1,0.9,0.2s0.5,0.3,0.6,0.4s0.2,0.4,0.3,0.6
		c0,0.2,0,0.4,0,0.9v3.2H-99v-3.2c0-0.4,0-0.6-0.1-0.8s-0.2-0.3-0.4-0.4c-0.2-0.1-0.4-0.2-0.6-0.2c-0.4,0-0.7,0.1-1,0.4
		s-0.4,0.7-0.4,1.4v2.8L-102.4,384.9L-102.4,384.9z"/>
	<path class="st4" d="M-93.5,384.3c-0.3,0.3-0.6,0.5-0.9,0.6s-0.6,0.2-1,0.2c-0.6,0-1-0.1-1.3-0.4s-0.5-0.6-0.5-1.1
		c0-0.3,0.1-0.5,0.2-0.7s0.3-0.4,0.5-0.5s0.4-0.2,0.6-0.3c0.2,0,0.4-0.1,0.8-0.1c0.7-0.1,1.2-0.2,1.6-0.3c0-0.1,0-0.2,0-0.2
		c0-0.4-0.1-0.6-0.2-0.8c-0.2-0.2-0.6-0.3-1-0.3s-0.7,0.1-0.9,0.2c-0.2,0.1-0.3,0.4-0.4,0.8l-0.9-0.1c0.1-0.4,0.2-0.7,0.4-0.9
		c0.2-0.2,0.4-0.4,0.8-0.5c0.3-0.1,0.7-0.2,1.2-0.2c0.4,0,0.8,0.1,1.1,0.2c0.3,0.1,0.5,0.2,0.6,0.4s0.2,0.4,0.3,0.6
		c0,0.2,0,0.4,0,0.8v1.2c0,0.8,0,1.3,0.1,1.6c0,0.2,0.1,0.4,0.2,0.6h-0.9C-93.4,384.8-93.4,384.5-93.5,384.3z M-93.5,382.3
		c-0.3,0.1-0.8,0.2-1.4,0.3c-0.4,0.1-0.6,0.1-0.8,0.2c-0.2,0.1-0.3,0.2-0.3,0.3c-0.1,0.1-0.1,0.3-0.1,0.4c0,0.2,0.1,0.4,0.3,0.6
		s0.4,0.2,0.8,0.2c0.3,0,0.6-0.1,0.9-0.2s0.5-0.3,0.6-0.6c0.1-0.2,0.1-0.5,0.1-0.9L-93.5,382.3L-93.5,382.3z"/>
	<path class="st4" d="M-91.3,384.9v-5.2h0.8v0.7c0.2-0.3,0.4-0.5,0.6-0.6c0.3-0.2,0.6-0.2,0.9-0.2c0.4,0,0.7,0.1,0.9,0.2
		c0.2,0.1,0.4,0.4,0.5,0.7c0.4-0.6,0.9-0.9,1.6-0.9c0.5,0,0.9,0.1,1.2,0.4c0.3,0.3,0.4,0.7,0.4,1.3v3.6h-0.9v-3.3
		c0-0.4,0-0.6-0.1-0.8s-0.2-0.3-0.3-0.4c-0.1-0.1-0.3-0.1-0.5-0.1c-0.4,0-0.7,0.1-0.9,0.4c-0.2,0.2-0.4,0.6-0.4,1.2v3h-0.9v-3.3
		c0-0.4-0.1-0.7-0.2-0.9c-0.1-0.2-0.4-0.3-0.7-0.3c-0.2,0-0.5,0.1-0.7,0.2s-0.4,0.3-0.5,0.6c-0.1,0.3-0.1,0.6-0.1,1.1v2.7h-0.7
		C-91.3,385-91.3,384.9-91.3,384.9z"/>
	<path class="st4" d="M-79.4,383.3l0.9,0.1c-0.1,0.5-0.4,0.9-0.8,1.2c-0.4,0.3-0.9,0.4-1.5,0.4c-0.8,0-1.4-0.2-1.8-0.7
		s-0.7-1.1-0.7-2s0.2-1.5,0.7-2s1-0.7,1.7-0.7s1.3,0.2,1.7,0.7s0.7,1.1,0.7,2c0,0.1,0,0.1,0,0.2h-3.9c0,0.6,0.2,1,0.5,1.3
		s0.7,0.5,1.1,0.5c0.3,0,0.6-0.1,0.8-0.3C-79.8,383.8-79.5,383.6-79.4,383.3z M-82.3,381.9h2.9c0-0.4-0.1-0.8-0.3-1
		c-0.3-0.3-0.6-0.5-1.1-0.5c-0.4,0-0.7,0.1-1,0.4S-82.3,381.4-82.3,381.9z"/>
	<path class="st4" d="M-77.1,384.9v-1h1v1H-77.1z"/>
	<path class="st4" d="M-71.1,383.3l0.9,0.1c-0.1,0.5-0.4,0.9-0.8,1.2c-0.4,0.3-0.9,0.4-1.5,0.4c-0.8,0-1.4-0.2-1.8-0.7
		s-0.7-1.1-0.7-2s0.2-1.5,0.7-2s1-0.7,1.7-0.7s1.3,0.2,1.7,0.7s0.7,1.1,0.7,2c0,0.1,0,0.1,0,0.2H-74c0,0.6,0.2,1,0.5,1.3
		s0.7,0.5,1.1,0.5c0.3,0,0.6-0.1,0.8-0.3C-71.4,383.8-71.2,383.6-71.1,383.3z M-74,381.9h2.9c0-0.4-0.1-0.8-0.3-1
		c-0.3-0.3-0.6-0.5-1.1-0.5c-0.4,0-0.7,0.1-1,0.4S-73.9,381.4-74,381.9z"/>
	<path class="st4" d="M-69.6,384.9l1.9-2.7l-1.8-2.5h1.1l0.8,1.2c0.1,0.2,0.3,0.4,0.4,0.6c0.1-0.2,0.3-0.4,0.4-0.6l0.9-1.2h1
		l-1.8,2.4l1.9,2.7h-1.1l-1.1-1.6l-0.3-0.4l-1.4,2L-69.6,384.9L-69.6,384.9z"/>
	<path class="st4" d="M-62.1,384.2l0.1,0.8c-0.2,0.1-0.5,0.1-0.7,0.1c-0.3,0-0.6,0-0.7-0.2s-0.3-0.2-0.4-0.4c-0.1-0.2-0.1-0.5-0.1-1
		v-3h-0.6v-0.7h0.6v-1.3l0.9-0.5v1.8h0.9v0.7H-63v3c0,0.3,0,0.4,0,0.5s0.1,0.1,0.2,0.2c0.1,0.1,0.2,0.1,0.3,0.1
		C-62.4,384.2-62.3,384.2-62.1,384.2z"/>
</g>
<g>
	<path class="st5" d="M37.9,217.1l4.4-11.5h1.6l4.7,11.5h-1.7l-1.3-3.5h-4.8l-1.3,3.5H37.9z M41.2,212.4h3.9l-1.2-3.2
		c-0.4-1-0.6-1.8-0.8-2.4c-0.1,0.7-0.4,1.5-0.6,2.2L41.2,212.4z"/>
	<path class="st5" d="M52.7,215.8l0.2,1.2c-0.4,0.1-0.8,0.1-1.1,0.1c-0.5,0-0.9-0.1-1.2-0.2s-0.5-0.4-0.6-0.6
		c-0.1-0.3-0.2-0.8-0.2-1.7v-4.8h-1v-1h1v-2.1l1.4-0.8v2.9h1.4v1.1h-1.4v4.9c0,0.4,0,0.7,0.1,0.8c0,0.1,0.1,0.2,0.2,0.3
		c0.1,0.1,0.3,0.1,0.5,0.1C52.2,215.9,52.4,215.9,52.7,215.8z"/>
	<path class="st5" d="M54,217.1v-8.3h1.3v1.3c0.3-0.6,0.6-1,0.9-1.2s0.6-0.3,0.9-0.3c0.5,0,1,0.2,1.4,0.5l-0.5,1.3
		c-0.3-0.2-0.7-0.3-1-0.3s-0.6,0.1-0.8,0.3s-0.4,0.4-0.5,0.8c-0.2,0.5-0.2,1-0.2,1.6v4.3L54,217.1L54,217.1z"/>
	<path class="st5" d="M59.4,207.2v-1.6h1.4v1.6H59.4z M59.4,217.1v-8.3h1.4v8.3H59.4z"/>
	<path class="st5" d="M64.2,217.1h-1.3v-11.5h1.4v4.1c0.6-0.7,1.4-1.1,2.3-1.1c0.5,0,1,0.1,1.4,0.3c0.5,0.2,0.8,0.5,1.1,0.9
		c0.3,0.4,0.5,0.8,0.7,1.3s0.3,1.1,0.3,1.7c0,1.4-0.4,2.5-1.1,3.3s-1.5,1.2-2.5,1.2s-1.7-0.4-2.3-1.2V217.1z M64.2,212.9
		c0,1,0.1,1.7,0.4,2.2c0.4,0.7,1,1.1,1.8,1.1c0.6,0,1.1-0.3,1.6-0.8c0.4-0.5,0.7-1.3,0.7-2.4c0-1.1-0.2-1.9-0.6-2.4
		s-0.9-0.8-1.6-0.8c-0.6,0-1.1,0.3-1.6,0.8C64.5,211.1,64.2,211.9,64.2,212.9z"/>
	<path class="st5" d="M77.3,217.1v-1.2c-0.6,0.9-1.5,1.4-2.6,1.4c-0.5,0-0.9-0.1-1.4-0.3s-0.7-0.4-0.9-0.7c-0.2-0.3-0.4-0.6-0.4-1
		c-0.1-0.3-0.1-0.7-0.1-1.3v-5.2h1.4v4.6c0,0.7,0,1.2,0.1,1.5c0.1,0.4,0.3,0.7,0.6,0.9s0.6,0.3,1.1,0.3s0.8-0.1,1.2-0.3
		c0.4-0.2,0.6-0.5,0.8-0.9c0.2-0.4,0.2-0.9,0.2-1.6v-4.5h1.4v8.3H77.3z"/>
	<path class="st5" d="M83.8,215.8L84,217c-0.4,0.1-0.8,0.1-1.1,0.1c-0.5,0-0.9-0.1-1.2-0.2s-0.5-0.4-0.6-0.6
		c-0.1-0.3-0.2-0.8-0.2-1.7v-4.8h-1v-1h1v-2.1l1.4-0.8v2.9h1.4v1.1h-1.4v4.9c0,0.4,0,0.7,0.1,0.8c0,0.1,0.1,0.2,0.2,0.3
		s0.3,0.1,0.5,0.1C83.4,215.9,83.6,215.9,83.8,215.8z"/>
	<path class="st5" d="M90.9,214.4l1.5,0.2c-0.2,0.8-0.7,1.5-1.3,2s-1.4,0.7-2.4,0.7c-1.2,0-2.2-0.4-2.9-1.1
		c-0.7-0.7-1.1-1.8-1.1-3.1c0-1.4,0.4-2.5,1.1-3.3s1.7-1.2,2.8-1.2c1.1,0,2,0.4,2.7,1.1c0.7,0.8,1.1,1.8,1.1,3.2c0,0.1,0,0.2,0,0.4
		h-6.2c0.1,0.9,0.3,1.6,0.8,2.1s1,0.7,1.7,0.7c0.5,0,1-0.1,1.3-0.4C90.4,215.4,90.7,215,90.9,214.4z M86.3,212.1h4.6
		c-0.1-0.7-0.2-1.2-0.5-1.6c-0.4-0.5-1-0.8-1.7-0.8c-0.6,0-1.2,0.2-1.6,0.6C86.5,210.8,86.3,211.4,86.3,212.1z"/>
	<path class="st5" d="M93.5,214.6l1.4-0.2c0.1,0.6,0.3,1,0.7,1.3s0.9,0.4,1.5,0.4s1.1-0.1,1.4-0.4c0.3-0.3,0.5-0.6,0.5-0.9
		c0-0.3-0.1-0.6-0.4-0.8c-0.2-0.1-0.7-0.3-1.4-0.5c-1-0.3-1.7-0.5-2.1-0.7s-0.7-0.5-0.9-0.8s-0.3-0.7-0.3-1.1c0-0.4,0.1-0.7,0.3-1
		c0.2-0.3,0.4-0.6,0.7-0.8c0.2-0.2,0.5-0.3,0.9-0.4c0.4-0.1,0.8-0.2,1.2-0.2c0.7,0,1.2,0.1,1.7,0.3s0.9,0.4,1.1,0.8s0.4,0.7,0.5,1.3
		l-1.4,0.2c-0.1-0.4-0.2-0.8-0.5-1s-0.7-0.4-1.3-0.4c-0.6,0-1.1,0.1-1.4,0.3s-0.4,0.5-0.4,0.8c0,0.2,0.1,0.3,0.2,0.5
		s0.3,0.3,0.5,0.4c0.1,0.1,0.6,0.2,1.2,0.4c1,0.3,1.7,0.5,2.1,0.7s0.7,0.4,0.9,0.7c0.2,0.3,0.3,0.7,0.3,1.2s-0.1,0.9-0.4,1.3
		s-0.7,0.7-1.2,1s-1.1,0.3-1.8,0.3c-1.1,0-1.9-0.2-2.5-0.7C94,216.1,93.7,215.5,93.5,214.6z"/>
</g>
<g>
	<path class="st5" d="M53.8,260v-11.5h3.9c0.9,0,1.6,0.1,2,0.2c0.7,0.2,1.2,0.4,1.7,0.8c0.6,0.5,1.1,1.2,1.4,2
		c0.3,0.8,0.4,1.7,0.4,2.7c0,0.9-0.1,1.6-0.3,2.3c-0.2,0.7-0.5,1.2-0.8,1.7c-0.3,0.4-0.7,0.8-1,1c-0.4,0.3-0.8,0.4-1.4,0.6
		c-0.5,0.1-1.1,0.2-1.8,0.2L53.8,260L53.8,260z M55.3,258.6h2.4c0.8,0,1.3-0.1,1.8-0.2s0.8-0.3,1-0.6c0.4-0.4,0.6-0.8,0.8-1.4
		s0.3-1.3,0.3-2.2c0-1.2-0.2-2.1-0.6-2.8c-0.4-0.6-0.9-1.1-1.4-1.3c-0.4-0.2-1.1-0.2-2-0.2h-2.4v8.7H55.3z"/>
	<path class="st5" d="M70.6,259c-0.5,0.4-1,0.8-1.5,0.9s-1,0.3-1.6,0.3c-0.9,0-1.6-0.2-2.1-0.7s-0.7-1-0.7-1.7
		c0-0.4,0.1-0.8,0.3-1.1c0.2-0.3,0.4-0.6,0.7-0.8s0.6-0.4,1-0.5c0.3-0.1,0.7-0.1,1.3-0.2c1.1-0.1,2-0.3,2.5-0.5c0-0.2,0-0.3,0-0.4
		c0-0.6-0.1-1-0.4-1.2c-0.4-0.3-0.9-0.5-1.6-0.5s-1.1,0.1-1.5,0.3c-0.3,0.2-0.5,0.6-0.7,1.2l-1.4-0.2c0.1-0.6,0.3-1.1,0.6-1.4
		c0.3-0.4,0.7-0.6,1.2-0.8s1.2-0.3,1.9-0.3c0.7,0,1.3,0.1,1.7,0.3c0.4,0.2,0.8,0.4,1,0.6c0.2,0.3,0.4,0.6,0.4,1
		c0,0.2,0.1,0.7,0.1,1.3v1.9c0,1.3,0,2.1,0.1,2.5c0.1,0.3,0.2,0.7,0.4,1h-1.5C70.7,259.7,70.6,259.3,70.6,259z M70.5,255.8
		c-0.5,0.2-1.3,0.4-2.3,0.5c-0.6,0.1-1,0.2-1.2,0.3s-0.4,0.3-0.6,0.5c-0.1,0.2-0.2,0.4-0.2,0.7c0,0.4,0.1,0.7,0.4,0.9
		c0.3,0.2,0.7,0.4,1.2,0.4s1-0.1,1.4-0.4c0.4-0.2,0.7-0.6,0.9-1c0.2-0.3,0.2-0.8,0.2-1.4v-0.5H70.5z"/>
	<path class="st5" d="M77.1,258.7l0.2,1.2c-0.4,0.1-0.8,0.1-1.1,0.1c-0.5,0-0.9-0.1-1.2-0.2c-0.3-0.1-0.5-0.4-0.6-0.6
		c-0.1-0.3-0.2-0.8-0.2-1.7v-4.7h-1v-1.1h1v-2.1l1.4-0.8v2.9H77v1.1h-1.4v4.9c0,0.4,0,0.7,0.1,0.8c0,0.1,0.1,0.2,0.2,0.3
		s0.3,0.1,0.5,0.1C76.7,258.8,76.9,258.8,77.1,258.7z"/>
	<path class="st5" d="M83.9,259c-0.5,0.4-1,0.8-1.5,0.9s-1,0.3-1.6,0.3c-0.9,0-1.6-0.2-2.1-0.7s-0.7-1-0.7-1.7
		c0-0.4,0.1-0.8,0.3-1.1c0.2-0.3,0.4-0.6,0.7-0.8s0.6-0.4,1-0.5c0.3-0.1,0.7-0.1,1.3-0.2c1.1-0.1,2-0.3,2.5-0.5c0-0.2,0-0.3,0-0.4
		c0-0.6-0.1-1-0.4-1.2c-0.4-0.3-0.9-0.5-1.6-0.5s-1.1,0.1-1.5,0.3c-0.3,0.2-0.5,0.6-0.7,1.2l-1.4-0.2c0.1-0.6,0.3-1.1,0.6-1.4
		c0.3-0.4,0.7-0.6,1.2-0.8s1.2-0.3,1.9-0.3c0.7,0,1.3,0.1,1.7,0.3c0.4,0.2,0.8,0.4,1,0.6c0.2,0.3,0.4,0.6,0.4,1
		c0,0.2,0.1,0.7,0.1,1.3v1.9c0,1.3,0,2.1,0.1,2.5c0.1,0.3,0.2,0.7,0.4,1h-1.5C84.1,259.7,84,259.3,83.9,259z M83.8,255.8
		c-0.5,0.2-1.3,0.4-2.3,0.5c-0.6,0.1-1,0.2-1.2,0.3s-0.4,0.3-0.6,0.5c-0.1,0.2-0.2,0.4-0.2,0.7c0,0.4,0.1,0.7,0.4,0.9
		c0.3,0.2,0.7,0.4,1.2,0.4s1-0.1,1.4-0.4c0.4-0.2,0.7-0.6,0.9-1c0.2-0.3,0.2-0.8,0.2-1.4v-0.5H83.8z"/>
</g>
<g>
	<path class="st5" d="M-49.8,414.6l3.6-9.4h1.3l3.8,9.4h-1.4l-1.1-2.8h-3.9l-1,2.8H-49.8z M-47.1,410.8h3.2l-1-2.6
		c-0.3-0.8-0.5-1.4-0.7-1.9c-0.1,0.6-0.3,1.2-0.5,1.8L-47.1,410.8z"/>
	<path class="st5" d="M-37.7,413.6l0.2,1c-0.3,0.1-0.6,0.1-0.9,0.1c-0.4,0-0.7-0.1-1-0.2s-0.4-0.3-0.5-0.5s-0.1-0.7-0.1-1.4v-3.9
		h-0.8v-0.9h0.8v-1.6l1.1-0.7v2.4h1.2v0.9h-1.2v4c0,0.3,0,0.5,0.1,0.6c0,0.1,0.1,0.2,0.2,0.2c0.1,0.1,0.2,0.1,0.4,0.1
		C-38,413.6-37.9,413.6-37.7,413.6z"/>
	<path class="st5" d="M-36.6,414.6v-6.8h1v1c0.3-0.5,0.5-0.8,0.7-1s0.5-0.2,0.7-0.2c0.4,0,0.8,0.1,1.2,0.4l-0.4,1.1
		c-0.3-0.2-0.6-0.2-0.8-0.2c-0.3,0-0.5,0.1-0.7,0.2c-0.2,0.2-0.3,0.4-0.4,0.6c-0.1,0.4-0.2,0.9-0.2,1.3v3.5h-1.1V414.6z"/>
	<path class="st5" d="M-32.2,406.6v-1.3h1.1v1.3H-32.2z M-32.2,414.6v-6.8h1.1v6.8H-32.2z"/>
	<path class="st5" d="M-28.2,414.6h-1.1v-9.4h1.1v3.3c0.5-0.6,1.1-0.9,1.9-0.9c0.4,0,0.8,0.1,1.2,0.3c0.4,0.2,0.7,0.4,0.9,0.7
		c0.2,0.3,0.4,0.7,0.6,1.1c0.1,0.4,0.2,0.9,0.2,1.4c0,1.2-0.3,2.1-0.9,2.7s-1.3,1-2.1,1c-0.8,0-1.4-0.3-1.9-1L-28.2,414.6
		L-28.2,414.6z M-28.2,411.2c0,0.8,0.1,1.4,0.3,1.8c0.4,0.6,0.9,0.9,1.5,0.9c0.5,0,0.9-0.2,1.3-0.7s0.5-1.1,0.5-2s-0.2-1.5-0.5-2
		c-0.4-0.4-0.8-0.6-1.3-0.6s-0.9,0.2-1.3,0.7S-28.2,410.4-28.2,411.2z"/>
	<path class="st5" d="M-17.6,414.6v-1c-0.5,0.8-1.2,1.1-2.2,1.1c-0.4,0-0.8-0.1-1.1-0.2c-0.3-0.2-0.6-0.3-0.8-0.6
		c-0.2-0.2-0.3-0.5-0.4-0.9c0-0.2-0.1-0.6-0.1-1.1v-4.2h1.1v3.8c0,0.6,0,1,0.1,1.2c0.1,0.3,0.2,0.5,0.5,0.7c0.2,0.2,0.5,0.3,0.9,0.3
		s0.7-0.1,1-0.3c0.3-0.2,0.5-0.4,0.6-0.7s0.2-0.7,0.2-1.3v-3.6h1.1v6.8L-17.6,414.6L-17.6,414.6z"/>
	<path class="st5" d="M-12.2,413.6l0.2,1c-0.3,0.1-0.6,0.1-0.9,0.1c-0.4,0-0.7-0.1-1-0.2s-0.4-0.3-0.5-0.5s-0.1-0.7-0.1-1.4v-3.9
		h-0.8v-0.9h0.8v-1.6l1.1-0.7v2.4h1.2v0.9h-1.2v4c0,0.3,0,0.5,0.1,0.6c0,0.1,0.1,0.2,0.2,0.2c0.1,0.1,0.2,0.1,0.4,0.1
		C-12.6,413.6-12.4,413.6-12.2,413.6z"/>
	<path class="st5" d="M-6.5,412.4l1.2,0.1c-0.2,0.7-0.5,1.2-1,1.6s-1.2,0.6-1.9,0.6c-1,0-1.8-0.3-2.4-0.9s-0.9-1.5-0.9-2.6
		s0.3-2,0.9-2.7c0.6-0.6,1.3-0.9,2.3-0.9c0.9,0,1.6,0.3,2.2,0.9s0.9,1.5,0.9,2.6c0,0.1,0,0.2,0,0.3h-5.1c0,0.7,0.3,1.3,0.6,1.7
		c0.4,0.4,0.9,0.6,1.4,0.6c0.4,0,0.8-0.1,1.1-0.3C-6.9,413.3-6.6,412.9-6.5,412.4z M-10.2,410.6h3.8c-0.1-0.6-0.2-1-0.4-1.3
		c-0.4-0.4-0.8-0.7-1.4-0.7c-0.5,0-1,0.2-1.3,0.5C-10,409.5-10.2,410-10.2,410.6z"/>
	<path class="st5" d="M-4.3,412.6l1.1-0.2c0.1,0.5,0.2,0.8,0.5,1s0.7,0.4,1.2,0.4s0.9-0.1,1.2-0.3s0.4-0.5,0.4-0.8s-0.1-0.5-0.3-0.6
		s-0.5-0.2-1.2-0.4c-0.8-0.2-1.4-0.4-1.8-0.6c-0.3-0.2-0.6-0.4-0.7-0.6s-0.3-0.6-0.3-0.9s0.1-0.6,0.2-0.8c0.1-0.3,0.3-0.5,0.6-0.6
		c0.2-0.1,0.4-0.2,0.7-0.3s0.6-0.1,1-0.1c0.5,0,1,0.1,1.4,0.2s0.7,0.4,0.9,0.6s0.3,0.6,0.4,1l-1,0.1c-0.1-0.3-0.2-0.6-0.4-0.8
		s-0.6-0.3-1-0.3c-0.5,0-0.9,0.1-1.1,0.3c-0.2,0.2-0.3,0.4-0.3,0.6c0,0.1,0,0.3,0.1,0.4s0.2,0.2,0.4,0.3c0.1,0,0.5,0.1,1,0.3
		c0.8,0.2,1.4,0.4,1.7,0.5s0.6,0.3,0.8,0.6c0.2,0.3,0.3,0.6,0.3,1s-0.1,0.7-0.3,1.1c-0.2,0.3-0.5,0.6-1,0.8
		c-0.4,0.2-0.9,0.3-1.4,0.3c-0.9,0-1.6-0.2-2-0.5S-4.2,413.3-4.3,412.6z"/>
</g>
<g>
	<path class="st5" d="M46.9,410.4l1.2-0.1c0.1,0.5,0.2,0.9,0.4,1.2c0.2,0.3,0.5,0.5,0.9,0.7s0.9,0.3,1.4,0.3s0.9-0.1,1.3-0.2
		c0.4-0.1,0.6-0.3,0.8-0.6c0.2-0.2,0.3-0.5,0.3-0.8s-0.1-0.5-0.3-0.8c-0.2-0.2-0.5-0.4-0.8-0.6c-0.3-0.1-0.8-0.3-1.7-0.5
		s-1.5-0.4-1.8-0.6c-0.4-0.2-0.8-0.5-1-0.9c-0.2-0.3-0.3-0.7-0.3-1.2s0.1-0.9,0.4-1.3c0.3-0.4,0.7-0.7,1.2-0.9
		c0.5-0.2,1.1-0.3,1.7-0.3c0.7,0,1.3,0.1,1.8,0.3s0.9,0.6,1.2,1s0.4,0.9,0.5,1.5l-1.2,0.1c-0.1-0.6-0.3-1-0.6-1.3
		c-0.4-0.3-0.9-0.5-1.6-0.5c-0.7,0-1.3,0.1-1.6,0.4s-0.5,0.6-0.5,1c0,0.3,0.1,0.6,0.4,0.8c0.2,0.2,0.9,0.4,1.9,0.7
		c1,0.2,1.7,0.4,2.1,0.6c0.5,0.3,0.9,0.6,1.2,1s0.4,0.8,0.4,1.3s-0.1,1-0.4,1.4c-0.3,0.4-0.7,0.8-1.2,1s-1.1,0.4-1.8,0.4
		c-0.8,0-1.6-0.1-2.1-0.4c-0.6-0.2-1-0.6-1.3-1.1C47.1,411.6,46.9,411,46.9,410.4z"/>
	<path class="st5" d="M60.6,411.2l1.2,0.1c-0.2,0.7-0.5,1.2-1,1.6s-1.2,0.6-1.9,0.6c-1,0-1.8-0.3-2.4-0.9c-0.6-0.6-0.9-1.5-0.9-2.6
		s0.3-2,0.9-2.7c0.6-0.6,1.3-0.9,2.3-0.9c0.9,0,1.6,0.3,2.2,0.9c0.6,0.6,0.9,1.5,0.9,2.6c0,0.1,0,0.2,0,0.3h-5.1
		c0,0.7,0.3,1.3,0.6,1.7c0.4,0.4,0.9,0.6,1.4,0.6c0.4,0,0.8-0.1,1.1-0.3C60.2,412.1,60.4,411.7,60.6,411.2z M56.8,409.4h3.8
		c-0.1-0.6-0.2-1-0.4-1.3c-0.4-0.4-0.8-0.7-1.4-0.7c-0.5,0-1,0.2-1.3,0.5C57,408.3,56.8,408.8,56.8,409.4z"/>
	<path class="st5" d="M67.6,410.9l1.1,0.1c-0.1,0.8-0.4,1.4-0.9,1.8s-1.1,0.7-1.9,0.7c-0.9,0-1.7-0.3-2.2-0.9
		c-0.6-0.6-0.8-1.5-0.8-2.6c0-0.7,0.1-1.4,0.4-1.9c0.2-0.5,0.6-1,1.1-1.2s1-0.4,1.6-0.4c0.7,0,1.3,0.2,1.8,0.6s0.8,0.9,0.9,1.6
		l-1.1,0.2c-0.1-0.5-0.3-0.8-0.6-1c-0.3-0.2-0.6-0.3-1-0.3c-0.6,0-1,0.2-1.4,0.6s-0.5,1.1-0.5,2s0.2,1.6,0.5,2s0.8,0.6,1.4,0.6
		c0.5,0,0.8-0.1,1.1-0.4C67.3,411.9,67.5,411.5,67.6,410.9z"/>
	<path class="st5" d="M74.2,413.4v-1c-0.5,0.8-1.2,1.1-2.2,1.1c-0.4,0-0.8-0.1-1.1-0.2c-0.3-0.2-0.6-0.3-0.8-0.6
		c-0.2-0.2-0.3-0.5-0.4-0.9c0-0.2-0.1-0.6-0.1-1.1v-4.2h1.1v3.8c0,0.6,0,1,0.1,1.2c0.1,0.3,0.2,0.5,0.5,0.7c0.2,0.2,0.5,0.3,0.9,0.3
		s0.7-0.1,1-0.3c0.3-0.2,0.5-0.4,0.6-0.7s0.2-0.7,0.2-1.3v-3.6h1.1v6.8L74.2,413.4L74.2,413.4z"/>
	<path class="st5" d="M77,413.4v-6.8h1v1c0.3-0.5,0.5-0.8,0.7-1s0.5-0.2,0.7-0.2c0.4,0,0.8,0.1,1.2,0.4l-0.4,1.1
		c-0.3-0.2-0.6-0.2-0.8-0.2c-0.3,0-0.5,0.1-0.7,0.2c-0.2,0.2-0.3,0.4-0.4,0.6c-0.1,0.4-0.2,0.9-0.2,1.3v3.5H77V413.4z"/>
	<path class="st5" d="M81.4,405.4v-1.3h1.1v1.3H81.4z M81.4,413.4v-6.8h1.1v6.8H81.4z"/>
	<path class="st5" d="M86.8,412.4l0.2,1c-0.3,0.1-0.6,0.1-0.9,0.1c-0.4,0-0.7-0.1-1-0.2s-0.4-0.3-0.5-0.5s-0.1-0.7-0.1-1.4v-3.9
		h-0.8v-0.9h0.8V405l1.1-0.7v2.4h1.2v0.9h-1.2v4c0,0.3,0,0.5,0.1,0.6c0,0.1,0.1,0.2,0.2,0.2c0.1,0.1,0.2,0.1,0.4,0.1
		C86.4,412.4,86.6,412.4,86.8,412.4z"/>
	<path class="st5" d="M87.8,416l-0.1-1.1c0.3,0.1,0.5,0.1,0.7,0.1c0.3,0,0.5,0,0.6-0.1c0.2-0.1,0.3-0.2,0.4-0.4
		c0.1-0.1,0.2-0.4,0.4-0.9c0-0.1,0.1-0.2,0.1-0.3l-2.6-6.8h1.2l1.4,3.9c0.2,0.5,0.3,1,0.5,1.6c0.1-0.5,0.3-1,0.5-1.5l1.4-4h1.1
		l-2.6,6.9c-0.3,0.7-0.5,1.3-0.6,1.5c-0.2,0.4-0.4,0.7-0.7,0.8c-0.3,0.2-0.6,0.3-0.9,0.3C88.4,416.2,88.1,416.1,87.8,416z"/>
</g>
<rect x="124.7" y="395" class="st1" width="96.1" height="29.9"/>
<g>
	<path class="st5" d="M133.6,414.7v-9.4h1.9l2.2,6.6c0.2,0.6,0.4,1.1,0.4,1.4c0.1-0.3,0.3-0.8,0.5-1.5l2.2-6.5h1.7v9.4h-1.2v-7.8
		l-2.7,7.8h-1.1l-2.7-8v8H133.6z"/>
	<path class="st5" d="M148.8,413.9c-0.4,0.4-0.8,0.6-1.2,0.8c-0.4,0.1-0.8,0.2-1.3,0.2c-0.7,0-1.3-0.2-1.7-0.5
		c-0.4-0.4-0.6-0.8-0.6-1.4c0-0.3,0.1-0.6,0.2-0.9s0.3-0.5,0.6-0.7c0.2-0.2,0.5-0.3,0.8-0.4c0.2-0.1,0.6-0.1,1-0.2
		c0.9-0.1,1.6-0.2,2-0.4c0-0.2,0-0.3,0-0.3c0-0.5-0.1-0.8-0.3-1c-0.3-0.3-0.7-0.4-1.3-0.4c-0.5,0-0.9,0.1-1.2,0.3
		c-0.3,0.2-0.4,0.5-0.6,1l-1.1-0.2c0.1-0.5,0.3-0.9,0.5-1.2c0.2-0.3,0.6-0.5,1-0.7s1-0.2,1.5-0.2c0.6,0,1,0.1,1.4,0.2
		s0.6,0.3,0.8,0.5s0.3,0.5,0.4,0.8c0,0.2,0.1,0.5,0.1,1.1v1.5c0,1.1,0,1.7,0.1,2c0,0.3,0.1,0.6,0.3,0.8H149
		C148.9,414.5,148.9,414.2,148.8,413.9z M148.7,411.3c-0.4,0.2-1,0.3-1.9,0.4c-0.5,0.1-0.8,0.1-1,0.2s-0.3,0.2-0.5,0.4
		c-0.2,0.2-0.2,0.3-0.2,0.5c0,0.3,0.1,0.6,0.3,0.8c0.2,0.2,0.6,0.3,1,0.3s0.8-0.1,1.2-0.3c0.3-0.2,0.6-0.5,0.8-0.8
		c0.1-0.3,0.2-0.6,0.2-1.1L148.7,411.3L148.7,411.3z"/>
	<path class="st5" d="M151.7,406.7v-1.3h1.1v1.3H151.7z M151.7,414.7V408h1.1v6.8L151.7,414.7L151.7,414.7z"/>
	<path class="st5" d="M154.6,414.7V408h1v1c0.5-0.7,1.2-1.1,2.2-1.1c0.4,0,0.8,0.1,1.1,0.2s0.6,0.3,0.8,0.6c0.2,0.3,0.3,0.5,0.4,0.8
		c0,0.2,0.1,0.6,0.1,1.1v4.2H159v-4.1c0-0.5,0-0.8-0.1-1.1c-0.1-0.2-0.2-0.4-0.5-0.6c-0.2-0.1-0.5-0.2-0.8-0.2
		c-0.5,0-0.9,0.2-1.3,0.5s-0.5,0.9-0.5,1.8v3.7L154.6,414.7L154.6,414.7z"/>
	<path class="st5" d="M165.2,411.7l1.2-0.1c0.1,0.5,0.2,0.9,0.4,1.2c0.2,0.3,0.5,0.5,0.9,0.7s0.9,0.3,1.4,0.3s0.9-0.1,1.3-0.2
		c0.4-0.1,0.6-0.3,0.8-0.6c0.2-0.2,0.3-0.5,0.3-0.8s-0.1-0.5-0.3-0.8c-0.2-0.2-0.5-0.4-0.8-0.6c-0.3-0.1-0.8-0.3-1.7-0.5
		s-1.5-0.4-1.8-0.6c-0.4-0.2-0.8-0.5-1-0.9c-0.2-0.3-0.3-0.7-0.3-1.2s0.1-0.9,0.4-1.3c0.3-0.4,0.7-0.7,1.2-0.9s1.1-0.3,1.7-0.3
		c0.7,0,1.3,0.1,1.8,0.3c0.5,0.2,0.9,0.6,1.2,1s0.4,0.9,0.5,1.5l-1.2,0.1c-0.1-0.6-0.3-1-0.6-1.3c-0.4-0.3-0.9-0.5-1.6-0.5
		c-0.7,0-1.3,0.1-1.6,0.4s-0.5,0.6-0.5,1c0,0.3,0.1,0.6,0.4,0.8c0.2,0.2,0.9,0.4,1.9,0.7c1,0.2,1.7,0.4,2.1,0.6
		c0.5,0.3,0.9,0.6,1.2,1s0.4,0.8,0.4,1.3s-0.1,1-0.4,1.4c-0.3,0.4-0.7,0.8-1.2,1s-1.1,0.4-1.8,0.4c-0.8,0-1.6-0.1-2.1-0.4
		c-0.6-0.2-1-0.6-1.3-1.1C165.4,412.9,165.2,412.4,165.2,411.7z"/>
	<path class="st5" d="M176.7,413.7l0.2,1c-0.3,0.1-0.6,0.1-0.9,0.1c-0.4,0-0.7-0.1-1-0.2s-0.4-0.3-0.5-0.5s-0.1-0.7-0.1-1.4v-3.9
		h-0.8V408h0.8v-1.7l1.1-0.7v2.4h1.2v0.9h-1.2v4c0,0.3,0,0.5,0.1,0.6c0,0.1,0.1,0.2,0.2,0.2c0.1,0.1,0.2,0.1,0.4,0.1
		C176.3,413.8,176.5,413.7,176.7,413.7z"/>
	<path class="st5" d="M177.8,414.7V408h1v1c0.3-0.5,0.5-0.8,0.7-1s0.5-0.2,0.7-0.2c0.4,0,0.8,0.1,1.2,0.4l-0.4,1.1
		c-0.3-0.2-0.6-0.2-0.8-0.2c-0.3,0-0.5,0.1-0.7,0.2c-0.2,0.2-0.3,0.4-0.4,0.6c-0.1,0.4-0.2,0.9-0.2,1.3v3.5L177.8,414.7L177.8,414.7
		z"/>
	<path class="st5" d="M186.8,412.6l1.2,0.1c-0.2,0.7-0.5,1.2-1,1.6s-1.2,0.6-1.9,0.6c-1,0-1.8-0.3-2.4-0.9c-0.6-0.6-0.9-1.5-0.9-2.6
		s0.3-2,0.9-2.7c0.6-0.6,1.3-0.9,2.3-0.9c0.9,0,1.6,0.3,2.2,0.9c0.6,0.6,0.9,1.5,0.9,2.6c0,0.1,0,0.2,0,0.3H183
		c0,0.7,0.3,1.3,0.6,1.7c0.4,0.4,0.9,0.6,1.4,0.6c0.4,0,0.8-0.1,1.1-0.3C186.4,413.4,186.7,413,186.8,412.6z M183.1,410.7h3.8
		c-0.1-0.6-0.2-1-0.4-1.3c-0.4-0.4-0.8-0.7-1.4-0.7c-0.5,0-1,0.2-1.3,0.5C183.3,409.6,183.1,410.1,183.1,410.7z"/>
	<path class="st5" d="M193.9,413.9c-0.4,0.4-0.8,0.6-1.2,0.8c-0.4,0.1-0.8,0.2-1.3,0.2c-0.7,0-1.3-0.2-1.7-0.5
		c-0.4-0.4-0.6-0.8-0.6-1.4c0-0.3,0.1-0.6,0.2-0.9s0.3-0.5,0.6-0.7c0.2-0.2,0.5-0.3,0.8-0.4c0.2-0.1,0.6-0.1,1-0.2
		c0.9-0.1,1.6-0.2,2-0.4c0-0.2,0-0.3,0-0.3c0-0.5-0.1-0.8-0.3-1c-0.3-0.3-0.7-0.4-1.3-0.4c-0.5,0-0.9,0.1-1.2,0.3
		c-0.3,0.2-0.4,0.5-0.6,1l-1.1-0.2c0.1-0.5,0.3-0.9,0.5-1.2c0.2-0.3,0.6-0.5,1-0.7s1-0.2,1.5-0.2c0.6,0,1,0.1,1.4,0.2
		s0.6,0.3,0.8,0.5s0.3,0.5,0.4,0.8c0,0.2,0.1,0.5,0.1,1.1v1.5c0,1.1,0,1.7,0.1,2c0,0.3,0.1,0.6,0.3,0.8h-1.2
		C194,414.5,193.9,414.2,193.9,413.9z M193.8,411.3c-0.4,0.2-1,0.3-1.9,0.4c-0.5,0.1-0.8,0.1-1,0.2s-0.3,0.2-0.5,0.4
		c-0.2,0.2-0.2,0.3-0.2,0.5c0,0.3,0.1,0.6,0.3,0.8c0.2,0.2,0.6,0.3,1,0.3s0.8-0.1,1.2-0.3c0.3-0.2,0.6-0.5,0.8-0.8
		c0.1-0.3,0.2-0.6,0.2-1.1L193.8,411.3L193.8,411.3z"/>
	<path class="st5" d="M196.7,414.7V408h1v1c0.2-0.3,0.5-0.6,0.8-0.8c0.4-0.2,0.8-0.3,1.2-0.3c0.5,0,0.9,0.1,1.2,0.3
		c0.3,0.2,0.5,0.5,0.7,0.9c0.5-0.8,1.2-1.2,2.1-1.2c0.7,0,1.2,0.2,1.6,0.6c0.4,0.4,0.5,0.9,0.5,1.7v4.7h-1.1v-4.3c0-0.5,0-0.8-0.1-1
		s-0.2-0.4-0.4-0.5s-0.4-0.2-0.7-0.2c-0.5,0-0.9,0.2-1.2,0.5s-0.5,0.8-0.5,1.5v3.9h-1.1v-4.4c0-0.5-0.1-0.9-0.3-1.1
		c-0.2-0.3-0.5-0.4-0.9-0.4c-0.3,0-0.6,0.1-0.9,0.3c-0.3,0.2-0.5,0.4-0.6,0.7s-0.2,0.8-0.2,1.4v3.5h-1.1V414.7z"/>
</g>
<rect x="226.1" y="395" class="st1" width="111.4" height="29.9"/>
<g>
	<path class="st5" d="M229.7,414.7l3.6-9.4h1.3l3.8,9.4H237l-1.1-2.8H232l-1,2.8H229.7z M232.4,410.9h3.2l-1-2.6
		c-0.3-0.8-0.5-1.4-0.7-1.9c-0.1,0.6-0.3,1.2-0.5,1.8L232.4,410.9z"/>
	<path class="st5" d="M239.3,414.7v-9.4h1.1v9.4H239.3z"/>
	<path class="st5" d="M244.7,413.7l0.2,1c-0.3,0.1-0.6,0.1-0.9,0.1c-0.4,0-0.7-0.1-1-0.2s-0.4-0.3-0.5-0.5s-0.1-0.7-0.1-1.4v-3.9
		h-0.8v-0.9h0.8v-1.6l1.1-0.7v2.4h1.2v0.9h-1.2v4c0,0.3,0,0.5,0.1,0.6c0,0.1,0.1,0.2,0.2,0.2c0.1,0.1,0.2,0.1,0.4,0.1
		C244.3,413.7,244.5,413.7,244.7,413.7z"/>
	<path class="st5" d="M250.5,412.5l1.2,0.1c-0.2,0.7-0.5,1.2-1,1.6s-1.2,0.6-1.9,0.6c-1,0-1.8-0.3-2.4-0.9c-0.6-0.6-0.9-1.5-0.9-2.6
		s0.3-2,0.9-2.7c0.6-0.6,1.3-0.9,2.3-0.9c0.9,0,1.6,0.3,2.2,0.9c0.6,0.6,0.9,1.5,0.9,2.6c0,0.1,0,0.2,0,0.3h-5.1
		c0,0.7,0.3,1.3,0.6,1.7c0.4,0.4,0.9,0.6,1.4,0.6c0.4,0,0.8-0.1,1.1-0.3C250.1,413.4,250.3,413,250.5,412.5z M246.7,410.7h3.8
		c-0.1-0.6-0.2-1-0.4-1.3c-0.4-0.4-0.8-0.7-1.4-0.7c-0.5,0-1,0.2-1.3,0.5C246.9,409.6,246.7,410.1,246.7,410.7z"/>
	<path class="st5" d="M253.1,414.7v-6.8h1v1c0.3-0.5,0.5-0.8,0.7-1s0.5-0.2,0.7-0.2c0.4,0,0.8,0.1,1.2,0.4l-0.4,1.1
		c-0.3-0.2-0.6-0.2-0.8-0.2c-0.3,0-0.5,0.1-0.7,0.2c-0.2,0.2-0.3,0.4-0.4,0.6c-0.1,0.4-0.2,0.9-0.2,1.3v3.5h-1.1L253.1,414.7
		L253.1,414.7z"/>
	<path class="st5" d="M257.5,414.7v-6.8h1v1c0.5-0.7,1.2-1.1,2.2-1.1c0.4,0,0.8,0.1,1.1,0.2c0.3,0.1,0.6,0.3,0.8,0.6
		c0.2,0.3,0.3,0.5,0.4,0.8c0,0.2,0.1,0.6,0.1,1.1v4.2H262v-4.1c0-0.5,0-0.8-0.1-1.1c-0.1-0.2-0.2-0.4-0.5-0.6
		c-0.2-0.1-0.5-0.2-0.8-0.2c-0.5,0-0.9,0.2-1.3,0.5s-0.5,0.9-0.5,1.8v3.7H257.5z"/>
	<path class="st5" d="M269.1,413.9c-0.4,0.4-0.8,0.6-1.2,0.8c-0.4,0.1-0.8,0.2-1.3,0.2c-0.7,0-1.3-0.2-1.7-0.5
		c-0.4-0.4-0.6-0.8-0.6-1.4c0-0.3,0.1-0.6,0.2-0.9s0.3-0.5,0.6-0.7c0.2-0.2,0.5-0.3,0.8-0.4c0.2-0.1,0.6-0.1,1-0.2
		c0.9-0.1,1.6-0.2,2-0.4c0-0.2,0-0.3,0-0.3c0-0.5-0.1-0.8-0.3-1c-0.3-0.3-0.7-0.4-1.3-0.4c-0.5,0-0.9,0.1-1.2,0.3
		c-0.3,0.2-0.4,0.5-0.6,1l-1.1-0.2c0.1-0.5,0.3-0.9,0.5-1.2c0.2-0.3,0.6-0.5,1-0.7s1-0.2,1.5-0.2c0.6,0,1,0.1,1.4,0.2
		s0.6,0.3,0.8,0.5c0.2,0.2,0.3,0.5,0.4,0.8c0,0.2,0.1,0.5,0.1,1.1v1.5c0,1.1,0,1.7,0.1,2c0,0.3,0.1,0.6,0.3,0.8h-1.2
		C269.3,414.5,269.2,414.2,269.1,413.9z M269.1,411.3c-0.4,0.2-1,0.3-1.9,0.4c-0.5,0.1-0.8,0.1-1,0.2s-0.3,0.2-0.5,0.4
		c-0.2,0.2-0.2,0.3-0.2,0.5c0,0.3,0.1,0.6,0.3,0.8c0.2,0.2,0.6,0.3,1,0.3s0.8-0.1,1.2-0.3c0.3-0.2,0.6-0.5,0.8-0.8
		c0.1-0.3,0.2-0.6,0.2-1.1v-0.4H269.1z"/>
	<path class="st5" d="M274.5,413.7l0.2,1c-0.3,0.1-0.6,0.1-0.9,0.1c-0.4,0-0.7-0.1-1-0.2s-0.4-0.3-0.5-0.5s-0.1-0.7-0.1-1.4v-3.9
		h-0.8v-0.9h0.8v-1.6l1.1-0.7v2.4h1.2v0.9h-1.2v4c0,0.3,0,0.5,0.1,0.6c0,0.1,0.1,0.2,0.2,0.2c0.1,0.1,0.2,0.1,0.4,0.1
		C274.1,413.7,274.3,413.7,274.5,413.7z"/>
	<path class="st5" d="M280.3,412.5l1.2,0.1c-0.2,0.7-0.5,1.2-1,1.6s-1.2,0.6-1.9,0.6c-1,0-1.8-0.3-2.4-0.9s-0.9-1.5-0.9-2.6
		s0.3-2,0.9-2.7c0.6-0.6,1.3-0.9,2.3-0.9c0.9,0,1.6,0.3,2.2,0.9s0.9,1.5,0.9,2.6c0,0.1,0,0.2,0,0.3h-5.1c0,0.7,0.3,1.3,0.6,1.7
		c0.4,0.4,0.9,0.6,1.4,0.6c0.4,0,0.8-0.1,1.1-0.3C279.9,413.4,280.1,413,280.3,412.5z M276.5,410.7h3.8c-0.1-0.6-0.2-1-0.4-1.3
		c-0.4-0.4-0.8-0.7-1.4-0.7c-0.5,0-1,0.2-1.3,0.5C276.7,409.6,276.5,410.1,276.5,410.7z"/>
	<path class="st5" d="M286.3,411.7l1.2-0.1c0.1,0.5,0.2,0.9,0.4,1.2c0.2,0.3,0.5,0.5,0.9,0.7s0.9,0.3,1.4,0.3s0.9-0.1,1.3-0.2
		s0.6-0.3,0.8-0.6c0.2-0.2,0.3-0.5,0.3-0.8s-0.1-0.5-0.3-0.8c-0.2-0.2-0.5-0.4-0.8-0.6c-0.3-0.1-0.8-0.3-1.7-0.5
		c-0.9-0.2-1.5-0.4-1.8-0.6c-0.4-0.2-0.8-0.5-1-0.9c-0.2-0.3-0.3-0.7-0.3-1.2s0.1-0.9,0.4-1.3s0.7-0.7,1.2-0.9
		c0.5-0.2,1.1-0.3,1.7-0.3c0.7,0,1.3,0.1,1.8,0.3s0.9,0.6,1.2,1c0.3,0.4,0.4,0.9,0.5,1.5l-1.2,0.1c-0.1-0.6-0.3-1-0.6-1.3
		c-0.4-0.3-0.9-0.5-1.6-0.5s-1.3,0.1-1.6,0.4c-0.3,0.3-0.5,0.6-0.5,1c0,0.3,0.1,0.6,0.4,0.8c0.2,0.2,0.9,0.4,1.9,0.7
		c1,0.2,1.7,0.4,2.1,0.6c0.5,0.3,0.9,0.6,1.2,1c0.3,0.4,0.4,0.8,0.4,1.3s-0.1,1-0.4,1.4s-0.7,0.8-1.2,1s-1.1,0.4-1.8,0.4
		c-0.8,0-1.6-0.1-2.1-0.4c-0.6-0.2-1-0.6-1.3-1.1C286.4,412.9,286.3,412.3,286.3,411.7z"/>
	<path class="st5" d="M297.8,413.7l0.2,1c-0.3,0.1-0.6,0.1-0.9,0.1c-0.4,0-0.7-0.1-1-0.2s-0.4-0.3-0.5-0.5s-0.1-0.7-0.1-1.4v-3.9
		h-0.8v-0.9h0.8v-1.6l1.1-0.7v2.4h1.2v0.9h-1.2v4c0,0.3,0,0.5,0.1,0.6c0,0.1,0.1,0.2,0.2,0.2c0.1,0.1,0.2,0.1,0.4,0.1
		C297.4,413.7,297.6,413.7,297.8,413.7z"/>
	<path class="st5" d="M298.9,414.7v-6.8h1v1c0.3-0.5,0.5-0.8,0.7-1s0.5-0.2,0.7-0.2c0.4,0,0.8,0.1,1.2,0.4l-0.4,1.1
		c-0.3-0.2-0.6-0.2-0.8-0.2c-0.3,0-0.5,0.1-0.7,0.2c-0.2,0.2-0.3,0.4-0.4,0.6c-0.1,0.4-0.2,0.9-0.2,1.3v3.5h-1.1L298.9,414.7
		L298.9,414.7z"/>
	<path class="st5" d="M307.9,412.5l1.2,0.1c-0.2,0.7-0.5,1.2-1,1.6s-1.2,0.6-1.9,0.6c-1,0-1.8-0.3-2.4-0.9s-0.9-1.5-0.9-2.6
		s0.3-2,0.9-2.7c0.6-0.6,1.3-0.9,2.3-0.9c0.9,0,1.6,0.3,2.2,0.9s0.9,1.5,0.9,2.6c0,0.1,0,0.2,0,0.3H304c0,0.7,0.3,1.3,0.6,1.7
		c0.4,0.4,0.9,0.6,1.4,0.6c0.4,0,0.8-0.1,1.1-0.3C307.5,413.4,307.7,413,307.9,412.5z M304.1,410.7h3.8c-0.1-0.6-0.2-1-0.4-1.3
		c-0.4-0.4-0.8-0.7-1.4-0.7c-0.5,0-1,0.2-1.3,0.5C304.3,409.6,304.1,410.1,304.1,410.7z"/>
	<path class="st5" d="M314.9,413.9c-0.4,0.4-0.8,0.6-1.2,0.8c-0.4,0.1-0.8,0.2-1.3,0.2c-0.7,0-1.3-0.2-1.7-0.5
		c-0.4-0.4-0.6-0.8-0.6-1.4c0-0.3,0.1-0.6,0.2-0.9s0.3-0.5,0.6-0.7c0.2-0.2,0.5-0.3,0.8-0.4c0.2-0.1,0.6-0.1,1-0.2
		c0.9-0.1,1.6-0.2,2-0.4c0-0.2,0-0.3,0-0.3c0-0.5-0.1-0.8-0.3-1c-0.3-0.3-0.7-0.4-1.3-0.4c-0.5,0-0.9,0.1-1.2,0.3
		c-0.3,0.2-0.4,0.5-0.6,1l-1.1-0.2c0.1-0.5,0.3-0.9,0.5-1.2c0.2-0.3,0.6-0.5,1-0.7s1-0.2,1.5-0.2c0.6,0,1,0.1,1.4,0.2
		s0.6,0.3,0.8,0.5c0.2,0.2,0.3,0.5,0.4,0.8c0,0.2,0.1,0.5,0.1,1.1v1.5c0,1.1,0,1.7,0.1,2c0,0.3,0.1,0.6,0.3,0.8h-1.2
		C315,414.5,315,414.2,314.9,413.9z M314.8,411.3c-0.4,0.2-1,0.3-1.9,0.4c-0.5,0.1-0.8,0.1-1,0.2s-0.3,0.2-0.5,0.4
		c-0.2,0.2-0.2,0.3-0.2,0.5c0,0.3,0.1,0.6,0.3,0.8c0.2,0.2,0.6,0.3,1,0.3s0.8-0.1,1.2-0.3c0.3-0.2,0.6-0.5,0.8-0.8
		c0.1-0.3,0.2-0.6,0.2-1.1v-0.4H314.8z"/>
	<path class="st5" d="M317.8,414.7v-6.8h1v1c0.2-0.3,0.5-0.6,0.8-0.8c0.4-0.2,0.8-0.3,1.2-0.3c0.5,0,0.9,0.1,1.2,0.3
		c0.3,0.2,0.5,0.5,0.7,0.9c0.5-0.8,1.2-1.2,2.1-1.2c0.7,0,1.2,0.2,1.6,0.6s0.5,0.9,0.5,1.7v4.7h-1.1v-4.3c0-0.5,0-0.8-0.1-1
		s-0.2-0.4-0.4-0.5c-0.2-0.1-0.4-0.2-0.7-0.2c-0.5,0-0.9,0.2-1.2,0.5c-0.3,0.3-0.5,0.8-0.5,1.5v3.9h-1.1v-4.4c0-0.5-0.1-0.9-0.3-1.1
		c-0.2-0.3-0.5-0.4-0.9-0.4c-0.3,0-0.6,0.1-0.9,0.3c-0.3,0.2-0.5,0.4-0.6,0.7s-0.2,0.8-0.2,1.4v3.5L317.8,414.7L317.8,414.7z"/>
</g>
<g>
	<path class="st5" d="M347.2,414.7l3.6-9.4h1.3l3.8,9.4h-1.4l-1.1-2.8h-3.9l-1,2.8H347.2z M349.9,410.9h3.2l-1-2.6
		c-0.3-0.8-0.5-1.4-0.7-1.9c-0.1,0.6-0.3,1.2-0.5,1.8L349.9,410.9z"/>
	<path class="st5" d="M356.8,414.7v-9.4h1.1v9.4H356.8z"/>
	<path class="st5" d="M362.3,413.7l0.2,1c-0.3,0.1-0.6,0.1-0.9,0.1c-0.4,0-0.7-0.1-1-0.2s-0.4-0.3-0.5-0.5s-0.1-0.7-0.1-1.4v-3.9
		h-0.8v-0.9h0.8v-1.7l1.1-0.7v2.4h1.2v0.9h-1.2v4c0,0.3,0,0.5,0.1,0.6c0,0.1,0.1,0.2,0.2,0.2c0.1,0.1,0.2,0.1,0.4,0.1
		C361.9,413.7,362.1,413.7,362.3,413.7z"/>
	<path class="st5" d="M368,412.5l1.2,0.1c-0.2,0.7-0.5,1.2-1,1.6s-1.2,0.6-1.9,0.6c-1,0-1.8-0.3-2.4-0.9s-0.9-1.5-0.9-2.6
		s0.3-2,0.9-2.7c0.6-0.6,1.3-0.9,2.3-0.9c0.9,0,1.6,0.3,2.2,0.9s0.9,1.5,0.9,2.6c0,0.1,0,0.2,0,0.3h-5.1c0,0.7,0.3,1.3,0.6,1.7
		c0.4,0.4,0.9,0.6,1.4,0.6c0.4,0,0.8-0.1,1.1-0.3C367.6,413.4,367.9,413,368,412.5z M364.3,410.7h3.8c-0.1-0.6-0.2-1-0.4-1.3
		c-0.4-0.4-0.8-0.7-1.4-0.7c-0.5,0-1,0.2-1.3,0.5C364.5,409.6,364.3,410.1,364.3,410.7z"/>
	<path class="st5" d="M370.6,414.7v-6.8h1v1c0.3-0.5,0.5-0.8,0.7-1s0.5-0.2,0.7-0.2c0.4,0,0.8,0.1,1.2,0.4l-0.4,1.1
		c-0.3-0.2-0.6-0.2-0.8-0.2c-0.3,0-0.5,0.1-0.7,0.2c-0.2,0.2-0.3,0.4-0.4,0.6c-0.1,0.4-0.2,0.9-0.2,1.3v3.5L370.6,414.7L370.6,414.7
		z"/>
	<path class="st5" d="M375,414.7v-6.8h1v1c0.5-0.7,1.2-1.1,2.2-1.1c0.4,0,0.8,0.1,1.1,0.2c0.3,0.1,0.6,0.3,0.8,0.6
		c0.2,0.3,0.3,0.5,0.4,0.8c0,0.2,0.1,0.6,0.1,1.1v4.2h-1.1v-4.1c0-0.5,0-0.8-0.1-1.1c-0.1-0.2-0.2-0.4-0.5-0.6
		c-0.2-0.1-0.5-0.2-0.8-0.2c-0.5,0-0.9,0.2-1.3,0.5s-0.5,0.9-0.5,1.8v3.7H375z"/>
	<path class="st5" d="M386.7,413.9c-0.4,0.4-0.8,0.6-1.2,0.8c-0.4,0.1-0.8,0.2-1.3,0.2c-0.7,0-1.3-0.2-1.7-0.5
		c-0.4-0.4-0.6-0.8-0.6-1.4c0-0.3,0.1-0.6,0.2-0.9s0.3-0.5,0.6-0.7c0.2-0.2,0.5-0.3,0.8-0.4c0.2-0.1,0.6-0.1,1-0.2
		c0.9-0.1,1.6-0.2,2-0.4c0-0.2,0-0.3,0-0.3c0-0.5-0.1-0.8-0.3-1c-0.3-0.3-0.7-0.4-1.3-0.4c-0.5,0-0.9,0.1-1.2,0.3
		c-0.3,0.2-0.4,0.5-0.6,1l-1.1-0.2c0.1-0.5,0.3-0.9,0.5-1.2c0.2-0.3,0.6-0.5,1-0.7s1-0.2,1.5-0.2c0.6,0,1,0.1,1.4,0.2
		s0.6,0.3,0.8,0.5c0.2,0.2,0.3,0.5,0.4,0.8c0,0.2,0.1,0.5,0.1,1.1v1.5c0,1.1,0,1.7,0.1,2c0,0.3,0.1,0.6,0.3,0.8h-1.2
		C386.8,414.5,386.7,414.2,386.7,413.9z M386.6,411.3c-0.4,0.2-1,0.3-1.9,0.4c-0.5,0.1-0.8,0.1-1,0.2s-0.3,0.2-0.5,0.4
		c-0.2,0.2-0.2,0.3-0.2,0.5c0,0.3,0.1,0.6,0.3,0.8c0.2,0.2,0.6,0.3,1,0.3s0.8-0.1,1.2-0.3c0.3-0.2,0.6-0.5,0.8-0.8
		c0.1-0.3,0.2-0.6,0.2-1.1v-0.4H386.6z"/>
	<path class="st5" d="M392.1,413.7l0.2,1c-0.3,0.1-0.6,0.1-0.9,0.1c-0.4,0-0.7-0.1-1-0.2s-0.4-0.3-0.5-0.5s-0.1-0.7-0.1-1.4v-3.9
		H389v-0.9h0.8v-1.7l1.1-0.7v2.4h1.2v0.9h-1.2v4c0,0.3,0,0.5,0.1,0.6c0,0.1,0.1,0.2,0.2,0.2c0.1,0.1,0.2,0.1,0.4,0.1
		C391.7,413.7,391.9,413.7,392.1,413.7z"/>
	<path class="st5" d="M397.8,412.5l1.2,0.1c-0.2,0.7-0.5,1.2-1,1.6s-1.2,0.6-1.9,0.6c-1,0-1.8-0.3-2.4-0.9s-0.9-1.5-0.9-2.6
		s0.3-2,0.9-2.7c0.6-0.6,1.3-0.9,2.3-0.9c0.9,0,1.6,0.3,2.2,0.9s0.9,1.5,0.9,2.6c0,0.1,0,0.2,0,0.3H394c0,0.7,0.3,1.3,0.6,1.7
		c0.4,0.4,0.9,0.6,1.4,0.6c0.4,0,0.8-0.1,1.1-0.3C397.4,413.4,397.7,413,397.8,412.5z M394.1,410.7h3.8c-0.1-0.6-0.2-1-0.4-1.3
		c-0.4-0.4-0.8-0.7-1.4-0.7c-0.5,0-1,0.2-1.3,0.5C394.3,409.6,394.1,410.1,394.1,410.7z"/>
	<path class="st5" d="M403.8,411.7l1.2-0.1c0.1,0.5,0.2,0.9,0.4,1.2c0.2,0.3,0.5,0.5,0.9,0.7s0.9,0.3,1.4,0.3s0.9-0.1,1.3-0.2
		s0.6-0.3,0.8-0.6c0.2-0.2,0.3-0.5,0.3-0.8s-0.1-0.5-0.3-0.8c-0.2-0.2-0.5-0.4-0.8-0.6c-0.3-0.1-0.8-0.3-1.7-0.5
		c-0.9-0.2-1.5-0.4-1.8-0.6c-0.4-0.2-0.8-0.5-1-0.9c-0.2-0.3-0.3-0.7-0.3-1.2s0.1-0.9,0.4-1.3s0.7-0.7,1.2-0.9s1.1-0.3,1.7-0.3
		c0.7,0,1.3,0.1,1.8,0.3c0.5,0.2,0.9,0.6,1.2,1c0.3,0.4,0.4,0.9,0.5,1.5l-1.2,0.1c-0.1-0.6-0.3-1-0.6-1.3c-0.4-0.3-0.9-0.5-1.6-0.5
		s-1.3,0.1-1.6,0.4c-0.3,0.3-0.5,0.6-0.5,1c0,0.3,0.1,0.6,0.4,0.8c0.2,0.2,0.9,0.4,1.9,0.7c1,0.2,1.7,0.4,2.1,0.6
		c0.5,0.3,0.9,0.6,1.2,1c0.3,0.4,0.4,0.8,0.4,1.3s-0.1,1-0.4,1.4s-0.7,0.8-1.2,1s-1.1,0.4-1.8,0.4c-0.8,0-1.6-0.1-2.1-0.4
		c-0.6-0.2-1-0.6-1.3-1.1C404,412.9,403.8,412.3,403.8,411.7z"/>
	<path class="st5" d="M415.3,413.7l0.2,1c-0.3,0.1-0.6,0.1-0.9,0.1c-0.4,0-0.7-0.1-1-0.2s-0.4-0.3-0.5-0.5s-0.1-0.7-0.1-1.4v-3.9
		h-0.8v-0.9h0.8v-1.7l1.1-0.7v2.4h1.2v0.9h-1.2v4c0,0.3,0,0.5,0.1,0.6c0,0.1,0.1,0.2,0.2,0.2c0.1,0.1,0.2,0.1,0.4,0.1
		C414.9,413.7,415.1,413.7,415.3,413.7z"/>
	<path class="st5" d="M416.4,414.7v-6.8h1v1c0.3-0.5,0.5-0.8,0.7-1s0.5-0.2,0.7-0.2c0.4,0,0.8,0.1,1.2,0.4l-0.4,1.1
		c-0.3-0.2-0.6-0.2-0.8-0.2c-0.3,0-0.5,0.1-0.7,0.2c-0.2,0.2-0.3,0.4-0.4,0.6c-0.1,0.4-0.2,0.9-0.2,1.3v3.5L416.4,414.7L416.4,414.7
		z"/>
	<path class="st5" d="M425.4,412.5l1.2,0.1c-0.2,0.7-0.5,1.2-1,1.6s-1.2,0.6-1.9,0.6c-1,0-1.8-0.3-2.4-0.9s-0.9-1.5-0.9-2.6
		s0.3-2,0.9-2.7c0.6-0.6,1.3-0.9,2.3-0.9c0.9,0,1.6,0.3,2.2,0.9s0.9,1.5,0.9,2.6c0,0.1,0,0.2,0,0.3h-5.1c0,0.7,0.3,1.3,0.6,1.7
		c0.4,0.4,0.9,0.6,1.4,0.6c0.4,0,0.8-0.1,1.1-0.3C425,413.4,425.3,413,425.4,412.5z M421.7,410.7h3.8c-0.1-0.6-0.2-1-0.4-1.3
		c-0.4-0.4-0.8-0.7-1.4-0.7c-0.5,0-1,0.2-1.3,0.5C421.9,409.6,421.7,410.1,421.7,410.7z"/>
	<path class="st5" d="M432.5,413.9c-0.4,0.4-0.8,0.6-1.2,0.8c-0.4,0.1-0.8,0.2-1.3,0.2c-0.7,0-1.3-0.2-1.7-0.5
		c-0.4-0.4-0.6-0.8-0.6-1.4c0-0.3,0.1-0.6,0.2-0.9s0.3-0.5,0.6-0.7c0.2-0.2,0.5-0.3,0.8-0.4c0.2-0.1,0.6-0.1,1-0.2
		c0.9-0.1,1.6-0.2,2-0.4c0-0.2,0-0.3,0-0.3c0-0.5-0.1-0.8-0.3-1c-0.3-0.3-0.7-0.4-1.3-0.4c-0.5,0-0.9,0.1-1.2,0.3
		c-0.3,0.2-0.4,0.5-0.6,1l-1.1-0.2c0.1-0.5,0.3-0.9,0.5-1.2c0.2-0.3,0.6-0.5,1-0.7s1-0.2,1.5-0.2c0.6,0,1,0.1,1.4,0.2
		s0.6,0.3,0.8,0.5c0.2,0.2,0.3,0.5,0.4,0.8c0,0.2,0.1,0.5,0.1,1.1v1.5c0,1.1,0,1.7,0.1,2c0,0.3,0.1,0.6,0.3,0.8h-1.2
		C432.6,414.5,432.5,414.2,432.5,413.9z M432.4,411.3c-0.4,0.2-1,0.3-1.9,0.4c-0.5,0.1-0.8,0.1-1,0.2s-0.3,0.2-0.5,0.4
		c-0.2,0.2-0.2,0.3-0.2,0.5c0,0.3,0.1,0.6,0.3,0.8c0.2,0.2,0.6,0.3,1,0.3s0.8-0.1,1.2-0.3c0.3-0.2,0.6-0.5,0.8-0.8
		c0.1-0.3,0.2-0.6,0.2-1.1v-0.4H432.4z"/>
	<path class="st5" d="M435.3,414.7v-6.8h1v1c0.2-0.3,0.5-0.6,0.8-0.8c0.4-0.2,0.8-0.3,1.2-0.3c0.5,0,0.9,0.1,1.2,0.3
		c0.3,0.2,0.5,0.5,0.7,0.9c0.5-0.8,1.2-1.2,2.1-1.2c0.7,0,1.2,0.2,1.6,0.6s0.5,0.9,0.5,1.7v4.7h-1.1v-4.3c0-0.5,0-0.8-0.1-1
		s-0.2-0.4-0.4-0.5c-0.2-0.1-0.4-0.2-0.7-0.2c-0.5,0-0.9,0.2-1.2,0.5c-0.3,0.3-0.5,0.8-0.5,1.5v3.9h-1.1v-4.4c0-0.5-0.1-0.9-0.3-1.1
		c-0.2-0.3-0.5-0.4-0.9-0.4c-0.3,0-0.6,0.1-0.9,0.3c-0.3,0.2-0.5,0.4-0.6,0.7s-0.2,0.8-0.2,1.4v3.5L435.3,414.7L435.3,414.7z"/>
</g>
<polyline class="st6" points="372,368.1 396.3,368.1 396.3,391 "/>
<line class="st6" x1="-52.7" y1="368.1" x2="350.8" y2="368.1"/>
<line class="st6" x1="284.6" y1="368.1" x2="284.6" y2="391.9"/>
<line class="st6" x1="169.7" y1="368.1" x2="169.7" y2="391.9"/>
<line class="st6" x1="70" y1="368.1" x2="70" y2="391.9"/>
<line class="st6" x1="-24" y1="368.1" x2="-24" y2="391.9"/>
<line class="st6" x1="343.4" y1="380.8" x2="363.6" y2="357.7"/>
<line class="st6" x1="351.9" y1="380.8" x2="372" y2="357.7"/>
<polyline class="st7" points="-17.5,232.5 -17.5,255 10.7,255 "/>
<polyline class="st7" points="10.7,209.9 -17.5,209.9 -17.5,232.5 -48.6,232.5 "/>
</svg>
