<?xml version="1.0" encoding="utf-8"?>
<!-- Generator: Adobe Illustrator 19.0.0, SVG Export Plug-In . SVG Version: 6.00 Build 0)  -->
<svg version="1.1" id="Capa_1" xmlns="http://www.w3.org/2000/svg" xmlns:xlink="http://www.w3.org/1999/xlink" x="0px" y="0px"
	 viewBox="0 0 122.5 122.5" style="enable-background:new 0 0 122.5 122.5;" xml:space="preserve">
<style type="text/css">
	.st0{fill:#065381;}
	.st1{fill:#FFFFFF;}
</style>
<g id="XMLID_10_">
	<circle id="XMLID_523_" class="st0" cx="61.2" cy="61.2" r="61.2"/>
	<g id="XMLID_11_">
		<g id="XMLID_518_">
			<path id="XMLID_522_" class="st0" d="M79,46.3v47.6c0,1.9-1.5,3.4-3.4,3.4H34c-1.9,0-3.4-1.5-3.4-3.4V39.5c0-1.9,1.5-3.4,3.4-3.4
				h34.9L79,46.3z"/>
			<path id="XMLID_519_" class="st1" d="M75.6,98.8H34c-2.7,0-4.9-2.2-4.9-4.9V39.5c0-2.7,2.2-4.9,4.9-4.9h35.5l11.1,11.1v48.2
				C80.5,96.6,78.3,98.8,75.6,98.8z M34,37.6c-1,0-1.9,0.9-1.9,1.9v54.4c0,1,0.9,1.9,1.9,1.9h41.7c1,0,1.9-0.9,1.9-1.9v-47l-9.3-9.3
				H34z"/>
		</g>
		<g id="XMLID_513_">
			<path id="XMLID_517_" class="st0" d="M85.5,40.8v47.6c0,1.9-1.5,3.4-3.4,3.4H40.4c-1.9,0-3.4-1.5-3.4-3.4V34
				c0-1.9,1.5-3.4,3.4-3.4h34.9L85.5,40.8z"/>
			<path id="XMLID_514_" class="st1" d="M82.1,93.3H40.4c-2.7,0-4.9-2.2-4.9-4.9V34c0-2.7,2.2-4.9,4.9-4.9h35.5L87,40.2v48.2
				C87,91.1,84.8,93.3,82.1,93.3z M40.4,32.1c-1,0-1.9,0.9-1.9,1.9v54.4c0,1,0.9,1.9,1.9,1.9h41.7c1,0,1.9-0.9,1.9-1.9v-47l-9.3-9.3
				H40.4z"/>
		</g>
		<g id="XMLID_508_">
			<path id="XMLID_512_" class="st0" d="M91.9,35.3v47.6c0,1.9-1.5,3.4-3.4,3.4H46.8c-1.9,0-3.4-1.5-3.4-3.4V28.5
				c0-1.9,1.5-3.4,3.4-3.4h34.9L91.9,35.3z"/>
			<path id="XMLID_509_" class="st1" d="M88.5,87.8H46.8c-2.7,0-4.9-2.2-4.9-4.9V28.5c0-2.7,2.2-4.9,4.9-4.9h35.5l11.1,11.1v48.2
				C93.4,85.6,91.2,87.8,88.5,87.8z M46.8,26.6c-1,0-1.9,0.9-1.9,1.9v54.4c0,1,0.9,1.9,1.9,1.9h41.7c1,0,1.9-0.9,1.9-1.9v-47
				l-9.3-9.3H46.8z"/>
		</g>
		<path id="XMLID_507_" class="st1" d="M91.9,35.3h-6.8c-1.9,0-3.4-1.5-3.4-3.4v-6.8L91.9,35.3z"/>
		<g id="XMLID_20_">
			<path id="XMLID_504_" class="st1" d="M51.8,34.9c0,0.9-0.3,1.5-1,1.5c-0.5,0-0.9-0.5-0.9-1.4c0-0.9,0.4-1.4,1-1.4
				C51.5,33.5,51.8,34,51.8,34.9z M50.3,35c0,0.7,0.2,1.1,0.6,1.1c0.4,0,0.6-0.4,0.6-1.2c0-0.7-0.2-1.1-0.6-1.1
				C50.5,33.8,50.3,34.2,50.3,35z"/>
			<path id="XMLID_502_" class="st1" d="M53,33.9L53,33.9l-0.5,0.3l-0.1-0.3l0.6-0.3h0.3v2.8H53V33.9z"/>
			<path id="XMLID_499_" class="st1" d="M56.2,34.9c0,0.9-0.3,1.5-1,1.5c-0.5,0-0.9-0.5-0.9-1.4c0-0.9,0.4-1.4,1-1.4
				C55.8,33.5,56.2,34,56.2,34.9z M54.7,35c0,0.7,0.2,1.1,0.6,1.1c0.4,0,0.6-0.4,0.6-1.2c0-0.7-0.2-1.1-0.6-1.1
				C54.9,33.8,54.7,34.2,54.7,35z"/>
			<path id="XMLID_496_" class="st1" d="M58.3,34.9c0,0.9-0.3,1.5-1,1.5c-0.5,0-0.9-0.5-0.9-1.4c0-0.9,0.4-1.4,1-1.4
				C58,33.5,58.3,34,58.3,34.9z M56.8,35c0,0.7,0.2,1.1,0.6,1.1c0.4,0,0.6-0.4,0.6-1.2c0-0.7-0.2-1.1-0.6-1.1
				C57.1,33.8,56.8,34.2,56.8,35z"/>
			<path id="XMLID_493_" class="st1" d="M60.5,34.9c0,0.9-0.3,1.5-1,1.5c-0.5,0-0.9-0.5-0.9-1.4c0-0.9,0.4-1.4,1-1.4
				C60.2,33.5,60.5,34,60.5,34.9z M59,35c0,0.7,0.2,1.1,0.6,1.1c0.4,0,0.6-0.4,0.6-1.2c0-0.7-0.2-1.1-0.6-1.1
				C59.3,33.8,59,34.2,59,35z"/>
			<path id="XMLID_491_" class="st1" d="M61.7,33.9L61.7,33.9l-0.5,0.3l-0.1-0.3l0.6-0.3H62v2.8h-0.4V33.9z"/>
			<path id="XMLID_489_" class="st1" d="M63.9,33.9L63.9,33.9l-0.5,0.3l-0.1-0.3l0.6-0.3h0.3v2.8h-0.4V33.9z"/>
			<path id="XMLID_487_" class="st1" d="M66,33.9L66,33.9l-0.5,0.3l-0.1-0.3l0.6-0.3h0.3v2.8H66V33.9z"/>
			<path id="XMLID_484_" class="st1" d="M70.1,34.9c0,0.9-0.3,1.5-1,1.5c-0.5,0-0.9-0.5-0.9-1.4c0-0.9,0.4-1.4,1-1.4
				C69.8,33.5,70.1,34,70.1,34.9z M68.6,35c0,0.7,0.2,1.1,0.6,1.1c0.4,0,0.6-0.4,0.6-1.2c0-0.7-0.2-1.1-0.6-1.1
				C68.9,33.8,68.6,34.2,68.6,35z"/>
			<path id="XMLID_482_" class="st1" d="M71.3,33.9L71.3,33.9l-0.5,0.3l-0.1-0.3l0.6-0.3h0.3v2.8h-0.4V33.9z"/>
			<path id="XMLID_480_" class="st1" d="M73.5,33.9L73.5,33.9L73,34.2l-0.1-0.3l0.6-0.3h0.3v2.8h-0.4V33.9z"/>
			<path id="XMLID_477_" class="st1" d="M76.7,34.9c0,0.9-0.3,1.5-1,1.5c-0.5,0-0.9-0.5-0.9-1.4c0-0.9,0.4-1.4,1-1.4
				C76.4,33.5,76.7,34,76.7,34.9z M75.2,35c0,0.7,0.2,1.1,0.6,1.1c0.4,0,0.6-0.4,0.6-1.2c0-0.7-0.2-1.1-0.6-1.1
				C75.4,33.8,75.2,34.2,75.2,35z"/>
			<path id="XMLID_474_" class="st1" d="M78.9,34.9c0,0.9-0.3,1.5-1,1.5c-0.5,0-0.9-0.5-0.9-1.4c0-0.9,0.4-1.4,1-1.4
				C78.5,33.5,78.9,34,78.9,34.9z M77.4,35c0,0.7,0.2,1.1,0.6,1.1c0.4,0,0.6-0.4,0.6-1.2c0-0.7-0.2-1.1-0.6-1.1
				C77.6,33.8,77.4,34.2,77.4,35z"/>
			<path id="XMLID_472_" class="st1" d="M80,33.9L80,33.9l-0.5,0.3l-0.1-0.3l0.6-0.3h0.3v2.8H80V33.9z"/>
			<path id="XMLID_469_" class="st1" d="M83.2,34.9c0,0.9-0.3,1.5-1,1.5c-0.5,0-0.9-0.5-0.9-1.4c0-0.9,0.4-1.4,1-1.4
				C82.9,33.5,83.2,34,83.2,34.9z M81.7,35c0,0.7,0.2,1.1,0.6,1.1c0.4,0,0.6-0.4,0.6-1.2c0-0.7-0.2-1.1-0.6-1.1
				C82,33.8,81.7,34.2,81.7,35z"/>
			<path id="XMLID_467_" class="st1" d="M84.4,33.9L84.4,33.9l-0.5,0.3l-0.1-0.3l0.6-0.3h0.3v2.8h-0.4V33.9z"/>
			<path id="XMLID_464_" class="st1" d="M51.8,40c0,0.9-0.3,1.5-1,1.5c-0.5,0-0.9-0.5-0.9-1.4c0-0.9,0.4-1.4,1-1.4
				C51.5,38.6,51.8,39.1,51.8,40z M50.3,40.1c0,0.7,0.2,1.1,0.6,1.1c0.4,0,0.6-0.4,0.6-1.2c0-0.7-0.2-1.1-0.6-1.1
				C50.5,38.9,50.3,39.3,50.3,40.1z"/>
			<path id="XMLID_462_" class="st1" d="M53,39L53,39l-0.5,0.3L52.4,39l0.6-0.3h0.3v2.8H53V39z"/>
			<path id="XMLID_460_" class="st1" d="M55.1,39L55.1,39l-0.5,0.3L54.6,39l0.6-0.3h0.3v2.8h-0.4V39z"/>
			<path id="XMLID_458_" class="st1" d="M57.3,39L57.3,39l-0.5,0.3L56.8,39l0.6-0.3h0.3v2.8h-0.4V39z"/>
			<path id="XMLID_455_" class="st1" d="M60.5,40c0,0.9-0.3,1.5-1,1.5c-0.5,0-0.9-0.5-0.9-1.4c0-0.9,0.4-1.4,1-1.4
				C60.2,38.6,60.5,39.1,60.5,40z M59,40.1c0,0.7,0.2,1.1,0.6,1.1c0.4,0,0.6-0.4,0.6-1.2c0-0.7-0.2-1.1-0.6-1.1
				C59.3,38.9,59,39.3,59,40.1z"/>
			<path id="XMLID_452_" class="st1" d="M62.7,40c0,0.9-0.3,1.5-1,1.5c-0.5,0-0.9-0.5-0.9-1.4c0-0.9,0.4-1.4,1-1.4
				C62.4,38.6,62.7,39.1,62.7,40z M61.2,40.1c0,0.7,0.2,1.1,0.6,1.1c0.4,0,0.6-0.4,0.6-1.2c0-0.7-0.2-1.1-0.6-1.1
				C61.4,38.9,61.2,39.3,61.2,40.1z"/>
			<path id="XMLID_450_" class="st1" d="M63.9,39L63.9,39l-0.5,0.3L63.3,39l0.6-0.3h0.3v2.8h-0.4V39z"/>
			<path id="XMLID_447_" class="st1" d="M66,39L66,39l-0.5,0.3L65.5,39l0.6-0.3h0.3v2.8H66V39z"/>
			<path id="XMLID_444_" class="st1" d="M70.1,40c0,0.9-0.3,1.5-1,1.5c-0.5,0-0.9-0.5-0.9-1.4c0-0.9,0.4-1.4,1-1.4
				C69.8,38.6,70.1,39.1,70.1,40z M68.6,40.1c0,0.7,0.2,1.1,0.6,1.1c0.4,0,0.6-0.4,0.6-1.2c0-0.7-0.2-1.1-0.6-1.1
				C68.9,38.9,68.6,39.3,68.6,40.1z"/>
			<path id="XMLID_442_" class="st1" d="M71.3,39L71.3,39l-0.5,0.3L70.7,39l0.6-0.3h0.3v2.8h-0.4V39z"/>
			<path id="XMLID_440_" class="st1" d="M73.5,39L73.5,39L73,39.3L72.9,39l0.6-0.3h0.3v2.8h-0.4V39z"/>
			<path id="XMLID_438_" class="st1" d="M75.7,39L75.7,39l-0.5,0.3L75.1,39l0.6-0.3H76v2.8h-0.4V39z"/>
			<path id="XMLID_435_" class="st1" d="M78.9,40c0,0.9-0.3,1.5-1,1.5c-0.5,0-0.9-0.5-0.9-1.4c0-0.9,0.4-1.4,1-1.4
				C78.5,38.6,78.9,39.1,78.9,40z M77.4,40.1c0,0.7,0.2,1.1,0.6,1.1c0.4,0,0.6-0.4,0.6-1.2c0-0.7-0.2-1.1-0.6-1.1
				C77.6,38.9,77.4,39.3,77.4,40.1z"/>
			<path id="XMLID_433_" class="st1" d="M80,39L80,39l-0.5,0.3L79.5,39l0.6-0.3h0.3v2.8H80V39z"/>
			<path id="XMLID_430_" class="st1" d="M83.2,40c0,0.9-0.3,1.5-1,1.5c-0.5,0-0.9-0.5-0.9-1.4c0-0.9,0.4-1.4,1-1.4
				C82.9,38.6,83.2,39.1,83.2,40z M81.7,40.1c0,0.7,0.2,1.1,0.6,1.1c0.4,0,0.6-0.4,0.6-1.2c0-0.7-0.2-1.1-0.6-1.1
				C82,38.9,81.7,39.3,81.7,40.1z"/>
			<path id="XMLID_427_" class="st1" d="M85.4,40c0,0.9-0.3,1.5-1,1.5c-0.5,0-0.9-0.5-0.9-1.4c0-0.9,0.4-1.4,1-1.4
				C85.1,38.6,85.4,39.1,85.4,40z M83.9,40.1c0,0.7,0.2,1.1,0.6,1.1c0.4,0,0.6-0.4,0.6-1.2c0-0.7-0.2-1.1-0.6-1.1
				C84.2,38.9,83.9,39.3,83.9,40.1z"/>
			<path id="XMLID_424_" class="st1" d="M51.8,45.1c0,0.9-0.3,1.5-1,1.5c-0.5,0-0.9-0.5-0.9-1.4c0-0.9,0.4-1.4,1-1.4
				C51.5,43.7,51.8,44.2,51.8,45.1z M50.3,45.2c0,0.7,0.2,1.1,0.6,1.1c0.4,0,0.6-0.4,0.6-1.2c0-0.7-0.2-1.1-0.6-1.1
				C50.5,44,50.3,44.4,50.3,45.2z"/>
			<path id="XMLID_422_" class="st1" d="M53,44.1L53,44.1l-0.5,0.3l-0.1-0.3l0.6-0.3h0.3v2.8H53V44.1z"/>
			<path id="XMLID_420_" class="st1" d="M55.1,44.1L55.1,44.1l-0.5,0.3l-0.1-0.3l0.6-0.3h0.3v2.8h-0.4V44.1z"/>
			<path id="XMLID_417_" class="st1" d="M58.3,45.1c0,0.9-0.3,1.5-1,1.5c-0.5,0-0.9-0.5-0.9-1.4c0-0.9,0.4-1.4,1-1.4
				C58,43.7,58.3,44.2,58.3,45.1z M56.8,45.2c0,0.7,0.2,1.1,0.6,1.1c0.4,0,0.6-0.4,0.6-1.2c0-0.7-0.2-1.1-0.6-1.1
				C57.1,44,56.8,44.4,56.8,45.2z"/>
			<path id="XMLID_415_" class="st1" d="M59.5,44.1L59.5,44.1L59,44.4l-0.1-0.3l0.6-0.3h0.3v2.8h-0.4V44.1z"/>
			<path id="XMLID_412_" class="st1" d="M62.7,45.1c0,0.9-0.3,1.5-1,1.5c-0.5,0-0.9-0.5-0.9-1.4c0-0.9,0.4-1.4,1-1.4
				C62.4,43.7,62.7,44.2,62.7,45.1z M61.2,45.2c0,0.7,0.2,1.1,0.6,1.1c0.4,0,0.6-0.4,0.6-1.2c0-0.7-0.2-1.1-0.6-1.1
				C61.4,44,61.2,44.4,61.2,45.2z"/>
			<path id="XMLID_409_" class="st1" d="M64.9,45.1c0,0.9-0.3,1.5-1,1.5c-0.5,0-0.9-0.5-0.9-1.4c0-0.9,0.4-1.4,1-1.4
				C64.6,43.7,64.9,44.2,64.9,45.1z M63.4,45.2c0,0.7,0.2,1.1,0.6,1.1c0.4,0,0.6-0.4,0.6-1.2c0-0.7-0.2-1.1-0.6-1.1
				C63.6,44,63.4,44.4,63.4,45.2z"/>
			<path id="XMLID_407_" class="st1" d="M66,44.1L66,44.1l-0.5,0.3l-0.1-0.3l0.6-0.3h0.3v2.8H66V44.1z"/>
			<path id="XMLID_404_" class="st1" d="M70.1,45.1c0,0.9-0.3,1.5-1,1.5c-0.5,0-0.9-0.5-0.9-1.4c0-0.9,0.4-1.4,1-1.4
				C69.8,43.7,70.1,44.2,70.1,45.1z M68.6,45.2c0,0.7,0.2,1.1,0.6,1.1c0.4,0,0.6-0.4,0.6-1.2c0-0.7-0.2-1.1-0.6-1.1
				C68.9,44,68.6,44.4,68.6,45.2z"/>
			<path id="XMLID_402_" class="st1" d="M71.3,44.1L71.3,44.1l-0.5,0.3l-0.1-0.3l0.6-0.3h0.3v2.8h-0.4V44.1z"/>
			<path id="XMLID_400_" class="st1" d="M73.5,44.1L73.5,44.1L73,44.4l-0.1-0.3l0.6-0.3h0.3v2.8h-0.4V44.1z"/>
			<path id="XMLID_397_" class="st1" d="M76.7,45.1c0,0.9-0.3,1.5-1,1.5c-0.5,0-0.9-0.5-0.9-1.4c0-0.9,0.4-1.4,1-1.4
				C76.4,43.7,76.7,44.2,76.7,45.1z M75.2,45.2c0,0.7,0.2,1.1,0.6,1.1c0.4,0,0.6-0.4,0.6-1.2c0-0.7-0.2-1.1-0.6-1.1
				C75.4,44,75.2,44.4,75.2,45.2z"/>
			<path id="XMLID_395_" class="st1" d="M77.8,44.1L77.8,44.1l-0.5,0.3l-0.1-0.3l0.6-0.3h0.3v2.8h-0.4V44.1z"/>
			<path id="XMLID_393_" class="st1" d="M80,44.1L80,44.1l-0.5,0.3l-0.1-0.3l0.6-0.3h0.3v2.8H80V44.1z"/>
			<path id="XMLID_391_" class="st1" d="M82.2,44.1L82.2,44.1l-0.5,0.3l-0.1-0.3l0.6-0.3h0.3v2.8h-0.4V44.1z"/>
			<path id="XMLID_389_" class="st1" d="M84.4,44.1L84.4,44.1l-0.5,0.3l-0.1-0.3l0.6-0.3h0.3v2.8h-0.4V44.1z"/>
			<path id="XMLID_386_" class="st1" d="M51.8,50.2c0,0.9-0.3,1.5-1,1.5c-0.5,0-0.9-0.5-0.9-1.4c0-0.9,0.4-1.4,1-1.4
				C51.5,48.8,51.8,49.3,51.8,50.2z M50.3,50.3c0,0.7,0.2,1.1,0.6,1.1c0.4,0,0.6-0.4,0.6-1.2c0-0.7-0.2-1.1-0.6-1.1
				C50.5,49.1,50.3,49.5,50.3,50.3z"/>
			<path id="XMLID_384_" class="st1" d="M53,49.2L53,49.2l-0.5,0.3l-0.1-0.3l0.6-0.3h0.3v2.8H53V49.2z"/>
			<path id="XMLID_382_" class="st1" d="M55.1,49.2L55.1,49.2l-0.5,0.3l-0.1-0.3l0.6-0.3h0.3v2.8h-0.4V49.2z"/>
			<path id="XMLID_379_" class="st1" d="M58.3,50.2c0,0.9-0.3,1.5-1,1.5c-0.5,0-0.9-0.5-0.9-1.4c0-0.9,0.4-1.4,1-1.4
				C58,48.8,58.3,49.3,58.3,50.2z M56.8,50.3c0,0.7,0.2,1.1,0.6,1.1c0.4,0,0.6-0.4,0.6-1.2c0-0.7-0.2-1.1-0.6-1.1
				C57.1,49.1,56.8,49.5,56.8,50.3z"/>
			<path id="XMLID_377_" class="st1" d="M59.5,49.2L59.5,49.2L59,49.5l-0.1-0.3l0.6-0.3h0.3v2.8h-0.4V49.2z"/>
			<path id="XMLID_375_" class="st1" d="M61.7,49.2L61.7,49.2l-0.5,0.3l-0.1-0.3l0.6-0.3H62v2.8h-0.4V49.2z"/>
			<path id="XMLID_373_" class="st1" d="M63.9,49.2L63.9,49.2l-0.5,0.3l-0.1-0.3l0.6-0.3h0.3v2.8h-0.4V49.2z"/>
			<path id="XMLID_370_" class="st1" d="M67.1,50.2c0,0.9-0.3,1.5-1,1.5c-0.5,0-0.9-0.5-0.9-1.4c0-0.9,0.4-1.4,1-1.4
				C66.7,48.8,67.1,49.3,67.1,50.2z M65.6,50.3c0,0.7,0.2,1.1,0.6,1.1c0.4,0,0.6-0.4,0.6-1.2c0-0.7-0.2-1.1-0.6-1.1
				C65.8,49.1,65.6,49.5,65.6,50.3z"/>
			<path id="XMLID_367_" class="st1" d="M70.1,50.2c0,0.9-0.3,1.5-1,1.5c-0.5,0-0.9-0.5-0.9-1.4c0-0.9,0.4-1.4,1-1.4
				C69.8,48.8,70.1,49.3,70.1,50.2z M68.6,50.3c0,0.7,0.2,1.1,0.6,1.1c0.4,0,0.6-0.4,0.6-1.2c0-0.7-0.2-1.1-0.6-1.1
				C68.9,49.1,68.6,49.5,68.6,50.3z"/>
			<path id="XMLID_364_" class="st1" d="M72.3,50.2c0,0.9-0.3,1.5-1,1.5c-0.5,0-0.9-0.5-0.9-1.4c0-0.9,0.4-1.4,1-1.4
				C72,48.8,72.3,49.3,72.3,50.2z M70.8,50.3c0,0.7,0.2,1.1,0.6,1.1c0.4,0,0.6-0.4,0.6-1.2c0-0.7-0.2-1.1-0.6-1.1
				C71.1,49.1,70.8,49.5,70.8,50.3z"/>
			<path id="XMLID_362_" class="st1" d="M73.5,49.2L73.5,49.2L73,49.5l-0.1-0.3l0.6-0.3h0.3v2.8h-0.4V49.2z"/>
			<path id="XMLID_359_" class="st1" d="M76.7,50.2c0,0.9-0.3,1.5-1,1.5c-0.5,0-0.9-0.5-0.9-1.4c0-0.9,0.4-1.4,1-1.4
				C76.4,48.8,76.7,49.3,76.7,50.2z M75.2,50.3c0,0.7,0.2,1.1,0.6,1.1c0.4,0,0.6-0.4,0.6-1.2c0-0.7-0.2-1.1-0.6-1.1
				C75.4,49.1,75.2,49.5,75.2,50.3z"/>
			<path id="XMLID_356_" class="st1" d="M78.9,50.2c0,0.9-0.3,1.5-1,1.5c-0.5,0-0.9-0.5-0.9-1.4c0-0.9,0.4-1.4,1-1.4
				C78.5,48.8,78.9,49.3,78.9,50.2z M77.4,50.3c0,0.7,0.2,1.1,0.6,1.1c0.4,0,0.6-0.4,0.6-1.2c0-0.7-0.2-1.1-0.6-1.1
				C77.6,49.1,77.4,49.5,77.4,50.3z"/>
			<path id="XMLID_353_" class="st1" d="M81.1,50.2c0,0.9-0.3,1.5-1,1.5c-0.5,0-0.9-0.5-0.9-1.4c0-0.9,0.4-1.4,1-1.4
				C80.7,48.8,81.1,49.3,81.1,50.2z M79.6,50.3c0,0.7,0.2,1.1,0.6,1.1c0.4,0,0.6-0.4,0.6-1.2c0-0.7-0.2-1.1-0.6-1.1
				C79.8,49.1,79.6,49.5,79.6,50.3z"/>
			<path id="XMLID_350_" class="st1" d="M83.2,50.2c0,0.9-0.3,1.5-1,1.5c-0.5,0-0.9-0.5-0.9-1.4c0-0.9,0.4-1.4,1-1.4
				C82.9,48.8,83.2,49.3,83.2,50.2z M81.7,50.3c0,0.7,0.2,1.1,0.6,1.1c0.4,0,0.6-0.4,0.6-1.2c0-0.7-0.2-1.1-0.6-1.1
				C82,49.1,81.7,49.5,81.7,50.3z"/>
			<path id="XMLID_347_" class="st1" d="M85.4,50.2c0,0.9-0.3,1.5-1,1.5c-0.5,0-0.9-0.5-0.9-1.4c0-0.9,0.4-1.4,1-1.4
				C85.1,48.8,85.4,49.3,85.4,50.2z M83.9,50.3c0,0.7,0.2,1.1,0.6,1.1c0.4,0,0.6-0.4,0.6-1.2c0-0.7-0.2-1.1-0.6-1.1
				C84.2,49.1,83.9,49.5,83.9,50.3z"/>
			<path id="XMLID_344_" class="st1" d="M51.8,55.3c0,0.9-0.3,1.5-1,1.5c-0.5,0-0.9-0.5-0.9-1.4c0-0.9,0.4-1.4,1-1.4
				C51.5,53.9,51.8,54.4,51.8,55.3z M50.3,55.4c0,0.7,0.2,1.1,0.6,1.1c0.4,0,0.6-0.4,0.6-1.2c0-0.7-0.2-1.1-0.6-1.1
				C50.5,54.2,50.3,54.6,50.3,55.4z"/>
			<path id="XMLID_342_" class="st1" d="M53,54.3L53,54.3l-0.5,0.3l-0.1-0.3L53,54h0.3v2.8H53V54.3z"/>
			<path id="XMLID_340_" class="st1" d="M55.1,54.3L55.1,54.3l-0.5,0.3l-0.1-0.3l0.6-0.3h0.3v2.8h-0.4V54.3z"/>
			<path id="XMLID_337_" class="st1" d="M58.3,55.3c0,0.9-0.3,1.5-1,1.5c-0.5,0-0.9-0.5-0.9-1.4c0-0.9,0.4-1.4,1-1.4
				C58,53.9,58.3,54.4,58.3,55.3z M56.8,55.4c0,0.7,0.2,1.1,0.6,1.1c0.4,0,0.6-0.4,0.6-1.2c0-0.7-0.2-1.1-0.6-1.1
				C57.1,54.2,56.8,54.6,56.8,55.4z"/>
			<path id="XMLID_334_" class="st1" d="M60.5,55.3c0,0.9-0.3,1.5-1,1.5c-0.5,0-0.9-0.5-0.9-1.4c0-0.9,0.4-1.4,1-1.4
				C60.2,53.9,60.5,54.4,60.5,55.3z M59,55.4c0,0.7,0.2,1.1,0.6,1.1c0.4,0,0.6-0.4,0.6-1.2c0-0.7-0.2-1.1-0.6-1.1
				C59.3,54.2,59,54.6,59,55.4z"/>
			<path id="XMLID_332_" class="st1" d="M61.7,54.3L61.7,54.3l-0.5,0.3l-0.1-0.3l0.6-0.3H62v2.8h-0.4V54.3z"/>
			<path id="XMLID_329_" class="st1" d="M64.9,55.3c0,0.9-0.3,1.5-1,1.5c-0.5,0-0.9-0.5-0.9-1.4c0-0.9,0.4-1.4,1-1.4
				C64.6,53.9,64.9,54.4,64.9,55.3z M63.4,55.4c0,0.7,0.2,1.1,0.6,1.1c0.4,0,0.6-0.4,0.6-1.2c0-0.7-0.2-1.1-0.6-1.1
				C63.6,54.2,63.4,54.6,63.4,55.4z"/>
			<path id="XMLID_326_" class="st1" d="M67.1,55.3c0,0.9-0.3,1.5-1,1.5c-0.5,0-0.9-0.5-0.9-1.4c0-0.9,0.4-1.4,1-1.4
				C66.7,53.9,67.1,54.4,67.1,55.3z M65.6,55.4c0,0.7,0.2,1.1,0.6,1.1c0.4,0,0.6-0.4,0.6-1.2c0-0.7-0.2-1.1-0.6-1.1
				C65.8,54.2,65.6,54.6,65.6,55.4z"/>
			<path id="XMLID_323_" class="st1" d="M70.1,55.3c0,0.9-0.3,1.5-1,1.5c-0.5,0-0.9-0.5-0.9-1.4c0-0.9,0.4-1.4,1-1.4
				C69.8,53.9,70.1,54.4,70.1,55.3z M68.6,55.4c0,0.7,0.2,1.1,0.6,1.1c0.4,0,0.6-0.4,0.6-1.2c0-0.7-0.2-1.1-0.6-1.1
				C68.9,54.2,68.6,54.6,68.6,55.4z"/>
			<path id="XMLID_321_" class="st1" d="M71.3,54.3L71.3,54.3l-0.5,0.3l-0.1-0.3l0.6-0.3h0.3v2.8h-0.4V54.3z"/>
			<path id="XMLID_319_" class="st1" d="M73.5,54.3L73.5,54.3L73,54.6l-0.1-0.3l0.6-0.3h0.3v2.8h-0.4V54.3z"/>
			<path id="XMLID_316_" class="st1" d="M76.7,55.3c0,0.9-0.3,1.5-1,1.5c-0.5,0-0.9-0.5-0.9-1.4c0-0.9,0.4-1.4,1-1.4
				C76.4,53.9,76.7,54.4,76.7,55.3z M75.2,55.4c0,0.7,0.2,1.1,0.6,1.1c0.4,0,0.6-0.4,0.6-1.2c0-0.7-0.2-1.1-0.6-1.1
				C75.4,54.2,75.2,54.6,75.2,55.4z"/>
			<path id="XMLID_313_" class="st1" d="M78.9,55.3c0,0.9-0.3,1.5-1,1.5c-0.5,0-0.9-0.5-0.9-1.4c0-0.9,0.4-1.4,1-1.4
				C78.5,53.9,78.9,54.4,78.9,55.3z M77.4,55.4c0,0.7,0.2,1.1,0.6,1.1c0.4,0,0.6-0.4,0.6-1.2c0-0.7-0.2-1.1-0.6-1.1
				C77.6,54.2,77.4,54.6,77.4,55.4z"/>
			<path id="XMLID_311_" class="st1" d="M80,54.3L80,54.3l-0.5,0.3l-0.1-0.3l0.6-0.3h0.3v2.8H80V54.3z"/>
			<path id="XMLID_308_" class="st1" d="M83.2,55.3c0,0.9-0.3,1.5-1,1.5c-0.5,0-0.9-0.5-0.9-1.4c0-0.9,0.4-1.4,1-1.4
				C82.9,53.9,83.2,54.4,83.2,55.3z M81.7,55.4c0,0.7,0.2,1.1,0.6,1.1c0.4,0,0.6-0.4,0.6-1.2c0-0.7-0.2-1.1-0.6-1.1
				C82,54.2,81.7,54.6,81.7,55.4z"/>
			<path id="XMLID_306_" class="st1" d="M84.4,54.3L84.4,54.3l-0.5,0.3l-0.1-0.3l0.6-0.3h0.3v2.8h-0.4V54.3z"/>
			<path id="XMLID_303_" class="st1" d="M51.8,60.4c0,0.9-0.3,1.5-1,1.5c-0.5,0-0.9-0.5-0.9-1.4c0-0.9,0.4-1.4,1-1.4
				C51.5,59,51.8,59.5,51.8,60.4z M50.3,60.5c0,0.7,0.2,1.1,0.6,1.1c0.4,0,0.6-0.4,0.6-1.2c0-0.7-0.2-1.1-0.6-1.1
				C50.5,59.3,50.3,59.7,50.3,60.5z"/>
			<path id="XMLID_300_" class="st1" d="M54,60.4c0,0.9-0.3,1.5-1,1.5c-0.5,0-0.9-0.5-0.9-1.4c0-0.9,0.4-1.4,1-1.4
				C53.6,59,54,59.5,54,60.4z M52.5,60.5c0,0.7,0.2,1.1,0.6,1.1c0.4,0,0.6-0.4,0.6-1.2c0-0.7-0.2-1.1-0.6-1.1
				C52.7,59.3,52.5,59.7,52.5,60.5z"/>
			<path id="XMLID_298_" class="st1" d="M55.1,59.4L55.1,59.4l-0.5,0.3l-0.1-0.3l0.6-0.3h0.3v2.8h-0.4V59.4z"/>
			<path id="XMLID_295_" class="st1" d="M58.3,60.4c0,0.9-0.3,1.5-1,1.5c-0.5,0-0.9-0.5-0.9-1.4c0-0.9,0.4-1.4,1-1.4
				C58,59,58.3,59.5,58.3,60.4z M56.8,60.5c0,0.7,0.2,1.1,0.6,1.1c0.4,0,0.6-0.4,0.6-1.2c0-0.7-0.2-1.1-0.6-1.1
				C57.1,59.3,56.8,59.7,56.8,60.5z"/>
			<path id="XMLID_292_" class="st1" d="M60.5,60.4c0,0.9-0.3,1.5-1,1.5c-0.5,0-0.9-0.5-0.9-1.4c0-0.9,0.4-1.4,1-1.4
				C60.2,59,60.5,59.5,60.5,60.4z M59,60.5c0,0.7,0.2,1.1,0.6,1.1c0.4,0,0.6-0.4,0.6-1.2c0-0.7-0.2-1.1-0.6-1.1
				C59.3,59.3,59,59.7,59,60.5z"/>
			<path id="XMLID_288_" class="st1" d="M62.7,60.4c0,0.9-0.3,1.5-1,1.5c-0.5,0-0.9-0.5-0.9-1.4c0-0.9,0.4-1.4,1-1.4
				C62.4,59,62.7,59.5,62.7,60.4z M61.2,60.5c0,0.7,0.2,1.1,0.6,1.1c0.4,0,0.6-0.4,0.6-1.2c0-0.7-0.2-1.1-0.6-1.1
				C61.4,59.3,61.2,59.7,61.2,60.5z"/>
			<path id="XMLID_285_" class="st1" d="M64.9,60.4c0,0.9-0.3,1.5-1,1.5c-0.5,0-0.9-0.5-0.9-1.4c0-0.9,0.4-1.4,1-1.4
				C64.6,59,64.9,59.5,64.9,60.4z M63.4,60.5c0,0.7,0.2,1.1,0.6,1.1c0.4,0,0.6-0.4,0.6-1.2c0-0.7-0.2-1.1-0.6-1.1
				C63.6,59.3,63.4,59.7,63.4,60.5z"/>
			<path id="XMLID_282_" class="st1" d="M67.1,60.4c0,0.9-0.3,1.5-1,1.5c-0.5,0-0.9-0.5-0.9-1.4c0-0.9,0.4-1.4,1-1.4
				C66.7,59,67.1,59.5,67.1,60.4z M65.6,60.5c0,0.7,0.2,1.1,0.6,1.1c0.4,0,0.6-0.4,0.6-1.2c0-0.7-0.2-1.1-0.6-1.1
				C65.8,59.3,65.6,59.7,65.6,60.5z"/>
			<path id="XMLID_278_" class="st1" d="M70.1,60.4c0,0.9-0.3,1.5-1,1.5c-0.5,0-0.9-0.5-0.9-1.4c0-0.9,0.4-1.4,1-1.4
				C69.8,59,70.1,59.5,70.1,60.4z M68.6,60.5c0,0.7,0.2,1.1,0.6,1.1c0.4,0,0.6-0.4,0.6-1.2c0-0.7-0.2-1.1-0.6-1.1
				C68.9,59.3,68.6,59.7,68.6,60.5z"/>
			<path id="XMLID_276_" class="st1" d="M71.3,59.4L71.3,59.4l-0.5,0.3l-0.1-0.3l0.6-0.3h0.3v2.8h-0.4V59.4z"/>
			<path id="XMLID_274_" class="st1" d="M73.5,59.4L73.5,59.4L73,59.7l-0.1-0.3l0.6-0.3h0.3v2.8h-0.4V59.4z"/>
			<path id="XMLID_271_" class="st1" d="M76.7,60.4c0,0.9-0.3,1.5-1,1.5c-0.5,0-0.9-0.5-0.9-1.4c0-0.9,0.4-1.4,1-1.4
				C76.4,59,76.7,59.5,76.7,60.4z M75.2,60.5c0,0.7,0.2,1.1,0.6,1.1c0.4,0,0.6-0.4,0.6-1.2c0-0.7-0.2-1.1-0.6-1.1
				C75.4,59.3,75.2,59.7,75.2,60.5z"/>
			<path id="XMLID_267_" class="st1" d="M78.9,60.4c0,0.9-0.3,1.5-1,1.5c-0.5,0-0.9-0.5-0.9-1.4c0-0.9,0.4-1.4,1-1.4
				C78.5,59,78.9,59.5,78.9,60.4z M77.4,60.5c0,0.7,0.2,1.1,0.6,1.1c0.4,0,0.6-0.4,0.6-1.2c0-0.7-0.2-1.1-0.6-1.1
				C77.6,59.3,77.4,59.7,77.4,60.5z"/>
			<path id="XMLID_264_" class="st1" d="M81.1,60.4c0,0.9-0.3,1.5-1,1.5c-0.5,0-0.9-0.5-0.9-1.4c0-0.9,0.4-1.4,1-1.4
				C80.7,59,81.1,59.5,81.1,60.4z M79.6,60.5c0,0.7,0.2,1.1,0.6,1.1c0.4,0,0.6-0.4,0.6-1.2c0-0.7-0.2-1.1-0.6-1.1
				C79.8,59.3,79.6,59.7,79.6,60.5z"/>
			<path id="XMLID_261_" class="st1" d="M83.2,60.4c0,0.9-0.3,1.5-1,1.5c-0.5,0-0.9-0.5-0.9-1.4c0-0.9,0.4-1.4,1-1.4
				C82.9,59,83.2,59.5,83.2,60.4z M81.7,60.5c0,0.7,0.2,1.1,0.6,1.1c0.4,0,0.6-0.4,0.6-1.2c0-0.7-0.2-1.1-0.6-1.1
				C82,59.3,81.7,59.7,81.7,60.5z"/>
			<path id="XMLID_259_" class="st1" d="M84.4,59.4L84.4,59.4l-0.5,0.3l-0.1-0.3l0.6-0.3h0.3v2.8h-0.4V59.4z"/>
			<path id="XMLID_256_" class="st1" d="M51.8,65.5c0,0.9-0.3,1.5-1,1.5c-0.5,0-0.9-0.5-0.9-1.4c0-0.9,0.4-1.4,1-1.4
				C51.5,64.1,51.8,64.6,51.8,65.5z M50.3,65.6c0,0.7,0.2,1.1,0.6,1.1c0.4,0,0.6-0.4,0.6-1.2c0-0.7-0.2-1.1-0.6-1.1
				C50.5,64.4,50.3,64.8,50.3,65.6z"/>
			<path id="XMLID_254_" class="st1" d="M53,64.5L53,64.5l-0.5,0.3l-0.1-0.3l0.6-0.3h0.3v2.8H53V64.5z"/>
			<path id="XMLID_252_" class="st1" d="M55.1,64.5L55.1,64.5l-0.5,0.3l-0.1-0.3l0.6-0.3h0.3v2.8h-0.4V64.5z"/>
			<path id="XMLID_250_" class="st1" d="M57.3,64.5L57.3,64.5l-0.5,0.3l-0.1-0.3l0.6-0.3h0.3v2.8h-0.4V64.5z"/>
			<path id="XMLID_247_" class="st1" d="M60.5,65.5c0,0.9-0.3,1.5-1,1.5c-0.5,0-0.9-0.5-0.9-1.4c0-0.9,0.4-1.4,1-1.4
				C60.2,64.1,60.5,64.6,60.5,65.5z M59,65.6c0,0.7,0.2,1.1,0.6,1.1c0.4,0,0.6-0.4,0.6-1.2c0-0.7-0.2-1.1-0.6-1.1
				C59.3,64.4,59,64.8,59,65.6z"/>
			<path id="XMLID_244_" class="st1" d="M62.7,65.5c0,0.9-0.3,1.5-1,1.5c-0.5,0-0.9-0.5-0.9-1.4c0-0.9,0.4-1.4,1-1.4
				C62.4,64.1,62.7,64.6,62.7,65.5z M61.2,65.6c0,0.7,0.2,1.1,0.6,1.1c0.4,0,0.6-0.4,0.6-1.2c0-0.7-0.2-1.1-0.6-1.1
				C61.4,64.4,61.2,64.8,61.2,65.6z"/>
			<path id="XMLID_242_" class="st1" d="M63.9,64.5L63.9,64.5l-0.5,0.3l-0.1-0.3l0.6-0.3h0.3v2.8h-0.4V64.5z"/>
			<path id="XMLID_239_" class="st1" d="M67.1,65.5c0,0.9-0.3,1.5-1,1.5c-0.5,0-0.9-0.5-0.9-1.4c0-0.9,0.4-1.4,1-1.4
				C66.7,64.1,67.1,64.6,67.1,65.5z M65.6,65.6c0,0.7,0.2,1.1,0.6,1.1c0.4,0,0.6-0.4,0.6-1.2c0-0.7-0.2-1.1-0.6-1.1
				C65.8,64.4,65.6,64.8,65.6,65.6z"/>
			<path id="XMLID_236_" class="st1" d="M70.1,65.5c0,0.9-0.3,1.5-1,1.5c-0.5,0-0.9-0.5-0.9-1.4c0-0.9,0.4-1.4,1-1.4
				C69.8,64.1,70.1,64.6,70.1,65.5z M68.6,65.6c0,0.7,0.2,1.1,0.6,1.1c0.4,0,0.6-0.4,0.6-1.2c0-0.7-0.2-1.1-0.6-1.1
				C68.9,64.4,68.6,64.8,68.6,65.6z"/>
			<path id="XMLID_234_" class="st1" d="M71.3,64.5L71.3,64.5l-0.5,0.3l-0.1-0.3l0.6-0.3h0.3v2.8h-0.4V64.5z"/>
			<path id="XMLID_232_" class="st1" d="M73.5,64.5L73.5,64.5L73,64.8l-0.1-0.3l0.6-0.3h0.3v2.8h-0.4V64.5z"/>
			<path id="XMLID_229_" class="st1" d="M76.7,65.5c0,0.9-0.3,1.5-1,1.5c-0.5,0-0.9-0.5-0.9-1.4c0-0.9,0.4-1.4,1-1.4
				C76.4,64.1,76.7,64.6,76.7,65.5z M75.2,65.6c0,0.7,0.2,1.1,0.6,1.1c0.4,0,0.6-0.4,0.6-1.2c0-0.7-0.2-1.1-0.6-1.1
				C75.4,64.4,75.2,64.8,75.2,65.6z"/>
			<path id="XMLID_226_" class="st1" d="M78.9,65.5c0,0.9-0.3,1.5-1,1.5c-0.5,0-0.9-0.5-0.9-1.4c0-0.9,0.4-1.4,1-1.4
				C78.5,64.1,78.9,64.6,78.9,65.5z M77.4,65.6c0,0.7,0.2,1.1,0.6,1.1c0.4,0,0.6-0.4,0.6-1.2c0-0.7-0.2-1.1-0.6-1.1
				C77.6,64.4,77.4,64.8,77.4,65.6z"/>
			<path id="XMLID_223_" class="st1" d="M81.1,65.5c0,0.9-0.3,1.5-1,1.5c-0.5,0-0.9-0.5-0.9-1.4c0-0.9,0.4-1.4,1-1.4
				C80.7,64.1,81.1,64.6,81.1,65.5z M79.6,65.6c0,0.7,0.2,1.1,0.6,1.1c0.4,0,0.6-0.4,0.6-1.2c0-0.7-0.2-1.1-0.6-1.1
				C79.8,64.4,79.6,64.8,79.6,65.6z"/>
			<path id="XMLID_221_" class="st1" d="M82.2,64.5L82.2,64.5l-0.5,0.3l-0.1-0.3l0.6-0.3h0.3v2.8h-0.4V64.5z"/>
			<path id="XMLID_219_" class="st1" d="M84.4,64.5L84.4,64.5l-0.5,0.3l-0.1-0.3l0.6-0.3h0.3v2.8h-0.4V64.5z"/>
			<path id="XMLID_216_" class="st1" d="M51.8,70.6c0,0.9-0.3,1.5-1,1.5c-0.5,0-0.9-0.5-0.9-1.4c0-0.9,0.4-1.4,1-1.4
				C51.5,69.2,51.8,69.7,51.8,70.6z M50.3,70.7c0,0.7,0.2,1.1,0.6,1.1c0.4,0,0.6-0.4,0.6-1.2c0-0.7-0.2-1.1-0.6-1.1
				C50.5,69.5,50.3,69.9,50.3,70.7z"/>
			<path id="XMLID_214_" class="st1" d="M53,69.6L53,69.6l-0.5,0.3l-0.1-0.3l0.6-0.3h0.3V72H53V69.6z"/>
			<path id="XMLID_212_" class="st1" d="M55.1,69.6L55.1,69.6l-0.5,0.3l-0.1-0.3l0.6-0.3h0.3V72h-0.4V69.6z"/>
			<path id="XMLID_209_" class="st1" d="M58.3,70.6c0,0.9-0.3,1.5-1,1.5c-0.5,0-0.9-0.5-0.9-1.4c0-0.9,0.4-1.4,1-1.4
				C58,69.2,58.3,69.7,58.3,70.6z M56.8,70.7c0,0.7,0.2,1.1,0.6,1.1c0.4,0,0.6-0.4,0.6-1.2c0-0.7-0.2-1.1-0.6-1.1
				C57.1,69.5,56.8,69.9,56.8,70.7z"/>
			<path id="XMLID_207_" class="st1" d="M59.5,69.6L59.5,69.6L59,69.9l-0.1-0.3l0.6-0.3h0.3V72h-0.4V69.6z"/>
			<path id="XMLID_204_" class="st1" d="M62.7,70.6c0,0.9-0.3,1.5-1,1.5c-0.5,0-0.9-0.5-0.9-1.4c0-0.9,0.4-1.4,1-1.4
				C62.4,69.2,62.7,69.7,62.7,70.6z M61.2,70.7c0,0.7,0.2,1.1,0.6,1.1c0.4,0,0.6-0.4,0.6-1.2c0-0.7-0.2-1.1-0.6-1.1
				C61.4,69.5,61.2,69.9,61.2,70.7z"/>
			<path id="XMLID_201_" class="st1" d="M64.9,70.6c0,0.9-0.3,1.5-1,1.5c-0.5,0-0.9-0.5-0.9-1.4c0-0.9,0.4-1.4,1-1.4
				C64.6,69.2,64.9,69.7,64.9,70.6z M63.4,70.7c0,0.7,0.2,1.1,0.6,1.1c0.4,0,0.6-0.4,0.6-1.2c0-0.7-0.2-1.1-0.6-1.1
				C63.6,69.5,63.4,69.9,63.4,70.7z"/>
			<path id="XMLID_198_" class="st1" d="M67.1,70.6c0,0.9-0.3,1.5-1,1.5c-0.5,0-0.9-0.5-0.9-1.4c0-0.9,0.4-1.4,1-1.4
				C66.7,69.2,67.1,69.7,67.1,70.6z M65.6,70.7c0,0.7,0.2,1.1,0.6,1.1c0.4,0,0.6-0.4,0.6-1.2c0-0.7-0.2-1.1-0.6-1.1
				C65.8,69.5,65.6,69.9,65.6,70.7z"/>
			<path id="XMLID_195_" class="st1" d="M70.1,70.6c0,0.9-0.3,1.5-1,1.5c-0.5,0-0.9-0.5-0.9-1.4c0-0.9,0.4-1.4,1-1.4
				C69.8,69.2,70.1,69.7,70.1,70.6z M68.6,70.7c0,0.7,0.2,1.1,0.6,1.1c0.4,0,0.6-0.4,0.6-1.2c0-0.7-0.2-1.1-0.6-1.1
				C68.9,69.5,68.6,69.9,68.6,70.7z"/>
			<path id="XMLID_193_" class="st1" d="M71.3,69.6L71.3,69.6l-0.5,0.3l-0.1-0.3l0.6-0.3h0.3V72h-0.4V69.6z"/>
			<path id="XMLID_191_" class="st1" d="M73.5,69.6L73.5,69.6L73,69.9l-0.1-0.3l0.6-0.3h0.3V72h-0.4V69.6z"/>
			<path id="XMLID_188_" class="st1" d="M76.7,70.6c0,0.9-0.3,1.5-1,1.5c-0.5,0-0.9-0.5-0.9-1.4c0-0.9,0.4-1.4,1-1.4
				C76.4,69.2,76.7,69.7,76.7,70.6z M75.2,70.7c0,0.7,0.2,1.1,0.6,1.1c0.4,0,0.6-0.4,0.6-1.2c0-0.7-0.2-1.1-0.6-1.1
				C75.4,69.5,75.2,69.9,75.2,70.7z"/>
			<path id="XMLID_186_" class="st1" d="M77.8,69.6L77.8,69.6l-0.5,0.3l-0.1-0.3l0.6-0.3h0.3V72h-0.4V69.6z"/>
			<path id="XMLID_183_" class="st1" d="M81.1,70.6c0,0.9-0.3,1.5-1,1.5c-0.5,0-0.9-0.5-0.9-1.4c0-0.9,0.4-1.4,1-1.4
				C80.7,69.2,81.1,69.7,81.1,70.6z M79.6,70.7c0,0.7,0.2,1.1,0.6,1.1c0.4,0,0.6-0.4,0.6-1.2c0-0.7-0.2-1.1-0.6-1.1
				C79.8,69.5,79.6,69.9,79.6,70.7z"/>
			<path id="XMLID_180_" class="st1" d="M83.2,70.6c0,0.9-0.3,1.5-1,1.5c-0.5,0-0.9-0.5-0.9-1.4c0-0.9,0.4-1.4,1-1.4
				C82.9,69.2,83.2,69.7,83.2,70.6z M81.7,70.7c0,0.7,0.2,1.1,0.6,1.1c0.4,0,0.6-0.4,0.6-1.2c0-0.7-0.2-1.1-0.6-1.1
				C82,69.5,81.7,69.9,81.7,70.7z"/>
			<path id="XMLID_178_" class="st1" d="M84.4,69.6L84.4,69.6l-0.5,0.3l-0.1-0.3l0.6-0.3h0.3V72h-0.4V69.6z"/>
			<path id="XMLID_175_" class="st1" d="M51.8,75.7c0,0.9-0.3,1.5-1,1.5c-0.5,0-0.9-0.5-0.9-1.4c0-0.9,0.4-1.4,1-1.4
				C51.5,74.3,51.8,74.8,51.8,75.7z M50.3,75.8c0,0.7,0.2,1.1,0.6,1.1c0.4,0,0.6-0.4,0.6-1.2c0-0.7-0.2-1.1-0.6-1.1
				C50.5,74.6,50.3,75,50.3,75.8z"/>
			<path id="XMLID_173_" class="st1" d="M53,74.7L53,74.7L52.5,75l-0.1-0.3l0.6-0.3h0.3v2.8H53V74.7z"/>
			<path id="XMLID_171_" class="st1" d="M55.1,74.7L55.1,74.7L54.6,75l-0.1-0.3l0.6-0.3h0.3v2.8h-0.4V74.7z"/>
			<path id="XMLID_169_" class="st1" d="M57.3,74.7L57.3,74.7L56.8,75l-0.1-0.3l0.6-0.3h0.3v2.8h-0.4V74.7z"/>
			<path id="XMLID_166_" class="st1" d="M60.5,75.7c0,0.9-0.3,1.5-1,1.5c-0.5,0-0.9-0.5-0.9-1.4c0-0.9,0.4-1.4,1-1.4
				C60.2,74.3,60.5,74.8,60.5,75.7z M59,75.8c0,0.7,0.2,1.1,0.6,1.1c0.4,0,0.6-0.4,0.6-1.2c0-0.7-0.2-1.1-0.6-1.1
				C59.3,74.6,59,75,59,75.8z"/>
			<path id="XMLID_164_" class="st1" d="M61.7,74.7L61.7,74.7L61.2,75l-0.1-0.3l0.6-0.3H62v2.8h-0.4V74.7z"/>
			<path id="XMLID_162_" class="st1" d="M63.9,74.7L63.9,74.7L63.4,75l-0.1-0.3l0.6-0.3h0.3v2.8h-0.4V74.7z"/>
			<path id="XMLID_159_" class="st1" d="M67.1,75.7c0,0.9-0.3,1.5-1,1.5c-0.5,0-0.9-0.5-0.9-1.4c0-0.9,0.4-1.4,1-1.4
				C66.7,74.3,67.1,74.8,67.1,75.7z M65.6,75.8c0,0.7,0.2,1.1,0.6,1.1c0.4,0,0.6-0.4,0.6-1.2c0-0.7-0.2-1.1-0.6-1.1
				C65.8,74.6,65.6,75,65.6,75.8z"/>
			<path id="XMLID_156_" class="st1" d="M70.1,75.7c0,0.9-0.3,1.5-1,1.5c-0.5,0-0.9-0.5-0.9-1.4c0-0.9,0.4-1.4,1-1.4
				C69.8,74.3,70.1,74.8,70.1,75.7z M68.6,75.8c0,0.7,0.2,1.1,0.6,1.1c0.4,0,0.6-0.4,0.6-1.2c0-0.7-0.2-1.1-0.6-1.1
				C68.9,74.6,68.6,75,68.6,75.8z"/>
			<path id="XMLID_154_" class="st1" d="M71.3,74.7L71.3,74.7L70.8,75l-0.1-0.3l0.6-0.3h0.3v2.8h-0.4V74.7z"/>
			<path id="XMLID_152_" class="st1" d="M73.5,74.7L73.5,74.7L73,75l-0.1-0.3l0.6-0.3h0.3v2.8h-0.4V74.7z"/>
			<path id="XMLID_149_" class="st1" d="M76.7,75.7c0,0.9-0.3,1.5-1,1.5c-0.5,0-0.9-0.5-0.9-1.4c0-0.9,0.4-1.4,1-1.4
				C76.4,74.3,76.7,74.8,76.7,75.7z M75.2,75.8c0,0.7,0.2,1.1,0.6,1.1c0.4,0,0.6-0.4,0.6-1.2c0-0.7-0.2-1.1-0.6-1.1
				C75.4,74.6,75.2,75,75.2,75.8z"/>
			<path id="XMLID_147_" class="st1" d="M77.8,74.7L77.8,74.7L77.4,75l-0.1-0.3l0.6-0.3h0.3v2.8h-0.4V74.7z"/>
			<path id="XMLID_145_" class="st1" d="M80,74.7L80,74.7L79.5,75l-0.1-0.3l0.6-0.3h0.3v2.8H80V74.7z"/>
			<path id="XMLID_143_" class="st1" d="M82.2,74.7L82.2,74.7L81.7,75l-0.1-0.3l0.6-0.3h0.3v2.8h-0.4V74.7z"/>
			<path id="XMLID_141_" class="st1" d="M84.4,74.7L84.4,74.7L83.9,75l-0.1-0.3l0.6-0.3h0.3v2.8h-0.4V74.7z"/>
			<path id="XMLID_138_" class="st1" d="M51.8,80.8c0,0.9-0.3,1.5-1,1.5c-0.5,0-0.9-0.5-0.9-1.4c0-0.9,0.4-1.4,1-1.4
				C51.5,79.4,51.8,80,51.8,80.8z M50.3,80.9c0,0.7,0.2,1.1,0.6,1.1c0.4,0,0.6-0.4,0.6-1.2c0-0.7-0.2-1.1-0.6-1.1
				C50.5,79.7,50.3,80.1,50.3,80.9z"/>
			<path id="XMLID_136_" class="st1" d="M53,79.8L53,79.8l-0.5,0.3l-0.1-0.3l0.6-0.3h0.3v2.8H53V79.8z"/>
			<path id="XMLID_134_" class="st1" d="M55.1,79.8L55.1,79.8l-0.5,0.3l-0.1-0.3l0.6-0.3h0.3v2.8h-0.4V79.8z"/>
			<path id="XMLID_132_" class="st1" d="M57.3,79.8L57.3,79.8l-0.5,0.3l-0.1-0.3l0.6-0.3h0.3v2.8h-0.4V79.8z"/>
			<path id="XMLID_129_" class="st1" d="M60.5,80.8c0,0.9-0.3,1.5-1,1.5c-0.5,0-0.9-0.5-0.9-1.4c0-0.9,0.4-1.4,1-1.4
				C60.2,79.4,60.5,80,60.5,80.8z M59,80.9c0,0.7,0.2,1.1,0.6,1.1c0.4,0,0.6-0.4,0.6-1.2c0-0.7-0.2-1.1-0.6-1.1
				C59.3,79.7,59,80.1,59,80.9z"/>
			<path id="XMLID_126_" class="st1" d="M62.7,80.8c0,0.9-0.3,1.5-1,1.5c-0.5,0-0.9-0.5-0.9-1.4c0-0.9,0.4-1.4,1-1.4
				C62.4,79.4,62.7,80,62.7,80.8z M61.2,80.9c0,0.7,0.2,1.1,0.6,1.1c0.4,0,0.6-0.4,0.6-1.2c0-0.7-0.2-1.1-0.6-1.1
				C61.4,79.7,61.2,80.1,61.2,80.9z"/>
			<path id="XMLID_124_" class="st1" d="M63.9,79.8L63.9,79.8l-0.5,0.3l-0.1-0.3l0.6-0.3h0.3v2.8h-0.4V79.8z"/>
			<path id="XMLID_122_" class="st1" d="M66,79.8L66,79.8l-0.5,0.3l-0.1-0.3l0.6-0.3h0.3v2.8H66V79.8z"/>
			<path id="XMLID_119_" class="st1" d="M70.1,80.8c0,0.9-0.3,1.5-1,1.5c-0.5,0-0.9-0.5-0.9-1.4c0-0.9,0.4-1.4,1-1.4
				C69.8,79.4,70.1,80,70.1,80.8z M68.6,80.9c0,0.7,0.2,1.1,0.6,1.1c0.4,0,0.6-0.4,0.6-1.2c0-0.7-0.2-1.1-0.6-1.1
				C68.9,79.7,68.6,80.1,68.6,80.9z"/>
			<path id="XMLID_117_" class="st1" d="M71.3,79.8L71.3,79.8l-0.5,0.3l-0.1-0.3l0.6-0.3h0.3v2.8h-0.4V79.8z"/>
			<path id="XMLID_56_" class="st1" d="M74.5,80.8c0,0.9-0.3,1.5-1,1.5c-0.5,0-0.9-0.5-0.9-1.4c0-0.9,0.4-1.4,1-1.4
				C74.2,79.4,74.5,80,74.5,80.8z M73,80.9c0,0.7,0.2,1.1,0.6,1.1c0.4,0,0.6-0.4,0.6-1.2c0-0.7-0.2-1.1-0.6-1.1
				C73.2,79.7,73,80.1,73,80.9z"/>
			<path id="XMLID_52_" class="st1" d="M76.7,80.8c0,0.9-0.3,1.5-1,1.5c-0.5,0-0.9-0.5-0.9-1.4c0-0.9,0.4-1.4,1-1.4
				C76.4,79.4,76.7,80,76.7,80.8z M75.2,80.9c0,0.7,0.2,1.1,0.6,1.1c0.4,0,0.6-0.4,0.6-1.2c0-0.7-0.2-1.1-0.6-1.1
				C75.4,79.7,75.2,80.1,75.2,80.9z"/>
			<path id="XMLID_27_" class="st1" d="M78.9,80.8c0,0.9-0.3,1.5-1,1.5c-0.5,0-0.9-0.5-0.9-1.4c0-0.9,0.4-1.4,1-1.4
				C78.5,79.4,78.9,80,78.9,80.8z M77.4,80.9c0,0.7,0.2,1.1,0.6,1.1c0.4,0,0.6-0.4,0.6-1.2c0-0.7-0.2-1.1-0.6-1.1
				C77.6,79.7,77.4,80.1,77.4,80.9z"/>
			<path id="XMLID_25_" class="st1" d="M80,79.8L80,79.8l-0.5,0.3l-0.1-0.3l0.6-0.3h0.3v2.8H80V79.8z"/>
			<path id="XMLID_23_" class="st1" d="M82.2,79.8L82.2,79.8l-0.5,0.3l-0.1-0.3l0.6-0.3h0.3v2.8h-0.4V79.8z"/>
			<path id="XMLID_21_" class="st1" d="M84.4,79.8L84.4,79.8l-0.5,0.3l-0.1-0.3l0.6-0.3h0.3v2.8h-0.4V79.8z"/>
		</g>
	</g>
</g>
<g id="XMLID_1_">
</g>
<g id="XMLID_2_">
</g>
<g id="XMLID_3_">
</g>
<g id="XMLID_4_">
</g>
<g id="XMLID_5_">
</g>
<g id="XMLID_6_">
</g>
<g id="XMLID_7_">
</g>
<g id="XMLID_8_">
</g>
<g id="XMLID_9_">
</g>
<g id="XMLID_12_">
</g>
<g id="XMLID_13_">
</g>
<g id="XMLID_14_">
</g>
<g id="XMLID_15_">
</g>
<g id="XMLID_16_">
</g>
<g id="XMLID_17_">
</g>
</svg>
