<?xml version="1.0" encoding="utf-8"?>
<!-- Generator: Adobe Illustrator 19.0.0, SVG Export Plug-In . SVG Version: 6.00 Build 0)  -->
<svg version="1.1" id="Capa_1" xmlns="http://www.w3.org/2000/svg" xmlns:xlink="http://www.w3.org/1999/xlink" x="0px" y="0px"
	 viewBox="0 0 122.5 122.5" style="enable-background:new 0 0 122.5 122.5;" xml:space="preserve">
<style type="text/css">
	.st0{fill:#C8202F;}
	.st1{fill:#FFFFFF;}
	.st2{fill:#33606E;}
	.st3{fill:none;stroke:#FFFFFF;stroke-miterlimit:10;}
</style>
<g id="XMLID_1_">
	<circle id="XMLID_2_" class="st0" cx="61.2" cy="61.2" r="61.2"/>
	<g id="XMLID_3_">
		<g id="XMLID_4_">
			<path id="XMLID_5_" class="st1" d="M30.6,69.6v5.1c0,0.9,0.7,1.6,1.6,1.6h58.1c0.9,0,1.6-0.7,1.6-1.6v-5.1H30.6z"/>
			<path id="XMLID_6_" class="st1" d="M90.3,38.2H32.2c-0.9,0-1.6,0.7-1.6,1.6v29.8h61.2V39.7C91.8,38.9,91.1,38.2,90.3,38.2z
				 M90.2,67.6H32.3V40h57.8V67.6z"/>
			<rect id="XMLID_9_" x="53.9" y="76.2" class="st1" width="14.4" height="6.2"/>
			<rect id="XMLID_10_" x="46.5" y="82.5" class="st1" width="29.4" height="1.8"/>
			<path id="XMLID_11_" class="st2" d="M64,72.6c0,0.4-0.3,0.8-0.8,0.8H59c-0.4,0-0.8-0.3-0.8-0.8l0,0c0-0.4,0.3-0.8,0.8-0.8h4.2
				C63.7,71.8,64,72.2,64,72.6L64,72.6z"/>
		</g>
		<polyline id="XMLID_12_" class="st3" points="32.9,57.5 34.7,48.6 36.6,64.6 40.3,43.2 44,55.7 45.8,53.9 49.5,57.5 51.3,41.4 
			53.2,59.3 56.9,53.9 58.7,55.7 60.6,48.6 64.2,55.7 66.1,45 71.6,61.6 73.5,54.9 79,54.9 80.8,50.8 85.4,58.6 88.2,52.3 90.1,54 
					"/>
	</g>
</g>
<g id="XMLID_13_">
</g>
<g id="XMLID_14_">
</g>
<g id="XMLID_15_">
</g>
<g id="XMLID_16_">
</g>
<g id="XMLID_17_">
</g>
<g id="XMLID_18_">
</g>
<g id="XMLID_19_">
</g>
<g id="XMLID_20_">
</g>
<g id="XMLID_21_">
</g>
<g id="XMLID_22_">
</g>
<g id="XMLID_23_">
</g>
<g id="XMLID_24_">
</g>
<g id="XMLID_25_">
</g>
<g id="XMLID_26_">
</g>
<g id="XMLID_27_">
</g>
</svg>
