<?xml version="1.0" encoding="utf-8"?>
<!-- Generator: Adobe Illustrator 19.0.0, SVG Export Plug-In . SVG Version: 6.00 Build 0)  -->
<svg version="1.1" id="Capa_1" xmlns="http://www.w3.org/2000/svg" xmlns:xlink="http://www.w3.org/1999/xlink" x="0px" y="0px"
	 viewBox="0 0 122.5 122.5" style="enable-background:new 0 0 122.5 122.5;" xml:space="preserve">
<style type="text/css">
	.st0{fill:#8B103D;}
	.st1{fill:#FFFFFF;}
</style>
<g id="XMLID_1_">
	<circle id="XMLID_2_" class="st0" cx="61.2" cy="61.2" r="61.2"/>
	<g id="XMLID_3_">
		<g id="XMLID_4_">
			<g id="XMLID_5_">
				<path id="XMLID_6_" class="st1" d="M39.3,70.9H20.8c-1.2,0-2.2-1-2.2-2.2V38.3c0-1.2,1-2.2,2.2-2.2h18.5c1.2,0,2.2,1,2.2,2.2
					v30.4C41.5,70,40.5,70.9,39.3,70.9z M20.8,38.1c-0.1,0-0.2,0.1-0.2,0.2v30.4c0,0.1,0.1,0.2,0.2,0.2h18.5c0.1,0,0.2-0.1,0.2-0.2
					V38.3c0-0.1-0.1-0.2-0.2-0.2H20.8z"/>
			</g>
			<circle id="XMLID_9_" class="st1" cx="23.2" cy="40.3" r="1.3"/>
			<circle id="XMLID_10_" class="st1" cx="26.6" cy="40.3" r="1.3"/>
			<circle id="XMLID_11_" class="st1" cx="29.9" cy="40.3" r="1.3"/>
			<circle id="XMLID_12_" class="st1" cx="30.1" cy="47.6" r="2.5"/>
			<path class="st1" d="M36.9,55.9H23.3c-0.6,0-1.1-0.5-1.1-1.1v0c0-0.6,0.5-1.1,1.1-1.1h13.6c0.6,0,1.1,0.5,1.1,1.1v0
				C38,55.4,37.5,55.9,36.9,55.9z"/>
			<path class="st1" d="M36.9,59.5H23.3c-0.6,0-1.1-0.5-1.1-1.1v0c0-0.6,0.5-1.1,1.1-1.1h13.6c0.6,0,1.1,0.5,1.1,1.1v0
				C38,59,37.5,59.5,36.9,59.5z"/>
			<path class="st1" d="M36.9,63.1H23.3c-0.6,0-1.1-0.5-1.1-1.1l0,0c0-0.6,0.5-1.1,1.1-1.1h13.6c0.6,0,1.1,0.5,1.1,1.1l0,0
				C38,62.6,37.5,63.1,36.9,63.1z"/>
			<path class="st1" d="M36.9,66.7H23.3c-0.6,0-1.1-0.5-1.1-1.1v0c0-0.6,0.5-1.1,1.1-1.1h13.6c0.6,0,1.1,0.5,1.1,1.1v0
				C38,66.2,37.5,66.7,36.9,66.7z"/>
			<g id="XMLID_13_">
				<path id="XMLID_14_" class="st1" d="M101.8,70.9H83.3c-1.2,0-2.2-1-2.2-2.2V38.3c0-1.2,1-2.2,2.2-2.2h18.5c1.2,0,2.2,1,2.2,2.2
					v30.4C103.9,70,103,70.9,101.8,70.9z M83.3,38.1c-0.1,0-0.2,0.1-0.2,0.2v30.4c0,0.1,0.1,0.2,0.2,0.2h18.5c0.1,0,0.2-0.1,0.2-0.2
					V38.3c0-0.1-0.1-0.2-0.2-0.2H83.3z"/>
			</g>
			<circle id="XMLID_17_" class="st1" cx="85.7" cy="40.3" r="1.3"/>
			<circle id="XMLID_18_" class="st1" cx="89" cy="40.3" r="1.3"/>
			<circle id="XMLID_19_" class="st1" cx="92.4" cy="40.3" r="1.3"/>
			<circle id="XMLID_20_" class="st1" cx="92.6" cy="47.6" r="2.5"/>
			<path class="st1" d="M99.3,55.9H85.7c-0.6,0-1.1-0.5-1.1-1.1v0c0-0.6,0.5-1.1,1.1-1.1h13.6c0.6,0,1.1,0.5,1.1,1.1v0
				C100.4,55.4,99.9,55.9,99.3,55.9z"/>
			<path class="st1" d="M99.3,59.5H85.7c-0.6,0-1.1-0.5-1.1-1.1v0c0-0.6,0.5-1.1,1.1-1.1h13.6c0.6,0,1.1,0.5,1.1,1.1v0
				C100.4,59,99.9,59.5,99.3,59.5z"/>
			<path class="st1" d="M99.3,63.1H85.7c-0.6,0-1.1-0.5-1.1-1.1l0,0c0-0.6,0.5-1.1,1.1-1.1h13.6c0.6,0,1.1,0.5,1.1,1.1l0,0
				C100.4,62.6,99.9,63.1,99.3,63.1z"/>
			<path class="st1" d="M99.3,66.7H85.7c-0.6,0-1.1-0.5-1.1-1.1v0c0-0.6,0.5-1.1,1.1-1.1h13.6c0.6,0,1.1,0.5,1.1,1.1v0
				C100.4,66.2,99.9,66.7,99.3,66.7z"/>
			<g id="XMLID_21_">
				<path id="XMLID_22_" class="st1" d="M72,73.4H49.4c-2.1,0-3.8-1.7-3.8-3.8V30.8c0-2.1,1.7-3.8,3.8-3.8H72c2.1,0,3.8,1.7,3.8,3.8
					v38.8C75.8,71.7,74.1,73.4,72,73.4z M49.4,29c-1,0-1.8,0.8-1.8,1.8v38.8c0,1,0.8,1.8,1.8,1.8H72c1,0,1.8-0.8,1.8-1.8V30.8
					c0-1-0.8-1.8-1.8-1.8H49.4z"/>
			</g>
			<circle id="XMLID_25_" class="st1" cx="51.4" cy="32.3" r="1.7"/>
			<circle id="XMLID_26_" class="st1" cx="55.9" cy="32.3" r="1.7"/>
			<circle id="XMLID_27_" class="st1" cx="60.5" cy="32.3" r="1.7"/>
			<circle id="XMLID_28_" class="st1" cx="60.7" cy="42.1" r="3.4"/>
			<path class="st1" d="M69.9,53.4H51.5c-0.8,0-1.5-0.7-1.5-1.5l0,0c0-0.8,0.7-1.5,1.5-1.5h18.4c0.8,0,1.5,0.7,1.5,1.5l0,0
				C71.4,52.7,70.7,53.4,69.9,53.4z"/>
			<path class="st1" d="M69.9,58.3H51.5c-0.8,0-1.5-0.7-1.5-1.5v0c0-0.8,0.7-1.5,1.5-1.5h18.4c0.8,0,1.5,0.7,1.5,1.5v0
				C71.4,57.6,70.7,58.3,69.9,58.3z"/>
			<path class="st1" d="M69.9,63.2H51.5c-0.8,0-1.5-0.7-1.5-1.5v0c0-0.8,0.7-1.5,1.5-1.5h18.4c0.8,0,1.5,0.7,1.5,1.5v0
				C71.4,62.5,70.7,63.2,69.9,63.2z"/>
			<path class="st1" d="M69.9,68H51.5c-0.8,0-1.5-0.7-1.5-1.5v0c0-0.8,0.7-1.5,1.5-1.5h18.4c0.8,0,1.5,0.7,1.5,1.5v0
				C71.4,67.4,70.7,68,69.9,68z"/>
		</g>
		<g id="XMLID_29_">
			<g id="XMLID_30_">
				<rect id="XMLID_31_" x="92.2" y="69.5" class="st1" width="1" height="19"/>
			</g>
			<g id="XMLID_32_">
				<g id="XMLID_33_">
					<path id="XMLID_34_" class="st1" d="M92.5,95.3c-2,0-3.6-1.6-3.6-3.6s1.6-3.6,3.6-3.6c2,0,3.6,1.6,3.6,3.6S94.5,95.3,92.5,95.3
						z M92.5,89.1c-1.4,0-2.6,1.2-2.6,2.6s1.2,2.6,2.6,2.6c1.4,0,2.6-1.2,2.6-2.6S93.9,89.1,92.5,89.1z"/>
				</g>
			</g>
		</g>
		<g id="XMLID_37_">
			
				<rect id="XMLID_38_" x="60.4" y="52.9" transform="matrix(6.591653e-003 1 -1 6.591653e-003 145.0082 22.3305)" class="st1" width="1.6" height="62.5"/>
		</g>
		<g id="XMLID_39_">
			<g id="XMLID_40_">
				<rect id="XMLID_41_" x="29.2" y="69.5" class="st1" width="1" height="19"/>
			</g>
			<g id="XMLID_42_">
				<g id="XMLID_43_">
					<path id="XMLID_44_" class="st1" d="M30,95.3c-2,0-3.6-1.6-3.6-3.6s1.6-3.6,3.6-3.6c2,0,3.6,1.6,3.6,3.6S32,95.3,30,95.3z
						 M30,89.1c-1.4,0-2.6,1.2-2.6,2.6s1.2,2.6,2.6,2.6c1.4,0,2.6-1.2,2.6-2.6S31.5,89.1,30,89.1z"/>
				</g>
			</g>
		</g>
		<g id="XMLID_47_">
			<g id="XMLID_48_">
				<rect id="XMLID_49_" x="60.2" y="73.5" class="st1" width="2" height="22"/>
			</g>
			<g id="XMLID_50_">
				<path id="XMLID_51_" class="st1" d="M56.6,100c0-2.7,2.2-4.9,4.9-4.9s4.9,2.2,4.9,4.9c0,2.7-2.2,4.9-4.9,4.9
					S56.6,102.7,56.6,100C56.6,97.4,56.6,102.7,56.6,100z M65.2,100c0-2.1-1.7-3.7-3.7-3.7c-2.1,0-3.7,1.7-3.7,3.7
					c0,2.1,1.7,3.7,3.7,3.7C63.5,103.8,65.2,102.1,65.2,100C65.2,98,65.2,102.1,65.2,100z"/>
			</g>
		</g>
	</g>
</g>
<g id="XMLID_54_">
</g>
<g id="XMLID_55_">
</g>
<g id="XMLID_56_">
</g>
<g id="XMLID_57_">
</g>
<g id="XMLID_58_">
</g>
<g id="XMLID_59_">
</g>
<g id="XMLID_60_">
</g>
<g id="XMLID_61_">
</g>
<g id="XMLID_62_">
</g>
<g id="XMLID_63_">
</g>
<g id="XMLID_64_">
</g>
<g id="XMLID_65_">
</g>
<g id="XMLID_66_">
</g>
<g id="XMLID_67_">
</g>
<g id="XMLID_68_">
</g>
</svg>
