<?xml version="1.0" encoding="utf-8"?>
<!-- Generator: Adobe Illustrator 19.0.0, SVG Export Plug-In . SVG Version: 6.00 Build 0)  -->
<svg version="1.1" id="Capa_1" xmlns="http://www.w3.org/2000/svg" xmlns:xlink="http://www.w3.org/1999/xlink" x="0px" y="0px"
	 viewBox="0 0 122.5 122.5" style="enable-background:new 0 0 122.5 122.5;" xml:space="preserve">
<style type="text/css">
	.st0{fill:#0B98D0;}
	.st1{fill:#FFFFFF;}
</style>
<g id="XMLID_524_">
	<circle id="XMLID_534_" class="st0" cx="61.2" cy="61.2" r="61.2"/>
	<g id="XMLID_525_">
		<g id="XMLID_531_">
			<g id="XMLID_532_">
				<path id="XMLID_533_" class="st1" d="M53.6,83.6H40.5v-4.3h13.1c0.1,0,0.1-0.1,0.1-0.1V43.3c0-0.1-0.1-0.1-0.1-0.1H40.5v-4.3
					h13.1c2.4,0,4.4,2,4.4,4.4v35.9C57.9,81.6,56,83.6,53.6,83.6z"/>
			</g>
		</g>
		<g id="XMLID_528_">
			<g id="XMLID_529_">
				<path id="XMLID_530_" class="st1" d="M79.8,83.6H66.7c-2.4,0-4.4-2-4.4-4.4V43.3c0-2.4,2-4.4,4.4-4.4h13.1v4.3H66.7
					c-0.1,0-0.1,0.1-0.1,0.1v35.9c0,0.1,0.1,0.1,0.1,0.1h13.1V83.6z"/>
			</g>
		</g>
		<polygon id="XMLID_3_" class="st1" points="48.6,61.3 27.5,47.8 27.5,53.3 16.5,53.3 16.5,68.3 27.5,68.3 27.5,74.9 		"/>
		<polygon id="XMLID_4_" class="st1" points="106.6,61.3 85.5,47.8 85.5,53.3 74.5,53.3 74.5,68.3 85.5,68.3 85.5,74.9 		"/>
	</g>
</g>
<g id="XMLID_1_">
</g>
<g id="XMLID_2_">
</g>
<g id="XMLID_5_">
</g>
<g id="XMLID_6_">
</g>
<g id="XMLID_7_">
</g>
<g id="XMLID_8_">
</g>
<g id="XMLID_9_">
</g>
<g id="XMLID_10_">
</g>
<g id="XMLID_11_">
</g>
<g id="XMLID_12_">
</g>
<g id="XMLID_13_">
</g>
<g id="XMLID_14_">
</g>
<g id="XMLID_15_">
</g>
<g id="XMLID_16_">
</g>
<g id="XMLID_17_">
</g>
</svg>
