<?xml version="1.0" encoding="utf-8"?>
<!-- Generator: Adobe Illustrator 19.0.0, SVG Export Plug-In . SVG Version: 6.00 Build 0)  -->
<svg version="1.1" id="Capa_1" xmlns="http://www.w3.org/2000/svg" xmlns:xlink="http://www.w3.org/1999/xlink" x="0px" y="0px"
	 viewBox="0 0 122.4562 122.4562" style="enable-background:new 0 0 122.4562 122.4562;" xml:space="preserve">
<style type="text/css">
	.st0{fill:#2FD183;}
	.st1{fill:#FFFFFF;}
</style>
<g id="XMLID_1_">
	<circle id="XMLID_2_" class="st0" cx="61.2281" cy="61.2281" r="61.2281"/>
	<g id="XMLID_3_">
		<path class="st1" d="M97.7702,45.3984c0,8.9201,0,17.8403,0,26.7604c-1.7981,0.009-3.5967,0.0463-5.394,0.0115
			c-0.6159-0.0119-0.7494,0.187-0.7414,0.7663c0.0316,2.2871,0.0036,4.5749,0.02,6.8623c0.003,0.4227-0.1042,0.5775-0.556,0.5768
			c-8.6221-0.0124-17.2443-0.0123-25.8664-0.0013c-0.4388,0.0006-0.5883-0.1293-0.5611-0.5677
			c0.0525-0.8469-0.1762-1.6453-0.6696-2.3224c-1.0215-1.4017-2.5675-1.8686-4.2016-1.3329
			c-1.3933,0.4567-2.3713,1.8677-2.4105,3.4813c-0.0055,0.225-0.0007,0.4502-0.0007,0.6927
			c-0.2477,0.0183-0.4008,0.0395-0.5539,0.0395c-9.2282,0.0017-18.4565-0.0017-27.6847,0.0116
			c-0.4743,0.0007-0.5919-0.1536-0.5882-0.6039c0.0191-2.2678,0.0088-4.5358,0.0084-6.8038
			c-0.0002-0.7805-0.0008-0.7787-0.7567-0.7834c-1.1725-0.0074-2.3449-0.0176-3.5174-0.0266c0-8.881,0-17.762,0-26.643
			c0.175-0.0109,0.35-0.0288,0.5251-0.0315c1.6361-0.0252,2.5142-0.9114,2.4184-2.5394c-0.0363-0.6173,0.2748-0.5946,0.6996-0.5945
			c21.9966,0.0047,43.9932,0.0043,65.9899,0.0057c0.208,0,0.4161,0.0173,0.6366,0.027c0,0.3479-0.0019,0.6378,0.0003,0.9276
			c0.0088,1.1537,0.8306,2.0656,1.98,2.1492C96.9507,45.4892,97.3621,45.4217,97.7702,45.3984z M35.1007,72.291
			c-0.131-0.0512-0.1845-0.0901-0.2381-0.0904c-1.4276-0.0069-2.8552-0.0053-4.2827-0.0163
			c-0.3755-0.0029-0.3866,0.2247-0.385,0.503c0.0062,1.0756,0.0025,2.1514,0.0024,3.227c0,0.9139,0,1.8278,0,2.7758
			c8.5816,0,17.0973,0,25.6057,0c0.6142-2.8377,2.7612-4.3171,5.0416-4.4092c2.6064-0.1054,4.4548,1.3988,5.4504,4.4063
			c7.8842,0,15.7742,0,23.6888,0c0-2.1624,0-4.2855,0-6.4444c-1.2803,0-2.5331,0-3.8482,0c0,1.6112,0,3.1661,0,4.7072
			c-0.5613,0-1.059,0-1.6138,0c0-1.3117,0.0035-2.5789-0.0011-3.8462c-0.0036-0.9807,0.1226-0.9157-0.9105-0.9177
			c-0.8729-0.0016-0.8729-0.0003-0.8733,0.8913c-0.0002,0.352-0.0006,0.7041-0.0006,1.0561c-0.0001,0.9328,0,1.8655,0,2.8119
			c-0.5885,0-1.101,0-1.6536,0c0-0.2826,0-0.5151,0-0.7475c0-1.1735,0.0105-2.3471-0.0119-3.5202
			c-0.0031-0.1628-0.1564-0.452-0.2609-0.4619c-0.5133-0.0483-1.0336-0.0219-1.611-0.0219c0,1.6601,0,3.2151,0,4.7527
			c-0.562,0-1.059,0-1.607,0c0-1.5863,0-3.125,0-4.7601c-0.3945,0-0.7417,0.0189-1.0859-0.0049
			c-0.3992-0.0276-0.5535,0.109-0.5435,0.5298c0.0255,1.0751,0.0085,2.1512,0.0085,3.2268c0,0.3421,0,0.6843,0,1.0281
			c-0.5833,0-1.0668,0-1.6216,0c0-1.1967,0.0143-2.3659-0.0037-3.5346c-0.0217-1.4132,0.2893-1.2218-1.2875-1.2507
			c-0.3772-0.0069-0.5223,0.1163-0.5095,0.5046c0.0239,0.7228,0.0067,1.4471,0.0067,2.1707c0,0.6963,0,1.3926,0,2.1029
			c-0.5858,0-1.0843,0-1.6542,0c0-1.2417,0.0089-2.4486-0.0024-3.6554c-0.0119-1.2727,0.1954-1.1029-1.1183-1.1164
			c-0.7494-0.0077-0.7498-0.0013-0.7499,0.7749c-0.0002,1.3242-0.0001,2.6483-0.0001,3.997c-0.5618,0-1.058,0-1.6209,0
			c0-0.2459,0-0.4564,0-0.667c-0.0002-1.193-0.0156-2.3863,0.0077-3.5789c0.0081-0.4149-0.1333-0.57-0.539-0.5313
			c-0.2326,0.0222-0.469,0.0035-0.7037,0.0035c-3.892-0.0001-7.7841,0.0112-11.6759-0.0129
			c-0.5531-0.0034-0.6953,0.1661-0.6789,0.695c0.0364,1.1723,0.0124,2.3466,0.0095,3.52c-0.0005,0.1874-0.019,0.3747-0.0297,0.5722
			c-0.5657,0-1.066,0-1.6346,0c0-0.2455,0.0001-0.4561,0-0.6667c-0.0004-1.2126,0.0098-2.4254-0.0142-3.6375
			c-0.0031-0.1568-0.188-0.4458-0.2802-0.4424c-0.4984,0.0185-0.9953,0.103-1.4877,0.1929
			c-0.029,0.0053-0.0172,0.2561-0.0175,0.3927c-0.0014,0.7628-0.0007,1.5255-0.0006,2.2883c0,0.6186,0,1.2371,0,1.8692
			c-0.5792,0-1.0761,0-1.6411,0c0-1.5911,0-3.1451,0-4.7702c-0.4922,0-0.9184,0.0178-1.3424-0.0052
			c-0.3942-0.0214-0.5013,0.1511-0.4953,0.5214c0.0176,1.095,0.0063,2.1904,0.0063,3.2856c0,0.3225,0,0.645,0,0.968
			c-0.5982,0-1.0965,0-1.6522,0c0-0.2501,0-0.4621,0-0.6741c0.0001-1.193,0.0126-2.3863-0.0136-3.5788
			c-0.0038-0.1728-0.1723-0.4678-0.3001-0.4886c-0.3948-0.0644-0.8068-0.0235-1.2723-0.0235c0,1.6229,0,3.1778,0,4.7565
			c-0.5737,0-1.085,0-1.6466,0c0-1.1974,0.0143-2.3482-0.0036-3.4985c-0.0227-1.4571,0.2909-1.2332-1.3257-1.2687
			c-0.3992-0.0088-0.4985,0.1546-0.494,0.5201c0.0148,1.2124,0.0069,2.4251,0.0034,3.6377
			c-0.0006,0.2056-0.0222,0.4112-0.0338,0.6129c-0.566,0-1.063,0-1.6181,0c0-1.4093-0.0178-2.7746,0.0098-4.139
			c0.0095-0.4712-0.1061-0.6484-0.6122-0.6382c-1.2261,0.0245-1.2264-0.0008-1.226,1.2566c0.0003,1.168,0.0001,2.3359,0.0001,3.5311
			c-0.5686,0-1.0655,0-1.6066,0C35.1007,75.3891,35.1007,73.8499,35.1007,72.291z M50.2665,48.3613
			c-0.0203,0.2034-0.0382,0.2995-0.0382,0.3956c-0.0015,5.3148,0.0027,10.6297-0.0098,15.9445
			c-0.001,0.4237,0.15,0.5237,0.5451,0.5207c2.0906-0.0157,4.1818-0.0269,6.272,0.0059c0.5553,0.0087,0.679-0.1726,0.6773-0.6967
			c-0.0175-5.178-0.0187-10.3561,0.0026-15.5341c0.0022-0.5418-0.186-0.6507-0.6746-0.6451
			c-1.9342,0.0221-3.8688,0.0091-5.8032,0.0091C50.9295,48.3613,50.6214,48.3613,50.2665,48.3613z M73.8531,65.2143
			c2.334,0,4.5616-0.0177,6.7885,0.0127c0.5435,0.0074,0.6933-0.1505,0.6914-0.688c-0.0183-5.1819-0.0196-10.3639,0.001-15.5457
			c0.0022-0.5435-0.1866-0.6476-0.6775-0.6419c-2.0334,0.0234-4.0675,0.03-6.1007-0.0031c-0.5694-0.0093-0.718,0.1631-0.7157,0.7224
			c0.0206,5.1427,0.0127,10.2856,0.0131,15.4284C73.8531,64.7095,73.8531,64.9198,73.8531,65.2143z M47.331,48.4101
			c-2.505,0-4.9525,0-7.4129,0c-0.0186,0.1619-0.0432,0.2765-0.0432,0.391c-0.0016,5.2967,0.0026,10.5934-0.0082,15.89
			c-0.0008,0.412,0.1331,0.5348,0.5395,0.5315c2.0716-0.0169,4.1438-0.0273,6.215,0.0053c0.5607,0.0088,0.7254-0.1412,0.723-0.7128
			c-0.0218-5.1598-0.013-10.3197-0.0131-15.4796C47.331,48.8611,47.331,48.6867,47.331,48.4101z M84.2771,48.3918
			c0,5.6282,0,11.201,0,16.7994c0.207,0.0093,0.3603,0.0221,0.5136,0.0222c2.0909,0.0012,4.1819-0.0147,6.2725,0.0118
			c0.5011,0.0063,0.6206-0.1619,0.6193-0.636c-0.0142-5.1978-0.017-10.3958,0.0034-15.5935
			c0.0021-0.5409-0.1852-0.6496-0.6767-0.6441c-2.0515,0.023-4.1035,0.009-6.1553,0.0111
			C84.664,48.3629,84.474,48.3814,84.2771,48.3918z M30.0372,65.1904c0.2183,0.0099,0.3711,0.0227,0.5238,0.0228
			c2.0924,0.0015,4.1851-0.0144,6.2771,0.0127c0.5044,0.0065,0.6195-0.1668,0.6182-0.6386
			c-0.0139-5.2017-0.0146-10.4035,0.0013-15.6052c0.0015-0.4893-0.1464-0.6359-0.6313-0.6306
			c-2.0726,0.0227-4.1456,0.0088-6.2185,0.0118c-0.1851,0.0003-0.3703,0.0263-0.5706,0.0415
			C30.0372,54.022,30.0372,59.5713,30.0372,65.1904z M71.3737,48.398c-0.2292-0.0147-0.4014-0.0351-0.5736-0.0353
			c-2.0728-0.0024-4.1457,0.0117-6.2182-0.0118c-0.4893-0.0055-0.6295,0.1484-0.628,0.6333
			c0.0154,5.2014,0.0151,10.4029,0.001,15.6044c-0.0013,0.4757,0.1237,0.6439,0.6222,0.6378
			c2.092-0.0254,4.1845-0.0101,6.2768-0.0131c0.1672-0.0002,0.3343-0.0253,0.5198-0.0403
			C71.3737,59.5669,71.3737,54.0179,71.3737,48.398z"/>
		<path class="st0" d="M35.1007,72.291c0,1.5589,0,3.0981,0,4.6707c0.5411,0,1.038,0,1.6066,0c0-1.1952,0.0002-2.3631-0.0001-3.5311
			c-0.0003-1.2574,0-1.232,1.226-1.2566c0.5061-0.0101,0.6217,0.167,0.6122,0.6382c-0.0276,1.3644-0.0098,2.7297-0.0098,4.139
			c0.5551,0,1.0521,0,1.6181,0c0.0117-0.2017,0.0332-0.4072,0.0338-0.6129c0.0035-1.2126,0.0114-2.4253-0.0034-3.6377
			c-0.0045-0.3655,0.0948-0.5289,0.494-0.5201c1.6166,0.0355,1.303-0.1885,1.3257,1.2687c0.0179,1.1503,0.0036,2.301,0.0036,3.4985
			c0.5616,0,1.0729,0,1.6466,0c0-1.5788,0-3.1336,0-4.7565c0.4655,0,0.8775-0.0409,1.2723,0.0235
			c0.1278,0.0208,0.2963,0.3158,0.3001,0.4886c0.0261,1.1925,0.0136,2.3857,0.0136,3.5788c0,0.212,0,0.424,0,0.6741
			c0.5558,0,1.054,0,1.6522,0c0-0.323,0-0.6455,0-0.968c0-1.0952,0.0113-2.1907-0.0063-3.2856
			c-0.006-0.3702,0.1012-0.5427,0.4953-0.5214c0.424,0.023,0.8502,0.0052,1.3424,0.0052c0,1.6251,0,3.1791,0,4.7702
			c0.5649,0,1.0619,0,1.6411,0c0-0.632,0-1.2506,0-1.8692c0-0.7628-0.0008-1.5255,0.0006-2.2883
			c0.0003-0.1366-0.0115-0.3874,0.0175-0.3927c0.4923-0.0899,0.9893-0.1744,1.4877-0.1929
			c0.0921-0.0034,0.2771,0.2856,0.2802,0.4424c0.024,1.2121,0.0138,2.4249,0.0142,3.6375c0.0001,0.2106,0,0.4212,0,0.6667
			c0.5685,0,1.0689,0,1.6346,0c0.0107-0.1975,0.0292-0.3848,0.0297-0.5722c0.0029-1.1735,0.0269-2.3477-0.0095-3.52
			c-0.0164-0.5289,0.1257-0.6984,0.6789-0.695c3.8919,0.0241,7.7839,0.0128,11.6759,0.0129c0.2347,0,0.4711,0.0186,0.7037-0.0035
			c0.4057-0.0387,0.5471,0.1164,0.539,0.5313c-0.0233,1.1926-0.0079,2.3859-0.0077,3.5789c0,0.2105,0,0.4211,0,0.667
			c0.5629,0,1.0591,0,1.6209,0c0-1.3487-0.0002-2.6729,0.0001-3.997c0.0001-0.7762,0.0005-0.7825,0.7499-0.7749
			c1.3137,0.0134,1.1064-0.1564,1.1183,1.1164c0.0113,1.2068,0.0024,2.4138,0.0024,3.6554c0.5698,0,1.0683,0,1.6542,0
			c0-0.7103,0-1.4066,0-2.1029c0-0.7236,0.0172-1.4478-0.0067-2.1707c-0.0128-0.3882,0.1323-0.5115,0.5095-0.5046
			c1.5768,0.0289,1.2658-0.1625,1.2875,1.2507c0.0179,1.1687,0.0037,2.3379,0.0037,3.5346c0.5548,0,1.0383,0,1.6216,0
			c0-0.3439,0-0.686,0-1.0281c0-1.0757,0.017-2.1518-0.0085-3.2268c-0.01-0.4208,0.1444-0.5574,0.5435-0.5298
			c0.3442,0.0238,0.6914,0.0049,1.0859,0.0049c0,1.6351,0,3.1737,0,4.7601c0.548,0,1.045,0,1.607,0c0-1.5375,0-3.0925,0-4.7527
			c0.5774,0,1.0977-0.0264,1.611,0.0219c0.1045,0.0098,0.2578,0.299,0.2609,0.4619c0.0224,1.173,0.012,2.3467,0.0119,3.5202
			c0,0.2324,0,0.4649,0,0.7475c0.5526,0,1.0651,0,1.6536,0c0-0.9464-0.0001-1.8792,0-2.8119c0-0.352,0.0005-0.7041,0.0006-1.0561
			c0.0005-0.8916,0.0004-0.893,0.8733-0.8913c1.0331,0.0019,0.907-0.063,0.9105,0.9177c0.0046,1.2672,0.0011,2.5345,0.0011,3.8462
			c0.5548,0,1.0525,0,1.6138,0c0-1.5411,0-3.096,0-4.7072c1.3151,0,2.5679,0,3.8482,0c0,2.1589,0,4.282,0,6.4444
			c-7.9147,0-15.8046,0-23.6888,0c-0.9956-3.0074-2.844-4.5116-5.4504-4.4063c-2.2803,0.0922-4.4273,1.5716-5.0416,4.4092
			c-8.5083,0-17.0241,0-25.6057,0c0-0.9481,0-1.862,0-2.7758c0-1.0757,0.0037-2.1514-0.0024-3.227
			c-0.0016-0.2783,0.0096-0.506,0.385-0.503c1.4275,0.011,2.8551,0.0095,4.2827,0.0163
			C34.9162,72.2009,34.9697,72.2399,35.1007,72.291z"/>
		<path class="st0" d="M50.2665,48.3613c0.3549,0,0.663,0,0.9711,0c1.9344,0,3.869,0.013,5.8032-0.0091
			c0.4886-0.0056,0.6768,0.1033,0.6746,0.6451c-0.0213,5.178-0.02,10.3561-0.0026,15.5341
			c0.0018,0.5241-0.1219,0.7054-0.6773,0.6967c-2.0902-0.0328-4.1814-0.0216-6.272-0.0059c-0.3951,0.003-0.5461-0.097-0.5451-0.5207
			c0.0125-5.3148,0.0083-10.6296,0.0098-15.9445C50.2282,48.6608,50.2462,48.5647,50.2665,48.3613z"/>
		<path class="st0" d="M73.8531,65.2143c0-0.2945,0-0.5048,0-0.7151c-0.0004-5.1428,0.0076-10.2857-0.0131-15.4284
			c-0.0022-0.5594,0.1464-0.7317,0.7157-0.7224c2.0331,0.0331,4.0673,0.0266,6.1007,0.0031
			c0.4909-0.0057,0.6797,0.0984,0.6775,0.6419c-0.0206,5.1819-0.0193,10.3638-0.001,15.5457
			c0.0019,0.5375-0.1479,0.6954-0.6914,0.688C78.4147,65.1965,76.1871,65.2143,73.8531,65.2143z"/>
		<path class="st0" d="M47.331,48.4101c0,0.2766,0,0.451,0,0.6254c0.0001,5.1599-0.0087,10.3198,0.0131,15.4796
			c0.0024,0.5716-0.1623,0.7216-0.723,0.7128c-2.0713-0.0326-4.1434-0.0222-6.215-0.0053
			c-0.4064,0.0033-0.5403-0.1194-0.5395-0.5315c0.0108-5.2967,0.0065-10.5933,0.0082-15.89c0-0.1145,0.0246-0.229,0.0432-0.391
			C42.3785,48.4101,44.8259,48.4101,47.331,48.4101z"/>
		<path class="st0" d="M84.2771,48.3918c0.197-0.0104,0.3869-0.0289,0.5769-0.0291c2.0518-0.0021,4.1037,0.0119,6.1553-0.0111
			c0.4915-0.0055,0.6788,0.1032,0.6767,0.6441c-0.0204,5.1978-0.0176,10.3957-0.0034,15.5935
			c0.0013,0.4741-0.1182,0.6423-0.6193,0.636c-2.0905-0.0264-4.1816-0.0105-6.2725-0.0118
			c-0.1533-0.0001-0.3066-0.0129-0.5136-0.0222C84.2771,59.5927,84.2771,54.0199,84.2771,48.3918z"/>
		<path class="st0" d="M30.0372,65.1904c0-5.6191,0-11.1684,0-16.7856c0.2003-0.0152,0.3855-0.0413,0.5706-0.0415
			c2.0729-0.003,4.1459,0.0109,6.2185-0.0118c0.4849-0.0053,0.6328,0.1413,0.6313,0.6306
			c-0.0158,5.2017-0.0151,10.4035-0.0013,15.6052c0.0013,0.4717-0.1139,0.6451-0.6182,0.6386
			c-2.0921-0.0271-4.1847-0.0112-6.2771-0.0127C30.4083,65.2131,30.2556,65.2003,30.0372,65.1904z"/>
		<path class="st0" d="M71.3737,48.398c0,5.6199,0,11.1689,0,16.7751c-0.1854,0.015-0.3526,0.0401-0.5198,0.0403
			c-2.0923,0.0029-4.1848-0.0123-6.2768,0.0131c-0.4985,0.006-0.6235-0.1622-0.6222-0.6378
			c0.0141-5.2014,0.0144-10.4029-0.001-15.6044c-0.0014-0.4849,0.1387-0.6388,0.628-0.6333
			c2.0725,0.0235,4.1454,0.0094,6.2182,0.0118C70.9723,48.3629,71.1445,48.3833,71.3737,48.398z"/>
	</g>
</g>
<g id="XMLID_4_">
</g>
<g id="XMLID_5_">
</g>
<g id="XMLID_6_">
</g>
<g id="XMLID_7_">
</g>
<g id="XMLID_8_">
</g>
<g id="XMLID_9_">
</g>
<g id="XMLID_10_">
</g>
<g id="XMLID_11_">
</g>
<g id="XMLID_12_">
</g>
<g id="XMLID_13_">
</g>
<g id="XMLID_14_">
</g>
<g id="XMLID_15_">
</g>
<g id="XMLID_16_">
</g>
<g id="XMLID_17_">
</g>
<g id="XMLID_18_">
</g>
</svg>
