<?xml version="1.0" encoding="utf-8"?>
<!-- Generator: Adobe Illustrator 19.0.0, SVG Export Plug-In . SVG Version: 6.00 Build 0)  -->
<svg version="1.1" id="Capa_1" xmlns="http://www.w3.org/2000/svg" xmlns:xlink="http://www.w3.org/1999/xlink" x="0px" y="0px"
	 viewBox="0 0 125.9 32.9" style="enable-background:new 0 0 125.9 32.9;" xml:space="preserve">
<style type="text/css">
	.st0{fill:none;stroke:#7C7B7C;stroke-width:3;stroke-miterlimit:10;}
	.st1{fill:none;stroke:#7C7B7C;stroke-width:3;stroke-miterlimit:10;stroke-dasharray:5,5;}
	.st2{fill:none;stroke:#7C7B7C;stroke-width:3;stroke-miterlimit:10;stroke-dasharray:4,4;}
	.st3{fill:#FFFFFF;}
	.st4{fill:#7C7B7C;}
</style>
<g id="XMLID_7_">
	<g id="XMLID_99_">
		<line id="XMLID_112_" class="st0" x1="119" y1="26.5" x2="117" y2="26.5"/>
		<line id="XMLID_111_" class="st1" x1="112" y1="26.5" x2="7" y2="26.5"/>
		<polyline id="XMLID_110_" class="st0" points="4,26.5 1.5,26.5 1.5,24 		"/>
		<line id="XMLID_109_" class="st2" x1="1.5" y1="20" x2="1.5" y2="5"/>
		<line id="XMLID_108_" class="st0" x1="1.5" y1="3" x2="1.5" y2="0"/>
		<g id="XMLID_101_">
			<g id="XMLID_103_">
				<circle id="XMLID_107_" class="st3" cx="119.5" cy="26.5" r="5.6"/>
				<path id="XMLID_104_" class="st4" d="M119.5,20.1c-3.5,0-6.4,2.9-6.4,6.4s2.9,6.4,6.4,6.4c3.5,0,6.4-2.9,6.4-6.4
					S123,20.1,119.5,20.1C115.9,20.1,123,20.1,119.5,20.1z M119.5,31.4c-2.7,0-4.9-2.2-4.9-4.9s2.2-4.9,4.9-4.9
					c2.7,0,4.9,2.2,4.9,4.9S122.2,31.4,119.5,31.4C116.8,31.4,122.2,31.4,119.5,31.4z"/>
			</g>
		</g>
	</g>
</g>
<g id="XMLID_1_">
</g>
<g id="XMLID_2_">
</g>
<g id="XMLID_3_">
</g>
<g id="XMLID_4_">
</g>
<g id="XMLID_5_">
</g>
<g id="XMLID_6_">
</g>
<g id="XMLID_8_">
</g>
<g id="XMLID_9_">
</g>
<g id="XMLID_10_">
</g>
<g id="XMLID_11_">
</g>
<g id="XMLID_12_">
</g>
<g id="XMLID_13_">
</g>
<g id="XMLID_14_">
</g>
<g id="XMLID_15_">
</g>
<g id="XMLID_16_">
</g>
<g id="XMLID_17_">
</g>
</svg>
