<?xml version="1.0" encoding="utf-8"?>
<!-- Generator: Adobe Illustrator 19.0.0, SVG Export Plug-In . SVG Version: 6.00 Build 0)  -->
<svg version="1.1" id="Capa_1" xmlns="http://www.w3.org/2000/svg" xmlns:xlink="http://www.w3.org/1999/xlink" x="0px" y="0px"
	 viewBox="-245 398.5 104.9 44.4" style="enable-background:new -245 398.5 104.9 44.4;" xml:space="preserve">
<style type="text/css">
	.st0{fill:none;stroke:#7C7B7C;stroke-width:3;stroke-miterlimit:10;}
	.st1{fill:none;stroke:#7C7B7C;stroke-width:3;stroke-miterlimit:10;stroke-dasharray:5,5;}
	.st2{fill:#FFFFFF;}
	.st3{fill:#7C7B7C;}
</style>
<g id="XMLID_1_">
	<g id="XMLID_82_">
		<line id="XMLID_93_" class="st0" x1="-146.5" y1="404.9" x2="-146.5" y2="407.9"/>
		<line id="XMLID_92_" class="st1" x1="-146.5" y1="411.9" x2="-146.5" y2="436.9"/>
		<polyline id="XMLID_91_" class="st0" points="-146.5,438.9 -146.5,441.4 -149,441.4 		"/>
		<line id="XMLID_90_" class="st1" x1="-154" y1="441.4" x2="-240" y2="441.4"/>
		<line id="XMLID_89_" class="st0" x1="-243" y1="441.4" x2="-245" y2="441.4"/>
		<g id="XMLID_83_">
			<g id="XMLID_84_">
				<circle id="XMLID_88_" class="st2" cx="-146.5" cy="404.9" r="5.6"/>
				<path id="XMLID_85_" class="st3" d="M-152.9,404.9c0,3.5,2.9,6.4,6.4,6.4s6.4-2.9,6.4-6.4s-2.9-6.4-6.4-6.4
					S-152.9,401.4-152.9,404.9S-152.9,401.4-152.9,404.9z M-141.6,404.9c0,2.7-2.2,4.9-4.9,4.9s-4.9-2.2-4.9-4.9
					c0-2.7,2.2-4.9,4.9-4.9S-141.6,402.2-141.6,404.9C-141.6,407.6-141.6,402.2-141.6,404.9z"/>
			</g>
		</g>
	</g>
</g>
<g id="XMLID_9_">
</g>
<g id="XMLID_21_">
</g>
<g id="XMLID_24_">
</g>
<g id="XMLID_34_">
</g>
<g id="XMLID_35_">
</g>
<g id="XMLID_36_">
</g>
<g id="XMLID_37_">
</g>
<g id="XMLID_38_">
</g>
<g id="XMLID_39_">
</g>
<g id="XMLID_40_">
</g>
<g id="XMLID_41_">
</g>
<g id="XMLID_42_">
</g>
<g id="XMLID_43_">
</g>
<g id="XMLID_44_">
</g>
<g id="XMLID_45_">
</g>
<g id="XMLID_46_">
</g>
</svg>
