<?xml version="1.0" encoding="utf-8"?>
<!-- Generator: Adobe Illustrator 19.0.0, SVG Export Plug-In . SVG Version: 6.00 Build 0)  -->
<svg version="1.1" id="Capa_1" xmlns="http://www.w3.org/2000/svg" xmlns:xlink="http://www.w3.org/1999/xlink" x="0px" y="0px"
	 viewBox="0 0 12.8 99" style="enable-background:new 0 0 12.8 99;" xml:space="preserve">
<style type="text/css">
	.st0{fill:none;stroke:#7C7B7C;stroke-width:3;stroke-miterlimit:10;}
	.st1{fill:none;stroke:#7C7B7C;stroke-width:3;stroke-miterlimit:10;stroke-dasharray:5,5;}
	.st2{fill:#FFFFFF;}
	.st3{fill:#7C7B7C;}
</style>
<g>
	<g id="XMLID_30_">
		<line id="XMLID_39_" class="st0" x1="6.4" y1="93" x2="6.4" y2="90"/>
		<line id="XMLID_38_" class="st1" x1="6.4" y1="85" x2="6.4" y2="5"/>
		<line id="XMLID_37_" class="st0" x1="6.4" y1="2" x2="6.4" y2="0"/>
		<g id="XMLID_31_">
			<g id="XMLID_32_">
				<circle id="XMLID_36_" class="st2" cx="6.4" cy="92.6" r="5.6"/>
				<path id="XMLID_33_" class="st3" d="M12.8,92.6c0-3.5-2.9-6.4-6.4-6.4c-3.5,0-6.4,2.9-6.4,6.4C0,96.1,2.9,99,6.4,99
					C9.9,99,12.8,96.1,12.8,92.6C12.8,89.1,12.8,96.1,12.8,92.6z M1.5,92.6c0-2.7,2.2-4.9,4.9-4.9c2.7,0,4.9,2.2,4.9,4.9
					c0,2.7-2.2,4.9-4.9,4.9C3.7,97.5,1.5,95.3,1.5,92.6C1.5,89.9,1.5,95.3,1.5,92.6z"/>
			</g>
		</g>
	</g>
</g>
<g id="XMLID_1_">
</g>
<g id="XMLID_2_">
</g>
<g id="XMLID_3_">
</g>
<g id="XMLID_4_">
</g>
<g id="XMLID_5_">
</g>
<g id="XMLID_6_">
</g>
<g id="XMLID_7_">
</g>
<g id="XMLID_8_">
</g>
<g id="XMLID_9_">
</g>
<g id="XMLID_10_">
</g>
<g id="XMLID_11_">
</g>
<g id="XMLID_12_">
</g>
<g id="XMLID_13_">
</g>
<g id="XMLID_14_">
</g>
<g id="XMLID_15_">
</g>
<g id="XMLID_16_">
</g>
</svg>
