<?xml version="1.0" encoding="utf-8"?>
<!-- Generator: Adobe Illustrator 19.0.0, SVG Export Plug-In . SVG Version: 6.00 Build 0)  -->
<svg version="1.1" id="Capa_1" xmlns="http://www.w3.org/2000/svg" xmlns:xlink="http://www.w3.org/1999/xlink" x="0px" y="0px"
	 viewBox="0 0 125.4 32.9" style="enable-background:new 0 0 125.4 32.9;" xml:space="preserve">
<style type="text/css">
	.st0{fill:none;stroke:#7C7B7C;stroke-width:3;stroke-miterlimit:10;}
	.st1{fill:none;stroke:#7C7B7C;stroke-width:3;stroke-miterlimit:10;stroke-dasharray:5,5;}
	.st2{fill:none;stroke:#7C7B7C;stroke-width:3;stroke-miterlimit:10;stroke-dasharray:4,4;}
	.st3{fill:#FFFFFF;}
	.st4{fill:#7C7B7C;}
</style>
<g id="XMLID_9_">
	<g id="XMLID_58_">
		<line id="XMLID_114_" class="st0" x1="6.4" y1="26.5" x2="8.4" y2="26.5"/>
		<line id="XMLID_68_" class="st1" x1="13.4" y1="26.5" x2="119.4" y2="26.5"/>
		<polyline id="XMLID_67_" class="st0" points="121.4,26.5 123.9,26.5 123.9,24 		"/>
		<line id="XMLID_66_" class="st2" x1="123.9" y1="20" x2="123.9" y2="5"/>
		<line id="XMLID_65_" class="st0" x1="123.9" y1="3" x2="123.9" y2="0"/>
		<g id="XMLID_59_">
			<g id="XMLID_60_">
				<circle id="XMLID_64_" class="st3" cx="6.4" cy="26.5" r="5.6"/>
				<path id="XMLID_61_" class="st4" d="M6.4,32.9c3.5,0,6.4-2.9,6.4-6.4s-2.9-6.4-6.4-6.4C2.9,20.1,0,23,0,26.5S2.9,32.9,6.4,32.9
					C9.9,32.9,2.9,32.9,6.4,32.9z M6.4,21.6c2.7,0,4.9,2.2,4.9,4.9s-2.2,4.9-4.9,4.9c-2.7,0-4.9-2.2-4.9-4.9S3.7,21.6,6.4,21.6
					C9.1,21.6,3.7,21.6,6.4,21.6z"/>
			</g>
		</g>
	</g>
</g>
<g id="XMLID_1_">
</g>
<g id="XMLID_2_">
</g>
<g id="XMLID_3_">
</g>
<g id="XMLID_4_">
</g>
<g id="XMLID_5_">
</g>
<g id="XMLID_6_">
</g>
<g id="XMLID_7_">
</g>
<g id="XMLID_8_">
</g>
<g id="XMLID_10_">
</g>
<g id="XMLID_11_">
</g>
<g id="XMLID_12_">
</g>
<g id="XMLID_13_">
</g>
<g id="XMLID_14_">
</g>
<g id="XMLID_15_">
</g>
<g id="XMLID_16_">
</g>
<g id="XMLID_17_">
</g>
</svg>
