<?xml version="1.0" encoding="utf-8"?>
<!-- Generator: Adobe Illustrator 19.0.0, SVG Export Plug-In . SVG Version: 6.00 Build 0)  -->
<svg version="1.1" id="Capa_1" xmlns="http://www.w3.org/2000/svg" xmlns:xlink="http://www.w3.org/1999/xlink" x="0px" y="0px"
	 viewBox="-245 398.5 104.4 44.4" style="enable-background:new -245 398.5 104.4 44.4;" xml:space="preserve">
<style type="text/css">
	.st0{fill:none;stroke:#7C7B7C;stroke-width:3;stroke-miterlimit:10;}
	.st1{fill:none;stroke:#7C7B7C;stroke-width:3;stroke-miterlimit:10;stroke-dasharray:5,5;}
	.st2{fill:#FFFFFF;}
	.st3{fill:#7C7B7C;}
</style>
<g id="XMLID_8_">
	<g id="XMLID_70_">
		<line id="XMLID_113_" class="st0" x1="-239.1" y1="404.9" x2="-239.1" y2="407.9"/>
		<line id="XMLID_80_" class="st1" x1="-239.1" y1="411.9" x2="-239.1" y2="436.9"/>
		<polyline id="XMLID_79_" class="st0" points="-239.1,438.9 -239.1,441.4 -236.6,441.4 		"/>
		<line id="XMLID_78_" class="st1" x1="-231.6" y1="441.4" x2="-144.6" y2="441.4"/>
		<line id="XMLID_77_" class="st0" x1="-142.6" y1="441.4" x2="-140.6" y2="441.4"/>
		<g id="XMLID_71_">
			<g id="XMLID_72_">
				<circle id="XMLID_76_" class="st2" cx="-238.6" cy="404.9" r="5.6"/>
				<path id="XMLID_73_" class="st3" d="M-245,404.9c0,3.5,2.9,6.4,6.4,6.4s6.4-2.9,6.4-6.4s-2.9-6.4-6.4-6.4S-245,401.4-245,404.9
					S-245,401.4-245,404.9z M-233.7,404.9c0,2.7-2.2,4.9-4.9,4.9c-2.7,0-4.9-2.2-4.9-4.9c0-2.7,2.2-4.9,4.9-4.9
					C-235.9,400-233.7,402.2-233.7,404.9C-233.7,407.6-233.7,402.2-233.7,404.9z"/>
			</g>
		</g>
	</g>
</g>
<g id="XMLID_9_">
</g>
<g id="XMLID_21_">
</g>
<g id="XMLID_24_">
</g>
<g id="XMLID_34_">
</g>
<g id="XMLID_35_">
</g>
<g id="XMLID_36_">
</g>
<g id="XMLID_37_">
</g>
<g id="XMLID_38_">
</g>
<g id="XMLID_39_">
</g>
<g id="XMLID_40_">
</g>
<g id="XMLID_41_">
</g>
<g id="XMLID_42_">
</g>
<g id="XMLID_43_">
</g>
<g id="XMLID_44_">
</g>
<g id="XMLID_45_">
</g>
<g id="XMLID_46_">
</g>
</svg>
