<?xml version="1.0" encoding="utf-8"?>
<!-- Generator: Adobe Illustrator 19.0.0, SVG Export Plug-In . SVG Version: 6.00 Build 0)  -->
<svg version="1.1" id="Capa_1" xmlns="http://www.w3.org/2000/svg" xmlns:xlink="http://www.w3.org/1999/xlink" x="0px" y="0px"
	 viewBox="0 0 56.7184 96.2847" style="enable-background:new 0 0 56.7184 96.2847;" xml:space="preserve">
<style type="text/css">
	.st0{fill:#1B97AE;}
	.st1{opacity:0.2;}
	.st2{fill:#231F20;}
	.st3{fill:#F8DDAA;}
	.st4{fill:#FFE8B8;}
	.st5{fill:#EACD97;}
</style>
<g id="XMLID_9_">
	<g id="XMLID_18_">
		<g id="XMLID_187_">
			<path id="XMLID_94_" class="st0" d="M54.175,73.0194c-1.5857-2.1792-10.1044-11.0992-25.8153-11.0992
				S4.13,70.8402,2.5443,73.0194C1.5751,74.3519,0.6078,82.0419,0,87.8266c6.5387,4.2864,14.1044,7.1295,22.2496,8.0873
				l5.4472,0.3538c0.2219,0.0028,0.441,0.017,0.6629,0.017c0.2219,0,0.4419-0.0142,0.6638-0.017l5.4453-0.3538
				c8.1461-0.9578,15.7099-3.8009,22.2496-8.0873C56.1115,82.0419,55.1442,74.3519,54.175,73.0194z"/>
		</g>
		<g id="XMLID_184_" class="st1">
			<path id="XMLID_85_" class="st2" d="M2.5443,73.0194C1.5751,74.3519,0.6078,82.0419,0,87.8266
				c6.5387,4.2864,14.1044,7.1295,22.2496,8.0873l5.4472,0.3538c0.2219,0.0028,0.441,0.017,0.6629,0.017l0,0V61.9202
				C12.6488,61.9202,4.13,70.8402,2.5443,73.0194z"/>
		</g>
		<g id="XMLID_181_">
			<path id="XMLID_50_" class="st3" d="M28.3597,57.9885l-6.9086-3.6824v8.2088c0,0,2.1973,8.5225,6.9086,8.5225
				c4.7122,0,6.9076-8.5225,6.9076-8.5225v-8.2088L28.3597,57.9885z"/>
		</g>
		<g id="XMLID_178_">
			<path id="XMLID_44_" class="st3" d="M28.3597,57.9885l-6.9086-3.6824v8.2088c0,0,2.1973,8.5225,6.9086,8.5225
				c4.7122,0,6.9076-8.5225,6.9076-8.5225v-8.2088L28.3597,57.9885z"/>
		</g>
		<g id="XMLID_174_">
			<path id="XMLID_29_" class="st4" d="M45.935,29.1812c0-24.4469-17.5753-22.3332-17.5753-22.3332S10.7834,4.7344,10.7834,29.1812
				c0,0-4.0285-1.1229-4.0285,3.8312c0,4.9559,4.5577,7.5335,4.5577,7.5335s9.5145,17.4425,17.0471,17.4425
				c7.5315,0,17.0471-17.4425,17.0471-17.4425s4.5576-2.5776,4.5576-7.5335C49.9644,28.0584,45.935,29.1812,45.935,29.1812z"/>
		</g>
		<g id="XMLID_169_">
			<path id="XMLID_51_" class="st3" d="M28.3597,6.8481c0,0-17.5763-2.1137-17.5763,22.3332c0,0-4.0285-1.1229-4.0285,3.8312
				c0,4.9559,4.5577,7.5335,4.5577,7.5335s9.5145,17.4425,17.0471,17.4425V6.8481z"/>
		</g>
		<g id="XMLID_95_">
			<path id="XMLID_49_" class="st2" d="M7.8986,11.8695c2.3329-6.0456,9.561-5.0668,9.561-5.0668
				C18.939,0.4015,32.9211-3.6906,43.9217,4.8329c11.0015,8.5236,5.4367,24.5114,5.4367,24.5114s-1.6054-0.6582-2.2788-0.1631
				l-1.3731,6.1773l-2.6762-9.7127c-10.8222,3.467-21.4928-6.3321-24.3967-9.288c0.0181,0.0418,0.0323,0.0778,0.0523,0.1214
				c0.1413,0.3329,0.329,0.7112,0.5253,1.119c0.1963,0.4079,0.4372,0.8251,0.6609,1.2556c0.2503,0.4115,0.496,0.8297,0.7436,1.2101
				c0.2636,0.367,0.5063,0.7169,0.7254,1.0071c0.4827,0.5463,0.8051,0.9095,0.8051,0.9095s-0.3584-0.331-0.8989-0.8279
				c-0.2485-0.2693-0.5273-0.5936-0.8336-0.9388c-0.2883-0.3585-0.5795-0.754-0.8753-1.1475
				c-0.2712-0.4087-0.5596-0.8099-0.8004-1.2025c-0.241-0.3936-0.4704-0.7587-0.6487-1.083
				c-0.0949-0.1632-0.1801-0.313-0.2532-0.4477c-0.2551,5.3371-3.8455,10.1054-3.8455,10.1054l-1.8824,8.9199l-0.1793-6.1773
				c-1.9137-0.5121-2.862,0.5263-2.862,0.5263S5.5667,17.9151,7.8986,11.8695z"/>
		</g>
		<g id="XMLID_41_">
			<polygon id="XMLID_45_" class="st5" points="28.3597,57.9885 21.4511,62.5149 21.4511,54.3109 			"/>
		</g>
	</g>
</g>
<g id="XMLID_1_">
</g>
<g id="XMLID_2_">
</g>
<g id="XMLID_3_">
</g>
<g id="XMLID_4_">
</g>
<g id="XMLID_5_">
</g>
<g id="XMLID_6_">
</g>
<g id="XMLID_7_">
</g>
<g id="XMLID_8_">
</g>
<g id="XMLID_10_">
</g>
<g id="XMLID_11_">
</g>
<g id="XMLID_12_">
</g>
<g id="XMLID_15_">
</g>
<g id="XMLID_17_">
</g>
<g id="XMLID_19_">
</g>
<g id="XMLID_20_">
</g>
</svg>
