<?xml version="1.0" encoding="utf-8"?>
<!-- Generator: Adobe Illustrator 19.0.0, SVG Export Plug-In . SVG Version: 6.00 Build 0)  -->
<svg version="1.1" id="Capa_1" xmlns="http://www.w3.org/2000/svg" xmlns:xlink="http://www.w3.org/1999/xlink" x="0px" y="0px"
	 viewBox="-353 186.5 251.8 189.5" style="enable-background:new -353 186.5 251.8 189.5;" xml:space="preserve">
<style type="text/css">
	.st0{clip-path:url(#SVGID_2_);fill:url(#XMLID_4_);}
	.st1{clip-path:url(#SVGID_4_);fill:url(#XMLID_6_);}
	.st2{clip-path:url(#SVGID_6_);fill:none;stroke:#828282;stroke-width:0.8227;stroke-miterlimit:10;}
	.st3{clip-path:url(#SVGID_8_);fill:#5E5E5F;}
	.st4{clip-path:url(#SVGID_10_);fill:url(#XMLID_15_);}
	.st5{fill:none;stroke:#828282;stroke-width:0.8227;stroke-miterlimit:10;}
	.st6{clip-path:url(#SVGID_12_);fill:url(#XMLID_16_);}
	.st7{fill:#5E5E5F;}
	.st8{fill:#061B23;}
	.st9{fill:none;}
	.st10{enable-background:new    ;}
	.st11{fill:#FFFFFF;}
</style>
<g id="XMLID_30_">
	<g>
		<g>
			<defs>
				<rect id="SVGID_1_" x="-257.3" y="342.6" width="58.9" height="25.5"/>
			</defs>
			<clipPath id="SVGID_2_">
				<use xlink:href="#SVGID_1_"  style="overflow:visible;"/>
			</clipPath>
			
				<linearGradient id="XMLID_4_" gradientUnits="userSpaceOnUse" x1="-1396.7509" y1="466.691" x2="-1394.975" y2="466.691" gradientTransform="matrix(0 -14.3594 -14.3594 0 6473.5532 -19688.4023)">
				<stop  offset="0" style="stop-color:#000000"/>
				<stop  offset="0.1327" style="stop-color:#050505"/>
				<stop  offset="0.2958" style="stop-color:#141414"/>
				<stop  offset="0.4749" style="stop-color:#2D2D2D"/>
				<stop  offset="0.6655" style="stop-color:#505050"/>
				<stop  offset="0.8629" style="stop-color:#7C7C7C"/>
				<stop  offset="1" style="stop-color:#A0A0A0"/>
			</linearGradient>
			<rect id="XMLID_31_" x="-257.3" y="342.6" class="st0" width="58.9" height="25.5"/>
		</g>
	</g>
</g>
<g id="XMLID_5_">
	<g id="XMLID_41_">
		<g>
			<g>
				<defs>
					<path id="SVGID_3_" d="M-352.6,315.2v21c0,3.5,2.8,6.4,6.4,6.4h238.3c3.5,0,6.4-2.8,6.4-6.4v-21H-352.6z"/>
				</defs>
				<clipPath id="SVGID_4_">
					<use xlink:href="#SVGID_3_"  style="overflow:visible;"/>
				</clipPath>
				
					<linearGradient id="XMLID_6_" gradientUnits="userSpaceOnUse" x1="-1401.562" y1="545.4148" x2="-1399.7853" y2="545.4148" gradientTransform="matrix(141.2693 0 0 -141.2693 197645.0938 77379.2656)">
					<stop  offset="0" style="stop-color:#FFFFFF"/>
					<stop  offset="1" style="stop-color:#D5DADC"/>
				</linearGradient>
				<rect id="XMLID_44_" x="-352.6" y="315.2" class="st1" width="251" height="27.4"/>
			</g>
		</g>
	</g>
	<g id="XMLID_33_">
		<g>
			<g>
				<defs>
					<rect id="SVGID_5_" x="-353" y="186.5" width="251.8" height="189.5"/>
				</defs>
				<clipPath id="SVGID_6_">
					<use xlink:href="#SVGID_5_"  style="overflow:visible;"/>
				</clipPath>
				<path id="XMLID_40_" class="st2" d="M-352.6,315.2v21c0,3.5,2.8,6.4,6.4,6.4h238.3c3.5,0,6.4-2.8,6.4-6.4v-21H-352.6z"/>
			</g>
		</g>
		<g>
			<g>
				<defs>
					<rect id="SVGID_7_" x="-353" y="186.5" width="251.8" height="189.5"/>
				</defs>
				<clipPath id="SVGID_8_">
					<use xlink:href="#SVGID_7_"  style="overflow:visible;"/>
				</clipPath>
				<path id="XMLID_36_" class="st3" d="M-107.9,186.5h-238.3c-3.5,0-6.4,2.8-6.4,6.4v122.3h251V192.8
					C-101.6,189.3-104.4,186.5-107.9,186.5 M-108.5,307.1h-237.2V194h237.2L-108.5,307.1L-108.5,307.1z"/>
			</g>
		</g>
	</g>
	<g id="XMLID_28_">
		<g>
			<g>
				<defs>
					<rect id="SVGID_9_" x="-257.3" y="342.6" width="58.9" height="25.5"/>
				</defs>
				<clipPath id="SVGID_10_">
					<use xlink:href="#SVGID_9_"  style="overflow:visible;"/>
				</clipPath>
				
					<linearGradient id="XMLID_15_" gradientUnits="userSpaceOnUse" x1="-1396.7509" y1="466.691" x2="-1394.975" y2="466.691" gradientTransform="matrix(0 -14.3594 -14.3594 0 6473.5532 -19688.4023)">
					<stop  offset="0" style="stop-color:#FFFFFF"/>
					<stop  offset="0.1434" style="stop-color:#FAFAFA"/>
					<stop  offset="0.3196" style="stop-color:#EBEBEB"/>
					<stop  offset="0.5129" style="stop-color:#D2D2D2"/>
					<stop  offset="0.7185" style="stop-color:#B0AFAF"/>
					<stop  offset="0.9317" style="stop-color:#858383"/>
					<stop  offset="1" style="stop-color:#757373"/>
				</linearGradient>
				<rect id="XMLID_32_" x="-257.3" y="342.6" class="st4" width="58.9" height="25.5"/>
			</g>
		</g>
	</g>
	<rect id="XMLID_27_" x="-257.3" y="342.6" class="st5" width="58.9" height="25.5"/>
	<g id="XMLID_24_">
		<g>
			<g>
				<defs>
					<path id="SVGID_11_" d="M-283.2,368.1c-2.2,0-4.1,1.8-4.1,4.1v3.4h120.4v-3.4c0-2.2-1.8-4.1-4.1-4.1H-283.2z"/>
				</defs>
				<clipPath id="SVGID_12_">
					<use xlink:href="#SVGID_11_"  style="overflow:visible;"/>
				</clipPath>
				
					<linearGradient id="XMLID_16_" gradientUnits="userSpaceOnUse" x1="-1393.0353" y1="546.6237" x2="-1391.259" y2="546.6237" gradientTransform="matrix(67.784 0 0 -67.784 94138.2031 37424.1875)">
					<stop  offset="0" style="stop-color:#FFFFFF"/>
					<stop  offset="1" style="stop-color:#D5DADC"/>
				</linearGradient>
				<rect id="XMLID_26_" x="-287.3" y="368.1" class="st6" width="120.4" height="7.5"/>
			</g>
		</g>
	</g>
	<path id="XMLID_23_" class="st5" d="M-166.9,375.6h-120.4v-3.4c0-2.2,1.8-4.1,4.1-4.1h112.3c2.2,0,4.1,1.8,4.1,4.1L-166.9,375.6
		L-166.9,375.6z"/>
	<path id="XMLID_21_" class="st7" d="M-215.6,327.7c0,1.8-1.4,3.2-3.2,3.2h-17.3c-1.8,0-3.2-1.4-3.2-3.2s1.4-3.2,3.2-3.2h17.3
		C-217.1,324.6-215.6,326-215.6,327.7"/>
	<rect id="XMLID_20_" x="-345.7" y="194" class="st8" width="237.2" height="113.1"/>
	<rect id="XMLID_3_" x="-353" y="186.5" class="st9" width="251.8" height="189.5"/>
	<rect id="XMLID_2_" x="-353" y="186.5" class="st9" width="251.8" height="189.5"/>
</g>
<g id="XMLID_7_">
</g>
<g id="XMLID_8_">
</g>
<g id="XMLID_9_">
</g>
<g id="XMLID_10_">
</g>
<g id="XMLID_11_">
</g>
<g id="XMLID_12_">
</g>
<g id="XMLID_13_">
</g>
<g id="XMLID_14_">
</g>
<g id="XMLID_22_">
</g>
<g id="XMLID_34_">
</g>
<g id="XMLID_38_">
</g>
<g id="XMLID_42_">
</g>
<g id="XMLID_50_">
</g>
<g id="XMLID_51_">
</g>
<g id="XMLID_52_">
</g>
<g class="st10">
	<path class="st11" d="M-327.7,220.3c-0.2,0.5-0.5,0.9-0.8,1.2s-0.8,0.6-1.2,0.8c-0.5,0.2-1,0.3-1.5,0.3h-1.1c-0.5,0-1-0.1-1.5-0.3
		c-0.5-0.2-0.9-0.5-1.2-0.8s-0.6-0.8-0.8-1.2c-0.2-0.5-0.3-1-0.3-1.5v-8.5c0-0.5,0.1-1,0.3-1.5c0.2-0.5,0.5-0.9,0.8-1.2
		s0.8-0.6,1.2-0.8c0.5-0.2,1-0.3,1.5-0.3h1.1c0.5,0,1,0.1,1.5,0.3c0.5,0.2,0.9,0.5,1.2,0.8s0.6,0.8,0.8,1.2c0.2,0.5,0.3,1,0.3,1.5
		v0.6l-1.4,0.2v-0.9c0-0.4-0.1-0.7-0.2-1c-0.1-0.3-0.3-0.6-0.5-0.8c-0.2-0.2-0.5-0.4-0.8-0.5c-0.3-0.1-0.6-0.2-1-0.2h-1
		c-0.4,0-0.7,0.1-1,0.2c-0.3,0.1-0.6,0.3-0.8,0.5c-0.2,0.2-0.4,0.5-0.5,0.8c-0.1,0.3-0.2,0.6-0.2,1v8.5c0,0.4,0.1,0.7,0.2,1
		s0.3,0.6,0.5,0.8c0.2,0.2,0.5,0.4,0.8,0.5c0.3,0.1,0.6,0.2,1,0.2h1c0.4,0,0.7-0.1,1-0.2c0.3-0.1,0.6-0.3,0.8-0.5s0.4-0.5,0.5-0.8
		s0.2-0.6,0.2-1v-0.9l1.4,0.2v0.6C-327.4,219.3-327.5,219.8-327.7,220.3z"/>
	<path class="st11" d="M-324.5,212.8v-1.7h1.7v1.7H-324.5z M-324.5,222.4v-1.7h1.7v1.7H-324.5z"/>
	<path class="st11" d="M-320.8,223.7l6.3-18.4h1.4l-6.3,18.4H-320.8z"/>
</g>
</svg>
