<?xml version="1.0" encoding="utf-8"?>
<!-- Generator: Adobe Illustrator 19.0.0, SVG Export Plug-In . SVG Version: 6.00 Build 0)  -->
<svg version="1.1" id="Capa_1" xmlns="http://www.w3.org/2000/svg" xmlns:xlink="http://www.w3.org/1999/xlink" x="0px" y="0px"
	 viewBox="0 0 55.9019 87.5209" style="enable-background:new 0 0 55.9019 87.5209;" xml:space="preserve">
<style type="text/css">
	.st0{fill:#D17D47;}
	.st1{fill:#DC695C;}
	.st2{opacity:0.2;}
	.st3{fill:#231F20;}
	.st4{fill:#F8DDAA;}
	.st5{fill:#EACD97;}
	.st6{fill:#FFE8B8;}
</style>
<g id="XMLID_1_">
	<g id="XMLID_2_">
		<g id="XMLID_3_">
			<path id="XMLID_43_" class="st0" d="M49.3954,35.0188H6.5624c0,0,4.7662,25.5688,0,35.2815h42.833
				C44.6291,60.5875,49.3954,35.0188,49.3954,35.0188z"/>
		</g>
		<g id="XMLID_4_">
			<path id="XMLID_40_" class="st1" d="M27.3564,87.5209c10.551,0,20.3586-3.1616,28.5455-8.5766
				c-0.5832-4.8421-1.3362-9.7279-2.0901-10.7635c-1.5856-2.1812-10.1043-11.1011-25.8162-11.1011
				c-15.7109,0-24.2288,8.9199-25.8153,11.1011C1.3874,69.2714,0.5936,74.6255,0,79.7058
				C7.9403,84.6541,17.3116,87.5209,27.3564,87.5209z"/>
		</g>
		<g id="XMLID_5_" class="st2">
			<path id="XMLID_37_" class="st3" d="M2.1802,68.1808C1.3874,69.2714,0.5936,74.6255,0,79.7058
				c7.9403,4.9483,17.3116,7.815,27.3564,7.815c0.2143,0,0.4257-0.0132,0.6391-0.0161V57.0797
				C12.2846,57.0797,3.7667,65.9996,2.1802,68.1808z"/>
		</g>
		<g id="XMLID_6_">
			<path id="XMLID_24_" class="st4" d="M28.1671,53.148l-6.9085-3.6815v8.2088c0,0,2.1963,8.5235,6.9085,8.5235
				c4.7103,0,6.9076-8.5235,6.9076-8.5235v-8.2088L28.1671,53.148z"/>
		</g>
		<g id="XMLID_7_">
			<polygon id="XMLID_32_" class="st5" points="28.1671,53.148 21.2586,57.6753 21.2586,49.4703 			"/>
		</g>
		<g id="XMLID_8_">
			<path id="XMLID_19_" class="st6" d="M45.7425,24.3416c0-24.4469-17.5754-22.3339-17.5754-22.3339S10.5909-0.1053,10.5909,24.3416
				c0,0-4.0284-1.1237-4.0284,3.8312c0,4.955,4.5567,7.5325,4.5567,7.5325s9.5154,17.4426,17.048,17.4426
				c7.5316,0,17.0461-17.4426,17.0461-17.4426s4.5586-2.5775,4.5586-7.5325C49.7719,23.2179,45.7425,24.3416,45.7425,24.3416z"/>
		</g>
		<g id="XMLID_9_">
			<path id="XMLID_28_" class="st4" d="M28.1671,2.0077c0,0-17.5763-2.1129-17.5763,22.3339c0,0-4.0284-1.1237-4.0284,3.8312
				c0,4.955,4.5567,7.5325,4.5567,7.5325s9.5154,17.4426,17.048,17.4426V2.0077z"/>
		</g>
		<g id="XMLID_12_">
			<path id="XMLID_26_" class="st0" d="M44.9989,36.0886c0,0-0.6154-14.7465-5.175-18.1169c0,0-16.4516,16.7028-28.94,17.7337
				H6.7217C6.7217,35.7053-2.0181,0,27.7906,0c29.8078,0,21.6048,35.0188,21.6048,35.0188L44.9989,36.0886z"/>
		</g>
	</g>
</g>
<g id="XMLID_13_">
</g>
<g id="XMLID_14_">
</g>
<g id="XMLID_15_">
</g>
<g id="XMLID_16_">
</g>
<g id="XMLID_17_">
</g>
<g id="XMLID_18_">
</g>
<g id="XMLID_22_">
</g>
<g id="XMLID_23_">
</g>
<g id="XMLID_27_">
</g>
<g id="XMLID_29_">
</g>
<g id="XMLID_34_">
</g>
<g id="XMLID_35_">
</g>
<g id="XMLID_36_">
</g>
<g id="XMLID_38_">
</g>
<g id="XMLID_39_">
</g>
</svg>
