<?xml version="1.0" encoding="utf-8"?>
<!-- Generator: Adobe Illustrator 19.0.0, SVG Export Plug-In . SVG Version: 6.00 Build 0)  -->
<svg version="1.1" id="Capa_1" xmlns="http://www.w3.org/2000/svg" xmlns:xlink="http://www.w3.org/1999/xlink" x="0px" y="0px"
	 viewBox="0 0 257.6496 193.8909" style="enable-background:new 0 0 257.6496 193.8909;" xml:space="preserve">
<style type="text/css">
	.st0{fill:#00ACC1;}
	.st1{fill:url(#XMLID_18_);stroke:#828282;stroke-width:0.8412;stroke-miterlimit:10;}
	.st2{fill:#5E5E5F;}
	.st3{fill:url(#XMLID_19_);stroke:#828282;stroke-width:0.8412;stroke-miterlimit:10;}
	.st4{fill:url(#XMLID_20_);stroke:#828282;stroke-width:0.8412;stroke-miterlimit:10;}
	.st5{fill:#75C6F0;}
	.st6{fill-rule:evenodd;clip-rule:evenodd;fill:#869B9B;}
	.st7{fill-rule:evenodd;clip-rule:evenodd;fill:#E8F4F5;}
	.st8{fill-rule:evenodd;clip-rule:evenodd;fill:#E9E800;}
	.st9{fill-rule:evenodd;clip-rule:evenodd;fill:#32E900;}
	.st10{fill-rule:evenodd;clip-rule:evenodd;fill:#FF3E15;}
</style>
<path id="XMLID_311_" class="st0" d="M130.6045,65.4782"/>
<g id="XMLID_279_">
	<linearGradient id="XMLID_18_" gradientUnits="userSpaceOnUse" x1="0.4206" y1="145.6786" x2="257.229" y2="145.6786">
		<stop  offset="0" style="stop-color:#FFFFFF"/>
		<stop  offset="1" style="stop-color:#D5DADC"/>
	</linearGradient>
	<path id="XMLID_310_" class="st1" d="M0.4206,131.6676v21.5202c0,3.5909,2.911,6.5019,6.5019,6.5019h243.8046
		c3.5909,0,6.5019-2.9109,6.5019-6.5019v-21.5202H0.4206z"/>
	<path id="XMLID_307_" class="st2" d="M250.7271,0H6.9225C3.3315,0,0.4206,2.911,0.4206,6.5019v125.1657H257.229V6.5019
		C257.229,2.911,254.3181,0,250.7271,0z M250.136,123.4299H7.5136V7.6841H250.136V123.4299z"/>
	<linearGradient id="XMLID_19_" gradientUnits="userSpaceOnUse" x1="128.0555" y1="185.7931" x2="128.0555" y2="159.6897">
		<stop  offset="0" style="stop-color:#FFFFFF;stop-opacity:0"/>
		<stop  offset="0.1433" style="stop-color:#FAFAFA;stop-opacity:0.0897"/>
		<stop  offset="0.3195" style="stop-color:#EBEBEB;stop-opacity:0.1999"/>
		<stop  offset="0.513" style="stop-color:#D2D2D2;stop-opacity:0.321"/>
		<stop  offset="0.7188" style="stop-color:#B0AFAF;stop-opacity:0.4497"/>
		<stop  offset="0.9322" style="stop-color:#848383;stop-opacity:0.5833"/>
		<stop  offset="1" style="stop-color:#757373;stop-opacity:0.6257"/>
	</linearGradient>
	<rect id="XMLID_283_" x="97.9217" y="159.6897" class="st3" width="60.2676" height="26.1034"/>
	<linearGradient id="XMLID_20_" gradientUnits="userSpaceOnUse" x1="67.2123" y1="189.6317" x2="190.4344" y2="189.6317">
		<stop  offset="0" style="stop-color:#FFFFFF"/>
		<stop  offset="1" style="stop-color:#D5DADC"/>
	</linearGradient>
	<path id="XMLID_281_" class="st4" d="M190.4344,193.4703H67.2123v-3.5146c0-2.2989,1.8637-4.1626,4.1626-4.1626h114.897
		c2.299,0,4.1626,1.8637,4.1626,4.1626V193.4703z"/>
	<path id="XMLID_280_" class="st2" d="M140.533,144.5271c0,1.8021-1.4609,3.2631-3.2631,3.2631h-17.6577
		c-1.8021,0-3.2631-1.461-3.2631-3.2631l0,0c0-1.8021,1.461-3.2631,3.2631-3.2631h17.6577
		C139.0721,141.264,140.533,142.725,140.533,144.5271L140.533,144.5271z"/>
</g>
<rect id="XMLID_2_" x="7.5136" y="7.6841" class="st5" width="242.6225" height="115.7459"/>
<g id="XMLID_208_">
	<path id="XMLID_213_" class="st6" d="M197.2551,97.6965h-69.2813c-1.421,0-2.5729-1.1519-2.5729-2.5729V25.8423
		c0-1.421,1.1519-2.5729,2.5729-2.5729h69.2813c1.421,0,2.573,1.1519,2.573,2.5729v69.2813
		C199.8281,96.5446,198.6761,97.6965,197.2551,97.6965z"/>
	<path id="XMLID_212_" class="st7" d="M196.211,96.7351H129.018c-1.421,0-2.5729-1.1519-2.5729-2.5729V30.1293h72.3388v64.0329
		C198.7839,95.5832,197.632,96.7351,196.211,96.7351z"/>
	<circle id="XMLID_211_" class="st8" cx="128.8248" cy="27.4509" r="1.717"/>
	<circle id="XMLID_210_" class="st9" cx="133.5341" cy="27.4509" r="1.717"/>
	<circle id="XMLID_209_" class="st10" cx="138.2435" cy="27.4509" r="1.717"/>
</g>
<g id="XMLID_59_">
	<path id="XMLID_84_" class="st6" d="M111.2551,97.6965H41.9739c-1.421,0-2.5729-1.1519-2.5729-2.5729V25.8423
		c0-1.421,1.1519-2.5729,2.5729-2.5729h69.2813c1.421,0,2.5729,1.1519,2.5729,2.5729v69.2813
		C113.8281,96.5446,112.6761,97.6965,111.2551,97.6965z"/>
	<path id="XMLID_96_" class="st7" d="M110.211,96.7351H43.018c-1.421,0-2.5729-1.1519-2.5729-2.5729V30.1293h72.3388v64.0329
		C112.7839,95.5832,111.632,96.7351,110.211,96.7351z"/>
	<circle id="XMLID_97_" class="st8" cx="42.8248" cy="27.4509" r="1.717"/>
	<circle id="XMLID_161_" class="st9" cx="47.5341" cy="27.4509" r="1.717"/>
	<circle id="XMLID_163_" class="st10" cx="52.2435" cy="27.4509" r="1.717"/>
</g>
<g id="XMLID_167_">
	<path id="XMLID_179_" class="st6" d="M130.2551,116.6965H60.9739c-1.421,0-2.5729-1.1519-2.5729-2.5729V44.8423
		c0-1.421,1.1519-2.5729,2.5729-2.5729h69.2813c1.421,0,2.573,1.1519,2.573,2.5729v69.2813
		C132.8281,115.5446,131.6761,116.6965,130.2551,116.6965z"/>
	<path id="XMLID_177_" class="st7" d="M129.211,115.7351H62.018c-1.421,0-2.5729-1.1519-2.5729-2.5729V49.1293h72.3388v64.0329
		C131.7839,114.5832,130.632,115.7351,129.211,115.7351z"/>
	<circle id="XMLID_176_" class="st8" cx="61.8248" cy="46.4509" r="1.717"/>
	<circle id="XMLID_173_" class="st9" cx="66.5341" cy="46.4509" r="1.717"/>
	<circle id="XMLID_171_" class="st10" cx="71.2435" cy="46.4509" r="1.717"/>
</g>
<g id="XMLID_202_">
	<path id="XMLID_207_" class="st6" d="M216.2551,116.6965h-69.2813c-1.421,0-2.5729-1.1519-2.5729-2.5729V44.8423
		c0-1.421,1.1519-2.5729,2.5729-2.5729h69.2813c1.421,0,2.573,1.1519,2.573,2.5729v69.2813
		C218.8281,115.5446,217.6761,116.6965,216.2551,116.6965z"/>
	<path id="XMLID_206_" class="st7" d="M215.211,115.7351H148.018c-1.421,0-2.5729-1.1519-2.5729-2.5729V49.1293h72.3388v64.0329
		C217.7839,114.5832,216.632,115.7351,215.211,115.7351z"/>
	<circle id="XMLID_205_" class="st8" cx="147.8248" cy="46.4509" r="1.717"/>
	<circle id="XMLID_204_" class="st9" cx="152.5341" cy="46.4509" r="1.717"/>
	<circle id="XMLID_203_" class="st10" cx="157.2435" cy="46.4509" r="1.717"/>
</g>
<g id="XMLID_1_">
</g>
<g id="XMLID_3_">
</g>
<g id="XMLID_4_">
</g>
<g id="XMLID_5_">
</g>
<g id="XMLID_6_">
</g>
<g id="XMLID_7_">
</g>
<g id="XMLID_8_">
</g>
<g id="XMLID_9_">
</g>
<g id="XMLID_10_">
</g>
<g id="XMLID_11_">
</g>
<g id="XMLID_12_">
</g>
<g id="XMLID_13_">
</g>
<g id="XMLID_14_">
</g>
<g id="XMLID_15_">
</g>
<g id="XMLID_16_">
</g>
</svg>
