<?xml version="1.0" encoding="utf-8"?>
<!-- Generator: Adobe Illustrator 19.0.0, SVG Export Plug-In . SVG Version: 6.00 Build 0)  -->
<svg version="1.1" id="Capa_1" xmlns="http://www.w3.org/2000/svg" xmlns:xlink="http://www.w3.org/1999/xlink" x="0px" y="0px"
	 viewBox="0 0 55.8905 92.3112" style="enable-background:new 0 0 55.8905 92.3112;" xml:space="preserve">
<style type="text/css">
	.st0{fill:#064563;}
	.st1{fill:#F8DDAA;}
	.st2{fill:#EACD97;}
	.st3{fill:#FFE8B8;}
	.st4{fill:#7E6C67;}
	.st5{fill:#E4EAEA;}
</style>
<g id="XMLID_6_">
	<g id="XMLID_7_">
		<g id="XMLID_175_">
			<path id="XMLID_170_" class="st0" d="M27.9452,92.3112c10.2951,0,19.8807-3.0157,27.9453-8.1935
				c-0.588-4.9503-1.3589-10.039-2.13-11.0982c-1.5856-2.1802-10.1044-11.1002-25.8153-11.1002s-24.2296,8.92-25.8153,11.1002
				C1.358,74.0787,0.5879,79.1684,0,84.1177C8.0646,89.2955,17.6503,92.3112,27.9452,92.3112z"/>
		</g>
		<path id="XMLID_172_" class="st1" d="M27.3725,57.9875l-6.9076-3.6813v8.2067c0,0,1.2594,8.5236,6.9076,8.5236
			c5.6501,0,6.9085-8.5236,6.9085-8.5236v-8.2067L27.3725,57.9875z"/>
		<g id="XMLID_168_">
			<polygon id="XMLID_166_" class="st2" points="27.3725,57.9875 20.4649,62.5129 20.4649,54.309 			"/>
		</g>
		<g id="XMLID_162_">
			<path id="XMLID_61_" class="st3" d="M44.9487,29.1803c0-24.4459-17.5763-22.333-17.5763-22.333S9.798,4.7343,9.798,29.1803
				c0,0-4.0304-1.1228-4.0304,3.8322c0,4.955,4.5586,7.5326,4.5586,7.5326s9.5145,17.4425,17.0461,17.4425
				c7.5325,0,17.0471-17.4425,17.0471-17.4425s4.5576-2.5775,4.5576-7.5326C48.9772,28.0575,44.9487,29.1803,44.9487,29.1803z"/>
		</g>
		<g id="XMLID_63_">
			<path id="XMLID_160_" class="st1" d="M27.3725,6.8472c0,0-17.5744-2.1129-17.5744,22.333c0,0-4.0304-1.1228-4.0304,3.8322
				c0,4.955,4.5586,7.5326,4.5586,7.5326s9.5145,17.4425,17.0461,17.4425V6.8472z"/>
		</g>
		<g id="XMLID_23_">
			<path id="XMLID_53_" class="st4" d="M13.8474,25.6449l-2.6761,9.7128L9.798,29.1803c-0.6742-0.495-2.2797,0.1641-2.2797,0.1641
				S1.9536,13.3555,12.9551,4.832c11.0015-8.5226,24.9836-4.4296,26.462,1.9696c0,0,7.229-0.9787,9.56,5.0679
				c2.3329,6.0446-1.1673,17.8379-1.1673,17.8379s-0.9474-1.0393-2.8611-0.5273l-0.1802,6.1774l-1.8833-8.92
				c0,0-3.964-5.2518-3.8645-10.9019C39.0207,15.5358,26.5322,29.7085,13.8474,25.6449z"/>
		</g>
		<g id="XMLID_8_">
			<path id="XMLID_47_" class="st5" d="M34.2809,62.4485v0.0644c0,0-1.2584,8.5236-6.9085,8.5236
				c-5.2537,0-6.7084-7.3685-6.8867-8.4003c-1.1655,0.2295-2.2798,0.5045-3.3343,0.8193
				C20.2543,81.543,27.3705,91.142,27.3705,91.142s7.1959-9.709,10.2723-27.9955C36.5797,62.8677,35.4474,62.642,34.2809,62.4485z"
				/>
		</g>
	</g>
</g>
<g id="XMLID_1_">
</g>
<g id="XMLID_2_">
</g>
<g id="XMLID_3_">
</g>
<g id="XMLID_4_">
</g>
<g id="XMLID_5_">
</g>
<g id="XMLID_9_">
</g>
<g id="XMLID_10_">
</g>
<g id="XMLID_11_">
</g>
<g id="XMLID_13_">
</g>
<g id="XMLID_14_">
</g>
<g id="XMLID_16_">
</g>
<g id="XMLID_18_">
</g>
<g id="XMLID_19_">
</g>
<g id="XMLID_20_">
</g>
<g id="XMLID_21_">
</g>
</svg>
