<?xml version="1.0" encoding="utf-8"?>
<!-- Generator: Adobe Illustrator 19.0.0, SVG Export Plug-In . SVG Version: 6.00 Build 0)  -->
<svg version="1.1" id="Capa_1" xmlns="http://www.w3.org/2000/svg" xmlns:xlink="http://www.w3.org/1999/xlink" x="0px" y="0px"
	 viewBox="-525.1461 230.9257 67.1112 91.4313" style="enable-background:new -525.1461 230.9257 67.1112 91.4313;"
	 xml:space="preserve">
<style type="text/css">
	.st0{fill:#D9D3CD;}
	.st1{fill:#CFC9C3;}
	.st2{fill:#EDEDED;}
	.st3{fill:#B1ADA7;}
	.st4{fill:#787471;}
</style>
<g>
	<path class="st0" d="M-461.9619,322.357h-59.2574c-2.1688,0-3.9269-1.7581-3.9269-3.9269v-83.5774
		c0-2.1688,1.7581-3.927,3.9269-3.927h59.2574c2.1688,0,3.9269,1.7581,3.9269,3.927v83.5774
		C-458.0349,320.5988-459.7931,322.357-461.9619,322.357z"/>
	<path class="st1" d="M-461.9618,230.9257h-16.4313v91.4313h16.4313c2.1686,0,3.9268-1.7581,3.9268-3.9269v-83.5774
		C-458.035,232.6838-459.7932,230.9257-461.9618,230.9257z"/>
	<g>
		<circle class="st2" cx="-521.2135" cy="234.9088" r="1.309"/>
		<circle class="st2" cx="-461.9676" cy="234.9088" r="1.309"/>
		<circle class="st2" cx="-521.2135" cy="318.0471" r="1.309"/>
		<circle class="st2" cx="-461.9676" cy="318.0471" r="1.309"/>
	</g>
	<path class="st3" d="M-473.2216,295.651v-9.8094c6.0252-5.1746,9.8469-12.8427,9.8469-21.408
		c0-15.5832-12.6327-28.2159-28.2159-28.2159c-15.5832,0-28.2159,12.6327-28.2159,28.2159c0,8.6098,3.8609,16.3135,9.9404,21.489
		v9.7284c-2.5559,2.5559-3.9889,3.9889-6.5448,6.5449v9.3064c2.5559,2.5559,3.9889,3.9889,6.5448,6.5448h36.5511
		c2.5559-2.556,3.9889-3.9889,6.5448-6.5448v-9.3064c-2.5558-2.556-3.9889-3.989-6.5448-6.5449H-473.2216z"/>
	<circle class="st0" cx="-491.5905" cy="264.4336" r="24.8704"/>
	<circle class="st2" cx="-491.5906" cy="264.4336" r="9.1335"/>
	<circle class="st4" cx="-491.5905" cy="264.4336" r="4.9775"/>
	<g>
		<polygon class="st2" points="-501.2144,316.8192 -509.1946,316.8192 -515.1632,310.8504 -515.1632,302.9438 -512.3925,302.9438 
			-512.3925,309.7031 -508.047,314.0485 -501.2144,314.0485 		"/>
	</g>
	<path class="st2" d="M-508.592,303.7542l23.3553-17.6989c0.5779-0.438,1.3121,0.2961,0.8741,0.8741l-17.6025,23.2281
		c-1.4995,1.9787-4.302,2.5749-6.3735,1.2064c-2.2699-1.4996-2.77-4.5762-1.1531-6.7099
		C-509.2327,304.312-508.9167,304.0031-508.592,303.7542z"/>
	<circle class="st4" cx="-505.7649" cy="307.3661" r="3.1173"/>
</g>
</svg>
