<?xml version="1.0" encoding="utf-8"?>
<!-- Generator: Adobe Illustrator 19.0.0, SVG Export Plug-In . SVG Version: 6.00 Build 0)  -->
<svg version="1.1" id="Capa_1" xmlns="http://www.w3.org/2000/svg" xmlns:xlink="http://www.w3.org/1999/xlink" x="0px" y="0px"
	 viewBox="-417 266.5476 123.074 28.4524" style="enable-background:new -417 266.5476 123.074 28.4524;" xml:space="preserve">
<style type="text/css">
	.st0{fill:#6E933C;}
	.st1{fill:#114149;}
	.st2{fill:#E0E4D5;}
	.st3{fill:#BCBBBA;}
	.st4{fill:#EAB220;}
</style>
<g>
	<g>
		<path class="st0" d="M-415.8781,266.5476v28.5532h45.2002v-2.5031c0-0.8597,0.697-1.557,1.5573-1.557
			c0.8594,0,1.556,0.6972,1.556,1.557v2.5031h75.1967v-28.5532H-415.8781z M-413.5463,293.9813c-0.8122,0-1.4709-0.6584-1.4709-1.47
			c0-0.8122,0.6587-1.4706,1.4709-1.4706c0.8116,0,1.4697,0.6584,1.4697,1.4706
			C-412.0766,293.3229-412.7347,293.9813-413.5463,293.9813z M-294.8244,293.9813c-0.8119,0-1.4703-0.6584-1.4703-1.47
			c0-0.8122,0.6584-1.4706,1.4703-1.4706c0.8122,0,1.4703,0.6584,1.4703,1.4706
			C-293.3541,293.3229-294.0122,293.9813-294.8244,293.9813z"/>
	</g>
	<rect x="-308.1159" y="274.5969" class="st1" width="9.341" height="12.4546"/>
	<rect x="-321.908" y="274.5969" class="st1" width="9.3413" height="12.4546"/>
	<rect x="-335.7002" y="274.5969" class="st1" width="9.3408" height="12.4546"/>
	<rect x="-349.4917" y="274.5969" class="st1" width="9.3408" height="12.4546"/>
	<rect x="-377.4049" y="274.5969" class="st1" width="9.3407" height="12.4546"/>
	<path class="st2" d="M-381.6306,283.5087c0,1.4371-1.1646,2.6023-2.6019,2.6023h-22.4794c-1.4373,0-2.6025-1.1652-2.6025-2.6023
		v-5.3691c0-1.437,1.1652-2.6022,2.6025-2.6022h22.4794c1.4373,0,2.6019,1.1652,2.6019,2.6022V283.5087z"/>
	<rect x="-407.2351" y="277.6171" class="st3" width="23.5255" height="1.3842"/>
	<rect x="-407.2351" y="280.7904" class="st3" width="23.5255" height="1.3836"/>
	<rect x="-407.2351" y="280.7904" class="st3" width="23.5255" height="1.3836"/>
	<rect x="-404.1211" y="283.2375" class="st3" width="17.298" height="1.3843"/>
	<rect x="-410.3782" y="290.5533" class="st4" width="1.6098" height="4.5476"/>
	<rect x="-407.7956" y="290.5533" class="st4" width="1.6101" height="4.5476"/>
	<rect x="-405.2124" y="290.5533" class="st4" width="1.6095" height="4.5476"/>
	<rect x="-402.6294" y="290.5533" class="st4" width="1.6098" height="4.5476"/>
	<rect x="-400.0465" y="290.5533" class="st4" width="1.6101" height="4.5476"/>
	<rect x="-397.4628" y="290.5533" class="st4" width="1.6092" height="4.5476"/>
	<rect x="-394.8793" y="290.5533" class="st4" width="1.6089" height="4.5476"/>
	<rect x="-392.2974" y="290.5533" class="st4" width="1.6101" height="4.5476"/>
	<rect x="-389.7137" y="290.5533" class="st4" width="1.6092" height="4.5476"/>
	<rect x="-387.1311" y="290.5533" class="st4" width="1.6098" height="4.5476"/>
	<rect x="-384.5481" y="290.5533" class="st4" width="1.6101" height="4.5476"/>
	<rect x="-381.9649" y="290.5533" class="st4" width="1.6095" height="4.5476"/>
	<rect x="-379.382" y="290.5533" class="st4" width="1.6098" height="4.5476"/>
	<rect x="-376.799" y="290.5533" class="st4" width="1.6101" height="4.5476"/>
	<rect x="-374.2158" y="290.5533" class="st4" width="1.6095" height="4.5476"/>
	<rect x="-366.3311" y="290.5533" class="st4" width="1.6089" height="4.5476"/>
	<rect x="-363.7568" y="290.5533" class="st4" width="1.6098" height="4.5476"/>
	<rect x="-361.1826" y="290.5533" class="st4" width="1.6098" height="4.5476"/>
	<rect x="-358.6078" y="290.5533" class="st4" width="1.6092" height="4.5476"/>
	<rect x="-356.0336" y="290.5533" class="st4" width="1.6095" height="4.5476"/>
	<rect x="-353.4592" y="290.5533" class="st4" width="1.6095" height="4.5476"/>
	<rect x="-350.8851" y="290.5533" class="st4" width="1.6099" height="4.5476"/>
	<rect x="-348.3104" y="290.5533" class="st4" width="1.6098" height="4.5476"/>
	<rect x="-345.7359" y="290.5533" class="st4" width="1.6095" height="4.5476"/>
	<rect x="-343.1617" y="290.5533" class="st4" width="1.6098" height="4.5476"/>
	<rect x="-340.5868" y="290.5533" class="st4" width="1.6092" height="4.5476"/>
	<rect x="-338.0123" y="290.5533" class="st4" width="1.6089" height="4.5476"/>
	<rect x="-335.4382" y="290.5533" class="st4" width="1.6098" height="4.5476"/>
	<rect x="-332.8636" y="290.5533" class="st4" width="1.6095" height="4.5476"/>
	<rect x="-330.2891" y="290.5533" class="st4" width="1.6101" height="4.5476"/>
	<rect x="-327.7146" y="290.5533" class="st4" width="1.6095" height="4.5476"/>
	<rect x="-325.1407" y="290.5533" class="st4" width="1.6101" height="4.5476"/>
	<rect x="-322.5655" y="290.5533" class="st4" width="1.6089" height="4.5476"/>
	<rect x="-319.9916" y="290.5533" class="st4" width="1.6101" height="4.5476"/>
	<rect x="-317.4169" y="290.5533" class="st4" width="1.6095" height="4.5476"/>
	<rect x="-314.8424" y="290.5533" class="st4" width="1.6095" height="4.5476"/>
	<rect x="-312.2684" y="290.5533" class="st4" width="1.6095" height="4.5476"/>
	<rect x="-309.6939" y="290.5533" class="st4" width="1.6095" height="4.5476"/>
	<rect x="-307.1194" y="290.5533" class="st4" width="1.6095" height="4.5476"/>
	<rect x="-304.5454" y="290.5533" class="st4" width="1.6101" height="4.5476"/>
	<rect x="-301.9709" y="290.5533" class="st4" width="1.6095" height="4.5476"/>
	<rect x="-299.3962" y="290.5533" class="st4" width="1.6095" height="4.5476"/>
	<rect x="-361.3001" y="283.1176" class="st1" width="2.9505" height="3.9339"/>
</g>
</svg>
