<?xml version="1.0" encoding="utf-8"?>
<!-- Generator: Adobe Illustrator 19.0.0, SVG Export Plug-In . SVG Version: 6.00 Build 0)  -->
<svg version="1.1" id="Capa_1" xmlns="http://www.w3.org/2000/svg" xmlns:xlink="http://www.w3.org/1999/xlink" x="0px" y="0px"
	 viewBox="-419 237.7086 120.9521 87.2914" style="enable-background:new -419 237.7086 120.9521 87.2914;" xml:space="preserve">
<style type="text/css">
	.st0{fill:#3B4551;}
	.st1{fill:#FFFFFF;}
	.st2{fill:#72BFC5;}
</style>
<g>
	<path class="st0" d="M-357.6427,270.9818c-0.6958,0-1.2599-0.5641-1.2599-1.2599v-4.3153c0-4.7415,3.8575-8.5989,8.5988-8.5989
		c3.3519,0,6.0791-2.727,6.0791-6.079v-11.3499c0-0.6958,0.5641-1.2599,1.2599-1.2599s1.2599,0.5641,1.2599,1.2599v11.3499
		c0,4.7414-3.8576,8.5989-8.5989,8.5989c-3.3519,0-6.079,2.727-6.079,6.079v4.3153
		C-356.3828,270.4177-356.9469,270.9818-357.6427,270.9818z"/>
	<path class="st0" d="M-300.8205,325.4103h-113.6447c-2.0179,0-3.6537-1.6359-3.6537-3.6538v-48.3809
		c0-2.0179,1.6358-3.6537,3.6537-3.6537h113.6447c2.0179,0,3.6537,1.6358,3.6537,3.6537v48.3809
		C-297.1668,323.7744-298.8026,325.4103-300.8205,325.4103z"/>
	<path class="st1" d="M-408.953,280.5887h-2.881c-0.6251,0-1.1319-0.5068-1.1319-1.1318v-2.8811
		c0-0.6251,0.5068-1.1318,1.1319-1.1318h2.881c0.6251,0,1.1318,0.5067,1.1318,1.1318v2.8811
		C-407.8212,280.0819-408.3279,280.5887-408.953,280.5887z"/>
	<path class="st1" d="M-400.268,280.5887h-2.881c-0.6251,0-1.1318-0.5068-1.1318-1.1318v-2.8811
		c0-0.6251,0.5067-1.1318,1.1318-1.1318h2.881c0.6251,0,1.1318,0.5067,1.1318,1.1318v2.8811
		C-399.1362,280.0819-399.6429,280.5887-400.268,280.5887z"/>
	<path class="st1" d="M-391.583,280.5887h-2.881c-0.6251,0-1.1318-0.5068-1.1318-1.1318v-2.8811
		c0-0.6251,0.5067-1.1318,1.1318-1.1318h2.881c0.6251,0,1.1319,0.5067,1.1319,1.1318v2.8811
		C-390.4511,280.0819-390.9579,280.5887-391.583,280.5887z"/>
	<path class="st1" d="M-382.8979,280.5887h-2.881c-0.6251,0-1.1319-0.5068-1.1319-1.1318v-2.8811
		c0-0.6251,0.5068-1.1318,1.1319-1.1318h2.881c0.6251,0,1.1318,0.5067,1.1318,1.1318v2.8811
		C-381.7661,280.0819-382.2728,280.5887-382.8979,280.5887z"/>
	<path class="st1" d="M-374.2129,280.5887h-2.881c-0.6251,0-1.1318-0.5068-1.1318-1.1318v-2.8811
		c0-0.6251,0.5067-1.1318,1.1318-1.1318h2.881c0.6251,0,1.1318,0.5067,1.1318,1.1318v2.8811
		C-373.0811,280.0819-373.5878,280.5887-374.2129,280.5887z"/>
	<path class="st1" d="M-365.5278,280.5887h-2.8811c-0.625,0-1.1318-0.5068-1.1318-1.1318v-2.8811
		c0-0.6251,0.5068-1.1318,1.1318-1.1318h2.8811c0.625,0,1.1318,0.5067,1.1318,1.1318v2.8811
		C-364.396,280.0819-364.9028,280.5887-365.5278,280.5887z"/>
	<path class="st1" d="M-356.8428,280.5887h-2.881c-0.6251,0-1.1318-0.5068-1.1318-1.1318v-2.8811
		c0-0.6251,0.5067-1.1318,1.1318-1.1318h2.881c0.6251,0,1.1318,0.5067,1.1318,1.1318v2.8811
		C-355.711,280.0819-356.2177,280.5887-356.8428,280.5887z"/>
	<path class="st1" d="M-348.1578,280.5887h-2.881c-0.6251,0-1.1318-0.5068-1.1318-1.1318v-2.8811
		c0-0.6251,0.5067-1.1318,1.1318-1.1318h2.881c0.6251,0,1.1319,0.5067,1.1319,1.1318v2.8811
		C-347.0259,280.0819-347.5327,280.5887-348.1578,280.5887z"/>
	<path class="st1" d="M-339.4727,280.5887h-2.881c-0.6251,0-1.1319-0.5068-1.1319-1.1318v-2.8811
		c0-0.6251,0.5068-1.1318,1.1319-1.1318h2.881c0.6251,0,1.1318,0.5067,1.1318,1.1318v2.8811
		C-338.3409,280.0819-338.8476,280.5887-339.4727,280.5887z"/>
	<path class="st1" d="M-408.953,287.8332h-2.881c-0.6251,0-1.1319-0.5067-1.1319-1.1318v-2.881
		c0-0.6251,0.5068-1.1319,1.1319-1.1319h2.881c0.6251,0,1.1318,0.5068,1.1318,1.1319v2.881
		C-407.8212,287.3265-408.3279,287.8332-408.953,287.8332z"/>
	<path class="st1" d="M-400.268,287.8332h-2.881c-0.6251,0-1.1318-0.5067-1.1318-1.1318v-2.881
		c0-0.6251,0.5067-1.1319,1.1318-1.1319h2.881c0.6251,0,1.1318,0.5068,1.1318,1.1319v2.881
		C-399.1362,287.3265-399.6429,287.8332-400.268,287.8332z"/>
	<path class="st1" d="M-391.583,287.8332h-2.881c-0.6251,0-1.1318-0.5067-1.1318-1.1318v-2.881
		c0-0.6251,0.5067-1.1319,1.1318-1.1319h2.881c0.6251,0,1.1319,0.5068,1.1319,1.1319v2.881
		C-390.4511,287.3265-390.9579,287.8332-391.583,287.8332z"/>
	<path class="st1" d="M-382.8979,287.8332h-2.881c-0.6251,0-1.1319-0.5067-1.1319-1.1318v-2.881
		c0-0.6251,0.5068-1.1319,1.1319-1.1319h2.881c0.6251,0,1.1318,0.5068,1.1318,1.1319v2.881
		C-381.7661,287.3265-382.2728,287.8332-382.8979,287.8332z"/>
	<path class="st1" d="M-374.2129,287.8332h-2.881c-0.6251,0-1.1318-0.5067-1.1318-1.1318v-2.881
		c0-0.6251,0.5067-1.1319,1.1318-1.1319h2.881c0.6251,0,1.1318,0.5068,1.1318,1.1319v2.881
		C-373.0811,287.3265-373.5878,287.8332-374.2129,287.8332z"/>
	<path class="st1" d="M-365.5278,287.8332h-2.8811c-0.625,0-1.1318-0.5067-1.1318-1.1318v-2.881
		c0-0.6251,0.5068-1.1319,1.1318-1.1319h2.8811c0.625,0,1.1318,0.5068,1.1318,1.1319v2.881
		C-364.396,287.3265-364.9028,287.8332-365.5278,287.8332z"/>
	<path class="st1" d="M-356.8428,287.8332h-2.881c-0.6251,0-1.1318-0.5067-1.1318-1.1318v-2.881
		c0-0.6251,0.5067-1.1319,1.1318-1.1319h2.881c0.6251,0,1.1318,0.5068,1.1318,1.1319v2.881
		C-355.711,287.3265-356.2177,287.8332-356.8428,287.8332z"/>
	<path class="st1" d="M-348.1578,287.8332h-2.881c-0.6251,0-1.1318-0.5067-1.1318-1.1318v-2.881
		c0-0.6251,0.5067-1.1319,1.1318-1.1319h2.881c0.6251,0,1.1319,0.5068,1.1319,1.1319v2.881
		C-347.0259,287.3265-347.5327,287.8332-348.1578,287.8332z"/>
	<path class="st1" d="M-339.4727,287.8332h-2.881c-0.6251,0-1.1319-0.5067-1.1319-1.1318v-2.881
		c0-0.6251,0.5068-1.1319,1.1319-1.1319h2.881c0.6251,0,1.1318,0.5068,1.1318,1.1319v2.881
		C-338.3409,287.3265-338.8476,287.8332-339.4727,287.8332z"/>
	<path class="st1" d="M-322.1027,287.8332h-2.881c-0.6251,0-1.1318-0.5067-1.1318-1.1318v-2.881
		c0-0.6251,0.5067-1.1319,1.1318-1.1319h2.881c0.6251,0,1.1319,0.5068,1.1319,1.1319v2.881
		C-320.9708,287.3265-321.4776,287.8332-322.1027,287.8332z"/>
	<path class="st1" d="M-313.4176,287.8332h-2.881c-0.6251,0-1.1319-0.5067-1.1319-1.1318v-2.881
		c0-0.6251,0.5068-1.1319,1.1319-1.1319h2.881c0.6251,0,1.1318,0.5068,1.1318,1.1319v2.881
		C-312.2858,287.3265-312.7925,287.8332-313.4176,287.8332z"/>
	<path class="st1" d="M-304.7326,287.8332h-2.881c-0.6251,0-1.1318-0.5067-1.1318-1.1318v-2.881
		c0-0.6251,0.5067-1.1319,1.1318-1.1319h2.881c0.6251,0,1.1318,0.5068,1.1318,1.1319v2.881
		C-303.6008,287.3265-304.1075,287.8332-304.7326,287.8332z"/>
	<path class="st1" d="M-408.953,295.0777h-2.881c-0.6251,0-1.1319-0.5067-1.1319-1.1318v-2.881
		c0-0.6251,0.5068-1.1318,1.1319-1.1318h2.881c0.6251,0,1.1318,0.5067,1.1318,1.1318v2.881
		C-407.8212,294.571-408.3279,295.0777-408.953,295.0777z"/>
	<path class="st1" d="M-400.268,295.0777h-2.881c-0.6251,0-1.1318-0.5067-1.1318-1.1318v-2.881
		c0-0.6251,0.5067-1.1318,1.1318-1.1318h2.881c0.6251,0,1.1318,0.5067,1.1318,1.1318v2.881
		C-399.1362,294.571-399.6429,295.0777-400.268,295.0777z"/>
	<path class="st1" d="M-391.583,295.0777h-2.881c-0.6251,0-1.1318-0.5067-1.1318-1.1318v-2.881
		c0-0.6251,0.5067-1.1318,1.1318-1.1318h2.881c0.6251,0,1.1319,0.5067,1.1319,1.1318v2.881
		C-390.4511,294.571-390.9579,295.0777-391.583,295.0777z"/>
	<path class="st1" d="M-382.8979,295.0777h-2.881c-0.6251,0-1.1319-0.5067-1.1319-1.1318v-2.881
		c0-0.6251,0.5068-1.1318,1.1319-1.1318h2.881c0.6251,0,1.1318,0.5067,1.1318,1.1318v2.881
		C-381.7661,294.571-382.2728,295.0777-382.8979,295.0777z"/>
	<path class="st1" d="M-374.2129,295.0777h-2.881c-0.6251,0-1.1318-0.5067-1.1318-1.1318v-2.881
		c0-0.6251,0.5067-1.1318,1.1318-1.1318h2.881c0.6251,0,1.1318,0.5067,1.1318,1.1318v2.881
		C-373.0811,294.571-373.5878,295.0777-374.2129,295.0777z"/>
	<path class="st1" d="M-365.5278,295.0777h-2.8811c-0.625,0-1.1318-0.5067-1.1318-1.1318v-2.881
		c0-0.6251,0.5068-1.1318,1.1318-1.1318h2.8811c0.625,0,1.1318,0.5067,1.1318,1.1318v2.881
		C-364.396,294.571-364.9028,295.0777-365.5278,295.0777z"/>
	<path class="st1" d="M-356.8428,295.0777h-2.881c-0.6251,0-1.1318-0.5067-1.1318-1.1318v-2.881
		c0-0.6251,0.5067-1.1318,1.1318-1.1318h2.881c0.6251,0,1.1318,0.5067,1.1318,1.1318v2.881
		C-355.711,294.571-356.2177,295.0777-356.8428,295.0777z"/>
	<path class="st1" d="M-348.1578,295.0777h-2.881c-0.6251,0-1.1318-0.5067-1.1318-1.1318v-2.881
		c0-0.6251,0.5067-1.1318,1.1318-1.1318h2.881c0.6251,0,1.1319,0.5067,1.1319,1.1318v2.881
		C-347.0259,294.571-347.5327,295.0777-348.1578,295.0777z"/>
	<path class="st1" d="M-339.4727,295.0777h-2.881c-0.6251,0-1.1319-0.5067-1.1319-1.1318v-2.881
		c0-0.6251,0.5068-1.1318,1.1319-1.1318h2.881c0.6251,0,1.1318,0.5067,1.1318,1.1318v2.881
		C-338.3409,294.571-338.8476,295.0777-339.4727,295.0777z"/>
	<path class="st1" d="M-322.1027,295.0777h-2.881c-0.6251,0-1.1318-0.5067-1.1318-1.1318v-2.881
		c0-0.6251,0.5067-1.1318,1.1318-1.1318h2.881c0.6251,0,1.1319,0.5067,1.1319,1.1318v2.881
		C-320.9708,294.571-321.4776,295.0777-322.1027,295.0777z"/>
	<path class="st1" d="M-313.4176,295.0777h-2.881c-0.6251,0-1.1319-0.5067-1.1319-1.1318v-2.881
		c0-0.6251,0.5068-1.1318,1.1319-1.1318h2.881c0.6251,0,1.1318,0.5067,1.1318,1.1318v2.881
		C-312.2858,294.571-312.7925,295.0777-313.4176,295.0777z"/>
	<path class="st1" d="M-304.7326,295.0777h-2.881c-0.6251,0-1.1318-0.5067-1.1318-1.1318v-2.881
		c0-0.6251,0.5067-1.1318,1.1318-1.1318h2.881c0.6251,0,1.1318,0.5067,1.1318,1.1318v2.881
		C-303.6008,294.571-304.1075,295.0777-304.7326,295.0777z"/>
	<path class="st1" d="M-408.953,302.3223h-2.881c-0.6251,0-1.1319-0.5068-1.1319-1.1319v-2.881
		c0-0.6251,0.5068-1.1318,1.1319-1.1318h2.881c0.6251,0,1.1318,0.5067,1.1318,1.1318v2.881
		C-407.8212,301.8155-408.3279,302.3223-408.953,302.3223z"/>
	<path class="st1" d="M-400.268,302.3223h-2.881c-0.6251,0-1.1318-0.5068-1.1318-1.1319v-2.881
		c0-0.6251,0.5067-1.1318,1.1318-1.1318h2.881c0.6251,0,1.1318,0.5067,1.1318,1.1318v2.881
		C-399.1362,301.8155-399.6429,302.3223-400.268,302.3223z"/>
	<path class="st1" d="M-391.583,302.3223h-2.881c-0.6251,0-1.1318-0.5068-1.1318-1.1319v-2.881
		c0-0.6251,0.5067-1.1318,1.1318-1.1318h2.881c0.6251,0,1.1319,0.5067,1.1319,1.1318v2.881
		C-390.4511,301.8155-390.9579,302.3223-391.583,302.3223z"/>
	<path class="st1" d="M-382.8979,302.3223h-2.881c-0.6251,0-1.1319-0.5068-1.1319-1.1319v-2.881
		c0-0.6251,0.5068-1.1318,1.1319-1.1318h2.881c0.6251,0,1.1318,0.5067,1.1318,1.1318v2.881
		C-381.7661,301.8155-382.2728,302.3223-382.8979,302.3223z"/>
	<path class="st1" d="M-374.2129,302.3223h-2.881c-0.6251,0-1.1318-0.5068-1.1318-1.1319v-2.881
		c0-0.6251,0.5067-1.1318,1.1318-1.1318h2.881c0.6251,0,1.1318,0.5067,1.1318,1.1318v2.881
		C-373.0811,301.8155-373.5878,302.3223-374.2129,302.3223z"/>
	<path class="st1" d="M-365.5278,302.3223h-2.8811c-0.625,0-1.1318-0.5068-1.1318-1.1319v-2.881
		c0-0.6251,0.5068-1.1318,1.1318-1.1318h2.8811c0.625,0,1.1318,0.5067,1.1318,1.1318v2.881
		C-364.396,301.8155-364.9028,302.3223-365.5278,302.3223z"/>
	<path class="st1" d="M-356.8428,302.3223h-2.881c-0.6251,0-1.1318-0.5068-1.1318-1.1319v-2.881
		c0-0.6251,0.5067-1.1318,1.1318-1.1318h2.881c0.6251,0,1.1318,0.5067,1.1318,1.1318v2.881
		C-355.711,301.8155-356.2177,302.3223-356.8428,302.3223z"/>
	<path class="st1" d="M-339.4727,302.3223h-11.5661c-0.6251,0-1.1318-0.5068-1.1318-1.1319v-2.881
		c0-0.6251,0.5067-1.1318,1.1318-1.1318h11.5661c0.6251,0,1.1318,0.5067,1.1318,1.1318v2.881
		C-338.3409,301.8155-338.8476,302.3223-339.4727,302.3223z"/>
	<path class="st1" d="M-322.1027,302.3223h-2.881c-0.6251,0-1.1318-0.5068-1.1318-1.1319v-2.881
		c0-0.6251,0.5067-1.1318,1.1318-1.1318h2.881c0.6251,0,1.1319,0.5067,1.1319,1.1318v2.881
		C-320.9708,301.8155-321.4776,302.3223-322.1027,302.3223z"/>
	<path class="st1" d="M-313.4176,302.3223h-2.881c-0.6251,0-1.1319-0.5068-1.1319-1.1319v-2.881
		c0-0.6251,0.5068-1.1318,1.1319-1.1318h2.881c0.6251,0,1.1318,0.5067,1.1318,1.1318v2.881
		C-312.2858,301.8155-312.7925,302.3223-313.4176,302.3223z"/>
	<path class="st1" d="M-304.7326,302.3223h-2.881c-0.6251,0-1.1318-0.5068-1.1318-1.1319v-2.881
		c0-0.6251,0.5067-1.1318,1.1318-1.1318h2.881c0.6251,0,1.1318,0.5067,1.1318,1.1318v2.881
		C-303.6008,301.8155-304.1075,302.3223-304.7326,302.3223z"/>
	<path class="st1" d="M-408.953,309.5668h-2.881c-0.6251,0-1.1319-0.5067-1.1319-1.1318v-2.881
		c0-0.6251,0.5068-1.1319,1.1319-1.1319h2.881c0.6251,0,1.1318,0.5068,1.1318,1.1319v2.881
		C-407.8212,309.0601-408.3279,309.5668-408.953,309.5668z"/>
	<path class="st1" d="M-400.268,309.5668h-2.881c-0.6251,0-1.1318-0.5067-1.1318-1.1318v-2.881
		c0-0.6251,0.5067-1.1319,1.1318-1.1319h2.881c0.6251,0,1.1318,0.5068,1.1318,1.1319v2.881
		C-399.1362,309.0601-399.6429,309.5668-400.268,309.5668z"/>
	<path class="st1" d="M-391.583,309.5668h-2.881c-0.6251,0-1.1318-0.5067-1.1318-1.1318v-2.881
		c0-0.6251,0.5067-1.1319,1.1318-1.1319h2.881c0.6251,0,1.1319,0.5068,1.1319,1.1319v2.881
		C-390.4511,309.0601-390.9579,309.5668-391.583,309.5668z"/>
	<path class="st1" d="M-382.8979,309.5668h-2.881c-0.6251,0-1.1319-0.5067-1.1319-1.1318v-2.881
		c0-0.6251,0.5068-1.1319,1.1319-1.1319h2.881c0.6251,0,1.1318,0.5068,1.1318,1.1319v2.881
		C-381.7661,309.0601-382.2728,309.5668-382.8979,309.5668z"/>
	<path class="st1" d="M-374.2129,309.5668h-2.881c-0.6251,0-1.1318-0.5067-1.1318-1.1318v-2.881
		c0-0.6251,0.5067-1.1319,1.1318-1.1319h2.881c0.6251,0,1.1318,0.5068,1.1318,1.1319v2.881
		C-373.0811,309.0601-373.5878,309.5668-374.2129,309.5668z"/>
	<path class="st1" d="M-365.5278,309.5668h-2.8811c-0.625,0-1.1318-0.5067-1.1318-1.1318v-2.881
		c0-0.6251,0.5068-1.1319,1.1318-1.1319h2.8811c0.625,0,1.1318,0.5068,1.1318,1.1319v2.881
		C-364.396,309.0601-364.9028,309.5668-365.5278,309.5668z"/>
	<path class="st1" d="M-356.8428,309.5668h-2.881c-0.6251,0-1.1318-0.5067-1.1318-1.1318v-2.881
		c0-0.6251,0.5067-1.1319,1.1318-1.1319h2.881c0.6251,0,1.1318,0.5068,1.1318,1.1319v2.881
		C-355.711,309.0601-356.2177,309.5668-356.8428,309.5668z"/>
	<path class="st1" d="M-348.1578,309.5668h-2.881c-0.6251,0-1.1318-0.5067-1.1318-1.1318v-2.881
		c0-0.6251,0.5067-1.1319,1.1318-1.1319h2.881c0.6251,0,1.1319,0.5068,1.1319,1.1319v2.881
		C-347.0259,309.0601-347.5327,309.5668-348.1578,309.5668z"/>
	<path class="st1" d="M-339.4727,309.5668h-2.881c-0.6251,0-1.1319-0.5067-1.1319-1.1318v-2.881
		c0-0.6251,0.5068-1.1319,1.1319-1.1319h2.881c0.6251,0,1.1318,0.5068,1.1318,1.1319v2.881
		C-338.3409,309.0601-338.8476,309.5668-339.4727,309.5668z"/>
	<path class="st1" d="M-313.4176,309.5668h-11.5661c-0.6251,0-1.1318-0.5067-1.1318-1.1318v-2.881
		c0-0.6251,0.5067-1.1319,1.1318-1.1319h11.5661c0.6251,0,1.1318,0.5068,1.1318,1.1319v2.881
		C-312.2858,309.0601-312.7925,309.5668-313.4176,309.5668z"/>
	<path class="st1" d="M-304.7326,309.5668h-2.881c-0.6251,0-1.1318-0.5067-1.1318-1.1318v-2.881
		c0-0.6251,0.5067-1.1319,1.1318-1.1319h2.881c0.6251,0,1.1318,0.5068,1.1318,1.1319v2.881
		C-303.6008,309.0601-304.1075,309.5668-304.7326,309.5668z"/>
	<path class="st1" d="M-408.953,316.8113h-2.881c-0.6251,0-1.1319-0.5067-1.1319-1.1318v-2.881
		c0-0.6251,0.5068-1.1318,1.1319-1.1318h2.881c0.6251,0,1.1318,0.5067,1.1318,1.1318v2.881
		C-407.8212,316.3046-408.3279,316.8113-408.953,316.8113z"/>
	<path class="st1" d="M-356.2769,316.8113h-46.8721c-0.6251,0-1.1318-0.5067-1.1318-1.1318v-2.881
		c0-0.6251,0.5067-1.1318,1.1318-1.1318h46.8721c0.6251,0,1.1318,0.5067,1.1318,1.1318v2.881
		C-355.1451,316.3046-355.6518,316.8113-356.2769,316.8113z"/>
	<path class="st1" d="M-348.1578,316.8113h-2.881c-0.6251,0-1.1318-0.5067-1.1318-1.1318v-2.881
		c0-0.6251,0.5067-1.1318,1.1318-1.1318h2.881c0.6251,0,1.1319,0.5067,1.1319,1.1318v2.881
		C-347.0259,316.3046-347.5327,316.8113-348.1578,316.8113z"/>
	<path class="st1" d="M-339.4727,316.8113h-2.881c-0.6251,0-1.1319-0.5067-1.1319-1.1318v-2.881
		c0-0.6251,0.5068-1.1318,1.1319-1.1318h2.881c0.6251,0,1.1318,0.5067,1.1318,1.1318v2.881
		C-338.3409,316.3046-338.8476,316.8113-339.4727,316.8113z"/>
	<rect x="-326.1155" y="277.3864" class="st2" width="5.1447" height="1.7849"/>
	<rect x="-317.4305" y="277.3864" class="st2" width="5.1447" height="1.7849"/>
	<rect x="-308.7454" y="277.3864" class="st2" width="5.1446" height="1.7849"/>
</g>
</svg>
