<?xml version="1.0" encoding="utf-8"?>
<!-- Generator: Adobe Illustrator 19.0.0, SVG Export Plug-In . SVG Version: 6.00 Build 0)  -->
<svg version="1.1" id="Capa_1" xmlns="http://www.w3.org/2000/svg" xmlns:xlink="http://www.w3.org/1999/xlink" x="0px" y="0px"
	 viewBox="-444 246.5778 69.4236 69.4222" style="enable-background:new -444 246.5778 69.4236 69.4222;" xml:space="preserve">
<style type="text/css">
	.st0{fill:#5B4B43;}
	.st1{fill:#CEC2BD;}
</style>
<g>
	<path class="st0" d="M-428.4429,256.3114c-2.9974,0-5.4266,2.4286-5.4266,5.4273v40.1514c0,2.996,2.4292,5.4259,5.4266,5.4259
		h40.1522c2.9966,0,5.4258-2.43,5.4258-5.4259v-40.1514c0-2.9988-2.4292-5.4273-5.4258-5.4273H-428.4429L-428.4429,256.3114z"/>
	<polygon class="st1" points="-429.3516,302.7989 -387.382,302.7989 -387.382,260.8287 -429.3516,260.8287 -429.3516,302.7989 	"/>
	<polygon class="st0" points="-427.3636,300.8109 -389.3701,300.8109 -389.3701,262.8167 -427.3636,262.8167 -427.3636,300.8109 	
		"/>
	<polygon class="st0" points="-425.2735,253.5067 -419.4727,253.5067 -419.4727,247.7074 -425.2735,247.7074 -425.2735,253.5067 	
		"/>
	<polygon class="st0" points="-415.9365,253.5067 -410.1357,253.5067 -410.1357,247.7074 -415.9365,247.7074 -415.9365,253.5067 	
		"/>
	<polygon class="st0" points="-400.798,253.5067 -400.798,247.7074 -406.5987,247.7074 -406.5987,253.5067 -400.798,253.5067 	"/>
	<polygon class="st0" points="-397.2617,253.5067 -391.4603,253.5067 -391.4603,247.7074 -397.2617,247.7074 -397.2617,253.5067 	
		"/>
	<polygon class="st0" points="-425.2735,316.0047 -419.4727,316.0047 -419.4727,310.204 -425.2735,310.204 -425.2735,316.0047 	"/>
	<polygon class="st0" points="-415.9365,316.0047 -410.1357,316.0047 -410.1357,310.204 -415.9365,310.204 -415.9365,316.0047 	"/>
	<polygon class="st0" points="-400.798,316.0047 -400.798,310.204 -406.5987,310.204 -406.5987,316.0047 -400.798,316.0047 	"/>
	<polygon class="st0" points="-397.2617,316.0047 -391.4603,316.0047 -391.4603,310.204 -397.2617,310.204 -397.2617,316.0047 	"/>
	<polygon class="st0" points="-380.0185,270.7498 -374.2178,270.7498 -374.2178,264.9491 -380.0185,264.9491 -380.0185,270.7498 	
		"/>
	<polygon class="st0" points="-380.0185,280.0875 -374.2178,280.0875 -374.2178,274.2868 -380.0185,274.2868 -380.0185,280.0875 	
		"/>
	<polygon class="st0" points="-380.0185,289.4253 -374.2178,289.4253 -374.2178,283.6246 -380.0185,283.6246 -380.0185,289.4253 	
		"/>
	<polygon class="st0" points="-380.0185,298.7616 -374.2178,298.7616 -374.2178,292.9623 -380.0185,292.9623 -380.0185,298.7616 	
		"/>
	<polygon class="st0" points="-436.7152,270.7498 -436.7152,264.9491 -442.5166,264.9491 -442.5166,270.7498 -436.7152,270.7498 	
		"/>
	<polygon class="st0" points="-436.7152,280.0875 -436.7152,274.2868 -442.5166,274.2868 -442.5166,280.0875 -436.7152,280.0875 	
		"/>
	<polygon class="st0" points="-436.7152,289.4253 -436.7152,283.6246 -442.5166,283.6246 -442.5166,289.4253 -436.7152,289.4253 	
		"/>
	<polygon class="st0" points="-436.7152,298.7616 -436.7152,292.9623 -442.5166,292.9623 -442.5166,298.7616 -436.7152,298.7616 	
		"/>
	<path class="st1" d="M-415.0468,278.1914l0.7643-1.1304c-2.9222-2.7902-9.4303-1.5505-9.4303,4.0957
		c0,5.6432,6.3636,7.2694,9.7052,3.9279l-0.8102-1.0852c-0.8715,0.8708-2.1091,1.4061-3.3167,1.4061
		c-2.5182,0-4.0191-1.9662-4.0191-4.2648C-422.1536,276.8029-417.4694,276.0007-415.0468,278.1914L-415.0468,278.1914z"/>
	<path class="st1" d="M-408.3862,281.3098h-2.201v-4.1729h2.2163C-405.5485,277.1369-405.5901,281.3098-408.3862,281.3098
		L-408.3862,281.3098z M-412.1004,275.8227v10.7905h1.5132v-3.9892h2.4453c4.4873,0,4.5536-6.8013,0-6.8013H-412.1004
		L-412.1004,275.8227z"/>
	<path class="st1" d="M-402.964,275.8227v6.969c0,5.353,8.483,5.3967,8.483,0v-6.969h-1.5133v6.9384
		c0,3.5706-5.4565,3.5487-5.4565,0.0161v-6.9544H-402.964L-402.964,275.8227z"/>
</g>
</svg>
