<?xml version="1.0" encoding="utf-8"?>
<!-- Generator: Adobe Illustrator 19.0.0, SVG Export Plug-In . SVG Version: 6.00 Build 0)  -->
<svg version="1.1" id="Capa_1" xmlns="http://www.w3.org/2000/svg" xmlns:xlink="http://www.w3.org/1999/xlink" x="0px" y="0px"
	 viewBox="-424 243.8145 109.3653 74.1855" style="enable-background:new -424 243.8145 109.3653 74.1855;" xml:space="preserve">
<style type="text/css">
	.st0{fill:#646565;}
	.st1{fill:#5C5A5B;}
	.st2{fill:#FFFFFF;}
	.st3{fill:#4B4A4B;}
	.st4{fill:#5E9CB4;}
	.st5{fill:#458599;}
	.st6{fill:#676867;}
	.st7{fill:#EA5628;}
	.st8{fill:#767677;}
</style>
<g>
	<path class="st0" d="M-368.17,272.6856v20.5664l-37.9589,1.6816l-1.6836,15.7344h-6.7227c-1.4922,0-2.8906-0.4004-4.0976-1.0977
		c-1.2657-0.7246-2.3204-1.7851-3.043-3.0547c-0.7031-1.2129-1.1016-2.6269-1.1016-4.1347v-24.8731
		c0-1.7949,0.5781-3.4668,1.5489-4.8222H-368.17L-368.17,272.6856z"/>
	<path class="st1" d="M-313.4121,277.5117v24.8711c0,4.5782-3.6875,8.2832-8.25,8.2832h-81.7012v-12.9531h35.1875v-25.0312h53.209
		C-313.9883,274.0371-313.4121,275.707-313.4121,277.5117L-313.4121,277.5117z"/>
	<polygon class="st2" points="-403.3633,313.8985 -332.8321,313.8985 -332.8321,297.711 -403.3633,297.711 -403.3633,313.8985 	"/>
	<path class="st3" d="M-368.1758,293.25v4.4629h34.709c0.3535,0,0.6386,0.2891,0.6386,0.6426v14.9004
		c0,0.3535-0.2851,0.6426-0.6386,0.6426h-34.709v4.4628h37.3555c1.3457,0,2.4375-1.0957,2.4375-2.4492v-20.2148
		c0-1.3516-1.0918-2.4473-2.4375-2.4473H-368.1758L-368.1758,293.25z"/>
	<path class="st1" d="M-402.7227,297.7129h34.5469V293.25h-37.1934c-1.3476,0-2.4394,1.0957-2.4394,2.4473v14.9687v5.2461
		c0,1.3535,1.0918,2.4492,2.4394,2.4492h37.1934v-4.4628h-34.5469c-0.3535,0-0.6406-0.2891-0.6406-0.6426v-2.5899v-12.3105
		C-403.3633,298.002-403.0762,297.7129-402.7227,297.7129L-402.7227,297.7129z"/>
	<path class="st4" d="M-368.1758,248.6406v20.5957h-25.8711V250.211c0-0.8653,0.7031-1.5704,1.5742-1.5704H-368.1758
		L-368.1758,248.6406z"/>
	<path class="st5" d="M-343.7188,248.6406h-24.457v20.5957h26.0234V250.211C-342.1524,249.3457-342.8555,248.6406-343.7188,248.6406
		L-343.7188,248.6406z"/>
	<path class="st6" d="M-368.17,244.1758v4.4668h-24.3046c-0.8653,0-1.5684,0.707-1.5684,1.5664v19.0293h-4.4512v-20.4707
		c0-2.5391,2.0449-4.5918,4.5742-4.5918H-368.17L-368.17,244.1758z"/>
	<path class="st1" d="M-337.7051,248.7676v20.4707h-4.4512V250.209c0-0.8594-0.7031-1.5664-1.5586-1.5664H-368.17v-4.4668h25.8907
		c0.789,0,1.5312,0.1992,2.1777,0.5527c0.0098,0.0098,0.0195,0.0098,0.0293,0.0196c0.7598,0.4199,1.3887,1.0507,1.8066,1.8144
		c0,0,0,0.0098,0.0098,0.0176C-337.9063,247.2305-337.7051,247.9746-337.7051,248.7676L-337.7051,248.7676z"/>
	<path class="st2" d="M-331.4903,275.1602c0,0.7441-0.5996,1.3476-1.3418,1.3476c-0.7402,0-1.3418-0.6035-1.3418-1.3476
		c0-0.7442,0.6016-1.3477,1.3418-1.3477C-332.0899,273.8125-331.4903,274.416-331.4903,275.1602L-331.4903,275.1602z"/>
	<path class="st7" d="M-325.7012,275.1602c0,0.7441-0.6016,1.3476-1.3438,1.3476c-0.7402,0-1.3398-0.6035-1.3398-1.3476
		c0-0.7442,0.5996-1.3477,1.3398-1.3477C-326.3028,273.8125-325.7012,274.416-325.7012,275.1602L-325.7012,275.1602z"/>
	<path class="st8" d="M-368.17,269.2383v3.4473h-53.0585c1.4921-2.0918,3.9355-3.4473,6.6933-3.4473H-368.17L-368.17,269.2383z"/>
	<path class="st3" d="M-314.9668,272.6817h-53.209v-3.4454h46.5137C-318.8965,269.2363-316.4512,270.5918-314.9668,272.6817
		L-314.9668,272.6817z"/>
	<polygon class="st1" points="-340.1602,302.2149 -396.1914,302.2149 -396.1914,301.0254 -340.1602,301.0254 -340.1602,302.2149 	
		"/>
	<polygon class="st1" points="-340.1602,305.5078 -396.1914,305.5078 -396.1914,304.3164 -340.1602,304.3164 -340.1602,305.5078 	
		"/>
	<polygon class="st1" points="-340.1602,308.7988 -396.1914,308.7988 -396.1914,307.6094 -340.1602,307.6094 -340.1602,308.7988 	
		"/>
</g>
</svg>
