<?xml version="1.0" encoding="utf-8"?>
<!-- Generator: Adobe Illustrator 19.0.0, SVG Export Plug-In . SVG Version: 6.00 Build 0)  -->
<svg version="1.1" id="Capa_1" xmlns="http://www.w3.org/2000/svg" xmlns:xlink="http://www.w3.org/1999/xlink" x="0px" y="0px"
	 viewBox="-444 229.0574 69.2889 103.9426" style="enable-background:new -444 229.0574 69.2889 103.9426;" xml:space="preserve">
<style type="text/css">
	.st0{fill:#5C5A5B;}
	.st1{fill:#676867;}
	.st2{fill:#6D6D6C;}
	.st3{fill:#444444;}
	.st4{fill:#EF7B4F;}
	.st5{fill:#EA5628;}
</style>
<g>
	<path class="st0" d="M-428.3594,261.4753l-2.4043,1.5479c-0.1504-0.2383-0.3008-0.4678-0.4512-0.707
		c-5.6504-8.9034-10.4687-18.5489-9.1152-29.0616c0.1133-0.9101,0.2734-1.83,0.4863-2.749
		c0.0625-0.2568,0.1231-0.5049,0.1856-0.7607l2.9785-0.1416c-0.1328,0.5127-0.2656,1.0341-0.3789,1.5381
		c-2.4317,10.5742,2.4492,20.4765,8.248,29.6279C-428.6602,261.0076-428.5098,261.2371-428.3594,261.4753L-428.3594,261.4753z"/>
	<path class="st1" d="M-419.1035,284.0388l-11.8809,7.6211l-7.8789,5.0488l-0.7422-1.1582
		c-3.1289-4.8808-4.1465-10.5039-3.2891-15.7998c0.9903-6.1269,4.4746-11.8203,10.1133-15.4365l2.0176-1.291l9.0078,14.0488
		c-0.5039,0.9014-0.4863,2.0772,0.1328,3.042L-419.1035,284.0388L-419.1035,284.0388z"/>
	<path class="st1" d="M-389.4239,325.1121l-3.0859,1.9804c-8.4707,5.4375-19.2031,4.5098-26.5762-1.5644
		c-1.1054-0.9024-2.1308-1.9268-3.0586-3.0596c-0.5761-0.6895-1.1054-1.4229-1.6015-2.1924l-13.7481-21.4228l19.7598-12.6778
		l1.291,2.0157c0.4414,0.6894,1.1055,1.1406,1.8301,1.3173c0.707,0.1768,1.4765,0.0791,2.1308-0.3457L-389.4239,325.1121
		L-389.4239,325.1121z"/>
	<path class="st0" d="M-386.3379,323.1355l-3.086,1.9795l-18.0879-28.2119l-4.9687-7.7364
		c-0.6543,0.4248-1.4238,0.5215-2.1309,0.3457c-0.7246-0.1777-1.3886-0.6279-1.83-1.3183l-1.2911-2.0156l-11.414,7.3203
		l-8.3457,5.3574l-1.3711-2.1475l7.8789-5.0488l11.8809-7.6211l-2.5196-3.9248c-0.6191-0.9648-0.6367-2.1406-0.1328-3.042
		l-9.0078-14.0488l0.3789-0.2383l2.4043-1.5478l1.3711-0.8838c5.6504-3.6172,12.3066-4.4121,18.3008-2.7412
		c3.5371,0.9814,6.8437,2.83,9.5761,5.4648l0.6368,0.6357c0.998,1.043,1.9101,2.2012,2.7226,3.4659l6.0293,9.3984l0.8399,1.3174
		l8.9921,14.0039C-372.7754,302.4109-375.8243,316.3982-386.3379,323.1355L-386.3379,323.1355z"/>
	<polygon class="st2" points="-416.7481,282.5183 -415.3731,284.6628 -437.4903,298.8494 -438.8653,296.7048 -416.7481,282.5183 	
		"/>
	<polygon class="st3" points="-394.6328,268.3318 -393.2559,270.4753 -415.3731,284.6628 -416.7481,282.5183 -394.6328,268.3318 	
		"/>
	<path class="st2" d="M-420.8614,276.1062L-420.8614,276.1062l-8.8359-13.7754l-1.0723,0.6885l9.0098,14.0459l0,0
		C-421.5469,276.6872-421.2461,276.3533-420.8614,276.1062L-420.8614,276.1062z"/>
	<path class="st4" d="M-420.8614,276.1062c-0.3847,0.2471-0.6855,0.581-0.8984,0.959l0,0c-0.498,0.9062-0.4844,2.0771,0.1348,3.042
		l5.1855,8.084c0.4414,0.6865,1.1035,1.1386,1.8223,1.3134c0.7109,0.1807,1.4824,0.0791,2.1328-0.3388L-420.8614,276.1062
		L-420.8614,276.1062z"/>
	<path class="st3" d="M-419.6153,275.6902L-419.6153,275.6902l-9.0097-14.0469l-1.0723,0.6875l8.8359,13.7754
		C-420.4746,275.8581-420.0469,275.7253-419.6153,275.6902L-419.6153,275.6902z"/>
	<path class="st5" d="M-411.7207,285.1658l-5.1856-8.085c-0.4414-0.6865-1.1035-1.1387-1.8222-1.3135
		c-0.2911-0.0761-0.586-0.0976-0.8868-0.0771l0,0c-0.4316,0.0351-0.8593,0.1679-1.2461,0.416l0,0l8.377,13.0596
		C-411.1836,288.3318-410.8399,286.5378-411.7207,285.1658L-411.7207,285.1658z"/>
</g>
</svg>
