<?xml version="1.0" encoding="utf-8"?>
<!-- Generator: Adobe Illustrator 19.0.0, SVG Export Plug-In . SVG Version: 6.00 Build 0)  -->
<svg version="1.1" id="Capa_1" xmlns="http://www.w3.org/2000/svg" xmlns:xlink="http://www.w3.org/1999/xlink" x="0px" y="0px"
	 viewBox="-433 245.4707 91.455 71.5293" style="enable-background:new -433 245.4707 91.455 71.5293;" xml:space="preserve">
<style type="text/css">
	.st0{fill:#FFFFFF;}
	.st1{fill:#1AA6C8;}
	.st2{fill:#1196A4;}
	.st3{fill:#C7E5E1;}
	.st4{fill:#B6CECA;}
	.st5{fill:#B0B0B0;}
	.st6{fill:#626262;}
	.st7{fill:#4E4C4D;}
</style>
<g>
	<polygon class="st0" points="-344.2276,282.2636 -344.2276,282.2558 -344.2344,282.2636 -344.2276,282.2636 	"/>
	<path class="st0" d="M-419.7842,270.6201l16.3242,4.7461l17.8545-13.1924l18.4199,12.2051l14.5313-15.5684l8.0136,3.708v-8.1279
		c0-2.8359-2.3076-5.1445-5.1455-5.1445h-73.165c-2.8359,0-5.1436,2.3086-5.1436,5.1445v22.8242L-419.7842,270.6201
		L-419.7842,270.6201z"/>
	<polygon class="st1" points="-386.3721,262.7431 -386.3721,265.997 -402.7061,278.1093 -419.0078,273.3691 -428.0987,280.58 
		-428.0987,277.2138 -419.7842,270.6181 -403.458,275.3672 -386.3721,262.7431 	"/>
	<polygon class="st2" points="-344.6387,262.5195 -344.6387,265.2695 -351.834,261.9355 -366.6641,277.83 -385.5,265.3496 
		-386.3721,265.997 -386.3721,262.7431 -385.6055,262.1757 -367.1836,274.3759 -352.6573,258.8095 -344.6387,262.5195 	"/>
	<path class="st1" d="M-386.3721,269.2509v33.9873h-36.5781c-2.8379,0-5.1485-2.3027-5.1485-5.1406v-14.1435l9.8741-7.835
		l16.2382,4.7168L-386.3721,269.2509L-386.3721,269.2509z"/>
	<path class="st2" d="M-344.6387,268.0195v30.0781c0,2.8379-2.3096,5.1406-5.1484,5.1406h-36.585v-33.9873l0.9824-0.7275
		l19.2529,12.752l15.1348-16.2061L-344.6387,268.0195L-344.6387,268.0195z"/>
	<polygon class="st0" points="-366.6641,277.831 -385.5,265.3476 -402.7032,278.1084 -419.0039,273.3681 -428.0948,280.5781 
		-428.0948,283.9521 -418.2237,276.1201 -401.9854,280.8388 -385.3868,268.5214 -366.1338,281.2773 -351.0039,265.0693 
		-344.6407,268.0205 -344.6407,265.2666 -351.8301,261.9375 -366.6641,277.831 	"/>
	<path class="st3" d="M-422.9502,249.248h36.5781v-3.998h-36.5781c-5.045,0-9.1455,4.1015-9.1455,9.1386v43.709
		c0,5.0371,4.1005,9.1377,9.1455,9.1377h36.5781v-3.9971h-36.5781c-2.8379,0-5.1485-2.3027-5.1485-5.1406v-43.709
		C-428.0987,251.5576-425.7881,249.248-422.9502,249.248L-422.9502,249.248z"/>
	<path class="st4" d="M-340.6407,254.3886v43.709c0,2.2539-0.832,4.3174-2.1826,5.9082c-0.0078,0.0088-0.0078,0.0088-0.0078,0.0088
		c-1.6797,1.9658-4.1738,3.2207-6.956,3.2207h-36.585v-3.9971h36.585c2.8388,0,5.1484-2.3027,5.1484-5.1406v-43.709
		c0-2.831-2.3096-5.1406-5.1484-5.1406h-36.585v-3.998h36.585C-344.7422,245.25-340.6407,249.3515-340.6407,254.3886
		L-340.6407,254.3886z"/>
	<polygon class="st5" points="-384.4541,313.1816 -388.3184,313.1816 -388.3184,307.2353 -384.4541,307.2353 -384.4541,313.1816 	
		"/>
	<path class="st6" d="M-386.3828,313.1816v3.5977h-14.6465v-1.9991c0-0.8789,0.7275-1.5986,1.5996-1.5986H-386.3828
		L-386.3828,313.1816z"/>
	<path class="st7" d="M-371.7422,314.7802v1.9991h-14.6406v-3.5977h13.041C-372.4629,313.1816-371.7422,313.9013-371.7422,314.7802
		L-371.7422,314.7802z"/>
</g>
</svg>
