<?xml version="1.0" encoding="utf-8"?>
<!-- Generator: Adobe Illustrator 19.0.0, SVG Export Plug-In . SVG Version: 6.00 Build 0)  -->
<svg version="1.1" id="Capa_1" xmlns="http://www.w3.org/2000/svg" xmlns:xlink="http://www.w3.org/1999/xlink" x="0px" y="0px"
	 viewBox="0 0 50.6601 93.3042" style="enable-background:new 0 0 50.6601 93.3042;" xml:space="preserve">
<style type="text/css">
	.st0{fill-rule:evenodd;clip-rule:evenodd;fill:#5B5B5B;}
	.st1{fill-rule:evenodd;clip-rule:evenodd;fill:#124064;stroke:#124064;stroke-miterlimit:10;}
	.st2{fill-rule:evenodd;clip-rule:evenodd;fill:#7C7C7B;}
	.st3{fill:#A6D864;}
</style>
<g id="XMLID_70_">
	<g id="XMLID_79_">
		<path id="XMLID_86_" class="st0" d="M3.3962,0h43.866C49.131,0,50.66,1.529,50.66,3.3978V89.907
			c0,1.8684-1.5287,3.3971-3.3971,3.3971H3.3977c-1.8688,0-3.3979-1.529-3.3979-3.3979V3.3963C-0.0002,1.5283,1.5282,0,3.3962,0z"/>
		<rect id="XMLID_83_" x="1.5553" y="8.2751" class="st1" width="47.5492" height="78.1791"/>
		<rect id="XMLID_82_" x="20.4321" y="5.3137" class="st2" width="9.7958" height="0.9871"/>
		<circle id="XMLID_81_" class="st2" cx="25.3307" cy="3.2159" r="0.925"/>
		<circle id="XMLID_80_" class="st2" cx="25.3307" cy="89.834" r="2.1108"/>
	</g>
	<g id="XMLID_71_">
		<path id="XMLID_78_" class="st3" d="M29.2344,66.0666c1.2506,0,2.3413-1.0906,2.3413-2.3413v-5.4679h1.5633
			c0.9381,0,1.5633-0.6254,1.5633-1.5633v-15.617H15.9575v15.6171c0,0.938,0.6254,1.5633,1.5633,1.5633h1.5634v5.4679
			c0,1.2506,1.0903,2.3413,2.3413,2.3413c1.2505,0,2.341-1.0906,2.341-2.3413v-5.4679h3.1267v5.4679
			C26.8931,64.976,27.9837,66.0666,29.2344,66.0666z"/>
		<path id="XMLID_77_" class="st3" d="M38.6069,56.6943c1.2506,0,2.341-1.0905,2.341-2.3413V43.4174
			c0-1.2441-1.0903-2.3402-2.341-2.3402c-1.2508,0-2.3413,1.0963-2.3413,2.3402v10.9356
			C36.2656,55.6037,37.356,56.6943,38.6069,56.6943z"/>
		<path id="XMLID_76_" class="st3" d="M12.0529,56.6943c1.2508,0,2.3413-1.0905,2.3413-2.3413V43.4174
			c0-1.2441-1.0903-2.3402-2.3413-2.3402c-1.2506,0-2.341,1.0963-2.341,2.3402v10.9356
			C9.7119,55.6037,10.8023,56.6943,12.0529,56.6943z"/>
		<path id="XMLID_72_" class="st3" d="M32.8261,28.8983c-0.3125-0.3145-0.7778-0.3145-1.0903,0l-2.0968,2.0897l-0.0967,0.0966
			c-1.2432-0.6226-2.6372-0.9335-4.1895-0.9365c-0.0076,0-0.0151-0.0002-0.0227-0.0002h-0.0002
			c-0.0079,0-0.0151,0.0002-0.0229,0.0002c-1.5522,0.003-2.9461,0.3139-4.1893,0.9365l-0.0969-0.0966l-2.0968-2.0897
			c-0.3127-0.3145-0.7778-0.3145-1.0903,0c-0.3127,0.3127-0.3127,0.7769,0,1.0895l2.0282,2.0286
			c-0.6536,0.4364-1.2462,0.9703-1.7615,1.5811c-1.2338,1.4624-2.0208,3.3657-2.129,5.4279
			c-0.001,0.0215-0.0031,0.0427-0.0041,0.0641c-0.0066,0.1404-0.0097,0.2816-0.0097,0.4233h18.7447
			c0-0.1417-0.0034-0.2828-0.0097-0.4233c-0.001-0.0215-0.0031-0.0427-0.0044-0.0641c-0.108-2.0622-0.8951-3.9656-2.129-5.4278
			c-0.5151-0.6107-1.108-1.1447-1.7615-1.5811l2.0284-2.0286C33.1389,29.6753,33.1389,29.2112,32.8261,28.8983z M21.4225,36.7832
			c-0.6468,0-1.1711-0.5243-1.1711-1.1711s0.5243-1.1711,1.1711-1.1711c0.6468,0,1.1711,0.5243,1.1711,1.1711
			S22.0693,36.7832,21.4225,36.7832z M29.2372,36.7832c-0.6468,0-1.1711-0.5243-1.1711-1.1711s0.5243-1.1711,1.1711-1.1711
			c0.6468,0,1.1711,0.5243,1.1711,1.1711S29.884,36.7832,29.2372,36.7832z"/>
	</g>
</g>
<g id="XMLID_1_">
</g>
<g id="XMLID_2_">
</g>
<g id="XMLID_3_">
</g>
<g id="XMLID_4_">
</g>
<g id="XMLID_5_">
</g>
<g id="XMLID_6_">
</g>
<g id="XMLID_7_">
</g>
<g id="XMLID_8_">
</g>
<g id="XMLID_9_">
</g>
<g id="XMLID_10_">
</g>
<g id="XMLID_11_">
</g>
<g id="XMLID_12_">
</g>
<g id="XMLID_13_">
</g>
<g id="XMLID_14_">
</g>
<g id="XMLID_15_">
</g>
</svg>
