<?xml version="1.0" encoding="utf-8"?>
<!-- Generator: Adobe Illustrator 19.0.0, SVG Export Plug-In . SVG Version: 6.00 Build 0)  -->
<svg version="1.1" id="Capa_1" xmlns="http://www.w3.org/2000/svg" xmlns:xlink="http://www.w3.org/1999/xlink" x="0px" y="0px"
	 viewBox="0 0 51 78" style="enable-background:new 0 0 51 78;" xml:space="preserve">
<style type="text/css">
	.st0{fill:#335E59;}
	.st1{fill:#71B8B0;}
	.st2{fill-rule:evenodd;clip-rule:evenodd;fill:#D6FFFA;}
	.st3{fill-rule:evenodd;clip-rule:evenodd;fill:#71B8B0;}
	.st4{fill:#2F2C29;}
</style>
<g id="XMLID_98_">
	<g id="XMLID_156_">
		<path id="XMLID_3_" class="st0" d="M51,4.6133C51,2,49.2143,0,46.6009,0H5.444C2.8307,0,0,2,0,4.6134V72h51V4.6133z"/>
		<path id="XMLID_4_" class="st1" d="M5.444,78h41.1569C49.2143,78,51,75.8529,51,73.2395V72H0v1.2395C0,75.8528,2.8307,78,5.444,78
			z"/>
	</g>
	<rect id="XMLID_155_" x="4.0196" y="8.0223" class="st2" width="44.6935" height="34.3182"/>
	<path id="XMLID_154_" class="st3" d="M18.861,4.1769h15.0124c0.4071,0,0.7407-0.3336,0.7407-0.7416l0,0
		c0-0.408-0.3336-0.7416-0.7407-0.7416H18.861c-0.4072,0-0.7407,0.3336-0.7407,0.7416l0,0
		C18.1203,3.8433,18.4538,4.1769,18.861,4.1769z"/>
	<path id="XMLID_153_" class="st3" d="M7.3661,49.4134H5.3517c-0.472,0-0.8546-0.3826-0.8546-0.8546v-1.7673
		c0-0.472,0.3826-0.8546,0.8546-0.8546h2.0144c0.472,0,0.8546,0.3826,0.8546,0.8546v1.7673
		C8.2208,49.0308,7.8382,49.4134,7.3661,49.4134z"/>
	<path id="XMLID_152_" class="st3" d="M11.8903,49.4134H9.8759c-0.472,0-0.8546-0.3826-0.8546-0.8546v-1.7673
		c0-0.472,0.3826-0.8546,0.8546-0.8546h2.0144c0.472,0,0.8546,0.3826,0.8546,0.8546v1.7673
		C12.745,49.0308,12.3623,49.4134,11.8903,49.4134z"/>
	<path id="XMLID_151_" class="st3" d="M16.4145,49.4134h-2.0144c-0.472,0-0.8546-0.3826-0.8546-0.8546v-1.7673
		c0-0.472,0.3826-0.8546,0.8546-0.8546h2.0144c0.472,0,0.8546,0.3826,0.8546,0.8546v1.7673
		C17.2691,49.0308,16.8865,49.4134,16.4145,49.4134z"/>
	<path id="XMLID_150_" class="st3" d="M20.9386,49.4134h-2.0144c-0.472,0-0.8546-0.3826-0.8546-0.8546v-1.7673
		c0-0.472,0.3826-0.8546,0.8546-0.8546h2.0144c0.472,0,0.8546,0.3826,0.8546,0.8546v1.7673
		C21.7933,49.0308,21.4106,49.4134,20.9386,49.4134z"/>
	<path id="XMLID_149_" class="st3" d="M25.4628,49.4134h-2.0144c-0.472,0-0.8546-0.3826-0.8546-0.8546v-1.7673
		c0-0.472,0.3826-0.8546,0.8546-0.8546h2.0144c0.472,0,0.8546,0.3826,0.8546,0.8546v1.7673
		C26.3174,49.0308,25.9348,49.4134,25.4628,49.4134z"/>
	<path id="XMLID_148_" class="st3" d="M29.9869,49.4134h-2.0144c-0.472,0-0.8546-0.3826-0.8546-0.8546v-1.7673
		c0-0.472,0.3826-0.8546,0.8546-0.8546h2.0144c0.472,0,0.8546,0.3826,0.8546,0.8546v1.7673
		C30.8416,49.0308,30.4589,49.4134,29.9869,49.4134z"/>
	<path id="XMLID_147_" class="st3" d="M34.5111,49.4134h-2.0144c-0.472,0-0.8546-0.3826-0.8546-0.8546v-1.7673
		c0-0.472,0.3826-0.8546,0.8546-0.8546h2.0144c0.472,0,0.8546,0.3826,0.8546,0.8546v1.7673
		C35.3657,49.0308,34.9831,49.4134,34.5111,49.4134z"/>
	<path id="XMLID_146_" class="st3" d="M39.0353,49.4134h-2.0144c-0.472,0-0.8546-0.3826-0.8546-0.8546v-1.7673
		c0-0.472,0.3826-0.8546,0.8546-0.8546h2.0144c0.472,0,0.8546,0.3826,0.8546,0.8546v1.7673
		C39.8899,49.0308,39.5073,49.4134,39.0353,49.4134z"/>
	<path id="XMLID_145_" class="st3" d="M43.5594,49.4134H41.545c-0.472,0-0.8546-0.3826-0.8546-0.8546v-1.7673
		c0-0.472,0.3826-0.8546,0.8546-0.8546h2.0144c0.472,0,0.8546,0.3826,0.8546,0.8546v1.7673
		C44.4141,49.0308,44.0314,49.4134,43.5594,49.4134z"/>
	<path id="XMLID_144_" class="st3" d="M48.0836,49.4134h-2.0144c-0.472,0-0.8546-0.3826-0.8546-0.8546v-1.7673
		c0-0.472,0.3826-0.8546,0.8546-0.8546h2.0144c0.472,0,0.8546,0.3826,0.8546,0.8546v1.7673
		C48.9382,49.0308,48.5556,49.4134,48.0836,49.4134z"/>
	<path id="XMLID_143_" class="st3" d="M7.3661,54.151H5.3517c-0.472,0-0.8546-0.3826-0.8546-0.8546V51.529
		c0-0.472,0.3826-0.8546,0.8546-0.8546h2.0144c0.472,0,0.8546,0.3826,0.8546,0.8546v1.7673
		C8.2208,53.7683,7.8382,54.151,7.3661,54.151z"/>
	<path id="XMLID_142_" class="st3" d="M11.8903,54.151H9.8759c-0.472,0-0.8546-0.3826-0.8546-0.8546V51.529
		c0-0.472,0.3826-0.8546,0.8546-0.8546h2.0144c0.472,0,0.8546,0.3826,0.8546,0.8546v1.7673
		C12.745,53.7683,12.3623,54.151,11.8903,54.151z"/>
	<path id="XMLID_141_" class="st3" d="M16.4145,54.151h-2.0144c-0.472,0-0.8546-0.3826-0.8546-0.8546V51.529
		c0-0.472,0.3826-0.8546,0.8546-0.8546h2.0144c0.472,0,0.8546,0.3826,0.8546,0.8546v1.7673
		C17.2691,53.7683,16.8865,54.151,16.4145,54.151z"/>
	<path id="XMLID_140_" class="st3" d="M20.9386,54.151h-2.0144c-0.472,0-0.8546-0.3826-0.8546-0.8546V51.529
		c0-0.472,0.3826-0.8546,0.8546-0.8546h2.0144c0.472,0,0.8546,0.3826,0.8546,0.8546v1.7673
		C21.7933,53.7683,21.4106,54.151,20.9386,54.151z"/>
	<path id="XMLID_139_" class="st3" d="M25.4628,54.151h-2.0144c-0.472,0-0.8546-0.3826-0.8546-0.8546V51.529
		c0-0.472,0.3826-0.8546,0.8546-0.8546h2.0144c0.472,0,0.8546,0.3826,0.8546,0.8546v1.7673
		C26.3174,53.7683,25.9348,54.151,25.4628,54.151z"/>
	<path id="XMLID_138_" class="st3" d="M29.9869,54.151h-2.0144c-0.472,0-0.8546-0.3826-0.8546-0.8546V51.529
		c0-0.472,0.3826-0.8546,0.8546-0.8546h2.0144c0.472,0,0.8546,0.3826,0.8546,0.8546v1.7673
		C30.8416,53.7683,30.4589,54.151,29.9869,54.151z"/>
	<path id="XMLID_137_" class="st3" d="M34.5111,54.151h-2.0144c-0.472,0-0.8546-0.3826-0.8546-0.8546V51.529
		c0-0.472,0.3826-0.8546,0.8546-0.8546h2.0144c0.472,0,0.8546,0.3826,0.8546,0.8546v1.7673
		C35.3657,53.7683,34.9831,54.151,34.5111,54.151z"/>
	<path id="XMLID_136_" class="st3" d="M39.0353,54.151h-2.0144c-0.472,0-0.8546-0.3826-0.8546-0.8546V51.529
		c0-0.472,0.3826-0.8546,0.8546-0.8546h2.0144c0.472,0,0.8546,0.3826,0.8546,0.8546v1.7673
		C39.8899,53.7683,39.5073,54.151,39.0353,54.151z"/>
	<path id="XMLID_135_" class="st3" d="M43.5594,54.151H41.545c-0.472,0-0.8546-0.3826-0.8546-0.8546V51.529
		c0-0.472,0.3826-0.8546,0.8546-0.8546h2.0144c0.472,0,0.8546,0.3826,0.8546,0.8546v1.7673
		C44.4141,53.7683,44.0314,54.151,43.5594,54.151z"/>
	<path id="XMLID_134_" class="st3" d="M48.0836,54.151h-2.0144c-0.472,0-0.8546-0.3826-0.8546-0.8546V51.529
		c0-0.472,0.3826-0.8546,0.8546-0.8546h2.0144c0.472,0,0.8546,0.3826,0.8546,0.8546v1.7673
		C48.9382,53.7683,48.5556,54.151,48.0836,54.151z"/>
	<path id="XMLID_133_" class="st3" d="M7.3661,58.8885H5.3517c-0.472,0-0.8546-0.3826-0.8546-0.8546v-1.7673
		c0-0.472,0.3826-0.8546,0.8546-0.8546h2.0144c0.472,0,0.8546,0.3826,0.8546,0.8546v1.7673
		C8.2208,58.5058,7.8382,58.8885,7.3661,58.8885z"/>
	<path id="XMLID_132_" class="st3" d="M11.8903,58.8885H9.8759c-0.472,0-0.8546-0.3826-0.8546-0.8546v-1.7673
		c0-0.472,0.3826-0.8546,0.8546-0.8546h2.0144c0.472,0,0.8546,0.3826,0.8546,0.8546v1.7673
		C12.745,58.5058,12.3623,58.8885,11.8903,58.8885z"/>
	<path id="XMLID_131_" class="st3" d="M16.4145,58.8885h-2.0144c-0.472,0-0.8546-0.3826-0.8546-0.8546v-1.7673
		c0-0.472,0.3826-0.8546,0.8546-0.8546h2.0144c0.472,0,0.8546,0.3826,0.8546,0.8546v1.7673
		C17.2691,58.5058,16.8865,58.8885,16.4145,58.8885z"/>
	<path id="XMLID_130_" class="st3" d="M20.9386,58.8885h-2.0144c-0.472,0-0.8546-0.3826-0.8546-0.8546v-1.7673
		c0-0.472,0.3826-0.8546,0.8546-0.8546h2.0144c0.472,0,0.8546,0.3826,0.8546,0.8546v1.7673
		C21.7933,58.5058,21.4106,58.8885,20.9386,58.8885z"/>
	<path id="XMLID_129_" class="st3" d="M25.4628,58.8885h-2.0144c-0.472,0-0.8546-0.3826-0.8546-0.8546v-1.7673
		c0-0.472,0.3826-0.8546,0.8546-0.8546h2.0144c0.472,0,0.8546,0.3826,0.8546,0.8546v1.7673
		C26.3174,58.5058,25.9348,58.8885,25.4628,58.8885z"/>
	<path id="XMLID_128_" class="st3" d="M29.9869,58.8885h-2.0144c-0.472,0-0.8546-0.3826-0.8546-0.8546v-1.7673
		c0-0.472,0.3826-0.8546,0.8546-0.8546h2.0144c0.472,0,0.8546,0.3826,0.8546,0.8546v1.7673
		C30.8416,58.5058,30.4589,58.8885,29.9869,58.8885z"/>
	<path id="XMLID_127_" class="st3" d="M34.5111,58.8885h-2.0144c-0.472,0-0.8546-0.3826-0.8546-0.8546v-1.7673
		c0-0.472,0.3826-0.8546,0.8546-0.8546h2.0144c0.472,0,0.8546,0.3826,0.8546,0.8546v1.7673
		C35.3657,58.5058,34.9831,58.8885,34.5111,58.8885z"/>
	<path id="XMLID_126_" class="st3" d="M39.0353,58.8885h-2.0144c-0.472,0-0.8546-0.3826-0.8546-0.8546v-1.7673
		c0-0.472,0.3826-0.8546,0.8546-0.8546h2.0144c0.472,0,0.8546,0.3826,0.8546,0.8546v1.7673
		C39.8899,58.5058,39.5073,58.8885,39.0353,58.8885z"/>
	<path id="XMLID_125_" class="st3" d="M43.5594,58.8885H41.545c-0.472,0-0.8546-0.3826-0.8546-0.8546v-1.7673
		c0-0.472,0.3826-0.8546,0.8546-0.8546h2.0144c0.472,0,0.8546,0.3826,0.8546,0.8546v1.7673
		C44.4141,58.5058,44.0314,58.8885,43.5594,58.8885z"/>
	<path id="XMLID_124_" class="st3" d="M48.0836,58.8885h-2.0144c-0.472,0-0.8546-0.3826-0.8546-0.8546v-1.7673
		c0-0.472,0.3826-0.8546,0.8546-0.8546h2.0144c0.472,0,0.8546,0.3826,0.8546,0.8546v1.7673
		C48.9382,58.5058,48.5556,58.8885,48.0836,58.8885z"/>
	<path id="XMLID_123_" class="st3" d="M7.3661,63.626H5.3517c-0.472,0-0.8546-0.3826-0.8546-0.8546v-1.7673
		c0-0.472,0.3826-0.8546,0.8546-0.8546h2.0144c0.472,0,0.8546,0.3826,0.8546,0.8546v1.7673
		C8.2208,63.2433,7.8382,63.626,7.3661,63.626z"/>
	<path id="XMLID_122_" class="st3" d="M11.8903,63.626H9.8759c-0.472,0-0.8546-0.3826-0.8546-0.8546v-1.7673
		c0-0.472,0.3826-0.8546,0.8546-0.8546h2.0144c0.472,0,0.8546,0.3826,0.8546,0.8546v1.7673
		C12.745,63.2433,12.3623,63.626,11.8903,63.626z"/>
	<path id="XMLID_121_" class="st3" d="M16.4145,63.626h-2.0144c-0.472,0-0.8546-0.3826-0.8546-0.8546v-1.7673
		c0-0.472,0.3826-0.8546,0.8546-0.8546h2.0144c0.472,0,0.8546,0.3826,0.8546,0.8546v1.7673
		C17.2691,63.2433,16.8865,63.626,16.4145,63.626z"/>
	<path id="XMLID_120_" class="st3" d="M20.9386,63.626h-2.0144c-0.472,0-0.8546-0.3826-0.8546-0.8546v-1.7673
		c0-0.472,0.3826-0.8546,0.8546-0.8546h2.0144c0.472,0,0.8546,0.3826,0.8546,0.8546v1.7673
		C21.7933,63.2433,21.4106,63.626,20.9386,63.626z"/>
	<path id="XMLID_119_" class="st3" d="M25.4628,63.626h-2.0144c-0.472,0-0.8546-0.3826-0.8546-0.8546v-1.7673
		c0-0.472,0.3826-0.8546,0.8546-0.8546h2.0144c0.472,0,0.8546,0.3826,0.8546,0.8546v1.7673
		C26.3174,63.2433,25.9348,63.626,25.4628,63.626z"/>
	<path id="XMLID_118_" class="st3" d="M29.9869,63.626h-2.0144c-0.472,0-0.8546-0.3826-0.8546-0.8546v-1.7673
		c0-0.472,0.3826-0.8546,0.8546-0.8546h2.0144c0.472,0,0.8546,0.3826,0.8546,0.8546v1.7673
		C30.8416,63.2433,30.4589,63.626,29.9869,63.626z"/>
	<path id="XMLID_117_" class="st3" d="M34.5111,63.626h-2.0144c-0.472,0-0.8546-0.3826-0.8546-0.8546v-1.7673
		c0-0.472,0.3826-0.8546,0.8546-0.8546h2.0144c0.472,0,0.8546,0.3826,0.8546,0.8546v1.7673
		C35.3657,63.2433,34.9831,63.626,34.5111,63.626z"/>
	<path id="XMLID_116_" class="st3" d="M39.0353,63.626h-2.0144c-0.472,0-0.8546-0.3826-0.8546-0.8546v-1.7673
		c0-0.472,0.3826-0.8546,0.8546-0.8546h2.0144c0.472,0,0.8546,0.3826,0.8546,0.8546v1.7673
		C39.8899,63.2433,39.5073,63.626,39.0353,63.626z"/>
	<path id="XMLID_115_" class="st3" d="M43.5594,63.626H41.545c-0.472,0-0.8546-0.3826-0.8546-0.8546v-1.7673
		c0-0.472,0.3826-0.8546,0.8546-0.8546h2.0144c0.472,0,0.8546,0.3826,0.8546,0.8546v1.7673
		C44.4141,63.2433,44.0314,63.626,43.5594,63.626z"/>
	<path id="XMLID_114_" class="st3" d="M48.0836,63.626h-2.0144c-0.472,0-0.8546-0.3826-0.8546-0.8546v-1.7673
		c0-0.472,0.3826-0.8546,0.8546-0.8546h2.0144c0.472,0,0.8546,0.3826,0.8546,0.8546v1.7673
		C48.9382,63.2433,48.5556,63.626,48.0836,63.626z"/>
	<path id="XMLID_113_" class="st3" d="M7.3661,68.3635H5.3517c-0.472,0-0.8546-0.3826-0.8546-0.8547v-1.7673
		c0-0.472,0.3826-0.8546,0.8546-0.8546h2.0144c0.472,0,0.8546,0.3826,0.8546,0.8546v1.7673
		C8.2208,67.9809,7.8382,68.3635,7.3661,68.3635z"/>
	<path id="XMLID_112_" class="st3" d="M11.8903,68.3635H9.8759c-0.472,0-0.8546-0.3826-0.8546-0.8547v-1.7673
		c0-0.472,0.3826-0.8546,0.8546-0.8546h2.0144c0.472,0,0.8546,0.3826,0.8546,0.8546v1.7673
		C12.745,67.9809,12.3623,68.3635,11.8903,68.3635z"/>
	<path id="XMLID_111_" class="st3" d="M16.4145,68.3635h-2.0144c-0.472,0-0.8546-0.3826-0.8546-0.8547v-1.7673
		c0-0.472,0.3826-0.8546,0.8546-0.8546h2.0144c0.472,0,0.8546,0.3826,0.8546,0.8546v1.7673
		C17.2691,67.9809,16.8865,68.3635,16.4145,68.3635z"/>
	<path id="XMLID_110_" class="st3" d="M34.5111,68.3635H18.9242c-0.472,0-0.8546-0.3826-0.8546-0.8547v-1.7673
		c0-0.472,0.3826-0.8546,0.8546-0.8546h15.5869c0.472,0,0.8546,0.3826,0.8546,0.8546v1.7673
		C35.3657,67.9809,34.9831,68.3635,34.5111,68.3635z"/>
	<path id="XMLID_109_" class="st3" d="M39.0353,68.3635h-2.0144c-0.472,0-0.8546-0.3826-0.8546-0.8547v-1.7673
		c0-0.472,0.3826-0.8546,0.8546-0.8546h2.0144c0.472,0,0.8546,0.3826,0.8546,0.8546v1.7673
		C39.8899,67.9809,39.5073,68.3635,39.0353,68.3635z"/>
	<path id="XMLID_108_" class="st3" d="M43.5594,68.3635H41.545c-0.472,0-0.8546-0.3826-0.8546-0.8547v-1.7673
		c0-0.472,0.3826-0.8546,0.8546-0.8546h2.0144c0.472,0,0.8546,0.3826,0.8546,0.8546v1.7673
		C44.4141,67.9809,44.0314,68.3635,43.5594,68.3635z"/>
	<path id="XMLID_107_" class="st3" d="M48.0836,68.3635h-2.0144c-0.472,0-0.8546-0.3826-0.8546-0.8547v-1.7673
		c0-0.472,0.3826-0.8546,0.8546-0.8546h2.0144c0.472,0,0.8546,0.3826,0.8546,0.8546v1.7673
		C48.9382,67.9809,48.5556,68.3635,48.0836,68.3635z"/>
	<path id="XMLID_99_" class="st4" d="M21.1295,15.8457l-0.0126-0.2178l-0.026-0.2165l-0.0507-0.2169l-0.0636-0.2169l-0.1013-0.2165
		l-0.116-0.2169l-0.0762-0.1013l-0.0766-0.1026l-0.0896-0.0896l-0.0888-0.1017l-0.1152-0.0892l-0.1017-0.0896l-0.1277-0.0766
		l-0.1277-0.0766l-0.1399-0.0762L19.663,13.664l-0.1663-0.0641l-0.1654-0.0502l-0.1788-0.0636l-0.1905-0.0381l-0.2044-0.0515
		l-0.2169-0.026l-0.229-0.0247l-0.2425-0.0255l-0.2429-0.013h-4.706l-1.263,5.8287h4.9618l0.3191-0.013l0.2936-0.0251l0.2927-0.0385
		l0.268-0.0381l0.268-0.0511l0.242-0.0511l0.2295-0.0766l0.2169-0.0636l0.2169-0.0762l0.1909-0.0896l0.1788-0.1022l0.1775-0.0896
		l0.1533-0.1147l0.1533-0.1017l0.1398-0.1147l0.1277-0.1277l0.1152-0.1152l0.1147-0.1277l0.0896-0.1398l0.0896-0.1277l0.0766-0.1398
		l0.0766-0.1407l0.0641-0.1399l0.0507-0.1528l0.0381-0.1407l0.0385-0.1533l0.0381-0.1403l0.0381-0.3057L21.1295,15.8457z
		 M33.0803,15.8457l-0.013-0.2178l-0.0264-0.2165l-0.0507-0.2169l-0.0636-0.2169l-0.0507-0.1147l-0.0511-0.1017l-0.0511-0.1147
		l-0.0632-0.1022l-0.0766-0.1013l-0.0775-0.1026l-0.0888-0.0896l-0.0888-0.1017l-0.1147-0.0892l-0.1152-0.0896l-0.1152-0.0766
		l-0.1277-0.0766l-0.1399-0.0762L31.613,13.664l-0.165-0.0636l-0.1658-0.0507l-0.1788-0.0636l-0.1914-0.0381l-0.2039-0.0511
		l-0.2169-0.026l-0.2295-0.0251l-0.2295-0.026l-0.2555-0.0126h-4.7064l-1.2496,5.8282h4.9489l0.3187-0.013l0.2936-0.0251
		l0.294-0.0385l0.2671-0.0381l0.2676-0.0511l0.2429-0.0511l0.2295-0.0766l0.2295-0.0636l0.2044-0.0762l0.1905-0.0896l0.1918-0.1022
		l0.165-0.0896l0.1658-0.1147l0.1407-0.1017l0.1399-0.1147l0.1273-0.1277l0.1147-0.1152l0.1152-0.1277l0.0888-0.1398l0.0896-0.1277
		l0.0771-0.1399l0.0762-0.1407l0.0636-0.1399l0.0511-0.1528l0.0381-0.1407l0.0381-0.1533l0.0381-0.1403l0.0385-0.3057
		L33.0803,15.8457L33.0803,15.8457z M19.5227,24.6203l-0.013-0.2039l-0.0255-0.2169L19.4461,23.97L19.369,23.753l-0.0381-0.1022
		l-0.0511-0.1147l-0.0632-0.1022l-0.0641-0.1022l-0.0766-0.1013l-0.0762-0.1022L18.91,23.027l-0.0892-0.0892l-0.1017-0.0896
		l-0.1147-0.0888l-0.1277-0.0892l-0.1277-0.0766l-0.1407-0.0775l-0.1528-0.0632l-0.1533-0.0636l-0.1788-0.0636l-0.1784-0.0511
		l-0.1914-0.0507l-0.2044-0.0381l-0.2165-0.0385l-0.229-0.0264l-0.2299-0.0255l-0.255-0.013h-4.693l-1.2625,5.8412h4.6172
		l0.3317-0.013l0.3187-0.0121l0.3065-0.0264l0.2801-0.0255l0.2806-0.0381l0.255-0.0511l0.2425-0.0636l0.2429-0.0636l0.2165-0.0771
		l0.2039-0.0766l0.1918-0.0896l0.1909-0.0888l0.1658-0.1022l0.1663-0.1017l0.1398-0.1152l0.1407-0.1152l0.1273-0.1147l0.1277-0.1277
		l0.1017-0.1277l0.1022-0.1277l0.0888-0.1399l0.0766-0.1403l0.0636-0.1398l0.0632-0.1403l0.0511-0.1398l0.0511-0.1533l0.0381-0.1403
		l0.0255-0.1533l0.0381-0.2936L19.5227,24.6203L19.5227,24.6203z M31.4731,24.6203l-0.0126-0.2039l-0.026-0.2169L31.3965,23.97
		l-0.0766-0.2169l-0.0381-0.1022l-0.0511-0.1147l-0.0636-0.1017l-0.0632-0.1017l-0.0766-0.1017l-0.0771-0.103l-0.0896-0.1013
		l-0.0896-0.0892l-0.1013-0.0896l-0.1152-0.0888l-0.1277-0.0892l-0.1273-0.0766l-0.1399-0.0775l-0.1533-0.0632l-0.1533-0.0636
		l-0.178-0.0636l-0.1788-0.0511l-0.1914-0.0515l-0.2044-0.0381l-0.2169-0.0385l-0.2169-0.0264l-0.2429-0.0255l-0.2546-0.013h-4.693
		l-1.2625,5.8416h4.6172l0.3317-0.013l0.3187-0.0121l0.3057-0.0264l0.2801-0.0255l0.2806-0.0381l0.255-0.0511l0.2429-0.0636
		l0.2425-0.0636l0.2169-0.0771l0.2039-0.0766l0.2048-0.0896l0.1779-0.0888l0.1658-0.1022l0.1658-0.1017l0.1528-0.1152l0.1407-0.1152
		l0.1152-0.1147l0.1277-0.1277l0.1013-0.1277l0.1022-0.1277l0.0896-0.1398l0.0766-0.1403l0.0632-0.1398l0.0636-0.1403l0.0507-0.1399
		l0.0511-0.1533l0.0385-0.1403l0.0251-0.1533l0.0385-0.2936L31.4731,24.6203L31.4731,24.6203z M43.9726,21.0617v-0.2165
		l-0.026-0.2169l-0.0507-0.2174l-0.0641-0.2165l-0.0502-0.1152l-0.0511-0.1017l-0.0511-0.1017l-0.0636-0.1022l-0.0766-0.1147
		l-0.0771-0.0896l-0.0888-0.1017l-0.1026-0.0892l-0.1013-0.1022l-0.1156-0.0766l-0.1147-0.0896l-0.1277-0.0766l-0.1398-0.0762
		l-0.1533-0.0766l-0.1663-0.0636l-0.1658-0.0511l-0.1788-0.0632l-0.1905-0.0381l-0.2048-0.0385l-0.2169-0.039l-0.229-0.0251
		l-0.2429-0.0255l-0.2425-0.013h-4.7055l-1.2625,5.8291h4.9489l0.3187-0.0126l0.3065-0.026l0.2801-0.0381l0.2806-0.0381
		l0.255-0.0511l0.2425-0.0507l0.2429-0.0636l0.2165-0.0771l0.2044-0.0762l0.2044-0.0896l0.1784-0.0892l0.1663-0.1017l0.1658-0.1017
		l0.1528-0.1152l0.1403-0.1147l0.1273-0.1147l0.1152-0.1277l0.1017-0.1273l0.1017-0.1403l0.0896-0.1273l0.0766-0.1407l0.0762-0.1403
		l0.0511-0.1403l0.0641-0.1394l0.0381-0.1533l0.0381-0.1403l0.0255-0.1528l0.0381-0.3065L43.9726,21.0617L43.9726,21.0617z
		 M42.2502,30.2065v-0.2169l-0.026-0.2174l-0.0511-0.2165l-0.0762-0.2169l-0.0896-0.2165l-0.1277-0.2169l-0.0632-0.1017
		l-0.0771-0.1017l-0.0896-0.0896l-0.1013-0.1013l-0.1022-0.0892l-0.1143-0.0905l-0.1152-0.0771l-0.1403-0.0762l-0.1398-0.0766
		l-0.1407-0.0766L40.63,27.9607l-0.1658-0.0511l-0.1909-0.0632l-0.1909-0.0381l-0.2044-0.0381l-0.2039-0.0385l-0.2295-0.026
		l-0.2425-0.0255l-0.255-0.013h-4.6934l-1.263,5.8295h4.9484l0.3182-0.0126l0.3061-0.0255l0.294-0.039l0.2671-0.0381l0.2555-0.0507
		l0.2555-0.0511l0.229-0.0636l0.2169-0.0771l0.2044-0.0762l0.2039-0.0896l0.1784-0.1013l0.1788-0.0896l0.1528-0.1147l0.1533-0.1017
		l0.1403-0.1152l0.1277-0.1273l0.1147-0.1152l0.1017-0.1277l0.1017-0.1398l0.0896-0.1277l0.0771-0.1399l0.0632-0.1407l0.0641-0.1399
		l0.0502-0.1533l0.0511-0.1403l0.0381-0.1528l0.0264-0.1407l0.0251-0.1533l0.013-0.1528l0.0121-0.1533v-0.1394H42.2502
		L42.2502,30.2065z M29.7516,33.7646v-0.2169l-0.0264-0.2165l-0.0502-0.2169l-0.0636-0.2169l-0.1017-0.2165l-0.1152-0.2174
		l-0.0766-0.1013l-0.0762-0.1022l-0.0896-0.0896l-0.1017-0.1009l-0.1022-0.0896l-0.1147-0.0892l-0.1147-0.0766l-0.1273-0.0896
		l-0.1403-0.0632l-0.1533-0.0762l-0.1658-0.0641l-0.1658-0.0632l-0.1788-0.0515l-0.1909-0.0507l-0.2039-0.0385l-0.2169-0.0251
		l-0.2295-0.0385l-0.229-0.013l-0.255-0.0126h-4.706l-1.2638,5.8278h4.9618l0.3057-0.013l0.3065-0.0255l0.2927-0.0381l0.2684-0.0385
		l0.2546-0.0507l0.2555-0.0641l0.2295-0.0632l0.2169-0.0632l0.2169-0.0896l0.1905-0.0766l0.1788-0.1017l0.1784-0.0892l0.1533-0.1156
		l0.1533-0.1009l0.1399-0.1156l0.1277-0.1273l0.1147-0.1147l0.1022-0.1277l0.1017-0.1407l0.0888-0.1277l0.0771-0.1399l0.0766-0.1403
		l0.0511-0.1394l0.0632-0.1533l0.0381-0.1403l0.039-0.1533l0.0255-0.1403l0.0255-0.1533l0.013-0.1533l0.013-0.1403v-0.1537H29.7516
		L29.7516,33.7646z"/>
</g>
<g id="XMLID_1_">
</g>
<g id="XMLID_2_">
</g>
<g id="XMLID_5_">
</g>
<g id="XMLID_6_">
</g>
<g id="XMLID_7_">
</g>
<g id="XMLID_8_">
</g>
<g id="XMLID_9_">
</g>
<g id="XMLID_10_">
</g>
<g id="XMLID_11_">
</g>
<g id="XMLID_12_">
</g>
<g id="XMLID_13_">
</g>
<g id="XMLID_14_">
</g>
<g id="XMLID_15_">
</g>
<g id="XMLID_16_">
</g>
<g id="XMLID_17_">
</g>
</svg>
