<?xml version="1.0" encoding="utf-8"?>
<!-- Generator: Adobe Illustrator 19.0.0, SVG Export Plug-In . SVG Version: 6.00 Build 0)  -->
<svg version="1.1" id="Capa_1" xmlns="http://www.w3.org/2000/svg" xmlns:xlink="http://www.w3.org/1999/xlink" x="0px" y="0px"
	 viewBox="-458 259.6296 42.3791 42.3704" style="enable-background:new -458 259.6296 42.3791 42.3704;" xml:space="preserve">
<style type="text/css">
	.st0{fill:#E83D3C;}
</style>
<path id="XMLID_140_" class="st0" d="M-455.391,276.3735c-1.4516,0.1494-2.561,1.368-2.5742,2.8283l-0.0343,2.9072
	c-0.0257,1.4583,1.0569,2.6987,2.502,2.8824l2.1376,0.2749c0.3567,1.2995,0.8619,2.5409,1.5202,3.7147l-1.3823,1.7
	c-0.9171,1.1378-0.8486,2.7692,0.174,3.8166l2.0359,2.0796c1.0226,1.0454,2.6541,1.1606,3.8156,0.2644l1.7123-1.3242
	c1.2032,0.7134,2.4809,1.2776,3.8147,1.6687l0.2283,2.205c0.1483,1.4487,1.3669,2.5637,2.8271,2.5742l2.9072,0.0343
	c1.4565,0.0255,2.7016-1.0569,2.8853-2.5049l0.2644-2.0919c1.447-0.3548,2.8283-0.8962,4.1371-1.6067l1.6096,1.2975
	c1.1378,0.92,2.7682,0.8524,3.8109-0.1732l2.0833-2.0328c1.0444-1.0236,1.1569-2.6551,0.2626-3.8139l-1.2235-1.5991
	c0.7553-1.2642,1.3414-2.6073,1.7429-4.021l1.9044-0.195c1.4499-0.1531,2.5666-1.369,2.5742-2.8293l0.0343-2.9079
	c0.0247-1.4575-1.0579-2.697-2.5056-2.8834l-1.8607-0.2426c-0.3577-1.4014-0.881-2.7589-1.5734-4.0202l1.1586-1.4259
	c0.9171-1.1368,0.8543-2.7692-0.1693-3.8156l-2.0359-2.0796c-1.0234-1.0464-2.6541-1.1635-3.8147-0.2636l-1.3907,1.0674
	c-1.3053-0.7906-2.7075-1.4031-4.1819-1.8162l-0.1845-1.8025c-0.1465-1.447-1.3661-2.5639-2.8263-2.5724l-2.9072-0.037
	c-1.4602-0.0218-2.7007,1.0569-2.8834,2.5076l-0.233,1.7895c-1.5155,0.3908-2.9738,0.9913-4.3294,1.7704l-1.4394-1.1701
	c-1.1376-0.92-2.7654-0.8524-3.8137,0.1703l-2.0909,2.0462c-1.0484,1.0244-1.1615,2.6551-0.2673,3.8147l1.2319,1.5857
	c-0.7134,1.2634-1.2786,2.6114-1.641,4.0221L-455.391,276.3735z M-436.6277,273.0888c4.1761,0.0465,7.5208,3.4807,7.4713,7.6511
	c-0.0475,4.1743-3.4817,7.5154-7.6531,7.4706c-4.1733-0.0446-7.5134-3.4827-7.4715-7.655
	C-444.2342,276.387-440.7964,273.0432-436.6277,273.0888L-436.6277,273.0888z M-436.6277,273.0888"/>
</svg>
