<?xml version="1.0" encoding="utf-8"?>
<!-- Generator: Adobe Illustrator 19.0.0, SVG Export Plug-In . SVG Version: 6.00 Build 0)  -->
<svg version="1.1" id="Capa_1" xmlns="http://www.w3.org/2000/svg" xmlns:xlink="http://www.w3.org/1999/xlink" x="0px" y="0px"
	 viewBox="-447 249.5174 63.4931 63.4826" style="enable-background:new -447 249.5174 63.4931 63.4826;" xml:space="preserve">
<style type="text/css">
	.st0{fill:#26BF4C;}
</style>
<path id="XMLID_2_" class="st0" d="M-439.8471,288.2216c0.5669,1.934,1.346,3.7938,2.3346,5.5395l-2.815,3.553
	c-0.919,1.1615-0.8181,2.8148,0.2178,3.8612l4.8468,4.8488c1.0503,1.0464,2.7036,1.1378,3.8651,0.2188l3.5292-2.793
	c1.8142,1.0464,3.7416,1.8588,5.7553,2.4344l0.5289,4.5415c0.1732,1.4707,1.4137,2.5742,2.8863,2.5742h6.8617
	c1.4678,0,2.7102-1.1035,2.8795-2.5742l0.5079-4.3779c2.1624-0.5623,4.2294-1.4012,6.173-2.4943l3.4131,2.6999
	c1.1588,0.9207,2.814,0.8171,3.8565-0.217l4.8517-4.8506c1.0444-1.0464,1.1376-2.7026,0.2188-3.8612l-2.6541-3.3658
	c1.1035-1.9101,1.9634-3.944,2.536-6.0701l4.0944-0.4699c1.4708-0.1703,2.5742-1.4137,2.5742-2.8844v-6.8607
	c0-1.4706-1.1035-2.7139-2.5742-2.8832l-4.0334-0.4709c-0.5517-2.1063-1.3793-4.1182-2.4392-6.0008l2.4828-3.1365
	c0.919-1.1606,0.8181-2.8158-0.2168-3.8603l-4.8402-4.8383c-1.0425-1.0464-2.6978-1.1378-3.8565-0.2217l-3.0498,2.4162
	c-1.972-1.1615-4.0895-2.047-6.3061-2.6455l-0.4586-3.9431c-0.173-1.4688-1.4174-2.5723-2.8861-2.5723h-6.8617
	c-1.4725,0-2.7093,1.1035-2.8814,2.5723l-0.4604,3.9431c-2.2746,0.6118-4.4482,1.5288-6.4717,2.7379l-3.1593-2.5085
	c-1.1616-0.9161-2.8148-0.8144-3.8651,0.2217l-4.8468,4.8486c-1.0425,1.0464-1.1368,2.7018-0.2178,3.8614l2.6438,3.3438
	c-1.0589,1.9054-1.8637,3.9421-2.3897,6.0579l-4.2295,0.4793c-1.4707,0.1742-2.5752,1.4136-2.5752,2.8863v6.8598
	c0,1.4725,1.1045,2.7112,2.5752,2.8834L-439.8471,288.2216z M-414.9879,269.6628c6.2527,0,11.3431,5.0904,11.3431,11.3433
	c0,6.2509-5.0904,11.3423-11.3431,11.3423c-6.2529,0-11.3423-5.0913-11.3423-11.3423
	C-426.3302,274.7532-421.2408,269.6628-414.9879,269.6628L-414.9879,269.6628z M-414.9879,269.6628"/>
</svg>
