<?xml version="1.0" encoding="utf-8"?>
<!-- Generator: Adobe Illustrator 19.0.0, SVG Export Plug-In . SVG Version: 6.00 Build 0)  -->
<svg version="1.1" id="Capa_1" xmlns="http://www.w3.org/2000/svg" xmlns:xlink="http://www.w3.org/1999/xlink" x="0px" y="0px"
	 viewBox="0 0 50.66 95.2355" style="enable-background:new 0 0 50.66 95.2355;" xml:space="preserve">
<style type="text/css">
	.st0{fill:#3C3C3B;}
	.st1{fill:#4086CD;}
	.st2{fill:#868686;}
	.st3{fill:#575756;}
	.st4{fill:#FFFFFF;}
</style>
<g id="XMLID_48_">
	<g id="XMLID_64_">
		<g id="XMLID_68_">
			<path id="XMLID_69_" class="st0" d="M50.6599,90.0884c0,2.8309-2.3162,5.1471-5.1471,5.1471H5.146
				c-2.8304,0-5.1462-2.3158-5.1462-5.1462V5.1472C-0.0002,2.3162,2.3161,0,5.1471,0h40.3664c2.8305,0,5.1464,2.3159,5.1464,5.1464
				V90.0884z"/>
		</g>
		<rect id="XMLID_67_" x="3.7168" y="14.5624" class="st1" width="43.2262" height="66.5659"/>
		<path id="XMLID_66_" class="st2" d="M28.8862,87.4224c0,1.965-1.5915,3.5593-3.5556,3.5593c-1.964,0-3.5574-1.5943-3.5574-3.5593
			c0-1.9614,1.5934-3.5555,3.5574-3.5555C27.2947,83.8669,28.8862,85.461,28.8862,87.4224z"/>
		<path id="XMLID_65_" class="st3" d="M29.1414,9.5561c0,0.5836-0.4809,1.0637-1.0664,1.0637H21.443
			c-0.5857,0-1.0665-0.48-1.0665-1.0637l0,0c0-0.5848,0.4809-1.0611,1.0665-1.0611h6.6319
			C28.6605,8.495,29.1414,8.9712,29.1414,9.5561L29.1414,9.5561z"/>
	</g>
	<g id="g3811" transform="translate(233.90921,108.25001)">
		<path id="Apple" class="st4" d="M-207.4707-77.6261c1.1687-1.3741,3.1441-2.3963,4.7742-2.465
			c0.2079,1.9089-0.5572,3.8203-1.6883,5.1976c-1.1329,1.3748-2.9872,2.4458-4.8071,2.303
			C-209.4392-74.4581-208.5222-76.4057-207.4707-77.6261z M-198.1972-51.5875c-1.3528,1.9837-2.7518,3.9555-4.9604,3.9967
			c-2.1736,0.0412-2.8703-1.2916-5.3509-1.2916c-2.4831,0-3.2601,1.2504-5.3122,1.3328c-2.1323,0.0803-3.7541-2.1425-5.1173-4.1175
			c-2.7854-4.0379-4.9123-11.4178-2.0528-16.398c1.416-2.4733,3.9537-4.0379,6.7029-4.0795
			c2.0944-0.0387,4.0727,1.4164,5.3513,1.4164c1.2815,0,3.6828-1.7469,6.2068-1.4905c1.0566,0.0438,4.022,0.427,5.9269,3.2225
			c-0.1508,0.0991-3.5397,2.0774-3.4988,6.1981c0.0412,4.9224,4.3001,6.5583,4.3497,6.5807
			C-195.9911-56.1017-196.6333-53.8815-198.1972-51.5875z"/>
	</g>
</g>
<g id="XMLID_1_">
</g>
<g id="XMLID_2_">
</g>
<g id="XMLID_3_">
</g>
<g id="XMLID_4_">
</g>
<g id="XMLID_5_">
</g>
<g id="XMLID_6_">
</g>
<g id="XMLID_7_">
</g>
<g id="XMLID_8_">
</g>
<g id="XMLID_9_">
</g>
<g id="XMLID_10_">
</g>
<g id="XMLID_11_">
</g>
<g id="XMLID_12_">
</g>
<g id="XMLID_13_">
</g>
<g id="XMLID_14_">
</g>
<g id="XMLID_15_">
</g>
</svg>
