<?xml version="1.0" encoding="utf-8"?>
<!-- Generator: Adobe Illustrator 19.0.0, SVG Export Plug-In . SVG Version: 6.00 Build 0)  -->
<svg version="1.1" id="Capa_1" xmlns="http://www.w3.org/2000/svg" xmlns:xlink="http://www.w3.org/1999/xlink" x="0px" y="0px"
	 viewBox="0 0 60 54" style="enable-background:new 0 0 60 54;" xml:space="preserve">
<style type="text/css">
	.st0{fill:#005B83;}
	.st1{fill:#00CFDD;}
	.st2{fill:#FA7A49;}
	.st3{fill:#FFFFFF;}
</style>
<g id="XMLID_2_">
	<g id="XMLID_3_">
		<g id="XMLID_4_">
			<g id="XMLID_68_">
				<path id="XMLID_69_" class="st0" d="M30.2509,39.0534c-0.7736,0-1.3998-0.6261-1.3998-1.3998v-6.7629
					c0-0.7732,0.6262-1.3993,1.3998-1.3993c0.773,0,1.3993,0.6261,1.3993,1.3993v6.7629
					C31.6502,38.4273,31.0239,39.0534,30.2509,39.0534z"/>
			</g>
			<g id="XMLID_41_">
				<g id="XMLID_66_">
					<path id="XMLID_67_" class="st1" d="M40.8743,25.4797c0,0.4953-0.4033,0.898-0.8973,0.898H20.0137
						c-0.4952,0-0.8975-0.4028-0.8975-0.898V8.9671c0-0.4957,0.4023-0.8969,0.8975-0.8969h19.9632
						c0.494,0,0.8973,0.4012,0.8973,0.8969V25.4797z"/>
				</g>
				<g id="XMLID_64_">
					<path id="XMLID_65_" class="st0" d="M41.884,8.7938c0,0.4952-0.4027,0.8975-0.8985,0.8975H19.3408
						c-0.4958,0-0.8975-0.4023-0.8975-0.8975v-7.738c0-0.4963,0.4016-0.898,0.8975-0.898h21.6447
						c0.4957,0,0.8985,0.4017,0.8985,0.898V8.7938z"/>
				</g>
				<g id="XMLID_62_">
					<path id="XMLID_63_" class="st0" d="M41.884,19.7973c0,0.4958-0.4027,0.8986-0.8985,0.8986H19.3408
						c-0.4958,0-0.8975-0.4027-0.8975-0.8986v-7.738c0-0.4957,0.4016-0.8979,0.8975-0.8979h21.6447
						c0.4957,0,0.8985,0.4022,0.8985,0.8979V19.7973z"/>
				</g>
				<g id="XMLID_60_">
					<path id="XMLID_61_" class="st0" d="M41.884,30.801c0,0.4952-0.4027,0.8975-0.8985,0.8975H19.3408
						c-0.4958,0-0.8975-0.4023-0.8975-0.8975v-7.738c0-0.4947,0.4016-0.8975,0.8975-0.8975h21.6447
						c0.4957,0,0.8985,0.4027,0.8985,0.8975V30.801z"/>
				</g>
				<g id="XMLID_58_">
					<path id="XMLID_59_" class="st2" d="M22.5811,4.262c0,0.3632-0.2915,0.657-0.6547,0.657h-1.145
						c-0.3621,0-0.6554-0.2938-0.6554-0.657V3.1186c0-0.3621,0.2933-0.6565,0.6554-0.6565h1.145
						c0.3632,0,0.6547,0.2945,0.6547,0.6565V4.262z"/>
				</g>
				<g id="XMLID_56_">
					<path id="XMLID_57_" class="st1" d="M25.9459,4.262c0,0.3632-0.2933,0.657-0.6558,0.657h-1.1429
						c-0.3632,0-0.657-0.2938-0.657-0.657V3.1186c0-0.3621,0.2938-0.6565,0.657-0.6565H25.29c0.3625,0,0.6558,0.2945,0.6558,0.6565
						V4.262z"/>
				</g>
				<g id="XMLID_54_">
					<path id="XMLID_55_" class="st3" d="M40.3131,6.5009c0,0.4941-0.4016,0.8969-0.8975,0.8969H27.7517
						c-0.4946,0-0.8969-0.4027-0.8969-0.8969V3.3601c0-0.4957,0.4023-0.898,0.8969-0.898h11.6639
						c0.4958,0,0.8975,0.4023,0.8975,0.898V6.5009z"/>
				</g>
				<g id="XMLID_52_">
					<path id="XMLID_53_" class="st2" d="M22.5811,15.2607c0,0.3625-0.2915,0.6564-0.6547,0.6564h-1.145
						c-0.3621,0-0.6554-0.2939-0.6554-0.6564v-1.1429c0-0.3632,0.2933-0.657,0.6554-0.657h1.145
						c0.3632,0,0.6547,0.2938,0.6547,0.657V15.2607z"/>
				</g>
				<g id="XMLID_50_">
					<path id="XMLID_51_" class="st1" d="M25.9459,15.2607c0,0.3625-0.2933,0.6564-0.6558,0.6564h-1.1429
						c-0.3632,0-0.657-0.2939-0.657-0.6564v-1.1429c0-0.3632,0.2938-0.657,0.657-0.657H25.29c0.3625,0,0.6558,0.2938,0.6558,0.657
						V15.2607z"/>
				</g>
				<g id="XMLID_48_">
					<path id="XMLID_49_" class="st3" d="M40.3131,17.4979c0,0.4958-0.4016,0.8975-0.8975,0.8975H27.7517
						c-0.4946,0-0.8969-0.4016-0.8969-0.8975v-3.1385c0-0.4958,0.4023-0.8986,0.8969-0.8986h11.6639
						c0.4958,0,0.8975,0.4027,0.8975,0.8986V17.4979z"/>
				</g>
				<g id="XMLID_46_">
					<path id="XMLID_47_" class="st2" d="M22.5811,26.2643c0,0.3621-0.2915,0.657-0.6547,0.657h-1.145
						c-0.3621,0-0.6554-0.2949-0.6554-0.657V25.121c0-0.3626,0.2933-0.6554,0.6554-0.6554h1.145
						c0.3632,0,0.6547,0.2928,0.6547,0.6554V26.2643z"/>
				</g>
				<g id="XMLID_44_">
					<path id="XMLID_45_" class="st1" d="M25.9459,26.2643c0,0.3621-0.2933,0.657-0.6558,0.657h-1.1429
						c-0.3632,0-0.657-0.2949-0.657-0.657V25.121c0-0.3626,0.2938-0.6554,0.657-0.6554H25.29c0.3625,0,0.6558,0.2928,0.6558,0.6554
						V26.2643z"/>
				</g>
				<g id="XMLID_42_">
					<path id="XMLID_43_" class="st3" d="M40.3131,28.5022c0,0.4952-0.4016,0.8973-0.8975,0.8973H27.7517
						c-0.4946,0-0.8969-0.4022-0.8969-0.8973v-3.1397c0-0.4963,0.4023-0.8969,0.8969-0.8969h11.6639
						c0.4958,0,0.8975,0.4006,0.8975,0.8969V28.5022z"/>
				</g>
			</g>
			<g id="XMLID_24_">
				<g id="XMLID_39_">
					<path id="XMLID_40_" class="st0" d="M14.9004,51.9593c0,1.0405-0.8429,1.8829-1.8829,1.8829H1.8829
						C0.8435,53.8422,0,52.9998,0,51.9593V22.9827c0-1.0389,0.8435-1.8818,1.8829-1.8818h11.1345
						c1.04,0,1.8829,0.8429,1.8829,1.8818V51.9593z"/>
				</g>
				<g id="XMLID_37_">
					<path id="XMLID_38_" class="st3" d="M12.5618,23.9792c0,0.2586-0.2096,0.4693-0.4693,0.4693h-9.491
						c-0.2592,0-0.4693-0.2107-0.4693-0.4693l0,0c0-0.2597,0.2102-0.471,0.4693-0.471h9.491
						C12.3522,23.5082,12.5618,23.7195,12.5618,23.9792L12.5618,23.9792z"/>
				</g>
				<g id="XMLID_35_">
					<path id="XMLID_36_" class="st3" d="M12.5618,25.3443c0,0.2603-0.2096,0.471-0.4693,0.471h-9.491
						c-0.2592,0-0.4693-0.2107-0.4693-0.471l0,0c0-0.2586,0.2102-0.4693,0.4693-0.4693h9.491
						C12.3522,24.875,12.5618,25.0857,12.5618,25.3443L12.5618,25.3443z"/>
				</g>
				<g id="XMLID_33_">
					<path id="XMLID_34_" class="st3" d="M12.5618,26.7128c0,0.2586-0.2096,0.4699-0.4693,0.4699h-9.491
						c-0.2592,0-0.4693-0.2113-0.4693-0.4699l0,0c0-0.2581,0.2102-0.4683,0.4693-0.4683h9.491
						C12.3522,26.2445,12.5618,26.4548,12.5618,26.7128L12.5618,26.7128z"/>
				</g>
				<g id="XMLID_31_">
					<path id="XMLID_32_" class="st3" d="M12.5618,50.8544c0,0.6806-0.5518,1.2315-1.2309,1.2315H3.363
						c-0.6789,0-1.2308-0.5508-1.2308-1.2315V40.658c0-0.6806,0.5518-1.2315,1.2308-1.2315h7.968
						c0.6791,0,1.2309,0.5508,1.2309,1.2315V50.8544z"/>
				</g>
				<g id="XMLID_29_">
					<path id="XMLID_30_" class="st0" d="M11.3151,43.4113c0,0.6801-0.5508,1.2309-1.2303,1.2309H9.1768
						c-0.6801,0-1.2309-0.5508-1.2309-1.2309V42.503c0-0.6796,0.5508-1.2303,1.2309-1.2303h0.9079
						c0.6795,0,1.2303,0.5507,1.2303,1.2303V43.4113z"/>
				</g>
				<g id="XMLID_27_">
					<path id="XMLID_28_" class="st2" d="M4.2081,30.0561c0,0.2867-0.2321,0.5205-0.5211,0.5205H2.7798
						c-0.2861,0-0.5201-0.2338-0.5201-0.5205v-0.9074c0-0.2867,0.2339-0.5205,0.5201-0.5205h0.9073
						c0.2889,0,0.5211,0.2338,0.5211,0.5205V30.0561z"/>
				</g>
				<g id="XMLID_25_">
					<path id="XMLID_26_" class="st1" d="M6.8768,30.0561c0,0.2867-0.2338,0.5205-0.5205,0.5205H5.4489
						c-0.2877,0-0.5205-0.2338-0.5205-0.5205v-0.9074c0-0.2867,0.2328-0.5205,0.5205-0.5205h0.9074
						c0.2867,0,0.5205,0.2338,0.5205,0.5205V30.0561z"/>
				</g>
			</g>
			<g id="XMLID_7_">
				<g id="XMLID_22_">
					<path id="XMLID_23_" class="st0" d="M60,51.9593c0,1.0405-0.8419,1.8829-1.8818,1.8829H46.983
						c-1.0388,0-1.8834-0.8425-1.8834-1.8829V22.9827c0-1.0389,0.8446-1.8818,1.8834-1.8818h11.1352
						c1.0399,0,1.8818,0.8429,1.8818,1.8818V51.9593z"/>
				</g>
				<g id="XMLID_20_">
					<path id="XMLID_21_" class="st3" d="M57.6626,23.9792c0,0.2586-0.2096,0.4693-0.4693,0.4693h-9.4911
						c-0.2596,0-0.4693-0.2107-0.4693-0.4693l0,0c0-0.2597,0.2097-0.471,0.4693-0.471h9.4911
						C57.453,23.5082,57.6626,23.7195,57.6626,23.9792L57.6626,23.9792z"/>
				</g>
				<g id="XMLID_18_">
					<path id="XMLID_19_" class="st3" d="M57.6626,25.3443c0,0.2603-0.2096,0.471-0.4693,0.471h-9.4911
						c-0.2596,0-0.4693-0.2107-0.4693-0.471l0,0c0-0.2586,0.2097-0.4693,0.4693-0.4693h9.4911
						C57.453,24.875,57.6626,25.0857,57.6626,25.3443L57.6626,25.3443z"/>
				</g>
				<g id="XMLID_16_">
					<path id="XMLID_17_" class="st3" d="M57.6626,26.7128c0,0.2586-0.2096,0.4699-0.4693,0.4699h-9.4911
						c-0.2596,0-0.4693-0.2113-0.4693-0.4699l0,0c0-0.2581,0.2097-0.4683,0.4693-0.4683h9.4911
						C57.453,26.2445,57.6626,26.4548,57.6626,26.7128L57.6626,26.7128z"/>
				</g>
				<g id="XMLID_14_">
					<path id="XMLID_15_" class="st3" d="M57.6626,50.8544c0,0.6806-0.5514,1.2315-1.2309,1.2315h-7.968
						c-0.6795,0-1.2309-0.5508-1.2309-1.2315V40.658c0-0.6806,0.5514-1.2315,1.2309-1.2315h7.968
						c0.6795,0,1.2309,0.5508,1.2309,1.2315V50.8544z"/>
				</g>
				<g id="XMLID_12_">
					<path id="XMLID_13_" class="st0" d="M56.4158,43.4113c0,0.6801-0.5519,1.2309-1.2315,1.2309H54.277
						c-0.6789,0-1.2309-0.5508-1.2309-1.2309V42.503c0-0.6796,0.5519-1.2303,1.2309-1.2303h0.9074
						c0.6795,0,1.2315,0.5507,1.2315,1.2303V43.4113z"/>
				</g>
				<g id="XMLID_10_">
					<path id="XMLID_11_" class="st2" d="M49.3083,30.0561c0,0.2867-0.2311,0.5205-0.5199,0.5205H47.881
						c-0.2872,0-0.5205-0.2338-0.5205-0.5205v-0.9074c0-0.2867,0.2333-0.5205,0.5205-0.5205h0.9074
						c0.2888,0,0.5199,0.2338,0.5199,0.5205V30.0561z"/>
				</g>
				<g id="XMLID_8_">
					<path id="XMLID_9_" class="st1" d="M51.977,30.0561c0,0.2867-0.2333,0.5205-0.5199,0.5205h-0.9074
						c-0.2889,0-0.5211-0.2338-0.5211-0.5205v-0.9074c0-0.2867,0.2321-0.5205,0.5211-0.5205h0.9074
						c0.2867,0,0.5199,0.2338,0.5199,0.5205V30.0561z"/>
				</g>
			</g>
			<g id="XMLID_5_">
				<path id="XMLID_6_" class="st0" d="M46.2991,39.3775H15.4017c-0.7732,0-1.3998-0.6267-1.3998-1.3998
					c0-0.773,0.6267-1.3997,1.3998-1.3997h30.8974c0.773,0,1.3998,0.6267,1.3998,1.3997
					C47.6989,38.7509,47.0721,39.3775,46.2991,39.3775z"/>
			</g>
		</g>
	</g>
</g>
<g id="XMLID_1_">
</g>
<g id="XMLID_70_">
</g>
<g id="XMLID_71_">
</g>
<g id="XMLID_72_">
</g>
<g id="XMLID_73_">
</g>
<g id="XMLID_74_">
</g>
<g id="XMLID_75_">
</g>
<g id="XMLID_76_">
</g>
<g id="XMLID_77_">
</g>
<g id="XMLID_78_">
</g>
<g id="XMLID_79_">
</g>
<g id="XMLID_80_">
</g>
<g id="XMLID_81_">
</g>
<g id="XMLID_82_">
</g>
<g id="XMLID_83_">
</g>
</svg>
