<?xml version="1.0" encoding="utf-8"?>
<!-- Generator: Adobe Illustrator 19.0.0, SVG Export Plug-In . SVG Version: 6.00 Build 0)  -->
<svg version="1.1" id="Capa_1" xmlns="http://www.w3.org/2000/svg" xmlns:xlink="http://www.w3.org/1999/xlink" x="0px" y="0px"
	 viewBox="0 0 51.4854 93.3042" style="enable-background:new 0 0 51.4854 93.3042;" xml:space="preserve">
<style type="text/css">
	.st0{fill:#FC6E4B;}
	.st1{fill:#402E29;}
	.st2{fill:#FFB8A6;}
	.st3{fill:#73A1FB;}
</style>
<g id="XMLID_87_">
	<g id="XMLID_917_">
		<path id="XMLID_930_" class="st0" d="M51.4852,90.9707c0,1.2883-1.0452,2.3335-2.3329,2.3335H2.3334
			c-1.2877,0-2.3336-1.0452-2.3336-2.3335V2.3336C-0.0002,1.0451,1.0457,0,2.3334,0h46.8189c1.2877,0,2.3329,1.0452,2.3329,2.3336
			V90.9707z"/>
		<rect id="XMLID_929_" x="3.6224" y="9.8663" class="st1" width="44.2383" height="73.2844"/>
		<circle id="XMLID_927_" class="st2" cx="25.7432" cy="87.8551" r="2.9637"/>
		<circle id="XMLID_918_" class="st2" cx="25.7432" cy="4.8516" r="1.3523"/>
	</g>
	<g id="XMLID_88_">
		<path id="XMLID_92_" class="st3" d="M24.4303,32.3251v12.2441c0,0.1448,0.1174,0.2623,0.2623,0.2623h16.7796
			c0.1448,0,0.2623-0.1174,0.2623-0.2623V29.8836c0-0.0762-0.0331-0.1485-0.0906-0.1983c-0.0575-0.0498-0.1337-0.072-0.2094-0.0612
			l-16.7797,2.4415C24.5258,32.0844,24.4303,32.1949,24.4303,32.3251z"/>
		<path id="XMLID_91_" class="st3" d="M22.5947,58.9874c0.0631,0,0.1244-0.0227,0.1725-0.0646
			c0.0571-0.0498,0.0898-0.1219,0.0898-0.1976V46.6673c0-0.1448-0.1174-0.2623-0.2623-0.2623H10.0165
			c-0.0695,0-0.1363,0.0277-0.1855,0.0768c-0.0492,0.0492-0.0768,0.1159-0.0768,0.1855l0.0006,10.334
			c0,0.131,0.0968,0.2421,0.2266,0.26l12.5776,1.7239C22.5709,58.9866,22.5829,58.9874,22.5947,58.9874z"/>
		<path id="XMLID_90_" class="st3" d="M10.0183,44.8315h12.5764c0.1448,0,0.2623-0.1174,0.2623-0.2623V32.6299
			c0-0.0757-0.0327-0.1477-0.0897-0.1975c-0.057-0.0498-0.1323-0.0727-0.2078-0.0623L9.9716,34.0795
			c-0.1302,0.0177-0.2271,0.1289-0.227,0.2601L9.756,44.5694C9.7562,44.7142,9.8736,44.8315,10.0183,44.8315z"/>
		<path id="XMLID_89_" class="st3" d="M41.4721,61.6153c0.0629,0,0.124-0.0226,0.172-0.0643
			c0.0573-0.0498,0.0902-0.1219,0.0902-0.198l0.0042-14.6857c0-0.0694-0.0276-0.1363-0.0768-0.1855
			c-0.0492-0.0492-0.1159-0.0768-0.1855-0.0768H24.6925c-0.1448,0-0.2623,0.1174-0.2623,0.2623v12.3251
			c0,0.1307,0.0963,0.2415,0.2256,0.2597l16.7796,2.3607C41.4478,61.6145,41.4599,61.6153,41.4721,61.6153z"/>
	</g>
</g>
<g id="XMLID_1_">
</g>
<g id="XMLID_2_">
</g>
<g id="XMLID_3_">
</g>
<g id="XMLID_4_">
</g>
<g id="XMLID_5_">
</g>
<g id="XMLID_6_">
</g>
<g id="XMLID_7_">
</g>
<g id="XMLID_8_">
</g>
<g id="XMLID_9_">
</g>
<g id="XMLID_10_">
</g>
<g id="XMLID_11_">
</g>
<g id="XMLID_12_">
</g>
<g id="XMLID_13_">
</g>
<g id="XMLID_14_">
</g>
<g id="XMLID_15_">
</g>
</svg>
