<?xml version="1.0" encoding="utf-8"?>
<!-- Generator: Adobe Illustrator 19.0.0, SVG Export Plug-In . SVG Version: 6.00 Build 0)  -->
<svg version="1.1" id="Capa_1" xmlns="http://www.w3.org/2000/svg" xmlns:xlink="http://www.w3.org/1999/xlink" x="0px" y="0px"
	 viewBox="-409 240.9378 140.6726 80.0622" style="enable-background:new -409 240.9378 140.6726 80.0622;" xml:space="preserve">
<style type="text/css">
	.st0{fill:#6E95CE;}
	.st1{fill:#E83E3D;}
	.st2{fill:#48AE4F;}
</style>
<g id="XMLID_181_">
	<path id="XMLID_1836_" class="st0" d="M-275.8875,255.3806l-3.6188-3.0611c-1.1148-0.9391-2.7605-0.8943-3.8184,0.1074
		l-1.9958,1.8713c-1.6915-0.8153-3.4856-1.3918-5.3329-1.7238l-0.5652-2.7587c-0.2872-1.4242-1.6077-2.4125-3.0518-2.2964
		l-4.726,0.4033c-1.446,0.1237-2.5836,1.3081-2.6311,2.7683l-0.0933,2.8006c-1.8169,0.6583-3.5292,1.5545-5.0933,2.6827
		l-2.3876-1.5868c-1.2177-0.8076-2.8388-0.5755-3.7786,0.5385l-3.0574,3.6434c-0.9476,1.115-0.8999,2.7578,0.1007,3.8147
		l2.0928,2.228c-0.723,1.6342-1.2404,3.3457-1.5428,5.1046l-2.9853,0.6088c-1.425,0.2881-2.4162,1.6096-2.3001,3.0564l0.4033,4.7241
		c0.1255,1.4479,1.3108,2.5847,2.7702,2.6313l3.2267,0.1019c0.588,1.541,1.3585,3.0013,2.2888,4.3683l-1.7997,2.7234
		c-0.8124,1.2167-0.5785,2.8405,0.5346,3.7833l3.6226,3.0564c1.113,0.9418,2.7567,0.8952,3.8166-0.1064l2.3648-2.2155
		c1.5506,0.721,3.183,1.2642,4.8593,1.5857l0.6564,3.2401c0.2872,1.4269,1.6077,2.4106,3.0594,2.2983l4.7221-0.4016
		c1.4479-0.1264,2.5877-1.3108,2.6313-2.771l0.1046-3.1708c1.7219-0.6106,3.3524-1.4392,4.8593-2.4581l2.6066,1.7238
		c1.2194,0.8019,2.8386,0.5726,3.7841-0.5395l3.0537-3.6206c0.9437-1.1167,0.8999-2.7587-0.1027-3.8174l-2.1043-2.231
		c0.7744-1.6295,1.3318-3.356,1.6552-5.1235l2.8748-0.5851c1.4251-0.2884,2.4106-1.6096,2.2964-3.0595l-0.4013-4.7212
		c-0.1218-1.4479-1.3071-2.5855-2.7683-2.6323l-2.8824-0.0904c-0.5993-1.68-1.4061-3.2666-2.4049-4.7354l1.5734-2.3687
		C-274.5405,257.9531-274.7728,256.3224-275.8875,255.3806L-275.8875,255.3806z M-293.69,282.6827
		c-5.1009,0.4358-9.6082-3.3666-10.0305-8.4684c-0.4376-5.1026,3.3658-9.606,8.4684-10.0303
		c5.1046-0.4366,9.6062,3.3656,10.0342,8.4675C-284.784,277.754-288.5854,282.2576-293.69,282.6827L-293.69,282.6827z"/>
	<path id="XMLID_1792_" class="st1" d="M-352.0393,296.3402c-1.4516,0.1494-2.561,1.368-2.5742,2.8283l-0.0343,2.9072
		c-0.0257,1.4583,1.0569,2.6987,2.502,2.8824l2.1376,0.2749c0.3567,1.2995,0.8619,2.5409,1.5202,3.7147l-1.3823,1.7
		c-0.9171,1.1378-0.8486,2.7692,0.174,3.8166l2.0359,2.0796c1.0226,1.0454,2.6541,1.1606,3.8156,0.2644l1.7123-1.3242
		c1.2032,0.7134,2.4809,1.2776,3.8147,1.6687l0.2283,2.205c0.1483,1.4487,1.3669,2.5637,2.8271,2.5742l2.9072,0.0343
		c1.4565,0.0255,2.7016-1.0569,2.8853-2.5049l0.2644-2.0919c1.447-0.3548,2.8283-0.8962,4.1371-1.6067l1.6096,1.2975
		c1.1378,0.92,2.7682,0.8524,3.8109-0.1732l2.0833-2.0328c1.0444-1.0236,1.1569-2.6551,0.2626-3.8139l-1.2235-1.5991
		c0.7553-1.2642,1.3414-2.6073,1.7429-4.021l1.9044-0.195c1.4499-0.1531,2.5666-1.369,2.5742-2.8293l0.0343-2.9079
		c0.0247-1.4575-1.0579-2.697-2.5056-2.8834l-1.8607-0.2426c-0.3577-1.4014-0.881-2.7589-1.5734-4.0202l1.1586-1.4259
		c0.9171-1.1368,0.8543-2.7692-0.1693-3.8156l-2.0359-2.0796c-1.0234-1.0464-2.6541-1.1635-3.8147-0.2636l-1.3907,1.0674
		c-1.3053-0.7906-2.7075-1.4031-4.1819-1.8162l-0.1845-1.8025c-0.1465-1.447-1.3661-2.5639-2.8263-2.5724l-2.9072-0.037
		c-1.4602-0.0218-2.7007,1.0569-2.8834,2.5076l-0.233,1.7895c-1.5155,0.3908-2.9738,0.9913-4.3294,1.7704l-1.4394-1.1701
		c-1.1376-0.92-2.7654-0.8524-3.8137,0.1703l-2.0909,2.0462c-1.0484,1.0244-1.1615,2.6551-0.2673,3.8147l1.2319,1.5857
		c-0.7134,1.2634-1.2786,2.6114-1.641,4.0221L-352.0393,296.3402z M-333.276,293.0555c4.1761,0.0465,7.5208,3.4807,7.4713,7.6511
		c-0.0475,4.1743-3.4817,7.5154-7.6531,7.4706c-4.1733-0.0446-7.5134-3.4827-7.4715-7.655
		C-340.8825,296.3537-337.4447,293.0099-333.276,293.0555L-333.276,293.0555z"/>
	<path id="XMLID_12_" class="st2" d="M-402.1207,280.6087c0.5669,1.934,1.346,3.7938,2.3346,5.5395l-2.815,3.553
		c-0.919,1.1615-0.8181,2.8148,0.2178,3.8612l4.8468,4.8488c1.0503,1.0464,2.7036,1.1378,3.8651,0.2188l3.5292-2.793
		c1.8142,1.0464,3.7416,1.8588,5.7553,2.4344l0.5289,4.5415c0.1732,1.4707,1.4137,2.5742,2.8863,2.5742h6.8617
		c1.4678,0,2.7102-1.1035,2.8795-2.5742l0.5079-4.3779c2.1624-0.5623,4.2294-1.4012,6.173-2.4943l3.4131,2.6999
		c1.1588,0.9207,2.814,0.8171,3.8565-0.217l4.8517-4.8506c1.0444-1.0464,1.1376-2.7026,0.2188-3.8612l-2.6541-3.3658
		c1.1035-1.9101,1.9634-3.944,2.536-6.0701l4.0944-0.4699c1.4708-0.1703,2.5742-1.4137,2.5742-2.8844v-6.8607
		c0-1.4706-1.1035-2.7139-2.5742-2.8832l-4.0334-0.4709c-0.5517-2.1063-1.3793-4.1182-2.4392-6.0008l2.4828-3.1365
		c0.919-1.1606,0.8181-2.8158-0.2168-3.8603l-4.8402-4.8383c-1.0425-1.0464-2.6978-1.1378-3.8565-0.2217l-3.0498,2.4162
		c-1.972-1.1615-4.0895-2.047-6.3061-2.6455l-0.4586-3.9431c-0.173-1.4688-1.4174-2.5723-2.8861-2.5723h-6.8617
		c-1.4725,0-2.7093,1.1035-2.8814,2.5723l-0.4604,3.9431c-2.2746,0.6118-4.4482,1.5288-6.4717,2.7379l-3.1593-2.5085
		c-1.1616-0.9161-2.8148-0.8144-3.8651,0.2217l-4.8468,4.8486c-1.0425,1.0464-1.1368,2.7018-0.2178,3.8614l2.6438,3.3438
		c-1.0589,1.9054-1.8637,3.9421-2.3897,6.0579l-4.2295,0.4793c-1.4707,0.1742-2.5752,1.4136-2.5752,2.8863v6.8598
		c0,1.4725,1.1045,2.7112,2.5752,2.8834L-402.1207,280.6087z M-377.2615,262.0499c6.2527,0,11.3431,5.0904,11.3431,11.3433
		c0,6.2509-5.0904,11.3423-11.3431,11.3423c-6.2529,0-11.3423-5.0913-11.3423-11.3423
		C-388.6038,267.1403-383.5144,262.0499-377.2615,262.0499L-377.2615,262.0499z"/>
</g>
</svg>
