<?xml version="1.0" encoding="utf-8"?>
<!-- Generator: Adobe Illustrator 19.0.0, SVG Export Plug-In . SVG Version: 6.00 Build 0)  -->
<svg version="1.1" id="Capa_1" xmlns="http://www.w3.org/2000/svg" xmlns:xlink="http://www.w3.org/1999/xlink" x="0px" y="0px"
	 viewBox="-360 233 238 95" style="enable-background:new -360 233 238 95;" xml:space="preserve">
<style type="text/css">
	.st0{fill:#5C5C5C;}
	.st1{fill:#134164;stroke:#134164;stroke-miterlimit:10;}
	.st2{fill:#7C7C7B;}
	.st3{fill:#345E59;}
	.st4{fill:#71B8B0;}
	.st5{fill:#D9EEF0;}
	.st6{fill:#ED6D4F;}
	.st7{fill:#402F29;}
	.st8{fill:#F7B6A6;}
	.st9{fill:#3D3D3B;}
	.st10{fill:#4485C6;}
	.st11{fill:#868686;}
	.st12{fill:#585857;}
</style>
<g id="XMLID_1572_">
	<g id="XMLID_1705_">
		<path id="XMLID_1757_" class="st0" d="M-299.2,234.7h43.9c1.9,0,3.4,1.5,3.4,3.4v86.5c0,1.9-1.5,3.4-3.4,3.4h-43.9
			c-1.9,0-3.4-1.5-3.4-3.4v-86.5C-302.6,236.2-301.1,234.7-299.2,234.7z"/>
		<rect id="XMLID_1755_" x="-301.1" y="243" class="st1" width="47.5" height="78.2"/>
		<rect id="XMLID_1753_" x="-282.2" y="240" class="st2" width="9.8" height="1"/>
		<circle id="XMLID_1749_" class="st2" cx="-277.3" cy="237.9" r="0.9"/>
		<circle id="XMLID_1747_" class="st2" cx="-277.3" cy="324.5" r="2.1"/>
	</g>
</g>
<g id="XMLID_271_">
	<g id="XMLID_329_">
		<path id="XMLID_107_" class="st3" d="M-122,254.6c0-2.6-1.8-4.6-4.4-4.6h-41.2c-2.6,0-5.5,2-5.5,4.6V322h51L-122,254.6L-122,254.6
			z"/>
		<path id="XMLID_106_" class="st4" d="M-167.5,328h41.2c2.6,0,4.4-2.1,4.4-4.8V322h-51v1.2C-173,325.9-170.1,328-167.5,328z"/>
	</g>
	<rect id="XMLID_105_" x="-169" y="258" class="st5" width="45" height="34"/>
	<path id="XMLID_104_" class="st4" d="M-139,253.5c0-0.3-0.2-0.5-0.5-0.5h-15c-0.3,0-0.5,0.2-0.5,0.5l0,0c0,0.3,0.2,0.5,0.5,0.5h15
		C-139.2,254-139,253.8-139,253.5L-139,253.5z"/>
	<path id="XMLID_103_" class="st4" d="M-164,298.1c0,0.5-0.4,0.9-0.9,0.9h-2.3c-0.5,0-0.9-0.4-0.9-0.9v-1.3c0-0.5,0.4-0.9,0.9-0.9
		h2.3c0.5,0,0.9,0.4,0.9,0.9V298.1z"/>
	<path id="XMLID_102_" class="st4" d="M-160,298.1c0,0.5-0.4,0.9-0.9,0.9h-2.3c-0.5,0-0.9-0.4-0.9-0.9v-1.3c0-0.5,0.4-0.9,0.9-0.9
		h2.3c0.5,0,0.9,0.4,0.9,0.9V298.1z"/>
	<path id="XMLID_101_" class="st4" d="M-155,298.1c0,0.5-0.4,0.9-0.9,0.9h-2.3c-0.5,0-0.9-0.4-0.9-0.9v-1.3c0-0.5,0.4-0.9,0.9-0.9
		h2.3c0.5,0,0.9,0.4,0.9,0.9V298.1z"/>
	<path id="XMLID_100_" class="st4" d="M-151,298.1c0,0.5-0.4,0.9-0.9,0.9h-2.3c-0.5,0-0.9-0.4-0.9-0.9v-1.3c0-0.5,0.4-0.9,0.9-0.9
		h2.3c0.5,0,0.9,0.4,0.9,0.9V298.1z"/>
	<path id="XMLID_99_" class="st4" d="M-146,298.1c0,0.5-0.4,0.9-0.9,0.9h-2.3c-0.5,0-0.9-0.4-0.9-0.9v-1.3c0-0.5,0.4-0.9,0.9-0.9
		h2.3c0.5,0,0.9,0.4,0.9,0.9V298.1z"/>
	<path id="XMLID_98_" class="st4" d="M-142,298.1c0,0.5-0.4,0.9-0.9,0.9h-2.3c-0.5,0-0.9-0.4-0.9-0.9v-1.3c0-0.5,0.4-0.9,0.9-0.9
		h2.3c0.5,0,0.9,0.4,0.9,0.9V298.1z"/>
	<path id="XMLID_97_" class="st4" d="M-137,298.1c0,0.5-0.4,0.9-0.9,0.9h-2.3c-0.5,0-0.9-0.4-0.9-0.9v-1.3c0-0.5,0.4-0.9,0.9-0.9
		h2.3c0.5,0,0.9,0.4,0.9,0.9V298.1z"/>
	<path id="XMLID_96_" class="st4" d="M-133,298.1c0,0.5-0.4,0.9-0.9,0.9h-2.3c-0.5,0-0.9-0.4-0.9-0.9v-1.3c0-0.5,0.4-0.9,0.9-0.9
		h2.3c0.5,0,0.9,0.4,0.9,0.9V298.1z"/>
	<path id="XMLID_95_" class="st4" d="M-128,298.1c0,0.5-0.4,0.9-0.9,0.9h-2.3c-0.5,0-0.9-0.4-0.9-0.9v-1.3c0-0.5,0.4-0.9,0.9-0.9
		h2.3c0.5,0,0.9,0.4,0.9,0.9C-128,296.9-128,298.1-128,298.1z"/>
	<path id="XMLID_94_" class="st4" d="M-124,298.1c0,0.5-0.4,0.9-0.9,0.9h-2.3c-0.5,0-0.9-0.4-0.9-0.9v-1.3c0-0.5,0.4-0.9,0.9-0.9
		h2.3c0.5,0,0.9,0.4,0.9,0.9V298.1z"/>
	<path id="XMLID_93_" class="st4" d="M-164,303.1c0,0.5-0.4,0.9-0.9,0.9h-2.3c-0.5,0-0.9-0.4-0.9-0.9v-1.3c0-0.5,0.4-0.9,0.9-0.9
		h2.3c0.5,0,0.9,0.4,0.9,0.9V303.1z"/>
	<path id="XMLID_92_" class="st4" d="M-160,303.1c0,0.5-0.4,0.9-0.9,0.9h-2.3c-0.5,0-0.9-0.4-0.9-0.9v-1.3c0-0.5,0.4-0.9,0.9-0.9
		h2.3c0.5,0,0.9,0.4,0.9,0.9V303.1z"/>
	<path id="XMLID_91_" class="st4" d="M-155,303.1c0,0.5-0.4,0.9-0.9,0.9h-2.3c-0.5,0-0.9-0.4-0.9-0.9v-1.3c0-0.5,0.4-0.9,0.9-0.9
		h2.3c0.5,0,0.9,0.4,0.9,0.9V303.1z"/>
	<path id="XMLID_90_" class="st4" d="M-151,303.1c0,0.5-0.4,0.9-0.9,0.9h-2.3c-0.5,0-0.9-0.4-0.9-0.9v-1.3c0-0.5,0.4-0.9,0.9-0.9
		h2.3c0.5,0,0.9,0.4,0.9,0.9V303.1z"/>
	<path id="XMLID_89_" class="st4" d="M-146,303.1c0,0.5-0.4,0.9-0.9,0.9h-2.3c-0.5,0-0.9-0.4-0.9-0.9v-1.3c0-0.5,0.4-0.9,0.9-0.9
		h2.3c0.5,0,0.9,0.4,0.9,0.9V303.1z"/>
	<path id="XMLID_88_" class="st4" d="M-142,303.1c0,0.5-0.4,0.9-0.9,0.9h-2.3c-0.5,0-0.9-0.4-0.9-0.9v-1.3c0-0.5,0.4-0.9,0.9-0.9
		h2.3c0.5,0,0.9,0.4,0.9,0.9V303.1z"/>
	<path id="XMLID_87_" class="st4" d="M-137,303.1c0,0.5-0.4,0.9-0.9,0.9h-2.3c-0.5,0-0.9-0.4-0.9-0.9v-1.3c0-0.5,0.4-0.9,0.9-0.9
		h2.3c0.5,0,0.9,0.4,0.9,0.9V303.1z"/>
	<path id="XMLID_86_" class="st4" d="M-133,303.1c0,0.5-0.4,0.9-0.9,0.9h-2.3c-0.5,0-0.9-0.4-0.9-0.9v-1.3c0-0.5,0.4-0.9,0.9-0.9
		h2.3c0.5,0,0.9,0.4,0.9,0.9V303.1z"/>
	<path id="XMLID_85_" class="st4" d="M-128,303.1c0,0.5-0.4,0.9-0.9,0.9h-2.3c-0.5,0-0.9-0.4-0.9-0.9v-1.3c0-0.5,0.4-0.9,0.9-0.9
		h2.3c0.5,0,0.9,0.4,0.9,0.9C-128,301.9-128,303.1-128,303.1z"/>
	<path id="XMLID_84_" class="st4" d="M-124,303.1c0,0.5-0.4,0.9-0.9,0.9h-2.3c-0.5,0-0.9-0.4-0.9-0.9v-1.3c0-0.5,0.4-0.9,0.9-0.9
		h2.3c0.5,0,0.9,0.4,0.9,0.9V303.1z"/>
	<path id="XMLID_83_" class="st4" d="M-164,307.1c0,0.5-0.4,0.9-0.9,0.9h-2.3c-0.5,0-0.9-0.4-0.9-0.9v-1.3c0-0.5,0.4-0.9,0.9-0.9
		h2.3c0.5,0,0.9,0.4,0.9,0.9V307.1z"/>
	<path id="XMLID_82_" class="st4" d="M-160,307.1c0,0.5-0.4,0.9-0.9,0.9h-2.3c-0.5,0-0.9-0.4-0.9-0.9v-1.3c0-0.5,0.4-0.9,0.9-0.9
		h2.3c0.5,0,0.9,0.4,0.9,0.9V307.1z"/>
	<path id="XMLID_81_" class="st4" d="M-155,307.1c0,0.5-0.4,0.9-0.9,0.9h-2.3c-0.5,0-0.9-0.4-0.9-0.9v-1.3c0-0.5,0.4-0.9,0.9-0.9
		h2.3c0.5,0,0.9,0.4,0.9,0.9V307.1z"/>
	<path id="XMLID_80_" class="st4" d="M-151,307.1c0,0.5-0.4,0.9-0.9,0.9h-2.3c-0.5,0-0.9-0.4-0.9-0.9v-1.3c0-0.5,0.4-0.9,0.9-0.9
		h2.3c0.5,0,0.9,0.4,0.9,0.9V307.1z"/>
	<path id="XMLID_79_" class="st4" d="M-146,307.1c0,0.5-0.4,0.9-0.9,0.9h-2.3c-0.5,0-0.9-0.4-0.9-0.9v-1.3c0-0.5,0.4-0.9,0.9-0.9
		h2.3c0.5,0,0.9,0.4,0.9,0.9V307.1z"/>
	<path id="XMLID_78_" class="st4" d="M-142,307.1c0,0.5-0.4,0.9-0.9,0.9h-2.3c-0.5,0-0.9-0.4-0.9-0.9v-1.3c0-0.5,0.4-0.9,0.9-0.9
		h2.3c0.5,0,0.9,0.4,0.9,0.9V307.1z"/>
	<path id="XMLID_77_" class="st4" d="M-137,307.1c0,0.5-0.4,0.9-0.9,0.9h-2.3c-0.5,0-0.9-0.4-0.9-0.9v-1.3c0-0.5,0.4-0.9,0.9-0.9
		h2.3c0.5,0,0.9,0.4,0.9,0.9V307.1z"/>
	<path id="XMLID_76_" class="st4" d="M-133,307.1c0,0.5-0.4,0.9-0.9,0.9h-2.3c-0.5,0-0.9-0.4-0.9-0.9v-1.3c0-0.5,0.4-0.9,0.9-0.9
		h2.3c0.5,0,0.9,0.4,0.9,0.9V307.1z"/>
	<path id="XMLID_75_" class="st4" d="M-128,307.1c0,0.5-0.4,0.9-0.9,0.9h-2.3c-0.5,0-0.9-0.4-0.9-0.9v-1.3c0-0.5,0.4-0.9,0.9-0.9
		h2.3c0.5,0,0.9,0.4,0.9,0.9C-128,305.9-128,307.1-128,307.1z"/>
	<path id="XMLID_74_" class="st4" d="M-124,307.1c0,0.5-0.4,0.9-0.9,0.9h-2.3c-0.5,0-0.9-0.4-0.9-0.9v-1.3c0-0.5,0.4-0.9,0.9-0.9
		h2.3c0.5,0,0.9,0.4,0.9,0.9V307.1z"/>
	<path id="XMLID_73_" class="st4" d="M-164,312.1c0,0.5-0.4,0.9-0.9,0.9h-2.3c-0.5,0-0.9-0.4-0.9-0.9v-1.3c0-0.5,0.4-0.9,0.9-0.9
		h2.3c0.5,0,0.9,0.4,0.9,0.9V312.1z"/>
	<path id="XMLID_72_" class="st4" d="M-160,312.1c0,0.5-0.4,0.9-0.9,0.9h-2.3c-0.5,0-0.9-0.4-0.9-0.9v-1.3c0-0.5,0.4-0.9,0.9-0.9
		h2.3c0.5,0,0.9,0.4,0.9,0.9V312.1z"/>
	<path id="XMLID_71_" class="st4" d="M-155,312.1c0,0.5-0.4,0.9-0.9,0.9h-2.3c-0.5,0-0.9-0.4-0.9-0.9v-1.3c0-0.5,0.4-0.9,0.9-0.9
		h2.3c0.5,0,0.9,0.4,0.9,0.9V312.1z"/>
	<path id="XMLID_70_" class="st4" d="M-151,312.1c0,0.5-0.4,0.9-0.9,0.9h-2.3c-0.5,0-0.9-0.4-0.9-0.9v-1.3c0-0.5,0.4-0.9,0.9-0.9
		h2.3c0.5,0,0.9,0.4,0.9,0.9V312.1z"/>
	<path id="XMLID_69_" class="st4" d="M-146,312.1c0,0.5-0.4,0.9-0.9,0.9h-2.3c-0.5,0-0.9-0.4-0.9-0.9v-1.3c0-0.5,0.4-0.9,0.9-0.9
		h2.3c0.5,0,0.9,0.4,0.9,0.9V312.1z"/>
	<path id="XMLID_68_" class="st4" d="M-142,312.1c0,0.5-0.4,0.9-0.9,0.9h-2.3c-0.5,0-0.9-0.4-0.9-0.9v-1.3c0-0.5,0.4-0.9,0.9-0.9
		h2.3c0.5,0,0.9,0.4,0.9,0.9V312.1z"/>
	<path id="XMLID_67_" class="st4" d="M-137,312.1c0,0.5-0.4,0.9-0.9,0.9h-2.3c-0.5,0-0.9-0.4-0.9-0.9v-1.3c0-0.5,0.4-0.9,0.9-0.9
		h2.3c0.5,0,0.9,0.4,0.9,0.9V312.1z"/>
	<path id="XMLID_66_" class="st4" d="M-133,312.1c0,0.5-0.4,0.9-0.9,0.9h-2.3c-0.5,0-0.9-0.4-0.9-0.9v-1.3c0-0.5,0.4-0.9,0.9-0.9
		h2.3c0.5,0,0.9,0.4,0.9,0.9V312.1z"/>
	<path id="XMLID_65_" class="st4" d="M-128,312.1c0,0.5-0.4,0.9-0.9,0.9h-2.3c-0.5,0-0.9-0.4-0.9-0.9v-1.3c0-0.5,0.4-0.9,0.9-0.9
		h2.3c0.5,0,0.9,0.4,0.9,0.9C-128,310.9-128,312.1-128,312.1z"/>
	<path id="XMLID_63_" class="st4" d="M-124,312.1c0,0.5-0.4,0.9-0.9,0.9h-2.3c-0.5,0-0.9-0.4-0.9-0.9v-1.3c0-0.5,0.4-0.9,0.9-0.9
		h2.3c0.5,0,0.9,0.4,0.9,0.9V312.1z"/>
	<path id="XMLID_62_" class="st4" d="M-164,317.1c0,0.5-0.4,0.9-0.9,0.9h-2.3c-0.5,0-0.9-0.4-0.9-0.9v-1.3c0-0.5,0.4-0.9,0.9-0.9
		h2.3c0.5,0,0.9,0.4,0.9,0.9V317.1z"/>
	<path id="XMLID_61_" class="st4" d="M-160,317.1c0,0.5-0.4,0.9-0.9,0.9h-2.3c-0.5,0-0.9-0.4-0.9-0.9v-1.3c0-0.5,0.4-0.9,0.9-0.9
		h2.3c0.5,0,0.9,0.4,0.9,0.9V317.1z"/>
	<path id="XMLID_59_" class="st4" d="M-155,317.1c0,0.5-0.4,0.9-0.9,0.9h-2.3c-0.5,0-0.9-0.4-0.9-0.9v-1.3c0-0.5,0.4-0.9,0.9-0.9
		h2.3c0.5,0,0.9,0.4,0.9,0.9V317.1z"/>
	<path id="XMLID_57_" class="st4" d="M-138,317.1c0,0.5-0.4,0.9-0.9,0.9h-15.3c-0.5,0-0.9-0.4-0.9-0.9v-1.3c0-0.5,0.4-0.9,0.9-0.9
		h15.3c0.5,0,0.9,0.4,0.9,0.9V317.1z"/>
	<path id="XMLID_55_" class="st4" d="M-133,317.1c0,0.5-0.4,0.9-0.9,0.9h-2.3c-0.5,0-0.9-0.4-0.9-0.9v-1.3c0-0.5,0.4-0.9,0.9-0.9
		h2.3c0.5,0,0.9,0.4,0.9,0.9V317.1z"/>
	<path id="XMLID_53_" class="st4" d="M-128,317.1c0,0.5-0.4,0.9-0.9,0.9h-2.3c-0.5,0-0.9-0.4-0.9-0.9v-1.3c0-0.5,0.4-0.9,0.9-0.9
		h2.3c0.5,0,0.9,0.4,0.9,0.9C-128,315.9-128,317.1-128,317.1z"/>
	<path id="XMLID_52_" class="st4" d="M-124,317.1c0,0.5-0.4,0.9-0.9,0.9h-2.3c-0.5,0-0.9-0.4-0.9-0.9v-1.3c0-0.5,0.4-0.9,0.9-0.9
		h2.3c0.5,0,0.9,0.4,0.9,0.9V317.1z"/>
</g>
<g id="XMLID_260_">
	<g id="XMLID_917_">
		<path id="XMLID_930_" class="st6" d="M-184,324.7c0,1.3-1,2.3-2.3,2.3h-46.3c-1.3,0-2.3-1-2.3-2.3v-88.3c0-1.3,1-2.3,2.3-2.3h46.3
			c1.3,0,2.3,1,2.3,2.3V324.7z"/>
		<rect id="XMLID_929_" x="-232" y="244" class="st7" width="45" height="74"/>
		<circle id="XMLID_927_" class="st8" cx="-209.5" cy="322.3" r="3"/>
		<circle id="XMLID_918_" class="st8" cx="-209.5" cy="239.3" r="1.4"/>
	</g>
</g>
<g id="XMLID_251_">
	<g id="XMLID_254_">
		<g id="XMLID_258_">
			<path id="XMLID_2_" class="st9" d="M-309,322.9c0,2.8-2.3,5.1-5.1,5.1h-40.7c-2.8,0-5.1-2.3-5.1-5.1v-84.7c0-2.8,2.3-5.1,5.1-5.1
				h40.7c2.8,0,5.1,2.3,5.1,5.1V322.9z"/>
		</g>
		<rect id="XMLID_1_" x="-356" y="247" class="st10" width="43" height="67"/>
		<path id="XMLID_256_" class="st11" d="M-331.1,320c0,2-1.6,3.6-3.6,3.6s-3.6-1.6-3.6-3.6c0-2,1.6-3.6,3.6-3.6
			C-332.7,316.4-331.1,318-331.1,320z"/>
		<path id="XMLID_255_" class="st12" d="M-330.9,242c0,0.6-0.5,1-1.1,1h-6.6c-0.6,0-1.1-0.4-1.1-1l0,0c0-0.6,0.5-1,1.1-1h6.6
			C-331.3,241-330.9,241.4-330.9,242L-330.9,242z"/>
	</g>
</g>
</svg>
