<?xml version="1.0" encoding="utf-8"?>
<!-- Generator: Adobe Illustrator 19.0.0, SVG Export Plug-In . SVG Version: 6.00 Build 0)  -->
<svg version="1.1" id="Capa_1" xmlns="http://www.w3.org/2000/svg" xmlns:xlink="http://www.w3.org/1999/xlink" x="0px" y="0px"
	 viewBox="-409 221.9409 139.2399 118.0591" style="enable-background:new -409 221.9409 139.2399 118.0591;" xml:space="preserve">
<style type="text/css">
	.st0{fill:#064663;}
	.st1{fill:#F8DDAA;}
	.st2{fill:#EACD96;}
	.st3{fill:#FFE8B8;}
	.st4{fill:#7F6D68;}
	.st5{fill:#E4EAEB;}
	.st6{fill:#1E97AE;}
	.st7{opacity:0.2;}
	.st8{fill:#231F20;}
	.st9{fill:#D17E48;}
	.st10{fill:#DC695C;}
</style>
<g id="XMLID_249_">
	<g id="XMLID_302_">
		<g id="XMLID_303_">
			<g id="XMLID_322_">
				<path class="st0" d="M-380.0865,318.7917c10.2951,0,19.8807-3.0157,27.9453-8.1935c-0.588-4.9503-1.3589-10.039-2.13-11.0982
					c-1.5856-2.1802-10.1044-11.1002-25.8153-11.1002c-15.7109,0-24.2296,8.92-25.8153,11.1002
					c-0.772,1.0592-1.542,6.1489-2.1299,11.0982C-399.9671,315.7761-390.3814,318.7917-380.0865,318.7917z"/>
			</g>
			<path id="XMLID_319_" class="st1" d="M-380.6592,284.468l-6.9076-3.6813v8.2067c0,0,1.2594,8.5236,6.9076,8.5236
				c5.6501,0,6.9085-8.5236,6.9085-8.5236v-8.2067L-380.6592,284.468z"/>
			<g id="XMLID_316_">
				<polygon class="st2" points="-381.0924,284.468 -388,288.9934 -388,280.7895 				"/>
			</g>
			<g id="XMLID_313_">
				<path class="st3" d="M-363.0829,255.6608c0-24.4459-17.5763-22.333-17.5763-22.333s-17.5744-2.1129-17.5744,22.333
					c0,0-4.0304-1.1228-4.0304,3.8322c0,4.955,4.5587,7.5326,4.5587,7.5326s9.5145,17.4425,17.0461,17.4425
					c7.5325,0,17.0471-17.4425,17.0471-17.4425s4.5576-2.5775,4.5576-7.5326C-359.0545,254.538-363.0829,255.6608-363.0829,255.6608
					z"/>
			</g>
			<g id="XMLID_310_">
				<path class="st1" d="M-381,233.3277c0,0-17.404-2.1129-17.404,22.333c0,0-3.9452-1.1228-3.9452,3.8322
					c0,4.955,4.4308,7.5326,4.4308,7.5326S-388,284.468-381,284.468V233.3277z"/>
			</g>
			<g id="XMLID_307_">
				<path class="st4" d="M-394.1843,252.1254l-2.6761,9.7128l-1.3732-6.1775c-0.6742-0.495-2.2797,0.1641-2.2797,0.1641
					s-5.5648-15.9888,5.4367-24.5123c11.0015-8.5226,24.9836-4.4296,26.462,1.9697c0,0,7.229-0.9787,9.56,5.0679
					c2.3329,6.0446-1.1673,17.8379-1.1673,17.8379s-0.9474-1.0393-2.8611-0.5273l-0.1802,6.1775l-1.8833-8.92
					c0,0-3.964-5.2518-3.8645-10.9019C-369.011,242.0163-381.4995,256.189-394.1843,252.1254z"/>
			</g>
			<g id="XMLID_304_">
				<path class="st5" d="M-374,288.929v0.0644c0,0-1.1338,8.5236-6.7839,8.5236c-5.2537,0-6.6461-7.3685-6.8244-8.4002
					c-1.1655,0.2295-2.2487,0.5045-3.3032,0.8193c3.1029,18.0875,10.2347,27.6864,10.2347,27.6864s7.0791-9.709,10.1555-27.9955
					C-371.5844,289.3482-373,289.1225-374,288.929z"/>
			</g>
		</g>
	</g>
	<g id="XMLID_276_">
		<g id="XMLID_277_">
			<g id="XMLID_299_">
				<path class="st6" d="M-271.3351,295.5265c-1.5857-2.1792-10.1044-11.0992-25.8153-11.0992
					c-15.7109,0-24.2297,8.92-25.8153,11.0992c-0.9692,1.3325-1.9365,9.0225-2.5443,14.8072
					c6.5388,4.2864,14.1044,7.1295,22.2496,8.0873l5.4472,0.3538c0.2219,0.0028,0.4409,0.017,0.6629,0.017
					c0.2219,0,0.4419-0.0142,0.6638-0.017l5.4453-0.3538c8.1461-0.9578,15.7099-3.8009,22.2496-8.0873
					C-269.3987,304.5489-270.366,296.8589-271.3351,295.5265z"/>
			</g>
			<g id="XMLID_296_" class="st7">
				<path class="st8" d="M-322.8906,295.5265c-0.9692,1.3325-1.9742,9.0225-2.582,14.8072
					c6.5388,4.2864,14.0856,7.1295,22.2308,8.0873l5.513,0.3538c0.2219,0.0028,0.7287,0.017,0.7287,0.017l0,0v-34.3645
					C-313,284.4273-321.305,293.3473-322.8906,295.5265z"/>
			</g>
			<g id="XMLID_293_">
				<path class="st1" d="M-296.9995,280.4955L-304,276.8132v8.2088c0,0,2.2892,8.5225,7.0005,8.5225
					c4.7122,0,6.9995-8.5225,6.9995-8.5225v-8.2088L-296.9995,280.4955z"/>
			</g>
			<g id="XMLID_290_">
				<path class="st1" d="M-296.9995,280.4955L-304,276.8132v8.2088c0,0,2.2892,8.5225,7.0005,8.5225
					c4.7122,0,6.9995-8.5225,6.9995-8.5225v-8.2088L-296.9995,280.4955z"/>
			</g>
			<g id="XMLID_287_">
				<path class="st3" d="M-279.5752,251.6883c0-24.4469-17.5753-22.3332-17.5753-22.3332s-17.5763-2.1137-17.5763,22.3332
					c0,0-4.0286-1.1229-4.0286,3.8312c0,4.9559,4.5577,7.5335,4.5577,7.5335s9.5145,17.4425,17.0471,17.4425
					c7.5316,0,17.0471-17.4425,17.0471-17.4425s4.5576-2.5776,4.5576-7.5335
					C-275.5457,250.5654-279.5752,251.6883-279.5752,251.6883z"/>
			</g>
			<g id="XMLID_284_">
				<path class="st1" d="M-297,229.3551c0,0-17.6515-2.1137-17.6515,22.3332c0,0-4.0662-1.1229-4.0662,3.8312
					c0,4.9559,4.6141,7.5335,4.6141,7.5335S-305,280.4955-297,280.4955V229.3551z"/>
			</g>
			<g id="XMLID_281_">
				<path class="st8" d="M-317.6115,234.3766c2.3329-6.0456,9.561-5.0668,9.561-5.0668
					c1.4794-6.4012,15.4614-10.4933,26.4621-1.9698c11.0015,8.5236,5.4367,24.5114,5.4367,24.5114s-1.6054-0.6582-2.2788-0.1631
					l-1.3731,6.1773l-2.6762-9.7126c-10.8222,3.467-21.4928-6.3321-24.3967-9.288c0.0181,0.0418,0.0323,0.0778,0.0523,0.1214
					c0.1413,0.3329,0.3289,0.7112,0.5253,1.119c0.1963,0.4079,0.4372,0.8251,0.6609,1.2556
					c0.2503,0.4115,0.496,0.8297,0.7436,1.2101c0.2636,0.367,0.5063,0.7169,0.7254,1.0071
					c0.4827,0.5463,0.8051,0.9095,0.8051,0.9095s-0.3584-0.331-0.8989-0.8279c-0.2485-0.2692-0.5273-0.5936-0.8336-0.9388
					c-0.2883-0.3584-0.5795-0.754-0.8753-1.1474c-0.2712-0.4087-0.5596-0.8099-0.8004-1.2025
					c-0.241-0.3936-0.4704-0.7587-0.6487-1.083c-0.0949-0.1632-0.1801-0.313-0.2532-0.4477
					c-0.2551,5.3371-3.8455,10.1054-3.8455,10.1054l-1.8824,8.9199l-0.1793-6.1773c-1.9137-0.5121-2.862,0.5263-2.862,0.5263
					S-319.9435,240.4221-317.6115,234.3766z"/>
			</g>
			<g id="XMLID_278_">
				<polygon class="st2" points="-297.0914,280.4955 -304,285.022 -304,276.8179 				"/>
			</g>
		</g>
	</g>
	<g id="XMLID_250_">
		<g id="XMLID_251_">
			<g id="XMLID_273_">
				<path class="st9" d="M-315.432,288h-42.833c0,0,4.7662,26,0,35h42.833C-320.1982,314-315.432,288-315.432,288z"/>
			</g>
			<g id="XMLID_270_">
				<path class="st10" d="M-337.471,340.5661c10.551,0,20.3586-3.1617,28.5455-8.5766c-0.5832-4.8421-1.3362-9.7279-2.0901-10.7635
					c-1.5856-2.1812-10.1044-11.1011-25.8162-11.1011c-15.7109,0-24.2288,8.9199-25.8153,11.1011
					c-0.7928,1.0906-1.5866,6.4448-2.1802,11.525C-356.8871,337.6994-347.5157,340.5661-337.471,340.5661z"/>
			</g>
			<g id="XMLID_267_" class="st7">
				<path class="st8" d="M-362.7312,321.226c-0.7928,1.0906-1.5446,6.4448-2.1382,11.525
					c7.9403,4.9483,17.2486,7.8151,27.2933,7.8151c0.2143,0,0.5761-0.0132,0.5761-0.0161V310.125
					C-353,310.125-361.1447,319.0449-362.7312,321.226z"/>
			</g>
			<g id="XMLID_264_">
				<path class="st1" d="M-336.9995,306.1932L-344,302.5117v8.2088c0,0,2.2882,8.5235,7.0005,8.5235
					c4.7103,0,6.9995-8.5235,6.9995-8.5235v-8.2088L-336.9995,306.1932z"/>
			</g>
			<g id="XMLID_261_">
				<polygon class="st2" points="-337.0915,306.1932 -344,310.7205 -344,302.5155 				"/>
			</g>
			<g id="XMLID_258_">
				<path class="st3" d="M-319.0849,277.3869c0-24.4469-17.5753-22.334-17.5753-22.334s-17.5763-2.1129-17.5763,22.334
					c0,0-4.0284-1.1237-4.0284,3.8312c0,4.955,4.5567,7.5325,4.5567,7.5325s9.5154,17.4426,17.048,17.4426
					c7.5316,0,17.0461-17.4426,17.0461-17.4426s4.5587-2.5775,4.5587-7.5325
					C-315.0555,276.2632-319.0849,277.3869-319.0849,277.3869z"/>
			</g>
			<g id="XMLID_255_">
				<path class="st1" d="M-337,255.0529c0,0-17.4064-2.1129-17.4064,22.334c0,0-3.9435-1.1237-3.9435,3.8312
					c0,4.955,4.4293,7.5325,4.4293,7.5325S-344,306.1932-337,306.1932V255.0529z"/>
			</g>
			<g id="XMLID_252_">
				<path class="st9" d="M-319.8285,289.1338c0,0-0.6154-14.6218-5.175-17.9922c0,0-16.4515,16.8584-28.94,17.8584h-4.1622
					c0,0-8.7398-35.83,21.0689-35.83c29.8078,0,21.6048,34.9564,21.6048,34.9564L-319.8285,289.1338z"/>
			</g>
		</g>
	</g>
</g>
</svg>
