<?xml version="1.0" encoding="utf-8"?>
<!-- Generator: Adobe Illustrator 19.0.0, SVG Export Plug-In . SVG Version: 6.00 Build 0)  -->
<svg version="1.1" id="Capa_1" xmlns="http://www.w3.org/2000/svg" xmlns:xlink="http://www.w3.org/1999/xlink" x="0px" y="0px"
	 viewBox="-390 230 179 101" style="enable-background:new -390 230 179 101;" xml:space="preserve">
<style type="text/css">
	.st0{fill-rule:evenodd;clip-rule:evenodd;fill:#879C9C;}
	.st1{fill-rule:evenodd;clip-rule:evenodd;fill:#E8F4F5;}
	.st2{fill-rule:evenodd;clip-rule:evenodd;fill:#E5E023;}
	.st3{fill-rule:evenodd;clip-rule:evenodd;fill:#64B32E;}
	.st4{fill-rule:evenodd;clip-rule:evenodd;fill:#E84527;}
</style>
<g id="XMLID_249_">
	<g id="XMLID_122_">
		<path id="XMLID_115_" class="st0" d="M-229,302.4271c0,1.421-1.1519,2.5729-2.5729,2.5729h-68.8541
			c-1.421,0-2.5729-1.1519-2.5729-2.5729v-68.8541c0-1.421,1.1519-2.5729,2.5729-2.5729h68.8541
			c1.421,0,2.5729,1.1519,2.5729,2.5729V302.4271z"/>
		<path id="XMLID_114_" class="st1" d="M-232.6398,304h-67.193c-1.421,0-2.1672-0.748-2.1672-2.169V238h72v63.831
			C-230,303.252-231.2188,304-232.6398,304z"/>
		<circle id="XMLID_129_" class="st2" cx="-300.026" cy="235.1197" r="1.717"/>
		<circle id="XMLID_128_" class="st3" cx="-295.3166" cy="235.1197" r="1.717"/>
		<circle id="XMLID_123_" class="st4" cx="-290.6073" cy="235.1197" r="1.717"/>
	</g>
	<g id="XMLID_263_">
		<path id="XMLID_113_" class="st0" d="M-316,302.4271c0,1.421-1.1519,2.5729-2.5729,2.5729h-68.8541
			c-1.421,0-2.5729-1.1519-2.5729-2.5729v-68.8541c0-1.421,1.1519-2.5729,2.5729-2.5729h68.8541
			c1.421,0,2.5729,1.1519,2.5729,2.5729V302.4271z"/>
		<path id="XMLID_112_" class="st1" d="M-319.5214,304h-67.1929c-1.421,0-2.2857-0.748-2.2857-2.169V238h72v63.831
			C-317,303.252-318.1004,304-319.5214,304z"/>
		<circle id="XMLID_266_" class="st2" cx="-386.9075" cy="235.1197" r="1.717"/>
		<circle id="XMLID_265_" class="st3" cx="-382.1982" cy="235.1197" r="1.717"/>
		<circle id="XMLID_264_" class="st4" cx="-377.4888" cy="235.1197" r="1.717"/>
	</g>
	<g id="XMLID_117_">
		<g id="XMLID_124_">
			<path id="XMLID_111_" class="st0" d="M-211,329.4271c0,1.421-1.1519,2.5729-2.5729,2.5729h-68.8541
				c-1.421,0-2.5729-1.1519-2.5729-2.5729v-68.8541c0-1.421,1.1519-2.5729,2.5729-2.5729h68.8541
				c1.421,0,2.5729,1.1519,2.5729,2.5729V329.4271z"/>
			<path id="XMLID_110_" class="st1" d="M-214.6398,331h-67.193c-1.421,0-2.1672-0.748-2.1672-2.169V265h72v63.831
				C-212,330.252-213.2188,331-214.6398,331z"/>
			<circle id="XMLID_127_" class="st2" cx="-282.026" cy="262.1197" r="1.717"/>
			<circle id="XMLID_126_" class="st3" cx="-277.3166" cy="262.1197" r="1.717"/>
			<circle id="XMLID_125_" class="st4" cx="-272.6073" cy="262.1197" r="1.717"/>
		</g>
		<g id="XMLID_118_">
			<path id="XMLID_109_" class="st0" d="M-298,329.4271c0,1.421-1.1519,2.5729-2.5729,2.5729h-68.8541
				c-1.421,0-2.5729-1.1519-2.5729-2.5729v-68.8541c0-1.421,1.1519-2.5729,2.5729-2.5729h68.8541
				c1.421,0,2.5729,1.1519,2.5729,2.5729V329.4271z"/>
			<path id="XMLID_108_" class="st1" d="M-301.5214,331h-67.1929c-1.421,0-2.2857-0.748-2.2857-2.169V265h72v63.831
				C-299,330.252-300.1004,331-301.5214,331z"/>
			<circle id="XMLID_121_" class="st2" cx="-368.9075" cy="262.1197" r="1.717"/>
			<circle id="XMLID_120_" class="st3" cx="-364.1982" cy="262.1197" r="1.717"/>
			<circle id="XMLID_119_" class="st4" cx="-359.4888" cy="262.1197" r="1.717"/>
		</g>
	</g>
</g>
</svg>
