<?xml version="1.0" encoding="utf-8"?>
<!-- Generator: Adobe Illustrator 19.0.0, SVG Export Plug-In . SVG Version: 6.00 Build 0)  -->
<svg version="1.1" id="Capa_1" xmlns="http://www.w3.org/2000/svg" xmlns:xlink="http://www.w3.org/1999/xlink" x="0px" y="0px"
	 viewBox="-401 211.194 156.2533 139.806" style="enable-background:new -401 211.194 156.2533 139.806;" xml:space="preserve">
<style type="text/css">
	.st0{fill:#055C84;}
	.st1{fill:#43BCD0;}
	.st2{fill:#EF794D;}
	.st3{fill:#FFFFFF;}
</style>
<g id="XMLID_249_">
	<g id="XMLID_3732_">
		<g id="XMLID_3733_">
			<g id="XMLID_3734_">
				<g id="XMLID_3799_">
					<path id="XMLID_3800_" class="st0" d="M-322.2201,313.4867c-2.0146,0-3.6454-1.6305-3.6454-3.6454v-17.6121
						c0-2.0136,1.6308-3.6441,3.6454-3.6441c2.0131,0,3.6441,1.6305,3.6441,3.6441v17.6121
						C-318.576,311.8562-320.2071,313.4867-322.2201,313.4867z"/>
				</g>
				<g id="XMLID_3771_">
					<g id="XMLID_3797_">
						<path id="XMLID_3798_" class="st1" d="M-294.5544,278.1378c0,1.2899-1.0503,2.3386-2.3368,2.3386h-51.9889
							c-1.2896,0-2.3373-1.049-2.3373-2.3386v-43.0025c0-1.2909,1.0477-2.3357,2.3373-2.3357h51.9886
							c1.2865,0,2.3368,1.0448,2.3368,2.3357v43.0025H-294.5544z"/>
					</g>
					<g id="XMLID_3795_">
						<path id="XMLID_3796_" class="st0" d="M-291.925,234.684c0,1.2896-1.0487,2.3373-2.3399,2.3373h-56.3676
							c-1.2912,0-2.3373-1.0477-2.3373-2.3373v-20.1515c0-1.2925,1.0459-2.3386,2.3373-2.3386h56.3676
							c1.2909,0,2.3399,1.0461,2.3399,2.3386C-291.925,214.5326-291.925,234.684-291.925,234.684z"/>
					</g>
					<g id="XMLID_3792_">
						<path id="XMLID_3794_" class="st0" d="M-291.925,263.3396c0,1.2912-1.0487,2.3401-2.3399,2.3401h-56.3676
							c-1.2912,0-2.3373-1.0487-2.3373-2.3401v-20.1515c0-1.2909,1.0459-2.3383,2.3373-2.3383h56.3676
							c1.2909,0,2.3399,1.0474,2.3399,2.3383C-291.925,243.1881-291.925,263.3396-291.925,263.3396z"/>
					</g>
					<g id="XMLID_3790_">
						<path id="XMLID_3791_" class="st0" d="M-291.925,291.9956c0,1.2896-1.0487,2.3373-2.3399,2.3373h-56.3676
							c-1.2912,0-2.3373-1.0477-2.3373-2.3373v-20.1515c0-1.2883,1.0459-2.3373,2.3373-2.3373h56.3676
							c1.2909,0,2.3399,1.0487,2.3399,2.3373C-291.925,271.8442-291.925,291.9956-291.925,291.9956z"/>
					</g>
					<g id="XMLID_3788_">
						<path id="XMLID_3789_" class="st2" d="M-342.194,222.8822c0,0.9458-0.7591,1.711-1.705,1.711h-2.9818
							c-0.943,0-1.7068-0.7651-1.7068-1.711v-2.9777c0-0.943,0.7638-1.7097,1.7068-1.7097h2.9818
							c0.9459,0,1.705,0.7669,1.705,1.7097V222.8822z"/>
					</g>
					<g id="XMLID_3786_">
						<path id="XMLID_3787_" class="st1" d="M-333.4313,222.8822c0,0.9458-0.7638,1.711-1.7079,1.711h-2.9763
							c-0.9459,0-1.711-0.7651-1.711-1.711v-2.9777c0-0.943,0.7651-1.7097,1.711-1.7097h2.9761c0.944,0,1.7079,0.7669,1.7079,1.7097
							v2.9777H-333.4313z"/>
					</g>
					<g id="XMLID_3784_">
						<path id="XMLID_3785_" class="st3" d="M-296.0159,228.7128c0,1.2868-1.0459,2.3357-2.3373,2.3357h-30.3754
							c-1.288,0-2.3357-1.0487-2.3357-2.3357v-8.1793c0-1.2909,1.0477-2.3386,2.3357-2.3386h30.3754
							c1.2912,0,2.3373,1.0477,2.3373,2.3386V228.7128z"/>
					</g>
					<g id="XMLID_3782_">
						<path id="XMLID_3783_" class="st2" d="M-342.194,251.5253c0,0.944-0.7591,1.7094-1.705,1.7094h-2.9818
							c-0.943,0-1.7068-0.7654-1.7068-1.7094v-2.9764c0-0.9458,0.7638-1.711,1.7068-1.711h2.9818c0.9459,0,1.705,0.7651,1.705,1.711
							V251.5253z"/>
					</g>
					<g id="XMLID_3780_">
						<path id="XMLID_3781_" class="st1" d="M-333.4313,251.5253c0,0.944-0.7638,1.7094-1.7079,1.7094h-2.9763
							c-0.9459,0-1.711-0.7654-1.711-1.7094v-2.9764c0-0.9458,0.7651-1.711,1.711-1.711h2.9761c0.944,0,1.7079,0.7651,1.7079,1.711
							v2.9764H-333.4313z"/>
					</g>
					<g id="XMLID_3778_">
						<path id="XMLID_3779_" class="st3" d="M-296.0159,257.3514c0,1.2912-1.0459,2.3373-2.3373,2.3373h-30.3754
							c-1.288,0-2.3357-1.0459-2.3357-2.3373v-8.1733c0-1.2912,1.0477-2.3401,2.3357-2.3401h30.3754
							c1.2912,0,2.3373,1.0487,2.3373,2.3401V257.3514z"/>
					</g>
					<g id="XMLID_3776_">
						<path id="XMLID_3777_" class="st2" d="M-342.194,280.1811c0,0.943-0.7591,1.711-1.705,1.711h-2.9818
							c-0.943,0-1.7068-0.768-1.7068-1.711v-2.9774c0-0.9443,0.7638-1.7068,1.7068-1.7068h2.9818
							c0.9459,0,1.705,0.7625,1.705,1.7068V280.1811z"/>
					</g>
					<g id="XMLID_3774_">
						<path id="XMLID_3775_" class="st1" d="M-333.4313,280.1811c0,0.943-0.7638,1.711-1.7079,1.711h-2.9763
							c-0.9459,0-1.711-0.768-1.711-1.711v-2.9774c0-0.9443,0.7651-1.7068,1.711-1.7068h2.9761c0.944,0,1.7079,0.7625,1.7079,1.7068
							v2.9774H-333.4313z"/>
					</g>
					<g id="XMLID_3772_">
						<path id="XMLID_3773_" class="st3" d="M-296.0159,286.0091c0,1.2896-1.0459,2.3368-2.3373,2.3368h-30.3754
							c-1.288,0-2.3357-1.0474-2.3357-2.3368v-8.1765c0-1.2925,1.0477-2.3357,2.3357-2.3357h30.3754
							c1.2912,0,2.3373,1.0432,2.3373,2.3357V286.0091z"/>
					</g>
				</g>
				<g id="XMLID_3754_">
					<g id="XMLID_3769_">
						<path id="XMLID_3770_" class="st0" d="M-362.1962,347.0965c0,2.7097-2.1951,4.9035-4.9035,4.9035h-28.997
							c-2.7068,0-4.9035-2.1938-4.9035-4.9035v-75.4615c0-2.7055,2.1967-4.9006,4.9035-4.9006H-367.1
							c2.7084,0,4.9035,2.1951,4.9035,4.9006v75.4615H-362.1962z"/>
					</g>
					<g id="XMLID_3767_">
						<path id="XMLID_3768_" class="st3" d="M-368.2864,274.2302c0,0.6735-0.5459,1.2222-1.2222,1.2222h-24.7167
							c-0.675,0-1.2222-0.5487-1.2222-1.2222l0,0c0-0.6763,0.5474-1.2266,1.2222-1.2266h24.7167
							C-368.8323,273.0036-368.2864,273.5538-368.2864,274.2302L-368.2864,274.2302z"/>
					</g>
					<g id="XMLID_3765_">
						<path id="XMLID_3766_" class="st3" d="M-368.2864,277.7852c0,0.6779-0.5459,1.2266-1.2222,1.2266h-24.7167
							c-0.675,0-1.2222-0.5487-1.2222-1.2266l0,0c0-0.6735,0.5474-1.2222,1.2222-1.2222h24.7167
							C-368.8323,276.563-368.2864,277.1117-368.2864,277.7852L-368.2864,277.7852z"/>
					</g>
					<g id="XMLID_3763_">
						<path id="XMLID_3764_" class="st3" d="M-368.2864,281.3491c0,0.6735-0.5459,1.2237-1.2222,1.2237h-24.7167
							c-0.675,0-1.2222-0.5503-1.2222-1.2237l0,0c0-0.6721,0.5474-1.2196,1.2222-1.2196h24.7167
							C-368.8323,280.1295-368.2864,280.6772-368.2864,281.3491L-368.2864,281.3491z"/>
					</g>
					<g id="XMLID_3761_">
						<path id="XMLID_3762_" class="st3" d="M-368.2864,344.2191c0,1.7724-1.437,3.2071-3.2055,3.2071h-20.7502
							c-1.768,0-3.2053-1.4344-3.2053-3.2071v-26.5537c0-1.7724,1.437-3.2071,3.2053-3.2071h20.7504
							c1.7685,0,3.2055,1.4344,3.2055,3.2071v26.5537H-368.2864z"/>
					</g>
					<g id="XMLID_3759_">
						<path id="XMLID_3760_" class="st0" d="M-371.5331,324.8356c0,1.7711-1.4344,3.2055-3.204,3.2055h-2.3646
							c-1.7711,0-3.2055-1.4344-3.2055-3.2055v-2.3654c0-1.7698,1.4344-3.204,3.2055-3.204h2.3644
							c1.7696,0,3.204,1.4342,3.204,3.204v2.3654H-371.5331z"/>
					</g>
					<g id="XMLID_3757_">
						<path id="XMLID_3758_" class="st2" d="M-390.0413,290.0558c0,0.7466-0.6045,1.3555-1.3571,1.3555h-2.3625
							c-0.7451,0-1.3545-0.6089-1.3545-1.3555v-2.3631c0-0.7466,0.6091-1.3555,1.3545-1.3555h2.3628
							c0.7523,0,1.3571,0.6089,1.3571,1.3555v2.3631H-390.0413z"/>
					</g>
					<g id="XMLID_3755_">
						<path id="XMLID_3756_" class="st1" d="M-383.0915,290.0558c0,0.7466-0.6089,1.3555-1.3555,1.3555h-2.3631
							c-0.7492,0-1.3555-0.6089-1.3555-1.3555v-2.3631c0-0.7466,0.6063-1.3555,1.3555-1.3555h2.3631
							c0.7466,0,1.3555,0.6089,1.3555,1.3555C-383.0914,287.6927-383.0914,290.0558-383.0915,290.0558z"/>
					</g>
				</g>
				<g id="XMLID_3737_">
					<g id="XMLID_3752_">
						<path id="XMLID_3753_" class="st0" d="M-244.7469,347.0965c0,2.7097-2.1925,4.9035-4.9006,4.9035h-28.9985
							c-2.7053,0-4.9048-2.194-4.9048-4.9035v-75.4615c0-2.7055,2.1995-4.9006,4.9048-4.9006h28.9985
							c2.7081,0,4.9006,2.1951,4.9006,4.9006C-244.7469,271.6351-244.7469,347.0965-244.7469,347.0965z"/>
					</g>
					<g id="XMLID_3750_">
						<path id="XMLID_3751_" class="st3" d="M-250.834,274.2302c0,0.6735-0.5458,1.2222-1.2222,1.2222h-24.7169
							c-0.6761,0-1.2222-0.5487-1.2222-1.2222l0,0c0-0.6763,0.5461-1.2266,1.2222-1.2266h24.7169
							C-251.3799,273.0036-250.834,273.5538-250.834,274.2302L-250.834,274.2302z"/>
					</g>
					<g id="XMLID_3748_">
						<path id="XMLID_3749_" class="st3" d="M-250.834,277.7852c0,0.6779-0.5458,1.2266-1.2222,1.2266h-24.7169
							c-0.6761,0-1.2222-0.5487-1.2222-1.2266l0,0c0-0.6735,0.5461-1.2222,1.2222-1.2222h24.7169
							C-251.3799,276.563-250.834,277.1117-250.834,277.7852L-250.834,277.7852z"/>
					</g>
					<g id="XMLID_3746_">
						<path id="XMLID_3747_" class="st3" d="M-250.834,281.3491c0,0.6735-0.5458,1.2237-1.2222,1.2237h-24.7169
							c-0.6761,0-1.2222-0.5503-1.2222-1.2237l0,0c0-0.6721,0.5461-1.2196,1.2222-1.2196h24.7169
							C-251.3799,280.1295-250.834,280.6772-250.834,281.3491L-250.834,281.3491z"/>
					</g>
					<g id="XMLID_3744_">
						<path id="XMLID_3745_" class="st3" d="M-250.834,344.2191c0,1.7724-1.436,3.2071-3.2055,3.2071h-20.7504
							c-1.7696,0-3.2055-1.4344-3.2055-3.2071v-26.5537c0-1.7724,1.4359-3.2071,3.2055-3.2071h20.7504
							c1.7696,0,3.2055,1.4344,3.2055,3.2071V344.2191z"/>
					</g>
					<g id="XMLID_3742_">
						<path id="XMLID_3743_" class="st0" d="M-254.0809,324.8356c0,1.7711-1.4373,3.2055-3.2071,3.2055h-2.3628
							c-1.768,0-3.2055-1.4344-3.2055-3.2055v-2.3654c0-1.7698,1.4373-3.204,3.2055-3.204h2.3631
							c1.7696,0,3.2071,1.4342,3.2071,3.204v2.3654H-254.0809z"/>
					</g>
					<g id="XMLID_3740_">
						<path id="XMLID_3741_" class="st2" d="M-272.5905,290.0558c0,0.7466-0.6018,1.3555-1.3539,1.3555h-2.363
							c-0.748,0-1.3555-0.6089-1.3555-1.3555v-2.3631c0-0.7466,0.6075-1.3555,1.3555-1.3555h2.363
							c0.7521,0,1.3539,0.6089,1.3539,1.3555V290.0558z"/>
					</g>
					<g id="XMLID_3738_">
						<path id="XMLID_3739_" class="st1" d="M-265.6406,290.0558c0,0.7466-0.6075,1.3555-1.3539,1.3555h-2.3631
							c-0.7523,0-1.3571-0.6089-1.3571-1.3555v-2.3631c0-0.7466,0.6045-1.3555,1.3571-1.3555h2.3631
							c0.7466,0,1.3539,0.6089,1.3539,1.3555V290.0558z"/>
					</g>
				</g>
				<g id="XMLID_3735_">
					<path id="XMLID_3736_" class="st0" d="M-280.4271,314.3307h-80.4637c-2.0136,0-3.6454-1.632-3.6454-3.6454
						c0-2.0131,1.632-3.6451,3.6454-3.6451h80.4637c2.0131,0,3.6454,1.632,3.6454,3.6451
						C-276.7817,312.6989-278.414,314.3307-280.4271,314.3307z"/>
				</g>
			</g>
		</g>
	</g>
	<g id="XMLID_3731_">
	</g>
	<g id="XMLID_3730_">
	</g>
	<g id="XMLID_3729_">
	</g>
	<g id="XMLID_3728_">
	</g>
	<g id="XMLID_3727_">
	</g>
	<g id="XMLID_3726_">
	</g>
	<g id="XMLID_3725_">
	</g>
	<g id="XMLID_3724_">
	</g>
	<g id="XMLID_3723_">
	</g>
	<g id="XMLID_3722_">
	</g>
	<g id="XMLID_3721_">
	</g>
	<g id="XMLID_3720_">
	</g>
	<g id="XMLID_3719_">
	</g>
	<g id="XMLID_3718_">
	</g>
	<g id="XMLID_3717_">
	</g>
</g>
</svg>
