<?xml version="1.0" encoding="utf-8"?>
<!-- Generator: Adobe Illustrator 19.0.0, SVG Export Plug-In . SVG Version: 6.00 Build 0)  -->
<svg version="1.1" id="Capa_1" xmlns="http://www.w3.org/2000/svg" xmlns:xlink="http://www.w3.org/1999/xlink" x="0px" y="0px"
	 viewBox="0 0 321.994 541.0001" style="enable-background:new 0 0 321.994 541.0001;" xml:space="preserve">
<style type="text/css">
	.st0{fill:#FFC691;stroke:#F1B486;stroke-miterlimit:10;}
	.st1{fill:#F1B486;}
	.st2{fill:none;stroke:#F1B486;stroke-linecap:round;stroke-linejoin:round;stroke-miterlimit:10;}
	.st3{fill:#BE1E2D;stroke:#EF4136;stroke-miterlimit:10;}
	.st4{fill:#871826;stroke:#EF4136;stroke-miterlimit:10;}
	.st5{fill:#2A424F;stroke:#0B5675;stroke-miterlimit:10;}
	.st6{fill:#574A35;stroke:#4C3617;stroke-miterlimit:10;}
	.st7{fill:#EADED4;stroke:#939598;stroke-miterlimit:10;}
	.st8{fill:#574A35;}
	.st9{fill:#231F20;}
	.st10{fill:#939598;stroke:#6D6E71;stroke-miterlimit:10;}
	.st11{fill:#E63B17;stroke:#BE1E2D;stroke-miterlimit:10;}
	.st12{fill:#253275;stroke:#1C75BC;stroke-miterlimit:10;}
	.st13{fill:#18252B;}
	.st14{fill:none;stroke:#0B5675;stroke-linecap:round;stroke-linejoin:round;stroke-miterlimit:10;}
	.st15{fill:#9DB2AA;stroke:#6F7B7F;stroke-miterlimit:10;}
	.st16{fill:#CCE2D9;stroke:#929DA0;stroke-miterlimit:10;}
	.st17{fill:none;stroke:#231F20;stroke-miterlimit:10;}
	.st18{fill:none;stroke:#4C3617;stroke-linecap:round;stroke-linejoin:round;stroke-miterlimit:10;}
	.st19{fill:#FFFFFF;}
	.st20{fill:#343432;}
	.st21{fill:#FFC691;stroke:#F1B486;stroke-linecap:round;stroke-linejoin:round;stroke-miterlimit:10;}
	.st22{fill:none;stroke:#D69F7B;stroke-linecap:round;stroke-linejoin:round;stroke-miterlimit:10;}
	.st23{fill:#75654E;}
	.st24{fill:#4C3617;}
	.st25{fill:#C6465C;}
	.st26{fill:#ED9283;}
</style>
<g id="XMLID_154_">
	<g id="XMLID_1_">
		<path id="XMLID_11_" class="st0" d="M139.2531,358.7311c-0.4358-0.8302-13.9426-9.4428-14.4385-9.8664
			c-0.496-0.4235-8.1504-3.5009-6.3895-10.2767c1.7609-6.7758,13.9116-36.6723,15.2041-37.286
			c1.2925-0.6136,1.3095-5.4478,1.3095-5.4478s9.5957-102.7709,16.9365-109.7363c7.3409-6.9655,17.0163-20.7105,30.4142-9.6187
			c13.3979,11.0919,14.1834,20.8856,8.8867,31.5039c-5.2967,10.6183-23.9779,76.1712-27.4709,80.6205
			c-3.493,4.4493-6.5361,14.4145-10.7669,17.3816c0,0,9.7929,6.6046,4.4141,16.2975c0,0-3.2511,6.8525-4.7441,5.5868
			c0,0,2.0389,0.9576,4.3339,2.6212c0,0,4.9974-10.5872,10.5225-9.0328c0,0,2.432,10.9067-3.9096,16.3595
			c0,0,0.1342,3.5365-2.6644,5.1529c0,0-0.2974,4.3108-3.7434,4.2367c0,0-8.6834,6.0312-12.817,4.5175
			c0,0,2.7764,3.7837,0.2842,5.3751C142.1223,358.7109,139.2531,358.7311,139.2531,358.7311z"/>
		<path id="XMLID_7_" class="st1" d="M155.5863,324.1994c0,0,2.7465-3.9623,1.6133-5.7343
			c-1.1332-1.772-2.6214-7.0941-5.0616-9.1663c-2.4403-2.0722-3.6193-3.0734-3.6193-3.0734s3.5997-1.6104,4.6186-2.5715
			c1.019-0.961,4.3209-8.9118,5.4044-10.4268s3.0793-5.299,3.6622-6.2245c0.5829-0.9254,2.9169-8.1254,3.4976-8.7993
			c0.5807-0.674,2.1368-4.7657,2.1368-4.7657l1.8928,1.6073c0,0-3.9986,9.4752-4.6639,10.7366
			c-0.6653,1.2614-8.117,14.8733-8.4838,15.7258c-0.4276,0.9939-2.5539,3.6933-2.5539,3.6933l-1.0537,1.0159
			c0,0,3.0371,2.2021,4.0604,4.1086C158.0595,312.2317,161.7168,317.23,155.5863,324.1994z"/>
		<path id="XMLID_6_" class="st2" d="M130.3853,339.6176c0,0,11.5343,10.9354,13.945,12.1269"/>
		<path id="XMLID_5_" class="st2" d="M139.6191,337.4762c0,0,5.1057,7.7581,8.7921,9.4625s10.899-2.483,12.4796-3.9484"/>
		<path id="XMLID_4_" class="st2" d="M142.1366,334.5115c0,0,7.6417,8.802,9.7772,8.3025
			c2.1354-0.4995,9.4443-2.3693,11.6414-4.9766"/>
		<path id="XMLID_3_" class="st2" d="M148.9001,330.2413c0,0,0.7193-2.5265,4.3808-1.1285
			c3.6615,1.3979,5.6023,1.3348,4.2769,3.6317"/>
		<path id="XMLID_2_" class="st2" d="M138.2175,299.4941c0,0-3.655,0.3434-4.5883,1.8079"/>
	</g>
	<path id="XMLID_15_" class="st3" d="M145.3333,198.1877c-2.0285,6.9124,3.8751,14.366,16.5605,16.7695
		c12.6853,2.4035,21.9988-59.1547,21.9988-59.1547C176.2658,158.2209,154.776,166.0114,145.3333,198.1877z"/>
	<path id="XMLID_139_" class="st4" d="M262.7121,136.3858c0,4.2388-4.0655,7.675-9.0804,7.675c-5.015,0-9.0804-3.4362-9.0804-7.675
		s0-9.3647,9.0804-7.675C258.6466,128.7108,264.9574,131.4868,262.7121,136.3858z"/>
	<path id="XMLID_138_" class="st5" d="M149.473,508.4524c0.1634-0.0476,2.3495,0.4081,2.85,1.5816
		c0.4596,1.0776,0.3752,2.4934-1.6515,2.3626c-2.0266-0.1308-2.7893-0.1308-2.9201-1.1985
		C147.6207,510.1303,149.0441,508.5772,149.473,508.4524z"/>
	<ellipse id="XMLID_137_" class="st5" cx="109.9169" cy="499.6213" rx="3.9754" ry="2.7295"/>
	<path id="XMLID_73_" class="st6" d="M197.4158,23.4965c0,0-6.9863,3.8149-6.5095,9.9459c0.4768,6.1309-0.0498,6.9725,0.763,12.2267
		s-2.5817,9.8803,2.7431,10.8182c5.3248,0.9379,11.5428-4.303,12.8698-5.9587S202.4897,21.9998,197.4158,23.4965z"/>
	<path id="XMLID_136_" class="st7" d="M59.7136,521.067c0,0-1.003,11.3672,1.3373,12.7045
		c2.3403,1.3373,18.768,6.3522,29.7781,6.6866s22.3773-1.3373,27.058-4.6806c4.6806-3.3433,6.3523-3.97,8.0239-4.994
		c1.6717-1.024,6.0179,1.3583,10.6986,0c4.6806-1.3583,16.0479-4.7017,15.0449-11.0539c-1.003-6.3523-1.4076-9.1764-1.4076-9.1764
		l-14.9745-14.4737c0,0-20.2476,1.9117-21.5363,1.6585c-1.2887-0.2531-6.8727,5.2154-6.8727,5.2154s-13.7166,5.8866-20.7375,8.6568
		C79.1047,514.3803,64.7973,519.3758,59.7136,521.067z"/>
	<path id="XMLID_72_" class="st0" d="M253.4133,102.2472c-0.1905,0.7277,0.0807,39.4773,1.5753,43.0798
		c1.4947,3.6024-17.9287,28.2876-21.5718,27.3524c-3.6431-0.9353-45.4855,1.5875-45.4855,1.5875s3.4155-33.952,2.9857-34.7854
		s27.8056-7.6965,28.5968-7.7486s24.1867-9.2192,25.1799-11.0327C245.687,118.8866,253.4133,102.2472,253.4133,102.2472z"/>
	<path id="XMLID_135_" class="st8" d="M263.1309,133.5919"/>
	<circle id="XMLID_134_" class="st9" cx="273.6305" cy="503.0829" r="8.3349"/>
	<circle id="XMLID_133_" class="st9" cx="225.7795" cy="503.0829" r="8.3349"/>
	<path id="XMLID_71_" class="st1" d="M253.3265,105.4611c0,0,0.1396,36.4812,1.1847,37.2528
		c1.0452,0.7715,0.5279,6.1195,0.4995,6.9025c-0.0284,0.783-17.484,5.3961-17.484,5.3961s-2.8842-7.8707-1.2851-10.6053
		c1.599-2.7346,9.3241-12.7211,9.3241-12.7211s-15.4717,15.4529-28.7294,16.0932c-13.2577,0.6404-18.1535-7.3525-19.3458-7.6647
		s6.2959-7.7117,6.2959-7.7117s23.0003-7.0467,23.899-7.5178C228.5842,124.414,253.3265,105.4611,253.3265,105.4611z"/>
	<circle id="XMLID_132_" class="st9" cx="179.1418" cy="503.0829" r="8.3349"/>
	<path id="XMLID_131_" class="st10" d="M168.0365,489.0548c0,0-0.2507-15.0449,1.2537-18.8061
		c1.5045-3.7612,5.5164-8.5254,15.2956-9.2777c9.7791-0.7522,23.821-2.7582,27.3315-2.7582c3.5105,0,32.3464,0.7522,38.1136,0
		c5.7672-0.7523,28.0837-0.7523,29.3375,7.7732c1.2537,8.5254,1.7552,25.827-4.012,26.83c-5.7672,1.003-10.0918,0-10.0609-8.7762
		c0.0309-8.7762-2.4765-13.0389-11.5034-14.5434c-9.0269-1.5045-22.0658-0.2507-22.818-0.2507
		c-0.7522,0-1.5045,7.0209-0.2507,10.7821c1.2537,3.7612,4.4049,16.2986-4.9439,16.0479
		c-9.3488-0.2508-7.8443-11.5344-6.8413-16.5493s0.7522-10.5314,0.7522-10.5314s-29.8242,0.5015-32.2137,2.2567
		c-2.3895,1.7552-4.1447,6.0179-3.894,11.5344s-0.1487,11.5631-5.5908,12.0503
		C172.5499,495.3235,168.0365,489.0548,168.0365,489.0548z"/>
	<path id="XMLID_130_" class="st10" d="M210.162,411.5739c0,0,0.5015,13.5404,0,19.5583
		c-0.5015,6.0179-4.7642,22.2078-1.2537,26.7756c3.5105,4.5678,25.8272,0.6448,28.8368,0.6389s3.2589-10.9647,1.5036-22.7001
		s0-26.5295,0-26.5295S210.0103,406.0656,210.162,411.5739z"/>
	<path id="XMLID_129_" class="st9" d="M191.6067,390.7618l1.5045,14.2926c0,0,0,6.0179,7.7732,6.2687
		c7.7732,0.2507,41.8748,1.5045,45.1346,0c3.2597-1.5045,9.5284-2.7582,9.5284-8.2747s0-12.2866,0-12.2866l-31.608-6.7702
		L191.6067,390.7618z"/>
	<path id="XMLID_128_" class="st7" d="M1.5401,496.0795c0,0-2.3403,7.6023,0,9.6083s19.3911,6.4079,30.424,5.8786
		c11.0329-0.5293,18.0538-1.8666,20.7285-3.8726s4.6806-5.0232,7.0209-3.8489c2.3403,1.1743,6.2695,6.1057,15.965,4.7683
		c9.6956-1.3373,15.1202-6.3523,14.792-13.8741c-0.1056-2.4192,0.3357-4.5976-1.4289-7.5974
		c-1.949-3.3133-9.0175-1.9734-10.2713-2.1824c-2.006-0.3343-25.4091,3.009-26.4121,3.009c-1.003,0-31.0927,8.1112-31.0927,8.1112
		H1.5401z"/>
	<path id="XMLID_127_" class="st11" d="M147.9767,513.3773c0,0-2.3403,5.015-11.0329,6.6866
		c-8.6926,1.6716-12.3702,1.003-18.3882,3.3433c-6.0179,2.3403-9.6956,9.0269-19.3911,8.0239
		c-9.6906-1.0025-37.4166,0.6671-39.4478-10.3473c-0.0018-0.01-0.0206-0.0089-0.0199-0.019
		c0.0138-0.2047,3.014-4.5697,17.3358-7.601c14.6897-3.1091,32.4367-12.8634,34.1381-15.6691
		c1.7014-2.8057,8.9204,4.2076,14.4463,5.288s9.1651,8.2897,13.6886,7.7041c5.2634-0.6813,10.9411-0.2338,10.9411-0.2338
		L147.9767,513.3773z"/>
	<path id="XMLID_126_" class="st11" d="M54.4915,470.9722c0,0-5.8108,6.9661-11.4944,8.6378
		c-5.6836,1.6716-16.0478,4.6336-21.0628,5.3258s-11.3672,0.3578-15.7135,3.7011c-4.3463,3.3433-9.0269,7.9049-1.6717,9.636
		s21.3971,4.5453,31.427,4.8099s18.0538-2.7444,17.7195-3.0787c-0.3343-0.3344,0.3343-3.5031,2.3403-3.9247
		c2.006-0.4216-1.003,2.134,6.0179,2.1935s17.4497-1.2173,22.4001-3.5251c4.9504-2.3077,6.3523-5.7767,6.3523-5.7767
		s-13.5208-15.2709-20.7304-17.0215C60.0894,468.2838,54.4915,470.9722,54.4915,470.9722z"/>
	<path id="XMLID_125_" class="st12" d="M173.0514,383.9916c0,0,11.7851,11.2836,41.1226,11.2836s58.1734-3.7612,64.6929-5.6418
		c6.5194-1.8806,22.818-4.6388,24.0717-17.1762s1.5045-18.8061-5.2657-21.3135c-6.7702-2.5075-93.2781,3.2597-93.2781,3.2597
		L173.0514,383.9916z"/>
	<path id="XMLID_124_" class="st5" d="M308.1208,308.433c0,0,3.6776,17.3852,2.3403,24.4061s-1.3373,23.7374-19.0568,24.7404
		c-17.7195,1.003-44.2798-2.6747-51.0594-1.003c-6.7796,1.6717-33.8604,8.6926-38.8753,10.3642
		c-5.015,1.6717-20.4018,12.0931-20.3941,17.0508c0.0077,4.9577,2.6746,5.6836,2.006,9.6956
		c-0.6687,4.012-3.5327,2.006-3.9395,6.6866c-0.4068,4.6806-1.0755,8.3582-2.4128,15.3792
		c-1.3373,7.0209-10.3642,29.421-14.0419,34.7703c-3.6776,5.3493-8.3582,19.0568-9.3612,22.4001s-3.3433,2.6747-2.6746,6.6866
		c0.6687,4.012,3.009,5.6836,3.009,10.3642c0,4.6806-3.2455,5.3493-3.1272,9.6956s1.7899,10.3642,1.7899,10.3642
		s-7.0209,2.0988-13.7075,1.3838s-13.3732-8.4047-21.7314-11.748c-8.3583-3.3433-10.0299-2.006-10.0299-2.006
		s1.6716-8.0239,2.006-15.0448c0.3343-7.0209,1.6716-25.4091-0.3343-31.0927c-2.006-5.6836-2.6746-12.8377-1.6716-17.2845
		c1.003-4.4469,3.3433-7.7902,2.006-12.8051c-1.3373-5.015-1.2559-8.0239-2.4668-14.3762s1.4638-21.3971,1.4638-26.7464
		s1.003-11.7015,1.003-11.7015s-9.3612,4.012-12.7045,7.3553s-5.0149,1.3373-3.009,10.0299
		c2.006,8.6926,5.0149,15.9085,2.006,24.0021c-3.009,8.0936-8.0239,13.1086-7.6896,20.7981
		c0.3343,7.6896,5.015,15.0449,3.6776,18.3882c-1.3373,3.3433-6.0179,8.4937-5.6836,10.9335
		c0.3343,2.4397-1.003,11.4666,1.3373,14.8099s5.3493,11.7016,4.012,14.0419c-1.3373,2.3403-3.6776-2.6747-11.0329-10.3642
		c-7.3553-7.6896-21.3971-9.3612-26.0777-7.3553c0,0,1.3373-6.2168,0-11.1323c-1.3373-4.9155-0.3343-6.9215,0-12.6051
		c0.3343-5.6836-3.009-26.412-4.012-31.0927c-1.003-4.6806,1.003-15.5463-1.003-21.1464c-2.006-5.6-6.6866-25.6598-7.3553-33.3494
		c-0.6687-7.6896,0-19.3911,11.3672-27.0807c11.3672-7.6896,54.4958-26.7464,67.2003-32.0957
		c12.7045-5.3493,19.7255-4.012,24.4061-7.0209s16.7165-7.0209,18.0538-7.0209c1.3373,0,66.5317,8.0239,66.5317,8.0239
		s59.1764,18.7225,62.5197,20.0598C294.7476,318.1286,308.1208,308.433,308.1208,308.433z"/>
	<path id="XMLID_123_" class="st13" d="M308.7134,313.3974l0.8124,7.2001c0,0-5.6456,4.488-8.6478,5.9891
		c-3.0022,1.5011-9.3402,7.5056-20.8487,4.6701c-11.5085-2.8354-29.9975-13.3432-41.6851-15.6783s-11.7737-8.3395-28.4096-8.5063
		c-16.6359-0.1668-45.1757-8.0594-51.4278-10.0074c-6.2521-1.948-11.4089-5.6709-10.9085-6.1712s18.3469-8.5063,18.8472-8.5063
		c0.5004,0,47.8158,11.5085,47.8158,11.5085l49.9766,20.0147c0,0,26.1324,1.3343,26.6328,1.1675
		C291.371,314.9113,308.7134,313.3974,308.7134,313.3974z"/>
	<path id="XMLID_122_" class="st14" d="M211.8337,310.439c-1.3373,0-33.5757,12.3702-41.0268,15.3792
		s-33.8631,10.3642-39.5467,14.7105c-5.6836,4.3463-16.0478,7.0209-18.7225,15.7135c-2.6746,8.6926-3.6776,12.3702-3.6776,12.3702"
		/>
	<path id="XMLID_13_" class="st3" d="M263.1309,133.5919c0,0,1.8613,9.3478,2.53,10.3508
		c0.6687,1.003,18.0538,17.3852,22.4001,21.3971s13.7075,15.7135,18.0538,19.0568c4.3463,3.3433,4.012,2.6746,6.0179,13.7075
		c2.006,11.0329,6.0179,27.0807,7.3553,33.433c1.3373,6.3523,2.006,14.0419,2.006,18.0538s-29.1815-8.0239-29.1815-8.0239
		s8.5123,45.8032,11.3245,52.4898c2.8122,6.6866,9.8331,10.6986,9.1645,16.3822c-0.6687,5.6836-18.7225,19.7255-29.4211,17.7195
		c-10.6985-2.006-49.4808-22.4001-54.8301-22.4001c-5.3493,0-29.7554-3.6776-39.4509-5.6836
		c-9.6956-2.006-20.7285-7.0209-28.7524-6.6866c-8.0239,0.3343-9.6956-12.0359-9.6956-12.0359s12.9353-73.2834,12.9184-74.3405
		c-0.3342-20.9534,15.446-52.3261,26.3011-53.3024c0,0-1.0982,15.8375,23.9688,11.2961
		c20.9332-3.7925,38.2808-21.3971,41.7077-27.7494C258.9742,130.9038,262.3764,129.9773,263.1309,133.5919z"/>
	<path id="XMLID_70_" class="st0" d="M199.2723,27.9519c-0.3515,0.6651-3.7741,1.5841-4.8839,14.5974
		s-1.5044,19.0364-3.9194,23.5025c-2.415,4.4661-12.3234,22.5483-13.2521,30.7746s3.3417,38.3677,7.7873,41.8484
		c4.4456,3.4807,38.6575,8.7207,55.4462-5.9108c0,0,13.2002-10.7695,13.815-25.6272c0.6148-14.8577,0.7289-24.4675,0.7289-24.4675
		s5.1749-23.6752-6.3763-34.9611c-11.5512-11.2859-12.8535-23.3792-16.2213-24.6231
		C229.0291,21.8411,201.5301,23.6804,199.2723,27.9519z"/>
	<path id="XMLID_121_" class="st4" d="M312.0323,258.2151l1.2724-12.2483c0,0,10.7899,1.7552,7.2794,7.0209
		S312.0323,258.2151,312.0323,258.2151z"/>
	<path id="XMLID_120_" class="st4" d="M269.0877,249.6153c0,0-6.4825,1.2123-6.3756-4.5378c0.1069-5.75,0.2495-8.5254,3.1872-8.7762
		s6.1974,1.9213,6.5735,3.4681s-1.8806,9.8458-1.8806,9.8458H269.0877z"/>
	<path id="XMLID_14_" class="st15" d="M95.375,220.518c-2.3052-3.6017-0.226-8.3856,3.98-9.1575
		c16.4457-3.0181,50.2851-9.1658,51.2963-8.8397c1.3373,0.4312,1.6591,0.339,5.6,5.4462
		c1.8146,2.3516,28.8995,47.4078,28.8995,47.4078l8.1011,30.1295c0,0-37.4261,9.9157-42.6007,9.7229
		c-5.1746-0.1929-4.1791,3.009-10.1971-5.2657C135.6688,283.3813,106.9413,238.5892,95.375,220.518z"/>
	<path id="XMLID_19_" class="st16" d="M93.6756,223.4456c-2.3052-3.6017-0.226-8.3856,3.98-9.1575
		c16.4457-3.0181,50.2851-9.1658,51.2963-8.8397c1.3373,0.4312,1.6591,0.339,5.6,5.4462
		c1.8146,2.3516,28.8995,47.4077,28.8995,47.4077l8.1011,30.1295c0,0-37.4261,9.9157-42.6007,9.7229
		c-5.1746-0.1929-4.1791,3.009-10.1971-5.2657C133.9694,286.309,105.2419,241.5169,93.6756,223.4456z"/>
	<path id="XMLID_119_" class="st0" d="M271.0101,239.5611l-3.6776,11.7016c0,0-29.0867,4.3463-37.7793,6.3523
		s-13.3732-0.6687-17.7195,0c-4.3463,0.6686-6.0179-7.3553-9.0269-11.0329s-17.3852-8.3582-24.4061-7.0209l-5.3493-0.2336
		c0,0,11.7016,14.9441,11.7016,16.2814c0,1.3373,0.6687,11.0329-6.0179,13.0388s-21.0628,1.3373-25.0747,0
		c-4.012-1.3373-5.4194,0.4777-5.015,1.2661c0,0,0.93,5.5208,4.9218,7.0828c0,0,2.3053,6.1026,5.2935,6.4216
		c-0.8785,2.4383,5.5538,5.9009,5.5538,5.9009s5.0332,1.8224,8.9382,1.6488s23.951-2.6034,27.3353-4.0786
		c3.3844-1.4752,7.1433-2.0827,8.5614-2.2562s3.2405,1.4752,4.2818,0.781c1.0414-0.6942,6.9114,2.5412,10.0457,3.2934
		c3.1344,0.7522,32.7225,7.0209,39.4927,8.0239c6.7702,1.003,18.8061,2.5075,23.5703,2.7582c4.7642,0.2508,12.5374,0,14.5434,0
		s7.5224,1.5045,8.2747-10.7821c0.7522-12.2866,4.7564-39.3387,4.7564-39.3387S290.7356,239.0596,271.0101,239.5611z"/>
	<path id="XMLID_118_" class="st2" d="M277.6131,253.1014c0,0-1.674-3.1555-10.2806-1.8388"/>
	<path id="XMLID_117_" class="st1" d="M268.9969,245.9668c0,0,6.1846-2.4425,10.938-1.774
		c4.7534,0.6684,18.271,6.8837,20.6478,7.8982c2.3767,1.0145,8.2442,2.2772,8.2442,2.6485c0,0.3714-2.4606,26.921-2.4606,28.355
		c0,1.434-0.9453,9.6251-2.7294,10.9624s-7.9691,4.5816-20.3394,1.6222c-12.3702-2.9595-44.4659-6.3028-48.3107-6.9714
		c-3.8448-0.6687-20.7256-3.366-20.7256-3.366s8.5517,3.2325,13.3924,4.267c4.8407,1.0345,28.0957,5.9404,32.7624,6.6768
		c4.6667,0.7365,17.533,3.4271,21.8785,3.3157c4.3455-0.1115,17.9028,1.1956,20.8956,0.0034
		c2.9928-1.1922,4.9052-1.742,5.6367-7.0522c0.7315-5.3101,1.265-16.5994,1.9269-19.6333
		c0.6619-3.0338,2.6413-17.8696,2.9209-19.8177c0.2796-1.9481,0.5398-3.7326,0.5398-3.7326l-34.0931-12.1481l-9.0269,1.003
		L268.9969,245.9668z"/>
	<path id="XMLID_116_" class="st3" d="M321.494,249.591c0,0,0,0-6.3373,0.0243c-6.3373,0.0243-28.0151-10.8064-35.7882-10.2878
		c-7.7732,0.5186-17.8031,1.2366-16.5493,0s2.5075-12.8053,4.5135-20.077c2.006-7.2717,3.009-29.0867,3.009-29.0867"/>
	<path id="XMLID_115_" class="st2" d="M190.1022,275.6687c0,0-14.2926,5.2657-20.812,5.015
		c-6.5194-0.2507-15.7231-3.687-15.7231-3.687"/>
	<path id="XMLID_114_" class="st2" d="M191.6067,280.6924c-0.2507-0.2594-13.8929,6.2836-23.3195,4.5048
		c-9.4266-1.7789-9.4266-1.7789-9.4266-1.7789"/>
	<path id="XMLID_69_" class="st17" d="M186.7098,110.0964c0,0,25.2407,9.453,40.1825-6.3861"/>
	<path id="XMLID_68_" class="st2" d="M199.5945,84.0085c0,0-1.6269-0.328-6.392-1.2654c-4.7652-0.9374-6.5798-0.0743-6.8221-0.2638"
		/>
	<path id="XMLID_67_" class="st17" d="M224.4846,99.3112c0,0,5.2821,2.0255,4.6045,6.7413"/>
	<path id="XMLID_66_" class="st2" d="M216.1064,84.4968c0,0,5.4647,0.0119,8.5835,0.5081c3.1188,0.4962,7.1364,1.3508,8.5761,1.9574
		"/>
	<path id="XMLID_65_" class="st6" d="M209.8164,0.5784c0,0-16.1781-1.8337-18.199,12.2316
		c-2.0209,14.0653,4.2607,19.8758,11.4053,20.5342c7.1446,0.6584,11.6126-2.2578,14.207-3.2348
		c2.5943-0.9769,6.7501,0.111,8.6898,1.4939c1.9397,1.383,3.8258,5.3349,6.4022,5.337c2.5764,0.0021,3.4139-1.5572,4.5994,1.2934
		c1.1855,2.8506-1.7403,12.1121,2.3968,14.9151c4.1371,2.803,8.4821,3.3046,8.9091,6.3107s-0.9182,9.8066-0.6108,11.9367
		l2.1991-0.7883c0,0,3.0497-6.4181,5.0376-6.1244s7.4587,6.4722,7.3686-0.3516c0.1008-2.8953-3.343-8.816-2.4987-12.1302
		c0.8443-3.3142-3.8968-3.5862-4.7355-7.1423s-2.881-5.5673-2.9819-8.2811c-0.1009-2.7139,1.433-6.558-2.8154-11.1483
		c-4.2484-4.5903-14.5151-9.9918-15.7691-9.8039s3.0434-4.1026,0.2791-5.3586s-10.4934-1.2623-15.2702,1.2415
		c0,0,2.1846-4.1032-0.1333-5.0498s-9.1219,2.0022-12.4058,6.0702C205.8907,12.5296,213.3193,1.8179,209.8164,0.5784z"/>
	<path id="XMLID_64_" class="st18" d="M202.5205,17.1987c0,0,2.4056-3.6069,3.3702-4.6691"/>
	<path id="XMLID_63_" class="st18" d="M213.7027,16.2287c0,0,2.9664-3.9523,4.7271-4.7195"/>
	<path id="XMLID_62_" class="st18" d="M225.9993,19.3451c0,0,6.2699-2.5347,7.4216-3.7189"/>
	<g id="XMLID_38_">
		<g id="XMLID_55_">
			<g id="XMLID_59_">
				<path id="XMLID_214_" class="st19" d="M204.4521,69.9273c1.0862,1.9625,1.2236,4.039-1.0755,5.5585
					c-4.6682,3.0845-13.6449,3.2646-15.527-3.2765c-1.1264-3.9146,1.7832-6.992,5.3578-7.8291
					C197.9405,63.2717,202.0857,65.6521,204.4521,69.9273z"/>
			</g>
			<g id="XMLID_56_">
				<path id="XMLID_212_" class="st19" d="M215.5902,72.5646c-1.3694,2.0019-1.7291,4.2233,0.591,6.0935
					c4.7108,3.7965,14.356,4.9057,17.0491-1.9439c1.6117-4.0992-1.2066-7.7088-4.9694-8.9745
					C223.2787,66.0636,218.5736,68.2035,215.5902,72.5646z"/>
			</g>
		</g>
		<g id="XMLID_51_">
			<circle id="XMLID_54_" class="st8" cx="198.3401" cy="72.4833" r="4.3413"/>
			<circle id="XMLID_53_" class="st20" cx="198.3401" cy="72.4833" r="1.9266"/>
			<circle id="XMLID_52_" class="st19" cx="196.5725" cy="69.929" r="2.0453"/>
		</g>
		<g id="XMLID_47_">
			<circle id="XMLID_50_" class="st8" cx="225.9911" cy="76.159" r="4.6943"/>
			<circle id="XMLID_49_" class="st20" cx="225.9911" cy="76.159" r="2.0833"/>
			<circle id="XMLID_48_" class="st19" cx="225.0793" cy="72.9263" r="2.2117"/>
		</g>
		<path id="XMLID_46_" class="st20" d="M187.6639,69.7196c0,0,0.997-4.4714,7.8193-4.1695
			c6.8223,0.3019,9.7374,6.7922,9.7374,6.7922s-0.873-8.382-9.1181-8.3719C187.8574,63.9805,187.6639,69.7196,187.6639,69.7196z"/>
		<path id="XMLID_45_" class="st20" d="M233.5918,74.0329c0,0-0.5433-4.4737-7.9183-4.8444
			c-7.3751-0.3707-11.2491,5.8775-11.2491,5.8775s1.7946-8.9343,10.6694-8.0827C233.9687,67.8349,233.5918,74.0329,233.5918,74.0329
			z"/>
		<g id="XMLID_42_">
			<path id="XMLID_207_" class="st20" d="M190.1418,75.7063c0,0,0.649,0.4826,1.7595,0.9069
				c0.2807,0.0948,0.5781,0.2173,0.9088,0.2948c0.3257,0.0951,0.6748,0.1672,1.0379,0.2345c0.7244,0.1426,1.5133,0.197,2.3,0.1863
				c0.3928-0.0221,0.7888-0.0025,1.174-0.0562c0.3846-0.0523,0.7685-0.0701,1.1311-0.1477
				c0.3647-0.0684,0.7172-0.1346,1.0514-0.1973c0.3294-0.0874,0.6409-0.1701,0.9284-0.2464c0.5814-0.1361,1.043-0.3259,1.378-0.4255
				c0.3337-0.1058,0.5244-0.1662,0.5244-0.1662s-0.1817,0.0831-0.4997,0.2285c-0.3256,0.1258-0.7657,0.3807-1.3448,0.5483
				c-0.2863,0.0944-0.5965,0.1967-0.9245,0.3049c-0.3369,0.0788-0.6923,0.1619-1.0599,0.2478
				c-0.3681,0.0861-0.7601,0.1127-1.1526,0.1736c-0.393,0.062-0.7997,0.052-1.2029,0.0804
				c-0.8089-0.0047-1.6185-0.0767-2.3607-0.2377c-0.3733-0.0705-0.7259-0.1721-1.0539-0.2881
				c-0.3327-0.0994-0.6308-0.2426-0.9102-0.356C190.7225,76.2783,190.1418,75.7063,190.1418,75.7063z"/>
		</g>
		<g id="XMLID_39_">
			<path id="XMLID_148_" class="st20" d="M230.4042,80.2445c0,0-0.6834,0.5566-1.9238,0.9961
				c-0.3124,0.0936-0.6478,0.2174-1.0162,0.2904c-0.3649,0.0915-0.7548,0.1649-1.1639,0.2027
				c-0.4064,0.0653-0.832,0.0493-1.262,0.0781c-0.4295-0.0165-0.8688-0.0189-1.3036-0.0629
				c-0.4312-0.0717-0.8699-0.1024-1.2867-0.2092c-0.4163-0.1055-0.8356-0.1742-1.2231-0.3044
				c-0.387-0.13-0.761-0.2557-1.1157-0.3748c-0.3421-0.1499-0.6656-0.2917-0.9642-0.4225
				c-0.6063-0.2395-1.0541-0.5588-1.3918-0.7274c-0.3275-0.189-0.5146-0.297-0.5146-0.297s0.1991,0.0845,0.5476,0.2324
				c0.3504,0.1414,0.828,0.3928,1.44,0.5986c0.3017,0.1115,0.6285,0.2322,0.9743,0.3599c0.3535,0.1016,0.7262,0.2088,1.1118,0.3196
				c0.3824,0.1205,0.7939,0.1788,1.2026,0.2743c0.4091,0.0971,0.8374,0.1164,1.2581,0.1802
				c0.4222,0.0511,0.8487,0.0613,1.2668,0.086c0.4176-0.0205,0.8328,0.0042,1.2282-0.0521
				c0.3978-0.0355,0.7809-0.0775,1.1412-0.1466c0.3639-0.0498,0.6965-0.1513,1.0084-0.2247
				c0.6153-0.1788,1.1184-0.3669,1.4603-0.5251C230.2179,80.3555,230.4042,80.2445,230.4042,80.2445z"/>
		</g>
	</g>
	<path id="XMLID_37_" class="st9" d="M239.0341,71.3506c-0.1336,0.8327-1.5285,5.765-1.5285,5.765l12.0182-4.4776l0.373-2.596
		C249.8968,70.042,244.0598,72.3569,239.0341,71.3506z"/>
	<g id="XMLID_34_">
		<path id="XMLID_36_" class="st0" d="M249.5218,72.6517c0,0,1.6588-9.7596,6.6899-9.3751
			c5.0312,0.3845,7.2897,11.1383,6.5311,14.7103s-1.4993,6.1649-2.6337,7.2289c-1.1345,1.064-1.5815,1.6132-0.7932,3.8124
			c0.7883,2.1991,2.776,8.0061-0.1617,8.811c-2.9377,0.8049-5.8215-1.3272-6.833-3.6811"/>
		<path id="XMLID_35_" class="st21" d="M252.9528,77.8072c-0.0511-0.4981,1.7103-8.0623,3.4181-8.6322
			c1.7077-0.5699,4.0768,0.8748,4.349,4.104c0,0,1.4709,7.6959-0.9154,6.3715c-2.3864-1.3245-1.2658-2.511-2.5695-2.9458"/>
	</g>
	<path id="XMLID_113_" class="st0" d="M154.166,278.6387c-1.0994-2.4769,2.9483-0.1263,2.9483-0.1263l-0.1912,2.1624
		C156.7152,280.7891,154.8018,279.9103,154.166,278.6387z"/>
	<path id="XMLID_112_" class="st0" d="M148.768,270.5989c-1.0994-2.4769,2.9113-0.3132,2.9113-0.3132l-0.3358,2.8535
		C151.3172,272.7492,149.4038,271.8705,148.768,270.5989z"/>
	<path id="XMLID_111_" class="st0" d="M158.9362,284.692c-1.0994-2.4769,2.9482-0.1263,2.9482-0.1263l-0.1912,2.1624
		C161.4854,286.8423,159.572,285.9636,158.9362,284.692z"/>
	<path id="XMLID_33_" class="st22" d="M209.7239,96.013c2.1128-0.1872,4.4307,0.7593,2.7449,3.9526
		c-1.6858,3.1933-3.7454,1.3023-4.8701,1.3861s-0.4187-3.0049-1.8268-3.4526c-1.4081-0.4477-1.7701,1.218-2.9154,2.3577
		c-1.1453,1.1397-1.639,1.1596-6.6914,0.4337s-3.8229-4.9664-2.8245-7.645s8.4228-8.2376,9.1454-9.8515s0.4711-7.0357,0.4711-7.0357
		"/>
	<path id="XMLID_29_" class="st9" d="M209.8801,63.6655c-19.292-2.7719-29.0756-2.5811-29.0756-2.5811l-0.0798,6.7297
		c0.3852,14.6015,5.998,13.8115,9.8213,14.3608c3.8239,0.5494,9.1354,3.0863,12.7175-4.5587
		c3.5822-7.6456,5.7176-7.694,5.7176-7.694s4.6108-1.2802,5.8949,7.0646c1.2847,8.3442,7.0957,7.4054,10.9195,7.9548
		c3.8233,0.5493,8.9867,2.8876,13.4672-11.0147l1.6859-7.4505C240.9486,66.4764,230.0062,63.4051,209.8801,63.6655z
		 M202.263,76.6988c-3.5387,6.0057-6.9483,4.8904-6.9483,4.8904l-4.1954-0.6028c-11.3649-1.6329-7.7362-11.3723-7.6078-15.369
		c0.128-3.9979,10.6937-2.3897,10.6937-2.3897s4.5713,0.4789,8.73,1.967C207.0931,66.685,205.8033,70.6938,202.263,76.6988z
		 M237.2072,71.0345c-1.0021,3.8712-0.2622,14.2382-11.6266,12.6054l-4.1954-0.6028c0,0-3.5863,0.1102-5.2914-6.649
		c-1.7059-6.7587-1.8149-10.9686,2.5945-11.2279c4.4096-0.257,8.9307,0.5704,8.9307,0.5704S238.21,67.1623,237.2072,71.0345z"/>
	<path id="XMLID_27_" class="st8" d="M203.881,60.8793c0,0-7.94-3.2276-12.3648-0.0599l-4.124-1.5334
		c0,0,2.0841-6.2107,9.1595-6.0928c7.0754,0.1179,10.4469,6.8434,10.4469,6.8434L203.881,60.8793z"/>
	<path id="XMLID_23_" class="st8" d="M218.8309,61.829c0,0,5.4023-2.2749,9.0677-1.5649c3.6655,0.7099,6.1711,4.4732,6.1711,4.4732
		l4.1758-0.1983c0,0-3.7844-8.4907-10.9475-9.0126s-10.5612,4.3983-10.5612,4.3983L218.8309,61.829z"/>
	<path id="XMLID_22_" class="st23" d="M230.3727,22.3334c0,0,9.7991-1.9763,13.9806,1.2548
		c4.1815,3.2311,4.8287,7.685,5.1425,8.6814c0,0-2.326-5.3712-6.3766-6.8387C239.0684,23.9633,230.3727,22.3334,230.3727,22.3334z"
		/>
	<path id="XMLID_16_" class="st23" d="M215.6452,14.1277c6.6091-4.7499,9.8899-4.7119,11.2611-3.6946
		c0,0,0.4456,0.7533-0.5028,1.5273c0,0,0.8221-1.0427-0.3997-0.9416C224.7819,11.1199,221.0488,11.1875,215.6452,14.1277z"/>
	<path id="XMLID_12_" class="st23" d="M198.8952,3.2436c-0.1538-0.8764,8.4662-1.5011,9.6304-0.2523
		c0,0,0.3018,0.8215-0.7712,1.4109c0,0,0.9974-0.8765-0.2225-0.9984C206.312,3.282,204.1257,2.5227,198.8952,3.2436z"/>
	<path id="XMLID_10_" class="st24" d="M215.4111,26.5096c-0.2103-0.0271-3.7319,1.9101-5.693,2.1405
		c-1.9611,0.2304-10.5914-2.7298-12.7334-5.916c-1.6636-2.4744-5.338-11.6336,1.9122-16.9945
		c-0.0547,0.0307-0.1015,0.0548-0.172,0.0994c-1.5132,0.9562-6.4622,5.0606-6.6723,11.5596
		c-0.2428,7.5052,7.1637,13.2014,17.6732,12.8645C214.1363,29.7512,215.2132,27.2698,215.4111,26.5096z"/>
	<path id="XMLID_9_" class="st23" d="M218.3589,13.7768c7.2111-5.1611,13.9747-2.7043,14.4156-2.3274
		c0,0-0.5246,0.5508-0.9965,0.7481c-0.4719,0.1973,0.0433-0.358,0.0433-0.358S227.7307,10.5393,218.3589,13.7768z"/>
	<path id="XMLID_110_" class="st25" d="M258.2993,133.9358c0,0,1.5493,4.1186,1.5493,5.8147c0,1.6962,4.8623,9.7247,7.0108,11.647
		c2.1485,1.9223,13.9086,11.647,15.4917,13.117c1.5831,1.47,13.004,15.6048,14.9263,17.0748
		c1.9223,1.47,7.5762,7.6893,8.2547,9.2724c0.6785,1.5831,4.9754,16.9617,6.1062,20.354
		c1.1308,3.3923,8.1768,25.2093,8.1768,25.2093s-0.474-2.9668-1.3584-6.986c-1.7311-7.8672-4.541-19.8411-4.99-22.0115
		c-0.6785-3.2793-1.7706-8.5529-2.2897-11.2659c-0.2487-1.3001-0.6191-6.6764-2.4231-8.8882
		c-0.5433-0.6661-1.2802-1.1179-2.3841-2.0514c-4.7164-3.9886-5.9806-5.6989-7.1246-6.9306
		c-1.2304-1.3246-7.1728-8.5487-11.1443-12.2533s-18.1907-17.1074-18.5739-17.4373c-0.6984-0.6013-4.2415-4.1861-4.2415-4.1861
		s-1.4906-4.8347-1.7742-6.1543s-0.2772-5.4613-1.9128-6.1266C260.2441,131.583,258.2993,133.9358,258.2993,133.9358z"/>
	<path id="XMLID_109_" class="st13" d="M138.687,510.9562c6.6866,0.715,13.0297-1.2683,13.0297-1.2683s-1.563-5.5536-1.6813-9.8998
		c-0.1183-4.3462,3.1268-5.1792,3.1268-9.8599c0-4.6805-2.2884-6.0577-2.957-10.0697c-0.6686-4.012,1.8041-3.6194,2.8071-6.9629
		c1.003-3.3432,5.6229-17.1178,9.3005-22.467c3.6776-5.3492,12.7382-27.6136,14.0756-34.6345
		c1.3374-7.0209,2.0206-10.7035,2.4275-15.3842c0.4067-4.6807,3.1274-2.7012,3.7961-6.7131
		c0.6686-4.012-1.8305-4.6625-1.8381-9.6201c-0.0078-4.9576,15.4341-15.6508,20.449-17.3222c5.015-1.6717,32.2203-8.9174,39-10.5891
		c6.7796-1.6715,33.2981,2.0819,51.0177,1.0789c17.7195-1.003,17.5133-17.3541,18.8507-24.375
		c0.5302-2.7837,0.165-7.1256-0.3397-11.4383c-3.1733,3.6148-1.7396,9.2559-4.0536,14.7515
		c-2.6747,6.3522-9.0269,9.3612-13.5946,12.3701s-20.1728,1.003-27.8652,1.959c-7.6924,0.956-13.7047,0.047-21.7286,0.0005
		c-8.0239-0.0465-14.7106,3.0555-21.0628,6.399c-6.3522,3.3432-17.0508,6.6864-28.1945,9.6954s-11.2563,7.0209-14.3188,11.8331
		c-3.0625,4.8117-20.0724,5.5522-20.0724,5.5522s3.0751,6.3522,5.0811,6.3522c2.006,0,4.6805-5.3492,11.292-4.6699
		c6.6113,0.679,2.7499,8.6819,0.7159,12.3474c-2.0339,3.6657-7.9959,17.3973-7.9288,21.4093
		c0.0671,4.012-11.1,22.0658-14.4537,28.418c-3.3536,6.3524-6.3419,19.0568-9.3509,25.7435s1.6717,13.3731,3.009,18.3881
		c1.3372,5.015,3.7162,11.6431,0,13.0389c-3.7162,1.3962-11.3671-4.012-15.0449-5.015
		c-3.6777-1.003-11.0329-10.6984-15.7136-11.3671l-2.5747,9.393c0.8061,0.2735,2.4835,1.0755,3.4664,1.4685
		C125.717,502.8416,132.0004,510.2409,138.687,510.9562z"/>
	<path id="XMLID_108_" class="st13" d="M109.8715,427.2282c0,0-3.3388,6.9557-2.6432,11.8248
		c0.6956,4.869,1.1129,11.8247,2.6432,13.9115c1.5303,2.0867,4.3126,6.1211,10.5727,5.9819
		c6.2602-0.1391,10.4336-1.0386,10.4336-1.0386s-11.4074-0.2134-13.9115-9.5341c-2.5041-9.3207-4.3126-18.5023-3.7561-21.1454
		S109.8715,427.2282,109.8715,427.2282z"/>
	<path id="XMLID_107_" class="st13" d="M110.086,362.616c0,0-9.6861,1.6695-10.5208,2.6431
		c-0.8347,0.9738-7.6514,6.2603-8.2078,8.0687c-0.5565,1.8084-3.1997,4.5908-5.5646,5.8429
		c-2.365,1.252-8.0687,1.6693-8.0687,1.6693c3.7561,0.6957,4.1735,0,4.1735,0l2.0867,4.7299c0,0,1.5303,5.1474,4.7299,15.859
		c3.1996,10.7119-4.3126,11.9639-5.5646,17.5286c-1.252,5.5647-1.8085,15.5809-0.4173,17.6677
		c1.3912,2.0868,2.5041,9.8771,1.252,13.0766c-1.252,3.1997-3.4778,8.0687-3.7561,11.9639c-0.2782,3.8954,0,9.1773,0,9.1773
		s-1.5303,1.3955-4.4517,0c-2.9214-1.3958-9.3207-2.7778-12.103-5.0037c-2.7823-2.2259-8.9208,0.6439-8.9208,0.6439l-0.3596,4.0167
		c5.2948-1.1037,17.702-0.3962,25.0573,7.2935c5.0567,5.2865,7.7267,8.9746,9.2772,10.2168
		c0.7048,0.5646,1.2227,1.4622,1.6407,0.7308c1.3373-2.3402-1.9552-10.7217-4.2955-14.0649
		c-1.9986-3.2366-0.8136-12.0576-1.1479-14.4975c-0.3343-2.4396,4.4045-7.8577,5.7418-11.2012
		c1.3373-3.3432-3.4376-10.8311-3.772-18.5207c-0.1805-7.4016,4.7901-12.687,7.799-20.7805s-0.0821-15.2013-2.0881-23.8939
		c-2.006-8.6924-0.3155-6.6496,3.0278-9.9931c2.561-2.5609,8.1176-5.425,10.8283-6.667l1.9539-0.88L110.086,362.616z"/>
	<path id="XMLID_106_" class="st26" d="M71.1762,518.2897c-0.2834,0.5221,1.1257,9.2473,8.8179,7.1835
		s20.7315,1.1257,22.1386,1.0319s4.2213-0.8442,9.5684-4.9718c5.347-4.1275,13.5083-5.6284,18.1049-5.347
		c0,0-14.3526,4.409-16.8854,7.2232c-2.5328,2.8142-3.2833,6.848-11.0693,6.4727s-11.5383-2.7204-15.2906-2.3452
		c-3.7523,0.3752-11.6979,0.2814-15.4173-0.9381c-3.7194-1.2195-9.4417-4.5966-7.0027-6.5665
		C66.5797,518.0624,72.0205,516.7347,71.1762,518.2897z"/>
	<path id="XMLID_105_" class="st26" d="M7.9204,493.0916c-0.3261-0.5602,2.5728-4.0199,8.3615-4.5827
		c5.7887-0.5628,10.1302-0.2412,14.311-2.1707s14.0698-4.5023,16.9641-5.9495c2.8944-1.4472,4.7435-4.5023,5.5475-5.2259
		c0.804-0.7236-3.5375,6.9143-6.5927,8.2007c-3.0552,1.2864-18.0093,6.5123-20.9841,6.5123s-11.4166-0.6432-12.0598,0.804
		s-0.4824,2.9748,1.9296,3.6983C17.8094,495.1016,11.0559,498.4784,7.9204,493.0916z"/>
	<path id="XMLID_104_" class="st26" d="M23.4366,495.5768c1.8935-0.5351,10.8783,3.0002,14.6252,1.5605
		c3.747-1.4397,8.7026-1.9231,12.4496-3.1318c3.747-1.2087,9.1861-2.5383,10.2739-1.5713c1.0878,0.967,0.4835,2.8628,0.8461,2.3984
		s-7.4939-0.986-8.9444,0c-1.4504,0.986-3.5052,4.3703-9.1861,5.3373c-5.6809,0.9669-15.9548,0.7252-18.1305,0
		S17.8766,497.148,23.4366,495.5768z"/>
</g>
<g id="XMLID_140_">
</g>
<g id="XMLID_142_">
</g>
<g id="XMLID_143_">
</g>
<g id="XMLID_144_">
</g>
<g id="XMLID_145_">
</g>
<g id="XMLID_146_">
</g>
<g id="XMLID_208_">
</g>
<g id="XMLID_209_">
</g>
<g id="XMLID_213_">
</g>
<g id="XMLID_215_">
</g>
<g id="XMLID_216_">
</g>
<g id="XMLID_217_">
</g>
<g id="XMLID_218_">
</g>
<g id="XMLID_219_">
</g>
<g id="XMLID_220_">
</g>
</svg>
