<?xml version="1.0" encoding="utf-8"?>
<!-- Generator: Adobe Illustrator 19.0.0, SVG Export Plug-In . SVG Version: 6.00 Build 0)  -->
<svg version="1.1" id="Capa_1" xmlns="http://www.w3.org/2000/svg" xmlns:xlink="http://www.w3.org/1999/xlink" x="0px" y="0px"
	 viewBox="0 0 380.2 125" style="enable-background:new 0 0 380.2 125;" xml:space="preserve">
<style type="text/css">
	.st0{fill:#0A326D;}
</style>
<g id="XMLID_1_">
	<g id="XMLID_2_">
		<path id="XMLID_3_" class="st0" d="M0,0h21.8v58.6c0,9.3,0.3,15.3,0.8,18.1c0.9,4.4,3.2,8,6.7,10.7c3.5,2.7,8.3,4,14.4,4
			c6.2,0,10.9-1.3,14-3.8c3.1-2.5,5-5.6,5.7-9.3c0.6-3.7,1-9.8,1-18.4V0h21.8v56.8c0,13-0.6,22.2-1.8,27.5
			c-1.2,5.4-3.4,9.9-6.5,13.6c-3.2,3.7-7.4,6.6-12.7,8.8S53,110,44.4,110c-10.3,0-18.2-1.2-23.5-3.6c-5.3-2.4-9.6-5.5-12.7-9.3
			c-3.1-3.8-5.1-7.8-6.1-12C0.7,79,0,69.8,0,57.7V0z"/>
		<path id="XMLID_5_" class="st0" d="M109.5,108.2V0h21.3L175,72.2V0h20.3v108.2h-21.9l-43.6-70.5v70.5H109.5z"/>
		<path id="XMLID_7_" class="st0" d="M217.8,108.2V0h21.8v108.2H217.8z"/>
		<path id="XMLID_9_" class="st0" d="M249.4,108.2l37-56.5L252.9,0h25.5l21.7,34.8L321.4,0h25.3L313,52.5l37,55.6h-26.3l-24-37.4
			l-24.1,37.4H249.4z"/>
	</g>
	<g id="XMLID_11_">
		<g id="XMLID_12_">
			<path id="XMLID_13_" class="st0" d="M370.7,118.5l-4.5-7.3h-5.4v7.3h-2.4V101h8.2c2,0,3.5,0.4,4.6,1.3c1.1,0.9,1.6,2.1,1.6,3.7
				c0,1.3-0.4,2.4-1.1,3.3c-0.8,0.9-1.8,1.4-3.1,1.7l5,7.5H370.7z M370.3,106c0-1-0.3-1.8-1-2.3c-0.7-0.5-1.7-0.8-3-0.8h-5.6v6.4
				h5.7c1.2,0,2.2-0.3,2.9-0.9C370,107.9,370.3,107.1,370.3,106z"/>
		</g>
		<g id="XMLID_16_">
			<path id="XMLID_17_" class="st0" d="M365.3,125c-8.2,0-14.9-6.7-14.9-14.9c0-8.2,6.7-14.9,14.9-14.9c8.2,0,14.9,6.7,14.9,14.9
				C380.2,118.4,373.5,125,365.3,125z M365.3,97.7c-6.9,0-12.5,5.6-12.5,12.5c0,6.9,5.6,12.5,12.5,12.5c6.9,0,12.5-5.6,12.5-12.5
				C377.8,103.3,372.2,97.7,365.3,97.7z"/>
		</g>
	</g>
</g>
</svg>
