<?xml version="1.0" encoding="utf-8"?>
<!-- Generator: Adobe Illustrator 19.0.0, SVG Export Plug-In . SVG Version: 6.00 Build 0)  -->
<svg version="1.1" id="Capa_1" xmlns="http://www.w3.org/2000/svg" xmlns:xlink="http://www.w3.org/1999/xlink" x="0px" y="0px"
	 viewBox="-13 236.3 331.5 90" style="enable-background:new -13 236.3 331.5 90;" xml:space="preserve">
<style type="text/css">
	.st0{fill:#5986EA;}
</style>
<g id="XMLID_120_">
	<path id="XMLID_294_" class="st0" d="M28.4,280.6c-1.6,0-1.5,0-1.5-1.5l0-34.6c0-1.3,0-1.3,1.4-1.5l47.8-6.7c0.1,0,0.3-0.1,0.4-0.1
		c0.6-0.1,0.7,0,0.7,0.6c0,0.3,0,0.5,0,0.8l0,41.3c0,1.6,0.2,1.6-1.6,1.6C67.7,280.6,36.3,280.6,28.4,280.6z"/>
	<path id="XMLID_293_" class="st0" d="M75.7,282.1c1.6,0,1.5-0.1,1.5,1.5l0,41.4c0,1.4,0,1.5-1.4,1.3l-43.8-6.1c0,0-2.3-0.3-3.5-0.5
		c-1.9-0.2-1.6-0.2-1.6-1.8c0-10.5,0-21,0-31.6c0-1.1,0-2.2,0-3.3c0-0.8,0.1-0.8,0.8-0.8c0.3,0,0.7,0,1,0L75.7,282.1z"/>
	<path id="XMLID_292_" class="st0" d="M-11.6,280.6c-1.4,0-1.4,0-1.4-1.4l0-29.1c0-0.1,0-0.1,0-0.2c0-1.1,0-1.1,1.1-1.2l36.5-5.1
		c0.8-0.1,0.9-0.1,0.9,0.7c0,0.2,0,0.4,0,0.6l0,34.1c0,1.6,0.1,1.5-1.5,1.5L-11.6,280.6z"/>
	<path id="XMLID_291_" class="st0" d="M23.7,282.1c0.2,0,0.4,0,0.6,0c1.1,0,1.1,0,1.1,1.1l0,34.9c0,0.1,0,0.3,0,0.4
		c0,0.6-0.1,0.7-0.7,0.6c-1.4-0.2-2.7-0.4-4.1-0.5c-6.1-0.9-27.9-3.9-32.7-4.6c-0.9-0.1-0.9-0.2-0.9-1.2l0-29.1c0-0.2,0-0.5,0-0.7
		c0-0.8,0.1-0.8,0.8-0.8c0.3,0,0.6,0,0.9,0C-5.5,282.1,17.9,282.1,23.7,282.1z"/>
	<path id="XMLID_290_" class="st0" d="M116.5,271.9c0.2-0.3,0.2-0.5,0.3-0.8c2.4-9.1,4.8-18.1,7.2-27.2c0-0.1,0-0.2,0.1-0.2
		c0.2-0.6,0.2-0.6,0.8-0.6c1,0,2,0,3,0c0.7,0,0.7,0,0.6,0.7c-0.7,2.3-1.3,4.7-2,7c-2.4,8.7-4.9,17.3-7.3,26
		c-0.3,1.1-0.1,0.9-1.2,0.9c-1,0-2.1,0-3.1,0c-0.7,0-0.7,0-0.9-0.7c-1.2-4.3-2.4-8.6-3.6-12.8c-1.2-4.4-2.5-8.7-3.7-13.1
		c-0.1-0.2-0.1-0.5-0.3-0.7c-0.2,0.2-0.2,0.5-0.3,0.7c-2.4,8.5-4.8,17.1-7.2,25.6c-0.3,1.1-0.1,0.9-1.2,0.9c-1,0-2.1,0-3.1,0
		c-0.7,0-0.7,0-0.9-0.7c-1.5-5.2-3-10.3-4.5-15.5c-1.7-5.8-3.4-11.7-5.1-17.5c-0.3-1-0.4-1,0.7-1c0.9,0,1.8,0,2.7,0
		c0.8,0,0.8,0,1,0.7c1.2,4.2,2.3,8.4,3.5,12.5c1.4,4.9,2.7,9.9,4.1,14.8c0.1,0.2,0.1,0.4,0.3,0.7c0.2-0.3,0.3-0.6,0.3-0.9
		c2.6-8.9,5.2-17.9,7.8-26.8c0-0.2,0.1-0.3,0.1-0.5c0.2-0.5,0.2-0.5,0.7-0.5c0.9,0,1.9,0,2.8,0c0.6,0,0.6,0,0.7,0.6
		c0.7,2.6,1.4,5.2,2.1,7.7c1.8,6.6,3.6,13.3,5.4,19.9C116.3,271.5,116.3,271.7,116.5,271.9z"/>
	<path id="XMLID_287_" class="st0" d="M316.1,289.3c-1-0.5-2.1-0.9-3.1-1.1c-1.4-0.3-2.7-0.3-4.1-0.1c-2.3,0.4-4.2,1.6-5.6,3.4
		c-1.3,1.7-2.1,3.6-2.6,5.6c-0.4,1.6-0.6,3.2-0.6,4.9c0,0.2-0.1,0.5,0,0.7c0.1,0.1,0.2-0.1,0.2-0.1c1.7-2.7,4.2-3.9,7.3-4.1
		c1.4-0.1,2.7,0.1,4,0.5c2.9,1,4.9,2.9,5.9,5.7c1.3,3.5,1.2,7.1-0.5,10.5c-2.1,4.2-5.6,6.2-10.3,6.1c-3.7-0.1-6.5-1.9-8.4-5
		c-1.2-1.9-1.8-4-2.2-6.1c-0.8-5-0.5-9.9,1-14.8c0.7-2.3,1.8-4.4,3.4-6.3c2.6-3,5.8-4.6,9.8-4.6c1.6,0,3.2,0.1,4.8,0.6
		c0.2,0.1,0.4,0.2,0.7,0.2c0.2,0.1,0.3,0.2,0.3,0.4c0,1.1,0,2.1,0,3.2C316.2,289.1,316.1,289.2,316.1,289.3z M314.2,310.5
		c0-2.4-0.4-3.9-1-5.2c-0.7-1.3-1.6-2.3-3-2.8c-4.2-1.7-8.9,0.5-9.8,5.1c-0.6,2.8,0.1,5.4,1.8,7.7c3,4,9.1,3.3,11.1-1.2
		C314,312.8,314.2,311.4,314.2,310.5z"/>
	<path id="XMLID_286_" class="st0" d="M245.7,272.8c0.2-0.2,0.2-0.5,0.3-0.7c1.7-6.1,3.3-12.2,5-18.3c0-0.1,0-0.2,0.1-0.2
		c0.2-0.6,0.2-0.6,0.7-0.6c0.9,0,1.8,0,2.6,0c0.7,0,0.7,0,0.5,0.7c-0.6,1.9-1.1,3.7-1.7,5.6c-1.8,5.9-3.5,11.8-5.3,17.7
		c0,0.1-0.1,0.2-0.1,0.4c-0.1,0.3-0.3,0.4-0.6,0.4c-1.1,0-2.1,0-3.2,0c-0.4,0-0.5-0.1-0.6-0.5c-0.3-1.2-0.7-2.4-1-3.6
		c-1.4-4.7-2.7-9.4-4.1-14.2c-0.1-0.2-0.1-0.5-0.3-0.7c-0.2,0.2-0.3,0.5-0.3,0.7c-1.6,5.1-3.2,10.2-4.8,15.4
		c-0.3,0.8-0.5,1.7-0.8,2.5c-0.1,0.3-0.3,0.5-0.6,0.5c-1,0-1.9,0-2.9,0c-0.6,0-0.6,0-0.8-0.6c-0.9-2.9-1.8-5.9-2.7-8.8
		c-1.5-4.8-2.9-9.7-4.4-14.5c-0.3-0.8-0.2-0.8,0.6-0.8c0.9,0,1.8,0,2.7,0c0.6,0,0.6,0,0.8,0.6c1,3.5,1.9,7.1,2.9,10.6
		c0.7,2.6,1.4,5.3,2.2,7.9c0.1,0.2,0.1,0.5,0.3,0.7c0.3-0.2,0.3-0.5,0.4-0.8c1.9-6.1,3.7-12.2,5.6-18.3c0.3-1,0.2-0.8,1.1-0.8
		c0.7,0,1.5,0,2.2,0c0.6,0,0.6,0,0.7,0.6c0.7,2.6,1.4,5.2,2.2,7.8c1,3.6,2,7.2,3,10.8C245.4,272.3,245.4,272.6,245.7,272.8z"/>
	<path id="XMLID_283_" class="st0" d="M185.6,256.1c0.1-0.3,0.1-0.5,0.1-0.8c0-4.5,0-8.9,0-13.4c0-0.9,0-0.9,0.9-0.9
		c0.8,0,1.7,0,2.5,0c0.5,0,0.6,0,0.6,0.6c0,0.2,0,0.3,0,0.5c0,11.5,0,23,0,34.4c0,1.3,0.1,1.1-1.1,1.1c-0.7,0-1.5,0-2.2,0
		c-0.7,0-0.7,0-0.7-0.7c0-0.9,0-1.8,0-2.7c0-0.2,0.1-0.4-0.1-0.6c-0.2,0-0.3,0.2-0.3,0.3c-2.2,3.3-5.3,4.4-9.1,4.2
		c-4.2-0.3-6.8-2.7-8.3-6.4c-0.8-2.1-1.1-4.3-1-6.5c0.1-2.3,0.4-4.6,1.5-6.8c1.2-2.5,2.9-4.4,5.5-5.5c2.3-0.9,4.6-1.1,7-0.5
		c1.8,0.4,3.2,1.4,4.2,2.9C185.3,255.8,185.4,256,185.6,256.1z M185.7,265.2c0-1.1,0-1.9,0-2.8c-0.1-1.7-0.7-3.2-1.8-4.5
		c-1.7-1.8-3.8-2.4-6.2-2.1c-2.2,0.3-3.9,1.4-5.1,3.3c-0.5,0.8-0.8,1.6-1.1,2.5c-0.5,1.7-0.6,3.5-0.5,5.3c0.1,1.6,0.5,3.2,1.3,4.6
		c2.5,4.4,8.3,4.1,10.9,1.4c1.2-1.3,2-2.8,2.3-4.5C185.8,267.3,185.7,266.1,185.7,265.2z"/>
	<path id="XMLID_280_" class="st0" d="M274.7,302.6c0,3.1-0.2,6.1-1.1,9.1c-0.5,1.8-1.2,3.5-2.3,5c-2.3,3.2-5.4,4.4-9.3,4.1
		c-3-0.3-5.2-1.7-6.9-4.2c-1.3-1.9-2-4-2.4-6.3c-0.5-2.5-0.6-5.1-0.6-7.7c0.1-2.7,0.3-5.4,1-8c0.4-1.7,1.1-3.4,2.1-4.9
		c2.3-3.6,5.6-4.9,9.7-4.6c0.8,0.1,1.7,0.2,2.4,0.5c1.9,0.7,3.4,1.9,4.5,3.6c1.2,1.8,1.8,3.7,2.2,5.8
		C274.5,297.4,274.7,300,274.7,302.6z M270.6,303.1c0-2.5-0.1-4.9-0.6-7.4c-0.3-1.6-0.8-3.2-1.7-4.6c-0.6-0.9-1.3-1.7-2.2-2.2
		c-2.3-1.2-5.3-0.6-7,1.4c-0.5,0.5-0.8,1.1-1.1,1.8c-0.6,1.2-1,2.5-1.2,3.8c-0.8,4.3-0.8,8.7-0.2,13.1c0.2,1.7,0.6,3.3,1.4,4.8
		c0.4,0.9,1,1.7,1.8,2.3c2,1.7,6.3,2,8.5-1.3c0.7-1.1,1.2-2.3,1.5-3.5C270.5,308.6,270.6,305.8,270.6,303.1z"/>
	<path id="XMLID_279_" class="st0" d="M92.2,316.5c0-0.6,0-1.3,0-1.9c0-0.1,0-0.3,0.1-0.3c0.1-0.1,0.2,0.1,0.3,0.1
		c1.8,1.3,3.8,2.1,6,2.6c1.7,0.3,3.4,0.3,5-0.2c2.6-0.7,3.7-2.5,3.6-5.2c-0.1-1.5-0.7-2.7-1.7-3.7c-0.8-0.8-1.7-1.4-2.6-2
		c-1-0.7-2-1.3-3.1-1.9c-1.5-0.9-3-1.8-4.3-2.9c-1.5-1.3-2.6-2.8-3-4.8c-0.8-4,0.5-7.6,4.3-9.8c1.8-1,3.8-1.5,5.8-1.5
		c1.9-0.1,3.7,0,5.5,0.5c0.5,0.1,1,0.3,1.5,0.5c0.3,0.1,0.4,0.3,0.4,0.6c0,1.2,0,2.4,0,3.6c0,0.4-0.1,0.5-0.4,0.2
		c-2.3-1.5-4.9-1.9-7.5-1.8c-1.3,0.1-2.6,0.5-3.6,1.3c-1.2,0.9-1.9,2.2-2,3.7c-0.1,2,0.6,3.6,2.2,4.8c1.2,0.9,2.4,1.7,3.7,2.4
		c1.4,0.8,2.8,1.6,4.2,2.5c0.9,0.6,1.7,1.3,2.5,2c3.8,3.6,3.4,10.9-1.9,13.8c-1.5,0.8-3.2,1.3-4.9,1.5c-3,0.4-5.8-0.1-8.6-1.2
		c-1.5-0.5-1.5-0.6-1.5-2.1C92.2,317.2,92.2,316.8,92.2,316.5C92.2,316.5,92.2,316.5,92.2,316.5z"/>
	<path id="XMLID_276_" class="st0" d="M134.5,314.9c0.1,0.2,0.1,0.4,0.1,0.7c0,0.7,0,1.4,0,2c0.1,0.7-0.2,1-0.8,1.3
		c-1.3,0.8-2.8,1.3-4.3,1.6c-2.1,0.4-4.3,0.5-6.4,0c-3.7-0.8-6.1-3-7.4-6.5c-0.9-2.4-1.1-4.9-1-7.5c0.2-2.3,0.8-4.4,2-6.3
		c1.7-2.8,4.2-4.7,7.5-5.2c1.9-0.3,3.7-0.2,5.6,0.4c2.2,0.7,3.8,2.1,4.9,4.1c1,1.7,1.4,3.5,1.6,5.4c0.1,1.1,0.1,2.1,0.1,3.2
		c0,0.7,0,0.7-0.7,0.7c-5.2,0-10.5,0-15.7,0c-0.2,0-0.4,0-0.6,0c-0.3,0-0.4,0.2-0.4,0.4c0.1,2,0.5,3.9,1.9,5.6
		c1.4,1.7,3.2,2.4,5.3,2.6c2.9,0.2,5.6-0.5,8-2.2C134.1,315.1,134.3,314.9,134.5,314.9z M125.6,305.5c2,0,4.1,0,6.1,0
		c0.6,0,0.6,0,0.6-0.6c-0.1-1.1-0.3-2.2-0.7-3.2c-0.6-1.3-1.4-2.3-2.8-2.9c-2.1-0.8-4.1-0.8-6,0.4c-2.2,1.3-3.3,3.4-3.7,5.9
		c-0.1,0.3,0.1,0.4,0.4,0.4c0.2,0,0.3,0,0.5,0C121.8,305.5,123.7,305.5,125.6,305.5z"/>
	<path id="XMLID_273_" class="st0" d="M199,314.9c0.1,0.2,0.1,0.4,0.1,0.6c0,0.8,0,1.6,0,2.4c0,0.4-0.1,0.7-0.5,0.9
		c-0.9,0.6-1.9,1-2.9,1.3c-2.5,0.7-5.1,1-7.7,0.5c-3.6-0.6-6-2.6-7.5-5.9c-0.7-1.6-1.1-3.2-1.2-4.9c-0.2-2.4-0.1-4.7,0.7-7
		c0.9-2.7,2.5-4.9,4.9-6.4c2-1.3,4.3-1.7,6.6-1.5c0.8,0.1,1.5,0.2,2.3,0.4c3,0.9,4.9,2.9,6,5.7c0.5,1.3,0.8,2.8,0.9,4.2
		c0.1,1,0,2.1,0,3.1c0,0.5,0,0.5-0.5,0.6c-0.2,0-0.4,0-0.6,0c-5.1,0-10.2,0-15.3,0c-1,0-1,0-0.9,1c0.1,1,0.3,2,0.7,3
		c1,2.5,2.8,4,5.5,4.4c3.2,0.5,6.1-0.2,8.7-1.9C198.5,315.2,198.7,315,199,314.9z M190,305.5c2,0,4.1,0,6.1,0c0.6,0,0.6,0,0.6-0.6
		c0-1.2-0.3-2.3-0.8-3.4c-0.6-1.2-1.5-2.2-2.8-2.7c-2.5-0.9-4.9-0.6-6.9,1.2c-1.5,1.3-2.3,3-2.7,4.9c-0.1,0.5-0.1,0.6,0.5,0.6
		c0.1,0,0.3,0,0.4,0C186.3,305.5,188.1,305.5,190,305.5z"/>
	<path id="XMLID_270_" class="st0" d="M219.1,265.2c0,2.6-0.4,5-1.7,7.3c-2,3.4-5,5.3-8.9,5.8c-1.8,0.2-3.6,0.1-5.3-0.3
		c-4.3-1.2-7-4-8.1-8.3c-0.8-3-0.7-6,0.2-9c1.4-4.6,4.5-7.3,9.3-8.1c1.9-0.3,3.7-0.3,5.6,0.1c4.1,0.9,6.7,3.4,8.1,7.4
		C218.9,261.7,219.1,263.4,219.1,265.2z M198.8,265.4c0,1.7,0.2,3.4,1,5c1.1,2.2,2.8,3.7,5.2,4.3c1.1,0.2,2.1,0.3,3.2,0.2
		c2.9-0.3,4.9-1.7,6-4.4c0.1-0.4,0.3-0.7,0.4-1.1c0.5-1.8,0.6-3.6,0.4-5.4c-0.1-1.4-0.4-2.8-1-4c-1-2.1-2.6-3.5-4.9-4
		c-0.9-0.2-1.8-0.2-2.7-0.2c-2.9,0.2-5.1,1.5-6.5,4.2C199.1,261.7,198.9,263.5,198.8,265.4z"/>
	<path id="XMLID_269_" class="st0" d="M228.7,292.4c-0.1-0.2-0.1-0.4-0.1-0.6c0-0.9,0-1.9,0-2.8c0-0.4,0.1-0.8,0.5-1.1
		c1.8-1.5,3.8-2.5,6.2-2.8c1.9-0.2,3.8-0.2,5.7,0.3c3.8,1.1,6.2,4.2,6.4,8.1c0.1,2.6-0.3,5-1.7,7.3c-0.8,1.3-1.8,2.4-2.9,3.4
		c-1,0.9-2.1,1.8-3.2,2.6c-1.5,1.1-3,2.1-4.4,3.3c-0.9,0.7-1.7,1.5-2.4,2.4c-0.8,1-1.2,2.2-1.3,3.5c-0.1,0.6,0,0.7,0.6,0.7
		c1.8,0,3.6,0,5.4,0c3.4,0,6.8,0,10.1,0c0.2,0,0.4,0,0.6,0c0.4,0,0.5,0.1,0.5,0.5c0,0.9,0,1.8,0,2.6c0,0.3-0.1,0.5-0.5,0.5
		c-0.2,0-0.3,0-0.5,0c-6.5,0-13,0-19.4,0c-1.1,0-1,0.1-1-1c0-1.2,0-2.3,0.2-3.5c0.4-2.3,1.5-4.2,3.1-5.9c1.4-1.5,3-2.7,4.6-3.9
		c1-0.8,2.1-1.5,3.1-2.3c1.2-0.9,2.3-2,3.1-3.2c1.6-2.2,2.1-4.6,1.7-7.2c-0.4-2.7-2.5-4.6-5.2-4.8c-1.8-0.2-3.6,0.2-5.2,1
		c-1.3,0.6-2.4,1.5-3.4,2.5C229.1,292.1,229,292.3,228.7,292.4z"/>
	<path id="XMLID_268_" class="st0" d="M145.9,256.8c0.2-0.1,0.3-0.3,0.4-0.5c2.1-3.1,5-4.3,8.7-4c0.5,0,1,0.1,1.5,0.2
		c2.3,0.6,3.9,2,4.9,4.1c0.6,1.4,0.9,2.9,1,4.4c0,0.7,0,1.4,0,2.1c0,4.5,0,9.1,0,13.6c0,1,0,0.9-0.9,0.9c-0.8,0-1.6,0-2.4,0
		c-0.6,0-0.6,0-0.6-0.6c0-0.2,0-0.4,0-0.6c0-4.4,0-8.8,0-13.1c0-1.2-0.1-2.3-0.4-3.4c-0.1-0.4-0.2-0.7-0.4-1.1c-0.9-2-2.4-3-4.5-3.1
		c-3.8-0.2-6.1,2.5-6.9,5c-0.3,0.9-0.4,1.8-0.4,2.8c0,4.4,0,8.8,0,13.2c0,1.1,0.1,1-1,1c-0.8,0-1.7,0-2.5,0c-0.5,0-0.5,0-0.5-0.5
		c0-0.1,0-0.3,0-0.4c0-7.6,0-15.2,0-22.8c0-1.1-0.1-1,1-1c0.8,0,1.6,0,2.4,0c0.6,0,0.6,0,0.6,0.7c0,1,0,1.9,0,2.9
		C145.8,256.6,145.8,256.7,145.9,256.8z"/>
	<path id="XMLID_267_" class="st0" d="M166.9,315.5c0.2-0.2,0.3-0.5,0.4-0.7c2.2-6.1,4.4-12.1,6.6-18.2c0.1-0.4,0.2-0.9,0.5-1.1
		c0.3-0.2,0.8-0.1,1.2-0.1c0.7,0,1.5,0,2.2,0c0.6,0,0.7,0,0.4,0.6c-0.7,1.8-1.4,3.6-2.1,5.4c-2.4,5.9-4.7,11.9-7.1,17.8
		c-0.1,0.2-0.2,0.4-0.2,0.5c-0.1,0.3-0.3,0.5-0.7,0.5c-1,0-1.9,0-2.9,0c-0.6,0-0.6,0-0.8-0.5c-0.9-2.5-1.9-5-2.8-7.4
		c-2-5.3-4-10.6-6-15.9c-0.3-0.9-0.3-0.9,0.6-0.9c0.9,0,1.8,0,2.7,0c0.7,0,0.7-0.1,1,0.7c1.8,5.2,3.6,10.4,5.5,15.6
		c0.4,1.1,0.8,2.2,1.1,3.3C166.7,315.2,166.7,315.4,166.9,315.5z"/>
	<path id="XMLID_266_" class="st0" d="M256.8,272.8c0.3,0.1,0.5,0.3,0.7,0.4c2.2,1.5,4.7,2,7.3,1.6c0.1,0,0.3-0.1,0.4-0.1
		c1.9-0.5,2.8-1.9,2.5-3.9c-0.1-0.8-0.5-1.4-1.2-1.9c-0.5-0.4-1-0.7-1.6-1c-0.9-0.5-1.8-0.9-2.6-1.3c-1.1-0.5-2.1-1-3.1-1.7
		c-1.7-1.2-2.5-2.9-2.6-4.9c-0.1-2.7,1-4.7,3.1-6.1c1.4-0.9,2.9-1.4,4.6-1.5c2-0.2,3.9,0.1,5.7,0.8c0.4,0.2,0.6,0.4,0.6,0.8
		c0,0.9,0,1.8,0,2.7c0,0.7,0,0.7-0.6,0.4c-1.7-1-3.6-1.5-5.6-1.4c-0.9,0.1-1.7,0.3-2.5,0.9c-1.9,1.3-1.5,4.4,0,5.4
		c0.9,0.6,1.8,1,2.7,1.5c1,0.4,2,0.8,2.9,1.4c0.8,0.4,1.5,0.9,2.2,1.5c1.3,1.1,1.9,2.5,2,4.2c0.2,3.8-2,5.8-4.1,6.8
		c-1.8,0.9-3.8,1.1-5.8,1c-1.6-0.1-3.2-0.4-4.6-1.1c-0.5-0.2-0.7-0.5-0.6-1c0-0.9,0-1.8,0-2.8C256.7,273.2,256.7,273,256.8,272.8z"
		/>
	<path id="XMLID_265_" class="st0" d="M289.4,302.5c0,5.6,0,11.2,0,16.7c0,1.2-0.1,1-1,1c-0.8,0-1.7,0-2.5,0c-0.4,0-0.5,0-0.5-0.5
		c0-0.3,0-0.5,0-0.8c0-9.2,0-18.3,0-27.5c0-0.3,0-0.5,0-0.8c0-0.2-0.1-0.2-0.3-0.1c-0.1,0.1-0.2,0.1-0.3,0.2c-2,1.5-4.2,2.6-6.6,3.4
		c-0.1,0-0.2,0-0.2,0.1c-0.5,0.1-0.6,0.1-0.6-0.4c0-0.9,0-1.8,0-2.7c0-0.7-0.1-0.7,0.7-0.9c3-1,5.8-2.5,8.4-4.3
		c0.3-0.2,0.6-0.4,0.8-0.6c0.5-0.6,1.1-0.5,1.8-0.5c0.2,0,0.4,0.1,0.4,0.3c0,0.2,0,0.5,0,0.7C289.4,291.4,289.4,297,289.4,302.5z"/>
	<path id="XMLID_264_" class="st0" d="M218,299.4c-0.7-0.3-1.3-0.6-2.1-0.6c-1.9-0.2-3.5,0.4-4.7,1.9c-1.1,1.3-1.6,2.9-1.9,4.6
		c-0.1,0.9-0.2,1.7-0.2,2.6c0,3.8,0,7.6,0,11.5c0,1.1,0,0.9-0.9,0.9c-0.8,0-1.7,0-2.5,0c-0.5,0-0.5,0-0.5-0.5c0-0.1,0-0.3,0-0.4
		c0-7.6,0-15.2,0-22.8c0-1,0-1,1-1c0.8,0,1.6,0,2.4,0c0.5,0,0.6,0,0.6,0.6c0,1.2,0,2.3,0,3.5c0,0.2,0,0.5,0.1,0.7
		c0.2-0.1,0.2-0.4,0.3-0.5c0.5-1.1,1.1-2.2,2-3c1.2-1.1,2.5-1.7,4.1-1.7c0.7,0,1.3,0,2,0.2c0.2,0.1,0.4,0.2,0.4,0.5
		c0,1.1,0,2.3,0,3.4C218.1,299.2,218,299.2,218,299.4z"/>
	<path id="XMLID_263_" class="st0" d="M144.7,300.4c0.3-0.3,0.3-0.5,0.4-0.8c0.6-1.3,1.3-2.4,2.5-3.3c1-0.8,2.2-1.2,3.5-1.3
		c0.7,0,1.4,0,2,0.2c0.5,0.1,0.5,0.2,0.5,0.6c0,1,0,2.1,0,3.1c0,0.4-0.1,0.5-0.4,0.3c-0.4-0.2-0.9-0.4-1.3-0.4
		c-2.6-0.4-4.5,0.5-5.8,2.9c-0.9,1.6-1.3,3.3-1.3,5c-0.1,2,0,4,0,6c0,2.2,0,4.4,0,6.6c0,0.2,0,0.3,0,0.5c0,0.3-0.1,0.5-0.5,0.5
		c-0.6,0-1.1,0-1.7,0c-0.4,0-0.8,0-1.2,0c-0.6,0-0.6,0-0.6-0.7c0-0.1,0-0.2,0-0.3c0-7.6,0-15.2,0-22.8c0-1.1-0.1-1,1-1
		c0.8,0,1.6,0,2.4,0c0.6,0,0.6,0,0.6,0.6c0,1.2,0,2.3,0,3.5C144.7,299.8,144.7,300,144.7,300.4z"/>
	<path id="XMLID_262_" class="st0" d="M135.9,265.3c0,3.8,0,7.7,0,11.5c0,0.9,0,0.9-0.8,0.9c-0.9,0-1.8,0-2.6,0
		c-0.5,0-0.5,0-0.5-0.5c0-0.1,0-0.3,0-0.4c0-7.6,0-15.2,0-22.8c0-1.1-0.1-1,1-1c0.8,0,1.7,0,2.5,0c0.5,0,0.5,0,0.5,0.5
		c0,0.2,0,0.4,0,0.6C135.9,257.8,135.9,261.6,135.9,265.3z"/>
	<path id="XMLID_261_" class="st0" d="M133.8,247.4c-1.5,0-2.5-1.1-2.5-2.6c0-1.5,1.1-2.6,2.6-2.6c1.5,0,2.6,1.2,2.5,2.6
		C136.4,246.4,135.3,247.5,133.8,247.4z"/>
</g>
<g id="XMLID_1_">
</g>
<g id="XMLID_2_">
</g>
<g id="XMLID_3_">
</g>
<g id="XMLID_4_">
</g>
<g id="XMLID_5_">
</g>
<g id="XMLID_6_">
</g>
<g id="XMLID_7_">
</g>
<g id="XMLID_8_">
</g>
<g id="XMLID_9_">
</g>
<g id="XMLID_10_">
</g>
<g id="XMLID_11_">
</g>
<g id="XMLID_12_">
</g>
<g id="XMLID_13_">
</g>
<g id="XMLID_14_">
</g>
<g id="XMLID_15_">
</g>
</svg>
