<?xml version="1.0" encoding="utf-8"?>
<!-- Generator: Adobe Illustrator 21.0.2, SVG Export Plug-In . SVG Version: 6.00 Build 0)  -->
<svg version="1.1" id="Capa_1" xmlns="http://www.w3.org/2000/svg" xmlns:xlink="http://www.w3.org/1999/xlink" x="0px" y="0px"
	 viewBox="0 0 195.3561 19.7176" style="enable-background:new 0 0 195.3561 19.7176;" xml:space="preserve">
<style type="text/css">
	.st0{fill-rule:evenodd;clip-rule:evenodd;fill:#DDDDDD;}
	.st1{fill:#3B86B1;}
	.st2{opacity:0.25;fill-rule:evenodd;clip-rule:evenodd;fill:#020202;}
	.st3{fill:#FFFFFF;}
	.st4{opacity:0.5;}
	.st5{fill-rule:evenodd;clip-rule:evenodd;fill:#A8A8A8;}
	.st6{fill-rule:evenodd;clip-rule:evenodd;fill:#FFFFFF;}
	.st7{fill-rule:evenodd;clip-rule:evenodd;fill:#3B86B1;}
	.st8{opacity:0.5;fill:#2C6882;}
	.st9{opacity:0.75;fill-rule:evenodd;clip-rule:evenodd;fill:#282828;}
	.st10{opacity:0.5;fill:#FFFFFF;}
	.st11{fill-rule:evenodd;clip-rule:evenodd;fill:none;stroke:#FFFFFF;stroke-miterlimit:10;}
	.st12{fill:none;stroke:#FFFFFF;stroke-miterlimit:10;}
	.st13{fill:#FFFFFF;stroke:#3B86B1;stroke-width:1.7139;stroke-miterlimit:10;}
	.st14{fill-rule:evenodd;clip-rule:evenodd;}
	.st15{opacity:0.85;fill:#FFFFFF;}
	.st16{opacity:0.5;fill-rule:evenodd;clip-rule:evenodd;}
	.st17{fill-rule:evenodd;clip-rule:evenodd;fill:#FEFEFE;}
	.st18{fill:#312767;}
	.st19{opacity:0.48;}
	.st20{opacity:0.25;}
	.st21{fill-rule:evenodd;clip-rule:evenodd;fill:#020202;}
	.st22{fill:#757575;}
	.st23{opacity:0.25;clip-path:url(#XMLID_2396_);}
	.st24{fill:#4D4789;}
	.st25{fill:#FFFFFF;stroke:#312767;stroke-miterlimit:10;}
	.st26{fill:#3B86B1;stroke:#3B86B1;stroke-miterlimit:10;}
	.st27{fill:#FFFFFF;stroke:#FFFFFF;stroke-miterlimit:10;}
	.st28{fill:#ACABC9;}
	.st29{fill-rule:evenodd;clip-rule:evenodd;fill:#312767;}
	.st30{opacity:0.77;fill:#312767;}
	.st31{opacity:0.25;clip-path:url(#XMLID_2397_);}
	.st32{fill:#9490B2;stroke:#2D2D2D;stroke-width:0.25;stroke-miterlimit:10;}
	.st33{fill:#312767;stroke:#2D2D2D;stroke-width:0.25;stroke-miterlimit:10;}
	.st34{fill:#FCFCFC;}
	.st35{fill:#FFFFFF;stroke:#2D2D2D;stroke-width:0.25;stroke-miterlimit:10;}
	.st36{fill-rule:evenodd;clip-rule:evenodd;fill:#484849;stroke:#2D2D2D;stroke-width:0.25;stroke-miterlimit:10;}
	.st37{fill-rule:evenodd;clip-rule:evenodd;fill:#312767;stroke:#2D2D2D;stroke-width:0.25;stroke-miterlimit:10;}
	.st38{fill-rule:evenodd;clip-rule:evenodd;fill:#FFFFFF;stroke:#2D2D2D;stroke-width:0.25;stroke-miterlimit:10;}
	.st39{fill:#484849;stroke:#2D2D2D;stroke-width:0.25;stroke-miterlimit:10;}
	.st40{fill:#54518C;}
	.st41{opacity:0.25;fill-rule:evenodd;clip-rule:evenodd;fill:#FFFFFF;}
	.st42{fill:#D4A800;}
	.st43{fill:#00AEB3;}
	.st44{fill:#38353B;}
	.st45{fill:#FF8400;}
	.st46{fill:#BF3900;}
	.st47{fill:#00AA9C;}
	.st48{opacity:0.25;clip-path:url(#XMLID_2400_);}
	.st49{fill:none;stroke:#ACABC9;stroke-width:5;stroke-miterlimit:10;}
	.st50{opacity:0.25;clip-path:url(#XMLID_2403_);}
	.st51{fill:#DDDDDD;}
	.st52{opacity:0.25;fill-rule:evenodd;clip-rule:evenodd;fill:#FFFFFF;stroke:#303030;stroke-width:0.5;stroke-miterlimit:10;}
	.st53{fill:#3B86B1;stroke:#303030;stroke-width:0.5;stroke-miterlimit:10;}
	.st54{fill:#D4A800;stroke:#303030;stroke-width:0.5;stroke-miterlimit:10;}
	.st55{fill:#00AEB3;stroke:#303030;stroke-width:0.5;stroke-miterlimit:10;}
	.st56{fill:#FF8400;stroke:#303030;stroke-width:0.5;stroke-miterlimit:10;}
	.st57{fill:#BF3900;stroke:#303030;stroke-width:0.5;stroke-miterlimit:10;}
	.st58{fill:#00AA9C;stroke:#303030;stroke-width:0.5;stroke-miterlimit:10;}
	.st59{opacity:0.25;clip-path:url(#XMLID_2404_);}
	.st60{fill-rule:evenodd;clip-rule:evenodd;fill:#FFFFFF;stroke:#FFFFFF;stroke-miterlimit:10;}
	.st61{fill:#F79748;}
	.st62{fill:#FF7900;}
	.st63{fill:#DD7105;}
	.st64{fill:#02897C;}
	.st65{fill:#0EAD9A;}
	.st66{fill:#28C6AF;}
	.st67{fill:#4FE0C7;}
	.st68{fill:#00AA9C;stroke:#353535;stroke-width:0.5;stroke-miterlimit:10;}
	.st69{fill:#02897C;stroke:#353535;stroke-width:0.5;stroke-miterlimit:10;}
	.st70{fill:#0EAD9A;stroke:#353535;stroke-width:0.5;stroke-miterlimit:10;}
	.st71{fill:#28C6AF;stroke:#353535;stroke-width:0.5;stroke-miterlimit:10;}
	.st72{fill:#4FE0C7;stroke:#353535;stroke-width:0.5;stroke-miterlimit:10;}
	.st73{fill:#D37D00;}
	.st74{fill:#D14600;}
	.st75{fill:#E5B92E;}
	.st76{fill:#DD571B;}
	.st77{fill:#E28A17;}
	.st78{opacity:0.25;clip-path:url(#XMLID_2410_);}
	.st79{opacity:0.77;fill:#FFFFFF;}
	.st80{fill:#50565B;stroke:#656C70;stroke-miterlimit:10;}
	.st81{fill:#808589;stroke:#656C70;stroke-miterlimit:10;}
	.st82{fill:#252728;stroke:#000000;stroke-miterlimit:10;}
	.st83{fill:#1A1B1C;stroke:#000000;stroke-miterlimit:10;}
	.st84{fill:#A0A6AA;}
	.st85{fill:#262C35;stroke:#161A1E;stroke-miterlimit:10;}
	.st86{fill:#181D23;}
	.st87{fill:#EABA96;stroke:#E0AA86;stroke-miterlimit:10;}
	.st88{fill:#E0AA86;}
	.st89{stroke:#000000;stroke-width:0.75;stroke-linecap:square;stroke-linejoin:bevel;stroke-miterlimit:10;}
	.st90{fill:#0F1C3F;stroke:#182951;stroke-miterlimit:10;}
	.st91{fill:#132354;stroke:#3F6093;stroke-miterlimit:10;}
	.st92{fill:#0F1C3F;}
	.st93{fill:none;stroke:#3F6093;stroke-width:0.75;stroke-miterlimit:10;}
	.st94{fill:#DBA682;}
	.st95{fill:none;stroke:#E0AA86;stroke-miterlimit:10;}
	.st96{fill:none;stroke:#E0AA86;stroke-linejoin:bevel;stroke-miterlimit:10;}
	.st97{fill:#8A0A8E;stroke:#AC34B2;stroke-miterlimit:10;}
	.st98{fill:#810C87;}
	.st99{fill:#680B6D;}
	.st100{fill:#AC34B2;stroke:#AC34B2;stroke-width:0.5;stroke-miterlimit:10;}
	.st101{fill:none;stroke:#959DA0;stroke-width:0.5;stroke-miterlimit:10;}
	.st102{fill:#959DA0;stroke:#959DA0;stroke-width:0.5;stroke-miterlimit:10;}
	.st103{fill:none;stroke:#AC34B2;stroke-miterlimit:10;}
	.st104{fill:#282828;stroke:#000000;stroke-miterlimit:10;}
	.st105{fill:#EABA96;stroke:#E0AA86;stroke-width:0.5;stroke-miterlimit:10;}
	.st106{fill:#B7896A;}
	.st107{stroke:#000000;stroke-miterlimit:10;}
	.st108{fill:#C1A578;}
	.st109{stroke:#000000;stroke-width:0.25;stroke-linecap:round;stroke-linejoin:round;stroke-miterlimit:10;}
	.st110{fill:#FFFFFF;stroke:#000000;stroke-width:0.25;stroke-linecap:round;stroke-linejoin:round;stroke-miterlimit:10;}
	.st111{fill:#70582D;}
	.st112{stroke:#000000;stroke-linecap:round;stroke-linejoin:round;stroke-miterlimit:10;}
	.st113{fill:none;stroke:#D8A27D;stroke-width:0.75;stroke-miterlimit:10;}
	.st114{fill:#561409;}
	.st115{fill:#BA2A13;}
	.st116{fill:#9E3025;stroke:#4C2311;stroke-width:0.25;stroke-miterlimit:10;}
	.st117{fill:#871D08;stroke:#4C2311;stroke-width:0.25;stroke-miterlimit:10;}
	.st118{fill:#DDAC8A;}
	.st119{fill:#A5ABAD;stroke:#959DA0;stroke-width:0.5;stroke-miterlimit:10;}
	.st120{fill:#B1BABC;}
	.st121{fill:none;stroke:#153847;stroke-width:5;stroke-miterlimit:10;}
	.st122{fill:#3CA7AF;}
	.st123{fill:#3DAD8D;}
	.st124{fill:#3DAA61;}
	.st125{fill:#67A53F;}
	.st126{fill:#95A340;}
	.st127{opacity:0.25;clip-path:url(#XMLID_2411_);}
	.st128{opacity:0.25;clip-path:url(#XMLID_2416_);}
	.st129{fill:#F79748;stroke:#303030;stroke-width:0.5;stroke-miterlimit:10;}
	.st130{fill:#FF7900;stroke:#303030;stroke-width:0.5;stroke-miterlimit:10;}
	.st131{fill:#DD7105;stroke:#303030;stroke-width:0.5;stroke-miterlimit:10;}
	.st132{opacity:0.25;clip-path:url(#XMLID_2422_);}
	.st133{clip-path:url(#SVGID_2_);}
	.st134{fill:none;stroke:#3F6093;stroke-miterlimit:10;}
	.st135{fill:none;stroke:#3F6093;stroke-width:0.75;stroke-linecap:round;stroke-linejoin:round;}
	.st136{fill:none;stroke:#3F6093;stroke-width:0.75;stroke-linecap:round;stroke-linejoin:round;stroke-dasharray:0.9892,0.9892;}
	
		.st137{fill:none;stroke:#3F6093;stroke-width:0.75;stroke-linecap:round;stroke-linejoin:round;stroke-miterlimit:10;stroke-dasharray:1;}
	.st138{fill:#EAEAEA;stroke:#FFFFFF;stroke-width:0.25;stroke-miterlimit:10;}
	.st139{fill:#D8D8D8;}
	.st140{fill:#282828;stroke:#000000;stroke-width:0.75;stroke-miterlimit:10;}
	.st141{opacity:0.33;fill:#FFFFFF;}
	.st142{fill:none;stroke:#000000;stroke-width:1.5;stroke-linecap:round;stroke-linejoin:round;stroke-miterlimit:10;}
	.st143{clip-path:url(#SVGID_4_);}
	.st144{opacity:0.64;}
	.st145{fill:#1D1D1B;}
	.st146{fill:#C9C9C9;}
	.st147{fill:#545477;}
</style>
<g>
	<polygon class="st147" points="187.3561,19.7176 0,19.7176 0,0 187.3561,0 195.3561,9.8588 	"/>
	<polygon id="XMLID_2420_" class="st60" points="17.0088,2.7126 18.3877,7.3849 23.5186,7.4626 19.5362,10.2975 20.9912,15.1208 
		17.0879,12.2131 12.9512,15.1208 14.4815,10.528 10.4248,7.4626 15.3243,7.5392 	"/>
	<g>
		<path class="st3" d="M30.498,15.9939l4.123-10.7373h1.5313l4.3945,10.7373h-1.6191l-1.252-3.252h-4.4902l-1.1797,3.252H30.498z
			 M33.5957,11.5848h3.6406l-1.1211-2.9736c-0.3418-0.9033-0.5957-1.6455-0.7617-2.2266c-0.1367,0.6885-0.3301,1.3721-0.5781,2.0508
			L33.5957,11.5848z"/>
		<path class="st3" d="M41.4844,15.9939V5.2566h1.3184v10.7373H41.4844z"/>
		<path class="st3" d="M44.6035,16.6385l1.2822,0.1904c0.0537,0.3955,0.2021,0.6836,0.4463,0.8643
			c0.3281,0.2441,0.7744,0.3662,1.3408,0.3662c0.6104,0,1.0811-0.1221,1.4131-0.3662s0.5566-0.5859,0.6738-1.0254
			c0.0684-0.2686,0.1006-0.832,0.0957-1.6914c-0.5762,0.6787-1.2939,1.0176-2.1533,1.0176c-1.0693,0-1.8975-0.3857-2.4834-1.1572
			s-0.8789-1.6963-0.8789-2.7764c0-0.7412,0.1348-1.4268,0.4033-2.0537c0.2686-0.6279,0.6572-1.1123,1.1689-1.4541
			c0.5098-0.3418,1.1094-0.5127,1.7969-0.5127c0.918,0,1.6758,0.3711,2.2715,1.1133V8.2156h1.2148v6.7236
			c0,1.2109-0.123,2.0693-0.3691,2.5742c-0.2471,0.5059-0.6367,0.9043-1.1719,1.1973s-1.1934,0.4395-1.9746,0.4395
			c-0.9277,0-1.6768-0.208-2.248-0.626C44.8603,18.1072,44.584,17.4783,44.6035,16.6385z M45.6953,11.9656
			c0,1.0205,0.2031,1.7646,0.6074,2.2334c0.4063,0.4688,0.9141,0.7031,1.5234,0.7031c0.6055,0,1.1133-0.2324,1.5234-0.6992
			c0.4102-0.4658,0.6152-1.1973,0.6152-2.1934c0-0.9521-0.2109-1.6699-0.6328-2.1533c-0.4229-0.4834-0.9316-0.7256-1.5273-0.7256
			c-0.5859,0-1.084,0.2383-1.4941,0.7148C45.9004,10.3211,45.6953,11.0281,45.6953,11.9656z"/>
		<path class="st3" d="M58.2851,15.9939v-1.1426c-0.6055,0.8789-1.4277,1.3184-2.4678,1.3184c-0.459,0-0.8877-0.0879-1.2852-0.2637
			c-0.3984-0.1758-0.6943-0.3965-0.8867-0.6631c-0.1924-0.2656-0.3281-0.5918-0.4063-0.9775
			c-0.0537-0.2588-0.0811-0.6689-0.0811-1.2305V8.2156h1.3184v4.3135c0,0.6895,0.0273,1.1533,0.0811,1.3926
			c0.083,0.3467,0.2588,0.6182,0.5273,0.8164c0.2686,0.1973,0.6006,0.2969,0.9961,0.2969s0.7666-0.1016,1.1133-0.3047
			c0.3467-0.2021,0.5918-0.4785,0.7363-0.8271c0.1436-0.3496,0.2158-0.8555,0.2158-1.5205v-4.167h1.3184v7.7783H58.2851z"/>
		<path class="st3" d="M61.5303,15.9939V8.2156h1.1865v1.1064c0.5713-0.8545,1.3965-1.2822,2.4756-1.2822
			c0.4688,0,0.8994,0.084,1.292,0.2529c0.3936,0.168,0.6875,0.3896,0.8828,0.6621c0.1953,0.2744,0.332,0.5986,0.4102,0.9746
			c0.0488,0.2441,0.0742,0.6719,0.0742,1.2813v4.7832h-1.3184v-4.7314c0-0.5371-0.0518-0.9385-0.1543-1.2051
			c-0.1025-0.2656-0.2852-0.4785-0.5449-0.6367c-0.2617-0.1592-0.5684-0.2383-0.9199-0.2383c-0.5615,0-1.0469,0.1787-1.4531,0.5342
			c-0.4082,0.3574-0.6123,1.0332-0.6123,2.0293v4.248H61.5303z"/>
		<path class="st3" d="M69.3818,12.1053c0-1.4404,0.4004-2.5078,1.2012-3.2012c0.6689-0.5762,1.4844-0.8643,2.4463-0.8643
			c1.0693,0,1.9434,0.3506,2.6221,1.0508c0.6787,0.7012,1.0186,1.6689,1.0186,2.9043c0,1.001-0.1504,1.7881-0.4512,2.3623
			c-0.2998,0.5732-0.7373,1.0195-1.3105,1.3359c-0.5742,0.3174-1.2002,0.4766-1.8789,0.4766c-1.0889,0-1.9688-0.3486-2.6406-1.0469
			S69.3818,13.4188,69.3818,12.1053z M70.7363,12.1053c0,0.9961,0.2178,1.7412,0.6523,2.2373
			c0.4346,0.4951,0.9814,0.7432,1.6406,0.7432c0.6543,0,1.1992-0.249,1.6328-0.7471c0.4355-0.498,0.6523-1.2568,0.6523-2.2783
			c0-0.9609-0.2188-1.6904-0.6553-2.1855c-0.4375-0.4961-0.9805-0.7441-1.6299-0.7441c-0.6592,0-1.2061,0.2471-1.6406,0.7402
			S70.7363,11.1092,70.7363,12.1053z"/>
		<path class="st3" d="M77.6875,13.6717l1.3037-0.2051c0.0732,0.5234,0.2764,0.9238,0.6123,1.2012
			c0.334,0.2793,0.8008,0.418,1.4023,0.418c0.6055,0,1.0547-0.123,1.3477-0.3701c0.293-0.2461,0.4395-0.5352,0.4395-0.8682
			c0-0.2969-0.1299-0.5313-0.3887-0.7031c-0.1807-0.1172-0.6299-0.2656-1.3477-0.4463c-0.9668-0.2441-1.6367-0.4551-2.0098-0.6338
			c-0.375-0.1777-0.6582-0.4248-0.8496-0.7393c-0.1934-0.3154-0.29-0.6631-0.29-1.0439c0-0.3467,0.0791-0.668,0.2373-0.9629
			c0.1592-0.2959,0.375-0.541,0.6484-0.7363c0.2051-0.1514,0.4844-0.2793,0.8398-0.3848c0.3535-0.1045,0.7324-0.1572,1.1387-0.1572
			c0.6094,0,1.1465,0.0879,1.6074,0.2637s0.8018,0.4141,1.0215,0.7139c0.2197,0.3008,0.3711,0.7021,0.4541,1.2051l-1.2891,0.1758
			c-0.0586-0.4004-0.2285-0.7129-0.5088-0.9375c-0.2813-0.2246-0.6777-0.3369-1.1904-0.3369c-0.6055,0-1.0381,0.1006-1.2959,0.2998
			c-0.2598,0.2012-0.3887,0.4355-0.3887,0.7031c0,0.1719,0.0537,0.3252,0.1611,0.4619c0.1074,0.1416,0.2764,0.2588,0.5049,0.3516
			c0.1328,0.0488,0.5205,0.1611,1.165,0.3369c0.9326,0.249,1.583,0.4531,1.9521,0.6113c0.3682,0.1592,0.6582,0.3896,0.8672,0.6924
			c0.2109,0.3027,0.3154,0.6787,0.3154,1.1279c0,0.4395-0.1279,0.8535-0.3838,1.2412c-0.2578,0.3887-0.627,0.6885-1.1104,0.9014
			c-0.4834,0.2119-1.0303,0.3184-1.6406,0.3184c-1.0107,0-1.7813-0.21-2.3115-0.6299
			C78.1719,15.1199,77.834,14.4979,77.6875,13.6717z"/>
		<path class="st3" d="M94.958,13.1443l1.2959,0.1689c-0.1406,0.8936-0.5039,1.5928-1.0869,2.0986
			c-0.584,0.5049-1.2998,0.7578-2.1494,0.7578c-1.0645,0-1.9209-0.3477-2.5674-1.0439c-0.6475-0.6953-0.9707-1.6924-0.9707-2.9912
			c0-0.8398,0.1396-1.5752,0.417-2.2051c0.2793-0.6299,0.7021-1.1025,1.2715-1.417c0.5684-0.3154,1.1875-0.4727,1.8564-0.4727
			c0.8447,0,1.5361,0.2139,2.0732,0.6406c0.5371,0.4277,0.8809,1.0342,1.0322,1.8203l-1.2822,0.1982
			c-0.1211-0.5225-0.3379-0.916-0.6475-1.1797c-0.3105-0.2637-0.6846-0.3955-1.124-0.3955c-0.6641,0-1.2041,0.2383-1.6191,0.7139
			c-0.415,0.4766-0.623,1.2295-0.623,2.2598c0,1.0449,0.2012,1.8047,0.6016,2.2773c0.4004,0.4746,0.9219,0.7109,1.5664,0.7109
			c0.5176,0,0.9502-0.1582,1.2969-0.4766C94.6455,14.2928,94.8652,13.8045,94.958,13.1443z"/>
		<path class="st3" d="M96.8916,12.1053c0-1.4404,0.4004-2.5078,1.2012-3.2012c0.6689-0.5762,1.4844-0.8643,2.4463-0.8643
			c1.0693,0,1.9434,0.3506,2.6221,1.0508c0.6787,0.7012,1.0186,1.6689,1.0186,2.9043c0,1.001-0.1504,1.7881-0.4512,2.3623
			c-0.2998,0.5732-0.7373,1.0195-1.3105,1.3359c-0.5742,0.3174-1.2002,0.4766-1.8789,0.4766c-1.0889,0-1.9688-0.3486-2.6406-1.0469
			S96.8916,13.4188,96.8916,12.1053z M98.2461,12.1053c0,0.9961,0.2178,1.7412,0.6523,2.2373
			c0.4346,0.4951,0.9814,0.7432,1.6406,0.7432c0.6543,0,1.1992-0.249,1.6328-0.7471c0.4355-0.498,0.6523-1.2568,0.6523-2.2783
			c0-0.9609-0.2188-1.6904-0.6553-2.1855c-0.4375-0.4961-0.9805-0.7441-1.6299-0.7441c-0.6592,0-1.2061,0.2471-1.6406,0.7402
			S98.2461,11.1092,98.2461,12.1053z"/>
		<path class="st3" d="M105.7246,15.9939V8.2156h1.1797v1.0908c0.2441-0.3809,0.5684-0.6865,0.9736-0.9189
			c0.4053-0.2314,0.8662-0.3477,1.3838-0.3477c0.5762,0,1.0488,0.1201,1.418,0.3584c0.3682,0.2402,0.6289,0.5742,0.7793,1.0039
			c0.6152-0.9082,1.416-1.3623,2.4023-1.3623c0.7715,0,1.3652,0.2139,1.7803,0.6406c0.415,0.4277,0.6221,1.0859,0.6221,1.9736
			v5.3398h-1.3105v-4.9004c0-0.5273-0.043-0.9063-0.1289-1.1387c-0.085-0.2314-0.2402-0.418-0.4648-0.5605
			c-0.2246-0.1406-0.4883-0.2119-0.791-0.2119c-0.5469,0-1,0.1816-1.3613,0.5459c-0.3613,0.3633-0.543,0.9463-0.543,1.7461v4.5195
			h-1.3184v-5.0537c0-0.5859-0.1074-1.0254-0.3223-1.3184s-0.5664-0.4395-1.0547-0.4395c-0.3711,0-0.7129,0.0977-1.0293,0.293
			c-0.3145,0.1953-0.543,0.4814-0.6836,0.8564c-0.1426,0.377-0.2129,0.9189-0.2129,1.627v4.0352H105.7246z"/>
		<path class="st3" d="M118.2197,18.9744V8.2156h1.2012v1.0107c0.2832-0.3955,0.6025-0.6924,0.96-0.8896
			c0.3555-0.1982,0.7881-0.2969,1.2959-0.2969c0.6641,0,1.25,0.1709,1.7578,0.5127s0.8916,0.8242,1.1494,1.4463
			c0.2598,0.623,0.3887,1.3057,0.3887,2.0479c0,0.7959-0.1426,1.5117-0.4277,2.1494c-0.2871,0.6367-0.7012,1.125-1.2461,1.4648
			c-0.5449,0.3389-1.1172,0.5088-1.7168,0.5088c-0.4395,0-0.834-0.0928-1.1836-0.2783s-0.6357-0.4199-0.8604-0.7031v3.7861H118.2197
			z M119.414,12.1482c0,1.002,0.2021,1.7412,0.6074,2.2197s0.8965,0.7178,1.4727,0.7178c0.5859,0,1.0879-0.248,1.5039-0.7432
			c0.418-0.4961,0.627-1.2637,0.627-2.3037c0-0.9912-0.2041-1.7334-0.6113-2.2266c-0.4082-0.4932-0.8945-0.7402-1.4609-0.7402
			c-0.5625,0-1.0586,0.2627-1.4902,0.7881C119.6289,10.3846,119.414,11.1482,119.414,12.1482z"/>
		<path class="st3" d="M126.0713,12.1053c0-1.4404,0.4004-2.5078,1.2012-3.2012c0.6689-0.5762,1.4844-0.8643,2.4463-0.8643
			c1.0693,0,1.9434,0.3506,2.6221,1.0508c0.6787,0.7012,1.0186,1.6689,1.0186,2.9043c0,1.001-0.1504,1.7881-0.4512,2.3623
			c-0.2998,0.5732-0.7373,1.0195-1.3105,1.3359c-0.5742,0.3174-1.2002,0.4766-1.8789,0.4766c-1.0889,0-1.9688-0.3486-2.6406-1.0469
			S126.0713,13.4188,126.0713,12.1053z M127.4258,12.1053c0,0.9961,0.2178,1.7412,0.6524,2.2373
			c0.4346,0.4951,0.9814,0.7432,1.6406,0.7432c0.6543,0,1.1992-0.249,1.6328-0.7471c0.4355-0.498,0.6523-1.2568,0.6523-2.2783
			c0-0.9609-0.2188-1.6904-0.6553-2.1855c-0.4375-0.4961-0.9805-0.7441-1.6299-0.7441c-0.6592,0-1.2061,0.2471-1.6406,0.7402
			C127.6435,10.3641,127.4258,11.1092,127.4258,12.1053z"/>
		<path class="st3" d="M134.9043,15.9939V8.2156h1.1865v1.1064c0.5713-0.8545,1.3965-1.2822,2.4756-1.2822
			c0.4688,0,0.8994,0.084,1.293,0.2529c0.3926,0.168,0.6875,0.3896,0.8828,0.6621c0.1953,0.2744,0.332,0.5986,0.4102,0.9746
			c0.0488,0.2441,0.0723,0.6719,0.0723,1.2813v4.7832h-1.3184v-4.7314c0-0.5371-0.0508-0.9385-0.1533-1.2051
			c-0.1025-0.2656-0.2842-0.4785-0.5459-0.6367c-0.2617-0.1592-0.5674-0.2383-0.9189-0.2383c-0.5615,0-1.0459,0.1787-1.4541,0.5342
			c-0.4082,0.3574-0.6113,1.0332-0.6113,2.0293v4.248H134.9043z"/>
		<path class="st3" d="M148.5713,13.4891l1.3623,0.1689c-0.2148,0.7959-0.6133,1.4131-1.1934,1.8525
			c-0.582,0.4395-1.3242,0.6592-2.2266,0.6592c-1.1387,0-2.04-0.3506-2.707-1.0508c-0.666-0.7012-1-1.6836-1-2.9482
			c0-1.3086,0.3379-2.3242,1.0117-3.0469s1.5469-1.084,2.6211-1.084c1.041,0,1.8906,0.3545,2.5488,1.0615
			c0.6602,0.709,0.9893,1.7051,0.9893,2.9883c0,0.0791-0.0029,0.1963-0.0068,0.3516h-5.8008
			c0.0488,0.8555,0.29,1.5098,0.7246,1.9629c0.4346,0.4551,0.9766,0.6816,1.626,0.6816c0.4834,0,0.8955-0.127,1.2373-0.3809
			S148.3711,14.0457,148.5713,13.4891z M144.2422,11.3572h4.3438c-0.0586-0.6533-0.2246-1.1445-0.498-1.4717
			c-0.4199-0.5078-0.9648-0.7617-1.6328-0.7617c-0.6055,0-1.1152,0.2031-1.5273,0.6084
			C144.5146,10.1375,144.2871,10.6795,144.2422,11.3572z"/>
		<path class="st3" d="M151.5889,15.9939V8.2156h1.1865v1.1064c0.5713-0.8545,1.3965-1.2822,2.4756-1.2822
			c0.4688,0,0.8994,0.084,1.292,0.2529c0.3936,0.168,0.6875,0.3896,0.8828,0.6621c0.1953,0.2744,0.332,0.5986,0.4102,0.9746
			c0.0488,0.2441,0.0742,0.6719,0.0742,1.2813v4.7832h-1.3184v-4.7314c0-0.5371-0.0518-0.9385-0.1543-1.2051
			c-0.1025-0.2656-0.2852-0.4785-0.5449-0.6367c-0.2617-0.1592-0.5684-0.2383-0.9199-0.2383c-0.5615,0-1.0469,0.1787-1.4531,0.5342
			c-0.4082,0.3574-0.6123,1.0332-0.6123,2.0293v4.248H151.5889z"/>
		<path class="st3" d="M162.8096,14.8143L163,15.9793c-0.3711,0.0781-0.7031,0.1172-0.9961,0.1172
			c-0.4785,0-0.8496-0.0762-1.1133-0.2275c-0.2637-0.1504-0.4492-0.3496-0.5566-0.5967c-0.1074-0.2461-0.1611-0.7646-0.1611-1.5557
			V9.241h-0.9668V8.2156h0.9668V6.2889l1.3115-0.791v2.7178h1.3252V9.241h-1.3252v4.5479c0,0.377,0.0225,0.6182,0.0693,0.7256
			c0.0459,0.1074,0.1221,0.1934,0.2266,0.2568s0.2549,0.0947,0.4502,0.0947C162.3769,14.866,162.5703,14.8494,162.8096,14.8143z"/>
		<path class="st3" d="M169.4238,13.4891l1.3613,0.1689c-0.2148,0.7959-0.6123,1.4131-1.1934,1.8525s-1.3232,0.6592-2.2266,0.6592
			c-1.1377,0-2.0391-0.3506-2.707-1.0508c-0.666-0.7012-0.999-1.6836-0.999-2.9482c0-1.3086,0.3369-2.3242,1.0107-3.0469
			s1.5479-1.084,2.6221-1.084c1.04,0,1.8896,0.3545,2.5488,1.0615c0.6592,0.709,0.9893,1.7051,0.9893,2.9883
			c0,0.0791-0.0029,0.1963-0.0078,0.3516h-5.8008c0.0488,0.8555,0.291,1.5098,0.7246,1.9629
			c0.4355,0.4551,0.9766,0.6816,1.627,0.6816c0.4824,0,0.8955-0.127,1.2373-0.3809S169.2226,14.0457,169.4238,13.4891z
			 M165.0947,11.3572h4.3428c-0.0586-0.6533-0.2246-1.1445-0.498-1.4717c-0.4199-0.5078-0.9639-0.7617-1.6328-0.7617
			c-0.6055,0-1.1152,0.2031-1.5273,0.6084S165.1387,10.6795,165.0947,11.3572z"/>
		<path class="st3" d="M171.914,13.6717l1.3027-0.2051c0.0742,0.5234,0.2773,0.9238,0.6123,1.2012
			c0.334,0.2793,0.8018,0.418,1.4023,0.418c0.6055,0,1.0547-0.123,1.3477-0.3701c0.293-0.2461,0.4395-0.5352,0.4395-0.8682
			c0-0.2969-0.1299-0.5313-0.3877-0.7031c-0.1816-0.1172-0.6309-0.2656-1.3477-0.4463c-0.9668-0.2441-1.6377-0.4551-2.0107-0.6338
			c-0.374-0.1777-0.6572-0.4248-0.8496-0.7393c-0.1934-0.3154-0.29-0.6631-0.29-1.0439c0-0.3467,0.0801-0.668,0.2383-0.9629
			c0.1582-0.2959,0.375-0.541,0.6484-0.7363c0.2051-0.1514,0.4844-0.2793,0.8389-0.3848c0.3535-0.1045,0.7334-0.1572,1.1387-0.1572
			c0.6104,0,1.1465,0.0879,1.6074,0.2637c0.4619,0.1758,0.8018,0.4141,1.0225,0.7139c0.2188,0.3008,0.3711,0.7021,0.4531,1.2051
			l-1.2891,0.1758c-0.0586-0.4004-0.2285-0.7129-0.5088-0.9375s-0.6768-0.3369-1.1904-0.3369c-0.6055,0-1.0371,0.1006-1.2959,0.2998
			c-0.2588,0.2012-0.3877,0.4355-0.3877,0.7031c0,0.1719,0.0527,0.3252,0.1602,0.4619c0.1074,0.1416,0.2764,0.2588,0.5059,0.3516
			c0.1318,0.0488,0.5195,0.1611,1.1641,0.3369c0.9336,0.249,1.584,0.4531,1.9521,0.6113c0.3682,0.1592,0.6582,0.3896,0.8682,0.6924
			s0.3145,0.6787,0.3145,1.1279c0,0.4395-0.1279,0.8535-0.3838,1.2412c-0.2568,0.3887-0.626,0.6885-1.1104,0.9014
			c-0.4824,0.2119-1.0293,0.3184-1.6406,0.3184c-1.0098,0-1.7813-0.21-2.3105-0.6299S172.0605,14.4979,171.914,13.6717z"/>
	</g>
</g>
</svg>
