<?xml version="1.0" encoding="utf-8"?>
<!-- Generator: Adobe Illustrator 21.0.2, SVG Export Plug-In . SVG Version: 6.00 Build 0)  -->
<svg version="1.1" id="Capa_1" xmlns="http://www.w3.org/2000/svg" xmlns:xlink="http://www.w3.org/1999/xlink" x="0px" y="0px"
	 viewBox="0 0 195.3561 17.8333" style="enable-background:new 0 0 195.3561 17.8333;" xml:space="preserve">
<style type="text/css">
	.st0{fill-rule:evenodd;clip-rule:evenodd;fill:#DDDDDD;}
	.st1{fill:#3B86B1;}
	.st2{opacity:0.25;fill-rule:evenodd;clip-rule:evenodd;fill:#020202;}
	.st3{fill:#FFFFFF;}
	.st4{opacity:0.5;}
	.st5{fill-rule:evenodd;clip-rule:evenodd;fill:#A8A8A8;}
	.st6{fill-rule:evenodd;clip-rule:evenodd;fill:#FFFFFF;}
	.st7{fill-rule:evenodd;clip-rule:evenodd;fill:#3B86B1;}
	.st8{opacity:0.5;fill:#2C6882;}
	.st9{opacity:0.75;fill-rule:evenodd;clip-rule:evenodd;fill:#282828;}
	.st10{opacity:0.5;fill:#FFFFFF;}
	.st11{fill-rule:evenodd;clip-rule:evenodd;fill:none;stroke:#FFFFFF;stroke-miterlimit:10;}
	.st12{fill:none;stroke:#FFFFFF;stroke-miterlimit:10;}
	.st13{fill:#FFFFFF;stroke:#3B86B1;stroke-width:1.7139;stroke-miterlimit:10;}
	.st14{fill-rule:evenodd;clip-rule:evenodd;}
	.st15{opacity:0.85;fill:#FFFFFF;}
	.st16{opacity:0.5;fill-rule:evenodd;clip-rule:evenodd;}
	.st17{fill-rule:evenodd;clip-rule:evenodd;fill:#FEFEFE;}
	.st18{fill:#312767;}
	.st19{opacity:0.48;}
	.st20{opacity:0.25;}
	.st21{fill-rule:evenodd;clip-rule:evenodd;fill:#020202;}
	.st22{fill:#757575;}
	.st23{opacity:0.25;clip-path:url(#XMLID_2396_);}
	.st24{fill:#4D4789;}
	.st25{fill:#FFFFFF;stroke:#312767;stroke-miterlimit:10;}
	.st26{fill:#3B86B1;stroke:#3B86B1;stroke-miterlimit:10;}
	.st27{fill:#FFFFFF;stroke:#FFFFFF;stroke-miterlimit:10;}
	.st28{fill:#ACABC9;}
	.st29{fill-rule:evenodd;clip-rule:evenodd;fill:#312767;}
	.st30{opacity:0.77;fill:#312767;}
	.st31{opacity:0.25;clip-path:url(#XMLID_2397_);}
	.st32{fill:#9490B2;stroke:#2D2D2D;stroke-width:0.25;stroke-miterlimit:10;}
	.st33{fill:#312767;stroke:#2D2D2D;stroke-width:0.25;stroke-miterlimit:10;}
	.st34{fill:#FCFCFC;}
	.st35{fill:#FFFFFF;stroke:#2D2D2D;stroke-width:0.25;stroke-miterlimit:10;}
	.st36{fill-rule:evenodd;clip-rule:evenodd;fill:#484849;stroke:#2D2D2D;stroke-width:0.25;stroke-miterlimit:10;}
	.st37{fill-rule:evenodd;clip-rule:evenodd;fill:#312767;stroke:#2D2D2D;stroke-width:0.25;stroke-miterlimit:10;}
	.st38{fill-rule:evenodd;clip-rule:evenodd;fill:#FFFFFF;stroke:#2D2D2D;stroke-width:0.25;stroke-miterlimit:10;}
	.st39{fill:#484849;stroke:#2D2D2D;stroke-width:0.25;stroke-miterlimit:10;}
	.st40{fill:#54518C;}
	.st41{opacity:0.25;fill-rule:evenodd;clip-rule:evenodd;fill:#FFFFFF;}
	.st42{fill:#D4A800;}
	.st43{fill:#00AEB3;}
	.st44{fill:#38353B;}
	.st45{fill:#FF8400;}
	.st46{fill:#BF3900;}
	.st47{fill:#00AA9C;}
	.st48{opacity:0.25;clip-path:url(#XMLID_2400_);}
	.st49{fill:none;stroke:#ACABC9;stroke-width:5;stroke-miterlimit:10;}
	.st50{opacity:0.25;clip-path:url(#XMLID_2403_);}
	.st51{fill:#DDDDDD;}
	.st52{opacity:0.25;fill-rule:evenodd;clip-rule:evenodd;fill:#FFFFFF;stroke:#303030;stroke-width:0.5;stroke-miterlimit:10;}
	.st53{fill:#3B86B1;stroke:#303030;stroke-width:0.5;stroke-miterlimit:10;}
	.st54{fill:#D4A800;stroke:#303030;stroke-width:0.5;stroke-miterlimit:10;}
	.st55{fill:#00AEB3;stroke:#303030;stroke-width:0.5;stroke-miterlimit:10;}
	.st56{fill:#FF8400;stroke:#303030;stroke-width:0.5;stroke-miterlimit:10;}
	.st57{fill:#BF3900;stroke:#303030;stroke-width:0.5;stroke-miterlimit:10;}
	.st58{fill:#00AA9C;stroke:#303030;stroke-width:0.5;stroke-miterlimit:10;}
	.st59{opacity:0.25;clip-path:url(#XMLID_2404_);}
	.st60{fill-rule:evenodd;clip-rule:evenodd;fill:#FFFFFF;stroke:#FFFFFF;stroke-miterlimit:10;}
	.st61{fill:#F79748;}
	.st62{fill:#FF7900;}
	.st63{fill:#DD7105;}
	.st64{fill:#02897C;}
	.st65{fill:#0EAD9A;}
	.st66{fill:#28C6AF;}
	.st67{fill:#4FE0C7;}
	.st68{fill:#00AA9C;stroke:#353535;stroke-width:0.5;stroke-miterlimit:10;}
	.st69{fill:#02897C;stroke:#353535;stroke-width:0.5;stroke-miterlimit:10;}
	.st70{fill:#0EAD9A;stroke:#353535;stroke-width:0.5;stroke-miterlimit:10;}
	.st71{fill:#28C6AF;stroke:#353535;stroke-width:0.5;stroke-miterlimit:10;}
	.st72{fill:#4FE0C7;stroke:#353535;stroke-width:0.5;stroke-miterlimit:10;}
	.st73{fill:#D37D00;}
	.st74{fill:#D14600;}
	.st75{fill:#E5B92E;}
	.st76{fill:#DD571B;}
	.st77{fill:#E28A17;}
	.st78{opacity:0.25;clip-path:url(#XMLID_2410_);}
	.st79{opacity:0.77;fill:#FFFFFF;}
	.st80{fill:#50565B;stroke:#656C70;stroke-miterlimit:10;}
	.st81{fill:#808589;stroke:#656C70;stroke-miterlimit:10;}
	.st82{fill:#252728;stroke:#000000;stroke-miterlimit:10;}
	.st83{fill:#1A1B1C;stroke:#000000;stroke-miterlimit:10;}
	.st84{fill:#A0A6AA;}
	.st85{fill:#262C35;stroke:#161A1E;stroke-miterlimit:10;}
	.st86{fill:#181D23;}
	.st87{fill:#EABA96;stroke:#E0AA86;stroke-miterlimit:10;}
	.st88{fill:#E0AA86;}
	.st89{stroke:#000000;stroke-width:0.75;stroke-linecap:square;stroke-linejoin:bevel;stroke-miterlimit:10;}
	.st90{fill:#0F1C3F;stroke:#182951;stroke-miterlimit:10;}
	.st91{fill:#132354;stroke:#3F6093;stroke-miterlimit:10;}
	.st92{fill:#0F1C3F;}
	.st93{fill:none;stroke:#3F6093;stroke-width:0.75;stroke-miterlimit:10;}
	.st94{fill:#DBA682;}
	.st95{fill:none;stroke:#E0AA86;stroke-miterlimit:10;}
	.st96{fill:none;stroke:#E0AA86;stroke-linejoin:bevel;stroke-miterlimit:10;}
	.st97{fill:#8A0A8E;stroke:#AC34B2;stroke-miterlimit:10;}
	.st98{fill:#810C87;}
	.st99{fill:#680B6D;}
	.st100{fill:#AC34B2;stroke:#AC34B2;stroke-width:0.5;stroke-miterlimit:10;}
	.st101{fill:none;stroke:#959DA0;stroke-width:0.5;stroke-miterlimit:10;}
	.st102{fill:#959DA0;stroke:#959DA0;stroke-width:0.5;stroke-miterlimit:10;}
	.st103{fill:none;stroke:#AC34B2;stroke-miterlimit:10;}
	.st104{fill:#282828;stroke:#000000;stroke-miterlimit:10;}
	.st105{fill:#EABA96;stroke:#E0AA86;stroke-width:0.5;stroke-miterlimit:10;}
	.st106{fill:#B7896A;}
	.st107{stroke:#000000;stroke-miterlimit:10;}
	.st108{fill:#C1A578;}
	.st109{stroke:#000000;stroke-width:0.25;stroke-linecap:round;stroke-linejoin:round;stroke-miterlimit:10;}
	.st110{fill:#FFFFFF;stroke:#000000;stroke-width:0.25;stroke-linecap:round;stroke-linejoin:round;stroke-miterlimit:10;}
	.st111{fill:#70582D;}
	.st112{stroke:#000000;stroke-linecap:round;stroke-linejoin:round;stroke-miterlimit:10;}
	.st113{fill:none;stroke:#D8A27D;stroke-width:0.75;stroke-miterlimit:10;}
	.st114{fill:#561409;}
	.st115{fill:#BA2A13;}
	.st116{fill:#9E3025;stroke:#4C2311;stroke-width:0.25;stroke-miterlimit:10;}
	.st117{fill:#871D08;stroke:#4C2311;stroke-width:0.25;stroke-miterlimit:10;}
	.st118{fill:#DDAC8A;}
	.st119{fill:#A5ABAD;stroke:#959DA0;stroke-width:0.5;stroke-miterlimit:10;}
	.st120{fill:#B1BABC;}
	.st121{fill:none;stroke:#153847;stroke-width:5;stroke-miterlimit:10;}
	.st122{fill:#3CA7AF;}
	.st123{fill:#3DAD8D;}
	.st124{fill:#3DAA61;}
	.st125{fill:#67A53F;}
	.st126{fill:#95A340;}
	.st127{opacity:0.25;clip-path:url(#XMLID_2411_);}
	.st128{opacity:0.25;clip-path:url(#XMLID_2416_);}
	.st129{fill:#F79748;stroke:#303030;stroke-width:0.5;stroke-miterlimit:10;}
	.st130{fill:#FF7900;stroke:#303030;stroke-width:0.5;stroke-miterlimit:10;}
	.st131{fill:#DD7105;stroke:#303030;stroke-width:0.5;stroke-miterlimit:10;}
	.st132{opacity:0.25;clip-path:url(#XMLID_2422_);}
	.st133{clip-path:url(#SVGID_2_);}
	.st134{fill:none;stroke:#3F6093;stroke-miterlimit:10;}
	.st135{fill:none;stroke:#3F6093;stroke-width:0.75;stroke-linecap:round;stroke-linejoin:round;}
	.st136{fill:none;stroke:#3F6093;stroke-width:0.75;stroke-linecap:round;stroke-linejoin:round;stroke-dasharray:0.9892,0.9892;}
	
		.st137{fill:none;stroke:#3F6093;stroke-width:0.75;stroke-linecap:round;stroke-linejoin:round;stroke-miterlimit:10;stroke-dasharray:1;}
	.st138{fill:#EAEAEA;stroke:#FFFFFF;stroke-width:0.25;stroke-miterlimit:10;}
	.st139{fill:#D8D8D8;}
	.st140{fill:#282828;stroke:#000000;stroke-width:0.75;stroke-miterlimit:10;}
	.st141{opacity:0.33;fill:#FFFFFF;}
	.st142{fill:none;stroke:#000000;stroke-width:1.5;stroke-linecap:round;stroke-linejoin:round;stroke-miterlimit:10;}
	.st143{clip-path:url(#SVGID_4_);}
	.st144{opacity:0.64;}
	.st145{fill:#1D1D1B;}
	.st146{fill:#C9C9C9;}
	.st147{fill:#545477;}
</style>
<g>
	<polygon class="st147" points="187.3561,17.8333 0,17.8333 0,0 187.3561,0 195.3561,8.9167 	"/>
	<polygon id="XMLID_2421_" class="st27" points="17.0088,2.5862 18.3877,7.2585 23.5186,7.3362 19.5362,10.1711 20.9912,14.9944 
		17.0879,12.0867 12.9512,14.9944 14.4815,10.4016 10.4248,7.3362 15.3243,7.4128 	"/>
	<g>
		<path class="st3" d="M30.498,13.9941l4.123-10.7373h1.5313l4.3945,10.7373h-1.6191l-1.252-3.252h-4.4902l-1.1797,3.252H30.498z
			 M33.5957,9.585h3.6406l-1.1211-2.9736c-0.3418-0.9033-0.5957-1.6455-0.7617-2.2266c-0.1367,0.6885-0.3301,1.3721-0.5781,2.0508
			L33.5957,9.585z"/>
		<path class="st3" d="M46.5888,11.1445l1.2959,0.1689c-0.1406,0.8936-0.5039,1.5928-1.0869,2.0986
			c-0.584,0.5049-1.2998,0.7578-2.1494,0.7578c-1.0645,0-1.9209-0.3477-2.5674-1.0439c-0.6475-0.6953-0.9707-1.6924-0.9707-2.9912
			c0-0.8398,0.1396-1.5752,0.417-2.2051c0.2793-0.6299,0.7021-1.1025,1.2715-1.417C43.3672,6.1973,43.9863,6.04,44.6553,6.04
			c0.8447,0,1.5361,0.2139,2.0732,0.6406c0.5371,0.4277,0.8809,1.0342,1.0322,1.8203l-1.2822,0.1982
			c-0.1211-0.5225-0.3379-0.916-0.6475-1.1797c-0.3105-0.2637-0.6846-0.3955-1.124-0.3955c-0.6641,0-1.2041,0.2383-1.6191,0.7139
			c-0.415,0.4766-0.623,1.2295-0.623,2.2598c0,1.0449,0.2012,1.8047,0.6016,2.2773c0.4004,0.4746,0.9219,0.7109,1.5664,0.7109
			c0.5176,0,0.9502-0.1582,1.2969-0.4766C46.2763,12.293,46.4961,11.8047,46.5888,11.1445z"/>
		<path class="st3" d="M54.0888,11.1445l1.2959,0.1689c-0.1406,0.8936-0.5039,1.5928-1.0869,2.0986
			c-0.584,0.5049-1.2998,0.7578-2.1494,0.7578c-1.0645,0-1.9209-0.3477-2.5674-1.0439c-0.6475-0.6953-0.9707-1.6924-0.9707-2.9912
			c0-0.8398,0.1396-1.5752,0.417-2.2051c0.2793-0.6299,0.7021-1.1025,1.2715-1.417C50.8672,6.1973,51.4863,6.04,52.1553,6.04
			c0.8447,0,1.5361,0.2139,2.0732,0.6406c0.5371,0.4277,0.8809,1.0342,1.0322,1.8203l-1.2822,0.1982
			c-0.1211-0.5225-0.3379-0.916-0.6475-1.1797c-0.3105-0.2637-0.6846-0.3955-1.124-0.3955c-0.6641,0-1.2041,0.2383-1.6191,0.7139
			c-0.415,0.4766-0.623,1.2295-0.623,2.2598c0,1.0449,0.2012,1.8047,0.6016,2.2773c0.4004,0.4746,0.9219,0.7109,1.5664,0.7109
			c0.5176,0,0.9502-0.1582,1.2969-0.4766C53.7763,12.293,53.9961,11.8047,54.0888,11.1445z"/>
		<path class="st3" d="M61.8379,11.4893l1.3623,0.1689c-0.2148,0.7959-0.6123,1.4131-1.1943,1.8525
			c-0.5801,0.4395-1.3223,0.6592-2.2266,0.6592c-1.1367,0-2.0391-0.3506-2.7061-1.0508c-0.666-0.7012-0.999-1.6836-0.999-2.9482
			c0-1.3086,0.3359-2.3242,1.0098-3.0469s1.5488-1.084,2.623-1.084c1.0391,0,1.8887,0.3545,2.5488,1.0615
			c0.6582,0.709,0.9883,1.7051,0.9883,2.9883c0,0.0791-0.002,0.1963-0.0078,0.3516h-5.8008
			c0.0488,0.8555,0.291,1.5098,0.7256,1.9629c0.4346,0.4551,0.9766,0.6816,1.626,0.6816c0.4834,0,0.8965-0.127,1.2383-0.3809
			S61.6377,12.0459,61.8379,11.4893z M57.5097,9.3574h4.3428c-0.0586-0.6533-0.2246-1.1445-0.498-1.4717
			c-0.4199-0.5078-0.9639-0.7617-1.6338-0.7617c-0.6055,0-1.1143,0.2031-1.5264,0.6084
			C57.7812,8.1377,57.5527,8.6797,57.5097,9.3574z"/>
		<path class="st3" d="M64.3281,11.6719l1.3037-0.2051c0.0732,0.5234,0.2764,0.9238,0.6123,1.2012
			c0.334,0.2793,0.8008,0.418,1.4023,0.418c0.6055,0,1.0547-0.123,1.3477-0.3701c0.293-0.2461,0.4395-0.5352,0.4395-0.8682
			c0-0.2969-0.1299-0.5313-0.3887-0.7031c-0.1807-0.1172-0.6299-0.2656-1.3477-0.4463c-0.9668-0.2441-1.6367-0.4551-2.0098-0.6338
			c-0.375-0.1777-0.6582-0.4248-0.8496-0.7393c-0.1934-0.3154-0.29-0.6631-0.29-1.0439c0-0.3467,0.0791-0.668,0.2373-0.9629
			c0.1592-0.2959,0.375-0.541,0.6484-0.7363c0.2051-0.1514,0.4844-0.2793,0.8398-0.3848C66.6269,6.0928,67.0058,6.04,67.4121,6.04
			c0.6094,0,1.1465,0.0879,1.6074,0.2637s0.8018,0.4141,1.0215,0.7139c0.2197,0.3008,0.3711,0.7021,0.4541,1.2051L69.206,8.3984
			c-0.0586-0.4004-0.2285-0.7129-0.5088-0.9375C68.416,7.2363,68.0195,7.124,67.5068,7.124c-0.6055,0-1.0381,0.1006-1.2959,0.2998
			c-0.2598,0.2012-0.3887,0.4355-0.3887,0.7031c0,0.1719,0.0537,0.3252,0.1611,0.4619c0.1074,0.1416,0.2764,0.2588,0.5049,0.3516
			c0.1328,0.0488,0.5205,0.1611,1.165,0.3369c0.9326,0.249,1.583,0.4531,1.9521,0.6113c0.3682,0.1592,0.6582,0.3896,0.8672,0.6924
			c0.2109,0.3027,0.3154,0.6787,0.3154,1.1279c0,0.4395-0.1279,0.8535-0.3838,1.2412c-0.2578,0.3887-0.627,0.6885-1.1104,0.9014
			c-0.4834,0.2119-1.0303,0.3184-1.6406,0.3184c-1.0107,0-1.7813-0.21-2.3115-0.6299
			C64.8125,13.1201,64.4746,12.498,64.3281,11.6719z"/>
		<path class="st3" d="M77.4316,13.0352c-0.4883,0.415-0.959,0.708-1.4102,0.8789c-0.4521,0.1699-0.9365,0.2559-1.4541,0.2559
			c-0.8545,0-1.5107-0.209-1.9697-0.626c-0.459-0.418-0.6895-0.9512-0.6895-1.6006c0-0.3809,0.0869-0.7285,0.2598-1.0439
			c0.1738-0.3145,0.4004-0.5674,0.6816-0.7578s0.5977-0.334,0.9492-0.4326c0.2578-0.0674,0.6484-0.1338,1.1719-0.1973
			c1.0645-0.127,1.8477-0.2783,2.3506-0.4541c0.0049-0.1807,0.0068-0.2949,0.0068-0.3447c0-0.5361-0.124-0.915-0.373-1.1348
			c-0.3369-0.2979-0.8379-0.4473-1.502-0.4473c-0.6191,0-1.0781,0.1094-1.373,0.3262c-0.2949,0.2178-0.5137,0.6025-0.6553,1.1543
			l-1.2891-0.1758c0.1172-0.5518,0.3096-0.998,0.5791-1.3369c0.2676-0.3398,0.6563-0.6006,1.1641-0.7842
			C74.3867,6.1318,74.9746,6.04,75.6445,6.04c0.6641,0,1.2031,0.0781,1.6182,0.2344s0.7197,0.3525,0.915,0.5898
			c0.1953,0.2363,0.332,0.5361,0.4102,0.8975c0.0449,0.2246,0.0664,0.6289,0.0664,1.2148v1.7578c0,1.2266,0.0273,2.001,0.084,2.3262
			c0.0566,0.3242,0.168,0.6357,0.334,0.9336h-1.377C77.5586,13.7207,77.4707,13.4004,77.4316,13.0352z M77.3213,10.0898
			c-0.4785,0.1963-1.1963,0.3623-2.1533,0.498c-0.542,0.0791-0.9258,0.167-1.1504,0.2637
			c-0.2246,0.0986-0.3975,0.2412-0.5195,0.4287c-0.1221,0.1885-0.1836,0.3975-0.1836,0.626c0,0.3516,0.1328,0.6445,0.4004,0.8789
			c0.2656,0.2344,0.6543,0.3516,1.168,0.3516c0.5078,0,0.959-0.1104,1.3545-0.333c0.3955-0.2217,0.6865-0.5254,0.8721-0.9111
			c0.1406-0.2979,0.2119-0.7373,0.2119-1.3184V10.0898z"/>
		<path class="st3" d="M81.914,13.9941h-1.2236V3.2568h1.3184v3.8311C82.5654,6.3896,83.2754,6.04,84.1406,6.04
			c0.4785,0,0.9307,0.0967,1.3584,0.2891c0.4268,0.1934,0.7783,0.4639,1.0547,0.8135c0.2754,0.3486,0.4912,0.7705,0.6475,1.2637
			s0.2344,1.0205,0.2344,1.582c0,1.332-0.3291,2.3633-0.9883,3.0898c-0.6592,0.7285-1.4502,1.0918-2.373,1.0918
			c-0.918,0-1.6387-0.3828-2.1602-1.1504V13.9941z M81.8984,10.0469c0,0.9326,0.127,1.6064,0.3809,2.0215
			c0.416,0.6787,0.9766,1.0176,1.6855,1.0176c0.5762,0,1.0742-0.25,1.4941-0.751c0.4199-0.5,0.6289-1.2461,0.6289-2.2373
			c0-1.0156-0.2012-1.7656-0.6035-2.248C85.081,7.3652,84.5937,7.124,84.0234,7.124c-0.5762,0-1.0742,0.25-1.4941,0.751
			C82.1094,8.375,81.8984,9.0996,81.8984,10.0469z"/>
		<path class="st3" d="M89.0469,4.7734V3.2568h1.3184v1.5166H89.0469z M89.0469,13.9941V6.2158h1.3184v7.7783H89.0469z"/>
		<path class="st3" d="M92.3437,13.9941V3.2568h1.3184v10.7373H92.3437z"/>
		<path class="st3" d="M95.7129,4.7734V3.2568h1.3184v1.5166H95.7129z M95.7129,13.9941V6.2158h1.3184v7.7783H95.7129z"/>
		<path class="st3" d="M104.084,13.9941v-0.9814c-0.4932,0.7715-1.2188,1.1572-2.1758,1.1572c-0.6191,0-1.1895-0.1709-1.71-0.5127
			c-0.5195-0.3418-0.9229-0.8193-1.208-1.4316c-0.2861-0.6133-0.4287-1.3174-0.4287-2.1133c0-0.7764,0.1299-1.4805,0.3877-2.1133
			c0.2598-0.6318,0.6475-1.1162,1.165-1.4541c0.5176-0.3359,1.0967-0.5049,1.7354-0.5049c0.4688,0,0.8867,0.0986,1.2529,0.2969
			c0.3662,0.1973,0.6641,0.4551,0.8936,0.7725V3.2568h1.3105v10.7373H104.084z M99.916,10.1123
			c0,0.9961,0.2109,1.7412,0.6309,2.2334c0.4199,0.4941,0.915,0.7402,1.4863,0.7402c0.5762,0,1.0654-0.2354,1.4688-0.707
			c0.4023-0.4707,0.6035-1.1895,0.6035-2.1563c0-1.0645-0.2051-1.8457-0.6152-2.3438s-0.915-0.748-1.5156-0.748
			c-0.5859,0-1.0762,0.2402-1.4688,0.7188S99.916,9.082,99.916,10.1123z"/>
		<path class="st3" d="M112.4551,13.0352c-0.4883,0.415-0.958,0.708-1.4102,0.8789c-0.4512,0.1699-0.9355,0.2559-1.4531,0.2559
			c-0.8545,0-1.5117-0.209-1.9707-0.626c-0.459-0.418-0.6875-0.9512-0.6875-1.6006c0-0.3809,0.0859-0.7285,0.2598-1.0439
			c0.1729-0.3145,0.4004-0.5674,0.6816-0.7578c0.2793-0.1904,0.5957-0.334,0.9473-0.4326c0.2598-0.0674,0.6504-0.1338,1.1719-0.1973
			c1.0645-0.127,1.8486-0.2783,2.3516-0.4541c0.0049-0.1807,0.0078-0.2949,0.0078-0.3447c0-0.5361-0.125-0.915-0.374-1.1348
			c-0.3369-0.2979-0.8369-0.4473-1.501-0.4473c-0.6211,0-1.0781,0.1094-1.373,0.3262c-0.2969,0.2178-0.5146,0.6025-0.6563,1.1543
			l-1.2891-0.1758c0.1172-0.5518,0.3105-0.998,0.5781-1.3369c0.2695-0.3398,0.6572-0.6006,1.165-0.7842
			C109.4111,6.1318,110,6.04,110.6679,6.04c0.6641,0,1.2041,0.0781,1.6191,0.2344s0.7207,0.3525,0.916,0.5898
			c0.1953,0.2363,0.332,0.5361,0.4102,0.8975c0.043,0.2246,0.0654,0.6289,0.0654,1.2148v1.7578c0,1.2266,0.0283,2.001,0.085,2.3262
			c0.0547,0.3242,0.166,0.6357,0.332,0.9336h-1.377C112.582,13.7207,112.4941,13.4004,112.4551,13.0352z M112.3457,10.0898
			c-0.4785,0.1963-1.1963,0.3623-2.1533,0.498c-0.542,0.0791-0.9248,0.167-1.1494,0.2637
			c-0.2246,0.0986-0.3984,0.2412-0.5205,0.4287c-0.1221,0.1885-0.1826,0.3975-0.1826,0.626c0,0.3516,0.1328,0.6445,0.3984,0.8789
			s0.6563,0.3516,1.168,0.3516c0.5078,0,0.96-0.1104,1.3555-0.333c0.3955-0.2217,0.6855-0.5254,0.8711-0.9111
			c0.1426-0.2979,0.2129-0.7373,0.2129-1.3184V10.0898z"/>
		<path class="st3" d="M120.7685,13.9941v-0.9814c-0.4932,0.7715-1.2178,1.1572-2.1748,1.1572
			c-0.6211,0-1.1904-0.1709-1.7109-0.5127c-0.5195-0.3418-0.9229-0.8193-1.208-1.4316c-0.2861-0.6133-0.4287-1.3174-0.4287-2.1133
			c0-0.7764,0.1289-1.4805,0.3887-2.1133c0.2578-0.6318,0.6465-1.1162,1.1641-1.4541c0.5176-0.3359,1.0957-0.5049,1.7363-0.5049
			c0.4688,0,0.8857,0.0986,1.252,0.2969c0.3662,0.1973,0.6641,0.4551,0.8936,0.7725V3.2568h1.3115v10.7373H120.7685z
			 M116.6015,10.1123c0,0.9961,0.209,1.7412,0.6289,2.2334c0.4199,0.4941,0.916,0.7402,1.4873,0.7402
			c0.5762,0,1.0654-0.2354,1.4688-0.707c0.4023-0.4707,0.6045-1.1895,0.6045-2.1563c0-1.0645-0.2051-1.8457-0.6152-2.3438
			s-0.916-0.748-1.5166-0.748c-0.5859,0-1.0752,0.2402-1.4688,0.7188S116.6015,9.082,116.6015,10.1123z"/>
	</g>
</g>
</svg>
