<?xml version="1.0" encoding="utf-8"?>
<!-- Generator: Adobe Illustrator 21.0.2, SVG Export Plug-In . SVG Version: 6.00 Build 0)  -->
<svg version="1.1" id="Capa_1" xmlns="http://www.w3.org/2000/svg" xmlns:xlink="http://www.w3.org/1999/xlink" x="0px" y="0px"
	 viewBox="0 0 1006.3615 40" style="enable-background:new 0 0 1006.3615 40;" xml:space="preserve">
<style type="text/css">
	.st0{fill-rule:evenodd;clip-rule:evenodd;fill:#DDDDDD;}
	.st1{fill:#3B86B1;}
	.st2{opacity:0.25;fill-rule:evenodd;clip-rule:evenodd;fill:#020202;}
	.st3{fill:#FFFFFF;}
	.st4{opacity:0.5;}
	.st5{fill-rule:evenodd;clip-rule:evenodd;fill:#A8A8A8;}
	.st6{fill-rule:evenodd;clip-rule:evenodd;fill:#FFFFFF;}
	.st7{fill-rule:evenodd;clip-rule:evenodd;fill:#3B86B1;}
	.st8{opacity:0.5;fill:#2C6882;}
	.st9{opacity:0.75;fill-rule:evenodd;clip-rule:evenodd;fill:#282828;}
	.st10{opacity:0.5;fill:#FFFFFF;}
	.st11{fill-rule:evenodd;clip-rule:evenodd;fill:none;stroke:#FFFFFF;stroke-miterlimit:10;}
	.st12{fill:none;stroke:#FFFFFF;stroke-miterlimit:10;}
	.st13{fill:#FFFFFF;stroke:#3B86B1;stroke-width:1.7139;stroke-miterlimit:10;}
	.st14{fill-rule:evenodd;clip-rule:evenodd;}
	.st15{opacity:0.85;fill:#FFFFFF;}
	.st16{opacity:0.5;fill-rule:evenodd;clip-rule:evenodd;}
	.st17{fill-rule:evenodd;clip-rule:evenodd;fill:#FEFEFE;}
	.st18{fill:#312767;}
	.st19{opacity:0.48;}
	.st20{opacity:0.25;}
	.st21{fill-rule:evenodd;clip-rule:evenodd;fill:#020202;}
	.st22{fill:#757575;}
	.st23{opacity:0.25;clip-path:url(#XMLID_2288_);}
	.st24{fill:#FFFFFF;stroke:#312767;stroke-miterlimit:10;}
	.st25{fill:#ACABC9;}
	.st26{fill-rule:evenodd;clip-rule:evenodd;fill:#312767;}
	.st27{opacity:0.77;fill:#312767;}
	.st28{opacity:0.25;clip-path:url(#XMLID_2290_);}
	.st29{fill:#54518C;}
	.st30{fill:#FFFFFF;stroke:#FFFFFF;stroke-miterlimit:10;}
	.st31{opacity:0.25;fill-rule:evenodd;clip-rule:evenodd;fill:#FFFFFF;}
	.st32{fill:#D4A800;}
	.st33{fill:#00AEB3;}
	.st34{fill:#38353B;}
	.st35{fill:#FF8400;}
	.st36{fill:#BF3900;}
	.st37{fill:#00AA9C;}
	.st38{opacity:0.25;clip-path:url(#XMLID_2291_);}
	.st39{fill:none;stroke:#ACABC9;stroke-width:5;stroke-miterlimit:10;}
	.st40{opacity:0.25;clip-path:url(#XMLID_2292_);}
	.st41{fill:#DDDDDD;}
	.st42{opacity:0.25;clip-path:url(#XMLID_2293_);}
	.st43{fill-rule:evenodd;clip-rule:evenodd;fill:#FFFFFF;stroke:#FFFFFF;stroke-miterlimit:10;}
	.st44{fill:#F79748;}
	.st45{fill:#FF7900;}
	.st46{fill:#DD7105;}
	.st47{fill:#02897C;}
	.st48{fill:#0EAD9A;}
	.st49{fill:#28C6AF;}
	.st50{fill:#4FE0C7;}
	.st51{fill:#D37D00;}
	.st52{fill:#D14600;}
	.st53{fill:#E5B92E;}
	.st54{fill:#DD571B;}
	.st55{fill:#E28A17;}
	.st56{opacity:0.25;clip-path:url(#XMLID_2294_);}
	.st57{opacity:0.77;fill:#FFFFFF;}
	.st58{fill:#50565B;stroke:#656C70;stroke-miterlimit:10;}
	.st59{fill:#808589;stroke:#656C70;stroke-miterlimit:10;}
	.st60{fill:#252728;stroke:#000000;stroke-miterlimit:10;}
	.st61{fill:#1A1B1C;stroke:#000000;stroke-miterlimit:10;}
	.st62{fill:#A0A6AA;}
	.st63{fill:#262C35;stroke:#161A1E;stroke-miterlimit:10;}
	.st64{fill:#181D23;}
	.st65{fill:#EABA96;stroke:#E0AA86;stroke-miterlimit:10;}
	.st66{fill:#E0AA86;}
	.st67{stroke:#000000;stroke-width:0.75;stroke-linecap:square;stroke-linejoin:bevel;stroke-miterlimit:10;}
	.st68{fill:#0F1C3F;stroke:#182951;stroke-miterlimit:10;}
	.st69{fill:#132354;stroke:#3F6093;stroke-miterlimit:10;}
	.st70{fill:#0F1C3F;}
	.st71{fill:none;stroke:#3F6093;stroke-width:0.75;stroke-miterlimit:10;}
	.st72{fill:#DBA682;}
	.st73{fill:none;stroke:#E0AA86;stroke-miterlimit:10;}
	.st74{fill:none;stroke:#E0AA86;stroke-linejoin:bevel;stroke-miterlimit:10;}
	.st75{fill:#8A0A8E;stroke:#AC34B2;stroke-miterlimit:10;}
	.st76{fill:#810C87;}
	.st77{fill:#680B6D;}
	.st78{fill:#AC34B2;stroke:#AC34B2;stroke-width:0.5;stroke-miterlimit:10;}
	.st79{fill:none;stroke:#959DA0;stroke-width:0.5;stroke-miterlimit:10;}
	.st80{fill:#959DA0;stroke:#959DA0;stroke-width:0.5;stroke-miterlimit:10;}
	.st81{fill:none;stroke:#AC34B2;stroke-miterlimit:10;}
	.st82{fill:#282828;stroke:#000000;stroke-miterlimit:10;}
	.st83{fill:#EABA96;stroke:#E0AA86;stroke-width:0.5;stroke-miterlimit:10;}
	.st84{fill:#B7896A;}
	.st85{stroke:#000000;stroke-miterlimit:10;}
	.st86{fill:#C1A578;}
	.st87{stroke:#000000;stroke-width:0.25;stroke-linecap:round;stroke-linejoin:round;stroke-miterlimit:10;}
	.st88{fill:#FFFFFF;stroke:#000000;stroke-width:0.25;stroke-linecap:round;stroke-linejoin:round;stroke-miterlimit:10;}
	.st89{fill:#70582D;}
	.st90{stroke:#000000;stroke-linecap:round;stroke-linejoin:round;stroke-miterlimit:10;}
	.st91{fill:none;stroke:#D8A27D;stroke-width:0.75;stroke-miterlimit:10;}
	.st92{fill:#561409;}
	.st93{fill:#BA2A13;}
	.st94{fill:#9E3025;stroke:#4C2311;stroke-width:0.25;stroke-miterlimit:10;}
	.st95{fill:#871D08;stroke:#4C2311;stroke-width:0.25;stroke-miterlimit:10;}
	.st96{fill:#DDAC8A;}
	.st97{fill:#A5ABAD;stroke:#959DA0;stroke-width:0.5;stroke-miterlimit:10;}
	.st98{fill:#B1BABC;}
	.st99{fill:#FCFCFC;}
	.st100{fill:none;stroke:#153847;stroke-width:5;stroke-miterlimit:10;}
	.st101{fill:#3CA7AF;}
	.st102{fill:#3DAD8D;}
	.st103{fill:#3DAA61;}
	.st104{fill:#67A53F;}
	.st105{fill:#95A340;}
	.st106{opacity:0.25;clip-path:url(#XMLID_2295_);}
	.st107{opacity:0.25;clip-path:url(#XMLID_2297_);}
	.st108{opacity:0.25;clip-path:url(#XMLID_2299_);}
	.st109{clip-path:url(#SVGID_2_);}
	.st110{fill:none;stroke:#3F6093;stroke-miterlimit:10;}
	.st111{fill:none;stroke:#3F6093;stroke-width:0.75;stroke-linecap:round;stroke-linejoin:round;}
	.st112{fill:none;stroke:#3F6093;stroke-width:0.75;stroke-linecap:round;stroke-linejoin:round;stroke-dasharray:0.9892,0.9892;}
	
		.st113{fill:none;stroke:#3F6093;stroke-width:0.75;stroke-linecap:round;stroke-linejoin:round;stroke-miterlimit:10;stroke-dasharray:1;}
	.st114{fill:#EAEAEA;stroke:#FFFFFF;stroke-width:0.25;stroke-miterlimit:10;}
	.st115{fill:#D8D8D8;}
	.st116{fill:#282828;stroke:#000000;stroke-width:0.75;stroke-miterlimit:10;}
	.st117{opacity:0.33;fill:#FFFFFF;}
	.st118{fill:none;stroke:#000000;stroke-width:1.5;stroke-linecap:round;stroke-linejoin:round;stroke-miterlimit:10;}
	.st119{opacity:0.64;}
	.st120{fill:#1D1D1B;}
	.st121{fill:#C9C9C9;}
</style>
<g>
	<g>
		<rect id="XMLID_2276_" y="0" class="st18" width="40" height="40"/>
		<g id="XMLID_2252_" class="st19">
			<g>
				<g class="st20">
					<rect y="0" class="st21" width="40" height="40"/>
				</g>
			</g>
		</g>
		<g id="XMLID_2208_">
			<path id="XMLID_2236_" class="st3" d="M28.8648,19.2595l-8.4604-6.9787c-0.3911-0.3228-0.9567-0.3228-1.3485,0l-8.4597,6.9787
				c-0.2442,0.2015-0.3856,0.5015-0.3856,0.8174v10.5303c0,0.5848,0.4746,1.0594,1.0594,1.0594h16.92
				c0.585,0,1.0594-0.4746,1.0594-1.0594V20.0769C29.2496,19.761,29.109,19.461,28.8648,19.2595L28.8648,19.2595z M20.8506,29.5478
				h-2.2402v-5.8656h2.2402V29.5478z M27.1307,29.5478h-4.1611v-6.9251c0-0.5855-0.4745-1.0594-1.0594-1.0594H17.551
				c-0.5857,0-1.0594,0.4739-1.0594,1.0594v6.9251h-4.162v-8.9715l7.4009-6.1049l7.4002,6.1049V29.5478z M27.1307,29.5478"/>
			<path id="XMLID_2228_" class="st3" d="M31.8018,17.1345c-2.3604-1.8906-4.5854-3.6976-7.001-5.6869
				c-0.7222-0.6491-1.4802-1.2629-2.2148-1.8569c-0.718-0.582-1.4615-1.1836-2.1471-1.8009c-0.4028-0.3621-1.0146-0.3621-1.4174,0
				c-0.6856,0.6173-1.4285,1.2189-2.1471,1.8009c-0.734,0.594-1.4928,1.2078-2.2142,1.8569
				c-2.4161,1.9893-4.6412,3.7963-7.0008,5.6869C7.2027,17.5,7.1289,18.1671,7.4944,18.6237
				c0.3657,0.4566,1.0333,0.5304,1.4892,0.1647c2.3733-1.9008,4.6109-3.719,7.0416-5.7199
				c0.0117-0.0104,0.0235-0.0199,0.0351-0.0304c0.6856-0.6173,1.4285-1.2187,2.1471-1.8009
				c0.5029-0.4063,1.0167-0.8228,1.523-1.2533c0.5057,0.4305,1.0202,0.847,1.5229,1.2533c0.7188,0.5822,1.4617,1.1836,2.1471,1.8009
				c0.0118,0.0104,0.0235,0.0199,0.0353,0.0304c2.4305,2.0009,4.6674,3.8191,7.0409,5.7199
				c0.1958,0.1559,0.4296,0.2325,0.6622,0.2325c0.3102,0,0.618-0.136,0.8269-0.3973C32.332,18.1671,32.2582,17.5,31.8018,17.1345
				L31.8018,17.1345z M31.8018,17.1345"/>
		</g>
	</g>
	<rect id="XMLID_2207_" x="40" class="st22" width="966.3615" height="40"/>
</g>
</svg>
