<?xml version="1.0" encoding="utf-8"?>
<!-- Generator: Adobe Illustrator 21.0.2, SVG Export Plug-In . SVG Version: 6.00 Build 0)  -->
<svg version="1.1" id="Capa_1" xmlns="http://www.w3.org/2000/svg" xmlns:xlink="http://www.w3.org/1999/xlink" x="0px" y="0px"
	 viewBox="0 0 233.6385 600" style="enable-background:new 0 0 233.6385 600;" xml:space="preserve">
<style type="text/css">
	.st0{fill-rule:evenodd;clip-rule:evenodd;fill:#DDDDDD;}
	.st1{fill:#3B86B1;}
	.st2{opacity:0.25;fill-rule:evenodd;clip-rule:evenodd;fill:#020202;}
	.st3{fill:#FFFFFF;}
	.st4{opacity:0.5;}
	.st5{fill-rule:evenodd;clip-rule:evenodd;fill:#A8A8A8;}
	.st6{fill-rule:evenodd;clip-rule:evenodd;fill:#FFFFFF;}
	.st7{fill-rule:evenodd;clip-rule:evenodd;fill:#3B86B1;}
	.st8{opacity:0.5;fill:#2C6882;}
	.st9{opacity:0.75;fill-rule:evenodd;clip-rule:evenodd;fill:#282828;}
	.st10{opacity:0.5;fill:#FFFFFF;}
	.st11{fill-rule:evenodd;clip-rule:evenodd;fill:none;stroke:#FFFFFF;stroke-miterlimit:10;}
	.st12{fill:none;stroke:#FFFFFF;stroke-miterlimit:10;}
	.st13{fill:#FFFFFF;stroke:#3B86B1;stroke-width:1.7139;stroke-miterlimit:10;}
	.st14{fill-rule:evenodd;clip-rule:evenodd;}
	.st15{opacity:0.85;fill:#FFFFFF;}
	.st16{opacity:0.5;fill-rule:evenodd;clip-rule:evenodd;}
	.st17{fill-rule:evenodd;clip-rule:evenodd;fill:#FEFEFE;}
	.st18{fill:#312767;}
	.st19{opacity:0.48;}
	.st20{opacity:0.25;}
	.st21{fill-rule:evenodd;clip-rule:evenodd;fill:#020202;}
	.st22{fill:#757575;}
	.st23{opacity:0.25;clip-path:url(#XMLID_2288_);}
	.st24{fill:#FFFFFF;stroke:#312767;stroke-miterlimit:10;}
	.st25{fill:#ACABC9;}
	.st26{fill-rule:evenodd;clip-rule:evenodd;fill:#312767;}
	.st27{opacity:0.77;fill:#312767;}
	.st28{opacity:0.25;clip-path:url(#XMLID_2290_);}
	.st29{fill:#54518C;}
	.st30{fill:#FFFFFF;stroke:#FFFFFF;stroke-miterlimit:10;}
	.st31{opacity:0.25;fill-rule:evenodd;clip-rule:evenodd;fill:#FFFFFF;}
	.st32{fill:#D4A800;}
	.st33{fill:#00AEB3;}
	.st34{fill:#38353B;}
	.st35{fill:#FF8400;}
	.st36{fill:#BF3900;}
	.st37{fill:#00AA9C;}
	.st38{opacity:0.25;clip-path:url(#XMLID_2291_);}
	.st39{fill:none;stroke:#ACABC9;stroke-width:5;stroke-miterlimit:10;}
	.st40{opacity:0.25;clip-path:url(#XMLID_2292_);}
	.st41{fill:#DDDDDD;}
	.st42{opacity:0.25;clip-path:url(#XMLID_2293_);}
	.st43{fill-rule:evenodd;clip-rule:evenodd;fill:#FFFFFF;stroke:#FFFFFF;stroke-miterlimit:10;}
	.st44{fill:#F79748;}
	.st45{fill:#FF7900;}
	.st46{fill:#DD7105;}
	.st47{fill:#02897C;}
	.st48{fill:#0EAD9A;}
	.st49{fill:#28C6AF;}
	.st50{fill:#4FE0C7;}
	.st51{fill:#D37D00;}
	.st52{fill:#D14600;}
	.st53{fill:#E5B92E;}
	.st54{fill:#DD571B;}
	.st55{fill:#E28A17;}
	.st56{opacity:0.25;clip-path:url(#XMLID_2294_);}
	.st57{opacity:0.77;fill:#FFFFFF;}
	.st58{fill:#50565B;stroke:#656C70;stroke-miterlimit:10;}
	.st59{fill:#808589;stroke:#656C70;stroke-miterlimit:10;}
	.st60{fill:#252728;stroke:#000000;stroke-miterlimit:10;}
	.st61{fill:#1A1B1C;stroke:#000000;stroke-miterlimit:10;}
	.st62{fill:#A0A6AA;}
	.st63{fill:#262C35;stroke:#161A1E;stroke-miterlimit:10;}
	.st64{fill:#181D23;}
	.st65{fill:#EABA96;stroke:#E0AA86;stroke-miterlimit:10;}
	.st66{fill:#E0AA86;}
	.st67{stroke:#000000;stroke-width:0.75;stroke-linecap:square;stroke-linejoin:bevel;stroke-miterlimit:10;}
	.st68{fill:#0F1C3F;stroke:#182951;stroke-miterlimit:10;}
	.st69{fill:#132354;stroke:#3F6093;stroke-miterlimit:10;}
	.st70{fill:#0F1C3F;}
	.st71{fill:none;stroke:#3F6093;stroke-width:0.75;stroke-miterlimit:10;}
	.st72{fill:#DBA682;}
	.st73{fill:none;stroke:#E0AA86;stroke-miterlimit:10;}
	.st74{fill:none;stroke:#E0AA86;stroke-linejoin:bevel;stroke-miterlimit:10;}
	.st75{fill:#8A0A8E;stroke:#AC34B2;stroke-miterlimit:10;}
	.st76{fill:#810C87;}
	.st77{fill:#680B6D;}
	.st78{fill:#AC34B2;stroke:#AC34B2;stroke-width:0.5;stroke-miterlimit:10;}
	.st79{fill:none;stroke:#959DA0;stroke-width:0.5;stroke-miterlimit:10;}
	.st80{fill:#959DA0;stroke:#959DA0;stroke-width:0.5;stroke-miterlimit:10;}
	.st81{fill:none;stroke:#AC34B2;stroke-miterlimit:10;}
	.st82{fill:#282828;stroke:#000000;stroke-miterlimit:10;}
	.st83{fill:#EABA96;stroke:#E0AA86;stroke-width:0.5;stroke-miterlimit:10;}
	.st84{fill:#B7896A;}
	.st85{stroke:#000000;stroke-miterlimit:10;}
	.st86{fill:#C1A578;}
	.st87{stroke:#000000;stroke-width:0.25;stroke-linecap:round;stroke-linejoin:round;stroke-miterlimit:10;}
	.st88{fill:#FFFFFF;stroke:#000000;stroke-width:0.25;stroke-linecap:round;stroke-linejoin:round;stroke-miterlimit:10;}
	.st89{fill:#70582D;}
	.st90{stroke:#000000;stroke-linecap:round;stroke-linejoin:round;stroke-miterlimit:10;}
	.st91{fill:none;stroke:#D8A27D;stroke-width:0.75;stroke-miterlimit:10;}
	.st92{fill:#561409;}
	.st93{fill:#BA2A13;}
	.st94{fill:#9E3025;stroke:#4C2311;stroke-width:0.25;stroke-miterlimit:10;}
	.st95{fill:#871D08;stroke:#4C2311;stroke-width:0.25;stroke-miterlimit:10;}
	.st96{fill:#DDAC8A;}
	.st97{fill:#A5ABAD;stroke:#959DA0;stroke-width:0.5;stroke-miterlimit:10;}
	.st98{fill:#B1BABC;}
	.st99{fill:#FCFCFC;}
	.st100{fill:none;stroke:#153847;stroke-width:5;stroke-miterlimit:10;}
	.st101{fill:#3CA7AF;}
	.st102{fill:#3DAD8D;}
	.st103{fill:#3DAA61;}
	.st104{fill:#67A53F;}
	.st105{fill:#95A340;}
	.st106{opacity:0.25;clip-path:url(#XMLID_2295_);}
	.st107{opacity:0.25;clip-path:url(#XMLID_2297_);}
	.st108{opacity:0.25;clip-path:url(#XMLID_2299_);}
	.st109{clip-path:url(#SVGID_2_);}
	.st110{fill:none;stroke:#3F6093;stroke-miterlimit:10;}
	.st111{fill:none;stroke:#3F6093;stroke-width:0.75;stroke-linecap:round;stroke-linejoin:round;}
	.st112{fill:none;stroke:#3F6093;stroke-width:0.75;stroke-linecap:round;stroke-linejoin:round;stroke-dasharray:0.9892,0.9892;}
	
		.st113{fill:none;stroke:#3F6093;stroke-width:0.75;stroke-linecap:round;stroke-linejoin:round;stroke-miterlimit:10;stroke-dasharray:1;}
	.st114{fill:#EAEAEA;stroke:#FFFFFF;stroke-width:0.25;stroke-miterlimit:10;}
	.st115{fill:#D8D8D8;}
	.st116{fill:#282828;stroke:#000000;stroke-width:0.75;stroke-miterlimit:10;}
	.st117{opacity:0.33;fill:#FFFFFF;}
	.st118{fill:none;stroke:#000000;stroke-width:1.5;stroke-linecap:round;stroke-linejoin:round;stroke-miterlimit:10;}
	.st119{opacity:0.64;}
	.st120{fill:#1D1D1B;}
	.st121{fill:#C9C9C9;}
</style>
<g>
	<rect id="XMLID_2273_" class="st18" width="233.611" height="600"/>
	<g id="XMLID_2271_">
		<path class="st6" d="M116.8332,474.8933c-43.4149,0-83.6689,13.5115-116.8057,36.5466V600h233.611v-88.5603
			C200.5017,488.4048,160.2478,474.8933,116.8332,474.8933z"/>
	</g>
	<g id="XMLID_2260_">
		<path id="XMLID_2270_" class="st14" d="M115.996,505.6129c4.5319,0,8.2252,3.718,8.2252,8.2747s-3.6932,8.2728-8.2252,8.2728
			c-4.5301,0-8.2272-3.7161-8.2272-8.2728S111.466,505.6129,115.996,505.6129"/>
		<path id="XMLID_2264_" class="st14" d="M86.0361,532.3165v0.0305l-0.04,0.3043c0,0.426,0.2416,0.7436,0.7265,0.9528
			c0.4887,0.2073,1.2418,0.3119,2.2612,0.3119c0.7759,0,1.3826-0.0875,1.8238-0.2568c0.4431-0.1711,0.6637-0.405,0.6637-0.7036
			c0-0.4526-0.8748-0.8159-2.615-1.1012c-0.2035-0.0323-0.3556-0.057-0.4545-0.0722c-0.1122-0.0209-0.2757-0.0476-0.4887-0.0818
			c-2.7652-0.4526-4.5453-0.9433-5.3307-1.472c-0.3823-0.2606-0.6752-0.5629-0.8729-0.9148
			c-0.1901-0.3518-0.289-0.7512-0.289-1.1886c0-1.0821,0.6352-1.9056,1.9056-2.4704c1.2704-0.5648,3.1303-0.8482,5.578-0.8482
			c2.4191,0,4.2105,0.2643,5.3763,0.793c1.1639,0.5325,1.7478,1.3503,1.7478,2.4476v0.1274h-4.5815v-0.0494
			c0-0.3804-0.2282-0.6637-0.6922-0.8577c-0.464-0.1959-1.1449-0.2947-2.0387-0.2947c-0.6942,0-1.2305,0.0685-1.6032,0.2073
			c-0.3785,0.1389-0.5667,0.3385-0.5667,0.5934c0,0.4583,0.9985,0.8463,2.9953,1.1696c0.3841,0.057,0.6865,0.1046,0.9052,0.1388
			c1.4226,0.2377,2.4362,0.4431,3.0391,0.6143c0.6028,0.1693,1.122,0.3727,1.5613,0.6048c0.485,0.2662,0.8672,0.6047,1.1296,1.0117
			c0.2644,0.407,0.3975,0.8521,0.3975,1.3389c0,1.1144-0.6941,1.9703-2.0768,2.5712c-1.3845,0.601-3.3794,0.9014-5.9773,0.9014
			c-2.5693,0-4.4293-0.2891-5.5799-0.8653c-1.1505-0.5801-1.7192-1.5043-1.7192-2.7804v-0.1617H86.0361z M98.584,535.9394v-10.9676
			h13.0577v2.3639h-8.1548v1.7477h7.5406v2.3335h-7.5406v2.1281h8.4648v2.3943H98.584z M113.998,535.9394v-10.9676h6.2055
			l6.641,7.358v-7.358h4.7108v10.9676h-6.4356l-6.4261-7.3846v7.3846H113.998z M144.2231,531.5653l-2.3468-3.9862l-2.4799,3.9862
			H144.2231z M136.7529,535.9394h-4.9162l7.59-10.9676h5.4391l7.2401,10.9676h-5.46l-1.105-1.9797h-7.6071L136.7529,535.9394z"/>
		<path id="XMLID_2263_" class="st14" d="M92.0644,574.604l-4.3798-4.1174l13.3334-23.1409
			c0.7265-1.2628-0.1825-2.8394-1.6393-2.8394H77.5499v-5.789h35.1336L92.0644,574.604z"/>
		<path id="XMLID_2262_" class="st14" d="M139.5464,574.604l4.3798-4.1174l-13.3334-23.1409
			c-0.7265-1.2628,0.1825-2.8394,1.6393-2.8394h21.8287v-5.789h-35.1336L139.5464,574.604z"/>
		<path id="XMLID_2261_" class="st14" d="M115.7576,544.8356l0.0475-0.0818l19.7976,32.724l-5.2565,2.7348l-12.7572-21.3647
			c-0.7512-1.259-2.575-1.2609-3.3224,0c-4.2524,7.1678-12.6735,21.3647-12.6735,21.3647l-5.1462-2.5446
			C96.4468,577.668,114.7001,546.6346,115.7576,544.8356"/>
	</g>
	<path id="XMLID_2257_" class="st8" d="M118.9272,474.4888C72.3422,472.392,10.3859,495.3143,1.1667,498.8386
		c-0.5971,0.2283-1.0078,0.746-1.1392,1.3553v11.8296c0-0.6182,0.3032-1.1996,0.8125-1.55
		c32.9813-22.6928,72.9325-35.9847,115.9932-35.9847c0.8497,0,1.6959,0.0144,2.543,0.0247
		C119.2249,474.5057,119.0817,474.4957,118.9272,474.4888z"/>
	<path id="XMLID_2254_" class="st8" d="M114.4469,474.4888c46.5851-2.0968,108.5414,20.8256,117.7606,24.3499
		c0.5971,0.2283,1.0078,0.746,1.1392,1.3553v11.8296c0-0.6182-0.3032-1.1996-0.8125-1.55
		c-32.9813-22.6928-72.9325-35.9847-115.9932-35.9847c-0.8497,0-1.6959,0.0144-2.543,0.0247
		C114.1493,474.5057,114.2925,474.4957,114.4469,474.4888z"/>
</g>
</svg>
