<?xml version="1.0" encoding="utf-8"?>
<!-- Generator: Adobe Illustrator 21.0.2, SVG Export Plug-In . SVG Version: 6.00 Build 0)  -->
<svg version="1.1" id="Capa_1" xmlns="http://www.w3.org/2000/svg" xmlns:xlink="http://www.w3.org/1999/xlink" x="0px" y="0px"
	 viewBox="0 0 220 50.576" style="enable-background:new 0 0 220 50.576;" xml:space="preserve">
<style type="text/css">
	.st0{fill-rule:evenodd;clip-rule:evenodd;fill:#DDDDDD;}
	.st1{fill:#3B86B1;}
	.st2{opacity:0.25;fill-rule:evenodd;clip-rule:evenodd;fill:#020202;}
	.st3{fill:#FFFFFF;}
	.st4{opacity:0.5;}
	.st5{fill-rule:evenodd;clip-rule:evenodd;fill:#A8A8A8;}
	.st6{fill-rule:evenodd;clip-rule:evenodd;fill:#FFFFFF;}
	.st7{fill-rule:evenodd;clip-rule:evenodd;fill:#3B86B1;}
	.st8{opacity:0.5;fill:#2C6882;}
	.st9{opacity:0.75;fill-rule:evenodd;clip-rule:evenodd;fill:#282828;}
	.st10{opacity:0.5;fill:#FFFFFF;}
	.st11{fill-rule:evenodd;clip-rule:evenodd;fill:none;stroke:#FFFFFF;stroke-miterlimit:10;}
	.st12{fill:none;stroke:#FFFFFF;stroke-miterlimit:10;}
	.st13{fill:#FFFFFF;stroke:#3B86B1;stroke-width:1.7139;stroke-miterlimit:10;}
	.st14{fill-rule:evenodd;clip-rule:evenodd;}
	.st15{opacity:0.85;fill:#FFFFFF;}
	.st16{opacity:0.5;fill-rule:evenodd;clip-rule:evenodd;}
	.st17{fill-rule:evenodd;clip-rule:evenodd;fill:#FEFEFE;}
	.st18{fill:#312767;}
	.st19{opacity:0.48;}
	.st20{opacity:0.25;}
	.st21{fill-rule:evenodd;clip-rule:evenodd;fill:#020202;}
	.st22{opacity:0.25;clip-path:url(#XMLID_1539_);}
	.st23{fill:#FFFFFF;stroke:#312767;stroke-miterlimit:10;}
	.st24{fill:#ACABC9;}
	.st25{fill-rule:evenodd;clip-rule:evenodd;fill:#312767;}
	.st26{opacity:0.77;fill:#312767;}
	.st27{opacity:0.25;clip-path:url(#XMLID_1547_);}
	.st28{fill:#54518C;}
	.st29{fill:#FFFFFF;stroke:#FFFFFF;stroke-miterlimit:10;}
	.st30{opacity:0.25;fill-rule:evenodd;clip-rule:evenodd;fill:#FFFFFF;}
	.st31{fill:#D4A800;}
	.st32{fill:#00AEB3;}
	.st33{fill:#38353B;}
	.st34{fill:#FF8400;}
	.st35{fill:#BF3900;}
	.st36{fill:#00AA9C;}
	.st37{opacity:0.25;clip-path:url(#XMLID_1553_);}
	.st38{fill:none;stroke:#ACABC9;stroke-width:5;stroke-miterlimit:10;}
	.st39{opacity:0.25;clip-path:url(#XMLID_1576_);}
	.st40{fill:#DDDDDD;}
	.st41{opacity:0.25;clip-path:url(#XMLID_1593_);}
	.st42{fill-rule:evenodd;clip-rule:evenodd;fill:#FFFFFF;stroke:#FFFFFF;stroke-miterlimit:10;}
	.st43{fill:#F79748;}
	.st44{fill:#FF7900;}
	.st45{fill:#DD7105;}
	.st46{fill:#02897C;}
	.st47{fill:#0EAD9A;}
	.st48{fill:#28C6AF;}
	.st49{fill:#4FE0C7;}
	.st50{fill:#D37D00;}
	.st51{fill:#D14600;}
	.st52{fill:#E5B92E;}
	.st53{fill:#DD571B;}
	.st54{fill:#E28A17;}
	.st55{opacity:0.25;clip-path:url(#XMLID_1594_);}
	.st56{opacity:0.77;fill:#FFFFFF;}
	.st57{fill:#50565B;stroke:#656C70;stroke-miterlimit:10;}
	.st58{fill:#808589;stroke:#656C70;stroke-miterlimit:10;}
	.st59{fill:#252728;stroke:#000000;stroke-miterlimit:10;}
	.st60{fill:#1A1B1C;stroke:#000000;stroke-miterlimit:10;}
	.st61{fill:#A0A6AA;}
	.st62{fill:#262C35;stroke:#161A1E;stroke-miterlimit:10;}
	.st63{fill:#181D23;}
	.st64{fill:#EABA96;stroke:#E0AA86;stroke-miterlimit:10;}
	.st65{fill:#E0AA86;}
	.st66{stroke:#000000;stroke-width:0.75;stroke-linecap:square;stroke-linejoin:bevel;stroke-miterlimit:10;}
	.st67{fill:#0F1C3F;stroke:#182951;stroke-miterlimit:10;}
	.st68{fill:#132354;stroke:#3F6093;stroke-miterlimit:10;}
	.st69{fill:#0F1C3F;}
	.st70{fill:none;stroke:#3F6093;stroke-width:0.75;stroke-miterlimit:10;}
	.st71{fill:#DBA682;}
	.st72{fill:none;stroke:#E0AA86;stroke-miterlimit:10;}
	.st73{fill:none;stroke:#E0AA86;stroke-linejoin:bevel;stroke-miterlimit:10;}
	.st74{fill:#8A0A8E;stroke:#AC34B2;stroke-miterlimit:10;}
	.st75{fill:#810C87;}
	.st76{fill:#680B6D;}
	.st77{fill:#AC34B2;stroke:#AC34B2;stroke-width:0.5;stroke-miterlimit:10;}
	.st78{fill:none;stroke:#959DA0;stroke-width:0.5;stroke-miterlimit:10;}
	.st79{fill:#959DA0;stroke:#959DA0;stroke-width:0.5;stroke-miterlimit:10;}
	.st80{fill:none;stroke:#AC34B2;stroke-miterlimit:10;}
	.st81{fill:#282828;stroke:#000000;stroke-miterlimit:10;}
	.st82{fill:#EABA96;stroke:#E0AA86;stroke-width:0.5;stroke-miterlimit:10;}
	.st83{fill:#B7896A;}
	.st84{stroke:#000000;stroke-miterlimit:10;}
	.st85{fill:#C1A578;}
	.st86{stroke:#000000;stroke-width:0.25;stroke-linecap:round;stroke-linejoin:round;stroke-miterlimit:10;}
	.st87{fill:#FFFFFF;stroke:#000000;stroke-width:0.25;stroke-linecap:round;stroke-linejoin:round;stroke-miterlimit:10;}
	.st88{fill:#70582D;}
	.st89{stroke:#000000;stroke-linecap:round;stroke-linejoin:round;stroke-miterlimit:10;}
	.st90{fill:none;stroke:#D8A27D;stroke-width:0.75;stroke-miterlimit:10;}
	.st91{fill:#561409;}
	.st92{fill:#BA2A13;}
	.st93{fill:#9E3025;stroke:#4C2311;stroke-width:0.25;stroke-miterlimit:10;}
	.st94{fill:#871D08;stroke:#4C2311;stroke-width:0.25;stroke-miterlimit:10;}
	.st95{fill:#DDAC8A;}
	.st96{fill:#A5ABAD;stroke:#959DA0;stroke-width:0.5;stroke-miterlimit:10;}
	.st97{fill:#B1BABC;}
	.st98{fill:#FCFCFC;}
	.st99{fill:none;stroke:#153847;stroke-width:5;stroke-miterlimit:10;}
	.st100{fill:#3CA7AF;}
	.st101{fill:#3DAD8D;}
	.st102{fill:#3DAA61;}
	.st103{fill:#67A53F;}
	.st104{fill:#95A340;}
	.st105{opacity:0.25;clip-path:url(#XMLID_1623_);}
	.st106{opacity:0.25;clip-path:url(#XMLID_1631_);}
	.st107{opacity:0.25;clip-path:url(#XMLID_1633_);}
	.st108{clip-path:url(#SVGID_2_);}
	.st109{fill:none;stroke:#3F6093;stroke-miterlimit:10;}
	.st110{fill:none;stroke:#3F6093;stroke-width:0.75;stroke-linecap:round;stroke-linejoin:round;}
	.st111{fill:none;stroke:#3F6093;stroke-width:0.75;stroke-linecap:round;stroke-linejoin:round;stroke-dasharray:0.9892,0.9892;}
	
		.st112{fill:none;stroke:#3F6093;stroke-width:0.75;stroke-linecap:round;stroke-linejoin:round;stroke-miterlimit:10;stroke-dasharray:1;}
	.st113{fill:#EAEAEA;stroke:#FFFFFF;stroke-width:0.25;stroke-miterlimit:10;}
	.st114{fill:#D8D8D8;}
	.st115{fill:#282828;stroke:#000000;stroke-width:0.75;stroke-miterlimit:10;}
	.st116{opacity:0.33;fill:#FFFFFF;}
	.st117{fill:none;stroke:#000000;stroke-width:1.5;stroke-linecap:round;stroke-linejoin:round;stroke-miterlimit:10;}
	.st118{opacity:0.64;}
	.st119{fill:#1D1D1B;}
	.st120{fill:#C9C9C9;}
</style>
<g>
	<g id="XMLID_873_">
		<polygon id="XMLID_874_" class="st18" points="198.1899,0.0001 220,25.2881 198.1899,50.576 178.3365,50.576 200.1466,25.2881 
			178.3365,0.0001 198.1899,0.0001 		"/>
	</g>
	<g id="XMLID_857_">
		<polygon id="XMLID_861_" class="st18" points="21.8101,50.5759 0,25.2879 21.8101,0 41.6635,0 19.8534,25.2879 41.6635,50.5759 
			21.8101,50.5759 		"/>
	</g>
	<polygon id="XMLID_854_" class="st18" points="47.671,0 172.329,0.0001 194.1391,25.2881 172.329,50.576 47.671,50.5759 
		25.8609,25.2879 	"/>
	<g>
		<g>
			<path class="st3" d="M48.9386,32.1647V17.1154h3.0381v15.0493H48.9386z"/>
			<path class="st3" d="M64.7677,32.1647H61.883v-5.564c0-1.1768-0.0615-1.9385-0.1846-2.2842
				c-0.123-0.3452-0.3232-0.6138-0.6006-0.8057c-0.2773-0.1914-0.6113-0.2876-1.001-0.2876c-0.5,0-0.9482,0.1372-1.3447,0.4106
				c-0.3975,0.2739-0.6689,0.6367-0.8164,1.0884s-0.2207,1.2866-0.2207,2.5049v4.9375h-2.8848V21.2628h2.6797v1.6016
				c0.9512-1.2319,2.1484-1.8481,3.5928-1.8481c0.6367,0,1.2178,0.1147,1.7451,0.3442c0.5273,0.229,0.9258,0.5215,1.1963,0.8774
				c0.2695,0.356,0.458,0.7598,0.5645,1.2114c0.1055,0.4517,0.1592,1.0981,0.1592,1.9399V32.1647z"/>
			<path class="st3" d="M72.6935,21.2628v2.2993h-1.9717v4.3936c0,0.8896,0.0186,1.4082,0.0566,1.5552
				c0.0371,0.1475,0.123,0.269,0.2568,0.3647s0.2959,0.1436,0.4873,0.1436c0.2666,0,0.6533-0.0923,1.1602-0.2773l0.2461,2.2383
				c-0.6709,0.2871-1.4297,0.4312-2.2783,0.4312c-0.5205,0-0.9893-0.0874-1.4063-0.2622c-0.418-0.1743-0.7246-0.3999-0.9189-0.6772
				c-0.1953-0.2773-0.3301-0.6519-0.4053-1.124c-0.0625-0.3354-0.0928-1.0127-0.0928-2.0327v-4.7529h-1.3242v-2.2993h1.3242v-2.166
				l2.8945-1.6836v3.8496H72.6935z"/>
			<path class="st3" d="M77.4562,32.1647h-2.8848V21.2628h2.6797v1.5498c0.458-0.7319,0.8701-1.2144,1.2363-1.4473
				c0.3662-0.2324,0.7822-0.3491,1.248-0.3491c0.6563,0,1.2891,0.1816,1.8984,0.5439l-0.8926,2.5151
				c-0.4863-0.3145-0.9375-0.4722-1.3555-0.4722c-0.4033,0-0.7461,0.1113-1.0264,0.3335c-0.2803,0.2227-0.501,0.625-0.6621,1.2065
				s-0.2412,1.7998-0.2412,3.6543V32.1647z"/>
			<path class="st3" d="M82.2091,26.5597c0-0.958,0.2363-1.8853,0.708-2.7817c0.4727-0.8965,1.1416-1.5811,2.0068-2.0532
				c0.8662-0.4722,1.833-0.7085,2.9004-0.7085c1.6494,0,3.001,0.5356,4.0547,1.6064c1.0537,1.0713,1.5811,2.4248,1.5811,4.0601
				c0,1.6494-0.5322,3.0166-1.5967,4.1011c-1.0635,1.085-2.4033,1.6274-4.0186,1.6274c-0.999,0-1.9521-0.2261-2.8594-0.6777
				c-0.9063-0.4517-1.5957-1.1138-2.0684-1.9863C82.4455,28.8746,82.2091,27.8121,82.2091,26.5597z M85.1652,26.7135
				c0,1.0815,0.2568,1.9097,0.7705,2.4844c0.5127,0.5747,1.1455,0.8623,1.8984,0.8623s1.3848-0.2876,1.8945-0.8623
				s0.7646-1.4097,0.7646-2.5049c0-1.0674-0.2549-1.8887-0.7646-2.4634c-0.5098-0.5752-1.1416-0.8623-1.8945-0.8623
				s-1.3857,0.2871-1.8984,0.8623C85.422,24.8043,85.1652,25.6325,85.1652,26.7135z"/>
			<path class="st3" d="M105.7169,32.1647h-2.6797v-1.6016c-0.4443,0.623-0.9697,1.0869-1.5752,1.3911
				c-0.6064,0.3042-1.2168,0.457-1.833,0.457c-1.252,0-2.3252-0.5049-3.2178-1.5142c-0.8936-1.0098-1.3398-2.418-1.3398-4.2246
				c0-1.8477,0.4346-3.2524,1.3037-4.2139s1.9678-1.4424,3.2949-1.4424c1.2188,0,2.2725,0.5068,3.1621,1.5195v-5.4204h2.8848
				V32.1647z M98.0177,26.4777c0,1.1636,0.1602,2.0054,0.4824,2.5254c0.4648,0.7529,1.1152,1.1289,1.9502,1.1289
				c0.6641,0,1.2285-0.2822,1.6943-0.8467c0.4648-0.5645,0.6973-1.4082,0.6973-2.5308c0-1.252-0.2256-2.1538-0.6768-2.7046
				c-0.4521-0.5508-1.0303-0.8267-1.7354-0.8267c-0.6846,0-1.2578,0.272-1.7197,0.8164
				C98.2482,24.5836,98.0177,25.3961,98.0177,26.4777z"/>
			<path class="st3" d="M115.7355,32.1647v-1.6323c-0.3965,0.582-0.9189,1.0405-1.5654,1.3755
				c-0.6465,0.3354-1.3291,0.5034-2.0479,0.5034c-0.7324,0-1.3896-0.1611-1.9707-0.4829c-0.582-0.3213-1.0029-0.7729-1.2627-1.355
				c-0.2607-0.5815-0.3906-1.3857-0.3906-2.4121v-6.8984h2.8848v5.0093c0,1.5332,0.0527,2.4727,0.1592,2.8179
				c0.1064,0.3457,0.2988,0.6196,0.5801,0.8213c0.2803,0.2021,0.6367,0.3027,1.0674,0.3027c0.4932,0,0.9346-0.1348,1.3242-0.4053
				c0.3906-0.27,0.6572-0.6055,0.8008-1.0059s0.2158-1.3809,0.2158-2.9414v-4.5986h2.8848v10.9019H115.7355z"/>
			<path class="st3" d="M130.9083,24.486l-2.8438,0.5132c-0.0957-0.5679-0.3125-0.9956-0.6514-1.2832
				c-0.3389-0.2871-0.7783-0.4312-1.3193-0.4312c-0.7188,0-1.292,0.2485-1.7197,0.7446s-0.6416,1.3257-0.6416,2.4893
				c0,1.2935,0.2178,2.207,0.6523,2.7407c0.4346,0.5342,1.0176,0.8008,1.75,0.8008c0.5479,0,0.9961-0.1558,1.3447-0.4668
				c0.3496-0.3115,0.5957-0.8472,0.7393-1.6069l2.833,0.4824c-0.2939,1.3008-0.8584,2.2827-1.6934,2.9463
				c-0.835,0.6641-1.9541,0.9961-3.3564,0.9961c-1.5947,0-2.8662-0.5034-3.8145-1.5093c-0.9473-1.0059-1.4209-2.3984-1.4209-4.1782
				c0-1.7998,0.4756-3.2007,1.4268-4.2036c0.9512-1.0024,2.2373-1.5039,3.8594-1.5039c1.3281,0,2.3838,0.2861,3.167,0.8574
				S130.5665,23.316,130.9083,24.486z"/>
			<path class="st3" d="M142.6007,24.486l-2.8438,0.5132c-0.0957-0.5679-0.3125-0.9956-0.6514-1.2832
				c-0.3389-0.2871-0.7783-0.4312-1.3193-0.4312c-0.7188,0-1.292,0.2485-1.7197,0.7446s-0.6416,1.3257-0.6416,2.4893
				c0,1.2935,0.2178,2.207,0.6523,2.7407c0.4346,0.5342,1.0176,0.8008,1.75,0.8008c0.5479,0,0.9961-0.1558,1.3447-0.4668
				c0.3496-0.3115,0.5957-0.8472,0.7393-1.6069l2.833,0.4824c-0.2939,1.3008-0.8584,2.2827-1.6934,2.9463
				c-0.835,0.6641-1.9541,0.9961-3.3564,0.9961c-1.5947,0-2.8662-0.5034-3.8145-1.5093c-0.9473-1.0059-1.4209-2.3984-1.4209-4.1782
				c0-1.7998,0.4756-3.2007,1.4268-4.2036c0.9512-1.0024,2.2373-1.5039,3.8594-1.5039c1.3281,0,2.3838,0.2861,3.167,0.8574
				S142.2589,23.316,142.6007,24.486z"/>
			<path class="st3" d="M144.7872,19.7843v-2.6689h2.8848v2.6689H144.7872z M144.7872,32.1647V21.2628h2.8848v10.9019H144.7872z"/>
			<path class="st3" d="M149.9611,26.5597c0-0.958,0.2363-1.8853,0.708-2.7817c0.4727-0.8965,1.1416-1.5811,2.0068-2.0532
				c0.8662-0.4722,1.833-0.7085,2.9004-0.7085c1.6494,0,3.001,0.5356,4.0547,1.6064c1.0537,1.0713,1.5811,2.4248,1.5811,4.0601
				c0,1.6494-0.5322,3.0166-1.5967,4.1011c-1.0635,1.085-2.4033,1.6274-4.0186,1.6274c-0.999,0-1.9521-0.2261-2.8594-0.6777
				c-0.9063-0.4517-1.5957-1.1138-2.0684-1.9863C150.1974,28.8746,149.9611,27.8121,149.9611,26.5597z M152.9171,26.7135
				c0,1.0815,0.2568,1.9097,0.7705,2.4844c0.5127,0.5747,1.1455,0.8623,1.8984,0.8623s1.3848-0.2876,1.8945-0.8623
				s0.7646-1.4097,0.7646-2.5049c0-1.0674-0.2549-1.8887-0.7646-2.4634c-0.5098-0.5752-1.1416-0.8623-1.8945-0.8623
				s-1.3857,0.2871-1.8984,0.8623C153.174,24.8043,152.9171,25.6325,152.9171,26.7135z M154.129,19.9284l1.416-3.0693h3.2344
				l-2.8232,3.0693H154.129z"/>
			<path class="st3" d="M173.3869,32.1647h-2.8848v-5.564c0-1.1768-0.0615-1.9385-0.1846-2.2842
				c-0.123-0.3452-0.3232-0.6138-0.6006-0.8057c-0.2773-0.1914-0.6113-0.2876-1.001-0.2876c-0.5,0-0.9482,0.1372-1.3447,0.4106
				c-0.3975,0.2739-0.6689,0.6367-0.8164,1.0884s-0.2207,1.2866-0.2207,2.5049v4.9375h-2.8848V21.2628h2.6797v1.6016
				c0.9512-1.2319,2.1484-1.8481,3.5928-1.8481c0.6367,0,1.2178,0.1147,1.7451,0.3442c0.5273,0.229,0.9258,0.5215,1.1963,0.8774
				c0.2695,0.356,0.458,0.7598,0.5645,1.2114c0.1055,0.4517,0.1592,1.0981,0.1592,1.9399V32.1647z"/>
		</g>
	</g>
</g>
</svg>
