<?xml version="1.0" encoding="utf-8"?>
<!-- Generator: Adobe Illustrator 21.0.2, SVG Export Plug-In . SVG Version: 6.00 Build 0)  -->
<svg version="1.1" id="Capa_1" xmlns="http://www.w3.org/2000/svg" xmlns:xlink="http://www.w3.org/1999/xlink" x="0px" y="0px"
	 viewBox="0 0 202.4841 33.6754" style="enable-background:new 0 0 202.4841 33.6754;" xml:space="preserve">
<style type="text/css">
	.st0{fill-rule:evenodd;clip-rule:evenodd;fill:#DDDDDD;}
	.st1{fill:#3B86B1;}
	.st2{opacity:0.25;fill-rule:evenodd;clip-rule:evenodd;fill:#020202;}
	.st3{fill:#FFFFFF;}
	.st4{opacity:0.5;}
	.st5{fill-rule:evenodd;clip-rule:evenodd;fill:#A8A8A8;}
	.st6{fill-rule:evenodd;clip-rule:evenodd;fill:#FFFFFF;}
	.st7{fill-rule:evenodd;clip-rule:evenodd;fill:#3B86B1;}
	.st8{opacity:0.5;fill:#2C6882;}
	.st9{opacity:0.75;fill-rule:evenodd;clip-rule:evenodd;fill:#282828;}
	.st10{opacity:0.5;fill:#FFFFFF;}
	.st11{fill-rule:evenodd;clip-rule:evenodd;fill:none;stroke:#FFFFFF;stroke-miterlimit:10;}
	.st12{fill:none;stroke:#FFFFFF;stroke-miterlimit:10;}
	.st13{fill:#FFFFFF;stroke:#3B86B1;stroke-width:1.7139;stroke-miterlimit:10;}
	.st14{fill-rule:evenodd;clip-rule:evenodd;}
	.st15{opacity:0.85;fill:#FFFFFF;}
	.st16{opacity:0.5;fill-rule:evenodd;clip-rule:evenodd;}
	.st17{fill-rule:evenodd;clip-rule:evenodd;fill:#FEFEFE;}
	.st18{fill:#312767;}
	.st19{opacity:0.48;}
	.st20{opacity:0.25;}
	.st21{fill-rule:evenodd;clip-rule:evenodd;fill:#020202;}
	.st22{fill:#757575;}
	.st23{opacity:0.25;clip-path:url(#XMLID_2396_);}
	.st24{fill:#4D4789;}
	.st25{fill:#FFFFFF;stroke:#312767;stroke-miterlimit:10;}
	.st26{fill:#3B86B1;stroke:#3B86B1;stroke-miterlimit:10;}
	.st27{fill:#FFFFFF;stroke:#FFFFFF;stroke-miterlimit:10;}
	.st28{fill:#ACABC9;}
	.st29{fill-rule:evenodd;clip-rule:evenodd;fill:#312767;}
	.st30{opacity:0.77;fill:#312767;}
	.st31{opacity:0.25;clip-path:url(#XMLID_2397_);}
	.st32{fill:#9490B2;stroke:#2D2D2D;stroke-width:0.25;stroke-miterlimit:10;}
	.st33{fill:#312767;stroke:#2D2D2D;stroke-width:0.25;stroke-miterlimit:10;}
	.st34{fill:#FCFCFC;}
	.st35{fill:#FFFFFF;stroke:#2D2D2D;stroke-width:0.25;stroke-miterlimit:10;}
	.st36{fill-rule:evenodd;clip-rule:evenodd;fill:#484849;stroke:#2D2D2D;stroke-width:0.25;stroke-miterlimit:10;}
	.st37{fill-rule:evenodd;clip-rule:evenodd;fill:#312767;stroke:#2D2D2D;stroke-width:0.25;stroke-miterlimit:10;}
	.st38{fill-rule:evenodd;clip-rule:evenodd;fill:#FFFFFF;stroke:#2D2D2D;stroke-width:0.25;stroke-miterlimit:10;}
	.st39{fill:#484849;stroke:#2D2D2D;stroke-width:0.25;stroke-miterlimit:10;}
	.st40{fill:#54518C;}
	.st41{opacity:0.25;fill-rule:evenodd;clip-rule:evenodd;fill:#FFFFFF;}
	.st42{fill:#D4A800;}
	.st43{fill:#00AEB3;}
	.st44{fill:#38353B;}
	.st45{fill:#FF8400;}
	.st46{fill:#BF3900;}
	.st47{fill:#00AA9C;}
	.st48{opacity:0.25;clip-path:url(#XMLID_2400_);}
	.st49{fill:none;stroke:#ACABC9;stroke-width:5;stroke-miterlimit:10;}
	.st50{opacity:0.25;clip-path:url(#XMLID_2403_);}
	.st51{fill:#DDDDDD;}
	.st52{opacity:0.25;fill-rule:evenodd;clip-rule:evenodd;fill:#FFFFFF;stroke:#303030;stroke-width:0.5;stroke-miterlimit:10;}
	.st53{fill:#3B86B1;stroke:#303030;stroke-width:0.5;stroke-miterlimit:10;}
	.st54{fill:#D4A800;stroke:#303030;stroke-width:0.5;stroke-miterlimit:10;}
	.st55{fill:#00AEB3;stroke:#303030;stroke-width:0.5;stroke-miterlimit:10;}
	.st56{fill:#FF8400;stroke:#303030;stroke-width:0.5;stroke-miterlimit:10;}
	.st57{fill:#BF3900;stroke:#303030;stroke-width:0.5;stroke-miterlimit:10;}
	.st58{fill:#00AA9C;stroke:#303030;stroke-width:0.5;stroke-miterlimit:10;}
	.st59{opacity:0.25;clip-path:url(#XMLID_2404_);}
	.st60{fill-rule:evenodd;clip-rule:evenodd;fill:#FFFFFF;stroke:#FFFFFF;stroke-miterlimit:10;}
	.st61{fill:#F79748;}
	.st62{fill:#FF7900;}
	.st63{fill:#DD7105;}
	.st64{fill:#02897C;}
	.st65{fill:#0EAD9A;}
	.st66{fill:#28C6AF;}
	.st67{fill:#4FE0C7;}
	.st68{fill:#00AA9C;stroke:#353535;stroke-width:0.5;stroke-miterlimit:10;}
	.st69{fill:#02897C;stroke:#353535;stroke-width:0.5;stroke-miterlimit:10;}
	.st70{fill:#0EAD9A;stroke:#353535;stroke-width:0.5;stroke-miterlimit:10;}
	.st71{fill:#28C6AF;stroke:#353535;stroke-width:0.5;stroke-miterlimit:10;}
	.st72{fill:#4FE0C7;stroke:#353535;stroke-width:0.5;stroke-miterlimit:10;}
	.st73{fill:#D37D00;}
	.st74{fill:#D14600;}
	.st75{fill:#E5B92E;}
	.st76{fill:#DD571B;}
	.st77{fill:#E28A17;}
	.st78{opacity:0.25;clip-path:url(#XMLID_2410_);}
	.st79{opacity:0.77;fill:#FFFFFF;}
	.st80{fill:#50565B;stroke:#656C70;stroke-miterlimit:10;}
	.st81{fill:#808589;stroke:#656C70;stroke-miterlimit:10;}
	.st82{fill:#252728;stroke:#000000;stroke-miterlimit:10;}
	.st83{fill:#1A1B1C;stroke:#000000;stroke-miterlimit:10;}
	.st84{fill:#A0A6AA;}
	.st85{fill:#262C35;stroke:#161A1E;stroke-miterlimit:10;}
	.st86{fill:#181D23;}
	.st87{fill:#EABA96;stroke:#E0AA86;stroke-miterlimit:10;}
	.st88{fill:#E0AA86;}
	.st89{stroke:#000000;stroke-width:0.75;stroke-linecap:square;stroke-linejoin:bevel;stroke-miterlimit:10;}
	.st90{fill:#0F1C3F;stroke:#182951;stroke-miterlimit:10;}
	.st91{fill:#132354;stroke:#3F6093;stroke-miterlimit:10;}
	.st92{fill:#0F1C3F;}
	.st93{fill:none;stroke:#3F6093;stroke-width:0.75;stroke-miterlimit:10;}
	.st94{fill:#DBA682;}
	.st95{fill:none;stroke:#E0AA86;stroke-miterlimit:10;}
	.st96{fill:none;stroke:#E0AA86;stroke-linejoin:bevel;stroke-miterlimit:10;}
	.st97{fill:#8A0A8E;stroke:#AC34B2;stroke-miterlimit:10;}
	.st98{fill:#810C87;}
	.st99{fill:#680B6D;}
	.st100{fill:#AC34B2;stroke:#AC34B2;stroke-width:0.5;stroke-miterlimit:10;}
	.st101{fill:none;stroke:#959DA0;stroke-width:0.5;stroke-miterlimit:10;}
	.st102{fill:#959DA0;stroke:#959DA0;stroke-width:0.5;stroke-miterlimit:10;}
	.st103{fill:none;stroke:#AC34B2;stroke-miterlimit:10;}
	.st104{fill:#282828;stroke:#000000;stroke-miterlimit:10;}
	.st105{fill:#EABA96;stroke:#E0AA86;stroke-width:0.5;stroke-miterlimit:10;}
	.st106{fill:#B7896A;}
	.st107{stroke:#000000;stroke-miterlimit:10;}
	.st108{fill:#C1A578;}
	.st109{stroke:#000000;stroke-width:0.25;stroke-linecap:round;stroke-linejoin:round;stroke-miterlimit:10;}
	.st110{fill:#FFFFFF;stroke:#000000;stroke-width:0.25;stroke-linecap:round;stroke-linejoin:round;stroke-miterlimit:10;}
	.st111{fill:#70582D;}
	.st112{stroke:#000000;stroke-linecap:round;stroke-linejoin:round;stroke-miterlimit:10;}
	.st113{fill:none;stroke:#D8A27D;stroke-width:0.75;stroke-miterlimit:10;}
	.st114{fill:#561409;}
	.st115{fill:#BA2A13;}
	.st116{fill:#9E3025;stroke:#4C2311;stroke-width:0.25;stroke-miterlimit:10;}
	.st117{fill:#871D08;stroke:#4C2311;stroke-width:0.25;stroke-miterlimit:10;}
	.st118{fill:#DDAC8A;}
	.st119{fill:#A5ABAD;stroke:#959DA0;stroke-width:0.5;stroke-miterlimit:10;}
	.st120{fill:#B1BABC;}
	.st121{fill:none;stroke:#153847;stroke-width:5;stroke-miterlimit:10;}
	.st122{fill:#3CA7AF;}
	.st123{fill:#3DAD8D;}
	.st124{fill:#3DAA61;}
	.st125{fill:#67A53F;}
	.st126{fill:#95A340;}
	.st127{opacity:0.25;clip-path:url(#XMLID_2411_);}
	.st128{opacity:0.25;clip-path:url(#XMLID_2416_);}
	.st129{fill:#F79748;stroke:#303030;stroke-width:0.5;stroke-miterlimit:10;}
	.st130{fill:#FF7900;stroke:#303030;stroke-width:0.5;stroke-miterlimit:10;}
	.st131{fill:#DD7105;stroke:#303030;stroke-width:0.5;stroke-miterlimit:10;}
	.st132{opacity:0.25;clip-path:url(#XMLID_2422_);}
	.st133{clip-path:url(#SVGID_2_);}
	.st134{fill:none;stroke:#3F6093;stroke-miterlimit:10;}
	.st135{fill:none;stroke:#3F6093;stroke-width:0.75;stroke-linecap:round;stroke-linejoin:round;}
	.st136{fill:none;stroke:#3F6093;stroke-width:0.75;stroke-linecap:round;stroke-linejoin:round;stroke-dasharray:0.9892,0.9892;}
	
		.st137{fill:none;stroke:#3F6093;stroke-width:0.75;stroke-linecap:round;stroke-linejoin:round;stroke-miterlimit:10;stroke-dasharray:1;}
	.st138{fill:#EAEAEA;stroke:#FFFFFF;stroke-width:0.25;stroke-miterlimit:10;}
	.st139{fill:#D8D8D8;}
	.st140{fill:#282828;stroke:#000000;stroke-width:0.75;stroke-miterlimit:10;}
	.st141{opacity:0.33;fill:#FFFFFF;}
	.st142{fill:none;stroke:#000000;stroke-width:1.5;stroke-linecap:round;stroke-linejoin:round;stroke-miterlimit:10;}
	.st143{clip-path:url(#SVGID_4_);}
	.st144{opacity:0.64;}
	.st145{fill:#1D1D1B;}
	.st146{fill:#C9C9C9;}
	.st147{fill:#545477;}
</style>
<g>
	<g id="XMLID_2350_">
		<polygon id="XMLID_2354_" class="st40" points="187.9621,0.0001 202.4841,16.8377 187.9621,33.6754 174.743,33.6754 
			189.265,16.8377 174.743,0.0001 187.9621,0.0001 		"/>
	</g>
	<g id="XMLID_2333_">
		<polygon id="XMLID_2341_" class="st40" points="14.522,33.6753 0,16.8376 14.522,0 27.7411,0 13.2191,16.8376 27.7411,33.6753 
			14.522,33.6753 		"/>
	</g>
	<polygon id="XMLID_2330_" class="st18" points="31.7411,0 171.743,0.0001 186.265,16.8377 171.743,33.6754 31.7411,33.6753 
		17.2191,16.8376 	"/>
	<g>
		<g>
			<path class="st3" d="M56.4413,22.0004h-2.8301l-1.125-2.9277h-5.1504l-1.0645,2.9277h-2.7598l5.0195-12.8848h2.75
				L56.4413,22.0004z M51.6503,16.9028l-1.7754-4.7813l-1.7402,4.7813H51.6503z"/>
			<path class="st3" d="M65.9413,15.4262l-2.4336,0.4395c-0.082-0.4863-0.2686-0.8535-0.5586-1.0996s-0.666-0.3691-1.1289-0.3691
				c-0.6152,0-1.1064,0.2129-1.4727,0.6387c-0.3662,0.4238-0.5488,1.1348-0.5488,2.1309c0,1.1074,0.1855,1.8887,0.5576,2.3457
				s0.8721,0.6855,1.499,0.6855c0.4688,0,0.8516-0.1328,1.1504-0.3984c0.2988-0.2676,0.5098-0.7266,0.6328-1.377l2.4258,0.4141
				c-0.252,1.1133-0.7344,1.9531-1.4492,2.5215s-1.6738,0.8535-2.875,0.8535c-1.3652,0-2.4531-0.4316-3.2646-1.293
				s-1.2178-2.0527-1.2178-3.5762c0-1.541,0.4082-2.7402,1.2227-3.5996c0.8145-0.8574,1.916-1.2871,3.3047-1.2871
				c1.1367,0,2.04,0.2441,2.7109,0.7344C65.1669,13.6781,65.6483,14.4242,65.9413,15.4262z"/>
			<path class="st3" d="M75.953,15.4262l-2.4355,0.4395c-0.082-0.4863-0.2676-0.8535-0.5576-1.0996s-0.667-0.3691-1.1299-0.3691
				c-0.6152,0-1.1055,0.2129-1.4717,0.6387c-0.3662,0.4238-0.5498,1.1348-0.5498,2.1309c0,1.1074,0.1865,1.8887,0.5586,2.3457
				s0.8711,0.6855,1.498,0.6855c0.4688,0,0.8535-0.1328,1.1523-0.3984c0.2988-0.2676,0.5098-0.7266,0.6328-1.377l2.4258,0.4141
				c-0.252,1.1133-0.7363,1.9531-1.4512,2.5215s-1.6719,0.8535-2.873,0.8535c-1.3652,0-2.4541-0.4316-3.2656-1.293
				s-1.2168-2.0527-1.2168-3.5762c0-1.541,0.4063-2.7402,1.2207-3.5996c0.8145-0.8574,1.916-1.2871,3.3047-1.2871
				c1.1367,0,2.041,0.2441,2.7119,0.7344C75.1776,13.6781,75.66,14.4242,75.953,15.4262z"/>
			<path class="st3" d="M83.2304,19.0297l2.4609,0.4121c-0.3164,0.9023-0.8164,1.5898-1.499,2.0625
				c-0.6826,0.4707-1.5361,0.707-2.5615,0.707c-1.623,0-2.8242-0.5313-3.6035-1.5918c-0.6152-0.8496-0.9238-1.9219-0.9238-3.2168
				c0-1.5469,0.4043-2.7578,1.2129-3.6328c0.8086-0.877,1.832-1.3145,3.0684-1.3145c1.3887,0,2.4844,0.459,3.2871,1.375
				c0.8027,0.918,1.1855,2.3223,1.1504,4.2148h-6.1875c0.0176,0.7324,0.2168,1.3027,0.5977,1.709
				c0.3809,0.4082,0.8555,0.6113,1.4238,0.6113c0.3867,0,0.7129-0.1055,0.9766-0.3164S83.0956,19.4985,83.2304,19.0297z
				 M83.371,16.5336c-0.0176-0.7148-0.2031-1.2578-0.5547-1.6309c-0.3516-0.3711-0.7793-0.5586-1.2832-0.5586
				c-0.5391,0-0.9844,0.1973-1.3359,0.5898s-0.5234,0.9258-0.5176,1.5996H83.371z"/>
			<path class="st3" d="M86.9647,19.3363l2.4785-0.377c0.1055,0.4805,0.3203,0.8457,0.6426,1.0938
				c0.3223,0.25,0.7734,0.373,1.3535,0.373c0.6387,0,1.1191-0.1172,1.4414-0.3516c0.2168-0.1641,0.3242-0.3828,0.3242-0.6582
				c0-0.1875-0.0586-0.3438-0.1758-0.4668c-0.123-0.1172-0.3984-0.2246-0.8262-0.3242c-1.9922-0.4395-3.2539-0.8418-3.7871-1.2051
				c-0.7383-0.5039-1.1074-1.2031-1.1074-2.0996c0-0.8086,0.3184-1.4883,0.957-2.0391s1.6289-0.8262,2.9707-0.8262
				c1.2773,0,2.2266,0.207,2.8477,0.623s1.0488,1.0313,1.2832,1.8457l-2.3281,0.4316c-0.0996-0.3633-0.2891-0.6426-0.5674-0.8359
				s-0.6748-0.2891-1.1904-0.2891c-0.6504,0-1.1172,0.0898-1.3984,0.2715c-0.1875,0.1289-0.2813,0.2969-0.2813,0.502
				c0,0.1758,0.082,0.3242,0.2461,0.4473c0.2227,0.1641,0.9922,0.3965,2.3076,0.6953s2.2334,0.6641,2.7549,1.0977
				c0.5156,0.4395,0.7734,1.0527,0.7734,1.8379c0,0.8555-0.3574,1.5898-1.0723,2.2051s-1.7715,0.9238-3.1719,0.9238
				c-1.2715,0-2.2783-0.2578-3.0195-0.7734S87.1933,20.2211,86.9647,19.3363z"/>
			<path class="st3" d="M97.8456,11.4008V9.1156h2.4707v2.2852H97.8456z M97.8456,22.0004v-9.334h2.4707v9.334H97.8456z"/>
			<path class="st3" d="M102.7421,22.0004V9.1156h2.4688v4.6406c0.7617-0.8672,1.6641-1.3008,2.707-1.3008
				c1.1367,0,2.0781,0.4121,2.8223,1.2344c0.7441,0.8242,1.1152,2.0059,1.1152,3.5469c0,1.5938-0.3789,2.8203-1.1377,3.6816
				s-1.6807,1.293-2.7646,1.293c-0.5332,0-1.0586-0.1348-1.5771-0.4004s-0.9658-0.6602-1.3408-1.1816v1.3711H102.7421z
				 M105.1933,17.1313c0,0.9668,0.1523,1.6816,0.457,2.1445c0.4277,0.6563,0.9961,0.9844,1.7051,0.9844
				c0.5449,0,1.0098-0.2324,1.3936-0.6992c0.3838-0.4648,0.5752-1.1992,0.5752-2.2012c0-1.0664-0.1934-1.8359-0.5801-2.3066
				c-0.3867-0.4727-0.8809-0.709-1.4844-0.709c-0.5918,0-1.084,0.2305-1.4766,0.6914
				C105.3905,15.4946,105.1933,16.1938,105.1933,17.1313z"/>
			<path class="st3" d="M113.8417,11.4008V9.1156h2.4707v2.2852H113.8417z M113.8417,22.0004v-9.334h2.4707v9.334H113.8417z"/>
			<path class="st3" d="M118.8436,22.0004V9.1156h2.4688v12.8848H118.8436z"/>
			<path class="st3" d="M123.8436,11.4008V9.1156h2.4707v2.2852H123.8436z M123.8436,22.0004v-9.334h2.4707v9.334H123.8436z"/>
			<path class="st3" d="M137.4061,22.0004h-2.2949v-1.3711c-0.3809,0.5332-0.8301,0.9297-1.3486,1.1914
				c-0.5186,0.2598-1.042,0.3906-1.5693,0.3906c-1.0723,0-1.9902-0.4316-2.7549-1.2969c-0.7646-0.8633-1.1475-2.0703-1.1475-3.6172
				c0-1.582,0.373-2.7832,1.1172-3.6074c0.7441-0.8223,1.6836-1.2344,2.8203-1.2344c1.043,0,1.9453,0.4336,2.707,1.3008V9.1156
				h2.4707V22.0004z M130.8143,17.1313c0,0.9961,0.1367,1.7168,0.4121,2.1621c0.3984,0.6445,0.9551,0.9668,1.6699,0.9668
				c0.5684,0,1.0527-0.2422,1.4512-0.7246c0.3984-0.4844,0.5977-1.207,0.5977-2.168c0-1.0723-0.1934-1.8438-0.5801-2.3145
				c-0.3867-0.4727-0.8828-0.709-1.4863-0.709c-0.5859,0-1.0762,0.2344-1.4717,0.6992
				C131.0116,15.5102,130.8143,16.2055,130.8143,17.1313z"/>
			<path class="st3" d="M141.6854,15.5141l-2.2402-0.4043c0.252-0.9023,0.6855-1.5703,1.3008-2.0039s1.5293-0.6504,2.7422-0.6504
				c1.1016,0,1.9219,0.1309,2.4609,0.3906c0.5391,0.2617,0.918,0.5918,1.1377,0.9941c0.2197,0.4004,0.3291,1.1367,0.3291,2.209
				l-0.0254,2.8828c0,0.8203,0.0391,1.4258,0.1182,1.8164c0.0791,0.3887,0.2275,0.8066,0.4443,1.252h-2.4434
				c-0.0645-0.1641-0.1445-0.4082-0.2383-0.7305c-0.041-0.1465-0.0703-0.2422-0.0879-0.2891
				c-0.4219,0.4102-0.873,0.7168-1.3535,0.9219s-0.9922,0.3086-1.5371,0.3086c-0.9609,0-1.7188-0.2617-2.2725-0.7832
				s-0.8311-1.1797-0.8311-1.9766c0-0.5273,0.127-0.998,0.3789-1.4102c0.252-0.4141,0.6045-0.7305,1.0586-0.9492
				c0.4541-0.2207,1.1094-0.4121,1.9648-0.5762c1.1543-0.2168,1.9531-0.4199,2.3984-0.6074v-0.2461
				c0-0.4746-0.1172-0.8125-0.3516-1.0137c-0.2344-0.2031-0.6758-0.3047-1.3262-0.3047c-0.4395,0-0.7832,0.0879-1.0293,0.2598
				C142.037,14.7778,141.8378,15.0805,141.6854,15.5141z M144.9901,17.518c-0.3164,0.1055-0.8164,0.2305-1.502,0.377
				s-1.1348,0.291-1.3457,0.4316c-0.3223,0.2285-0.4824,0.5176-0.4824,0.8691c0,0.3457,0.1289,0.6445,0.3867,0.8965
				s0.5859,0.3789,0.9844,0.3789c0.4453,0,0.8691-0.1465,1.2734-0.4395c0.2988-0.2227,0.4961-0.4961,0.5898-0.8184
				c0.0645-0.2109,0.0957-0.6113,0.0957-1.2031V17.518z"/>
			<path class="st3" d="M158.412,22.0004h-2.2949v-1.3711c-0.3809,0.5332-0.8301,0.9297-1.3486,1.1914
				c-0.5186,0.2598-1.042,0.3906-1.5693,0.3906c-1.0723,0-1.9902-0.4316-2.7549-1.2969c-0.7646-0.8633-1.1475-2.0703-1.1475-3.6172
				c0-1.582,0.373-2.7832,1.1172-3.6074c0.7441-0.8223,1.6836-1.2344,2.8203-1.2344c1.043,0,1.9453,0.4336,2.707,1.3008V9.1156
				h2.4707V22.0004z M151.8202,17.1313c0,0.9961,0.1367,1.7168,0.4121,2.1621c0.3984,0.6445,0.9551,0.9668,1.6699,0.9668
				c0.5684,0,1.0527-0.2422,1.4512-0.7246c0.3984-0.4844,0.5977-1.207,0.5977-2.168c0-1.0723-0.1934-1.8438-0.5801-2.3145
				c-0.3867-0.4727-0.8828-0.709-1.4863-0.709c-0.5859,0-1.0762,0.2344-1.4717,0.6992
				C152.0175,15.5102,151.8202,16.2055,151.8202,17.1313z"/>
		</g>
	</g>
</g>
</svg>
