<?xml version="1.0" encoding="utf-8"?>
<!-- Generator: Adobe Illustrator 21.0.2, SVG Export Plug-In . SVG Version: 6.00 Build 0)  -->
<svg version="1.1" id="Capa_1" xmlns="http://www.w3.org/2000/svg" xmlns:xlink="http://www.w3.org/1999/xlink" x="0px" y="0px"
	 viewBox="0 0 202.4841 52.8169" style="enable-background:new 0 0 202.4841 52.8169;" xml:space="preserve">
<style type="text/css">
	.st0{opacity:0.25;clip-path:url(#XMLID_4592_);}
	.st1{fill:#FFFFFF;}
	.st2{fill-rule:evenodd;clip-rule:evenodd;fill:#DDDDDD;}
	.st3{fill:#ACABC9;}
	.st4{fill:#3B86B1;}
	.st5{opacity:0.25;fill-rule:evenodd;clip-rule:evenodd;fill:#020202;}
	.st6{opacity:0.5;}
	.st7{fill-rule:evenodd;clip-rule:evenodd;fill:#A8A8A8;}
	.st8{fill-rule:evenodd;clip-rule:evenodd;fill:#FFFFFF;}
	.st9{fill-rule:evenodd;clip-rule:evenodd;fill:#3B86B1;}
	.st10{opacity:0.5;fill:#2C6882;}
	.st11{opacity:0.75;fill-rule:evenodd;clip-rule:evenodd;fill:#282828;}
	.st12{opacity:0.5;fill:#FFFFFF;}
	.st13{fill-rule:evenodd;clip-rule:evenodd;fill:none;stroke:#FFFFFF;stroke-miterlimit:10;}
	.st14{fill:none;stroke:#FFFFFF;stroke-miterlimit:10;}
	.st15{fill:#FFFFFF;stroke:#3B86B1;stroke-width:1.7139;stroke-miterlimit:10;}
	.st16{fill-rule:evenodd;clip-rule:evenodd;}
	.st17{opacity:0.85;fill:#FFFFFF;}
	.st18{opacity:0.5;fill-rule:evenodd;clip-rule:evenodd;}
	.st19{fill-rule:evenodd;clip-rule:evenodd;fill:#FEFEFE;}
	.st20{fill:#312767;}
	.st21{opacity:0.48;}
	.st22{opacity:0.25;}
	.st23{fill-rule:evenodd;clip-rule:evenodd;fill:#020202;}
	.st24{fill:#757575;}
	.st25{opacity:0.25;clip-path:url(#XMLID_4593_);}
	.st26{fill:#FFFFFF;stroke:#312767;stroke-miterlimit:10;}
	.st27{fill-rule:evenodd;clip-rule:evenodd;fill:#312767;}
	.st28{opacity:0.77;fill:#312767;}
	.st29{opacity:0.25;clip-path:url(#XMLID_4598_);}
	.st30{opacity:0.75;}
	.st31{fill-rule:evenodd;clip-rule:evenodd;fill:#282828;}
	.st32{fill:#9490B2;stroke:#2D2D2D;stroke-width:0.25;stroke-miterlimit:10;}
	.st33{fill:#312767;stroke:#2D2D2D;stroke-width:0.25;stroke-miterlimit:10;}
	.st34{fill:#FCFCFC;}
	.st35{fill:#FFFFFF;stroke:#2D2D2D;stroke-width:0.25;stroke-miterlimit:10;}
	.st36{fill-rule:evenodd;clip-rule:evenodd;fill:#484849;stroke:#2D2D2D;stroke-width:0.25;stroke-miterlimit:10;}
	.st37{fill-rule:evenodd;clip-rule:evenodd;fill:#312767;stroke:#2D2D2D;stroke-width:0.25;stroke-miterlimit:10;}
	.st38{fill-rule:evenodd;clip-rule:evenodd;fill:#FFFFFF;stroke:#2D2D2D;stroke-width:0.25;stroke-miterlimit:10;}
	.st39{fill:#484849;stroke:#2D2D2D;stroke-width:0.25;stroke-miterlimit:10;}
	.st40{fill:#FFFFFF;stroke:#FFFFFF;stroke-miterlimit:10;}
	.st41{fill:#54518C;}
	.st42{opacity:0.25;fill-rule:evenodd;clip-rule:evenodd;fill:#FFFFFF;}
	.st43{fill:#D4A800;}
	.st44{fill:#00AEB3;}
	.st45{fill:#38353B;}
	.st46{fill:#FF8400;}
	.st47{fill:#BF3900;}
	.st48{fill:#00AA9C;}
	.st49{opacity:0.25;clip-path:url(#XMLID_4609_);}
	.st50{fill:none;stroke:#ACABC9;stroke-width:5;stroke-miterlimit:10;}
	.st51{fill:#67A53F;}
	.st52{fill:#DDDDDD;}
	.st53{opacity:0.25;clip-path:url(#XMLID_4620_);}
	.st54{fill-rule:evenodd;clip-rule:evenodd;fill:#FFFFFF;stroke:#FFFFFF;stroke-miterlimit:10;}
	.st55{fill:#02897C;}
	.st56{fill:#0EAD9A;}
	.st57{fill:#28C6AF;}
	.st58{fill:#4FE0C7;}
	.st59{opacity:0.25;clip-path:url(#XMLID_4624_);}
	.st60{fill:#3CA7AF;}
	.st61{fill:#3DAD8D;}
	.st62{fill:#296E8C;}
	.st63{fill:#308E71;}
	.st64{fill:#2D8A8C;}
	.st65{opacity:0.25;clip-path:url(#XMLID_4628_);}
	.st66{opacity:0.77;fill:#FFFFFF;}
	.st67{fill:#50565B;stroke:#656C70;stroke-miterlimit:10;}
	.st68{fill:#808589;stroke:#656C70;stroke-miterlimit:10;}
	.st69{fill:#252728;stroke:#000000;stroke-miterlimit:10;}
	.st70{fill:#1A1B1C;stroke:#000000;stroke-miterlimit:10;}
	.st71{fill:#A0A6AA;}
	.st72{fill:#262C35;stroke:#161A1E;stroke-miterlimit:10;}
	.st73{fill:#181D23;}
	.st74{fill:#EABA96;stroke:#E0AA86;stroke-miterlimit:10;}
	.st75{fill:#E0AA86;}
	.st76{stroke:#000000;stroke-width:0.75;stroke-linecap:square;stroke-linejoin:bevel;stroke-miterlimit:10;}
	.st77{fill:#0F1C3F;stroke:#182951;stroke-miterlimit:10;}
	.st78{fill:#132354;stroke:#3F6093;stroke-miterlimit:10;}
	.st79{fill:#0F1C3F;}
	.st80{fill:none;stroke:#3F6093;stroke-width:0.75;stroke-miterlimit:10;}
	.st81{fill:#DBA682;}
	.st82{fill:none;stroke:#E0AA86;stroke-miterlimit:10;}
	.st83{fill:none;stroke:#E0AA86;stroke-linejoin:bevel;stroke-miterlimit:10;}
	.st84{fill:#8A0A8E;stroke:#AC34B2;stroke-miterlimit:10;}
	.st85{fill:#810C87;}
	.st86{fill:#680B6D;}
	.st87{fill:#AC34B2;stroke:#AC34B2;stroke-width:0.5;stroke-miterlimit:10;}
	.st88{fill:none;stroke:#959DA0;stroke-width:0.5;stroke-miterlimit:10;}
	.st89{fill:#959DA0;stroke:#959DA0;stroke-width:0.5;stroke-miterlimit:10;}
	.st90{fill:none;stroke:#AC34B2;stroke-miterlimit:10;}
	.st91{fill:#282828;stroke:#000000;stroke-miterlimit:10;}
	.st92{fill:#EABA96;stroke:#E0AA86;stroke-width:0.5;stroke-miterlimit:10;}
	.st93{fill:#B7896A;}
	.st94{stroke:#000000;stroke-miterlimit:10;}
	.st95{fill:#C1A578;}
	.st96{stroke:#000000;stroke-width:0.25;stroke-linecap:round;stroke-linejoin:round;stroke-miterlimit:10;}
	.st97{fill:#FFFFFF;stroke:#000000;stroke-width:0.25;stroke-linecap:round;stroke-linejoin:round;stroke-miterlimit:10;}
	.st98{fill:#70582D;}
	.st99{stroke:#000000;stroke-linecap:round;stroke-linejoin:round;stroke-miterlimit:10;}
	.st100{fill:none;stroke:#D8A27D;stroke-width:0.75;stroke-miterlimit:10;}
	.st101{fill:#561409;}
	.st102{fill:#BA2A13;}
	.st103{fill:#9E3025;stroke:#4C2311;stroke-width:0.25;stroke-miterlimit:10;}
	.st104{fill:#871D08;stroke:#4C2311;stroke-width:0.25;stroke-miterlimit:10;}
	.st105{fill:#DDAC8A;}
	.st106{fill:#A5ABAD;stroke:#959DA0;stroke-width:0.5;stroke-miterlimit:10;}
	.st107{fill:#B1BABC;}
	.st108{fill:none;stroke:#153847;stroke-width:5;stroke-miterlimit:10;}
	.st109{fill:#3DAA61;}
	.st110{fill:#95A340;}
	.st111{opacity:0.25;clip-path:url(#XMLID_4632_);}
	.st112{opacity:0.25;clip-path:url(#XMLID_4635_);}
	.st113{opacity:0.25;clip-path:url(#XMLID_4636_);}
	.st114{opacity:0.25;clip-path:url(#XMLID_4638_);}
	.st115{opacity:0.25;clip-path:url(#XMLID_4646_);}
	.st116{clip-path:url(#SVGID_2_);}
	.st117{fill:none;stroke:#3F6093;stroke-miterlimit:10;}
	.st118{fill:none;stroke:#3F6093;stroke-width:0.75;stroke-linecap:round;stroke-linejoin:round;}
	.st119{fill:none;stroke:#3F6093;stroke-width:0.75;stroke-linecap:round;stroke-linejoin:round;stroke-dasharray:0.9892,0.9892;}
	
		.st120{fill:none;stroke:#3F6093;stroke-width:0.75;stroke-linecap:round;stroke-linejoin:round;stroke-miterlimit:10;stroke-dasharray:1;}
	.st121{fill:#EAEAEA;stroke:#FFFFFF;stroke-width:0.25;stroke-miterlimit:10;}
	.st122{fill:#D8D8D8;}
	.st123{fill:#282828;stroke:#000000;stroke-width:0.75;stroke-miterlimit:10;}
	.st124{opacity:0.33;fill:#FFFFFF;}
	.st125{fill:none;stroke:#000000;stroke-width:1.5;stroke-linecap:round;stroke-linejoin:round;stroke-miterlimit:10;}
	.st126{opacity:0.64;}
	.st127{fill:#C9C9C9;}
	.st128{fill:#FFF064;}
	.st129{fill:#4F4E4F;}
	.st130{fill:#1E2F47;}
	.st131{opacity:0.1;fill:#FFFFFF;}
	.st132{opacity:0.1;}
	.st133{opacity:0.4;fill:#FFFFFF;}
	.st134{fill-rule:evenodd;clip-rule:evenodd;fill:#F39C12;}
	.st135{fill-rule:evenodd;clip-rule:evenodd;fill:#E6E6E6;}
	.st136{fill-rule:evenodd;clip-rule:evenodd;fill:#474646;}
	.st137{fill-rule:evenodd;clip-rule:evenodd;fill:#D84848;}
	.st138{opacity:0.2;fill-rule:evenodd;clip-rule:evenodd;fill:#231F20;}
	.st139{opacity:0.1;fill-rule:evenodd;clip-rule:evenodd;fill:#231F20;}
	.st140{fill-rule:evenodd;clip-rule:evenodd;fill:#4D4D4D;}
	.st141{fill-rule:evenodd;clip-rule:evenodd;fill:#336699;}
	.st142{fill-rule:evenodd;clip-rule:evenodd;fill:#FF6633;}
	.st143{fill-rule:evenodd;clip-rule:evenodd;fill:#0056A3;}
	.st144{fill-rule:evenodd;clip-rule:evenodd;fill:#33CC99;}
	.st145{fill:#CE6405;}
	.st146{opacity:0.2;fill:#FFFFFF;}
	.st147{fill:#1ABC9C;}
	.st148{opacity:0.2;}
	.st149{fill:#0B2E44;}
	.st150{fill-rule:evenodd;clip-rule:evenodd;fill:#154F77;}
	.st151{fill-rule:evenodd;clip-rule:evenodd;fill:#0D3858;}
	.st152{fill-rule:evenodd;clip-rule:evenodd;fill:#FFFEFE;}
	.st153{fill:#AEC647;}
	.st154{fill:#F3AE1B;}
	.st155{fill:#DF3F11;}
	.st156{fill:#BCDEDE;}
	.st157{fill:#C84119;}
	.st158{fill:#6BB5CE;}
	.st159{fill:#00D0E5;}
	.st160{fill:#FF81ED;}
	.st161{fill:#00C982;}
	.st162{opacity:0.7;}
	.st163{opacity:0.4;}
	.st164{fill-rule:evenodd;clip-rule:evenodd;fill:#0B2E44;}
	.st165{opacity:0.8;fill-rule:evenodd;clip-rule:evenodd;fill:#FFFFFF;}
	.st166{fill:#424242;}
	.st167{opacity:0.2;fill-rule:evenodd;clip-rule:evenodd;fill:#FFFFFF;}
	.st168{fill:#D0EDFA;}
	.st169{fill:#FF651F;}
	.st170{fill:#0051C4;}
	.st171{fill:#E46400;}
	.st172{fill:#C0003B;}
	.st173{fill:#FFEA50;}
	.st174{fill:#FF2C0D;}
	.st175{fill:#FF1A2C;}
	.st176{fill:#FF2C4D;}
	.st177{fill:#FFD74C;}
	.st178{fill:#4C4C4B;}
	.st179{fill:#6CD2EA;}
	.st180{fill:#F7674F;}
	.st181{opacity:0.1;fill-rule:evenodd;clip-rule:evenodd;}
	.st182{fill:#BABABA;}
	.st183{fill:#F9B946;}
	.st184{fill:#DFC2A9;}
	.st185{fill:#BFA490;}
	.st186{fill:#F5D4B2;}
	.st187{fill:#DF584C;}
	.st188{fill:#C2443E;}
	.st189{fill:#DBDBDA;}
	.st190{fill:#2F363E;}
	.st191{fill:#332524;}
	.st192{fill:#473735;}
	.st193{opacity:0.25;clip-path:url(#XMLID_4647_);}
	.st194{fill:#153847;}
	.st195{fill:#52B8BA;}
	.st196{fill:#35373E;}
	.st197{fill:#D37D00;}
	.st198{opacity:0.25;clip-path:url(#XMLID_4648_);}
	.st199{opacity:0.31;fill:#34383A;}
	.st200{opacity:0.16;fill:#3D3835;}
	.st201{fill:#D0D1D4;}
	.st202{opacity:0.31;}
	.st203{fill:#34383A;}
	.st204{opacity:0.16;}
	.st205{fill:#3D3835;}
	.st206{opacity:0.25;clip-path:url(#XMLID_4649_);}
	.st207{fill:#F9E1B4;}
	.st208{opacity:0.25;fill:#050505;}
	.st209{fill:#FCC60F;}
	.st210{fill:#74CAEA;}
	.st211{fill:#050505;}
	.st212{opacity:0.25;clip-path:url(#XMLID_4650_);}
	.st213{fill:#FABC8F;}
	.st214{fill:#3FA995;}
	.st215{opacity:0.17;fill:#020202;}
	.st216{fill:#E1E1E1;}
	.st217{opacity:0.17;}
	.st218{fill:#020202;}
	.st219{opacity:0.25;clip-path:url(#XMLID_4651_);}
	.st220{fill:#BF8E00;}
	.st221{fill:#F7D8D7;}
	.st222{fill:#F18636;}
	.st223{fill:#004460;}
	.st224{fill:#D93A37;}
	.st225{fill:#EDEDED;}
	.st226{fill:#184F78;}
	.st227{fill:#FF3E03;}
	.st228{opacity:0.6;fill:#0F0F0F;}
	.st229{fill:#E8E8E6;}
	.st230{fill:#00EAA6;}
	.st231{fill-rule:evenodd;clip-rule:evenodd;fill:#FF3E03;}
	.st232{opacity:0.1;fill-rule:evenodd;clip-rule:evenodd;fill:#020202;}
	.st233{fill-rule:evenodd;clip-rule:evenodd;fill:#FABE00;}
	.st234{fill-rule:evenodd;clip-rule:evenodd;fill:#E6E8E8;}
	.st235{fill-rule:evenodd;clip-rule:evenodd;fill:#F7D959;}
	.st236{fill-rule:evenodd;clip-rule:evenodd;fill:#F9623E;}
	.st237{fill:#4F1A0F;}
	.st238{opacity:0.46;fill:#FFFFFF;}
	.st239{fill:#48505A;}
	.st240{fill:#C3C3C3;}
	.st241{fill:#E9E9EA;}
	.st242{fill:#9D9E9F;}
	.st243{fill:#F6F4F4;}
	.st244{fill:#6B6A6A;}
	.st245{fill:#C09478;}
	.st246{fill:#F7CDA0;}
	.st247{fill:#9E1010;}
	.st248{fill:#F2F2F2;}
	.st249{opacity:0.2;fill:#060606;}
	.st250{fill:#16AFBE;}
	.st251{fill:#DD2222;}
	.st252{fill:#FFEDDC;}
	.st253{fill:#22272B;}
	.st254{fill:#5B6375;}
	.st255{fill:#F79748;}
	.st256{fill:#FF7900;}
	.st257{fill:#DD7105;}
</style>
<g>
	<g id="XMLID_4301_">
		<polygon id="XMLID_4302_" class="st41" points="187.9621,0.0001 202.4841,26.4085 187.9621,52.8169 174.743,52.8169 
			189.265,26.4085 174.743,0.0001 187.9621,0.0001 		"/>
	</g>
	<g id="XMLID_4299_">
		<polygon id="XMLID_4300_" class="st41" points="14.522,52.8167 0,26.4083 14.522,0 27.7411,0 13.2191,26.4083 27.7411,52.8167 
			14.522,52.8167 		"/>
	</g>
	<polygon id="XMLID_4298_" class="st20" points="31.7411,0 171.743,0.0001 186.265,26.4085 171.743,52.8169 31.7411,52.8167 
		17.2191,26.4083 	"/>
	<g>
		<g>
			<path class="st1" d="M51.2926,17.2634l2.5225,0.7998c-0.3867,1.4063-1.0293,2.4512-1.9297,3.1328
				c-0.8984,0.6836-2.04,1.0244-3.4229,1.0244c-1.7109,0-3.1172-0.585-4.2188-1.7529c-1.1016-1.1699-1.6523-2.7676-1.6523-4.7949
				c0-2.1445,0.5537-3.8105,1.6611-4.9961C45.36,9.489,46.816,8.8963,48.6207,8.8963c1.5762,0,2.8564,0.4658,3.8408,1.3975
				c0.5859,0.5508,1.0254,1.3418,1.3184,2.373l-2.5752,0.6152c-0.1523-0.668-0.4697-1.1953-0.9541-1.582
				c-0.4824-0.3867-1.0703-0.5801-1.7617-0.5801c-0.9551,0-1.7305,0.3428-2.3242,1.0283c-0.5957,0.6855-0.8926,1.7959-0.8926,3.3311
				c0,1.6289,0.293,2.7891,0.8789,3.4805s1.3477,1.0371,2.2852,1.0371c0.6914,0,1.2861-0.2197,1.7842-0.6592
				S51.0758,18.2068,51.2926,17.2634z"/>
			<path class="st1" d="M55.4586,17.2019c0-0.8203,0.2021-1.6143,0.6064-2.3818s0.9766-1.3535,1.7188-1.7578
				c0.7402-0.4043,1.5684-0.6064,2.4824-0.6064c1.4121,0,2.5693,0.459,3.4717,1.375c0.9023,0.918,1.3535,2.0762,1.3535,3.4766
				c0,1.4121-0.4561,2.583-1.3662,3.5117c-0.9121,0.9287-2.0586,1.3926-3.4414,1.3926c-0.8555,0-1.6719-0.1934-2.4473-0.5801
				c-0.7773-0.3867-1.3672-0.9531-1.7715-1.7012C55.6608,19.1843,55.4586,18.2742,55.4586,17.2019z M57.9899,17.3338
				c0,0.9258,0.2197,1.6348,0.6592,2.127s0.9814,0.7383,1.626,0.7383s1.1846-0.2461,1.6221-0.7383
				c0.4355-0.4922,0.6543-1.207,0.6543-2.1445c0-0.9141-0.2188-1.6172-0.6543-2.1094c-0.4375-0.4922-0.9775-0.7383-1.6221-0.7383
				s-1.1865,0.2461-1.626,0.7383S57.9899,16.408,57.9899,17.3338z"/>
			<path class="st1" d="M66.8404,12.6668h2.2764v1.2744c0.8145-0.9902,1.7842-1.4854,2.9092-1.4854
				c0.5977,0,1.1162,0.123,1.5557,0.3691s0.7998,0.6182,1.0811,1.1162c0.4102-0.498,0.8525-0.8701,1.3271-1.1162
				s0.9814-0.3691,1.5205-0.3691c0.6855,0,1.2656,0.1396,1.7402,0.418s0.8291,0.6865,1.0635,1.2256
				c0.1699,0.3984,0.2549,1.043,0.2549,1.9336v5.9678h-2.4697v-5.335c0-0.9258-0.085-1.5234-0.2549-1.793
				c-0.2285-0.3516-0.5801-0.5273-1.0547-0.5273c-0.3457,0-0.6709,0.1055-0.9756,0.3164s-0.5244,0.5205-0.6592,0.9268
				c-0.1348,0.4082-0.2021,1.0508-0.2021,1.9297v4.4824H72.483v-5.1152c0-0.9082-0.0439-1.4941-0.1318-1.7578
				s-0.2236-0.46-0.4092-0.5889c-0.1836-0.1289-0.4346-0.1934-0.751-0.1934c-0.3809,0-0.7236,0.1025-1.0283,0.3076
				s-0.5234,0.501-0.6543,0.8877c-0.1328,0.3867-0.1982,1.0283-0.1982,1.9248v4.5352h-2.4697V12.6668z"/>
			<path class="st1" d="M82.9596,12.6668h2.3027v1.3711c0.2988-0.4688,0.7031-0.8496,1.2129-1.1426s1.0752-0.4395,1.6963-0.4395
				c1.084,0,2.0039,0.4248,2.7598,1.2744s1.1338,2.0332,1.1338,3.5508c0,1.5586-0.3809,2.7705-1.1426,3.6338
				c-0.7617,0.8652-1.6846,1.2969-2.7686,1.2969c-0.5156,0-0.9834-0.1025-1.4014-0.3076c-0.4199-0.2051-0.8604-0.5566-1.3232-1.0547
				v4.7021h-2.4697V12.6668z M85.4029,17.1756c0,1.0488,0.208,1.8232,0.624,2.3252c0.416,0.5,0.9229,0.751,1.5205,0.751
				c0.5742,0,1.0518-0.2295,1.4326-0.6904c0.3809-0.459,0.5713-1.2139,0.5713-2.2627c0-0.9785-0.1963-1.7051-0.5889-2.1797
				s-0.8789-0.7119-1.459-0.7119c-0.6035,0-1.1045,0.2324-1.5029,0.6992C85.6022,15.5711,85.4029,16.2615,85.4029,17.1756z"/>
			<path class="st1" d="M93.4537,17.2019c0-0.8203,0.2021-1.6143,0.6064-2.3818s0.9775-1.3535,1.7178-1.7578
				c0.7422-0.4043,1.5693-0.6064,2.4834-0.6064c1.4121,0,2.5693,0.459,3.4717,1.375c0.9023,0.918,1.3535,2.0762,1.3535,3.4766
				c0,1.4121-0.4551,2.583-1.3672,3.5117c-0.9102,0.9287-2.0576,1.3926-3.4404,1.3926c-0.8555,0-1.6709-0.1934-2.4482-0.5801
				c-0.7754-0.3867-1.3662-0.9531-1.7705-1.7012C93.6559,19.1843,93.4537,18.2742,93.4537,17.2019z M95.985,17.3338
				c0,0.9258,0.2197,1.6348,0.6592,2.127s0.9814,0.7383,1.626,0.7383s1.1855-0.2461,1.6211-0.7383
				c0.4375-0.4922,0.6553-1.207,0.6553-2.1445c0-0.9141-0.2178-1.6172-0.6553-2.1094c-0.4355-0.4922-0.9766-0.7383-1.6211-0.7383
				s-1.1865,0.2461-1.626,0.7383S95.985,16.408,95.985,17.3338z"/>
			<path class="st1" d="M113.5104,22.0008h-2.4697v-4.7637c0-1.0078-0.0527-1.6592-0.1582-1.9551s-0.2764-0.5264-0.5146-0.6904
				c-0.2363-0.1641-0.5225-0.2461-0.8564-0.2461c-0.4277,0-0.8115,0.1172-1.1514,0.3516s-0.5723,0.5449-0.6992,0.9316
				c-0.125,0.3867-0.1885,1.1016-0.1885,2.1445v4.2275h-2.4697v-9.334h2.2939v1.3711c0.8145-1.0547,1.8398-1.582,3.0762-1.582
				c0.5449,0,1.043,0.0986,1.4941,0.2949s0.792,0.4463,1.0244,0.751c0.2305,0.3047,0.3926,0.6504,0.4824,1.0371
				c0.0918,0.3867,0.1367,0.9404,0.1367,1.6611V22.0008z"/>
			<path class="st1" d="M121.4205,19.0301l2.4609,0.4131c-0.3164,0.9023-0.8164,1.5898-1.498,2.0615
				c-0.6836,0.4717-1.5371,0.707-2.5625,0.707c-1.623,0-2.8242-0.5303-3.6035-1.5908c-0.6152-0.8496-0.9229-1.9219-0.9229-3.2168
				c0-1.5469,0.4043-2.7578,1.2129-3.6338s1.8311-1.3145,3.0674-1.3145c1.3887,0,2.4844,0.459,3.2871,1.375
				c0.8027,0.918,1.1865,2.3223,1.1514,4.2148h-6.1875c0.0176,0.7324,0.2168,1.3027,0.5977,1.709
				c0.3809,0.4082,0.8555,0.6113,1.4238,0.6113c0.3867,0,0.7119-0.1055,0.9756-0.3164S121.2858,19.4988,121.4205,19.0301z
				 M121.5611,16.534c-0.0176-0.7148-0.2021-1.2578-0.5537-1.6309c-0.3516-0.3711-0.7793-0.5576-1.2832-0.5576
				c-0.5391,0-0.9844,0.1963-1.3359,0.5889s-0.5244,0.9258-0.5186,1.5996H121.5611z"/>
			<path class="st1" d="M134.5162,22.0008h-2.4697v-4.7637c0-1.0078-0.0527-1.6592-0.1582-1.9551s-0.2764-0.5264-0.5146-0.6904
				c-0.2363-0.1641-0.5225-0.2461-0.8564-0.2461c-0.4277,0-0.8115,0.1172-1.1514,0.3516s-0.5723,0.5449-0.6992,0.9316
				c-0.125,0.3867-0.1885,1.1016-0.1885,2.1445v4.2275h-2.4697v-9.334h2.2939v1.3711c0.8145-1.0547,1.8398-1.582,3.0762-1.582
				c0.5449,0,1.043,0.0986,1.4941,0.2949s0.792,0.4463,1.0244,0.751c0.2305,0.3047,0.3926,0.6504,0.4824,1.0371
				c0.0918,0.3867,0.1367,0.9404,0.1367,1.6611V22.0008z"/>
			<path class="st1" d="M141.3014,12.6668v1.9688h-1.6875v3.7617c0,0.7617,0.0156,1.2061,0.0488,1.332
				c0.0313,0.126,0.1055,0.2295,0.2188,0.3115c0.1152,0.082,0.2539,0.123,0.418,0.123c0.2285,0,0.5596-0.0791,0.9932-0.2373
				l0.2109,1.916c-0.5742,0.2461-1.2246,0.3691-1.9512,0.3691c-0.4453,0-0.8467-0.0742-1.2041-0.2246
				c-0.3574-0.1484-0.6191-0.3418-0.7871-0.5801c-0.166-0.2363-0.2822-0.5576-0.3467-0.9619
				c-0.0527-0.2871-0.0791-0.8672-0.0791-1.7402v-4.0693h-1.1338v-1.9688h1.1338v-1.8545l2.4785-1.4414v3.2959H141.3014z"/>
			<path class="st1" d="M148.4205,19.0301l2.4609,0.4131c-0.3164,0.9023-0.8164,1.5898-1.498,2.0615
				c-0.6836,0.4717-1.5371,0.707-2.5625,0.707c-1.623,0-2.8242-0.5303-3.6035-1.5908c-0.6152-0.8496-0.9229-1.9219-0.9229-3.2168
				c0-1.5469,0.4043-2.7578,1.2129-3.6338s1.8311-1.3145,3.0674-1.3145c1.3887,0,2.4844,0.459,3.2871,1.375
				c0.8027,0.918,1.1865,2.3223,1.1514,4.2148h-6.1875c0.0176,0.7324,0.2168,1.3027,0.5977,1.709
				c0.3809,0.4082,0.8555,0.6113,1.4238,0.6113c0.3867,0,0.7119-0.1055,0.9756-0.3164S148.2858,19.4988,148.4205,19.0301z
				 M148.5611,16.534c-0.0176-0.7148-0.2021-1.2578-0.5537-1.6309c-0.3516-0.3711-0.7793-0.5576-1.2832-0.5576
				c-0.5391,0-0.9844,0.1963-1.3359,0.5889s-0.5244,0.9258-0.5186,1.5996H148.5611z"/>
			<path class="st1" d="M152.1559,19.3377l2.4785-0.3779c0.1055,0.4805,0.3193,0.8457,0.6416,1.0938
				c0.3223,0.25,0.7734,0.374,1.3535,0.374c0.6387,0,1.1191-0.1172,1.4414-0.3516c0.2168-0.1641,0.3252-0.3838,0.3252-0.6592
				c0-0.1875-0.0586-0.3428-0.1758-0.4658c-0.123-0.1172-0.3984-0.2256-0.8262-0.3252c-1.9922-0.4395-3.2549-0.8408-3.7881-1.2041
				c-0.7383-0.5039-1.1074-1.2041-1.1074-2.1006c0-0.8086,0.3193-1.4883,0.958-2.0391s1.6289-0.8262,2.9707-0.8262
				c1.2773,0,2.2266,0.208,2.8477,0.624s1.0488,1.0313,1.2832,1.8457l-2.3291,0.4307c-0.0996-0.3633-0.2891-0.6416-0.5664-0.835
				c-0.2793-0.1934-0.6758-0.29-1.1914-0.29c-0.6504,0-1.1162,0.0908-1.3975,0.2725c-0.1875,0.1289-0.2813,0.2959-0.2813,0.501
				c0,0.1758,0.082,0.3252,0.2461,0.4482c0.2227,0.1641,0.9912,0.3955,2.3076,0.6943c1.3145,0.2988,2.2334,0.665,2.7549,1.0986
				c0.5156,0.4395,0.7734,1.0518,0.7734,1.8369c0,0.8555-0.3574,1.5908-1.0723,2.2061s-1.7725,0.9229-3.1729,0.9229
				c-1.2715,0-2.2773-0.2578-3.0195-0.7734C152.8697,20.9226,152.3844,20.2224,152.1559,19.3377z"/>
			<path class="st1" d="M54.0826,43.6004h-2.293v-1.3711c-0.3809,0.5332-0.8311,0.9307-1.3496,1.1914
				c-0.5186,0.2598-1.041,0.3906-1.5684,0.3906c-1.0723,0-1.9912-0.4316-2.7559-1.2969c-0.7646-0.8633-1.1465-2.0693-1.1465-3.6162
				c0-1.582,0.3711-2.7842,1.1152-3.6084c0.7441-0.8223,1.6855-1.2344,2.8223-1.2344c1.043,0,1.9453,0.4336,2.707,1.3008v-4.6406
				h2.4688V43.6004z M47.4908,38.7312c0,0.9961,0.1387,1.7168,0.4141,2.1621c0.3984,0.6445,0.9551,0.9668,1.6699,0.9668
				c0.5684,0,1.0508-0.2422,1.4492-0.7246c0.3984-0.4844,0.5977-1.2061,0.5977-2.167c0-1.0723-0.1934-1.8438-0.5801-2.3154
				s-0.8809-0.708-1.4844-0.708c-0.5859,0-1.0771,0.2334-1.4727,0.6982C47.6891,37.1101,47.4908,37.8054,47.4908,38.7312z"/>
			<path class="st1" d="M61.9225,40.6297l2.4609,0.4131c-0.3164,0.9023-0.8154,1.5898-1.4981,2.0615s-1.5371,0.707-2.5625,0.707
				c-1.623,0-2.8242-0.5303-3.6035-1.5908c-0.6152-0.8496-0.9219-1.9219-0.9219-3.2168c0-1.5469,0.4043-2.7578,1.2129-3.6338
				s1.8301-1.3145,3.0664-1.3145c1.3887,0,2.4844,0.459,3.2871,1.375c0.8027,0.918,1.1875,2.3223,1.1523,4.2148h-6.1875
				c0.0176,0.7324,0.2168,1.3027,0.5977,1.709c0.3809,0.4082,0.8555,0.6113,1.4238,0.6113c0.3867,0,0.7109-0.1055,0.9746-0.3164
				S61.7877,41.0984,61.9225,40.6297z M62.0631,38.1336c-0.0176-0.7148-0.2012-1.2578-0.5527-1.6309
				c-0.3516-0.3711-0.7793-0.5576-1.2832-0.5576c-0.5391,0-0.9844,0.1963-1.3359,0.5889s-0.5254,0.9258-0.5195,1.5996H62.0631z"/>
			<path class="st1" d="M77.6725,43.6004v-1.3975c-0.3398,0.498-0.7861,0.8906-1.3398,1.1777s-1.1387,0.4307-1.7539,0.4307
				c-0.627,0-1.1895-0.1377-1.6875-0.4131s-0.8574-0.6621-1.0801-1.1602s-0.334-1.1865-0.334-2.0654v-5.9063h2.4688v4.2891
				c0,1.3125,0.0459,2.1172,0.1367,2.4121c0.0908,0.2969,0.2559,0.5313,0.4961,0.7031c0.2402,0.1738,0.5449,0.2598,0.9141,0.2598
				c0.4219,0,0.8008-0.1152,1.1348-0.3477c0.334-0.2305,0.5625-0.5176,0.6855-0.8613c0.123-0.3418,0.1836-1.1816,0.1836-2.5176
				v-3.9375h2.4707v9.334H77.6725z"/>
			<path class="st1" d="M81.6549,40.9373l2.4785-0.3779c0.1055,0.4805,0.3184,0.8457,0.6406,1.0938
				c0.3223,0.25,0.7734,0.374,1.3535,0.374c0.6387,0,1.1191-0.1172,1.4414-0.3516c0.2168-0.1641,0.3262-0.3838,0.3262-0.6592
				c0-0.1875-0.0586-0.3428-0.1758-0.4658c-0.123-0.1172-0.3984-0.2256-0.8262-0.3252c-1.9922-0.4395-3.2559-0.8408-3.7891-1.2041
				c-0.7383-0.5039-1.1074-1.2041-1.1074-2.1006c0-0.8086,0.3203-1.4883,0.959-2.0391s1.6289-0.8262,2.9707-0.8262
				c1.2773,0,2.2266,0.208,2.8477,0.624s1.0488,1.0313,1.2832,1.8457l-2.3301,0.4307c-0.0996-0.3633-0.2881-0.6416-0.5664-0.835
				s-0.6758-0.29-1.1914-0.29c-0.6504,0-1.1152,0.0908-1.3965,0.2725c-0.1875,0.1289-0.2813,0.2959-0.2813,0.501
				c0,0.1758,0.082,0.3252,0.2461,0.4482c0.2227,0.1641,0.9912,0.3955,2.3066,0.6943s2.2344,0.665,2.7559,1.0986
				c0.5156,0.4395,0.7734,1.0518,0.7734,1.8369c0,0.8555-0.3574,1.5908-1.0723,2.2061s-1.7734,0.9229-3.1738,0.9229
				c-1.2715,0-2.2773-0.2578-3.0186-0.7734S81.8834,41.822,81.6549,40.9373z"/>
			<path class="st1" d="M94.3815,37.114l-2.2422-0.4043c0.252-0.9023,0.6855-1.5703,1.3008-2.0039s1.5293-0.6504,2.7422-0.6504
				c1.1016,0,1.9219,0.1309,2.4609,0.3906c0.5391,0.2617,0.9189,0.5928,1.1387,0.9941s0.3301,1.1377,0.3301,2.21l-0.0273,2.8828
				c0,0.8203,0.04,1.4258,0.1191,1.8154s0.2266,0.8066,0.4434,1.252h-2.4434c-0.0645-0.1641-0.1426-0.4072-0.2363-0.7295
				c-0.041-0.1465-0.0703-0.2432-0.0879-0.29c-0.4219,0.4102-0.873,0.7178-1.3535,0.9229s-0.9941,0.3076-1.5391,0.3076
				c-0.9609,0-1.7178-0.2607-2.2715-0.7822s-0.8301-1.1807-0.8301-1.9775c0-0.5273,0.125-0.998,0.377-1.4102
				c0.252-0.4141,0.6055-0.7305,1.0596-0.9492c0.4541-0.2207,1.1084-0.4121,1.9639-0.5762
				c1.1543-0.2168,1.9551-0.4189,2.4004-0.6064v-0.2461c0-0.4746-0.1172-0.8135-0.3516-1.0146
				c-0.2344-0.2031-0.6777-0.3037-1.3281-0.3037c-0.4395,0-0.7813,0.0869-1.0273,0.2588
				C94.733,36.3777,94.5338,36.6804,94.3815,37.114z M97.6861,39.1179c-0.3164,0.1055-0.8184,0.2314-1.5039,0.3779
				s-1.1328,0.29-1.3438,0.4307c-0.3223,0.2285-0.4844,0.5186-0.4844,0.8701c0,0.3457,0.1289,0.6445,0.3867,0.8965
				s0.5859,0.3779,0.9844,0.3779c0.4453,0,0.8711-0.1465,1.2754-0.4395c0.2988-0.2227,0.4941-0.4951,0.5879-0.8174
				c0.0645-0.2109,0.0977-0.6123,0.0977-1.2041V39.1179z"/>
			<path class="st1" d="M102.4401,43.6004V30.7156h2.4707v4.6406c0.7617-0.8672,1.6641-1.3008,2.707-1.3008
				c1.1367,0,2.0762,0.4121,2.8203,1.2344c0.7441,0.8242,1.1172,2.0059,1.1172,3.5469c0,1.5938-0.3799,2.8213-1.1387,3.6826
				s-1.6797,1.292-2.7637,1.292c-0.5332,0-1.0596-0.1338-1.5781-0.4004c-0.5186-0.2656-0.9648-0.6602-1.3398-1.1816v1.3711H102.4401
				z M104.8932,38.7312c0,0.9668,0.1523,1.6816,0.457,2.1445c0.4277,0.6563,0.9961,0.9844,1.7051,0.9844
				c0.5449,0,1.0088-0.2324,1.3926-0.6992c0.3838-0.4648,0.5762-1.1992,0.5762-2.2012c0-1.0664-0.1934-1.835-0.5801-2.3066
				s-0.8828-0.708-1.4863-0.708c-0.5918,0-1.084,0.2305-1.4766,0.6904S104.8932,37.7937,104.8932,38.7312z"/>
			<path class="st1" d="M113.5416,33.0008v-2.2852h2.4688v2.2852H113.5416z M113.5416,43.6004v-9.334h2.4688v9.334H113.5416z"/>
			<path class="st1" d="M118.5416,43.6004V30.7156h2.4707v12.8848H118.5416z"/>
			<path class="st1" d="M123.5436,33.0008v-2.2852h2.4688v2.2852H123.5436z M123.5436,43.6004v-9.334h2.4688v9.334H123.5436z"/>
			<path class="st1" d="M137.1041,43.6004h-2.293v-1.3711c-0.3809,0.5332-0.8311,0.9307-1.3496,1.1914
				c-0.5186,0.2598-1.041,0.3906-1.5684,0.3906c-1.0723,0-1.9912-0.4316-2.7559-1.2969c-0.7646-0.8633-1.1465-2.0693-1.1465-3.6162
				c0-1.582,0.3711-2.7842,1.1152-3.6084c0.7441-0.8223,1.6855-1.2344,2.8223-1.2344c1.043,0,1.9453,0.4336,2.707,1.3008v-4.6406
				h2.4688V43.6004z M130.5123,38.7312c0,0.9961,0.1387,1.7168,0.4141,2.1621c0.3984,0.6445,0.9551,0.9668,1.6699,0.9668
				c0.5684,0,1.0508-0.2422,1.4492-0.7246c0.3984-0.4844,0.5977-1.2061,0.5977-2.167c0-1.0723-0.1934-1.8438-0.5801-2.3154
				s-0.8809-0.708-1.4844-0.708c-0.5859,0-1.0771,0.2334-1.4727,0.6982C130.7106,37.1101,130.5123,37.8054,130.5123,38.7312z"/>
			<path class="st1" d="M141.3854,37.114l-2.2422-0.4043c0.252-0.9023,0.6855-1.5703,1.3008-2.0039s1.5293-0.6504,2.7422-0.6504
				c1.1016,0,1.9219,0.1309,2.4609,0.3906c0.5391,0.2617,0.9189,0.5928,1.1387,0.9941s0.3301,1.1377,0.3301,2.21l-0.0273,2.8828
				c0,0.8203,0.04,1.4258,0.1191,1.8154s0.2266,0.8066,0.4434,1.252h-2.4434c-0.0645-0.1641-0.1426-0.4072-0.2363-0.7295
				c-0.041-0.1465-0.0703-0.2432-0.0879-0.29c-0.4219,0.4102-0.873,0.7178-1.3535,0.9229s-0.9941,0.3076-1.5391,0.3076
				c-0.9609,0-1.7178-0.2607-2.2715-0.7822s-0.8301-1.1807-0.8301-1.9775c0-0.5273,0.125-0.998,0.377-1.4102
				c0.252-0.4141,0.6055-0.7305,1.0596-0.9492c0.4541-0.2207,1.1084-0.4121,1.9639-0.5762
				c1.1543-0.2168,1.9551-0.4189,2.4004-0.6064v-0.2461c0-0.4746-0.1172-0.8135-0.3516-1.0146
				c-0.2344-0.2031-0.6777-0.3037-1.3281-0.3037c-0.4395,0-0.7813,0.0869-1.0273,0.2588
				C141.7369,36.3777,141.5377,36.6804,141.3854,37.114z M144.69,39.1179c-0.3164,0.1055-0.8184,0.2314-1.5039,0.3779
				s-1.1328,0.29-1.3438,0.4307c-0.3223,0.2285-0.4844,0.5186-0.4844,0.8701c0,0.3457,0.1289,0.6445,0.3867,0.8965
				s0.5859,0.3779,0.9844,0.3779c0.4453,0,0.8711-0.1465,1.2754-0.4395c0.2988-0.2227,0.4941-0.4951,0.5879-0.8174
				c0.0645-0.2109,0.0977-0.6123,0.0977-1.2041V39.1179z"/>
			<path class="st1" d="M158.11,43.6004h-2.293v-1.3711c-0.3809,0.5332-0.8311,0.9307-1.3496,1.1914
				c-0.5186,0.2598-1.041,0.3906-1.5684,0.3906c-1.0723,0-1.9912-0.4316-2.7559-1.2969c-0.7646-0.8633-1.1465-2.0693-1.1465-3.6162
				c0-1.582,0.3711-2.7842,1.1152-3.6084c0.7441-0.8223,1.6855-1.2344,2.8223-1.2344c1.043,0,1.9453,0.4336,2.707,1.3008v-4.6406
				h2.4688V43.6004z M151.5182,38.7312c0,0.9961,0.1387,1.7168,0.4141,2.1621c0.3984,0.6445,0.9551,0.9668,1.6699,0.9668
				c0.5684,0,1.0508-0.2422,1.4492-0.7246c0.3984-0.4844,0.5977-1.2061,0.5977-2.167c0-1.0723-0.1934-1.8438-0.5801-2.3154
				s-0.8809-0.708-1.4844-0.708c-0.5859,0-1.0771,0.2334-1.4727,0.6982C151.7164,37.1101,151.5182,37.8054,151.5182,38.7312z"/>
		</g>
	</g>
</g>
</svg>
