<?xml version="1.0" encoding="utf-8"?>
<!-- Generator: Adobe Illustrator 21.0.2, SVG Export Plug-In . SVG Version: 6.00 Build 0)  -->
<svg version="1.1" id="Capa_1" xmlns="http://www.w3.org/2000/svg" xmlns:xlink="http://www.w3.org/1999/xlink" x="0px" y="0px"
	 viewBox="0 0 582.8831 158.101" style="enable-background:new 0 0 582.8831 158.101;" xml:space="preserve">
<style type="text/css">
	.st0{fill-rule:evenodd;clip-rule:evenodd;fill:#DDDDDD;}
	.st1{fill:#3B86B1;}
	.st2{opacity:0.25;fill-rule:evenodd;clip-rule:evenodd;fill:#020202;}
	.st3{fill:#FFFFFF;}
	.st4{opacity:0.5;}
	.st5{fill-rule:evenodd;clip-rule:evenodd;fill:#A8A8A8;}
	.st6{fill-rule:evenodd;clip-rule:evenodd;fill:#FFFFFF;}
	.st7{fill-rule:evenodd;clip-rule:evenodd;fill:#3B86B1;}
	.st8{opacity:0.5;fill:#2C6882;}
	.st9{opacity:0.75;fill-rule:evenodd;clip-rule:evenodd;fill:#282828;}
	.st10{opacity:0.5;fill:#FFFFFF;}
	.st11{fill-rule:evenodd;clip-rule:evenodd;fill:none;stroke:#FFFFFF;stroke-miterlimit:10;}
	.st12{fill:none;stroke:#FFFFFF;stroke-miterlimit:10;}
	.st13{fill:#FFFFFF;stroke:#3B86B1;stroke-width:1.7139;stroke-miterlimit:10;}
	.st14{fill-rule:evenodd;clip-rule:evenodd;}
	.st15{opacity:0.85;fill:#FFFFFF;}
	.st16{opacity:0.5;fill-rule:evenodd;clip-rule:evenodd;}
	.st17{fill-rule:evenodd;clip-rule:evenodd;fill:#FEFEFE;}
	.st18{fill:#312767;}
	.st19{opacity:0.48;}
	.st20{opacity:0.25;}
	.st21{fill-rule:evenodd;clip-rule:evenodd;fill:#020202;}
	.st22{fill:#757575;}
	.st23{opacity:0.25;clip-path:url(#XMLID_2325_);}
	.st24{fill:#4D4789;}
	.st25{fill:#FFFFFF;stroke:#312767;stroke-miterlimit:10;}
	.st26{fill:#FFFFFF;stroke:#3B86B1;stroke-miterlimit:10;}
	.st27{fill:#ACABC9;}
	.st28{fill-rule:evenodd;clip-rule:evenodd;fill:#312767;}
	.st29{opacity:0.77;fill:#312767;}
	.st30{opacity:0.25;clip-path:url(#XMLID_2326_);}
	.st31{fill:#54518C;}
	.st32{fill:#FFFFFF;stroke:#FFFFFF;stroke-miterlimit:10;}
	.st33{opacity:0.25;fill-rule:evenodd;clip-rule:evenodd;fill:#FFFFFF;}
	.st34{fill:#D4A800;}
	.st35{fill:#00AEB3;}
	.st36{fill:#38353B;}
	.st37{fill:#FF8400;}
	.st38{fill:#BF3900;}
	.st39{fill:#00AA9C;}
	.st40{opacity:0.25;clip-path:url(#XMLID_2327_);}
	.st41{fill:none;stroke:#ACABC9;stroke-width:5;stroke-miterlimit:10;}
	.st42{opacity:0.25;clip-path:url(#XMLID_2328_);}
	.st43{fill:#DDDDDD;}
	.st44{opacity:0.25;clip-path:url(#XMLID_2329_);}
	.st45{fill-rule:evenodd;clip-rule:evenodd;fill:#FFFFFF;stroke:#FFFFFF;stroke-miterlimit:10;}
	.st46{fill:#F79748;}
	.st47{fill:#FF7900;}
	.st48{fill:#DD7105;}
	.st49{fill:#02897C;}
	.st50{fill:#0EAD9A;}
	.st51{fill:#28C6AF;}
	.st52{fill:#4FE0C7;}
	.st53{fill:#D37D00;}
	.st54{fill:#D14600;}
	.st55{fill:#E5B92E;}
	.st56{fill:#DD571B;}
	.st57{fill:#E28A17;}
	.st58{opacity:0.25;clip-path:url(#XMLID_2330_);}
	.st59{opacity:0.77;fill:#FFFFFF;}
	.st60{fill:#50565B;stroke:#656C70;stroke-miterlimit:10;}
	.st61{fill:#808589;stroke:#656C70;stroke-miterlimit:10;}
	.st62{fill:#252728;stroke:#000000;stroke-miterlimit:10;}
	.st63{fill:#1A1B1C;stroke:#000000;stroke-miterlimit:10;}
	.st64{fill:#A0A6AA;}
	.st65{fill:#262C35;stroke:#161A1E;stroke-miterlimit:10;}
	.st66{fill:#181D23;}
	.st67{fill:#EABA96;stroke:#E0AA86;stroke-miterlimit:10;}
	.st68{fill:#E0AA86;}
	.st69{stroke:#000000;stroke-width:0.75;stroke-linecap:square;stroke-linejoin:bevel;stroke-miterlimit:10;}
	.st70{fill:#0F1C3F;stroke:#182951;stroke-miterlimit:10;}
	.st71{fill:#132354;stroke:#3F6093;stroke-miterlimit:10;}
	.st72{fill:#0F1C3F;}
	.st73{fill:none;stroke:#3F6093;stroke-width:0.75;stroke-miterlimit:10;}
	.st74{fill:#DBA682;}
	.st75{fill:none;stroke:#E0AA86;stroke-miterlimit:10;}
	.st76{fill:none;stroke:#E0AA86;stroke-linejoin:bevel;stroke-miterlimit:10;}
	.st77{fill:#8A0A8E;stroke:#AC34B2;stroke-miterlimit:10;}
	.st78{fill:#810C87;}
	.st79{fill:#680B6D;}
	.st80{fill:#AC34B2;stroke:#AC34B2;stroke-width:0.5;stroke-miterlimit:10;}
	.st81{fill:none;stroke:#959DA0;stroke-width:0.5;stroke-miterlimit:10;}
	.st82{fill:#959DA0;stroke:#959DA0;stroke-width:0.5;stroke-miterlimit:10;}
	.st83{fill:none;stroke:#AC34B2;stroke-miterlimit:10;}
	.st84{fill:#282828;stroke:#000000;stroke-miterlimit:10;}
	.st85{fill:#EABA96;stroke:#E0AA86;stroke-width:0.5;stroke-miterlimit:10;}
	.st86{fill:#B7896A;}
	.st87{stroke:#000000;stroke-miterlimit:10;}
	.st88{fill:#C1A578;}
	.st89{stroke:#000000;stroke-width:0.25;stroke-linecap:round;stroke-linejoin:round;stroke-miterlimit:10;}
	.st90{fill:#FFFFFF;stroke:#000000;stroke-width:0.25;stroke-linecap:round;stroke-linejoin:round;stroke-miterlimit:10;}
	.st91{fill:#70582D;}
	.st92{stroke:#000000;stroke-linecap:round;stroke-linejoin:round;stroke-miterlimit:10;}
	.st93{fill:none;stroke:#D8A27D;stroke-width:0.75;stroke-miterlimit:10;}
	.st94{fill:#561409;}
	.st95{fill:#BA2A13;}
	.st96{fill:#9E3025;stroke:#4C2311;stroke-width:0.25;stroke-miterlimit:10;}
	.st97{fill:#871D08;stroke:#4C2311;stroke-width:0.25;stroke-miterlimit:10;}
	.st98{fill:#DDAC8A;}
	.st99{fill:#A5ABAD;stroke:#959DA0;stroke-width:0.5;stroke-miterlimit:10;}
	.st100{fill:#B1BABC;}
	.st101{fill:#FCFCFC;}
	.st102{fill:none;stroke:#153847;stroke-width:5;stroke-miterlimit:10;}
	.st103{fill:#3CA7AF;}
	.st104{fill:#3DAD8D;}
	.st105{fill:#3DAA61;}
	.st106{fill:#67A53F;}
	.st107{fill:#95A340;}
	.st108{opacity:0.25;clip-path:url(#XMLID_2331_);}
	.st109{opacity:0.25;clip-path:url(#XMLID_2332_);}
	.st110{opacity:0.25;clip-path:url(#XMLID_2333_);}
	.st111{clip-path:url(#SVGID_2_);}
	.st112{fill:none;stroke:#3F6093;stroke-miterlimit:10;}
	.st113{fill:none;stroke:#3F6093;stroke-width:0.75;stroke-linecap:round;stroke-linejoin:round;}
	.st114{fill:none;stroke:#3F6093;stroke-width:0.75;stroke-linecap:round;stroke-linejoin:round;stroke-dasharray:0.9892,0.9892;}
	
		.st115{fill:none;stroke:#3F6093;stroke-width:0.75;stroke-linecap:round;stroke-linejoin:round;stroke-miterlimit:10;stroke-dasharray:1;}
	.st116{fill:#EAEAEA;stroke:#FFFFFF;stroke-width:0.25;stroke-miterlimit:10;}
	.st117{fill:#D8D8D8;}
	.st118{fill:#282828;stroke:#000000;stroke-width:0.75;stroke-miterlimit:10;}
	.st119{opacity:0.33;fill:#FFFFFF;}
	.st120{fill:none;stroke:#000000;stroke-width:1.5;stroke-linecap:round;stroke-linejoin:round;stroke-miterlimit:10;}
	.st121{clip-path:url(#SVGID_4_);}
	.st122{opacity:0.64;}
	.st123{fill:#1D1D1B;}
	.st124{fill:#C9C9C9;}
</style>
<path class="st27" d="M558.538,158.101H24.3451C10.8997,158.101,0,147.2013,0,133.7559V0h582.8831v133.7559
	C582.8831,147.2013,571.9834,158.101,558.538,158.101z"/>
<g>
	<defs>
		<rect id="SVGID_3_" x="15.1426" y="-661.944" width="256.6336" height="540.3579"/>
	</defs>
	<clipPath id="SVGID_2_">
		<use xlink:href="#SVGID_3_"  style="overflow:visible;"/>
	</clipPath>
	<g class="st111">
		<path class="st67" d="M25.6051,34.6257c0,0,13.2014-7.3212,25.7971-11.5226c0,0,9.061-2.2577,10.3226-5.2525V2.485l19.9346-2.4897
			c0,0-2.8977,16.3163-2.2563,27.6204l0.4668,5.7575l-7.2344,4.746l-9.7269,1.9451l-9.8033,3.1122c0,0-9.5699,3.6568-9.8811,3.7346
			c-0.3112,0.0778-12.7599,1.0115-12.7599,1.0115l-6.4577-3.579c0,0-0.778-3.8902-0.778-4.2792S25.6051,34.6257,25.6051,34.6257z"/>
		<path class="st67" d="M72.7119,19.5241c0,0,2.6453,3.6568-1.0893,6.3799"/>
		<path class="st67" d="M195.8279,47.4914c0,0-11.7443-9.4841-23.4289-15.7908c0,0-8.5372-3.7836-9.2645-6.9508l2.6447-15.1363
			l-19.2086-5.8837c0,0,0.0462,16.5715-2.5313,27.5966l-1.4508,5.5912l6.3095,5.9204l9.247,3.5902l9.1214,4.753
			c0,0,8.7977,5.2494,9.0909,5.3796s12.3954,3.1925,12.3954,3.1925l6.9774-2.4141c0,0,1.436-3.6982,1.5029-4.0814
			C197.2998,52.8747,195.8279,47.4914,195.8279,47.4914z"/>
		<path class="st67" d="M152.0233,24.5073c0,0-3.2352,3.1469-0.0251,6.4722"/>
		<path class="st68" d="M61.7248,10.7323l18.3701-1.2449l-0.8474,5.2129c0,0-8.0138-5.2129-14.6272,0
			c0,0,1.1671,5.2907-3.8902,6.4577c0,0-37.4237,14.0825-31.8997,18.5952c0,0,2.4897,4.357,13.3823,4.9017
			c0,0-9.1809,4.4719-16.1832-2.8991c0,0-4.0906-4.2229,1.1447-7.9755c0,0,20.7183-11.6108,30.2104-14.2561
			C57.3845,19.5241,62.0192,18.2793,61.7248,10.7323z"/>
		<path class="st69" d="M80.3188,35.8706c-4.3649,7.143-10.6882,7.3389-10.6882,7.3389c-13.1354,1.1829-19.977,6.2759-19.977,6.2759
			l-4.9813,2.5245c-13.4903,5.1764-24.3026-1.0065-24.3026-1.0065c-3.6797-1.6118-4.9559-3.6294-5.1853-5.4478l-0.0419,0.0331
			v3.4234c0,0,2.7564,7.1468,20.4568,6.8468c0,0,7.4692-0.3081,14.9384-4.9779c0,0,3.6437-2.5021,8.6973-4.2807
			c2.56-0.901,7.63-1.5291,10.5979-1.7904c3.5203-0.3099,7.9486-1.6822,10.4858-6.2009V35.8706z"/>
		<path class="st70" d="M25.6051,34.6257c0,0-6.6557,2.8711-8.9256,6.1278c0,0-5.2633,6.328,3.6902,10.2497
			c0,0,10.8123,6.1829,24.3026,1.0065l4.9813-2.5244c0,0,8.2755-6.231,19.2863-6.2087c0,0,7.2267-0.3872,11.1549-7.406
			l-0.119-7.5885c0,0-1.4805,9.4223-17.4562,9.8372c0,0-6.6492,0-14.2172,4.772c0,0-13.092,7.5211-22.2729-1.1356
			C23.1579,39.0481,25.6051,34.6257,25.6051,34.6257z"/>
		<path class="st68" d="M163.0424,21.7286c0,0-7.2098-4.772-14.0047,1.5561c0,0-2.9068,6.764-1.7117,11.93
			c0,0,2.0748,5.7575,11.8262,8.0916c0,0,8.6103,1.9205,10.4257,5.4988h-5.4982l-13.5018-2.8063l-6.0529-4.6117l-1.1646-9.5028
			c0,0,2.2681-10.0093,2.4685-15.7881s0,0,0,0l18.2425,0.9669L163.0424,21.7286z"/>
		<path class="st69" d="M141.7164,39.3005c3.1976,8.6221,12.3193,9.6789,12.3193,9.6789
			c10.3404,2.5342,15.5449,9.0106,15.5449,9.0106l4.4724,3.3441c12.398,7.4211,24.1132,3.1914,24.1132,3.1914
			c3.9022-0.9544,5.5066-2.7223,6.0456-4.474l0.0356,0.0398l-0.5892,3.3723c0,0-3.9454,6.5657-21.33,3.2236
			c0,0-5.4254-1.1803-11.1199-5.2739c-0.9131-0.6564-3.376-3.1042-4.7047-4.3503c-2.2898-2.1475-6.633-5.3134-13.3061-6.6289
			c0,0-9.605-0.6443-11.9523-8.4365L141.7164,39.3005z"/>
		<path class="st70" d="M195.8279,47.4914c0,0,6.0622,3.9738,7.7377,7.5726c0,0,4.0956,7.1395-5.3993,9.4616
			c0,0-11.7151,4.2297-24.1131-3.1914l-4.4725-3.3441c0,0-4.8266-7.1887-16.4511-9.1264c0,0-10.1606-1.4079-11.1925-9.5245
			l1.4234-7.4548c0,0-0.1634,9.5365,15.5026,12.6949c0,0,6.55,1.1444,13.1837,7.1478c0,0,11.6022,9.6622,22.136,2.7149
			C197.4774,52.269,195.8279,47.4914,195.8279,47.4914z"/>
		<path id="Pantalon_1_" class="st71" d="M96.2206-302.7531c0,0-23.3359,76.0954-22.9977,134.266c0,0-4.3966,14.5427-2.0292,24.3505
			c0,0-17.3881,90.1358-10.2301,154.2463l19.7688-1.2862c0,0,32.3983-111.3614,32.7365-140.4467
			c0,0,28.7471-74.0661,33.1437-114.3121c0,0,4.0584,108.2245,7.1022,127.8402c0,0-1.691,4.3966,0,8.7932
			c0,0-14.0136,31.9598-9.9678,125.9471l23.3412,1.2449L190.917-86.304c0,0,11.1606-9.8078,8.7932-34.1584
			c0,0,16.2337-62.2291,16.2337-98.7549c0,0,5.2097-57.4356-8.0485-87.0576l-62.2975-7.6389L96.2206-302.7531z"/>
		<path class="st72" d="M148.4727-268.2565l-1.8601,22.3213c0,0,5.524,117.1305,7.6659,127.8402c0,0-1.3528,4.6221,0,9.0187
			c0,0-14.2661,36.7138-9.8313,125.0992l22.0186,1.1671l5.4292-22.0431c0,0-23.0129,15.4297-23.0129-12.1129
			c0,0,0.7743-32.6432,15.6552-94.7032c0,0-3.7202-4.7348-1.0146-11.3298L148.4727-268.2565z"/>
		<path class="st72" d="M90.0484-277.8107c0,0-19.1929,79.6746-15.36,109.2109c0,0-5.123,13.1588-2.4174,24.6576
			c0,0-9.7514,56.5376-11.6187,95.7508c-1.0302,21.6338,1.0725,57.6787,1.0725,57.6787l18.3701-1.2449l7.8373-28.0683
			c0,0-15.3103-2.0458-15.3103-14.672c0,0-20.3202-2.386,7.7033-101.6346c0,0-4.7299-8.3423-1.0122-18.7138
			c0,0,0.7596-69.7186,10.7355-98.5416s0,0,0,0s16.2475-2.2801,21.2995-32.023c5.052-29.7429,0,0,0,0l-12.0741-9.9018
			L90.0484-277.8107z"/>
	</g>
</g>
</svg>
