<?xml version="1.0" encoding="utf-8"?>
<!-- Generator: Adobe Illustrator 21.0.2, SVG Export Plug-In . SVG Version: 6.00 Build 0)  -->
<svg version="1.1" id="Capa_1" xmlns="http://www.w3.org/2000/svg" xmlns:xlink="http://www.w3.org/1999/xlink" x="0px" y="0px"
	 viewBox="0 0 135.6548 135.137" style="enable-background:new 0 0 135.6548 135.137;" xml:space="preserve">
<style type="text/css">
	.st0{fill-rule:evenodd;clip-rule:evenodd;fill:#DDDDDD;}
	.st1{fill:#3B86B1;}
	.st2{opacity:0.25;fill-rule:evenodd;clip-rule:evenodd;fill:#020202;}
	.st3{fill:#FFFFFF;}
	.st4{opacity:0.5;}
	.st5{fill-rule:evenodd;clip-rule:evenodd;fill:#A8A8A8;}
	.st6{fill-rule:evenodd;clip-rule:evenodd;fill:#FFFFFF;}
	.st7{fill-rule:evenodd;clip-rule:evenodd;fill:#3B86B1;}
	.st8{opacity:0.5;fill:#2C6882;}
	.st9{opacity:0.75;fill-rule:evenodd;clip-rule:evenodd;fill:#282828;}
	.st10{opacity:0.5;fill:#FFFFFF;}
	.st11{fill-rule:evenodd;clip-rule:evenodd;fill:none;stroke:#FFFFFF;stroke-miterlimit:10;}
	.st12{fill:none;stroke:#FFFFFF;stroke-miterlimit:10;}
	.st13{fill:#FFFFFF;stroke:#3B86B1;stroke-width:1.7139;stroke-miterlimit:10;}
	.st14{fill-rule:evenodd;clip-rule:evenodd;}
	.st15{opacity:0.85;fill:#FFFFFF;}
	.st16{opacity:0.5;fill-rule:evenodd;clip-rule:evenodd;}
	.st17{fill-rule:evenodd;clip-rule:evenodd;fill:#FEFEFE;}
	.st18{fill:#312767;}
	.st19{opacity:0.48;}
	.st20{opacity:0.25;}
	.st21{fill-rule:evenodd;clip-rule:evenodd;fill:#020202;}
	.st22{fill:#757575;}
	.st23{opacity:0.25;clip-path:url(#XMLID_2396_);}
	.st24{fill:#4D4789;}
	.st25{fill:#FFFFFF;stroke:#312767;stroke-miterlimit:10;}
	.st26{fill:#3B86B1;stroke:#3B86B1;stroke-miterlimit:10;}
	.st27{fill:#FFFFFF;stroke:#FFFFFF;stroke-miterlimit:10;}
	.st28{fill:#ACABC9;}
	.st29{fill-rule:evenodd;clip-rule:evenodd;fill:#312767;}
	.st30{opacity:0.77;fill:#312767;}
	.st31{opacity:0.25;clip-path:url(#XMLID_2397_);}
	.st32{fill:#9490B2;stroke:#2D2D2D;stroke-width:0.25;stroke-miterlimit:10;}
	.st33{fill:#312767;stroke:#2D2D2D;stroke-width:0.25;stroke-miterlimit:10;}
	.st34{fill:#FCFCFC;}
	.st35{fill:#FFFFFF;stroke:#2D2D2D;stroke-width:0.25;stroke-miterlimit:10;}
	.st36{fill-rule:evenodd;clip-rule:evenodd;fill:#484849;stroke:#2D2D2D;stroke-width:0.25;stroke-miterlimit:10;}
	.st37{fill-rule:evenodd;clip-rule:evenodd;fill:#312767;stroke:#2D2D2D;stroke-width:0.25;stroke-miterlimit:10;}
	.st38{fill-rule:evenodd;clip-rule:evenodd;fill:#FFFFFF;stroke:#2D2D2D;stroke-width:0.25;stroke-miterlimit:10;}
	.st39{fill:#484849;stroke:#2D2D2D;stroke-width:0.25;stroke-miterlimit:10;}
	.st40{fill:#54518C;}
	.st41{opacity:0.25;fill-rule:evenodd;clip-rule:evenodd;fill:#FFFFFF;}
	.st42{fill:#D4A800;}
	.st43{fill:#00AEB3;}
	.st44{fill:#38353B;}
	.st45{fill:#FF8400;}
	.st46{fill:#BF3900;}
	.st47{fill:#00AA9C;}
	.st48{opacity:0.25;clip-path:url(#XMLID_2400_);}
	.st49{fill:none;stroke:#ACABC9;stroke-width:5;stroke-miterlimit:10;}
	.st50{opacity:0.25;clip-path:url(#XMLID_2403_);}
	.st51{fill:#DDDDDD;}
	.st52{opacity:0.25;fill-rule:evenodd;clip-rule:evenodd;fill:#FFFFFF;stroke:#303030;stroke-width:0.5;stroke-miterlimit:10;}
	.st53{fill:#3B86B1;stroke:#303030;stroke-width:0.5;stroke-miterlimit:10;}
	.st54{fill:#D4A800;stroke:#303030;stroke-width:0.5;stroke-miterlimit:10;}
	.st55{fill:#00AEB3;stroke:#303030;stroke-width:0.5;stroke-miterlimit:10;}
	.st56{fill:#FF8400;stroke:#303030;stroke-width:0.5;stroke-miterlimit:10;}
	.st57{fill:#BF3900;stroke:#303030;stroke-width:0.5;stroke-miterlimit:10;}
	.st58{fill:#00AA9C;stroke:#303030;stroke-width:0.5;stroke-miterlimit:10;}
	.st59{opacity:0.25;clip-path:url(#XMLID_2404_);}
	.st60{fill-rule:evenodd;clip-rule:evenodd;fill:#FFFFFF;stroke:#FFFFFF;stroke-miterlimit:10;}
	.st61{fill:#F79748;}
	.st62{fill:#FF7900;}
	.st63{fill:#DD7105;}
	.st64{fill:#02897C;}
	.st65{fill:#0EAD9A;}
	.st66{fill:#28C6AF;}
	.st67{fill:#4FE0C7;}
	.st68{fill:#00AA9C;stroke:#353535;stroke-width:0.5;stroke-miterlimit:10;}
	.st69{fill:#02897C;stroke:#353535;stroke-width:0.5;stroke-miterlimit:10;}
	.st70{fill:#0EAD9A;stroke:#353535;stroke-width:0.5;stroke-miterlimit:10;}
	.st71{fill:#28C6AF;stroke:#353535;stroke-width:0.5;stroke-miterlimit:10;}
	.st72{fill:#4FE0C7;stroke:#353535;stroke-width:0.5;stroke-miterlimit:10;}
	.st73{fill:#D37D00;}
	.st74{fill:#D14600;}
	.st75{fill:#E5B92E;}
	.st76{fill:#DD571B;}
	.st77{fill:#E28A17;}
	.st78{opacity:0.25;clip-path:url(#XMLID_2410_);}
	.st79{opacity:0.77;fill:#FFFFFF;}
	.st80{fill:#50565B;stroke:#656C70;stroke-miterlimit:10;}
	.st81{fill:#808589;stroke:#656C70;stroke-miterlimit:10;}
	.st82{fill:#252728;stroke:#000000;stroke-miterlimit:10;}
	.st83{fill:#1A1B1C;stroke:#000000;stroke-miterlimit:10;}
	.st84{fill:#A0A6AA;}
	.st85{fill:#262C35;stroke:#161A1E;stroke-miterlimit:10;}
	.st86{fill:#181D23;}
	.st87{fill:#EABA96;stroke:#E0AA86;stroke-miterlimit:10;}
	.st88{fill:#E0AA86;}
	.st89{stroke:#000000;stroke-width:0.75;stroke-linecap:square;stroke-linejoin:bevel;stroke-miterlimit:10;}
	.st90{fill:#0F1C3F;stroke:#182951;stroke-miterlimit:10;}
	.st91{fill:#132354;stroke:#3F6093;stroke-miterlimit:10;}
	.st92{fill:#0F1C3F;}
	.st93{fill:none;stroke:#3F6093;stroke-width:0.75;stroke-miterlimit:10;}
	.st94{fill:#DBA682;}
	.st95{fill:none;stroke:#E0AA86;stroke-miterlimit:10;}
	.st96{fill:none;stroke:#E0AA86;stroke-linejoin:bevel;stroke-miterlimit:10;}
	.st97{fill:#8A0A8E;stroke:#AC34B2;stroke-miterlimit:10;}
	.st98{fill:#810C87;}
	.st99{fill:#680B6D;}
	.st100{fill:#AC34B2;stroke:#AC34B2;stroke-width:0.5;stroke-miterlimit:10;}
	.st101{fill:none;stroke:#959DA0;stroke-width:0.5;stroke-miterlimit:10;}
	.st102{fill:#959DA0;stroke:#959DA0;stroke-width:0.5;stroke-miterlimit:10;}
	.st103{fill:none;stroke:#AC34B2;stroke-miterlimit:10;}
	.st104{fill:#282828;stroke:#000000;stroke-miterlimit:10;}
	.st105{fill:#EABA96;stroke:#E0AA86;stroke-width:0.5;stroke-miterlimit:10;}
	.st106{fill:#B7896A;}
	.st107{stroke:#000000;stroke-miterlimit:10;}
	.st108{fill:#C1A578;}
	.st109{stroke:#000000;stroke-width:0.25;stroke-linecap:round;stroke-linejoin:round;stroke-miterlimit:10;}
	.st110{fill:#FFFFFF;stroke:#000000;stroke-width:0.25;stroke-linecap:round;stroke-linejoin:round;stroke-miterlimit:10;}
	.st111{fill:#70582D;}
	.st112{stroke:#000000;stroke-linecap:round;stroke-linejoin:round;stroke-miterlimit:10;}
	.st113{fill:none;stroke:#D8A27D;stroke-width:0.75;stroke-miterlimit:10;}
	.st114{fill:#561409;}
	.st115{fill:#BA2A13;}
	.st116{fill:#9E3025;stroke:#4C2311;stroke-width:0.25;stroke-miterlimit:10;}
	.st117{fill:#871D08;stroke:#4C2311;stroke-width:0.25;stroke-miterlimit:10;}
	.st118{fill:#DDAC8A;}
	.st119{fill:#A5ABAD;stroke:#959DA0;stroke-width:0.5;stroke-miterlimit:10;}
	.st120{fill:#B1BABC;}
	.st121{fill:none;stroke:#153847;stroke-width:5;stroke-miterlimit:10;}
	.st122{fill:#3CA7AF;}
	.st123{fill:#3DAD8D;}
	.st124{fill:#3DAA61;}
	.st125{fill:#67A53F;}
	.st126{fill:#95A340;}
	.st127{opacity:0.25;clip-path:url(#XMLID_2411_);}
	.st128{opacity:0.25;clip-path:url(#XMLID_2416_);}
	.st129{fill:#F79748;stroke:#303030;stroke-width:0.5;stroke-miterlimit:10;}
	.st130{fill:#FF7900;stroke:#303030;stroke-width:0.5;stroke-miterlimit:10;}
	.st131{fill:#DD7105;stroke:#303030;stroke-width:0.5;stroke-miterlimit:10;}
	.st132{opacity:0.25;clip-path:url(#XMLID_2422_);}
	.st133{clip-path:url(#SVGID_2_);}
	.st134{fill:none;stroke:#3F6093;stroke-miterlimit:10;}
	.st135{fill:none;stroke:#3F6093;stroke-width:0.75;stroke-linecap:round;stroke-linejoin:round;}
	.st136{fill:none;stroke:#3F6093;stroke-width:0.75;stroke-linecap:round;stroke-linejoin:round;stroke-dasharray:0.9892,0.9892;}
	
		.st137{fill:none;stroke:#3F6093;stroke-width:0.75;stroke-linecap:round;stroke-linejoin:round;stroke-miterlimit:10;stroke-dasharray:1;}
	.st138{fill:#EAEAEA;stroke:#FFFFFF;stroke-width:0.25;stroke-miterlimit:10;}
	.st139{fill:#D8D8D8;}
	.st140{fill:#282828;stroke:#000000;stroke-width:0.75;stroke-miterlimit:10;}
	.st141{opacity:0.33;fill:#FFFFFF;}
	.st142{fill:none;stroke:#000000;stroke-width:1.5;stroke-linecap:round;stroke-linejoin:round;stroke-miterlimit:10;}
	.st143{clip-path:url(#SVGID_4_);}
	.st144{opacity:0.64;}
	.st145{fill:#1D1D1B;}
	.st146{fill:#C9C9C9;}
	.st147{fill:#545477;}
</style>
<g>
	<circle id="XMLID_2362_" class="st41" cx="68.0863" cy="67.5685" r="67.5685"/>
	<g>
		<path class="st55" d="M133.9106,24.7083c-1.2974-1.2983-3.401-1.2954-4.6974,0c-0.3851,0.3891-0.9998,0.0895-1.6406-0.5484
			c-3.8115-3.7852-16.4332-16.3331-16.8914-16.8991c-0.5398-0.6653-0.4386-1.1583-0.2567-1.3402
			c1.2965-1.2974,1.2993-3.4,0.0039-4.6954c-1.2983-1.2993-3.402-1.2955-4.6983,0c-9.8559,9.92-12.4293,22.8258-13.8541,35.4165
			c-0.0515,0.4502-0.2256,0.6477-0.6243,0.6847c-14.4949,1.4413-29.798,2.4275-40.711,13.217
			C39.752,61.4572,38.7686,76.7574,37.3274,91.2504c-0.0302,0.3229-0.3871,0.5933-0.813,0.6437
			C23.9655,93.32,11.1152,95.906,1.2223,105.7326c-1.2955,1.2965-1.2975,3.3991,0,4.6974c1.2945,1.2955,3.401,1.2955,4.6974,0
			c0.3073-0.3102,0.6224-0.6107,0.9404-0.9015c0.4814-0.4426,0.7946-0.5155,1.4793,0.1672
			c3.4408,3.4351,17.0137,16.9885,17.3288,17.3299c0.3599,0.3881,0.1897,0.9735,0.004,1.1797
			c-0.3112,0.3423-0.6332,0.6808-0.9667,1.0094c-1.2946,1.2975-1.2975,3.4001,0,4.6984c1.2954,1.2955,3.401,1.2955,4.6973,0
			c9.8384-9.9063,12.4196-22.7781,13.8453-35.3474c0.0594-0.5136,0.1517-0.7139,0.6351-0.7606
			c14.4939-1.4385,29.7922-2.4236,40.7062-13.2131c10.7895-10.914,11.7795-26.2142,13.217-40.709
			c0.0359-0.3988,0.2286-0.5728,0.6914-0.6254c12.5868-1.4257,25.4916-3.9981,35.4126-13.8521
			C135.207,28.1104,135.207,26.0038,133.9106,24.7083z M32.84,116.0564c-0.6594,1.8079-1.4218,3.5556-2.3137,5.2284
			c-0.1167,0.2237-0.5894,0.4357-0.9989,0.0272c-2.9371-2.941-15.056-15.0649-15.6036-15.6017
			c-0.6214-0.6127-0.1857-1.0445,0.0924-1.1914c1.6737-0.8802,3.4214-1.6369,5.2323-2.2855c0.281-0.1012,1.0075-0.1614,1.3965,0.25
			c0.3297,0.3501,9.2218,9.2266,11.835,11.8379C33.1862,115.0264,33.1142,115.3046,32.84,116.0564z M36.489,99.2254
			c-0.3035,2.478-0.6604,4.9133-1.1087,7.2844c-0.0603,0.3171-0.2772,0.9045-0.7392,0.3969
			c-0.3686-0.4065-4.6644-4.6819-6.3215-6.3275c-0.3988-0.3968,0.0321-0.7761,0.3715-0.8392
			c2.3342-0.4387,4.7305-0.7887,7.1658-1.0883C36.2391,98.6048,36.5435,98.775,36.489,99.2254z M47.0908,90.8342
			c-0.7663,0.0739-1.5337,0.1478-2.3089,0.2188c-0.6068,0.0574-0.7333-0.3316-0.6914-0.781c0.069-0.7547,0.142-1.5055,0.2139-2.2524
			c0.0263-0.2791,0.1994-0.7372,0.7373-0.1838c0.3413,0.354,1.4345,1.4424,2.1804,2.1854
			C47.6422,90.4403,47.3796,90.805,47.0908,90.8342z M63.9578,88.2355c-2.1581,0.5485-4.4046,0.9959-6.731,1.3645
			c-0.2441,0.0379-0.7849,0.0341-1.2906-0.4425c-0.4221-0.4007-7.6015-7.5966-9.848-9.85c-0.676-0.675-0.604-1.1048-0.5019-1.7332
			c0.3473-2.124,0.7567-4.181,1.2556-6.164c0.1857-0.7469,0.6243-0.6069,1.0591-0.2373c0,0,15.7067,15.7524,16.1502,16.1521
			C64.4937,87.7249,64.2253,88.1675,63.9578,88.2355z M77.2691,82.1969c-1.4365,1.1058-2.9838,2.0599-4.6244,2.8885
			c-0.6167,0.3122-0.9979,0.2597-1.5387-0.281c-3.6655-3.6646-20.5792-20.5754-20.9205-20.9196
			c-0.3822-0.387-0.3249-1.0133-0.212-1.2439c0.8432-1.6912,1.8158-3.2853,2.9497-4.7646c0.1906-0.247,0.8685-0.3268,1.0504-0.1449
			c0,0,22.7539,22.7227,23.1857,23.1847C77.5901,81.3771,77.4889,82.0287,77.2691,82.1969z M85.7264,71.3257
			c-0.7382,1.631-1.5882,3.1754-2.5714,4.6245c-0.1877,0.2743-0.8199,0.5699-1.4209-0.035
			c-0.602-0.6049-22.9727-22.9717-22.9727-22.9717c-0.208-0.2081-0.1419-0.5738,0.1936-0.8043
			c1.5153-1.0514,3.1345-1.9538,4.8511-2.7299c0.3161-0.143,0.957-0.3725,1.7739,0.4026
			c0.7158,0.6798,15.9722,15.9615,19.7311,19.7273C85.8383,70.0692,85.8684,71.0106,85.7264,71.3257z M89.8618,55.4488
			c-0.3336,2.3526-0.7324,4.6352-1.2274,6.8322c-0.0584,0.2743-0.3151,0.6779-0.7935,0.2169
			c-0.4736-0.461-14.67-14.6622-15.1826-15.1855c-0.5135-0.5242-0.0749-0.7547,0.2024-0.8169
			c2.0773-0.4659,4.2326-0.8461,6.4509-1.169c0.3773-0.0565,0.9726-0.3346,1.6961,0.391c0.6059,0.6049,6.4335,6.4334,8.3533,8.3532
			C89.7421,54.452,89.8987,55.192,89.8618,55.4488z M90.9334,46.0656l-1.8624-1.8625c0.6798-0.0651,1.3655-0.1274,2.0511-0.1915
			C91.0589,44.6982,90.9957,45.3857,90.9334,46.0656z M108.4472,34.9843c-2.3293,0.4989-4.7403,0.8812-7.1872,1.2138
			c-2.4771,0.3394-2.6503,0.0369-2.3244-2.3225c0.3287-2.4245,0.707-4.8103,1.1982-7.118c0.0506-0.2432,0.4026-0.5457,0.7878-0.1614
			c1.8926,1.8799,7.4741,7.4293,7.6841,7.688C108.8586,34.5953,108.6836,34.9337,108.4472,34.9843z M122.0211,30.1391
			c-1.3596,0.7605-2.7708,1.4345-4.2267,2.0326c-0.4094,0.1673-1.2993,0.2976-2.0677-0.3492
			c-0.6263-0.5261-9.0311-8.9941-12.1189-12.1112c-0.7032-0.7061-0.7887-2.024-0.6079-2.4606
			c0.6079-1.4715,1.2936-2.8963,2.0687-4.2676c0.213-0.3725,1.0202-0.742,1.6406-0.1235
			c3.4341,3.4175,14.6837,14.6262,15.4383,15.4421C123.0336,29.2647,122.4364,29.9047,122.0211,30.1391z"/>
		<g>
			<path class="st44" d="M36.8654,95.9556c0.0555-0.5291,0.1108-1.0591,0.1624-1.5901c0.0622-0.6273-0.4337-0.6157-0.6924-0.5865
				c-12.2795,1.4141-24.413,3.9369-33.7981,13.2637c-0.5748,0.5747-0.5748,1.5016,0,2.0754c0.57,0.5718,1.4957,0.5718,2.0657,0.0029
				c8.0294-8.0984,18.9775-10.8226,31.5098-12.3544C36.6505,96.7006,36.8226,96.3418,36.8654,95.9556z"/>
			<path class="st44" d="M109.1173,2.538c-0.5747-0.5737-1.5016-0.5737-2.0686-0.0058
				c-11.1036,11.1716-12.5761,26.2249-14.0067,40.89c-1.2993,14.1234-2.6424,28.7253-11.8252,37.7749
				c-8.5741,8.7014-22.1071,10.3762-35.5877,11.6405c-0.0972,0.9842-0.1974,1.9724-0.2986,2.9644l0.5214-0.0516
				c13.5359-1.3198,27.5281-2.6813,37.4169-12.4632c9.8005-9.9084,11.1611-23.9073,12.4827-37.4452l0.2091-2.1299
				c1.4647-15.7057,3.4593-29.4897,13.1518-39.1054C109.6843,4.0339,109.6843,3.106,109.1173,2.538z"/>
		</g>
		<path class="st44" d="M38.084,101.2113c-1.59,11.6201-4.4485,21.7609-12.0635,29.3156c-0.5738,0.5748-0.5738,1.5007-0.002,2.0744
			c0.5738,0.5719,1.4997,0.5719,2.0687,0.0039c8.7957-8.8551,11.5383-20.1454,13.0166-31.746l1.026-9.5534
			c1.2916-13.995,2.696-28.4044,11.7864-37.3664c8.8658-8.9941,23.0067-10.4822,36.9132-11.7659
			c0.1595-0.0146,0.5126-0.4095,0.5291-0.5914c0.0622-0.6283,0.1255-1.2585,0.1925-1.8887
			c0.0409-0.4172-0.1731-0.5825-0.4396-0.4931l-1.8429,0.1838c-13.5273,1.3207-27.5213,2.6842-37.4054,12.4632
			c-9.7936,9.9016-11.1542,23.8869-12.4769,37.4141L38.084,101.2113z"/>
		<g>
			<path class="st43" d="M87.3137,67.4325c0.1254-0.4162,0.2519-0.8354,0.3744-1.2604c0.1771-0.6195,0.1304-1.0776-0.5971-1.8069
				c-3.045-3.0538-13.1508-13.1839-13.784-13.7811c-0.7479-0.7051-1.4675-0.6536-1.7826-0.5602
				c-0.4387,0.1274-0.8714,0.2606-1.2983,0.3997c-0.355,0.1157-0.8841,0.5709-0.1781,1.2361
				c0.5962,0.5612,12.2746,12.2619,15.8634,15.8585C86.5658,68.1756,87.1931,67.8139,87.3137,67.4325z"/>
			<path class="st43" d="M90.6349,51.9378c0.1157-0.7653,0.2286-1.5337,0.3385-2.303c0.036-0.2655-0.0273-0.9288-0.3424-1.2506
				c-0.3151-0.321-1.0863-1.0854-1.0863-1.0854c-0.319-0.2976-0.4649-0.3229-0.9628-0.2713
				c-0.8763,0.0914-1.7438,0.1877-2.6045,0.2878c-0.4406,0.0516-0.3638,0.3492-0.1828,0.5709c0,0,3.9622,3.9758,4.2287,4.2287
				C90.2887,52.3678,90.6008,52.1655,90.6349,51.9378z"/>
			<path class="st43" d="M80.7412,79.9863c0.1566-0.1624,0.3072-0.3306,0.458-0.5018c0.7236-0.8316,0.2519-1.1632-0.212-1.6912
				c0,0-20.16-20.2243-20.8097-20.8107c-0.6516-0.5855-1.0727-0.4824-1.2312-0.3424c-0.4026,0.3608-0.7975,0.7353-1.1836,1.1253
				c-0.1925,0.1887-0.4367,0.6371,0.2023,1.3344c0.64,0.6972,20.9429,20.942,20.9429,20.942
				C79.2911,80.4103,80.0886,80.673,80.7412,79.9863z"/>
			<path class="st43" d="M51.7591,90.7641c0.5651-0.0613,1.1467-0.1284,1.7438-0.2062c0.3511-0.0447,0.6039-0.6137-0.074-1.2935
				c-1.5094-1.5191-4.0604-4.0769-4.7587-4.7548c-1.0104-0.9814-1.1447-0.2967-1.1914,0.0798
				c-0.0661,0.5398-0.1303,1.0824-0.1925,1.629c-0.0428,0.3716-0.073,1.0134,0.5417,1.7836
				c0.4046,0.5077,1.5328,1.6028,2.2476,2.2836C50.4539,90.6454,51.194,90.8254,51.7591,90.7641z"/>
			<path class="st43" d="M67.8742,87.4244c0.4649-0.1557,0.9249-0.3171,1.3811-0.4844c0.3325-0.1225,0.8606-0.5057,0.0282-1.3392
				C68.4519,84.7674,52.3407,68.658,52.3407,68.658c-0.4299-0.4668-1.133-0.5943-1.3489-0.0253
				c-0.1722,0.463-0.3385,0.9337-0.4979,1.4083c-0.0934,0.2762-0.0963,0.9161,0.4288,1.5347
				c0.4455,0.5222,11.6794,11.7018,15.1261,15.129C66.6761,87.3271,67.5981,87.5167,67.8742,87.4244z"/>
		</g>
		<g>
			<path class="st43" d="M127.1572,26.3578L111.468,10.6696c-0.675,0.7906-1.2887,1.6153-1.8761,2.4557l15.1017,15.0998
				C125.5077,27.6571,126.3276,27.0337,127.1572,26.3578z"/>
			<path class="st43" d="M114.5043,33.2221l-9.8908-9.8909c-0.3608,1.1-0.6769,2.2272-0.9736,3.368l7.5013,7.5003
				C112.2907,33.897,113.4102,33.577,114.5043,33.2221z"/>
		</g>
		<g>
			<path class="st43" d="M34.0343,111.9026c0.142-0.4863,0.282-0.9736,0.4183-1.4695c0.0768-0.2869,0.2529-0.7839-0.4475-1.5454
				c-0.5222-0.567-3.4185-3.4399-4.855-4.8637c-0.598-0.5932-1.0308-0.7498-1.5687-0.6176
				c-0.637,0.1576-1.2682,0.3259-1.8955,0.5028c-0.5728,0.1634-0.4784,0.5116-0.0739,0.9122
				c1.8498,1.8265,6.7806,6.7086,7.3194,7.3253C33.5985,112.9091,33.9312,112.2498,34.0343,111.9026z"/>
			<path class="st43" d="M27.9442,125.4512c0.2412-0.3502,0.4804-0.7081,0.71-1.0748c0.1702-0.2674,0.249-1.0688-0.1887-1.5084
				c-2.7396-2.7485-12.7277-12.7677-13.3026-13.3007c-0.6643-0.6166-1.2293-0.5339-1.4365-0.3949
				c-0.3997,0.2704-0.7926,0.5485-1.1796,0.8364c-0.2432,0.179-0.5991,0.6176-0.0408,1.2273
				c0.4833,0.5291,11.3574,11.3701,14.2401,14.2401C27.1856,125.918,27.7778,125.6943,27.9442,125.4512z"/>
		</g>
		<g>
			<path class="st44" d="M132.5986,26.0194c-0.5699-0.5719-1.4986-0.5719-2.0676-0.002
				c-7.2669,7.3253-16.9175,10.2497-27.9658,11.8729c-1.132,0.1653-1.3751,0.3559-1.4714,1.1631
				c-0.0351,0.285-0.0671,0.57-0.0983,0.8549c-0.0943,0.8014,0.2714,1.1467,1.2244,1.0183
				c11.0911-1.5143,21.8631-4.3746,30.3786-12.8319C133.1724,27.521,133.1724,26.5931,132.5986,26.0194z"/>
		</g>
	</g>
</g>
</svg>
