<?xml version="1.0" encoding="utf-8"?>
<!-- Generator: Adobe Illustrator 21.0.2, SVG Export Plug-In . SVG Version: 6.00 Build 0)  -->
<svg version="1.1" id="Capa_1" xmlns="http://www.w3.org/2000/svg" xmlns:xlink="http://www.w3.org/1999/xlink" x="0px" y="0px"
	 viewBox="0 0 113.7766 113.7766" style="enable-background:new 0 0 113.7766 113.7766;" xml:space="preserve">
<style type="text/css">
	.st0{fill-rule:evenodd;clip-rule:evenodd;fill:#DDDDDD;}
	.st1{fill:#3B86B1;}
	.st2{opacity:0.25;fill-rule:evenodd;clip-rule:evenodd;fill:#020202;}
	.st3{fill:#FFFFFF;}
	.st4{opacity:0.5;}
	.st5{fill-rule:evenodd;clip-rule:evenodd;fill:#A8A8A8;}
	.st6{fill-rule:evenodd;clip-rule:evenodd;fill:#FFFFFF;}
	.st7{fill-rule:evenodd;clip-rule:evenodd;fill:#3B86B1;}
	.st8{opacity:0.5;fill:#2C6882;}
	.st9{opacity:0.75;fill-rule:evenodd;clip-rule:evenodd;fill:#282828;}
	.st10{opacity:0.5;fill:#FFFFFF;}
	.st11{fill-rule:evenodd;clip-rule:evenodd;fill:none;stroke:#FFFFFF;stroke-miterlimit:10;}
	.st12{fill:none;stroke:#FFFFFF;stroke-miterlimit:10;}
	.st13{fill:#FFFFFF;stroke:#3B86B1;stroke-width:1.7139;stroke-miterlimit:10;}
	.st14{fill-rule:evenodd;clip-rule:evenodd;}
	.st15{opacity:0.85;fill:#FFFFFF;}
	.st16{opacity:0.5;fill-rule:evenodd;clip-rule:evenodd;}
	.st17{fill-rule:evenodd;clip-rule:evenodd;fill:#FEFEFE;}
	.st18{fill:#312767;}
	.st19{opacity:0.48;}
	.st20{opacity:0.25;}
	.st21{fill-rule:evenodd;clip-rule:evenodd;fill:#020202;}
	.st22{fill:#757575;}
	.st23{opacity:0.25;clip-path:url(#XMLID_2396_);}
	.st24{fill:#4D4789;}
	.st25{fill:#FFFFFF;stroke:#312767;stroke-miterlimit:10;}
	.st26{fill:#3B86B1;stroke:#3B86B1;stroke-miterlimit:10;}
	.st27{fill:#FFFFFF;stroke:#FFFFFF;stroke-miterlimit:10;}
	.st28{fill:#ACABC9;}
	.st29{fill-rule:evenodd;clip-rule:evenodd;fill:#312767;}
	.st30{opacity:0.77;fill:#312767;}
	.st31{opacity:0.25;clip-path:url(#XMLID_2397_);}
	.st32{fill:#9490B2;stroke:#2D2D2D;stroke-width:0.25;stroke-miterlimit:10;}
	.st33{fill:#312767;stroke:#2D2D2D;stroke-width:0.25;stroke-miterlimit:10;}
	.st34{fill:#FCFCFC;}
	.st35{fill:#FFFFFF;stroke:#2D2D2D;stroke-width:0.25;stroke-miterlimit:10;}
	.st36{fill-rule:evenodd;clip-rule:evenodd;fill:#484849;stroke:#2D2D2D;stroke-width:0.25;stroke-miterlimit:10;}
	.st37{fill-rule:evenodd;clip-rule:evenodd;fill:#312767;stroke:#2D2D2D;stroke-width:0.25;stroke-miterlimit:10;}
	.st38{fill-rule:evenodd;clip-rule:evenodd;fill:#FFFFFF;stroke:#2D2D2D;stroke-width:0.25;stroke-miterlimit:10;}
	.st39{fill:#484849;stroke:#2D2D2D;stroke-width:0.25;stroke-miterlimit:10;}
	.st40{fill:#54518C;}
	.st41{opacity:0.25;fill-rule:evenodd;clip-rule:evenodd;fill:#FFFFFF;}
	.st42{fill:#D4A800;}
	.st43{fill:#00AEB3;}
	.st44{fill:#38353B;}
	.st45{fill:#FF8400;}
	.st46{fill:#BF3900;}
	.st47{fill:#00AA9C;}
	.st48{opacity:0.25;clip-path:url(#XMLID_2400_);}
	.st49{fill:none;stroke:#ACABC9;stroke-width:5;stroke-miterlimit:10;}
	.st50{opacity:0.25;clip-path:url(#XMLID_2403_);}
	.st51{fill:#DDDDDD;}
	.st52{opacity:0.25;fill-rule:evenodd;clip-rule:evenodd;fill:#FFFFFF;stroke:#303030;stroke-width:0.5;stroke-miterlimit:10;}
	.st53{fill:#3B86B1;stroke:#303030;stroke-width:0.5;stroke-miterlimit:10;}
	.st54{fill:#D4A800;stroke:#303030;stroke-width:0.5;stroke-miterlimit:10;}
	.st55{fill:#00AEB3;stroke:#303030;stroke-width:0.5;stroke-miterlimit:10;}
	.st56{fill:#FF8400;stroke:#303030;stroke-width:0.5;stroke-miterlimit:10;}
	.st57{fill:#BF3900;stroke:#303030;stroke-width:0.5;stroke-miterlimit:10;}
	.st58{fill:#00AA9C;stroke:#303030;stroke-width:0.5;stroke-miterlimit:10;}
	.st59{opacity:0.25;clip-path:url(#XMLID_2404_);}
	.st60{fill-rule:evenodd;clip-rule:evenodd;fill:#FFFFFF;stroke:#FFFFFF;stroke-miterlimit:10;}
	.st61{fill:#F79748;}
	.st62{fill:#FF7900;}
	.st63{fill:#DD7105;}
	.st64{fill:#02897C;}
	.st65{fill:#0EAD9A;}
	.st66{fill:#28C6AF;}
	.st67{fill:#4FE0C7;}
	.st68{fill:#00AA9C;stroke:#353535;stroke-width:0.5;stroke-miterlimit:10;}
	.st69{fill:#02897C;stroke:#353535;stroke-width:0.5;stroke-miterlimit:10;}
	.st70{fill:#0EAD9A;stroke:#353535;stroke-width:0.5;stroke-miterlimit:10;}
	.st71{fill:#28C6AF;stroke:#353535;stroke-width:0.5;stroke-miterlimit:10;}
	.st72{fill:#4FE0C7;stroke:#353535;stroke-width:0.5;stroke-miterlimit:10;}
	.st73{fill:#D37D00;}
	.st74{fill:#D14600;}
	.st75{fill:#E5B92E;}
	.st76{fill:#DD571B;}
	.st77{fill:#E28A17;}
	.st78{opacity:0.25;clip-path:url(#XMLID_2410_);}
	.st79{opacity:0.77;fill:#FFFFFF;}
	.st80{fill:#50565B;stroke:#656C70;stroke-miterlimit:10;}
	.st81{fill:#808589;stroke:#656C70;stroke-miterlimit:10;}
	.st82{fill:#252728;stroke:#000000;stroke-miterlimit:10;}
	.st83{fill:#1A1B1C;stroke:#000000;stroke-miterlimit:10;}
	.st84{fill:#A0A6AA;}
	.st85{fill:#262C35;stroke:#161A1E;stroke-miterlimit:10;}
	.st86{fill:#181D23;}
	.st87{fill:#EABA96;stroke:#E0AA86;stroke-miterlimit:10;}
	.st88{fill:#E0AA86;}
	.st89{stroke:#000000;stroke-width:0.75;stroke-linecap:square;stroke-linejoin:bevel;stroke-miterlimit:10;}
	.st90{fill:#0F1C3F;stroke:#182951;stroke-miterlimit:10;}
	.st91{fill:#132354;stroke:#3F6093;stroke-miterlimit:10;}
	.st92{fill:#0F1C3F;}
	.st93{fill:none;stroke:#3F6093;stroke-width:0.75;stroke-miterlimit:10;}
	.st94{fill:#DBA682;}
	.st95{fill:none;stroke:#E0AA86;stroke-miterlimit:10;}
	.st96{fill:none;stroke:#E0AA86;stroke-linejoin:bevel;stroke-miterlimit:10;}
	.st97{fill:#8A0A8E;stroke:#AC34B2;stroke-miterlimit:10;}
	.st98{fill:#810C87;}
	.st99{fill:#680B6D;}
	.st100{fill:#AC34B2;stroke:#AC34B2;stroke-width:0.5;stroke-miterlimit:10;}
	.st101{fill:none;stroke:#959DA0;stroke-width:0.5;stroke-miterlimit:10;}
	.st102{fill:#959DA0;stroke:#959DA0;stroke-width:0.5;stroke-miterlimit:10;}
	.st103{fill:none;stroke:#AC34B2;stroke-miterlimit:10;}
	.st104{fill:#282828;stroke:#000000;stroke-miterlimit:10;}
	.st105{fill:#EABA96;stroke:#E0AA86;stroke-width:0.5;stroke-miterlimit:10;}
	.st106{fill:#B7896A;}
	.st107{stroke:#000000;stroke-miterlimit:10;}
	.st108{fill:#C1A578;}
	.st109{stroke:#000000;stroke-width:0.25;stroke-linecap:round;stroke-linejoin:round;stroke-miterlimit:10;}
	.st110{fill:#FFFFFF;stroke:#000000;stroke-width:0.25;stroke-linecap:round;stroke-linejoin:round;stroke-miterlimit:10;}
	.st111{fill:#70582D;}
	.st112{stroke:#000000;stroke-linecap:round;stroke-linejoin:round;stroke-miterlimit:10;}
	.st113{fill:none;stroke:#D8A27D;stroke-width:0.75;stroke-miterlimit:10;}
	.st114{fill:#561409;}
	.st115{fill:#BA2A13;}
	.st116{fill:#9E3025;stroke:#4C2311;stroke-width:0.25;stroke-miterlimit:10;}
	.st117{fill:#871D08;stroke:#4C2311;stroke-width:0.25;stroke-miterlimit:10;}
	.st118{fill:#DDAC8A;}
	.st119{fill:#A5ABAD;stroke:#959DA0;stroke-width:0.5;stroke-miterlimit:10;}
	.st120{fill:#B1BABC;}
	.st121{fill:none;stroke:#153847;stroke-width:5;stroke-miterlimit:10;}
	.st122{fill:#3CA7AF;}
	.st123{fill:#3DAD8D;}
	.st124{fill:#3DAA61;}
	.st125{fill:#67A53F;}
	.st126{fill:#95A340;}
	.st127{opacity:0.25;clip-path:url(#XMLID_2411_);}
	.st128{opacity:0.25;clip-path:url(#XMLID_2416_);}
	.st129{fill:#F79748;stroke:#303030;stroke-width:0.5;stroke-miterlimit:10;}
	.st130{fill:#FF7900;stroke:#303030;stroke-width:0.5;stroke-miterlimit:10;}
	.st131{fill:#DD7105;stroke:#303030;stroke-width:0.5;stroke-miterlimit:10;}
	.st132{opacity:0.25;clip-path:url(#XMLID_2422_);}
	.st133{clip-path:url(#SVGID_2_);}
	.st134{fill:none;stroke:#3F6093;stroke-miterlimit:10;}
	.st135{fill:none;stroke:#3F6093;stroke-width:0.75;stroke-linecap:round;stroke-linejoin:round;}
	.st136{fill:none;stroke:#3F6093;stroke-width:0.75;stroke-linecap:round;stroke-linejoin:round;stroke-dasharray:0.9892,0.9892;}
	
		.st137{fill:none;stroke:#3F6093;stroke-width:0.75;stroke-linecap:round;stroke-linejoin:round;stroke-miterlimit:10;stroke-dasharray:1;}
	.st138{fill:#EAEAEA;stroke:#FFFFFF;stroke-width:0.25;stroke-miterlimit:10;}
	.st139{fill:#D8D8D8;}
	.st140{fill:#282828;stroke:#000000;stroke-width:0.75;stroke-miterlimit:10;}
	.st141{opacity:0.33;fill:#FFFFFF;}
	.st142{fill:none;stroke:#000000;stroke-width:1.5;stroke-linecap:round;stroke-linejoin:round;stroke-miterlimit:10;}
	.st143{clip-path:url(#SVGID_4_);}
	.st144{opacity:0.64;}
	.st145{fill:#1D1D1B;}
	.st146{fill:#C9C9C9;}
	.st147{fill:#545477;}
</style>
<g>
	<circle id="XMLID_2319_" class="st41" cx="56.8883" cy="56.8883" r="56.8883"/>
	<g>
		<path class="st58" d="M55.929,94.727c0.1414,0.0048,0.2803,0,0.4214,0.0048c0.1414-0.0048,0.2803,0,0.4217-0.0048
			c0.1414,0,0.2839,0.0048,0.425,0v-0.0093c6.0252-0.1167,12.0806-1.3454,11.4874-6.2108
			c-3.0469-0.8596-4.7824,2.2306-6.3931,0.7381c-0.5944-3.3844,1.5929-3.5691,1.2777-6.6476
			c-1.697-0.5793-3.9824-0.8245-6.372-0.8642v-0.0069c-0.2849-0.0072-0.564,0.0069-0.8479,0.0022
			c-0.2813,0.0048-0.5604-0.0093-0.8443-0.0022v0.0069c-2.3952,0.0373-4.6784,0.2849-6.3742,0.8642
			c-0.32,3.0785,1.8697,3.2631,1.2705,6.6476c-1.6128,1.4925-3.3411-1.5977-6.3859-0.7381
			c-0.5956,4.8654,5.4586,6.0941,11.4895,6.2108v0.0093C55.645,94.7318,55.7876,94.727,55.929,94.727z"/>
		<path class="st58" d="M56.3504,33.3506c5.0522,0.502,9.5182,0.5886,11.0528-3.1883c-0.1167-2.8147-4.7157-0.4578-5.7494-2.2191
			c-0.3188-2.3193,1.3923-2.8845,0-4.4284c-1.266-0.4042-2.8427-0.7242-4.4567-0.869v-0.0842
			c-0.2801,0.0024-0.564,0.0282-0.8467,0.0397c-0.2813-0.0115-0.5652-0.0373-0.8455-0.0397v0.0842
			c-1.6164,0.1426-3.1952,0.4647-4.4612,0.869c-1.3944,1.5439,0.3234,2.1091,0,4.4284c-1.0335,1.7613-5.627-0.5956-5.7494,2.2191
			C46.8312,33.9392,51.296,33.8526,56.3504,33.3506z"/>
		<path class="st58" d="M51.6883,44.1883c1.155,0.0187,2.47,0.049,3.8166,0.0749v0.028c0.2873-0.0024,0.5606-0.0093,0.8443-0.0141
			c0.2863,0.0048,0.5594,0.0117,0.8479,0.0141v-0.028c1.3432-0.0258,2.6559-0.0562,3.8121-0.0749
			c2.8929-0.0349,6.9501-0.0304,7.041-2.9477c-0.4951-0.1636-0.7439-0.6214-0.647-1.4832c-1.6979,0-3.4031,0-5.1118,0
			c-0.2043-1.7051,0.1017-2.8309,0.6389-3.6882c-1.8242-0.6936-4.1412-0.8199-6.5799-0.7989
			c-2.4408-0.021-4.759,0.1052-6.5856,0.7989c0.542,0.8572,0.8491,1.983,0.6365,3.6882c-1.6991,0-3.409,0-5.107,0
			c0.0993,0.8618-0.1426,1.3195-0.6436,1.4832C44.736,44.158,48.7884,44.1534,51.6883,44.1883z"/>
		<path class="st58" d="M45.2943,55.2715c2.6346,0.3059,6.7444,0.2803,11.0561,0.1961c4.306,0.0842,8.4182,0.1098,11.0528-0.1961
			c-0.2605-1.7797,1.1727-1.6047,0.647-3.6927c-2.6358-0.5769-3.2863,1.1375-5.7588,0.7381
			c-1.0789-2.4597,0.4054-2.525,0.6389-5.1692c-1.4377-0.5815-3.5399-1.1328-5.7332-1.4014v-0.1588
			c-0.2825,0.0117-0.564,0.056-0.8479,0.0794c-0.2813-0.0234-0.5616-0.0677-0.8443-0.0794v0.1588
			c-2.1966,0.2686-4.3,0.8199-5.7401,1.4014c0.2349,2.6441,1.718,2.7094,0.6365,5.1692c-2.4676,0.3994-3.1182-1.315-5.7506-0.7381
			C44.1215,53.6668,45.5523,53.4918,45.2943,55.2715z"/>
		<path class="st58" d="M56.3504,67.9663c5.0336,0.1777,9.955-0.1261,12.3341-3.0972c-1.5253-2.0859-2.3533-0.7264-5.1154-0.7381
			c-1.3009-2.0763-1.1469-3.0271-0.6389-5.9047c-1.454-0.4367-3.5456-0.7288-5.7332-0.834v-0.0512
			c-0.2837,0-0.564,0.0187-0.8479,0.0232c-0.2813-0.0045-0.5616-0.0232-0.8443-0.0232v0.0512
			c-2.1921,0.1052-4.2849,0.3973-5.7401,0.834c0.508,2.8776,0.6647,3.8283-0.6341,5.9047
			c-2.7678,0.0117-3.5925-1.3478-5.1154,0.7381C46.3921,67.8402,51.3168,68.144,56.3504,67.9663z"/>
		<path class="st58" d="M55.5049,79.6242v0.1985c0.2767-0.0328,0.5654-0.0655,0.8455-0.0983
			c0.2803,0.0328,0.5688,0.0655,0.8467,0.0983v-0.1985c3.4102-0.4042,6.97-0.7032,10.2061,0.0256
			c0.3726-1.5487,1.5896-2.1091,1.2813-4.4308c-1.7974-1.8663-3.6764,0.6563-5.7542,0.7381c-0.4719-2.7073,1.5731-4.1063,0-5.9142
			c-1.7821,0.1519-3.7535,0.0818-5.7332,0.0048v-0.0656c-0.2813,0.0093-0.5652,0.0187-0.8479,0.0304
			c-0.2801-0.0117-0.5628-0.021-0.8443-0.0304v0.0632c-1.9842,0.0794-3.958,0.1495-5.7401-0.0024
			c-1.5731,1.808,0.4764,3.2069,0,5.9142c-2.0775-0.0818-3.9568-2.6044-5.7494-0.7381c-0.3083,2.3217,0.9039,2.8821,1.2789,4.4308
			C48.5304,78.9186,52.0901,79.22,55.5049,79.6242z"/>
	</g>
</g>
</svg>
