<?xml version="1.0" encoding="utf-8"?>
<!-- Generator: Adobe Illustrator 21.0.2, SVG Export Plug-In . SVG Version: 6.00 Build 0)  -->
<svg version="1.1" id="Capa_1" xmlns="http://www.w3.org/2000/svg" xmlns:xlink="http://www.w3.org/1999/xlink" x="0px" y="0px"
	 viewBox="0 0 113.7766 113.7766" style="enable-background:new 0 0 113.7766 113.7766;" xml:space="preserve">
<style type="text/css">
	.st0{fill-rule:evenodd;clip-rule:evenodd;fill:#DDDDDD;}
	.st1{fill:#3B86B1;}
	.st2{opacity:0.25;fill-rule:evenodd;clip-rule:evenodd;fill:#020202;}
	.st3{fill:#FFFFFF;}
	.st4{opacity:0.5;}
	.st5{fill-rule:evenodd;clip-rule:evenodd;fill:#A8A8A8;}
	.st6{fill-rule:evenodd;clip-rule:evenodd;fill:#FFFFFF;}
	.st7{fill-rule:evenodd;clip-rule:evenodd;fill:#3B86B1;}
	.st8{opacity:0.5;fill:#2C6882;}
	.st9{opacity:0.75;fill-rule:evenodd;clip-rule:evenodd;fill:#282828;}
	.st10{opacity:0.5;fill:#FFFFFF;}
	.st11{fill-rule:evenodd;clip-rule:evenodd;fill:none;stroke:#FFFFFF;stroke-miterlimit:10;}
	.st12{fill:none;stroke:#FFFFFF;stroke-miterlimit:10;}
	.st13{fill:#FFFFFF;stroke:#3B86B1;stroke-width:1.7139;stroke-miterlimit:10;}
	.st14{fill-rule:evenodd;clip-rule:evenodd;}
	.st15{opacity:0.85;fill:#FFFFFF;}
	.st16{opacity:0.5;fill-rule:evenodd;clip-rule:evenodd;}
	.st17{fill-rule:evenodd;clip-rule:evenodd;fill:#FEFEFE;}
	.st18{fill:#312767;}
	.st19{opacity:0.48;}
	.st20{opacity:0.25;}
	.st21{fill-rule:evenodd;clip-rule:evenodd;fill:#020202;}
	.st22{fill:#757575;}
	.st23{opacity:0.25;clip-path:url(#XMLID_2396_);}
	.st24{fill:#4D4789;}
	.st25{fill:#FFFFFF;stroke:#312767;stroke-miterlimit:10;}
	.st26{fill:#3B86B1;stroke:#3B86B1;stroke-miterlimit:10;}
	.st27{fill:#FFFFFF;stroke:#FFFFFF;stroke-miterlimit:10;}
	.st28{fill:#ACABC9;}
	.st29{fill-rule:evenodd;clip-rule:evenodd;fill:#312767;}
	.st30{opacity:0.77;fill:#312767;}
	.st31{opacity:0.25;clip-path:url(#XMLID_2397_);}
	.st32{fill:#9490B2;stroke:#2D2D2D;stroke-width:0.25;stroke-miterlimit:10;}
	.st33{fill:#312767;stroke:#2D2D2D;stroke-width:0.25;stroke-miterlimit:10;}
	.st34{fill:#FCFCFC;}
	.st35{fill:#FFFFFF;stroke:#2D2D2D;stroke-width:0.25;stroke-miterlimit:10;}
	.st36{fill-rule:evenodd;clip-rule:evenodd;fill:#484849;stroke:#2D2D2D;stroke-width:0.25;stroke-miterlimit:10;}
	.st37{fill-rule:evenodd;clip-rule:evenodd;fill:#312767;stroke:#2D2D2D;stroke-width:0.25;stroke-miterlimit:10;}
	.st38{fill-rule:evenodd;clip-rule:evenodd;fill:#FFFFFF;stroke:#2D2D2D;stroke-width:0.25;stroke-miterlimit:10;}
	.st39{fill:#484849;stroke:#2D2D2D;stroke-width:0.25;stroke-miterlimit:10;}
	.st40{fill:#54518C;}
	.st41{opacity:0.25;fill-rule:evenodd;clip-rule:evenodd;fill:#FFFFFF;}
	.st42{fill:#D4A800;}
	.st43{fill:#00AEB3;}
	.st44{fill:#38353B;}
	.st45{fill:#FF8400;}
	.st46{fill:#BF3900;}
	.st47{fill:#00AA9C;}
	.st48{opacity:0.25;clip-path:url(#XMLID_2400_);}
	.st49{fill:none;stroke:#ACABC9;stroke-width:5;stroke-miterlimit:10;}
	.st50{opacity:0.25;clip-path:url(#XMLID_2403_);}
	.st51{fill:#DDDDDD;}
	.st52{opacity:0.25;fill-rule:evenodd;clip-rule:evenodd;fill:#FFFFFF;stroke:#303030;stroke-width:0.5;stroke-miterlimit:10;}
	.st53{fill:#3B86B1;stroke:#303030;stroke-width:0.5;stroke-miterlimit:10;}
	.st54{fill:#D4A800;stroke:#303030;stroke-width:0.5;stroke-miterlimit:10;}
	.st55{fill:#00AEB3;stroke:#303030;stroke-width:0.5;stroke-miterlimit:10;}
	.st56{fill:#FF8400;stroke:#303030;stroke-width:0.5;stroke-miterlimit:10;}
	.st57{fill:#BF3900;stroke:#303030;stroke-width:0.5;stroke-miterlimit:10;}
	.st58{fill:#00AA9C;stroke:#303030;stroke-width:0.5;stroke-miterlimit:10;}
	.st59{opacity:0.25;clip-path:url(#XMLID_2404_);}
	.st60{fill-rule:evenodd;clip-rule:evenodd;fill:#FFFFFF;stroke:#FFFFFF;stroke-miterlimit:10;}
	.st61{fill:#F79748;}
	.st62{fill:#FF7900;}
	.st63{fill:#DD7105;}
	.st64{fill:#02897C;}
	.st65{fill:#0EAD9A;}
	.st66{fill:#28C6AF;}
	.st67{fill:#4FE0C7;}
	.st68{fill:#00AA9C;stroke:#353535;stroke-width:0.5;stroke-miterlimit:10;}
	.st69{fill:#02897C;stroke:#353535;stroke-width:0.5;stroke-miterlimit:10;}
	.st70{fill:#0EAD9A;stroke:#353535;stroke-width:0.5;stroke-miterlimit:10;}
	.st71{fill:#28C6AF;stroke:#353535;stroke-width:0.5;stroke-miterlimit:10;}
	.st72{fill:#4FE0C7;stroke:#353535;stroke-width:0.5;stroke-miterlimit:10;}
	.st73{fill:#D37D00;}
	.st74{fill:#D14600;}
	.st75{fill:#E5B92E;}
	.st76{fill:#DD571B;}
	.st77{fill:#E28A17;}
	.st78{opacity:0.25;clip-path:url(#XMLID_2410_);}
	.st79{opacity:0.77;fill:#FFFFFF;}
	.st80{fill:#50565B;stroke:#656C70;stroke-miterlimit:10;}
	.st81{fill:#808589;stroke:#656C70;stroke-miterlimit:10;}
	.st82{fill:#252728;stroke:#000000;stroke-miterlimit:10;}
	.st83{fill:#1A1B1C;stroke:#000000;stroke-miterlimit:10;}
	.st84{fill:#A0A6AA;}
	.st85{fill:#262C35;stroke:#161A1E;stroke-miterlimit:10;}
	.st86{fill:#181D23;}
	.st87{fill:#EABA96;stroke:#E0AA86;stroke-miterlimit:10;}
	.st88{fill:#E0AA86;}
	.st89{stroke:#000000;stroke-width:0.75;stroke-linecap:square;stroke-linejoin:bevel;stroke-miterlimit:10;}
	.st90{fill:#0F1C3F;stroke:#182951;stroke-miterlimit:10;}
	.st91{fill:#132354;stroke:#3F6093;stroke-miterlimit:10;}
	.st92{fill:#0F1C3F;}
	.st93{fill:none;stroke:#3F6093;stroke-width:0.75;stroke-miterlimit:10;}
	.st94{fill:#DBA682;}
	.st95{fill:none;stroke:#E0AA86;stroke-miterlimit:10;}
	.st96{fill:none;stroke:#E0AA86;stroke-linejoin:bevel;stroke-miterlimit:10;}
	.st97{fill:#8A0A8E;stroke:#AC34B2;stroke-miterlimit:10;}
	.st98{fill:#810C87;}
	.st99{fill:#680B6D;}
	.st100{fill:#AC34B2;stroke:#AC34B2;stroke-width:0.5;stroke-miterlimit:10;}
	.st101{fill:none;stroke:#959DA0;stroke-width:0.5;stroke-miterlimit:10;}
	.st102{fill:#959DA0;stroke:#959DA0;stroke-width:0.5;stroke-miterlimit:10;}
	.st103{fill:none;stroke:#AC34B2;stroke-miterlimit:10;}
	.st104{fill:#282828;stroke:#000000;stroke-miterlimit:10;}
	.st105{fill:#EABA96;stroke:#E0AA86;stroke-width:0.5;stroke-miterlimit:10;}
	.st106{fill:#B7896A;}
	.st107{stroke:#000000;stroke-miterlimit:10;}
	.st108{fill:#C1A578;}
	.st109{stroke:#000000;stroke-width:0.25;stroke-linecap:round;stroke-linejoin:round;stroke-miterlimit:10;}
	.st110{fill:#FFFFFF;stroke:#000000;stroke-width:0.25;stroke-linecap:round;stroke-linejoin:round;stroke-miterlimit:10;}
	.st111{fill:#70582D;}
	.st112{stroke:#000000;stroke-linecap:round;stroke-linejoin:round;stroke-miterlimit:10;}
	.st113{fill:none;stroke:#D8A27D;stroke-width:0.75;stroke-miterlimit:10;}
	.st114{fill:#561409;}
	.st115{fill:#BA2A13;}
	.st116{fill:#9E3025;stroke:#4C2311;stroke-width:0.25;stroke-miterlimit:10;}
	.st117{fill:#871D08;stroke:#4C2311;stroke-width:0.25;stroke-miterlimit:10;}
	.st118{fill:#DDAC8A;}
	.st119{fill:#A5ABAD;stroke:#959DA0;stroke-width:0.5;stroke-miterlimit:10;}
	.st120{fill:#B1BABC;}
	.st121{fill:none;stroke:#153847;stroke-width:5;stroke-miterlimit:10;}
	.st122{fill:#3CA7AF;}
	.st123{fill:#3DAD8D;}
	.st124{fill:#3DAA61;}
	.st125{fill:#67A53F;}
	.st126{fill:#95A340;}
	.st127{opacity:0.25;clip-path:url(#XMLID_2411_);}
	.st128{opacity:0.25;clip-path:url(#XMLID_2416_);}
	.st129{fill:#F79748;stroke:#303030;stroke-width:0.5;stroke-miterlimit:10;}
	.st130{fill:#FF7900;stroke:#303030;stroke-width:0.5;stroke-miterlimit:10;}
	.st131{fill:#DD7105;stroke:#303030;stroke-width:0.5;stroke-miterlimit:10;}
	.st132{opacity:0.25;clip-path:url(#XMLID_2422_);}
	.st133{clip-path:url(#SVGID_2_);}
	.st134{fill:none;stroke:#3F6093;stroke-miterlimit:10;}
	.st135{fill:none;stroke:#3F6093;stroke-width:0.75;stroke-linecap:round;stroke-linejoin:round;}
	.st136{fill:none;stroke:#3F6093;stroke-width:0.75;stroke-linecap:round;stroke-linejoin:round;stroke-dasharray:0.9892,0.9892;}
	
		.st137{fill:none;stroke:#3F6093;stroke-width:0.75;stroke-linecap:round;stroke-linejoin:round;stroke-miterlimit:10;stroke-dasharray:1;}
	.st138{fill:#EAEAEA;stroke:#FFFFFF;stroke-width:0.25;stroke-miterlimit:10;}
	.st139{fill:#D8D8D8;}
	.st140{fill:#282828;stroke:#000000;stroke-width:0.75;stroke-miterlimit:10;}
	.st141{opacity:0.33;fill:#FFFFFF;}
	.st142{fill:none;stroke:#000000;stroke-width:1.5;stroke-linecap:round;stroke-linejoin:round;stroke-miterlimit:10;}
	.st143{clip-path:url(#SVGID_4_);}
	.st144{opacity:0.64;}
	.st145{fill:#1D1D1B;}
	.st146{fill:#C9C9C9;}
	.st147{fill:#545477;}
</style>
<g>
	<circle id="XMLID_133_" class="st41" cx="56.8883" cy="56.8883" r="56.8883"/>
	<path class="st56" d="M46.7072,63.0308c0.0535-0.3333,0.0789-0.6623,0.0789-0.9943c-0.1208-5.2268-5.613-9.7351-5.6439-9.8447
		c-0.443-0.3909-1.1123-0.343-1.5005,0.0987c-0.3895,0.4416-0.3421,1.1137,0.1015,1.5004c0.0048,0.0056,0.299,0.2607,0.766,0.7379
		c1.4429,1.4154,4.21,4.8168,4.1482,7.5078c0,0.2236-0.0178,0.4417-0.0535,0.6611c-0.2001,1.2688-0.8887,2.2617-1.6464,3.193
		c-0.7091,0.9546-1.6466,1.6952-1.7308,3.1572c-0.009,0.7119,0.3668,1.3963,0.9113,1.8982
		c0.5507,0.5143,1.2905,0.9642,2.3213,1.4483c0.9979,0.4705,1.9009,0.6996,2.7451,0.6996c2.5017-0.0178,3.7052-2.0175,4.4623-3.5304
		c0.7556-1.6293,1.5168-2.9117,1.9016-2.8774c2.4159-0.6282,7.52-3.4563,7.5551-9.9244c-0.0049-1.9777-0.4904-4.2381-1.6397-6.8138
		c-2.2432-5.1459-5.7481-6.8384-8.6969-6.7986c-3.3445,0.0205-5.8447,1.8461-5.9332,1.894
		c-0.0159,0.0124-0.0247,0.0288-0.0392,0.0412c-1.5182-1.5457-2.564-3.1819-2.5023-4.5247
		c0.0028-0.5705,0.1461-1.1205,0.5198-1.7171c3.6676-5.9058,8.1462-10.1342,12.0037-10.0519c0.3559,0,0.7056,0.0301,1.0533,0.0987
		c1.3228,0.2372,3.1983,0.967,4.9869,2.0106c-0.1317,0.1563-0.2331,0.3361-0.2565,0.5541
		c-0.0035,0.0302-0.0694,0.6446-0.0694,1.6089c0.009,1.9311,0.2395,5.2653,1.8818,8.1633c1.8234,3.1846,3.5544,8.3018,3.553,14.2227
		c0,0.9834-0.0487,1.9956-0.1496,3.0242c-0.364,3.684-0.9264,6.5546-2.2314,8.734c-1.281,2.1286-3.2753,3.7457-6.8906,4.9979l0,0
		c-0.0761,0.0247-0.1392,0.0535-0.2139,0.0795c-6.5039,2.1409-9.0021,5.1803-9.0178,8.2128c0,0.6747,0.1275,1.3207,0.3414,1.9119
		c0.1551,0.4334,0.5651,0.7063,1.0019,0.7063c0.1208,0,0.2407-0.0205,0.3594-0.0617c0.5541-0.2003,0.8407-0.8107,0.6446-1.3619
		c-0.1406-0.391-0.2188-0.7873-0.2188-1.1946c-0.0131-1.6651,1.3462-4.0954,7.5613-6.1911
		c0.2798-0.0947,0.5362-0.1962,0.8024-0.2949c0,0,0,0,0-0.0014c3.6016-1.3345,5.9874-3.2245,7.4611-5.711
		c1.58-2.6662,2.1369-5.8454,2.5194-9.613c0.1077-1.104,0.1584-2.1835,0.1584-3.2368c-0.0027-5.1898-1.2316-9.7474-2.7753-13.1667
		c0.4322,0.3223,1.0424,0.2826,1.4141-0.1249c0.5198-0.5678,0.923-1.163,1.2261-1.7692c0-0.0014,0-0.0014,0-0.0014
		c0.0858-0.1715,0.1632-0.3442,0.2324-0.5171c0.0076-0.0178,0.0131-0.0383,0.0206-0.0576c0.0597-0.1549,0.1145-0.3114,0.1598-0.4663
		c0.0143-0.048,0.0253-0.0973,0.0376-0.144c0.035-0.1289,0.0692-0.2579,0.0947-0.3896c0.0178-0.0878,0.0261-0.177,0.0405-0.266
		c0.0138-0.092,0.0309-0.1824,0.039-0.2716c0.0173-0.1838,0.0261-0.3662,0.0254-0.5473c-0.035-2.9981-2.1835-5.4558-4.6584-7.328
		c-2.5092-1.8721-5.4504-3.1792-7.6874-3.6031c-0.4821-0.0933-0.967-0.1344-1.4463-0.1344
		c-5.3566,0.081-9.9567,4.9938-13.8066,11.0464c-0.1473,0.2317-0.2743,0.4703-0.3819,0.7118
		c-0.092,0.2043-0.1667,0.4142-0.2305,0.624c-0.0212,0.0659-0.0364,0.1317-0.0542,0.1976
		c-0.0419,0.1604-0.0768,0.3195-0.1028,0.4772c-0.0117,0.0645-0.0226,0.1289-0.0309,0.192
		c-0.0274,0.2167-0.0459,0.4334-0.0445,0.6487c0.0062,0.2675,0.0343,0.5281,0.0747,0.7873
		c0.0124,0.0809,0.0295,0.1618,0.0452,0.2427c0.035,0.1798,0.0747,0.3567,0.1242,0.5323c0.024,0.0864,0.0487,0.1727,0.0768,0.2577
		c0.0576,0.1784,0.1235,0.3539,0.1941,0.5281c0.0281,0.0699,0.0528,0.1399,0.0843,0.2085c0.1049,0.2413,0.2209,0.4758,0.3504,0.7077
		c0.0171,0.0315,0.0385,0.0617,0.0556,0.0919c0.1159,0.2029,0.24,0.4018,0.3716,0.5966c0.0473,0.0713,0.0982,0.1413,0.1475,0.2126
		c0.1125,0.159,0.2284,0.314,0.3491,0.4703c0.0548,0.0687,0.1076,0.1372,0.1639,0.2043c0.1385,0.1743,0.2838,0.3416,0.4327,0.5048
		c0.0383,0.044,0.0754,0.0892,0.1159,0.133c0.1934,0.2112,0.3949,0.4211,0.6028,0.6256c0.0041,0.0027,0.0081,0.0081,0.0124,0.0122
		l0,0c1.0368,1.0219,2.215,1.9504,3.3601,2.7925c3.1478,2.2493,6.2446,3.7209,6.2769,3.7388
		c0.1487,0.0728,0.3045,0.1056,0.4567,0.1056c0.3991,0,0.7783-0.2263,0.9641-0.6076c0.2531-0.5307,0.0254-1.1685-0.5034-1.4195
		c-0.0076-0.0028-2.9878-1.4251-5.9565-3.5496c-0.53-0.3702-1.0479-0.7625-1.5484-1.174c0.718-0.4334,2.4666-1.292,4.3518-1.2824
		c2.1842,0.0426,4.6494,0.9437,6.7541,5.5383c1.0505,2.3576,1.453,4.3216,1.4504,5.9442c0.0315,5.1363-4.1194,7.3569-5.9717,7.8684
		c-1.9894,0.6625-2.4585,2.5662-3.2478,3.9652c-0.7858,1.5182-1.4401,2.3891-2.5675,2.37c-0.4437,0-1.0457-0.1235-1.84-0.4979
		c-0.9188-0.4253-1.4908-0.8064-1.7623-1.0698c-0.2799-0.2785-0.2393-0.3306-0.249-0.3498c-0.0802-0.07,0.4094-0.8435,1.2591-1.8158
		C45.4173,66.2376,46.4096,64.8962,46.7072,63.0308z M62.7061,32.1096c2.2501,1.672,3.828,3.7842,3.7923,5.6178
		c-0.0083,0.9368-0.3402,1.9051-1.3228,2.9996c-0.1715,0.1865-0.2448,0.4182-0.26,0.6501
		c-0.2077-0.4225-0.4203-0.8312-0.6371-1.2111c-1.3441-2.322-1.6074-5.3613-1.5978-7.1031
		C62.6807,32.6596,62.6938,32.3442,62.7061,32.1096z M39.7406,53.7908h0.0027v0.0028L39.7406,53.7908z M79.2495,42.7774
		c-0.0055,2.4935-0.2674,4.5247-0.6604,5.9346c-1.4518,5.0747-5.8942,19.6637-8.4685,26.114
		c-0.838,2.0696-1.7028,5.7837-3.0173,9.5568c-1.3359,3.7826-3.1107,7.7518-6.281,10.5305
		c-2.1033,1.8516-4.9122,3.0653-8.2223,3.0517c-0.0288,0-0.0549,0-0.0823,0c-0.3751,0-0.7399-0.0192-1.0986-0.0494
		c-0.1097-0.0069-0.2174-0.0205-0.3251-0.0329c-0.2517-0.0247-0.4984-0.059-0.7392-0.0975
		c-0.1125-0.0205-0.2271-0.0369-0.3361-0.059c-0.2586-0.0493-0.5122-0.1069-0.7591-0.1727
		c-0.0735-0.0179-0.1508-0.0343-0.2236-0.0535c-0.3086-0.0878-0.6076-0.1851-0.899-0.2935
		c-0.0975-0.0343-0.1914-0.0768-0.2873-0.1138c-0.1948-0.0796-0.3882-0.1591-0.5768-0.2469
		c-0.1152-0.0535-0.2277-0.107-0.3381-0.1632c-0.166-0.0837-0.3285-0.1715-0.4876-0.2593c-0.109-0.063-0.218-0.122-0.325-0.1865
		c-0.192-0.1166-0.3792-0.2386-0.5609-0.3621c-0.1625-0.1111-0.3168-0.225-0.4705-0.3402c-0.1104-0.085-0.2229-0.1673-0.3305-0.255
		c-0.1289-0.1044-0.2545-0.2112-0.3792-0.3197c-0.0823-0.0726-0.1619-0.1468-0.2421-0.2194
		c-0.133-0.122-0.2633-0.2428-0.3896-0.3689c-0.0424-0.0426-0.0816-0.0851-0.1233-0.1263c-0.4684-0.48-0.8951-0.9847-1.2797-1.5087
		c-0.0136-0.0164-0.0253-0.0357-0.0397-0.0521c-0.7907-1.0835-1.4133-2.2273-1.8674-3.3301
		c-1.7577-4.0803-1.9235-7.9274-1.9359-8.0632c-0.0611-1.1782,0.8449-2.1752,2.0203-2.2342c1.1747-0.059,2.1704,0.849,2.2294,2.023
		c0.0041,0,0.0095,0.1577,0.0431,0.5157c0.0378,0.3539,0.1049,0.8764,0.2147,1.506c0.2229,1.2577,0.6323,2.9405,1.3358,4.5645
		c0.1475,0.3223,0.3045,0.6378,0.4671,0.9477c0.0823,0.159,0.1687,0.3168,0.2565,0.4703c0.0136,0.0247,0.0281,0.0494,0.0419,0.0742
		c0.0871,0.1494,0.1749,0.2976,0.2653,0.4444c0.0171,0.026,0.0343,0.0535,0.0521,0.0795c0.092,0.144,0.1845,0.2852,0.2799,0.4239
		c0.015,0.0219,0.0315,0.0424,0.0466,0.0645c0.4149,0.5857,0.8778,1.1191,1.405,1.5882c0.0371,0.033,0.0706,0.0673,0.107,0.0987
		c0.0947,0.0796,0.1934,0.1537,0.2902,0.2291c0.0645,0.0508,0.1268,0.1029,0.1934,0.1496c0.0904,0.0657,0.1851,0.1275,0.2805,0.1906
		c0.0795,0.0521,0.1563,0.1029,0.2386,0.1522c0.0926,0.0549,0.1872,0.1084,0.2838,0.1605c0.0892,0.0479,0.1798,0.0959,0.2723,0.1413
		c0.0954,0.0479,0.192,0.0918,0.2907,0.1344c0.0994,0.0438,0.2024,0.085,0.3073,0.1261c0.098,0.0371,0.1968,0.074,0.299,0.1083
		c0.1117,0.0385,0.2282,0.0727,0.3435,0.1056c0.1014,0.0289,0.2008,0.059,0.3059,0.0837c0.1261,0.0316,0.2598,0.0563,0.3928,0.0837
		c0.0994,0.0178,0.1976,0.0412,0.3018,0.0576c0.1529,0.0247,0.3126,0.0425,0.4718,0.059c0.0906,0.0096,0.177,0.0233,0.2688,0.0316
		c0.2552,0.0205,0.5185,0.0329,0.7914,0.0355c2.3179-0.0164,3.9534-0.7446,5.4299-2.0051c1.462-1.2646,2.6902-3.1422,3.6969-5.3174
		c2.0374-4.367,3.0757-9.6665,4.4404-13.1393c2.4276-6.0622,6.9221-20.7718,8.3272-25.6997
		c0.2386-0.8078,0.5033-2.6183,0.4979-4.7675c0.011-3.832-0.8017-8.8435-3.2863-12.651c-0.1708-0.2565-0.3477-0.5074-0.5314-0.7556
		c-0.0261-0.0357-0.0562-0.0701-0.0823-0.1056c-0.1667-0.2181-0.3368-0.4348-0.5136-0.646
		c-0.0145-0.0164-0.0302-0.0316-0.044-0.0494c-0.1961-0.2277-0.3984-0.4553-0.6097-0.6734
		c-0.002-0.0013-0.0041-0.0041-0.0055-0.0067c-0.2187-0.2264-0.447-0.4472-0.6837-0.6611
		c-2.4831-2.248-5.9792-3.7375-11.2774-3.7759c-8.1023,0.0302-13.0446,4.1544-16.433,9.0932
		c-3.3423,4.9251-4.7859,10.5992-5.2275,12.8032c-0.1303,0.6282-0.1763,0.9368-0.1763,0.9368l0.0027,0.0027
		c-0.1699,1.1646-1.2501,1.971-2.4138,1.8009c-1.1623-0.1687-1.9689-1.2481-1.7995-2.4111
		c0.0275-0.1454,0.932-6.5079,4.5789-13.0611c3.5784-6.5231,10.3317-13.4493,21.4685-13.4245
		c4.7305-0.0302,8.5817,1.1247,11.6073,2.9871c0,0.0014,0.0007,0.0014,0.002,0.0028c0.2381,0.1468,0.4678,0.3017,0.6962,0.4567
		c0.0788,0.0535,0.1611,0.1056,0.2393,0.1618c0.2029,0.1427,0.397,0.2895,0.5917,0.4403c0.0975,0.074,0.1983,0.1494,0.2949,0.2277
		c0.1749,0.1399,0.3456,0.2852,0.5136,0.4293c0.1098,0.0959,0.2174,0.1906,0.323,0.2866c0.1522,0.1399,0.3018,0.2798,0.4479,0.4223
		c0.1166,0.1125,0.2289,0.2278,0.3414,0.343c0.1282,0.1344,0.2586,0.266,0.3827,0.4032c0.1242,0.1358,0.2434,0.2757,0.3614,0.4142
		c0.1063,0.1234,0.214,0.2469,0.3154,0.3718c0.1386,0.1713,0.2681,0.3442,0.3991,0.517c0.0768,0.1015,0.1556,0.2031,0.2305,0.3045
		c0.2001,0.2798,0.3935,0.5652,0.5774,0.8532C78.4122,32.6803,79.2386,38.3982,79.2495,42.7774z"/>
</g>
</svg>
