<?xml version="1.0" encoding="utf-8"?>
<!-- Generator: Adobe Illustrator 21.0.2, SVG Export Plug-In . SVG Version: 6.00 Build 0)  -->
<svg version="1.1" id="Capa_1" xmlns="http://www.w3.org/2000/svg" xmlns:xlink="http://www.w3.org/1999/xlink" x="0px" y="0px"
	 viewBox="0 0 135.137 135.137" style="enable-background:new 0 0 135.137 135.137;" xml:space="preserve">
<style type="text/css">
	.st0{fill-rule:evenodd;clip-rule:evenodd;fill:#DDDDDD;}
	.st1{fill:#3B86B1;}
	.st2{opacity:0.25;fill-rule:evenodd;clip-rule:evenodd;fill:#020202;}
	.st3{fill:#FFFFFF;}
	.st4{opacity:0.5;}
	.st5{fill-rule:evenodd;clip-rule:evenodd;fill:#A8A8A8;}
	.st6{fill-rule:evenodd;clip-rule:evenodd;fill:#FFFFFF;}
	.st7{fill-rule:evenodd;clip-rule:evenodd;fill:#3B86B1;}
	.st8{opacity:0.5;fill:#2C6882;}
	.st9{opacity:0.75;fill-rule:evenodd;clip-rule:evenodd;fill:#282828;}
	.st10{opacity:0.5;fill:#FFFFFF;}
	.st11{fill-rule:evenodd;clip-rule:evenodd;fill:none;stroke:#FFFFFF;stroke-miterlimit:10;}
	.st12{fill:none;stroke:#FFFFFF;stroke-miterlimit:10;}
	.st13{fill:#FFFFFF;stroke:#3B86B1;stroke-width:1.7139;stroke-miterlimit:10;}
	.st14{fill-rule:evenodd;clip-rule:evenodd;}
	.st15{opacity:0.85;fill:#FFFFFF;}
	.st16{opacity:0.5;fill-rule:evenodd;clip-rule:evenodd;}
	.st17{fill-rule:evenodd;clip-rule:evenodd;fill:#FEFEFE;}
	.st18{fill:#312767;}
	.st19{opacity:0.48;}
	.st20{opacity:0.25;}
	.st21{fill-rule:evenodd;clip-rule:evenodd;fill:#020202;}
	.st22{fill:#757575;}
	.st23{opacity:0.25;clip-path:url(#XMLID_2396_);}
	.st24{fill:#4D4789;}
	.st25{fill:#FFFFFF;stroke:#312767;stroke-miterlimit:10;}
	.st26{fill:#3B86B1;stroke:#3B86B1;stroke-miterlimit:10;}
	.st27{fill:#FFFFFF;stroke:#FFFFFF;stroke-miterlimit:10;}
	.st28{fill:#ACABC9;}
	.st29{fill-rule:evenodd;clip-rule:evenodd;fill:#312767;}
	.st30{opacity:0.77;fill:#312767;}
	.st31{opacity:0.25;clip-path:url(#XMLID_2397_);}
	.st32{fill:#9490B2;stroke:#2D2D2D;stroke-width:0.25;stroke-miterlimit:10;}
	.st33{fill:#312767;stroke:#2D2D2D;stroke-width:0.25;stroke-miterlimit:10;}
	.st34{fill:#FCFCFC;}
	.st35{fill:#FFFFFF;stroke:#2D2D2D;stroke-width:0.25;stroke-miterlimit:10;}
	.st36{fill-rule:evenodd;clip-rule:evenodd;fill:#484849;stroke:#2D2D2D;stroke-width:0.25;stroke-miterlimit:10;}
	.st37{fill-rule:evenodd;clip-rule:evenodd;fill:#312767;stroke:#2D2D2D;stroke-width:0.25;stroke-miterlimit:10;}
	.st38{fill-rule:evenodd;clip-rule:evenodd;fill:#FFFFFF;stroke:#2D2D2D;stroke-width:0.25;stroke-miterlimit:10;}
	.st39{fill:#484849;stroke:#2D2D2D;stroke-width:0.25;stroke-miterlimit:10;}
	.st40{fill:#54518C;}
	.st41{opacity:0.25;fill-rule:evenodd;clip-rule:evenodd;fill:#FFFFFF;}
	.st42{fill:#D4A800;}
	.st43{fill:#00AEB3;}
	.st44{fill:#38353B;}
	.st45{fill:#FF8400;}
	.st46{fill:#BF3900;}
	.st47{fill:#00AA9C;}
	.st48{opacity:0.25;clip-path:url(#XMLID_2400_);}
	.st49{fill:none;stroke:#ACABC9;stroke-width:5;stroke-miterlimit:10;}
	.st50{opacity:0.25;clip-path:url(#XMLID_2403_);}
	.st51{fill:#DDDDDD;}
	.st52{opacity:0.25;fill-rule:evenodd;clip-rule:evenodd;fill:#FFFFFF;stroke:#303030;stroke-width:0.5;stroke-miterlimit:10;}
	.st53{fill:#3B86B1;stroke:#303030;stroke-width:0.5;stroke-miterlimit:10;}
	.st54{fill:#D4A800;stroke:#303030;stroke-width:0.5;stroke-miterlimit:10;}
	.st55{fill:#00AEB3;stroke:#303030;stroke-width:0.5;stroke-miterlimit:10;}
	.st56{fill:#FF8400;stroke:#303030;stroke-width:0.5;stroke-miterlimit:10;}
	.st57{fill:#BF3900;stroke:#303030;stroke-width:0.5;stroke-miterlimit:10;}
	.st58{fill:#00AA9C;stroke:#303030;stroke-width:0.5;stroke-miterlimit:10;}
	.st59{opacity:0.25;clip-path:url(#XMLID_2404_);}
	.st60{fill-rule:evenodd;clip-rule:evenodd;fill:#FFFFFF;stroke:#FFFFFF;stroke-miterlimit:10;}
	.st61{fill:#F79748;}
	.st62{fill:#FF7900;}
	.st63{fill:#DD7105;}
	.st64{fill:#02897C;}
	.st65{fill:#0EAD9A;}
	.st66{fill:#28C6AF;}
	.st67{fill:#4FE0C7;}
	.st68{fill:#00AA9C;stroke:#353535;stroke-width:0.5;stroke-miterlimit:10;}
	.st69{fill:#02897C;stroke:#353535;stroke-width:0.5;stroke-miterlimit:10;}
	.st70{fill:#0EAD9A;stroke:#353535;stroke-width:0.5;stroke-miterlimit:10;}
	.st71{fill:#28C6AF;stroke:#353535;stroke-width:0.5;stroke-miterlimit:10;}
	.st72{fill:#4FE0C7;stroke:#353535;stroke-width:0.5;stroke-miterlimit:10;}
	.st73{fill:#D37D00;}
	.st74{fill:#D14600;}
	.st75{fill:#E5B92E;}
	.st76{fill:#DD571B;}
	.st77{fill:#E28A17;}
	.st78{opacity:0.25;clip-path:url(#XMLID_2410_);}
	.st79{opacity:0.77;fill:#FFFFFF;}
	.st80{fill:#50565B;stroke:#656C70;stroke-miterlimit:10;}
	.st81{fill:#808589;stroke:#656C70;stroke-miterlimit:10;}
	.st82{fill:#252728;stroke:#000000;stroke-miterlimit:10;}
	.st83{fill:#1A1B1C;stroke:#000000;stroke-miterlimit:10;}
	.st84{fill:#A0A6AA;}
	.st85{fill:#262C35;stroke:#161A1E;stroke-miterlimit:10;}
	.st86{fill:#181D23;}
	.st87{fill:#EABA96;stroke:#E0AA86;stroke-miterlimit:10;}
	.st88{fill:#E0AA86;}
	.st89{stroke:#000000;stroke-width:0.75;stroke-linecap:square;stroke-linejoin:bevel;stroke-miterlimit:10;}
	.st90{fill:#0F1C3F;stroke:#182951;stroke-miterlimit:10;}
	.st91{fill:#132354;stroke:#3F6093;stroke-miterlimit:10;}
	.st92{fill:#0F1C3F;}
	.st93{fill:none;stroke:#3F6093;stroke-width:0.75;stroke-miterlimit:10;}
	.st94{fill:#DBA682;}
	.st95{fill:none;stroke:#E0AA86;stroke-miterlimit:10;}
	.st96{fill:none;stroke:#E0AA86;stroke-linejoin:bevel;stroke-miterlimit:10;}
	.st97{fill:#8A0A8E;stroke:#AC34B2;stroke-miterlimit:10;}
	.st98{fill:#810C87;}
	.st99{fill:#680B6D;}
	.st100{fill:#AC34B2;stroke:#AC34B2;stroke-width:0.5;stroke-miterlimit:10;}
	.st101{fill:none;stroke:#959DA0;stroke-width:0.5;stroke-miterlimit:10;}
	.st102{fill:#959DA0;stroke:#959DA0;stroke-width:0.5;stroke-miterlimit:10;}
	.st103{fill:none;stroke:#AC34B2;stroke-miterlimit:10;}
	.st104{fill:#282828;stroke:#000000;stroke-miterlimit:10;}
	.st105{fill:#EABA96;stroke:#E0AA86;stroke-width:0.5;stroke-miterlimit:10;}
	.st106{fill:#B7896A;}
	.st107{stroke:#000000;stroke-miterlimit:10;}
	.st108{fill:#C1A578;}
	.st109{stroke:#000000;stroke-width:0.25;stroke-linecap:round;stroke-linejoin:round;stroke-miterlimit:10;}
	.st110{fill:#FFFFFF;stroke:#000000;stroke-width:0.25;stroke-linecap:round;stroke-linejoin:round;stroke-miterlimit:10;}
	.st111{fill:#70582D;}
	.st112{stroke:#000000;stroke-linecap:round;stroke-linejoin:round;stroke-miterlimit:10;}
	.st113{fill:none;stroke:#D8A27D;stroke-width:0.75;stroke-miterlimit:10;}
	.st114{fill:#561409;}
	.st115{fill:#BA2A13;}
	.st116{fill:#9E3025;stroke:#4C2311;stroke-width:0.25;stroke-miterlimit:10;}
	.st117{fill:#871D08;stroke:#4C2311;stroke-width:0.25;stroke-miterlimit:10;}
	.st118{fill:#DDAC8A;}
	.st119{fill:#A5ABAD;stroke:#959DA0;stroke-width:0.5;stroke-miterlimit:10;}
	.st120{fill:#B1BABC;}
	.st121{fill:none;stroke:#153847;stroke-width:5;stroke-miterlimit:10;}
	.st122{fill:#3CA7AF;}
	.st123{fill:#3DAD8D;}
	.st124{fill:#3DAA61;}
	.st125{fill:#67A53F;}
	.st126{fill:#95A340;}
	.st127{opacity:0.25;clip-path:url(#XMLID_2411_);}
	.st128{opacity:0.25;clip-path:url(#XMLID_2416_);}
	.st129{fill:#F79748;stroke:#303030;stroke-width:0.5;stroke-miterlimit:10;}
	.st130{fill:#FF7900;stroke:#303030;stroke-width:0.5;stroke-miterlimit:10;}
	.st131{fill:#DD7105;stroke:#303030;stroke-width:0.5;stroke-miterlimit:10;}
	.st132{opacity:0.25;clip-path:url(#XMLID_2422_);}
	.st133{clip-path:url(#SVGID_2_);}
	.st134{fill:none;stroke:#3F6093;stroke-miterlimit:10;}
	.st135{fill:none;stroke:#3F6093;stroke-width:0.75;stroke-linecap:round;stroke-linejoin:round;}
	.st136{fill:none;stroke:#3F6093;stroke-width:0.75;stroke-linecap:round;stroke-linejoin:round;stroke-dasharray:0.9892,0.9892;}
	
		.st137{fill:none;stroke:#3F6093;stroke-width:0.75;stroke-linecap:round;stroke-linejoin:round;stroke-miterlimit:10;stroke-dasharray:1;}
	.st138{fill:#EAEAEA;stroke:#FFFFFF;stroke-width:0.25;stroke-miterlimit:10;}
	.st139{fill:#D8D8D8;}
	.st140{fill:#282828;stroke:#000000;stroke-width:0.75;stroke-miterlimit:10;}
	.st141{opacity:0.33;fill:#FFFFFF;}
	.st142{fill:none;stroke:#000000;stroke-width:1.5;stroke-linecap:round;stroke-linejoin:round;stroke-miterlimit:10;}
	.st143{clip-path:url(#SVGID_4_);}
	.st144{opacity:0.64;}
	.st145{fill:#1D1D1B;}
	.st146{fill:#C9C9C9;}
	.st147{fill:#545477;}
</style>
<g>
	<circle id="XMLID_2324_" class="st41" cx="67.5685" cy="67.5685" r="67.5685"/>
	<g>
		<path class="st54" d="M118.4274,57.4216h-1.9004c-0.1188-0.179-0.2433-0.3552-0.3785-0.5253
			c-1.4206-1.7871-3.5449-2.812-5.8277-2.812H84.116c-3.2103,0-6.2731,1.3774-8.4031,3.7793
			c-2.13,2.4017-3.1317,5.6072-2.748,8.7943l0.0103,0.0747l0.0368,0.2376c-2.1398-0.7804-4.5013-0.7805-6.6412,0.0001l0.0368-0.2377
			l0.0103-0.0747c0.3837-3.1871-0.618-6.3926-2.748-8.7943c-2.13-2.4019-5.1929-3.7793-8.4031-3.7793H29.062
			c-2.2829,0-4.4071,1.0249-5.8277,2.812c-0.1353,0.1702-0.2597,0.3464-0.3785,0.5253h-1.9003
			c-1.1923,0-2.1588,0.9665-2.1588,2.1588v3.7382c0,1.1922,0.9665,2.1588,2.1588,2.1588h1.5052l2.5754,8.9688
			c1.8501,7.8711,8.7787,13.363,16.8702,13.363h9.8948c6.6829,0,12.3267-4.9932,13.1441-11.6219l0.8344-5.395
			c2.3128-1.729,5.5108-1.7288,7.8234-0.0001l0.8344,5.3951c0.8174,6.6287,6.4612,11.6219,13.1441,11.6219h9.8948
			c8.0915,0,15.0201-5.4919,16.8702-13.363l2.5754-8.9688h1.5052c1.1923,0,2.1588-0.9666,2.1588-2.1588v-3.7382
			C120.5862,58.3881,119.6196,57.4216,118.4274,57.4216z M61.9658,66.0866l-1.4616,9.4505l-0.0103,0.0747
			c-0.529,4.395-4.266,7.7092-8.6929,7.7092h-9.8948c-6.0111,0-11.1559-4.09-12.5115-9.9461l-3.2242-11.2286
			c-0.1856-0.8679,0.0234-1.7606,0.577-2.457c0.5642-0.7097,1.4078-1.1168,2.3144-1.1168h26.2047
			c1.9274,0,3.7664,0.827,5.0452,2.2691C61.5828,62.2747,62.1847,64.1845,61.9658,66.0866z M113.2122,62.1463l-3.2242,11.2286
			c-1.3556,5.856-6.5004,9.9461-12.5115,9.9461h-9.8948c-4.4269,0-8.1639-3.3143-8.6929-7.7092l-0.0103-0.0747l-1.4616-9.4505
			c-0.2188-1.9021,0.383-3.8119,1.6539-5.2451c1.2788-1.442,3.1179-2.2691,5.0452-2.2691h26.2047
			c0.9066,0,1.7502,0.4071,2.3144,1.1168C113.1887,60.3857,113.3978,61.2784,113.2122,62.1463z"/>
		<g>
			<path class="st54" d="M62.9793,57.1731c2.13,2.4017,3.1317,5.6072,2.748,8.7943l-0.0103,0.0747l-0.0368,0.2377
				c0,0-0.0922,0.67-0.1518,0.9218c0,0,0.6165-0.1561,0.8422-0.2313c0,0,0.0946-0.5567,0.1041-0.9411
				c0.1893-2.9765-0.8151-5.9218-2.805-8.1656c-0.2673-0.3014-0.5494-0.5866-0.8445-0.8551
				C62.8763,57.0637,62.9293,57.1167,62.9793,57.1731z"/>
			<path class="st54" d="M78.1983,74.9212c0.2651,2.202,1.3357,4.1323,2.8946,5.5108c-1.1794-1.3027-1.9806-2.9629-2.2042-4.8202
				l-0.0103-0.0747l-1.4616-9.4505c-0.2188-1.9021,0.383-3.8119,1.6539-5.2451c1.2788-1.442,3.1179-2.2691,5.0452-2.2691h26.2047
				c0.6249,0,1.2174,0.1974,1.7116,0.55c-0.0294-0.0411-0.056-0.0838-0.0877-0.1237c-0.5642-0.7097-1.4078-1.1168-2.3144-1.1168
				H83.4255c-1.9273,0-3.7663,0.827-5.0451,2.269c-1.2709,1.4333-1.8728,3.3431-1.6539,5.2451l1.4616,9.4504L78.1983,74.9212z"/>
			<path class="st54" d="M115.458,56.2057c0.1353,0.1702,0.2597,0.3464,0.3785,0.5254h0.1729
				c-0.2448-0.2906-0.5078-0.5605-0.7884-0.8068C115.3017,56.0162,115.3813,56.1094,115.458,56.2057z"/>
			<path class="st54" d="M72.9126,70.1016c-2.3127-1.7288-5.5106-1.7289-7.8234,0.0001l-0.8344,5.3951
				c-0.8174,6.6286-6.4612,11.6219-13.1441,11.6219h-9.8948c-4.5577,0-8.7463-1.7427-11.8663-4.6713
				c3.178,3.3418,7.6525,5.3618,12.5568,5.3618h9.8948c6.6829,0,12.3267-4.9932,13.1441-11.6219l0.8344-5.395
				c2.104-1.5729,4.9385-1.7098,7.1746-0.421L72.9126,70.1016z"/>
			<path class="st54" d="M32.4931,79.2325c-1.4849-1.6007-2.5749-3.5967-3.0983-5.8577l-3.2242-11.2286
				c-0.1856-0.8679,0.0234-1.7606,0.577-2.457c0.5642-0.7097,1.4078-1.1168,2.3144-1.1168h26.2047
				c1.6325,0,3.1978,0.5986,4.4168,1.6565c-0.0217-0.0253-0.0399-0.053-0.062-0.078c-1.2788-1.442-3.1179-2.269-5.0452-2.269
				H28.3716c-0.9066,0-1.7502,0.4071-2.3144,1.1168c-0.5536,0.6964-0.7626,1.5892-0.577,2.457l3.2242,11.2286
				C29.3058,75.283,30.6546,77.5325,32.4931,79.2325z"/>
			<path class="st54" d="M119.5675,57.7497c0.2067,0.3312,0.3281,0.7211,0.3281,1.1402v3.7382c0,1.1923-0.9666,2.1588-2.1588,2.1588
				h-1.5052l-2.5754,8.9689c-1.8501,7.871-8.7787,13.363-16.8702,13.363h-9.8948c-3.4619,0-6.6429-1.3423-9.0206-3.5554
				c2.4326,2.6223,5.9023,4.2458,9.7111,4.2458h9.8948c8.0915,0,15.0201-5.4919,16.8702-13.363l2.5754-8.9688h1.5052
				c1.1923,0,2.1588-0.9666,2.1588-2.1588v-3.7382C120.5862,58.8073,120.1784,58.131,119.5675,57.7497z"/>
			<path class="st54" d="M21.7701,64.7868H20.265c-0.4192,0-0.8091-0.1214-1.1402-0.3281c0.3813,0.6109,1.0576,1.0186,1.8307,1.0186
				h1.013L21.7701,64.7868z"/>
		</g>
		<g>
			<path class="st42" d="M46.4089,54.9211c-5.0246,0-10.0493,0-15.0739,0c-2.6986,0-5.2586,0.2555-7.1206,2.5263
				c-2.4461,2.9829-1.2983,6.2072-0.361,9.4714c0.3061,1.0658,1.9723,0.6126,1.6646-0.4589
				c-0.9412-3.2776-2.2509-7.1551,1.6198-9.2253c1.7108-0.9149,4.1086-0.5873,5.9857-0.5873c4.4285,0,8.857,0,13.2855,0
				C47.5197,56.6474,47.5215,54.9211,46.4089,54.9211L46.4089,54.9211z"/>
		</g>
		<g>
			<path class="st42" d="M109.5028,54.9211c-8.5689,0-17.1378,0-25.7067,0c-2.5378,0-4.7812,0.4947-6.5359,2.5263
				c-0.7229,0.8369,0.4929,2.0631,1.2206,1.2206c1.905-2.2056,4.235-2.0207,6.8132-2.0207c3.1234,0,6.2467,0,9.3701,0
				c4.9462,0,9.8924,0,14.8387,0C110.6135,56.6474,110.6154,54.9211,109.5028,54.9211L109.5028,54.9211z"/>
		</g>
	</g>
</g>
</svg>
