<?xml version="1.0" encoding="utf-8"?>
<!-- Generator: Adobe Illustrator 21.0.2, SVG Export Plug-In . SVG Version: 6.00 Build 0)  -->
<svg version="1.1" id="Capa_1" xmlns="http://www.w3.org/2000/svg" xmlns:xlink="http://www.w3.org/1999/xlink" x="0px" y="0px"
	 viewBox="0 0 136.4469 625.9857" style="enable-background:new 0 0 136.4469 625.9857;" xml:space="preserve">
<style type="text/css">
	.st0{fill-rule:evenodd;clip-rule:evenodd;fill:#DDDDDD;}
	.st1{fill:#3B86B1;}
	.st2{opacity:0.25;fill-rule:evenodd;clip-rule:evenodd;fill:#020202;}
	.st3{fill:#FFFFFF;}
	.st4{opacity:0.5;}
	.st5{fill-rule:evenodd;clip-rule:evenodd;fill:#A8A8A8;}
	.st6{fill-rule:evenodd;clip-rule:evenodd;fill:#FFFFFF;}
	.st7{fill-rule:evenodd;clip-rule:evenodd;fill:#3B86B1;}
	.st8{opacity:0.5;fill:#2C6882;}
	.st9{opacity:0.75;fill-rule:evenodd;clip-rule:evenodd;fill:#282828;}
	.st10{opacity:0.5;fill:#FFFFFF;}
	.st11{fill-rule:evenodd;clip-rule:evenodd;fill:none;stroke:#FFFFFF;stroke-miterlimit:10;}
	.st12{fill:none;stroke:#FFFFFF;stroke-miterlimit:10;}
	.st13{fill:#FFFFFF;stroke:#3B86B1;stroke-width:1.7139;stroke-miterlimit:10;}
	.st14{fill-rule:evenodd;clip-rule:evenodd;}
	.st15{opacity:0.85;fill:#FFFFFF;}
	.st16{opacity:0.5;fill-rule:evenodd;clip-rule:evenodd;}
	.st17{fill-rule:evenodd;clip-rule:evenodd;fill:#FEFEFE;}
	.st18{fill:#312767;}
	.st19{opacity:0.48;}
	.st20{opacity:0.25;}
	.st21{fill-rule:evenodd;clip-rule:evenodd;fill:#020202;}
	.st22{opacity:0.25;clip-path:url(#XMLID_1539_);}
	.st23{fill:#FFFFFF;stroke:#312767;stroke-miterlimit:10;}
	.st24{fill:#ACABC9;}
	.st25{fill-rule:evenodd;clip-rule:evenodd;fill:#312767;}
	.st26{opacity:0.77;fill:#312767;}
	.st27{opacity:0.25;clip-path:url(#XMLID_1547_);}
	.st28{fill:#54518C;}
	.st29{fill:#FFFFFF;stroke:#FFFFFF;stroke-miterlimit:10;}
	.st30{opacity:0.25;fill-rule:evenodd;clip-rule:evenodd;fill:#FFFFFF;}
	.st31{fill:#D4A800;}
	.st32{fill:#00AEB3;}
	.st33{fill:#38353B;}
	.st34{fill:#FF8400;}
	.st35{fill:#BF3900;}
	.st36{fill:#00AA9C;}
	.st37{opacity:0.25;clip-path:url(#XMLID_1553_);}
	.st38{fill:none;stroke:#ACABC9;stroke-width:5;stroke-miterlimit:10;}
	.st39{opacity:0.25;clip-path:url(#XMLID_1576_);}
	.st40{fill:#DDDDDD;}
	.st41{opacity:0.25;clip-path:url(#XMLID_1593_);}
	.st42{fill-rule:evenodd;clip-rule:evenodd;fill:#FFFFFF;stroke:#FFFFFF;stroke-miterlimit:10;}
	.st43{fill:#F79748;}
	.st44{fill:#FF7900;}
	.st45{fill:#DD7105;}
	.st46{fill:#02897C;}
	.st47{fill:#0EAD9A;}
	.st48{fill:#28C6AF;}
	.st49{fill:#4FE0C7;}
	.st50{fill:#D37D00;}
	.st51{fill:#D14600;}
	.st52{fill:#E5B92E;}
	.st53{fill:#DD571B;}
	.st54{fill:#E28A17;}
	.st55{opacity:0.25;clip-path:url(#XMLID_1594_);}
	.st56{opacity:0.77;fill:#FFFFFF;}
	.st57{fill:#50565B;stroke:#656C70;stroke-miterlimit:10;}
	.st58{fill:#808589;stroke:#656C70;stroke-miterlimit:10;}
	.st59{fill:#252728;stroke:#000000;stroke-miterlimit:10;}
	.st60{fill:#1A1B1C;stroke:#000000;stroke-miterlimit:10;}
	.st61{fill:#A0A6AA;}
	.st62{fill:#262C35;stroke:#161A1E;stroke-miterlimit:10;}
	.st63{fill:#181D23;}
	.st64{fill:#EABA96;stroke:#E0AA86;stroke-miterlimit:10;}
	.st65{fill:#E0AA86;}
	.st66{stroke:#000000;stroke-width:0.75;stroke-linecap:square;stroke-linejoin:bevel;stroke-miterlimit:10;}
	.st67{fill:#0F1C3F;stroke:#182951;stroke-miterlimit:10;}
	.st68{fill:#132354;stroke:#3F6093;stroke-miterlimit:10;}
	.st69{fill:#0F1C3F;}
	.st70{fill:none;stroke:#3F6093;stroke-width:0.75;stroke-miterlimit:10;}
	.st71{fill:#DBA682;}
	.st72{fill:none;stroke:#E0AA86;stroke-miterlimit:10;}
	.st73{fill:none;stroke:#E0AA86;stroke-linejoin:bevel;stroke-miterlimit:10;}
	.st74{fill:#8A0A8E;stroke:#AC34B2;stroke-miterlimit:10;}
	.st75{fill:#810C87;}
	.st76{fill:#680B6D;}
	.st77{fill:#AC34B2;stroke:#AC34B2;stroke-width:0.5;stroke-miterlimit:10;}
	.st78{fill:none;stroke:#959DA0;stroke-width:0.5;stroke-miterlimit:10;}
	.st79{fill:#959DA0;stroke:#959DA0;stroke-width:0.5;stroke-miterlimit:10;}
	.st80{fill:none;stroke:#AC34B2;stroke-miterlimit:10;}
	.st81{fill:#282828;stroke:#000000;stroke-miterlimit:10;}
	.st82{fill:#EABA96;stroke:#E0AA86;stroke-width:0.5;stroke-miterlimit:10;}
	.st83{fill:#B7896A;}
	.st84{stroke:#000000;stroke-miterlimit:10;}
	.st85{fill:#C1A578;}
	.st86{stroke:#000000;stroke-width:0.25;stroke-linecap:round;stroke-linejoin:round;stroke-miterlimit:10;}
	.st87{fill:#FFFFFF;stroke:#000000;stroke-width:0.25;stroke-linecap:round;stroke-linejoin:round;stroke-miterlimit:10;}
	.st88{fill:#70582D;}
	.st89{stroke:#000000;stroke-linecap:round;stroke-linejoin:round;stroke-miterlimit:10;}
	.st90{fill:none;stroke:#D8A27D;stroke-width:0.75;stroke-miterlimit:10;}
	.st91{fill:#561409;}
	.st92{fill:#BA2A13;}
	.st93{fill:#9E3025;stroke:#4C2311;stroke-width:0.25;stroke-miterlimit:10;}
	.st94{fill:#871D08;stroke:#4C2311;stroke-width:0.25;stroke-miterlimit:10;}
	.st95{fill:#DDAC8A;}
	.st96{fill:#A5ABAD;stroke:#959DA0;stroke-width:0.5;stroke-miterlimit:10;}
	.st97{fill:#B1BABC;}
	.st98{fill:#FCFCFC;}
	.st99{fill:none;stroke:#153847;stroke-width:5;stroke-miterlimit:10;}
	.st100{fill:#3CA7AF;}
	.st101{fill:#3DAD8D;}
	.st102{fill:#3DAA61;}
	.st103{fill:#67A53F;}
	.st104{fill:#95A340;}
	.st105{opacity:0.25;clip-path:url(#XMLID_1623_);}
	.st106{opacity:0.25;clip-path:url(#XMLID_1631_);}
	.st107{opacity:0.25;clip-path:url(#XMLID_1633_);}
	.st108{clip-path:url(#SVGID_2_);}
	.st109{fill:none;stroke:#3F6093;stroke-miterlimit:10;}
	.st110{fill:none;stroke:#3F6093;stroke-width:0.75;stroke-linecap:round;stroke-linejoin:round;}
	.st111{fill:none;stroke:#3F6093;stroke-width:0.75;stroke-linecap:round;stroke-linejoin:round;stroke-dasharray:0.9892,0.9892;}
	
		.st112{fill:none;stroke:#3F6093;stroke-width:0.75;stroke-linecap:round;stroke-linejoin:round;stroke-miterlimit:10;stroke-dasharray:1;}
	.st113{fill:#EAEAEA;stroke:#FFFFFF;stroke-width:0.25;stroke-miterlimit:10;}
	.st114{fill:#D8D8D8;}
	.st115{fill:#282828;stroke:#000000;stroke-width:0.75;stroke-miterlimit:10;}
	.st116{opacity:0.33;fill:#FFFFFF;}
	.st117{fill:none;stroke:#000000;stroke-width:1.5;stroke-linecap:round;stroke-linejoin:round;stroke-miterlimit:10;}
	.st118{opacity:0.64;}
	.st119{fill:#1D1D1B;}
	.st120{fill:#C9C9C9;}
</style>
<g>
	<g id="XMLID_817_">
		<path class="st6" d="M135.8607,312.9933c0-116.3348-14.6729-224.1998-39.6881-312.9933H0v625.9857h96.1729
			C121.1878,537.1921,135.8607,429.3275,135.8607,312.9933z"/>
	</g>
	<g id="XMLID_169_">
		<path id="XMLID_816_" class="st14" d="M74.1211,276.8734c4.5319,0,8.2252,3.718,8.2252,8.2747
			c0,4.5567-3.6932,8.2728-8.2252,8.2728c-4.5301,0-8.2272-3.7161-8.2272-8.2728C65.8939,280.5914,69.591,276.8734,74.1211,276.8734
			"/>
		<path id="XMLID_777_" class="st14" d="M44.1611,303.5769v0.0305l-0.04,0.3043c0,0.426,0.2416,0.7436,0.7265,0.9528
			c0.4887,0.2073,1.2418,0.3119,2.2612,0.3119c0.7759,0,1.3826-0.0875,1.8238-0.2567c0.4431-0.1711,0.6637-0.4051,0.6637-0.7036
			c0-0.4526-0.8748-0.8159-2.615-1.1012c-0.2035-0.0323-0.3556-0.057-0.4545-0.0723c-0.1122-0.0209-0.2757-0.0475-0.4887-0.0818
			c-2.7652-0.4526-4.5453-0.9433-5.3307-1.472c-0.3823-0.2606-0.6752-0.563-0.8729-0.9148c-0.1901-0.3518-0.289-0.7512-0.289-1.1886
			c0-1.0821,0.6352-1.9056,1.9056-2.4704c1.2704-0.5648,3.1303-0.8482,5.578-0.8482c2.4191,0,4.2105,0.2643,5.3763,0.793
			c1.1639,0.5325,1.7478,1.3503,1.7478,2.4476v0.1274h-4.5815v-0.0494c0-0.3803-0.2282-0.6637-0.6922-0.8577
			c-0.464-0.1959-1.1449-0.2948-2.0387-0.2948c-0.6942,0-1.2305,0.0685-1.6032,0.2073c-0.3785,0.1388-0.5667,0.3385-0.5667,0.5934
			c0,0.4583,0.9985,0.8463,2.9953,1.1696c0.3842,0.0571,0.6865,0.1046,0.9052,0.1388c1.4226,0.2377,2.4362,0.4431,3.0391,0.6143
			c0.6028,0.1693,1.122,0.3727,1.5613,0.6047c0.485,0.2663,0.8672,0.6048,1.1297,1.0117c0.2644,0.407,0.3975,0.852,0.3975,1.3389
			c0,1.1144-0.6941,1.9702-2.0768,2.5712c-1.3845,0.601-3.3794,0.9015-5.9773,0.9015c-2.5693,0-4.4293-0.2891-5.5799-0.8653
			c-1.1505-0.58-1.7192-1.5043-1.7192-2.7804v-0.1617H44.1611z M56.7091,307.1998v-10.9676h13.0576v2.364h-8.1548v1.7477h7.5406
			v2.3335h-7.5406v2.1281h8.4648v2.3943H56.7091z M72.123,307.1998v-10.9676h6.2055l6.641,7.358v-7.358h4.7108v10.9676h-6.4356
			l-6.4261-7.3846v7.3846H72.123z M102.3481,302.8257l-2.3468-3.9861l-2.4799,3.9861H102.3481z M94.8779,307.1998h-4.9162
			l7.59-10.9676h5.4391l7.2401,10.9676h-5.46l-1.105-1.9797h-7.6071L94.8779,307.1998z"/>
		<path id="XMLID_776_" class="st14" d="M50.1894,345.8644l-4.3798-4.1174l13.3334-23.1409
			c0.7265-1.2628-0.1825-2.8394-1.6393-2.8394H35.6749v-5.7891h35.1336L50.1894,345.8644z"/>
		<path id="XMLID_775_" class="st14" d="M97.6714,345.8644l4.3798-4.1174l-13.3334-23.1409
			c-0.7265-1.2628,0.1825-2.8394,1.6393-2.8394h21.8287v-5.7891H77.0523L97.6714,345.8644z"/>
		<path id="XMLID_368_" class="st14" d="M73.8826,316.096l0.0475-0.0818l19.7976,32.724l-5.2565,2.7348L75.714,330.1084
			c-0.7512-1.259-2.575-1.2609-3.3224,0c-4.2524,7.1678-12.6735,21.3647-12.6735,21.3647l-5.1462-2.5446
			C54.5718,348.9284,72.8251,317.8951,73.8826,316.096"/>
	</g>
	<path id="XMLID_69_" class="st18" d="M136.3,318.6046c2.2771-124.8297-22.6157-290.8483-26.4429-315.5521
		c-0.2479-1.6-0.8101-2.7005-1.4718-3.0525H95.5389c0.6714,0,1.3027,0.8125,1.6833,2.1772
		C121.8656,90.5542,136.3,197.6076,136.3,312.9933c0,2.2768-0.0156,4.5443-0.0268,6.8143
		C136.2817,319.4022,136.2925,319.0185,136.3,318.6046z"/>
	<path id="XMLID_10_" class="st18" d="M136.3,306.5991c2.2771,124.8297-22.6157,290.8483-26.4429,315.5521
		c-0.2479,1.6-0.8101,2.7006-1.4718,3.0525H95.5389c0.6714,0,1.3027-0.8125,1.6833-2.1772
		C121.8656,534.6495,136.3,427.5961,136.3,312.2104c0-2.2768-0.0156-4.5442-0.0268-6.8143
		C136.2817,305.8015,136.2925,306.1852,136.3,306.5991z"/>
</g>
</svg>
