<?xml version="1.0" encoding="utf-8"?>
<!-- Generator: Adobe Illustrator 21.0.2, SVG Export Plug-In . SVG Version: 6.00 Build 0)  -->
<svg version="1.1" id="Capa_1" xmlns="http://www.w3.org/2000/svg" xmlns:xlink="http://www.w3.org/1999/xlink" x="0px" y="0px"
	 viewBox="0 0 154.914 74.254" style="enable-background:new 0 0 154.914 74.254;" xml:space="preserve">
<style type="text/css">
	.st0{fill-rule:evenodd;clip-rule:evenodd;fill:#DDDDDD;}
	.st1{fill:#3B86B1;}
	.st2{opacity:0.25;fill-rule:evenodd;clip-rule:evenodd;fill:#020202;}
	.st3{fill:#FFFFFF;}
	.st4{opacity:0.5;}
	.st5{fill-rule:evenodd;clip-rule:evenodd;fill:#A8A8A8;}
	.st6{fill-rule:evenodd;clip-rule:evenodd;fill:#FFFFFF;}
	.st7{fill-rule:evenodd;clip-rule:evenodd;fill:#3B86B1;}
	.st8{opacity:0.5;fill:#2C6882;}
	.st9{opacity:0.75;fill-rule:evenodd;clip-rule:evenodd;fill:#282828;}
	.st10{opacity:0.5;fill:#FFFFFF;}
	.st11{fill-rule:evenodd;clip-rule:evenodd;fill:none;stroke:#FFFFFF;stroke-miterlimit:10;}
	.st12{fill:none;stroke:#FFFFFF;stroke-miterlimit:10;}
	.st13{fill:#FFFFFF;stroke:#3B86B1;stroke-width:1.7139;stroke-miterlimit:10;}
	.st14{fill-rule:evenodd;clip-rule:evenodd;}
	.st15{opacity:0.85;fill:#FFFFFF;}
	.st16{opacity:0.5;fill-rule:evenodd;clip-rule:evenodd;}
	.st17{fill-rule:evenodd;clip-rule:evenodd;fill:#FEFEFE;}
	.st18{fill:#312767;}
	.st19{opacity:0.48;}
	.st20{opacity:0.25;}
	.st21{fill-rule:evenodd;clip-rule:evenodd;fill:#020202;}
	.st22{fill:#757575;}
	.st23{opacity:0.25;clip-path:url(#XMLID_3807_);}
	.st24{fill:#FFFFFF;stroke:#312767;stroke-miterlimit:10;}
	.st25{fill:#ACABC9;}
	.st26{fill-rule:evenodd;clip-rule:evenodd;fill:#312767;}
	.st27{opacity:0.77;fill:#312767;}
	.st28{opacity:0.25;clip-path:url(#XMLID_3875_);}
	.st29{opacity:0.75;}
	.st30{fill-rule:evenodd;clip-rule:evenodd;fill:#282828;}
	.st31{fill:#9490B2;stroke:#2D2D2D;stroke-width:0.25;stroke-miterlimit:10;}
	.st32{fill:#312767;stroke:#2D2D2D;stroke-width:0.25;stroke-miterlimit:10;}
	.st33{fill:#FCFCFC;}
	.st34{fill:#FFFFFF;stroke:#2D2D2D;stroke-width:0.25;stroke-miterlimit:10;}
	.st35{fill-rule:evenodd;clip-rule:evenodd;fill:#484849;stroke:#2D2D2D;stroke-width:0.25;stroke-miterlimit:10;}
	.st36{fill-rule:evenodd;clip-rule:evenodd;fill:#312767;stroke:#2D2D2D;stroke-width:0.25;stroke-miterlimit:10;}
	.st37{fill-rule:evenodd;clip-rule:evenodd;fill:#FFFFFF;stroke:#2D2D2D;stroke-width:0.25;stroke-miterlimit:10;}
	.st38{fill:#484849;stroke:#2D2D2D;stroke-width:0.25;stroke-miterlimit:10;}
	.st39{fill:#FFFFFF;stroke:#FFFFFF;stroke-miterlimit:10;}
	.st40{fill:#54518C;}
	.st41{opacity:0.25;fill-rule:evenodd;clip-rule:evenodd;fill:#FFFFFF;}
	.st42{fill:#D4A800;}
	.st43{fill:#00AEB3;}
	.st44{fill:#38353B;}
	.st45{fill:#FF8400;}
	.st46{fill:#BF3900;}
	.st47{fill:#00AA9C;}
	.st48{opacity:0.25;clip-path:url(#XMLID_3876_);}
	.st49{fill:none;stroke:#ACABC9;stroke-width:5;stroke-miterlimit:10;}
	.st50{opacity:0.25;clip-path:url(#XMLID_3877_);}
	.st51{fill:#E0B53D;}
	.st52{fill:#DDDDDD;}
	.st53{opacity:0.25;clip-path:url(#XMLID_3878_);}
	.st54{fill-rule:evenodd;clip-rule:evenodd;fill:#FFFFFF;stroke:#FFFFFF;stroke-miterlimit:10;}
	.st55{fill:#02897C;}
	.st56{fill:#0EAD9A;}
	.st57{fill:#28C6AF;}
	.st58{fill:#4FE0C7;}
	.st59{fill:#D37D00;}
	.st60{fill:#D14600;}
	.st61{fill:#E5B92E;}
	.st62{fill:#DD571B;}
	.st63{fill:#E28A17;}
	.st64{opacity:0.25;clip-path:url(#XMLID_3880_);}
	.st65{opacity:0.77;fill:#FFFFFF;}
	.st66{fill:#50565B;stroke:#656C70;stroke-miterlimit:10;}
	.st67{fill:#808589;stroke:#656C70;stroke-miterlimit:10;}
	.st68{fill:#252728;stroke:#000000;stroke-miterlimit:10;}
	.st69{fill:#1A1B1C;stroke:#000000;stroke-miterlimit:10;}
	.st70{fill:#A0A6AA;}
	.st71{fill:#262C35;stroke:#161A1E;stroke-miterlimit:10;}
	.st72{fill:#181D23;}
	.st73{fill:#EABA96;stroke:#E0AA86;stroke-miterlimit:10;}
	.st74{fill:#E0AA86;}
	.st75{stroke:#000000;stroke-width:0.75;stroke-linecap:square;stroke-linejoin:bevel;stroke-miterlimit:10;}
	.st76{fill:#0F1C3F;stroke:#182951;stroke-miterlimit:10;}
	.st77{fill:#132354;stroke:#3F6093;stroke-miterlimit:10;}
	.st78{fill:#0F1C3F;}
	.st79{fill:none;stroke:#3F6093;stroke-width:0.75;stroke-miterlimit:10;}
	.st80{fill:#DBA682;}
	.st81{fill:none;stroke:#E0AA86;stroke-miterlimit:10;}
	.st82{fill:none;stroke:#E0AA86;stroke-linejoin:bevel;stroke-miterlimit:10;}
	.st83{fill:#8A0A8E;stroke:#AC34B2;stroke-miterlimit:10;}
	.st84{fill:#810C87;}
	.st85{fill:#680B6D;}
	.st86{fill:#AC34B2;stroke:#AC34B2;stroke-width:0.5;stroke-miterlimit:10;}
	.st87{fill:none;stroke:#959DA0;stroke-width:0.5;stroke-miterlimit:10;}
	.st88{fill:#959DA0;stroke:#959DA0;stroke-width:0.5;stroke-miterlimit:10;}
	.st89{fill:none;stroke:#AC34B2;stroke-miterlimit:10;}
	.st90{fill:#282828;stroke:#000000;stroke-miterlimit:10;}
	.st91{fill:#EABA96;stroke:#E0AA86;stroke-width:0.5;stroke-miterlimit:10;}
	.st92{fill:#B7896A;}
	.st93{stroke:#000000;stroke-miterlimit:10;}
	.st94{fill:#C1A578;}
	.st95{stroke:#000000;stroke-width:0.25;stroke-linecap:round;stroke-linejoin:round;stroke-miterlimit:10;}
	.st96{fill:#FFFFFF;stroke:#000000;stroke-width:0.25;stroke-linecap:round;stroke-linejoin:round;stroke-miterlimit:10;}
	.st97{fill:#70582D;}
	.st98{stroke:#000000;stroke-linecap:round;stroke-linejoin:round;stroke-miterlimit:10;}
	.st99{fill:none;stroke:#D8A27D;stroke-width:0.75;stroke-miterlimit:10;}
	.st100{fill:#561409;}
	.st101{fill:#BA2A13;}
	.st102{fill:#9E3025;stroke:#4C2311;stroke-width:0.25;stroke-miterlimit:10;}
	.st103{fill:#871D08;stroke:#4C2311;stroke-width:0.25;stroke-miterlimit:10;}
	.st104{fill:#DDAC8A;}
	.st105{fill:#A5ABAD;stroke:#959DA0;stroke-width:0.5;stroke-miterlimit:10;}
	.st106{fill:#B1BABC;}
	.st107{fill:none;stroke:#153847;stroke-width:5;stroke-miterlimit:10;}
	.st108{fill:#3CA7AF;}
	.st109{fill:#3DAD8D;}
	.st110{fill:#3DAA61;}
	.st111{fill:#67A53F;}
	.st112{fill:#95A340;}
	.st113{opacity:0.25;clip-path:url(#XMLID_3882_);}
	.st114{opacity:0.25;clip-path:url(#XMLID_3883_);}
	.st115{opacity:0.25;clip-path:url(#XMLID_3884_);}
	.st116{opacity:0.25;clip-path:url(#XMLID_3886_);}
	.st117{clip-path:url(#SVGID_2_);}
	.st118{fill:none;stroke:#3F6093;stroke-miterlimit:10;}
	.st119{fill:none;stroke:#3F6093;stroke-width:0.75;stroke-linecap:round;stroke-linejoin:round;}
	.st120{fill:none;stroke:#3F6093;stroke-width:0.75;stroke-linecap:round;stroke-linejoin:round;stroke-dasharray:0.9892,0.9892;}
	
		.st121{fill:none;stroke:#3F6093;stroke-width:0.75;stroke-linecap:round;stroke-linejoin:round;stroke-miterlimit:10;stroke-dasharray:1;}
	.st122{fill:#EAEAEA;stroke:#FFFFFF;stroke-width:0.25;stroke-miterlimit:10;}
	.st123{fill:#D8D8D8;}
	.st124{fill:#282828;stroke:#000000;stroke-width:0.75;stroke-miterlimit:10;}
	.st125{opacity:0.33;fill:#FFFFFF;}
	.st126{fill:none;stroke:#000000;stroke-width:1.5;stroke-linecap:round;stroke-linejoin:round;stroke-miterlimit:10;}
	.st127{opacity:0.64;}
	.st128{fill:#C9C9C9;}
	.st129{fill:#FFF064;}
	.st130{fill:#4F4E4F;}
	.st131{fill:#1E2F47;}
	.st132{opacity:0.1;fill:#FFFFFF;}
	.st133{opacity:0.1;}
	.st134{opacity:0.4;fill:#FFFFFF;}
	.st135{fill-rule:evenodd;clip-rule:evenodd;fill:#F39C12;}
	.st136{fill-rule:evenodd;clip-rule:evenodd;fill:#E6E6E6;}
	.st137{fill-rule:evenodd;clip-rule:evenodd;fill:#474646;}
	.st138{fill-rule:evenodd;clip-rule:evenodd;fill:#D84848;}
	.st139{opacity:0.2;fill-rule:evenodd;clip-rule:evenodd;fill:#231F20;}
	.st140{opacity:0.1;fill-rule:evenodd;clip-rule:evenodd;fill:#231F20;}
	.st141{fill-rule:evenodd;clip-rule:evenodd;fill:#4D4D4D;}
	.st142{fill-rule:evenodd;clip-rule:evenodd;fill:#336699;}
	.st143{fill-rule:evenodd;clip-rule:evenodd;fill:#FF6633;}
	.st144{fill-rule:evenodd;clip-rule:evenodd;fill:#0056A3;}
	.st145{fill-rule:evenodd;clip-rule:evenodd;fill:#33CC99;}
	.st146{fill:#CE6405;}
	.st147{opacity:0.2;fill:#FFFFFF;}
	.st148{fill:#1ABC9C;}
	.st149{opacity:0.2;}
	.st150{fill:#0B2E44;}
	.st151{fill-rule:evenodd;clip-rule:evenodd;fill:#154F77;}
	.st152{fill-rule:evenodd;clip-rule:evenodd;fill:#0D3858;}
	.st153{fill-rule:evenodd;clip-rule:evenodd;fill:#FFFEFE;}
	.st154{fill:#AEC647;}
	.st155{fill:#F3AE1B;}
	.st156{fill:#DF3F11;}
	.st157{fill:#BCDEDE;}
	.st158{fill:#C84119;}
	.st159{fill:#6BB5CE;}
	.st160{fill:#00D0E5;}
	.st161{fill:#FF81ED;}
	.st162{fill:#00C982;}
	.st163{opacity:0.7;}
	.st164{opacity:0.4;}
	.st165{fill-rule:evenodd;clip-rule:evenodd;fill:#0B2E44;}
	.st166{opacity:0.8;fill-rule:evenodd;clip-rule:evenodd;fill:#FFFFFF;}
	.st167{fill:#424242;}
	.st168{opacity:0.2;fill-rule:evenodd;clip-rule:evenodd;fill:#FFFFFF;}
	.st169{fill:#D0EDFA;}
	.st170{fill:#FF651F;}
	.st171{fill:#0051C4;}
	.st172{fill:#E46400;}
	.st173{fill:#C0003B;}
	.st174{fill:#FFEA50;}
	.st175{fill:#FF2C0D;}
	.st176{fill:#FF1A2C;}
	.st177{fill:#FF2C4D;}
	.st178{fill:#FFD74C;}
	.st179{fill:#4C4C4B;}
	.st180{fill:#6CD2EA;}
	.st181{fill:#F7674F;}
	.st182{opacity:0.1;fill-rule:evenodd;clip-rule:evenodd;}
	.st183{fill:#BABABA;}
	.st184{fill:#F9B946;}
	.st185{fill:#DFC2A9;}
	.st186{fill:#BFA490;}
	.st187{fill:#F5D4B2;}
	.st188{fill:#DF584C;}
	.st189{fill:#C2443E;}
	.st190{fill:#DBDBDA;}
	.st191{fill:#2F363E;}
	.st192{fill:#332524;}
	.st193{fill:#473735;}
	.st194{opacity:0.25;clip-path:url(#XMLID_3896_);}
	.st195{fill:#153847;}
	.st196{fill:#52B8BA;}
	.st197{fill:#35373E;}
	.st198{opacity:0.25;clip-path:url(#XMLID_3897_);}
	.st199{opacity:0.31;fill:#34383A;}
	.st200{opacity:0.16;fill:#3D3835;}
	.st201{fill:#D0D1D4;}
	.st202{opacity:0.31;}
	.st203{fill:#34383A;}
	.st204{opacity:0.16;}
	.st205{fill:#3D3835;}
	.st206{opacity:0.25;clip-path:url(#XMLID_3898_);}
	.st207{fill:#F9E1B4;}
	.st208{opacity:0.25;fill:#050505;}
	.st209{fill:#FCC60F;}
	.st210{fill:#74CAEA;}
	.st211{fill:#050505;}
	.st212{opacity:0.25;clip-path:url(#XMLID_3899_);}
	.st213{fill:#FABC8F;}
	.st214{fill:#3FA995;}
	.st215{opacity:0.17;fill:#020202;}
	.st216{fill:#E1E1E1;}
	.st217{opacity:0.17;}
	.st218{fill:#020202;}
	.st219{opacity:0.25;clip-path:url(#XMLID_3901_);}
	.st220{fill:#BF8E00;}
	.st221{fill:#F7D8D7;}
	.st222{fill:#F18636;}
	.st223{fill:#004460;}
	.st224{fill:#D93A37;}
	.st225{fill:#EDEDED;}
	.st226{fill:#184F78;}
	.st227{fill:#FF3E03;}
	.st228{opacity:0.6;fill:#0F0F0F;}
	.st229{fill:#E8E8E6;}
	.st230{fill:#00EAA6;}
	.st231{fill-rule:evenodd;clip-rule:evenodd;fill:#FF3E03;}
	.st232{opacity:0.1;fill-rule:evenodd;clip-rule:evenodd;fill:#020202;}
	.st233{fill-rule:evenodd;clip-rule:evenodd;fill:#FABE00;}
	.st234{fill-rule:evenodd;clip-rule:evenodd;fill:#E6E8E8;}
	.st235{fill-rule:evenodd;clip-rule:evenodd;fill:#F7D959;}
	.st236{fill-rule:evenodd;clip-rule:evenodd;fill:#F9623E;}
	.st237{fill:#4F1A0F;}
	.st238{opacity:0.46;fill:#FFFFFF;}
	.st239{fill:#48505A;}
	.st240{fill:#C3C3C3;}
	.st241{fill:#E9E9EA;}
	.st242{fill:#9D9E9F;}
	.st243{fill:#F6F4F4;}
	.st244{fill:#6B6A6A;}
	.st245{fill:#C09478;}
	.st246{fill:#F7CDA0;}
	.st247{fill:#9E1010;}
	.st248{fill:#F2F2F2;}
	.st249{opacity:0.2;fill:#060606;}
	.st250{fill:#16AFBE;}
	.st251{fill:#DD2222;}
	.st252{fill:#FFEDDC;}
	.st253{fill:#22272B;}
	.st254{fill:#5B6375;}
	.st255{fill:#F79748;}
	.st256{fill:#FF7900;}
	.st257{fill:#DD7105;}
</style>
<g>
	<rect id="XMLID_4176_" class="st10" width="154.914" height="74.254"/>
	<rect id="XMLID_4167_" x="0" class="st1" width="154.914" height="48.1538"/>
	<g>
		<path d="M18.7602,57.4566h2.9063c0.6543,0,1.1543,0.0498,1.498,0.1504c0.4619,0.1357,0.8574,0.3779,1.1875,0.7256
			c0.3291,0.3467,0.5801,0.7725,0.752,1.2754s0.2578,1.123,0.2578,1.8613c0,0.6475-0.0811,1.2061-0.2422,1.6758
			c-0.1973,0.5723-0.4785,1.0361-0.8438,1.3906c-0.2754,0.2686-0.6475,0.4785-1.1172,0.6289
			c-0.3506,0.1104-0.8193,0.166-1.4063,0.166h-2.9922V57.4566z M20.35,58.7886v5.2158h1.1875c0.4434,0,0.7637-0.0254,0.9609-0.0762
			c0.2578-0.0645,0.4717-0.1729,0.6416-0.3271s0.3096-0.4072,0.417-0.7598s0.1602-0.834,0.1602-1.4424s-0.0527-1.0762-0.1602-1.4023
			c-0.1074-0.3252-0.2578-0.5801-0.4512-0.7617c-0.1934-0.1836-0.4395-0.3066-0.7363-0.3711
			c-0.2217-0.0498-0.6572-0.0752-1.3047-0.0752H20.35z"/>
		<path d="M26.7094,65.3306v-7.874h5.8379v1.332h-4.248v1.7451h3.9531v1.3271h-3.9531v2.1436h4.3984v1.3262H26.7094z"/>
		<path d="M33.643,62.7681l1.5469-0.1504c0.0928,0.5195,0.2822,0.9014,0.5664,1.1445c0.2852,0.2432,0.6689,0.3652,1.1523,0.3652
			c0.5117,0,0.8975-0.1084,1.1572-0.3252s0.3896-0.4697,0.3896-0.7598c0-0.1865-0.0547-0.3447-0.1641-0.4756
			s-0.2998-0.2441-0.5713-0.3408c-0.1865-0.0645-0.6113-0.1787-1.2734-0.3438c-0.8525-0.2109-1.4502-0.4707-1.7939-0.7783
			c-0.4834-0.4336-0.7256-0.9619-0.7256-1.585c0-0.4014,0.1143-0.7764,0.3418-1.125c0.2275-0.3496,0.5547-0.6152,0.9824-0.7979
			s0.9443-0.2734,1.5498-0.2734c0.9883,0,1.7324,0.2158,2.2314,0.6494c0.5,0.4336,0.7617,1.0117,0.7871,1.7354l-1.5898,0.0693
			c-0.0684-0.4043-0.2139-0.6953-0.4375-0.873c-0.2236-0.1768-0.5596-0.2656-1.0078-0.2656c-0.4609,0-0.8232,0.0947-1.084,0.2842
			c-0.1689,0.1221-0.2529,0.2852-0.2529,0.4893c0,0.1865,0.0791,0.3457,0.2363,0.4775c0.2002,0.1689,0.6875,0.3438,1.4609,0.5273
			c0.7734,0.1816,1.3457,0.3711,1.7158,0.5664c0.3711,0.1953,0.6611,0.4619,0.8701,0.7998c0.21,0.3389,0.3145,0.7568,0.3145,1.2549
			c0,0.4512-0.125,0.873-0.376,1.2676c-0.251,0.3936-0.6055,0.6865-1.0635,0.8779s-1.0293,0.2871-1.7139,0.2871
			c-0.9951,0-1.7598-0.2305-2.293-0.6904S33.7465,63.649,33.643,62.7681z"/>
		<path d="M46.4203,62.4361l1.542,0.4883c-0.2363,0.8594-0.6289,1.498-1.1787,1.915s-1.2471,0.626-2.0918,0.626
			c-1.0459,0-1.9053-0.3574-2.5781-1.0723c-0.6738-0.7139-1.0098-1.6904-1.0098-2.9297c0-1.3105,0.3379-2.3281,1.0146-3.0537
			c0.6768-0.7246,1.5664-1.0869,2.6689-1.0869c0.9639,0,1.7461,0.2842,2.3477,0.8535c0.3584,0.3369,0.627,0.8203,0.8057,1.4502
			l-1.5732,0.376c-0.0938-0.4082-0.2881-0.7305-0.583-0.9668c-0.2959-0.2363-0.6543-0.3545-1.0771-0.3545
			c-0.584,0-1.0576,0.21-1.4209,0.6279c-0.3633,0.4199-0.5449,1.0977-0.5449,2.0361c0,0.9951,0.1787,1.7041,0.5371,2.127
			s0.8232,0.6338,1.3965,0.6338c0.4229,0,0.7861-0.1348,1.0908-0.4023C46.0698,63.4342,46.2885,63.0123,46.4203,62.4361z"/>
		<path d="M56.4262,65.3306h-1.7285l-0.6875-1.7891h-3.1484l-0.6494,1.7891h-1.6865l3.0664-7.874h1.6816L56.4262,65.3306z
			 M53.4994,62.2154l-1.085-2.9219l-1.0635,2.9219H53.4994z"/>
		<path d="M57.2748,65.3306v-7.874h3.3467c0.8408,0,1.4521,0.0703,1.834,0.2119c0.3809,0.1416,0.6865,0.3936,0.916,0.7549
			c0.2285,0.3613,0.3438,0.7754,0.3438,1.2412c0,0.5898-0.1738,1.0781-0.5215,1.4629s-0.8662,0.6279-1.5576,0.7285
			c0.3438,0.2002,0.6279,0.4199,0.8516,0.6602s0.5254,0.666,0.9053,1.2783l0.9609,1.5361h-1.9014l-1.1494-1.7129
			c-0.4082-0.6133-0.6875-0.999-0.8379-1.1582s-0.3096-0.2686-0.4785-0.3271c-0.168-0.0596-0.4346-0.0889-0.7998-0.0889h-0.3223
			v3.2871H57.2748z M58.8647,60.7867h1.1768c0.7617,0,1.2383-0.0322,1.4277-0.0967c0.1904-0.0645,0.3389-0.1758,0.4463-0.333
			s0.1611-0.3545,0.1611-0.5908c0-0.2646-0.0703-0.4785-0.2119-0.6416s-0.3408-0.2666-0.5986-0.3096
			c-0.1289-0.0176-0.5156-0.0264-1.1602-0.0264h-1.2412V60.7867z"/>
		<path d="M68.8754,62.4361V61.109h3.4277v3.1367c-0.334,0.3223-0.8164,0.6064-1.4482,0.8516s-1.2715,0.3682-1.9199,0.3682
			c-0.8232,0-1.542-0.1729-2.1533-0.5186c-0.6133-0.3457-1.0732-0.8398-1.3809-1.4824s-0.4619-1.3418-0.4619-2.0977
			c0-0.8203,0.1719-1.5488,0.5156-2.1865c0.3438-0.6367,0.8467-1.126,1.5088-1.4658c0.5059-0.2617,1.1338-0.3916,1.8857-0.3916
			c0.9775,0,1.7412,0.2041,2.291,0.6143s0.9033,0.9766,1.0605,1.7002l-1.5791,0.2949c-0.1113-0.3867-0.3193-0.6914-0.626-0.915
			c-0.3057-0.2236-0.6885-0.3359-1.1465-0.3359c-0.6943,0-1.2471,0.2197-1.6572,0.6611c-0.4102,0.4395-0.6152,1.0938-0.6152,1.96
			c0,0.9346,0.208,1.6357,0.623,2.1025c0.416,0.4678,0.96,0.7012,1.6328,0.7012c0.334,0,0.667-0.0654,1.002-0.1963
			s0.6221-0.2891,0.8623-0.4756v-0.998H68.8754z"/>
		<path d="M80.8696,65.3306H79.141l-0.6875-1.7891h-3.1484l-0.6494,1.7891h-1.6865l3.0664-7.874h1.6816L80.8696,65.3306z
			 M77.9428,62.2154l-1.085-2.9219l-1.0635,2.9219H77.9428z"/>
		<path d="M81.7182,65.3306v-7.874h3.3467c0.8408,0,1.4521,0.0703,1.834,0.2119c0.3809,0.1416,0.6865,0.3936,0.916,0.7549
			c0.2285,0.3613,0.3438,0.7754,0.3438,1.2412c0,0.5898-0.1738,1.0781-0.5215,1.4629s-0.8662,0.6279-1.5576,0.7285
			c0.3438,0.2002,0.6279,0.4199,0.8516,0.6602s0.5254,0.666,0.9053,1.2783l0.9609,1.5361h-1.9014l-1.1494-1.7129
			c-0.4082-0.6133-0.6875-0.999-0.8379-1.1582s-0.3096-0.2686-0.4785-0.3271c-0.168-0.0596-0.4346-0.0889-0.7998-0.0889H83.308
			v3.2871H81.7182z M83.308,60.7867h1.1768c0.7617,0,1.2383-0.0322,1.4277-0.0967c0.1904-0.0645,0.3389-0.1758,0.4463-0.333
			s0.1611-0.3545,0.1611-0.5908c0-0.2646-0.0703-0.4785-0.2119-0.6416s-0.3408-0.2666-0.5986-0.3096
			c-0.1289-0.0176-0.5156-0.0264-1.1602-0.0264H83.308V60.7867z"/>
		<path d="M92.391,61.442c0-0.8018,0.1191-1.4756,0.3594-2.0195c0.1787-0.4014,0.4238-0.7607,0.7334-1.0801
			c0.3096-0.3184,0.6484-0.5547,1.0176-0.709c0.4902-0.207,1.0566-0.3105,1.6973-0.3105c1.1602,0,2.0889,0.3594,2.7852,1.0791
			s1.0439,1.7207,1.0439,3.0029c0,1.2705-0.3447,2.2656-1.0361,2.9834s-1.6152,1.0771-2.7715,1.0771
			c-1.1709,0-2.1016-0.3574-2.793-1.0723C92.7358,63.6793,92.391,62.6949,92.391,61.442z M94.0287,61.3883
			c0,0.8916,0.2061,1.5674,0.6182,2.0273c0.4111,0.46,0.9336,0.6904,1.5684,0.6904c0.6328,0,1.1533-0.2285,1.5596-0.6846
			c0.4063-0.457,0.6104-1.1416,0.6104-2.0547c0-0.9023-0.1982-1.5752-0.5938-2.0195s-0.9219-0.666-1.5762-0.666
			c-0.6563,0-1.1836,0.2246-1.585,0.6738S94.0287,60.482,94.0287,61.3883z"/>
		<path d="M101.2748,57.4566h3.1475c0.623,0,1.0879,0.0264,1.3936,0.0781c0.3066,0.0518,0.5801,0.1602,0.8223,0.3252
			c0.2412,0.1641,0.4424,0.3838,0.6045,0.6572c0.1602,0.2744,0.2412,0.5811,0.2412,0.9209c0,0.3691-0.0996,0.708-0.2979,1.0156
			c-0.1992,0.3076-0.4688,0.5391-0.8086,0.6934c0.4795,0.1387,0.8486,0.377,1.1064,0.7139s0.3867,0.7324,0.3867,1.1865
			c0,0.3584-0.083,0.707-0.25,1.0449c-0.166,0.3389-0.3936,0.6094-0.6816,0.8115s-0.6436,0.3262-1.0664,0.373
			c-0.2646,0.0283-0.9043,0.0469-1.917,0.0537h-2.6807V57.4566z M102.8647,58.7672v1.8213h1.042
			c0.6191,0,1.0039-0.0098,1.1543-0.0273c0.2725-0.0322,0.4863-0.126,0.6426-0.2822c0.1553-0.1553,0.2334-0.3604,0.2334-0.6143
			c0-0.2441-0.0674-0.4414-0.2012-0.5938c-0.1348-0.1523-0.334-0.2441-0.5986-0.2773c-0.1582-0.0176-0.6113-0.0264-1.3594-0.0264
			H102.8647z M102.8647,61.899v2.1055h1.4717c0.5732,0,0.9365-0.0166,1.0898-0.0488c0.2363-0.043,0.4297-0.1475,0.5781-0.3145
			c0.1484-0.166,0.2227-0.3887,0.2227-0.668c0-0.2363-0.0576-0.4375-0.1719-0.6016c-0.1143-0.165-0.2803-0.2852-0.4971-0.3604
			s-0.6865-0.1123-1.4092-0.1123H102.8647z"/>
		<path d="M112.0541,57.4566h1.585v4.9844c0,0.6514-0.0576,1.1533-0.1719,1.5039c-0.1543,0.458-0.4336,0.8262-0.8379,1.1035
			c-0.4053,0.2773-0.9385,0.417-1.6016,0.417c-0.7764,0-1.375-0.2178-1.793-0.6533c-0.4199-0.4346-0.6309-1.0732-0.6348-1.915
			l1.499-0.1719c0.0176,0.4512,0.084,0.7705,0.1982,0.957c0.1719,0.2822,0.4336,0.4238,0.7852,0.4238
			c0.3535,0,0.6045-0.1016,0.752-0.3037c0.1465-0.2021,0.2197-0.6221,0.2197-1.2588V57.4566z"/>
		<path d="M115.3305,65.3306v-7.874h5.8379v1.332h-4.248v1.7451h3.9531v1.3271h-3.9531v2.1436h4.3984v1.3262H115.3305z"/>
		<path d="M124.4389,65.3306v-6.542h-2.3359v-1.332h6.2578v1.332h-2.332v6.542H124.4389z"/>
		<path d="M128.8656,61.442c0-0.8018,0.1191-1.4756,0.3594-2.0195c0.1787-0.4014,0.4238-0.7607,0.7334-1.0801
			c0.3096-0.3184,0.6484-0.5547,1.0176-0.709c0.4902-0.207,1.0566-0.3105,1.6973-0.3105c1.1602,0,2.0889,0.3594,2.7852,1.0791
			s1.0439,1.7207,1.0439,3.0029c0,1.2705-0.3447,2.2656-1.0361,2.9834s-1.6152,1.0771-2.7715,1.0771
			c-1.1709,0-2.1016-0.3574-2.793-1.0723C129.2104,63.6793,128.8656,62.6949,128.8656,61.442z M130.5033,61.3883
			c0,0.8916,0.2061,1.5674,0.6182,2.0273c0.4111,0.46,0.9336,0.6904,1.5684,0.6904c0.6328,0,1.1533-0.2285,1.5596-0.6846
			c0.4063-0.457,0.6104-1.1416,0.6104-2.0547c0-0.9023-0.1982-1.5752-0.5938-2.0195s-0.9219-0.666-1.5762-0.666
			c-0.6563,0-1.1836,0.2246-1.585,0.6738S130.5033,60.482,130.5033,61.3883z"/>
	</g>
	<path id="XMLID_4160_" class="st17" d="M88.6489,29.5294c-1.1683,0-1.9439,0.9718-1.9439,1.9449v2.9208H68.4103v-2.9208
		c0-0.9731-0.9769-1.9449-1.9538-1.9449c-1.1607,0-1.9413,0.9718-1.9413,1.9449v4.8695c0,1.1645,0.7807,1.9413,1.9413,1.9413
		h22.1923c0.9718,0,1.7499-0.7768,1.7499-1.9413v-4.8695C90.3988,30.5012,89.6207,29.5294,88.6489,29.5294L88.6489,29.5294z
		 M76.9736,31.6695c0.1914,0.1988,0.773,0.1988,1.1632,0l6.6243-6.8083c0.1866-0.1965,0.1866-0.3915,0.1866-0.7842
		c-0.1866-0.194-0.3803-0.3879-0.5768-0.3879h-3.3133V11.4297c0-0.9731-0.5768-1.5611-1.3622-1.5611H75.41
		c-0.967,0-1.556,0.588-1.556,1.5611v12.2594h-3.1096c-0.3877,0-0.5867,0.194-0.7804,0.3879c0,0.3927,0,0.5877,0.1937,0.7842
		L76.9736,31.6695z"/>
</g>
</svg>
