<?xml version="1.0" encoding="utf-8"?>
<!-- Generator: Adobe Illustrator 21.0.2, SVG Export Plug-In . SVG Version: 6.00 Build 0)  -->
<svg version="1.1" id="Capa_1" xmlns="http://www.w3.org/2000/svg" xmlns:xlink="http://www.w3.org/1999/xlink" x="0px" y="0px"
	 viewBox="0 0 155.1651 74.254" style="enable-background:new 0 0 155.1651 74.254;" xml:space="preserve">
<style type="text/css">
	.st0{fill-rule:evenodd;clip-rule:evenodd;fill:#DDDDDD;}
	.st1{fill:#3B86B1;}
	.st2{opacity:0.25;fill-rule:evenodd;clip-rule:evenodd;fill:#020202;}
	.st3{fill:#FFFFFF;}
	.st4{opacity:0.5;}
	.st5{fill-rule:evenodd;clip-rule:evenodd;fill:#A8A8A8;}
	.st6{fill-rule:evenodd;clip-rule:evenodd;fill:#FFFFFF;}
	.st7{fill-rule:evenodd;clip-rule:evenodd;fill:#3B86B1;}
	.st8{opacity:0.5;fill:#2C6882;}
	.st9{opacity:0.75;fill-rule:evenodd;clip-rule:evenodd;fill:#282828;}
	.st10{opacity:0.5;fill:#FFFFFF;}
	.st11{fill-rule:evenodd;clip-rule:evenodd;fill:none;stroke:#FFFFFF;stroke-miterlimit:10;}
	.st12{fill:none;stroke:#FFFFFF;stroke-miterlimit:10;}
	.st13{fill:#FFFFFF;stroke:#3B86B1;stroke-width:1.7139;stroke-miterlimit:10;}
	.st14{fill-rule:evenodd;clip-rule:evenodd;}
	.st15{opacity:0.85;fill:#FFFFFF;}
	.st16{opacity:0.5;fill-rule:evenodd;clip-rule:evenodd;}
	.st17{fill-rule:evenodd;clip-rule:evenodd;fill:#FEFEFE;}
	.st18{fill:#312767;}
	.st19{opacity:0.48;}
	.st20{opacity:0.25;}
	.st21{fill-rule:evenodd;clip-rule:evenodd;fill:#020202;}
	.st22{fill:#757575;}
	.st23{opacity:0.25;clip-path:url(#XMLID_3807_);}
	.st24{fill:#FFFFFF;stroke:#312767;stroke-miterlimit:10;}
	.st25{fill:#ACABC9;}
	.st26{fill-rule:evenodd;clip-rule:evenodd;fill:#312767;}
	.st27{opacity:0.77;fill:#312767;}
	.st28{opacity:0.25;clip-path:url(#XMLID_3875_);}
	.st29{fill:#9490B2;stroke:#2D2D2D;stroke-width:0.25;stroke-miterlimit:10;}
	.st30{fill:#312767;stroke:#2D2D2D;stroke-width:0.25;stroke-miterlimit:10;}
	.st31{fill:#FCFCFC;}
	.st32{fill:#FFFFFF;stroke:#2D2D2D;stroke-width:0.25;stroke-miterlimit:10;}
	.st33{fill-rule:evenodd;clip-rule:evenodd;fill:#484849;stroke:#2D2D2D;stroke-width:0.25;stroke-miterlimit:10;}
	.st34{fill-rule:evenodd;clip-rule:evenodd;fill:#312767;stroke:#2D2D2D;stroke-width:0.25;stroke-miterlimit:10;}
	.st35{fill-rule:evenodd;clip-rule:evenodd;fill:#FFFFFF;stroke:#2D2D2D;stroke-width:0.25;stroke-miterlimit:10;}
	.st36{fill:#484849;stroke:#2D2D2D;stroke-width:0.25;stroke-miterlimit:10;}
	.st37{fill:#FFFFFF;stroke:#FFFFFF;stroke-miterlimit:10;}
	.st38{fill:#54518C;}
	.st39{opacity:0.25;fill-rule:evenodd;clip-rule:evenodd;fill:#FFFFFF;}
	.st40{fill:#D4A800;}
	.st41{fill:#00AEB3;}
	.st42{fill:#38353B;}
	.st43{fill:#FF8400;}
	.st44{fill:#BF3900;}
	.st45{fill:#00AA9C;}
	.st46{opacity:0.25;clip-path:url(#XMLID_3876_);}
	.st47{fill:none;stroke:#ACABC9;stroke-width:5;stroke-miterlimit:10;}
	.st48{opacity:0.25;clip-path:url(#XMLID_3877_);}
	.st49{fill:#E0B53D;}
	.st50{fill:#DDDDDD;}
	.st51{opacity:0.25;clip-path:url(#XMLID_3878_);}
	.st52{fill-rule:evenodd;clip-rule:evenodd;fill:#FFFFFF;stroke:#FFFFFF;stroke-miterlimit:10;}
	.st53{fill:#02897C;}
	.st54{fill:#0EAD9A;}
	.st55{fill:#28C6AF;}
	.st56{fill:#4FE0C7;}
	.st57{fill:#D37D00;}
	.st58{fill:#D14600;}
	.st59{fill:#E5B92E;}
	.st60{fill:#DD571B;}
	.st61{fill:#E28A17;}
	.st62{opacity:0.25;clip-path:url(#XMLID_3883_);}
	.st63{opacity:0.77;fill:#FFFFFF;}
	.st64{fill:#50565B;stroke:#656C70;stroke-miterlimit:10;}
	.st65{fill:#808589;stroke:#656C70;stroke-miterlimit:10;}
	.st66{fill:#252728;stroke:#000000;stroke-miterlimit:10;}
	.st67{fill:#1A1B1C;stroke:#000000;stroke-miterlimit:10;}
	.st68{fill:#A0A6AA;}
	.st69{fill:#262C35;stroke:#161A1E;stroke-miterlimit:10;}
	.st70{fill:#181D23;}
	.st71{fill:#EABA96;stroke:#E0AA86;stroke-miterlimit:10;}
	.st72{fill:#E0AA86;}
	.st73{stroke:#000000;stroke-width:0.75;stroke-linecap:square;stroke-linejoin:bevel;stroke-miterlimit:10;}
	.st74{fill:#0F1C3F;stroke:#182951;stroke-miterlimit:10;}
	.st75{fill:#132354;stroke:#3F6093;stroke-miterlimit:10;}
	.st76{fill:#0F1C3F;}
	.st77{fill:none;stroke:#3F6093;stroke-width:0.75;stroke-miterlimit:10;}
	.st78{fill:#DBA682;}
	.st79{fill:none;stroke:#E0AA86;stroke-miterlimit:10;}
	.st80{fill:none;stroke:#E0AA86;stroke-linejoin:bevel;stroke-miterlimit:10;}
	.st81{fill:#8A0A8E;stroke:#AC34B2;stroke-miterlimit:10;}
	.st82{fill:#810C87;}
	.st83{fill:#680B6D;}
	.st84{fill:#AC34B2;stroke:#AC34B2;stroke-width:0.5;stroke-miterlimit:10;}
	.st85{fill:none;stroke:#959DA0;stroke-width:0.5;stroke-miterlimit:10;}
	.st86{fill:#959DA0;stroke:#959DA0;stroke-width:0.5;stroke-miterlimit:10;}
	.st87{fill:none;stroke:#AC34B2;stroke-miterlimit:10;}
	.st88{fill:#282828;stroke:#000000;stroke-miterlimit:10;}
	.st89{fill:#EABA96;stroke:#E0AA86;stroke-width:0.5;stroke-miterlimit:10;}
	.st90{fill:#B7896A;}
	.st91{stroke:#000000;stroke-miterlimit:10;}
	.st92{fill:#C1A578;}
	.st93{stroke:#000000;stroke-width:0.25;stroke-linecap:round;stroke-linejoin:round;stroke-miterlimit:10;}
	.st94{fill:#FFFFFF;stroke:#000000;stroke-width:0.25;stroke-linecap:round;stroke-linejoin:round;stroke-miterlimit:10;}
	.st95{fill:#70582D;}
	.st96{stroke:#000000;stroke-linecap:round;stroke-linejoin:round;stroke-miterlimit:10;}
	.st97{fill:none;stroke:#D8A27D;stroke-width:0.75;stroke-miterlimit:10;}
	.st98{fill:#561409;}
	.st99{fill:#BA2A13;}
	.st100{fill:#9E3025;stroke:#4C2311;stroke-width:0.25;stroke-miterlimit:10;}
	.st101{fill:#871D08;stroke:#4C2311;stroke-width:0.25;stroke-miterlimit:10;}
	.st102{fill:#DDAC8A;}
	.st103{fill:#A5ABAD;stroke:#959DA0;stroke-width:0.5;stroke-miterlimit:10;}
	.st104{fill:#B1BABC;}
	.st105{fill:none;stroke:#153847;stroke-width:5;stroke-miterlimit:10;}
	.st106{fill:#3CA7AF;}
	.st107{fill:#3DAD8D;}
	.st108{fill:#3DAA61;}
	.st109{fill:#67A53F;}
	.st110{fill:#95A340;}
	.st111{opacity:0.25;clip-path:url(#XMLID_3884_);}
	.st112{opacity:0.25;clip-path:url(#XMLID_3896_);}
	.st113{opacity:0.25;clip-path:url(#XMLID_3897_);}
	.st114{opacity:0.25;clip-path:url(#XMLID_3898_);}
	.st115{clip-path:url(#SVGID_2_);}
	.st116{fill:none;stroke:#3F6093;stroke-miterlimit:10;}
	.st117{fill:none;stroke:#3F6093;stroke-width:0.75;stroke-linecap:round;stroke-linejoin:round;}
	.st118{fill:none;stroke:#3F6093;stroke-width:0.75;stroke-linecap:round;stroke-linejoin:round;stroke-dasharray:0.9892,0.9892;}
	
		.st119{fill:none;stroke:#3F6093;stroke-width:0.75;stroke-linecap:round;stroke-linejoin:round;stroke-miterlimit:10;stroke-dasharray:1;}
	.st120{fill:#EAEAEA;stroke:#FFFFFF;stroke-width:0.25;stroke-miterlimit:10;}
	.st121{fill:#D8D8D8;}
	.st122{fill:#282828;stroke:#000000;stroke-width:0.75;stroke-miterlimit:10;}
	.st123{opacity:0.33;fill:#FFFFFF;}
	.st124{fill:none;stroke:#000000;stroke-width:1.5;stroke-linecap:round;stroke-linejoin:round;stroke-miterlimit:10;}
	.st125{opacity:0.64;}
	.st126{fill:#C9C9C9;}
	.st127{fill:#FFF064;}
	.st128{fill:#4F4E4F;}
	.st129{fill:#1E2F47;}
	.st130{opacity:0.1;fill:#FFFFFF;}
	.st131{opacity:0.1;}
	.st132{opacity:0.4;fill:#FFFFFF;}
	.st133{fill-rule:evenodd;clip-rule:evenodd;fill:#F39C12;}
	.st134{fill-rule:evenodd;clip-rule:evenodd;fill:#E6E6E6;}
	.st135{fill-rule:evenodd;clip-rule:evenodd;fill:#474646;}
	.st136{fill-rule:evenodd;clip-rule:evenodd;fill:#D84848;}
	.st137{opacity:0.2;fill-rule:evenodd;clip-rule:evenodd;fill:#231F20;}
	.st138{opacity:0.1;fill-rule:evenodd;clip-rule:evenodd;fill:#231F20;}
	.st139{fill-rule:evenodd;clip-rule:evenodd;fill:#4D4D4D;}
	.st140{fill-rule:evenodd;clip-rule:evenodd;fill:#336699;}
	.st141{fill-rule:evenodd;clip-rule:evenodd;fill:#FF6633;}
	.st142{fill-rule:evenodd;clip-rule:evenodd;fill:#0056A3;}
	.st143{fill-rule:evenodd;clip-rule:evenodd;fill:#33CC99;}
	.st144{fill:#CE6405;}
	.st145{opacity:0.2;fill:#FFFFFF;}
	.st146{fill:#1ABC9C;}
	.st147{opacity:0.2;}
	.st148{fill:#0B2E44;}
	.st149{fill-rule:evenodd;clip-rule:evenodd;fill:#154F77;}
	.st150{fill-rule:evenodd;clip-rule:evenodd;fill:#0D3858;}
	.st151{fill-rule:evenodd;clip-rule:evenodd;fill:#FFFEFE;}
	.st152{fill:#AEC647;}
	.st153{fill:#F3AE1B;}
	.st154{fill:#DF3F11;}
	.st155{fill:#BCDEDE;}
	.st156{fill:#C84119;}
	.st157{fill:#6BB5CE;}
	.st158{fill:#00D0E5;}
	.st159{fill:#FF81ED;}
	.st160{fill:#00C982;}
	.st161{opacity:0.7;}
	.st162{opacity:0.4;}
	.st163{fill-rule:evenodd;clip-rule:evenodd;fill:#0B2E44;}
	.st164{opacity:0.8;fill-rule:evenodd;clip-rule:evenodd;fill:#FFFFFF;}
	.st165{fill:#424242;}
	.st166{opacity:0.2;fill-rule:evenodd;clip-rule:evenodd;fill:#FFFFFF;}
	.st167{fill:#D0EDFA;}
	.st168{fill:#FF651F;}
	.st169{fill:#0051C4;}
	.st170{fill:#E46400;}
	.st171{fill:#C0003B;}
	.st172{fill:#FFEA50;}
	.st173{fill:#FF2C0D;}
	.st174{fill:#FF1A2C;}
	.st175{fill:#FF2C4D;}
	.st176{fill:#FFD74C;}
	.st177{fill:#4C4C4B;}
	.st178{fill:#6CD2EA;}
	.st179{fill:#F7674F;}
	.st180{opacity:0.1;fill-rule:evenodd;clip-rule:evenodd;}
	.st181{fill:#BABABA;}
	.st182{fill:#F9B946;}
	.st183{fill:#DFC2A9;}
	.st184{fill:#BFA490;}
	.st185{fill:#F5D4B2;}
	.st186{fill:#DF584C;}
	.st187{fill:#C2443E;}
	.st188{fill:#DBDBDA;}
	.st189{fill:#2F363E;}
	.st190{fill:#332524;}
	.st191{fill:#473735;}
	.st192{opacity:0.25;clip-path:url(#XMLID_3899_);}
	.st193{fill:#153847;}
	.st194{fill:#52B8BA;}
	.st195{fill:#35373E;}
	.st196{opacity:0.25;clip-path:url(#XMLID_3904_);}
	.st197{opacity:0.31;fill:#34383A;}
	.st198{opacity:0.16;fill:#3D3835;}
	.st199{fill:#D0D1D4;}
	.st200{opacity:0.31;}
	.st201{fill:#34383A;}
	.st202{opacity:0.16;}
	.st203{fill:#3D3835;}
	.st204{opacity:0.25;clip-path:url(#XMLID_3905_);}
	.st205{fill:#F9E1B4;}
	.st206{opacity:0.25;fill:#050505;}
	.st207{fill:#FCC60F;}
	.st208{fill:#74CAEA;}
	.st209{fill:#050505;}
	.st210{opacity:0.25;clip-path:url(#XMLID_3912_);}
	.st211{fill:#FABC8F;}
	.st212{fill:#3FA995;}
	.st213{opacity:0.17;fill:#020202;}
	.st214{fill:#E1E1E1;}
	.st215{opacity:0.17;}
	.st216{fill:#020202;}
	.st217{opacity:0.25;clip-path:url(#XMLID_3913_);}
	.st218{fill:#BF8E00;}
	.st219{fill:#F7D8D7;}
	.st220{fill:#F18636;}
	.st221{fill:#004460;}
	.st222{fill:#D93A37;}
	.st223{fill:#EDEDED;}
	.st224{fill:#184F78;}
	.st225{fill:#FF3E03;}
	.st226{opacity:0.6;fill:#0F0F0F;}
	.st227{fill:#E8E8E6;}
	.st228{fill:#00EAA6;}
	.st229{fill-rule:evenodd;clip-rule:evenodd;fill:#FF3E03;}
	.st230{opacity:0.1;fill-rule:evenodd;clip-rule:evenodd;fill:#020202;}
	.st231{fill-rule:evenodd;clip-rule:evenodd;fill:#FABE00;}
	.st232{fill-rule:evenodd;clip-rule:evenodd;fill:#E6E8E8;}
	.st233{fill-rule:evenodd;clip-rule:evenodd;fill:#F7D959;}
	.st234{fill-rule:evenodd;clip-rule:evenodd;fill:#F9623E;}
	.st235{fill:#4F1A0F;}
	.st236{opacity:0.46;fill:#FFFFFF;}
	.st237{fill:#48505A;}
	.st238{fill:#C3C3C3;}
	.st239{fill:#E9E9EA;}
	.st240{fill:#9D9E9F;}
	.st241{fill:#F6F4F4;}
	.st242{fill:#6B6A6A;}
	.st243{fill:#C09478;}
	.st244{fill:#F7CDA0;}
	.st245{fill:#9E1010;}
	.st246{fill:#F2F2F2;}
	.st247{opacity:0.2;fill:#060606;}
	.st248{fill:#16AFBE;}
	.st249{fill:#DD2222;}
	.st250{fill:#FFEDDC;}
	.st251{fill:#22272B;}
	.st252{fill:#5B6375;}
	.st253{fill:#F79748;}
	.st254{fill:#FF7900;}
	.st255{fill:#DD7105;}
</style>
<g>
	<rect id="XMLID_4196_" class="st10" width="154.914" height="74.254"/>
	<rect id="XMLID_4190_" class="st1" width="155.1651" height="48.1538"/>
	<g>
		<path d="M23.6966,65.3312h-1.7285l-0.6875-1.7891h-3.1484l-0.6494,1.7891h-1.6865l3.0664-7.874h1.6816L23.6966,65.3312z
			 M20.7699,62.216l-1.085-2.9219l-1.0635,2.9219H20.7699z"/>
		<path d="M29.5775,62.4367l1.542,0.4883c-0.2363,0.8594-0.6289,1.498-1.1787,1.915s-1.2471,0.626-2.0918,0.626
			c-1.0459,0-1.9053-0.3574-2.5781-1.0723c-0.6738-0.7139-1.0098-1.6904-1.0098-2.9297c0-1.3105,0.3379-2.3281,1.0146-3.0537
			c0.6768-0.7246,1.5664-1.0869,2.6689-1.0869c0.9639,0,1.7461,0.2842,2.3477,0.8535c0.3584,0.3369,0.627,0.8203,0.8057,1.4502
			l-1.5732,0.376c-0.0938-0.4082-0.2881-0.7305-0.583-0.9668c-0.2959-0.2363-0.6543-0.3545-1.0771-0.3545
			c-0.584,0-1.0576,0.21-1.4209,0.6279c-0.3633,0.4199-0.5449,1.0977-0.5449,2.0361c0,0.9951,0.1787,1.7041,0.5371,2.127
			s0.8232,0.6338,1.3965,0.6338c0.4229,0,0.7861-0.1348,1.0908-0.4023C29.2269,63.4347,29.4457,63.0128,29.5775,62.4367z"/>
		<path d="M34.2552,65.3312v-6.542h-2.3359v-1.332h6.2578v1.332h-2.332v6.542H34.2552z"/>
		<path d="M39.1537,65.3312v-7.874h1.5898v7.874H39.1537z"/>
		<path d="M44.267,65.3312l-2.8145-7.874h1.7246l1.9922,5.8271l1.9287-5.8271h1.6865l-2.8203,7.874H44.267z"/>
		<path d="M49.5472,65.3312v-7.874h1.5898v7.874H49.5472z"/>
		<path d="M52.6459,57.4572h2.9063c0.6543,0,1.1543,0.0498,1.498,0.1504c0.4619,0.1357,0.8574,0.3779,1.1875,0.7256
			c0.3291,0.3467,0.5801,0.7725,0.752,1.2754s0.2578,1.123,0.2578,1.8613c0,0.6475-0.0811,1.2061-0.2422,1.6758
			c-0.1973,0.5723-0.4785,1.0361-0.8438,1.3906c-0.2754,0.2686-0.6475,0.4785-1.1172,0.6289
			c-0.3506,0.1104-0.8193,0.166-1.4063,0.166h-2.9922V57.4572z M54.2357,58.7892v5.2158h1.1875
			c0.4434,0,0.7637-0.0254,0.9609-0.0762c0.2578-0.0645,0.4717-0.1729,0.6416-0.3271s0.3096-0.4072,0.417-0.7598
			s0.1602-0.834,0.1602-1.4424s-0.0527-1.0762-0.1602-1.4023c-0.1074-0.3252-0.2578-0.5801-0.4512-0.7617
			c-0.1934-0.1836-0.4395-0.3066-0.7363-0.3711c-0.2217-0.0498-0.6572-0.0752-1.3047-0.0752H54.2357z"/>
		<path d="M67.6947,65.3312h-1.7285l-0.6875-1.7891h-3.1484l-0.6494,1.7891h-1.6865l3.0664-7.874h1.6816L67.6947,65.3312z
			 M64.7679,62.216l-1.085-2.9219l-1.0635,2.9219H64.7679z"/>
		<path d="M68.5326,57.4572h2.9063c0.6543,0,1.1543,0.0498,1.498,0.1504c0.4619,0.1357,0.8574,0.3779,1.1875,0.7256
			c0.3291,0.3467,0.5801,0.7725,0.752,1.2754s0.2578,1.123,0.2578,1.8613c0,0.6475-0.0811,1.2061-0.2422,1.6758
			c-0.1973,0.5723-0.4785,1.0361-0.8438,1.3906c-0.2754,0.2686-0.6475,0.4785-1.1172,0.6289
			c-0.3506,0.1104-0.8193,0.166-1.4063,0.166h-2.9922V57.4572z M70.1224,58.7892v5.2158h1.1875
			c0.4434,0,0.7637-0.0254,0.9609-0.0762c0.2578-0.0645,0.4717-0.1729,0.6416-0.3271s0.3096-0.4072,0.417-0.7598
			s0.1602-0.834,0.1602-1.4424s-0.0527-1.0762-0.1602-1.4023c-0.1074-0.3252-0.2578-0.5801-0.4512-0.7617
			c-0.1934-0.1836-0.4395-0.3066-0.7363-0.3711c-0.2217-0.0498-0.6572-0.0752-1.3047-0.0752H70.1224z"/>
		<path d="M79.5326,57.4572h2.9063c0.6543,0,1.1543,0.0498,1.498,0.1504c0.4619,0.1357,0.8574,0.3779,1.1875,0.7256
			c0.3291,0.3467,0.5801,0.7725,0.752,1.2754s0.2578,1.123,0.2578,1.8613c0,0.6475-0.0811,1.2061-0.2422,1.6758
			c-0.1973,0.5723-0.4785,1.0361-0.8438,1.3906c-0.2754,0.2686-0.6475,0.4785-1.1172,0.6289
			c-0.3506,0.1104-0.8193,0.166-1.4063,0.166h-2.9922V57.4572z M81.1224,58.7892v5.2158h1.1875
			c0.4434,0,0.7637-0.0254,0.9609-0.0762c0.2578-0.0645,0.4717-0.1729,0.6416-0.3271s0.3096-0.4072,0.417-0.7598
			s0.1602-0.834,0.1602-1.4424s-0.0527-1.0762-0.1602-1.4023c-0.1074-0.3252-0.2578-0.5801-0.4512-0.7617
			c-0.1934-0.1836-0.4395-0.3066-0.7363-0.3711c-0.2217-0.0498-0.6572-0.0752-1.3047-0.0752H81.1224z"/>
		<path d="M87.433,65.3312v-7.874h1.5898v7.874H87.433z"/>
		<path d="M90.5326,57.4572h2.9063c0.6543,0,1.1543,0.0498,1.498,0.1504c0.4619,0.1357,0.8574,0.3779,1.1875,0.7256
			c0.3291,0.3467,0.5801,0.7725,0.752,1.2754s0.2578,1.123,0.2578,1.8613c0,0.6475-0.0811,1.2061-0.2422,1.6758
			c-0.1973,0.5723-0.4785,1.0361-0.8438,1.3906c-0.2754,0.2686-0.6475,0.4785-1.1172,0.6289
			c-0.3506,0.1104-0.8193,0.166-1.4063,0.166h-2.9922V57.4572z M92.1224,58.7892v5.2158h1.1875
			c0.4434,0,0.7637-0.0254,0.9609-0.0762c0.2578-0.0645,0.4717-0.1729,0.6416-0.3271s0.3096-0.4072,0.417-0.7598
			s0.1602-0.834,0.1602-1.4424s-0.0527-1.0762-0.1602-1.4023c-0.1074-0.3252-0.2578-0.5801-0.4512-0.7617
			c-0.1934-0.1836-0.4395-0.3066-0.7363-0.3711c-0.2217-0.0498-0.6572-0.0752-1.3047-0.0752H92.1224z"/>
		<path d="M105.5814,65.3312h-1.7285l-0.6875-1.7891h-3.1484l-0.6494,1.7891H97.681l3.0664-7.874h1.6816L105.5814,65.3312z
			 M102.6547,62.216l-1.085-2.9219l-1.0635,2.9219H102.6547z M100.6566,57.006l0.7412-1.6064h1.6914l-1.4766,1.6064H100.6566z"/>
		<path d="M111.4623,62.4367l1.542,0.4883c-0.2363,0.8594-0.6289,1.498-1.1787,1.915s-1.2471,0.626-2.0918,0.626
			c-1.0459,0-1.9053-0.3574-2.5781-1.0723c-0.6738-0.7139-1.0098-1.6904-1.0098-2.9297c0-1.3105,0.3379-2.3281,1.0146-3.0537
			c0.6768-0.7246,1.5664-1.0869,2.6689-1.0869c0.9639,0,1.7461,0.2842,2.3477,0.8535c0.3584,0.3369,0.627,0.8203,0.8057,1.4502
			l-1.5732,0.376c-0.0938-0.4082-0.2881-0.7305-0.583-0.9668c-0.2959-0.2363-0.6543-0.3545-1.0771-0.3545
			c-0.584,0-1.0576,0.21-1.4209,0.6279c-0.3633,0.4199-0.5449,1.0977-0.5449,2.0361c0,0.9951,0.1787,1.7041,0.5371,2.127
			s0.8232,0.6338,1.3965,0.6338c0.4229,0,0.7861-0.1348,1.0908-0.4023C111.1117,63.4347,111.3304,63.0128,111.4623,62.4367z"/>
		<path d="M116.14,65.3312v-6.542h-2.3359v-1.332h6.2578v1.332h-2.332v6.542H116.14z"/>
		<path d="M121.0384,65.3312v-7.874h1.5898v7.874H121.0384z"/>
		<path d="M129.181,62.4367l1.542,0.4883c-0.2363,0.8594-0.6289,1.498-1.1787,1.915s-1.2471,0.626-2.0918,0.626
			c-1.0459,0-1.9053-0.3574-2.5781-1.0723c-0.6738-0.7139-1.0098-1.6904-1.0098-2.9297c0-1.3105,0.3379-2.3281,1.0146-3.0537
			c0.6768-0.7246,1.5664-1.0869,2.6689-1.0869c0.9639,0,1.7461,0.2842,2.3476,0.8535c0.3584,0.3369,0.627,0.8203,0.8057,1.4502
			l-1.5732,0.376c-0.0938-0.4082-0.2881-0.7305-0.583-0.9668c-0.2959-0.2363-0.6543-0.3545-1.0771-0.3545
			c-0.584,0-1.0576,0.21-1.4209,0.6279c-0.3633,0.4199-0.5449,1.0977-0.5449,2.0361c0,0.9951,0.1787,1.7041,0.5371,2.127
			s0.8232,0.6338,1.3965,0.6338c0.4229,0,0.7861-0.1348,1.0908-0.4023C128.8304,63.4347,129.0492,63.0128,129.181,62.4367z"/>
		<path d="M139.1869,65.3312h-1.7285l-0.6875-1.7891h-3.1484l-0.6494,1.7891h-1.6865l3.0664-7.874h1.6816L139.1869,65.3312z
			 M136.2601,62.216l-1.085-2.9219l-1.0635,2.9219H136.2601z"/>
	</g>
	<path id="XMLID_4178_" class="st17" d="M90.0926,18.2012v16.9964c0,2.0984-1.7515,3.8499-4.0334,3.8499H66.0953
		c-2.2798,0-4.027-1.7515-4.027-3.8499V15.0491c0-2.2752,1.7472-4.0279,4.027-4.0279H83.086l-4.0288,4.0279H66.0953v20.1486h19.9639
		V22.2335L90.0926,18.2012z M87.113,9.7962L85.7147,11.37l4.2057,4.2068l1.4006-1.4027L87.113,9.7962z M89.9204,6.9944L88.52,8.3924
		l4.1991,4.3814l1.4095-1.4038L89.9204,6.9944z M71.5291,25.3834l4.1991,4.3825L88.52,16.9786l-4.208-4.2048L71.5291,25.3834z
		 M70.1241,31.1631h4.0314l-4.0314-4.0279V31.1631z"/>
</g>
</svg>
