<?xml version="1.0" encoding="utf-8"?>
<!-- Generator: Adobe Illustrator 21.0.2, SVG Export Plug-In . SVG Version: 6.00 Build 0)  -->
<svg version="1.1" id="Capa_1" xmlns="http://www.w3.org/2000/svg" xmlns:xlink="http://www.w3.org/1999/xlink" x="0px" y="0px"
	 viewBox="0 0 155.4549 74.254" style="enable-background:new 0 0 155.4549 74.254;" xml:space="preserve">
<style type="text/css">
	.st0{fill-rule:evenodd;clip-rule:evenodd;fill:#DDDDDD;}
	.st1{fill:#3B86B1;}
	.st2{opacity:0.25;fill-rule:evenodd;clip-rule:evenodd;fill:#020202;}
	.st3{fill:#FFFFFF;}
	.st4{opacity:0.5;}
	.st5{fill-rule:evenodd;clip-rule:evenodd;fill:#A8A8A8;}
	.st6{fill-rule:evenodd;clip-rule:evenodd;fill:#FFFFFF;}
	.st7{fill-rule:evenodd;clip-rule:evenodd;fill:#3B86B1;}
	.st8{opacity:0.5;fill:#2C6882;}
	.st9{opacity:0.75;fill-rule:evenodd;clip-rule:evenodd;fill:#282828;}
	.st10{opacity:0.5;fill:#FFFFFF;}
	.st11{fill-rule:evenodd;clip-rule:evenodd;fill:none;stroke:#FFFFFF;stroke-miterlimit:10;}
	.st12{fill:none;stroke:#FFFFFF;stroke-miterlimit:10;}
	.st13{fill:#FFFFFF;stroke:#3B86B1;stroke-width:1.7139;stroke-miterlimit:10;}
	.st14{fill-rule:evenodd;clip-rule:evenodd;}
	.st15{opacity:0.85;fill:#FFFFFF;}
	.st16{opacity:0.5;fill-rule:evenodd;clip-rule:evenodd;}
	.st17{fill-rule:evenodd;clip-rule:evenodd;fill:#FEFEFE;}
	.st18{fill:#312767;}
	.st19{opacity:0.48;}
	.st20{opacity:0.25;}
	.st21{fill-rule:evenodd;clip-rule:evenodd;fill:#020202;}
	.st22{fill:#757575;}
	.st23{opacity:0.25;clip-path:url(#XMLID_3807_);}
	.st24{fill:#FFFFFF;stroke:#312767;stroke-miterlimit:10;}
	.st25{fill:#ACABC9;}
	.st26{fill-rule:evenodd;clip-rule:evenodd;fill:#312767;}
	.st27{opacity:0.77;fill:#312767;}
	.st28{opacity:0.25;clip-path:url(#XMLID_3875_);}
	.st29{fill:#9490B2;stroke:#2D2D2D;stroke-width:0.25;stroke-miterlimit:10;}
	.st30{fill:#312767;stroke:#2D2D2D;stroke-width:0.25;stroke-miterlimit:10;}
	.st31{fill:#FCFCFC;}
	.st32{fill:#FFFFFF;stroke:#2D2D2D;stroke-width:0.25;stroke-miterlimit:10;}
	.st33{fill-rule:evenodd;clip-rule:evenodd;fill:#484849;stroke:#2D2D2D;stroke-width:0.25;stroke-miterlimit:10;}
	.st34{fill-rule:evenodd;clip-rule:evenodd;fill:#312767;stroke:#2D2D2D;stroke-width:0.25;stroke-miterlimit:10;}
	.st35{fill-rule:evenodd;clip-rule:evenodd;fill:#FFFFFF;stroke:#2D2D2D;stroke-width:0.25;stroke-miterlimit:10;}
	.st36{fill:#484849;stroke:#2D2D2D;stroke-width:0.25;stroke-miterlimit:10;}
	.st37{fill:#FFFFFF;stroke:#FFFFFF;stroke-miterlimit:10;}
	.st38{fill:#54518C;}
	.st39{opacity:0.25;fill-rule:evenodd;clip-rule:evenodd;fill:#FFFFFF;}
	.st40{fill:#D4A800;}
	.st41{fill:#00AEB3;}
	.st42{fill:#38353B;}
	.st43{fill:#FF8400;}
	.st44{fill:#BF3900;}
	.st45{fill:#00AA9C;}
	.st46{opacity:0.25;clip-path:url(#XMLID_3876_);}
	.st47{fill:none;stroke:#ACABC9;stroke-width:5;stroke-miterlimit:10;}
	.st48{opacity:0.25;clip-path:url(#XMLID_3877_);}
	.st49{fill:#E0B53D;}
	.st50{fill:#DDDDDD;}
	.st51{opacity:0.25;clip-path:url(#XMLID_3878_);}
	.st52{fill-rule:evenodd;clip-rule:evenodd;fill:#FFFFFF;stroke:#FFFFFF;stroke-miterlimit:10;}
	.st53{fill:#02897C;}
	.st54{fill:#0EAD9A;}
	.st55{fill:#28C6AF;}
	.st56{fill:#4FE0C7;}
	.st57{fill:#D37D00;}
	.st58{fill:#D14600;}
	.st59{fill:#E5B92E;}
	.st60{fill:#DD571B;}
	.st61{fill:#E28A17;}
	.st62{opacity:0.25;clip-path:url(#XMLID_3883_);}
	.st63{opacity:0.77;fill:#FFFFFF;}
	.st64{fill:#50565B;stroke:#656C70;stroke-miterlimit:10;}
	.st65{fill:#808589;stroke:#656C70;stroke-miterlimit:10;}
	.st66{fill:#252728;stroke:#000000;stroke-miterlimit:10;}
	.st67{fill:#1A1B1C;stroke:#000000;stroke-miterlimit:10;}
	.st68{fill:#A0A6AA;}
	.st69{fill:#262C35;stroke:#161A1E;stroke-miterlimit:10;}
	.st70{fill:#181D23;}
	.st71{fill:#EABA96;stroke:#E0AA86;stroke-miterlimit:10;}
	.st72{fill:#E0AA86;}
	.st73{stroke:#000000;stroke-width:0.75;stroke-linecap:square;stroke-linejoin:bevel;stroke-miterlimit:10;}
	.st74{fill:#0F1C3F;stroke:#182951;stroke-miterlimit:10;}
	.st75{fill:#132354;stroke:#3F6093;stroke-miterlimit:10;}
	.st76{fill:#0F1C3F;}
	.st77{fill:none;stroke:#3F6093;stroke-width:0.75;stroke-miterlimit:10;}
	.st78{fill:#DBA682;}
	.st79{fill:none;stroke:#E0AA86;stroke-miterlimit:10;}
	.st80{fill:none;stroke:#E0AA86;stroke-linejoin:bevel;stroke-miterlimit:10;}
	.st81{fill:#8A0A8E;stroke:#AC34B2;stroke-miterlimit:10;}
	.st82{fill:#810C87;}
	.st83{fill:#680B6D;}
	.st84{fill:#AC34B2;stroke:#AC34B2;stroke-width:0.5;stroke-miterlimit:10;}
	.st85{fill:none;stroke:#959DA0;stroke-width:0.5;stroke-miterlimit:10;}
	.st86{fill:#959DA0;stroke:#959DA0;stroke-width:0.5;stroke-miterlimit:10;}
	.st87{fill:none;stroke:#AC34B2;stroke-miterlimit:10;}
	.st88{fill:#282828;stroke:#000000;stroke-miterlimit:10;}
	.st89{fill:#EABA96;stroke:#E0AA86;stroke-width:0.5;stroke-miterlimit:10;}
	.st90{fill:#B7896A;}
	.st91{stroke:#000000;stroke-miterlimit:10;}
	.st92{fill:#C1A578;}
	.st93{stroke:#000000;stroke-width:0.25;stroke-linecap:round;stroke-linejoin:round;stroke-miterlimit:10;}
	.st94{fill:#FFFFFF;stroke:#000000;stroke-width:0.25;stroke-linecap:round;stroke-linejoin:round;stroke-miterlimit:10;}
	.st95{fill:#70582D;}
	.st96{stroke:#000000;stroke-linecap:round;stroke-linejoin:round;stroke-miterlimit:10;}
	.st97{fill:none;stroke:#D8A27D;stroke-width:0.75;stroke-miterlimit:10;}
	.st98{fill:#561409;}
	.st99{fill:#BA2A13;}
	.st100{fill:#9E3025;stroke:#4C2311;stroke-width:0.25;stroke-miterlimit:10;}
	.st101{fill:#871D08;stroke:#4C2311;stroke-width:0.25;stroke-miterlimit:10;}
	.st102{fill:#DDAC8A;}
	.st103{fill:#A5ABAD;stroke:#959DA0;stroke-width:0.5;stroke-miterlimit:10;}
	.st104{fill:#B1BABC;}
	.st105{fill:none;stroke:#153847;stroke-width:5;stroke-miterlimit:10;}
	.st106{fill:#3CA7AF;}
	.st107{fill:#3DAD8D;}
	.st108{fill:#3DAA61;}
	.st109{fill:#67A53F;}
	.st110{fill:#95A340;}
	.st111{opacity:0.25;clip-path:url(#XMLID_3884_);}
	.st112{opacity:0.25;clip-path:url(#XMLID_3896_);}
	.st113{opacity:0.25;clip-path:url(#XMLID_3897_);}
	.st114{opacity:0.25;clip-path:url(#XMLID_3898_);}
	.st115{clip-path:url(#SVGID_2_);}
	.st116{fill:none;stroke:#3F6093;stroke-miterlimit:10;}
	.st117{fill:none;stroke:#3F6093;stroke-width:0.75;stroke-linecap:round;stroke-linejoin:round;}
	.st118{fill:none;stroke:#3F6093;stroke-width:0.75;stroke-linecap:round;stroke-linejoin:round;stroke-dasharray:0.9892,0.9892;}
	
		.st119{fill:none;stroke:#3F6093;stroke-width:0.75;stroke-linecap:round;stroke-linejoin:round;stroke-miterlimit:10;stroke-dasharray:1;}
	.st120{fill:#EAEAEA;stroke:#FFFFFF;stroke-width:0.25;stroke-miterlimit:10;}
	.st121{fill:#D8D8D8;}
	.st122{fill:#282828;stroke:#000000;stroke-width:0.75;stroke-miterlimit:10;}
	.st123{opacity:0.33;fill:#FFFFFF;}
	.st124{fill:none;stroke:#000000;stroke-width:1.5;stroke-linecap:round;stroke-linejoin:round;stroke-miterlimit:10;}
	.st125{opacity:0.64;}
	.st126{fill:#C9C9C9;}
	.st127{fill:#FFF064;}
	.st128{fill:#4F4E4F;}
	.st129{fill:#1E2F47;}
	.st130{opacity:0.1;fill:#FFFFFF;}
	.st131{opacity:0.1;}
	.st132{opacity:0.4;fill:#FFFFFF;}
	.st133{fill-rule:evenodd;clip-rule:evenodd;fill:#F39C12;}
	.st134{fill-rule:evenodd;clip-rule:evenodd;fill:#E6E6E6;}
	.st135{fill-rule:evenodd;clip-rule:evenodd;fill:#474646;}
	.st136{fill-rule:evenodd;clip-rule:evenodd;fill:#D84848;}
	.st137{opacity:0.2;fill-rule:evenodd;clip-rule:evenodd;fill:#231F20;}
	.st138{opacity:0.1;fill-rule:evenodd;clip-rule:evenodd;fill:#231F20;}
	.st139{fill-rule:evenodd;clip-rule:evenodd;fill:#4D4D4D;}
	.st140{fill-rule:evenodd;clip-rule:evenodd;fill:#336699;}
	.st141{fill-rule:evenodd;clip-rule:evenodd;fill:#FF6633;}
	.st142{fill-rule:evenodd;clip-rule:evenodd;fill:#0056A3;}
	.st143{fill-rule:evenodd;clip-rule:evenodd;fill:#33CC99;}
	.st144{fill:#CE6405;}
	.st145{opacity:0.2;fill:#FFFFFF;}
	.st146{fill:#1ABC9C;}
	.st147{opacity:0.2;}
	.st148{fill:#0B2E44;}
	.st149{fill-rule:evenodd;clip-rule:evenodd;fill:#154F77;}
	.st150{fill-rule:evenodd;clip-rule:evenodd;fill:#0D3858;}
	.st151{fill-rule:evenodd;clip-rule:evenodd;fill:#FFFEFE;}
	.st152{fill:#AEC647;}
	.st153{fill:#F3AE1B;}
	.st154{fill:#DF3F11;}
	.st155{fill:#BCDEDE;}
	.st156{fill:#C84119;}
	.st157{fill:#6BB5CE;}
	.st158{fill:#00D0E5;}
	.st159{fill:#FF81ED;}
	.st160{fill:#00C982;}
	.st161{opacity:0.7;}
	.st162{opacity:0.4;}
	.st163{fill-rule:evenodd;clip-rule:evenodd;fill:#0B2E44;}
	.st164{opacity:0.8;fill-rule:evenodd;clip-rule:evenodd;fill:#FFFFFF;}
	.st165{fill:#424242;}
	.st166{opacity:0.2;fill-rule:evenodd;clip-rule:evenodd;fill:#FFFFFF;}
	.st167{fill:#D0EDFA;}
	.st168{fill:#FF651F;}
	.st169{fill:#0051C4;}
	.st170{fill:#E46400;}
	.st171{fill:#C0003B;}
	.st172{fill:#FFEA50;}
	.st173{fill:#FF2C0D;}
	.st174{fill:#FF1A2C;}
	.st175{fill:#FF2C4D;}
	.st176{fill:#FFD74C;}
	.st177{fill:#4C4C4B;}
	.st178{fill:#6CD2EA;}
	.st179{fill:#F7674F;}
	.st180{opacity:0.1;fill-rule:evenodd;clip-rule:evenodd;}
	.st181{fill:#BABABA;}
	.st182{fill:#F9B946;}
	.st183{fill:#DFC2A9;}
	.st184{fill:#BFA490;}
	.st185{fill:#F5D4B2;}
	.st186{fill:#DF584C;}
	.st187{fill:#C2443E;}
	.st188{fill:#DBDBDA;}
	.st189{fill:#2F363E;}
	.st190{fill:#332524;}
	.st191{fill:#473735;}
	.st192{opacity:0.25;clip-path:url(#XMLID_3899_);}
	.st193{fill:#153847;}
	.st194{fill:#52B8BA;}
	.st195{fill:#35373E;}
	.st196{opacity:0.25;clip-path:url(#XMLID_3904_);}
	.st197{opacity:0.31;fill:#34383A;}
	.st198{opacity:0.16;fill:#3D3835;}
	.st199{fill:#D0D1D4;}
	.st200{opacity:0.31;}
	.st201{fill:#34383A;}
	.st202{opacity:0.16;}
	.st203{fill:#3D3835;}
	.st204{opacity:0.25;clip-path:url(#XMLID_3905_);}
	.st205{fill:#F9E1B4;}
	.st206{opacity:0.25;fill:#050505;}
	.st207{fill:#FCC60F;}
	.st208{fill:#74CAEA;}
	.st209{fill:#050505;}
	.st210{opacity:0.25;clip-path:url(#XMLID_3912_);}
	.st211{fill:#FABC8F;}
	.st212{fill:#3FA995;}
	.st213{opacity:0.17;fill:#020202;}
	.st214{fill:#E1E1E1;}
	.st215{opacity:0.17;}
	.st216{fill:#020202;}
	.st217{opacity:0.25;clip-path:url(#XMLID_3913_);}
	.st218{fill:#BF8E00;}
	.st219{fill:#F7D8D7;}
	.st220{fill:#F18636;}
	.st221{fill:#004460;}
	.st222{fill:#D93A37;}
	.st223{fill:#EDEDED;}
	.st224{fill:#184F78;}
	.st225{fill:#FF3E03;}
	.st226{opacity:0.6;fill:#0F0F0F;}
	.st227{fill:#E8E8E6;}
	.st228{fill:#00EAA6;}
	.st229{fill-rule:evenodd;clip-rule:evenodd;fill:#FF3E03;}
	.st230{opacity:0.1;fill-rule:evenodd;clip-rule:evenodd;fill:#020202;}
	.st231{fill-rule:evenodd;clip-rule:evenodd;fill:#FABE00;}
	.st232{fill-rule:evenodd;clip-rule:evenodd;fill:#E6E8E8;}
	.st233{fill-rule:evenodd;clip-rule:evenodd;fill:#F7D959;}
	.st234{fill-rule:evenodd;clip-rule:evenodd;fill:#F9623E;}
	.st235{fill:#4F1A0F;}
	.st236{opacity:0.46;fill:#FFFFFF;}
	.st237{fill:#48505A;}
	.st238{fill:#C3C3C3;}
	.st239{fill:#E9E9EA;}
	.st240{fill:#9D9E9F;}
	.st241{fill:#F6F4F4;}
	.st242{fill:#6B6A6A;}
	.st243{fill:#C09478;}
	.st244{fill:#F7CDA0;}
	.st245{fill:#9E1010;}
	.st246{fill:#F2F2F2;}
	.st247{opacity:0.2;fill:#060606;}
	.st248{fill:#16AFBE;}
	.st249{fill:#DD2222;}
	.st250{fill:#FFEDDC;}
	.st251{fill:#22272B;}
	.st252{fill:#5B6375;}
	.st253{fill:#F79748;}
	.st254{fill:#FF7900;}
	.st255{fill:#DD7105;}
</style>
<g>
	<rect id="XMLID_4175_" x="0.5409" class="st10" width="154.914" height="74.254"/>
	<rect id="XMLID_4169_" class="st1" width="155.3363" height="48.1538"/>
	<g>
		<path d="M30.6731,57.4566h2.9063c0.6543,0,1.1543,0.0498,1.498,0.1504c0.4619,0.1357,0.8574,0.3779,1.1875,0.7256
			c0.3291,0.3467,0.5801,0.7725,0.752,1.2754s0.2578,1.123,0.2578,1.8613c0,0.6475-0.0811,1.2061-0.2422,1.6758
			c-0.1973,0.5723-0.4785,1.0361-0.8438,1.3906c-0.2754,0.2686-0.6475,0.4785-1.1172,0.6289
			c-0.3506,0.1104-0.8193,0.166-1.4063,0.166h-2.9922V57.4566z M32.2629,58.7886v5.2158h1.1875
			c0.4434,0,0.7637-0.0254,0.9609-0.0762c0.2578-0.0645,0.4717-0.1729,0.6416-0.3271s0.3096-0.4072,0.417-0.7598
			s0.1602-0.834,0.1602-1.4424s-0.0527-1.0762-0.1602-1.4023c-0.1074-0.3252-0.2578-0.5801-0.4512-0.7617
			c-0.1934-0.1836-0.4395-0.3066-0.7363-0.3711c-0.2217-0.0498-0.6572-0.0752-1.3047-0.0752H32.2629z"/>
		<path d="M38.6223,65.3306v-7.874h5.8379v1.332h-4.248v1.7451h3.9531v1.3271h-3.9531v2.1436h4.3984v1.3262H38.6223z"/>
		<path d="M45.5559,62.7681l1.5469-0.1504c0.0928,0.5195,0.2822,0.9014,0.5664,1.1445c0.2852,0.2432,0.6689,0.3652,1.1523,0.3652
			c0.5117,0,0.8975-0.1084,1.1572-0.3252s0.3896-0.4697,0.3896-0.7598c0-0.1865-0.0547-0.3447-0.1641-0.4756
			s-0.2998-0.2441-0.5713-0.3408c-0.1865-0.0645-0.6113-0.1787-1.2734-0.3438c-0.8525-0.2109-1.4502-0.4707-1.7939-0.7783
			c-0.4834-0.4336-0.7256-0.9619-0.7256-1.585c0-0.4014,0.1143-0.7764,0.3418-1.125c0.2275-0.3496,0.5547-0.6152,0.9824-0.7979
			s0.9443-0.2734,1.5498-0.2734c0.9883,0,1.7324,0.2158,2.2314,0.6494c0.5,0.4336,0.7617,1.0117,0.7871,1.7354l-1.5898,0.0693
			c-0.0684-0.4043-0.2139-0.6953-0.4375-0.873c-0.2236-0.1768-0.5596-0.2656-1.0078-0.2656c-0.4609,0-0.8232,0.0947-1.084,0.2842
			c-0.1689,0.1221-0.2529,0.2852-0.2529,0.4893c0,0.1865,0.0791,0.3457,0.2363,0.4775c0.2002,0.1689,0.6875,0.3438,1.4609,0.5273
			c0.7734,0.1816,1.3457,0.3711,1.7158,0.5664c0.3711,0.1953,0.6611,0.4619,0.8701,0.7998c0.21,0.3389,0.3145,0.7568,0.3145,1.2549
			c0,0.4512-0.125,0.873-0.376,1.2676c-0.251,0.3936-0.6055,0.6865-1.0635,0.8779s-1.0293,0.2871-1.7139,0.2871
			c-0.9951,0-1.7598-0.2305-2.293-0.6904S45.6594,63.649,45.5559,62.7681z"/>
		<path d="M58.3333,62.4361l1.542,0.4883c-0.2363,0.8594-0.6289,1.498-1.1787,1.915s-1.2471,0.626-2.0918,0.626
			c-1.0459,0-1.9053-0.3574-2.5781-1.0723c-0.6738-0.7139-1.0098-1.6904-1.0098-2.9297c0-1.3105,0.3379-2.3281,1.0146-3.0537
			c0.6768-0.7246,1.5664-1.0869,2.6689-1.0869c0.9639,0,1.7461,0.2842,2.3477,0.8535c0.3584,0.3369,0.627,0.8203,0.8057,1.4502
			l-1.5732,0.376c-0.0938-0.4082-0.2881-0.7305-0.583-0.9668c-0.2959-0.2363-0.6543-0.3545-1.0771-0.3545
			c-0.584,0-1.0576,0.21-1.4209,0.6279c-0.3633,0.4199-0.5449,1.0977-0.5449,2.0361c0,0.9951,0.1787,1.7041,0.5371,2.127
			s0.8232,0.6338,1.3965,0.6338c0.4229,0,0.7861-0.1348,1.0908-0.4023C57.9827,63.4342,58.2014,63.0123,58.3333,62.4361z"/>
		<path d="M68.3391,65.3306h-1.7285l-0.6875-1.7891h-3.1484l-0.6494,1.7891h-1.6865l3.0664-7.874h1.6816L68.3391,65.3306z
			 M65.4124,62.2154l-1.085-2.9219l-1.0635,2.9219H65.4124z"/>
		<path d="M69.1878,65.3306v-7.874h3.3467c0.8408,0,1.4521,0.0703,1.834,0.2119c0.3809,0.1416,0.6865,0.3936,0.916,0.7549
			c0.2285,0.3613,0.3438,0.7754,0.3438,1.2412c0,0.5898-0.1738,1.0781-0.5215,1.4629s-0.8662,0.6279-1.5576,0.7285
			c0.3438,0.2002,0.6279,0.4199,0.8516,0.6602s0.5254,0.666,0.9053,1.2783l0.9609,1.5361h-1.9014l-1.1494-1.7129
			c-0.4082-0.6133-0.6875-0.999-0.8379-1.1582s-0.3096-0.2686-0.4785-0.3271c-0.168-0.0596-0.4346-0.0889-0.7998-0.0889h-0.3223
			v3.2871H69.1878z M70.7776,60.7867h1.1768c0.7617,0,1.2383-0.0322,1.4277-0.0967c0.1904-0.0645,0.3389-0.1758,0.4463-0.333
			s0.1611-0.3545,0.1611-0.5908c0-0.2646-0.0703-0.4785-0.2119-0.6416s-0.3408-0.2666-0.5986-0.3096
			c-0.1289-0.0176-0.5156-0.0264-1.1602-0.0264h-1.2412V60.7867z"/>
		<path d="M80.7883,62.4361V61.109h3.4277v3.1367c-0.334,0.3223-0.8164,0.6064-1.4482,0.8516s-1.2715,0.3682-1.9199,0.3682
			c-0.8232,0-1.542-0.1729-2.1533-0.5186c-0.6133-0.3457-1.0732-0.8398-1.3809-1.4824s-0.4619-1.3418-0.4619-2.0977
			c0-0.8203,0.1719-1.5488,0.5156-2.1865c0.3438-0.6367,0.8467-1.126,1.5088-1.4658c0.5059-0.2617,1.1338-0.3916,1.8857-0.3916
			c0.9775,0,1.7412,0.2041,2.291,0.6143s0.9033,0.9766,1.0605,1.7002l-1.5791,0.2949c-0.1113-0.3867-0.3193-0.6914-0.626-0.915
			c-0.3057-0.2236-0.6885-0.3359-1.1465-0.3359c-0.6943,0-1.2471,0.2197-1.6572,0.6611c-0.4102,0.4395-0.6152,1.0938-0.6152,1.96
			c0,0.9346,0.208,1.6357,0.623,2.1025c0.416,0.4678,0.96,0.7012,1.6328,0.7012c0.334,0,0.667-0.0654,1.002-0.1963
			s0.6221-0.2891,0.8623-0.4756v-0.998H80.7883z"/>
		<path d="M92.7825,65.3306H91.054l-0.6875-1.7891H87.218l-0.6494,1.7891h-1.6865l3.0664-7.874h1.6816L92.7825,65.3306z
			 M89.8557,62.2154l-1.085-2.9219l-1.0635,2.9219H89.8557z"/>
		<path d="M93.6311,65.3306v-7.874h3.3467c0.8408,0,1.4521,0.0703,1.834,0.2119c0.3809,0.1416,0.6865,0.3936,0.916,0.7549
			c0.2285,0.3613,0.3438,0.7754,0.3438,1.2412c0,0.5898-0.1738,1.0781-0.5215,1.4629s-0.8662,0.6279-1.5576,0.7285
			c0.3438,0.2002,0.6279,0.4199,0.8516,0.6602s0.5254,0.666,0.9053,1.2783l0.9609,1.5361h-1.9014l-1.1494-1.7129
			c-0.4082-0.6133-0.6875-0.999-0.8379-1.1582s-0.3096-0.2686-0.4785-0.3271c-0.168-0.0596-0.4346-0.0889-0.7998-0.0889H95.221
			v3.2871H93.6311z M95.221,60.7867h1.1768c0.7617,0,1.2383-0.0322,1.4277-0.0967c0.1904-0.0645,0.3389-0.1758,0.4463-0.333
			s0.1611-0.3545,0.1611-0.5908c0-0.2646-0.0703-0.4785-0.2119-0.6416s-0.3408-0.2666-0.5986-0.3096
			c-0.1289-0.0176-0.5156-0.0264-1.1602-0.0264H95.221V60.7867z"/>
		<path d="M104.6262,65.3306v-7.874h2.5508c0.9668,0,1.5967,0.0391,1.8906,0.1182c0.4512,0.1182,0.8291,0.375,1.1328,0.7705
			c0.3047,0.3955,0.457,0.9072,0.457,1.5342c0,0.4824-0.0879,0.8896-0.2637,1.2188c-0.1748,0.3291-0.3975,0.5879-0.668,0.7764
			c-0.2705,0.1875-0.5449,0.3125-0.8242,0.373c-0.3799,0.0752-0.9297,0.1123-1.6494,0.1123h-1.0361v2.9707H104.6262z
			 M106.2161,58.7886v2.2344h0.8691c0.627,0,1.0459-0.041,1.2578-0.124c0.2109-0.082,0.376-0.2109,0.4961-0.3867
			c0.1201-0.1748,0.1797-0.3789,0.1797-0.6113c0-0.2871-0.084-0.5234-0.252-0.709c-0.168-0.1865-0.3809-0.3027-0.6387-0.3496
			c-0.1904-0.0361-0.5713-0.0537-1.1445-0.0537H106.2161z"/>
		<path d="M111.9573,57.4566h2.9063c0.6543,0,1.1543,0.0498,1.498,0.1504c0.4619,0.1357,0.8574,0.3779,1.1875,0.7256
			c0.3291,0.3467,0.5801,0.7725,0.752,1.2754s0.2578,1.123,0.2578,1.8613c0,0.6475-0.0811,1.2061-0.2422,1.6758
			c-0.1973,0.5723-0.4785,1.0361-0.8438,1.3906c-0.2754,0.2686-0.6475,0.4785-1.1172,0.6289
			c-0.3506,0.1104-0.8193,0.166-1.4063,0.166h-2.9922V57.4566z M113.5471,58.7886v5.2158h1.1875
			c0.4434,0,0.7637-0.0254,0.9609-0.0762c0.2578-0.0645,0.4717-0.1729,0.6416-0.3271s0.3096-0.4072,0.417-0.7598
			s0.1602-0.834,0.1602-1.4424s-0.0527-1.0762-0.1602-1.4023c-0.1074-0.3252-0.2578-0.5801-0.4512-0.7617
			c-0.1934-0.1836-0.4395-0.3066-0.7363-0.3711c-0.2217-0.0498-0.6572-0.0752-1.3047-0.0752H113.5471z"/>
		<path d="M119.9172,65.3306v-7.874h5.3984v1.332h-3.8086v1.8643h3.2871v1.332h-3.2871v3.3457H119.9172z"/>
	</g>
	<g id="XMLID_4149_">
		<path id="XMLID_4159_" class="st3" d="M76.3324,15.2399h-4.7892c-0.7382,0-1.3367,0.5985-1.3367,1.3367
			s0.5985,1.3367,1.3367,1.3367h4.7892c0.7382,0,1.3367-0.5985,1.3367-1.3367S77.0706,15.2399,76.3324,15.2399z"/>
		<path id="XMLID_4158_" class="st3" d="M76.3324,20.7946h-4.7892c-0.7382,0-1.3367,0.5985-1.3367,1.3367
			s0.5985,1.3367,1.3367,1.3367h4.7892c0.7382,0,1.3367-0.5985,1.3367-1.3367S77.0706,20.7946,76.3324,20.7946z"/>
		<path id="XMLID_4157_" class="st3" d="M81.9523,30.1538v1.3018h0.6877c0.834,0,0.834-0.4989,0.834-0.6629
			c0-0.1582,0-0.6389-0.834-0.6389L81.9523,30.1538L81.9523,30.1538z"/>
		<path id="XMLID_4151_" class="st3" d="M92.1053,27.6941H89.93V14.1447c0-0.3506-0.139-0.6866-0.3871-0.9343l-5.2466-5.2469
			c-0.2481-0.2476-0.5837-0.3867-0.9342-0.3867H67.5728c-1.4305,0-2.5941,1.1637-2.5941,2.5942v27.8114
			c0,1.4306,1.1637,2.5943,2.5941,2.5943h19.763c1.4304,0,2.5941-1.1638,2.5941-2.5943v-2.6776h2.1752
			c1.1306,0,2.0472-0.9165,2.0472-2.0472v-3.5165C94.1524,28.6107,93.2358,27.6941,92.1053,27.6941z M87.1128,37.6884H67.7957
			v-27.223h13.7311v3.8831c0,0.9406,0.7623,1.7027,1.7025,1.7027h3.8835v11.6429h-6.6102c-1.1307,0-2.0472,0.9166-2.0472,2.0472
			v3.5165c0,1.1307,0.9165,2.0472,2.0472,2.0472h6.6102V37.6884L87.1128,37.6884z M84.3196,30.7926
			c0,0.9304-0.6437,1.5085-1.6798,1.5085h-0.6877v0.8c0,0.2064-0.1673,0.374-0.3738,0.374h-0.0978
			c-0.2066,0-0.374-0.1676-0.374-0.374v-3.4189c0-0.2064,0.1674-0.374,0.374-0.374h1.1593
			C83.676,29.3081,84.3196,29.8768,84.3196,30.7926z M86.44,33.4751h-1.3451c-0.2066,0-0.374-0.1676-0.374-0.374v-3.4189
			c0-0.2064,0.1673-0.374,0.374-0.374H86.44c1.1716,0,2.1249,0.9357,2.1249,2.086C88.5649,32.5416,87.6118,33.4751,86.44,33.4751z
			 M91.8001,29.7797c0,0.2067-0.1674,0.374-0.374,0.374h-1.5189v0.8958h1.294c0.2065,0,0.374,0.1671,0.374,0.3738v0.0979
			c0,0.2064-0.1675,0.374-0.374,0.374h-1.294v1.2057c0,0.2064-0.1673,0.374-0.3739,0.374h-0.0977
			c-0.2067,0-0.374-0.1676-0.374-0.374v-3.4189c0-0.2064,0.1673-0.374,0.374-0.374h1.9905c0.2067,0,0.374,0.1676,0.374,0.374
			V29.7797L91.8001,29.7797z"/>
		<path id="XMLID_4150_" class="st3" d="M86.44,30.1538h-0.8736v2.4757H86.44c0.7053,0,1.2792-0.5545,1.2792-1.2353
			C87.7193,30.7102,87.1455,30.1538,86.44,30.1538z"/>
	</g>
</g>
</svg>
