<?xml version="1.0" encoding="utf-8"?>
<!-- Generator: Adobe Illustrator 21.0.2, SVG Export Plug-In . SVG Version: 6.00 Build 0)  -->
<svg version="1.1" id="Capa_1" xmlns="http://www.w3.org/2000/svg" xmlns:xlink="http://www.w3.org/1999/xlink" x="0px" y="0px"
	 viewBox="0 0 154.914 74.254" style="enable-background:new 0 0 154.914 74.254;" xml:space="preserve">
<style type="text/css">
	.st0{fill-rule:evenodd;clip-rule:evenodd;fill:#DDDDDD;}
	.st1{fill:#3B86B1;}
	.st2{opacity:0.25;fill-rule:evenodd;clip-rule:evenodd;fill:#020202;}
	.st3{fill:#FFFFFF;}
	.st4{opacity:0.5;}
	.st5{fill-rule:evenodd;clip-rule:evenodd;fill:#A8A8A8;}
	.st6{fill-rule:evenodd;clip-rule:evenodd;fill:#FFFFFF;}
	.st7{fill-rule:evenodd;clip-rule:evenodd;fill:#3B86B1;}
	.st8{opacity:0.5;fill:#2C6882;}
	.st9{opacity:0.75;fill-rule:evenodd;clip-rule:evenodd;fill:#282828;}
	.st10{opacity:0.5;fill:#FFFFFF;}
	.st11{fill-rule:evenodd;clip-rule:evenodd;fill:none;stroke:#FFFFFF;stroke-miterlimit:10;}
	.st12{fill:none;stroke:#FFFFFF;stroke-miterlimit:10;}
	.st13{fill:#FFFFFF;stroke:#3B86B1;stroke-width:1.7139;stroke-miterlimit:10;}
	.st14{fill-rule:evenodd;clip-rule:evenodd;}
	.st15{opacity:0.85;fill:#FFFFFF;}
	.st16{opacity:0.5;fill-rule:evenodd;clip-rule:evenodd;}
	.st17{fill-rule:evenodd;clip-rule:evenodd;fill:#FEFEFE;}
	.st18{fill:#312767;}
	.st19{opacity:0.48;}
	.st20{opacity:0.25;}
	.st21{fill-rule:evenodd;clip-rule:evenodd;fill:#020202;}
	.st22{fill:#757575;}
	.st23{opacity:0.25;clip-path:url(#XMLID_3807_);}
	.st24{fill:#FFFFFF;stroke:#312767;stroke-miterlimit:10;}
	.st25{fill:#ACABC9;}
	.st26{fill-rule:evenodd;clip-rule:evenodd;fill:#312767;}
	.st27{opacity:0.77;fill:#312767;}
	.st28{opacity:0.25;clip-path:url(#XMLID_3875_);}
	.st29{fill:#9490B2;stroke:#2D2D2D;stroke-width:0.25;stroke-miterlimit:10;}
	.st30{fill:#312767;stroke:#2D2D2D;stroke-width:0.25;stroke-miterlimit:10;}
	.st31{fill:#FCFCFC;}
	.st32{fill:#FFFFFF;stroke:#2D2D2D;stroke-width:0.25;stroke-miterlimit:10;}
	.st33{fill-rule:evenodd;clip-rule:evenodd;fill:#484849;stroke:#2D2D2D;stroke-width:0.25;stroke-miterlimit:10;}
	.st34{fill-rule:evenodd;clip-rule:evenodd;fill:#312767;stroke:#2D2D2D;stroke-width:0.25;stroke-miterlimit:10;}
	.st35{fill-rule:evenodd;clip-rule:evenodd;fill:#FFFFFF;stroke:#2D2D2D;stroke-width:0.25;stroke-miterlimit:10;}
	.st36{fill:#484849;stroke:#2D2D2D;stroke-width:0.25;stroke-miterlimit:10;}
	.st37{fill:#FFFFFF;stroke:#FFFFFF;stroke-miterlimit:10;}
	.st38{fill:#54518C;}
	.st39{opacity:0.25;fill-rule:evenodd;clip-rule:evenodd;fill:#FFFFFF;}
	.st40{fill:#D4A800;}
	.st41{fill:#00AEB3;}
	.st42{fill:#38353B;}
	.st43{fill:#FF8400;}
	.st44{fill:#BF3900;}
	.st45{fill:#00AA9C;}
	.st46{opacity:0.25;clip-path:url(#XMLID_3876_);}
	.st47{fill:none;stroke:#ACABC9;stroke-width:5;stroke-miterlimit:10;}
	.st48{opacity:0.25;clip-path:url(#XMLID_3877_);}
	.st49{fill:#E0B53D;}
	.st50{fill:#DDDDDD;}
	.st51{opacity:0.25;clip-path:url(#XMLID_3878_);}
	.st52{fill-rule:evenodd;clip-rule:evenodd;fill:#FFFFFF;stroke:#FFFFFF;stroke-miterlimit:10;}
	.st53{fill:#02897C;}
	.st54{fill:#0EAD9A;}
	.st55{fill:#28C6AF;}
	.st56{fill:#4FE0C7;}
	.st57{fill:#D37D00;}
	.st58{fill:#D14600;}
	.st59{fill:#E5B92E;}
	.st60{fill:#DD571B;}
	.st61{fill:#E28A17;}
	.st62{opacity:0.25;clip-path:url(#XMLID_3883_);}
	.st63{opacity:0.77;fill:#FFFFFF;}
	.st64{fill:#50565B;stroke:#656C70;stroke-miterlimit:10;}
	.st65{fill:#808589;stroke:#656C70;stroke-miterlimit:10;}
	.st66{fill:#252728;stroke:#000000;stroke-miterlimit:10;}
	.st67{fill:#1A1B1C;stroke:#000000;stroke-miterlimit:10;}
	.st68{fill:#A0A6AA;}
	.st69{fill:#262C35;stroke:#161A1E;stroke-miterlimit:10;}
	.st70{fill:#181D23;}
	.st71{fill:#EABA96;stroke:#E0AA86;stroke-miterlimit:10;}
	.st72{fill:#E0AA86;}
	.st73{stroke:#000000;stroke-width:0.75;stroke-linecap:square;stroke-linejoin:bevel;stroke-miterlimit:10;}
	.st74{fill:#0F1C3F;stroke:#182951;stroke-miterlimit:10;}
	.st75{fill:#132354;stroke:#3F6093;stroke-miterlimit:10;}
	.st76{fill:#0F1C3F;}
	.st77{fill:none;stroke:#3F6093;stroke-width:0.75;stroke-miterlimit:10;}
	.st78{fill:#DBA682;}
	.st79{fill:none;stroke:#E0AA86;stroke-miterlimit:10;}
	.st80{fill:none;stroke:#E0AA86;stroke-linejoin:bevel;stroke-miterlimit:10;}
	.st81{fill:#8A0A8E;stroke:#AC34B2;stroke-miterlimit:10;}
	.st82{fill:#810C87;}
	.st83{fill:#680B6D;}
	.st84{fill:#AC34B2;stroke:#AC34B2;stroke-width:0.5;stroke-miterlimit:10;}
	.st85{fill:none;stroke:#959DA0;stroke-width:0.5;stroke-miterlimit:10;}
	.st86{fill:#959DA0;stroke:#959DA0;stroke-width:0.5;stroke-miterlimit:10;}
	.st87{fill:none;stroke:#AC34B2;stroke-miterlimit:10;}
	.st88{fill:#282828;stroke:#000000;stroke-miterlimit:10;}
	.st89{fill:#EABA96;stroke:#E0AA86;stroke-width:0.5;stroke-miterlimit:10;}
	.st90{fill:#B7896A;}
	.st91{stroke:#000000;stroke-miterlimit:10;}
	.st92{fill:#C1A578;}
	.st93{stroke:#000000;stroke-width:0.25;stroke-linecap:round;stroke-linejoin:round;stroke-miterlimit:10;}
	.st94{fill:#FFFFFF;stroke:#000000;stroke-width:0.25;stroke-linecap:round;stroke-linejoin:round;stroke-miterlimit:10;}
	.st95{fill:#70582D;}
	.st96{stroke:#000000;stroke-linecap:round;stroke-linejoin:round;stroke-miterlimit:10;}
	.st97{fill:none;stroke:#D8A27D;stroke-width:0.75;stroke-miterlimit:10;}
	.st98{fill:#561409;}
	.st99{fill:#BA2A13;}
	.st100{fill:#9E3025;stroke:#4C2311;stroke-width:0.25;stroke-miterlimit:10;}
	.st101{fill:#871D08;stroke:#4C2311;stroke-width:0.25;stroke-miterlimit:10;}
	.st102{fill:#DDAC8A;}
	.st103{fill:#A5ABAD;stroke:#959DA0;stroke-width:0.5;stroke-miterlimit:10;}
	.st104{fill:#B1BABC;}
	.st105{fill:none;stroke:#153847;stroke-width:5;stroke-miterlimit:10;}
	.st106{fill:#3CA7AF;}
	.st107{fill:#3DAD8D;}
	.st108{fill:#3DAA61;}
	.st109{fill:#67A53F;}
	.st110{fill:#95A340;}
	.st111{opacity:0.25;clip-path:url(#XMLID_3884_);}
	.st112{opacity:0.25;clip-path:url(#XMLID_3896_);}
	.st113{opacity:0.25;clip-path:url(#XMLID_3897_);}
	.st114{opacity:0.25;clip-path:url(#XMLID_3898_);}
	.st115{clip-path:url(#SVGID_2_);}
	.st116{fill:none;stroke:#3F6093;stroke-miterlimit:10;}
	.st117{fill:none;stroke:#3F6093;stroke-width:0.75;stroke-linecap:round;stroke-linejoin:round;}
	.st118{fill:none;stroke:#3F6093;stroke-width:0.75;stroke-linecap:round;stroke-linejoin:round;stroke-dasharray:0.9892,0.9892;}
	
		.st119{fill:none;stroke:#3F6093;stroke-width:0.75;stroke-linecap:round;stroke-linejoin:round;stroke-miterlimit:10;stroke-dasharray:1;}
	.st120{fill:#EAEAEA;stroke:#FFFFFF;stroke-width:0.25;stroke-miterlimit:10;}
	.st121{fill:#D8D8D8;}
	.st122{fill:#282828;stroke:#000000;stroke-width:0.75;stroke-miterlimit:10;}
	.st123{opacity:0.33;fill:#FFFFFF;}
	.st124{fill:none;stroke:#000000;stroke-width:1.5;stroke-linecap:round;stroke-linejoin:round;stroke-miterlimit:10;}
	.st125{opacity:0.64;}
	.st126{fill:#C9C9C9;}
	.st127{fill:#FFF064;}
	.st128{fill:#4F4E4F;}
	.st129{fill:#1E2F47;}
	.st130{opacity:0.1;fill:#FFFFFF;}
	.st131{opacity:0.1;}
	.st132{opacity:0.4;fill:#FFFFFF;}
	.st133{fill-rule:evenodd;clip-rule:evenodd;fill:#F39C12;}
	.st134{fill-rule:evenodd;clip-rule:evenodd;fill:#E6E6E6;}
	.st135{fill-rule:evenodd;clip-rule:evenodd;fill:#474646;}
	.st136{fill-rule:evenodd;clip-rule:evenodd;fill:#D84848;}
	.st137{opacity:0.2;fill-rule:evenodd;clip-rule:evenodd;fill:#231F20;}
	.st138{opacity:0.1;fill-rule:evenodd;clip-rule:evenodd;fill:#231F20;}
	.st139{fill-rule:evenodd;clip-rule:evenodd;fill:#4D4D4D;}
	.st140{fill-rule:evenodd;clip-rule:evenodd;fill:#336699;}
	.st141{fill-rule:evenodd;clip-rule:evenodd;fill:#FF6633;}
	.st142{fill-rule:evenodd;clip-rule:evenodd;fill:#0056A3;}
	.st143{fill-rule:evenodd;clip-rule:evenodd;fill:#33CC99;}
	.st144{fill:#CE6405;}
	.st145{opacity:0.2;fill:#FFFFFF;}
	.st146{fill:#1ABC9C;}
	.st147{opacity:0.2;}
	.st148{fill:#0B2E44;}
	.st149{fill-rule:evenodd;clip-rule:evenodd;fill:#154F77;}
	.st150{fill-rule:evenodd;clip-rule:evenodd;fill:#0D3858;}
	.st151{fill-rule:evenodd;clip-rule:evenodd;fill:#FFFEFE;}
	.st152{fill:#AEC647;}
	.st153{fill:#F3AE1B;}
	.st154{fill:#DF3F11;}
	.st155{fill:#BCDEDE;}
	.st156{fill:#C84119;}
	.st157{fill:#6BB5CE;}
	.st158{fill:#00D0E5;}
	.st159{fill:#FF81ED;}
	.st160{fill:#00C982;}
	.st161{opacity:0.7;}
	.st162{opacity:0.4;}
	.st163{fill-rule:evenodd;clip-rule:evenodd;fill:#0B2E44;}
	.st164{opacity:0.8;fill-rule:evenodd;clip-rule:evenodd;fill:#FFFFFF;}
	.st165{fill:#424242;}
	.st166{opacity:0.2;fill-rule:evenodd;clip-rule:evenodd;fill:#FFFFFF;}
	.st167{fill:#D0EDFA;}
	.st168{fill:#FF651F;}
	.st169{fill:#0051C4;}
	.st170{fill:#E46400;}
	.st171{fill:#C0003B;}
	.st172{fill:#FFEA50;}
	.st173{fill:#FF2C0D;}
	.st174{fill:#FF1A2C;}
	.st175{fill:#FF2C4D;}
	.st176{fill:#FFD74C;}
	.st177{fill:#4C4C4B;}
	.st178{fill:#6CD2EA;}
	.st179{fill:#F7674F;}
	.st180{opacity:0.1;fill-rule:evenodd;clip-rule:evenodd;}
	.st181{fill:#BABABA;}
	.st182{fill:#F9B946;}
	.st183{fill:#DFC2A9;}
	.st184{fill:#BFA490;}
	.st185{fill:#F5D4B2;}
	.st186{fill:#DF584C;}
	.st187{fill:#C2443E;}
	.st188{fill:#DBDBDA;}
	.st189{fill:#2F363E;}
	.st190{fill:#332524;}
	.st191{fill:#473735;}
	.st192{opacity:0.25;clip-path:url(#XMLID_3899_);}
	.st193{fill:#153847;}
	.st194{fill:#52B8BA;}
	.st195{fill:#35373E;}
	.st196{opacity:0.25;clip-path:url(#XMLID_3904_);}
	.st197{opacity:0.31;fill:#34383A;}
	.st198{opacity:0.16;fill:#3D3835;}
	.st199{fill:#D0D1D4;}
	.st200{opacity:0.31;}
	.st201{fill:#34383A;}
	.st202{opacity:0.16;}
	.st203{fill:#3D3835;}
	.st204{opacity:0.25;clip-path:url(#XMLID_3905_);}
	.st205{fill:#F9E1B4;}
	.st206{opacity:0.25;fill:#050505;}
	.st207{fill:#FCC60F;}
	.st208{fill:#74CAEA;}
	.st209{fill:#050505;}
	.st210{opacity:0.25;clip-path:url(#XMLID_3912_);}
	.st211{fill:#FABC8F;}
	.st212{fill:#3FA995;}
	.st213{opacity:0.17;fill:#020202;}
	.st214{fill:#E1E1E1;}
	.st215{opacity:0.17;}
	.st216{fill:#020202;}
	.st217{opacity:0.25;clip-path:url(#XMLID_3913_);}
	.st218{fill:#BF8E00;}
	.st219{fill:#F7D8D7;}
	.st220{fill:#F18636;}
	.st221{fill:#004460;}
	.st222{fill:#D93A37;}
	.st223{fill:#EDEDED;}
	.st224{fill:#184F78;}
	.st225{fill:#FF3E03;}
	.st226{opacity:0.6;fill:#0F0F0F;}
	.st227{fill:#E8E8E6;}
	.st228{fill:#00EAA6;}
	.st229{fill-rule:evenodd;clip-rule:evenodd;fill:#FF3E03;}
	.st230{opacity:0.1;fill-rule:evenodd;clip-rule:evenodd;fill:#020202;}
	.st231{fill-rule:evenodd;clip-rule:evenodd;fill:#FABE00;}
	.st232{fill-rule:evenodd;clip-rule:evenodd;fill:#E6E8E8;}
	.st233{fill-rule:evenodd;clip-rule:evenodd;fill:#F7D959;}
	.st234{fill-rule:evenodd;clip-rule:evenodd;fill:#F9623E;}
	.st235{fill:#4F1A0F;}
	.st236{opacity:0.46;fill:#FFFFFF;}
	.st237{fill:#48505A;}
	.st238{fill:#C3C3C3;}
	.st239{fill:#E9E9EA;}
	.st240{fill:#9D9E9F;}
	.st241{fill:#F6F4F4;}
	.st242{fill:#6B6A6A;}
	.st243{fill:#C09478;}
	.st244{fill:#F7CDA0;}
	.st245{fill:#9E1010;}
	.st246{fill:#F2F2F2;}
	.st247{opacity:0.2;fill:#060606;}
	.st248{fill:#16AFBE;}
	.st249{fill:#DD2222;}
	.st250{fill:#FFEDDC;}
	.st251{fill:#22272B;}
	.st252{fill:#5B6375;}
	.st253{fill:#F79748;}
	.st254{fill:#FF7900;}
	.st255{fill:#DD7105;}
</style>
<g>
	<rect id="XMLID_4197_" class="st10" width="154.914" height="74.254"/>
	<rect id="XMLID_4188_" x="0" class="st1" width="154.914" height="48.1538"/>
	<g>
		<path d="M52.5834,62.4367v-1.3271h3.4277v3.1367c-0.334,0.3223-0.8164,0.6064-1.4482,0.8516s-1.2715,0.3682-1.9199,0.3682
			c-0.8232,0-1.542-0.1729-2.1533-0.5186c-0.6133-0.3457-1.0732-0.8398-1.3809-1.4824s-0.4619-1.3418-0.4619-2.0977
			c0-0.8203,0.1719-1.5488,0.5156-2.1865c0.3438-0.6367,0.8467-1.126,1.5088-1.4658c0.5059-0.2617,1.1338-0.3916,1.8857-0.3916
			c0.9775,0,1.7412,0.2041,2.291,0.6143s0.9033,0.9766,1.0605,1.7002l-1.5791,0.2949c-0.1113-0.3867-0.3193-0.6914-0.626-0.915
			c-0.3057-0.2236-0.6885-0.3359-1.1465-0.3359c-0.6943,0-1.2471,0.2197-1.6572,0.6611c-0.4102,0.4395-0.6152,1.0938-0.6152,1.96
			c0,0.9346,0.208,1.6357,0.623,2.1025c0.416,0.4678,0.96,0.7012,1.6328,0.7012c0.334,0,0.667-0.0654,1.002-0.1963
			s0.6221-0.2891,0.8623-0.4756v-0.998H52.5834z"/>
		<path d="M57.5199,65.3312v-7.8096h1.5898v6.4834h3.9531v1.3262H57.5199z"/>
		<path d="M63.8735,61.4425c0-0.8018,0.1191-1.4756,0.3594-2.0195c0.1787-0.4014,0.4238-0.7607,0.7334-1.0801
			c0.3096-0.3184,0.6484-0.5547,1.0176-0.709c0.4902-0.207,1.0566-0.3105,1.6973-0.3105c1.1602,0,2.0889,0.3594,2.7852,1.0791
			s1.0439,1.7207,1.0439,3.0029c0,1.2705-0.3447,2.2656-1.0361,2.9834s-1.6152,1.0771-2.7715,1.0771
			c-1.1709,0-2.1016-0.3574-2.793-1.0723C64.2182,63.6798,63.8735,62.6954,63.8735,61.4425z M65.5112,61.3888
			c0,0.8916,0.2061,1.5674,0.6182,2.0273c0.4111,0.46,0.9336,0.6904,1.5684,0.6904c0.6328,0,1.1533-0.2285,1.5596-0.6846
			c0.4063-0.457,0.6104-1.1416,0.6104-2.0547c0-0.9023-0.1982-1.5752-0.5938-2.0195s-0.9219-0.666-1.5762-0.666
			c-0.6563,0-1.1836,0.2246-1.585,0.6738S65.5112,60.4826,65.5112,61.3888z"/>
		<path d="M72.3491,62.7687l1.5469-0.1504c0.0928,0.5195,0.2822,0.9014,0.5664,1.1445c0.2852,0.2432,0.6689,0.3652,1.1523,0.3652
			c0.5117,0,0.8975-0.1084,1.1572-0.3252s0.3896-0.4697,0.3896-0.7598c0-0.1865-0.0547-0.3447-0.1641-0.4756
			s-0.2998-0.2441-0.5713-0.3408c-0.1865-0.0645-0.6113-0.1787-1.2734-0.3438c-0.8525-0.2109-1.4502-0.4707-1.7939-0.7783
			c-0.4834-0.4336-0.7256-0.9619-0.7256-1.585c0-0.4014,0.1143-0.7764,0.3418-1.125c0.2275-0.3496,0.5547-0.6152,0.9824-0.7979
			s0.9443-0.2734,1.5498-0.2734c0.9883,0,1.7324,0.2158,2.2314,0.6494c0.5,0.4336,0.7617,1.0117,0.7871,1.7354l-1.5898,0.0693
			c-0.0684-0.4043-0.2139-0.6953-0.4375-0.873c-0.2236-0.1768-0.5596-0.2656-1.0078-0.2656c-0.4609,0-0.8232,0.0947-1.084,0.2842
			c-0.1689,0.1221-0.2529,0.2852-0.2529,0.4893c0,0.1865,0.0791,0.3457,0.2363,0.4775c0.2002,0.1689,0.6875,0.3438,1.4609,0.5273
			c0.7734,0.1816,1.3457,0.3711,1.7158,0.5664c0.3711,0.1953,0.6611,0.4619,0.8701,0.7998c0.21,0.3389,0.3145,0.7568,0.3145,1.2549
			c0,0.4512-0.125,0.873-0.376,1.2676c-0.251,0.3936-0.6055,0.6865-1.0635,0.8779s-1.0293,0.2871-1.7139,0.2871
			c-0.9951,0-1.7598-0.2305-2.293-0.6904S72.4526,63.6495,72.3491,62.7687z"/>
		<path d="M87.1889,65.3312h-1.7285l-0.6875-1.7891h-3.1484l-0.6494,1.7891h-1.6865l3.0664-7.874h1.6816L87.1889,65.3312z
			 M84.2621,62.216l-1.085-2.9219l-1.0635,2.9219H84.2621z"/>
		<path d="M88.0385,65.3312v-7.874h3.3467c0.8408,0,1.4521,0.0703,1.834,0.2119c0.3809,0.1416,0.6865,0.3936,0.916,0.7549
			c0.2285,0.3613,0.3438,0.7754,0.3438,1.2412c0,0.5898-0.1738,1.0781-0.5215,1.4629s-0.8662,0.6279-1.5576,0.7285
			c0.3438,0.2002,0.6279,0.4199,0.8516,0.6602s0.5254,0.666,0.9053,1.2783l0.9609,1.5361h-1.9014l-1.1494-1.7129
			c-0.4082-0.6133-0.6875-0.999-0.8379-1.1582s-0.3096-0.2686-0.4785-0.3271c-0.168-0.0596-0.4346-0.0889-0.7998-0.0889h-0.3223
			v3.2871H88.0385z M89.6283,60.7872h1.1768c0.7617,0,1.2383-0.0322,1.4277-0.0967c0.1904-0.0645,0.3389-0.1758,0.4463-0.333
			s0.1611-0.3545,0.1611-0.5908c0-0.2646-0.0703-0.4785-0.2119-0.6416s-0.3408-0.2666-0.5986-0.3096
			c-0.1289-0.0176-0.5156-0.0264-1.1602-0.0264h-1.2412V60.7872z"/>
		<path d="M95.9282,65.3312v-7.874h1.5898v7.874H95.9282z"/>
		<path d="M98.7114,61.4425c0-0.8018,0.1191-1.4756,0.3594-2.0195c0.1787-0.4014,0.4238-0.7607,0.7334-1.0801
			c0.3096-0.3184,0.6484-0.5547,1.0176-0.709c0.4902-0.207,1.0566-0.3105,1.6973-0.3105c1.1602,0,2.0889,0.3594,2.7852,1.0791
			s1.0439,1.7207,1.0439,3.0029c0,1.2705-0.3447,2.2656-1.0361,2.9834s-1.6152,1.0771-2.7715,1.0771
			c-1.1709,0-2.1016-0.3574-2.793-1.0723C99.0561,63.6798,98.7114,62.6954,98.7114,61.4425z M100.3491,61.3888
			c0,0.8916,0.2061,1.5674,0.6182,2.0273c0.4111,0.46,0.9336,0.6904,1.5684,0.6904c0.6328,0,1.1533-0.2285,1.5596-0.6846
			c0.4063-0.457,0.6104-1.1416,0.6104-2.0547c0-0.9023-0.1982-1.5752-0.5938-2.0195s-0.9219-0.666-1.5762-0.666
			c-0.6563,0-1.1836,0.2246-1.585,0.6738S100.3491,60.4826,100.3491,61.3888z"/>
	</g>
	<g id="XMLID_4125_">
		<path id="XMLID_4145_" class="st3" d="M90.7354,39.6927l-3.4169-3.4229c0.7146-1.1294,1.1355-2.4626,1.1355-3.8977
			c0-4.0131-3.2716-7.2846-7.2847-7.2846c-4.0146,0-7.2862,3.2716-7.2862,7.2846c0,4.0205,3.2716,7.2862,7.2862,7.2862
			c1.4276,0,2.7667-0.4209,3.8902-1.1355l3.4229,3.4229c0.31,0.3101,0.7205,0.4688,1.1294,0.4688
			c0.4044,0,0.8134-0.1588,1.1235-0.4688C91.3616,41.3195,91.3616,40.3128,90.7354,39.6927L90.7354,39.6927z M81.1694,37.3813
			c-2.7623,0-5.0092-2.247-5.0092-5.0092c0-2.7607,2.247-5.0077,5.0092-5.0077c2.7608,0,5.0077,2.247,5.0077,5.0077
			C86.1771,35.1343,83.9302,37.3813,81.1694,37.3813L81.1694,37.3813z M81.1694,37.3813"/>
		<path id="XMLID_4142_" class="st3" d="M75.2239,26.4041h-8.6433c-0.2921,0-0.5258,0.2337-0.5258,0.5273v0.5258
			c0,0.2876,0.2337,0.5213,0.5258,0.5213h7.409C74.3401,27.4048,74.749,26.879,75.2239,26.4041L75.2239,26.4041z M75.2239,26.4041"
			/>
		<path id="XMLID_4138_" class="st3" d="M70.2386,11.1907h6.8517c0.8598,0,1.5624-0.7025,1.5624-1.5624v-0.03
			c0-0.8598-0.7026-1.5564-1.5624-1.5564H76.283c-0.433,0-0.7789-0.3505-0.7789-0.7835v-0.03c0-1.0006-0.8134-1.814-1.8186-1.814
			h-0.0419c-1.0006,0-1.8141,0.8134-1.8141,1.814v0.03c0,0.4329-0.3505,0.7835-0.7834,0.7835h-0.8074
			c-0.8598,0-1.5564,0.6966-1.5564,1.5564v0.03C68.6822,10.4882,69.3788,11.1907,70.2386,11.1907L70.2386,11.1907z M73.6675,6.4631
			c0.4329,0,0.7835,0.3565,0.7835,0.7894c0,0.4329-0.3505,0.7894-0.7835,0.7894c-0.4389,0-0.7909-0.3565-0.7909-0.7894
			C72.8766,6.8196,73.2286,6.4631,73.6675,6.4631L73.6675,6.4631z M73.6675,6.4631"/>
		<path id="XMLID_4135_" class="st3" d="M66.5806,31.1257c-0.2921,0-0.5258,0.2412-0.5258,0.5273v0.5273
			c0,0.2861,0.2337,0.5258,0.5258,0.5258h6.1732c-0.0045-0.1109-0.0165-0.2217-0.0165-0.328c0-0.4269,0.0405-0.8419,0.0988-1.2524
			H66.5806z M66.5806,31.1257"/>
		<path id="XMLID_4132_" class="st3" d="M81.2742,23.2569v-0.5273c0-0.2861-0.2337-0.5213-0.5273-0.5213H66.5806
			c-0.2921,0-0.5258,0.2352-0.5258,0.5213v0.5273c0,0.2921,0.2337,0.5258,0.5258,0.5258h14.1664
			C81.0405,23.7827,81.2742,23.549,81.2742,23.2569L81.2742,23.2569z M81.2742,23.2569"/>
		<path id="XMLID_4129_" class="st3" d="M64.4804,35.8489V14.8593h18.3682v9.2515c0.9422,0.1932,1.8246,0.5498,2.6215,1.0231
			V11.6701c0-1.0187-0.8254-1.8425-1.838-1.8425h-3.9547c-0.1184,1.3572-1.2239,2.4102-2.587,2.4102h-6.8517
			c-1.3632,0-2.4702-1.053-2.587-2.3818H63.697c-1.0186,0-1.838,0.8194-1.838,1.838v24.9383c0,1.0186,0.8253,1.844,1.838,1.844
			h11.6677c-0.7789-0.743-1.4171-1.6328-1.8725-2.6274H64.4804z M64.4804,35.8489"/>
		<path id="XMLID_4126_" class="st3" d="M81.2742,18.008c0-0.2876-0.2337-0.5213-0.5273-0.5213H66.5806
			c-0.2921,0-0.5258,0.2336-0.5258,0.5213v0.5258c0,0.2936,0.2337,0.5273,0.5258,0.5273h14.1664
			c0.2936,0,0.5273-0.2337,0.5273-0.5273V18.008z M81.2742,18.008"/>
	</g>
</g>
</svg>
