<?xml version="1.0" encoding="utf-8"?>
<!-- Generator: Adobe Illustrator 21.0.2, SVG Export Plug-In . SVG Version: 6.00 Build 0)  -->
<svg version="1.1" id="Capa_1" xmlns="http://www.w3.org/2000/svg" xmlns:xlink="http://www.w3.org/1999/xlink" x="0px" y="0px"
	 viewBox="0 0 55.4566 55.4566" style="enable-background:new 0 0 55.4566 55.4566;" xml:space="preserve">
<style type="text/css">
	.st0{fill-rule:evenodd;clip-rule:evenodd;fill:#DDDDDD;}
	.st1{fill:#3B86B1;}
	.st2{opacity:0.25;fill-rule:evenodd;clip-rule:evenodd;fill:#020202;}
	.st3{fill:#FFFFFF;}
	.st4{opacity:0.5;}
	.st5{fill-rule:evenodd;clip-rule:evenodd;fill:#A8A8A8;}
	.st6{fill-rule:evenodd;clip-rule:evenodd;fill:#FFFFFF;}
	.st7{fill-rule:evenodd;clip-rule:evenodd;fill:#3B86B1;}
	.st8{opacity:0.5;fill:#2C6882;}
	.st9{opacity:0.75;fill-rule:evenodd;clip-rule:evenodd;fill:#282828;}
	.st10{opacity:0.5;fill:#FFFFFF;}
	.st11{fill-rule:evenodd;clip-rule:evenodd;fill:none;stroke:#FFFFFF;stroke-miterlimit:10;}
	.st12{fill:none;stroke:#FFFFFF;stroke-miterlimit:10;}
	.st13{fill:#FFFFFF;stroke:#3B86B1;stroke-width:1.7139;stroke-miterlimit:10;}
	.st14{fill-rule:evenodd;clip-rule:evenodd;}
	.st15{opacity:0.85;fill:#FFFFFF;}
	.st16{opacity:0.5;fill-rule:evenodd;clip-rule:evenodd;}
	.st17{fill-rule:evenodd;clip-rule:evenodd;fill:#FEFEFE;}
	.st18{fill:#312767;}
	.st19{opacity:0.48;}
	.st20{opacity:0.25;}
	.st21{fill-rule:evenodd;clip-rule:evenodd;fill:#020202;}
	.st22{fill:#757575;}
	.st23{opacity:0.25;clip-path:url(#XMLID_2396_);}
	.st24{fill:#4D4789;}
	.st25{fill:#FFFFFF;stroke:#312767;stroke-miterlimit:10;}
	.st26{fill:#3B86B1;stroke:#3B86B1;stroke-miterlimit:10;}
	.st27{fill:#FFFFFF;stroke:#FFFFFF;stroke-miterlimit:10;}
	.st28{fill:#ACABC9;}
	.st29{fill-rule:evenodd;clip-rule:evenodd;fill:#312767;}
	.st30{opacity:0.77;fill:#312767;}
	.st31{opacity:0.25;clip-path:url(#XMLID_2397_);}
	.st32{fill:#9490B2;stroke:#2D2D2D;stroke-width:0.25;stroke-miterlimit:10;}
	.st33{fill:#312767;stroke:#2D2D2D;stroke-width:0.25;stroke-miterlimit:10;}
	.st34{fill:#FCFCFC;}
	.st35{fill:#FFFFFF;stroke:#2D2D2D;stroke-width:0.25;stroke-miterlimit:10;}
	.st36{fill-rule:evenodd;clip-rule:evenodd;fill:#484849;stroke:#2D2D2D;stroke-width:0.25;stroke-miterlimit:10;}
	.st37{fill-rule:evenodd;clip-rule:evenodd;fill:#312767;stroke:#2D2D2D;stroke-width:0.25;stroke-miterlimit:10;}
	.st38{fill-rule:evenodd;clip-rule:evenodd;fill:#FFFFFF;stroke:#2D2D2D;stroke-width:0.25;stroke-miterlimit:10;}
	.st39{fill:#484849;stroke:#2D2D2D;stroke-width:0.25;stroke-miterlimit:10;}
	.st40{fill:#54518C;}
	.st41{opacity:0.25;fill-rule:evenodd;clip-rule:evenodd;fill:#FFFFFF;}
	.st42{fill:#D4A800;}
	.st43{fill:#00AEB3;}
	.st44{fill:#38353B;}
	.st45{fill:#FF8400;}
	.st46{fill:#BF3900;}
	.st47{fill:#00AA9C;}
	.st48{opacity:0.25;clip-path:url(#XMLID_2400_);}
	.st49{fill:none;stroke:#ACABC9;stroke-width:5;stroke-miterlimit:10;}
	.st50{opacity:0.25;clip-path:url(#XMLID_2403_);}
	.st51{fill:#DDDDDD;}
	.st52{opacity:0.25;fill-rule:evenodd;clip-rule:evenodd;fill:#FFFFFF;stroke:#303030;stroke-width:0.5;stroke-miterlimit:10;}
	.st53{fill:#3B86B1;stroke:#303030;stroke-width:0.5;stroke-miterlimit:10;}
	.st54{fill:#D4A800;stroke:#303030;stroke-width:0.5;stroke-miterlimit:10;}
	.st55{fill:#00AEB3;stroke:#303030;stroke-width:0.5;stroke-miterlimit:10;}
	.st56{fill:#FF8400;stroke:#303030;stroke-width:0.5;stroke-miterlimit:10;}
	.st57{fill:#BF3900;stroke:#303030;stroke-width:0.5;stroke-miterlimit:10;}
	.st58{fill:#00AA9C;stroke:#303030;stroke-width:0.5;stroke-miterlimit:10;}
	.st59{opacity:0.25;clip-path:url(#XMLID_2404_);}
	.st60{fill-rule:evenodd;clip-rule:evenodd;fill:#FFFFFF;stroke:#FFFFFF;stroke-miterlimit:10;}
	.st61{fill:#F79748;}
	.st62{fill:#FF7900;}
	.st63{fill:#DD7105;}
	.st64{fill:#02897C;}
	.st65{fill:#0EAD9A;}
	.st66{fill:#28C6AF;}
	.st67{fill:#4FE0C7;}
	.st68{fill:#00AA9C;stroke:#353535;stroke-width:0.5;stroke-miterlimit:10;}
	.st69{fill:#02897C;stroke:#353535;stroke-width:0.5;stroke-miterlimit:10;}
	.st70{fill:#0EAD9A;stroke:#353535;stroke-width:0.5;stroke-miterlimit:10;}
	.st71{fill:#28C6AF;stroke:#353535;stroke-width:0.5;stroke-miterlimit:10;}
	.st72{fill:#4FE0C7;stroke:#353535;stroke-width:0.5;stroke-miterlimit:10;}
	.st73{fill:#D37D00;}
	.st74{fill:#D14600;}
	.st75{fill:#E5B92E;}
	.st76{fill:#DD571B;}
	.st77{fill:#E28A17;}
	.st78{opacity:0.25;clip-path:url(#XMLID_2410_);}
	.st79{opacity:0.77;fill:#FFFFFF;}
	.st80{fill:#50565B;stroke:#656C70;stroke-miterlimit:10;}
	.st81{fill:#808589;stroke:#656C70;stroke-miterlimit:10;}
	.st82{fill:#252728;stroke:#000000;stroke-miterlimit:10;}
	.st83{fill:#1A1B1C;stroke:#000000;stroke-miterlimit:10;}
	.st84{fill:#A0A6AA;}
	.st85{fill:#262C35;stroke:#161A1E;stroke-miterlimit:10;}
	.st86{fill:#181D23;}
	.st87{fill:#EABA96;stroke:#E0AA86;stroke-miterlimit:10;}
	.st88{fill:#E0AA86;}
	.st89{stroke:#000000;stroke-width:0.75;stroke-linecap:square;stroke-linejoin:bevel;stroke-miterlimit:10;}
	.st90{fill:#0F1C3F;stroke:#182951;stroke-miterlimit:10;}
	.st91{fill:#132354;stroke:#3F6093;stroke-miterlimit:10;}
	.st92{fill:#0F1C3F;}
	.st93{fill:none;stroke:#3F6093;stroke-width:0.75;stroke-miterlimit:10;}
	.st94{fill:#DBA682;}
	.st95{fill:none;stroke:#E0AA86;stroke-miterlimit:10;}
	.st96{fill:none;stroke:#E0AA86;stroke-linejoin:bevel;stroke-miterlimit:10;}
	.st97{fill:#8A0A8E;stroke:#AC34B2;stroke-miterlimit:10;}
	.st98{fill:#810C87;}
	.st99{fill:#680B6D;}
	.st100{fill:#AC34B2;stroke:#AC34B2;stroke-width:0.5;stroke-miterlimit:10;}
	.st101{fill:none;stroke:#959DA0;stroke-width:0.5;stroke-miterlimit:10;}
	.st102{fill:#959DA0;stroke:#959DA0;stroke-width:0.5;stroke-miterlimit:10;}
	.st103{fill:none;stroke:#AC34B2;stroke-miterlimit:10;}
	.st104{fill:#282828;stroke:#000000;stroke-miterlimit:10;}
	.st105{fill:#EABA96;stroke:#E0AA86;stroke-width:0.5;stroke-miterlimit:10;}
	.st106{fill:#B7896A;}
	.st107{stroke:#000000;stroke-miterlimit:10;}
	.st108{fill:#C1A578;}
	.st109{stroke:#000000;stroke-width:0.25;stroke-linecap:round;stroke-linejoin:round;stroke-miterlimit:10;}
	.st110{fill:#FFFFFF;stroke:#000000;stroke-width:0.25;stroke-linecap:round;stroke-linejoin:round;stroke-miterlimit:10;}
	.st111{fill:#70582D;}
	.st112{stroke:#000000;stroke-linecap:round;stroke-linejoin:round;stroke-miterlimit:10;}
	.st113{fill:none;stroke:#D8A27D;stroke-width:0.75;stroke-miterlimit:10;}
	.st114{fill:#561409;}
	.st115{fill:#BA2A13;}
	.st116{fill:#9E3025;stroke:#4C2311;stroke-width:0.25;stroke-miterlimit:10;}
	.st117{fill:#871D08;stroke:#4C2311;stroke-width:0.25;stroke-miterlimit:10;}
	.st118{fill:#DDAC8A;}
	.st119{fill:#A5ABAD;stroke:#959DA0;stroke-width:0.5;stroke-miterlimit:10;}
	.st120{fill:#B1BABC;}
	.st121{fill:none;stroke:#153847;stroke-width:5;stroke-miterlimit:10;}
	.st122{fill:#3CA7AF;}
	.st123{fill:#3DAD8D;}
	.st124{fill:#3DAA61;}
	.st125{fill:#67A53F;}
	.st126{fill:#95A340;}
	.st127{opacity:0.25;clip-path:url(#XMLID_2411_);}
	.st128{opacity:0.25;clip-path:url(#XMLID_2416_);}
	.st129{fill:#F79748;stroke:#303030;stroke-width:0.5;stroke-miterlimit:10;}
	.st130{fill:#FF7900;stroke:#303030;stroke-width:0.5;stroke-miterlimit:10;}
	.st131{fill:#DD7105;stroke:#303030;stroke-width:0.5;stroke-miterlimit:10;}
	.st132{opacity:0.25;clip-path:url(#XMLID_2422_);}
	.st133{clip-path:url(#SVGID_2_);}
	.st134{fill:none;stroke:#3F6093;stroke-miterlimit:10;}
	.st135{fill:none;stroke:#3F6093;stroke-width:0.75;stroke-linecap:round;stroke-linejoin:round;}
	.st136{fill:none;stroke:#3F6093;stroke-width:0.75;stroke-linecap:round;stroke-linejoin:round;stroke-dasharray:0.9892,0.9892;}
	
		.st137{fill:none;stroke:#3F6093;stroke-width:0.75;stroke-linecap:round;stroke-linejoin:round;stroke-miterlimit:10;stroke-dasharray:1;}
	.st138{fill:#EAEAEA;stroke:#FFFFFF;stroke-width:0.25;stroke-miterlimit:10;}
	.st139{fill:#D8D8D8;}
	.st140{fill:#282828;stroke:#000000;stroke-width:0.75;stroke-miterlimit:10;}
	.st141{opacity:0.33;fill:#FFFFFF;}
	.st142{fill:none;stroke:#000000;stroke-width:1.5;stroke-linecap:round;stroke-linejoin:round;stroke-miterlimit:10;}
	.st143{clip-path:url(#SVGID_4_);}
	.st144{opacity:0.64;}
	.st145{fill:#1D1D1B;}
	.st146{fill:#C9C9C9;}
	.st147{fill:#545477;}
</style>
<g>
	<circle id="XMLID_1761_" class="st52" cx="27.7283" cy="27.7283" r="27.4783"/>
	<g>
		<path class="st55" d="M45.8968,15.8543c-0.3594-0.3597-0.9422-0.3589-1.3014,0c-0.1067,0.1078-0.277,0.0248-0.4545-0.1519
			c-1.0559-1.0486-4.5527-4.5249-4.6796-4.6817c-0.1495-0.1843-0.1215-0.3209-0.0711-0.3713
			c0.3592-0.3594,0.36-0.9419,0.0011-1.3008c-0.3597-0.36-0.9425-0.3589-1.3016,0c-2.7305,2.7482-3.4434,6.3237-3.8381,9.8118
			c-0.0143,0.1247-0.0625,0.1794-0.173,0.1897c-4.0157,0.3993-8.2552,0.6725-11.2786,3.6616
			c-2.9888,3.0236-3.2613,7.2624-3.6606,11.2775c-0.0084,0.0894-0.1072,0.1644-0.2252,0.1783
			c-3.4765,0.395-7.0366,1.1114-9.7773,3.8338c-0.3589,0.3592-0.3594,0.9417,0,1.3014c0.3586,0.3589,0.9422,0.3589,1.3014,0
			c0.0851-0.0859,0.1724-0.1692,0.2605-0.2497c0.1334-0.1226,0.2201-0.1428,0.4098,0.0463
			c0.9532,0.9517,4.7135,4.7065,4.8008,4.8011c0.0997,0.1075,0.0526,0.2697,0.0011,0.3268
			c-0.0862,0.0948-0.1754,0.1886-0.2678,0.2797c-0.3586,0.3594-0.3594,0.942,0,1.3017c0.3589,0.3589,0.9422,0.3589,1.3013,0
			c2.7256-2.7445,3.4407-6.3104,3.8357-9.7926c0.0164-0.1423,0.042-0.1978,0.1759-0.2107
			c4.0154-0.3985,8.2536-0.6714,11.2772-3.6606c2.9891-3.0236,3.2634-7.2624,3.6616-11.278c0.01-0.1105,0.0633-0.1587,0.1916-0.1733
			c3.487-0.395,7.0622-1.1076,9.8107-3.8376C46.256,16.7968,46.256,16.2132,45.8968,15.8543z M17.8963,41.1614
			c-0.1827,0.5009-0.3939,0.9851-0.641,1.4485c-0.0323,0.062-0.1633,0.1207-0.2767,0.0075
			c-0.8137-0.8148-4.1711-4.1736-4.3228-4.3223c-0.1722-0.1697-0.0515-0.2894,0.0256-0.3301
			c0.4637-0.2438,0.9479-0.4535,1.4496-0.6332c0.0779-0.028,0.2791-0.0447,0.3869,0.0693c0.0914,0.097,2.5548,2.5561,3.2788,3.2796
			C17.9922,40.876,17.9722,40.9531,17.8963,41.1614z M18.9072,36.4985c-0.0841,0.6865-0.183,1.3612-0.3072,2.0181
			c-0.0167,0.0878-0.0768,0.2506-0.2048,0.1099c-0.1021-0.1126-1.2922-1.2971-1.7513-1.753
			c-0.1105-0.1099,0.0089-0.215,0.1029-0.2325c0.6467-0.1215,1.3105-0.2185,1.9852-0.3015
			C18.8379,36.3266,18.9223,36.3737,18.9072,36.4985z M21.8443,34.1738c-0.2123,0.0205-0.4249,0.0409-0.6397,0.0606
			c-0.1681,0.0159-0.2031-0.0919-0.1916-0.2164c0.0191-0.2091,0.0393-0.4171,0.0593-0.624
			c0.0073-0.0773,0.0552-0.2042,0.2043-0.0509c0.0946,0.0981,0.3974,0.3996,0.6041,0.6054
			C21.9971,34.0647,21.9243,34.1657,21.8443,34.1738z M26.5171,33.4539c-0.5979,0.152-1.2203,0.2759-1.8648,0.378
			c-0.0676,0.0105-0.2174,0.0094-0.3575-0.1226c-0.1169-0.111-2.1059-2.1046-2.7283-2.7288
			c-0.1873-0.187-0.1673-0.3061-0.1391-0.4802c0.0962-0.5884,0.2096-1.1583,0.3479-1.7077c0.0515-0.2069,0.173-0.1681,0.2934-0.0657
			c0,0,4.3514,4.3641,4.4743,4.4748C26.6656,33.3124,26.5912,33.435,26.5171,33.4539z M30.2049,31.7809
			c-0.398,0.3064-0.8266,0.5707-1.2812,0.8002c-0.1708,0.0865-0.2765,0.072-0.4263-0.0779
			c-1.0155-1.0152-5.7012-5.7002-5.7958-5.7956c-0.1059-0.1072-0.09-0.2807-0.0587-0.3446c0.2336-0.4685,0.5031-0.9101,0.8172-1.32
			c0.0528-0.0684,0.2406-0.0905,0.291-0.0401c0,0,6.3037,6.2951,6.4234,6.4231C30.2938,31.5538,30.2658,31.7343,30.2049,31.7809z
			 M32.5479,28.7692c-0.2045,0.4518-0.44,0.8797-0.7124,1.2812c-0.052,0.076-0.2271,0.1579-0.3937-0.0097
			c-0.1668-0.1676-6.3643-6.3641-6.3643-6.3641c-0.0576-0.0577-0.0393-0.159,0.0536-0.2228
			c0.4198-0.2913,0.8684-0.5413,1.3439-0.7563c0.0876-0.0396,0.2651-0.1032,0.4914,0.1115c0.1983,0.1883,4.4249,4.422,5.4663,5.4652
			C32.5789,28.4211,32.5872,28.6819,32.5479,28.7692z M33.6936,24.3706c-0.0924,0.6518-0.2029,1.2841-0.34,1.8928
			c-0.0162,0.076-0.0873,0.1878-0.2198,0.0601c-0.1312-0.1277-4.0642-4.062-4.2062-4.207
			c-0.1423-0.1452-0.0207-0.2091,0.0561-0.2263c0.5755-0.1291,1.1726-0.2344,1.7872-0.3239
			c0.1045-0.0156,0.2694-0.0927,0.4699,0.1083c0.1679,0.1676,1.7823,1.7823,2.3142,2.3142
			C33.6604,24.0945,33.7038,24.2995,33.6936,24.3706z M33.9905,21.7711l-0.516-0.516c0.1883-0.018,0.3783-0.0353,0.5682-0.0531
			C34.0252,21.3923,34.0077,21.5828,33.9905,21.7711z M38.8425,18.7012c-0.6453,0.1382-1.3132,0.2441-1.9911,0.3363
			c-0.6862,0.094-0.7342,0.0102-0.644-0.6434c0.0911-0.6717,0.1959-1.3326,0.3319-1.972c0.014-0.0674,0.1115-0.1512,0.2182-0.0447
			c0.5243,0.5208,2.0706,2.0582,2.1288,2.1299C38.9565,18.5934,38.9079,18.6872,38.8425,18.7012z M42.603,17.3589
			c-0.3767,0.2107-0.7676,0.3974-1.171,0.5631c-0.1134,0.0464-0.36,0.0824-0.5728-0.0967c-0.1735-0.1458-2.502-2.4917-3.3574-3.3553
			c-0.1948-0.1956-0.2185-0.5607-0.1684-0.6817c0.1684-0.4077,0.3584-0.8024,0.5731-1.1823
			c0.059-0.1032,0.2826-0.2056,0.4545-0.0342c0.9514,0.9468,4.068,4.052,4.277,4.2781
			C42.8835,17.1166,42.718,17.2939,42.603,17.3589z"/>
		<g>
			<path class="st44" d="M19.0115,35.5926c0.0154-0.1466,0.0307-0.2934,0.045-0.4405c0.0172-0.1738-0.1202-0.1706-0.1918-0.1625
				c-3.4019,0.3918-6.7634,1.0907-9.3634,3.6746c-0.1593,0.1592-0.1593,0.416,0,0.575c0.1579,0.1584,0.4144,0.1584,0.5723,0.0008
				c2.2245-2.2436,5.2575-2.9983,8.7295-3.4226C18.9519,35.799,18.9996,35.6996,19.0115,35.5926z"/>
			<path class="st44" d="M39.0281,9.7123c-0.1592-0.1589-0.416-0.1589-0.5731-0.0016c-3.0761,3.095-3.4841,7.2653-3.8804,11.3282
				c-0.36,3.9127-0.7321,7.958-3.2761,10.4651c-2.3754,2.4106-6.1245,2.8746-9.8592,3.2249
				c-0.0269,0.2727-0.0547,0.5464-0.0827,0.8213l0.1444-0.0143c3.75-0.3656,7.6264-0.7428,10.366-3.4528
				c2.7151-2.745,3.0921-6.6233,3.4582-10.3738l0.0579-0.5901c0.4058-4.3511,0.9584-8.1698,3.6436-10.8337
				C39.1852,10.1267,39.1852,9.8696,39.0281,9.7123z"/>
		</g>
		<path class="st44" d="M19.3491,37.0487c-0.4405,3.2192-1.2324,6.0286-3.3421,8.1216c-0.159,0.1593-0.159,0.4158-0.0006,0.5747
			c0.159,0.1585,0.4155,0.1585,0.5731,0.0011c2.4368-2.4532,3.1966-5.5811,3.6061-8.7949l0.2842-2.6467
			c0.3578-3.8772,0.7469-7.8691,3.2653-10.352c2.4562-2.4917,6.3738-2.904,10.2264-3.2596c0.0442-0.0041,0.142-0.1135,0.1466-0.1638
			c0.0172-0.1741,0.0348-0.3487,0.0533-0.5232c0.0113-0.1156-0.048-0.1614-0.1218-0.1366l-0.5106,0.0509
			c-3.7476,0.3659-7.6245,0.7436-10.3628,3.4528c-2.7132,2.7431-3.0902,6.6176-3.4566,10.3652L19.3491,37.0487z"/>
		<g>
			<path class="st43" d="M32.9876,27.6906c0.0347-0.1153,0.0698-0.2314,0.1037-0.3492c0.0491-0.1716,0.0361-0.2985-0.1654-0.5006
				c-0.8436-0.846-3.6433-3.6525-3.8187-3.8179c-0.2072-0.1953-0.4066-0.1811-0.4939-0.1552
				c-0.1215,0.0353-0.2414,0.0722-0.3597,0.1107c-0.0984,0.0321-0.2449,0.1582-0.0493,0.3424
				c0.1652,0.1555,3.4006,3.397,4.3948,4.3934C32.7804,27.8965,32.9542,27.7963,32.9876,27.6906z"/>
			<path class="st43" d="M33.9077,23.398c0.0321-0.212,0.0633-0.4249,0.0938-0.638c0.01-0.0736-0.0076-0.2573-0.0949-0.3465
				c-0.0873-0.0889-0.301-0.3007-0.301-0.3007c-0.0884-0.0824-0.1288-0.0894-0.2667-0.0752
				c-0.2428,0.0253-0.4831,0.052-0.7215,0.0797c-0.1221,0.0143-0.1008,0.0967-0.0507,0.1582c0,0,1.0977,1.1015,1.1715,1.1715
				C33.8118,23.5171,33.8983,23.461,33.9077,23.398z"/>
			<path class="st43" d="M31.1668,31.1685c0.0434-0.045,0.0851-0.0916,0.1269-0.139c0.2005-0.2304,0.0698-0.3223-0.0587-0.4685
				c0,0-5.5851-5.6029-5.7651-5.7654c-0.1805-0.1622-0.2972-0.1336-0.3411-0.0949c-0.1115,0.1-0.2209,0.2037-0.3279,0.3117
				c-0.0533,0.0523-0.121,0.1765,0.056,0.3697c0.1773,0.1932,5.802,5.8018,5.802,5.8018
				C30.7651,31.286,30.986,31.3587,31.1668,31.1685z"/>
			<path class="st43" d="M23.1376,34.1544c0.1565-0.017,0.3177-0.0356,0.4831-0.0571c0.0973-0.0124,0.1673-0.17-0.0205-0.3583
				c-0.4182-0.4209-1.1249-1.1295-1.3183-1.3173c-0.2799-0.2719-0.3171-0.0822-0.3301,0.0221
				c-0.0183,0.1495-0.0361,0.2999-0.0533,0.4513c-0.0119,0.1029-0.0202,0.2808,0.1501,0.4941
				c0.1121,0.1407,0.4246,0.444,0.6227,0.6326C22.776,34.1215,22.9811,34.1714,23.1376,34.1544z"/>
			<path class="st43" d="M27.6021,33.2292c0.1288-0.0431,0.2562-0.0878,0.3826-0.1342c0.0921-0.0339,0.2384-0.1401,0.0078-0.371
				c-0.2304-0.2309-4.6938-4.6938-4.6938-4.6938c-0.1191-0.1293-0.3139-0.1646-0.3737-0.007
				c-0.0477,0.1283-0.0938,0.2587-0.138,0.3902c-0.0259,0.0765-0.0267,0.2538,0.1188,0.4252
				c0.1234,0.1447,3.2357,3.2418,4.1905,4.1913C27.2702,33.2022,27.5256,33.2547,27.6021,33.2292z"/>
		</g>
		<g>
			<path class="st43" d="M44.0259,16.3113l-4.3465-4.3463c-0.187,0.219-0.357,0.4475-0.5197,0.6803l4.1838,4.1833
				C43.5689,16.6712,43.7961,16.4985,44.0259,16.3113z"/>
			<path class="st43" d="M40.5205,18.213l-2.7402-2.7402c-0.1,0.3047-0.1875,0.617-0.2697,0.9331l2.0781,2.0779
				C39.9073,18.3999,40.2174,18.3113,40.5205,18.213z"/>
		</g>
		<g>
			<path class="st43" d="M18.2271,40.0106c0.0393-0.1347,0.0781-0.2697,0.1159-0.4071c0.0213-0.0795,0.0701-0.2172-0.124-0.4281
				c-0.1447-0.1571-0.9471-0.953-1.345-1.3475c-0.1657-0.1644-0.2856-0.2077-0.4346-0.1711
				c-0.1765,0.0436-0.3513,0.0903-0.5251,0.1393c-0.1587,0.0453-0.1325,0.1417-0.0205,0.2527
				c0.5125,0.506,1.8785,1.8586,2.0278,2.0294C18.1064,40.2894,18.1986,40.1068,18.2271,40.0106z"/>
			<path class="st43" d="M16.5399,43.7641c0.0668-0.097,0.1331-0.1962,0.1967-0.2978c0.0472-0.0741,0.069-0.2961-0.0523-0.4179
				c-0.759-0.7614-3.5261-3.5372-3.6853-3.6848c-0.184-0.1708-0.3406-0.1479-0.398-0.1094
				c-0.1107,0.0749-0.2196,0.152-0.3268,0.2317c-0.0674,0.0496-0.166,0.1711-0.0113,0.34c0.1339,0.1466,3.1464,3.15,3.9451,3.9451
				C16.3298,43.8934,16.4938,43.8314,16.5399,43.7641z"/>
		</g>
		<g>
			<path class="st44" d="M45.5334,16.2175c-0.1579-0.1585-0.4152-0.1585-0.5728-0.0006c-2.0132,2.0294-4.6868,2.8396-7.7476,3.2893
				c-0.3136,0.0458-0.381,0.0986-0.4076,0.3222c-0.0097,0.079-0.0186,0.1579-0.0272,0.2368
				c-0.0261,0.222,0.0752,0.3177,0.3392,0.2821c3.0727-0.4195,6.0569-1.2119,8.4161-3.5549
				C45.6923,16.6335,45.6923,16.3765,45.5334,16.2175z"/>
		</g>
	</g>
</g>
</svg>
