<?xml version="1.0" encoding="utf-8"?>
<!-- Generator: Adobe Illustrator 21.0.2, SVG Export Plug-In . SVG Version: 6.00 Build 0)  -->
<svg version="1.1" id="Capa_1" xmlns="http://www.w3.org/2000/svg" xmlns:xlink="http://www.w3.org/1999/xlink" x="0px" y="0px"
	 viewBox="0 0 55.4712 55.4712" style="enable-background:new 0 0 55.4712 55.4712;" xml:space="preserve">
<style type="text/css">
	.st0{fill-rule:evenodd;clip-rule:evenodd;fill:#DDDDDD;}
	.st1{fill:#3B86B1;}
	.st2{opacity:0.25;fill-rule:evenodd;clip-rule:evenodd;fill:#020202;}
	.st3{fill:#FFFFFF;}
	.st4{opacity:0.5;}
	.st5{fill-rule:evenodd;clip-rule:evenodd;fill:#A8A8A8;}
	.st6{fill-rule:evenodd;clip-rule:evenodd;fill:#FFFFFF;}
	.st7{fill-rule:evenodd;clip-rule:evenodd;fill:#3B86B1;}
	.st8{opacity:0.5;fill:#2C6882;}
	.st9{opacity:0.75;fill-rule:evenodd;clip-rule:evenodd;fill:#282828;}
	.st10{opacity:0.5;fill:#FFFFFF;}
	.st11{fill-rule:evenodd;clip-rule:evenodd;fill:none;stroke:#FFFFFF;stroke-miterlimit:10;}
	.st12{fill:none;stroke:#FFFFFF;stroke-miterlimit:10;}
	.st13{fill:#FFFFFF;stroke:#3B86B1;stroke-width:1.7139;stroke-miterlimit:10;}
	.st14{fill-rule:evenodd;clip-rule:evenodd;}
	.st15{opacity:0.85;fill:#FFFFFF;}
	.st16{opacity:0.5;fill-rule:evenodd;clip-rule:evenodd;}
	.st17{fill-rule:evenodd;clip-rule:evenodd;fill:#FEFEFE;}
	.st18{fill:#312767;}
	.st19{opacity:0.48;}
	.st20{opacity:0.25;}
	.st21{fill-rule:evenodd;clip-rule:evenodd;fill:#020202;}
	.st22{fill:#757575;}
	.st23{opacity:0.25;clip-path:url(#XMLID_2396_);}
	.st24{fill:#4D4789;}
	.st25{fill:#FFFFFF;stroke:#312767;stroke-miterlimit:10;}
	.st26{fill:#3B86B1;stroke:#3B86B1;stroke-miterlimit:10;}
	.st27{fill:#FFFFFF;stroke:#FFFFFF;stroke-miterlimit:10;}
	.st28{fill:#ACABC9;}
	.st29{fill-rule:evenodd;clip-rule:evenodd;fill:#312767;}
	.st30{opacity:0.77;fill:#312767;}
	.st31{opacity:0.25;clip-path:url(#XMLID_2397_);}
	.st32{fill:#9490B2;stroke:#2D2D2D;stroke-width:0.25;stroke-miterlimit:10;}
	.st33{fill:#312767;stroke:#2D2D2D;stroke-width:0.25;stroke-miterlimit:10;}
	.st34{fill:#FCFCFC;}
	.st35{fill:#FFFFFF;stroke:#2D2D2D;stroke-width:0.25;stroke-miterlimit:10;}
	.st36{fill-rule:evenodd;clip-rule:evenodd;fill:#484849;stroke:#2D2D2D;stroke-width:0.25;stroke-miterlimit:10;}
	.st37{fill-rule:evenodd;clip-rule:evenodd;fill:#312767;stroke:#2D2D2D;stroke-width:0.25;stroke-miterlimit:10;}
	.st38{fill-rule:evenodd;clip-rule:evenodd;fill:#FFFFFF;stroke:#2D2D2D;stroke-width:0.25;stroke-miterlimit:10;}
	.st39{fill:#484849;stroke:#2D2D2D;stroke-width:0.25;stroke-miterlimit:10;}
	.st40{fill:#54518C;}
	.st41{opacity:0.25;fill-rule:evenodd;clip-rule:evenodd;fill:#FFFFFF;}
	.st42{fill:#D4A800;}
	.st43{fill:#00AEB3;}
	.st44{fill:#38353B;}
	.st45{fill:#FF8400;}
	.st46{fill:#BF3900;}
	.st47{fill:#00AA9C;}
	.st48{opacity:0.25;clip-path:url(#XMLID_2400_);}
	.st49{fill:none;stroke:#ACABC9;stroke-width:5;stroke-miterlimit:10;}
	.st50{opacity:0.25;clip-path:url(#XMLID_2403_);}
	.st51{fill:#DDDDDD;}
	.st52{opacity:0.25;fill-rule:evenodd;clip-rule:evenodd;fill:#FFFFFF;stroke:#303030;stroke-width:0.5;stroke-miterlimit:10;}
	.st53{fill:#3B86B1;stroke:#303030;stroke-width:0.5;stroke-miterlimit:10;}
	.st54{fill:#D4A800;stroke:#303030;stroke-width:0.5;stroke-miterlimit:10;}
	.st55{fill:#00AEB3;stroke:#303030;stroke-width:0.5;stroke-miterlimit:10;}
	.st56{fill:#FF8400;stroke:#303030;stroke-width:0.5;stroke-miterlimit:10;}
	.st57{fill:#BF3900;stroke:#303030;stroke-width:0.5;stroke-miterlimit:10;}
	.st58{fill:#00AA9C;stroke:#303030;stroke-width:0.5;stroke-miterlimit:10;}
	.st59{opacity:0.25;clip-path:url(#XMLID_2404_);}
	.st60{fill-rule:evenodd;clip-rule:evenodd;fill:#FFFFFF;stroke:#FFFFFF;stroke-miterlimit:10;}
	.st61{fill:#F79748;}
	.st62{fill:#FF7900;}
	.st63{fill:#DD7105;}
	.st64{fill:#02897C;}
	.st65{fill:#0EAD9A;}
	.st66{fill:#28C6AF;}
	.st67{fill:#4FE0C7;}
	.st68{fill:#00AA9C;stroke:#353535;stroke-width:0.5;stroke-miterlimit:10;}
	.st69{fill:#02897C;stroke:#353535;stroke-width:0.5;stroke-miterlimit:10;}
	.st70{fill:#0EAD9A;stroke:#353535;stroke-width:0.5;stroke-miterlimit:10;}
	.st71{fill:#28C6AF;stroke:#353535;stroke-width:0.5;stroke-miterlimit:10;}
	.st72{fill:#4FE0C7;stroke:#353535;stroke-width:0.5;stroke-miterlimit:10;}
	.st73{fill:#D37D00;}
	.st74{fill:#D14600;}
	.st75{fill:#E5B92E;}
	.st76{fill:#DD571B;}
	.st77{fill:#E28A17;}
	.st78{opacity:0.25;clip-path:url(#XMLID_2410_);}
	.st79{opacity:0.77;fill:#FFFFFF;}
	.st80{fill:#50565B;stroke:#656C70;stroke-miterlimit:10;}
	.st81{fill:#808589;stroke:#656C70;stroke-miterlimit:10;}
	.st82{fill:#252728;stroke:#000000;stroke-miterlimit:10;}
	.st83{fill:#1A1B1C;stroke:#000000;stroke-miterlimit:10;}
	.st84{fill:#A0A6AA;}
	.st85{fill:#262C35;stroke:#161A1E;stroke-miterlimit:10;}
	.st86{fill:#181D23;}
	.st87{fill:#EABA96;stroke:#E0AA86;stroke-miterlimit:10;}
	.st88{fill:#E0AA86;}
	.st89{stroke:#000000;stroke-width:0.75;stroke-linecap:square;stroke-linejoin:bevel;stroke-miterlimit:10;}
	.st90{fill:#0F1C3F;stroke:#182951;stroke-miterlimit:10;}
	.st91{fill:#132354;stroke:#3F6093;stroke-miterlimit:10;}
	.st92{fill:#0F1C3F;}
	.st93{fill:none;stroke:#3F6093;stroke-width:0.75;stroke-miterlimit:10;}
	.st94{fill:#DBA682;}
	.st95{fill:none;stroke:#E0AA86;stroke-miterlimit:10;}
	.st96{fill:none;stroke:#E0AA86;stroke-linejoin:bevel;stroke-miterlimit:10;}
	.st97{fill:#8A0A8E;stroke:#AC34B2;stroke-miterlimit:10;}
	.st98{fill:#810C87;}
	.st99{fill:#680B6D;}
	.st100{fill:#AC34B2;stroke:#AC34B2;stroke-width:0.5;stroke-miterlimit:10;}
	.st101{fill:none;stroke:#959DA0;stroke-width:0.5;stroke-miterlimit:10;}
	.st102{fill:#959DA0;stroke:#959DA0;stroke-width:0.5;stroke-miterlimit:10;}
	.st103{fill:none;stroke:#AC34B2;stroke-miterlimit:10;}
	.st104{fill:#282828;stroke:#000000;stroke-miterlimit:10;}
	.st105{fill:#EABA96;stroke:#E0AA86;stroke-width:0.5;stroke-miterlimit:10;}
	.st106{fill:#B7896A;}
	.st107{stroke:#000000;stroke-miterlimit:10;}
	.st108{fill:#C1A578;}
	.st109{stroke:#000000;stroke-width:0.25;stroke-linecap:round;stroke-linejoin:round;stroke-miterlimit:10;}
	.st110{fill:#FFFFFF;stroke:#000000;stroke-width:0.25;stroke-linecap:round;stroke-linejoin:round;stroke-miterlimit:10;}
	.st111{fill:#70582D;}
	.st112{stroke:#000000;stroke-linecap:round;stroke-linejoin:round;stroke-miterlimit:10;}
	.st113{fill:none;stroke:#D8A27D;stroke-width:0.75;stroke-miterlimit:10;}
	.st114{fill:#561409;}
	.st115{fill:#BA2A13;}
	.st116{fill:#9E3025;stroke:#4C2311;stroke-width:0.25;stroke-miterlimit:10;}
	.st117{fill:#871D08;stroke:#4C2311;stroke-width:0.25;stroke-miterlimit:10;}
	.st118{fill:#DDAC8A;}
	.st119{fill:#A5ABAD;stroke:#959DA0;stroke-width:0.5;stroke-miterlimit:10;}
	.st120{fill:#B1BABC;}
	.st121{fill:none;stroke:#153847;stroke-width:5;stroke-miterlimit:10;}
	.st122{fill:#3CA7AF;}
	.st123{fill:#3DAD8D;}
	.st124{fill:#3DAA61;}
	.st125{fill:#67A53F;}
	.st126{fill:#95A340;}
	.st127{opacity:0.25;clip-path:url(#XMLID_2411_);}
	.st128{opacity:0.25;clip-path:url(#XMLID_2416_);}
	.st129{fill:#F79748;stroke:#303030;stroke-width:0.5;stroke-miterlimit:10;}
	.st130{fill:#FF7900;stroke:#303030;stroke-width:0.5;stroke-miterlimit:10;}
	.st131{fill:#DD7105;stroke:#303030;stroke-width:0.5;stroke-miterlimit:10;}
	.st132{opacity:0.25;clip-path:url(#XMLID_2422_);}
	.st133{clip-path:url(#SVGID_2_);}
	.st134{fill:none;stroke:#3F6093;stroke-miterlimit:10;}
	.st135{fill:none;stroke:#3F6093;stroke-width:0.75;stroke-linecap:round;stroke-linejoin:round;}
	.st136{fill:none;stroke:#3F6093;stroke-width:0.75;stroke-linecap:round;stroke-linejoin:round;stroke-dasharray:0.9892,0.9892;}
	
		.st137{fill:none;stroke:#3F6093;stroke-width:0.75;stroke-linecap:round;stroke-linejoin:round;stroke-miterlimit:10;stroke-dasharray:1;}
	.st138{fill:#EAEAEA;stroke:#FFFFFF;stroke-width:0.25;stroke-miterlimit:10;}
	.st139{fill:#D8D8D8;}
	.st140{fill:#282828;stroke:#000000;stroke-width:0.75;stroke-miterlimit:10;}
	.st141{opacity:0.33;fill:#FFFFFF;}
	.st142{fill:none;stroke:#000000;stroke-width:1.5;stroke-linecap:round;stroke-linejoin:round;stroke-miterlimit:10;}
	.st143{clip-path:url(#SVGID_4_);}
	.st144{opacity:0.64;}
	.st145{fill:#1D1D1B;}
	.st146{fill:#C9C9C9;}
	.st147{fill:#545477;}
</style>
<g>
	<circle id="XMLID_1755_" class="st52" cx="27.7356" cy="27.7356" r="27.4856"/>
	<g>
		<path class="st58" d="M27.2721,46.0174c0.0683,0.0023,0.1354,0,0.2036,0.0023c0.0683-0.0023,0.1354,0,0.2037-0.0023
			c0.0683,0,0.1372,0.0023,0.2053,0v-0.0045c2.9111-0.0564,5.8367-0.65,5.5501-3.0008c-1.4721-0.4153-2.3106,1.0777-3.0888,0.3566
			c-0.2872-1.6352,0.7696-1.7244,0.6173-3.2118c-0.8199-0.2799-1.9241-0.3983-3.0786-0.4175v-0.0034
			c-0.1376-0.0035-0.2725,0.0034-0.4097,0.001c-0.1359,0.0023-0.2708-0.0045-0.4079-0.001v0.0034
			c-1.1572,0.018-2.2604,0.1376-3.0797,0.4175c-0.1546,1.4874,0.9033,1.5766,0.6139,3.2118
			c-0.7792,0.7211-1.6143-0.7719-3.0853-0.3566c-0.2877,2.3507,2.6373,2.9444,5.5512,3.0008v0.0045
			C27.1349,46.0197,27.2038,46.0174,27.2721,46.0174z"/>
		<path class="st58" d="M27.4757,16.3633c2.441,0.2426,4.5987,0.2844,5.3402-1.5404c-0.0564-1.3599-2.2784-0.2212-2.7778-1.0722
			c-0.154-1.1206,0.6727-1.3937,0-2.1396c-0.6117-0.1953-1.3734-0.3499-2.1532-0.4198v-0.0407
			c-0.1353,0.0012-0.2725,0.0136-0.4091,0.0192c-0.1359-0.0055-0.2731-0.018-0.4085-0.0192v0.0407
			c-0.781,0.0689-1.5438,0.2245-2.1554,0.4198c-0.6737,0.7459,0.1562,1.019,0,2.1396c-0.4993,0.851-2.7187-0.2877-2.7778,1.0722
			C22.8765,16.6477,25.0337,16.6059,27.4757,16.3633z"/>
		<path class="st58" d="M25.2232,21.5996c0.558,0.009,1.1934,0.0237,1.844,0.0362v0.0135c0.1388-0.0012,0.2709-0.0045,0.4079-0.0068
			c0.1383,0.0023,0.2703,0.0057,0.4097,0.0068v-0.0135c0.649-0.0125,1.2832-0.0272,1.8418-0.0362
			c1.3977-0.0169,3.358-0.0147,3.4019-1.4242c-0.2392-0.0791-0.3594-0.3002-0.3126-0.7166c-0.8204,0-1.6442,0-2.4698,0
			c-0.0987-0.8238,0.0491-1.3678,0.3087-1.7819c-0.8814-0.3351-2.0008-0.3961-3.1791-0.386
			c-1.1793-0.0102-2.2993,0.0508-3.1818,0.386c0.2619,0.4142,0.4102,0.9581,0.3075,1.7819c-0.8209,0-1.6471,0-2.4674,0
			c0.048,0.4164-0.0689,0.6375-0.311,0.7166C21.8642,21.5849,23.8221,21.5827,25.2232,21.5996z"/>
		<path class="st58" d="M22.1339,26.9544c1.2729,0.1478,3.2586,0.1354,5.3418,0.0948c2.0804,0.0407,4.0673,0.053,5.3402-0.0948
			c-0.1258-0.8599,0.5666-0.7753,0.3126-1.7841c-1.2735-0.2787-1.5878,0.5496-2.7823,0.3566
			c-0.5213-1.1884,0.1959-1.22,0.3087-2.4975c-0.6946-0.2809-1.7103-0.5473-2.77-0.6771v-0.0767
			c-0.1365,0.0057-0.2725,0.027-0.4097,0.0384c-0.1359-0.0113-0.2713-0.0327-0.4079-0.0384v0.0767
			c-1.0613,0.1298-2.0775,0.3961-2.7733,0.6771c0.1135,1.2775,0.8301,1.3091,0.3075,2.4975
			c-1.1922,0.193-1.5066-0.6354-2.7784-0.3566C21.5673,26.1791,22.2586,26.0945,22.1339,26.9544z"/>
		<path class="st58" d="M27.4757,33.0879c2.432,0.0859,4.8097-0.0609,5.9592-1.4964c-0.7369-1.0078-1.137-0.351-2.4715-0.3566
			c-0.6285-1.0032-0.5541-1.4625-0.3087-2.8528c-0.7025-0.211-1.7131-0.3521-2.77-0.403v-0.0247
			c-0.1371,0-0.2725,0.009-0.4097,0.0112c-0.1359-0.0022-0.2713-0.0112-0.4079-0.0112v0.0247
			c-1.0591,0.0508-2.0703,0.1919-2.7733,0.403c0.2455,1.3903,0.3211,1.8497-0.3064,2.8528
			c-1.3373,0.0057-1.7357-0.6512-2.4715,0.3566C22.6643,33.027,25.0437,33.1738,27.4757,33.0879z"/>
		<path class="st58" d="M27.0672,38.7204v0.0959c0.1337-0.0158,0.2732-0.0317,0.4085-0.0475
			c0.1354,0.0158,0.2748,0.0317,0.4091,0.0475v-0.0959c1.6477-0.1953,3.3675-0.3397,4.9311,0.0124
			c0.18-0.7482,0.768-1.019,0.6191-2.1407c-0.8684-0.9017-1.7763,0.3171-2.7801,0.3566c-0.228-1.308,0.76-1.9839,0-2.8575
			c-0.861,0.0734-1.8135,0.0395-2.77,0.0023v-0.0317c-0.1359,0.0045-0.2731,0.009-0.4097,0.0147
			c-0.1353-0.0057-0.2719-0.0102-0.4079-0.0147v0.0305c-0.9587,0.0384-1.9123,0.0722-2.7733-0.0012
			c-0.76,0.8735,0.2302,1.5494,0,2.8575c-1.0038-0.0395-1.9117-1.2583-2.7778-0.3566c-0.149,1.1217,0.4367,1.3925,0.6179,2.1407
			C23.6974,38.3795,25.4173,38.5251,27.0672,38.7204z"/>
	</g>
</g>
</svg>
