<?xml version="1.0" encoding="utf-8"?>
<!-- Generator: Adobe Illustrator 21.0.2, SVG Export Plug-In . SVG Version: 6.00 Build 0)  -->
<svg version="1.1" id="Capa_1" xmlns="http://www.w3.org/2000/svg" xmlns:xlink="http://www.w3.org/1999/xlink" x="0px" y="0px"
	 viewBox="0 0 54.3061 54.3061" style="enable-background:new 0 0 54.3061 54.3061;" xml:space="preserve">
<style type="text/css">
	.st0{fill-rule:evenodd;clip-rule:evenodd;fill:#DDDDDD;}
	.st1{fill:#3B86B1;}
	.st2{opacity:0.25;fill-rule:evenodd;clip-rule:evenodd;fill:#020202;}
	.st3{fill:#FFFFFF;}
	.st4{opacity:0.5;}
	.st5{fill-rule:evenodd;clip-rule:evenodd;fill:#A8A8A8;}
	.st6{fill-rule:evenodd;clip-rule:evenodd;fill:#FFFFFF;}
	.st7{fill-rule:evenodd;clip-rule:evenodd;fill:#3B86B1;}
	.st8{opacity:0.5;fill:#2C6882;}
	.st9{opacity:0.75;fill-rule:evenodd;clip-rule:evenodd;fill:#282828;}
	.st10{opacity:0.5;fill:#FFFFFF;}
	.st11{fill-rule:evenodd;clip-rule:evenodd;fill:none;stroke:#FFFFFF;stroke-miterlimit:10;}
	.st12{fill:none;stroke:#FFFFFF;stroke-miterlimit:10;}
	.st13{fill:#FFFFFF;stroke:#3B86B1;stroke-width:1.7139;stroke-miterlimit:10;}
	.st14{fill-rule:evenodd;clip-rule:evenodd;}
	.st15{opacity:0.85;fill:#FFFFFF;}
	.st16{opacity:0.5;fill-rule:evenodd;clip-rule:evenodd;}
	.st17{fill-rule:evenodd;clip-rule:evenodd;fill:#FEFEFE;}
	.st18{fill:#312767;}
	.st19{opacity:0.48;}
	.st20{opacity:0.25;}
	.st21{fill-rule:evenodd;clip-rule:evenodd;fill:#020202;}
	.st22{fill:#757575;}
	.st23{opacity:0.25;clip-path:url(#XMLID_2396_);}
	.st24{fill:#4D4789;}
	.st25{fill:#FFFFFF;stroke:#312767;stroke-miterlimit:10;}
	.st26{fill:#3B86B1;stroke:#3B86B1;stroke-miterlimit:10;}
	.st27{fill:#FFFFFF;stroke:#FFFFFF;stroke-miterlimit:10;}
	.st28{fill:#ACABC9;}
	.st29{fill-rule:evenodd;clip-rule:evenodd;fill:#312767;}
	.st30{opacity:0.77;fill:#312767;}
	.st31{opacity:0.25;clip-path:url(#XMLID_2397_);}
	.st32{fill:#9490B2;stroke:#2D2D2D;stroke-width:0.25;stroke-miterlimit:10;}
	.st33{fill:#312767;stroke:#2D2D2D;stroke-width:0.25;stroke-miterlimit:10;}
	.st34{fill:#FCFCFC;}
	.st35{fill:#FFFFFF;stroke:#2D2D2D;stroke-width:0.25;stroke-miterlimit:10;}
	.st36{fill-rule:evenodd;clip-rule:evenodd;fill:#484849;stroke:#2D2D2D;stroke-width:0.25;stroke-miterlimit:10;}
	.st37{fill-rule:evenodd;clip-rule:evenodd;fill:#312767;stroke:#2D2D2D;stroke-width:0.25;stroke-miterlimit:10;}
	.st38{fill-rule:evenodd;clip-rule:evenodd;fill:#FFFFFF;stroke:#2D2D2D;stroke-width:0.25;stroke-miterlimit:10;}
	.st39{fill:#484849;stroke:#2D2D2D;stroke-width:0.25;stroke-miterlimit:10;}
	.st40{fill:#54518C;}
	.st41{opacity:0.25;fill-rule:evenodd;clip-rule:evenodd;fill:#FFFFFF;}
	.st42{fill:#D4A800;}
	.st43{fill:#00AEB3;}
	.st44{fill:#38353B;}
	.st45{fill:#FF8400;}
	.st46{fill:#BF3900;}
	.st47{fill:#00AA9C;}
	.st48{opacity:0.25;clip-path:url(#XMLID_2400_);}
	.st49{fill:none;stroke:#ACABC9;stroke-width:5;stroke-miterlimit:10;}
	.st50{opacity:0.25;clip-path:url(#XMLID_2403_);}
	.st51{fill:#DDDDDD;}
	.st52{opacity:0.25;fill-rule:evenodd;clip-rule:evenodd;fill:#FFFFFF;stroke:#303030;stroke-width:0.5;stroke-miterlimit:10;}
	.st53{fill:#3B86B1;stroke:#303030;stroke-width:0.5;stroke-miterlimit:10;}
	.st54{fill:#D4A800;stroke:#303030;stroke-width:0.5;stroke-miterlimit:10;}
	.st55{fill:#00AEB3;stroke:#303030;stroke-width:0.5;stroke-miterlimit:10;}
	.st56{fill:#FF8400;stroke:#303030;stroke-width:0.5;stroke-miterlimit:10;}
	.st57{fill:#BF3900;stroke:#303030;stroke-width:0.5;stroke-miterlimit:10;}
	.st58{fill:#00AA9C;stroke:#303030;stroke-width:0.5;stroke-miterlimit:10;}
	.st59{opacity:0.25;clip-path:url(#XMLID_2404_);}
	.st60{fill-rule:evenodd;clip-rule:evenodd;fill:#FFFFFF;stroke:#FFFFFF;stroke-miterlimit:10;}
	.st61{fill:#F79748;}
	.st62{fill:#FF7900;}
	.st63{fill:#DD7105;}
	.st64{fill:#02897C;}
	.st65{fill:#0EAD9A;}
	.st66{fill:#28C6AF;}
	.st67{fill:#4FE0C7;}
	.st68{fill:#00AA9C;stroke:#353535;stroke-width:0.5;stroke-miterlimit:10;}
	.st69{fill:#02897C;stroke:#353535;stroke-width:0.5;stroke-miterlimit:10;}
	.st70{fill:#0EAD9A;stroke:#353535;stroke-width:0.5;stroke-miterlimit:10;}
	.st71{fill:#28C6AF;stroke:#353535;stroke-width:0.5;stroke-miterlimit:10;}
	.st72{fill:#4FE0C7;stroke:#353535;stroke-width:0.5;stroke-miterlimit:10;}
	.st73{fill:#D37D00;}
	.st74{fill:#D14600;}
	.st75{fill:#E5B92E;}
	.st76{fill:#DD571B;}
	.st77{fill:#E28A17;}
	.st78{opacity:0.25;clip-path:url(#XMLID_2410_);}
	.st79{opacity:0.77;fill:#FFFFFF;}
	.st80{fill:#50565B;stroke:#656C70;stroke-miterlimit:10;}
	.st81{fill:#808589;stroke:#656C70;stroke-miterlimit:10;}
	.st82{fill:#252728;stroke:#000000;stroke-miterlimit:10;}
	.st83{fill:#1A1B1C;stroke:#000000;stroke-miterlimit:10;}
	.st84{fill:#A0A6AA;}
	.st85{fill:#262C35;stroke:#161A1E;stroke-miterlimit:10;}
	.st86{fill:#181D23;}
	.st87{fill:#EABA96;stroke:#E0AA86;stroke-miterlimit:10;}
	.st88{fill:#E0AA86;}
	.st89{stroke:#000000;stroke-width:0.75;stroke-linecap:square;stroke-linejoin:bevel;stroke-miterlimit:10;}
	.st90{fill:#0F1C3F;stroke:#182951;stroke-miterlimit:10;}
	.st91{fill:#132354;stroke:#3F6093;stroke-miterlimit:10;}
	.st92{fill:#0F1C3F;}
	.st93{fill:none;stroke:#3F6093;stroke-width:0.75;stroke-miterlimit:10;}
	.st94{fill:#DBA682;}
	.st95{fill:none;stroke:#E0AA86;stroke-miterlimit:10;}
	.st96{fill:none;stroke:#E0AA86;stroke-linejoin:bevel;stroke-miterlimit:10;}
	.st97{fill:#8A0A8E;stroke:#AC34B2;stroke-miterlimit:10;}
	.st98{fill:#810C87;}
	.st99{fill:#680B6D;}
	.st100{fill:#AC34B2;stroke:#AC34B2;stroke-width:0.5;stroke-miterlimit:10;}
	.st101{fill:none;stroke:#959DA0;stroke-width:0.5;stroke-miterlimit:10;}
	.st102{fill:#959DA0;stroke:#959DA0;stroke-width:0.5;stroke-miterlimit:10;}
	.st103{fill:none;stroke:#AC34B2;stroke-miterlimit:10;}
	.st104{fill:#282828;stroke:#000000;stroke-miterlimit:10;}
	.st105{fill:#EABA96;stroke:#E0AA86;stroke-width:0.5;stroke-miterlimit:10;}
	.st106{fill:#B7896A;}
	.st107{stroke:#000000;stroke-miterlimit:10;}
	.st108{fill:#C1A578;}
	.st109{stroke:#000000;stroke-width:0.25;stroke-linecap:round;stroke-linejoin:round;stroke-miterlimit:10;}
	.st110{fill:#FFFFFF;stroke:#000000;stroke-width:0.25;stroke-linecap:round;stroke-linejoin:round;stroke-miterlimit:10;}
	.st111{fill:#70582D;}
	.st112{stroke:#000000;stroke-linecap:round;stroke-linejoin:round;stroke-miterlimit:10;}
	.st113{fill:none;stroke:#D8A27D;stroke-width:0.75;stroke-miterlimit:10;}
	.st114{fill:#561409;}
	.st115{fill:#BA2A13;}
	.st116{fill:#9E3025;stroke:#4C2311;stroke-width:0.25;stroke-miterlimit:10;}
	.st117{fill:#871D08;stroke:#4C2311;stroke-width:0.25;stroke-miterlimit:10;}
	.st118{fill:#DDAC8A;}
	.st119{fill:#A5ABAD;stroke:#959DA0;stroke-width:0.5;stroke-miterlimit:10;}
	.st120{fill:#B1BABC;}
	.st121{fill:none;stroke:#153847;stroke-width:5;stroke-miterlimit:10;}
	.st122{fill:#3CA7AF;}
	.st123{fill:#3DAD8D;}
	.st124{fill:#3DAA61;}
	.st125{fill:#67A53F;}
	.st126{fill:#95A340;}
	.st127{opacity:0.25;clip-path:url(#XMLID_2411_);}
	.st128{opacity:0.25;clip-path:url(#XMLID_2416_);}
	.st129{fill:#F79748;stroke:#303030;stroke-width:0.5;stroke-miterlimit:10;}
	.st130{fill:#FF7900;stroke:#303030;stroke-width:0.5;stroke-miterlimit:10;}
	.st131{fill:#DD7105;stroke:#303030;stroke-width:0.5;stroke-miterlimit:10;}
	.st132{opacity:0.25;clip-path:url(#XMLID_2422_);}
	.st133{clip-path:url(#SVGID_2_);}
	.st134{fill:none;stroke:#3F6093;stroke-miterlimit:10;}
	.st135{fill:none;stroke:#3F6093;stroke-width:0.75;stroke-linecap:round;stroke-linejoin:round;}
	.st136{fill:none;stroke:#3F6093;stroke-width:0.75;stroke-linecap:round;stroke-linejoin:round;stroke-dasharray:0.9892,0.9892;}
	
		.st137{fill:none;stroke:#3F6093;stroke-width:0.75;stroke-linecap:round;stroke-linejoin:round;stroke-miterlimit:10;stroke-dasharray:1;}
	.st138{fill:#EAEAEA;stroke:#FFFFFF;stroke-width:0.25;stroke-miterlimit:10;}
	.st139{fill:#D8D8D8;}
	.st140{fill:#282828;stroke:#000000;stroke-width:0.75;stroke-miterlimit:10;}
	.st141{opacity:0.33;fill:#FFFFFF;}
	.st142{fill:none;stroke:#000000;stroke-width:1.5;stroke-linecap:round;stroke-linejoin:round;stroke-miterlimit:10;}
	.st143{clip-path:url(#SVGID_4_);}
	.st144{opacity:0.64;}
	.st145{fill:#1D1D1B;}
	.st146{fill:#C9C9C9;}
	.st147{fill:#545477;}
</style>
<g>
	<circle id="XMLID_1752_" class="st52" cx="27.153" cy="27.153" r="26.903"/>
	<path class="st56" d="M22.3383,30.0579c0.0253-0.1576,0.0373-0.3132,0.0373-0.4702c-0.0571-2.4718-2.6544-4.6038-2.6691-4.6557
		c-0.2095-0.1848-0.526-0.1622-0.7096,0.0467c-0.1842,0.2088-0.1618,0.5267,0.048,0.7095c0.0023,0.0027,0.1414,0.1233,0.3622,0.349
		c0.6824,0.6694,1.9909,2.2779,1.9617,3.5505c0,0.1057-0.0084,0.2089-0.0253,0.3126c-0.0946,0.6-0.4203,1.0696-0.7786,1.51
		c-0.3353,0.4514-0.7787,0.8017-0.8185,1.4931c-0.0043,0.3367,0.1735,0.6603,0.431,0.8977c0.2604,0.2432,0.6103,0.456,1.0978,0.6849
		c0.4719,0.2225,0.899,0.3308,1.2982,0.3308c1.1831-0.0084,1.7522-0.9541,2.1103-1.6695c0.3573-0.7705,0.7173-1.377,0.8993-1.3608
		c1.1425-0.2971,3.5563-1.6345,3.5729-4.6933c-0.0023-0.9353-0.2319-2.0042-0.7754-3.2223
		c-1.0608-2.4335-2.7183-3.2339-4.1128-3.2151c-1.5817,0.0097-2.764,0.8731-2.8059,0.8957
		c-0.0075,0.0059-0.0117,0.0136-0.0185,0.0195c-0.718-0.731-1.2125-1.5048-1.1834-2.1398c0.0013-0.2698,0.0691-0.5299,0.2458-0.812
		c1.7344-2.7929,3.8524-4.7926,5.6767-4.7536c0.1683,0,0.3337,0.0142,0.4981,0.0467c0.6256,0.1122,1.5125,0.4573,2.3584,0.9508
		c-0.0623,0.0739-0.1103,0.1589-0.1213,0.262c-0.0017,0.0143-0.0328,0.3049-0.0328,0.7609c0.0043,0.9132,0.1132,2.49,0.8899,3.8605
		c0.8623,1.506,1.6809,3.926,1.6802,6.7261c0,0.4651-0.023,0.9437-0.0707,1.4302c-0.1722,1.7422-0.4381,3.0997-1.0552,4.1304
		c-0.6058,1.0066-1.5489,1.7714-3.2587,2.3635l0,0c-0.036,0.0117-0.0658,0.0253-0.1012,0.0376
		c-3.0757,1.0125-4.2572,2.4498-4.2646,3.8839c0,0.3191,0.0603,0.6246,0.1615,0.9041c0.0733,0.205,0.2673,0.334,0.4738,0.334
		c0.0571,0,0.1138-0.0097,0.17-0.0292c0.262-0.0947,0.3976-0.3834,0.3049-0.6441c-0.0665-0.1849-0.1035-0.3723-0.1035-0.5649
		c-0.0062-0.7874,0.6366-1.9367,3.5758-2.9278c0.1323-0.0448,0.2536-0.0928,0.3794-0.1395V35.25
		c1.7032-0.6311,2.8315-1.5249,3.5284-2.7008c0.7472-1.2609,1.0105-2.7644,1.1915-4.5461c0.0509-0.5221,0.0749-1.0326,0.0749-1.5307
		c-0.0013-2.4543-0.5824-4.6097-1.3125-6.2267c0.2044,0.1524,0.493,0.1336,0.6688-0.059c0.2458-0.2685,0.4365-0.55,0.5798-0.8367
		c0-0.0007,0-0.0007,0-0.0007c0.0406-0.0811,0.0772-0.1628,0.1099-0.2445c0.0036-0.0084,0.0062-0.0181,0.0098-0.0272
		c0.0282-0.0733,0.0541-0.1472,0.0756-0.2205c0.0068-0.0227,0.012-0.046,0.0178-0.0681c0.0165-0.061,0.0327-0.1219,0.0448-0.1842
		c0.0084-0.0415,0.0124-0.0837,0.0191-0.1258c0.0065-0.0435,0.0146-0.0863,0.0185-0.1285c0.0082-0.0869,0.0124-0.1732,0.012-0.2588
		c-0.0165-1.4178-1.0326-2.5801-2.203-3.4655c-1.1866-0.8853-2.5775-1.5035-3.6354-1.7039c-0.228-0.0441-0.4573-0.0636-0.684-0.0636
		c-2.5332,0.0383-4.7086,2.3616-6.5293,5.224c-0.0697,0.1096-0.1297,0.2224-0.1806,0.3366
		c-0.0435,0.0966-0.0788,0.1959-0.109,0.2951c-0.01,0.0312-0.0172,0.0623-0.0256,0.0935c-0.0198,0.0758-0.0363,0.1511-0.0486,0.2257
		c-0.0055,0.0305-0.0107,0.061-0.0146,0.0908c-0.013,0.1025-0.0217,0.205-0.0211,0.3068c0.0029,0.1265,0.0162,0.2497,0.0353,0.3723
		c0.0058,0.0383,0.0139,0.0765,0.0214,0.1148c0.0165,0.085,0.0353,0.1687,0.0587,0.2517c0.0114,0.0409,0.023,0.0817,0.0363,0.1219
		c0.0272,0.0844,0.0584,0.1674,0.0918,0.2497c0.0133,0.0331,0.025,0.0662,0.0399,0.0986c0.0496,0.1141,0.1045,0.225,0.1657,0.3347
		c0.0081,0.0149,0.0182,0.0292,0.0263,0.0434c0.0548,0.096,0.1135,0.19,0.1757,0.2821c0.0224,0.0337,0.0464,0.0668,0.0697,0.1006
		c0.0532,0.0752,0.108,0.1485,0.1651,0.2224c0.0259,0.0325,0.0509,0.0649,0.0775,0.0966c0.0655,0.0824,0.1342,0.1615,0.2046,0.2387
		c0.0181,0.0208,0.0357,0.0422,0.0548,0.0629c0.0915,0.0999,0.1868,0.1991,0.2851,0.2958c0.0019,0.0013,0.0039,0.0039,0.0058,0.0058
		l0,0c0.4903,0.4833,1.0475,0.9223,1.589,1.3206c1.4886,1.0637,2.9531,1.7597,2.9684,1.7681
		c0.0703,0.0344,0.144,0.0499,0.216,0.0499c0.1888,0,0.3681-0.107,0.456-0.2873c0.1197-0.251,0.012-0.5526-0.238-0.6713
		c-0.0036-0.0013-1.413-0.6739-2.8169-1.6786c-0.2507-0.1751-0.4955-0.3606-0.7323-0.5552c0.3395-0.205,1.1665-0.611,2.058-0.6065
		c1.0329,0.0201,2.1988,0.4463,3.1941,2.6191c0.4968,1.115,0.6872,2.0437,0.6859,2.8111c0.0149,2.429-1.9481,3.4792-2.8241,3.7211
		c-0.9408,0.3133-1.1626,1.2136-1.5359,1.8752c-0.3716,0.718-0.681,1.1298-1.2142,1.1208c-0.2098,0-0.4945-0.0584-0.8701-0.2355
		c-0.4345-0.2011-0.705-0.3814-0.8334-0.5059c-0.1324-0.1317-0.1132-0.1563-0.1178-0.1654
		c-0.0379-0.0331,0.1936-0.3989,0.5954-0.8587C21.7283,31.5744,22.1976,30.94,22.3383,30.0579z M29.9044,15.435
		c1.0641,0.7907,1.8103,1.7896,1.7934,2.6567c-0.0039,0.443-0.1609,0.901-0.6256,1.4186c-0.0811,0.0882-0.1158,0.1978-0.1229,0.3074
		c-0.0982-0.1998-0.1988-0.3931-0.3013-0.5727c-0.6356-1.0981-0.7602-2.5354-0.7556-3.3591
		C29.8923,15.6951,29.8985,15.5459,29.9044,15.435z M19.0437,25.6882h0.0013v0.0013L19.0437,25.6882z M37.7279,20.4799
		c-0.0026,1.1792-0.1265,2.1398-0.3123,2.8065c-0.6866,2.3999-2.7874,9.2991-4.0049,12.3496
		c-0.3963,0.9787-0.8052,2.7351-1.4269,4.5195c-0.6318,1.7888-1.4711,3.6659-2.9703,4.98c-0.9947,0.8756-2.323,1.4496-3.8884,1.4432
		c-0.0136,0-0.026,0-0.0389,0c-0.1774,0-0.3499-0.0091-0.5195-0.0234c-0.0519-0.0033-0.1028-0.0097-0.1538-0.0155
		c-0.119-0.0117-0.2357-0.0279-0.3496-0.0461c-0.0532-0.0097-0.1074-0.0175-0.1589-0.0279
		c-0.1223-0.0233-0.2422-0.0505-0.359-0.0817c-0.0347-0.0084-0.0713-0.0162-0.1057-0.0253
		c-0.1459-0.0415-0.2873-0.0875-0.4251-0.1388c-0.0461-0.0162-0.0905-0.0363-0.1359-0.0538
		c-0.0921-0.0377-0.1836-0.0753-0.2728-0.1168c-0.0545-0.0253-0.1077-0.0506-0.1599-0.0772
		c-0.0785-0.0396-0.1554-0.0811-0.2306-0.1226c-0.0515-0.0298-0.1031-0.0577-0.1537-0.0882
		c-0.0908-0.0551-0.1793-0.1128-0.2653-0.1712c-0.0768-0.0525-0.1498-0.1064-0.2225-0.1609
		c-0.0522-0.0402-0.1054-0.0791-0.1563-0.1206c-0.061-0.0494-0.1203-0.0999-0.1793-0.1512
		c-0.0389-0.0343-0.0766-0.0694-0.1145-0.1037c-0.0629-0.0577-0.1245-0.1148-0.1842-0.1745
		c-0.0201-0.0201-0.0386-0.0402-0.0583-0.0597c-0.2215-0.227-0.4233-0.4657-0.6052-0.7135
		c-0.0064-0.0078-0.012-0.0169-0.0188-0.0246c-0.3739-0.5124-0.6684-1.0533-0.8831-1.5748
		c-0.8312-1.9296-0.9097-3.7489-0.9155-3.8132c-0.0289-0.5572,0.3996-1.0287,0.9554-1.0566
		c0.5555-0.0279,1.0264,0.4015,1.0543,0.9567c0.0019,0,0.0045,0.0746,0.0204,0.2439c0.0179,0.1674,0.0496,0.4144,0.1016,0.7122
		c0.1054,0.5948,0.299,1.3906,0.6317,2.1586c0.0697,0.1524,0.144,0.3016,0.2209,0.4482c0.0389,0.0752,0.0798,0.1498,0.1213,0.2224
		c0.0064,0.0117,0.0133,0.0234,0.0198,0.0351c0.0412,0.0707,0.0827,0.1407,0.1255,0.2101c0.0081,0.0123,0.0162,0.0253,0.0246,0.0376
		c0.0435,0.0681,0.0873,0.1349,0.1324,0.2004c0.0071,0.0104,0.0149,0.0201,0.0221,0.0305c0.1962,0.277,0.4151,0.5292,0.6644,0.751
		c0.0175,0.0156,0.0334,0.0318,0.0506,0.0467c0.0448,0.0377,0.0915,0.0727,0.1372,0.1083c0.0305,0.024,0.06,0.0487,0.0915,0.0707
		c0.0428,0.0311,0.0875,0.0603,0.1326,0.0901c0.0376,0.0246,0.0739,0.0487,0.1128,0.072c0.0438,0.026,0.0885,0.0513,0.1342,0.0759
		c0.0422,0.0227,0.085,0.0454,0.1288,0.0668c0.0451,0.0226,0.0908,0.0434,0.1375,0.0636c0.047,0.0207,0.0957,0.0402,0.1453,0.0596
		c0.0464,0.0175,0.0931,0.035,0.1414,0.0512c0.0528,0.0182,0.1079,0.0344,0.1625,0.0499c0.048,0.0137,0.095,0.0279,0.1447,0.0396
		c0.0596,0.0149,0.1229,0.0266,0.1858,0.0396c0.047,0.0084,0.0934,0.0195,0.1427,0.0272c0.0723,0.0117,0.1478,0.0201,0.2231,0.0279
		c0.0428,0.0045,0.0837,0.011,0.1271,0.0149c0.1207,0.0097,0.2452,0.0155,0.3743,0.0168c1.0962-0.0078,1.8696-0.3521,2.5678-0.9482
		c0.6914-0.598,1.2722-1.486,1.7483-2.5146c0.9635-2.0652,1.4545-4.5714,2.0999-6.2137c1.148-2.8669,3.2735-9.8232,3.938-12.1536
		c0.1128-0.382,0.238-1.2382,0.2355-2.2546c0.0052-1.8122-0.3791-4.1822-1.5541-5.9828c-0.0808-0.1213-0.1644-0.24-0.2513-0.3573
		c-0.0124-0.0169-0.0266-0.0331-0.0389-0.0499c-0.0788-0.1031-0.1593-0.2056-0.2429-0.3055
		c-0.0068-0.0078-0.0143-0.0149-0.0208-0.0234c-0.0927-0.1077-0.1884-0.2153-0.2883-0.3185
		c-0.0009-0.0006-0.0019-0.0019-0.0026-0.0032c-0.1034-0.1071-0.2114-0.2115-0.3233-0.3126
		c-1.1743-1.0631-2.8276-1.7675-5.3332-1.7856c-3.8316,0.0143-6.1689,1.9646-7.7713,4.3003
		c-1.5806,2.3291-2.2633,5.0125-2.4721,6.0548c-0.0616,0.2971-0.0834,0.443-0.0834,0.443l0.0013,0.0013
		c-0.0804,0.5507-0.5912,0.9321-1.1415,0.8517c-0.5497-0.0798-0.9311-0.5902-0.851-1.1403c0.013-0.0687,0.4407-3.0777,2.1654-6.1767
		c1.6923-3.0848,4.886-6.3603,10.1527-6.3486c2.2371-0.0143,4.0584,0.5319,5.4892,1.4126c0,0,0.0003,0.0007,0.0009,0.0013
		c0.1126,0.0694,0.2212,0.1427,0.3292,0.216c0.0373,0.0253,0.0762,0.0499,0.1132,0.0765c0.096,0.0675,0.1878,0.1369,0.2798,0.2082
		c0.0461,0.035,0.0938,0.0707,0.1395,0.1077c0.0827,0.0662,0.1635,0.1349,0.2429,0.203c0.0519,0.0454,0.1028,0.0901,0.1528,0.1356
		c0.072,0.0662,0.1427,0.1323,0.2118,0.1997c0.0551,0.0532,0.1083,0.1077,0.1615,0.1622c0.0606,0.0636,0.1223,0.1258,0.181,0.1907
		c0.0587,0.0642,0.1151,0.1304,0.1709,0.1959c0.0503,0.0584,0.1012,0.1168,0.1492,0.1758c0.0656,0.081,0.1268,0.1628,0.1888,0.2445
		c0.0363,0.048,0.0736,0.096,0.109,0.144c0.0946,0.1323,0.1861,0.2673,0.273,0.4035
		C37.3319,15.7048,37.7227,18.4089,37.7279,20.4799z"/>
</g>
</svg>
