<?xml version="1.0" encoding="utf-8"?>
<!-- Generator: Adobe Illustrator 21.0.2, SVG Export Plug-In . SVG Version: 6.00 Build 0)  -->
<svg version="1.1" id="Capa_1" xmlns="http://www.w3.org/2000/svg" xmlns:xlink="http://www.w3.org/1999/xlink" x="0px" y="0px"
	 viewBox="0 0 55.4566 55.4566" style="enable-background:new 0 0 55.4566 55.4566;" xml:space="preserve">
<style type="text/css">
	.st0{fill-rule:evenodd;clip-rule:evenodd;fill:#DDDDDD;}
	.st1{fill:#3B86B1;}
	.st2{opacity:0.25;fill-rule:evenodd;clip-rule:evenodd;fill:#020202;}
	.st3{fill:#FFFFFF;}
	.st4{opacity:0.5;}
	.st5{fill-rule:evenodd;clip-rule:evenodd;fill:#A8A8A8;}
	.st6{fill-rule:evenodd;clip-rule:evenodd;fill:#FFFFFF;}
	.st7{fill-rule:evenodd;clip-rule:evenodd;fill:#3B86B1;}
	.st8{opacity:0.5;fill:#2C6882;}
	.st9{opacity:0.75;fill-rule:evenodd;clip-rule:evenodd;fill:#282828;}
	.st10{opacity:0.5;fill:#FFFFFF;}
	.st11{fill-rule:evenodd;clip-rule:evenodd;fill:none;stroke:#FFFFFF;stroke-miterlimit:10;}
	.st12{fill:none;stroke:#FFFFFF;stroke-miterlimit:10;}
	.st13{fill:#FFFFFF;stroke:#3B86B1;stroke-width:1.7139;stroke-miterlimit:10;}
	.st14{fill-rule:evenodd;clip-rule:evenodd;}
	.st15{opacity:0.85;fill:#FFFFFF;}
	.st16{opacity:0.5;fill-rule:evenodd;clip-rule:evenodd;}
	.st17{fill-rule:evenodd;clip-rule:evenodd;fill:#FEFEFE;}
	.st18{fill:#312767;}
	.st19{opacity:0.48;}
	.st20{opacity:0.25;}
	.st21{fill-rule:evenodd;clip-rule:evenodd;fill:#020202;}
	.st22{fill:#757575;}
	.st23{opacity:0.25;clip-path:url(#XMLID_2396_);}
	.st24{fill:#4D4789;}
	.st25{fill:#FFFFFF;stroke:#312767;stroke-miterlimit:10;}
	.st26{fill:#3B86B1;stroke:#3B86B1;stroke-miterlimit:10;}
	.st27{fill:#FFFFFF;stroke:#FFFFFF;stroke-miterlimit:10;}
	.st28{fill:#ACABC9;}
	.st29{fill-rule:evenodd;clip-rule:evenodd;fill:#312767;}
	.st30{opacity:0.77;fill:#312767;}
	.st31{opacity:0.25;clip-path:url(#XMLID_2397_);}
	.st32{fill:#9490B2;stroke:#2D2D2D;stroke-width:0.25;stroke-miterlimit:10;}
	.st33{fill:#312767;stroke:#2D2D2D;stroke-width:0.25;stroke-miterlimit:10;}
	.st34{fill:#FCFCFC;}
	.st35{fill:#FFFFFF;stroke:#2D2D2D;stroke-width:0.25;stroke-miterlimit:10;}
	.st36{fill-rule:evenodd;clip-rule:evenodd;fill:#484849;stroke:#2D2D2D;stroke-width:0.25;stroke-miterlimit:10;}
	.st37{fill-rule:evenodd;clip-rule:evenodd;fill:#312767;stroke:#2D2D2D;stroke-width:0.25;stroke-miterlimit:10;}
	.st38{fill-rule:evenodd;clip-rule:evenodd;fill:#FFFFFF;stroke:#2D2D2D;stroke-width:0.25;stroke-miterlimit:10;}
	.st39{fill:#484849;stroke:#2D2D2D;stroke-width:0.25;stroke-miterlimit:10;}
	.st40{fill:#54518C;}
	.st41{opacity:0.25;fill-rule:evenodd;clip-rule:evenodd;fill:#FFFFFF;}
	.st42{fill:#D4A800;}
	.st43{fill:#00AEB3;}
	.st44{fill:#38353B;}
	.st45{fill:#FF8400;}
	.st46{fill:#BF3900;}
	.st47{fill:#00AA9C;}
	.st48{opacity:0.25;clip-path:url(#XMLID_2400_);}
	.st49{fill:none;stroke:#ACABC9;stroke-width:5;stroke-miterlimit:10;}
	.st50{opacity:0.25;clip-path:url(#XMLID_2403_);}
	.st51{fill:#DDDDDD;}
	.st52{opacity:0.25;fill-rule:evenodd;clip-rule:evenodd;fill:#FFFFFF;stroke:#303030;stroke-width:0.5;stroke-miterlimit:10;}
	.st53{fill:#3B86B1;stroke:#303030;stroke-width:0.5;stroke-miterlimit:10;}
	.st54{fill:#D4A800;stroke:#303030;stroke-width:0.5;stroke-miterlimit:10;}
	.st55{fill:#00AEB3;stroke:#303030;stroke-width:0.5;stroke-miterlimit:10;}
	.st56{fill:#FF8400;stroke:#303030;stroke-width:0.5;stroke-miterlimit:10;}
	.st57{fill:#BF3900;stroke:#303030;stroke-width:0.5;stroke-miterlimit:10;}
	.st58{fill:#00AA9C;stroke:#303030;stroke-width:0.5;stroke-miterlimit:10;}
	.st59{opacity:0.25;clip-path:url(#XMLID_2404_);}
	.st60{fill-rule:evenodd;clip-rule:evenodd;fill:#FFFFFF;stroke:#FFFFFF;stroke-miterlimit:10;}
	.st61{fill:#F79748;}
	.st62{fill:#FF7900;}
	.st63{fill:#DD7105;}
	.st64{fill:#02897C;}
	.st65{fill:#0EAD9A;}
	.st66{fill:#28C6AF;}
	.st67{fill:#4FE0C7;}
	.st68{fill:#00AA9C;stroke:#353535;stroke-width:0.5;stroke-miterlimit:10;}
	.st69{fill:#02897C;stroke:#353535;stroke-width:0.5;stroke-miterlimit:10;}
	.st70{fill:#0EAD9A;stroke:#353535;stroke-width:0.5;stroke-miterlimit:10;}
	.st71{fill:#28C6AF;stroke:#353535;stroke-width:0.5;stroke-miterlimit:10;}
	.st72{fill:#4FE0C7;stroke:#353535;stroke-width:0.5;stroke-miterlimit:10;}
	.st73{fill:#D37D00;}
	.st74{fill:#D14600;}
	.st75{fill:#E5B92E;}
	.st76{fill:#DD571B;}
	.st77{fill:#E28A17;}
	.st78{opacity:0.25;clip-path:url(#XMLID_2410_);}
	.st79{opacity:0.77;fill:#FFFFFF;}
	.st80{fill:#50565B;stroke:#656C70;stroke-miterlimit:10;}
	.st81{fill:#808589;stroke:#656C70;stroke-miterlimit:10;}
	.st82{fill:#252728;stroke:#000000;stroke-miterlimit:10;}
	.st83{fill:#1A1B1C;stroke:#000000;stroke-miterlimit:10;}
	.st84{fill:#A0A6AA;}
	.st85{fill:#262C35;stroke:#161A1E;stroke-miterlimit:10;}
	.st86{fill:#181D23;}
	.st87{fill:#EABA96;stroke:#E0AA86;stroke-miterlimit:10;}
	.st88{fill:#E0AA86;}
	.st89{stroke:#000000;stroke-width:0.75;stroke-linecap:square;stroke-linejoin:bevel;stroke-miterlimit:10;}
	.st90{fill:#0F1C3F;stroke:#182951;stroke-miterlimit:10;}
	.st91{fill:#132354;stroke:#3F6093;stroke-miterlimit:10;}
	.st92{fill:#0F1C3F;}
	.st93{fill:none;stroke:#3F6093;stroke-width:0.75;stroke-miterlimit:10;}
	.st94{fill:#DBA682;}
	.st95{fill:none;stroke:#E0AA86;stroke-miterlimit:10;}
	.st96{fill:none;stroke:#E0AA86;stroke-linejoin:bevel;stroke-miterlimit:10;}
	.st97{fill:#8A0A8E;stroke:#AC34B2;stroke-miterlimit:10;}
	.st98{fill:#810C87;}
	.st99{fill:#680B6D;}
	.st100{fill:#AC34B2;stroke:#AC34B2;stroke-width:0.5;stroke-miterlimit:10;}
	.st101{fill:none;stroke:#959DA0;stroke-width:0.5;stroke-miterlimit:10;}
	.st102{fill:#959DA0;stroke:#959DA0;stroke-width:0.5;stroke-miterlimit:10;}
	.st103{fill:none;stroke:#AC34B2;stroke-miterlimit:10;}
	.st104{fill:#282828;stroke:#000000;stroke-miterlimit:10;}
	.st105{fill:#EABA96;stroke:#E0AA86;stroke-width:0.5;stroke-miterlimit:10;}
	.st106{fill:#B7896A;}
	.st107{stroke:#000000;stroke-miterlimit:10;}
	.st108{fill:#C1A578;}
	.st109{stroke:#000000;stroke-width:0.25;stroke-linecap:round;stroke-linejoin:round;stroke-miterlimit:10;}
	.st110{fill:#FFFFFF;stroke:#000000;stroke-width:0.25;stroke-linecap:round;stroke-linejoin:round;stroke-miterlimit:10;}
	.st111{fill:#70582D;}
	.st112{stroke:#000000;stroke-linecap:round;stroke-linejoin:round;stroke-miterlimit:10;}
	.st113{fill:none;stroke:#D8A27D;stroke-width:0.75;stroke-miterlimit:10;}
	.st114{fill:#561409;}
	.st115{fill:#BA2A13;}
	.st116{fill:#9E3025;stroke:#4C2311;stroke-width:0.25;stroke-miterlimit:10;}
	.st117{fill:#871D08;stroke:#4C2311;stroke-width:0.25;stroke-miterlimit:10;}
	.st118{fill:#DDAC8A;}
	.st119{fill:#A5ABAD;stroke:#959DA0;stroke-width:0.5;stroke-miterlimit:10;}
	.st120{fill:#B1BABC;}
	.st121{fill:none;stroke:#153847;stroke-width:5;stroke-miterlimit:10;}
	.st122{fill:#3CA7AF;}
	.st123{fill:#3DAD8D;}
	.st124{fill:#3DAA61;}
	.st125{fill:#67A53F;}
	.st126{fill:#95A340;}
	.st127{opacity:0.25;clip-path:url(#XMLID_2411_);}
	.st128{opacity:0.25;clip-path:url(#XMLID_2416_);}
	.st129{fill:#F79748;stroke:#303030;stroke-width:0.5;stroke-miterlimit:10;}
	.st130{fill:#FF7900;stroke:#303030;stroke-width:0.5;stroke-miterlimit:10;}
	.st131{fill:#DD7105;stroke:#303030;stroke-width:0.5;stroke-miterlimit:10;}
	.st132{opacity:0.25;clip-path:url(#XMLID_2422_);}
	.st133{clip-path:url(#SVGID_2_);}
	.st134{fill:none;stroke:#3F6093;stroke-miterlimit:10;}
	.st135{fill:none;stroke:#3F6093;stroke-width:0.75;stroke-linecap:round;stroke-linejoin:round;}
	.st136{fill:none;stroke:#3F6093;stroke-width:0.75;stroke-linecap:round;stroke-linejoin:round;stroke-dasharray:0.9892,0.9892;}
	
		.st137{fill:none;stroke:#3F6093;stroke-width:0.75;stroke-linecap:round;stroke-linejoin:round;stroke-miterlimit:10;stroke-dasharray:1;}
	.st138{fill:#EAEAEA;stroke:#FFFFFF;stroke-width:0.25;stroke-miterlimit:10;}
	.st139{fill:#D8D8D8;}
	.st140{fill:#282828;stroke:#000000;stroke-width:0.75;stroke-miterlimit:10;}
	.st141{opacity:0.33;fill:#FFFFFF;}
	.st142{fill:none;stroke:#000000;stroke-width:1.5;stroke-linecap:round;stroke-linejoin:round;stroke-miterlimit:10;}
	.st143{clip-path:url(#SVGID_4_);}
	.st144{opacity:0.64;}
	.st145{fill:#1D1D1B;}
	.st146{fill:#C9C9C9;}
	.st147{fill:#545477;}
</style>
<g>
	<circle id="XMLID_1758_" class="st52" cx="27.7283" cy="27.7283" r="27.4783"/>
	<g>
		<path class="st54" d="M48.4112,23.6018h-0.7728c-0.0483-0.0728-0.0989-0.1444-0.1539-0.2136
			c-0.5777-0.7268-1.4416-1.1436-2.37-1.1436H34.4577c-1.3055,0-2.5511,0.5602-3.4173,1.5369
			c-0.8662,0.9767-1.2736,2.2803-1.1175,3.5764l0.0042,0.0304l0.0149,0.0966c-0.8702-0.3174-1.8305-0.3174-2.7008,0l0.0149-0.0967
			l0.0042-0.0304c0.156-1.2961-0.2513-2.5997-1.1175-3.5764c-0.8662-0.9768-2.1118-1.5369-3.4173-1.5369H12.0687
			c-0.9284,0-1.7923,0.4168-2.37,1.1436c-0.055,0.0692-0.1056,0.1409-0.1539,0.2136H8.772c-0.4849,0-0.8779,0.3931-0.8779,0.8779V26
			c0,0.4848,0.3931,0.8779,0.8779,0.8779h0.6121l1.0474,3.6474c0.7524,3.201,3.57,5.4344,6.8607,5.4344h4.024
			c2.7178,0,5.0129-2.0306,5.3454-4.7263l0.3393-2.194c0.9406-0.7031,2.2411-0.7031,3.1816,0l0.3393,2.1941
			c0.3324,2.6957,2.6276,4.7263,5.3454,4.7263h4.024c3.2906,0,6.1083-2.2334,6.8607-5.4344l1.0474-3.6474h0.6121
			c0.4849,0,0.8779-0.3931,0.8779-0.8779v-1.5202C49.2891,23.9949,48.8961,23.6018,48.4112,23.6018z M25.4498,27.1256
			l-0.5944,3.8433l-0.0042,0.0304c-0.2151,1.7873-1.7349,3.1351-3.5352,3.1351h-4.024c-2.4446,0-4.5368-1.6633-5.0881-4.0448
			l-1.3112-4.5664c-0.0755-0.3529,0.0095-0.716,0.2347-0.9992c0.2295-0.2886,0.5725-0.4542,0.9412-0.4542h10.6567
			c0.7838,0,1.5317,0.3363,2.0517,0.9228C25.2941,25.5754,25.5388,26.3521,25.4498,27.1256z M46.2903,25.5232l-1.3112,4.5664
			c-0.5513,2.3815-2.6435,4.0448-5.0881,4.0448h-4.024c-1.8003,0-3.32-1.3478-3.5352-3.1351l-0.0042-0.0304l-0.5944-3.8433
			c-0.089-0.7735,0.1558-1.5502,0.6726-2.133c0.5201-0.5864,1.2679-0.9228,2.0517-0.9228h10.6567
			c0.3687,0,0.7118,0.1656,0.9412,0.4542C46.2808,24.8072,46.3658,25.1703,46.2903,25.5232z"/>
		<g>
			<path class="st54" d="M25.862,23.5007c0.8662,0.9767,1.2736,2.2803,1.1175,3.5764l-0.0042,0.0304l-0.0149,0.0967
				c0,0-0.0375,0.2725-0.0617,0.3749c0,0,0.2507-0.0635,0.3425-0.0941c0,0,0.0385-0.2264,0.0423-0.3827
				c0.077-1.2104-0.3315-2.4082-1.1407-3.3207c-0.1087-0.1226-0.2234-0.2386-0.3434-0.3477
				C25.8201,23.4563,25.8417,23.4778,25.862,23.5007z"/>
			<path class="st54" d="M32.0511,30.7184c0.1078,0.8955,0.5432,1.6805,1.1772,2.2411c-0.4796-0.5298-0.8055-1.2049-0.8964-1.9603
				l-0.0042-0.0304l-0.5944-3.8433c-0.089-0.7735,0.1558-1.5502,0.6726-2.133c0.5201-0.5864,1.2679-0.9228,2.0517-0.9228h10.6567
				c0.2541,0,0.4951,0.0803,0.6961,0.2237c-0.012-0.0167-0.0228-0.0341-0.0357-0.0503c-0.2295-0.2886-0.5725-0.4542-0.9412-0.4542
				H34.1769c-0.7838,0-1.5317,0.3363-2.0517,0.9227c-0.5168,0.5829-0.7616,1.3595-0.6726,2.1331l0.5944,3.8432L32.0511,30.7184z"/>
			<path class="st54" d="M47.2036,23.1074c0.055,0.0692,0.1056,0.1409,0.1539,0.2137h0.0703
				c-0.0995-0.1182-0.2065-0.2279-0.3206-0.3281C47.1401,23.0303,47.1725,23.0682,47.2036,23.1074z"/>
			<path class="st54" d="M29.9016,28.7584c-0.9405-0.7031-2.241-0.7031-3.1816,0l-0.3393,2.194
				c-0.3324,2.6957-2.6276,4.7263-5.3454,4.7263h-4.024c-1.8535,0-3.5569-0.7087-4.8257-1.8997
				c1.2924,1.359,3.1121,2.1805,5.1065,2.1805h4.024c2.7178,0,5.0129-2.0306,5.3454-4.7263l0.3393-2.194
				c0.8556-0.6397,2.0083-0.6953,2.9177-0.1712L29.9016,28.7584z"/>
			<path class="st54" d="M13.4641,32.4717c-0.6039-0.651-1.0471-1.4627-1.26-2.3821l-1.3112-4.5664
				c-0.0755-0.3529,0.0095-0.716,0.2347-0.9992c0.2295-0.2886,0.5725-0.4542,0.9412-0.4542h10.6567
				c0.6639,0,1.3004,0.2435,1.7962,0.6737c-0.0088-0.0103-0.0162-0.0215-0.0252-0.0317c-0.5201-0.5864-1.2679-0.9227-2.0517-0.9227
				H11.7879c-0.3687,0-0.7118,0.1656-0.9412,0.4542c-0.2251,0.2832-0.3101,0.6463-0.2347,0.9992l1.3112,4.5664
				C12.1679,30.8655,12.7164,31.7804,13.4641,32.4717z"/>
			<path class="st54" d="M48.8749,23.7352c0.0841,0.1347,0.1334,0.2932,0.1334,0.4637v1.5202c0,0.4849-0.3931,0.8779-0.8779,0.8779
				h-0.6121l-1.0474,3.6474c-0.7524,3.2009-3.57,5.4344-6.8607,5.4344h-4.024c-1.4079,0-2.7015-0.5459-3.6684-1.4459
				c0.9893,1.0664,2.4003,1.7267,3.9492,1.7267h4.024c3.2906,0,6.1083-2.2334,6.8607-5.4344l1.0474-3.6474h0.6121
				c0.4849,0,0.8779-0.3931,0.8779-0.8779v-1.5202C49.2891,24.1653,49.1233,23.8903,48.8749,23.7352z"/>
			<path class="st54" d="M9.1033,26.5971H8.4912c-0.1705,0-0.329-0.0494-0.4637-0.1334c0.1551,0.2484,0.4301,0.4142,0.7445,0.4142
				h0.412L9.1033,26.5971z"/>
		</g>
		<g>
			<path class="st42" d="M19.1233,22.5849c-2.0434,0-4.0868,0-6.1302,0c-1.0974,0-2.1385,0.1039-2.8958,1.0274
				c-0.9948,1.2131-0.528,2.5243-0.1468,3.8518c0.1245,0.4334,0.8021,0.2491,0.6769-0.1866
				c-0.3828-1.3329-0.9154-2.9098,0.6587-3.7517c0.6957-0.3721,1.6709-0.2388,2.4342-0.2388c1.801,0,3.6019,0,5.4029,0
				C19.575,23.287,19.5757,22.5849,19.1233,22.5849L19.1233,22.5849z"/>
		</g>
		<g>
			<path class="st42" d="M44.7818,22.5849c-3.4847,0-6.9695,0-10.4542,0c-1.032,0-1.9444,0.2012-2.658,1.0274
				c-0.294,0.3404,0.2005,0.839,0.4964,0.4964c0.7747-0.897,1.7223-0.8217,2.7708-0.8217c1.2702,0,2.5404,0,3.8106,0
				c2.0115,0,4.023,0,6.0345,0C45.2335,23.287,45.2343,22.5849,44.7818,22.5849L44.7818,22.5849z"/>
		</g>
	</g>
</g>
</svg>
