<?xml version="1.0" encoding="utf-8"?>
<!-- Generator: Adobe Illustrator 21.0.2, SVG Export Plug-In . SVG Version: 6.00 Build 0)  -->
<svg version="1.1" id="Capa_1" xmlns="http://www.w3.org/2000/svg" xmlns:xlink="http://www.w3.org/1999/xlink" x="0px" y="0px"
	 viewBox="0 0 257.1336 540.3579" style="enable-background:new 0 0 257.1336 540.3579;" xml:space="preserve">
<style type="text/css">
	.st0{fill-rule:evenodd;clip-rule:evenodd;fill:#DDDDDD;}
	.st1{fill:#3B86B1;}
	.st2{opacity:0.25;fill-rule:evenodd;clip-rule:evenodd;fill:#020202;}
	.st3{fill:#FFFFFF;}
	.st4{opacity:0.5;}
	.st5{fill-rule:evenodd;clip-rule:evenodd;fill:#A8A8A8;}
	.st6{fill-rule:evenodd;clip-rule:evenodd;fill:#FFFFFF;}
	.st7{fill-rule:evenodd;clip-rule:evenodd;fill:#3B86B1;}
	.st8{opacity:0.5;fill:#2C6882;}
	.st9{opacity:0.75;fill-rule:evenodd;clip-rule:evenodd;fill:#282828;}
	.st10{opacity:0.5;fill:#FFFFFF;}
	.st11{fill-rule:evenodd;clip-rule:evenodd;fill:none;stroke:#FFFFFF;stroke-miterlimit:10;}
	.st12{fill:none;stroke:#FFFFFF;stroke-miterlimit:10;}
	.st13{fill:#FFFFFF;stroke:#3B86B1;stroke-width:1.7139;stroke-miterlimit:10;}
	.st14{fill-rule:evenodd;clip-rule:evenodd;}
	.st15{opacity:0.85;fill:#FFFFFF;}
	.st16{opacity:0.5;fill-rule:evenodd;clip-rule:evenodd;}
	.st17{fill-rule:evenodd;clip-rule:evenodd;fill:#FEFEFE;}
	.st18{fill:#312767;}
	.st19{opacity:0.48;}
	.st20{opacity:0.25;}
	.st21{fill-rule:evenodd;clip-rule:evenodd;fill:#020202;}
	.st22{fill:#757575;}
	.st23{opacity:0.25;clip-path:url(#XMLID_2325_);}
	.st24{fill:#4D4789;}
	.st25{fill:#FFFFFF;stroke:#312767;stroke-miterlimit:10;}
	.st26{fill:#FFFFFF;stroke:#3B86B1;stroke-miterlimit:10;}
	.st27{fill:#ACABC9;}
	.st28{fill-rule:evenodd;clip-rule:evenodd;fill:#312767;}
	.st29{opacity:0.77;fill:#312767;}
	.st30{opacity:0.25;clip-path:url(#XMLID_2326_);}
	.st31{fill:#54518C;}
	.st32{fill:#FFFFFF;stroke:#FFFFFF;stroke-miterlimit:10;}
	.st33{opacity:0.25;fill-rule:evenodd;clip-rule:evenodd;fill:#FFFFFF;}
	.st34{fill:#D4A800;}
	.st35{fill:#00AEB3;}
	.st36{fill:#38353B;}
	.st37{fill:#FF8400;}
	.st38{fill:#BF3900;}
	.st39{fill:#00AA9C;}
	.st40{opacity:0.25;clip-path:url(#XMLID_2327_);}
	.st41{fill:none;stroke:#ACABC9;stroke-width:5;stroke-miterlimit:10;}
	.st42{opacity:0.25;clip-path:url(#XMLID_2328_);}
	.st43{fill:#DDDDDD;}
	.st44{opacity:0.25;clip-path:url(#XMLID_2329_);}
	.st45{fill-rule:evenodd;clip-rule:evenodd;fill:#FFFFFF;stroke:#FFFFFF;stroke-miterlimit:10;}
	.st46{fill:#F79748;}
	.st47{fill:#FF7900;}
	.st48{fill:#DD7105;}
	.st49{fill:#02897C;}
	.st50{fill:#0EAD9A;}
	.st51{fill:#28C6AF;}
	.st52{fill:#4FE0C7;}
	.st53{fill:#D37D00;}
	.st54{fill:#D14600;}
	.st55{fill:#E5B92E;}
	.st56{fill:#DD571B;}
	.st57{fill:#E28A17;}
	.st58{opacity:0.25;clip-path:url(#XMLID_2330_);}
	.st59{opacity:0.77;fill:#FFFFFF;}
	.st60{fill:#50565B;stroke:#656C70;stroke-miterlimit:10;}
	.st61{fill:#808589;stroke:#656C70;stroke-miterlimit:10;}
	.st62{fill:#252728;stroke:#000000;stroke-miterlimit:10;}
	.st63{fill:#1A1B1C;stroke:#000000;stroke-miterlimit:10;}
	.st64{fill:#A0A6AA;}
	.st65{fill:#262C35;stroke:#161A1E;stroke-miterlimit:10;}
	.st66{fill:#181D23;}
	.st67{fill:#EABA96;stroke:#E0AA86;stroke-miterlimit:10;}
	.st68{fill:#E0AA86;}
	.st69{stroke:#000000;stroke-width:0.75;stroke-linecap:square;stroke-linejoin:bevel;stroke-miterlimit:10;}
	.st70{fill:#0F1C3F;stroke:#182951;stroke-miterlimit:10;}
	.st71{fill:#132354;stroke:#3F6093;stroke-miterlimit:10;}
	.st72{fill:#0F1C3F;}
	.st73{fill:none;stroke:#3F6093;stroke-width:0.75;stroke-miterlimit:10;}
	.st74{fill:#DBA682;}
	.st75{fill:none;stroke:#E0AA86;stroke-miterlimit:10;}
	.st76{fill:none;stroke:#E0AA86;stroke-linejoin:bevel;stroke-miterlimit:10;}
	.st77{fill:#8A0A8E;stroke:#AC34B2;stroke-miterlimit:10;}
	.st78{fill:#810C87;}
	.st79{fill:#680B6D;}
	.st80{fill:#AC34B2;stroke:#AC34B2;stroke-width:0.5;stroke-miterlimit:10;}
	.st81{fill:none;stroke:#959DA0;stroke-width:0.5;stroke-miterlimit:10;}
	.st82{fill:#959DA0;stroke:#959DA0;stroke-width:0.5;stroke-miterlimit:10;}
	.st83{fill:none;stroke:#AC34B2;stroke-miterlimit:10;}
	.st84{fill:#282828;stroke:#000000;stroke-miterlimit:10;}
	.st85{fill:#EABA96;stroke:#E0AA86;stroke-width:0.5;stroke-miterlimit:10;}
	.st86{fill:#B7896A;}
	.st87{stroke:#000000;stroke-miterlimit:10;}
	.st88{fill:#C1A578;}
	.st89{stroke:#000000;stroke-width:0.25;stroke-linecap:round;stroke-linejoin:round;stroke-miterlimit:10;}
	.st90{fill:#FFFFFF;stroke:#000000;stroke-width:0.25;stroke-linecap:round;stroke-linejoin:round;stroke-miterlimit:10;}
	.st91{fill:#70582D;}
	.st92{stroke:#000000;stroke-linecap:round;stroke-linejoin:round;stroke-miterlimit:10;}
	.st93{fill:none;stroke:#D8A27D;stroke-width:0.75;stroke-miterlimit:10;}
	.st94{fill:#561409;}
	.st95{fill:#BA2A13;}
	.st96{fill:#9E3025;stroke:#4C2311;stroke-width:0.25;stroke-miterlimit:10;}
	.st97{fill:#871D08;stroke:#4C2311;stroke-width:0.25;stroke-miterlimit:10;}
	.st98{fill:#DDAC8A;}
	.st99{fill:#A5ABAD;stroke:#959DA0;stroke-width:0.5;stroke-miterlimit:10;}
	.st100{fill:#B1BABC;}
	.st101{fill:#FCFCFC;}
	.st102{fill:none;stroke:#153847;stroke-width:5;stroke-miterlimit:10;}
	.st103{fill:#3CA7AF;}
	.st104{fill:#3DAD8D;}
	.st105{fill:#3DAA61;}
	.st106{fill:#67A53F;}
	.st107{fill:#95A340;}
	.st108{opacity:0.25;clip-path:url(#XMLID_2331_);}
	.st109{opacity:0.25;clip-path:url(#XMLID_2332_);}
	.st110{opacity:0.25;clip-path:url(#XMLID_2333_);}
	.st111{clip-path:url(#SVGID_2_);}
	.st112{fill:none;stroke:#3F6093;stroke-miterlimit:10;}
	.st113{fill:none;stroke:#3F6093;stroke-width:0.75;stroke-linecap:round;stroke-linejoin:round;}
	.st114{fill:none;stroke:#3F6093;stroke-width:0.75;stroke-linecap:round;stroke-linejoin:round;stroke-dasharray:0.9892,0.9892;}
	
		.st115{fill:none;stroke:#3F6093;stroke-width:0.75;stroke-linecap:round;stroke-linejoin:round;stroke-miterlimit:10;stroke-dasharray:1;}
	.st116{fill:#EAEAEA;stroke:#FFFFFF;stroke-width:0.25;stroke-miterlimit:10;}
	.st117{fill:#D8D8D8;}
	.st118{fill:#282828;stroke:#000000;stroke-width:0.75;stroke-miterlimit:10;}
	.st119{opacity:0.33;fill:#FFFFFF;}
	.st120{fill:none;stroke:#000000;stroke-width:1.5;stroke-linecap:round;stroke-linejoin:round;stroke-miterlimit:10;}
	.st121{clip-path:url(#SVGID_4_);}
	.st122{opacity:0.64;}
	.st123{fill:#1D1D1B;}
	.st124{fill:#C9C9C9;}
</style>
<g>
	<defs>
		<rect id="SVGID_3_" x="0.5" width="256.6336" height="540.3579"/>
	</defs>
	<clipPath id="SVGID_2_">
		<use xlink:href="#SVGID_3_"  style="overflow:visible;"/>
	</clipPath>
	<g class="st111">
		<path id="Pantalon_1_" class="st71" d="M81.578,359.1909c0,0-23.3359,76.0953-22.9977,134.266c0,0-4.3966,14.5427-2.0292,24.3505
			c0,0-17.3881,90.1358-10.2301,154.2463l19.7688-1.2861c0,0,32.3983-111.3614,32.7365-140.4467
			c0,0,28.7471-74.0662,33.1437-114.3121c0,0,4.0584,108.2245,7.1022,127.8401c0,0-1.691,4.3967,0,8.7933
			c0,0-14.0136,31.9598-9.9678,125.9471l23.3412,1.2449l23.8288-104.1943c0,0,11.1606-9.8078,8.7932-34.1583
			c0,0,16.2337-62.2291,16.2337-98.7549c0,0,5.2097-57.4355-8.0485-87.0575l-62.2974-7.6389L81.578,359.1909z"/>
		<path class="st72" d="M75.4058,384.1333c0,0,20.3766-15.4727,121.7064-17.3102c0,0-3.7022-12.7052-7.5352-18.7928
			c-3.833-6.0876-2.3111,0-2.3111,0l-103.6563,4.2034C83.6096,352.2337,81.3243,363.503,75.4058,384.1333z"/>
		<path class="st72" d="M133.8301,393.6875l-1.8601,22.3213c0,0,5.524,117.1304,7.6659,127.8401c0,0-1.3528,4.6221,0,9.0187
			c0,0-14.2661,36.7138-9.8313,125.0992l22.0186,1.1671l5.4292-22.0431c0,0-23.0129,15.4297-23.0129-12.1129
			c0,0,0.7744-32.6432,15.6552-94.7032c0,0-3.7202-4.7348-1.0146-11.3297L133.8301,393.6875z"/>
		<path class="st72" d="M75.4058,384.1333c0,0-19.1929,79.6747-15.36,109.2109c0,0-5.123,13.1587-2.4174,24.6576
			c0,0-9.7514,56.5376-11.6187,95.7509c-1.0302,21.6338,1.0725,57.6787,1.0725,57.6787l18.3701-1.2449l7.8373-28.0683
			c0,0-15.3103-2.0458-15.3103-14.6721c0,0-20.3202-2.386,7.7033-101.6346c0,0-4.7299-8.3423-1.0122-18.7138
			c0,0,0.7596-69.7186,10.7355-98.5415s0,0,0,0s16.2475-2.2801,21.2995-32.0231c5.052-29.7429,0,0,0,0l-12.0741-9.9018
			L75.4058,384.1333z"/>
		<path class="st112" d="M134.3374,364.4834c0,0-0.6764,10.2648,0,22.271"/>
		<g>
			<g>
				<path class="st113" d="M98.8452,362.4301c0,0-0.0078,0.1716-0.0293,0.4943"/>
				<path class="st114" d="M98.7408,363.9063c-0.6244,7.3482-4.6544,39.8779-27.3504,46.105"/>
				<path class="st113" d="M70.9036,410.1401c-0.1612,0.0411-0.3232,0.0808-0.4863,0.1193"/>
			</g>
		</g>
		<path class="st115" d="M180.1682,359.5363c0,0-2.0337,31.8402,23.416,48.2993"/>
		<path class="st67" d="M178.98,228.6451c0,0,4.7233-15.2191,23.3302-10.8224c0,0,17.254,56.1414,16.9158,70.0077
			c0,0,3.7202,6.4258,3.0438,14.5427c0,0,3.0438,25.7033-5.4112,78.4628v6.4258c0,0,7.7786,20.9685-6.4258,56.4796
			c0,0-2.3674,10.1461-4.7348,7.6095c0,0-4.5657-0.1691,0.3382-13.9226l-4.9039,10.8788c0,0-1.0146,8.9623-4.5657,6.764
			c0,0-3.7202-2.3674,1.1837-22.3213c0,0,1.1837-12.6826,0.3382-16.741l-1.6576,1.0552c0,0-4.3051,19.5547-11.515,16.5982
			c0,0-3.4234-1.1661,1.8154-10.322c0,0,1.3486-6.655,2.0098-17.4775c0,0,0.1168-10.6357,9.6855-17.4174
			c0,0,4.1711-2.7056,0.9864-27.5634c0,0-3.3538-41.0915-0.4791-59.0162C198.9339,301.8658,180.5019,245.3861,178.98,228.6451z"/>
		<path class="st75" d="M206.0362,416.6852l-1.691,15.2191c0,0-2.5253,13.0238-3.2129,16.4028"/>
		<path class="st75" d="M206.0362,437.4282l4.6221-10.4842c0,0,0.9019-4.3966,1.4655-10.9352"/>
		<path class="st68" d="M204.8525,225.094c0,0-16.9101,1.0146-18.7702,11.3298l10.8224,50.0538c0,0,2.3403,8.6035,1.4238,13.5177
			l-16.9811-54.8549l-11.668-21.3018l18.2226-5.1175l12.7941-1.2366L204.8525,225.094z"/>
		<path class="st77" d="M204.0409,212.6239c0,0,13.3451,45.7199,16.8723,72.8994c0,0,3.9314,4.9834,2.9047,16.5982l-1.0147,16.8057
			c0,0-13.3909,5.6019-25.691-1.8673c0,0-1.1866-7.7678,0-15.5608l-18.0971-56.3587l-5.1171-20.2783"/>
		<path class="st79" d="M176.0228,225.094l7.5444,31.9831l14.1085,43.4884c0,0-0.9337,7.8842-0.415,8.2991
			c0,0,7.0657,3.6312,16.2927,3.1123c9.227-0.5189,0,0,0,0s-15.6703-5.0834-12.7656-11.1002c0,0-7.7484-35.9973-13.5219-46.1637
			c0,0,5.3124-10.6851,2.3111-20.1253C189.577,234.5876,184.2467,218.8163,176.0228,225.094z"/>
		<path class="st68" d="M198.6159,322.2498c0,0,0.1231,31.8211,1.9126,42.4792c0,0-0.5798-27.9328,3.0557-32.9901
			c0,0,5.814-8.6362,18.2626-0.9337l0.3708-7.534C222.2177,323.2713,209.152,327.8547,198.6159,322.2498"/>
		<path id="Cuello_1_" class="st85" d="M113.3729,155.0811l-1.7484,20.2094c0,0-4.8711,9.5208-15.2776,10.2958l26.3484,25.4627
			l38.0813-31.6623c0,0-8.5436-0.2214-10.2489-6.6425l-3.0024-25.8502L113.3729,155.0811z"/>
		<path id="Sombra_cuello_1_" class="st74" d="M148.8074,161.2119c0,0-28.6153-1.7525-37.1829,14.0786l1.933-20.2094l33.7951-8.187
			L148.8074,161.2119z"/>
		<g>
			<path class="st77" d="M174.3046,181.6798C174.792,181.7506,174.8966,181.7658,174.3046,181.6798L174.3046,181.6798z"/>
			<path class="st77" d="M204.8524,217.4845c0,0-2.3674-26.4925-22.2172-33.4819c0,0-3.9491-1.4163-8.6409-2.3677
				c0.1194,0.0173,0.2226,0.0322,0.3102,0.045c-0.0906-0.0131-0.1965-0.0285-0.3108-0.0451
				c-1.6987-0.3444-3.4926-0.6275-5.2345-0.7604l-0.0006-0.0001l0.0006,0.0001l-0.0006-0.0001l0,0
				c-13.4081-1.9479-14.6013-8.1667-14.6013-8.1667c1.5561-6.6911-1.9624-5.229-1.9624-5.229c2.0834-5.8515,0-6.1286,0-6.1286
				c-14.3592,9.6495-39.6428,5.0171-39.6428,5.0171c-6.7489-1.9836-4.1652,5.2386-4.1652,5.2386
				c-2.2001,3.5665,0.9235,3.5407,0.9235,3.5407c-3.6107,3.5281-0.9235,4.0967-0.9235,4.0967
				c-4.223,5.2907-16.4727,7.9683-16.4727,7.9683l0,0c-5.7653-0.0201-14.9881,1.3255-19.975,9.3046
				c0,0-7.2713,13.0208-9.1315,24.6887c0,0,4.6785,7.5531,22.8286,7.7786c0,0-10.6534,18.7702,4.7348,31.4527l8.1168,36.6949
				c0,0-13.359,49.0392-20.9685,60.8763c0,0,20.292,7.1022,58.0015,6.2567c0,0,27.0561,2.5366,60.7072-9.6387
				c0,0-22.8287-46.3336-23.1668-54.4504l1.5219-33.3128c0,0,13.6972-9.1315,12.5135-29.7618c0,0-0.8455-4.7348-5.073-12.3443"/>
		</g>
		<path class="st78" d="M117.7374,272.6374c0,0-3.1284-16.4852,3.4102-26.1803c0,0-1.8037-10.597,6.5386-13.7535l8.3423-3.2129
			l1.8037-15.3318l10.0443,3.3257v41.7195l-5.3111,36.8644h23.6758l3.4384,6.0792c0,0-29.7538,9.2184-47.63,1.8037
			C122.0494,303.9513,112.5234,291.1517,117.7374,272.6374z"/>
		<path id="sombra_camisa_1_" class="st79" d="M87.8644,226.9541l-1.6643,2.0292c0,0-11.8371,18.6011,4.7348,31.4527l8.1168,36.6949
			c0,0-15.4445,55.1832-20.9685,60.8763c0,0,61.1017,15.5009,111.4938-1.7474c0,0-95.711,11.6116-83.0849-10.146
			c0,0-19.7284-11.8371,7.7841-45.8502l-16.6901-39.6021C97.5862,260.6615,79.6615,250.6282,87.8644,226.9541z"/>
		<path class="st116" d="M143.4689,214.1588c0,0-15.1063,71.0787-16.6846,78.0682l-1.0146,5.073c0,0,7.3277,5.9749,44.9808,0
			c0,0-4.0518-1.6262,5.1857-40.2428c0,0-3.7202,16.2305,10.1461-40.9255C186.0823,216.1317,178.98,217.5972,143.4689,214.1588z"/>
		<path class="st117" d="M144.8201,214.2883c0,0-13.0907,71.3438-9.2502,74.0494c0,0-13.8349,9.385,32.7123,9.3428
			c0,0-31.9401,5.4534-42.5126-0.3804l17.6992-83.1412L144.8201,214.2883z"/>
		<path id="Brazo_izq_1_" class="st67" d="M64.5834,221.9656c0,0-10.6252,38.6959-14.909,70.9378c0,0-6.9895,14.8809,3.1565,13.7535
			c0,0,47.2344,1.1273,76.9961-19.8412c0,0,20.0677,1.0992,34.6104-14.8809c0,0,7.4404-11.2734,4.2839-18.7138l3.1566-2.4801
			c0,0,3.1565-1.5783,1.5783-5.1858c0,0-0.6764-3.1565-12.1753,5.4112c0,0-9.2442,4.5094-11.9498,6.5386
			c0,0-15.7827,6.3131-13.7535-2.7056c0,0,0.3382-5.1857,1.4092-8.3423c0,0,4.1148-8.7932,0-9.0187c0,0-1.4922-1.8037-5.5091,6.9895
			l-4.2424,7.215c-0.8741,0.0508-6.902,17.2876-5.6367,21.194c0,0-39.4568,4.7348-48.9265,11.2734
			c0,0,9.7812-43.2898,12.8517-55.6905C85.5237,228.4196,72.362,221.9656,64.5834,221.9656z"/>
		<path class="st68" d="M62.8078,228.7044c0,0,10.2485,2.9673,14.4781,8.9404c2.0092,2.8374-4.6139,46.4654-4.6139,46.4654
			l3.8768-2.2512l10.6095-50.6197l-23.079-7.4008L62.8078,228.7044z"/>
		<path class="st68" d="M47.9016,297.9264c0,0-0.6511,6.1376,4.0837,6.6449c0,0,44.988,0.6779,76.268-18.9385
			c0,0,21.6413-0.8463,36.184-13.6979c0,0-10.3737,14.3736-34.6104,14.8809c0,0-21.7002,18.7138-76.9961,19.8412
			C52.8309,306.657,45.4307,307.8921,47.9016,297.9264z"/>
		<path id="dedo_izq1_1_" class="st75" d="M168.88,253.2211l-12.2675,9.9206c0,0-3.7821,2.2547-8.736,2.0292"/>
		<path id="dedo_izq2_1_" class="st75" d="M169.4435,256.1614l-8.2556,9.5815c0,0-3.9653,5.6001-9.5536,5.6001"/>
		<path id="dedo_izq3_1_" class="st75" d="M169.0535,261.1895l-6.2226,8.7162c0,0-2.8747,4.143-9.0469,6.6795"/>
		<path class="st77" d="M63.3239,218.5292c0,0-11.9198,47.8235-15.0319,70.7911c0,0-6.635,19.9112,4.5389,17.3367
			c11.1739-2.5745,0,0,0,0s14.964,2.1039,30.5248-1.8382c0,0-5.8094-15.9758,0-26.3496l-6.8068,3.3899l12.4696-56.765"/>
		<circle class="st82" cx="130.0381" cy="223.9025" r="0.9596"/>
		<path class="st78" d="M107.7795,183.6c0,0,18.9908,14.5934,50.1124-0.7949c0,0,10.2701-3.5771,5.4463,5.8447
			c0,0-10.0092,9.8886-20.4098,10.0442c0,0,20.7742,0.4668,4.0975,4.8239c0,0-10.1235,4.357-10.2879,7.4692
			c0,0-4.1616-9.4921-10.7993-9.8033c0,0-18.7751-3.951-3.5255-4.6208C122.4133,196.5629,107.1504,190.9136,107.7795,183.6z"/>
		<path class="st78" d="M108.7976,179.0874c0,0-1.0114,3.8902-16.7279,8.8697c0,0-11.3547-1.6762-19.6821,7.8759
			c0,0-6.9788,13.0274-9.261,25.2167l-8.1435,34.7006c0,0-6.5355,30.9351-6.3799,33.57c0,0-4.4608,14.0461,0.2075,16.5877
			c0,0,1.4005,1.6079,8.8697-0.8299l0.5706,0.5187l-3.3196,0.9337c0,0,17.5837,1.2448,27.9057-1.8673
			c0,0-2.2822-4.1495-2.4379-7.8323c0,0-12.6561,7.3654-17.0131,2.2304c0,0-17.065,7.6248-11.4113-5.7575l17.065-74.7746
			c0,0-0.882-23.0511,21.7591-28.238C90.7988,190.2912,105.6416,185.9137,108.7976,179.0874"/>
		<path class="st81" d="M107.4171,180.289c0,0,5.2707,8.913,25.5775,19.8055c0,0,21.0709-10.4258,23.023-24.4305"/>
		<path class="st82" d="M133.3985,203.2845h-0.8467c-0.1416,0-0.2574-0.1158-0.2574-0.2574v-3.2975
			c0-0.1416,0.1158-0.2574,0.2574-0.2574h0.8467c0.1416,0,0.2574,0.1158,0.2574,0.2574v3.2975
			C133.656,203.1686,133.5401,203.2845,133.3985,203.2845z"/>
		<path class="st81" d="M132.9752,203.2845c0,0,0.5381,26.2718,4.9989,33.741"/>
		<path class="st81" d="M132.9752,203.2845c0,0-0.188,15.9498-2.9371,20.8774"/>
		<path class="st118" d="M103.8362,25.5033L60.1605,73.004c0,0-6.4964,35.4886,19.3588,52.5789c0,0-3.6534-2.8784-3.4873-6.421
			c0,0,2.3952,5.0925,8.2552,7.3067c0,0-2.0606-2.816-1.2001-4.7292c0,0,2.1465,4.6947,10.5816,7.369L103.8362,25.5033z"/>
		<path id="Cara_4_" class="st85" d="M88.4867,96.1246c0,0,1.1071,14.2913,4.3836,29.393c0,0,4.2515,13.2394,16.3187,24.8083
			c0,0,5.7014,9.2994,15.1669,9.1334c0,0,10.0164,1.6606,18.6252-9.1334c0,0,17.2781-10.4443,20.7313-31.3856l3.9855-29.2171
			l-3.3212-25.251l-10.4619-20.0934l-1.9927-8.3031l-20.0934,5.6461L98.7825,54.8407L87.3534,67.4614L88.4867,96.1246z"/>
		<path id="Sombra_cara_1_" class="st68" d="M149.2789,55.505c0,0-14.4688,15.2776-34.0602,14.2813
			c0,0-10.3336-2.3258-19.0932,9.9711c0,0-5.3935,8.7197-0.704,18.0562c0,0-7.5991,11.1632,2.5307,33.7475
			c0,0,7.0299,11.6243,11.2368,15.6098c0,0,12.6386,19.0547,31.5883,5.6249c0,0-16.5321,17.2915-31.5883-2.4697
			c0,0-13.7675-11.1261-18.9853-30.9212c0,0-4.7061-11.7565-5.0383-14.7456l-9.1334-7.5778l1.8267-12.6158
			c0,0,4.4837-2.9997,4.9818-3.2764c0.4982-0.2768,2.3249,3.5426,2.3249,3.5426s2.051,3.3726,2.1879,2.2675
			c0.1369-1.1051,6.2343-20.5343,6.4238-21.1985s17.626-10.2958,17.626-10.2958l12.2885-3.6533l14.1152-6.3103l10.794-4.3176
			l8.7459,13.2849C157.3467,54.5086,151.6655,53.2888,149.2789,55.505z"/>
		<path id="sombra_oreja_izq_1_" class="st86" d="M83.1173,90.2922c0,0,0.3875,3.997,3.3212,7.5214c0,0,2.3831-0.2397,0.9148,2.2512
			c0,0-0.9148,2.3249-2.7968-1.7713C84.5565,98.2934,82.8406,96.074,83.1173,90.2922z"/>
		<path id="barbilla_4_" class="st98" d="M124.7434,147.8904c0,0,4.8158,3.5426,8.1924-0.9964
			C132.9357,146.894,130.1127,148.3886,124.7434,147.8904z"/>
		<path id="oreja_der_4_" class="st85" d="M160.8779,129.0584c-0.9709,0.8557,5.3254-9.4538,6.3218-19.7496
			c0,0,3.3731,5.5864,7.0658,0c0,0,8.2118-12.1824,5.6655-21.7563c0,0-4.2636-12.1202-7.9993-5.9205l-4.2339,8.0914"/>
		<path id="Sobra_oreja_der_4_" class="st86" d="M173.8421,91.2974c0,0,1.2178,9.4258-1.9927,13.1651
			c0,0-2.8784,0.1966-2.2141-2.6818c0,0,0.589-1.232,1.0141-1.0589C170.6494,100.7219,173.7336,98.9833,173.8421,91.2974z"/>
		<path id="cabello_4_" class="st118" d="M85.1654,47.2019c0,0,10.6279-12.2885,23.2486-14.2813c0,0-15.9419,8.3031-15.9419,21.588
			c0,0-13.3956,16.9383-1.6606,42.1796c0,0-9.2994-24.5771,21.2558-34.2086c0,0,27.5662,0,35.5371-17.6025
			c0,0-0.9964,7.6388,6.3103,7.3067c0,0-3.3212,15.9419,8.6352,19.5952c0,0,9.9637,16.274,0,32.2159
			c0,0,5.9782-3.6533,8.6352-18.931c0,0,7.6803-6.8915,7.4312,8.5786c0,0,0.083,17.2439-8.7922,18.241
			c0,0-0.2997,3.7356-3.6209,7.7211c0,0,3.3212,0.6642,1.6606,3.9855c0,0,4.9818-1.6606,5.6461-5.6461
			c0,0,1.9927,2.9891,1.3285,5.6461c0,0,3.9855-3.6533,2.3249-11.2922c0,0,2.3249,1.6606,1.6606,7.6388
			c0,0,3.3212-5.314,3.3212-11.9564c-2.1336,8.4985-0.1814,9.6816-2.823,15.6098c0,0,21.0898,2.657,22.0862-34.8729
			c0,0-5.6461-54.4681-47.4935-57.1251c0,0-3.9855-36.2014-58.4536-4.3176C95.4612,27.2746,85.1654,35.2455,85.1654,47.2019z"/>
		<path id="mechon_izq_4_" class="st87" d="M95.4612,27.2746c0,0-53.8039,25.5734-28.5625,76.3882c0,0-1.6606-8.6352,4.6497-18.931
			c0,0-2.5463,29.3375,22.8526,36.0907c0,0-7.1435-5.0844-6.8-13.9492c0,0-10.5022-6.5317-9.7901-15.8312
			c0,0,0.7121-10.96,7.3546-6.3103c0,0,2.657,11.9564,5.6461,11.9564c0,0-11.7904-19.9274,1.6606-42.1796
			c0,0-1.8267-11.1261,15.9419-21.588c0,0-13.451,2.1588-23.2486,14.2813C85.1654,47.2019,83.3388,38.5667,95.4612,27.2746z"/>
		<path id="sombra_cabello_der_4_" class="st87" d="M153.9148,31.5922c0,0,39.1905-0.0011,47.4935,57.1251
			c0,0,0.8303,33.2122-22.0862,34.8729c0,0,3.2899-5.49,2.823-15.6098c0,0,6.1443,0.9964,7.1406,6.4764
			C189.2858,114.4567,215.3575,64.6384,153.9148,31.5922z"/>
		<path id="sombra_cabello_der_2_4_" class="st87" d="M167.4488,110.0146c0,0,0.6366,3.5663-3.3766,13.4094
			c0,0,5.5631-3.0445,3.7917,0.1661c0,0,4.8711-1.9374,5.6461-5.6461c0,0,2.6016,2.4356,1.3285,5.6461
			c0,0,4.0897-4.4867,2.3249-11.2922c0,0,2.9891,1.5499,1.6606,7.6388c0,0,4.7051-8.6905,3.2105-14.558
			c0,0-0.5398,2.7331-1.7713,3.598s-3.1549-0.1384-2.6014-2.9338c0,0,2.148-15.444,0.7194-18.4328c0,0,1.0348,5.5979-0.0129,11.3805
			C176.9456,106.8428,172.8043,115.0354,167.4488,110.0146z"/>
		<g id="ojo_der_4_">
			<path id="parpado_der_4_" class="st88" d="M131.7733,90.876c0,0,1.6053-8.5798,10.1851-10.794c0,0,9.853-2.4356,12.3992,6.0336
				l-0.5535,2.0171c0,0-3.6534-4.3419-9.9083-4.0757C143.8958,84.057,134.3196,85.8389,131.7733,90.876z"/>
			<path id="pestaña_der_4_" class="st89" d="M132.5482,91.7063l-0.7749,0.5118V90.876c0,0,5.0105-6.7637,12.1225-6.819
				c0,0,6.1996-0.377,9.6869,3.5532c0,0,1.1624,0.4428,2.4356-1.0517c0,0-0.7749,2.657-2.7677,2.6016L132.5482,91.7063z"/>
			<path class="st90" d="M132.5482,91.7063c0,0-0.4428,5.8675,9.4101,7.5281c0,0,8.5245,2.4239,11.2922-10.0744
				C153.2505,89.1601,145.6117,78.3107,132.5482,91.7063z"/>
			<circle class="st91" cx="146.0901" cy="91.9349" r="4.4375"/>
			<circle cx="146.338" cy="92.5865" r="2.7481"/>
			<circle class="st3" cx="144.0954" cy="91.2009" r="0.9621"/>
			<circle class="st3" cx="142.7883" cy="89.6243" r="0.6171"/>
			<path id="ceja_der_4_" class="st92" d="M131.7733,81.1891v-2.4356c0,0,10.7386-11.4029,24.2449-2.0918
				C156.0182,76.6618,141.9584,70.8933,131.7733,81.1891z"/>
		</g>
		<g id="Ojo_izq_4_">
			<path id="parpado_izq_4_" class="st88" d="M115.2187,90.7602c0,0-1.4797-7.9087-9.3884-9.9496c0,0-9.0822-2.245-11.4293,5.5616
				l0.5102,1.8593c0,0,3.3676-4.0023,9.1332-3.7569C104.0445,84.4746,112.8716,86.117,115.2187,90.7602z"/>
			<path id="pestaña_izq_4_" class="st89" d="M114.5043,91.5255l0.7143,0.4717v-1.2371c0,0-4.6185-6.2346-11.1742-6.2856
				c0,0-5.7147-0.3475-8.9292,3.2752c0,0-1.0715,0.4082-2.245-0.9695c0,0,0.7143,2.4491,2.5512,2.3981L114.5043,91.5255z"/>
			<path id="cuenca_izq_4_" class="st90" d="M114.5043,91.5255c0,0,0.4082,5.4085-8.674,6.9392c0,0-7.8577,2.2343-10.4088-9.2863
				C95.4215,89.1784,102.4628,79.1778,114.5043,91.5255z"/>
			<circle id="iris_izq_4_" class="st91" cx="107.507" cy="91.9349" r="4.0904"/>
			<circle id="pupila_izq_4_" cx="107.507" cy="92.3715" r="2.5331"/>
			<circle id="brillo_1_izq_4_" class="st3" cx="105.6923" cy="90.9081" r="0.8869"/>
			<circle id="brillo_2_izq_4_" class="st3" cx="104.4051" cy="89.2362" r="0.5689"/>
			<path id="ceja_izq_4_" class="st92" d="M116.1954,79.7573v-2.4356c0,0-9.9296-11.4029-22.4183-2.0918
				C93.7772,75.23,106.7777,69.4615,116.1954,79.7573z"/>
		</g>
		<g id="Boca_1_">
			<path class="st96" d="M113.3729,134.0983c0,0,2.0155,5.0975,10.8279,5.7705c0,0,15.6083,1.1537,18.3464-10.5759l-16.6878,1.1537
				L113.3729,134.0983z"/>
			<path class="st97" d="M112.5041,133.9079c0,0,3.4304-2.3434,5.2365-5.0957c0,0,3.4165-3.7496,7.1661,0
				c0,0,1.9351-3.2117,4.55-3.2293c2.9493-0.0199,6.3143,5.5368,13.0905,3.71c0,0-6.6387,6.1165-16.4549,3.4612
				C126.0923,132.7541,119.2342,135.1577,112.5041,133.9079z"/>
			<path class="st97" d="M140.5997,130.6963c0,0,2.5765-1.5708,4.6799-3.0654"/>
		</g>
		<path id="Nariz_4_" class="st93" d="M119.1526,87.5525c0,0,2.2142,17.9923-1.9927,24.3026c0,0-2.5463,8.6352,11.1814,4.3176"/>
		<path id="sombra_seno_izq_1_" class="st79" d="M97.5862,260.6615c0,0-16.7706-11.8934-8.5677-35.5675l-2.8183,3.8893
			c0,0-11.8371,18.6011,4.7348,31.4527l1.0508,4.7507h7.5076L97.5862,260.6615z"/>
		<path class="st79" d="M108.387,171.6056c0,0,16.7754,4.2659,37.5231-2.3734C145.9101,169.2322,130.5136,178.9584,108.387,171.6056
			"/>
		<path class="st79" d="M108.7976,179.0874c0,0,8.0916,7.7026,42.3254,0.9337c0,0-36.1011,3.7346-41.6252-4.357
			C109.4978,175.664,106.1522,178.3094,108.7976,179.0874z"/>
		<path class="st79" d="M151.512,168.1948c0,0-6.4318,9.6477-32.159,8.2991c0,0,15.9758,4.772,32.4702-6.0168
			c0,0,1.961-2.6636,2.2952-0.9985C154.1184,169.4786,154.3518,166.4832,151.512,168.1948"/>
		<path class="st79" d="M108.387,169.2322c0,0-0.9899-3.4493,3.2893-2.5157c0,0,27.387,5.0573,40.5359-4.8239
			c0,0-7.6073,11.1778-39.6324,7.3395C112.5798,169.2322,110.6995,164.9011,108.387,169.2322z"/>
		<path class="st80" d="M195.2379,308.8645c0,0,16.1832,6.2243,29.5655,1.0893l-0.8145,12.7599c0,0-16.7692,6.2243-28.751-2.4897
			V308.8645z"/>
		<path id="puño_mang_izq_1_" class="st80" d="M81.644,277.6651c0,0-5.3685,14.3159,1.5561,28.0094l11.4372-2.3341
			c0,0-6.3799-15.3568-2.1785-26.7553L81.644,277.6651z"/>
		<g>
			
				<ellipse transform="matrix(0.0387 -0.9993 0.9993 0.0387 -21.1808 184.2406)" class="st99" cx="85.1654" cy="103.1287" rx="2.1802" ry="2.1802"/>
			<path class="st100" d="M85.0815,101.8406c0,0,1.5245,0.4458,1.1793,2.3443c0,0,0.8131-1.1832,0.1438-2.1717
				C86.4047,102.0132,86.0164,101.3804,85.0815,101.8406z"/>
		</g>
		<g>
			
				<ellipse transform="matrix(0.0387 -0.9993 0.9993 0.0387 54.8411 275.0112)" class="st99" cx="170.3528" cy="109.0029" rx="2.1802" ry="2.1802"/>
			<path class="st100" d="M170.2689,107.7148c0,0,1.5245,0.4458,1.1794,2.3443c0,0,0.8131-1.1832,0.1438-2.1717
				C171.5921,107.8874,171.2037,107.2546,170.2689,107.7148z"/>
		</g>
		<path class="st119" d="M169.9387,88.2784L169.9387,88.2784l-11.0865,1.2592l-0.7435-4.0019l-0.762,0.1621
			c-16.0787-13.0807-32.449,2.7048-32.449,2.7048l0.433,3.2152l-4.2947,0.3181l0.4329-3.2152c0,0-16.3702-15.7855-32.4489-2.7048
			l-0.762-0.1621l-0.9169,6.4424l0.5348,0.2429c0,0,1.2989,12.9241,10.7732,12.762c0,0,14.2114,2.1721,18.3373-5.1938
			c0,0,2.445-4.1153,2.1394-8.1715c0,0,1.0697-1.2108,1.9101,0l4.2947-0.3181c0.8405-1.2108,1.9101,0,1.9101,0
			c-0.3056,4.0562,2.1394,8.1715,2.1394,8.1715c4.1259,7.366,18.3373,5.1939,18.3373,5.1939
			c9.4743,0.1621,10.7732-12.762,10.7732-12.762l0.5348-0.2429l-0.1733-2.4405L169.9387,88.2784z"/>
		<path class="st120" d="M169.9387,88.2784L169.9387,88.2784l-11.0865,1.2592l-0.7435-4.0019l-0.762,0.1621
			c-16.0787-13.0807-32.449,2.7048-32.449,2.7048l0.433,3.2152l-4.2947,0.3181l0.4329-3.2152c0,0-16.3702-15.7855-32.4489-2.7048
			l-0.762-0.1621l-0.9169,6.4424l0.5348,0.2429c0,0,1.2989,12.9241,10.7732,12.762c0,0,14.2114,2.1721,18.3373-5.1938
			c0,0,2.445-4.1153,2.1394-8.1715c0,0,1.0697-1.2108,1.9101,0l4.2947-0.3181c0.8405-1.2108,1.9101,0,1.9101,0
			c-0.3056,4.0562,2.1394,8.1715,2.1394,8.1715c4.1259,7.366,18.3373,5.1939,18.3373,5.1939
			c9.4743,0.1621,10.7732-12.762,10.7732-12.762l0.5348-0.2429l-0.1733-2.4405L169.9387,88.2784z"/>
	</g>
</g>
</svg>
