<?xml version="1.0" encoding="utf-8"?>
<!-- Generator: Adobe Illustrator 21.0.2, SVG Export Plug-In . SVG Version: 6.00 Build 0)  -->
<svg version="1.1" id="Capa_1" xmlns="http://www.w3.org/2000/svg" xmlns:xlink="http://www.w3.org/1999/xlink" x="0px" y="0px"
	 viewBox="0 0 283.4764 534.5118" style="enable-background:new 0 0 283.4764 534.5118;" xml:space="preserve">
<style type="text/css">
	.st0{fill-rule:evenodd;clip-rule:evenodd;fill:#DDDDDD;}
	.st1{fill:#3B86B1;}
	.st2{opacity:0.25;fill-rule:evenodd;clip-rule:evenodd;fill:#020202;}
	.st3{fill:#FFFFFF;}
	.st4{opacity:0.5;}
	.st5{fill-rule:evenodd;clip-rule:evenodd;fill:#A8A8A8;}
	.st6{fill-rule:evenodd;clip-rule:evenodd;fill:#FFFFFF;}
	.st7{fill-rule:evenodd;clip-rule:evenodd;fill:#3B86B1;}
	.st8{opacity:0.5;fill:#2C6882;}
	.st9{opacity:0.75;fill-rule:evenodd;clip-rule:evenodd;fill:#282828;}
	.st10{opacity:0.5;fill:#FFFFFF;}
	.st11{fill-rule:evenodd;clip-rule:evenodd;fill:none;stroke:#FFFFFF;stroke-miterlimit:10;}
	.st12{fill:none;stroke:#FFFFFF;stroke-miterlimit:10;}
	.st13{fill:#FFFFFF;stroke:#3B86B1;stroke-width:1.7139;stroke-miterlimit:10;}
	.st14{fill-rule:evenodd;clip-rule:evenodd;}
	.st15{opacity:0.85;fill:#FFFFFF;}
	.st16{opacity:0.5;fill-rule:evenodd;clip-rule:evenodd;}
	.st17{fill-rule:evenodd;clip-rule:evenodd;fill:#FEFEFE;}
	.st18{fill:#312767;}
	.st19{opacity:0.48;}
	.st20{opacity:0.25;}
	.st21{fill-rule:evenodd;clip-rule:evenodd;fill:#020202;}
	.st22{opacity:0.25;clip-path:url(#XMLID_1539_);}
	.st23{fill:#FFFFFF;stroke:#312767;stroke-miterlimit:10;}
	.st24{fill:#ACABC9;}
	.st25{fill-rule:evenodd;clip-rule:evenodd;fill:#312767;}
	.st26{opacity:0.77;fill:#312767;}
	.st27{opacity:0.25;clip-path:url(#XMLID_1547_);}
	.st28{fill:#54518C;}
	.st29{fill:#FFFFFF;stroke:#FFFFFF;stroke-miterlimit:10;}
	.st30{opacity:0.25;fill-rule:evenodd;clip-rule:evenodd;fill:#FFFFFF;}
	.st31{fill:#D4A800;}
	.st32{fill:#00AEB3;}
	.st33{fill:#38353B;}
	.st34{fill:#FF8400;}
	.st35{fill:#BF3900;}
	.st36{fill:#00AA9C;}
	.st37{opacity:0.25;clip-path:url(#XMLID_1553_);}
	.st38{fill:none;stroke:#ACABC9;stroke-width:5;stroke-miterlimit:10;}
	.st39{opacity:0.25;clip-path:url(#XMLID_1576_);}
	.st40{fill:#DDDDDD;}
	.st41{opacity:0.25;clip-path:url(#XMLID_1593_);}
	.st42{fill-rule:evenodd;clip-rule:evenodd;fill:#FFFFFF;stroke:#FFFFFF;stroke-miterlimit:10;}
	.st43{fill:#F79748;}
	.st44{fill:#FF7900;}
	.st45{fill:#DD7105;}
	.st46{fill:#02897C;}
	.st47{fill:#0EAD9A;}
	.st48{fill:#28C6AF;}
	.st49{fill:#4FE0C7;}
	.st50{fill:#D37D00;}
	.st51{fill:#D14600;}
	.st52{fill:#E5B92E;}
	.st53{fill:#DD571B;}
	.st54{fill:#E28A17;}
	.st55{opacity:0.25;clip-path:url(#XMLID_1594_);}
	.st56{opacity:0.77;fill:#FFFFFF;}
	.st57{fill:#50565B;stroke:#656C70;stroke-miterlimit:10;}
	.st58{fill:#808589;stroke:#656C70;stroke-miterlimit:10;}
	.st59{fill:#252728;stroke:#000000;stroke-miterlimit:10;}
	.st60{fill:#1A1B1C;stroke:#000000;stroke-miterlimit:10;}
	.st61{fill:#A0A6AA;}
	.st62{fill:#262C35;stroke:#161A1E;stroke-miterlimit:10;}
	.st63{fill:#181D23;}
	.st64{fill:#EABA96;stroke:#E0AA86;stroke-miterlimit:10;}
	.st65{fill:#E0AA86;}
	.st66{stroke:#000000;stroke-width:0.75;stroke-linecap:square;stroke-linejoin:bevel;stroke-miterlimit:10;}
	.st67{fill:#0F1C3F;stroke:#182951;stroke-miterlimit:10;}
	.st68{fill:#132354;stroke:#3F6093;stroke-miterlimit:10;}
	.st69{fill:#0F1C3F;}
	.st70{fill:none;stroke:#3F6093;stroke-width:0.75;stroke-miterlimit:10;}
	.st71{fill:#DBA682;}
	.st72{fill:none;stroke:#E0AA86;stroke-miterlimit:10;}
	.st73{fill:none;stroke:#E0AA86;stroke-linejoin:bevel;stroke-miterlimit:10;}
	.st74{fill:#8A0A8E;stroke:#AC34B2;stroke-miterlimit:10;}
	.st75{fill:#810C87;}
	.st76{fill:#680B6D;}
	.st77{fill:#AC34B2;stroke:#AC34B2;stroke-width:0.5;stroke-miterlimit:10;}
	.st78{fill:none;stroke:#959DA0;stroke-width:0.5;stroke-miterlimit:10;}
	.st79{fill:#959DA0;stroke:#959DA0;stroke-width:0.5;stroke-miterlimit:10;}
	.st80{fill:none;stroke:#AC34B2;stroke-miterlimit:10;}
	.st81{fill:#282828;stroke:#000000;stroke-miterlimit:10;}
	.st82{fill:#EABA96;stroke:#E0AA86;stroke-width:0.5;stroke-miterlimit:10;}
	.st83{fill:#B7896A;}
	.st84{stroke:#000000;stroke-miterlimit:10;}
	.st85{fill:#C1A578;}
	.st86{stroke:#000000;stroke-width:0.25;stroke-linecap:round;stroke-linejoin:round;stroke-miterlimit:10;}
	.st87{fill:#FFFFFF;stroke:#000000;stroke-width:0.25;stroke-linecap:round;stroke-linejoin:round;stroke-miterlimit:10;}
	.st88{fill:#70582D;}
	.st89{stroke:#000000;stroke-linecap:round;stroke-linejoin:round;stroke-miterlimit:10;}
	.st90{fill:none;stroke:#D8A27D;stroke-width:0.75;stroke-miterlimit:10;}
	.st91{fill:#561409;}
	.st92{fill:#BA2A13;}
	.st93{fill:#9E3025;stroke:#4C2311;stroke-width:0.25;stroke-miterlimit:10;}
	.st94{fill:#871D08;stroke:#4C2311;stroke-width:0.25;stroke-miterlimit:10;}
	.st95{fill:#DDAC8A;}
	.st96{fill:#A5ABAD;stroke:#959DA0;stroke-width:0.5;stroke-miterlimit:10;}
	.st97{fill:#B1BABC;}
	.st98{fill:#FCFCFC;}
	.st99{fill:none;stroke:#153847;stroke-width:5;stroke-miterlimit:10;}
	.st100{fill:#3CA7AF;}
	.st101{fill:#3DAD8D;}
	.st102{fill:#3DAA61;}
	.st103{fill:#67A53F;}
	.st104{fill:#95A340;}
	.st105{opacity:0.25;clip-path:url(#XMLID_1623_);}
	.st106{opacity:0.25;clip-path:url(#XMLID_1631_);}
	.st107{opacity:0.25;clip-path:url(#XMLID_1633_);}
	.st108{clip-path:url(#SVGID_2_);}
	.st109{fill:none;stroke:#3F6093;stroke-miterlimit:10;}
	.st110{fill:none;stroke:#3F6093;stroke-width:0.75;stroke-linecap:round;stroke-linejoin:round;}
	.st111{fill:none;stroke:#3F6093;stroke-width:0.75;stroke-linecap:round;stroke-linejoin:round;stroke-dasharray:0.9892,0.9892;}
	
		.st112{fill:none;stroke:#3F6093;stroke-width:0.75;stroke-linecap:round;stroke-linejoin:round;stroke-miterlimit:10;stroke-dasharray:1;}
	.st113{fill:#EAEAEA;stroke:#FFFFFF;stroke-width:0.25;stroke-miterlimit:10;}
	.st114{fill:#D8D8D8;}
	.st115{fill:#282828;stroke:#000000;stroke-width:0.75;stroke-miterlimit:10;}
	.st116{opacity:0.33;fill:#FFFFFF;}
	.st117{fill:none;stroke:#000000;stroke-width:1.5;stroke-linecap:round;stroke-linejoin:round;stroke-miterlimit:10;}
	.st118{opacity:0.64;}
	.st119{fill:#1D1D1B;}
	.st120{fill:#C9C9C9;}
</style>
<g>
	<path class="st57" d="M46.6497,352.5665l1.9133-3.5204c0,0-10.4082,2.9081-10.4847-3.5204
		c-0.0765-6.4286-0.3827-58.1633-0.3827-58.1633l-3.6735-0.4592l0.3827,63.3674l1.9898,3.903l5.0893-0.3826L46.6497,352.5665"/>
	<path class="st58" d="M46.6497,352.5665c0,0-10.8674,1.4838-10.8674-5.2275v-60.4358h-8.8776v60.4358
		c0,0-1.199,13.0779,9.3367,13.1102l10.5358,0.0324L46.6497,352.5665z"/>
	<rect x="102.0579" y="429.5987" class="st58" width="9.949" height="45.2639"/>
	<path class="st59" d="M113.3778,430.616h-12.9969c-1.7174,0-3.1321-1.3489-3.2138-3.0644l-2.303-48.3524h24.0306l-2.303,48.3524
		C116.5099,429.2671,115.0952,430.616,113.3778,430.616z"/>
	<circle class="st60" cx="107.0324" cy="521.5035" r="12.5082"/>
	<circle class="st60" cx="143.8194" cy="519.0546" r="11.9377"/>
	<circle class="st60" cx="70.2661" cy="519.0546" r="11.9377"/>
	<circle class="st61" cx="107.0324" cy="521.5035" r="8.7462"/>
	<circle class="st61" cx="143.8194" cy="519.0546" r="7.7633"/>
	<circle class="st61" cx="70.2661" cy="519.0546" r="7.7633"/>
	<circle class="st60" cx="107.006" cy="520.2191" r="7.4617"/>
	<circle class="st60" cx="143.8194" cy="518.2462" r="6.5038"/>
	<circle class="st60" cx="70.2661" cy="518.2462" r="6.2972"/>
	<path class="st61" d="M111.3436,433.5592c0,0-7.5754-2.9314-7.104,4.7217v33.1633c0,0-1.2761,1.8224,5.9816,2.6204h-7.2449
		l-0.3316-42.8245h8.7755L111.3436,433.5592z"/>
	<path class="st58" d="M150.3233,491.5463c-1.8367-9.5919-20.3062-9.4898-20.3062-9.4898h-10.6633v-5.3189
		c0-1.0356-0.8394-1.875-1.875-1.875h-21.199c-1.0356,0-1.875,0.8394-1.875,1.875v5.3189H78.7926
		c-16.4286,0-14.7322,12.0408-14.7322,12.0408v15.0507c0,1.9934,1.616,3.6094,3.6094,3.6094h5.0517
		c1.9934,0,3.6093-1.616,3.6093-3.6094v-1.3672c0,0.0892,0-1.2706,0-5.6223c0-12.0408,7.972-11.3265,7.972-11.3265l16.4413-0.0737
		v19.7478c0,1.2433,1.008,2.2513,2.2513,2.2513h7.7679c1.2433,0,2.2513-1.008,2.2513-2.2513v-19.8028l16.7985-0.0753
		c6.2778,0,7.4398,5.6505,7.6148,8.6806v10.9425c0,1.3842,1.1221,2.5064,2.5064,2.5064h7.2576c1.3842,0,2.5064-1.1222,2.5064-2.5064
		v-18.1372c0-0.032-0.0082-0.0618-0.0094-0.0935L150.3233,491.5463z"/>
	<path class="st61" d="M107.167,485.2708c0,0-6.0275-0.5357-5.7979,4.9745l-0.0064,18.8266c0,0-0.7589,3.6116,3.6033,2.8772
		c0,0-1.3776,0.1075-2.0663-3.3364l-0.1531-18.4439C102.7467,490.1687,103.475,486.3422,107.167,485.2708z"/>
	<path class="st61" d="M107.0324,475.5514h-9.4133c0,0-3.2908-0.7653-2.5255,3.2143l-0.1154,3.9796l3.1001-5.2806L107.0324,475.5514
		z"/>
	<path class="st61" d="M73.3589,483.3575c0,0-8.8776,0.8419-8.4949,12.0919l-0.012,12.6276c0,0-1.4421,4.3622,5.3692,3.8265
		c0,0-2.9847-0.9949-2.6786-7.1939l0.1531-12.5511C67.6956,492.1585,67.466,487.6432,73.3589,483.3575z"/>
	<path class="st62" d="M68.7636,158.1204c0,0-4.1068-10.9957-33.7218-10.4017c0,0-31.2453-8.4644-34.5056,60.2164v61.5529
		c0,0-2.4453,42.4707,32.8754,41.2827c0,0,37.4943,2.83,36.9509-30.0668L68.7636,158.1204"/>
	<path class="st63" d="M50.8003,154.03c0,0-27.4415-11.7758-33.6905,52.1382l-3.8038,70.0952c0,0-1.0868,26.1915,21.7358,26.7855
		s1.0868,1.5592,1.0868,1.5592s29.8868,2.0048,31.3811-26.8041l6.3849-97.7124C73.8946,180.0916,70.3625,153.5102,50.8003,154.03z"
		/>
	<path class="st57" d="M130.2334,384.4995H80.1579c-2.603,0-4.7327-2.1297-4.7327-4.7327v-11.6189
		c0-1.7509,1.4325-3.1834,3.1834-3.1834h53.1741c1.7509,0,3.1834,1.4325,3.1834,3.1834v11.6189
		C134.9661,382.3698,132.8364,384.4995,130.2334,384.4995z"/>
	<path class="st62" d="M142.8875,371.5461c5.0072-0.2174-13.5741,1.8979-41.4895,2.449
		c-11.1205,0.2195-32.7448-1.2245-32.7448-1.2245c-5.1926,0-24.9643-3.0612-24.9643-13.7755v-6.4286
		c0-11.7347,19.7716-15,24.9643-15c0,0,21.3848-0.3534,32.4205,0c23.7249,0.7596,54.7822,2.449,54.7822,2.449
		c5.1926,0,13.2927,6.4236,13.2927,11.3265v7.6531C168.4726,366.3421,148.0801,371.5461,142.8875,371.5461z"/>
	<path class="st63" d="M43.824,351.0086c0,0,63.4024,12.9726,124.277-2.9899s0,0,0,0s-1.3739,14.956-26.8245,18.3233
		c0,0-59.817,5.2041-83.3223,0c0,0-0.3219,4.2417,9.8896,6.4066c10.2115,2.1649,0,0,0,0s-20.4805-0.3725-24.0198-12.2671
		c-3.5393-11.8946,0,0,0,0V351.0086"/>
	<path class="st64" d="M162.2209,459.8044c0,0-4.038,14.9283-9.0723,24.2181l-2.6824,4.6758l4.2221,6.8825l7.4399,5.5082
		l7.0405,6.524c0,0,6.627,6.8911,6.8589,7.0804s10.3718,5.9252,10.3718,5.9252l6.875-0.4554c0,0,2.203-2.9755,2.3577-3.3039
		c0.1546-0.3285,0.1549-5.5367,0.1549-5.5367s-8.2368-11.4284-17.2023-19.9819c0,0-6.7533-5.5075-6.6284-8.5375l6.1069-12.9739"/>
	<path class="st64" d="M162.0142,479.8496c0,0-3.6869,2.0363-1.6159,5.8198"/>
	<path class="st65" d="M159.6277,478.0141c0,0-4.2818,5.373-4.4777,10.3174c0,0,0.4502,5.6934,8.6534,10.1951
		c0,0,7.2778,3.8485,8.0311,7.5164l-4.9492-1.3535l-11.4629-5.85l-4.3132-5.6413l1.291-8.8407c0,0,4.5057-8.4515,6.1087-13.6041"/>
	<path class="st66" d="M149.0947,490.6285c0.7558,8.5484,8.7066,11.7453,8.7066,11.7453
		c8.6841,4.8268,11.7746,11.9378,11.7746,11.9378l3.2026,4.1113c9.3332,9.7322,20.9199,8.8089,20.9199,8.8089
		c3.7476,0.1016,5.627-1.0948,6.5434-2.539l0.0222,0.0446l-1.3606,2.8905c0,0-5.1678,4.9389-19.9939-2.3492
		c0,0-4.5931-2.398-8.7114-7.4848c-0.6603-0.8156-2.2747-3.6254-3.164-5.0741c-1.5325-2.4968-4.6627-6.4158-10.3457-9.2427
		c0,0-8.4874-2.9445-8.682-10.5365L149.0947,490.6285z"/>
	<path class="st67" d="M195.787,511.3227c0,0,4.4787,5.0694,5.1009,8.7213c0,0,1.929,7.4349-7.1895,7.1877
		c0,0-11.5867,0.9233-20.9199-8.8089l-3.2027-4.1113c0,0-2.5749-7.6591-12.5618-12.2651c0,0-8.7995-3.7686-7.7303-11.3289
		l3.1165-6.3601c0,0-2.4947,8.5441,10.8295,15.2438c0,0,5.6143,2.6426,10.1077,9.6797c0,0,8.0651,11.5536,19.2575,7.8932
		C196.0956,516.0294,195.787,511.3227,195.787,511.3227z"/>
	<path class="st68" d="M62.2619,290.8318c0,0-16.0204,33.8776,8.2653,48.1633c0,0,49.1837,13.4694,102.6532,19.3878l6.7347,1.6327
		c0,0-15.1799,70.1637-21.0737,105.0205c0,0,1.6555,7.2435,18.6456,10.2204c0,0,46.2114-92.5879,49.0685-101.1593
		c0,0,19.4126-33.1729,3.9719-44.0817c0,0,30.2041-42.8572,33.6735-53.0613c0,0,18.7755-30.2041-2.449-34.6939
		c0,0-13.6735-7.551-50.8164,7.1429l-63.3674,26.3266C147.5681,275.7297,90.3232,271.444,62.2619,290.8318"/>
	<path class="st69" d="M230.7315,331.0359c0,0,12.7679,9.8884-4.4821,42.449c0,0-43.6142,95.0511-49.2264,101.3777
		c0,0-13.1499-2.0385-18.1816-9.8265c0,0,5.63-24.4013,11.8084-59.0594l49.2654-60.2469L230.7315,331.0359z"/>
	<path class="st69" d="M212.9764,249.3011c0,0,10.3061,2.0408,20.4082,0c0,0,4.5918,0.3061,4.3878,5.9184c0,0-0.8163,5,3.5714,5
		c0,0,7.2449,1.8367,11.3265-1.8367c0,0,8.8776-5.5102,13.1633,4.4898c0,0,1.9244,4.6173,1.6255,7.9209l6.5633-13.5842
		l-3.9413-12.0918l-17.9957-2.449l-21.762-1.8367L212.9764,249.3011z"/>
	<path class="st69" d="M149.2263,275.8318c0,0-1.2719,13.6735,23.9942,16.3266c0,0,24.2995,1.0394,29.4767-3.3068
		c5.1772-4.3463,0,0,0,0s-4.1362,4.6334-8.7652,21.9803c0,0-22.4862-10.1021-46.3128-15.5102l-22.398-9.5919L149.2263,275.8318z"/>
	<path class="st69" d="M83.1803,290.2706c0,0-14.4898,26.0714,7.551,34.6429c0,0,51.7467,23.9452,93.9438,7.4317l-9.456,25.6455
		c0,0-75.8183-10.3121-98.1613-17.3629c-4.865-1.5352-10-2.449-14.5867-8.4216c-5.1606-6.7199-8.6276-20.5781-0.2092-41.3744
		c15.4717-38.2205,0,0,0,0L83.1803,290.2706z"/>
	<line class="st70" x1="131.0375" y1="282.7706" x2="148.2281" y2="275.4555"/>
	<path class="st70" d="M151.7263,296.6991c0,0,31.1204,8.5824,42.2056,14.929"/>
	<path class="st64" d="M170.2432,371.7417c0,0-6.8125,13.8835-13.5269,22.0418l-3.5254,4.078l2.8311,7.5617l6.2521,6.8267
		l5.6662,7.7476c0,0,5.1902,8.029,5.3817,8.2592s9.0505,7.7956,9.0505,7.7956l6.8356,0.8649c0,0,2.7303-2.5004,2.9448-2.7933
		c0.2144-0.2929,1.2086-5.4054,1.2086-5.4054s-5.9047-12.7902-13.0732-22.8973c0,0-5.5783-6.695-4.8774-9.6455l8.4704-11.5702"/>
	<path class="st64" d="M166.2153,391.3791c0,0-4.0078,1.2953-2.6968,5.4045"/>
	<path class="st65" d="M167.455,381.1933c0,0-8.4606,12.3858-9.5964,17.202c0,0-0.6445,5.6747,6.549,11.659
		c0,0,6.4097,5.1665,6.4492,8.9108l-4.6-2.2731l-10.136-7.9299l-3.1575-6.3607l2.9543-8.4319c0,0,7.7408-10.0183,10.2975-14.7703"/>
	<path class="st66" d="M151.4763,399.4945c-0.8893,8.5356,6.3053,13.1909,6.3053,13.1909
		c7.6035,6.3952,9.2803,13.9653,9.2803,13.9653l2.3593,4.6469c7.3046,11.3344,18.8546,12.6391,18.8546,12.6391
		c3.6593,0.8148,5.7325-0.001,6.9076-1.2437l0.0133,0.0479l-1.8871,2.5778c0,0-6.0153,3.862-19.1782-6.1214
		c0,0-4.0511-3.2304-7.123-9.0096c-0.4925-0.9266-1.5411-3.9928-2.1376-5.5847c-1.0279-2.7434-3.3527-7.1876-8.3919-11.0471
		c0,0-7.7695-4.51-6.5119-11.9996L151.4763,399.4945z"/>
	<path class="st67" d="M193.3616,428.7184c0,0,3.429,5.831,3.343,9.5345c0,0,0.4748,7.6664-8.429,5.6837
		c0,0-11.55-1.3046-18.8546-12.639l-2.3593-4.6469c0,0-1.0661-8.0098-9.9905-14.4368c0,0-7.9187-5.3785-5.4264-12.5959
		l4.2728-5.6485c0,0-4.0793,7.911,7.7216,17.0302c0,0,5.0068,3.6654,8.0749,11.4306c0,0,5.7122,12.8804,17.3974,11.423
		C192.7664,433.3975,193.3616,428.7184,193.3616,428.7184z"/>
	<path class="st68" d="M228.4866,258.3828c0,0-26.1225,20-33.0613,48.7755c0,0-25.9426,61.4838-29.616,70.2594
		c0,0,2.8075,7.0671,16.2641,10.7459c0,0,48.0458-56.9236,49.4744-59.3726"/>
	<path class="st64" d="M96.6466,115.2795c0,0,1.9812,20.644,2.1296,28.0614c0,0,29.1845,15.2304,35.182,22.4005
		c0,0,2.2725-9.2964,0.9901-20.5709c0,0-5.1744-9.6467-2.8715-19.6828c2.3028-10.0361,0,0,0,0L96.6466,115.2795"/>
	<path class="st71" d="M131.7569,133.6819c0,0-13.3162-4.8791-32.9807,7.2854l-1.6318-25.4169l35.6271,7.5163
		C132.7715,123.0667,131.0686,128.8913,131.7569,133.6819z"/>
	<path class="st64" d="M153.9457,180.0664c0,0,3.4301-10.4082,17.0526-10.5612c0,0,33.8541,46.8643,39.2112,56.6602
		c0,0,19.4945-1.7078,37.1036,5.6357c0,0-16.5816,3.5204-12.0918,13.4184c0,0-17.6531,2.8571-25.3062,2.8571
		c0,0-7.9592,0.3061-11.0204-6.5306L153.9457,180.0664z"/>
	<path class="st64" d="M235.2213,245.2195c0,0,3.8265,3.3418,4.3622,6.1735c0,0,0.9949,6.5816,0.3827,10.5612
		c0,0-4.117,7.5765,0.1991,9.4133c0,0,4.7753,2.602,5.9998-7.1939c0,0,0.1531-5.2041,2.602-8.801c0,0,2.2959-7.1174,11.3265-2.0663
		l7.5,5.5867l1.5306,5.6633l-1.148,11.4031c0,0-1.6071,4.7449,1.148,5.3571c0,0,3.5969,1.9133,4.4388-4.2857
		c0,0,0.4592,4.4388,4.0561,3.0612c0,0,2.449-0.3827,0.7653-7.1173l-0.8418-2.9847c0,0,1.7602-1.9133,1.7602-5.8929
		c0,0,3.3674-2.449,3.6735-6.1225v-6.9643c0,0,0-4.7449-3.75-8.3418c0,0-7.6531-10.8272-31.5307-10.7908
		C247.6958,231.8776,230.4892,235.851,235.2213,245.2195z"/>
	<path class="st72" d="M250.888,252.56c0,0,2.0118-1.7496,2.3945-4.4813"/>
	<path class="st72" d="M269.1244,264.5562c0,0,3.7508,10.4136,4.4388,12.4745"/>
	<path class="st73" d="M277.5428,269.9899l-3.5204-12.7806c0,0,0.0765-2.602-3.3673-5.7398l-8.0357-6.352"/>
	<path class="st73" d="M269.1244,241.8266l7.3469,7.1174c0,0,2.8965,1.5931,3.0545,6.1175
		c0.0044,0.1269,0.0067,0.2561,0.0067,0.3876c0,4.8214-0.2296,8.648-0.2296,8.648"/>
	<path class="st74" d="M168.159,164.0659c0,0,2.4156,2.9475,5.1989,6.7825c9.0305,12.4428,29.1371,40.3798,37.1293,53.3671
		c0,0,1.7426-0.1452,5.5182,0c0,0-4.5356,12.8746-0.5252,23.8631c0,0-4.8477,2.4208-13.125-0.9191c0,0-4.6564,1.0356-36.599-46.6771
		l-14.9524-23.7523"/>
	<path class="st74" d="M171.4844,168.2706c0,0-9.4265-12.0308-14.6305-17.9492c0,0-2.526-4.159-14.7711-4.9208l-5.5135-4.0587
		c1.3226-4.3367-2.1265-4.1659-2.1265-4.1659c3.4852-3.3472,0-2.6637,0-2.6637c-24.0089,5.9935-37.6517,0.3725-37.6517,0.3725
		c-3.635-1.0857-1.4596,3.4361-1.4596,3.4361c-1.8275,2.0447,0.3965,4.066,0.3965,4.066c-1.4723,2.6313-3.2913,3.7706-3.2922,3.7711
		l-19.3575,8.3472c0,0-10.6123,4.898-13.1633,18.8776l-2.6009,13.4636l-0.8685,4.4957c0,0,8.8348,8.8496,24.5919,5.3061
		c0,0-1.9388,10.6123,3.5714,18.1633l4.7959,21.2245c0,0-2.4489,1.7347-0.8163,3.8776c0,0-23.7755,34.1837-26.3265,50.9184
		c0,0,33.9796-1.9388,53.5715-3.7755c0,0,23.1632-7.7343,31.7347-11.3266c0,0-0.5102-15.9184-1.7347-18.8776
		c0,0,4.0817-4.3877,1.3266-6.0204c0,0,6.9388-25.0786,6.1224-29.6704c0,0,15.2375-6.6752,13.9222-28.697
		c0,0-0.2457-9.0986-8.1639-15.2881"/>
	<path class="st75" d="M114.2635,217.794c0,0,14.4898-0.2041,20.3061-9.5919c0,0,11.3266,14.1837,24.7238,5.8883l-7.1728,7.0709
		c0,0-8.75,3.1123-9.898,10.6123c0,0-4.3622,3.3674-4.6684-5.4337c0,0-5.2806-9.7959-13.5459-3.1378
		C124.0084,223.2021,108.9064,229.4777,114.2635,217.794z"/>
	<path class="st76" d="M151.6893,171.405c0,0,10.2476,3.0986,14.9913,12.7796c0,0,4.6469,8.3257,3.6788,16.7482l31.4633,42.1124
		c0,0,5.9129,3.6606,12.7827,2.0723l0.8748,2.9612c0,0-3.202,2.6145-13.125-0.9191c0,0-4.3091-1.9572-20.8147-23.8984
		l-14.279-21.554C167.2614,201.7072,172.2462,181.1797,151.6893,171.405"/>
	<path class="st76" d="M87.5171,186.8011c0,0-6.7812,6.9787-6.4286,13.9286c0,0-0.4592,7.1939,3.5204,14.0816l5.2041,21.4286
		c0,0-2.8316,1.3775-0.7653,3.75l-10.5004,16.027c0,0-15.214,25.5291-15.9282,34.2536l28.2653-1.7857l27.3215-2.0408l28.8521-11.097
		c0,0-31.9898-4.5536-43.0102-9.6429c0,0-11.7857-5.6646-4.3623-13.2398l-4.4388-11.7092c0,0-2.1429-2.2959,0.3827-3.75
		l-0.7628-15.3551C94.8665,221.6501,73.8946,208.7919,87.5171,186.8011z"/>
	<path class="st64" d="M165.1957,311.6226c4.9745,3.3673,7.1939,1.8367,7.1939,1.8367c2.1429-2.2959-0.5357-3.8265-0.5357-3.8265
		l-5.3571-2.8316c-4.2857-1.5306-9.1837-4.2857-9.1837-4.2857l-5.5867-5.8163c0,0-3.75-8.1122-21.5817-14.0816
		c0,0-10.6378-2.5255-19.6684-7.7296c0,0-28.699-15.8771-46.4541-21.6169c0,0,9.1411-30.0968,15.2636-55.2754
		c0,0-10.187,2.8361-22.0238-5.5313c0,0-9.843,46.3266-11.6797,61.4286c0,0-6.3265,17.1429,1.2245,15.1021
		c7.5511-2.0408,1.2245,0.1688,1.2245,0.1688s11.0932,13.6068,72.0879,25.1373c0,0,1.5306,6.2245,13.9286,10.6633
		c0,0,0.2499,0.1034,0.7118,0.2069c1.7832,6.3294,6.0994,9.9717,6.0994,9.9717c1.7602,5.2806,6.2755,8.9541,6.2755,8.9541
		c3.2143,5.1275,5.7398,3.1378,5.7398,3.1378c1.5306-1.9898-1.6071-5.051-1.6071-5.051c-4.7449-5.2041-5.8163-8.5714-5.8163-8.5714
		l-2.5767-9.7575c0,0-0.0041-0.0024,0.0009-0.0049l-0.0009,0.0049l1.8317,6.9364c0.6345,2.4026,3.1999,4.5813,3.1999,4.5813
		l8.3359,7.347c4.3623,4.8214,6.7347,2.6786,6.7347,2.6786c1.9898-1.9898-1.3776-4.7449-1.3776-4.7449
		c-2.2079-2.7477-5.898-6.153-8.3037-8.4586c-1.3467-1.2906-2.3304-2.4424-2.3304-2.4424c-0.0108-0.108,0.0342,0.1605-0.0026-0.008
		l0.0026,0.008l2.3304,2.4424l10.6762,6.3922c4.6684,4.1327,6.8878,2.1429,6.8878,2.1429c1.9898-2.6786-2.449-4.9949-2.449-4.9949
		l-5.6633-3.5765c-3.5892-1.8222-6.1347-4.0763-7.2784-5.194c-0.4415-0.4314-0.6808-0.6989-0.6808-0.6989l-4.5305-7.9696
		l5.2113,8.6685l3.0692,1.5205L165.1957,311.6226z"/>
	<path class="st72" d="M147.6192,301.0359c0,0,2.4734,7.5834,3.2143,8.4694"/>
	<path class="st74" d="M57.3141,186.8462L43.6889,252.56c0,0-5.3815,12.5242-0.588,17.4299c0,0,3.9838,3.5406,7.8914,3.855
		c0,0,4.4533,3.9551,10.8427,6.2785c0,0,6.7114-20.0754,13.1662-24.3108l-8.7129-3.2526l14.8001-51.8304
		c0,0-1.2406-5.8181,6.4286-13.9286"/>
	<path class="st75" d="M94.1742,146.8158l-14.2892,8.8097c0,0-14.371,8.6873-14.371,19.5428l-16.951,77.7934
		c0,0-9.169,12.5269,2.2359,17.0281c0,0,2.8143,2.6907,8.1321,0.8036c0,0,10.3556-11.5959,12.6597-14.0571
		c0,0-8.9809,15.8359-9.7554,23.3871c0,0-8.5677-4.5017-10.5039-6.8251c0,0-15.6296-0.8534-7.0671-20.3786l13.263-63.8947
		l2.8559-14.6667c0,0,1.4037-12.3917,12.1981-18.8296l20.4269-8.9549c0,0,2.6139-2.033,3.4368-4.3081
		C96.4448,142.2657,95.9014,145.7509,94.1742,146.8158z"/>
	<path class="st75" d="M95.6576,151.7531c0,0,10.4843,14.0357,41.9638-1.9855c0,0,9.9784-1.0871,5.9169,4.5152
		c0,0-7.9755,8.7508-16.7644,7.467c0,0,23.5134,2.2728,10.8474,7.7552c0,0-8.0073,7.7172-5.5446,13.8606
		c0,0-3.5962-7.2721-13.6361-11.0199c0,0-16.4294-1.6196-6.5547-6.6045C111.886,165.7414,82.3336,152.0436,95.6576,151.7531z"/>
	<path class="st76" d="M95.6576,135.6343c0,0-0.181-0.4357,5.3372,1.3069c0,0,15.6891,3.1463,29.6268-0.6777l4.7189-1.1617
		c0,0-9.0604,6.9703-27.197,4.5501c0,0-9.3269-1.0384-11.6988-2.0198C96.4448,137.6321,95.4514,137.6189,95.6576,135.6343z"/>
	<path class="st76" d="M96.0575,138.466c0,0,7.4786,5.8812,28.5348,2.9043C124.5923,141.3703,106.8035,142.9676,96.0575,138.466z"/>
	<path class="st76" d="M132.7715,138.1755c0,0-6.4366,5.8503-21.3937,5.736c0,0,14.8892,1.3795,23.9629-5.4456
		C135.3406,138.466,136.5215,137.5947,132.7715,138.1755z"/>
	<path class="st76" d="M96.4448,142.2657c0,0,3.6061,4.6227,26.1145,3.461c0,0-15.6106,3.34-26.9298-1.9284L96.4448,142.2657z"/>
	<path class="st77" d="M73.8946,254.2751c0,0-9.8442,8.6831-13.2696,26.5744l9.6843,2.7319c0,0,5.7085-20.7386,13.1145-24.2237
		C83.4238,259.3577,78.6983,254.9441,73.8946,254.2751z"/>
	<path class="st77" d="M216.6588,222.836c0,0-7.1881,9.7321-4.1386,27.4833l5.6052-0.35c0,0-1.9022-17.9847,5.7942-26.262
		L216.6588,222.836z"/>
	<path class="st78" d="M93.008,146.5738c0,0,4.2112,12.2949,33.0364,20.8626c0,0,9.7087-4.1859,16.0383-22.0358"/>
	
		<ellipse transform="matrix(0.9877 -0.1562 0.1562 0.9877 -28.0166 22.1072)" class="st79" cx="126.6179" cy="189.2705" rx="0.8955" ry="0.8955"/>
	
		<ellipse transform="matrix(0.9877 -0.1562 0.1562 0.9877 -30.9116 24.0136)" class="st79" cx="137.2975" cy="208.6386" rx="0.8955" ry="0.8955"/>
	<path class="st79" d="M126.7808,169.5937l-0.7465,0.1181c-0.1399,0.0221-0.2724-0.0742-0.2945-0.2141l-0.4754-3.0055
		c-0.0221-0.1399,0.0742-0.2724,0.2141-0.2945l0.7465-0.1181c0.1399-0.0221,0.2724,0.0742,0.2945,0.2141l0.4754,3.0055
		C127.017,169.439,126.9206,169.5716,126.7808,169.5937z"/>
	<path class="st78" d="M126.4075,169.6527c0,0,5.3875,30.8447,10.8899,38.9859"/>
	<path class="st78" d="M126.4075,169.6527c0,0,2.1523,14.7292,0.3368,19.672"/>
	<path class="st80" d="M149.5069,170.1174c0,0,5.6633,2.8061,12.6276,10.1021"/>
	<path class="st81" d="M139.6032,10.6486l39.0169,42.4339c0,0,5.8035,31.7031-17.2938,46.9703c0,0,3.2636-2.5714,3.1153-5.7361
		c0,0-2.1397,4.5493-7.3746,6.5273c0,0,1.8409-2.5156,1.0721-4.2248c0,0-1.9176,4.194-9.4528,6.5829L139.6032,10.6486z"/>
	<path id="Cara_3_" class="st64" d="M153.3154,73.7369c0,0-0.989,12.7669-3.916,26.2577c0,0-3.798,11.8271-14.578,22.162
		c0,0-5.0933,8.3075-13.5491,8.1591c0,0-8.9479,1.4835-16.6385-8.1591c0,0-15.435-9.3302-18.5199-28.0377l-3.5603-26.1005
		l2.9669-22.5575l9.3459-17.9501l1.7802-7.4174l17.9501,5.0438l29.5212,11.7195l10.21,11.2744L153.3154,73.7369z"/>
	<path id="oreja_der_3_" class="st82" d="M88.6461,103.1577c0.8674,0.7644-4.7573-8.4454-5.6474-17.6429c0,0-3.0133,4.9905-6.3121,0
		c0,0-7.3359-10.883-5.0612-19.4356c0,0,3.8088-10.8273,7.146-5.289l3.7822,7.2283"/>
	<path id="Sobra_oreja_der_3_" class="st83" d="M77.0647,69.4246c0,0-1.0879,8.4203,1.7802,11.7607c0,0,2.5714,0.1757,1.978-2.3957
		c0,0-0.5262-1.1006-0.9059-0.9459C79.9169,77.8438,77.1617,76.2906,77.0647,69.4246z"/>
	<path id="cabello_2_" class="st81" d="M156.2824,30.0327c0,0-9.4943-10.9777-20.7687-12.7579c0,0,14.2414,7.4174,14.2414,19.2852
		c0,0,11.9667,15.1315,1.4835,37.6803c0,0,8.3075-21.9555-18.9885-30.5596c0,0-24.6257,0-31.7464-15.7249
		c0,0,0.8901,6.824-5.6372,6.5273c0,0,2.9669,14.2414-7.7141,17.505c0,0-8.9009,14.5381,0,28.7795c0,0-5.3405-3.2636-7.7141-16.9116
		c0,0-6.8611-6.1564-6.6386,7.6635c0,0-0.0742,15.4045,7.8543,16.2953c0,0,0.2677,3.3372,3.2347,6.8975
		c0,0-2.967,0.5934-1.4835,3.5603c0,0-4.4504-1.4835-5.0438-5.0438c0,0-1.7802,2.6703-1.1868,5.0438
		c0,0-3.5603-3.2637-2.0769-10.0876c0,0-2.0769,1.4835-1.4835,6.824c0,0-2.967-4.7471-2.967-10.681
		c1.906,7.592,0.1621,8.6489,2.5219,13.9447c0,0-18.8402,2.3736-19.7302-31.153c0,0,5.0438-48.6581,42.4274-51.0316
		c0,0,3.5603-32.3398,52.2184-3.857C147.0849,12.231,156.2824,19.3517,156.2824,30.0327z"/>
	<path id="mechon_izq_3_" class="st84" d="M147.0849,12.231c0,0,48.0647,22.8455,25.5158,68.24c0,0,1.4835-7.7141-4.1537-16.9116
		c0,0,2.2747,26.2081-20.4149,32.2409c0,0,6.3815-4.5421,6.0747-12.4612c0,0,4.2514-6.9103,3.6152-15.2178
		c0,0-0.655-2.0421-1.4395-4.5619c0,0-2.3736,10.681-5.0438,10.681c0,0,10.5327-17.8017-1.4835-37.6803
		c0,0,1.6318-9.9393-14.2414-19.2852c0,0,12.0162,1.9285,20.7687,12.7579C156.2824,30.0327,157.9142,22.3186,147.0849,12.231z"/>
	<path id="sombra_cabello_der_3_" class="st84" d="M94.8665,16.088c0,0-35.0101-0.001-42.4274,51.0316
		c0,0-0.7417,29.6695,19.7302,31.153c0,0-2.9389-4.9044-2.5219-13.9447c0,0-5.4889,0.8901-6.3789,5.7856
		C63.2684,90.1135,39.9778,45.6092,94.8665,16.088z"/>
	<path id="sombra_cabello_der_2_3_" class="st84" d="M82.7761,86.1452c0,0-0.5687,3.1859,3.0164,11.9791
		c0,0-4.9697-2.7197-3.3873,0.1484c0,0-4.3515-1.7307-5.0438-5.0438c0,0-2.3241,2.1758-1.1868,5.0438
		c0,0-3.6535-4.0081-2.0769-10.0876c0,0-2.6703,1.3846-1.4835,6.824c0,0-4.2032-7.7635-2.8681-13.0051
		c0,0,0.4822,2.4416,1.5824,3.2142c1.1002,0.7727,2.8184-0.1236,2.324-2.6208c0,0-1.9189-13.7966-0.6427-16.4666
		c0,0-0.9244,5.0008,0.0115,10.1665C74.2923,83.3117,77.9919,90.6304,82.7761,86.1452z"/>
	<g id="ojo_der_2_">
		<path id="parpado_der_3_" class="st85" d="M115.8329,69.0482c0,0-1.434-7.6646-9.0987-9.6426c0,0-8.802-2.1758-11.0766,5.39
			l0.4945,1.8019c0,0,3.2636-3.8788,8.8514-3.6409C105.0035,62.9565,113.5583,64.5483,115.8329,69.0482z"/>
		<path id="pestaña_der_3_" class="st86" d="M115.1406,69.7899l0.6923,0.4572v-1.1989c0,0-4.476-6.0422-10.8294-6.0916
			c0,0-5.5383-0.3368-8.6536,3.1741c0,0-1.0384,0.3956-2.1758-0.9395c0,0,0.6923,2.3736,2.4725,2.3241L115.1406,69.7899z"/>
		<path class="st87" d="M115.1406,69.7899c0,0,0.3956,5.2416-8.4064,6.7251c0,0-7.6152,2.1654-10.0876-8.9998
			C96.6466,67.5152,103.4706,57.8232,115.1406,69.7899z"/>
		<circle class="st88" cx="105.7453" cy="70.1979" r="3.9642"/>
		<circle cx="105.5238" cy="70.7799" r="2.4549"/>
		<circle class="st3" cx="107.5272" cy="69.5422" r="0.8595"/>
		<circle class="st3" cx="108.6949" cy="68.1337" r="0.5513"/>
		<path id="ceja_der_3_" class="st89" d="M115.8329,60.3945v-2.1758c0,0-9.5932-10.1865-21.6588-1.8687
			C94.1742,56.3501,106.7343,51.197,115.8329,60.3945z"/>
	</g>
	<g id="Ojo_izq_3_">
		<path id="parpado_izq_3_" class="st85" d="M130.6217,68.9446c0,0,1.3218-7.0651,8.3869-8.8883c0,0,8.1134-2.0056,10.2102,4.9683
			l-0.4558,1.661c0,0-3.0084-3.5754-8.159-3.3561C140.6039,63.3295,132.7184,64.7968,130.6217,68.9446z"/>
		<path id="pestaña_izq_3_" class="st86" d="M131.2598,69.6284l-0.6381,0.4214v-1.1051c0,0,4.1259-5.5695,9.9823-5.6151
			c0,0,5.1051-0.3104,7.9767,2.9258c0,0,0.9572,0.3646,2.0056-0.866c0,0-0.6381,2.1879-2.2791,2.1423L131.2598,69.6284z"/>
		<path id="cuenca_izq_3_" class="st87" d="M131.2598,69.6284c0,0-0.3646,4.8316,7.7488,6.199c0,0,7.0195,1.996,9.2985-8.2958
			C148.3071,67.5316,142.017,58.5977,131.2598,69.6284z"/>
		<circle id="iris_izq_3_" class="st88" cx="139.8843" cy="69.9941" r="3.6541"/>
		<circle id="pupila_izq_3_" cx="139.8843" cy="70.3841" r="2.2629"/>
		<circle id="brillo_1_izq_3_" class="st3" cx="141.6856" cy="69.1629" r="0.7062"/>
		<circle id="brillo_2_izq_3_" class="st3" cx="142.7106" cy="67.8316" r="0.453"/>
		<path id="ceja_izq_3_" class="st89" d="M129.7491,59.1155v-2.1758c0,0,8.8704-10.1865,20.0269-1.8687
			C149.7761,55.071,138.1623,49.9179,129.7491,59.1155z"/>
	</g>
	<path id="Nariz_3_" class="st90" d="M127.1074,66.0791c0,0-1.978,16.0731,1.7802,21.7103c0,0,2.2747,7.7141-9.9887,3.857"/>
	<g>
		<path class="st91" d="M130.8604,104.3351l1.7175,0.9947c0,0,0.9092,3.7581-1.2124,5.3053
			c-2.1203,1.5478-10.2026,2.7634-19.0917-2.7627c-8.8893-5.5268-1.9196-3.3158-1.9196-3.3158s11.9201-2.1002,12.2231-1.9895"/>
		<path class="st3" d="M131.666,104.7774c0,0,0.9947,2.266-0.1114,2.7077c-1.1048,0.4423-13.7049,0.3316-16.0816-0.3316
			c-2.3754-0.6632-2.4311-2.1553-2.4311-2.1553l14.5338-1.2706"/>
		<path class="st92" d="M115.8078,110.6002c0,0,1.1383-2.0856,5.3932-1.5325c4.2562,0.5524,5.5606,1.5442,6.2795,3.0913"/>
		<path class="st93" d="M132.2177,105.054c0,0,0.0502,4.8678-3.4858,5.6968c-7.1743,1.6813-10.0856,0.3896-17.7807-4.8043
			c-1.0076-0.6807-4.0786-2.1293-3.1318-1.2072c0.4443,0.4327,4.2989,8.5589,10.8593,10.483s10.0355,0.3969,12.49-2.11
			c2.5969-2.6526,1.7732-7.9352,1.7732-7.9352"/>
		<path class="st94" d="M106.006,103.8804c-1.1424-0.0284,5.4659,3.4065,9.9047,1.8367c8.4346-2.9842,17.9002,1.2299,19.5464,0.2759
			c1.6462-0.9532-3.9538-0.668-7.4366-5.6269c-0.3756-0.5349-0.864-0.9144-2.1735-0.2914
			c-1.3108,0.6236-1.3898,0.8633-2.2226,0.8847c-0.8328,0.0214-2.0465-1.5692-2.8793-1.5478
			C119.9123,99.4329,117.7279,104.1693,106.006,103.8804z"/>
	</g>
	<path id="barbilla_3_" class="st95" d="M126.774,120.7295c0,0-3.724,3.8283-7.3653,0.3238
		C119.4087,121.0533,122.1156,121.9561,126.774,120.7295z"/>
	<g>
		
			<ellipse transform="matrix(0.0387 -0.9993 0.9993 0.0387 -8.8233 162.341)" class="st96" cx="79.9622" cy="85.7563" rx="2.0081" ry="2.0081"/>
		<path class="st97" d="M79.885,84.5699c0,0,1.4041,0.4106,1.0862,2.1592c0,0,0.7489-1.0897,0.1325-2.0002
			C81.1036,84.7289,80.746,84.146,79.885,84.5699z"/>
	</g>
</g>
</svg>
