<?xml version="1.0" encoding="utf-8"?>
<!-- Generator: Adobe Illustrator 21.0.2, SVG Export Plug-In . SVG Version: 6.00 Build 0)  -->
<svg version="1.1" id="Capa_1" xmlns="http://www.w3.org/2000/svg" xmlns:xlink="http://www.w3.org/1999/xlink" x="0px" y="0px"
	 viewBox="0 0 146.4841 33.6754" style="enable-background:new 0 0 146.4841 33.6754;" xml:space="preserve">
<style type="text/css">
	.st0{opacity:0.25;clip-path:url(#XMLID_4592_);}
	.st1{fill:#FFFFFF;}
	.st2{fill-rule:evenodd;clip-rule:evenodd;fill:#DDDDDD;}
	.st3{fill:#ACABC9;}
	.st4{fill:#3B86B1;}
	.st5{opacity:0.25;fill-rule:evenodd;clip-rule:evenodd;fill:#020202;}
	.st6{opacity:0.5;}
	.st7{fill-rule:evenodd;clip-rule:evenodd;fill:#A8A8A8;}
	.st8{fill-rule:evenodd;clip-rule:evenodd;fill:#FFFFFF;}
	.st9{fill-rule:evenodd;clip-rule:evenodd;fill:#3B86B1;}
	.st10{opacity:0.5;fill:#2C6882;}
	.st11{opacity:0.75;fill-rule:evenodd;clip-rule:evenodd;fill:#282828;}
	.st12{opacity:0.5;fill:#FFFFFF;}
	.st13{fill-rule:evenodd;clip-rule:evenodd;fill:none;stroke:#FFFFFF;stroke-miterlimit:10;}
	.st14{fill:none;stroke:#FFFFFF;stroke-miterlimit:10;}
	.st15{fill:#FFFFFF;stroke:#3B86B1;stroke-width:1.7139;stroke-miterlimit:10;}
	.st16{fill-rule:evenodd;clip-rule:evenodd;}
	.st17{opacity:0.85;fill:#FFFFFF;}
	.st18{opacity:0.5;fill-rule:evenodd;clip-rule:evenodd;}
	.st19{fill-rule:evenodd;clip-rule:evenodd;fill:#FEFEFE;}
	.st20{fill:#312767;}
	.st21{opacity:0.48;}
	.st22{opacity:0.25;}
	.st23{fill-rule:evenodd;clip-rule:evenodd;fill:#020202;}
	.st24{fill:#757575;}
	.st25{opacity:0.25;clip-path:url(#XMLID_4593_);}
	.st26{fill:#FFFFFF;stroke:#312767;stroke-miterlimit:10;}
	.st27{fill-rule:evenodd;clip-rule:evenodd;fill:#312767;}
	.st28{opacity:0.77;fill:#312767;}
	.st29{opacity:0.25;clip-path:url(#XMLID_4598_);}
	.st30{opacity:0.75;}
	.st31{fill-rule:evenodd;clip-rule:evenodd;fill:#282828;}
	.st32{fill:#9490B2;stroke:#2D2D2D;stroke-width:0.25;stroke-miterlimit:10;}
	.st33{fill:#312767;stroke:#2D2D2D;stroke-width:0.25;stroke-miterlimit:10;}
	.st34{fill:#FCFCFC;}
	.st35{fill:#FFFFFF;stroke:#2D2D2D;stroke-width:0.25;stroke-miterlimit:10;}
	.st36{fill-rule:evenodd;clip-rule:evenodd;fill:#484849;stroke:#2D2D2D;stroke-width:0.25;stroke-miterlimit:10;}
	.st37{fill-rule:evenodd;clip-rule:evenodd;fill:#312767;stroke:#2D2D2D;stroke-width:0.25;stroke-miterlimit:10;}
	.st38{fill-rule:evenodd;clip-rule:evenodd;fill:#FFFFFF;stroke:#2D2D2D;stroke-width:0.25;stroke-miterlimit:10;}
	.st39{fill:#484849;stroke:#2D2D2D;stroke-width:0.25;stroke-miterlimit:10;}
	.st40{fill:#FFFFFF;stroke:#FFFFFF;stroke-miterlimit:10;}
	.st41{fill:#54518C;}
	.st42{opacity:0.25;fill-rule:evenodd;clip-rule:evenodd;fill:#FFFFFF;}
	.st43{fill:#D4A800;}
	.st44{fill:#00AEB3;}
	.st45{fill:#38353B;}
	.st46{fill:#FF8400;}
	.st47{fill:#BF3900;}
	.st48{fill:#00AA9C;}
	.st49{opacity:0.25;clip-path:url(#XMLID_4609_);}
	.st50{fill:none;stroke:#ACABC9;stroke-width:5;stroke-miterlimit:10;}
	.st51{fill:#67A53F;}
	.st52{fill:#DDDDDD;}
	.st53{opacity:0.25;clip-path:url(#XMLID_4620_);}
	.st54{fill-rule:evenodd;clip-rule:evenodd;fill:#FFFFFF;stroke:#FFFFFF;stroke-miterlimit:10;}
	.st55{fill:#02897C;}
	.st56{fill:#0EAD9A;}
	.st57{fill:#28C6AF;}
	.st58{fill:#4FE0C7;}
	.st59{opacity:0.25;clip-path:url(#XMLID_4624_);}
	.st60{fill:#3CA7AF;}
	.st61{fill:#3DAD8D;}
	.st62{fill:#296E8C;}
	.st63{fill:#308E71;}
	.st64{fill:#2D8A8C;}
	.st65{opacity:0.25;clip-path:url(#XMLID_4628_);}
	.st66{opacity:0.77;fill:#FFFFFF;}
	.st67{fill:#50565B;stroke:#656C70;stroke-miterlimit:10;}
	.st68{fill:#808589;stroke:#656C70;stroke-miterlimit:10;}
	.st69{fill:#252728;stroke:#000000;stroke-miterlimit:10;}
	.st70{fill:#1A1B1C;stroke:#000000;stroke-miterlimit:10;}
	.st71{fill:#A0A6AA;}
	.st72{fill:#262C35;stroke:#161A1E;stroke-miterlimit:10;}
	.st73{fill:#181D23;}
	.st74{fill:#EABA96;stroke:#E0AA86;stroke-miterlimit:10;}
	.st75{fill:#E0AA86;}
	.st76{stroke:#000000;stroke-width:0.75;stroke-linecap:square;stroke-linejoin:bevel;stroke-miterlimit:10;}
	.st77{fill:#0F1C3F;stroke:#182951;stroke-miterlimit:10;}
	.st78{fill:#132354;stroke:#3F6093;stroke-miterlimit:10;}
	.st79{fill:#0F1C3F;}
	.st80{fill:none;stroke:#3F6093;stroke-width:0.75;stroke-miterlimit:10;}
	.st81{fill:#DBA682;}
	.st82{fill:none;stroke:#E0AA86;stroke-miterlimit:10;}
	.st83{fill:none;stroke:#E0AA86;stroke-linejoin:bevel;stroke-miterlimit:10;}
	.st84{fill:#8A0A8E;stroke:#AC34B2;stroke-miterlimit:10;}
	.st85{fill:#810C87;}
	.st86{fill:#680B6D;}
	.st87{fill:#AC34B2;stroke:#AC34B2;stroke-width:0.5;stroke-miterlimit:10;}
	.st88{fill:none;stroke:#959DA0;stroke-width:0.5;stroke-miterlimit:10;}
	.st89{fill:#959DA0;stroke:#959DA0;stroke-width:0.5;stroke-miterlimit:10;}
	.st90{fill:none;stroke:#AC34B2;stroke-miterlimit:10;}
	.st91{fill:#282828;stroke:#000000;stroke-miterlimit:10;}
	.st92{fill:#EABA96;stroke:#E0AA86;stroke-width:0.5;stroke-miterlimit:10;}
	.st93{fill:#B7896A;}
	.st94{stroke:#000000;stroke-miterlimit:10;}
	.st95{fill:#C1A578;}
	.st96{stroke:#000000;stroke-width:0.25;stroke-linecap:round;stroke-linejoin:round;stroke-miterlimit:10;}
	.st97{fill:#FFFFFF;stroke:#000000;stroke-width:0.25;stroke-linecap:round;stroke-linejoin:round;stroke-miterlimit:10;}
	.st98{fill:#70582D;}
	.st99{stroke:#000000;stroke-linecap:round;stroke-linejoin:round;stroke-miterlimit:10;}
	.st100{fill:none;stroke:#D8A27D;stroke-width:0.75;stroke-miterlimit:10;}
	.st101{fill:#561409;}
	.st102{fill:#BA2A13;}
	.st103{fill:#9E3025;stroke:#4C2311;stroke-width:0.25;stroke-miterlimit:10;}
	.st104{fill:#871D08;stroke:#4C2311;stroke-width:0.25;stroke-miterlimit:10;}
	.st105{fill:#DDAC8A;}
	.st106{fill:#A5ABAD;stroke:#959DA0;stroke-width:0.5;stroke-miterlimit:10;}
	.st107{fill:#B1BABC;}
	.st108{fill:none;stroke:#153847;stroke-width:5;stroke-miterlimit:10;}
	.st109{fill:#3DAA61;}
	.st110{fill:#95A340;}
	.st111{opacity:0.25;clip-path:url(#XMLID_4632_);}
	.st112{opacity:0.25;clip-path:url(#XMLID_4635_);}
	.st113{opacity:0.25;clip-path:url(#XMLID_4636_);}
	.st114{opacity:0.25;clip-path:url(#XMLID_4638_);}
	.st115{opacity:0.25;clip-path:url(#XMLID_4646_);}
	.st116{clip-path:url(#SVGID_2_);}
	.st117{fill:none;stroke:#3F6093;stroke-miterlimit:10;}
	.st118{fill:none;stroke:#3F6093;stroke-width:0.75;stroke-linecap:round;stroke-linejoin:round;}
	.st119{fill:none;stroke:#3F6093;stroke-width:0.75;stroke-linecap:round;stroke-linejoin:round;stroke-dasharray:0.9892,0.9892;}
	
		.st120{fill:none;stroke:#3F6093;stroke-width:0.75;stroke-linecap:round;stroke-linejoin:round;stroke-miterlimit:10;stroke-dasharray:1;}
	.st121{fill:#EAEAEA;stroke:#FFFFFF;stroke-width:0.25;stroke-miterlimit:10;}
	.st122{fill:#D8D8D8;}
	.st123{fill:#282828;stroke:#000000;stroke-width:0.75;stroke-miterlimit:10;}
	.st124{opacity:0.33;fill:#FFFFFF;}
	.st125{fill:none;stroke:#000000;stroke-width:1.5;stroke-linecap:round;stroke-linejoin:round;stroke-miterlimit:10;}
	.st126{opacity:0.64;}
	.st127{fill:#C9C9C9;}
	.st128{fill:#FFF064;}
	.st129{fill:#4F4E4F;}
	.st130{fill:#1E2F47;}
	.st131{opacity:0.1;fill:#FFFFFF;}
	.st132{opacity:0.1;}
	.st133{opacity:0.4;fill:#FFFFFF;}
	.st134{fill-rule:evenodd;clip-rule:evenodd;fill:#F39C12;}
	.st135{fill-rule:evenodd;clip-rule:evenodd;fill:#E6E6E6;}
	.st136{fill-rule:evenodd;clip-rule:evenodd;fill:#474646;}
	.st137{fill-rule:evenodd;clip-rule:evenodd;fill:#D84848;}
	.st138{opacity:0.2;fill-rule:evenodd;clip-rule:evenodd;fill:#231F20;}
	.st139{opacity:0.1;fill-rule:evenodd;clip-rule:evenodd;fill:#231F20;}
	.st140{fill-rule:evenodd;clip-rule:evenodd;fill:#4D4D4D;}
	.st141{fill-rule:evenodd;clip-rule:evenodd;fill:#336699;}
	.st142{fill-rule:evenodd;clip-rule:evenodd;fill:#FF6633;}
	.st143{fill-rule:evenodd;clip-rule:evenodd;fill:#0056A3;}
	.st144{fill-rule:evenodd;clip-rule:evenodd;fill:#33CC99;}
	.st145{fill:#CE6405;}
	.st146{opacity:0.2;fill:#FFFFFF;}
	.st147{fill:#1ABC9C;}
	.st148{opacity:0.2;}
	.st149{fill:#0B2E44;}
	.st150{fill-rule:evenodd;clip-rule:evenodd;fill:#154F77;}
	.st151{fill-rule:evenodd;clip-rule:evenodd;fill:#0D3858;}
	.st152{fill-rule:evenodd;clip-rule:evenodd;fill:#FFFEFE;}
	.st153{fill:#AEC647;}
	.st154{fill:#F3AE1B;}
	.st155{fill:#DF3F11;}
	.st156{fill:#BCDEDE;}
	.st157{fill:#C84119;}
	.st158{fill:#6BB5CE;}
	.st159{fill:#00D0E5;}
	.st160{fill:#FF81ED;}
	.st161{fill:#00C982;}
	.st162{opacity:0.7;}
	.st163{opacity:0.4;}
	.st164{fill-rule:evenodd;clip-rule:evenodd;fill:#0B2E44;}
	.st165{opacity:0.8;fill-rule:evenodd;clip-rule:evenodd;fill:#FFFFFF;}
	.st166{fill:#424242;}
	.st167{opacity:0.2;fill-rule:evenodd;clip-rule:evenodd;fill:#FFFFFF;}
	.st168{fill:#D0EDFA;}
	.st169{fill:#FF651F;}
	.st170{fill:#0051C4;}
	.st171{fill:#E46400;}
	.st172{fill:#C0003B;}
	.st173{fill:#FFEA50;}
	.st174{fill:#FF2C0D;}
	.st175{fill:#FF1A2C;}
	.st176{fill:#FF2C4D;}
	.st177{fill:#FFD74C;}
	.st178{fill:#4C4C4B;}
	.st179{fill:#6CD2EA;}
	.st180{fill:#F7674F;}
	.st181{opacity:0.1;fill-rule:evenodd;clip-rule:evenodd;}
	.st182{fill:#BABABA;}
	.st183{fill:#F9B946;}
	.st184{fill:#DFC2A9;}
	.st185{fill:#BFA490;}
	.st186{fill:#F5D4B2;}
	.st187{fill:#DF584C;}
	.st188{fill:#C2443E;}
	.st189{fill:#DBDBDA;}
	.st190{fill:#2F363E;}
	.st191{fill:#332524;}
	.st192{fill:#473735;}
	.st193{opacity:0.25;clip-path:url(#XMLID_4647_);}
	.st194{fill:#153847;}
	.st195{fill:#52B8BA;}
	.st196{fill:#35373E;}
	.st197{fill:#D37D00;}
	.st198{opacity:0.25;clip-path:url(#XMLID_4648_);}
	.st199{opacity:0.31;fill:#34383A;}
	.st200{opacity:0.16;fill:#3D3835;}
	.st201{fill:#D0D1D4;}
	.st202{opacity:0.31;}
	.st203{fill:#34383A;}
	.st204{opacity:0.16;}
	.st205{fill:#3D3835;}
	.st206{opacity:0.25;clip-path:url(#XMLID_4649_);}
	.st207{fill:#F9E1B4;}
	.st208{opacity:0.25;fill:#050505;}
	.st209{fill:#FCC60F;}
	.st210{fill:#74CAEA;}
	.st211{fill:#050505;}
	.st212{opacity:0.25;clip-path:url(#XMLID_4650_);}
	.st213{fill:#FABC8F;}
	.st214{fill:#3FA995;}
	.st215{opacity:0.17;fill:#020202;}
	.st216{fill:#E1E1E1;}
	.st217{opacity:0.17;}
	.st218{fill:#020202;}
	.st219{opacity:0.25;clip-path:url(#XMLID_4651_);}
	.st220{fill:#BF8E00;}
	.st221{fill:#F7D8D7;}
	.st222{fill:#F18636;}
	.st223{fill:#004460;}
	.st224{fill:#D93A37;}
	.st225{fill:#EDEDED;}
	.st226{fill:#184F78;}
	.st227{fill:#FF3E03;}
	.st228{opacity:0.6;fill:#0F0F0F;}
	.st229{fill:#E8E8E6;}
	.st230{fill:#00EAA6;}
	.st231{fill-rule:evenodd;clip-rule:evenodd;fill:#FF3E03;}
	.st232{opacity:0.1;fill-rule:evenodd;clip-rule:evenodd;fill:#020202;}
	.st233{fill-rule:evenodd;clip-rule:evenodd;fill:#FABE00;}
	.st234{fill-rule:evenodd;clip-rule:evenodd;fill:#E6E8E8;}
	.st235{fill-rule:evenodd;clip-rule:evenodd;fill:#F7D959;}
	.st236{fill-rule:evenodd;clip-rule:evenodd;fill:#F9623E;}
	.st237{fill:#4F1A0F;}
	.st238{opacity:0.46;fill:#FFFFFF;}
	.st239{fill:#48505A;}
	.st240{fill:#C3C3C3;}
	.st241{fill:#E9E9EA;}
	.st242{fill:#9D9E9F;}
	.st243{fill:#F6F4F4;}
	.st244{fill:#6B6A6A;}
	.st245{fill:#C09478;}
	.st246{fill:#F7CDA0;}
	.st247{fill:#9E1010;}
	.st248{fill:#F2F2F2;}
	.st249{opacity:0.2;fill:#060606;}
	.st250{fill:#16AFBE;}
	.st251{fill:#DD2222;}
	.st252{fill:#FFEDDC;}
	.st253{fill:#22272B;}
	.st254{fill:#5B6375;}
	.st255{fill:#F79748;}
	.st256{fill:#FF7900;}
	.st257{fill:#DD7105;}
</style>
<g id="XMLID_4597_">
	<g id="XMLID_4604_">
		<g>
			<polygon id="XMLID_4634_" class="st1" points="131.9621,0.0001 146.4841,16.8377 131.9621,33.6754 118.743,33.6754 
				133.265,16.8377 118.743,0.0001 131.9621,0.0001 			"/>
		</g>
	</g>
	<g id="XMLID_4600_">
		<g>
			<polygon id="XMLID_4630_" class="st20" points="14.522,33.6753 0,16.8376 14.522,0 27.7411,0 13.2191,16.8376 27.7411,33.6753 
				14.522,33.6753 			"/>
		</g>
	</g>
	<polygon id="XMLID_4599_" class="st1" points="31.7411,0 114.743,0.0001 129.265,16.8377 114.743,33.6754 31.7411,33.6753 
		17.2191,16.8376 	"/>
	<g>
		<path class="st20" d="M50.1898,18.5816l2.3906-0.29c0.0762,0.6094,0.2813,1.0752,0.6152,1.3975s0.7383,0.4834,1.2129,0.4834
			c0.5098,0,0.9385-0.1934,1.2871-0.5801s0.5234-0.9082,0.5234-1.5645c0-0.6211-0.167-1.1133-0.501-1.4766
			s-0.7412-0.5449-1.2217-0.5449c-0.3164,0-0.6943,0.0615-1.1338,0.1846l0.2725-2.0127c0.668,0.0176,1.1777-0.127,1.5293-0.4355
			c0.3516-0.3066,0.5273-0.7158,0.5273-1.2256c0-0.4336-0.1289-0.7793-0.3867-1.0371s-0.6006-0.3867-1.0283-0.3867
			c-0.4219,0-0.7822,0.1465-1.0811,0.4395s-0.4805,0.7207-0.5449,1.2832l-2.2764-0.3867c0.1582-0.7793,0.3965-1.4014,0.7158-1.8682
			c0.3193-0.4648,0.7646-0.8311,1.3359-1.0977s1.2119-0.4004,1.9209-0.4004c1.2129,0,2.1855,0.3867,2.918,1.1602
			c0.6035,0.6328,0.9053,1.3477,0.9053,2.1445c0,1.1309-0.6182,2.0332-1.8545,2.707c0.7383,0.1582,1.3281,0.5127,1.7705,1.0635
			s0.6641,1.2158,0.6641,1.9951c0,1.1309-0.4131,2.0947-1.2393,2.8916s-1.8545,1.1953-3.085,1.1953
			c-1.166,0-2.1328-0.335-2.9004-1.0068C50.7581,20.5435,50.3128,19.6656,50.1898,18.5816z"/>
		<path class="st20" d="M74.3773,22.0006h-2.2939v-1.3711c-0.3809,0.5332-0.8311,0.9307-1.3496,1.1914
			c-0.5186,0.2598-1.041,0.3906-1.5684,0.3906c-1.0723,0-1.9912-0.4316-2.7559-1.2969c-0.7646-0.8633-1.1465-2.0693-1.1465-3.6162
			c0-1.582,0.3721-2.7842,1.1162-3.6084c0.7441-0.8223,1.6846-1.2344,2.8213-1.2344c1.043,0,1.9453,0.4336,2.707,1.3008V9.1158
			h2.4697V22.0006z M67.7855,17.1314c0,0.9961,0.1377,1.7168,0.4131,2.1621c0.3984,0.6445,0.9551,0.9668,1.6699,0.9668
			c0.5684,0,1.0518-0.2422,1.4502-0.7246c0.3984-0.4844,0.5977-1.2061,0.5977-2.167c0-1.0723-0.1934-1.8438-0.5801-2.3154
			s-0.8818-0.708-1.4854-0.708c-0.5859,0-1.0771,0.2334-1.4727,0.6982C67.9828,15.5103,67.7855,16.2056,67.7855,17.1314z"/>
		<path class="st20" d="M82.2171,19.0299l2.4609,0.4131c-0.3164,0.9023-0.8164,1.5898-1.499,2.0615s-1.5361,0.707-2.5615,0.707
			c-1.623,0-2.8242-0.5303-3.6035-1.5908c-0.6152-0.8496-0.9229-1.9219-0.9229-3.2168c0-1.5469,0.4043-2.7578,1.2129-3.6338
			s1.8311-1.3145,3.0674-1.3145c1.3887,0,2.4844,0.459,3.2871,1.375c0.8027,0.918,1.1865,2.3223,1.1514,4.2148h-6.1875
			c0.0176,0.7324,0.2168,1.3027,0.5977,1.709c0.3809,0.4082,0.8555,0.6113,1.4238,0.6113c0.3867,0,0.7119-0.1055,0.9756-0.3164
			S82.0824,19.4986,82.2171,19.0299z M82.3578,16.5338c-0.0176-0.7148-0.2021-1.2578-0.5537-1.6309
			c-0.3516-0.3711-0.7793-0.5576-1.2832-0.5576c-0.5391,0-0.9844,0.1963-1.3359,0.5889s-0.5244,0.9258-0.5186,1.5996H82.3578z"/>
		<path class="st20" d="M91.2083,18.5816l2.3906-0.29c0.0762,0.6094,0.2813,1.0752,0.6152,1.3975s0.7383,0.4834,1.2129,0.4834
			c0.5098,0,0.9385-0.1934,1.2871-0.5801s0.5234-0.9082,0.5234-1.5645c0-0.6211-0.167-1.1133-0.501-1.4766
			s-0.7412-0.5449-1.2217-0.5449c-0.3164,0-0.6943,0.0615-1.1338,0.1846l0.2725-2.0127c0.668,0.0176,1.1777-0.127,1.5293-0.4355
			c0.3516-0.3066,0.5273-0.7158,0.5273-1.2256c0-0.4336-0.1289-0.7793-0.3867-1.0371s-0.6006-0.3867-1.0283-0.3867
			c-0.4219,0-0.7822,0.1465-1.0811,0.4395s-0.4805,0.7207-0.5449,1.2832l-2.2764-0.3867c0.1582-0.7793,0.3965-1.4014,0.7158-1.8682
			c0.3193-0.4648,0.7646-0.8311,1.3359-1.0977s1.2119-0.4004,1.9209-0.4004c1.2129,0,2.1855,0.3867,2.918,1.1602
			c0.6035,0.6328,0.9053,1.3477,0.9053,2.1445c0,1.1309-0.6182,2.0332-1.8545,2.707c0.7383,0.1582,1.3281,0.5127,1.7705,1.0635
			s0.6641,1.2158,0.6641,1.9951c0,1.1309-0.4131,2.0947-1.2393,2.8916s-1.8545,1.1953-3.085,1.1953
			c-1.166,0-2.1328-0.335-2.9004-1.0068C91.7767,20.5435,91.3314,19.6656,91.2083,18.5816z"/>
	</g>
</g>
</svg>
