<?xml version="1.0" encoding="utf-8"?>
<!-- Generator: Adobe Illustrator 21.0.2, SVG Export Plug-In . SVG Version: 6.00 Build 0)  -->
<svg version="1.1" id="Capa_1" xmlns="http://www.w3.org/2000/svg" xmlns:xlink="http://www.w3.org/1999/xlink" x="0px" y="0px"
	 viewBox="0 0 247.6374 58.1387" style="enable-background:new 0 0 247.6374 58.1387;" xml:space="preserve">
<style type="text/css">
	.st0{fill-rule:evenodd;clip-rule:evenodd;fill:#DDDDDD;}
	.st1{fill:#3B86B1;}
	.st2{opacity:0.25;fill-rule:evenodd;clip-rule:evenodd;fill:#020202;}
	.st3{fill:#FFFFFF;}
	.st4{opacity:0.5;}
	.st5{fill-rule:evenodd;clip-rule:evenodd;fill:#A8A8A8;}
	.st6{fill-rule:evenodd;clip-rule:evenodd;fill:#FFFFFF;}
	.st7{fill-rule:evenodd;clip-rule:evenodd;fill:#3B86B1;}
	.st8{opacity:0.5;fill:#2C6882;}
	.st9{opacity:0.75;fill-rule:evenodd;clip-rule:evenodd;fill:#282828;}
	.st10{opacity:0.5;fill:#FFFFFF;}
	.st11{fill-rule:evenodd;clip-rule:evenodd;fill:none;stroke:#FFFFFF;stroke-miterlimit:10;}
	.st12{fill:none;stroke:#FFFFFF;stroke-miterlimit:10;}
	.st13{fill:#FFFFFF;stroke:#3B86B1;stroke-width:1.7139;stroke-miterlimit:10;}
	.st14{fill-rule:evenodd;clip-rule:evenodd;}
	.st15{opacity:0.85;fill:#FFFFFF;}
	.st16{opacity:0.5;fill-rule:evenodd;clip-rule:evenodd;}
	.st17{fill-rule:evenodd;clip-rule:evenodd;fill:#FEFEFE;}
	.st18{fill:#312767;}
	.st19{opacity:0.48;}
	.st20{opacity:0.25;}
	.st21{fill-rule:evenodd;clip-rule:evenodd;fill:#020202;}
	.st22{fill:#757575;}
	.st23{opacity:0.25;clip-path:url(#XMLID_2330_);}
	.st24{fill:#4D4789;}
	.st25{fill:#FFFFFF;stroke:#312767;stroke-miterlimit:10;}
	.st26{fill:#FFFFFF;stroke:#3B86B1;stroke-miterlimit:10;}
	.st27{fill:#ACABC9;}
	.st28{fill-rule:evenodd;clip-rule:evenodd;fill:#312767;}
	.st29{opacity:0.77;fill:#312767;}
	.st30{opacity:0.25;clip-path:url(#XMLID_2333_);}
	.st31{fill:#9490B2;stroke:#2D2D2D;stroke-width:0.25;stroke-miterlimit:10;}
	.st32{fill:#312767;stroke:#2D2D2D;stroke-width:0.25;stroke-miterlimit:10;}
	.st33{fill:#FCFCFC;}
	.st34{fill:#FFFFFF;stroke:#2D2D2D;stroke-width:0.25;stroke-miterlimit:10;}
	.st35{fill-rule:evenodd;clip-rule:evenodd;fill:#484849;stroke:#2D2D2D;stroke-width:0.25;stroke-miterlimit:10;}
	.st36{fill-rule:evenodd;clip-rule:evenodd;fill:#312767;stroke:#2D2D2D;stroke-width:0.25;stroke-miterlimit:10;}
	.st37{fill-rule:evenodd;clip-rule:evenodd;fill:#FFFFFF;stroke:#2D2D2D;stroke-width:0.25;stroke-miterlimit:10;}
	.st38{fill:#484849;stroke:#2D2D2D;stroke-width:0.25;stroke-miterlimit:10;}
	.st39{fill:#54518C;}
	.st40{fill:#FFFFFF;stroke:#FFFFFF;stroke-miterlimit:10;}
	.st41{opacity:0.25;fill-rule:evenodd;clip-rule:evenodd;fill:#FFFFFF;}
	.st42{fill:#D4A800;}
	.st43{fill:#00AEB3;}
	.st44{fill:#38353B;}
	.st45{fill:#FF8400;}
	.st46{fill:#BF3900;}
	.st47{fill:#00AA9C;}
	.st48{opacity:0.25;clip-path:url(#XMLID_2341_);}
	.st49{fill:none;stroke:#ACABC9;stroke-width:5;stroke-miterlimit:10;}
	.st50{opacity:0.25;clip-path:url(#XMLID_2350_);}
	.st51{fill:#DDDDDD;}
	.st52{opacity:0.25;clip-path:url(#XMLID_2354_);}
	.st53{fill-rule:evenodd;clip-rule:evenodd;fill:#FFFFFF;stroke:#FFFFFF;stroke-miterlimit:10;}
	.st54{fill:#F79748;}
	.st55{fill:#FF7900;}
	.st56{fill:#DD7105;}
	.st57{fill:#02897C;}
	.st58{fill:#0EAD9A;}
	.st59{fill:#28C6AF;}
	.st60{fill:#4FE0C7;}
	.st61{fill:#D37D00;}
	.st62{fill:#D14600;}
	.st63{fill:#E5B92E;}
	.st64{fill:#DD571B;}
	.st65{fill:#E28A17;}
	.st66{opacity:0.25;clip-path:url(#XMLID_2355_);}
	.st67{opacity:0.77;fill:#FFFFFF;}
	.st68{fill:#50565B;stroke:#656C70;stroke-miterlimit:10;}
	.st69{fill:#808589;stroke:#656C70;stroke-miterlimit:10;}
	.st70{fill:#252728;stroke:#000000;stroke-miterlimit:10;}
	.st71{fill:#1A1B1C;stroke:#000000;stroke-miterlimit:10;}
	.st72{fill:#A0A6AA;}
	.st73{fill:#262C35;stroke:#161A1E;stroke-miterlimit:10;}
	.st74{fill:#181D23;}
	.st75{fill:#EABA96;stroke:#E0AA86;stroke-miterlimit:10;}
	.st76{fill:#E0AA86;}
	.st77{stroke:#000000;stroke-width:0.75;stroke-linecap:square;stroke-linejoin:bevel;stroke-miterlimit:10;}
	.st78{fill:#0F1C3F;stroke:#182951;stroke-miterlimit:10;}
	.st79{fill:#132354;stroke:#3F6093;stroke-miterlimit:10;}
	.st80{fill:#0F1C3F;}
	.st81{fill:none;stroke:#3F6093;stroke-width:0.75;stroke-miterlimit:10;}
	.st82{fill:#DBA682;}
	.st83{fill:none;stroke:#E0AA86;stroke-miterlimit:10;}
	.st84{fill:none;stroke:#E0AA86;stroke-linejoin:bevel;stroke-miterlimit:10;}
	.st85{fill:#8A0A8E;stroke:#AC34B2;stroke-miterlimit:10;}
	.st86{fill:#810C87;}
	.st87{fill:#680B6D;}
	.st88{fill:#AC34B2;stroke:#AC34B2;stroke-width:0.5;stroke-miterlimit:10;}
	.st89{fill:none;stroke:#959DA0;stroke-width:0.5;stroke-miterlimit:10;}
	.st90{fill:#959DA0;stroke:#959DA0;stroke-width:0.5;stroke-miterlimit:10;}
	.st91{fill:none;stroke:#AC34B2;stroke-miterlimit:10;}
	.st92{fill:#282828;stroke:#000000;stroke-miterlimit:10;}
	.st93{fill:#EABA96;stroke:#E0AA86;stroke-width:0.5;stroke-miterlimit:10;}
	.st94{fill:#B7896A;}
	.st95{stroke:#000000;stroke-miterlimit:10;}
	.st96{fill:#C1A578;}
	.st97{stroke:#000000;stroke-width:0.25;stroke-linecap:round;stroke-linejoin:round;stroke-miterlimit:10;}
	.st98{fill:#FFFFFF;stroke:#000000;stroke-width:0.25;stroke-linecap:round;stroke-linejoin:round;stroke-miterlimit:10;}
	.st99{fill:#70582D;}
	.st100{stroke:#000000;stroke-linecap:round;stroke-linejoin:round;stroke-miterlimit:10;}
	.st101{fill:none;stroke:#D8A27D;stroke-width:0.75;stroke-miterlimit:10;}
	.st102{fill:#561409;}
	.st103{fill:#BA2A13;}
	.st104{fill:#9E3025;stroke:#4C2311;stroke-width:0.25;stroke-miterlimit:10;}
	.st105{fill:#871D08;stroke:#4C2311;stroke-width:0.25;stroke-miterlimit:10;}
	.st106{fill:#DDAC8A;}
	.st107{fill:#A5ABAD;stroke:#959DA0;stroke-width:0.5;stroke-miterlimit:10;}
	.st108{fill:#B1BABC;}
	.st109{fill:none;stroke:#153847;stroke-width:5;stroke-miterlimit:10;}
	.st110{fill:#3CA7AF;}
	.st111{fill:#3DAD8D;}
	.st112{fill:#3DAA61;}
	.st113{fill:#67A53F;}
	.st114{fill:#95A340;}
	.st115{opacity:0.25;clip-path:url(#XMLID_2356_);}
	.st116{opacity:0.25;clip-path:url(#XMLID_2357_);}
	.st117{opacity:0.25;clip-path:url(#XMLID_2358_);}
	.st118{clip-path:url(#SVGID_2_);}
	.st119{fill:none;stroke:#3F6093;stroke-miterlimit:10;}
	.st120{fill:none;stroke:#3F6093;stroke-width:0.75;stroke-linecap:round;stroke-linejoin:round;}
	.st121{fill:none;stroke:#3F6093;stroke-width:0.75;stroke-linecap:round;stroke-linejoin:round;stroke-dasharray:0.9892,0.9892;}
	
		.st122{fill:none;stroke:#3F6093;stroke-width:0.75;stroke-linecap:round;stroke-linejoin:round;stroke-miterlimit:10;stroke-dasharray:1;}
	.st123{fill:#EAEAEA;stroke:#FFFFFF;stroke-width:0.25;stroke-miterlimit:10;}
	.st124{fill:#D8D8D8;}
	.st125{fill:#282828;stroke:#000000;stroke-width:0.75;stroke-miterlimit:10;}
	.st126{opacity:0.33;fill:#FFFFFF;}
	.st127{fill:none;stroke:#000000;stroke-width:1.5;stroke-linecap:round;stroke-linejoin:round;stroke-miterlimit:10;}
	.st128{clip-path:url(#SVGID_4_);}
	.st129{opacity:0.64;}
	.st130{fill:#1D1D1B;}
	.st131{fill:#C9C9C9;}
</style>
<g id="XMLID_2247_">
	<g>
		<polygon id="XMLID_2325_" class="st5" points="233.6108,58.1387 247.6374,40.3532 237.2122,20.1843 233.6108,20.1868 		"/>
	</g>
</g>
<rect id="XMLID_2244_" class="st6" width="247.6374" height="40.3532"/>
<g>
	<g>
		<path d="M60.5537,22.5712l2.5225,0.7998c-0.3867,1.4063-1.0298,2.4512-1.9292,3.1328c-0.8994,0.6836-2.0405,1.0244-3.4233,1.0244
			c-1.7109,0-3.1172-0.585-4.2188-1.7529c-1.1016-1.1699-1.6523-2.7676-1.6523-4.7949c0-2.1445,0.5537-3.8105,1.6611-4.9961
			c1.1074-1.1875,2.5635-1.7803,4.3682-1.7803c1.5762,0,2.8564,0.4658,3.8408,1.3975c0.5859,0.5508,1.0254,1.3418,1.3184,2.373
			l-2.5752,0.6152c-0.1523-0.668-0.4702-1.1953-0.9536-1.582s-1.0708-0.5801-1.7622-0.5801c-0.9551,0-1.73,0.3428-2.3247,1.0283
			s-0.8921,1.7959-0.8921,3.3311c0,1.6289,0.293,2.7891,0.8789,3.4805s1.3477,1.0371,2.2852,1.0371
			c0.6914,0,1.2861-0.2197,1.7842-0.6592S60.3369,23.5145,60.5537,22.5712z"/>
		<path d="M64.7197,22.5096c0-0.8203,0.2021-1.6143,0.6064-2.3818s0.9771-1.3535,1.7183-1.7578s1.5688-0.6064,2.4829-0.6064
			c1.4121,0,2.5693,0.459,3.4717,1.375c0.9023,0.918,1.3535,2.0762,1.3535,3.4766c0,1.4121-0.4556,2.583-1.3667,3.5117
			s-2.0581,1.3926-3.4409,1.3926c-0.8555,0-1.6714-0.1934-2.4478-0.5801s-1.3667-0.9531-1.771-1.7012
			C64.9219,24.4921,64.7197,23.5819,64.7197,22.5096z M67.251,22.6415c0,0.9258,0.2197,1.6348,0.6592,2.127
			s0.9814,0.7383,1.626,0.7383s1.1851-0.2461,1.6216-0.7383s0.6548-1.207,0.6548-2.1445c0-0.9141-0.2183-1.6172-0.6548-2.1094
			s-0.9771-0.7383-1.6216-0.7383s-1.1865,0.2461-1.626,0.7383S67.251,21.7157,67.251,22.6415z"/>
		<path d="M84.7764,27.3085h-2.4697v-4.7637c0-1.0078-0.0527-1.6592-0.1582-1.9551s-0.2769-0.5264-0.5142-0.6904
			s-0.5229-0.2461-0.8569-0.2461c-0.4277,0-0.8115,0.1172-1.1514,0.3516s-0.5728,0.5449-0.6987,0.9316s-0.189,1.1016-0.189,2.1445
			v4.2275h-2.4697v-9.334h2.2939v1.3711c0.8145-1.0547,1.8398-1.582,3.0762-1.582c0.5449,0,1.043,0.0986,1.4941,0.2949
			s0.7925,0.4463,1.0239,0.751s0.3926,0.6504,0.4834,1.0371s0.1362,0.9404,0.1362,1.6611V27.3085z"/>
		<path d="M95.4199,20.7342l-2.4346,0.4395c-0.082-0.4863-0.2681-0.8525-0.5581-1.0986s-0.6665-0.3691-1.1294-0.3691
			c-0.6152,0-1.106,0.2129-1.4722,0.6377s-0.5493,1.1348-0.5493,2.1309c0,1.1074,0.186,1.8896,0.5581,2.3467
			s0.8716,0.6855,1.4985,0.6855c0.4688,0,0.8525-0.1328,1.1514-0.3994s0.5098-0.7256,0.6328-1.376l2.4258,0.4131
			c-0.252,1.1133-0.7354,1.9541-1.4502,2.5225s-1.6729,0.8525-2.874,0.8525c-1.3652,0-2.4536-0.4307-3.2651-1.292
			s-1.2173-2.0537-1.2173-3.5771c0-1.541,0.4072-2.7402,1.2217-3.5996c0.8145-0.8574,1.916-1.2871,3.3047-1.2871
			c1.1367,0,2.0405,0.2451,2.7114,0.7344S95.127,19.7323,95.4199,20.7342z"/>
		<path d="M102.6973,24.3378l2.4609,0.4131c-0.3164,0.9023-0.8159,1.5898-1.4985,2.0615s-1.5366,0.707-2.562,0.707
			c-1.623,0-2.8242-0.5303-3.6035-1.5908c-0.6152-0.8496-0.9229-1.9219-0.9229-3.2168c0-1.5469,0.4043-2.7578,1.2129-3.6338
			s1.8311-1.3145,3.0674-1.3145c1.3887,0,2.4844,0.459,3.2871,1.375c0.8027,0.918,1.1865,2.3223,1.1514,4.2148h-6.1875
			c0.0176,0.7324,0.2168,1.3027,0.5977,1.709c0.3809,0.4082,0.8555,0.6113,1.4238,0.6113c0.3867,0,0.7119-0.1055,0.9756-0.3164
			S102.5625,24.8065,102.6973,24.3378z M102.8379,21.8417c-0.0176-0.7148-0.2021-1.2578-0.5537-1.6309
			c-0.3516-0.3711-0.7793-0.5576-1.2832-0.5576c-0.5391,0-0.9844,0.1963-1.3359,0.5889s-0.5244,0.9258-0.5186,1.5996H102.8379z"/>
		<path d="M107.2324,17.9745h2.3027v1.3711c0.2988-0.4688,0.7031-0.8496,1.2129-1.1426s1.0752-0.4395,1.6963-0.4395
			c1.084,0,2.0039,0.4248,2.7598,1.2744s1.1338,2.0332,1.1338,3.5508c0,1.5586-0.3809,2.7705-1.1426,3.6338
			c-0.7617,0.8652-1.6846,1.2969-2.7686,1.2969c-0.5156,0-0.9829-0.1025-1.4019-0.3076s-0.8599-0.5566-1.3228-1.0547v4.7021h-2.4697
			V17.9745z M109.6758,22.4833c0,1.0488,0.208,1.8232,0.624,2.3252c0.416,0.5,0.9229,0.751,1.5205,0.751
			c0.5742,0,1.0518-0.2295,1.4326-0.6904c0.3809-0.459,0.5713-1.2139,0.5713-2.2627c0-0.9785-0.1963-1.7051-0.5889-2.1797
			s-0.8789-0.7119-1.459-0.7119c-0.6035,0-1.1045,0.2324-1.5029,0.6992C109.875,20.8788,109.6758,21.5692,109.6758,22.4833z"/>
		<path d="M122.5781,17.9745v1.9688h-1.6875v3.7617c0,0.7617,0.0161,1.2061,0.0483,1.332s0.1055,0.2295,0.2197,0.3115
			s0.2534,0.123,0.4175,0.123c0.2285,0,0.5596-0.0791,0.9932-0.2373l0.2109,1.916c-0.5742,0.2461-1.2246,0.3691-1.9512,0.3691
			c-0.4453,0-0.8467-0.0742-1.2041-0.2246c-0.3574-0.1484-0.6196-0.3418-0.7866-0.5801c-0.167-0.2363-0.2827-0.5576-0.3472-0.9619
			c-0.0527-0.2871-0.0791-0.8672-0.0791-1.7402v-4.0693h-1.1338v-1.9688h1.1338V16.12l2.4785-1.4414v3.2959H122.5781z"/>
		<path d="M123.7207,22.5096c0-0.8203,0.2021-1.6143,0.6064-2.3818s0.9771-1.3535,1.7183-1.7578s1.5688-0.6064,2.4829-0.6064
			c1.4121,0,2.5693,0.459,3.4717,1.375c0.9023,0.918,1.3535,2.0762,1.3535,3.4766c0,1.4121-0.4556,2.583-1.3667,3.5117
			s-2.0581,1.3926-3.4409,1.3926c-0.8555,0-1.6714-0.1934-2.4478-0.5801s-1.3667-0.9531-1.771-1.7012
			C123.9229,24.4921,123.7207,23.5819,123.7207,22.5096z M126.252,22.6415c0,0.9258,0.2197,1.6348,0.6592,2.127
			s0.9814,0.7383,1.626,0.7383s1.1851-0.2461,1.6216-0.7383s0.6548-1.207,0.6548-2.1445c0-0.9141-0.2183-1.6172-0.6548-2.1094
			s-0.9771-0.7383-1.6216-0.7383s-1.1865,0.2461-1.626,0.7383S126.252,21.7157,126.252,22.6415z"/>
	</g>
</g>
<g>
	<path class="st31" d="M30.1883,11.0619h3.1108l-3.5323-3.5322v3.111C29.7668,10.873,29.9559,11.0619,30.1883,11.0619z"/>
</g>
<path class="st31" d="M30.1883,12.0575c-0.7815,0-1.4171-0.6356-1.4171-1.4168V7.1883H15.2957
	c-0.4878,0-0.8832,0.3954-0.8832,0.8832v23.5126c0,0.4878,0.3954,0.8832,0.8832,0.8832h17.4858
	c0.4878,0,0.8832-0.3955,0.8832-0.8832V12.0575H30.1883z"/>
<path class="st32" d="M16.708,10.4387h10.4218c0.2061,0,0.3733,0.1672,0.3733,0.3733c0,0.2061-0.1672,0.3733-0.3733,0.3733H16.708
	c-0.2061,0-0.3733-0.1672-0.3733-0.3733C16.3347,10.606,16.5019,10.4387,16.708,10.4387z"/>
<path class="st32" d="M31.3691,28.041H16.708c-0.2061,0-0.3733-0.1672-0.3733-0.3733c0-0.2061,0.1672-0.3734,0.3733-0.3734h14.661
	c0.2061,0,0.3733,0.1673,0.3733,0.3734C31.7424,27.8738,31.5752,28.041,31.3691,28.041z"/>
<path class="st32" d="M31.3691,25.2317H16.708c-0.2061,0-0.3733-0.1672-0.3733-0.3734c0-0.2061,0.1672-0.3733,0.3733-0.3733h14.661
	c0.2061,0,0.3733,0.1672,0.3733,0.3733C31.7424,25.0645,31.5752,25.2317,31.3691,25.2317z"/>
<path class="st32" d="M31.3691,22.4226H16.708c-0.2061,0-0.3733-0.1672-0.3733-0.3733c0-0.2062,0.1672-0.3734,0.3733-0.3734h14.661
	c0.2061,0,0.3733,0.1672,0.3733,0.3734C31.7424,22.2554,31.5752,22.4226,31.3691,22.4226z"/>
<path class="st32" d="M31.3691,19.6133H16.708c-0.2061,0-0.3733-0.1672-0.3733-0.3734c0-0.2061,0.1672-0.3733,0.3733-0.3733h14.661
	c0.2061,0,0.3733,0.1672,0.3733,0.3733C31.7424,19.4461,31.5752,19.6133,31.3691,19.6133z"/>
<path class="st32" d="M31.3691,16.804H16.708c-0.2061,0-0.3733-0.1672-0.3733-0.3733c0-0.2061,0.1672-0.3733,0.3733-0.3733h14.661
	c0.2061,0,0.3733,0.1672,0.3733,0.3733C31.7424,16.6368,31.5752,16.804,31.3691,16.804z"/>
<path class="st32" d="M31.3691,13.9947H16.708c-0.2061,0-0.3733-0.1672-0.3733-0.3733c0-0.2061,0.1672-0.3733,0.3733-0.3733h14.661
	c0.2061,0,0.3733,0.1672,0.3733,0.3733C31.7424,13.8275,31.5752,13.9947,31.3691,13.9947z"/>
<polygon id="XMLID_2036_" class="st8" points="233.6108,47.5236 0,40.3532 233.611,40.3532 "/>
</svg>
