<?xml version="1.0" encoding="utf-8"?>
<!-- Generator: Adobe Illustrator 21.0.2, SVG Export Plug-In . SVG Version: 6.00 Build 0)  -->
<svg version="1.1" id="Capa_1" xmlns="http://www.w3.org/2000/svg" xmlns:xlink="http://www.w3.org/1999/xlink" x="0px" y="0px"
	 viewBox="0 0 274.8483 254.9595" style="enable-background:new 0 0 274.8483 254.9595;" xml:space="preserve">
<style type="text/css">
	.st0{fill-rule:evenodd;clip-rule:evenodd;fill:#DDDDDD;}
	.st1{fill:#ACABC9;}
	.st2{opacity:0.25;clip-path:url(#XMLID_2960_);}
	.st3{fill:#FFFFFF;}
	.st4{fill:#3B86B1;}
	.st5{opacity:0.25;fill-rule:evenodd;clip-rule:evenodd;fill:#020202;}
	.st6{opacity:0.5;}
	.st7{fill-rule:evenodd;clip-rule:evenodd;fill:#A8A8A8;}
	.st8{fill-rule:evenodd;clip-rule:evenodd;fill:#FFFFFF;}
	.st9{fill-rule:evenodd;clip-rule:evenodd;fill:#3B86B1;}
	.st10{opacity:0.5;fill:#2C6882;}
	.st11{opacity:0.75;fill-rule:evenodd;clip-rule:evenodd;fill:#282828;}
	.st12{opacity:0.5;fill:#FFFFFF;}
	.st13{fill-rule:evenodd;clip-rule:evenodd;fill:none;stroke:#FFFFFF;stroke-miterlimit:10;}
	.st14{fill:none;stroke:#FFFFFF;stroke-miterlimit:10;}
	.st15{fill:#FFFFFF;stroke:#3B86B1;stroke-width:1.7139;stroke-miterlimit:10;}
	.st16{fill-rule:evenodd;clip-rule:evenodd;}
	.st17{opacity:0.85;fill:#FFFFFF;}
	.st18{opacity:0.5;fill-rule:evenodd;clip-rule:evenodd;}
	.st19{fill-rule:evenodd;clip-rule:evenodd;fill:#FEFEFE;}
	.st20{fill:#312767;}
	.st21{opacity:0.48;}
	.st22{opacity:0.25;}
	.st23{fill-rule:evenodd;clip-rule:evenodd;fill:#020202;}
	.st24{fill:#757575;}
	.st25{opacity:0.25;clip-path:url(#XMLID_2961_);}
	.st26{fill:#FFFFFF;stroke:#312767;stroke-miterlimit:10;}
	.st27{fill-rule:evenodd;clip-rule:evenodd;fill:#312767;}
	.st28{opacity:0.77;fill:#312767;}
	.st29{opacity:0.25;clip-path:url(#XMLID_2962_);}
	.st30{opacity:0.75;}
	.st31{fill-rule:evenodd;clip-rule:evenodd;fill:#282828;}
	.st32{fill:#9490B2;stroke:#2D2D2D;stroke-width:0.25;stroke-miterlimit:10;}
	.st33{fill:#312767;stroke:#2D2D2D;stroke-width:0.25;stroke-miterlimit:10;}
	.st34{fill:#FCFCFC;}
	.st35{fill:#FFFFFF;stroke:#2D2D2D;stroke-width:0.25;stroke-miterlimit:10;}
	.st36{fill-rule:evenodd;clip-rule:evenodd;fill:#484849;stroke:#2D2D2D;stroke-width:0.25;stroke-miterlimit:10;}
	.st37{fill-rule:evenodd;clip-rule:evenodd;fill:#312767;stroke:#2D2D2D;stroke-width:0.25;stroke-miterlimit:10;}
	.st38{fill-rule:evenodd;clip-rule:evenodd;fill:#FFFFFF;stroke:#2D2D2D;stroke-width:0.25;stroke-miterlimit:10;}
	.st39{fill:#484849;stroke:#2D2D2D;stroke-width:0.25;stroke-miterlimit:10;}
	.st40{fill:#FFFFFF;stroke:#FFFFFF;stroke-miterlimit:10;}
	.st41{fill:#54518C;}
	.st42{opacity:0.25;fill-rule:evenodd;clip-rule:evenodd;fill:#FFFFFF;}
	.st43{fill:#D4A800;}
	.st44{fill:#00AEB3;}
	.st45{fill:#38353B;}
	.st46{fill:#FF8400;}
	.st47{fill:#BF3900;}
	.st48{fill:#00AA9C;}
	.st49{opacity:0.25;clip-path:url(#XMLID_2963_);}
	.st50{fill:none;stroke:#ACABC9;stroke-width:5;stroke-miterlimit:10;}
	.st51{fill:#67A53F;}
	.st52{fill:#DDDDDD;}
	.st53{opacity:0.25;clip-path:url(#XMLID_2964_);}
	.st54{fill-rule:evenodd;clip-rule:evenodd;fill:#FFFFFF;stroke:#FFFFFF;stroke-miterlimit:10;}
	.st55{fill:#02897C;}
	.st56{fill:#0EAD9A;}
	.st57{fill:#28C6AF;}
	.st58{fill:#4FE0C7;}
	.st59{opacity:0.25;clip-path:url(#XMLID_2965_);}
	.st60{fill:#3CA7AF;}
	.st61{fill:#3DAD8D;}
	.st62{fill:#296E8C;}
	.st63{fill:#308E71;}
	.st64{fill:#2D8A8C;}
	.st65{opacity:0.25;clip-path:url(#XMLID_2966_);}
	.st66{opacity:0.77;fill:#FFFFFF;}
	.st67{fill:#50565B;stroke:#656C70;stroke-miterlimit:10;}
	.st68{fill:#808589;stroke:#656C70;stroke-miterlimit:10;}
	.st69{fill:#252728;stroke:#000000;stroke-miterlimit:10;}
	.st70{fill:#1A1B1C;stroke:#000000;stroke-miterlimit:10;}
	.st71{fill:#A0A6AA;}
	.st72{fill:#262C35;stroke:#161A1E;stroke-miterlimit:10;}
	.st73{fill:#181D23;}
	.st74{fill:#EABA96;stroke:#E0AA86;stroke-miterlimit:10;}
	.st75{fill:#E0AA86;}
	.st76{stroke:#000000;stroke-width:0.75;stroke-linecap:square;stroke-linejoin:bevel;stroke-miterlimit:10;}
	.st77{fill:#0F1C3F;stroke:#182951;stroke-miterlimit:10;}
	.st78{fill:#132354;stroke:#3F6093;stroke-miterlimit:10;}
	.st79{fill:#0F1C3F;}
	.st80{fill:none;stroke:#3F6093;stroke-width:0.75;stroke-miterlimit:10;}
	.st81{fill:#DBA682;}
	.st82{fill:none;stroke:#E0AA86;stroke-miterlimit:10;}
	.st83{fill:none;stroke:#E0AA86;stroke-linejoin:bevel;stroke-miterlimit:10;}
	.st84{fill:#8A0A8E;stroke:#AC34B2;stroke-miterlimit:10;}
	.st85{fill:#810C87;}
	.st86{fill:#680B6D;}
	.st87{fill:#AC34B2;stroke:#AC34B2;stroke-width:0.5;stroke-miterlimit:10;}
	.st88{fill:none;stroke:#959DA0;stroke-width:0.5;stroke-miterlimit:10;}
	.st89{fill:#959DA0;stroke:#959DA0;stroke-width:0.5;stroke-miterlimit:10;}
	.st90{fill:none;stroke:#AC34B2;stroke-miterlimit:10;}
	.st91{fill:#282828;stroke:#000000;stroke-miterlimit:10;}
	.st92{fill:#EABA96;stroke:#E0AA86;stroke-width:0.5;stroke-miterlimit:10;}
	.st93{fill:#B7896A;}
	.st94{stroke:#000000;stroke-miterlimit:10;}
	.st95{fill:#C1A578;}
	.st96{stroke:#000000;stroke-width:0.25;stroke-linecap:round;stroke-linejoin:round;stroke-miterlimit:10;}
	.st97{fill:#FFFFFF;stroke:#000000;stroke-width:0.25;stroke-linecap:round;stroke-linejoin:round;stroke-miterlimit:10;}
	.st98{fill:#70582D;}
	.st99{stroke:#000000;stroke-linecap:round;stroke-linejoin:round;stroke-miterlimit:10;}
	.st100{fill:none;stroke:#D8A27D;stroke-width:0.75;stroke-miterlimit:10;}
	.st101{fill:#561409;}
	.st102{fill:#BA2A13;}
	.st103{fill:#9E3025;stroke:#4C2311;stroke-width:0.25;stroke-miterlimit:10;}
	.st104{fill:#871D08;stroke:#4C2311;stroke-width:0.25;stroke-miterlimit:10;}
	.st105{fill:#DDAC8A;}
	.st106{fill:#A5ABAD;stroke:#959DA0;stroke-width:0.5;stroke-miterlimit:10;}
	.st107{fill:#B1BABC;}
	.st108{fill:none;stroke:#153847;stroke-width:5;stroke-miterlimit:10;}
	.st109{fill:#3DAA61;}
	.st110{fill:#95A340;}
	.st111{opacity:0.25;clip-path:url(#XMLID_2967_);}
	.st112{opacity:0.25;clip-path:url(#XMLID_2968_);}
	.st113{opacity:0.25;clip-path:url(#XMLID_2969_);}
	.st114{opacity:0.25;clip-path:url(#XMLID_2970_);}
	.st115{opacity:0.25;clip-path:url(#XMLID_2971_);}
	.st116{clip-path:url(#SVGID_2_);}
	.st117{fill:none;stroke:#3F6093;stroke-miterlimit:10;}
	.st118{fill:none;stroke:#3F6093;stroke-width:0.75;stroke-linecap:round;stroke-linejoin:round;}
	.st119{fill:none;stroke:#3F6093;stroke-width:0.75;stroke-linecap:round;stroke-linejoin:round;stroke-dasharray:0.9892,0.9892;}
	
		.st120{fill:none;stroke:#3F6093;stroke-width:0.75;stroke-linecap:round;stroke-linejoin:round;stroke-miterlimit:10;stroke-dasharray:1;}
	.st121{fill:#EAEAEA;stroke:#FFFFFF;stroke-width:0.25;stroke-miterlimit:10;}
	.st122{fill:#D8D8D8;}
	.st123{fill:#282828;stroke:#000000;stroke-width:0.75;stroke-miterlimit:10;}
	.st124{opacity:0.33;fill:#FFFFFF;}
	.st125{fill:none;stroke:#000000;stroke-width:1.5;stroke-linecap:round;stroke-linejoin:round;stroke-miterlimit:10;}
	.st126{opacity:0.64;}
	.st127{fill:#C9C9C9;}
	.st128{fill:#FFF064;}
	.st129{fill:#4F4E4F;}
	.st130{fill:#1E2F47;}
	.st131{opacity:0.1;fill:#FFFFFF;}
	.st132{opacity:0.1;}
	.st133{opacity:0.4;fill:#FFFFFF;}
	.st134{fill-rule:evenodd;clip-rule:evenodd;fill:#F39C12;}
	.st135{fill-rule:evenodd;clip-rule:evenodd;fill:#E6E6E6;}
	.st136{fill-rule:evenodd;clip-rule:evenodd;fill:#474646;}
	.st137{fill-rule:evenodd;clip-rule:evenodd;fill:#D84848;}
	.st138{opacity:0.2;fill-rule:evenodd;clip-rule:evenodd;fill:#231F20;}
	.st139{opacity:0.1;fill-rule:evenodd;clip-rule:evenodd;fill:#231F20;}
	.st140{fill-rule:evenodd;clip-rule:evenodd;fill:#4D4D4D;}
	.st141{fill-rule:evenodd;clip-rule:evenodd;fill:#336699;}
	.st142{fill-rule:evenodd;clip-rule:evenodd;fill:#FF6633;}
	.st143{fill-rule:evenodd;clip-rule:evenodd;fill:#0056A3;}
	.st144{fill-rule:evenodd;clip-rule:evenodd;fill:#33CC99;}
	.st145{fill:#CE6405;}
	.st146{opacity:0.2;fill:#FFFFFF;}
	.st147{fill:#1ABC9C;}
	.st148{opacity:0.2;}
	.st149{fill:#0B2E44;}
	.st150{fill-rule:evenodd;clip-rule:evenodd;fill:#154F77;}
	.st151{fill-rule:evenodd;clip-rule:evenodd;fill:#0D3858;}
	.st152{fill-rule:evenodd;clip-rule:evenodd;fill:#FFFEFE;}
	.st153{fill:#AEC647;}
	.st154{fill:#F3AE1B;}
	.st155{fill:#DF3F11;}
	.st156{fill:#BCDEDE;}
	.st157{fill:#C84119;}
	.st158{fill:#6BB5CE;}
	.st159{fill:#00D0E5;}
	.st160{fill:#FF81ED;}
	.st161{fill:#00C982;}
	.st162{opacity:0.7;}
	.st163{opacity:0.4;}
	.st164{fill-rule:evenodd;clip-rule:evenodd;fill:#0B2E44;}
	.st165{opacity:0.8;fill-rule:evenodd;clip-rule:evenodd;fill:#FFFFFF;}
	.st166{fill:#424242;}
	.st167{opacity:0.2;fill-rule:evenodd;clip-rule:evenodd;fill:#FFFFFF;}
	.st168{fill:#D0EDFA;}
	.st169{fill:#FF651F;}
	.st170{fill:#0051C4;}
	.st171{fill:#E46400;}
	.st172{fill:#C0003B;}
	.st173{fill:#FFEA50;}
	.st174{fill:#FF2C0D;}
	.st175{fill:#FF1A2C;}
	.st176{fill:#FF2C4D;}
	.st177{fill:#FFD74C;}
	.st178{fill:#4C4C4B;}
	.st179{fill:#6CD2EA;}
	.st180{fill:#F7674F;}
	.st181{opacity:0.1;fill-rule:evenodd;clip-rule:evenodd;}
	.st182{fill:#BABABA;}
	.st183{fill:#F9B946;}
	.st184{fill:#DFC2A9;}
	.st185{fill:#BFA490;}
	.st186{fill:#F5D4B2;}
	.st187{fill:#DF584C;}
	.st188{fill:#C2443E;}
	.st189{fill:#DBDBDA;}
	.st190{fill:#2F363E;}
	.st191{fill:#332524;}
	.st192{fill:#473735;}
	.st193{opacity:0.25;clip-path:url(#XMLID_2972_);}
	.st194{fill:#52B8BA;}
	.st195{fill:#35373E;}
	.st196{fill:#D37D00;}
	.st197{opacity:0.25;clip-path:url(#XMLID_2973_);}
	.st198{opacity:0.31;}
	.st199{fill:#34383A;}
	.st200{opacity:0.16;}
	.st201{fill:#3D3835;}
	.st202{fill:#D0D1D4;}
	.st203{opacity:0.25;clip-path:url(#XMLID_2974_);}
	.st204{fill:#F9E1B4;}
	.st205{fill:#050505;}
	.st206{fill:#FCC60F;}
	.st207{fill:#74CAEA;}
	.st208{opacity:0.25;clip-path:url(#XMLID_2975_);}
	.st209{fill:#FABC8F;}
	.st210{fill:#3FA995;}
	.st211{opacity:0.17;fill:#020202;}
	.st212{fill:#E1E1E1;}
	.st213{opacity:0.17;}
	.st214{fill:#020202;}
	.st215{opacity:0.25;clip-path:url(#XMLID_2976_);}
	.st216{fill:#BF8E00;}
	.st217{fill:#F7D8D7;}
	.st218{fill:#F18636;}
	.st219{fill:#004460;}
	.st220{fill:#D93A37;}
	.st221{fill:#48505A;}
	.st222{fill:#C3C3C3;}
	.st223{fill:#E9E9EA;}
	.st224{fill:#9D9E9F;}
	.st225{fill:#F6F4F4;}
	.st226{fill:#6B6A6A;}
	.st227{fill:#C09478;}
	.st228{fill:#F7CDA0;}
	.st229{fill:#9E1010;}
	.st230{fill:#F2F2F2;}
	.st231{opacity:0.2;fill:#060606;}
	.st232{fill:#16AFBE;}
	.st233{fill:#DD2222;}
	.st234{fill:#FFEDDC;}
	.st235{fill:#22272B;}
	.st236{fill:#5B6375;}
	.st237{fill:#F79748;}
	.st238{fill:#FF7900;}
	.st239{fill:#DD7105;}
	.st240{fill:#556071;}
	.st241{fill:#FBFBFB;}
	.st242{fill:#BCBDC1;}
	.st243{fill:#6D6D6D;}
	.st244{fill:#D3D3D3;}
	.st245{fill:#3C6BAF;stroke:#3C6BAF;stroke-miterlimit:10;}
	.st246{fill:none;stroke:#153847;stroke-width:4;stroke-miterlimit:10;}
	.st247{fill:#153847;}
	.st248{fill:#50565B;}
	.st249{fill:#656C70;}
	.st250{fill:#808589;}
	.st251{fill:#252728;}
	.st252{fill:#1A1B1C;}
	.st253{fill:#262C35;}
	.st254{fill:#161A1E;}
	.st255{fill:#8DA367;}
	.st256{fill:#333231;}
	.st257{fill:#353534;}
	.st258{fill:#1D1D1B;}
	.st259{fill:#282828;}
	.st260{fill:#494949;}
	.st261{fill:#727271;}
	.st262{fill:#3F3F3F;}
	.st263{fill:#282421;}
	.st264{fill:#D6D6D6;}
	.st265{fill:#A0A0A0;}
	.st266{fill:#9ABA78;}
	.st267{fill:#849E5F;}
	.st268{fill:#799354;}
	.st269{fill:#76934D;}
	.st270{fill:#E8C3AA;}
	.st271{fill:#DBAD93;}
	.st272{fill:#E0B9A0;}
	.st273{fill:#5E4334;}
	.st274{fill:#846A5E;}
	.st275{fill:#49342A;}
	.st276{fill:#92AF71;}
	.st277{fill:#5098D8;}
	.st278{fill:#1C1E19;}
	.st279{fill:#5E5E5C;}
	.st280{fill:#939393;}
	.st281{fill:#23261D;}
	.st282{fill:#3C3C3B;}
	.st283{fill:#1D71B7;}
	.st284{fill:#2F894A;}
	.st285{fill:#422A17;}
	.st286{fill:#FFD7BC;}
	.st287{fill:#694326;}
	.st288{fill:#B08F76;}
	.st289{fill:#E3E3E3;}
	.st290{fill:#1A1818;}
	.st291{fill:#3B3738;}
	.st292{fill:#28A0B0;}
	.st293{fill:#42DCFA;}
	.st294{fill:#F5F5F5;}
	.st295{fill:#E3B494;}
	.st296{fill:#4A2F1B;}
	.st297{fill:none;stroke:#E3B494;stroke-width:2;stroke-linecap:round;stroke-linejoin:round;stroke-miterlimit:10;}
	.st298{fill:#F7CDB0;}
	.st299{fill:#FF7155;}
	.st300{fill:none;stroke:#4A2F1B;stroke-miterlimit:10;}
	.st301{fill:none;stroke:#4A2F1B;stroke-linecap:round;stroke-linejoin:round;stroke-miterlimit:10;}
	.st302{fill:#8B8BB2;}
	.st303{fill:#2E1D11;}
	.st304{fill:#4A4D4F;}
	.st305{fill:#5B5F61;}
	.st306{fill:#7C99A1;}
	.st307{fill:#C4543D;}
	.st308{fill:#A8D1DB;}
	.st309{fill:#5D5D5D;}
	.st310{fill:#4A4A4A;}
	.st311{fill:#1A7E8C;}
	.st312{fill:#292929;}
	.st313{fill:#2B1C0F;}
	.st314{fill:#362213;}
	.st315{fill:#2F6E9C;}
	.st316{fill:#468CBF;}
	.st317{fill:#589ED1;}
	.st318{fill:#84BEE8;}
	.st319{fill:#1F1F1F;}
	.st320{fill:#383838;}
	.st321{fill:#363636;}
</style>
<g>
	<g>
		<ellipse class="st302" cx="50.9108" cy="234.5704" rx="50.9107" ry="11.1527"/>
		<ellipse class="st302" cx="177.4678" cy="233.627" rx="97.3797" ry="21.3324"/>
		<g>
			<g>
				<g>
					<path class="st309" d="M262.3294,165.6268c0,1.8719-1.5154,3.3893-3.3896,3.3893h-12.7836
						c-1.8701,0-3.3879-1.5174-3.3879-3.3893v-54.6102c0-1.8714,1.5178-3.3892,3.3879-3.3892h12.7836
						c1.8743,0,3.3896,1.5178,3.3896,3.3892V165.6268z"/>
					<path class="st292" d="M268.4553,148.6683c0,1.8718-1.5179,3.3892-3.3905,3.3892h-32.2325
						c-1.8727,0-3.3889-1.5174-3.3889-3.3892V72.9462c0-1.8718,1.5161-3.3888,3.3889-3.3888h32.2325
						c1.8727,0,3.3905,1.517,3.3905,3.3888V148.6683z"/>
					<path class="st292" d="M268.4553,148.6683c0,1.8718-1.5179,3.3892-3.3905,3.3892h-32.2325
						c-1.8727,0-3.3889-1.5174-3.3889-3.3892V72.9462c0-1.8718,1.5161-3.3888,3.3889-3.3888h32.2325
						c1.8727,0,3.3905,1.517,3.3905,3.3888V148.6683z"/>
					<path class="st311" d="M261.8768,79.4877l-32.4333-6.2731v75.4537c0,1.8718,1.5161,3.3892,3.3889,3.3892h29.1856
						l3.2459-69.1806C265.2639,81.0065,263.7477,79.4877,261.8768,79.4877z"/>
				</g>
				<g>
					<path class="st312" d="M234.7586,231.8913c-0.2595,1.9705-2.1245,3.2322-4.1656,2.8179
						c-2.0411-0.4144-3.4841-2.3474-3.2237-4.3187c0.2603-1.9705,2.1244-3.2297,4.1665-2.8162
						C233.5751,227.9885,235.0198,229.922,234.7586,231.8913z"/>
					<path class="st312" d="M245.0781,216.6539c-0.2603,1.9714-2.1262,3.2331-4.1656,2.8184
						c-2.0403-0.4131-3.485-2.3475-3.2246-4.3193c0.2612-1.9692,2.1262-3.2292,4.1673-2.8162
						C243.8946,212.7516,245.3393,214.6855,245.0781,216.6539z"/>
					<path class="st309" d="M228.8624,230.0501c-1.0133-0.2978-1.3383-1.0538-0.9334-1.5974l11.4061-16.4238
						c0.405-0.545,0.9572-0.5538,2.5048-0.2676l2.0079,0.3692c1.4115,0.4335,1.3375,1.3758,0.9342,1.9203l-10.9288,16.0537
						c-0.405,0.5441-0.9827,0.6636-2.3772,0.4237C231.4761,230.5282,229.4903,230.2334,228.8624,230.0501z"/>
					<path class="st312" d="M239.866,218.2164c-0.2365,1.8573-1.1945,3.2633-2.1432,3.1438l-2.9608-0.3774
						c-0.9487-0.1199-1.5229-1.7238-1.2881-3.5802l1.9773-42.3253c0-1.8718,0.7734-3.3896,1.728-3.3896h2.9864
						c0.9546,0,1.7288,1.5179,1.7288,3.3896L239.866,218.2164z"/>
					<path class="st292" d="M268.8901,169.1917c0.3003,1.848-0.9546,3.5875-2.8051,3.8866l-54.6338,8.8294
						c-1.8496,0.2986-3.5879-0.9577-3.8874-2.8048l-0.6517-4.0329c-0.2995-1.8489,0.958-3.5883,2.8051-3.8878l54.6345-8.8281
						c1.8488-0.2991,3.5879,0.9563,3.8865,2.8047L268.8901,169.1917z"/>
					<path class="st311" d="M268.4264,166.3288c-0.4961,0.8159-1.3214,1.4264-2.3415,1.5915l-54.6338,8.829
						c-1.8496,0.2986-3.5879-0.9572-3.8874-2.8052l-0.1889-1.1695c-0.405,0.6654-0.5964,1.4652-0.4628,2.2955l0.6517,4.0329
						c0.2995,1.8471,2.0378,3.1033,3.8874,2.8048l54.6338-8.8294c1.8505-0.2991,3.1054-2.0386,2.8051-3.8866L268.4264,166.3288z"/>
					<path class="st312" d="M226.2622,228.0595c-0.2586,1.9696-2.1244,3.2306-4.1664,2.8171
						c-2.0385-0.4139-3.4832-2.3478-3.2246-4.3187c0.2604-1.9701,2.1263-3.2306,4.1665-2.8166
						C225.0788,224.1552,226.5235,226.0899,226.2622,228.0595z"/>
					<path class="st312" d="M255.3467,229.4915c-0.2612,1.9705-2.1271,3.2318-4.1682,2.8171
						c-2.0394-0.4139-3.4824-2.347-3.2238-4.3175c0.2603-1.9705,2.1253-3.2327,4.1664-2.8171
						C254.1615,225.5879,255.6062,227.5209,255.3467,229.4915z"/>
					<path class="st309" d="M254.7528,223.5158c0.0366,1.0541-0.8074,1.8688-1.8854,1.8182l-31.8589-1.4698
						c-1.0797-0.0498-1.9816-0.9444-2.019-1.9986l-0.0783-2.2993c-0.0365-1.0542,0.8075-1.8672,1.8855-1.8186l31.8606,1.4707
						c1.0789,0.0493,1.9808,0.9431,2.0174,1.9969L254.7528,223.5158z"/>
				</g>
				<g>
					<path class="st286" d="M174.6919,63.8892c0,0-0.4658-4.7563-0.7131-9.8445c-0.0459-0.9311-2.7245-0.3125-3.0583,0.4078
						c-0.9924,2.0876-2.7059,1.0339-3.5562-5.05c0,0-4.9354,0.2167-6.2847,1.887c0,0-1.8307-0.0949-2.3537,2.3174
						c0,0-0.6104-0.8631-0.6442,1.0462c0,0,5.508,8.5176,11.6002,12.2213L174.6919,63.8892z"/>
					<path class="st286" d="M173.9879,53.2494c0.0116,1.661-0.1331,5.2498-2.2101,6.2653c-2.0778,1.018-0.8071-8.1865,0.6016-9.718
						C173.7893,48.2644,173.9808,52.2983,173.9879,53.2494z"/>
					<path class="st286" d="M162.0941,54.1412c0,0-4.1256-6.2581-5.5203-5.5313c-2.7907,1.455,3.4875,9.4751,5.1178,8.8435
						C163.6093,56.7094,162.6237,54.8875,162.0941,54.1412z"/>
					<path class="st286" d="M163.6842,51.032c0,0-4.1257-6.2581-5.5194-5.5315c-2.7916,1.4553,3.4861,9.4742,5.1156,8.8423
						C165.1995,53.5998,164.2146,51.7785,163.6842,51.032z"/>
					<path class="st286" d="M165.9663,49.2434c0,0-4.1248-6.2578-5.5193-5.5314c-2.7914,1.4543,3.4867,9.4748,5.1189,8.843
						C167.4827,51.8108,166.4983,49.9905,165.9663,49.2434z"/>
					<path class="st286" d="M167.436,49.8626c0,0-1.0641-7.4846-2.6156-7.2257c-3.1034,0.5214,0.4437,12.3302,2.1904,12.2329
						C169.0659,54.757,167.8918,53.1039,167.436,49.8626z"/>
				</g>
				<path class="st289" d="M233.0078,79.3485c0,0,0.8121,3.4386-0.9494,8.5084c0,0-8.9655,8.6184-29.786,3.9123
					c-17.1664-3.8796-35.6383-25.1432-35.6383-25.1432s2.5206,0.0544,8.7209-6.403c0,0,16.4756,25.1589,41.7549,22.1757
					C225.6051,81.3948,233.0078,79.3485,233.0078,79.3485z"/>
				<g>
					<path class="st313" d="M194.3965,214.2605c0,0-0.3046,9.7458,0.3948,11.3546c0.7011,1.606-14.1705,5.5644-22.2923,4.4545
						c-11.1917-1.5285-11.7805-15.2743-4.6957-16.594c4.7765-0.8891,14.9855,10.0661,18.9801,0.1519L194.3965,214.2605z"/>
					<path class="st287" d="M246.4939,147.9217c-11.1899,3.3939-13.8624,4.3409-18.7852,4.3897
						c-11.5031,0.1132-22.5918,0.545-32.2341,3.91l0.0365,0.0643c-12.0356,3.9346-9.6917,56.9049-9.6917,56.9049
						c5.8383,2.8681,11.7711,1.6953,11.7711,1.6953s-0.559-21.7542,2.0803-36.0054c0.5998-3.239,1.7356-8.6609,2.8153-9.8643l0,0
						c19.317-4.7102,46.4624-2.786,46.4624-2.786C252.693,148.9963,246.4939,147.9217,246.4939,147.9217z"/>
					<path class="st288" d="M235.7608,166.9729c0,0-9.5215-4.6085-10.0048-15.5496c0,0,12.2603-5.1143,27.034,2.2827
						c0,0-0.8253,3.5326-1.6148,12.3982L235.7608,166.9729z"/>
					<path class="st285" d="M209.3667,221.2262c0,0-0.3029,9.7458,0.3956,11.3534c0.7019,1.6076-14.1687,5.5652-22.2923,4.4566
						c-11.1918-1.5293-11.7788-15.2764-4.6949-16.5948c4.7747-0.8887,14.9846,10.0669,18.9827,0.1523L209.3667,221.2262z"/>
					<path class="st288" d="M242.6686,164.525c-1.4983-0.8538-3.1676-1.5234-4.5731-2.5282
						c-2.3712-1.6944-4.5672-3.647-6.7904-5.5435c0,0-19.3672,3.8113-24.0246,6.6888c-9.5087,5.8741-6.4892,57.0143-6.4892,57.0143
						c5.8383,2.8672,15.2994,1.9327,15.2994,1.9327s-0.6781-6.2787,0.0468-30.541c0.0996-3.2922,0.1055-14.1653,0.5514-17.2903l0,0
						c10.1187-2.467,26.0622-6.8368,34.4863-8.1534L242.6686,164.525z"/>
					<path class="st294" d="M248.7511,75.8411l10.848,8.5681c0,0-3.536,29.2857-3.5121,37.9364
						c0.0366,13.2426-0.5701,33.1407-0.5701,33.1407s-13.6225-3.4289-30.9979-3.1319c0,0,1.1588-34.7624,2.5907-46.0839
						c1.432-11.321-1.6821-23.535-1.6821-23.535l9.8662-6.242L248.7511,75.8411z"/>
					<path class="st286" d="M244.8408,54.1856c0,0,3.6287,14.3006,1.0507,23.8753c0,0-6.3343,6.4084-11.8205,0.8597
						c0,0,2.4946-7.2685,2.19-13.5578L244.8408,54.1856z"/>
					<path class="st295" d="M244.8408,54.1856l-8.5797,11.1772c0.1787,3.6632-0.5938,7.6489-1.2703,10.3473
						c2.1474,0.1663,5.8102-0.522,5.8102-0.522s3.5131-3.6964,5.8094-9.9678C246.1051,59.1684,244.8408,54.1856,244.8408,54.1856z"
						/>
					<path class="st3" d="M234.494,82.7357l2.492-6.2628l-1.3672-3.608l0.2808-1.6582l-3.1004,4.8352
						C232.7991,76.0419,232.4546,78.933,234.494,82.7357z"/>
					<polygon class="st299" points="239.7129,82.3103 239.7818,127.9913 233.8345,142.3952 230.3386,127.659 236.8405,82.2533 					
						"/>
					
						<ellipse transform="matrix(0.9869 -0.1611 0.1611 0.9869 -9.8388 39.4846)" class="st299" cx="238.509" cy="80.4002" rx="3.4281" ry="3.4289"/>
					<g>
						<path class="st286" d="M221.6398,27.6877c0,0-0.6373,24.5356-10.0057,36.8457c0,0,6.143,9.1591,28.0694,8.5635
							c0,0,6.6279-12.773,8.6835-25.9249c0,0-0.0366,2.6975,3.445,0.9823c3.485-1.7157,5.8673-6.7109,3.6474-10.3562
							c-1.4294-2.3508-5.2572-1.8169-5.9974-0.6602c0,0,2.39-7.7352-1.5111-14.1478
							C243.9168,16.3195,224.2773,14.2894,221.6398,27.6877z"/>
						<path class="st3" d="M225.5238,41.5084c0.5675,0.1332,1.0355,0.3599,1.4302,0.6496c0.1012-0.2335,0.2008-0.482,0.2825-0.761
							c0.9598-3.2518,0.8117-7.6174-1.4285-8.555c-2.2402-0.9368-3.2425,1.454-3.0162,3.1642
							c0.1421,1.0831,0.1055,1.9578-0.0595,2.5839c-0.371,1.4281-0.5088,2.418-0.4679,3.1591
							C223.082,41.3455,224.1684,41.1936,225.5238,41.5084z"/>
						<path class="st3" d="M236.2202,39.344c-0.2373,1.8722-0.2271,3.0783-0.0093,3.9312c0.8508-0.6773,2.1501-1.0457,3.8874-0.642
							c0.4986,0.1161,0.9214,0.3068,1.2881,0.5467c0.1412-0.3825,0.2595-0.8164,0.3387-1.3129
							c0.6168-3.8193-0.1821-8.7409-2.857-9.4785c-2.6741-0.7356-3.4603,2.1176-2.9574,4.0222
							C236.2288,37.6142,236.3147,38.6113,236.2202,39.344z"/>
						
							<ellipse transform="matrix(0.0876 -0.9962 0.9962 0.0876 177.1241 272.1573)" class="st296" cx="237.1249" cy="39.3917" rx="3.0724" ry="1.8803"/>
						
							<ellipse transform="matrix(0.0773 -0.997 0.997 0.0773 167.7668 258.107)" class="st296" cx="223.3353" cy="38.4113" rx="2.7633" ry="1.6893"/>
						<g>
							<path class="st287" d="M243.4173,30.6268c-1.2832-0.5845-2.5015-1.0935-3.7019-1.093
								c-0.5969-0.0217-1.1758,0.1292-1.7297,0.4092c-0.5752,0.2559-1.075,0.6873-1.6606,1.1101
								c0.2451-0.6606,0.6296-1.314,1.2407-1.7678c0.2795-0.2646,0.6462-0.4021,0.9988-0.5691
								c0.3765-0.1025,0.7607-0.1846,1.1511-0.1819c0.7776,0.0125,1.5193,0.2441,2.1467,0.6199
								C242.4891,29.5279,243.0396,30.0132,243.4173,30.6268z"/>
						</g>
						<g>
							<path class="st287" d="M230.2535,30.563c-1.2832-0.5847-2.5012-1.0938-3.7017-1.0938
								c-0.5969-0.022-1.1755,0.1292-1.7295,0.4089c-0.5752,0.2559-1.0747,0.6875-1.6604,1.1101
								c0.2451-0.6606,0.6294-1.314,1.2405-1.7678c0.2795-0.2646,0.6462-0.4021,0.9988-0.5688
								c0.3765-0.1028,0.7607-0.1846,1.1514-0.1819c0.7773,0.0127,1.519,0.2444,2.1462,0.6204
								C229.3252,29.4639,229.8758,29.9495,230.2535,30.563z"/>
						</g>
						<path class="st295" d="M231.1774,40.2169c0,0-0.7027,4.9181-4.368,5.9319c-2.7124,0.7495-3.6483-0.2157-3.6483-0.2157
							s-2.1977,4.2171,1.8437,6.4786c0,0-1.4047-3.3272-0.2229-4.1482C225.9619,47.4428,230.7614,47.6782,231.1774,40.2169z"/>
						<path class="st3" d="M239.4797,52.4818c0,0-7.8028,20.615-15.4142,5.4283L239.4797,52.4818z"/>
						<path class="st300" d="M227.644,40.3309c-0.0468,1.6846-1.449,3.0127-3.1345,2.9655l-0.9989-0.0268
							c-1.6846-0.0472-3.0127-1.4485-2.9633-3.134l0.1369-5.0483c0.0468-1.6846,1.4498-3.011,3.1327-2.9655l1.0005,0.0285
							c1.683,0.0456,3.0111,1.4477,2.9643,3.1315L227.644,40.3309z"/>
						<path class="st300" d="M241.7728,41.3021c-0.1421,1.6783-1.6175,2.9247-3.2952,2.7813l-0.9964-0.0851
							c-1.6812-0.1421-2.9251-1.6178-2.783-3.2952l0.428-5.0352c0.1421-1.6783,1.6174-2.9234,3.2977-2.7809l0.9972,0.0863
							c1.677,0.1412,2.9234,1.6179,2.7787,3.2949L241.7728,41.3021z"/>
						<line class="st301" x1="241.8254" y1="40.678" x2="249.482" y2="37.1377"/>
						<line class="st301" x1="234.6922" y1="40.2334" x2="227.6465" y2="39.8736"/>
					</g>
				</g>
			</g>
			<polygon class="st287" points="228.4812,136.1451 139.4932,136.1451 101.6095,121.1498 190.3262,121.0234 			"/>
			<rect x="139.4932" y="136.1451" class="st285" width="43.4786" height="106.1397"/>
			<rect x="173.2248" y="136.1451" class="st285" width="55.2564" height="47.0707"/>
			<rect x="222.8479" y="136.1451" class="st285" width="5.6333" height="106.1397"/>
			<polygon class="st314" points="101.6095,227.29 139.4932,242.2848 139.4932,136.1451 101.6095,121.1498 			"/>
			<g>
				<g>
					<path class="st286" d="M185.8237,128.2418c3.9988-0.3974,8.2215-1.5064,12.2025-2.5405l-0.2195-4.4707
						c-3.6874-0.7934-18.7384,0.5867-18.7384,0.5867l0.5938,8.2806C182.5744,128.9199,184.972,128.3269,185.8237,128.2418z"/>
					<path class="st286" d="M180.6771,125.6136c0,0-8.4291,1.6489-8.9532-0.0723c-1.0507-3.4501,10.5459-4.7552,11.3389-2.9149
						C183.9927,124.7917,181.7133,125.4494,180.6771,125.6136z"/>
					<path class="st286" d="M179.1703,127.3684c0,0-8.4265,1.6493-8.9549-0.0731c-1.0483-3.4519,10.5484-4.7553,11.3397-2.9141
						C182.4885,126.5461,180.2074,127.2038,179.1703,127.3684z"/>
					<path class="st286" d="M179.3592,128.9723c0,0-8.4291,1.6485-8.9532-0.072c-1.0507-3.4518,10.5459-4.756,11.3372-2.9157
						C182.6747,128.1524,180.3972,128.8059,179.3592,128.9723z"/>
					<path class="st286" d="M180.9876,129.5317c0,0-7.8199,3.7287-8.5541,2.0837c-1.4702-3.2927,12.0484-7.3924,13.066-5.6661
						C186.6933,127.984,184.3704,127.9088,180.9876,129.5317z"/>
				</g>
				<path class="st3" d="M249.3042,76.3005c0,0,11.3091,6.2071,13.7552,10.5382c0,0-7.836,28.057-33.8107,38.7999
					c-16.0678,6.6453-39.2568,5.809-39.2568,5.809s2.4129-1.9416,1.8089-10.7642c0,0,33.7316,2.3206,50.0741-16.7926
					C255.7653,87.6475,249.3042,76.3005,249.3042,76.3005z"/>
				<path class="st3" d="M241.8688,76.603c0,0,3.3837-1.9578,5.1305-5.3964c0,0,3.3709,0.8198,4.9296,2.7728
					c0,0-4.0295,7.0478-10.3153,10.4298L241.8688,76.603z"/>
			</g>
		</g>
		<g>
			<g>
				<path class="st285" d="M77.0914,155.502c0.0979,0.856-0.5147,1.6272-1.3715,1.7264l-16.1587,1.8518
					c-0.8526,0.0974-1.6277-0.516-1.7246-1.3724l0,0c-0.1005-0.8551,0.5164-1.6268,1.3698-1.7255l16.1597-1.8514
					C76.2219,154.0327,76.9936,154.647,77.0914,155.502L77.0914,155.502z"/>
				<path class="st286" d="M67.2024,143.46c0,0,1.8318,1.8535,3.8031,4.1575c0.1225,0.1447,2.7201,0.9964,3.5164,3.9691
					c0.4254,1.5906,0.6416,2.2419-2.099,3.0493c-0.4432,1.503,0.9538,4.5659-0.3777,4.6119
					c-1.3171,0.0472-1.8693-0.7539-1.8693-0.7539s-0.1557,1.2171-1.4812,1.4622c-0.656,0.1216-2.3866-0.3774-2.3866-0.3774
					s-0.0748,0.7411-1.2839,1.3158c-1.5298,0.7309-4.7246-2.0641-4.7246-2.0641l1.9867-14.5686L67.2024,143.46z"/>
				<g>
					<path class="st285" d="M75.4971,154.1161c-0.7844,0.0885-1.3443,0.7964-1.2541,1.5809l0.8228,7.1877
						c0.0893,0.7836,0.7954,1.3439,1.5783,1.2541c0.7845-0.0889,1.3451-0.7972,1.2567-1.5796l-0.8245-7.1881
						C76.9868,154.5871,76.2789,154.0272,75.4971,154.1161z"/>
					<path class="st285" d="M59.0771,155.9977c-0.7845,0.0885-1.346,0.7968-1.2549,1.5796l0.8236,7.1882
						c0.0893,0.784,0.7955,1.3447,1.5791,1.2562c0.7836-0.0894,1.3442-0.7968,1.2549-1.5809l-0.8245-7.1882
						C60.5652,156.4686,59.8589,155.9084,59.0771,155.9977z"/>
				</g>
				<path class="st285" d="M91.7698,186.7433c0.1055,0.907-0.5463,1.7277-1.4558,1.831l-37.8776,4.3409
					c-0.9087,0.1059-1.728-0.5475-1.8327-1.4553l-2.8094-24.5393c-0.1055-0.9083,0.5488-1.7267,1.454-1.8301l37.8794-4.3413
					c0.9061-0.1038,1.7263,0.5475,1.8301,1.4549L91.7698,186.7433z"/>
				<g>
					<path class="st288" d="M52.2322,166.0386c-0.684,0.0782-1.1732,0.6951-1.0958,1.3758l0.2723,2.3661
						c0.0783,0.6824,0.6952,1.1712,1.3775,1.0924c0.6798-0.0774,1.1707-0.6934,1.0933-1.3762l-0.2723-2.3648
						C53.528,166.4496,52.9129,165.9604,52.2322,166.0386z"/>
					<path class="st288" d="M84.4366,162.3482c-0.6832,0.0774-1.1716,0.6938-1.0933,1.3745l0.2715,2.3657
						c0.0774,0.6841,0.6942,1.1729,1.3766,1.0938c0.6832-0.0775,1.1716-0.6938,1.0933-1.3753l-0.2723-2.3657
						C85.7341,162.7587,85.1173,162.2682,84.4366,162.3482z"/>
				</g>
			</g>
			<g>
				<path class="st286" d="M73.0492,159.9199c0,0,1.3128-0.8444,1.135-2.6937c-0.1744-1.8505-1.9994-6.1769-3.8806-5.8834
					c-1.8828,0.2944-0.2059,5.638,0.1557,7.4345C70.769,160.3096,72.7566,160.168,73.0492,159.9199z"/>
				<path class="st286" d="M69.3456,152.9075c0,0-0.7811-2.2457-3.011-1.933c-2.2292,0.3143-0.8423,10.2409,2.8826,9.693
					C71.5169,160.3288,70.0458,155.8135,69.3456,152.9075z"/>
				<path class="st286" d="M66.5864,157.6789c0,0-1.9032-5.7239-3.5828-5.2475c-1.6778,0.4778-2.3942,9.9074,2.4887,8.7839
					C67.7197,160.7036,67.0177,158.5995,66.5864,157.6789z"/>
				<path class="st286" d="M62.6497,161.3076c0,0,1.2141-0.4692,0.5811-2.7021c-0.6347-2.2305-1.8778-6.3736-3.4808-4.7599
					C58.5326,155.0699,59.6097,162.4235,62.6497,161.3076z"/>
			</g>
			<path class="st315" d="M60.0606,70.127l4.4123,2.9961c0,0,0.8287,19.0895,1.6753,32.3176
				c0.8448,13.2272,3.6951,40.2906,3.6951,40.2906l-8.8374,1.2992c0,0-4.3137-47.9701-4.4499-54.7277
				C56.4216,85.5447,60.0606,70.127,60.0606,70.127z"/>
			<path class="st290" d="M27.7626,207.3145c0,0-2.1177,3.0412-4.8854,4.4842c0,0-0.4824,13.2583-0.2995,16.5787
				c0.1821,3.3216,7.1273,7.8449,10.7339,5.5843c3.6058-2.261,4.797-11.8447,1.7102-11.948
				c-3.091-0.1059-4.2302,2.9012-5.4869,0.7014c-1.2567-2.1985,0.3973-4.945,2.1092-8.4614L27.7626,207.3145z"/>
			<path class="st291" d="M40.0187,224.9469c0,0-1.1742,8.9778-2.0565,10.3476c-0.8814,1.3677,12.1616,7.2141,19.7714,7.4081
				c10.4855,0.2668,13.0745-12.2471,6.7768-14.5124c-4.2448-1.5263-15.2365,6.9941-17.4205-2.6894L40.0187,224.9469z"/>
			<path class="st287" d="M61.8278,138.7524c0,0,1.3052,22.1946-2.4376,38.9357c-3.742,16.7399-28.0737,39.6448-28.0737,39.6448
				s-3.6237-3.1578-5.8723-9.7491c0,0,24.9239-30.6006,26.4068-56.588L61.8278,138.7524z"/>
			<path class="st288" d="M35.2141,141.3219c0,0,4.9356,30.658,4.4106,50.0826c-0.5224,19.4238-2.6298,33.6376-2.6298,33.6376
				s5.2657,1.9603,11.0436,0.2013c0,0,5.3389-34.3111,4.4728-71.3204c0,0,9.1863-4.3127,9.3164-15.1705
				C61.8278,138.7524,49.6177,133.5208,35.2141,141.3219z"/>
			<path class="st316" d="M36.7312,64.0415l-10.711,7.5404c0,0,5.3406,29.2848,5.6665,37.8542
				c0.3258,8.5703,2.1985,32.3563,2.1985,32.3563s12.3293-4.9241,27.9426-3.04c0,0-0.901-34.0796-2.6826-45.2516
				c-1.7791-11.1725,0.9155-23.3737,0.9155-23.3737l-9.9741-5.8702L36.7312,64.0415z"/>
			<g>
				<path class="st286" d="M37.011,151.1566c1.7851-1.4082,3.1821-3.6335,4.574-5.1645c0.6296-0.6926,1.4575-1.5685,2.3814-2.1985
					c-3.6994-1.9632-3.8592-1.5502-3.8712-3.0046c0.627-0.2842,0.7657-1.5119-0.04-1.5574
					c-4.3996-0.2468-8.8426-1.0087-8.8426-1.0087l-2.6155,4.3145C30.6904,146.0414,34.5981,149.3269,37.011,151.1566z"/>
				<path class="st286" d="M42.874,140.129c-1.3171-0.5751-4.2192-1.6808-5.7354-0.3756c-1.5179,1.3051,6.2365,3.4296,7.9347,2.8307
					C46.7717,141.9855,43.6279,140.4583,42.874,140.129z"/>
				<path class="st286" d="M39.1849,148.9422c-0.7496-0.4334-1.939-0.8155-2.4887,0.5705
					c-0.1242,0.3136,0.1225,0.8305,0.5947,1.4162C37.9708,150.3486,38.5944,149.6586,39.1849,148.9422z"/>
				<path class="st286" d="M42.0003,145.5428c0.5504-0.585,1.209-1.2273,1.9271-1.7242c-2.4538-1.1385-3.6542-2.4214-4.0737-0.7603
					C39.7277,143.5566,40.6654,144.5473,42.0003,145.5428z"/>
			</g>
			<g>
				<path class="st317" d="M26.2763,70.2589l9.9724-5.7617c0,0-3.6934,11.791-6.2476,24.7992
					c-1.591,8.1007-2.6987,13.959-2.3304,26.0334c0.4246,13.8437,8.9218,23.4226,8.9218,23.4226l-5.2521,9.7908
					c0,0-10.8037-12.6023-13.0541-30.6286c-2.2513-18.0255,2.3729-40.8678,2.515-44.3958L26.2763,70.2589z"/>
			</g>
			<path class="st286" d="M39.8034,42.158c0,0-3.0289,14.5869-0.1702,23.9911c0,0,6.4816,6.1462,11.7387,0.4752
				c0,0-2.7021-7.1248-2.6-13.3652L39.8034,42.158z"/>
			<path class="st295" d="M38.4744,53.2838c1.2779,2.7103,2.19,4.3583,2.19,4.3583c3.0876-0.0004,5.8553-0.1851,8.3534-0.496
				c-0.0051-0.0345-0.0068-0.0689-0.0128-0.1034c-0.0238-0.1957-0.0459-0.3914-0.0672-0.5883
				c-0.0196-0.171-0.0366-0.342-0.0519-0.5134c-0.0161-0.1787-0.0315-0.3569-0.045-0.5361
				c-0.0153-0.2156-0.0273-0.4305-0.0383-0.6458c-0.0068-0.1408-0.0153-0.2808-0.0195-0.4216
				c-0.0128-0.3611-0.0179-0.7219-0.0111-1.0784L39.8034,42.158c0,0-0.2144,1.1499-0.4807,2.7678
				C39.0071,46.9766,38.6276,49.9758,38.4744,53.2838z"/>
			<g>
				<path class="st286" d="M69.9251,14.6102c0,0-4.677,24.8116,2.076,39.2198c0,0-8.1636,7.8777-30.0824,2.5265
					c0,0-3.8934-14.2797-3.1107-27.9515c0,0-0.5487,2.7213-3.6789,0.2404c-3.1327-2.4806-4.443-8.0194-1.4218-11.2041
					c1.9467-2.0543,5.6801-0.6858,6.1736,0.6369c0,0-1.397-9.5135,5.3848-13.2014C52.0518,1.1876,70.6874,9.4087,69.9251,14.6102z"
					/>
				<path class="st287" d="M39.8018,24.3206c0,0,2.6171,0.5122,2.2265-1.1248c-0.3896-1.637-0.8304-7.0052,0.2723-10.3575
					c1.1027-3.3514,4.5749-7.2009,10.4753-5.0279c5.9004,2.1717,13.2966,10.0443,19.4854,6.3999
					c6.1889-3.6454,2.3143-13.7408,2.3143-13.7408s-1.2422,3.4216-9.8585,2.4457c-8.6171-0.9764-14.0087-6.4646-23.115,0.7559
					C33.9762,9.7149,38.9663,24.2453,39.8018,24.3206z"/>
				<path class="st3" d="M51.7507,22.9635c0.0621-0.7564,0.3658-1.74,0.9461-2.8826c0.9181-1.8063,0.7462-4.845-2.1023-4.6838
					c-2.8477,0.1617-4.7187,4.9356-4.9271,8.9098c-0.2093,3.9737,2.441,4.8586,3.9904,3.9584
					C50.808,27.5945,51.4486,26.4574,51.7507,22.9635z"/>
				
					<ellipse transform="matrix(0.1243 -0.9922 0.9922 0.1243 21.7843 70.3104)" class="st296" cx="50.728" cy="22.8128" rx="3.1608" ry="1.9345"/>
				<path class="st3" d="M65.4744,25.1288c-0.0289-0.6641,0.1259-1.5523,0.5045-2.6103c0.5972-1.6709,0.1055-4.2928-2.3517-3.8359
					c-2.4563,0.4569-3.5496,4.8144-3.2884,8.2917c0.2612,3.476,2.6614,3.9504,3.907,2.994
					C65.1706,29.2588,65.602,28.1991,65.4744,25.1288z"/>
				
					<ellipse transform="matrix(0.1346 -0.9909 0.9909 0.1346 31.4908 85.6932)" class="st296" cx="64.8071" cy="24.8172" rx="2.8417" ry="1.7379"/>
				<g>
					<path class="st287" d="M47.3929,12.846c0.5154-0.5298,1.1743-0.8953,1.8848-1.1328c0.7112-0.2395,1.5051-0.3108,2.2869-0.1548
						c0.3918,0.0815,0.759,0.2468,1.1143,0.4304c0.3174,0.2432,0.6553,0.4597,0.8792,0.7847
						c0.5161,0.5862,0.7632,1.3232,0.8721,2.0383c-0.4919-0.5542-0.8987-1.0991-1.4211-1.4839
						c-0.4958-0.4045-1.0476-0.6841-1.6548-0.7925C50.1424,12.2742,48.8042,12.5264,47.3929,12.846z"/>
				</g>
				<path class="st295" d="M57.6196,25.1437c0,0-0.3573,5.0973,3.1055,6.9104c2.5661,1.3426,3.7172,0.5726,3.7172,0.5726
					s1.2933,4.7182-3.2578,6.1152c0,0,2.1313-3.0408,1.1222-4.1213C61.2968,33.5396,56.4208,32.7347,57.6196,25.1437z"/>
				<path class="st297" d="M46.7019,39.0717c0,0,0.3403,6.55,8.4044,6.1573"/>
			</g>
			<path class="st317" d="M51.0768,70.4163l-2.669-6.1255l1.2405-3.6185l-0.3318-1.6336l3.2272,4.6906
				C52.5437,63.7293,52.9775,66.5838,51.0768,70.4163z"/>
			<path class="st318" d="M43.5735,64.5754c0,0-3.2603-2.5163-5.099-5.8677c0,0-2.6307,2.8388-4.1129,4.8241
				c0,0,3.3787,5.621,9.7138,8.7699L43.5735,64.5754z"/>
		</g>
	</g>
	<path class="st287" d="M219.0832,46.3524c0,0-4.1364,11.3492-12.3735,15.5936c-10.1533,5.2309-1.0833,19.3834,20.1291,19.3838
		c20.3385,0.0004,24.5913-21.38,23.5114-40.1599c0,0-6.5736,13.8018-26.2359,13.8533
		C216.845,55.0416,219.0832,46.3524,219.0832,46.3524z"/>
	<path class="st3" d="M240.4228,53.6916c0,0-8.1617,21.8886-16.3085,5.8317L240.4228,53.6916z"/>
	<g>
		<polygon class="st3" points="159.4768,125.2423 139.8008,125.2423 121.4924,118.1636 141.1678,118.1636 		"/>
		<polygon class="st289" points="139.8008,134.0486 121.4924,126.9677 121.4924,118.1636 139.8008,125.2423 		"/>
		<rect x="139.8008" y="125.2423" class="st294" width="19.676" height="8.8064"/>
	</g>
	<g>
		<g>
			<polygon class="st310" points="155.8981,123.1465 144.746,123.1465 126.4373,116.0672 137.5896,116.0672 			"/>
			<polygon class="st319" points="144.746,124.8791 126.4373,117.7998 126.4373,116.0672 144.746,123.1465 			"/>
			<rect x="144.746" y="123.1465" class="st320" width="11.1521" height="1.7326"/>
		</g>
		<path class="st310" d="M166.7655,106.6751c0,2.5366-2.0566,4.0615-4.5936,3.404L119.7953,99.043
			c-2.5369-0.6563-4.5938-3.247-4.5938-5.7831V61.9765c0-2.5372,2.0569-4.061,4.5938-3.4035l42.3766,11.0361
			c2.5369,0.6558,4.5936,3.2464,4.5936,5.7836V106.6751z"/>
		<path class="st320" d="M164.3132,70.6946c0.4241,0.8057,0.6729,1.6841,0.6729,2.5593v31.2829
			c0,2.5366-2.0566,4.0604-4.5936,3.4035l-42.3764-11.036c-0.774-0.2001-1.5017-0.5825-2.1415-1.0856
			c0.8065,1.5314,2.2581,2.794,3.9207,3.2244l42.3766,11.0361c2.5369,0.6574,4.5936-0.8674,4.5936-3.404V75.3927
			C166.7655,73.6286,165.7711,71.8414,164.3132,70.6946z"/>
		<path class="st321" d="M145.9389,90.1369c0,5.1224-3.9425,8.3947-8.8053,7.3102c-4.8625-1.0856-8.805-6.1182-8.805-11.2405
			c0-5.1234,3.9425-8.3963,8.805-7.3102C141.9964,79.981,145.9389,85.0146,145.9389,90.1369z"/>
		<path class="st320" d="M132.3405,118.3438V86.5004c0-3.0381,2.109-5.3153,5.146-4.8143l0,0
			c3.0371,0.5004,5.8545,3.5887,5.8545,6.6257v34.2903L132.3405,118.3438z"/>
		<path class="st319" d="M131.4717,118.0136V86.1702c0-3.0381,2.4631-5.0942,5.5001-4.5944l0,0
			c3.0376,0.5015,5.5001,3.3683,5.5001,6.4064v34.2896L131.4717,118.0136z"/>
	</g>
</g>
</svg>
