<?xml version="1.0" encoding="utf-8"?>
<!-- Generator: Adobe Illustrator 21.0.2, SVG Export Plug-In . SVG Version: 6.00 Build 0)  -->
<svg version="1.1" id="Capa_1" xmlns="http://www.w3.org/2000/svg" xmlns:xlink="http://www.w3.org/1999/xlink" x="0px" y="0px"
	 viewBox="0 0 464.853 177.247" style="enable-background:new 0 0 464.853 177.247;" xml:space="preserve">
<style type="text/css">
	.st0{opacity:0.25;clip-path:url(#XMLID_4592_);}
	.st1{fill:#FFFFFF;}
	.st2{fill-rule:evenodd;clip-rule:evenodd;fill:#DDDDDD;}
	.st3{fill:#ACABC9;}
	.st4{fill:#3B86B1;}
	.st5{opacity:0.25;fill-rule:evenodd;clip-rule:evenodd;fill:#020202;}
	.st6{opacity:0.5;}
	.st7{fill-rule:evenodd;clip-rule:evenodd;fill:#A8A8A8;}
	.st8{fill-rule:evenodd;clip-rule:evenodd;fill:#FFFFFF;}
	.st9{fill-rule:evenodd;clip-rule:evenodd;fill:#3B86B1;}
	.st10{opacity:0.5;fill:#2C6882;}
	.st11{opacity:0.75;fill-rule:evenodd;clip-rule:evenodd;fill:#282828;}
	.st12{opacity:0.5;fill:#FFFFFF;}
	.st13{fill-rule:evenodd;clip-rule:evenodd;fill:none;stroke:#FFFFFF;stroke-miterlimit:10;}
	.st14{fill:none;stroke:#FFFFFF;stroke-miterlimit:10;}
	.st15{fill:#FFFFFF;stroke:#3B86B1;stroke-width:1.7139;stroke-miterlimit:10;}
	.st16{fill-rule:evenodd;clip-rule:evenodd;}
	.st17{opacity:0.85;fill:#FFFFFF;}
	.st18{opacity:0.5;fill-rule:evenodd;clip-rule:evenodd;}
	.st19{fill-rule:evenodd;clip-rule:evenodd;fill:#FEFEFE;}
	.st20{fill:#312767;}
	.st21{opacity:0.48;}
	.st22{opacity:0.25;}
	.st23{fill-rule:evenodd;clip-rule:evenodd;fill:#020202;}
	.st24{fill:#757575;}
	.st25{opacity:0.25;clip-path:url(#XMLID_4593_);}
	.st26{fill:#FFFFFF;stroke:#312767;stroke-miterlimit:10;}
	.st27{fill-rule:evenodd;clip-rule:evenodd;fill:#312767;}
	.st28{opacity:0.77;fill:#312767;}
	.st29{opacity:0.25;clip-path:url(#XMLID_4598_);}
	.st30{opacity:0.75;}
	.st31{fill-rule:evenodd;clip-rule:evenodd;fill:#282828;}
	.st32{fill:#9490B2;stroke:#2D2D2D;stroke-width:0.25;stroke-miterlimit:10;}
	.st33{fill:#312767;stroke:#2D2D2D;stroke-width:0.25;stroke-miterlimit:10;}
	.st34{fill:#FCFCFC;}
	.st35{fill:#FFFFFF;stroke:#2D2D2D;stroke-width:0.25;stroke-miterlimit:10;}
	.st36{fill-rule:evenodd;clip-rule:evenodd;fill:#484849;stroke:#2D2D2D;stroke-width:0.25;stroke-miterlimit:10;}
	.st37{fill-rule:evenodd;clip-rule:evenodd;fill:#312767;stroke:#2D2D2D;stroke-width:0.25;stroke-miterlimit:10;}
	.st38{fill-rule:evenodd;clip-rule:evenodd;fill:#FFFFFF;stroke:#2D2D2D;stroke-width:0.25;stroke-miterlimit:10;}
	.st39{fill:#484849;stroke:#2D2D2D;stroke-width:0.25;stroke-miterlimit:10;}
	.st40{fill:#FFFFFF;stroke:#FFFFFF;stroke-miterlimit:10;}
	.st41{fill:#54518C;}
	.st42{opacity:0.25;fill-rule:evenodd;clip-rule:evenodd;fill:#FFFFFF;}
	.st43{fill:#D4A800;}
	.st44{fill:#00AEB3;}
	.st45{fill:#38353B;}
	.st46{fill:#FF8400;}
	.st47{fill:#BF3900;}
	.st48{fill:#00AA9C;}
	.st49{opacity:0.25;clip-path:url(#XMLID_4609_);}
	.st50{fill:none;stroke:#ACABC9;stroke-width:5;stroke-miterlimit:10;}
	.st51{fill:#67A53F;}
	.st52{fill:#DDDDDD;}
	.st53{opacity:0.25;clip-path:url(#XMLID_4620_);}
	.st54{fill-rule:evenodd;clip-rule:evenodd;fill:#FFFFFF;stroke:#FFFFFF;stroke-miterlimit:10;}
	.st55{fill:#02897C;}
	.st56{fill:#0EAD9A;}
	.st57{fill:#28C6AF;}
	.st58{fill:#4FE0C7;}
	.st59{opacity:0.25;clip-path:url(#XMLID_4624_);}
	.st60{fill:#3CA7AF;}
	.st61{fill:#3DAD8D;}
	.st62{fill:#296E8C;}
	.st63{fill:#308E71;}
	.st64{fill:#2D8A8C;}
	.st65{opacity:0.25;clip-path:url(#XMLID_4628_);}
	.st66{opacity:0.77;fill:#FFFFFF;}
	.st67{fill:#50565B;stroke:#656C70;stroke-miterlimit:10;}
	.st68{fill:#808589;stroke:#656C70;stroke-miterlimit:10;}
	.st69{fill:#252728;stroke:#000000;stroke-miterlimit:10;}
	.st70{fill:#1A1B1C;stroke:#000000;stroke-miterlimit:10;}
	.st71{fill:#A0A6AA;}
	.st72{fill:#262C35;stroke:#161A1E;stroke-miterlimit:10;}
	.st73{fill:#181D23;}
	.st74{fill:#EABA96;stroke:#E0AA86;stroke-miterlimit:10;}
	.st75{fill:#E0AA86;}
	.st76{stroke:#000000;stroke-width:0.75;stroke-linecap:square;stroke-linejoin:bevel;stroke-miterlimit:10;}
	.st77{fill:#0F1C3F;stroke:#182951;stroke-miterlimit:10;}
	.st78{fill:#132354;stroke:#3F6093;stroke-miterlimit:10;}
	.st79{fill:#0F1C3F;}
	.st80{fill:none;stroke:#3F6093;stroke-width:0.75;stroke-miterlimit:10;}
	.st81{fill:#DBA682;}
	.st82{fill:none;stroke:#E0AA86;stroke-miterlimit:10;}
	.st83{fill:none;stroke:#E0AA86;stroke-linejoin:bevel;stroke-miterlimit:10;}
	.st84{fill:#8A0A8E;stroke:#AC34B2;stroke-miterlimit:10;}
	.st85{fill:#810C87;}
	.st86{fill:#680B6D;}
	.st87{fill:#AC34B2;stroke:#AC34B2;stroke-width:0.5;stroke-miterlimit:10;}
	.st88{fill:none;stroke:#959DA0;stroke-width:0.5;stroke-miterlimit:10;}
	.st89{fill:#959DA0;stroke:#959DA0;stroke-width:0.5;stroke-miterlimit:10;}
	.st90{fill:none;stroke:#AC34B2;stroke-miterlimit:10;}
	.st91{fill:#282828;stroke:#000000;stroke-miterlimit:10;}
	.st92{fill:#EABA96;stroke:#E0AA86;stroke-width:0.5;stroke-miterlimit:10;}
	.st93{fill:#B7896A;}
	.st94{stroke:#000000;stroke-miterlimit:10;}
	.st95{fill:#C1A578;}
	.st96{stroke:#000000;stroke-width:0.25;stroke-linecap:round;stroke-linejoin:round;stroke-miterlimit:10;}
	.st97{fill:#FFFFFF;stroke:#000000;stroke-width:0.25;stroke-linecap:round;stroke-linejoin:round;stroke-miterlimit:10;}
	.st98{fill:#70582D;}
	.st99{stroke:#000000;stroke-linecap:round;stroke-linejoin:round;stroke-miterlimit:10;}
	.st100{fill:none;stroke:#D8A27D;stroke-width:0.75;stroke-miterlimit:10;}
	.st101{fill:#561409;}
	.st102{fill:#BA2A13;}
	.st103{fill:#9E3025;stroke:#4C2311;stroke-width:0.25;stroke-miterlimit:10;}
	.st104{fill:#871D08;stroke:#4C2311;stroke-width:0.25;stroke-miterlimit:10;}
	.st105{fill:#DDAC8A;}
	.st106{fill:#A5ABAD;stroke:#959DA0;stroke-width:0.5;stroke-miterlimit:10;}
	.st107{fill:#B1BABC;}
	.st108{fill:none;stroke:#153847;stroke-width:5;stroke-miterlimit:10;}
	.st109{fill:#3DAA61;}
	.st110{fill:#95A340;}
	.st111{opacity:0.25;clip-path:url(#XMLID_4632_);}
	.st112{opacity:0.25;clip-path:url(#XMLID_4635_);}
	.st113{opacity:0.25;clip-path:url(#XMLID_4636_);}
	.st114{opacity:0.25;clip-path:url(#XMLID_4638_);}
	.st115{opacity:0.25;clip-path:url(#XMLID_4646_);}
	.st116{clip-path:url(#SVGID_2_);}
	.st117{fill:none;stroke:#3F6093;stroke-miterlimit:10;}
	.st118{fill:none;stroke:#3F6093;stroke-width:0.75;stroke-linecap:round;stroke-linejoin:round;}
	.st119{fill:none;stroke:#3F6093;stroke-width:0.75;stroke-linecap:round;stroke-linejoin:round;stroke-dasharray:0.9892,0.9892;}
	
		.st120{fill:none;stroke:#3F6093;stroke-width:0.75;stroke-linecap:round;stroke-linejoin:round;stroke-miterlimit:10;stroke-dasharray:1;}
	.st121{fill:#EAEAEA;stroke:#FFFFFF;stroke-width:0.25;stroke-miterlimit:10;}
	.st122{fill:#D8D8D8;}
	.st123{fill:#282828;stroke:#000000;stroke-width:0.75;stroke-miterlimit:10;}
	.st124{opacity:0.33;fill:#FFFFFF;}
	.st125{fill:none;stroke:#000000;stroke-width:1.5;stroke-linecap:round;stroke-linejoin:round;stroke-miterlimit:10;}
	.st126{opacity:0.64;}
	.st127{fill:#C9C9C9;}
	.st128{fill:#FFF064;}
	.st129{fill:#4F4E4F;}
	.st130{fill:#1E2F47;}
	.st131{opacity:0.1;fill:#FFFFFF;}
	.st132{opacity:0.1;}
	.st133{opacity:0.4;fill:#FFFFFF;}
	.st134{fill-rule:evenodd;clip-rule:evenodd;fill:#F39C12;}
	.st135{fill-rule:evenodd;clip-rule:evenodd;fill:#E6E6E6;}
	.st136{fill-rule:evenodd;clip-rule:evenodd;fill:#474646;}
	.st137{fill-rule:evenodd;clip-rule:evenodd;fill:#D84848;}
	.st138{opacity:0.2;fill-rule:evenodd;clip-rule:evenodd;fill:#231F20;}
	.st139{opacity:0.1;fill-rule:evenodd;clip-rule:evenodd;fill:#231F20;}
	.st140{fill-rule:evenodd;clip-rule:evenodd;fill:#4D4D4D;}
	.st141{fill-rule:evenodd;clip-rule:evenodd;fill:#336699;}
	.st142{fill-rule:evenodd;clip-rule:evenodd;fill:#FF6633;}
	.st143{fill-rule:evenodd;clip-rule:evenodd;fill:#0056A3;}
	.st144{fill-rule:evenodd;clip-rule:evenodd;fill:#33CC99;}
	.st145{fill:#CE6405;}
	.st146{opacity:0.2;fill:#FFFFFF;}
	.st147{fill:#1ABC9C;}
	.st148{opacity:0.2;}
	.st149{fill:#0B2E44;}
	.st150{fill-rule:evenodd;clip-rule:evenodd;fill:#154F77;}
	.st151{fill-rule:evenodd;clip-rule:evenodd;fill:#0D3858;}
	.st152{fill-rule:evenodd;clip-rule:evenodd;fill:#FFFEFE;}
	.st153{fill:#AEC647;}
	.st154{fill:#F3AE1B;}
	.st155{fill:#DF3F11;}
	.st156{fill:#BCDEDE;}
	.st157{fill:#C84119;}
	.st158{fill:#6BB5CE;}
	.st159{fill:#00D0E5;}
	.st160{fill:#FF81ED;}
	.st161{fill:#00C982;}
	.st162{opacity:0.7;}
	.st163{opacity:0.4;}
	.st164{fill-rule:evenodd;clip-rule:evenodd;fill:#0B2E44;}
	.st165{opacity:0.8;fill-rule:evenodd;clip-rule:evenodd;fill:#FFFFFF;}
	.st166{fill:#424242;}
	.st167{opacity:0.2;fill-rule:evenodd;clip-rule:evenodd;fill:#FFFFFF;}
	.st168{fill:#D0EDFA;}
	.st169{fill:#FF651F;}
	.st170{fill:#0051C4;}
	.st171{fill:#E46400;}
	.st172{fill:#C0003B;}
	.st173{fill:#FFEA50;}
	.st174{fill:#FF2C0D;}
	.st175{fill:#FF1A2C;}
	.st176{fill:#FF2C4D;}
	.st177{fill:#FFD74C;}
	.st178{fill:#4C4C4B;}
	.st179{fill:#6CD2EA;}
	.st180{fill:#F7674F;}
	.st181{opacity:0.1;fill-rule:evenodd;clip-rule:evenodd;}
	.st182{fill:#BABABA;}
	.st183{fill:#F9B946;}
	.st184{fill:#DFC2A9;}
	.st185{fill:#BFA490;}
	.st186{fill:#F5D4B2;}
	.st187{fill:#DF584C;}
	.st188{fill:#C2443E;}
	.st189{fill:#DBDBDA;}
	.st190{fill:#2F363E;}
	.st191{fill:#332524;}
	.st192{fill:#473735;}
	.st193{opacity:0.25;clip-path:url(#XMLID_4647_);}
	.st194{fill:#153847;}
	.st195{fill:#52B8BA;}
	.st196{fill:#35373E;}
	.st197{fill:#D37D00;}
	.st198{opacity:0.25;clip-path:url(#XMLID_4648_);}
	.st199{opacity:0.31;fill:#34383A;}
	.st200{opacity:0.16;fill:#3D3835;}
	.st201{fill:#D0D1D4;}
	.st202{opacity:0.31;}
	.st203{fill:#34383A;}
	.st204{opacity:0.16;}
	.st205{fill:#3D3835;}
	.st206{opacity:0.25;clip-path:url(#XMLID_4649_);}
	.st207{fill:#F9E1B4;}
	.st208{opacity:0.25;fill:#050505;}
	.st209{fill:#FCC60F;}
	.st210{fill:#74CAEA;}
	.st211{fill:#050505;}
	.st212{opacity:0.25;clip-path:url(#XMLID_4650_);}
	.st213{fill:#FABC8F;}
	.st214{fill:#3FA995;}
	.st215{opacity:0.17;fill:#020202;}
	.st216{fill:#E1E1E1;}
	.st217{opacity:0.17;}
	.st218{fill:#020202;}
	.st219{opacity:0.25;clip-path:url(#XMLID_4651_);}
	.st220{fill:#BF8E00;}
	.st221{fill:#F7D8D7;}
	.st222{fill:#F18636;}
	.st223{fill:#004460;}
	.st224{fill:#D93A37;}
	.st225{fill:#EDEDED;}
	.st226{fill:#184F78;}
	.st227{fill:#FF3E03;}
	.st228{opacity:0.6;fill:#0F0F0F;}
	.st229{fill:#E8E8E6;}
	.st230{fill:#00EAA6;}
	.st231{fill-rule:evenodd;clip-rule:evenodd;fill:#FF3E03;}
	.st232{opacity:0.1;fill-rule:evenodd;clip-rule:evenodd;fill:#020202;}
	.st233{fill-rule:evenodd;clip-rule:evenodd;fill:#FABE00;}
	.st234{fill-rule:evenodd;clip-rule:evenodd;fill:#E6E8E8;}
	.st235{fill-rule:evenodd;clip-rule:evenodd;fill:#F7D959;}
	.st236{fill-rule:evenodd;clip-rule:evenodd;fill:#F9623E;}
	.st237{fill:#4F1A0F;}
	.st238{opacity:0.46;fill:#FFFFFF;}
	.st239{fill:#48505A;}
	.st240{fill:#C3C3C3;}
	.st241{fill:#E9E9EA;}
	.st242{fill:#9D9E9F;}
	.st243{fill:#F6F4F4;}
	.st244{fill:#6B6A6A;}
	.st245{fill:#C09478;}
	.st246{fill:#F7CDA0;}
	.st247{fill:#9E1010;}
	.st248{fill:#F2F2F2;}
	.st249{opacity:0.2;fill:#060606;}
	.st250{fill:#16AFBE;}
	.st251{fill:#DD2222;}
	.st252{fill:#FFEDDC;}
	.st253{fill:#22272B;}
	.st254{fill:#5B6375;}
	.st255{fill:#F79748;}
	.st256{fill:#FF7900;}
	.st257{fill:#DD7105;}
</style>
<g>
	<path class="st61" d="M402.8547,91.2473H20.6617C9.2506,91.2473,0,81.9967,0,70.5856V20.6617C0,9.2506,9.2506,0,20.6617,0h382.1929
		c11.4112,0,20.6617,9.2506,20.6617,20.6617v49.9238C423.5164,81.9967,414.2658,91.2473,402.8547,91.2473z"/>
	<g>
		<path class="st63" d="M12.0317,16.3918c0,0.902,0.3076,2.1062,0.9194,3.0061c0,0,0.3,0.3062,0.6038,0.6003
			c0.9004,0.9075,2.0967,1.5193,3.6006,1.5193c2.1235,0,3.9275-1.2136,4.8237-3.3159c0.304-0.6057,0.304-1.2096,0.304-1.8098
			c0-1.5039-0.304-2.7175-1.2002-3.6136c-0.9038-0.9059-2.4158-1.5082-3.9275-1.5082C14.1553,11.27,12.0317,13.3801,12.0317,16.3918
			z"/>
		<path class="st63" d="M1,21.6617v12.0441c0,1.3348,0.1377,2.6362,0.3796,3.9006c0.3308,0.1079,0.6738,0.1727,1.0242,0.1727
			c0.6077,0,1.2075-0.3057,1.8079-0.6l4.2234-3.0215c0.5962,0.3037,1.5002,0.6077,2.1042,0.9039l1.1887,5.1219
			c0.3037,1.5078,1.5232,2.708,3.031,2.708h4.52c1.804,0,3.0042-1.2002,3.3079-2.708l1.2041-5.1219
			c0.6079-0.2963,1.1963-0.6002,2.1157-0.9039l4.208,3.0215c0.6001,0.2943,1.208,0.6,1.8079,0.6
			c0.9001,0,1.8081-0.3057,2.4004-1.2115l3.3235-3.0098c0.8965-1.2023,1.2002-3.0122,0.2961-4.2183l-3.0117-4.2159
			c0.5923-0.902,0.5923-1.5018,0.908-2.4059l5.1196-0.906c1.5039-0.2942,2.7083-1.5078,2.7083-3.3137v-4.52
			c0-1.502-1.2043-2.708-2.7083-3.0098l-5.1196-1.2021c-0.3157-0.6058-0.3157-1.5118-0.908-2.1117l3.0117-4.2123
			C38.4414,2.6101,38.5627,1.7805,38.4294,1H21.6616C10.2505,1,1,10.2505,1,21.6617z M25.9067,8.8582
			c1.804,2.1101,2.7002,4.522,2.7002,7.5337c0,0.302,0,0.302,0,0.6002c-0.3037,6.0238-5.1274,10.8475-11.4514,10.8475
			c-3.9043,0-7.2202-1.808-9.3284-4.5234c-0.3076-0.3003-0.3076-0.5984-0.6077-0.9041c-0.9075-1.8025-1.8-3.9141-1.8-6.0203
			c0-6.3237,5.416-11.7476,11.7361-11.7476C20.7788,4.6443,23.791,6.4521,25.9067,8.8582z"/>
	</g>
	<g id="Application_Development_2_">
		<g id="Line_1_">
			<g>
				<polygon class="st149" points="353.535,105.2894 325.4601,105.2894 325.4601,89.9271 296.0749,89.9271 296.0749,88.6986 
					326.9252,88.6986 326.9252,104.061 353.535,104.061 				"/>
			</g>
			<g>
				<polygon class="st149" points="362.532,99.0415 361.3036,99.0415 361.3036,82.8716 349.4695,82.8716 349.4695,53.9337 
					350.6974,53.9337 350.4602,81.6431 362.532,81.6431 				"/>
			</g>
			<g>
				<polygon class="st149" points="382.6056,103.0636 382.6056,78.2948 440.617,78.2948 440.617,79.5231 383.5969,79.5231 
					383.8491,102.081 397.0415,102.081 397.0415,103.0636 				"/>
			</g>
			<g>
				<polygon class="st149" points="430.6679,131.4356 404.144,131.4356 404.144,122.352 394.4857,115.2205 382.6056,115.2205 
					382.6056,102.5727 383.8341,102.5727 383.5969,113.9921 394.6524,113.9921 405.3724,121.7324 405.3724,130.2071 
					430.6679,130.2071 				"/>
			</g>
			<g>
				<rect x="363.8614" y="102.081" class="st149" width="18.7442" height="0.9826"/>
			</g>
		</g>
		<g id="Coding_2_">
			<path class="st150" d="M403.0156,56.1586c0,1.9571-1.5872,3.5434-3.5443,3.5434h-70.8715c-1.9576,0-3.5438-1.5862-3.5438-3.5434
				V12.3063c0-1.957,1.5862-3.5432,3.5438-3.5432h70.8715c1.957,0,3.5443,1.5862,3.5443,3.5432V56.1586z"/>
			<rect x="328.5393" y="12.1234" class="st151" width="71.2938" height="44.0213"/>
			<path class="st152" d="M309.8106,59.4441c-0.0455,0.3138-0.0714,0.6376-0.0714,0.9685c0,2.8006,1.6991,5.0694,3.7941,5.0694
				h101.3064c2.0951,0,3.7931-2.2688,3.7931-5.0694c0-0.3309-0.0249-0.6547-0.0709-0.9685H309.8106z"/>
			<path class="st132" d="M310.0655,62.4636c0.5897,1.7771,1.9191,3.0185,3.4678,3.0185h101.3064
				c1.5493,0,2.8786-1.2414,3.4684-3.0185H310.0655z"/>
			<g>
				<rect x="332.2335" y="16.2464" class="st153" width="17.8502" height="0.8876"/>
				<rect x="332.2335" y="18.9091" class="st154" width="17.8502" height="0.8876"/>
				<rect x="332.2335" y="21.3749" class="st155" width="17.8502" height="0.8876"/>
				<rect x="332.2335" y="44.2875" class="st153" width="17.8502" height="0.8876"/>
				<rect x="332.2335" y="41.362" class="st153" width="17.8502" height="0.8876"/>
				<rect x="332.2335" y="47.3111" class="st153" width="17.8502" height="0.8876"/>
				<rect x="353.5355" y="26.9961" class="st154" width="17.8496" height="0.8876"/>
				<rect x="334.6988" y="26.9961" class="st153" width="17.8502" height="0.8876"/>
				<rect x="334.6988" y="29.4619" class="st154" width="17.8502" height="0.8876"/>
				<rect x="353.5355" y="29.4619" class="st153" width="8.3824" height="0.8876"/>
				<rect x="334.6988" y="34.2326" class="st153" width="17.8502" height="0.8876"/>
				<rect x="353.5355" y="34.2326" class="st154" width="8.3824" height="0.8876"/>
				<rect x="374.8375" y="31.8286" class="st154" width="8.3819" height="0.8876"/>
				<rect x="334.6988" y="24.1365" class="st156" width="38.5604" height="0.8876"/>
				<rect x="334.6988" y="31.8286" class="st156" width="38.5604" height="0.8876"/>
				<rect x="374.8375" y="37.0551" class="st153" width="8.3819" height="0.8876"/>
				<rect x="334.6988" y="37.0551" class="st153" width="38.5604" height="0.8876"/>
				<rect x="372.3716" y="49.7769" class="st157" width="8.383" height="0.8876"/>
				<rect x="332.2335" y="49.7769" class="st158" width="38.56" height="0.8876"/>
			</g>
			<g>
				<circle class="st159" cx="332.4767" cy="60.9533" r="0.7026"/>
				<circle class="st160" cx="328.0139" cy="60.9533" r="0.7028"/>
				<circle class="st161" cx="330.2083" cy="60.9533" r="0.7026"/>
				<path class="st162" d="M326.276,60.9533c0,0.3538-0.2869,0.6408-0.6412,0.6408h-5.4738c-0.3533,0-0.6406-0.287-0.6406-0.6408
					l0,0c0-0.3538,0.2873-0.6406,0.6406-0.6406h5.4738C325.9891,60.3126,326.276,60.5994,326.276,60.9533L326.276,60.9533z"/>
			</g>
			<circle class="st163" cx="364.1861" cy="10.4285" r="1.0379"/>
		</g>
		<g id="Phone_2_">
			<path class="st164" d="M310.7456,138.598c0,1.0994-0.891,1.99-1.99,1.99h-29.7614c-1.099,0-1.99-0.8905-1.99-1.99V83.8701
				c0-1.0985,0.891-1.9901,1.99-1.9901h29.7614c1.099,0,1.99,0.8916,1.99,1.9901V138.598z"/>
			<rect x="280.1162" y="88.8455" class="st165" width="27.5169" height="40.1332"/>
			<g>
				<g id="Setting_3_">
					<circle class="st166" cx="286.9482" cy="108.6805" r="4.6243"/>
					<circle class="st154" cx="286.603" cy="108.4044" r="4.6247"/>
					<g>
						<path class="st164" d="M286.9433,105.3455h-0.6247c-0.0335,0-0.0605,0.0279-0.0605,0.0609v0.3238
							c-0.3977,0.057-0.7666,0.2079-1.0849,0.4328l-0.3053-0.3048c-0.0236-0.024-0.0615-0.024-0.0854,0l-0.4423,0.4417
							c-0.0236,0.0231-0.0236,0.0621,0,0.0861l0.2913,0.2898c-0.2069,0.2619-0.3683,0.5637-0.4708,0.8955l-0.4193-0.075
							c-0.0325-0.005-0.0645,0.0171-0.0705,0.049l-0.1079,0.6166c-0.0065,0.0321,0.016,0.064,0.0485,0.07l0.4258,0.075
							c-0.0005,0.0319-0.0011,0.064-0.0011,0.0979c0,0.251,0.0326,0.4948,0.094,0.7256l-0.3843,0.1799
							c-0.0294,0.013-0.043,0.0501-0.0294,0.0801l0.2643,0.5657c0.0145,0.031,0.0505,0.0439,0.0805,0.03l0.3563-0.166
							c0.1479,0.251,0.3344,0.4759,0.5508,0.6637l-0.1784,0.3078c-0.017,0.0291-0.007,0.066,0.022,0.0831l0.5417,0.3127
							c0.028,0.016,0.0655,0.006,0.0825-0.0219l0.1604-0.2789c0.2703,0.1208,0.5632,0.1949,0.8715,0.2118l0.0265,0.3089
							c0.003,0.034,0.033,0.058,0.066,0.0559l0.6222-0.0549c0.0334-0.003,0.0585-0.0321,0.055-0.066l-0.027-0.3169
							c0.2899-0.0739,0.5607-0.1999,0.8031-0.3667l0.2304,0.2748c0.022,0.0259,0.06,0.0289,0.0855,0.008l0.4787-0.4018
							c0.026-0.0219,0.0295-0.06,0.008-0.0859l-0.2558-0.3048c0.1734-0.214,0.3148-0.4568,0.4183-0.7217l0.4277,0.115
							c0.032,0.008,0.065-0.0109,0.0735-0.043l0.1619-0.6036c0.0086-0.0321-0.0099-0.066-0.0424-0.0741l-0.4448-0.1189
							c0.01-0.0979,0.015-0.1979,0.015-0.2979c0-0.1759-0.0154-0.3457-0.0454-0.5106l0.4358-0.1589
							c0.0305-0.0111,0.0475-0.046,0.036-0.0771l-0.2139-0.5877c-0.0115-0.0309-0.0464-0.048-0.0779-0.036l-0.4108,0.1499
							c-0.1235-0.2549-0.2844-0.4867-0.4748-0.6867l0.2309-0.3298c0.0185-0.027,0.0125-0.0649-0.015-0.0839l-0.5122-0.3588
							c-0.0275-0.019-0.065-0.013-0.084,0.015l-0.2069,0.2949c-0.2528-0.145-0.5317-0.2469-0.8271-0.296v-0.3328
							C287.0044,105.3733,286.9768,105.3455,286.9433,105.3455L286.9433,105.3455z M286.6026,107.0936
							c0.7246,0,1.3108,0.5867,1.3108,1.3112c0,0.7237-0.5862,1.3104-1.3108,1.3104c-0.7232,0-1.3104-0.5867-1.3104-1.3104
							C285.2922,107.6803,285.8794,107.0936,286.6026,107.0936L286.6026,107.0936z"/>
						<path class="st167" d="M286.6026,106.5888c1.0034,0,1.816,0.8126,1.816,1.8161c0,1.0026-0.8126,1.8152-1.816,1.8152
							c-1.0026,0-1.8152-0.8126-1.8152-1.8152C284.7874,107.4014,285.6,106.5888,286.6026,106.5888L286.6026,106.5888z
							 M286.6026,107.0936c0.7246,0,1.3108,0.5867,1.3108,1.3112c0,0.7237-0.5862,1.3104-1.3108,1.3104
							c-0.7232,0-1.3104-0.5867-1.3104-1.3104C285.2922,107.6803,285.8794,107.0936,286.6026,107.0936L286.6026,107.0936z"/>
						<path class="st131" d="M289.5996,108.8216l-0.4448-0.1189c0.01-0.0979,0.015-0.1979,0.015-0.2979
							c0-0.1759-0.0154-0.3457-0.0454-0.5106l0.4358-0.1589c0.0305-0.0111,0.0475-0.046,0.036-0.0771l-0.2139-0.5877
							c-0.0115-0.0309-0.0464-0.048-0.0779-0.036l-0.4108,0.1499c-0.1235-0.2549-0.2844-0.4867-0.4748-0.6867l0.2309-0.3298
							c0.0185-0.027,0.0125-0.0649-0.015-0.0839l-0.5122-0.3588c-0.0275-0.019-0.065-0.013-0.084,0.015l-0.2069,0.2949
							c-0.2528-0.145-0.5317-0.2469-0.8271-0.296v-0.3328c0-0.033-0.0275-0.0609-0.061-0.0609h-0.3403v1.7481
							c0.7242,0,1.3104,0.5867,1.3104,1.3112c0,0.7237-0.5862,1.3104-1.3104,1.3104v1.7442l0.5798-0.051
							c0.0334-0.003,0.0585-0.0321,0.055-0.066l-0.027-0.3169c0.2899-0.0739,0.5607-0.1999,0.8031-0.3667l0.2304,0.2748
							c0.022,0.0259,0.06,0.0289,0.0855,0.008l0.4787-0.4018c0.026-0.0219,0.0295-0.06,0.008-0.0859l-0.2558-0.3048
							c0.1734-0.214,0.3148-0.4568,0.4183-0.7217l0.4277,0.115c0.032,0.008,0.065-0.0109,0.0735-0.043l0.1619-0.6036
							C289.6506,108.8636,289.632,108.8297,289.5996,108.8216z"/>
					</g>
				</g>
				<g id="Game_3_">
					<circle class="st166" cx="296.747" cy="103.6563" r="4.6247"/>
					<circle class="st168" cx="296.3936" cy="103.3371" r="4.6243"/>
					<g id="Rocket_3_">
						<path class="st169" d="M298.3103,101.3583c0,0-2.7037-0.7006-4.2389,1.7841l0.5302,0.7697l0.5307,0.7706
							C298.0009,104.1341,298.3103,101.3583,298.3103,101.3583z"/>
						<path class="st170" d="M294.6416,103.97l-0.0116-0.0169l-0.5587-0.8107c0,0-0.1205,0.3849-0.0555,0.5958l0.2979,0.4327
							l0.0115,0.0171l0.2603,0.3778c0.1595,0.1148,0.5447,0.1139,0.5447,0.1139L294.6416,103.97z"/>
						
							<rect x="294.0281" y="103.7224" transform="matrix(0.8234 -0.5674 0.5674 0.8234 -7.1868 185.3231)" class="st171" width="0.2815" height="0.9727"/>
						<polygon class="st172" points="294.1623,104.6798 293.7265,104.0471 293.835,103.9721 294.2708,104.6048 						"/>
						<polygon class="st173" points="295.2103,102.191 293.5381,102.161 294.3347,103.2354 						"/>
						<polygon class="st173" points="296.4557,103.8332 295.8875,105.4063 295.1678,104.2789 						"/>
						<path class="st174" d="M298.0678,102.248c0.1994-0.5078,0.2424-0.8897,0.2424-0.8897s-0.3718-0.096-0.9171-0.0909
							L298.0678,102.248z"/>
						<polygon class="st175" points="293.0229,104.9985 293.6666,104.9467 294.3107,104.8957 293.9444,104.3628 293.5776,103.8312 
							293.3002,104.4149 						"/>
						<polygon class="st176" points="293.2887,104.7967 293.7475,104.7697 294.2057,104.7437 293.9354,104.3509 293.6656,103.958 
							293.4771,104.3769 						"/>
						<polygon class="st177" points="293.6231,104.5588 293.8695,104.5858 294.1163,104.6128 293.9319,104.3459 293.748,104.078 
							293.6855,104.3179 						"/>
						<path class="st148" d="M298.0678,102.248L298.0678,102.248c0.1619-0.4129,0.2204-0.7406,0.2369-0.8507
							c0,0,0-0.0009,0.0005-0.0009c0.002-0.016,0.0035-0.027,0.004-0.033l0.0005-0.0021c0-0.0019,0.0005-0.003,0.0005-0.003
							s-0.0015,0-0.003-0.0009c0,0-0.001,0-0.0025,0c-0.0035-0.001-0.0095-0.003-0.0165-0.004l-5.2523,3.6173l-0.013,0.0279
							l0.6437-0.0519l0.6441-0.051l-0.1049-0.152l-0.0435-0.0639l0.1085-0.075l0.0579,0.084l0.232-0.1589l0.025,0.036
							c0.1595,0.1148,0.5447,0.1139,0.5447,0.1139l0.002,0.003c0.088-0.0171,0.1735-0.036,0.2569-0.057l0.4983,0.7805l0.4048-1.1224
							C297.3013,103.7532,297.813,102.8966,298.0678,102.248z"/>
					</g>
					<g>
						<path class="st178" d="M295.9739,105.7323c-0.027,0-0.0534,0.0039-0.078,0.0099c-0.0804-0.3408-0.3428-0.5907-0.6537-0.5907
							c-0.2294,0-0.4323,0.136-0.5553,0.3429c-0.0779-0.0379-0.1659-0.0589-0.2589-0.0589c-0.3223,0-0.5837,0.2579-0.5837,0.5766
							c0,0.046,0.005,0.09,0.015,0.133h0.7222h0.4153h0.6472h0.2589h0.4013c0.006-0.025,0.009-0.051,0.009-0.0769
							C296.3133,105.8831,296.1613,105.7323,295.9739,105.7323z"/>
						<path class="st179" d="M295.812,105.7323c-0.0275,0-0.0534,0.0039-0.0789,0.0099c-0.0795-0.3408-0.3419-0.5907-0.6532-0.5907
							c-0.2294,0-0.4323,0.136-0.5552,0.3429c-0.078-0.0379-0.166-0.0589-0.2589-0.0589c-0.3223,0-0.5836,0.2579-0.5836,0.5766
							c0,0.046,0.0055,0.09,0.015,0.133h0.7221h0.4153h0.6467h0.2594h0.4018c0.006-0.025,0.0085-0.051,0.0085-0.0769
							C296.1508,105.8831,295.9989,105.7323,295.812,105.7323z"/>
						<path class="st148" d="M295.812,105.7323c-0.0275,0-0.0534,0.0039-0.0789,0.0099c-0.0795-0.3408-0.3419-0.5907-0.6532-0.5907
							c-0.01,0-0.0195,0-0.0289,0.0011v0.9925h0.4303h0.2594h0.4018c0.006-0.025,0.0085-0.051,0.0085-0.0769
							C296.1508,105.8831,295.9989,105.7323,295.812,105.7323z"/>
					</g>
					<g>
						<path class="st178" d="M296.8815,100.3429c-0.041,0-0.0805,0.0041-0.1184,0.0131c-0.121-0.5127-0.5168-0.8906-0.9861-0.8906
							c-0.3463,0-0.6522,0.2048-0.8376,0.5177c-0.1179-0.057-0.2504-0.09-0.3903-0.09c-0.4873,0-0.8816,0.3909-0.8816,0.8715
							c0,0.069,0.008,0.136,0.023,0.2h1.09h0.6262h0.976h0.3909h0.6061c0.009-0.0381,0.0135-0.076,0.0135-0.1161
							C297.3932,100.5688,297.1638,100.3429,296.8815,100.3429z"/>
						<path class="st179" d="M296.6366,100.3429c-0.041,0-0.0804,0.0041-0.1184,0.0131c-0.1209-0.5127-0.5163-0.8906-0.986-0.8906
							c-0.3463,0-0.6522,0.2048-0.8376,0.5177c-0.1174-0.057-0.2504-0.09-0.3908-0.09c-0.4868,0-0.881,0.3909-0.881,0.8715
							c0,0.069,0.0079,0.136,0.0229,0.2h1.0895h0.6267h0.976h0.3908h0.6062c0.009-0.0381,0.0135-0.076,0.0135-0.1161
							C297.1484,100.5688,296.919,100.3429,296.6366,100.3429z"/>
						<path class="st148" d="M296.6366,100.3429c-0.041,0-0.0804,0.0041-0.1184,0.0131c-0.1209-0.5127-0.5163-0.8906-0.986-0.8906
							c-0.0146,0-0.0295,0.0009-0.0435,0.0019v1.4973h0.6492h0.3908h0.6062c0.009-0.0381,0.0135-0.076,0.0135-0.1161
							C297.1484,100.5688,296.919,100.3429,296.6366,100.3429z"/>
					</g>
					<g>
						<path class="st178" d="M300.3617,104.021c-0.0349,0-0.069,0.004-0.1014,0.0111c-0.104-0.4408-0.4432-0.7637-0.8466-0.7637
							c-0.2968,0-0.5598,0.175-0.7187,0.4438c-0.101-0.0489-0.2149-0.0769-0.3353-0.0769c-0.4178,0-0.7562,0.3348-0.7562,0.7477
							c0,0.0589,0.007,0.1159,0.02,0.1718h0.935h0.5377h0.8376h0.3353h0.5202c0.0075-0.0319,0.0115-0.066,0.0115-0.0999
							C300.801,104.215,300.6042,104.021,300.3617,104.021z"/>
						<path class="st179" d="M300.1514,104.021c-0.035,0-0.069,0.004-0.1015,0.0111c-0.1035-0.4408-0.4432-0.7637-0.846-0.7637
							c-0.2974,0-0.5603,0.175-0.7187,0.4438c-0.1014-0.0489-0.2149-0.0769-0.3353-0.0769c-0.4183,0-0.7567,0.3348-0.7567,0.7477
							c0,0.0589,0.007,0.1159,0.02,0.1718h0.935h0.5378h0.8376h0.3353h0.5202c0.0075-0.0319,0.0115-0.066,0.0115-0.0999
							C300.5906,104.215,300.3943,104.021,300.1514,104.021z"/>
						<path class="st148" d="M300.1514,104.021c-0.035,0-0.069,0.004-0.1015,0.0111c-0.1035-0.4408-0.4432-0.7637-0.846-0.7637
							c-0.013,0-0.025,0-0.0375,0.001v1.2853h0.5572h0.3353h0.5202c0.0075-0.0319,0.0115-0.066,0.0115-0.0999
							C300.5906,104.215,300.3943,104.021,300.1514,104.021z"/>
					</g>
				</g>
				<g id="Idea_4_">
					<circle class="st166" cx="295.4141" cy="114.7358" r="4.6246"/>
					<circle class="st180" cx="295.021" cy="114.4689" r="4.6246"/>
					<g id="Lamp_5_">
						<path class="st128" d="M295.0314,113.4085c-0.1514-0.004-1.4873,0.006-1.4893,1.5042
							c-0.001,0.5897,0.8146,1.8122,0.8146,1.8122h0.6606h0.0275h0.6601c0,0,0.8161-1.2225,0.8152-1.8122
							C296.5182,113.4145,295.1818,113.4044,295.0314,113.4085z"/>
						<g>
							<path class="st129" d="M295.2188,116.7658c-0.0005-0.003-0.061-0.2799-0.066-0.7966
								c-0.001-0.149,0.0115-0.2619,0.0364-0.3388c-0.033,0.006-0.0709,0.0069-0.1124-0.001c-0.032-0.006-0.052-0.018-0.0645-0.0319
								c-0.0355,0.0259-0.0829,0.042-0.1304,0.048c0.005,0.0069,0.0095,0.0139,0.015,0.0219c0.1055,0.164,0.039,1.0576,0.036,1.0955
								l-0.0424-0.0041c0.0199-0.2538,0.0525-0.9424-0.029-1.0684c-0.0105-0.016-0.0204-0.0291-0.0294-0.0411
								c-0.0105,0-0.0205,0-0.03,0c-0.088-0.0039-0.0925-0.0289-0.0935-0.0369c-0.0035-0.0201,0.008-0.046,0.033-0.0561
								c0.0235-0.009,0.06-0.005,0.1094,0.0501c0.029-0.0021,0.0605-0.0081,0.09-0.019c0.0204-0.0079,0.038-0.018,0.0519-0.0289
								c-0.0004-0.001-0.0004-0.001-0.0004-0.0021c-0.009-0.0469,0.0169-0.0979,0.0379-0.1118c0.011-0.007,0.0225-0.007,0.032,0
								c0.0145,0.0109,0.016,0.0309,0.006,0.0709c-0.0055,0.0199-0.014,0.037-0.026,0.052c0.0085,0.0099,0.0225,0.0169,0.042,0.021
								c0.048,0.009,0.0905,0.0039,0.1255-0.0051c0.0145-0.027,0.0315-0.0459,0.051-0.0579c0.0345-0.021,0.0679-0.013,0.0829-0.0051
								l0.0245,0.013l-0.02,0.0199c-0.003,0.003-0.0415,0.0411-0.1089,0.064c-0.0245,0.0559-0.0459,0.1589-0.044,0.3519
								c0.0045,0.5117,0.0645,0.7846,0.065,0.7876L295.2188,116.7658z M294.752,115.5993c0.0075,0.003,0.021,0.005,0.037,0.007
								c-0.0154-0.0111-0.0259-0.013-0.0319-0.0111C294.7545,115.5964,294.753,115.5983,294.752,115.5993z"/>
						</g>
						<path class="st130" d="M294.3568,116.7248v0.7116c0,0.0929,0.0719,0.169,0.1604,0.169h1.0274
							c0.0885,0,0.1604-0.076,0.1604-0.169v-0.7116H294.3568z"/>
						<g>
							<path class="st131" d="M295.705,116.8337c0,0.025-0.0225,0.045-0.0504,0.045h-1.2464c-0.0285,0-0.0514-0.0199-0.0514-0.045
								l0,0c0-0.0249,0.0229-0.0459,0.0514-0.0459h1.2464C295.6825,116.7878,295.705,116.8088,295.705,116.8337L295.705,116.8337z"
								/>
							<path class="st131" d="M295.705,117.0166c0,0.025-0.0225,0.045-0.0504,0.045h-1.2464c-0.0285,0-0.0514-0.0199-0.0514-0.045
								l0,0c0-0.0259,0.0229-0.0459,0.0514-0.0459h1.2464C295.6825,116.9707,295.705,116.9907,295.705,117.0166L295.705,117.0166z"
								/>
							<path class="st131" d="M295.705,117.1986c0,0.0259-0.0225,0.0459-0.0504,0.0459h-1.2464
								c-0.0285,0-0.0514-0.0199-0.0514-0.0459l0,0c0-0.025,0.0229-0.046,0.0514-0.046h1.2464
								C295.6825,117.1526,295.705,117.1736,295.705,117.1986L295.705,117.1986z"/>
							<path class="st131" d="M295.705,117.3815c0,0.0249-0.0225,0.0459-0.0504,0.0459h-1.2464
								c-0.0285,0-0.0514-0.021-0.0514-0.0459l0,0c0-0.025,0.0229-0.045,0.0514-0.045h1.2464
								C295.6825,117.3365,295.705,117.3565,295.705,117.3815L295.705,117.3815z"/>
							<path class="st132" d="M295.705,116.9247c0,0.0259-0.0225,0.046-0.0504,0.046h-1.2464c-0.0285,0-0.0514-0.0201-0.0514-0.046
								l0,0c0-0.025,0.0229-0.046,0.0514-0.046h1.2464C295.6825,116.8787,295.705,116.8997,295.705,116.9247L295.705,116.9247z"/>
							<path class="st132" d="M295.705,117.1076c0,0.025-0.0225,0.045-0.0504,0.045h-1.2464c-0.0285,0-0.0514-0.0199-0.0514-0.045
								l0,0c0-0.025,0.0229-0.046,0.0514-0.046h1.2464C295.6825,117.0616,295.705,117.0826,295.705,117.1076L295.705,117.1076z"/>
							<path class="st132" d="M295.705,117.2905c0,0.025-0.0225,0.046-0.0504,0.046h-1.2464c-0.0285,0-0.0514-0.021-0.0514-0.046
								l0,0c0-0.025,0.0229-0.046,0.0514-0.046h1.2464C295.6825,117.2445,295.705,117.2655,295.705,117.2905L295.705,117.2905z"/>
							<path class="st132" d="M295.705,117.4724c0,0.0261-0.0225,0.046-0.0504,0.046h-1.2464c-0.0285,0-0.0514-0.0199-0.0514-0.046
								l0,0c0-0.0249,0.0229-0.045,0.0514-0.045h1.2464C295.6825,117.4274,295.705,117.4475,295.705,117.4724L295.705,117.4724z"/>
						</g>
						<path class="st132" d="M295.4507,113.4584c0.2129,0.4768,0.7136,1.8831-0.0365,3.2684h0.2909c0,0,0.8161-1.2215,0.8152-1.8121
							C296.5191,113.8902,295.8944,113.5623,295.4507,113.4584z"/>
						
							<ellipse transform="matrix(0.9432 -0.3321 0.3321 0.9432 -21.4038 104.1911)" class="st133" cx="294.1011" cy="114.7108" rx="0.2318" ry="0.1526"/>
						
							<ellipse transform="matrix(0.9434 -0.3318 0.3318 0.9434 -21.1846 104.1313)" class="st133" cx="294.4034" cy="114.1144" rx="0.4474" ry="0.2946"/>
						<g>
							<polygon class="st128" points="292.745,112.1301 292.7915,112.0891 294.0483,113.3665 294.0014,113.4085 							"/>
							<polygon class="st128" points="291.3847,113.9341 291.3932,113.8733 293.2018,114.105 293.1933,114.1661 							"/>
							<polygon class="st128" points="291.4566,115.6433 291.4437,115.5833 293.2312,115.2355 293.2443,115.2955 							"/>
							<polygon class="st128" points="297.1718,112.1301 297.1253,112.0891 295.869,113.3665 295.9149,113.4085 							"/>
							<polygon class="st128" points="298.6571,114.0281 298.6486,113.9681 296.8405,114.2001 296.849,114.261 							"/>
							<polygon class="st128" points="298.5346,115.5004 298.5476,115.4404 296.76,115.0926 296.747,115.1526 							"/>
							<polygon class="st128" points="295.0734,113.0667 295.0094,113.0675 294.9749,111.3335 295.0394,111.3325 							"/>
						</g>
					</g>
				</g>
			</g>
			<polygon class="st181" points="307.6331,88.8455 307.1229,88.8455 280.1162,127.3595 280.1162,128.9787 307.6331,128.9787 			"/>
		</g>
		<g id="Button_1_">
			<circle class="st149" cx="359.5564" cy="105.672" r="13.364"/>
			<circle class="st182" cx="359.5565" cy="105.6723" r="9.9253"/>
			<circle class="st149" cx="359.5565" cy="105.672" r="6.6302"/>
		</g>
		<g id="Push_1_">
			<path class="st183" d="M345.1187,137.9972l0.1324,19.7024c0,0,8.5288,8.6387,11.1071,13.2004
				c2.5787,4.5618,7.3389,6.347,7.5373,6.347c0.1984,0,28.1645,0,28.1645,0s6.9416-1.9831,7.1405-11.5044v-32.329
				c0,0-4.232-8.1099-8.3309,0h-2.5787v-4.9585c0,0-4.9575-7.7353-9.3214,0v4.5616h-2.5787v-8c0,0-4.9585-8.5947-9.1234,0v8h-2.7766
				v-24.198c0,0-4.3643-9.3214-8.7277,0v47.6246c0,0-1.2234-1.1895-2.0165-3.9661l-0.7601-9.3454
				C352.9863,143.1318,350.6719,133.5845,345.1187,137.9972z"/>
			<path class="st132" d="M358.7379,105.0045c-0.9561,0.5068-1.9645,1.6573-2.975,3.8141v48.1973l2.975-0.11V105.0045z"/>
			<path class="st132" d="M368.2077,123.3835c-0.3168,0.4607-0.6307,0.9936-0.9405,1.6331v8h-2.7766v-24.198
				c0,0-0.2279-0.4837-0.6297-1.1194v0.4477v26.0822h4.3468V123.3835z"/>
			<path class="st132" d="M379.5792,127.4855c-0.2039,0.2949-0.4078,0.6107-0.6097,0.9696v4.5616h-2.5787v-8
				c0,0-0.3498-0.6036-0.9385-1.3292v9.8971h4.127V127.4855z"/>
			<path class="st132" d="M390.8695,133.4136h-2.5787v-4.9585c0,0-0.2958-0.4588-0.8015-1.0405v6.8146h4.2399v-2.2778
				C391.4433,132.3671,391.1554,132.8468,390.8695,133.4136z"/>
			<path class="st133" d="M346.9033,141.3697c-0.1984-2.4789-1.7796-2.7757-1.7811-2.7766l0.033,4.8585h1.7481V141.3697z"/>
			<path class="st12" d="M360.0828,106.4389c-1.4583,0-2.6407,1.4082-2.6407,3.1474h5.2814
				C362.7234,107.8471,361.541,106.4389,360.0828,106.4389z"/>
		</g>
		<g id="Setting_2_">
			<circle class="st166" cx="413.5047" cy="103.5553" r="16.4636"/>
			<circle class="st154" cx="412.277" cy="102.5725" r="16.4636"/>
			<g>
				<path class="st164" d="M413.4884,91.6832h-2.223c-0.1208,0-0.2159,0.0979-0.2159,0.2159v1.1544
					c-1.4172,0.2009-2.7296,0.7406-3.863,1.5402L406.1,93.5073c-0.084-0.0831-0.2199-0.0831-0.3058,0l-1.5732,1.5732
					c-0.0831,0.0829-0.0831,0.2208,0,0.3048l1.0364,1.0355c-0.7366,0.9306-1.3104,2.007-1.6751,3.1855l-1.4933-0.2649
					c-0.1169-0.0199-0.2279,0.0589-0.251,0.175l-0.3838,2.1919c-0.0219,0.1159,0.0561,0.2298,0.1719,0.2508l1.5173,0.2658
					c-0.002,0.117-0.0041,0.2309-0.0041,0.3489c0,0.8955,0.1161,1.7621,0.3328,2.5837l-1.3673,0.6397
					c-0.1059,0.049-0.1529,0.1769-0.1039,0.2849l0.9405,2.017c0.0501,0.107,0.179,0.154,0.287,0.1049l1.2673-0.5916
					c0.5267,0.8955,1.1904,1.6951,1.96,2.3618l-0.6346,1.0994c-0.0589,0.1019-0.025,0.2339,0.079,0.293l1.927,1.1133
					c0.102,0.0591,0.2339,0.024,0.2958-0.0789l0.5718-0.9916c0.9595,0.4318,2.0039,0.6937,3.1005,0.7556l0.0959,1.1005
					c0.0099,0.118,0.1159,0.205,0.2339,0.1949l2.2168-0.1928c0.118-0.012,0.2069-0.1161,0.1949-0.2339l-0.0979-1.1274
					c1.0345-0.2649,1.997-0.7128,2.8595-1.3084l0.8216,0.9805c0.0779,0.09,0.2139,0.102,0.3039,0.027l1.7051-1.4313
					c0.0921-0.0769,0.1041-0.2138,0.0261-0.3029l-0.9096-1.0863c0.6166-0.7637,1.1214-1.6293,1.4892-2.5688l1.5232,0.4069
					c0.114,0.0309,0.232-0.0381,0.2619-0.152l0.5757-2.1499c0.031-0.1139-0.036-0.2339-0.1519-0.2639l-1.5832-0.4237
					c0.036-0.3478,0.054-0.7017,0.054-1.0595c0-0.6237-0.0561-1.2294-0.1619-1.8182l1.5511-0.5637
					c0.11-0.0409,0.1679-0.1649,0.128-0.2768l-0.7616-2.09c-0.04-0.1109-0.1649-0.1709-0.2759-0.13l-1.4633,0.5327
					c-0.4399-0.9075-1.0115-1.731-1.6902-2.4438l0.8207-1.1724c0.0669-0.0979,0.0439-0.2318-0.0531-0.3008l-1.824-1.2765
					c-0.097-0.069-0.2309-0.0439-0.2979,0.054l-0.7376,1.0495c-0.8996-0.5167-1.8921-0.8795-2.9445-1.0534V91.899
					C413.7043,91.7811,413.6064,91.6832,413.4884,91.6832L413.4884,91.6832z M412.2759,97.907c2.5778,0,4.6667,2.088,4.6667,4.6668
					c0,2.5757-2.0889,4.6657-4.6667,4.6657c-2.5757,0-4.6666-2.09-4.6666-4.6657C407.6093,99.995,409.7002,97.907,412.2759,97.907
					L412.2759,97.907z"/>
				<path class="st167" d="M412.2759,96.1079c3.5712,0,6.4648,2.8936,6.4648,6.4659c0,3.5693-2.8936,6.4629-6.4648,6.4629
					c-3.5692,0-6.4637-2.8936-6.4637-6.4629C405.8122,99.0015,408.7068,96.1079,412.2759,96.1079L412.2759,96.1079z
					 M412.2759,97.907c2.5778,0,4.6667,2.088,4.6667,4.6668c0,2.5757-2.0889,4.6657-4.6667,4.6657
					c-2.5757,0-4.6666-2.09-4.6666-4.6657C407.6093,99.995,409.7002,97.907,412.2759,97.907L412.2759,97.907z"/>
				<path class="st131" d="M422.9438,104.057l-1.5832-0.4237c0.036-0.3478,0.054-0.7017,0.054-1.0595
					c0-0.6237-0.0561-1.2294-0.1619-1.8182l1.5511-0.5637c0.11-0.0409,0.1679-0.1649,0.128-0.2768l-0.7616-2.09
					c-0.04-0.1109-0.1649-0.1709-0.2759-0.13l-1.4633,0.5327c-0.4399-0.9075-1.0115-1.731-1.6902-2.4438l0.8207-1.1724
					c0.0669-0.0979,0.0439-0.2318-0.0531-0.3008l-1.824-1.2765c-0.097-0.069-0.2309-0.0439-0.2979,0.054l-0.7376,1.0495
					c-0.8996-0.5167-1.8921-0.8795-2.9445-1.0534V91.899c0-0.118-0.0979-0.2159-0.2159-0.2159h-1.2114v6.2239
					c2.5777,0,4.6657,2.088,4.6657,4.6668c0,2.5757-2.088,4.6657-4.6657,4.6657v6.208l2.0649-0.1799
					c0.118-0.012,0.2069-0.1161,0.1949-0.2339l-0.0979-1.1274c1.0345-0.2649,1.997-0.7128,2.8595-1.3084l0.8216,0.9805
					c0.0779,0.09,0.2139,0.102,0.3039,0.027l1.7051-1.4313c0.0921-0.0769,0.1041-0.2138,0.0261-0.3029l-0.9096-1.0863
					c0.6166-0.7637,1.1214-1.6293,1.4892-2.5688l1.5232,0.4069c0.114,0.0309,0.232-0.0381,0.2619-0.152l0.5757-2.1499
					C423.1267,104.2069,423.0597,104.087,422.9438,104.057z"/>
			</g>
		</g>
		<g id="Game_2_">
			<circle class="st166" cx="448.3892" cy="85.6681" r="16.4639"/>
			<circle class="st168" cx="447.131" cy="84.5327" r="16.4636"/>
			<g id="Rocket_2_">
				<path class="st169" d="M453.9545,77.4882c0,0-9.6252-2.4948-15.0907,6.3509l1.8891,2.7417l1.8882,2.7416
					C452.853,87.3713,453.9545,77.4882,453.9545,77.4882z"/>
				<path class="st170" d="M440.8949,86.7876l-0.042-0.061l-1.9891-2.8876c0,0-0.4297,1.3723-0.1979,2.123l1.0615,1.5402
					l0.042,0.061l0.9257,1.3444c0.5667,0.4087,1.94,0.4067,1.94,0.4067L440.8949,86.7876z"/>
				
					<rect x="438.7101" y="85.905" transform="matrix(0.8236 -0.5672 0.5672 0.8236 27.7843 264.5954)" class="st171" width="1.0017" height="3.4627"/>
				
					<rect x="438.3706" y="86.6868" transform="matrix(0.8234 -0.5674 0.5674 0.8234 27.4812 264.4198)" class="st172" width="0.4693" height="2.7338"/>
				<polygon class="st173" points="442.9178,80.4526 436.9648,80.3457 439.8015,84.1699 				"/>
				<polygon class="st173" points="447.3517,86.3008 445.3286,91.901 442.767,87.887 				"/>
				<path class="st174" d="M453.0928,80.6535c0.7096-1.8071,0.8616-3.1654,0.8616-3.1654s-1.3224-0.3418-3.2645-0.3228
					L453.0928,80.6535z"/>
				<polygon class="st175" points="435.1306,90.4467 437.4245,90.2638 439.7175,90.0819 438.4121,88.1869 437.1067,86.2918 
					436.1193,88.3698 				"/>
				<polygon class="st176" points="436.0773,89.7281 437.7104,89.6341 439.3436,89.5403 438.381,88.1419 437.4185,86.7435 
					436.7479,88.2359 				"/>
				<polygon class="st177" points="437.2686,88.8815 438.1463,88.9785 439.0238,89.0755 438.3682,88.1239 437.7124,87.1714 
					437.4905,88.026 				"/>
				<path class="st148" d="M453.0928,80.6535L453.0928,80.6535c0.5757-1.4672,0.7837-2.6357,0.8416-3.0245
					c0-0.003,0.001-0.004,0.0021-0.007c0.008-0.0549,0.0129-0.0938,0.0159-0.1148c0-0.003,0-0.0041,0-0.007
					c0.0011-0.007,0.0021-0.012,0.0021-0.012s-0.0051-0.0011-0.012-0.0019c-0.0021-0.0011-0.003-0.0011-0.007-0.0021
					c-0.012-0.003-0.033-0.008-0.0589-0.0139l-18.6988,12.8786l-0.0471,0.0979l2.2939-0.1829l2.2929-0.1819l-0.3739-0.5417
					l-0.1559-0.2279l0.3859-0.266l0.2069,0.2998l0.8246-0.5676l0.09,0.1289c0.5667,0.4087,1.94,0.4067,1.94,0.4067l0.006,0.0079
					c0.3127-0.06,0.6166-0.1268,0.9135-0.2009l1.7741,2.7796l1.4433-3.996C450.3622,86.0149,452.1843,82.9654,453.0928,80.6535z"/>
			</g>
			<g>
				<path class="st178" d="M445.6385,93.0605c-0.097,0-0.19,0.012-0.2799,0.033c-0.2849-1.2124-1.2183-2.1011-2.3269-2.1011
					c-0.8165,0-1.5382,0.4828-1.9749,1.2225c-0.2778-0.136-0.5918-0.2129-0.9216-0.2129c-1.1493,0-2.0789,0.9205-2.0789,2.0559
					c0,0.1619,0.018,0.3189,0.054,0.4697h2.5706h1.4783h2.3029h0.9227h1.4292c0.02-0.087,0.032-0.1789,0.032-0.2729
					C446.8459,93.5952,446.3042,93.0605,445.6385,93.0605z"/>
				<path class="st179" d="M445.0598,93.0605c-0.097,0-0.19,0.012-0.2789,0.033c-0.2849-1.2124-1.2184-2.1011-2.3269-2.1011
					c-0.8175,0-1.5382,0.4828-1.9749,1.2225c-0.278-0.136-0.5918-0.2129-0.9227-0.2129c-1.1484,0-2.0789,0.9205-2.0789,2.0559
					c0,0.1619,0.0189,0.3189,0.0549,0.4697h2.5697h1.4783h2.3029h0.9226h1.4303c0.02-0.087,0.0309-0.1789,0.0309-0.2729
					C446.2672,93.5952,445.7265,93.0605,445.0598,93.0605z"/>
				<path class="st148" d="M445.0598,93.0605c-0.097,0-0.19,0.012-0.2789,0.033c-0.2849-1.2124-1.2184-2.1011-2.3269-2.1011
					c-0.034,0-0.0679,0.001-0.1019,0.003v3.5323h1.5312h0.9226h1.4303c0.02-0.087,0.0309-0.1789,0.0309-0.2729
					C446.2672,93.5952,445.7265,93.0605,445.0598,93.0605z"/>
			</g>
			<g>
				<path class="st178" d="M448.8679,73.8719c-0.145,0-0.2868,0.0169-0.4208,0.048c-0.4307-1.8281-1.839-3.1694-3.5113-3.1694
					c-1.2324,0-2.3218,0.7297-2.9814,1.8441c-0.4189-0.205-0.8906-0.3198-1.3904-0.3198c-1.7321,0-3.1373,1.3883-3.1373,3.1014
					c0,0.2439,0.0289,0.4819,0.0829,0.7098h3.8771h2.2319h3.4753h1.3913h2.1568c0.031-0.133,0.048-0.2709,0.048-0.4118
					C450.69,74.6786,449.8744,73.8719,448.8679,73.8719z"/>
				<path class="st179" d="M447.9954,73.8719c-0.1459,0-0.2859,0.0169-0.4218,0.048c-0.4288-1.8281-1.8372-3.1694-3.5104-3.1694
					c-1.2313,0-2.3208,0.7297-2.9805,1.8441c-0.4187-0.205-0.8914-0.3198-1.3913-0.3198c-1.7321,0-3.1365,1.3883-3.1365,3.1014
					c0,0.2439,0.028,0.4819,0.082,0.7098h3.8781h2.2309h3.4753h1.3913h2.1579c0.0319-0.133,0.0469-0.2709,0.0469-0.4118
					C449.8174,74.6786,449.0009,73.8719,447.9954,73.8719z"/>
				<path class="st148" d="M447.9954,73.8719c-0.1459,0-0.2859,0.0169-0.4218,0.048c-0.4288-1.8281-1.8372-3.1694-3.5104-3.1694
					c-0.0518,0-0.1019,0.003-0.1538,0.005v5.3305h2.3119h1.3913h2.1579c0.0319-0.133,0.0469-0.2709,0.0469-0.4118
					C449.8174,74.6786,449.0009,73.8719,447.9954,73.8719z"/>
			</g>
			<g>
				<path class="st178" d="M461.2578,86.9654c-0.1249,0-0.2448,0.015-0.3609,0.042c-0.3697-1.5691-1.5792-2.7197-3.0135-2.7197
					c-1.0574,0-1.9919,0.6258-2.5597,1.5823c-0.3598-0.176-0.7636-0.275-1.1924-0.275c-1.4873,0-2.6937,1.1915-2.6937,2.6627
					c0,0.209,0.0259,0.4129,0.072,0.6087h3.3284h1.915h2.9816h1.1945h1.8521c0.027-0.1139,0.0409-0.2318,0.0409-0.3538
					C462.822,87.6581,462.1214,86.9654,461.2578,86.9654z"/>
				<path class="st179" d="M460.5092,86.9654c-0.125,0-0.2458,0.015-0.3619,0.042c-0.3678-1.5691-1.5772-2.7197-3.0125-2.7197
					c-1.0574,0-1.993,0.6258-2.5588,1.5823c-0.3598-0.176-0.7655-0.275-1.1934-0.275c-1.4872,0-2.6927,1.1915-2.6927,2.6627
					c0,0.209,0.024,0.4129,0.0711,0.6087h3.3283h1.915h2.9816h1.1943h1.8522c0.027-0.1139,0.0409-0.2318,0.0409-0.3538
					C462.0734,87.6581,461.3728,86.9654,460.5092,86.9654z"/>
				<path class="st148" d="M460.5092,86.9654c-0.125,0-0.2458,0.015-0.3619,0.042c-0.3678-1.5691-1.5772-2.7197-3.0125-2.7197
					c-0.0439,0-0.088,0.001-0.133,0.003v4.5757h1.9841h1.1943h1.8522c0.027-0.1139,0.0409-0.2318,0.0409-0.3538
					C462.0734,87.6581,461.3728,86.9654,460.5092,86.9654z"/>
			</g>
		</g>
		<g id="Idea_1_">
			<circle class="st166" cx="443.6437" cy="125.1134" r="16.4634"/>
			<circle class="st180" cx="442.2442" cy="124.1624" r="16.4636"/>
			<g id="Lamp_4_">
				<path class="st128" d="M442.2812,120.388c-0.5378-0.013-5.2945,0.019-5.3024,5.3534c-0.003,2.1009,2.9006,6.4518,2.9006,6.4518
					h2.3517h0.1h2.3498c0,0,2.9047-4.3509,2.9017-6.4518C447.5756,120.407,442.818,120.3749,442.2812,120.388z"/>
				<g>
					<path class="st129" d="M442.9499,132.3381c-0.0021-0.009-0.2189-0.9955-0.2349-2.8327
						c-0.0049-0.5307,0.039-0.9345,0.1309-1.2074c-0.1189,0.0199-0.2538,0.0229-0.4037-0.003
						c-0.112-0.021-0.1829-0.066-0.2279-0.117c-0.1259,0.0949-0.2939,0.1489-0.4658,0.1729c0.018,0.024,0.036,0.051,0.054,0.079
						c0.3759,0.5817,0.139,3.7631,0.128,3.8981l-0.1499-0.0109c0.0699-0.9077,0.1859-3.3574-0.104-3.8051
						c-0.0369-0.057-0.072-0.106-0.1039-0.1469c-0.037,0.0009-0.0739,0-0.1079-0.001c-0.3129-0.0139-0.3279-0.102-0.3318-0.1309
						c-0.012-0.0711,0.0279-0.1649,0.1179-0.2c0.084-0.0319,0.212-0.018,0.3878,0.178c0.1039-0.008,0.2159-0.027,0.3209-0.066
						c0.075-0.028,0.136-0.0619,0.1848-0.1039c0-0.0021-0.0009-0.004-0.002-0.007c-0.0319-0.166,0.061-0.3489,0.136-0.3978
						c0.0379-0.024,0.0799-0.025,0.1129-0.001c0.051,0.0379,0.0589,0.112,0.021,0.2538c-0.018,0.07-0.0499,0.1319-0.091,0.1839
						c0.03,0.037,0.079,0.061,0.149,0.0739c0.1718,0.031,0.3217,0.016,0.4477-0.0189c0.0501-0.095,0.11-0.164,0.181-0.206
						c0.121-0.0739,0.2418-0.0459,0.2938-0.0169l0.088,0.048l-0.0711,0.0709c-0.0099,0.009-0.1478,0.146-0.3868,0.2279
						c-0.0879,0.197-0.1639,0.5658-0.1579,1.2525c0.017,1.821,0.2289,2.7916,0.232,2.8015L442.9499,132.3381z M441.2866,128.1882
						c0.028,0.0099,0.0741,0.018,0.1319,0.0229c-0.054-0.0379-0.0919-0.045-0.114-0.0379
						C441.2967,128.1762,441.2906,128.1822,441.2866,128.1882z"/>
				</g>
				<path class="st130" d="M439.8794,132.1932v2.5348c0,0.3318,0.2568,0.5997,0.5727,0.5997h3.6572
					c0.3159,0,0.5717-0.2679,0.5717-0.5997v-2.5348H439.8794z"/>
				<g>
					<path class="st131" d="M444.6809,132.581c0,0.09-0.081,0.1628-0.1808,0.1628h-4.4378c-0.101,0-0.1829-0.0729-0.1829-0.1628l0,0
						c0-0.09,0.0819-0.1619,0.1829-0.1619h4.4378C444.6,132.4191,444.6809,132.4911,444.6809,132.581L444.6809,132.581z"/>
					<path class="st131" d="M444.6809,133.2317c0,0.0889-0.081,0.1628-0.1808,0.1628h-4.4378c-0.101,0-0.1829-0.0739-0.1829-0.1628
						l0,0c0-0.09,0.0819-0.163,0.1829-0.163h4.4378C444.6,133.0687,444.6809,133.1417,444.6809,133.2317L444.6809,133.2317z"/>
					<path class="st131" d="M444.6809,133.8813c0,0.09-0.081,0.163-0.1808,0.163h-4.4378c-0.101,0-0.1829-0.073-0.1829-0.163l0,0
						c0-0.0889,0.0819-0.163,0.1829-0.163h4.4378C444.6,133.7184,444.6809,133.7924,444.6809,133.8813L444.6809,133.8813z"/>
					<path class="st131" d="M444.6809,134.532c0,0.09-0.081,0.1619-0.1808,0.1619h-4.4378c-0.101,0-0.1829-0.072-0.1829-0.1619l0,0
						c0-0.09,0.0819-0.163,0.1829-0.163h4.4378C444.6,134.369,444.6809,134.442,444.6809,134.532L444.6809,134.532z"/>
					<path class="st132" d="M444.6809,132.9058c0,0.09-0.081,0.163-0.1808,0.163h-4.4378c-0.101,0-0.1829-0.073-0.1829-0.163l0,0
						c0-0.09,0.0819-0.1619,0.1829-0.1619h4.4378C444.6,132.7438,444.6809,132.8158,444.6809,132.9058L444.6809,132.9058z"/>
					<path class="st132" d="M444.6809,133.5564c0,0.09-0.081,0.1619-0.1808,0.1619h-4.4378c-0.101,0-0.1829-0.072-0.1829-0.1619l0,0
						c0-0.09,0.0819-0.1619,0.1829-0.1619h4.4378C444.6,133.3945,444.6809,133.4665,444.6809,133.5564L444.6809,133.5564z"/>
					<path class="st132" d="M444.6809,134.2062c0,0.09-0.081,0.1628-0.1808,0.1628h-4.4378c-0.101,0-0.1829-0.0729-0.1829-0.1628
						l0,0c0-0.0891,0.0819-0.1619,0.1829-0.1619h4.4378C444.6,134.0443,444.6809,134.1172,444.6809,134.2062L444.6809,134.2062z"/>
					<path class="st132" d="M444.6809,134.8569c0,0.09-0.081,0.1628-0.1808,0.1628h-4.4378c-0.101,0-0.1829-0.0729-0.1829-0.1628
						l0,0c0-0.09,0.0819-0.163,0.1829-0.163h4.4378C444.6,134.6939,444.6809,134.7669,444.6809,134.8569L444.6809,134.8569z"/>
				</g>
				<path class="st132" d="M443.7745,120.5649c0.7586,1.6972,2.5398,6.7047-0.131,11.6383h1.0375c0,0,2.9047-4.3519,2.9017-6.4528
					C447.5775,122.1042,445.3537,120.9357,443.7745,120.5649z"/>
				
					<ellipse transform="matrix(0.9434 -0.3316 0.3316 0.9434 -16.6207 152.637)" class="st133" cx="438.9703" cy="125.0229" rx="0.8258" ry="0.5441"/>
				
					<ellipse transform="matrix(0.9433 -0.3318 0.3318 0.9433 -15.849 152.9802)" class="st133" cx="440.046" cy="122.9005" rx="1.5936" ry="1.0495"/>
				<g>
					<polygon class="st128" points="434.1422,115.8362 434.3082,115.6882 438.782,120.2391 438.616,120.3869 					"/>
					<polygon class="st128" points="429.2996,122.258 429.3306,122.0421 435.7684,122.8678 435.7374,123.0836 					"/>
					<polygon class="st128" points="429.5544,128.3441 429.5095,128.1312 435.8734,126.8928 435.9193,127.1057 					"/>
					<polygon class="st128" points="449.9014,115.8362 449.7365,115.6882 445.2627,120.2391 445.4286,120.3869 					"/>
					<polygon class="st128" points="455.1898,122.5959 455.1599,122.3801 448.721,123.2056 448.752,123.4214 					"/>
					<polygon class="st128" points="454.754,127.8353 454.8,127.6215 448.4351,126.384 448.3892,126.5969 					"/>
					<polygon class="st128" points="442.432,119.1716 442.2032,119.1746 442.0803,113.0007 442.3102,112.9966 					"/>
				</g>
			</g>
		</g>
	</g>
</g>
</svg>
