<?xml version="1.0" encoding="utf-8"?>
<!-- Generator: Adobe Illustrator 21.0.2, SVG Export Plug-In . SVG Version: 6.00 Build 0)  -->
<svg version="1.1" id="Capa_1" xmlns="http://www.w3.org/2000/svg" xmlns:xlink="http://www.w3.org/1999/xlink" x="0px" y="0px"
	 viewBox="0 0 450.76 99.4825" style="enable-background:new 0 0 450.76 99.4825;" xml:space="preserve">
<style type="text/css">
	.st0{opacity:0.25;clip-path:url(#XMLID_4592_);}
	.st1{fill:#FFFFFF;}
	.st2{fill-rule:evenodd;clip-rule:evenodd;fill:#DDDDDD;}
	.st3{fill:#ACABC9;}
	.st4{fill:#3B86B1;}
	.st5{opacity:0.25;fill-rule:evenodd;clip-rule:evenodd;fill:#020202;}
	.st6{opacity:0.5;}
	.st7{fill-rule:evenodd;clip-rule:evenodd;fill:#A8A8A8;}
	.st8{fill-rule:evenodd;clip-rule:evenodd;fill:#FFFFFF;}
	.st9{fill-rule:evenodd;clip-rule:evenodd;fill:#3B86B1;}
	.st10{opacity:0.5;fill:#2C6882;}
	.st11{opacity:0.75;fill-rule:evenodd;clip-rule:evenodd;fill:#282828;}
	.st12{opacity:0.5;fill:#FFFFFF;}
	.st13{fill-rule:evenodd;clip-rule:evenodd;fill:none;stroke:#FFFFFF;stroke-miterlimit:10;}
	.st14{fill:none;stroke:#FFFFFF;stroke-miterlimit:10;}
	.st15{fill:#FFFFFF;stroke:#3B86B1;stroke-width:1.7139;stroke-miterlimit:10;}
	.st16{fill-rule:evenodd;clip-rule:evenodd;}
	.st17{opacity:0.85;fill:#FFFFFF;}
	.st18{opacity:0.5;fill-rule:evenodd;clip-rule:evenodd;}
	.st19{fill-rule:evenodd;clip-rule:evenodd;fill:#FEFEFE;}
	.st20{fill:#312767;}
	.st21{opacity:0.48;}
	.st22{opacity:0.25;}
	.st23{fill-rule:evenodd;clip-rule:evenodd;fill:#020202;}
	.st24{fill:#757575;}
	.st25{opacity:0.25;clip-path:url(#XMLID_4593_);}
	.st26{fill:#FFFFFF;stroke:#312767;stroke-miterlimit:10;}
	.st27{fill-rule:evenodd;clip-rule:evenodd;fill:#312767;}
	.st28{opacity:0.77;fill:#312767;}
	.st29{opacity:0.25;clip-path:url(#XMLID_4598_);}
	.st30{opacity:0.75;}
	.st31{fill-rule:evenodd;clip-rule:evenodd;fill:#282828;}
	.st32{fill:#9490B2;stroke:#2D2D2D;stroke-width:0.25;stroke-miterlimit:10;}
	.st33{fill:#312767;stroke:#2D2D2D;stroke-width:0.25;stroke-miterlimit:10;}
	.st34{fill:#FCFCFC;}
	.st35{fill:#FFFFFF;stroke:#2D2D2D;stroke-width:0.25;stroke-miterlimit:10;}
	.st36{fill-rule:evenodd;clip-rule:evenodd;fill:#484849;stroke:#2D2D2D;stroke-width:0.25;stroke-miterlimit:10;}
	.st37{fill-rule:evenodd;clip-rule:evenodd;fill:#312767;stroke:#2D2D2D;stroke-width:0.25;stroke-miterlimit:10;}
	.st38{fill-rule:evenodd;clip-rule:evenodd;fill:#FFFFFF;stroke:#2D2D2D;stroke-width:0.25;stroke-miterlimit:10;}
	.st39{fill:#484849;stroke:#2D2D2D;stroke-width:0.25;stroke-miterlimit:10;}
	.st40{fill:#FFFFFF;stroke:#FFFFFF;stroke-miterlimit:10;}
	.st41{fill:#54518C;}
	.st42{opacity:0.25;fill-rule:evenodd;clip-rule:evenodd;fill:#FFFFFF;}
	.st43{fill:#D4A800;}
	.st44{fill:#00AEB3;}
	.st45{fill:#38353B;}
	.st46{fill:#FF8400;}
	.st47{fill:#BF3900;}
	.st48{fill:#00AA9C;}
	.st49{opacity:0.25;clip-path:url(#XMLID_4609_);}
	.st50{fill:none;stroke:#ACABC9;stroke-width:5;stroke-miterlimit:10;}
	.st51{fill:#67A53F;}
	.st52{fill:#DDDDDD;}
	.st53{opacity:0.25;clip-path:url(#XMLID_4620_);}
	.st54{fill-rule:evenodd;clip-rule:evenodd;fill:#FFFFFF;stroke:#FFFFFF;stroke-miterlimit:10;}
	.st55{fill:#02897C;}
	.st56{fill:#0EAD9A;}
	.st57{fill:#28C6AF;}
	.st58{fill:#4FE0C7;}
	.st59{opacity:0.25;clip-path:url(#XMLID_4624_);}
	.st60{fill:#3CA7AF;}
	.st61{fill:#3DAD8D;}
	.st62{fill:#296E8C;}
	.st63{fill:#308E71;}
	.st64{fill:#2D8A8C;}
	.st65{opacity:0.25;clip-path:url(#XMLID_4628_);}
	.st66{opacity:0.77;fill:#FFFFFF;}
	.st67{fill:#50565B;stroke:#656C70;stroke-miterlimit:10;}
	.st68{fill:#808589;stroke:#656C70;stroke-miterlimit:10;}
	.st69{fill:#252728;stroke:#000000;stroke-miterlimit:10;}
	.st70{fill:#1A1B1C;stroke:#000000;stroke-miterlimit:10;}
	.st71{fill:#A0A6AA;}
	.st72{fill:#262C35;stroke:#161A1E;stroke-miterlimit:10;}
	.st73{fill:#181D23;}
	.st74{fill:#EABA96;stroke:#E0AA86;stroke-miterlimit:10;}
	.st75{fill:#E0AA86;}
	.st76{stroke:#000000;stroke-width:0.75;stroke-linecap:square;stroke-linejoin:bevel;stroke-miterlimit:10;}
	.st77{fill:#0F1C3F;stroke:#182951;stroke-miterlimit:10;}
	.st78{fill:#132354;stroke:#3F6093;stroke-miterlimit:10;}
	.st79{fill:#0F1C3F;}
	.st80{fill:none;stroke:#3F6093;stroke-width:0.75;stroke-miterlimit:10;}
	.st81{fill:#DBA682;}
	.st82{fill:none;stroke:#E0AA86;stroke-miterlimit:10;}
	.st83{fill:none;stroke:#E0AA86;stroke-linejoin:bevel;stroke-miterlimit:10;}
	.st84{fill:#8A0A8E;stroke:#AC34B2;stroke-miterlimit:10;}
	.st85{fill:#810C87;}
	.st86{fill:#680B6D;}
	.st87{fill:#AC34B2;stroke:#AC34B2;stroke-width:0.5;stroke-miterlimit:10;}
	.st88{fill:none;stroke:#959DA0;stroke-width:0.5;stroke-miterlimit:10;}
	.st89{fill:#959DA0;stroke:#959DA0;stroke-width:0.5;stroke-miterlimit:10;}
	.st90{fill:none;stroke:#AC34B2;stroke-miterlimit:10;}
	.st91{fill:#282828;stroke:#000000;stroke-miterlimit:10;}
	.st92{fill:#EABA96;stroke:#E0AA86;stroke-width:0.5;stroke-miterlimit:10;}
	.st93{fill:#B7896A;}
	.st94{stroke:#000000;stroke-miterlimit:10;}
	.st95{fill:#C1A578;}
	.st96{stroke:#000000;stroke-width:0.25;stroke-linecap:round;stroke-linejoin:round;stroke-miterlimit:10;}
	.st97{fill:#FFFFFF;stroke:#000000;stroke-width:0.25;stroke-linecap:round;stroke-linejoin:round;stroke-miterlimit:10;}
	.st98{fill:#70582D;}
	.st99{stroke:#000000;stroke-linecap:round;stroke-linejoin:round;stroke-miterlimit:10;}
	.st100{fill:none;stroke:#D8A27D;stroke-width:0.75;stroke-miterlimit:10;}
	.st101{fill:#561409;}
	.st102{fill:#BA2A13;}
	.st103{fill:#9E3025;stroke:#4C2311;stroke-width:0.25;stroke-miterlimit:10;}
	.st104{fill:#871D08;stroke:#4C2311;stroke-width:0.25;stroke-miterlimit:10;}
	.st105{fill:#DDAC8A;}
	.st106{fill:#A5ABAD;stroke:#959DA0;stroke-width:0.5;stroke-miterlimit:10;}
	.st107{fill:#B1BABC;}
	.st108{fill:none;stroke:#153847;stroke-width:5;stroke-miterlimit:10;}
	.st109{fill:#3DAA61;}
	.st110{fill:#95A340;}
	.st111{opacity:0.25;clip-path:url(#XMLID_4632_);}
	.st112{opacity:0.25;clip-path:url(#XMLID_4635_);}
	.st113{opacity:0.25;clip-path:url(#XMLID_4636_);}
	.st114{opacity:0.25;clip-path:url(#XMLID_4638_);}
	.st115{opacity:0.25;clip-path:url(#XMLID_4646_);}
	.st116{clip-path:url(#SVGID_2_);}
	.st117{fill:none;stroke:#3F6093;stroke-miterlimit:10;}
	.st118{fill:none;stroke:#3F6093;stroke-width:0.75;stroke-linecap:round;stroke-linejoin:round;}
	.st119{fill:none;stroke:#3F6093;stroke-width:0.75;stroke-linecap:round;stroke-linejoin:round;stroke-dasharray:0.9892,0.9892;}
	
		.st120{fill:none;stroke:#3F6093;stroke-width:0.75;stroke-linecap:round;stroke-linejoin:round;stroke-miterlimit:10;stroke-dasharray:1;}
	.st121{fill:#EAEAEA;stroke:#FFFFFF;stroke-width:0.25;stroke-miterlimit:10;}
	.st122{fill:#D8D8D8;}
	.st123{fill:#282828;stroke:#000000;stroke-width:0.75;stroke-miterlimit:10;}
	.st124{opacity:0.33;fill:#FFFFFF;}
	.st125{fill:none;stroke:#000000;stroke-width:1.5;stroke-linecap:round;stroke-linejoin:round;stroke-miterlimit:10;}
	.st126{opacity:0.64;}
	.st127{fill:#C9C9C9;}
	.st128{fill:#FFF064;}
	.st129{fill:#4F4E4F;}
	.st130{fill:#1E2F47;}
	.st131{opacity:0.1;fill:#FFFFFF;}
	.st132{opacity:0.1;}
	.st133{opacity:0.4;fill:#FFFFFF;}
	.st134{fill-rule:evenodd;clip-rule:evenodd;fill:#F39C12;}
	.st135{fill-rule:evenodd;clip-rule:evenodd;fill:#E6E6E6;}
	.st136{fill-rule:evenodd;clip-rule:evenodd;fill:#474646;}
	.st137{fill-rule:evenodd;clip-rule:evenodd;fill:#D84848;}
	.st138{opacity:0.2;fill-rule:evenodd;clip-rule:evenodd;fill:#231F20;}
	.st139{opacity:0.1;fill-rule:evenodd;clip-rule:evenodd;fill:#231F20;}
	.st140{fill-rule:evenodd;clip-rule:evenodd;fill:#4D4D4D;}
	.st141{fill-rule:evenodd;clip-rule:evenodd;fill:#336699;}
	.st142{fill-rule:evenodd;clip-rule:evenodd;fill:#FF6633;}
	.st143{fill-rule:evenodd;clip-rule:evenodd;fill:#0056A3;}
	.st144{fill-rule:evenodd;clip-rule:evenodd;fill:#33CC99;}
	.st145{fill:#CE6405;}
	.st146{opacity:0.2;fill:#FFFFFF;}
	.st147{fill:#1ABC9C;}
	.st148{opacity:0.2;}
	.st149{fill:#0B2E44;}
	.st150{fill-rule:evenodd;clip-rule:evenodd;fill:#154F77;}
	.st151{fill-rule:evenodd;clip-rule:evenodd;fill:#0D3858;}
	.st152{fill-rule:evenodd;clip-rule:evenodd;fill:#FFFEFE;}
	.st153{fill:#AEC647;}
	.st154{fill:#F3AE1B;}
	.st155{fill:#DF3F11;}
	.st156{fill:#BCDEDE;}
	.st157{fill:#C84119;}
	.st158{fill:#6BB5CE;}
	.st159{fill:#00D0E5;}
	.st160{fill:#FF81ED;}
	.st161{fill:#00C982;}
	.st162{opacity:0.7;}
	.st163{opacity:0.4;}
	.st164{fill-rule:evenodd;clip-rule:evenodd;fill:#0B2E44;}
	.st165{opacity:0.8;fill-rule:evenodd;clip-rule:evenodd;fill:#FFFFFF;}
	.st166{fill:#424242;}
	.st167{opacity:0.2;fill-rule:evenodd;clip-rule:evenodd;fill:#FFFFFF;}
	.st168{fill:#D0EDFA;}
	.st169{fill:#FF651F;}
	.st170{fill:#0051C4;}
	.st171{fill:#E46400;}
	.st172{fill:#C0003B;}
	.st173{fill:#FFEA50;}
	.st174{fill:#FF2C0D;}
	.st175{fill:#FF1A2C;}
	.st176{fill:#FF2C4D;}
	.st177{fill:#FFD74C;}
	.st178{fill:#4C4C4B;}
	.st179{fill:#6CD2EA;}
	.st180{fill:#F7674F;}
	.st181{opacity:0.1;fill-rule:evenodd;clip-rule:evenodd;}
	.st182{fill:#BABABA;}
	.st183{fill:#F9B946;}
	.st184{fill:#DFC2A9;}
	.st185{fill:#BFA490;}
	.st186{fill:#F5D4B2;}
	.st187{fill:#DF584C;}
	.st188{fill:#C2443E;}
	.st189{fill:#DBDBDA;}
	.st190{fill:#2F363E;}
	.st191{fill:#332524;}
	.st192{fill:#473735;}
	.st193{opacity:0.25;clip-path:url(#XMLID_4647_);}
	.st194{fill:#153847;}
	.st195{fill:#52B8BA;}
	.st196{fill:#35373E;}
	.st197{fill:#D37D00;}
	.st198{opacity:0.25;clip-path:url(#XMLID_4648_);}
	.st199{opacity:0.31;fill:#34383A;}
	.st200{opacity:0.16;fill:#3D3835;}
	.st201{fill:#D0D1D4;}
	.st202{opacity:0.31;}
	.st203{fill:#34383A;}
	.st204{opacity:0.16;}
	.st205{fill:#3D3835;}
	.st206{opacity:0.25;clip-path:url(#XMLID_4649_);}
	.st207{fill:#F9E1B4;}
	.st208{opacity:0.25;fill:#050505;}
	.st209{fill:#FCC60F;}
	.st210{fill:#74CAEA;}
	.st211{fill:#050505;}
	.st212{opacity:0.25;clip-path:url(#XMLID_4650_);}
	.st213{fill:#FABC8F;}
	.st214{fill:#3FA995;}
	.st215{opacity:0.17;fill:#020202;}
	.st216{fill:#E1E1E1;}
	.st217{opacity:0.17;}
	.st218{fill:#020202;}
	.st219{opacity:0.25;clip-path:url(#XMLID_4651_);}
	.st220{fill:#BF8E00;}
	.st221{fill:#F7D8D7;}
	.st222{fill:#F18636;}
	.st223{fill:#004460;}
	.st224{fill:#D93A37;}
	.st225{fill:#EDEDED;}
	.st226{fill:#184F78;}
	.st227{fill:#FF3E03;}
	.st228{opacity:0.6;fill:#0F0F0F;}
	.st229{fill:#E8E8E6;}
	.st230{fill:#00EAA6;}
	.st231{fill-rule:evenodd;clip-rule:evenodd;fill:#FF3E03;}
	.st232{opacity:0.1;fill-rule:evenodd;clip-rule:evenodd;fill:#020202;}
	.st233{fill-rule:evenodd;clip-rule:evenodd;fill:#FABE00;}
	.st234{fill-rule:evenodd;clip-rule:evenodd;fill:#E6E8E8;}
	.st235{fill-rule:evenodd;clip-rule:evenodd;fill:#F7D959;}
	.st236{fill-rule:evenodd;clip-rule:evenodd;fill:#F9623E;}
	.st237{fill:#4F1A0F;}
	.st238{opacity:0.46;fill:#FFFFFF;}
	.st239{fill:#48505A;}
	.st240{fill:#C3C3C3;}
	.st241{fill:#E9E9EA;}
	.st242{fill:#9D9E9F;}
	.st243{fill:#F6F4F4;}
	.st244{fill:#6B6A6A;}
	.st245{fill:#C09478;}
	.st246{fill:#F7CDA0;}
	.st247{fill:#9E1010;}
	.st248{fill:#F2F2F2;}
	.st249{opacity:0.2;fill:#060606;}
	.st250{fill:#16AFBE;}
	.st251{fill:#DD2222;}
	.st252{fill:#FFEDDC;}
	.st253{fill:#22272B;}
	.st254{fill:#5B6375;}
	.st255{fill:#F79748;}
	.st256{fill:#FF7900;}
	.st257{fill:#DD7105;}
</style>
<g>
	<path class="st4" d="M402.3547,99.4825H21.1617C9.4744,99.4825,0,90.008,0,78.3207V28.8815C0,17.1942,9.4744,7.7198,21.1617,7.7198
		h381.1929c11.6873,0,21.1617,9.4744,21.1617,21.1617v49.4392C423.5164,90.008,414.042,99.4825,402.3547,99.4825z"/>
	<g>
		<path class="st62" d="M0,28.3815v27.3542l0.4231,0.3849c0.8105,1.2082,2.0056,1.6158,3.2163,1.6158
			c0.8105,0,1.6106-0.4077,2.4111-0.8l5.6321-4.0295c0.7954,0.405,2.001,0.8105,2.8062,1.2055l1.5854,6.8304
			c0.4048,2.0108,2.0313,3.6113,4.042,3.6113h6.0278c2.4058,0,4.0063-1.6005,4.4111-3.6113l1.606-6.8304
			c0.8105-0.395,1.5952-0.8005,2.8213-1.2055l5.6116,4.0295c0.8005,0.3924,1.6111,0.8,2.4111,0.8
			c1.2004,0,2.4111-0.4077,3.2012-1.6158l4.4319-4.0137c1.1956-1.6031,1.6006-4.0168,0.395-5.6253l-4.0164-5.6222
			c0.79-1.2029,0.79-2.0029,1.2107-3.2084l6.8276-1.2082c2.0056-0.3924,3.6116-2.0108,3.6116-4.4193v-6.0277
			c0-2.0029-1.606-3.6113-3.6116-4.0137l-6.8276-1.6031c-0.4207-0.8079-0.4207-2.0161-1.2107-2.8161l4.0164-5.6174
			c0.8765-1.4618,0.8945-2.9202,0.3835-4.2256H20.6616C9.2505,7.7198,0,16.9703,0,28.3815z M34.9824,19.1681
			c2.4058,2.814,3.6008,6.0303,3.6008,10.0467c0,0.4029,0,0.4029,0,0.8005c-0.405,8.0333-6.8376,14.4659-15.2712,14.4659
			c-5.2065,0-9.6284-2.4111-12.4399-6.0324c-0.4102-0.4003-0.4102-0.7979-0.8105-1.2056c-1.2102-2.4037-2.4004-5.2198-2.4004-8.0285
			c0-8.433,7.2227-15.6663,15.6509-15.6663C28.1443,13.5485,32.1611,15.9597,34.9824,19.1681z"/>
		<path class="st62" d="M18.5103,34.0244c1.2009,1.2103,2.7964,2.026,4.8018,2.026c2.832,0,5.2378-1.6184,6.4329-4.4219
			c0.4055-0.8079,0.4055-1.6132,0.4055-2.4137c0-2.0056-0.4055-3.624-1.6006-4.819c-1.2056-1.2081-3.2217-2.0113-5.2378-2.0113
			c-4.001,0-6.833,2.814-6.833,6.8303c0,1.2029,0.4104,2.8087,1.2261,4.009C17.7051,33.2238,18.1055,33.632,18.5103,34.0244z"/>
	</g>
	<g id="Lamp_3_">
		<path class="st128" d="M403.4372,29.6516c-2.0725-0.8164-20.6442-7.4621-28.2697,13.3023
			c-3.002,8.1784,2.114,29.2593,2.114,29.2593l9.1543,3.3462l0.3899,0.1425l9.1557,3.3467c0,0,17.5049-12.8123,20.4833-20.9994
			C424.0306,37.263,405.5495,30.3649,403.4372,29.6516z"/>
		<g>
			<path class="st129" d="M389.0312,77.1499c0.0044-0.0412,0.5656-4.1914,3.1167-11.3703c0.7381-2.0727,1.4828-3.5833,2.2272-4.5181
				c-0.49-0.0882-1.0219-0.2666-1.5623-0.5836c-0.4109-0.2411-0.6229-0.52-0.7261-0.7788c-0.6272,0.1898-1.3563,0.1602-2.0555,0.01
				c0.0311,0.1199,0.0623,0.249,0.095,0.3839c0.6378,2.8003-4.8155,14.8515-5.0489,15.3635l-0.5658-0.2568
				c1.558-3.4328,5.4985-12.8136,5.0079-14.9683c-0.063-0.2762-0.1294-0.5145-0.1971-0.7192
				c-0.1457-0.0498-0.2853-0.1024-0.4198-0.1588c-1.1976-0.4985-1.1289-0.8619-1.107-0.9804c0.054-0.2942,0.3484-0.6019,0.7455-0.61
				c0.3716-0.007,0.8551,0.2305,1.2599,1.2448c0.415,0.1177,0.8805,0.2007,1.3414,0.198c0.3305-0.0022,0.6206-0.0496,0.8673-0.1394
				c0.0034-0.0094,0.0038-0.02,0.0056-0.03c0.1089-0.6929,0.7315-1.2748,1.0963-1.3554c0.1808-0.0409,0.3464,0.018,0.4382,0.1567
				c0.1478,0.2198,0.0684,0.5152-0.2792,1.0176c-0.1694,0.2483-0.3794,0.4424-0.6151,0.5897
				c0.0648,0.1841,0.2204,0.348,0.4715,0.4951c0.6273,0.3665,1.2358,0.5213,1.7695,0.5631c0.3339-0.2989,0.6675-0.4799,1.0015-0.545
				c0.5789-0.1112,1.008,0.1687,1.1689,0.3524l0.2746,0.3124l-0.3782,0.1757c-0.0493,0.0229-0.7861,0.356-1.8311,0.3377
				c-0.6219,0.6428-1.4434,1.9684-2.3976,4.6521c-2.5281,7.1159-3.0817,11.2012-3.0871,11.2402L389.0312,77.1499z M388.4601,58.6181
				c0.0976,0.0747,0.2648,0.1733,0.4843,0.2749c-0.1563-0.2264-0.298-0.3068-0.39-0.3084
				C388.5182,58.5859,388.4852,58.5987,388.4601,58.6181z"/>
		</g>
		<path class="st130" d="M377.2814,72.2133l-3.6077,9.8698c-0.4719,1.291,0.1444,2.7018,1.3743,3.1513l14.2416,5.2057
			c1.233,0.4507,2.6121-0.2306,3.084-1.5217l3.6077-9.8698L377.2814,72.2133z"/>
		<g>
			<path class="st131" d="M395.4296,80.5584c-0.1276,0.3491-0.5491,0.5175-0.9393,0.3749l-17.283-6.3174
				c-0.3932-0.1437-0.6053-0.5438-0.4777-0.8929l0,0c0.1276-0.3491,0.5472-0.5167,0.9404-0.3729l17.283,6.3174
				C395.3432,79.8101,395.5572,80.2092,395.4296,80.5584L395.4296,80.5584z"/>
			<path class="st131" d="M394.5041,83.0902c-0.1282,0.3508-0.5492,0.5178-0.9394,0.3752l-17.283-6.3174
				c-0.3932-0.1437-0.6059-0.5423-0.4777-0.8931l0,0c0.1276-0.3491,0.5472-0.5167,0.9404-0.3729l17.283,6.3174
				C394.4177,82.3419,394.6317,82.7411,394.5041,83.0902L394.5041,83.0902z"/>
			<path class="st131" d="M393.5781,85.6237c-0.1276,0.3491-0.5486,0.5161-0.9388,0.3735l-17.283-6.3174
				c-0.3932-0.1437-0.6059-0.5424-0.4782-0.8915l0,0c0.1282-0.3508,0.5478-0.5183,0.941-0.3746l17.283,6.3174
				C393.4922,84.8738,393.7063,85.2729,393.5781,85.6237L393.5781,85.6237z"/>
			<path class="st131" d="M392.6526,88.1555c-0.1276,0.3491-0.5486,0.5161-0.9388,0.3735l-17.283-6.3174
				c-0.3932-0.1437-0.6059-0.5423-0.4782-0.8915l0,0c0.1281-0.3505,0.5477-0.5181,0.9409-0.3743l17.283,6.3174
				C392.5667,87.4059,392.7807,87.805,392.6526,88.1555L392.6526,88.1555z"/>
			<path class="st132" d="M394.9669,81.8242c-0.1282,0.3508-0.5492,0.5178-0.9394,0.3752l-17.283-6.3174
				c-0.3932-0.1437-0.6059-0.5423-0.4777-0.8931l0,0c0.1276-0.3491,0.5472-0.5167,0.9404-0.3729l17.283,6.3174
				C394.8805,81.0759,395.0945,81.475,394.9669,81.8242L394.9669,81.8242z"/>
			<path class="st132" d="M394.0414,84.3562c-0.1281,0.3505-0.5491,0.5176-0.9393,0.3749l-17.283-6.3174
				c-0.3932-0.1437-0.6059-0.5424-0.4777-0.8929l0,0c0.1276-0.3491,0.5472-0.5167,0.9404-0.3729l17.283,6.3174
				C393.9549,83.608,394.169,84.0071,394.0414,84.3562L394.0414,84.3562z"/>
			<path class="st132" d="M393.1153,86.8897c-0.1276,0.3491-0.5486,0.5161-0.9388,0.3735l-17.283-6.3174
				c-0.3932-0.1437-0.6059-0.5424-0.4782-0.8915l0,0c0.1276-0.3491,0.5478-0.5183,0.941-0.3746l17.283,6.3174
				C393.0295,86.1398,393.2429,86.5406,393.1153,86.8897L393.1153,86.8897z"/>
			<path class="st132" d="M392.1898,89.4216c-0.1276,0.3491-0.5492,0.5178-0.9394,0.3752l-17.283-6.3174
				c-0.3932-0.1437-0.6053-0.544-0.4776-0.8931l0,0c0.1276-0.3491,0.5478-0.5183,0.941-0.3746l17.283,6.3174
				C392.104,88.6717,392.3174,89.0725,392.1898,89.4216L392.1898,89.4216z"/>
		</g>
		<path class="st132" d="M409.0042,32.4674c0.5367,7.691,0.3482,29.7298-17.0776,45.1401l4.0416,1.4773
			c0,0,17.5055-12.814,20.4833-20.9994C421.6234,43.8777,414.6256,36.1587,409.0042,32.4674z"/>
		
			<ellipse transform="matrix(0.0122 -0.9999 0.9999 0.0122 336.2702 426.3842)" class="st133" cx="383.9456" cy="42.992" rx="2.2548" ry="3.4239"/>
		
			<ellipse transform="matrix(0.0122 -0.9999 0.9999 0.0122 350.1402 426.9437)" class="st133" cx="391.1578" cy="36.2564" rx="4.3512" ry="6.6073"/>
		<g>
			<polygon class="st128" points="378.2227,0.3382 379.0774,0 390.0204,24.0915 389.1674,24.4302 			"/>
			<polygon class="st128" points="350.2183,18.4547 350.6449,17.6586 374.5432,30.0398 374.1175,30.8343 			"/>
			<polygon class="st128" points="342.5484,42.5207 342.674,41.6253 369.2237,45.8657 369.0986,46.7596 			"/>
			<polygon class="st128" points="439.5992,22.773 439.1643,21.9634 415.2641,33.3187 415.6993,34.1284 			"/>
			<polygon class="st128" points="450.5716,56.6269 450.76,55.7456 424.5109,49.7947 424.3236,50.6782 			"/>
			<polygon class="st128" points="441.4146,76.4109 441.8968,75.6477 418.8715,61.7654 418.3887,62.5303 			"/>
			<polygon class="st128" points="405.7575,25.1285 404.862,24.8172 413.177,0.5967 414.0728,0.9062 			"/>
		</g>
	</g>
</g>
</svg>
