<?xml version="1.0" encoding="utf-8"?>
<!-- Generator: Adobe Illustrator 21.0.2, SVG Export Plug-In . SVG Version: 6.00 Build 0)  -->
<svg version="1.1" id="Capa_1" xmlns="http://www.w3.org/2000/svg" xmlns:xlink="http://www.w3.org/1999/xlink" x="0px" y="0px"
	 viewBox="0 0 368.6572 49.5918" style="enable-background:new 0 0 368.6572 49.5918;" xml:space="preserve">
<style type="text/css">
	.st0{fill-rule:evenodd;clip-rule:evenodd;fill:#DDDDDD;}
	.st1{fill:#3B86B1;}
	.st2{opacity:0.25;fill-rule:evenodd;clip-rule:evenodd;fill:#020202;}
	.st3{fill:#FFFFFF;}
	.st4{opacity:0.5;}
	.st5{fill-rule:evenodd;clip-rule:evenodd;fill:#A8A8A8;}
	.st6{fill-rule:evenodd;clip-rule:evenodd;fill:#FFFFFF;}
	.st7{fill-rule:evenodd;clip-rule:evenodd;fill:#3B86B1;}
	.st8{opacity:0.5;fill:#2C6882;}
	.st9{opacity:0.75;fill-rule:evenodd;clip-rule:evenodd;fill:#282828;}
	.st10{opacity:0.5;fill:#FFFFFF;}
	.st11{fill-rule:evenodd;clip-rule:evenodd;fill:none;stroke:#FFFFFF;stroke-miterlimit:10;}
	.st12{fill:none;stroke:#FFFFFF;stroke-miterlimit:10;}
	.st13{fill:#FFFFFF;stroke:#3B86B1;stroke-width:1.7139;stroke-miterlimit:10;}
	.st14{fill-rule:evenodd;clip-rule:evenodd;}
	.st15{opacity:0.85;fill:#FFFFFF;}
	.st16{opacity:0.5;fill-rule:evenodd;clip-rule:evenodd;}
	.st17{fill-rule:evenodd;clip-rule:evenodd;fill:#FEFEFE;}
	.st18{fill:#312767;}
	.st19{opacity:0.48;}
	.st20{opacity:0.25;}
	.st21{fill-rule:evenodd;clip-rule:evenodd;fill:#020202;}
	.st22{fill:#757575;}
	.st23{opacity:0.25;clip-path:url(#XMLID_2396_);}
	.st24{fill:#4D4789;}
	.st25{fill:#FFFFFF;stroke:#312767;stroke-miterlimit:10;}
	.st26{fill:#3B86B1;stroke:#3B86B1;stroke-miterlimit:10;}
	.st27{fill:#FFFFFF;stroke:#FFFFFF;stroke-miterlimit:10;}
	.st28{fill:#ACABC9;}
	.st29{fill-rule:evenodd;clip-rule:evenodd;fill:#312767;}
	.st30{opacity:0.77;fill:#312767;}
	.st31{opacity:0.25;clip-path:url(#XMLID_2397_);}
	.st32{fill:#9490B2;stroke:#2D2D2D;stroke-width:0.25;stroke-miterlimit:10;}
	.st33{fill:#312767;stroke:#2D2D2D;stroke-width:0.25;stroke-miterlimit:10;}
	.st34{fill:#FCFCFC;}
	.st35{fill:#FFFFFF;stroke:#2D2D2D;stroke-width:0.25;stroke-miterlimit:10;}
	.st36{fill-rule:evenodd;clip-rule:evenodd;fill:#484849;stroke:#2D2D2D;stroke-width:0.25;stroke-miterlimit:10;}
	.st37{fill-rule:evenodd;clip-rule:evenodd;fill:#312767;stroke:#2D2D2D;stroke-width:0.25;stroke-miterlimit:10;}
	.st38{fill-rule:evenodd;clip-rule:evenodd;fill:#FFFFFF;stroke:#2D2D2D;stroke-width:0.25;stroke-miterlimit:10;}
	.st39{fill:#484849;stroke:#2D2D2D;stroke-width:0.25;stroke-miterlimit:10;}
	.st40{fill:#54518C;}
	.st41{opacity:0.25;fill-rule:evenodd;clip-rule:evenodd;fill:#FFFFFF;}
	.st42{fill:#D4A800;}
	.st43{fill:#00AEB3;}
	.st44{fill:#38353B;}
	.st45{fill:#FF8400;}
	.st46{fill:#BF3900;}
	.st47{fill:#00AA9C;}
	.st48{opacity:0.25;clip-path:url(#XMLID_2400_);}
	.st49{fill:none;stroke:#ACABC9;stroke-width:5;stroke-miterlimit:10;}
	.st50{opacity:0.25;clip-path:url(#XMLID_2403_);}
	.st51{fill:#DDDDDD;}
	.st52{opacity:0.25;fill-rule:evenodd;clip-rule:evenodd;fill:#FFFFFF;stroke:#303030;stroke-width:0.5;stroke-miterlimit:10;}
	.st53{fill:#3B86B1;stroke:#303030;stroke-width:0.5;stroke-miterlimit:10;}
	.st54{fill:#D4A800;stroke:#303030;stroke-width:0.5;stroke-miterlimit:10;}
	.st55{fill:#00AEB3;stroke:#303030;stroke-width:0.5;stroke-miterlimit:10;}
	.st56{fill:#FF8400;stroke:#303030;stroke-width:0.5;stroke-miterlimit:10;}
	.st57{fill:#BF3900;stroke:#303030;stroke-width:0.5;stroke-miterlimit:10;}
	.st58{fill:#00AA9C;stroke:#303030;stroke-width:0.5;stroke-miterlimit:10;}
	.st59{opacity:0.25;clip-path:url(#XMLID_2404_);}
	.st60{fill-rule:evenodd;clip-rule:evenodd;fill:#FFFFFF;stroke:#FFFFFF;stroke-miterlimit:10;}
	.st61{fill:#F79748;}
	.st62{fill:#FF7900;}
	.st63{fill:#DD7105;}
	.st64{fill:#02897C;}
	.st65{fill:#0EAD9A;}
	.st66{fill:#28C6AF;}
	.st67{fill:#4FE0C7;}
	.st68{fill:#00AA9C;stroke:#353535;stroke-width:0.5;stroke-miterlimit:10;}
	.st69{fill:#02897C;stroke:#353535;stroke-width:0.5;stroke-miterlimit:10;}
	.st70{fill:#0EAD9A;stroke:#353535;stroke-width:0.5;stroke-miterlimit:10;}
	.st71{fill:#28C6AF;stroke:#353535;stroke-width:0.5;stroke-miterlimit:10;}
	.st72{fill:#4FE0C7;stroke:#353535;stroke-width:0.5;stroke-miterlimit:10;}
	.st73{fill:#D37D00;}
	.st74{fill:#D14600;}
	.st75{fill:#E5B92E;}
	.st76{fill:#DD571B;}
	.st77{fill:#E28A17;}
	.st78{opacity:0.25;clip-path:url(#XMLID_2410_);}
	.st79{opacity:0.77;fill:#FFFFFF;}
	.st80{fill:#50565B;stroke:#656C70;stroke-miterlimit:10;}
	.st81{fill:#808589;stroke:#656C70;stroke-miterlimit:10;}
	.st82{fill:#252728;stroke:#000000;stroke-miterlimit:10;}
	.st83{fill:#1A1B1C;stroke:#000000;stroke-miterlimit:10;}
	.st84{fill:#A0A6AA;}
	.st85{fill:#262C35;stroke:#161A1E;stroke-miterlimit:10;}
	.st86{fill:#181D23;}
	.st87{fill:#EABA96;stroke:#E0AA86;stroke-miterlimit:10;}
	.st88{fill:#E0AA86;}
	.st89{stroke:#000000;stroke-width:0.75;stroke-linecap:square;stroke-linejoin:bevel;stroke-miterlimit:10;}
	.st90{fill:#0F1C3F;stroke:#182951;stroke-miterlimit:10;}
	.st91{fill:#132354;stroke:#3F6093;stroke-miterlimit:10;}
	.st92{fill:#0F1C3F;}
	.st93{fill:none;stroke:#3F6093;stroke-width:0.75;stroke-miterlimit:10;}
	.st94{fill:#DBA682;}
	.st95{fill:none;stroke:#E0AA86;stroke-miterlimit:10;}
	.st96{fill:none;stroke:#E0AA86;stroke-linejoin:bevel;stroke-miterlimit:10;}
	.st97{fill:#8A0A8E;stroke:#AC34B2;stroke-miterlimit:10;}
	.st98{fill:#810C87;}
	.st99{fill:#680B6D;}
	.st100{fill:#AC34B2;stroke:#AC34B2;stroke-width:0.5;stroke-miterlimit:10;}
	.st101{fill:none;stroke:#959DA0;stroke-width:0.5;stroke-miterlimit:10;}
	.st102{fill:#959DA0;stroke:#959DA0;stroke-width:0.5;stroke-miterlimit:10;}
	.st103{fill:none;stroke:#AC34B2;stroke-miterlimit:10;}
	.st104{fill:#282828;stroke:#000000;stroke-miterlimit:10;}
	.st105{fill:#EABA96;stroke:#E0AA86;stroke-width:0.5;stroke-miterlimit:10;}
	.st106{fill:#B7896A;}
	.st107{stroke:#000000;stroke-miterlimit:10;}
	.st108{fill:#C1A578;}
	.st109{stroke:#000000;stroke-width:0.25;stroke-linecap:round;stroke-linejoin:round;stroke-miterlimit:10;}
	.st110{fill:#FFFFFF;stroke:#000000;stroke-width:0.25;stroke-linecap:round;stroke-linejoin:round;stroke-miterlimit:10;}
	.st111{fill:#70582D;}
	.st112{stroke:#000000;stroke-linecap:round;stroke-linejoin:round;stroke-miterlimit:10;}
	.st113{fill:none;stroke:#D8A27D;stroke-width:0.75;stroke-miterlimit:10;}
	.st114{fill:#561409;}
	.st115{fill:#BA2A13;}
	.st116{fill:#9E3025;stroke:#4C2311;stroke-width:0.25;stroke-miterlimit:10;}
	.st117{fill:#871D08;stroke:#4C2311;stroke-width:0.25;stroke-miterlimit:10;}
	.st118{fill:#DDAC8A;}
	.st119{fill:#A5ABAD;stroke:#959DA0;stroke-width:0.5;stroke-miterlimit:10;}
	.st120{fill:#B1BABC;}
	.st121{fill:none;stroke:#153847;stroke-width:5;stroke-miterlimit:10;}
	.st122{fill:#3CA7AF;}
	.st123{fill:#3DAD8D;}
	.st124{fill:#3DAA61;}
	.st125{fill:#67A53F;}
	.st126{fill:#95A340;}
	.st127{opacity:0.25;clip-path:url(#XMLID_2411_);}
	.st128{opacity:0.25;clip-path:url(#XMLID_2416_);}
	.st129{fill:#F79748;stroke:#303030;stroke-width:0.5;stroke-miterlimit:10;}
	.st130{fill:#FF7900;stroke:#303030;stroke-width:0.5;stroke-miterlimit:10;}
	.st131{fill:#DD7105;stroke:#303030;stroke-width:0.5;stroke-miterlimit:10;}
	.st132{opacity:0.25;clip-path:url(#XMLID_2422_);}
	.st133{clip-path:url(#SVGID_2_);}
	.st134{fill:none;stroke:#3F6093;stroke-miterlimit:10;}
	.st135{fill:none;stroke:#3F6093;stroke-width:0.75;stroke-linecap:round;stroke-linejoin:round;}
	.st136{fill:none;stroke:#3F6093;stroke-width:0.75;stroke-linecap:round;stroke-linejoin:round;stroke-dasharray:0.9892,0.9892;}
	
		.st137{fill:none;stroke:#3F6093;stroke-width:0.75;stroke-linecap:round;stroke-linejoin:round;stroke-miterlimit:10;stroke-dasharray:1;}
	.st138{fill:#EAEAEA;stroke:#FFFFFF;stroke-width:0.25;stroke-miterlimit:10;}
	.st139{fill:#D8D8D8;}
	.st140{fill:#282828;stroke:#000000;stroke-width:0.75;stroke-miterlimit:10;}
	.st141{opacity:0.33;fill:#FFFFFF;}
	.st142{fill:none;stroke:#000000;stroke-width:1.5;stroke-linecap:round;stroke-linejoin:round;stroke-miterlimit:10;}
	.st143{clip-path:url(#SVGID_4_);}
	.st144{opacity:0.64;}
	.st145{fill:#1D1D1B;}
	.st146{fill:#C9C9C9;}
	.st147{fill:#545477;}
	.st148{fill:#FFF064;}
	.st149{fill:#4F4E4F;}
	.st150{fill:#1E2F47;}
	.st151{opacity:0.1;fill:#FFFFFF;}
	.st152{opacity:0.1;}
	.st153{opacity:0.4;fill:#FFFFFF;}
	.st154{fill-rule:evenodd;clip-rule:evenodd;fill:#F39C12;}
	.st155{fill-rule:evenodd;clip-rule:evenodd;fill:#E6E6E6;}
	.st156{fill-rule:evenodd;clip-rule:evenodd;fill:#474646;}
	.st157{fill-rule:evenodd;clip-rule:evenodd;fill:#D84848;}
	.st158{opacity:0.2;fill-rule:evenodd;clip-rule:evenodd;fill:#231F20;}
	.st159{opacity:0.1;fill-rule:evenodd;clip-rule:evenodd;fill:#231F20;}
	.st160{fill-rule:evenodd;clip-rule:evenodd;fill:#4D4D4D;}
	.st161{fill-rule:evenodd;clip-rule:evenodd;fill:#336699;}
	.st162{fill-rule:evenodd;clip-rule:evenodd;fill:#FF6633;}
	.st163{fill-rule:evenodd;clip-rule:evenodd;fill:#0056A3;}
	.st164{fill-rule:evenodd;clip-rule:evenodd;fill:#33CC99;}
	.st165{fill:#CE6405;}
	.st166{opacity:0.2;fill:#FFFFFF;}
	.st167{fill:#1ABC9C;}
	.st168{opacity:0.2;}
	.st169{fill:#0B2E44;}
	.st170{fill-rule:evenodd;clip-rule:evenodd;fill:#154F77;}
	.st171{fill-rule:evenodd;clip-rule:evenodd;fill:#0D3858;}
	.st172{fill-rule:evenodd;clip-rule:evenodd;fill:#FFFEFE;}
	.st173{fill:#AEC647;}
	.st174{fill:#F3AE1B;}
	.st175{fill:#DF3F11;}
	.st176{fill:#BCDEDE;}
	.st177{fill:#C84119;}
	.st178{fill:#6BB5CE;}
	.st179{fill:#00D0E5;}
	.st180{fill:#FF81ED;}
	.st181{fill:#00C982;}
	.st182{opacity:0.7;}
	.st183{opacity:0.4;}
	.st184{fill-rule:evenodd;clip-rule:evenodd;fill:#0B2E44;}
	.st185{opacity:0.8;fill-rule:evenodd;clip-rule:evenodd;fill:#FFFFFF;}
	.st186{fill:#424242;}
	.st187{opacity:0.2;fill-rule:evenodd;clip-rule:evenodd;fill:#FFFFFF;}
	.st188{fill:#D0EDFA;}
	.st189{fill:#FF651F;}
	.st190{fill:#0051C4;}
	.st191{fill:#E46400;}
	.st192{fill:#C0003B;}
	.st193{fill:#FFEA50;}
	.st194{fill:#FF2C0D;}
	.st195{fill:#FF1A2C;}
	.st196{fill:#FF2C4D;}
	.st197{fill:#FFD74C;}
	.st198{fill:#4C4C4B;}
	.st199{fill:#6CD2EA;}
	.st200{fill:#F7674F;}
	.st201{opacity:0.1;fill-rule:evenodd;clip-rule:evenodd;}
	.st202{fill:#BABABA;}
	.st203{fill:#F9B946;}
</style>
<g>
	<path class="st24" d="M11.7119,18.4424c-0.2686,0.625-0.6377,1.1719-1.1064,1.6406s-1.0156,0.8379-1.6406,1.1064
		s-1.2939,0.4023-2.0068,0.4023H5.4639c-0.7129,0-1.3838-0.1338-2.0137-0.4023s-1.1797-0.6377-1.6484-1.1064
		s-0.8369-1.0156-1.1055-1.6406S0.293,17.1484,0.293,16.4355V5.1563c0-0.7129,0.1348-1.3818,0.4033-2.0068
		S1.333,1.9775,1.8018,1.5088s1.0186-0.8369,1.6484-1.1055S4.751,0,5.4639,0H6.958c0.7129,0,1.3818,0.1348,2.0068,0.4033
		s1.1719,0.6367,1.6406,1.1055s0.8379,1.0156,1.1064,1.6406s0.4023,1.2939,0.4023,2.0068v0.8496l-1.8896,0.293V5.1563
		c0-0.4688-0.0879-0.9053-0.2637-1.3105s-0.415-0.7598-0.7178-1.0625s-0.6563-0.542-1.0615-0.7178S7.3389,1.8018,6.8701,1.8018
		H5.5518c-0.4688,0-0.9053,0.0879-1.3105,0.2637s-0.7617,0.415-1.0693,0.7178S2.6221,3.4404,2.4463,3.8457
		S2.1826,4.6875,2.1826,5.1563v11.2793c0,0.4688,0.0879,0.9063,0.2637,1.3115s0.418,0.7617,0.7256,1.0693
		s0.6641,0.5488,1.0693,0.7246s0.8418,0.2637,1.3105,0.2637h1.3184c0.4688,0,0.9063-0.0879,1.3115-0.2637
		s0.7588-0.417,1.0615-0.7246s0.542-0.6641,0.7178-1.0693s0.2637-0.8428,0.2637-1.3115V15.293l1.8896,0.3076v0.835
		C12.1143,17.1484,11.9805,17.8174,11.7119,18.4424z"/>
	<path class="st24" d="M25.3936,18.8965c-0.2295,0.5371-0.5449,1.0059-0.9453,1.4063s-0.8691,0.7158-1.4063,0.9453
		s-1.1084,0.3438-1.7139,0.3438H20.127c-0.6055,0-1.1768-0.1143-1.7139-0.3438s-1.0059-0.5449-1.4063-0.9453
		s-0.7148-0.8691-0.9443-1.4063s-0.3447-1.1084-0.3447-1.7139V10.415c0-0.6055,0.1152-1.1768,0.3447-1.7139
		s0.5439-1.0059,0.9443-1.4063s0.8691-0.7148,1.4063-0.9443s1.1084-0.3447,1.7139-0.3447h1.2012
		c0.6055,0,1.1768,0.1152,1.7139,0.3447s1.0059,0.5439,1.4063,0.9443s0.7158,0.8691,0.9453,1.4063s0.3438,1.1084,0.3438,1.7139
		v6.7676C25.7373,17.7881,25.623,18.3594,25.3936,18.8965z M23.9355,10.3125c0-0.3613-0.0684-0.7002-0.2051-1.0176
		s-0.3223-0.5938-0.5566-0.8281s-0.5098-0.4199-0.8271-0.5566s-0.6572-0.2051-1.0186-0.2051H20.127
		c-0.3613,0-0.7002,0.0684-1.0176,0.2051s-0.5938,0.3223-0.8281,0.5566s-0.4199,0.5107-0.5566,0.8281s-0.2051,0.6563-0.2051,1.0176
		v6.9727c0,0.3613,0.0684,0.7012,0.2051,1.0186s0.3223,0.5928,0.5566,0.8271s0.5107,0.4199,0.8281,0.5566
		s0.6563,0.2051,1.0176,0.2051h1.2012c0.3613,0,0.7012-0.0684,1.0186-0.2051s0.5928-0.3223,0.8271-0.5566
		s0.4199-0.5098,0.5566-0.8271s0.2051-0.6572,0.2051-1.0186V10.3125z"/>
	<path class="st24" d="M45.1758,21.2988V10.3125c0-0.3613-0.0684-0.7002-0.2051-1.0176s-0.3223-0.5938-0.5566-0.8281
		s-0.5098-0.4199-0.8271-0.5566s-0.6572-0.2051-1.0186-0.2051h-0.8936c-0.3613,0-0.7002,0.0684-1.0176,0.2051
		s-0.5957,0.3223-0.835,0.5566s-0.4277,0.5107-0.5645,0.8281s-0.2051,0.6563-0.2051,1.0176v10.9863h-1.7871V10.3125
		c0-0.3613-0.0684-0.7002-0.2051-1.0176s-0.3242-0.5938-0.5635-0.8281s-0.5176-0.4199-0.835-0.5566s-0.6572-0.2051-1.0186-0.2051
		H33.75c-0.3613,0-0.7002,0.0684-1.0176,0.2051s-0.5938,0.3223-0.8281,0.5566s-0.4199,0.5107-0.5566,0.8281
		s-0.2051,0.6563-0.2051,1.0176v10.9863h-1.8018v-15h0.6006l0.9814,1.5234c0.4102-0.5566,0.9258-0.998,1.5459-1.3252
		s1.2959-0.4912,2.0283-0.4912h0.1465c0.8496,0,1.6162,0.21,2.2998,0.6299s1.2109,0.9766,1.582,1.6699
		c0.1855-0.3418,0.415-0.6543,0.6885-0.9375s0.5762-0.5244,0.9082-0.7246s0.6934-0.3564,1.084-0.4688s0.7959-0.1689,1.2158-0.1689
		h0.1465c0.6055,0,1.1768,0.1152,1.7139,0.3447s1.0059,0.5439,1.4063,0.9443s0.7158,0.8691,0.9453,1.4063
		s0.3438,1.1084,0.3438,1.7139v10.8838H45.1758z"/>
	<path class="st24" d="M60.2568,18.8965c-0.2295,0.5371-0.5449,1.0059-0.9453,1.4063s-0.8691,0.7158-1.4063,0.9453
		s-1.1084,0.3438-1.7139,0.3438h-0.4541c-0.6738,0-1.2988-0.1367-1.875-0.4102s-1.0693-0.6543-1.4795-1.1426v7.2656h-1.8018V6.2988
		h0.6006l0.9814,1.5234c0.4102-0.5566,0.9258-0.998,1.5459-1.3252s1.2959-0.4912,2.0283-0.4912h0.4541
		c0.6055,0,1.1768,0.1152,1.7139,0.3447s1.0059,0.5439,1.4063,0.9443s0.7158,0.8691,0.9453,1.4063s0.3438,1.1084,0.3438,1.7139
		v6.7676C60.6006,17.7881,60.4863,18.3594,60.2568,18.8965z M58.7988,10.3125c0-0.3613-0.0684-0.7002-0.2051-1.0176
		s-0.3223-0.5938-0.5566-0.8281S57.5273,8.0469,57.21,7.9102s-0.6572-0.2051-1.0186-0.2051h-1.2012
		c-0.3613,0-0.7002,0.0684-1.0176,0.2051s-0.5938,0.3223-0.8281,0.5566s-0.4199,0.5107-0.5566,0.8281s-0.2051,0.6563-0.2051,1.0176
		v6.9727c0,0.3613,0.0684,0.7012,0.2051,1.0186s0.3223,0.5928,0.5566,0.8271s0.5107,0.4199,0.8281,0.5566
		s0.6563,0.2051,1.0176,0.2051h1.2012c0.3613,0,0.7012-0.0684,1.0186-0.2051s0.5928-0.3223,0.8271-0.5566
		s0.4199-0.5098,0.5566-0.8271s0.2051-0.6572,0.2051-1.0186V10.3125z"/>
	<path class="st24" d="M73.8799,18.8965c-0.2295,0.5371-0.5449,1.0059-0.9453,1.4063s-0.8691,0.7158-1.4063,0.9453
		s-1.1084,0.3438-1.7139,0.3438h-1.2012c-0.6055,0-1.1768-0.1143-1.7139-0.3438s-1.0059-0.5449-1.4063-0.9453
		s-0.7148-0.8691-0.9443-1.4063s-0.3447-1.1084-0.3447-1.7139V10.415c0-0.6055,0.1152-1.1768,0.3447-1.7139
		s0.5439-1.0059,0.9443-1.4063s0.8691-0.7148,1.4063-0.9443s1.1084-0.3447,1.7139-0.3447h1.2012
		c0.6055,0,1.1768,0.1152,1.7139,0.3447s1.0059,0.5439,1.4063,0.9443s0.7158,0.8691,0.9453,1.4063s0.3438,1.1084,0.3438,1.7139
		v3.5303h-8.2178v3.3398c0,0.3613,0.0684,0.7012,0.2051,1.0186s0.3223,0.5928,0.5566,0.8271s0.5107,0.4199,0.8281,0.5566
		s0.6563,0.2051,1.0176,0.2051h1.2012c0.3613,0,0.7012-0.0684,1.0186-0.2051s0.5928-0.3223,0.8271-0.5566
		s0.4199-0.5098,0.5566-0.8271s0.2051-0.6572,0.2051-1.0186v-0.9961l1.8018,0.293v0.6006
		C74.2236,17.7881,74.1094,18.3594,73.8799,18.8965z M72.4219,10.3125c0-0.3613-0.0684-0.7002-0.2051-1.0176
		s-0.3223-0.5938-0.5566-0.8281s-0.5098-0.4199-0.8271-0.5566s-0.6572-0.2051-1.0186-0.2051h-1.2012
		c-0.3613,0-0.7002,0.0684-1.0176,0.2051s-0.5938,0.3223-0.8281,0.5566s-0.4199,0.5107-0.5566,0.8281s-0.2051,0.6563-0.2051,1.0176
		v2.2266h6.416V10.3125z"/>
	<path class="st24" d="M83.291,21.2988c-0.5469,0-1.0615-0.1025-1.5449-0.3076s-0.9033-0.4883-1.2598-0.8496
		s-0.6396-0.7813-0.8496-1.2598s-0.3154-0.9912-0.3154-1.5381V8.0127H76.626V6.2988h2.6953V2.6953l1.8018-0.293v3.8965h3.8086
		v1.7139H81.123v9.4189c0,0.3027,0.0566,0.584,0.1689,0.8428s0.2656,0.4854,0.4609,0.6807s0.4248,0.3496,0.6885,0.4619
		s0.5469,0.168,0.8496,0.168h1.6406v1.7139H83.291z"/>
	<path class="st24" d="M97.918,18.8965c-0.2295,0.5371-0.5449,1.0059-0.9453,1.4063s-0.8691,0.7158-1.4063,0.9453
		s-1.1084,0.3438-1.7139,0.3438h-1.2012c-0.6055,0-1.1768-0.1143-1.7139-0.3438s-1.0059-0.5449-1.4063-0.9453
		s-0.7148-0.8691-0.9443-1.4063s-0.3447-1.1084-0.3447-1.7139V10.415c0-0.6055,0.1152-1.1768,0.3447-1.7139
		s0.5439-1.0059,0.9443-1.4063s0.8691-0.7148,1.4063-0.9443s1.1084-0.3447,1.7139-0.3447h1.2012
		c0.6055,0,1.1768,0.1152,1.7139,0.3447s1.0059,0.5439,1.4063,0.9443s0.7158,0.8691,0.9453,1.4063s0.3438,1.1084,0.3438,1.7139
		v3.5303h-8.2178v3.3398c0,0.3613,0.0684,0.7012,0.2051,1.0186s0.3223,0.5928,0.5566,0.8271s0.5107,0.4199,0.8281,0.5566
		s0.6563,0.2051,1.0176,0.2051h1.2012c0.3613,0,0.7012-0.0684,1.0186-0.2051s0.5928-0.3223,0.8271-0.5566
		s0.4199-0.5098,0.5566-0.8271s0.2051-0.6572,0.2051-1.0186v-0.9961l1.8018,0.293v0.6006
		C98.2617,17.7881,98.1475,18.3594,97.918,18.8965z M96.46,10.3125c0-0.3613-0.0684-0.7002-0.2051-1.0176
		s-0.3223-0.5938-0.5566-0.8281s-0.5098-0.4199-0.8271-0.5566s-0.6572-0.2051-1.0186-0.2051h-1.2012
		c-0.3613,0-0.7002,0.0684-1.0176,0.2051S91.04,8.2324,90.8057,8.4668s-0.4199,0.5107-0.5566,0.8281s-0.2051,0.6563-0.2051,1.0176
		v2.2266h6.416V10.3125z"/>
	<path class="st24" d="M110.083,21.2988V10.3125c0-0.3613-0.0684-0.7002-0.2051-1.0176s-0.3223-0.5938-0.5566-0.8281
		s-0.5098-0.4199-0.8271-0.5566s-0.6572-0.2051-1.0186-0.2051h-1.2012c-0.3613,0-0.7002,0.0684-1.0176,0.2051
		s-0.5938,0.3223-0.8281,0.5566s-0.4199,0.5107-0.5566,0.8281s-0.2051,0.6563-0.2051,1.0176v10.9863h-1.8018v-15h0.6006
		l0.9814,1.5234c0.4102-0.5566,0.9258-0.998,1.5459-1.3252s1.2959-0.4912,2.0283-0.4912h0.4541
		c0.6055,0,1.1768,0.1152,1.7139,0.3447s1.0059,0.5439,1.4063,0.9443s0.7158,0.8691,0.9453,1.4063s0.3438,1.1084,0.3438,1.7139
		v10.8838H110.083z"/>
	<path class="st24" d="M125.1641,18.8965c-0.2295,0.5371-0.5449,1.0059-0.9453,1.4063s-0.8691,0.7158-1.4063,0.9453
		s-1.1084,0.3438-1.7139,0.3438h-1.2012c-0.6055,0-1.1768-0.1143-1.7139-0.3438s-1.0059-0.5449-1.4063-0.9453
		s-0.7148-0.8691-0.9443-1.4063s-0.3447-1.1084-0.3447-1.7139V10.415c0-0.6055,0.1152-1.1768,0.3447-1.7139
		s0.5439-1.0059,0.9443-1.4063s0.8691-0.7148,1.4063-0.9443s1.1084-0.3447,1.7139-0.3447h1.2012
		c0.6055,0,1.1768,0.1152,1.7139,0.3447s1.0059,0.5439,1.4063,0.9443s0.7158,0.8691,0.9453,1.4063s0.3438,1.1084,0.3438,1.7139
		v0.6006l-1.8018,0.293v-0.9961c0-0.3613-0.0684-0.7002-0.2051-1.0176s-0.3223-0.5938-0.5566-0.8281s-0.5098-0.4199-0.8271-0.5566
		s-0.6572-0.2051-1.0186-0.2051h-1.2012c-0.3613,0-0.7002,0.0684-1.0176,0.2051s-0.5938,0.3223-0.8281,0.5566
		s-0.4199,0.5107-0.5566,0.8281s-0.2051,0.6563-0.2051,1.0176v6.9727c0,0.3613,0.0684,0.7012,0.2051,1.0186
		s0.3223,0.5928,0.5566,0.8271s0.5107,0.4199,0.8281,0.5566s0.6563,0.2051,1.0176,0.2051h1.2012
		c0.3613,0,0.7012-0.0684,1.0186-0.2051s0.5928-0.3223,0.8271-0.5566s0.4199-0.5098,0.5566-0.8271s0.2051-0.6572,0.2051-1.0186
		v-0.9961l1.8018,0.293v0.6006C125.5078,17.7881,125.3936,18.3594,125.1641,18.8965z"/>
	<path class="st24" d="M129.5654,2.6953V0.293h2.0947v2.4023H129.5654z M129.7119,21.2988v-15h1.8018v15H129.7119z"/>
	<path class="st24" d="M145.1367,21.2988l-0.9961-1.4941c-0.4102,0.5371-0.9229,0.9697-1.5381,1.2969s-1.2891,0.4902-2.0215,0.4902
		h-0.4541c-0.6055,0-1.1768-0.1143-1.7139-0.3438s-1.0059-0.5449-1.4063-0.9453s-0.7148-0.8691-0.9443-1.4063
		s-0.3447-1.1084-0.3447-1.7139v-0.1465c0-0.6055,0.1152-1.1768,0.3447-1.7139s0.5439-1.0059,0.9443-1.4063
		s0.8691-0.7148,1.4063-0.9443s1.1084-0.3447,1.7139-0.3447h3.8086v-2.3145c0-0.3613-0.0684-0.7002-0.2051-1.0176
		s-0.3223-0.5938-0.5566-0.8281s-0.5098-0.4199-0.8271-0.5566s-0.6572-0.2051-1.0186-0.2051h-1.0547
		c-0.3613,0-0.7002,0.0684-1.0176,0.2051s-0.5938,0.3223-0.8281,0.5566s-0.4199,0.5107-0.5566,0.8281s-0.2051,0.6563-0.2051,1.0176
		v0.542l-1.8018-0.293V10.415c0-0.6055,0.1152-1.1768,0.3447-1.7139s0.5439-1.0059,0.9443-1.4063s0.8691-0.7148,1.4063-0.9443
		s1.1084-0.3447,1.7139-0.3447h1.0547c0.6055,0,1.1768,0.1152,1.7139,0.3447s1.0059,0.5439,1.4063,0.9443
		s0.7158,0.8691,0.9453,1.4063s0.3438,1.1084,0.3438,1.7139v10.8838H145.1367z M143.9355,14.0332h-3.8086
		c-0.3613,0-0.7002,0.0684-1.0176,0.2051s-0.5938,0.3252-0.8281,0.5645s-0.4199,0.5176-0.5566,0.835s-0.2051,0.6563-0.2051,1.0176
		v0.6299c0,0.3613,0.0684,0.7012,0.2051,1.0186s0.3223,0.5928,0.5566,0.8271s0.5107,0.4199,0.8281,0.5566
		s0.6563,0.2051,1.0176,0.2051h1.2012c0.3613,0,0.7012-0.0684,1.0186-0.2051s0.5928-0.3223,0.8271-0.5566
		s0.4199-0.5098,0.5566-0.8271s0.2051-0.6572,0.2051-1.0186V14.0332z"/>
	<path class="st24" d="M159.6533,17.4902c0,0.6055-0.1221,1.1602-0.3662,1.6631s-0.5762,0.9346-0.9961,1.2959
		s-0.9053,0.6426-1.457,0.8428s-1.1309,0.2998-1.7363,0.2998h-1.2012c-0.6055,0-1.1836-0.1143-1.7354-0.3438
		s-1.0352-0.5449-1.4502-0.9453s-0.7471-0.8691-0.9961-1.4063s-0.374-1.1084-0.374-1.7139V16.582l1.8018-0.293v0.9961
		c0,0.3613,0.0762,0.7012,0.2275,1.0186s0.3535,0.5928,0.6074,0.8271s0.5469,0.4199,0.8789,0.5566s0.6787,0.2051,1.04,0.2051h1.2012
		c0.3613,0,0.708-0.0537,1.04-0.1611s0.6279-0.2607,0.8867-0.4609s0.4639-0.4424,0.6152-0.7256s0.2266-0.6055,0.2266-0.9668
		c0-0.5371-0.1172-0.9766-0.3516-1.3184s-0.5439-0.627-0.9297-0.8564s-0.8252-0.4199-1.3184-0.5713s-0.999-0.3027-1.5166-0.4541
		s-1.0225-0.3252-1.5156-0.5205s-0.9326-0.4512-1.3184-0.7686s-0.6963-0.7158-0.9307-1.1943s-0.3516-1.0742-0.3516-1.7871
		c0-0.6055,0.1172-1.1592,0.3516-1.6621s0.5518-0.9355,0.9521-1.2969s0.8672-0.6416,1.3994-0.8418s1.1006-0.3008,1.7061-0.3008
		h1.0547c0.6055,0,1.1768,0.1152,1.7139,0.3447s1.0059,0.5439,1.4063,0.9443s0.7158,0.8691,0.9453,1.4063
		s0.3438,1.1084,0.3438,1.7139v0.0586l-1.8018,0.293v-0.4541c0-0.3613-0.0684-0.7002-0.2051-1.0176s-0.3223-0.5938-0.5566-0.8281
		s-0.5098-0.4199-0.8271-0.5566s-0.6572-0.2051-1.0186-0.2051h-1.0547c-0.3613,0-0.7002,0.0537-1.0176,0.1611
		s-0.5938,0.2617-0.8281,0.4619s-0.4199,0.4414-0.5566,0.7246s-0.2051,0.6055-0.2051,0.9668c0,0.5176,0.1172,0.9404,0.3516,1.2676
		s0.5449,0.6025,0.9307,0.8271s0.8252,0.4131,1.3184,0.5645s0.9961,0.3076,1.5088,0.4688s1.0156,0.3438,1.5088,0.5488
		s0.9326,0.4688,1.3184,0.791s0.6953,0.7256,0.9297,1.209S159.6533,16.7773,159.6533,17.4902z"/>
	<path class="st24" d="M174.4189,8.0127c-0.3613,0-0.7002,0.0684-1.0176,0.2051s-0.5938,0.3223-0.8281,0.5566
		s-0.4199,0.5107-0.5566,0.8281s-0.2051,0.6563-0.2051,1.0176v10.6787h-1.8018v-15h0.6006l0.9814,1.5234
		c0.4102-0.5566,0.9258-0.998,1.5459-1.3252s1.2959-0.4912,2.0283-0.4912h1.0547v2.0068H174.4189z"/>
	<path class="st24" d="M188.2988,18.8965c-0.2295,0.5371-0.5449,1.0059-0.9453,1.4063s-0.8691,0.7158-1.4063,0.9453
		s-1.1084,0.3438-1.7139,0.3438h-1.2012c-0.6055,0-1.1768-0.1143-1.7139-0.3438s-1.0059-0.5449-1.4063-0.9453
		s-0.7148-0.8691-0.9443-1.4063s-0.3447-1.1084-0.3447-1.7139V10.415c0-0.6055,0.1152-1.1768,0.3447-1.7139
		s0.5439-1.0059,0.9443-1.4063s0.8691-0.7148,1.4063-0.9443s1.1084-0.3447,1.7139-0.3447h1.2012
		c0.6055,0,1.1768,0.1152,1.7139,0.3447s1.0059,0.5439,1.4063,0.9443s0.7158,0.8691,0.9453,1.4063s0.3438,1.1084,0.3438,1.7139
		v3.5303h-8.2178v3.3398c0,0.3613,0.0684,0.7012,0.2051,1.0186s0.3223,0.5928,0.5566,0.8271s0.5107,0.4199,0.8281,0.5566
		s0.6563,0.2051,1.0176,0.2051h1.2012c0.3613,0,0.7012-0.0684,1.0186-0.2051s0.5928-0.3223,0.8271-0.5566
		s0.4199-0.5098,0.5566-0.8271s0.2051-0.6572,0.2051-1.0186v-0.9961l1.8018,0.293v0.6006
		C188.6426,17.7881,188.5283,18.3594,188.2988,18.8965z M186.8408,10.3125c0-0.3613-0.0684-0.7002-0.2051-1.0176
		s-0.3223-0.5938-0.5566-0.8281s-0.5098-0.4199-0.8271-0.5566s-0.6572-0.2051-1.0186-0.2051h-1.2012
		c-0.3613,0-0.7002,0.0684-1.0176,0.2051s-0.5938,0.3223-0.8281,0.5566s-0.4199,0.5107-0.5566,0.8281s-0.2051,0.6563-0.2051,1.0176
		v2.2266h6.416V10.3125z"/>
	<path class="st24" d="M200.4639,27.3047v-7.2656c-0.4102,0.4883-0.9033,0.8691-1.4795,1.1426s-1.2012,0.4102-1.875,0.4102h-0.4541
		c-0.6055,0-1.1768-0.1143-1.7139-0.3438s-1.0059-0.5449-1.4063-0.9453s-0.7148-0.8691-0.9443-1.4063s-0.3447-1.1084-0.3447-1.7139
		V10.415c0-0.6055,0.1152-1.1768,0.3447-1.7139s0.5439-1.0059,0.9443-1.4063s0.8691-0.7148,1.4063-0.9443
		s1.1084-0.3447,1.7139-0.3447h0.4541c0.7324,0,1.4063,0.1641,2.0215,0.4912s1.1279,0.7686,1.5381,1.3252l0.9961-1.5234h0.6006
		v21.0059H200.4639z M200.4639,10.3125c0-0.3613-0.0684-0.7002-0.2051-1.0176s-0.3223-0.5938-0.5566-0.8281
		s-0.5098-0.4199-0.8271-0.5566s-0.6572-0.2051-1.0186-0.2051h-1.2012c-0.3613,0-0.7002,0.0684-1.0176,0.2051
		s-0.5938,0.3223-0.8281,0.5566s-0.4199,0.5107-0.5566,0.8281s-0.2051,0.6563-0.2051,1.0176v6.9727
		c0,0.3613,0.0684,0.7012,0.2051,1.0186s0.3223,0.5928,0.5566,0.8271s0.5107,0.4199,0.8281,0.5566s0.6563,0.2051,1.0176,0.2051
		h1.2012c0.3613,0,0.7012-0.0684,1.0186-0.2051s0.5928-0.3223,0.8271-0.5566s0.4199-0.5098,0.5566-0.8271
		s0.2051-0.6572,0.2051-1.0186V10.3125z"/>
	<path class="st24" d="M215.2881,21.2988l-0.9961-1.5234c-0.4102,0.5566-0.9229,0.999-1.5381,1.3262s-1.2891,0.4902-2.0215,0.4902
		h-0.4541c-0.6055,0-1.1768-0.1143-1.7139-0.3438s-1.0059-0.5449-1.4063-0.9453s-0.7148-0.8691-0.9443-1.4063
		s-0.3447-1.1084-0.3447-1.7139V6.2988h1.8018v10.9863c0,0.3613,0.0684,0.7012,0.2051,1.0186s0.3223,0.5928,0.5566,0.8271
		s0.5107,0.4199,0.8281,0.5566s0.6563,0.2051,1.0176,0.2051h1.2012c0.3613,0,0.7012-0.0684,1.0186-0.2051
		s0.5928-0.3223,0.8271-0.5566s0.4199-0.5098,0.5566-0.8271s0.2051-0.6572,0.2051-1.0186V6.2988h1.8018v15H215.2881z"/>
	<path class="st24" d="M229.168,18.8965c-0.2295,0.5371-0.5449,1.0059-0.9453,1.4063s-0.8691,0.7158-1.4063,0.9453
		s-1.1084,0.3438-1.7139,0.3438h-1.2012c-0.6055,0-1.1768-0.1143-1.7139-0.3438s-1.0059-0.5449-1.4063-0.9453
		s-0.7148-0.8691-0.9443-1.4063s-0.3447-1.1084-0.3447-1.7139V10.415c0-0.6055,0.1152-1.1768,0.3447-1.7139
		s0.5439-1.0059,0.9443-1.4063s0.8691-0.7148,1.4063-0.9443s1.1084-0.3447,1.7139-0.3447h1.2012
		c0.6055,0,1.1768,0.1152,1.7139,0.3447s1.0059,0.5439,1.4063,0.9443s0.7158,0.8691,0.9453,1.4063s0.3438,1.1084,0.3438,1.7139
		v3.5303h-8.2178v3.3398c0,0.3613,0.0684,0.7012,0.2051,1.0186s0.3223,0.5928,0.5566,0.8271s0.5107,0.4199,0.8281,0.5566
		s0.6563,0.2051,1.0176,0.2051h1.2012c0.3613,0,0.7012-0.0684,1.0186-0.2051s0.5928-0.3223,0.8271-0.5566
		s0.4199-0.5098,0.5566-0.8271s0.2051-0.6572,0.2051-1.0186v-0.9961l1.8018,0.293v0.6006
		C229.5117,17.7881,229.3975,18.3594,229.168,18.8965z M227.71,10.3125c0-0.3613-0.0684-0.7002-0.2051-1.0176
		s-0.3223-0.5938-0.5566-0.8281s-0.5098-0.4199-0.8271-0.5566s-0.6572-0.2051-1.0186-0.2051h-1.2012
		c-0.3613,0-0.7002,0.0684-1.0176,0.2051s-0.5938,0.3223-0.8281,0.5566s-0.4199,0.5107-0.5566,0.8281s-0.2051,0.6563-0.2051,1.0176
		v2.2266h6.416V10.3125z"/>
	<path class="st24" d="M237.5244,8.0127c-0.3613,0-0.7002,0.0684-1.0176,0.2051s-0.5938,0.3223-0.8281,0.5566
		s-0.4199,0.5107-0.5566,0.8281s-0.2051,0.6563-0.2051,1.0176v10.6787h-1.8018v-15h0.6006l0.9814,1.5234
		c0.4102-0.5566,0.9258-0.998,1.5459-1.3252s1.2959-0.4912,2.0283-0.4912h1.0547v2.0068H237.5244z"/>
	<path class="st24" d="M242.1826,2.6953V0.293h2.0947v2.4023H242.1826z M242.3291,21.2988v-15h1.8018v15H242.3291z"/>
	<path class="st24" d="M257.7539,21.2988l-0.9961-1.5234c-0.4102,0.5566-0.9229,0.999-1.5381,1.3262s-1.2891,0.4902-2.0215,0.4902
		h-0.4541c-0.6055,0-1.1768-0.1143-1.7139-0.3438s-1.0059-0.5449-1.4063-0.9453s-0.7148-0.8691-0.9443-1.4063
		s-0.3447-1.1084-0.3447-1.7139V10.415c0-0.6055,0.1152-1.1768,0.3447-1.7139s0.5439-1.0059,0.9443-1.4063
		s0.8691-0.7148,1.4063-0.9443s1.1084-0.3447,1.7139-0.3447h0.4541c0.6738,0,1.2988,0.1367,1.875,0.4102
		s1.0693,0.6543,1.4795,1.1426V0.293h1.8018v21.0059H257.7539z M256.5527,10.3125c0-0.3613-0.0684-0.7002-0.2051-1.0176
		s-0.3223-0.5938-0.5566-0.8281s-0.5098-0.4199-0.8271-0.5566s-0.6572-0.2051-1.0186-0.2051h-1.2012
		c-0.3613,0-0.7002,0.0684-1.0176,0.2051s-0.5938,0.3223-0.8281,0.5566s-0.4199,0.5107-0.5566,0.8281s-0.2051,0.6563-0.2051,1.0176
		v6.9727c0,0.3613,0.0684,0.7012,0.2051,1.0186s0.3223,0.5928,0.5566,0.8271s0.5107,0.4199,0.8281,0.5566
		s0.6563,0.2051,1.0176,0.2051h1.2012c0.3613,0,0.7012-0.0684,1.0186-0.2051s0.5928-0.3223,0.8271-0.5566
		s0.4199-0.5098,0.5566-0.8271s0.2051-0.6572,0.2051-1.0186V10.3125z"/>
	<path class="st24" d="M271.377,21.2988l-0.9961-1.4941c-0.4102,0.5371-0.9229,0.9697-1.5381,1.2969s-1.2891,0.4902-2.0215,0.4902
		h-0.4541c-0.6055,0-1.1768-0.1143-1.7139-0.3438s-1.0059-0.5449-1.4063-0.9453s-0.7148-0.8691-0.9443-1.4063
		s-0.3447-1.1084-0.3447-1.7139v-0.1465c0-0.6055,0.1152-1.1768,0.3447-1.7139s0.5439-1.0059,0.9443-1.4063
		s0.8691-0.7148,1.4063-0.9443s1.1084-0.3447,1.7139-0.3447h3.8086v-2.3145c0-0.3613-0.0684-0.7002-0.2051-1.0176
		s-0.3223-0.5938-0.5566-0.8281s-0.5098-0.4199-0.8271-0.5566s-0.6572-0.2051-1.0186-0.2051h-1.0547
		c-0.3613,0-0.7002,0.0684-1.0176,0.2051s-0.5938,0.3223-0.8281,0.5566s-0.4199,0.5107-0.5566,0.8281s-0.2051,0.6563-0.2051,1.0176
		v0.542l-1.8018-0.293V10.415c0-0.6055,0.1152-1.1768,0.3447-1.7139s0.5439-1.0059,0.9443-1.4063s0.8691-0.7148,1.4063-0.9443
		s1.1084-0.3447,1.7139-0.3447h1.0547c0.6055,0,1.1768,0.1152,1.7139,0.3447s1.0059,0.5439,1.4063,0.9443
		s0.7158,0.8691,0.9453,1.4063s0.3438,1.1084,0.3438,1.7139v10.8838H271.377z M270.1758,14.0332h-3.8086
		c-0.3613,0-0.7002,0.0684-1.0176,0.2051s-0.5938,0.3252-0.8281,0.5645s-0.4199,0.5176-0.5566,0.835s-0.2051,0.6563-0.2051,1.0176
		v0.6299c0,0.3613,0.0684,0.7012,0.2051,1.0186s0.3223,0.5928,0.5566,0.8271s0.5107,0.4199,0.8281,0.5566
		s0.6563,0.2051,1.0176,0.2051h1.2012c0.3613,0,0.7012-0.0684,1.0186-0.2051s0.5928-0.3223,0.8271-0.5566
		s0.4199-0.5098,0.5566-0.8271s0.2051-0.6572,0.2051-1.0186V14.0332z"/>
	<path class="st24" d="M285.8936,17.4902c0,0.6055-0.1221,1.1602-0.3662,1.6631s-0.5762,0.9346-0.9961,1.2959
		s-0.9053,0.6426-1.457,0.8428s-1.1309,0.2998-1.7363,0.2998h-1.2012c-0.6055,0-1.1836-0.1143-1.7354-0.3438
		s-1.0352-0.5449-1.4502-0.9453s-0.7471-0.8691-0.9961-1.4063s-0.374-1.1084-0.374-1.7139V16.582l1.8018-0.293v0.9961
		c0,0.3613,0.0762,0.7012,0.2275,1.0186s0.3535,0.5928,0.6074,0.8271s0.5469,0.4199,0.8789,0.5566s0.6787,0.2051,1.04,0.2051h1.2012
		c0.3613,0,0.708-0.0537,1.04-0.1611s0.6279-0.2607,0.8867-0.4609s0.4639-0.4424,0.6152-0.7256s0.2266-0.6055,0.2266-0.9668
		c0-0.5371-0.1172-0.9766-0.3516-1.3184s-0.5439-0.627-0.9297-0.8564S282,14.9834,281.5068,14.832s-0.999-0.3027-1.5166-0.4541
		s-1.0225-0.3252-1.5156-0.5205s-0.9326-0.4512-1.3184-0.7686s-0.6963-0.7158-0.9307-1.1943s-0.3516-1.0742-0.3516-1.7871
		c0-0.6055,0.1172-1.1592,0.3516-1.6621s0.5518-0.9355,0.9521-1.2969s0.8672-0.6416,1.3994-0.8418s1.1006-0.3008,1.7061-0.3008
		h1.0547c0.6055,0,1.1768,0.1152,1.7139,0.3447s1.0059,0.5439,1.4063,0.9443s0.7158,0.8691,0.9453,1.4063
		s0.3438,1.1084,0.3438,1.7139v0.0586l-1.8018,0.293v-0.4541c0-0.3613-0.0684-0.7002-0.2051-1.0176s-0.3223-0.5938-0.5566-0.8281
		s-0.5098-0.4199-0.8271-0.5566s-0.6572-0.2051-1.0186-0.2051h-1.0547c-0.3613,0-0.7002,0.0537-1.0176,0.1611
		s-0.5938,0.2617-0.8281,0.4619s-0.4199,0.4414-0.5566,0.7246s-0.2051,0.6055-0.2051,0.9668c0,0.5176,0.1172,0.9404,0.3516,1.2676
		s0.5449,0.6025,0.9307,0.8271s0.8252,0.4131,1.3184,0.5645s0.9961,0.3076,1.5088,0.4688s1.0156,0.3438,1.5088,0.5488
		s0.9326,0.4688,1.3184,0.791s0.6953,0.7256,0.9297,1.209S285.8936,16.7773,285.8936,17.4902z"/>
	<path class="st24" d="M305.9258,18.8965c-0.2305,0.5371-0.5449,1.0059-0.9453,1.4063s-0.8691,0.7158-1.4063,0.9453
		s-1.1074,0.3438-1.7129,0.3438h-0.4551c-0.6738,0-1.2988-0.1367-1.875-0.4102s-1.0684-0.6543-1.4785-1.1426v7.2656H296.25V6.2988
		h0.6006l0.9814,1.5234c0.4102-0.5566,0.9258-0.998,1.5469-1.3252c0.6191-0.3271,1.2949-0.4912,2.0273-0.4912h0.4551
		c0.6055,0,1.1758,0.1152,1.7129,0.3447s1.0059,0.5439,1.4063,0.9443s0.7148,0.8691,0.9453,1.4063
		c0.2285,0.5371,0.3438,1.1084,0.3438,1.7139v6.7676C306.2695,17.7881,306.1543,18.3594,305.9258,18.8965z M304.4688,10.3125
		c0-0.3613-0.0684-0.7002-0.2051-1.0176s-0.3223-0.5938-0.5566-0.8281s-0.5117-0.4199-0.8281-0.5566
		c-0.3184-0.1367-0.6563-0.2051-1.0176-0.2051h-1.2012c-0.3613,0-0.7012,0.0684-1.0176,0.2051
		c-0.3184,0.1367-0.5938,0.3223-0.8281,0.5566s-0.4199,0.5107-0.5566,0.8281s-0.2051,0.6563-0.2051,1.0176v6.9727
		c0,0.3613,0.0684,0.7012,0.2051,1.0186s0.3223,0.5928,0.5566,0.8271s0.5098,0.4199,0.8281,0.5566
		c0.3164,0.1367,0.6563,0.2051,1.0176,0.2051h1.2012c0.3613,0,0.6992-0.0684,1.0176-0.2051
		c0.3164-0.1367,0.5938-0.3223,0.8281-0.5566s0.4199-0.5098,0.5566-0.8271s0.2051-0.6572,0.2051-1.0186V10.3125z"/>
	<path class="st24" d="M319.293,21.2988l-0.9961-1.4941c-0.4102,0.5371-0.9229,0.9697-1.5381,1.2969s-1.2891,0.4902-2.0215,0.4902
		h-0.4541c-0.6055,0-1.1768-0.1143-1.7139-0.3438s-1.0059-0.5449-1.4063-0.9453s-0.7158-0.8691-0.9443-1.4063
		c-0.2305-0.5371-0.3447-1.1084-0.3447-1.7139v-0.1465c0-0.6055,0.1143-1.1768,0.3447-1.7139
		c0.2285-0.5371,0.5439-1.0059,0.9443-1.4063s0.8691-0.7148,1.4063-0.9443s1.1084-0.3447,1.7139-0.3447h3.8086v-2.3145
		c0-0.3613-0.0684-0.7002-0.2051-1.0176s-0.3223-0.5938-0.5566-0.8281s-0.5107-0.4199-0.8281-0.5566s-0.6563-0.2051-1.0176-0.2051
		h-1.0547c-0.3613,0-0.7012,0.0684-1.0176,0.2051c-0.3184,0.1367-0.5938,0.3223-0.8281,0.5566s-0.4199,0.5107-0.5566,0.8281
		s-0.2051,0.6563-0.2051,1.0176v0.542l-1.8018-0.293V10.415c0-0.6055,0.1143-1.1768,0.3447-1.7139
		c0.2285-0.5371,0.5439-1.0059,0.9443-1.4063s0.8691-0.7148,1.4063-0.9443s1.1084-0.3447,1.7139-0.3447h1.0547
		c0.6055,0,1.1768,0.1152,1.7139,0.3447s1.0059,0.5439,1.4063,0.9443s0.7148,0.8691,0.9443,1.4063s0.3447,1.1084,0.3447,1.7139
		v10.8838H319.293z M318.0918,14.0332h-3.8086c-0.3613,0-0.7012,0.0684-1.0176,0.2051c-0.3184,0.1367-0.5938,0.3252-0.8281,0.5645
		s-0.4199,0.5176-0.5566,0.835s-0.2051,0.6563-0.2051,1.0176v0.6299c0,0.3613,0.0684,0.7012,0.2051,1.0186
		s0.3223,0.5928,0.5566,0.8271s0.5098,0.4199,0.8281,0.5566c0.3164,0.1367,0.6563,0.2051,1.0176,0.2051h1.2012
		c0.3613,0,0.7002-0.0684,1.0176-0.2051s0.5938-0.3223,0.8281-0.5566s0.4199-0.5098,0.5566-0.8271s0.2051-0.6572,0.2051-1.0186
		V14.0332z"/>
	<path class="st24" d="M327.9063,8.0127c-0.3613,0-0.7012,0.0684-1.0176,0.2051c-0.3184,0.1367-0.5938,0.3223-0.8281,0.5566
		s-0.4199,0.5107-0.5566,0.8281s-0.2051,0.6563-0.2051,1.0176v10.6787h-1.8018v-15h0.6006l0.9814,1.5234
		c0.4102-0.5566,0.9248-0.998,1.5459-1.3252c0.6191-0.3271,1.2959-0.4912,2.0283-0.4912h1.0547v2.0068H327.9063z"/>
	<path class="st24" d="M341.5293,21.2988l-0.9961-1.4941c-0.4102,0.5371-0.9229,0.9697-1.5381,1.2969s-1.2891,0.4902-2.0215,0.4902
		h-0.4541c-0.6055,0-1.1768-0.1143-1.7139-0.3438s-1.0059-0.5449-1.4063-0.9453s-0.7158-0.8691-0.9443-1.4063
		c-0.2305-0.5371-0.3447-1.1084-0.3447-1.7139v-0.1465c0-0.6055,0.1143-1.1768,0.3447-1.7139
		c0.2285-0.5371,0.5439-1.0059,0.9443-1.4063s0.8691-0.7148,1.4063-0.9443s1.1084-0.3447,1.7139-0.3447h3.8086v-2.3145
		c0-0.3613-0.0684-0.7002-0.2051-1.0176s-0.3223-0.5938-0.5566-0.8281s-0.5107-0.4199-0.8281-0.5566s-0.6563-0.2051-1.0176-0.2051
		h-1.0547c-0.3613,0-0.7012,0.0684-1.0176,0.2051c-0.3184,0.1367-0.5938,0.3223-0.8281,0.5566s-0.4199,0.5107-0.5566,0.8281
		s-0.2051,0.6563-0.2051,1.0176v0.542l-1.8018-0.293V10.415c0-0.6055,0.1143-1.1768,0.3447-1.7139
		c0.2285-0.5371,0.5439-1.0059,0.9443-1.4063s0.8691-0.7148,1.4063-0.9443s1.1084-0.3447,1.7139-0.3447h1.0547
		c0.6055,0,1.1768,0.1152,1.7139,0.3447s1.0059,0.5439,1.4063,0.9443s0.7148,0.8691,0.9443,1.4063s0.3447,1.1084,0.3447,1.7139
		v10.8838H341.5293z M340.3281,14.0332h-3.8086c-0.3613,0-0.7012,0.0684-1.0176,0.2051c-0.3184,0.1367-0.5938,0.3252-0.8281,0.5645
		s-0.4199,0.5176-0.5566,0.835s-0.2051,0.6563-0.2051,1.0176v0.6299c0,0.3613,0.0684,0.7012,0.2051,1.0186
		s0.3223,0.5928,0.5566,0.8271s0.5098,0.4199,0.8281,0.5566c0.3164,0.1367,0.6563,0.2051,1.0176,0.2051h1.2012
		c0.3613,0,0.7002-0.0684,1.0176-0.2051s0.5938-0.3223,0.8281-0.5566s0.4199-0.5098,0.5566-0.8271s0.2051-0.6572,0.2051-1.0186
		V14.0332z"/>
	<path class="st24" d="M362.3066,18.8965c-0.2295,0.5371-0.5439,1.0059-0.9443,1.4063s-0.8691,0.7158-1.4063,0.9453
		s-1.1084,0.3438-1.7139,0.3438h-1.2012c-0.6055,0-1.1768-0.1143-1.7139-0.3438s-1.0059-0.5449-1.4063-0.9453
		s-0.7158-0.8691-0.9443-1.4063c-0.2305-0.5371-0.3447-1.1084-0.3447-1.7139V10.415c0-0.6055,0.1143-1.1768,0.3447-1.7139
		c0.2285-0.5371,0.5439-1.0059,0.9443-1.4063s0.8691-0.7148,1.4063-0.9443s1.1084-0.3447,1.7139-0.3447h1.2012
		c0.6055,0,1.1768,0.1152,1.7139,0.3447s1.0059,0.5439,1.4063,0.9443s0.7148,0.8691,0.9443,1.4063s0.3447,1.1084,0.3447,1.7139
		v3.5303h-8.2178v3.3398c0,0.3613,0.0684,0.7012,0.2051,1.0186s0.3223,0.5928,0.5566,0.8271s0.5098,0.4199,0.8281,0.5566
		c0.3164,0.1367,0.6563,0.2051,1.0176,0.2051h1.2012c0.3613,0,0.7002-0.0684,1.0176-0.2051s0.5938-0.3223,0.8281-0.5566
		s0.4199-0.5098,0.5566-0.8271s0.2051-0.6572,0.2051-1.0186v-0.9961l1.8018,0.293v0.6006
		C362.6514,17.7881,362.5361,18.3594,362.3066,18.8965z M360.8496,10.3125c0-0.3613-0.0684-0.7002-0.2051-1.0176
		s-0.3223-0.5938-0.5566-0.8281s-0.5107-0.4199-0.8281-0.5566s-0.6563-0.2051-1.0176-0.2051h-1.2012
		c-0.3613,0-0.7012,0.0684-1.0176,0.2051c-0.3184,0.1367-0.5938,0.3223-0.8281,0.5566s-0.4199,0.5107-0.5566,0.8281
		s-0.2051,0.6563-0.2051,1.0176v2.2266h6.416V10.3125z"/>
	<path class="st24" d="M366.8555,21.2988V0.293h1.8018v21.0059H366.8555z"/>
	<path class="st24" d="M9.4189,49.2988l-0.9961-1.5234C8.0127,48.332,7.5,48.7744,6.8848,49.1016s-1.2891,0.4902-2.0215,0.4902
		H4.4092c-0.6055,0-1.1768-0.1143-1.7139-0.3438s-1.0059-0.5449-1.4063-0.9453s-0.7148-0.8691-0.9443-1.4063S0,45.7881,0,45.1826
		V38.415c0-0.6055,0.1152-1.1768,0.3447-1.7139s0.5439-1.0059,0.9443-1.4063s0.8691-0.7148,1.4063-0.9443
		s1.1084-0.3447,1.7139-0.3447h0.4541c0.6738,0,1.2988,0.1367,1.875,0.4102s1.0693,0.6543,1.4795,1.1426V28.293h1.8018v21.0059
		H9.4189z M8.2178,38.3125c0-0.3613-0.0684-0.7002-0.2051-1.0176s-0.3223-0.5938-0.5566-0.8281s-0.5098-0.4199-0.8271-0.5566
		s-0.6572-0.2051-1.0186-0.2051H4.4092c-0.3613,0-0.7002,0.0684-1.0176,0.2051s-0.5938,0.3223-0.8281,0.5566
		s-0.4199,0.5107-0.5566,0.8281s-0.2051,0.6563-0.2051,1.0176v6.9727c0,0.3613,0.0684,0.7012,0.2051,1.0186
		s0.3223,0.5928,0.5566,0.8271s0.5107,0.4199,0.8281,0.5566s0.6563,0.2051,1.0176,0.2051h1.2012
		c0.3613,0,0.7012-0.0684,1.0186-0.2051s0.5928-0.3223,0.8271-0.5566s0.4199-0.5098,0.5566-0.8271s0.2051-0.6572,0.2051-1.0186
		V38.3125z"/>
	<path class="st24" d="M23.2988,46.8965c-0.2295,0.5371-0.5449,1.0059-0.9453,1.4063s-0.8691,0.7158-1.4063,0.9453
		s-1.1084,0.3438-1.7139,0.3438h-1.2012c-0.6055,0-1.1768-0.1143-1.7139-0.3438s-1.0059-0.5449-1.4063-0.9453
		s-0.7148-0.8691-0.9443-1.4063s-0.3447-1.1084-0.3447-1.7139V38.415c0-0.6055,0.1152-1.1768,0.3447-1.7139
		s0.5439-1.0059,0.9443-1.4063s0.8691-0.7148,1.4063-0.9443s1.1084-0.3447,1.7139-0.3447h1.2012
		c0.6055,0,1.1768,0.1152,1.7139,0.3447s1.0059,0.5439,1.4063,0.9443s0.7158,0.8691,0.9453,1.4063s0.3438,1.1084,0.3438,1.7139
		v3.5303h-8.2178v3.3398c0,0.3613,0.0684,0.7012,0.2051,1.0186s0.3223,0.5928,0.5566,0.8271s0.5107,0.4199,0.8281,0.5566
		s0.6563,0.2051,1.0176,0.2051h1.2012c0.3613,0,0.7012-0.0684,1.0186-0.2051s0.5928-0.3223,0.8271-0.5566
		s0.4199-0.5098,0.5566-0.8271s0.2051-0.6572,0.2051-1.0186v-0.9961l1.8018,0.293v0.6006
		C23.6426,45.7881,23.5283,46.3594,23.2988,46.8965z M21.8408,38.3125c0-0.3613-0.0684-0.7002-0.2051-1.0176
		s-0.3223-0.5938-0.5566-0.8281s-0.5098-0.4199-0.8271-0.5566s-0.6572-0.2051-1.0186-0.2051h-1.2012
		c-0.3613,0-0.7002,0.0684-1.0176,0.2051s-0.5938,0.3223-0.8281,0.5566s-0.4199,0.5107-0.5566,0.8281s-0.2051,0.6563-0.2051,1.0176
		v2.2266h6.416V38.3125z"/>
	<path class="st24" d="M37.5586,45.4902c0,0.6055-0.1221,1.1602-0.3662,1.6631s-0.5762,0.9346-0.9961,1.2959
		s-0.9053,0.6426-1.457,0.8428s-1.1309,0.2998-1.7363,0.2998h-1.2012c-0.6055,0-1.1836-0.1143-1.7354-0.3438
		s-1.0352-0.5449-1.4502-0.9453s-0.7471-0.8691-0.9961-1.4063s-0.374-1.1084-0.374-1.7139V44.582l1.8018-0.293v0.9961
		c0,0.3613,0.0762,0.7012,0.2275,1.0186s0.3535,0.5928,0.6074,0.8271s0.5469,0.4199,0.8789,0.5566s0.6787,0.2051,1.04,0.2051h1.2012
		c0.3613,0,0.708-0.0537,1.04-0.1611s0.6279-0.2607,0.8867-0.4609s0.4639-0.4424,0.6152-0.7256s0.2266-0.6055,0.2266-0.9668
		c0-0.5371-0.1172-0.9766-0.3516-1.3184s-0.5439-0.627-0.9297-0.8564s-0.8252-0.4199-1.3184-0.5713s-0.999-0.3027-1.5166-0.4541
		s-1.0225-0.3252-1.5156-0.5205s-0.9326-0.4512-1.3184-0.7686s-0.6963-0.7158-0.9307-1.1943s-0.3516-1.0742-0.3516-1.7871
		c0-0.6055,0.1172-1.1592,0.3516-1.6621s0.5518-0.9355,0.9521-1.2969s0.8672-0.6416,1.3994-0.8418s1.1006-0.3008,1.7061-0.3008
		h1.0547c0.6055,0,1.1768,0.1152,1.7139,0.3447s1.0059,0.5439,1.4063,0.9443s0.7158,0.8691,0.9453,1.4063
		s0.3438,1.1084,0.3438,1.7139v0.0586l-1.8018,0.293v-0.4541c0-0.3613-0.0684-0.7002-0.2051-1.0176s-0.3223-0.5938-0.5566-0.8281
		s-0.5098-0.4199-0.8271-0.5566s-0.6572-0.2051-1.0186-0.2051h-1.0547c-0.3613,0-0.7002,0.0537-1.0176,0.1611
		s-0.5938,0.2617-0.8281,0.4619s-0.4199,0.4414-0.5566,0.7246s-0.2051,0.6055-0.2051,0.9668c0,0.5176,0.1172,0.9404,0.3516,1.2676
		s0.5449,0.6025,0.9307,0.8271s0.8252,0.4131,1.3184,0.5645s0.9961,0.3076,1.5088,0.4688s1.0156,0.3438,1.5088,0.5488
		s0.9326,0.4688,1.3184,0.791s0.6953,0.7256,0.9297,1.209S37.5586,44.7773,37.5586,45.4902z"/>
	<path class="st24" d="M50.4346,49.2988l-0.9961-1.4941c-0.4102,0.5371-0.9229,0.9697-1.5381,1.2969s-1.2891,0.4902-2.0215,0.4902
		h-0.4541c-0.6055,0-1.1768-0.1143-1.7139-0.3438s-1.0059-0.5449-1.4063-0.9453s-0.7148-0.8691-0.9443-1.4063
		s-0.3447-1.1084-0.3447-1.7139v-0.1465c0-0.6055,0.1152-1.1768,0.3447-1.7139s0.5439-1.0059,0.9443-1.4063
		s0.8691-0.7148,1.4063-0.9443s1.1084-0.3447,1.7139-0.3447h3.8086v-2.3145c0-0.3613-0.0684-0.7002-0.2051-1.0176
		s-0.3223-0.5938-0.5566-0.8281s-0.5098-0.4199-0.8271-0.5566s-0.6572-0.2051-1.0186-0.2051h-1.0547
		c-0.3613,0-0.7002,0.0684-1.0176,0.2051s-0.5938,0.3223-0.8281,0.5566s-0.4199,0.5107-0.5566,0.8281s-0.2051,0.6563-0.2051,1.0176
		v0.542l-1.8018-0.293V38.415c0-0.6055,0.1152-1.1768,0.3447-1.7139s0.5439-1.0059,0.9443-1.4063s0.8691-0.7148,1.4063-0.9443
		s1.1084-0.3447,1.7139-0.3447h1.0547c0.6055,0,1.1768,0.1152,1.7139,0.3447s1.0059,0.5439,1.4063,0.9443
		s0.7158,0.8691,0.9453,1.4063s0.3438,1.1084,0.3438,1.7139v10.8838H50.4346z M49.2334,42.0332h-3.8086
		c-0.3613,0-0.7002,0.0684-1.0176,0.2051s-0.5938,0.3252-0.8281,0.5645s-0.4199,0.5176-0.5566,0.835s-0.2051,0.6563-0.2051,1.0176
		v0.6299c0,0.3613,0.0684,0.7012,0.2051,1.0186s0.3223,0.5928,0.5566,0.8271s0.5107,0.4199,0.8281,0.5566
		s0.6563,0.2051,1.0176,0.2051h1.2012c0.3613,0,0.7012-0.0684,1.0186-0.2051s0.5928-0.3223,0.8271-0.5566
		s0.4199-0.5098,0.5566-0.8271s0.2051-0.6572,0.2051-1.0186V42.0332z"/>
	<path class="st24" d="M59.0479,36.0127c-0.3613,0-0.7002,0.0684-1.0176,0.2051s-0.5938,0.3223-0.8281,0.5566
		s-0.4199,0.5107-0.5566,0.8281s-0.2051,0.6563-0.2051,1.0176v10.6787h-1.8018v-15h0.6006l0.9814,1.5234
		c0.4102-0.5566,0.9258-0.998,1.5459-1.3252s1.2959-0.4912,2.0283-0.4912h1.0547v2.0068H59.0479z"/>
	<path class="st24" d="M67.6611,36.0127c-0.3613,0-0.7002,0.0684-1.0176,0.2051s-0.5938,0.3223-0.8281,0.5566
		s-0.4199,0.5107-0.5566,0.8281s-0.2051,0.6563-0.2051,1.0176v10.6787H63.252v-15h0.6006l0.9814,1.5234
		c0.4102-0.5566,0.9258-0.998,1.5459-1.3252s1.2959-0.4912,2.0283-0.4912h1.0547v2.0068H67.6611z"/>
	<path class="st24" d="M81.541,46.8965c-0.2295,0.5371-0.5449,1.0059-0.9453,1.4063s-0.8691,0.7158-1.4063,0.9453
		s-1.1084,0.3438-1.7139,0.3438h-1.2012c-0.6055,0-1.1768-0.1143-1.7139-0.3438s-1.0059-0.5449-1.4063-0.9453
		s-0.7148-0.8691-0.9443-1.4063s-0.3447-1.1084-0.3447-1.7139V38.415c0-0.6055,0.1152-1.1768,0.3447-1.7139
		s0.5439-1.0059,0.9443-1.4063s0.8691-0.7148,1.4063-0.9443s1.1084-0.3447,1.7139-0.3447h1.2012
		c0.6055,0,1.1768,0.1152,1.7139,0.3447s1.0059,0.5439,1.4063,0.9443s0.7158,0.8691,0.9453,1.4063s0.3438,1.1084,0.3438,1.7139
		v6.7676C81.8848,45.7881,81.7705,46.3594,81.541,46.8965z M80.083,38.3125c0-0.3613-0.0684-0.7002-0.2051-1.0176
		s-0.3223-0.5938-0.5566-0.8281s-0.5098-0.4199-0.8271-0.5566s-0.6572-0.2051-1.0186-0.2051h-1.2012
		c-0.3613,0-0.7002,0.0684-1.0176,0.2051s-0.5938,0.3223-0.8281,0.5566s-0.4199,0.5107-0.5566,0.8281s-0.2051,0.6563-0.2051,1.0176
		v6.9727c0,0.3613,0.0684,0.7012,0.2051,1.0186s0.3223,0.5928,0.5566,0.8271s0.5107,0.4199,0.8281,0.5566
		s0.6563,0.2051,1.0176,0.2051h1.2012c0.3613,0,0.7012-0.0684,1.0186-0.2051s0.5928-0.3223,0.8271-0.5566
		s0.4199-0.5098,0.5566-0.8271s0.2051-0.6572,0.2051-1.0186V38.3125z"/>
	<path class="st24" d="M86.0889,49.2988V28.293h1.8018v21.0059H86.0889z"/>
	<path class="st24" d="M92.6953,49.2988V28.293h1.8018v21.0059H92.6953z"/>
	<path class="st24" d="M108.1201,49.2988l-0.9961-1.4941c-0.4102,0.5371-0.9229,0.9697-1.5381,1.2969s-1.2891,0.4902-2.0215,0.4902
		h-0.4541c-0.6055,0-1.1768-0.1143-1.7139-0.3438s-1.0059-0.5449-1.4063-0.9453s-0.7148-0.8691-0.9443-1.4063
		s-0.3447-1.1084-0.3447-1.7139v-0.1465c0-0.6055,0.1152-1.1768,0.3447-1.7139s0.5439-1.0059,0.9443-1.4063
		s0.8691-0.7148,1.4063-0.9443s1.1084-0.3447,1.7139-0.3447h3.8086v-2.3145c0-0.3613-0.0684-0.7002-0.2051-1.0176
		s-0.3223-0.5938-0.5566-0.8281s-0.5098-0.4199-0.8271-0.5566s-0.6572-0.2051-1.0186-0.2051h-1.0547
		c-0.3613,0-0.7002,0.0684-1.0176,0.2051s-0.5938,0.3223-0.8281,0.5566s-0.4199,0.5107-0.5566,0.8281s-0.2051,0.6563-0.2051,1.0176
		v0.542l-1.8018-0.293V38.415c0-0.6055,0.1152-1.1768,0.3447-1.7139s0.5439-1.0059,0.9443-1.4063s0.8691-0.7148,1.4063-0.9443
		s1.1084-0.3447,1.7139-0.3447h1.0547c0.6055,0,1.1768,0.1152,1.7139,0.3447s1.0059,0.5439,1.4063,0.9443
		s0.7158,0.8691,0.9453,1.4063s0.3438,1.1084,0.3438,1.7139v10.8838H108.1201z M106.9189,42.0332h-3.8086
		c-0.3613,0-0.7002,0.0684-1.0176,0.2051s-0.5938,0.3252-0.8281,0.5645s-0.4199,0.5176-0.5566,0.835s-0.2051,0.6563-0.2051,1.0176
		v0.6299c0,0.3613,0.0684,0.7012,0.2051,1.0186s0.3223,0.5928,0.5566,0.8271s0.5107,0.4199,0.8281,0.5566
		s0.6563,0.2051,1.0176,0.2051h1.2012c0.3613,0,0.7012-0.0684,1.0186-0.2051s0.5928-0.3223,0.8271-0.5566
		s0.4199-0.5098,0.5566-0.8271s0.2051-0.6572,0.2051-1.0186V42.0332z"/>
	<path class="st24" d="M121.7432,49.2988l-0.9961-1.5234c-0.4102,0.5566-0.9229,0.999-1.5381,1.3262s-1.2891,0.4902-2.0215,0.4902
		h-0.4541c-0.6055,0-1.1768-0.1143-1.7139-0.3438s-1.0059-0.5449-1.4063-0.9453s-0.7148-0.8691-0.9443-1.4063
		s-0.3447-1.1084-0.3447-1.7139V38.415c0-0.6055,0.1152-1.1768,0.3447-1.7139s0.5439-1.0059,0.9443-1.4063
		s0.8691-0.7148,1.4063-0.9443s1.1084-0.3447,1.7139-0.3447h0.4541c0.6738,0,1.2988,0.1367,1.875,0.4102
		s1.0693,0.6543,1.4795,1.1426V28.293h1.8018v21.0059H121.7432z M120.542,38.3125c0-0.3613-0.0684-0.7002-0.2051-1.0176
		s-0.3223-0.5938-0.5566-0.8281s-0.5098-0.4199-0.8271-0.5566s-0.6572-0.2051-1.0186-0.2051h-1.2012
		c-0.3613,0-0.7002,0.0684-1.0176,0.2051s-0.5938,0.3223-0.8281,0.5566s-0.4199,0.5107-0.5566,0.8281s-0.2051,0.6563-0.2051,1.0176
		v6.9727c0,0.3613,0.0684,0.7012,0.2051,1.0186s0.3223,0.5928,0.5566,0.8271s0.5107,0.4199,0.8281,0.5566
		s0.6563,0.2051,1.0176,0.2051h1.2012c0.3613,0,0.7012-0.0684,1.0186-0.2051s0.5928-0.3223,0.8271-0.5566
		s0.4199-0.5098,0.5566-0.8271s0.2051-0.6572,0.2051-1.0186V38.3125z"/>
	<path class="st24" d="M135.623,46.8965c-0.2295,0.5371-0.5449,1.0059-0.9453,1.4063s-0.8691,0.7158-1.4063,0.9453
		s-1.1084,0.3438-1.7139,0.3438h-1.2012c-0.6055,0-1.1768-0.1143-1.7139-0.3438s-1.0059-0.5449-1.4063-0.9453
		s-0.7148-0.8691-0.9443-1.4063s-0.3447-1.1084-0.3447-1.7139V38.415c0-0.6055,0.1152-1.1768,0.3447-1.7139
		s0.5439-1.0059,0.9443-1.4063s0.8691-0.7148,1.4063-0.9443s1.1084-0.3447,1.7139-0.3447h1.2012
		c0.6055,0,1.1768,0.1152,1.7139,0.3447s1.0059,0.5439,1.4063,0.9443s0.7158,0.8691,0.9453,1.4063s0.3438,1.1084,0.3438,1.7139
		v6.7676C135.9668,45.7881,135.8525,46.3594,135.623,46.8965z M134.165,38.3125c0-0.3613-0.0684-0.7002-0.2051-1.0176
		s-0.3223-0.5938-0.5566-0.8281s-0.5098-0.4199-0.8271-0.5566s-0.6572-0.2051-1.0186-0.2051h-1.2012
		c-0.3613,0-0.7002,0.0684-1.0176,0.2051s-0.5938,0.3223-0.8281,0.5566s-0.4199,0.5107-0.5566,0.8281s-0.2051,0.6563-0.2051,1.0176
		v6.9727c0,0.3613,0.0684,0.7012,0.2051,1.0186s0.3223,0.5928,0.5566,0.8271s0.5107,0.4199,0.8281,0.5566
		s0.6563,0.2051,1.0176,0.2051h1.2012c0.3613,0,0.7012-0.0684,1.0186-0.2051s0.5928-0.3223,0.8271-0.5566
		s0.4199-0.5098,0.5566-0.8271s0.2051-0.6572,0.2051-1.0186V38.3125z"/>
	<path class="st24" d="M143.9795,36.0127c-0.3613,0-0.7002,0.0684-1.0176,0.2051s-0.5938,0.3223-0.8281,0.5566
		s-0.4199,0.5107-0.5566,0.8281s-0.2051,0.6563-0.2051,1.0176v10.6787h-1.8018v-15h0.6006l0.9814,1.5234
		c0.4102-0.5566,0.9258-0.998,1.5459-1.3252s1.2959-0.4912,2.0283-0.4912h1.0547v2.0068H143.9795z"/>
</g>
</svg>
