<?xml version="1.0" encoding="utf-8"?>
<!-- Generator: Adobe Illustrator 21.0.2, SVG Export Plug-In . SVG Version: 6.00 Build 0)  -->
<svg version="1.1" id="Capa_1" xmlns="http://www.w3.org/2000/svg" xmlns:xlink="http://www.w3.org/1999/xlink" x="0px" y="0px"
	 viewBox="0 0 431.1533 100.3265" style="enable-background:new 0 0 431.1533 100.3265;" xml:space="preserve">
<style type="text/css">
	.st0{opacity:0.25;clip-path:url(#XMLID_4592_);}
	.st1{fill:#FFFFFF;}
	.st2{fill-rule:evenodd;clip-rule:evenodd;fill:#DDDDDD;}
	.st3{fill:#ACABC9;}
	.st4{fill:#3B86B1;}
	.st5{opacity:0.25;fill-rule:evenodd;clip-rule:evenodd;fill:#020202;}
	.st6{opacity:0.5;}
	.st7{fill-rule:evenodd;clip-rule:evenodd;fill:#A8A8A8;}
	.st8{fill-rule:evenodd;clip-rule:evenodd;fill:#FFFFFF;}
	.st9{fill-rule:evenodd;clip-rule:evenodd;fill:#3B86B1;}
	.st10{opacity:0.5;fill:#2C6882;}
	.st11{opacity:0.75;fill-rule:evenodd;clip-rule:evenodd;fill:#282828;}
	.st12{opacity:0.5;fill:#FFFFFF;}
	.st13{fill-rule:evenodd;clip-rule:evenodd;fill:none;stroke:#FFFFFF;stroke-miterlimit:10;}
	.st14{fill:none;stroke:#FFFFFF;stroke-miterlimit:10;}
	.st15{fill:#FFFFFF;stroke:#3B86B1;stroke-width:1.7139;stroke-miterlimit:10;}
	.st16{fill-rule:evenodd;clip-rule:evenodd;}
	.st17{opacity:0.85;fill:#FFFFFF;}
	.st18{opacity:0.5;fill-rule:evenodd;clip-rule:evenodd;}
	.st19{fill-rule:evenodd;clip-rule:evenodd;fill:#FEFEFE;}
	.st20{fill:#312767;}
	.st21{opacity:0.48;}
	.st22{opacity:0.25;}
	.st23{fill-rule:evenodd;clip-rule:evenodd;fill:#020202;}
	.st24{fill:#757575;}
	.st25{opacity:0.25;clip-path:url(#XMLID_4593_);}
	.st26{fill:#FFFFFF;stroke:#312767;stroke-miterlimit:10;}
	.st27{fill-rule:evenodd;clip-rule:evenodd;fill:#312767;}
	.st28{opacity:0.77;fill:#312767;}
	.st29{opacity:0.25;clip-path:url(#XMLID_4598_);}
	.st30{opacity:0.75;}
	.st31{fill-rule:evenodd;clip-rule:evenodd;fill:#282828;}
	.st32{fill:#9490B2;stroke:#2D2D2D;stroke-width:0.25;stroke-miterlimit:10;}
	.st33{fill:#312767;stroke:#2D2D2D;stroke-width:0.25;stroke-miterlimit:10;}
	.st34{fill:#FCFCFC;}
	.st35{fill:#FFFFFF;stroke:#2D2D2D;stroke-width:0.25;stroke-miterlimit:10;}
	.st36{fill-rule:evenodd;clip-rule:evenodd;fill:#484849;stroke:#2D2D2D;stroke-width:0.25;stroke-miterlimit:10;}
	.st37{fill-rule:evenodd;clip-rule:evenodd;fill:#312767;stroke:#2D2D2D;stroke-width:0.25;stroke-miterlimit:10;}
	.st38{fill-rule:evenodd;clip-rule:evenodd;fill:#FFFFFF;stroke:#2D2D2D;stroke-width:0.25;stroke-miterlimit:10;}
	.st39{fill:#484849;stroke:#2D2D2D;stroke-width:0.25;stroke-miterlimit:10;}
	.st40{fill:#FFFFFF;stroke:#FFFFFF;stroke-miterlimit:10;}
	.st41{fill:#54518C;}
	.st42{opacity:0.25;fill-rule:evenodd;clip-rule:evenodd;fill:#FFFFFF;}
	.st43{fill:#D4A800;}
	.st44{fill:#00AEB3;}
	.st45{fill:#38353B;}
	.st46{fill:#FF8400;}
	.st47{fill:#BF3900;}
	.st48{fill:#00AA9C;}
	.st49{opacity:0.25;clip-path:url(#XMLID_4609_);}
	.st50{fill:none;stroke:#ACABC9;stroke-width:5;stroke-miterlimit:10;}
	.st51{fill:#67A53F;}
	.st52{fill:#DDDDDD;}
	.st53{opacity:0.25;clip-path:url(#XMLID_4620_);}
	.st54{fill-rule:evenodd;clip-rule:evenodd;fill:#FFFFFF;stroke:#FFFFFF;stroke-miterlimit:10;}
	.st55{fill:#02897C;}
	.st56{fill:#0EAD9A;}
	.st57{fill:#28C6AF;}
	.st58{fill:#4FE0C7;}
	.st59{opacity:0.25;clip-path:url(#XMLID_4624_);}
	.st60{fill:#3CA7AF;}
	.st61{fill:#3DAD8D;}
	.st62{fill:#296E8C;}
	.st63{fill:#308E71;}
	.st64{fill:#2D8A8C;}
	.st65{opacity:0.25;clip-path:url(#XMLID_4628_);}
	.st66{opacity:0.77;fill:#FFFFFF;}
	.st67{fill:#50565B;stroke:#656C70;stroke-miterlimit:10;}
	.st68{fill:#808589;stroke:#656C70;stroke-miterlimit:10;}
	.st69{fill:#252728;stroke:#000000;stroke-miterlimit:10;}
	.st70{fill:#1A1B1C;stroke:#000000;stroke-miterlimit:10;}
	.st71{fill:#A0A6AA;}
	.st72{fill:#262C35;stroke:#161A1E;stroke-miterlimit:10;}
	.st73{fill:#181D23;}
	.st74{fill:#EABA96;stroke:#E0AA86;stroke-miterlimit:10;}
	.st75{fill:#E0AA86;}
	.st76{stroke:#000000;stroke-width:0.75;stroke-linecap:square;stroke-linejoin:bevel;stroke-miterlimit:10;}
	.st77{fill:#0F1C3F;stroke:#182951;stroke-miterlimit:10;}
	.st78{fill:#132354;stroke:#3F6093;stroke-miterlimit:10;}
	.st79{fill:#0F1C3F;}
	.st80{fill:none;stroke:#3F6093;stroke-width:0.75;stroke-miterlimit:10;}
	.st81{fill:#DBA682;}
	.st82{fill:none;stroke:#E0AA86;stroke-miterlimit:10;}
	.st83{fill:none;stroke:#E0AA86;stroke-linejoin:bevel;stroke-miterlimit:10;}
	.st84{fill:#8A0A8E;stroke:#AC34B2;stroke-miterlimit:10;}
	.st85{fill:#810C87;}
	.st86{fill:#680B6D;}
	.st87{fill:#AC34B2;stroke:#AC34B2;stroke-width:0.5;stroke-miterlimit:10;}
	.st88{fill:none;stroke:#959DA0;stroke-width:0.5;stroke-miterlimit:10;}
	.st89{fill:#959DA0;stroke:#959DA0;stroke-width:0.5;stroke-miterlimit:10;}
	.st90{fill:none;stroke:#AC34B2;stroke-miterlimit:10;}
	.st91{fill:#282828;stroke:#000000;stroke-miterlimit:10;}
	.st92{fill:#EABA96;stroke:#E0AA86;stroke-width:0.5;stroke-miterlimit:10;}
	.st93{fill:#B7896A;}
	.st94{stroke:#000000;stroke-miterlimit:10;}
	.st95{fill:#C1A578;}
	.st96{stroke:#000000;stroke-width:0.25;stroke-linecap:round;stroke-linejoin:round;stroke-miterlimit:10;}
	.st97{fill:#FFFFFF;stroke:#000000;stroke-width:0.25;stroke-linecap:round;stroke-linejoin:round;stroke-miterlimit:10;}
	.st98{fill:#70582D;}
	.st99{stroke:#000000;stroke-linecap:round;stroke-linejoin:round;stroke-miterlimit:10;}
	.st100{fill:none;stroke:#D8A27D;stroke-width:0.75;stroke-miterlimit:10;}
	.st101{fill:#561409;}
	.st102{fill:#BA2A13;}
	.st103{fill:#9E3025;stroke:#4C2311;stroke-width:0.25;stroke-miterlimit:10;}
	.st104{fill:#871D08;stroke:#4C2311;stroke-width:0.25;stroke-miterlimit:10;}
	.st105{fill:#DDAC8A;}
	.st106{fill:#A5ABAD;stroke:#959DA0;stroke-width:0.5;stroke-miterlimit:10;}
	.st107{fill:#B1BABC;}
	.st108{fill:none;stroke:#153847;stroke-width:5;stroke-miterlimit:10;}
	.st109{fill:#3DAA61;}
	.st110{fill:#95A340;}
	.st111{opacity:0.25;clip-path:url(#XMLID_4632_);}
	.st112{opacity:0.25;clip-path:url(#XMLID_4635_);}
	.st113{opacity:0.25;clip-path:url(#XMLID_4636_);}
	.st114{opacity:0.25;clip-path:url(#XMLID_4638_);}
	.st115{opacity:0.25;clip-path:url(#XMLID_4646_);}
	.st116{clip-path:url(#SVGID_2_);}
	.st117{fill:none;stroke:#3F6093;stroke-miterlimit:10;}
	.st118{fill:none;stroke:#3F6093;stroke-width:0.75;stroke-linecap:round;stroke-linejoin:round;}
	.st119{fill:none;stroke:#3F6093;stroke-width:0.75;stroke-linecap:round;stroke-linejoin:round;stroke-dasharray:0.9892,0.9892;}
	
		.st120{fill:none;stroke:#3F6093;stroke-width:0.75;stroke-linecap:round;stroke-linejoin:round;stroke-miterlimit:10;stroke-dasharray:1;}
	.st121{fill:#EAEAEA;stroke:#FFFFFF;stroke-width:0.25;stroke-miterlimit:10;}
	.st122{fill:#D8D8D8;}
	.st123{fill:#282828;stroke:#000000;stroke-width:0.75;stroke-miterlimit:10;}
	.st124{opacity:0.33;fill:#FFFFFF;}
	.st125{fill:none;stroke:#000000;stroke-width:1.5;stroke-linecap:round;stroke-linejoin:round;stroke-miterlimit:10;}
	.st126{opacity:0.64;}
	.st127{fill:#C9C9C9;}
	.st128{fill:#FFF064;}
	.st129{fill:#4F4E4F;}
	.st130{fill:#1E2F47;}
	.st131{opacity:0.1;fill:#FFFFFF;}
	.st132{opacity:0.1;}
	.st133{opacity:0.4;fill:#FFFFFF;}
	.st134{fill-rule:evenodd;clip-rule:evenodd;fill:#F39C12;}
	.st135{fill-rule:evenodd;clip-rule:evenodd;fill:#E6E6E6;}
	.st136{fill-rule:evenodd;clip-rule:evenodd;fill:#474646;}
	.st137{fill-rule:evenodd;clip-rule:evenodd;fill:#D84848;}
	.st138{opacity:0.2;fill-rule:evenodd;clip-rule:evenodd;fill:#231F20;}
	.st139{opacity:0.1;fill-rule:evenodd;clip-rule:evenodd;fill:#231F20;}
	.st140{fill-rule:evenodd;clip-rule:evenodd;fill:#4D4D4D;}
	.st141{fill-rule:evenodd;clip-rule:evenodd;fill:#336699;}
	.st142{fill-rule:evenodd;clip-rule:evenodd;fill:#FF6633;}
	.st143{fill-rule:evenodd;clip-rule:evenodd;fill:#0056A3;}
	.st144{fill-rule:evenodd;clip-rule:evenodd;fill:#33CC99;}
	.st145{fill:#CE6405;}
	.st146{opacity:0.2;fill:#FFFFFF;}
	.st147{fill:#1ABC9C;}
	.st148{opacity:0.2;}
	.st149{fill:#0B2E44;}
	.st150{fill-rule:evenodd;clip-rule:evenodd;fill:#154F77;}
	.st151{fill-rule:evenodd;clip-rule:evenodd;fill:#0D3858;}
	.st152{fill-rule:evenodd;clip-rule:evenodd;fill:#FFFEFE;}
	.st153{fill:#AEC647;}
	.st154{fill:#F3AE1B;}
	.st155{fill:#DF3F11;}
	.st156{fill:#BCDEDE;}
	.st157{fill:#C84119;}
	.st158{fill:#6BB5CE;}
	.st159{fill:#00D0E5;}
	.st160{fill:#FF81ED;}
	.st161{fill:#00C982;}
	.st162{opacity:0.7;}
	.st163{opacity:0.4;}
	.st164{fill-rule:evenodd;clip-rule:evenodd;fill:#0B2E44;}
	.st165{opacity:0.8;fill-rule:evenodd;clip-rule:evenodd;fill:#FFFFFF;}
	.st166{fill:#424242;}
	.st167{opacity:0.2;fill-rule:evenodd;clip-rule:evenodd;fill:#FFFFFF;}
	.st168{fill:#D0EDFA;}
	.st169{fill:#FF651F;}
	.st170{fill:#0051C4;}
	.st171{fill:#E46400;}
	.st172{fill:#C0003B;}
	.st173{fill:#FFEA50;}
	.st174{fill:#FF2C0D;}
	.st175{fill:#FF1A2C;}
	.st176{fill:#FF2C4D;}
	.st177{fill:#FFD74C;}
	.st178{fill:#4C4C4B;}
	.st179{fill:#6CD2EA;}
	.st180{fill:#F7674F;}
	.st181{opacity:0.1;fill-rule:evenodd;clip-rule:evenodd;}
	.st182{fill:#BABABA;}
	.st183{fill:#F9B946;}
	.st184{fill:#DFC2A9;}
	.st185{fill:#BFA490;}
	.st186{fill:#F5D4B2;}
	.st187{fill:#DF584C;}
	.st188{fill:#C2443E;}
	.st189{fill:#DBDBDA;}
	.st190{fill:#2F363E;}
	.st191{fill:#332524;}
	.st192{fill:#473735;}
	.st193{opacity:0.25;clip-path:url(#XMLID_4647_);}
	.st194{fill:#153847;}
	.st195{fill:#52B8BA;}
	.st196{fill:#35373E;}
	.st197{fill:#D37D00;}
	.st198{opacity:0.25;clip-path:url(#XMLID_4648_);}
	.st199{opacity:0.31;fill:#34383A;}
	.st200{opacity:0.16;fill:#3D3835;}
	.st201{fill:#D0D1D4;}
	.st202{opacity:0.31;}
	.st203{fill:#34383A;}
	.st204{opacity:0.16;}
	.st205{fill:#3D3835;}
	.st206{opacity:0.25;clip-path:url(#XMLID_4649_);}
	.st207{fill:#F9E1B4;}
	.st208{opacity:0.25;fill:#050505;}
	.st209{fill:#FCC60F;}
	.st210{fill:#74CAEA;}
	.st211{fill:#050505;}
	.st212{opacity:0.25;clip-path:url(#XMLID_4650_);}
	.st213{fill:#FABC8F;}
	.st214{fill:#3FA995;}
	.st215{opacity:0.17;fill:#020202;}
	.st216{fill:#E1E1E1;}
	.st217{opacity:0.17;}
	.st218{fill:#020202;}
	.st219{opacity:0.25;clip-path:url(#XMLID_4651_);}
	.st220{fill:#BF8E00;}
	.st221{fill:#F7D8D7;}
	.st222{fill:#F18636;}
	.st223{fill:#004460;}
	.st224{fill:#D93A37;}
	.st225{fill:#EDEDED;}
	.st226{fill:#184F78;}
	.st227{fill:#FF3E03;}
	.st228{opacity:0.6;fill:#0F0F0F;}
	.st229{fill:#E8E8E6;}
	.st230{fill:#00EAA6;}
	.st231{fill-rule:evenodd;clip-rule:evenodd;fill:#FF3E03;}
	.st232{opacity:0.1;fill-rule:evenodd;clip-rule:evenodd;fill:#020202;}
	.st233{fill-rule:evenodd;clip-rule:evenodd;fill:#FABE00;}
	.st234{fill-rule:evenodd;clip-rule:evenodd;fill:#E6E8E8;}
	.st235{fill-rule:evenodd;clip-rule:evenodd;fill:#F7D959;}
	.st236{fill-rule:evenodd;clip-rule:evenodd;fill:#F9623E;}
	.st237{fill:#4F1A0F;}
	.st238{opacity:0.46;fill:#FFFFFF;}
	.st239{fill:#48505A;}
	.st240{fill:#C3C3C3;}
	.st241{fill:#E9E9EA;}
	.st242{fill:#9D9E9F;}
	.st243{fill:#F6F4F4;}
	.st244{fill:#6B6A6A;}
	.st245{fill:#C09478;}
	.st246{fill:#F7CDA0;}
	.st247{fill:#9E1010;}
	.st248{fill:#F2F2F2;}
	.st249{opacity:0.2;fill:#060606;}
	.st250{fill:#16AFBE;}
	.st251{fill:#DD2222;}
	.st252{fill:#FFEDDC;}
	.st253{fill:#22272B;}
	.st254{fill:#5B6375;}
	.st255{fill:#F79748;}
	.st256{fill:#FF7900;}
	.st257{fill:#DD7105;}
</style>
<g>
	<path class="st60" d="M402.8547,100.3265H20.6617C9.2506,100.3265,0,91.0759,0,79.6647V38.7446
		c0-11.4112,9.2506-20.6617,20.6617-20.6617h382.1929c11.4112,0,20.6617,9.2506,20.6617,20.6617v40.9201
		C423.5164,91.0759,414.2658,100.3265,402.8547,100.3265z"/>
	<g>
		<path class="st64" d="M13.5166,36.0769c0,1.0212,0.3481,2.3845,1.041,3.4036c0,0,0.3396,0.3464,0.6836,0.6797
			c1.0193,1.0275,2.3738,1.72,4.0764,1.72c2.4043,0,4.4468-1.374,5.4614-3.7542c0.3442-0.6858,0.3442-1.3694,0.3442-2.0491
			c0-1.7028-0.3442-3.0768-1.3589-4.0913c-1.0234-1.0258-2.7351-1.7076-4.4468-1.7076
			C15.9209,30.2779,13.5166,32.667,13.5166,36.0769z"/>
		<path class="st64" d="M0,39.7446v14.1138c0,2.0903,0.3164,4.1057,0.8938,6.0074c0.5286,0.3021,1.1221,0.4257,1.7219,0.4257
			c0.6882,0,1.3674-0.3462,2.0471-0.6793l4.7815-3.421c0.6753,0.3439,1.6987,0.6882,2.3823,1.0236l1.3462,5.799
			c0.3438,1.707,1.7244,3.0659,3.4316,3.0659h5.1174c2.0425,0,3.4014-1.3589,3.7451-3.0659l1.3635-5.799
			c0.688-0.3353,1.3542-0.6797,2.395-1.0236l4.7644,3.421c0.6794,0.3331,1.3677,0.6793,2.0469,0.6793
			c1.019,0,2.0471-0.3462,2.7178-1.3718l3.7625-3.4077c1.0151-1.3611,1.3589-3.4103,0.3354-4.7759l-3.4097-4.7731
			c0.6707-1.0212,0.6707-1.7004,1.0278-2.724l5.7966-1.0256c1.7026-0.3333,3.0659-1.7073,3.0659-3.752V33.344
			c0-1.7004-1.3633-3.066-3.0659-3.4077l-5.7966-1.3611c-0.3572-0.6858-0.3572-1.7115-1.0278-2.3907l3.4097-4.7692
			c0.4734-0.7896,0.6438-1.5771,0.6011-2.3323h-22.792C9.2505,19.083,0,28.3335,0,39.7446z M29.2256,27.5473
			c2.0425,2.3889,3.0571,5.1196,3.0571,8.5295c0,0.342,0,0.342,0,0.6797c-0.3438,6.8201-5.8052,12.2814-12.9651,12.2814
			c-4.4204,0-8.1746-2.047-10.5613-5.1215C8.408,43.5766,8.408,43.239,8.0681,42.893c-1.0273-2.0408-2.0378-4.4316-2.0378-6.8162
			c0-7.1595,6.1318-13.3005,13.2874-13.3005C23.4202,22.7763,26.8306,24.8233,29.2256,27.5473z"/>
	</g>
	<g id="Concept_1_">
		<g id="Board_2_">
			<path class="st134" d="M319.4213,7.783h53.5005c2.0199,0,3.6679,1.7805,3.6679,3.9609v69.8627
				c0,2.1803-1.648,3.9692-3.6679,3.9692h-53.5005c-2.0126,0-3.6692-1.7889-3.6692-3.9692V11.7438
				C315.7521,9.5635,317.4087,7.783,319.4213,7.783L319.4213,7.783z"/>
			<rect x="318.7103" y="11.2383" class="st135" width="54.9286" height="70.875"/>
			<polygon class="st136" points="334.7687,0 357.5818,0 357.5818,11.2383 356.3105,11.2383 356.3105,1.4365 335.9633,1.4365 
				335.9633,11.2383 334.7687,11.2383 			"/>
			<path class="st137" d="M332.9614,6.6965h26.4216c0.5516,0,0.9977,0.4911,0.9977,1.0865v5.0388
				c0,0.5969-0.4461,1.0781-0.9977,1.0781h-26.4216c-0.5444,0-0.999-0.4813-0.999-1.0781V7.783
				C331.9623,7.1876,332.417,6.6965,332.9614,6.6965L332.9614,6.6965z"/>
			<path class="st138" d="M345.5328,6.6965h13.8502c0.5516,0,0.9977,0.4911,0.9977,1.0865v5.0388
				c0,0.5969-0.4461,1.0781-0.9977,1.0781h-13.8502V6.6965z"/>
			<path class="st139" d="M345.5328,7.783h27.3889c2.0199,0,3.6679,1.7805,3.6679,3.9609v69.8627
				c0,2.1803-1.648,3.9692-3.6679,3.9692h-27.3889V7.783z"/>
		</g>
		<g id="Paragraph_2_">
			<rect x="325.5187" y="24.477" class="st140" width="40.0284" height="1.298"/>
			<rect x="325.5187" y="27.5712" class="st141" width="40.0284" height="1.2992"/>
			<rect x="325.5187" y="30.4539" class="st140" width="40.0284" height="1.2992"/>
			<rect x="325.5187" y="33.5494" class="st140" width="40.0284" height="1.2992"/>
			<rect x="325.5187" y="36.5793" class="st141" width="40.0284" height="1.2907"/>
			<rect x="325.5187" y="39.4549" class="st140" width="40.0284" height="1.2991"/>
			<rect x="325.5187" y="42.5576" class="st140" width="40.0284" height="1.2907"/>
		</g>
		<g id="Diagram_2_">
			<rect x="324.6679" y="76.4875" class="st140" width="40.0284" height="1.0646"/>
			<path class="st142" d="M328.2533,65.5651L328.2533,65.5651c0.5748,0,1.05,0.4242,1.05,0.9359v9.7094h-2.1014v-9.7094
				C327.2019,65.9894,327.6699,65.5651,328.2533,65.5651L328.2533,65.5651z"/>
			<path class="st143" d="M332.3222,64.4119L332.3222,64.4119c0.5748,0,1.0511,0.4714,1.0511,1.0378v10.7607h-2.1012V65.4497
				C331.2722,64.8833,331.7399,64.4119,332.3222,64.4119L332.3222,64.4119z"/>
			<path class="st142" d="M336.3912,65.6052L336.3912,65.6052c0.576,0,1.0524,0.4242,1.0524,0.937v9.7484h-2.1025v-9.7484
				C335.3411,66.0295,335.8089,65.6052,336.3912,65.6052L336.3912,65.6052z"/>
			<path class="st143" d="M340.7943,60.0768L340.7943,60.0768c0.5748,0,1.0514,0.6404,1.0514,1.422v14.7919h-2.1027V61.4987
				C339.743,60.7172,340.2122,60.0768,340.7943,60.0768L340.7943,60.0768z"/>
			<path class="st142" d="M345.0602,66.0781L345.0602,66.0781c0.5821,0,1.0513,0.4035,1.0513,0.9017v9.3109h-2.1027v-9.3109
				C344.0088,66.4816,344.4854,66.0781,345.0602,66.0781L345.0602,66.0781z"/>
			<path class="st143" d="M349.394,70.1835h0.0086c0.5748,0,1.0428,0.2417,1.0428,0.5383v5.5688h-2.0952v-5.5688
				C348.3501,70.4253,348.8192,70.1835,349.394,70.1835L349.394,70.1835z"/>
			<path class="st143" d="M353.8653,60.1302L353.8653,60.1302c0.581,0,1.05,0.6404,1.05,1.4232v14.7372h-2.0952V61.5534
				C352.8202,60.7706,353.2892,60.1302,353.8653,60.1302L353.8653,60.1302z"/>
			<path class="st144" d="M357.7373,61.2021L357.7373,61.2021c0.5748,0,1.0524,0.6003,1.0524,1.3284v13.7601h-2.1037V62.5305
				C356.686,61.8024,357.1637,61.2021,357.7373,61.2021L357.7373,61.2021z"/>
			<path class="st142" d="M361.2704,57.4613L361.2704,57.4613c0.5821,0,1.0513,0.7414,1.0513,1.6516v17.1777h-2.1027V59.1129
				C360.219,58.2027,360.6956,57.4613,361.2704,57.4613L361.2704,57.4613z"/>
			<rect x="367.1928" y="60.9055" class="st142" width="3.7359" height="3.3314"/>
			<rect x="367.1928" y="66.4342" class="st144" width="3.7359" height="3.3312"/>
			<rect x="367.1928" y="72.0842" class="st143" width="3.7359" height="3.3301"/>
		</g>
	</g>
	<g id="Lens_2_">
		<path class="st145" d="M424.0463,46.7159c2.7537-0.9973,5.7931,0.4273,6.7898,3.1806l0,0c0.9951,2.7525-0.429,5.7918-3.1811,6.788
			l-27.2502,9.8635c-2.7525,0.9952-5.7924-0.4277-6.7886-3.18l0,0c-0.9962-2.7531,0.4277-5.7923,3.1804-6.7893L424.0463,46.7159z"/>
		<path class="st146" d="M422.2531,48.22c2.3345-0.8455,4.9137,0.3625,5.7582,2.6979l0,0c0.846,2.3353-0.3618,4.9142-2.697,5.7583
			l-23.1152,8.3676c-2.3352,0.845-4.9145-0.3629-5.7593-2.6976l0,0c-0.8453-2.3349,0.3629-4.9145,2.6978-5.7597L422.2531,48.22z"/>
		<path class="st132" d="M394.01,58.9198c-0.752,1.3053-0.9462,2.9205-0.3938,4.4483c0.482,1.3315,1.4452,2.3476,2.6205,2.934
			c0.6254-0.9235,0.6902-2.6109,0.0684-4.3281C395.7856,60.5368,394.9096,59.4261,394.01,58.9198z"/>
		<path class="st147" d="M357.5225,50.5585c-12.635,4.5737-19.17,18.5229-14.5961,31.1569
			c4.5729,12.6346,18.5226,19.1694,31.1572,14.5965c11.7042-4.2366,18.1655-16.5189,15.42-28.3477l5.9317-2.1476
			c0,0,2.0744-4.079-1.8165-6.0001l-6.296,2.278C381.7568,51.5014,369.0915,46.3709,357.5225,50.5585z M383.6948,66.9587
			c3.5764,9.8813-1.5353,20.7918-11.4158,24.3685c-9.8813,3.5764-20.7915-1.5347-24.3683-11.4152
			c-3.5767-9.8824,1.5346-20.7922,11.4154-24.3687C369.2073,51.9669,380.1176,57.0781,383.6948,66.9587z"/>
		<path class="st148" d="M346.891,70.4602c-0.4922,3.0801-0.2359,6.3232,0.9007,9.4634
			c3.3929,9.3726,13.3837,14.4477,22.8354,11.8931C352.5263,91.3554,347.9957,78.09,346.891,70.4602z"/>
	</g>
</g>
</svg>
