<?xml version="1.0" encoding="utf-8"?>
<!-- Generator: Adobe Illustrator 21.0.2, SVG Export Plug-In . SVG Version: 6.00 Build 0)  -->
<svg version="1.1" id="Capa_1" xmlns="http://www.w3.org/2000/svg" xmlns:xlink="http://www.w3.org/1999/xlink" x="0px" y="0px"
	 viewBox="0 0 427.005 532.7595" style="enable-background:new 0 0 427.005 532.7595;" xml:space="preserve">
<style type="text/css">
	.st0{opacity:0.25;clip-path:url(#XMLID_2968_);}
	.st1{fill:#FFFFFF;}
	.st2{fill-rule:evenodd;clip-rule:evenodd;fill:#DDDDDD;}
	.st3{fill:#ACABC9;}
	.st4{fill:#3B86B1;}
	.st5{opacity:0.25;fill-rule:evenodd;clip-rule:evenodd;fill:#020202;}
	.st6{opacity:0.5;}
	.st7{fill-rule:evenodd;clip-rule:evenodd;fill:#A8A8A8;}
	.st8{fill-rule:evenodd;clip-rule:evenodd;fill:#FFFFFF;}
	.st9{fill-rule:evenodd;clip-rule:evenodd;fill:#3B86B1;}
	.st10{opacity:0.5;fill:#2C6882;}
	.st11{opacity:0.75;fill-rule:evenodd;clip-rule:evenodd;fill:#282828;}
	.st12{opacity:0.5;fill:#FFFFFF;}
	.st13{fill-rule:evenodd;clip-rule:evenodd;fill:none;stroke:#FFFFFF;stroke-miterlimit:10;}
	.st14{fill:none;stroke:#FFFFFF;stroke-miterlimit:10;}
	.st15{fill:#FFFFFF;stroke:#3B86B1;stroke-width:1.7139;stroke-miterlimit:10;}
	.st16{fill-rule:evenodd;clip-rule:evenodd;}
	.st17{opacity:0.85;fill:#FFFFFF;}
	.st18{opacity:0.5;fill-rule:evenodd;clip-rule:evenodd;}
	.st19{fill-rule:evenodd;clip-rule:evenodd;fill:#FEFEFE;}
	.st20{fill:#312767;}
	.st21{opacity:0.48;}
	.st22{opacity:0.25;}
	.st23{fill-rule:evenodd;clip-rule:evenodd;fill:#020202;}
	.st24{fill:#757575;}
	.st25{opacity:0.25;clip-path:url(#XMLID_2969_);}
	.st26{fill:#FFFFFF;stroke:#312767;stroke-miterlimit:10;}
	.st27{fill-rule:evenodd;clip-rule:evenodd;fill:#312767;}
	.st28{opacity:0.77;fill:#312767;}
	.st29{opacity:0.25;clip-path:url(#XMLID_2970_);}
	.st30{opacity:0.75;}
	.st31{fill-rule:evenodd;clip-rule:evenodd;fill:#282828;}
	.st32{fill:#9490B2;stroke:#2D2D2D;stroke-width:0.25;stroke-miterlimit:10;}
	.st33{fill:#312767;stroke:#2D2D2D;stroke-width:0.25;stroke-miterlimit:10;}
	.st34{fill:#FCFCFC;}
	.st35{fill:#FFFFFF;stroke:#2D2D2D;stroke-width:0.25;stroke-miterlimit:10;}
	.st36{fill-rule:evenodd;clip-rule:evenodd;fill:#484849;stroke:#2D2D2D;stroke-width:0.25;stroke-miterlimit:10;}
	.st37{fill-rule:evenodd;clip-rule:evenodd;fill:#312767;stroke:#2D2D2D;stroke-width:0.25;stroke-miterlimit:10;}
	.st38{fill-rule:evenodd;clip-rule:evenodd;fill:#FFFFFF;stroke:#2D2D2D;stroke-width:0.25;stroke-miterlimit:10;}
	.st39{fill:#484849;stroke:#2D2D2D;stroke-width:0.25;stroke-miterlimit:10;}
	.st40{fill:#FFFFFF;stroke:#FFFFFF;stroke-miterlimit:10;}
	.st41{fill:#54518C;}
	.st42{opacity:0.25;fill-rule:evenodd;clip-rule:evenodd;fill:#FFFFFF;}
	.st43{fill:#D4A800;}
	.st44{fill:#00AEB3;}
	.st45{fill:#38353B;}
	.st46{fill:#FF8400;}
	.st47{fill:#BF3900;}
	.st48{fill:#00AA9C;}
	.st49{opacity:0.25;clip-path:url(#XMLID_2971_);}
	.st50{fill:none;stroke:#ACABC9;stroke-width:5;stroke-miterlimit:10;}
	.st51{fill:#67A53F;}
	.st52{fill:#DDDDDD;}
	.st53{opacity:0.25;clip-path:url(#XMLID_2972_);}
	.st54{fill-rule:evenodd;clip-rule:evenodd;fill:#FFFFFF;stroke:#FFFFFF;stroke-miterlimit:10;}
	.st55{fill:#02897C;}
	.st56{fill:#0EAD9A;}
	.st57{fill:#28C6AF;}
	.st58{fill:#4FE0C7;}
	.st59{opacity:0.25;clip-path:url(#XMLID_2973_);}
	.st60{fill:#3CA7AF;}
	.st61{fill:#3DAD8D;}
	.st62{fill:#296E8C;}
	.st63{fill:#308E71;}
	.st64{fill:#2D8A8C;}
	.st65{opacity:0.25;clip-path:url(#XMLID_2974_);}
	.st66{opacity:0.77;fill:#FFFFFF;}
	.st67{fill:#50565B;stroke:#656C70;stroke-miterlimit:10;}
	.st68{fill:#808589;stroke:#656C70;stroke-miterlimit:10;}
	.st69{fill:#252728;stroke:#000000;stroke-miterlimit:10;}
	.st70{fill:#1A1B1C;stroke:#000000;stroke-miterlimit:10;}
	.st71{fill:#A0A6AA;}
	.st72{fill:#262C35;stroke:#161A1E;stroke-miterlimit:10;}
	.st73{fill:#181D23;}
	.st74{fill:#EABA96;stroke:#E0AA86;stroke-miterlimit:10;}
	.st75{fill:#E0AA86;}
	.st76{stroke:#000000;stroke-width:0.75;stroke-linecap:square;stroke-linejoin:bevel;stroke-miterlimit:10;}
	.st77{fill:#0F1C3F;stroke:#182951;stroke-miterlimit:10;}
	.st78{fill:#132354;stroke:#3F6093;stroke-miterlimit:10;}
	.st79{fill:#0F1C3F;}
	.st80{fill:none;stroke:#3F6093;stroke-width:0.75;stroke-miterlimit:10;}
	.st81{fill:#DBA682;}
	.st82{fill:none;stroke:#E0AA86;stroke-miterlimit:10;}
	.st83{fill:none;stroke:#E0AA86;stroke-linejoin:bevel;stroke-miterlimit:10;}
	.st84{fill:#8A0A8E;stroke:#AC34B2;stroke-miterlimit:10;}
	.st85{fill:#810C87;}
	.st86{fill:#680B6D;}
	.st87{fill:#AC34B2;stroke:#AC34B2;stroke-width:0.5;stroke-miterlimit:10;}
	.st88{fill:none;stroke:#959DA0;stroke-width:0.5;stroke-miterlimit:10;}
	.st89{fill:#959DA0;stroke:#959DA0;stroke-width:0.5;stroke-miterlimit:10;}
	.st90{fill:none;stroke:#AC34B2;stroke-miterlimit:10;}
	.st91{fill:#282828;stroke:#000000;stroke-miterlimit:10;}
	.st92{fill:#EABA96;stroke:#E0AA86;stroke-width:0.5;stroke-miterlimit:10;}
	.st93{fill:#B7896A;}
	.st94{stroke:#000000;stroke-miterlimit:10;}
	.st95{fill:#C1A578;}
	.st96{stroke:#000000;stroke-width:0.25;stroke-linecap:round;stroke-linejoin:round;stroke-miterlimit:10;}
	.st97{fill:#FFFFFF;stroke:#000000;stroke-width:0.25;stroke-linecap:round;stroke-linejoin:round;stroke-miterlimit:10;}
	.st98{fill:#70582D;}
	.st99{stroke:#000000;stroke-linecap:round;stroke-linejoin:round;stroke-miterlimit:10;}
	.st100{fill:none;stroke:#D8A27D;stroke-width:0.75;stroke-miterlimit:10;}
	.st101{fill:#561409;}
	.st102{fill:#BA2A13;}
	.st103{fill:#9E3025;stroke:#4C2311;stroke-width:0.25;stroke-miterlimit:10;}
	.st104{fill:#871D08;stroke:#4C2311;stroke-width:0.25;stroke-miterlimit:10;}
	.st105{fill:#DDAC8A;}
	.st106{fill:#A5ABAD;stroke:#959DA0;stroke-width:0.5;stroke-miterlimit:10;}
	.st107{fill:#B1BABC;}
	.st108{fill:none;stroke:#153847;stroke-width:5;stroke-miterlimit:10;}
	.st109{fill:#3DAA61;}
	.st110{fill:#95A340;}
	.st111{opacity:0.25;clip-path:url(#XMLID_2975_);}
	.st112{opacity:0.25;clip-path:url(#XMLID_2976_);}
	.st113{opacity:0.25;clip-path:url(#XMLID_2977_);}
	.st114{opacity:0.25;clip-path:url(#XMLID_2978_);}
	.st115{opacity:0.25;clip-path:url(#XMLID_2979_);}
	.st116{clip-path:url(#SVGID_2_);}
	.st117{fill:none;stroke:#3F6093;stroke-miterlimit:10;}
	.st118{fill:none;stroke:#3F6093;stroke-width:0.75;stroke-linecap:round;stroke-linejoin:round;}
	.st119{fill:none;stroke:#3F6093;stroke-width:0.75;stroke-linecap:round;stroke-linejoin:round;stroke-dasharray:0.9892,0.9892;}
	
		.st120{fill:none;stroke:#3F6093;stroke-width:0.75;stroke-linecap:round;stroke-linejoin:round;stroke-miterlimit:10;stroke-dasharray:1;}
	.st121{fill:#EAEAEA;stroke:#FFFFFF;stroke-width:0.25;stroke-miterlimit:10;}
	.st122{fill:#D8D8D8;}
	.st123{fill:#282828;stroke:#000000;stroke-width:0.75;stroke-miterlimit:10;}
	.st124{opacity:0.33;fill:#FFFFFF;}
	.st125{fill:none;stroke:#000000;stroke-width:1.5;stroke-linecap:round;stroke-linejoin:round;stroke-miterlimit:10;}
	.st126{opacity:0.64;}
	.st127{fill:#C9C9C9;}
	.st128{fill:#FFF064;}
	.st129{fill:#4F4E4F;}
	.st130{fill:#1E2F47;}
	.st131{opacity:0.1;fill:#FFFFFF;}
	.st132{opacity:0.1;}
	.st133{opacity:0.4;fill:#FFFFFF;}
	.st134{fill-rule:evenodd;clip-rule:evenodd;fill:#F39C12;}
	.st135{fill-rule:evenodd;clip-rule:evenodd;fill:#E6E6E6;}
	.st136{fill-rule:evenodd;clip-rule:evenodd;fill:#474646;}
	.st137{fill-rule:evenodd;clip-rule:evenodd;fill:#D84848;}
	.st138{opacity:0.2;fill-rule:evenodd;clip-rule:evenodd;fill:#231F20;}
	.st139{opacity:0.1;fill-rule:evenodd;clip-rule:evenodd;fill:#231F20;}
	.st140{fill-rule:evenodd;clip-rule:evenodd;fill:#4D4D4D;}
	.st141{fill-rule:evenodd;clip-rule:evenodd;fill:#336699;}
	.st142{fill-rule:evenodd;clip-rule:evenodd;fill:#FF6633;}
	.st143{fill-rule:evenodd;clip-rule:evenodd;fill:#0056A3;}
	.st144{fill-rule:evenodd;clip-rule:evenodd;fill:#33CC99;}
	.st145{fill:#CE6405;}
	.st146{opacity:0.2;fill:#FFFFFF;}
	.st147{fill:#1ABC9C;}
	.st148{opacity:0.2;}
	.st149{fill:#0B2E44;}
	.st150{fill-rule:evenodd;clip-rule:evenodd;fill:#154F77;}
	.st151{fill-rule:evenodd;clip-rule:evenodd;fill:#0D3858;}
	.st152{fill-rule:evenodd;clip-rule:evenodd;fill:#FFFEFE;}
	.st153{fill:#AEC647;}
	.st154{fill:#F3AE1B;}
	.st155{fill:#DF3F11;}
	.st156{fill:#BCDEDE;}
	.st157{fill:#C84119;}
	.st158{fill:#6BB5CE;}
	.st159{fill:#00D0E5;}
	.st160{fill:#FF81ED;}
	.st161{fill:#00C982;}
	.st162{opacity:0.7;}
	.st163{opacity:0.4;}
	.st164{fill-rule:evenodd;clip-rule:evenodd;fill:#0B2E44;}
	.st165{opacity:0.8;fill-rule:evenodd;clip-rule:evenodd;fill:#FFFFFF;}
	.st166{fill:#424242;}
	.st167{opacity:0.2;fill-rule:evenodd;clip-rule:evenodd;fill:#FFFFFF;}
	.st168{fill:#D0EDFA;}
	.st169{fill:#FF651F;}
	.st170{fill:#0051C4;}
	.st171{fill:#E46400;}
	.st172{fill:#C0003B;}
	.st173{fill:#FFEA50;}
	.st174{fill:#FF2C0D;}
	.st175{fill:#FF1A2C;}
	.st176{fill:#FF2C4D;}
	.st177{fill:#FFD74C;}
	.st178{fill:#4C4C4B;}
	.st179{fill:#6CD2EA;}
	.st180{fill:#F7674F;}
	.st181{opacity:0.1;fill-rule:evenodd;clip-rule:evenodd;}
	.st182{fill:#BABABA;}
	.st183{fill:#F9B946;}
	.st184{fill:#DFC2A9;}
	.st185{fill:#BFA490;}
	.st186{fill:#F5D4B2;}
	.st187{fill:#DF584C;}
	.st188{fill:#C2443E;}
	.st189{fill:#DBDBDA;}
	.st190{fill:#2F363E;}
	.st191{fill:#332524;}
	.st192{fill:#473735;}
	.st193{opacity:0.25;clip-path:url(#XMLID_2980_);}
	.st194{fill:#52B8BA;}
	.st195{fill:#35373E;}
	.st196{fill:#D37D00;}
	.st197{opacity:0.25;clip-path:url(#XMLID_2981_);}
	.st198{opacity:0.31;fill:#34383A;}
	.st199{opacity:0.16;fill:#3D3835;}
	.st200{fill:#D0D1D4;}
	.st201{opacity:0.31;}
	.st202{fill:#34383A;}
	.st203{opacity:0.16;}
	.st204{fill:#3D3835;}
	.st205{opacity:0.25;clip-path:url(#XMLID_2982_);}
	.st206{fill:#F9E1B4;}
	.st207{opacity:0.25;fill:#050505;}
	.st208{fill:#FCC60F;}
	.st209{fill:#74CAEA;}
	.st210{fill:#050505;}
	.st211{opacity:0.25;clip-path:url(#XMLID_2983_);}
	.st212{fill:#FABC8F;}
	.st213{fill:#3FA995;}
	.st214{opacity:0.17;fill:#020202;}
	.st215{fill:#E1E1E1;}
	.st216{opacity:0.17;}
	.st217{fill:#020202;}
	.st218{opacity:0.25;clip-path:url(#XMLID_2984_);}
	.st219{fill:#BF8E00;}
	.st220{fill:#F7D8D7;}
	.st221{fill:#F18636;}
	.st222{fill:#004460;}
	.st223{fill:#D93A37;}
	.st224{fill:#EDEDED;}
	.st225{fill:#184F78;}
	.st226{fill:#FF3E03;}
	.st227{opacity:0.6;fill:#0F0F0F;}
	.st228{fill:#E8E8E6;}
	.st229{fill:#00EAA6;}
	.st230{fill-rule:evenodd;clip-rule:evenodd;fill:#FF3E03;}
	.st231{opacity:0.1;fill-rule:evenodd;clip-rule:evenodd;fill:#020202;}
	.st232{fill-rule:evenodd;clip-rule:evenodd;fill:#FABE00;}
	.st233{fill-rule:evenodd;clip-rule:evenodd;fill:#E6E8E8;}
	.st234{fill-rule:evenodd;clip-rule:evenodd;fill:#F7D959;}
	.st235{fill-rule:evenodd;clip-rule:evenodd;fill:#F9623E;}
	.st236{fill:#4F1A0F;}
	.st237{opacity:0.46;fill:#FFFFFF;}
	.st238{fill:#48505A;}
	.st239{fill:#C3C3C3;}
	.st240{fill:#E9E9EA;}
	.st241{fill:#9D9E9F;}
	.st242{fill:#F6F4F4;}
	.st243{fill:#6B6A6A;}
	.st244{fill:#C09478;}
	.st245{fill:#F7CDA0;}
	.st246{fill:#9E1010;}
	.st247{fill:#F2F2F2;}
	.st248{opacity:0.2;fill:#060606;}
	.st249{fill:#16AFBE;}
	.st250{fill:#DD2222;}
	.st251{fill:#FFEDDC;}
	.st252{fill:#22272B;}
	.st253{fill:#5B6375;}
	.st254{fill:#F79748;}
	.st255{fill:#FF7900;}
	.st256{fill:#DD7105;}
	.st257{fill:#556071;}
	.st258{fill:#FBFBFB;}
	.st259{fill:#BCBDC1;}
	.st260{fill:#6D6D6D;}
	.st261{fill:#D3D3D3;}
	.st262{fill:#3C6BAF;stroke:#3C6BAF;stroke-miterlimit:10;}
	.st263{fill:none;stroke:#153847;stroke-width:4;stroke-miterlimit:10;}
	.st264{fill:#153847;}
</style>
<g>
	<g>
		<path class="st4" d="M24.3451,2.7972h375.1071c13.4454,0,24.3451,10.8997,24.3451,24.3451v505.6172H0V27.1422
			C0,13.6968,10.8997,2.7972,24.3451,2.7972z"/>
	</g>
	<g>
		<circle class="st52" cx="406.6325" cy="20.3725" r="20.3725"/>
	</g>
	<g id="XMLID_3721_">
		<g id="XMLID_3726_">
			<path class="st1" d="M412.2998,14.7051c0.963,0.9631,0.963,2.5249,0,3.4879l-2.1796,2.1795l2.1798,2.1798
				c0.963,0.9631,0.9628,2.5245-0.0002,3.4876c-0.9631,0.9631-2.5246,0.9633-3.4876,0.0003l-2.1797-2.1798l-2.1796,2.1795
				c-0.963,0.963-2.5248,0.963-3.4878-0.0001c-0.9631-0.9631-0.9628-2.5246,0.0002-3.4876l2.1795-2.1795l-2.1797-2.1798
				c-0.9631-0.9631-0.9631-2.5249,0-3.4879c0.963-0.9631,2.5248-0.963,3.4878,0.0001l2.1798,2.1798l2.1795-2.1795
				C409.7755,13.742,411.3368,13.742,412.2998,14.7051L412.2998,14.7051z M412.2998,14.7051"/>
			<path class="st20" d="M410.5555,27.262c-0.792,0-1.5371-0.3076-2.0967-0.8682l-1.8262-1.8262l-1.8262,1.8262
				c-1.1563,1.1563-3.0371,1.1572-4.1953-0.001c-1.1563-1.1563-1.1553-3.0381,0.001-4.1943l1.8252-1.8262l-1.8262-1.8262
				c-1.1563-1.1563-1.1563-3.0381,0-4.1943c1.1572-1.1563,3.04-1.1543,4.1953,0l1.8262,1.8262l1.8262-1.8262
				c1.1553-1.1553,3.0371-1.1572,4.1943,0c1.1563,1.1563,1.1563,3.0381,0,4.1943l-1.8262,1.8262l1.8262,1.8262
				c0.5605,0.5596,0.8691,1.3047,0.8691,2.0977c0,0.792-0.3086,1.5361-0.8691,2.0967c-0.5596,0.5605-1.3047,0.8691-2.0967,0.8691
				H410.5555z M406.6326,23.1536l2.5332,2.5332c0.3711,0.3711,0.8643,0.5752,1.3896,0.5752l0,0
				c0.5254,0,1.0195-0.2041,1.3906-0.5762c0.3711-0.3711,0.5762-0.8652,0.5762-1.3906c0-0.5244-0.2041-1.0186-0.5762-1.3896
				l-2.5332-2.5332l2.5332-2.5332c0.7666-0.7666,0.7666-2.0137,0-2.7803c-0.7656-0.7656-2.0146-0.7646-2.7803,0l-2.5332,2.5332
				l-2.5332-2.5332c-0.7656-0.7656-2.0137-0.7666-2.7813,0c-0.7666,0.7666-0.7666,2.0137,0,2.7803l2.5332,2.5332l-2.5322,2.5332
				c-0.7666,0.7666-0.7676,2.0137-0.001,2.7803c0.7656,0.7666,2.0137,0.7666,2.7813,0.001L406.6326,23.1536z"/>
		</g>
		<g id="XMLID_3722_">
			<path class="st20" d="M394.3757,32.6292c-6.7323-6.7323-6.7321-17.6867,0.0003-24.4191c6.7321-6.7321,17.6865-6.7323,24.4189,0
				c6.7324,6.7324,6.7327,17.6867,0.0003,24.4191C412.0627,39.3616,401.1081,39.3616,394.3757,32.6292L394.3757,32.6292z
				 M416.1248,10.8801c-5.2602-5.2602-13.819-5.26-19.0789,0c-5.2603,5.2603-5.2602,13.8192-0.0003,19.0792
				c5.2603,5.2603,13.8192,5.2603,19.0794,0C421.3851,24.6993,421.3851,16.1404,416.1248,10.8801L416.1248,10.8801z
				 M417.0762,9.9287"/>
		</g>
	</g>
</g>
<g>
	<g>
		<path class="st1" d="M109.7518,48.0648h-7.3037l-1.5117,5.373h-2.1563l6.7568-23.0674h1.0938l6.7881,23.0674h-2.1396
			L109.7518,48.0648z M103.0115,46.0862h6.1934l-3.041-10.6328l-0.0645-0.8525l-0.0645,0.8525L103.0115,46.0862z"/>
		<path class="st1" d="M116.3787,53.4378V30.3704h1.9795v23.0674H116.3787z"/>
		<path class="st1" d="M128.9744,53.4378c-0.6006,0-1.166-0.1123-1.6973-0.3379c-0.5303-0.2256-0.9912-0.5361-1.3828-0.9326
			s-0.7031-0.8584-0.9336-1.3838s-0.3457-1.0879-0.3457-1.6895V38.848h-2.96v-1.8828h2.96v-3.957l1.9785-0.3213v4.2783h4.1826
			v1.8828h-4.1826v10.3428c0,0.333,0.0615,0.6416,0.1855,0.9248c0.123,0.2852,0.292,0.5342,0.5068,0.748
			c0.2139,0.2148,0.4658,0.3838,0.7559,0.5068c0.2891,0.124,0.6006,0.1855,0.9326,0.1855h1.8018v1.8818H128.9744z"/>
		<path class="st1" d="M145.0369,50.8001c-0.252,0.5898-0.5977,1.1045-1.0371,1.5439c-0.4404,0.4395-0.9551,0.7852-1.5449,1.0371
			s-1.2168,0.3779-1.8818,0.3779h-1.3193c-0.665,0-1.292-0.126-1.8818-0.3779s-1.1045-0.5977-1.5439-1.0371
			c-0.4404-0.4395-0.7861-0.9541-1.0381-1.5439s-0.3779-1.2178-0.3779-1.8828v-7.4316c0-0.665,0.126-1.292,0.3779-1.8818
			s0.5977-1.1045,1.0381-1.5449c0.4395-0.4395,0.9541-0.7852,1.5439-1.0371s1.2168-0.3779,1.8818-0.3779h1.3193
			c0.665,0,1.292,0.126,1.8818,0.3779s1.1045,0.5977,1.5449,1.0371c0.4395,0.4404,0.7852,0.9551,1.0371,1.5449
			s0.3779,1.2168,0.3779,1.8818v3.877h-9.0244v3.668c0,0.3965,0.0752,0.7695,0.2256,1.1172
			c0.1494,0.3486,0.3535,0.6523,0.6113,0.9092c0.2568,0.2578,0.5596,0.4609,0.9082,0.6113s0.7217,0.2256,1.1182,0.2256h1.3193
			c0.3965,0,0.7695-0.0752,1.1182-0.2256s0.6514-0.3535,0.9092-0.6113c0.2568-0.2568,0.4609-0.5605,0.6113-0.9092
			c0.1494-0.3477,0.2246-0.7207,0.2246-1.1172v-1.0947l1.9785,0.3223v0.6592C145.4149,49.5823,145.2889,50.2103,145.0369,50.8001z
			 M143.4363,41.3733c0-0.3965-0.0752-0.7695-0.2246-1.1182c-0.1504-0.3486-0.3545-0.6514-0.6113-0.9092
			c-0.2578-0.2568-0.5605-0.4609-0.9092-0.6113c-0.3486-0.1494-0.7217-0.2246-1.1182-0.2246h-1.3193
			c-0.3965,0-0.7695,0.0752-1.1182,0.2246c-0.3486,0.1504-0.6514,0.3545-0.9082,0.6113c-0.2578,0.2578-0.4619,0.5605-0.6113,0.9092
			c-0.1504,0.3486-0.2256,0.7217-0.2256,1.1182v2.4453h7.0459V41.3733z"/>
		<path class="st1" d="M154.2137,38.848c-0.3965,0-0.7695,0.0742-1.1182,0.2246s-0.6514,0.3545-0.9082,0.6113
			c-0.2578,0.2578-0.4619,0.5605-0.6113,0.9092c-0.1504,0.3486-0.2256,0.7207-0.2256,1.1182v11.7266h-1.9785V36.9651h0.6592
			l1.0781,1.6729c0.4502-0.6113,1.0156-1.0957,1.6973-1.4551c0.6807-0.3594,1.4238-0.5391,2.2275-0.5391h1.1582v2.2041H154.2137z"/>
		<path class="st1" d="M159.3299,33.0081v-2.6377h2.2998v2.6377H159.3299z M159.4901,53.4378V36.9651h1.9795v16.4727H159.4901z"/>
		<path class="st1" d="M176.4295,53.4378l-1.0938-1.6729c-0.4502,0.6113-1.0137,1.0967-1.6895,1.4561
			c-0.6758,0.3584-1.415,0.5381-2.2197,0.5381h-0.499c-0.665,0-1.292-0.126-1.8818-0.3779s-1.1045-0.5977-1.5439-1.0371
			c-0.4404-0.4395-0.7861-0.9541-1.0381-1.5439s-0.3779-1.2178-0.3779-1.8828v-7.4316c0-0.665,0.126-1.292,0.3779-1.8818
			s0.5977-1.1045,1.0381-1.5449c0.4395-0.4395,0.9541-0.7852,1.5439-1.0371s1.2168-0.3779,1.8818-0.3779h0.499
			c0.7402,0,1.4258,0.1504,2.0586,0.4502c0.6328,0.3008,1.1748,0.7188,1.625,1.2549v-7.9785h1.9785v23.0674H176.4295z
			 M175.1102,41.3733c0-0.3965-0.0752-0.7695-0.2246-1.1182c-0.1504-0.3486-0.3545-0.6514-0.6113-0.9092
			c-0.2578-0.2568-0.5605-0.4609-0.9092-0.6113c-0.3486-0.1494-0.7217-0.2246-1.1182-0.2246h-1.3193
			c-0.3965,0-0.7695,0.0752-1.1182,0.2246c-0.3486,0.1504-0.6514,0.3545-0.9082,0.6113c-0.2578,0.2578-0.4619,0.5605-0.6113,0.9092
			c-0.1504,0.3486-0.2256,0.7217-0.2256,1.1182v7.6572c0,0.3965,0.0752,0.7695,0.2256,1.1172
			c0.1494,0.3486,0.3535,0.6523,0.6113,0.9092c0.2568,0.2578,0.5596,0.4609,0.9082,0.6113s0.7217,0.2256,1.1182,0.2256h1.3193
			c0.3965,0,0.7695-0.0752,1.1182-0.2256s0.6514-0.3535,0.9092-0.6113c0.2568-0.2568,0.4609-0.5605,0.6113-0.9092
			c0.1494-0.3477,0.2246-0.7207,0.2246-1.1172V41.3733z"/>
		<path class="st1" d="M191.3895,53.4378l-1.0938-1.6406c-0.4502,0.5898-1.0137,1.0645-1.6895,1.4238
			c-0.6758,0.3584-1.415,0.5381-2.2197,0.5381h-0.499c-0.665,0-1.292-0.126-1.8818-0.3779s-1.1045-0.5977-1.5439-1.0371
			c-0.4404-0.4395-0.7861-0.9541-1.0381-1.5439s-0.3779-1.2178-0.3779-1.8828v-0.1602c0-0.665,0.126-1.293,0.3779-1.8828
			s0.5977-1.1045,1.0381-1.5439c0.4395-0.4395,0.9541-0.7852,1.5439-1.0381c0.5898-0.251,1.2168-0.3779,1.8818-0.3779h4.1826v-2.541
			c0-0.3965-0.0752-0.7695-0.2246-1.1182c-0.1504-0.3486-0.3545-0.6514-0.6113-0.9092c-0.2578-0.2568-0.5605-0.4609-0.9092-0.6113
			c-0.3486-0.1494-0.7217-0.2246-1.1182-0.2246h-1.1582c-0.3965,0-0.7695,0.0752-1.1182,0.2246
			c-0.3486,0.1504-0.6514,0.3545-0.9092,0.6113c-0.2568,0.2578-0.4609,0.5605-0.6104,0.9092
			c-0.1504,0.3486-0.2256,0.7217-0.2256,1.1182v0.5947l-1.9785-0.3213v-0.1611c0-0.665,0.126-1.292,0.3779-1.8818
			s0.5977-1.1045,1.0371-1.5449c0.4404-0.4395,0.9551-0.7852,1.5449-1.0371s1.2168-0.3779,1.8818-0.3779h1.1582
			c0.665,0,1.292,0.126,1.8818,0.3779s1.1045,0.5977,1.5449,1.0371c0.4395,0.4404,0.7852,0.9551,1.0371,1.5449
			s0.3779,1.2168,0.3779,1.8818v11.9521H191.3895z M190.0701,45.4593h-4.1826c-0.3965,0-0.7695,0.0752-1.1182,0.2246
			c-0.3486,0.1504-0.6514,0.3574-0.9082,0.6191c-0.2578,0.2637-0.4619,0.5693-0.6113,0.917
			c-0.1504,0.3486-0.2256,0.7217-0.2256,1.1182v0.6924c0,0.3965,0.0752,0.7695,0.2256,1.1172
			c0.1494,0.3486,0.3535,0.6523,0.6113,0.9092c0.2568,0.2578,0.5596,0.4609,0.9082,0.6113s0.7217,0.2256,1.1182,0.2256h1.3193
			c0.3965,0,0.7695-0.0752,1.1182-0.2256s0.6514-0.3535,0.9092-0.6113c0.2568-0.2568,0.4609-0.5605,0.6113-0.9092
			c0.1494-0.3477,0.2246-0.7207,0.2246-1.1172V45.4593z"/>
		<path class="st1" d="M206.3494,53.4378l-1.0938-1.6729c-0.4502,0.6113-1.0137,1.0967-1.6895,1.4561
			c-0.6758,0.3584-1.415,0.5381-2.2197,0.5381h-0.499c-0.665,0-1.292-0.126-1.8818-0.3779s-1.1045-0.5977-1.5439-1.0371
			c-0.4404-0.4395-0.7861-0.9541-1.0381-1.5439s-0.3779-1.2178-0.3779-1.8828v-7.4316c0-0.665,0.126-1.292,0.3779-1.8818
			s0.5977-1.1045,1.0381-1.5449c0.4395-0.4395,0.9541-0.7852,1.5439-1.0371s1.2168-0.3779,1.8818-0.3779h0.499
			c0.7402,0,1.4258,0.1504,2.0586,0.4502c0.6328,0.3008,1.1748,0.7188,1.625,1.2549v-7.9785h1.9785v23.0674H206.3494z
			 M205.0301,41.3733c0-0.3965-0.0752-0.7695-0.2246-1.1182c-0.1504-0.3486-0.3545-0.6514-0.6113-0.9092
			c-0.2578-0.2568-0.5605-0.4609-0.9092-0.6113c-0.3486-0.1494-0.7217-0.2246-1.1182-0.2246h-1.3193
			c-0.3965,0-0.7695,0.0752-1.1182,0.2246c-0.3486,0.1504-0.6514,0.3545-0.9082,0.6113c-0.2578,0.2578-0.4619,0.5605-0.6113,0.9092
			c-0.1504,0.3486-0.2256,0.7217-0.2256,1.1182v7.6572c0,0.3965,0.0752,0.7695,0.2256,1.1172
			c0.1494,0.3486,0.3535,0.6523,0.6113,0.9092c0.2568,0.2578,0.5596,0.4609,0.9082,0.6113s0.7217,0.2256,1.1182,0.2256h1.3193
			c0.3965,0,0.7695-0.0752,1.1182-0.2256s0.6514-0.3535,0.9092-0.6113c0.2568-0.2568,0.4609-0.5605,0.6113-0.9092
			c0.1494-0.3477,0.2246-0.7207,0.2246-1.1172V41.3733z"/>
		<path class="st1" d="M212.1248,58.055h-0.8359v-7.0947h2.4766L212.1248,58.055z"/>
		<path class="st1" d="M236.2459,50.8001c-0.252,0.5898-0.5977,1.1045-1.0371,1.5439c-0.4404,0.4395-0.9551,0.7852-1.5449,1.0371
			s-1.2168,0.3779-1.8818,0.3779h-1.3193c-0.665,0-1.292-0.126-1.8818-0.3779s-1.1045-0.5977-1.5439-1.0371
			c-0.4404-0.4395-0.7861-0.9541-1.0381-1.5439s-0.3779-1.2178-0.3779-1.8828v-7.4316c0-0.665,0.126-1.292,0.3779-1.8818
			s0.5977-1.1045,1.0381-1.5449c0.4395-0.4395,0.9541-0.7852,1.5439-1.0371s1.2168-0.3779,1.8818-0.3779h1.3193
			c0.665,0,1.292,0.126,1.8818,0.3779s1.1045,0.5977,1.5449,1.0371c0.4395,0.4404,0.7852,0.9551,1.0371,1.5449
			s0.3779,1.2168,0.3779,1.8818v7.4316C236.6238,49.5823,236.4979,50.2103,236.2459,50.8001z M234.6453,41.3733
			c0-0.3965-0.0752-0.7695-0.2246-1.1182c-0.1504-0.3486-0.3545-0.6514-0.6113-0.9092c-0.2578-0.2568-0.5605-0.4609-0.9092-0.6113
			c-0.3486-0.1494-0.7217-0.2246-1.1182-0.2246h-1.3193c-0.3965,0-0.7695,0.0752-1.1182,0.2246
			c-0.3486,0.1504-0.6514,0.3545-0.9082,0.6113c-0.2578,0.2578-0.4619,0.5605-0.6113,0.9092
			c-0.1504,0.3486-0.2256,0.7217-0.2256,1.1182v7.6572c0,0.3965,0.0752,0.7695,0.2256,1.1172
			c0.1494,0.3486,0.3535,0.6523,0.6113,0.9092c0.2568,0.2578,0.5596,0.4609,0.9082,0.6113s0.7217,0.2256,1.1182,0.2256h1.3193
			c0.3965,0,0.7695-0.0752,1.1182-0.2256s0.6514-0.3535,0.9092-0.6113c0.2568-0.2568,0.4609-0.5605,0.6113-0.9092
			c0.1494-0.3477,0.2246-0.7207,0.2246-1.1172V41.3733z"/>
		<path class="st1" d="M246.5809,53.4378c-0.6006,0-1.166-0.1123-1.6973-0.3379c-0.5303-0.2256-0.9912-0.5361-1.3828-0.9326
			s-0.7031-0.8584-0.9336-1.3838s-0.3457-1.0879-0.3457-1.6895V38.848h-2.96v-1.8828h2.96v-3.957l1.9785-0.3213v4.2783h4.1826
			v1.8828H244.2v10.3428c0,0.333,0.0615,0.6416,0.1855,0.9248c0.123,0.2852,0.292,0.5342,0.5068,0.748
			c0.2139,0.2148,0.4658,0.3838,0.7559,0.5068c0.2891,0.124,0.6006,0.1855,0.9326,0.1855h1.8018v1.8818H246.5809z"/>
		<path class="st1" d="M256.8602,38.848c-0.3965,0-0.7695,0.0742-1.1182,0.2246s-0.6514,0.3545-0.9082,0.6113
			c-0.2578,0.2578-0.4619,0.5605-0.6113,0.9092c-0.1504,0.3486-0.2256,0.7207-0.2256,1.1182v11.7266h-1.9785V36.9651h0.6592
			l1.0781,1.6729c0.4502-0.6113,1.0156-1.0957,1.6973-1.4551c0.6807-0.3594,1.4238-0.5391,2.2275-0.5391h1.1582v2.2041H256.8602z"/>
		<path class="st1" d="M272.1024,50.8001c-0.252,0.5898-0.5977,1.1045-1.0371,1.5439c-0.4404,0.4395-0.9551,0.7852-1.5449,1.0371
			s-1.2168,0.3779-1.8818,0.3779h-1.3193c-0.665,0-1.292-0.126-1.8818-0.3779s-1.1045-0.5977-1.5439-1.0371
			c-0.4404-0.4395-0.7861-0.9541-1.0381-1.5439s-0.3779-1.2178-0.3779-1.8828v-7.4316c0-0.665,0.126-1.292,0.3779-1.8818
			s0.5977-1.1045,1.0381-1.5449c0.4395-0.4395,0.9541-0.7852,1.5439-1.0371s1.2168-0.3779,1.8818-0.3779h1.3193
			c0.665,0,1.292,0.126,1.8818,0.3779s1.1045,0.5977,1.5449,1.0371c0.4395,0.4404,0.7852,0.9551,1.0371,1.5449
			s0.3779,1.2168,0.3779,1.8818v3.877h-9.0244v3.668c0,0.3965,0.0752,0.7695,0.2256,1.1172
			c0.1494,0.3486,0.3535,0.6523,0.6113,0.9092c0.2568,0.2578,0.5596,0.4609,0.9082,0.6113s0.7217,0.2256,1.1182,0.2256h1.3193
			c0.3965,0,0.7695-0.0752,1.1182-0.2256s0.6514-0.3535,0.9092-0.6113c0.2568-0.2568,0.4609-0.5605,0.6113-0.9092
			c0.1494-0.3477,0.2246-0.7207,0.2246-1.1172v-1.0947l1.9785,0.3223v0.6592C272.4803,49.5823,272.3543,50.2103,272.1024,50.8001z
			 M270.5018,41.3733c0-0.3965-0.0752-0.7695-0.2246-1.1182c-0.1504-0.3486-0.3545-0.6514-0.6113-0.9092
			c-0.2578-0.2568-0.5605-0.4609-0.9092-0.6113c-0.3486-0.1494-0.7217-0.2246-1.1182-0.2246h-1.3193
			c-0.3965,0-0.7695,0.0752-1.1182,0.2246c-0.3486,0.1504-0.6514,0.3545-0.9082,0.6113c-0.2578,0.2578-0.4619,0.5605-0.6113,0.9092
			c-0.1504,0.3486-0.2256,0.7217-0.2256,1.1182v2.4453h7.0459V41.3733z"/>
		<path class="st1" d="M286.7811,53.4378l-1.0938-1.6729c-0.4502,0.6113-1.0137,1.0967-1.6895,1.4561
			c-0.6758,0.3584-1.415,0.5381-2.2197,0.5381h-0.499c-0.665,0-1.292-0.126-1.8818-0.3779s-1.1045-0.5977-1.5439-1.0371
			c-0.4404-0.4395-0.7861-0.9541-1.0381-1.5439s-0.3779-1.2178-0.3779-1.8828v-7.4316c0-0.665,0.126-1.292,0.3779-1.8818
			s0.5977-1.1045,1.0381-1.5449c0.4395-0.4395,0.9541-0.7852,1.5439-1.0371s1.2168-0.3779,1.8818-0.3779h0.499
			c0.7402,0,1.4258,0.1504,2.0586,0.4502c0.6328,0.3008,1.1748,0.7188,1.625,1.2549v-7.9785h1.9785v23.0674H286.7811z
			 M285.4617,41.3733c0-0.3965-0.0752-0.7695-0.2246-1.1182c-0.1504-0.3486-0.3545-0.6514-0.6113-0.9092
			c-0.2578-0.2568-0.5605-0.4609-0.9092-0.6113c-0.3486-0.1494-0.7217-0.2246-1.1182-0.2246h-1.3193
			c-0.3965,0-0.7695,0.0752-1.1182,0.2246c-0.3486,0.1504-0.6514,0.3545-0.9082,0.6113c-0.2578,0.2578-0.4619,0.5605-0.6113,0.9092
			c-0.1504,0.3486-0.2256,0.7217-0.2256,1.1182v7.6572c0,0.3965,0.0752,0.7695,0.2256,1.1172
			c0.1494,0.3486,0.3535,0.6523,0.6113,0.9092c0.2568,0.2578,0.5596,0.4609,0.9082,0.6113s0.7217,0.2256,1.1182,0.2256h1.3193
			c0.3965,0,0.7695-0.0752,1.1182-0.2256s0.6514-0.3535,0.9092-0.6113c0.2568-0.2568,0.4609-0.5605,0.6113-0.9092
			c0.1494-0.3477,0.2246-0.7207,0.2246-1.1172V41.3733z"/>
		<path class="st1" d="M301.742,53.4378l-1.0938-1.6406c-0.4502,0.5898-1.0137,1.0645-1.6895,1.4238
			c-0.6758,0.3584-1.415,0.5381-2.2197,0.5381h-0.499c-0.665,0-1.292-0.126-1.8818-0.3779s-1.1045-0.5977-1.5439-1.0371
			c-0.4404-0.4395-0.7861-0.9541-1.0381-1.5439s-0.3779-1.2178-0.3779-1.8828v-0.1602c0-0.665,0.126-1.293,0.3779-1.8828
			s0.5977-1.1045,1.0381-1.5439c0.4395-0.4395,0.9541-0.7852,1.5439-1.0381c0.5898-0.251,1.2168-0.3779,1.8818-0.3779h4.1826v-2.541
			c0-0.3965-0.0752-0.7695-0.2246-1.1182c-0.1504-0.3486-0.3545-0.6514-0.6113-0.9092c-0.2578-0.2568-0.5605-0.4609-0.9092-0.6113
			c-0.3486-0.1494-0.7217-0.2246-1.1182-0.2246h-1.1582c-0.3965,0-0.7695,0.0752-1.1182,0.2246
			c-0.3486,0.1504-0.6514,0.3545-0.9092,0.6113c-0.2568,0.2578-0.4609,0.5605-0.6104,0.9092
			c-0.1504,0.3486-0.2256,0.7217-0.2256,1.1182v0.5947l-1.9785-0.3213v-0.1611c0-0.665,0.126-1.292,0.3779-1.8818
			s0.5977-1.1045,1.0371-1.5449c0.4404-0.4395,0.9551-0.7852,1.5449-1.0371s1.2168-0.3779,1.8818-0.3779h1.1582
			c0.665,0,1.292,0.126,1.8818,0.3779s1.1045,0.5977,1.5449,1.0371c0.4395,0.4404,0.7852,0.9551,1.0371,1.5449
			s0.3779,1.2168,0.3779,1.8818v11.9521H301.742z M300.4227,45.4593h-4.1826c-0.3965,0-0.7695,0.0752-1.1182,0.2246
			c-0.3486,0.1504-0.6514,0.3574-0.9082,0.6191c-0.2578,0.2637-0.4619,0.5693-0.6113,0.917
			c-0.1504,0.3486-0.2256,0.7217-0.2256,1.1182v0.6924c0,0.3965,0.0752,0.7695,0.2256,1.1172
			c0.1494,0.3486,0.3535,0.6523,0.6113,0.9092c0.2568,0.2578,0.5596,0.4609,0.9082,0.6113s0.7217,0.2256,1.1182,0.2256h1.3193
			c0.3965,0,0.7695-0.0752,1.1182-0.2256s0.6514-0.3535,0.9092-0.6113c0.2568-0.2568,0.4609-0.5605,0.6113-0.9092
			c0.1494-0.3477,0.2246-0.7207,0.2246-1.1172V45.4593z"/>
		<path class="st1" d="M316.702,53.4378l-1.0938-1.6729c-0.4502,0.6113-1.0137,1.0967-1.6895,1.4561
			c-0.6758,0.3584-1.415,0.5381-2.2197,0.5381H311.2c-0.665,0-1.292-0.126-1.8818-0.3779s-1.1045-0.5977-1.5439-1.0371
			c-0.4404-0.4395-0.7861-0.9541-1.0381-1.5439s-0.3779-1.2178-0.3779-1.8828v-7.4316c0-0.665,0.126-1.292,0.3779-1.8818
			s0.5977-1.1045,1.0381-1.5449c0.4395-0.4395,0.9541-0.7852,1.5439-1.0371s1.2168-0.3779,1.8818-0.3779h0.499
			c0.7402,0,1.4258,0.1504,2.0586,0.4502c0.6328,0.3008,1.1748,0.7188,1.625,1.2549v-7.9785h1.9785v23.0674H316.702z
			 M315.3826,41.3733c0-0.3965-0.0752-0.7695-0.2246-1.1182c-0.1504-0.3486-0.3545-0.6514-0.6113-0.9092
			c-0.2578-0.2568-0.5605-0.4609-0.9092-0.6113c-0.3486-0.1494-0.7217-0.2246-1.1182-0.2246H311.2
			c-0.3965,0-0.7695,0.0752-1.1182,0.2246c-0.3486,0.1504-0.6514,0.3545-0.9082,0.6113c-0.2578,0.2578-0.4619,0.5605-0.6113,0.9092
			c-0.1504,0.3486-0.2256,0.7217-0.2256,1.1182v7.6572c0,0.3965,0.0752,0.7695,0.2256,1.1172
			c0.1494,0.3486,0.3535,0.6523,0.6113,0.9092c0.2568,0.2578,0.5596,0.4609,0.9082,0.6113s0.7217,0.2256,1.1182,0.2256h1.3193
			c0.3965,0,0.7695-0.0752,1.1182-0.2256s0.6514-0.3535,0.9092-0.6113c0.2568-0.2568,0.4609-0.5605,0.6113-0.9092
			c0.1494-0.3477,0.2246-0.7207,0.2246-1.1172V41.3733z"/>
	</g>
</g>
</svg>
