<?xml version="1.0" encoding="utf-8"?>
<!-- Generator: Adobe Illustrator 21.0.2, SVG Export Plug-In . SVG Version: 6.00 Build 0)  -->
<svg version="1.1" id="Capa_1" xmlns="http://www.w3.org/2000/svg" xmlns:xlink="http://www.w3.org/1999/xlink" x="0px" y="0px"
	 viewBox="0 0 140.1116 227.6793" style="enable-background:new 0 0 140.1116 227.6793;" xml:space="preserve">
<style type="text/css">
	.st0{opacity:0.25;clip-path:url(#XMLID_2970_);}
	.st1{fill:#FFFFFF;}
	.st2{fill-rule:evenodd;clip-rule:evenodd;fill:#DDDDDD;}
	.st3{fill:#ACABC9;}
	.st4{fill:#3B86B1;}
	.st5{opacity:0.25;fill-rule:evenodd;clip-rule:evenodd;fill:#020202;}
	.st6{opacity:0.5;}
	.st7{fill-rule:evenodd;clip-rule:evenodd;fill:#A8A8A8;}
	.st8{fill-rule:evenodd;clip-rule:evenodd;fill:#FFFFFF;}
	.st9{fill-rule:evenodd;clip-rule:evenodd;fill:#3B86B1;}
	.st10{opacity:0.5;fill:#2C6882;}
	.st11{opacity:0.75;fill-rule:evenodd;clip-rule:evenodd;fill:#282828;}
	.st12{opacity:0.5;fill:#FFFFFF;}
	.st13{fill-rule:evenodd;clip-rule:evenodd;fill:none;stroke:#FFFFFF;stroke-miterlimit:10;}
	.st14{fill:none;stroke:#FFFFFF;stroke-miterlimit:10;}
	.st15{fill:#FFFFFF;stroke:#3B86B1;stroke-width:1.7139;stroke-miterlimit:10;}
	.st16{fill-rule:evenodd;clip-rule:evenodd;}
	.st17{opacity:0.85;fill:#FFFFFF;}
	.st18{opacity:0.5;fill-rule:evenodd;clip-rule:evenodd;}
	.st19{fill-rule:evenodd;clip-rule:evenodd;fill:#FEFEFE;}
	.st20{fill:#312767;}
	.st21{opacity:0.48;}
	.st22{opacity:0.25;}
	.st23{fill-rule:evenodd;clip-rule:evenodd;fill:#020202;}
	.st24{fill:#757575;}
	.st25{opacity:0.25;clip-path:url(#XMLID_2971_);}
	.st26{fill:#FFFFFF;stroke:#312767;stroke-miterlimit:10;}
	.st27{fill-rule:evenodd;clip-rule:evenodd;fill:#312767;}
	.st28{opacity:0.77;fill:#312767;}
	.st29{opacity:0.25;clip-path:url(#XMLID_2972_);}
	.st30{opacity:0.75;}
	.st31{fill-rule:evenodd;clip-rule:evenodd;fill:#282828;}
	.st32{fill:#9490B2;stroke:#2D2D2D;stroke-width:0.25;stroke-miterlimit:10;}
	.st33{fill:#312767;stroke:#2D2D2D;stroke-width:0.25;stroke-miterlimit:10;}
	.st34{fill:#FCFCFC;}
	.st35{fill:#FFFFFF;stroke:#2D2D2D;stroke-width:0.25;stroke-miterlimit:10;}
	.st36{fill-rule:evenodd;clip-rule:evenodd;fill:#484849;stroke:#2D2D2D;stroke-width:0.25;stroke-miterlimit:10;}
	.st37{fill-rule:evenodd;clip-rule:evenodd;fill:#312767;stroke:#2D2D2D;stroke-width:0.25;stroke-miterlimit:10;}
	.st38{fill-rule:evenodd;clip-rule:evenodd;fill:#FFFFFF;stroke:#2D2D2D;stroke-width:0.25;stroke-miterlimit:10;}
	.st39{fill:#484849;stroke:#2D2D2D;stroke-width:0.25;stroke-miterlimit:10;}
	.st40{fill:#FFFFFF;stroke:#FFFFFF;stroke-miterlimit:10;}
	.st41{fill:#54518C;}
	.st42{opacity:0.25;fill-rule:evenodd;clip-rule:evenodd;fill:#FFFFFF;}
	.st43{fill:#D4A800;}
	.st44{fill:#00AEB3;}
	.st45{fill:#38353B;}
	.st46{fill:#FF8400;}
	.st47{fill:#BF3900;}
	.st48{fill:#00AA9C;}
	.st49{opacity:0.25;clip-path:url(#XMLID_2973_);}
	.st50{fill:none;stroke:#ACABC9;stroke-width:5;stroke-miterlimit:10;}
	.st51{fill:#67A53F;}
	.st52{fill:#DDDDDD;}
	.st53{opacity:0.25;clip-path:url(#XMLID_2974_);}
	.st54{fill-rule:evenodd;clip-rule:evenodd;fill:#FFFFFF;stroke:#FFFFFF;stroke-miterlimit:10;}
	.st55{fill:#02897C;}
	.st56{fill:#0EAD9A;}
	.st57{fill:#28C6AF;}
	.st58{fill:#4FE0C7;}
	.st59{opacity:0.25;clip-path:url(#XMLID_2975_);}
	.st60{fill:#3CA7AF;}
	.st61{fill:#3DAD8D;}
	.st62{fill:#296E8C;}
	.st63{fill:#308E71;}
	.st64{fill:#2D8A8C;}
	.st65{opacity:0.25;clip-path:url(#XMLID_2976_);}
	.st66{opacity:0.77;fill:#FFFFFF;}
	.st67{fill:#50565B;stroke:#656C70;stroke-miterlimit:10;}
	.st68{fill:#808589;stroke:#656C70;stroke-miterlimit:10;}
	.st69{fill:#252728;stroke:#000000;stroke-miterlimit:10;}
	.st70{fill:#1A1B1C;stroke:#000000;stroke-miterlimit:10;}
	.st71{fill:#A0A6AA;}
	.st72{fill:#262C35;stroke:#161A1E;stroke-miterlimit:10;}
	.st73{fill:#181D23;}
	.st74{fill:#EABA96;stroke:#E0AA86;stroke-miterlimit:10;}
	.st75{fill:#E0AA86;}
	.st76{stroke:#000000;stroke-width:0.75;stroke-linecap:square;stroke-linejoin:bevel;stroke-miterlimit:10;}
	.st77{fill:#0F1C3F;stroke:#182951;stroke-miterlimit:10;}
	.st78{fill:#132354;stroke:#3F6093;stroke-miterlimit:10;}
	.st79{fill:#0F1C3F;}
	.st80{fill:none;stroke:#3F6093;stroke-width:0.75;stroke-miterlimit:10;}
	.st81{fill:#DBA682;}
	.st82{fill:none;stroke:#E0AA86;stroke-miterlimit:10;}
	.st83{fill:none;stroke:#E0AA86;stroke-linejoin:bevel;stroke-miterlimit:10;}
	.st84{fill:#8A0A8E;stroke:#AC34B2;stroke-miterlimit:10;}
	.st85{fill:#810C87;}
	.st86{fill:#680B6D;}
	.st87{fill:#AC34B2;stroke:#AC34B2;stroke-width:0.5;stroke-miterlimit:10;}
	.st88{fill:none;stroke:#959DA0;stroke-width:0.5;stroke-miterlimit:10;}
	.st89{fill:#959DA0;stroke:#959DA0;stroke-width:0.5;stroke-miterlimit:10;}
	.st90{fill:none;stroke:#AC34B2;stroke-miterlimit:10;}
	.st91{fill:#282828;stroke:#000000;stroke-miterlimit:10;}
	.st92{fill:#EABA96;stroke:#E0AA86;stroke-width:0.5;stroke-miterlimit:10;}
	.st93{fill:#B7896A;}
	.st94{stroke:#000000;stroke-miterlimit:10;}
	.st95{fill:#C1A578;}
	.st96{stroke:#000000;stroke-width:0.25;stroke-linecap:round;stroke-linejoin:round;stroke-miterlimit:10;}
	.st97{fill:#FFFFFF;stroke:#000000;stroke-width:0.25;stroke-linecap:round;stroke-linejoin:round;stroke-miterlimit:10;}
	.st98{fill:#70582D;}
	.st99{stroke:#000000;stroke-linecap:round;stroke-linejoin:round;stroke-miterlimit:10;}
	.st100{fill:none;stroke:#D8A27D;stroke-width:0.75;stroke-miterlimit:10;}
	.st101{fill:#561409;}
	.st102{fill:#BA2A13;}
	.st103{fill:#9E3025;stroke:#4C2311;stroke-width:0.25;stroke-miterlimit:10;}
	.st104{fill:#871D08;stroke:#4C2311;stroke-width:0.25;stroke-miterlimit:10;}
	.st105{fill:#DDAC8A;}
	.st106{fill:#A5ABAD;stroke:#959DA0;stroke-width:0.5;stroke-miterlimit:10;}
	.st107{fill:#B1BABC;}
	.st108{fill:none;stroke:#153847;stroke-width:5;stroke-miterlimit:10;}
	.st109{fill:#3DAA61;}
	.st110{fill:#95A340;}
	.st111{opacity:0.25;clip-path:url(#XMLID_2977_);}
	.st112{opacity:0.25;clip-path:url(#XMLID_2978_);}
	.st113{opacity:0.25;clip-path:url(#XMLID_2979_);}
	.st114{opacity:0.25;clip-path:url(#XMLID_2980_);}
	.st115{opacity:0.25;clip-path:url(#XMLID_2981_);}
	.st116{clip-path:url(#SVGID_2_);}
	.st117{fill:none;stroke:#3F6093;stroke-miterlimit:10;}
	.st118{fill:none;stroke:#3F6093;stroke-width:0.75;stroke-linecap:round;stroke-linejoin:round;}
	.st119{fill:none;stroke:#3F6093;stroke-width:0.75;stroke-linecap:round;stroke-linejoin:round;stroke-dasharray:0.9892,0.9892;}
	
		.st120{fill:none;stroke:#3F6093;stroke-width:0.75;stroke-linecap:round;stroke-linejoin:round;stroke-miterlimit:10;stroke-dasharray:1;}
	.st121{fill:#EAEAEA;stroke:#FFFFFF;stroke-width:0.25;stroke-miterlimit:10;}
	.st122{fill:#D8D8D8;}
	.st123{fill:#282828;stroke:#000000;stroke-width:0.75;stroke-miterlimit:10;}
	.st124{opacity:0.33;fill:#FFFFFF;}
	.st125{fill:none;stroke:#000000;stroke-width:1.5;stroke-linecap:round;stroke-linejoin:round;stroke-miterlimit:10;}
	.st126{opacity:0.64;}
	.st127{fill:#C9C9C9;}
	.st128{fill:#FFF064;}
	.st129{fill:#4F4E4F;}
	.st130{fill:#1E2F47;}
	.st131{opacity:0.1;fill:#FFFFFF;}
	.st132{opacity:0.1;}
	.st133{opacity:0.4;fill:#FFFFFF;}
	.st134{fill-rule:evenodd;clip-rule:evenodd;fill:#F39C12;}
	.st135{fill-rule:evenodd;clip-rule:evenodd;fill:#E6E6E6;}
	.st136{fill-rule:evenodd;clip-rule:evenodd;fill:#474646;}
	.st137{fill-rule:evenodd;clip-rule:evenodd;fill:#D84848;}
	.st138{opacity:0.2;fill-rule:evenodd;clip-rule:evenodd;fill:#231F20;}
	.st139{opacity:0.1;fill-rule:evenodd;clip-rule:evenodd;fill:#231F20;}
	.st140{fill-rule:evenodd;clip-rule:evenodd;fill:#4D4D4D;}
	.st141{fill-rule:evenodd;clip-rule:evenodd;fill:#336699;}
	.st142{fill-rule:evenodd;clip-rule:evenodd;fill:#FF6633;}
	.st143{fill-rule:evenodd;clip-rule:evenodd;fill:#0056A3;}
	.st144{fill-rule:evenodd;clip-rule:evenodd;fill:#33CC99;}
	.st145{fill:#CE6405;}
	.st146{opacity:0.2;fill:#FFFFFF;}
	.st147{fill:#1ABC9C;}
	.st148{opacity:0.2;}
	.st149{fill:#0B2E44;}
	.st150{fill-rule:evenodd;clip-rule:evenodd;fill:#154F77;}
	.st151{fill-rule:evenodd;clip-rule:evenodd;fill:#0D3858;}
	.st152{fill-rule:evenodd;clip-rule:evenodd;fill:#FFFEFE;}
	.st153{fill:#AEC647;}
	.st154{fill:#F3AE1B;}
	.st155{fill:#DF3F11;}
	.st156{fill:#BCDEDE;}
	.st157{fill:#C84119;}
	.st158{fill:#6BB5CE;}
	.st159{fill:#00D0E5;}
	.st160{fill:#FF81ED;}
	.st161{fill:#00C982;}
	.st162{opacity:0.7;}
	.st163{opacity:0.4;}
	.st164{fill-rule:evenodd;clip-rule:evenodd;fill:#0B2E44;}
	.st165{opacity:0.8;fill-rule:evenodd;clip-rule:evenodd;fill:#FFFFFF;}
	.st166{fill:#424242;}
	.st167{opacity:0.2;fill-rule:evenodd;clip-rule:evenodd;fill:#FFFFFF;}
	.st168{fill:#D0EDFA;}
	.st169{fill:#FF651F;}
	.st170{fill:#0051C4;}
	.st171{fill:#E46400;}
	.st172{fill:#C0003B;}
	.st173{fill:#FFEA50;}
	.st174{fill:#FF2C0D;}
	.st175{fill:#FF1A2C;}
	.st176{fill:#FF2C4D;}
	.st177{fill:#FFD74C;}
	.st178{fill:#4C4C4B;}
	.st179{fill:#6CD2EA;}
	.st180{fill:#F7674F;}
	.st181{opacity:0.1;fill-rule:evenodd;clip-rule:evenodd;}
	.st182{fill:#BABABA;}
	.st183{fill:#F9B946;}
	.st184{fill:#DFC2A9;}
	.st185{fill:#BFA490;}
	.st186{fill:#F5D4B2;}
	.st187{fill:#DF584C;}
	.st188{fill:#C2443E;}
	.st189{fill:#DBDBDA;}
	.st190{fill:#2F363E;}
	.st191{fill:#332524;}
	.st192{fill:#473735;}
	.st193{opacity:0.25;clip-path:url(#XMLID_2982_);}
	.st194{fill:#52B8BA;}
	.st195{fill:#35373E;}
	.st196{fill:#D37D00;}
	.st197{opacity:0.25;clip-path:url(#XMLID_2983_);}
	.st198{opacity:0.31;fill:#34383A;}
	.st199{opacity:0.16;fill:#3D3835;}
	.st200{fill:#D0D1D4;}
	.st201{opacity:0.31;}
	.st202{fill:#34383A;}
	.st203{opacity:0.16;}
	.st204{fill:#3D3835;}
	.st205{opacity:0.25;clip-path:url(#XMLID_2984_);}
	.st206{fill:#F9E1B4;}
	.st207{opacity:0.25;fill:#050505;}
	.st208{fill:#FCC60F;}
	.st209{fill:#74CAEA;}
	.st210{fill:#050505;}
	.st211{opacity:0.25;clip-path:url(#XMLID_2985_);}
	.st212{fill:#FABC8F;}
	.st213{fill:#3FA995;}
	.st214{opacity:0.17;fill:#020202;}
	.st215{fill:#E1E1E1;}
	.st216{opacity:0.17;}
	.st217{fill:#020202;}
	.st218{opacity:0.25;clip-path:url(#XMLID_2986_);}
	.st219{fill:#BF8E00;}
	.st220{fill:#F7D8D7;}
	.st221{fill:#F18636;}
	.st222{fill:#004460;}
	.st223{fill:#D93A37;}
	.st224{fill:#EDEDED;}
	.st225{fill:#184F78;}
	.st226{fill:#FF3E03;}
	.st227{opacity:0.6;fill:#0F0F0F;}
	.st228{fill:#E8E8E6;}
	.st229{fill:#00EAA6;}
	.st230{fill-rule:evenodd;clip-rule:evenodd;fill:#FF3E03;}
	.st231{opacity:0.1;fill-rule:evenodd;clip-rule:evenodd;fill:#020202;}
	.st232{fill-rule:evenodd;clip-rule:evenodd;fill:#FABE00;}
	.st233{fill-rule:evenodd;clip-rule:evenodd;fill:#E6E8E8;}
	.st234{fill-rule:evenodd;clip-rule:evenodd;fill:#F7D959;}
	.st235{fill-rule:evenodd;clip-rule:evenodd;fill:#F9623E;}
	.st236{fill:#4F1A0F;}
	.st237{opacity:0.46;fill:#FFFFFF;}
	.st238{fill:#48505A;}
	.st239{fill:#C3C3C3;}
	.st240{fill:#E9E9EA;}
	.st241{fill:#9D9E9F;}
	.st242{fill:#F6F4F4;}
	.st243{fill:#6B6A6A;}
	.st244{fill:#C09478;}
	.st245{fill:#F7CDA0;}
	.st246{fill:#9E1010;}
	.st247{fill:#F2F2F2;}
	.st248{opacity:0.2;fill:#060606;}
	.st249{fill:#16AFBE;}
	.st250{fill:#DD2222;}
	.st251{fill:#FFEDDC;}
	.st252{fill:#22272B;}
	.st253{fill:#5B6375;}
	.st254{fill:#F79748;}
	.st255{fill:#FF7900;}
	.st256{fill:#DD7105;}
	.st257{fill:#556071;}
	.st258{fill:#FBFBFB;}
	.st259{fill:#BCBDC1;}
	.st260{fill:#6D6D6D;}
	.st261{fill:#D3D3D3;}
	.st262{fill:#3C6BAF;stroke:#3C6BAF;stroke-miterlimit:10;}
	.st263{fill:none;stroke:#153847;stroke-width:4;stroke-miterlimit:10;}
	.st264{fill:#153847;}
</style>
<g>
	<g>
		<g>
			<path class="st257" d="M26.9275,26.9275H0V0h26.9275V26.9275z M2.1542,24.7733h22.6191V2.1542H2.1542V24.7733z"/>
		</g>
	</g>
	<g>
		<g>
			<path class="st257" d="M26.9275,67.0779H0V40.1503h26.9275V67.0779z M2.1542,64.9237h22.6191V42.3046H2.1542V64.9237z"/>
		</g>
	</g>
	<g>
		<g>
			<path class="st257" d="M26.9275,107.2282H0V80.3007h26.9275V107.2282z M2.1542,105.074h22.6191V82.4549H2.1542V105.074z"/>
		</g>
	</g>
	<g>
		<g>
			<path class="st257" d="M26.9275,147.3786H0V120.451h26.9275V147.3786z M2.1542,145.2244h22.6191v-22.6191H2.1542V145.2244z"/>
		</g>
	</g>
	<g>
		<g>
			<path class="st257" d="M26.9275,187.5289H0v-26.9275h26.9275V187.5289z M2.1542,185.3747h22.6191v-22.6191H2.1542V185.3747z"/>
		</g>
	</g>
	<g>
		<g>
			<path class="st257" d="M26.9275,227.6793H0v-26.9275h26.9275V227.6793z M2.1542,225.5251h22.6191v-22.6191H2.1542V225.5251z"/>
		</g>
	</g>
	<g>
		<g>
			<path d="M51.2454,18.3404h-2.8301l-1.125-2.9258h-5.1504l-1.0635,2.9258h-2.7598l5.0186-12.8843h2.751L51.2454,18.3404z
				 M46.4553,13.2428L44.68,8.462l-1.7402,4.7808H46.4553z"/>
			<path d="M52.6077,18.3404V5.4561h2.4697v12.8843H52.6077z"/>
			<path d="M61.8889,9.0064v1.9688h-1.6875v3.7617c0,0.7617,0.0166,1.207,0.0479,1.332c0.0332,0.127,0.1055,0.2305,0.2207,0.3125
				c0.1133,0.082,0.2529,0.123,0.417,0.123c0.2285,0,0.5596-0.0801,0.9932-0.2383l0.2109,1.916
				c-0.5742,0.2461-1.2246,0.3691-1.9512,0.3691c-0.4453,0-0.8467-0.0742-1.2041-0.2246c-0.3574-0.1484-0.6201-0.3418-0.7861-0.5801
				c-0.168-0.2363-0.2832-0.5566-0.3477-0.9609c-0.0527-0.2871-0.0791-0.8672-0.0791-1.7402v-4.0703h-1.1338V9.0064h1.1338v-1.854
				l2.4785-1.4414v3.2954H61.8889z"/>
			<path d="M69.0081,15.3697l2.4609,0.4141c-0.3164,0.9023-0.8154,1.5898-1.499,2.0605c-0.6816,0.4727-1.5361,0.707-2.5615,0.707
				c-1.623,0-2.8242-0.5293-3.6035-1.5898c-0.6152-0.8496-0.9229-1.9219-0.9229-3.2168c0-1.5469,0.4043-2.7578,1.2129-3.6348
				c0.8086-0.875,1.8311-1.3145,3.0674-1.3145c1.3887,0,2.4844,0.459,3.2871,1.375c0.8027,0.918,1.1865,2.3223,1.1514,4.2148
				h-6.1875c0.0176,0.7324,0.2168,1.3027,0.5977,1.709c0.3809,0.4082,0.8555,0.6113,1.4238,0.6113
				c0.3867,0,0.7119-0.1055,0.9756-0.3164S68.8733,15.8385,69.0081,15.3697z M69.1487,12.8736
				c-0.0176-0.7148-0.2021-1.2578-0.5537-1.6309c-0.3516-0.3711-0.7793-0.5566-1.2832-0.5566c-0.5391,0-0.9844,0.1953-1.3359,0.5879
				s-0.5244,0.9258-0.5186,1.5996H69.1487z"/>
			<path d="M75.9778,18.3404h-2.4697v-9.334h2.2939v1.3281c0.3926-0.627,0.7461-1.041,1.0586-1.2402
				c0.3145-0.1992,0.6699-0.2988,1.0684-0.2988c0.5625,0,1.1045,0.1563,1.626,0.4668l-0.7646,2.1523
				c-0.416-0.2695-0.8027-0.4043-1.1602-0.4043c-0.3457,0-0.6387,0.0957-0.8789,0.2852c-0.2402,0.1914-0.4297,0.5352-0.5664,1.0332
				c-0.1387,0.498-0.207,1.541-0.207,3.1289V18.3404z"/>
			<path d="M80.6184,7.7413V5.4561h2.4697v2.2852H80.6184z M80.6184,18.3404v-9.334h2.4697v9.334H80.6184z"/>
			<path d="M94.18,18.3404H91.886v-1.3711c-0.3809,0.5332-0.8301,0.9316-1.3496,1.1914c-0.5176,0.2598-1.041,0.3906-1.5684,0.3906
				c-1.0723,0-1.9902-0.4316-2.7559-1.2969c-0.7637-0.8633-1.1465-2.0684-1.1465-3.6152c0-1.582,0.3721-2.7852,1.1162-3.6094
				c0.7441-0.8223,1.6846-1.2344,2.8213-1.2344c1.043,0,1.9453,0.4336,2.707,1.3008V5.4561H94.18V18.3404z M87.5882,13.4713
				c0,0.9961,0.1377,1.7168,0.4131,2.1621c0.3984,0.6445,0.9551,0.9668,1.6699,0.9668c0.5684,0,1.0518-0.2422,1.4502-0.7246
				c0.3984-0.4844,0.5977-1.2051,0.5977-2.166c0-1.0723-0.1934-1.8438-0.5801-2.3164c-0.3867-0.4707-0.8818-0.707-1.4854-0.707
				c-0.5859,0-1.0762,0.2324-1.4727,0.6973C87.7864,11.8502,87.5882,12.5455,87.5882,13.4713z"/>
			<path d="M98.4602,11.8541l-2.2412-0.4043c0.252-0.9023,0.6855-1.5703,1.3008-2.0039s1.5293-0.6504,2.7422-0.6504
				c1.1016,0,1.9219,0.1309,2.4609,0.3906c0.5391,0.2617,0.9189,0.5938,1.1377,0.9941c0.2207,0.4023,0.3301,1.1387,0.3301,2.2109
				l-0.0264,2.8828c0,0.8203,0.04,1.4258,0.1182,1.8145c0.0801,0.3906,0.2275,0.8066,0.4443,1.252h-2.4434
				c-0.0645-0.1641-0.1436-0.4063-0.2373-0.7285c-0.041-0.1465-0.0703-0.2441-0.0879-0.291
				c-0.4219,0.4102-0.873,0.7188-1.3535,0.9238s-0.9932,0.3066-1.5381,0.3066c-0.9609,0-1.7178-0.2598-2.2725-0.7813
				c-0.5527-0.5215-0.8301-1.1816-0.8301-1.9785c0-0.5273,0.126-0.998,0.3779-1.4102c0.252-0.4141,0.6045-0.7305,1.0596-0.9492
				c0.4531-0.2207,1.1084-0.4121,1.9639-0.5762c1.1543-0.2168,1.9541-0.418,2.3994-0.6055v-0.2461
				c0-0.4746-0.1172-0.8145-0.3516-1.0156c-0.2344-0.2031-0.6768-0.3027-1.3271-0.3027c-0.4395,0-0.7822,0.0859-1.0283,0.2578
				C98.8118,11.1178,98.6126,11.4205,98.4602,11.8541z M101.7649,13.858c-0.3164,0.1055-0.8174,0.2324-1.5029,0.3789
				s-1.1338,0.2891-1.3447,0.4297c-0.3223,0.2285-0.4834,0.5195-0.4834,0.8711c0,0.3457,0.1289,0.6445,0.3867,0.8965
				s0.5859,0.377,0.9844,0.377c0.4453,0,0.8701-0.1465,1.2744-0.4395c0.2988-0.2227,0.4951-0.4941,0.5889-0.8164
				c0.0645-0.2109,0.0967-0.6133,0.0967-1.2051V13.858z"/>
			<path d="M115.1858,18.3404h-2.2939v-1.3711c-0.3809,0.5332-0.8301,0.9316-1.3496,1.1914
				c-0.5176,0.2598-1.041,0.3906-1.5684,0.3906c-1.0723,0-1.9902-0.4316-2.7559-1.2969c-0.7637-0.8633-1.1465-2.0684-1.1465-3.6152
				c0-1.582,0.3721-2.7852,1.1162-3.6094c0.7441-0.8223,1.6846-1.2344,2.8213-1.2344c1.043,0,1.9453,0.4336,2.707,1.3008V5.4561
				h2.4697V18.3404z M108.594,13.4713c0,0.9961,0.1377,1.7168,0.4131,2.1621c0.3984,0.6445,0.9551,0.9668,1.6699,0.9668
				c0.5684,0,1.0518-0.2422,1.4502-0.7246c0.3984-0.4844,0.5977-1.2051,0.5977-2.166c0-1.0723-0.1934-1.8438-0.5801-2.3164
				c-0.3867-0.4707-0.8818-0.707-1.4854-0.707c-0.5859,0-1.0762,0.2324-1.4727,0.6973
				C108.7923,11.8502,108.594,12.5455,108.594,13.4713z"/>
		</g>
	</g>
	<g>
		<g>
			<path d="M39.6262,59.3267V46.442H49.18v2.1797h-6.9521v2.8564h6.4688v2.1709h-6.4688v3.5068h7.1982v2.1709H39.6262z"/>
			<path d="M51.43,49.9928h2.2764v1.2744c0.8145-0.9902,1.7842-1.4854,2.9092-1.4854c0.5977,0,1.1162,0.123,1.5557,0.3691
				s0.7998,0.6182,1.0811,1.1162c0.4102-0.498,0.8525-0.8701,1.3271-1.1162s0.9814-0.3691,1.5205-0.3691
				c0.6855,0,1.2656,0.1396,1.7402,0.418c0.4746,0.2783,0.8291,0.6865,1.0635,1.2256c0.1699,0.3984,0.2549,1.043,0.2549,1.9336
				v5.9678h-2.4697v-5.335c0-0.9258-0.085-1.5234-0.2549-1.793c-0.2285-0.3516-0.5801-0.5273-1.0547-0.5273
				c-0.3457,0-0.6709,0.1055-0.9756,0.3164s-0.5244,0.5205-0.6592,0.9268c-0.1348,0.4082-0.2021,1.0508-0.2021,1.9297v4.4824
				h-2.4697v-5.1152c0-0.9082-0.0439-1.4941-0.1318-1.7578s-0.2246-0.46-0.4082-0.5889c-0.1855-0.1289-0.4355-0.1934-0.752-0.1934
				c-0.3809,0-0.7236,0.1025-1.0283,0.3076s-0.5225,0.501-0.6553,0.8877c-0.1309,0.3867-0.1973,1.0283-0.1973,1.9248v4.5352H51.43
				V49.9928z"/>
			<path d="M67.5491,49.9928h2.3027v1.3711c0.2988-0.4688,0.7031-0.8496,1.2129-1.1426s1.0752-0.4395,1.6963-0.4395
				c1.084,0,2.0039,0.4248,2.7598,1.2744s1.1338,2.0332,1.1338,3.5508c0,1.5586-0.3809,2.7705-1.1426,3.6338
				c-0.7617,0.8652-1.6846,1.2969-2.7686,1.2969c-0.5156,0-0.9824-0.1025-1.4023-0.3076c-0.418-0.2051-0.8594-0.5566-1.3223-1.0547
				v4.7021h-2.4697V49.9928z M69.9925,54.5015c0,1.0488,0.208,1.8232,0.624,2.3252c0.416,0.5,0.9229,0.751,1.5205,0.751
				c0.5742,0,1.0518-0.2295,1.4326-0.6904c0.3809-0.459,0.5713-1.2139,0.5713-2.2627c0-0.9785-0.1963-1.7051-0.5889-2.1797
				s-0.8789-0.7119-1.459-0.7119c-0.6035,0-1.1045,0.2324-1.5029,0.6992C70.1917,52.8971,69.9925,53.5875,69.9925,54.5015z"/>
			<path d="M80.4602,52.8404l-2.2412-0.4043c0.252-0.9023,0.6855-1.5703,1.3008-2.0039s1.5293-0.6504,2.7422-0.6504
				c1.1016,0,1.9219,0.1309,2.4609,0.3906c0.5391,0.2617,0.9189,0.5928,1.1377,0.9941c0.2207,0.4014,0.3301,1.1377,0.3301,2.21
				l-0.0264,2.8828c0,0.8203,0.04,1.4258,0.1182,1.8154c0.0801,0.3896,0.2275,0.8066,0.4443,1.252h-2.4434
				c-0.0645-0.1641-0.1436-0.4072-0.2373-0.7295c-0.041-0.1465-0.0703-0.2432-0.0879-0.29
				c-0.4219,0.4102-0.873,0.7178-1.3535,0.9229s-0.9932,0.3076-1.5381,0.3076c-0.9609,0-1.7178-0.2607-2.2725-0.7822
				c-0.5527-0.5215-0.8301-1.1807-0.8301-1.9775c0-0.5273,0.126-0.998,0.3779-1.4102c0.252-0.4141,0.6045-0.7305,1.0596-0.9492
				c0.4531-0.2207,1.1084-0.4121,1.9639-0.5762c1.1543-0.2168,1.9541-0.4189,2.3994-0.6064v-0.2461
				c0-0.4746-0.1172-0.8135-0.3516-1.0146c-0.2344-0.2031-0.6768-0.3037-1.3271-0.3037c-0.4395,0-0.7822,0.0869-1.0283,0.2588
				C80.8118,52.1041,80.6126,52.4068,80.4602,52.8404z M83.7649,54.8443c-0.3164,0.1055-0.8174,0.2314-1.5029,0.3779
				s-1.1338,0.29-1.3447,0.4307c-0.3223,0.2285-0.4834,0.5186-0.4834,0.8701c0,0.3457,0.1289,0.6445,0.3867,0.8965
				s0.5859,0.3779,0.9844,0.3779c0.4453,0,0.8701-0.1465,1.2744-0.4395c0.2988-0.2227,0.4951-0.4951,0.5889-0.8174
				c0.0645-0.2109,0.0967-0.6123,0.0967-1.2041V54.8443z"/>
			<path d="M92.9055,49.9928v1.9688H91.218v3.7617c0,0.7617,0.0156,1.2061,0.0488,1.332c0.0313,0.126,0.1055,0.2295,0.2188,0.3115
				c0.1152,0.082,0.2539,0.123,0.418,0.123c0.2285,0,0.5596-0.0791,0.9932-0.2373l0.2109,1.916
				c-0.5742,0.2461-1.2246,0.3691-1.9512,0.3691c-0.4453,0-0.8467-0.0742-1.2041-0.2246c-0.3574-0.1484-0.6191-0.3418-0.7871-0.5801
				c-0.166-0.2363-0.2822-0.5576-0.3467-0.9619c-0.0527-0.2871-0.0791-0.8672-0.0791-1.7402v-4.0693h-1.1338v-1.9688h1.1338v-1.8545
				l2.4785-1.4414v3.2959H92.9055z"/>
			<path d="M94.4348,48.8502l1.2129-2.6279h2.7686l-2.417,2.6279H94.4348z M94.6194,59.3267v-9.334h2.4697v9.334H94.6194z"/>
			<path d="M101.4661,52.8404l-2.2412-0.4043c0.252-0.9023,0.6855-1.5703,1.3008-2.0039s1.5293-0.6504,2.7422-0.6504
				c1.1016,0,1.9219,0.1309,2.4609,0.3906c0.5391,0.2617,0.9189,0.5928,1.1377,0.9941c0.2207,0.4014,0.3301,1.1377,0.3301,2.21
				l-0.0264,2.8828c0,0.8203,0.04,1.4258,0.1182,1.8154c0.0801,0.3896,0.2275,0.8066,0.4443,1.252h-2.4434
				c-0.0645-0.1641-0.1436-0.4072-0.2373-0.7295c-0.041-0.1465-0.0703-0.2432-0.0879-0.29
				c-0.4219,0.4102-0.873,0.7178-1.3535,0.9229s-0.9932,0.3076-1.5381,0.3076c-0.9609,0-1.7178-0.2607-2.2725-0.7822
				c-0.5527-0.5215-0.8301-1.1807-0.8301-1.9775c0-0.5273,0.126-0.998,0.3779-1.4102c0.252-0.4141,0.6045-0.7305,1.0596-0.9492
				c0.4531-0.2207,1.1084-0.4121,1.9639-0.5762c1.1543-0.2168,1.9541-0.4189,2.3994-0.6064v-0.2461
				c0-0.4746-0.1172-0.8135-0.3516-1.0146c-0.2344-0.2031-0.6768-0.3037-1.3271-0.3037c-0.4395,0-0.7822,0.0869-1.0283,0.2588
				C101.8176,52.1041,101.6184,52.4068,101.4661,52.8404z M104.7708,54.8443c-0.3164,0.1055-0.8174,0.2314-1.5029,0.3779
				s-1.1338,0.29-1.3447,0.4307c-0.3223,0.2285-0.4834,0.5186-0.4834,0.8701c0,0.3457,0.1289,0.6445,0.3867,0.8965
				s0.5859,0.3779,0.9844,0.3779c0.4453,0,0.8701-0.1465,1.2744-0.4395c0.2988-0.2227,0.4951-0.4951,0.5889-0.8174
				c0.0645-0.2109,0.0967-0.6123,0.0967-1.2041V54.8443z"/>
		</g>
	</g>
	<g>
		<g>
			<path d="M38.9671,95.7808l2.5313-0.2461c0.1523,0.8496,0.4619,1.4736,0.9268,1.8721c0.4668,0.3984,1.0947,0.5977,1.8857,0.5977
				c0.8379,0,1.4697-0.1768,1.8936-0.5313c0.4258-0.3545,0.6377-0.7695,0.6377-1.2441c0-0.3047-0.0889-0.5635-0.2686-0.7773
				c-0.1777-0.2139-0.4902-0.4004-0.9355-0.5586c-0.3047-0.1055-0.999-0.293-2.083-0.5625
				c-1.3945-0.3457-2.373-0.7705-2.9355-1.2744c-0.791-0.709-1.1865-1.5732-1.1865-2.5928c0-0.6563,0.1855-1.2695,0.5586-1.8418
				c0.3711-0.5703,0.9082-1.0059,1.6074-1.3047c0.7012-0.2988,1.5459-0.4482,2.5361-0.4482c1.6172,0,2.835,0.3545,3.6514,1.0635
				c0.8184,0.709,1.2471,1.6553,1.2881,2.8389l-2.6016,0.1143c-0.1113-0.6621-0.3506-1.1387-0.7158-1.4277
				c-0.3672-0.291-0.916-0.4355-1.6484-0.4355c-0.7559,0-1.3477,0.1553-1.7754,0.4658c-0.2754,0.1992-0.4131,0.4658-0.4131,0.7998
				c0,0.3047,0.1289,0.5654,0.3867,0.7822c0.3281,0.2754,1.125,0.5625,2.3906,0.8613s2.2021,0.6084,2.8076,0.9268
				c0.6074,0.3203,1.082,0.7559,1.4238,1.3105c0.3438,0.5527,0.5146,1.2373,0.5146,2.0518c0,0.7383-0.2051,1.4297-0.6152,2.0742
				s-0.9902,1.124-1.7402,1.4365c-0.75,0.3135-1.6846,0.4707-2.8037,0.4707c-1.6289,0-2.8799-0.376-3.7529-1.1289
				S39.137,97.2223,38.9671,95.7808z"/>
			<path d="M51.0432,95.1744c0-0.8203,0.2021-1.6143,0.6064-2.3818s0.9766-1.3535,1.7188-1.7578
				c0.7402-0.4043,1.5684-0.6064,2.4824-0.6064c1.4121,0,2.5693,0.459,3.4717,1.375c0.9023,0.918,1.3535,2.0762,1.3535,3.4766
				c0,1.4121-0.4561,2.583-1.3662,3.5117c-0.9121,0.9287-2.0586,1.3926-3.4414,1.3926c-0.8555,0-1.6719-0.1934-2.4473-0.5801
				c-0.7773-0.3867-1.3672-0.9531-1.7715-1.7012C51.2454,97.1568,51.0432,96.2467,51.0432,95.1744z M53.5745,95.3062
				c0,0.9258,0.2197,1.6348,0.6592,2.127s0.9814,0.7383,1.626,0.7383s1.1846-0.2461,1.6221-0.7383
				c0.4355-0.4922,0.6543-1.207,0.6543-2.1445c0-0.9141-0.2188-1.6172-0.6543-2.1094c-0.4375-0.4922-0.9775-0.7383-1.6221-0.7383
				s-1.1865,0.2461-1.626,0.7383S53.5745,94.3805,53.5745,95.3062z"/>
			<path d="M62.6096,99.9732V87.0885h2.4697v12.8848H62.6096z"/>
			<path d="M67.6106,89.3736v-2.2852h2.4697v2.2852H67.6106z M67.6106,99.9732v-9.334h2.4697v9.334H67.6106z"/>
			<path d="M81.1721,99.9732h-2.2939v-1.3711c-0.3809,0.5332-0.8301,0.9307-1.3496,1.1914
				c-0.5176,0.2598-1.041,0.3906-1.5684,0.3906c-1.0723,0-1.9902-0.4316-2.7559-1.2969c-0.7637-0.8633-1.1465-2.0693-1.1465-3.6162
				c0-1.582,0.3721-2.7842,1.1162-3.6084c0.7441-0.8223,1.6846-1.2344,2.8213-1.2344c1.043,0,1.9453,0.4336,2.707,1.3008v-4.6406
				h2.4697V99.9732z M74.5803,95.1041c0,0.9961,0.1377,1.7168,0.4131,2.1621c0.3984,0.6445,0.9551,0.9668,1.6699,0.9668
				c0.5684,0,1.0518-0.2422,1.4502-0.7246c0.3984-0.4844,0.5977-1.2061,0.5977-2.167c0-1.0723-0.1934-1.8438-0.5801-2.3154
				s-0.8818-0.708-1.4854-0.708c-0.5859,0-1.0762,0.2334-1.4727,0.6982C74.7786,93.483,74.5803,94.1783,74.5803,95.1041z"/>
			<path d="M85.4524,93.4869l-2.2412-0.4043c0.252-0.9023,0.6855-1.5703,1.3008-2.0039s1.5293-0.6504,2.7422-0.6504
				c1.1016,0,1.9219,0.1309,2.4609,0.3906c0.5391,0.2617,0.9189,0.5928,1.1377,0.9941c0.2207,0.4014,0.3301,1.1377,0.3301,2.21
				l-0.0264,2.8828c0,0.8203,0.04,1.4258,0.1182,1.8154c0.0801,0.3896,0.2275,0.8066,0.4443,1.252h-2.4434
				c-0.0645-0.1641-0.1436-0.4072-0.2373-0.7295c-0.041-0.1465-0.0703-0.2432-0.0879-0.29
				c-0.4219,0.4102-0.873,0.7178-1.3535,0.9229s-0.9932,0.3076-1.5381,0.3076c-0.9609,0-1.7178-0.2607-2.2725-0.7822
				c-0.5527-0.5215-0.8301-1.1807-0.8301-1.9775c0-0.5273,0.126-0.998,0.3779-1.4102c0.252-0.4141,0.6045-0.7305,1.0596-0.9492
				c0.4531-0.2207,1.1084-0.4121,1.9639-0.5762c1.1543-0.2168,1.9541-0.4189,2.3994-0.6064v-0.2461
				c0-0.4746-0.1172-0.8135-0.3516-1.0146c-0.2344-0.2031-0.6768-0.3037-1.3271-0.3037c-0.4395,0-0.7822,0.0869-1.0283,0.2588
				C85.804,92.7506,85.6048,93.0533,85.4524,93.4869z M88.7571,95.4908c-0.3164,0.1055-0.8174,0.2314-1.5029,0.3779
				s-1.1338,0.29-1.3447,0.4307c-0.3223,0.2285-0.4834,0.5186-0.4834,0.8701c0,0.3457,0.1289,0.6445,0.3867,0.8965
				s0.5859,0.3779,0.9844,0.3779c0.4453,0,0.8701-0.1465,1.2744-0.4395c0.2988-0.2227,0.4951-0.4951,0.5889-0.8174
				c0.0645-0.2109,0.0967-0.6123,0.0967-1.2041V95.4908z"/>
			<path d="M95.9817,99.9732H93.512v-9.334h2.2939v1.3271c0.3926-0.627,0.7461-1.04,1.0586-1.2393
				c0.3145-0.1992,0.6699-0.2988,1.0684-0.2988c0.5625,0,1.1045,0.1553,1.626,0.4658l-0.7646,2.1533
				c-0.416-0.2695-0.8027-0.4043-1.1602-0.4043c-0.3457,0-0.6387,0.0957-0.8789,0.2852c-0.2402,0.1914-0.4297,0.5352-0.5664,1.0332
				c-0.1387,0.498-0.207,1.541-0.207,3.1289V99.9732z"/>
			<path d="M100.6223,89.3736v-2.2852h2.4697v2.2852H100.6223z M100.6223,99.9732v-9.334h2.4697v9.334H100.6223z"/>
			<path d="M114.1839,99.9732h-2.2939v-1.3711c-0.3809,0.5332-0.8301,0.9307-1.3496,1.1914
				c-0.5176,0.2598-1.041,0.3906-1.5684,0.3906c-1.0723,0-1.9902-0.4316-2.7559-1.2969c-0.7637-0.8633-1.1465-2.0693-1.1465-3.6162
				c0-1.582,0.3721-2.7842,1.1162-3.6084c0.7441-0.8223,1.6846-1.2344,2.8213-1.2344c1.043,0,1.9453,0.4336,2.707,1.3008v-4.6406
				h2.4697V99.9732z M107.5921,95.1041c0,0.9961,0.1377,1.7168,0.4131,2.1621c0.3984,0.6445,0.9551,0.9668,1.6699,0.9668
				c0.5684,0,1.0518-0.2422,1.4502-0.7246c0.3984-0.4844,0.5977-1.2061,0.5977-2.167c0-1.0723-0.1934-1.8438-0.5801-2.3154
				s-0.8818-0.708-1.4854-0.708c-0.5859,0-1.0762,0.2334-1.4727,0.6982C107.7903,93.483,107.5921,94.1783,107.5921,95.1041z"/>
			<path d="M118.4641,93.4869l-2.2412-0.4043c0.252-0.9023,0.6855-1.5703,1.3008-2.0039s1.5293-0.6504,2.7422-0.6504
				c1.1016,0,1.9219,0.1309,2.4609,0.3906c0.5391,0.2617,0.9189,0.5928,1.1377,0.9941c0.2207,0.4014,0.3301,1.1377,0.3301,2.21
				l-0.0264,2.8828c0,0.8203,0.04,1.4258,0.1182,1.8154c0.0801,0.3896,0.2275,0.8066,0.4443,1.252h-2.4434
				c-0.0645-0.1641-0.1436-0.4072-0.2373-0.7295c-0.041-0.1465-0.0703-0.2432-0.0879-0.29
				c-0.4219,0.4102-0.873,0.7178-1.3535,0.9229s-0.9932,0.3076-1.5381,0.3076c-0.9609,0-1.7178-0.2607-2.2725-0.7822
				c-0.5527-0.5215-0.8301-1.1807-0.8301-1.9775c0-0.5273,0.126-0.998,0.3779-1.4102c0.252-0.4141,0.6045-0.7305,1.0596-0.9492
				c0.4531-0.2207,1.1084-0.4121,1.9639-0.5762c1.1543-0.2168,1.9541-0.4189,2.3994-0.6064v-0.2461
				c0-0.4746-0.1172-0.8135-0.3516-1.0146c-0.2344-0.2031-0.6768-0.3037-1.3271-0.3037c-0.4395,0-0.7822,0.0869-1.0283,0.2588
				C118.8157,92.7506,118.6165,93.0533,118.4641,93.4869z M121.7688,95.4908c-0.3164,0.1055-0.8174,0.2314-1.5029,0.3779
				s-1.1338,0.29-1.3447,0.4307c-0.3223,0.2285-0.4834,0.5186-0.4834,0.8701c0,0.3457,0.1289,0.6445,0.3867,0.8965
				s0.5859,0.3779,0.9844,0.3779c0.4453,0,0.8701-0.1465,1.2744-0.4395c0.2988-0.2227,0.4951-0.4951,0.5889-0.8174
				c0.0645-0.2109,0.0967-0.6123,0.0967-1.2041V95.4908z"/>
			<path d="M135.1897,99.9732h-2.2939v-1.3711c-0.3809,0.5332-0.8301,0.9307-1.3496,1.1914
				c-0.5176,0.2598-1.041,0.3906-1.5684,0.3906c-1.0723,0-1.9902-0.4316-2.7559-1.2969c-0.7637-0.8633-1.1465-2.0693-1.1465-3.6162
				c0-1.582,0.3721-2.7842,1.1162-3.6084c0.7441-0.8223,1.6846-1.2344,2.8213-1.2344c1.043,0,1.9453,0.4336,2.707,1.3008v-4.6406
				h2.4697V99.9732z M128.5979,95.1041c0,0.9961,0.1377,1.7168,0.4131,2.1621c0.3984,0.6445,0.9551,0.9668,1.6699,0.9668
				c0.5684,0,1.0518-0.2422,1.4502-0.7246c0.3984-0.4844,0.5977-1.2061,0.5977-2.167c0-1.0723-0.1934-1.8438-0.5801-2.3154
				s-0.8818-0.708-1.4854-0.708c-0.5859,0-1.0762,0.2334-1.4727,0.6982C128.7962,93.483,128.5979,94.1783,128.5979,95.1041z"/>
		</g>
	</g>
	<g>
		<g>
			<path d="M39.635,139.5855v-12.8848h5.4756c1.377,0,2.377,0.1162,3.002,0.3477c0.623,0.2314,1.123,0.6426,1.498,1.2344
				c0.375,0.5918,0.5625,1.2686,0.5625,2.0303c0,0.9668-0.2842,1.7656-0.8525,2.3955s-1.418,1.0264-2.5488,1.1904
				c0.5625,0.3281,1.0264,0.6885,1.3936,1.0811c0.3652,0.3926,0.8594,1.0898,1.4805,2.0918l1.5732,2.5137h-3.1113l-1.8809-2.8037
				c-0.668-1.002-1.125-1.6328-1.3711-1.8936s-0.5068-0.4395-0.7822-0.5371c-0.2754-0.0957-0.7119-0.1445-1.3096-0.1445h-0.5273
				v5.3789H39.635z M42.2366,132.15h1.9248c1.248,0,2.0273-0.0527,2.3379-0.1582s0.5537-0.2871,0.7295-0.5449
				s0.2637-0.5801,0.2637-0.9668c0-0.4336-0.1162-0.7832-0.3467-1.0508c-0.2324-0.2656-0.5586-0.4346-0.9805-0.5049
				c-0.2109-0.0293-0.8438-0.0439-1.8984-0.0439h-2.0303V132.15z"/>
			<path d="M58.013,136.6148l2.4609,0.4131c-0.3164,0.9023-0.8164,1.5898-1.498,2.0615c-0.6836,0.4717-1.5371,0.707-2.5625,0.707
				c-1.623,0-2.8242-0.5303-3.6035-1.5908c-0.6152-0.8496-0.9229-1.9219-0.9229-3.2168c0-1.5469,0.4043-2.7578,1.2129-3.6338
				s1.8311-1.3145,3.0674-1.3145c1.3887,0,2.4844,0.459,3.2871,1.375c0.8027,0.918,1.1865,2.3223,1.1514,4.2148h-6.1875
				c0.0176,0.7324,0.2168,1.3027,0.5977,1.709c0.3809,0.4082,0.8555,0.6113,1.4238,0.6113c0.3867,0,0.7119-0.1055,0.9756-0.3164
				S57.8782,137.0836,58.013,136.6148z M58.1536,134.1187c-0.0176-0.7148-0.2021-1.2578-0.5537-1.6309
				c-0.3516-0.3711-0.7793-0.5576-1.2832-0.5576c-0.5391,0-0.9844,0.1963-1.3359,0.5889s-0.5244,0.9258-0.5186,1.5996H58.1536z"/>
			<path d="M61.7483,136.9224l2.4785-0.3779c0.1055,0.4805,0.3193,0.8457,0.6416,1.0938c0.3223,0.25,0.7734,0.374,1.3535,0.374
				c0.6387,0,1.1191-0.1172,1.4414-0.3516c0.2168-0.1641,0.3252-0.3838,0.3252-0.6592c0-0.1875-0.0586-0.3428-0.1758-0.4658
				c-0.123-0.1172-0.3984-0.2256-0.8262-0.3252c-1.9922-0.4395-3.2549-0.8408-3.7881-1.2041
				c-0.7383-0.5039-1.1074-1.2041-1.1074-2.1006c0-0.8086,0.3193-1.4883,0.958-2.0391s1.6289-0.8262,2.9707-0.8262
				c1.2773,0,2.2266,0.208,2.8477,0.624s1.0488,1.0313,1.2832,1.8457l-2.3291,0.4307c-0.0996-0.3633-0.2891-0.6416-0.5664-0.835
				c-0.2793-0.1934-0.6758-0.29-1.1914-0.29c-0.6504,0-1.1162,0.0908-1.3975,0.2725c-0.1875,0.1289-0.2813,0.2959-0.2813,0.501
				c0,0.1758,0.082,0.3252,0.2461,0.4482c0.2227,0.1641,0.9912,0.3955,2.3076,0.6943c1.3145,0.2988,2.2334,0.665,2.7549,1.0986
				c0.5156,0.4395,0.7734,1.0518,0.7734,1.8369c0,0.8555-0.3574,1.5908-1.0723,2.2061s-1.7725,0.9229-3.1729,0.9229
				c-1.2715,0-2.2773-0.2578-3.0195-0.7734C62.4622,138.5074,61.9768,137.8072,61.7483,136.9224z"/>
			<path d="M72.5589,130.2515h2.3027v1.3711c0.2988-0.4688,0.7031-0.8496,1.2129-1.1426s1.0752-0.4395,1.6963-0.4395
				c1.084,0,2.0039,0.4248,2.7598,1.2744s1.1338,2.0332,1.1338,3.5508c0,1.5586-0.3809,2.7705-1.1426,3.6338
				c-0.7617,0.8652-1.6846,1.2969-2.7686,1.2969c-0.5156,0-0.9824-0.1025-1.4023-0.3076c-0.418-0.2051-0.8594-0.5566-1.3223-1.0547
				v4.7021h-2.4697V130.2515z M75.0022,134.7603c0,1.0488,0.208,1.8232,0.624,2.3252c0.416,0.5,0.9229,0.751,1.5205,0.751
				c0.5742,0,1.0518-0.2295,1.4326-0.6904c0.3809-0.459,0.5713-1.2139,0.5713-2.2627c0-0.9785-0.1963-1.7051-0.5889-2.1797
				s-0.8789-0.7119-1.459-0.7119c-0.6035,0-1.1045,0.2324-1.5029,0.6992C75.2014,133.1558,75.0022,133.8463,75.0022,134.7603z"/>
			<path d="M89.0296,136.6148l2.4609,0.4131c-0.3164,0.9023-0.8154,1.5898-1.499,2.0615c-0.6816,0.4717-1.5361,0.707-2.5615,0.707
				c-1.623,0-2.8242-0.5303-3.6035-1.5908c-0.6152-0.8496-0.9229-1.9219-0.9229-3.2168c0-1.5469,0.4043-2.7578,1.2129-3.6338
				s1.8311-1.3145,3.0674-1.3145c1.3887,0,2.4844,0.459,3.2871,1.375c0.8027,0.918,1.1865,2.3223,1.1514,4.2148h-6.1875
				c0.0176,0.7324,0.2168,1.3027,0.5977,1.709c0.3809,0.4082,0.8555,0.6113,1.4238,0.6113c0.3867,0,0.7119-0.1055,0.9756-0.3164
				S88.8948,137.0836,89.0296,136.6148z M89.1702,134.1187c-0.0176-0.7148-0.2021-1.2578-0.5537-1.6309
				c-0.3516-0.3711-0.7793-0.5576-1.2832-0.5576c-0.5391,0-0.9844,0.1963-1.3359,0.5889s-0.5244,0.9258-0.5186,1.5996H89.1702z"/>
			<path d="M97.9153,130.2515v1.9688h-1.6875v3.7617c0,0.7617,0.0156,1.2061,0.0488,1.332c0.0313,0.126,0.1055,0.2295,0.2188,0.3115
				c0.1152,0.082,0.2539,0.123,0.418,0.123c0.2285,0,0.5596-0.0791,0.9932-0.2373l0.2109,1.916
				c-0.5742,0.2461-1.2246,0.3691-1.9512,0.3691c-0.4453,0-0.8467-0.0742-1.2041-0.2246c-0.3574-0.1484-0.6191-0.3418-0.7871-0.5801
				c-0.166-0.2363-0.2822-0.5576-0.3467-0.9619c-0.0527-0.2871-0.0791-0.8672-0.0791-1.7402v-4.0693h-1.1338v-1.9688h1.1338v-1.8545
				l2.4785-1.4414v3.2959H97.9153z"/>
			<path d="M99.0579,134.7867c0-0.8203,0.2021-1.6143,0.6064-2.3818s0.9775-1.3535,1.7178-1.7578
				c0.7422-0.4043,1.5693-0.6064,2.4834-0.6064c1.4121,0,2.5693,0.459,3.4717,1.375c0.9023,0.918,1.3535,2.0762,1.3535,3.4766
				c0,1.4121-0.4551,2.583-1.3672,3.5117c-0.9102,0.9287-2.0576,1.3926-3.4404,1.3926c-0.8555,0-1.6709-0.1934-2.4482-0.5801
				c-0.7754-0.3867-1.3662-0.9531-1.7705-1.7012C99.26,136.7691,99.0579,135.859,99.0579,134.7867z M101.5891,134.9185
				c0,0.9258,0.2197,1.6348,0.6592,2.127s0.9814,0.7383,1.626,0.7383s1.1855-0.2461,1.6211-0.7383
				c0.4375-0.4922,0.6553-1.207,0.6553-2.1445c0-0.9141-0.2178-1.6172-0.6553-2.1094c-0.4355-0.4922-0.9766-0.7383-1.6211-0.7383
				s-1.1865,0.2461-1.626,0.7383S101.5891,133.9928,101.5891,134.9185z"/>
		</g>
	</g>
	<g>
		<g>
			<path d="M39.635,167.7916h5.1504c1.0195,0,1.7803,0.043,2.2803,0.127c0.502,0.0859,0.9492,0.2627,1.3457,0.5322
				c0.3945,0.2695,0.7246,0.6279,0.9883,1.0771c0.2637,0.4473,0.3955,0.9502,0.3955,1.5068c0,0.6035-0.1631,1.1572-0.4873,1.6611
				c-0.3262,0.5039-0.7666,0.8818-1.3232,1.1338c0.7852,0.2285,1.3887,0.6182,1.8105,1.1689s0.6328,1.1982,0.6328,1.9424
				c0,0.5859-0.1357,1.1553-0.4092,1.71c-0.2715,0.5527-0.6445,0.9961-1.1152,1.3262c-0.4727,0.332-1.0537,0.5352-1.7451,0.6113
				c-0.4336,0.0469-1.4795,0.0762-3.1377,0.0879H39.635V167.7916z M42.2366,169.9361v2.9795h1.7051
				c1.0137,0,1.6436-0.0146,1.8896-0.0439c0.4453-0.0527,0.7949-0.207,1.0508-0.4609c0.2539-0.2559,0.3818-0.5908,0.3818-1.0068
				c0-0.3984-0.1104-0.7217-0.3291-0.9717c-0.2207-0.248-0.5469-0.3994-0.9805-0.4521c-0.2578-0.0293-0.999-0.0439-2.2236-0.0439
				H42.2366z M42.2366,175.0601v3.4453h2.4082c0.9375,0,1.5322-0.0264,1.7842-0.0791c0.3867-0.0703,0.7012-0.2422,0.9453-0.5137
				c0.2422-0.2734,0.3643-0.6377,0.3643-1.0947c0-0.3867-0.0938-0.7148-0.2813-0.9844s-0.458-0.4658-0.8135-0.5889
				c-0.3535-0.123-1.123-0.1846-2.3066-0.1846H42.2366z"/>
			<path d="M52.6077,170.0767v-2.2852h2.4697v2.2852H52.6077z M52.6077,180.6763v-9.334h2.4697v9.334H52.6077z"/>
			<path d="M63.0139,177.7056l2.4609,0.4131c-0.3164,0.9023-0.8154,1.5898-1.499,2.0615c-0.6816,0.4717-1.5361,0.707-2.5615,0.707
				c-1.623,0-2.8242-0.5303-3.6035-1.5908c-0.6152-0.8496-0.9229-1.9219-0.9229-3.2168c0-1.5469,0.4043-2.7578,1.2129-3.6338
				s1.8311-1.3145,3.0674-1.3145c1.3887,0,2.4844,0.459,3.2871,1.375c0.8027,0.918,1.1865,2.3223,1.1514,4.2148h-6.1875
				c0.0176,0.7324,0.2168,1.3027,0.5977,1.709c0.3809,0.4082,0.8555,0.6113,1.4238,0.6113c0.3867,0,0.7119-0.1055,0.9756-0.3164
				S62.8792,178.1744,63.0139,177.7056z M63.1546,175.2095c-0.0176-0.7148-0.2021-1.2578-0.5537-1.6309
				c-0.3516-0.3711-0.7793-0.5576-1.2832-0.5576c-0.5391,0-0.9844,0.1963-1.3359,0.5889s-0.5244,0.9258-0.5186,1.5996H63.1546z"/>
			<path d="M76.1096,180.6763h-2.4697v-4.7637c0-1.0078-0.0527-1.6592-0.1582-1.9551s-0.2773-0.5264-0.5137-0.6904
				c-0.2383-0.1641-0.5234-0.2461-0.8574-0.2461c-0.4277,0-0.8115,0.1172-1.1514,0.3516s-0.5732,0.5449-0.6982,0.9316
				c-0.127,0.3867-0.1895,1.1016-0.1895,2.1445v4.2275h-2.4697v-9.334h2.2939v1.3711c0.8145-1.0547,1.8398-1.582,3.0762-1.582
				c0.5449,0,1.043,0.0986,1.4941,0.2949s0.793,0.4463,1.0234,0.751c0.2324,0.3047,0.3926,0.6504,0.4844,1.0371
				c0.0898,0.3867,0.1357,0.9404,0.1357,1.6611V180.6763z"/>
			<path d="M91.7542,174.1021l-2.4346,0.4395c-0.082-0.4863-0.2676-0.8525-0.5586-1.0986c-0.2891-0.2461-0.666-0.3691-1.1289-0.3691
				c-0.6152,0-1.1055,0.2129-1.4727,0.6377c-0.3652,0.4248-0.5488,1.1348-0.5488,2.1309c0,1.1074,0.1855,1.8896,0.5586,2.3467
				c0.3711,0.457,0.8711,0.6855,1.498,0.6855c0.4688,0,0.8525-0.1328,1.1514-0.3994s0.5098-0.7256,0.6328-1.376l2.4258,0.4131
				c-0.252,1.1133-0.7354,1.9541-1.4502,2.5225s-1.6729,0.8525-2.874,0.8525c-1.3652,0-2.4541-0.4307-3.2646-1.292
				c-0.8125-0.8613-1.2178-2.0537-1.2178-3.5771c0-1.541,0.4072-2.7402,1.2217-3.5996c0.8145-0.8574,1.916-1.2871,3.3047-1.2871
				c1.1367,0,2.041,0.2451,2.7109,0.7344C90.9798,172.3551,91.4612,173.1002,91.7542,174.1021z"/>
			<path d="M93.055,175.8775c0-0.8203,0.2021-1.6143,0.6064-2.3818s0.9766-1.3535,1.7188-1.7578
				c0.7402-0.4043,1.5684-0.6064,2.4824-0.6064c1.4121,0,2.5693,0.459,3.4717,1.375c0.9023,0.918,1.3535,2.0762,1.3535,3.4766
				c0,1.4121-0.4561,2.583-1.3662,3.5117c-0.9121,0.9287-2.0586,1.3926-3.4414,1.3926c-0.8555,0-1.6719-0.1934-2.4473-0.5801
				c-0.7773-0.3867-1.3672-0.9531-1.7715-1.7012C93.2571,177.8599,93.055,176.9498,93.055,175.8775z M95.5862,176.0094
				c0,0.9258,0.2197,1.6348,0.6592,2.127s0.9814,0.7383,1.626,0.7383s1.1846-0.2461,1.6221-0.7383
				c0.4355-0.4922,0.6543-1.207,0.6543-2.1445c0-0.9141-0.2188-1.6172-0.6543-2.1094c-0.4375-0.4922-0.9775-0.7383-1.6221-0.7383
				s-1.1865,0.2461-1.626,0.7383S95.5862,175.0836,95.5862,176.0094z"/>
			<path d="M104.4368,171.3424h2.2764v1.2744c0.8145-0.9902,1.7842-1.4854,2.9092-1.4854c0.5977,0,1.1162,0.123,1.5557,0.3691
				s0.7998,0.6182,1.0811,1.1162c0.4102-0.498,0.8525-0.8701,1.3271-1.1162s0.9814-0.3691,1.5205-0.3691
				c0.6855,0,1.2656,0.1396,1.7402,0.418s0.8291,0.6865,1.0635,1.2256c0.1699,0.3984,0.2549,1.043,0.2549,1.9336v5.9678h-2.4697
				v-5.335c0-0.9258-0.085-1.5234-0.2549-1.793c-0.2285-0.3516-0.5801-0.5273-1.0547-0.5273c-0.3457,0-0.6709,0.1055-0.9756,0.3164
				s-0.5244,0.5205-0.6592,0.9268c-0.1348,0.4082-0.2021,1.0508-0.2021,1.9297v4.4824h-2.4697v-5.1152
				c0-0.9082-0.0439-1.4941-0.1318-1.7578s-0.2236-0.46-0.4092-0.5889c-0.1836-0.1289-0.4346-0.1934-0.751-0.1934
				c-0.3809,0-0.7236,0.1025-1.0283,0.3076s-0.5234,0.501-0.6543,0.8877c-0.1328,0.3867-0.1982,1.0283-0.1982,1.9248v4.5352h-2.4697
				V171.3424z"/>
			<path d="M126.7698,180.6763v-1.3975c-0.3398,0.498-0.7861,0.8906-1.3408,1.1777c-0.5527,0.2871-1.1377,0.4307-1.7529,0.4307
				c-0.627,0-1.1895-0.1377-1.6875-0.4131s-0.8584-0.6621-1.0811-1.1602s-0.334-1.1865-0.334-2.0654v-5.9063h2.4697v4.2891
				c0,1.3125,0.0459,2.1172,0.1357,2.4121c0.0918,0.2969,0.2568,0.5313,0.4971,0.7031c0.2402,0.1738,0.5449,0.2598,0.9141,0.2598
				c0.4219,0,0.7998-0.1152,1.1338-0.3477c0.334-0.2305,0.5625-0.5176,0.6855-0.8613c0.123-0.3418,0.1846-1.1816,0.1846-2.5176
				v-3.9375h2.4697v9.334H126.7698z M123.5706,170.1998l1.2129-2.6279h2.7686l-2.417,2.6279H123.5706z"/>
			<path d="M140.1116,180.6763h-2.4697v-4.7637c0-1.0078-0.0527-1.6592-0.1582-1.9551s-0.2773-0.5264-0.5137-0.6904
				c-0.2383-0.1641-0.5234-0.2461-0.8574-0.2461c-0.4277,0-0.8115,0.1172-1.1514,0.3516s-0.5732,0.5449-0.6982,0.9316
				c-0.127,0.3867-0.1895,1.1016-0.1895,2.1445v4.2275h-2.4697v-9.334h2.2939v1.3711c0.8145-1.0547,1.8398-1.582,3.0762-1.582
				c0.5449,0,1.043,0.0986,1.4941,0.2949s0.793,0.4463,1.0234,0.751c0.2324,0.3047,0.3926,0.6504,0.4844,1.0371
				c0.0898,0.3867,0.1357,0.9404,0.1357,1.6611V180.6763z"/>
		</g>
	</g>
	<g>
		<g>
			<path d="M39.6262,218.4263v-12.8848H49.18v2.1797h-6.9521v2.8564h6.4688v2.1709h-6.4688v3.5068h7.1982v2.1709H39.6262z"/>
			<path d="M57.7141,221.9771v-4.6934c-0.3223,0.416-0.7236,0.7461-1.2041,0.9883c-0.4805,0.2432-0.999,0.3652-1.5557,0.3652
				c-1.0605,0-1.9336-0.3984-2.6191-1.1953c-0.8086-0.9316-1.2129-2.1943-1.2129-3.7881c0-1.5,0.3789-2.6699,1.1387-3.5107
				c0.7578-0.8408,1.7002-1.2617,2.8252-1.2617c0.6211,0,1.1592,0.1318,1.6123,0.3955c0.4551,0.2637,0.8574,0.6621,1.209,1.1953
				v-1.3799h2.2764v12.8848H57.7141z M57.7932,213.6451c0-0.9551-0.1943-1.666-0.585-2.1309
				c-0.3887-0.4668-0.877-0.6992-1.4629-0.6992c-0.5977,0-1.0977,0.2373-1.498,0.7119c-0.4023,0.4746-0.6025,1.2275-0.6025,2.2588
				c0,1.0254,0.1934,1.7656,0.5801,2.2188c0.3867,0.4551,0.8643,0.6816,1.4326,0.6816s1.0664-0.2549,1.4941-0.7646
				S57.7932,214.6529,57.7932,213.6451z"/>
			<path d="M68.7532,218.4263v-1.3975c-0.3398,0.498-0.7871,0.8906-1.3398,1.1777c-0.5547,0.2871-1.1387,0.4307-1.7539,0.4307
				c-0.627,0-1.1895-0.1377-1.6875-0.4131c-0.498-0.2754-0.8584-0.6621-1.0811-1.1602s-0.334-1.1865-0.334-2.0654v-5.9063h2.4697
				v4.2891c0,1.3125,0.0449,2.1172,0.1367,2.4121c0.0898,0.2969,0.2559,0.5313,0.4961,0.7031
				c0.2402,0.1738,0.5449,0.2598,0.9141,0.2598c0.4219,0,0.7998-0.1152,1.1338-0.3477c0.334-0.2305,0.5625-0.5176,0.6855-0.8613
				c0.123-0.3418,0.1846-1.1816,0.1846-2.5176v-3.9375h2.4697v9.334H68.7532z"/>
			<path d="M73.6048,207.8267v-2.2852h2.4697v2.2852H73.6048z M73.6048,218.4263v-9.334h2.4697v9.334H73.6048z"/>
			<path d="M87.1663,218.4263h-2.2939v-1.3711c-0.3809,0.5332-0.8301,0.9307-1.3496,1.1914
				c-0.5176,0.2598-1.041,0.3906-1.5684,0.3906c-1.0723,0-1.9902-0.4316-2.7559-1.2969c-0.7637-0.8633-1.1465-2.0693-1.1465-3.6162
				c0-1.582,0.3721-2.7842,1.1162-3.6084c0.7441-0.8223,1.6846-1.2344,2.8213-1.2344c1.043,0,1.9453,0.4336,2.707,1.3008v-4.6406
				h2.4697V218.4263z M80.5745,213.5572c0,0.9961,0.1377,1.7168,0.4131,2.1621c0.3984,0.6445,0.9551,0.9668,1.6699,0.9668
				c0.5684,0,1.0518-0.2422,1.4502-0.7246c0.3984-0.4844,0.5977-1.2061,0.5977-2.167c0-1.0723-0.1934-1.8438-0.5801-2.3154
				s-0.8818-0.708-1.4854-0.708c-0.5859,0-1.0762,0.2334-1.4727,0.6982C80.7727,211.9361,80.5745,212.6314,80.5745,213.5572z"/>
			<path d="M91.4466,211.94l-2.2412-0.4043c0.252-0.9023,0.6855-1.5703,1.3008-2.0039s1.5293-0.6504,2.7422-0.6504
				c1.1016,0,1.9219,0.1309,2.4609,0.3906c0.5391,0.2617,0.9189,0.5928,1.1377,0.9941c0.2207,0.4014,0.3301,1.1377,0.3301,2.21
				l-0.0264,2.8828c0,0.8203,0.04,1.4258,0.1182,1.8154c0.0801,0.3896,0.2275,0.8066,0.4443,1.252h-2.4434
				c-0.0645-0.1641-0.1436-0.4072-0.2373-0.7295c-0.041-0.1465-0.0703-0.2432-0.0879-0.29
				c-0.4219,0.4102-0.873,0.7178-1.3535,0.9229s-0.9932,0.3076-1.5381,0.3076c-0.9609,0-1.7178-0.2607-2.2725-0.7822
				c-0.5527-0.5215-0.8301-1.1807-0.8301-1.9775c0-0.5273,0.126-0.998,0.3779-1.4102c0.252-0.4141,0.6045-0.7305,1.0596-0.9492
				c0.4531-0.2207,1.1084-0.4121,1.9639-0.5762c1.1543-0.2168,1.9541-0.4189,2.3994-0.6064v-0.2461
				c0-0.4746-0.1172-0.8135-0.3516-1.0146c-0.2344-0.2031-0.6768-0.3037-1.3271-0.3037c-0.4395,0-0.7822,0.0869-1.0283,0.2588
				C91.7981,211.2037,91.5989,211.5064,91.4466,211.94z M94.7512,213.9439c-0.3164,0.1055-0.8174,0.2314-1.5029,0.3779
				s-1.1338,0.29-1.3447,0.4307c-0.3223,0.2285-0.4834,0.5186-0.4834,0.8701c0,0.3457,0.1289,0.6445,0.3867,0.8965
				s0.5859,0.3779,0.9844,0.3779c0.4453,0,0.8701-0.1465,1.2744-0.4395c0.2988-0.2227,0.4951-0.4951,0.5889-0.8174
				c0.0645-0.2109,0.0967-0.6123,0.0967-1.2041V213.9439z"/>
			<path d="M108.1721,218.4263h-2.2939v-1.3711c-0.3809,0.5332-0.8301,0.9307-1.3496,1.1914
				c-0.5176,0.2598-1.041,0.3906-1.5684,0.3906c-1.0723,0-1.9902-0.4316-2.7559-1.2969c-0.7637-0.8633-1.1465-2.0693-1.1465-3.6162
				c0-1.582,0.3721-2.7842,1.1162-3.6084c0.7441-0.8223,1.6846-1.2344,2.8213-1.2344c1.043,0,1.9453,0.4336,2.707,1.3008v-4.6406
				h2.4697V218.4263z M101.5803,213.5572c0,0.9961,0.1377,1.7168,0.4131,2.1621c0.3984,0.6445,0.9551,0.9668,1.6699,0.9668
				c0.5684,0,1.0518-0.2422,1.4502-0.7246c0.3984-0.4844,0.5977-1.2061,0.5977-2.167c0-1.0723-0.1934-1.8438-0.5801-2.3154
				s-0.8818-0.708-1.4854-0.708c-0.5859,0-1.0762,0.2334-1.4727,0.6982C101.7786,211.9361,101.5803,212.6314,101.5803,213.5572z"/>
		</g>
	</g>
</g>
</svg>
