<?xml version="1.0" encoding="utf-8"?>
<!-- Generator: Adobe Illustrator 21.0.2, SVG Export Plug-In . SVG Version: 6.00 Build 0)  -->
<svg version="1.1" id="Capa_1" xmlns="http://www.w3.org/2000/svg" xmlns:xlink="http://www.w3.org/1999/xlink" x="0px" y="0px"
	 viewBox="0 0 427.005 532.7595" style="enable-background:new 0 0 427.005 532.7595;" xml:space="preserve">
<style type="text/css">
	.st0{fill-rule:evenodd;clip-rule:evenodd;fill:#DDDDDD;}
	.st1{fill:#3B86B1;}
	.st2{opacity:0.25;fill-rule:evenodd;clip-rule:evenodd;fill:#020202;}
	.st3{fill:#FFFFFF;}
	.st4{opacity:0.5;}
	.st5{fill-rule:evenodd;clip-rule:evenodd;fill:#A8A8A8;}
	.st6{fill-rule:evenodd;clip-rule:evenodd;fill:#FFFFFF;}
	.st7{fill-rule:evenodd;clip-rule:evenodd;fill:#3B86B1;}
	.st8{opacity:0.5;fill:#2C6882;}
	.st9{opacity:0.75;fill-rule:evenodd;clip-rule:evenodd;fill:#282828;}
	.st10{opacity:0.5;fill:#FFFFFF;}
	.st11{fill-rule:evenodd;clip-rule:evenodd;fill:none;stroke:#FFFFFF;stroke-miterlimit:10;}
	.st12{fill:none;stroke:#FFFFFF;stroke-miterlimit:10;}
	.st13{fill:#FFFFFF;stroke:#3B86B1;stroke-width:1.7139;stroke-miterlimit:10;}
	.st14{fill-rule:evenodd;clip-rule:evenodd;}
	.st15{opacity:0.85;fill:#FFFFFF;}
	.st16{opacity:0.5;fill-rule:evenodd;clip-rule:evenodd;}
	.st17{fill-rule:evenodd;clip-rule:evenodd;fill:#FEFEFE;}
	.st18{fill:#312767;}
	.st19{opacity:0.48;}
	.st20{opacity:0.25;}
	.st21{fill-rule:evenodd;clip-rule:evenodd;fill:#020202;}
	.st22{fill:#757575;}
	.st23{opacity:0.25;clip-path:url(#XMLID_3738_);}
	.st24{fill:#FFFFFF;stroke:#312767;stroke-miterlimit:10;}
	.st25{fill:#ACABC9;}
	.st26{fill-rule:evenodd;clip-rule:evenodd;fill:#312767;}
	.st27{opacity:0.77;fill:#312767;}
	.st28{opacity:0.25;clip-path:url(#XMLID_3760_);}
	.st29{fill:#9490B2;stroke:#2D2D2D;stroke-width:0.25;stroke-miterlimit:10;}
	.st30{fill:#312767;stroke:#2D2D2D;stroke-width:0.25;stroke-miterlimit:10;}
	.st31{fill:#FCFCFC;}
	.st32{fill:#FFFFFF;stroke:#2D2D2D;stroke-width:0.25;stroke-miterlimit:10;}
	.st33{fill-rule:evenodd;clip-rule:evenodd;fill:#484849;stroke:#2D2D2D;stroke-width:0.25;stroke-miterlimit:10;}
	.st34{fill-rule:evenodd;clip-rule:evenodd;fill:#312767;stroke:#2D2D2D;stroke-width:0.25;stroke-miterlimit:10;}
	.st35{fill-rule:evenodd;clip-rule:evenodd;fill:#FFFFFF;stroke:#2D2D2D;stroke-width:0.25;stroke-miterlimit:10;}
	.st36{fill:#484849;stroke:#2D2D2D;stroke-width:0.25;stroke-miterlimit:10;}
	.st37{fill:#FFFFFF;stroke:#FFFFFF;stroke-miterlimit:10;}
	.st38{fill:#54518C;}
	.st39{opacity:0.25;fill-rule:evenodd;clip-rule:evenodd;fill:#FFFFFF;}
	.st40{fill:#D4A800;}
	.st41{fill:#00AEB3;}
	.st42{fill:#38353B;}
	.st43{fill:#FF8400;}
	.st44{fill:#BF3900;}
	.st45{fill:#00AA9C;}
	.st46{opacity:0.25;clip-path:url(#XMLID_3761_);}
	.st47{fill:none;stroke:#ACABC9;stroke-width:5;stroke-miterlimit:10;}
	.st48{opacity:0.25;clip-path:url(#XMLID_3762_);}
	.st49{fill:#DDDDDD;}
	.st50{opacity:0.25;clip-path:url(#XMLID_3763_);}
	.st51{fill-rule:evenodd;clip-rule:evenodd;fill:#FFFFFF;stroke:#FFFFFF;stroke-miterlimit:10;}
	.st52{fill:#F79748;}
	.st53{fill:#FF7900;}
	.st54{fill:#DD7105;}
	.st55{fill:#02897C;}
	.st56{fill:#0EAD9A;}
	.st57{fill:#28C6AF;}
	.st58{fill:#4FE0C7;}
	.st59{fill:#D37D00;}
	.st60{fill:#D14600;}
	.st61{fill:#E5B92E;}
	.st62{fill:#DD571B;}
	.st63{fill:#E28A17;}
	.st64{opacity:0.25;clip-path:url(#XMLID_3770_);}
	.st65{fill:#4D4789;}
	.st66{opacity:0.77;fill:#FFFFFF;}
	.st67{fill:#50565B;stroke:#656C70;stroke-miterlimit:10;}
	.st68{fill:#808589;stroke:#656C70;stroke-miterlimit:10;}
	.st69{fill:#252728;stroke:#000000;stroke-miterlimit:10;}
	.st70{fill:#1A1B1C;stroke:#000000;stroke-miterlimit:10;}
	.st71{fill:#A0A6AA;}
	.st72{fill:#262C35;stroke:#161A1E;stroke-miterlimit:10;}
	.st73{fill:#181D23;}
	.st74{fill:#EABA96;stroke:#E0AA86;stroke-miterlimit:10;}
	.st75{fill:#E0AA86;}
	.st76{stroke:#000000;stroke-width:0.75;stroke-linecap:square;stroke-linejoin:bevel;stroke-miterlimit:10;}
	.st77{fill:#0F1C3F;stroke:#182951;stroke-miterlimit:10;}
	.st78{fill:#132354;stroke:#3F6093;stroke-miterlimit:10;}
	.st79{fill:#0F1C3F;}
	.st80{fill:none;stroke:#3F6093;stroke-width:0.75;stroke-miterlimit:10;}
	.st81{fill:#DBA682;}
	.st82{fill:none;stroke:#E0AA86;stroke-miterlimit:10;}
	.st83{fill:none;stroke:#E0AA86;stroke-linejoin:bevel;stroke-miterlimit:10;}
	.st84{fill:#8A0A8E;stroke:#AC34B2;stroke-miterlimit:10;}
	.st85{fill:#810C87;}
	.st86{fill:#680B6D;}
	.st87{fill:#AC34B2;stroke:#AC34B2;stroke-width:0.5;stroke-miterlimit:10;}
	.st88{fill:none;stroke:#959DA0;stroke-width:0.5;stroke-miterlimit:10;}
	.st89{fill:#959DA0;stroke:#959DA0;stroke-width:0.5;stroke-miterlimit:10;}
	.st90{fill:none;stroke:#AC34B2;stroke-miterlimit:10;}
	.st91{fill:#282828;stroke:#000000;stroke-miterlimit:10;}
	.st92{fill:#EABA96;stroke:#E0AA86;stroke-width:0.5;stroke-miterlimit:10;}
	.st93{fill:#B7896A;}
	.st94{stroke:#000000;stroke-miterlimit:10;}
	.st95{fill:#C1A578;}
	.st96{stroke:#000000;stroke-width:0.25;stroke-linecap:round;stroke-linejoin:round;stroke-miterlimit:10;}
	.st97{fill:#FFFFFF;stroke:#000000;stroke-width:0.25;stroke-linecap:round;stroke-linejoin:round;stroke-miterlimit:10;}
	.st98{fill:#70582D;}
	.st99{stroke:#000000;stroke-linecap:round;stroke-linejoin:round;stroke-miterlimit:10;}
	.st100{fill:none;stroke:#D8A27D;stroke-width:0.75;stroke-miterlimit:10;}
	.st101{fill:#561409;}
	.st102{fill:#BA2A13;}
	.st103{fill:#9E3025;stroke:#4C2311;stroke-width:0.25;stroke-miterlimit:10;}
	.st104{fill:#871D08;stroke:#4C2311;stroke-width:0.25;stroke-miterlimit:10;}
	.st105{fill:#DDAC8A;}
	.st106{fill:#A5ABAD;stroke:#959DA0;stroke-width:0.5;stroke-miterlimit:10;}
	.st107{fill:#B1BABC;}
	.st108{fill:none;stroke:#153847;stroke-width:5;stroke-miterlimit:10;}
	.st109{fill:#3CA7AF;}
	.st110{fill:#3DAD8D;}
	.st111{fill:#3DAA61;}
	.st112{fill:#67A53F;}
	.st113{fill:#95A340;}
	.st114{fill:#153847;}
	.st115{opacity:0.25;clip-path:url(#XMLID_3771_);}
	.st116{opacity:0.25;clip-path:url(#XMLID_3772_);}
	.st117{opacity:0.25;clip-path:url(#XMLID_3773_);}
	.st118{opacity:0.25;clip-path:url(#XMLID_3780_);}
	.st119{clip-path:url(#SVGID_2_);}
	.st120{fill:none;stroke:#3F6093;stroke-miterlimit:10;}
	.st121{fill:none;stroke:#3F6093;stroke-width:0.75;stroke-linecap:round;stroke-linejoin:round;}
	.st122{fill:none;stroke:#3F6093;stroke-width:0.75;stroke-linecap:round;stroke-linejoin:round;stroke-dasharray:0.9892,0.9892;}
	
		.st123{fill:none;stroke:#3F6093;stroke-width:0.75;stroke-linecap:round;stroke-linejoin:round;stroke-miterlimit:10;stroke-dasharray:1;}
	.st124{fill:#EAEAEA;stroke:#FFFFFF;stroke-width:0.25;stroke-miterlimit:10;}
	.st125{fill:#D8D8D8;}
	.st126{fill:#282828;stroke:#000000;stroke-width:0.75;stroke-miterlimit:10;}
	.st127{opacity:0.33;fill:#FFFFFF;}
	.st128{fill:none;stroke:#000000;stroke-width:1.5;stroke-linecap:round;stroke-linejoin:round;stroke-miterlimit:10;}
	.st129{opacity:0.64;}
	.st130{fill:#C9C9C9;}
	.st131{fill:#FFF064;}
	.st132{fill:#4F4E4F;}
	.st133{fill:#1E2F47;}
	.st134{opacity:0.1;fill:#FFFFFF;}
	.st135{opacity:0.1;}
	.st136{opacity:0.4;fill:#FFFFFF;}
	.st137{fill-rule:evenodd;clip-rule:evenodd;fill:#F39C12;}
	.st138{fill-rule:evenodd;clip-rule:evenodd;fill:#E6E6E6;}
	.st139{fill-rule:evenodd;clip-rule:evenodd;fill:#474646;}
	.st140{fill-rule:evenodd;clip-rule:evenodd;fill:#D84848;}
	.st141{opacity:0.2;fill-rule:evenodd;clip-rule:evenodd;fill:#231F20;}
	.st142{opacity:0.1;fill-rule:evenodd;clip-rule:evenodd;fill:#231F20;}
	.st143{fill-rule:evenodd;clip-rule:evenodd;fill:#4D4D4D;}
	.st144{fill-rule:evenodd;clip-rule:evenodd;fill:#336699;}
	.st145{fill-rule:evenodd;clip-rule:evenodd;fill:#FF6633;}
	.st146{fill-rule:evenodd;clip-rule:evenodd;fill:#0056A3;}
	.st147{fill-rule:evenodd;clip-rule:evenodd;fill:#33CC99;}
	.st148{fill:#CE6405;}
	.st149{opacity:0.2;fill:#FFFFFF;}
	.st150{fill:#1ABC9C;}
	.st151{opacity:0.2;}
	.st152{fill:#0B2E44;}
	.st153{fill-rule:evenodd;clip-rule:evenodd;fill:#154F77;}
	.st154{fill-rule:evenodd;clip-rule:evenodd;fill:#0D3858;}
	.st155{fill-rule:evenodd;clip-rule:evenodd;fill:#FFFEFE;}
	.st156{fill:#AEC647;}
	.st157{fill:#F3AE1B;}
	.st158{fill:#DF3F11;}
	.st159{fill:#BCDEDE;}
	.st160{fill:#C84119;}
	.st161{fill:#6BB5CE;}
	.st162{fill:#00D0E5;}
	.st163{fill:#FF81ED;}
	.st164{fill:#00C982;}
	.st165{opacity:0.7;}
	.st166{opacity:0.4;}
	.st167{fill-rule:evenodd;clip-rule:evenodd;fill:#0B2E44;}
	.st168{opacity:0.8;fill-rule:evenodd;clip-rule:evenodd;fill:#FFFFFF;}
	.st169{fill:#424242;}
	.st170{opacity:0.2;fill-rule:evenodd;clip-rule:evenodd;fill:#FFFFFF;}
	.st171{fill:#D0EDFA;}
	.st172{fill:#FF651F;}
	.st173{fill:#0051C4;}
	.st174{fill:#E46400;}
	.st175{fill:#C0003B;}
	.st176{fill:#FFEA50;}
	.st177{fill:#FF2C0D;}
	.st178{fill:#FF1A2C;}
	.st179{fill:#FF2C4D;}
	.st180{fill:#FFD74C;}
	.st181{fill:#4C4C4B;}
	.st182{fill:#6CD2EA;}
	.st183{fill:#F7674F;}
	.st184{opacity:0.1;fill-rule:evenodd;clip-rule:evenodd;}
	.st185{fill:#BABABA;}
	.st186{fill:#F9B946;}
	.st187{fill:#DFC2A9;}
	.st188{fill:#BFA490;}
	.st189{fill:#F5D4B2;}
	.st190{fill:#DF584C;}
	.st191{fill:#C2443E;}
	.st192{fill:#DBDBDA;}
	.st193{fill:#2F363E;}
	.st194{fill:#332524;}
	.st195{fill:#473735;}
	.st196{opacity:0.25;clip-path:url(#XMLID_3781_);}
	.st197{fill:#52B8BA;}
	.st198{fill:#35373E;}
	.st199{opacity:0.25;clip-path:url(#XMLID_3782_);}
	.st200{opacity:0.31;fill:#34383A;}
	.st201{opacity:0.16;fill:#3D3835;}
	.st202{fill:#D0D1D4;}
	.st203{opacity:0.31;}
	.st204{fill:#34383A;}
	.st205{opacity:0.16;}
	.st206{fill:#3D3835;}
	.st207{opacity:0.25;clip-path:url(#XMLID_3783_);}
	.st208{fill:#F9E1B4;}
	.st209{opacity:0.25;fill:#050505;}
	.st210{fill:#FCC60F;}
	.st211{fill:#74CAEA;}
	.st212{fill:#050505;}
	.st213{opacity:0.25;clip-path:url(#XMLID_3784_);}
	.st214{fill:#FABC8F;}
	.st215{fill:#3FA995;}
	.st216{opacity:0.17;fill:#020202;}
	.st217{fill:#E1E1E1;}
	.st218{opacity:0.17;}
	.st219{fill:#020202;}
	.st220{opacity:0.25;clip-path:url(#XMLID_3785_);}
	.st221{fill:#BF8E00;}
	.st222{fill:#F7D8D7;}
	.st223{fill:#F18636;}
	.st224{fill:#004460;}
	.st225{fill:#D93A37;}
	.st226{fill:#EDEDED;}
	.st227{fill:#184F78;}
	.st228{fill:#FF3E03;}
	.st229{opacity:0.6;fill:#0F0F0F;}
	.st230{fill:#E8E8E6;}
	.st231{fill:#00EAA6;}
	.st232{fill-rule:evenodd;clip-rule:evenodd;fill:#FF3E03;}
	.st233{opacity:0.1;fill-rule:evenodd;clip-rule:evenodd;fill:#020202;}
	.st234{fill-rule:evenodd;clip-rule:evenodd;fill:#FABE00;}
	.st235{fill-rule:evenodd;clip-rule:evenodd;fill:#E6E8E8;}
	.st236{fill-rule:evenodd;clip-rule:evenodd;fill:#F7D959;}
	.st237{fill-rule:evenodd;clip-rule:evenodd;fill:#F9623E;}
	.st238{fill:#4F1A0F;}
	.st239{opacity:0.46;fill:#FFFFFF;}
	.st240{fill:#48505A;}
	.st241{fill:#C3C3C3;}
	.st242{fill:#E9E9EA;}
	.st243{fill:#9D9E9F;}
	.st244{fill:#F6F4F4;}
	.st245{fill:#6B6A6A;}
	.st246{fill:#C09478;}
	.st247{fill:#F7CDA0;}
	.st248{fill:#9E1010;}
	.st249{fill:#F2F2F2;}
	.st250{opacity:0.2;fill:#060606;}
	.st251{fill:#16AFBE;}
	.st252{fill:#DD2222;}
	.st253{fill:#FFEDDC;}
	.st254{fill:#22272B;}
	.st255{fill:#5B6375;}
</style>
<g>
	<g>
		<path class="st111" d="M24.3451,2.7972h375.1071c13.4454,0,24.3451,10.8997,24.3451,24.3451v505.6172H0V27.1422
			C0,13.6968,10.8997,2.7972,24.3451,2.7972z"/>
	</g>
	<g>
		<circle class="st49" cx="406.6325" cy="20.3725" r="20.3725"/>
	</g>
	<g id="XMLID_3754_">
		<g id="XMLID_3759_">
			<path class="st3" d="M412.2998,14.7051c0.963,0.9631,0.963,2.5249,0,3.4879l-2.1796,2.1795l2.1798,2.1798
				c0.963,0.9631,0.9628,2.5245-0.0002,3.4876c-0.9631,0.9631-2.5246,0.9633-3.4876,0.0003l-2.1797-2.1798l-2.1796,2.1795
				c-0.963,0.963-2.5248,0.963-3.4878-0.0001c-0.9631-0.9631-0.9628-2.5246,0.0002-3.4876l2.1795-2.1795l-2.1797-2.1798
				c-0.9631-0.9631-0.9631-2.5249,0-3.4879c0.963-0.9631,2.5248-0.963,3.4878,0.0001l2.1798,2.1798l2.1795-2.1795
				C409.7755,13.742,411.3368,13.742,412.2998,14.7051L412.2998,14.7051z M412.2998,14.7051"/>
			<path class="st18" d="M410.5564,27.2608c-0.7598,0-1.5195-0.2891-2.0977-0.8672l-1.8262-1.8262l-1.8262,1.8262
				c-1.1563,1.1563-3.0371,1.1563-4.1953,0c-1.1563-1.1563-1.1553-3.0381,0.001-4.1953l1.8262-1.8252l-1.8271-1.8262
				c-1.1563-1.1572-1.1563-3.0391,0-4.1953c1.1572-1.1572,3.04-1.1553,4.1953,0l1.8262,1.8262l1.8262-1.8262
				c1.1553-1.1553,3.0371-1.1572,4.1943,0c1.1563,1.1563,1.1563,3.0381,0,4.1953l-1.8262,1.8252l1.8262,1.8262
				c1.1563,1.1563,1.1563,3.0391,0,4.1953C412.075,26.9718,411.3152,27.2608,410.5564,27.2608z M406.6326,23.1534l2.5332,2.5332
				c0.7637,0.7637,2.0127,0.7656,2.7803,0c0.7666-0.7666,0.7666-2.0146,0-2.7813l-2.5332-2.5332l2.5332-2.5322
				c0.7666-0.7676,0.7666-2.0146,0-2.7813c-0.7656-0.7656-2.0146-0.7637-2.7803,0l-2.5332,2.5332l-2.5332-2.5332
				c-0.7656-0.7656-2.0137-0.7666-2.7813,0c-0.7666,0.7666-0.7666,2.0137,0,2.7813l2.5342,2.5332l-2.5332,2.5322
				c-0.7666,0.7676-0.7666,2.0146-0.001,2.7813c0.7686,0.7666,2.0166,0.7656,2.7813,0L406.6326,23.1534z"/>
		</g>
		<g id="XMLID_3755_">
			<path class="st18" d="M394.3757,32.6292c-6.7323-6.7323-6.7321-17.6867,0.0003-24.4191c6.7321-6.7321,17.6865-6.7323,24.4189,0
				c6.7324,6.7324,6.7327,17.6867,0.0003,24.4191C412.0627,39.3616,401.1081,39.3616,394.3757,32.6292L394.3757,32.6292z
				 M416.1248,10.8801c-5.2602-5.2602-13.819-5.26-19.0789,0c-5.2603,5.2603-5.2602,13.8192-0.0003,19.0792
				c5.2603,5.2603,13.8192,5.2603,19.0794,0C421.3851,24.6993,421.3851,16.1404,416.1248,10.8801L416.1248,10.8801z
				 M417.0762,9.9287"/>
		</g>
	</g>
</g>
<g>
	<g>
		<path class="st3" d="M172.947,53.4376l-6.2578-9.8447h-2.8477v9.8447h-2.0742V30.3702h7.3184
			c0.7832,0,1.5176,0.1475,2.2041,0.4424s1.2871,0.6992,1.8018,1.2139s0.9199,1.1182,1.2148,1.8096
			c0.2949,0.6924,0.4424,1.4297,0.4424,2.2119v1.8662c0,0.7832-0.1475,1.5205-0.4424,2.2119s-0.7002,1.2949-1.2148,1.8096
			s-1.1152,0.9199-1.8018,1.2148s-1.4209,0.4424-2.2041,0.4424l6.2578,9.8447H172.947z M172.6736,36.0479
			c0-0.5146-0.0967-0.9941-0.29-1.4395c-0.1924-0.4443-0.4561-0.8359-0.7881-1.1738s-0.7217-0.6035-1.166-0.7969
			c-0.4453-0.1924-0.9248-0.2891-1.4395-0.2891h-5.1484v9.2656h5.1484c0.5146,0,0.9941-0.0967,1.4395-0.29
			c0.4443-0.1924,0.834-0.458,1.166-0.7959s0.5957-0.7295,0.7881-1.1748c0.1934-0.4443,0.29-0.9248,0.29-1.4395V36.0479z"/>
	</g>
	<g>
		<path class="st3" d="M189.2664,50.7999c-0.252,0.5898-0.5977,1.1045-1.0371,1.5439c-0.4404,0.4395-0.9551,0.7852-1.5449,1.0371
			s-1.2168,0.3779-1.8818,0.3779h-1.3193c-0.665,0-1.292-0.126-1.8818-0.3779s-1.1045-0.5977-1.5439-1.0371
			c-0.4404-0.4395-0.7861-0.9541-1.0381-1.5439s-0.3779-1.2178-0.3779-1.8828v-7.4316c0-0.665,0.126-1.292,0.3779-1.8818
			s0.5977-1.1045,1.0381-1.5449c0.4395-0.4395,0.9541-0.7852,1.5439-1.0371s1.2168-0.3779,1.8818-0.3779h1.3193
			c0.665,0,1.292,0.126,1.8818,0.3779s1.1045,0.5977,1.5449,1.0371c0.4395,0.4404,0.7852,0.9551,1.0371,1.5449
			s0.3779,1.2168,0.3779,1.8818v3.877h-9.0244v3.668c0,0.3965,0.0752,0.7695,0.2256,1.1172
			c0.1494,0.3486,0.3535,0.6523,0.6113,0.9092c0.2568,0.2578,0.5596,0.4609,0.9082,0.6113s0.7217,0.2256,1.1182,0.2256h1.3193
			c0.3965,0,0.7695-0.0752,1.1182-0.2256s0.6514-0.3535,0.9092-0.6113c0.2568-0.2568,0.4609-0.5605,0.6113-0.9092
			c0.1494-0.3477,0.2246-0.7207,0.2246-1.1172v-1.0947l1.9785,0.3223v0.6592C189.6443,49.5821,189.5183,50.21,189.2664,50.7999z
			 M187.6658,41.3731c0-0.3965-0.0752-0.7695-0.2246-1.1182c-0.1504-0.3486-0.3545-0.6514-0.6113-0.9092
			c-0.2578-0.2568-0.5605-0.4609-0.9092-0.6113c-0.3486-0.1494-0.7217-0.2246-1.1182-0.2246h-1.3193
			c-0.3965,0-0.7695,0.0752-1.1182,0.2246c-0.3486,0.1504-0.6514,0.3545-0.9082,0.6113c-0.2578,0.2578-0.4619,0.5605-0.6113,0.9092
			c-0.1504,0.3486-0.2256,0.7217-0.2256,1.1182v2.4453h7.0459V41.3731z"/>
	</g>
	<g>
		<path class="st3" d="M204.9265,49.255c0,0.665-0.1348,1.2734-0.4023,1.8262c-0.2686,0.5527-0.6328,1.0264-1.0938,1.4238
			c-0.4619,0.3965-0.9951,0.7051-1.6006,0.9248c-0.6064,0.2197-1.2412,0.3291-1.9063,0.3291h-1.3193
			c-0.665,0-1.3008-0.126-1.9063-0.3779c-0.6064-0.252-1.1367-0.5977-1.5928-1.0371s-0.8203-0.9541-1.0938-1.5439
			s-0.4102-1.2178-0.4102-1.8828v-0.6592l1.9785-0.3223v1.0947c0,0.3965,0.083,0.7695,0.25,1.1172
			c0.166,0.3486,0.3877,0.6523,0.667,0.9092c0.2793,0.2578,0.6006,0.4609,0.9648,0.6113c0.3652,0.1504,0.7461,0.2256,1.1426,0.2256
			h1.3193c0.3965,0,0.7773-0.0596,1.1416-0.1777c0.3643-0.1172,0.6895-0.2861,0.9736-0.5059s0.5088-0.4854,0.6758-0.7969
			c0.166-0.3105,0.249-0.665,0.249-1.0615c0-0.5898-0.1289-1.0723-0.3857-1.4482c-0.2578-0.375-0.5986-0.6885-1.0215-0.9404
			c-0.4238-0.252-0.9063-0.4609-1.4482-0.6279c-0.541-0.166-1.0967-0.332-1.665-0.498s-1.123-0.3564-1.665-0.5713
			c-0.541-0.2148-1.0234-0.4961-1.4473-0.8447s-0.7646-0.7852-1.0215-1.3105c-0.2578-0.5254-0.3857-1.1797-0.3857-1.9629
			c0-0.665,0.1279-1.2734,0.3857-1.8262c0.2568-0.5518,0.6055-1.0264,1.0459-1.4229c0.4395-0.3965,0.9512-0.7051,1.5361-0.9248
			c0.584-0.2197,1.209-0.3301,1.874-0.3301h1.1582c0.665,0,1.292,0.126,1.8818,0.3779s1.1045,0.5977,1.5439,1.0371
			c0.4404,0.4404,0.7861,0.9551,1.0381,1.5449s0.3779,1.2168,0.3779,1.8818v0.0645l-1.9785,0.3213v-0.498
			c0-0.3965-0.0752-0.7695-0.2256-1.1182s-0.3535-0.6514-0.6113-0.9092c-0.2568-0.2568-0.5605-0.4609-0.9082-0.6113
			c-0.3486-0.1494-0.7217-0.2246-1.1182-0.2246h-1.1582c-0.3975,0-0.7695,0.0586-1.1182,0.1768s-0.6514,0.2871-0.9092,0.5068
			c-0.2568,0.2197-0.4609,0.4854-0.6113,0.7959c-0.1504,0.3115-0.2246,0.665-0.2246,1.0615c0,0.5684,0.1279,1.0322,0.3857,1.3916
			s0.5977,0.6621,1.0215,0.9092s0.9063,0.4531,1.4482,0.6191c0.541,0.166,1.0938,0.3379,1.6563,0.5146
			c0.5635,0.1768,1.1152,0.3779,1.6572,0.6035c0.541,0.2246,1.0234,0.5146,1.4473,0.8682c0.4238,0.3545,0.7646,0.7969,1.0215,1.3271
			C204.7976,47.8155,204.9265,48.4727,204.9265,49.255z"/>
	</g>
	<g>
		<path class="st3" d="M219.3474,50.7999c-0.252,0.5898-0.5977,1.1045-1.0371,1.5439c-0.4404,0.4395-0.9551,0.7852-1.5449,1.0371
			s-1.2168,0.3779-1.8818,0.3779h-0.499c-0.7393,0-1.4258-0.1494-2.0586-0.4502c-0.6328-0.2998-1.1748-0.7178-1.625-1.2549v7.9795
			h-1.9785V36.9649h0.6592l1.0781,1.6729c0.4502-0.6113,1.0156-1.0957,1.6973-1.4551c0.6807-0.3594,1.4238-0.5391,2.2275-0.5391
			h0.499c0.665,0,1.292,0.126,1.8818,0.3779s1.1045,0.5977,1.5449,1.0371c0.4395,0.4404,0.7852,0.9551,1.0371,1.5449
			s0.3779,1.2168,0.3779,1.8818v7.4316C219.7254,49.5821,219.5994,50.21,219.3474,50.7999z M217.7468,41.3731
			c0-0.3965-0.0752-0.7695-0.2246-1.1182c-0.1504-0.3486-0.3545-0.6514-0.6113-0.9092c-0.2578-0.2568-0.5605-0.4609-0.9092-0.6113
			c-0.3486-0.1494-0.7217-0.2246-1.1182-0.2246h-1.3193c-0.3965,0-0.7695,0.0752-1.1182,0.2246
			c-0.3486,0.1504-0.6514,0.3545-0.9082,0.6113c-0.2578,0.2578-0.4619,0.5605-0.6113,0.9092
			c-0.1504,0.3486-0.2256,0.7217-0.2256,1.1182v7.6572c0,0.3965,0.0752,0.7695,0.2256,1.1172
			c0.1494,0.3486,0.3535,0.6523,0.6113,0.9092c0.2568,0.2578,0.5596,0.4609,0.9082,0.6113s0.7217,0.2256,1.1182,0.2256h1.3193
			c0.3965,0,0.7695-0.0752,1.1182-0.2256s0.6514-0.3535,0.9092-0.6113c0.2568-0.2568,0.4609-0.5605,0.6113-0.9092
			c0.1494-0.3477,0.2246-0.7207,0.2246-1.1172V41.3731z"/>
	</g>
	<g>
		<path class="st3" d="M234.3084,50.7999c-0.252,0.5898-0.5977,1.1045-1.0371,1.5439c-0.4404,0.4395-0.9551,0.7852-1.5449,1.0371
			s-1.2168,0.3779-1.8818,0.3779h-1.3193c-0.665,0-1.292-0.126-1.8818-0.3779s-1.1045-0.5977-1.5439-1.0371
			c-0.4404-0.4395-0.7861-0.9541-1.0381-1.5439s-0.3779-1.2178-0.3779-1.8828v-7.4316c0-0.665,0.126-1.292,0.3779-1.8818
			s0.5977-1.1045,1.0381-1.5449c0.4395-0.4395,0.9541-0.7852,1.5439-1.0371s1.2168-0.3779,1.8818-0.3779h1.3193
			c0.665,0,1.292,0.126,1.8818,0.3779s1.1045,0.5977,1.5449,1.0371c0.4395,0.4404,0.7852,0.9551,1.0371,1.5449
			s0.3779,1.2168,0.3779,1.8818v3.877h-9.0244v3.668c0,0.3965,0.0752,0.7695,0.2256,1.1172
			c0.1494,0.3486,0.3535,0.6523,0.6113,0.9092c0.2568,0.2578,0.5596,0.4609,0.9082,0.6113s0.7217,0.2256,1.1182,0.2256h1.3193
			c0.3965,0,0.7695-0.0752,1.1182-0.2256s0.6514-0.3535,0.9092-0.6113c0.2568-0.2568,0.4609-0.5605,0.6113-0.9092
			c0.1494-0.3477,0.2246-0.7207,0.2246-1.1172v-1.0947l1.9785,0.3223v0.6592C234.6863,49.5821,234.5603,50.21,234.3084,50.7999z
			 M232.7078,41.3731c0-0.3965-0.0752-0.7695-0.2246-1.1182c-0.1504-0.3486-0.3545-0.6514-0.6113-0.9092
			c-0.2578-0.2568-0.5605-0.4609-0.9092-0.6113c-0.3486-0.1494-0.7217-0.2246-1.1182-0.2246h-1.3193
			c-0.3965,0-0.7695,0.0752-1.1182,0.2246c-0.3486,0.1504-0.6514,0.3545-0.9082,0.6113c-0.2578,0.2578-0.4619,0.5605-0.6113,0.9092
			c-0.1504,0.3486-0.2256,0.7217-0.2256,1.1182v2.4453h7.0459V41.3731z"/>
	</g>
	<g>
		<path class="st3" d="M244.6433,53.4376c-0.6006,0-1.166-0.1123-1.6973-0.3379c-0.5303-0.2256-0.9912-0.5361-1.3828-0.9326
			s-0.7031-0.8584-0.9336-1.3838s-0.3457-1.0879-0.3457-1.6895V38.8477h-2.96v-1.8828h2.96v-3.957l1.9785-0.3213v4.2783h4.1826
			v1.8828h-4.1826v10.3428c0,0.333,0.0615,0.6416,0.1855,0.9248c0.123,0.2852,0.292,0.5342,0.5068,0.748
			c0.2139,0.2148,0.4658,0.3838,0.7559,0.5068c0.2891,0.124,0.6006,0.1855,0.9326,0.1855h1.8018v1.8818H244.6433z"/>
	</g>
	<g>
		<path class="st3" d="M260.7058,50.7999c-0.252,0.5898-0.5977,1.1045-1.0371,1.5439c-0.4404,0.4395-0.9551,0.7852-1.5449,1.0371
			s-1.2168,0.3779-1.8818,0.3779h-1.3194c-0.665,0-1.292-0.126-1.8818-0.3779s-1.1045-0.5977-1.5439-1.0371
			c-0.4404-0.4395-0.7861-0.9541-1.0381-1.5439s-0.3779-1.2178-0.3779-1.8828v-7.4316c0-0.665,0.126-1.292,0.3779-1.8818
			s0.5977-1.1045,1.0381-1.5449c0.4395-0.4395,0.9541-0.7852,1.5439-1.0371s1.2168-0.3779,1.8818-0.3779h1.3194
			c0.665,0,1.292,0.126,1.8818,0.3779s1.1045,0.5977,1.5449,1.0371c0.4395,0.4404,0.7852,0.9551,1.0371,1.5449
			s0.3779,1.2168,0.3779,1.8818v7.4316C261.0838,49.5821,260.9578,50.21,260.7058,50.7999z M259.1053,41.3731
			c0-0.3965-0.0752-0.7695-0.2246-1.1182c-0.1504-0.3486-0.3545-0.6514-0.6113-0.9092c-0.2578-0.2568-0.5605-0.4609-0.9092-0.6113
			c-0.3486-0.1494-0.7217-0.2246-1.1182-0.2246h-1.3194c-0.3965,0-0.7695,0.0752-1.1182,0.2246
			c-0.3486,0.1504-0.6514,0.3545-0.9082,0.6113c-0.2578,0.2578-0.4619,0.5605-0.6113,0.9092
			c-0.1504,0.3486-0.2256,0.7217-0.2256,1.1182v7.6572c0,0.3965,0.0752,0.7695,0.2256,1.1172
			c0.1494,0.3486,0.3535,0.6523,0.6113,0.9092c0.2568,0.2578,0.5596,0.4609,0.9082,0.6113s0.7217,0.2256,1.1182,0.2256h1.3194
			c0.3965,0,0.7695-0.0752,1.1182-0.2256s0.6514-0.3535,0.9092-0.6113c0.2568-0.2568,0.4609-0.5605,0.6113-0.9092
			c0.1494-0.3477,0.2246-0.7207,0.2246-1.1172V41.3731z"/>
	</g>
</g>
</svg>
