<?xml version="1.0" encoding="utf-8"?>
<!-- Generator: Adobe Illustrator 21.0.2, SVG Export Plug-In . SVG Version: 6.00 Build 0)  -->
<svg version="1.1" id="Capa_1" xmlns="http://www.w3.org/2000/svg" xmlns:xlink="http://www.w3.org/1999/xlink" x="0px" y="0px"
	 viewBox="0 0 136.1021 136.1021" style="enable-background:new 0 0 136.1021 136.1021;" xml:space="preserve">
<style type="text/css">
	.st0{fill-rule:evenodd;clip-rule:evenodd;fill:#DDDDDD;}
	.st1{fill:#3B86B1;}
	.st2{opacity:0.25;fill-rule:evenodd;clip-rule:evenodd;fill:#020202;}
	.st3{fill:#FFFFFF;}
	.st4{opacity:0.5;}
	.st5{fill-rule:evenodd;clip-rule:evenodd;fill:#A8A8A8;}
	.st6{fill-rule:evenodd;clip-rule:evenodd;fill:#FFFFFF;}
	.st7{fill-rule:evenodd;clip-rule:evenodd;fill:#3B86B1;}
	.st8{opacity:0.5;fill:#2C6882;}
	.st9{opacity:0.75;fill-rule:evenodd;clip-rule:evenodd;fill:#282828;}
	.st10{opacity:0.5;fill:#FFFFFF;}
	.st11{fill-rule:evenodd;clip-rule:evenodd;fill:none;stroke:#FFFFFF;stroke-miterlimit:10;}
	.st12{fill:none;stroke:#FFFFFF;stroke-miterlimit:10;}
	.st13{fill:#FFFFFF;stroke:#3B86B1;stroke-width:1.7139;stroke-miterlimit:10;}
	.st14{fill-rule:evenodd;clip-rule:evenodd;}
	.st15{opacity:0.85;fill:#FFFFFF;}
	.st16{opacity:0.5;fill-rule:evenodd;clip-rule:evenodd;}
	.st17{fill-rule:evenodd;clip-rule:evenodd;fill:#FEFEFE;}
	.st18{fill:#312767;}
	.st19{opacity:0.48;}
	.st20{opacity:0.25;}
	.st21{fill-rule:evenodd;clip-rule:evenodd;fill:#020202;}
	.st22{fill:#757575;}
	.st23{opacity:0.25;clip-path:url(#XMLID_3720_);}
	.st24{fill:#FFFFFF;stroke:#312767;stroke-miterlimit:10;}
	.st25{fill:#ACABC9;}
	.st26{fill-rule:evenodd;clip-rule:evenodd;fill:#312767;}
	.st27{opacity:0.77;fill:#312767;}
	.st28{opacity:0.25;clip-path:url(#XMLID_3721_);}
	.st29{fill:#9490B2;stroke:#2D2D2D;stroke-width:0.25;stroke-miterlimit:10;}
	.st30{fill:#312767;stroke:#2D2D2D;stroke-width:0.25;stroke-miterlimit:10;}
	.st31{fill:#FCFCFC;}
	.st32{fill:#FFFFFF;stroke:#2D2D2D;stroke-width:0.25;stroke-miterlimit:10;}
	.st33{fill-rule:evenodd;clip-rule:evenodd;fill:#484849;stroke:#2D2D2D;stroke-width:0.25;stroke-miterlimit:10;}
	.st34{fill-rule:evenodd;clip-rule:evenodd;fill:#312767;stroke:#2D2D2D;stroke-width:0.25;stroke-miterlimit:10;}
	.st35{fill-rule:evenodd;clip-rule:evenodd;fill:#FFFFFF;stroke:#2D2D2D;stroke-width:0.25;stroke-miterlimit:10;}
	.st36{fill:#484849;stroke:#2D2D2D;stroke-width:0.25;stroke-miterlimit:10;}
	.st37{fill:#FFFFFF;stroke:#FFFFFF;stroke-miterlimit:10;}
	.st38{fill:#54518C;}
	.st39{opacity:0.25;fill-rule:evenodd;clip-rule:evenodd;fill:#FFFFFF;}
	.st40{fill:#D4A800;}
	.st41{fill:#00AEB3;}
	.st42{fill:#38353B;}
	.st43{fill:#FF8400;}
	.st44{fill:#BF3900;}
	.st45{fill:#00AA9C;}
	.st46{opacity:0.25;clip-path:url(#XMLID_3722_);}
	.st47{fill:none;stroke:#ACABC9;stroke-width:5;stroke-miterlimit:10;}
	.st48{opacity:0.25;clip-path:url(#XMLID_3723_);}
	.st49{fill:#DDDDDD;}
	.st50{opacity:0.25;clip-path:url(#XMLID_3724_);}
	.st51{fill-rule:evenodd;clip-rule:evenodd;fill:#FFFFFF;stroke:#FFFFFF;stroke-miterlimit:10;}
	.st52{fill:#F79748;}
	.st53{fill:#FF7900;}
	.st54{fill:#DD7105;}
	.st55{fill:#02897C;}
	.st56{fill:#0EAD9A;}
	.st57{fill:#28C6AF;}
	.st58{fill:#4FE0C7;}
	.st59{fill:#D37D00;}
	.st60{fill:#D14600;}
	.st61{fill:#E5B92E;}
	.st62{fill:#DD571B;}
	.st63{fill:#E28A17;}
	.st64{opacity:0.25;clip-path:url(#XMLID_3725_);}
	.st65{fill:#4D4789;}
	.st66{opacity:0.77;fill:#FFFFFF;}
	.st67{fill:#50565B;stroke:#656C70;stroke-miterlimit:10;}
	.st68{fill:#808589;stroke:#656C70;stroke-miterlimit:10;}
	.st69{fill:#252728;stroke:#000000;stroke-miterlimit:10;}
	.st70{fill:#1A1B1C;stroke:#000000;stroke-miterlimit:10;}
	.st71{fill:#A0A6AA;}
	.st72{fill:#262C35;stroke:#161A1E;stroke-miterlimit:10;}
	.st73{fill:#181D23;}
	.st74{fill:#EABA96;stroke:#E0AA86;stroke-miterlimit:10;}
	.st75{fill:#E0AA86;}
	.st76{stroke:#000000;stroke-width:0.75;stroke-linecap:square;stroke-linejoin:bevel;stroke-miterlimit:10;}
	.st77{fill:#0F1C3F;stroke:#182951;stroke-miterlimit:10;}
	.st78{fill:#132354;stroke:#3F6093;stroke-miterlimit:10;}
	.st79{fill:#0F1C3F;}
	.st80{fill:none;stroke:#3F6093;stroke-width:0.75;stroke-miterlimit:10;}
	.st81{fill:#DBA682;}
	.st82{fill:none;stroke:#E0AA86;stroke-miterlimit:10;}
	.st83{fill:none;stroke:#E0AA86;stroke-linejoin:bevel;stroke-miterlimit:10;}
	.st84{fill:#8A0A8E;stroke:#AC34B2;stroke-miterlimit:10;}
	.st85{fill:#810C87;}
	.st86{fill:#680B6D;}
	.st87{fill:#AC34B2;stroke:#AC34B2;stroke-width:0.5;stroke-miterlimit:10;}
	.st88{fill:none;stroke:#959DA0;stroke-width:0.5;stroke-miterlimit:10;}
	.st89{fill:#959DA0;stroke:#959DA0;stroke-width:0.5;stroke-miterlimit:10;}
	.st90{fill:none;stroke:#AC34B2;stroke-miterlimit:10;}
	.st91{fill:#282828;stroke:#000000;stroke-miterlimit:10;}
	.st92{fill:#EABA96;stroke:#E0AA86;stroke-width:0.5;stroke-miterlimit:10;}
	.st93{fill:#B7896A;}
	.st94{stroke:#000000;stroke-miterlimit:10;}
	.st95{fill:#C1A578;}
	.st96{stroke:#000000;stroke-width:0.25;stroke-linecap:round;stroke-linejoin:round;stroke-miterlimit:10;}
	.st97{fill:#FFFFFF;stroke:#000000;stroke-width:0.25;stroke-linecap:round;stroke-linejoin:round;stroke-miterlimit:10;}
	.st98{fill:#70582D;}
	.st99{stroke:#000000;stroke-linecap:round;stroke-linejoin:round;stroke-miterlimit:10;}
	.st100{fill:none;stroke:#D8A27D;stroke-width:0.75;stroke-miterlimit:10;}
	.st101{fill:#561409;}
	.st102{fill:#BA2A13;}
	.st103{fill:#9E3025;stroke:#4C2311;stroke-width:0.25;stroke-miterlimit:10;}
	.st104{fill:#871D08;stroke:#4C2311;stroke-width:0.25;stroke-miterlimit:10;}
	.st105{fill:#DDAC8A;}
	.st106{fill:#A5ABAD;stroke:#959DA0;stroke-width:0.5;stroke-miterlimit:10;}
	.st107{fill:#B1BABC;}
	.st108{fill:none;stroke:#153847;stroke-width:5;stroke-miterlimit:10;}
	.st109{fill:#3CA7AF;}
	.st110{fill:#3DAD8D;}
	.st111{fill:#3DAA61;}
	.st112{fill:#67A53F;}
	.st113{fill:#95A340;}
	.st114{fill:#153847;}
	.st115{opacity:0.25;clip-path:url(#XMLID_3726_);}
	.st116{opacity:0.25;clip-path:url(#XMLID_3727_);}
	.st117{opacity:0.25;clip-path:url(#XMLID_3728_);}
	.st118{opacity:0.25;clip-path:url(#XMLID_3729_);}
	.st119{clip-path:url(#SVGID_2_);}
	.st120{fill:none;stroke:#3F6093;stroke-miterlimit:10;}
	.st121{fill:none;stroke:#3F6093;stroke-width:0.75;stroke-linecap:round;stroke-linejoin:round;}
	.st122{fill:none;stroke:#3F6093;stroke-width:0.75;stroke-linecap:round;stroke-linejoin:round;stroke-dasharray:0.9892,0.9892;}
	
		.st123{fill:none;stroke:#3F6093;stroke-width:0.75;stroke-linecap:round;stroke-linejoin:round;stroke-miterlimit:10;stroke-dasharray:1;}
	.st124{fill:#EAEAEA;stroke:#FFFFFF;stroke-width:0.25;stroke-miterlimit:10;}
	.st125{fill:#D8D8D8;}
	.st126{fill:#282828;stroke:#000000;stroke-width:0.75;stroke-miterlimit:10;}
	.st127{opacity:0.33;fill:#FFFFFF;}
	.st128{fill:none;stroke:#000000;stroke-width:1.5;stroke-linecap:round;stroke-linejoin:round;stroke-miterlimit:10;}
	.st129{opacity:0.64;}
	.st130{fill:#C9C9C9;}
	.st131{fill:#FFF064;}
	.st132{fill:#4F4E4F;}
	.st133{fill:#1E2F47;}
	.st134{opacity:0.1;fill:#FFFFFF;}
	.st135{opacity:0.1;}
	.st136{opacity:0.4;fill:#FFFFFF;}
	.st137{fill-rule:evenodd;clip-rule:evenodd;fill:#F39C12;}
	.st138{fill-rule:evenodd;clip-rule:evenodd;fill:#E6E6E6;}
	.st139{fill-rule:evenodd;clip-rule:evenodd;fill:#474646;}
	.st140{fill-rule:evenodd;clip-rule:evenodd;fill:#D84848;}
	.st141{opacity:0.2;fill-rule:evenodd;clip-rule:evenodd;fill:#231F20;}
	.st142{opacity:0.1;fill-rule:evenodd;clip-rule:evenodd;fill:#231F20;}
	.st143{fill-rule:evenodd;clip-rule:evenodd;fill:#4D4D4D;}
	.st144{fill-rule:evenodd;clip-rule:evenodd;fill:#336699;}
	.st145{fill-rule:evenodd;clip-rule:evenodd;fill:#FF6633;}
	.st146{fill-rule:evenodd;clip-rule:evenodd;fill:#0056A3;}
	.st147{fill-rule:evenodd;clip-rule:evenodd;fill:#33CC99;}
	.st148{fill:#CE6405;}
	.st149{opacity:0.2;fill:#FFFFFF;}
	.st150{fill:#1ABC9C;}
	.st151{opacity:0.2;}
	.st152{fill:#0B2E44;}
	.st153{fill-rule:evenodd;clip-rule:evenodd;fill:#154F77;}
	.st154{fill-rule:evenodd;clip-rule:evenodd;fill:#0D3858;}
	.st155{fill-rule:evenodd;clip-rule:evenodd;fill:#FFFEFE;}
	.st156{fill:#AEC647;}
	.st157{fill:#F3AE1B;}
	.st158{fill:#DF3F11;}
	.st159{fill:#BCDEDE;}
	.st160{fill:#C84119;}
	.st161{fill:#6BB5CE;}
	.st162{fill:#00D0E5;}
	.st163{fill:#FF81ED;}
	.st164{fill:#00C982;}
	.st165{opacity:0.7;}
	.st166{opacity:0.4;}
	.st167{fill-rule:evenodd;clip-rule:evenodd;fill:#0B2E44;}
	.st168{opacity:0.8;fill-rule:evenodd;clip-rule:evenodd;fill:#FFFFFF;}
	.st169{fill:#424242;}
	.st170{opacity:0.2;fill-rule:evenodd;clip-rule:evenodd;fill:#FFFFFF;}
	.st171{fill:#D0EDFA;}
	.st172{fill:#FF651F;}
	.st173{fill:#0051C4;}
	.st174{fill:#E46400;}
	.st175{fill:#C0003B;}
	.st176{fill:#FFEA50;}
	.st177{fill:#FF2C0D;}
	.st178{fill:#FF1A2C;}
	.st179{fill:#FF2C4D;}
	.st180{fill:#FFD74C;}
	.st181{fill:#4C4C4B;}
	.st182{fill:#6CD2EA;}
	.st183{fill:#F7674F;}
	.st184{opacity:0.1;fill-rule:evenodd;clip-rule:evenodd;}
	.st185{fill:#BABABA;}
	.st186{fill:#F9B946;}
	.st187{fill:#DFC2A9;}
	.st188{fill:#BFA490;}
	.st189{fill:#F5D4B2;}
	.st190{fill:#DF584C;}
	.st191{fill:#C2443E;}
	.st192{fill:#DBDBDA;}
	.st193{fill:#2F363E;}
	.st194{fill:#332524;}
	.st195{fill:#473735;}
	.st196{opacity:0.25;clip-path:url(#XMLID_3730_);}
	.st197{fill:#52B8BA;}
	.st198{fill:#35373E;}
	.st199{opacity:0.25;clip-path:url(#XMLID_3731_);}
	.st200{opacity:0.31;fill:#34383A;}
	.st201{opacity:0.16;fill:#3D3835;}
	.st202{fill:#D0D1D4;}
	.st203{opacity:0.25;clip-path:url(#XMLID_3732_);}
	.st204{fill:#F9E1B4;}
	.st205{opacity:0.25;fill:#050505;}
	.st206{fill:#FCC60F;}
	.st207{fill:#74CAEA;}
	.st208{opacity:0.25;clip-path:url(#XMLID_3733_);}
	.st209{fill:#FABC8F;}
	.st210{fill:#3FA995;}
	.st211{opacity:0.17;fill:#020202;}
	.st212{fill:#E1E1E1;}
	.st213{opacity:0.25;clip-path:url(#XMLID_3734_);}
	.st214{fill:#BF8E00;}
	.st215{fill:#F7D8D7;}
	.st216{fill:#F18636;}
	.st217{fill:#004460;}
	.st218{fill:#D93A37;}
	.st219{fill:#EDEDED;}
	.st220{fill:#184F78;}
	.st221{fill:#FF3E03;}
	.st222{opacity:0.6;fill:#0F0F0F;}
	.st223{fill:#E8E8E6;}
	.st224{fill:#00EAA6;}
	.st225{fill-rule:evenodd;clip-rule:evenodd;fill:#FF3E03;}
	.st226{opacity:0.1;fill-rule:evenodd;clip-rule:evenodd;fill:#020202;}
	.st227{fill-rule:evenodd;clip-rule:evenodd;fill:#FABE00;}
	.st228{fill-rule:evenodd;clip-rule:evenodd;fill:#E6E8E8;}
	.st229{fill-rule:evenodd;clip-rule:evenodd;fill:#F7D959;}
	.st230{fill-rule:evenodd;clip-rule:evenodd;fill:#F9623E;}
	.st231{fill:#4F1A0F;}
	.st232{opacity:0.46;fill:#FFFFFF;}
	.st233{fill:#48505A;}
	.st234{fill:#C3C3C3;}
	.st235{fill:#E9E9EA;}
	.st236{fill:#9D9E9F;}
	.st237{fill:#F6F4F4;}
	.st238{fill:#6B6A6A;}
	.st239{fill:#C09478;}
	.st240{fill:#F7CDA0;}
	.st241{fill:#9E1010;}
	.st242{fill:#F2F2F2;}
	.st243{opacity:0.2;fill:#060606;}
	.st244{fill:#16AFBE;}
	.st245{fill:#DD2222;}
	.st246{fill:#FFEDDC;}
	.st247{fill:#22272B;}
	.st248{fill:#5B6375;}
</style>
<g>
	
		<rect x="19.9317" y="19.9317" transform="matrix(0.7071 0.7071 -0.7071 0.7071 68.0511 -28.1877)" class="st111" width="96.2388" height="96.2388"/>
	<g>
		<g>
			<path class="st3" d="M41.8348,81.1777l-4.3691-6.873h-1.9873v6.873h-1.4482V65.0732h5.1094c0.5469,0,1.0596,0.1025,1.5391,0.3086
				c0.4785,0.2061,0.8984,0.4893,1.2578,0.8486s0.6416,0.7803,0.8477,1.2627c0.2051,0.4834,0.3086,0.998,0.3086,1.5439v1.3027
				c0,0.5469-0.1035,1.0615-0.3086,1.5449c-0.2061,0.4824-0.4883,0.9043-0.8477,1.2637S41.157,73.79,40.6785,73.996
				c-0.4795,0.2061-0.9922,0.3086-1.5391,0.3086l4.3691,6.873H41.8348z M41.6434,69.037c0-0.3594-0.0664-0.6943-0.2012-1.0049
				s-0.3184-0.584-0.5508-0.8193c-0.2324-0.2363-0.5039-0.4219-0.8145-0.5566s-0.6455-0.2012-1.0049-0.2012h-3.5938v6.4688h3.5938
				c0.3594,0,0.6943-0.0684,1.0049-0.2031s0.582-0.3193,0.8145-0.5557c0.2324-0.2354,0.416-0.5088,0.5508-0.8193
				s0.2012-0.6465,0.2012-1.0059V69.037z"/>
			<path class="st3" d="M53.2273,79.3359c-0.1758,0.4121-0.416,0.7715-0.7236,1.0781s-0.667,0.5488-1.0781,0.7246
				s-0.8496,0.2637-1.3135,0.2637h-0.9219c-0.4639,0-0.9023-0.0879-1.3135-0.2637s-0.7705-0.418-1.0781-0.7246
				s-0.5479-0.666-0.7236-1.0781c-0.1768-0.4121-0.2646-0.8496-0.2646-1.3145v-5.1875c0-0.4648,0.0879-0.9023,0.2646-1.3145
				c0.1758-0.4121,0.416-0.7715,0.7236-1.0781s0.667-0.5488,1.0781-0.7246s0.8496-0.2637,1.3135-0.2637h0.9219
				c0.4639,0,0.9023,0.0879,1.3135,0.2637s0.7705,0.418,1.0781,0.7246s0.5479,0.666,0.7236,1.0781
				c0.1768,0.4121,0.2646,0.8496,0.2646,1.3145V75.54h-6.2998v2.5605c0,0.2773,0.0518,0.5371,0.1563,0.7803
				c0.1055,0.2432,0.248,0.4551,0.4277,0.6348s0.3906,0.3223,0.6348,0.4268c0.2422,0.1045,0.5029,0.1572,0.7793,0.1572h0.9219
				c0.2764,0,0.5371-0.0527,0.7793-0.1572c0.2441-0.1045,0.4551-0.2471,0.6348-0.4268s0.3223-0.3916,0.4277-0.6348
				c0.1045-0.2432,0.1563-0.5029,0.1563-0.7803v-0.7637l1.3818,0.2246v0.46C53.492,78.4863,53.4041,78.9238,53.2273,79.3359z
				 M52.1102,72.7548c0-0.2773-0.0518-0.5371-0.1563-0.7803c-0.1055-0.2432-0.248-0.4551-0.4277-0.6348
				s-0.3906-0.3223-0.6348-0.4268c-0.2422-0.1045-0.5029-0.1572-0.7793-0.1572h-0.9219c-0.2764,0-0.5371,0.0527-0.7793,0.1572
				c-0.2441,0.1045-0.4551,0.2471-0.6348,0.4268s-0.3223,0.3916-0.4277,0.6348c-0.1045,0.2432-0.1563,0.5029-0.1563,0.7803v1.707
				h4.918V72.7548z"/>
			<path class="st3" d="M64.1609,78.2577c0,0.4639-0.0938,0.8887-0.2813,1.2744c-0.1865,0.3857-0.4414,0.7168-0.7637,0.9941
				c-0.3213,0.2773-0.6934,0.4922-1.1172,0.6455c-0.4229,0.1533-0.8662,0.2305-1.3301,0.2305h-0.9219
				c-0.4639,0-0.9072-0.0879-1.3301-0.2637c-0.4238-0.1758-0.7939-0.418-1.1113-0.7246c-0.3184-0.3066-0.5742-0.666-0.7637-1.0781
				c-0.1914-0.4121-0.2871-0.8496-0.2871-1.3145v-0.46l1.3809-0.2246v0.7637c0,0.2773,0.0586,0.5371,0.1738,0.7803
				c0.1172,0.2432,0.2715,0.4551,0.4668,0.6348s0.4199,0.3223,0.6738,0.4268s0.5205,0.1572,0.7969,0.1572h0.9219
				c0.2764,0,0.543-0.041,0.7969-0.123c0.2539-0.083,0.4805-0.2012,0.6797-0.3545c0.1982-0.1533,0.3555-0.3389,0.4707-0.5557
				c0.1172-0.2168,0.1748-0.4639,0.1748-0.7412c0-0.4121-0.0898-0.749-0.2695-1.0107s-0.417-0.4814-0.7139-0.6572
				c-0.2949-0.1758-0.6318-0.3213-1.0098-0.4375c-0.3789-0.1162-0.7656-0.2324-1.1621-0.3486
				c-0.3975-0.1162-0.7852-0.249-1.1621-0.3984c-0.3789-0.1494-0.7158-0.3467-1.0117-0.5898
				c-0.2949-0.2432-0.5332-0.5479-0.7129-0.915s-0.2695-0.8232-0.2695-1.3701c0-0.4639,0.0898-0.8887,0.2695-1.2744
				s0.4229-0.7168,0.7305-0.9941c0.3066-0.2773,0.6641-0.4922,1.0723-0.6455s0.8438-0.2305,1.3086-0.2305h0.8086
				c0.4639,0,0.9023,0.0879,1.3135,0.2637s0.7705,0.418,1.0781,0.7246s0.5479,0.666,0.7236,1.0781
				c0.1768,0.4121,0.2646,0.8496,0.2646,1.3145v0.0449l-1.3818,0.2246v-0.3486c0-0.2773-0.0518-0.5371-0.1563-0.7803
				c-0.1055-0.2432-0.248-0.4551-0.4277-0.6348s-0.3906-0.3223-0.6348-0.4268c-0.2422-0.1045-0.5029-0.1572-0.7793-0.1572h-0.8086
				c-0.2773,0-0.5371,0.041-0.7813,0.123c-0.2432,0.083-0.4551,0.2012-0.6348,0.3545s-0.3213,0.3389-0.4258,0.5557
				c-0.1055,0.2168-0.1582,0.4639-0.1582,0.7412c0,0.3965,0.0898,0.7207,0.2695,0.9717s0.418,0.4619,0.7129,0.6348
				c0.2969,0.1719,0.6328,0.3154,1.0117,0.4316c0.3779,0.1162,0.7637,0.2363,1.1563,0.3594
				c0.3926,0.124,0.7793,0.2637,1.1563,0.4219c0.3789,0.1563,0.7158,0.3594,1.0117,0.6055c0.2949,0.248,0.5332,0.5566,0.7129,0.9268
				C64.0711,77.2529,64.1609,77.7109,64.1609,78.2577z"/>
			<path class="st3" d="M74.2293,79.3359c-0.1758,0.4121-0.418,0.7715-0.7246,1.0781s-0.666,0.5488-1.0781,0.7246
				s-0.8496,0.2637-1.3145,0.2637h-0.3477c-0.5166,0-0.9961-0.1045-1.4375-0.3145s-0.8203-0.502-1.1348-0.876v5.5703h-1.3809
				V69.6777h0.4609l0.752,1.168c0.3145-0.4268,0.709-0.7656,1.1855-1.0166c0.4746-0.251,0.9932-0.376,1.5547-0.376h0.3477
				c0.4648,0,0.9023,0.0879,1.3145,0.2637s0.7715,0.418,1.0781,0.7246s0.5488,0.666,0.7246,1.0781s0.2637,0.8496,0.2637,1.3145
				v5.1875C74.493,78.4863,74.4051,78.9238,74.2293,79.3359z M73.1121,72.7548c0-0.2773-0.0527-0.5371-0.1582-0.7803
				c-0.1045-0.2432-0.2461-0.4551-0.4258-0.6348s-0.3916-0.3223-0.6348-0.4268c-0.2441-0.1045-0.5039-0.1572-0.7813-0.1572h-0.9199
				c-0.2773,0-0.5371,0.0527-0.7813,0.1572c-0.2432,0.1045-0.4551,0.2471-0.6348,0.4268s-0.3213,0.3916-0.4258,0.6348
				c-0.1055,0.2432-0.1582,0.5029-0.1582,0.7803v5.3457c0,0.2773,0.0527,0.5371,0.1582,0.7803
				c0.1045,0.2432,0.2461,0.4551,0.4258,0.6348s0.3916,0.3223,0.6348,0.4268c0.2441,0.1045,0.5039,0.1572,0.7813,0.1572h0.9199
				c0.2773,0,0.5371-0.0527,0.7813-0.1572c0.2432-0.1045,0.4551-0.2471,0.6348-0.4268s0.3213-0.3916,0.4258-0.6348
				c0.1055-0.2432,0.1582-0.5029,0.1582-0.7803V72.7548z"/>
			<path class="st3" d="M84.6727,79.3359c-0.1758,0.4121-0.416,0.7715-0.7236,1.0781s-0.667,0.5488-1.0781,0.7246
				s-0.8496,0.2637-1.3135,0.2637h-0.9219c-0.4639,0-0.9023-0.0879-1.3135-0.2637s-0.7705-0.418-1.0781-0.7246
				s-0.5479-0.666-0.7236-1.0781c-0.1768-0.4121-0.2646-0.8496-0.2646-1.3145v-5.1875c0-0.4648,0.0879-0.9023,0.2646-1.3145
				c0.1758-0.4121,0.416-0.7715,0.7236-1.0781s0.667-0.5488,1.0781-0.7246s0.8496-0.2637,1.3135-0.2637h0.9219
				c0.4639,0,0.9023,0.0879,1.3135,0.2637s0.7705,0.418,1.0781,0.7246s0.5479,0.666,0.7236,1.0781
				c0.1768,0.4121,0.2646,0.8496,0.2646,1.3145V75.54h-6.2998v2.5605c0,0.2773,0.0518,0.5371,0.1563,0.7803
				c0.1055,0.2432,0.248,0.4551,0.4277,0.6348s0.3906,0.3223,0.6348,0.4268c0.2422,0.1045,0.5029,0.1572,0.7793,0.1572h0.9219
				c0.2764,0,0.5371-0.0527,0.7793-0.1572c0.2441-0.1045,0.4551-0.2471,0.6348-0.4268s0.3223-0.3916,0.4277-0.6348
				c0.1045-0.2432,0.1563-0.5029,0.1563-0.7803v-0.7637l1.3818,0.2246v0.46C84.9373,78.4863,84.8494,78.9238,84.6727,79.3359z
				 M83.5555,72.7548c0-0.2773-0.0518-0.5371-0.1563-0.7803c-0.1055-0.2432-0.248-0.4551-0.4277-0.6348
				s-0.3906-0.3223-0.6348-0.4268c-0.2422-0.1045-0.5029-0.1572-0.7793-0.1572h-0.9219c-0.2764,0-0.5371,0.0527-0.7793,0.1572
				c-0.2441,0.1045-0.4551,0.2471-0.6348,0.4268s-0.3223,0.3916-0.4277,0.6348c-0.1045,0.2432-0.1563,0.5029-0.1563,0.7803v1.707
				h4.918V72.7548z"/>
			<path class="st3" d="M91.8895,81.1777c-0.4199,0-0.8145-0.0781-1.1855-0.2363c-0.3711-0.1563-0.6924-0.374-0.9648-0.6504
				c-0.2734-0.2773-0.4912-0.5996-0.6523-0.9668c-0.1602-0.3662-0.2412-0.7598-0.2412-1.1787v-7.1533h-2.0664v-1.3145h2.0664V66.915
				l1.3818-0.2246v2.9873h2.9199v1.3145h-2.9199v7.2207c0,0.2324,0.043,0.4473,0.1289,0.6455s0.2031,0.373,0.3535,0.5225
				s0.3262,0.2676,0.5273,0.3535c0.2031,0.0859,0.4199,0.1289,0.6523,0.1289h1.2578v1.3145H91.8895z"/>
			<path class="st3" d="M103.1023,79.3359c-0.1758,0.4121-0.417,0.7715-0.7246,1.0781c-0.3066,0.3066-0.666,0.5488-1.0781,0.7246
				c-0.4111,0.1758-0.8496,0.2637-1.3135,0.2637h-0.9209c-0.4648,0-0.9023-0.0879-1.3145-0.2637
				c-0.4111-0.1758-0.7705-0.418-1.0781-0.7246c-0.3066-0.3066-0.5479-0.666-0.7236-1.0781
				c-0.1768-0.4121-0.2646-0.8496-0.2646-1.3145v-5.1875c0-0.4648,0.0879-0.9023,0.2646-1.3145
				c0.1758-0.4121,0.417-0.7715,0.7236-1.0781c0.3076-0.3066,0.667-0.5488,1.0781-0.7246c0.4121-0.1758,0.8496-0.2637,1.3145-0.2637
				h0.9209c0.4639,0,0.9023,0.0879,1.3135,0.2637c0.4121,0.1758,0.7715,0.418,1.0781,0.7246
				c0.3076,0.3066,0.5488,0.666,0.7246,1.0781s0.2637,0.8496,0.2637,1.3145v5.1875
				C103.366,78.4863,103.2781,78.9238,103.1023,79.3359z M101.9852,72.7548c0-0.2773-0.0527-0.5371-0.1572-0.7803
				s-0.2471-0.4551-0.4268-0.6348s-0.3906-0.3223-0.6348-0.4268c-0.2432-0.1045-0.5039-0.1572-0.7803-0.1572h-0.9209
				c-0.2773,0-0.5371,0.0527-0.7803,0.1572s-0.4551,0.2471-0.6348,0.4268s-0.3213,0.3916-0.4268,0.6348
				s-0.1572,0.5029-0.1572,0.7803v5.3457c0,0.2773,0.0518,0.5371,0.1572,0.7803s0.2471,0.4551,0.4268,0.6348
				s0.3916,0.3223,0.6348,0.4268s0.5029,0.1572,0.7803,0.1572h0.9209c0.2764,0,0.5371-0.0527,0.7803-0.1572
				c0.2441-0.1045,0.4551-0.2471,0.6348-0.4268s0.3223-0.3916,0.4268-0.6348s0.1572-0.5029,0.1572-0.7803V72.7548z"/>
		</g>
	</g>
</g>
</svg>
