<?xml version="1.0" encoding="utf-8"?>
<!-- Generator: Adobe Illustrator 21.0.2, SVG Export Plug-In . SVG Version: 6.00 Build 0)  -->
<svg version="1.1" id="Capa_1" xmlns="http://www.w3.org/2000/svg" xmlns:xlink="http://www.w3.org/1999/xlink" x="0px" y="0px"
	 viewBox="0 0 29.8165 31.2883" style="enable-background:new 0 0 29.8165 31.2883;" xml:space="preserve">
<style type="text/css">
	.st0{fill-rule:evenodd;clip-rule:evenodd;fill:#DDDDDD;}
	.st1{fill:#3B86B1;}
	.st2{opacity:0.25;fill-rule:evenodd;clip-rule:evenodd;fill:#020202;}
	.st3{fill:#FFFFFF;}
	.st4{opacity:0.5;}
	.st5{fill-rule:evenodd;clip-rule:evenodd;fill:#A8A8A8;}
	.st6{fill-rule:evenodd;clip-rule:evenodd;fill:#FFFFFF;}
	.st7{fill-rule:evenodd;clip-rule:evenodd;fill:#3B86B1;}
	.st8{opacity:0.5;fill:#2C6882;}
	.st9{opacity:0.75;fill-rule:evenodd;clip-rule:evenodd;fill:#282828;}
	.st10{opacity:0.5;fill:#FFFFFF;}
	.st11{fill-rule:evenodd;clip-rule:evenodd;fill:none;stroke:#FFFFFF;stroke-miterlimit:10;}
	.st12{fill:none;stroke:#FFFFFF;stroke-miterlimit:10;}
	.st13{fill:#FFFFFF;stroke:#3B86B1;stroke-width:1.7139;stroke-miterlimit:10;}
	.st14{fill-rule:evenodd;clip-rule:evenodd;}
	.st15{opacity:0.85;fill:#FFFFFF;}
	.st16{opacity:0.5;fill-rule:evenodd;clip-rule:evenodd;}
	.st17{fill-rule:evenodd;clip-rule:evenodd;fill:#FEFEFE;}
	.st18{fill:#312767;}
	.st19{opacity:0.48;}
	.st20{opacity:0.25;}
	.st21{fill-rule:evenodd;clip-rule:evenodd;fill:#020202;}
	.st22{fill:#757575;}
	.st23{opacity:0.25;clip-path:url(#XMLID_3720_);}
	.st24{fill:#FFFFFF;stroke:#312767;stroke-miterlimit:10;}
	.st25{fill:#ACABC9;}
	.st26{fill-rule:evenodd;clip-rule:evenodd;fill:#312767;}
	.st27{opacity:0.77;fill:#312767;}
	.st28{opacity:0.25;clip-path:url(#XMLID_3721_);}
	.st29{fill:#9490B2;stroke:#2D2D2D;stroke-width:0.25;stroke-miterlimit:10;}
	.st30{fill:#312767;stroke:#2D2D2D;stroke-width:0.25;stroke-miterlimit:10;}
	.st31{fill:#FCFCFC;}
	.st32{fill:#FFFFFF;stroke:#2D2D2D;stroke-width:0.25;stroke-miterlimit:10;}
	.st33{fill-rule:evenodd;clip-rule:evenodd;fill:#484849;stroke:#2D2D2D;stroke-width:0.25;stroke-miterlimit:10;}
	.st34{fill-rule:evenodd;clip-rule:evenodd;fill:#312767;stroke:#2D2D2D;stroke-width:0.25;stroke-miterlimit:10;}
	.st35{fill-rule:evenodd;clip-rule:evenodd;fill:#FFFFFF;stroke:#2D2D2D;stroke-width:0.25;stroke-miterlimit:10;}
	.st36{fill:#484849;stroke:#2D2D2D;stroke-width:0.25;stroke-miterlimit:10;}
	.st37{fill:#FFFFFF;stroke:#FFFFFF;stroke-miterlimit:10;}
	.st38{fill:#54518C;}
	.st39{opacity:0.25;fill-rule:evenodd;clip-rule:evenodd;fill:#FFFFFF;}
	.st40{fill:#D4A800;}
	.st41{fill:#00AEB3;}
	.st42{fill:#38353B;}
	.st43{fill:#FF8400;}
	.st44{fill:#BF3900;}
	.st45{fill:#00AA9C;}
	.st46{opacity:0.25;clip-path:url(#XMLID_3722_);}
	.st47{fill:none;stroke:#ACABC9;stroke-width:5;stroke-miterlimit:10;}
	.st48{opacity:0.25;clip-path:url(#XMLID_3723_);}
	.st49{fill:#DDDDDD;}
	.st50{opacity:0.25;clip-path:url(#XMLID_3724_);}
	.st51{fill-rule:evenodd;clip-rule:evenodd;fill:#FFFFFF;stroke:#FFFFFF;stroke-miterlimit:10;}
	.st52{fill:#F79748;}
	.st53{fill:#FF7900;}
	.st54{fill:#DD7105;}
	.st55{fill:#02897C;}
	.st56{fill:#0EAD9A;}
	.st57{fill:#28C6AF;}
	.st58{fill:#4FE0C7;}
	.st59{fill:#D37D00;}
	.st60{fill:#D14600;}
	.st61{fill:#E5B92E;}
	.st62{fill:#DD571B;}
	.st63{fill:#E28A17;}
	.st64{opacity:0.25;clip-path:url(#XMLID_3725_);}
	.st65{fill:#4D4789;}
	.st66{opacity:0.77;fill:#FFFFFF;}
	.st67{fill:#50565B;stroke:#656C70;stroke-miterlimit:10;}
	.st68{fill:#808589;stroke:#656C70;stroke-miterlimit:10;}
	.st69{fill:#252728;stroke:#000000;stroke-miterlimit:10;}
	.st70{fill:#1A1B1C;stroke:#000000;stroke-miterlimit:10;}
	.st71{fill:#A0A6AA;}
	.st72{fill:#262C35;stroke:#161A1E;stroke-miterlimit:10;}
	.st73{fill:#181D23;}
	.st74{fill:#EABA96;stroke:#E0AA86;stroke-miterlimit:10;}
	.st75{fill:#E0AA86;}
	.st76{stroke:#000000;stroke-width:0.75;stroke-linecap:square;stroke-linejoin:bevel;stroke-miterlimit:10;}
	.st77{fill:#0F1C3F;stroke:#182951;stroke-miterlimit:10;}
	.st78{fill:#132354;stroke:#3F6093;stroke-miterlimit:10;}
	.st79{fill:#0F1C3F;}
	.st80{fill:none;stroke:#3F6093;stroke-width:0.75;stroke-miterlimit:10;}
	.st81{fill:#DBA682;}
	.st82{fill:none;stroke:#E0AA86;stroke-miterlimit:10;}
	.st83{fill:none;stroke:#E0AA86;stroke-linejoin:bevel;stroke-miterlimit:10;}
	.st84{fill:#8A0A8E;stroke:#AC34B2;stroke-miterlimit:10;}
	.st85{fill:#810C87;}
	.st86{fill:#680B6D;}
	.st87{fill:#AC34B2;stroke:#AC34B2;stroke-width:0.5;stroke-miterlimit:10;}
	.st88{fill:none;stroke:#959DA0;stroke-width:0.5;stroke-miterlimit:10;}
	.st89{fill:#959DA0;stroke:#959DA0;stroke-width:0.5;stroke-miterlimit:10;}
	.st90{fill:none;stroke:#AC34B2;stroke-miterlimit:10;}
	.st91{fill:#282828;stroke:#000000;stroke-miterlimit:10;}
	.st92{fill:#EABA96;stroke:#E0AA86;stroke-width:0.5;stroke-miterlimit:10;}
	.st93{fill:#B7896A;}
	.st94{stroke:#000000;stroke-miterlimit:10;}
	.st95{fill:#C1A578;}
	.st96{stroke:#000000;stroke-width:0.25;stroke-linecap:round;stroke-linejoin:round;stroke-miterlimit:10;}
	.st97{fill:#FFFFFF;stroke:#000000;stroke-width:0.25;stroke-linecap:round;stroke-linejoin:round;stroke-miterlimit:10;}
	.st98{fill:#70582D;}
	.st99{stroke:#000000;stroke-linecap:round;stroke-linejoin:round;stroke-miterlimit:10;}
	.st100{fill:none;stroke:#D8A27D;stroke-width:0.75;stroke-miterlimit:10;}
	.st101{fill:#561409;}
	.st102{fill:#BA2A13;}
	.st103{fill:#9E3025;stroke:#4C2311;stroke-width:0.25;stroke-miterlimit:10;}
	.st104{fill:#871D08;stroke:#4C2311;stroke-width:0.25;stroke-miterlimit:10;}
	.st105{fill:#DDAC8A;}
	.st106{fill:#A5ABAD;stroke:#959DA0;stroke-width:0.5;stroke-miterlimit:10;}
	.st107{fill:#B1BABC;}
	.st108{fill:none;stroke:#153847;stroke-width:5;stroke-miterlimit:10;}
	.st109{fill:#3CA7AF;}
	.st110{fill:#3DAD8D;}
	.st111{fill:#3DAA61;}
	.st112{fill:#67A53F;}
	.st113{fill:#95A340;}
	.st114{fill:#153847;}
	.st115{opacity:0.25;clip-path:url(#XMLID_3726_);}
	.st116{opacity:0.25;clip-path:url(#XMLID_3727_);}
	.st117{opacity:0.25;clip-path:url(#XMLID_3728_);}
	.st118{opacity:0.25;clip-path:url(#XMLID_3729_);}
	.st119{clip-path:url(#SVGID_2_);}
	.st120{fill:none;stroke:#3F6093;stroke-miterlimit:10;}
	.st121{fill:none;stroke:#3F6093;stroke-width:0.75;stroke-linecap:round;stroke-linejoin:round;}
	.st122{fill:none;stroke:#3F6093;stroke-width:0.75;stroke-linecap:round;stroke-linejoin:round;stroke-dasharray:0.9892,0.9892;}
	
		.st123{fill:none;stroke:#3F6093;stroke-width:0.75;stroke-linecap:round;stroke-linejoin:round;stroke-miterlimit:10;stroke-dasharray:1;}
	.st124{fill:#EAEAEA;stroke:#FFFFFF;stroke-width:0.25;stroke-miterlimit:10;}
	.st125{fill:#D8D8D8;}
	.st126{fill:#282828;stroke:#000000;stroke-width:0.75;stroke-miterlimit:10;}
	.st127{opacity:0.33;fill:#FFFFFF;}
	.st128{fill:none;stroke:#000000;stroke-width:1.5;stroke-linecap:round;stroke-linejoin:round;stroke-miterlimit:10;}
	.st129{opacity:0.64;}
	.st130{fill:#C9C9C9;}
	.st131{fill:#FFF064;}
	.st132{fill:#4F4E4F;}
	.st133{fill:#1E2F47;}
	.st134{opacity:0.1;fill:#FFFFFF;}
	.st135{opacity:0.1;}
	.st136{opacity:0.4;fill:#FFFFFF;}
	.st137{fill-rule:evenodd;clip-rule:evenodd;fill:#F39C12;}
	.st138{fill-rule:evenodd;clip-rule:evenodd;fill:#E6E6E6;}
	.st139{fill-rule:evenodd;clip-rule:evenodd;fill:#474646;}
	.st140{fill-rule:evenodd;clip-rule:evenodd;fill:#D84848;}
	.st141{opacity:0.2;fill-rule:evenodd;clip-rule:evenodd;fill:#231F20;}
	.st142{opacity:0.1;fill-rule:evenodd;clip-rule:evenodd;fill:#231F20;}
	.st143{fill-rule:evenodd;clip-rule:evenodd;fill:#4D4D4D;}
	.st144{fill-rule:evenodd;clip-rule:evenodd;fill:#336699;}
	.st145{fill-rule:evenodd;clip-rule:evenodd;fill:#FF6633;}
	.st146{fill-rule:evenodd;clip-rule:evenodd;fill:#0056A3;}
	.st147{fill-rule:evenodd;clip-rule:evenodd;fill:#33CC99;}
	.st148{fill:#CE6405;}
	.st149{opacity:0.2;fill:#FFFFFF;}
	.st150{fill:#1ABC9C;}
	.st151{opacity:0.2;}
	.st152{fill:#0B2E44;}
	.st153{fill-rule:evenodd;clip-rule:evenodd;fill:#154F77;}
	.st154{fill-rule:evenodd;clip-rule:evenodd;fill:#0D3858;}
	.st155{fill-rule:evenodd;clip-rule:evenodd;fill:#FFFEFE;}
	.st156{fill:#AEC647;}
	.st157{fill:#F3AE1B;}
	.st158{fill:#DF3F11;}
	.st159{fill:#BCDEDE;}
	.st160{fill:#C84119;}
	.st161{fill:#6BB5CE;}
	.st162{fill:#00D0E5;}
	.st163{fill:#FF81ED;}
	.st164{fill:#00C982;}
	.st165{opacity:0.7;}
	.st166{opacity:0.4;}
	.st167{fill-rule:evenodd;clip-rule:evenodd;fill:#0B2E44;}
	.st168{opacity:0.8;fill-rule:evenodd;clip-rule:evenodd;fill:#FFFFFF;}
	.st169{fill:#424242;}
	.st170{opacity:0.2;fill-rule:evenodd;clip-rule:evenodd;fill:#FFFFFF;}
	.st171{fill:#D0EDFA;}
	.st172{fill:#FF651F;}
	.st173{fill:#0051C4;}
	.st174{fill:#E46400;}
	.st175{fill:#C0003B;}
	.st176{fill:#FFEA50;}
	.st177{fill:#FF2C0D;}
	.st178{fill:#FF1A2C;}
	.st179{fill:#FF2C4D;}
	.st180{fill:#FFD74C;}
	.st181{fill:#4C4C4B;}
	.st182{fill:#6CD2EA;}
	.st183{fill:#F7674F;}
	.st184{opacity:0.1;fill-rule:evenodd;clip-rule:evenodd;}
	.st185{fill:#BABABA;}
	.st186{fill:#F9B946;}
	.st187{fill:#DFC2A9;}
	.st188{fill:#BFA490;}
	.st189{fill:#F5D4B2;}
	.st190{fill:#DF584C;}
	.st191{fill:#C2443E;}
	.st192{fill:#DBDBDA;}
	.st193{fill:#2F363E;}
	.st194{fill:#332524;}
	.st195{fill:#473735;}
	.st196{opacity:0.25;clip-path:url(#XMLID_3730_);}
	.st197{fill:#52B8BA;}
	.st198{fill:#35373E;}
	.st199{opacity:0.25;clip-path:url(#XMLID_3731_);}
	.st200{opacity:0.31;fill:#34383A;}
	.st201{opacity:0.16;fill:#3D3835;}
	.st202{fill:#D0D1D4;}
	.st203{opacity:0.25;clip-path:url(#XMLID_3732_);}
	.st204{fill:#F9E1B4;}
	.st205{opacity:0.25;fill:#050505;}
	.st206{fill:#FCC60F;}
	.st207{fill:#74CAEA;}
	.st208{opacity:0.25;clip-path:url(#XMLID_3733_);}
	.st209{fill:#FABC8F;}
	.st210{fill:#3FA995;}
	.st211{opacity:0.17;fill:#020202;}
	.st212{fill:#E1E1E1;}
	.st213{opacity:0.25;clip-path:url(#XMLID_3734_);}
	.st214{fill:#BF8E00;}
	.st215{fill:#F7D8D7;}
	.st216{fill:#F18636;}
	.st217{fill:#004460;}
	.st218{fill:#D93A37;}
	.st219{fill:#EDEDED;}
	.st220{fill:#184F78;}
	.st221{fill:#FF3E03;}
	.st222{opacity:0.6;fill:#0F0F0F;}
	.st223{fill:#E8E8E6;}
	.st224{fill:#00EAA6;}
	.st225{fill-rule:evenodd;clip-rule:evenodd;fill:#FF3E03;}
	.st226{opacity:0.1;fill-rule:evenodd;clip-rule:evenodd;fill:#020202;}
	.st227{fill-rule:evenodd;clip-rule:evenodd;fill:#FABE00;}
	.st228{fill-rule:evenodd;clip-rule:evenodd;fill:#E6E8E8;}
	.st229{fill-rule:evenodd;clip-rule:evenodd;fill:#F7D959;}
	.st230{fill-rule:evenodd;clip-rule:evenodd;fill:#F9623E;}
	.st231{fill:#4F1A0F;}
	.st232{opacity:0.46;fill:#FFFFFF;}
	.st233{fill:#48505A;}
	.st234{fill:#C3C3C3;}
	.st235{fill:#E9E9EA;}
	.st236{fill:#9D9E9F;}
	.st237{fill:#F6F4F4;}
	.st238{fill:#6B6A6A;}
	.st239{fill:#C09478;}
	.st240{fill:#F7CDA0;}
	.st241{fill:#9E1010;}
	.st242{fill:#F2F2F2;}
	.st243{opacity:0.2;fill:#060606;}
	.st244{fill:#16AFBE;}
	.st245{fill:#DD2222;}
	.st246{fill:#FFEDDC;}
	.st247{fill:#22272B;}
	.st248{fill:#5B6375;}
</style>
<g>
	<path class="st3" d="M18.7007,10.1318c-1.0755-0.8544-2.4223-1.325-3.7933-1.325c-1.8739,0-3.617,0.8409-4.7817,2.3069
		c-2.0936,2.6349-1.6529,6.4817,0.9821,8.5752c0.4365,0.3469,0.9223,0.6187,1.4325,0.8315v-2.2141
		c-0.0727-0.048-0.1462-0.0946-0.2154-0.1496c-1.7896-1.4222-2.089-4.0356-0.667-5.8254c0.7911-0.9959,1.9757-1.5673,3.2495-1.5673
		c0.9443,0,1.8348,0.3114,2.5759,0.9002c1.7903,1.4221,2.0894,4.0355,0.667,5.8254c-0.3267,0.4114-0.7233,0.7455-1.1632,1.0016
		v1.9177l0.5715,0.001c0.8153-0.3934,1.542-0.9699,2.1243-1.7027C21.7763,16.0721,21.3356,12.2254,18.7007,10.1318z"/>
	<path id="XMLID_3747_" class="st3" d="M19.9718,31.2883c1.1559,0,2.0927-0.9371,2.0927-2.0928v-5.352
		c0-1.5601-1.2646-2.8247-2.8248-2.8247l-2.8607-0.0049v-4.1844c0-0.8833-0.6867-1.6357-1.5695-1.667
		c-0.9267-0.0329-1.6884,0.7085-1.6884,1.6279v7.3109l-0.4273-0.8908c-0.233-0.486-0.6721-0.762-1.1254-0.762
		c-0.2086,0-0.4201,0.0586-0.6156,0.1807c-0.6211,0.3895-0.849,1.2798-0.5079,1.9893c0,0,1.4095,3.3,2.4159,5.4613
		c0.3433,0.7374,1.0831,1.2084,1.8965,1.2084H19.9718z M19.9718,31.2883"/>
	<g>
		<path class="st3" d="M25.3427,13.7151c-0.3193-2.7881-1.7053-5.2853-3.9028-7.0311c-1.8505-1.4708-4.1707-2.2804-6.5325-2.2804
			c-3.225,0-6.224,1.4472-8.2294,3.9708c-3.6041,4.5361-2.8455,11.1583,1.6903,14.7622c0.4127,0.3279,0.852,0.6176,1.3066,0.8782
			c-0.0399-0.6633,0.249-1.3242,0.7929-1.6653c0.043-0.0268,0.0888-0.038,0.1329-0.0598c-0.3525-0.2051-0.6939-0.4304-1.015-0.6856
			c-3.6912-2.9325-4.3081-8.3214-1.3759-12.0124c1.6319-2.0534,4.0731-3.2314,6.6976-3.2314c1.9211,0,3.809,0.6591,5.315,1.8559
			c1.7882,1.4208,2.9162,3.4526,3.1757,5.7215c0.1305,1.1365,0.0374,2.2618-0.2745,3.3442
			c-0.1497,0.5192,0.1497,1.0616,0.6691,1.2115c0.5187,0.15,1.0615-0.1492,1.2112-0.6688
			C25.3885,16.4926,25.5021,15.1099,25.3427,13.7151z"/>
	</g>
	<path class="st3" d="M29.7172,13.2139c-0.4529-3.9568-2.4195-7.5001-5.5382-9.9778C21.5525,1.1494,18.2597,0,14.9074,0
		C10.3317,0,6.0757,2.054,3.2298,5.6354C-1.8845,12.0723-0.808,21.47,5.6291,26.5845c1.8452,1.4661,4.022,2.4575,6.3146,2.9247
		c-0.3487-0.7784-0.6974-1.5694-1.009-2.2813c-1.4738-0.4755-2.8654-1.2043-4.0881-2.1758
		c-5.592-4.4431-6.5272-12.6073-2.0841-18.1994c2.472-3.1114,6.1698-4.8954,10.145-4.8954c2.912,0,5.7725,0.9982,8.0546,2.8112
		c2.7088,2.1524,4.4176,5.231,4.8111,8.6682c0.1875,1.6384,0.0693,3.2648-0.3515,4.8343c-0.2627,0.9779-0.6425,1.9263-1.1293,2.8187
		c-0.2588,0.4745-0.0843,1.0689,0.3903,1.3279c0.4746,0.2586,1.0688,0.0839,1.3276-0.3902
		c0.5613-1.0285,0.9992-2.1219,1.3014-3.2491C29.7966,16.9699,29.933,15.098,29.7172,13.2139z"/>
</g>
</svg>
