<?xml version="1.0" encoding="utf-8"?>
<!-- Generator: Adobe Illustrator 21.0.2, SVG Export Plug-In . SVG Version: 6.00 Build 0)  -->
<svg version="1.1" id="Capa_1" xmlns="http://www.w3.org/2000/svg" xmlns:xlink="http://www.w3.org/1999/xlink" x="0px" y="0px"
	 viewBox="0 0 203.5 167.8241" style="enable-background:new 0 0 203.5 167.8241;" xml:space="preserve">
<style type="text/css">
	.st0{fill-rule:evenodd;clip-rule:evenodd;fill:#DDDDDD;}
	.st1{fill:#ACABC9;}
	.st2{opacity:0.25;clip-path:url(#XMLID_2960_);}
	.st3{fill:#FFFFFF;}
	.st4{fill:#3B86B1;}
	.st5{opacity:0.25;fill-rule:evenodd;clip-rule:evenodd;fill:#020202;}
	.st6{opacity:0.5;}
	.st7{fill-rule:evenodd;clip-rule:evenodd;fill:#A8A8A8;}
	.st8{fill-rule:evenodd;clip-rule:evenodd;fill:#FFFFFF;}
	.st9{fill-rule:evenodd;clip-rule:evenodd;fill:#3B86B1;}
	.st10{opacity:0.5;fill:#2C6882;}
	.st11{opacity:0.75;fill-rule:evenodd;clip-rule:evenodd;fill:#282828;}
	.st12{opacity:0.5;fill:#FFFFFF;}
	.st13{fill-rule:evenodd;clip-rule:evenodd;fill:none;stroke:#FFFFFF;stroke-miterlimit:10;}
	.st14{fill:none;stroke:#FFFFFF;stroke-miterlimit:10;}
	.st15{fill:#FFFFFF;stroke:#3B86B1;stroke-width:1.7139;stroke-miterlimit:10;}
	.st16{fill-rule:evenodd;clip-rule:evenodd;}
	.st17{opacity:0.85;fill:#FFFFFF;}
	.st18{opacity:0.5;fill-rule:evenodd;clip-rule:evenodd;}
	.st19{fill-rule:evenodd;clip-rule:evenodd;fill:#FEFEFE;}
	.st20{fill:#312767;}
	.st21{opacity:0.48;}
	.st22{opacity:0.25;}
	.st23{fill-rule:evenodd;clip-rule:evenodd;fill:#020202;}
	.st24{fill:#757575;}
	.st25{opacity:0.25;clip-path:url(#XMLID_2961_);}
	.st26{fill:#FFFFFF;stroke:#312767;stroke-miterlimit:10;}
	.st27{fill-rule:evenodd;clip-rule:evenodd;fill:#312767;}
	.st28{opacity:0.77;fill:#312767;}
	.st29{opacity:0.25;clip-path:url(#XMLID_2962_);}
	.st30{opacity:0.75;}
	.st31{fill-rule:evenodd;clip-rule:evenodd;fill:#282828;}
	.st32{fill:#9490B2;stroke:#2D2D2D;stroke-width:0.25;stroke-miterlimit:10;}
	.st33{fill:#312767;stroke:#2D2D2D;stroke-width:0.25;stroke-miterlimit:10;}
	.st34{fill:#FCFCFC;}
	.st35{fill:#FFFFFF;stroke:#2D2D2D;stroke-width:0.25;stroke-miterlimit:10;}
	.st36{fill-rule:evenodd;clip-rule:evenodd;fill:#484849;stroke:#2D2D2D;stroke-width:0.25;stroke-miterlimit:10;}
	.st37{fill-rule:evenodd;clip-rule:evenodd;fill:#312767;stroke:#2D2D2D;stroke-width:0.25;stroke-miterlimit:10;}
	.st38{fill-rule:evenodd;clip-rule:evenodd;fill:#FFFFFF;stroke:#2D2D2D;stroke-width:0.25;stroke-miterlimit:10;}
	.st39{fill:#484849;stroke:#2D2D2D;stroke-width:0.25;stroke-miterlimit:10;}
	.st40{fill:#FFFFFF;stroke:#FFFFFF;stroke-miterlimit:10;}
	.st41{fill:#54518C;}
	.st42{opacity:0.25;fill-rule:evenodd;clip-rule:evenodd;fill:#FFFFFF;}
	.st43{fill:#D4A800;}
	.st44{fill:#00AEB3;}
	.st45{fill:#38353B;}
	.st46{fill:#FF8400;}
	.st47{fill:#BF3900;}
	.st48{fill:#00AA9C;}
	.st49{opacity:0.25;clip-path:url(#XMLID_2963_);}
	.st50{fill:none;stroke:#ACABC9;stroke-width:5;stroke-miterlimit:10;}
	.st51{fill:#67A53F;}
	.st52{fill:#DDDDDD;}
	.st53{opacity:0.25;clip-path:url(#XMLID_2964_);}
	.st54{fill-rule:evenodd;clip-rule:evenodd;fill:#FFFFFF;stroke:#FFFFFF;stroke-miterlimit:10;}
	.st55{fill:#02897C;}
	.st56{fill:#0EAD9A;}
	.st57{fill:#28C6AF;}
	.st58{fill:#4FE0C7;}
	.st59{opacity:0.25;clip-path:url(#XMLID_2965_);}
	.st60{fill:#3CA7AF;}
	.st61{fill:#3DAD8D;}
	.st62{fill:#296E8C;}
	.st63{fill:#308E71;}
	.st64{fill:#2D8A8C;}
	.st65{opacity:0.25;clip-path:url(#XMLID_2966_);}
	.st66{opacity:0.77;fill:#FFFFFF;}
	.st67{fill:#50565B;stroke:#656C70;stroke-miterlimit:10;}
	.st68{fill:#808589;stroke:#656C70;stroke-miterlimit:10;}
	.st69{fill:#252728;stroke:#000000;stroke-miterlimit:10;}
	.st70{fill:#1A1B1C;stroke:#000000;stroke-miterlimit:10;}
	.st71{fill:#A0A6AA;}
	.st72{fill:#262C35;stroke:#161A1E;stroke-miterlimit:10;}
	.st73{fill:#181D23;}
	.st74{fill:#EABA96;stroke:#E0AA86;stroke-miterlimit:10;}
	.st75{fill:#E0AA86;}
	.st76{stroke:#000000;stroke-width:0.75;stroke-linecap:square;stroke-linejoin:bevel;stroke-miterlimit:10;}
	.st77{fill:#0F1C3F;stroke:#182951;stroke-miterlimit:10;}
	.st78{fill:#132354;stroke:#3F6093;stroke-miterlimit:10;}
	.st79{fill:#0F1C3F;}
	.st80{fill:none;stroke:#3F6093;stroke-width:0.75;stroke-miterlimit:10;}
	.st81{fill:#DBA682;}
	.st82{fill:none;stroke:#E0AA86;stroke-miterlimit:10;}
	.st83{fill:none;stroke:#E0AA86;stroke-linejoin:bevel;stroke-miterlimit:10;}
	.st84{fill:#8A0A8E;stroke:#AC34B2;stroke-miterlimit:10;}
	.st85{fill:#810C87;}
	.st86{fill:#680B6D;}
	.st87{fill:#AC34B2;stroke:#AC34B2;stroke-width:0.5;stroke-miterlimit:10;}
	.st88{fill:none;stroke:#959DA0;stroke-width:0.5;stroke-miterlimit:10;}
	.st89{fill:#959DA0;stroke:#959DA0;stroke-width:0.5;stroke-miterlimit:10;}
	.st90{fill:none;stroke:#AC34B2;stroke-miterlimit:10;}
	.st91{fill:#282828;stroke:#000000;stroke-miterlimit:10;}
	.st92{fill:#EABA96;stroke:#E0AA86;stroke-width:0.5;stroke-miterlimit:10;}
	.st93{fill:#B7896A;}
	.st94{stroke:#000000;stroke-miterlimit:10;}
	.st95{fill:#C1A578;}
	.st96{stroke:#000000;stroke-width:0.25;stroke-linecap:round;stroke-linejoin:round;stroke-miterlimit:10;}
	.st97{fill:#FFFFFF;stroke:#000000;stroke-width:0.25;stroke-linecap:round;stroke-linejoin:round;stroke-miterlimit:10;}
	.st98{fill:#70582D;}
	.st99{stroke:#000000;stroke-linecap:round;stroke-linejoin:round;stroke-miterlimit:10;}
	.st100{fill:none;stroke:#D8A27D;stroke-width:0.75;stroke-miterlimit:10;}
	.st101{fill:#561409;}
	.st102{fill:#BA2A13;}
	.st103{fill:#9E3025;stroke:#4C2311;stroke-width:0.25;stroke-miterlimit:10;}
	.st104{fill:#871D08;stroke:#4C2311;stroke-width:0.25;stroke-miterlimit:10;}
	.st105{fill:#DDAC8A;}
	.st106{fill:#A5ABAD;stroke:#959DA0;stroke-width:0.5;stroke-miterlimit:10;}
	.st107{fill:#B1BABC;}
	.st108{fill:none;stroke:#153847;stroke-width:5;stroke-miterlimit:10;}
	.st109{fill:#3DAA61;}
	.st110{fill:#95A340;}
	.st111{opacity:0.25;clip-path:url(#XMLID_2967_);}
	.st112{opacity:0.25;clip-path:url(#XMLID_2968_);}
	.st113{opacity:0.25;clip-path:url(#XMLID_2969_);}
	.st114{opacity:0.25;clip-path:url(#XMLID_2970_);}
	.st115{opacity:0.25;clip-path:url(#XMLID_2971_);}
	.st116{clip-path:url(#SVGID_2_);}
	.st117{fill:none;stroke:#3F6093;stroke-miterlimit:10;}
	.st118{fill:none;stroke:#3F6093;stroke-width:0.75;stroke-linecap:round;stroke-linejoin:round;}
	.st119{fill:none;stroke:#3F6093;stroke-width:0.75;stroke-linecap:round;stroke-linejoin:round;stroke-dasharray:0.9892,0.9892;}
	
		.st120{fill:none;stroke:#3F6093;stroke-width:0.75;stroke-linecap:round;stroke-linejoin:round;stroke-miterlimit:10;stroke-dasharray:1;}
	.st121{fill:#EAEAEA;stroke:#FFFFFF;stroke-width:0.25;stroke-miterlimit:10;}
	.st122{fill:#D8D8D8;}
	.st123{fill:#282828;stroke:#000000;stroke-width:0.75;stroke-miterlimit:10;}
	.st124{opacity:0.33;fill:#FFFFFF;}
	.st125{fill:none;stroke:#000000;stroke-width:1.5;stroke-linecap:round;stroke-linejoin:round;stroke-miterlimit:10;}
	.st126{opacity:0.64;}
	.st127{fill:#C9C9C9;}
	.st128{fill:#FFF064;}
	.st129{fill:#4F4E4F;}
	.st130{fill:#1E2F47;}
	.st131{opacity:0.1;fill:#FFFFFF;}
	.st132{opacity:0.1;}
	.st133{opacity:0.4;fill:#FFFFFF;}
	.st134{fill-rule:evenodd;clip-rule:evenodd;fill:#F39C12;}
	.st135{fill-rule:evenodd;clip-rule:evenodd;fill:#E6E6E6;}
	.st136{fill-rule:evenodd;clip-rule:evenodd;fill:#474646;}
	.st137{fill-rule:evenodd;clip-rule:evenodd;fill:#D84848;}
	.st138{opacity:0.2;fill-rule:evenodd;clip-rule:evenodd;fill:#231F20;}
	.st139{opacity:0.1;fill-rule:evenodd;clip-rule:evenodd;fill:#231F20;}
	.st140{fill-rule:evenodd;clip-rule:evenodd;fill:#4D4D4D;}
	.st141{fill-rule:evenodd;clip-rule:evenodd;fill:#336699;}
	.st142{fill-rule:evenodd;clip-rule:evenodd;fill:#FF6633;}
	.st143{fill-rule:evenodd;clip-rule:evenodd;fill:#0056A3;}
	.st144{fill-rule:evenodd;clip-rule:evenodd;fill:#33CC99;}
	.st145{fill:#CE6405;}
	.st146{opacity:0.2;fill:#FFFFFF;}
	.st147{fill:#1ABC9C;}
	.st148{opacity:0.2;}
	.st149{fill:#0B2E44;}
	.st150{fill-rule:evenodd;clip-rule:evenodd;fill:#154F77;}
	.st151{fill-rule:evenodd;clip-rule:evenodd;fill:#0D3858;}
	.st152{fill-rule:evenodd;clip-rule:evenodd;fill:#FFFEFE;}
	.st153{fill:#AEC647;}
	.st154{fill:#F3AE1B;}
	.st155{fill:#DF3F11;}
	.st156{fill:#BCDEDE;}
	.st157{fill:#C84119;}
	.st158{fill:#6BB5CE;}
	.st159{fill:#00D0E5;}
	.st160{fill:#FF81ED;}
	.st161{fill:#00C982;}
	.st162{opacity:0.7;}
	.st163{opacity:0.4;}
	.st164{fill-rule:evenodd;clip-rule:evenodd;fill:#0B2E44;}
	.st165{opacity:0.8;fill-rule:evenodd;clip-rule:evenodd;fill:#FFFFFF;}
	.st166{fill:#424242;}
	.st167{opacity:0.2;fill-rule:evenodd;clip-rule:evenodd;fill:#FFFFFF;}
	.st168{fill:#D0EDFA;}
	.st169{fill:#FF651F;}
	.st170{fill:#0051C4;}
	.st171{fill:#E46400;}
	.st172{fill:#C0003B;}
	.st173{fill:#FFEA50;}
	.st174{fill:#FF2C0D;}
	.st175{fill:#FF1A2C;}
	.st176{fill:#FF2C4D;}
	.st177{fill:#FFD74C;}
	.st178{fill:#4C4C4B;}
	.st179{fill:#6CD2EA;}
	.st180{fill:#F7674F;}
	.st181{opacity:0.1;fill-rule:evenodd;clip-rule:evenodd;}
	.st182{fill:#BABABA;}
	.st183{fill:#F9B946;}
	.st184{fill:#DFC2A9;}
	.st185{fill:#BFA490;}
	.st186{fill:#F5D4B2;}
	.st187{fill:#DF584C;}
	.st188{fill:#C2443E;}
	.st189{fill:#DBDBDA;}
	.st190{fill:#2F363E;}
	.st191{fill:#332524;}
	.st192{fill:#473735;}
	.st193{opacity:0.25;clip-path:url(#XMLID_2972_);}
	.st194{fill:#52B8BA;}
	.st195{fill:#35373E;}
	.st196{fill:#D37D00;}
	.st197{opacity:0.25;clip-path:url(#XMLID_2973_);}
	.st198{opacity:0.31;}
	.st199{fill:#34383A;}
	.st200{opacity:0.16;}
	.st201{fill:#3D3835;}
	.st202{fill:#D0D1D4;}
	.st203{opacity:0.25;clip-path:url(#XMLID_2974_);}
	.st204{fill:#F9E1B4;}
	.st205{fill:#050505;}
	.st206{fill:#FCC60F;}
	.st207{fill:#74CAEA;}
	.st208{opacity:0.25;clip-path:url(#XMLID_2975_);}
	.st209{fill:#FABC8F;}
	.st210{fill:#3FA995;}
	.st211{opacity:0.17;fill:#020202;}
	.st212{fill:#E1E1E1;}
	.st213{opacity:0.17;}
	.st214{fill:#020202;}
	.st215{opacity:0.25;clip-path:url(#XMLID_2976_);}
	.st216{fill:#BF8E00;}
	.st217{fill:#F7D8D7;}
	.st218{fill:#F18636;}
	.st219{fill:#004460;}
	.st220{fill:#D93A37;}
	.st221{fill:#48505A;}
	.st222{fill:#C3C3C3;}
	.st223{fill:#E9E9EA;}
	.st224{fill:#9D9E9F;}
	.st225{fill:#F6F4F4;}
	.st226{fill:#6B6A6A;}
	.st227{fill:#C09478;}
	.st228{fill:#F7CDA0;}
	.st229{fill:#9E1010;}
	.st230{fill:#F2F2F2;}
	.st231{opacity:0.2;fill:#060606;}
	.st232{fill:#16AFBE;}
	.st233{fill:#DD2222;}
	.st234{fill:#FFEDDC;}
	.st235{fill:#22272B;}
	.st236{fill:#5B6375;}
	.st237{fill:#F79748;}
	.st238{fill:#FF7900;}
	.st239{fill:#DD7105;}
	.st240{fill:#556071;}
	.st241{fill:#FBFBFB;}
	.st242{fill:#BCBDC1;}
	.st243{fill:#6D6D6D;}
	.st244{fill:#D3D3D3;}
	.st245{fill:#3C6BAF;stroke:#3C6BAF;stroke-miterlimit:10;}
	.st246{fill:none;stroke:#153847;stroke-width:4;stroke-miterlimit:10;}
	.st247{fill:#153847;}
	.st248{fill:#50565B;}
	.st249{fill:#656C70;}
	.st250{fill:#808589;}
	.st251{fill:#252728;}
	.st252{fill:#1A1B1C;}
	.st253{fill:#262C35;}
	.st254{fill:#161A1E;}
	.st255{fill:#8DA367;}
	.st256{fill:#333231;}
	.st257{fill:#353534;}
	.st258{fill:#1D1D1B;}
	.st259{fill:#282828;}
	.st260{fill:#494949;}
	.st261{fill:#727271;}
	.st262{fill:#3F3F3F;}
	.st263{fill:#282421;}
	.st264{fill:#D6D6D6;}
	.st265{fill:#A0A0A0;}
	.st266{fill:#9ABA78;}
	.st267{fill:#849E5F;}
	.st268{fill:#799354;}
	.st269{fill:#76934D;}
	.st270{fill:#E8C3AA;}
	.st271{fill:#DBAD93;}
	.st272{fill:#E0B9A0;}
	.st273{fill:#5E4334;}
	.st274{fill:#846A5E;}
	.st275{fill:#49342A;}
	.st276{fill:#92AF71;}
	.st277{fill:#5098D8;}
	.st278{fill:#1C1E19;}
	.st279{fill:#5E5E5C;}
	.st280{fill:#939393;}
	.st281{fill:#23261D;}
	.st282{fill:#3C3C3B;}
	.st283{fill:#1D71B7;}
	.st284{fill:#2F894A;}
	.st285{fill:#422A17;}
	.st286{fill:#FFD7BC;}
	.st287{fill:#694326;}
	.st288{fill:#B08F76;}
	.st289{fill:#E3E3E3;}
	.st290{fill:#1A1818;}
	.st291{fill:#3B3738;}
	.st292{fill:#28A0B0;}
	.st293{fill:#42DCFA;}
	.st294{fill:#F5F5F5;}
	.st295{fill:#E3B494;}
	.st296{fill:#4A2F1B;}
	.st297{fill:none;stroke:#E3B494;stroke-width:2;stroke-linecap:round;stroke-linejoin:round;stroke-miterlimit:10;}
	.st298{fill:#F7CDB0;}
	.st299{fill:#FF7155;}
	.st300{fill:none;stroke:#4A2F1B;stroke-miterlimit:10;}
	.st301{fill:none;stroke:#4A2F1B;stroke-linecap:round;stroke-linejoin:round;stroke-miterlimit:10;}
	.st302{fill:#8B8BB2;}
	.st303{fill:#2E1D11;}
	.st304{fill:#4A4D4F;}
	.st305{fill:#5B5F61;}
	.st306{fill:#7C99A1;}
	.st307{fill:#C4543D;}
	.st308{fill:#A8D1DB;}
	.st309{fill:#5D5D5D;}
	.st310{fill:#4A4A4A;}
	.st311{fill:#1A7E8C;}
	.st312{fill:#292929;}
	.st313{fill:#2B1C0F;}
	.st314{fill:#362213;}
	.st315{fill:#2F6E9C;}
	.st316{fill:#468CBF;}
	.st317{fill:#589ED1;}
	.st318{fill:#84BEE8;}
	.st319{fill:#1F1F1F;}
	.st320{fill:#383838;}
	.st321{fill:#363636;}
</style>
<g>
	<ellipse class="st284" cx="101.7493" cy="156.7722" rx="101.75" ry="11.0517"/>
	<g>
		<g>
			<g>
				<path class="st285" d="M87.2004,105.2222c0.0636,0.5551-0.3341,1.0549-0.8888,1.1195l-10.4755,1.2
					c-0.5536,0.0632-1.0554-0.3346-1.1185-0.8897l0,0c-0.0641-0.5541,0.3346-1.054,0.8887-1.1181l10.4751-1.2
					C86.636,104.2698,87.1368,104.6681,87.2004,105.2222L87.2004,105.2222z"/>
				<path class="st286" d="M80.7891,97.4153c0,0,1.1878,1.2014,2.4655,2.6958c0.0796,0.0931,1.7644,0.6459,2.2797,2.5727
					c0.2761,1.031,0.4165,1.4541-1.3601,1.9769c-0.2869,0.9749,0.6178,2.9597-0.2452,2.9901
					c-0.8537,0.0304-1.2117-0.4886-1.2117-0.4886s-0.1016,0.7886-0.9594,0.9473c-0.4268,0.0796-1.5477-0.2443-1.5477-0.2443
					s-0.0496,0.4797-0.8321,0.8536c-0.9918,0.4732-3.0631-1.3385-3.0631-1.3385l1.2875-9.4445L80.7891,97.4153z"/>
				<g>
					<path class="st285" d="M86.1671,104.3241c-0.5083,0.0571-0.8715,0.5162-0.8139,1.024l0.534,4.66
						c0.058,0.5078,0.5167,0.8719,1.024,0.8134c0.5078-0.0576,0.8715-0.5172,0.8134-1.0245l-0.5335-4.6595
						C87.133,104.6292,86.6739,104.266,86.1671,104.3241z"/>
					<path class="st285" d="M75.5216,105.5437c-0.5078,0.0571-0.8715,0.5162-0.8134,1.024l0.534,4.66
						c0.0585,0.5078,0.5162,0.8719,1.0245,0.8139c0.5073-0.0571,0.871-0.5167,0.8129-1.0245l-0.5345-4.66
						C76.4871,105.8489,76.0294,105.4852,75.5216,105.5437z"/>
				</g>
				<path class="st287" d="M96.7161,125.4754c0.0683,0.5878-0.3543,1.1195-0.9435,1.1869l-24.5552,2.8141
					c-0.5883,0.0683-1.1199-0.3552-1.1878-0.9435l-1.8224-15.9083c-0.0679-0.5888,0.3552-1.1195,0.9426-1.1869l24.5566-2.8142
					c0.5883-0.0674,1.1195,0.3547,1.1869,0.9426L96.7161,125.4754z"/>
				<g>
					<path class="st288" d="M71.0839,112.0528c-0.4422,0.0505-0.7596,0.4502-0.709,0.8925l0.1765,1.5337
						c0.0506,0.4418,0.4493,0.7586,0.892,0.7081c0.4413-0.0501,0.7591-0.4498,0.7081-0.892l-0.176-1.5337
						C71.9249,112.3196,71.5257,112.0018,71.0839,112.0528z"/>
					<path class="st288" d="M91.962,109.6608c-0.4418,0.0501-0.7601,0.4493-0.7086,0.8911l0.1759,1.5332
						c0.0506,0.4432,0.4498,0.7605,0.893,0.7095c0.4418-0.051,0.7586-0.4502,0.7081-0.892l-0.176-1.5337
						C92.803,109.9267,92.4038,109.6084,91.962,109.6608z"/>
				</g>
			</g>
			<g>
				<path class="st286" d="M84.5805,108.0859c0,0,0.8499-0.5471,0.7348-1.7461c-0.1133-1.1991-1.2959-4.0043-2.5146-3.8134
					c-1.2206,0.1905-0.1339,3.6552,0.1016,4.8191C83.1016,108.3387,84.3904,108.247,84.5805,108.0859z"/>
				<path class="st286" d="M82.1791,103.5397c0,0-0.5064-1.4555-1.9521-1.2529c-1.4457,0.2041-0.5457,6.6393,1.8683,6.2845
					C83.5864,108.3513,82.6335,105.4239,82.1791,103.5397z"/>
				<path class="st286" d="M80.3894,106.6337c0,0-1.2337-3.7114-2.3223-3.402c-1.0867,0.3098-1.5515,6.423,1.6142,5.6943
					C81.1247,108.5942,80.6698,107.2304,80.3894,106.6337z"/>
				<path class="st286" d="M77.8383,108.9864c0,0,0.7876-0.3047,0.3772-1.7522c-0.4114-1.4462-1.2182-4.1321-2.2577-3.0861
					C75.1692,104.9419,75.8665,109.7091,77.8383,108.9864z"/>
			</g>
			<path class="st289" d="M76.16,49.8754l2.86,1.9423c0,0,0.5373,12.3752,1.0858,20.9506
				c0.5476,8.5754,2.3962,26.1198,2.3962,26.1198l-5.7299,0.8424c0,0-2.7964-31.0981-2.8839-35.4791
				C73.8008,59.8703,76.16,49.8754,76.16,49.8754z"/>
			<path class="st290" d="M55.2221,138.8115c0,0-1.3732,1.9713-3.1666,2.9069c0,0-0.314,8.595-0.1956,10.747
				c0.1184,2.1543,4.6207,5.0859,6.9584,3.621c2.3382-1.4662,3.1099-7.6782,1.1083-7.746c-2.0026-0.0688-2.7416,1.8809-3.556,0.4553
				c-0.8139-1.4256,0.2578-3.2059,1.3675-5.486L55.2221,138.8115z"/>
			<path class="st286" d="M99.2363,68.7658l6.4314-0.058c0,0-0.6211,5.6929-0.4451,5.706c0.1741,0.0136-5.6396,0.0941-5.6396,0.0941
				L99.2363,68.7658z"/>
			<path class="st291" d="M63.167,150.2417c0,0-0.762,5.8207-1.3329,6.7085c-0.5719,0.8864,7.8832,4.6764,12.817,4.8023
				c6.7979,0.1732,8.4757-7.9398,4.3937-9.408c-2.7519-0.9893-9.8774,4.5341-11.2941-1.7433L63.167,150.2417z"/>
			<path class="st292" d="M77.3052,94.3638c0,0,0.8457,14.3886-1.58,25.2409c-2.4257,10.8527-18.1996,25.7014-18.1996,25.7014
				s-2.3494-2.0476-3.8082-6.3201c0,0,16.1586-19.8386,17.1204-36.6847L77.3052,94.3638z"/>
			<path class="st293" d="M60.0524,96.029c0,0,3.1993,19.8756,2.86,32.4684c-0.3397,12.5914-1.7054,21.8061-1.7054,21.8061
				s3.4132,1.2711,7.1587,0.1306c0,0,3.461-22.2433,2.9003-46.2355c0,0,5.955-2.7964,6.0393-9.8348
				C77.3052,94.3638,69.3897,90.9726,60.0524,96.029z"/>
			<path class="st294" d="M61.0352,45.9296l-6.943,4.8889c0,0,3.4619,18.985,3.673,24.5403
				c0.2115,5.5562,1.4256,20.9758,1.4256,20.9758s7.9923-3.1923,18.1145-1.9708c0,0-0.585-22.093-1.7391-29.336
				C74.4124,57.7853,76.16,49.8754,76.16,49.8754l-6.4675-3.8059L61.0352,45.9296z"/>
			<path class="st286" d="M62.5998,34.4006c0,0-1.5355,6.7993,0.3178,12.8956c0,0,4.2018,3.9851,7.6104,0.3084
				c0,0-1.7532-4.6188-1.6872-8.6648L62.5998,34.4006z"/>
			<path class="st295" d="M62.5998,34.4006c0,0-0.3997,1.7738-0.5452,4.3203c0.8883,1.9015,1.5304,3.0608,1.5304,3.0608
				c2.0026,0,3.7965-0.1203,5.4163-0.322c-0.109-0.834-0.1736-1.6895-0.1605-2.5198L62.5998,34.4006z"/>
			<polygon class="st292" points="67.0244,49.8038 69.0958,74.8467 73.0196,82.4669 74.2557,74.2285 68.596,49.641 			"/>
			
				<ellipse transform="matrix(0.078 -0.9969 0.9969 0.078 13.7669 112.2901)" class="st292" cx="67.5956" cy="48.7017" rx="1.886" ry="1.8858"/>
			<path class="st286" d="M75.7959,9.6208c0,0,0.8724,16.3444,7.3422,24.3788c0,0-3.9285,6.218-18.5558,6.2208
				c0,0-4.6493-8.3938-6.2606-17.1242c0,0,0.0735,1.7981-2.2792,0.718c-2.3537-1.0807-4.0319-4.367-2.619-6.8368
				c0.9094-1.594,3.4713-1.3062,3.9861-0.5499c0,0-2.3443-5.7755,1.3596-9.1422C62.4749,3.9182,75.4748,6.2279,75.7959,9.6208z"/>
			<path class="st287" d="M58.3198,20.3715c0,0,1.727-0.08,1.2285-1.0512c-0.4965-0.9707-1.5997-4.2837-1.4218-6.5639
				c0.1783-2.2809,1.7724-5.2392,5.8225-4.7789c4.0507,0.4598,9.9191,4.2795,13.256,1.032C80.5429,5.7612,76.548,0,76.548,0
				s-0.2555,2.346-5.8319,3.0571c-5.5773,0.7114-9.817-1.9153-14.4405,4.0331C52.4046,12.0694,57.7811,20.4524,58.3198,20.3715z"/>
			<path class="st3" d="M65.6353,17.6781c-0.0768-0.4863-0.0374-1.1518,0.1525-1.9605c0.3005-1.2795-0.2761-3.167-2.0447-2.6269
				c-1.7681,0.5401-2.2118,3.8344-1.7316,6.3701c0.4797,2.5338,2.2844,2.6841,3.1221,1.8776
				C65.7542,20.7393,65.9835,19.925,65.6353,17.6781z"/>
			
				<ellipse transform="matrix(0.9934 -0.1146 0.1146 0.9934 -1.6049 7.5613)" class="st296" cx="64.9686" cy="17.7403" rx="1.2539" ry="2.0489"/>
			<path class="st3" d="M74.6114,16.9297c-0.1198-0.4137-0.1601-0.9964-0.0843-1.7209c0.1193-1.1448-0.5935-2.7206-2.07-2.0541
				c-1.4766,0.6655-1.4949,3.5779-0.7956,5.7275c0.6997,2.1491,2.2848,2.0785,2.9213,1.2838
				C75.0564,19.5768,75.165,18.8434,74.6114,16.9297z"/>
			
				<ellipse transform="matrix(0.9946 -0.1042 0.1042 0.9946 -1.3507 7.8175)" class="st296" cx="74.1432" cy="16.8361" rx="1.1273" ry="1.8419"/>
			<g>
				<path class="st287" d="M61.3335,11.9776c0.1943-0.467,0.54-0.8376,0.9521-1.1262c0.4126-0.292,0.9243-0.4761,1.4722-0.5027
					c0.5478-0.0203,1.1196,0.165,1.5186,0.5164c0.4229,0.3245,0.6724,0.7903,0.7925,1.2676
					c-0.4541-0.2302-0.813-0.4714-1.1943-0.5986c-0.3691-0.1416-0.7212-0.2126-1.0889-0.1863
					C63.0464,11.3616,62.2656,11.6624,61.3335,11.9776z"/>
			</g>
			<path class="st295" d="M69.6673,18.1474c0,0,0.5597,3.2653,3.0191,3.8742c1.8224,0.4507,2.429-0.2106,2.429-0.2106
				s1.5407,2.7711-1.1106,4.352c0,0,0.8747-2.2432,0.073-2.7687C73.2752,22.8692,70.0805,23.1126,69.6673,18.1474z"/>
			<path class="st297" d="M64.9352,28.5987c0,0,1.2225,4.0721,6.2396,2.5848"/>
			<path class="st3" d="M70.3361,50.0631l-1.7307-3.9711l0.8036-2.3461l-0.2148-1.0591l2.0925,3.0407
				C71.2866,45.7275,71.5679,47.578,70.3361,50.0631z"/>
			<path class="st3" d="M65.4711,46.276c0,0-2.9915-1.631-4.1836-3.8045c0,0-1.3717,1.0409-2.333,2.3279
				c0,0,2.7355,4.4443,6.8419,6.4862L65.4711,46.276z"/>
			<path class="st3" d="M60.1998,46.5184c0,0-8.1275,4.6796-9.7595,7.6712c0,0,0.3047,12.8675,13.6613,18.7603
				c10.2233,4.5107,26.3365,2.6775,26.3365,2.6775s-1.551-2.165-1.1626-7.835c0,0-19.3504,3.3552-28.736-9.8011
				C57.3866,53.5699,60.1998,46.5184,60.1998,46.5184z"/>
			<path class="st298" d="M88.7238,68.9245c0,0,1.9521-0.2055,3.9145-0.5537c1.9638-0.3482,8.4935-0.4119,8.3157,1.8693
				c0,0,1.1831,0.4507,0.71,1.9193c0,0,0.7769,1.0647-0.4694,2.3288c0,0-0.0623,0.7844-1.1976,1.5561
				c0,0-6.6524,0.4718-11.0989-2.9293L88.7238,68.9245z"/>
			<path class="st286" d="M94.2351,67.813c0,0-2.2961,0.1371-2.7481,1.7377c-0.4526,1.6002,4.1498,0.8691,5.0508-0.3248
				C97.4405,68.0315,94.2351,67.813,94.2351,67.813z"/>
			<path class="st286" d="M91.0517,68.6264c0.673-0.1029,1.3811-1.4242,2.4645-2.0934c1.0844-0.6697,5.3438-0.929,5.3452,2.0078
				c0.0014,2.9368-2.1749,2.0733-2.7276,0.8621c-0.5537-1.2107-1.1373-1.2266-1.1373-1.2266L91.0517,68.6264z"/>
			<path class="st286" d="M92.291,75.7664c0,0-0.8354-0.5682-0.6917-1.7644c0.1437-1.1948,0.7699-2.1271,1.9853-1.9062
				c1.2145,0.2209,0.293,1.9619,0.0286,3.1197C93.389,76.2044,92.4787,75.9316,92.291,75.7664z"/>
			<path class="st286" d="M94.1809,73.124c0,0,0.5424-1.4424,1.9825-1.2042c1.4396,0.2382,0.0936,4.5842-1.3998,4.3923
				C93.2701,76.1193,93.6791,74.996,94.1809,73.124z"/>
			<path class="st286" d="M96.5167,74.4171c0,0,0.7011-1.8369,1.7808-1.5c1.0811,0.3351,0.3351,4.024-1.1302,3.8082
				C95.7038,76.5115,96.2214,75.0068,96.5167,74.4171z"/>
			<path class="st286" d="M98.9874,76.643c0,0-0.7577-0.1353-0.3117-1.5716c0.446-1.4363,1.2804-1.4972,1.7092-1.1874
				C100.7826,74.1737,100.3469,77.1765,98.9874,76.643z"/>
		</g>
		<g>
			<path class="st285" d="M142.9333,147.5914c0,0,0.5715,5.8436,1.1134,6.7492c0.5424,0.9047-8.0311,4.4171-12.9663,4.382
				c-6.8007-0.0482-8.2122-8.2113-4.0848-9.546c2.7823-0.8986,9.7239,4.8528,11.3446-1.3751L142.9333,147.5914z"/>
			<path class="st287" d="M147.8118,93.5092c0,0-3.8447,19.7609-3.9159,32.3575c-0.0702,12.5975,0.994,21.8515,0.994,21.8515
				s-3.4525,1.1579-7.1596-0.1039c0,0-2.7346-22.3429-1.3914-46.3047c0,0,0.1409-3.2766,0.2864-10.3136
				C136.6254,90.996,138.6449,88.1505,147.8118,93.5092z"/>
			<path class="st287" d="M152.4573,149.0703c0,0,0.9487,5.7935,1.5477,6.6622c0.6,0.8668-7.7278,4.9272-12.656,5.2122
				c-6.788,0.3917-8.7266-7.6618-4.6932-9.2605c2.7182-1.0783,10.0178,4.213,11.2313-2.107L152.4573,149.0703z"/>
			<path class="st288" d="M153.8234,94.7855c0,0-2.5572,19.9673-1.8121,32.5428c0.7451,12.5751,2.4065,21.7415,2.4065,21.7415
				s-3.3702,1.3792-7.1517,0.3604c0,0-4.1751-22.1202-4.3872-46.119c0,0-6.0415-2.6035-6.3528-9.6354
				C136.5262,93.6759,144.3294,90.0319,153.8234,94.7855z"/>
			<path class="st289" d="M136.2384,49.1744c0,0,4.674,0.8026,6.401,3.7399c0,0,0.1095,12.8713-13.0501,19.1918
				c-10.0721,4.8369-26.2359,3.5241-26.2359,3.5241s1.4808-2.2137,0.9084-7.8687c0,0,19.4487,2.7299,28.4061-10.7221
				C135.6767,52.5188,136.2384,49.1744,136.2384,49.1744z"/>
			<path class="st294" d="M151.2279,44.7437l7.097,4.6619c0,0-2.8493,19.0874-2.8811,24.6465
				c-0.0323,5.5591-0.7479,21.011-0.7479,21.011s-8.091-2.934-18.1696-1.3872c0,0-0.1273-22.1005,0.7932-29.3758
				c0.9202-7.2771-1.0811-15.1257-1.0811-15.1257l6.3406-4.0123L151.2279,44.7437z"/>
			<g>
				<g>
					<path class="st285" d="M152.2116,104.4579c0,0.5584,0.4521,1.0104,1.0109,1.0114l10.5425,0.0051
						c0.5583,0.0005,1.0118-0.4516,1.0114-1.0095l0,0c0.001-0.5593-0.4521-1.0104-1.0104-1.0114l-10.542-0.0051
						C152.6647,103.4475,152.2126,103.9001,152.2116,104.4579L152.2116,104.4579z"/>
					<path class="st286" d="M157.7169,95.5441c0,0-1.0437,1.3292-2.1431,2.9588c-0.0693,0.1011-1.7883,1.0502-2.0827,3.0238
						c-0.1573,1.0563,0.1348,2.0794,1.5599,1.7017c0.3954,0.936-0.1549,2.9092,0.7067,2.8413
						c0.8518-0.0669,1.148-0.6224,1.148-0.6224s0.1905,0.7713,1.0605,0.8326c0.4329,0.0304,1.5093-0.4189,1.5093-0.4189
						s0.1039,0.4727,0.9243,0.754c1.0385,0.358,2.2366-4.0455,2.2366-4.0455l-1.6938-6.8685L157.7169,95.5441z"/>
					<g>
						<path class="st285" d="M153.1374,103.448c0.5111-0.0005,0.9243,0.4142,0.9243,0.9253l-0.0028,4.6909
							c0.001,0.5111-0.4151,0.9243-0.9252,0.9238c-0.5107-0.0005-0.9243-0.4142-0.9243-0.9253l0.0023-4.6904
							C152.2116,103.8607,152.6277,103.4475,153.1374,103.448z"/>
						<path class="st285" d="M163.8516,103.4527c0.512,0.0009,0.9253,0.4156,0.9248,0.9267l-0.0033,4.6899
							c0,0.5115-0.4142,0.9248-0.9248,0.9248c-0.5111,0-0.9238-0.4142-0.9243-0.9262l0.0033-4.6895
							C162.9272,103.8663,163.341,103.4536,163.8516,103.4527z"/>
					</g>
					<path class="st287" d="M145.0524,125.6584c-0.001,0.5916,0.4788,1.0718,1.0708,1.0722l24.7167,0.014
						c0.5925,0.001,1.0731-0.4792,1.0736-1.0717l0.008-16.0121c0.0005-0.593-0.4797-1.0722-1.0708-1.0732l-24.7172-0.0136
						c-0.592-0.0005-1.0713,0.4797-1.0713,1.0717L145.0524,125.6584z"/>
					<g>
						<path class="st288" d="M168.9997,109.4184c0.4446,0.0005,0.8041,0.3613,0.8041,0.8055l-0.0014,1.5444
							c0.0005,0.4446-0.3608,0.8055-0.805,0.8045c-0.4451,0-0.8059-0.3608-0.8054-0.8049l0.0009-1.5445
							C168.1929,109.7788,168.5532,109.4179,168.9997,109.4184z"/>
						<path class="st288" d="M147.9841,109.4062c0.4446,0.0005,0.8054,0.3618,0.8045,0.8059l-0.0005,1.5439
							c0,0.4456-0.3613,0.8055-0.8069,0.805c-0.4451-0.0005-0.805-0.3603-0.805-0.8054l0.0014-1.5435
							C147.1786,109.767,147.539,109.4057,147.9841,109.4062z"/>
					</g>
				</g>
				<g>
					<path class="st286" d="M155.1596,106.5761c0,0-0.7418-0.4216-0.7418-1.6258c0-2.3588,0.6463-4.1517,1.8795-4.0998
						c1.2337,0.051,0.5476,3.6163,0.446,4.799C156.6573,106.6599,155.367,106.7142,155.1596,106.5761z"/>
					<path class="st286" d="M157.0303,101.787c0,0,0.3384-1.5028,1.7972-1.4663c1.4597,0.0389,1.2945,6.5349-1.1447,6.4558
						C156.1776,106.7269,156.7925,103.7105,157.0303,101.787z"/>
					<path class="st286" d="M159.1588,104.6582c0,0,0.8055-3.8265,1.9212-3.643c1.1158,0.1844,1.1499,5.9695-0.958,5.8404
						C158.6435,106.7662,158.9477,105.2835,159.1588,104.6582z"/>
					<path class="st286" d="M161.9117,106.5228c0,0-1.4761,0.2396-1.2314-1.2445c0.2443-1.4831,0.2499-4.8331,1.4013-3.9121
						C162.9553,102.0664,163.385,106.3997,161.9117,106.5228z"/>
				</g>
				<path class="st3" d="M158.0248,48.3212l-6.3692-3.2391c0,0,3.4825,6.803,3.9289,26.3267
					c0.1956,8.5904,0.5775,26.2232,0.5775,26.2232l5.7898,0.1877c0,0-0.0178-43.2982-0.4278-47.6601L158.0248,48.3212z"/>
			</g>
			<path class="st286" d="M149.2926,33.2717c0,0,1.7541,6.745,0.0978,12.898c0,0-4.0708,4.1185-7.5972,0.5537
				c0,0,1.6043-4.6726,1.4078-8.7154L149.2926,33.2717z"/>
			<path class="st295" d="M149.2926,33.2717c0,0,0.4568,1.7593,0.6843,4.2996c-0.8275,1.9292-1.4312,3.1081-1.4312,3.1081
				c-2.0008,0.0646-3.7988,0.0019-5.4229-0.147c0.0814-0.8372,0.1179-1.6937,0.0782-2.5245L149.2926,33.2717z"/>
			<polygon class="st299" points="145.3669,48.8089 144.1038,73.9046 140.4271,81.6479 138.9257,73.453 143.7902,48.6951 			"/>
			
				<ellipse transform="matrix(0.994 -0.1098 0.1098 0.994 -4.3657 16.1867)" class="st299" cx="144.7599" cy="47.725" rx="1.8858" ry="1.8863"/>
			<path class="st286" d="M135.3056,8.9288c0,0-0.3454,16.3633-6.5536,24.6027c0,0,4.1269,6.087,18.7467,5.6199
				c0,0,4.3764-8.5394,5.7055-17.3165c0,0-0.0159,1.7995,2.3008,0.6431c2.3181-1.1556,3.8901-4.4939,2.3986-6.9172
				c-0.9608-1.5627-3.5119-1.1935-4.002-0.4207c0,0,1.5683-5.1655-1.053-9.43C150.1224,1.276,137.0204-0.0136,135.3056,8.9288z"/>
			<path class="st3" d="M137.9396,18.1334c0.3781,0.0861,0.6908,0.2364,0.9561,0.4283c0.0669-0.1563,0.131-0.3215,0.1858-0.5097
				c0.6299-2.1711,0.5172-5.0812-0.98-5.699c-1.4976-0.6182-2.158,0.9791-2.0022,2.1197c0.0983,0.7216,0.0773,1.3053-0.0304,1.7232
				c-0.242,0.9538-0.3323,1.6141-0.3024,2.1089C136.3109,18.0328,137.0363,17.9275,137.9396,18.1334z"/>
			<path class="st3" d="M145.066,16.6545c-0.1526,1.2501-0.1423,2.0537,0.0061,2.6213c0.5654-0.4539,1.4307-0.7034,2.5895-0.4395
				c0.3327,0.0754,0.6163,0.2008,0.8611,0.3599c0.0936-0.2555,0.1699-0.5457,0.2218-0.8771
				c0.3983-2.5488-0.1507-5.8281-1.9357-6.3111c-1.785-0.4816-2.3003,1.4227-1.9591,2.6911
				C145.066,15.5022,145.1264,16.1664,145.066,16.6545z"/>
			
				<ellipse transform="matrix(0.0829 -0.9966 0.9966 0.0829 116.9722 160.4689)" class="st296" cx="145.6688" cy="16.6835" rx="2.0489" ry="1.2539"/>
			
				<ellipse transform="matrix(0.0723 -0.9974 0.9974 0.0723 110.5757 151.0268)" class="st296" cx="136.4703" cy="16.075" rx="1.842" ry="1.1271"/>
			<g>
				<path class="st287" d="M149.8364,10.8184c-0.9419-0.2852-1.7319-0.5603-2.4717-0.5505
					c-0.3682-0.0146-0.7178,0.0679-1.0825,0.2209c-0.3765,0.1394-0.728,0.3921-1.1743,0.6365
					c0.1045-0.4807,0.3394-0.9543,0.7515-1.292c0.3877-0.364,0.9531-0.5676,1.501-0.5649c0.5488,0.009,1.0664,0.1765,1.4878,0.4551
					C149.2695,9.9984,149.627,10.3577,149.8364,10.8184z"/>
			</g>
			<g>
				<path class="st287" d="M141.0586,10.8184c-0.9419-0.2852-1.7319-0.5605-2.4717-0.5505
					c-0.3682-0.0146-0.7178,0.0679-1.0825,0.2212c-0.377,0.1394-0.728,0.3918-1.1743,0.6362
					c0.1045-0.4807,0.3394-0.9543,0.7515-1.292c0.3872-0.364,0.9531-0.5674,1.501-0.5649c0.5488,0.009,1.0659,0.1765,1.4878,0.4551
					C140.4917,9.9984,140.8491,10.3577,141.0586,10.8184z"/>
			</g>
			<path class="st295" d="M141.7052,17.254c0,0-0.454,3.2812-2.8932,3.9692c-1.8061,0.5092-2.4332-0.1329-2.4332-0.1329
				s-1.4503,2.8198,1.2501,4.3151c0,0-0.9472-2.2151-0.1615-2.766C138.2517,22.0886,141.4525,22.2295,141.7052,17.254z"/>
			<path class="st3" d="M147.2816,25.4054c0,0-5.135,13.7713-10.2612,3.6687L147.2816,25.4054z"/>
			<path class="st3" d="M142.0646,49.1744l1.6025-4.0254l-0.8789-2.3181l0.1806-1.0656l-1.9928,3.1067
				C140.976,44.8719,140.7542,46.7309,142.0646,49.1744z"/>
			<path class="st3" d="M146.8051,45.2327c0,0,2.9377-1.727,4.0595-3.9369c0,0,1.4045,0.9959,2.4065,2.2512
				c0,0-2.5909,4.5294-6.6299,6.7024L146.8051,45.2327z"/>
			<path class="st300" d="M139.3492,17.3411c-0.0257,1.1233-0.9566,2.0129-2.0794,1.9881l-0.6669-0.0155
				c-1.1228-0.0253-2.0129-0.9566-1.9867-2.0798l0.0758-3.3669c0.0257-1.1232,0.9561-2.0129,2.0789-1.9877l0.6669,0.015
				c1.1232,0.0257,2.0134,0.9566,1.9872,2.0798L139.3492,17.3411z"/>
			<path class="st300" d="M148.775,17.9429c-0.0899,1.1186-1.0699,1.9544-2.1889,1.8655l-0.6655-0.0538
				c-1.1195-0.0899-1.9549-1.0703-1.865-2.1889l0.2686-3.3585c0.0899-1.1195,1.0694-1.9545,2.1894-1.8646l0.6651,0.0529
				c1.1199,0.0894,1.9549,1.0694,1.865,2.1893L148.775,17.9429z"/>
			<line class="st301" x1="148.8087" y1="17.5264" x2="153.9016" y2="15.14"/>
			<line class="st301" x1="144.049" y1="17.254" x2="139.3492" y2="17.0359"/>
		</g>
	</g>
</g>
</svg>
