<?xml version="1.0" encoding="utf-8"?>
<!-- Generator: Adobe Illustrator 21.0.2, SVG Export Plug-In . SVG Version: 6.00 Build 0)  -->
<svg version="1.1" id="Capa_1" xmlns="http://www.w3.org/2000/svg" xmlns:xlink="http://www.w3.org/1999/xlink" x="0px" y="0px"
	 viewBox="0 0 157.0327 295.6982" style="enable-background:new 0 0 157.0327 295.6982;" xml:space="preserve">
<style type="text/css">
	.st0{fill-rule:evenodd;clip-rule:evenodd;fill:#DDDDDD;}
	.st1{fill:#3B86B1;}
	.st2{opacity:0.25;fill-rule:evenodd;clip-rule:evenodd;fill:#020202;}
	.st3{fill:#FFFFFF;}
	.st4{opacity:0.5;}
	.st5{fill-rule:evenodd;clip-rule:evenodd;fill:#A8A8A8;}
	.st6{fill-rule:evenodd;clip-rule:evenodd;fill:#FFFFFF;}
	.st7{fill-rule:evenodd;clip-rule:evenodd;fill:#3B86B1;}
	.st8{opacity:0.5;fill:#2C6882;}
	.st9{opacity:0.75;fill-rule:evenodd;clip-rule:evenodd;fill:#282828;}
	.st10{opacity:0.5;fill:#FFFFFF;}
	.st11{fill-rule:evenodd;clip-rule:evenodd;fill:none;stroke:#FFFFFF;stroke-miterlimit:10;}
	.st12{fill:none;stroke:#FFFFFF;stroke-miterlimit:10;}
	.st13{fill:#FFFFFF;stroke:#3B86B1;stroke-width:1.7139;stroke-miterlimit:10;}
	.st14{fill-rule:evenodd;clip-rule:evenodd;}
	.st15{opacity:0.85;fill:#FFFFFF;}
	.st16{opacity:0.5;fill-rule:evenodd;clip-rule:evenodd;}
	.st17{fill-rule:evenodd;clip-rule:evenodd;fill:#FEFEFE;}
	.st18{fill:#312767;}
	.st19{opacity:0.48;}
	.st20{opacity:0.25;}
	.st21{fill-rule:evenodd;clip-rule:evenodd;fill:#020202;}
	.st22{fill:#757575;}
	.st23{opacity:0.25;clip-path:url(#XMLID_3720_);}
	.st24{fill:#FFFFFF;stroke:#312767;stroke-miterlimit:10;}
	.st25{fill:#ACABC9;}
	.st26{fill-rule:evenodd;clip-rule:evenodd;fill:#312767;}
	.st27{opacity:0.77;fill:#312767;}
	.st28{opacity:0.25;clip-path:url(#XMLID_3721_);}
	.st29{fill:#9490B2;stroke:#2D2D2D;stroke-width:0.25;stroke-miterlimit:10;}
	.st30{fill:#312767;stroke:#2D2D2D;stroke-width:0.25;stroke-miterlimit:10;}
	.st31{fill:#FCFCFC;}
	.st32{fill:#FFFFFF;stroke:#2D2D2D;stroke-width:0.25;stroke-miterlimit:10;}
	.st33{fill-rule:evenodd;clip-rule:evenodd;fill:#484849;stroke:#2D2D2D;stroke-width:0.25;stroke-miterlimit:10;}
	.st34{fill-rule:evenodd;clip-rule:evenodd;fill:#312767;stroke:#2D2D2D;stroke-width:0.25;stroke-miterlimit:10;}
	.st35{fill-rule:evenodd;clip-rule:evenodd;fill:#FFFFFF;stroke:#2D2D2D;stroke-width:0.25;stroke-miterlimit:10;}
	.st36{fill:#484849;stroke:#2D2D2D;stroke-width:0.25;stroke-miterlimit:10;}
	.st37{fill:#FFFFFF;stroke:#FFFFFF;stroke-miterlimit:10;}
	.st38{fill:#54518C;}
	.st39{opacity:0.25;fill-rule:evenodd;clip-rule:evenodd;fill:#FFFFFF;}
	.st40{fill:#D4A800;}
	.st41{fill:#00AEB3;}
	.st42{fill:#38353B;}
	.st43{fill:#FF8400;}
	.st44{fill:#BF3900;}
	.st45{fill:#00AA9C;}
	.st46{opacity:0.25;clip-path:url(#XMLID_3722_);}
	.st47{fill:none;stroke:#ACABC9;stroke-width:5;stroke-miterlimit:10;}
	.st48{opacity:0.25;clip-path:url(#XMLID_3723_);}
	.st49{fill:#DDDDDD;}
	.st50{opacity:0.25;clip-path:url(#XMLID_3724_);}
	.st51{fill-rule:evenodd;clip-rule:evenodd;fill:#FFFFFF;stroke:#FFFFFF;stroke-miterlimit:10;}
	.st52{fill:#F79748;}
	.st53{fill:#FF7900;}
	.st54{fill:#DD7105;}
	.st55{fill:#02897C;}
	.st56{fill:#0EAD9A;}
	.st57{fill:#28C6AF;}
	.st58{fill:#4FE0C7;}
	.st59{fill:#D37D00;}
	.st60{fill:#D14600;}
	.st61{fill:#E5B92E;}
	.st62{fill:#DD571B;}
	.st63{fill:#E28A17;}
	.st64{opacity:0.25;clip-path:url(#XMLID_3725_);}
	.st65{fill:#4D4789;}
	.st66{opacity:0.77;fill:#FFFFFF;}
	.st67{fill:#50565B;stroke:#656C70;stroke-miterlimit:10;}
	.st68{fill:#808589;stroke:#656C70;stroke-miterlimit:10;}
	.st69{fill:#252728;stroke:#000000;stroke-miterlimit:10;}
	.st70{fill:#1A1B1C;stroke:#000000;stroke-miterlimit:10;}
	.st71{fill:#A0A6AA;}
	.st72{fill:#262C35;stroke:#161A1E;stroke-miterlimit:10;}
	.st73{fill:#181D23;}
	.st74{fill:#EABA96;stroke:#E0AA86;stroke-miterlimit:10;}
	.st75{fill:#E0AA86;}
	.st76{stroke:#000000;stroke-width:0.75;stroke-linecap:square;stroke-linejoin:bevel;stroke-miterlimit:10;}
	.st77{fill:#0F1C3F;stroke:#182951;stroke-miterlimit:10;}
	.st78{fill:#132354;stroke:#3F6093;stroke-miterlimit:10;}
	.st79{fill:#0F1C3F;}
	.st80{fill:none;stroke:#3F6093;stroke-width:0.75;stroke-miterlimit:10;}
	.st81{fill:#DBA682;}
	.st82{fill:none;stroke:#E0AA86;stroke-miterlimit:10;}
	.st83{fill:none;stroke:#E0AA86;stroke-linejoin:bevel;stroke-miterlimit:10;}
	.st84{fill:#8A0A8E;stroke:#AC34B2;stroke-miterlimit:10;}
	.st85{fill:#810C87;}
	.st86{fill:#680B6D;}
	.st87{fill:#AC34B2;stroke:#AC34B2;stroke-width:0.5;stroke-miterlimit:10;}
	.st88{fill:none;stroke:#959DA0;stroke-width:0.5;stroke-miterlimit:10;}
	.st89{fill:#959DA0;stroke:#959DA0;stroke-width:0.5;stroke-miterlimit:10;}
	.st90{fill:none;stroke:#AC34B2;stroke-miterlimit:10;}
	.st91{fill:#282828;stroke:#000000;stroke-miterlimit:10;}
	.st92{fill:#EABA96;stroke:#E0AA86;stroke-width:0.5;stroke-miterlimit:10;}
	.st93{fill:#B7896A;}
	.st94{stroke:#000000;stroke-miterlimit:10;}
	.st95{fill:#C1A578;}
	.st96{stroke:#000000;stroke-width:0.25;stroke-linecap:round;stroke-linejoin:round;stroke-miterlimit:10;}
	.st97{fill:#FFFFFF;stroke:#000000;stroke-width:0.25;stroke-linecap:round;stroke-linejoin:round;stroke-miterlimit:10;}
	.st98{fill:#70582D;}
	.st99{stroke:#000000;stroke-linecap:round;stroke-linejoin:round;stroke-miterlimit:10;}
	.st100{fill:none;stroke:#D8A27D;stroke-width:0.75;stroke-miterlimit:10;}
	.st101{fill:#561409;}
	.st102{fill:#BA2A13;}
	.st103{fill:#9E3025;stroke:#4C2311;stroke-width:0.25;stroke-miterlimit:10;}
	.st104{fill:#871D08;stroke:#4C2311;stroke-width:0.25;stroke-miterlimit:10;}
	.st105{fill:#DDAC8A;}
	.st106{fill:#A5ABAD;stroke:#959DA0;stroke-width:0.5;stroke-miterlimit:10;}
	.st107{fill:#B1BABC;}
	.st108{fill:none;stroke:#153847;stroke-width:5;stroke-miterlimit:10;}
	.st109{fill:#3CA7AF;}
	.st110{fill:#3DAD8D;}
	.st111{fill:#3DAA61;}
	.st112{fill:#67A53F;}
	.st113{fill:#95A340;}
	.st114{fill:#153847;}
	.st115{opacity:0.25;clip-path:url(#XMLID_3726_);}
	.st116{opacity:0.25;clip-path:url(#XMLID_3727_);}
	.st117{opacity:0.25;clip-path:url(#XMLID_3728_);}
	.st118{opacity:0.25;clip-path:url(#XMLID_3729_);}
	.st119{clip-path:url(#SVGID_2_);}
	.st120{fill:none;stroke:#3F6093;stroke-miterlimit:10;}
	.st121{fill:none;stroke:#3F6093;stroke-width:0.75;stroke-linecap:round;stroke-linejoin:round;}
	.st122{fill:none;stroke:#3F6093;stroke-width:0.75;stroke-linecap:round;stroke-linejoin:round;stroke-dasharray:0.9892,0.9892;}
	
		.st123{fill:none;stroke:#3F6093;stroke-width:0.75;stroke-linecap:round;stroke-linejoin:round;stroke-miterlimit:10;stroke-dasharray:1;}
	.st124{fill:#EAEAEA;stroke:#FFFFFF;stroke-width:0.25;stroke-miterlimit:10;}
	.st125{fill:#D8D8D8;}
	.st126{fill:#282828;stroke:#000000;stroke-width:0.75;stroke-miterlimit:10;}
	.st127{opacity:0.33;fill:#FFFFFF;}
	.st128{fill:none;stroke:#000000;stroke-width:1.5;stroke-linecap:round;stroke-linejoin:round;stroke-miterlimit:10;}
	.st129{opacity:0.64;}
	.st130{fill:#C9C9C9;}
	.st131{fill:#FFF064;}
	.st132{fill:#4F4E4F;}
	.st133{fill:#1E2F47;}
	.st134{opacity:0.1;fill:#FFFFFF;}
	.st135{opacity:0.1;}
	.st136{opacity:0.4;fill:#FFFFFF;}
	.st137{fill-rule:evenodd;clip-rule:evenodd;fill:#F39C12;}
	.st138{fill-rule:evenodd;clip-rule:evenodd;fill:#E6E6E6;}
	.st139{fill-rule:evenodd;clip-rule:evenodd;fill:#474646;}
	.st140{fill-rule:evenodd;clip-rule:evenodd;fill:#D84848;}
	.st141{opacity:0.2;fill-rule:evenodd;clip-rule:evenodd;fill:#231F20;}
	.st142{opacity:0.1;fill-rule:evenodd;clip-rule:evenodd;fill:#231F20;}
	.st143{fill-rule:evenodd;clip-rule:evenodd;fill:#4D4D4D;}
	.st144{fill-rule:evenodd;clip-rule:evenodd;fill:#336699;}
	.st145{fill-rule:evenodd;clip-rule:evenodd;fill:#FF6633;}
	.st146{fill-rule:evenodd;clip-rule:evenodd;fill:#0056A3;}
	.st147{fill-rule:evenodd;clip-rule:evenodd;fill:#33CC99;}
	.st148{fill:#CE6405;}
	.st149{opacity:0.2;fill:#FFFFFF;}
	.st150{fill:#1ABC9C;}
	.st151{opacity:0.2;}
	.st152{fill:#0B2E44;}
	.st153{fill-rule:evenodd;clip-rule:evenodd;fill:#154F77;}
	.st154{fill-rule:evenodd;clip-rule:evenodd;fill:#0D3858;}
	.st155{fill-rule:evenodd;clip-rule:evenodd;fill:#FFFEFE;}
	.st156{fill:#AEC647;}
	.st157{fill:#F3AE1B;}
	.st158{fill:#DF3F11;}
	.st159{fill:#BCDEDE;}
	.st160{fill:#C84119;}
	.st161{fill:#6BB5CE;}
	.st162{fill:#00D0E5;}
	.st163{fill:#FF81ED;}
	.st164{fill:#00C982;}
	.st165{opacity:0.7;}
	.st166{opacity:0.4;}
	.st167{fill-rule:evenodd;clip-rule:evenodd;fill:#0B2E44;}
	.st168{opacity:0.8;fill-rule:evenodd;clip-rule:evenodd;fill:#FFFFFF;}
	.st169{fill:#424242;}
	.st170{opacity:0.2;fill-rule:evenodd;clip-rule:evenodd;fill:#FFFFFF;}
	.st171{fill:#D0EDFA;}
	.st172{fill:#FF651F;}
	.st173{fill:#0051C4;}
	.st174{fill:#E46400;}
	.st175{fill:#C0003B;}
	.st176{fill:#FFEA50;}
	.st177{fill:#FF2C0D;}
	.st178{fill:#FF1A2C;}
	.st179{fill:#FF2C4D;}
	.st180{fill:#FFD74C;}
	.st181{fill:#4C4C4B;}
	.st182{fill:#6CD2EA;}
	.st183{fill:#F7674F;}
	.st184{opacity:0.1;fill-rule:evenodd;clip-rule:evenodd;}
	.st185{fill:#BABABA;}
	.st186{fill:#F9B946;}
	.st187{fill:#DFC2A9;}
	.st188{fill:#BFA490;}
	.st189{fill:#F5D4B2;}
	.st190{fill:#DF584C;}
	.st191{fill:#C2443E;}
	.st192{fill:#DBDBDA;}
	.st193{fill:#2F363E;}
	.st194{fill:#332524;}
	.st195{fill:#473735;}
	.st196{opacity:0.25;clip-path:url(#XMLID_3730_);}
	.st197{fill:#52B8BA;}
	.st198{fill:#35373E;}
	.st199{opacity:0.25;clip-path:url(#XMLID_3731_);}
	.st200{opacity:0.31;fill:#34383A;}
	.st201{opacity:0.16;fill:#3D3835;}
	.st202{fill:#D0D1D4;}
	.st203{opacity:0.25;clip-path:url(#XMLID_3732_);}
	.st204{fill:#F9E1B4;}
	.st205{opacity:0.25;fill:#050505;}
	.st206{fill:#FCC60F;}
	.st207{fill:#74CAEA;}
	.st208{opacity:0.25;clip-path:url(#XMLID_3733_);}
	.st209{fill:#FABC8F;}
	.st210{fill:#3FA995;}
	.st211{opacity:0.17;fill:#020202;}
	.st212{fill:#E1E1E1;}
	.st213{opacity:0.25;clip-path:url(#XMLID_3734_);}
	.st214{fill:#BF8E00;}
	.st215{fill:#F7D8D7;}
	.st216{fill:#F18636;}
	.st217{fill:#004460;}
	.st218{fill:#D93A37;}
	.st219{fill:#EDEDED;}
	.st220{fill:#184F78;}
	.st221{fill:#FF3E03;}
	.st222{opacity:0.6;fill:#0F0F0F;}
	.st223{fill:#E8E8E6;}
	.st224{fill:#00EAA6;}
	.st225{fill-rule:evenodd;clip-rule:evenodd;fill:#FF3E03;}
	.st226{opacity:0.1;fill-rule:evenodd;clip-rule:evenodd;fill:#020202;}
	.st227{fill-rule:evenodd;clip-rule:evenodd;fill:#FABE00;}
	.st228{fill-rule:evenodd;clip-rule:evenodd;fill:#E6E8E8;}
	.st229{fill-rule:evenodd;clip-rule:evenodd;fill:#F7D959;}
	.st230{fill-rule:evenodd;clip-rule:evenodd;fill:#F9623E;}
	.st231{fill:#4F1A0F;}
	.st232{opacity:0.46;fill:#FFFFFF;}
	.st233{fill:#48505A;}
	.st234{fill:#C3C3C3;}
	.st235{fill:#E9E9EA;}
	.st236{fill:#9D9E9F;}
	.st237{fill:#F6F4F4;}
	.st238{fill:#6B6A6A;}
	.st239{fill:#C09478;}
	.st240{fill:#F7CDA0;}
	.st241{fill:#9E1010;}
	.st242{fill:#F2F2F2;}
	.st243{opacity:0.2;fill:#060606;}
	.st244{fill:#16AFBE;}
	.st245{fill:#DD2222;}
	.st246{fill:#FFEDDC;}
	.st247{fill:#22272B;}
	.st248{fill:#5B6375;}
</style>
<g>
	<path class="st67" d="M131.0408,194.9725l-1.0568-1.9446c0,0,5.7492,1.6064,5.7915-1.9446s0.2114-32.1279,0.2114-32.1279
		l2.0291-0.2536l-0.2114,35.0025l-1.0991,2.156l-2.8112-0.2114L131.0408,194.9725"/>
	<path class="st68" d="M131.0408,194.9725c0,0,6.0028,0.8196,6.0028-2.8876v-33.3832h4.9037v33.3832
		c0,0,0.6623,7.2239-5.1574,7.2417l-5.8197,0.0179L131.0408,194.9725z"/>
	
		<rect x="94.9392" y="237.5231" transform="matrix(-1 -4.369095e-11 4.369095e-11 -1 195.3739 500.0487)" class="st68" width="5.4956" height="25.0026"/>
	<path class="st69" d="M94.1819,238.085h7.1792c0.9487,0,1.7301-0.7451,1.7752-1.6927l1.2721-26.7086H91.1346l1.2721,26.7086
		C92.4518,237.3399,93.2332,238.085,94.1819,238.085z"/>
	<circle class="st70" cx="97.687" cy="288.2889" r="6.9092"/>
	<circle class="st70" cx="77.3667" cy="286.9362" r="6.5941"/>
	<circle class="st70" cx="117.9957" cy="286.9362" r="6.5941"/>
	<circle class="st71" cx="97.687" cy="288.2889" r="4.8311"/>
	<circle class="st71" cx="77.3667" cy="286.9362" r="4.2883"/>
	<circle class="st71" cx="117.9957" cy="286.9362" r="4.2883"/>
	<circle class="st70" cx="97.7015" cy="287.5794" r="4.1216"/>
	<circle class="st70" cx="77.3667" cy="286.4897" r="3.5925"/>
	<circle class="st70" cx="117.9957" cy="286.4897" r="3.4784"/>
	<path class="st71" d="M95.3055,239.7108c0,0,4.1845-1.6192,3.9241,2.6081v18.3186c0,0,0.7049,1.0067-3.3041,1.4474h4.0019
		l0.1832-23.6552h-4.8474L95.3055,239.7108z"/>
	<path class="st68" d="M73.7742,271.7413c1.0146-5.2983,11.2166-5.2419,11.2166-5.2419h5.8901v-2.938
		c0-0.572,0.4637-1.0357,1.0357-1.0357h11.7098c0.572,0,1.0357,0.4637,1.0357,1.0357v2.938h8.6238
		c9.0747,0,8.1377,6.651,8.1377,6.651v8.3136c0,1.1011-0.8926,1.9937-1.9937,1.9937h-2.7904c-1.1011,0-1.9937-0.8927-1.9937-1.9937
		v-0.7552c0,0.0493,0-0.7019,0-3.1056c0-6.651-4.4035-6.2565-4.4035-6.2565l-9.0818-0.0407v10.9082
		c0,0.6868-0.5568,1.2436-1.2436,1.2436h-4.2908c-0.6868,0-1.2436-0.5568-1.2436-1.2436v-10.9386l-9.2791-0.0416
		c-3.4677,0-4.1096,3.1212-4.2062,4.7949v6.0444c0,0.7646-0.6198,1.3845-1.3845,1.3845h-4.0089
		c-0.7646,0-1.3845-0.6199-1.3845-1.3845v-10.0185c0-0.0177,0.0045-0.0341,0.0052-0.0517L73.7742,271.7413z"/>
	<path class="st71" d="M97.6126,268.2749c0,0,3.3294-0.2959,3.2026,2.7478l0.0035,10.3993c0,0,0.4192,1.995-1.9904,1.5893
		c0,0,0.7609,0.0594,1.1414-1.843l0.0845-10.1879C100.0543,270.9804,99.6519,268.8667,97.6126,268.2749z"/>
	<path class="st71" d="M97.687,262.9061h5.1996c0,0,1.8178-0.4227,1.395,1.7755l0.0638,2.1982l-1.7124-2.9169L97.687,262.9061z"/>
	<path class="st71" d="M116.2873,267.218c0,0,4.9037,0.465,4.6924,6.6792l0.0066,6.9751c0,0,0.7966,2.4096-2.9658,2.1137
		c0,0,1.6487-0.5496,1.4796-3.9737l-0.0845-6.9329C119.4156,272.0795,119.5424,269.5854,116.2873,267.218z"/>
	<path class="st72" d="M118.8256,87.5655c0,0,2.2685-6.0737,18.6271-5.7456c0,0,17.2591-4.6755,19.06,33.262v34.0002
		c0,0,1.3507,23.4598-18.1595,22.8035c0,0-20.7109,1.5632-20.4107-16.6081L118.8256,87.5655"/>
	<path class="st73" d="M128.7481,85.306c0,0,15.158-6.5046,18.6098,28.7998l2.1011,38.7188c0,0,0.6003,14.4675-12.0063,14.7956
		s-0.6003,0.8613-0.6003,0.8613s-16.5087,1.1074-17.3341-14.8059l-3.5269-53.9738
		C115.9914,99.7018,117.9424,85.0189,128.7481,85.306z"/>
	<path class="st67" d="M86.9898,212.6114h23.4235c2.603,0,4.7327-2.1297,4.7327-4.7327v-2.8745
		c0-1.7509-1.4325-3.1834-3.1834-3.1834H85.4405c-1.7509,0-3.1834,1.4325-3.1834,3.1834v2.8745
		C82.2571,210.4817,84.3868,212.6114,86.9898,212.6114z"/>
	<path class="st72" d="M77.8815,205.4563c-2.7659-0.1201,7.498,1.0483,22.9177,1.3528c6.1427,0.1213,18.0874-0.6764,18.0874-0.6764
		c2.8683,0,13.7896-1.6909,13.7896-7.6093v-3.551c0-6.4819-10.9213-8.2856-13.7896-8.2856c0,0-11.8124-0.1952-17.9082,0
		c-13.105,0.4196-30.2603,1.3528-30.2603,1.3528c-2.8683,0-7.3425,3.5482-7.3425,6.2565v4.2274
		C63.749,202.5817,75.0133,205.4563,77.8815,205.4563z"/>
	<path class="st73" d="M132.6016,194.1119c0,0-35.0219,7.1657-68.6474-1.6515s0,0,0,0s0.7589,8.2613,14.8172,10.1213
		c0,0,33.0414,2.8746,46.0251,0c0,0,0.1778,2.343-5.4628,3.5388c-5.6406,1.1958,0,0,0,0s11.3129-0.2057,13.2679-6.776s0,0,0,0
		V194.1119"/>
	<path class="st74" d="M67.2022,254.2079c0,0,2.2305,8.246,5.0113,13.3774l1.4817,2.5828l-2.3322,3.8017l-4.1096,3.0426
		l-3.889,3.6036c0,0-3.6606,3.8065-3.7887,3.911c-0.1281,0.1046-5.7291,3.273-5.7291,3.273l-3.7976-0.2515
		c0,0-1.2169-1.6436-1.3023-1.825c-0.0854-0.1815-0.0856-3.0583-0.0856-3.0583s4.5498-6.3127,9.5021-11.0374
		c0,0,3.7304-3.0422,3.6613-4.7159l-3.3733-7.1665"/>
	<path class="st74" d="M67.3164,265.2804c0,0,2.0366,1.1248,0.8926,3.2147"/>
	<path class="st75" d="M68.6347,264.2665c0,0,2.3651,2.9679,2.4734,5.6991c0,0-0.2487,3.1449-4.7799,5.6315
		c0,0-4.0201,2.1258-4.4362,4.1519l2.7338-0.7477l6.3318-3.2314l2.3825-3.1161l-0.7131-4.8834c0,0-2.4889-4.6684-3.3743-7.5145"/>
	<path class="st76" d="M74.4528,271.2343c-0.4175,4.7219-4.8093,6.4878-4.8093,6.4878c-4.7969,2.6662-6.504,6.5941-6.504,6.5941
		l-1.7691,2.271c-5.1554,5.3758-11.5556,4.8658-11.5556,4.8658c-2.0701,0.0561-3.1082-0.6048-3.6144-1.4025l-0.0123,0.0246
		l0.7515,1.5966c0,0,2.8545,2.7281,11.0441-1.2977c0,0,2.5371-1.3246,4.8119-4.1344c0.3647-0.4505,1.2565-2.0026,1.7477-2.8028
		c0.8465-1.3792,2.5755-3.5439,5.7147-5.1054c0,0,4.6882-1.6265,4.7957-5.8201L74.4528,271.2343z"/>
	<path class="st77" d="M48.6612,282.6653c0,0-2.4739,2.8003-2.8176,4.8174c0,0-1.0655,4.1069,3.9713,3.9703
		c0,0,6.4002,0.51,11.5556-4.8658l1.7691-2.271c0,0,1.4223-4.2307,6.9388-6.7749c0,0,4.8606-2.0817,4.27-6.2578l-1.7215-3.5132
		c0,0,1.378,4.7195-5.9819,8.4203c0,0-3.1012,1.4597-5.5832,5.3468c0,0-4.455,6.382-10.6373,4.36
		C48.4907,285.2651,48.6612,282.6653,48.6612,282.6653z"/>
	<path class="st78" d="M122.417,160.8718c0,0,8.8493,18.7131-4.5655,26.6042c0,0-27.1678,7.4401-56.703,10.7093l-3.7201,0.9018
		c0,0,8.385,38.7566,11.6406,58.0106c0,0-0.9144,4.0011-10.2994,5.6455c0,0-25.526-51.1431-27.1042-55.8778
		c0,0-10.723-18.3238-2.194-24.3496c0,0-16.684-23.6732-18.6004-29.3097c0,0-10.3711-16.684,1.3528-19.164
		c0,0,7.5529-4.171,28.0697,3.9455l35.0025,14.5421C75.2961,152.5298,106.9167,150.1625,122.417,160.8718"/>
	<path class="st79" d="M29.3588,183.0795c0,0-7.0526,5.4621,2.4758,23.4477c0,0,24.0913,52.5038,27.1914,55.9984
		c0,0,7.2637-1.126,10.0431-5.4279c0,0-3.1099-13.4787-6.5227-32.6229L35.3334,191.196L29.3588,183.0795z"/>
	<path class="st79" d="M39.1662,137.9313c0,0-5.6928,1.1273-11.273,0c0,0-2.5364,0.1691-2.4237,3.2691
		c0,0,0.4509,2.7619-1.9728,2.7619c0,0-4.0019,1.0146-6.2565-1.0146c0,0-4.9037-3.0437-7.2711,2.48c0,0-1.063,2.5505-0.8979,4.3753
		l-3.6254-7.5036l2.1771-6.6792l9.9404-1.3528l12.0207-1.0146L39.1662,137.9313z"/>
	<path class="st79" d="M74.3801,152.5862c0,0,0.7025,7.5529-13.2538,9.0184c0,0-13.4224,0.5742-16.2822-1.8266s0,0,0,0
		s2.2847,2.5593,4.8417,12.1413c0,0,12.4208-5.5801,25.582-8.5674l12.3721-5.2983L74.3801,152.5862z"/>
	<path class="st79" d="M110.8622,160.5618c0,0,8.0038,14.4012-4.171,19.1358c0,0-28.5835,13.2267-51.8922,4.1051l5.2232,14.1659
		c0,0,41.8801-5.6962,54.2218-9.5908c2.6873-0.848,5.5238-1.3528,8.0573-4.6519c2.8506-3.7119,4.7657-11.3668,0.1156-22.8541
		c-8.5462-21.112,0,0,0,0L110.8622,160.5618z"/>
	<line class="st80" x1="84.4271" y1="156.419" x2="74.9315" y2="152.3783"/>
	<path class="st80" d="M72.9992,164.1128c0,0-17.1901,4.7407-23.3133,8.2464"/>
	<path class="st74" d="M62.7709,205.5643c0,0,3.763,7.6689,7.4719,12.1754l1.9473,2.2526l-1.5639,4.1769l-3.4535,3.7709
		l-3.1299,4.2796c0,0-2.867,4.435-2.9727,4.5621c-0.1058,0.1271-4.9993,4.3061-4.9993,4.3061l-3.7758,0.4778
		c0,0-1.5082-1.3812-1.6266-1.543s-0.6676-2.9858-0.6676-2.9858s3.2616-7.065,7.2213-12.6479c0,0,3.0813-3.6981,2.6942-5.3279
		l-4.6788-6.3911"/>
	<path class="st74" d="M64.9959,216.4115c0,0,2.2138,0.7155,1.4896,2.9853"/>
	<path class="st75" d="M64.311,210.7852c0,0,4.6734,6.8416,5.3008,9.5019c0,0,0.356,3.1346-3.6175,6.4401
		c0,0-3.5406,2.8539-3.5624,4.9221l2.5409-1.2556l5.5988-4.3803l1.7441-3.5135l-1.6319-4.6575c0,0-4.2758-5.5339-5.6881-8.1587"/>
	<path class="st76" d="M73.1373,220.8943c0.4913,4.7148-3.4829,7.2863-3.4829,7.2863c-4.2,3.5326-5.1262,7.7141-5.1262,7.7141
		l-1.3032,2.5668c-4.0349,6.2608-10.4148,6.9815-10.4148,6.9815c-2.0213,0.4501-3.1665-0.0005-3.8156-0.687l-0.0074,0.0265
		l1.0424,1.4239c0,0,3.3227,2.1333,10.5935-3.3813c0,0,2.2377-1.7844,3.9346-4.9767c0.2721-0.5118,0.8513-2.2055,1.1807-3.0848
		c0.5678-1.5154,1.852-3.9702,4.6354-6.1021c0,0,4.2917-2.4912,3.597-6.6283L73.1373,220.8943z"/>
	<path class="st77" d="M50.0009,237.0368c0,0-1.8941,3.2209-1.8466,5.2666c0,0-0.2623,4.2347,4.6559,3.1396
		c0,0,6.3799-0.7207,10.4148-6.9815l1.3032-2.5668c0,0,0.5889-4.4244,5.5185-7.9745c0,0,4.3741-2.971,2.9974-6.9576l-2.3602-3.1201
		c0,0,2.2533,4.3699-4.2652,9.4071c0,0-2.7656,2.0247-4.4604,6.3139c0,0-3.1553,7.1148-9.6099,6.3098
		C50.3297,239.6214,50.0009,237.0368,50.0009,237.0368z"/>
	<path class="st78" d="M30.5988,142.9478c0,0,14.4294,11.0475,18.2622,26.9424c0,0,14.33,33.9621,16.3591,38.8094
		c0,0-1.5508,3.9037-8.9839,5.9358c0,0-26.5393-31.4431-27.3284-32.7959"/>
	<path class="st74" d="M103.4238,63.9012c0,0-1.0944,11.4032-1.1763,15.5004c0,0-16.1208,8.4129-19.4336,12.3735
		c0,0-1.2553-5.1351-0.5469-11.3628c0,0,2.8582-5.3286,1.5862-10.8723c-1.272-5.5437,0,0,0,0L103.4238,63.9012"/>
	<path class="st81" d="M84.0298,74.0662c0,0,7.3555-2.6951,18.2177,4.0243l0.9014-14.0396l-19.6795,4.1518
		C83.4693,68.2027,84.41,71.42,84.0298,74.0662z"/>
	<path class="st74" d="M71.7733,99.6878c0,0-1.8947-5.7492-9.4194-5.8337c0,0-18.7001,25.8866-21.6593,31.2976
		c0,0-10.7683-0.9433-20.4951,3.113c0,0,9.1593,1.9446,6.6792,7.412c0,0,9.7511,1.5782,13.9785,1.5782
		c0,0,4.3965,0.1691,6.0874-3.6073L71.7733,99.6878z"/>
	<path class="st74" d="M26.8787,135.6767c0,0-2.1137,1.8459-2.4096,3.4101c0,0-0.5496,3.6355-0.2114,5.8338
		c0,0,2.2741,4.1851-0.11,5.1996c0,0-2.6378,1.4373-3.3142-3.9737c0,0-0.0845-2.8746-1.4373-4.8615c0,0-1.2682-3.9314-6.2565-1.1414
		l-4.1428,3.086l-0.8455,3.1283l0.6341,6.2988c0,0,0.8877,2.621-0.6341,2.9592c0,0-1.9869,1.0568-2.4519-2.3673
		c0,0-0.2536,2.4519-2.2405,1.6909c0,0-1.3528-0.2114-0.4227-3.9314l0.465-1.6487c0,0-0.9723-1.0568-0.9723-3.2551
		c0,0-1.86-1.3528-2.0291-3.3819v-3.8469c0,0,0-2.621,2.0714-4.6078c0,0,4.2274-5.9807,17.4167-5.9606
		C19.9881,128.307,29.4926,130.5018,26.8787,135.6767z"/>
	<path class="st82" d="M18.2248,139.7314c0,0-1.1113-0.9664-1.3227-2.4754"/>
	<path class="st82" d="M8.1515,146.3579c0,0-2.0718,5.7522-2.4519,6.8906"/>
	<path class="st83" d="M3.5014,149.3593l1.9446-7.0597c0,0-0.0423-1.4373,1.86-3.1705l4.4387-3.5087"/>
	<path class="st83" d="M8.1515,133.8026l-4.0583,3.9314c0,0-1.5999,0.88-1.6872,3.3791c-0.0024,0.0701-0.0037,0.1415-0.0037,0.2141
		c0,2.6632,0.1268,4.7769,0.1268,4.7769"/>
	<path class="st84" d="M63.9222,90.8496c0,0-1.3343,1.6282-2.8717,3.7465c-4.9882,6.8731-16.0946,22.3047-20.5093,29.4786
		c0,0-0.9626-0.0802-3.0481,0c0,0,2.5054,7.1116,0.2901,13.1814c0,0,2.6778,1.3372,7.2499-0.5077c0,0,2.5721,0.572,20.2163-25.7833
		l8.2593-13.1201"/>
	<path class="st84" d="M62.0853,93.1721c0,0,5.2069-6.6455,8.0815-9.9146c0,0,1.3953-2.2974,8.1592-2.7181l3.0455-2.242
		c-0.7306-2.3955,1.1746-2.3012,1.1746-2.3012c-1.9251-1.8489,0-1.4714,0-1.4714c13.2619,3.3106,20.7979,0.2057,20.7979,0.2057
		c2.0079-0.5997,0.8062,1.898,0.8062,1.898c1.0094,1.1294-0.219,2.246-0.219,2.246c0.8133,1.4535,1.818,2.0828,1.8185,2.0831
		l10.6926,4.6108c0,0,5.8619,2.7055,7.2711,10.4275l1.4367,7.4369l0.4797,2.4833c0,0-4.8801,4.8883-13.5839,2.9309
		c0,0,1.0709,5.8619-1.9727,10.0329l-2.6491,11.7239c0,0,1.3527,0.9582,0.4509,2.1419c0,0,13.133,18.8822,14.5421,28.126
		c0,0-18.7694-1.0709-29.5915-2.0855c0,0-12.7948-4.2723-17.5294-6.2565c0,0,0.2818-8.7929,0.9582-10.4275
		c0,0-2.2546-2.4237-0.7328-3.3255c0,0-3.8328-13.8528-3.3819-16.3892c0,0-8.4168-3.6872-7.6903-15.8515
		c0,0,0.1357-5.0258,4.5095-8.4448"/>
	<path class="st85" d="M93.6927,120.5276c0,0-8.0038-0.1127-11.2166-5.2983c0,0-6.2565,7.8347-13.6568,3.2526l3.9621,3.9058
		c0,0,4.8333,1.7191,5.4674,5.8619c0,0,2.4096,1.86,2.5787-3.0014c0,0,2.9169-5.411,7.4824-1.7332
		C88.3098,123.5149,96.6518,126.9814,93.6927,120.5276z"/>
	<path class="st86" d="M73.0196,94.9035c0,0-5.6605,1.7116-8.2808,7.0591c0,0-2.5668,4.5989-2.0321,9.2513l-17.3795,23.2618
		c0,0-3.2661,2.022-7.0608,1.1447l-0.4832,1.6357c0,0,1.7687,1.4442,7.2499-0.5077c0,0,2.3802-1.0811,11.4975-13.2009
		l7.8873-11.9059C64.418,111.6417,61.6645,100.3028,73.0196,94.9035"/>
	<path class="st86" d="M108.4667,103.4079c0,0,3.7458,3.8548,3.551,7.6938c0,0,0.2536,3.9737-1.9446,7.7783l-2.8746,11.8366
		c0,0,1.5641,0.7609,0.4227,2.0714l5.8001,8.8529c0,0,8.4038,14.1016,8.7983,18.9208l-15.613-0.9864l-15.0917-1.1273
		l-15.9371-6.1297c0,0,17.6704-2.5153,23.7578-5.3265c0,0,6.5101-3.129,2.4096-7.3133l2.4519-6.4678
		c0,0,1.1837-1.2682-0.2114-2.0714l0.4214-8.4818C104.4071,122.6576,115.9914,115.5551,108.4667,103.4079z"/>
	<path class="st74" d="M65.559,172.3561c-2.7478,1.86-3.9737,1.0146-3.9737,1.0146c-1.1837-1.2682,0.2959-2.1137,0.2959-2.1137
		l2.9591-1.5641c2.3673-0.8455,5.0728-2.3673,5.0728-2.3673l3.086-3.2128c0,0,2.0714-4.481,11.9211-7.7783
		c0,0,5.876-1.395,10.8643-4.2696c0,0,15.8526-8.7701,25.6601-11.9406c0,0-5.0493-16.6247-8.4312-30.5327
		c0,0,5.6271,1.5666,12.1654-3.0553c0,0,5.437,25.5896,6.4516,33.9316c0,0,3.4946,9.4693-0.6764,8.342
		c-4.171-1.1273-0.6764,0.0932-0.6764,0.0932s-6.1276,7.516-39.8195,13.8852c0,0-0.8455,3.4383-7.6938,5.8902
		c0,0-0.138,0.0571-0.3932,0.1143c-0.985,3.4962-3.3692,5.5081-3.3692,5.5081c-0.9723,2.9169-3.4664,4.946-3.4664,4.946
		c-1.7755,2.8323-3.1705,1.7332-3.1705,1.7332c-0.8455-1.0991,0.8877-2.7901,0.8877-2.7901
		c2.621-2.8746,3.2128-4.7346,3.2128-4.7346l1.4233-5.3898c0,0,0.0023-0.0013-0.0005-0.0027l0.0005,0.0027l-1.0118,3.8315
		c-0.3505,1.3272-1.7676,2.5306-1.7676,2.5306l-4.6045,4.0583c-2.4096,2.6632-3.7201,1.4796-3.7201,1.4796
		c-1.0991-1.0991,0.7609-2.621,0.7609-2.621c1.2196-1.5177,3.2579-3.3988,4.5868-4.6723c0.7439-0.7129,1.2873-1.3491,1.2873-1.3491
		c0.0059-0.0596-0.0189,0.0886,0.0014-0.0044l-0.0014,0.0044l-1.2873,1.3491l-5.8972,3.5309
		c-2.5787,2.2828-3.8046,1.1837-3.8046,1.1837c-1.0991-1.4796,1.3528-2.7591,1.3528-2.7591l3.1282-1.9756
		c1.9826-1.0065,3.3887-2.2516,4.0204-2.869c0.2439-0.2383,0.376-0.386,0.376-0.386l2.5026-4.4022l-2.8786,4.7882l-1.6954,0.8399
		L65.559,172.3561z"/>
	<path class="st82" d="M75.2679,166.5083c0,0-1.3663,4.1889-1.7755,4.6783"/>
	<path class="st84" d="M125.1501,103.4328l7.5262,36.2986c0,0,2.9726,6.918,0.3248,9.6278c0,0-2.2005,1.9558-4.359,2.1294
		c0,0-2.4599,2.1847-5.9893,3.4681c0,0-3.7072-11.0891-7.2727-13.4287l4.8128-1.7967l-8.1752-28.6297
		c0,0,0.6853-3.2138-3.551-7.6938"/>
	<path class="st85" d="M104.7895,81.3211l7.893,4.8663c0,0,7.9382,4.7986,7.9382,10.795l9.3633,42.9711
		c0,0,5.0647,6.9195-1.235,9.4059c0,0-1.5545,1.4863-4.4919,0.4439c0,0-5.7202-6.4053-6.9929-7.7648
		c0,0,4.9608,8.7473,5.3886,12.9184c0,0,4.7326-2.4866,5.8021-3.77c0,0,8.6334-0.4714,3.9037-11.2566l-7.3261-35.2938
		l-1.5775-8.1015c0,0-0.7754-6.8449-6.7379-10.401l-11.2833-4.9465c0,0-1.4438-1.123-1.8984-2.3797
		C103.5353,78.8077,103.8354,80.7329,104.7895,81.3211z"/>
	<path class="st85" d="M103.9701,84.0483c0,0-5.7913,7.7529-23.1797-1.0967c0,0-5.5118-0.6005-3.2684,2.4941
		c0,0,4.4054,4.8337,9.2602,4.1246c0,0-12.9882,1.2554-5.9918,4.2838c0,0,4.423,4.2628,3.0627,7.6562
		c0,0,1.9865-4.0169,7.5322-6.0871c0,0,9.0752-0.8947,3.6207-3.6482C95.0059,91.7751,111.3299,84.2088,103.9701,84.0483z"/>
	<path class="st86" d="M103.9701,75.1447c0,0,0.1-0.2406-2.9481,0.7219c0,0-8.6662,1.738-16.3651-0.3743l-2.6066-0.6417
		c0,0,5.0047,3.8502,15.0229,2.5133c0,0,5.152-0.5736,6.4621-1.1157C103.5353,76.2482,104.084,76.2409,103.9701,75.1447z"/>
	<path class="st86" d="M103.7492,76.7088c0,0-4.131,3.2486-15.7619,1.6043C87.9873,78.3131,97.8134,79.1954,103.7492,76.7088z"/>
	<path class="st86" d="M83.4693,76.5484c0,0,3.5554,3.2316,11.8173,3.1684c0,0-8.2244,0.762-13.2365-3.008
		C82.0502,76.7088,81.3979,76.2276,83.4693,76.5484z"/>
	<path class="st86" d="M103.5353,78.8077c0,0-1.9919,2.5535-14.425,1.9117c0,0,8.6229,1.8449,14.8754-1.0652L103.5353,78.8077z"/>
	<path class="st87" d="M115.9914,140.6788c0,0,5.4377,4.7963,7.3298,14.679l-5.3494,1.509c0,0-3.1532-11.4554-7.2441-13.3806
		C110.7277,143.4863,113.338,141.0483,115.9914,140.6788z"/>
	<path class="st87" d="M37.1321,123.3127c0,0,3.9705,5.3758,2.2861,15.1811l-3.0962-0.1934c0,0,1.0507-9.9343-3.2006-14.5064
		L37.1321,123.3127z"/>
	<path class="st88" d="M105.4336,81.1874c0,0-2.3261,6.7914-18.2485,11.524c0,0-5.3628-2.3122-8.8592-12.172"/>
	
		<ellipse transform="matrix(0.1562 -0.9877 0.9877 0.1562 -30.1891 174.204)" class="st89" cx="86.8684" cy="104.7719" rx="0.4946" ry="0.4946"/>
	
		<ellipse transform="matrix(0.1562 -0.9877 0.9877 0.1562 -45.7337 177.4042)" class="st89" cx="80.9693" cy="115.4704" rx="0.4946" ry="0.4946"/>
	<path class="st89" d="M86.8923,93.921l0.1847,0.0292c0.1399,0.0221,0.2724-0.0742,0.2945-0.2141l0.2266-1.4325
		c0.0221-0.1399-0.0742-0.2724-0.2141-0.2945l-0.1847-0.0292c-0.1399-0.0221-0.2724,0.0742-0.2945,0.2141l-0.2266,1.4325
		C86.6561,93.7663,86.7524,93.8989,86.8923,93.921z"/>
	<path class="st88" d="M86.9846,93.9356c0,0-2.9759,17.0378-6.0153,21.5348"/>
	<path class="st88" d="M86.9846,93.9356c0,0-1.1889,8.136-0.186,10.8663"/>
	<path class="st90" d="M74.2251,94.1923c0,0-3.1282,1.55-6.9751,5.5801"/>
	<path class="st91" d="M79.6957,6.1058L58.1438,29.5452c0,0-3.2057,17.512,9.5527,25.9452c0,0-1.8028-1.4204-1.7208-3.1685
		c0,0,1.1819,2.5129,4.0736,3.6055c0,0-1.0168-1.3896-0.5922-2.3337c0,0,1.0592,2.3166,5.2215,3.6362L79.6957,6.1058z"/>
	<path id="Cara_10_" class="st74" d="M72.1214,40.9542c0,0,0.5463,7.0521,2.1631,14.5041c0,0,2.0979,6.533,8.0525,12.2417
		c0,0,2.8134,4.5888,7.4842,4.5069c0,0,4.9426,0.8194,9.1907-4.5069c0,0,8.5259-5.1538,10.2299-15.4873l1.9666-14.4172
		l-1.6389-12.4602l-5.1624-9.9152l-0.9833-4.0972l-9.9152,2.7861l-16.3067,6.4735l-5.6397,6.2277L72.1214,40.9542z"/>
	<path id="oreja_der_10_" class="st92" d="M107.8431,57.2054c-0.4791,0.4222,2.6278-4.665,3.1195-9.7455c0,0,1.6645,2.7566,3.4867,0
		c0,0,4.0521-6.0115,2.7957-10.7357c0,0-2.1039-5.9807-3.9473-2.9215l-2.0892,3.9927"/>
	<path id="Sobra_oreja_der_10_" class="st93" d="M114.2403,38.5722c0,0,0.6009,4.6512-0.9833,6.4963c0,0-1.4204,0.097-1.0926-1.3233
		c0,0,0.2906-0.608,0.5004-0.5225C112.6648,43.2227,114.1867,42.3648,114.2403,38.5722z"/>
	<path id="cabello_9_" class="st91" d="M70.4825,16.8131c0,0,5.2444-6.0638,11.4721-7.0471c0,0-7.8666,4.0972-7.8666,10.6526
		c0,0-6.6101,8.3582-0.8194,20.8136c0,0-4.5888-12.1276,10.4888-16.8804c0,0,13.6026,0,17.5359-8.686
		c0,0-0.4917,3.7694,3.1138,3.6055c0,0-1.6389,7.8666,4.2611,9.6693c0,0,4.9166,8.0305,0,15.897c0,0,2.95-1.8028,4.2611-9.3416
		c0,0,3.7899-3.4007,3.667,4.2331c0,0,0.041,8.5091-4.3385,9.0011c0,0-0.1479,1.8434-1.7867,3.81c0,0,1.6389,0.3278,0.8194,1.9666
		c0,0,2.4583-0.8194,2.7861-2.7861c0,0,0.9833,1.475,0.6555,2.7861c0,0,1.9666-1.8028,1.1472-5.5722
		c0,0,1.1472,0.8194,0.8194,3.7694c0,0,1.6389-2.6222,1.6389-5.8999c-1.0528,4.1936-0.0895,4.7774-1.393,7.7027
		c0,0,10.4068,1.3111,10.8985-17.2081c0,0-2.7861-26.8775-23.4358-28.1885c0,0-1.9666-17.8637-28.8441-2.1305
		C75.563,6.9799,70.4825,10.9132,70.4825,16.8131z"/>
	<path id="mechon_izq_10_" class="st94" d="M75.563,6.9799c0,0-26.5497,12.6193-14.0943,37.694c0,0-0.8194-4.2611,2.2944-9.3416
		c0,0-1.2565,14.4767,11.2767,17.809c0,0-3.525-2.5089-3.3555-6.8833c0,0-2.3484-3.8171-1.997-8.4059
		c0,0,0.3618-1.128,0.7951-2.5199c0,0,1.3111,5.8999,2.7861,5.8999c0,0-5.818-9.8332,0.8194-20.8136
		c0,0-0.9014-5.4902,7.8666-10.6526c0,0-6.6374,1.0653-11.4721,7.0471C70.4825,16.8131,69.5811,12.552,75.563,6.9799z"/>
	<path id="sombra_cabello_der_10_" class="st94" d="M104.4071,9.1104c0,0,19.3387-0.0005,23.4358,28.1885
		c0,0,0.4097,16.3887-10.8985,17.2081c0,0,1.6234-2.709,1.393-7.7027c0,0,3.0319,0.4917,3.5236,3.1958
		C121.8611,50.0002,134.7262,25.4172,104.4071,9.1104z"/>
	<path id="sombra_cabello_der_2_10_" class="st94" d="M111.0855,47.8082c0,0,0.3141,1.7598-1.6662,6.6169
		c0,0,2.7451-1.5023,1.871,0.0819c0,0,2.4037-0.956,2.7861-2.7861c0,0,1.2838,1.2018,0.6555,2.7861c0,0,2.0181-2.214,1.1472-5.5722
		c0,0,1.475,0.7648,0.8194,3.7694c0,0,2.3217-4.2884,1.5842-7.1837c0,0-0.2663,1.3487-0.8741,1.7754
		c-0.6077,0.4268-1.5568-0.0683-1.2837-1.4477c0,0,1.0599-7.6209,0.355-9.0957c0,0,0.5106,2.7623-0.0064,5.6157
		C115.7717,46.2431,113.7282,50.2857,111.0855,47.8082z"/>
	<g id="ojo_der_9_">
		<path id="parpado_der_10_" class="st95" d="M92.8258,38.3642c0,0,0.7921-4.2337,5.0259-5.3263c0,0,4.862-1.2018,6.1184,2.9773
			l-0.2731,0.9953c0,0-1.8028-2.1425-4.8893-2.0112C98.8076,34.9994,94.0822,35.8786,92.8258,38.3642z"/>
		<path id="pestaña_der_10_" class="st96" d="M93.2082,38.774l-0.3824,0.2525v-0.6623c0,0,2.4724-3.3376,5.9819-3.3649
			c0,0,3.0592-0.186,4.78,1.7533c0,0,0.5736,0.2185,1.2018-0.519c0,0-0.3824,1.3111-1.3657,1.2838L93.2082,38.774z"/>
		<path class="st97" d="M93.2082,38.774c0,0-0.2185,2.8953,4.6435,3.7148c0,0,4.2064,1.1961,5.5722-4.9712
			C103.4238,37.5175,99.6544,32.1638,93.2082,38.774z"/>
		<circle class="st98" cx="98.3979" cy="38.9993" r="2.1897"/>
		<circle cx="98.5203" cy="39.3208" r="1.356"/>
		<circle class="st3" cx="97.4136" cy="38.6371" r="0.4748"/>
		<circle class="st3" cx="96.7686" cy="37.8591" r="0.3045"/>
		<path id="ceja_der_10_" class="st99" d="M92.8258,33.5842v-1.2018c0,0,5.299-5.6268,11.9637-1.0322
			C104.7895,31.3502,97.8516,28.5037,92.8258,33.5842z"/>
	</g>
	<g id="Ojo_izq_10_">
		<path id="parpado_izq_10_" class="st95" d="M84.6568,38.3071c0,0-0.7302-3.9026-4.6327-4.9097c0,0-4.4817-1.1078-5.6398,2.7444
			l0.2518,0.9175c0,0,1.6617-1.9749,4.5068-1.8538C79.1429,35.2054,83.4987,36.0159,84.6568,38.3071z"/>
		<path id="pestaña_izq_10_" class="st96" d="M84.3043,38.6847l0.3525,0.2328v-0.6105c0,0-2.279-3.0765-5.5139-3.1017
			c0,0-2.8199-0.1715-4.4061,1.6162c0,0-0.5287,0.2014-1.1078-0.4784c0,0,0.3525,1.2085,1.2589,1.1834L84.3043,38.6847z"/>
		<path id="cuenca_izq_10_" class="st97" d="M84.3043,38.6847c0,0,0.2014,2.6688-4.2802,3.4242c0,0-3.8774,1.1025-5.1363-4.5824
			C74.8878,37.5265,78.3624,32.5917,84.3043,38.6847z"/>
		<circle id="iris_izq_10_" class="st98" cx="79.5404" cy="38.8867" r="2.0184"/>
		<circle id="pupila_izq_10_" cx="79.5404" cy="39.1022" r="1.25"/>
		<circle id="brillo_1_izq_10_" class="st3" cx="78.5454" cy="38.4276" r="0.3901"/>
		<circle id="brillo_2_izq_10_" class="st3" cx="77.9792" cy="37.6922" r="0.2502"/>
		<path id="ceja_izq_10_" class="st99" d="M85.1388,32.8777v-1.2018c0,0-4.8998-5.6268-11.0624-1.0322
			C74.0764,30.6436,80.4916,27.7972,85.1388,32.8777z"/>
	</g>
	<path id="Nariz_10_" class="st100" d="M86.5981,36.7242c0,0,1.0926,8.8783-0.9833,11.9922c0,0-1.2565,4.2611,5.5175,2.1305"/>
	<g>
		<path class="st101" d="M84.525,57.8558l-0.9487,0.5495c0,0-0.5022,2.0759,0.6697,2.9305
			c1.1712,0.855,5.6357,1.5264,10.5458-1.5261c4.9102-3.0529,1.0603-1.8316,1.0603-1.8316s-6.5843-1.1601-6.7517-1.0989"/>
		<path class="st3" d="M84.08,58.1002c0,0-0.5495,1.2517,0.0615,1.4957c0.6103,0.2443,7.5702,0.1832,8.8831-0.1832
			c1.3121-0.3663,1.3429-1.1905,1.3429-1.1905l-8.0281-0.7019"/>
		<path class="st102" d="M92.8396,61.3165c0,0-0.6288-1.152-2.979-0.8465c-2.351,0.3051-3.0715,0.853-3.4686,1.7076"/>
		<path class="st103" d="M83.7752,58.2529c0,0-0.0277,2.6889,1.9255,3.1468c3.9629,0.9287,5.5711,0.2152,9.8216-2.6538
			c0.5566-0.376,2.2529-1.1762,1.7299-0.6668c-0.2454,0.239-2.3746,4.7277-5.9984,5.7905
			c-3.6238,1.0628-5.5433,0.2192-6.8991-1.1655c-1.4345-1.4653-0.9795-4.3832-0.9795-4.3832"/>
		<path class="st104" d="M98.2539,57.6047c0.631-0.0157-3.0192,1.8817-5.4711,1.0145c-4.6591-1.6484-9.8876,0.6794-10.7969,0.1524
			c-0.9093-0.5265,2.184-0.369,4.1078-3.1082c0.2075-0.2955,0.4772-0.5051,1.2006-0.161c0.7241,0.3445,0.7677,0.4769,1.2277,0.4887
			c0.46,0.0118,1.1304-0.8668,1.5905-0.855C90.5724,55.148,91.779,57.7643,98.2539,57.6047z"/>
	</g>
	<path id="barbilla_10_" class="st105" d="M86.7822,66.9117c0,0,2.057,2.1146,4.0684,0.1789
		C90.8506,67.0905,89.3554,67.5892,86.7822,66.9117z"/>
	<g>
		
			<ellipse transform="matrix(0.9993 -0.0387 0.0387 0.9993 -1.7569 4.3933)" class="st106" cx="112.6398" cy="47.5934" rx="1.1092" ry="1.1092"/>
		<path class="st107" d="M112.6825,46.9381c0,0-0.7756,0.2268-0.6,1.1927c0,0-0.4137-0.6019-0.0732-1.1049
			C112.0093,47.0259,112.2069,46.7039,112.6825,46.9381z"/>
	</g>
</g>
</svg>
