<?xml version="1.0" encoding="utf-8"?>
<!-- Generator: Adobe Illustrator 21.0.2, SVG Export Plug-In . SVG Version: 6.00 Build 0)  -->
<svg version="1.1" id="Capa_1" xmlns="http://www.w3.org/2000/svg" xmlns:xlink="http://www.w3.org/1999/xlink" x="0px" y="0px"
	 viewBox="0 0 210.8673 204.475" style="enable-background:new 0 0 210.8673 204.475;" xml:space="preserve">
<style type="text/css">
	.st0{fill-rule:evenodd;clip-rule:evenodd;fill:#DDDDDD;}
	.st1{fill:#3B86B1;}
	.st2{opacity:0.25;fill-rule:evenodd;clip-rule:evenodd;fill:#020202;}
	.st3{fill:#FFFFFF;}
	.st4{opacity:0.5;}
	.st5{fill-rule:evenodd;clip-rule:evenodd;fill:#A8A8A8;}
	.st6{fill-rule:evenodd;clip-rule:evenodd;fill:#FFFFFF;}
	.st7{fill-rule:evenodd;clip-rule:evenodd;fill:#3B86B1;}
	.st8{opacity:0.5;fill:#2C6882;}
	.st9{opacity:0.75;fill-rule:evenodd;clip-rule:evenodd;fill:#282828;}
	.st10{opacity:0.5;fill:#FFFFFF;}
	.st11{fill-rule:evenodd;clip-rule:evenodd;fill:none;stroke:#FFFFFF;stroke-miterlimit:10;}
	.st12{fill:none;stroke:#FFFFFF;stroke-miterlimit:10;}
	.st13{fill:#FFFFFF;stroke:#3B86B1;stroke-width:1.7139;stroke-miterlimit:10;}
	.st14{fill-rule:evenodd;clip-rule:evenodd;}
	.st15{opacity:0.85;fill:#FFFFFF;}
	.st16{opacity:0.5;fill-rule:evenodd;clip-rule:evenodd;}
	.st17{fill-rule:evenodd;clip-rule:evenodd;fill:#FEFEFE;}
	.st18{fill:#312767;}
	.st19{opacity:0.48;}
	.st20{opacity:0.25;}
	.st21{fill-rule:evenodd;clip-rule:evenodd;fill:#020202;}
	.st22{fill:#757575;}
	.st23{opacity:0.25;clip-path:url(#XMLID_3738_);}
	.st24{fill:#FFFFFF;stroke:#312767;stroke-miterlimit:10;}
	.st25{fill:#ACABC9;}
	.st26{fill-rule:evenodd;clip-rule:evenodd;fill:#312767;}
	.st27{opacity:0.77;fill:#312767;}
	.st28{opacity:0.25;clip-path:url(#XMLID_3760_);}
	.st29{fill:#9490B2;stroke:#2D2D2D;stroke-width:0.25;stroke-miterlimit:10;}
	.st30{fill:#312767;stroke:#2D2D2D;stroke-width:0.25;stroke-miterlimit:10;}
	.st31{fill:#FCFCFC;}
	.st32{fill:#FFFFFF;stroke:#2D2D2D;stroke-width:0.25;stroke-miterlimit:10;}
	.st33{fill-rule:evenodd;clip-rule:evenodd;fill:#484849;stroke:#2D2D2D;stroke-width:0.25;stroke-miterlimit:10;}
	.st34{fill-rule:evenodd;clip-rule:evenodd;fill:#312767;stroke:#2D2D2D;stroke-width:0.25;stroke-miterlimit:10;}
	.st35{fill-rule:evenodd;clip-rule:evenodd;fill:#FFFFFF;stroke:#2D2D2D;stroke-width:0.25;stroke-miterlimit:10;}
	.st36{fill:#484849;stroke:#2D2D2D;stroke-width:0.25;stroke-miterlimit:10;}
	.st37{fill:#FFFFFF;stroke:#FFFFFF;stroke-miterlimit:10;}
	.st38{fill:#54518C;}
	.st39{opacity:0.25;fill-rule:evenodd;clip-rule:evenodd;fill:#FFFFFF;}
	.st40{fill:#D4A800;}
	.st41{fill:#00AEB3;}
	.st42{fill:#38353B;}
	.st43{fill:#FF8400;}
	.st44{fill:#BF3900;}
	.st45{fill:#00AA9C;}
	.st46{opacity:0.25;clip-path:url(#XMLID_3761_);}
	.st47{fill:none;stroke:#ACABC9;stroke-width:5;stroke-miterlimit:10;}
	.st48{opacity:0.25;clip-path:url(#XMLID_3762_);}
	.st49{fill:#DDDDDD;}
	.st50{opacity:0.25;clip-path:url(#XMLID_3763_);}
	.st51{fill-rule:evenodd;clip-rule:evenodd;fill:#FFFFFF;stroke:#FFFFFF;stroke-miterlimit:10;}
	.st52{fill:#F79748;}
	.st53{fill:#FF7900;}
	.st54{fill:#DD7105;}
	.st55{fill:#02897C;}
	.st56{fill:#0EAD9A;}
	.st57{fill:#28C6AF;}
	.st58{fill:#4FE0C7;}
	.st59{fill:#D37D00;}
	.st60{fill:#D14600;}
	.st61{fill:#E5B92E;}
	.st62{fill:#DD571B;}
	.st63{fill:#E28A17;}
	.st64{opacity:0.25;clip-path:url(#XMLID_3770_);}
	.st65{fill:#4D4789;}
	.st66{opacity:0.77;fill:#FFFFFF;}
	.st67{fill:#50565B;stroke:#656C70;stroke-miterlimit:10;}
	.st68{fill:#808589;stroke:#656C70;stroke-miterlimit:10;}
	.st69{fill:#252728;stroke:#000000;stroke-miterlimit:10;}
	.st70{fill:#1A1B1C;stroke:#000000;stroke-miterlimit:10;}
	.st71{fill:#A0A6AA;}
	.st72{fill:#262C35;stroke:#161A1E;stroke-miterlimit:10;}
	.st73{fill:#181D23;}
	.st74{fill:#EABA96;stroke:#E0AA86;stroke-miterlimit:10;}
	.st75{fill:#E0AA86;}
	.st76{stroke:#000000;stroke-width:0.75;stroke-linecap:square;stroke-linejoin:bevel;stroke-miterlimit:10;}
	.st77{fill:#0F1C3F;stroke:#182951;stroke-miterlimit:10;}
	.st78{fill:#132354;stroke:#3F6093;stroke-miterlimit:10;}
	.st79{fill:#0F1C3F;}
	.st80{fill:none;stroke:#3F6093;stroke-width:0.75;stroke-miterlimit:10;}
	.st81{fill:#DBA682;}
	.st82{fill:none;stroke:#E0AA86;stroke-miterlimit:10;}
	.st83{fill:none;stroke:#E0AA86;stroke-linejoin:bevel;stroke-miterlimit:10;}
	.st84{fill:#8A0A8E;stroke:#AC34B2;stroke-miterlimit:10;}
	.st85{fill:#810C87;}
	.st86{fill:#680B6D;}
	.st87{fill:#AC34B2;stroke:#AC34B2;stroke-width:0.5;stroke-miterlimit:10;}
	.st88{fill:none;stroke:#959DA0;stroke-width:0.5;stroke-miterlimit:10;}
	.st89{fill:#959DA0;stroke:#959DA0;stroke-width:0.5;stroke-miterlimit:10;}
	.st90{fill:none;stroke:#AC34B2;stroke-miterlimit:10;}
	.st91{fill:#282828;stroke:#000000;stroke-miterlimit:10;}
	.st92{fill:#EABA96;stroke:#E0AA86;stroke-width:0.5;stroke-miterlimit:10;}
	.st93{fill:#B7896A;}
	.st94{stroke:#000000;stroke-miterlimit:10;}
	.st95{fill:#C1A578;}
	.st96{stroke:#000000;stroke-width:0.25;stroke-linecap:round;stroke-linejoin:round;stroke-miterlimit:10;}
	.st97{fill:#FFFFFF;stroke:#000000;stroke-width:0.25;stroke-linecap:round;stroke-linejoin:round;stroke-miterlimit:10;}
	.st98{fill:#70582D;}
	.st99{stroke:#000000;stroke-linecap:round;stroke-linejoin:round;stroke-miterlimit:10;}
	.st100{fill:none;stroke:#D8A27D;stroke-width:0.75;stroke-miterlimit:10;}
	.st101{fill:#561409;}
	.st102{fill:#BA2A13;}
	.st103{fill:#9E3025;stroke:#4C2311;stroke-width:0.25;stroke-miterlimit:10;}
	.st104{fill:#871D08;stroke:#4C2311;stroke-width:0.25;stroke-miterlimit:10;}
	.st105{fill:#DDAC8A;}
	.st106{fill:#A5ABAD;stroke:#959DA0;stroke-width:0.5;stroke-miterlimit:10;}
	.st107{fill:#B1BABC;}
	.st108{fill:none;stroke:#153847;stroke-width:5;stroke-miterlimit:10;}
	.st109{fill:#3CA7AF;}
	.st110{fill:#3DAD8D;}
	.st111{fill:#3DAA61;}
	.st112{fill:#67A53F;}
	.st113{fill:#95A340;}
	.st114{fill:#153847;}
	.st115{opacity:0.25;clip-path:url(#XMLID_3771_);}
	.st116{opacity:0.25;clip-path:url(#XMLID_3772_);}
	.st117{opacity:0.25;clip-path:url(#XMLID_3773_);}
	.st118{opacity:0.25;clip-path:url(#XMLID_3780_);}
	.st119{clip-path:url(#SVGID_2_);}
	.st120{fill:none;stroke:#3F6093;stroke-miterlimit:10;}
	.st121{fill:none;stroke:#3F6093;stroke-width:0.75;stroke-linecap:round;stroke-linejoin:round;}
	.st122{fill:none;stroke:#3F6093;stroke-width:0.75;stroke-linecap:round;stroke-linejoin:round;stroke-dasharray:0.9892,0.9892;}
	
		.st123{fill:none;stroke:#3F6093;stroke-width:0.75;stroke-linecap:round;stroke-linejoin:round;stroke-miterlimit:10;stroke-dasharray:1;}
	.st124{fill:#EAEAEA;stroke:#FFFFFF;stroke-width:0.25;stroke-miterlimit:10;}
	.st125{fill:#D8D8D8;}
	.st126{fill:#282828;stroke:#000000;stroke-width:0.75;stroke-miterlimit:10;}
	.st127{opacity:0.33;fill:#FFFFFF;}
	.st128{fill:none;stroke:#000000;stroke-width:1.5;stroke-linecap:round;stroke-linejoin:round;stroke-miterlimit:10;}
	.st129{opacity:0.64;}
	.st130{fill:#C9C9C9;}
	.st131{fill:#FFF064;}
	.st132{fill:#4F4E4F;}
	.st133{fill:#1E2F47;}
	.st134{opacity:0.1;fill:#FFFFFF;}
	.st135{opacity:0.1;}
	.st136{opacity:0.4;fill:#FFFFFF;}
	.st137{fill-rule:evenodd;clip-rule:evenodd;fill:#F39C12;}
	.st138{fill-rule:evenodd;clip-rule:evenodd;fill:#E6E6E6;}
	.st139{fill-rule:evenodd;clip-rule:evenodd;fill:#474646;}
	.st140{fill-rule:evenodd;clip-rule:evenodd;fill:#D84848;}
	.st141{opacity:0.2;fill-rule:evenodd;clip-rule:evenodd;fill:#231F20;}
	.st142{opacity:0.1;fill-rule:evenodd;clip-rule:evenodd;fill:#231F20;}
	.st143{fill-rule:evenodd;clip-rule:evenodd;fill:#4D4D4D;}
	.st144{fill-rule:evenodd;clip-rule:evenodd;fill:#336699;}
	.st145{fill-rule:evenodd;clip-rule:evenodd;fill:#FF6633;}
	.st146{fill-rule:evenodd;clip-rule:evenodd;fill:#0056A3;}
	.st147{fill-rule:evenodd;clip-rule:evenodd;fill:#33CC99;}
	.st148{fill:#CE6405;}
	.st149{opacity:0.2;fill:#FFFFFF;}
	.st150{fill:#1ABC9C;}
	.st151{opacity:0.2;}
	.st152{fill:#0B2E44;}
	.st153{fill-rule:evenodd;clip-rule:evenodd;fill:#154F77;}
	.st154{fill-rule:evenodd;clip-rule:evenodd;fill:#0D3858;}
	.st155{fill-rule:evenodd;clip-rule:evenodd;fill:#FFFEFE;}
	.st156{fill:#AEC647;}
	.st157{fill:#F3AE1B;}
	.st158{fill:#DF3F11;}
	.st159{fill:#BCDEDE;}
	.st160{fill:#C84119;}
	.st161{fill:#6BB5CE;}
	.st162{fill:#00D0E5;}
	.st163{fill:#FF81ED;}
	.st164{fill:#00C982;}
	.st165{opacity:0.7;}
	.st166{opacity:0.4;}
	.st167{fill-rule:evenodd;clip-rule:evenodd;fill:#0B2E44;}
	.st168{opacity:0.8;fill-rule:evenodd;clip-rule:evenodd;fill:#FFFFFF;}
	.st169{fill:#424242;}
	.st170{opacity:0.2;fill-rule:evenodd;clip-rule:evenodd;fill:#FFFFFF;}
	.st171{fill:#D0EDFA;}
	.st172{fill:#FF651F;}
	.st173{fill:#0051C4;}
	.st174{fill:#E46400;}
	.st175{fill:#C0003B;}
	.st176{fill:#FFEA50;}
	.st177{fill:#FF2C0D;}
	.st178{fill:#FF1A2C;}
	.st179{fill:#FF2C4D;}
	.st180{fill:#FFD74C;}
	.st181{fill:#4C4C4B;}
	.st182{fill:#6CD2EA;}
	.st183{fill:#F7674F;}
	.st184{opacity:0.1;fill-rule:evenodd;clip-rule:evenodd;}
	.st185{fill:#BABABA;}
	.st186{fill:#F9B946;}
	.st187{fill:#DFC2A9;}
	.st188{fill:#BFA490;}
	.st189{fill:#F5D4B2;}
	.st190{fill:#DF584C;}
	.st191{fill:#C2443E;}
	.st192{fill:#DBDBDA;}
	.st193{fill:#2F363E;}
	.st194{fill:#332524;}
	.st195{fill:#473735;}
	.st196{opacity:0.25;clip-path:url(#XMLID_3781_);}
	.st197{fill:#52B8BA;}
	.st198{fill:#35373E;}
	.st199{opacity:0.25;clip-path:url(#XMLID_3782_);}
	.st200{opacity:0.31;fill:#34383A;}
	.st201{opacity:0.16;fill:#3D3835;}
	.st202{fill:#D0D1D4;}
	.st203{opacity:0.31;}
	.st204{fill:#34383A;}
	.st205{opacity:0.16;}
	.st206{fill:#3D3835;}
	.st207{opacity:0.25;clip-path:url(#XMLID_3783_);}
	.st208{fill:#F9E1B4;}
	.st209{opacity:0.25;fill:#050505;}
	.st210{fill:#FCC60F;}
	.st211{fill:#74CAEA;}
	.st212{fill:#050505;}
	.st213{opacity:0.25;clip-path:url(#XMLID_3784_);}
	.st214{fill:#FABC8F;}
	.st215{fill:#3FA995;}
	.st216{opacity:0.17;fill:#020202;}
	.st217{fill:#E1E1E1;}
	.st218{opacity:0.17;}
	.st219{fill:#020202;}
	.st220{opacity:0.25;clip-path:url(#XMLID_3785_);}
	.st221{fill:#BF8E00;}
	.st222{fill:#F7D8D7;}
	.st223{fill:#F18636;}
	.st224{fill:#004460;}
	.st225{fill:#D93A37;}
	.st226{fill:#EDEDED;}
	.st227{fill:#184F78;}
	.st228{fill:#FF3E03;}
	.st229{opacity:0.6;fill:#0F0F0F;}
	.st230{fill:#E8E8E6;}
	.st231{fill:#00EAA6;}
	.st232{fill-rule:evenodd;clip-rule:evenodd;fill:#FF3E03;}
	.st233{opacity:0.1;fill-rule:evenodd;clip-rule:evenodd;fill:#020202;}
	.st234{fill-rule:evenodd;clip-rule:evenodd;fill:#FABE00;}
	.st235{fill-rule:evenodd;clip-rule:evenodd;fill:#E6E8E8;}
	.st236{fill-rule:evenodd;clip-rule:evenodd;fill:#F7D959;}
	.st237{fill-rule:evenodd;clip-rule:evenodd;fill:#F9623E;}
	.st238{fill:#4F1A0F;}
	.st239{opacity:0.46;fill:#FFFFFF;}
	.st240{fill:#48505A;}
	.st241{fill:#C3C3C3;}
	.st242{fill:#E9E9EA;}
	.st243{fill:#9D9E9F;}
	.st244{fill:#F6F4F4;}
	.st245{fill:#6B6A6A;}
	.st246{fill:#C09478;}
	.st247{fill:#F7CDA0;}
	.st248{fill:#9E1010;}
	.st249{fill:#F2F2F2;}
	.st250{opacity:0.2;fill:#060606;}
	.st251{fill:#16AFBE;}
	.st252{fill:#DD2222;}
	.st253{fill:#FFEDDC;}
	.st254{fill:#22272B;}
	.st255{fill:#5B6375;}
</style>
<g>
	<g>
		<path class="st214" d="M62.9735,103.5679l2.4272-4.1707c0,0-5.8868-5.4717-7.6423-16.7946c0,0-0.7991-4.6694-0.1712-8.6527
			c0,0,1.0133-9.5857,0.8724-10.1437c0,0,0.5438-5.077,0.2796-7.9452c0,0,0.331-1.4372-0.8744-4.3492
			c0,0-1.5242-3.6074-0.1575-5.4114c0,0,1.4569-1.7767,4.1946-0.3912c0,0,2.3415,0.7953,4.266,4.282
			c0,0,5.2139,9.2368,4.3057,17.9038c0,0,0.8356,7.1176,1.265,8.1345l27.8424-52.4609c0,0,2.1266-2.6336,5.3294-1.6067
			c0,0,2.797,0.7672,3.2223,4.351c0,0,0.4348,1.261-2.1232,5.0891L86.6673,68.4586l28.5937,14.2828
			c0,0-4.6441,18.0922-14.6376,25.0774c0,0-5.5014,3.9461-9.5792,5.1549l-2.4605,4.6722L62.9735,103.5679z"/>
	</g>
	<g>
		<path class="st194" d="M201.4054,90.3607H79.8959c-5.204,0-9.4619-4.2579-9.4619-9.4619V9.4619
			C70.4341,4.2578,74.6919,0,79.8959,0h121.5095c5.204,0,9.4619,4.2578,9.4619,9.4619v71.437
			C210.8673,86.1029,206.6094,90.3607,201.4054,90.3607z"/>
	</g>
	<g>
		<rect x="83.0713" y="3.9121" class="st3" width="114.6718" height="81.9923"/>
	</g>
	<g>
		<g>
			<path class="st215" d="M124.2949,50.8441c-0.7751-0.195-0.8179,0.0389-0.9044-0.3504c-0.0861-0.3899-0.6029-0.3899-1.0765-0.3899
				c-0.474,0-0.6457-0.0385-1.0332-0.3502c-0.3876-0.3111-1.2067-0.3506-1.4649-0.4284c-0.2586-0.0776-0.1293-0.74-0.6457-1.3628
				c-0.5172-0.6228-1.5933-0.7397-2.2827-1.0902c-0.6894-0.3504-0.4736-1.7132-1.4645-1.5963
				c-0.9908,0.1167-1.0769,0.4674-1.9812,0.0391c-0.9044-0.4286-1.5069-0.7009-1.9809-0.3894
				c-0.474,0.3113-1.0769,0.8954-1.3783,1.0513c-0.3015,0.1558-0.8187-0.1169-1.1202-0.0778
				c-0.3011,0.0387-0.6461-0.273-0.8607-0.545c-0.2158-0.2732,0.3875-1.636-0.1725-1.636c-0.5601,0-1.2924-0.2335-1.2924-0.4283
				c0-0.1945,1.1626-1.3624,0.8187-1.5573c-0.3447-0.1948-1.0337-0.0776-1.6366,0.6619c-0.6033,0.74-1.1634,0.7009-1.4649,0.4284
				c-0.3011-0.2724-0.9904-1.8688-0.4304-2.7642c0.5597-0.896,1.3-1.4239,1.9894-1.3848c0.689,0.0391,0.965-0.1539,1.654-0.1926
				c0.689-0.0391,1.3525,0.2531,1.5251,0.487c0.1717,0.2336-0.1726,0.623,0.2582,1.0904c0.4308,0.4669,0.6894,0.2724,0.7323,0.4669
				c0.0432,0.195-0.3447,0.3895-0.5169,0.3895s-1.5938,0.3506-1.0337,0.5841c0.5601,0.2336,1.5505,0.0387,1.7659,0.3504
				c0.2154,0.3115-0.689,0.9734,0.6029,1.0125c1.2923,0.0387,2.153,0.195,2.8856,0.2335c0.7322,0.0391,1.2491,0.0782,1.3351,0.2336
				c0.0861,0.1557,0.6025-0.5837-0.6029-0.5837c-1.2062,0-2.1534-0.6234-2.7996-0.74c-0.6457-0.1168-1.0769-0.5061-1.1201-0.9735
				c-0.0424-0.4674,0.0433-0.8173-0.215-1.2069c-0.2582-0.3895-0.9044-1.3239-0.3014-1.7132
				c0.6029-0.3893,1.8091-1.1293,2.1106-1.6354c0.3011-0.5061,0.3011-0.6228,0.99-1.0126c0.6898-0.3893,1.5077-0.8954,1.8952-1.246
				c0.3876-0.3504,1.0337-0.8954,1.1626-0.6228c0.1293,0.2724,0.7326,0.3506,1.4649,0.1167
				c0.7326-0.2336,1.6365-0.8173,0.8615-0.8173c-0.7755,0-1.2491-0.1948-1.0337-0.4674c0.2149-0.2726-0.5168-0.3893-0.7322-0.3502
				c-0.2154,0.0386-0.2154-0.3894,0.5169-0.5067c0.7322-0.1167,0.1409,0.5928,0.7442,0.5538
				c0.6025-0.0391,0.978-0.5923,1.4096-0.6705c0.4304-0.0781,0.6021,0.2726,0.0424,0.6233c-0.5596,0.3502-0.7322,0.2334,0,0.3893
				c0.7322,0.1557,0.9472,0.5059,1.3788,0.1557c0.43-0.3508-0.0864-0.4674-0.1293-0.9345
				c-0.0437-0.4674,0.3085-1.3975-0.1647-1.7092c-0.4736-0.3111-0.6968-0.6272-0.6968-0.9387c0-0.3117,0.0861-0.9736-0.388-0.6621
				c-0.474,0.3113-0.8615,0.5061-1.0332,0.3504c-0.1726-0.1559,0.0861-0.4674-0.3018-0.7006
				c-0.3875-0.2339-0.4308-0.5841-0.9044-0.5456c-0.4736,0.0391-0.9476-0.3111-1.2058,0.195
				c-0.2586,0.5059-0.5168,0.9345-0.6033,1.0902c-0.0861,0.1558,0.3022,0.7009-0.0429,0.9735
				c-0.3447,0.2726-1.2919,0.6619-1.4212,0.9345c-0.1289,0.2724-0.6457,0.9734-0.775,0.506
				c-0.1293-0.467,0.4304-1.1679-0.3447-1.3628c-0.7754-0.1948-1.3783-0.0385-1.5077-0.467
				c-0.1293-0.4283-0.4736-0.8176,0.3015-1.1684c0.7758-0.3506,1.5509-0.9734,2.2828-1.0512
				c0.7322-0.0778,0.2154,0.4674,0.8187,0.4284c0.6025-0.0391-0.0865-0.3117,0.6457-0.4284
				c0.7326-0.1167,0.6034-0.1167,0.3875-0.3508c-0.2154-0.2335-0.0865-0.272,0.474-0.5059c0.5597-0.2335,0.1293-0.3894,0.689-0.5839
				c0.5601-0.1948,0.6891-0.3892,0.9909-0.3892c0.3011,0,0.2582,0.1168,0.0861,0.467c-0.1726,0.3502-0.3019,0.5837,0.215,0.3502
				c0.5168-0.2335,0.775-0.3889,0.3875-0.0385c-0.3875,0.3502-0.6458,0.3502-1.2058,0.4283
				c-0.5596,0.0776-0.3871,0.1557-0.1289,0.428c0.2586,0.2726,0.9044,0.3115,1.1202,0.4674c0.2145,0.1558,0.4732,0.7009,0.99,0.428
				c0.5164-0.2722,0.1289-0.3113,0.8183-0.5839c0.689-0.2726,1.6802-0.4284,1.5933-0.7786
				c-0.0856-0.3507-0.775-0.5451-0.8615-0.9735c-0.0853-0.4284,0.9484-0.6618-0.3875-0.8563
				c-1.3347-0.1949-0.5596-0.3508-1.2054-0.3508c-0.6462,0-1.852,0-2.2828,0.1945c-0.4304,0.195-0.689-0.1163-0.9048,0.195
				c-0.2154,0.3115,0.0428,0.74-0.1717,0.74c-0.2158,0-0.6034,0.3115-0.7755,0c-0.1726-0.3117-0.5601-0.6228-0.0432-0.74
				c0.5164-0.1169,0.6029-0.0387,0.6894-0.3895c0.0857-0.3502-0.7322-0.3111-0.2582-0.3893
				c0.4732-0.0776,0.6886,0.0391,1.3347,0.0391c0.6458,0,2.1102,0.233,2.3256-0.1167c0.2154-0.3507-0.3443-0.3507-0.9904-0.3898
				c-0.6461-0.0385-1.7655-0.2335-2.2395-0.0385c-0.474,0.1943-1.0769,0.5059-1.2919,0.8176c-0.2158,0.3111-0.2158-0.0781-0.6461,0
				c-0.4308,0.0776-1.1626,0.5061-0.7751,0.7395c0.3875,0.2335,0.3875,0.5061-0.0436,0.5061c-0.4304,0-0.5597,0.3898-0.8607,0.3898
				c-0.3022,0-1.1201-0.0391-0.7326-0.2339c0.3875-0.1945,0.8183-0.1945,0.7751-0.6621c-0.0425-0.4674,0.4304-0.6228,0.4304-0.7791
				c0-0.1552-1.0329,0.3508-1.8512,0.1172c-0.8187-0.2335-1.1629-0.5841-1.9812-0.545c-0.8183,0.0391-1.8952,1.0124-1.3784,1.0902
				c0.5172,0.0776,0.9048-0.0778,0.9908,0.1558c0.0857,0.2335-0.0861,0.4285,0.215,0.5452c0.3018,0.1167,0.8616,0.428,0.1293,0.2726
				c-0.7326-0.1559-0.3875-0.4285-1.5077-0.4674c-1.1194-0.0387-1.8087-0.3504-2.9713-0.0778
				c-1.163,0.2726-0.9909,0.5061-1.7663,0.2726c-0.775-0.2335-2.6484-1.1124-3.9403-0.8788
				c-1.2919,0.2335-2.6485,0.9566-3.0364,1.1905c-0.3879,0.2336-0.5992-0.3587-1.289-0.3199
				c-0.689,0.0391-2.3434-0.1903-1.9987,0.1995c0.3443,0.3892,0.7754,0.4283,0.2586,0.5059
				c-0.5168,0.0778-1.2066,0.1172-1.4644,0.4674c-0.259,0.3504-1.2062,0.5449-0.6033,0.7011
				c0.6033,0.1552,1.5934,0.506,1.1634,0.545c-0.4316,0.0387-2.6278,0.8178-3.575,1.0121c-0.948,0.195-0.9002,2.4054-0.0815,2.1328
				c1.039-0.346,3.0099-2.4053,3.5272-2.6003c0.5169-0.1944,0.7314-0.0385,0.6886,0.2341
				c-0.0428,0.2726,0.6033-0.1172,1.1201-0.4674c0.5168-0.3503,0.6564-1.1792,1.0868-0.9453
				c0.4312,0.2332,0.5503,0.1279,0.8945,0.0497c0.3443-0.078,2.0413,0.4683,2.3428,0.6237c0.301,0.1563,0.7291,0.5866,0.9444,0.7425
				c0.2155,0.1558,0.3015,0.5062,0.0865,0.5452c-0.2158,0.0389-0.2587,0.2333-0.2158,0.545
				c0.0436,0.3117,0.2158,0.5843-0.2154,0.6619c-0.4307,0.0778-0.3443,0.5452-0.0856,0.5062
				c0.2582-0.0387,0.4303-0.1554,0.4736-0.3893c0.0432-0.2335,0.6024-0.6619,0.5168-0.3504
				c-0.0861,0.3113-0.3019,0.6228-0.3019,0.8569c0,0.2336-0.301,0.1944-0.3439,0.4284c-0.0436,0.2335,0.0428,0.2335,0.2578,0.428
				c0.2154,0.1948,0.0861,0.3115,0.0433,0.74c-0.0433,0.4284-1.3352,1.5964-1.5073,1.9856
				c-0.1721,0.3892-0.0861,0.9344-0.0861,1.3628c0,0.4284-0.1726,0.9736,0.3015,1.1293c0.4736,0.1558,0.5168,0.2336,0.5168,0.6228
				c0,0.3893,0,0.8569,0.2583,1.1293c0.2586,0.2726,0.1292,0.2336,0.1292,0.6621c0,0.4284,0.3011,0.1948,0.3443,0.545
				c0.0433,0.3502-0.2149,0.5061,0.2154,0.7787c0.4308,0.2724,0.9044,0.4674,0.6898,0.0391
				c-0.2158-0.4285-0.3451-0.7791-0.5605-1.4019c-0.2154-0.623-0.3447-1.7523-0.0861-1.4015
				c0.2583,0.3503,0.6033,1.4015,0.9904,2.1416c0.3875,0.7395,0.8615,0.6619,0.8615,1.2069c0,0.5452-0.474,1.0514,0.474,1.4016
				c0.9472,0.3507,1.6362,1.0902,2.1963,1.0126c0.5596-0.0781,0.9043-0.3895,1.1201-0.0391
				c0.215,0.3506,0.6886,0.8176,1.2054,0.8176c0.5168,0,0.6894,0.3117,0.775,0.7791c0.0865,0.467,0.4308,0.5447,0.9476,0.7009
				c0.5176,0.1554,0.6465,0.6618,1.0341,0.6225c0.3871-0.0387,0.9044-0.1945,0.9044,0.1561c0,0.3504,0.1721,1.2071-0.4741,1.7523
				c-0.6457,0.5452-0.9468,0.9345-0.6025,1.2847c0.3443,0.3502,0.0433,0.701-0.1297,0.9736
				c-0.1721,0.2726,0.1297,0.5062,0.474,0.9345c0.3447,0.4284,0.8183,0.9343,1.1201,1.7912
				c0.301,0.8567,0.7318,1.1684,1.4636,1.4406c0.7326,0.2726,1.2919,0.74,1.2919,1.4017c0,0.6624-0.0425,2.9203-0.0425,3.582
				c0,0.662,0.3876,1.3243,0.2583,1.8304c-0.1293,0.5061,0,0.9345,0.1721,1.1289c0.1726,0.1948,0.1293,0.6234,0.1726,1.0517
				c0.0428,0.4283,0.5596,0.1166,0.5596,0.5059c0,0.3895-0.2146,0.9736,0.0432,1.168c0.2583,0.1948-0.3014,0.8954,0.8612,1.5578
				c1.163,0.6617,1.249,0.7008,1.3355,0.8176c0.0857,0.1167,0.4732-0.2341,0.4732-0.0395c0,0.1952-0.6457,1.3403,0.5605,1.3403
				c1.2058,0,1.938-0.4051,1.2058-0.9119c-0.7322-0.5058-1.163-0.2722-1.2923-0.7782c-0.1289-0.5062-0.301-0.4284-0.3875-0.7791
				c-0.0865-0.3504,0.3018-0.5061,0.1725-0.8563c-0.1293-0.3508-0.75-0.3869-0.7064-0.7371
				c0.0428-0.3504,0.4473-0.6648,0.5338-0.8207c0.0865-0.1557,0.0865-0.3117-0.1293-0.4669
				c-0.2154-0.1563-0.1717-0.195,0.1293-0.2732c0.3018-0.0776,0.345,0.0391,0.474-0.3502c0.1289-0.3889,0.5168-0.3502,0.689-0.4674
				c0.1722-0.1163,0.775-0.2723,0.5601-0.7782c-0.2154-0.5061-0.789-0.7987-0.3154-0.7987c0.474,0,1.0904,0.0196,1.3919-0.5257
				c0.3011-0.5447,0.1721-0.6618,0.5168-1.0898c0.3443-0.4284,0.1883-0.7996,0.1883-1.111c0-0.3121,0.0271-0.6027,0.5003-0.7975
				c0.474-0.1944,2.0249-0.4283,2.2403-1.012c0.215-0.5838,0.4304-1.2071,0.3443-1.8303c-0.0861-0.623-0.1293-1.0123,0.3451-1.5182
				c0.4732-0.5061,1.0765-0.9345,1.0765-1.4019C124.8554,51.7008,125.0703,51.0383,124.2949,50.8441z"/>
		</g>
		<g>
			<path class="st215" d="M132.3512,24.4899c0.4736-0.4669,0.3443-0.701,0.9904-0.9345c0.6461-0.2339,0.4736-0.5451,0.3875-1.0126
				c-0.0861-0.4674,0.2629-0.2784,0.5215-0.4344c0.2582-0.1558,0.3829-0.2664,0.9858-0.3051
				c0.6033-0.0391,0.0436-0.2336,0.0436-0.4674c0-0.2336-0.4308-0.1944-1.0341-0.1167c-0.6029,0.078-0.5168,0-0.9476-0.1559
				c-0.4303-0.1558-2.9717-0.1558-3.6174-0.1558c-0.6462,0-1.8092,0.1167-2.412,0.1558c-0.6034,0.0391-0.5601,0-1.7227-0.1167
				c-1.1634-0.1169-4.2208-0.0391-5.3405,0.0776c-1.1198,0.1172-1.7591-0.1768-2.4913,0.2518
				c-0.7322,0.4278-1.0715,0.2399-1.8893,0.318c-0.8183,0.0776-1.3847-0.1139-1.7722-0.1139c-0.3876,0-0.3447-0.1944-1.0337,0.0391
				c-0.689,0.2335-0.474,0.3893-0.7322,0.0781c-0.2586-0.3117-0.6033,0-1.8087,0.2726c-1.2063,0.2721,0.5966,1.2186,0.9841,1.3353
				c0,0,0.8187-0.0391,1.2924-0.1558c0.4736-0.1172,0.6894,0.1558,0.9904,0.0776c0.3015-0.0776,0.3875-0.3507,2.111-0.7009
				c1.7222-0.3507,2.9281-0.0776,3.6175,0.195c0.6885,0.272,0.6885,0.1166,1.2918-0.2341c0.6034-0.3502,1.6366-0.6228,2.7131-0.7785
				c1.0773-0.1559,0.3883,0.1948-0.3011,0.4283c-0.6894,0.2336-1.2919,0.1558-1.1626,0.5451
				c0.1289,0.3894,1.4636,0.2726,1.852,0.2726c0.3867,0,0.4308,0.5447,0.4732,0.8563c0.0429,0.3122-0.0424,0.4674,0.0429,0.7791
				c0.0864,0.3111,0.3022,0.2726-0.0853,0.5843c-0.3879,0.3115-0.6033,0.2721-0.6033,0.8176c0,0.5448,0.2582,1.129,0.8615,1.5182
				c0.6025,0.3893,0.9472,0.4286,1.2919-0.1944c0.3443-0.6228,1.1626-1.0127,1.5937-1.2075c0.4304-0.1944,1.0329,0,1.5933-0.467
				c0.5596-0.4669,1.2919-0.2724,2.1102-0.5059C131.9636,24.801,131.8772,24.9573,132.3512,24.4899z"/>
		</g>
		<g>
			<path class="st215" d="M133.1108,26.7011c-1.2923,0.1554-2.4981-0.2339-2.2823,0.3889c0.215,0.6233,0.3111,1.8061,0.9997,1.6111
				c1.1834-0.3344,2.2477-0.7468,1.9454-1.2533C133.4725,26.9417,134.4031,26.5449,133.1108,26.7011z"/>
		</g>
		<g>
			<path class="st215" d="M141.4364,23.7104c0.0461,0.0118,0.0922,0.0158,0.1313,0.0293c0.4304,0.1559,0.7322-0.0776,0.7755-0.3892
				c0.4736-0.6228,0.301,0.5061,0.8183,0.3117c0.5165-0.1945,1.2487-0.6619,1.852-0.9345c0.6029-0.2726-0.7322-0.1558-1.8087-0.3117
				c-1.0773-0.1554-2.5842,0.1172-3.0154,0.3894C139.7884,23.0593,140.8074,23.5496,141.4364,23.7104z"/>
		</g>
		<g>
			<path class="st215" d="M147.8071,22.098c0,0-0.2154,0.2726,0.3015,0.2726c0.5168,0,1.5934-0.3117,2.4549-0.3117
				c0.8615,0,0.6033-0.2724,0.4303-0.2724c-0.1721,0-0.6461-0.428-1.3347-0.3893c-0.6894,0.0389-0.6461,0.3111-1.0769,0.3111
				c-0.4307,0-0.3443-0.1168-1.2486-0.0778C146.4291,21.6697,147.3336,22.02,147.8071,22.098z"/>
		</g>
		<g>
			<path class="st215" d="M188.3299,24.3266c-0.0867-0.4669-0.0328-1.3017-1.4868-1.2279
				c-2.5815,0.1308-3.2347-0.0684-3.7086-0.0684c-0.4739,0-0.2315-0.3002,0.1125-0.3002c0.3454,0,0.3345-0.3426-0.0096-0.4995
				c-0.3454-0.1549-0.8255-0.0365-0.954,0.3134c-0.1299,0.3507,0.4908,0.4591-0.5009,0.4591c-0.9908,0-2.3345,1.3098-3.4976,1.1151
				c-1.1622-0.1947-1.516-0.8965-2.5068-0.9352c-0.9905-0.0387-1.8191,0.8625-2.8525,0.8625c-1.0345,0-0.6894-0.3507-1.1204-0.7789
				c-0.431-0.4284-0.6454-0.3112-1.9384-0.3112c-1.2918,0-0.6027,0.4672-0.3443,0.5446c0.2584,0.0774,0.9467,0.2722,1.4218,0.6627
				c0.4739,0.3884-0.862,0.2335-1.4218,0.2722c-0.5595,0.0387-0.5166-0.2722-1.1619-0.6229
				c-0.6476-0.3508-2.2397-0.156-3.1457-0.1947c-0.9038-0.0398-0.9467,0-1.2907-0.5845c-0.3454-0.5842-1.0775-0.2722-2.0242-0.2722
				c-0.9479,0-1.4644-0.4282-1.9383-0.7015c-0.4739-0.2722-1.2063-0.312-2.2408-0.4669c-1.0334-0.156-0.4728,0.5842-0.0847,0.6229
				c0,0,0.4299,0.1552,0.8612,0.1939c0.431,0.0396,1.3356,0.0783,1.8084,0.585c0.4739,0.5059-1.4644,0.312-2.3253,0.7402
				c-0.862,0.4284-1.5503,0.2337-2.1527,0.4661c-0.6039,0.2346,0.3011,0.624,0.5154,1.1297c0.2155,0.5067,0,0.5067-0.3881,0.6229
				c-0.3869,0.1173,0.1297-0.5444-0.043-0.7391c-0.1714-0.1947-0.8179-1.2071-1.3347-1.5191
				c-0.5166-0.3112-0.431,0.2733-0.344,0.7015c0.0859,0.4282,0.2155,0.4282,0.344,0.7391c0.1299,0.312-0.5595,0-0.9049-0.2335
				c-0.344-0.2334-1.4644,0.312-1.9801,0.0775c-0.5177-0.2335,0.1717-0.1549,0.1717-0.3895c0-0.2323-0.6027-0.0387-0.7753-0.3895
				c-0.1715-0.3496,1.0774-0.7778,1.8527-0.8943c0.775-0.1181,0.688-0.1181,0.688-0.468c0-0.3508-1.3774-0.2335-2.5407,0.2724
				c-1.1633,0.5068-0.8609,0.8575-1.0334,1.2071c-0.1715,0.3507,0.3869,0.3895,0.6454,0.5842
				c0.2595,0.1947-0.3014,0.2722-0.8168,0.4282c-0.5179,0.156-0.6465,0-1.2503,0.1947c-0.6024,0.1947-0.2573,0.4282-0.775,0.6229
				c-0.5168,0.1939-0.4728,0.1939-0.9038,0.3507c-0.4299,0.1552,0.0867-0.5842,0.6894-0.6616
				c0.6024-0.0786,0.4299-0.3895,0.2573-0.5067c-0.1717-0.1162-1.2918-0.4282-2.497-0.7402
				c-1.2063-0.3109-3.1446,0.1173-3.7911,0.3895c-0.6454,0.2733-0.6035,0.468-0.6883,0.8575
				c-0.0867,0.3886-1.5514,0.9737-2.2824,1.3236c-0.7323,0.3507-0.0881,0.8176,0.1285,1.1297c0.2155,0.3109,0.6883,0.1549,1.2918,0
				c0.6036-0.1572,0.5168,0.5056,0.6036,0.7391c0.0858,0.2334,0.4301,0.2733,0.9908,0.0387c0.5595-0.2335,0.431-0.7778,0.431-1.0898
				c0-0.3109-0.1297-0.4669,0.2573-0.8962c0.3881-0.4282,0.7323-0.7004,1.0763-0.8942c0.344-0.1956,0.3025,0.154-0.2155,0.5446
				c-0.5157,0.3895-0.1715,0.5065,0.087,0.9725c0.2581,0.468,0.775,0,1.4215-0.0774s-0.5606,0.5056-1.0345,0.5056
				c-0.4739,0,0,0.4681-0.3014,0.4681c-0.3011,0-0.344,0.1947-0.3869,0.6616c-0.0441,0.468-0.2155,0.3507-0.5598,0.468
				c-0.344,0.1165-0.862,0.1552-1.4226,0.0387c-0.5595-0.117-0.5157-0.5851-0.9038-0.8962
				c-0.3881-0.3109-0.4739,0.156-0.4739,0.3507c0,0.1947-0.3869,0.6232-0.5584,0.6232c-0.1737,0-0.6894,0.4669-0.9919,0.8563
				c-0.3011,0.3895-0.5155,0.156-0.6024,0c-0.087-0.156,0.2144-0.3894,0.043-0.7789c-0.1726-0.3886-0.862-0.7007-0.6465-1.5958
				c0.2155-0.8962-0.2584-0.4282-0.9467-0.3507c-0.6905,0.0774-0.9049,0.3507-0.9478,0.5842
				c-0.0429,0.2335-0.431,0.7004-0.862,1.1297c-0.431,0.4274-0.1285,0.7781,0.087,1.245c0.2144,0.468,0.775-0.1549,0.9476-0.5443
				c0.1717-0.3895,0.3872-0.5845,0.6457-0.3895c0.2581,0.1947-0.3873,0.5443-0.474,1.0123
				c-0.087,0.4669,0.1714,0.4282,0.7762,0.2722c0.6024-0.1549,0.3013-0.2722,0.7741-0.0774
				c0.4739,0.1947-0.4299,0.3507-0.9908,0.3895c-0.5595,0.0376-0.344,0.3895,0.1299,0.7004
				c0.4736,0.312,0.2582,0.7789-0.0441,0.8176c-0.3002,0.039-0.8609,0.1165-1.7217,0.2724c-0.862,0.156-0.087,0.7789-0.2584,1.1286
				c-0.1726,0.3507-0.2155,1.1297,0.1715,1.1684c0.3881,0.0398,0.3881,0.6232,0.1725,0.8179
				c-0.2155,0.1956-0.2584,0.3895-0.775,0.7402c-0.5168,0.3507-0.1299,0.6616-0.3014,1.1286
				c-0.1726,0.468-0.6036,0.1958-1.1204,0.7015c-0.5154,0.5067-0.7321,0.8962-1.1193,1.4795
				c-0.3881,0.5842-0.431,0.6229,0.0441,1.3244c0.4728,0.7004,0,0.8951-0.3881,1.518c-0.388,0.6232,0.1285,0.6619,0.3011,1.2074
				c0.1717,0.5443,0.5169,0.4282,0.6468,0.9737c0.1285,0.5444,0.2999,0.7004,0.9035,1.0898
				c0.6039,0.3895,1.2063,0.9341,1.5077,0.8179c0.3011-0.1164,0.775-0.4285,1.7658-0.3897c0.9904,0.039,0.6464-0.3895,1.6799-0.5452
				c1.0334-0.156,0.156,0.2225,0.2848,0.4947c0.1296,0.2721,1.007,0.4402,1.7823,0.479c0.775,0.0387,0.1285,0.8962,0.0856,1.4405
				c-0.0429,0.5455,0,0.5455,0.388,1.0124c0.3883,0.4672,0.9049,1.5183,1.0337,2.0637c0.1285,0.5455-0.1288,1.1675-0.4739,1.6743
				c-0.3443,0.5056-0.2155,1.674,0.5168,2.5315c0.7321,0.8555,0.3011,0.8168,0.3011,1.713c0,0.8951,0.5169,0.7391,0.9049,1.2447
				c0.388,0.5079,0.2155,1.4409,0.5598,1.9484c0.344,0.5048,0.9476,0.0379,1.637-0.1956c0.6883-0.2335,0.9907-0.1552,1.8087-0.7015
				c0.8179-0.5435,1.4644-1.6344,1.4644-1.9465c0-0.3109,0.2584-0.4282,0.6894-0.583c0.4299-0.156,0.3443-1.1687,0.3014-1.4409
				c-0.043-0.2733,0.0867-0.5067,0.2584-0.6628c0.1726-0.1549,1.2489-1.0898,1.637-1.4793c0.387-0.3886,0.0418-0.9349-0.0429-1.557
				c-0.0867-0.6229-0.3451-0.8563-0.3451-1.5965s-0.2584-0.6628,1.1633-1.869c1.4203-1.2071,2.7562-3.1149,2.8851-3.543
				c0.1296-0.4293,0.0867-0.7789,0-1.091c-0.0859-0.3109-1.9386,0.312-2.3696,0.312c-0.4299,0-1.5303-0.8297-1.6162-1.1406
				c-0.0867-0.312-0.408-0.651-0.9675-1.1179c-0.5595-0.4669-0.1285-1.1297-0.5595-1.6353
				c-0.4301-0.5059-0.6467-1.2461-0.7323-1.6743c-0.0859-0.4282,0.6465,0.3109,1.2048,0.8942
				c0.5609,0.5853,1.2941,1.6751,1.5088,2.0646c0.2155,0.3895,0.3869,0.9737,0.431,1.4409c0.0426,0.4669,0.387,0.5455,0.9047,0.5068
				c0.5168-0.0398,2.3255-0.8962,2.9709-1.1695c0.6465-0.2713,1.4215-1.089,1.7228-1.8679
				c0.3014-0.7789-0.6454-0.6628-1.0763-1.0522c-0.431-0.3886-0.431,0-0.9479,0.1173c-0.5166,0.1173-0.9478-0.5059-1.7658-1.2074
				c-0.8191-0.7004-0.3011-0.4669-0.1285-0.6229c0.1714-0.1549,0.9905,0.3507,1.4644,0.8575
				c0.4739,0.5056,0.5587,0.3109,1.1193,0.3109c0.5598,0,0.6894,0.2337,1.4218,0.4284c0.7321,0.1936,1.119-0.0777,1.7447-0.0171
				c0.6268,0.0598,0.5376,0.3289,0.9675,0.9509c0.431,0.6229,0.2596,0.4293,1.2063,0.5068c0.9476,0.0786,0.2585,0,0.2585,0.5443
				c0,0.5455,0.0856,0.7402,0.6476,1.4021c0.5584,0.6628,0.7739,1.9086,0.9453,2.5315c0.1729,0.623,0.518,0,1.0766,0
				c0.5606,0-0.1605,0.5924,0.4748,1.0511c0.7323,0.5286,0.6916-0.2284,0.6916-0.4607c0-0.2346-0.2177-0.7851-0.4761-0.9798
				c-0.2582-0.1936-0.6035-0.156-0.3022-0.4669c0.3022-0.312-0.3507-0.5126-0.3507-0.9408c0-0.4285,0.1703-1.0065,0.3858-1.2012
				c0.2155-0.195,1.2579-0.7394,1.7307-1.2461c0.4739-0.5056,0.862-0.583,1.5085-0.5455c0.6454,0.0398,0.1285,0.1173,0.5166,0.5842
				c0.3872,0.468,0.4739,1.1297,0.9038,1.5969c0.431,0.4669,0.4739-0.0777,0.8182-0.2337c0.344-0.1557,0.1296,0.4672,0.3881,0.9341
				c0.2584,0.4669,0.0858,1.0909,0.0858,1.5191c0,0.4282,0.5607,0.8563,0.9047,1.2458c0.3443,0.3895,0.2155,0.5845,0,0.7394
				c-0.2155,0.156-0.6465-0.3886-0.9905-0.7004c-0.3443-0.3112-0.8609-0.1165-0.5169,0.2343
				c0.3443,0.3499,0.5598,0.9728,0.9467,1.6345c0.3881,0.6616,1.2071,1.4408,1.7669,2.1412
				c0.5595,0.7015,2.3682,1.0124,3.0576,1.0124c0.6883,0,2.0671,0.5466,2.7574,0.624c0.6883,0.0774,1.2051,0,1.6779-0.2335
				c0.4751-0.2346,0.2596-0.5067,0.2166-0.624c-0.0429-0.1162-0.388,0.1173-0.8619,0.1959
				c-0.474,0.0774-0.6025,0.0774-1.2063,0.1161c-0.6013,0.0387-0.2155-0.1947-0.8608-0.2334
				c-0.6454-0.0398-1.2919-0.156-2.0242-0.3895c-0.7321-0.2334-1.1201-0.4282-1.6358-0.5842
				c-0.518-0.156-0.0441-0.4282-0.087-1.0901c-0.043-0.6616-0.5166-0.3895-0.9049-0.6237
				c-0.3869-0.2326-0.2573-0.7394-0.0856-0.5833c0.1726,0.156,0.2155,0.3507,0.2155-0.468c0-0.8168-0.8182-1.3623-1.3348-2.0638
				c-0.518-0.7004-0.4321-1.0898-0.3881-1.4406c0.0426-0.3496,0.9476,0.312,1.4215,0.8187
				c0.4728,0.5056,0.4728,0.5056,0.7323,0.3895c0.2584-0.1173,1.0334-0.5068,1.2049-1.1297
				c0.1737-0.6229-1.3774-1.869-1.5929-2.4532c-0.2155-0.5842,0.3011-0.2335,0.5595-0.6229
				c0.2595-0.3895,0.5606,0.156,0.3881,0.4282c-0.1726,0.2733,0.043,0.4282,0.2155,0.7015c0.1717,0.2722,0.1717,0,0.3443-0.3507
				s0.043-0.4669,0.3451-0.7004c0.3014-0.2346,1.4636-0.5455,1.7658-0.8188c0.3014-0.2722,0.5168-0.5842,0.9038-1.557
				c0.3869-0.9737-0.0429-0.9338-0.2155-1.2846c-0.1714-0.3507-0.6883-0.9349-0.9905-1.2857
				c-0.3014-0.3499-0.043-0.2725,0.1725-0.3886c0.2155-0.1173,0.043-0.3895-0.4739-0.5463
				c-0.5169-0.1552-0.4299,0.1568-0.9038,0.0783c-0.475-0.0783-0.2155-0.3895,0.3014-0.9349
				c0.5166-0.5444,0.2581,0.1173,0.6024,0.3507c0.344,0.2346,0.4299-0.1947,0.6894-0.0774c0.2584,0.1162,0.775,0.3507,1.1631,0.8176
				c0.3872,0.4672,0.3838,1.1445,0.7708,1.1058c0.3881-0.0387,0.3914-0.3269,0.564-0.6776
				c0.1717-0.3507-0.3934-0.7012-0.6959-0.9737c-0.3014-0.273-0.6827-0.2335-0.4243-0.4669
				c0.2582-0.2335,0.0427-0.5842,0.1726-0.8564c0.1285-0.2733,0.6035-0.1173,1.0763-0.312c0.474-0.1947,0.5166-0.8564,0.5166-1.557
				c0-0.7015-0.388-1.0124-0.6024-1.2458c-0.2155-0.2346,0.2584-0.1173,0.6465,0.1549c0.3872,0.2733,0.9908,1.7526,1.1193,2.3368
				c0.1299,0.5844,0.043,0.5844,0.5598,1.0901c0.5166,0.5068,0.3451,0.4282,0.1726,1.0124
				c-0.1726,0.5842-0.6024,0.7402-1.2489,0.8954c-0.6468,0.156-0.4301,0.273-0.8182,0.8572
				c-0.3881,0.5845,0.2155,0.6232,0.5598,0.7792c0.344,0.1549,0.3869-0.4888,0.8179-0.7612
				c0.4299-0.2733,1.0334-0.4074,1.7658-0.4074c0.7323,0-0.2144-0.8962-0.2573-1.3631c-0.0441-0.4669-0.0867-0.7778-0.2595-1.1285
				c-0.1714-0.3507,0.1728-0.3507,0.6894-0.5842c0.5168-0.2346,0.475-0.7015,0.1726-0.7015c-0.3022,0-0.5595,0.1947-1.2489,0.156
				c-0.6894-0.039-0.5168-0.5446-0.6894-0.7405c-0.1726-0.1936-0.3881-0.6218-0.431-0.9725
				c-0.0429-0.3507-0.6465-0.8177-1.0763-1.1684c-0.431-0.3507-0.6894-0.5833-0.6894-0.4282c0,0.156-0.2584-0.039-0.862-0.0777
				c-0.6024-0.0387-0.7312,0.0777-1.2478,0.0387c-0.5169-0.0387,0.0429-0.8177,0.2573-1.3631
				c0.2166-0.5443,0.819-0.2334,1.293-0.2334c0.4739,0,2.139-1.8598,2.8272-1.704c0.6894,0.156,0.3881-0.3895,0.5179-0.8176
				c0.1285-0.4282,0.4299-0.1947,0.818-0.0387c0.3869,0.1552,0.5168,0.1947,0.5168-0.156s0.344-0.4282,0.6453-0.1173
				c0.1512,0.156,0.1226,0.4116,0.0564,0.6282c-0.1251,0.4083-0.1655,0.8382-0.0999,1.2599
				c0.0634,0.4072,0.1835,0.828,0.4111,0.9397c0.4736,0.2343,0.282,1.5293,0.8418,1.88c0.5584,0.3507,0.3928-0.5876,0.3928-1.2492
				c0-0.6628-0.2662-1.7834-0.6535-2.4063c-0.388-0.6237-0.1296-0.3507,0.6016-0.3507c0.7324,0,0.7762-0.2335,0.9487-0.4282
				c0.1717-0.1956,0.3014-0.2335,0.9467-0.2335s0.2595-0.2346-0.0429-0.5455c-0.3011-0.3109-0.9038-0.2335-0.6891-0.4293
				c0.2155-0.1936,1.3774,0.1184,1.9392,0.312C188.5443,24.9495,188.4158,24.7946,188.3299,24.3266z M148.1597,37.2838
				c-0.2582,0.468-0.3869,0.7789-0.7739,0.6627c-0.3881-0.1173-1.6799-0.0786-2.3264-0.2733
				c-0.6465-0.1947-1.5932-0.5447-1.7658-0.1162c-0.1717,0.427,0.431,0.7778-0.6465,0.427
				c-1.0766-0.3496-2.2386-0.7778-2.3685-1.0898c-0.1285-0.3112,0.431-1.1675-0.344-1.1675c-0.7753,0-1.8527-0.0398-2.1967,0.1939
				c-0.3454,0.2343-1.6802,0.6625-2.1112,0.5455c-0.3914-0.1055-0.9894-0.2337-0.3011-0.5059
				c0.6894-0.2733,1.5085-0.1173,1.5943-0.5068c0.0856-0.3895-0.6039-0.4669,0.0856-0.8165
				c0.6882-0.3507,0.4298-0.6628,0.9049-0.8575c0.4739-0.1939,1.1193-0.156,1.4633-0.2722
				c0.3443-0.1173-0.1285-0.2337,0.5609,0.1162c0.6883,0.3507,1.1193,1.0135,1.4633,1.0522
				c0.3454,0.0376,0.5609,0.2722,0.3454,0.4271c-0.2155,0.156-0.5609,0.2733-0.6894,0.2733c-0.1288,0-0.2155,0.3109-0.0859,0.3507
				c0.1288,0.0387,0.4299,0.5446,0.6454,0.3895c0.2155-0.156-0.0769-0.4102,0.3101-0.5267c0.3872-0.117,0.8533-0.2523,0.6807-0.4868
				c-0.1717-0.2335-0.3443-0.5056,0-0.3496c0.344,0.156,0.7497,0.1291,0.3617-0.2217c-0.387-0.3496-0.6201-0.4012-1.0941-0.7133
				c-0.4739-0.3109-0.9896-0.4669-0.9896-0.7006c0-0.2334-0.3022-0.6616,0.1717-0.5056c0.4739,0.1552,2.1109,0.9737,2.1109,1.2848
				c0,0.3109,0.431,0.8564,0.0418,1.1286c-0.387,0.2733,0.3892,0.3507,0.5595,0.5059c0.1729,0.1557,0.0881,0.585,0.5609,0.5065
				c0.4739-0.0774,0.8191-0.0387,0.5595-0.4677c-0.2573-0.4284-0.6883-0.6221-0.2573-0.7781
				c0.4302-0.1549,0.5169-0.3507,0.6457,0.3109c0.1296,0.6627-0.0441,0.8962,0.9905,0.9349
				c1.0334,0.0387,1.7228-0.2335,1.8516,0.0387C148.2467,36.3497,148.4193,36.8168,148.1597,37.2838z M149.8399,34.3636
				c-0.6883-0.0387-1.7091,0.0017-2.2697,0.0017c-0.5598,0-1.1224,0.135-1.1224,0.135c-0.4728-0.0775-1.3884-0.0979-0.8288-0.7607
				c0.5606-0.6608,0.2155-1.5171,0.906-1.2837c0.6883,0.2326,0.7178,1.0632,1.1487,0.5166
				c0.4302-0.5444,0.9173-1.1008,1.0469-0.6726c0.1297,0.4282-0.6035,0.7789,0.3014,1.1288
				C149.9255,33.7794,150.5294,34.4023,149.8399,34.3636z M154.0805,36.0169c-0.6453,0-1.516-0.33-1.516-0.6409
				c0-0.312-0.0705-0.7085-0.0705-0.7085c-0.2188-0.8752-0.8883-0.9607-0.8883-1.4664c0-0.5056,0.5199-0.9012,1.2094-0.9012
				c0.6883,0,1.5584,0.0087,1.0404,0.5541c-0.5154,0.5444-1.5132,0.4972-0.8249,1.3536
				C153.72,35.064,154.727,36.0169,154.0805,36.0169z"/>
		</g>
		<g>
			<path class="st215" d="M177.5816,41.4704c0.339,0.0873,0.4357-1.1815-0.1933-1.0064
				C176.7589,40.6392,177.1843,41.3678,177.5816,41.4704z"/>
		</g>
		<g>
			<path class="st215" d="M178.3607,45.2714c0.29,0.1751,0.339,0.4816,0.29,0.9627c-0.0481,0.4814-0.5319,0.438,0.2909,0.7439
				c0.8223,0.3063,1.7908,0.8312,1.5484-0.1312c-0.2419-0.9625-0.0485-1.0937-0.9195-1.8378
				c-0.8709-0.7435-0.9194-0.2625-1.0161-0.8747c-0.0971-0.6127-0.3394-1.7505-0.6779-1.3127
				c-0.2986,0.3861-0.532,0.5249-0.1934,1.1815C178.0217,44.6591,178.0703,45.0963,178.3607,45.2714z"/>
		</g>
		<g>
			<path class="st215" d="M176.5218,46.8028c-0.2929,0.3406-0.8717,1.0937-1.2585,1.3562c-0.3871,0.263-1.0651-0.0868-1.0161,0.5253
				c0.0486,0.6123,0.0963,0.8753,0.1448,1.3129c0.0486,0.4372,0.1452,0.7,0.8713,0.7s1.0647,0.2186,1.3066,0.1314
				c0.2419-0.0879,0.1938-0.4816,0.4838-1.0065c0.2909-0.5255,0.7747-0.3937,0.5809-0.7874
				c-0.1938-0.3943-0.1938-0.3063-0.1938-0.7006c0-0.3937,0.2423-0.1312,0.0971-0.7874
				C177.3927,46.8906,176.8603,46.4095,176.5218,46.8028z"/>
		</g>
		<g>
			<path class="st215" d="M186.7337,50.872c-0.6294-0.6123-1.6941-1.0499-2.1298-1.006c-0.4348,0.0435-0.8228,0.6562-1.0647,0.4372
				c-0.2419-0.2186-0.968-1.2684-1.3551-0.9625c-0.3871,0.3063,0.0481,0.6565-0.4357,0.6565s-0.6294,0.5249-0.7261-0.1751
				c-0.0967-0.7006-0.4838-1.0504-0.5809-0.5255c-0.0963,0.5255-0.1448,0.8757-0.3867,0.4816
				c-0.2423-0.3937-0.3875-0.1312-0.3875-0.5249c0-0.3937-0.9676-0.8318-1.3543-0.3937c-0.2427,0.273-0.3394,0.3058-0.4361,0.9186
				c-0.0967,0.6127-0.339,1.5753,0.1934,1.3127c0.5323-0.2623,0.6294-0.0439,0.8713-0.3502
				c0.2419-0.3063,0.5323-0.4811,0.968-0.3063c0.4357,0.1751,0.2419,0.1751,1.0161,0.0877
				c0.7747-0.0877,1.1613-0.0877,1.6941,0.2186c0.5323,0.3063,1.597,0.1312,1.597,0.4376c0,0.3063-1.1132,0.5255,0,0.8315
				c1.1132,0.3063,1.3551,1.0063,1.6941,0.6565c0.3386-0.3502,0.8228-0.8316,1.1614-0.4814
				c0.3386,0.3502,1.6452,1.3127,1.4037,0.7873c-0.2423-0.5249-0.1938-1.0063,0.5808-1.5747
				c0.7743-0.5688,0.5805-0.8315,0.2415-0.8315c-0.3382,0-0.3382,0.3937-1.1128,0.481
				C187.4108,51.135,187.3631,51.4846,186.7337,50.872z"/>
		</g>
		<g>
			<path class="st215" d="M187.0723,56.5166c-0.4357-1.0066-0.4357-1.794-0.6776-2.2315c-0.2419-0.4377-0.0486-0.9627-0.7743-0.9627
				c-0.2949,0-0.2904,0.1747-0.5323,0.7435c-0.2419,0.5688,0.0481,1.6192-0.5809,1.4879c-0.6294-0.1312-0.9195-0.3937-1.0651-0.9625
				c-0.1448-0.569,0.1938-1.0943-0.2901-1.0943c-0.4842,0-1.8389-0.306-2.1778,0.1751c-0.339,0.4815,0.0966,0.6567-0.629,0.6567
				c-0.7261,0-1.0166,0-1.4036,0.437c-0.3871,0.4376-0.9195,1.663-3.0007,1.7506c-2.0813,0.0877-1.0165,1.0935-1.0165,2.1874
				c0,1.0937-1.1132,1.7504-0.6286,2.1441c0.4834,0.3937-0.1456,0.9189,0.8705,0.6127c1.0165-0.3069,1.936-0.3941,3.5334-0.6127
				c1.597-0.219,2.3227-0.3064,2.3712,0.3937c0.0482,0.7-0.1937,0.219,0.4357,0.3502c0.6294,0.1312-0.0481,1.05,0.6776,1.1378
				c0.7257,0.0872,0.1226,0.7109,0.7516,0.7109c0.6294,0,0.4626,0.463-0.0702,0.463c-0.5323,0-0.5494,1.2404,0.2245,0.8909
				c0.7746-0.3502,1.3687-0.6651,1.3687-1.1897c0-0.5253-0.0959-0.5692,0.8228-1.2255c0.9198-0.6562,3.0492-2.2313,2.904-3.5003
				C188.0403,57.6101,187.5083,57.5229,187.0723,56.5166z"/>
		</g>
	</g>
	<g class="st218">
		<path class="st219" d="M173.4108,137.7096v-3.3237c0,0-5.1761-0.4768-8.5788-6.5156l-15.7384-32.666
			c0,0-0.9233-1.8187-0.8609-2.8958c0,0-0.1261-3.5668,3.183-5.1383c0,0,3.2928-1.0594,5.4624,1.3596
			c0,0,1.6464,1.1742,3.1449,4.5114l3.5352,6.4891l1.6701,2.7016l0.0156-26.6449l0.0936-25.2676c0,0,0.8897-4.2731,3.668-5.1912
			c0,0,3.192-1.1301,5.0026,0.7769c0,0,2.3823,1.5185,2.474,4.6968v16.0328l-0.2342,30.4058c0,0,0.1873-11.1241,0.8897-12.8722
			c0,0,1.873-4.5026,5.666-4.0788c0,0,3.9021-0.1766,5.4942,3.6021c0,0,1.4984,1.7688,0.7492,7.5412l0.0624,5.9137
			c0,0-0.1249-9.8528,0.4058-10.665c0.5307-0.8122,1.2487-3.4962,5.3382-3.6374c0,0,3.59,0.1413,4.9324,3.5668
			c0,0,0.5307,0.1766,0.5307,3.3196l0.1561,6.4979c0,0-0.2185-6.5332,0.2185-7.0629c0,0,2.7798-2.4111,5.2772-2.4111
			c0,0,1.5786,0.0989,3.2019,2.6415c0,0,0.1601,2.2556,0.004,6.2815l-1.4427,18.5139c0,0-3.1607,12.3955-9.9115,19.2085
			l0.3607,4.3098H173.4108z"/>
	</g>
	<g>
		<path class="st214" d="M172.5907,138.8983v-3.3237c0,0-5.1761-0.4768-8.5788-6.5156l-15.7384-32.666
			c0,0-0.9233-1.8187-0.8609-2.8958c0,0-0.1261-3.5668,3.183-5.1383c0,0,3.2928-1.0594,5.4624,1.3596
			c0,0,1.6464,1.1742,3.1449,4.5114l3.5352,6.4891l1.6701,2.7016l0.0156-26.6448l0.0936-25.2676c0,0,0.8897-4.2731,3.668-5.1912
			c0,0,3.192-1.1301,5.0026,0.7769c0,0,2.3823,1.5185,2.474,4.6968v16.0328l-0.2342,30.4058c0,0,0.1873-11.1241,0.8897-12.8722
			c0,0,1.873-4.5026,5.6659-4.0788c0,0,3.9022-0.1766,5.4943,3.6021c0,0,1.4984,1.7688,0.7492,7.5412l0.0624,5.9137
			c0,0-0.1249-9.8528,0.4058-10.665c0.5307-0.8122,1.2487-3.4961,5.3382-3.6374c0,0,3.59,0.1413,4.9324,3.5668
			c0,0,0.5307,0.1766,0.5307,3.3196l0.1561,6.4979c0,0-0.2185-6.5332,0.2185-7.0629c0,0,1.4048-3.3549,3.9022-3.3549
			c0,0,2.872-0.8829,4.4953,1.6598c0,0,1.5921,0.9888,1.436,5.0147l-0.7329,18.9413c0,0-1.1323,16.0073-7.8831,22.8203
			l-0.0468,3.4629H172.5907z"/>
	</g>
	<g>
		<polygon class="st194" points="207.2038,156.4159 207.1902,204.475 166.0781,204.475 166.0838,156.2545 166.1591,156.2545 
			188.1145,156.3411 		"/>
	</g>
	<g>
		<polygon class="st195" points="188.1145,156.3411 188.1009,204.475 166.1455,204.475 166.1591,156.2545 		"/>
	</g>
	<g>
		<path class="st217" d="M205.2992,157.3217l-37.3133-0.0394c-2.4092-0.0025-4.3783-1.9758-4.3758-4.3851l0.0123-11.6696
			c0.0025-2.4092,1.9758-4.3784,4.3851-4.3758l37.3133,0.0394c2.4092,0.0026,4.3784,1.9758,4.3758,4.3851l-0.0123,11.6696
			C209.6817,155.3552,207.7085,157.3243,205.2992,157.3217z"/>
	</g>
	<g>
		<polygon class="st194" points="84.4594,135.9471 46.8249,204.475 0,204.475 48.4159,116.1538 48.483,116.1891 67.7274,126.7585 		
			"/>
	</g>
	<g>
		<polygon class="st195" points="67.7274,126.7585 25.0461,204.475 0,204.475 48.483,116.1891 		"/>
	</g>
	<g>
		<path class="st217" d="M82.2968,135.9303L49.591,117.9688c-2.1117-1.1597-2.8907-3.8364-1.7309-5.9481l5.6174-10.2286
			c1.1597-2.1117,3.8364-2.8907,5.9481-1.7309l32.7058,17.9615c2.1118,1.1598,2.8907,3.8364,1.7309,5.9482l-5.6174,10.2286
			C87.0852,136.3111,84.4085,137.09,82.2968,135.9303z"/>
	</g>
	<g>
		<circle class="st3" cx="204.519" cy="45.9845" r="3.5945"/>
	</g>
</g>
</svg>
