<?xml version="1.0" encoding="utf-8"?>
<!-- Generator: Adobe Illustrator 21.0.2, SVG Export Plug-In . SVG Version: 6.00 Build 0)  -->
<svg version="1.1" id="Capa_1" xmlns="http://www.w3.org/2000/svg" xmlns:xlink="http://www.w3.org/1999/xlink" x="0px" y="0px"
	 viewBox="0 0 334.7847 194.3992" style="enable-background:new 0 0 334.7847 194.3992;" xml:space="preserve">
<style type="text/css">
	.st0{fill-rule:evenodd;clip-rule:evenodd;fill:#DDDDDD;}
	.st1{fill:#3B86B1;}
	.st2{opacity:0.25;fill-rule:evenodd;clip-rule:evenodd;fill:#020202;}
	.st3{fill:#FFFFFF;}
	.st4{opacity:0.5;}
	.st5{fill-rule:evenodd;clip-rule:evenodd;fill:#A8A8A8;}
	.st6{fill-rule:evenodd;clip-rule:evenodd;fill:#FFFFFF;}
	.st7{fill-rule:evenodd;clip-rule:evenodd;fill:#3B86B1;}
	.st8{opacity:0.5;fill:#2C6882;}
	.st9{opacity:0.75;fill-rule:evenodd;clip-rule:evenodd;fill:#282828;}
	.st10{opacity:0.5;fill:#FFFFFF;}
	.st11{fill-rule:evenodd;clip-rule:evenodd;fill:none;stroke:#FFFFFF;stroke-miterlimit:10;}
	.st12{fill:none;stroke:#FFFFFF;stroke-miterlimit:10;}
	.st13{fill:#FFFFFF;stroke:#3B86B1;stroke-width:1.7139;stroke-miterlimit:10;}
	.st14{fill-rule:evenodd;clip-rule:evenodd;}
	.st15{opacity:0.85;fill:#FFFFFF;}
	.st16{opacity:0.5;fill-rule:evenodd;clip-rule:evenodd;}
	.st17{fill-rule:evenodd;clip-rule:evenodd;fill:#FEFEFE;}
	.st18{fill:#312767;}
	.st19{opacity:0.48;}
	.st20{opacity:0.25;}
	.st21{fill-rule:evenodd;clip-rule:evenodd;fill:#020202;}
	.st22{fill:#757575;}
	.st23{opacity:0.25;clip-path:url(#XMLID_3738_);}
	.st24{fill:#FFFFFF;stroke:#312767;stroke-miterlimit:10;}
	.st25{fill:#ACABC9;}
	.st26{fill-rule:evenodd;clip-rule:evenodd;fill:#312767;}
	.st27{opacity:0.77;fill:#312767;}
	.st28{opacity:0.25;clip-path:url(#XMLID_3760_);}
	.st29{fill:#9490B2;stroke:#2D2D2D;stroke-width:0.25;stroke-miterlimit:10;}
	.st30{fill:#312767;stroke:#2D2D2D;stroke-width:0.25;stroke-miterlimit:10;}
	.st31{fill:#FCFCFC;}
	.st32{fill:#FFFFFF;stroke:#2D2D2D;stroke-width:0.25;stroke-miterlimit:10;}
	.st33{fill-rule:evenodd;clip-rule:evenodd;fill:#484849;stroke:#2D2D2D;stroke-width:0.25;stroke-miterlimit:10;}
	.st34{fill-rule:evenodd;clip-rule:evenodd;fill:#312767;stroke:#2D2D2D;stroke-width:0.25;stroke-miterlimit:10;}
	.st35{fill-rule:evenodd;clip-rule:evenodd;fill:#FFFFFF;stroke:#2D2D2D;stroke-width:0.25;stroke-miterlimit:10;}
	.st36{fill:#484849;stroke:#2D2D2D;stroke-width:0.25;stroke-miterlimit:10;}
	.st37{fill:#FFFFFF;stroke:#FFFFFF;stroke-miterlimit:10;}
	.st38{fill:#54518C;}
	.st39{opacity:0.25;fill-rule:evenodd;clip-rule:evenodd;fill:#FFFFFF;}
	.st40{fill:#D4A800;}
	.st41{fill:#00AEB3;}
	.st42{fill:#38353B;}
	.st43{fill:#FF8400;}
	.st44{fill:#BF3900;}
	.st45{fill:#00AA9C;}
	.st46{opacity:0.25;clip-path:url(#XMLID_3761_);}
	.st47{fill:none;stroke:#ACABC9;stroke-width:5;stroke-miterlimit:10;}
	.st48{opacity:0.25;clip-path:url(#XMLID_3762_);}
	.st49{fill:#DDDDDD;}
	.st50{opacity:0.25;clip-path:url(#XMLID_3763_);}
	.st51{fill-rule:evenodd;clip-rule:evenodd;fill:#FFFFFF;stroke:#FFFFFF;stroke-miterlimit:10;}
	.st52{fill:#F79748;}
	.st53{fill:#FF7900;}
	.st54{fill:#DD7105;}
	.st55{fill:#02897C;}
	.st56{fill:#0EAD9A;}
	.st57{fill:#28C6AF;}
	.st58{fill:#4FE0C7;}
	.st59{fill:#D37D00;}
	.st60{fill:#D14600;}
	.st61{fill:#E5B92E;}
	.st62{fill:#DD571B;}
	.st63{fill:#E28A17;}
	.st64{opacity:0.25;clip-path:url(#XMLID_3770_);}
	.st65{fill:#4D4789;}
	.st66{opacity:0.77;fill:#FFFFFF;}
	.st67{fill:#50565B;stroke:#656C70;stroke-miterlimit:10;}
	.st68{fill:#808589;stroke:#656C70;stroke-miterlimit:10;}
	.st69{fill:#252728;stroke:#000000;stroke-miterlimit:10;}
	.st70{fill:#1A1B1C;stroke:#000000;stroke-miterlimit:10;}
	.st71{fill:#A0A6AA;}
	.st72{fill:#262C35;stroke:#161A1E;stroke-miterlimit:10;}
	.st73{fill:#181D23;}
	.st74{fill:#EABA96;stroke:#E0AA86;stroke-miterlimit:10;}
	.st75{fill:#E0AA86;}
	.st76{stroke:#000000;stroke-width:0.75;stroke-linecap:square;stroke-linejoin:bevel;stroke-miterlimit:10;}
	.st77{fill:#0F1C3F;stroke:#182951;stroke-miterlimit:10;}
	.st78{fill:#132354;stroke:#3F6093;stroke-miterlimit:10;}
	.st79{fill:#0F1C3F;}
	.st80{fill:none;stroke:#3F6093;stroke-width:0.75;stroke-miterlimit:10;}
	.st81{fill:#DBA682;}
	.st82{fill:none;stroke:#E0AA86;stroke-miterlimit:10;}
	.st83{fill:none;stroke:#E0AA86;stroke-linejoin:bevel;stroke-miterlimit:10;}
	.st84{fill:#8A0A8E;stroke:#AC34B2;stroke-miterlimit:10;}
	.st85{fill:#810C87;}
	.st86{fill:#680B6D;}
	.st87{fill:#AC34B2;stroke:#AC34B2;stroke-width:0.5;stroke-miterlimit:10;}
	.st88{fill:none;stroke:#959DA0;stroke-width:0.5;stroke-miterlimit:10;}
	.st89{fill:#959DA0;stroke:#959DA0;stroke-width:0.5;stroke-miterlimit:10;}
	.st90{fill:none;stroke:#AC34B2;stroke-miterlimit:10;}
	.st91{fill:#282828;stroke:#000000;stroke-miterlimit:10;}
	.st92{fill:#EABA96;stroke:#E0AA86;stroke-width:0.5;stroke-miterlimit:10;}
	.st93{fill:#B7896A;}
	.st94{stroke:#000000;stroke-miterlimit:10;}
	.st95{fill:#C1A578;}
	.st96{stroke:#000000;stroke-width:0.25;stroke-linecap:round;stroke-linejoin:round;stroke-miterlimit:10;}
	.st97{fill:#FFFFFF;stroke:#000000;stroke-width:0.25;stroke-linecap:round;stroke-linejoin:round;stroke-miterlimit:10;}
	.st98{fill:#70582D;}
	.st99{stroke:#000000;stroke-linecap:round;stroke-linejoin:round;stroke-miterlimit:10;}
	.st100{fill:none;stroke:#D8A27D;stroke-width:0.75;stroke-miterlimit:10;}
	.st101{fill:#561409;}
	.st102{fill:#BA2A13;}
	.st103{fill:#9E3025;stroke:#4C2311;stroke-width:0.25;stroke-miterlimit:10;}
	.st104{fill:#871D08;stroke:#4C2311;stroke-width:0.25;stroke-miterlimit:10;}
	.st105{fill:#DDAC8A;}
	.st106{fill:#A5ABAD;stroke:#959DA0;stroke-width:0.5;stroke-miterlimit:10;}
	.st107{fill:#B1BABC;}
	.st108{fill:none;stroke:#153847;stroke-width:5;stroke-miterlimit:10;}
	.st109{fill:#3CA7AF;}
	.st110{fill:#3DAD8D;}
	.st111{fill:#3DAA61;}
	.st112{fill:#67A53F;}
	.st113{fill:#95A340;}
	.st114{fill:#153847;}
	.st115{opacity:0.25;clip-path:url(#XMLID_3771_);}
	.st116{opacity:0.25;clip-path:url(#XMLID_3772_);}
	.st117{opacity:0.25;clip-path:url(#XMLID_3773_);}
	.st118{opacity:0.25;clip-path:url(#XMLID_3780_);}
	.st119{clip-path:url(#SVGID_2_);}
	.st120{fill:none;stroke:#3F6093;stroke-miterlimit:10;}
	.st121{fill:none;stroke:#3F6093;stroke-width:0.75;stroke-linecap:round;stroke-linejoin:round;}
	.st122{fill:none;stroke:#3F6093;stroke-width:0.75;stroke-linecap:round;stroke-linejoin:round;stroke-dasharray:0.9892,0.9892;}
	
		.st123{fill:none;stroke:#3F6093;stroke-width:0.75;stroke-linecap:round;stroke-linejoin:round;stroke-miterlimit:10;stroke-dasharray:1;}
	.st124{fill:#EAEAEA;stroke:#FFFFFF;stroke-width:0.25;stroke-miterlimit:10;}
	.st125{fill:#D8D8D8;}
	.st126{fill:#282828;stroke:#000000;stroke-width:0.75;stroke-miterlimit:10;}
	.st127{opacity:0.33;fill:#FFFFFF;}
	.st128{fill:none;stroke:#000000;stroke-width:1.5;stroke-linecap:round;stroke-linejoin:round;stroke-miterlimit:10;}
	.st129{opacity:0.64;}
	.st130{fill:#C9C9C9;}
	.st131{fill:#FFF064;}
	.st132{fill:#4F4E4F;}
	.st133{fill:#1E2F47;}
	.st134{opacity:0.1;fill:#FFFFFF;}
	.st135{opacity:0.1;}
	.st136{opacity:0.4;fill:#FFFFFF;}
	.st137{fill-rule:evenodd;clip-rule:evenodd;fill:#F39C12;}
	.st138{fill-rule:evenodd;clip-rule:evenodd;fill:#E6E6E6;}
	.st139{fill-rule:evenodd;clip-rule:evenodd;fill:#474646;}
	.st140{fill-rule:evenodd;clip-rule:evenodd;fill:#D84848;}
	.st141{opacity:0.2;fill-rule:evenodd;clip-rule:evenodd;fill:#231F20;}
	.st142{opacity:0.1;fill-rule:evenodd;clip-rule:evenodd;fill:#231F20;}
	.st143{fill-rule:evenodd;clip-rule:evenodd;fill:#4D4D4D;}
	.st144{fill-rule:evenodd;clip-rule:evenodd;fill:#336699;}
	.st145{fill-rule:evenodd;clip-rule:evenodd;fill:#FF6633;}
	.st146{fill-rule:evenodd;clip-rule:evenodd;fill:#0056A3;}
	.st147{fill-rule:evenodd;clip-rule:evenodd;fill:#33CC99;}
	.st148{fill:#CE6405;}
	.st149{opacity:0.2;fill:#FFFFFF;}
	.st150{fill:#1ABC9C;}
	.st151{opacity:0.2;}
	.st152{fill:#0B2E44;}
	.st153{fill-rule:evenodd;clip-rule:evenodd;fill:#154F77;}
	.st154{fill-rule:evenodd;clip-rule:evenodd;fill:#0D3858;}
	.st155{fill-rule:evenodd;clip-rule:evenodd;fill:#FFFEFE;}
	.st156{fill:#AEC647;}
	.st157{fill:#F3AE1B;}
	.st158{fill:#DF3F11;}
	.st159{fill:#BCDEDE;}
	.st160{fill:#C84119;}
	.st161{fill:#6BB5CE;}
	.st162{fill:#00D0E5;}
	.st163{fill:#FF81ED;}
	.st164{fill:#00C982;}
	.st165{opacity:0.7;}
	.st166{opacity:0.4;}
	.st167{fill-rule:evenodd;clip-rule:evenodd;fill:#0B2E44;}
	.st168{opacity:0.8;fill-rule:evenodd;clip-rule:evenodd;fill:#FFFFFF;}
	.st169{fill:#424242;}
	.st170{opacity:0.2;fill-rule:evenodd;clip-rule:evenodd;fill:#FFFFFF;}
	.st171{fill:#D0EDFA;}
	.st172{fill:#FF651F;}
	.st173{fill:#0051C4;}
	.st174{fill:#E46400;}
	.st175{fill:#C0003B;}
	.st176{fill:#FFEA50;}
	.st177{fill:#FF2C0D;}
	.st178{fill:#FF1A2C;}
	.st179{fill:#FF2C4D;}
	.st180{fill:#FFD74C;}
	.st181{fill:#4C4C4B;}
	.st182{fill:#6CD2EA;}
	.st183{fill:#F7674F;}
	.st184{opacity:0.1;fill-rule:evenodd;clip-rule:evenodd;}
	.st185{fill:#BABABA;}
	.st186{fill:#F9B946;}
	.st187{fill:#DFC2A9;}
	.st188{fill:#BFA490;}
	.st189{fill:#F5D4B2;}
	.st190{fill:#DF584C;}
	.st191{fill:#C2443E;}
	.st192{fill:#DBDBDA;}
	.st193{fill:#2F363E;}
	.st194{fill:#332524;}
	.st195{fill:#473735;}
	.st196{opacity:0.25;clip-path:url(#XMLID_3781_);}
	.st197{fill:#52B8BA;}
	.st198{fill:#35373E;}
	.st199{opacity:0.25;clip-path:url(#XMLID_3782_);}
	.st200{opacity:0.31;fill:#34383A;}
	.st201{opacity:0.16;fill:#3D3835;}
	.st202{fill:#D0D1D4;}
	.st203{opacity:0.31;}
	.st204{fill:#34383A;}
	.st205{opacity:0.16;}
	.st206{fill:#3D3835;}
	.st207{opacity:0.25;clip-path:url(#XMLID_3783_);}
	.st208{fill:#F9E1B4;}
	.st209{opacity:0.25;fill:#050505;}
	.st210{fill:#FCC60F;}
	.st211{fill:#74CAEA;}
	.st212{fill:#050505;}
	.st213{opacity:0.25;clip-path:url(#XMLID_3784_);}
	.st214{fill:#FABC8F;}
	.st215{fill:#3FA995;}
	.st216{opacity:0.17;fill:#020202;}
	.st217{fill:#E1E1E1;}
	.st218{opacity:0.17;}
	.st219{fill:#020202;}
	.st220{opacity:0.25;clip-path:url(#XMLID_3785_);}
	.st221{fill:#BF8E00;}
	.st222{fill:#F7D8D7;}
	.st223{fill:#F18636;}
	.st224{fill:#004460;}
	.st225{fill:#D93A37;}
	.st226{fill:#EDEDED;}
	.st227{fill:#184F78;}
	.st228{fill:#FF3E03;}
	.st229{opacity:0.6;fill:#0F0F0F;}
	.st230{fill:#E8E8E6;}
	.st231{fill:#00EAA6;}
	.st232{fill-rule:evenodd;clip-rule:evenodd;fill:#FF3E03;}
	.st233{opacity:0.1;fill-rule:evenodd;clip-rule:evenodd;fill:#020202;}
	.st234{fill-rule:evenodd;clip-rule:evenodd;fill:#FABE00;}
	.st235{fill-rule:evenodd;clip-rule:evenodd;fill:#E6E8E8;}
	.st236{fill-rule:evenodd;clip-rule:evenodd;fill:#F7D959;}
	.st237{fill-rule:evenodd;clip-rule:evenodd;fill:#F9623E;}
	.st238{fill:#4F1A0F;}
	.st239{opacity:0.46;fill:#FFFFFF;}
	.st240{fill:#48505A;}
	.st241{fill:#C3C3C3;}
	.st242{fill:#E9E9EA;}
	.st243{fill:#9D9E9F;}
	.st244{fill:#F6F4F4;}
	.st245{fill:#6B6A6A;}
	.st246{fill:#C09478;}
	.st247{fill:#F7CDA0;}
	.st248{fill:#9E1010;}
	.st249{fill:#F2F2F2;}
	.st250{opacity:0.2;fill:#060606;}
	.st251{fill:#16AFBE;}
	.st252{fill:#DD2222;}
	.st253{fill:#FFEDDC;}
	.st254{fill:#22272B;}
	.st255{fill:#5B6375;}
</style>
<g>
	<g>
		<path class="st197" d="M292.987,115.7603c-16.7168-4.011-33.168-9.0818-49.2939-15.063
			c-16.0688-6.1208-31.9106-12.8323-47.5542-19.968c-31.2832-14.2625-62.0488-29.6807-93.9502-42.4041
			c-3.9536-1.6746-8.0034-3.095-12.0195-4.6018c-4.0308-1.4666-8.0161-3.0647-12.1162-4.3267l-12.2241-4.002
			c-4.1182-1.1855-8.2578-2.2986-12.3843-3.4517l-3.0972-0.8579c-1.0298-0.2964-2.0645-0.5735-3.1152-0.783l-6.2749-1.3816
			l-6.2739-1.3816l-3.1367-0.6877c-1.0435-0.1946-2.0879-0.3711-3.1343-0.5259c-4.1733-0.5916-8.4326-0.8308-12.4619-0.0322
			c-2.0034,0.4036-3.9316,1.0935-5.6104,2.1572c-1.6738,1.062-3.104,2.4871-4.1318,4.1807
			c-2.0693,3.4309-2.665,7.6711-3.0889,11.8855c-0.4419,4.2385-0.6489,8.4941-0.6978,12.7473
			c0.0273,8.4946,0.8682,17.0217,3.2104,25.1396c1.188,4.0396,2.6357,8.0208,4.6606,11.6938
			c1.98,3.6829,4.3159,7.1975,7.2178,10.1951c5.6094,6.198,13.1406,10.4111,21.1777,12.6719
			c8.0591,2.2673,16.6211,2.689,24.9526,1.6316c8.3472-1.0923,16.4912-3.6587,24.2729-7.0129
			c7.7949-3.3621,15.2593-7.5164,22.5708-11.9468c7.3105-4.4443,14.4731-9.1328,21.4707-14.054
			c13.979-9.865,27.2954-20.6672,39.7959-32.342c6.2407-5.8381,12.354-11.9282,18.8823-17.645
			c3.2896-2.834,6.6553-5.6025,10.2153-8.1548c3.5864-2.5127,7.2998-4.8921,11.2847-6.8391
			c3.9956-1.9116,8.186-3.5007,12.5693-4.4631c1.0942-0.2361,2.2109-0.3748,3.3159-0.5645c0.5557-0.0767,1.105-0.2036,1.6655-0.2378
			l1.6816-0.1072c2.2378-0.1841,4.4966-0.1902,6.7324,0.0071c8.9907,0.72,17.4463,3.9792,25.1724,7.9963
			c7.771,4.0374,14.9849,8.771,22.291,13.2683l21.8911,13.6191c3.6162,2.2639,7.4824,4.5488,10.8091,7.8406
			c1.6533,1.6414,3.1157,3.5747,4.2349,5.6169c1.1362,2.0437,1.9795,4.1924,2.6572,6.3499
			c1.332,4.3413,2.0068,8.6467,2.6802,12.9458c0.6387,4.312,1.0874,8.6516,1.3701,13.0015
			c0.5469,8.7102,0.3931,17.4268-0.522,26.1465c-0.5181,4.3875-1.3711,8.9761-3.7827,13.2124
			c-1.2285,2.0808-2.8652,4.0537-4.9419,5.4866c-2.0601,1.4546-4.3809,2.3533-6.6411,2.9189
			c-2.2695,0.5706-4.5098,0.8547-6.6782,1.0923l-6.4419,0.6494c-4.292,0.4192-8.5898,0.7793-12.8896,1.1118
			c-8.6001,0.6575-17.2134,1.1423-25.8335,1.4622c-8.6201,0.3179-17.2456,0.4636-25.873,0.4456
			c-8.6279-0.0247-17.4097-0.2664-26.1392-1.9216c-4.353-0.8508-8.6772-2.0693-12.8389-3.7861
			c-4.1563-1.7498-8.0742-4.0298-11.6958-6.6294c-7.2319-5.2578-13.2871-11.6975-18.9985-18.1812l-33.7798-38.9871l-16.8755-19.4597
			c-5.6255-6.3965-11.4678-12.5139-18.188-17.3149c-3.3682-2.3784-6.9282-4.387-10.7197-5.9688
			c-3.7915-1.5789-7.7744-2.7524-11.8438-3.6472c-8.1523-1.7876-16.6177-2.4502-25.1611-2.9751
			c-4.3003-0.2554-8.4839-0.5903-12.3477-0.0889c-1.9219,0.2551-3.7559,0.7085-5.3804,1.4778
			c-1.6284,0.7568-3.0522,1.8135-4.3354,3.178c-2.5757,2.6975-4.4595,6.4307-6.1821,10.1702
			c-1.6401,3.7781-2.958,7.6956-3.9312,11.7073c-3.7637,16.0671-1.5962,33.5901,6.3853,47.9893
			c7.9702,14.4104,21.6216,25.5688,37.1865,30.9456c1.9346,0.7156,3.9302,1.2219,5.915,1.7664
			c2.0122,0.4175,4.0142,0.9102,6.0571,1.1426c4.0601,0.6206,8.2095,0.7861,12.355,0.6665
			c8.3057-0.2664,16.6069-1.782,24.7915-3.8848c16.4043-4.2908,32.3813-10.3733,47.5161-18.0603
			c7.5732-3.8389,14.9331-8.095,22.0479-12.7271c7.1177-4.6323,13.9863-9.6768,20.7388-14.8933
			c13.4995-10.4526,26.4019-21.7866,39.7212-32.7419c6.6631-5.4771,13.4302-10.8633,20.3965-16.0234l5.2827-3.7998
			c1.7588-1.2695,3.5859-2.4521,5.3755-3.6821c1.7827-1.2407,3.625-2.3992,5.4688-3.5559c1.8467-1.1572,3.6416-2.3411,5.623-3.4495
			c3.9194-2.1792,8.0728-4.0898,12.6484-5.187c2.2769-0.5554,4.6719-0.8997,7.1519-0.8152c2.4678,0.0688,5.022,0.5596,7.394,1.6162
			l1.7324,0.8857l1.5996,1.0964c1.0415,0.7646,1.9927,1.667,2.8115,2.6406c1.6763,1.9375,2.8481,4.1411,3.7559,6.3303
			c1.7944,4.4246,2.5249,8.8154,3.3691,13.0374c1.6294,8.5398,2.8257,17.1614,3.5898,25.8215
			c0.3857,4.3296,0.6592,8.6694,0.8218,13.0134c0.1689,4.335,0.2388,8.7546-0.1011,13.231
			c-0.3589,4.4705-1.1504,9.0269-2.8091,13.4119c-1.6685,4.3689-4.3149,8.4946-7.668,11.7734
			c-3.3325,3.3242-7.2656,5.8711-11.3672,7.8682c-4.1274,1.9534-8.439,3.3835-12.8213,4.3545
			c-8.7656,1.8149-17.6948,2.3542-26.5361,1.5979c-8.8345-0.7346-17.5166-2.6702-25.8545-5.478
			c-16.6973-5.6489-32.0122-14.6201-45.7539-25.3652c-13.7295-10.7791-25.9512-23.1587-37.7017-35.7656
			c-11.7554-12.616-23.084-25.512-35.1518-37.5796c-3.0103-3.0283-6.0229-5.948-9.2329-8.4797
			c-3.2075-2.5266-6.6338-4.6282-10.313-5.9214c-3.6831-1.3105-7.6689-1.8926-11.7344-1.9453
			c-4.0688-0.0623-8.209,0.3384-12.3706,0.9504c-8.3315,1.2322-16.5693,3.1062-24.2236,6.2478
			c-7.6104,3.1221-14.7583,7.5283-19.6987,13.7937c-2.4609,3.1169-4.3926,6.6223-5.605,10.3682
			c-1.2202,3.7527-1.7461,7.7461-1.6538,11.7476c0.1895,8.0186,2.8306,16.0183,7.1592,22.8535
			c4.3359,6.8196,10.5459,12.5166,17.4834,16.9541c6.9707,4.4561,14.7354,7.731,22.7642,10.1338
			c8.0464,2.3865,16.3428,4.0513,24.6084,4.2644c8.2666,0.2505,16.4702-1.1121,23.875-4.5837
			c3.7046-1.7156,7.2744-3.7856,10.602-6.2615c3.3354-2.4614,6.5073-5.1865,9.5454-8.0913
			c6.0503-5.8523,11.6025-12.3267,17.2261-18.8367c11.1831-13.1721,23.6099-25.4753,37.0898-36.3838
			c6.7529-5.4658,13.71-10.6121,21.001-15.4055c3.6563-2.3892,7.4536-4.626,11.4282-6.5869
			c3.9746-1.9534,8.1313-3.6511,12.5054-4.7766c4.3613-1.1289,8.9219-1.7661,13.498-1.5872
			c4.5718,0.1765,9.0688,1.0889,13.3384,2.4878c8.5518,2.8513,16.1528,7.4734,23.3584,12.2612
			c3.6021,2.4175,7.1421,4.8301,10.6875,7.3491c3.5342,2.5217,7.0337,5.1504,10.3667,8.0361c3.3447,2.8652,6.5,6.0193,9.3403,9.4758
			c2.7998,3.4641,5.3242,7.3093,7.1182,11.4756c1.8105,4.1536,3.0728,8.5754,3.4893,13.1467
			c0.4775,4.5552,0.0225,9.2654-1.4146,13.7158c-0.7949,2.1926-1.7358,4.3682-3.0132,6.3259
			c-1.2559,1.968-2.7319,3.7749-4.3491,5.4089c-3.2373,3.283-7.019,5.8347-10.9111,7.9814
			c-3.9043,2.1553-7.9453,3.886-12.0474,5.3767l-3.0645,1.166c-1.0195,0.394-2.0386,0.7893-3.0933,1.0789l-6.272,1.9031
			c-8.4351,2.2344-17.0264,4.0085-25.7363,4.6575l-3.2573,0.3127c-1.0859,0.1077-2.1792,0.0908-3.2681,0.1421l-6.5405,0.2087
			c-2.1797-0.0369-4.3594-0.1262-6.5391-0.1877l-3.2686-0.1086l-3.2563-0.3057c-2.1694-0.2158-4.3447-0.384-6.5088-0.6404
			l-6.4604-1.019c-1.0728-0.1904-2.1616-0.2957-3.2212-0.5562l-3.1919-0.7109l-3.1914-0.7117
			c-1.062-0.2458-2.1353-0.4446-3.1748-0.7776c-4.1841-1.2263-8.4043-2.3376-12.4702-3.9304l-3.0757-1.1111l-1.5352-0.5623
			l-1.4995-0.6533l-5.9956-2.6162c-1.0122-0.4087-1.9697-0.9338-2.9395-1.4324l-2.9058-1.5032
			c-1.9365-1.0034-3.8945-1.967-5.731-3.1509l-5.5957-3.3938c-1.8208-1.2-3.5776-2.498-5.3687-3.7432l-2.6738-1.8872l-2.582-2.0024
			c-1.6997-1.3584-3.3896-2.7297-5.0313-4.1501c-3.3013-2.8218-6.501-5.7458-9.6333-8.7224
			c-6.2627-5.9541-12.2881-12.095-18.4409-18.0437c-6.1572-5.9448-12.4302-11.7224-19.2007-16.8359
			c-6.7417-5.1384-13.9458-9.6699-21.6504-13.0491c-3.8462-1.6917-7.8101-3.1135-11.8774-4.1008
			c-1.0059-0.2935-2.0415-0.4482-3.061-0.6802c-1.0195-0.2383-2.0537-0.3838-3.0869-0.5349
			c-2.0752-0.3396-4.1338-0.5894-5.9595-0.3984c-1.8589,0.1912-3.2798,0.8728-4.5645,2.238c-1.29,1.3186-2.3887,3.1865-3.502,4.918
			c-2.144,3.5562-3.8198,7.3945-5.0493,11.3723c-4.8979,15.9697-2.5688,33.9653,5.6196,48.5544
			c4.1118,7.2881,9.7612,13.7307,16.6353,18.4641c6.8784,4.719,14.8999,7.7844,23.1714,9.1565
			c8.291,1.3896,16.8477,1.0642,25.1416-0.5146c8.3042-1.5872,16.3721-4.4333,23.9453-8.2449
			c7.5728-3.8169,14.6689-8.6038,21.0225-14.2278c6.3569-5.6443,12.062-12.0439,17.6426-18.5474
			c5.582-6.5122,11.0288-13.1895,16.958-19.4819c2.9644-3.1436,6.0293-6.2046,9.271-9.0842
			c3.2456-2.8748,6.6465-5.561,10.1401-8.1038c6.9927-5.0884,14.3174-9.6277,21.6318-14.1521
			c7.3164-4.4834,15.0088-8.8318,23.5869-10.7747c4.2866-0.8992,8.6812-1.2217,13.043-0.9202
			c4.3594,0.3521,8.6362,1.3469,12.7471,2.772c4.1318,1.3967,7.9995,3.4578,11.6704,5.7659
			c3.6841,2.3074,7.0522,5.0923,10.1313,8.1453c1.5786,1.4934,2.9663,3.1655,4.3936,4.7996
			c1.3076,1.7312,2.6714,3.4231,3.8037,5.2786c2.3613,3.6375,4.3687,7.4971,5.9722,11.5181
			c3.2925,8.0149,5.1196,16.5596,5.918,25.146c0.3628,4.301,0.4839,8.6167,0.394,12.9272
			c-0.127,4.3098-0.4678,8.6086-0.9839,12.8848c-0.3013,2.1338-0.5352,4.2703-0.9717,6.396
			c-0.4331,2.1165-1.0728,4.2473-2.2568,6.1128c-1.1807,1.8723-2.9302,3.3174-4.8315,4.3625
			c-1.9072,1.0569-3.9541,1.7854-5.9907,2.4722c-8.1465,2.707-16.499,5.1091-25.1079,5.7224
			c-4.2886,0.2888-8.646,0.092-12.8213-0.9802c-4.1675-1.0557-8.1152-3.0696-11.2832-5.9885
			c3.1938,2.8911,7.1504,4.8635,11.3115,5.8787c4.1689,1.0317,8.5083,1.1892,12.7764,0.864
			c8.5684-0.686,16.8716-3.1521,24.978-5.9253c2.0239-0.7019,4.04-1.4419,5.8877-2.488c1.8447-1.0364,3.4961-2.4326,4.6016-4.2197
			c1.1128-1.7861,1.7183-3.8499,2.125-5.9331c0.4106-2.0894,0.6274-4.2319,0.9077-6.3545c0.4766-4.26,0.7773-8.5381,0.8662-12.8208
			c0.0518-4.2832-0.1069-8.5654-0.5039-12.8257c-0.8628-8.5042-2.7163-16.9414-6.0166-24.8184
			c-1.605-3.9507-3.6104-7.7415-5.9487-11.2925c-1.1201-1.8113-2.4707-3.4607-3.7617-5.1494
			c-1.4111-1.592-2.7798-3.2224-4.3374-4.6753c-3.0361-2.9717-6.3521-5.678-9.9697-7.9094
			c-3.604-2.2322-7.3926-4.2212-11.4233-5.5525c-4.0103-1.3599-8.168-2.2976-12.3872-2.6111
			c-4.2212-0.2627-8.4536,0.0784-12.5767,0.9685c-8.2603,1.9246-15.7681,6.2095-23.0176,10.7214
			c-7.27,4.5625-14.5396,9.136-21.416,14.21c-3.438,2.5366-6.771,5.2058-9.9404,8.0508c-3.166,2.8501-6.168,5.8867-9.0786,9.0139
			c-5.8213,6.259-11.2056,12.946-16.7642,19.5186c-5.5635,6.5676-11.2813,13.0767-17.7485,18.8965
			c-6.4785,5.8105-13.7163,10.7632-21.4639,14.7324c-7.748,3.9626-16.0239,6.948-24.5962,8.645
			c-8.561,1.6875-17.4502,2.0928-26.1396,0.6965c-8.6812-1.3784-17.1147-4.5466-24.4434-9.5208
			c-7.3193-4.9895-13.3159-11.7761-17.6782-19.4248c-4.3633-7.6621-7.1343-16.1929-8.2275-24.9314
			c-1.0864-8.7356-0.4736-17.7292,2.0996-26.2124c1.2876-4.2358,3.0562-8.3411,5.332-12.1587
			c1.2036-1.8765,2.2588-3.772,3.958-5.5664c0.8394-0.8823,1.8545-1.7175,3.0518-2.3025c1.1875-0.5952,2.4585-0.8943,3.6782-1.0356
			c2.4614-0.2544,4.7114,0.0537,6.8696,0.3848c1.0933,0.1545,2.1875,0.3052,3.2642,0.5496c1.0762,0.238,2.1719,0.4011,3.2324,0.7026
			c4.292,1.022,8.4575,2.4944,12.4819,4.2415c8.063,3.4924,15.5303,8.1514,22.4741,13.3911
			c6.9771,5.2188,13.3984,11.0825,19.6294,17.0417c12.4575,11.905,24.1914,24.5032,38.0571,34.2632
			c1.7407,1.2004,3.4463,2.4546,5.2148,3.6121l5.439,3.2717c1.7822,1.144,3.6875,2.0701,5.5698,3.0369l2.8237,1.4495
			c0.9419,0.481,1.8716,0.9885,2.8564,1.3806l5.8281,2.519l1.4565,0.6301l1.4932,0.54l2.9902,1.0676
			c3.9502,1.5359,8.0552,2.5962,12.1206,3.7764c1.0098,0.3213,2.0537,0.5088,3.0859,0.7437l3.1016,0.6802l3.1016,0.6812
			c1.0293,0.251,2.0879,0.3469,3.1304,0.5283l6.2764,0.9697c2.1021,0.241,4.2148,0.3953,6.3213,0.5984l3.1616,0.2881l3.1733,0.0925
			l6.3462,0.1624l6.3438-0.2256c1.0562-0.0532,2.1167-0.0381,3.1689-0.1472l3.1572-0.3157
			c8.4424-0.6538,16.7549-2.408,24.9063-4.5933l6.0576-1.8601c1.0195-0.2817,2.0024-0.6682,2.9854-1.0532l2.9556-1.1372
			c3.9702-1.4539,7.8423-3.1348,11.458-5.1499c3.6147-2.0076,7.0176-4.3435,9.811-7.2031c1.3994-1.4238,2.6479-2.9683,3.6992-4.6257
			c1.0728-1.6501,1.8281-3.4546,2.4995-5.2925c1.1836-3.7356,1.5864-7.7563,1.1499-11.7468
			c-0.3735-3.9951-1.5088-7.9377-3.1421-11.6497c-3.27-7.4297-8.9028-13.7397-15.2407-19.1648
			c-6.353-5.4421-13.5229-10.1663-20.6108-14.9399c-7.0903-4.6794-14.3618-9.0364-22.1685-11.6123
			c-3.895-1.2656-7.9019-2.0601-11.9233-2.2092c-4.02-0.1499-8.0625,0.4192-12.0088,1.447
			c-3.9536,1.0229-7.7954,2.595-11.5239,4.4373c-3.7295,1.8494-7.3486,3.9863-10.8804,6.3049
			c-7.062,4.6633-13.9321,9.7629-20.5264,15.1252c-13.2217,10.7527-25.3071,22.7559-36.3462,35.8096
			c-5.5967,6.5022-11.229,13.1123-17.5269,19.2307c-3.167,3.0415-6.5156,5.937-10.0908,8.585
			c-3.5654,2.6614-7.4595,4.9456-11.5425,6.8433c-8.1831,3.864-17.4009,5.3955-26.2837,5.1294
			c-8.9355-0.2183-17.6465-1.968-26.063-4.4414c-8.4263-2.5049-16.668-5.9417-24.2026-10.7336
			c-7.5112-4.7961-14.3174-10.9475-19.248-18.6489c-4.8608-7.657-7.8491-16.5627-8.0977-25.7571
			c-0.1191-4.5862,0.4829-9.2349,1.9155-13.6587c1.4302-4.4319,3.71-8.5679,6.5737-12.1902
			c2.8662-3.6362,6.3516-6.7083,10.1055-9.2517c3.7568-2.552,7.7808-4.6047,11.9063-6.2979
			c8.2651-3.3931,16.9214-5.3467,25.5723-6.635c4.3364-0.6392,8.7788-1.0852,13.3071-1.0198
			c4.5176,0.0569,9.1582,0.7004,13.5815,2.2703c4.4429,1.5605,8.4302,4.0408,11.9639,6.8208
			c3.5425,2.792,6.709,5.8735,9.7578,8.9333c12.2534,12.239,23.6333,25.1809,35.3203,37.7034
			c11.6772,12.5149,23.7114,24.6655,37.0513,35.1213c13.3071,10.395,28.1011,19.0195,44.0078,24.3843
			c7.9438,2.6692,16.1597,4.4878,24.4561,5.1714c8.2837,0.7095,16.6733,0.1768,24.7358-1.491
			c7.9688-1.7881,15.7188-5.1211,21.2769-10.6458c2.7856-2.7397,4.8799-6.0134,6.2866-9.6648
			c1.3843-3.6677,2.1001-7.6584,2.4316-11.7437c0.314-4.0967,0.2598-8.2861,0.0957-12.5356
			c-0.1563-4.2439-0.4199-8.4844-0.7944-12.7148c-0.7407-8.4622-1.9038-16.8875-3.4902-25.2324
			c-0.8208-4.1909-1.561-8.3376-3.0215-11.8948c-0.7319-1.7708-1.6235-3.4067-2.7686-4.7207
			c-0.5605-0.6716-1.1826-1.259-1.8726-1.7603l-1.0542-0.7314l-1.1392-0.5781c-3.1162-1.377-6.9419-1.4053-10.7266-0.4458
			c-3.7959,0.8989-7.5439,2.5884-11.1206,4.5798c-1.772,0.9868-3.5693,2.166-5.3638,3.2898
			c-1.7974,1.126-3.5942,2.2524-5.3398,3.4668c-1.7515,1.2029-3.5356,2.354-5.2617,3.5989l-5.1851,3.7239
			c-6.8496,5.0671-13.5386,10.3823-20.1567,15.8149c-13.2363,10.8694-26.1826,22.23-39.876,32.8206
			c-6.8501,5.2852-13.8491,10.4192-21.1431,15.1594c-7.292,4.7402-14.8364,9.0962-22.5967,13.0234
			c-15.5195,7.8665-31.855,14.0769-48.7109,18.4736c-8.4512,2.1636-17.1611,3.7659-26.0532,4.0466
			c-4.4404,0.1252-8.9155-0.0537-13.3521-0.731c-2.2305-0.261-4.4116-0.79-6.6025-1.2527
			c-2.1602-0.5886-4.3301-1.1477-6.4312-1.9226c-16.8989-5.8528-31.5869-17.9187-40.2666-33.6443
			C9.9416,80.9522,7.6755,62.0803,11.7717,44.7007c1.0596-4.342,2.4961-8.5891,4.29-12.6904
			c0.9834-2.0181,1.8784-4.0464,3.0581-6.0139c1.1602-1.9719,2.5034-3.9224,4.1812-5.6902
			c1.6572-1.7676,3.7358-3.3259,6.0137-4.3696c2.2681-1.063,4.667-1.6279,6.9966-1.9321c4.6865-0.5815,9.1304-0.168,13.3921,0.0808
			c8.5957,0.5493,17.332,1.2322,25.9839,3.1443c4.3188,0.9595,8.6108,2.2285,12.7529,3.9631
			c4.1406,1.7341,8.103,3.9805,11.7471,6.5701c7.2813,5.2292,13.3633,11.676,19.061,18.1731l16.8677,19.5305l33.6719,39.0239
			c5.6157,6.4089,11.4292,12.5725,18.1216,17.4539c3.3535,2.4155,6.9067,4.4846,10.6689,6.0852
			c3.7813,1.5732,7.7627,2.7161,11.8379,3.5278c8.1782,1.5825,16.665,1.8674,25.2061,1.917
			c8.5601,0.0469,17.124-0.0688,25.6812-0.3555c8.5576-0.2883,17.1099-0.7407,25.6499-1.3647
			c4.2695-0.3154,8.5376-0.6587,12.8003-1.0605l6.3862-0.6216c2.1016-0.2214,4.1357-0.4832,6.0381-0.9561
			c1.9019-0.4683,3.6514-1.1704,5.1113-2.1951c1.4766-1.0073,2.6567-2.4143,3.6187-4.0144
			c1.8906-3.2615,2.7456-7.3044,3.2275-11.4099c0.9072-8.3716,1.0923-16.9009,0.5879-25.3447
			c-0.2603-4.2266-0.6821-8.4441-1.2886-12.6357c-0.6367-4.1858-1.3013-8.4023-2.4868-12.2888
			c-1.188-3.9043-2.9868-7.4417-5.7676-10.1843c-2.7881-2.7935-6.3652-4.9758-10.0132-7.2629L283.322,30.0867
			c-7.3091-4.5366-14.4785-9.2651-21.958-13.179c-7.4585-3.9099-15.3892-6.9563-23.5933-7.6504
			c-2.0435-0.1914-4.0942-0.1936-6.1392-0.0327l-1.5356,0.0872c-0.5122,0.0266-1.0151,0.1455-1.5234,0.2129
			c-1.0117,0.1716-2.0337,0.2881-3.0391,0.5002c-4.0259,0.8652-7.9224,2.3188-11.6831,4.0938
			c-3.7529,1.8105-7.3076,4.0627-10.7671,6.4609c-3.4385,2.4409-6.729,5.1201-9.9629,7.8789
			c-6.4326,5.5791-12.5332,11.5974-18.8706,17.4719c-12.6787,11.7302-26.1719,22.571-40.3257,32.46
			c-7.085,4.9331-14.3335,9.6294-21.7309,14.0791c-7.4033,4.4377-15.0137,8.6323-23.0249,12.0437
			c-8.0015,3.4028-16.4209,6.0244-25.1426,7.125c-8.7061,1.0654-17.6563,0.5884-26.1416-1.8625
			c-8.4507-2.4275-16.4785-6.9866-22.395-13.6094c-3.0586-3.208-5.5063-6.9395-7.5601-10.8223
			c-2.1001-3.877-3.5825-8.0359-4.7876-12.2351C0.7692,64.6724-0.0267,55.9231,0.0007,47.25
			c0.0776-4.3401,0.3174-8.6736,0.7949-12.9814c0.2231-2.1509,0.5093-4.3296,1.0166-6.502c0.5122-2.1641,1.252-4.3435,2.4761-6.314
			c1.2139-1.9744,2.9185-3.6538,4.877-4.875c1.9634-1.2253,4.1572-1.9817,6.3604-2.4114c4.4326-0.8428,8.8867-0.5371,13.1929,0.0969
			c1.0786,0.1665,2.1509,0.355,3.2183,0.5615l3.1548,0.7126l6.3066,1.4316l6.3057,1.4319c1.0562,0.218,2.0947,0.5032,3.1284,0.8081
			l3.1089,0.8826c4.1426,1.186,8.2964,2.3328,12.4272,3.5513l12.252,4.0994c4.1099,1.2947,8.0977,2.9236,12.1323,4.4216
			c4.02,1.5378,8.0742,2.99,12.0259,4.6941c31.9009,12.9702,62.5742,28.5798,93.7368,43.053
			c15.5703,7.2673,31.335,14.1089,47.3374,20.3652C259.9108,106.3921,276.3039,111.603,292.987,115.7603z"/>
	</g>
	<g>
		<path class="st40" d="M30.2119,42.6936c0,0,41.9464-21.7056,77.2538,2.6443c0,0,25.554,17.183,27.8242,50.0342
			c0.2356,3.4091-0.2311,6.8256-1.2858,10.076c-0.012,0.0371-0.0239,0.0743-0.0359,0.1118
			c-1.1649,3.663-0.5071,7.6635,1.723,10.7943l12.6628,17.7775c0,0,2.2793,3.0378-0.0036,5.625c0,0-4.9405,4.2582-10.5715,4.4104
			c0,0-1.8207,0.3775-1.8207,2.2038v6.3158c0,0,3.3028,3.5764,2.9984,4.7178c0,0-1.7658,0.5082-3.8699,0.1316
			c-0.5219-0.0934-1.0575,0.1855-1.2355,0.6849c-0.081,0.2274-0.0854,0.478,0.084,0.7182c0.1482,0.2101,0.3717,0.5021,0.5772,0.7155
			c0.4131,0.429,1.0623,1.122,2.5688,1.174c0,0,1.3716,1.0653,0.0019,3.4242c0,0-0.779,1.2175-3.8608,0.6468
			c0,0,0.8268,7.6727,0.4336,13.9986c-0.2326,3.743-2.0396,7.2403-5.0441,9.4846c-1.8418,1.3758-4.1762,2.3301-6.87,1.7417H24.1623
			c0,0-0.4565-2.6633,1.2936-5.7831c1.5975-2.8477,2.5146-13.4419,0.8652-20.1833c-0.3097-1.2658-1.2076-4.9262-1.5047-6.195
			c-1.2852-5.4893-5.1898-15.713-11.0071-26.8478c-3.4196-6.5454-6.0513-12.4178-7.2842-19.2129
			c-0.9305-5.1289-1.6782-11.4759-1.7248-18.7455c-0.075-11.7161,2.8541-23.2821,8.7571-33.4028
			C17.3723,53.2134,22.7666,46.6595,30.2119,42.6936z"/>
	</g>
	<g>
		<g>
			<path class="st198" d="M79.2128,63.2094l-4.899,1.398c-1.5459-2.8979-3.3116-4.9487-5.4193-6.8613l-0.0101-0.0956l2.4652-4.4907
				c0.5505-0.9897,0.1889-2.2573-0.8012-2.8077l-7.7468-4.315c-0.9902-0.5503-2.2399-0.1991-2.7906,0.7913l-2.418,4.4336
				c-2.8206-0.7768-5.2252-1.2216-8.4906-0.9634l-0.0064-0.0224l-1.3982-4.8997c-0.3108-1.0893-1.533-1.5865-2.6221-1.2757
				l-8.521,2.4316c-1.0892,0.3108-1.2714,1.2087-0.9605,2.2981l1.398,4.8991c-2.8979,1.546-5.0379,3.3369-6.9509,5.4444
				l-0.14,0.0227l-4.5126-2.4586c-0.9899-0.5504-2.2683-0.1856-2.8186,0.8043l-4.321,7.7489
				c-0.5502,0.9895-0.2013,2.2406,0.7883,2.7908l4.4854,2.6036c-0.7771,2.8205-1.1703,5.4104-0.9119,8.6758l-0.0227,0.0065
				l-4.8997,1.3982c-1.089,0.3108-1.5138,1.1121-1.2029,2.2014l2.4315,8.521c0.3107,1.0891,1.1362,1.692,2.2253,1.3812l4.8992-1.398
				c1.546,2.8979,3.2841,4.853,5.3918,6.7658l-0.0039,0.0474l-2.472,4.4667c-0.5502,0.99-0.1923,2.2452,0.7978,2.7957l7.7455,4.3091
				c0.9901,0.5505,2.2389,0.1959,2.7892-0.7941l2.6919-4.5137c2.8207,0.7771,5.4987,1.142,8.7641,0.8837l0.0065,0.0227
				l1.3982,4.8997c0.3107,1.0887,1.0396,1.9343,2.1288,1.6236l8.5211-2.4316c1.0888-0.3107,1.7646-1.5568,1.4538-2.6459
				l-1.3981-4.8994c2.8979-1.5459,4.7639-3.2583,6.6766-5.3661l0.0029,0.0163l4.4445,2.478
				c0.9897,0.5506,2.2344,0.1958,2.7843-0.7945l4.3036-7.7435c0.5505-0.9899,0.193-2.2383-0.7969-2.7883l-4.4623-2.5068
				c0.7772-2.8207,1.0174-5.9309,0.9355-8.5788l0.0221-0.0063l4.8999-1.3983c1.089-0.3108,2.0072-1.4603,1.6963-2.5496
				l-2.4315-8.5208C81.6207,63.1534,80.3018,62.8986,79.2128,63.2094z M48.4257,90.6327c-0.1337-0.0187-0.267-0.0388-0.3997-0.0617
				c-0.4068-0.0703-0.8087-0.1601-1.2045-0.2688c-0.1979-0.0544-0.3942-0.1134-0.5889-0.1771
				c-0.1946-0.0637-0.3876-0.132-0.5787-0.2048c-0.0955-0.0364-0.1906-0.0739-0.2852-0.1126
				c-0.5468-0.2235-1.0773-0.4846-1.5875-0.7808c-0.5102-0.2962-1-0.6277-1.4657-0.9921c-0.1862-0.1458-0.3686-0.2969-0.5469-0.4531
				c-0.5346-0.4686-1.032-0.9836-1.4853-1.541c-1.0575-1.3005-1.8747-2.8321-2.3638-4.546
				c-1.0272-3.5999-0.4009-7.2802,1.4281-10.2294c0.1614-0.2602,0.3321-0.5148,0.5119-0.7631
				c0.06-0.0827,0.1209-0.1648,0.1828-0.2461c0.1239-0.1627,0.2518-0.3226,0.3835-0.4794c0.3953-0.4704,0.8254-0.9137,1.288-1.3252
				c0.1542-0.1371,0.312-0.2708,0.4734-0.4008c1.2907-1.0397,2.8066-1.8436,4.5007-2.3271
				c2.0117-0.5741,4.0486-0.6318,5.9689-0.2517c0.2021,0.0401,0.403,0.0849,0.6023,0.1345c0.2992,0.0744,0.595,0.1595,0.8869,0.255
				c0.1947,0.0637,0.3876,0.132,0.5787,0.2048c0.0954,0.0365,0.1906,0.074,0.2852,0.1126c0.1892,0.0773,0.3764,0.1591,0.5615,0.2453
				c0.2777,0.1293,0.5506,0.2685,0.8181,0.4172c0.1784,0.0992,0.3544,0.2026,0.5278,0.3102c0.4337,0.269,0.8516,0.564,1.2511,0.8835
				c0.1598,0.1279,0.3167,0.2596,0.4704,0.3952c0.1538,0.1356,0.3045,0.275,0.4518,0.4182c0.221,0.2148,0.4347,0.438,0.6405,0.6693
				c1.2347,1.3879,2.1841,3.0683,2.7279,4.9741c0.3022,1.0588,0.4612,2.1246,0.4887,3.1767
				c0.0055,0.2104,0.0058,0.4202,0.0009,0.6294c-0.0074,0.3137-0.0265,0.6258-0.0568,0.9358
				c-0.0202,0.2066-0.0455,0.4123-0.0757,0.6169c-0.02,0.1362-0.0432,0.2718-0.0677,0.4069
				c-0.049,0.2708-0.106,0.5396-0.1721,0.8056c-0.0496,0.1995-0.104,0.3974-0.1631,0.5937
				c-0.0469,0.1561-0.0976,0.3109-0.1505,0.4649c-0.0467,0.1365-0.095,0.2723-0.1463,0.407
				c-0.0365,0.0955-0.074,0.1906-0.1127,0.2852c-0.0774,0.1892-0.1591,0.3764-0.2453,0.5615
				c-0.0432,0.0925-0.0873,0.1846-0.1327,0.276c-0.0906,0.183-0.1854,0.3637-0.2846,0.5421
				c-0.0496,0.0892-0.1002,0.1778-0.152,0.2658c-0.2067,0.3519-0.4305,0.6941-0.6701,1.0251
				c-0.0599,0.0828-0.1209,0.1649-0.1828,0.2462c-0.1239,0.1627-0.2517,0.3225-0.3834,0.4793
				c-0.1318,0.1568-0.2674,0.3106-0.4068,0.4612c-0.0698,0.0753-0.1404,0.1498-0.212,0.2235
				c-0.1431,0.1473-0.2901,0.2915-0.4406,0.4321c-1.4305,1.3362-3.191,2.3622-5.2028,2.9363
				c-1.619,0.462-3.254,0.5887-4.8316,0.4228C48.7143,90.6706,48.5697,90.6529,48.4257,90.6327z"/>
		</g>
	</g>
	<g>
		<g>
			<path class="st198" d="M116.7876,80.9823l-2.6042-0.219c-0.2154-1.6711-0.69-2.9756-1.3539-4.2759l0.0125-0.0477l1.9983-1.7067
				c0.4438-0.3748,0.5005-1.0486,0.1255-1.4925l-2.9329-3.477c-0.3751-0.4438-1.0385-0.5023-1.4826-0.1272l-1.9652,1.6879
				c-1.2121-0.8849-2.285-1.535-3.8984-2.0042l0.001-0.0119l0.2191-2.6046c0.0487-0.579-0.4473-1.0395-1.0263-1.0882l-4.5296-0.3809
				c-0.579-0.0487-0.8295,0.349-0.8782,0.9281l-0.219,2.6042c-1.6711,0.2154-3.023,0.686-4.3234,1.3496l-0.0713-0.0145
				l-1.7185-1.9991c-0.3749-0.4438-1.0545-0.501-1.4983-0.126l-3.4803,2.9328c-0.4437,0.3748-0.5035,1.0383-0.1286,1.4821
				l1.6791,2.0637c-0.885,1.2121-1.544,2.3831-2.0131,3.9966l-0.0121-0.001l-2.6046-0.219
				c-0.5789-0.0487-0.9282,0.2586-0.9769,0.8377l-0.3809,4.5296c-0.0487,0.5789,0.2378,1.0181,0.8167,1.0668l2.6043,0.219
				c0.2154,1.6711,0.6942,2.9247,1.358,4.2251l-0.0104,0.022l-1.9972,1.694c-0.4438,0.375-0.5,1.0422-0.125,1.4861l2.9334,3.474
				c0.375,0.4439,1.0386,0.5006,1.4824,0.1256l2.1111-1.6766c1.2122,0.8851,2.4307,1.5465,4.0441,2.0156l-0.001,0.0121
				l-0.219,2.6046c-0.0487,0.5787,0.1475,1.1168,0.7264,1.1655l4.5296,0.3809c0.5788,0.0487,1.1293-0.4264,1.178-1.0054
				l0.219-2.6044c1.6711-0.2154,2.8772-0.6981,4.1777-1.3619l-0.0015,0.0084l1.6822,1.996
				c0.3748,0.4439,1.0364,0.4997,1.4801,0.1245l3.471-2.9334c0.4438-0.3749,0.4991-1.0388,0.1241-1.4824l-1.6856-2.013
				c0.8851-1.2121,1.5652-2.6606,2.0068-3.9458l0.0117,0.001l2.6047,0.2191c0.5789,0.0487,1.2281-0.3361,1.2768-0.9152
				l0.3809-4.5294C117.953,81.3927,117.3665,81.031,116.7876,80.9823z M97.037,88.5476c-0.0607-0.0333-0.121-0.0671-0.1805-0.1022
				c-0.1824-0.1076-0.3589-0.2237-0.529-0.3477c-0.0851-0.062-0.1685-0.126-0.2504-0.1919s-0.162-0.1337-0.2404-0.2033
				c-0.0392-0.0348-0.078-0.0701-0.1164-0.1058c-0.2217-0.2066-0.4288-0.4281-0.6198-0.6629
				c-0.191-0.2348-0.3658-0.4828-0.523-0.7422c-0.0629-0.1038-0.1229-0.2094-0.1801-0.3167
				c-0.1714-0.3219-0.3165-0.6593-0.4327-1.009c-0.2712-0.816-0.3851-1.6992-0.3085-2.6103
				c0.161-1.9137,1.1299-3.5655,2.5429-4.6482c0.1247-0.0956,0.2528-0.1867,0.3842-0.2731
				c0.0438-0.0288,0.0879-0.0571,0.1324-0.0849c0.089-0.0556,0.1793-0.109,0.271-0.1604c0.2751-0.1539,0.5619-0.2884,0.8586-0.4019
				c0.0989-0.0378,0.1989-0.0732,0.2999-0.1063c0.808-0.2644,1.6813-0.3748,2.5819-0.2991
				c1.0694,0.0899,2.0571,0.4322,2.9093,0.9633c0.0897,0.0559,0.1779,0.1139,0.2645,0.1739c0.13,0.09,0.2565,0.1846,0.3792,0.2835
				c0.0818,0.0659,0.162,0.1337,0.2405,0.2033c0.0392,0.0348,0.078,0.0701,0.1164,0.1058c0.0767,0.0714,0.1517,0.1447,0.2248,0.2197
				c0.1097,0.1125,0.2154,0.2288,0.3167,0.3487c0.0676,0.08,0.1332,0.1615,0.1969,0.2447c0.1592,0.2078,0.3062,0.4252,0.4398,0.651
				c0.0535,0.0904,0.1048,0.182,0.1539,0.275c0.0492,0.093,0.0961,0.1872,0.1408,0.2827c0.067,0.1432,0.129,0.2891,0.1857,0.4374
				c0.3403,0.8901,0.4906,1.8687,0.4054,2.8818c-0.0474,0.5628-0.1646,1.103-0.3425,1.6128
				c-0.0356,0.1019-0.0736,0.2027-0.1139,0.3021c-0.0605,0.1491-0.1264,0.2954-0.1972,0.4386
				c-0.0472,0.0954-0.0967,0.1896-0.1484,0.2822c-0.0343,0.0617-0.0701,0.1225-0.1064,0.1829
				c-0.0727,0.121-0.1488,0.2396-0.2289,0.3552c-0.06,0.0867-0.1221,0.1718-0.1861,0.2552
				c-0.0508,0.0664-0.1033,0.1314-0.1566,0.1957c-0.0472,0.057-0.095,0.1134-0.1441,0.1687
				c-0.0348,0.0392-0.0701,0.078-0.1058,0.1164c-0.0715,0.0767-0.1447,0.1517-0.2197,0.2248
				c-0.0375,0.0365-0.0754,0.0727-0.1138,0.1083c-0.0767,0.0713-0.155,0.1408-0.235,0.2084
				c-0.04,0.0338-0.0804,0.0671-0.1212,0.0999c-0.1631,0.1313-0.3326,0.2548-0.5077,0.3701
				c-0.0438,0.0288-0.0879,0.0571-0.1324,0.0849c-0.089,0.0556-0.1794,0.109-0.271,0.1603
				c-0.0917,0.0513-0.1847,0.1005-0.2789,0.1474c-0.0471,0.0235-0.0946,0.0464-0.1423,0.0687
				c-0.0954,0.0447-0.1921,0.0872-0.2899,0.1273c-0.929,0.3813-1.9599,0.5538-3.0293,0.4639
				c-0.8606-0.0724-1.668-0.3085-2.3948-0.6746C97.1686,88.6182,97.1024,88.5834,97.037,88.5476z"/>
		</g>
	</g>
	<g>
		<g>
			<path class="st198" d="M94.5829,109.4471l-1.7284-0.1454c-0.143-1.1091-0.458-1.9749-0.8986-2.838l0.0083-0.0317l1.3263-1.1328
				c0.2945-0.2488,0.3322-0.696,0.0833-0.9906l-1.9466-2.3077c-0.249-0.2946-0.6893-0.3334-0.984-0.0844l-1.3044,1.1203
				c-0.8045-0.5873-1.5165-1.0188-2.5874-1.3302l0.0006-0.0079l0.1454-1.7287c0.0323-0.3843-0.2969-0.6899-0.6812-0.7222
				l-3.0063-0.2528c-0.3843-0.0323-0.5505,0.2316-0.5829,0.6159l-0.1454,1.7285c-1.1091,0.1429-2.0064,0.4553-2.8695,0.8957
				l-0.0473-0.0096l-1.1405-1.3268c-0.2489-0.2946-0.6999-0.3325-0.9944-0.0836l-2.3099,1.9466
				c-0.2945,0.2488-0.3342,0.6892-0.0854,0.9836l1.1144,1.3697c-0.5874,0.8044-1.0248,1.5817-1.3361,2.6526l-0.008-0.0006
				l-1.7287-0.1454c-0.3842-0.0323-0.6161,0.1717-0.6484,0.556l-0.2528,3.0063c-0.0323,0.3843,0.1579,0.6757,0.5421,0.708
				l1.7285,0.1454c0.143,1.1091,0.4607,1.9411,0.9013,2.8043l-0.0069,0.0146l-1.3255,1.1243
				c-0.2946,0.2489-0.3319,0.6917-0.083,0.9864l1.9469,2.3057c0.2489,0.2946,0.6893,0.3323,0.9838,0.0834l1.4012-1.1128
				c0.8045,0.5874,1.6133,1.0264,2.6841,1.3377l-0.0007,0.008l-0.1454,1.7287c-0.0323,0.3841,0.0979,0.7412,0.4821,0.7736
				l3.0064,0.2528c0.3842,0.0323,0.7495-0.283,0.7818-0.6673l0.1454-1.7286c1.1091-0.143,1.9096-0.4633,2.7728-0.9039l-0.001,0.0056
				l1.1165,1.3248c0.2488,0.2946,0.6879,0.3317,0.9823,0.0826l2.3037-1.947c0.2946-0.2488,0.3313-0.6894,0.0823-0.9839
				l-1.1187-1.3361c0.5875-0.8045,1.0389-1.7659,1.3319-2.6189l0.0078,0.0006l1.7288,0.1454
				c0.3842,0.0323,0.8151-0.223,0.8474-0.6074l0.2528-3.0062C95.3563,109.7195,94.9671,109.4794,94.5829,109.4471z
				 M81.4742,114.4682c-0.0403-0.0221-0.0804-0.0445-0.1198-0.0678c-0.121-0.0714-0.2382-0.1485-0.3511-0.2308
				c-0.0564-0.0411-0.1119-0.0836-0.1662-0.1274c-0.0543-0.0437-0.1075-0.0887-0.1596-0.135
				c-0.026-0.0231-0.0518-0.0465-0.0772-0.0702c-0.1472-0.1371-0.2846-0.2842-0.4114-0.44s-0.2428-0.3204-0.3471-0.4926
				c-0.0417-0.0689-0.0816-0.139-0.1195-0.2102c-0.1138-0.2137-0.2101-0.4376-0.2872-0.6697
				c-0.18-0.5416-0.2556-1.1277-0.2047-1.7325c0.1068-1.2701,0.7499-2.3665,1.6877-3.0851c0.0828-0.0634,0.1678-0.1239,0.255-0.1813
				c0.0291-0.0191,0.0584-0.0379,0.0879-0.0564c0.0591-0.0369,0.119-0.0724,0.1799-0.1064c0.1825-0.1022,0.373-0.1915,0.5699-0.2667
				c0.0656-0.0251,0.132-0.0486,0.199-0.0706c0.5363-0.1755,1.1159-0.2487,1.7136-0.1985c0.7098,0.0597,1.3653,0.2868,1.9309,0.6393
				c0.0595,0.0371,0.1181,0.0756,0.1756,0.1155c0.0863,0.0597,0.1702,0.1225,0.2517,0.1881
				c0.0543,0.0437,0.1075,0.0887,0.1596,0.135c0.026,0.0231,0.0518,0.0465,0.0772,0.0702c0.0509,0.0474,0.1007,0.0961,0.1492,0.1458
				c0.0728,0.0746,0.1429,0.1519,0.2102,0.2315c0.0449,0.0531,0.0884,0.1072,0.1307,0.1624
				c0.1057,0.138,0.2032,0.2822,0.2919,0.4321c0.0355,0.06,0.0696,0.1208,0.1022,0.1825c0.0326,0.0617,0.0638,0.1243,0.0934,0.1876
				c0.0445,0.095,0.0856,0.1918,0.1233,0.2903c0.2258,0.5908,0.3256,1.2403,0.2691,1.9127
				c-0.0314,0.3736-0.1092,0.7321-0.2273,1.0704c-0.0236,0.0676-0.0488,0.1345-0.0756,0.2005
				c-0.0402,0.099-0.0839,0.1961-0.1309,0.2911c-0.0313,0.0633-0.0642,0.1258-0.0985,0.1873
				c-0.0228,0.0409-0.0465,0.0813-0.0706,0.1214c-0.0483,0.0803-0.0988,0.1591-0.1519,0.2358
				c-0.0398,0.0575-0.081,0.114-0.1235,0.1694c-0.0337,0.0441-0.0686,0.0872-0.104,0.1299
				c-0.0313,0.0378-0.0631,0.0753-0.0956,0.112c-0.0231,0.026-0.0466,0.0518-0.0703,0.0772
				c-0.0474,0.0509-0.096,0.1007-0.1458,0.1492c-0.0249,0.0243-0.0501,0.0482-0.0755,0.0719
				c-0.0509,0.0473-0.1029,0.0934-0.156,0.1383c-0.0265,0.0224-0.0533,0.0446-0.0804,0.0664
				c-0.1082,0.0871-0.2207,0.1691-0.3369,0.2456c-0.0291,0.0191-0.0584,0.0379-0.0879,0.0563
				c-0.059,0.0369-0.119,0.0724-0.1799,0.1064c-0.0608,0.034-0.1226,0.0667-0.1851,0.0978
				c-0.0313,0.0156-0.0628,0.0308-0.0944,0.0456c-0.0633,0.0296-0.1275,0.0578-0.1924,0.0845
				c-0.6166,0.253-1.3008,0.3675-2.0106,0.3078c-0.5712-0.048-1.1071-0.2048-1.5894-0.4477
				C81.5615,114.5151,81.5176,114.492,81.4742,114.4682z"/>
		</g>
	</g>
	<g>
		<path class="st59" d="M309.3717,46.7913c0,0-41.9464-21.7056-77.2538,2.6442c0,0-25.554,17.183-27.8242,50.0342
			c-0.2356,3.4091,0.2311,6.8256,1.2857,10.076c0.012,0.037,0.0239,0.0743,0.0359,0.1118c1.1649,3.663,0.5071,7.6635-1.723,10.7943
			l-12.6628,17.7775c0,0-2.2793,3.0378,0.0036,5.625c0,0,4.9405,4.2582,10.5715,4.4104c0,0,1.8207,0.3775,1.8207,2.2038v6.3157
			c0,0-3.3028,3.5764-2.9984,4.7178c0,0,1.7658,0.5082,3.8699,0.1316c0.5219-0.0934,1.0575,0.1856,1.2355,0.6849
			c0.081,0.2274,0.0854,0.478-0.084,0.7182c-0.1482,0.2101-0.3717,0.5021-0.5772,0.7155c-0.4131,0.429-1.0623,1.122-2.5687,1.1739
			c0,0-1.3716,1.0653-0.002,3.4242c0,0,0.779,1.2175,3.8608,0.6468c0,0-0.8268,7.6727-0.4336,13.9986
			c0.2326,3.743,2.0396,7.2403,5.0441,9.4846c1.8418,1.3758,4.1762,2.3301,6.87,1.7417h97.5795c0,0,0.4565-2.6633-1.2936-5.7831
			c-1.5975-2.8477-2.5146-13.4419-0.8651-20.1833c0.3097-1.2658,1.2076-4.9262,1.5046-6.195
			c1.2852-5.4893,5.1898-15.713,11.0071-26.8478c3.4196-6.5454,6.0514-12.4178,7.2842-19.2129
			c0.9305-5.1289,1.6782-11.4759,1.7248-18.7455c0.075-11.7161-2.8541-23.2821-8.757-33.4028
			C322.2113,57.311,316.817,50.7572,309.3717,46.7913z"/>
	</g>
	<g>
		<g>
			<path class="st198" d="M257.6521,68.3403l-2.4315,8.5208c-0.3109,1.0893,0.6073,2.2389,1.6963,2.5496l4.8999,1.3983
				l0.0221,0.0063c-0.082,2.6479,0.1583,5.7581,0.9355,8.5788l-4.4623,2.5068c-0.9899,0.55-1.3474,1.7984-0.7969,2.7883
				l4.3036,7.7435c0.55,0.9903,1.7946,1.3451,2.7843,0.7945l4.4445-2.478l0.0029-0.0163c1.9128,2.1077,3.7787,3.8201,6.6766,5.3661
				l-1.3981,4.8994c-0.3108,1.0891,0.3649,2.3352,1.4538,2.6459l8.5211,2.4316c1.0891,0.3107,1.8181-0.5349,2.1288-1.6236
				l1.3982-4.8997l0.0065-0.0227c3.2654,0.2583,5.9434-0.1066,8.7641-0.8837l2.6919,4.5137c0.5504,0.99,1.7992,1.3446,2.7892,0.7941
				l7.7455-4.3091c0.9901-0.5505,1.348-1.8057,0.7978-2.7957l-2.472-4.4667l-0.0038-0.0474
				c2.1077-1.9128,3.8457-3.8679,5.3918-6.7658l4.8992,1.398c1.089,0.3108,1.9145-0.2921,2.2253-1.3812l2.4315-8.521
				c0.3109-1.0893-0.1139-1.8907-1.2029-2.2014l-4.8997-1.3982l-0.0227-0.0065c0.2584-3.2654-0.1349-5.8552-0.9119-8.6758
				l4.4854-2.6036c0.9896-0.5502,1.3386-1.8012,0.7883-2.7908l-4.321-7.7489c-0.5503-0.9899-1.8287-1.3548-2.8186-0.8043
				l-4.5126,2.4586l-0.14-0.0227c-1.9129-2.1075-4.0529-3.8984-6.9509-5.4444l1.398-4.8991
				c0.3108-1.0893,0.1286-1.9873-0.9605-2.2981l-8.521-2.4316c-1.0891-0.3108-2.3112,0.1864-2.6221,1.2757l-1.3982,4.8997
				l-0.0064,0.0224c-3.2654-0.2582-5.67,0.1865-8.4906,0.9634l-2.418-4.4336c-0.5507-0.9904-1.8004-1.3416-2.7906-0.7913
				l-7.7468,4.315c-0.99,0.5504-1.3517,1.818-0.8012,2.8077l2.4653,4.4907l-0.0101,0.0956
				c-2.1077,1.9125-3.8733,3.9634-5.4192,6.8613l-4.899-1.398C259.2818,66.9962,257.963,67.251,257.6521,68.3403z M290.7244,94.7835
				c-1.5776,0.1658-3.2126,0.0391-4.8316-0.4228c-2.0117-0.5741-3.7722-1.6001-5.2028-2.9363
				c-0.1505-0.1407-0.2975-0.2848-0.4406-0.4321c-0.0716-0.0737-0.1422-0.1482-0.212-0.2235
				c-0.1393-0.1506-0.275-0.3044-0.4067-0.4612c-0.1317-0.1568-0.2596-0.3166-0.3835-0.4793
				c-0.0619-0.0813-0.1229-0.1634-0.1828-0.2462c-0.2397-0.331-0.4634-0.6732-0.6702-1.0251
				c-0.0517-0.088-0.1024-0.1766-0.1519-0.2658c-0.0992-0.1784-0.1941-0.3591-0.2846-0.5421
				c-0.0453-0.0914-0.0895-0.1835-0.1327-0.276c-0.0862-0.1851-0.1679-0.3723-0.2453-0.5615
				c-0.0386-0.0946-0.0762-0.1897-0.1126-0.2852c-0.0513-0.1347-0.0995-0.2705-0.1463-0.407
				c-0.0529-0.154-0.1036-0.3088-0.1505-0.4649c-0.0591-0.1963-0.1135-0.3942-0.1631-0.5937
				c-0.0661-0.266-0.123-0.5347-0.1721-0.8056c-0.0244-0.1351-0.0476-0.2707-0.0677-0.4069
				c-0.0302-0.2046-0.0555-0.4102-0.0757-0.6169c-0.0303-0.31-0.0494-0.6221-0.0568-0.9358
				c-0.0049-0.2092-0.0047-0.419,0.0009-0.6294c0.0275-1.0521,0.1866-2.1179,0.4887-3.1767
				c0.5439-1.9059,1.4933-3.5862,2.7279-4.9741c0.2057-0.2313,0.4195-0.4545,0.6404-0.6693
				c0.1474-0.1432,0.2981-0.2826,0.4518-0.4182c0.1537-0.1356,0.3106-0.2673,0.4704-0.3952
				c0.3994-0.3195,0.8174-0.6145,1.2511-0.8835c0.1735-0.1076,0.3495-0.211,0.5278-0.3102
				c0.2675-0.1487,0.5405-0.2879,0.8181-0.4172c0.1851-0.0862,0.3723-0.168,0.5615-0.2453
				c0.0946-0.0387,0.1897-0.0762,0.2852-0.1127c0.1911-0.0728,0.384-0.1411,0.5787-0.2048
				c0.2919-0.0956,0.5877-0.1807,0.8869-0.2551c0.1993-0.0496,0.4002-0.0945,0.6023-0.1345c1.9203-0.38,3.9572-0.3224,5.9689,0.2517
				c1.6941,0.4834,3.2101,1.2873,4.5007,2.3271c0.1614,0.13,0.3192,0.2636,0.4734,0.4008c0.4626,0.4115,0.8928,0.8548,1.288,1.3252
				c0.1317,0.1568,0.2596,0.3166,0.3835,0.4794c0.0619,0.0813,0.1228,0.1634,0.1828,0.2461
				c0.1798,0.2483,0.3505,0.5028,0.5119,0.763c1.829,2.9492,2.4554,6.6295,1.4281,10.2294c-0.4891,1.714-1.3063,3.2455-2.3638,4.546
				c-0.4532,0.5574-0.9506,1.0724-1.4853,1.541c-0.1782,0.1562-0.3607,0.3073-0.5468,0.4531
				c-0.4657,0.3644-0.9555,0.6959-1.4657,0.9921c-0.5102,0.2963-1.0407,0.5573-1.5876,0.7808
				c-0.0945,0.0387-0.1896,0.0762-0.2852,0.1126c-0.1911,0.0729-0.384,0.1412-0.5787,0.2048
				c-0.1947,0.0637-0.391,0.1227-0.5889,0.1771c-0.3958,0.1087-0.7977,0.1985-1.2045,0.2688
				c-0.1327,0.0229-0.266,0.043-0.3997,0.0617C291.0139,94.7505,290.8693,94.7683,290.7244,94.7835z"/>
		</g>
	</g>
	<g>
		<g>
			<path class="st198" d="M221.6793,86.0694l0.3809,4.5294c0.0487,0.5791,0.6979,0.9638,1.2768,0.9152l2.6047-0.219l0.0117-0.001
				c0.4416,1.2852,1.1216,2.7337,2.0068,3.9458l-1.6856,2.013c-0.375,0.4437-0.3198,1.1075,0.1241,1.4824l3.471,2.9334
				c0.4437,0.3752,1.1052,0.3194,1.4801-0.1245l1.6822-1.996l-0.0015-0.0084c1.3004,0.6638,2.5066,1.1465,4.1777,1.3619
				l0.219,2.6044c0.0487,0.5789,0.5992,1.0541,1.178,1.0054l4.5296-0.3809c0.5789-0.0487,0.7751-0.5868,0.7264-1.1655l-0.219-2.6046
				l-0.001-0.0121c1.6135-0.4691,2.832-1.1305,4.0441-2.0156l2.1111,1.6766c0.4438,0.375,1.1073,0.3183,1.4824-0.1256l2.9334-3.474
				c0.375-0.4439,0.3188-1.1111-0.125-1.4861l-1.9972-1.694l-0.0105-0.022c0.6638-1.3004,1.1426-2.554,1.358-4.2251l2.6043-0.219
				c0.5789-0.0487,0.8654-0.4878,0.8167-1.0668l-0.381-4.5296c-0.0487-0.5791-0.398-0.8864-0.9769-0.8377l-2.6046,0.2191
				l-0.0121,0.001c-0.4691-1.6135-1.1281-2.7846-2.0131-3.9966l1.6791-2.0637c0.3748-0.4437,0.315-1.1073-0.1286-1.482
				l-3.4803-2.9328c-0.4438-0.375-1.1234-0.3178-1.4983,0.126l-1.7185,1.9991l-0.0713,0.0145
				c-1.3005-0.6636-2.6524-1.1342-4.3234-1.3496l-0.219-2.6042c-0.0487-0.5791-0.2992-0.9767-0.8782-0.9281l-4.5296,0.3809
				c-0.579,0.0487-1.075,0.5092-1.0263,1.0882l0.2191,2.6046l0.001,0.0119c-1.6135,0.4691-2.6864,1.1192-3.8984,2.0042
				l-1.9652-1.6879c-0.4441-0.3751-1.1074-0.3167-1.4826,0.1272l-2.9329,3.477c-0.375,0.4439-0.3183,1.1177,0.1255,1.4925
				l1.9983,1.7067l0.0125,0.0477c-0.6638,1.3003-1.1385,2.6048-1.3539,4.2759l-2.6042,0.219
				C222.2171,85.1286,221.6306,85.4904,221.6793,86.0694z M242.3482,92.7495c-0.7268,0.3661-1.5342,0.6022-2.3948,0.6746
				c-1.0694,0.0899-2.1003-0.0826-3.0293-0.4639c-0.0978-0.0401-0.1945-0.0826-0.2899-0.1273
				c-0.0477-0.0224-0.0951-0.0453-0.1423-0.0687c-0.0942-0.047-0.1872-0.0961-0.2789-0.1474
				c-0.0916-0.0513-0.182-0.1048-0.271-0.1603c-0.0444-0.0278-0.0886-0.0561-0.1324-0.0849
				c-0.1751-0.1153-0.3446-0.2388-0.5077-0.3701c-0.0408-0.0328-0.0812-0.0661-0.1212-0.0999
				c-0.08-0.0675-0.1583-0.137-0.235-0.2084c-0.0384-0.0356-0.0763-0.0718-0.1138-0.1083c-0.075-0.0731-0.1482-0.1481-0.2197-0.2248
				c-0.0357-0.0383-0.071-0.0772-0.1058-0.1164c-0.0491-0.0553-0.0969-0.1117-0.1441-0.1687
				c-0.0533-0.0643-0.1058-0.1293-0.1566-0.1957c-0.064-0.0835-0.126-0.1685-0.1861-0.2552
				c-0.08-0.1156-0.1562-0.2342-0.2289-0.3552c-0.0363-0.0604-0.072-0.1212-0.1064-0.1829
				c-0.0517-0.0926-0.1012-0.1867-0.1484-0.2822c-0.0708-0.1432-0.1367-0.2895-0.1972-0.4386
				c-0.0404-0.0995-0.0783-0.2002-0.1139-0.3021c-0.1778-0.5098-0.2951-1.0499-0.3425-1.6128
				c-0.0852-1.0131,0.0652-1.9917,0.4054-2.8818c0.0567-0.1483,0.1187-0.2942,0.1857-0.4374
				c0.0447-0.0955,0.0916-0.1897,0.1408-0.2827c0.0491-0.093,0.1004-0.1846,0.1539-0.275c0.1336-0.2259,0.2805-0.4432,0.4398-0.651
				c0.0637-0.0832,0.1293-0.1647,0.1969-0.2447c0.1013-0.1199,0.207-0.2363,0.3167-0.3487c0.0731-0.075,0.1481-0.1482,0.2248-0.2197
				c0.0384-0.0357,0.0772-0.071,0.1164-0.1058c0.0785-0.0697,0.1586-0.1374,0.2405-0.2033
				c0.1227-0.0989,0.2491-0.1934,0.3792-0.2835c0.0866-0.06,0.1748-0.118,0.2645-0.1739c0.8523-0.5311,1.8399-0.8733,2.9093-0.9633
				c0.9005-0.0757,1.7738,0.0346,2.5819,0.2991c0.101,0.0331,0.201,0.0685,0.2999,0.1063c0.2967,0.1134,0.5835,0.248,0.8586,0.4019
				c0.0917,0.0513,0.182,0.1048,0.271,0.1604c0.0444,0.0278,0.0886,0.0561,0.1324,0.0849c0.1314,0.0865,0.2595,0.1776,0.3842,0.2731
				c1.413,1.0827,2.3819,2.7346,2.5429,4.6482c0.0766,0.9111-0.0373,1.7943-0.3085,2.6103
				c-0.1162,0.3497-0.2613,0.6871-0.4327,1.009c-0.0571,0.1073-0.1172,0.2129-0.1801,0.3167
				c-0.1572,0.2594-0.332,0.5074-0.523,0.7422c-0.191,0.2348-0.3981,0.4563-0.6198,0.6629
				c-0.0383,0.0357-0.0772,0.071-0.1164,0.1058c-0.0785,0.0697-0.1586,0.1374-0.2404,0.2033
				c-0.0818,0.0659-0.1653,0.1299-0.2504,0.1919c-0.1702,0.1241-0.3466,0.2401-0.529,0.3477
				c-0.0595,0.0351-0.1198,0.0689-0.1805,0.1022C242.4812,92.6811,242.415,92.7158,242.3482,92.7495z"/>
		</g>
	</g>
	<g>
		<g>
			<path class="st198" d="M244.2596,114.2015l0.2528,3.0062c0.0323,0.3843,0.4632,0.6397,0.8474,0.6074l1.7288-0.1454l0.0078-0.0007
				c0.2931,0.853,0.7445,1.8144,1.332,2.6189l-1.1187,1.3361c-0.2489,0.2945-0.2123,0.7351,0.0823,0.9839l2.3037,1.947
				c0.2945,0.249,0.7335,0.212,0.9823-0.0826l1.1165-1.3248l-0.001-0.0056c0.8631,0.4406,1.6637,0.7609,2.7728,0.9039l0.1454,1.7286
				c0.0323,0.3843,0.3977,0.6996,0.7818,0.6673l3.0064-0.2528c0.3843-0.0323,0.5145-0.3895,0.4821-0.7736l-0.1454-1.7287
				l-0.0007-0.008c1.0709-0.3114,1.8797-0.7504,2.6841-1.3377l1.4012,1.1127c0.2946,0.2489,0.735,0.2113,0.9839-0.0834
				l1.9469-2.3057c0.2489-0.2946,0.2116-0.7375-0.083-0.9864l-1.3255-1.1243l-0.0069-0.0146
				c0.4406-0.8631,0.7583-1.6952,0.9013-2.8043l1.7285-0.1454c0.3842-0.0323,0.5744-0.3238,0.5421-0.708l-0.2528-3.0063
				c-0.0323-0.3843-0.2642-0.5883-0.6484-0.556l-1.7287,0.1454l-0.008,0.0006c-0.3113-1.0709-0.7487-1.8481-1.3362-2.6526
				l1.1144-1.3697c0.2488-0.2945,0.2091-0.7349-0.0854-0.9836l-2.3099-1.9466c-0.2946-0.2489-0.7456-0.211-0.9944,0.0836
				l-1.1405,1.3268l-0.0473,0.0096c-0.8631-0.4405-1.7604-0.7528-2.8695-0.8957l-0.1454-1.7285
				c-0.0323-0.3843-0.1986-0.6483-0.5829-0.6159l-3.0063,0.2528c-0.3843,0.0323-0.7135,0.338-0.6812,0.7222l0.1454,1.7287
				l0.0006,0.0079c-1.0709,0.3114-1.7829,0.7428-2.5874,1.3302l-1.3044-1.1203c-0.2947-0.249-0.735-0.2102-0.984,0.0844
				l-1.9466,2.3077c-0.2489,0.2946-0.2113,0.7418,0.0833,0.9906l1.3263,1.1328l0.0083,0.0317
				c-0.4406,0.8631-0.7556,1.7289-0.8986,2.838l-1.7284,0.1454C244.6165,113.577,244.2273,113.8171,244.2596,114.2015z
				 M257.9778,118.635c-0.4824,0.243-1.0182,0.3997-1.5894,0.4477c-0.7098,0.0597-1.394-0.0548-2.0106-0.3078
				c-0.0649-0.0267-0.129-0.0548-0.1924-0.0845c-0.0317-0.0149-0.0632-0.0301-0.0945-0.0456
				c-0.0625-0.0312-0.1243-0.0638-0.1851-0.0978c-0.0608-0.034-0.1208-0.0696-0.1799-0.1064
				c-0.0295-0.0184-0.0588-0.0372-0.0879-0.0563c-0.1162-0.0765-0.2287-0.1585-0.3369-0.2456
				c-0.0271-0.0218-0.0539-0.0439-0.0805-0.0663c-0.0531-0.0448-0.1051-0.0909-0.1559-0.1383
				c-0.0255-0.0237-0.0506-0.0476-0.0755-0.0719c-0.0498-0.0486-0.0983-0.0983-0.1458-0.1492
				c-0.0237-0.0254-0.0471-0.0512-0.0703-0.0772c-0.0325-0.0367-0.0643-0.0742-0.0956-0.112
				c-0.0354-0.0426-0.0702-0.0858-0.104-0.1299c-0.0424-0.0554-0.0836-0.1119-0.1235-0.1694
				c-0.0531-0.0767-0.1036-0.1555-0.1519-0.2358c-0.0241-0.0401-0.0478-0.0805-0.0706-0.1214
				c-0.0343-0.0615-0.0671-0.124-0.0985-0.1873c-0.047-0.095-0.0907-0.1921-0.1309-0.2911c-0.0268-0.066-0.052-0.1329-0.0756-0.2005
				c-0.118-0.3383-0.1959-0.6968-0.2273-1.0704c-0.0565-0.6724,0.0432-1.3219,0.2691-1.9127
				c0.0376-0.0985,0.0788-0.1953,0.1233-0.2903c0.0296-0.0633,0.0608-0.1259,0.0934-0.1876
				c0.0326-0.0617,0.0667-0.1226,0.1022-0.1825c0.0887-0.1499,0.1862-0.2942,0.2919-0.4321
				c0.0422-0.0552,0.0858-0.1093,0.1307-0.1624c0.0672-0.0796,0.1374-0.1568,0.2102-0.2315
				c0.0486-0.0498,0.0983-0.0984,0.1492-0.1458c0.0255-0.0237,0.0512-0.0471,0.0772-0.0702
				c0.0521-0.0462,0.1053-0.0912,0.1596-0.1349c0.0815-0.0656,0.1654-0.1284,0.2517-0.1881
				c0.0575-0.0398,0.1161-0.0783,0.1756-0.1154c0.5657-0.3525,1.2212-0.5796,1.931-0.6393c0.5977-0.0503,1.1773,0.023,1.7136,0.1985
				c0.067,0.022,0.1334,0.0455,0.199,0.0706c0.1969,0.0753,0.3873,0.1646,0.5699,0.2667c0.0609,0.034,0.1208,0.0695,0.1799,0.1064
				c0.0295,0.0184,0.0588,0.0373,0.0879,0.0564c0.0872,0.0574,0.1722,0.1178,0.255,0.1813c0.9379,0.7186,1.5809,1.815,1.6877,3.0851
				c0.0508,0.6047-0.0247,1.1909-0.2047,1.7325c-0.0771,0.2321-0.1734,0.456-0.2872,0.6697
				c-0.0379,0.0712-0.0778,0.1413-0.1195,0.2102c-0.1043,0.1722-0.2203,0.3368-0.3471,0.4926
				c-0.1267,0.1558-0.2642,0.3029-0.4114,0.44c-0.0254,0.0237-0.0512,0.0471-0.0772,0.0702
				c-0.0521,0.0463-0.1053,0.0912-0.1596,0.135c-0.0543,0.0437-0.1097,0.0862-0.1661,0.1274
				c-0.1129,0.0823-0.2301,0.1594-0.3511,0.2308c-0.0395,0.0233-0.0795,0.0457-0.1198,0.0678
				C258.066,118.5897,258.0221,118.6127,257.9778,118.635z"/>
		</g>
	</g>
</g>
</svg>
