<?xml version="1.0" encoding="utf-8"?>
<!-- Generator: Adobe Illustrator 21.0.2, SVG Export Plug-In . SVG Version: 6.00 Build 0)  -->
<svg version="1.1" id="Capa_1" xmlns="http://www.w3.org/2000/svg" xmlns:xlink="http://www.w3.org/1999/xlink" x="0px" y="0px"
	 viewBox="0 0 351.9747 497.4165" style="enable-background:new 0 0 351.9747 497.4165;" xml:space="preserve">
<style type="text/css">
	.st0{fill-rule:evenodd;clip-rule:evenodd;fill:#DDDDDD;}
	.st1{fill:#3B86B1;}
	.st2{opacity:0.25;fill-rule:evenodd;clip-rule:evenodd;fill:#020202;}
	.st3{fill:#FFFFFF;}
	.st4{opacity:0.5;}
	.st5{fill-rule:evenodd;clip-rule:evenodd;fill:#A8A8A8;}
	.st6{fill-rule:evenodd;clip-rule:evenodd;fill:#FFFFFF;}
	.st7{fill-rule:evenodd;clip-rule:evenodd;fill:#3B86B1;}
	.st8{opacity:0.5;fill:#2C6882;}
	.st9{opacity:0.75;fill-rule:evenodd;clip-rule:evenodd;fill:#282828;}
	.st10{opacity:0.5;fill:#FFFFFF;}
	.st11{fill-rule:evenodd;clip-rule:evenodd;fill:none;stroke:#FFFFFF;stroke-miterlimit:10;}
	.st12{fill:none;stroke:#FFFFFF;stroke-miterlimit:10;}
	.st13{fill:#FFFFFF;stroke:#3B86B1;stroke-width:1.7139;stroke-miterlimit:10;}
	.st14{fill-rule:evenodd;clip-rule:evenodd;}
	.st15{opacity:0.85;fill:#FFFFFF;}
	.st16{opacity:0.5;fill-rule:evenodd;clip-rule:evenodd;}
	.st17{fill-rule:evenodd;clip-rule:evenodd;fill:#FEFEFE;}
	.st18{fill:#312767;}
	.st19{opacity:0.48;}
	.st20{opacity:0.25;}
	.st21{fill-rule:evenodd;clip-rule:evenodd;fill:#020202;}
	.st22{fill:#757575;}
	.st23{opacity:0.25;clip-path:url(#XMLID_3720_);}
	.st24{fill:#FFFFFF;stroke:#312767;stroke-miterlimit:10;}
	.st25{fill:#ACABC9;}
	.st26{fill-rule:evenodd;clip-rule:evenodd;fill:#312767;}
	.st27{opacity:0.77;fill:#312767;}
	.st28{opacity:0.25;clip-path:url(#XMLID_3721_);}
	.st29{fill:#9490B2;stroke:#2D2D2D;stroke-width:0.25;stroke-miterlimit:10;}
	.st30{fill:#312767;stroke:#2D2D2D;stroke-width:0.25;stroke-miterlimit:10;}
	.st31{fill:#FCFCFC;}
	.st32{fill:#FFFFFF;stroke:#2D2D2D;stroke-width:0.25;stroke-miterlimit:10;}
	.st33{fill-rule:evenodd;clip-rule:evenodd;fill:#484849;stroke:#2D2D2D;stroke-width:0.25;stroke-miterlimit:10;}
	.st34{fill-rule:evenodd;clip-rule:evenodd;fill:#312767;stroke:#2D2D2D;stroke-width:0.25;stroke-miterlimit:10;}
	.st35{fill-rule:evenodd;clip-rule:evenodd;fill:#FFFFFF;stroke:#2D2D2D;stroke-width:0.25;stroke-miterlimit:10;}
	.st36{fill:#484849;stroke:#2D2D2D;stroke-width:0.25;stroke-miterlimit:10;}
	.st37{fill:#FFFFFF;stroke:#FFFFFF;stroke-miterlimit:10;}
	.st38{fill:#54518C;}
	.st39{opacity:0.25;fill-rule:evenodd;clip-rule:evenodd;fill:#FFFFFF;}
	.st40{fill:#D4A800;}
	.st41{fill:#00AEB3;}
	.st42{fill:#38353B;}
	.st43{fill:#FF8400;}
	.st44{fill:#BF3900;}
	.st45{fill:#00AA9C;}
	.st46{opacity:0.25;clip-path:url(#XMLID_3722_);}
	.st47{fill:none;stroke:#ACABC9;stroke-width:5;stroke-miterlimit:10;}
	.st48{opacity:0.25;clip-path:url(#XMLID_3723_);}
	.st49{fill:#DDDDDD;}
	.st50{opacity:0.25;clip-path:url(#XMLID_3724_);}
	.st51{fill-rule:evenodd;clip-rule:evenodd;fill:#FFFFFF;stroke:#FFFFFF;stroke-miterlimit:10;}
	.st52{fill:#F79748;}
	.st53{fill:#FF7900;}
	.st54{fill:#DD7105;}
	.st55{fill:#02897C;}
	.st56{fill:#0EAD9A;}
	.st57{fill:#28C6AF;}
	.st58{fill:#4FE0C7;}
	.st59{fill:#D37D00;}
	.st60{fill:#D14600;}
	.st61{fill:#E5B92E;}
	.st62{fill:#DD571B;}
	.st63{fill:#E28A17;}
	.st64{opacity:0.25;clip-path:url(#XMLID_3725_);}
	.st65{fill:#4D4789;}
	.st66{opacity:0.77;fill:#FFFFFF;}
	.st67{fill:#50565B;stroke:#656C70;stroke-miterlimit:10;}
	.st68{fill:#808589;stroke:#656C70;stroke-miterlimit:10;}
	.st69{fill:#252728;stroke:#000000;stroke-miterlimit:10;}
	.st70{fill:#1A1B1C;stroke:#000000;stroke-miterlimit:10;}
	.st71{fill:#A0A6AA;}
	.st72{fill:#262C35;stroke:#161A1E;stroke-miterlimit:10;}
	.st73{fill:#181D23;}
	.st74{fill:#EABA96;stroke:#E0AA86;stroke-miterlimit:10;}
	.st75{fill:#E0AA86;}
	.st76{stroke:#000000;stroke-width:0.75;stroke-linecap:square;stroke-linejoin:bevel;stroke-miterlimit:10;}
	.st77{fill:#0F1C3F;stroke:#182951;stroke-miterlimit:10;}
	.st78{fill:#132354;stroke:#3F6093;stroke-miterlimit:10;}
	.st79{fill:#0F1C3F;}
	.st80{fill:none;stroke:#3F6093;stroke-width:0.75;stroke-miterlimit:10;}
	.st81{fill:#DBA682;}
	.st82{fill:none;stroke:#E0AA86;stroke-miterlimit:10;}
	.st83{fill:none;stroke:#E0AA86;stroke-linejoin:bevel;stroke-miterlimit:10;}
	.st84{fill:#8A0A8E;stroke:#AC34B2;stroke-miterlimit:10;}
	.st85{fill:#810C87;}
	.st86{fill:#680B6D;}
	.st87{fill:#AC34B2;stroke:#AC34B2;stroke-width:0.5;stroke-miterlimit:10;}
	.st88{fill:none;stroke:#959DA0;stroke-width:0.5;stroke-miterlimit:10;}
	.st89{fill:#959DA0;stroke:#959DA0;stroke-width:0.5;stroke-miterlimit:10;}
	.st90{fill:none;stroke:#AC34B2;stroke-miterlimit:10;}
	.st91{fill:#282828;stroke:#000000;stroke-miterlimit:10;}
	.st92{fill:#EABA96;stroke:#E0AA86;stroke-width:0.5;stroke-miterlimit:10;}
	.st93{fill:#B7896A;}
	.st94{stroke:#000000;stroke-miterlimit:10;}
	.st95{fill:#C1A578;}
	.st96{stroke:#000000;stroke-width:0.25;stroke-linecap:round;stroke-linejoin:round;stroke-miterlimit:10;}
	.st97{fill:#FFFFFF;stroke:#000000;stroke-width:0.25;stroke-linecap:round;stroke-linejoin:round;stroke-miterlimit:10;}
	.st98{fill:#70582D;}
	.st99{stroke:#000000;stroke-linecap:round;stroke-linejoin:round;stroke-miterlimit:10;}
	.st100{fill:none;stroke:#D8A27D;stroke-width:0.75;stroke-miterlimit:10;}
	.st101{fill:#561409;}
	.st102{fill:#BA2A13;}
	.st103{fill:#9E3025;stroke:#4C2311;stroke-width:0.25;stroke-miterlimit:10;}
	.st104{fill:#871D08;stroke:#4C2311;stroke-width:0.25;stroke-miterlimit:10;}
	.st105{fill:#DDAC8A;}
	.st106{fill:#A5ABAD;stroke:#959DA0;stroke-width:0.5;stroke-miterlimit:10;}
	.st107{fill:#B1BABC;}
	.st108{fill:none;stroke:#153847;stroke-width:5;stroke-miterlimit:10;}
	.st109{fill:#3CA7AF;}
	.st110{fill:#3DAD8D;}
	.st111{fill:#3DAA61;}
	.st112{fill:#67A53F;}
	.st113{fill:#95A340;}
	.st114{fill:#153847;}
	.st115{opacity:0.25;clip-path:url(#XMLID_3726_);}
	.st116{opacity:0.25;clip-path:url(#XMLID_3727_);}
	.st117{opacity:0.25;clip-path:url(#XMLID_3728_);}
	.st118{opacity:0.25;clip-path:url(#XMLID_3729_);}
	.st119{clip-path:url(#SVGID_2_);}
	.st120{fill:none;stroke:#3F6093;stroke-miterlimit:10;}
	.st121{fill:none;stroke:#3F6093;stroke-width:0.75;stroke-linecap:round;stroke-linejoin:round;}
	.st122{fill:none;stroke:#3F6093;stroke-width:0.75;stroke-linecap:round;stroke-linejoin:round;stroke-dasharray:0.9892,0.9892;}
	
		.st123{fill:none;stroke:#3F6093;stroke-width:0.75;stroke-linecap:round;stroke-linejoin:round;stroke-miterlimit:10;stroke-dasharray:1;}
	.st124{fill:#EAEAEA;stroke:#FFFFFF;stroke-width:0.25;stroke-miterlimit:10;}
	.st125{fill:#D8D8D8;}
	.st126{fill:#282828;stroke:#000000;stroke-width:0.75;stroke-miterlimit:10;}
	.st127{opacity:0.33;fill:#FFFFFF;}
	.st128{fill:none;stroke:#000000;stroke-width:1.5;stroke-linecap:round;stroke-linejoin:round;stroke-miterlimit:10;}
	.st129{opacity:0.64;}
	.st130{fill:#C9C9C9;}
	.st131{fill:#FFF064;}
	.st132{fill:#4F4E4F;}
	.st133{fill:#1E2F47;}
	.st134{opacity:0.1;fill:#FFFFFF;}
	.st135{opacity:0.1;}
	.st136{opacity:0.4;fill:#FFFFFF;}
	.st137{fill-rule:evenodd;clip-rule:evenodd;fill:#F39C12;}
	.st138{fill-rule:evenodd;clip-rule:evenodd;fill:#E6E6E6;}
	.st139{fill-rule:evenodd;clip-rule:evenodd;fill:#474646;}
	.st140{fill-rule:evenodd;clip-rule:evenodd;fill:#D84848;}
	.st141{opacity:0.2;fill-rule:evenodd;clip-rule:evenodd;fill:#231F20;}
	.st142{opacity:0.1;fill-rule:evenodd;clip-rule:evenodd;fill:#231F20;}
	.st143{fill-rule:evenodd;clip-rule:evenodd;fill:#4D4D4D;}
	.st144{fill-rule:evenodd;clip-rule:evenodd;fill:#336699;}
	.st145{fill-rule:evenodd;clip-rule:evenodd;fill:#FF6633;}
	.st146{fill-rule:evenodd;clip-rule:evenodd;fill:#0056A3;}
	.st147{fill-rule:evenodd;clip-rule:evenodd;fill:#33CC99;}
	.st148{fill:#CE6405;}
	.st149{opacity:0.2;fill:#FFFFFF;}
	.st150{fill:#1ABC9C;}
	.st151{opacity:0.2;}
	.st152{fill:#0B2E44;}
	.st153{fill-rule:evenodd;clip-rule:evenodd;fill:#154F77;}
	.st154{fill-rule:evenodd;clip-rule:evenodd;fill:#0D3858;}
	.st155{fill-rule:evenodd;clip-rule:evenodd;fill:#FFFEFE;}
	.st156{fill:#AEC647;}
	.st157{fill:#F3AE1B;}
	.st158{fill:#DF3F11;}
	.st159{fill:#BCDEDE;}
	.st160{fill:#C84119;}
	.st161{fill:#6BB5CE;}
	.st162{fill:#00D0E5;}
	.st163{fill:#FF81ED;}
	.st164{fill:#00C982;}
	.st165{opacity:0.7;}
	.st166{opacity:0.4;}
	.st167{fill-rule:evenodd;clip-rule:evenodd;fill:#0B2E44;}
	.st168{opacity:0.8;fill-rule:evenodd;clip-rule:evenodd;fill:#FFFFFF;}
	.st169{fill:#424242;}
	.st170{opacity:0.2;fill-rule:evenodd;clip-rule:evenodd;fill:#FFFFFF;}
	.st171{fill:#D0EDFA;}
	.st172{fill:#FF651F;}
	.st173{fill:#0051C4;}
	.st174{fill:#E46400;}
	.st175{fill:#C0003B;}
	.st176{fill:#FFEA50;}
	.st177{fill:#FF2C0D;}
	.st178{fill:#FF1A2C;}
	.st179{fill:#FF2C4D;}
	.st180{fill:#FFD74C;}
	.st181{fill:#4C4C4B;}
	.st182{fill:#6CD2EA;}
	.st183{fill:#F7674F;}
	.st184{opacity:0.1;fill-rule:evenodd;clip-rule:evenodd;}
	.st185{fill:#BABABA;}
	.st186{fill:#F9B946;}
	.st187{fill:#DFC2A9;}
	.st188{fill:#BFA490;}
	.st189{fill:#F5D4B2;}
	.st190{fill:#DF584C;}
	.st191{fill:#C2443E;}
	.st192{fill:#DBDBDA;}
	.st193{fill:#2F363E;}
	.st194{fill:#332524;}
	.st195{fill:#473735;}
	.st196{opacity:0.25;clip-path:url(#XMLID_3730_);}
	.st197{fill:#52B8BA;}
	.st198{fill:#35373E;}
	.st199{opacity:0.25;clip-path:url(#XMLID_3731_);}
	.st200{opacity:0.31;fill:#34383A;}
	.st201{opacity:0.16;fill:#3D3835;}
	.st202{fill:#D0D1D4;}
	.st203{opacity:0.25;clip-path:url(#XMLID_3732_);}
	.st204{fill:#F9E1B4;}
	.st205{opacity:0.25;fill:#050505;}
	.st206{fill:#FCC60F;}
	.st207{fill:#74CAEA;}
	.st208{opacity:0.25;clip-path:url(#XMLID_3733_);}
	.st209{fill:#FABC8F;}
	.st210{fill:#3FA995;}
	.st211{opacity:0.17;fill:#020202;}
	.st212{fill:#E1E1E1;}
	.st213{opacity:0.25;clip-path:url(#XMLID_3734_);}
	.st214{fill:#BF8E00;}
	.st215{fill:#F7D8D7;}
	.st216{fill:#F18636;}
	.st217{fill:#004460;}
	.st218{fill:#D93A37;}
	.st219{fill:#EDEDED;}
	.st220{fill:#184F78;}
	.st221{fill:#FF3E03;}
	.st222{opacity:0.6;fill:#0F0F0F;}
	.st223{fill:#E8E8E6;}
	.st224{fill:#00EAA6;}
	.st225{fill-rule:evenodd;clip-rule:evenodd;fill:#FF3E03;}
	.st226{opacity:0.1;fill-rule:evenodd;clip-rule:evenodd;fill:#020202;}
	.st227{fill-rule:evenodd;clip-rule:evenodd;fill:#FABE00;}
	.st228{fill-rule:evenodd;clip-rule:evenodd;fill:#E6E8E8;}
	.st229{fill-rule:evenodd;clip-rule:evenodd;fill:#F7D959;}
	.st230{fill-rule:evenodd;clip-rule:evenodd;fill:#F9623E;}
	.st231{fill:#4F1A0F;}
	.st232{opacity:0.46;fill:#FFFFFF;}
	.st233{fill:#48505A;}
	.st234{fill:#C3C3C3;}
	.st235{fill:#E9E9EA;}
	.st236{fill:#9D9E9F;}
	.st237{fill:#F6F4F4;}
	.st238{fill:#6B6A6A;}
	.st239{fill:#C09478;}
	.st240{fill:#F7CDA0;}
	.st241{fill:#9E1010;}
	.st242{fill:#F2F2F2;}
	.st243{opacity:0.2;fill:#060606;}
	.st244{fill:#16AFBE;}
	.st245{fill:#DD2222;}
	.st246{fill:#FFEDDC;}
	.st247{fill:#22272B;}
	.st248{fill:#5B6375;}
</style>
<g>
	<g>
		<path class="st31" d="M234.2809,142.5764c0.7837-9.4378,0.8022-18.9358,0.0542-28.3651c-0.1943-2.347-0.4927-4.7078-1.3428-6.8914
			c-0.8232-2.191-2.293-4.0895-4.1001-5.5671c-3.647-2.9816-8.3232-4.4094-12.9683-4.967
			c-4.6772-0.5582-9.4287-0.4047-14.1484-0.3102c-2.354,0.0861-4.7119,0.2701-6.9805,0.833
			c-2.2573,0.5539-4.4463,1.5217-6.1265,3.105c-1.6782,1.5757-2.7642,3.737-3.1318,6.0072
			c-0.3784,2.2744-0.0566,4.6478,0.9019,6.746c0.9448,2.1118,2.4233,3.9647,4.1528,5.5157c1.7334,1.5556,3.7241,2.8219,5.833,3.8195
			c2.1006,1.0007,4.3579,1.717,6.6655,1.8017c2.3022,0.0822,4.6123-0.4976,6.6631-1.5652c2.0527-1.0668,3.8696-2.6029,5.249-4.4618
			c1.3818-1.8658,2.3428-4.0317,2.9209-6.2913c0.5791-2.2623,0.8276-4.6127,0.8135-6.9591c0.041-2.35-0.2412-4.6951-0.6592-7.0042
			c-0.877-4.6172-2.6128-9.0711-5.04-13.1008c-2.4087-4.0441-5.52-7.6671-9.1133-10.7096c-1.7808-1.546-3.7402-2.8688-5.7373-4.1168
			c-2.021-1.2159-4.1357-2.2681-6.3008-3.2048c-8.6929-3.6692-18.394-4.988-27.7788-3.6845
			c9.3672-1.4244,19.1177-0.2363,27.9204,3.3459c2.1895,0.924,4.3228,1.9821,6.3672,3.1973c2.02,1.2494,4.0039,2.5764,5.8096,4.1297
			c3.6436,3.0568,6.8047,6.7045,9.2603,10.7855c2.4736,4.0665,4.2534,8.5699,5.1646,13.2516
			c0.4351,2.3412,0.7314,4.722,0.7007,7.1112c0.0249,2.3846-0.2163,4.7852-0.8008,7.1141c-0.5845,2.3256-1.5674,4.5749-2.998,6.525
			c-1.4341,1.95-3.3179,3.5569-5.4595,4.6829c-2.1392,1.1257-4.5674,1.7507-7.0063,1.6743c-2.4395-0.0806-4.7969-0.819-6.9609-1.845
			c-2.1641-1.0355-4.2061-2.3457-5.9922-3.9628c-1.7817-1.6123-3.3164-3.5466-4.2998-5.7701c-1-2.2141-1.332-4.7347-0.9209-7.1327
			c0.3994-2.397,1.5601-4.6864,3.3506-6.3522c1.793-1.6738,4.0889-2.6661,6.4126-3.2261c2.3364-0.5681,4.73-0.7415,7.1021-0.8183
			c4.7393-0.0734,9.4927-0.2084,14.229,0.3766c4.6978,0.5861,9.458,2.0526,13.1831,5.1257c1.8467,1.5209,3.3638,3.4986,4.1997,5.757
			c0.8604,2.2493,1.1582,4.647,1.3306,7.0078C235.3268,123.6444,235.1857,133.1487,234.2809,142.5764z"/>
		<path class="st31" d="M233.5734,143.0755c-3.9106-0.5579-7.8477-0.9201-11.7915-1.0856c-1.9712-0.0819-3.9468-0.12-5.9165-0.0956
			c-1.9624,0.04-3.9458,0.2073-5.7813,0.8651c-1.8379,0.6378-3.4165,1.892-4.5449,3.4601c-1.1318,1.583-1.7773,3.4648-2.29,5.3503
			c-1.0132,3.7875-1.397,7.7841-2.9536,11.4954c-0.8184,1.8293-1.9131,3.5317-3.2622,5.0177
			c-1.3799,1.4567-2.9731,2.6885-4.6758,3.7316c-3.4385,2.0507-7.2749,3.2994-11.1558,4.1228
			c-3.8965,0.7849-7.8521,1.2294-11.8335,1.2477c-3.9556-0.014-8.0566-0.4791-11.6714-2.364
			c-1.7866-0.9451-3.3906-2.2869-4.563-3.9529c-0.6162-0.8246-1.0415-1.794-1.2876-2.7902
			c-0.2432-0.9979-0.3374-2.0487-0.1445-3.0819c0.1748-1.0265,0.6563-2.0545,1.4976-2.7482
			c0.8203-0.7229,1.9126-1.0021,2.918-1.0811c2.0225-0.1031,3.9736-0.0511,5.9688,0.0438c1.9829,0.1123,3.9736,0.3371,5.9146,0.8386
			c1.9336,0.4957,3.8433,1.2512,5.4609,2.4767c1.6323,1.1949,2.9312,2.8405,3.7432,4.6809c0.8252,1.8354,1.3252,3.782,1.666,5.7335
			c1.52,7.8009,1.0039,15.9503-1.2891,23.5352c-2.3228,7.5754-6.4263,14.6161-12.0181,20.2101
			c5.5044-5.6801,9.4771-12.7597,11.6665-20.3152c2.2261-7.5447,2.6982-15.6252,1.1514-23.3336
			c-0.3472-1.9321-0.8525-3.842-1.6587-5.6084c-0.7944-1.7725-2.0322-3.3166-3.5952-4.4508
			c-1.5469-1.1605-3.3882-1.8809-5.272-2.3531c-1.8896-0.4779-3.8457-0.6896-5.8037-0.7898
			c-1.9482-0.0841-3.9546-0.1224-5.8755-0.0139c-0.9468,0.0812-1.8667,0.3355-2.542,0.9395
			c-0.6938,0.5769-1.103,1.4422-1.2544,2.3554c-0.1685,0.9139-0.0791,1.8768,0.1489,2.7897
			c0.2329,0.9169,0.6201,1.7916,1.1924,2.5463c1.1123,1.5629,2.6255,2.8118,4.3262,3.7081
			c3.4258,1.8149,7.4282,2.3089,11.3232,2.3396c3.9194,0.0036,7.856-0.417,11.7051-1.172
			c3.8379-0.7926,7.6216-2.0056,10.9946-3.9934c1.6689-1.011,3.2275-2.2035,4.5762-3.6113
			c1.3174-1.4369,2.3867-3.0809,3.1924-4.8542c1.5381-3.6027,1.9492-7.5842,2.9912-11.4121
			c0.5298-1.9066,1.1968-3.8305,2.3809-5.4701c1.1787-1.6216,2.8403-2.9347,4.752-3.5709c1.9087-0.6498,3.9238-0.7838,5.8989-0.7946
			c1.9805,0.006,3.9551,0.0746,5.9292,0.1871C225.738,142.0343,229.672,142.4575,233.5734,143.0755z"/>
		<path class="st31" d="M252.215,204.6288c-5.1924,2.9525-8.939,7.9521-11.1445,13.41c-2.2324,5.4857-3.1265,11.4598-2.9692,17.3555
			c0.0737,2.9475,0.3745,5.915,1.2993,8.707c0.8989,2.7975,2.5718,5.3101,4.7021,7.3163c2.1338,2.0132,4.6924,3.552,7.4048,4.6861
			c2.7183,1.1353,5.5762,1.9209,8.4712,2.4872c2.8945,0.5557,5.8428,0.9281,8.7798,1.092c2.9004,0.0967,5.9873-0.0931,8.4214-1.6663
			c1.1973-0.7738,2.1367-1.934,2.6055-3.275c0.4756-1.3428,0.5117-2.8257,0.2422-4.2358c-0.5269-2.8654-2.374-5.2869-4.4214-7.3582
			c-2.0981-2.059-4.2593-4.1166-6.7402-5.6542c-1.2407-0.7565-2.5645-1.3954-3.9639-1.7046
			c-1.3926-0.2926-2.8623-0.2777-4.1846,0.2417c-1.3345,0.4808-2.478,1.3973-3.2905,2.5614
			c-0.8213,1.1628-1.3423,2.5328-1.6714,3.9403c-0.6479,2.8328-0.6084,5.8135-0.2539,8.7167
			c0.7422,5.8546,1.8003,11.713,3.9106,17.2174c1.0522,2.7488,2.3813,5.3839,4.0107,7.8368
			c1.6157,2.4639,3.4546,4.7866,5.2314,7.1658c3.6133,4.7108,6.6294,9.9834,8.374,15.699c0.8916,2.8469,1.4839,5.7931,1.6909,8.7737
			c0.2207,2.9769,0.0835,5.9886-0.5239,8.9186c-1.1797,5.8505-4.083,11.3876-8.4111,15.5209
			c-2.1675,2.0526-4.6782,3.7711-7.4551,4.8932c-2.7598,1.158-5.7334,1.7491-8.7065,1.9176
			c-5.9761,0.3207-11.9116-1.0876-17.3813-3.3567c-5.4995-2.2611-10.6147-5.3055-15.7026-8.3387
			c5.1187,2.9808,10.2656,5.9714,15.7715,8.1686c5.4761,2.2065,11.3887,3.5389,17.2915,3.1604
			c2.9355-0.1873,5.8642-0.7736,8.5723-1.9242c2.7246-1.1118,5.1851-2.809,7.3096-4.8348c4.2422-4.0787,7.084-9.5454,8.2227-15.3042
			c0.5874-2.8812,0.7124-5.8492,0.4844-8.781c-0.2144-2.9358-0.8081-5.839-1.6987-8.6455
			c-1.7461-5.6415-4.7285-10.8193-8.3374-15.4917c-1.7783-2.364-3.6333-4.6888-5.2798-7.1793
			c-1.6616-2.4811-3.0283-5.1667-4.1045-7.9502c-2.1606-5.5818-3.2495-11.486-4.0117-17.3744
			c-0.3496-2.9686-0.3862-6.014,0.2988-8.972c0.3501-1.4696,0.9023-2.9225,1.7983-4.1829c0.8843-1.2612,2.1616-2.2787,3.625-2.798
			c1.4526-0.5641,3.0747-0.5746,4.5669-0.2521c1.5005,0.3379,2.8818,1.0156,4.1626,1.8021c2.5635,1.6051,4.7227,3.683,6.8403,5.7744
			c2.0708,2.1101,4.0068,4.6395,4.5581,7.6846c0.2798,1.4941,0.2407,3.0793-0.2808,4.5383c-0.5146,1.4598-1.5483,2.7219-2.8403,3.55
			c-1.2837,0.8595-2.7827,1.2784-4.2627,1.5287c-1.4912,0.2308-2.9966,0.2573-4.4888,0.1976
			c-2.9819-0.1771-5.9292-0.561-8.8535-1.1323c-2.9185-0.5817-5.8042-1.3851-8.5566-2.546
			c-2.7461-1.1599-5.3481-2.734-7.5225-4.8003c-2.1714-2.0579-3.8774-4.6432-4.7852-7.5045
			c-0.9307-2.8536-1.231-5.8577-1.2813-8.8251c-0.0977-5.9427,0.8643-11.9423,3.165-17.4337
			C243.1745,212.5052,246.9924,207.5267,252.215,204.6288z"/>
		<path class="st31" d="M80.6144,409.6078c-8.7275,4.0112-15.3599,12.165-17.5854,21.437
			c-2.2769,9.2775,0.0933,19.495,5.9902,26.9506c1.4819,1.8506,3.1245,3.6106,5.0898,4.9204
			c1.9316,1.2979,4.2842,2.1774,6.5825,1.8286c2.2573-0.3301,4.4985-1.7506,5.2324-3.9226
			c0.3735-1.0669,0.3071-2.2583-0.0913-3.3239c-0.3896-1.074-1.0825-2.037-1.9307-2.8175c-1.7007-1.5864-4.0454-2.3048-6.354-2.7231
			c-2.3413-0.3848-4.7251-0.7238-7.0806-0.6935c-2.3247,0.0447-4.7876,0.4213-6.5444,1.891
			c-0.8481,0.7383-1.4844,1.7145-1.7803,2.8125c-0.3081,1.101-0.356,2.2823-0.3955,3.4749
			c-0.1704,4.7792-0.3071,9.5781,0.4253,14.2808c0.7056,4.683,2.4512,9.2635,5.5562,12.8661
			c3.0605,3.6235,7.1563,6.3058,11.5815,8.014c4.4355,1.7303,9.2305,2.4316,13.9917,2.2917
			c4.7686-0.124,9.4971-1.0313,14.0757-2.3845c4.5762-1.3702,9.0483-3.124,13.3599-5.1832
			c4.2871-2.0707,8.4131-4.6754,11.5649-8.2872c3.1299-3.5709,5.3057-8.1766,5.2759-13.0084
			c0.0928,4.8313-2.0298,9.4918-5.1367,13.1281c-3.1294,3.6802-7.2568,6.3594-11.5425,8.4971
			c-4.3228,2.0994-8.7983,3.8691-13.3975,5.2711c-4.5996,1.3815-9.3628,2.3188-14.1855,2.4656
			c-4.8125,0.1633-9.6909-0.5259-14.2075-2.2656c-4.5073-1.7178-8.6992-4.4304-11.8564-8.134
			c-3.2051-3.6825-5.0239-8.4016-5.7593-13.1626c-0.7646-4.7854-0.6489-9.6288-0.4937-14.4152
			c0.0464-1.1963,0.0952-2.4337,0.4385-3.6478c0.332-1.2169,1.061-2.3383,2.0229-3.161c0.9697-0.8296,2.1631-1.3126,3.3555-1.6115
			c1.2007-0.2952,2.4272-0.4033,3.6431-0.4172c2.4429-0.0181,4.8267,0.3345,7.207,0.7357c2.3574,0.4412,4.8179,1.1846,6.6592,2.91
			c0.9077,0.8434,1.6528,1.8824,2.0781,3.0671c0.4341,1.1741,0.5073,2.5168,0.0811,3.7198
			c-0.4053,1.2095-1.2583,2.2225-2.2754,2.9344c-1.019,0.723-2.2109,1.1697-3.4375,1.3531c-2.5049,0.3617-4.958-0.5938-6.957-1.944
			c-2.0288-1.3672-3.688-3.1654-5.186-5.0519c-5.9556-7.6046-8.312-17.9617-5.9536-27.345
			C65.048,421.6021,71.8371,413.508,80.6144,409.6078z"/>
		<path class="st31" d="M81.7721,35.3461c-3.8745-2.3596-8.1641-3.96-12.5688-4.952c-4.4102-0.9996-8.9268-1.4336-13.4409-1.6382
			c-9.0322-0.4333-18.1118,0.0436-27.1616-0.8177c-4.502-0.4662-9.0635-1.0588-13.3276-2.7847
			c-1.0581-0.4389-2.0889-0.9521-3.0659-1.5586c-0.9751-0.6125-1.8789-1.3287-2.7393-2.0908
			c-1.688-1.5645-3.0859-3.4125-4.2578-5.3744c-2.3149-3.9686-3.7866-8.2823-5.084-12.669
			c-0.1274-0.5742-0.2139-1.2211,0.0229-1.8734C0.3844,0.9189,1.0465,0.4862,1.632,0.335c1.1768-0.293,2.3149-0.3598,3.4844-0.3276
			C7.445,0.0885,9.714,0.7736,11.7673,1.8294c4.1016,2.1506,7.3208,5.7962,9.2021,9.972c1.9326,4.1744,2.7939,8.7294,3.209,13.2471
			c0.1934,2.265,0.3379,4.533,0.2856,6.8183c-0.0581,2.2792-0.3491,4.5833-1.1064,6.7637
			c-1.5483,4.3923-4.7202,7.805-7.0688,11.6278c-2.4175,3.8059-4.4575,7.864-5.9067,12.135
			c-1.4453,4.2662-2.2754,8.7585-2.252,13.2655c0.0176,4.501,0.9229,9.0137,2.73,13.1519c1.8018,4.1314,4.5571,7.892,8.1597,10.6534
			c-3.6392-2.712-6.459-6.4472-8.3271-10.5786c-1.874-4.1382-2.8501-8.6738-2.9297-13.2232
			c-0.0552-4.5554,0.77-9.0955,2.2065-13.4075c1.4424-4.3166,3.48-8.4171,5.8975-12.2629c2.3633-3.8724,5.4937-7.296,6.9595-11.5449
			c1.4434-4.2537,1.104-8.8741,0.7295-13.3401c-0.4312-4.4754-1.3066-8.9544-3.21-13.0133
			c-1.8545-4.0659-4.9761-7.541-8.9243-9.6003c-1.9644-1.0215-4.1265-1.683-6.334-1.7695C3.9997,0.6833,2.8542,0.7576,1.8327,1.0069
			c-0.498,0.1395-0.8774,0.4068-1.0366,0.829c-0.1606,0.4222-0.1191,0.9551-0.001,1.4744
			c1.2471,4.2835,2.7065,8.6265,4.9517,12.5032c1.1392,1.9266,2.4927,3.7316,4.1221,5.2562
			c0.8311,0.742,1.7026,1.4399,2.6436,2.0374c0.9443,0.5917,1.9443,1.0958,2.9751,1.5292c4.1523,1.7065,8.689,2.3252,13.1621,2.8072
			c8.9966,0.9023,18.0762,0.4592,27.1313,0.9481c4.5239,0.2659,9.0522,0.7625,13.4644,1.825
			C73.6515,31.2712,77.9303,32.9349,81.7721,35.3461z"/>
	</g>
	<g>
		<path class="st3" d="M346.9963,190.201c3.2-5.1285,4.9784-10.7212,4.9784-16.5837c0-24.6503-31.1241-44.6334-69.5173-44.6334
			s-69.5168,19.9831-69.5168,44.6334c0,24.6504,31.1235,44.6334,69.5168,44.6334c17.5539,0,33.5756-4.1862,45.81-11.0768
			c5.3882,2.4146,10.8699,6.8768,11.1823,15.0669c0,0,13.9699-16.04,7.5547-32.02
			C347.0014,190.2138,346.9994,190.208,346.9963,190.201z"/>
		<g>
			<path class="st18" d="M260.9678,155.1378c0,0.333-0.0674,0.6445-0.2012,0.9365c-0.1348,0.292-0.3145,0.5469-0.541,0.7656
				c-0.2246,0.2188-0.4873,0.3906-0.7852,0.5166c-0.2988,0.125-0.6143,0.1875-0.9473,0.1875h-0.7041
				c-0.333,0-0.6484-0.0625-0.9463-0.1875c-0.2988-0.126-0.5605-0.2979-0.7871-0.5166c-0.2246-0.2188-0.4053-0.4736-0.5391-0.7656
				c-0.1348-0.292-0.2021-0.6035-0.2021-0.9365v-0.3896l0.8818-0.1436v0.5332c0,0.2188,0.0449,0.4229,0.1328,0.6113
				c0.0898,0.1895,0.209,0.3555,0.3594,0.5c0.1504,0.1426,0.3242,0.2559,0.5234,0.3379c0.1973,0.082,0.4063,0.123,0.625,0.123
				h0.6152c0.2188,0,0.4258-0.041,0.6221-0.123s0.3691-0.1953,0.5195-0.3379c0.1504-0.1445,0.2705-0.3105,0.3584-0.5
				c0.0898-0.1885,0.1338-0.3926,0.1338-0.6113v-0.2939c0-0.3369-0.0664-0.6172-0.1982-0.8408s-0.3076-0.4141-0.5264-0.5703
				c-0.2188-0.1582-0.4658-0.291-0.7412-0.4004c-0.2764-0.1094-0.5596-0.2188-0.8516-0.3281s-0.5752-0.2305-0.8516-0.3623
				c-0.2754-0.1318-0.5225-0.2979-0.7412-0.4951c-0.2188-0.1992-0.3945-0.4414-0.5264-0.7285s-0.1982-0.6406-0.1982-1.0596v-0.1846
				c0-0.333,0.0625-0.6445,0.1885-0.9365c0.125-0.292,0.2969-0.5469,0.5156-0.7656s0.4746-0.3906,0.7695-0.5166
				c0.293-0.125,0.6064-0.1875,0.9395-0.1875h0.6289c0.333,0,0.6445,0.0625,0.9365,0.1875c0.292,0.126,0.5469,0.2979,0.7656,0.5166
				s0.3906,0.4736,0.5166,0.7656c0.125,0.292,0.1875,0.6035,0.1875,0.9365v0.2529l-0.8818,0.1436v-0.3965
				c0-0.2188-0.041-0.4229-0.123-0.6113c-0.082-0.1895-0.1934-0.3545-0.335-0.4961s-0.3066-0.2529-0.4961-0.335
				c-0.1885-0.082-0.3926-0.123-0.6113-0.123h-0.5469c-0.2188,0-0.4229,0.041-0.6113,0.123c-0.1895,0.082-0.3555,0.1934-0.5,0.335
				c-0.1426,0.1416-0.2559,0.3066-0.3379,0.4961c-0.082,0.1885-0.123,0.3926-0.123,0.6113v0.1846
				c0,0.3145,0.0664,0.5791,0.1982,0.793s0.3076,0.3975,0.5264,0.5498c0.2188,0.1533,0.4658,0.2852,0.7422,0.3965
				c0.2754,0.1123,0.5586,0.2266,0.8506,0.3418c0.292,0.1172,0.5752,0.2441,0.8506,0.3828
				c0.2764,0.1396,0.5234,0.3105,0.7422,0.5137c0.2188,0.2021,0.3945,0.4492,0.5264,0.7412s0.1982,0.6475,0.1982,1.0664V155.1378z"
				/>
			<path class="st18" d="M267.0958,156.2863c-0.1064,0.251-0.2539,0.4697-0.4404,0.6563s-0.4053,0.334-0.6563,0.4414
				c-0.251,0.1064-0.5176,0.1602-0.7998,0.1602h-0.5605c-0.2822,0-0.5488-0.0537-0.7998-0.1602
				c-0.251-0.1074-0.4697-0.2549-0.6563-0.4414s-0.334-0.4053-0.4404-0.6563c-0.1074-0.251-0.1611-0.5176-0.1611-0.7998v-3.1582
				c0-0.2822,0.0537-0.5488,0.1611-0.7998c0.1064-0.251,0.2539-0.4697,0.4404-0.6563s0.4053-0.334,0.6563-0.4414
				c0.251-0.1064,0.5176-0.1602,0.7998-0.1602h0.5605c0.2822,0,0.5488,0.0537,0.7998,0.1602
				c0.251,0.1074,0.4697,0.2549,0.6563,0.4414s0.334,0.4053,0.4404,0.6563c0.1074,0.251,0.1611,0.5176,0.1611,0.7998v1.6475h-3.835
				v1.5586c0,0.1689,0.0322,0.3271,0.0957,0.4746c0.0635,0.1484,0.1504,0.2773,0.2598,0.3867s0.2383,0.1963,0.3867,0.2598
				c0.1475,0.0635,0.3057,0.0957,0.4746,0.0957h0.5605c0.1689,0,0.3271-0.0322,0.4746-0.0957
				c0.1484-0.0635,0.2773-0.1504,0.3867-0.2598s0.1963-0.2383,0.2598-0.3867c0.0635-0.1475,0.0957-0.3057,0.0957-0.4746v-0.4648
				l0.8408,0.1367v0.2803C267.2569,155.7687,267.2032,156.0353,267.0958,156.2863z M266.4161,152.2804
				c0-0.1689-0.0322-0.3271-0.0957-0.4746c-0.0635-0.1484-0.1504-0.2773-0.2598-0.3867s-0.2383-0.1963-0.3867-0.2598
				c-0.1475-0.0635-0.3057-0.0957-0.4746-0.0957h-0.5605c-0.1689,0-0.3271,0.0322-0.4746,0.0957
				c-0.1484,0.0635-0.2773,0.1504-0.3867,0.2598s-0.1963,0.2383-0.2598,0.3867c-0.0635,0.1475-0.0957,0.3057-0.0957,0.4746v1.0391
				h2.9941V152.2804z"/>
			<path class="st18" d="M269.2188,157.4073v-9.8027h0.8408v9.8027H269.2188z"/>
			<path class="st18" d="M276.5362,156.2863c-0.1064,0.251-0.2539,0.4697-0.4404,0.6563s-0.4053,0.334-0.6563,0.4414
				c-0.251,0.1064-0.5176,0.1602-0.7998,0.1602h-0.5605c-0.2822,0-0.5488-0.0537-0.7998-0.1602
				c-0.251-0.1074-0.4697-0.2549-0.6563-0.4414s-0.334-0.4053-0.4404-0.6563c-0.1074-0.251-0.1611-0.5176-0.1611-0.7998v-3.1582
				c0-0.2822,0.0537-0.5488,0.1611-0.7998c0.1064-0.251,0.2539-0.4697,0.4404-0.6563s0.4053-0.334,0.6563-0.4414
				c0.251-0.1064,0.5176-0.1602,0.7998-0.1602h0.5605c0.2822,0,0.5488,0.0537,0.7998,0.1602
				c0.251,0.1074,0.4697,0.2549,0.6563,0.4414s0.334,0.4053,0.4404,0.6563c0.1074,0.251,0.1611,0.5176,0.1611,0.7998v1.6475h-3.835
				v1.5586c0,0.1689,0.0322,0.3271,0.0957,0.4746c0.0635,0.1484,0.1504,0.2773,0.2598,0.3867s0.2383,0.1963,0.3867,0.2598
				c0.1475,0.0635,0.3057,0.0957,0.4746,0.0957h0.5605c0.1689,0,0.3271-0.0322,0.4746-0.0957
				c0.1484-0.0635,0.2773-0.1504,0.3867-0.2598s0.1963-0.2383,0.2598-0.3867c0.0635-0.1475,0.0957-0.3057,0.0957-0.4746v-0.4648
				l0.8408,0.1367v0.2803C276.6973,155.7687,276.6436,156.0353,276.5362,156.2863z M275.8565,152.2804
				c0-0.1689-0.0322-0.3271-0.0957-0.4746c-0.0635-0.1484-0.1504-0.2773-0.2598-0.3867s-0.2383-0.1963-0.3867-0.2598
				c-0.1475-0.0635-0.3057-0.0957-0.4746-0.0957h-0.5605c-0.1689,0-0.3271,0.0322-0.4746,0.0957
				c-0.1484,0.0635-0.2773,0.1504-0.3867,0.2598s-0.1963,0.2383-0.2598,0.3867c-0.0635,0.1475-0.0957,0.3057-0.0957,0.4746v1.0391
				h2.9941V152.2804z"/>
			<path class="st18" d="M282.8936,156.2863c-0.1064,0.251-0.2539,0.4697-0.4404,0.6563s-0.4053,0.334-0.6563,0.4414
				c-0.251,0.1064-0.5176,0.1602-0.7998,0.1602h-0.5605c-0.2822,0-0.5488-0.0537-0.7998-0.1602
				c-0.251-0.1074-0.4697-0.2549-0.6563-0.4414s-0.334-0.4053-0.4404-0.6563c-0.1074-0.251-0.1611-0.5176-0.1611-0.7998v-3.1582
				c0-0.2822,0.0537-0.5488,0.1611-0.7998c0.1064-0.251,0.2539-0.4697,0.4404-0.6563s0.4053-0.334,0.6563-0.4414
				c0.251-0.1064,0.5176-0.1602,0.7998-0.1602h0.5605c0.2822,0,0.5488,0.0537,0.7998,0.1602
				c0.251,0.1074,0.4697,0.2549,0.6563,0.4414s0.334,0.4053,0.4404,0.6563c0.1074,0.251,0.1611,0.5176,0.1611,0.7998v0.2803
				l-0.8408,0.1367v-0.4648c0-0.1689-0.0322-0.3271-0.0957-0.4746c-0.0635-0.1484-0.1504-0.2773-0.2598-0.3867
				s-0.2383-0.1963-0.3867-0.2598c-0.1475-0.0635-0.3057-0.0957-0.4746-0.0957h-0.5605c-0.1689,0-0.3271,0.0322-0.4746,0.0957
				c-0.1484,0.0635-0.2773,0.1504-0.3867,0.2598s-0.1963,0.2383-0.2598,0.3867c-0.0635,0.1475-0.0957,0.3057-0.0957,0.4746v3.2539
				c0,0.1689,0.0322,0.3271,0.0957,0.4746c0.0635,0.1484,0.1504,0.2773,0.2598,0.3867s0.2383,0.1963,0.3867,0.2598
				c0.1475,0.0635,0.3057,0.0957,0.4746,0.0957h0.5605c0.1689,0,0.3271-0.0322,0.4746-0.0957
				c0.1484-0.0635,0.2773-0.1504,0.3867-0.2598s0.1963-0.2383,0.2598-0.3867c0.0635-0.1475,0.0957-0.3057,0.0957-0.4746v-0.4648
				l0.8408,0.1367v0.2803C283.0547,155.7687,283.001,156.0353,282.8936,156.2863z"/>
			<path class="st18" d="M289.251,156.2863c-0.1064,0.251-0.2539,0.4697-0.4404,0.6563s-0.4053,0.334-0.6563,0.4414
				c-0.251,0.1064-0.5176,0.1602-0.7998,0.1602h-0.5605c-0.2822,0-0.5488-0.0537-0.7998-0.1602
				c-0.251-0.1074-0.4697-0.2549-0.6563-0.4414s-0.334-0.4053-0.4404-0.6563c-0.1074-0.251-0.1611-0.5176-0.1611-0.7998v-3.1582
				c0-0.2822,0.0537-0.5488,0.1611-0.7998c0.1064-0.251,0.2539-0.4697,0.4404-0.6563s0.4053-0.334,0.6563-0.4414
				c0.251-0.1064,0.5176-0.1602,0.7998-0.1602h0.5605c0.2822,0,0.5488,0.0537,0.7998,0.1602
				c0.251,0.1074,0.4697,0.2549,0.6563,0.4414s0.334,0.4053,0.4404,0.6563c0.1074,0.251,0.1611,0.5176,0.1611,0.7998v0.2803
				l-0.8408,0.1367v-0.4648c0-0.1689-0.0322-0.3271-0.0957-0.4746c-0.0635-0.1484-0.1504-0.2773-0.2598-0.3867
				s-0.2383-0.1963-0.3867-0.2598c-0.1475-0.0635-0.3057-0.0957-0.4746-0.0957h-0.5605c-0.1689,0-0.3271,0.0322-0.4746,0.0957
				c-0.1484,0.0635-0.2773,0.1504-0.3867,0.2598s-0.1963,0.2383-0.2598,0.3867c-0.0635,0.1475-0.0957,0.3057-0.0957,0.4746v3.2539
				c0,0.1689,0.0322,0.3271,0.0957,0.4746c0.0635,0.1484,0.1504,0.2773,0.2598,0.3867s0.2383,0.1963,0.3867,0.2598
				c0.1475,0.0635,0.3057,0.0957,0.4746,0.0957h0.5605c0.1689,0,0.3271-0.0322,0.4746-0.0957
				c0.1484-0.0635,0.2773-0.1504,0.3867-0.2598s0.1963-0.2383,0.2598-0.3867c0.0635-0.1475,0.0957-0.3057,0.0957-0.4746v-0.4648
				l0.8408,0.1367v0.2803C289.4122,155.7687,289.3585,156.0353,289.251,156.2863z"/>
			<path class="st18" d="M291.3057,148.7257v-1.1211h0.9775v1.1211H291.3057z M291.3741,157.4073v-7h0.8408v7H291.3741z"/>
			<path class="st18" d="M298.6915,156.2863c-0.1064,0.251-0.2539,0.4697-0.4404,0.6563s-0.4053,0.334-0.6563,0.4414
				c-0.251,0.1064-0.5176,0.1602-0.7998,0.1602h-0.5605c-0.2822,0-0.5488-0.0537-0.7998-0.1602
				c-0.251-0.1074-0.4697-0.2549-0.6563-0.4414s-0.334-0.4053-0.4404-0.6563c-0.1074-0.251-0.1611-0.5176-0.1611-0.7998v-3.1582
				c0-0.2822,0.0537-0.5488,0.1611-0.7998c0.1064-0.251,0.2539-0.4697,0.4404-0.6563s0.4053-0.334,0.6563-0.4414
				c0.251-0.1064,0.5176-0.1602,0.7998-0.1602h0.5605c0.2822,0,0.5488,0.0537,0.7998,0.1602
				c0.251,0.1074,0.4697,0.2549,0.6563,0.4414s0.334,0.4053,0.4404,0.6563c0.1074,0.251,0.1611,0.5176,0.1611,0.7998v3.1582
				C298.8526,155.7687,298.7989,156.0353,298.6915,156.2863z M298.0118,152.2804c0-0.1689-0.0322-0.3271-0.0957-0.4746
				c-0.0635-0.1484-0.1504-0.2773-0.2598-0.3867s-0.2383-0.1963-0.3867-0.2598c-0.1475-0.0635-0.3057-0.0957-0.4746-0.0957h-0.5605
				c-0.1689,0-0.3271,0.0322-0.4746,0.0957c-0.1484,0.0635-0.2773,0.1504-0.3867,0.2598s-0.1963,0.2383-0.2598,0.3867
				c-0.0635,0.1475-0.0957,0.3057-0.0957,0.4746v3.2539c0,0.1689,0.0322,0.3271,0.0957,0.4746
				c0.0635,0.1484,0.1504,0.2773,0.2598,0.3867s0.2383,0.1963,0.3867,0.2598c0.1475,0.0635,0.3057,0.0957,0.4746,0.0957h0.5605
				c0.1689,0,0.3271-0.0322,0.4746-0.0957c0.1484-0.0635,0.2773-0.1504,0.3867-0.2598s0.1963-0.2383,0.2598-0.3867
				c0.0635-0.1475,0.0957-0.3057,0.0957-0.4746V152.2804z"/>
			<path class="st18" d="M304.3692,157.4073v-5.127c0-0.1689-0.0322-0.3271-0.0957-0.4746
				c-0.0635-0.1484-0.1504-0.2773-0.2598-0.3867s-0.2383-0.1963-0.3867-0.2598c-0.1475-0.0635-0.3057-0.0957-0.4746-0.0957h-0.5605
				c-0.1689,0-0.3271,0.0322-0.4746,0.0957c-0.1484,0.0635-0.2773,0.1504-0.3867,0.2598s-0.1963,0.2383-0.2598,0.3867
				c-0.0635,0.1475-0.0957,0.3057-0.0957,0.4746v5.127h-0.8408v-7h0.2803l0.458,0.7109c0.1914-0.2598,0.4316-0.4658,0.7217-0.6191
				c0.2891-0.1523,0.6045-0.2285,0.9463-0.2285h0.2119c0.2822,0,0.5488,0.0537,0.7998,0.1602
				c0.251,0.1074,0.4697,0.2549,0.6563,0.4414s0.334,0.4053,0.4404,0.6563c0.1074,0.251,0.1611,0.5176,0.1611,0.7998v5.0791
				H304.3692z"/>
			<path class="st18" d="M311.2872,157.4073l-0.4648-0.6973c-0.1914,0.251-0.4307,0.4521-0.7178,0.6055
				c-0.2871,0.1523-0.6016,0.2285-0.9434,0.2285h-0.2119c-0.2822,0-0.5488-0.0537-0.7998-0.1602
				c-0.251-0.1074-0.4697-0.2549-0.6563-0.4414s-0.334-0.4053-0.4404-0.6563c-0.1074-0.251-0.1611-0.5176-0.1611-0.7998v-0.0684
				c0-0.2822,0.0537-0.5488,0.1611-0.7998c0.1064-0.251,0.2539-0.4697,0.4404-0.6563s0.4053-0.334,0.6563-0.4414
				c0.251-0.1064,0.5176-0.1602,0.7998-0.1602h1.7773v-1.0801c0-0.1689-0.0322-0.3271-0.0957-0.4746
				c-0.0635-0.1484-0.1504-0.2773-0.2598-0.3867s-0.2383-0.1963-0.3867-0.2598c-0.1475-0.0635-0.3057-0.0957-0.4746-0.0957h-0.4922
				c-0.1689,0-0.3271,0.0322-0.4746,0.0957c-0.1484,0.0635-0.2773,0.1504-0.3867,0.2598s-0.1963,0.2383-0.2598,0.3867
				c-0.0635,0.1475-0.0957,0.3057-0.0957,0.4746v0.2529l-0.8408-0.1367v-0.0684c0-0.2822,0.0537-0.5488,0.1611-0.7998
				c0.1064-0.251,0.2539-0.4697,0.4404-0.6563s0.4053-0.334,0.6563-0.4414c0.251-0.1064,0.5176-0.1602,0.7998-0.1602h0.4922
				c0.2822,0,0.5488,0.0537,0.7998,0.1602c0.251,0.1074,0.4697,0.2549,0.6563,0.4414s0.334,0.4053,0.4404,0.6563
				c0.1074,0.251,0.1611,0.5176,0.1611,0.7998v5.0791H311.2872z M310.7266,154.0167h-1.7773c-0.1689,0-0.3271,0.0322-0.4746,0.0957
				c-0.1484,0.0635-0.2773,0.1514-0.3867,0.2637c-0.1094,0.1113-0.1963,0.2412-0.2598,0.3887
				c-0.0635,0.1484-0.0957,0.3066-0.0957,0.4756v0.2939c0,0.1689,0.0322,0.3271,0.0957,0.4746
				c0.0635,0.1484,0.1504,0.2773,0.2598,0.3867s0.2383,0.1963,0.3867,0.2598c0.1475,0.0635,0.3057,0.0957,0.4746,0.0957h0.5605
				c0.1689,0,0.3271-0.0322,0.4746-0.0957c0.1484-0.0635,0.2773-0.1504,0.3867-0.2598s0.1963-0.2383,0.2598-0.3867
				c0.0635-0.1475,0.0957-0.3057,0.0957-0.4746V154.0167z"/>
			<path class="st18" d="M239.2315,169.2863c-0.1064,0.251-0.2539,0.4697-0.4404,0.6563s-0.4053,0.334-0.6563,0.4414
				c-0.251,0.1064-0.5176,0.1602-0.7998,0.1602h-0.5605c-0.2822,0-0.5488-0.0537-0.7998-0.1602
				c-0.251-0.1074-0.4697-0.2549-0.6563-0.4414s-0.334-0.4053-0.4404-0.6563c-0.1074-0.251-0.1611-0.5176-0.1611-0.7998v-3.1582
				c0-0.2822,0.0537-0.5488,0.1611-0.7998c0.1064-0.251,0.2539-0.4697,0.4404-0.6563s0.4053-0.334,0.6563-0.4414
				c0.251-0.1064,0.5176-0.1602,0.7998-0.1602h0.5605c0.2822,0,0.5488,0.0537,0.7998,0.1602
				c0.251,0.1074,0.4697,0.2549,0.6563,0.4414s0.334,0.4053,0.4404,0.6563c0.1074,0.251,0.1611,0.5176,0.1611,0.7998v0.2803
				l-0.8408,0.1367v-0.4648c0-0.1689-0.0322-0.3271-0.0957-0.4746c-0.0635-0.1484-0.1504-0.2773-0.2598-0.3867
				s-0.2383-0.1963-0.3867-0.2598c-0.1475-0.0635-0.3057-0.0957-0.4746-0.0957h-0.5605c-0.1689,0-0.3271,0.0322-0.4746,0.0957
				c-0.1484,0.0635-0.2773,0.1504-0.3867,0.2598s-0.1963,0.2383-0.2598,0.3867c-0.0635,0.1475-0.0957,0.3057-0.0957,0.4746v3.2539
				c0,0.1689,0.0322,0.3271,0.0957,0.4746c0.0635,0.1484,0.1504,0.2773,0.2598,0.3867s0.2383,0.1963,0.3867,0.2598
				c0.1475,0.0635,0.3057,0.0957,0.4746,0.0957h0.5605c0.1689,0,0.3271-0.0322,0.4746-0.0957
				c0.1484-0.0635,0.2773-0.1504,0.3867-0.2598s0.1963-0.2383,0.2598-0.3867c0.0635-0.1475,0.0957-0.3057,0.0957-0.4746v-0.4648
				l0.8408,0.1367v0.2803C239.3926,168.7687,239.3389,169.0353,239.2315,169.2863z"/>
			<path class="st18" d="M245.4698,170.4073l-0.4648-0.6973c-0.1914,0.251-0.4307,0.4521-0.7178,0.6055
				c-0.2871,0.1523-0.6016,0.2285-0.9434,0.2285h-0.2119c-0.2822,0-0.5488-0.0537-0.7998-0.1602
				c-0.251-0.1074-0.4697-0.2549-0.6563-0.4414s-0.334-0.4053-0.4404-0.6563c-0.1074-0.251-0.1611-0.5176-0.1611-0.7998v-0.0684
				c0-0.2822,0.0537-0.5488,0.1611-0.7998c0.1064-0.251,0.2539-0.4697,0.4404-0.6563s0.4053-0.334,0.6563-0.4414
				c0.251-0.1064,0.5176-0.1602,0.7998-0.1602h1.7773v-1.0801c0-0.1689-0.0322-0.3271-0.0957-0.4746
				c-0.0635-0.1484-0.1504-0.2773-0.2598-0.3867s-0.2383-0.1963-0.3867-0.2598c-0.1475-0.0635-0.3057-0.0957-0.4746-0.0957h-0.4922
				c-0.1689,0-0.3271,0.0322-0.4746,0.0957c-0.1484,0.0635-0.2773,0.1504-0.3867,0.2598s-0.1963,0.2383-0.2598,0.3867
				c-0.0635,0.1475-0.0957,0.3057-0.0957,0.4746v0.2529l-0.8408-0.1367v-0.0684c0-0.2822,0.0537-0.5488,0.1611-0.7998
				c0.1064-0.251,0.2539-0.4697,0.4404-0.6563s0.4053-0.334,0.6563-0.4414c0.251-0.1064,0.5176-0.1602,0.7998-0.1602h0.4922
				c0.2822,0,0.5488,0.0537,0.7998,0.1602c0.251,0.1074,0.4697,0.2549,0.6563,0.4414s0.334,0.4053,0.4404,0.6563
				c0.1074,0.251,0.1611,0.5176,0.1611,0.7998v5.0791H245.4698z M244.9092,167.0167h-1.7773c-0.1689,0-0.3271,0.0322-0.4746,0.0957
				c-0.1484,0.0635-0.2773,0.1514-0.3867,0.2637c-0.1094,0.1113-0.1963,0.2412-0.2598,0.3887
				c-0.0635,0.1484-0.0957,0.3066-0.0957,0.4756v0.2939c0,0.1689,0.0322,0.3271,0.0957,0.4746
				c0.0635,0.1484,0.1504,0.2773,0.2598,0.3867s0.2383,0.1963,0.3867,0.2598c0.1475,0.0635,0.3057,0.0957,0.4746,0.0957h0.5605
				c0.1689,0,0.3271-0.0322,0.4746-0.0957c0.1484-0.0635,0.2773-0.1504,0.3867-0.2598s0.1963-0.2383,0.2598-0.3867
				c0.0635-0.1475,0.0957-0.3057,0.0957-0.4746V167.0167z"/>
			<path class="st18" d="M251.8272,170.4073l-0.4648-0.7109c-0.1914,0.2598-0.4307,0.4658-0.7178,0.6191
				c-0.2871,0.1523-0.6016,0.2285-0.9434,0.2285h-0.2119c-0.2822,0-0.5488-0.0537-0.7998-0.1602
				c-0.251-0.1074-0.4697-0.2549-0.6563-0.4414s-0.334-0.4053-0.4404-0.6563c-0.1074-0.251-0.1611-0.5176-0.1611-0.7998v-3.1582
				c0-0.2822,0.0537-0.5488,0.1611-0.7998c0.1064-0.251,0.2539-0.4697,0.4404-0.6563s0.4053-0.334,0.6563-0.4414
				c0.251-0.1064,0.5176-0.1602,0.7998-0.1602h0.2119c0.3145,0,0.6064,0.0635,0.875,0.1914s0.499,0.3057,0.6904,0.5332v-3.3906
				h0.8408v9.8027H251.8272z M251.2667,165.2804c0-0.1689-0.0322-0.3271-0.0957-0.4746c-0.0635-0.1484-0.1504-0.2773-0.2598-0.3867
				s-0.2383-0.1963-0.3867-0.2598c-0.1475-0.0635-0.3057-0.0957-0.4746-0.0957h-0.5605c-0.1689,0-0.3271,0.0322-0.4746,0.0957
				c-0.1484,0.0635-0.2773,0.1504-0.3867,0.2598s-0.1963,0.2383-0.2598,0.3867c-0.0635,0.1475-0.0957,0.3057-0.0957,0.4746v3.2539
				c0,0.1689,0.0322,0.3271,0.0957,0.4746c0.0635,0.1484,0.1504,0.2773,0.2598,0.3867s0.2383,0.1963,0.3867,0.2598
				c0.1475,0.0635,0.3057,0.0957,0.4746,0.0957h0.5605c0.1689,0,0.3271-0.0322,0.4746-0.0957
				c0.1484-0.0635,0.2773-0.1504,0.3867-0.2598s0.1963-0.2383,0.2598-0.3867c0.0635-0.1475,0.0957-0.3057,0.0957-0.4746V165.2804z"
				/>
			<path class="st18" d="M258.1846,170.4073l-0.4648-0.6973c-0.1914,0.251-0.4307,0.4521-0.7178,0.6055
				c-0.2871,0.1523-0.6016,0.2285-0.9434,0.2285h-0.2119c-0.2822,0-0.5488-0.0537-0.7998-0.1602
				c-0.251-0.1074-0.4697-0.2549-0.6563-0.4414s-0.334-0.4053-0.4404-0.6563c-0.1074-0.251-0.1611-0.5176-0.1611-0.7998v-0.0684
				c0-0.2822,0.0537-0.5488,0.1611-0.7998c0.1064-0.251,0.2539-0.4697,0.4404-0.6563s0.4053-0.334,0.6563-0.4414
				c0.251-0.1064,0.5176-0.1602,0.7998-0.1602h1.7773v-1.0801c0-0.1689-0.0322-0.3271-0.0957-0.4746
				c-0.0635-0.1484-0.1504-0.2773-0.2598-0.3867s-0.2383-0.1963-0.3867-0.2598c-0.1475-0.0635-0.3057-0.0957-0.4746-0.0957h-0.4922
				c-0.1689,0-0.3271,0.0322-0.4746,0.0957c-0.1484,0.0635-0.2773,0.1504-0.3867,0.2598s-0.1963,0.2383-0.2598,0.3867
				c-0.0635,0.1475-0.0957,0.3057-0.0957,0.4746v0.2529l-0.8408-0.1367v-0.0684c0-0.2822,0.0537-0.5488,0.1611-0.7998
				c0.1064-0.251,0.2539-0.4697,0.4404-0.6563s0.4053-0.334,0.6563-0.4414c0.251-0.1064,0.5176-0.1602,0.7998-0.1602h0.4922
				c0.2822,0,0.5488,0.0537,0.7998,0.1602c0.251,0.1074,0.4697,0.2549,0.6563,0.4414s0.334,0.4053,0.4404,0.6563
				c0.1074,0.251,0.1611,0.5176,0.1611,0.7998v5.0791H258.1846z M257.6241,167.0167h-1.7773c-0.1689,0-0.3271,0.0322-0.4746,0.0957
				c-0.1484,0.0635-0.2773,0.1514-0.3867,0.2637c-0.1094,0.1113-0.1963,0.2412-0.2598,0.3887
				c-0.0635,0.1484-0.0957,0.3066-0.0957,0.4756v0.2939c0,0.1689,0.0322,0.3271,0.0957,0.4746
				c0.0635,0.1484,0.1504,0.2773,0.2598,0.3867s0.2383,0.1963,0.3867,0.2598c0.1475,0.0635,0.3057,0.0957,0.4746,0.0957h0.5605
				c0.1689,0,0.3271-0.0322,0.4746-0.0957c0.1484-0.0635,0.2773-0.1504,0.3867-0.2598s0.1963-0.2383,0.2598-0.3867
				c0.0635-0.1475,0.0957-0.3057,0.0957-0.4746V167.0167z"/>
			<path class="st18" d="M265.9161,170.4073c-0.2549,0-0.4961-0.0479-0.7207-0.1436c-0.2266-0.0957-0.4219-0.2275-0.5879-0.3965
				c-0.167-0.1689-0.2988-0.3643-0.3965-0.5879c-0.0986-0.2236-0.1475-0.4629-0.1475-0.7178v-4.3545h-1.2578v-0.7998h1.2578v-1.6816
				l0.8408-0.1367v1.8184h1.7773v0.7998h-1.7773v4.3955c0,0.1416,0.0264,0.2725,0.0781,0.3926
				c0.0527,0.1211,0.125,0.2275,0.2158,0.3184s0.1982,0.1631,0.3213,0.2148c0.123,0.0527,0.2549,0.0791,0.3965,0.0791h0.7656v0.7998
				H265.9161z"/>
			<path class="st18" d="M272.7413,169.2863c-0.1064,0.251-0.2539,0.4697-0.4404,0.6563s-0.4053,0.334-0.6563,0.4414
				c-0.251,0.1064-0.5176,0.1602-0.7998,0.1602h-0.5605c-0.2822,0-0.5488-0.0537-0.7998-0.1602
				c-0.251-0.1074-0.4697-0.2549-0.6563-0.4414s-0.334-0.4053-0.4404-0.6563c-0.1074-0.251-0.1611-0.5176-0.1611-0.7998v-3.1582
				c0-0.2822,0.0537-0.5488,0.1611-0.7998c0.1064-0.251,0.2539-0.4697,0.4404-0.6563s0.4053-0.334,0.6563-0.4414
				c0.251-0.1064,0.5176-0.1602,0.7998-0.1602h0.5605c0.2822,0,0.5488,0.0537,0.7998,0.1602
				c0.251,0.1074,0.4697,0.2549,0.6563,0.4414s0.334,0.4053,0.4404,0.6563c0.1074,0.251,0.1611,0.5176,0.1611,0.7998v1.6475h-3.835
				v1.5586c0,0.1689,0.0322,0.3271,0.0957,0.4746c0.0635,0.1484,0.1504,0.2773,0.2598,0.3867s0.2383,0.1963,0.3867,0.2598
				c0.1475,0.0635,0.3057,0.0957,0.4746,0.0957h0.5605c0.1689,0,0.3271-0.0322,0.4746-0.0957
				c0.1484-0.0635,0.2773-0.1504,0.3867-0.2598s0.1963-0.2383,0.2598-0.3867c0.0635-0.1475,0.0957-0.3057,0.0957-0.4746v-0.4648
				l0.8408,0.1367v0.2803C272.9024,168.7687,272.8487,169.0353,272.7413,169.2863z M272.0616,165.2804
				c0-0.1689-0.0322-0.3271-0.0957-0.4746c-0.0635-0.1484-0.1504-0.2773-0.2598-0.3867s-0.2383-0.1963-0.3867-0.2598
				c-0.1475-0.0635-0.3057-0.0957-0.4746-0.0957h-0.5605c-0.1689,0-0.3271,0.0322-0.4746,0.0957
				c-0.1484,0.0635-0.2773,0.1504-0.3867,0.2598s-0.1963,0.2383-0.2598,0.3867c-0.0635,0.1475-0.0957,0.3057-0.0957,0.4746v1.0391
				h2.9941V165.2804z M270.2159,162.2863h-0.6289l1.1143-1.6816h1.4014L270.2159,162.2863z"/>
			<path class="st18" d="M276.6417,164.2072c-0.1689,0-0.3271,0.0322-0.4746,0.0957c-0.1484,0.0635-0.2773,0.1504-0.3867,0.2598
				s-0.1963,0.2383-0.2598,0.3857c-0.0635,0.1484-0.0957,0.3066-0.0957,0.4756v4.9834h-0.8408v-7h0.2803l0.458,0.7109
				c0.1914-0.2598,0.4316-0.4658,0.7217-0.6191c0.2891-0.1523,0.6045-0.2285,0.9463-0.2285h0.4922v0.9365H276.6417z"/>
			<path class="st18" d="M285.9932,170.4073v-5.127c0-0.1689-0.0322-0.3271-0.0957-0.4746
				c-0.0635-0.1484-0.1504-0.2773-0.2598-0.3867s-0.2383-0.1963-0.3867-0.2598c-0.1475-0.0635-0.3057-0.0957-0.4746-0.0957h-0.417
				c-0.1689,0-0.3271,0.0322-0.4756,0.0957c-0.1475,0.0635-0.2773,0.1504-0.3887,0.2598c-0.1123,0.1094-0.2002,0.2383-0.2637,0.3867
				c-0.0635,0.1475-0.0957,0.3057-0.0957,0.4746v5.127h-0.834v-5.127c0-0.1689-0.0322-0.3271-0.0957-0.4746
				c-0.0635-0.1484-0.1514-0.2773-0.2637-0.3867c-0.1113-0.1094-0.2412-0.1963-0.3887-0.2598
				c-0.1484-0.0635-0.3066-0.0957-0.4756-0.0957h-0.417c-0.1689,0-0.3271,0.0322-0.4746,0.0957
				c-0.1484,0.0635-0.2773,0.1504-0.3867,0.2598s-0.1963,0.2383-0.2598,0.3867c-0.0635,0.1475-0.0957,0.3057-0.0957,0.4746v5.127
				h-0.8408v-7h0.2803l0.458,0.7109c0.1914-0.2598,0.4316-0.4658,0.7217-0.6191c0.2891-0.1523,0.6045-0.2285,0.9463-0.2285h0.0684
				c0.3965,0,0.7539,0.0977,1.0732,0.2939s0.5654,0.4561,0.7383,0.7793c0.0869-0.1592,0.1934-0.3057,0.3213-0.4375
				s0.2686-0.2451,0.4238-0.3389c0.1553-0.0928,0.3232-0.166,0.5059-0.2188c0.1826-0.0518,0.3711-0.0781,0.5674-0.0781h0.0684
				c0.2822,0,0.5488,0.0537,0.7998,0.1602c0.251,0.1074,0.4697,0.2549,0.6563,0.4414s0.334,0.4053,0.4404,0.6563
				c0.1074,0.251,0.1611,0.5176,0.1611,0.7998v5.0791H285.9932z"/>
			<path class="st18" d="M288.7276,161.7257v-1.1211h0.9775v1.1211H288.7276z M288.796,170.4073v-7h0.8408v7H288.796z"/>
			<path class="st18" d="M295.4337,170.4073v-5.127c0-0.1689-0.0322-0.3271-0.0957-0.4746
				c-0.0635-0.1484-0.1504-0.2773-0.2598-0.3867s-0.2383-0.1963-0.3867-0.2598c-0.1475-0.0635-0.3057-0.0957-0.4746-0.0957h-0.5605
				c-0.1689,0-0.3271,0.0322-0.4746,0.0957c-0.1484,0.0635-0.2773,0.1504-0.3867,0.2598s-0.1963,0.2383-0.2598,0.3867
				c-0.0635,0.1475-0.0957,0.3057-0.0957,0.4746v5.127h-0.8408v-7h0.2803l0.458,0.7109c0.1914-0.2598,0.4316-0.4658,0.7217-0.6191
				c0.2891-0.1523,0.6045-0.2285,0.9463-0.2285h0.2119c0.2822,0,0.5488,0.0537,0.7998,0.1602
				c0.251,0.1074,0.4697,0.2549,0.6563,0.4414s0.334,0.4053,0.4404,0.6563c0.1074,0.251,0.1611,0.5176,0.1611,0.7998v5.0791
				H295.4337z"/>
			<path class="st18" d="M302.4708,169.2863c-0.1064,0.251-0.2539,0.4697-0.4404,0.6563s-0.4053,0.334-0.6563,0.4414
				c-0.251,0.1064-0.5176,0.1602-0.7998,0.1602h-0.5605c-0.2822,0-0.5488-0.0537-0.7998-0.1602
				c-0.251-0.1074-0.4697-0.2549-0.6563-0.4414s-0.334-0.4053-0.4404-0.6563c-0.1074-0.251-0.1611-0.5176-0.1611-0.7998v-3.1582
				c0-0.2822,0.0537-0.5488,0.1611-0.7998c0.1064-0.251,0.2539-0.4697,0.4404-0.6563s0.4053-0.334,0.6563-0.4414
				c0.251-0.1064,0.5176-0.1602,0.7998-0.1602h0.5605c0.2822,0,0.5488,0.0537,0.7998,0.1602
				c0.251,0.1074,0.4697,0.2549,0.6563,0.4414s0.334,0.4053,0.4404,0.6563c0.1074,0.251,0.1611,0.5176,0.1611,0.7998v3.1582
				C302.6319,168.7687,302.5782,169.0353,302.4708,169.2863z M301.7911,165.2804c0-0.1689-0.0322-0.3271-0.0957-0.4746
				c-0.0635-0.1484-0.1504-0.2773-0.2598-0.3867s-0.2383-0.1963-0.3867-0.2598c-0.1475-0.0635-0.3057-0.0957-0.4746-0.0957h-0.5605
				c-0.1689,0-0.3271,0.0322-0.4746,0.0957c-0.1484,0.0635-0.2773,0.1504-0.3867,0.2598s-0.1963,0.2383-0.2598,0.3867
				c-0.0635,0.1475-0.0957,0.3057-0.0957,0.4746v3.2539c0,0.1689,0.0322,0.3271,0.0957,0.4746
				c0.0635,0.1484,0.1504,0.2773,0.2598,0.3867s0.2383,0.1963,0.3867,0.2598c0.1475,0.0635,0.3057,0.0957,0.4746,0.0957h0.5605
				c0.1689,0,0.3271-0.0322,0.4746-0.0957c0.1484-0.0635,0.2773-0.1504,0.3867-0.2598s0.1963-0.2383,0.2598-0.3867
				c0.0635-0.1475,0.0957-0.3057,0.0957-0.4746V165.2804z"/>
			<path class="st18" d="M312.0479,169.2863c-0.1064,0.251-0.2539,0.4697-0.4404,0.6563s-0.4053,0.334-0.6563,0.4414
				c-0.251,0.1064-0.5176,0.1602-0.7998,0.1602h-0.2119c-0.3145,0-0.6064-0.0635-0.875-0.1914s-0.499-0.3057-0.6904-0.5332v3.3906
				h-0.8408v-9.8027h0.2803l0.458,0.7109c0.1914-0.2598,0.4316-0.4658,0.7217-0.6191c0.2891-0.1523,0.6045-0.2285,0.9463-0.2285
				h0.2119c0.2822,0,0.5488,0.0537,0.7998,0.1602c0.251,0.1074,0.4697,0.2549,0.6563,0.4414s0.334,0.4053,0.4404,0.6563
				c0.1074,0.251,0.1611,0.5176,0.1611,0.7998v3.1582C312.209,168.7687,312.1553,169.0353,312.0479,169.2863z M311.3682,165.2804
				c0-0.1689-0.0322-0.3271-0.0957-0.4746c-0.0635-0.1484-0.1504-0.2773-0.2598-0.3867s-0.2383-0.1963-0.3867-0.2598
				c-0.1475-0.0635-0.3057-0.0957-0.4746-0.0957h-0.5605c-0.1689,0-0.3271,0.0322-0.4746,0.0957
				c-0.1484,0.0635-0.2773,0.1504-0.3867,0.2598s-0.1963,0.2383-0.2598,0.3867c-0.0635,0.1475-0.0957,0.3057-0.0957,0.4746v3.2539
				c0,0.1689,0.0322,0.3271,0.0957,0.4746c0.0635,0.1484,0.1504,0.2773,0.2598,0.3867s0.2383,0.1963,0.3867,0.2598
				c0.1475,0.0635,0.3057,0.0957,0.4746,0.0957h0.5605c0.1689,0,0.3271-0.0322,0.4746-0.0957
				c0.1484-0.0635,0.2773-0.1504,0.3867-0.2598s0.1963-0.2383,0.2598-0.3867c0.0635-0.1475,0.0957-0.3057,0.0957-0.4746V165.2804z"
				/>
			<path class="st18" d="M318.2862,170.4073l-0.4648-0.6973c-0.1914,0.251-0.4307,0.4521-0.7178,0.6055
				c-0.2871,0.1523-0.6016,0.2285-0.9434,0.2285h-0.2119c-0.2822,0-0.5488-0.0537-0.7998-0.1602
				c-0.251-0.1074-0.4697-0.2549-0.6563-0.4414s-0.334-0.4053-0.4404-0.6563c-0.1074-0.251-0.1611-0.5176-0.1611-0.7998v-0.0684
				c0-0.2822,0.0537-0.5488,0.1611-0.7998c0.1064-0.251,0.2539-0.4697,0.4404-0.6563s0.4053-0.334,0.6563-0.4414
				c0.251-0.1064,0.5176-0.1602,0.7998-0.1602h1.7773v-1.0801c0-0.1689-0.0322-0.3271-0.0957-0.4746
				c-0.0635-0.1484-0.1504-0.2773-0.2598-0.3867s-0.2383-0.1963-0.3867-0.2598c-0.1475-0.0635-0.3057-0.0957-0.4746-0.0957h-0.4922
				c-0.1689,0-0.3271,0.0322-0.4746,0.0957c-0.1484,0.0635-0.2773,0.1504-0.3867,0.2598s-0.1963,0.2383-0.2598,0.3867
				c-0.0635,0.1475-0.0957,0.3057-0.0957,0.4746v0.2529l-0.8408-0.1367v-0.0684c0-0.2822,0.0537-0.5488,0.1611-0.7998
				c0.1064-0.251,0.2539-0.4697,0.4404-0.6563s0.4053-0.334,0.6563-0.4414c0.251-0.1064,0.5176-0.1602,0.7998-0.1602h0.4922
				c0.2822,0,0.5488,0.0537,0.7998,0.1602c0.251,0.1074,0.4697,0.2549,0.6563,0.4414s0.334,0.4053,0.4404,0.6563
				c0.1074,0.251,0.1611,0.5176,0.1611,0.7998v5.0791H318.2862z M317.7256,167.0167h-1.7773c-0.1689,0-0.3271,0.0322-0.4746,0.0957
				c-0.1484,0.0635-0.2773,0.1514-0.3867,0.2637c-0.1094,0.1113-0.1963,0.2412-0.2598,0.3887
				c-0.0635,0.1484-0.0957,0.3066-0.0957,0.4756v0.2939c0,0.1689,0.0322,0.3271,0.0957,0.4746
				c0.0635,0.1484,0.1504,0.2773,0.2598,0.3867s0.2383,0.1963,0.3867,0.2598c0.1475,0.0635,0.3057,0.0957,0.4746,0.0957h0.5605
				c0.1689,0,0.3271-0.0322,0.4746-0.0957c0.1484-0.0635,0.2773-0.1504,0.3867-0.2598s0.1963-0.2383,0.2598-0.3867
				c0.0635-0.1475,0.0957-0.3057,0.0957-0.4746V167.0167z"/>
			<path class="st18" d="M322.3057,164.2072c-0.1689,0-0.3271,0.0322-0.4746,0.0957c-0.1484,0.0635-0.2773,0.1504-0.3867,0.2598
				s-0.1963,0.2383-0.2598,0.3857c-0.0635,0.1484-0.0957,0.3066-0.0957,0.4756v4.9834h-0.8408v-7h0.2803l0.458,0.7109
				c0.1914-0.2598,0.4316-0.4658,0.7217-0.6191c0.2891-0.1523,0.6045-0.2285,0.9463-0.2285h0.4922v0.9365H322.3057z"/>
			<path class="st18" d="M328.6631,170.4073l-0.4648-0.6973c-0.1914,0.251-0.4307,0.4521-0.7178,0.6055
				c-0.2871,0.1523-0.6016,0.2285-0.9434,0.2285h-0.2119c-0.2822,0-0.5488-0.0537-0.7998-0.1602
				c-0.251-0.1074-0.4697-0.2549-0.6563-0.4414s-0.334-0.4053-0.4404-0.6563c-0.1074-0.251-0.1611-0.5176-0.1611-0.7998v-0.0684
				c0-0.2822,0.0537-0.5488,0.1611-0.7998c0.1064-0.251,0.2539-0.4697,0.4404-0.6563s0.4053-0.334,0.6563-0.4414
				c0.251-0.1064,0.5176-0.1602,0.7998-0.1602h1.7773v-1.0801c0-0.1689-0.0322-0.3271-0.0957-0.4746
				c-0.0635-0.1484-0.1504-0.2773-0.2598-0.3867s-0.2383-0.1963-0.3867-0.2598c-0.1475-0.0635-0.3057-0.0957-0.4746-0.0957h-0.4922
				c-0.1689,0-0.3271,0.0322-0.4746,0.0957c-0.1484,0.0635-0.2773,0.1504-0.3867,0.2598s-0.1963,0.2383-0.2598,0.3867
				c-0.0635,0.1475-0.0957,0.3057-0.0957,0.4746v0.2529l-0.8408-0.1367v-0.0684c0-0.2822,0.0537-0.5488,0.1611-0.7998
				c0.1064-0.251,0.2539-0.4697,0.4404-0.6563s0.4053-0.334,0.6563-0.4414c0.251-0.1064,0.5176-0.1602,0.7998-0.1602h0.4922
				c0.2822,0,0.5488,0.0537,0.7998,0.1602c0.251,0.1074,0.4697,0.2549,0.6563,0.4414s0.334,0.4053,0.4404,0.6563
				c0.1074,0.251,0.1611,0.5176,0.1611,0.7998v5.0791H328.6631z M328.1026,167.0167h-1.7773c-0.1689,0-0.3271,0.0322-0.4746,0.0957
				c-0.1484,0.0635-0.2773,0.1514-0.3867,0.2637c-0.1094,0.1113-0.1963,0.2412-0.2598,0.3887
				c-0.0635,0.1484-0.0957,0.3066-0.0957,0.4756v0.2939c0,0.1689,0.0322,0.3271,0.0957,0.4746
				c0.0635,0.1484,0.1504,0.2773,0.2598,0.3867s0.2383,0.1963,0.3867,0.2598c0.1475,0.0635,0.3057,0.0957,0.4746,0.0957h0.5605
				c0.1689,0,0.3271-0.0322,0.4746-0.0957c0.1484-0.0635,0.2773-0.1504,0.3867-0.2598s0.1963-0.2383,0.2598-0.3867
				c0.0635-0.1475,0.0957-0.3057,0.0957-0.4746V167.0167z"/>
			<path class="st18" d="M230.0206,183.4073l-0.4648-0.6973c-0.1914,0.251-0.4307,0.4521-0.7178,0.6055
				c-0.2871,0.1523-0.6016,0.2285-0.9434,0.2285h-0.2119c-0.2822,0-0.5488-0.0537-0.7998-0.1602
				c-0.251-0.1074-0.4697-0.2549-0.6563-0.4414s-0.334-0.4053-0.4404-0.6563c-0.1074-0.251-0.1611-0.5176-0.1611-0.7998v-0.0684
				c0-0.2822,0.0537-0.5488,0.1611-0.7998c0.1064-0.251,0.2539-0.4697,0.4404-0.6563s0.4053-0.334,0.6563-0.4414
				c0.251-0.1064,0.5176-0.1602,0.7998-0.1602h1.7773v-1.0801c0-0.1689-0.0322-0.3271-0.0957-0.4746
				c-0.0635-0.1484-0.1504-0.2773-0.2598-0.3867s-0.2383-0.1963-0.3867-0.2598c-0.1475-0.0635-0.3057-0.0957-0.4746-0.0957h-0.4922
				c-0.1689,0-0.3271,0.0322-0.4746,0.0957c-0.1484,0.0635-0.2773,0.1504-0.3867,0.2598s-0.1963,0.2383-0.2598,0.3867
				c-0.0635,0.1475-0.0957,0.3057-0.0957,0.4746v0.2529l-0.8408-0.1367v-0.0684c0-0.2822,0.0537-0.5488,0.1611-0.7998
				c0.1064-0.251,0.2539-0.4697,0.4404-0.6563s0.4053-0.334,0.6563-0.4414c0.251-0.1064,0.5176-0.1602,0.7998-0.1602h0.4922
				c0.2822,0,0.5488,0.0537,0.7998,0.1602c0.251,0.1074,0.4697,0.2549,0.6563,0.4414s0.334,0.4053,0.4404,0.6563
				c0.1074,0.251,0.1611,0.5176,0.1611,0.7998v5.0791H230.0206z M229.46,180.0167h-1.7773c-0.1689,0-0.3271,0.0322-0.4746,0.0957
				c-0.1484,0.0635-0.2773,0.1514-0.3867,0.2637c-0.1094,0.1113-0.1963,0.2412-0.2598,0.3887
				c-0.0635,0.1484-0.0957,0.3066-0.0957,0.4756v0.2939c0,0.1689,0.0322,0.3271,0.0957,0.4746
				c0.0635,0.1484,0.1504,0.2773,0.2598,0.3867s0.2383,0.1963,0.3867,0.2598c0.1475,0.0635,0.3057,0.0957,0.4746,0.0957h0.5605
				c0.1689,0,0.3271-0.0322,0.4746-0.0957c0.1484-0.0635,0.2773-0.1504,0.3867-0.2598s0.1963-0.2383,0.2598-0.3867
				c0.0635-0.1475,0.0957-0.3057,0.0957-0.4746V180.0167z"/>
			<path class="st18" d="M239.3721,183.4073v-5.127c0-0.1689-0.0322-0.3271-0.0957-0.4746
				c-0.0635-0.1484-0.1504-0.2773-0.2598-0.3867s-0.2383-0.1963-0.3867-0.2598c-0.1475-0.0635-0.3057-0.0957-0.4746-0.0957h-0.417
				c-0.1689,0-0.3271,0.0322-0.4756,0.0957c-0.1475,0.0635-0.2773,0.1504-0.3887,0.2598c-0.1123,0.1094-0.2002,0.2383-0.2637,0.3867
				c-0.0635,0.1475-0.0957,0.3057-0.0957,0.4746v5.127h-0.834v-5.127c0-0.1689-0.0322-0.3271-0.0957-0.4746
				c-0.0635-0.1484-0.1514-0.2773-0.2637-0.3867c-0.1113-0.1094-0.2412-0.1963-0.3887-0.2598
				c-0.1484-0.0635-0.3066-0.0957-0.4756-0.0957h-0.417c-0.1689,0-0.3271,0.0322-0.4746,0.0957
				c-0.1484,0.0635-0.2773,0.1504-0.3867,0.2598s-0.1963,0.2383-0.2598,0.3867c-0.0635,0.1475-0.0957,0.3057-0.0957,0.4746v5.127
				h-0.8408v-7h0.2803l0.458,0.7109c0.1914-0.2598,0.4316-0.4658,0.7217-0.6191c0.2891-0.1523,0.6045-0.2285,0.9463-0.2285h0.0684
				c0.3965,0,0.7539,0.0977,1.0732,0.2939s0.5654,0.4561,0.7383,0.7793c0.0869-0.1592,0.1934-0.3057,0.3213-0.4375
				s0.2686-0.2451,0.4238-0.3389c0.1553-0.0928,0.3232-0.166,0.5059-0.2188c0.1826-0.0518,0.3711-0.0781,0.5674-0.0781h0.0684
				c0.2822,0,0.5488,0.0537,0.7998,0.1602c0.251,0.1074,0.4697,0.2549,0.6563,0.4414s0.334,0.4053,0.4404,0.6563
				c0.1074,0.251,0.1611,0.5176,0.1611,0.7998v5.0791H239.3721z"/>
			<path class="st18" d="M246.4092,182.2863c-0.1064,0.251-0.2539,0.4697-0.4404,0.6563s-0.4053,0.334-0.6563,0.4414
				c-0.251,0.1064-0.5176,0.1602-0.7998,0.1602h-0.2119c-0.3145,0-0.6064-0.0635-0.875-0.1914s-0.499-0.3057-0.6904-0.5332v3.3906
				h-0.8408v-9.8027h0.2803l0.458,0.7109c0.1914-0.2598,0.4316-0.4658,0.7217-0.6191c0.2891-0.1523,0.6045-0.2285,0.9463-0.2285
				h0.2119c0.2822,0,0.5488,0.0537,0.7998,0.1602c0.251,0.1074,0.4697,0.2549,0.6563,0.4414s0.334,0.4053,0.4404,0.6563
				c0.1074,0.251,0.1611,0.5176,0.1611,0.7998v3.1582C246.5704,181.7687,246.5167,182.0353,246.4092,182.2863z M245.7296,178.2804
				c0-0.1689-0.0322-0.3271-0.0957-0.4746c-0.0635-0.1484-0.1504-0.2773-0.2598-0.3867s-0.2383-0.1963-0.3867-0.2598
				c-0.1475-0.0635-0.3057-0.0957-0.4746-0.0957h-0.5605c-0.1689,0-0.3271,0.0322-0.4746,0.0957
				c-0.1484,0.0635-0.2773,0.1504-0.3867,0.2598s-0.1963,0.2383-0.2598,0.3867c-0.0635,0.1475-0.0957,0.3057-0.0957,0.4746v3.2539
				c0,0.1689,0.0322,0.3271,0.0957,0.4746c0.0635,0.1484,0.1504,0.2773,0.2598,0.3867s0.2383,0.1963,0.3867,0.2598
				c0.1475,0.0635,0.3057,0.0957,0.4746,0.0957h0.5605c0.1689,0,0.3271-0.0322,0.4746-0.0957
				c0.1484-0.0635,0.2773-0.1504,0.3867-0.2598s0.1963-0.2383,0.2598-0.3867c0.0635-0.1475,0.0957-0.3057,0.0957-0.4746V178.2804z"
				/>
			<path class="st18" d="M248.5323,183.4073v-9.8027h0.8408v9.8027H248.5323z"/>
			<path class="st18" d="M251.5469,174.7257v-1.1211h0.9775v1.1211H251.5469z M251.6153,183.4073v-7h0.8408v7H251.6153z"/>
			<path class="st18" d="M258.8135,183.4073l-0.4648-0.6973c-0.1914,0.251-0.4307,0.4521-0.7178,0.6055
				c-0.2871,0.1523-0.6016,0.2285-0.9434,0.2285h-0.2119c-0.2822,0-0.5488-0.0537-0.7998-0.1602
				c-0.251-0.1074-0.4697-0.2549-0.6563-0.4414s-0.334-0.4053-0.4404-0.6563c-0.1074-0.251-0.1611-0.5176-0.1611-0.7998v-0.0684
				c0-0.2822,0.0537-0.5488,0.1611-0.7998c0.1064-0.251,0.2539-0.4697,0.4404-0.6563s0.4053-0.334,0.6563-0.4414
				c0.251-0.1064,0.5176-0.1602,0.7998-0.1602h1.7773v-1.0801c0-0.1689-0.0322-0.3271-0.0957-0.4746
				c-0.0635-0.1484-0.1504-0.2773-0.2598-0.3867s-0.2383-0.1963-0.3867-0.2598c-0.1475-0.0635-0.3057-0.0957-0.4746-0.0957h-0.4922
				c-0.1689,0-0.3271,0.0322-0.4746,0.0957c-0.1484,0.0635-0.2773,0.1504-0.3867,0.2598s-0.1963,0.2383-0.2598,0.3867
				c-0.0635,0.1475-0.0957,0.3057-0.0957,0.4746v0.2529l-0.8408-0.1367v-0.0684c0-0.2822,0.0537-0.5488,0.1611-0.7998
				c0.1064-0.251,0.2539-0.4697,0.4404-0.6563s0.4053-0.334,0.6563-0.4414c0.251-0.1064,0.5176-0.1602,0.7998-0.1602h0.4922
				c0.2822,0,0.5488,0.0537,0.7998,0.1602c0.251,0.1074,0.4697,0.2549,0.6563,0.4414s0.334,0.4053,0.4404,0.6563
				c0.1074,0.251,0.1611,0.5176,0.1611,0.7998v5.0791H258.8135z M258.253,180.0167h-1.7773c-0.1689,0-0.3271,0.0322-0.4746,0.0957
				c-0.1484,0.0635-0.2773,0.1514-0.3867,0.2637c-0.1094,0.1113-0.1963,0.2412-0.2598,0.3887
				c-0.0635,0.1484-0.0957,0.3066-0.0957,0.4756v0.2939c0,0.1689,0.0322,0.3271,0.0957,0.4746
				c0.0635,0.1484,0.1504,0.2773,0.2598,0.3867s0.2383,0.1963,0.3867,0.2598c0.1475,0.0635,0.3057,0.0957,0.4746,0.0957h0.5605
				c0.1689,0,0.3271-0.0322,0.4746-0.0957c0.1484-0.0635,0.2773-0.1504,0.3867-0.2598s0.1963-0.2383,0.2598-0.3867
				c0.0635-0.1475,0.0957-0.3057,0.0957-0.4746V180.0167z"/>
			<path class="st18" d="M262.8331,177.2072c-0.1689,0-0.3271,0.0322-0.4746,0.0957c-0.1484,0.0635-0.2773,0.1504-0.3867,0.2598
				s-0.1963,0.2383-0.2598,0.3857c-0.0635,0.1484-0.0957,0.3066-0.0957,0.4756v4.9834h-0.8408v-7h0.2803l0.458,0.7109
				c0.1914-0.2598,0.4316-0.4658,0.7217-0.6191c0.2891-0.1523,0.6045-0.2285,0.9463-0.2285h0.4922v0.9365H262.8331z"/>
			<path class="st18" d="M268.295,183.4073v-9.8027h0.8408v9.8027H268.295z"/>
			<path class="st18" d="M275.4932,183.4073l-0.4648-0.6973c-0.1914,0.251-0.4307,0.4521-0.7178,0.6055
				c-0.2871,0.1523-0.6016,0.2285-0.9434,0.2285h-0.2119c-0.2822,0-0.5488-0.0537-0.7998-0.1602
				c-0.251-0.1074-0.4697-0.2549-0.6563-0.4414s-0.334-0.4053-0.4404-0.6563c-0.1074-0.251-0.1611-0.5176-0.1611-0.7998v-0.0684
				c0-0.2822,0.0537-0.5488,0.1611-0.7998c0.1064-0.251,0.2539-0.4697,0.4404-0.6563s0.4053-0.334,0.6563-0.4414
				c0.251-0.1064,0.5176-0.1602,0.7998-0.1602h1.7773v-1.0801c0-0.1689-0.0322-0.3271-0.0957-0.4746
				c-0.0635-0.1484-0.1504-0.2773-0.2598-0.3867s-0.2383-0.1963-0.3867-0.2598c-0.1475-0.0635-0.3057-0.0957-0.4746-0.0957h-0.4922
				c-0.1689,0-0.3271,0.0322-0.4746,0.0957c-0.1484,0.0635-0.2773,0.1504-0.3867,0.2598s-0.1963,0.2383-0.2598,0.3867
				c-0.0635,0.1475-0.0957,0.3057-0.0957,0.4746v0.2529l-0.8408-0.1367v-0.0684c0-0.2822,0.0537-0.5488,0.1611-0.7998
				c0.1064-0.251,0.2539-0.4697,0.4404-0.6563s0.4053-0.334,0.6563-0.4414c0.251-0.1064,0.5176-0.1602,0.7998-0.1602h0.4922
				c0.2822,0,0.5488,0.0537,0.7998,0.1602c0.251,0.1074,0.4697,0.2549,0.6563,0.4414s0.334,0.4053,0.4404,0.6563
				c0.1074,0.251,0.1611,0.5176,0.1611,0.7998v5.0791H275.4932z M274.9327,180.0167h-1.7773c-0.1689,0-0.3271,0.0322-0.4746,0.0957
				c-0.1484,0.0635-0.2773,0.1514-0.3867,0.2637c-0.1094,0.1113-0.1963,0.2412-0.2598,0.3887
				c-0.0635,0.1484-0.0957,0.3066-0.0957,0.4756v0.2939c0,0.1689,0.0322,0.3271,0.0957,0.4746
				c0.0635,0.1484,0.1504,0.2773,0.2598,0.3867s0.2383,0.1963,0.3867,0.2598c0.1475,0.0635,0.3057,0.0957,0.4746,0.0957h0.5605
				c0.1689,0,0.3271-0.0322,0.4746-0.0957c0.1484-0.0635,0.2773-0.1504,0.3867-0.2598s0.1963-0.2383,0.2598-0.3867
				c0.0635-0.1475,0.0957-0.3057,0.0957-0.4746V180.0167z"/>
			<path class="st18" d="M280.8868,174.7257v-1.1211h0.9775v1.1211H280.8868z M280.9551,183.4073v-7h0.8408v7H280.9551z"/>
			<path class="st18" d="M287.5928,183.4073v-5.127c0-0.1689-0.0322-0.3271-0.0957-0.4746
				c-0.0635-0.1484-0.1504-0.2773-0.2598-0.3867s-0.2383-0.1963-0.3867-0.2598c-0.1475-0.0635-0.3057-0.0957-0.4746-0.0957h-0.5605
				c-0.1689,0-0.3271,0.0322-0.4746,0.0957c-0.1484,0.0635-0.2773,0.1504-0.3867,0.2598s-0.1963,0.2383-0.2598,0.3867
				c-0.0635,0.1475-0.0957,0.3057-0.0957,0.4746v5.127h-0.8408v-7h0.2803l0.458,0.7109c0.1914-0.2598,0.4316-0.4658,0.7217-0.6191
				c0.2891-0.1523,0.6045-0.2285,0.9463-0.2285h0.2119c0.2822,0,0.5488,0.0537,0.7998,0.1602
				c0.251,0.1074,0.4697,0.2549,0.6563,0.4414s0.334,0.4053,0.4404,0.6563c0.1074,0.251,0.1611,0.5176,0.1611,0.7998v5.0791
				H287.5928z"/>
			<path class="st18" d="M292.5215,174.4044c-0.1416,0-0.2725,0.0264-0.3936,0.0791c-0.1201,0.0518-0.2266,0.124-0.3174,0.2148
				s-0.1631,0.1982-0.2158,0.3213c-0.0518,0.123-0.0781,0.2549-0.0781,0.3965v0.9912h1.6338v0.7998h-1.6338v6.2002h-0.8408v-6.2002
				h-1.2646v-0.7998h1.2646v-0.9502c0-0.2549,0.0479-0.4951,0.1436-0.7217c0.0957-0.2246,0.2275-0.4219,0.3965-0.5908
				s0.3643-0.3008,0.5879-0.3965s0.4629-0.1436,0.7178-0.1436h0.7725v0.7998H292.5215z"/>
			<path class="st18" d="M298.6495,182.2863c-0.1064,0.251-0.2539,0.4697-0.4404,0.6563s-0.4053,0.334-0.6563,0.4414
				c-0.251,0.1064-0.5176,0.1602-0.7998,0.1602h-0.5605c-0.2822,0-0.5488-0.0537-0.7998-0.1602
				c-0.251-0.1074-0.4697-0.2549-0.6563-0.4414s-0.334-0.4053-0.4404-0.6563c-0.1074-0.251-0.1611-0.5176-0.1611-0.7998v-3.1582
				c0-0.2822,0.0537-0.5488,0.1611-0.7998c0.1064-0.251,0.2539-0.4697,0.4404-0.6563s0.4053-0.334,0.6563-0.4414
				c0.251-0.1064,0.5176-0.1602,0.7998-0.1602h0.5605c0.2822,0,0.5488,0.0537,0.7998,0.1602
				c0.251,0.1074,0.4697,0.2549,0.6563,0.4414s0.334,0.4053,0.4404,0.6563c0.1074,0.251,0.1611,0.5176,0.1611,0.7998v3.1582
				C298.8106,181.7687,298.7569,182.0353,298.6495,182.2863z M297.9698,178.2804c0-0.1689-0.0322-0.3271-0.0957-0.4746
				c-0.0635-0.1484-0.1504-0.2773-0.2598-0.3867s-0.2383-0.1963-0.3867-0.2598c-0.1475-0.0635-0.3057-0.0957-0.4746-0.0957h-0.5605
				c-0.1689,0-0.3271,0.0322-0.4746,0.0957c-0.1484,0.0635-0.2773,0.1504-0.3867,0.2598s-0.1963,0.2383-0.2598,0.3867
				c-0.0635,0.1475-0.0957,0.3057-0.0957,0.4746v3.2539c0,0.1689,0.0322,0.3271,0.0957,0.4746
				c0.0635,0.1484,0.1504,0.2773,0.2598,0.3867s0.2383,0.1963,0.3867,0.2598c0.1475,0.0635,0.3057,0.0957,0.4746,0.0957h0.5605
				c0.1689,0,0.3271-0.0322,0.4746-0.0957c0.1484-0.0635,0.2773-0.1504,0.3867-0.2598s0.1963-0.2383,0.2598-0.3867
				c0.0635-0.1475,0.0957-0.3057,0.0957-0.4746V178.2804z"/>
			<path class="st18" d="M302.5499,177.2072c-0.1689,0-0.3271,0.0322-0.4746,0.0957c-0.1484,0.0635-0.2773,0.1504-0.3867,0.2598
				s-0.1963,0.2383-0.2598,0.3857c-0.0635,0.1484-0.0957,0.3066-0.0957,0.4756v4.9834h-0.8408v-7h0.2803l0.458,0.7109
				c0.1914-0.2598,0.4316-0.4658,0.7217-0.6191c0.2891-0.1523,0.6045-0.2285,0.9463-0.2285h0.4922v0.9365H302.5499z"/>
			<path class="st18" d="M311.9014,183.4073v-5.127c0-0.1689-0.0322-0.3271-0.0957-0.4746
				c-0.0635-0.1484-0.1504-0.2773-0.2598-0.3867s-0.2383-0.1963-0.3867-0.2598c-0.1475-0.0635-0.3057-0.0957-0.4746-0.0957h-0.417
				c-0.1689,0-0.3271,0.0322-0.4756,0.0957c-0.1475,0.0635-0.2773,0.1504-0.3887,0.2598c-0.1123,0.1094-0.2002,0.2383-0.2637,0.3867
				c-0.0635,0.1475-0.0957,0.3057-0.0957,0.4746v5.127h-0.834v-5.127c0-0.1689-0.0322-0.3271-0.0957-0.4746
				c-0.0635-0.1484-0.1514-0.2773-0.2637-0.3867c-0.1113-0.1094-0.2412-0.1963-0.3887-0.2598
				c-0.1484-0.0635-0.3066-0.0957-0.4756-0.0957h-0.417c-0.1689,0-0.3271,0.0322-0.4746,0.0957
				c-0.1484,0.0635-0.2773,0.1504-0.3867,0.2598s-0.1963,0.2383-0.2598,0.3867c-0.0635,0.1475-0.0957,0.3057-0.0957,0.4746v5.127
				h-0.8408v-7h0.2803l0.458,0.7109c0.1914-0.2598,0.4316-0.4658,0.7217-0.6191c0.2891-0.1523,0.6045-0.2285,0.9463-0.2285h0.0684
				c0.3965,0,0.7539,0.0977,1.0732,0.2939s0.5654,0.4561,0.7383,0.7793c0.0869-0.1592,0.1934-0.3057,0.3213-0.4375
				s0.2686-0.2451,0.4238-0.3389c0.1553-0.0928,0.3232-0.166,0.5059-0.2188c0.1826-0.0518,0.3711-0.0781,0.5674-0.0781h0.0684
				c0.2822,0,0.5488,0.0537,0.7998,0.1602c0.251,0.1074,0.4697,0.2549,0.6563,0.4414s0.334,0.4053,0.4404,0.6563
				c0.1074,0.251,0.1611,0.5176,0.1611,0.7998v5.0791H311.9014z"/>
			<path class="st18" d="M318.8194,183.4073l-0.4648-0.6973c-0.1914,0.251-0.4307,0.4521-0.7178,0.6055
				c-0.2871,0.1523-0.6016,0.2285-0.9434,0.2285h-0.2119c-0.2822,0-0.5488-0.0537-0.7998-0.1602
				c-0.251-0.1074-0.4697-0.2549-0.6563-0.4414s-0.334-0.4053-0.4404-0.6563c-0.1074-0.251-0.1611-0.5176-0.1611-0.7998v-0.0684
				c0-0.2822,0.0537-0.5488,0.1611-0.7998c0.1064-0.251,0.2539-0.4697,0.4404-0.6563s0.4053-0.334,0.6563-0.4414
				c0.251-0.1064,0.5176-0.1602,0.7998-0.1602h1.7773v-1.0801c0-0.1689-0.0322-0.3271-0.0957-0.4746
				c-0.0635-0.1484-0.1504-0.2773-0.2598-0.3867s-0.2383-0.1963-0.3867-0.2598c-0.1475-0.0635-0.3057-0.0957-0.4746-0.0957h-0.4922
				c-0.1689,0-0.3271,0.0322-0.4746,0.0957c-0.1484,0.0635-0.2773,0.1504-0.3867,0.2598s-0.1963,0.2383-0.2598,0.3867
				c-0.0635,0.1475-0.0957,0.3057-0.0957,0.4746v0.2529l-0.8408-0.1367v-0.0684c0-0.2822,0.0537-0.5488,0.1611-0.7998
				c0.1064-0.251,0.2539-0.4697,0.4404-0.6563s0.4053-0.334,0.6563-0.4414c0.251-0.1064,0.5176-0.1602,0.7998-0.1602h0.4922
				c0.2822,0,0.5488,0.0537,0.7998,0.1602c0.251,0.1074,0.4697,0.2549,0.6563,0.4414s0.334,0.4053,0.4404,0.6563
				c0.1074,0.251,0.1611,0.5176,0.1611,0.7998v5.0791H318.8194z M318.2589,180.0167h-1.7773c-0.1689,0-0.3271,0.0322-0.4746,0.0957
				c-0.1484,0.0635-0.2773,0.1514-0.3867,0.2637c-0.1094,0.1113-0.1963,0.2412-0.2598,0.3887
				c-0.0635,0.1484-0.0957,0.3066-0.0957,0.4756v0.2939c0,0.1689,0.0322,0.3271,0.0957,0.4746
				c0.0635,0.1484,0.1504,0.2773,0.2598,0.3867s0.2383,0.1963,0.3867,0.2598c0.1475,0.0635,0.3057,0.0957,0.4746,0.0957h0.5605
				c0.1689,0,0.3271-0.0322,0.4746-0.0957c0.1484-0.0635,0.2773-0.1504,0.3867-0.2598s0.1963-0.2383,0.2598-0.3867
				c0.0635-0.1475,0.0957-0.3057,0.0957-0.4746V180.0167z"/>
			<path class="st18" d="M325.296,182.2863c-0.1064,0.251-0.2539,0.4697-0.4404,0.6563s-0.4053,0.334-0.6563,0.4414
				c-0.251,0.1064-0.5176,0.1602-0.7998,0.1602h-0.5605c-0.2822,0-0.5488-0.0537-0.7998-0.1602
				c-0.251-0.1074-0.4697-0.2549-0.6563-0.4414s-0.334-0.4053-0.4404-0.6563c-0.1074-0.251-0.1611-0.5176-0.1611-0.7998v-3.1582
				c0-0.2822,0.0537-0.5488,0.1611-0.7998c0.1064-0.251,0.2539-0.4697,0.4404-0.6563s0.4053-0.334,0.6563-0.4414
				c0.251-0.1064,0.5176-0.1602,0.7998-0.1602h0.5605c0.2822,0,0.5488,0.0537,0.7998,0.1602
				c0.251,0.1074,0.4697,0.2549,0.6563,0.4414s0.334,0.4053,0.4404,0.6563c0.1074,0.251,0.1611,0.5176,0.1611,0.7998v0.2803
				l-0.8408,0.1367v-0.4648c0-0.1689-0.0322-0.3271-0.0957-0.4746c-0.0635-0.1484-0.1504-0.2773-0.2598-0.3867
				s-0.2383-0.1963-0.3867-0.2598c-0.1475-0.0635-0.3057-0.0957-0.4746-0.0957h-0.5605c-0.1689,0-0.3271,0.0322-0.4746,0.0957
				c-0.1484,0.0635-0.2773,0.1504-0.3867,0.2598s-0.1963,0.2383-0.2598,0.3867c-0.0635,0.1475-0.0957,0.3057-0.0957,0.4746v3.2539
				c0,0.1689,0.0322,0.3271,0.0957,0.4746c0.0635,0.1484,0.1504,0.2773,0.2598,0.3867s0.2383,0.1963,0.3867,0.2598
				c0.1475,0.0635,0.3057,0.0957,0.4746,0.0957h0.5605c0.1689,0,0.3271-0.0322,0.4746-0.0957
				c0.1484-0.0635,0.2773-0.1504,0.3867-0.2598s0.1963-0.2383,0.2598-0.3867c0.0635-0.1475,0.0957-0.3057,0.0957-0.4746v-0.4648
				l0.8408,0.1367v0.2803C325.4571,181.7687,325.4034,182.0353,325.296,182.2863z"/>
			<path class="st18" d="M327.3506,174.7257v-1.1211h0.9775v1.1211H327.3506z M327.419,183.4073v-7h0.8408v7H327.419z"/>
			<path class="st18" d="M334.7364,182.2863c-0.1064,0.251-0.2539,0.4697-0.4404,0.6563s-0.4053,0.334-0.6563,0.4414
				c-0.251,0.1064-0.5176,0.1602-0.7998,0.1602h-0.5605c-0.2822,0-0.5488-0.0537-0.7998-0.1602
				c-0.251-0.1074-0.4697-0.2549-0.6563-0.4414s-0.334-0.4053-0.4404-0.6563c-0.1074-0.251-0.1611-0.5176-0.1611-0.7998v-3.1582
				c0-0.2822,0.0537-0.5488,0.1611-0.7998c0.1064-0.251,0.2539-0.4697,0.4404-0.6563s0.4053-0.334,0.6563-0.4414
				c0.251-0.1064,0.5176-0.1602,0.7998-0.1602h0.5605c0.2822,0,0.5488,0.0537,0.7998,0.1602
				c0.251,0.1074,0.4697,0.2549,0.6563,0.4414s0.334,0.4053,0.4404,0.6563c0.1074,0.251,0.1611,0.5176,0.1611,0.7998v3.1582
				C334.8975,181.7687,334.8438,182.0353,334.7364,182.2863z M334.0567,178.2804c0-0.1689-0.0322-0.3271-0.0957-0.4746
				c-0.0635-0.1484-0.1504-0.2773-0.2598-0.3867s-0.2383-0.1963-0.3867-0.2598c-0.1475-0.0635-0.3057-0.0957-0.4746-0.0957h-0.5605
				c-0.1689,0-0.3271,0.0322-0.4746,0.0957c-0.1484,0.0635-0.2773,0.1504-0.3867,0.2598s-0.1963,0.2383-0.2598,0.3867
				c-0.0635,0.1475-0.0957,0.3057-0.0957,0.4746v3.2539c0,0.1689,0.0322,0.3271,0.0957,0.4746
				c0.0635,0.1484,0.1504,0.2773,0.2598,0.3867s0.2383,0.1963,0.3867,0.2598c0.1475,0.0635,0.3057,0.0957,0.4746,0.0957h0.5605
				c0.1689,0,0.3271-0.0322,0.4746-0.0957c0.1484-0.0635,0.2773-0.1504,0.3867-0.2598s0.1963-0.2383,0.2598-0.3867
				c0.0635-0.1475,0.0957-0.3057,0.0957-0.4746V178.2804z M332.211,175.2863h-0.6289l1.1143-1.6816h1.4014L332.211,175.2863z"/>
			<path class="st18" d="M340.4141,183.4073v-5.127c0-0.1689-0.0322-0.3271-0.0957-0.4746
				c-0.0635-0.1484-0.1504-0.2773-0.2598-0.3867s-0.2383-0.1963-0.3867-0.2598c-0.1475-0.0635-0.3057-0.0957-0.4746-0.0957h-0.5605
				c-0.1689,0-0.3271,0.0322-0.4746,0.0957c-0.1484,0.0635-0.2773,0.1504-0.3867,0.2598s-0.1963,0.2383-0.2598,0.3867
				c-0.0635,0.1475-0.0957,0.3057-0.0957,0.4746v5.127h-0.8408v-7h0.2803l0.458,0.7109c0.1914-0.2598,0.4316-0.4658,0.7217-0.6191
				c0.2891-0.1523,0.6045-0.2285,0.9463-0.2285h0.2119c0.2822,0,0.5488,0.0537,0.7998,0.1602
				c0.251,0.1074,0.4697,0.2549,0.6563,0.4414s0.334,0.4053,0.4404,0.6563c0.1074,0.251,0.1611,0.5176,0.1611,0.7998v5.0791
				H340.4141z"/>
			<path class="st18" d="M244.3692,195.2863c-0.1064,0.251-0.2539,0.4697-0.4404,0.6563s-0.4053,0.334-0.6563,0.4414
				c-0.251,0.1064-0.5176,0.1602-0.7998,0.1602h-0.5605c-0.2822,0-0.5488-0.0537-0.7998-0.1602
				c-0.251-0.1074-0.4697-0.2549-0.6563-0.4414s-0.334-0.4053-0.4404-0.6563c-0.1074-0.251-0.1611-0.5176-0.1611-0.7998v-3.1582
				c0-0.2822,0.0537-0.5488,0.1611-0.7998c0.1064-0.251,0.2539-0.4697,0.4404-0.6563s0.4053-0.334,0.6563-0.4414
				c0.251-0.1064,0.5176-0.1602,0.7998-0.1602h0.5605c0.2822,0,0.5488,0.0537,0.7998,0.1602
				c0.251,0.1074,0.4697,0.2549,0.6563,0.4414s0.334,0.4053,0.4404,0.6563c0.1074,0.251,0.1611,0.5176,0.1611,0.7998v0.2803
				l-0.8408,0.1367v-0.4648c0-0.1689-0.0322-0.3271-0.0957-0.4746c-0.0635-0.1484-0.1504-0.2773-0.2598-0.3867
				s-0.2383-0.1963-0.3867-0.2598c-0.1475-0.0635-0.3057-0.0957-0.4746-0.0957h-0.5605c-0.1689,0-0.3271,0.0322-0.4746,0.0957
				c-0.1484,0.0635-0.2773,0.1504-0.3867,0.2598s-0.1963,0.2383-0.2598,0.3867c-0.0635,0.1475-0.0957,0.3057-0.0957,0.4746v3.2539
				c0,0.1689,0.0322,0.3271,0.0957,0.4746c0.0635,0.1484,0.1504,0.2773,0.2598,0.3867s0.2383,0.1963,0.3867,0.2598
				c0.1475,0.0635,0.3057,0.0957,0.4746,0.0957h0.5605c0.1689,0,0.3271-0.0322,0.4746-0.0957
				c0.1484-0.0635,0.2773-0.1504,0.3867-0.2598s0.1963-0.2383,0.2598-0.3867c0.0635-0.1475,0.0957-0.3057,0.0957-0.4746v-0.4648
				l0.8408,0.1367v0.2803C244.5303,194.7687,244.4766,195.0353,244.3692,195.2863z"/>
			<path class="st18" d="M250.7266,195.2863c-0.1064,0.251-0.2539,0.4697-0.4404,0.6563s-0.4053,0.334-0.6563,0.4414
				c-0.251,0.1064-0.5176,0.1602-0.7998,0.1602h-0.5605c-0.2822,0-0.5488-0.0537-0.7998-0.1602
				c-0.251-0.1074-0.4697-0.2549-0.6563-0.4414s-0.334-0.4053-0.4404-0.6563c-0.1074-0.251-0.1611-0.5176-0.1611-0.7998v-3.1582
				c0-0.2822,0.0537-0.5488,0.1611-0.7998c0.1064-0.251,0.2539-0.4697,0.4404-0.6563s0.4053-0.334,0.6563-0.4414
				c0.251-0.1064,0.5176-0.1602,0.7998-0.1602h0.5605c0.2822,0,0.5488,0.0537,0.7998,0.1602
				c0.251,0.1074,0.4697,0.2549,0.6563,0.4414s0.334,0.4053,0.4404,0.6563c0.1074,0.251,0.1611,0.5176,0.1611,0.7998v3.1582
				C250.8878,194.7687,250.834,195.0353,250.7266,195.2863z M250.0469,191.2804c0-0.1689-0.0322-0.3271-0.0957-0.4746
				c-0.0635-0.1484-0.1504-0.2773-0.2598-0.3867s-0.2383-0.1963-0.3867-0.2598c-0.1475-0.0635-0.3057-0.0957-0.4746-0.0957h-0.5605
				c-0.1689,0-0.3271,0.0322-0.4746,0.0957c-0.1484,0.0635-0.2773,0.1504-0.3867,0.2598s-0.1963,0.2383-0.2598,0.3867
				c-0.0635,0.1475-0.0957,0.3057-0.0957,0.4746v3.2539c0,0.1689,0.0322,0.3271,0.0957,0.4746
				c0.0635,0.1484,0.1504,0.2773,0.2598,0.3867s0.2383,0.1963,0.3867,0.2598c0.1475,0.0635,0.3057,0.0957,0.4746,0.0957h0.5605
				c0.1689,0,0.3271-0.0322,0.4746-0.0957c0.1484-0.0635,0.2773-0.1504,0.3867-0.2598s0.1963-0.2383,0.2598-0.3867
				c0.0635-0.1475,0.0957-0.3057,0.0957-0.4746V191.2804z"/>
			<path class="st18" d="M254.627,190.2072c-0.1689,0-0.3271,0.0322-0.4746,0.0957c-0.1484,0.0635-0.2773,0.1504-0.3867,0.2598
				s-0.1963,0.2383-0.2598,0.3857c-0.0635,0.1484-0.0957,0.3066-0.0957,0.4756v4.9834h-0.8408v-7h0.2803l0.458,0.7109
				c0.1914-0.2598,0.4316-0.4658,0.7217-0.6191c0.2891-0.1523,0.6045-0.2285,0.9463-0.2285h0.4922v0.9365H254.627z"/>
			<path class="st18" d="M258.6465,190.2072c-0.1689,0-0.3271,0.0322-0.4746,0.0957c-0.1484,0.0635-0.2773,0.1504-0.3867,0.2598
				s-0.1963,0.2383-0.2598,0.3857c-0.0635,0.1484-0.0957,0.3066-0.0957,0.4756v4.9834h-0.8408v-7h0.2803l0.458,0.7109
				c0.1914-0.2598,0.4316-0.4658,0.7217-0.6191c0.2891-0.1523,0.6045-0.2285,0.9463-0.2285h0.4922v0.9365H258.6465z"/>
			<path class="st18" d="M265.1231,195.2863c-0.1064,0.251-0.2539,0.4697-0.4404,0.6563s-0.4053,0.334-0.6563,0.4414
				c-0.251,0.1064-0.5176,0.1602-0.7998,0.1602h-0.5605c-0.2822,0-0.5488-0.0537-0.7998-0.1602
				c-0.251-0.1074-0.4697-0.2549-0.6563-0.4414s-0.334-0.4053-0.4404-0.6563c-0.1074-0.251-0.1611-0.5176-0.1611-0.7998v-3.1582
				c0-0.2822,0.0537-0.5488,0.1611-0.7998c0.1064-0.251,0.2539-0.4697,0.4404-0.6563s0.4053-0.334,0.6563-0.4414
				c0.251-0.1064,0.5176-0.1602,0.7998-0.1602h0.5605c0.2822,0,0.5488,0.0537,0.7998,0.1602
				c0.251,0.1074,0.4697,0.2549,0.6563,0.4414s0.334,0.4053,0.4404,0.6563c0.1074,0.251,0.1611,0.5176,0.1611,0.7998v1.6475h-3.835
				v1.5586c0,0.1689,0.0322,0.3271,0.0957,0.4746c0.0635,0.1484,0.1504,0.2773,0.2598,0.3867s0.2383,0.1963,0.3867,0.2598
				c0.1475,0.0635,0.3057,0.0957,0.4746,0.0957h0.5605c0.1689,0,0.3271-0.0322,0.4746-0.0957
				c0.1484-0.0635,0.2773-0.1504,0.3867-0.2598s0.1963-0.2383,0.2598-0.3867c0.0635-0.1475,0.0957-0.3057,0.0957-0.4746v-0.4648
				l0.8408,0.1367v0.2803C265.2842,194.7687,265.2305,195.0353,265.1231,195.2863z M264.4434,191.2804
				c0-0.1689-0.0322-0.3271-0.0957-0.4746c-0.0635-0.1484-0.1504-0.2773-0.2598-0.3867s-0.2383-0.1963-0.3867-0.2598
				c-0.1475-0.0635-0.3057-0.0957-0.4746-0.0957h-0.5605c-0.1689,0-0.3271,0.0322-0.4746,0.0957
				c-0.1484,0.0635-0.2773,0.1504-0.3867,0.2598s-0.1963,0.2383-0.2598,0.3867c-0.0635,0.1475-0.0957,0.3057-0.0957,0.4746v1.0391
				h2.9941V191.2804z"/>
			<path class="st18" d="M271.7784,194.63c0,0.2822-0.0566,0.541-0.1709,0.7754c-0.1143,0.2354-0.2686,0.4365-0.4648,0.6055
				s-0.4229,0.2998-0.6797,0.3926c-0.2578,0.0938-0.5283,0.1406-0.8105,0.1406h-0.5605c-0.2822,0-0.5527-0.0537-0.8105-0.1602
				c-0.2568-0.1074-0.4824-0.2549-0.6758-0.4414c-0.1943-0.1865-0.3496-0.4053-0.4648-0.6563
				c-0.1172-0.251-0.1748-0.5176-0.1748-0.7998v-0.2803l0.8408-0.1367v0.4648c0,0.1689,0.0352,0.3271,0.1055,0.4746
				c0.0713,0.1484,0.166,0.2773,0.2842,0.3867s0.2549,0.1963,0.4102,0.2598s0.3164,0.0957,0.4854,0.0957h0.5605
				c0.1689,0,0.3301-0.0254,0.4854-0.0752s0.293-0.1221,0.4131-0.2158c0.1211-0.0928,0.2168-0.2061,0.2871-0.3379
				c0.0713-0.1318,0.1064-0.2822,0.1064-0.4512c0-0.251-0.0547-0.4561-0.1641-0.6152s-0.2539-0.293-0.4346-0.4004
				c-0.1797-0.1064-0.3848-0.1953-0.6152-0.2656c-0.2295-0.0713-0.4658-0.1416-0.707-0.2129
				c-0.2412-0.0703-0.4775-0.1514-0.707-0.2422c-0.2305-0.0908-0.4355-0.2109-0.6152-0.3594
				c-0.1807-0.1475-0.3252-0.333-0.4346-0.5566s-0.1641-0.501-0.1641-0.834c0-0.2822,0.0547-0.541,0.1641-0.7754
				c0.1094-0.2354,0.2578-0.4365,0.4443-0.6055s0.4043-0.2998,0.6523-0.3926c0.249-0.0938,0.5146-0.1406,0.7969-0.1406h0.4922
				c0.2822,0,0.5488,0.0537,0.7998,0.1602c0.251,0.1074,0.4697,0.2549,0.6563,0.4414s0.334,0.4053,0.4404,0.6563
				c0.1074,0.251,0.1611,0.5176,0.1611,0.7998v0.0273l-0.8408,0.1367v-0.2119c0-0.1689-0.0322-0.3271-0.0957-0.4746
				c-0.0635-0.1484-0.1504-0.2773-0.2598-0.3867s-0.2383-0.1963-0.3867-0.2598c-0.1475-0.0635-0.3057-0.0957-0.4746-0.0957h-0.4922
				c-0.1689,0-0.3271,0.0254-0.4746,0.0752c-0.1484,0.0498-0.2773,0.1221-0.3867,0.2158c-0.1094,0.0928-0.1963,0.2061-0.2598,0.3379
				s-0.0957,0.2822-0.0957,0.4512c0,0.2412,0.0547,0.4385,0.1641,0.5918c0.1094,0.1523,0.2539,0.2813,0.4336,0.3857
				c0.1807,0.1045,0.3857,0.1924,0.6152,0.2627c0.2305,0.0713,0.4648,0.1445,0.7051,0.2188
				c0.2383,0.0762,0.4736,0.1611,0.7031,0.2568c0.2305,0.0957,0.4355,0.2188,0.6152,0.3691
				c0.1807,0.1504,0.3252,0.3389,0.4346,0.5635C271.7237,194.0187,271.7784,194.297,271.7784,194.63z"/>
			<path class="st18" d="M277.9063,195.2863c-0.1064,0.251-0.2539,0.4697-0.4404,0.6563s-0.4053,0.334-0.6563,0.4414
				c-0.251,0.1064-0.5176,0.1602-0.7998,0.1602h-0.2119c-0.3145,0-0.6064-0.0635-0.875-0.1914s-0.499-0.3057-0.6904-0.5332v3.3906
				h-0.8408v-9.8027h0.2803l0.458,0.7109c0.1914-0.2598,0.4316-0.4658,0.7217-0.6191c0.2891-0.1523,0.6045-0.2285,0.9463-0.2285
				h0.2119c0.2822,0,0.5488,0.0537,0.7998,0.1602c0.251,0.1074,0.4697,0.2549,0.6563,0.4414s0.334,0.4053,0.4404,0.6563
				c0.1074,0.251,0.1611,0.5176,0.1611,0.7998v3.1582C278.0674,194.7687,278.0137,195.0353,277.9063,195.2863z M277.2266,191.2804
				c0-0.1689-0.0322-0.3271-0.0957-0.4746c-0.0635-0.1484-0.1504-0.2773-0.2598-0.3867s-0.2383-0.1963-0.3867-0.2598
				c-0.1475-0.0635-0.3057-0.0957-0.4746-0.0957h-0.5605c-0.1689,0-0.3271,0.0322-0.4746,0.0957
				c-0.1484,0.0635-0.2773,0.1504-0.3867,0.2598s-0.1963,0.2383-0.2598,0.3867c-0.0635,0.1475-0.0957,0.3057-0.0957,0.4746v3.2539
				c0,0.1689,0.0322,0.3271,0.0957,0.4746c0.0635,0.1484,0.1504,0.2773,0.2598,0.3867s0.2383,0.1963,0.3867,0.2598
				c0.1475,0.0635,0.3057,0.0957,0.4746,0.0957h0.5605c0.1689,0,0.3271-0.0322,0.4746-0.0957
				c0.1484-0.0635,0.2773-0.1504,0.3867-0.2598s0.1963-0.2383,0.2598-0.3867c0.0635-0.1475,0.0957-0.3057,0.0957-0.4746V191.2804z"
				/>
			<path class="st18" d="M284.2637,195.2863c-0.1064,0.251-0.2539,0.4697-0.4404,0.6563s-0.4053,0.334-0.6563,0.4414
				c-0.251,0.1064-0.5176,0.1602-0.7998,0.1602h-0.5605c-0.2822,0-0.5488-0.0537-0.7998-0.1602
				c-0.251-0.1074-0.4697-0.2549-0.6563-0.4414s-0.334-0.4053-0.4404-0.6563c-0.1074-0.251-0.1611-0.5176-0.1611-0.7998v-3.1582
				c0-0.2822,0.0537-0.5488,0.1611-0.7998c0.1064-0.251,0.2539-0.4697,0.4404-0.6563s0.4053-0.334,0.6563-0.4414
				c0.251-0.1064,0.5176-0.1602,0.7998-0.1602h0.5605c0.2822,0,0.5488,0.0537,0.7998,0.1602
				c0.251,0.1074,0.4697,0.2549,0.6563,0.4414s0.334,0.4053,0.4404,0.6563c0.1074,0.251,0.1611,0.5176,0.1611,0.7998v3.1582
				C284.4249,194.7687,284.3712,195.0353,284.2637,195.2863z M283.584,191.2804c0-0.1689-0.0322-0.3271-0.0957-0.4746
				c-0.0635-0.1484-0.1504-0.2773-0.2598-0.3867s-0.2383-0.1963-0.3867-0.2598c-0.1475-0.0635-0.3057-0.0957-0.4746-0.0957h-0.5605
				c-0.1689,0-0.3271,0.0322-0.4746,0.0957c-0.1484,0.0635-0.2773,0.1504-0.3867,0.2598s-0.1963,0.2383-0.2598,0.3867
				c-0.0635,0.1475-0.0957,0.3057-0.0957,0.4746v3.2539c0,0.1689,0.0322,0.3271,0.0957,0.4746
				c0.0635,0.1484,0.1504,0.2773,0.2598,0.3867s0.2383,0.1963,0.3867,0.2598c0.1475,0.0635,0.3057,0.0957,0.4746,0.0957h0.5605
				c0.1689,0,0.3271-0.0322,0.4746-0.0957c0.1484-0.0635,0.2773-0.1504,0.3867-0.2598s0.1963-0.2383,0.2598-0.3867
				c0.0635-0.1475,0.0957-0.3057,0.0957-0.4746V191.2804z"/>
			<path class="st18" d="M289.9415,196.4073v-5.127c0-0.1689-0.0322-0.3271-0.0957-0.4746
				c-0.0635-0.1484-0.1504-0.2773-0.2598-0.3867s-0.2383-0.1963-0.3867-0.2598c-0.1475-0.0635-0.3057-0.0957-0.4746-0.0957h-0.5605
				c-0.1689,0-0.3271,0.0322-0.4746,0.0957c-0.1484,0.0635-0.2773,0.1504-0.3867,0.2598s-0.1963,0.2383-0.2598,0.3867
				c-0.0635,0.1475-0.0957,0.3057-0.0957,0.4746v5.127h-0.8408v-7h0.2803l0.458,0.7109c0.1914-0.2598,0.4316-0.4658,0.7217-0.6191
				c0.2891-0.1523,0.6045-0.2285,0.9463-0.2285h0.2119c0.2822,0,0.5488,0.0537,0.7998,0.1602
				c0.251,0.1074,0.4697,0.2549,0.6563,0.4414s0.334,0.4053,0.4404,0.6563c0.1074,0.251,0.1611,0.5176,0.1611,0.7998v5.0791
				H289.9415z"/>
			<path class="st18" d="M296.8594,196.4073l-0.4648-0.7109c-0.1914,0.2598-0.4307,0.4658-0.7178,0.6191
				c-0.2871,0.1523-0.6016,0.2285-0.9434,0.2285h-0.2119c-0.2822,0-0.5488-0.0537-0.7998-0.1602
				c-0.251-0.1074-0.4697-0.2549-0.6563-0.4414s-0.334-0.4053-0.4404-0.6563c-0.1074-0.251-0.1611-0.5176-0.1611-0.7998v-3.1582
				c0-0.2822,0.0537-0.5488,0.1611-0.7998c0.1064-0.251,0.2539-0.4697,0.4404-0.6563s0.4053-0.334,0.6563-0.4414
				c0.251-0.1064,0.5176-0.1602,0.7998-0.1602h0.2119c0.3145,0,0.6064,0.0635,0.875,0.1914s0.499,0.3057,0.6904,0.5332v-3.3906
				h0.8408v9.8027H296.8594z M296.2989,191.2804c0-0.1689-0.0322-0.3271-0.0957-0.4746c-0.0635-0.1484-0.1504-0.2773-0.2598-0.3867
				s-0.2383-0.1963-0.3867-0.2598c-0.1475-0.0635-0.3057-0.0957-0.4746-0.0957h-0.5605c-0.1689,0-0.3271,0.0322-0.4746,0.0957
				c-0.1484,0.0635-0.2773,0.1504-0.3867,0.2598s-0.1963,0.2383-0.2598,0.3867c-0.0635,0.1475-0.0957,0.3057-0.0957,0.4746v3.2539
				c0,0.1689,0.0322,0.3271,0.0957,0.4746c0.0635,0.1484,0.1504,0.2773,0.2598,0.3867s0.2383,0.1963,0.3867,0.2598
				c0.1475,0.0635,0.3057,0.0957,0.4746,0.0957h0.5605c0.1689,0,0.3271-0.0322,0.4746-0.0957
				c0.1484-0.0635,0.2773-0.1504,0.3867-0.2598s0.1963-0.2383,0.2598-0.3867c0.0635-0.1475,0.0957-0.3057,0.0957-0.4746V191.2804z"
				/>
			<path class="st18" d="M299.0333,187.7257v-1.1211h0.9775v1.1211H299.0333z M299.1016,196.4073v-7h0.8408v7H299.1016z"/>
			<path class="st18" d="M306.419,195.2863c-0.1064,0.251-0.2539,0.4697-0.4404,0.6563s-0.4053,0.334-0.6563,0.4414
				c-0.251,0.1064-0.5176,0.1602-0.7998,0.1602h-0.5605c-0.2822,0-0.5488-0.0537-0.7998-0.1602
				c-0.251-0.1074-0.4697-0.2549-0.6563-0.4414s-0.334-0.4053-0.4404-0.6563c-0.1074-0.251-0.1611-0.5176-0.1611-0.7998v-3.1582
				c0-0.2822,0.0537-0.5488,0.1611-0.7998c0.1064-0.251,0.2539-0.4697,0.4404-0.6563s0.4053-0.334,0.6563-0.4414
				c0.251-0.1064,0.5176-0.1602,0.7998-0.1602h0.5605c0.2822,0,0.5488,0.0537,0.7998,0.1602
				c0.251,0.1074,0.4697,0.2549,0.6563,0.4414s0.334,0.4053,0.4404,0.6563c0.1074,0.251,0.1611,0.5176,0.1611,0.7998v1.6475h-3.835
				v1.5586c0,0.1689,0.0322,0.3271,0.0957,0.4746c0.0635,0.1484,0.1504,0.2773,0.2598,0.3867s0.2383,0.1963,0.3867,0.2598
				c0.1475,0.0635,0.3057,0.0957,0.4746,0.0957h0.5605c0.1689,0,0.3271-0.0322,0.4746-0.0957
				c0.1484-0.0635,0.2773-0.1504,0.3867-0.2598s0.1963-0.2383,0.2598-0.3867c0.0635-0.1475,0.0957-0.3057,0.0957-0.4746v-0.4648
				l0.8408,0.1367v0.2803C306.5801,194.7687,306.5264,195.0353,306.419,195.2863z M305.7393,191.2804
				c0-0.1689-0.0322-0.3271-0.0957-0.4746c-0.0635-0.1484-0.1504-0.2773-0.2598-0.3867s-0.2383-0.1963-0.3867-0.2598
				c-0.1475-0.0635-0.3057-0.0957-0.4746-0.0957h-0.5605c-0.1689,0-0.3271,0.0322-0.4746,0.0957
				c-0.1484,0.0635-0.2773,0.1504-0.3867,0.2598s-0.1963,0.2383-0.2598,0.3867c-0.0635,0.1475-0.0957,0.3057-0.0957,0.4746v1.0391
				h2.9941V191.2804z"/>
			<path class="st18" d="M312.0967,196.4073v-5.127c0-0.1689-0.0322-0.3271-0.0957-0.4746
				c-0.0635-0.1484-0.1504-0.2773-0.2598-0.3867s-0.2383-0.1963-0.3867-0.2598c-0.1475-0.0635-0.3057-0.0957-0.4746-0.0957h-0.5605
				c-0.1689,0-0.3271,0.0322-0.4746,0.0957c-0.1484,0.0635-0.2773,0.1504-0.3867,0.2598s-0.1963,0.2383-0.2598,0.3867
				c-0.0635,0.1475-0.0957,0.3057-0.0957,0.4746v5.127h-0.8408v-7h0.2803l0.458,0.7109c0.1914-0.2598,0.4316-0.4658,0.7217-0.6191
				c0.2891-0.1523,0.6045-0.2285,0.9463-0.2285h0.2119c0.2822,0,0.5488,0.0537,0.7998,0.1602
				c0.251,0.1074,0.4697,0.2549,0.6563,0.4414s0.334,0.4053,0.4404,0.6563c0.1074,0.251,0.1611,0.5176,0.1611,0.7998v5.0791
				H312.0967z"/>
			<path class="st18" d="M317.169,196.4073c-0.2549,0-0.4961-0.0479-0.7207-0.1436c-0.2266-0.0957-0.4219-0.2275-0.5879-0.3965
				c-0.167-0.1689-0.2988-0.3643-0.3965-0.5879c-0.0986-0.2236-0.1475-0.4629-0.1475-0.7178v-4.3545h-1.2578v-0.7998h1.2578v-1.6816
				l0.8408-0.1367v1.8184h1.7773v0.7998h-1.7773v4.3955c0,0.1416,0.0264,0.2725,0.0781,0.3926
				c0.0527,0.1211,0.125,0.2275,0.2158,0.3184s0.1982,0.1631,0.3213,0.2148c0.123,0.0527,0.2549,0.0791,0.3965,0.0791h0.7656v0.7998
				H317.169z"/>
			<path class="st18" d="M323.9942,195.2863c-0.1064,0.251-0.2539,0.4697-0.4404,0.6563s-0.4053,0.334-0.6563,0.4414
				c-0.251,0.1064-0.5176,0.1602-0.7998,0.1602h-0.5605c-0.2822,0-0.5488-0.0537-0.7998-0.1602
				c-0.251-0.1074-0.4697-0.2549-0.6563-0.4414s-0.334-0.4053-0.4404-0.6563c-0.1074-0.251-0.1611-0.5176-0.1611-0.7998v-3.1582
				c0-0.2822,0.0537-0.5488,0.1611-0.7998c0.1064-0.251,0.2539-0.4697,0.4404-0.6563s0.4053-0.334,0.6563-0.4414
				c0.251-0.1064,0.5176-0.1602,0.7998-0.1602h0.5605c0.2822,0,0.5488,0.0537,0.7998,0.1602
				c0.251,0.1074,0.4697,0.2549,0.6563,0.4414s0.334,0.4053,0.4404,0.6563c0.1074,0.251,0.1611,0.5176,0.1611,0.7998v1.6475h-3.835
				v1.5586c0,0.1689,0.0322,0.3271,0.0957,0.4746c0.0635,0.1484,0.1504,0.2773,0.2598,0.3867s0.2383,0.1963,0.3867,0.2598
				c0.1475,0.0635,0.3057,0.0957,0.4746,0.0957h0.5605c0.1689,0,0.3271-0.0322,0.4746-0.0957
				c0.1484-0.0635,0.2773-0.1504,0.3867-0.2598s0.1963-0.2383,0.2598-0.3867c0.0635-0.1475,0.0957-0.3057,0.0957-0.4746v-0.4648
				l0.8408,0.1367v0.2803C324.1553,194.7687,324.1016,195.0353,323.9942,195.2863z M323.3145,191.2804
				c0-0.1689-0.0322-0.3271-0.0957-0.4746c-0.0635-0.1484-0.1504-0.2773-0.2598-0.3867s-0.2383-0.1963-0.3867-0.2598
				c-0.1475-0.0635-0.3057-0.0957-0.4746-0.0957h-0.5605c-0.1689,0-0.3271,0.0322-0.4746,0.0957
				c-0.1484,0.0635-0.2773,0.1504-0.3867,0.2598s-0.1963,0.2383-0.2598,0.3867c-0.0635,0.1475-0.0957,0.3057-0.0957,0.4746v1.0391
				h2.9941V191.2804z"/>
			<path class="st18" d="M325.837,196.4073v-1.0527h1.0527v1.0527H325.837z"/>
		</g>
		<polygon class="st18" points="240.0051,146.7463 245.9069,145.9015 229.4406,136.5914 234.6764,154.7677 236.8664,149.2249 
			242.8713,156.8306 246.0099,154.3521 		"/>
	</g>
</g>
</svg>
