<?xml version="1.0" encoding="utf-8"?>
<!-- Generator: Adobe Illustrator 21.0.2, SVG Export Plug-In . SVG Version: 6.00 Build 0)  -->
<svg version="1.1" id="Capa_1" xmlns="http://www.w3.org/2000/svg" xmlns:xlink="http://www.w3.org/1999/xlink" x="0px" y="0px"
	 viewBox="0 0 247.6374 58.1387" style="enable-background:new 0 0 247.6374 58.1387;" xml:space="preserve">
<style type="text/css">
	.st0{fill-rule:evenodd;clip-rule:evenodd;fill:#DDDDDD;}
	.st1{fill:#3B86B1;}
	.st2{opacity:0.25;fill-rule:evenodd;clip-rule:evenodd;fill:#020202;}
	.st3{fill:#FFFFFF;}
	.st4{opacity:0.5;}
	.st5{fill-rule:evenodd;clip-rule:evenodd;fill:#A8A8A8;}
	.st6{fill-rule:evenodd;clip-rule:evenodd;fill:#FFFFFF;}
	.st7{fill-rule:evenodd;clip-rule:evenodd;fill:#3B86B1;}
	.st8{opacity:0.5;fill:#2C6882;}
	.st9{opacity:0.75;fill-rule:evenodd;clip-rule:evenodd;fill:#282828;}
	.st10{opacity:0.5;fill:#FFFFFF;}
	.st11{fill-rule:evenodd;clip-rule:evenodd;fill:none;stroke:#FFFFFF;stroke-miterlimit:10;}
	.st12{fill:none;stroke:#FFFFFF;stroke-miterlimit:10;}
	.st13{fill:#FFFFFF;stroke:#3B86B1;stroke-width:1.7139;stroke-miterlimit:10;}
	.st14{fill-rule:evenodd;clip-rule:evenodd;}
	.st15{opacity:0.85;fill:#FFFFFF;}
	.st16{opacity:0.5;fill-rule:evenodd;clip-rule:evenodd;}
	.st17{fill-rule:evenodd;clip-rule:evenodd;fill:#FEFEFE;}
	.st18{fill:#312767;}
	.st19{opacity:0.48;}
	.st20{opacity:0.25;}
	.st21{fill-rule:evenodd;clip-rule:evenodd;fill:#020202;}
	.st22{fill:#757575;}
	.st23{opacity:0.25;clip-path:url(#XMLID_2330_);}
	.st24{fill:#4D4789;}
	.st25{fill:#FFFFFF;stroke:#312767;stroke-miterlimit:10;}
	.st26{fill:#FFFFFF;stroke:#3B86B1;stroke-miterlimit:10;}
	.st27{fill:#ACABC9;}
	.st28{fill-rule:evenodd;clip-rule:evenodd;fill:#312767;}
	.st29{opacity:0.77;fill:#312767;}
	.st30{opacity:0.25;clip-path:url(#XMLID_2333_);}
	.st31{fill:#9490B2;stroke:#2D2D2D;stroke-width:0.25;stroke-miterlimit:10;}
	.st32{fill:#312767;stroke:#2D2D2D;stroke-width:0.25;stroke-miterlimit:10;}
	.st33{fill:#FCFCFC;}
	.st34{fill:#FFFFFF;stroke:#2D2D2D;stroke-width:0.25;stroke-miterlimit:10;}
	.st35{fill-rule:evenodd;clip-rule:evenodd;fill:#484849;stroke:#2D2D2D;stroke-width:0.25;stroke-miterlimit:10;}
	.st36{fill-rule:evenodd;clip-rule:evenodd;fill:#312767;stroke:#2D2D2D;stroke-width:0.25;stroke-miterlimit:10;}
	.st37{fill-rule:evenodd;clip-rule:evenodd;fill:#FFFFFF;stroke:#2D2D2D;stroke-width:0.25;stroke-miterlimit:10;}
	.st38{fill:#484849;stroke:#2D2D2D;stroke-width:0.25;stroke-miterlimit:10;}
	.st39{fill:#54518C;}
	.st40{fill:#FFFFFF;stroke:#FFFFFF;stroke-miterlimit:10;}
	.st41{opacity:0.25;fill-rule:evenodd;clip-rule:evenodd;fill:#FFFFFF;}
	.st42{fill:#D4A800;}
	.st43{fill:#00AEB3;}
	.st44{fill:#38353B;}
	.st45{fill:#FF8400;}
	.st46{fill:#BF3900;}
	.st47{fill:#00AA9C;}
	.st48{opacity:0.25;clip-path:url(#XMLID_2341_);}
	.st49{fill:none;stroke:#ACABC9;stroke-width:5;stroke-miterlimit:10;}
	.st50{opacity:0.25;clip-path:url(#XMLID_2350_);}
	.st51{fill:#DDDDDD;}
	.st52{opacity:0.25;clip-path:url(#XMLID_2354_);}
	.st53{fill-rule:evenodd;clip-rule:evenodd;fill:#FFFFFF;stroke:#FFFFFF;stroke-miterlimit:10;}
	.st54{fill:#F79748;}
	.st55{fill:#FF7900;}
	.st56{fill:#DD7105;}
	.st57{fill:#02897C;}
	.st58{fill:#0EAD9A;}
	.st59{fill:#28C6AF;}
	.st60{fill:#4FE0C7;}
	.st61{fill:#D37D00;}
	.st62{fill:#D14600;}
	.st63{fill:#E5B92E;}
	.st64{fill:#DD571B;}
	.st65{fill:#E28A17;}
	.st66{opacity:0.25;clip-path:url(#XMLID_2355_);}
	.st67{opacity:0.77;fill:#FFFFFF;}
	.st68{fill:#50565B;stroke:#656C70;stroke-miterlimit:10;}
	.st69{fill:#808589;stroke:#656C70;stroke-miterlimit:10;}
	.st70{fill:#252728;stroke:#000000;stroke-miterlimit:10;}
	.st71{fill:#1A1B1C;stroke:#000000;stroke-miterlimit:10;}
	.st72{fill:#A0A6AA;}
	.st73{fill:#262C35;stroke:#161A1E;stroke-miterlimit:10;}
	.st74{fill:#181D23;}
	.st75{fill:#EABA96;stroke:#E0AA86;stroke-miterlimit:10;}
	.st76{fill:#E0AA86;}
	.st77{stroke:#000000;stroke-width:0.75;stroke-linecap:square;stroke-linejoin:bevel;stroke-miterlimit:10;}
	.st78{fill:#0F1C3F;stroke:#182951;stroke-miterlimit:10;}
	.st79{fill:#132354;stroke:#3F6093;stroke-miterlimit:10;}
	.st80{fill:#0F1C3F;}
	.st81{fill:none;stroke:#3F6093;stroke-width:0.75;stroke-miterlimit:10;}
	.st82{fill:#DBA682;}
	.st83{fill:none;stroke:#E0AA86;stroke-miterlimit:10;}
	.st84{fill:none;stroke:#E0AA86;stroke-linejoin:bevel;stroke-miterlimit:10;}
	.st85{fill:#8A0A8E;stroke:#AC34B2;stroke-miterlimit:10;}
	.st86{fill:#810C87;}
	.st87{fill:#680B6D;}
	.st88{fill:#AC34B2;stroke:#AC34B2;stroke-width:0.5;stroke-miterlimit:10;}
	.st89{fill:none;stroke:#959DA0;stroke-width:0.5;stroke-miterlimit:10;}
	.st90{fill:#959DA0;stroke:#959DA0;stroke-width:0.5;stroke-miterlimit:10;}
	.st91{fill:none;stroke:#AC34B2;stroke-miterlimit:10;}
	.st92{fill:#282828;stroke:#000000;stroke-miterlimit:10;}
	.st93{fill:#EABA96;stroke:#E0AA86;stroke-width:0.5;stroke-miterlimit:10;}
	.st94{fill:#B7896A;}
	.st95{stroke:#000000;stroke-miterlimit:10;}
	.st96{fill:#C1A578;}
	.st97{stroke:#000000;stroke-width:0.25;stroke-linecap:round;stroke-linejoin:round;stroke-miterlimit:10;}
	.st98{fill:#FFFFFF;stroke:#000000;stroke-width:0.25;stroke-linecap:round;stroke-linejoin:round;stroke-miterlimit:10;}
	.st99{fill:#70582D;}
	.st100{stroke:#000000;stroke-linecap:round;stroke-linejoin:round;stroke-miterlimit:10;}
	.st101{fill:none;stroke:#D8A27D;stroke-width:0.75;stroke-miterlimit:10;}
	.st102{fill:#561409;}
	.st103{fill:#BA2A13;}
	.st104{fill:#9E3025;stroke:#4C2311;stroke-width:0.25;stroke-miterlimit:10;}
	.st105{fill:#871D08;stroke:#4C2311;stroke-width:0.25;stroke-miterlimit:10;}
	.st106{fill:#DDAC8A;}
	.st107{fill:#A5ABAD;stroke:#959DA0;stroke-width:0.5;stroke-miterlimit:10;}
	.st108{fill:#B1BABC;}
	.st109{fill:none;stroke:#153847;stroke-width:5;stroke-miterlimit:10;}
	.st110{fill:#3CA7AF;}
	.st111{fill:#3DAD8D;}
	.st112{fill:#3DAA61;}
	.st113{fill:#67A53F;}
	.st114{fill:#95A340;}
	.st115{opacity:0.25;clip-path:url(#XMLID_2356_);}
	.st116{opacity:0.25;clip-path:url(#XMLID_2357_);}
	.st117{opacity:0.25;clip-path:url(#XMLID_2358_);}
	.st118{clip-path:url(#SVGID_2_);}
	.st119{fill:none;stroke:#3F6093;stroke-miterlimit:10;}
	.st120{fill:none;stroke:#3F6093;stroke-width:0.75;stroke-linecap:round;stroke-linejoin:round;}
	.st121{fill:none;stroke:#3F6093;stroke-width:0.75;stroke-linecap:round;stroke-linejoin:round;stroke-dasharray:0.9892,0.9892;}
	
		.st122{fill:none;stroke:#3F6093;stroke-width:0.75;stroke-linecap:round;stroke-linejoin:round;stroke-miterlimit:10;stroke-dasharray:1;}
	.st123{fill:#EAEAEA;stroke:#FFFFFF;stroke-width:0.25;stroke-miterlimit:10;}
	.st124{fill:#D8D8D8;}
	.st125{fill:#282828;stroke:#000000;stroke-width:0.75;stroke-miterlimit:10;}
	.st126{opacity:0.33;fill:#FFFFFF;}
	.st127{fill:none;stroke:#000000;stroke-width:1.5;stroke-linecap:round;stroke-linejoin:round;stroke-miterlimit:10;}
	.st128{clip-path:url(#SVGID_4_);}
	.st129{opacity:0.64;}
	.st130{fill:#1D1D1B;}
	.st131{fill:#C9C9C9;}
</style>
<g>
	<g id="XMLID_2342_">
		<g>
			<polygon class="st5" points="233.6108,58.1387 247.6374,40.3532 237.2122,20.1843 233.6108,20.1868 			"/>
		</g>
	</g>
	<rect id="XMLID_2340_" x="0" class="st7" width="247.6374" height="40.3532"/>
	<g>
		<g>
			<path class="st3" d="M52.292,12.6739h2.6016v6.9785c0,1.1074,0.0322,1.8252,0.0967,2.1533
				c0.1113,0.5273,0.3765,0.9512,0.7954,1.2705s0.9917,0.4785,1.7183,0.4785c0.7383,0,1.2949-0.1504,1.6699-0.4531
				c0.375-0.3008,0.6006-0.6719,0.6768-1.1113s0.1143-1.1689,0.1143-2.1885v-7.1279h2.6016v6.7676
				c0,1.5469-0.0703,2.6396-0.2109,3.2783s-0.3999,1.1777-0.7778,1.6172s-0.8833,0.79-1.5161,1.0498
				c-0.6328,0.2607-1.459,0.3916-2.4785,0.3916c-1.2305,0-2.1636-0.1426-2.7993-0.4268c-0.6357-0.2832-1.1382-0.6523-1.5073-1.1074
				c-0.3691-0.4531-0.6123-0.9297-0.7295-1.4277c-0.1699-0.7383-0.2549-1.8281-0.2549-3.2695V12.6739z"/>
			<path class="st3" d="M64.4209,22.8956l2.4785-0.3779c0.1055,0.4805,0.3193,0.8457,0.6416,1.0938
				c0.3223,0.25,0.7734,0.374,1.3535,0.374c0.6387,0,1.1191-0.1172,1.4414-0.3516c0.2168-0.1641,0.3252-0.3838,0.3252-0.6592
				c0-0.1875-0.0586-0.3428-0.1758-0.4658c-0.123-0.1172-0.3984-0.2256-0.8262-0.3252c-1.9922-0.4395-3.2549-0.8408-3.7881-1.2041
				c-0.7383-0.5039-1.1074-1.2041-1.1074-2.1006c0-0.8086,0.3193-1.4883,0.958-2.0391s1.6289-0.8262,2.9707-0.8262
				c1.2773,0,2.2266,0.208,2.8477,0.624s1.0488,1.0313,1.2832,1.8457l-2.3291,0.4307c-0.0996-0.3633-0.2886-0.6416-0.5669-0.835
				s-0.6753-0.29-1.1909-0.29c-0.6504,0-1.1162,0.0908-1.3975,0.2725c-0.1875,0.1289-0.2813,0.2959-0.2813,0.501
				c0,0.1758,0.082,0.3252,0.2461,0.4482c0.2227,0.1641,0.9917,0.3955,2.3071,0.6943s2.2339,0.665,2.7554,1.0986
				c0.5156,0.4395,0.7734,1.0518,0.7734,1.8369c0,0.8555-0.3574,1.5908-1.0723,2.2061s-1.7725,0.9229-3.1729,0.9229
				c-1.2715,0-2.2778-0.2578-3.019-0.7734S64.6494,23.7804,64.4209,22.8956z"/>
			<path class="st3" d="M77.1475,19.0724l-2.2412-0.4043c0.252-0.9023,0.6855-1.5703,1.3008-2.0039s1.5293-0.6504,2.7422-0.6504
				c1.1016,0,1.9219,0.1309,2.4609,0.3906c0.5391,0.2617,0.9185,0.5928,1.1382,0.9941s0.3296,1.1377,0.3296,2.21l-0.0264,2.8828
				c0,0.8203,0.0396,1.4258,0.1187,1.8154s0.2271,0.8066,0.4438,1.252h-2.4434c-0.0645-0.1641-0.1436-0.4072-0.2373-0.7295
				c-0.041-0.1465-0.0703-0.2432-0.0879-0.29c-0.4219,0.4102-0.873,0.7178-1.3535,0.9229s-0.9932,0.3076-1.5381,0.3076
				c-0.9609,0-1.7183-0.2607-2.272-0.7822s-0.8306-1.1807-0.8306-1.9775c0-0.5273,0.126-0.998,0.3779-1.4102
				c0.252-0.4141,0.605-0.7305,1.0591-0.9492c0.4541-0.2207,1.1089-0.4121,1.9644-0.5762c1.1543-0.2168,1.9541-0.4189,2.3994-0.6064
				v-0.2461c0-0.4746-0.1172-0.8135-0.3516-1.0146c-0.2344-0.2031-0.6768-0.3037-1.3271-0.3037
				c-0.4395,0-0.7822,0.0869-1.0283,0.2588C77.499,18.336,77.2998,18.6388,77.1475,19.0724z M80.4522,21.0763
				c-0.3164,0.1055-0.8174,0.2314-1.5029,0.3779s-1.1338,0.29-1.3447,0.4307c-0.3223,0.2285-0.4834,0.5186-0.4834,0.8701
				c0,0.3457,0.1289,0.6445,0.3867,0.8965s0.5859,0.3779,0.9844,0.3779c0.4453,0,0.8701-0.1465,1.2744-0.4395
				c0.2988-0.2227,0.4951-0.4951,0.5889-0.8174c0.0645-0.2109,0.0967-0.6123,0.0967-1.2041V21.0763z"/>
			<path class="st3" d="M85.207,25.5587V12.6739h2.4697v4.6406c0.7617-0.8672,1.6641-1.3008,2.707-1.3008
				c1.1367,0,2.0771,0.4121,2.8213,1.2344c0.7441,0.8242,1.1162,2.0059,1.1162,3.5469c0,1.5938-0.3794,2.8213-1.1382,3.6826
				s-1.6802,1.292-2.7642,1.292c-0.5332,0-1.0591-0.1338-1.5776-0.4004c-0.5186-0.2656-0.9653-0.6602-1.3403-1.1816v1.3711H85.207z
				 M87.6592,20.6896c0,0.9668,0.1523,1.6816,0.457,2.1445c0.4277,0.6563,0.9961,0.9844,1.7051,0.9844
				c0.5449,0,1.0093-0.2324,1.3931-0.6992c0.3838-0.4648,0.5757-1.1992,0.5757-2.2012c0-1.0664-0.1934-1.835-0.5801-2.3066
				s-0.8818-0.708-1.4854-0.708c-0.5918,0-1.084,0.2305-1.4766,0.6904S87.6592,19.7521,87.6592,20.6896z"/>
			<path class="st3" d="M96.3076,14.9591v-2.2852h2.4697v2.2852H96.3076z M96.3076,25.5587v-9.334h2.4697v9.334H96.3076z"/>
			<path class="st3" d="M101.3086,25.5587V12.6739h2.4697v12.8848H101.3086z"/>
			<path class="st3" d="M106.3096,14.9591v-2.2852h2.4697v2.2852H106.3096z M106.3096,25.5587v-9.334h2.4697v9.334H106.3096z"/>
			<path class="st3" d="M119.8711,25.5587h-2.2939v-1.3711c-0.3809,0.5332-0.8306,0.9307-1.3491,1.1914
				c-0.5186,0.2598-1.0415,0.3906-1.5688,0.3906c-1.0723,0-1.9907-0.4316-2.7554-1.2969c-0.7646-0.8633-1.147-2.0693-1.147-3.6162
				c0-1.582,0.3721-2.7842,1.1162-3.6084c0.7441-0.8223,1.6846-1.2344,2.8213-1.2344c1.043,0,1.9453,0.4336,2.707,1.3008v-4.6406
				h2.4697V25.5587z M113.2793,20.6896c0,0.9961,0.1377,1.7168,0.4131,2.1621c0.3984,0.6445,0.9551,0.9668,1.6699,0.9668
				c0.5684,0,1.0518-0.2422,1.4502-0.7246c0.3984-0.4844,0.5977-1.2061,0.5977-2.167c0-1.0723-0.1934-1.8438-0.5801-2.3154
				s-0.8818-0.708-1.4854-0.708c-0.5859,0-1.0767,0.2334-1.4722,0.6982C113.4771,19.0685,113.2793,19.7638,113.2793,20.6896z"/>
			<path class="st3" d="M124.1514,19.0724l-2.2412-0.4043c0.252-0.9023,0.6855-1.5703,1.3008-2.0039s1.5293-0.6504,2.7422-0.6504
				c1.1016,0,1.9219,0.1309,2.4609,0.3906c0.5391,0.2617,0.9185,0.5928,1.1382,0.9941s0.3296,1.1377,0.3296,2.21l-0.0264,2.8828
				c0,0.8203,0.0396,1.4258,0.1187,1.8154s0.2271,0.8066,0.4438,1.252h-2.4434c-0.0645-0.1641-0.1436-0.4072-0.2373-0.7295
				c-0.041-0.1465-0.0703-0.2432-0.0879-0.29c-0.4219,0.4102-0.873,0.7178-1.3535,0.9229s-0.9932,0.3076-1.5381,0.3076
				c-0.9609,0-1.7183-0.2607-2.272-0.7822s-0.8306-1.1807-0.8306-1.9775c0-0.5273,0.126-0.998,0.3779-1.4102
				c0.252-0.4141,0.605-0.7305,1.0591-0.9492c0.4541-0.2207,1.1089-0.4121,1.9644-0.5762c1.1543-0.2168,1.9541-0.4189,2.3994-0.6064
				v-0.2461c0-0.4746-0.1172-0.8135-0.3516-1.0146c-0.2344-0.2031-0.6768-0.3037-1.3271-0.3037
				c-0.4395,0-0.7822,0.0869-1.0283,0.2588C124.5029,18.336,124.3037,18.6388,124.1514,19.0724z M127.4561,21.0763
				c-0.3164,0.1055-0.8174,0.2314-1.5029,0.3779s-1.1338,0.29-1.3447,0.4307c-0.3223,0.2285-0.4834,0.5186-0.4834,0.8701
				c0,0.3457,0.1289,0.6445,0.3867,0.8965s0.5859,0.3779,0.9844,0.3779c0.4453,0,0.8701-0.1465,1.2744-0.4395
				c0.2988-0.2227,0.4951-0.4951,0.5889-0.8174c0.0645-0.2109,0.0967-0.6123,0.0967-1.2041V21.0763z"/>
			<path class="st3" d="M140.877,25.5587h-2.2939v-1.3711c-0.3809,0.5332-0.8306,0.9307-1.3491,1.1914
				c-0.5186,0.2598-1.0415,0.3906-1.5688,0.3906c-1.0723,0-1.9907-0.4316-2.7554-1.2969c-0.7646-0.8633-1.147-2.0693-1.147-3.6162
				c0-1.582,0.3721-2.7842,1.1162-3.6084c0.7441-0.8223,1.6846-1.2344,2.8213-1.2344c1.043,0,1.9453,0.4336,2.707,1.3008v-4.6406
				h2.4697V25.5587z M134.2852,20.6896c0,0.9961,0.1377,1.7168,0.4131,2.1621c0.3984,0.6445,0.9551,0.9668,1.6699,0.9668
				c0.5684,0,1.0518-0.2422,1.4502-0.7246c0.3984-0.4844,0.5977-1.2061,0.5977-2.167c0-1.0723-0.1934-1.8438-0.5801-2.3154
				s-0.8818-0.708-1.4854-0.708c-0.5859,0-1.0767,0.2334-1.4722,0.6982C134.4829,19.0685,134.2852,19.7638,134.2852,20.6896z"/>
		</g>
	</g>
	<g>
		<path class="st34" d="M23.3531,34.306c7.0555,0,12.7752-5.7194,12.7752-12.775c0-2.1709-0.5398-4.2136-1.4941-6.0029
			c-0.1044,0.0148-0.2117,0.0208-0.3161,0.0208c-0.0595,0-0.1221-0.0029-0.1848-0.006l-1.6253-0.1252l-1.1689,1.1689
			c0.8915,1.4375,1.4075,3.1312,1.4075,4.9443c0,5.1858-4.2046,9.3905-9.3904,9.3905c-5.1858,0-9.3935-4.2047-9.3935-9.3905
			c0-5.1859,4.2047-9.3904,9.3904-9.3904c1.8161,0,3.5099,0.5159,4.9442,1.4075l1.0587-1.0586l-0.1432-1.8638
			c-0.0119-0.1491-0.009-0.2982,0.0058-0.4444c-1.7563-0.9095-3.7513-1.4253-5.8686-1.4253c-7.0525,0-12.7721,5.7194-12.7721,12.775
			C10.5781,28.5865,16.2977,34.306,23.3531,34.306L23.3531,34.306z M23.3531,34.306"/>
		<path class="st34" d="M23.3531,18.2299c0.0836,0,0.167,0.0029,0.2506,0.0089l2.3587-2.3588l0.0506-0.0507
			c-0.8081-0.3787-1.7087-0.5904-2.6599-0.5904c-3.4741,0-6.2891,2.815-6.2891,6.2893c0,3.4741,2.815,6.2919,6.2891,6.2919
			c3.4742,0,6.2892-2.815,6.2892-6.289c0-0.9513-0.2117-1.8519-0.5904-2.66l-0.0509,0.0507l-2.3587,2.3588
			c0.0059,0.0834,0.0088,0.167,0.0088,0.2505c0,1.822-1.476,3.301-3.3011,3.301c-1.825,0-3.2981-1.479-3.2981-3.301
			C20.0521,19.7089,21.5312,18.2299,23.3531,18.2299L23.3531,18.2299z M23.3531,18.2299"/>
		<path class="st18" d="M36.5537,9.942l0.6909-0.6909c0.3157-0.3157,0.3157-0.8244,0-1.1401l-0.4788-0.4815
			c-0.1577-0.1577-0.3645-0.2366-0.5686-0.2366c-0.204,0-0.4135,0.0789-0.5686,0.2366L34.837,8.4213l-0.1632-2.1084
			c-0.0109-0.155-0.1388-0.2503-0.272-0.2503c-0.0681,0-0.1361,0.0245-0.1905,0.0789l-3.115,3.1151
			c-0.2803,0.2802-0.4244,0.6693-0.3945,1.0664l0.0081,0.1224l0.1497,1.9506l-1.1264,1.1263l-2.0267,2.0269l-0.0464,0.0462
			l-1.9615,1.9615l-0.8705,0.8707c-0.1142,0.1142-0.185,0.2666-0.1959,0.4271l-0.0543,0.6828
			c-0.0327,0.3973,0.2828,0.7346,0.6773,0.7346h0.0354l0.721-0.0353c0.1686-0.0082,0.3292-0.079,0.4461-0.1986l6.1212-6.1212
			l1.7792,0.136l0.0789,0.0055c0.0353,0.0026,0.0708,0.0026,0.1034,0.0026c0.3591,0,0.7046-0.1415,0.963-0.3971l3.1123-3.1123
			c0.1633-0.1633,0.0599-0.4462-0.1713-0.4626L36.5537,9.942z M36.5537,9.942"/>
		<path class="st38" d="M36.5537,9.942l0.6909-0.6909c0.3157-0.3157,0.3157-0.8244,0-1.1401l-0.4788-0.4815
			c-0.1577-0.1577-0.3645-0.2366-0.5686-0.2366c-0.204,0-0.4135,0.0789-0.5686,0.2366L34.837,8.4213l-0.1632-2.1084
			c-0.0109-0.155-0.1388-0.2503-0.272-0.2503c-0.0681,0-0.1361,0.0245-0.1905,0.0789l-3.115,3.1151
			c-0.2803,0.2802-0.4244,0.6693-0.3945,1.0664l0.0081,0.1224l0.1497,1.9506l-1.1264,1.1263l-2.0267,2.0269l-0.0464,0.0462
			l-1.9615,1.9615l-0.8705,0.8707c-0.1142,0.1142-0.185,0.2666-0.1959,0.4271l-0.0543,0.6828
			c-0.0327,0.3973,0.2828,0.7346,0.6773,0.7346h0.0354l0.721-0.0353c0.1686-0.0082,0.3292-0.079,0.4461-0.1986l6.1212-6.1212
			l1.7792,0.136l0.0789,0.0055c0.0353,0.0026,0.0708,0.0026,0.1034,0.0026c0.3591,0,0.7046-0.1415,0.963-0.3971l3.1123-3.1123
			c0.1633-0.1633,0.0599-0.4462-0.1713-0.4626L36.5537,9.942z M36.5537,9.942"/>
	</g>
	<polygon id="XMLID_2337_" class="st8" points="233.6108,47.5236 0,40.3532 233.611,40.3532 	"/>
</g>
</svg>
