<?xml version="1.0" encoding="utf-8"?>
<!-- Generator: Adobe Illustrator 21.0.2, SVG Export Plug-In . SVG Version: 6.00 Build 0)  -->
<svg version="1.1" id="Capa_1" xmlns="http://www.w3.org/2000/svg" xmlns:xlink="http://www.w3.org/1999/xlink" x="0px" y="0px"
	 viewBox="0 0 191.2907 168.0245" style="enable-background:new 0 0 191.2907 168.0245;" xml:space="preserve">
<style type="text/css">
	.st0{fill-rule:evenodd;clip-rule:evenodd;fill:#DDDDDD;}
	.st1{fill:#3B86B1;}
	.st2{opacity:0.25;fill-rule:evenodd;clip-rule:evenodd;fill:#020202;}
	.st3{fill:#FFFFFF;}
	.st4{opacity:0.5;}
	.st5{fill-rule:evenodd;clip-rule:evenodd;fill:#A8A8A8;}
	.st6{fill-rule:evenodd;clip-rule:evenodd;fill:#FFFFFF;}
	.st7{fill-rule:evenodd;clip-rule:evenodd;fill:#3B86B1;}
	.st8{opacity:0.5;fill:#2C6882;}
	.st9{opacity:0.75;fill-rule:evenodd;clip-rule:evenodd;fill:#282828;}
	.st10{opacity:0.5;fill:#FFFFFF;}
	.st11{fill-rule:evenodd;clip-rule:evenodd;fill:none;stroke:#FFFFFF;stroke-miterlimit:10;}
	.st12{fill:none;stroke:#FFFFFF;stroke-miterlimit:10;}
	.st13{fill:#FFFFFF;stroke:#3B86B1;stroke-width:1.7139;stroke-miterlimit:10;}
	.st14{fill-rule:evenodd;clip-rule:evenodd;}
	.st15{opacity:0.85;fill:#FFFFFF;}
	.st16{opacity:0.5;fill-rule:evenodd;clip-rule:evenodd;}
	.st17{fill-rule:evenodd;clip-rule:evenodd;fill:#FEFEFE;}
	.st18{fill:#312767;}
	.st19{opacity:0.48;}
	.st20{opacity:0.25;}
	.st21{fill-rule:evenodd;clip-rule:evenodd;fill:#020202;}
	.st22{fill:#757575;}
	.st23{opacity:0.25;clip-path:url(#XMLID_3738_);}
	.st24{fill:#FFFFFF;stroke:#312767;stroke-miterlimit:10;}
	.st25{fill:#ACABC9;}
	.st26{fill-rule:evenodd;clip-rule:evenodd;fill:#312767;}
	.st27{opacity:0.77;fill:#312767;}
	.st28{opacity:0.25;clip-path:url(#XMLID_3760_);}
	.st29{fill:#9490B2;stroke:#2D2D2D;stroke-width:0.25;stroke-miterlimit:10;}
	.st30{fill:#312767;stroke:#2D2D2D;stroke-width:0.25;stroke-miterlimit:10;}
	.st31{fill:#FCFCFC;}
	.st32{fill:#FFFFFF;stroke:#2D2D2D;stroke-width:0.25;stroke-miterlimit:10;}
	.st33{fill-rule:evenodd;clip-rule:evenodd;fill:#484849;stroke:#2D2D2D;stroke-width:0.25;stroke-miterlimit:10;}
	.st34{fill-rule:evenodd;clip-rule:evenodd;fill:#312767;stroke:#2D2D2D;stroke-width:0.25;stroke-miterlimit:10;}
	.st35{fill-rule:evenodd;clip-rule:evenodd;fill:#FFFFFF;stroke:#2D2D2D;stroke-width:0.25;stroke-miterlimit:10;}
	.st36{fill:#484849;stroke:#2D2D2D;stroke-width:0.25;stroke-miterlimit:10;}
	.st37{fill:#FFFFFF;stroke:#FFFFFF;stroke-miterlimit:10;}
	.st38{fill:#54518C;}
	.st39{opacity:0.25;fill-rule:evenodd;clip-rule:evenodd;fill:#FFFFFF;}
	.st40{fill:#D4A800;}
	.st41{fill:#00AEB3;}
	.st42{fill:#38353B;}
	.st43{fill:#FF8400;}
	.st44{fill:#BF3900;}
	.st45{fill:#00AA9C;}
	.st46{opacity:0.25;clip-path:url(#XMLID_3761_);}
	.st47{fill:none;stroke:#ACABC9;stroke-width:5;stroke-miterlimit:10;}
	.st48{opacity:0.25;clip-path:url(#XMLID_3762_);}
	.st49{fill:#DDDDDD;}
	.st50{opacity:0.25;clip-path:url(#XMLID_3763_);}
	.st51{fill-rule:evenodd;clip-rule:evenodd;fill:#FFFFFF;stroke:#FFFFFF;stroke-miterlimit:10;}
	.st52{fill:#F79748;}
	.st53{fill:#FF7900;}
	.st54{fill:#DD7105;}
	.st55{fill:#02897C;}
	.st56{fill:#0EAD9A;}
	.st57{fill:#28C6AF;}
	.st58{fill:#4FE0C7;}
	.st59{fill:#D37D00;}
	.st60{fill:#D14600;}
	.st61{fill:#E5B92E;}
	.st62{fill:#DD571B;}
	.st63{fill:#E28A17;}
	.st64{opacity:0.25;clip-path:url(#XMLID_3770_);}
	.st65{fill:#4D4789;}
	.st66{opacity:0.77;fill:#FFFFFF;}
	.st67{fill:#50565B;stroke:#656C70;stroke-miterlimit:10;}
	.st68{fill:#808589;stroke:#656C70;stroke-miterlimit:10;}
	.st69{fill:#252728;stroke:#000000;stroke-miterlimit:10;}
	.st70{fill:#1A1B1C;stroke:#000000;stroke-miterlimit:10;}
	.st71{fill:#A0A6AA;}
	.st72{fill:#262C35;stroke:#161A1E;stroke-miterlimit:10;}
	.st73{fill:#181D23;}
	.st74{fill:#EABA96;stroke:#E0AA86;stroke-miterlimit:10;}
	.st75{fill:#E0AA86;}
	.st76{stroke:#000000;stroke-width:0.75;stroke-linecap:square;stroke-linejoin:bevel;stroke-miterlimit:10;}
	.st77{fill:#0F1C3F;stroke:#182951;stroke-miterlimit:10;}
	.st78{fill:#132354;stroke:#3F6093;stroke-miterlimit:10;}
	.st79{fill:#0F1C3F;}
	.st80{fill:none;stroke:#3F6093;stroke-width:0.75;stroke-miterlimit:10;}
	.st81{fill:#DBA682;}
	.st82{fill:none;stroke:#E0AA86;stroke-miterlimit:10;}
	.st83{fill:none;stroke:#E0AA86;stroke-linejoin:bevel;stroke-miterlimit:10;}
	.st84{fill:#8A0A8E;stroke:#AC34B2;stroke-miterlimit:10;}
	.st85{fill:#810C87;}
	.st86{fill:#680B6D;}
	.st87{fill:#AC34B2;stroke:#AC34B2;stroke-width:0.5;stroke-miterlimit:10;}
	.st88{fill:none;stroke:#959DA0;stroke-width:0.5;stroke-miterlimit:10;}
	.st89{fill:#959DA0;stroke:#959DA0;stroke-width:0.5;stroke-miterlimit:10;}
	.st90{fill:none;stroke:#AC34B2;stroke-miterlimit:10;}
	.st91{fill:#282828;stroke:#000000;stroke-miterlimit:10;}
	.st92{fill:#EABA96;stroke:#E0AA86;stroke-width:0.5;stroke-miterlimit:10;}
	.st93{fill:#B7896A;}
	.st94{stroke:#000000;stroke-miterlimit:10;}
	.st95{fill:#C1A578;}
	.st96{stroke:#000000;stroke-width:0.25;stroke-linecap:round;stroke-linejoin:round;stroke-miterlimit:10;}
	.st97{fill:#FFFFFF;stroke:#000000;stroke-width:0.25;stroke-linecap:round;stroke-linejoin:round;stroke-miterlimit:10;}
	.st98{fill:#70582D;}
	.st99{stroke:#000000;stroke-linecap:round;stroke-linejoin:round;stroke-miterlimit:10;}
	.st100{fill:none;stroke:#D8A27D;stroke-width:0.75;stroke-miterlimit:10;}
	.st101{fill:#561409;}
	.st102{fill:#BA2A13;}
	.st103{fill:#9E3025;stroke:#4C2311;stroke-width:0.25;stroke-miterlimit:10;}
	.st104{fill:#871D08;stroke:#4C2311;stroke-width:0.25;stroke-miterlimit:10;}
	.st105{fill:#DDAC8A;}
	.st106{fill:#A5ABAD;stroke:#959DA0;stroke-width:0.5;stroke-miterlimit:10;}
	.st107{fill:#B1BABC;}
	.st108{fill:none;stroke:#153847;stroke-width:5;stroke-miterlimit:10;}
	.st109{fill:#3CA7AF;}
	.st110{fill:#3DAD8D;}
	.st111{fill:#3DAA61;}
	.st112{fill:#67A53F;}
	.st113{fill:#95A340;}
	.st114{fill:#153847;}
	.st115{opacity:0.25;clip-path:url(#XMLID_3771_);}
	.st116{opacity:0.25;clip-path:url(#XMLID_3772_);}
	.st117{opacity:0.25;clip-path:url(#XMLID_3773_);}
	.st118{opacity:0.25;clip-path:url(#XMLID_3780_);}
	.st119{clip-path:url(#SVGID_2_);}
	.st120{fill:none;stroke:#3F6093;stroke-miterlimit:10;}
	.st121{fill:none;stroke:#3F6093;stroke-width:0.75;stroke-linecap:round;stroke-linejoin:round;}
	.st122{fill:none;stroke:#3F6093;stroke-width:0.75;stroke-linecap:round;stroke-linejoin:round;stroke-dasharray:0.9892,0.9892;}
	
		.st123{fill:none;stroke:#3F6093;stroke-width:0.75;stroke-linecap:round;stroke-linejoin:round;stroke-miterlimit:10;stroke-dasharray:1;}
	.st124{fill:#EAEAEA;stroke:#FFFFFF;stroke-width:0.25;stroke-miterlimit:10;}
	.st125{fill:#D8D8D8;}
	.st126{fill:#282828;stroke:#000000;stroke-width:0.75;stroke-miterlimit:10;}
	.st127{opacity:0.33;fill:#FFFFFF;}
	.st128{fill:none;stroke:#000000;stroke-width:1.5;stroke-linecap:round;stroke-linejoin:round;stroke-miterlimit:10;}
	.st129{opacity:0.64;}
	.st130{fill:#C9C9C9;}
	.st131{fill:#FFF064;}
	.st132{fill:#4F4E4F;}
	.st133{fill:#1E2F47;}
	.st134{opacity:0.1;fill:#FFFFFF;}
	.st135{opacity:0.1;}
	.st136{opacity:0.4;fill:#FFFFFF;}
	.st137{fill-rule:evenodd;clip-rule:evenodd;fill:#F39C12;}
	.st138{fill-rule:evenodd;clip-rule:evenodd;fill:#E6E6E6;}
	.st139{fill-rule:evenodd;clip-rule:evenodd;fill:#474646;}
	.st140{fill-rule:evenodd;clip-rule:evenodd;fill:#D84848;}
	.st141{opacity:0.2;fill-rule:evenodd;clip-rule:evenodd;fill:#231F20;}
	.st142{opacity:0.1;fill-rule:evenodd;clip-rule:evenodd;fill:#231F20;}
	.st143{fill-rule:evenodd;clip-rule:evenodd;fill:#4D4D4D;}
	.st144{fill-rule:evenodd;clip-rule:evenodd;fill:#336699;}
	.st145{fill-rule:evenodd;clip-rule:evenodd;fill:#FF6633;}
	.st146{fill-rule:evenodd;clip-rule:evenodd;fill:#0056A3;}
	.st147{fill-rule:evenodd;clip-rule:evenodd;fill:#33CC99;}
	.st148{fill:#CE6405;}
	.st149{opacity:0.2;fill:#FFFFFF;}
	.st150{fill:#1ABC9C;}
	.st151{opacity:0.2;}
	.st152{fill:#0B2E44;}
	.st153{fill-rule:evenodd;clip-rule:evenodd;fill:#154F77;}
	.st154{fill-rule:evenodd;clip-rule:evenodd;fill:#0D3858;}
	.st155{fill-rule:evenodd;clip-rule:evenodd;fill:#FFFEFE;}
	.st156{fill:#AEC647;}
	.st157{fill:#F3AE1B;}
	.st158{fill:#DF3F11;}
	.st159{fill:#BCDEDE;}
	.st160{fill:#C84119;}
	.st161{fill:#6BB5CE;}
	.st162{fill:#00D0E5;}
	.st163{fill:#FF81ED;}
	.st164{fill:#00C982;}
	.st165{opacity:0.7;}
	.st166{opacity:0.4;}
	.st167{fill-rule:evenodd;clip-rule:evenodd;fill:#0B2E44;}
	.st168{opacity:0.8;fill-rule:evenodd;clip-rule:evenodd;fill:#FFFFFF;}
	.st169{fill:#424242;}
	.st170{opacity:0.2;fill-rule:evenodd;clip-rule:evenodd;fill:#FFFFFF;}
	.st171{fill:#D0EDFA;}
	.st172{fill:#FF651F;}
	.st173{fill:#0051C4;}
	.st174{fill:#E46400;}
	.st175{fill:#C0003B;}
	.st176{fill:#FFEA50;}
	.st177{fill:#FF2C0D;}
	.st178{fill:#FF1A2C;}
	.st179{fill:#FF2C4D;}
	.st180{fill:#FFD74C;}
	.st181{fill:#4C4C4B;}
	.st182{fill:#6CD2EA;}
	.st183{fill:#F7674F;}
	.st184{opacity:0.1;fill-rule:evenodd;clip-rule:evenodd;}
	.st185{fill:#BABABA;}
	.st186{fill:#F9B946;}
	.st187{fill:#DFC2A9;}
	.st188{fill:#BFA490;}
	.st189{fill:#F5D4B2;}
	.st190{fill:#DF584C;}
	.st191{fill:#C2443E;}
	.st192{fill:#DBDBDA;}
	.st193{fill:#2F363E;}
	.st194{fill:#332524;}
	.st195{fill:#473735;}
	.st196{opacity:0.25;clip-path:url(#XMLID_3781_);}
	.st197{fill:#52B8BA;}
	.st198{fill:#35373E;}
	.st199{opacity:0.25;clip-path:url(#XMLID_3782_);}
	.st200{opacity:0.31;fill:#34383A;}
	.st201{opacity:0.16;fill:#3D3835;}
	.st202{fill:#D0D1D4;}
	.st203{opacity:0.31;}
	.st204{fill:#34383A;}
	.st205{opacity:0.16;}
	.st206{fill:#3D3835;}
	.st207{opacity:0.25;clip-path:url(#XMLID_3783_);}
	.st208{fill:#F9E1B4;}
	.st209{opacity:0.25;fill:#050505;}
	.st210{fill:#FCC60F;}
	.st211{fill:#74CAEA;}
	.st212{fill:#050505;}
	.st213{opacity:0.25;clip-path:url(#XMLID_3784_);}
	.st214{fill:#FABC8F;}
	.st215{fill:#3FA995;}
	.st216{opacity:0.17;fill:#020202;}
	.st217{fill:#E1E1E1;}
	.st218{opacity:0.17;}
	.st219{fill:#020202;}
	.st220{opacity:0.25;clip-path:url(#XMLID_3785_);}
	.st221{fill:#BF8E00;}
	.st222{fill:#F7D8D7;}
	.st223{fill:#F18636;}
	.st224{fill:#004460;}
	.st225{fill:#D93A37;}
	.st226{fill:#EDEDED;}
	.st227{fill:#184F78;}
	.st228{fill:#FF3E03;}
	.st229{opacity:0.6;fill:#0F0F0F;}
	.st230{fill:#E8E8E6;}
	.st231{fill:#00EAA6;}
	.st232{fill-rule:evenodd;clip-rule:evenodd;fill:#FF3E03;}
	.st233{opacity:0.1;fill-rule:evenodd;clip-rule:evenodd;fill:#020202;}
	.st234{fill-rule:evenodd;clip-rule:evenodd;fill:#FABE00;}
	.st235{fill-rule:evenodd;clip-rule:evenodd;fill:#E6E8E8;}
	.st236{fill-rule:evenodd;clip-rule:evenodd;fill:#F7D959;}
	.st237{fill-rule:evenodd;clip-rule:evenodd;fill:#F9623E;}
	.st238{fill:#4F1A0F;}
	.st239{opacity:0.46;fill:#FFFFFF;}
	.st240{fill:#48505A;}
	.st241{fill:#C3C3C3;}
	.st242{fill:#E9E9EA;}
	.st243{fill:#9D9E9F;}
	.st244{fill:#F6F4F4;}
	.st245{fill:#6B6A6A;}
	.st246{fill:#C09478;}
	.st247{fill:#F7CDA0;}
	.st248{fill:#9E1010;}
	.st249{fill:#F2F2F2;}
	.st250{opacity:0.2;fill:#060606;}
	.st251{fill:#16AFBE;}
	.st252{fill:#DD2222;}
	.st253{fill:#FFEDDC;}
	.st254{fill:#22272B;}
	.st255{fill:#5B6375;}
</style>
<g>
	<g>
		<path class="st208" d="M177.7538,135.1273c0,0-6.6619-17.3901-8.6527-20.6436c0,0,10.093-12.5112,7.405-36.0329
			c0,0,10.758-24.2147,11.3469-42.9735c0,0,1.2661-5.558-4.6957-9.6264c0,0-5.045-1.8636-5.3259,6.2618
			c0,0,0.3952,8.0602-1.843,18.7452c0,0-1.6466,9.5095-5.8475,12.1172c0,0-3.2181,3.1731-1.4362-9.9288
			c0,0,3.5179-17.497,2.6116-29.5908c-0.9063-12.0938-9.1234-19.491-9.1234-19.491s-4.3908-4.365-9.4376-1.5976
			c0,0-3.9093,0.1748,2.8438,18.0482c0,0,4.8122,12.2326,3.2398,23.793c0,0,0.4112,8.8082-3.1044,12.7258
			c0,0-2.7838,3.1537-3.4367-5.6088c0,0-1.6751-16.8296-3.3457-20.7069c0,0-1.426-10.8693-9.5306-21.9797
			c0,0-11.4223-12.1112-18.4653-7.6529c0,0-4.714,3.4483,1.753,9.8617c0,0,8.6496,4.9044,13.1082,13.7324
			c0,0,4.3828,12.8355,5.0092,17.2195c0.0901,0.6308,0.2046,1.2529,0.3543,1.8723c0.6088,2.5192,2.3945,7.6151,0.9231,11.8954
			c0,0-1.3646,3.8993-5.251-0.7659c-2.5454-3.0556-5.9702-5.2663-9.8276-6.234c-1.7461-0.4381-3.8492-0.8439-6.3672-1.1593
			c-10.9596-1.3728-20.1528,7.1337-20.1528,7.1337S88.3307,64.8394,93.663,66.8991c0,0,2.6897,3.3094,8.912,1.1336
			c0,0,9.0527-7.4033,13.638-7.6431c0,0,9.4715-1.5376,11.9809,11.7554c2.5093,13.293,1.6533,14.3933-1.511,21.4985
			c0,0-3.4296,9.3455-14.3218,10.6507c0,0-9.3803,2.021-15.2878-7.0637c0,0-2.1943-8.9722-6.2633-9.6433
			c-4.069-0.6712-7.7628-0.3493-9.3366,6.8937c0,0,1.644,13.0184,10.6867,22.137c8.1492,8.2176,22.253,8.376,32.1756,9.3467
			c2.1701,0.2123,4.3503,0.2925,6.5296,0.2236c1.8738-0.0592,4.4133-0.1179,7.3598-0.1309l3.1514,19.9002L177.7538,135.1273z"/>
	</g>
	<g class="st20">
		<polygon class="st212" points="42.6973,2.8283 68.8273,39.0648 111.365,25.4114 84.8684,61.1231 110.9443,97.1911 
			68.4784,83.1497 42.0764,119.1565 42.3375,74.7976 0,61.1566 42.5377,47.5031 		"/>
	</g>
	<g>
		<polygon class="st210" points="45.4532,0.5588 71.5832,36.7953 114.1209,23.1419 87.6243,58.8536 113.7002,94.9216 
			71.2342,80.8802 44.8323,116.8869 45.0933,72.528 2.7558,58.8871 45.2935,45.2336 		"/>
	</g>
	<g>
		<path class="st211" d="M191.2907,168.0245h-47.3925l-7.7097-28.0315c-0.6599-2.4112,0.7776-4.9223,3.1888-5.5822l35.1836-9.5877
			c2.4148-0.6563,4.9258,0.7811,5.5821,3.1923L191.2907,168.0245z"/>
	</g>
	<g>
		<path class="st3" d="M182.16,144.2388l-39.6239,11.2536c-2.5584,0.7266-5.2462-0.7721-5.9728-3.3306l-3.5195-12.3922
			c-0.7267-2.5585,0.7721-5.2462,3.3306-5.9728l39.6239-11.2536c2.5584-0.7267,5.2462,0.7721,5.9728,3.3306l3.5195,12.3922
			C186.2171,140.8244,184.7184,143.5122,182.16,144.2388z"/>
	</g>
</g>
</svg>
