<?xml version="1.0" encoding="utf-8"?>
<!-- Generator: Adobe Illustrator 21.0.2, SVG Export Plug-In . SVG Version: 6.00 Build 0)  -->
<svg version="1.1" id="Capa_1" xmlns="http://www.w3.org/2000/svg" xmlns:xlink="http://www.w3.org/1999/xlink" x="0px" y="0px"
	 viewBox="0 0 379.9063 27.0117" style="enable-background:new 0 0 379.9063 27.0117;" xml:space="preserve">
<style type="text/css">
	.st0{fill-rule:evenodd;clip-rule:evenodd;fill:#DDDDDD;}
	.st1{fill:#3B86B1;}
	.st2{opacity:0.25;fill-rule:evenodd;clip-rule:evenodd;fill:#020202;}
	.st3{fill:#FFFFFF;}
	.st4{opacity:0.5;}
	.st5{fill-rule:evenodd;clip-rule:evenodd;fill:#A8A8A8;}
	.st6{fill-rule:evenodd;clip-rule:evenodd;fill:#FFFFFF;}
	.st7{fill-rule:evenodd;clip-rule:evenodd;fill:#3B86B1;}
	.st8{opacity:0.5;fill:#2C6882;}
	.st9{opacity:0.75;fill-rule:evenodd;clip-rule:evenodd;fill:#282828;}
	.st10{opacity:0.5;fill:#FFFFFF;}
	.st11{fill-rule:evenodd;clip-rule:evenodd;fill:none;stroke:#FFFFFF;stroke-miterlimit:10;}
	.st12{fill:none;stroke:#FFFFFF;stroke-miterlimit:10;}
	.st13{fill:#FFFFFF;stroke:#3B86B1;stroke-width:1.7139;stroke-miterlimit:10;}
	.st14{fill-rule:evenodd;clip-rule:evenodd;}
	.st15{opacity:0.85;fill:#FFFFFF;}
	.st16{opacity:0.5;fill-rule:evenodd;clip-rule:evenodd;}
	.st17{fill-rule:evenodd;clip-rule:evenodd;fill:#FEFEFE;}
	.st18{fill:#312767;}
	.st19{opacity:0.48;}
	.st20{opacity:0.25;}
	.st21{fill-rule:evenodd;clip-rule:evenodd;fill:#020202;}
	.st22{fill:#757575;}
	.st23{opacity:0.25;clip-path:url(#XMLID_3720_);}
	.st24{fill:#FFFFFF;stroke:#312767;stroke-miterlimit:10;}
	.st25{fill:#ACABC9;}
	.st26{fill-rule:evenodd;clip-rule:evenodd;fill:#312767;}
	.st27{opacity:0.77;fill:#312767;}
	.st28{opacity:0.25;clip-path:url(#XMLID_3721_);}
	.st29{fill:#9490B2;stroke:#2D2D2D;stroke-width:0.25;stroke-miterlimit:10;}
	.st30{fill:#312767;stroke:#2D2D2D;stroke-width:0.25;stroke-miterlimit:10;}
	.st31{fill:#FCFCFC;}
	.st32{fill:#FFFFFF;stroke:#2D2D2D;stroke-width:0.25;stroke-miterlimit:10;}
	.st33{fill-rule:evenodd;clip-rule:evenodd;fill:#484849;stroke:#2D2D2D;stroke-width:0.25;stroke-miterlimit:10;}
	.st34{fill-rule:evenodd;clip-rule:evenodd;fill:#312767;stroke:#2D2D2D;stroke-width:0.25;stroke-miterlimit:10;}
	.st35{fill-rule:evenodd;clip-rule:evenodd;fill:#FFFFFF;stroke:#2D2D2D;stroke-width:0.25;stroke-miterlimit:10;}
	.st36{fill:#484849;stroke:#2D2D2D;stroke-width:0.25;stroke-miterlimit:10;}
	.st37{fill:#FFFFFF;stroke:#FFFFFF;stroke-miterlimit:10;}
	.st38{fill:#54518C;}
	.st39{opacity:0.25;fill-rule:evenodd;clip-rule:evenodd;fill:#FFFFFF;}
	.st40{fill:#D4A800;}
	.st41{fill:#00AEB3;}
	.st42{fill:#38353B;}
	.st43{fill:#FF8400;}
	.st44{fill:#BF3900;}
	.st45{fill:#00AA9C;}
	.st46{opacity:0.25;clip-path:url(#XMLID_3722_);}
	.st47{fill:none;stroke:#ACABC9;stroke-width:5;stroke-miterlimit:10;}
	.st48{opacity:0.25;clip-path:url(#XMLID_3723_);}
	.st49{fill:#DDDDDD;}
	.st50{opacity:0.25;clip-path:url(#XMLID_3724_);}
	.st51{fill-rule:evenodd;clip-rule:evenodd;fill:#FFFFFF;stroke:#FFFFFF;stroke-miterlimit:10;}
	.st52{fill:#F79748;}
	.st53{fill:#FF7900;}
	.st54{fill:#DD7105;}
	.st55{fill:#02897C;}
	.st56{fill:#0EAD9A;}
	.st57{fill:#28C6AF;}
	.st58{fill:#4FE0C7;}
	.st59{fill:#D37D00;}
	.st60{fill:#D14600;}
	.st61{fill:#E5B92E;}
	.st62{fill:#DD571B;}
	.st63{fill:#E28A17;}
	.st64{opacity:0.25;clip-path:url(#XMLID_3725_);}
	.st65{fill:#4D4789;}
	.st66{opacity:0.77;fill:#FFFFFF;}
	.st67{fill:#50565B;stroke:#656C70;stroke-miterlimit:10;}
	.st68{fill:#808589;stroke:#656C70;stroke-miterlimit:10;}
	.st69{fill:#252728;stroke:#000000;stroke-miterlimit:10;}
	.st70{fill:#1A1B1C;stroke:#000000;stroke-miterlimit:10;}
	.st71{fill:#A0A6AA;}
	.st72{fill:#262C35;stroke:#161A1E;stroke-miterlimit:10;}
	.st73{fill:#181D23;}
	.st74{fill:#EABA96;stroke:#E0AA86;stroke-miterlimit:10;}
	.st75{fill:#E0AA86;}
	.st76{stroke:#000000;stroke-width:0.75;stroke-linecap:square;stroke-linejoin:bevel;stroke-miterlimit:10;}
	.st77{fill:#0F1C3F;stroke:#182951;stroke-miterlimit:10;}
	.st78{fill:#132354;stroke:#3F6093;stroke-miterlimit:10;}
	.st79{fill:#0F1C3F;}
	.st80{fill:none;stroke:#3F6093;stroke-width:0.75;stroke-miterlimit:10;}
	.st81{fill:#DBA682;}
	.st82{fill:none;stroke:#E0AA86;stroke-miterlimit:10;}
	.st83{fill:none;stroke:#E0AA86;stroke-linejoin:bevel;stroke-miterlimit:10;}
	.st84{fill:#8A0A8E;stroke:#AC34B2;stroke-miterlimit:10;}
	.st85{fill:#810C87;}
	.st86{fill:#680B6D;}
	.st87{fill:#AC34B2;stroke:#AC34B2;stroke-width:0.5;stroke-miterlimit:10;}
	.st88{fill:none;stroke:#959DA0;stroke-width:0.5;stroke-miterlimit:10;}
	.st89{fill:#959DA0;stroke:#959DA0;stroke-width:0.5;stroke-miterlimit:10;}
	.st90{fill:none;stroke:#AC34B2;stroke-miterlimit:10;}
	.st91{fill:#282828;stroke:#000000;stroke-miterlimit:10;}
	.st92{fill:#EABA96;stroke:#E0AA86;stroke-width:0.5;stroke-miterlimit:10;}
	.st93{fill:#B7896A;}
	.st94{stroke:#000000;stroke-miterlimit:10;}
	.st95{fill:#C1A578;}
	.st96{stroke:#000000;stroke-width:0.25;stroke-linecap:round;stroke-linejoin:round;stroke-miterlimit:10;}
	.st97{fill:#FFFFFF;stroke:#000000;stroke-width:0.25;stroke-linecap:round;stroke-linejoin:round;stroke-miterlimit:10;}
	.st98{fill:#70582D;}
	.st99{stroke:#000000;stroke-linecap:round;stroke-linejoin:round;stroke-miterlimit:10;}
	.st100{fill:none;stroke:#D8A27D;stroke-width:0.75;stroke-miterlimit:10;}
	.st101{fill:#561409;}
	.st102{fill:#BA2A13;}
	.st103{fill:#9E3025;stroke:#4C2311;stroke-width:0.25;stroke-miterlimit:10;}
	.st104{fill:#871D08;stroke:#4C2311;stroke-width:0.25;stroke-miterlimit:10;}
	.st105{fill:#DDAC8A;}
	.st106{fill:#A5ABAD;stroke:#959DA0;stroke-width:0.5;stroke-miterlimit:10;}
	.st107{fill:#B1BABC;}
	.st108{fill:none;stroke:#153847;stroke-width:5;stroke-miterlimit:10;}
	.st109{fill:#3CA7AF;}
	.st110{fill:#3DAD8D;}
	.st111{fill:#3DAA61;}
	.st112{fill:#67A53F;}
	.st113{fill:#95A340;}
	.st114{fill:#153847;}
	.st115{opacity:0.25;clip-path:url(#XMLID_3726_);}
	.st116{opacity:0.25;clip-path:url(#XMLID_3727_);}
	.st117{opacity:0.25;clip-path:url(#XMLID_3728_);}
	.st118{opacity:0.25;clip-path:url(#XMLID_3729_);}
	.st119{clip-path:url(#SVGID_2_);}
	.st120{fill:none;stroke:#3F6093;stroke-miterlimit:10;}
	.st121{fill:none;stroke:#3F6093;stroke-width:0.75;stroke-linecap:round;stroke-linejoin:round;}
	.st122{fill:none;stroke:#3F6093;stroke-width:0.75;stroke-linecap:round;stroke-linejoin:round;stroke-dasharray:0.9892,0.9892;}
	
		.st123{fill:none;stroke:#3F6093;stroke-width:0.75;stroke-linecap:round;stroke-linejoin:round;stroke-miterlimit:10;stroke-dasharray:1;}
	.st124{fill:#EAEAEA;stroke:#FFFFFF;stroke-width:0.25;stroke-miterlimit:10;}
	.st125{fill:#D8D8D8;}
	.st126{fill:#282828;stroke:#000000;stroke-width:0.75;stroke-miterlimit:10;}
	.st127{opacity:0.33;fill:#FFFFFF;}
	.st128{fill:none;stroke:#000000;stroke-width:1.5;stroke-linecap:round;stroke-linejoin:round;stroke-miterlimit:10;}
	.st129{opacity:0.64;}
	.st130{fill:#C9C9C9;}
	.st131{fill:#FFF064;}
	.st132{fill:#4F4E4F;}
	.st133{fill:#1E2F47;}
	.st134{opacity:0.1;fill:#FFFFFF;}
	.st135{opacity:0.1;}
	.st136{opacity:0.4;fill:#FFFFFF;}
	.st137{fill-rule:evenodd;clip-rule:evenodd;fill:#F39C12;}
	.st138{fill-rule:evenodd;clip-rule:evenodd;fill:#E6E6E6;}
	.st139{fill-rule:evenodd;clip-rule:evenodd;fill:#474646;}
	.st140{fill-rule:evenodd;clip-rule:evenodd;fill:#D84848;}
	.st141{opacity:0.2;fill-rule:evenodd;clip-rule:evenodd;fill:#231F20;}
	.st142{opacity:0.1;fill-rule:evenodd;clip-rule:evenodd;fill:#231F20;}
	.st143{fill-rule:evenodd;clip-rule:evenodd;fill:#4D4D4D;}
	.st144{fill-rule:evenodd;clip-rule:evenodd;fill:#336699;}
	.st145{fill-rule:evenodd;clip-rule:evenodd;fill:#FF6633;}
	.st146{fill-rule:evenodd;clip-rule:evenodd;fill:#0056A3;}
	.st147{fill-rule:evenodd;clip-rule:evenodd;fill:#33CC99;}
	.st148{fill:#CE6405;}
	.st149{opacity:0.2;fill:#FFFFFF;}
	.st150{fill:#1ABC9C;}
	.st151{opacity:0.2;}
	.st152{fill:#0B2E44;}
	.st153{fill-rule:evenodd;clip-rule:evenodd;fill:#154F77;}
	.st154{fill-rule:evenodd;clip-rule:evenodd;fill:#0D3858;}
	.st155{fill-rule:evenodd;clip-rule:evenodd;fill:#FFFEFE;}
	.st156{fill:#AEC647;}
	.st157{fill:#F3AE1B;}
	.st158{fill:#DF3F11;}
	.st159{fill:#BCDEDE;}
	.st160{fill:#C84119;}
	.st161{fill:#6BB5CE;}
	.st162{fill:#00D0E5;}
	.st163{fill:#FF81ED;}
	.st164{fill:#00C982;}
	.st165{opacity:0.7;}
	.st166{opacity:0.4;}
	.st167{fill-rule:evenodd;clip-rule:evenodd;fill:#0B2E44;}
	.st168{opacity:0.8;fill-rule:evenodd;clip-rule:evenodd;fill:#FFFFFF;}
	.st169{fill:#424242;}
	.st170{opacity:0.2;fill-rule:evenodd;clip-rule:evenodd;fill:#FFFFFF;}
	.st171{fill:#D0EDFA;}
	.st172{fill:#FF651F;}
	.st173{fill:#0051C4;}
	.st174{fill:#E46400;}
	.st175{fill:#C0003B;}
	.st176{fill:#FFEA50;}
	.st177{fill:#FF2C0D;}
	.st178{fill:#FF1A2C;}
	.st179{fill:#FF2C4D;}
	.st180{fill:#FFD74C;}
	.st181{fill:#4C4C4B;}
	.st182{fill:#6CD2EA;}
	.st183{fill:#F7674F;}
	.st184{opacity:0.1;fill-rule:evenodd;clip-rule:evenodd;}
	.st185{fill:#BABABA;}
	.st186{fill:#F9B946;}
	.st187{fill:#DFC2A9;}
	.st188{fill:#BFA490;}
	.st189{fill:#F5D4B2;}
	.st190{fill:#DF584C;}
	.st191{fill:#C2443E;}
	.st192{fill:#DBDBDA;}
	.st193{fill:#2F363E;}
	.st194{fill:#332524;}
	.st195{fill:#473735;}
	.st196{opacity:0.25;clip-path:url(#XMLID_3730_);}
	.st197{fill:#52B8BA;}
	.st198{fill:#35373E;}
	.st199{opacity:0.25;clip-path:url(#XMLID_3731_);}
	.st200{opacity:0.31;fill:#34383A;}
	.st201{opacity:0.16;fill:#3D3835;}
	.st202{fill:#D0D1D4;}
	.st203{opacity:0.25;clip-path:url(#XMLID_3732_);}
	.st204{fill:#F9E1B4;}
	.st205{opacity:0.25;fill:#050505;}
	.st206{fill:#FCC60F;}
	.st207{fill:#74CAEA;}
	.st208{opacity:0.25;clip-path:url(#XMLID_3733_);}
	.st209{fill:#FABC8F;}
	.st210{fill:#3FA995;}
	.st211{opacity:0.17;fill:#020202;}
	.st212{fill:#E1E1E1;}
	.st213{opacity:0.25;clip-path:url(#XMLID_3734_);}
	.st214{fill:#BF8E00;}
	.st215{fill:#F7D8D7;}
	.st216{fill:#F18636;}
	.st217{fill:#004460;}
	.st218{fill:#D93A37;}
	.st219{fill:#EDEDED;}
	.st220{fill:#184F78;}
	.st221{fill:#FF3E03;}
	.st222{opacity:0.6;fill:#0F0F0F;}
	.st223{fill:#E8E8E6;}
	.st224{fill:#00EAA6;}
	.st225{fill-rule:evenodd;clip-rule:evenodd;fill:#FF3E03;}
	.st226{opacity:0.1;fill-rule:evenodd;clip-rule:evenodd;fill:#020202;}
	.st227{fill-rule:evenodd;clip-rule:evenodd;fill:#FABE00;}
	.st228{fill-rule:evenodd;clip-rule:evenodd;fill:#E6E8E8;}
	.st229{fill-rule:evenodd;clip-rule:evenodd;fill:#F7D959;}
	.st230{fill-rule:evenodd;clip-rule:evenodd;fill:#F9623E;}
	.st231{fill:#4F1A0F;}
	.st232{opacity:0.46;fill:#FFFFFF;}
	.st233{fill:#48505A;}
	.st234{fill:#C3C3C3;}
	.st235{fill:#E9E9EA;}
	.st236{fill:#9D9E9F;}
	.st237{fill:#F6F4F4;}
	.st238{fill:#6B6A6A;}
	.st239{fill:#C09478;}
	.st240{fill:#F7CDA0;}
	.st241{fill:#9E1010;}
	.st242{fill:#F2F2F2;}
	.st243{opacity:0.2;fill:#060606;}
	.st244{fill:#16AFBE;}
	.st245{fill:#DD2222;}
	.st246{fill:#FFEDDC;}
	.st247{fill:#22272B;}
	.st248{fill:#5B6375;}
</style>
<g>
	<path class="st65" d="M11.418,18.1494c-0.2686,0.625-0.6367,1.1719-1.1055,1.6406s-1.0156,0.8374-1.6406,1.106
		s-1.2939,0.4028-2.0068,0.4028H5.1709c-0.7129,0-1.3848-0.1343-2.0146-0.4028s-1.1787-0.6372-1.6475-1.106
		s-0.8379-1.0156-1.1064-1.6406S0,16.8555,0,16.1426V0h1.8896v16.1426c0,0.4688,0.0879,0.9058,0.2637,1.311
		s0.417,0.7617,0.7246,1.0693s0.6641,0.5493,1.0693,0.7251s0.8428,0.2637,1.3115,0.2637h1.3184
		c0.4688,0,0.9053-0.0879,1.3105-0.2637s0.7598-0.4175,1.0625-0.7251s0.542-0.6641,0.7178-1.0693s0.2637-0.8423,0.2637-1.311V0
		h1.8896v16.1426C11.8213,16.8555,11.6865,17.5244,11.418,18.1494z"/>
	<path class="st65" d="M26.0449,17.1973c0,0.6055-0.1221,1.1597-0.3662,1.6626s-0.5762,0.9351-0.9961,1.2964
		s-0.9063,0.6421-1.458,0.8423s-1.1299,0.3003-1.7354,0.3003h-1.2012c-0.6055,0-1.1846-0.1147-1.7363-0.3442
		s-1.0352-0.5444-1.4502-0.9448s-0.7471-0.8691-0.9961-1.4063s-0.373-1.1084-0.373-1.7139v-0.6006l1.8018-0.293v0.9961
		c0,0.3613,0.0752,0.7007,0.2266,1.0181s0.3545,0.5933,0.6084,0.8276s0.5469,0.4199,0.8789,0.5566s0.6787,0.2051,1.04,0.2051h1.2012
		c0.3613,0,0.708-0.0537,1.04-0.1611s0.627-0.2612,0.8857-0.4614s0.4639-0.4419,0.6152-0.7251s0.2275-0.6055,0.2275-0.9668
		c0-0.5371-0.1172-0.9766-0.3516-1.3184s-0.5449-0.6274-0.9307-0.8569s-0.8252-0.4199-1.3184-0.5713s-0.998-0.3027-1.5156-0.4541
		s-1.0234-0.3247-1.5166-0.52s-0.9326-0.4517-1.3184-0.769s-0.6953-0.7153-0.9297-1.1938s-0.3516-1.0742-0.3516-1.7871
		c0-0.6055,0.1172-1.1597,0.3516-1.6626s0.5518-0.9351,0.9521-1.2964s0.8662-0.6421,1.3984-0.8423s1.1016-0.3003,1.707-0.3003
		h1.0547c0.6055,0,1.1768,0.1147,1.7139,0.3442s1.0059,0.5444,1.4063,0.9448s0.7148,0.8691,0.9443,1.4063
		s0.3447,1.1084,0.3447,1.7139v0.0586l-1.8018,0.293v-0.4541c0-0.3613-0.0684-0.7007-0.2051-1.0181s-0.3223-0.5933-0.5566-0.8276
		s-0.5107-0.4199-0.8281-0.5566s-0.6563-0.2051-1.0176-0.2051h-1.0547c-0.3613,0-0.7012,0.0537-1.0186,0.1611
		s-0.5928,0.2612-0.8271,0.4614s-0.4199,0.4419-0.5566,0.7251s-0.2051,0.6055-0.2051,0.9668c0,0.5176,0.1172,0.9399,0.3516,1.2671
		s0.5439,0.603,0.9297,0.8276s0.8252,0.4126,1.3184,0.564s0.9961,0.3076,1.5088,0.4688s1.0156,0.3442,1.5088,0.5493
		s0.9326,0.4688,1.3184,0.791s0.6963,0.7251,0.9307,1.2085S26.0449,16.4844,26.0449,17.1973z"/>
	<path class="st65" d="M38.9209,21.0059l-0.9961-1.4941c-0.4102,0.5371-0.9229,0.9692-1.5381,1.2964s-1.2891,0.4907-2.0215,0.4907
		h-0.4541c-0.6055,0-1.1768-0.1147-1.7139-0.3442s-1.0059-0.5444-1.4063-0.9448s-0.7158-0.8691-0.9453-1.4063
		s-0.3438-1.1084-0.3438-1.7139v-0.1465c0-0.6055,0.1143-1.1768,0.3438-1.7139s0.5449-1.0059,0.9453-1.4063
		s0.8691-0.7153,1.4063-0.9448s1.1084-0.3442,1.7139-0.3442h3.8086v-2.3145c0-0.3613-0.0684-0.7007-0.2051-1.0181
		s-0.3223-0.5933-0.5566-0.8276s-0.5107-0.4199-0.8281-0.5566s-0.6563-0.2051-1.0176-0.2051h-1.0547
		c-0.3613,0-0.7012,0.0684-1.0186,0.2051s-0.5928,0.3223-0.8271,0.5566s-0.4199,0.5103-0.5566,0.8276s-0.2051,0.6567-0.2051,1.0181
		v0.542l-1.8018-0.293v-0.1465c0-0.6055,0.1143-1.1768,0.3438-1.7139s0.5449-1.0059,0.9453-1.4063s0.8691-0.7153,1.4063-0.9448
		s1.1084-0.3442,1.7139-0.3442h1.0547c0.6055,0,1.1768,0.1147,1.7139,0.3442s1.0059,0.5444,1.4063,0.9448
		s0.7148,0.8691,0.9443,1.4063s0.3447,1.1084,0.3447,1.7139v10.8838H38.9209z M37.7197,13.7402h-3.8086
		c-0.3613,0-0.7012,0.0684-1.0186,0.2051s-0.5928,0.3247-0.8271,0.564s-0.4199,0.5176-0.5566,0.835s-0.2051,0.6567-0.2051,1.0181
		v0.6299c0,0.3613,0.0684,0.7007,0.2051,1.0181s0.3223,0.5933,0.5566,0.8276s0.5098,0.4199,0.8271,0.5566
		s0.6572,0.2051,1.0186,0.2051h1.2012c0.3613,0,0.7002-0.0684,1.0176-0.2051s0.5938-0.3223,0.8281-0.5566
		s0.4199-0.5103,0.5566-0.8276s0.2051-0.6567,0.2051-1.0181V13.7402z"/>
	<path class="st65" d="M52.7998,18.6035c-0.2295,0.5371-0.5439,1.0059-0.9443,1.4063s-0.8691,0.7153-1.4063,0.9448
		s-1.1084,0.3442-1.7139,0.3442h-1.2012c-0.6055,0-1.1768-0.1147-1.7139-0.3442s-1.0059-0.5444-1.4063-0.9448
		s-0.7158-0.8691-0.9453-1.4063s-0.3438-1.1084-0.3438-1.7139V0h1.8018v7.2656c0.4102-0.4883,0.9033-0.8691,1.4795-1.1426
		s1.2012-0.4102,1.875-0.4102h0.4541c0.6055,0,1.1768,0.1147,1.7139,0.3442s1.0059,0.5444,1.4063,0.9448
		s0.7148,0.8691,0.9443,1.4063s0.3447,1.1084,0.3447,1.7139v6.7676C53.1445,17.4951,53.0293,18.0664,52.7998,18.6035z
		 M51.3428,10.0195c0-0.3613-0.0684-0.7007-0.2051-1.0181s-0.3223-0.5933-0.5566-0.8276s-0.5107-0.4199-0.8281-0.5566
		s-0.6563-0.2051-1.0176-0.2051h-1.2012c-0.3613,0-0.7012,0.0684-1.0186,0.2051s-0.5928,0.3223-0.8271,0.5566
		s-0.4199,0.5103-0.5566,0.8276s-0.2051,0.6567-0.2051,1.0181v6.9727c0,0.3613,0.0684,0.7007,0.2051,1.0181
		s0.3223,0.5933,0.5566,0.8276s0.5098,0.4199,0.8271,0.5566s0.6572,0.2051,1.0186,0.2051h1.2012
		c0.3613,0,0.7002-0.0684,1.0176-0.2051s0.5938-0.3223,0.8281-0.5566s0.4199-0.5103,0.5566-0.8276s0.2051-0.6567,0.2051-1.0181
		V10.0195z"/>
	<path class="st65" d="M57.2021,2.4023V0h2.0947v2.4023H57.2021z M57.3486,21.0059v-15h1.8018v15H57.3486z"/>
	<path class="st65" d="M63.9551,21.0059V0h1.8018v21.0059H63.9551z"/>
	<path class="st65" d="M70.415,2.4023V0h2.0947v2.4023H70.415z M70.5615,21.0059v-15h1.8018v15H70.5615z"/>
	<path class="st65" d="M85.9863,21.0059l-0.9961-1.5234c-0.4102,0.5566-0.9229,0.9985-1.5381,1.3257s-1.2891,0.4907-2.0215,0.4907
		h-0.4541c-0.6055,0-1.1768-0.1147-1.7139-0.3442s-1.0059-0.5444-1.4063-0.9448s-0.7158-0.8691-0.9453-1.4063
		s-0.3438-1.1084-0.3438-1.7139v-6.7676c0-0.6055,0.1143-1.1768,0.3438-1.7139s0.5449-1.0059,0.9453-1.4063
		s0.8691-0.7153,1.4063-0.9448s1.1084-0.3442,1.7139-0.3442h0.4541c0.6738,0,1.2988,0.1367,1.875,0.4102
		s1.0693,0.6543,1.4795,1.1426V0h1.8018v21.0059H85.9863z M84.7852,10.0195c0-0.3613-0.0684-0.7007-0.2051-1.0181
		s-0.3223-0.5933-0.5566-0.8276s-0.5107-0.4199-0.8281-0.5566s-0.6563-0.2051-1.0176-0.2051h-1.2012
		c-0.3613,0-0.7012,0.0684-1.0186,0.2051s-0.5928,0.3223-0.8271,0.5566s-0.4199,0.5103-0.5566,0.8276s-0.2051,0.6567-0.2051,1.0181
		v6.9727c0,0.3613,0.0684,0.7007,0.2051,1.0181s0.3223,0.5933,0.5566,0.8276s0.5098,0.4199,0.8271,0.5566
		s0.6572,0.2051,1.0186,0.2051h1.2012c0.3613,0,0.7002-0.0684,1.0176-0.2051s0.5938-0.3223,0.8281-0.5566
		s0.4199-0.5103,0.5566-0.8276s0.2051-0.6567,0.2051-1.0181V10.0195z"/>
	<path class="st65" d="M99.6094,21.0059l-0.9961-1.4941c-0.4102,0.5371-0.9229,0.9692-1.5381,1.2964s-1.2891,0.4907-2.0215,0.4907
		h-0.4541c-0.6055,0-1.1768-0.1147-1.7139-0.3442s-1.0059-0.5444-1.4063-0.9448s-0.7158-0.8691-0.9453-1.4063
		s-0.3438-1.1084-0.3438-1.7139v-0.1465c0-0.6055,0.1143-1.1768,0.3438-1.7139s0.5449-1.0059,0.9453-1.4063
		s0.8691-0.7153,1.4063-0.9448s1.1084-0.3442,1.7139-0.3442h3.8086v-2.3145c0-0.3613-0.0684-0.7007-0.2051-1.0181
		s-0.3223-0.5933-0.5566-0.8276s-0.5107-0.4199-0.8281-0.5566s-0.6563-0.2051-1.0176-0.2051h-1.0547
		c-0.3613,0-0.7012,0.0684-1.0186,0.2051s-0.5928,0.3223-0.8271,0.5566s-0.4199,0.5103-0.5566,0.8276s-0.2051,0.6567-0.2051,1.0181
		v0.542l-1.8018-0.293v-0.1465c0-0.6055,0.1143-1.1768,0.3438-1.7139s0.5449-1.0059,0.9453-1.4063s0.8691-0.7153,1.4063-0.9448
		s1.1084-0.3442,1.7139-0.3442h1.0547c0.6055,0,1.1768,0.1147,1.7139,0.3442s1.0059,0.5444,1.4063,0.9448
		s0.7148,0.8691,0.9443,1.4063s0.3447,1.1084,0.3447,1.7139v10.8838H99.6094z M98.4082,13.7402h-3.8086
		c-0.3613,0-0.7012,0.0684-1.0186,0.2051s-0.5928,0.3247-0.8271,0.564s-0.4199,0.5176-0.5566,0.835s-0.2051,0.6567-0.2051,1.0181
		v0.6299c0,0.3613,0.0684,0.7007,0.2051,1.0181s0.3223,0.5933,0.5566,0.8276s0.5098,0.4199,0.8271,0.5566
		s0.6572,0.2051,1.0186,0.2051h1.2012c0.3613,0,0.7002-0.0684,1.0176-0.2051s0.5938-0.3223,0.8281-0.5566
		s0.4199-0.5103,0.5566-0.8276s0.2051-0.6567,0.2051-1.0181V13.7402z"/>
	<path class="st65" d="M113.2324,21.0059l-0.9961-1.5234c-0.4102,0.5566-0.9229,0.9985-1.5381,1.3257s-1.2891,0.4907-2.0215,0.4907
		h-0.4541c-0.6055,0-1.1768-0.1147-1.7139-0.3442s-1.0059-0.5444-1.4063-0.9448s-0.7158-0.8691-0.9453-1.4063
		s-0.3438-1.1084-0.3438-1.7139v-6.7676c0-0.6055,0.1143-1.1768,0.3438-1.7139s0.5449-1.0059,0.9453-1.4063
		s0.8691-0.7153,1.4063-0.9448s1.1084-0.3442,1.7139-0.3442h0.4541c0.6738,0,1.2988,0.1367,1.875,0.4102
		s1.0693,0.6543,1.4795,1.1426V0h1.8018v21.0059H113.2324z M112.0313,10.0195c0-0.3613-0.0684-0.7007-0.2051-1.0181
		s-0.3223-0.5933-0.5566-0.8276s-0.5107-0.4199-0.8281-0.5566s-0.6563-0.2051-1.0176-0.2051h-1.2012
		c-0.3613,0-0.7012,0.0684-1.0186,0.2051s-0.5928,0.3223-0.8271,0.5566s-0.4199,0.5103-0.5566,0.8276s-0.2051,0.6567-0.2051,1.0181
		v6.9727c0,0.3613,0.0684,0.7007,0.2051,1.0181s0.3223,0.5933,0.5566,0.8276s0.5098,0.4199,0.8271,0.5566
		s0.6572,0.2051,1.0186,0.2051h1.2012c0.3613,0,0.7002-0.0684,1.0176-0.2051s0.5938-0.3223,0.8281-0.5566
		s0.4199-0.5103,0.5566-0.8276s0.2051-0.6567,0.2051-1.0181V10.0195z"/>
	<path class="st65" d="M118.4912,25.21h-0.7617v-6.46h2.2559L118.4912,25.21z"/>
	<path class="st65" d="M135.1904,7.7197c-0.3613,0-0.7012,0.0684-1.0186,0.2051s-0.5928,0.3223-0.8271,0.5566
		s-0.4199,0.5103-0.5566,0.8276s-0.2051,0.6567-0.2051,1.0181v10.6787h-1.8018v-15h0.6006l0.9814,1.5234
		c0.4102-0.5566,0.9248-0.9985,1.5449-1.3257s1.2969-0.4907,2.0293-0.4907h1.0547v2.0068H135.1904z"/>
	<path class="st65" d="M149.0693,18.6035c-0.2295,0.5371-0.5439,1.0059-0.9443,1.4063s-0.8691,0.7153-1.4063,0.9448
		s-1.1084,0.3442-1.7139,0.3442h-1.2012c-0.6055,0-1.1768-0.1147-1.7139-0.3442s-1.0059-0.5444-1.4063-0.9448
		s-0.7158-0.8691-0.9453-1.4063s-0.3438-1.1084-0.3438-1.7139v-6.7676c0-0.6055,0.1143-1.1768,0.3438-1.7139
		s0.5449-1.0059,0.9453-1.4063s0.8691-0.7153,1.4063-0.9448s1.1084-0.3442,1.7139-0.3442h1.2012
		c0.6055,0,1.1768,0.1147,1.7139,0.3442s1.0059,0.5444,1.4063,0.9448s0.7148,0.8691,0.9443,1.4063s0.3447,1.1084,0.3447,1.7139
		v3.5303h-8.2178v3.3398c0,0.3613,0.0684,0.7007,0.2051,1.0181s0.3223,0.5933,0.5566,0.8276s0.5098,0.4199,0.8271,0.5566
		s0.6572,0.2051,1.0186,0.2051h1.2012c0.3613,0,0.7002-0.0684,1.0176-0.2051s0.5938-0.3223,0.8281-0.5566
		s0.4199-0.5103,0.5566-0.8276s0.2051-0.6567,0.2051-1.0181v-0.9961l1.8018,0.293v0.6006
		C149.4141,17.4951,149.2988,18.0664,149.0693,18.6035z M147.6123,10.0195c0-0.3613-0.0684-0.7007-0.2051-1.0181
		s-0.3223-0.5933-0.5566-0.8276s-0.5107-0.4199-0.8281-0.5566s-0.6563-0.2051-1.0176-0.2051h-1.2012
		c-0.3613,0-0.7012,0.0684-1.0186,0.2051s-0.5928,0.3223-0.8271,0.5566s-0.4199,0.5103-0.5566,0.8276s-0.2051,0.6567-0.2051,1.0181
		v2.2266h6.416V10.0195z"/>
	<path class="st65" d="M163.3301,17.1973c0,0.6055-0.1221,1.1597-0.3662,1.6626s-0.5762,0.9351-0.9961,1.2964
		s-0.9063,0.6421-1.458,0.8423s-1.1299,0.3003-1.7354,0.3003h-1.2012c-0.6055,0-1.1846-0.1147-1.7363-0.3442
		s-1.0352-0.5444-1.4502-0.9448s-0.7471-0.8691-0.9961-1.4063s-0.373-1.1084-0.373-1.7139v-0.6006l1.8018-0.293v0.9961
		c0,0.3613,0.0752,0.7007,0.2266,1.0181s0.3545,0.5933,0.6084,0.8276s0.5469,0.4199,0.8789,0.5566s0.6787,0.2051,1.04,0.2051h1.2012
		c0.3613,0,0.708-0.0537,1.04-0.1611s0.627-0.2612,0.8857-0.4614s0.4639-0.4419,0.6152-0.7251s0.2275-0.6055,0.2275-0.9668
		c0-0.5371-0.1172-0.9766-0.3516-1.3184s-0.5449-0.6274-0.9307-0.8569s-0.8252-0.4199-1.3184-0.5713s-0.998-0.3027-1.5156-0.4541
		s-1.0234-0.3247-1.5166-0.52s-0.9326-0.4517-1.3184-0.769s-0.6953-0.7153-0.9297-1.1938s-0.3516-1.0742-0.3516-1.7871
		c0-0.6055,0.1172-1.1597,0.3516-1.6626s0.5518-0.9351,0.9521-1.2964s0.8662-0.6421,1.3984-0.8423s1.1016-0.3003,1.707-0.3003
		h1.0547c0.6055,0,1.1768,0.1147,1.7139,0.3442s1.0059,0.5444,1.4063,0.9448s0.7148,0.8691,0.9443,1.4063
		s0.3447,1.1084,0.3447,1.7139v0.0586l-1.8018,0.293v-0.4541c0-0.3613-0.0684-0.7007-0.2051-1.0181s-0.3223-0.5933-0.5566-0.8276
		s-0.5107-0.4199-0.8281-0.5566s-0.6563-0.2051-1.0176-0.2051h-1.0547c-0.3613,0-0.7012,0.0537-1.0186,0.1611
		s-0.5928,0.2612-0.8271,0.4614s-0.4199,0.4419-0.5566,0.7251s-0.2051,0.6055-0.2051,0.9668c0,0.5176,0.1172,0.9399,0.3516,1.2671
		s0.5439,0.603,0.9297,0.8276s0.8252,0.4126,1.3184,0.564s0.9961,0.3076,1.5088,0.4688s1.0156,0.3442,1.5088,0.5493
		s0.9326,0.4688,1.3184,0.791s0.6963,0.7251,0.9307,1.2085S163.3301,16.4844,163.3301,17.1973z"/>
	<path class="st65" d="M176.4619,18.6035c-0.2295,0.5371-0.5439,1.0059-0.9443,1.4063s-0.8691,0.7153-1.4063,0.9448
		s-1.1084,0.3442-1.7139,0.3442h-0.4541c-0.6738,0-1.2988-0.1367-1.875-0.4102s-1.0693-0.6543-1.4795-1.1426v7.2656h-1.8018V6.0059
		h0.6006l0.9814,1.5234c0.4102-0.5566,0.9248-0.9985,1.5449-1.3257s1.2969-0.4907,2.0293-0.4907h0.4541
		c0.6055,0,1.1768,0.1147,1.7139,0.3442s1.0059,0.5444,1.4063,0.9448s0.7148,0.8691,0.9443,1.4063s0.3447,1.1084,0.3447,1.7139
		v6.7676C176.8066,17.4951,176.6914,18.0664,176.4619,18.6035z M175.0049,10.0195c0-0.3613-0.0684-0.7007-0.2051-1.0181
		s-0.3223-0.5933-0.5566-0.8276s-0.5107-0.4199-0.8281-0.5566s-0.6563-0.2051-1.0176-0.2051h-1.2012
		c-0.3613,0-0.7012,0.0684-1.0186,0.2051s-0.5928,0.3223-0.8271,0.5566s-0.4199,0.5103-0.5566,0.8276s-0.2051,0.6567-0.2051,1.0181
		v6.9727c0,0.3613,0.0684,0.7007,0.2051,1.0181s0.3223,0.5933,0.5566,0.8276s0.5098,0.4199,0.8271,0.5566
		s0.6572,0.2051,1.0186,0.2051h1.2012c0.3613,0,0.7002-0.0684,1.0176-0.2051s0.5938-0.3223,0.8281-0.5566
		s0.4199-0.5103,0.5566-0.8276s0.2051-0.6567,0.2051-1.0181V10.0195z"/>
	<path class="st65" d="M190.085,18.6035c-0.2295,0.5371-0.5439,1.0059-0.9443,1.4063s-0.8691,0.7153-1.4063,0.9448
		s-1.1084,0.3442-1.7139,0.3442h-1.2012c-0.6055,0-1.1768-0.1147-1.7139-0.3442s-1.0059-0.5444-1.4063-0.9448
		s-0.7158-0.8691-0.9453-1.4063s-0.3438-1.1084-0.3438-1.7139v-6.7676c0-0.6055,0.1143-1.1768,0.3438-1.7139
		s0.5449-1.0059,0.9453-1.4063s0.8691-0.7153,1.4063-0.9448s1.1084-0.3442,1.7139-0.3442h1.2012
		c0.6055,0,1.1768,0.1147,1.7139,0.3442s1.0059,0.5444,1.4063,0.9448s0.7148,0.8691,0.9443,1.4063s0.3447,1.1084,0.3447,1.7139
		v6.7676C190.4297,17.4951,190.3145,18.0664,190.085,18.6035z M188.6279,10.0195c0-0.3613-0.0684-0.7007-0.2051-1.0181
		s-0.3223-0.5933-0.5566-0.8276s-0.5107-0.4199-0.8281-0.5566s-0.6563-0.2051-1.0176-0.2051h-1.2012
		c-0.3613,0-0.7012,0.0684-1.0186,0.2051s-0.5928,0.3223-0.8271,0.5566s-0.4199,0.5103-0.5566,0.8276s-0.2051,0.6567-0.2051,1.0181
		v6.9727c0,0.3613,0.0684,0.7007,0.2051,1.0181s0.3223,0.5933,0.5566,0.8276s0.5098,0.4199,0.8271,0.5566
		s0.6572,0.2051,1.0186,0.2051h1.2012c0.3613,0,0.7002-0.0684,1.0176-0.2051s0.5938-0.3223,0.8281-0.5566
		s0.4199-0.5103,0.5566-0.8276s0.2051-0.6567,0.2051-1.0181V10.0195z"/>
	<path class="st65" d="M202.251,21.0059V10.0195c0-0.3613-0.0684-0.7007-0.2051-1.0181s-0.3223-0.5933-0.5566-0.8276
		s-0.5107-0.4199-0.8281-0.5566s-0.6563-0.2051-1.0176-0.2051h-1.2012c-0.3613,0-0.7012,0.0684-1.0186,0.2051
		s-0.5928,0.3223-0.8271,0.5566s-0.4199,0.5103-0.5566,0.8276s-0.2051,0.6567-0.2051,1.0181v10.9863h-1.8018v-15h0.6006
		l0.9814,1.5234c0.4102-0.5566,0.9248-0.9985,1.5449-1.3257s1.2969-0.4907,2.0293-0.4907h0.4541
		c0.6055,0,1.1768,0.1147,1.7139,0.3442s1.0059,0.5444,1.4063,0.9448s0.7148,0.8691,0.9443,1.4063s0.3447,1.1084,0.3447,1.7139
		v10.8838H202.251z"/>
	<path class="st65" d="M217.9688,17.1973c0,0.6055-0.1221,1.1597-0.3662,1.6626s-0.5762,0.9351-0.9961,1.2964
		s-0.9063,0.6421-1.458,0.8423s-1.1299,0.3003-1.7354,0.3003h-1.2012c-0.6055,0-1.1846-0.1147-1.7363-0.3442
		s-1.0352-0.5444-1.4502-0.9448s-0.7471-0.8691-0.9961-1.4063s-0.373-1.1084-0.373-1.7139v-0.6006l1.8018-0.293v0.9961
		c0,0.3613,0.0752,0.7007,0.2266,1.0181s0.3545,0.5933,0.6084,0.8276s0.5469,0.4199,0.8789,0.5566s0.6787,0.2051,1.04,0.2051h1.2012
		c0.3613,0,0.708-0.0537,1.04-0.1611s0.627-0.2612,0.8857-0.4614s0.4639-0.4419,0.6152-0.7251s0.2275-0.6055,0.2275-0.9668
		c0-0.5371-0.1172-0.9766-0.3516-1.3184s-0.5449-0.6274-0.9307-0.8569s-0.8252-0.4199-1.3184-0.5713s-0.998-0.3027-1.5156-0.4541
		s-1.0234-0.3247-1.5166-0.52s-0.9326-0.4517-1.3184-0.769s-0.6953-0.7153-0.9297-1.1938s-0.3516-1.0742-0.3516-1.7871
		c0-0.6055,0.1172-1.1597,0.3516-1.6626s0.5518-0.9351,0.9521-1.2964s0.8662-0.6421,1.3984-0.8423s1.1016-0.3003,1.707-0.3003
		h1.0547c0.6055,0,1.1768,0.1147,1.7139,0.3442s1.0059,0.5444,1.4063,0.9448s0.7148,0.8691,0.9443,1.4063
		s0.3447,1.1084,0.3447,1.7139v0.0586l-1.8018,0.293v-0.4541c0-0.3613-0.0684-0.7007-0.2051-1.0181s-0.3223-0.5933-0.5566-0.8276
		s-0.5107-0.4199-0.8281-0.5566s-0.6563-0.2051-1.0176-0.2051h-1.0547c-0.3613,0-0.7012,0.0537-1.0186,0.1611
		s-0.5928,0.2612-0.8271,0.4614s-0.4199,0.4419-0.5566,0.7251s-0.2051,0.6055-0.2051,0.9668c0,0.5176,0.1172,0.9399,0.3516,1.2671
		s0.5439,0.603,0.9297,0.8276s0.8252,0.4126,1.3184,0.564s0.9961,0.3076,1.5088,0.4688s1.0156,0.3442,1.5088,0.5493
		s0.9326,0.4688,1.3184,0.791s0.6963,0.7251,0.9307,1.2085S217.9688,16.4844,217.9688,17.1973z"/>
	<path class="st65" d="M230.8447,21.0059l-0.9961-1.4941c-0.4102,0.5371-0.9229,0.9692-1.5381,1.2964s-1.2891,0.4907-2.0215,0.4907
		h-0.4541c-0.6055,0-1.1768-0.1147-1.7139-0.3442s-1.0059-0.5444-1.4063-0.9448s-0.7158-0.8691-0.9453-1.4063
		s-0.3438-1.1084-0.3438-1.7139v-0.1465c0-0.6055,0.1143-1.1768,0.3438-1.7139s0.5449-1.0059,0.9453-1.4063
		s0.8691-0.7153,1.4063-0.9448s1.1084-0.3442,1.7139-0.3442h3.8086v-2.3145c0-0.3613-0.0684-0.7007-0.2051-1.0181
		s-0.3223-0.5933-0.5566-0.8276s-0.5107-0.4199-0.8281-0.5566s-0.6563-0.2051-1.0176-0.2051h-1.0547
		c-0.3613,0-0.7012,0.0684-1.0186,0.2051s-0.5928,0.3223-0.8271,0.5566s-0.4199,0.5103-0.5566,0.8276s-0.2051,0.6567-0.2051,1.0181
		v0.542l-1.8018-0.293v-0.1465c0-0.6055,0.1143-1.1768,0.3438-1.7139s0.5449-1.0059,0.9453-1.4063s0.8691-0.7153,1.4063-0.9448
		s1.1084-0.3442,1.7139-0.3442h1.0547c0.6055,0,1.1768,0.1147,1.7139,0.3442s1.0059,0.5444,1.4063,0.9448
		s0.7148,0.8691,0.9443,1.4063s0.3447,1.1084,0.3447,1.7139v10.8838H230.8447z M229.6436,13.7402h-3.8086
		c-0.3613,0-0.7012,0.0684-1.0186,0.2051s-0.5928,0.3247-0.8271,0.564s-0.4199,0.5176-0.5566,0.835s-0.2051,0.6567-0.2051,1.0181
		v0.6299c0,0.3613,0.0684,0.7007,0.2051,1.0181s0.3223,0.5933,0.5566,0.8276s0.5098,0.4199,0.8271,0.5566
		s0.6572,0.2051,1.0186,0.2051h1.2012c0.3613,0,0.7002-0.0684,1.0176-0.2051s0.5938-0.3223,0.8281-0.5566
		s0.4199-0.5103,0.5566-0.8276s0.2051-0.6567,0.2051-1.0181V13.7402z"/>
	<path class="st65" d="M244.7236,18.6035c-0.2295,0.5371-0.5439,1.0059-0.9443,1.4063s-0.8691,0.7153-1.4063,0.9448
		s-1.1084,0.3442-1.7139,0.3442h-1.2012c-0.6055,0-1.1768-0.1147-1.7139-0.3442s-1.0059-0.5444-1.4063-0.9448
		s-0.7158-0.8691-0.9453-1.4063s-0.3438-1.1084-0.3438-1.7139V0h1.8018v7.2656c0.4102-0.4883,0.9033-0.8691,1.4795-1.1426
		s1.2012-0.4102,1.875-0.4102h0.4541c0.6055,0,1.1768,0.1147,1.7139,0.3442s1.0059,0.5444,1.4063,0.9448
		s0.7148,0.8691,0.9443,1.4063s0.3447,1.1084,0.3447,1.7139v6.7676C245.0684,17.4951,244.9531,18.0664,244.7236,18.6035z
		 M243.2666,10.0195c0-0.3613-0.0684-0.7007-0.2051-1.0181s-0.3223-0.5933-0.5566-0.8276s-0.5107-0.4199-0.8281-0.5566
		s-0.6563-0.2051-1.0176-0.2051h-1.2012c-0.3613,0-0.7012,0.0684-1.0186,0.2051s-0.5928,0.3223-0.8271,0.5566
		s-0.4199,0.5103-0.5566,0.8276s-0.2051,0.6567-0.2051,1.0181v6.9727c0,0.3613,0.0684,0.7007,0.2051,1.0181
		s0.3223,0.5933,0.5566,0.8276s0.5098,0.4199,0.8271,0.5566s0.6572,0.2051,1.0186,0.2051h1.2012
		c0.3613,0,0.7002-0.0684,1.0176-0.2051s0.5938-0.3223,0.8281-0.5566s0.4199-0.5103,0.5566-0.8276s0.2051-0.6567,0.2051-1.0181
		V10.0195z"/>
	<path class="st65" d="M249.126,2.4023V0h2.0947v2.4023H249.126z M249.2725,21.0059v-15h1.8018v15H249.2725z"/>
	<path class="st65" d="M255.8789,21.0059V0h1.8018v21.0059H255.8789z"/>
	<path class="st65" d="M262.3389,2.4023V0h2.0947v2.4023H262.3389z M262.4854,21.0059v-15h1.8018v15H262.4854z"/>
	<path class="st65" d="M277.9102,21.0059l-0.9961-1.5234c-0.4102,0.5566-0.9229,0.9985-1.5381,1.3257s-1.2891,0.4907-2.0215,0.4907
		h-0.4541c-0.6055,0-1.1768-0.1147-1.7139-0.3442s-1.0059-0.5444-1.4063-0.9448s-0.7158-0.8691-0.9453-1.4063
		s-0.3438-1.1084-0.3438-1.7139v-6.7676c0-0.6055,0.1143-1.1768,0.3438-1.7139s0.5449-1.0059,0.9453-1.4063
		s0.8691-0.7153,1.4063-0.9448s1.1084-0.3442,1.7139-0.3442h0.4541c0.6738,0,1.2988,0.1367,1.875,0.4102
		s1.0693,0.6543,1.4795,1.1426V0h1.8018v21.0059H277.9102z M276.709,10.0195c0-0.3613-0.0684-0.7007-0.2051-1.0181
		s-0.3223-0.5933-0.5566-0.8276s-0.5107-0.4199-0.8281-0.5566s-0.6563-0.2051-1.0176-0.2051h-1.2012
		c-0.3613,0-0.7012,0.0684-1.0186,0.2051s-0.5928,0.3223-0.8271,0.5566s-0.4199,0.5103-0.5566,0.8276s-0.2051,0.6567-0.2051,1.0181
		v6.9727c0,0.3613,0.0684,0.7007,0.2051,1.0181s0.3223,0.5933,0.5566,0.8276s0.5098,0.4199,0.8271,0.5566
		s0.6572,0.2051,1.0186,0.2051h1.2012c0.3613,0,0.7002-0.0684,1.0176-0.2051s0.5938-0.3223,0.8281-0.5566
		s0.4199-0.5103,0.5566-0.8276s0.2051-0.6567,0.2051-1.0181V10.0195z"/>
	<path class="st65" d="M291.5332,21.0059l-0.9961-1.4941c-0.4102,0.5371-0.9229,0.9692-1.5381,1.2964s-1.2891,0.4907-2.0215,0.4907
		h-0.4541c-0.6055,0-1.1768-0.1147-1.7139-0.3442s-1.0059-0.5444-1.4063-0.9448s-0.7158-0.8691-0.9453-1.4063
		s-0.3438-1.1084-0.3438-1.7139v-0.1465c0-0.6055,0.1143-1.1768,0.3438-1.7139s0.5449-1.0059,0.9453-1.4063
		s0.8691-0.7153,1.4063-0.9448s1.1084-0.3442,1.7139-0.3442h3.8086v-2.3145c0-0.3613-0.0684-0.7007-0.2051-1.0181
		s-0.3223-0.5933-0.5566-0.8276s-0.5107-0.4199-0.8281-0.5566s-0.6563-0.2051-1.0176-0.2051h-1.0547
		c-0.3613,0-0.7012,0.0684-1.0186,0.2051s-0.5928,0.3223-0.8271,0.5566s-0.4199,0.5103-0.5566,0.8276s-0.2051,0.6567-0.2051,1.0181
		v0.542l-1.8018-0.293v-0.1465c0-0.6055,0.1143-1.1768,0.3438-1.7139s0.5449-1.0059,0.9453-1.4063s0.8691-0.7153,1.4063-0.9448
		s1.1084-0.3442,1.7139-0.3442h1.0547c0.6055,0,1.1768,0.1147,1.7139,0.3442s1.0059,0.5444,1.4063,0.9448
		s0.7148,0.8691,0.9443,1.4063s0.3447,1.1084,0.3447,1.7139v10.8838H291.5332z M290.332,13.7402h-3.8086
		c-0.3613,0-0.7012,0.0684-1.0186,0.2051s-0.5928,0.3247-0.8271,0.564s-0.4199,0.5176-0.5566,0.835s-0.2051,0.6567-0.2051,1.0181
		v0.6299c0,0.3613,0.0684,0.7007,0.2051,1.0181s0.3223,0.5933,0.5566,0.8276s0.5098,0.4199,0.8271,0.5566
		s0.6572,0.2051,1.0186,0.2051h1.2012c0.3613,0,0.7002-0.0684,1.0176-0.2051s0.5938-0.3223,0.8281-0.5566
		s0.4199-0.5103,0.5566-0.8276s0.2051-0.6567,0.2051-1.0181V13.7402z"/>
	<path class="st65" d="M305.1553,21.0059l-0.9961-1.5234c-0.4102,0.5566-0.9219,0.9985-1.5371,1.3257s-1.2891,0.4907-2.0215,0.4907
		h-0.4551c-0.6055,0-1.1758-0.1147-1.7129-0.3442s-1.0059-0.5444-1.4063-0.9448s-0.7158-0.8691-0.9453-1.4063
		s-0.3438-1.1084-0.3438-1.7139v-6.7676c0-0.6055,0.1143-1.1768,0.3438-1.7139s0.5449-1.0059,0.9453-1.4063
		s0.8691-0.7153,1.4063-0.9448s1.1074-0.3442,1.7129-0.3442h0.4551c0.6738,0,1.2988,0.1367,1.875,0.4102
		s1.0684,0.6543,1.4785,1.1426V0h1.8027v21.0059H305.1553z M303.9541,10.0195c0-0.3613-0.0684-0.7007-0.2051-1.0181
		s-0.3223-0.5933-0.5566-0.8276s-0.5098-0.4199-0.8281-0.5566c-0.3164-0.1367-0.6563-0.2051-1.0176-0.2051h-1.2012
		c-0.3613,0-0.7012,0.0684-1.0176,0.2051c-0.3184,0.1367-0.5938,0.3223-0.8281,0.5566s-0.4199,0.5103-0.5566,0.8276
		s-0.2041,0.6567-0.2041,1.0181v6.9727c0,0.3613,0.0674,0.7007,0.2041,1.0181s0.3223,0.5933,0.5566,0.8276
		s0.5098,0.4199,0.8281,0.5566c0.3164,0.1367,0.6563,0.2051,1.0176,0.2051h1.2012c0.3613,0,0.7012-0.0684,1.0176-0.2051
		c0.3184-0.1367,0.5938-0.3223,0.8281-0.5566s0.4199-0.5103,0.5566-0.8276s0.2051-0.6567,0.2051-1.0181V10.0195z"/>
	<path class="st65" d="M326.5723,17.1973c0,0.6055-0.1221,1.1597-0.3662,1.6626s-0.5762,0.9351-0.9961,1.2964
		s-0.9063,0.6421-1.457,0.8423c-0.5527,0.2002-1.1309,0.3003-1.7363,0.3003h-1.2012c-0.6055,0-1.1846-0.1147-1.7363-0.3442
		s-1.0352-0.5444-1.4492-0.9448c-0.416-0.4004-0.748-0.8691-0.9961-1.4063c-0.25-0.5371-0.374-1.1084-0.374-1.7139v-0.6006
		l1.8018-0.293v0.9961c0,0.3613,0.0752,0.7007,0.2266,1.0181s0.3545,0.5933,0.6084,0.8276s0.5469,0.4199,0.8789,0.5566
		s0.6787,0.2051,1.04,0.2051h1.2012c0.3613,0,0.708-0.0537,1.04-0.1611s0.627-0.2612,0.8857-0.4614s0.4639-0.4419,0.6152-0.7251
		s0.2275-0.6055,0.2275-0.9668c0-0.5371-0.1172-0.9766-0.3516-1.3184s-0.5449-0.6274-0.9307-0.8569s-0.8252-0.4199-1.3184-0.5713
		s-0.998-0.3027-1.5156-0.4541s-1.0234-0.3247-1.5156-0.52c-0.4941-0.1953-0.9336-0.4517-1.3184-0.769
		c-0.3867-0.3174-0.6963-0.7153-0.9307-1.1938s-0.3516-1.0742-0.3516-1.7871c0-0.6055,0.1172-1.1597,0.3516-1.6626
		s0.5518-0.9351,0.9521-1.2964s0.8662-0.6421,1.3984-0.8423s1.1016-0.3003,1.707-0.3003h1.0547
		c0.6055,0,1.1768,0.1147,1.7139,0.3442s1.0059,0.5444,1.4063,0.9448s0.7148,0.8691,0.9443,1.4063s0.3447,1.1084,0.3447,1.7139
		v0.0586l-1.8018,0.293v-0.4541c0-0.3613-0.0684-0.7007-0.2051-1.0181s-0.3223-0.5933-0.5566-0.8276s-0.5107-0.4199-0.8281-0.5566
		s-0.6563-0.2051-1.0176-0.2051h-1.0547c-0.3613,0-0.7012,0.0537-1.0176,0.1611c-0.3184,0.1074-0.5938,0.2612-0.8281,0.4614
		s-0.4199,0.4419-0.5566,0.7251s-0.2051,0.6055-0.2051,0.9668c0,0.5176,0.1172,0.9399,0.3516,1.2671s0.5439,0.603,0.9297,0.8276
		s0.8252,0.4126,1.3184,0.564s0.9961,0.3076,1.5098,0.4688c0.5117,0.1611,1.0146,0.3442,1.5078,0.5493s0.9326,0.4688,1.3184,0.791
		s0.6963,0.7251,0.9307,1.2085S326.5723,16.4844,326.5723,17.1973z"/>
	<path class="st65" d="M339.7041,18.6035c-0.2295,0.5371-0.5439,1.0059-0.9443,1.4063s-0.8691,0.7153-1.4063,0.9448
		s-1.1084,0.3442-1.7139,0.3442h-1.2012c-0.6055,0-1.1768-0.1147-1.7139-0.3442s-1.0059-0.5444-1.4063-0.9448
		s-0.7158-0.8691-0.9443-1.4063c-0.2305-0.5371-0.3447-1.1084-0.3447-1.7139v-6.7676c0-0.6055,0.1143-1.1768,0.3447-1.7139
		c0.2285-0.5371,0.5439-1.0059,0.9443-1.4063s0.8691-0.7153,1.4063-0.9448s1.1084-0.3442,1.7139-0.3442h1.2012
		c0.6055,0,1.1768,0.1147,1.7139,0.3442s1.0059,0.5444,1.4063,0.9448s0.7148,0.8691,0.9443,1.4063s0.3447,1.1084,0.3447,1.7139
		v6.7676C340.0488,17.4951,339.9336,18.0664,339.7041,18.6035z M338.2471,10.0195c0-0.3613-0.0684-0.7007-0.2051-1.0181
		s-0.3223-0.5933-0.5566-0.8276s-0.5107-0.4199-0.8281-0.5566s-0.6563-0.2051-1.0176-0.2051h-1.2012
		c-0.3613,0-0.7012,0.0684-1.0176,0.2051c-0.3184,0.1367-0.5938,0.3223-0.8281,0.5566s-0.4199,0.5103-0.5566,0.8276
		s-0.2051,0.6567-0.2051,1.0181v6.9727c0,0.3613,0.0684,0.7007,0.2051,1.0181s0.3223,0.5933,0.5566,0.8276
		s0.5098,0.4199,0.8281,0.5566c0.3164,0.1367,0.6563,0.2051,1.0176,0.2051h1.2012c0.3613,0,0.7002-0.0684,1.0176-0.2051
		s0.5938-0.3223,0.8281-0.5566s0.4199-0.5103,0.5566-0.8276s0.2051-0.6567,0.2051-1.0181V10.0195z"/>
	<path class="st65" d="M353.3271,18.6035c-0.2295,0.5371-0.5439,1.0059-0.9443,1.4063s-0.8691,0.7153-1.4063,0.9448
		s-1.1084,0.3442-1.7139,0.3442h-1.2012c-0.6055,0-1.1768-0.1147-1.7139-0.3442s-1.0059-0.5444-1.4063-0.9448
		s-0.7158-0.8691-0.9443-1.4063c-0.2305-0.5371-0.3447-1.1084-0.3447-1.7139v-6.7676c0-0.6055,0.1143-1.1768,0.3447-1.7139
		c0.2285-0.5371,0.5439-1.0059,0.9443-1.4063s0.8691-0.7153,1.4063-0.9448s1.1084-0.3442,1.7139-0.3442h1.2012
		c0.6055,0,1.1768,0.1147,1.7139,0.3442s1.0059,0.5444,1.4063,0.9448s0.7148,0.8691,0.9443,1.4063s0.3447,1.1084,0.3447,1.7139
		v0.6006l-1.8018,0.293v-0.9961c0-0.3613-0.0684-0.7007-0.2051-1.0181s-0.3223-0.5933-0.5566-0.8276s-0.5107-0.4199-0.8281-0.5566
		s-0.6563-0.2051-1.0176-0.2051h-1.2012c-0.3613,0-0.7012,0.0684-1.0176,0.2051c-0.3184,0.1367-0.5938,0.3223-0.8281,0.5566
		s-0.4199,0.5103-0.5566,0.8276s-0.2051,0.6567-0.2051,1.0181v6.9727c0,0.3613,0.0684,0.7007,0.2051,1.0181
		s0.3223,0.5933,0.5566,0.8276s0.5098,0.4199,0.8281,0.5566c0.3164,0.1367,0.6563,0.2051,1.0176,0.2051h1.2012
		c0.3613,0,0.7002-0.0684,1.0176-0.2051s0.5938-0.3223,0.8281-0.5566s0.4199-0.5103,0.5566-0.8276s0.2051-0.6567,0.2051-1.0181
		v-0.9961l1.8018,0.293v0.6006C353.6719,17.4951,353.5566,18.0664,353.3271,18.6035z"/>
	<path class="st65" d="M357.7295,2.4023V0h2.0947v2.4023H357.7295z M357.876,21.0059v-15h1.8018v15H357.876z"/>
	<path class="st65" d="M373.2998,21.0059l-0.9961-1.4941c-0.4102,0.5371-0.9229,0.9692-1.5381,1.2964s-1.2891,0.4907-2.0215,0.4907
		H368.29c-0.6055,0-1.1768-0.1147-1.7139-0.3442s-1.0059-0.5444-1.4063-0.9448s-0.7158-0.8691-0.9443-1.4063
		c-0.2305-0.5371-0.3447-1.1084-0.3447-1.7139v-0.1465c0-0.6055,0.1143-1.1768,0.3447-1.7139
		c0.2285-0.5371,0.5439-1.0059,0.9443-1.4063s0.8691-0.7153,1.4063-0.9448s1.1084-0.3442,1.7139-0.3442h3.8086v-2.3145
		c0-0.3613-0.0684-0.7007-0.2051-1.0181s-0.3223-0.5933-0.5566-0.8276s-0.5107-0.4199-0.8281-0.5566s-0.6563-0.2051-1.0176-0.2051
		h-1.0547c-0.3613,0-0.7012,0.0684-1.0176,0.2051c-0.3184,0.1367-0.5938,0.3223-0.8281,0.5566s-0.4199,0.5103-0.5566,0.8276
		s-0.2051,0.6567-0.2051,1.0181v0.542l-1.8018-0.293v-0.1465c0-0.6055,0.1143-1.1768,0.3447-1.7139
		c0.2285-0.5371,0.5439-1.0059,0.9443-1.4063s0.8691-0.7153,1.4063-0.9448s1.1084-0.3442,1.7139-0.3442h1.0547
		c0.6055,0,1.1768,0.1147,1.7139,0.3442s1.0059,0.5444,1.4063,0.9448s0.7148,0.8691,0.9443,1.4063s0.3447,1.1084,0.3447,1.7139
		v10.8838H373.2998z M372.0986,13.7402H368.29c-0.3613,0-0.7012,0.0684-1.0176,0.2051c-0.3184,0.1367-0.5938,0.3247-0.8281,0.564
		s-0.4199,0.5176-0.5566,0.835s-0.2051,0.6567-0.2051,1.0181v0.6299c0,0.3613,0.0684,0.7007,0.2051,1.0181
		s0.3223,0.5933,0.5566,0.8276s0.5098,0.4199,0.8281,0.5566c0.3164,0.1367,0.6563,0.2051,1.0176,0.2051h1.2012
		c0.3613,0,0.7002-0.0684,1.0176-0.2051s0.5938-0.3223,0.8281-0.5566s0.4199-0.5103,0.5566-0.8276s0.2051-0.6567,0.2051-1.0181
		V13.7402z"/>
	<path class="st65" d="M378.1045,21.0059V0h1.8018v21.0059H378.1045z"/>
</g>
</svg>
