<?xml version="1.0" encoding="utf-8"?>
<!-- Generator: Adobe Illustrator 21.0.2, SVG Export Plug-In . SVG Version: 6.00 Build 0)  -->
<svg version="1.1" id="Capa_1" xmlns="http://www.w3.org/2000/svg" xmlns:xlink="http://www.w3.org/1999/xlink" x="0px" y="0px"
	 viewBox="0 0 427.005 532.7595" style="enable-background:new 0 0 427.005 532.7595;" xml:space="preserve">
<style type="text/css">
	.st0{fill-rule:evenodd;clip-rule:evenodd;fill:#DDDDDD;}
	.st1{fill:#3B86B1;}
	.st2{opacity:0.25;fill-rule:evenodd;clip-rule:evenodd;fill:#020202;}
	.st3{fill:#FFFFFF;}
	.st4{opacity:0.5;}
	.st5{fill-rule:evenodd;clip-rule:evenodd;fill:#A8A8A8;}
	.st6{fill-rule:evenodd;clip-rule:evenodd;fill:#FFFFFF;}
	.st7{fill-rule:evenodd;clip-rule:evenodd;fill:#3B86B1;}
	.st8{opacity:0.5;fill:#2C6882;}
	.st9{opacity:0.75;fill-rule:evenodd;clip-rule:evenodd;fill:#282828;}
	.st10{opacity:0.5;fill:#FFFFFF;}
	.st11{fill-rule:evenodd;clip-rule:evenodd;fill:none;stroke:#FFFFFF;stroke-miterlimit:10;}
	.st12{fill:none;stroke:#FFFFFF;stroke-miterlimit:10;}
	.st13{fill:#FFFFFF;stroke:#3B86B1;stroke-width:1.7139;stroke-miterlimit:10;}
	.st14{fill-rule:evenodd;clip-rule:evenodd;}
	.st15{opacity:0.85;fill:#FFFFFF;}
	.st16{opacity:0.5;fill-rule:evenodd;clip-rule:evenodd;}
	.st17{fill-rule:evenodd;clip-rule:evenodd;fill:#FEFEFE;}
	.st18{fill:#312767;}
	.st19{opacity:0.48;}
	.st20{opacity:0.25;}
	.st21{fill-rule:evenodd;clip-rule:evenodd;fill:#020202;}
	.st22{fill:#757575;}
	.st23{opacity:0.25;clip-path:url(#XMLID_3738_);}
	.st24{fill:#FFFFFF;stroke:#312767;stroke-miterlimit:10;}
	.st25{fill:#ACABC9;}
	.st26{fill-rule:evenodd;clip-rule:evenodd;fill:#312767;}
	.st27{opacity:0.77;fill:#312767;}
	.st28{opacity:0.25;clip-path:url(#XMLID_3760_);}
	.st29{fill:#9490B2;stroke:#2D2D2D;stroke-width:0.25;stroke-miterlimit:10;}
	.st30{fill:#312767;stroke:#2D2D2D;stroke-width:0.25;stroke-miterlimit:10;}
	.st31{fill:#FCFCFC;}
	.st32{fill:#FFFFFF;stroke:#2D2D2D;stroke-width:0.25;stroke-miterlimit:10;}
	.st33{fill-rule:evenodd;clip-rule:evenodd;fill:#484849;stroke:#2D2D2D;stroke-width:0.25;stroke-miterlimit:10;}
	.st34{fill-rule:evenodd;clip-rule:evenodd;fill:#312767;stroke:#2D2D2D;stroke-width:0.25;stroke-miterlimit:10;}
	.st35{fill-rule:evenodd;clip-rule:evenodd;fill:#FFFFFF;stroke:#2D2D2D;stroke-width:0.25;stroke-miterlimit:10;}
	.st36{fill:#484849;stroke:#2D2D2D;stroke-width:0.25;stroke-miterlimit:10;}
	.st37{fill:#FFFFFF;stroke:#FFFFFF;stroke-miterlimit:10;}
	.st38{fill:#54518C;}
	.st39{opacity:0.25;fill-rule:evenodd;clip-rule:evenodd;fill:#FFFFFF;}
	.st40{fill:#D4A800;}
	.st41{fill:#00AEB3;}
	.st42{fill:#38353B;}
	.st43{fill:#FF8400;}
	.st44{fill:#BF3900;}
	.st45{fill:#00AA9C;}
	.st46{opacity:0.25;clip-path:url(#XMLID_3761_);}
	.st47{fill:none;stroke:#ACABC9;stroke-width:5;stroke-miterlimit:10;}
	.st48{opacity:0.25;clip-path:url(#XMLID_3762_);}
	.st49{fill:#DDDDDD;}
	.st50{opacity:0.25;clip-path:url(#XMLID_3763_);}
	.st51{fill-rule:evenodd;clip-rule:evenodd;fill:#FFFFFF;stroke:#FFFFFF;stroke-miterlimit:10;}
	.st52{fill:#F79748;}
	.st53{fill:#FF7900;}
	.st54{fill:#DD7105;}
	.st55{fill:#02897C;}
	.st56{fill:#0EAD9A;}
	.st57{fill:#28C6AF;}
	.st58{fill:#4FE0C7;}
	.st59{fill:#D37D00;}
	.st60{fill:#D14600;}
	.st61{fill:#E5B92E;}
	.st62{fill:#DD571B;}
	.st63{fill:#E28A17;}
	.st64{opacity:0.25;clip-path:url(#XMLID_3770_);}
	.st65{fill:#4D4789;}
	.st66{opacity:0.77;fill:#FFFFFF;}
	.st67{fill:#50565B;stroke:#656C70;stroke-miterlimit:10;}
	.st68{fill:#808589;stroke:#656C70;stroke-miterlimit:10;}
	.st69{fill:#252728;stroke:#000000;stroke-miterlimit:10;}
	.st70{fill:#1A1B1C;stroke:#000000;stroke-miterlimit:10;}
	.st71{fill:#A0A6AA;}
	.st72{fill:#262C35;stroke:#161A1E;stroke-miterlimit:10;}
	.st73{fill:#181D23;}
	.st74{fill:#EABA96;stroke:#E0AA86;stroke-miterlimit:10;}
	.st75{fill:#E0AA86;}
	.st76{stroke:#000000;stroke-width:0.75;stroke-linecap:square;stroke-linejoin:bevel;stroke-miterlimit:10;}
	.st77{fill:#0F1C3F;stroke:#182951;stroke-miterlimit:10;}
	.st78{fill:#132354;stroke:#3F6093;stroke-miterlimit:10;}
	.st79{fill:#0F1C3F;}
	.st80{fill:none;stroke:#3F6093;stroke-width:0.75;stroke-miterlimit:10;}
	.st81{fill:#DBA682;}
	.st82{fill:none;stroke:#E0AA86;stroke-miterlimit:10;}
	.st83{fill:none;stroke:#E0AA86;stroke-linejoin:bevel;stroke-miterlimit:10;}
	.st84{fill:#8A0A8E;stroke:#AC34B2;stroke-miterlimit:10;}
	.st85{fill:#810C87;}
	.st86{fill:#680B6D;}
	.st87{fill:#AC34B2;stroke:#AC34B2;stroke-width:0.5;stroke-miterlimit:10;}
	.st88{fill:none;stroke:#959DA0;stroke-width:0.5;stroke-miterlimit:10;}
	.st89{fill:#959DA0;stroke:#959DA0;stroke-width:0.5;stroke-miterlimit:10;}
	.st90{fill:none;stroke:#AC34B2;stroke-miterlimit:10;}
	.st91{fill:#282828;stroke:#000000;stroke-miterlimit:10;}
	.st92{fill:#EABA96;stroke:#E0AA86;stroke-width:0.5;stroke-miterlimit:10;}
	.st93{fill:#B7896A;}
	.st94{stroke:#000000;stroke-miterlimit:10;}
	.st95{fill:#C1A578;}
	.st96{stroke:#000000;stroke-width:0.25;stroke-linecap:round;stroke-linejoin:round;stroke-miterlimit:10;}
	.st97{fill:#FFFFFF;stroke:#000000;stroke-width:0.25;stroke-linecap:round;stroke-linejoin:round;stroke-miterlimit:10;}
	.st98{fill:#70582D;}
	.st99{stroke:#000000;stroke-linecap:round;stroke-linejoin:round;stroke-miterlimit:10;}
	.st100{fill:none;stroke:#D8A27D;stroke-width:0.75;stroke-miterlimit:10;}
	.st101{fill:#561409;}
	.st102{fill:#BA2A13;}
	.st103{fill:#9E3025;stroke:#4C2311;stroke-width:0.25;stroke-miterlimit:10;}
	.st104{fill:#871D08;stroke:#4C2311;stroke-width:0.25;stroke-miterlimit:10;}
	.st105{fill:#DDAC8A;}
	.st106{fill:#A5ABAD;stroke:#959DA0;stroke-width:0.5;stroke-miterlimit:10;}
	.st107{fill:#B1BABC;}
	.st108{fill:none;stroke:#153847;stroke-width:5;stroke-miterlimit:10;}
	.st109{fill:#3CA7AF;}
	.st110{fill:#3DAD8D;}
	.st111{fill:#3DAA61;}
	.st112{fill:#67A53F;}
	.st113{fill:#95A340;}
	.st114{fill:#153847;}
	.st115{opacity:0.25;clip-path:url(#XMLID_3771_);}
	.st116{opacity:0.25;clip-path:url(#XMLID_3772_);}
	.st117{opacity:0.25;clip-path:url(#XMLID_3773_);}
	.st118{opacity:0.25;clip-path:url(#XMLID_3780_);}
	.st119{clip-path:url(#SVGID_2_);}
	.st120{fill:none;stroke:#3F6093;stroke-miterlimit:10;}
	.st121{fill:none;stroke:#3F6093;stroke-width:0.75;stroke-linecap:round;stroke-linejoin:round;}
	.st122{fill:none;stroke:#3F6093;stroke-width:0.75;stroke-linecap:round;stroke-linejoin:round;stroke-dasharray:0.9892,0.9892;}
	
		.st123{fill:none;stroke:#3F6093;stroke-width:0.75;stroke-linecap:round;stroke-linejoin:round;stroke-miterlimit:10;stroke-dasharray:1;}
	.st124{fill:#EAEAEA;stroke:#FFFFFF;stroke-width:0.25;stroke-miterlimit:10;}
	.st125{fill:#D8D8D8;}
	.st126{fill:#282828;stroke:#000000;stroke-width:0.75;stroke-miterlimit:10;}
	.st127{opacity:0.33;fill:#FFFFFF;}
	.st128{fill:none;stroke:#000000;stroke-width:1.5;stroke-linecap:round;stroke-linejoin:round;stroke-miterlimit:10;}
	.st129{opacity:0.64;}
	.st130{fill:#C9C9C9;}
	.st131{fill:#FFF064;}
	.st132{fill:#4F4E4F;}
	.st133{fill:#1E2F47;}
	.st134{opacity:0.1;fill:#FFFFFF;}
	.st135{opacity:0.1;}
	.st136{opacity:0.4;fill:#FFFFFF;}
	.st137{fill-rule:evenodd;clip-rule:evenodd;fill:#F39C12;}
	.st138{fill-rule:evenodd;clip-rule:evenodd;fill:#E6E6E6;}
	.st139{fill-rule:evenodd;clip-rule:evenodd;fill:#474646;}
	.st140{fill-rule:evenodd;clip-rule:evenodd;fill:#D84848;}
	.st141{opacity:0.2;fill-rule:evenodd;clip-rule:evenodd;fill:#231F20;}
	.st142{opacity:0.1;fill-rule:evenodd;clip-rule:evenodd;fill:#231F20;}
	.st143{fill-rule:evenodd;clip-rule:evenodd;fill:#4D4D4D;}
	.st144{fill-rule:evenodd;clip-rule:evenodd;fill:#336699;}
	.st145{fill-rule:evenodd;clip-rule:evenodd;fill:#FF6633;}
	.st146{fill-rule:evenodd;clip-rule:evenodd;fill:#0056A3;}
	.st147{fill-rule:evenodd;clip-rule:evenodd;fill:#33CC99;}
	.st148{fill:#CE6405;}
	.st149{opacity:0.2;fill:#FFFFFF;}
	.st150{fill:#1ABC9C;}
	.st151{opacity:0.2;}
	.st152{fill:#0B2E44;}
	.st153{fill-rule:evenodd;clip-rule:evenodd;fill:#154F77;}
	.st154{fill-rule:evenodd;clip-rule:evenodd;fill:#0D3858;}
	.st155{fill-rule:evenodd;clip-rule:evenodd;fill:#FFFEFE;}
	.st156{fill:#AEC647;}
	.st157{fill:#F3AE1B;}
	.st158{fill:#DF3F11;}
	.st159{fill:#BCDEDE;}
	.st160{fill:#C84119;}
	.st161{fill:#6BB5CE;}
	.st162{fill:#00D0E5;}
	.st163{fill:#FF81ED;}
	.st164{fill:#00C982;}
	.st165{opacity:0.7;}
	.st166{opacity:0.4;}
	.st167{fill-rule:evenodd;clip-rule:evenodd;fill:#0B2E44;}
	.st168{opacity:0.8;fill-rule:evenodd;clip-rule:evenodd;fill:#FFFFFF;}
	.st169{fill:#424242;}
	.st170{opacity:0.2;fill-rule:evenodd;clip-rule:evenodd;fill:#FFFFFF;}
	.st171{fill:#D0EDFA;}
	.st172{fill:#FF651F;}
	.st173{fill:#0051C4;}
	.st174{fill:#E46400;}
	.st175{fill:#C0003B;}
	.st176{fill:#FFEA50;}
	.st177{fill:#FF2C0D;}
	.st178{fill:#FF1A2C;}
	.st179{fill:#FF2C4D;}
	.st180{fill:#FFD74C;}
	.st181{fill:#4C4C4B;}
	.st182{fill:#6CD2EA;}
	.st183{fill:#F7674F;}
	.st184{opacity:0.1;fill-rule:evenodd;clip-rule:evenodd;}
	.st185{fill:#BABABA;}
	.st186{fill:#F9B946;}
	.st187{fill:#DFC2A9;}
	.st188{fill:#BFA490;}
	.st189{fill:#F5D4B2;}
	.st190{fill:#DF584C;}
	.st191{fill:#C2443E;}
	.st192{fill:#DBDBDA;}
	.st193{fill:#2F363E;}
	.st194{fill:#332524;}
	.st195{fill:#473735;}
	.st196{opacity:0.25;clip-path:url(#XMLID_3781_);}
	.st197{fill:#52B8BA;}
	.st198{fill:#35373E;}
	.st199{opacity:0.25;clip-path:url(#XMLID_3782_);}
	.st200{opacity:0.31;fill:#34383A;}
	.st201{opacity:0.16;fill:#3D3835;}
	.st202{fill:#D0D1D4;}
	.st203{opacity:0.31;}
	.st204{fill:#34383A;}
	.st205{opacity:0.16;}
	.st206{fill:#3D3835;}
	.st207{opacity:0.25;clip-path:url(#XMLID_3783_);}
	.st208{fill:#F9E1B4;}
	.st209{opacity:0.25;fill:#050505;}
	.st210{fill:#FCC60F;}
	.st211{fill:#74CAEA;}
	.st212{fill:#050505;}
	.st213{opacity:0.25;clip-path:url(#XMLID_3784_);}
	.st214{fill:#FABC8F;}
	.st215{fill:#3FA995;}
	.st216{opacity:0.17;fill:#020202;}
	.st217{fill:#E1E1E1;}
	.st218{opacity:0.17;}
	.st219{fill:#020202;}
	.st220{opacity:0.25;clip-path:url(#XMLID_3785_);}
	.st221{fill:#BF8E00;}
	.st222{fill:#F7D8D7;}
	.st223{fill:#F18636;}
	.st224{fill:#004460;}
	.st225{fill:#D93A37;}
	.st226{fill:#EDEDED;}
	.st227{fill:#184F78;}
	.st228{fill:#FF3E03;}
	.st229{opacity:0.6;fill:#0F0F0F;}
	.st230{fill:#E8E8E6;}
	.st231{fill:#00EAA6;}
	.st232{fill-rule:evenodd;clip-rule:evenodd;fill:#FF3E03;}
	.st233{opacity:0.1;fill-rule:evenodd;clip-rule:evenodd;fill:#020202;}
	.st234{fill-rule:evenodd;clip-rule:evenodd;fill:#FABE00;}
	.st235{fill-rule:evenodd;clip-rule:evenodd;fill:#E6E8E8;}
	.st236{fill-rule:evenodd;clip-rule:evenodd;fill:#F7D959;}
	.st237{fill-rule:evenodd;clip-rule:evenodd;fill:#F9623E;}
	.st238{fill:#4F1A0F;}
	.st239{opacity:0.46;fill:#FFFFFF;}
	.st240{fill:#48505A;}
	.st241{fill:#C3C3C3;}
	.st242{fill:#E9E9EA;}
	.st243{fill:#9D9E9F;}
	.st244{fill:#F6F4F4;}
	.st245{fill:#6B6A6A;}
	.st246{fill:#C09478;}
	.st247{fill:#F7CDA0;}
	.st248{fill:#9E1010;}
	.st249{fill:#F2F2F2;}
	.st250{opacity:0.2;fill:#060606;}
	.st251{fill:#16AFBE;}
	.st252{fill:#DD2222;}
	.st253{fill:#FFEDDC;}
	.st254{fill:#22272B;}
	.st255{fill:#5B6375;}
</style>
<g>
	<g>
		<path class="st112" d="M24.3451,2.7972h375.1071c13.4454,0,24.3451,10.8997,24.3451,24.3451v505.6172H0V27.1422
			C0,13.6968,10.8997,2.7972,24.3451,2.7972z"/>
	</g>
	<g>
		<circle class="st49" cx="406.6325" cy="20.3725" r="20.3725"/>
	</g>
	<g id="XMLID_3764_">
		<g id="XMLID_3769_">
			<path class="st3" d="M412.2998,14.7051c0.963,0.9631,0.963,2.5249,0,3.4879l-2.1796,2.1795l2.1798,2.1798
				c0.963,0.9631,0.9628,2.5245-0.0002,3.4876c-0.9631,0.9631-2.5246,0.9633-3.4876,0.0003l-2.1797-2.1798l-2.1796,2.1795
				c-0.963,0.963-2.5248,0.963-3.4878-0.0001c-0.9631-0.9631-0.9628-2.5246,0.0002-3.4876l2.1795-2.1795l-2.1797-2.1798
				c-0.9631-0.9631-0.9631-2.5249,0-3.4879c0.963-0.9631,2.5248-0.963,3.4878,0.0001l2.1798,2.1798l2.1795-2.1795
				C409.7755,13.742,411.3368,13.742,412.2998,14.7051L412.2998,14.7051z M412.2998,14.7051"/>
			<path class="st18" d="M402.7085,27.2609c-0.7588,0-1.5186-0.2891-2.0967-0.8672c-1.1563-1.1572-1.1563-3.0391,0-4.1953
				l1.8262-1.8262l-1.8262-1.8262c-1.1563-1.1563-1.1563-3.0381,0-4.1943c1.1582-1.1563,3.04-1.1553,4.1943,0l1.8262,1.8262
				l1.8262-1.8262c1.1563-1.1563,3.0391-1.1563,4.1953,0l0,0c1.1563,1.1563,1.1563,3.0381,0,4.1943l-1.8262,1.8262l1.8262,1.8262
				c1.1563,1.1563,1.1563,3.0381,0,4.1953c-1.1553,1.1553-3.0381,1.1572-4.1953,0l-1.8262-1.8262l-1.8262,1.8262
				C404.228,26.9719,403.4682,27.2609,402.7085,27.2609z M402.7085,14.4836c-0.5029,0-1.0068,0.1924-1.3896,0.5752
				c-0.7666,0.7666-0.7666,2.0137,0,2.7803l2.5332,2.5332l-2.5332,2.5332c-0.7666,0.7666-0.7666,2.0137,0,2.7813
				c0.7695,0.7676,2.0146,0.7656,2.7803,0l2.5332-2.5332l2.5332,2.5332c0.7646,0.7637,2.0127,0.7656,2.7813,0
				c0.7666-0.7676,0.7666-2.0146,0-2.7813l-2.5332-2.5332l2.5332-2.5332c0.3711-0.3711,0.5762-0.8652,0.5762-1.3906
				c0-0.5244-0.2051-1.0186-0.5762-1.3896l0,0c-0.7656-0.7656-2.0156-0.7656-2.7813,0l-2.5332,2.5332l-2.5332-2.5332
				C403.7163,14.676,403.2124,14.4836,402.7085,14.4836z"/>
		</g>
		<g id="XMLID_3765_">
			<path class="st18" d="M394.3757,32.6292c-6.7323-6.7323-6.7321-17.6867,0.0003-24.4191c6.7321-6.7321,17.6865-6.7323,24.4189,0
				c6.7324,6.7324,6.7327,17.6867,0.0003,24.4191C412.0627,39.3616,401.1081,39.3616,394.3757,32.6292L394.3757,32.6292z
				 M416.1248,10.8801c-5.2602-5.2602-13.819-5.26-19.0789,0c-5.2603,5.2603-5.2602,13.8192-0.0003,19.0792
				c5.2603,5.2603,13.8192,5.2603,19.0794,0C421.3851,24.6993,421.3851,16.1404,416.1248,10.8801L416.1248,10.8801z
				 M417.0762,9.9287"/>
		</g>
	</g>
</g>
<g>
	<g>
		<path class="st3" d="M150.2261,49.9787c-0.2949,0.6865-0.7012,1.2871-1.2148,1.8018c-0.5156,0.5146-1.1191,0.9199-1.8105,1.2148
			s-1.4297,0.4424-2.2109,0.4424h-7.3047V30.3703h7.3047c0.7813,0,1.5195,0.1475,2.2109,0.4424s1.2949,0.6992,1.8105,1.2139
			c0.5137,0.5146,0.9199,1.1182,1.2148,1.8096c0.2949,0.6924,0.4414,1.4297,0.4414,2.2119v0.2256
			c0,0.5469-0.0723,1.0693-0.2168,1.5684s-0.3516,0.9629-0.6191,1.3916s-0.5859,0.8174-0.9492,1.166
			c-0.3652,0.3486-0.7715,0.6406-1.2227,0.877c0.4512,0.2363,0.8574,0.5283,1.2227,0.877c0.3633,0.3486,0.6816,0.7393,0.9492,1.1738
			s0.4746,0.9014,0.6191,1.3994c0.1445,0.499,0.2168,1.0215,0.2168,1.5684v1.4805
			C150.6675,48.5578,150.521,49.2932,150.2261,49.9787z M148.5932,36.0481c0-0.5146-0.0977-0.9941-0.291-1.4395
			c-0.1914-0.4443-0.457-0.8359-0.7949-1.1738s-0.7305-0.6035-1.1758-0.7969c-0.4434-0.1924-0.9238-0.2891-1.4395-0.2891h-5.1309
			v7.9463h5.1309c0.5156,0,0.9961-0.0967,1.4395-0.2891c0.4453-0.1934,0.8379-0.459,1.1758-0.7969s0.6035-0.7285,0.7949-1.1738
			c0.1934-0.4453,0.291-0.9248,0.291-1.4404V36.0481z M148.5932,45.9572c0-0.5146-0.0977-0.9941-0.291-1.4395
			c-0.1914-0.4453-0.457-0.834-0.7949-1.166s-0.7305-0.5957-1.1758-0.7881c-0.4434-0.1934-0.9238-0.29-1.4395-0.29h-5.1309v9.1855
			h5.1309c0.5156,0,0.9961-0.0967,1.4395-0.29c0.4453-0.1924,0.8379-0.4551,1.1758-0.7881c0.3379-0.332,0.6035-0.7207,0.7949-1.166
			c0.1934-0.4453,0.291-0.9248,0.291-1.4395V45.9572z"/>
	</g>
	<g>
		<path class="st3" d="M154.4643,33.008v-2.6377h2.2988v2.6377H154.4643z M154.6245,53.4377V36.965h1.9785v16.4727H154.6245z"/>
	</g>
	<g>
		<path class="st3" d="M171.8452,50.8c-0.252,0.5898-0.5977,1.1045-1.0371,1.5439c-0.4414,0.4395-0.9551,0.7852-1.5449,1.0371
			s-1.2168,0.3779-1.8828,0.3779h-1.3184c-0.666,0-1.293-0.126-1.8828-0.3779s-1.1035-0.5977-1.543-1.0371
			c-0.4414-0.4395-0.7871-0.9541-1.0391-1.5439s-0.377-1.2178-0.377-1.8828v-7.4316c0-0.665,0.125-1.292,0.377-1.8818
			s0.5977-1.1045,1.0391-1.5449c0.4395-0.4395,0.9531-0.7852,1.543-1.0371s1.2168-0.3779,1.8828-0.3779h1.3184
			c0.666,0,1.293,0.126,1.8828,0.3779s1.1035,0.5977,1.5449,1.0371c0.4395,0.4404,0.7852,0.9551,1.0371,1.5449
			s0.377,1.2168,0.377,1.8818v3.877h-9.0234v3.668c0,0.3965,0.0742,0.7695,0.2246,1.1172c0.1504,0.3486,0.3535,0.6523,0.6113,0.9092
			c0.2578,0.2578,0.5605,0.4609,0.9082,0.6113c0.3496,0.1504,0.7227,0.2256,1.1191,0.2256h1.3184
			c0.3965,0,0.7695-0.0752,1.1191-0.2256c0.3477-0.1504,0.6504-0.3535,0.9082-0.6113c0.2578-0.2568,0.4609-0.5605,0.6113-0.9092
			c0.1504-0.3477,0.2246-0.7207,0.2246-1.1172v-1.0947l1.9785,0.3223v0.6592C172.2222,49.5822,172.0972,50.2102,171.8452,50.8z
			 M170.2436,41.3733c0-0.3965-0.0742-0.7695-0.2246-1.1182s-0.3535-0.6514-0.6113-0.9092
			c-0.2578-0.2568-0.5605-0.4609-0.9082-0.6113c-0.3496-0.1494-0.7227-0.2246-1.1191-0.2246h-1.3184
			c-0.3965,0-0.7695,0.0752-1.1191,0.2246c-0.3477,0.1504-0.6504,0.3545-0.9082,0.6113c-0.2578,0.2578-0.4609,0.5605-0.6113,0.9092
			s-0.2246,0.7217-0.2246,1.1182v2.4453h7.0449V41.3733z"/>
	</g>
	<g>
		<path class="st3" d="M185.2046,53.4377V41.3733c0-0.3965-0.0742-0.7695-0.2246-1.1182s-0.3535-0.6514-0.6113-0.9092
			c-0.2578-0.2568-0.5605-0.4609-0.9082-0.6113c-0.3496-0.1494-0.7227-0.2246-1.1191-0.2246h-1.3184
			c-0.3965,0-0.7695,0.0752-1.1191,0.2246c-0.3477,0.1504-0.6504,0.3545-0.9082,0.6113c-0.2578,0.2578-0.4609,0.5605-0.6113,0.9092
			s-0.2246,0.7217-0.2246,1.1182v12.0645h-1.9785V36.965h0.6582l1.0781,1.6729c0.4512-0.6113,1.0156-1.0957,1.6973-1.4551
			s1.4238-0.5391,2.2285-0.5391h0.498c0.666,0,1.293,0.126,1.8828,0.3779s1.1035,0.5977,1.5449,1.0371
			c0.4395,0.4404,0.7852,0.9551,1.0371,1.5449s0.377,1.2168,0.377,1.8818v11.9521H185.2046z"/>
	</g>
	<g>
		<path class="st3" d="M209.3432,50.8c-0.252,0.5898-0.5977,1.1045-1.0371,1.5439c-0.4414,0.4395-0.9551,0.7852-1.5449,1.0371
			s-1.2168,0.3779-1.8828,0.3779H203.56c-0.666,0-1.293-0.126-1.8828-0.3779s-1.1035-0.5977-1.543-1.0371
			c-0.4414-0.4395-0.7871-0.9541-1.0391-1.5439s-0.377-1.2178-0.377-1.8828v-7.4316c0-0.665,0.125-1.292,0.377-1.8818
			s0.5977-1.1045,1.0391-1.5449c0.4395-0.4395,0.9531-0.7852,1.543-1.0371s1.2168-0.3779,1.8828-0.3779h1.3184
			c0.666,0,1.293,0.126,1.8828,0.3779s1.1035,0.5977,1.5449,1.0371c0.4395,0.4404,0.7852,0.9551,1.0371,1.5449
			s0.377,1.2168,0.377,1.8818v0.6592l-1.9785,0.3223v-1.0938c0-0.3965-0.0742-0.7695-0.2246-1.1182s-0.3535-0.6514-0.6113-0.9092
			c-0.2578-0.2568-0.5605-0.4609-0.9082-0.6113c-0.3496-0.1494-0.7227-0.2246-1.1191-0.2246H203.56
			c-0.3965,0-0.7695,0.0752-1.1191,0.2246c-0.3477,0.1504-0.6504,0.3545-0.9082,0.6113c-0.2578,0.2578-0.4609,0.5605-0.6113,0.9092
			s-0.2246,0.7217-0.2246,1.1182v7.6572c0,0.3965,0.0742,0.7695,0.2246,1.1172c0.1504,0.3486,0.3535,0.6523,0.6113,0.9092
			c0.2578,0.2578,0.5605,0.4609,0.9082,0.6113c0.3496,0.1504,0.7227,0.2256,1.1191,0.2256h1.3184
			c0.3965,0,0.7695-0.0752,1.1191-0.2256c0.3477-0.1504,0.6504-0.3535,0.9082-0.6113c0.2578-0.2568,0.4609-0.5605,0.6113-0.9092
			c0.1504-0.3477,0.2246-0.7207,0.2246-1.1172v-1.0947l1.9785,0.3223v0.6592C209.7202,49.5822,209.5952,50.2102,209.3432,50.8z"/>
	</g>
	<g>
		<path class="st3" d="M224.3022,50.8c-0.252,0.5898-0.5977,1.1045-1.0371,1.5439s-0.9551,0.7852-1.5449,1.0371
			s-1.2168,0.3779-1.8809,0.3779h-1.3203c-0.6641,0-1.291-0.126-1.8809-0.3779s-1.1055-0.5977-1.5449-1.0371
			s-0.7852-0.9541-1.0371-1.5439s-0.3789-1.2178-0.3789-1.8828v-7.4316c0-0.665,0.127-1.292,0.3789-1.8818
			s0.5977-1.1045,1.0371-1.5449c0.4395-0.4395,0.9551-0.7852,1.5449-1.0371s1.2168-0.3779,1.8809-0.3779h1.3203
			c0.6641,0,1.291,0.126,1.8809,0.3779s1.1055,0.5977,1.5449,1.0371c0.4395,0.4404,0.7852,0.9551,1.0371,1.5449
			s0.3789,1.2168,0.3789,1.8818v7.4316C224.6811,49.5822,224.5542,50.2102,224.3022,50.8z M222.7026,41.3733
			c0-0.3965-0.0762-0.7695-0.2246-1.1182c-0.1504-0.3486-0.3555-0.6514-0.6113-0.9092c-0.2578-0.2568-0.5605-0.4609-0.9102-0.6113
			c-0.3477-0.1494-0.7207-0.2246-1.1172-0.2246h-1.3203c-0.3965,0-0.7695,0.0752-1.1172,0.2246
			c-0.3496,0.1504-0.6523,0.3545-0.9082,0.6113c-0.2578,0.2578-0.4629,0.5605-0.6113,0.9092
			c-0.1504,0.3486-0.2266,0.7217-0.2266,1.1182v7.6572c0,0.3965,0.0762,0.7695,0.2266,1.1172
			c0.1484,0.3486,0.3535,0.6523,0.6113,0.9092c0.2559,0.2578,0.5586,0.4609,0.9082,0.6113
			c0.3477,0.1504,0.7207,0.2256,1.1172,0.2256h1.3203c0.3965,0,0.7695-0.0752,1.1172-0.2256
			c0.3496-0.1504,0.6523-0.3535,0.9102-0.6113c0.2559-0.2568,0.4609-0.5605,0.6113-0.9092
			c0.1484-0.3477,0.2246-0.7207,0.2246-1.1172V41.3733z"/>
	</g>
	<g>
		<path class="st3" d="M246.0268,53.4377V41.3733c0-0.3965-0.0742-0.7695-0.2246-1.1182s-0.3535-0.6514-0.6113-0.9092
			c-0.2578-0.2568-0.5605-0.4609-0.9082-0.6113c-0.3496-0.1494-0.7227-0.2246-1.1191-0.2246h-0.9805
			c-0.3984,0-0.7695,0.0752-1.1191,0.2246c-0.3477,0.1504-0.6543,0.3545-0.916,0.6113c-0.2637,0.2578-0.4688,0.5605-0.6191,0.9092
			s-0.2266,0.7217-0.2266,1.1182v12.0645h-1.9609V41.3733c0-0.3965-0.0762-0.7695-0.2266-1.1182s-0.3555-0.6514-0.6191-0.9092
			c-0.2617-0.2568-0.5684-0.4609-0.916-0.6113c-0.3496-0.1494-0.7227-0.2246-1.1191-0.2246H233.48
			c-0.3965,0-0.7695,0.0752-1.1191,0.2246c-0.3477,0.1504-0.6504,0.3545-0.9082,0.6113c-0.2578,0.2578-0.4609,0.5605-0.6113,0.9092
			s-0.2246,0.7217-0.2246,1.1182v12.0645h-1.9785V36.965h0.6582l1.0781,1.6729c0.4512-0.6113,1.0156-1.0957,1.6973-1.4551
			s1.4238-0.5391,2.2285-0.5391h0.1602c0.9336,0,1.7754,0.2305,2.5254,0.6914c0.752,0.4609,1.3301,1.0723,1.7383,1.834
			c0.2031-0.375,0.4551-0.7188,0.7559-1.0293c0.3008-0.3115,0.6328-0.5762,0.998-0.7969c0.3633-0.2197,0.7598-0.3906,1.1895-0.5146
			c0.4297-0.123,0.875-0.1846,1.3359-0.1846h0.1602c0.6641,0,1.293,0.126,1.8828,0.3779s1.1035,0.5977,1.543,1.0371
			c0.4395,0.4404,0.7871,0.9551,1.0391,1.5449s0.377,1.2168,0.377,1.8818v11.9521H246.0268z"/>
	</g>
	<g>
		<path class="st3" d="M262.3061,53.4377l-1.0938-1.6729c-0.4492,0.6113-1.0137,1.0967-1.6895,1.4561
			c-0.6758,0.3584-1.4141,0.5381-2.2188,0.5381h-0.5c-0.6641,0-1.291-0.126-1.8808-0.3779s-1.1055-0.5977-1.5449-1.0371
			s-0.7852-0.9541-1.0371-1.5439s-0.3789-1.2178-0.3789-1.8828V36.965h1.9785v12.0654c0,0.3965,0.0762,0.7695,0.2266,1.1172
			c0.1484,0.3486,0.3535,0.6523,0.6113,0.9092c0.2559,0.2578,0.5586,0.4609,0.9082,0.6113
			c0.3476,0.1504,0.7207,0.2256,1.1172,0.2256h1.3203c0.3965,0,0.7695-0.0752,1.1172-0.2256
			c0.3496-0.1504,0.6523-0.3535,0.9102-0.6113c0.2559-0.2568,0.4609-0.5605,0.6113-0.9092
			c0.1484-0.3477,0.2246-0.7207,0.2246-1.1172V36.965h1.9785v16.4727H262.3061z M257.3042,34.3274h-1.4961l2.6367-3.957h3.2988
			L257.3042,34.3274z"/>
	</g>
	<g>
		<path class="st3" d="M275.9467,53.4377V41.3733c0-0.3965-0.0742-0.7695-0.2246-1.1182s-0.3535-0.6514-0.6113-0.9092
			c-0.2578-0.2568-0.5605-0.4609-0.9082-0.6113c-0.3496-0.1494-0.7227-0.2246-1.1191-0.2246h-1.3184
			c-0.3965,0-0.7695,0.0752-1.1191,0.2246c-0.3477,0.1504-0.6504,0.3545-0.9082,0.6113c-0.2578,0.2578-0.4609,0.5605-0.6113,0.9092
			s-0.2246,0.7217-0.2246,1.1182v12.0645h-1.9785V36.965h0.6582l1.0781,1.6729c0.4512-0.6113,1.0156-1.0957,1.6973-1.4551
			s1.4238-0.5391,2.2285-0.5391h0.498c0.666,0,1.293,0.126,1.8828,0.3779s1.1035,0.5977,1.5449,1.0371
			c0.4395,0.4404,0.7852,0.9551,1.0371,1.5449s0.377,1.2168,0.377,1.8818v11.9521H275.9467z"/>
	</g>
	<g>
		<path class="st3" d="M52.1186,77.5393c-0.1602,0.376-0.3809,0.7041-0.6602,0.9844c-0.2813,0.2803-0.6094,0.501-0.9844,0.6611
			c-0.377,0.1611-0.7773,0.2412-1.2012,0.2412h-0.3164c-0.4727,0-0.9102-0.0957-1.3125-0.2871
			c-0.4043-0.1914-0.75-0.458-1.0371-0.7998v5.0859h-1.2598V68.7209h0.4199l0.6875,1.0664
			c0.2871-0.3896,0.6465-0.6992,1.0801-0.9277c0.4355-0.2295,0.9082-0.3438,1.4219-0.3438h0.3164
			c0.4238,0,0.8242,0.0801,1.2012,0.2412c0.375,0.1602,0.7031,0.3809,0.9844,0.6611c0.2793,0.2803,0.5,0.6084,0.6602,0.9844
			s0.2422,0.7764,0.2422,1.1992V76.34C52.3608,76.7639,52.2788,77.1633,52.1186,77.5393z M51.0991,71.5305
			c0-0.2529-0.0488-0.4902-0.1445-0.7129c-0.0957-0.2217-0.2246-0.415-0.3887-0.5791s-0.3574-0.2939-0.5801-0.3896
			s-0.459-0.1436-0.7129-0.1436h-0.8398c-0.2539,0-0.4902,0.0479-0.7129,0.1436s-0.416,0.2256-0.5801,0.3896
			s-0.293,0.3574-0.3887,0.5791c-0.0957,0.2227-0.1445,0.46-0.1445,0.7129v4.8809c0,0.2529,0.0488,0.4902,0.1445,0.7129
			c0.0957,0.2217,0.2246,0.415,0.3887,0.5791s0.3574,0.2939,0.5801,0.3896s0.459,0.1436,0.7129,0.1436h0.8398
			c0.2539,0,0.4902-0.0479,0.7129-0.1436s0.416-0.2256,0.5801-0.3896s0.293-0.3574,0.3887-0.5791
			c0.0957-0.2227,0.1445-0.46,0.1445-0.7129V71.5305z"/>
	</g>
	<g>
		<path class="st3" d="M57.9682,69.9201c-0.252,0-0.4902,0.0488-0.7129,0.1445c-0.2207,0.0957-0.4141,0.2246-0.5781,0.3887
			s-0.2949,0.3574-0.3906,0.5801c-0.0957,0.2217-0.1426,0.46-0.1426,0.7129v7.4746h-1.2617v-10.5h0.4199l0.6875,1.0664
			c0.2871-0.3896,0.6484-0.6992,1.082-0.9277c0.4336-0.2295,0.9063-0.3438,1.4199-0.3438H59.23v1.4043H57.9682z"/>
	</g>
	<g>
		<path class="st3" d="M67.685,77.5393c-0.1621,0.376-0.3828,0.7041-0.6621,0.9844c-0.2813,0.2803-0.6094,0.501-0.9844,0.6611
			c-0.377,0.1611-0.7754,0.2412-1.1992,0.2412h-0.8418c-0.4238,0-0.8242-0.0801-1.1992-0.2412
			c-0.377-0.1602-0.7051-0.3809-0.9844-0.6611c-0.2813-0.2803-0.5-0.6084-0.6621-0.9844c-0.1602-0.376-0.2402-0.7754-0.2402-1.1992
			v-4.7383c0-0.4229,0.0801-0.8232,0.2402-1.1992c0.1621-0.376,0.3809-0.7041,0.6621-0.9844
			c0.2793-0.2803,0.6074-0.501,0.9844-0.6611c0.375-0.1611,0.7754-0.2412,1.1992-0.2412h0.8418
			c0.4238,0,0.8223,0.0801,1.1992,0.2412c0.375,0.1602,0.7031,0.3809,0.9844,0.6611c0.2793,0.2803,0.5,0.6084,0.6621,0.9844
			c0.1602,0.376,0.2402,0.7764,0.2402,1.1992v2.4717h-5.752v2.3379c0,0.2529,0.0469,0.4902,0.1426,0.7129
			c0.0957,0.2217,0.2266,0.415,0.3906,0.5791s0.3574,0.2939,0.5781,0.3896c0.2227,0.0957,0.4609,0.1436,0.7129,0.1436h0.8418
			c0.252,0,0.4902-0.0479,0.7129-0.1436c0.2207-0.0957,0.4141-0.2256,0.5781-0.3896s0.2949-0.3574,0.3906-0.5791
			c0.0957-0.2227,0.1426-0.46,0.1426-0.7129v-0.6973l1.2617,0.2051V76.34C67.9253,76.7639,67.8452,77.1633,67.685,77.5393z
			 M66.6636,71.5305c0-0.2529-0.0469-0.4902-0.1426-0.7129c-0.0957-0.2217-0.2266-0.415-0.3906-0.5791s-0.3574-0.2939-0.5781-0.3896
			c-0.2227-0.0957-0.4609-0.1436-0.7129-0.1436h-0.8418c-0.252,0-0.4902,0.0479-0.7129,0.1436
			c-0.2207,0.0957-0.4141,0.2256-0.5781,0.3896s-0.2949,0.3574-0.3906,0.5791c-0.0957,0.2227-0.1426,0.46-0.1426,0.7129v1.5586
			h4.4902V71.5305z"/>
	</g>
	<g>
		<path class="st3" d="M73.7397,79.2209h-0.625l-3.7227-10.5h1.2617l2.7363,7.957l0.041,0.543l0.041-0.543l2.7285-7.957h1.2617
			L73.7397,79.2209z"/>
	</g>
	<g>
		<path class="st3" d="M85.521,79.2209l-0.6973-1.0459c-0.2871,0.376-0.6445,0.6787-1.0762,0.9072
			c-0.4297,0.2295-0.9023,0.3438-1.4141,0.3438h-0.3184c-0.4238,0-0.8242-0.0801-1.1992-0.2412
			c-0.377-0.1602-0.7051-0.3809-0.9844-0.6611c-0.2813-0.2803-0.502-0.6084-0.6621-0.9844s-0.2402-0.7754-0.2402-1.1992v-0.1035
			c0-0.4229,0.0801-0.8232,0.2402-1.1992s0.3809-0.7041,0.6621-0.9844c0.2793-0.2803,0.6074-0.501,0.9844-0.6611
			c0.375-0.1611,0.7754-0.2412,1.1992-0.2412h2.666v-1.6201c0-0.2529-0.0488-0.4902-0.1445-0.7129
			c-0.0957-0.2217-0.2246-0.415-0.3887-0.5791s-0.3574-0.2939-0.5801-0.3896s-0.459-0.1436-0.7129-0.1436h-0.7383
			c-0.252,0-0.4902,0.0479-0.7129,0.1436c-0.2207,0.0957-0.4141,0.2256-0.5781,0.3896s-0.2949,0.3574-0.3906,0.5791
			c-0.0957,0.2227-0.1426,0.46-0.1426,0.7129v0.3799l-1.2617-0.2051v-0.1035c0-0.4229,0.0801-0.8232,0.2402-1.1992
			c0.1621-0.376,0.3809-0.7041,0.6621-0.9844c0.2793-0.2803,0.6074-0.501,0.9844-0.6611c0.375-0.1611,0.7754-0.2412,1.1992-0.2412
			h0.7383c0.4238,0,0.8242,0.0801,1.2012,0.2412c0.375,0.1602,0.7031,0.3809,0.9844,0.6611c0.2793,0.2803,0.5,0.6084,0.6602,0.9844
			s0.2422,0.7764,0.2422,1.1992v7.6191H85.521z M84.6811,74.135h-2.666c-0.2539,0-0.4902,0.0479-0.7129,0.1436
			s-0.416,0.2275-0.5801,0.3945c-0.1641,0.168-0.293,0.3623-0.3887,0.585c-0.0957,0.2217-0.1445,0.46-0.1445,0.7129v0.4404
			c0,0.2529,0.0488,0.4902,0.1445,0.7129c0.0957,0.2217,0.2246,0.415,0.3887,0.5791s0.3574,0.2939,0.5801,0.3896
			s0.459,0.1436,0.7129,0.1436h0.8398c0.2539,0,0.4902-0.0479,0.7129-0.1436s0.416-0.2256,0.5801-0.3896s0.293-0.3574,0.3887-0.5791
			c0.0957-0.2227,0.1445-0.46,0.1445-0.7129V74.135z"/>
	</g>
	<g>
		<path class="st3" d="M88.8843,79.2209V64.5168h1.2617v14.7041H88.8843z"/>
	</g>
	<g>
		<path class="st3" d="M99.8608,77.5393c-0.1602,0.376-0.3809,0.7041-0.6602,0.9844c-0.2813,0.2803-0.6094,0.501-0.9844,0.6611
			c-0.377,0.1611-0.7773,0.2412-1.2012,0.2412h-0.8398c-0.4238,0-0.8242-0.0801-1.1992-0.2412
			c-0.377-0.1602-0.7051-0.3809-0.9844-0.6611c-0.2813-0.2803-0.502-0.6084-0.6621-0.9844s-0.2402-0.7754-0.2402-1.1992v-4.7383
			c0-0.4229,0.0801-0.8232,0.2402-1.1992s0.3809-0.7041,0.6621-0.9844c0.2793-0.2803,0.6074-0.501,0.9844-0.6611
			c0.375-0.1611,0.7754-0.2412,1.1992-0.2412h0.8398c0.4238,0,0.8242,0.0801,1.2012,0.2412
			c0.375,0.1602,0.7031,0.3809,0.9844,0.6611c0.2793,0.2803,0.5,0.6084,0.6602,0.9844s0.2422,0.7764,0.2422,1.1992v2.4717h-5.7539
			v2.3379c0,0.2529,0.0488,0.4902,0.1445,0.7129c0.0957,0.2217,0.2246,0.415,0.3887,0.5791s0.3574,0.2939,0.5801,0.3896
			s0.459,0.1436,0.7129,0.1436h0.8398c0.2539,0,0.4902-0.0479,0.7129-0.1436s0.416-0.2256,0.5801-0.3896s0.293-0.3574,0.3887-0.5791
			c0.0957-0.2227,0.1445-0.46,0.1445-0.7129v-0.6973l1.2617,0.2051V76.34C100.103,76.7639,100.021,77.1633,99.8608,77.5393z
			 M98.8413,71.5305c0-0.2529-0.0488-0.4902-0.1445-0.7129c-0.0957-0.2217-0.2246-0.415-0.3887-0.5791s-0.3574-0.2939-0.5801-0.3896
			s-0.459-0.1436-0.7129-0.1436h-0.8398c-0.2539,0-0.4902,0.0479-0.7129,0.1436s-0.416,0.2256-0.5801,0.3896
			s-0.293,0.3574-0.3887,0.5791c-0.0957,0.2227-0.1445,0.46-0.1445,0.7129v1.5586h4.4922V71.5305z"/>
	</g>
	<g>
		<path class="st3" d="M109.3979,77.5393c-0.1621,0.376-0.3828,0.7041-0.6621,0.9844c-0.2813,0.2803-0.6094,0.501-0.9844,0.6611
			c-0.377,0.1611-0.7754,0.2412-1.1992,0.2412h-0.8418c-0.4238,0-0.8242-0.0801-1.1992-0.2412
			c-0.377-0.1602-0.7051-0.3809-0.9844-0.6611c-0.2813-0.2803-0.5-0.6084-0.6621-0.9844c-0.1602-0.376-0.2402-0.7754-0.2402-1.1992
			v-4.7383c0-0.4229,0.0801-0.8232,0.2402-1.1992c0.1621-0.376,0.3809-0.7041,0.6621-0.9844
			c0.2793-0.2803,0.6074-0.501,0.9844-0.6611c0.375-0.1611,0.7754-0.2412,1.1992-0.2412h0.8418
			c0.4238,0,0.8223,0.0801,1.1992,0.2412c0.375,0.1602,0.7031,0.3809,0.9844,0.6611c0.2793,0.2803,0.5,0.6084,0.6621,0.9844
			c0.1602,0.376,0.2402,0.7764,0.2402,1.1992v0.4209l-1.2617,0.2051v-0.6973c0-0.2529-0.0469-0.4902-0.1426-0.7129
			c-0.0957-0.2217-0.2266-0.415-0.3906-0.5791s-0.3574-0.2939-0.5781-0.3896c-0.2227-0.0957-0.4609-0.1436-0.7129-0.1436h-0.8418
			c-0.252,0-0.4902,0.0479-0.7129,0.1436c-0.2207,0.0957-0.4141,0.2256-0.5781,0.3896s-0.2949,0.3574-0.3906,0.5791
			c-0.0957,0.2227-0.1426,0.46-0.1426,0.7129v4.8809c0,0.2529,0.0469,0.4902,0.1426,0.7129
			c0.0957,0.2217,0.2266,0.415,0.3906,0.5791s0.3574,0.2939,0.5781,0.3896c0.2227,0.0957,0.4609,0.1436,0.7129,0.1436h0.8418
			c0.252,0,0.4902-0.0479,0.7129-0.1436c0.2207-0.0957,0.4141-0.2256,0.5781-0.3896s0.2949-0.3574,0.3906-0.5791
			c0.0957-0.2227,0.1426-0.46,0.1426-0.7129v-0.6973l1.2617,0.2051V76.34C109.6382,76.7639,109.5581,77.1633,109.3979,77.5393z"/>
	</g>
	<g>
		<path class="st3" d="M118.9331,77.5393c-0.1602,0.376-0.3809,0.7041-0.6602,0.9844c-0.2813,0.2803-0.6094,0.501-0.9844,0.6611
			c-0.377,0.1611-0.7773,0.2412-1.2012,0.2412h-0.8398c-0.4238,0-0.8242-0.0801-1.1992-0.2412
			c-0.377-0.1602-0.7051-0.3809-0.9844-0.6611c-0.2813-0.2803-0.502-0.6084-0.6621-0.9844s-0.2402-0.7754-0.2402-1.1992v-4.7383
			c0-0.4229,0.0801-0.8232,0.2402-1.1992s0.3809-0.7041,0.6621-0.9844c0.2793-0.2803,0.6074-0.501,0.9844-0.6611
			c0.375-0.1611,0.7754-0.2412,1.1992-0.2412h0.8398c0.4238,0,0.8242,0.0801,1.2012,0.2412
			c0.375,0.1602,0.7031,0.3809,0.9844,0.6611c0.2793,0.2803,0.5,0.6084,0.6602,0.9844s0.2422,0.7764,0.2422,1.1992v2.4717h-5.7539
			v2.3379c0,0.2529,0.0488,0.4902,0.1445,0.7129c0.0957,0.2217,0.2246,0.415,0.3887,0.5791s0.3574,0.2939,0.5801,0.3896
			s0.459,0.1436,0.7129,0.1436h0.8398c0.2539,0,0.4902-0.0479,0.7129-0.1436s0.416-0.2256,0.5801-0.3896s0.293-0.3574,0.3887-0.5791
			c0.0957-0.2227,0.1445-0.46,0.1445-0.7129v-0.6973l1.2617,0.2051V76.34C119.1753,76.7639,119.0932,77.1633,118.9331,77.5393z
			 M117.9136,71.5305c0-0.2529-0.0488-0.4902-0.1445-0.7129c-0.0957-0.2217-0.2246-0.415-0.3887-0.5791
			s-0.3574-0.2939-0.5801-0.3896s-0.459-0.1436-0.7129-0.1436h-0.8398c-0.2539,0-0.4902,0.0479-0.7129,0.1436
			s-0.416,0.2256-0.5801,0.3896s-0.293,0.3574-0.3887,0.5791c-0.0957,0.2227-0.1445,0.46-0.1445,0.7129v1.5586h4.4922V71.5305z"/>
	</g>
	<g>
		<path class="st3" d="M133.7456,76.5549c0,0.4238-0.0859,0.8115-0.2578,1.1641c-0.1699,0.3516-0.4023,0.6543-0.6973,0.9072
			c-0.293,0.2529-0.6328,0.4492-1.0195,0.5898c-0.3867,0.1396-0.791,0.21-1.2148,0.21h-0.8418
			c-0.4238,0-0.8281-0.0801-1.2148-0.2412c-0.3867-0.1602-0.7246-0.3809-1.0156-0.6611c-0.2891-0.2803-0.5215-0.6084-0.6973-0.9844
			c-0.1738-0.376-0.2598-0.7754-0.2598-1.1992v-0.4209l1.2598-0.2051v0.6973c0,0.2529,0.0527,0.4902,0.1602,0.7129
			c0.1055,0.2217,0.2461,0.415,0.4258,0.5791c0.1758,0.1641,0.3809,0.2939,0.6152,0.3896c0.2305,0.0957,0.4746,0.1436,0.7266,0.1436
			h0.8418c0.252,0,0.4941-0.0371,0.7285-0.1133c0.2305-0.0742,0.4375-0.1826,0.6191-0.3223
			c0.1816-0.1406,0.3242-0.3096,0.4316-0.5078c0.1055-0.1982,0.1582-0.4238,0.1582-0.6768c0-0.376-0.082-0.6836-0.2461-0.9229
			s-0.3809-0.4395-0.6504-0.5996c-0.2715-0.1611-0.5781-0.2939-0.9238-0.4004c-0.3457-0.1055-0.6992-0.2119-1.0605-0.3174
			c-0.3633-0.1064-0.7168-0.2275-1.0625-0.3643c-0.3438-0.1367-0.6523-0.3164-0.9219-0.5381
			c-0.2695-0.2227-0.4863-0.501-0.6504-0.8359s-0.2461-0.752-0.2461-1.251c0-0.4238,0.082-0.8115,0.2461-1.1641
			c0.1641-0.3516,0.3848-0.6543,0.666-0.9072c0.2793-0.2529,0.6055-0.4492,0.9785-0.5898c0.373-0.1396,0.7715-0.21,1.1953-0.21
			h0.7383c0.4238,0,0.8223,0.0801,1.1992,0.2412c0.375,0.1602,0.7031,0.3809,0.9844,0.6611c0.2793,0.2803,0.5,0.6084,0.6621,0.9844
			c0.1602,0.376,0.2402,0.7764,0.2402,1.1992v0.041l-1.2617,0.2051v-0.3174c0-0.2529-0.0469-0.4902-0.1426-0.7129
			c-0.0957-0.2217-0.2266-0.415-0.3906-0.5791s-0.3574-0.2939-0.5781-0.3896c-0.2227-0.0957-0.4609-0.1436-0.7129-0.1436h-0.7383
			c-0.2539,0-0.4902,0.0381-0.7129,0.1133s-0.416,0.1826-0.5801,0.3223c-0.1641,0.1406-0.293,0.3096-0.3887,0.5078
			s-0.1445,0.4238-0.1445,0.6768c0,0.3623,0.082,0.6582,0.2461,0.8867c0.1641,0.2295,0.3809,0.4229,0.6523,0.5791
			c0.2695,0.1582,0.5762,0.2891,0.9219,0.3955c0.3457,0.1055,0.6973,0.2148,1.0566,0.3281
			c0.3594,0.1123,0.7109,0.2412,1.0566,0.3838c0.3438,0.1445,0.6523,0.3281,0.9219,0.5547
			c0.2695,0.2246,0.4883,0.5068,0.6523,0.8457C133.6636,75.6369,133.7456,76.0559,133.7456,76.5549z"/>
	</g>
	<g>
		<path class="st3" d="M142.937,77.5393c-0.1602,0.376-0.3809,0.7041-0.6602,0.9844c-0.2813,0.2803-0.6094,0.501-0.9844,0.6611
			c-0.377,0.1611-0.7773,0.2412-1.2012,0.2412h-0.8398c-0.4238,0-0.8242-0.0801-1.1992-0.2412
			c-0.377-0.1602-0.7051-0.3809-0.9844-0.6611c-0.2813-0.2803-0.502-0.6084-0.6621-0.9844s-0.2402-0.7754-0.2402-1.1992v-4.7383
			c0-0.4229,0.0801-0.8232,0.2402-1.1992s0.3809-0.7041,0.6621-0.9844c0.2793-0.2803,0.6074-0.501,0.9844-0.6611
			c0.375-0.1611,0.7754-0.2412,1.1992-0.2412h0.8398c0.4238,0,0.8242,0.0801,1.2012,0.2412
			c0.375,0.1602,0.7031,0.3809,0.9844,0.6611c0.2793,0.2803,0.5,0.6084,0.6602,0.9844s0.2422,0.7764,0.2422,1.1992V76.34
			C143.1792,76.7639,143.0972,77.1633,142.937,77.5393z M141.9175,71.5305c0-0.2529-0.0488-0.4902-0.1445-0.7129
			c-0.0957-0.2217-0.2246-0.415-0.3887-0.5791s-0.3574-0.2939-0.5801-0.3896s-0.459-0.1436-0.7129-0.1436h-0.8398
			c-0.2539,0-0.4902,0.0479-0.7129,0.1436s-0.416,0.2256-0.5801,0.3896s-0.293,0.3574-0.3887,0.5791
			c-0.0957,0.2227-0.1445,0.46-0.1445,0.7129v4.8809c0,0.2529,0.0488,0.4902,0.1445,0.7129
			c0.0957,0.2217,0.2246,0.415,0.3887,0.5791s0.3574,0.2939,0.5801,0.3896s0.459,0.1436,0.7129,0.1436h0.8398
			c0.2539,0,0.4902-0.0479,0.7129-0.1436s0.416-0.2256,0.5801-0.3896s0.293-0.3574,0.3887-0.5791
			c0.0957-0.2227,0.1445-0.46,0.1445-0.7129V71.5305z"/>
	</g>
	<g>
		<path class="st3" d="M152.4741,77.5393c-0.1602,0.376-0.3809,0.7041-0.6602,0.9844c-0.2813,0.2803-0.6094,0.501-0.9844,0.6611
			c-0.377,0.1611-0.7773,0.2412-1.2012,0.2412h-0.8398c-0.4238,0-0.8242-0.0801-1.1992-0.2412
			c-0.377-0.1602-0.7051-0.3809-0.9844-0.6611c-0.2813-0.2803-0.502-0.6084-0.6621-0.9844s-0.2402-0.7754-0.2402-1.1992V64.5168
			h1.2598v5.0859c0.2871-0.3418,0.6328-0.6084,1.0371-0.7998c0.4023-0.1914,0.8398-0.2871,1.3125-0.2871h0.3164
			c0.4238,0,0.8242,0.0801,1.2012,0.2412c0.375,0.1602,0.7031,0.3809,0.9844,0.6611c0.2793,0.2803,0.5,0.6084,0.6602,0.9844
			s0.2422,0.7764,0.2422,1.1992V76.34C152.7163,76.7639,152.6343,77.1633,152.4741,77.5393z M151.4546,71.5305
			c0-0.2529-0.0488-0.4902-0.1445-0.7129c-0.0957-0.2217-0.2246-0.415-0.3887-0.5791s-0.3574-0.2939-0.5801-0.3896
			s-0.459-0.1436-0.7129-0.1436h-0.8398c-0.2539,0-0.4902,0.0479-0.7129,0.1436s-0.416,0.2256-0.5801,0.3896
			s-0.293,0.3574-0.3887,0.5791c-0.0957,0.2227-0.1445,0.46-0.1445,0.7129v4.8809c0,0.2529,0.0488,0.4902,0.1445,0.7129
			c0.0957,0.2217,0.2246,0.415,0.3887,0.5791s0.3574,0.2939,0.5801,0.3896s0.459,0.1436,0.7129,0.1436h0.8398
			c0.2539,0,0.4902-0.0479,0.7129-0.1436s0.416-0.2256,0.5801-0.3896s0.293-0.3574,0.3887-0.5791
			c0.0957-0.2227,0.1445-0.46,0.1445-0.7129V71.5305z"/>
	</g>
	<g>
		<path class="st3" d="M158.3237,69.9201c-0.2539,0-0.4902,0.0488-0.7129,0.1445s-0.416,0.2246-0.5801,0.3887
			s-0.293,0.3574-0.3887,0.5801c-0.0957,0.2217-0.1445,0.46-0.1445,0.7129v7.4746h-1.2598v-10.5h0.4199l0.6875,1.0664
			c0.2871-0.3896,0.6465-0.6992,1.0801-0.9277c0.4355-0.2295,0.9082-0.3438,1.4219-0.3438h0.7383v1.4043H158.3237z"/>
	</g>
	<g>
		<path class="st3" d="M168.0386,77.5393c-0.1602,0.376-0.3809,0.7041-0.6602,0.9844c-0.2813,0.2803-0.6094,0.501-0.9844,0.6611
			c-0.377,0.1611-0.7773,0.2412-1.2012,0.2412h-0.8398c-0.4238,0-0.8242-0.0801-1.1992-0.2412
			c-0.377-0.1602-0.7051-0.3809-0.9844-0.6611c-0.2813-0.2803-0.502-0.6084-0.6621-0.9844s-0.2402-0.7754-0.2402-1.1992v-4.7383
			c0-0.4229,0.0801-0.8232,0.2402-1.1992s0.3809-0.7041,0.6621-0.9844c0.2793-0.2803,0.6074-0.501,0.9844-0.6611
			c0.375-0.1611,0.7754-0.2412,1.1992-0.2412h0.8398c0.4238,0,0.8242,0.0801,1.2012,0.2412
			c0.375,0.1602,0.7031,0.3809,0.9844,0.6611c0.2793,0.2803,0.5,0.6084,0.6602,0.9844s0.2422,0.7764,0.2422,1.1992v2.4717h-5.7539
			v2.3379c0,0.2529,0.0488,0.4902,0.1445,0.7129c0.0957,0.2217,0.2246,0.415,0.3887,0.5791s0.3574,0.2939,0.5801,0.3896
			s0.459,0.1436,0.7129,0.1436h0.8398c0.2539,0,0.4902-0.0479,0.7129-0.1436s0.416-0.2256,0.5801-0.3896s0.293-0.3574,0.3887-0.5791
			c0.0957-0.2227,0.1445-0.46,0.1445-0.7129v-0.6973l1.2617,0.2051V76.34C168.2807,76.7639,168.1987,77.1633,168.0386,77.5393z
			 M167.019,71.5305c0-0.2529-0.0488-0.4902-0.1445-0.7129c-0.0957-0.2217-0.2246-0.415-0.3887-0.5791s-0.3574-0.2939-0.5801-0.3896
			s-0.459-0.1436-0.7129-0.1436h-0.8398c-0.2539,0-0.4902,0.0479-0.7129,0.1436s-0.416,0.2256-0.5801,0.3896
			s-0.293,0.3574-0.3887,0.5791c-0.0957,0.2227-0.1445,0.46-0.1445,0.7129v1.5586h4.4922V71.5305z"/>
	</g>
	<g>
		<path class="st3" d="M176.0522,79.2209V64.5168h1.2617v14.7041H176.0522z"/>
	</g>
	<g>
		<path class="st3" d="M186.8237,77.5393c-0.1602,0.376-0.3809,0.7041-0.6602,0.9844c-0.2813,0.2803-0.6094,0.501-0.9844,0.6611
			c-0.377,0.1611-0.7773,0.2412-1.2012,0.2412h-0.8398c-0.4238,0-0.8242-0.0801-1.1992-0.2412
			c-0.377-0.1602-0.7051-0.3809-0.9844-0.6611c-0.2813-0.2803-0.502-0.6084-0.6621-0.9844s-0.2402-0.7754-0.2402-1.1992v-4.7383
			c0-0.4229,0.0801-0.8232,0.2402-1.1992s0.3809-0.7041,0.6621-0.9844c0.2793-0.2803,0.6074-0.501,0.9844-0.6611
			c0.375-0.1611,0.7754-0.2412,1.1992-0.2412h0.8398c0.4238,0,0.8242,0.0801,1.2012,0.2412
			c0.375,0.1602,0.7031,0.3809,0.9844,0.6611c0.2793,0.2803,0.5,0.6084,0.6602,0.9844s0.2422,0.7764,0.2422,1.1992V76.34
			C187.0659,76.7639,186.9839,77.1633,186.8237,77.5393z M185.8042,71.5305c0-0.2529-0.0488-0.4902-0.1445-0.7129
			c-0.0957-0.2217-0.2246-0.415-0.3887-0.5791s-0.3574-0.2939-0.5801-0.3896s-0.459-0.1436-0.7129-0.1436h-0.8398
			c-0.2539,0-0.4902,0.0479-0.7129,0.1436s-0.416,0.2256-0.5801,0.3896s-0.293,0.3574-0.3887,0.5791
			c-0.0957,0.2227-0.1445,0.46-0.1445,0.7129v4.8809c0,0.2529,0.0488,0.4902,0.1445,0.7129
			c0.0957,0.2217,0.2246,0.415,0.3887,0.5791s0.3574,0.2939,0.5801,0.3896s0.459,0.1436,0.7129,0.1436h0.8398
			c0.2539,0,0.4902-0.0479,0.7129-0.1436s0.416-0.2256,0.5801-0.3896s0.293-0.3574,0.3887-0.5791
			c0.0957-0.2227,0.1445-0.46,0.1445-0.7129V71.5305z"/>
	</g>
	<g>
		<path class="st3" d="M196.8081,76.5549c0,0.4238-0.0859,0.8115-0.2578,1.1641c-0.1699,0.3516-0.4023,0.6543-0.6973,0.9072
			c-0.293,0.2529-0.6328,0.4492-1.0195,0.5898c-0.3867,0.1396-0.791,0.21-1.2148,0.21h-0.8418
			c-0.4238,0-0.8281-0.0801-1.2148-0.2412c-0.3867-0.1602-0.7246-0.3809-1.0156-0.6611c-0.2891-0.2803-0.5215-0.6084-0.6973-0.9844
			c-0.1738-0.376-0.2598-0.7754-0.2598-1.1992v-0.4209l1.2598-0.2051v0.6973c0,0.2529,0.0527,0.4902,0.1602,0.7129
			c0.1055,0.2217,0.2461,0.415,0.4258,0.5791c0.1758,0.1641,0.3809,0.2939,0.6152,0.3896c0.2305,0.0957,0.4746,0.1436,0.7266,0.1436
			h0.8418c0.252,0,0.4941-0.0371,0.7285-0.1133c0.2305-0.0742,0.4375-0.1826,0.6191-0.3223
			c0.1816-0.1406,0.3242-0.3096,0.4316-0.5078c0.1055-0.1982,0.1582-0.4238,0.1582-0.6768c0-0.376-0.082-0.6836-0.2461-0.9229
			s-0.3809-0.4395-0.6504-0.5996c-0.2715-0.1611-0.5781-0.2939-0.9238-0.4004c-0.3457-0.1055-0.6992-0.2119-1.0605-0.3174
			c-0.3633-0.1064-0.7168-0.2275-1.0625-0.3643c-0.3438-0.1367-0.6523-0.3164-0.9219-0.5381
			c-0.2695-0.2227-0.4863-0.501-0.6504-0.8359s-0.2461-0.752-0.2461-1.251c0-0.4238,0.082-0.8115,0.2461-1.1641
			c0.1641-0.3516,0.3848-0.6543,0.666-0.9072c0.2793-0.2529,0.6055-0.4492,0.9785-0.5898c0.373-0.1396,0.7715-0.21,1.1953-0.21
			h0.7383c0.4238,0,0.8223,0.0801,1.1992,0.2412c0.375,0.1602,0.7031,0.3809,0.9844,0.6611c0.2793,0.2803,0.5,0.6084,0.6621,0.9844
			c0.1602,0.376,0.2402,0.7764,0.2402,1.1992v0.041l-1.2617,0.2051v-0.3174c0-0.2529-0.0469-0.4902-0.1426-0.7129
			c-0.0957-0.2217-0.2266-0.415-0.3906-0.5791s-0.3574-0.2939-0.5781-0.3896c-0.2227-0.0957-0.4609-0.1436-0.7129-0.1436h-0.7383
			c-0.2539,0-0.4902,0.0381-0.7129,0.1133s-0.416,0.1826-0.5801,0.3223c-0.1641,0.1406-0.293,0.3096-0.3887,0.5078
			s-0.1445,0.4238-0.1445,0.6768c0,0.3623,0.082,0.6582,0.2461,0.8867c0.1641,0.2295,0.3809,0.4229,0.6523,0.5791
			c0.2695,0.1582,0.5762,0.2891,0.9219,0.3955c0.3457,0.1055,0.6973,0.2148,1.0566,0.3281
			c0.3594,0.1123,0.7109,0.2412,1.0566,0.3838c0.3438,0.1445,0.6523,0.3281,0.9219,0.5547
			c0.2695,0.2246,0.4883,0.5068,0.6523,0.8457C196.7261,75.6369,196.8081,76.0559,196.8081,76.5549z"/>
	</g>
	<g>
		<path class="st3" d="M204.3745,66.1984v-1.6816h1.4648v1.6816H204.3745z M204.4761,79.2209v-10.5h1.2617v10.5H204.4761z"/>
	</g>
	<g>
		<path class="st3" d="M214.4331,79.2209v-7.6904c0-0.2529-0.0488-0.4902-0.1445-0.7129c-0.0957-0.2217-0.2246-0.415-0.3887-0.5791
			s-0.3574-0.2939-0.5801-0.3896s-0.459-0.1436-0.7129-0.1436h-0.8398c-0.2539,0-0.4902,0.0479-0.7129,0.1436
			s-0.416,0.2256-0.5801,0.3896s-0.293,0.3574-0.3887,0.5791c-0.0957,0.2227-0.1445,0.46-0.1445,0.7129v7.6904h-1.2598v-10.5h0.4199
			l0.6875,1.0664c0.2871-0.3896,0.6465-0.6992,1.0801-0.9277c0.4355-0.2295,0.9082-0.3438,1.4219-0.3438h0.3164
			c0.4238,0,0.8242,0.0801,1.2012,0.2412c0.375,0.1602,0.7031,0.3809,0.9844,0.6611c0.2793,0.2803,0.5,0.6084,0.6602,0.9844
			s0.2422,0.7764,0.2422,1.1992v7.6191H214.4331z"/>
	</g>
	<g>
		<path class="st3" d="M222.0425,79.2209c-0.3828,0-0.7441-0.0723-1.082-0.2148c-0.3379-0.1445-0.6328-0.3418-0.8828-0.5957
			c-0.248-0.252-0.4473-0.5459-0.5938-0.8809s-0.2207-0.6943-0.2207-1.0771v-6.5322h-1.8867v-1.1992h1.8867v-2.5225l1.2617-0.2051
			v2.7275h2.666v1.1992h-2.666v6.5938c0,0.2119,0.0391,0.4082,0.1172,0.5898c0.0781,0.1807,0.1855,0.3398,0.3242,0.4766
			c0.1348,0.1367,0.2969,0.2441,0.4805,0.3232c0.1855,0.0781,0.3828,0.1182,0.5957,0.1182h1.1484v1.1992H222.0425z"/>
	</g>
	<g>
		<path class="st3" d="M232.2807,77.5393c-0.1621,0.376-0.3828,0.7041-0.6621,0.9844c-0.2813,0.2803-0.6094,0.501-0.9844,0.6611
			c-0.377,0.1611-0.7754,0.2412-1.1992,0.2412h-0.8418c-0.4238,0-0.8242-0.0801-1.1992-0.2412
			c-0.377-0.1602-0.7051-0.3809-0.9844-0.6611c-0.2813-0.2803-0.5-0.6084-0.6621-0.9844c-0.1602-0.376-0.2402-0.7754-0.2402-1.1992
			v-4.7383c0-0.4229,0.0801-0.8232,0.2402-1.1992c0.1621-0.376,0.3809-0.7041,0.6621-0.9844
			c0.2793-0.2803,0.6074-0.501,0.9844-0.6611c0.375-0.1611,0.7754-0.2412,1.1992-0.2412h0.8418
			c0.4238,0,0.8223,0.0801,1.1992,0.2412c0.375,0.1602,0.7031,0.3809,0.9844,0.6611c0.2793,0.2803,0.5,0.6084,0.6621,0.9844
			c0.1602,0.376,0.2402,0.7764,0.2402,1.1992v2.4717h-5.752v2.3379c0,0.2529,0.0469,0.4902,0.1426,0.7129
			c0.0957,0.2217,0.2266,0.415,0.3906,0.5791s0.3574,0.2939,0.5781,0.3896c0.2227,0.0957,0.4609,0.1436,0.7129,0.1436h0.8418
			c0.252,0,0.4902-0.0479,0.7129-0.1436c0.2207-0.0957,0.4141-0.2256,0.5781-0.3896s0.2949-0.3574,0.3906-0.5791
			c0.0957-0.2227,0.1426-0.46,0.1426-0.7129v-0.6973l1.2617,0.2051V76.34C232.521,76.7639,232.4409,77.1633,232.2807,77.5393z
			 M231.2593,71.5305c0-0.2529-0.0469-0.4902-0.1426-0.7129c-0.0957-0.2217-0.2266-0.415-0.3906-0.5791
			s-0.3574-0.2939-0.5781-0.3896c-0.2227-0.0957-0.4609-0.1436-0.7129-0.1436h-0.8418c-0.252,0-0.4902,0.0479-0.7129,0.1436
			c-0.2207,0.0957-0.4141,0.2256-0.5781,0.3896s-0.2949,0.3574-0.3906,0.5791c-0.0957,0.2227-0.1426,0.46-0.1426,0.7129v1.5586
			h4.4902V71.5305z"/>
	</g>
	<g>
		<path class="st3" d="M238.1304,69.9201c-0.2539,0-0.4902,0.0488-0.7129,0.1445s-0.416,0.2246-0.5801,0.3887
			s-0.293,0.3574-0.3887,0.5801c-0.0957,0.2217-0.1445,0.46-0.1445,0.7129v7.4746h-1.2598v-10.5h0.4199l0.6875,1.0664
			c0.2871-0.3896,0.6465-0.6992,1.0801-0.9277c0.4355-0.2295,0.9082-0.3438,1.4219-0.3438h0.7383v1.4043H238.1304z"/>
	</g>
	<g>
		<path class="st3" d="M247.8452,77.5393c-0.1602,0.376-0.3809,0.7041-0.6602,0.9844c-0.2813,0.2803-0.6094,0.501-0.9844,0.6611
			c-0.377,0.1611-0.7773,0.2412-1.2012,0.2412h-0.8398c-0.4238,0-0.8242-0.0801-1.1992-0.2412
			c-0.377-0.1602-0.7051-0.3809-0.9844-0.6611c-0.2813-0.2803-0.502-0.6084-0.6621-0.9844s-0.2402-0.7754-0.2402-1.1992v-4.7383
			c0-0.4229,0.0801-0.8232,0.2402-1.1992s0.3809-0.7041,0.6621-0.9844c0.2793-0.2803,0.6074-0.501,0.9844-0.6611
			c0.375-0.1611,0.7754-0.2412,1.1992-0.2412h0.8398c0.4238,0,0.8242,0.0801,1.2012,0.2412
			c0.375,0.1602,0.7031,0.3809,0.9844,0.6611c0.2793,0.2803,0.5,0.6084,0.6602,0.9844s0.2422,0.7764,0.2422,1.1992v2.4717h-5.7539
			v2.3379c0,0.2529,0.0488,0.4902,0.1445,0.7129c0.0957,0.2217,0.2246,0.415,0.3887,0.5791s0.3574,0.2939,0.5801,0.3896
			s0.459,0.1436,0.7129,0.1436h0.8398c0.2539,0,0.4902-0.0479,0.7129-0.1436s0.416-0.2256,0.5801-0.3896s0.293-0.3574,0.3887-0.5791
			c0.0957-0.2227,0.1445-0.46,0.1445-0.7129v-0.6973l1.2617,0.2051V76.34C248.0874,76.7639,248.0054,77.1633,247.8452,77.5393z
			 M246.8257,71.5305c0-0.2529-0.0488-0.4902-0.1445-0.7129c-0.0957-0.2217-0.2246-0.415-0.3887-0.5791
			s-0.3574-0.2939-0.5801-0.3896s-0.459-0.1436-0.7129-0.1436h-0.8398c-0.2539,0-0.4902,0.0479-0.7129,0.1436
			s-0.416,0.2256-0.5801,0.3896s-0.293,0.3574-0.3887,0.5791c-0.0957,0.2227-0.1445,0.46-0.1445,0.7129v1.5586h4.4922V71.5305z"/>
	</g>
	<g>
		<path class="st3" d="M257.8276,76.5549c0,0.4238-0.0859,0.8115-0.2559,1.1641c-0.1719,0.3516-0.4043,0.6543-0.6973,0.9072
			c-0.2949,0.2529-0.6348,0.4492-1.0215,0.5898c-0.3848,0.1396-0.791,0.21-1.2148,0.21h-0.8398
			c-0.4238,0-0.8301-0.0801-1.2148-0.2412c-0.3867-0.1602-0.7246-0.3809-1.0156-0.6611s-0.5234-0.6084-0.6973-0.9844
			s-0.2617-0.7754-0.2617-1.1992v-0.4209l1.2617-0.2051v0.6973c0,0.2529,0.0527,0.4902,0.1582,0.7129
			c0.1055,0.2217,0.248,0.415,0.4258,0.5791s0.3828,0.2939,0.6152,0.3896s0.4746,0.1436,0.7285,0.1436h0.8398
			c0.2539,0,0.4961-0.0371,0.7285-0.1133c0.2324-0.0742,0.4395-0.1826,0.6211-0.3223c0.1797-0.1406,0.3242-0.3096,0.4297-0.5078
			s0.1582-0.4238,0.1582-0.6768c0-0.376-0.082-0.6836-0.2461-0.9229s-0.3808-0.4395-0.6504-0.5996
			c-0.2695-0.1611-0.5781-0.2939-0.9219-0.4004c-0.3457-0.1055-0.6992-0.2119-1.0625-0.3174
			c-0.3613-0.1064-0.7148-0.2275-1.0605-0.3643s-0.6523-0.3164-0.9238-0.5381c-0.2695-0.2227-0.4863-0.501-0.6504-0.8359
			s-0.2461-0.752-0.2461-1.251c0-0.4238,0.082-0.8115,0.2461-1.1641c0.1641-0.3516,0.3867-0.6543,0.666-0.9072
			c0.2813-0.2529,0.6074-0.4492,0.9805-0.5898c0.3711-0.1396,0.7695-0.21,1.1934-0.21h0.7383c0.4238,0,0.8242,0.0801,1.1992,0.2412
			c0.3769,0.1602,0.7051,0.3809,0.9844,0.6611c0.2813,0.2803,0.502,0.6084,0.6621,0.9844s0.2402,0.7764,0.2402,1.1992v0.041
			l-1.2598,0.2051v-0.3174c0-0.2529-0.0488-0.4902-0.1445-0.7129c-0.0957-0.2217-0.2246-0.415-0.3887-0.5791
			c-0.1641-0.1641-0.3574-0.2939-0.5801-0.3896s-0.459-0.1436-0.7129-0.1436h-0.7383c-0.252,0-0.4902,0.0381-0.7129,0.1133
			c-0.2207,0.0752-0.4141,0.1826-0.5781,0.3223c-0.1641,0.1406-0.2949,0.3096-0.3906,0.5078s-0.1426,0.4238-0.1426,0.6768
			c0,0.3623,0.082,0.6582,0.2461,0.8867c0.1641,0.2295,0.3809,0.4229,0.6504,0.5791c0.2695,0.1582,0.5781,0.2891,0.9238,0.3955
			c0.3438,0.1055,0.6973,0.2148,1.0547,0.3281c0.3594,0.1123,0.7109,0.2412,1.0566,0.3838
			c0.3457,0.1445,0.6523,0.3281,0.9238,0.5547c0.2695,0.2246,0.4863,0.5068,0.6504,0.8457
			C257.7456,75.6369,257.8276,76.0559,257.8276,76.5549z"/>
	</g>
	<g>
		<path class="st3" d="M267.021,77.5393c-0.1621,0.376-0.3828,0.7041-0.6621,0.9844c-0.2813,0.2803-0.6094,0.501-0.9844,0.6611
			c-0.377,0.1611-0.7754,0.2412-1.1992,0.2412h-0.8418c-0.4238,0-0.8242-0.0801-1.1992-0.2412
			c-0.377-0.1602-0.7051-0.3809-0.9844-0.6611c-0.2813-0.2803-0.5-0.6084-0.6621-0.9844c-0.1602-0.376-0.2402-0.7754-0.2402-1.1992
			v-4.7383c0-0.4229,0.0801-0.8232,0.2402-1.1992c0.1621-0.376,0.3809-0.7041,0.6621-0.9844
			c0.2793-0.2803,0.6074-0.501,0.9844-0.6611c0.375-0.1611,0.7754-0.2412,1.1992-0.2412h0.8418
			c0.4238,0,0.8223,0.0801,1.1992,0.2412c0.375,0.1602,0.7031,0.3809,0.9844,0.6611c0.2793,0.2803,0.5,0.6084,0.6621,0.9844
			c0.1602,0.376,0.2402,0.7764,0.2402,1.1992v2.4717h-5.752v2.3379c0,0.2529,0.0469,0.4902,0.1426,0.7129
			c0.0957,0.2217,0.2266,0.415,0.3906,0.5791s0.3574,0.2939,0.5781,0.3896c0.2227,0.0957,0.4609,0.1436,0.7129,0.1436h0.8418
			c0.252,0,0.4902-0.0479,0.7129-0.1436c0.2207-0.0957,0.4141-0.2256,0.5781-0.3896s0.2949-0.3574,0.3906-0.5791
			c0.0957-0.2227,0.1426-0.46,0.1426-0.7129v-0.6973l1.2617,0.2051V76.34C267.2612,76.7639,267.1811,77.1633,267.021,77.5393z
			 M265.9995,71.5305c0-0.2529-0.0469-0.4902-0.1426-0.7129c-0.0957-0.2217-0.2266-0.415-0.3906-0.5791
			s-0.3574-0.2939-0.5781-0.3896c-0.2227-0.0957-0.4609-0.1436-0.7129-0.1436h-0.8418c-0.252,0-0.4902,0.0479-0.7129,0.1436
			c-0.2207,0.0957-0.4141,0.2256-0.5781,0.3896s-0.2949,0.3574-0.3906,0.5791c-0.0957,0.2227-0.1426,0.46-0.1426,0.7129v1.5586
			h4.4902V71.5305z"/>
	</g>
	<g>
		<path class="st3" d="M277.0034,76.5549c0,0.4238-0.0859,0.8115-0.2578,1.1641c-0.1699,0.3516-0.4023,0.6543-0.6973,0.9072
			c-0.293,0.2529-0.6328,0.4492-1.0195,0.5898c-0.3867,0.1396-0.791,0.21-1.2148,0.21h-0.8418
			c-0.4238,0-0.8281-0.0801-1.2148-0.2412c-0.3867-0.1602-0.7246-0.3809-1.0156-0.6611c-0.2891-0.2803-0.5215-0.6084-0.6973-0.9844
			c-0.1738-0.376-0.2598-0.7754-0.2598-1.1992v-0.4209l1.2598-0.2051v0.6973c0,0.2529,0.0527,0.4902,0.1602,0.7129
			c0.1055,0.2217,0.2461,0.415,0.4258,0.5791c0.1758,0.1641,0.3809,0.2939,0.6152,0.3896c0.2305,0.0957,0.4746,0.1436,0.7266,0.1436
			h0.8418c0.252,0,0.4941-0.0371,0.7285-0.1133c0.2305-0.0742,0.4375-0.1826,0.6191-0.3223
			c0.1816-0.1406,0.3242-0.3096,0.4316-0.5078c0.1055-0.1982,0.1582-0.4238,0.1582-0.6768c0-0.376-0.082-0.6836-0.2461-0.9229
			s-0.3809-0.4395-0.6504-0.5996c-0.2715-0.1611-0.5781-0.2939-0.9238-0.4004c-0.3457-0.1055-0.6992-0.2119-1.0605-0.3174
			c-0.3633-0.1064-0.7168-0.2275-1.0625-0.3643c-0.3438-0.1367-0.6523-0.3164-0.9219-0.5381
			c-0.2695-0.2227-0.4863-0.501-0.6504-0.8359s-0.2461-0.752-0.2461-1.251c0-0.4238,0.082-0.8115,0.2461-1.1641
			c0.1641-0.3516,0.3848-0.6543,0.666-0.9072c0.2793-0.2529,0.6055-0.4492,0.9785-0.5898c0.373-0.1396,0.7715-0.21,1.1953-0.21
			h0.7383c0.4238,0,0.8223,0.0801,1.1992,0.2412c0.375,0.1602,0.7031,0.3809,0.9844,0.6611c0.2793,0.2803,0.5,0.6084,0.6621,0.9844
			c0.1602,0.376,0.2402,0.7764,0.2402,1.1992v0.041l-1.2617,0.2051v-0.3174c0-0.2529-0.0469-0.4902-0.1426-0.7129
			c-0.0957-0.2217-0.2266-0.415-0.3906-0.5791s-0.3574-0.2939-0.5781-0.3896c-0.2227-0.0957-0.4609-0.1436-0.7129-0.1436h-0.7383
			c-0.2539,0-0.4902,0.0381-0.7129,0.1133s-0.416,0.1826-0.5801,0.3223c-0.1641,0.1406-0.293,0.3096-0.3887,0.5078
			s-0.1445,0.4238-0.1445,0.6768c0,0.3623,0.082,0.6582,0.2461,0.8867c0.1641,0.2295,0.3809,0.4229,0.6523,0.5791
			c0.2695,0.1582,0.5762,0.2891,0.9219,0.3955c0.3457,0.1055,0.6973,0.2148,1.0566,0.3281
			c0.3594,0.1123,0.7109,0.2412,1.0566,0.3838c0.3438,0.1445,0.6523,0.3281,0.9219,0.5547
			c0.2695,0.2246,0.4883,0.5068,0.6523,0.8457C276.9214,75.6369,277.0034,76.0559,277.0034,76.5549z"/>
	</g>
	<g>
		<path class="st3" d="M291.0249,77.5393c-0.1602,0.376-0.3809,0.7041-0.6602,0.9844c-0.2813,0.2803-0.6094,0.501-0.9844,0.6611
			c-0.377,0.1611-0.7773,0.2412-1.2012,0.2412h-0.3164c-0.4727,0-0.9102-0.0957-1.3125-0.2871
			c-0.4043-0.1914-0.75-0.458-1.0371-0.7998v5.0859h-1.2598V68.7209h0.4199l0.6875,1.0664
			c0.2871-0.3896,0.6465-0.6992,1.0801-0.9277c0.4355-0.2295,0.9082-0.3438,1.4219-0.3438h0.3164
			c0.4238,0,0.8242,0.0801,1.2012,0.2412c0.375,0.1602,0.7031,0.3809,0.9844,0.6611c0.2793,0.2803,0.5,0.6084,0.6602,0.9844
			s0.2422,0.7764,0.2422,1.1992V76.34C291.2671,76.7639,291.185,77.1633,291.0249,77.5393z M290.0053,71.5305
			c0-0.2529-0.0488-0.4902-0.1445-0.7129c-0.0957-0.2217-0.2246-0.415-0.3887-0.5791s-0.3574-0.2939-0.5801-0.3896
			s-0.459-0.1436-0.7129-0.1436h-0.8398c-0.2539,0-0.4902,0.0479-0.7129,0.1436s-0.416,0.2256-0.5801,0.3896
			s-0.293,0.3574-0.3887,0.5791c-0.0957,0.2227-0.1445,0.46-0.1445,0.7129v4.8809c0,0.2529,0.0488,0.4902,0.1445,0.7129
			c0.0957,0.2217,0.2246,0.415,0.3887,0.5791s0.3574,0.2939,0.5801,0.3896s0.459,0.1436,0.7129,0.1436h0.8398
			c0.2539,0,0.4902-0.0479,0.7129-0.1436s0.416-0.2256,0.5801-0.3896s0.293-0.3574,0.3887-0.5791
			c0.0957-0.2227,0.1445-0.46,0.1445-0.7129V71.5305z"/>
	</g>
	<g>
		<path class="st3" d="M300.3803,79.2209l-0.6973-1.0459c-0.2871,0.376-0.6445,0.6787-1.0762,0.9072
			c-0.4297,0.2295-0.9023,0.3438-1.4141,0.3438h-0.3184c-0.4238,0-0.8242-0.0801-1.1992-0.2412
			c-0.377-0.1602-0.7051-0.3809-0.9844-0.6611c-0.2813-0.2803-0.502-0.6084-0.6621-0.9844s-0.2402-0.7754-0.2402-1.1992v-0.1035
			c0-0.4229,0.0801-0.8232,0.2402-1.1992s0.3809-0.7041,0.6621-0.9844c0.2793-0.2803,0.6074-0.501,0.9844-0.6611
			c0.375-0.1611,0.7754-0.2412,1.1992-0.2412h2.666v-1.6201c0-0.2529-0.0488-0.4902-0.1445-0.7129
			c-0.0957-0.2217-0.2246-0.415-0.3887-0.5791s-0.3574-0.2939-0.5801-0.3896s-0.459-0.1436-0.7129-0.1436h-0.7383
			c-0.252,0-0.4902,0.0479-0.7129,0.1436c-0.2207,0.0957-0.4141,0.2256-0.5781,0.3896s-0.2949,0.3574-0.3906,0.5791
			c-0.0957,0.2227-0.1426,0.46-0.1426,0.7129v0.3799l-1.2617-0.2051v-0.1035c0-0.4229,0.0801-0.8232,0.2402-1.1992
			c0.1621-0.376,0.3809-0.7041,0.6621-0.9844c0.2793-0.2803,0.6074-0.501,0.9844-0.6611c0.375-0.1611,0.7754-0.2412,1.1992-0.2412
			h0.7383c0.4238,0,0.8242,0.0801,1.2012,0.2412c0.375,0.1602,0.7031,0.3809,0.9844,0.6611c0.2793,0.2803,0.5,0.6084,0.6602,0.9844
			s0.2422,0.7764,0.2422,1.1992v7.6191H300.3803z M299.5405,74.135h-2.666c-0.2539,0-0.4902,0.0479-0.7129,0.1436
			s-0.416,0.2275-0.5801,0.3945c-0.1641,0.168-0.293,0.3623-0.3887,0.585c-0.0957,0.2217-0.1445,0.46-0.1445,0.7129v0.4404
			c0,0.2529,0.0488,0.4902,0.1445,0.7129c0.0957,0.2217,0.2246,0.415,0.3887,0.5791s0.3574,0.2939,0.5801,0.3896
			s0.459,0.1436,0.7129,0.1436h0.8398c0.2539,0,0.4902-0.0479,0.7129-0.1436s0.416-0.2256,0.5801-0.3896s0.293-0.3574,0.3887-0.5791
			c0.0957-0.2227,0.1445-0.46,0.1445-0.7129V74.135z"/>
	</g>
	<g>
		<path class="st3" d="M306.4116,69.9201c-0.2539,0-0.4902,0.0488-0.7129,0.1445s-0.416,0.2246-0.5801,0.3887
			s-0.293,0.3574-0.3887,0.5801c-0.0957,0.2217-0.1445,0.46-0.1445,0.7129v7.4746h-1.2598v-10.5h0.4199l0.6875,1.0664
			c0.2871-0.3896,0.6465-0.6992,1.0801-0.9277c0.4355-0.2295,0.9082-0.3438,1.4219-0.3438h0.7383v1.4043H306.4116z"/>
	</g>
	<g>
		<path class="st3" d="M313.1792,79.2209c-0.3828,0-0.7441-0.0723-1.082-0.2148c-0.3379-0.1445-0.6328-0.3418-0.8828-0.5957
			c-0.248-0.252-0.4473-0.5459-0.5938-0.8809s-0.2207-0.6943-0.2207-1.0771v-6.5322h-1.8867v-1.1992h1.8867v-2.5225l1.2617-0.2051
			v2.7275h2.666v1.1992h-2.666v6.5938c0,0.2119,0.0391,0.4082,0.1172,0.5898c0.0781,0.1807,0.1855,0.3398,0.3242,0.4766
			c0.1348,0.1367,0.2969,0.2441,0.4805,0.3232c0.1855,0.0781,0.3828,0.1182,0.5957,0.1182h1.1484v1.1992H313.1792z"/>
	</g>
	<g>
		<path class="st3" d="M316.9624,66.1984v-1.6816h1.4648v1.6816H316.9624z M317.0639,79.2209v-10.5h1.2617v10.5H317.0639z"/>
	</g>
	<g>
		<path class="st3" d="M328.0405,77.5393c-0.1602,0.376-0.3809,0.7041-0.6602,0.9844c-0.2813,0.2803-0.6094,0.501-0.9844,0.6611
			c-0.377,0.1611-0.7773,0.2412-1.2012,0.2412h-0.8398c-0.4238,0-0.8242-0.0801-1.1992-0.2412
			c-0.377-0.1602-0.7051-0.3809-0.9844-0.6611c-0.2813-0.2803-0.502-0.6084-0.6621-0.9844s-0.2402-0.7754-0.2402-1.1992v-4.7383
			c0-0.4229,0.0801-0.8232,0.2402-1.1992s0.3809-0.7041,0.6621-0.9844c0.2793-0.2803,0.6074-0.501,0.9844-0.6611
			c0.375-0.1611,0.7754-0.2412,1.1992-0.2412h0.8398c0.4238,0,0.8242,0.0801,1.2012,0.2412
			c0.375,0.1602,0.7031,0.3809,0.9844,0.6611c0.2793,0.2803,0.5,0.6084,0.6602,0.9844s0.2422,0.7764,0.2422,1.1992v0.4209
			l-1.2617,0.2051v-0.6973c0-0.2529-0.0488-0.4902-0.1445-0.7129c-0.0957-0.2217-0.2246-0.415-0.3887-0.5791
			s-0.3574-0.2939-0.5801-0.3896s-0.459-0.1436-0.7129-0.1436h-0.8398c-0.2539,0-0.4902,0.0479-0.7129,0.1436
			s-0.416,0.2256-0.5801,0.3896s-0.293,0.3574-0.3887,0.5791c-0.0957,0.2227-0.1445,0.46-0.1445,0.7129v4.8809
			c0,0.2529,0.0488,0.4902,0.1445,0.7129c0.0957,0.2217,0.2246,0.415,0.3887,0.5791s0.3574,0.2939,0.5801,0.3896
			s0.459,0.1436,0.7129,0.1436h0.8398c0.2539,0,0.4902-0.0479,0.7129-0.1436s0.416-0.2256,0.5801-0.3896s0.293-0.3574,0.3887-0.5791
			c0.0957-0.2227,0.1445-0.46,0.1445-0.7129v-0.6973l1.2617,0.2051V76.34C328.2827,76.7639,328.2007,77.1633,328.0405,77.5393z"/>
	</g>
	<g>
		<path class="st3" d="M337.3979,79.2209l-0.6973-1.0664c-0.2871,0.3896-0.6445,0.6992-1.0762,0.9277
			c-0.4297,0.2295-0.9023,0.3438-1.4141,0.3438h-0.3184c-0.4238,0-0.8242-0.0801-1.1992-0.2412
			c-0.377-0.1602-0.7051-0.3809-0.9844-0.6611c-0.2813-0.2803-0.502-0.6084-0.6621-0.9844s-0.2402-0.7754-0.2402-1.1992v-7.6191
			h1.2598v7.6904c0,0.2529,0.0488,0.4902,0.1445,0.7129c0.0957,0.2217,0.2246,0.415,0.3887,0.5791s0.3574,0.2939,0.5801,0.3896
			s0.459,0.1436,0.7129,0.1436h0.8398c0.2539,0,0.4902-0.0479,0.7129-0.1436s0.416-0.2256,0.5801-0.3896s0.293-0.3574,0.3887-0.5791
			c0.0957-0.2227,0.1445-0.46,0.1445-0.7129v-7.6904h1.2617v10.5H337.3979z"/>
	</g>
	<g>
		<path class="st3" d="M340.7612,79.2209V64.5168h1.2617v14.7041H340.7612z"/>
	</g>
	<g>
		<path class="st3" d="M351.5581,79.2209l-0.6973-1.0459c-0.2871,0.376-0.6445,0.6787-1.0762,0.9072
			c-0.4297,0.2295-0.9023,0.3438-1.4141,0.3438h-0.3184c-0.4238,0-0.8242-0.0801-1.1992-0.2412
			c-0.377-0.1602-0.7051-0.3809-0.9844-0.6611c-0.2813-0.2803-0.502-0.6084-0.6621-0.9844s-0.2402-0.7754-0.2402-1.1992v-0.1035
			c0-0.4229,0.0801-0.8232,0.2402-1.1992s0.3809-0.7041,0.6621-0.9844c0.2793-0.2803,0.6074-0.501,0.9844-0.6611
			c0.375-0.1611,0.7754-0.2412,1.1992-0.2412h2.666v-1.6201c0-0.2529-0.0488-0.4902-0.1445-0.7129
			c-0.0957-0.2217-0.2246-0.415-0.3887-0.5791s-0.3574-0.2939-0.5801-0.3896s-0.459-0.1436-0.7129-0.1436h-0.7383
			c-0.252,0-0.4902,0.0479-0.7129,0.1436c-0.2207,0.0957-0.4141,0.2256-0.5781,0.3896s-0.2949,0.3574-0.3906,0.5791
			c-0.0957,0.2227-0.1426,0.46-0.1426,0.7129v0.3799l-1.2617-0.2051v-0.1035c0-0.4229,0.0801-0.8232,0.2402-1.1992
			c0.1621-0.376,0.3809-0.7041,0.6621-0.9844c0.2793-0.2803,0.6074-0.501,0.9844-0.6611c0.375-0.1611,0.7754-0.2412,1.1992-0.2412
			h0.7383c0.4238,0,0.8242,0.0801,1.2012,0.2412c0.375,0.1602,0.7031,0.3809,0.9844,0.6611c0.2793,0.2803,0.5,0.6084,0.6602,0.9844
			s0.2422,0.7764,0.2422,1.1992v7.6191H351.5581z M350.7182,74.135h-2.666c-0.2539,0-0.4902,0.0479-0.7129,0.1436
			s-0.416,0.2275-0.5801,0.3945c-0.1641,0.168-0.293,0.3623-0.3887,0.585c-0.0957,0.2217-0.1445,0.46-0.1445,0.7129v0.4404
			c0,0.2529,0.0488,0.4902,0.1445,0.7129c0.0957,0.2217,0.2246,0.415,0.3887,0.5791s0.3574,0.2939,0.5801,0.3896
			s0.459,0.1436,0.7129,0.1436h0.8398c0.2539,0,0.4902-0.0479,0.7129-0.1436s0.416-0.2256,0.5801-0.3896s0.293-0.3574,0.3887-0.5791
			c0.0957-0.2227,0.1445-0.46,0.1445-0.7129V74.135z"/>
	</g>
	<g>
		<path class="st3" d="M357.5874,69.9201c-0.252,0-0.4902,0.0488-0.7129,0.1445c-0.2207,0.0957-0.4141,0.2246-0.5781,0.3887
			s-0.2949,0.3574-0.3906,0.5801c-0.0957,0.2217-0.1426,0.46-0.1426,0.7129v7.4746h-1.2617v-10.5h0.4199l0.6875,1.0664
			c0.2871-0.3896,0.6484-0.6992,1.082-0.9277c0.4336-0.2295,0.9063-0.3438,1.4199-0.3438h0.7383v1.4043H357.5874z"/>
	</g>
	<g>
		<path class="st3" d="M367.3042,77.5393c-0.1621,0.376-0.3828,0.7041-0.6621,0.9844c-0.2813,0.2803-0.6094,0.501-0.9844,0.6611
			c-0.377,0.1611-0.7754,0.2412-1.1992,0.2412h-0.8418c-0.4238,0-0.8242-0.0801-1.1992-0.2412
			c-0.377-0.1602-0.7051-0.3809-0.9844-0.6611c-0.2813-0.2803-0.5-0.6084-0.6621-0.9844c-0.1602-0.376-0.2402-0.7754-0.2402-1.1992
			v-4.7383c0-0.4229,0.0801-0.8232,0.2402-1.1992c0.1621-0.376,0.3809-0.7041,0.6621-0.9844
			c0.2793-0.2803,0.6074-0.501,0.9844-0.6611c0.375-0.1611,0.7754-0.2412,1.1992-0.2412h0.8418
			c0.4238,0,0.8223,0.0801,1.1992,0.2412c0.375,0.1602,0.7031,0.3809,0.9844,0.6611c0.2793,0.2803,0.5,0.6084,0.6621,0.9844
			c0.1602,0.376,0.2402,0.7764,0.2402,1.1992v2.4717h-5.752v2.3379c0,0.2529,0.0469,0.4902,0.1426,0.7129
			c0.0957,0.2217,0.2266,0.415,0.3906,0.5791s0.3574,0.2939,0.5781,0.3896c0.2227,0.0957,0.4609,0.1436,0.7129,0.1436h0.8418
			c0.252,0,0.4902-0.0479,0.7129-0.1436c0.2207-0.0957,0.4141-0.2256,0.5781-0.3896s0.2949-0.3574,0.3906-0.5791
			c0.0957-0.2227,0.1426-0.46,0.1426-0.7129v-0.6973l1.2617,0.2051V76.34C367.5444,76.7639,367.4643,77.1633,367.3042,77.5393z
			 M366.2827,71.5305c0-0.2529-0.0469-0.4902-0.1426-0.7129c-0.0957-0.2217-0.2266-0.415-0.3906-0.5791
			s-0.3574-0.2939-0.5781-0.3896c-0.2227-0.0957-0.4609-0.1436-0.7129-0.1436h-0.8418c-0.252,0-0.4902,0.0479-0.7129,0.1436
			c-0.2207,0.0957-0.4141,0.2256-0.5781,0.3896s-0.2949,0.3574-0.3906,0.5791c-0.0957,0.2227-0.1426,0.46-0.1426,0.7129v1.5586
			h4.4902V71.5305z"/>
	</g>
	<g>
		<path class="st3" d="M377.2866,76.5549c0,0.4238-0.0859,0.8115-0.2578,1.1641c-0.1699,0.3516-0.4023,0.6543-0.6973,0.9072
			c-0.293,0.2529-0.6328,0.4492-1.0195,0.5898c-0.3867,0.1396-0.791,0.21-1.2148,0.21h-0.8418
			c-0.4238,0-0.8281-0.0801-1.2148-0.2412c-0.3867-0.1602-0.7246-0.3809-1.0156-0.6611c-0.2891-0.2803-0.5215-0.6084-0.6973-0.9844
			c-0.1738-0.376-0.2598-0.7754-0.2598-1.1992v-0.4209l1.2598-0.2051v0.6973c0,0.2529,0.0527,0.4902,0.1602,0.7129
			c0.1055,0.2217,0.2461,0.415,0.4258,0.5791c0.1758,0.1641,0.3809,0.2939,0.6152,0.3896c0.2305,0.0957,0.4746,0.1436,0.7266,0.1436
			h0.8418c0.252,0,0.4941-0.0371,0.7285-0.1133c0.2305-0.0742,0.4375-0.1826,0.6191-0.3223
			c0.1816-0.1406,0.3242-0.3096,0.4316-0.5078c0.1055-0.1982,0.1582-0.4238,0.1582-0.6768c0-0.376-0.082-0.6836-0.2461-0.9229
			s-0.3809-0.4395-0.6504-0.5996c-0.2715-0.1611-0.5781-0.2939-0.9238-0.4004c-0.3457-0.1055-0.6992-0.2119-1.0605-0.3174
			c-0.3633-0.1064-0.7168-0.2275-1.0625-0.3643c-0.3438-0.1367-0.6523-0.3164-0.9219-0.5381
			c-0.2695-0.2227-0.4863-0.501-0.6504-0.8359s-0.2461-0.752-0.2461-1.251c0-0.4238,0.082-0.8115,0.2461-1.1641
			c0.1641-0.3516,0.3848-0.6543,0.666-0.9072c0.2793-0.2529,0.6055-0.4492,0.9785-0.5898c0.373-0.1396,0.7715-0.21,1.1953-0.21
			h0.7383c0.4238,0,0.8223,0.0801,1.1992,0.2412c0.375,0.1602,0.7031,0.3809,0.9844,0.6611c0.2793,0.2803,0.5,0.6084,0.6621,0.9844
			c0.1602,0.376,0.2402,0.7764,0.2402,1.1992v0.041l-1.2617,0.2051v-0.3174c0-0.2529-0.0469-0.4902-0.1426-0.7129
			c-0.0957-0.2217-0.2266-0.415-0.3906-0.5791s-0.3574-0.2939-0.5781-0.3896c-0.2227-0.0957-0.4609-0.1436-0.7129-0.1436h-0.7383
			c-0.2539,0-0.4902,0.0381-0.7129,0.1133s-0.416,0.1826-0.5801,0.3223c-0.1641,0.1406-0.293,0.3096-0.3887,0.5078
			s-0.1445,0.4238-0.1445,0.6768c0,0.3623,0.082,0.6582,0.2461,0.8867c0.1641,0.2295,0.3809,0.4229,0.6523,0.5791
			c0.2695,0.1582,0.5762,0.2891,0.9219,0.3955c0.3457,0.1055,0.6973,0.2148,1.0566,0.3281
			c0.3594,0.1123,0.7109,0.2412,1.0566,0.3838c0.3438,0.1445,0.6523,0.3281,0.9219,0.5547
			c0.2695,0.2246,0.4883,0.5068,0.6523,0.8457C377.2046,75.6369,377.2866,76.0559,377.2866,76.5549z"/>
	</g>
</g>
</svg>
