<?xml version="1.0" encoding="utf-8"?>
<!-- Generator: Adobe Illustrator 21.0.2, SVG Export Plug-In . SVG Version: 6.00 Build 0)  -->
<svg version="1.1" id="Capa_1" xmlns="http://www.w3.org/2000/svg" xmlns:xlink="http://www.w3.org/1999/xlink" x="0px" y="0px"
	 viewBox="0 0 220.8625 217.3764" style="enable-background:new 0 0 220.8625 217.3764;" xml:space="preserve">
<style type="text/css">
	.st0{fill-rule:evenodd;clip-rule:evenodd;fill:#DDDDDD;}
	.st1{fill:#3B86B1;}
	.st2{opacity:0.25;fill-rule:evenodd;clip-rule:evenodd;fill:#020202;}
	.st3{fill:#FFFFFF;}
	.st4{opacity:0.5;}
	.st5{fill-rule:evenodd;clip-rule:evenodd;fill:#A8A8A8;}
	.st6{fill-rule:evenodd;clip-rule:evenodd;fill:#FFFFFF;}
	.st7{fill-rule:evenodd;clip-rule:evenodd;fill:#3B86B1;}
	.st8{opacity:0.5;fill:#2C6882;}
	.st9{opacity:0.75;fill-rule:evenodd;clip-rule:evenodd;fill:#282828;}
	.st10{opacity:0.5;fill:#FFFFFF;}
	.st11{fill-rule:evenodd;clip-rule:evenodd;fill:none;stroke:#FFFFFF;stroke-miterlimit:10;}
	.st12{fill:none;stroke:#FFFFFF;stroke-miterlimit:10;}
	.st13{fill:#FFFFFF;stroke:#3B86B1;stroke-width:1.7139;stroke-miterlimit:10;}
	.st14{fill-rule:evenodd;clip-rule:evenodd;}
	.st15{opacity:0.85;fill:#FFFFFF;}
	.st16{opacity:0.5;fill-rule:evenodd;clip-rule:evenodd;}
	.st17{fill-rule:evenodd;clip-rule:evenodd;fill:#FEFEFE;}
	.st18{fill:#312767;}
	.st19{opacity:0.48;}
	.st20{opacity:0.25;}
	.st21{fill-rule:evenodd;clip-rule:evenodd;fill:#020202;}
	.st22{fill:#757575;}
	.st23{opacity:0.25;clip-path:url(#XMLID_3763_);}
	.st24{fill:#FFFFFF;stroke:#312767;stroke-miterlimit:10;}
	.st25{fill:#ACABC9;}
	.st26{fill-rule:evenodd;clip-rule:evenodd;fill:#312767;}
	.st27{opacity:0.77;fill:#312767;}
	.st28{opacity:0.25;clip-path:url(#XMLID_3771_);}
	.st29{fill:#9490B2;stroke:#2D2D2D;stroke-width:0.25;stroke-miterlimit:10;}
	.st30{fill:#312767;stroke:#2D2D2D;stroke-width:0.25;stroke-miterlimit:10;}
	.st31{fill:#FCFCFC;}
	.st32{fill:#FFFFFF;stroke:#2D2D2D;stroke-width:0.25;stroke-miterlimit:10;}
	.st33{fill-rule:evenodd;clip-rule:evenodd;fill:#484849;stroke:#2D2D2D;stroke-width:0.25;stroke-miterlimit:10;}
	.st34{fill-rule:evenodd;clip-rule:evenodd;fill:#312767;stroke:#2D2D2D;stroke-width:0.25;stroke-miterlimit:10;}
	.st35{fill-rule:evenodd;clip-rule:evenodd;fill:#FFFFFF;stroke:#2D2D2D;stroke-width:0.25;stroke-miterlimit:10;}
	.st36{fill:#484849;stroke:#2D2D2D;stroke-width:0.25;stroke-miterlimit:10;}
	.st37{fill:#FFFFFF;stroke:#FFFFFF;stroke-miterlimit:10;}
	.st38{fill:#54518C;}
	.st39{opacity:0.25;fill-rule:evenodd;clip-rule:evenodd;fill:#FFFFFF;}
	.st40{fill:#D4A800;}
	.st41{fill:#00AEB3;}
	.st42{fill:#38353B;}
	.st43{fill:#FF8400;}
	.st44{fill:#BF3900;}
	.st45{fill:#00AA9C;}
	.st46{opacity:0.25;clip-path:url(#XMLID_3783_);}
	.st47{fill:none;stroke:#ACABC9;stroke-width:5;stroke-miterlimit:10;}
	.st48{opacity:0.25;clip-path:url(#XMLID_3784_);}
	.st49{fill:#DDDDDD;}
	.st50{opacity:0.25;clip-path:url(#XMLID_3790_);}
	.st51{fill-rule:evenodd;clip-rule:evenodd;fill:#FFFFFF;stroke:#FFFFFF;stroke-miterlimit:10;}
	.st52{fill:#F79748;}
	.st53{fill:#FF7900;}
	.st54{fill:#DD7105;}
	.st55{fill:#02897C;}
	.st56{fill:#0EAD9A;}
	.st57{fill:#28C6AF;}
	.st58{fill:#4FE0C7;}
	.st59{fill:#D37D00;}
	.st60{fill:#D14600;}
	.st61{fill:#E5B92E;}
	.st62{fill:#DD571B;}
	.st63{fill:#E28A17;}
	.st64{opacity:0.25;clip-path:url(#XMLID_3791_);}
	.st65{opacity:0.77;fill:#FFFFFF;}
	.st66{fill:#50565B;stroke:#656C70;stroke-miterlimit:10;}
	.st67{fill:#808589;stroke:#656C70;stroke-miterlimit:10;}
	.st68{fill:#252728;stroke:#000000;stroke-miterlimit:10;}
	.st69{fill:#1A1B1C;stroke:#000000;stroke-miterlimit:10;}
	.st70{fill:#A0A6AA;}
	.st71{fill:#262C35;stroke:#161A1E;stroke-miterlimit:10;}
	.st72{fill:#181D23;}
	.st73{fill:#EABA96;stroke:#E0AA86;stroke-miterlimit:10;}
	.st74{fill:#E0AA86;}
	.st75{stroke:#000000;stroke-width:0.75;stroke-linecap:square;stroke-linejoin:bevel;stroke-miterlimit:10;}
	.st76{fill:#0F1C3F;stroke:#182951;stroke-miterlimit:10;}
	.st77{fill:#132354;stroke:#3F6093;stroke-miterlimit:10;}
	.st78{fill:#0F1C3F;}
	.st79{fill:none;stroke:#3F6093;stroke-width:0.75;stroke-miterlimit:10;}
	.st80{fill:#DBA682;}
	.st81{fill:none;stroke:#E0AA86;stroke-miterlimit:10;}
	.st82{fill:none;stroke:#E0AA86;stroke-linejoin:bevel;stroke-miterlimit:10;}
	.st83{fill:#8A0A8E;stroke:#AC34B2;stroke-miterlimit:10;}
	.st84{fill:#810C87;}
	.st85{fill:#680B6D;}
	.st86{fill:#AC34B2;stroke:#AC34B2;stroke-width:0.5;stroke-miterlimit:10;}
	.st87{fill:none;stroke:#959DA0;stroke-width:0.5;stroke-miterlimit:10;}
	.st88{fill:#959DA0;stroke:#959DA0;stroke-width:0.5;stroke-miterlimit:10;}
	.st89{fill:none;stroke:#AC34B2;stroke-miterlimit:10;}
	.st90{fill:#282828;stroke:#000000;stroke-miterlimit:10;}
	.st91{fill:#EABA96;stroke:#E0AA86;stroke-width:0.5;stroke-miterlimit:10;}
	.st92{fill:#B7896A;}
	.st93{stroke:#000000;stroke-miterlimit:10;}
	.st94{fill:#C1A578;}
	.st95{stroke:#000000;stroke-width:0.25;stroke-linecap:round;stroke-linejoin:round;stroke-miterlimit:10;}
	.st96{fill:#FFFFFF;stroke:#000000;stroke-width:0.25;stroke-linecap:round;stroke-linejoin:round;stroke-miterlimit:10;}
	.st97{fill:#70582D;}
	.st98{stroke:#000000;stroke-linecap:round;stroke-linejoin:round;stroke-miterlimit:10;}
	.st99{fill:none;stroke:#D8A27D;stroke-width:0.75;stroke-miterlimit:10;}
	.st100{fill:#561409;}
	.st101{fill:#BA2A13;}
	.st102{fill:#9E3025;stroke:#4C2311;stroke-width:0.25;stroke-miterlimit:10;}
	.st103{fill:#871D08;stroke:#4C2311;stroke-width:0.25;stroke-miterlimit:10;}
	.st104{fill:#DDAC8A;}
	.st105{fill:#A5ABAD;stroke:#959DA0;stroke-width:0.5;stroke-miterlimit:10;}
	.st106{fill:#B1BABC;}
	.st107{fill:none;stroke:#153847;stroke-width:5;stroke-miterlimit:10;}
	.st108{fill:#3CA7AF;}
	.st109{fill:#3DAD8D;}
	.st110{fill:#3DAA61;}
	.st111{fill:#67A53F;}
	.st112{fill:#95A340;}
	.st113{opacity:0.25;clip-path:url(#XMLID_3797_);}
	.st114{opacity:0.25;clip-path:url(#XMLID_3798_);}
	.st115{opacity:0.25;clip-path:url(#XMLID_3804_);}
	.st116{opacity:0.25;clip-path:url(#XMLID_3805_);}
	.st117{clip-path:url(#SVGID_2_);}
	.st118{fill:none;stroke:#3F6093;stroke-miterlimit:10;}
	.st119{fill:none;stroke:#3F6093;stroke-width:0.75;stroke-linecap:round;stroke-linejoin:round;}
	.st120{fill:none;stroke:#3F6093;stroke-width:0.75;stroke-linecap:round;stroke-linejoin:round;stroke-dasharray:0.9892,0.9892;}
	
		.st121{fill:none;stroke:#3F6093;stroke-width:0.75;stroke-linecap:round;stroke-linejoin:round;stroke-miterlimit:10;stroke-dasharray:1;}
	.st122{fill:#EAEAEA;stroke:#FFFFFF;stroke-width:0.25;stroke-miterlimit:10;}
	.st123{fill:#D8D8D8;}
	.st124{fill:#282828;stroke:#000000;stroke-width:0.75;stroke-miterlimit:10;}
	.st125{opacity:0.33;fill:#FFFFFF;}
	.st126{fill:none;stroke:#000000;stroke-width:1.5;stroke-linecap:round;stroke-linejoin:round;stroke-miterlimit:10;}
	.st127{opacity:0.64;}
	.st128{fill:#C9C9C9;}
	.st129{fill:#FFF064;}
	.st130{fill:#4F4E4F;}
	.st131{fill:#1E2F47;}
	.st132{opacity:0.1;fill:#FFFFFF;}
	.st133{opacity:0.1;}
	.st134{opacity:0.4;fill:#FFFFFF;}
	.st135{fill-rule:evenodd;clip-rule:evenodd;fill:#F39C12;}
	.st136{fill-rule:evenodd;clip-rule:evenodd;fill:#E6E6E6;}
	.st137{fill-rule:evenodd;clip-rule:evenodd;fill:#474646;}
	.st138{fill-rule:evenodd;clip-rule:evenodd;fill:#D84848;}
	.st139{opacity:0.2;fill-rule:evenodd;clip-rule:evenodd;fill:#231F20;}
	.st140{opacity:0.1;fill-rule:evenodd;clip-rule:evenodd;fill:#231F20;}
	.st141{fill-rule:evenodd;clip-rule:evenodd;fill:#4D4D4D;}
	.st142{fill-rule:evenodd;clip-rule:evenodd;fill:#336699;}
	.st143{fill-rule:evenodd;clip-rule:evenodd;fill:#FF6633;}
	.st144{fill-rule:evenodd;clip-rule:evenodd;fill:#0056A3;}
	.st145{fill-rule:evenodd;clip-rule:evenodd;fill:#33CC99;}
	.st146{fill:#CE6405;}
	.st147{opacity:0.2;fill:#FFFFFF;}
	.st148{fill:#1ABC9C;}
	.st149{opacity:0.2;}
	.st150{fill:#0B2E44;}
	.st151{fill-rule:evenodd;clip-rule:evenodd;fill:#154F77;}
	.st152{fill-rule:evenodd;clip-rule:evenodd;fill:#0D3858;}
	.st153{fill-rule:evenodd;clip-rule:evenodd;fill:#FFFEFE;}
	.st154{fill:#AEC647;}
	.st155{fill:#F3AE1B;}
	.st156{fill:#DF3F11;}
	.st157{fill:#BCDEDE;}
	.st158{fill:#C84119;}
	.st159{fill:#6BB5CE;}
	.st160{fill:#00D0E5;}
	.st161{fill:#FF81ED;}
	.st162{fill:#00C982;}
	.st163{opacity:0.7;}
	.st164{opacity:0.4;}
	.st165{fill-rule:evenodd;clip-rule:evenodd;fill:#0B2E44;}
	.st166{opacity:0.8;fill-rule:evenodd;clip-rule:evenodd;fill:#FFFFFF;}
	.st167{fill:#424242;}
	.st168{opacity:0.2;fill-rule:evenodd;clip-rule:evenodd;fill:#FFFFFF;}
	.st169{fill:#D0EDFA;}
	.st170{fill:#FF651F;}
	.st171{fill:#0051C4;}
	.st172{fill:#E46400;}
	.st173{fill:#C0003B;}
	.st174{fill:#FFEA50;}
	.st175{fill:#FF2C0D;}
	.st176{fill:#FF1A2C;}
	.st177{fill:#FF2C4D;}
	.st178{fill:#FFD74C;}
	.st179{fill:#4C4C4B;}
	.st180{fill:#6CD2EA;}
	.st181{fill:#F7674F;}
	.st182{opacity:0.1;fill-rule:evenodd;clip-rule:evenodd;}
	.st183{fill:#BABABA;}
	.st184{fill:#F9B946;}
	.st185{fill:#4D4789;}
	.st186{fill:#DFC2A9;}
	.st187{fill:#BFA490;}
	.st188{fill:#F5D4B2;}
	.st189{fill:#DF584C;}
	.st190{fill:#C2443E;}
	.st191{fill:#DBDBDA;}
	.st192{fill:#2F363E;}
	.st193{fill:#332524;}
	.st194{fill:#473735;}
	.st195{opacity:0.25;clip-path:url(#XMLID_3806_);}
	.st196{fill:#153847;}
	.st197{fill:#52B8BA;}
	.st198{fill:#35373E;}
	.st199{opacity:0.25;clip-path:url(#XMLID_3807_);}
	.st200{opacity:0.31;fill:#34383A;}
	.st201{opacity:0.16;fill:#3D3835;}
	.st202{fill:#D0D1D4;}
	.st203{opacity:0.31;}
	.st204{fill:#34383A;}
	.st205{opacity:0.16;}
	.st206{fill:#3D3835;}
	.st207{opacity:0.25;clip-path:url(#XMLID_3808_);}
	.st208{fill:#F9E1B4;}
	.st209{opacity:0.25;fill:#050505;}
	.st210{fill:#FCC60F;}
	.st211{fill:#74CAEA;}
	.st212{fill:#050505;}
	.st213{opacity:0.25;clip-path:url(#XMLID_3809_);}
	.st214{fill:#FABC8F;}
	.st215{fill:#3FA995;}
	.st216{opacity:0.17;fill:#020202;}
	.st217{fill:#E1E1E1;}
	.st218{opacity:0.17;}
	.st219{fill:#020202;}
	.st220{opacity:0.25;clip-path:url(#XMLID_3810_);}
	.st221{fill:#BF8E00;}
	.st222{fill:#F7D8D7;}
	.st223{fill:#F18636;}
	.st224{fill:#004460;}
	.st225{fill:#D93A37;}
	.st226{fill:#EDEDED;}
	.st227{fill:#184F78;}
	.st228{fill:#FF3E03;}
	.st229{opacity:0.6;fill:#0F0F0F;}
	.st230{fill:#E8E8E6;}
	.st231{fill:#00EAA6;}
	.st232{fill-rule:evenodd;clip-rule:evenodd;fill:#FF3E03;}
	.st233{opacity:0.1;fill-rule:evenodd;clip-rule:evenodd;fill:#020202;}
	.st234{fill-rule:evenodd;clip-rule:evenodd;fill:#FABE00;}
	.st235{fill-rule:evenodd;clip-rule:evenodd;fill:#E6E8E8;}
	.st236{fill-rule:evenodd;clip-rule:evenodd;fill:#F7D959;}
	.st237{fill-rule:evenodd;clip-rule:evenodd;fill:#F9623E;}
	.st238{fill:#4F1A0F;}
	.st239{opacity:0.46;fill:#FFFFFF;}
	.st240{opacity:0.6;}
	.st241{fill:#0F0F0F;}
	.st242{opacity:0.46;}
	.st243{fill:#48505A;}
	.st244{fill:#C3C3C3;}
	.st245{fill:#E9E9EA;}
	.st246{fill:#9D9E9F;}
	.st247{fill:#F6F4F4;}
	.st248{fill:#6B6A6A;}
	.st249{fill:#C09478;}
	.st250{fill:#F7CDA0;}
	.st251{fill:#9E1010;}
	.st252{fill:#F2F2F2;}
	.st253{opacity:0.2;fill:#060606;}
	.st254{fill:#16AFBE;}
	.st255{fill:#DD2222;}
	.st256{fill:#FFEDDC;}
	.st257{fill:#22272B;}
	.st258{fill:#5B6375;}
	.st259{fill:#060606;}
</style>
<g>
	<g id="Background_2_1_">
		<circle class="st38" cx="113.0177" cy="102.1317" r="102.1317"/>
	</g>
	<g id="Notification_Massage_1_">
		<g id="Line_1_">
			<g>
				<g>
					
						<rect x="133.9979" y="112.426" transform="matrix(0.9331 -0.3596 0.3596 0.9331 -31.7455 56.4139)" class="st3" width="3.5505" height="2.2315"/>
				</g>
				<g>
					
						<rect x="138.9321" y="110.5243" transform="matrix(0.9331 -0.3596 0.3596 0.9331 -30.7316 58.0612)" class="st3" width="3.5522" height="2.2315"/>
				</g>
				<g>
					
						<rect x="143.8667" y="108.6233" transform="matrix(0.9331 -0.3596 0.3596 0.9331 -29.7179 59.7084)" class="st3" width="3.552" height="2.231"/>
				</g>
				<g>
					
						<rect x="148.8028" y="106.7217" transform="matrix(0.933 -0.3598 0.3598 0.933 -28.7138 61.3935)" class="st3" width="3.5504" height="2.2307"/>
				</g>
				<g>
					
						<rect x="153.7371" y="104.8202" transform="matrix(0.9332 -0.3593 0.3593 0.9332 -27.6788 62.9547)" class="st3" width="3.5511" height="2.2299"/>
				</g>
				<g>
					
						<rect x="158.6724" y="102.9183" transform="matrix(0.933 -0.3598 0.3598 0.933 -26.6847 64.6902)" class="st3" width="3.5505" height="2.2303"/>
				</g>
				<g>
					
						<rect x="163.6068" y="101.0166" transform="matrix(0.9331 -0.3596 0.3596 0.9331 -25.6626 66.2973)" class="st3" width="3.5507" height="2.231"/>
				</g>
			</g>
			<g>
				<g>
					
						<rect x="119.4594" y="96.1213" transform="matrix(0.7866 -0.6174 0.6174 0.7866 -34.1685 95.6056)" class="st3" width="3.5509" height="2.2308"/>
				</g>
				<g>
					
						<rect x="123.619" y="92.857" transform="matrix(0.7869 -0.6171 0.6171 0.7869 -31.2668 97.4032)" class="st3" width="3.5514" height="2.2304"/>
				</g>
				<g>
					
						<rect x="127.7796" y="89.5921" transform="matrix(0.7866 -0.6174 0.6174 0.7866 -28.3617 99.3486)" class="st3" width="3.551" height="2.2308"/>
				</g>
				<g>
					
						<rect x="131.9406" y="86.327" transform="matrix(0.7867 -0.6174 0.6174 0.7867 -25.4589 101.2093)" class="st3" width="3.5505" height="2.2311"/>
				</g>
				<g>
					
						<rect x="136.1014" y="83.0623" transform="matrix(0.7866 -0.6174 0.6174 0.7866 -22.5544 103.0934)" class="st3" width="3.5505" height="2.2313"/>
				</g>
				<g>
					
						<rect x="140.2619" y="79.797" transform="matrix(0.7866 -0.6174 0.6174 0.7866 -19.6504 104.9647)" class="st3" width="3.5509" height="2.2308"/>
				</g>
				<g>
					
						<rect x="144.4214" y="76.5324" transform="matrix(0.7866 -0.6174 0.6174 0.7866 -16.7469 106.8372)" class="st3" width="3.551" height="2.2308"/>
				</g>
			</g>
			<g>
				<g>
					
						<rect x="108.3776" y="80.8672" transform="matrix(0.4898 -0.8719 0.8719 0.4898 -15.2729 137.868)" class="st3" width="3.5507" height="2.2308"/>
				</g>
				<g>
					
						<rect x="110.9691" y="76.2575" transform="matrix(0.4901 -0.8716 0.8716 0.4901 -9.9578 137.7219)" class="st3" width="3.5516" height="2.2306"/>
				</g>
				<g>
					
						<rect x="113.5614" y="71.6471" transform="matrix(0.4902 -0.8716 0.8716 0.4902 -4.6196 137.6276)" class="st3" width="3.5507" height="2.2312"/>
				</g>
				<g>
					
						<rect x="116.1535" y="67.0376" transform="matrix(0.4899 -0.8718 0.8718 0.4899 0.7405 137.5709)" class="st3" width="3.5505" height="2.2301"/>
				</g>
				<g>
					
						<rect x="118.7451" y="62.428" transform="matrix(0.4905 -0.8715 0.8715 0.4905 6.0342 137.4068)" class="st3" width="3.5516" height="2.2306"/>
				</g>
				<g>
					
						<rect x="121.3374" y="57.8174" transform="matrix(0.4897 -0.8719 0.8719 0.4897 11.4414 137.4142)" class="st3" width="3.5507" height="2.2308"/>
				</g>
				<g>
					
						<rect x="123.9284" y="53.208" transform="matrix(0.4898 -0.8719 0.8719 0.4898 16.7768 137.3137)" class="st3" width="3.5507" height="2.2308"/>
				</g>
			</g>
			<g>
				<g>
					<g>
						<path class="st226" d="M40.0538,138.7932l-1.6185,1.4648c0,0,0.8335,0.9323,1.7259,1.8148
							c0.4462,0.4425,0.8999,0.8761,1.2512,1.1961c0.1787,0.1599,0.3286,0.2924,0.4323,0.3862
							c0.1039,0.09,0.1639,0.1412,0.1639,0.1412l1.4248-1.6547c0,0-0.0563-0.0487-0.155-0.1339
							c-0.0951-0.0849-0.2312-0.2062-0.395-0.3524c-0.3273-0.2973-0.7585-0.7098-1.1822-1.1297
							C40.8525,139.6855,40.0538,138.7932,40.0538,138.7932z"/>
					</g>
					<g>
						<path class="st226" d="M35.6944,133.1675l-1.826,1.1974c0,0,0.0424,0.0649,0.1174,0.1811
							c0.075,0.1151,0.18,0.2801,0.3163,0.4713c0.2713,0.3849,0.62,0.9074,0.9987,1.4061c0.7373,1.0135,1.536,1.9772,1.536,1.9772
							l1.6886-1.3836c0,0-0.7638-0.9211-1.4674-1.8885c-0.3624-0.4762-0.6923-0.9736-0.9511-1.3399
							c-0.1288-0.1824-0.23-0.3386-0.3-0.4486C35.7356,133.2299,35.6944,133.1675,35.6944,133.1675z"/>
					</g>
					<g>
						<path class="st226" d="M32.4034,126.9657l-2.0596,0.74c0,0,0.1074,0.2986,0.3075,0.7312
							c0.1974,0.4323,0.4387,1.021,0.7312,1.5847c0.1425,0.2837,0.2837,0.5675,0.4162,0.8337
							c0.1425,0.2612,0.2762,0.5049,0.39,0.7135c0.2287,0.4175,0.3824,0.6963,0.3824,0.6963l1.9021-1.0713
							c0,0-0.1412-0.2574-0.3536-0.6449c-0.1063-0.1937-0.23-0.4199-0.3626-0.6624c-0.1237-0.2462-0.255-0.5099-0.3862-0.7737
							c-0.2737-0.5212-0.4974-1.0673-0.6811-1.4685C32.5035,127.2432,32.4034,126.9657,32.4034,126.9657z"/>
					</g>
					<g>
						<path class="st226" d="M30.58,120.2104l-2.1911,0.2124c0,0,0.0463,0.3137,0.1138,0.785
							c0.0525,0.4736,0.2074,1.0911,0.3311,1.7122c0.0576,0.3125,0.1414,0.6187,0.2212,0.9049
							c0.0776,0.2874,0.15,0.5549,0.2126,0.7848c0.0587,0.2314,0.1174,0.42,0.1637,0.5512
							c0.0437,0.1312,0.0688,0.2062,0.0688,0.2062l2.1172-0.5699c0,0-0.0238-0.0686-0.0638-0.1912
							c-0.0437-0.1211-0.0975-0.2973-0.1524-0.5111c-0.0589-0.2126-0.1264-0.4612-0.1987-0.7274
							c-0.075-0.2662-0.1537-0.5501-0.2075-0.8399c-0.1149-0.5774-0.2612-1.1487-0.3088-1.5887
							C30.6224,120.5015,30.58,120.2104,30.58,120.2104z"/>
					</g>
					<g>
						<path class="st226" d="M30.7075,113.2223l-2.1785-0.3273c0,0-0.0439,0.3137-0.1087,0.7848
							c-0.0337,0.2362-0.0726,0.5113-0.1125,0.8062c-0.0439,0.2938-0.0463,0.6125-0.0725,0.9288
							c-0.0201,0.3161-0.0399,0.6324-0.0587,0.9299c-0.0126,0.2962,0,0.5748-0.0013,0.8123
							c0.0051,0.4762,0.0075,0.7936,0.0075,0.7936l2.2023-0.0349c0,0-0.0013-0.2951-0.0064-0.7362
							c0.0013-0.2212-0.0112-0.4786,0-0.755c0.0176-0.2748,0.0364-0.5686,0.0551-0.8635c0.0249-0.2925,0.0263-0.5887,0.0675-0.8613
							c0.0375-0.2737,0.0737-0.5287,0.105-0.7473C30.6673,113.5148,30.7075,113.2223,30.7075,113.2223z"/>
					</g>
					<g>
						<path class="st226" d="M32.9534,106.6019l-2.0173-0.8461c0,0-0.1376,0.2861-0.3438,0.7149
							c-0.1024,0.215-0.2223,0.4663-0.3498,0.7336c-0.1076,0.2775-0.2225,0.5737-0.3375,0.8688
							c-0.1151,0.2962-0.2287,0.5924-0.3375,0.8699c-0.1087,0.2762-0.1725,0.5474-0.2463,0.7735
							c-0.1361,0.4563-0.2287,0.76-0.2287,0.76l2.141,0.5024c0,0,0.0851-0.2825,0.2137-0.7049
							c0.0688-0.21,0.1275-0.4612,0.23-0.7188c0.0999-0.2561,0.2075-0.5311,0.315-0.8048c0.1063-0.275,0.2137-0.5488,0.3137-0.8062
							c0.12-0.2488,0.2325-0.4812,0.3275-0.68C32.826,106.8668,32.9534,106.6019,32.9534,106.6019z"/>
					</g>
					<g>
						<path class="st226" d="M36.398,100.3302l-1.8935-1.0874c0,0-0.6074,1.0686-1.2149,2.1384
							c-0.6012,1.0874-1.2023,2.1747-1.2023,2.1747l1.9385,1.0062c0,0,0.5836-1.0561,1.1672-2.1123
							C35.7956,101.39,36.398,100.3302,36.398,100.3302z"/>
					</g>
				</g>
				<g>
					<g>
						<polygon class="st226" points="40.0862,94.0508 38.2103,92.9334 35.7118,97.1605 37.5978,98.2616 						"/>
					</g>
					<g>
						<polygon class="st226" points="43.8122,87.7666 41.9286,86.6642 39.4376,90.8738 41.3137,91.9912 						"/>
					</g>
					<g>
						<path class="st226" d="M47.4241,81.381l-1.9209-1.036c0,0-0.5875,1.066-1.1749,2.1322
							c-0.5924,1.0636-1.2023,2.1198-1.2023,2.1198l1.8935,1.0874c0,0,0.6149-1.0649,1.2149-2.1423
							c0.3037-0.5349,0.5962-1.0786,0.8198-1.4848C47.2755,81.651,47.4241,81.381,47.4241,81.381z"/>
					</g>
					<g>
						<path class="st226" d="M50.7162,74.7807l-1.9884-0.8988c0,0-0.1264,0.275-0.3163,0.6862
							c-0.185,0.4137-0.4475,0.9599-0.7137,1.5036c-0.2612,0.5463-0.5325,1.0887-0.7411,1.4923
							c-0.2075,0.405-0.345,0.6762-0.345,0.6762l1.941,0.9998c0,0,0.14-0.2748,0.3513-0.6886
							c0.2124-0.4111,0.4886-0.9661,0.7561-1.5248c0.2737-0.5563,0.5424-1.1149,0.7325-1.5411
							C50.5876,75.063,50.7162,74.7807,50.7162,74.7807z"/>
					</g>
					<g>
						<path class="st226" d="M53.3972,67.8527l-2.0821-0.6524c0,0-0.0937,0.285-0.2325,0.7124
							c-0.1338,0.4288-0.335,0.9949-0.545,1.5587c-0.1987,0.5662-0.4213,1.126-0.5911,1.5448
							c-0.1676,0.42-0.2788,0.6985-0.2788,0.6985l2.0186,0.8337c0,0,0.1149-0.29,0.2887-0.725
							c0.1749-0.4323,0.4061-1.0124,0.6136-1.6022c0.2161-0.5849,0.4274-1.1736,0.5662-1.6236
							C53.301,68.1515,53.3972,67.8527,53.3972,67.8527z"/>
					</g>
					<g>
						<path class="st226" d="M55.0009,60.526l-2.1686-0.2475c0,0-0.0075,0.0739-0.0201,0.2025
							c-0.0199,0.1275-0.0461,0.3112-0.0788,0.5313c-0.0675,0.4398-0.1361,1.0285-0.2636,1.611
							c-0.1125,0.5836-0.2238,1.1674-0.3388,1.6011c-0.105,0.4336-0.1749,0.7237-0.1749,0.7237l2.1147,0.5399
							c0,0,0.0737-0.3061,0.1849-0.7649c0.1213-0.4561,0.24-1.0761,0.36-1.6961c0.1339-0.6161,0.2089-1.2473,0.2812-1.716
							c0.0337-0.2349,0.0626-0.4312,0.0825-0.5675C54.9934,60.6048,55.0009,60.526,55.0009,60.526z"/>
					</g>
					<g>
						<path class="st226" d="M54.8959,52.9594l-2.1586,0.3238c0,0,0.0425,0.29,0.1063,0.7261
							c0.0538,0.4363,0.0875,1.0236,0.1412,1.6086c0.0225,0.5887,0.0262,1.1774,0.0388,1.6187
							c-0.015,0.4424-0.0262,0.736-0.0262,0.736l2.1822,0.075c0,0,0.0112-0.3187,0.0276-0.7949
							c-0.0126-0.4786-0.0163-1.116-0.0426-1.7535c-0.0562-0.6361-0.095-1.2735-0.1524-1.7486
							C54.942,53.2757,54.8959,52.9594,54.8959,52.9594z"/>
					</g>
				</g>
			</g>
			<g>
				<g>
					<g>
						<path class="st226" d="M94.6236,136.3083l-1.9921,0.5838c0,0-0.4526-1.1136-0.835-2.2497
							c-0.1912-0.5675-0.3736-1.1387-0.4998-1.5724c-0.0613-0.2188-0.1125-0.4025-0.1489-0.53
							c-0.0337-0.1262-0.0525-0.1987-0.0525-0.1987l2.0735-0.3375c0,0,0.0176,0.0688,0.0487,0.1888
							c0.0338,0.1162,0.0801,0.2837,0.1376,0.4837c0.1162,0.4049,0.2887,0.9462,0.4725,1.4861
							C94.1912,135.2434,94.6236,136.3083,94.6236,136.3083z"/>
					</g>
					<g>
						<path class="st226" d="M97.6457,142.4889l-1.8485,0.8774c0,0-0.0386-0.0651-0.1074-0.1813
							c-0.0688-0.1136-0.1663-0.2775-0.275-0.4786c-0.2186-0.4012-0.5236-0.9286-0.7949-1.4711
							c-0.5662-1.0761-1.0611-2.1772-1.0611-2.1772l1.9524-0.6774c0,0,0.4736,1.0536,1.0124,2.0784
							c0.2587,0.5174,0.5499,1.0199,0.7585,1.4023c0.1026,0.1912,0.1963,0.3476,0.2613,0.4563
							C97.6082,142.4265,97.6457,142.4889,97.6457,142.4889z"/>
					</g>
					<g>
						<path class="st226" d="M101.639,148.0969l-1.5497,1.285c0,0-0.2137-0.23-0.5062-0.5975
							c-0.2938-0.365-0.7025-0.8412-1.0675-1.3461c-0.1875-0.2499-0.3736-0.4987-0.5499-0.7336
							c-0.1663-0.2388-0.3211-0.4625-0.455-0.6537c-0.2649-0.3838-0.4411-0.6399-0.4411-0.6399l1.7711-0.9987
							c0,0,0.1637,0.2375,0.4098,0.5938c0.1226,0.1774,0.2675,0.3849,0.4213,0.6061c0.1625,0.2175,0.3361,0.4499,0.5099,0.6811
							c0.3362,0.4687,0.7175,0.91,0.9886,1.2499C101.4403,147.8845,101.639,148.0969,101.639,148.0969z"/>
					</g>
					<g>
						<path class="st226" d="M106.7609,152.8039l-1.1447,1.6423c0,0-0.255-0.1875-0.6387-0.47
							c-0.3924-0.2686-0.8648-0.6899-1.356-1.0874c-0.2475-0.1961-0.4799-0.4098-0.6963-0.6123
							c-0.2175-0.2-0.4199-0.3875-0.5935-0.5474c-0.1762-0.1575-0.3176-0.2951-0.4113-0.395
							c-0.0962-0.0988-0.1511-0.155-0.1511-0.155l1.4259-1.411c0,0,0.0514,0.0525,0.14,0.1436
							c0.0875,0.0926,0.2175,0.2201,0.3811,0.3675c0.1612,0.1488,0.3487,0.3224,0.5512,0.5088
							c0.2,0.1875,0.4151,0.3862,0.6449,0.5686c0.4563,0.3699,0.8924,0.7625,1.2561,1.0124
							C106.5235,152.6301,106.7609,152.8039,106.7609,152.8039z"/>
					</g>
					<g>
						<path class="st226" d="M112.9401,156.0685l-0.6661,1.8924c0,0-0.2949-0.1162-0.7362-0.2914
							c-0.2212-0.0873-0.4786-0.1886-0.7548-0.2973c-0.2764-0.1087-0.5576-0.2587-0.845-0.3913
							c-0.2863-0.1363-0.5724-0.2724-0.8412-0.3999c-0.2662-0.1339-0.5036-0.2775-0.7124-0.3913
							c-0.4149-0.2338-0.6923-0.3875-0.6923-0.3875l0.9949-1.7372c0,0,0.2574,0.1436,0.6423,0.3586
							c0.1939,0.1063,0.4151,0.2413,0.6612,0.365c0.2488,0.1174,0.515,0.2448,0.7812,0.3712
							c0.2673,0.1211,0.5261,0.2636,0.7837,0.3624c0.2561,0.1012,0.4961,0.195,0.7012,0.2762
							C112.6664,155.9611,112.9401,156.0685,112.9401,156.0685z"/>
					</g>
					<g>
						<path class="st226" d="M119.7257,157.4708l-0.1425,2.0135c0,0-0.3101-0.0287-0.7761-0.0712
							c-0.2338-0.0225-0.5051-0.0474-0.7975-0.075c-0.2898-0.0474-0.5986-0.0986-0.9085-0.15
							c-0.3088-0.0499-0.6187-0.1024-0.9087-0.15c-0.29-0.0474-0.5562-0.1275-0.7861-0.1762
							c-0.4601-0.1112-0.7662-0.1837-0.7662-0.1837l0.4974-1.9471c0,0,0.2838,0.0675,0.71,0.1698
							c0.215,0.045,0.4612,0.12,0.7298,0.1625c0.27,0.0437,0.5576,0.09,0.845,0.1374c0.2863,0.0463,0.5737,0.0938,0.8423,0.1376
							c0.2713,0.0249,0.5238,0.0474,0.74,0.0675C119.437,157.4446,119.7257,157.4708,119.7257,157.4708z"/>
					</g>
					<g>
						<path class="st226" d="M126.7286,157.7483l0.125,2.0323c0,0-1.2036-0.0311-2.4072-0.0624
							c-1.2149-0.0463-2.4297-0.0913-2.4297-0.0913l-0.035-2.0272c0,0,1.1811,0.0437,2.3622,0.0875
							C125.5362,157.7183,126.7286,157.7483,126.7286,157.7483z"/>
					</g>
				</g>
				<g>
					<g>
						<polygon class="st226" points="133.8452,157.8383 134.0027,159.8694 129.2057,159.8218 129.0659,157.7909 						"/>
					</g>
					<g>
						<polygon class="st226" points="140.9844,157.8983 141.1256,159.9305 136.3449,159.8844 136.1874,157.8533 						"/>
					</g>
					<g>
						<path class="st226" d="M148.1597,158.0983l0.0675,2.0298c0,0-1.1911-0.0463-2.3821-0.0926
							c-1.1912-0.0399-2.3847-0.0638-2.3847-0.0638l-0.1237-2.0309c0,0,1.2023,0.0238,2.4083,0.0651
							c0.6037,0.015,1.2074,0.0437,1.6599,0.0611C147.8587,158.0858,148.1597,158.0983,148.1597,158.0983z"/>
					</g>
					<g>
						<path class="st226" d="M155.3851,158.657l-0.0825,2.0173c0,0-0.2962-0.0313-0.7398-0.08
							c-0.4438-0.0512-1.0375-0.1061-1.6299-0.1548c-0.5924-0.0551-1.186-0.1013-1.6322-0.1288
							c-0.4462-0.0313-0.7424-0.0525-0.7424-0.0525l-0.0276-2.0261c0,0,0.3024,0.0214,0.7574,0.0525
							c0.4537,0.0289,1.0598,0.075,1.6673,0.1312c0.6074,0.0513,1.2137,0.1063,1.6699,0.1601
							C155.0814,158.6246,155.3851,158.657,155.3851,158.657z"/>
					</g>
					<g>
						<path class="st226" d="M162.6293,159.8593l-0.3386,1.9736c0,0-0.2914-0.0624-0.7263-0.1575
							c-0.435-0.1012-1.0186-0.2124-1.6048-0.3174c-0.5823-0.1151-1.1699-0.2075-1.6123-0.2737
							c-0.4398-0.0688-0.7349-0.1151-0.7349-0.1151l0.1537-2.0085c0,0,0.305,0.0474,0.7612,0.1187
							c0.4563,0.0701,1.0648,0.165,1.6723,0.2838c0.6087,0.1099,1.2175,0.225,1.6712,0.3311
							C162.3256,159.7944,162.6293,159.8593,162.6293,159.8593z"/>
					</g>
					<g>
						<path class="st226" d="M169.7523,162.1128l-0.7325,1.8461c0,0-0.0675-0.0287-0.1862-0.0812
							c-0.12-0.0463-0.2925-0.1138-0.5-0.1938c-0.4149-0.1575-0.9612-0.3862-1.5261-0.5662
							c-0.5611-0.1912-1.1224-0.3849-1.5523-0.5011c-0.4261-0.125-0.7111-0.2086-0.7111-0.2086l0.4524-1.9449
							c0,0,0.3013,0.0889,0.7512,0.2212c0.4537,0.1237,1.0486,0.3275,1.6447,0.5313c0.5986,0.1899,1.1835,0.4349,1.626,0.6023
							c0.2212,0.0863,0.405,0.1575,0.5338,0.2076C169.6798,162.0817,169.7523,162.1128,169.7523,162.1128z"/>
					</g>
					<g>
						<path class="st226" d="M176.3365,165.8425l-1.2287,1.5623c0,0-0.2349-0.1738-0.5898-0.4336
							c-0.3588-0.2538-0.8586-0.5638-1.3474-0.8875c-0.5049-0.3011-1.0199-0.5887-1.401-0.811
							c-0.3937-0.2-0.6562-0.335-0.6562-0.335l0.8898-1.7722c0,0,0.2825,0.1449,0.7075,0.3611
							c0.4136,0.24,0.9711,0.5512,1.5172,0.8787c0.5338,0.35,1.0748,0.6886,1.4661,0.965
							C176.0803,165.6524,176.3365,165.8425,176.3365,165.8425z"/>
					</g>
				</g>
			</g>
		</g>
		<g id="Command_3_">
			<g>
				<polygon class="st227" points="75.7895,204.1705 58.1617,217.3764 41.0587,179.3846 51.4125,171.628 				"/>
			</g>
			<g class="st149">
				
					<rect x="56.183" y="170.2293" transform="matrix(0.8003 -0.5995 0.5995 0.8003 -102.1455 74.2012)" width="8.3037" height="40.4704"/>
			</g>
			<g>
				<path class="st3" d="M131.9155,124.5535c2.0835,2.7822,1.5186,6.7267-1.2625,8.8103L23.9106,191.4844
					c-5.8756,2.6534-7.8789-0.0212-9.9626-2.8022L2.1045,172.8716c-2.0848-2.7822-3.3883-5.9806-0.135-9.5113l88.8533-83.1628
					c2.7822-2.0834,6.7267-1.5173,8.8115,1.2636L131.9155,124.5535z"/>
			</g>
			<g>
				<path class="st227" d="M5.5003,160.0556l-3.5308,3.3047c-3.2533,3.5308-1.9498,6.7291,0.135,9.5113l11.8435,15.8106
					c2.0836,2.781,4.087,5.4556,9.9626,2.8022l3.6459-1.9848L5.5003,160.0556z"/>
			</g>
			<g>
				<path class="st227" d="M90.8228,80.1975l-5.7944,5.4243l38.6205,51.5553l7.0042-3.8133
					c2.7811-2.0836,3.3459-6.0282,1.2625-8.8103L99.6343,81.4611C97.5495,78.6803,93.605,78.1141,90.8228,80.1975z"/>
			</g>
			<g class="st149">
				<path d="M8.2037,181.0143l5.7443,7.6678c2.0836,2.781,4.087,5.4556,9.9626,2.8022l106.7424-58.1206
					c2.7811-2.0836,3.3459-6.0282,1.2625-8.8103l-17.3781-23.1959L8.2037,181.0143z"/>
			</g>
		</g>
		<g id="Mail_1_">
			<g id="Envelop_3_">
				<g id="Envelop_4_">
					<g>
						<path class="st228" d="M168.3762,202.1082c0,1.0435-0.8463,1.8909-1.8911,1.8909h-26.0607
							c-1.0448,0-1.8909-0.8474-1.8909-1.8909v-28.1629c0-1.045,0.8461-1.8911,1.8909-1.8911h26.0607
							c1.0448,0,1.8911,0.8461,1.8911,1.8911V202.1082z"/>
					</g>
					<g class="st240">
						<path class="st241" d="M139.2109,188.026h29.1654l-10.6651,7.6454c0,0-8.6703,1.9698-10.1675,0.8661
							c-1.4974-1.1024-6.8568-4.7282-6.8568-4.7282L139.2109,188.026z"/>
					</g>
					<g>
						<rect x="141.3969" y="174.7075" class="st230" width="24.1159" height="26.402"/>
					</g>
					<g>
						<path class="st231" d="M139.2109,188.026h-0.6774v14.0822c0,1.0435,0.8461,1.8909,1.8909,1.8909h26.0607
							c1.0448,0,1.8911-0.8474,1.8911-1.8909V188.026l-14.9208,7.9866L139.2109,188.026z"/>
					</g>
					<g class="st149">
						<path d="M140.4244,203.9991h26.0607c1.0448,0,1.8911-0.8474,1.8911-1.8909V188.026l-14.9208,7.9866l-14.417,7.378
							C139.3833,203.7642,139.8759,203.9991,140.4244,203.9991z"/>
					</g>
				</g>
				<g id="Text_2_" class="st164">
					<g class="st163">
						<rect x="144.3127" y="177.2299" width="19.3878" height="0.7087"/>
					</g>
					<g class="st163">
						<rect x="144.3127" y="178.4909" width="19.3878" height="0.7087"/>
					</g>
					<g class="st163">
						<rect x="144.3127" y="179.8294" width="19.3878" height="0.71"/>
					</g>
					<g class="st163">
						<rect x="144.3127" y="181.1305" width="19.3878" height="0.7087"/>
					</g>
					<g class="st163">
						<rect x="144.3127" y="182.7854" width="19.3878" height="0.71"/>
					</g>
					<g class="st163">
						<rect x="144.3127" y="184.7564" width="19.3878" height="0.7087"/>
					</g>
					<g class="st163">
						<rect x="144.3127" y="186.1351" width="19.3878" height="0.7098"/>
					</g>
					<g class="st163">
						<rect x="144.3127" y="187.4348" width="19.3878" height="0.71"/>
					</g>
					<g class="st163">
						<rect x="144.3127" y="188.9323" width="19.3878" height="0.7098"/>
					</g>
				</g>
			</g>
			<g id="Envelop_1_">
				<g id="Envelop_2_">
					<g>
						<path class="st228" d="M220.8625,172.769c0,1.7923-1.4548,3.2471-3.2471,3.2471h-44.7236
							c-1.7934,0-3.2471-1.4548-3.2471-3.2471v-48.3305c0-1.7936,1.4537-3.2458,3.2471-3.2458h44.7236
							c1.7923,0,3.2471,1.4522,3.2471,3.2458V172.769z"/>
					</g>
					<g class="st240">
						<path class="st241" d="M170.8071,148.6044h50.0555l-18.3053,13.1184c0,0-14.8782,3.3821-17.448,1.4886
							c-2.5697-1.8935-11.7661-8.1152-11.7661-8.1152L170.8071,148.6044z"/>
					</g>
					<g>
						<rect x="174.5592" y="125.7458" class="st230" width="41.3887" height="45.311"/>
					</g>
					<g>
						<path class="st231" d="M170.8071,148.6044h-1.1624v24.1646c0,1.7923,1.4537,3.2471,3.2471,3.2471h44.7236
							c1.7923,0,3.2471-1.4548,3.2471-3.2471v-24.1646l-25.6095,13.7046L170.8071,148.6044z"/>
					</g>
					<g class="st149">
						<path d="M172.8918,176.0162h44.7236c1.7923,0,3.2471-1.4548,3.2471-3.2471v-24.1646l-25.6095,13.7046l-24.7409,12.6623
							C171.1046,175.6125,171.9496,176.0162,172.8918,176.0162z"/>
					</g>
				</g>
				<g id="Text_1_" class="st164">
					<g class="st163">
						<rect x="179.5649" y="130.0741" width="33.2723" height="1.2173"/>
					</g>
					<g class="st163">
						<rect x="179.5649" y="132.2389" width="33.2723" height="1.216"/>
					</g>
					<g class="st163">
						<rect x="179.5649" y="134.5374" width="33.2723" height="1.2173"/>
					</g>
					<g class="st163">
						<rect x="179.5649" y="136.7695" width="33.2723" height="1.2175"/>
					</g>
					<g class="st163">
						<rect x="179.5649" y="139.6106" width="33.2723" height="1.216"/>
					</g>
					<g class="st163">
						<rect x="179.5649" y="142.9913" width="33.2723" height="1.2173"/>
					</g>
					<g class="st163">
						<rect x="179.5649" y="145.3573" width="33.2723" height="1.2173"/>
					</g>
					<g class="st163">
						<rect x="179.5649" y="147.5896" width="33.2723" height="1.2173"/>
					</g>
					<g class="st163">
						<rect x="179.5649" y="150.1592" width="33.2723" height="1.2175"/>
					</g>
				</g>
			</g>
		</g>
		<g id="Document_1_">
			<g>
				<g>
					<path class="st232" d="M182.157,17.0675h-26.3131c-0.1125-0.0038-0.225-0.0088-0.3487-0.0088c-5.8206,0-11.6424,0-17.4617,0
						c-1.4835,0-2.6984,1.2162-2.6984,2.6984v24.9346c0,1.4824,1.2148,2.6972,2.6984,2.6972h42.7324
						c1.4824,0,2.6985-1.2149,2.6985-2.6972V20.6333v-2.2599C183.4644,17.6536,182.8758,17.0675,182.157,17.0675z M156.24,17.0925
						h-0.0011H156.24z M156.5887,17.1361h-0.0037H156.5887z M158.7273,19.9595c0.0099,0.0112,0.0175,0.0225,0.0287,0.0337
						C158.7448,19.982,158.7372,19.9708,158.7273,19.9595z M158.5411,19.6884c0.0024,0.0049,0.0049,0.0099,0.0062,0.015
						C158.546,19.6984,158.5436,19.6933,158.5411,19.6884z M158.6236,19.8272c0.0062,0.0086,0.0113,0.0174,0.0174,0.0262
						C158.6349,19.8446,158.6298,19.8358,158.6236,19.8272z M158.8548,20.0859c0.0137,0.0113,0.0262,0.0236,0.0412,0.0362
						C158.881,20.1095,158.8685,20.0972,158.8548,20.0859z M159.0098,20.2021c0.0188,0.0124,0.0362,0.0262,0.0563,0.0375
						C159.046,20.2284,159.0286,20.2145,159.0098,20.2021z M159.1973,20.3082c0.0236,0.0112,0.045,0.0251,0.0712,0.0364
						C159.2434,20.3334,159.2209,20.3195,159.1973,20.3082z M159.4185,20.402c0.03,0.0101,0.0562,0.0225,0.0874,0.0326
						C159.4748,20.4245,159.4485,20.4121,159.4185,20.402z M159.6797,20.482c0.035,0.0088,0.0675,0.0188,0.105,0.0276
						C159.7472,20.5008,159.7148,20.4909,159.6797,20.482z M159.9821,20.5471c0.0426,0.0062,0.08,0.015,0.1237,0.0212
						C160.0621,20.5621,160.0247,20.5533,159.9821,20.5471z M160.3409,20.5945c0.045,0.0051,0.0849,0.0099,0.1312,0.0137
						C160.4259,20.6045,160.3859,20.5996,160.3409,20.5945z M160.7695,20.6245c0.0401,0.0024,0.0776,0.0051,0.12,0.0062
						C160.8471,20.6296,160.8096,20.627,160.7695,20.6245z"/>
				</g>
				<g class="st133">
					<path class="st21" d="M182.157,17.0675h-26.3131c4.4869,0.1698,0.27,3.6596,5.5156,3.5658h22.1049v-2.2599
						C183.4644,17.6536,182.8758,17.0675,182.157,17.0675z"/>
				</g>
				<g>
					<path class="st234" d="M161.3595,20.6333h19.6664c-0.4111-1.3873-1.6999-2.4085-3.2147-2.4085h-19.6526
						C158.5211,19.291,158.0087,20.6933,161.3595,20.6333z"/>
				</g>
				<g>
					<rect x="148.751" y="25.5903" class="st235" width="21.2937" height="12.3934"/>
				</g>
				<g>
					<rect x="150.647" y="29.7946" class="st14" width="17.5016" height="0.8238"/>
				</g>
				<g>
					<rect x="150.647" y="31.172" class="st14" width="17.5016" height="0.8249"/>
				</g>
				<g>
					<rect x="150.647" y="32.5494" class="st14" width="17.5016" height="0.8249"/>
				</g>
				<g>
					<rect x="150.647" y="33.928" class="st14" width="17.5016" height="0.8236"/>
				</g>
				<g class="st149">
					<path d="M173.6069,47.3889h7.159c1.4824,0,2.6985-1.2149,2.6985-2.6972V29.5685
						C181.5846,35.6003,178.3651,43.5105,173.6069,47.3889z"/>
				</g>
			</g>
			<g id="Document_2_">
				<g>
					<path class="st236" d="M200.8849,29.1473h-31.5401c-0.135-0.005-0.27-0.0088-0.4173-0.0088c-6.9768,0-13.9534,0-20.93,0
						c-1.7773,0-3.2347,1.3675-3.2347,3.0347v28.0454c0,1.6674,1.4575,3.0347,3.2347,3.0347h51.219
						c1.776,0,3.2332-1.3673,3.2332-3.0347V33.158v-2.5409C202.4496,29.8072,201.746,29.1473,200.8849,29.1473z M169.8198,29.176
						h-0.0013H169.8198z M170.2371,29.2247h-0.0024H170.2371z M172.8007,32.4006c0.0112,0.0126,0.0225,0.0251,0.0349,0.0375
						C172.8232,32.4257,172.812,32.4131,172.8007,32.4006z M172.5782,32.0957c0.0024,0.0062,0.0051,0.0112,0.0088,0.0161
						C172.5833,32.107,172.5806,32.1006,172.5782,32.0957z M172.677,32.2506c0.0075,0.0101,0.0137,0.0201,0.0212,0.03
						C172.6907,32.2707,172.6845,32.2607,172.677,32.2506z M172.9544,32.5419c0.0161,0.0137,0.0311,0.0287,0.0488,0.0413
						C172.9856,32.5706,172.9706,32.5556,172.9544,32.5419z M173.1406,32.6732c0.0225,0.015,0.0426,0.0287,0.0675,0.0424
						C173.1832,32.7019,173.1631,32.6882,173.1406,32.6732z M173.3643,32.7932c0.0289,0.0124,0.0551,0.0274,0.0862,0.0399
						C173.4194,32.8205,173.3931,32.8055,173.3643,32.7932z M173.6305,32.8981c0.0351,0.0124,0.0675,0.0249,0.105,0.0362
						C173.698,32.9231,173.6655,32.9105,173.6305,32.8981z M173.943,32.9881c0.0425,0.0099,0.08,0.0225,0.125,0.0311
						C174.0231,33.0106,173.9856,32.9981,173.943,32.9881z M174.3067,33.0605c0.0488,0.0075,0.095,0.0176,0.1475,0.0251
						C174.4018,33.0781,174.3555,33.068,174.3067,33.0605z M174.7366,33.1156c0.0525,0.0049,0.1001,0.0112,0.1564,0.015
						C174.8367,33.1269,174.7891,33.1205,174.7366,33.1156z M175.2492,33.1494c0.0488,0.0011,0.0938,0.0049,0.1436,0.0062
						C175.3429,33.1542,175.2979,33.1505,175.2492,33.1494z"/>
				</g>
				<g class="st133">
					<path class="st21" d="M200.8849,29.1473h-31.5401c5.3782,0.1912,0.3251,4.117,6.6118,4.0107h26.4931v-2.5409
						C202.4496,29.8072,201.746,29.1473,200.8849,29.1473z"/>
				</g>
				<g>
					<path class="st237" d="M175.9565,33.158h23.5722c-0.4923-1.5598-2.0371-2.7096-3.8546-2.7096h-23.5547
						C172.5544,31.6482,171.9408,33.2255,175.9565,33.158z"/>
				</g>
				<g>
					<rect x="160.8445" y="38.7336" class="st235" width="25.5221" height="13.9409"/>
				</g>
				<g>
					<rect x="163.1167" y="43.4631" class="st232" width="20.9763" height="0.9275"/>
				</g>
				<g>
					<rect x="163.1167" y="45.013" class="st232" width="20.9763" height="0.9261"/>
				</g>
				<g>
					<rect x="163.1167" y="46.5626" class="st232" width="20.9763" height="0.9275"/>
				</g>
				<g>
					<rect x="163.1167" y="48.1112" class="st232" width="20.9763" height="0.9287"/>
				</g>
			</g>
		</g>
		<g id="Command_1_">
			<g>
				<g>
					<path class="st228" d="M69.2154,22.0919c15.8456,0,28.6916,9.8324,28.6916,21.9623c0,8.4641-6.2607,15.8057-15.4246,19.4728
						c1.0274,2.2672,2.941,5.1444,6.458,7.2816c0,0-6.3755-2.6747-9.725-6.1656c-3.1148,0.8875-6.483,1.3737-10.0001,1.3737
						c-15.8456,0-28.6916-9.8327-28.6916-21.9625S53.3698,22.0919,69.2154,22.0919z"/>
				</g>
				<g>
					<g class="st133">
						<circle cx="86.5064" cy="44.0542" r="2.4335"/>
					</g>
					<g class="st133">
						<circle cx="77.2194" cy="44.0542" r="2.4335"/>
					</g>
					<g class="st133">
						<circle cx="68.5745" cy="44.0542" r="2.4337"/>
					</g>
					<g class="st133">
						<circle cx="59.9926" cy="44.0542" r="2.4335"/>
					</g>
					<g class="st133">
						<circle cx="50.8988" cy="44.0542" r="2.4335"/>
					</g>
				</g>
				<g class="st133">
					<path d="M97.907,44.0542c-0.0013,8.4641-6.2607,15.8057-15.4246,19.4728c1.0274,2.2672,2.941,5.1444,6.458,7.2816
						c0,0-6.3755-2.6747-9.725-6.1656c-3.1148,0.8875-6.483,1.3737-10.0001,1.3737c-15.8456,0-28.6916-9.8327-28.6916-21.9625
						H97.907z"/>
				</g>
			</g>
			<g>
				<g>
					<path class="st238" d="M57.5592,15.4314c-15.8456,0-28.6903,9.8327-28.6903,21.9625c0,8.4639,6.2593,15.8055,15.4232,19.4726
						c-1.0274,2.2674-2.941,5.1444-6.458,7.2816c0,0,6.3755-2.6746,9.725-6.1654c3.1148,0.8873,6.483,1.3735,10.0001,1.3735
						c15.8456,0,28.6916-9.8325,28.6916-21.9623S73.4048,15.4314,57.5592,15.4314z"/>
				</g>
				<g>
					<g class="st242">
						<circle class="st3" cx="40.2682" cy="37.3939" r="2.4335"/>
					</g>
					<g class="st242">
						<circle class="st3" cx="49.5555" cy="37.3939" r="2.4338"/>
					</g>
					<g class="st242">
						<circle class="st3" cx="58.2001" cy="37.3939" r="2.4337"/>
					</g>
					<g class="st242">
						<circle class="st3" cx="66.782" cy="37.3939" r="2.4335"/>
					</g>
					<g class="st242">
						<circle class="st3" cx="75.8758" cy="37.3939" r="2.4335"/>
					</g>
				</g>
				<g class="st133">
					<path d="M28.8689,37.3939c0,8.4639,6.2593,15.8055,15.4232,19.4726c-1.0274,2.2674-2.941,5.1444-6.458,7.2816
						c0,0,6.3755-2.6746,9.725-6.1654c3.1148,0.8873,6.483,1.3735,10.0001,1.3735c15.8456,0,28.6916-9.8325,28.6916-21.9623H28.8689
						z"/>
				</g>
			</g>
		</g>
	</g>
</g>
</svg>
