<?xml version="1.0" encoding="utf-8"?>
<!-- Generator: Adobe Illustrator 21.0.2, SVG Export Plug-In . SVG Version: 6.00 Build 0)  -->
<svg version="1.1" id="Capa_1" xmlns="http://www.w3.org/2000/svg" xmlns:xlink="http://www.w3.org/1999/xlink" x="0px" y="0px"
	 viewBox="0 0 202.4841 33.6754" style="enable-background:new 0 0 202.4841 33.6754;" xml:space="preserve">
<style type="text/css">
	.st0{fill-rule:evenodd;clip-rule:evenodd;fill:#DDDDDD;}
	.st1{fill:#3B86B1;}
	.st2{opacity:0.25;fill-rule:evenodd;clip-rule:evenodd;fill:#020202;}
	.st3{fill:#FFFFFF;}
	.st4{opacity:0.5;}
	.st5{fill-rule:evenodd;clip-rule:evenodd;fill:#A8A8A8;}
	.st6{fill-rule:evenodd;clip-rule:evenodd;fill:#FFFFFF;}
	.st7{fill-rule:evenodd;clip-rule:evenodd;fill:#3B86B1;}
	.st8{opacity:0.5;fill:#2C6882;}
	.st9{opacity:0.75;fill-rule:evenodd;clip-rule:evenodd;fill:#282828;}
	.st10{opacity:0.5;fill:#FFFFFF;}
	.st11{fill-rule:evenodd;clip-rule:evenodd;fill:none;stroke:#FFFFFF;stroke-miterlimit:10;}
	.st12{fill:none;stroke:#FFFFFF;stroke-miterlimit:10;}
	.st13{fill:#FFFFFF;stroke:#3B86B1;stroke-width:1.7139;stroke-miterlimit:10;}
	.st14{fill-rule:evenodd;clip-rule:evenodd;}
	.st15{opacity:0.85;fill:#FFFFFF;}
	.st16{opacity:0.5;fill-rule:evenodd;clip-rule:evenodd;}
	.st17{fill-rule:evenodd;clip-rule:evenodd;fill:#FEFEFE;}
	.st18{fill:#312767;}
	.st19{opacity:0.48;}
	.st20{opacity:0.25;}
	.st21{fill-rule:evenodd;clip-rule:evenodd;fill:#020202;}
	.st22{fill:#757575;}
	.st23{opacity:0.25;clip-path:url(#XMLID_3763_);}
	.st24{fill:#FFFFFF;stroke:#312767;stroke-miterlimit:10;}
	.st25{fill:#ACABC9;}
	.st26{fill-rule:evenodd;clip-rule:evenodd;fill:#312767;}
	.st27{opacity:0.77;fill:#312767;}
	.st28{opacity:0.25;clip-path:url(#XMLID_3771_);}
	.st29{fill:#9490B2;stroke:#2D2D2D;stroke-width:0.25;stroke-miterlimit:10;}
	.st30{fill:#312767;stroke:#2D2D2D;stroke-width:0.25;stroke-miterlimit:10;}
	.st31{fill:#FCFCFC;}
	.st32{fill:#FFFFFF;stroke:#2D2D2D;stroke-width:0.25;stroke-miterlimit:10;}
	.st33{fill-rule:evenodd;clip-rule:evenodd;fill:#484849;stroke:#2D2D2D;stroke-width:0.25;stroke-miterlimit:10;}
	.st34{fill-rule:evenodd;clip-rule:evenodd;fill:#312767;stroke:#2D2D2D;stroke-width:0.25;stroke-miterlimit:10;}
	.st35{fill-rule:evenodd;clip-rule:evenodd;fill:#FFFFFF;stroke:#2D2D2D;stroke-width:0.25;stroke-miterlimit:10;}
	.st36{fill:#484849;stroke:#2D2D2D;stroke-width:0.25;stroke-miterlimit:10;}
	.st37{fill:#FFFFFF;stroke:#FFFFFF;stroke-miterlimit:10;}
	.st38{fill:#54518C;}
	.st39{opacity:0.25;fill-rule:evenodd;clip-rule:evenodd;fill:#FFFFFF;}
	.st40{fill:#D4A800;}
	.st41{fill:#00AEB3;}
	.st42{fill:#38353B;}
	.st43{fill:#FF8400;}
	.st44{fill:#BF3900;}
	.st45{fill:#00AA9C;}
	.st46{opacity:0.25;clip-path:url(#XMLID_3783_);}
	.st47{fill:none;stroke:#ACABC9;stroke-width:5;stroke-miterlimit:10;}
	.st48{opacity:0.25;clip-path:url(#XMLID_3784_);}
	.st49{fill:#DDDDDD;}
	.st50{opacity:0.25;clip-path:url(#XMLID_3790_);}
	.st51{fill-rule:evenodd;clip-rule:evenodd;fill:#FFFFFF;stroke:#FFFFFF;stroke-miterlimit:10;}
	.st52{fill:#F79748;}
	.st53{fill:#FF7900;}
	.st54{fill:#DD7105;}
	.st55{fill:#02897C;}
	.st56{fill:#0EAD9A;}
	.st57{fill:#28C6AF;}
	.st58{fill:#4FE0C7;}
	.st59{fill:#D37D00;}
	.st60{fill:#D14600;}
	.st61{fill:#E5B92E;}
	.st62{fill:#DD571B;}
	.st63{fill:#E28A17;}
	.st64{opacity:0.25;clip-path:url(#XMLID_3791_);}
	.st65{opacity:0.77;fill:#FFFFFF;}
	.st66{fill:#50565B;stroke:#656C70;stroke-miterlimit:10;}
	.st67{fill:#808589;stroke:#656C70;stroke-miterlimit:10;}
	.st68{fill:#252728;stroke:#000000;stroke-miterlimit:10;}
	.st69{fill:#1A1B1C;stroke:#000000;stroke-miterlimit:10;}
	.st70{fill:#A0A6AA;}
	.st71{fill:#262C35;stroke:#161A1E;stroke-miterlimit:10;}
	.st72{fill:#181D23;}
	.st73{fill:#EABA96;stroke:#E0AA86;stroke-miterlimit:10;}
	.st74{fill:#E0AA86;}
	.st75{stroke:#000000;stroke-width:0.75;stroke-linecap:square;stroke-linejoin:bevel;stroke-miterlimit:10;}
	.st76{fill:#0F1C3F;stroke:#182951;stroke-miterlimit:10;}
	.st77{fill:#132354;stroke:#3F6093;stroke-miterlimit:10;}
	.st78{fill:#0F1C3F;}
	.st79{fill:none;stroke:#3F6093;stroke-width:0.75;stroke-miterlimit:10;}
	.st80{fill:#DBA682;}
	.st81{fill:none;stroke:#E0AA86;stroke-miterlimit:10;}
	.st82{fill:none;stroke:#E0AA86;stroke-linejoin:bevel;stroke-miterlimit:10;}
	.st83{fill:#8A0A8E;stroke:#AC34B2;stroke-miterlimit:10;}
	.st84{fill:#810C87;}
	.st85{fill:#680B6D;}
	.st86{fill:#AC34B2;stroke:#AC34B2;stroke-width:0.5;stroke-miterlimit:10;}
	.st87{fill:none;stroke:#959DA0;stroke-width:0.5;stroke-miterlimit:10;}
	.st88{fill:#959DA0;stroke:#959DA0;stroke-width:0.5;stroke-miterlimit:10;}
	.st89{fill:none;stroke:#AC34B2;stroke-miterlimit:10;}
	.st90{fill:#282828;stroke:#000000;stroke-miterlimit:10;}
	.st91{fill:#EABA96;stroke:#E0AA86;stroke-width:0.5;stroke-miterlimit:10;}
	.st92{fill:#B7896A;}
	.st93{stroke:#000000;stroke-miterlimit:10;}
	.st94{fill:#C1A578;}
	.st95{stroke:#000000;stroke-width:0.25;stroke-linecap:round;stroke-linejoin:round;stroke-miterlimit:10;}
	.st96{fill:#FFFFFF;stroke:#000000;stroke-width:0.25;stroke-linecap:round;stroke-linejoin:round;stroke-miterlimit:10;}
	.st97{fill:#70582D;}
	.st98{stroke:#000000;stroke-linecap:round;stroke-linejoin:round;stroke-miterlimit:10;}
	.st99{fill:none;stroke:#D8A27D;stroke-width:0.75;stroke-miterlimit:10;}
	.st100{fill:#561409;}
	.st101{fill:#BA2A13;}
	.st102{fill:#9E3025;stroke:#4C2311;stroke-width:0.25;stroke-miterlimit:10;}
	.st103{fill:#871D08;stroke:#4C2311;stroke-width:0.25;stroke-miterlimit:10;}
	.st104{fill:#DDAC8A;}
	.st105{fill:#A5ABAD;stroke:#959DA0;stroke-width:0.5;stroke-miterlimit:10;}
	.st106{fill:#B1BABC;}
	.st107{fill:none;stroke:#153847;stroke-width:5;stroke-miterlimit:10;}
	.st108{fill:#3CA7AF;}
	.st109{fill:#3DAD8D;}
	.st110{fill:#3DAA61;}
	.st111{fill:#67A53F;}
	.st112{fill:#95A340;}
	.st113{opacity:0.25;clip-path:url(#XMLID_3797_);}
	.st114{opacity:0.25;clip-path:url(#XMLID_3798_);}
	.st115{opacity:0.25;clip-path:url(#XMLID_3804_);}
	.st116{opacity:0.25;clip-path:url(#XMLID_3805_);}
	.st117{clip-path:url(#SVGID_2_);}
	.st118{fill:none;stroke:#3F6093;stroke-miterlimit:10;}
	.st119{fill:none;stroke:#3F6093;stroke-width:0.75;stroke-linecap:round;stroke-linejoin:round;}
	.st120{fill:none;stroke:#3F6093;stroke-width:0.75;stroke-linecap:round;stroke-linejoin:round;stroke-dasharray:0.9892,0.9892;}
	
		.st121{fill:none;stroke:#3F6093;stroke-width:0.75;stroke-linecap:round;stroke-linejoin:round;stroke-miterlimit:10;stroke-dasharray:1;}
	.st122{fill:#EAEAEA;stroke:#FFFFFF;stroke-width:0.25;stroke-miterlimit:10;}
	.st123{fill:#D8D8D8;}
	.st124{fill:#282828;stroke:#000000;stroke-width:0.75;stroke-miterlimit:10;}
	.st125{opacity:0.33;fill:#FFFFFF;}
	.st126{fill:none;stroke:#000000;stroke-width:1.5;stroke-linecap:round;stroke-linejoin:round;stroke-miterlimit:10;}
	.st127{opacity:0.64;}
	.st128{fill:#C9C9C9;}
	.st129{fill:#FFF064;}
	.st130{fill:#4F4E4F;}
	.st131{fill:#1E2F47;}
	.st132{opacity:0.1;fill:#FFFFFF;}
	.st133{opacity:0.1;}
	.st134{opacity:0.4;fill:#FFFFFF;}
	.st135{fill-rule:evenodd;clip-rule:evenodd;fill:#F39C12;}
	.st136{fill-rule:evenodd;clip-rule:evenodd;fill:#E6E6E6;}
	.st137{fill-rule:evenodd;clip-rule:evenodd;fill:#474646;}
	.st138{fill-rule:evenodd;clip-rule:evenodd;fill:#D84848;}
	.st139{opacity:0.2;fill-rule:evenodd;clip-rule:evenodd;fill:#231F20;}
	.st140{opacity:0.1;fill-rule:evenodd;clip-rule:evenodd;fill:#231F20;}
	.st141{fill-rule:evenodd;clip-rule:evenodd;fill:#4D4D4D;}
	.st142{fill-rule:evenodd;clip-rule:evenodd;fill:#336699;}
	.st143{fill-rule:evenodd;clip-rule:evenodd;fill:#FF6633;}
	.st144{fill-rule:evenodd;clip-rule:evenodd;fill:#0056A3;}
	.st145{fill-rule:evenodd;clip-rule:evenodd;fill:#33CC99;}
	.st146{fill:#CE6405;}
	.st147{opacity:0.2;fill:#FFFFFF;}
	.st148{fill:#1ABC9C;}
	.st149{opacity:0.2;}
	.st150{fill:#0B2E44;}
	.st151{fill-rule:evenodd;clip-rule:evenodd;fill:#154F77;}
	.st152{fill-rule:evenodd;clip-rule:evenodd;fill:#0D3858;}
	.st153{fill-rule:evenodd;clip-rule:evenodd;fill:#FFFEFE;}
	.st154{fill:#AEC647;}
	.st155{fill:#F3AE1B;}
	.st156{fill:#DF3F11;}
	.st157{fill:#BCDEDE;}
	.st158{fill:#C84119;}
	.st159{fill:#6BB5CE;}
	.st160{fill:#00D0E5;}
	.st161{fill:#FF81ED;}
	.st162{fill:#00C982;}
	.st163{opacity:0.7;}
	.st164{opacity:0.4;}
	.st165{fill-rule:evenodd;clip-rule:evenodd;fill:#0B2E44;}
	.st166{opacity:0.8;fill-rule:evenodd;clip-rule:evenodd;fill:#FFFFFF;}
	.st167{fill:#424242;}
	.st168{opacity:0.2;fill-rule:evenodd;clip-rule:evenodd;fill:#FFFFFF;}
	.st169{fill:#D0EDFA;}
	.st170{fill:#FF651F;}
	.st171{fill:#0051C4;}
	.st172{fill:#E46400;}
	.st173{fill:#C0003B;}
	.st174{fill:#FFEA50;}
	.st175{fill:#FF2C0D;}
	.st176{fill:#FF1A2C;}
	.st177{fill:#FF2C4D;}
	.st178{fill:#FFD74C;}
	.st179{fill:#4C4C4B;}
	.st180{fill:#6CD2EA;}
	.st181{fill:#F7674F;}
	.st182{opacity:0.1;fill-rule:evenodd;clip-rule:evenodd;}
	.st183{fill:#BABABA;}
	.st184{fill:#F9B946;}
	.st185{fill:#4D4789;}
	.st186{fill:#DFC2A9;}
	.st187{fill:#BFA490;}
	.st188{fill:#F5D4B2;}
	.st189{fill:#DF584C;}
	.st190{fill:#C2443E;}
	.st191{fill:#DBDBDA;}
	.st192{fill:#2F363E;}
	.st193{fill:#332524;}
	.st194{fill:#473735;}
	.st195{opacity:0.25;clip-path:url(#XMLID_3806_);}
	.st196{fill:#153847;}
	.st197{fill:#52B8BA;}
	.st198{fill:#35373E;}
	.st199{opacity:0.25;clip-path:url(#XMLID_3807_);}
	.st200{opacity:0.31;fill:#34383A;}
	.st201{opacity:0.16;fill:#3D3835;}
	.st202{fill:#D0D1D4;}
	.st203{opacity:0.31;}
	.st204{fill:#34383A;}
	.st205{opacity:0.16;}
	.st206{fill:#3D3835;}
	.st207{opacity:0.25;clip-path:url(#XMLID_3808_);}
	.st208{fill:#F9E1B4;}
	.st209{opacity:0.25;fill:#050505;}
	.st210{fill:#FCC60F;}
	.st211{fill:#74CAEA;}
	.st212{fill:#050505;}
	.st213{opacity:0.25;clip-path:url(#XMLID_3809_);}
	.st214{fill:#FABC8F;}
	.st215{fill:#3FA995;}
	.st216{opacity:0.17;fill:#020202;}
	.st217{fill:#E1E1E1;}
	.st218{opacity:0.17;}
	.st219{fill:#020202;}
	.st220{opacity:0.25;clip-path:url(#XMLID_3810_);}
	.st221{fill:#BF8E00;}
	.st222{fill:#F7D8D7;}
	.st223{fill:#F18636;}
	.st224{fill:#004460;}
	.st225{fill:#D93A37;}
	.st226{fill:#EDEDED;}
	.st227{fill:#184F78;}
	.st228{fill:#FF3E03;}
	.st229{opacity:0.6;fill:#0F0F0F;}
	.st230{fill:#E8E8E6;}
	.st231{fill:#00EAA6;}
	.st232{fill-rule:evenodd;clip-rule:evenodd;fill:#FF3E03;}
	.st233{opacity:0.1;fill-rule:evenodd;clip-rule:evenodd;fill:#020202;}
	.st234{fill-rule:evenodd;clip-rule:evenodd;fill:#FABE00;}
	.st235{fill-rule:evenodd;clip-rule:evenodd;fill:#E6E8E8;}
	.st236{fill-rule:evenodd;clip-rule:evenodd;fill:#F7D959;}
	.st237{fill-rule:evenodd;clip-rule:evenodd;fill:#F9623E;}
	.st238{fill:#4F1A0F;}
	.st239{opacity:0.46;fill:#FFFFFF;}
	.st240{opacity:0.6;}
	.st241{fill:#0F0F0F;}
	.st242{opacity:0.46;}
	.st243{fill:#48505A;}
	.st244{fill:#C3C3C3;}
	.st245{fill:#E9E9EA;}
	.st246{fill:#9D9E9F;}
	.st247{fill:#F6F4F4;}
	.st248{fill:#6B6A6A;}
	.st249{fill:#C09478;}
	.st250{fill:#F7CDA0;}
	.st251{fill:#9E1010;}
	.st252{fill:#F2F2F2;}
	.st253{opacity:0.2;fill:#060606;}
	.st254{fill:#16AFBE;}
	.st255{fill:#DD2222;}
	.st256{fill:#FFEDDC;}
	.st257{fill:#22272B;}
	.st258{fill:#5B6375;}
	.st259{fill:#060606;}
</style>
<g>
	<g id="XMLID_3788_">
		<g id="XMLID_3789_">
			<polygon class="st38" points="187.9621,0.0001 202.4841,16.8377 187.9621,33.6754 174.743,33.6754 189.265,16.8377 
				174.743,0.0001 187.9621,0.0001 			"/>
		</g>
	</g>
	<g id="XMLID_3786_">
		<g id="XMLID_3787_">
			<polygon class="st38" points="14.522,33.6753 0,16.8376 14.522,0 27.7411,0 13.2191,16.8376 27.7411,33.6753 14.522,33.6753 			
				"/>
		</g>
	</g>
	<g id="XMLID_3785_">
		<polygon class="st18" points="31.7411,0 171.743,0.0001 186.265,16.8377 171.743,33.6754 31.7411,33.6753 17.2191,16.8376 		"/>
	</g>
	<g>
		<g>
			<path class="st3" d="M61.8045,9.1152h2.6016v6.9785c0,1.1074,0.0313,1.8252,0.0957,2.1533
				c0.1113,0.5273,0.377,0.9512,0.7959,1.2705s0.9912,0.4785,1.7178,0.4785c0.7383,0,1.2949-0.1504,1.6699-0.4531
				c0.375-0.3008,0.6016-0.6719,0.6777-1.1113s0.1133-1.1689,0.1133-2.1885V9.1152h2.6016v6.7676
				c0,1.5469-0.0703,2.6396-0.2109,3.2783s-0.3994,1.1777-0.7773,1.6172s-0.8828,0.79-1.5156,1.0498
				c-0.6328,0.2607-1.459,0.3916-2.4785,0.3916c-1.2305,0-2.1641-0.1426-2.7998-0.4268c-0.6357-0.2832-1.1377-0.6523-1.5068-1.1074
				c-0.3691-0.4531-0.6133-0.9297-0.7305-1.4277c-0.1699-0.7383-0.2539-1.8281-0.2539-3.2695V9.1152z"/>
		</g>
		<g>
			<path class="st3" d="M73.9334,19.3369l2.4785-0.3779c0.1055,0.4805,0.3184,0.8457,0.6406,1.0938
				c0.3223,0.25,0.7734,0.374,1.3535,0.374c0.6387,0,1.1191-0.1172,1.4414-0.3516c0.2168-0.1641,0.3262-0.3838,0.3262-0.6592
				c0-0.1875-0.0586-0.3428-0.1758-0.4658c-0.123-0.1172-0.3984-0.2256-0.8262-0.3252c-1.9922-0.4395-3.2559-0.8408-3.7891-1.2041
				c-0.7383-0.5039-1.1074-1.2041-1.1074-2.1006c0-0.8086,0.3203-1.4883,0.959-2.0391s1.6289-0.8262,2.9707-0.8262
				c1.2773,0,2.2266,0.208,2.8477,0.624s1.0488,1.0313,1.2832,1.8457l-2.3301,0.4307c-0.0996-0.3633-0.2881-0.6416-0.5664-0.835
				s-0.6758-0.29-1.1914-0.29c-0.6504,0-1.1152,0.0908-1.3965,0.2725c-0.1875,0.1289-0.2813,0.2959-0.2813,0.501
				c0,0.1758,0.082,0.3252,0.2461,0.4482c0.2227,0.1641,0.9912,0.3955,2.3066,0.6943c1.3154,0.2988,2.2344,0.665,2.7559,1.0986
				c0.5156,0.4395,0.7734,1.0518,0.7734,1.8369c0,0.8555-0.3574,1.5908-1.0723,2.2061s-1.7734,0.9229-3.1738,0.9229
				c-1.2715,0-2.2773-0.2578-3.0186-0.7734S74.1619,20.2217,73.9334,19.3369z"/>
		</g>
		<g>
			<path class="st3" d="M90.9569,22v-1.3975c-0.3398,0.498-0.7861,0.8906-1.3398,1.1777s-1.1387,0.4307-1.7539,0.4307
				c-0.627,0-1.1895-0.1377-1.6875-0.4131s-0.8574-0.6621-1.0801-1.1602s-0.334-1.1865-0.334-2.0654V12.666h2.4688v4.2891
				c0,1.3125,0.0459,2.1172,0.1367,2.4121c0.0908,0.2969,0.2559,0.5313,0.4961,0.7031c0.2402,0.1738,0.5449,0.2598,0.9141,0.2598
				c0.4219,0,0.8008-0.1152,1.1348-0.3477c0.334-0.2305,0.5625-0.5176,0.6855-0.8613c0.123-0.3418,0.1836-1.1816,0.1836-2.5176
				V12.666h2.4707V22H90.9569z"/>
		</g>
		<g>
			<path class="st3" d="M97.6541,15.5137l-2.2402-0.4043c0.252-0.9023,0.6855-1.5703,1.3008-2.0039s1.5293-0.6504,2.7422-0.6504
				c1.1016,0,1.9219,0.1309,2.4609,0.3906c0.5391,0.2617,0.918,0.5928,1.1377,0.9941s0.3291,1.1377,0.3291,2.21l-0.0254,2.8828
				c0,0.8203,0.0391,1.4258,0.1182,1.8154s0.2275,0.8066,0.4443,1.252h-2.4434c-0.0645-0.1641-0.1445-0.4072-0.2383-0.7295
				c-0.041-0.1465-0.0703-0.2432-0.0879-0.29c-0.4219,0.4102-0.873,0.7178-1.3535,0.9229s-0.9922,0.3076-1.5371,0.3076
				c-0.9609,0-1.7188-0.2607-2.2725-0.7822s-0.8311-1.1807-0.8311-1.9775c0-0.5273,0.127-0.998,0.3789-1.4102
				c0.252-0.4141,0.6045-0.7305,1.0586-0.9492c0.4541-0.2207,1.1094-0.4121,1.9648-0.5762
				c1.1543-0.2168,1.9531-0.4189,2.3984-0.6064v-0.2461c0-0.4746-0.1172-0.8135-0.3516-1.0146
				c-0.2344-0.2031-0.6758-0.3037-1.3262-0.3037c-0.4395,0-0.7832,0.0869-1.0293,0.2588
				C98.0057,14.7773,97.8065,15.0801,97.6541,15.5137z M100.9588,17.5176c-0.3164,0.1055-0.8164,0.2314-1.502,0.3779
				s-1.1348,0.29-1.3457,0.4307c-0.3223,0.2285-0.4824,0.5186-0.4824,0.8701c0,0.3457,0.1289,0.6445,0.3867,0.8965
				s0.5859,0.3779,0.9844,0.3779c0.4453,0,0.8691-0.1465,1.2734-0.4395c0.2988-0.2227,0.4961-0.4951,0.5898-0.8174
				c0.0645-0.2109,0.0957-0.6123,0.0957-1.2041V17.5176z"/>
		</g>
		<g>
			<path class="st3" d="M108.1834,22h-2.4688v-9.334h2.293v1.3271c0.3926-0.627,0.7461-1.04,1.0596-1.2393
				s0.6689-0.2988,1.0674-0.2988c0.5625,0,1.1055,0.1553,1.627,0.4658l-0.7656,2.1533c-0.416-0.2695-0.8027-0.4043-1.1602-0.4043
				c-0.3457,0-0.6387,0.0957-0.8789,0.2852c-0.2402,0.1914-0.4287,0.5352-0.5664,1.0332c-0.1377,0.498-0.207,1.541-0.207,3.1289V22z
				"/>
		</g>
		<g>
			<path class="st3" d="M112.8241,11.4004V9.1152h2.4707v2.2852H112.8241z M112.8241,22v-9.334h2.4707V22H112.8241z"/>
		</g>
		<g>
			<path class="st3" d="M117.2537,17.2012c0-0.8203,0.2031-1.6143,0.6074-2.3818s0.9766-1.3535,1.7178-1.7578
				s1.5693-0.6064,2.4834-0.6064c1.4121,0,2.5684,0.459,3.4707,1.375c0.9023,0.918,1.3535,2.0762,1.3535,3.4766
				c0,1.4121-0.4551,2.583-1.3662,3.5117s-2.0576,1.3926-3.4404,1.3926c-0.8555,0-1.6719-0.1934-2.4482-0.5801
				s-1.3662-0.9531-1.7705-1.7012C117.4569,19.1836,117.2537,18.2734,117.2537,17.2012z M119.785,17.333
				c0,0.9258,0.2207,1.6348,0.6602,2.127s0.9805,0.7383,1.625,0.7383s1.1855-0.2461,1.6221-0.7383s0.6553-1.207,0.6553-2.1445
				c0-0.9141-0.2188-1.6172-0.6553-2.1094s-0.9775-0.7383-1.6221-0.7383s-1.1855,0.2461-1.625,0.7383
				S119.785,16.4072,119.785,17.333z"/>
		</g>
		<g>
			<path class="st3" d="M127.951,19.3369l2.4785-0.3779c0.1055,0.4805,0.3184,0.8457,0.6406,1.0938
				c0.3223,0.25,0.7734,0.374,1.3535,0.374c0.6387,0,1.1191-0.1172,1.4414-0.3516c0.2168-0.1641,0.3262-0.3838,0.3262-0.6592
				c0-0.1875-0.0586-0.3428-0.1758-0.4658c-0.123-0.1172-0.3984-0.2256-0.8262-0.3252c-1.9922-0.4395-3.2559-0.8408-3.7891-1.2041
				c-0.7383-0.5039-1.1074-1.2041-1.1074-2.1006c0-0.8086,0.3203-1.4883,0.959-2.0391s1.6289-0.8262,2.9707-0.8262
				c1.2773,0,2.2266,0.208,2.8477,0.624s1.0488,1.0313,1.2832,1.8457l-2.3301,0.4307c-0.0996-0.3633-0.2881-0.6416-0.5664-0.835
				s-0.6758-0.29-1.1914-0.29c-0.6504,0-1.1152,0.0908-1.3965,0.2725c-0.1875,0.1289-0.2813,0.2959-0.2813,0.501
				c0,0.1758,0.082,0.3252,0.2461,0.4482c0.2227,0.1641,0.9912,0.3955,2.3066,0.6943c1.3154,0.2988,2.2344,0.665,2.7559,1.0986
				c0.5156,0.4395,0.7734,1.0518,0.7734,1.8369c0,0.8555-0.3574,1.5908-1.0723,2.2061s-1.7734,0.9229-3.1738,0.9229
				c-1.2715,0-2.2773-0.2578-3.0186-0.7734S128.1795,20.2217,127.951,19.3369z"/>
		</g>
	</g>
</g>
</svg>
