<?xml version="1.0" encoding="utf-8"?>
<!-- Generator: Adobe Illustrator 21.0.2, SVG Export Plug-In . SVG Version: 6.00 Build 0)  -->
<svg version="1.1" id="Capa_1" xmlns="http://www.w3.org/2000/svg" xmlns:xlink="http://www.w3.org/1999/xlink" x="0px" y="0px"
	 viewBox="0 0 247.6376 58.1387" style="enable-background:new 0 0 247.6376 58.1387;" xml:space="preserve">
<style type="text/css">
	.st0{fill-rule:evenodd;clip-rule:evenodd;fill:#DDDDDD;}
	.st1{fill:#3B86B1;}
	.st2{opacity:0.25;fill-rule:evenodd;clip-rule:evenodd;fill:#020202;}
	.st3{fill:#FFFFFF;}
	.st4{opacity:0.5;}
	.st5{fill-rule:evenodd;clip-rule:evenodd;fill:#A8A8A8;}
	.st6{fill-rule:evenodd;clip-rule:evenodd;fill:#FFFFFF;}
	.st7{fill-rule:evenodd;clip-rule:evenodd;fill:#3B86B1;}
	.st8{opacity:0.5;fill:#2C6882;}
	.st9{opacity:0.75;fill-rule:evenodd;clip-rule:evenodd;fill:#282828;}
	.st10{opacity:0.5;fill:#FFFFFF;}
	.st11{fill-rule:evenodd;clip-rule:evenodd;fill:none;stroke:#FFFFFF;stroke-miterlimit:10;}
	.st12{fill:none;stroke:#FFFFFF;stroke-miterlimit:10;}
	.st13{fill:#FFFFFF;stroke:#3B86B1;stroke-width:1.7139;stroke-miterlimit:10;}
	.st14{fill-rule:evenodd;clip-rule:evenodd;}
	.st15{opacity:0.85;fill:#FFFFFF;}
	.st16{opacity:0.5;fill-rule:evenodd;clip-rule:evenodd;}
	.st17{fill-rule:evenodd;clip-rule:evenodd;fill:#FEFEFE;}
	.st18{fill:#312767;}
	.st19{opacity:0.48;}
	.st20{opacity:0.25;}
	.st21{fill-rule:evenodd;clip-rule:evenodd;fill:#020202;}
	.st22{fill:#757575;}
	.st23{opacity:0.25;clip-path:url(#XMLID_2330_);}
	.st24{fill:#4D4789;}
	.st25{fill:#FFFFFF;stroke:#312767;stroke-miterlimit:10;}
	.st26{fill:#FFFFFF;stroke:#3B86B1;stroke-miterlimit:10;}
	.st27{fill:#ACABC9;}
	.st28{fill-rule:evenodd;clip-rule:evenodd;fill:#312767;}
	.st29{opacity:0.77;fill:#312767;}
	.st30{opacity:0.25;clip-path:url(#XMLID_2333_);}
	.st31{fill:#9490B2;stroke:#2D2D2D;stroke-width:0.25;stroke-miterlimit:10;}
	.st32{fill:#312767;stroke:#2D2D2D;stroke-width:0.25;stroke-miterlimit:10;}
	.st33{fill:#FCFCFC;}
	.st34{fill:#FFFFFF;stroke:#2D2D2D;stroke-width:0.25;stroke-miterlimit:10;}
	.st35{fill-rule:evenodd;clip-rule:evenodd;fill:#484849;stroke:#2D2D2D;stroke-width:0.25;stroke-miterlimit:10;}
	.st36{fill-rule:evenodd;clip-rule:evenodd;fill:#312767;stroke:#2D2D2D;stroke-width:0.25;stroke-miterlimit:10;}
	.st37{fill-rule:evenodd;clip-rule:evenodd;fill:#FFFFFF;stroke:#2D2D2D;stroke-width:0.25;stroke-miterlimit:10;}
	.st38{fill:#484849;stroke:#2D2D2D;stroke-width:0.25;stroke-miterlimit:10;}
	.st39{fill:#54518C;}
	.st40{fill:#FFFFFF;stroke:#FFFFFF;stroke-miterlimit:10;}
	.st41{opacity:0.25;fill-rule:evenodd;clip-rule:evenodd;fill:#FFFFFF;}
	.st42{fill:#D4A800;}
	.st43{fill:#00AEB3;}
	.st44{fill:#38353B;}
	.st45{fill:#FF8400;}
	.st46{fill:#BF3900;}
	.st47{fill:#00AA9C;}
	.st48{opacity:0.25;clip-path:url(#XMLID_2341_);}
	.st49{fill:none;stroke:#ACABC9;stroke-width:5;stroke-miterlimit:10;}
	.st50{opacity:0.25;clip-path:url(#XMLID_2350_);}
	.st51{fill:#DDDDDD;}
	.st52{opacity:0.25;clip-path:url(#XMLID_2354_);}
	.st53{fill-rule:evenodd;clip-rule:evenodd;fill:#FFFFFF;stroke:#FFFFFF;stroke-miterlimit:10;}
	.st54{fill:#F79748;}
	.st55{fill:#FF7900;}
	.st56{fill:#DD7105;}
	.st57{fill:#02897C;}
	.st58{fill:#0EAD9A;}
	.st59{fill:#28C6AF;}
	.st60{fill:#4FE0C7;}
	.st61{fill:#D37D00;}
	.st62{fill:#D14600;}
	.st63{fill:#E5B92E;}
	.st64{fill:#DD571B;}
	.st65{fill:#E28A17;}
	.st66{opacity:0.25;clip-path:url(#XMLID_2355_);}
	.st67{opacity:0.77;fill:#FFFFFF;}
	.st68{fill:#50565B;stroke:#656C70;stroke-miterlimit:10;}
	.st69{fill:#808589;stroke:#656C70;stroke-miterlimit:10;}
	.st70{fill:#252728;stroke:#000000;stroke-miterlimit:10;}
	.st71{fill:#1A1B1C;stroke:#000000;stroke-miterlimit:10;}
	.st72{fill:#A0A6AA;}
	.st73{fill:#262C35;stroke:#161A1E;stroke-miterlimit:10;}
	.st74{fill:#181D23;}
	.st75{fill:#EABA96;stroke:#E0AA86;stroke-miterlimit:10;}
	.st76{fill:#E0AA86;}
	.st77{stroke:#000000;stroke-width:0.75;stroke-linecap:square;stroke-linejoin:bevel;stroke-miterlimit:10;}
	.st78{fill:#0F1C3F;stroke:#182951;stroke-miterlimit:10;}
	.st79{fill:#132354;stroke:#3F6093;stroke-miterlimit:10;}
	.st80{fill:#0F1C3F;}
	.st81{fill:none;stroke:#3F6093;stroke-width:0.75;stroke-miterlimit:10;}
	.st82{fill:#DBA682;}
	.st83{fill:none;stroke:#E0AA86;stroke-miterlimit:10;}
	.st84{fill:none;stroke:#E0AA86;stroke-linejoin:bevel;stroke-miterlimit:10;}
	.st85{fill:#8A0A8E;stroke:#AC34B2;stroke-miterlimit:10;}
	.st86{fill:#810C87;}
	.st87{fill:#680B6D;}
	.st88{fill:#AC34B2;stroke:#AC34B2;stroke-width:0.5;stroke-miterlimit:10;}
	.st89{fill:none;stroke:#959DA0;stroke-width:0.5;stroke-miterlimit:10;}
	.st90{fill:#959DA0;stroke:#959DA0;stroke-width:0.5;stroke-miterlimit:10;}
	.st91{fill:none;stroke:#AC34B2;stroke-miterlimit:10;}
	.st92{fill:#282828;stroke:#000000;stroke-miterlimit:10;}
	.st93{fill:#EABA96;stroke:#E0AA86;stroke-width:0.5;stroke-miterlimit:10;}
	.st94{fill:#B7896A;}
	.st95{stroke:#000000;stroke-miterlimit:10;}
	.st96{fill:#C1A578;}
	.st97{stroke:#000000;stroke-width:0.25;stroke-linecap:round;stroke-linejoin:round;stroke-miterlimit:10;}
	.st98{fill:#FFFFFF;stroke:#000000;stroke-width:0.25;stroke-linecap:round;stroke-linejoin:round;stroke-miterlimit:10;}
	.st99{fill:#70582D;}
	.st100{stroke:#000000;stroke-linecap:round;stroke-linejoin:round;stroke-miterlimit:10;}
	.st101{fill:none;stroke:#D8A27D;stroke-width:0.75;stroke-miterlimit:10;}
	.st102{fill:#561409;}
	.st103{fill:#BA2A13;}
	.st104{fill:#9E3025;stroke:#4C2311;stroke-width:0.25;stroke-miterlimit:10;}
	.st105{fill:#871D08;stroke:#4C2311;stroke-width:0.25;stroke-miterlimit:10;}
	.st106{fill:#DDAC8A;}
	.st107{fill:#A5ABAD;stroke:#959DA0;stroke-width:0.5;stroke-miterlimit:10;}
	.st108{fill:#B1BABC;}
	.st109{fill:none;stroke:#153847;stroke-width:5;stroke-miterlimit:10;}
	.st110{fill:#3CA7AF;}
	.st111{fill:#3DAD8D;}
	.st112{fill:#3DAA61;}
	.st113{fill:#67A53F;}
	.st114{fill:#95A340;}
	.st115{opacity:0.25;clip-path:url(#XMLID_2356_);}
	.st116{opacity:0.25;clip-path:url(#XMLID_2357_);}
	.st117{opacity:0.25;clip-path:url(#XMLID_2358_);}
	.st118{clip-path:url(#SVGID_2_);}
	.st119{fill:none;stroke:#3F6093;stroke-miterlimit:10;}
	.st120{fill:none;stroke:#3F6093;stroke-width:0.75;stroke-linecap:round;stroke-linejoin:round;}
	.st121{fill:none;stroke:#3F6093;stroke-width:0.75;stroke-linecap:round;stroke-linejoin:round;stroke-dasharray:0.9892,0.9892;}
	
		.st122{fill:none;stroke:#3F6093;stroke-width:0.75;stroke-linecap:round;stroke-linejoin:round;stroke-miterlimit:10;stroke-dasharray:1;}
	.st123{fill:#EAEAEA;stroke:#FFFFFF;stroke-width:0.25;stroke-miterlimit:10;}
	.st124{fill:#D8D8D8;}
	.st125{fill:#282828;stroke:#000000;stroke-width:0.75;stroke-miterlimit:10;}
	.st126{opacity:0.33;fill:#FFFFFF;}
	.st127{fill:none;stroke:#000000;stroke-width:1.5;stroke-linecap:round;stroke-linejoin:round;stroke-miterlimit:10;}
	.st128{clip-path:url(#SVGID_4_);}
	.st129{opacity:0.64;}
	.st130{fill:#1D1D1B;}
	.st131{fill:#C9C9C9;}
</style>
<g id="XMLID_2204_">
	<g id="XMLID_2212_">
		<g>
			<polygon class="st5" points="233.611,58.1387 247.6376,40.3532 237.2124,20.1843 233.611,20.1868 			"/>
		</g>
	</g>
	<rect id="XMLID_2210_" x="0.0002" class="st6" width="247.6374" height="40.3532"/>
	<g>
		<g>
			<path d="M60.1516,20.8207l2.5225,0.8008c-0.3867,1.4063-1.0298,2.4512-1.9292,3.1328c-0.8994,0.6836-2.0405,1.0234-3.4233,1.0234
				c-1.7109,0-3.1172-0.584-4.2188-1.752c-1.1016-1.1699-1.6523-2.7676-1.6523-4.7949c0-2.1445,0.5537-3.8105,1.6611-4.9961
				c1.1074-1.1875,2.5635-1.7813,4.3682-1.7813c1.5762,0,2.8564,0.4668,3.8408,1.3984c0.5859,0.5508,1.0254,1.3418,1.3184,2.373
				l-2.5752,0.6152c-0.1523-0.668-0.4702-1.1953-0.9536-1.582s-1.0708-0.5801-1.7622-0.5801c-0.9551,0-1.73,0.3418-2.3247,1.0273
				c-0.5947,0.6855-0.8921,1.7969-0.8921,3.332c0,1.6289,0.293,2.7891,0.8789,3.4805s1.3477,1.0371,2.2852,1.0371
				c0.6914,0,1.2861-0.2207,1.7842-0.6602S59.9348,21.764,60.1516,20.8207z"/>
			<path d="M64.8889,25.5589V12.6742h2.4697v12.8848H64.8889z"/>
			<path d="M69.8899,14.9593v-2.2852h2.4697v2.2852H69.8899z M69.8899,25.5589v-9.334h2.4697v9.334H69.8899z"/>
			<path d="M80.2961,22.5882l2.4609,0.4121c-0.3164,0.9023-0.8159,1.5898-1.4985,2.0625c-0.6826,0.4707-1.5366,0.707-2.562,0.707
				c-1.623,0-2.8242-0.5313-3.6035-1.5918c-0.6152-0.8496-0.9229-1.9219-0.9229-3.2168c0-1.5469,0.4043-2.7578,1.2129-3.6328
				c0.8086-0.877,1.8311-1.3145,3.0674-1.3145c1.3887,0,2.4844,0.459,3.2871,1.375c0.8027,0.918,1.1865,2.3223,1.1514,4.2148
				h-6.1875c0.0176,0.7324,0.2168,1.3027,0.5977,1.709c0.3809,0.4082,0.8555,0.6113,1.4238,0.6113
				c0.3867,0,0.7119-0.1055,0.9756-0.3164S80.1614,23.057,80.2961,22.5882z M80.4368,20.0921
				c-0.0176-0.7148-0.2021-1.2578-0.5537-1.6309c-0.3516-0.3711-0.7793-0.5586-1.2832-0.5586c-0.5391,0-0.9844,0.1973-1.3359,0.5898
				s-0.5244,0.9258-0.5186,1.5996H80.4368z"/>
			<path d="M93.3918,25.5589h-2.4697v-4.7637c0-1.0078-0.0527-1.6602-0.1582-1.9551c-0.1055-0.2969-0.2769-0.5273-0.5142-0.6914
				s-0.5229-0.2461-0.8569-0.2461c-0.4277,0-0.8115,0.1172-1.1514,0.3516s-0.5728,0.5449-0.6987,0.9316s-0.189,1.1016-0.189,2.1445
				v4.2285H84.884v-9.334h2.2939v1.3711c0.8145-1.0547,1.8398-1.582,3.0762-1.582c0.5449,0,1.043,0.0977,1.4941,0.2949
				c0.4512,0.1953,0.7925,0.4453,1.0239,0.75s0.3926,0.6504,0.4834,1.0371s0.1362,0.9414,0.1362,1.6621V25.5589z"/>
			<path d="M100.177,16.225v1.9688h-1.6875v3.7617c0,0.7617,0.0161,1.2051,0.0483,1.332c0.0322,0.125,0.1055,0.2285,0.2197,0.3105
				s0.2534,0.123,0.4175,0.123c0.2285,0,0.5596-0.0781,0.9932-0.2363l0.2109,1.916c-0.5742,0.2461-1.2246,0.3691-1.9512,0.3691
				c-0.4453,0-0.8467-0.0742-1.2041-0.2246c-0.3574-0.1484-0.6196-0.3418-0.7866-0.5801c-0.167-0.2363-0.2827-0.5586-0.3472-0.9629
				c-0.0527-0.2871-0.0791-0.8672-0.0791-1.7402v-4.0684h-1.1338V16.225h1.1338v-1.8555l2.4785-1.4414v3.2969H100.177z"/>
			<path d="M107.2961,22.5882l2.4609,0.4121c-0.3164,0.9023-0.8159,1.5898-1.4985,2.0625c-0.6826,0.4707-1.5366,0.707-2.562,0.707
				c-1.623,0-2.8242-0.5313-3.6035-1.5918c-0.6152-0.8496-0.9229-1.9219-0.9229-3.2168c0-1.5469,0.4043-2.7578,1.2129-3.6328
				c0.8086-0.877,1.8311-1.3145,3.0674-1.3145c1.3887,0,2.4844,0.459,3.2871,1.375c0.8027,0.918,1.1865,2.3223,1.1514,4.2148
				h-6.1875c0.0176,0.7324,0.2168,1.3027,0.5977,1.709c0.3809,0.4082,0.8555,0.6113,1.4238,0.6113
				c0.3867,0,0.7119-0.1055,0.9756-0.3164S107.1614,23.057,107.2961,22.5882z M107.4368,20.0921
				c-0.0176-0.7148-0.2021-1.2578-0.5537-1.6309c-0.3516-0.3711-0.7793-0.5586-1.2832-0.5586c-0.5391,0-0.9844,0.1973-1.3359,0.5898
				s-0.5244,0.9258-0.5186,1.5996H107.4368z"/>
			<path d="M111.0315,22.8949l2.4785-0.377c0.1055,0.4805,0.3193,0.8457,0.6416,1.0938c0.3223,0.25,0.7734,0.373,1.3535,0.373
				c0.6387,0,1.1191-0.1172,1.4414-0.3516c0.2168-0.1641,0.3252-0.3828,0.3252-0.6582c0-0.1875-0.0586-0.3438-0.1758-0.4668
				c-0.123-0.1172-0.3984-0.2246-0.8262-0.3242c-1.9922-0.4395-3.2549-0.8418-3.7881-1.2051
				c-0.7383-0.5039-1.1074-1.2031-1.1074-2.0996c0-0.8086,0.3193-1.4883,0.958-2.0391s1.6289-0.8262,2.9707-0.8262
				c1.2773,0,2.2266,0.207,2.8477,0.623s1.0488,1.0313,1.2832,1.8457l-2.3291,0.4316c-0.0996-0.3633-0.2886-0.6426-0.5669-0.8359
				s-0.6753-0.2891-1.1909-0.2891c-0.6504,0-1.1162,0.0898-1.3975,0.2715c-0.1875,0.1289-0.2813,0.2969-0.2813,0.502
				c0,0.1758,0.082,0.3242,0.2461,0.4473c0.2227,0.1641,0.9917,0.3965,2.3071,0.6953s2.2339,0.6641,2.7554,1.0977
				c0.5156,0.4395,0.7734,1.0527,0.7734,1.8379c0,0.8555-0.3574,1.5898-1.0723,2.2051s-1.7725,0.9238-3.1729,0.9238
				c-1.2715,0-2.2778-0.2578-3.019-0.7734S111.26,23.7796,111.0315,22.8949z"/>
		</g>
	</g>
</g>
<g>
	<path class="st38" d="M24.6343,20.8673c-2.5115,0-4.4747-2.1128-5.525-4.1735c-0.775-0.3218-1.4845-1.1701-1.8001-1.8943
		c-0.246-0.5639-0.3192-1.1708-0.207-1.7092c0.1255-0.6014,0.4791-1.0709,0.9711-1.2901c0.3541-3.3926,3.1528-5.9865,6.5612-5.9865
		c3.4079,0,6.2066,2.5939,6.5607,5.9865c0.4915,0.2185,0.8456,0.6882,0.9711,1.2901c0.1122,0.5384,0.039,1.1454-0.207,1.7092
		c-0.3156,0.7242-1.0251,1.5725-1.8001,1.8943C29.1085,18.7545,27.1457,20.8673,24.6343,20.8673z M24.6343,7.0385
		c-2.9,0-5.2585,2.3152-5.3697,5.2706l-0.0206,0.554l-0.5533,0.0344c-0.0669,0.0041-0.0999,0.0133-0.1159,0.0204
		c-0.1777,0.0774-0.2474,0.298-0.2735,0.4225c-0.06,0.2879-0.0124,0.641,0.131,0.9695c0.2785,0.6387,0.8873,1.2054,1.2459,1.2853
		l0.2909,0.0648l0.1287,0.2691c0.8566,1.7951,2.4982,3.7134,4.5365,3.7134c2.0379,0,3.6795-1.9183,4.5361-3.7134l0.1287-0.2691
		l0.2909-0.0648c0.3587-0.0799,0.9674-0.6465,1.2459-1.2853c0.1434-0.3284,0.191-0.6816,0.131-0.9695
		c-0.0261-0.1246-0.0957-0.3451-0.2725-0.4221c-0.017-0.0076-0.0499-0.0167-0.1168-0.0208l-0.5533-0.0344l-0.0206-0.554
		C29.8922,9.3537,27.5342,7.0385,24.6343,7.0385z"/>
</g>
<g>
	<path class="st31" d="M24.634,22.2976L24.634,22.2976c0.4274,0,0.7827,0.3291,0.8154,0.7553l0.7611,9.9139
		c-0.1782,0.1363-0.3627,0.2126-0.5521,0.2126h-2.0489c-0.1894,0-0.3739-0.0763-0.5521-0.2126l0.7611-9.9139
		C23.8513,22.6267,24.2066,22.2976,24.634,22.2976z"/>
</g>
<g>
	<path class="st32" d="M29.4712,21.1676l-2.4649,9.1715h-4.7445l-2.4649-9.1715c-3.2891,0.8311-5.7423,3.8229-5.7423,7.3607v6.0113
		h21.1589v-6.0113C35.2135,24.9904,32.7603,21.9986,29.4712,21.1676z"/>
</g>
<polygon id="XMLID_123_" class="st8" points="233.6108,47.5236 0,40.3532 233.611,40.3532 "/>
</svg>
