<?xml version="1.0" encoding="utf-8"?>
<!-- Generator: Adobe Illustrator 21.0.2, SVG Export Plug-In . SVG Version: 6.00 Build 0)  -->
<svg version="1.1" id="Capa_1" xmlns="http://www.w3.org/2000/svg" xmlns:xlink="http://www.w3.org/1999/xlink" x="0px" y="0px"
	 viewBox="0 0 207.7616 149.0551" style="enable-background:new 0 0 207.7616 149.0551;" xml:space="preserve">
<style type="text/css">
	.st0{fill-rule:evenodd;clip-rule:evenodd;fill:#DDDDDD;}
	.st1{fill:#3B86B1;}
	.st2{opacity:0.25;fill-rule:evenodd;clip-rule:evenodd;fill:#020202;}
	.st3{fill:#FFFFFF;}
	.st4{opacity:0.5;}
	.st5{fill-rule:evenodd;clip-rule:evenodd;fill:#A8A8A8;}
	.st6{fill-rule:evenodd;clip-rule:evenodd;fill:#FFFFFF;}
	.st7{fill-rule:evenodd;clip-rule:evenodd;fill:#3B86B1;}
	.st8{opacity:0.5;fill:#2C6882;}
	.st9{opacity:0.75;fill-rule:evenodd;clip-rule:evenodd;fill:#282828;}
	.st10{opacity:0.5;fill:#FFFFFF;}
	.st11{fill-rule:evenodd;clip-rule:evenodd;fill:none;stroke:#FFFFFF;stroke-miterlimit:10;}
	.st12{fill:none;stroke:#FFFFFF;stroke-miterlimit:10;}
	.st13{fill:#FFFFFF;stroke:#3B86B1;stroke-width:1.7139;stroke-miterlimit:10;}
	.st14{fill-rule:evenodd;clip-rule:evenodd;}
	.st15{opacity:0.85;fill:#FFFFFF;}
	.st16{opacity:0.5;fill-rule:evenodd;clip-rule:evenodd;}
	.st17{fill-rule:evenodd;clip-rule:evenodd;fill:#FEFEFE;}
	.st18{fill:#312767;}
	.st19{opacity:0.48;}
	.st20{opacity:0.25;}
	.st21{fill-rule:evenodd;clip-rule:evenodd;fill:#020202;}
	.st22{fill:#757575;}
	.st23{opacity:0.25;clip-path:url(#XMLID_3763_);}
	.st24{fill:#FFFFFF;stroke:#312767;stroke-miterlimit:10;}
	.st25{fill:#ACABC9;}
	.st26{fill-rule:evenodd;clip-rule:evenodd;fill:#312767;}
	.st27{opacity:0.77;fill:#312767;}
	.st28{opacity:0.25;clip-path:url(#XMLID_3771_);}
	.st29{fill:#9490B2;stroke:#2D2D2D;stroke-width:0.25;stroke-miterlimit:10;}
	.st30{fill:#312767;stroke:#2D2D2D;stroke-width:0.25;stroke-miterlimit:10;}
	.st31{fill:#FCFCFC;}
	.st32{fill:#FFFFFF;stroke:#2D2D2D;stroke-width:0.25;stroke-miterlimit:10;}
	.st33{fill-rule:evenodd;clip-rule:evenodd;fill:#484849;stroke:#2D2D2D;stroke-width:0.25;stroke-miterlimit:10;}
	.st34{fill-rule:evenodd;clip-rule:evenodd;fill:#312767;stroke:#2D2D2D;stroke-width:0.25;stroke-miterlimit:10;}
	.st35{fill-rule:evenodd;clip-rule:evenodd;fill:#FFFFFF;stroke:#2D2D2D;stroke-width:0.25;stroke-miterlimit:10;}
	.st36{fill:#484849;stroke:#2D2D2D;stroke-width:0.25;stroke-miterlimit:10;}
	.st37{fill:#FFFFFF;stroke:#FFFFFF;stroke-miterlimit:10;}
	.st38{fill:#54518C;}
	.st39{opacity:0.25;fill-rule:evenodd;clip-rule:evenodd;fill:#FFFFFF;}
	.st40{fill:#D4A800;}
	.st41{fill:#00AEB3;}
	.st42{fill:#38353B;}
	.st43{fill:#FF8400;}
	.st44{fill:#BF3900;}
	.st45{fill:#00AA9C;}
	.st46{opacity:0.25;clip-path:url(#XMLID_3783_);}
	.st47{fill:none;stroke:#ACABC9;stroke-width:5;stroke-miterlimit:10;}
	.st48{opacity:0.25;clip-path:url(#XMLID_3784_);}
	.st49{fill:#DDDDDD;}
	.st50{opacity:0.25;clip-path:url(#XMLID_3790_);}
	.st51{fill-rule:evenodd;clip-rule:evenodd;fill:#FFFFFF;stroke:#FFFFFF;stroke-miterlimit:10;}
	.st52{fill:#F79748;}
	.st53{fill:#FF7900;}
	.st54{fill:#DD7105;}
	.st55{fill:#02897C;}
	.st56{fill:#0EAD9A;}
	.st57{fill:#28C6AF;}
	.st58{fill:#4FE0C7;}
	.st59{fill:#D37D00;}
	.st60{fill:#D14600;}
	.st61{fill:#E5B92E;}
	.st62{fill:#DD571B;}
	.st63{fill:#E28A17;}
	.st64{opacity:0.25;clip-path:url(#XMLID_3791_);}
	.st65{opacity:0.77;fill:#FFFFFF;}
	.st66{fill:#50565B;stroke:#656C70;stroke-miterlimit:10;}
	.st67{fill:#808589;stroke:#656C70;stroke-miterlimit:10;}
	.st68{fill:#252728;stroke:#000000;stroke-miterlimit:10;}
	.st69{fill:#1A1B1C;stroke:#000000;stroke-miterlimit:10;}
	.st70{fill:#A0A6AA;}
	.st71{fill:#262C35;stroke:#161A1E;stroke-miterlimit:10;}
	.st72{fill:#181D23;}
	.st73{fill:#EABA96;stroke:#E0AA86;stroke-miterlimit:10;}
	.st74{fill:#E0AA86;}
	.st75{stroke:#000000;stroke-width:0.75;stroke-linecap:square;stroke-linejoin:bevel;stroke-miterlimit:10;}
	.st76{fill:#0F1C3F;stroke:#182951;stroke-miterlimit:10;}
	.st77{fill:#132354;stroke:#3F6093;stroke-miterlimit:10;}
	.st78{fill:#0F1C3F;}
	.st79{fill:none;stroke:#3F6093;stroke-width:0.75;stroke-miterlimit:10;}
	.st80{fill:#DBA682;}
	.st81{fill:none;stroke:#E0AA86;stroke-miterlimit:10;}
	.st82{fill:none;stroke:#E0AA86;stroke-linejoin:bevel;stroke-miterlimit:10;}
	.st83{fill:#8A0A8E;stroke:#AC34B2;stroke-miterlimit:10;}
	.st84{fill:#810C87;}
	.st85{fill:#680B6D;}
	.st86{fill:#AC34B2;stroke:#AC34B2;stroke-width:0.5;stroke-miterlimit:10;}
	.st87{fill:none;stroke:#959DA0;stroke-width:0.5;stroke-miterlimit:10;}
	.st88{fill:#959DA0;stroke:#959DA0;stroke-width:0.5;stroke-miterlimit:10;}
	.st89{fill:none;stroke:#AC34B2;stroke-miterlimit:10;}
	.st90{fill:#282828;stroke:#000000;stroke-miterlimit:10;}
	.st91{fill:#EABA96;stroke:#E0AA86;stroke-width:0.5;stroke-miterlimit:10;}
	.st92{fill:#B7896A;}
	.st93{stroke:#000000;stroke-miterlimit:10;}
	.st94{fill:#C1A578;}
	.st95{stroke:#000000;stroke-width:0.25;stroke-linecap:round;stroke-linejoin:round;stroke-miterlimit:10;}
	.st96{fill:#FFFFFF;stroke:#000000;stroke-width:0.25;stroke-linecap:round;stroke-linejoin:round;stroke-miterlimit:10;}
	.st97{fill:#70582D;}
	.st98{stroke:#000000;stroke-linecap:round;stroke-linejoin:round;stroke-miterlimit:10;}
	.st99{fill:none;stroke:#D8A27D;stroke-width:0.75;stroke-miterlimit:10;}
	.st100{fill:#561409;}
	.st101{fill:#BA2A13;}
	.st102{fill:#9E3025;stroke:#4C2311;stroke-width:0.25;stroke-miterlimit:10;}
	.st103{fill:#871D08;stroke:#4C2311;stroke-width:0.25;stroke-miterlimit:10;}
	.st104{fill:#DDAC8A;}
	.st105{fill:#A5ABAD;stroke:#959DA0;stroke-width:0.5;stroke-miterlimit:10;}
	.st106{fill:#B1BABC;}
	.st107{fill:none;stroke:#153847;stroke-width:5;stroke-miterlimit:10;}
	.st108{fill:#3CA7AF;}
	.st109{fill:#3DAD8D;}
	.st110{fill:#3DAA61;}
	.st111{fill:#67A53F;}
	.st112{fill:#95A340;}
	.st113{opacity:0.25;clip-path:url(#XMLID_3797_);}
	.st114{opacity:0.25;clip-path:url(#XMLID_3798_);}
	.st115{opacity:0.25;clip-path:url(#XMLID_3804_);}
	.st116{opacity:0.25;clip-path:url(#XMLID_3805_);}
	.st117{clip-path:url(#SVGID_2_);}
	.st118{fill:none;stroke:#3F6093;stroke-miterlimit:10;}
	.st119{fill:none;stroke:#3F6093;stroke-width:0.75;stroke-linecap:round;stroke-linejoin:round;}
	.st120{fill:none;stroke:#3F6093;stroke-width:0.75;stroke-linecap:round;stroke-linejoin:round;stroke-dasharray:0.9892,0.9892;}
	
		.st121{fill:none;stroke:#3F6093;stroke-width:0.75;stroke-linecap:round;stroke-linejoin:round;stroke-miterlimit:10;stroke-dasharray:1;}
	.st122{fill:#EAEAEA;stroke:#FFFFFF;stroke-width:0.25;stroke-miterlimit:10;}
	.st123{fill:#D8D8D8;}
	.st124{fill:#282828;stroke:#000000;stroke-width:0.75;stroke-miterlimit:10;}
	.st125{opacity:0.33;fill:#FFFFFF;}
	.st126{fill:none;stroke:#000000;stroke-width:1.5;stroke-linecap:round;stroke-linejoin:round;stroke-miterlimit:10;}
	.st127{opacity:0.64;}
	.st128{fill:#C9C9C9;}
	.st129{fill:#FFF064;}
	.st130{fill:#4F4E4F;}
	.st131{fill:#1E2F47;}
	.st132{opacity:0.1;fill:#FFFFFF;}
	.st133{opacity:0.1;}
	.st134{opacity:0.4;fill:#FFFFFF;}
	.st135{fill-rule:evenodd;clip-rule:evenodd;fill:#F39C12;}
	.st136{fill-rule:evenodd;clip-rule:evenodd;fill:#E6E6E6;}
	.st137{fill-rule:evenodd;clip-rule:evenodd;fill:#474646;}
	.st138{fill-rule:evenodd;clip-rule:evenodd;fill:#D84848;}
	.st139{opacity:0.2;fill-rule:evenodd;clip-rule:evenodd;fill:#231F20;}
	.st140{opacity:0.1;fill-rule:evenodd;clip-rule:evenodd;fill:#231F20;}
	.st141{fill-rule:evenodd;clip-rule:evenodd;fill:#4D4D4D;}
	.st142{fill-rule:evenodd;clip-rule:evenodd;fill:#336699;}
	.st143{fill-rule:evenodd;clip-rule:evenodd;fill:#FF6633;}
	.st144{fill-rule:evenodd;clip-rule:evenodd;fill:#0056A3;}
	.st145{fill-rule:evenodd;clip-rule:evenodd;fill:#33CC99;}
	.st146{fill:#CE6405;}
	.st147{opacity:0.2;fill:#FFFFFF;}
	.st148{fill:#1ABC9C;}
	.st149{opacity:0.2;}
	.st150{fill:#0B2E44;}
	.st151{fill-rule:evenodd;clip-rule:evenodd;fill:#154F77;}
	.st152{fill-rule:evenodd;clip-rule:evenodd;fill:#0D3858;}
	.st153{fill-rule:evenodd;clip-rule:evenodd;fill:#FFFEFE;}
	.st154{fill:#AEC647;}
	.st155{fill:#F3AE1B;}
	.st156{fill:#DF3F11;}
	.st157{fill:#BCDEDE;}
	.st158{fill:#C84119;}
	.st159{fill:#6BB5CE;}
	.st160{fill:#00D0E5;}
	.st161{fill:#FF81ED;}
	.st162{fill:#00C982;}
	.st163{opacity:0.7;}
	.st164{opacity:0.4;}
	.st165{fill-rule:evenodd;clip-rule:evenodd;fill:#0B2E44;}
	.st166{opacity:0.8;fill-rule:evenodd;clip-rule:evenodd;fill:#FFFFFF;}
	.st167{fill:#424242;}
	.st168{opacity:0.2;fill-rule:evenodd;clip-rule:evenodd;fill:#FFFFFF;}
	.st169{fill:#D0EDFA;}
	.st170{fill:#FF651F;}
	.st171{fill:#0051C4;}
	.st172{fill:#E46400;}
	.st173{fill:#C0003B;}
	.st174{fill:#FFEA50;}
	.st175{fill:#FF2C0D;}
	.st176{fill:#FF1A2C;}
	.st177{fill:#FF2C4D;}
	.st178{fill:#FFD74C;}
	.st179{fill:#4C4C4B;}
	.st180{fill:#6CD2EA;}
	.st181{fill:#F7674F;}
	.st182{opacity:0.1;fill-rule:evenodd;clip-rule:evenodd;}
	.st183{fill:#BABABA;}
	.st184{fill:#F9B946;}
	.st185{fill:#4D4789;}
	.st186{fill:#DFC2A9;}
	.st187{fill:#BFA490;}
	.st188{fill:#F5D4B2;}
	.st189{fill:#DF584C;}
	.st190{fill:#C2443E;}
	.st191{fill:#DBDBDA;}
	.st192{fill:#2F363E;}
	.st193{fill:#332524;}
	.st194{fill:#473735;}
	.st195{opacity:0.25;clip-path:url(#XMLID_3806_);}
	.st196{fill:#153847;}
	.st197{fill:#52B8BA;}
	.st198{fill:#35373E;}
	.st199{opacity:0.25;clip-path:url(#XMLID_3807_);}
	.st200{opacity:0.31;fill:#34383A;}
	.st201{opacity:0.16;fill:#3D3835;}
	.st202{fill:#D0D1D4;}
	.st203{opacity:0.31;}
	.st204{fill:#34383A;}
	.st205{opacity:0.16;}
	.st206{fill:#3D3835;}
	.st207{opacity:0.25;clip-path:url(#XMLID_3808_);}
	.st208{fill:#F9E1B4;}
	.st209{opacity:0.25;fill:#050505;}
	.st210{fill:#FCC60F;}
	.st211{fill:#74CAEA;}
	.st212{fill:#050505;}
	.st213{opacity:0.25;clip-path:url(#XMLID_3809_);}
	.st214{fill:#FABC8F;}
	.st215{fill:#3FA995;}
	.st216{opacity:0.17;fill:#020202;}
	.st217{fill:#E1E1E1;}
	.st218{opacity:0.17;}
	.st219{fill:#020202;}
	.st220{opacity:0.25;clip-path:url(#XMLID_3810_);}
	.st221{fill:#BF8E00;}
	.st222{fill:#F7D8D7;}
	.st223{fill:#F18636;}
	.st224{fill:#004460;}
	.st225{fill:#D93A37;}
	.st226{fill:#EDEDED;}
	.st227{fill:#184F78;}
	.st228{fill:#FF3E03;}
	.st229{opacity:0.6;fill:#0F0F0F;}
	.st230{fill:#E8E8E6;}
	.st231{fill:#00EAA6;}
	.st232{fill-rule:evenodd;clip-rule:evenodd;fill:#FF3E03;}
	.st233{opacity:0.1;fill-rule:evenodd;clip-rule:evenodd;fill:#020202;}
	.st234{fill-rule:evenodd;clip-rule:evenodd;fill:#FABE00;}
	.st235{fill-rule:evenodd;clip-rule:evenodd;fill:#E6E8E8;}
	.st236{fill-rule:evenodd;clip-rule:evenodd;fill:#F7D959;}
	.st237{fill-rule:evenodd;clip-rule:evenodd;fill:#F9623E;}
	.st238{fill:#4F1A0F;}
	.st239{opacity:0.46;fill:#FFFFFF;}
	.st240{opacity:0.6;}
	.st241{fill:#0F0F0F;}
	.st242{opacity:0.46;}
	.st243{fill:#48505A;}
	.st244{fill:#C3C3C3;}
	.st245{fill:#E9E9EA;}
	.st246{fill:#9D9E9F;}
	.st247{fill:#F6F4F4;}
	.st248{fill:#6B6A6A;}
	.st249{fill:#C09478;}
	.st250{fill:#F7CDA0;}
	.st251{fill:#9E1010;}
	.st252{fill:#F2F2F2;}
	.st253{opacity:0.2;fill:#060606;}
	.st254{fill:#16AFBE;}
	.st255{fill:#DD2222;}
	.st256{fill:#FFEDDC;}
	.st257{fill:#22272B;}
	.st258{fill:#5B6375;}
	.st259{fill:#060606;}
</style>
<g>
	<g>
		
			<ellipse transform="matrix(0.9736 -0.2283 0.2283 0.9736 -23.8165 23.4409)" class="st243" cx="89.3923" cy="114.644" rx="91.5778" ry="28.0678"/>
	</g>
	<g>
		
			<ellipse transform="matrix(0.9986 -0.0523 0.0523 0.9986 -5.8724 5.3374)" class="st192" cx="99.1264" cy="114.9621" rx="80.878" ry="24.7885"/>
	</g>
	<g>
		<path class="st244" d="M78.2038,135.6686c1.5491,0.8657,4.5159,1.2742,6.567,0.9046l108.5978-19.5917
			c1.4884-0.2511,0.7969-4.0389,0.7969-4.0389l-50.6231-16.8907c-1.2529-0.4999-3.3123-0.793-4.589-0.6529l-108.8724,9.0928
			c0,0-1.1914,3.5129,0.0306,4.3006L78.2038,135.6686z"/>
	</g>
	<g>
		<path class="st245" d="M78.6558,132.2024c1.5491,0.8657,4.5159,1.2742,6.567,0.9046l108.1851-19.4936
			c1.2501-0.2252,1.007-0.9112-0.5249-1.5223l-48.8887-19.5055c-1.2529-0.4999-3.3123-0.793-4.589-0.6529L31.9981,103.7152
			c-1.9791,0.2171-2.6337,0.9409-1.4345,1.611L78.6558,132.2024z"/>
	</g>
	<g>
		<path class="st3" d="M62.7827,120.0472c1.4134,0.7899,4.1204,1.1626,5.9918,0.8254l98.9009-15.8804
			c1.1406-0.2055,0.9188-0.8314-0.4789-1.389l-23.7322-9.7203c-1.1432-0.4561-3.0222-0.7235-4.1871-0.5957l-99.2391,11.5522
			c-1.8057,0.1981-2.403,0.8585-1.3089,1.4699L62.7827,120.0472z"/>
	</g>
	<g>
		<path class="st244" d="M27.4254,100.1472c0.2528,2.8146,2.4705,3.019,3.975,2.8538l106.4724-11.9569
			c1.1386-0.125,2.0129-1.3999,1.9461-2.8335l-3.3418-71.7671c-0.0671-1.4412-1.0574-2.1372-2.2048-2.1328L27.5179,14.4522
			l-0.2306-0.0767c-1.5175,0.0058-4.1072,0.5814-4.0593,2.9077L27.4254,100.1472z"/>
	</g>
	<g>
		<path class="st246" d="M28.8749,100.277c0.0838,1.6547,1.3874,2.8727,2.892,2.7075l107.5554-11.8106
			c1.1386-0.125,2.0129-1.3999,1.9461-2.8335l-3.3418-71.7671c-0.0671-1.4412-1.0581-2.617-2.2055-2.6126L27.2873,14.3755
			c-1.5175,0.0058-2.6941,1.3728-2.6098,3.0376L28.8749,100.277z"/>
	</g>
	<g>
		<polygon class="st247" points="33.2319,97.2878 137.7687,86.502 134.6466,19.6292 29.3722,20.845 		"/>
	</g>
	<g>
		<path class="st248" d="M152.9471,117.3429L152.9471,117.3429c-0.166-0.1697-0.5712-0.3146-0.9155-0.4637
			c-4.0109-1.7369-7.9541-3.4425-11.8296-5.1179c-1.8574-0.803-3.1497-0.9858-5.0042-0.7079
			c-8.3792,1.2559-17.1126,2.5654-26.2228,3.9323c-2.0581,0.3088-2.1748,0.7223-0.4089,1.5669
			c2.7521,1.3164,5.5518,2.6492,8.3855,4.0009l0.0001,0l-0.0001,0c1.391,0.6729,2.7641,1.3555,4.2105,2.0311
			c1.0925,0.5104,2.6477,0.7372,3.9362,0.6043c0.2397-0.0247,0.4568-0.0633,0.6721-0.1011
			c9.2701-1.6276,18.1339-3.1835,26.6117-4.6749C153.6231,118.1946,153.7626,117.8965,152.9471,117.3429z"/>
	</g>
	<g>
		<path class="st248" d="M127.3647,109.9546c4.4096-0.6485,8.7238-1.2826,12.9424-1.9041c0.9093-0.134,0.9088-0.1628,0.032-0.5428
			c-0.7242-0.3139-1.448-0.6265-2.1765-0.9369c-0.7901-0.3367-0.9185-0.3556-1.747-0.2388
			c-5.0744,0.7151-10.278,1.4508-15.6214,2.2056c-3.7244,0.5261-7.5191,1.0612-11.3803,1.6083
			c-1.0496,0.1488-1.0557,0.1794-0.1946,0.5905c0.7184,0.3429,1.4417,0.6869,2.1769,1.0308
			c0.7988,0.3736,0.9512,0.3953,1.8978,0.2564C118.0952,111.319,122.7822,110.6286,127.3647,109.9546z"/>
	</g>
	<g>
		<path class="st248" d="M67.0562,109.8767c-2.1058,0.271-4.2181,0.5516-6.3828,0.817c-0.7889,0.0967-0.8711,0.248-0.324,0.5246
			c0.8145,0.4118,1.5831,0.8329,2.3541,1.2555c0.4319,0.2367,0.9054,0.3112,1.5582,0.2231
			c4.3954-0.5936,8.7144-1.1721,12.9531-1.7392c0.6012-0.0804,0.6709-0.2258,0.226-0.4498
			c-0.7987-0.4022-1.6029-0.8018-2.3642-1.2042c-0.5102-0.2696-1.0183-0.3372-1.7401-0.2398
			C71.2802,109.3413,69.1715,109.6045,67.0562,109.8767z"/>
	</g>
	<g>
		<path class="st248" d="M57.0185,105.231c-1.8077,0.2116-3.6323,0.4232-5.4637,0.6405c-1.0438,0.1238-1.0837,0.1793-0.3928,0.5554
			c0.6934,0.3774,1.4169,0.7533,2.1164,1.134c0.4152,0.2259,0.9262,0.2959,1.5483,0.2202c3.8204-0.465,7.5766-0.9237,11.2748-1.3737
			c0.6148-0.0748,0.6326-0.2205,0.2145-0.431c-0.7443-0.3748-1.4908-0.7477-2.1902-1.1237
			c-0.5001-0.2688-1.0032-0.3492-1.7766-0.2511C60.6107,104.8221,58.8122,105.0211,57.0185,105.231z"/>
	</g>
	<g>
		<path class="st248" d="M148.522,99.3678c-1.0226,0.1317-2.0382,0.2694-3.0901,0.3949c-0.5051,0.0603-0.5551,0.1641-0.0204,0.3766
			c0.8158,0.3243,1.6098,0.6537,2.3925,0.9857c0.4647,0.1971,0.8795,0.2685,1.358,0.2036c2.1163-0.287,4.2152-0.5683,6.2953-0.8447
			c0.4256-0.0565,0.4208-0.1705-0.0138-0.3469c-0.8356-0.3391-1.6761-0.6758-2.5083-1.0118
			c-0.4497-0.1816-0.8464-0.2208-1.2608-0.1651C150.6391,99.099,149.5797,99.2315,148.522,99.3678z"/>
	</g>
	<g>
		<path class="st248" d="M77.0509,111.5729c-1.4034,0.1889-2.8079,0.3831-4.2394,0.569c-0.6255,0.0813-0.7295,0.2159-0.2613,0.4535
			c0.8614,0.4372,1.7015,0.8802,2.545,1.3254c0.4241,0.2238,0.9185,0.29,1.4876,0.2102c2.8969-0.4063,5.755-0.8081,8.5737-1.2062
			c0.5431-0.0767,0.6146-0.2263,0.1976-0.4379c-0.8498-0.4313-1.7035-0.8596-2.5486-1.2865
			c-0.4457-0.2251-0.9229-0.2855-1.5182-0.2013C79.8973,111.1957,78.4739,111.3813,77.0509,111.5729z"/>
	</g>
	<g>
		<path class="st248" d="M63.4308,109.684c1.3183-0.1685,2.6183-0.3418,3.9363-0.5005c0.6711-0.0808,0.7497-0.2241,0.2846-0.4604
			c-0.8021-0.4075-1.5878-0.815-2.3652-1.221c-0.423-0.221-0.9102-0.2849-1.5163-0.2099c-2.6609,0.3292-5.3575,0.6599-8.0865,0.9941
			c-0.5923,0.0725-0.6898,0.2043-0.2812,0.4186c0.8119,0.4257,1.6171,0.855,2.4051,1.2887
			c0.4259,0.2344,0.8956,0.3007,1.5363,0.2153C60.7043,110.0276,62.0754,109.8573,63.4308,109.684z"/>
	</g>
	<g>
		<path class="st248" d="M148.2315,98.8567c0.8113-0.1037,1.6038-0.2134,2.4288-0.3077c0.5364-0.0613,0.4889-0.1858-0.0343-0.3916
			c-0.7747-0.3047-1.5323-0.6104-2.2796-0.9158c-0.4489-0.1834-0.8597-0.2502-1.3193-0.1928
			c-1.6671,0.2082-3.3579,0.4146-5.0645,0.6224c-0.4237,0.0516-0.4983,0.1462-0.037,0.3319
			c0.8308,0.3344,1.6514,0.6719,2.4653,1.0119c0.4472,0.1868,0.8357,0.2311,1.2659,0.1728
			C146.5081,99.0726,147.3759,98.9661,148.2315,98.8567z"/>
	</g>
	<g>
		<path class="st248" d="M163.4192,104.6568c0.6447-0.0951,1.2801-0.1927,1.9307-0.2828c0.431-0.0597,0.4248-0.1706-0.0574-0.3614
			c-0.8653-0.3424-1.719-0.6849-2.5523-1.0282c-0.4809-0.1982-0.8841-0.2634-1.3448-0.1956
			c-1.2516,0.1843-2.5307,0.3624-3.8194,0.5414c-0.4348,0.0604-0.4373,0.1746,0.0285,0.3636
			c0.8544,0.3467,1.7118,0.6949,2.5561,1.0468c0.4909,0.2046,0.916,0.2705,1.3755,0.1958
			C162.1502,104.8367,162.7926,104.7493,163.4192,104.6568z"/>
	</g>
	<g>
		<path class="st248" d="M91.8451,115.1666c0.8638-0.1273,1.7145-0.2592,2.5855-0.3783c0.5968-0.0816,0.6734-0.2304,0.2143-0.4601
			c-0.8724-0.4365-1.7451-0.8703-2.6189-1.3014c-0.4559-0.2249-0.9551-0.2871-1.5364-0.203
			c-1.7344,0.2506-3.4915,0.4991-5.2726,0.7446c-0.6024,0.083-0.7055,0.2176-0.2253,0.4563
			c0.8825,0.4388,1.7528,0.8823,2.6132,1.3298c0.4681,0.2434,0.95,0.3039,1.5455,0.2109
			C90.0409,115.4262,90.9498,115.2985,91.8451,115.1666z"/>
	</g>
	<g>
		<path class="st248" d="M92.7828,106.5573c-0.6547,0.0848-1.3083,0.1714-1.9731,0.2537c-0.4978,0.0617-0.5517,0.1854-0.1739,0.3695
			c0.849,0.414,1.7049,0.8295,2.5718,1.246c0.4494,0.2159,0.9424,0.268,1.4917,0.1921c1.2834-0.1773,2.5666-0.35,3.8529-0.5164
			c0.5924-0.0767,0.6432-0.2198,0.1745-0.4426c-0.7996-0.3801-1.5965-0.7586-2.3877-1.1357
			c-0.4829-0.2302-0.9914-0.3123-1.607-0.2207C94.1041,106.3965,93.4355,106.4728,92.7828,106.5573z"/>
	</g>
	<g>
		<path class="st248" d="M113.371,98.6182c-0.5749,0.0675-1.1433,0.139-1.733,0.2016c-0.4662,0.0495-0.5481,0.1515-0.1461,0.33
			c0.8197,0.3639,1.6436,0.7293,2.4746,1.0958c0.403,0.1777,0.8325,0.2307,1.2858,0.1748c1.1764-0.145,2.3482-0.2882,3.5163-0.4294
			c0.4193-0.0507,0.4655-0.159,0.1035-0.3192c-0.8387-0.3711-1.6885-0.7389-2.5386-1.1046
			c-0.4101-0.1764-0.8197-0.2092-1.2507-0.1519C114.5287,98.489,113.9443,98.5508,113.371,98.6182z"/>
	</g>
	<g>
		<path class="st248" d="M75.014,103.1179c-0.6488,0.076-1.2871,0.1586-1.9555,0.2267c-0.623,0.0635-0.778,0.1866-0.3049,0.4131
			c0.8367,0.4004,1.6765,0.8028,2.513,1.2078c0.3588,0.1737,0.7793,0.2244,1.2342,0.17c1.4204-0.17,2.8279-0.3409,4.2184-0.5146
			c0.4704-0.0588,0.5742-0.1804,0.1999-0.3637c-0.8184-0.401-1.6355-0.7998-2.4497-1.1968
			c-0.3871-0.1887-0.8257-0.2552-1.3596-0.1877c-0.6857,0.0866-1.3923,0.1646-2.093,0.2467
			C75.0158,103.1188,75.0149,103.1183,75.014,103.1179z"/>
	</g>
	<g>
		<path class="st248" d="M80.0339,107.5639c0.6869-0.0883,1.3652-0.1796,2.058-0.2622c0.5588-0.0666,0.6094-0.1978,0.2044-0.3974
			c-0.8416-0.4148-1.6769-0.8279-2.5129-1.2386c-0.3774-0.1854-0.8295-0.2406-1.3217-0.1805
			c-1.3947,0.1704-2.7951,0.3433-4.2035,0.5178c-0.4877,0.0604-0.6464,0.1707-0.2635,0.368
			c0.7746,0.3992,1.5435,0.8013,2.3156,1.2053c0.5313,0.278,1.1117,0.3477,1.8221,0.235
			C78.7383,107.7152,79.4001,107.6453,80.0339,107.5639z"/>
	</g>
	<g>
		<path class="st248" d="M125.4045,105.0415c-0.5811,0.0785-1.1565,0.1606-1.7515,0.2348c-0.446,0.0556-0.4553,0.164-0.0993,0.3434
			c0.8367,0.4215,1.8273,0.8227,2.8008,1.2291c0.3243,0.1354,0.6939,0.1952,1.0264,0.1504
			c1.2731-0.1717,2.5292-0.3465,3.7627-0.5265c0.4287-0.0625,0.3079-0.207-0.0629-0.3701
			c-0.8607-0.3786-1.7236-0.7547-2.5801-1.1297c-0.4243-0.1857-0.8441-0.2411-1.2957-0.1757
			C126.6161,104.8825,126.0072,104.9602,125.4045,105.0415z"/>
	</g>
	<g>
		<path class="st248" d="M79.5407,114.3752c-0.7239,0.102-1.4442,0.2076-2.1799,0.3065c-0.5985,0.0805-0.6406,0.2254-0.2054,0.4485
			c0.8983,0.4605,1.786,0.9256,2.674,1.3935c0.4037,0.2127,0.8554,0.2821,1.4033,0.201c1.5134-0.2241,3.0173-0.4462,4.5153-0.6645
			c0.5423-0.079,0.5692-0.2197,0.1624-0.4261c-0.9022-0.4577-1.7973-0.9136-2.6756-1.3689
			c-0.4233-0.2195-0.8786-0.2936-1.4536-0.2077C81.0457,114.1674,80.291,114.2695,79.5407,114.3752z"/>
	</g>
	<g>
		<path class="st248" d="M75.7353,117.5307c0.7746-0.1146,1.5452-0.2296,2.3186-0.3412c0.5548-0.08,0.6096-0.2248,0.205-0.4361
			c-0.8959-0.468-1.788-0.9335-2.6666-1.398c-0.4189-0.2215-0.8853-0.2993-1.4835-0.2131
			c-1.5037,0.2167-3.0243,0.4315-4.5609,0.6447c-0.6093,0.0845-0.6797,0.23-0.2456,0.4588
			c0.8712,0.4592,1.7413,0.9216,2.5908,1.3896c0.4559,0.2512,0.9478,0.3296,1.593,0.2285
			C74.2288,117.7474,74.988,117.6413,75.7353,117.5307z"/>
	</g>
	<g>
		<path class="st248" d="M151.8347,106.3571c0.5529-0.0817,1.1025-0.164,1.6563-0.2436c0.3941-0.0566,0.3916-0.1653-0.023-0.3369
			c-0.9264-0.3835-1.8447-0.766-2.7557-1.1473c-0.4121-0.1725-0.7921-0.2144-1.1762-0.1596
			c-1.0797,0.1541-2.1682,0.3079-3.2647,0.4619c-0.4233,0.0594-0.445,0.171-0.0005,0.3566c0.9015,0.3765,1.7995,0.7557,2.694,1.1375
			c0.4515,0.1927,0.8523,0.2336,1.2664,0.1688C150.7593,106.5119,151.3014,106.4359,151.8347,106.3571z"/>
	</g>
	<g>
		<path class="st248" d="M79.0428,108.3303c-0.6937,0.089-1.3833,0.1815-2.0884,0.2674c-0.5545,0.0675-0.6765,0.1881-0.2458,0.4026
			c0.8792,0.4379,1.745,0.8804,2.619,1.3245c0.3617,0.1838,0.7848,0.2425,1.265,0.1785c1.4536-0.1938,2.8962-0.3872,4.3273-0.5803
			c0.5468-0.0738,0.5651-0.2169,0.1517-0.4203c-0.8633-0.4248-1.7148-0.8486-2.5608-1.2706
			c-0.3872-0.1931-0.8173-0.2459-1.3199-0.1788C80.4822,108.1477,79.7619,108.238,79.0428,108.3303z"/>
	</g>
	<g>
		<path class="st248" d="M102.8553,111.0764c-0.6554,0.0924-1.3108,0.1861-1.9722,0.2781
			c-0.5219,0.0726-0.5825,0.2085-0.1498,0.4174c0.8946,0.4319,1.7921,0.8661,2.6896,1.3029
			c0.4021,0.1957,0.8374,0.2678,1.3355,0.1943c1.3697-0.202,2.7307-0.4027,4.0861-0.6005c0.4799-0.07,0.5261-0.1962,0.1106-0.3925
			c-0.9283-0.4386-1.8471-0.8759-2.7606-1.3112c-0.4085-0.1947-0.8363-0.245-1.3092-0.1759
			C104.2155,110.8868,103.5346,110.9806,102.8553,111.0764z"/>
	</g>
	<g>
		<path class="st248" d="M72.9212,108.4707c0.7062-0.0899,1.4054-0.1819,2.1118-0.2688c0.5226-0.0643,0.6078-0.1864,0.2249-0.3793
			c-0.8366-0.4214-1.6697-0.8409-2.4926-1.2591c-0.3915-0.199-0.8466-0.2732-1.406-0.2043
			c-1.4563,0.1796-2.9252,0.3587-4.3996,0.5412c-0.4844,0.0599-0.5678,0.1777-0.2177,0.3574
			c0.8678,0.4451,1.7341,0.893,2.6094,1.3427c0.3601,0.185,0.7881,0.227,1.2688,0.1645
			C71.3873,108.6653,72.1562,108.5681,72.9212,108.4707z"/>
	</g>
	<g>
		<path class="st248" d="M124.8443,97.2718c-0.5471,0.0643-1.0923,0.1303-1.648,0.1926c-0.4006,0.0449-0.4963,0.1323-0.1059,0.2983
			c0.8478,0.3606,1.695,0.7233,2.5474,1.0873c0.3835,0.1638,0.7794,0.2086,1.1772,0.1603c1.1231-0.1362,2.239-0.2721,3.3467-0.408
			c0.428-0.0526,0.4234-0.1607,0.0097-0.3319c-0.8221-0.3402-1.6318-0.6804-2.4224-1.0209
			c-0.4393-0.1891-0.8317-0.2282-1.2742-0.1705C125.9448,97.148,125.39,97.2076,124.8443,97.2718z"/>
	</g>
	<g>
		<path class="st248" d="M141.6032,99.7028c0.5245-0.0672,1.0404-0.1373,1.5721-0.2c0.4135-0.0487,0.4807-0.1425,0.05-0.3185
			c-0.8521-0.3481-1.6967-0.6953-2.5334-1.0416c-0.416-0.1722-0.8094-0.2138-1.2105-0.1643
			c-1.0446,0.1289-2.0946,0.2587-3.1556,0.3869c-0.4546,0.0549-0.4476,0.1642-0.0006,0.3463c0.8146,0.332,1.6201,0.6671,2.41,1.0055
			c0.481,0.206,0.8952,0.248,1.3527,0.1815C140.5795,99.8273,141.0984,99.7675,141.6032,99.7028z"/>
	</g>
	<g>
		<path class="st248" d="M104.9083,101.6807c0.5817-0.071,1.1557-0.1446,1.7421-0.2116c0.5338-0.0609,0.6433-0.1747,0.158-0.3888
			c-0.8026-0.3541-1.5861-0.7089-2.3564-1.0632c-0.4131-0.19-0.8182-0.2612-1.3442-0.1966
			c-1.1932,0.1467-2.4098,0.2869-3.6359,0.4266c-0.4767,0.0543-0.6002,0.1508-0.1779,0.3418
			c0.8305,0.3756,1.655,0.7541,2.4725,1.1354c0.414,0.1931,0.8418,0.2359,1.3118,0.1786c0.6111-0.0746,1.2206-0.1489,1.8282-0.2231
			C104.907,101.6801,104.9076,101.6804,104.9083,101.6807z"/>
	</g>
	<g>
		<path class="st248" d="M53.4839,110.953c0.7649-0.0974,1.5216-0.1976,2.2875-0.291c0.6056-0.0739,0.7205-0.2068,0.3026-0.4273
			c-0.8396-0.443-1.6611-0.8857-2.4734-1.3268c-0.3729-0.2025-0.8292-0.26-1.38-0.1929c-1.5484,0.1889-3.1054,0.3798-4.6723,0.5723
			c-0.5996,0.0737-0.7363,0.2112-0.3334,0.4305c0.8221,0.4474,1.6367,0.8986,2.4585,1.3515
			c0.3751,0.2067,0.8391,0.2664,1.4105,0.1909C51.8819,111.155,52.6858,111.0546,53.4839,110.953z"/>
	</g>
	<g>
		<path class="st248" d="M88.4534,101.5417c-0.6133,0.0718-1.2189,0.1485-1.8479,0.2147c-0.5528,0.0582-0.6637,0.1694-0.2199,0.3769
			c0.8083,0.3779,1.6064,0.7593,2.3976,1.1434c0.4341,0.2108,0.8971,0.2595,1.4276,0.1942
			c1.2569-0.1548,2.5057-0.3091,3.7571-0.4578c0.5615-0.0667,0.6691-0.1831,0.1807-0.4042c-0.8052-0.3645-1.5837-0.7308-2.34-1.0973
			c-0.4556-0.2208-0.9016-0.2683-1.4537-0.1949C89.7389,101.3987,89.0904,101.4671,88.4534,101.5417z"/>
	</g>
	<g>
		<path class="st248" d="M135.8111,95.9849c-0.5204,0.061-1.0359,0.1248-1.5676,0.1826c-0.4149,0.0451-0.4874,0.1336-0.0655,0.3059
			c0.8324,0.3401,1.6598,0.6826,2.4814,1.0275c0.4193,0.1761,0.809,0.2119,1.2077,0.1634c1.0454-0.1272,2.0847-0.2539,3.1192-0.3797
			c0.3968-0.0482,0.4475-0.1458,0.0334-0.3143c-0.8327-0.3387-1.6605-0.6762-2.4791-1.0131
			c-0.4109-0.1691-0.784-0.206-1.1789-0.1554C136.8562,95.8667,136.3302,95.9241,135.8111,95.9849z"/>
	</g>
	<g>
		<path class="st248" d="M141.0946,100.3269c-0.5483,0.0711-1.0987,0.1421-1.6515,0.213c-0.3667,0.047-0.3745,0.1453-0.0165,0.2955
			c0.876,0.3675,1.7565,0.7363,2.6408,1.1068c0.3859,0.1617,0.7905,0.2235,1.1815,0.1721c1.1071-0.1457,2.2009-0.2935,3.2885-0.4405
			c0.3846-0.052,0.3697-0.1598-0.0211-0.3207c-0.8649-0.356-1.7275-0.7105-2.5748-1.0649c-0.4127-0.1727-0.7958-0.2299-1.211-0.1734
			C142.1932,100.188,141.6414,100.256,141.0946,100.3269z"/>
	</g>
	<g>
		<path class="st248" d="M112.9163,103.3653c0.5738-0.0735,1.1358-0.1515,1.7199-0.2183c0.5095-0.0582,0.5957-0.1708,0.1422-0.3721
			c-0.8316-0.3692-1.6565-0.7373-2.4722-1.1046c-0.4003-0.1802-0.8233-0.2468-1.2956-0.1889
			c-1.2138,0.1489-2.4313,0.3003-3.6644,0.4487c-0.4956,0.0597-0.4876,0.1776-0.0797,0.3601
			c0.8297,0.3712,1.6554,0.745,2.4701,1.1221c0.4486,0.2077,0.8801,0.2555,1.3791,0.1852
			C111.7053,103.5145,112.317,103.4421,112.9163,103.3653z"/>
	</g>
	<g>
		<path class="st248" d="M106.6812,104.1612c0.6149-0.0783,1.2212-0.1596,1.8403-0.2339c0.4919-0.0589,0.5432-0.172,0.1182-0.3629
			c-0.8354-0.3753-1.661-0.7498-2.4697-1.1243c-0.4361-0.202-0.8779-0.257-1.3863-0.1937
			c-1.2188,0.1518-2.4506,0.3019-3.6879,0.4536c-0.4871,0.0597-0.5458,0.175-0.1271,0.3658
			c0.8497,0.3873,1.6891,0.7781,2.532,1.1706c0.3893,0.1813,0.797,0.2318,1.2526,0.1718
			C105.3937,104.3236,106.0398,104.2429,106.6812,104.1612z"/>
	</g>
	<g>
		<path class="st248" d="M93.7412,105.8119c0.6495-0.0828,1.293-0.1673,1.943-0.2475c0.4851-0.0599,0.5268-0.1759,0.1382-0.3583
			c-0.8706-0.4088-1.7306-0.8165-2.5858-1.2225c-0.3568-0.1694-0.7635-0.2177-1.1938-0.1659
			c-1.3471,0.1623-2.6976,0.3281-4.0545,0.4959c-0.478,0.0591-0.5386,0.1795-0.1601,0.3613c0.8581,0.4122,1.7146,0.827,2.5812,1.243
			c0.3578,0.1718,0.7667,0.2227,1.2154,0.1647C92.3308,105.9912,93.0375,105.9016,93.7412,105.8119z"/>
	</g>
	<g>
		<path class="st248" d="M86.9458,106.6801c0.6679-0.0853,1.329-0.1726,1.9985-0.2545c0.483-0.0591,0.6095-0.1669,0.2112-0.3585
			c-0.8864-0.4265-1.7636-0.8516-2.6416-1.2741c-0.3251-0.1564-0.7164-0.2079-1.1296-0.1578
			c-1.4095,0.1709-2.8242,0.3449-4.2439,0.522c-0.4556,0.0568-0.5166,0.1779-0.1762,0.347c0.8467,0.4207,1.7044,0.8425,2.569,1.266
			c0.3796,0.186,0.8181,0.245,1.3176,0.1786C85.5461,106.8563,86.249,106.769,86.9458,106.6801z"/>
	</g>
	<g>
		<path class="st248" d="M141.0206,95.3737c-0.5073,0.0599-1.0107,0.1221-1.5295,0.1786c-0.3965,0.0432-0.3792,0.1371-0.0038,0.2888
			c0.8295,0.3351,1.657,0.6723,2.4801,1.0116c0.4105,0.1692,0.798,0.2151,1.1947,0.1667c1.0194-0.1244,2.0318-0.2488,3.0441-0.3704
			c0.4294-0.0516,0.4118-0.16-0.0189-0.3318c-0.7944-0.3168-1.5803-0.6331-2.3561-0.949c-0.4561-0.1857-0.8614-0.2342-1.2993-0.1741
			C142.0471,95.2605,141.5266,95.314,141.0206,95.3737z"/>
	</g>
	<g>
		<path class="st248" d="M128.0226,104.1561c0.5486-0.0733,1.0873-0.1501,1.6425-0.2187c0.5061-0.0625,0.5938-0.1787,0.0925-0.3928
			c-0.8339-0.3562-1.6523-0.7127-2.465-1.068c-0.4251-0.1858-0.8401-0.2663-1.34-0.1991c-1.1255,0.1512-2.2718,0.2972-3.4285,0.4422
			c-0.4526,0.0567-0.5403,0.1578-0.104,0.3477c0.8671,0.3775,1.7303,0.7577,2.5905,1.1405c0.4241,0.1887,0.8368,0.244,1.291,0.1797
			C126.8699,104.3072,127.4497,104.2326,128.0226,104.1561z"/>
	</g>
	<g>
		<path class="st248" d="M118.2697,103.2694c-0.5647,0.0727-1.1212,0.1501-1.7016,0.2173c-0.5061,0.0586-0.603,0.1662-0.1304,0.3737
			c0.8522,0.3741,1.6967,0.7516,2.5277,1.1326c0.4605,0.2112,0.897,0.2569,1.3866,0.1901c1.1535-0.1573,2.3042-0.312,3.4541-0.4633
			c0.485-0.0638,0.5571-0.1807,0.0943-0.3833c-0.8514-0.3725-1.6987-0.7437-2.5257-1.1153
			c-0.4561-0.205-0.8775-0.2471-1.3537-0.1794C119.4517,103.123,118.8562,103.1938,118.2697,103.2694z"/>
	</g>
	<g>
		<path class="st248" d="M112.184,104.055c-0.6025,0.0773-1.2,0.1579-1.8138,0.232c-0.4819,0.0581-0.5705,0.1657-0.1363,0.3614
			c0.8647,0.3896,1.7253,0.782,2.579,1.1774c0.4239,0.1964,0.8543,0.2512,1.3294,0.1873c1.2337-0.1657,2.4626-0.3292,3.6787-0.4942
			c0.4244-0.0576,0.4931-0.1706,0.0951-0.3495c-0.8842-0.3976-1.7663-0.7931-2.6394-1.1876
			c-0.3914-0.1768-0.7912-0.225-1.2261-0.1674C113.4341,103.8961,112.8087,103.9749,112.184,104.055z"/>
	</g>
	<g>
		<path class="st248" d="M123.2632,107.5861c0.5955-0.0839,1.1934-0.1658,1.7812-0.2511c0.4788-0.0695,0.5367-0.1967,0.0606-0.4055
			c-0.8531-0.3742-1.693-0.7483-2.5171-1.1224c-0.4432-0.2012-0.8658-0.2732-1.3793-0.2013
			c-1.1995,0.168-2.419,0.3314-3.6506,0.4936c-0.4573,0.0602-0.4831,0.17-0.079,0.3513c0.8849,0.3969,1.7699,0.7962,2.645,1.1991
			c0.4365,0.2009,0.8707,0.2544,1.3406,0.1889C122.067,107.7547,122.6659,107.6702,123.2632,107.5861z"/>
	</g>
	<g>
		<path class="st248" d="M85.4512,104.0501c0.6563-0.0798,1.3038-0.1627,1.9638-0.2382c0.5659-0.0647,0.6045-0.1897,0.1643-0.3951
			c-0.8177-0.3815-1.61-0.7642-2.3965-1.1454c-0.3861-0.1871-0.7928-0.2551-1.3231-0.1909
			c-1.3206,0.1598-2.6589,0.3161-4.0125,0.4698c-0.542,0.0615-0.5867,0.1842-0.2027,0.3719
			c0.7908,0.3867,1.5916,0.7743,2.3838,1.165c0.4191,0.2067,0.8831,0.277,1.4452,0.2049
			C84.1281,104.2082,84.793,104.1301,85.4512,104.0501z"/>
	</g>
	<g>
		<path class="st248" d="M130.5598,101.1118c0.5735-0.0737,1.1458-0.1471,1.7171-0.2199c0.3761-0.048,0.394-0.1459,0.0333-0.299
			c-0.8698-0.3689-1.7384-0.7361-2.5932-1.1028c-0.3853-0.1653-0.7689-0.2135-1.1669-0.1652
			c-1.1244,0.1367-2.2513,0.2757-3.3866,0.4146c-0.4382,0.0536-0.4698,0.1621-0.0552,0.3391
			c0.8479,0.3618,1.691,0.7262,2.5373,1.0922c0.3883,0.1679,0.7728,0.2183,1.1835,0.1636
			C129.4029,101.2579,129.9846,101.1858,130.5598,101.1118z"/>
	</g>
	<g>
		<path class="st248" d="M146.099,107.1971c0.5707-0.0839,1.1394-0.1678,1.7071-0.2511c0.3747-0.055,0.3726-0.1661-0.0001-0.3252
			c-0.9208-0.3931-1.8441-0.7834-2.7647-1.1719c-0.4001-0.1689-0.8094-0.2266-1.2106-0.17
			c-1.1379,0.1605-2.2818,0.3223-3.4317,0.4853c-0.3825,0.0542-0.3806,0.1623-0.0039,0.3238
			c0.9204,0.3947,1.8456,0.7911,2.7675,1.1902c0.411,0.1779,0.8054,0.2355,1.2176,0.1736c0.5727-0.086,1.1492-0.1695,1.7216-0.2537
			C146.1008,107.1979,146.0999,107.1975,146.099,107.1971z"/>
	</g>
	<g>
		<path class="st248" d="M124.8098,101.8465c0.5664-0.0726,1.1248-0.1479,1.6972-0.216c0.4544-0.0541,0.4914-0.1583,0.0612-0.3409
			c-0.8383-0.3559-1.6658-0.7115-2.4715-1.0676c-0.429-0.1896-0.8278-0.2533-1.3126-0.1915
			c-1.0967,0.1398-2.2093,0.2762-3.3364,0.4096c-0.5136,0.0608-0.5863,0.1733-0.1042,0.3803
			c0.8133,0.3491,1.6122,0.7019,2.4143,1.0562c0.4325,0.191,0.8582,0.2597,1.346,0.1902
			C123.6605,101.9874,124.2418,101.9193,124.8098,101.8465z"/>
	</g>
	<g>
		<path class="st248" d="M67.7611,118.6995c0.7996-0.1176,1.5977-0.2341,2.3898-0.3518c0.5176-0.077,0.6051-0.2153,0.2278-0.4179
			c-0.9331-0.5008-1.8599-0.9992-2.7837-1.4947c-0.3747-0.201-0.829-0.2506-1.3417-0.1782
			c-1.5869,0.2241-3.184,0.4501-4.7928,0.6775c-0.6329,0.0895-0.645,0.2566-0.2343,0.4811c0.859,0.4696,1.7197,0.9419,2.5781,1.4175
			c0.4648,0.2575,0.9968,0.3144,1.6422,0.2123c0.7641-0.1209,1.548-0.2297,2.3195-0.3432
			C67.7643,118.7013,67.7627,118.7004,67.7611,118.6995z"/>
	</g>
	<g>
		<path class="st248" d="M119.1648,97.9378c-0.5384,0.0633-1.0685,0.1312-1.6234,0.1886c-0.4833,0.05-0.5809,0.1504-0.1395,0.3411
			c0.8075,0.3489,1.6141,0.6997,2.4191,1.0526c0.4369,0.1915,0.8709,0.2389,1.3378,0.181c1.1008-0.1365,2.1972-0.2716,3.2975-0.4017
			c0.5115-0.0605,0.5054-0.178,0.0337-0.3742c-0.787-0.3273-1.56-0.6554-2.2986-0.9851c-0.4884-0.218-0.916-0.2627-1.4236-0.1927
			C120.2537,97.8184,119.7018,97.8747,119.1648,97.9378z"/>
	</g>
	<g>
		<path class="st248" d="M130.3713,96.623c-0.5114,0.0602-1.015,0.1246-1.5423,0.1793c-0.4645,0.0482-0.5244,0.1451-0.0757,0.3302
			c0.8157,0.3364,1.62,0.6762,2.4216,1.0178c0.404,0.1722,0.808,0.2291,1.2283,0.1783c1.0948-0.1321,2.1803-0.2648,3.2572-0.3979
			c0.4223-0.0522,0.3759-0.165-0.0258-0.3294c-0.8177-0.3347-1.6233-0.6693-2.4181-1.0034
			c-0.3976-0.1671-0.7738-0.2224-1.1929-0.1699C131.4819,96.496,130.9239,96.558,130.3713,96.623z"/>
	</g>
	<g>
		<path class="st248" d="M105.8624,104.8705c-0.6204,0.0804-1.2392,0.1626-1.8697,0.2404
			c-0.4719,0.0583-0.5148,0.1736-0.1267,0.3539c0.8592,0.3992,1.7214,0.8003,2.5851,1.2036c0.4172,0.1948,0.8649,0.259,1.3618,0.192
			c1.2472-0.1682,2.4899-0.334,3.7245-0.4992c0.5144-0.0688,0.5535-0.1977,0.0912-0.4053c-0.8575-0.385-1.6977-0.7704-2.5248-1.1551
			c-0.4229-0.1967-0.8389-0.245-1.3178-0.1797C107.1543,104.7074,106.5057,104.7872,105.8624,104.8705z"/>
	</g>
	<g>
		<path class="st248" d="M100.2866,104.976c0.6563-0.0839,1.3102-0.1677,1.9628-0.251c0.4317-0.0551,0.4673-0.1672,0.115-0.3311
			c-0.8646-0.4023-1.7312-0.802-2.5904-1.2004c-0.3828-0.1775-0.8085-0.2277-1.2599-0.1729
			c-1.283,0.1559-2.5704,0.3143-3.8662,0.4733c-0.5036,0.0618-0.5475,0.184-0.1362,0.3757
			c0.8252,0.3846,1.6487,0.7717,2.4579,1.1625c0.4467,0.2158,0.8911,0.2644,1.4189,0.1905c0.6237-0.0873,1.2685-0.164,1.9015-0.245
			C100.2889,104.9771,100.2877,104.9766,100.2866,104.976z"/>
	</g>
	<g>
		<path class="st248" d="M135.6313,101.0305c-0.5434,0.07-1.0819,0.1429-1.6369,0.2096c-0.4349,0.0522-0.5008,0.1555-0.0771,0.336
			c0.8592,0.3659,1.7214,0.7334,2.5887,1.1023c0.426,0.1812,0.8501,0.2285,1.273,0.1714c1.0894-0.1469,2.173-0.2929,3.2531-0.437
			c0.4149-0.0554,0.474-0.1582,0.0348-0.3407c-0.8725-0.3626-1.7361-0.7244-2.5867-1.0859
			c-0.4274-0.1816-0.8154-0.2222-1.2296-0.1653C136.72,100.8938,136.1732,100.9607,135.6313,101.0305z"/>
	</g>
	<g>
		<path class="st248" d="M136.1548,100.3978c0.5389-0.0684,1.0704-0.1391,1.612-0.2048c0.4225-0.0512,0.4742-0.1505,0.0445-0.3279
			c-0.8554-0.3531-1.698-0.7061-2.5376-1.0575c-0.3788-0.1585-0.7687-0.2141-1.1589-0.1668
			c-1.1177,0.1356-2.2386,0.2733-3.3601,0.4141c-0.4044,0.0508-0.3614,0.1638,0.0113,0.3208
			c0.8453,0.356,1.6894,0.7141,2.5342,1.074c0.3858,0.1644,0.7646,0.2174,1.167,0.1641
			C135.0267,100.5397,135.5929,100.4692,136.1548,100.3978z"/>
	</g>
	<g>
		<path class="st248" d="M157.5354,105.5205c0.4984-0.0733,0.9885-0.1494,1.4934-0.2185c0.4336-0.0593,0.4866-0.1699,0.0034-0.3668
			c-0.8822-0.3597-1.7569-0.7185-2.6252-1.0763c-0.4207-0.1733-0.8281-0.2434-1.2445-0.1844
			c-1.0555,0.1494-2.1168,0.2998-3.1884,0.4492c-0.3831,0.0534-0.4286,0.1524-0.0108,0.3251
			c0.9197,0.3803,1.8406,0.7626,2.7605,1.1473c0.4155,0.1738,0.797,0.2218,1.1814,0.1636c0.5403-0.0819,1.0865-0.1604,1.628-0.2401
			C157.534,105.5199,157.5347,105.5202,157.5354,105.5205z"/>
	</g>
	<g>
		<path class="st248" d="M45.4512,106.5887c-0.762,0.0888-1.5179,0.1828-2.2946,0.2666c-0.6189,0.0668-0.7669,0.1957-0.3803,0.4087
			c0.7938,0.4373,1.5954,0.8764,2.3954,1.3182c0.4018,0.2219,0.9111,0.2646,1.4976,0.1929
			c1.5344-0.1876,3.0565-0.3753,4.5754-0.5583c0.6557-0.079,0.6978-0.2254,0.2731-0.4475c-0.7848-0.4103-1.548-0.8211-2.2927-1.2316
			c-0.4022-0.2217-0.8567-0.301-1.5072-0.2162C46.9792,106.4177,46.2108,106.5002,45.4512,106.5887z"/>
	</g>
	<g>
		<path class="st248" d="M71.5926,105.7389c0.6686-0.0813,1.3273-0.1663,2.0008-0.2424c0.6182-0.0699,0.7576-0.1989,0.2835-0.4308
			c-0.7917-0.3872-1.5628-0.775-2.3272-1.1614c-0.404-0.2042-0.8435-0.2848-1.4484-0.2106
			c-1.3697,0.1679-2.7602,0.331-4.1703,0.4892c-0.6237,0.07-0.6589,0.1989-0.2333,0.41c0.786,0.3899,1.5627,0.7834,2.3156,1.1815
			c0.4566,0.2413,0.9518,0.2914,1.565,0.2114C70.243,105.8989,70.9221,105.8204,71.5926,105.7389z"/>
	</g>
	<g>
		<path class="st248" d="M103.3279,107.4598c0.6114-0.082,1.2198-0.1643,1.8291-0.2451c0.4888-0.0648,0.5814-0.183,0.1436-0.3849
			c-0.8728-0.4026-1.7351-0.8043-2.5847-1.2053c-0.4278-0.2019-0.8545-0.2403-1.3424-0.1761
			c-1.2609,0.166-2.5332,0.3313-3.8257,0.4916c-0.5694,0.0706-0.5692,0.2041-0.1303,0.4098
			c0.8231,0.3857,1.6423,0.7742,2.4539,1.1658c0.4839,0.2335,0.981,0.2841,1.5405,0.2047c0.6342-0.09,1.2813-0.173,1.92-0.2587
			C103.3305,107.461,103.3292,107.4604,103.3279,107.4598z"/>
	</g>
	<g>
		<path class="st248" d="M136.9842,103.4776c-0.5291,0.0712-1.049,0.1473-1.5942,0.213c-0.4763,0.0574-0.5514,0.1633-0.0726,0.3657
			c0.8661,0.3662,1.7211,0.7361,2.5779,1.1077c0.4299,0.1865,0.8663,0.2457,1.2967,0.1868
			c1.1348-0.1553,2.2545-0.3134,3.3679-0.4705c0.4356-0.0615,0.3905-0.1833-0.043-0.3637
			c-0.8732-0.3635-1.7309-0.7273-2.5762-1.0906c-0.4224-0.1816-0.8152-0.2414-1.2492-0.1795
			C138.1314,103.3263,137.5557,103.4006,136.9842,103.4776z"/>
	</g>
	<g>
		<path class="st248" d="M95.8051,112.0736c-0.65,0.0918-1.2963,0.1868-1.9577,0.2754c-0.5841,0.0783-0.6559,0.2208-0.185,0.4507
			c0.8813,0.4302,1.7533,0.8643,2.631,1.3003c0.4385,0.2177,0.9155,0.28,1.4544,0.2c1.3862-0.2059,2.7661-0.4092,4.1399-0.6098
			c0.502-0.0733,0.5314-0.2044,0.1164-0.4041c-0.9097-0.4378-1.8113-0.8742-2.6958-1.3102
			c-0.4297-0.2118-0.8719-0.2793-1.4062-0.1997C97.2133,111.8788,96.5071,111.9745,95.8051,112.0736z"/>
	</g>
	<g>
		<path class="st248" d="M86.0783,107.4219c-0.6746,0.0871-1.3457,0.1771-2.0324,0.2607c-0.5354,0.0652-0.6679,0.1809-0.2334,0.3932
			c0.8608,0.4205,1.7136,0.8447,2.5645,1.2716c0.4239,0.2126,0.8871,0.2646,1.4174,0.1931
			c1.3568-0.1829,2.7048-0.3649,4.0513-0.5423c0.5795-0.0763,0.5886-0.2214,0.1483-0.4335
			c-0.825-0.3973-1.6449-0.7931-2.4477-1.1888c-0.4693-0.2314-0.9521-0.2916-1.5407-0.205
			C87.3831,107.2626,86.7239,107.3385,86.0783,107.4219z"/>
	</g>
	<g>
		<path class="st248" d="M94.9202,100.7832c-0.5986,0.0701-1.1917,0.1438-1.8031,0.2098c-0.4972,0.0537-0.6201,0.1545-0.2004,0.3482
			c0.8283,0.3821,1.6509,0.7672,2.47,1.1547c0.4123,0.1951,0.8548,0.2393,1.3358,0.1808c1.2546-0.1526,2.5-0.3051,3.7388-0.4565
			c0.4728-0.0578,0.5753-0.1673,0.1572-0.3579c-0.8334-0.3799-1.6596-0.7587-2.4705-1.1371
			c-0.4114-0.192-0.8237-0.2287-1.296-0.1696C96.2181,100.635,95.5668,100.7075,94.9202,100.7832z"/>
	</g>
	<g>
		<path class="st248" d="M107.3843,99.3219c-0.5915,0.0691-1.1802,0.1403-1.7801,0.2075c-0.4502,0.0504-0.4848,0.1546-0.1094,0.3224
			c0.847,0.3786,1.6925,0.7595,2.5413,1.1422c0.3549,0.16,0.7508,0.2087,1.1486,0.1614c1.2422-0.1478,2.4699-0.298,3.688-0.4482
			c0.4236-0.0523,0.4599-0.1646,0.0867-0.3302c-0.8489-0.3768-1.6927-0.7521-2.5453-1.1242
			c-0.3389-0.1479-0.7225-0.203-1.1269-0.1541C108.6589,99.1746,108.0212,99.2475,107.3843,99.3219z"/>
	</g>
	<g>
		<path class="st248" d="M58.2542,113.4947c0.735-0.099,1.4648-0.1992,2.2003-0.2948c0.6351-0.0825,0.7745-0.2257,0.3127-0.4682
			c-0.8422-0.4423-1.6611-0.8852-2.4699-1.3266c-0.3987-0.2177-0.8539-0.2915-1.468-0.2106
			c-1.5442,0.2034-3.1066,0.404-4.6842,0.6032c-0.6399,0.0809-0.6705,0.2352-0.2833,0.4486c0.8137,0.4485,1.632,0.899,2.4563,1.3516
			c0.4435,0.2435,0.9872,0.2976,1.6244,0.2083C56.7094,113.6988,57.486,113.5982,58.2542,113.4947z"/>
	</g>
	<g>
		<path class="st248" d="M118.9871,102.589c0.5582-0.0713,1.1065-0.1461,1.672-0.2123c0.4618-0.0541,0.5348-0.1646,0.1273-0.3459
			c-0.8589-0.3822-1.7214-0.7618-2.5873-1.1389c-0.3495-0.1522-0.7427-0.2026-1.134-0.1547
			c-1.227,0.1503-2.461,0.3016-3.6993,0.4553c-0.3739,0.0464-0.3854,0.147-0.0644,0.2907c0.8783,0.393,1.7651,0.7873,2.65,1.184
			c0.4007,0.1797,0.7944,0.2118,1.2133,0.1556C117.7679,102.742,118.3807,102.6664,118.9871,102.589z"/>
	</g>
	<g>
		<path class="st248" d="M133.8526,103.3734c0.533-0.0715,1.0642-0.1429,1.5948-0.2138c0.4311-0.0576,0.4578-0.1702,0.0292-0.3514
			c-0.8716-0.3684-1.7336-0.736-2.5909-1.1022c-0.3839-0.164-0.765-0.2226-1.1786-0.1687c-1.147,0.1496-2.3047,0.2984-3.4711,0.4473
			c-0.4335,0.0553-0.379,0.1748-0.0117,0.3346c0.8345,0.3631,1.6773,0.727,2.5234,1.0925c0.4789,0.2069,0.9471,0.2616,1.4363,0.1892
			c0.5461-0.0808,1.1151-0.1513,1.6718-0.2259C133.8548,103.3744,133.8537,103.3739,133.8526,103.3734z"/>
	</g>
	<g>
		<path class="st248" d="M153.0031,103.457c0.5351-0.0749,1.0727-0.1479,1.5985-0.225c0.3825-0.0561,0.3745-0.1703-0.021-0.3354
			c-0.9037-0.3771-1.8046-0.7525-2.703-1.1261c-0.3719-0.1547-0.7357-0.1975-1.0966-0.1486c-1.1075,0.1499-2.2215,0.3006-3.347,0.45
			c-0.3999,0.0531-0.4339,0.1541-0.0288,0.3245c0.8799,0.3701,1.7623,0.7419,2.6397,1.1164
			c0.4374,0.1867,0.8622,0.2342,1.2781,0.1789C151.8913,103.616,152.4451,103.5351,153.0031,103.457z"/>
	</g>
	<g>
		<path class="st248" d="M135.196,105.9151c0.541-0.076,1.0787-0.1525,1.619-0.227c0.4584-0.0633,0.5342-0.1749,0.0447-0.3811
			c-0.8766-0.3692-1.7316-0.7397-2.5767-1.1093c-0.4119-0.1801-0.7948-0.2523-1.2579-0.1875
			c-1.135,0.1587-2.2877,0.3136-3.4554,0.4657c-0.4682,0.061-0.4645,0.179-0.0468,0.3613c0.8563,0.3739,1.7152,0.7495,2.5775,1.1268
			c0.4611,0.2017,0.9253,0.2551,1.3937,0.189c0.5678-0.08,1.1349-0.1594,1.7-0.2388
			C135.1947,105.9145,135.1954,105.9148,135.196,105.9151z"/>
	</g>
	<g>
		<path class="st248" d="M113.1974,106.6897c-0.6132,0.083-1.2223,0.169-1.8482,0.2483c-0.4963,0.0629-0.5624,0.1784-0.1209,0.3792
			c0.8869,0.4034,1.7623,0.8107,2.6452,1.2194c0.4012,0.1857,0.8397,0.2459,1.2901,0.1835c1.2624-0.1748,2.5117-0.351,3.7498-0.5278
			c0.5133-0.0733,0.4821-0.2157,0.022-0.4204c-0.8543-0.3802-1.6928-0.7607-2.5142-1.1412
			c-0.459-0.2126-0.8944-0.2638-1.3972-0.1895C114.4291,106.5292,113.8087,106.6069,113.1974,106.6897z"/>
	</g>
	<g>
		<path class="st248" d="M106.8235,107.5501c-0.6309,0.085-1.258,0.1731-1.9003,0.2551c-0.5011,0.0639-0.6074,0.1775-0.1607,0.3848
			c0.8854,0.4108,1.7609,0.8255,2.6408,1.242c0.4025,0.1905,0.8528,0.2499,1.3112,0.1875c1.3285-0.1808,2.6409-0.3643,3.9378-0.5498
			c0.4626-0.0662,0.4241-0.2031,0.0318-0.3835c-0.8883-0.4085-1.7698-0.8156-2.64-1.2217c-0.396-0.1848-0.7999-0.2427-1.2633-0.1776
			c-0.6439,0.0905-1.3006,0.1763-1.9548,0.2645C106.8252,107.5508,106.8244,107.5505,106.8235,107.5501z"/>
	</g>
	<g>
		<path class="st248" d="M62.8005,116.0593c0.7679-0.1078,1.5355-0.214,2.2952-0.3227c0.6113-0.0875,0.7875-0.2336,0.3097-0.4845
			c-0.8617-0.4526-1.7024-0.9056-2.5275-1.3577c-0.4156-0.2278-0.8826-0.29-1.4862-0.2071
			c-1.5485,0.2125-3.1129,0.4236-4.6947,0.6323c-0.6334,0.0836-0.6982,0.2301-0.2801,0.4562
			c0.8458,0.4573,1.6826,0.9188,2.5177,1.3833c0.4165,0.2317,0.9318,0.3046,1.5415,0.223c0.7829-0.1048,1.5503-0.2164,2.3207-0.3246
			C62.7981,116.058,62.7993,116.0586,62.8005,116.0593z"/>
	</g>
	<g>
		<path class="st248" d="M86.58,110.2852c-0.6879,0.0927-1.372,0.1887-2.0718,0.278c-0.5054,0.0645-0.6605,0.175-0.245,0.3821
			c0.8957,0.4465,1.7899,0.896,2.6852,1.3482c0.4022,0.2031,0.8626,0.2599,1.366,0.1899c1.4142-0.1966,2.817-0.3932,4.2049-0.5912
			c0.5259-0.0751,0.5829-0.2224,0.1631-0.4298c-0.8773-0.4334-1.7512-0.8646-2.6296-1.2926
			c-0.3977-0.1938-0.8498-0.2415-1.3421-0.1726C88.0081,110.0954,87.2931,110.1891,86.58,110.2852z"/>
	</g>
	<g>
		<path class="st248" d="M93.48,109.3531c-0.6415,0.0864-1.2739,0.1786-1.933,0.2584c-0.5758,0.0697-0.7061,0.1976-0.2437,0.4239
			c0.8531,0.4175,1.7031,0.8378,2.5651,1.259c0.4196,0.2051,0.917,0.2794,1.4451,0.2067c1.3764-0.1894,2.7371-0.3811,4.0872-0.5724
			c0.4716-0.0668,0.5614-0.1906,0.1484-0.3881c-0.9084-0.4345-1.8092-0.8675-2.6979-1.2994
			c-0.4094-0.1989-0.8275-0.2353-1.3019-0.1681C94.8689,109.1695,94.1727,109.2598,93.48,109.3531z"/>
	</g>
	<g>
		<path class="st248" d="M66.9857,112.9312c-0.7141,0.0963-1.4217,0.1977-2.1516,0.2883c-0.6331,0.0786-0.8078,0.2108-0.3329,0.459
			c0.8546,0.4466,1.6902,0.8986,2.5277,1.3531c0.3851,0.209,0.8547,0.2913,1.4142,0.2158c1.6005-0.2161,3.188-0.4319,4.7468-0.6553
			c0.4895-0.0702,0.5174-0.2217,0.1601-0.4091c-0.8914-0.4674-1.7806-0.9321-2.6658-1.3944
			c-0.3631-0.1896-0.7989-0.2459-1.3013-0.178c-0.7946,0.1074-1.5927,0.2148-2.3933,0.3228
			C66.9882,112.9326,66.9869,112.9319,66.9857,112.9312z"/>
	</g>
	<g>
		<path class="st248" d="M100.2439,108.4391c-0.6494,0.0873-1.2939,0.1783-1.9554,0.2621
			c-0.5277,0.0669-0.5963,0.1905-0.1617,0.3969c0.8605,0.4086,1.7195,0.82,2.5677,1.2351c0.4644,0.2273,0.9613,0.2818,1.4917,0.2057
			c1.3236-0.19,2.631-0.3825,3.9317-0.573c0.4261-0.0624,0.4979-0.1742,0.113-0.3548c-0.909-0.4264-1.8116-0.8511-2.6986-1.2753
			c-0.4083-0.1952-0.814-0.2346-1.2779-0.1687C101.5938,108.261,100.9171,108.3486,100.2439,108.4391z"/>
	</g>
	<g>
		<path class="st248" d="M78.7625,102.204c0.6338-0.0738,1.261-0.1499,1.8976-0.2201c0.4977-0.0549,0.5519-0.1658,0.1798-0.3421
			c-0.4371-0.2071-0.866-0.4146-1.2892-0.6221c-0.3518-0.1725-0.7507-0.2393-1.247-0.1824
			c-1.2577,0.1442-2.525,0.2882-3.8047,0.4303c-0.5035,0.0559-0.5635,0.1666-0.1956,0.3437
			c0.4346,0.2092,0.8659,0.4195,1.2848,0.6317c0.3957,0.2004,0.8314,0.2417,1.346,0.1765c0.6022-0.0762,1.2209-0.1437,1.83-0.2146
			C78.7637,102.2046,78.7631,102.2043,78.7625,102.204z"/>
	</g>
	<g>
		<path class="st248" d="M44.4975,106.1923c0.6956-0.081,1.3818-0.166,2.0829-0.2412c0.6217-0.0667,0.6843-0.1963,0.2967-0.4018
			c-2.0998-1.1134-1.3547-0.9732-4.3286-0.656c-0.8242,0.0879-1.6229,0.1924-2.4607,0.276
			c-0.7273,0.0726-0.799,0.2119-0.3604,0.4473c2.0323,1.0904,1.3008,0.9617,4.3177,0.63c0.1532-0.0169,0.3035-0.0352,0.455-0.0529
			C44.4992,106.1932,44.4983,106.1927,44.4975,106.1923z"/>
	</g>
	<g>
		<path class="st248" d="M122.779,95.7915c-0.5012,0.0568-0.9984,0.1159-1.5088,0.1701c-0.4114,0.0437-0.4621,0.1347-0.0796,0.2946
			c0.4622,0.1931,0.9159,0.3879,1.3724,0.5829c0.3508,0.1498,0.6992,0.1894,1.0739,0.1448
			c1.0452-0.1243,2.0898-0.2459,3.1323-0.3655c0.3709-0.0425,0.3798-0.1266,0.0728-0.2765
			c-1.6463-0.8036-1.722-0.8171-3.7393-0.5885c-0.1087,0.0123-0.2174,0.0246-0.3262,0.037
			C122.7773,95.7908,122.7781,95.7911,122.779,95.7915z"/>
	</g>
	<g>
		<path class="st248" d="M135.4801,95.6055c0.4744-0.0555,0.9408-0.1138,1.4228-0.1648c0.4173-0.0442,0.4398-0.1357,0.0301-0.301
			c-2.1754-0.8775-1.5396-0.7652-3.5766-0.5499c-0.5873,0.0621-1.1527,0.1343-1.7433,0.1967
			c-0.4219,0.0446-0.451,0.1376-0.048,0.3025c2.1995,0.8996,1.5411,0.7738,3.605,0.5528
			C135.2753,95.6304,135.3771,95.6177,135.4801,95.6055z"/>
	</g>
	<g>
		<path class="st248" d="M65.5632,103.7421c0.6427-0.0753,1.2705-0.1575,1.9277-0.2225c0.6718-0.0665,0.6864-0.2017,0.2423-0.4224
			c-2.0488-1.0183-1.4535-0.879-4.0527-0.6015c-0.7908,0.0844-1.5611,0.1813-2.3579,0.266
			c-0.562,0.0598-0.6968,0.1708-0.2952,0.3742c2.1709,1.0993,1.4125,0.9462,4.1999,0.6457
			C65.341,103.7693,65.4518,103.7555,65.5632,103.7421z"/>
	</g>
	<g>
		<path class="st248" d="M97.3103,100.0458c0.589-0.0686,1.174-0.1382,1.7629-0.2049c0.4262-0.0484,0.4569-0.1504,0.1195-0.3057
			c-0.0197-0.0091-0.0371-0.0184-0.057-0.0274c-2.1655-0.9826-1.5218-0.8438-3.9186-0.5902
			c-0.6967,0.0737-1.373,0.1583-2.0689,0.235c-0.468,0.0516-0.5052,0.1567-0.1338,0.3265c2.2113,1.0106,1.4826,0.876,3.9303,0.6114
			c0.1249-0.0135,0.2463-0.0285,0.3692-0.0429C97.3128,100.0469,97.3115,100.0463,97.3103,100.0458z"/>
	</g>
	<g>
		<path class="st248" d="M108.7585,98.7147c0.6632-0.0772,1.1944-0.1418,1.7349-0.2013c0.4227-0.0466,0.5298-0.1358,0.1371-0.3061
			c-0.4623-0.2005-0.915-0.4016-1.3672-0.6022c-0.3414-0.1514-0.704-0.2002-1.1029-0.1547
			c-1.1146,0.1271-2.2341,0.2554-3.3671,0.381c-0.4531,0.0502-0.4472,0.1587-0.0953,0.3181
			c0.0195,0.0089,0.0367,0.018,0.0567,0.0267C106.9563,99.1472,106.1433,98.9925,108.7585,98.7147z"/>
	</g>
	<g>
		<path class="st248" d="M91.1396,100.7648c0.7302-0.0851,1.3021-0.1547,1.8842-0.2186c0.4612-0.0506,0.5641-0.1483,0.1769-0.3248
			c-0.4608-0.2101-0.9108-0.4208-1.3606-0.6309c-0.3429-0.1601-0.7238-0.2056-1.1479-0.1575
			c-1.2008,0.1363-2.4069,0.274-3.626,0.4096c-0.4367,0.0485-0.511,0.1473-0.197,0.3079c0.0367,0.0187,0.0707,0.0378,0.1101,0.0563
			C89.1723,101.2359,88.3937,101.0552,91.1396,100.7648z"/>
	</g>
	<g>
		<path class="st248" d="M140.4704,95.0238c0.4653-0.0542,0.9238-0.1106,1.3942-0.1615c0.3845-0.0416,0.3786-0.1365,0.0183-0.283
			c-0.4328-0.176-0.8686-0.3513-1.3047-0.526c-0.4-0.1602-0.7706-0.1984-1.1617-0.1519c-0.9175,0.1092-1.8514,0.2143-2.7958,0.3173
			c-0.4147,0.0452-0.4246,0.1378-0.0213,0.2997c2.2027,0.8843,1.5188,0.7599,3.5696,0.542c0.1034-0.011,0.203-0.0235,0.3043-0.0353
			C140.4723,95.0246,140.4713,95.0242,140.4704,95.0238z"/>
	</g>
	<g>
		<path class="st248" d="M114.483,98.0489c0.5002-0.0585,0.9884-0.1219,1.5012-0.1733c0.4895-0.0491,0.5686-0.15,0.1361-0.3382
			c-2.1678-0.943-1.5791-0.7939-3.706-0.5715c-0.6247,0.0653-1.2169,0.1465-1.8559,0.2071
			c-0.5921,0.0562-0.5712,0.1756-0.0901,0.3825c2.0496,0.8815,1.425,0.7789,3.673,0.5334
			C114.2568,98.0762,114.3695,98.0623,114.483,98.0489z"/>
	</g>
	<g>
		<path class="st248" d="M58.7476,104.5323c0.6891-0.0803,1.3746-0.1612,2.0617-0.2399c0.4946-0.0567,0.5753-0.1692,0.2288-0.3422
			c-0.0199-0.0099-0.0361-0.0203-0.0557-0.0303c-2.1329-1.0834-1.3907-0.9408-4.2194-0.64
			c-0.8126,0.0864-1.6058,0.185-2.4201,0.2741c-0.5467,0.0599-0.6325,0.1812-0.2822,0.3663
			c0.4207,0.2223,0.8462,0.4448,1.274,0.6677c0.3957,0.2061,0.8658,0.251,1.4258,0.1793c0.6537-0.0838,1.3275-0.1565,1.9899-0.2337
			C58.7494,104.5333,58.7485,104.5328,58.7476,104.5323z"/>
	</g>
	<g>
		<path class="st248" d="M51.7455,105.3503c0.6787-0.0791,1.3611-0.1551,2.0291-0.2372c1.158-0.1423,0.2779-0.4295-0.1907-0.6337
			c-0.5438-0.2369-0.6425-0.7199-2.1293-0.5871c-1.4267,0.1274-2.7716,0.3091-4.1698,0.4652
			c-0.5644,0.063-0.6384,0.1842-0.2779,0.3743c2.17,1.1441,1.3457,0.9887,4.2966,0.6711c0.15-0.0162,0.2962-0.0343,0.444-0.0516
			C51.7469,105.3511,51.7462,105.3507,51.7455,105.3503z"/>
	</g>
	<g>
		<path class="st248" d="M119.881,97.421c0.4877-0.0572,0.962-0.1198,1.4645-0.169c0.5128-0.0502,0.5763-0.151,0.0998-0.35
			c-2.1123-0.8822-1.4836-0.7772-3.6582-0.5456c-0.6074,0.0647-1.1929,0.14-1.807,0.2037
			c-0.4812,0.0499-0.5409,0.1537-0.1196,0.3371c2.1806,0.9492,1.5745,0.7859,3.6872,0.5628
			C119.6612,97.448,119.7705,97.4342,119.881,97.421z"/>
	</g>
	<g>
		<path class="st248" d="M85.1498,101.4629c0.5668-0.0666,1.1209-0.1386,1.701-0.1966c0.5549-0.0555,0.6664-0.165,0.2355-0.3694
			c-2.1292-1.0102-1.5584-0.8633-3.9533-0.6085c-0.7309,0.0778-1.4378,0.1688-2.178,0.2448
			c-0.5897,0.0606-0.5814,0.1853-0.1659,0.3815c2.1259,1.0036,1.4169,0.8694,3.9734,0.5937
			C84.8938,101.4942,85.0215,101.4783,85.1498,101.4629z"/>
	</g>
	<g>
		<path class="st248" d="M72.3451,102.953c0.5978-0.07,1.185-0.1445,1.7926-0.2074c0.5496-0.0568,0.6508-0.1638,0.2374-0.3636
			c-2.1827-1.0549-1.4227-0.9162-4.1896-0.6241c-0.7164,0.0756-1.4107,0.164-2.1306,0.2406
			c-0.5531,0.0588-0.6494,0.1724-0.2482,0.3696c2.2041,1.0834,1.3813,0.925,4.1297,0.6327
			C72.0751,102.986,72.2095,102.9692,72.3451,102.953z"/>
	</g>
	<g>
		<path class="st248" d="M103.1694,99.3646c0.5502-0.0639,1.0911-0.1313,1.6479-0.1904c0.4508-0.0479,0.5143-0.1429,0.1233-0.3127
			c-0.4667-0.2028-0.916-0.4071-1.3672-0.6104c-0.3438-0.155-0.7121-0.2-1.1164-0.154c-1.1173,0.1272-2.239,0.2558-3.3744,0.3816
			c-0.4532,0.0502-0.5041,0.1508-0.1298,0.3181c0.4592,0.2053,0.9141,0.4118,1.3638,0.6195
			c0.3507,0.1619,0.7145,0.2006,1.1235,0.1505C102.0123,99.4966,102.5937,99.4315,103.1694,99.3646z"/>
	</g>
	<g>
		<path class="st248" d="M130.4194,96.1938c0.4872-0.0569,0.9661-0.1168,1.461-0.1691c0.4038-0.0427,0.4275-0.132,0.0397-0.2881
			c-0.4465-0.1798-0.8795-0.3608-1.3086-0.5416c-0.3542-0.1492-0.7088-0.2133-1.113-0.1666
			c-0.9884,0.1143-1.9855,0.2276-2.9933,0.339c-0.4048,0.0448-0.4179,0.1389-0.046,0.2928c0.4397,0.182,0.8815,0.3644,1.3061,0.549
			c0.4063,0.1767,0.7788,0.2108,1.1878,0.1572C129.4308,96.3039,129.931,96.2509,130.4194,96.1938z"/>
	</g>
	<g>
		<polygon class="st244" points="138.3302,91.2163 33.1935,102.8583 34.0614,104.4747 139.0918,92.9271 		"/>
	</g>
	<g>
		<path class="st249" d="M170.2728,34.0068c-0.2924,0.496-14.682,8.8262-23.7186,24.3826l26.5386-4.6635L170.2728,34.0068z"/>
	</g>
	<g>
		<path class="st250" d="M159.0953,64.6255l13.4395-5.3856c0,0,1.0167-0.4735,2.0489-1.2972
			c1.0754-0.8582,1.8045-2.0764,2.0618-3.428l3.3977-17.8425l-8.1791,5.5444l-1.2648,8.9766c0,0-0.1856,1.209-2.8308,1.4872
			l-6.9248,1.2678c-2.4314,0.4451-4.8968-0.6986-6.0754-2.8713c-0.213-0.3927-0.3782-0.8074-0.4678-1.2373l-8.8395,8.9962
			l6.8472,4.6329C152.3081,63.4686,155.6297,65.9775,159.0953,64.6255z"/>
	</g>
	<g>
		<path class="st251" d="M207.7616,43.3906c0,4.3799-3.1241,7.9297-6.9751,7.9297h-36.2703c-3.852,0-6.975-3.5498-6.975-7.9297
			V17.5888c0-3.688,17.6575-13.5692,23.2389-16.6003c1.0477-0.569,2.2564-0.5927,3.2509-0.0619
			c5.5385,2.9561,23.7307,12.9487,23.7307,16.6622V43.3906z"/>
	</g>
	<g>
		<path class="st252" d="M200.067,0h-6.908h-19.7943h-6.908c-1.6119,0-2.9594,1.0767-2.9594,2.442v7.6355v38.2418
			c0,1.365,1.3274,2.4576,2.9393,2.4576l0.0202-0.0149h33.61l0.0001,0.0149c1.511,0,2.751-0.9659,2.9006-2.2124
			c0.0099-0.0831,0.0115-0.16,0.0115-0.2453V10.0775V2.442C202.979,1.0767,201.6788,0,200.067,0z"/>
	</g>
	<g class="st149">
		<path class="st259" d="M193.159,0.5414l1.1351,9.7369c0,0-0.1683,1.276,1.1749,1.3573c1.3428,0.0813,7.5172-1.5163,7.5172-1.5163
			L193.159,0.5414z"/>
	</g>
	<g>
		<path class="st217" d="M193.159,0.0111v8.7507c0,0-0.1682,1.2761,1.175,1.3574c1.3428,0.0814,8.6521,0,8.6521,0L193.159,0.0111z"
			/>
	</g>
	<g>
		<rect x="167.2535" y="3.4848" class="st254" width="20.6289" height="0.3291"/>
	</g>
	<g>
		<rect x="167.2535" y="6.9279" class="st254" width="22.9472" height="0.3291"/>
	</g>
	<g>
		<rect x="167.2535" y="10.3709" class="st254" width="22.9472" height="0.3291"/>
	</g>
	<g>
		<rect x="167.2535" y="13.814" class="st254" width="31.6702" height="0.3291"/>
	</g>
	<g>
		<rect x="167.2535" y="17.257" class="st254" width="31.6702" height="0.3291"/>
	</g>
	<g>
		<rect x="167.2535" y="20.7001" class="st254" width="31.6702" height="0.3291"/>
	</g>
	<g>
		<rect x="167.2535" y="24.1432" class="st254" width="31.6702" height="0.3291"/>
	</g>
	<g>
		<rect x="167.2535" y="27.5862" class="st254" width="31.6702" height="0.3291"/>
	</g>
	<g>
		<rect x="167.2535" y="31.0293" class="st254" width="22.9472" height="0.3291"/>
	</g>
	<g>
		<path class="st255" d="M207.7611,18.0383v25.601c-0.146,2.111-0.7904,3.6376-1.6205,4.7388
			c-1.9605,2.603-4.9639,2.8449-4.9639,2.8449l-18.5245-18.3307L207.7611,18.0383z"/>
	</g>
	<g>
		<path class="st255" d="M182.6522,32.8923L164.1275,51.223c0,0-3.0054-0.2419-4.9659-2.8449
			c-0.8301-1.1011-1.4725-2.6278-1.6206-4.7388v-25.601L182.6522,32.8923z"/>
	</g>
	<g>
		<path class="st251" d="M206.1406,48.3781c-1.9605,2.603-4.9639,2.8449-4.9639,2.8449h-37.0492c0,0-3.0054-0.2419-4.9659-2.8449
			l23.4907-15.4858L206.1406,48.3781z"/>
	</g>
	<g>
		<path class="st250" d="M158.2299,44.4902c0.8184-0.4978,4.1983-2.228,7.5405-2.587l6.8311-0.8729c0,0,2.2822-0.3938,2.9448-2.6656
			c0.0306-0.105,0.0498-0.2129,0.0587-0.322c0.051-0.6295,0.0878-2.8236-1.6715-4.2241c-0.1971-0.1569-0.4275-0.2667-0.6736-0.3205
			c-0.5542-0.1213-1.7194-0.2328-3.8792,0.1043l-18.6033,2.2098c0,0-4.6615,0.7688-7.6737,2.2
			c-0.0462,0.0219-0.0932,0.0419-0.1412,0.0595c-0.4691,0.1721-3.1405,1.1673-4.3325,1.9431
			c-0.1943,0.1265-0.4125,0.2113-0.6414,0.2483l-2.7882,0.4507c-0.0471,0.0076-0.0792,0.0519-0.0717,0.0991l2.3578,14.8575
			l1.6379-0.2599c0.3934-0.0624,0.7961,0.0188,1.1345,0.2288l5.1877,3.2196l8.2198-8.3681c0.1887-0.1921,0.4355-0.427,0.6213-0.6219
			C154.4538,49.6943,152.6694,47.8728,158.2299,44.4902z"/>
	</g>
	<g>
		<path class="st256" d="M169.3488,35.519l0.6689,3.7477c0.0571,0.3201,0.3661,0.5308,0.6849,0.4671l2.0422-0.4079
			c0,0,1.6011-0.4209,1.4915-2.5179c0,0-0.1572-1.7532-1.8083-2.2578c0,0-0.6754-0.1537-1.9494,0.1812l-0.6576,0.114
			C169.5041,34.9002,169.2923,35.2023,169.3488,35.519z"/>
	</g>
	<g>
		<path class="st192" d="M127.5954,60.0413l-3.1831-20.1961c-0.2055-1.304,0.6932-2.5391,1.9973-2.7446l6.3163-0.9955
			c1.304-0.2055,2.5391,0.6932,2.7446,1.9973l3.1832,20.1961c0.2055,1.304-0.6933,2.5391-1.9973,2.7446l-6.3162,0.9955
			C129.0361,62.2441,127.801,61.3453,127.5954,60.0413z"/>
	</g>
	<g>
		<path class="st257" d="M124.8118,38.7684l-47.1749,7.448c0.0006-0.0066,0.0013-0.0132,0.002-0.0198l47.1662-7.4692
			L124.8118,38.7684z"/>
	</g>
	<g>
		<path class="st258" d="M126.6808,50.6526l1.6248,10.3327l-47.4325,7.4881c-1.1453-2.7812-2.226-6.192-2.8679-10.1362
			L126.6808,50.6526z"/>
	</g>
	<g>
		<path class="st257" d="M77.6369,46.2164l47.1749-7.448l1.869,11.8842l-48.6756,7.6846
			C77.4167,54.7208,77.1978,50.656,77.6369,46.2164z"/>
	</g>
</g>
</svg>
