<?xml version="1.0" encoding="utf-8"?>
<!-- Generator: Adobe Illustrator 21.0.2, SVG Export Plug-In . SVG Version: 6.00 Build 0)  -->
<svg version="1.1" id="Capa_1" xmlns="http://www.w3.org/2000/svg" xmlns:xlink="http://www.w3.org/1999/xlink" x="0px" y="0px"
	 viewBox="0 0 164.7894 341.061" style="enable-background:new 0 0 164.7894 341.061;" xml:space="preserve">
<style type="text/css">
	.st0{fill-rule:evenodd;clip-rule:evenodd;fill:#DDDDDD;}
	.st1{fill:#ACABC9;}
	.st2{opacity:0.25;clip-path:url(#XMLID_2960_);}
	.st3{fill:#FFFFFF;}
	.st4{fill:#3B86B1;}
	.st5{opacity:0.25;fill-rule:evenodd;clip-rule:evenodd;fill:#020202;}
	.st6{opacity:0.5;}
	.st7{fill-rule:evenodd;clip-rule:evenodd;fill:#A8A8A8;}
	.st8{fill-rule:evenodd;clip-rule:evenodd;fill:#FFFFFF;}
	.st9{fill-rule:evenodd;clip-rule:evenodd;fill:#3B86B1;}
	.st10{opacity:0.5;fill:#2C6882;}
	.st11{opacity:0.75;fill-rule:evenodd;clip-rule:evenodd;fill:#282828;}
	.st12{opacity:0.5;fill:#FFFFFF;}
	.st13{fill-rule:evenodd;clip-rule:evenodd;fill:none;stroke:#FFFFFF;stroke-miterlimit:10;}
	.st14{fill:none;stroke:#FFFFFF;stroke-miterlimit:10;}
	.st15{fill:#FFFFFF;stroke:#3B86B1;stroke-width:1.7139;stroke-miterlimit:10;}
	.st16{fill-rule:evenodd;clip-rule:evenodd;}
	.st17{opacity:0.85;fill:#FFFFFF;}
	.st18{opacity:0.5;fill-rule:evenodd;clip-rule:evenodd;}
	.st19{fill-rule:evenodd;clip-rule:evenodd;fill:#FEFEFE;}
	.st20{fill:#312767;}
	.st21{opacity:0.48;}
	.st22{opacity:0.25;}
	.st23{fill-rule:evenodd;clip-rule:evenodd;fill:#020202;}
	.st24{fill:#757575;}
	.st25{opacity:0.25;clip-path:url(#XMLID_2961_);}
	.st26{fill:#FFFFFF;stroke:#312767;stroke-miterlimit:10;}
	.st27{fill-rule:evenodd;clip-rule:evenodd;fill:#312767;}
	.st28{opacity:0.77;fill:#312767;}
	.st29{opacity:0.25;clip-path:url(#XMLID_2962_);}
	.st30{opacity:0.75;}
	.st31{fill-rule:evenodd;clip-rule:evenodd;fill:#282828;}
	.st32{fill:#9490B2;stroke:#2D2D2D;stroke-width:0.25;stroke-miterlimit:10;}
	.st33{fill:#312767;stroke:#2D2D2D;stroke-width:0.25;stroke-miterlimit:10;}
	.st34{fill:#FCFCFC;}
	.st35{fill:#FFFFFF;stroke:#2D2D2D;stroke-width:0.25;stroke-miterlimit:10;}
	.st36{fill-rule:evenodd;clip-rule:evenodd;fill:#484849;stroke:#2D2D2D;stroke-width:0.25;stroke-miterlimit:10;}
	.st37{fill-rule:evenodd;clip-rule:evenodd;fill:#312767;stroke:#2D2D2D;stroke-width:0.25;stroke-miterlimit:10;}
	.st38{fill-rule:evenodd;clip-rule:evenodd;fill:#FFFFFF;stroke:#2D2D2D;stroke-width:0.25;stroke-miterlimit:10;}
	.st39{fill:#484849;stroke:#2D2D2D;stroke-width:0.25;stroke-miterlimit:10;}
	.st40{fill:#FFFFFF;stroke:#FFFFFF;stroke-miterlimit:10;}
	.st41{fill:#54518C;}
	.st42{opacity:0.25;fill-rule:evenodd;clip-rule:evenodd;fill:#FFFFFF;}
	.st43{fill:#D4A800;}
	.st44{fill:#00AEB3;}
	.st45{fill:#38353B;}
	.st46{fill:#FF8400;}
	.st47{fill:#BF3900;}
	.st48{fill:#00AA9C;}
	.st49{opacity:0.25;clip-path:url(#XMLID_2963_);}
	.st50{fill:none;stroke:#ACABC9;stroke-width:5;stroke-miterlimit:10;}
	.st51{fill:#67A53F;}
	.st52{fill:#DDDDDD;}
	.st53{opacity:0.25;clip-path:url(#XMLID_2964_);}
	.st54{fill-rule:evenodd;clip-rule:evenodd;fill:#FFFFFF;stroke:#FFFFFF;stroke-miterlimit:10;}
	.st55{fill:#02897C;}
	.st56{fill:#0EAD9A;}
	.st57{fill:#28C6AF;}
	.st58{fill:#4FE0C7;}
	.st59{opacity:0.25;clip-path:url(#XMLID_2965_);}
	.st60{fill:#3CA7AF;}
	.st61{fill:#3DAD8D;}
	.st62{fill:#296E8C;}
	.st63{fill:#308E71;}
	.st64{fill:#2D8A8C;}
	.st65{opacity:0.25;clip-path:url(#XMLID_2966_);}
	.st66{opacity:0.77;fill:#FFFFFF;}
	.st67{fill:#50565B;stroke:#656C70;stroke-miterlimit:10;}
	.st68{fill:#808589;stroke:#656C70;stroke-miterlimit:10;}
	.st69{fill:#252728;stroke:#000000;stroke-miterlimit:10;}
	.st70{fill:#1A1B1C;stroke:#000000;stroke-miterlimit:10;}
	.st71{fill:#A0A6AA;}
	.st72{fill:#262C35;stroke:#161A1E;stroke-miterlimit:10;}
	.st73{fill:#181D23;}
	.st74{fill:#EABA96;stroke:#E0AA86;stroke-miterlimit:10;}
	.st75{fill:#E0AA86;}
	.st76{stroke:#000000;stroke-width:0.75;stroke-linecap:square;stroke-linejoin:bevel;stroke-miterlimit:10;}
	.st77{fill:#0F1C3F;stroke:#182951;stroke-miterlimit:10;}
	.st78{fill:#132354;stroke:#3F6093;stroke-miterlimit:10;}
	.st79{fill:#0F1C3F;}
	.st80{fill:none;stroke:#3F6093;stroke-width:0.75;stroke-miterlimit:10;}
	.st81{fill:#DBA682;}
	.st82{fill:none;stroke:#E0AA86;stroke-miterlimit:10;}
	.st83{fill:none;stroke:#E0AA86;stroke-linejoin:bevel;stroke-miterlimit:10;}
	.st84{fill:#8A0A8E;stroke:#AC34B2;stroke-miterlimit:10;}
	.st85{fill:#810C87;}
	.st86{fill:#680B6D;}
	.st87{fill:#AC34B2;stroke:#AC34B2;stroke-width:0.5;stroke-miterlimit:10;}
	.st88{fill:none;stroke:#959DA0;stroke-width:0.5;stroke-miterlimit:10;}
	.st89{fill:#959DA0;stroke:#959DA0;stroke-width:0.5;stroke-miterlimit:10;}
	.st90{fill:none;stroke:#AC34B2;stroke-miterlimit:10;}
	.st91{fill:#282828;stroke:#000000;stroke-miterlimit:10;}
	.st92{fill:#EABA96;stroke:#E0AA86;stroke-width:0.5;stroke-miterlimit:10;}
	.st93{fill:#B7896A;}
	.st94{stroke:#000000;stroke-miterlimit:10;}
	.st95{fill:#C1A578;}
	.st96{stroke:#000000;stroke-width:0.25;stroke-linecap:round;stroke-linejoin:round;stroke-miterlimit:10;}
	.st97{fill:#FFFFFF;stroke:#000000;stroke-width:0.25;stroke-linecap:round;stroke-linejoin:round;stroke-miterlimit:10;}
	.st98{fill:#70582D;}
	.st99{stroke:#000000;stroke-linecap:round;stroke-linejoin:round;stroke-miterlimit:10;}
	.st100{fill:none;stroke:#D8A27D;stroke-width:0.75;stroke-miterlimit:10;}
	.st101{fill:#561409;}
	.st102{fill:#BA2A13;}
	.st103{fill:#9E3025;stroke:#4C2311;stroke-width:0.25;stroke-miterlimit:10;}
	.st104{fill:#871D08;stroke:#4C2311;stroke-width:0.25;stroke-miterlimit:10;}
	.st105{fill:#DDAC8A;}
	.st106{fill:#A5ABAD;stroke:#959DA0;stroke-width:0.5;stroke-miterlimit:10;}
	.st107{fill:#B1BABC;}
	.st108{fill:none;stroke:#153847;stroke-width:5;stroke-miterlimit:10;}
	.st109{fill:#3DAA61;}
	.st110{fill:#95A340;}
	.st111{opacity:0.25;clip-path:url(#XMLID_2967_);}
	.st112{opacity:0.25;clip-path:url(#XMLID_2968_);}
	.st113{opacity:0.25;clip-path:url(#XMLID_2969_);}
	.st114{opacity:0.25;clip-path:url(#XMLID_2970_);}
	.st115{opacity:0.25;clip-path:url(#XMLID_2971_);}
	.st116{clip-path:url(#SVGID_2_);}
	.st117{fill:none;stroke:#3F6093;stroke-miterlimit:10;}
	.st118{fill:none;stroke:#3F6093;stroke-width:0.75;stroke-linecap:round;stroke-linejoin:round;}
	.st119{fill:none;stroke:#3F6093;stroke-width:0.75;stroke-linecap:round;stroke-linejoin:round;stroke-dasharray:0.9892,0.9892;}
	
		.st120{fill:none;stroke:#3F6093;stroke-width:0.75;stroke-linecap:round;stroke-linejoin:round;stroke-miterlimit:10;stroke-dasharray:1;}
	.st121{fill:#EAEAEA;stroke:#FFFFFF;stroke-width:0.25;stroke-miterlimit:10;}
	.st122{fill:#D8D8D8;}
	.st123{fill:#282828;stroke:#000000;stroke-width:0.75;stroke-miterlimit:10;}
	.st124{opacity:0.33;fill:#FFFFFF;}
	.st125{fill:none;stroke:#000000;stroke-width:1.5;stroke-linecap:round;stroke-linejoin:round;stroke-miterlimit:10;}
	.st126{opacity:0.64;}
	.st127{fill:#C9C9C9;}
	.st128{fill:#FFF064;}
	.st129{fill:#4F4E4F;}
	.st130{fill:#1E2F47;}
	.st131{opacity:0.1;fill:#FFFFFF;}
	.st132{opacity:0.1;}
	.st133{opacity:0.4;fill:#FFFFFF;}
	.st134{fill-rule:evenodd;clip-rule:evenodd;fill:#F39C12;}
	.st135{fill-rule:evenodd;clip-rule:evenodd;fill:#E6E6E6;}
	.st136{fill-rule:evenodd;clip-rule:evenodd;fill:#474646;}
	.st137{fill-rule:evenodd;clip-rule:evenodd;fill:#D84848;}
	.st138{opacity:0.2;fill-rule:evenodd;clip-rule:evenodd;fill:#231F20;}
	.st139{opacity:0.1;fill-rule:evenodd;clip-rule:evenodd;fill:#231F20;}
	.st140{fill-rule:evenodd;clip-rule:evenodd;fill:#4D4D4D;}
	.st141{fill-rule:evenodd;clip-rule:evenodd;fill:#336699;}
	.st142{fill-rule:evenodd;clip-rule:evenodd;fill:#FF6633;}
	.st143{fill-rule:evenodd;clip-rule:evenodd;fill:#0056A3;}
	.st144{fill-rule:evenodd;clip-rule:evenodd;fill:#33CC99;}
	.st145{fill:#CE6405;}
	.st146{opacity:0.2;fill:#FFFFFF;}
	.st147{fill:#1ABC9C;}
	.st148{opacity:0.2;}
	.st149{fill:#0B2E44;}
	.st150{fill-rule:evenodd;clip-rule:evenodd;fill:#154F77;}
	.st151{fill-rule:evenodd;clip-rule:evenodd;fill:#0D3858;}
	.st152{fill-rule:evenodd;clip-rule:evenodd;fill:#FFFEFE;}
	.st153{fill:#AEC647;}
	.st154{fill:#F3AE1B;}
	.st155{fill:#DF3F11;}
	.st156{fill:#BCDEDE;}
	.st157{fill:#C84119;}
	.st158{fill:#6BB5CE;}
	.st159{fill:#00D0E5;}
	.st160{fill:#FF81ED;}
	.st161{fill:#00C982;}
	.st162{opacity:0.7;}
	.st163{opacity:0.4;}
	.st164{fill-rule:evenodd;clip-rule:evenodd;fill:#0B2E44;}
	.st165{opacity:0.8;fill-rule:evenodd;clip-rule:evenodd;fill:#FFFFFF;}
	.st166{fill:#424242;}
	.st167{opacity:0.2;fill-rule:evenodd;clip-rule:evenodd;fill:#FFFFFF;}
	.st168{fill:#D0EDFA;}
	.st169{fill:#FF651F;}
	.st170{fill:#0051C4;}
	.st171{fill:#E46400;}
	.st172{fill:#C0003B;}
	.st173{fill:#FFEA50;}
	.st174{fill:#FF2C0D;}
	.st175{fill:#FF1A2C;}
	.st176{fill:#FF2C4D;}
	.st177{fill:#FFD74C;}
	.st178{fill:#4C4C4B;}
	.st179{fill:#6CD2EA;}
	.st180{fill:#F7674F;}
	.st181{opacity:0.1;fill-rule:evenodd;clip-rule:evenodd;}
	.st182{fill:#BABABA;}
	.st183{fill:#F9B946;}
	.st184{fill:#DFC2A9;}
	.st185{fill:#BFA490;}
	.st186{fill:#F5D4B2;}
	.st187{fill:#DF584C;}
	.st188{fill:#C2443E;}
	.st189{fill:#DBDBDA;}
	.st190{fill:#2F363E;}
	.st191{fill:#332524;}
	.st192{fill:#473735;}
	.st193{opacity:0.25;clip-path:url(#XMLID_2972_);}
	.st194{fill:#52B8BA;}
	.st195{fill:#35373E;}
	.st196{fill:#D37D00;}
	.st197{opacity:0.25;clip-path:url(#XMLID_2973_);}
	.st198{opacity:0.31;}
	.st199{fill:#34383A;}
	.st200{opacity:0.16;}
	.st201{fill:#3D3835;}
	.st202{fill:#D0D1D4;}
	.st203{opacity:0.25;clip-path:url(#XMLID_2974_);}
	.st204{fill:#F9E1B4;}
	.st205{fill:#050505;}
	.st206{fill:#FCC60F;}
	.st207{fill:#74CAEA;}
	.st208{opacity:0.25;clip-path:url(#XMLID_2975_);}
	.st209{fill:#FABC8F;}
	.st210{fill:#3FA995;}
	.st211{opacity:0.17;fill:#020202;}
	.st212{fill:#E1E1E1;}
	.st213{opacity:0.17;}
	.st214{fill:#020202;}
	.st215{opacity:0.25;clip-path:url(#XMLID_2976_);}
	.st216{fill:#BF8E00;}
	.st217{fill:#F7D8D7;}
	.st218{fill:#F18636;}
	.st219{fill:#004460;}
	.st220{fill:#D93A37;}
	.st221{fill:#48505A;}
	.st222{fill:#C3C3C3;}
	.st223{fill:#E9E9EA;}
	.st224{fill:#9D9E9F;}
	.st225{fill:#F6F4F4;}
	.st226{fill:#6B6A6A;}
	.st227{fill:#C09478;}
	.st228{fill:#F7CDA0;}
	.st229{fill:#9E1010;}
	.st230{fill:#F2F2F2;}
	.st231{opacity:0.2;fill:#060606;}
	.st232{fill:#16AFBE;}
	.st233{fill:#DD2222;}
	.st234{fill:#FFEDDC;}
	.st235{fill:#22272B;}
	.st236{fill:#5B6375;}
	.st237{fill:#F79748;}
	.st238{fill:#FF7900;}
	.st239{fill:#DD7105;}
	.st240{fill:#556071;}
	.st241{fill:#FBFBFB;}
	.st242{fill:#BCBDC1;}
	.st243{fill:#6D6D6D;}
	.st244{fill:#D3D3D3;}
	.st245{fill:#3C6BAF;stroke:#3C6BAF;stroke-miterlimit:10;}
	.st246{fill:none;stroke:#153847;stroke-width:4;stroke-miterlimit:10;}
	.st247{fill:#153847;}
	.st248{fill:#50565B;}
	.st249{fill:#656C70;}
	.st250{fill:#808589;}
	.st251{fill:#252728;}
	.st252{fill:#1A1B1C;}
	.st253{fill:#262C35;}
	.st254{fill:#161A1E;}
	.st255{fill:#8DA367;}
	.st256{fill:#333231;}
	.st257{fill:#353534;}
	.st258{fill:#1D1D1B;}
	.st259{fill:#282828;}
	.st260{fill:#494949;}
	.st261{fill:#727271;}
	.st262{fill:#3F3F3F;}
	.st263{fill:#282421;}
	.st264{fill:#D6D6D6;}
	.st265{fill:#A0A0A0;}
	.st266{fill:#9ABA78;}
	.st267{fill:#849E5F;}
	.st268{fill:#799354;}
	.st269{fill:#76934D;}
	.st270{fill:#E8C3AA;}
	.st271{fill:#DBAD93;}
	.st272{fill:#E0B9A0;}
	.st273{fill:#5E4334;}
	.st274{fill:#846A5E;}
	.st275{fill:#49342A;}
	.st276{fill:#92AF71;}
	.st277{fill:#5098D8;}
	.st278{fill:#1C1E19;}
	.st279{fill:#5E5E5C;}
	.st280{fill:#939393;}
	.st281{fill:#23261D;}
	.st282{fill:#3C3C3B;}
	.st283{fill:#1D71B7;}
	.st284{fill:#2F894A;}
	.st285{fill:#422A17;}
	.st286{fill:#FFD7BC;}
	.st287{fill:#694326;}
	.st288{fill:#B08F76;}
	.st289{fill:#E3E3E3;}
	.st290{fill:#1A1818;}
	.st291{fill:#3B3738;}
	.st292{fill:#28A0B0;}
	.st293{fill:#42DCFA;}
	.st294{fill:#F5F5F5;}
	.st295{fill:#E3B494;}
	.st296{fill:#4A2F1B;}
	.st297{fill:none;stroke:#E3B494;stroke-width:2;stroke-linecap:round;stroke-linejoin:round;stroke-miterlimit:10;}
	.st298{fill:#F7CDB0;}
	.st299{fill:#FF7155;}
	.st300{fill:none;stroke:#4A2F1B;stroke-miterlimit:10;}
	.st301{fill:none;stroke:#4A2F1B;stroke-linecap:round;stroke-linejoin:round;stroke-miterlimit:10;}
	.st302{fill:#8B8BB2;}
	.st303{fill:#2E1D11;}
	.st304{fill:#4A4D4F;}
	.st305{fill:#5B5F61;}
	.st306{fill:#7C99A1;}
	.st307{fill:#C4543D;}
	.st308{fill:#A8D1DB;}
	.st309{fill:#5D5D5D;}
	.st310{fill:#4A4A4A;}
	.st311{fill:#1A7E8C;}
	.st312{fill:#292929;}
	.st313{fill:#2B1C0F;}
	.st314{fill:#362213;}
	.st315{fill:#2F6E9C;}
	.st316{fill:#468CBF;}
	.st317{fill:#589ED1;}
	.st318{fill:#84BEE8;}
	.st319{fill:#1F1F1F;}
	.st320{fill:#383838;}
	.st321{fill:#363636;}
</style>
<g>
	<g>
		<g>
			<path class="st248" d="M29.2907,219.4543l1.2034-2.2142c0,0-6.5465,1.8292-6.5946-2.2142s-0.2407-36.5833-0.2407-36.5833
				l-2.3105-0.2888l0.2407,39.8565l1.2515,2.4549l3.201-0.2407L29.2907,219.4543"/>
			<path class="st249" d="M22.6833,220.7451l-1.3611-2.6699l-0.0005-0.0632l-0.2429-40.1612l2.8459,0.3557l0.0016,0.2345
				c0.0021,0.3254,0.1932,32.5854,0.2408,36.5814c0.0094,0.7756,0.269,1.3438,0.7934,1.7371
				c1.6812,1.2582,5.4245,0.2329,5.4615,0.223l0.609-0.1703l-1.5622,2.8741l-3.3656,0.7981L22.6833,220.7451z M21.856,217.9457
				l1.1417,2.2396l3.024-0.2277l3.0909-0.7359l0.8602-1.582c-1.1898,0.2512-3.8628,0.6502-5.3331-0.4523
				c-0.6576-0.4925-0.9965-1.219-1.0075-2.1586c-0.0454-3.8169-0.222-33.3986-0.2392-36.35l-1.7752-0.222L21.856,217.9457z"/>
		</g>
		<g>
			<path class="st250" d="M29.2907,219.4543c0,0-6.8353,0.9332-6.8353-3.288v-38.0126h-5.5838v38.0126
				c0,0-0.7541,8.2256,5.8726,8.246l6.6267,0.0204L29.2907,219.4543z"/>
			<path class="st249" d="M29.6427,224.7009l-6.8994-0.0214c-1.7862-0.0058-3.2209-0.5897-4.2645-1.7371
				c-2.2427-2.4652-1.8896-6.6247-1.8734-6.8007l-0.001-38.2553h6.1186v38.2799c0,0.8383,0.2805,1.4906,0.8576,1.9941
				c1.7622,1.5397,5.6355,1.0341,5.6741,1.0289l0.2982-0.0407L29.6427,224.7009z M17.1392,178.4212v37.7451
				c-0.0047,0.0653-0.3473,4.1287,1.7366,6.4178c0.9385,1.0305,2.2401,1.5554,3.8696,1.5606l6.3541,0.0193l-0.0716-4.4117
				c-0.9882,0.0956-4.136,0.2632-5.7984-1.1882c-0.691-0.6032-1.0414-1.4097-1.0414-2.3978v-37.7451H17.1392z"/>
		</g>
		<g>
			<rect x="64.1411" y="267.9056" class="st250" width="6.2577" height="28.4698"/>
			<path class="st249" d="M70.6662,296.6427h-6.7923v-29.0046h6.7923V296.6427z M64.4087,296.1078h5.7227v-27.935h-5.7227V296.1078z
				"/>
		</g>
		<g>
			<path class="st251" d="M71.2611,268.5454h-8.1747c-1.0802,0-1.97-0.8484-2.0214-1.9274l-1.4485-30.4124H74.731l-1.4485,30.4124
				C73.2311,267.697,72.3413,268.5454,71.2611,268.5454z"/>
			<path d="M71.2611,268.8127h-8.1748c-1.2253,0-2.2302-0.9584-2.2881-2.1821l-1.4624-30.6926h15.6759l-1.4624,30.6926
				C73.4912,267.8543,72.4864,268.8127,71.2611,268.8127z M59.8967,236.4727l1.4352,30.1328
				c0.0449,0.9375,0.8153,1.6724,1.7544,1.6724h8.1748c0.9391,0,1.7094-0.7349,1.7544-1.6724l1.4352-30.1328H59.8967z"/>
		</g>
		<g>
			<circle class="st252" cx="67.27" cy="325.7114" r="7.8674"/>
			<path d="M67.2698,333.8461c-4.4854,0-8.1346-3.6492-8.1346-8.1346c0-4.4859,3.6492-8.1351,8.1346-8.1351
				c4.4859,0,8.1351,3.6492,8.1351,8.1351C75.4049,330.1969,71.7557,333.8461,67.2698,333.8461z M67.2698,318.1112
				c-4.1903,0-7.5998,3.4095-7.5998,7.6003c0,4.1903,3.4095,7.5998,7.5998,7.5998c4.1908,0,7.6003-3.4095,7.6003-7.5998
				C74.8701,321.5207,71.4606,318.1112,67.2698,318.1112z"/>
		</g>
		<g>
			<circle class="st252" cx="90.4081" cy="324.1711" r="7.5085"/>
			<path d="M90.4081,331.9471c-4.2874,0-7.7758-3.4884-7.7758-7.7758c0-4.288,3.4883-7.7763,7.7758-7.7763
				s7.7758,3.4883,7.7758,7.7763C98.1839,328.4587,94.6955,331.9471,90.4081,331.9471z M90.4081,316.9298
				c-3.9929,0-7.241,3.2486-7.241,7.2415c0,3.9929,3.2481,7.241,7.241,7.241s7.241-3.2481,7.241-7.241
				C97.649,320.1784,94.4009,316.9298,90.4081,316.9298z"/>
		</g>
		<g>
			<circle class="st252" cx="44.1449" cy="324.1711" r="7.5085"/>
			<path d="M44.145,331.9471c-4.288,0-7.7763-3.4884-7.7763-7.7758c0-4.288,3.4883-7.7763,7.7763-7.7763
				c4.2874,0,7.7758,3.4883,7.7758,7.7763C51.9208,328.4587,48.4325,331.9471,44.145,331.9471z M44.145,316.9298
				c-3.9929,0-7.2415,3.2486-7.2415,7.2415c0,3.9929,3.2486,7.241,7.2415,7.241s7.241-3.2481,7.241-7.241
				C51.386,320.1784,48.1379,316.9298,44.145,316.9298z"/>
		</g>
		<g>
			<circle class="st71" cx="67.27" cy="325.7114" r="5.5011"/>
		</g>
		<g>
			<circle class="st71" cx="90.4081" cy="324.1711" r="4.883"/>
		</g>
		<g>
			<circle class="st71" cx="44.1449" cy="324.1711" r="4.883"/>
		</g>
		<g>
			<circle class="st252" cx="67.2534" cy="324.9035" r="4.6932"/>
			<path d="M67.2536,329.8642c-2.7352,0-4.9607-2.2255-4.9607-4.9607c0-2.7352,2.2255-4.9607,4.9607-4.9607
				c2.7352,0,4.9607,2.2255,4.9607,4.9607C72.2142,327.6388,69.9888,329.8642,67.2536,329.8642z M67.2536,320.4777
				c-2.4406,0-4.4259,1.9852-4.4259,4.4259s1.9852,4.4258,4.4259,4.4258c2.4406,0,4.4258-1.9852,4.4258-4.4258
				S69.6942,320.4777,67.2536,320.4777z"/>
		</g>
		<g>
			<circle class="st252" cx="90.4081" cy="323.6627" r="4.0907"/>
			<path d="M90.4081,328.0206c-2.403,0-4.358-1.9549-4.358-4.358s1.9549-4.3579,4.358-4.3579s4.3579,1.9549,4.3579,4.3579
				S92.8111,328.0206,90.4081,328.0206z M90.4081,319.8395c-2.1079,0-3.8231,1.7152-3.8231,3.8231s1.7152,3.8232,3.8231,3.8232
				s3.8231-1.7152,3.8231-3.8232S92.516,319.8395,90.4081,319.8395z"/>
		</g>
		<g>
			<circle class="st252" cx="44.1449" cy="323.6627" r="3.9608"/>
			<path d="M44.145,327.891c-2.3315,0-4.2284-1.8969-4.2284-4.2284s1.8969-4.2279,4.2284-4.2279
				c2.3315,0,4.2279,1.8964,4.2279,4.2279S46.4765,327.891,44.145,327.891z M44.145,319.9695c-2.0369,0-3.6936,1.6567-3.6936,3.6931
				c0,2.0369,1.6567,3.6936,3.6936,3.6936c2.0364,0,3.6931-1.6567,3.6931-3.6936C47.8381,321.6262,46.1814,319.9695,44.145,319.9695
				z"/>
		</g>
		<g>
			<path class="st71" d="M69.9816,270.3967c0,0-4.7648-1.8438-4.4683,2.9698v20.8589c0,0-0.8026,1.1463,3.7623,1.6482h-4.5569
				l-0.2086-26.9355h5.5196L69.9816,270.3967z"/>
		</g>
		<g>
			<path class="st250" d="M94.4988,306.869c-1.1553-6.0331-12.7721-5.9688-12.7721-5.9688h-6.7069v-3.3455
				c0-0.6513-0.528-1.1793-1.1793-1.1793H60.5069c-0.6513,0-1.1793,0.528-1.1793,1.1793v3.3455h-9.8197
				c-10.3332,0-9.2662,7.5734-9.2662,7.5734v9.4665c0,1.2538,1.0164,2.2702,2.2702,2.2702h3.1774
				c1.2538,0,2.2702-1.0164,2.2702-2.2702v-0.86c0,0.0562,0-0.7992,0-3.5362c0-7.5734,5.0142-7.1241,5.0142-7.1241l10.3412-0.0464
				v12.4209c0,0.782,0.634,1.416,1.416,1.416h4.8858c0.782,0,1.416-0.634,1.416-1.416v-12.4555l10.5658-0.0474
				c3.9485,0,4.6795,3.554,4.7895,5.4598v6.8826c0,0.8706,0.7058,1.5764,1.5764,1.5764h4.5649c0.8706,0,1.5765-0.7058,1.5765-1.5764
				V307.226c0-0.0201-0.0052-0.0389-0.0059-0.0588L94.4988,306.869z"/>
			<path class="st249" d="M92.5291,320.4777h-4.5648c-1.0164,0-1.8437-0.8273-1.8437-1.8437v-6.8827
				c-0.1118-1.9298-0.8492-5.1926-4.5219-5.1926l-10.2984,0.0465v12.1891c0,0.9281-0.7552,1.6833-1.6839,1.6833h-4.8855
				c-0.9281,0-1.6833-0.7552-1.6833-1.6833v-12.1525l-10.0728,0.0454c-0.0371-0.0031-1.5705-0.1154-2.8642,1.0733
				c-1.2498,1.149-1.8839,3.0945-1.8839,5.7833v4.3961c0,1.3992-1.1381,2.5378-2.5373,2.5378h-3.1776
				c-1.3992,0-2.5378-1.1386-2.5378-2.5378v-9.4664c-0.0136-0.0778-0.3719-2.8068,1.5757-5.0479
				c1.6102-1.8531,4.2874-2.7927,7.9581-2.7927h9.5521v-3.0784c0-0.7975,0.6492-1.4467,1.4467-1.4467h13.334
				c0.7975,0,1.4467,0.6492,1.4467,1.4467v3.0784h6.4393c0.5087-0.0057,11.8522,0.0073,13.0347,6.1859l0.0313,0.164l-0.4194,0.3139
				v11.3372C94.3733,319.6504,93.546,320.4777,92.5291,320.4777z M81.5976,306.024c4.2666,0,4.9581,3.9944,5.0573,5.7117
				l0.0005,6.8983c0,0.7218,0.5871,1.3088,1.3088,1.3088h4.5648c0.7218,0,1.3094-0.587,1.3094-1.3088l-0.0073-11.5504l0.1081-0.1306
				l0.2627-0.1964c-1.2676-5.53-12.1437-5.589-12.4675-5.589c-0.0031,0-0.0052,0-0.0063,0h-6.9756v-3.6132
				c0-0.503-0.409-0.9119-0.9119-0.9119h-13.334c-0.503,0-0.9119,0.4089-0.9119,0.9119v3.6132H49.5079
				c-3.5045,0-6.0444,0.8759-7.5496,2.6025c-1.7888,2.0536-1.4556,4.6405-1.452,4.6661l0.0026,9.5035
				c0,1.1046,0.8983,2.003,2.003,2.003h3.1776c1.1041,0,2.0024-0.8983,2.0024-2.003v-4.3961c0-2.8506,0.6952-4.9319,2.0656-6.1854
				c1.4713-1.3449,3.1671-1.2107,3.2403-1.2049l10.5846-0.0486v12.6895c0,0.6335,0.515,1.1485,1.1485,1.1485h4.8855
				c0.6335,0,1.149-0.515,1.149-1.1485v-12.7218L81.5976,306.024z"/>
		</g>
		<g>
			<path class="st71" d="M67.3546,302.9219c0,0-3.7911-0.3369-3.6467,3.1288l-0.004,11.8414c0,0-0.4773,2.2716,2.2664,1.8097
				c0,0-0.8664,0.0676-1.2997-2.0985l-0.0963-11.6007C64.5743,306.0026,65.0325,303.5958,67.3546,302.9219z"/>
		</g>
		<g>
			<path class="st71" d="M67.27,296.8087h-5.9207c0,0-2.0698-0.4814-1.5885,2.0217l-0.0726,2.5031l1.9499-3.3214L67.27,296.8087z"/>
		</g>
		<g>
			<path class="st71" d="M46.0902,301.7185c0,0-5.5838,0.5295-5.3431,7.6055l-0.0076,7.9424c0,0-0.907,2.7437,3.3771,2.4068
				c0,0-1.8773-0.6258-1.6848-4.5248l0.0963-7.8943C42.5281,307.2542,42.3837,304.4141,46.0902,301.7185z"/>
		</g>
		<g>
			<path class="st253" d="M43.1999,97.1525c0,0-2.5831-6.916-21.2102-6.5424c0,0-19.6525-5.3239-21.7032,37.8746V167.2
				c0,0-1.538,26.713,20.6778,25.9658c0,0,23.583,1.78,23.2412-18.9113L43.1999,97.1525"/>
			<path class="st254" d="M22.2466,193.4672c-0.8028,0-1.2791-0.0329-1.3026-0.0345c-5.8982,0.1912-10.7022-1.5324-14.2318-5.1482
				c-7.382-7.5601-6.7004-20.9656-6.6926-21.0998l-0.0005-38.6998c1.09-22.9665,7.2337-32.0924,12.1959-35.7056
				c4.8567-3.5374,9.3155-2.5597,9.8059-2.437c18.5558-0.3729,21.3213,6.4273,21.4294,6.7166l0.0167,0.0898l1.0059,77.1019
				c0.094,5.7096-1.6154,10.2619-5.0813,13.5298C33.9192,192.9407,25.4644,193.4672,22.2466,193.4672z M20.9555,192.8984
				c0.1426,0.011,11.4078,0.7761,18.0716-5.5091c3.3505-3.1598,5.003-7.5779,4.9111-13.1308l-1.0054-77.0492
				c-0.2507-0.5432-3.48-6.6868-20.9379-6.3317l-0.0376,0.0005l-0.0371-0.0099c-0.0465-0.012-4.5752-1.1715-9.4048,2.3539
				c-4.8614,3.5489-10.8829,12.55-11.9619,35.2752l0.0005,38.7024c-0.0078,0.1478-0.6743,13.3235,6.5427,20.7128
				C10.5171,191.4157,15.1686,193.0969,20.9555,192.8984z"/>
		</g>
		<g>
			<path class="st73" d="M31.9014,94.5797c0,0-17.26-7.4067-21.1905,32.7936l-2.3925,44.0881c0,0-0.6836,16.4738,13.6713,16.8474
				s0.6836,0.9807,0.6836,0.9807s18.798,1.2609,19.7379-16.8591l4.0159-61.4587C46.4271,110.9718,44.2055,94.2528,31.9014,94.5797z"
				/>
		</g>
		<g>
			<path class="st248" d="M79.4101,239.5393H52.8193c-2.9862,0-5.4295-2.4433-5.4295-5.4295v-3.2054
				c0-2.0087,1.6434-3.6521,3.6521-3.6521h30.1456c2.0086,0,3.6521,1.6434,3.6521,3.6521v3.2054
				C84.8396,237.096,82.3963,239.5393,79.4101,239.5393z"/>
			<path class="st249" d="M79.9383,239.8065H52.2911c-2.8501,0-5.1685-2.3184-5.1685-5.1685v-4.089
				c0-1.9654,1.5987-3.5641,3.5641-3.5641h30.8561c1.9654,0,3.5641,1.5987,3.5641,3.5641v4.089
				C85.1069,237.4881,82.7884,239.8065,79.9383,239.8065z M50.6867,227.5197c-1.6703,0-3.0293,1.359-3.0293,3.0293v4.089
				c0,2.555,2.0787,4.6337,4.6337,4.6337h27.6472c2.555,0,4.6337-2.0787,4.6337-4.6337v-4.089c0-1.6703-1.359-3.0293-3.0293-3.0293
				H50.6867z"/>
		</g>
		<g>
			<path class="st253" d="M89.8219,231.392c3.1494-0.1367-8.5377,1.1937-26.0959,1.5404
				c-6.9945,0.1381-20.5957-0.7702-20.5957-0.7702c-3.266,0-15.7019-1.9254-15.7019-8.6645v-4.0434
				c0-7.3808,12.4359-9.4346,15.7019-9.4346c0,0,13.4505-0.2222,20.3917,0c14.9224,0.4778,34.4567,1.5403,34.4567,1.5403
				c3.266,0,8.3607,4.0403,8.3607,7.1241v4.8136C105.9143,228.1187,93.088,231.392,89.8219,231.392z"/>
			<path class="st254" d="M62.1665,233.2137c-7.2143,0-18.9276-0.7761-19.054-0.7845c-0.0005,0-0.001,0-0.0016,0
				c-2.4662,0-15.9496-1.6473-15.9496-8.9316v-4.0435c0-7.3136,11.8763-9.702,15.9689-9.702c0.1301-0.0026,13.5324-0.2199,20.4,0
				c14.7551,0.4727,34.2677,1.5303,34.463,1.5413c3.3139-0.0005,8.6135,4.0352,8.6135,7.3909v4.8134
				c-0.4277,4.6593-12.3458,7.8207-16.2243,8.1357c-0.4356,0.1306-1.9523,0.3499-7.5225,0.738
				c-4.1235,0.2873-10.7889,0.6638-19.1287,0.8284C63.2408,233.209,62.7165,233.2137,62.1665,233.2137z M55.17,210.1887
				c-5.9938,0-11.9457,0.0966-12.0356,0.0982c-2.4025,0-15.4382,1.6906-15.4382,9.1672v4.0435
				c0,6.3865,12.0303,8.3973,15.4341,8.3973c0.1536,0.0094,13.6855,0.9109,20.5906,0.7699
				c13.6677-0.2695,23.8961-1.1511,26.0918-1.4405l-0.0021-0.0998c0.1593-0.0063,0.2967-0.0026,0.3787-0.0115
				c3.7338-0.2136,15.4931-3.3949,15.8838-7.64l-0.001-4.7888c0-3.0261-5.0181-6.8566-8.0933-6.8566
				c-0.21-0.011-19.7163-1.0686-34.4651-1.5407C61.2175,210.2132,58.1883,210.1887,55.17,210.1887z"/>
		</g>
		<g>
			<path class="st73" d="M27.5135,218.4744c0,0,39.8785,8.1594,78.1672-1.8806s0,0,0,0s-0.8642,9.4069-16.872,11.5249
				c0,0-37.6234,3.2732-52.4076,0c0,0-0.2025,2.6679,6.2203,4.0296c6.4228,1.3616,0,0,0,0s-12.8817-0.2343-15.1078-7.7157s0,0,0,0
				V218.4744"/>
		</g>
	</g>
	<g>
		<path class="st255" d="M36.161,175.1876c0,0-0.8684,2.0132,4.2505,6.7481c0,0,26-15.1989,57.2241-12.3196c31.224,2.8793,0,0,0,0
			l-25.4673-18.2359l-34.9362,14.1843L36.161,175.1876"/>
	</g>
	<g>
		<g>
			<path d="M99.8118,273.5503l-0.4154,16.7701c0,0,3.7888,7.4185,7.7912,11.1755c0,0,4.2297,2.8573-1.3602,5.7952
				c0,0-8.4725,1.6699-16.8782-7.3741c0,0-10.7581-9.7463-11.017-19.6251c0,0,1.2391-2.0988-0.7875-4.3665
				c0,0-3.3011-2.6834-1.7537-5.4651l8.1327-6.2982C83.5238,264.162,96.5469,266.3175,99.8118,273.5503z"/>
			<path class="st256" d="M104.211,307.536c-2.8935,0.0005-9.1802-0.8795-15.3599-7.5282
				c-0.0998-0.0898-10.7951-9.89-11.0526-19.7121l-0.001-0.0381l0.0193-0.0334c0.0486-0.0825,1.1621-2.0458-0.7719-4.2096
				c-0.0183-0.0131-3.3541-2.7728-1.7711-5.6187l0.035-0.0407l8.1795-6.3343l0.0575,0.0094
				c0.1306,0.0219,13.1313,2.2511,16.3878,9.4654l0.0125,0.0277l-0.0005,0.0303l-0.4142,16.7361
				c0.2679,0.5186,3.9365,7.5314,7.7476,11.1085c0.0517,0.0329,1.6598,1.1381,1.5726,2.7222
				c-0.0653,1.184-1.0618,2.2907-2.9619,3.2893l-0.0366,0.0125C105.8312,307.4268,105.2321,307.536,104.211,307.536z
				 M78.067,280.3239c0.2794,9.6957,10.8651,19.3972,10.9722,19.4938c8.0751,8.6872,16.3005,7.4238,16.7445,7.3454
				c1.7988-0.949,2.7415-1.9779,2.801-3.0575c0.0789-1.4342-1.4567-2.4887-1.4718-2.4991
				c-3.9903-3.7427-7.7972-11.1508-7.8353-11.2255l-0.0157-0.0298l0.001-0.034l0.4147-16.7398
				c-3.1081-6.8205-15.1797-9.1055-16.1188-9.2732l-8.0641,6.245c-1.442,2.6417,1.7021,5.2458,1.7345,5.2719
				C79.1659,277.9861,78.22,280.0298,78.067,280.3239z"/>
		</g>
		<g>
			<path class="st257" d="M77.1447,275.9253c2.0267,2.2677,0.7875,4.3665,0.7875,4.3665
				c0.2589,9.8788,11.017,19.6252,11.017,19.6252c8.4057,9.044,16.8782,8.1419,16.8782,8.1419l-1.7541,1.0629
				c0,0-7.7413,1.6625-15.4227-6.2361c0,0-11.3279-8.291-12.9021-21.1451c0,0,1.8662-1.6027,0.999-4.4086
				c0,0-1.9328-0.1099-2.7262-1.7923l-0.5034-2.2305l1.8731-2.849C73.8436,273.2419,77.1447,275.9253,77.1447,275.9253z"/>
			<path class="st258" d="M102.2937,309.3911c-2.7645,0-8.2976-0.8169-13.7393-6.4126
				c-0.0966-0.0684-11.3754-8.4579-12.9386-21.2215l-0.0089-0.0705l0.0543-0.047c0.0726-0.0627,1.7517-1.5512,0.9845-4.1825
				c-0.411-0.046-2.0197-0.3217-2.7457-1.8604l-0.5254-2.3137l1.9048-2.8966l0.2288,0.1384
				c-1.4744,2.6506,1.6886,5.2704,1.7209,5.2965l0.0152,0.0146c1.9225,2.1513,0.9756,4.194,0.8226,4.488
				c0.2794,9.6973,10.8651,19.3972,10.9722,19.4938c8.2714,8.8987,16.6881,8.1163,16.7743,8.1079l0.5965-0.0632l-2.3085,1.3898
				C104.0789,309.2574,103.413,309.3911,102.2937,309.3911z M75.8896,281.7915c1.5804,12.6127,12.7276,20.904,12.8399,20.986
				c7.3595,7.5648,14.8423,6.3014,15.2946,6.2178l1.2911-0.7824c-0.0282,0.0005-0.0569,0.0005-0.0867,0.0005
				c-2.1085,0-9.3124-0.6048-16.3773-8.2056c-0.0998-0.0898-10.7951-9.89-11.0526-19.7121l-0.001-0.0381l0.0193-0.0334
				c0.0486-0.0825,1.16-2.0416-0.7651-4.2023c-0.1666-0.1395-2.5623-2.1993-2.1576-4.5622l-1.2331,1.8755l0.4909,2.1753
				c0.7411,1.5642,2.5848,1.687,2.6036,1.688l0.0924,0.0057l0.0277,0.0883C77.6732,279.8736,76.1961,281.4917,75.8896,281.7915z"/>
		</g>
		<g>
			<path class="st257" d="M104.7552,301.0223c0,0,1.9404,1.0613,2.512,2.5996c0,0-0.0712,4.2816-7.5108-0.2931
				c0,0-14.1262-6.1215-16.214-18.9968c0,0,3.6996,8.9129,12.7157,15.0083c0,0,6.4606,4.4586,9.0565,5.0045
				C105.3145,304.3448,107.6641,304.6232,104.7552,301.0223z"/>
			<path class="st258" d="M105.1501,305.5779c-1.3229,0-3.1525-0.714-5.4636-2.1351c-0.1253-0.0528-14.2004-6.2899-16.2765-19.0896
				l-0.1828-1.1281l0.4382,1.0555c0.0371,0.0888,3.7908,8.9473,12.6675,14.9489c0.0658,0.0449,6.4696,4.4504,9.0094,4.9842l0,0
				c0.0052-0.0005,0.5045,0.0491,0.6737-0.258c0.1421-0.2575,0.153-0.9709-1.3647-2.8496l-0.4246-0.5254l0.5928,0.3238
				c0.081,0.0444,1.991,1.1036,2.5728,2.671l0.0089,0.0235l-0.0005,0.0251c-0.0005,0.046-0.0298,1.1334-1.0075,1.6693
				C106.0469,305.4829,105.6322,305.5779,105.1501,305.5779z M83.8701,285.3415c2.614,11.9619,15.8028,17.8058,15.9396,17.8648
				c3.8351,2.3565,5.6255,2.308,6.4549,1.8525c0.7688-0.4215,0.8576-1.2639,0.8675-1.4154
				c-0.3463-0.9046-1.1919-1.6447-1.7904-2.0797c0.8811,1.2044,1.1783,2.0327,0.9083,2.5221
				c-0.2591,0.4675-0.9234,0.3959-0.9511,0.3917c-2.6041-0.5468-8.8522-4.8447-9.1165-5.027
				C88.9666,294.5718,85.1105,287.8176,83.8701,285.3415z"/>
		</g>
	</g>
	<g>
		<path d="M122.5614,304.7542l10.6688,18.0431c0,0,2.8664,4.8364,8.4623,6.931c0,0,5.769,1.8667,1.387,7.1624
			c0,0-8.1313,4.4602-20.3678-1.0974c0,0-14.8938-5.2762-19.2979-15.0897c0,0,0.3642-2.6278-2.6227-4.0552
			c0,0-4.4412-1.3105-4.0539-4.7534l3.2128-8.7711C99.95,303.1238,116.2481,298.8593,122.5614,304.7542z"/>
		<path class="st256" d="M134.7334,338.7003c-3.2815,0-7.3883-0.656-12.0768-2.7853c-0.1389-0.0486-14.988-5.4036-19.3648-15.1562
			l-0.0157-0.035l0.0052-0.0381c0.0141-0.1034,0.3108-2.5503-2.5477-3.9166c-0.0261-0.0057-4.5246-1.3752-4.1292-4.8891
			l3.2444-8.8679l0.0674-0.0177c0.164-0.0428,16.4405-4.2149,22.7367,1.6624l0.0235,0.0298l10.6687,18.0429
			c0.0287,0.0475,2.9097,4.8207,8.3942,6.8738c0.093,0.0303,2.4182,0.8033,2.9927,2.7754c0.3891,1.3376-0.1321,2.8841-1.5496,4.5972
			l-0.0387,0.0319C143.0936,337.0352,139.9604,338.7003,134.7334,338.7003z M103.5509,320.6814
			c4.3475,9.6278,19.0577,14.9332,19.2055,14.9859c11.7316,5.3279,19.7612,1.3642,20.237,1.1172
			c1.3444-1.6316,1.8432-3.0883,1.4823-4.3297c-0.5332-1.8358-2.8015-2.5916-2.8245-2.5989
			c-5.5811-2.0897-8.507-6.9417-8.5357-6.9903l-10.6593-18.0267c-5.9932-5.5691-21.2549-1.8901-22.4045-1.6029l-3.1891,8.705
			c-0.3625,3.2596,3.9234,4.5663,3.9668,4.5789C103.6835,317.8825,103.5806,320.3362,103.5509,320.6814z"/>
	</g>
	<g>
		<path class="st257" d="M100.7912,316.6483c2.9869,1.4275,2.6227,4.0552,2.6227,4.0552
			c4.4041,9.8135,19.2979,15.0898,19.2979,15.0898c12.2365,5.5575,20.3677,1.0974,20.3677,1.0974l-1.3159,1.8033
			c0,0-7.0778,4.9172-18.1063,0.2062c0,0-14.8557-3.5754-21.8289-15.8255c0,0,1.2021-2.3926-0.846-4.847
			c0,0-1.9874,0.7004-3.49-0.6566l-1.4413-2.0291l0.6862-3.6472C96.3499,315.3379,100.7912,316.6483,100.7912,316.6483z"/>
		<path class="st258" d="M132.9869,341.061c-2.6522,0-5.8177-0.515-9.3823-2.0379c-0.1274-0.0287-14.9708-3.7224-21.8921-15.8822
			l-0.0355-0.0622l0.0319-0.0642c0.047-0.0935,1.1151-2.3027-0.7725-4.6321c-0.4173,0.1238-2.155,0.5327-3.5338-0.7119
			l-1.4932-2.097l0.6962-3.703l0.2643,0.0397c-0.3698,3.293,3.9156,4.5972,3.9589,4.6097l0.0198,0.0078
			c2.836,1.3553,2.7321,3.808,2.7023,4.1532c4.348,9.6299,19.0577,14.9337,19.2055,14.9865
			c12.0382,5.4668,20.178,1.1496,20.2589,1.1057l0.5249-0.2872l-1.7006,2.3179C141.7916,338.8371,138.497,341.061,132.9869,341.061z
			 M101.9783,323.0672c6.8775,12.0099,21.5626,15.6675,21.7104,15.703c10.5867,4.5204,17.5781,0.0909,17.9807-0.1739l0.9949-1.3637
			c-1.9277,0.832-9.5113,3.4492-20.0077-1.3177c-0.1389-0.0486-14.988-5.4036-19.3648-15.1567l-0.0151-0.035l0.0047-0.0381
			c0.0141-0.1034,0.3102-2.5451-2.5388-3.9119c-0.2183-0.0679-3.5374-1.1443-4.0864-3.7244l-0.4627,2.4621l1.4081,1.9831
			c1.4039,1.2639,3.3176,0.6142,3.3364,0.6074l0.0877-0.0303l0.0595,0.071C102.9737,320.4051,102.1543,322.6535,101.9783,323.0672z"
			/>
	</g>
	<g>
		<path class="st257" d="M139.0508,330.273c0,0,2.3942,0.252,3.6135,1.5573c0,0,1.7245,4.3302-7.6667,2.8563
			c0,0-16.7561-0.2226-24.2541-12.2784c0,0,7.4547,7.4,19.0673,9.74c0,0,8.3593,1.768,11.1956,1.2274
			C141.0063,333.3755,143.483,332.6695,139.0508,330.273z"/>
		<path class="st258" d="M138.4464,335.1284c-0.9955,0-2.1529-0.1029-3.4695-0.3097c-0.1494-0.0005-16.896-0.3604-24.3469-12.3401
			l-0.6038-0.9709l0.8111,0.8054c0.0747,0.0736,7.5622,7.3997,19.0002,9.7041c0.0846,0.0178,8.3707,1.7523,11.1435,1.2274l0,0
			c-0.0021,0,0.5369-0.1619,0.5787-0.5531c0.0345-0.3212-0.2538-1.0472-2.5728-2.3007l-0.5938-0.3212l0.6717,0.0705
			c0.0998,0.0105,2.4579,0.2726,3.6973,1.5987l0.0266,0.0418c0.0183,0.0465,0.4429,1.1449-0.3097,2.0876
			C141.8088,334.7074,140.4572,335.1284,138.4464,335.1284z M111.4332,323.2145c7.6248,10.9946,23.4036,11.3362,23.5661,11.3383
			c4.8421,0.7589,6.6231-0.0434,7.2681-0.8487c0.6022-0.7516,0.3327-1.6504,0.2805-1.8024
			c-0.7526-0.7907-1.968-1.1804-2.7535-1.3595c1.4143,0.8477,2.097,1.5794,2.0312,2.1795c-0.0627,0.5709-0.7536,0.774-0.7829,0.7824
			c-2.8407,0.5432-10.9173-1.1527-11.2594-1.2253C120.3935,330.387,113.6461,325.1318,111.4332,323.2145z"/>
	</g>
	<g>
		<path class="st259" d="M111.5129,237.0724c0,0-18.7024,14.5094-30.2926,26.0268c0,0,2.792,12.5412,19.1017,16.2524l7.628-7.2822
			C107.95,272.0694,116.0795,247.1404,111.5129,237.0724z"/>
	</g>
	<g>
		<path class="st260" d="M42.7312,190.0275c0,0-1.4404,16.8922,8.6875,23.4188c0,0,9.744,5.7587,51.7186,8.83l12.8711,1.5357
			c0,0-5.438,10.7973-8.7761,35.4481c0,0-3.0713,9.022-1.9196,15.9964c0,0-3.4552,5.8867-2.5594,17.1482l-2.9971,10.924
			c0,0,6.7083,8.9115,24.6243,3.9206l4.0951-16.1244c0,0,1.9196-0.3839,1.9196-4.607l14.3785-41.1786l12.2396-13.4652
			c0,0,8.2276-11.4532,7.4624-22.9305c0,0-1.8267-10.047-18.4885-15.8985l-45.3402-18.2432
			C100.647,174.8019,66.0183,168.4004,42.7312,190.0275"/>
		<path class="st261" d="M114.2609,309.0203c-10.4024,0-14.6647-5.4594-14.718-5.5305l-0.0789-0.105l3.0193-11.0056
			c-0.8325-10.5935,2.1153-16.3831,2.5508-17.1722c-1.1078-6.948,1.9142-15.9427,1.945-16.0331
			c2.9744-21.9982,7.7001-33.1108,8.6292-35.1404l-12.503-1.4916c-41.5468-3.0397-51.4227-8.6292-51.8228-8.8653
			c-10.1548-6.5437-8.8324-23.5013-8.8177-23.6721l0.0089-0.1029l0.0757-0.07c23.1179-21.4707,57.7988-15.3573,58.1461-15.2925
			l45.3913,18.2581c16.605,5.8313,18.6331,15.9966,18.6519,16.0984c0.7667,11.471-7.4259,23.0192-7.5084,23.1346l-12.222,13.4489
			l-14.3456,41.0846c-0.012,3.6633-1.4566,4.5653-1.9638,4.769l-4.0973,16.1329l-0.1494,0.0413
			C120.5487,308.5941,117.1653,309.0198,114.2609,309.0203z M100.051,303.2663c0.8101,0.9469,7.7314,8.273,24.1087,3.7667
			l4.0984-16.1376l0.1656-0.0329c0.0136-0.0031,1.7042-0.4356,1.7042-4.3444l0.0152-0.0883l14.3963-41.2298l12.2758-13.5058
			c0.0627-0.0903,8.144-11.4861,7.3935-22.733c-0.0146-0.0684-2.0103-9.9396-18.3103-15.6639l-45.3511-18.2476
			c-0.2925-0.0486-34.638-6.0987-57.5569,15.1019c-0.094,1.4117-0.8968,16.9675,8.5733,23.0699
			c0.0888,0.0517,10.2274,5.7613,51.593,8.788l13.2619,1.582l-0.1713,0.3405c-0.0538,0.1076-5.4579,11.0536-8.7499,35.364
			c-0.0423,0.14-3.0481,9.0904-1.9204,15.9172l0.0157,0.0951l-0.0486,0.0836c-0.0345,0.0585-3.4016,5.9593-2.5242,16.9915
			l0.0037,0.047l-0.012,0.0449L100.051,303.2663z"/>
	</g>
	<g>
		<path class="st262" d="M118.168,187.9698c0,0-45.8378,1.1544-49.9179,2.2219c0,0-6.7332,8.2819-1.5995,17.048l53.1396,13.8969
			l-8.2773,38.3265c0,0-2.2169,5.788,0.6544,9.447c0,0,2.6774,6.7191-3.3686,11.5932l-1.5315,9.3606
			c0,0-1.0585,15.513,18.905,8.9629l-1.7916,8.4225c0,0-15.2926,4.6455-24.6243-3.9206l2.9971-10.924
			c0,0-1.0238-9.9818,2.5594-17.1482c0,0-0.5119-7.9982,1.9196-15.9964c0,0,4.0072-23.6747,9.1025-35.96
			c0,0-33.2026-0.131-49.451-1.8664c-14.6601-1.5657-21.3108-7.2567-21.3108-7.2567s-8.966-8.5691-2.842-24.1495
			c0,0,16.1383-17.0143,57.9159-15.2256L118.168,187.9698z"/>
	</g>
	<g>
		<path class="st261" d="M145.0308,245.4132l-0.5139-0.1473l3.726-12.9579c8.8642-22.1799-5.7107-29.1874-5.859-29.2558
			L93.7,183.1087l0.2026-0.4951l48.6943,19.9482c0.1635,0.0747,15.1933,7.2984,6.151,29.9191L145.0308,245.4132z"/>
	</g>
	<g>
		<path class="st261" d="M60.1327,207.3349l-0.4993-0.1901c6.0011-15.7532-6.011-24.9036-6.1327-24.9945l0.3186-0.4293
			C53.9447,181.8139,66.2764,191.2078,60.1327,207.3349z"/>
	</g>
	<g>
		<path class="st262" d="M59.883,207.2397c-8.7431-3.3593-4.9909-3.2633-4.9909-3.2633"/>
	</g>
	<g>
		<path class="st263" d="M40.4115,181.9357c0,0-0.3714,5.4044,2.3197,8.0919c0,0,4.255-5.67,22.9701-11.7026
			c3.7779-1.2178,18.1022-3.9829,24.4612-3.9514c3.2709,0.0162,6.9234,0.1277,10.4846,0.4284l0.7678-3.8391l-1.0929-4.226
			C100.322,166.7367,71.4004,164.3053,40.4115,181.9357z"/>
	</g>
	<g>
		<g>
			<path class="st264" d="M66.2391,170.4183l1.4655,6.2237c0,0-0.1353,2.1411,3.6212,1.2565c0,0,6.8264-1.4267,10.7174-1.7402
				c0,0,4.5161,0.4358,4.4028-1.9444l-0.8055-6.1343c0,0,0.4383-2.2124-2.0728-1.7417c0,0-11.8384,0.3771-15.3022,3.1814
				C68.2657,169.5192,65.9429,169.1603,66.2391,170.4183z"/>
			<path class="st265" d="M69.7167,178.3804c-0.7359,0-1.3083-0.1692-1.7089-0.5077c-0.5275-0.4455-0.5703-1.0336-0.5709-1.2018
				l-1.4577-6.1917c-0.1008-0.4262,0.0465-0.6978,0.188-0.8508c0.4836-0.5228,1.6321-0.4377,2.0218-0.3891
				c3.5985-2.7634,14.8872-3.1536,15.3704-3.1692c0.8456-0.1619,1.5073-0.0319,1.9257,0.3896
				c0.5494,0.5552,0.4586,1.4128,0.4262,1.6243l0.8001,6.0946c0.0277,0.562-0.1509,1.0179-0.5286,1.3778
				c-1.196,1.1391-4.0441,0.8795-4.1652,0.868c-3.7829,0.3092-10.569,1.7215-10.6369,1.7356
				C70.7565,178.3073,70.2013,178.3804,69.7167,178.3804z M66.4994,170.3571l1.4749,6.2622l-0.0026,0.0392
				c-0.0005,0.0172-0.0172,0.4753,0.3886,0.8116c0.364,0.3029,1.1652,0.5771,2.9044,0.1682
				c0.0747-0.0162,6.8936-1.4352,10.757-1.7465c0.0747,0.0037,2.7728,0.2491,3.7923-0.7228
				c0.2638-0.2512,0.3828-0.5599,0.3651-0.9427l-0.809-6.1546l0.0078-0.0434c0.0016-0.0078,0.1431-0.774-0.2747-1.194
				c-0.2852-0.2867-0.786-0.3656-1.4864-0.234c-0.1583,0.0083-11.8282,0.411-15.1828,3.1269l-0.0919,0.0742l-0.117-0.0177
				c-0.4983-0.0763-1.3919-0.0867-1.6656,0.2084C66.5098,170.0463,66.4492,170.143,66.4994,170.3571L66.4994,170.3571z"/>
		</g>
		<g>
			<path class="st263" d="M68.2648,171.1476l0.9789,4.1571c0,0-0.1797,1.4512,2.8834,0.7299c0,0,5.5603-1.1885,8.7132-1.5284
				c0,0,3.6331,0.1459,3.6199-1.4586l-0.4488-4.1185c0,0,0.4268-1.5094-1.6168-1.1087c0,0-9.5737,0.6442-12.4634,2.653
				C69.9311,170.4735,68.0669,170.3074,68.2648,171.1476z"/>
		</g>
	</g>
	<g>
		<path class="st266" d="M42.7312,85.4306L24.3709,89.446c0,0-10.2356,0.5759-13.5176,24.3786c0,0-6.3279,55.234-5.8517,60.517
			c0,0-5.3676,12.3124,9.9473,12.5078c0,0,19.7676,8.103,39.0521-3.9001c0,0,22.8031-11.7975,44.3653-13.3332
			c0,0,33.7454,1.4515,38.1604-7.9544c0,0-17.4149-66.9803-34.9581-70.3365l-11.7402-2.8874L42.7312,85.4306z"/>
		<path class="st267" d="M30.7056,189.7585c-8.7942,0.0005-15.1849-2.3989-15.8096-2.6423
			c-4.933-0.0715-8.2709-1.4028-9.9208-3.9579c-2.308-3.573-0.504-8.237-0.2455-8.8606c-0.4173-5.6214,5.6005-58.2568,5.858-60.5037
			c3.2753-23.7541,13.3413-24.5908,13.768-24.6148l18.3552-4.0179l0.0376,0.0026l47.0971,3.0073l11.7869,2.8945
			c17.4945,3.3463,34.44,67.787,35.153,70.5284l0.024,0.0935l-0.0413,0.0878c-4.4394,9.4586-37.029,8.1654-38.4136,8.108
			c-21.2278,1.5136-44.0031,13.1856-44.2308,13.3037C45.9213,188.2929,37.5794,189.7585,30.7056,189.7585z M42.7516,85.7003
			l-18.3239,4.007c-0.1415,0.012-10.1026,0.8973-13.3094,24.1536c-0.0622,0.5458-6.3186,55.261-5.8501,60.4567l0.0063,0.0679
			l-0.0277,0.0627c-0.0209,0.0491-2.0912,4.9105,0.1791,8.4224c1.5528,2.402,4.758,3.6508,9.5265,3.7114l0.0977,0.0198
			c0.1964,0.081,19.8698,7.9116,38.8095-3.8795c0.247-0.1285,23.1179-11.8507,44.4878-13.3731
			c0.364,0.0136,33.4373,1.3282,37.8955-7.7147c-0.7584-2.8731-17.8476-66.8176-34.7242-70.0464l-11.754-2.8903L42.7516,85.7003z"/>
	</g>
	<g>
		<path class="st268" d="M78.8868,82.2715v9.7272c0,0-4.607,10.1063-3.8391,22.9725s0,0,0,0s2.4954-11.3369,8.4461-21.3104
			c0,0,6.7185,6.7267,6.5265,12.6774c0,0,6.4095-9.7844-0.7604-21.6582C89.2599,84.68,84.2363,79.1998,78.8868,82.2715"/>
		<path class="st267" d="M75.1218,120.7055l-0.3431-5.7556c-0.7234-12.2852,3.481-22.1872,3.8409-23.0077v-9.8252l0.1342-0.0773
			c5.4736-3.141,10.652,2.403,10.7032,2.4594c7.206,11.9233,0.8524,21.8869,0.7871,21.9861l-0.5212,0.796l0.0303-0.9511
			c0.1656-5.132-5.0207-10.9633-6.2089-12.2298c-5.5702,9.4743-8.0677,20.19-8.2276,20.893l0.339,5.6804L75.1218,120.7055z
			 M79.1544,82.4282l-0.024,9.6811c-0.0434,0.0956-4.1355,9.2277-3.89,20.9959c0.9673-3.6147,3.5181-12.0298,8.0234-19.581
			l0.176-0.2951l0.2429,0.2429c0.2627,0.2627,6.1003,6.1708,6.5782,11.8815c1.3109-2.5978,4.5794-10.9147-1.2295-20.5352
			C89.0141,84.8077,84.2038,79.6674,79.1544,82.4282z"/>
	</g>
	<g>
		
			<ellipse transform="matrix(0.9966 -0.082 0.082 0.9966 -9.5975 6.896)" class="st269" cx="79.1506" cy="120.2848" rx="1.6146" ry="1.7293"/>
	</g>
	<g>
		
			<ellipse transform="matrix(0.9966 -0.082 0.082 0.9966 -11.1933 7.0935)" class="st269" cx="80.7572" cy="139.81" rx="1.6146" ry="1.7293"/>
	</g>
	<g>
		
			<ellipse transform="matrix(0.9966 -0.082 0.082 0.9966 -12.9142 7.2081)" class="st269" cx="81.2923" cy="160.8174" rx="1.6146" ry="1.7293"/>
	</g>
	<g>
		<path class="st267" d="M78.1417,165.2309l-0.9344-1.4039c-0.8806-1.3229-1.1694-2.3774-0.8586-3.1342
			c0.1922-0.469,0.5646-0.6957,0.8043-0.7975l-1.8922-39.1928l0.5338-0.0261l1.9137,39.6222l-0.2241,0.0465
			c-0.0167,0.0042-0.4633,0.1086-0.6435,0.5578c-0.1609,0.4006-0.1504,1.1819,0.8116,2.6276l0.9349,1.4039L78.1417,165.2309z"/>
	</g>
	<g>
		<path class="st267" d="M112.577,152.3382c-7.4849-8.6182-12.6727-32.5374-13.0666-34.3951
			c-0.4847-0.2946-0.8947-0.4434-1.2284-0.5646c-1.2169-0.4418-1.6018-0.7458-1.6018-4.1861h0.5348
			c0,3.2293,0.2899,3.3348,1.2498,3.6837c0.3792,0.1374,0.8519,0.3092,1.4274,0.6748l0.0956,0.0606l0.0225,0.1113
			c0.0522,0.2533,5.3116,25.4463,12.971,34.2646L112.577,152.3382z"/>
	</g>
	<g id="cuello_1_">
		<path class="st270" d="M52.5126,57.5161c0,0-0.1159,14.2699-1.0757,21.7562c0,0-2.0475,13.629,23.6107,34.9311
			c0,0-0.8167-12.2622,3.8391-22.2047v-9.7272l-1.5357-7.6062L53.5484,55.5812L52.5126,57.5161z"/>
		<path class="st75" d="M75.2017,114.5054l-0.2397-0.199c-13.2739-11.0208-18.9987-19.9513-21.4639-25.5027
			c-2.6804-6.0366-2.215-9.4111-2.1936-9.5516c0.9474-7.3898,1.0733-21.5944,1.0743-21.737l0.0157-0.0621l1.1119-2.0766
			l0.1253,0.1003l23.8408,19.1146l0.0094,0.0475l1.536,7.606l0.0026,9.7835l-0.0125,0.0272
			c-4.5888,9.7981-3.8351,22.017-3.8273,22.1392L75.2017,114.5054z M52.6458,57.5502c-0.0068,0.773-0.1488,14.5044-1.0764,21.7391
			c-0.0052,0.0366-0.4732,3.4617,2.1868,9.4361c2.4422,5.4871,8.0923,14.2971,21.1427,25.1804
			c-0.0846-1.9643-0.3421-12.9522,3.8545-21.937v-9.6973l-1.524-7.5319L53.59,55.7859L52.6458,57.5502z"/>
	</g>
	<g id="sombra_cuello_1_">
		<path class="st271" d="M51.6589,77.2708c0,0,8.416-3.3733,27.2278,12.7511V77.2708L52.5886,53.1672L51.6589,77.2708z"/>
	</g>
	<g>
		<path class="st268" d="M51.8345,75.2566l-9.1034,4.3996c0,0-2.5631,2.3035,0,11.5174c0,0,1.9872,12.4772,1.4114,16.1244
			l6.5265-9.6901c0,0,12.6692,7.1947,24.3786,17.3633l-9.1904-8.8322c0,0-15.2814-14.2147-14.4203-26.8667s0,0,0,0L51.8345,75.2566"
			/>
		<path class="st267" d="M74.8722,115.1734c-10.7272-9.316-22.404-16.2128-24.1207-17.2093l-7.0613,10.4844l0.188-1.1924
			c0.563-3.5636-1.3914-15.9156-1.4112-16.0399c-2.5717-9.2382-0.024-11.66,0.0857-11.7587l0.0622-0.0418l8.835-4.2697
			l0.1029-1.5152l0.5338,0.0366l-0.0825,1.2107l0.1441-0.0695l-0.445,4.4854c-0.8383,12.3813,14.1842,26.5081,14.3362,26.6491
			l9.1938,8.8355L74.8722,115.1734z M50.5853,97.2533l0.2157,0.1222c0.1071,0.0606,9.2084,5.2584,19.0284,12.9522l-4.1579-3.996
			c-0.1504-0.14-15.3609-14.4443-14.5018-27.0779l0.2382-3.4936l-8.5185,4.1167c-0.2293,0.2538-2.2453,2.7963,0.0992,11.2255
			c0.081,0.4967,1.6948,10.6975,1.5115,15.1855L50.5853,97.2533z"/>
	</g>
	<g>
		<path class="st270" d="M75.2767,17.579c0,0-12.4785-4.7712-17.0662,0c0,0-3.8537,4.1882,0,14.2974
			c0,0-8.4414,0.3722-6.7898,12.3057c0,0-1.2846-6.2913-5.1382-4.4274c0,0-5.3217,1.4378-2.9361,12.2943
			c0,0,3.6702,1.5275,3.6702,5.458c0,0,4.4042,5.4285,6.0558,0l3.6702,11.2857c0,0,2.3856,7.6703,8.0743,9.0576
			c0,0,7.5238,1.0203,8.8084,2.3049c0,0,2.7526,3.3031,5.5052,3.3031c0,0,4.4042,0.3449,6.6063-5.608
			c0,0,4.2207-1.8858,6.0558-9.0576l3.1196-10.7531c0,0,1.4681-1.16-2.0186-7.9647c0,0-6.7898-6.1325-7.1568-24.2689
			C85.7367,25.806,87.7553,12.8078,75.2767,17.579z"/>
		<path class="st75" d="M79.2369,83.5945c-0.0726,0-0.1128-0.0026-0.117-0.0031h-0.0005c-2.7723,0-5.483-3.2136-5.5973-3.3505
			c-1.2295-1.2289-8.6485-2.2479-8.7232-2.2578c-5.7102-1.3919-8.1597-9.0732-8.1837-9.1505l-3.5442-10.898
			c-0.4445,1.2201-1.089,1.9199-1.9194,2.0824c-1.9377,0.3844-4.1454-2.3111-4.2389-2.426l-0.0298-0.0366v-0.0475
			c0-3.797-3.5521-5.3195-3.5876-5.3346l-0.0642-0.0266l-0.0151-0.0679c-2.3858-10.8557,2.8099-12.3918,3.0319-12.4518
			c0.8947-0.4356,1.7507-0.4669,2.5226-0.0857c1.2002,0.5938,1.945,2.0568,2.3581,3.1786c-0.269-3.5792,0.4137-6.374,2.0359-8.3211
			c1.781-2.1377,4.1861-2.5597,4.8593-2.6381c-3.7364-9.9511-0.07-14.0986,0.0888-14.2709
			c4.4995-4.6818,16.1919-0.4194,17.1644-0.0528c3.7385-1.4201,6.5599-1.3898,8.3895,0.0898
			c3.0669,2.4788,2.239,8.0641,2.2025,8.3007c0.363,17.8329,7.0472,24.0878,7.1146,24.1489l0.0292,0.0381
			c3.2298,6.3045,2.238,7.8567,2.0181,8.0965L91.9211,68.83c-1.7188,6.7166-5.5827,8.8663-6.0778,9.117
			C83.8273,83.3344,79.9582,83.5945,79.2369,83.5945z M53.0683,57.0613l3.8012,11.6903c0.0245,0.0773,2.4302,7.616,7.979,8.9687
			c0.2951,0.0397,7.57,1.0394,8.871,2.3404c0.0355,0.0413,2.7535,3.2638,5.4109,3.2638c0.0554,0.0084,4.3428,0.2606,6.481-5.5206
			l0.0193-0.0527l0.0512-0.023c0.0418-0.0183,4.1856-1.9513,5.9812-8.9682l3.1327-10.7988l0.0334-0.0266
			c0.011-0.0094,1.2984-1.2467-2.0442-7.7784c-0.3996-0.3828-6.8273-6.832-7.182-24.3474c0.0104-0.0794,0.8419-5.694-2.1053-8.0756
			c-1.7575-1.4201-4.5084-1.4295-8.1733-0.0292l-0.0475,0.0183l-0.0475-0.0183c-0.1248-0.047-12.4492-4.6839-16.9221-0.0324
			c-0.036,0.0392-3.7464,4.2566,0.0282,14.1576l0.0658,0.1729l-0.1849,0.0084c-0.0282,0.001-2.8475,0.1562-4.8499,2.5623
			c-1.7867,2.1482-2.3973,5.3748-1.8134,9.5913l-0.2638,0.0449c-0.0068-0.0345-0.7328-3.4868-2.6381-4.429
			c-0.6931-0.3421-1.4692-0.3102-2.3106,0.0951c-0.0747,0.023-5.1691,1.5517-2.8778,12.0799
			c0.4962,0.2319,3.6591,1.8562,3.6873,5.5033c0.2679,0.317,2.2824,2.6203,3.95,2.296c0.8106-0.1583,1.4305-0.9276,1.8442-2.2866
			L53.0683,57.0613z"/>
	</g>
	<g>
		<path class="st272" d="M75.3991,19.6799c3.0566-2.1185,9.0025-1.1887,9.0097-1.1876c-1.393-1.8595-4.0691-2.8492-9.1321-0.9133
			c0,0-12.4785-4.7712-17.0662,0c0,0-3.8537,4.1882,0,14.2974c0,0-8.4414,0.3722-6.7898,12.3057c0,0-1.2846-6.2912-5.1382-4.4274
			c0,0-5.3217,1.4378-2.9361,12.2943c0,0,3.6702,1.5275,3.6702,5.458c0,0,4.4042,5.4284,6.0558,0l3.6702,11.2857
			c0,0,2.3856,7.6703,8.0743,9.0576c0,0,7.5238,1.0204,8.8084,2.3049c0,0,2.7526,3.3031,5.5052,3.3031
			c0,0,2.602,0.192,4.8064-2.4197c-6.0023,2.1531-10.3117-2.7968-10.3117-2.7968c-12.1115-2.8309-11.5549-6.3295-11.5549-6.3295
			c-3.8475-4.7562-6.9041-27.7302-6.9041-27.7302c-1.9434-9.1809,5.5135-12.3057,5.5135-12.3057c-1.9351-6.2555,0-10.0618,0-10.0618
			C61.8642,15.9574,75.3991,19.6799,75.3991,19.6799z"/>
	</g>
	<g>
		<path class="st273" d="M44.5254,40.9971c0,0-2.8917-10.9396,2.2465-19.9926c0,0-3.9126,0-3.0574-4.0372
			c0,0-0.0639-5.574,3.556-10.0594C50.086,3.4193,55.13,0.5893,64.1658,1.5527c0,0,6.4621,1.3993,11.2333,1.189l-0.5352,0.7072
			c0,0,6.4687,2.5232,11.0564-3.3031c0,0,5.8264,1.0552,5.4594,8.3037c0,0-1.4834,8.4567-6.9701,10.043l0,0
			c0,0-2.0371-3.8496-9.1327-0.9134l0,0c0,0-13.596-5.7571-17.8696,1.3421l0,0c0,0-2.5609,4.4977,0.8034,12.9553l0,0
			c0,0-7.8908,1.3509-5.4441,12.3057h-1.3457c0,0,0.0221-3.7497-3.6784-4.7663s0,0,0,0S45.8121,38.6394,44.5254,40.9971"/>
		<path class="st274" d="M52.933,44.316h-1.6468l0.0005-0.1342c0.0005-0.1494-0.0245-3.6602-3.5797-4.6369l-0.3014-0.083
			c-0.5625-0.106-1.8275-0.1144-2.7629,1.5998l-0.1609,0.2946l-0.0862-0.3249c-0.0287-0.1092-2.8073-10.9435,2.1539-19.9038
			c-0.4998-0.0418-1.7215-0.2392-2.4772-1.1715c-0.5933-0.7322-0.7573-1.747-0.4883-3.0162
			c-0.0037-0.0272-0.0261-5.6449,3.5824-10.1162c3.5594-4.4097,9.2857-6.2262,17.0135-5.4041
			c0.0789,0.0167,6.5087,1.3976,11.2135,1.1882l0.2841-0.0125l-0.5959,0.7876c1.0435,0.3358,6.6701,1.839,10.7335-3.3196L85.8647,0
			l0.0794,0.0141c0.059,0.011,5.9379,1.16,5.5691,8.4422c-0.0172,0.1018-1.5632,8.5738-7.0665,10.1647l-0.1039,0.0303
			l-0.0512-0.0961c-0.0204-0.0366-2.0735-3.7035-8.9635-0.8524l-0.0517,0.0214l-0.0517-0.0219
			c-0.1348-0.0575-13.5371-5.6308-17.7034,1.288c-0.0235,0.0418-2.484,4.547,0.8137,12.8367l0.0611,0.1536l-0.163,0.0277
			c-0.0266,0.0047-2.696,0.4915-4.3919,3.024c-1.4838,2.2155-1.8014,5.284-0.9443,9.1207L52.933,44.316z M51.549,44.0485h1.0514
			c-0.8289-3.8378-0.4857-6.9219,1.0216-9.1693c1.5392-2.2949,3.786-2.9572,4.406-3.1013
			c-3.2617-8.3263-0.7631-12.8775-0.7369-12.9229c4.1501-6.8942,17.0542-1.8003,17.986-1.4206
			c6.4492-2.649,8.8068,0.3186,9.1922,0.9009c5.2667-1.6165,6.7641-9.8258,6.7787-9.9088c0.3322-6.5829-4.5951-7.9727-5.2746-8.1325
			c-4.593,5.7514-11.0923,3.305-11.1581,3.28l-0.1645-0.0648l0.4716-0.6236c-4.6948,0.1462-10.9215-1.1887-10.9847-1.2023
			C56.518,0.8727,50.8731,2.6574,47.3743,6.9918c-3.5484,4.3971-3.5265,9.9187-3.526,9.9741
			c-0.2544,1.2148-0.1081,2.1539,0.4309,2.8203c0.8654,1.0702,2.4762,1.0848,2.4923,1.0848l0.2293,0.0005l-0.1128,0.199
			c-4.5643,8.0427-2.7269,17.7055-2.309,19.5727c0.6022-0.9459,1.3172-1.3125,1.9199-1.4305l-0.4366-0.1196l0.0705-0.258
			l1.4034,0.3854c0.1327,0.0277,0.2204,0.058,0.2476,0.0679C51.1322,40.2118,51.5072,43.3576,51.549,44.0485z"/>
	</g>
	<g>
		<path class="st275" d="M49.3506,4.8301c0,0-8.1146,11.3267,5.1286,15.4403c0,0-8.8084-1.3339-6.851,12.4233
			c0,0-4.0372,3.582,4.1595,6.8957l0.9787,4.5927h-1.3457c0,0-0.6513-5.0669-4.2711-4.8819c0,0-1.4865-0.2049-2.5875,1.3549
			c0,0-1.7433-8.7396,0.5505-15.1623l1.6592-4.4883c0,0-1.4298-0.237-2.3244-1.0628c0,0-1.1079-0.9634-0.5196-2.9361
			C43.9279,17.0056,43.2087,11.0186,49.3506,4.8301z"/>
	</g>
	<g>
		<path class="st276" d="M43.8028,108.6417L50.797,98.276c0,0,16.5083,9.6516,23.6747,16.6952l-22.7149-13.8806L43.8028,108.6417z"
			/>
	</g>
	<g>
		<path class="st276" d="M75.0476,114.9712c0,0,5.6307-16.4367,8.4461-20.661c0,0,6.0858,5.8514,6.0858,12.0166
			c0,0-1.2869-4.2117-4.1022-5.7473C85.4773,100.5795,80.5504,101.6571,75.0476,114.9712z"/>
	</g>
	<g>
		<path class="st275" d="M84.4095,18.4925c0,0,4.9056-1.831,6.9701-10.043c0,0,0.3211-6.6522-5.4594-8.3037
			c0,0,3.6702,2.4774,1.101,7.8908C87.0212,8.0366,91.3401,9.4047,84.4095,18.4925z"/>
	</g>
	<g>
		<path class="st275" d="M66.7653,15.4585c0,0-7.2396-6.6878,8.0986-12.0096l0.5352-0.7072c0,0-2.9063,0.5846-9.3134-0.8221
			c0,0-8.3645,0.4283-6.4683,4.282C59.6174,6.2016,50.6408,12.9455,66.7653,15.4585z"/>
	</g>
	<g>
		<path class="st275" d="M75.2767,17.579c0,0-3.1808-9.7259,7.4015-14.1913c0,0,2.3244-1.2234,3.242-3.242
			c0,0,1.8351,4.4042-2.9973,7.218C82.9229,7.3638,76.5613,9.5659,75.2767,17.579z"/>
	</g>
	<g>
		<path class="st75" d="M78.5146,57.7371c-1.5089,0-4.2874-0.2549-5.132-2.0249l0.3625-0.1724
			c1.0289,2.1565,5.6271,1.7716,5.6736,1.7674c2.7843-0.9448,4.3282-2.1847,4.5418-3.6758c0.351-2.4516-3.0146-4.8338-3.0486-4.8573
			l-0.0423-0.0397c-1.6029-2.0165-3.1551-10.2274-3.2204-10.5758l0.3938-0.0742c0.0162,0.0841,1.5878,8.3989,3.1233,10.3783
			c0.3447,0.2455,3.5646,2.6203,3.1912,5.2255c-0.2366,1.6536-1.8708,3.0021-4.8567,4.0085
			C79.4354,57.7042,79.0567,57.7371,78.5146,57.7371z"/>
	</g>
	<g>
		<path class="st3" d="M86.9917,62.9323c0,0-13.9945,2.1662-18.2584-3.4815c0,0,1.8065,7.81,9.5539,9.3053
			C78.2873,68.7561,84.704,69.6218,86.9917,62.9323z"/>
		<path class="st75" d="M78.9569,68.9887c-0.4251,0-0.6837-0.0319-0.6962-0.0334c-7.7967-1.5047-9.7046-9.3797-9.7229-9.4591
			l-0.2126-0.9187l0.5677,0.7526c4.1428,5.4877,17.9285,3.4246,18.068,3.4043l0.328-0.0512l-0.1076,0.3139
			C85.3184,68.4461,80.7144,68.9887,78.9569,68.9887z M69.2064,60.2922c0.7427,2.0667,3.1421,7.1135,9.1191,8.2673
			c0.2387,0.0308,6.0747,0.7354,8.3654-5.3811C84.5966,63.4619,73.6808,64.7013,69.2064,60.2922z"/>
	</g>
	<g id="ojo_der_13_">
		<g>
			<path class="st3" d="M79.7348,38.7101c0,0,3.8712-2.5691,8.428,1.101c0,0-0.061,1.0006-0.5673,2.1316
				c-0.5833,1.303-1.7575,2.7791-4.1105,3.0983C83.4851,45.0411,80.0574,45.5458,79.7348,38.7101z"/>
			<path d="M83.3248,45.1835c-0.3134,0-0.9934-0.0773-1.6959-0.6549c-1.2107-0.9965-1.8928-2.952-2.028-5.812l-0.0037-0.0757
				l0.0632-0.0418c0.0392-0.0272,4.0044-2.5817,8.5864,1.1083l0.0538,0.0434l-0.0042,0.0689
				c-0.0026,0.0418-0.0689,1.0378-0.5787,2.1779c-0.5667,1.265-1.7575,2.8428-4.2149,3.176
				C83.494,45.1746,83.4303,45.1835,83.3248,45.1835z M79.872,38.7829c0.1744,3.4084,1.1428,4.8933,1.9272,5.5388
				c0.8482,0.6983,1.6593,0.587,1.6666,0.587c2.3367-0.317,3.469-1.8176,4.0075-3.0209c0.4168-0.9302,0.5259-1.7763,0.55-2.0171
				C83.9322,36.6175,80.387,38.482,79.872,38.7829z"/>
		</g>
		<g>
			<ellipse class="st277" cx="83.5757" cy="42.248" rx="2.2949" ry="2.3053"/>
		</g>
		<g>
			<ellipse class="st258" cx="83.663" cy="42.9455" rx="1.3574" ry="1.3636"/>
		</g>
		<g>
			<ellipse class="st3" cx="82.619" cy="42.2115" rx="0.6787" ry="0.6818"/>
		</g>
		<g>
			<circle class="st3" cx="81.6106" cy="41.1885" r="0.192"/>
		</g>
		<g>
			<path d="M79.103,37.9914l0.2151,1.3763c0,0,3.8175-3.8231,10.404,1.8962v-1.8351C89.7221,39.4288,84.1572,34.8717,79.103,37.9914
				z"/>
			<path d="M89.856,41.5567l-0.2215-0.1922c-6.4178-5.5723-10.1851-1.9403-10.2222-1.9022l-0.1859,0.1865l-0.269-1.7246
				l0.0757-0.0465c5.0756-3.1332,10.7168,1.4008,10.7737,1.4478l0.0491,0.0402V41.5567z M82.8809,37.9994
				c1.7094,0,3.9751,0.668,6.7077,2.9739v-1.4796c-0.5562-0.4298-5.6934-4.2279-10.3397-1.4342l0.1645,1.0524
				C79.8532,38.7693,81.0471,37.9994,82.8809,37.9994z"/>
		</g>
		<g>
			<path class="st275" d="M78.9452,32.6977l1.3205-4.3124c0,0,1.1525-2.2938,3.4729,0.5505l4.4077,4.5877
				c0,0,1.1075,2.8444-1.001,1.2387C87.1453,34.7621,81.4585,30.4038,78.9452,32.6977z"/>
		</g>
	</g>
	<g id="ojo_izq_1_">
		<g>
			<path class="st3" d="M74.0181,39.1851c0,0-4.6312-2.7015-10.0824,1.1578c0,0,0.0729,1.0521,0.6786,2.2415
				c0.6978,1.3701,2.1025,2.9223,4.9174,3.258C69.5316,45.8424,73.6321,46.3731,74.0181,39.1851z"/>
			<path d="M69.7261,45.9857c-0.1243,0-0.1995-0.0089-0.2115-0.0104c-2.9243-0.3489-4.3433-2.0035-5.0192-3.3301
				c-0.6111-1.2002-0.6905-2.249-0.6931-2.2928l-0.0052-0.0752l0.0611-0.0434c5.4584-3.8644,10.1804-1.1924,10.2274-1.1642
				l0.0705,0.0413l-0.0042,0.0815c-0.1535,2.8517-0.8978,4.8526-2.2129,5.9473C71.037,45.8912,70.1272,45.9857,69.7261,45.9857z
				 M64.0765,40.4072c0.0293,0.2564,0.1619,1.1443,0.657,2.1168c0.6461,1.2686,2.0056,2.8506,4.8139,3.1859
				c0.0125-0.001,1.1365,0.1301,2.2265-0.7808c1.2389-1.0357,1.9476-2.942,2.1059-5.6668
				C73.2818,38.9536,69.0022,36.9632,64.0765,40.4072z"/>
		</g>
		<g>
			<circle class="st277" cx="69.6356" cy="42.8028" r="2.4241"/>
		</g>
		<g>
			<circle class="st258" cx="69.8286" cy="43.5473" r="1.4338"/>
		</g>
		<g>
			<circle class="st3" cx="68.7258" cy="42.7754" r="0.7169"/>
		</g>
		<g>
			<circle class="st3" cx="67.6033" cy="41.7321" r="0.2023"/>
		</g>
		<g>
			<path d="M74.7738,38.4293l-0.2573,1.4472c0,0-4.5668-4.0201-12.4463,1.994v-1.9297
				C62.0703,39.9409,68.7276,35.1489,74.7738,38.4293z"/>
			<path d="M61.9367,42.1406v-2.2683l0.0554-0.0402c0.0669-0.0486,6.7923-4.805,12.8456-1.5204l0.0846,0.046l-0.3155,1.7758
				l-0.1786-0.1567c-0.0449-0.0381-4.5846-3.8696-12.2768,1.9998L61.9367,42.1406z M62.2041,40.0107v1.5914
				c6.8853-5.1351,11.2934-2.6146,12.2189-1.9638l0.2021-1.137C69.0314,35.5405,62.8538,39.5673,62.2041,40.0107z"/>
		</g>
		<g>
			<path class="st275" d="M73.0601,32.0315l-0.3675-3.38c0,0-0.9595-3.7666-9.2165,4.1965c0,0-2.1802,3.1559,1.0701,1.3619
				C64.5462,34.2099,71.0684,30.9703,73.0601,32.0315z"/>
		</g>
	</g>
	<g>
		<path class="st75" d="M80.2621,73.2354c-2.6626,0-4.1355-1.4791-4.1569-1.5016l0.2883-0.2789
			c0.1243,0.128,3.118,3.106,8.5039-0.0339l0.2016,0.3468C83.2131,72.8672,81.5898,73.2354,80.2621,73.2354z"/>
	</g>
	<g>
		<path class="st271" d="M47.016,44.1378c0,0,0,3.667,1.5598,5.1016c0,0,1.7515,0.5325,1.2886,2.314c0,0-0.0385,6.9352-2.0858,0
			C47.7787,51.5534,46.0067,47.7863,47.016,44.1378z"/>
	</g>
	<g>
		<g>
			<path class="st278" d="M155.7567,191.3811l-5.1541,2.6917v1.5274l-53.2228,5.0318l-31.9772-5.645
				c0,0-4.1375-2.1522-4.1375-4.7953l32.9289,4.7953L155.7567,191.3811z"/>
		</g>
		<g>
			<polygon class="st279" points="61.2651,190.1917 94.7336,186.9628 94.1941,194.9871 			"/>
			<path d="M94.1941,195.2545c-0.0131,0-0.0256-0.001-0.0387-0.0026l-32.9291-4.7951c-0.1337-0.0199-0.2319-0.1358-0.2288-0.2711
				c0.0031-0.1353,0.1071-0.247,0.2418-0.2601l33.4686-3.2293c0.0789-0.0058,0.1562,0.0198,0.212,0.0747
				c0.0564,0.0543,0.0857,0.1311,0.0804,0.2094l-0.5395,8.0244c-0.0052,0.0747-0.0407,0.1436-0.0987,0.1901
				C94.3142,195.2336,94.2547,195.2545,94.1941,195.2545z M63.491,190.2457l30.4555,4.4352l0.4993-7.4217L63.491,190.2457z"/>
		</g>
		<g>
			<path d="M78.7898,191.6794l-9.1092-1.2645c-0.0334-0.0047-0.058-0.034-0.0575-0.0679c0.0005-0.034,0.0266-0.0616,0.0606-0.0648
				l25.2969-2.379c0.0209-0.0073,0.0392,0.0047,0.0533,0.0188c0.0141,0.0136,0.0214,0.0329,0.0198,0.0527l-0.1708,2.2223
				c-0.0026,0.0324-0.0282,0.0585-0.0611,0.0616L78.7898,191.6794z M70.2677,190.3617l8.5258,1.1846l15.9605-1.4159l0.1603-2.0865
				L70.2677,190.3617z"/>
		</g>
		<g>
			<line class="st280" x1="74.0254" y1="190.9511" x2="94.8983" y2="189.1242"/>
			<path d="M74.0255,191.0182c-0.0345,0-0.0637-0.0261-0.0669-0.0611c-0.0031-0.0366,0.024-0.0689,0.0611-0.0726l20.8726-1.827
				c0.0345-0.0016,0.0695,0.024,0.0726,0.0611c0.0031,0.0366-0.024,0.0689-0.0611,0.0726l-20.8726,1.827
				C74.0292,191.0182,74.0276,191.0182,74.0255,191.0182z"/>
		</g>
		<g>
			<path d="M93.9241,193.86c-0.0031,0-0.0063,0-0.0094-0.0005l-15.14-2.1805c-0.0366-0.0052-0.0622-0.0392-0.0569-0.0757
				c0.0052-0.0366,0.0402-0.0669,0.0757-0.0569l15.0805,2.1722l0.8774-3.5427c0.0089-0.0355,0.0449-0.0585,0.081-0.0486
				c0.0355,0.0089,0.0574,0.0449,0.0486,0.0809l-0.8921,3.6012C93.9815,193.8396,93.9544,193.86,93.9241,193.86z"/>
		</g>
		<g>
			<path d="M94.3205,192.596c-0.0026,0-0.0052,0-0.0084-0.0005l-20.6366-2.5561c-0.0366-0.0047-0.0627-0.0381-0.058-0.0747
				c0.0047-0.0371,0.0287-0.0616,0.0747-0.058l20.5734,2.5482l0.1812-1.0299l-16.4546-1.7914
				c-0.034-0.0037-0.0595-0.0324-0.0595-0.0668s0.0266-0.0627,0.0606-0.0658l5.5383-0.5207l11.3884,0.8754v-1.1516l-5.5514-0.1389
				c-0.0371-0.001-0.0663-0.0319-0.0653-0.0684c0.001-0.0376,0.0319-0.0606,0.0684-0.0653l5.6167,0.1405
				c0.0366,0.0011,0.0653,0.0308,0.0653,0.0669v1.289c0,0.0188-0.0078,0.0366-0.0214,0.0491
				c-0.0136,0.0125-0.0324,0.0172-0.0507,0.0178l-11.449-0.8811l-4.8714,0.4586l15.8712,1.7282
				c0.0183,0.0021,0.035,0.0115,0.046,0.0261c0.0115,0.0146,0.0157,0.0334,0.0125,0.0517l-0.2047,1.1626
				C94.3806,192.573,94.3524,192.596,94.3205,192.596z"/>
		</g>
		<g>
			<path d="M84.9293,192.596c-0.0339,0-0.0627-0.0256-0.0663-0.0595c-0.0042-0.0371,0.0225-0.07,0.059-0.0736l10.6797-1.1396
				c0.0402-0.0089,0.0695,0.0225,0.0736,0.059c0.0042,0.0371-0.0225,0.07-0.059,0.0736l-10.6797,1.1396
				C84.934,192.596,84.9314,192.596,84.9293,192.596z"/>
		</g>
		<g>
			<g>
				<path class="st270" d="M63.4182,179.5086c0,0,6.3541,2.5261,15.1299,0.5639l6.5838,2.1006l0.8915,8.6292
					c0,0,0.4413,0.9008,2.265,0.7013c0,0,1.456,0.1199,1.6072-2.1454c0,0,0.2055,1.6043,2.0117,1.4858
					c0,0,1.7197-0.3068,1.9659-2.5748l0.5754-3.5959c0,0,1.6027,0.431,1.6779-1.2909l-0.8598-5.9303l3.0018,4.0613
					c0,0,1.4591,2.3714,2.7381,1.6514c0,0,2.0948-0.5708,1.1268-2.7137l-5.9851-8.7969c0,0-2.401-3.7513-7.0811-5.4407
					c0,0-9.9541-3.8674-14.2898-2.0484l-12.0999,3.099C62.6774,167.2642,60.5583,172.5801,63.4182,179.5086z"/>
				<path class="st75" d="M87.7632,191.6669c-1.4467,0-1.8421-0.7693-1.8599-0.8054l-0.0131-0.0454l-0.8821-8.542l-6.4664-2.063
					c-8.6982,1.934-15.1103-0.5531-15.1735-0.5782l-0.0522-0.0209l-0.0219-0.0522c-2.847-6.8994-0.7625-12.2915-0.7411-12.3453
					l0.0251-0.0632l0.0658-0.0167l12.0998-3.0987c4.3183-1.8134,13.9633,1.8949,14.3723,2.0531
					c4.6651,1.6839,7.1203,5.4553,7.1449,5.4934l5.9833,8.7937c0.327,0.7192,0.3635,1.3355,0.1201,1.852
					c-0.3771,0.8001-1.2843,1.0555-1.323,1.066c-1.3459,0.7615-2.8245-1.6092-2.8867-1.7105l-2.6793-3.6241l0.7834,5.4036
					c-0.023,0.5865-0.2053,0.996-0.5406,1.2415c-0.4043,0.2956-0.9145,0.2638-1.1595,0.2272l-0.5536,3.4586
					c-0.2533,2.3336-2.0562,2.6825-2.0745,2.6856c-1.1835,0.0841-1.7288-0.5374-1.9758-1.0279
					c-0.1154,0.586-0.3463,1.03-0.6879,1.3245c-0.468,0.4027-0.9688,0.3672-0.9897,0.3646
					C88.0928,191.6575,87.9215,191.6669,87.7632,191.6669z M86.1535,190.7618c0.0726,0.1217,0.551,0.7808,2.12,0.6095
					c0.0444,0.0005,0.4434,0.0256,0.8236-0.3055c0.3881-0.3374,0.6116-0.9145,0.6654-1.7162l0.2658-0.0084
					c0.0084,0.0601,0.2246,1.465,1.8698,1.3699c0.0512-0.0104,1.6102-0.3212,1.8416-2.4563l0.6001-3.7484l0.1431,0.0381
					c0.0052,0.0005,0.6414,0.1645,1.0785-0.1567c0.2653-0.1953,0.4105-0.5354,0.4314-1.0112l-0.9344-6.4314l3.3176,4.489
					c0.0204,0.0319,1.4149,2.2646,2.5644,1.6144c0.0386-0.0146,0.8597-0.2481,1.1824-0.9365
					c0.2074-0.4424,0.1703-0.9824-0.1112-1.606l-5.9744-8.7765c-0.0256-0.0402-2.4354-3.737-7.0153-5.39
					c-0.1018-0.0397-9.9542-3.8289-14.1931-2.051l-12.0507,3.0878c-0.2199,0.6147-1.8666,5.6574,0.7416,12.0277
					c0.6257,0.2319,6.7819,2.3754,14.999,0.5379l0.0355-0.0078l6.7014,2.1382l0.0094,0.0872L86.1535,190.7618z"/>
			</g>
			<g>
				<path class="st75" d="M90.0294,189.3646l-0.2674-0.0125l0.3139-6.4471c0.0235-0.1515,0.4847-3.3724-3.5212-4.4003
					l-5.8439-2.1717l0.093-0.2507l5.8308,2.1675c4.2337,1.0858,3.7129,4.6468,3.7072,4.6828L90.0294,189.3646z"/>
			</g>
			<g>
				<path class="st75" d="M94.3148,184.6813l-0.2773-4.7021c0.0047-0.0501,0.2721-2.3916-4.3611-3.5557l-5.6882-2.2051
					l0.0971-0.2496l5.672,2.2004c4.8703,1.2227,4.5616,3.7161,4.546,3.8216l0.2789,4.675L94.3148,184.6813z"/>
			</g>
			<g>
				<path class="st75" d="M95.152,176.9703l-0.2664-0.0214c0.0073-0.0945,0.1374-2.3299-3.1656-3.8179l-7.4473-3.7453l0.1201-0.2392
					l7.4421,3.7432C95.3144,174.4565,95.1603,176.8684,95.152,176.9703z"/>
			</g>
		</g>
		<g>
			<path d="M101.0441,137.9901l59.4703-1.1982c0,0,4.0968-0.7841,3.0396,6.7488l-4.229,43.4222c0,0-0.3965,5.4755-3.5682,4.4183
				l-58.3769,6.1293c0,0-3.4281-0.1069-3.1858-2.5234l3.5392-52.6358C97.7332,142.3512,97.0704,138.0701,101.0441,137.9901z"/>
		</g>
		<g>
			<path class="st281" d="M103.696,140.6622l53.8198-1.0884c0,0,3.7076-0.7122,2.7508,6.1301l-3.8272,39.4418
				c0,0-0.3588,4.9736-3.2292,4.0133l-52.8303,5.5675c0,0-3.1023-0.0971-2.8831-2.2921l3.2029-47.8108
				C100.6997,144.6235,100.0999,140.7349,103.696,140.6622z"/>
		</g>
		<g>
			
				<rect x="125.8144" y="160.3244" transform="matrix(0.7071 0.7071 -0.7071 0.7071 155.7672 -44.3054)" width="11.1011" height="11.1011"/>
		</g>
	</g>
	<g>
		<path class="st268" d="M50.8961,167.7639c0,0,7.4584,5.0616,3.105,15.1853l10.2719-1.1604c0,0,8.2516-9.6777-2.6476-16.0551
			L50.8961,167.7639z"/>
		<path class="st267" d="M53.5733,183.267l0.1823-0.423c4.2112-9.7939-2.7133-14.6564-3.0099-14.859l-0.5338-0.3635l11.4621-2.1691
			l0.0867,0.0507c3.2721,1.9147,5.1743,4.3203,5.6532,7.1496c0.8189,4.8379-2.7838,9.1296-2.9373,9.3097l-0.0689,0.0804
			L53.5733,183.267z M51.5197,167.918c1.5679,1.3459,6.2993,6.2972,2.9029,14.7149l9.7119-1.0973
			c0.4847-0.6064,3.4716-4.5549,2.7514-8.7974c-0.4476-2.6396-2.2343-4.9011-5.3096-6.7229L51.5197,167.918z"/>
	</g>
	<g>
		<path class="st253" d="M33.8709,143.9627c0,0-0.6399,11.4881,3.2201,20.6254c0,0-3.1813-0.5821-7.7201,0.2399
			C29.371,164.828,34.1213,147.8192,33.8709,143.9627z"/>
	</g>
	<g>
		<path class="st267" d="M29.6255,164.9112l-0.5087-0.1661c5.6464-17.3378,5.4568-43.1324,5.4542-43.391l-0.0031-0.2998
			l0.2993,0.0313c0.1363,0.011,3.2768,0.2857,3.8461-4.6818l0.5317,0.0606c-0.527,4.594-3.2293,5.1127-4.1381,5.1555
			C35.1116,124.4382,34.9862,148.4498,29.6255,164.9112z"/>
	</g>
	<g>
		<polygon class="st3" points="102.9452,131.6576 103.3406,137.9438 105.0579,137.9092 		"/>
	</g>
	<g>
		<path class="st267" d="M50.7927,168.0105c-0.1368-0.0569-13.8186-5.6631-29.8168-0.5526l-0.163-0.5098
			c16.1945-5.1706,30.0497,0.5113,30.1866,0.5693L50.7927,168.0105z"/>
	</g>
	<g>
		<path class="st276" d="M41.592,85.928l-19.3555,4.6787c0,0-7.4922,3.0026-10.7803,21.8061s0,0,0,0l-5.2671,49.6296
			c0,0-1.0504,11.1265-0.7307,12.2993c0,0-5.6629,11.4026,9.2707,12.0419c0,0,20.0911,8.4487,38.9308-3.8362
			c0,0,4.1802-8.1746-2.1221-13.7005c0,0,3.6991,10.1937-0.4567,13.0888c0,0-21.4185,10.202-33.0182-0.5757
			c0,0-11.7824,5.8011-9.4077-6.6898l5.8456-61.1277c0,0-0.2271-15.3845,9.362-20.7335L41.592,85.928"/>
	</g>
	<g>
		<path class="st255" d="M39.3139,116.5718c0,0-0.2436,4.9322-4.1406,5.1453c0,0,0.0154,14.574-1.2941,22.5301
			c0,0-0.4723,12.8245,3.2119,20.3409c0,0,6.7026,0.4247,13.0484,2.8898l11.552-2.1627l2.1007,1.4918l11.7354-3.1283
			c0,0-10.2436,2.0932-20.1079-6.6447c0,0-19.3938,6.698-15.5881-6.8807l-2.4052-27.1575
			C37.4262,122.9958,40.1054,120.4688,39.3139,116.5718z"/>
	</g>
</g>
</svg>
