<?xml version="1.0" encoding="utf-8"?>
<!-- Generator: Adobe Illustrator 21.0.2, SVG Export Plug-In . SVG Version: 6.00 Build 0)  -->
<svg version="1.1" id="Capa_1" xmlns="http://www.w3.org/2000/svg" xmlns:xlink="http://www.w3.org/1999/xlink" x="0px" y="0px"
	 viewBox="0 0 202.4841 34.6758" style="enable-background:new 0 0 202.4841 34.6758;" xml:space="preserve">
<style type="text/css">
	.st0{fill-rule:evenodd;clip-rule:evenodd;fill:#DDDDDD;}
	.st1{fill:#3B86B1;}
	.st2{opacity:0.25;fill-rule:evenodd;clip-rule:evenodd;fill:#020202;}
	.st3{fill:#FFFFFF;}
	.st4{opacity:0.5;}
	.st5{fill-rule:evenodd;clip-rule:evenodd;fill:#A8A8A8;}
	.st6{fill-rule:evenodd;clip-rule:evenodd;fill:#FFFFFF;}
	.st7{fill-rule:evenodd;clip-rule:evenodd;fill:#3B86B1;}
	.st8{opacity:0.5;fill:#2C6882;}
	.st9{opacity:0.75;fill-rule:evenodd;clip-rule:evenodd;fill:#282828;}
	.st10{opacity:0.5;fill:#FFFFFF;}
	.st11{fill-rule:evenodd;clip-rule:evenodd;fill:none;stroke:#FFFFFF;stroke-miterlimit:10;}
	.st12{fill:none;stroke:#FFFFFF;stroke-miterlimit:10;}
	.st13{fill:#FFFFFF;stroke:#3B86B1;stroke-width:1.7139;stroke-miterlimit:10;}
	.st14{fill-rule:evenodd;clip-rule:evenodd;}
	.st15{opacity:0.85;fill:#FFFFFF;}
	.st16{opacity:0.5;fill-rule:evenodd;clip-rule:evenodd;}
	.st17{fill-rule:evenodd;clip-rule:evenodd;fill:#FEFEFE;}
	.st18{fill:#312767;}
	.st19{opacity:0.48;}
	.st20{opacity:0.25;}
	.st21{fill-rule:evenodd;clip-rule:evenodd;fill:#020202;}
	.st22{fill:#757575;}
	.st23{opacity:0.25;clip-path:url(#XMLID_3763_);}
	.st24{fill:#FFFFFF;stroke:#312767;stroke-miterlimit:10;}
	.st25{fill:#ACABC9;}
	.st26{fill-rule:evenodd;clip-rule:evenodd;fill:#312767;}
	.st27{opacity:0.77;fill:#312767;}
	.st28{opacity:0.25;clip-path:url(#XMLID_3771_);}
	.st29{fill:#9490B2;stroke:#2D2D2D;stroke-width:0.25;stroke-miterlimit:10;}
	.st30{fill:#312767;stroke:#2D2D2D;stroke-width:0.25;stroke-miterlimit:10;}
	.st31{fill:#FCFCFC;}
	.st32{fill:#FFFFFF;stroke:#2D2D2D;stroke-width:0.25;stroke-miterlimit:10;}
	.st33{fill-rule:evenodd;clip-rule:evenodd;fill:#484849;stroke:#2D2D2D;stroke-width:0.25;stroke-miterlimit:10;}
	.st34{fill-rule:evenodd;clip-rule:evenodd;fill:#312767;stroke:#2D2D2D;stroke-width:0.25;stroke-miterlimit:10;}
	.st35{fill-rule:evenodd;clip-rule:evenodd;fill:#FFFFFF;stroke:#2D2D2D;stroke-width:0.25;stroke-miterlimit:10;}
	.st36{fill:#484849;stroke:#2D2D2D;stroke-width:0.25;stroke-miterlimit:10;}
	.st37{fill:#FFFFFF;stroke:#FFFFFF;stroke-miterlimit:10;}
	.st38{fill:#54518C;}
	.st39{opacity:0.25;fill-rule:evenodd;clip-rule:evenodd;fill:#FFFFFF;}
	.st40{fill:#D4A800;}
	.st41{fill:#00AEB3;}
	.st42{fill:#38353B;}
	.st43{fill:#FF8400;}
	.st44{fill:#BF3900;}
	.st45{fill:#00AA9C;}
	.st46{opacity:0.25;clip-path:url(#XMLID_3783_);}
	.st47{fill:none;stroke:#ACABC9;stroke-width:5;stroke-miterlimit:10;}
	.st48{opacity:0.25;clip-path:url(#XMLID_3784_);}
	.st49{fill:#DDDDDD;}
	.st50{opacity:0.25;clip-path:url(#XMLID_3790_);}
	.st51{fill-rule:evenodd;clip-rule:evenodd;fill:#FFFFFF;stroke:#FFFFFF;stroke-miterlimit:10;}
	.st52{fill:#F79748;}
	.st53{fill:#FF7900;}
	.st54{fill:#DD7105;}
	.st55{fill:#02897C;}
	.st56{fill:#0EAD9A;}
	.st57{fill:#28C6AF;}
	.st58{fill:#4FE0C7;}
	.st59{fill:#D37D00;}
	.st60{fill:#D14600;}
	.st61{fill:#E5B92E;}
	.st62{fill:#DD571B;}
	.st63{fill:#E28A17;}
	.st64{opacity:0.25;clip-path:url(#XMLID_3791_);}
	.st65{opacity:0.77;fill:#FFFFFF;}
	.st66{fill:#50565B;stroke:#656C70;stroke-miterlimit:10;}
	.st67{fill:#808589;stroke:#656C70;stroke-miterlimit:10;}
	.st68{fill:#252728;stroke:#000000;stroke-miterlimit:10;}
	.st69{fill:#1A1B1C;stroke:#000000;stroke-miterlimit:10;}
	.st70{fill:#A0A6AA;}
	.st71{fill:#262C35;stroke:#161A1E;stroke-miterlimit:10;}
	.st72{fill:#181D23;}
	.st73{fill:#EABA96;stroke:#E0AA86;stroke-miterlimit:10;}
	.st74{fill:#E0AA86;}
	.st75{stroke:#000000;stroke-width:0.75;stroke-linecap:square;stroke-linejoin:bevel;stroke-miterlimit:10;}
	.st76{fill:#0F1C3F;stroke:#182951;stroke-miterlimit:10;}
	.st77{fill:#132354;stroke:#3F6093;stroke-miterlimit:10;}
	.st78{fill:#0F1C3F;}
	.st79{fill:none;stroke:#3F6093;stroke-width:0.75;stroke-miterlimit:10;}
	.st80{fill:#DBA682;}
	.st81{fill:none;stroke:#E0AA86;stroke-miterlimit:10;}
	.st82{fill:none;stroke:#E0AA86;stroke-linejoin:bevel;stroke-miterlimit:10;}
	.st83{fill:#8A0A8E;stroke:#AC34B2;stroke-miterlimit:10;}
	.st84{fill:#810C87;}
	.st85{fill:#680B6D;}
	.st86{fill:#AC34B2;stroke:#AC34B2;stroke-width:0.5;stroke-miterlimit:10;}
	.st87{fill:none;stroke:#959DA0;stroke-width:0.5;stroke-miterlimit:10;}
	.st88{fill:#959DA0;stroke:#959DA0;stroke-width:0.5;stroke-miterlimit:10;}
	.st89{fill:none;stroke:#AC34B2;stroke-miterlimit:10;}
	.st90{fill:#282828;stroke:#000000;stroke-miterlimit:10;}
	.st91{fill:#EABA96;stroke:#E0AA86;stroke-width:0.5;stroke-miterlimit:10;}
	.st92{fill:#B7896A;}
	.st93{stroke:#000000;stroke-miterlimit:10;}
	.st94{fill:#C1A578;}
	.st95{stroke:#000000;stroke-width:0.25;stroke-linecap:round;stroke-linejoin:round;stroke-miterlimit:10;}
	.st96{fill:#FFFFFF;stroke:#000000;stroke-width:0.25;stroke-linecap:round;stroke-linejoin:round;stroke-miterlimit:10;}
	.st97{fill:#70582D;}
	.st98{stroke:#000000;stroke-linecap:round;stroke-linejoin:round;stroke-miterlimit:10;}
	.st99{fill:none;stroke:#D8A27D;stroke-width:0.75;stroke-miterlimit:10;}
	.st100{fill:#561409;}
	.st101{fill:#BA2A13;}
	.st102{fill:#9E3025;stroke:#4C2311;stroke-width:0.25;stroke-miterlimit:10;}
	.st103{fill:#871D08;stroke:#4C2311;stroke-width:0.25;stroke-miterlimit:10;}
	.st104{fill:#DDAC8A;}
	.st105{fill:#A5ABAD;stroke:#959DA0;stroke-width:0.5;stroke-miterlimit:10;}
	.st106{fill:#B1BABC;}
	.st107{fill:none;stroke:#153847;stroke-width:5;stroke-miterlimit:10;}
	.st108{fill:#3CA7AF;}
	.st109{fill:#3DAD8D;}
	.st110{fill:#3DAA61;}
	.st111{fill:#67A53F;}
	.st112{fill:#95A340;}
	.st113{opacity:0.25;clip-path:url(#XMLID_3797_);}
	.st114{opacity:0.25;clip-path:url(#XMLID_3798_);}
	.st115{opacity:0.25;clip-path:url(#XMLID_3804_);}
	.st116{opacity:0.25;clip-path:url(#XMLID_3805_);}
	.st117{clip-path:url(#SVGID_2_);}
	.st118{fill:none;stroke:#3F6093;stroke-miterlimit:10;}
	.st119{fill:none;stroke:#3F6093;stroke-width:0.75;stroke-linecap:round;stroke-linejoin:round;}
	.st120{fill:none;stroke:#3F6093;stroke-width:0.75;stroke-linecap:round;stroke-linejoin:round;stroke-dasharray:0.9892,0.9892;}
	
		.st121{fill:none;stroke:#3F6093;stroke-width:0.75;stroke-linecap:round;stroke-linejoin:round;stroke-miterlimit:10;stroke-dasharray:1;}
	.st122{fill:#EAEAEA;stroke:#FFFFFF;stroke-width:0.25;stroke-miterlimit:10;}
	.st123{fill:#D8D8D8;}
	.st124{fill:#282828;stroke:#000000;stroke-width:0.75;stroke-miterlimit:10;}
	.st125{opacity:0.33;fill:#FFFFFF;}
	.st126{fill:none;stroke:#000000;stroke-width:1.5;stroke-linecap:round;stroke-linejoin:round;stroke-miterlimit:10;}
	.st127{opacity:0.64;}
	.st128{fill:#C9C9C9;}
	.st129{fill:#FFF064;}
	.st130{fill:#4F4E4F;}
	.st131{fill:#1E2F47;}
	.st132{opacity:0.1;fill:#FFFFFF;}
	.st133{opacity:0.1;}
	.st134{opacity:0.4;fill:#FFFFFF;}
	.st135{fill-rule:evenodd;clip-rule:evenodd;fill:#F39C12;}
	.st136{fill-rule:evenodd;clip-rule:evenodd;fill:#E6E6E6;}
	.st137{fill-rule:evenodd;clip-rule:evenodd;fill:#474646;}
	.st138{fill-rule:evenodd;clip-rule:evenodd;fill:#D84848;}
	.st139{opacity:0.2;fill-rule:evenodd;clip-rule:evenodd;fill:#231F20;}
	.st140{opacity:0.1;fill-rule:evenodd;clip-rule:evenodd;fill:#231F20;}
	.st141{fill-rule:evenodd;clip-rule:evenodd;fill:#4D4D4D;}
	.st142{fill-rule:evenodd;clip-rule:evenodd;fill:#336699;}
	.st143{fill-rule:evenodd;clip-rule:evenodd;fill:#FF6633;}
	.st144{fill-rule:evenodd;clip-rule:evenodd;fill:#0056A3;}
	.st145{fill-rule:evenodd;clip-rule:evenodd;fill:#33CC99;}
	.st146{fill:#CE6405;}
	.st147{opacity:0.2;fill:#FFFFFF;}
	.st148{fill:#1ABC9C;}
	.st149{opacity:0.2;}
	.st150{fill:#0B2E44;}
	.st151{fill-rule:evenodd;clip-rule:evenodd;fill:#154F77;}
	.st152{fill-rule:evenodd;clip-rule:evenodd;fill:#0D3858;}
	.st153{fill-rule:evenodd;clip-rule:evenodd;fill:#FFFEFE;}
	.st154{fill:#AEC647;}
	.st155{fill:#F3AE1B;}
	.st156{fill:#DF3F11;}
	.st157{fill:#BCDEDE;}
	.st158{fill:#C84119;}
	.st159{fill:#6BB5CE;}
	.st160{fill:#00D0E5;}
	.st161{fill:#FF81ED;}
	.st162{fill:#00C982;}
	.st163{opacity:0.7;}
	.st164{opacity:0.4;}
	.st165{fill-rule:evenodd;clip-rule:evenodd;fill:#0B2E44;}
	.st166{opacity:0.8;fill-rule:evenodd;clip-rule:evenodd;fill:#FFFFFF;}
	.st167{fill:#424242;}
	.st168{opacity:0.2;fill-rule:evenodd;clip-rule:evenodd;fill:#FFFFFF;}
	.st169{fill:#D0EDFA;}
	.st170{fill:#FF651F;}
	.st171{fill:#0051C4;}
	.st172{fill:#E46400;}
	.st173{fill:#C0003B;}
	.st174{fill:#FFEA50;}
	.st175{fill:#FF2C0D;}
	.st176{fill:#FF1A2C;}
	.st177{fill:#FF2C4D;}
	.st178{fill:#FFD74C;}
	.st179{fill:#4C4C4B;}
	.st180{fill:#6CD2EA;}
	.st181{fill:#F7674F;}
	.st182{opacity:0.1;fill-rule:evenodd;clip-rule:evenodd;}
	.st183{fill:#BABABA;}
	.st184{fill:#F9B946;}
	.st185{fill:#4D4789;}
	.st186{fill:#DFC2A9;}
	.st187{fill:#BFA490;}
	.st188{fill:#F5D4B2;}
	.st189{fill:#DF584C;}
	.st190{fill:#C2443E;}
	.st191{fill:#DBDBDA;}
	.st192{fill:#2F363E;}
	.st193{fill:#332524;}
	.st194{fill:#473735;}
	.st195{opacity:0.25;clip-path:url(#XMLID_3806_);}
	.st196{fill:#153847;}
	.st197{fill:#52B8BA;}
	.st198{fill:#35373E;}
	.st199{opacity:0.25;clip-path:url(#XMLID_3807_);}
	.st200{opacity:0.31;fill:#34383A;}
	.st201{opacity:0.16;fill:#3D3835;}
	.st202{fill:#D0D1D4;}
	.st203{opacity:0.31;}
	.st204{fill:#34383A;}
	.st205{opacity:0.16;}
	.st206{fill:#3D3835;}
	.st207{opacity:0.25;clip-path:url(#XMLID_3808_);}
	.st208{fill:#F9E1B4;}
	.st209{opacity:0.25;fill:#050505;}
	.st210{fill:#FCC60F;}
	.st211{fill:#74CAEA;}
	.st212{fill:#050505;}
	.st213{opacity:0.25;clip-path:url(#XMLID_3809_);}
	.st214{fill:#FABC8F;}
	.st215{fill:#3FA995;}
	.st216{opacity:0.17;fill:#020202;}
	.st217{fill:#E1E1E1;}
	.st218{opacity:0.17;}
	.st219{fill:#020202;}
	.st220{opacity:0.25;clip-path:url(#XMLID_3810_);}
	.st221{fill:#BF8E00;}
	.st222{fill:#F7D8D7;}
	.st223{fill:#F18636;}
	.st224{fill:#004460;}
	.st225{fill:#D93A37;}
	.st226{fill:#EDEDED;}
	.st227{fill:#184F78;}
	.st228{fill:#FF3E03;}
	.st229{opacity:0.6;fill:#0F0F0F;}
	.st230{fill:#E8E8E6;}
	.st231{fill:#00EAA6;}
	.st232{fill-rule:evenodd;clip-rule:evenodd;fill:#FF3E03;}
	.st233{opacity:0.1;fill-rule:evenodd;clip-rule:evenodd;fill:#020202;}
	.st234{fill-rule:evenodd;clip-rule:evenodd;fill:#FABE00;}
	.st235{fill-rule:evenodd;clip-rule:evenodd;fill:#E6E8E8;}
	.st236{fill-rule:evenodd;clip-rule:evenodd;fill:#F7D959;}
	.st237{fill-rule:evenodd;clip-rule:evenodd;fill:#F9623E;}
	.st238{fill:#4F1A0F;}
	.st239{opacity:0.46;fill:#FFFFFF;}
	.st240{opacity:0.6;}
	.st241{fill:#0F0F0F;}
	.st242{opacity:0.46;}
	.st243{fill:#48505A;}
	.st244{fill:#C3C3C3;}
	.st245{fill:#E9E9EA;}
	.st246{fill:#9D9E9F;}
	.st247{fill:#F6F4F4;}
	.st248{fill:#6B6A6A;}
	.st249{fill:#C09478;}
	.st250{fill:#F7CDA0;}
	.st251{fill:#9E1010;}
	.st252{fill:#F2F2F2;}
	.st253{opacity:0.2;fill:#060606;}
	.st254{fill:#16AFBE;}
	.st255{fill:#DD2222;}
	.st256{fill:#FFEDDC;}
	.st257{fill:#22272B;}
	.st258{fill:#5B6375;}
	.st259{fill:#060606;}
</style>
<g>
	<g id="XMLID_3795_">
		<g id="XMLID_3796_">
			<polygon class="st38" points="187.9621,0.5004 202.4841,17.338 187.9621,34.1756 174.743,34.1756 189.265,17.338 174.743,0.5004 
				187.9621,0.5004 			"/>
		</g>
	</g>
	<g id="XMLID_3793_">
		<g id="XMLID_3794_">
			<polygon class="st38" points="14.522,34.1756 0,17.3379 14.522,0.5003 27.7411,0.5003 13.2191,17.3379 27.7411,34.1756 
				14.522,34.1756 			"/>
		</g>
	</g>
	<g id="XMLID_3792_">
		<polygon class="st3" points="31.7411,0.5003 171.743,0.5004 186.265,17.338 171.743,34.1756 31.7411,34.1756 17.2191,17.3379 		
			"/>
		<path class="st18" d="M171.9724,34.6758H31.5114L16.5593,17.3379L31.5114,0h140.4609l14.9531,17.3379L171.9724,34.6758z
			 M31.9704,33.6758h139.543l14.0918-16.3379L171.5134,1H31.9704L17.8796,17.3379L31.9704,33.6758z"/>
	</g>
	<g>
		<g>
			<path class="st18" d="M72.0661,17.7627l2.5215,0.7998c-0.3867,1.4063-1.0293,2.4512-1.9287,3.1328
				c-0.8994,0.6836-2.04,1.0244-3.4229,1.0244c-1.7109,0-3.1172-0.585-4.2188-1.7529c-1.1016-1.1699-1.6523-2.7676-1.6523-4.7949
				c0-2.1445,0.5527-3.8105,1.6602-4.9961c1.1074-1.1875,2.5645-1.7803,4.3691-1.7803c1.5762,0,2.8555,0.4658,3.8398,1.3975
				c0.5859,0.5508,1.0254,1.3418,1.3184,2.373l-2.5742,0.6152c-0.1523-0.668-0.4707-1.1953-0.9541-1.582
				s-1.0713-0.5801-1.7627-0.5801c-0.9551,0-1.7295,0.3428-2.3242,1.0283s-0.8926,1.7959-0.8926,3.3311
				c0,1.6289,0.293,2.7891,0.8789,3.4805s1.3477,1.0371,2.2852,1.0371c0.6914,0,1.2871-0.2197,1.7852-0.6592
				S71.8493,18.7061,72.0661,17.7627z"/>
		</g>
		<g>
			<path class="st18" d="M76.8024,22.5V9.6152h2.4707V22.5H76.8024z"/>
		</g>
		<g>
			<path class="st18" d="M81.8044,11.9004V9.6152h2.4688v2.2852H81.8044z M81.8044,22.5v-9.334h2.4688V22.5H81.8044z"/>
		</g>
		<g>
			<path class="st18" d="M92.2106,19.5293l2.4609,0.4131c-0.3164,0.9023-0.8164,1.5898-1.499,2.0615s-1.5361,0.707-2.5615,0.707
				c-1.623,0-2.8242-0.5303-3.6035-1.5908c-0.6152-0.8496-0.9238-1.9219-0.9238-3.2168c0-1.5469,0.4043-2.7578,1.2129-3.6338
				s1.832-1.3145,3.0684-1.3145c1.3887,0,2.4844,0.459,3.2871,1.375c0.8027,0.918,1.1855,2.3223,1.1504,4.2148h-6.1875
				c0.0176,0.7324,0.2168,1.3027,0.5977,1.709c0.3809,0.4082,0.8555,0.6113,1.4238,0.6113c0.3867,0,0.7129-0.1055,0.9766-0.3164
				S92.0759,19.998,92.2106,19.5293z M92.3513,17.0332c-0.0176-0.7148-0.2031-1.2578-0.5547-1.6309
				c-0.3516-0.3711-0.7793-0.5576-1.2832-0.5576c-0.5391,0-0.9844,0.1963-1.3359,0.5889s-0.5234,0.9258-0.5176,1.5996H92.3513z"/>
		</g>
		<g>
			<path class="st18" d="M105.3063,22.5h-2.4707v-4.7637c0-1.0078-0.0527-1.6592-0.1582-1.9551s-0.2764-0.5264-0.5137-0.6904
				s-0.5234-0.2461-0.8574-0.2461c-0.4277,0-0.8105,0.1172-1.1504,0.3516s-0.5732,0.5449-0.6992,0.9316
				s-0.1895,1.1016-0.1895,2.1445V22.5h-2.4688v-9.334h2.293v1.3711c0.8145-1.0547,1.8398-1.582,3.0762-1.582
				c0.5449,0,1.043,0.0986,1.4941,0.2949s0.793,0.4463,1.0244,0.751s0.3926,0.6504,0.4834,1.0371s0.1367,0.9404,0.1367,1.6611V22.5z
				"/>
		</g>
		<g>
			<path class="st18" d="M112.0915,13.166v1.9688h-1.6875v3.7617c0,0.7617,0.0156,1.2061,0.0479,1.332s0.1055,0.2295,0.2197,0.3115
				s0.2539,0.123,0.418,0.123c0.2285,0,0.5586-0.0791,0.9922-0.2373l0.2109,1.916c-0.5742,0.2461-1.2246,0.3691-1.9512,0.3691
				c-0.4453,0-0.8457-0.0742-1.2031-0.2246c-0.3574-0.1484-0.6201-0.3418-0.7871-0.5801c-0.167-0.2363-0.2832-0.5576-0.3477-0.9619
				c-0.0527-0.2871-0.0781-0.8672-0.0781-1.7402v-4.0693h-1.1348V13.166h1.1348v-1.8545l2.4785-1.4414v3.2959H112.0915z"/>
		</g>
		<g>
			<path class="st18" d="M119.2106,19.5293l2.4609,0.4131c-0.3164,0.9023-0.8164,1.5898-1.499,2.0615s-1.5361,0.707-2.5615,0.707
				c-1.623,0-2.8242-0.5303-3.6035-1.5908c-0.6152-0.8496-0.9238-1.9219-0.9238-3.2168c0-1.5469,0.4043-2.7578,1.2129-3.6338
				s1.832-1.3145,3.0684-1.3145c1.3887,0,2.4844,0.459,3.2871,1.375c0.8027,0.918,1.1855,2.3223,1.1504,4.2148h-6.1875
				c0.0176,0.7324,0.2168,1.3027,0.5977,1.709c0.3809,0.4082,0.8555,0.6113,1.4238,0.6113c0.3867,0,0.7129-0.1055,0.9766-0.3164
				S119.0759,19.998,119.2106,19.5293z M119.3513,17.0332c-0.0176-0.7148-0.2031-1.2578-0.5547-1.6309
				c-0.3516-0.3711-0.7793-0.5576-1.2832-0.5576c-0.5391,0-0.9844,0.1963-1.3359,0.5889s-0.5234,0.9258-0.5176,1.5996H119.3513z"/>
		</g>
		<g>
			<path class="st18" d="M122.945,19.8369l2.4785-0.3779c0.1055,0.4805,0.3203,0.8457,0.6426,1.0938
				c0.3223,0.25,0.7734,0.374,1.3535,0.374c0.6387,0,1.1191-0.1172,1.4414-0.3516c0.2168-0.1641,0.3242-0.3838,0.3242-0.6592
				c0-0.1875-0.0586-0.3428-0.1758-0.4658c-0.123-0.1172-0.3984-0.2256-0.8262-0.3252c-1.9922-0.4395-3.2539-0.8408-3.7871-1.2041
				c-0.7383-0.5039-1.1074-1.2041-1.1074-2.1006c0-0.8086,0.3184-1.4883,0.957-2.0391s1.6289-0.8262,2.9707-0.8262
				c1.2773,0,2.2266,0.208,2.8476,0.624s1.0488,1.0313,1.2832,1.8457l-2.3281,0.4307c-0.0996-0.3633-0.2891-0.6416-0.5674-0.835
				s-0.6748-0.29-1.1904-0.29c-0.6504,0-1.1172,0.0908-1.3984,0.2725c-0.1875,0.1289-0.2813,0.2959-0.2813,0.501
				c0,0.1758,0.082,0.3252,0.2461,0.4482c0.2227,0.1641,0.9922,0.3955,2.3076,0.6943c1.3154,0.2988,2.2334,0.665,2.7549,1.0986
				c0.5156,0.4395,0.7734,1.0518,0.7734,1.8369c0,0.8555-0.3574,1.5908-1.0723,2.2061s-1.7715,0.9229-3.1719,0.9229
				c-1.2715,0-2.2783-0.2578-3.0195-0.7734S123.1735,20.7217,122.945,19.8369z"/>
		</g>
	</g>
</g>
</svg>
