<?xml version="1.0" encoding="utf-8"?>
<!-- Generator: Adobe Illustrator 21.0.2, SVG Export Plug-In . SVG Version: 6.00 Build 0)  -->
<svg version="1.1" id="Capa_1" xmlns="http://www.w3.org/2000/svg" xmlns:xlink="http://www.w3.org/1999/xlink" x="0px" y="0px"
	 viewBox="0 0 341.1621 55.3047" style="enable-background:new 0 0 341.1621 55.3047;" xml:space="preserve">
<style type="text/css">
	.st0{fill-rule:evenodd;clip-rule:evenodd;fill:#DDDDDD;}
	.st1{fill:#3B86B1;}
	.st2{opacity:0.25;fill-rule:evenodd;clip-rule:evenodd;fill:#020202;}
	.st3{fill:#FFFFFF;}
	.st4{opacity:0.5;}
	.st5{fill-rule:evenodd;clip-rule:evenodd;fill:#A8A8A8;}
	.st6{fill-rule:evenodd;clip-rule:evenodd;fill:#FFFFFF;}
	.st7{fill-rule:evenodd;clip-rule:evenodd;fill:#3B86B1;}
	.st8{opacity:0.5;fill:#2C6882;}
	.st9{opacity:0.75;fill-rule:evenodd;clip-rule:evenodd;fill:#282828;}
	.st10{opacity:0.5;fill:#FFFFFF;}
	.st11{fill-rule:evenodd;clip-rule:evenodd;fill:none;stroke:#FFFFFF;stroke-miterlimit:10;}
	.st12{fill:none;stroke:#FFFFFF;stroke-miterlimit:10;}
	.st13{fill:#FFFFFF;stroke:#3B86B1;stroke-width:1.7139;stroke-miterlimit:10;}
	.st14{fill-rule:evenodd;clip-rule:evenodd;}
	.st15{opacity:0.85;fill:#FFFFFF;}
	.st16{opacity:0.5;fill-rule:evenodd;clip-rule:evenodd;}
	.st17{fill-rule:evenodd;clip-rule:evenodd;fill:#FEFEFE;}
	.st18{fill:#312767;}
	.st19{opacity:0.48;}
	.st20{opacity:0.25;}
	.st21{fill-rule:evenodd;clip-rule:evenodd;fill:#020202;}
	.st22{fill:#757575;}
	.st23{opacity:0.25;clip-path:url(#XMLID_3763_);}
	.st24{fill:#FFFFFF;stroke:#312767;stroke-miterlimit:10;}
	.st25{fill:#ACABC9;}
	.st26{fill-rule:evenodd;clip-rule:evenodd;fill:#312767;}
	.st27{opacity:0.77;fill:#312767;}
	.st28{opacity:0.25;clip-path:url(#XMLID_3771_);}
	.st29{fill:#9490B2;stroke:#2D2D2D;stroke-width:0.25;stroke-miterlimit:10;}
	.st30{fill:#312767;stroke:#2D2D2D;stroke-width:0.25;stroke-miterlimit:10;}
	.st31{fill:#FCFCFC;}
	.st32{fill:#FFFFFF;stroke:#2D2D2D;stroke-width:0.25;stroke-miterlimit:10;}
	.st33{fill-rule:evenodd;clip-rule:evenodd;fill:#484849;stroke:#2D2D2D;stroke-width:0.25;stroke-miterlimit:10;}
	.st34{fill-rule:evenodd;clip-rule:evenodd;fill:#312767;stroke:#2D2D2D;stroke-width:0.25;stroke-miterlimit:10;}
	.st35{fill-rule:evenodd;clip-rule:evenodd;fill:#FFFFFF;stroke:#2D2D2D;stroke-width:0.25;stroke-miterlimit:10;}
	.st36{fill:#484849;stroke:#2D2D2D;stroke-width:0.25;stroke-miterlimit:10;}
	.st37{fill:#FFFFFF;stroke:#FFFFFF;stroke-miterlimit:10;}
	.st38{fill:#54518C;}
	.st39{opacity:0.25;fill-rule:evenodd;clip-rule:evenodd;fill:#FFFFFF;}
	.st40{fill:#D4A800;}
	.st41{fill:#00AEB3;}
	.st42{fill:#38353B;}
	.st43{fill:#FF8400;}
	.st44{fill:#BF3900;}
	.st45{fill:#00AA9C;}
	.st46{opacity:0.25;clip-path:url(#XMLID_3783_);}
	.st47{fill:none;stroke:#ACABC9;stroke-width:5;stroke-miterlimit:10;}
	.st48{opacity:0.25;clip-path:url(#XMLID_3784_);}
	.st49{fill:#DDDDDD;}
	.st50{opacity:0.25;clip-path:url(#XMLID_3790_);}
	.st51{fill-rule:evenodd;clip-rule:evenodd;fill:#FFFFFF;stroke:#FFFFFF;stroke-miterlimit:10;}
	.st52{fill:#F79748;}
	.st53{fill:#FF7900;}
	.st54{fill:#DD7105;}
	.st55{fill:#02897C;}
	.st56{fill:#0EAD9A;}
	.st57{fill:#28C6AF;}
	.st58{fill:#4FE0C7;}
	.st59{fill:#D37D00;}
	.st60{fill:#D14600;}
	.st61{fill:#E5B92E;}
	.st62{fill:#DD571B;}
	.st63{fill:#E28A17;}
	.st64{opacity:0.25;clip-path:url(#XMLID_3791_);}
	.st65{opacity:0.77;fill:#FFFFFF;}
	.st66{fill:#50565B;stroke:#656C70;stroke-miterlimit:10;}
	.st67{fill:#808589;stroke:#656C70;stroke-miterlimit:10;}
	.st68{fill:#252728;stroke:#000000;stroke-miterlimit:10;}
	.st69{fill:#1A1B1C;stroke:#000000;stroke-miterlimit:10;}
	.st70{fill:#A0A6AA;}
	.st71{fill:#262C35;stroke:#161A1E;stroke-miterlimit:10;}
	.st72{fill:#181D23;}
	.st73{fill:#EABA96;stroke:#E0AA86;stroke-miterlimit:10;}
	.st74{fill:#E0AA86;}
	.st75{stroke:#000000;stroke-width:0.75;stroke-linecap:square;stroke-linejoin:bevel;stroke-miterlimit:10;}
	.st76{fill:#0F1C3F;stroke:#182951;stroke-miterlimit:10;}
	.st77{fill:#132354;stroke:#3F6093;stroke-miterlimit:10;}
	.st78{fill:#0F1C3F;}
	.st79{fill:none;stroke:#3F6093;stroke-width:0.75;stroke-miterlimit:10;}
	.st80{fill:#DBA682;}
	.st81{fill:none;stroke:#E0AA86;stroke-miterlimit:10;}
	.st82{fill:none;stroke:#E0AA86;stroke-linejoin:bevel;stroke-miterlimit:10;}
	.st83{fill:#8A0A8E;stroke:#AC34B2;stroke-miterlimit:10;}
	.st84{fill:#810C87;}
	.st85{fill:#680B6D;}
	.st86{fill:#AC34B2;stroke:#AC34B2;stroke-width:0.5;stroke-miterlimit:10;}
	.st87{fill:none;stroke:#959DA0;stroke-width:0.5;stroke-miterlimit:10;}
	.st88{fill:#959DA0;stroke:#959DA0;stroke-width:0.5;stroke-miterlimit:10;}
	.st89{fill:none;stroke:#AC34B2;stroke-miterlimit:10;}
	.st90{fill:#282828;stroke:#000000;stroke-miterlimit:10;}
	.st91{fill:#EABA96;stroke:#E0AA86;stroke-width:0.5;stroke-miterlimit:10;}
	.st92{fill:#B7896A;}
	.st93{stroke:#000000;stroke-miterlimit:10;}
	.st94{fill:#C1A578;}
	.st95{stroke:#000000;stroke-width:0.25;stroke-linecap:round;stroke-linejoin:round;stroke-miterlimit:10;}
	.st96{fill:#FFFFFF;stroke:#000000;stroke-width:0.25;stroke-linecap:round;stroke-linejoin:round;stroke-miterlimit:10;}
	.st97{fill:#70582D;}
	.st98{stroke:#000000;stroke-linecap:round;stroke-linejoin:round;stroke-miterlimit:10;}
	.st99{fill:none;stroke:#D8A27D;stroke-width:0.75;stroke-miterlimit:10;}
	.st100{fill:#561409;}
	.st101{fill:#BA2A13;}
	.st102{fill:#9E3025;stroke:#4C2311;stroke-width:0.25;stroke-miterlimit:10;}
	.st103{fill:#871D08;stroke:#4C2311;stroke-width:0.25;stroke-miterlimit:10;}
	.st104{fill:#DDAC8A;}
	.st105{fill:#A5ABAD;stroke:#959DA0;stroke-width:0.5;stroke-miterlimit:10;}
	.st106{fill:#B1BABC;}
	.st107{fill:none;stroke:#153847;stroke-width:5;stroke-miterlimit:10;}
	.st108{fill:#3CA7AF;}
	.st109{fill:#3DAD8D;}
	.st110{fill:#3DAA61;}
	.st111{fill:#67A53F;}
	.st112{fill:#95A340;}
	.st113{opacity:0.25;clip-path:url(#XMLID_3797_);}
	.st114{opacity:0.25;clip-path:url(#XMLID_3798_);}
	.st115{opacity:0.25;clip-path:url(#XMLID_3804_);}
	.st116{opacity:0.25;clip-path:url(#XMLID_3805_);}
	.st117{clip-path:url(#SVGID_2_);}
	.st118{fill:none;stroke:#3F6093;stroke-miterlimit:10;}
	.st119{fill:none;stroke:#3F6093;stroke-width:0.75;stroke-linecap:round;stroke-linejoin:round;}
	.st120{fill:none;stroke:#3F6093;stroke-width:0.75;stroke-linecap:round;stroke-linejoin:round;stroke-dasharray:0.9892,0.9892;}
	
		.st121{fill:none;stroke:#3F6093;stroke-width:0.75;stroke-linecap:round;stroke-linejoin:round;stroke-miterlimit:10;stroke-dasharray:1;}
	.st122{fill:#EAEAEA;stroke:#FFFFFF;stroke-width:0.25;stroke-miterlimit:10;}
	.st123{fill:#D8D8D8;}
	.st124{fill:#282828;stroke:#000000;stroke-width:0.75;stroke-miterlimit:10;}
	.st125{opacity:0.33;fill:#FFFFFF;}
	.st126{fill:none;stroke:#000000;stroke-width:1.5;stroke-linecap:round;stroke-linejoin:round;stroke-miterlimit:10;}
	.st127{opacity:0.64;}
	.st128{fill:#C9C9C9;}
	.st129{fill:#FFF064;}
	.st130{fill:#4F4E4F;}
	.st131{fill:#1E2F47;}
	.st132{opacity:0.1;fill:#FFFFFF;}
	.st133{opacity:0.1;}
	.st134{opacity:0.4;fill:#FFFFFF;}
	.st135{fill-rule:evenodd;clip-rule:evenodd;fill:#F39C12;}
	.st136{fill-rule:evenodd;clip-rule:evenodd;fill:#E6E6E6;}
	.st137{fill-rule:evenodd;clip-rule:evenodd;fill:#474646;}
	.st138{fill-rule:evenodd;clip-rule:evenodd;fill:#D84848;}
	.st139{opacity:0.2;fill-rule:evenodd;clip-rule:evenodd;fill:#231F20;}
	.st140{opacity:0.1;fill-rule:evenodd;clip-rule:evenodd;fill:#231F20;}
	.st141{fill-rule:evenodd;clip-rule:evenodd;fill:#4D4D4D;}
	.st142{fill-rule:evenodd;clip-rule:evenodd;fill:#336699;}
	.st143{fill-rule:evenodd;clip-rule:evenodd;fill:#FF6633;}
	.st144{fill-rule:evenodd;clip-rule:evenodd;fill:#0056A3;}
	.st145{fill-rule:evenodd;clip-rule:evenodd;fill:#33CC99;}
	.st146{fill:#CE6405;}
	.st147{opacity:0.2;fill:#FFFFFF;}
	.st148{fill:#1ABC9C;}
	.st149{opacity:0.2;}
	.st150{fill:#0B2E44;}
	.st151{fill-rule:evenodd;clip-rule:evenodd;fill:#154F77;}
	.st152{fill-rule:evenodd;clip-rule:evenodd;fill:#0D3858;}
	.st153{fill-rule:evenodd;clip-rule:evenodd;fill:#FFFEFE;}
	.st154{fill:#AEC647;}
	.st155{fill:#F3AE1B;}
	.st156{fill:#DF3F11;}
	.st157{fill:#BCDEDE;}
	.st158{fill:#C84119;}
	.st159{fill:#6BB5CE;}
	.st160{fill:#00D0E5;}
	.st161{fill:#FF81ED;}
	.st162{fill:#00C982;}
	.st163{opacity:0.7;}
	.st164{opacity:0.4;}
	.st165{fill-rule:evenodd;clip-rule:evenodd;fill:#0B2E44;}
	.st166{opacity:0.8;fill-rule:evenodd;clip-rule:evenodd;fill:#FFFFFF;}
	.st167{fill:#424242;}
	.st168{opacity:0.2;fill-rule:evenodd;clip-rule:evenodd;fill:#FFFFFF;}
	.st169{fill:#D0EDFA;}
	.st170{fill:#FF651F;}
	.st171{fill:#0051C4;}
	.st172{fill:#E46400;}
	.st173{fill:#C0003B;}
	.st174{fill:#FFEA50;}
	.st175{fill:#FF2C0D;}
	.st176{fill:#FF1A2C;}
	.st177{fill:#FF2C4D;}
	.st178{fill:#FFD74C;}
	.st179{fill:#4C4C4B;}
	.st180{fill:#6CD2EA;}
	.st181{fill:#F7674F;}
	.st182{opacity:0.1;fill-rule:evenodd;clip-rule:evenodd;}
	.st183{fill:#BABABA;}
	.st184{fill:#F9B946;}
	.st185{fill:#4D4789;}
	.st186{fill:#DFC2A9;}
	.st187{fill:#BFA490;}
	.st188{fill:#F5D4B2;}
	.st189{fill:#DF584C;}
	.st190{fill:#C2443E;}
	.st191{fill:#DBDBDA;}
	.st192{fill:#2F363E;}
	.st193{fill:#332524;}
	.st194{fill:#473735;}
	.st195{opacity:0.25;clip-path:url(#XMLID_3806_);}
	.st196{fill:#153847;}
	.st197{fill:#52B8BA;}
	.st198{fill:#35373E;}
	.st199{opacity:0.25;clip-path:url(#XMLID_3807_);}
	.st200{opacity:0.31;fill:#34383A;}
	.st201{opacity:0.16;fill:#3D3835;}
	.st202{fill:#D0D1D4;}
	.st203{opacity:0.31;}
	.st204{fill:#34383A;}
	.st205{opacity:0.16;}
	.st206{fill:#3D3835;}
	.st207{opacity:0.25;clip-path:url(#XMLID_3808_);}
	.st208{fill:#F9E1B4;}
	.st209{opacity:0.25;fill:#050505;}
	.st210{fill:#FCC60F;}
	.st211{fill:#74CAEA;}
	.st212{fill:#050505;}
	.st213{opacity:0.25;clip-path:url(#XMLID_3809_);}
	.st214{fill:#FABC8F;}
	.st215{fill:#3FA995;}
	.st216{opacity:0.17;fill:#020202;}
	.st217{fill:#E1E1E1;}
	.st218{opacity:0.17;}
	.st219{fill:#020202;}
	.st220{opacity:0.25;clip-path:url(#XMLID_3810_);}
	.st221{fill:#BF8E00;}
	.st222{fill:#F7D8D7;}
	.st223{fill:#F18636;}
	.st224{fill:#004460;}
	.st225{fill:#D93A37;}
	.st226{fill:#EDEDED;}
	.st227{fill:#184F78;}
	.st228{fill:#FF3E03;}
	.st229{opacity:0.6;fill:#0F0F0F;}
	.st230{fill:#E8E8E6;}
	.st231{fill:#00EAA6;}
	.st232{fill-rule:evenodd;clip-rule:evenodd;fill:#FF3E03;}
	.st233{opacity:0.1;fill-rule:evenodd;clip-rule:evenodd;fill:#020202;}
	.st234{fill-rule:evenodd;clip-rule:evenodd;fill:#FABE00;}
	.st235{fill-rule:evenodd;clip-rule:evenodd;fill:#E6E8E8;}
	.st236{fill-rule:evenodd;clip-rule:evenodd;fill:#F7D959;}
	.st237{fill-rule:evenodd;clip-rule:evenodd;fill:#F9623E;}
	.st238{fill:#4F1A0F;}
	.st239{opacity:0.46;fill:#FFFFFF;}
	.st240{opacity:0.6;}
	.st241{fill:#0F0F0F;}
	.st242{opacity:0.46;}
	.st243{fill:#48505A;}
	.st244{fill:#C3C3C3;}
	.st245{fill:#E9E9EA;}
	.st246{fill:#9D9E9F;}
	.st247{fill:#F6F4F4;}
	.st248{fill:#6B6A6A;}
	.st249{fill:#C09478;}
	.st250{fill:#F7CDA0;}
	.st251{fill:#9E1010;}
	.st252{fill:#F2F2F2;}
	.st253{opacity:0.2;fill:#060606;}
	.st254{fill:#16AFBE;}
	.st255{fill:#DD2222;}
	.st256{fill:#FFEDDC;}
	.st257{fill:#22272B;}
	.st258{fill:#5B6375;}
	.st259{fill:#060606;}
</style>
<g>
	<g>
		<path class="st185" d="M11.7109,18.4424c-0.2686,0.625-0.6367,1.1719-1.1055,1.6406s-1.0156,0.8369-1.6406,1.1055
			s-1.2949,0.4033-2.0078,0.4033H5.4629c-0.7129,0-1.3838-0.1348-2.0137-0.4033s-1.1797-0.6367-1.6484-1.1055
			s-0.8369-1.0156-1.1055-1.6406S0.293,17.1484,0.293,16.4355V5.1563c0-0.7129,0.1338-1.3818,0.4023-2.0068
			S1.332,1.9775,1.8008,1.5088s1.0186-0.8379,1.6484-1.1064S4.75,0,5.4629,0H6.957c0.7129,0,1.3828,0.1338,2.0078,0.4023
			s1.1719,0.6377,1.6406,1.1064s0.8369,1.0156,1.1055,1.6406s0.4023,1.2939,0.4023,2.0068v0.8496l-1.8887,0.293V5.1563
			c0-0.4688-0.0879-0.9063-0.2637-1.3115s-0.416-0.7588-0.7188-1.0615s-0.6563-0.542-1.0615-0.7178S7.3379,1.8018,6.8691,1.8018
			H5.5508c-0.4688,0-0.9053,0.0879-1.3105,0.2637s-0.7617,0.415-1.0693,0.7178S2.6211,3.4395,2.4453,3.8447
			S2.1816,4.6875,2.1816,5.1563v11.2793c0,0.4688,0.0879,0.9053,0.2637,1.3105s0.418,0.7617,0.7256,1.0693
			s0.6641,0.5498,1.0693,0.7256s0.8418,0.2637,1.3105,0.2637h1.3184c0.4688,0,0.9063-0.0879,1.3115-0.2637
			s0.7588-0.418,1.0615-0.7256s0.543-0.6641,0.7188-1.0693s0.2637-0.8418,0.2637-1.3105V15.293l1.8887,0.3076v0.835
			C12.1133,17.1484,11.9795,17.8174,11.7109,18.4424z"/>
	</g>
	<g>
		<path class="st185" d="M16.3184,21.2988V0.293h1.8008v21.0059H16.3184z"/>
	</g>
	<g>
		<path class="st185" d="M22.7773,2.6953V0.293h2.0957v2.4023H22.7773z M22.9238,21.2988v-15h1.8027v15H22.9238z"/>
	</g>
	<g>
		<path class="st185" d="M38.6055,18.8965c-0.2295,0.5371-0.5449,1.0059-0.9453,1.4063s-0.8691,0.7148-1.4063,0.9443
			s-1.1074,0.3447-1.7129,0.3447h-1.2012c-0.6055,0-1.1777-0.1152-1.7148-0.3447s-1.0059-0.5439-1.4063-0.9443
			s-0.7148-0.8691-0.9443-1.4063s-0.3447-1.1084-0.3447-1.7139V10.415c0-0.6055,0.1152-1.1768,0.3447-1.7139
			s0.5439-1.0059,0.9443-1.4063s0.8691-0.7158,1.4063-0.9453s1.1094-0.3438,1.7148-0.3438h1.2012
			c0.6055,0,1.1758,0.1143,1.7129,0.3438s1.0059,0.5449,1.4063,0.9453s0.7158,0.8691,0.9453,1.4063s0.3438,1.1084,0.3438,1.7139
			v3.5303h-8.2168v3.3398c0,0.3613,0.0684,0.7002,0.2051,1.0176s0.3223,0.5938,0.5566,0.8281s0.5098,0.4199,0.8271,0.5566
			s0.6572,0.2051,1.0186,0.2051h1.2012c0.3613,0,0.7002-0.0684,1.0176-0.2051s0.5938-0.3223,0.8281-0.5566
			s0.4199-0.5107,0.5566-0.8281s0.2051-0.6563,0.2051-1.0176v-0.9961l1.8008,0.293v0.6006
			C38.9492,17.7881,38.835,18.3594,38.6055,18.8965z M37.1484,10.3125c0-0.3613-0.0684-0.7012-0.2051-1.0186
			s-0.3223-0.5928-0.5566-0.8271s-0.5107-0.4199-0.8281-0.5566s-0.6563-0.2051-1.0176-0.2051h-1.2012
			c-0.3613,0-0.7012,0.0684-1.0186,0.2051s-0.5928,0.3223-0.8271,0.5566s-0.4199,0.5098-0.5566,0.8271s-0.2051,0.6572-0.2051,1.0186
			v2.2266h6.416V10.3125z"/>
	</g>
	<g>
		<path class="st185" d="M50.7715,21.2988V10.3125c0-0.3613-0.0684-0.7012-0.2051-1.0186s-0.3223-0.5928-0.5566-0.8271
			s-0.5107-0.4199-0.8281-0.5566s-0.6563-0.2051-1.0176-0.2051h-1.2012c-0.3613,0-0.7012,0.0684-1.0186,0.2051
			s-0.5928,0.3223-0.8271,0.5566s-0.4199,0.5098-0.5566,0.8271s-0.2051,0.6572-0.2051,1.0186v10.9863h-1.8027v-15h0.6016
			l0.9805,1.5234c0.4102-0.5566,0.9258-0.999,1.5459-1.3262s1.2959-0.4902,2.0283-0.4902h0.4551
			c0.6055,0,1.1758,0.1143,1.7129,0.3438s1.0059,0.5449,1.4063,0.9453s0.7158,0.8691,0.9453,1.4063s0.3438,1.1084,0.3438,1.7139
			v10.8838H50.7715z"/>
	</g>
	<g>
		<path class="st185" d="M61.6406,21.2988c-0.5469,0-1.0625-0.1025-1.5459-0.3076s-0.9033-0.4883-1.2598-0.8496
			s-0.6396-0.7813-0.8496-1.2598s-0.3154-0.9912-0.3154-1.5381V8.0127h-2.6953V6.2988h2.6953V2.6953l1.8027-0.293v3.8965h3.8086
			v1.7139h-3.8086v9.4189c0,0.3027,0.0557,0.583,0.168,0.8418s0.2656,0.4863,0.4609,0.6816s0.4258,0.3486,0.6895,0.4609
			s0.5469,0.1689,0.8496,0.1689h1.6406v1.7139H61.6406z"/>
	</g>
	<g>
		<path class="st185" d="M76.2666,18.8965c-0.2295,0.5371-0.5439,1.0059-0.9443,1.4063s-0.8691,0.7148-1.4063,0.9443
			s-1.1094,0.3447-1.7148,0.3447H71c-0.6055,0-1.1758-0.1152-1.7129-0.3447s-1.0059-0.5439-1.4063-0.9443
			s-0.7158-0.8691-0.9453-1.4063s-0.3438-1.1084-0.3438-1.7139V10.415c0-0.6055,0.1143-1.1768,0.3438-1.7139
			s0.5449-1.0059,0.9453-1.4063s0.8691-0.7158,1.4063-0.9453S70.3945,6.0059,71,6.0059h1.2012c0.6055,0,1.1777,0.1143,1.7148,0.3438
			s1.0059,0.5449,1.4063,0.9453s0.7148,0.8691,0.9443,1.4063s0.3447,1.1084,0.3447,1.7139v3.5303h-8.2188v3.3398
			c0,0.3613,0.0684,0.7002,0.2051,1.0176s0.3223,0.5938,0.5566,0.8281s0.5107,0.4199,0.8281,0.5566S70.6387,19.8926,71,19.8926
			h1.2012c0.3613,0,0.7012-0.0684,1.0186-0.2051s0.5928-0.3223,0.8271-0.5566s0.4199-0.5107,0.5566-0.8281
			s0.2051-0.6563,0.2051-1.0176v-0.9961l1.8027,0.293v0.6006C76.6113,17.7881,76.4961,18.3594,76.2666,18.8965z M74.8086,10.3125
			c0-0.3613-0.0684-0.7012-0.2051-1.0186s-0.3223-0.5928-0.5566-0.8271s-0.5098-0.4199-0.8271-0.5566s-0.6572-0.2051-1.0186-0.2051
			H71c-0.3613,0-0.7002,0.0684-1.0176,0.2051s-0.5938,0.3223-0.8281,0.5566s-0.4199,0.5098-0.5566,0.8271
			s-0.2051,0.6572-0.2051,1.0186v2.2266h6.416V10.3125z"/>
	</g>
	<g>
		<path class="st185" d="M89.5449,27.3047h-1.7422l2.666-7.2949L85.6055,6.2988h1.8008l3.9121,11.3672l0.0586,0.7764l0.0586-0.7764
			L95.332,6.2988h1.8008L89.5449,27.3047z"/>
	</g>
	<g>
		<path class="st185" d="M115.5098,18.8965c-0.2295,0.5371-0.5449,1.0059-0.9453,1.4063s-0.8691,0.7148-1.4063,0.9443
			s-1.1074,0.3447-1.7129,0.3447h-0.4551c-0.6738,0-1.2988-0.1367-1.875-0.4102s-1.0684-0.6543-1.4785-1.1426v7.2656h-1.8027V6.2988
			h0.6016l0.9805,1.5234c0.4102-0.5566,0.9258-0.999,1.5459-1.3262s1.2959-0.4902,2.0283-0.4902h0.4551
			c0.6055,0,1.1758,0.1143,1.7129,0.3438s1.0059,0.5449,1.4063,0.9453s0.7158,0.8691,0.9453,1.4063s0.3438,1.1084,0.3438,1.7139
			v6.7676C115.8535,17.7881,115.7393,18.3594,115.5098,18.8965z M114.0527,10.3125c0-0.3613-0.0684-0.7012-0.2051-1.0186
			s-0.3223-0.5928-0.5566-0.8271s-0.5107-0.4199-0.8281-0.5566s-0.6563-0.2051-1.0176-0.2051h-1.2012
			c-0.3613,0-0.7012,0.0684-1.0186,0.2051s-0.5928,0.3223-0.8271,0.5566s-0.4199,0.5098-0.5566,0.8271s-0.2051,0.6572-0.2051,1.0186
			v6.9727c0,0.3613,0.0684,0.7002,0.2051,1.0176s0.3223,0.5938,0.5566,0.8281s0.5098,0.4199,0.8271,0.5566
			s0.6572,0.2051,1.0186,0.2051h1.2012c0.3613,0,0.7002-0.0684,1.0176-0.2051s0.5938-0.3223,0.8281-0.5566
			s0.4199-0.5107,0.5566-0.8281s0.2051-0.6563,0.2051-1.0176V10.3125z"/>
	</g>
	<g>
		<path class="st185" d="M129.1328,18.8965c-0.2295,0.5371-0.5449,1.0059-0.9453,1.4063s-0.8691,0.7148-1.4063,0.9443
			s-1.1074,0.3447-1.7129,0.3447h-1.2012c-0.6055,0-1.1777-0.1152-1.7148-0.3447s-1.0059-0.5439-1.4063-0.9443
			s-0.7148-0.8691-0.9443-1.4063s-0.3447-1.1084-0.3447-1.7139V10.415c0-0.6055,0.1152-1.1768,0.3447-1.7139
			s0.5439-1.0059,0.9443-1.4063s0.8691-0.7158,1.4063-0.9453s1.1094-0.3438,1.7148-0.3438h1.2012
			c0.6055,0,1.1758,0.1143,1.7129,0.3438s1.0059,0.5449,1.4063,0.9453s0.7158,0.8691,0.9453,1.4063s0.3438,1.1084,0.3438,1.7139
			v6.7676C129.4766,17.7881,129.3623,18.3594,129.1328,18.8965z M127.6758,10.3125c0-0.3613-0.0684-0.7012-0.2051-1.0186
			s-0.3223-0.5928-0.5566-0.8271s-0.5107-0.4199-0.8281-0.5566s-0.6563-0.2051-1.0176-0.2051h-1.2012
			c-0.3613,0-0.7012,0.0684-1.0186,0.2051s-0.5928,0.3223-0.8271,0.5566s-0.4199,0.5098-0.5566,0.8271s-0.2051,0.6572-0.2051,1.0186
			v6.9727c0,0.3613,0.0684,0.7002,0.2051,1.0176s0.3223,0.5938,0.5566,0.8281s0.5098,0.4199,0.8271,0.5566
			s0.6572,0.2051,1.0186,0.2051h1.2012c0.3613,0,0.7002-0.0684,1.0176-0.2051s0.5938-0.3223,0.8281-0.5566
			s0.4199-0.5107,0.5566-0.8281s0.2051-0.6563,0.2051-1.0176V10.3125z"/>
	</g>
	<g>
		<path class="st185" d="M142.7559,18.8965c-0.2295,0.5371-0.5449,1.0059-0.9453,1.4063s-0.8691,0.7148-1.4063,0.9443
			s-1.1074,0.3447-1.7129,0.3447h-1.2012c-0.6055,0-1.1777-0.1152-1.7148-0.3447s-1.0059-0.5439-1.4063-0.9443
			s-0.7148-0.8691-0.9443-1.4063s-0.3447-1.1084-0.3447-1.7139V0.293h1.8027v7.2656c0.4102-0.4883,0.9023-0.8691,1.4785-1.1426
			s1.2012-0.4102,1.875-0.4102h0.4551c0.6055,0,1.1758,0.1143,1.7129,0.3438s1.0059,0.5449,1.4063,0.9453
			s0.7158,0.8691,0.9453,1.4063s0.3438,1.1084,0.3438,1.7139v6.7676C143.0996,17.7881,142.9854,18.3594,142.7559,18.8965z
			 M141.2988,10.3125c0-0.3613-0.0684-0.7012-0.2051-1.0186s-0.3223-0.5928-0.5566-0.8271s-0.5107-0.4199-0.8281-0.5566
			s-0.6563-0.2051-1.0176-0.2051h-1.2012c-0.3613,0-0.7012,0.0684-1.0186,0.2051s-0.5928,0.3223-0.8271,0.5566
			s-0.4199,0.5098-0.5566,0.8271s-0.2051,0.6572-0.2051,1.0186v6.9727c0,0.3613,0.0684,0.7002,0.2051,1.0176
			s0.3223,0.5938,0.5566,0.8281s0.5098,0.4199,0.8271,0.5566s0.6572,0.2051,1.0186,0.2051h1.2012
			c0.3613,0,0.7002-0.0684,1.0176-0.2051s0.5938-0.3223,0.8281-0.5566s0.4199-0.5107,0.5566-0.8281s0.2051-0.6563,0.2051-1.0176
			V10.3125z"/>
	</g>
	<g>
		<path class="st185" d="M147.0117,21.2988V0.293h1.8008v21.0059H147.0117z"/>
	</g>
	<g>
		<path class="st185" d="M162.4355,21.2988l-0.9961-1.4941c-0.4102,0.5371-0.9219,0.9688-1.5371,1.2959
			s-1.2891,0.4912-2.0215,0.4912h-0.4551c-0.6055,0-1.1758-0.1152-1.7129-0.3447s-1.0059-0.5439-1.4063-0.9443
			s-0.7158-0.8691-0.9453-1.4063s-0.3438-1.1084-0.3438-1.7139v-0.1465c0-0.6055,0.1143-1.1768,0.3438-1.7139
			s0.5449-1.0059,0.9453-1.4063s0.8691-0.7158,1.4063-0.9453s1.1074-0.3438,1.7129-0.3438h3.8086v-2.3145
			c0-0.3613-0.0684-0.7012-0.2051-1.0186s-0.3223-0.5928-0.5566-0.8271s-0.5098-0.4199-0.8271-0.5566s-0.6572-0.2051-1.0186-0.2051
			h-1.0547c-0.3613,0-0.7002,0.0684-1.0176,0.2051s-0.5938,0.3223-0.8281,0.5566s-0.4199,0.5098-0.5566,0.8271
			s-0.2051,0.6572-0.2051,1.0186v0.542l-1.8008-0.293V10.415c0-0.6055,0.1143-1.1768,0.3438-1.7139s0.5449-1.0059,0.9453-1.4063
			s0.8691-0.7158,1.4063-0.9453s1.1074-0.3438,1.7129-0.3438h1.0547c0.6055,0,1.1777,0.1143,1.7148,0.3438
			s1.0059,0.5449,1.4063,0.9453s0.7148,0.8691,0.9443,1.4063s0.3447,1.1084,0.3447,1.7139v10.8838H162.4355z M161.2344,14.0332
			h-3.8086c-0.3613,0-0.7002,0.0684-1.0176,0.2051s-0.5938,0.3242-0.8281,0.5635s-0.4199,0.5176-0.5566,0.835
			s-0.2051,0.6572-0.2051,1.0186v0.6299c0,0.3613,0.0684,0.7002,0.2051,1.0176s0.3223,0.5938,0.5566,0.8281
			s0.5107,0.4199,0.8281,0.5566s0.6563,0.2051,1.0176,0.2051h1.2012c0.3613,0,0.7012-0.0684,1.0186-0.2051
			s0.5928-0.3223,0.8271-0.5566s0.4199-0.5107,0.5566-0.8281s0.2051-0.6563,0.2051-1.0176V14.0332z"/>
	</g>
	<g>
		<path class="st185" d="M176.3154,18.8965c-0.2295,0.5371-0.5439,1.0059-0.9443,1.4063s-0.8691,0.7148-1.4063,0.9443
			s-1.1094,0.3447-1.7148,0.3447h-1.2012c-0.6055,0-1.1758-0.1152-1.7129-0.3447s-1.0059-0.5439-1.4063-0.9443
			s-0.7158-0.8691-0.9453-1.4063s-0.3438-1.1084-0.3438-1.7139V10.415c0-0.6055,0.1143-1.1768,0.3438-1.7139
			s0.5449-1.0059,0.9453-1.4063s0.8691-0.7158,1.4063-0.9453s1.1074-0.3438,1.7129-0.3438h1.2012
			c0.6055,0,1.1777,0.1143,1.7148,0.3438s1.0059,0.5449,1.4063,0.9453s0.7148,0.8691,0.9443,1.4063s0.3447,1.1084,0.3447,1.7139
			v0.6006l-1.8027,0.293v-0.9961c0-0.3613-0.0684-0.7012-0.2051-1.0186s-0.3223-0.5928-0.5566-0.8271s-0.5098-0.4199-0.8271-0.5566
			s-0.6572-0.2051-1.0186-0.2051h-1.2012c-0.3613,0-0.7002,0.0684-1.0176,0.2051s-0.5938,0.3223-0.8281,0.5566
			s-0.4199,0.5098-0.5566,0.8271s-0.2051,0.6572-0.2051,1.0186v6.9727c0,0.3613,0.0684,0.7002,0.2051,1.0176
			s0.3223,0.5938,0.5566,0.8281s0.5107,0.4199,0.8281,0.5566s0.6563,0.2051,1.0176,0.2051h1.2012
			c0.3613,0,0.7012-0.0684,1.0186-0.2051s0.5928-0.3223,0.8271-0.5566s0.4199-0.5107,0.5566-0.8281s0.2051-0.6563,0.2051-1.0176
			v-0.9961l1.8027,0.293v0.6006C176.6602,17.7881,176.5449,18.3594,176.3154,18.8965z"/>
	</g>
	<g>
		<path class="st185" d="M180.7168,2.6953V0.293h2.0957v2.4023H180.7168z M180.8633,21.2988v-15h1.8027v15H180.8633z"/>
	</g>
	<g>
		<path class="st185" d="M196.5449,18.8965c-0.2295,0.5371-0.5449,1.0059-0.9453,1.4063s-0.8691,0.7148-1.4063,0.9443
			s-1.1074,0.3447-1.7129,0.3447h-1.2012c-0.6055,0-1.1777-0.1152-1.7148-0.3447s-1.0059-0.5439-1.4063-0.9443
			s-0.7148-0.8691-0.9443-1.4063s-0.3447-1.1084-0.3447-1.7139V10.415c0-0.6055,0.1152-1.1768,0.3447-1.7139
			s0.5439-1.0059,0.9443-1.4063s0.8691-0.7158,1.4063-0.9453s1.1094-0.3438,1.7148-0.3438h1.2012
			c0.6055,0,1.1758,0.1143,1.7129,0.3438s1.0059,0.5449,1.4063,0.9453s0.7158,0.8691,0.9453,1.4063s0.3438,1.1084,0.3438,1.7139
			v6.7676C196.8887,17.7881,196.7744,18.3594,196.5449,18.8965z M195.0879,10.3125c0-0.3613-0.0684-0.7012-0.2051-1.0186
			s-0.3223-0.5928-0.5566-0.8271s-0.5107-0.4199-0.8281-0.5566s-0.6563-0.2051-1.0176-0.2051h-1.2012
			c-0.3613,0-0.7012,0.0684-1.0186,0.2051s-0.5928,0.3223-0.8271,0.5566s-0.4199,0.5098-0.5566,0.8271s-0.2051,0.6572-0.2051,1.0186
			v6.9727c0,0.3613,0.0684,0.7002,0.2051,1.0176s0.3223,0.5938,0.5566,0.8281s0.5098,0.4199,0.8271,0.5566
			s0.6572,0.2051,1.0186,0.2051h1.2012c0.3613,0,0.7002-0.0684,1.0176-0.2051s0.5938-0.3223,0.8281-0.5566
			s0.4199-0.5107,0.5566-0.8281s0.2051-0.6563,0.2051-1.0176V10.3125z M191.1328,3.8965h-1.3477l2.3867-3.6035h3.0039
			L191.1328,3.8965z"/>
	</g>
	<g>
		<path class="st185" d="M208.7109,21.2988V10.3125c0-0.3613-0.0684-0.7012-0.2051-1.0186s-0.3223-0.5928-0.5566-0.8271
			s-0.5107-0.4199-0.8281-0.5566s-0.6563-0.2051-1.0176-0.2051h-1.2012c-0.3613,0-0.7012,0.0684-1.0186,0.2051
			s-0.5928,0.3223-0.8271,0.5566s-0.4199,0.5098-0.5566,0.8271s-0.2051,0.6572-0.2051,1.0186v10.9863h-1.8027v-15h0.6016
			l0.9805,1.5234c0.4102-0.5566,0.9258-0.999,1.5459-1.3262s1.2959-0.4902,2.0283-0.4902h0.4551
			c0.6055,0,1.1758,0.1143,1.7129,0.3438s1.0059,0.5449,1.4063,0.9453s0.7158,0.8691,0.9453,1.4063s0.3438,1.1084,0.3438,1.7139
			v10.8838H208.7109z"/>
	</g>
	<g>
		<path class="st185" d="M230.6904,18.8965c-0.2295,0.5371-0.5439,1.0059-0.9443,1.4063s-0.8691,0.7148-1.4063,0.9443
			s-1.1094,0.3447-1.7148,0.3447h-1.2012c-0.6055,0-1.1758-0.1152-1.7129-0.3447s-1.0059-0.5439-1.4063-0.9443
			s-0.7158-0.8691-0.9453-1.4063s-0.3438-1.1084-0.3438-1.7139V10.415c0-0.6055,0.1143-1.1768,0.3438-1.7139
			s0.5449-1.0059,0.9453-1.4063s0.8691-0.7158,1.4063-0.9453s1.1074-0.3438,1.7129-0.3438h1.2012
			c0.6055,0,1.1777,0.1143,1.7148,0.3438s1.0059,0.5449,1.4063,0.9453s0.7148,0.8691,0.9443,1.4063s0.3447,1.1084,0.3447,1.7139
			v6.7676C231.0352,17.7881,230.9199,18.3594,230.6904,18.8965z M229.2324,10.3125c0-0.3613-0.0684-0.7012-0.2051-1.0186
			s-0.3223-0.5928-0.5566-0.8271s-0.5098-0.4199-0.8271-0.5566s-0.6572-0.2051-1.0186-0.2051h-1.2012
			c-0.3613,0-0.7002,0.0684-1.0176,0.2051s-0.5938,0.3223-0.8281,0.5566s-0.4199,0.5098-0.5566,0.8271s-0.2051,0.6572-0.2051,1.0186
			v6.9727c0,0.3613,0.0684,0.7002,0.2051,1.0176s0.3223,0.5938,0.5566,0.8281s0.5107,0.4199,0.8281,0.5566
			s0.6563,0.2051,1.0176,0.2051h1.2012c0.3613,0,0.7012-0.0684,1.0186-0.2051s0.5928-0.3223,0.8271-0.5566
			s0.4199-0.5107,0.5566-0.8281s0.2051-0.6563,0.2051-1.0176V10.3125z"/>
	</g>
	<g>
		<path class="st185" d="M244.3135,18.8965c-0.2295,0.5371-0.5439,1.0059-0.9443,1.4063s-0.8691,0.7148-1.4063,0.9443
			s-1.1094,0.3447-1.7148,0.3447h-1.2012c-0.6055,0-1.1758-0.1152-1.7129-0.3447s-1.0059-0.5439-1.4063-0.9443
			s-0.7158-0.8691-0.9453-1.4063s-0.3438-1.1084-0.3438-1.7139V0.293h1.8008v7.2656c0.4102-0.4883,0.9043-0.8691,1.4805-1.1426
			s1.2012-0.4102,1.875-0.4102h0.4531c0.6055,0,1.1777,0.1143,1.7148,0.3438s1.0059,0.5449,1.4063,0.9453
			s0.7148,0.8691,0.9443,1.4063s0.3447,1.1084,0.3447,1.7139v6.7676C244.6582,17.7881,244.543,18.3594,244.3135,18.8965z
			 M242.8555,10.3125c0-0.3613-0.0684-0.7012-0.2051-1.0186s-0.3223-0.5928-0.5566-0.8271s-0.5098-0.4199-0.8271-0.5566
			s-0.6572-0.2051-1.0186-0.2051h-1.2012c-0.3613,0-0.7002,0.0684-1.0176,0.2051s-0.5938,0.3223-0.8281,0.5566
			s-0.4199,0.5098-0.5566,0.8271s-0.2051,0.6572-0.2051,1.0186v6.9727c0,0.3613,0.0684,0.7002,0.2051,1.0176
			s0.3223,0.5938,0.5566,0.8281s0.5107,0.4199,0.8281,0.5566s0.6563,0.2051,1.0176,0.2051h1.2012
			c0.3613,0,0.7012-0.0684,1.0186-0.2051s0.5928-0.3223,0.8271-0.5566s0.4199-0.5107,0.5566-0.8281s0.2051-0.6563,0.2051-1.0176
			V10.3125z"/>
	</g>
	<g>
		<path class="st185" d="M250.3193,24.6016c-0.2295,0.5322-0.5439,0.999-0.9443,1.3994s-0.8691,0.7178-1.4063,0.9521
			s-1.1094,0.3516-1.7148,0.3516v-1.7139c0.3613,0,0.7012-0.0684,1.0186-0.2051s0.5928-0.3223,0.8271-0.5566
			s0.4199-0.5107,0.5566-0.8281s0.2051-0.6563,0.2051-1.0176V6.2988h1.8027v16.5967
			C250.6641,23.501,250.5488,24.0693,250.3193,24.6016z M248.7148,2.6953V0.293h2.0957v2.4023H248.7148z"/>
	</g>
	<g>
		<path class="st185" d="M264.543,18.8965c-0.2295,0.5371-0.5449,1.0059-0.9453,1.4063s-0.8691,0.7148-1.4063,0.9443
			s-1.1074,0.3447-1.7129,0.3447h-1.2012c-0.6055,0-1.1777-0.1152-1.7148-0.3447s-1.0059-0.5439-1.4063-0.9443
			s-0.7148-0.8691-0.9443-1.4063s-0.3447-1.1084-0.3447-1.7139V10.415c0-0.6055,0.1152-1.1768,0.3447-1.7139
			s0.5439-1.0059,0.9443-1.4063s0.8691-0.7158,1.4063-0.9453s1.1094-0.3438,1.7148-0.3438h1.2012
			c0.6055,0,1.1758,0.1143,1.7129,0.3438s1.0059,0.5449,1.4063,0.9453s0.7158,0.8691,0.9453,1.4063s0.3438,1.1084,0.3438,1.7139
			v3.5303h-8.2168v3.3398c0,0.3613,0.0684,0.7002,0.2051,1.0176s0.3223,0.5938,0.5566,0.8281s0.5098,0.4199,0.8271,0.5566
			s0.6572,0.2051,1.0186,0.2051h1.2012c0.3613,0,0.7002-0.0684,1.0176-0.2051s0.5938-0.3223,0.8281-0.5566
			s0.4199-0.5107,0.5566-0.8281s0.2051-0.6563,0.2051-1.0176v-0.9961l1.8008,0.293v0.6006
			C264.8867,17.7881,264.7725,18.3594,264.543,18.8965z M263.0859,10.3125c0-0.3613-0.0684-0.7012-0.2051-1.0186
			s-0.3223-0.5928-0.5566-0.8271s-0.5107-0.4199-0.8281-0.5566s-0.6563-0.2051-1.0176-0.2051h-1.2012
			c-0.3613,0-0.7012,0.0684-1.0186,0.2051s-0.5928,0.3223-0.8271,0.5566s-0.4199,0.5098-0.5566,0.8271s-0.2051,0.6572-0.2051,1.0186
			v2.2266h6.416V10.3125z"/>
	</g>
	<g>
		<path class="st185" d="M273.9551,21.2988c-0.5469,0-1.0625-0.1025-1.5459-0.3076s-0.9033-0.4883-1.2598-0.8496
			s-0.6396-0.7813-0.8496-1.2598s-0.3154-0.9912-0.3154-1.5381V8.0127h-2.6953V6.2988h2.6953V2.6953l1.8027-0.293v3.8965h3.8086
			v1.7139h-3.8086v9.4189c0,0.3027,0.0557,0.583,0.168,0.8418s0.2656,0.4863,0.4609,0.6816s0.4258,0.3486,0.6895,0.4609
			s0.5469,0.1689,0.8496,0.1689h1.6406v1.7139H273.9551z"/>
	</g>
	<g>
		<path class="st185" d="M288.5811,18.8965c-0.2295,0.5371-0.5439,1.0059-0.9443,1.4063s-0.8691,0.7148-1.4063,0.9443
			s-1.1094,0.3447-1.7148,0.3447h-1.2012c-0.6055,0-1.1758-0.1152-1.7129-0.3447s-1.0059-0.5439-1.4063-0.9443
			s-0.7158-0.8691-0.9453-1.4063s-0.3438-1.1084-0.3438-1.7139V10.415c0-0.6055,0.1143-1.1768,0.3438-1.7139
			s0.5449-1.0059,0.9453-1.4063s0.8691-0.7158,1.4063-0.9453s1.1074-0.3438,1.7129-0.3438h1.2012
			c0.6055,0,1.1777,0.1143,1.7148,0.3438s1.0059,0.5449,1.4063,0.9453s0.7148,0.8691,0.9443,1.4063s0.3447,1.1084,0.3447,1.7139
			v6.7676C288.9258,17.7881,288.8105,18.3594,288.5811,18.8965z M287.123,10.3125c0-0.3613-0.0684-0.7012-0.2051-1.0186
			s-0.3223-0.5928-0.5566-0.8271s-0.5098-0.4199-0.8271-0.5566s-0.6572-0.2051-1.0186-0.2051h-1.2012
			c-0.3613,0-0.7002,0.0684-1.0176,0.2051s-0.5938,0.3223-0.8281,0.5566s-0.4199,0.5098-0.5566,0.8271s-0.2051,0.6572-0.2051,1.0186
			v6.9727c0,0.3613,0.0684,0.7002,0.2051,1.0176s0.3223,0.5938,0.5566,0.8281s0.5107,0.4199,0.8281,0.5566
			s0.6563,0.2051,1.0176,0.2051h1.2012c0.3613,0,0.7012-0.0684,1.0186-0.2051s0.5928-0.3223,0.8271-0.5566
			s0.4199-0.5107,0.5566-0.8281s0.2051-0.6563,0.2051-1.0176V10.3125z"/>
	</g>
	<g>
		<path class="st185" d="M293.291,25.5029h-0.7617v-6.46h2.2559L293.291,25.5029z"/>
	</g>
	<g>
		<path class="st185" d="M9.418,49.2988l-0.9961-1.5234C8.0117,48.332,7.5,48.7734,6.8848,49.1006s-1.2891,0.4912-2.0215,0.4912
			H4.4082c-0.6055,0-1.1758-0.1152-1.7129-0.3447s-1.0059-0.5439-1.4063-0.9443s-0.7158-0.8691-0.9453-1.4063S0,45.7881,0,45.1826
			V34.2988h1.8008v10.9863c0,0.3613,0.0684,0.7002,0.2051,1.0176s0.3223,0.5938,0.5566,0.8281s0.5107,0.4199,0.8281,0.5566
			s0.6563,0.2051,1.0176,0.2051h1.2012c0.3613,0,0.7012-0.0684,1.0186-0.2051s0.5928-0.3223,0.8271-0.5566
			s0.4199-0.5107,0.5566-0.8281s0.2051-0.6563,0.2051-1.0176V34.2988h1.8027v15H9.418z"/>
	</g>
	<g>
		<path class="st185" d="M23.9355,45.4902c0,0.6055-0.123,1.1592-0.3672,1.6621s-0.5762,0.9355-0.9961,1.2969
			s-0.9053,0.6416-1.457,0.8418s-1.1309,0.3008-1.7363,0.3008h-1.2012c-0.6055,0-1.1836-0.1152-1.7354-0.3447
			s-1.0352-0.5439-1.4502-0.9443s-0.7471-0.8691-0.9961-1.4063s-0.373-1.1084-0.373-1.7139V44.582l1.8008-0.293v0.9961
			c0,0.3613,0.0762,0.7002,0.2275,1.0176s0.3545,0.5938,0.6084,0.8281s0.5469,0.4199,0.8789,0.5566s0.6777,0.2051,1.0391,0.2051
			h1.2012c0.3613,0,0.709-0.0537,1.041-0.1611s0.627-0.2617,0.8857-0.4619s0.4639-0.4414,0.6152-0.7246s0.2275-0.6055,0.2275-0.9668
			c0-0.5371-0.1172-0.9766-0.3516-1.3184s-0.5449-0.6279-0.9307-0.8574s-0.8252-0.4199-1.3184-0.5713s-0.999-0.3027-1.5166-0.4541
			s-1.0225-0.3242-1.5156-0.5195s-0.9326-0.4521-1.3184-0.7695s-0.6953-0.7148-0.9297-1.1934s-0.3516-1.0742-0.3516-1.7871
			c0-0.6055,0.1172-1.1602,0.3516-1.6631s0.5508-0.9346,0.9512-1.2959s0.8672-0.6426,1.3994-0.8428s1.1006-0.2998,1.7061-0.2998
			h1.0547c0.6055,0,1.1777,0.1143,1.7148,0.3438s1.0059,0.5449,1.4063,0.9453s0.7148,0.8691,0.9443,1.4063
			s0.3447,1.1084,0.3447,1.7139v0.0586l-1.8027,0.293v-0.4541c0-0.3613-0.0684-0.7012-0.2051-1.0186s-0.3223-0.5928-0.5566-0.8271
			s-0.5098-0.4199-0.8271-0.5566s-0.6572-0.2051-1.0186-0.2051h-1.0547c-0.3613,0-0.7002,0.0537-1.0176,0.1611
			s-0.5938,0.2607-0.8281,0.4609s-0.4199,0.4424-0.5566,0.7256s-0.2051,0.6055-0.2051,0.9668c0,0.5176,0.1172,0.9395,0.3516,1.2666
			s0.5449,0.6035,0.9307,0.8281s0.8252,0.4121,1.3184,0.5635s0.9961,0.3076,1.5088,0.4688s1.0156,0.3447,1.5088,0.5498
			s0.9326,0.4688,1.3184,0.791s0.6963,0.7246,0.9307,1.208S23.9355,44.7773,23.9355,45.4902z"/>
	</g>
	<g>
		<path class="st185" d="M36.8105,49.2988l-0.9961-1.5234c-0.4102,0.5566-0.9219,0.998-1.5371,1.3252s-1.2891,0.4912-2.0215,0.4912
			h-0.4551c-0.6055,0-1.1758-0.1152-1.7129-0.3447s-1.0059-0.5439-1.4063-0.9443s-0.7158-0.8691-0.9453-1.4063
			s-0.3438-1.1084-0.3438-1.7139V34.2988h1.8008v10.9863c0,0.3613,0.0684,0.7002,0.2051,1.0176s0.3223,0.5938,0.5566,0.8281
			s0.5107,0.4199,0.8281,0.5566s0.6563,0.2051,1.0176,0.2051h1.2012c0.3613,0,0.7012-0.0684,1.0186-0.2051
			s0.5928-0.3223,0.8271-0.5566s0.4199-0.5107,0.5566-0.8281s0.2051-0.6563,0.2051-1.0176V34.2988h1.8027v15H36.8105z"/>
	</g>
	<g>
		<path class="st185" d="M50.4336,49.2988l-0.9961-1.4941c-0.4102,0.5371-0.9219,0.9688-1.5371,1.2959s-1.2891,0.4912-2.0215,0.4912
			h-0.4551c-0.6055,0-1.1758-0.1152-1.7129-0.3447s-1.0059-0.5439-1.4063-0.9443s-0.7158-0.8691-0.9453-1.4063
			s-0.3438-1.1084-0.3438-1.7139v-0.1465c0-0.6055,0.1143-1.1768,0.3438-1.7139s0.5449-1.0059,0.9453-1.4063
			s0.8691-0.7158,1.4063-0.9453s1.1074-0.3438,1.7129-0.3438h3.8086v-2.3145c0-0.3613-0.0684-0.7012-0.2051-1.0186
			s-0.3223-0.5928-0.5566-0.8271s-0.5098-0.4199-0.8271-0.5566s-0.6572-0.2051-1.0186-0.2051h-1.0547
			c-0.3613,0-0.7002,0.0684-1.0176,0.2051s-0.5938,0.3223-0.8281,0.5566s-0.4199,0.5098-0.5566,0.8271s-0.2051,0.6572-0.2051,1.0186
			v0.542l-1.8008-0.293V38.415c0-0.6055,0.1143-1.1768,0.3438-1.7139s0.5449-1.0059,0.9453-1.4063s0.8691-0.7158,1.4063-0.9453
			s1.1074-0.3438,1.7129-0.3438h1.0547c0.6055,0,1.1777,0.1143,1.7148,0.3438s1.0059,0.5449,1.4063,0.9453
			s0.7148,0.8691,0.9443,1.4063s0.3447,1.1084,0.3447,1.7139v10.8838H50.4336z M49.2324,42.0332h-3.8086
			c-0.3613,0-0.7002,0.0684-1.0176,0.2051s-0.5938,0.3242-0.8281,0.5635s-0.4199,0.5176-0.5566,0.835s-0.2051,0.6572-0.2051,1.0186
			v0.6299c0,0.3613,0.0684,0.7002,0.2051,1.0176s0.3223,0.5938,0.5566,0.8281s0.5107,0.4199,0.8281,0.5566
			s0.6563,0.2051,1.0176,0.2051h1.2012c0.3613,0,0.7012-0.0684,1.0186-0.2051s0.5928-0.3223,0.8271-0.5566
			s0.4199-0.5107,0.5566-0.8281s0.2051-0.6563,0.2051-1.0176V42.0332z"/>
	</g>
	<g>
		<path class="st185" d="M59.0469,36.0127c-0.3613,0-0.7002,0.0684-1.0176,0.2051s-0.5938,0.3223-0.8281,0.5566
			s-0.4199,0.5098-0.5566,0.8271s-0.2051,0.6572-0.2051,1.0186v10.6787h-1.8008v-15h0.5996l0.9824,1.5234
			c0.4102-0.5566,0.9248-0.999,1.5449-1.3262s1.2969-0.4902,2.0293-0.4902h1.0547v2.0068H59.0469z"/>
	</g>
	<g>
		<path class="st185" d="M63.7051,30.6953V28.293h2.0957v2.4023H63.7051z M63.8516,49.2988v-15h1.8027v15H63.8516z"/>
	</g>
	<g>
		<path class="st185" d="M79.5332,46.8965c-0.2295,0.5371-0.5449,1.0059-0.9453,1.4063s-0.8691,0.7148-1.4063,0.9443
			s-1.1074,0.3447-1.7129,0.3447h-1.2012c-0.6055,0-1.1777-0.1152-1.7148-0.3447s-1.0059-0.5439-1.4063-0.9443
			s-0.7148-0.8691-0.9443-1.4063s-0.3447-1.1084-0.3447-1.7139V38.415c0-0.6055,0.1152-1.1768,0.3447-1.7139
			s0.5439-1.0059,0.9443-1.4063s0.8691-0.7158,1.4063-0.9453s1.1094-0.3438,1.7148-0.3438h1.2012
			c0.6055,0,1.1758,0.1143,1.7129,0.3438s1.0059,0.5449,1.4063,0.9453s0.7158,0.8691,0.9453,1.4063s0.3438,1.1084,0.3438,1.7139
			v6.7676C79.877,45.7881,79.7627,46.3594,79.5332,46.8965z M78.0762,38.3125c0-0.3613-0.0684-0.7012-0.2051-1.0186
			s-0.3223-0.5928-0.5566-0.8271s-0.5107-0.4199-0.8281-0.5566s-0.6563-0.2051-1.0176-0.2051h-1.2012
			c-0.3613,0-0.7012,0.0684-1.0186,0.2051s-0.5928,0.3223-0.8271,0.5566s-0.4199,0.5098-0.5566,0.8271s-0.2051,0.6572-0.2051,1.0186
			v6.9727c0,0.3613,0.0684,0.7002,0.2051,1.0176s0.3223,0.5938,0.5566,0.8281s0.5098,0.4199,0.8271,0.5566
			s0.6572,0.2051,1.0186,0.2051h1.2012c0.3613,0,0.7002-0.0684,1.0176-0.2051s0.5938-0.3223,0.8281-0.5566
			s0.4199-0.5107,0.5566-0.8281s0.2051-0.6563,0.2051-1.0176V38.3125z"/>
	</g>
	<g>
		<path class="st185" d="M100.0557,46.8965c-0.2295,0.5371-0.5439,1.0059-0.9443,1.4063s-0.8691,0.7148-1.4063,0.9443
			s-1.1094,0.3447-1.7148,0.3447h-0.4531c-0.6738,0-1.2988-0.1367-1.875-0.4102s-1.0703-0.6543-1.4805-1.1426v7.2656h-1.8008
			V34.2988h0.5996l0.9824,1.5234c0.4102-0.5566,0.9248-0.999,1.5449-1.3262s1.2969-0.4902,2.0293-0.4902h0.4531
			c0.6055,0,1.1777,0.1143,1.7148,0.3438s1.0059,0.5449,1.4063,0.9453s0.7148,0.8691,0.9443,1.4063s0.3447,1.1084,0.3447,1.7139
			v6.7676C100.4004,45.7881,100.2852,46.3594,100.0557,46.8965z M98.5977,38.3125c0-0.3613-0.0684-0.7012-0.2051-1.0186
			s-0.3223-0.5928-0.5566-0.8271s-0.5098-0.4199-0.8271-0.5566s-0.6572-0.2051-1.0186-0.2051h-1.2012
			c-0.3613,0-0.7002,0.0684-1.0176,0.2051s-0.5938,0.3223-0.8281,0.5566s-0.4199,0.5098-0.5566,0.8271s-0.2051,0.6572-0.2051,1.0186
			v6.9727c0,0.3613,0.0684,0.7002,0.2051,1.0176s0.3223,0.5938,0.5566,0.8281s0.5107,0.4199,0.8281,0.5566
			s0.6563,0.2051,1.0176,0.2051h1.2012c0.3613,0,0.7012-0.0684,1.0186-0.2051s0.5928-0.3223,0.8271-0.5566
			s0.4199-0.5107,0.5566-0.8281s0.2051-0.6563,0.2051-1.0176V38.3125z"/>
	</g>
	<g>
		<path class="st185" d="M113.6787,46.8965c-0.2295,0.5371-0.5439,1.0059-0.9443,1.4063s-0.8691,0.7148-1.4063,0.9443
			s-1.1094,0.3447-1.7148,0.3447h-1.2012c-0.6055,0-1.1758-0.1152-1.7129-0.3447s-1.0059-0.5439-1.4063-0.9443
			s-0.7158-0.8691-0.9453-1.4063s-0.3438-1.1084-0.3438-1.7139V38.415c0-0.6055,0.1143-1.1768,0.3438-1.7139
			s0.5449-1.0059,0.9453-1.4063s0.8691-0.7158,1.4063-0.9453s1.1074-0.3438,1.7129-0.3438h1.2012
			c0.6055,0,1.1777,0.1143,1.7148,0.3438s1.0059,0.5449,1.4063,0.9453s0.7148,0.8691,0.9443,1.4063s0.3447,1.1084,0.3447,1.7139
			v6.7676C114.0234,45.7881,113.9082,46.3594,113.6787,46.8965z M112.2207,38.3125c0-0.3613-0.0684-0.7012-0.2051-1.0186
			s-0.3223-0.5928-0.5566-0.8271s-0.5098-0.4199-0.8271-0.5566s-0.6572-0.2051-1.0186-0.2051h-1.2012
			c-0.3613,0-0.7002,0.0684-1.0176,0.2051s-0.5938,0.3223-0.8281,0.5566s-0.4199,0.5098-0.5566,0.8271s-0.2051,0.6572-0.2051,1.0186
			v6.9727c0,0.3613,0.0684,0.7002,0.2051,1.0176s0.3223,0.5938,0.5566,0.8281s0.5107,0.4199,0.8281,0.5566
			s0.6563,0.2051,1.0176,0.2051h1.2012c0.3613,0,0.7012-0.0684,1.0186-0.2051s0.5928-0.3223,0.8271-0.5566
			s0.4199-0.5107,0.5566-0.8281s0.2051-0.6563,0.2051-1.0176V38.3125z"/>
	</g>
	<g>
		<path class="st185" d="M123.0898,49.2988c-0.5469,0-1.0615-0.1025-1.5449-0.3076s-0.9033-0.4883-1.2598-0.8496
			s-0.6396-0.7813-0.8496-1.2598s-0.3145-0.9912-0.3145-1.5381v-9.3311h-2.6953v-1.7139h2.6953v-3.6035l1.8008-0.293v3.8965h3.8086
			v1.7139h-3.8086v9.4189c0,0.3027,0.0566,0.583,0.1689,0.8418s0.2666,0.4863,0.4619,0.6816s0.4238,0.3486,0.6875,0.4609
			s0.5469,0.1689,0.8496,0.1689h1.6406v1.7139H123.0898z"/>
	</g>
	<g>
		<path class="st185" d="M137.7168,46.8965c-0.2295,0.5371-0.5449,1.0059-0.9453,1.4063s-0.8691,0.7148-1.4063,0.9443
			s-1.1074,0.3447-1.7129,0.3447h-1.2012c-0.6055,0-1.1777-0.1152-1.7148-0.3447s-1.0059-0.5439-1.4063-0.9443
			s-0.7148-0.8691-0.9443-1.4063s-0.3447-1.1084-0.3447-1.7139V38.415c0-0.6055,0.1152-1.1768,0.3447-1.7139
			s0.5439-1.0059,0.9443-1.4063s0.8691-0.7158,1.4063-0.9453s1.1094-0.3438,1.7148-0.3438h1.2012
			c0.6055,0,1.1758,0.1143,1.7129,0.3438s1.0059,0.5449,1.4063,0.9453s0.7158,0.8691,0.9453,1.4063s0.3438,1.1084,0.3438,1.7139
			v3.5303h-8.2168v3.3398c0,0.3613,0.0684,0.7002,0.2051,1.0176s0.3223,0.5938,0.5566,0.8281s0.5098,0.4199,0.8271,0.5566
			s0.6572,0.2051,1.0186,0.2051h1.2012c0.3613,0,0.7002-0.0684,1.0176-0.2051s0.5938-0.3223,0.8281-0.5566
			s0.4199-0.5107,0.5566-0.8281s0.2051-0.6563,0.2051-1.0176v-0.9961l1.8008,0.293v0.6006
			C138.0605,45.7881,137.9463,46.3594,137.7168,46.8965z M136.2598,38.3125c0-0.3613-0.0684-0.7012-0.2051-1.0186
			s-0.3223-0.5928-0.5566-0.8271s-0.5107-0.4199-0.8281-0.5566s-0.6563-0.2051-1.0176-0.2051h-1.2012
			c-0.3613,0-0.7012,0.0684-1.0186,0.2051s-0.5928,0.3223-0.8271,0.5566s-0.4199,0.5098-0.5566,0.8271s-0.2051,0.6572-0.2051,1.0186
			v2.2266h6.416V38.3125z"/>
	</g>
	<g>
		<path class="st185" d="M149.8828,49.2988V38.3125c0-0.3613-0.0684-0.7012-0.2051-1.0186s-0.3223-0.5928-0.5566-0.8271
			s-0.5107-0.4199-0.8281-0.5566s-0.6563-0.2051-1.0176-0.2051h-1.2012c-0.3613,0-0.7012,0.0684-1.0186,0.2051
			s-0.5928,0.3223-0.8271,0.5566s-0.4199,0.5098-0.5566,0.8271s-0.2051,0.6572-0.2051,1.0186v10.9863h-1.8027v-15h0.6016
			l0.9805,1.5234c0.4102-0.5566,0.9258-0.999,1.5459-1.3262s1.2959-0.4902,2.0283-0.4902h0.4551
			c0.6055,0,1.1758,0.1143,1.7129,0.3438s1.0059,0.5449,1.4063,0.9453s0.7158,0.8691,0.9453,1.4063s0.3438,1.1084,0.3438,1.7139
			v10.8838H149.8828z"/>
	</g>
	<g>
		<path class="st185" d="M164.9629,46.8965c-0.2295,0.5371-0.5449,1.0059-0.9453,1.4063s-0.8691,0.7148-1.4063,0.9443
			s-1.1074,0.3447-1.7129,0.3447h-1.2012c-0.6055,0-1.1777-0.1152-1.7148-0.3447s-1.0059-0.5439-1.4063-0.9443
			s-0.7148-0.8691-0.9443-1.4063s-0.3447-1.1084-0.3447-1.7139V38.415c0-0.6055,0.1152-1.1768,0.3447-1.7139
			s0.5439-1.0059,0.9443-1.4063s0.8691-0.7158,1.4063-0.9453s1.1094-0.3438,1.7148-0.3438h1.2012
			c0.6055,0,1.1758,0.1143,1.7129,0.3438s1.0059,0.5449,1.4063,0.9453s0.7158,0.8691,0.9453,1.4063s0.3438,1.1084,0.3438,1.7139
			v0.6006l-1.8008,0.293v-0.9961c0-0.3613-0.0684-0.7012-0.2051-1.0186s-0.3223-0.5928-0.5566-0.8271s-0.5107-0.4199-0.8281-0.5566
			s-0.6563-0.2051-1.0176-0.2051h-1.2012c-0.3613,0-0.7012,0.0684-1.0186,0.2051s-0.5928,0.3223-0.8271,0.5566
			s-0.4199,0.5098-0.5566,0.8271s-0.2051,0.6572-0.2051,1.0186v6.9727c0,0.3613,0.0684,0.7002,0.2051,1.0176
			s0.3223,0.5938,0.5566,0.8281s0.5098,0.4199,0.8271,0.5566s0.6572,0.2051,1.0186,0.2051h1.2012
			c0.3613,0,0.7002-0.0684,1.0176-0.2051s0.5938-0.3223,0.8281-0.5566s0.4199-0.5107,0.5566-0.8281s0.2051-0.6563,0.2051-1.0176
			v-0.9961l1.8008,0.293v0.6006C165.3066,45.7881,165.1924,46.3594,164.9629,46.8965z"/>
	</g>
	<g>
		<path class="st185" d="M169.3652,30.6953V28.293h2.0938v2.4023H169.3652z M169.5117,49.2988v-15h1.8008v15H169.5117z"/>
	</g>
	<g>
		<path class="st185" d="M184.9355,49.2988l-0.9961-1.4941c-0.4102,0.5371-0.9219,0.9688-1.5371,1.2959
			s-1.2891,0.4912-2.0215,0.4912h-0.4551c-0.6055,0-1.1758-0.1152-1.7129-0.3447s-1.0059-0.5439-1.4063-0.9443
			s-0.7158-0.8691-0.9453-1.4063s-0.3438-1.1084-0.3438-1.7139v-0.1465c0-0.6055,0.1143-1.1768,0.3438-1.7139
			s0.5449-1.0059,0.9453-1.4063s0.8691-0.7158,1.4063-0.9453s1.1074-0.3438,1.7129-0.3438h3.8086v-2.3145
			c0-0.3613-0.0684-0.7012-0.2051-1.0186s-0.3223-0.5928-0.5566-0.8271s-0.5098-0.4199-0.8271-0.5566s-0.6572-0.2051-1.0186-0.2051
			h-1.0547c-0.3613,0-0.7002,0.0684-1.0176,0.2051s-0.5938,0.3223-0.8281,0.5566s-0.4199,0.5098-0.5566,0.8271
			s-0.2051,0.6572-0.2051,1.0186v0.542l-1.8008-0.293V38.415c0-0.6055,0.1143-1.1768,0.3438-1.7139s0.5449-1.0059,0.9453-1.4063
			s0.8691-0.7158,1.4063-0.9453s1.1074-0.3438,1.7129-0.3438h1.0547c0.6055,0,1.1777,0.1143,1.7148,0.3438
			s1.0059,0.5449,1.4063,0.9453s0.7148,0.8691,0.9443,1.4063s0.3447,1.1084,0.3447,1.7139v10.8838H184.9355z M183.7344,42.0332
			h-3.8086c-0.3613,0-0.7002,0.0684-1.0176,0.2051s-0.5938,0.3242-0.8281,0.5635s-0.4199,0.5176-0.5566,0.835
			s-0.2051,0.6572-0.2051,1.0186v0.6299c0,0.3613,0.0684,0.7002,0.2051,1.0176s0.3223,0.5938,0.5566,0.8281
			s0.5107,0.4199,0.8281,0.5566s0.6563,0.2051,1.0176,0.2051h1.2012c0.3613,0,0.7012-0.0684,1.0186-0.2051
			s0.5928-0.3223,0.8271-0.5566s0.4199-0.5107,0.5566-0.8281s0.2051-0.6563,0.2051-1.0176V42.0332z"/>
	</g>
	<g>
		<path class="st185" d="M189.7402,49.2988V28.293h1.8027v21.0059H189.7402z"/>
	</g>
	<g>
		<path class="st185" d="M218.4805,49.2988V38.3125c0-0.3613-0.0684-0.7012-0.2051-1.0186s-0.3223-0.5928-0.5566-0.8271
			s-0.5098-0.4199-0.8271-0.5566s-0.6572-0.2051-1.0186-0.2051h-0.8926c-0.3613,0-0.7012,0.0684-1.0186,0.2051
			s-0.5957,0.3223-0.835,0.5566s-0.4277,0.5098-0.5645,0.8271s-0.2051,0.6572-0.2051,1.0186v10.9863h-1.7871V38.3125
			c0-0.3613-0.0684-0.7012-0.2051-1.0186s-0.3242-0.5928-0.5635-0.8271s-0.5176-0.4199-0.835-0.5566s-0.6563-0.2051-1.0176-0.2051
			h-0.8945c-0.3613,0-0.7002,0.0684-1.0176,0.2051s-0.5938,0.3223-0.8281,0.5566s-0.4199,0.5098-0.5566,0.8271
			s-0.2051,0.6572-0.2051,1.0186v10.9863h-1.8008v-15h0.5996l0.9824,1.5234c0.4102-0.5566,0.9248-0.999,1.5449-1.3262
			s1.2969-0.4902,2.0293-0.4902h0.1465c0.8496,0,1.6152,0.21,2.2988,0.6299s1.2109,0.9766,1.582,1.6699
			c0.1855-0.3418,0.416-0.6543,0.6895-0.9375s0.5762-0.5254,0.9082-0.7256s0.6934-0.3564,1.084-0.4688s0.7949-0.168,1.2148-0.168
			h0.1465c0.6055,0,1.1777,0.1143,1.7148,0.3438s1.0059,0.5449,1.4063,0.9453s0.7148,0.8691,0.9443,1.4063
			s0.3447,1.1084,0.3447,1.7139v10.8838H218.4805z"/>
	</g>
	<g>
		<path class="st185" d="M224.3398,30.6953V28.293h2.0957v2.4023H224.3398z M224.4863,49.2988v-15h1.8027v15H224.4863z"/>
	</g>
	<g>
		<path class="st185" d="M234.9023,36.0127c-0.3613,0-0.7012,0.0684-1.0186,0.2051s-0.5928,0.3223-0.8271,0.5566
			s-0.4199,0.5098-0.5566,0.8271s-0.2051,0.6572-0.2051,1.0186v10.6787h-1.8027v-15h0.6016l0.9805,1.5234
			c0.4102-0.5566,0.9258-0.999,1.5459-1.3262s1.2959-0.4902,2.0283-0.4902h1.0547v2.0068H234.9023z"/>
	</g>
	<g>
		<path class="st185" d="M248.5254,49.2988l-0.9961-1.4941c-0.4102,0.5371-0.9238,0.9688-1.5391,1.2959
			s-1.2891,0.4912-2.0215,0.4912h-0.4531c-0.6055,0-1.1777-0.1152-1.7148-0.3447s-1.0059-0.5439-1.4063-0.9443
			s-0.7148-0.8691-0.9443-1.4063s-0.3447-1.1084-0.3447-1.7139v-0.1465c0-0.6055,0.1152-1.1768,0.3447-1.7139
			s0.5439-1.0059,0.9443-1.4063s0.8691-0.7158,1.4063-0.9453s1.1094-0.3438,1.7148-0.3438h3.8086v-2.3145
			c0-0.3613-0.0684-0.7012-0.2051-1.0186s-0.3223-0.5928-0.5566-0.8271s-0.5107-0.4199-0.8281-0.5566s-0.6563-0.2051-1.0176-0.2051
			h-1.0547c-0.3613,0-0.7012,0.0684-1.0186,0.2051s-0.5928,0.3223-0.8271,0.5566s-0.4199,0.5098-0.5566,0.8271
			s-0.2051,0.6572-0.2051,1.0186v0.542l-1.8027-0.293V38.415c0-0.6055,0.1152-1.1768,0.3447-1.7139s0.5439-1.0059,0.9443-1.4063
			s0.8691-0.7158,1.4063-0.9453s1.1094-0.3438,1.7148-0.3438h1.0547c0.6055,0,1.1758,0.1143,1.7129,0.3438
			s1.0059,0.5449,1.4063,0.9453s0.7158,0.8691,0.9453,1.4063s0.3438,1.1084,0.3438,1.7139v10.8838H248.5254z M247.3242,42.0332
			h-3.8086c-0.3613,0-0.7012,0.0684-1.0186,0.2051s-0.5928,0.3242-0.8271,0.5635s-0.4199,0.5176-0.5566,0.835
			s-0.2051,0.6572-0.2051,1.0186v0.6299c0,0.3613,0.0684,0.7002,0.2051,1.0176s0.3223,0.5938,0.5566,0.8281
			s0.5098,0.4199,0.8271,0.5566s0.6572,0.2051,1.0186,0.2051h1.2012c0.3613,0,0.7002-0.0684,1.0176-0.2051
			s0.5938-0.3223,0.8281-0.5566s0.4199-0.5107,0.5566-0.8281s0.2051-0.6563,0.2051-1.0176V42.0332z"/>
	</g>
	<g>
		<path class="st185" d="M262.1484,49.2988l-0.9961-1.5234c-0.4102,0.5566-0.9238,0.998-1.5391,1.3252s-1.2891,0.4912-2.0215,0.4912
			h-0.4531c-0.6055,0-1.1777-0.1152-1.7148-0.3447s-1.0059-0.5439-1.4063-0.9443s-0.7148-0.8691-0.9443-1.4063
			s-0.3447-1.1084-0.3447-1.7139V38.415c0-0.6055,0.1152-1.1768,0.3447-1.7139s0.5439-1.0059,0.9443-1.4063
			s0.8691-0.7158,1.4063-0.9453s1.1094-0.3438,1.7148-0.3438h0.4531c0.6738,0,1.2988,0.1367,1.875,0.4102
			s1.0703,0.6543,1.4805,1.1426V28.293h1.8008v21.0059H262.1484z M260.9473,38.3125c0-0.3613-0.0684-0.7012-0.2051-1.0186
			s-0.3223-0.5928-0.5566-0.8271s-0.5107-0.4199-0.8281-0.5566s-0.6563-0.2051-1.0176-0.2051h-1.2012
			c-0.3613,0-0.7012,0.0684-1.0186,0.2051s-0.5928,0.3223-0.8271,0.5566s-0.4199,0.5098-0.5566,0.8271s-0.2051,0.6572-0.2051,1.0186
			v6.9727c0,0.3613,0.0684,0.7002,0.2051,1.0176s0.3223,0.5938,0.5566,0.8281s0.5098,0.4199,0.8271,0.5566
			s0.6572,0.2051,1.0186,0.2051h1.2012c0.3613,0,0.7002-0.0684,1.0176-0.2051s0.5938-0.3223,0.8281-0.5566
			s0.4199-0.5107,0.5566-0.8281s0.2051-0.6563,0.2051-1.0176V38.3125z"/>
	</g>
	<g>
		<path class="st185" d="M275.7715,49.2988l-0.9961-1.4941c-0.4102,0.5371-0.9238,0.9688-1.5391,1.2959
			s-1.2891,0.4912-2.0215,0.4912h-0.4531c-0.6055,0-1.1777-0.1152-1.7148-0.3447s-1.0059-0.5439-1.4063-0.9443
			s-0.7148-0.8691-0.9443-1.4063s-0.3447-1.1084-0.3447-1.7139v-0.1465c0-0.6055,0.1152-1.1768,0.3447-1.7139
			s0.5439-1.0059,0.9443-1.4063s0.8691-0.7158,1.4063-0.9453s1.1094-0.3438,1.7148-0.3438h3.8086v-2.3145
			c0-0.3613-0.0684-0.7012-0.2051-1.0186s-0.3223-0.5928-0.5566-0.8271s-0.5107-0.4199-0.8281-0.5566s-0.6563-0.2051-1.0176-0.2051
			h-1.0547c-0.3613,0-0.7012,0.0684-1.0186,0.2051s-0.5928,0.3223-0.8271,0.5566s-0.4199,0.5098-0.5566,0.8271
			s-0.2051,0.6572-0.2051,1.0186v0.542l-1.8027-0.293V38.415c0-0.6055,0.1152-1.1768,0.3447-1.7139s0.5439-1.0059,0.9443-1.4063
			s0.8691-0.7158,1.4063-0.9453s1.1094-0.3438,1.7148-0.3438h1.0547c0.6055,0,1.1758,0.1143,1.7129,0.3438
			s1.0059,0.5449,1.4063,0.9453s0.7158,0.8691,0.9453,1.4063s0.3438,1.1084,0.3438,1.7139v10.8838H275.7715z M274.5703,42.0332
			h-3.8086c-0.3613,0-0.7012,0.0684-1.0186,0.2051s-0.5928,0.3242-0.8271,0.5635s-0.4199,0.5176-0.5566,0.835
			s-0.2051,0.6572-0.2051,1.0186v0.6299c0,0.3613,0.0684,0.7002,0.2051,1.0176s0.3223,0.5938,0.5566,0.8281
			s0.5098,0.4199,0.8271,0.5566s0.6572,0.2051,1.0186,0.2051h1.2012c0.3613,0,0.7002-0.0684,1.0176-0.2051
			s0.5938-0.3223,0.8281-0.5566s0.4199-0.5107,0.5566-0.8281s0.2051-0.6563,0.2051-1.0176V42.0332z"/>
	</g>
	<g>
		<path class="st185" d="M296.5498,46.8965c-0.2295,0.5371-0.5439,1.0059-0.9443,1.4063s-0.8691,0.7148-1.4063,0.9443
			s-1.1094,0.3447-1.7148,0.3447h-1.2012c-0.6055,0-1.1758-0.1152-1.7129-0.3447s-1.0059-0.5439-1.4063-0.9443
			s-0.7158-0.8691-0.9453-1.4063s-0.3438-1.1084-0.3438-1.7139V38.415c0-0.6055,0.1143-1.1768,0.3438-1.7139
			s0.5449-1.0059,0.9453-1.4063s0.8691-0.7158,1.4063-0.9453s1.1074-0.3438,1.7129-0.3438h1.2012
			c0.6055,0,1.1777,0.1143,1.7148,0.3438s1.0059,0.5449,1.4063,0.9453s0.7148,0.8691,0.9443,1.4063s0.3447,1.1084,0.3447,1.7139
			v3.5303h-8.2188v3.3398c0,0.3613,0.0684,0.7002,0.2051,1.0176s0.3223,0.5938,0.5566,0.8281s0.5107,0.4199,0.8281,0.5566
			s0.6563,0.2051,1.0176,0.2051h1.2012c0.3613,0,0.7012-0.0684,1.0186-0.2051s0.5928-0.3223,0.8271-0.5566
			s0.4199-0.5107,0.5566-0.8281s0.2051-0.6563,0.2051-1.0176v-0.9961l1.8027,0.293v0.6006
			C296.8945,45.7881,296.7793,46.3594,296.5498,46.8965z M295.0918,38.3125c0-0.3613-0.0684-0.7012-0.2051-1.0186
			s-0.3223-0.5928-0.5566-0.8271s-0.5098-0.4199-0.8271-0.5566s-0.6572-0.2051-1.0186-0.2051h-1.2012
			c-0.3613,0-0.7002,0.0684-1.0176,0.2051s-0.5938,0.3223-0.8281,0.5566s-0.4199,0.5098-0.5566,0.8271s-0.2051,0.6572-0.2051,1.0186
			v2.2266h6.416V38.3125z M291.1367,31.8965h-1.3477l2.3887-3.6035h3.002L291.1367,31.8965z"/>
	</g>
	<g>
		<path class="st185" d="M305.9619,49.2988c-0.5469,0-1.0625-0.1025-1.5449-0.3076c-0.4844-0.2051-0.9043-0.4883-1.2598-0.8496
			c-0.3574-0.3613-0.6406-0.7813-0.8496-1.2598c-0.2109-0.4785-0.3154-0.9912-0.3154-1.5381v-9.3311h-2.6953v-1.7139h2.6953v-3.6035
			l1.8018-0.293v3.8965h3.8086v1.7139h-3.8086v9.4189c0,0.3027,0.0557,0.583,0.168,0.8418s0.2666,0.4863,0.4619,0.6816
			s0.4248,0.3486,0.6885,0.4609s0.5469,0.1689,0.8496,0.1689h1.6406v1.7139H305.9619z"/>
	</g>
	<g>
		<path class="st185" d="M311.3662,30.6953V28.293h2.0947v2.4023H311.3662z M311.5127,49.2988v-15h1.8018v15H311.5127z"/>
	</g>
	<g>
		<path class="st185" d="M327.1943,46.8965c-0.2295,0.5371-0.5439,1.0059-0.9443,1.4063s-0.8691,0.7148-1.4063,0.9443
			s-1.1084,0.3447-1.7139,0.3447h-1.2012c-0.6055,0-1.1768-0.1152-1.7139-0.3447s-1.0059-0.5439-1.4063-0.9443
			s-0.7158-0.8691-0.9443-1.4063c-0.2305-0.5371-0.3447-1.1084-0.3447-1.7139V38.415c0-0.6055,0.1143-1.1768,0.3447-1.7139
			c0.2285-0.5371,0.5439-1.0059,0.9443-1.4063s0.8691-0.7158,1.4063-0.9453s1.1084-0.3438,1.7139-0.3438h1.2012
			c0.6055,0,1.1768,0.1143,1.7139,0.3438s1.0059,0.5449,1.4063,0.9453s0.7148,0.8691,0.9443,1.4063s0.3447,1.1084,0.3447,1.7139
			v0.6006l-1.8018,0.293v-0.9961c0-0.3613-0.0684-0.7012-0.2051-1.0186s-0.3223-0.5928-0.5566-0.8271s-0.5107-0.4199-0.8281-0.5566
			s-0.6563-0.2051-1.0176-0.2051h-1.2012c-0.3613,0-0.7012,0.0684-1.0176,0.2051c-0.3184,0.1367-0.5938,0.3223-0.8281,0.5566
			s-0.4199,0.5098-0.5566,0.8271s-0.2051,0.6572-0.2051,1.0186v6.9727c0,0.3613,0.0684,0.7002,0.2051,1.0176
			s0.3223,0.5938,0.5566,0.8281s0.5098,0.4199,0.8281,0.5566c0.3164,0.1367,0.6563,0.2051,1.0176,0.2051h1.2012
			c0.3613,0,0.7002-0.0684,1.0176-0.2051s0.5938-0.3223,0.8281-0.5566s0.4199-0.5107,0.5566-0.8281s0.2051-0.6563,0.2051-1.0176
			v-0.9961l1.8018,0.293v0.6006C327.5391,45.7881,327.4238,46.3594,327.1943,46.8965z"/>
	</g>
	<g>
		<path class="st185" d="M340.5615,49.2988l-0.9961-1.4941c-0.4102,0.5371-0.9229,0.9688-1.5381,1.2959
			s-1.2891,0.4912-2.0215,0.4912h-0.4541c-0.6055,0-1.1768-0.1152-1.7139-0.3447s-1.0059-0.5439-1.4063-0.9443
			s-0.7158-0.8691-0.9443-1.4063c-0.2305-0.5371-0.3447-1.1084-0.3447-1.7139v-0.1465c0-0.6055,0.1143-1.1768,0.3447-1.7139
			c0.2285-0.5371,0.5439-1.0059,0.9443-1.4063s0.8691-0.7158,1.4063-0.9453s1.1084-0.3438,1.7139-0.3438h3.8086v-2.3145
			c0-0.3613-0.0684-0.7012-0.2051-1.0186s-0.3223-0.5928-0.5566-0.8271s-0.5107-0.4199-0.8281-0.5566s-0.6563-0.2051-1.0176-0.2051
			h-1.0547c-0.3613,0-0.7012,0.0684-1.0176,0.2051c-0.3184,0.1367-0.5938,0.3223-0.8281,0.5566s-0.4199,0.5098-0.5566,0.8271
			s-0.2051,0.6572-0.2051,1.0186v0.542l-1.8018-0.293V38.415c0-0.6055,0.1143-1.1768,0.3447-1.7139
			c0.2285-0.5371,0.5439-1.0059,0.9443-1.4063s0.8691-0.7158,1.4063-0.9453s1.1084-0.3438,1.7139-0.3438h1.0547
			c0.6055,0,1.1768,0.1143,1.7139,0.3438s1.0059,0.5449,1.4063,0.9453s0.7148,0.8691,0.9443,1.4063s0.3447,1.1084,0.3447,1.7139
			v10.8838H340.5615z M339.3604,42.0332h-3.8086c-0.3613,0-0.7012,0.0684-1.0176,0.2051c-0.3184,0.1367-0.5938,0.3242-0.8281,0.5635
			s-0.4199,0.5176-0.5566,0.835s-0.2051,0.6572-0.2051,1.0186v0.6299c0,0.3613,0.0684,0.7002,0.2051,1.0176
			s0.3223,0.5938,0.5566,0.8281s0.5098,0.4199,0.8281,0.5566c0.3164,0.1367,0.6563,0.2051,1.0176,0.2051h1.2012
			c0.3613,0,0.7002-0.0684,1.0176-0.2051s0.5938-0.3223,0.8281-0.5566s0.4199-0.5107,0.5566-0.8281s0.2051-0.6563,0.2051-1.0176
			V42.0332z"/>
	</g>
</g>
</svg>
