<?xml version="1.0" encoding="utf-8"?>
<!-- Generator: Adobe Illustrator 21.0.2, SVG Export Plug-In . SVG Version: 6.00 Build 0)  -->
<svg version="1.1" id="Capa_1" xmlns="http://www.w3.org/2000/svg" xmlns:xlink="http://www.w3.org/1999/xlink" x="0px" y="0px"
	 viewBox="0 0 481.7429 490.4288" style="enable-background:new 0 0 481.7429 490.4288;" xml:space="preserve">
<style type="text/css">
	.st0{fill-rule:evenodd;clip-rule:evenodd;fill:#DDDDDD;}
	.st1{fill:#3B86B1;}
	.st2{opacity:0.25;fill-rule:evenodd;clip-rule:evenodd;fill:#020202;}
	.st3{fill:#FFFFFF;}
	.st4{opacity:0.5;}
	.st5{fill-rule:evenodd;clip-rule:evenodd;fill:#A8A8A8;}
	.st6{fill-rule:evenodd;clip-rule:evenodd;fill:#FFFFFF;}
	.st7{fill-rule:evenodd;clip-rule:evenodd;fill:#3B86B1;}
	.st8{opacity:0.5;fill:#2C6882;}
	.st9{opacity:0.75;fill-rule:evenodd;clip-rule:evenodd;fill:#282828;}
	.st10{opacity:0.5;fill:#FFFFFF;}
	.st11{fill-rule:evenodd;clip-rule:evenodd;fill:none;stroke:#FFFFFF;stroke-miterlimit:10;}
	.st12{fill:none;stroke:#FFFFFF;stroke-miterlimit:10;}
	.st13{fill:#FFFFFF;stroke:#3B86B1;stroke-width:1.7139;stroke-miterlimit:10;}
	.st14{fill-rule:evenodd;clip-rule:evenodd;}
	.st15{opacity:0.85;fill:#FFFFFF;}
	.st16{opacity:0.5;fill-rule:evenodd;clip-rule:evenodd;}
	.st17{fill-rule:evenodd;clip-rule:evenodd;fill:#FEFEFE;}
	.st18{fill:#312767;}
	.st19{opacity:0.48;}
	.st20{opacity:0.25;}
	.st21{fill-rule:evenodd;clip-rule:evenodd;fill:#020202;}
	.st22{fill:#757575;}
	.st23{opacity:0.25;clip-path:url(#XMLID_2330_);}
	.st24{fill:#4D4789;}
	.st25{fill:#FFFFFF;stroke:#312767;stroke-miterlimit:10;}
	.st26{fill:#FFFFFF;stroke:#3B86B1;stroke-miterlimit:10;}
	.st27{fill:#ACABC9;}
	.st28{fill-rule:evenodd;clip-rule:evenodd;fill:#312767;}
	.st29{opacity:0.77;fill:#312767;}
	.st30{opacity:0.25;clip-path:url(#XMLID_2333_);}
	.st31{fill:#9490B2;stroke:#2D2D2D;stroke-width:0.25;stroke-miterlimit:10;}
	.st32{fill:#312767;stroke:#2D2D2D;stroke-width:0.25;stroke-miterlimit:10;}
	.st33{fill:#FCFCFC;}
	.st34{fill:#FFFFFF;stroke:#2D2D2D;stroke-width:0.25;stroke-miterlimit:10;}
	.st35{fill-rule:evenodd;clip-rule:evenodd;fill:#484849;stroke:#2D2D2D;stroke-width:0.25;stroke-miterlimit:10;}
	.st36{fill-rule:evenodd;clip-rule:evenodd;fill:#312767;stroke:#2D2D2D;stroke-width:0.25;stroke-miterlimit:10;}
	.st37{fill-rule:evenodd;clip-rule:evenodd;fill:#FFFFFF;stroke:#2D2D2D;stroke-width:0.25;stroke-miterlimit:10;}
	.st38{fill:#484849;stroke:#2D2D2D;stroke-width:0.25;stroke-miterlimit:10;}
	.st39{fill:#54518C;}
	.st40{fill:#FFFFFF;stroke:#FFFFFF;stroke-miterlimit:10;}
	.st41{opacity:0.25;fill-rule:evenodd;clip-rule:evenodd;fill:#FFFFFF;}
	.st42{fill:#D4A800;}
	.st43{fill:#00AEB3;}
	.st44{fill:#38353B;}
	.st45{fill:#FF8400;}
	.st46{fill:#BF3900;}
	.st47{fill:#00AA9C;}
	.st48{opacity:0.25;clip-path:url(#XMLID_2341_);}
	.st49{fill:none;stroke:#ACABC9;stroke-width:5;stroke-miterlimit:10;}
	.st50{opacity:0.25;clip-path:url(#XMLID_2350_);}
	.st51{fill:#DDDDDD;}
	.st52{opacity:0.25;clip-path:url(#XMLID_2354_);}
	.st53{fill-rule:evenodd;clip-rule:evenodd;fill:#FFFFFF;stroke:#FFFFFF;stroke-miterlimit:10;}
	.st54{fill:#F79748;}
	.st55{fill:#FF7900;}
	.st56{fill:#DD7105;}
	.st57{fill:#02897C;}
	.st58{fill:#0EAD9A;}
	.st59{fill:#28C6AF;}
	.st60{fill:#4FE0C7;}
	.st61{fill:#D37D00;}
	.st62{fill:#D14600;}
	.st63{fill:#E5B92E;}
	.st64{fill:#DD571B;}
	.st65{fill:#E28A17;}
	.st66{opacity:0.25;clip-path:url(#XMLID_2355_);}
	.st67{opacity:0.77;fill:#FFFFFF;}
	.st68{fill:#50565B;stroke:#656C70;stroke-miterlimit:10;}
	.st69{fill:#808589;stroke:#656C70;stroke-miterlimit:10;}
	.st70{fill:#252728;stroke:#000000;stroke-miterlimit:10;}
	.st71{fill:#1A1B1C;stroke:#000000;stroke-miterlimit:10;}
	.st72{fill:#A0A6AA;}
	.st73{fill:#262C35;stroke:#161A1E;stroke-miterlimit:10;}
	.st74{fill:#181D23;}
	.st75{fill:#EABA96;stroke:#E0AA86;stroke-miterlimit:10;}
	.st76{fill:#E0AA86;}
	.st77{stroke:#000000;stroke-width:0.75;stroke-linecap:square;stroke-linejoin:bevel;stroke-miterlimit:10;}
	.st78{fill:#0F1C3F;stroke:#182951;stroke-miterlimit:10;}
	.st79{fill:#132354;stroke:#3F6093;stroke-miterlimit:10;}
	.st80{fill:#0F1C3F;}
	.st81{fill:none;stroke:#3F6093;stroke-width:0.75;stroke-miterlimit:10;}
	.st82{fill:#DBA682;}
	.st83{fill:none;stroke:#E0AA86;stroke-miterlimit:10;}
	.st84{fill:none;stroke:#E0AA86;stroke-linejoin:bevel;stroke-miterlimit:10;}
	.st85{fill:#8A0A8E;stroke:#AC34B2;stroke-miterlimit:10;}
	.st86{fill:#810C87;}
	.st87{fill:#680B6D;}
	.st88{fill:#AC34B2;stroke:#AC34B2;stroke-width:0.5;stroke-miterlimit:10;}
	.st89{fill:none;stroke:#959DA0;stroke-width:0.5;stroke-miterlimit:10;}
	.st90{fill:#959DA0;stroke:#959DA0;stroke-width:0.5;stroke-miterlimit:10;}
	.st91{fill:none;stroke:#AC34B2;stroke-miterlimit:10;}
	.st92{fill:#282828;stroke:#000000;stroke-miterlimit:10;}
	.st93{fill:#EABA96;stroke:#E0AA86;stroke-width:0.5;stroke-miterlimit:10;}
	.st94{fill:#B7896A;}
	.st95{stroke:#000000;stroke-miterlimit:10;}
	.st96{fill:#C1A578;}
	.st97{stroke:#000000;stroke-width:0.25;stroke-linecap:round;stroke-linejoin:round;stroke-miterlimit:10;}
	.st98{fill:#FFFFFF;stroke:#000000;stroke-width:0.25;stroke-linecap:round;stroke-linejoin:round;stroke-miterlimit:10;}
	.st99{fill:#70582D;}
	.st100{stroke:#000000;stroke-linecap:round;stroke-linejoin:round;stroke-miterlimit:10;}
	.st101{fill:none;stroke:#D8A27D;stroke-width:0.75;stroke-miterlimit:10;}
	.st102{fill:#561409;}
	.st103{fill:#BA2A13;}
	.st104{fill:#9E3025;stroke:#4C2311;stroke-width:0.25;stroke-miterlimit:10;}
	.st105{fill:#871D08;stroke:#4C2311;stroke-width:0.25;stroke-miterlimit:10;}
	.st106{fill:#DDAC8A;}
	.st107{fill:#A5ABAD;stroke:#959DA0;stroke-width:0.5;stroke-miterlimit:10;}
	.st108{fill:#B1BABC;}
	.st109{fill:none;stroke:#153847;stroke-width:5;stroke-miterlimit:10;}
	.st110{fill:#3CA7AF;}
	.st111{fill:#3DAD8D;}
	.st112{fill:#3DAA61;}
	.st113{fill:#67A53F;}
	.st114{fill:#95A340;}
	.st115{opacity:0.25;clip-path:url(#XMLID_2356_);}
	.st116{opacity:0.25;clip-path:url(#XMLID_2357_);}
	.st117{opacity:0.25;clip-path:url(#XMLID_2358_);}
	.st118{clip-path:url(#SVGID_2_);}
	.st119{fill:none;stroke:#3F6093;stroke-miterlimit:10;}
	.st120{fill:none;stroke:#3F6093;stroke-width:0.75;stroke-linecap:round;stroke-linejoin:round;}
	.st121{fill:none;stroke:#3F6093;stroke-width:0.75;stroke-linecap:round;stroke-linejoin:round;stroke-dasharray:0.9892,0.9892;}
	
		.st122{fill:none;stroke:#3F6093;stroke-width:0.75;stroke-linecap:round;stroke-linejoin:round;stroke-miterlimit:10;stroke-dasharray:1;}
	.st123{fill:#EAEAEA;stroke:#FFFFFF;stroke-width:0.25;stroke-miterlimit:10;}
	.st124{fill:#D8D8D8;}
	.st125{fill:#282828;stroke:#000000;stroke-width:0.75;stroke-miterlimit:10;}
	.st126{opacity:0.33;fill:#FFFFFF;}
	.st127{fill:none;stroke:#000000;stroke-width:1.5;stroke-linecap:round;stroke-linejoin:round;stroke-miterlimit:10;}
	.st128{clip-path:url(#SVGID_4_);}
	.st129{opacity:0.64;}
	.st130{fill:#1D1D1B;}
	.st131{fill:#C9C9C9;}
</style>
<g class="st20">
	<path class="st3" d="M474.2382,311.7632c-0.2912-0.0486-0.5874-0.0401-0.8789-0.0591l1.0233-130.742
		c3.5998-0.5313,6.6133-3.2854,7.2421-7.0644c0.7804-4.6905-2.3839-9.1295-7.0794-9.9107c-2.1991-0.366-4.3201,0.16-6.0558,1.272
		L393.8499,60.835c1.3182-1.2443,2.2667-2.8833,2.5867-4.8055c0.7807-4.6912-2.389-9.126-7.0841-9.9072
		c-4.0378-0.6718-7.8665,1.5845-9.36,5.2192L255.699,9.8811c0.6938-4.6377-2.4458-8.9904-7.0896-9.763
		c-4.6907-0.7805-9.1304,2.3882-9.9107,7.0792c-0.2589,1.5555-0.0516,3.068,0.4733,4.4401l-122.038,38.6026
		c-1.2495-2.0965-3.3498-3.6681-5.9443-4.0997c-4.6907-0.7806-9.1314,2.3934-9.9117,7.0841
		c-0.5113,3.0734,0.6978,6.0231,2.8945,7.9151L29.015,162.9161c-1.0008-0.6885-2.1542-1.1894-3.4371-1.4029
		c-4.6911-0.7806-9.1317,2.3929-9.9121,7.0836c-0.7804,4.6905,2.3937,9.1266,7.0848,9.9072
		c0.3051,0.0508,0.6064,0.0425,0.9125,0.0598l-0.977,125.0645c-4.2188-0.1029-7.9889,2.8731-8.702,7.1592
		c-0.7814,4.6955,2.3937,9.127,7.0845,9.9073c1.4758,0.2456,2.9071,0.0632,4.2239-0.3938l76.8255,107.4879
		c-1.1734,1.2152-2.0133,2.7807-2.3098,4.5616c-0.781,4.6955,2.3931,9.1317,7.0838,9.9121
		c3.5533,0.5911,6.9533-1.0889,8.7322-3.9715l124.1885,41.4238c-0.0574,0.2273-0.142,0.445-0.1818,0.6849
		c-0.782,4.6996,2.3839,9.1293,7.0791,9.9107c4.6907,0.7804,9.1297-2.3839,9.9117-7.0838c0.2463-1.4802,0.0564-2.9224-0.404-4.2501
		l124.0523-39.243c1.2513,2.0917,3.343,3.6569,5.9372,4.0883c4.6907,0.7807,9.1266-2.3937,9.908-7.0889
		c0.5239-3.149-0.762-6.1597-3.0658-8.05l74.874-101.3791c1.0209,0.7155,2.1906,1.2336,3.4877,1.4493
		c4.6955,0.7814,9.1348-2.3873,9.9155-7.078C482.1088,316.9751,478.9336,312.5446,474.2382,311.7632z M389.0359,426.8224
		c-0.1689-0.0282-0.3265-0.0109-0.4872-0.0333l1.1062-17.9964c3.5699,0.0238,6.7369-2.5212,7.3423-6.1587
		c0.481-2.8905-0.8065-5.66-3.0501-7.2411l16.9721-22.3457l12.5671-16.5437c0.179,0.1169,0.3832,0.1943,0.5697,0.2925
		l-33.1509,70.5788C390.3194,427.1227,389.6895,426.9311,389.0359,426.8224z M379.1197,433.9052
		c-0.1057,0.6343-0.1115,1.2516-0.0795,1.8705l-34.1684-0.4063c-0.071-1.1707-0.425-2.321-1.0365-3.3793l39.9164-26.184
		c1.1092,1.4931,2.7583,2.584,4.7365,2.9132c0.1223,0.0204,0.2361,0.0054,0.3543,0.0204l-1.1068,18.0011
		C383.5539,426.6783,379.828,429.6466,379.1197,433.9052z M249.5372,473.3198c-3.2428-0.5395-6.3344,0.8249-8.2083,3.2618
		l-25.2402-17.6037c0.8884-1.4507,1.2723-3.15,1.1171-4.8279l59.6329-8.9683l29.5695,2.2392
		c-0.1022,1.2536,0.087,2.4682,0.5585,3.5563l-51.8102,25.9003C253.8858,475.0528,251.9109,473.7145,249.5372,473.3198z
		 M116.8326,434.6859c0.4828-4.4984-2.5871-8.6609-7.1137-9.414c-1.8471-0.3075-3.6369,0.0275-5.1894,0.798l-10.1278-23.5222
		c0.3693-0.1848,0.7386-0.3747,1.0885-0.6207c1.0916-0.7845,1.8848-1.8067,2.4301-2.9333l11.6892,6.0649
		c0.4807,0.3601,1.0175,0.6479,1.6083,0.8426l55.4644,28.8003c-0.1774,0.3958-0.3204,0.7919-0.3948,1.2387
		c-0.0445,0.268-0.0656,0.5395-0.0703,0.8001L116.8326,434.6859z M25.2823,304.0798l5.57-20.6161
		c1.1051,0.2375,2.2596,0.2361,3.3797-0.0221L66.47,347.9368c-1.9137,0.2083-3.6379,1.1385-4.8487,2.5793L29.0425,317.766
		c0.9734-1.1466,1.6756-2.5517,1.9416-4.1498C31.6857,309.4004,29.1879,305.4248,25.2823,304.0798z M45.6786,192.7616
		l14.6602,15.1187c-0.9475,1.0211-1.6175,2.3197-1.8638,3.8001c-0.513,3.0836,0.9682,6.0252,3.4931,7.5419l-26.2336,49.6746
		c-0.8303-0.3798-1.7045-0.6407-2.6054-0.7138L45.6786,192.7616z M30.9637,164.7904l18.6511-15.7729
		c0.6584,0.6892,1.4282,1.2278,2.2453,1.6294l-6.7223,40.4019l-14.7102-15.1705c1.1215-1.1948,1.9382-2.706,2.229-4.4544
		C33.065,168.9707,32.3753,166.6145,30.9637,164.7904z M61.585,139.1994c-0.0629-0.0876-0.1434-0.1539-0.2154-0.2436
		l34.1725-33.6408l-13.1097,52.8681c-0.107-0.0275-0.2025-0.0627-0.3058-0.08c-1.1514-0.1916-2.2769-0.0168-3.2689,0.4271
		l-0.6231,0.3504c-0.4994,0.3031-0.9343,0.6798-1.3165,1.1187L61.621,148.1268C63.4386,145.5069,63.5436,141.9406,61.585,139.1994z
		 M154.6695,53.4913l9.2537-1.3873c0.3319,2.3591,1.788,4.4077,3.9046,5.5037l0.3374,1.8631L154.52,55.7846
		C154.6729,55.0376,154.7337,54.2652,154.6695,53.4913z M279.5612,41.5136c0.213-0.148,0.3917-0.3211,0.5779-0.4835l10.9106,11.2392
		c-0.2457,0.4902-0.4386,1.0092-0.5331,1.5776c-0.176,1.0579-0.0224,2.0781,0.3503,3.0046l-60.3552,15.4562l-0.7141-0.293
		c-0.9118-2.3588-2.9829-4.1961-5.6569-4.641c-1.5088-0.2511-2.9907-0.0243-4.282,0.5675l-41.2655-16.9176
		c-0.0095-0.3785-0.0547-0.7437-0.1148-1.1108l88.9472-13.3794c0.1923,1.1092,0.6102,2.1977,1.3066,3.1782
		C271.2242,43.1985,276.0701,44.0047,279.5612,41.5136z M348.9156,60.8594c2.8011,0.4661,5.4735-0.7318,7.077-2.851l20.8604,14.0879
		c-0.1573,0.3071-0.2854,0.6385-0.3438,0.9909c-0.1454,0.874,0.0588,1.7097,0.495,2.3961l-10.5539,5.1363l-50.0435-25.9907
		l26.3484-0.6679C342.9353,57.3479,345.433,60.28,348.9156,60.8594z M422.923,356.0571l-13.2738,17.4793l-16.314,21.4698
		c-0.7325-0.4162-1.539-0.7389-2.4179-0.885c-3.4358-0.5718-6.6945,1.3348-8.0018,4.4019l-5.255-1.9181l43.6297-42.9547
		C421.6232,354.5799,422.1814,355.4072,422.923,356.0571z M343.4194,431.2977c-0.1424-0.1923-0.3088-0.3506-0.458-0.5303
		l34.1328-33.6041l5.5842,2.0302c-0.1043,0.3353-0.2168,0.6642-0.2748,1.0124c-0.2939,1.7673,0.0938,3.4738,0.9264,4.9116
		L343.4194,431.2977z M329.4274,436.4562l-53.019,7.9726l-98.8223-7.4782c0.015-0.9299-0.1865-1.8128-0.586-2.6041l4.7454-2.7413
		l42.4763-24.5845c0.8459,1.2709,2.1835,2.2038,3.8003,2.4729c2.637,0.4386,5.1453-1.0229,6.1553-3.3766l95.324,28.589
		C329.4156,435.2808,329.3853,435.8695,329.4274,436.4562z M204.9923,448.563c-1.3369,0.9513-2.2674,2.2501-2.7814,3.6814
		l-25.1196-13.0431c0.1987-0.4403,0.3611-0.8962,0.4433-1.3899c0.0085-0.0513,0.0017-0.0962,0.0095-0.1433l95.6702,7.2339
		l-56.1065,8.4448c-0.213-1.045-0.6224-2.0649-1.2866-2.9822C213.3304,446.8732,208.48,446.0663,204.9923,448.563z
		 M132.4346,338.4813l-45.0165-7.0899c0.4658-3.9025-2.1889-7.5126-6.104-8.1642c-0.4274-0.071-0.8639-0.0907-1.2849-0.088
		l6.4855-56.6562c0.1753,0.049,0.3346,0.109,0.5228,0.1403c1.3392,0.2229,2.6435-0.0676,3.7384-0.6965l43.7724,66.6413
		c-1.1316,0.85-1.945,2.1104-2.1947,3.61C132.2225,336.9674,132.2528,337.7454,132.4346,338.4813z M68.469,347.9701
		c-0.3758-0.0625-0.7464-0.0713-1.1184-0.0703l-32.3369-64.7146c0.6873-0.2382,1.3708-0.5443,1.9895-0.9825
		c3.4884-2.5015,4.2946-7.3471,1.8026-10.8338c-0.0639-0.0829-0.14-0.1441-0.2038-0.2266l43.8651-8.6942
		c0.4498,1.7119,1.6834,3.149,3.3583,3.8237l-6.3826,56.9099c-3.275,0.2908-6.0724,2.7332-6.6363,6.122
		c-0.4831,2.9044,0.8092,5.6746,3.0722,7.2584l-5.575,11.993C69.7236,348.2945,69.122,348.0788,68.469,347.9701z M59.784,150.0241
		c0.5188-0.3632,0.953-0.7931,1.3474-1.2492l15.2972,11.8727c-0.1305,0.2047-0.2528,0.4164-0.3622,0.64l-0.2752,0.664
		c-0.0836,0.2709-0.1739,0.5507-0.2222,0.8419c-0.1237,0.7427-0.0951,1.4721,0.0649,2.1653l0.214,0.6876
		c0.5745,1.5976,1.8359,2.8991,3.4945,3.4699l-11.7161,36.6534c-0.213-0.0549-0.4168-0.1372-0.6428-0.1748
		c-0.653-0.1087-1.2879-0.0936-1.9154-0.0382l-8.2358-54.2561C57.8666,151.0959,58.8729,150.6787,59.784,150.0241z
		 M85.9076,160.5485l28.4619-20.3667c0.8443,1.0243,2.0184,1.7753,3.432,2.0202l-8.7876,79.9259
		c-0.4518,0.0119-0.8942,0.1169-1.2957,0.2968l-24.08-53.5501c1.6267-0.7775,2.8555-2.2973,3.1738-4.2103
		C87.0606,163.1697,86.6941,161.7131,85.9076,160.5485z M108.396,85.7468l3.6837,2.1587l-8.5297,8.3858l-0.6696-1.7243
		l-1.2013-3.1126C104.8858,91.2534,107.6469,88.9697,108.396,85.7468z M112.802,88.3247l63.0343,36.8323
		c-0.2528,0.504-0.4627,1.0389-0.5606,1.6265c-0.0764,0.4607-0.0791,0.9142-0.0435,1.3644l-7.8122,1.1153l-43.0776,6.1684
		c-0.4675-2.2418-2.2443-4.0736-4.6319-4.4709c-0.9214-0.1532-1.8176-0.0511-2.6489,0.2117L103.871,97.1178L112.802,88.3247z
		 M151.4729,60.4799c1.4034-1.0031,2.3588-2.3897,2.8439-3.9124l14.0059,3.784l6.2514,34.4798l4.9639,27.3529
		c-1.365,0.3382-2.5633,1.1819-3.3508,2.3452L113.3337,87.8l28.3631-27.9278C144.3436,62.3123,148.4306,62.6546,151.4729,60.4799z
		 M343.8216,92.4316l22.5155-10.9564l18.2815,9.4951c-0.7651,2.2779-0.4834,4.8799,1.026,6.9859
		c0.6377,0.8984,1.4391,1.5966,2.3228,2.1206l-25.3258,46.6863c-0.6142-0.4016-1.326-0.6798-2.1064-0.8096
		c-0.7614-0.1267-1.5053-0.0956-2.2086,0.0673l-11.8517-32.4939l-4.8242-13.245c1.4778-0.812,2.5918-2.2545,2.8915-4.0544
		C344.7692,94.8644,344.4729,93.54,343.8216,92.4316z M416.8978,113.097l-17.8506-16.5867
		c0.2279-0.5269,0.3995-1.0637,0.5065-1.6207L416.8978,113.097z M471.325,180.8733l-16.1163,96.8584
		c-0.2371-0.0244-0.4756-0.0401-0.707-0.0448l-0.2704-53.3556c2.5745-0.1755,4.7947-2.0812,5.2383-4.7461
		c0.0625-0.3759,0.0819-0.754,0.0663-1.1242l-1.0511-1.3194c2.0095-2.6413,2.1978-6.358,0.1729-9.1966
		c-0.6149-0.8611-1.3915-1.5359-2.2321-2.0576l13.1471-25.6C470.125,180.5385,470.7052,180.7365,471.325,180.8733z M449.0825,279.92
		l-6.1995-3.8186l8.6914-52.2362c0.4189,0.1853,0.8572,0.3355,1.3318,0.4145c0.2069,0.0343,0.4063,0.0289,0.6068,0.043
		l0.2748,53.3853C451.9754,277.8604,450.3127,278.651,449.0825,279.92z M223.8621,406.3955l-39.2634,22.7234l-7.9539,4.6078
		c-0.5749-0.8731-1.3881-1.5594-2.3554-2.0146l30.4337-79.0103l2.8545-7.4031c0.2487,0.0754,0.5001,0.161,0.7634,0.2049
		c0.7753,0.1288,1.5438,0.0968,2.2691-0.0815l16.3392,53.131c-1.8312,0.6998-3.2713,2.3007-3.6168,4.3782
		C223.1266,404.1675,223.3484,405.359,223.8621,406.3955z M173.7088,259.082l-39.5172,9.9967
		c-0.6346-1.9651-2.2935-3.5159-4.4749-3.8791c-1.0101-0.1678-1.997-0.0428-2.8983,0.2952L110.502,228.655
		c0.4848-0.2142,0.903-0.5502,1.2373-0.9635l62.5006,28.344c-0.2286,0.4739-0.4135,0.9744-0.5038,1.5196
		C173.6497,258.0723,173.6572,258.5802,173.7088,259.082z M91.1962,256.3172l8.7515-14.5992l7.8268-13.0434
		c0.2484,0.1041,0.5045,0.1902,0.777,0.2356c0.4328,0.072,0.8555,0.0552,1.2621-0.0369l15.4216,34.8128l0.9265,2.0958
		c-1.3219,0.6883-2.3415,1.8801-2.8008,3.3644l-29.7784-7.1674c0.002-0.0139,0.0054-0.0326,0.0085-0.0517
		C93.9647,259.6806,92.9551,257.5324,91.1962,256.3172z M71.9816,216.8984l12.6833,3.5453l2.5347,34.9281
		c-0.4692,0.0618-0.9125,0.2008-1.3457,0.3656l-17.8007-35.841C69.6625,219.3674,71.0622,218.3297,71.9816,216.8984z
		 M88.9098,255.3714c-0.3384-0.0564-0.6652-0.0669-0.9937-0.0689l-2.5181-34.6504l20.3953,5.7074
		c0.195,0.8007,0.6886,1.4911,1.3586,1.9652L90.5711,255.952C90.0608,255.6789,89.5111,255.4716,88.9098,255.3714z
		 M124.4419,136.1386l43.5027-6.2229l7.3875-1.0603c0.4522,2.2485,2.2368,4.0912,4.6245,4.4884
		c0.3105,0.0518,0.6084,0.0578,0.903,0.0589l2.617,47.6117l1.0243,18.6648c-1.1242,0.1364-2.1672,0.6005-3.006,1.316
		l-58.5148-60.5687c0.7196-0.7839,1.2322-1.7755,1.4201-2.9035C124.4783,137.0528,124.4773,136.5942,124.4419,136.1386z
		 M260.3954,90.0465c2.4675,0.4106,4.7957-1.096,5.52-3.4193l47.044,8.6636c-0.0438,0.379-0.0533,0.7537-0.0231,1.1262
		l-38.9903,5.6071l-15.232,2.194c-0.0163-1.9056-0.9883-3.6421-2.5259-4.6754l4.0129-9.5479
		C260.2674,90.0057,260.3302,90.0356,260.3954,90.0465z M258.6492,105.2168c0.015-0.089,0.0054-0.1777,0.0156-0.2679l54.3653-7.8209
		c0.1777,0.8506,0.5405,1.6306,1.0661,2.3027l-1.0039,0.8667l-71.6996,62.7347c-0.7155-0.5489-1.5567-0.9501-2.5059-1.1079
		c-0.0333-0.0056-0.0676-0.0014-0.1053-0.0076l11.7749-44.5796l1.9606-7.402C255.4567,110.2065,258.1559,108.1825,258.6492,105.2168
		z M395.9185,100.0762l14.1999,28.4216l-45.5434,20.3496c-0.3452-0.6272-0.8028-1.186-1.3589-1.646l25.37-46.8045
		C390.8724,101.4876,393.6236,101.4427,395.9185,100.0762z M422.218,123.0965l-11.359,5.075l-14.2556-28.527
		c0.8779-0.6606,1.5689-1.4731,2.0853-2.3724l24.0498,22.3226c-0.3394,0.4697-0.5938,1.0121-0.6947,1.618
		C421.9337,121.8754,422.0162,122.5124,422.218,123.0965z M441.6427,167.4964l-10.2535,1.7664l-4.7923-9.6024l14.4108,1.6975
		c-0.1454,0.4101-0.267,0.8201-0.3408,1.2619C440.3748,164.3775,440.777,166.0816,441.6427,167.4964z M430.5646,169.4011
		l-19.549,3.3741c0.2534-0.5661,0.4641-1.1638,0.5704-1.803c0.6703-4.0282-2.0516-7.8431-6.0795-8.5132
		c-4.0327-0.671-7.8434,2.0567-8.5137,6.0851c-0.3972,2.3871,0.4148,4.6768,1.9691,6.307l-21.0442,3.6232
		c-0.5143-2.1631-2.2806-3.9154-4.6119-4.3034c-1.01-0.168-1.9932-0.0368-2.8793,0.294l-7.7816-17.7079l-0.1274-0.3061
		c1.3794-0.8285,2.4176-2.2205,2.7036-3.9407c0.0058-0.0326,0.0024-0.0719,0.0078-0.105l60.4058,7.1431L430.5646,169.4011z
		 M448.77,221.2152l-43.9711,25.7892c-0.8449-1.2514-2.1736-2.1779-3.7853-2.4461c-0.9309-0.1548-1.8373-0.0494-2.6791,0.221
		l-23.548-59.8223c1.0739-0.5025,1.9569-1.3408,2.5436-2.3975l67.653,32.2678c0.2385,0.745,0.5612,1.4748,1.0396,2.1439
		c0.5956,0.8332,1.3369,1.4877,2.1498,1.9999C448.224,219.7622,448.4167,220.5233,448.77,221.2152z M423.7625,342.1602
		c0.0384,1.0736,0.3241,2.1454,0.8269,3.1565l0.2752,1.0454c-1.1911,0.3961-2.2365,1.1642-2.9391,2.2212l-86.9298-50.8504
		c0.2473-0.4994,0.4573-1.0348,0.5541-1.6175c0.2198-1.3209-0.0642-2.6044-0.6662-3.6899l60.6035-38.8653
		c0.851,1.1561,2.1311,1.9966,3.6542,2.2501c0.6954,0.1158,1.3759,0.089,2.0309-0.0435l21.3608,81.6776L423.7625,342.1602z
		 M310.4651,220.5614l-31.5888,32.4237c-0.6934-0.5065-1.4966-0.8765-2.4084-1.0284c-0.8456-0.1406-1.6732-0.0758-2.4532,0.1424
		l-6.4536-14.9171l-27.8018-64.2446c0.993-0.3374,1.8655-0.936,2.5385-1.7321l66.5723,42.2799l0.8296,0.5293
		c-0.3081,0.5476-0.5385,1.147-0.6465,1.7957C308.756,217.5962,309.3356,219.3105,310.4651,220.5614z M273.3339,252.3291
		c-0.816,0.3469-1.5271,0.8758-2.1074,1.5471l-12.7118-7.235l-68.2418-38.8337c0.2303-0.4831,0.422-0.9971,0.5151-1.5565
		c0.2409-1.4476-0.1009-2.8475-0.833-3.9931l43.2111-31.6447c0.8395,1.3132,2.194,2.2874,3.8485,2.5628
		c0.7002,0.1165,1.3871,0.081,2.0506-0.045L273.3339,252.3291z M189.9302,208.4464l33.2977,18.9344l47.5563,27.0641
		c-0.4063,0.6136-0.6913,1.31-0.8381,2.0778l-84.9879,1.0498c-0.3809-2.3241-2.1651-4.2582-4.6051-4.6883l4.565-41.8955
		C186.9558,211.0815,188.8495,210.0923,189.9302,208.4464z M184.983,259.4268c0.0635-0.3808,0.0836-0.7637,0.0686-1.1381
		l84.8188-1.0494c-0.0979,1.6311,0.4933,3.1592,1.5675,4.2796l-47.5383,59.4807l-11.3597,14.2185
		c-0.6737-0.479-1.4568-0.8269-2.3259-0.9713c-0.8789-0.1464-1.7428-0.0632-2.5364,0.1766l-8.7098-23.885l-17.109-46.9366
		C183.4524,262.8187,184.6687,261.3161,184.983,259.4268z M224.5175,321.3777l47.453-59.374
		c0.7413,0.5966,1.6158,1.0321,2.6258,1.2002c2.3503,0.3911,4.5966-0.7131,5.7789-2.6224l34.3349,24.2849l10.369,7.3233
		c-0.3832,0.6173-0.6512,1.3022-0.7766,2.054c-0.1484,0.8932-0.0618,1.7673,0.1764,2.5701l-54.6317,20.2481l-55.3652,20.5033
		c-0.319-0.7246-0.7916-1.3681-1.3783-1.9055L224.5175,321.3777z M315.252,284.3671l-34.5517-24.432
		c0.2049-0.4492,0.373-0.9088,0.4576-1.4164c0.3238-1.946-0.3778-3.8254-1.7136-5.0865l31.5266-32.3668
		c0.7651,0.6542,1.6949,1.1323,2.7668,1.3107c0.4084,0.0679,0.8065,0.0863,1.2013,0.0649l13.1025,67.3873
		c-0.9951,0.3513-1.876,0.9679-2.5341,1.7904L315.252,284.3671z M316.1088,222.2636c1.5917-0.4213,2.9292-1.5222,3.661-3.0183
		l74.874,29.3107c-0.0717,0.2249-0.1522,0.4479-0.1926,0.6925c-0.2004,1.2032,0.0095,2.3827,0.5018,3.4019l-60.6592,38.9088
		c-0.8446-1.0196-2.0295-1.7673-3.4344-2.0011c-0.5691-0.0945-1.1174-0.0798-1.6657-0.0071L316.1088,222.2636z M319.6336,213.996
		l48.1424-30.8287c0.851,1.1561,2.1305,2.0015,3.6576,2.2557c0.9308,0.1549,1.8362,0.0542,2.6839-0.2201l23.548,59.8228
		c-1.1942,0.5595-2.1583,1.5343-2.7345,2.7621l-74.8499-29.3116c0.0771-0.2577,0.1641-0.5188,0.2103-0.796
		C320.5111,216.3594,320.241,215.0779,319.6336,213.996z M447.8245,206.1424c-2.5443,1.8177-3.6386,4.8862-3.0895,7.7697
		l-18.0392-8.605l-49.0376-23.3841c0.1454-0.3814,0.2633-0.7722,0.3336-1.1952c0.087-0.5218,0.0758-1.0355,0.0238-1.5368
		l21.6122-3.7267c0.9699,0.7895,2.1291,1.3688,3.4503,1.5886c3.0783,0.5122,6.0146-0.9653,7.5349-3.4846l20.2835-3.4937
		l17.7766,35.5809C448.3922,205.8066,448.0977,205.9509,447.8245,206.1424z M365.267,151.6825
		c0.0201-0.7598-0.1169-1.5029-0.3853-2.185l45.5635-20.3511l14.8056,29.6328L365.267,151.6825z M361.8846,156.7999l7.8771,17.9458
		c-1.539,0.8014-2.7063,2.274-3.0121,4.1115c-0.2215,1.3302,0.0496,2.602,0.6557,3.6931l-26.8366,17.1882l-21.301,13.6413
		c-0.3034-0.4124-0.669-0.7681-1.075-1.087l38.6125-55.7635c0.5647,0.321,1.1813,0.5636,1.8577,0.6762
		C359.7959,157.3941,360.9001,157.23,361.8846,156.7999z M317.6115,211.8677c-0.6023-0.356-1.2679-0.6259-2.0007-0.7479
		c-2.2045-0.3667-4.3017,0.598-5.5295,2.2869l-1.0049-0.6404l-66.3304-42.1335c0.406-0.6377,0.6992-1.3571,0.8303-2.1464
		c0.0907-0.5453,0.0683-1.0758,0.0102-1.5973l25.9336-3.3696l84.4804-10.978c0.2524,1.4429,1.0382,2.7279,2.2083,3.5939
		L317.6115,211.8677z M353.9742,150.6388c-0.0673,0.4043-0.0904,0.8011-0.069,1.1959l-102.8644,13.3628l-7.5537,0.9798
		c-0.2596-1.0236-0.7967-1.944-1.5305-2.6749l20.0134-17.5167l52.5909-46.009c0.8099,0.8208,1.8716,1.4079,3.0984,1.612
		c1.4707,0.2448,2.8826-0.1099,4.0411-0.8588l34.4885,46.2925C355.0529,147.872,354.2246,149.1348,353.9742,150.6388z
		 M249.6721,117.8903l-11.6162,43.9778c-1.9453-0.0387-3.7221,0.9169-4.7903,2.4585l-47.5118-33.6306
		c0.3727-0.6146,0.6448-1.2939,0.7691-2.041c0.1308-0.785,0.0904-1.5597-0.088-2.2849l61.7858-19.0625
		c0.7872,1.2511,2.0425,2.1797,3.575,2.5217L249.6721,117.8903z M232.9099,164.9533c-0.263,0.5067-0.4807,1.0602-0.5806,1.6617
		c-0.1987,1.1937-0.0058,2.3559,0.4726,3.3729l-22.4153,16.4216l-20.857,15.2709c-0.8415-1.0095-2.0214-1.7564-3.4221-1.9895
		c-0.3007-0.05-0.5945-0.0559-0.8843-0.0556l-3.6498-66.283c1.4921-0.1721,2.8307-0.9298,3.751-2.0809L232.9099,164.9533z
		 M180.9649,201.4819c-0.7151,0.7841-1.2278,1.776-1.4147,2.8993c-0.1189,0.7143-0.0802,1.4118,0.0547,2.081l-67.1818,18.2519
		c-0.3167-1.2601-1.3406-2.2757-2.6955-2.5254l8.7835-79.9269c1.4809,0.0678,2.8687-0.4352,3.9433-1.3481L180.9649,201.4819z
		 M136.8861,238.3098l-24.7514-11.2235c0.1576-0.3073,0.284-0.6338,0.3428-0.9862c0.0374-0.2256,0.0503-0.4456,0.0438-0.6693
		l34.1623-9.2797l33.1207-8.9984c0.6523,1.91,2.2667,3.4152,4.3934,3.7833l-4.5086,41.4658l-0.0506,0.4213
		c-2.0697-0.1029-3.9854,0.902-5.0658,2.5769L136.8861,238.3098z M178.4203,264.1213c0.9635,0.1603,1.9107,0.0421,2.7719-0.2585
		l17.2751,47.3892l8.5243,23.4053c-1.7034,0.7453-3.0066,2.3061-3.3358,4.2847c-0.0197,0.1172-0.0058,0.2357-0.0204,0.354
		l-59.972-2.3183c-0.0452-1.9637-1.0987-3.733-2.7342-4.7291l17.3024-33.0096l18.6698-35.6262
		C177.3756,263.841,177.8798,264.0313,178.4203,264.1213z M143.5917,338.0481c0.0187-0.1132,0.0099-0.2354,0.0245-0.3537
		l59.9726,2.3184c0.0476,2.1814,1.3569,4.124,3.3168,5.0298l-10.5083,27.2756l-22.7846,59.1365
		c-0.2484-0.0754-0.4991-0.1651-0.7621-0.2089c-0.8415-0.14-1.664-0.0741-2.4294,0.1413l-15.8944-46.7148l-14.3891-42.2962
		C141.8961,341.649,143.2554,340.0688,143.5917,338.0481z M211.2859,345.1917c1.4755-0.5663,2.6988-1.7054,3.29-3.2251
		l92.8056,29.937c-0.037,0.1631-0.0941,0.3034-0.1213,0.4682c-0.1464,0.8785-0.0669,1.7371,0.1719,2.5351l-73.2596,26.6837
		c-0.7495-1.7092-2.3031-3.0253-4.2773-3.3539c-0.7851-0.1308-1.5502-0.089-2.2691,0.0812L211.2859,345.1917z M307.5771,371.2215
		l-40.5541-13.0948l-52.2491-16.8566c0.0398-0.1525,0.1023-0.2973,0.1291-0.4569c0.1485-0.8928,0.0608-1.7574-0.1807-2.5704
		l109.9961-40.7515c0.6673,1.5067,1.9888,2.6785,3.6498,3.148l-4.1359,18.9657l-10.4863,48.069
		C311.0702,367.2673,308.5375,368.7876,307.5771,371.2215z M324.9609,319.6057l4.1013-18.7836
		c2.2487,0.3312,4.3832-0.6808,5.5829-2.4614l86.9298,50.8497c-0.2514,0.4943-0.4566,1.0304-0.5524,1.6083
		c-0.0941,0.5643-0.0771,1.1031-0.0075,1.6409l-102.6143,19.4328c-0.4923-1.9174-1.9763-3.4782-3.9637-4.0459L324.9609,319.6057z
		 M318.0806,375.5871l58.1771,21.2629l-33.8331,33.3113c-2.0544-1.9069-4.9802-2.5239-7.6209-1.6881l-18.6073-50.5331
		C317.019,377.3523,317.6655,376.5421,318.0806,375.5871z M351.4792,387.0371l-33.155-12.1292
		c0.0612-0.2215,0.1407-0.4403,0.178-0.6655c0.0931-0.5592,0.072-1.099,0.0116-1.6358l101.993-19.3282l-43.6875,43.0131
		L351.4792,387.0371z M427.0018,335.5504c-1.6059,1.1479-2.6156,2.8011-3.0237,4.5881l-3.2784-12.5195l-18.839-72.0417
		c1.1558-0.3873,2.1566-1.1194,2.8582-2.1135l10.353,6.3744l9.5612,5.8794c-0.3177,3.7972,2.2973,7.2704,6.1183,7.906
		c1.8332,0.3051,3.6036-0.1199,5.0722-1.0202l6.1866,3.8067l-9.6118,57.7681C430.5541,333.9683,428.6264,334.3814,427.0018,335.5504
		z M436.4771,272.1611c1.4245-1.1007,2.4681-2.6999,2.7872-4.6173c0.6703-4.0279-2.0568-7.8434-6.0847-8.5134
		c-3.9667-0.6601-7.699,1.9742-8.458,5.8957l-13.1321-8.0779l-6.5025-3.9994c0.2911-0.5313,0.512-1.1031,0.6159-1.7282
		c0.2072-1.2455-0.0177-2.4468-0.549-3.4918l21.8537-12.8153l22.118-12.9789c0.4373,0.6519,1.0155,1.2122,1.6929,1.639
		l-8.6806,52.1703L436.4771,272.1611z M449.3951,205.2923l-17.6682-35.3594l10.3534-1.7841
		c1.0606,1.3744,2.6088,2.3754,4.4512,2.6819c0.5405,0.09,1.0749,0.1018,1.5964,0.0728l3.9749,33.8204
		C451.1889,204.7603,450.2719,204.9314,449.3951,205.2923z M441.3182,160.68l-15.1053-1.7887l-15.0264-30.0756l11.3281-5.061
		c0.55,0.9898,1.5227,1.7362,2.7304,1.9372c0.7332,0.122,1.4554,0.02,2.0985-0.2448l16.7346,32.234
		C442.8983,158.3829,441.9355,159.4113,441.3182,160.68z M388.2354,86.6789l-6.0782-10.0583l8.7339,9.1672
		C389.9715,85.9146,389.0817,86.2113,388.2354,86.6789z M377.4635,76.0617c0.4878,0.4916,1.1238,0.8488,1.8573,0.9708
		c0.7002,0.1165,1.3793,0.0124,1.9799-0.2596l6.2355,10.3065c-0.0272,0.0197-0.0578,0.0289-0.0907,0.0526
		c-1.1449,0.814-1.9674,1.8944-2.5079,3.0845l-17.6957-9.1849L377.4635,76.0617z M348.0072,119.8196l9.6345,26.4256
		c-0.2888,0.1111-0.5707,0.2383-0.8378,0.3919l-4.0867-5.4862l-30.4463-40.8624c0.99-0.8398,1.7197-2.0034,1.9504-3.39
		c0.0577-0.3474,0.0717-0.6927,0.0612-1.0328l0.9638-0.0761c0.9703,2.2091,2.9971,3.9035,5.5591,4.3297
		c1.5179,0.2526,3.0155,0.019,4.3194-0.59c0.7712,0.708,1.7449,1.2128,2.8636,1.399c1.0525,0.1751,2.0775,0.027,3.0022-0.3358
		L348.0072,119.8196z M324.7197,91.6105c-0.2008,1.2081-0.0639,2.3853,0.2861,3.4772l-0.7882,0.0618
		c-0.3455-2.3907-2.176-4.3951-4.686-4.8128c-1.1843-0.197-2.3312-0.0109-3.3416,0.4584l-7.5438-13.8233l-9.4779-17.3817
		c0.3193-0.2076,0.623-0.437,0.8989-0.7002l29.3758,27.034C327.0469,86.8247,325.1695,88.9081,324.7197,91.6105z M315.5652,91.1547
		c-1.2047,0.7654-2.0995,1.9643-2.4695,3.434l-42.6472-7.8592l-4.3537-0.8021c0.1879-1.1854-0.0815-2.3267-0.6512-3.2861
		l26.6875-23.8067c0.8086,0.8013,1.8573,1.3769,3.0702,1.5788c1.1796,0.1962,2.3319,0.0061,3.3467-0.4626L315.5652,91.1547z
		 M291.6663,58.289l-26.6314,23.7624c-0.7376-0.91-1.7778-1.5658-3.0141-1.7717c-2.2372-0.3722-4.354,0.8257-5.2788,2.7829
		l-24.9732-10.2367l59.4525-15.2293C291.3605,57.8324,291.4948,58.0719,291.6663,58.289z M256.4909,83.731
		c-0.068,0.2059-0.1349,0.4024-0.1709,0.6185c-0.3971,2.3877,0.9893,4.6518,3.188,5.4573l-3.9484,9.3899
		c-0.5042-0.248-1.0216-0.4503-1.5947-0.5458c-2.3876-0.3973-4.6673,0.7598-5.8305,2.7301l-10.0324-6.7894l-37.8416-25.6219
		l15.4572,4.1755c-0.0228,0.1074-0.0683,0.2057-0.0863,0.3139c-0.67,4.0279,2.0533,7.838,6.0813,8.5082
		c4.0279,0.6703,7.8377-2.0527,8.5079-6.0806c0.1508-0.9073,0.1108-1.7979-0.0612-2.6523l0.4488-0.1138L256.4909,83.731z
		 M215.9249,72.3635l-17.7273-4.7852l-20.1823-13.6609c0.2215-0.5186,0.3975-1.0546,0.494-1.6326
		c0.0278-0.1694,0.0122-0.3363,0.0306-0.5067l40.533,16.6171C217.6202,69.2883,216.4875,70.6652,215.9249,72.3635z
		 M177.6949,54.5647l18.3769,12.4373l-27.139-7.3264l-0.3054-1.6786c0.4376,0.1599,0.8894,0.2879,1.3688,0.3677
		C173.1969,58.8973,176.2358,57.2681,177.6949,54.5647z M198.1337,68.3981l49.6756,33.6291
		c-0.1797,0.4143-0.3289,0.8485-0.407,1.3181c-0.195,1.1706-0.0136,2.3165,0.4471,3.3206l-61.6488,19.0225
		c-0.7005-1.8264-2.2946-3.2511-4.372-3.5966c-0.5307-0.0883-1.0637-0.0802-1.5811-0.0168l-8.0385-44.2918l-3.1191-17.222
		L198.1337,68.3981z M107.0978,222.785c-0.6978,0.507-1.203,1.2777-1.3555,2.1945c-0.0289,0.1738-0.0326,0.3423-0.0326,0.5159
		l-20.3715-5.703l-2.6003-35.9249l-1.0552-14.4732c0.4454-0.0367,0.8721-0.1349,1.2822-0.2743L107.0978,222.785z M81.9391,182.7733
		l2.6645,36.8194l-12.2345-3.4266c0.3139-0.6387,0.5721-1.3204,0.6948-2.0583c0.5881-3.5339-1.4306-6.9034-4.6574-8.1213
		l11.7171-36.658c0.0469,0.0076,0.0876,0.0245,0.1298,0.0314c0.2399,0.0399,0.4726,0.0352,0.7121,0.0459L81.9391,182.7733z
		 M64.5546,220.1933c0.9312,0.1549,1.8377,0.1029,2.7026-0.0717l17.8762,35.9694c-0.7203,0.4114-1.3498,0.9727-1.8353,1.6552
		l-0.3605,0.6261c-0.2748,0.5194-0.4926,1.0725-0.5942,1.6837c-0.0955,0.5732-0.073,1.1371-0.001,1.6902l-44.3027,8.7706
		c-0.4838-0.4909-1.0093-0.9312-1.5811-1.2676l26.2367-49.6646C63.2782,219.8553,63.8925,220.0831,64.5546,220.1933z
		 M91.3841,265.5498c0.9394-0.7083,1.6453-1.7017,2.0055-2.8786l29.7831,7.1681c-0.0037,0.0231-0.0146,0.0313-0.017,0.0452
		c-0.5178,3.1116,1.5872,6.0507,4.689,6.5667c0.4607,0.0768,0.919,0.0805,1.3681,0.0493l2.7998,20.2451l4.8228,34.7925
		c-0.601,0.1271-1.1554,0.3537-1.6779,0.6482L91.3841,265.5498z M133.6786,303.5389l-3.7629-27.1386
		c2.2504-0.4617,4.0925-2.2419,4.492-4.6435c0.1118-0.672,0.0771-1.3344-0.0329-1.981l15.6668-3.962l23.7658-6.0197
		c0.3363,1.4371,1.2193,2.69,2.4529,3.4894l-18.4927,35.2892l-17.4854,33.3554c-0.4311-0.1974-0.8826-0.3547-1.3763-0.4369
		c-0.4607-0.0765-0.9142-0.0795-1.3637-0.0482L133.6786,303.5389z M136.2715,342.5343c0.2463,0.0846,0.4987,0.1651,0.762,0.209
		c0.8364,0.1393,1.6582,0.0781,2.4226-0.1328l14.4761,42.5276l15.8089,46.4791c-1.0216,0.4192-1.8985,1.133-2.5205,2.0537
		l-49.7663-29.6884c0.565-0.7271,0.993-1.5879,1.1565-2.5704c0.4006-2.4063-0.778-4.6985-2.7631-5.8597L136.2715,342.5343z
		 M116.9709,404.5351l44.7423,26.6736l-48.2433-25.0534C114.8081,406.0395,116.0407,405.4528,116.9709,404.5351z M234.4072,405.4307
		c0.054-0.2079,0.1349-0.4023,0.1726-0.6282c0.1461-0.8789,0.0622-1.7381-0.1722-2.5351l73.2545-26.6797
		c0.7491,1.7089,2.3092,3.0165,4.2834,3.345c1.2971,0.2157,2.5572-0.0428,3.6355-0.6316l18.5593,50.4142
		c-0.5259,0.2263-1.0314,0.4804-1.5138,0.8249c-1.5791,1.1286-2.5816,2.744-2.9941,4.4964L234.4072,405.4307z M433.1959,334.3209
		l9.5588-57.4488l5.872,3.6093c-0.7573,0.9513-1.3114,2.0758-1.5258,3.3637c-0.513,3.0838,0.9686,6.0255,3.4983,7.5428
		l-17.3197,42.9516C433.2468,334.3341,433.2193,334.3246,433.1959,334.3209z M468.8496,179.9302l-13.129,25.5501
		c-0.8813-0.4216-1.8315-0.6618-2.8008-0.7316l-3.9857-33.9573c2.9003-0.5076,5.2998-2.765,5.8098-5.8292
		c0.6465-3.8874-1.9776-7.5647-5.8693-8.2122c-1.4473-0.2409-2.865-0.0228-4.1128,0.5373l-16.7034-32.2189
		c0.0387-0.0272,0.0853-0.0487,0.1247-0.0807l38.8079,41.524c-1.186,1.2085-2.0567,2.754-2.3567,4.5589
		C464.0281,174.713,465.8267,178.1857,468.8496,179.9302z M423.4713,118.8179l-23.8004-24.9812
		c0.0928-1.6895-0.3343-3.4174-1.3956-4.9076c-1.5241-2.1327-3.9226-3.2465-6.3588-3.2363l-9.4001-9.8671
		c0.3696-0.451,0.6428-0.9896,0.7467-1.6149c0.251-1.5088-0.5395-2.9397-1.84-3.6002l2.9828-8.1737
		c0.67,0.2993,1.3623,0.55,2.1193,0.6761c1.9361,0.322,3.8098-0.0521,5.4154-0.9057l32.944,55.8941
		C424.3594,118.2411,423.8889,118.4867,423.4713,118.8179z M383.6796,62.0692l-3.0125,8.2657
		c-0.0747-0.0173-0.1467-0.0486-0.2218-0.0611c-0.9587-0.1595-1.8825,0.1072-2.6092,0.6431l-0.2215-0.2348l0.1699,0.284
		c-0.176,0.1299-0.3377,0.2871-0.4807,0.4512l-20.839-14.0692c0.4614-0.7685,0.8031-1.6341,0.9597-2.574
		c0.1046-0.6301,0.1012-1.2489,0.0435-1.8575l21.8942,1.5127C379.2902,57.6201,380.9848,60.5292,383.6796,62.0692z
		 M365.5466,81.0588l-22.117,10.7669c-0.85-1.1029-2.0925-1.9086-3.5683-2.1542c-0.4043-0.0673-0.8072-0.0858-1.2019-0.0644
		c-1.0148-2.0865-2.9727-3.673-5.4259-4.0812c-1.0389-0.1729-2.0632-0.1113-3.0213,0.1299l-29.6649-27.2997
		c0.5966-0.7411,1.044-1.6277,1.2122-2.6383c0.0398-0.2397,0.036-0.4768,0.0418-0.7177l12.9361-0.3251L365.5466,81.0588z
		 M301.7955,54.2795c-0.2218-2.5244-2.1087-4.6832-4.7223-5.1181c-2.2463-0.3739-4.3884,0.627-5.6019,2.3762l-10.7509-11.0675
		c0.7189-0.7787,1.2723-1.6674,1.6199-2.6236l31.0772,16.1399L301.7955,54.2795z M140.7013,58.7405
		c0.1437,0.1837,0.3085,0.3511,0.4594,0.5212l-28.5543,28.1181l-4.0673-2.3773c0.2038-1.6611-0.159-3.2528-0.9435-4.6054
		L140.7013,58.7405z M100.0103,91.3794c0.2959,0.0493,0.5915,0.0455,0.8939,0.0567l1.1969,3.112l0.8982,2.2941l-5.9841,5.8922
		l2.8245-11.4027C99.9009,91.3419,99.9539,91.3701,100.0103,91.3794z M103.3122,97.6623l13.072,33.7499
		c-0.8846,0.4128-1.6399,1.0601-2.212,1.8587l-0.3815,0.6078c-0.2983,0.5444-0.5354,1.1281-0.6424,1.7721
		c-0.2378,1.4289,0.1029,2.8087,0.8069,3.9453l-28.4908,20.3953c-0.6091-0.6953-1.3725-1.2428-2.2582-1.583l13.4341-54.1764
		L103.3122,97.6623z M52.6272,151.0016c1.0841,0.3931,2.2487,0.5339,3.4024,0.4211l8.2372,54.2469
		c-1.2502,0.2553-2.3775,0.8454-3.3202,1.6644l-15.1029-15.5643L52.6272,151.0016z M71.0299,348.9223l5.5455-11.9352
		c0.7087,0.3887,1.4697,0.6893,2.3109,0.8293c3.9528,0.6577,7.678-1.9589,8.4533-5.8631l45.3348,7.2054
		c0.5218,1.3617,1.5618,2.4865,2.9251,3.1187l-20.399,52.9547c-0.4009-0.1729-0.8228-0.3108-1.2737-0.3859
		c-2.562-0.4264-4.9832,0.9485-6.0541,3.1755l-0.2772,0.6785c-0.0886,0.2704-0.1817,0.5398-0.232,0.8405
		c-0.0842,0.5079-0.0713,1.0124-0.0245,1.5128l0.1013,0.7267c0.1305,0.5534,0.3465,1.082,0.6326,1.5685l-9.8085-5.0902
		c0.8408-2.3231,0.5667-5.0016-0.9717-7.1653c-2.2141-3.0926-6.2745-4.0632-9.6063-2.5015L73.208,359.6066
		c0.6533-0.905,1.1445-1.9443,1.3409-3.1238C75.0643,353.3854,73.5701,350.4366,71.0299,348.9223z M176.7298,439.9188l25.2654,13.13
		c-0.1134,0.4787-0.1753,0.9659-0.2008,1.4687l-25.1016-14.5471C176.705,439.9531,176.7179,439.9361,176.7298,439.9188z
		 M214.0193,461.1937c0.6258-0.4515,1.1572-0.9717,1.6073-1.5584l24.3732,17.0098l-26.3274-15.253
		C213.7863,461.319,213.9052,461.2711,214.0193,461.1937z M314.9615,440.7488c-3.9854-0.6631-7.7459,1.9959-8.4764,5.9508
		l-26.4599-2.002l49.5013-7.4422c0.1312,0.6931,0.3547,1.3776,0.6768,2.0303l-10.0772,5.0854
		C319.0574,442.5219,317.232,441.1266,314.9615,440.7488z M437.8309,337.3523c-0.9907-1.3915-2.3662-2.2969-3.8628-2.7967
		l17.2772-42.8429c0.6047,0.284,1.2407,0.5252,1.9409,0.6417c1.5088,0.2511,2.9812,0.0225,4.2824-0.5673l11.022,21.0479
		c-2.1349,1.2485-3.7177,3.3858-4.1546,6.0133c-0.3441,2.068,0.0999,4.0737,1.0926,5.7411l-26.8611,14.0541
		C438.3612,338.1989,438.1244,337.7638,437.8309,337.3523z M472.5517,311.6518c-1.1802,0.0401-2.3034,0.3459-3.3399,0.8252
		l-11.0475-21.0958c1.8019-1.0767,3.1541-2.8759,3.5258-5.1082c0.4998-3.0033-0.886-5.8812-3.2852-7.4297l0.6095-0.7583
		c0.0156-0.0938,0.0356-0.1875,0.0513-0.2813c0.0625-0.3757,0.1111-0.7542,0.1736-1.1303l-1.4829,1.8305
		c-0.5476-0.2796-1.1296-0.497-1.7486-0.6393l16.1139-96.844c0.4882,0.0571,0.9679,0.079,1.4503,0.053L472.5517,311.6518z
		 M393.2448,61.3668l74.5819,104.3616c-0.0836,0.0681-0.1556,0.1525-0.2402,0.2256l-38.8102-41.515
		c0.4749-0.5294,0.8167-1.1921,0.9427-1.9492c0.352-2.1148-1.0821-4.1212-3.1969-4.4729c-0.2633-0.0438-0.5262-0.059-0.7834-0.0533
		l-33.0969-56.1659C392.8436,61.6571,393.0505,61.518,393.2448,61.3668z M379.7387,52.1109
		c-0.108,0.3589-0.2297,0.7106-0.2928,1.0914c-0.0241,0.1452-0.0122,0.2779-0.0265,0.4204l-22.0613-1.5263
		c-0.5915-2.9192-2.9017-5.3175-6.0133-5.8353c-4.0279-0.6703-7.8434,2.0563-8.5137,6.0847
		c-0.0506,0.3051-0.0462,0.5957-0.0581,0.8979l-27.6823,0.7026l-32.5394-16.9055c0.5222-2.1201,0.1838-4.4422-1.1877-6.3605
		c-2.496-3.4874-7.342-4.2936-10.8287-1.8018c-0.209,0.1532-0.4009,0.3195-0.5928,0.4855l-15.5959-16.0567
		c0.5185-0.7928,0.935-1.6701,1.1728-2.6352L379.7387,52.1109z M239.476,12.3936c1.184,2.4089,3.4537,4.2405,6.3062,4.7152
		c3.1823,0.5297,6.2073-0.7833,8.0768-3.1386l15.5055,15.9645c-1.4677,1.5913-2.1808,3.6995-2.0374,5.8001L178.3218,49.114
		c-0.741-2.688-2.9598-4.8539-5.8971-5.3428c-4.0279-0.6701-7.8394,2.0576-8.5093,6.0855c-0.0805,0.4841-0.1077,0.9672-0.0996,1.442
		l-9.2452,1.3938c-0.2086-1.0685-0.621-2.1031-1.291-3.0405c-2.4954-3.4923-7.3464-4.2993-10.8382-1.8035
		c-2.0238,1.4503-3.1167,3.6931-3.2068,6.0062l-20.8916,0.2675c-0.0659-1.1124-0.3261-2.1896-0.7882-3.1597L239.476,12.3936z
		 M104.8135,61.6425c1.0277,0.7313,2.2178,1.2722,3.5482,1.4935c4.6951,0.7812,9.1307-2.3931,9.9114-7.0836
		c0.0625-0.3764,0.086-0.749,0.0948-1.1194l20.8668-0.2667c0.0765,1.1672,0.4318,2.3129,1.0457,3.3812l-33.1064,21.6611
		c-1.1028-1.5021-2.7569-2.5934-4.7352-2.9226c-4.033-0.671-7.8475,2.0511-8.5185,6.0838
		c-0.6156,3.6987,1.6498,7.1818,5.1422,8.2556l-3.149,12.6865l-35.0752,34.5343c-2.6323-2.7325-6.9081-3.2169-10.0813-0.9528
		c-3.4874,2.4962-4.2939,7.3422-1.802,10.8289c0.0415,0.0697,0.0962,0.1174,0.1393,0.1775L30.449,164.1685
		c-0.25-0.2686-0.5171-0.5208-0.7967-0.7552L104.8135,61.6425z M24.4745,178.6217c2.0272-0.0781,3.9212-0.8645,5.3824-2.1571
		l15.1158,15.5758l-12.6588,76.0796c-1.5081,0.0343-3.0158,0.5031-4.3367,1.4473c-3.4867,2.4916-4.2929,7.3372-1.8026,10.8335
		c0.9998,1.3932,2.3815,2.3475,3.9028,2.8425l-5.5723,20.63c-0.2083-0.0544-0.3978-0.1339-0.6095-0.1692
		c-0.1315-0.0218-0.264-0.0102-0.3961-0.0275L24.4745,178.6217z M102.7285,427.2528l-76.6407-107.23
		c0.8894-0.4124,1.7041-0.9821,2.4019-1.6627l32.6288,32.7966c-0.5724,0.8565-0.9849,1.8261-1.1633,2.8979
		c-0.6693,4.0231,2.0527,7.8377,6.0857,8.5089c2.5334,0.4213,4.9778-0.5099,6.615-2.2514l14.332,28.6752
		c-0.1777,0.1104-0.3642,0.1855-0.529,0.3031c-3.4925,2.5004-4.2986,7.3464-1.8026,10.8338
		c2.0863,2.9071,5.801,3.9209,9.0019,2.7393l10.1615,23.6099C103.4426,426.7055,103.0723,426.9576,102.7285,427.2528z
		 M115.9921,437.56c0.3207-0.6519,0.5697-1.3345,0.7301-2.0666l49.534,2.0594c0.1994,1.6464,1.1133,3.1222,2.4722,4.0388
		c0.7654,0.3064,1.5291,0.622,2.3014,0.9146c1.999,0.3227,3.9175-0.4641,5.1585-1.8852l25.6465,14.845
		c0.09,1.3725,0.5018,2.7308,1.3559,3.9256c2.2304,3.115,6.335,4.0779,9.6705,2.4641l27.649,16.0188
		c-0.1781,0.3425-0.3506,0.6856-0.4848,1.0545L115.9921,437.56z M255.9433,478.216c-0.1026-0.2246-0.2263-0.4383-0.3452-0.6516
		l51.7514-25.8718c1.0613,1.8672,2.9,3.2696,5.184,3.6498c4.0279,0.6703,7.837-2.0479,8.509-6.0853
		c0.2446-1.471,0.0292-2.903-0.5331-4.1702l10.083-5.094c0.0751,0.1281,0.1515,0.2521,0.2331,0.372
		c2.4912,3.4911,7.3457,4.2987,10.829,1.802c2.0272-1.4453,3.1194-3.6834,3.2125-5.9865l34.2368,0.4029
		c0.1287,0.8524,0.3835,1.6722,0.7487,2.4383L255.9433,478.216z M392.4128,428.1857c-0.2469-0.1715-0.5109-0.3261-0.7719-0.4709
		l33.1571-70.5876c0.2921,0.1019,0.5894,0.2045,0.9088,0.2575c1.1748,0.1954,2.302-0.0177,3.3029-0.4885
		c1.134-1.7918,2.229-3.6144,3.3073-5.449c-0.0278-0.6472-0.194-1.2737-0.4345-1.8597c1.4398-0.0598,2.8799-0.5011,4.1465-1.4061
		c2.8405-2.034,3.8675-5.6213,2.8113-8.7679l27.0306-14.1414c0.4043,0.5599,0.8776,1.0827,1.4109,1.5339L392.4128,428.1857z"/>
	<g>
		
			<ellipse transform="matrix(0.5977 -0.8017 0.8017 0.5977 -102.0709 482.8359)" class="st3" cx="430.082" cy="343.1256" rx="22.0698" ry="22.0697"/>
		
			<ellipse transform="matrix(0.5977 -0.8017 0.8017 0.5977 7.0565 449.7841)" class="st3" cx="451.7124" cy="217.8607" rx="22.0698" ry="22.07"/>
		
			<ellipse transform="matrix(0.5977 -0.8017 0.8017 0.5977 -204.2383 132.807)" class="st3" cx="30.2162" cy="269.9164" rx="22.07" ry="22.0698"/>
		
			<ellipse transform="matrix(0.5977 -0.8017 0.8017 0.5977 24.0012 147.5445)" class="st3" cx="159.0205" cy="49.8564" rx="22.0699" ry="22.0698"/>
		
			<ellipse transform="matrix(0.5977 -0.8017 0.8017 0.5977 -220.3053 438.3917)" class="st3" cx="326.6821" cy="438.7188" rx="22.0698" ry="22.0698"/>
		
			<ellipse transform="matrix(0.5977 -0.8017 0.8017 0.5977 59.6876 301.1835)" class="st3" cx="329.9565" cy="91.1164" rx="22.0698" ry="22.0698"/>
		
			<ellipse transform="matrix(0.5977 -0.8017 0.8017 0.5977 -129.5148 87.1383)" class="st3" cx="22.0711" cy="172.6235" rx="22.0699" ry="22.0698"/>
	</g>
</g>
</svg>
