<?xml version="1.0" encoding="utf-8"?>
<!-- Generator: Adobe Illustrator 22.0.1, SVG Export Plug-In . SVG Version: 6.00 Build 0)  -->
<svg version="1.1" id="Capa_1" xmlns="http://www.w3.org/2000/svg" xmlns:xlink="http://www.w3.org/1999/xlink" x="0px" y="0px"
	 viewBox="0 0 708.2 490.4" style="enable-background:new 0 0 708.2 490.4;" xml:space="preserve">
<style type="text/css">
	.st0{opacity:0.64;}
	.st1{fill:#FFFFFF;}
</style>
<g>
	<g class="st0">
		<path class="st1" d="M576.4,311.8c-0.3,0-0.6,0-0.9-0.1l1-130.7c3.6-0.5,6.6-3.3,7.2-7.1c0.8-4.7-2.4-9.1-7.1-9.9
			c-2.2-0.4-4.3,0.2-6.1,1.3L496,60.8c1.3-1.2,2.3-2.9,2.6-4.8c0.8-4.7-2.4-9.1-7.1-9.9c-4-0.7-7.9,1.6-9.4,5.2L357.9,9.9
			c0.7-4.6-2.4-9-7.1-9.8c-4.7-0.8-9.1,2.4-9.9,7.1c-0.3,1.6-0.1,3.1,0.5,4.4l-122,38.6c-1.2-2.1-3.3-3.7-5.9-4.1
			c-4.7-0.8-9.1,2.4-9.9,7.1c-0.5,3.1,0.7,6,2.9,7.9l-75.2,101.8c-1-0.7-2.2-1.2-3.4-1.4c-4.7-0.8-9.1,2.4-9.9,7.1
			c-0.8,4.7,2.4,9.1,7.1,9.9c0.3,0.1,0.6,0,0.9,0.1l-1,125.1c-4.2-0.1-8,2.9-8.7,7.2c-0.8,4.7,2.4,9.1,7.1,9.9
			c1.5,0.2,2.9,0.1,4.2-0.4l76.8,107.5c-1.2,1.2-2,2.8-2.3,4.6c-0.8,4.7,2.4,9.1,7.1,9.9c3.6,0.6,7-1.1,8.7-4L342,479.7
			c-0.1,0.2-0.1,0.4-0.2,0.7c-0.8,4.7,2.4,9.1,7.1,9.9c4.7,0.8,9.1-2.4,9.9-7.1c0.2-1.5,0.1-2.9-0.4-4.3l124.1-39.2
			c1.3,2.1,3.3,3.7,5.9,4.1c4.7,0.8,9.1-2.4,9.9-7.1c0.5-3.1-0.8-6.2-3.1-8l74.9-101.4c1,0.7,2.2,1.2,3.5,1.4
			c4.7,0.8,9.1-2.4,9.9-7.1C584.3,317,581.1,312.5,576.4,311.8z M491.2,426.8c-0.2,0-0.3,0-0.5,0l1.1-18c3.6,0,6.7-2.5,7.3-6.2
			c0.5-2.9-0.8-5.7-3.1-7.2l17-22.3l12.6-16.5c0.2,0.1,0.4,0.2,0.6,0.3l-33.2,70.6C492.5,427.1,491.9,426.9,491.2,426.8z
			 M481.3,433.9c-0.1,0.6-0.1,1.3-0.1,1.9l-34.2-0.4c-0.1-1.2-0.4-2.3-1-3.4l39.9-26.2c1.1,1.5,2.8,2.6,4.7,2.9c0.1,0,0.2,0,0.4,0
			l-1.1,18C485.7,426.7,482,429.6,481.3,433.9z M351.7,473.3c-3.2-0.5-6.3,0.8-8.2,3.3L318.3,459c0.9-1.5,1.3-3.1,1.1-4.8l59.6-9
			l29.6,2.2c-0.1,1.3,0.1,2.5,0.6,3.6l-51.8,25.9C356.1,475.1,354.1,473.7,351.7,473.3z M219,434.7c0.5-4.5-2.6-8.7-7.1-9.4
			c-1.8-0.3-3.6,0-5.2,0.8l-10.1-23.5c0.4-0.2,0.7-0.4,1.1-0.6c1.1-0.8,1.9-1.8,2.4-2.9l11.7,6.1c0.5,0.4,1,0.6,1.6,0.8l55.5,28.8
			c-0.2,0.4-0.3,0.8-0.4,1.2c0,0.3-0.1,0.5-0.1,0.8L219,434.7z M127.5,304.1l5.6-20.6c1.1,0.2,2.3,0.2,3.4,0l32.2,64.5
			c-1.9,0.2-3.6,1.1-4.8,2.6l-32.6-32.8c1-1.1,1.7-2.6,1.9-4.1C133.9,309.4,131.4,305.4,127.5,304.1z M147.9,192.8l14.7,15.1
			c-0.9,1-1.6,2.3-1.9,3.8c-0.5,3.1,1,6,3.5,7.5l-26.2,49.7c-0.8-0.4-1.7-0.6-2.6-0.7L147.9,192.8z M133.2,164.8l18.7-15.8
			c0.7,0.7,1.4,1.2,2.2,1.6l-6.7,40.4l-14.7-15.2c1.1-1.2,1.9-2.7,2.2-4.5C135.3,169,134.6,166.6,133.2,164.8z M163.8,139.2
			c-0.1-0.1-0.1-0.2-0.2-0.2l34.2-33.6l-13.1,52.9c-0.1,0-0.2-0.1-0.3-0.1c-1.2-0.2-2.3,0-3.3,0.4l-0.6,0.4
			c-0.5,0.3-0.9,0.7-1.3,1.1l-15.3-11.9C165.6,145.5,165.7,141.9,163.8,139.2z M256.9,53.5l9.3-1.4c0.3,2.4,1.8,4.4,3.9,5.5l0.3,1.9
			l-13.6-3.7C256.9,55,256.9,54.3,256.9,53.5z M381.8,41.5c0.2-0.1,0.4-0.3,0.6-0.5l10.9,11.2c-0.2,0.5-0.4,1-0.5,1.6
			c-0.2,1.1,0,2.1,0.4,3l-60.4,15.5L332,72c-0.9-2.4-3-4.2-5.7-4.6c-1.5-0.3-3,0-4.3,0.6L280.8,51c0-0.4-0.1-0.7-0.1-1.1l88.9-13.4
			c0.2,1.1,0.6,2.2,1.3,3.2C373.4,43.2,378.3,44,381.8,41.5z M451.1,60.9c2.8,0.5,5.5-0.7,7.1-2.9L479,72.1c-0.2,0.3-0.3,0.6-0.3,1
			c-0.1,0.9,0.1,1.7,0.5,2.4l-10.6,5.1l-50-26l26.3-0.7C445.1,57.3,447.6,60.3,451.1,60.9z M525.1,356.1l-13.3,17.5L495.5,395
			c-0.7-0.4-1.5-0.7-2.4-0.9c-3.4-0.6-6.7,1.3-8,4.4l-5.3-1.9l43.6-43C523.8,354.6,524.4,355.4,525.1,356.1z M445.6,431.3
			c-0.1-0.2-0.3-0.4-0.5-0.5l34.1-33.6l5.6,2c-0.1,0.3-0.2,0.7-0.3,1c-0.3,1.8,0.1,3.5,0.9,4.9L445.6,431.3z M431.6,436.5l-53,8
			l-98.8-7.5c0-0.9-0.2-1.8-0.6-2.6l4.7-2.7l42.5-24.6c0.8,1.3,2.2,2.2,3.8,2.5c2.6,0.4,5.1-1,6.2-3.4l95.3,28.6
			C431.6,435.3,431.6,435.9,431.6,436.5z M307.2,448.6c-1.3,1-2.3,2.3-2.8,3.7l-25.1-13c0.2-0.4,0.4-0.9,0.4-1.4c0-0.1,0-0.1,0-0.1
			l95.7,7.2l-56.1,8.4c-0.2-1-0.6-2.1-1.3-3C315.5,446.9,310.7,446.1,307.2,448.6z M234.6,338.5l-45-7.1c0.5-3.9-2.2-7.5-6.1-8.2
			c-0.4-0.1-0.9-0.1-1.3-0.1l6.5-56.7c0.2,0,0.3,0.1,0.5,0.1c1.3,0.2,2.6-0.1,3.7-0.7l43.8,66.6c-1.1,0.9-1.9,2.1-2.2,3.6
			C234.4,337,234.4,337.7,234.6,338.5z M170.7,348c-0.4-0.1-0.7-0.1-1.1-0.1l-32.3-64.7c0.7-0.2,1.4-0.5,2-1
			c3.5-2.5,4.3-7.3,1.8-10.8c-0.1-0.1-0.1-0.1-0.2-0.2l43.9-8.7c0.4,1.7,1.7,3.1,3.4,3.8l-6.4,56.9c-3.3,0.3-6.1,2.7-6.6,6.1
			c-0.5,2.9,0.8,5.7,3.1,7.3l-5.6,12C171.9,348.3,171.3,348.1,170.7,348z M162,150c0.5-0.4,1-0.8,1.3-1.2l15.3,11.9
			c-0.1,0.2-0.3,0.4-0.4,0.6L178,162c-0.1,0.3-0.2,0.6-0.2,0.8c-0.1,0.7-0.1,1.5,0.1,2.2l0.2,0.7c0.6,1.6,1.8,2.9,3.5,3.5
			l-11.7,36.7c-0.2-0.1-0.4-0.1-0.6-0.2c-0.7-0.1-1.3-0.1-1.9,0l-8.2-54.3C160.1,151.1,161.1,150.7,162,150z M188.1,160.5l28.5-20.4
			c0.8,1,2,1.8,3.4,2l-8.8,79.9c-0.5,0-0.9,0.1-1.3,0.3l-24.1-53.6c1.6-0.8,2.9-2.3,3.2-4.2C189.3,163.2,188.9,161.7,188.1,160.5z
			 M210.6,85.7l3.7,2.2l-8.5,8.4l-0.7-1.7l-1.2-3.1C207.1,91.3,209.8,89,210.6,85.7z M215,88.3l63,36.8c-0.3,0.5-0.5,1-0.6,1.6
			c-0.1,0.5-0.1,0.9,0,1.4l-7.8,1.1l-43.1,6.2c-0.5-2.2-2.2-4.1-4.6-4.5c-0.9-0.2-1.8-0.1-2.6,0.2l-13.2-34.1L215,88.3z M253.7,60.5
			c1.4-1,2.4-2.4,2.8-3.9l14,3.8l6.3,34.5l5,27.4c-1.4,0.3-2.6,1.2-3.4,2.3l-62.9-36.7l28.4-27.9C246.5,62.3,250.6,62.7,253.7,60.5z
			 M446,92.4l22.5-11l18.3,9.5c-0.8,2.3-0.5,4.9,1,7c0.6,0.9,1.4,1.6,2.3,2.1l-25.3,46.7c-0.6-0.4-1.3-0.7-2.1-0.8
			c-0.8-0.1-1.5-0.1-2.2,0.1l-11.9-32.5l-4.8-13.2c1.5-0.8,2.6-2.3,2.9-4.1C447,94.9,446.7,93.5,446,92.4z M519.1,113.1l-17.9-16.6
			c0.2-0.5,0.4-1.1,0.5-1.6L519.1,113.1z M573.5,180.9l-16.1,96.9c-0.2,0-0.5,0-0.7,0l-0.3-53.4c2.6-0.2,4.8-2.1,5.2-4.7
			c0.1-0.4,0.1-0.8,0.1-1.1l-1.1-1.3c2-2.6,2.2-6.4,0.2-9.2c-0.6-0.9-1.4-1.5-2.2-2.1l13.1-25.6
			C572.3,180.5,572.9,180.7,573.5,180.9z M551.3,279.9l-6.2-3.8l8.7-52.2c0.4,0.2,0.9,0.3,1.3,0.4c0.2,0,0.4,0,0.6,0l0.3,53.4
			C554.2,277.9,552.5,278.7,551.3,279.9z M326.1,406.4l-39.3,22.7l-8,4.6c-0.6-0.9-1.4-1.6-2.4-2l30.4-79l2.9-7.4
			c0.2,0.1,0.5,0.2,0.8,0.2c0.8,0.1,1.5,0.1,2.3-0.1l16.3,53.1c-1.8,0.7-3.3,2.3-3.6,4.4C325.3,404.2,325.5,405.4,326.1,406.4z
			 M275.9,259.1l-39.5,10c-0.6-2-2.3-3.5-4.5-3.9c-1-0.2-2,0-2.9,0.3l-16.3-36.8c0.5-0.2,0.9-0.6,1.2-1l62.5,28.3
			c-0.2,0.5-0.4,1-0.5,1.5C275.8,258.1,275.8,258.6,275.9,259.1z M193.4,256.3l8.8-14.6l7.8-13c0.2,0.1,0.5,0.2,0.8,0.2
			c0.4,0.1,0.9,0.1,1.3,0l15.4,34.8l0.9,2.1c-1.3,0.7-2.3,1.9-2.8,3.4l-29.8-7.2c0,0,0,0,0-0.1C196.2,259.7,195.1,257.5,193.4,256.3
			z M174.2,216.9l12.7,3.5l2.5,34.9c-0.5,0.1-0.9,0.2-1.3,0.4l-17.8-35.8C171.9,219.4,173.3,218.3,174.2,216.9z M191.1,255.4
			c-0.3-0.1-0.7-0.1-1-0.1l-2.5-34.7l20.4,5.7c0.2,0.8,0.7,1.5,1.4,2L192.8,256C192.3,255.7,191.7,255.5,191.1,255.4z M226.6,136.1
			l43.5-6.2l7.4-1.1c0.5,2.2,2.2,4.1,4.6,4.5c0.3,0.1,0.6,0.1,0.9,0.1l2.6,47.6l1,18.7c-1.1,0.1-2.2,0.6-3,1.3l-58.5-60.6
			c0.7-0.8,1.2-1.8,1.4-2.9C226.7,137.1,226.7,136.6,226.6,136.1z M362.6,90c2.5,0.4,4.8-1.1,5.5-3.4l47,8.7c0,0.4-0.1,0.8,0,1.1
			l-39,5.6l-15.2,2.2c0-1.9-1-3.6-2.5-4.7l4-9.5C362.5,90,362.5,90,362.6,90z M360.8,105.2c0-0.1,0-0.2,0-0.3l54.4-7.8
			c0.2,0.9,0.5,1.6,1.1,2.3l-1,0.9L343.6,163c-0.7-0.5-1.6-1-2.5-1.1c0,0-0.1,0-0.1,0l11.8-44.6l2-7.4
			C357.6,110.2,360.3,108.2,360.8,105.2z M498.1,100.1l14.2,28.4l-45.5,20.3c-0.3-0.6-0.8-1.2-1.4-1.6l25.4-46.8
			C493.1,101.5,495.8,101.4,498.1,100.1z M524.4,123.1l-11.4,5.1l-14.3-28.5c0.9-0.7,1.6-1.5,2.1-2.4l24,22.3
			c-0.3,0.5-0.6,1-0.7,1.6C524.1,121.9,524.2,122.5,524.4,123.1z M543.8,167.5l-10.3,1.8l-4.8-9.6l14.4,1.7
			c-0.1,0.4-0.3,0.8-0.3,1.3C542.6,164.4,543,166.1,543.8,167.5z M532.8,169.4l-19.5,3.4c0.3-0.6,0.5-1.2,0.6-1.8
			c0.7-4-2.1-7.8-6.1-8.5c-4-0.7-7.8,2.1-8.5,6.1c-0.4,2.4,0.4,4.7,2,6.3l-21,3.6c-0.5-2.2-2.3-3.9-4.6-4.3c-1-0.2-2,0-2.9,0.3
			l-7.8-17.7l-0.1-0.3c1.4-0.8,2.4-2.2,2.7-3.9c0,0,0-0.1,0-0.1l60.4,7.1L532.8,169.4z M551,221.2L507,247c-0.8-1.3-2.2-2.2-3.8-2.4
			c-0.9-0.2-1.8,0-2.7,0.2L477,185c1.1-0.5,2-1.3,2.5-2.4l67.7,32.3c0.2,0.7,0.6,1.5,1,2.1c0.6,0.8,1.3,1.5,2.1,2
			C550.4,219.8,550.6,220.5,551,221.2z M526,342.2c0,1.1,0.3,2.1,0.8,3.2l0.3,1c-1.2,0.4-2.2,1.2-2.9,2.2l-86.9-50.9
			c0.2-0.5,0.5-1,0.6-1.6c0.2-1.3-0.1-2.6-0.7-3.7l60.6-38.9c0.9,1.2,2.1,2,3.7,2.3c0.7,0.1,1.4,0.1,2,0l21.4,81.7L526,342.2z
			 M412.7,220.6L381.1,253c-0.7-0.5-1.5-0.9-2.4-1c-0.8-0.1-1.7-0.1-2.5,0.1l-6.5-14.9l-27.8-64.2c1-0.3,1.9-0.9,2.5-1.7l66.6,42.3
			l0.8,0.5c-0.3,0.5-0.5,1.1-0.6,1.8C410.9,217.6,411.5,219.3,412.7,220.6z M375.5,252.3c-0.8,0.3-1.5,0.9-2.1,1.5l-12.7-7.2
			l-68.2-38.8c0.2-0.5,0.4-1,0.5-1.6c0.2-1.4-0.1-2.8-0.8-4l43.2-31.6c0.8,1.3,2.2,2.3,3.8,2.6c0.7,0.1,1.4,0.1,2.1,0L375.5,252.3z
			 M292.1,208.4l33.3,18.9l47.6,27.1c-0.4,0.6-0.7,1.3-0.8,2.1l-85,1c-0.4-2.3-2.2-4.3-4.6-4.7l4.6-41.9
			C289.1,211.1,291,210.1,292.1,208.4z M287.2,259.4c0.1-0.4,0.1-0.8,0.1-1.1l84.8-1c-0.1,1.6,0.5,3.2,1.6,4.3L326.1,321l-11.4,14.2
			c-0.7-0.5-1.5-0.8-2.3-1c-0.9-0.1-1.7-0.1-2.5,0.2l-8.7-23.9L284,263.6C285.6,262.8,286.9,261.3,287.2,259.4z M326.7,321.4
			l47.5-59.4c0.7,0.6,1.6,1,2.6,1.2c2.4,0.4,4.6-0.7,5.8-2.6l34.3,24.3l10.4,7.3c-0.4,0.6-0.7,1.3-0.8,2.1c-0.1,0.9-0.1,1.8,0.2,2.6
			L372,317.1l-55.4,20.5c-0.3-0.7-0.8-1.4-1.4-1.9L326.7,321.4z M417.4,284.4l-34.6-24.4c0.2-0.4,0.4-0.9,0.5-1.4
			c0.3-1.9-0.4-3.8-1.7-5.1l31.5-32.4c0.8,0.7,1.7,1.1,2.8,1.3c0.4,0.1,0.8,0.1,1.2,0.1l13.1,67.4c-1,0.4-1.9,1-2.5,1.8L417.4,284.4
			z M418.3,222.3c1.6-0.4,2.9-1.5,3.7-3l74.9,29.3c-0.1,0.2-0.2,0.4-0.2,0.7c-0.2,1.2,0,2.4,0.5,3.4l-60.7,38.9c-0.8-1-2-1.8-3.4-2
			c-0.6-0.1-1.1-0.1-1.7,0L418.3,222.3z M421.8,214l48.1-30.8c0.9,1.2,2.1,2,3.7,2.3c0.9,0.2,1.8,0.1,2.7-0.2l23.5,59.8
			c-1.2,0.6-2.2,1.5-2.7,2.8l-74.8-29.3c0.1-0.3,0.2-0.5,0.2-0.8C422.7,216.4,422.4,215.1,421.8,214z M550,206.1
			c-2.5,1.8-3.6,4.9-3.1,7.8l-18-8.6l-49-23.4c0.1-0.4,0.3-0.8,0.3-1.2c0.1-0.5,0.1-1,0-1.5l21.6-3.7c1,0.8,2.1,1.4,3.5,1.6
			c3.1,0.5,6-1,7.5-3.5l20.3-3.5l17.8,35.6C550.6,205.8,550.3,206,550,206.1z M467.5,151.7c0-0.8-0.1-1.5-0.4-2.2l45.6-20.4
			l14.8,29.6L467.5,151.7z M464.1,156.8l7.9,17.9c-1.5,0.8-2.7,2.3-3,4.1c-0.2,1.3,0,2.6,0.7,3.7l-26.8,17.2l-21.3,13.6
			c-0.3-0.4-0.7-0.8-1.1-1.1l38.6-55.8c0.6,0.3,1.2,0.6,1.9,0.7C462,157.4,463.1,157.2,464.1,156.8z M419.8,211.9
			c-0.6-0.4-1.3-0.6-2-0.7c-2.2-0.4-4.3,0.6-5.5,2.3l-1-0.6l-66.3-42.1c0.4-0.6,0.7-1.4,0.8-2.1c0.1-0.5,0.1-1.1,0-1.6l25.9-3.4
			l84.5-11c0.3,1.4,1,2.7,2.2,3.6L419.8,211.9z M456.2,150.6c-0.1,0.4-0.1,0.8-0.1,1.2l-102.9,13.4l-7.6,1c-0.3-1-0.8-1.9-1.5-2.7
			l20-17.5l52.6-46c0.8,0.8,1.9,1.4,3.1,1.6c1.5,0.2,2.9-0.1,4-0.9l34.5,46.3C457.2,147.9,456.4,149.1,456.2,150.6z M351.9,117.9
			l-11.6,44c-1.9,0-3.7,0.9-4.8,2.5l-47.5-33.6c0.4-0.6,0.6-1.3,0.8-2c0.1-0.8,0.1-1.6-0.1-2.3l61.8-19.1c0.8,1.3,2,2.2,3.6,2.5
			L351.9,117.9z M335.1,165c-0.3,0.5-0.5,1.1-0.6,1.7c-0.2,1.2,0,2.4,0.5,3.4l-22.4,16.4l-20.9,15.3c-0.8-1-2-1.8-3.4-2
			c-0.3-0.1-0.6-0.1-0.9-0.1l-3.6-66.3c1.5-0.2,2.8-0.9,3.8-2.1L335.1,165z M283.2,201.5c-0.7,0.8-1.2,1.8-1.4,2.9
			c-0.1,0.7-0.1,1.4,0.1,2.1l-67.2,18.3c-0.3-1.3-1.3-2.3-2.7-2.5l8.8-79.9c1.5,0.1,2.9-0.4,3.9-1.3L283.2,201.5z M239.1,238.3
			l-24.8-11.2c0.2-0.3,0.3-0.6,0.3-1c0-0.2,0.1-0.4,0-0.7l34.2-9.3l33.1-9c0.7,1.9,2.3,3.4,4.4,3.8l-4.5,41.5l-0.1,0.4
			c-2.1-0.1-4,0.9-5.1,2.6L239.1,238.3z M280.6,264.1c1,0.2,1.9,0,2.8-0.3l17.3,47.4l8.5,23.4c-1.7,0.7-3,2.3-3.3,4.3
			c0,0.1,0,0.2,0,0.4l-60-2.3c0-2-1.1-3.7-2.7-4.7l17.3-33l18.7-35.6C279.6,263.8,280.1,264,280.6,264.1z M245.8,338
			c0-0.1,0-0.2,0-0.4l60,2.3c0,2.2,1.4,4.1,3.3,5l-10.5,27.3l-22.8,59.1c-0.2-0.1-0.5-0.2-0.8-0.2c-0.8-0.1-1.7-0.1-2.4,0.1
			l-15.9-46.7l-14.4-42.3C244.1,341.6,245.4,340.1,245.8,338z M313.5,345.2c1.5-0.6,2.7-1.7,3.3-3.2l92.8,29.9
			c0,0.2-0.1,0.3-0.1,0.5c-0.1,0.9-0.1,1.7,0.2,2.5l-73.3,26.7c-0.7-1.7-2.3-3-4.3-3.4c-0.8-0.1-1.6-0.1-2.3,0.1L313.5,345.2z
			 M409.8,371.2l-40.6-13.1L317,341.3c0-0.2,0.1-0.3,0.1-0.5c0.1-0.9,0.1-1.8-0.2-2.6l110-40.8c0.7,1.5,2,2.7,3.6,3.1l-4.1,19
			l-10.5,48.1C413.3,367.3,410.7,368.8,409.8,371.2z M427.2,319.6l4.1-18.8c2.2,0.3,4.4-0.7,5.6-2.5l86.9,50.8
			c-0.3,0.5-0.5,1-0.6,1.6c-0.1,0.6-0.1,1.1,0,1.6l-102.6,19.4c-0.5-1.9-2-3.5-4-4L427.2,319.6z M420.3,375.6l58.2,21.3l-33.8,33.3
			c-2.1-1.9-5-2.5-7.6-1.7l-18.6-50.5C419.2,377.4,419.9,376.5,420.3,375.6z M453.7,387l-33.2-12.1c0.1-0.2,0.1-0.4,0.2-0.7
			c0.1-0.6,0.1-1.1,0-1.6l102-19.3l-43.7,43L453.7,387z M529.2,335.6c-1.6,1.1-2.6,2.8-3,4.6l-3.3-12.5l-18.8-72
			c1.2-0.4,2.2-1.1,2.9-2.1l10.4,6.4l9.6,5.9c-0.3,3.8,2.3,7.3,6.1,7.9c1.8,0.3,3.6-0.1,5.1-1l6.2,3.8l-9.6,57.8
			C532.7,334,530.8,334.4,529.2,335.6z M538.7,272.2c1.4-1.1,2.5-2.7,2.8-4.6c0.7-4-2.1-7.8-6.1-8.5c-4-0.7-7.7,2-8.5,5.9l-13.1-8.1
			l-6.5-4c0.3-0.5,0.5-1.1,0.6-1.7c0.2-1.2,0-2.4-0.5-3.5l21.9-12.8l22.1-13c0.4,0.7,1,1.2,1.7,1.6l-8.7,52.2L538.7,272.2z
			 M551.6,205.3l-17.7-35.4l10.4-1.8c1.1,1.4,2.6,2.4,4.5,2.7c0.5,0.1,1.1,0.1,1.6,0.1l4,33.8C553.4,204.8,552.5,204.9,551.6,205.3z
			 M543.5,160.7l-15.1-1.8l-15-30.1l11.3-5.1c0.5,1,1.5,1.7,2.7,1.9c0.7,0.1,1.5,0,2.1-0.2l16.7,32.2
			C545.1,158.4,544.1,159.4,543.5,160.7z M490.4,86.7l-6.1-10.1l8.7,9.2C492.2,85.9,491.3,86.2,490.4,86.7z M479.7,76.1
			c0.5,0.5,1.1,0.8,1.9,1c0.7,0.1,1.4,0,2-0.3l6.2,10.3c0,0-0.1,0-0.1,0.1c-1.1,0.8-2,1.9-2.5,3.1L469.4,81L479.7,76.1z
			 M450.2,119.8l9.6,26.4c-0.3,0.1-0.6,0.2-0.8,0.4l-4.1-5.5l-30.4-40.9c1-0.8,1.7-2,2-3.4c0.1-0.3,0.1-0.7,0.1-1l1-0.1
			c1,2.2,3,3.9,5.6,4.3c1.5,0.3,3,0,4.3-0.6c0.8,0.7,1.7,1.2,2.9,1.4c1.1,0.2,2.1,0,3-0.3L450.2,119.8z M426.9,91.6
			c-0.2,1.2-0.1,2.4,0.3,3.5l-0.8,0.1c-0.3-2.4-2.2-4.4-4.7-4.8c-1.2-0.2-2.3,0-3.3,0.5L410.8,77l-9.5-17.4c0.3-0.2,0.6-0.4,0.9-0.7
			l29.4,27C429.2,86.8,427.4,88.9,426.9,91.6z M417.8,91.2c-1.2,0.8-2.1,2-2.5,3.4l-42.6-7.9l-4.4-0.8c0.2-1.2-0.1-2.3-0.7-3.3
			l26.7-23.8c0.8,0.8,1.9,1.4,3.1,1.6c1.2,0.2,2.3,0,3.3-0.5L417.8,91.2z M393.9,58.3l-26.6,23.8c-0.7-0.9-1.8-1.6-3-1.8
			c-2.2-0.4-4.4,0.8-5.3,2.8l-25-10.2l59.5-15.2C393.6,57.8,393.7,58.1,393.9,58.3z M358.7,83.7c-0.1,0.2-0.1,0.4-0.2,0.6
			c-0.4,2.4,1,4.7,3.2,5.5l-3.9,9.4c-0.5-0.2-1-0.5-1.6-0.5c-2.4-0.4-4.7,0.8-5.8,2.7l-10-6.8L302.5,69l15.5,4.2
			c0,0.1-0.1,0.2-0.1,0.3c-0.7,4,2.1,7.8,6.1,8.5c4,0.7,7.8-2.1,8.5-6.1c0.2-0.9,0.1-1.8-0.1-2.7l0.4-0.1L358.7,83.7z M318.1,72.4
			l-17.7-4.8l-20.2-13.7c0.2-0.5,0.4-1.1,0.5-1.6c0-0.2,0-0.3,0-0.5l40.5,16.6C319.8,69.3,318.7,70.7,318.1,72.4z M279.9,54.6
			L298.3,67l-27.1-7.3l-0.3-1.7c0.4,0.2,0.9,0.3,1.4,0.4C275.4,58.9,278.4,57.3,279.9,54.6z M300.3,68.4L350,102
			c-0.2,0.4-0.3,0.8-0.4,1.3c-0.2,1.2,0,2.3,0.4,3.3l-61.6,19c-0.7-1.8-2.3-3.3-4.4-3.6c-0.5-0.1-1.1-0.1-1.6,0l-8-44.3l-3.1-17.2
			L300.3,68.4z M209.3,222.8c-0.7,0.5-1.2,1.3-1.4,2.2c0,0.2,0,0.3,0,0.5l-20.4-5.7l-2.6-35.9l-1.1-14.5c0.4,0,0.9-0.1,1.3-0.3
			L209.3,222.8z M184.1,182.8l2.7,36.8l-12.2-3.4c0.3-0.6,0.6-1.3,0.7-2.1c0.6-3.5-1.4-6.9-4.7-8.1l11.7-36.7c0,0,0.1,0,0.1,0
			c0.2,0,0.5,0,0.7,0L184.1,182.8z M166.7,220.2c0.9,0.2,1.8,0.1,2.7-0.1l17.9,36c-0.7,0.4-1.3,1-1.8,1.7l-0.4,0.6
			c-0.3,0.5-0.5,1.1-0.6,1.7c-0.1,0.6-0.1,1.1,0,1.7l-44.3,8.8c-0.5-0.5-1-0.9-1.6-1.3l26.2-49.7
			C165.5,219.9,166.1,220.1,166.7,220.2z M193.6,265.5c0.9-0.7,1.6-1.7,2-2.9l29.8,7.2c0,0,0,0,0,0c-0.5,3.1,1.6,6.1,4.7,6.6
			c0.5,0.1,0.9,0.1,1.4,0l2.8,20.2l4.8,34.8c-0.6,0.1-1.2,0.4-1.7,0.6L193.6,265.5z M235.9,303.5l-3.8-27.1c2.3-0.5,4.1-2.2,4.5-4.6
			c0.1-0.7,0.1-1.3,0-2l15.7-4l23.8-6c0.3,1.4,1.2,2.7,2.5,3.5L260,298.6l-17.5,33.4c-0.4-0.2-0.9-0.4-1.4-0.4
			c-0.5-0.1-0.9-0.1-1.4,0L235.9,303.5z M238.5,342.5c0.2,0.1,0.5,0.2,0.8,0.2c0.8,0.1,1.7,0.1,2.4-0.1l14.5,42.5l15.8,46.5
			c-1,0.4-1.9,1.1-2.5,2.1L219.6,404c0.6-0.7,1-1.6,1.2-2.6c0.4-2.4-0.8-4.7-2.8-5.9L238.5,342.5z M219.2,404.5l44.7,26.7
			l-48.2-25.1C217,406,218.2,405.5,219.2,404.5z M336.6,405.4c0.1-0.2,0.1-0.4,0.2-0.6c0.1-0.9,0.1-1.7-0.2-2.5l73.3-26.7
			c0.7,1.7,2.3,3,4.3,3.3c1.3,0.2,2.6,0,3.6-0.6l18.6,50.4c-0.5,0.2-1,0.5-1.5,0.8c-1.6,1.1-2.6,2.7-3,4.5L336.6,405.4z
			 M535.4,334.3l9.6-57.4l5.9,3.6c-0.8,1-1.3,2.1-1.5,3.4c-0.5,3.1,1,6,3.5,7.5L535.4,334.3C535.4,334.3,535.4,334.3,535.4,334.3z
			 M571,179.9l-13.1,25.6c-0.9-0.4-1.8-0.7-2.8-0.7l-4-34c2.9-0.5,5.3-2.8,5.8-5.8c0.6-3.9-2-7.6-5.9-8.2c-1.4-0.2-2.9,0-4.1,0.5
			l-16.7-32.2c0,0,0.1,0,0.1-0.1l38.8,41.5c-1.2,1.2-2.1,2.8-2.4,4.6C566.2,174.7,568,178.2,571,179.9z M525.7,118.8l-23.8-25
			c0.1-1.7-0.3-3.4-1.4-4.9c-1.5-2.1-3.9-3.2-6.4-3.2l-9.4-9.9c0.4-0.5,0.6-1,0.7-1.6c0.3-1.5-0.5-2.9-1.8-3.6l3-8.2
			c0.7,0.3,1.4,0.5,2.1,0.7c1.9,0.3,3.8-0.1,5.4-0.9l32.9,55.9C526.5,118.2,526.1,118.5,525.7,118.8z M485.9,62.1l-3,8.3
			c-0.1,0-0.1,0-0.2-0.1c-1-0.2-1.9,0.1-2.6,0.6l-0.2-0.2L480,71c-0.2,0.1-0.3,0.3-0.5,0.5l-20.8-14.1c0.5-0.8,0.8-1.6,1-2.6
			c0.1-0.6,0.1-1.2,0-1.9l21.9,1.5C481.5,57.6,483.2,60.5,485.9,62.1z M467.7,81.1l-22.1,10.8c-0.9-1.1-2.1-1.9-3.6-2.2
			c-0.4-0.1-0.8-0.1-1.2-0.1c-1-2.1-3-3.7-5.4-4.1c-1-0.2-2.1-0.1-3,0.1l-29.7-27.3c0.6-0.7,1-1.6,1.2-2.6c0-0.2,0-0.5,0-0.7
			l12.9-0.3L467.7,81.1z M404,54.3c-0.2-2.5-2.1-4.7-4.7-5.1c-2.2-0.4-4.4,0.6-5.6,2.4l-10.8-11.1c0.7-0.8,1.3-1.7,1.6-2.6L415.6,54
			L404,54.3z M242.9,58.7c0.1,0.2,0.3,0.4,0.5,0.5l-28.6,28.1l-4.1-2.4c0.2-1.7-0.2-3.3-0.9-4.6L242.9,58.7z M202.2,91.4
			c0.3,0,0.6,0,0.9,0.1l1.2,3.1l0.9,2.3l-6,5.9l2.8-11.4C202.1,91.3,202.1,91.4,202.2,91.4z M205.5,97.7l13.1,33.7
			c-0.9,0.4-1.6,1.1-2.2,1.9l-0.4,0.6c-0.3,0.5-0.5,1.1-0.6,1.8c-0.2,1.4,0.1,2.8,0.8,3.9L187.7,160c-0.6-0.7-1.4-1.2-2.3-1.6
			l13.4-54.2L205.5,97.7z M154.8,151c1.1,0.4,2.2,0.5,3.4,0.4l8.2,54.2c-1.3,0.3-2.4,0.8-3.3,1.7L148,191.8L154.8,151z M173.2,348.9
			l5.5-11.9c0.7,0.4,1.5,0.7,2.3,0.8c4,0.7,7.7-2,8.5-5.9l45.3,7.2c0.5,1.4,1.6,2.5,2.9,3.1l-20.4,53c-0.4-0.2-0.8-0.3-1.3-0.4
			c-2.6-0.4-5,0.9-6.1,3.2l-0.3,0.7c-0.1,0.3-0.2,0.5-0.2,0.8c-0.1,0.5-0.1,1,0,1.5l0.1,0.7c0.1,0.6,0.3,1.1,0.6,1.6l-9.8-5.1
			c0.8-2.3,0.6-5-1-7.2c-2.2-3.1-6.3-4.1-9.6-2.5l-14.5-29c0.7-0.9,1.1-1.9,1.3-3.1C177.3,353.4,175.8,350.4,173.2,348.9z
			 M278.9,439.9l25.3,13.1c-0.1,0.5-0.2,1-0.2,1.5L278.9,439.9C278.9,440,278.9,439.9,278.9,439.9z M316.2,461.2
			c0.6-0.5,1.2-1,1.6-1.6l24.4,17l-26.3-15.3C316,461.3,316.1,461.3,316.2,461.2z M417.2,440.7c-4-0.7-7.7,2-8.5,6l-26.5-2l49.5-7.4
			c0.1,0.7,0.4,1.4,0.7,2l-10.1,5.1C421.2,442.5,419.4,441.1,417.2,440.7z M540,337.4c-1-1.4-2.4-2.3-3.9-2.8l17.3-42.8
			c0.6,0.3,1.2,0.5,1.9,0.6c1.5,0.3,3,0,4.3-0.6l11,21c-2.1,1.2-3.7,3.4-4.2,6c-0.3,2.1,0.1,4.1,1.1,5.7l-26.9,14.1
			C540.6,338.2,540.3,337.8,540,337.4z M574.7,311.7c-1.2,0-2.3,0.3-3.3,0.8l-11-21.1c1.8-1.1,3.2-2.9,3.5-5.1
			c0.5-3-0.9-5.9-3.3-7.4l0.6-0.8c0-0.1,0-0.2,0.1-0.3c0.1-0.4,0.1-0.8,0.2-1.1l-1.5,1.8c-0.5-0.3-1.1-0.5-1.7-0.6l16.1-96.8
			c0.5,0.1,1,0.1,1.5,0.1L574.7,311.7z M495.4,61.4L570,165.7c-0.1,0.1-0.2,0.2-0.2,0.2L531,124.4c0.5-0.5,0.8-1.2,0.9-1.9
			c0.4-2.1-1.1-4.1-3.2-4.5c-0.3,0-0.5-0.1-0.8-0.1l-33.1-56.2C495,61.7,495.2,61.5,495.4,61.4z M481.9,52.1
			c-0.1,0.4-0.2,0.7-0.3,1.1c0,0.1,0,0.3,0,0.4l-22.1-1.5c-0.6-2.9-2.9-5.3-6-5.8c-4-0.7-7.8,2.1-8.5,6.1c-0.1,0.3,0,0.6-0.1,0.9
			l-27.7,0.7L384.7,37c0.5-2.1,0.2-4.4-1.2-6.4c-2.5-3.5-7.3-4.3-10.8-1.8c-0.2,0.2-0.4,0.3-0.6,0.5l-15.6-16.1
			c0.5-0.8,0.9-1.7,1.2-2.6L481.9,52.1z M341.7,12.4c1.2,2.4,3.5,4.2,6.3,4.7c3.2,0.5,6.2-0.8,8.1-3.1l15.5,16
			c-1.5,1.6-2.2,3.7-2,5.8l-89,13.4c-0.7-2.7-3-4.9-5.9-5.3c-4-0.7-7.8,2.1-8.5,6.1c-0.1,0.5-0.1,1-0.1,1.4l-9.2,1.4
			c-0.2-1.1-0.6-2.1-1.3-3c-2.5-3.5-7.3-4.3-10.8-1.8c-2,1.5-3.1,3.7-3.2,6l-20.9,0.3c-0.1-1.1-0.3-2.2-0.8-3.2L341.7,12.4z
			 M207,61.6c1,0.7,2.2,1.3,3.5,1.5c4.7,0.8,9.1-2.4,9.9-7.1c0.1-0.4,0.1-0.7,0.1-1.1l20.9-0.3c0.1,1.2,0.4,2.3,1,3.4l-33.1,21.7
			c-1.1-1.5-2.8-2.6-4.7-2.9c-4-0.7-7.8,2.1-8.5,6.1c-0.6,3.7,1.6,7.2,5.1,8.3l-3.1,12.7L163,138.3c-2.6-2.7-6.9-3.2-10.1-1
			c-3.5,2.5-4.3,7.3-1.8,10.8c0,0.1,0.1,0.1,0.1,0.2l-18.6,15.8c-0.3-0.3-0.5-0.5-0.8-0.8L207,61.6z M126.7,178.6
			c2-0.1,3.9-0.9,5.4-2.2l15.1,15.6l-12.7,76.1c-1.5,0-3,0.5-4.3,1.4c-3.5,2.5-4.3,7.3-1.8,10.8c1,1.4,2.4,2.3,3.9,2.8l-5.6,20.6
			c-0.2-0.1-0.4-0.1-0.6-0.2c-0.1,0-0.3,0-0.4,0L126.7,178.6z M204.9,427.3L128.3,320c0.9-0.4,1.7-1,2.4-1.7l32.6,32.8
			c-0.6,0.9-1,1.8-1.2,2.9c-0.7,4,2.1,7.8,6.1,8.5c2.5,0.4,5-0.5,6.6-2.3l14.3,28.7c-0.2,0.1-0.4,0.2-0.5,0.3
			c-3.5,2.5-4.3,7.3-1.8,10.8c2.1,2.9,5.8,3.9,9,2.7l10.2,23.6C205.6,426.7,205.3,427,204.9,427.3z M218.2,437.6
			c0.3-0.7,0.6-1.3,0.7-2.1l49.5,2.1c0.2,1.6,1.1,3.1,2.5,4c0.8,0.3,1.5,0.6,2.3,0.9c2,0.3,3.9-0.5,5.2-1.9l25.6,14.8
			c0.1,1.4,0.5,2.7,1.4,3.9c2.2,3.1,6.3,4.1,9.7,2.5l27.6,16c-0.2,0.3-0.4,0.7-0.5,1.1L218.2,437.6z M358.1,478.2
			c-0.1-0.2-0.2-0.4-0.3-0.7l51.8-25.9c1.1,1.9,2.9,3.3,5.2,3.6c4,0.7,7.8-2,8.5-6.1c0.2-1.5,0-2.9-0.5-4.2l10.1-5.1
			c0.1,0.1,0.2,0.3,0.2,0.4c2.5,3.5,7.3,4.3,10.8,1.8c2-1.4,3.1-3.7,3.2-6l34.2,0.4c0.1,0.9,0.4,1.7,0.7,2.4L358.1,478.2z
			 M494.6,428.2c-0.2-0.2-0.5-0.3-0.8-0.5l33.2-70.6c0.3,0.1,0.6,0.2,0.9,0.3c1.2,0.2,2.3,0,3.3-0.5c1.1-1.8,2.2-3.6,3.3-5.4
			c0-0.6-0.2-1.3-0.4-1.9c1.4-0.1,2.9-0.5,4.1-1.4c2.8-2,3.9-5.6,2.8-8.8l27-14.1c0.4,0.6,0.9,1.1,1.4,1.5L494.6,428.2z"/>
		<g>
			
				<ellipse transform="matrix(0.6241 -0.7814 0.7814 0.6241 -68.012 544.8932)" class="st1" cx="532.3" cy="343.1" rx="22.1" ry="22.1"/>
			
				<ellipse transform="matrix(0.5977 -0.8017 0.8017 0.5977 48.1624 531.7065)" class="st1" cx="553.9" cy="217.9" rx="22.1" ry="22.1"/>
			
				<ellipse transform="matrix(0.6013 -0.799 0.799 0.6013 -162.8766 213.4008)" class="st1" cx="132.4" cy="269.9" rx="22.1" ry="22.1"/>
			
				<ellipse transform="matrix(0.5802 -0.8144 0.8144 0.5802 69.0356 233.6644)" class="st1" cx="261.2" cy="49.9" rx="22.1" ry="22.1"/>
			<ellipse class="st1" cx="428.9" cy="438.7" rx="22.1" ry="22.1"/>
			<ellipse class="st1" cx="432.1" cy="91.1" rx="22.1" ry="22.1"/>
			
				<ellipse transform="matrix(0.6045 -0.7966 0.7966 0.6045 -88.3677 167.2611)" class="st1" cx="124.3" cy="172.6" rx="22.1" ry="22.1"/>
		</g>
	</g>
</g>
</svg>
