<?xml version="1.0" encoding="utf-8"?>
<!-- Generator: Adobe Illustrator 21.0.2, SVG Export Plug-In . SVG Version: 6.00 Build 0)  -->
<svg version="1.1" id="Capa_1" xmlns="http://www.w3.org/2000/svg" xmlns:xlink="http://www.w3.org/1999/xlink" x="0px" y="0px"
	 viewBox="0 0 469.8496 132.001" style="enable-background:new 0 0 469.8496 132.001;" xml:space="preserve">
<style type="text/css">
	.st0{fill-rule:evenodd;clip-rule:evenodd;fill:#DDDDDD;}
	.st1{fill:#3B86B1;}
	.st2{opacity:0.25;fill-rule:evenodd;clip-rule:evenodd;fill:#020202;}
	.st3{fill:#FFFFFF;}
	.st4{opacity:0.5;}
	.st5{fill-rule:evenodd;clip-rule:evenodd;fill:#A8A8A8;}
	.st6{fill-rule:evenodd;clip-rule:evenodd;fill:#FFFFFF;}
	.st7{fill-rule:evenodd;clip-rule:evenodd;fill:#3B86B1;}
	.st8{opacity:0.5;fill:#2C6882;}
	.st9{opacity:0.75;fill-rule:evenodd;clip-rule:evenodd;fill:#282828;}
	.st10{opacity:0.5;fill:#FFFFFF;}
	.st11{fill-rule:evenodd;clip-rule:evenodd;fill:none;stroke:#FFFFFF;stroke-miterlimit:10;}
	.st12{fill:none;stroke:#FFFFFF;stroke-miterlimit:10;}
	.st13{fill:#FFFFFF;stroke:#3B86B1;stroke-width:1.7139;stroke-miterlimit:10;}
	.st14{fill-rule:evenodd;clip-rule:evenodd;}
	.st15{opacity:0.85;fill:#FFFFFF;}
	.st16{opacity:0.5;fill-rule:evenodd;clip-rule:evenodd;}
	.st17{fill-rule:evenodd;clip-rule:evenodd;fill:#FEFEFE;}
	.st18{fill:#312767;}
	.st19{opacity:0.48;}
	.st20{opacity:0.25;}
	.st21{fill-rule:evenodd;clip-rule:evenodd;fill:#020202;}
	.st22{opacity:0.25;clip-path:url(#XMLID_1539_);}
	.st23{fill:#FFFFFF;stroke:#312767;stroke-miterlimit:10;}
	.st24{fill:#ACABC9;}
	.st25{fill-rule:evenodd;clip-rule:evenodd;fill:#312767;}
	.st26{opacity:0.77;fill:#312767;}
	.st27{opacity:0.25;clip-path:url(#XMLID_1547_);}
	.st28{fill:#54518C;}
	.st29{fill:#FFFFFF;stroke:#FFFFFF;stroke-miterlimit:10;}
	.st30{opacity:0.25;fill-rule:evenodd;clip-rule:evenodd;fill:#FFFFFF;}
	.st31{fill:#D4A800;}
	.st32{fill:#00AEB3;}
	.st33{fill:#38353B;}
	.st34{fill:#FF8400;}
	.st35{fill:#BF3900;}
	.st36{fill:#00AA9C;}
	.st37{opacity:0.25;clip-path:url(#XMLID_1553_);}
	.st38{fill:none;stroke:#ACABC9;stroke-width:5;stroke-miterlimit:10;}
	.st39{opacity:0.25;clip-path:url(#XMLID_1576_);}
	.st40{fill:#DDDDDD;}
	.st41{opacity:0.25;clip-path:url(#XMLID_1593_);}
	.st42{fill-rule:evenodd;clip-rule:evenodd;fill:#FFFFFF;stroke:#FFFFFF;stroke-miterlimit:10;}
	.st43{fill:#F79748;}
	.st44{fill:#FF7900;}
	.st45{fill:#DD7105;}
	.st46{fill:#02897C;}
	.st47{fill:#0EAD9A;}
	.st48{fill:#28C6AF;}
	.st49{fill:#4FE0C7;}
	.st50{fill:#D37D00;}
	.st51{fill:#D14600;}
	.st52{fill:#E5B92E;}
	.st53{fill:#DD571B;}
	.st54{fill:#E28A17;}
	.st55{opacity:0.25;clip-path:url(#XMLID_1594_);}
	.st56{opacity:0.77;fill:#FFFFFF;}
	.st57{fill:#50565B;stroke:#656C70;stroke-miterlimit:10;}
	.st58{fill:#808589;stroke:#656C70;stroke-miterlimit:10;}
	.st59{fill:#252728;stroke:#000000;stroke-miterlimit:10;}
	.st60{fill:#1A1B1C;stroke:#000000;stroke-miterlimit:10;}
	.st61{fill:#A0A6AA;}
	.st62{fill:#262C35;stroke:#161A1E;stroke-miterlimit:10;}
	.st63{fill:#181D23;}
	.st64{fill:#EABA96;stroke:#E0AA86;stroke-miterlimit:10;}
	.st65{fill:#E0AA86;}
	.st66{stroke:#000000;stroke-width:0.75;stroke-linecap:square;stroke-linejoin:bevel;stroke-miterlimit:10;}
	.st67{fill:#0F1C3F;stroke:#182951;stroke-miterlimit:10;}
	.st68{fill:#132354;stroke:#3F6093;stroke-miterlimit:10;}
	.st69{fill:#0F1C3F;}
	.st70{fill:none;stroke:#3F6093;stroke-width:0.75;stroke-miterlimit:10;}
	.st71{fill:#DBA682;}
	.st72{fill:none;stroke:#E0AA86;stroke-miterlimit:10;}
	.st73{fill:none;stroke:#E0AA86;stroke-linejoin:bevel;stroke-miterlimit:10;}
	.st74{fill:#8A0A8E;stroke:#AC34B2;stroke-miterlimit:10;}
	.st75{fill:#810C87;}
	.st76{fill:#680B6D;}
	.st77{fill:#AC34B2;stroke:#AC34B2;stroke-width:0.5;stroke-miterlimit:10;}
	.st78{fill:none;stroke:#959DA0;stroke-width:0.5;stroke-miterlimit:10;}
	.st79{fill:#959DA0;stroke:#959DA0;stroke-width:0.5;stroke-miterlimit:10;}
	.st80{fill:none;stroke:#AC34B2;stroke-miterlimit:10;}
	.st81{fill:#282828;stroke:#000000;stroke-miterlimit:10;}
	.st82{fill:#EABA96;stroke:#E0AA86;stroke-width:0.5;stroke-miterlimit:10;}
	.st83{fill:#B7896A;}
	.st84{stroke:#000000;stroke-miterlimit:10;}
	.st85{fill:#C1A578;}
	.st86{stroke:#000000;stroke-width:0.25;stroke-linecap:round;stroke-linejoin:round;stroke-miterlimit:10;}
	.st87{fill:#FFFFFF;stroke:#000000;stroke-width:0.25;stroke-linecap:round;stroke-linejoin:round;stroke-miterlimit:10;}
	.st88{fill:#70582D;}
	.st89{stroke:#000000;stroke-linecap:round;stroke-linejoin:round;stroke-miterlimit:10;}
	.st90{fill:none;stroke:#D8A27D;stroke-width:0.75;stroke-miterlimit:10;}
	.st91{fill:#561409;}
	.st92{fill:#BA2A13;}
	.st93{fill:#9E3025;stroke:#4C2311;stroke-width:0.25;stroke-miterlimit:10;}
	.st94{fill:#871D08;stroke:#4C2311;stroke-width:0.25;stroke-miterlimit:10;}
	.st95{fill:#DDAC8A;}
	.st96{fill:#A5ABAD;stroke:#959DA0;stroke-width:0.5;stroke-miterlimit:10;}
	.st97{fill:#B1BABC;}
	.st98{fill:#FCFCFC;}
	.st99{fill:none;stroke:#153847;stroke-width:5;stroke-miterlimit:10;}
	.st100{fill:#3CA7AF;}
	.st101{fill:#3DAD8D;}
	.st102{fill:#3DAA61;}
	.st103{fill:#67A53F;}
	.st104{fill:#95A340;}
	.st105{opacity:0.25;clip-path:url(#XMLID_1623_);}
	.st106{opacity:0.25;clip-path:url(#XMLID_1631_);}
	.st107{opacity:0.25;clip-path:url(#XMLID_1633_);}
	.st108{clip-path:url(#SVGID_2_);}
	.st109{fill:none;stroke:#3F6093;stroke-miterlimit:10;}
	.st110{fill:none;stroke:#3F6093;stroke-width:0.75;stroke-linecap:round;stroke-linejoin:round;}
	.st111{fill:none;stroke:#3F6093;stroke-width:0.75;stroke-linecap:round;stroke-linejoin:round;stroke-dasharray:0.9892,0.9892;}
	
		.st112{fill:none;stroke:#3F6093;stroke-width:0.75;stroke-linecap:round;stroke-linejoin:round;stroke-miterlimit:10;stroke-dasharray:1;}
	.st113{fill:#EAEAEA;stroke:#FFFFFF;stroke-width:0.25;stroke-miterlimit:10;}
	.st114{fill:#D8D8D8;}
	.st115{fill:#282828;stroke:#000000;stroke-width:0.75;stroke-miterlimit:10;}
	.st116{opacity:0.33;fill:#FFFFFF;}
	.st117{fill:none;stroke:#000000;stroke-width:1.5;stroke-linecap:round;stroke-linejoin:round;stroke-miterlimit:10;}
	.st118{opacity:0.64;}
	.st119{fill:#1D1D1B;}
	.st120{fill:#C9C9C9;}
</style>
<g>
	<path class="st119" d="M41.4863,67.0073c-0.9756,2.271-2.3145,4.2578-4.0176,5.9609s-3.6914,3.043-5.9609,4.0181
		c-2.2715,0.9756-4.7021,1.4639-7.292,1.4639h-5.4287c-2.5908,0-5.0293-0.4883-7.3184-1.4639
		c-2.2881-0.9751-4.2842-2.3149-5.9873-4.0181s-3.043-3.6899-4.0186-5.9609C0.4873,64.7368,0,62.3062,0,59.7158V1.0645h6.8652
		v58.6514c0,1.7031,0.3193,3.2915,0.958,4.7637c0.6387,1.4727,1.5166,2.7676,2.6348,3.8848
		c1.1172,1.1182,2.4121,1.9961,3.8848,2.6348s3.0605,0.958,4.7637,0.958h4.79c1.7031,0,3.291-0.3193,4.7637-0.958
		c1.4717-0.6387,2.7578-1.5166,3.8584-2.6348c1.0996-1.1172,1.9697-2.4121,2.6084-3.8848c0.6387-1.4722,0.957-3.0605,0.957-4.7637
		V1.0645h6.8662v58.6514C42.9502,62.3062,42.4619,64.7368,41.4863,67.0073z"/>
	<path class="st119" d="M101.1758,59.7158c0,2.5903-0.5234,5.021-1.5703,7.2915c-1.0469,2.271-2.4482,4.2578-4.2041,5.9609
		c-1.7568,1.7031-3.7969,3.043-6.1211,4.0181c-2.3242,0.9756-4.7813,1.4639-7.3711,1.4639h-5.4824
		c-2.5898,0-5.0469-0.4883-7.3711-1.4639c-2.3242-0.9751-4.3643-2.3149-6.1201-4.0181c-1.7568-1.7031-3.1582-3.6899-4.2051-5.9609
		c-1.0469-2.2705-1.5693-4.7012-1.5693-7.2915v-3.0337l6.8652-1.1177v4.1514c0,1.7031,0.3457,3.2915,1.0381,4.7637
		c0.6914,1.4727,1.623,2.7676,2.7939,3.8848c1.1709,1.1182,2.5283,1.9961,4.0713,2.6348c1.5439,0.6387,3.167,0.958,4.8701,0.958
		h4.79c1.7031,0,3.3174-0.3193,4.8428-0.958s2.875-1.5166,4.0449-2.6348c1.1719-1.1172,2.1025-2.4121,2.7949-3.8848
		c0.6914-1.4722,1.0371-3.0605,1.0371-4.7637v-2.2886c0-2.6255-0.5146-4.8076-1.543-6.5464
		c-1.0293-1.7383-2.3945-3.2197-4.0977-4.4443c-1.7031-1.2236-3.6289-2.2617-5.7754-3.1133s-4.3555-1.7031-6.626-2.5547
		c-2.2715-0.8516-4.4795-1.7915-6.626-2.8208c-2.1475-1.0288-4.0723-2.3149-5.7754-3.8589c-1.7031-1.543-3.0693-3.4326-4.0977-5.668
		c-1.0293-2.2354-1.543-4.9849-1.543-8.2495v-1.437c0-2.5898,0.4873-5.0205,1.4629-7.2915
		c0.9756-2.2705,2.3154-4.2578,4.0186-5.9609s3.6992-3.042,5.9873-4.0181C71.9834,0.4883,74.4219,0,77.0127,0h4.8965
		c2.5898,0,5.0205,0.4883,7.291,1.4639c2.2705,0.9761,4.2578,2.3149,5.9609,4.0181s3.043,3.6904,4.0186,5.9609
		c0.9756,2.271,1.4639,4.7017,1.4639,7.2915v1.9692l-6.8652,1.1177v-3.0869c0-1.7031-0.3203-3.2905-0.959-4.7637
		c-0.6387-1.4717-1.5078-2.7583-2.6074-3.8584c-1.1006-1.0996-2.3867-1.9692-3.8584-2.6079
		c-1.4727-0.6387-3.0605-0.958-4.7637-0.958H77.332c-1.7031,0-3.291,0.3193-4.7637,0.958s-2.7676,1.5083-3.8848,2.6079
		c-1.1182,1.1001-1.9961,2.3867-2.6348,3.8584c-0.6387,1.4731-0.958,3.0605-0.958,4.7637v1.437c0,2.4482,0.5137,4.5063,1.543,6.1738
		c1.0293,1.668,2.3955,3.0962,4.0986,4.2847c1.7031,1.189,3.6279,2.2178,5.7744,3.0869c2.1465,0.8696,4.3555,1.7559,6.627,2.6611
		c2.2695,0.9043,4.4785,1.8984,6.626,2.9805c2.1465,1.0825,4.0713,2.4131,5.7744,3.9912c1.7031,1.5796,3.0684,3.5044,4.0977,5.7749
		c1.0293,2.271,1.5439,5.0386,1.5439,8.3027V59.7158z"/>
	<path class="st119" d="M144.5518,59.6094h-24.1631l-5.0029,17.7764h-7.1318l22.3535-76.3213h3.6191l22.46,76.3213h-7.0791
		L144.5518,59.6094z M122.252,53.063h20.4902l-10.0586-35.1802l-0.2129-2.8208l-0.2129,2.8208L122.252,53.063z"/>
	<path class="st119" d="M207.9668,65.9429c-0.9766,2.271-2.3154,4.2578-4.0186,5.9609s-3.6992,3.043-5.9873,4.0181
		c-2.2891,0.9766-4.7285,1.4639-7.3184,1.4639h-24.1631V1.0645h24.1631c2.5898,0,5.0293,0.4883,7.3184,1.4639
		c2.2881,0.9761,4.2842,2.3149,5.9873,4.0181s3.042,3.6987,4.0186,5.9878c0.9756,2.2881,1.4639,4.728,1.4639,7.3179v0.7451
		c0,1.8096-0.2402,3.5396-0.7188,5.189c-0.4795,1.6504-1.1631,3.1851-2.0488,4.604c-0.8877,1.4194-1.9346,2.7061-3.1406,3.8589
		c-1.207,1.1533-2.5547,2.1201-4.0449,2.9004c1.4902,0.7808,2.8379,1.748,4.0449,2.9004c1.2061,1.1538,2.2529,2.4482,3.1406,3.8857
		c0.8857,1.4365,1.5693,2.9805,2.0488,4.6299c0.4785,1.6504,0.7188,3.3799,0.7188,5.1895v4.8965
		C209.4307,61.2417,208.9424,63.6724,207.9668,65.9429z M202.5645,19.8521c0-1.7031-0.3193-3.2905-0.958-4.7632
		c-0.6387-1.4722-1.5166-2.7676-2.6348-3.8857c-1.1172-1.1172-2.4131-1.9956-3.8848-2.6343
		c-1.4727-0.6387-3.0605-0.958-4.7637-0.958h-16.9785v26.292h16.9785c1.7031,0,3.291-0.3193,4.7637-0.958
		c1.4717-0.6387,2.7676-1.5171,3.8848-2.6343c1.1182-1.1182,1.9961-2.4126,2.6348-3.8857c0.6387-1.4717,0.958-3.0601,0.958-4.7632
		V19.8521z M202.5645,52.6372c0-1.7031-0.3193-3.2905-0.958-4.7632c-0.6387-1.4722-1.5166-2.7588-2.6348-3.8589
		c-1.1172-1.0996-2.4131-1.9692-3.8848-2.6079c-1.4727-0.6387-3.0605-0.958-4.7637-0.958h-16.9785v30.3901h16.9785
		c1.7031,0,3.291-0.3193,4.7637-0.958c1.4717-0.6387,2.7676-1.5078,3.8848-2.6079c1.1182-1.0996,1.9961-2.3857,2.6348-3.8584
		c0.6387-1.4722,0.958-3.0605,0.958-4.7637V52.6372z"/>
	<path class="st119" d="M222.5234,77.3857V1.0645h6.8652v76.3213H222.5234z"/>
	<path class="st119" d="M245.7285,77.3857V1.0645h6.8652v69.7749h29.2188v6.5464H245.7285z"/>
	<path class="st119" d="M292.7236,77.3857V1.0645h6.8652v76.3213H292.7236z"/>
	<path class="st119" d="M358.5342,65.9429c-0.9766,2.271-2.3154,4.2578-4.0186,5.9609s-3.6992,3.043-5.9873,4.0181
		c-2.2891,0.9766-4.7285,1.4639-7.3184,1.4639h-24.1631V1.0645H341.21c2.5898,0,5.0293,0.4883,7.3184,1.4639
		c2.2881,0.9761,4.2842,2.3149,5.9873,4.0181s3.042,3.6987,4.0186,5.9878c0.9756,2.2881,1.4639,4.728,1.4639,7.3179v38.7993
		C359.998,61.2417,359.5098,63.6724,358.5342,65.9429z M353.1318,19.8521c0-1.7031-0.3193-3.2905-0.958-4.7632
		c-0.6387-1.4722-1.5166-2.7676-2.6348-3.8857c-1.1172-1.1172-2.4131-1.9956-3.8848-2.6343
		c-1.4727-0.6387-3.0605-0.958-4.7637-0.958h-16.9785v63.2285h16.9785c1.7031,0,3.291-0.3193,4.7637-0.958
		c1.4717-0.6387,2.7676-1.5078,3.8848-2.6079c1.1182-1.0996,1.9961-2.3857,2.6348-3.8584c0.6387-1.4722,0.958-3.0605,0.958-4.7637
		V19.8521z"/>
	<path class="st119" d="M404.9707,59.6094h-24.1631l-5.0029,17.7764h-7.1318l22.3535-76.3213h3.6191l22.46,76.3213h-7.0791
		L404.9707,59.6094z M382.6709,53.063h20.4902l-10.0586-35.1802l-0.2129-2.8208l-0.2129,2.8208L382.6709,53.063z"/>
	<path class="st119" d="M468.3857,65.9429c-0.9766,2.271-2.3154,4.2578-4.0186,5.9609s-3.6992,3.043-5.9873,4.0181
		c-2.2891,0.9766-4.7285,1.4639-7.3184,1.4639h-24.1631V1.0645h24.1631c2.5898,0,5.0293,0.4883,7.3184,1.4639
		c2.2881,0.9761,4.2842,2.3149,5.9873,4.0181s3.042,3.6987,4.0186,5.9878c0.9756,2.2881,1.4639,4.728,1.4639,7.3179v38.7993
		C469.8496,61.2417,469.3613,63.6724,468.3857,65.9429z M462.9834,19.8521c0-1.7031-0.3193-3.2905-0.958-4.7632
		c-0.6387-1.4722-1.5166-2.7676-2.6348-3.8857c-1.1172-1.1172-2.4131-1.9956-3.8848-2.6343
		c-1.4727-0.6387-3.0605-0.958-4.7637-0.958h-16.9785v63.2285h16.9785c1.7031,0,3.291-0.3193,4.7637-0.958
		c1.4717-0.6387,2.7676-1.5078,3.8848-2.6079c1.1182-1.0996,1.9961-2.3857,2.6348-3.8584c0.6387-1.4722,0.958-3.0605,0.958-4.7637
		V19.8521z"/>
	<path class="st119" d="M109.832,121.6958l0.123,1.6304l0.123-1.6304l9.7832-34.4224h4.0908l-12.9814,44.1123h-2.0918
		L95.959,87.2734h4.1221L109.832,121.6958z"/>
	<path class="st119" d="M129.3047,92.3184v-5.0449h4.3994v5.0449H129.3047z M129.6123,131.3857v-31.5h3.7832v31.5H129.6123z"/>
	<path class="st119" d="M163.8809,123.3877c0,1.272-0.2559,2.4355-0.7686,3.4912c-0.5127,1.0566-1.21,1.9644-2.0918,2.7227
		c-0.8818,0.7588-1.9023,1.3486-3.0605,1.7686c-1.1592,0.4204-2.374,0.6309-3.6455,0.6309h-2.5225
		c-1.2715,0-2.4873-0.2412-3.6455-0.7227c-1.1582-0.4819-2.1738-1.1431-3.0449-1.9844c-0.8721-0.8408-1.5693-1.8252-2.0918-2.9531
		c-0.5234-1.1274-0.7852-2.3271-0.7852-3.5991v-1.2612l3.7842-0.6152v2.0918c0,0.7588,0.1582,1.4717,0.4766,2.1377
		c0.3184,0.667,0.7432,1.2461,1.2764,1.7383s1.1484,0.8818,1.8457,1.1689c0.6973,0.2876,1.4258,0.4307,2.1846,0.4307h2.5225
		c0.7588,0,1.4863-0.1123,2.1836-0.3384c0.6973-0.2256,1.3184-0.5483,1.8613-0.9692c0.543-0.4199,0.9736-0.9272,1.292-1.5225
		c0.3184-0.5947,0.4775-1.2715,0.4775-2.0303c0-1.1274-0.2461-2.0503-0.7383-2.7686c-0.4922-0.7178-1.1436-1.3174-1.9541-1.7998
		c-0.8105-0.4814-1.7334-0.8813-2.7686-1.1992s-2.0967-0.6357-3.1836-0.9541c-1.0869-0.3174-2.1484-0.6812-3.1836-1.0918
		c-1.0361-0.4102-1.959-0.9482-2.7686-1.6152c-0.8105-0.666-1.4619-1.502-1.9541-2.5068c-0.4922-1.0044-0.7383-2.2559-0.7383-3.7529
		c0-1.2715,0.2461-2.4351,0.7383-3.4912s1.1592-1.9639,2-2.7227c0.8408-0.7583,1.8193-1.3481,2.9375-1.7686
		s2.3125-0.6309,3.584-0.6309h2.2148c1.2715,0,2.4707,0.2412,3.5996,0.7227c1.127,0.4824,2.1113,1.1436,2.9531,1.9844
		c0.8398,0.8413,1.502,1.8257,1.9834,2.9531c0.4814,1.1279,0.7236,2.3276,0.7236,3.5991v0.123l-3.7842,0.6152v-0.9536
		c0-0.7583-0.1436-1.4712-0.4307-2.1377s-0.6768-1.2461-1.1689-1.7383s-1.0723-0.8813-1.7383-1.1689
		c-0.666-0.2871-1.3789-0.4307-2.1377-0.4307h-2.2148c-0.7588,0-1.4717,0.1128-2.1377,0.3384
		c-0.667,0.2261-1.2461,0.5488-1.7383,0.9692s-0.8818,0.9277-1.1689,1.5225c-0.2871,0.5952-0.4307,1.272-0.4307,2.0303
		c0,1.0874,0.2461,1.9741,0.7383,2.6611s1.1426,1.2661,1.9531,1.7378c0.8105,0.4722,1.7334,0.8667,2.7686,1.1841
		c1.0352,0.3184,2.0918,0.6465,3.1689,0.9844c1.0762,0.3389,2.1328,0.7231,3.168,1.1538s1.958,0.9844,2.7686,1.6611
		s1.4609,1.5229,1.9531,2.5376C163.6348,120.6348,163.8809,121.8911,163.8809,123.3877z"/>
	<path class="st119" d="M172.0947,92.3184v-5.0449h4.3994v5.0449H172.0947z M172.4023,131.3857v-31.5h3.7832v31.5H172.4023z"/>
	<path class="st119" d="M205.332,126.3408c-0.4814,1.1279-1.1436,2.1123-1.9844,2.9531c-0.8408,0.8413-1.8252,1.5024-2.9531,1.9844
		c-1.1279,0.4814-2.3271,0.7227-3.5986,0.7227h-2.5225c-1.2715,0-2.4717-0.2412-3.5996-0.7227
		c-1.1279-0.4819-2.1123-1.1431-2.9531-1.9844c-0.8408-0.8408-1.502-1.8252-1.9834-2.9531
		c-0.4824-1.1274-0.7236-2.3271-0.7236-3.5991v-14.2119c0-1.2715,0.2412-2.4712,0.7236-3.5991
		c0.4814-1.1274,1.1426-2.1118,1.9834-2.9531c0.8408-0.8408,1.8252-1.502,2.9531-1.9844c1.1279-0.4814,2.3281-0.7227,3.5996-0.7227
		h2.5225c1.2715,0,2.4707,0.2412,3.5986,0.7227c1.1279,0.4824,2.1123,1.1436,2.9531,1.9844
		c0.8408,0.8413,1.5029,1.8257,1.9844,2.9531c0.4814,1.1279,0.7227,2.3276,0.7227,3.5991v14.2119
		C206.0547,124.0137,205.8135,125.2134,205.332,126.3408z M202.2715,108.3145c0-0.7583-0.1436-1.4712-0.4307-2.1377
		s-0.6768-1.2461-1.1689-1.7383s-1.0723-0.8813-1.7383-1.1689c-0.666-0.2871-1.3789-0.4307-2.1377-0.4307h-2.5225
		c-0.7588,0-1.4717,0.1436-2.1377,0.4307c-0.667,0.2876-1.2461,0.6768-1.7383,1.1689s-0.8818,1.0718-1.1689,1.7383
		s-0.4307,1.3794-0.4307,2.1377v14.6426c0,0.7588,0.1436,1.4717,0.4307,2.1377c0.2871,0.667,0.6768,1.2461,1.1689,1.7383
		s1.0713,0.8818,1.7383,1.1689c0.666,0.2876,1.3789,0.4307,2.1377,0.4307h2.5225c0.7588,0,1.4717-0.1431,2.1377-0.4307
		c0.666-0.2871,1.2461-0.6768,1.7383-1.1689s0.8818-1.0713,1.1689-1.7383c0.2871-0.666,0.4307-1.3789,0.4307-2.1377V108.3145z
		 M193.9658,94.8408h-2.8301l5.0146-7.5674h6.3057L193.9658,94.8408z"/>
	<path class="st119" d="M230.8799,131.3857v-23.0713c0-0.7583-0.1436-1.4712-0.4307-2.1377s-0.6768-1.2461-1.1689-1.7383
		s-1.0723-0.8813-1.7383-1.1689c-0.666-0.2871-1.3789-0.4307-2.1377-0.4307h-2.5225c-0.7588,0-1.4717,0.1436-2.1377,0.4307
		c-0.667,0.2876-1.2461,0.6768-1.7383,1.1689s-0.8818,1.0718-1.1689,1.7383s-0.4307,1.3794-0.4307,2.1377v23.0713h-3.7842v-31.5
		h1.2617l2.0605,3.1992c0.8613-1.1689,1.9434-2.0967,3.2461-2.7842c1.3018-0.6865,2.7227-1.0303,4.2598-1.0303h0.9541
		c1.2715,0,2.4707,0.2412,3.5986,0.7227c1.1279,0.4824,2.1123,1.1436,2.9531,1.9844c0.8408,0.8413,1.5029,1.8257,1.9844,2.9531
		c0.4814,1.1279,0.7227,2.3276,0.7227,3.5991v22.856H230.8799z"/>
	<path class="st119" d="M277.0371,126.3408c-0.4814,1.1279-1.1436,2.1123-1.9844,2.9531c-0.8408,0.8413-1.8252,1.5024-2.9531,1.9844
		c-1.1279,0.4814-2.3271,0.7227-3.5986,0.7227h-2.5225c-1.2715,0-2.4717-0.2412-3.5996-0.7227
		c-1.1279-0.4819-2.1123-1.1431-2.9531-1.9844c-0.8408-0.8408-1.502-1.8252-1.9834-2.9531
		c-0.4824-1.1274-0.7236-2.3271-0.7236-3.5991v-14.2119c0-1.2715,0.2412-2.4712,0.7236-3.5991
		c0.4814-1.1274,1.1426-2.1118,1.9834-2.9531c0.8408-0.8408,1.8252-1.502,2.9531-1.9844c1.1279-0.4814,2.3281-0.7227,3.5996-0.7227
		h2.5225c1.2715,0,2.4707,0.2412,3.5986,0.7227c1.1279,0.4824,2.1123,1.1436,2.9531,1.9844
		c0.8408,0.8413,1.5029,1.8257,1.9844,2.9531c0.4814,1.1279,0.7227,2.3276,0.7227,3.5991v7.4136h-17.2568v7.0137
		c0,0.7588,0.1436,1.4717,0.4307,2.1377c0.2871,0.667,0.6768,1.2461,1.1689,1.7383s1.0713,0.8818,1.7383,1.1689
		c0.666,0.2876,1.3789,0.4307,2.1377,0.4307h2.5225c0.7588,0,1.4717-0.1431,2.1377-0.4307c0.666-0.2871,1.2461-0.6768,1.7383-1.1689
		s0.8818-1.0713,1.1689-1.7383c0.2871-0.666,0.4307-1.3789,0.4307-2.1377v-2.0918l3.7832,0.6152v1.2612
		C277.7598,124.0137,277.5186,125.2134,277.0371,126.3408z M273.9766,108.3145c0-0.7583-0.1436-1.4712-0.4307-2.1377
		s-0.6768-1.2461-1.1689-1.7383s-1.0723-0.8813-1.7383-1.1689c-0.666-0.2871-1.3789-0.4307-2.1377-0.4307h-2.5225
		c-0.7588,0-1.4717,0.1436-2.1377,0.4307c-0.667,0.2876-1.2461,0.6768-1.7383,1.1689s-0.8818,1.0718-1.1689,1.7383
		s-0.4307,1.3794-0.4307,2.1377v4.6758h13.4736V108.3145z M265.6709,94.8408h-2.8301l5.0146-7.5674h6.3057L265.6709,94.8408z"/>
	<path class="st119" d="M296.8018,131.3857c-1.1484,0-2.2305-0.2153-3.2451-0.646c-1.0156-0.4307-1.8975-1.0254-2.6455-1.7842
		c-0.749-0.7583-1.3438-1.6406-1.7842-2.6455c-0.4414-1.0044-0.6611-2.0811-0.6611-3.23v-19.5952h-5.6602v-3.5991h5.6602v-7.5674
		l3.7832-0.6152v8.1826h7.998v3.5991h-7.998v19.7798c0,0.6357,0.1182,1.2256,0.3535,1.7686
		c0.2354,0.5439,0.5586,1.0205,0.9688,1.4307c0.4102,0.4106,0.8926,0.7334,1.4463,0.9688c0.5537,0.2363,1.1484,0.354,1.7842,0.354
		h3.4453v3.5991H296.8018z"/>
	<path class="st119" d="M308.1533,92.3184v-5.0449h4.3994v5.0449H308.1533z M308.4609,131.3857v-31.5h3.7832v31.5H308.4609z"/>
	<path class="st119" d="M341.3906,126.3408c-0.4814,1.1279-1.1436,2.1123-1.9844,2.9531c-0.8408,0.8413-1.8252,1.5024-2.9531,1.9844
		c-1.1279,0.4814-2.3271,0.7227-3.5986,0.7227h-2.5225c-1.2715,0-2.4717-0.2412-3.5996-0.7227
		c-1.1279-0.4819-2.1123-1.1431-2.9531-1.9844c-0.8408-0.8408-1.502-1.8252-1.9834-2.9531
		c-0.4824-1.1274-0.7236-2.3271-0.7236-3.5991v-14.2119c0-1.2715,0.2412-2.4712,0.7236-3.5991
		c0.4814-1.1274,1.1426-2.1118,1.9834-2.9531c0.8408-0.8408,1.8252-1.502,2.9531-1.9844c1.1279-0.4814,2.3281-0.7227,3.5996-0.7227
		h2.5225c1.2715,0,2.4707,0.2412,3.5986,0.7227c1.1279,0.4824,2.1123,1.1436,2.9531,1.9844
		c0.8408,0.8413,1.5029,1.8257,1.9844,2.9531c0.4814,1.1279,0.7227,2.3276,0.7227,3.5991v1.2612l-3.7832,0.6152v-2.0918
		c0-0.7583-0.1436-1.4712-0.4307-2.1377s-0.6768-1.2461-1.1689-1.7383s-1.0723-0.8813-1.7383-1.1689
		c-0.666-0.2871-1.3789-0.4307-2.1377-0.4307h-2.5225c-0.7588,0-1.4717,0.1436-2.1377,0.4307
		c-0.667,0.2876-1.2461,0.6768-1.7383,1.1689s-0.8818,1.0718-1.1689,1.7383s-0.4307,1.3794-0.4307,2.1377v14.6426
		c0,0.7588,0.1436,1.4717,0.4307,2.1377c0.2871,0.667,0.6768,1.2461,1.1689,1.7383s1.0713,0.8818,1.7383,1.1689
		c0.666,0.2876,1.3789,0.4307,2.1377,0.4307h2.5225c0.7588,0,1.4717-0.1431,2.1377-0.4307c0.666-0.2871,1.2461-0.6768,1.7383-1.1689
		s0.8818-1.0713,1.1689-1.7383c0.2871-0.666,0.4307-1.3789,0.4307-2.1377v-2.0918l3.7832,0.6152v1.2612
		C342.1133,124.0137,341.8721,125.2134,341.3906,126.3408z"/>
	<path class="st119" d="M369.4609,131.3857l-2.0918-3.1377c-0.8613,1.1279-1.9385,2.0356-3.2295,2.7227
		c-1.293,0.6865-2.707,1.0303-4.2461,1.0303h-0.9531c-1.2715,0-2.4717-0.2412-3.5996-0.7227
		c-1.1279-0.4819-2.1123-1.1431-2.9531-1.9844c-0.8408-0.8408-1.502-1.8252-1.9834-2.9531
		c-0.4824-1.1274-0.7236-2.3271-0.7236-3.5991v-0.3076c0-1.2715,0.2412-2.4712,0.7236-3.5991
		c0.4814-1.1274,1.1426-2.1118,1.9834-2.9531c0.8408-0.8408,1.8252-1.502,2.9531-1.9844c1.1279-0.4814,2.3281-0.7227,3.5996-0.7227
		h7.998v-4.8604c0-0.7583-0.1436-1.4712-0.4307-2.1377s-0.6768-1.2461-1.1689-1.7383s-1.0723-0.8813-1.7383-1.1689
		c-0.666-0.2871-1.3789-0.4307-2.1377-0.4307h-2.2148c-0.7588,0-1.4717,0.1436-2.1377,0.4307
		c-0.667,0.2876-1.2461,0.6768-1.7383,1.1689s-0.8818,1.0718-1.1689,1.7383s-0.4307,1.3794-0.4307,2.1377v1.1382l-3.7832-0.6152
		v-0.3076c0-1.2715,0.2402-2.4712,0.7227-3.5991c0.4814-1.1274,1.1426-2.1118,1.9844-2.9531
		c0.8398-0.8408,1.8242-1.502,2.9531-1.9844c1.127-0.4814,2.3271-0.7227,3.5986-0.7227h2.2148c1.2715,0,2.4707,0.2412,3.5986,0.7227
		c1.1279,0.4824,2.1123,1.1436,2.9531,1.9844c0.8408,0.8413,1.5029,1.8257,1.9844,2.9531c0.4814,1.1279,0.7227,2.3276,0.7227,3.5991
		v22.856H369.4609z M366.9385,116.1279h-7.998c-0.7588,0-1.4717,0.1436-2.1377,0.4307c-0.667,0.2876-1.2461,0.6821-1.7383,1.1846
		s-0.8818,1.0869-1.1689,1.7529c-0.2871,0.667-0.4307,1.3799-0.4307,2.1382v1.3228c0,0.7588,0.1436,1.4717,0.4307,2.1377
		c0.2871,0.667,0.6768,1.2461,1.1689,1.7383s1.0713,0.8818,1.7383,1.1689c0.666,0.2876,1.3789,0.4307,2.1377,0.4307h2.5225
		c0.7588,0,1.4717-0.1431,2.1377-0.4307c0.666-0.2871,1.2461-0.6768,1.7383-1.1689s0.8818-1.0713,1.1689-1.7383
		c0.2871-0.666,0.4307-1.3789,0.4307-2.1377V116.1279z"/>
</g>
</svg>
