<?xml version="1.0" encoding="utf-8"?>
<!-- Generator: Adobe Illustrator 21.0.2, SVG Export Plug-In . SVG Version: 6.00 Build 0)  -->
<svg version="1.1" id="Capa_1" xmlns="http://www.w3.org/2000/svg" xmlns:xlink="http://www.w3.org/1999/xlink" x="0px" y="0px"
	 viewBox="0 0 232.9551 27.0117" style="enable-background:new 0 0 232.9551 27.0117;" xml:space="preserve">
<style type="text/css">
	.st0{fill-rule:evenodd;clip-rule:evenodd;fill:#DDDDDD;}
	.st1{fill:#3B86B1;}
	.st2{opacity:0.25;fill-rule:evenodd;clip-rule:evenodd;fill:#020202;}
	.st3{fill:#FFFFFF;}
	.st4{opacity:0.5;}
	.st5{fill-rule:evenodd;clip-rule:evenodd;fill:#A8A8A8;}
	.st6{fill-rule:evenodd;clip-rule:evenodd;fill:#FFFFFF;}
	.st7{fill-rule:evenodd;clip-rule:evenodd;fill:#3B86B1;}
	.st8{opacity:0.5;fill:#2C6882;}
	.st9{opacity:0.75;fill-rule:evenodd;clip-rule:evenodd;fill:#282828;}
	.st10{opacity:0.5;fill:#FFFFFF;}
	.st11{fill-rule:evenodd;clip-rule:evenodd;fill:none;stroke:#FFFFFF;stroke-miterlimit:10;}
	.st12{fill:none;stroke:#FFFFFF;stroke-miterlimit:10;}
	.st13{fill:#FFFFFF;stroke:#3B86B1;stroke-width:1.7139;stroke-miterlimit:10;}
	.st14{fill-rule:evenodd;clip-rule:evenodd;}
	.st15{opacity:0.85;fill:#FFFFFF;}
	.st16{opacity:0.5;fill-rule:evenodd;clip-rule:evenodd;}
	.st17{fill-rule:evenodd;clip-rule:evenodd;fill:#FEFEFE;}
	.st18{fill:#312767;}
	.st19{opacity:0.48;}
	.st20{opacity:0.25;}
	.st21{fill-rule:evenodd;clip-rule:evenodd;fill:#020202;}
	.st22{fill:#757575;}
	.st23{opacity:0.25;clip-path:url(#XMLID_2396_);}
	.st24{fill:#4D4789;}
	.st25{fill:#FFFFFF;stroke:#312767;stroke-miterlimit:10;}
	.st26{fill:#3B86B1;stroke:#3B86B1;stroke-miterlimit:10;}
	.st27{fill:#FFFFFF;stroke:#FFFFFF;stroke-miterlimit:10;}
	.st28{fill:#ACABC9;}
	.st29{fill-rule:evenodd;clip-rule:evenodd;fill:#312767;}
	.st30{opacity:0.77;fill:#312767;}
	.st31{opacity:0.25;clip-path:url(#XMLID_2397_);}
	.st32{fill:#9490B2;stroke:#2D2D2D;stroke-width:0.25;stroke-miterlimit:10;}
	.st33{fill:#312767;stroke:#2D2D2D;stroke-width:0.25;stroke-miterlimit:10;}
	.st34{fill:#FCFCFC;}
	.st35{fill:#FFFFFF;stroke:#2D2D2D;stroke-width:0.25;stroke-miterlimit:10;}
	.st36{fill-rule:evenodd;clip-rule:evenodd;fill:#484849;stroke:#2D2D2D;stroke-width:0.25;stroke-miterlimit:10;}
	.st37{fill-rule:evenodd;clip-rule:evenodd;fill:#312767;stroke:#2D2D2D;stroke-width:0.25;stroke-miterlimit:10;}
	.st38{fill-rule:evenodd;clip-rule:evenodd;fill:#FFFFFF;stroke:#2D2D2D;stroke-width:0.25;stroke-miterlimit:10;}
	.st39{fill:#484849;stroke:#2D2D2D;stroke-width:0.25;stroke-miterlimit:10;}
	.st40{fill:#54518C;}
	.st41{opacity:0.25;fill-rule:evenodd;clip-rule:evenodd;fill:#FFFFFF;}
	.st42{fill:#D4A800;}
	.st43{fill:#00AEB3;}
	.st44{fill:#38353B;}
	.st45{fill:#FF8400;}
	.st46{fill:#BF3900;}
	.st47{fill:#00AA9C;}
	.st48{opacity:0.25;clip-path:url(#XMLID_2400_);}
	.st49{fill:none;stroke:#ACABC9;stroke-width:5;stroke-miterlimit:10;}
	.st50{opacity:0.25;clip-path:url(#XMLID_2403_);}
	.st51{fill:#DDDDDD;}
	.st52{opacity:0.25;fill-rule:evenodd;clip-rule:evenodd;fill:#FFFFFF;stroke:#303030;stroke-width:0.5;stroke-miterlimit:10;}
	.st53{fill:#3B86B1;stroke:#303030;stroke-width:0.5;stroke-miterlimit:10;}
	.st54{fill:#D4A800;stroke:#303030;stroke-width:0.5;stroke-miterlimit:10;}
	.st55{fill:#00AEB3;stroke:#303030;stroke-width:0.5;stroke-miterlimit:10;}
	.st56{fill:#FF8400;stroke:#303030;stroke-width:0.5;stroke-miterlimit:10;}
	.st57{fill:#BF3900;stroke:#303030;stroke-width:0.5;stroke-miterlimit:10;}
	.st58{fill:#00AA9C;stroke:#303030;stroke-width:0.5;stroke-miterlimit:10;}
	.st59{opacity:0.25;clip-path:url(#XMLID_2404_);}
	.st60{fill-rule:evenodd;clip-rule:evenodd;fill:#FFFFFF;stroke:#FFFFFF;stroke-miterlimit:10;}
	.st61{fill:#F79748;}
	.st62{fill:#FF7900;}
	.st63{fill:#DD7105;}
	.st64{fill:#02897C;}
	.st65{fill:#0EAD9A;}
	.st66{fill:#28C6AF;}
	.st67{fill:#4FE0C7;}
	.st68{fill:#00AA9C;stroke:#353535;stroke-width:0.5;stroke-miterlimit:10;}
	.st69{fill:#02897C;stroke:#353535;stroke-width:0.5;stroke-miterlimit:10;}
	.st70{fill:#0EAD9A;stroke:#353535;stroke-width:0.5;stroke-miterlimit:10;}
	.st71{fill:#28C6AF;stroke:#353535;stroke-width:0.5;stroke-miterlimit:10;}
	.st72{fill:#4FE0C7;stroke:#353535;stroke-width:0.5;stroke-miterlimit:10;}
	.st73{fill:#D37D00;}
	.st74{fill:#D14600;}
	.st75{fill:#E5B92E;}
	.st76{fill:#DD571B;}
	.st77{fill:#E28A17;}
	.st78{opacity:0.25;clip-path:url(#XMLID_2410_);}
	.st79{opacity:0.77;fill:#FFFFFF;}
	.st80{fill:#50565B;stroke:#656C70;stroke-miterlimit:10;}
	.st81{fill:#808589;stroke:#656C70;stroke-miterlimit:10;}
	.st82{fill:#252728;stroke:#000000;stroke-miterlimit:10;}
	.st83{fill:#1A1B1C;stroke:#000000;stroke-miterlimit:10;}
	.st84{fill:#A0A6AA;}
	.st85{fill:#262C35;stroke:#161A1E;stroke-miterlimit:10;}
	.st86{fill:#181D23;}
	.st87{fill:#EABA96;stroke:#E0AA86;stroke-miterlimit:10;}
	.st88{fill:#E0AA86;}
	.st89{stroke:#000000;stroke-width:0.75;stroke-linecap:square;stroke-linejoin:bevel;stroke-miterlimit:10;}
	.st90{fill:#0F1C3F;stroke:#182951;stroke-miterlimit:10;}
	.st91{fill:#132354;stroke:#3F6093;stroke-miterlimit:10;}
	.st92{fill:#0F1C3F;}
	.st93{fill:none;stroke:#3F6093;stroke-width:0.75;stroke-miterlimit:10;}
	.st94{fill:#DBA682;}
	.st95{fill:none;stroke:#E0AA86;stroke-miterlimit:10;}
	.st96{fill:none;stroke:#E0AA86;stroke-linejoin:bevel;stroke-miterlimit:10;}
	.st97{fill:#8A0A8E;stroke:#AC34B2;stroke-miterlimit:10;}
	.st98{fill:#810C87;}
	.st99{fill:#680B6D;}
	.st100{fill:#AC34B2;stroke:#AC34B2;stroke-width:0.5;stroke-miterlimit:10;}
	.st101{fill:none;stroke:#959DA0;stroke-width:0.5;stroke-miterlimit:10;}
	.st102{fill:#959DA0;stroke:#959DA0;stroke-width:0.5;stroke-miterlimit:10;}
	.st103{fill:none;stroke:#AC34B2;stroke-miterlimit:10;}
	.st104{fill:#282828;stroke:#000000;stroke-miterlimit:10;}
	.st105{fill:#EABA96;stroke:#E0AA86;stroke-width:0.5;stroke-miterlimit:10;}
	.st106{fill:#B7896A;}
	.st107{stroke:#000000;stroke-miterlimit:10;}
	.st108{fill:#C1A578;}
	.st109{stroke:#000000;stroke-width:0.25;stroke-linecap:round;stroke-linejoin:round;stroke-miterlimit:10;}
	.st110{fill:#FFFFFF;stroke:#000000;stroke-width:0.25;stroke-linecap:round;stroke-linejoin:round;stroke-miterlimit:10;}
	.st111{fill:#70582D;}
	.st112{stroke:#000000;stroke-linecap:round;stroke-linejoin:round;stroke-miterlimit:10;}
	.st113{fill:none;stroke:#D8A27D;stroke-width:0.75;stroke-miterlimit:10;}
	.st114{fill:#561409;}
	.st115{fill:#BA2A13;}
	.st116{fill:#9E3025;stroke:#4C2311;stroke-width:0.25;stroke-miterlimit:10;}
	.st117{fill:#871D08;stroke:#4C2311;stroke-width:0.25;stroke-miterlimit:10;}
	.st118{fill:#DDAC8A;}
	.st119{fill:#A5ABAD;stroke:#959DA0;stroke-width:0.5;stroke-miterlimit:10;}
	.st120{fill:#B1BABC;}
	.st121{fill:none;stroke:#153847;stroke-width:5;stroke-miterlimit:10;}
	.st122{fill:#3CA7AF;}
	.st123{fill:#3DAD8D;}
	.st124{fill:#3DAA61;}
	.st125{fill:#67A53F;}
	.st126{fill:#95A340;}
	.st127{opacity:0.25;clip-path:url(#XMLID_2411_);}
	.st128{opacity:0.25;clip-path:url(#XMLID_2416_);}
	.st129{fill:#F79748;stroke:#303030;stroke-width:0.5;stroke-miterlimit:10;}
	.st130{fill:#FF7900;stroke:#303030;stroke-width:0.5;stroke-miterlimit:10;}
	.st131{fill:#DD7105;stroke:#303030;stroke-width:0.5;stroke-miterlimit:10;}
	.st132{opacity:0.25;clip-path:url(#XMLID_2422_);}
	.st133{clip-path:url(#SVGID_2_);}
	.st134{fill:none;stroke:#3F6093;stroke-miterlimit:10;}
	.st135{fill:none;stroke:#3F6093;stroke-width:0.75;stroke-linecap:round;stroke-linejoin:round;}
	.st136{fill:none;stroke:#3F6093;stroke-width:0.75;stroke-linecap:round;stroke-linejoin:round;stroke-dasharray:0.9892,0.9892;}
	
		.st137{fill:none;stroke:#3F6093;stroke-width:0.75;stroke-linecap:round;stroke-linejoin:round;stroke-miterlimit:10;stroke-dasharray:1;}
	.st138{fill:#EAEAEA;stroke:#FFFFFF;stroke-width:0.25;stroke-miterlimit:10;}
	.st139{fill:#D8D8D8;}
	.st140{fill:#282828;stroke:#000000;stroke-width:0.75;stroke-miterlimit:10;}
	.st141{opacity:0.33;fill:#FFFFFF;}
	.st142{fill:none;stroke:#000000;stroke-width:1.5;stroke-linecap:round;stroke-linejoin:round;stroke-miterlimit:10;}
	.st143{clip-path:url(#SVGID_4_);}
	.st144{opacity:0.64;}
	.st145{fill:#1D1D1B;}
	.st146{fill:#C9C9C9;}
	.st147{fill:#545477;}
</style>
<g>
	<path class="st24" d="M11.4189,18.1504c-0.2686,0.625-0.6377,1.1719-1.1064,1.6406s-1.0156,0.8369-1.6406,1.1055
		s-1.293,0.4023-2.0059,0.4023H5.1719c-0.7129,0-1.3848-0.1338-2.0146-0.4023s-1.1787-0.6367-1.6475-1.1055
		s-0.8379-1.0156-1.1064-1.6406S0,16.8555,0,16.1426V0h1.8906v16.1426c0,0.4688,0.0879,0.9063,0.2637,1.3115
		s0.417,0.7617,0.7246,1.0693s0.6641,0.5488,1.0693,0.7246s0.8428,0.2637,1.3115,0.2637h1.3184
		c0.4688,0,0.9053-0.0879,1.3105-0.2637s0.7598-0.417,1.0625-0.7246s0.541-0.6641,0.7168-1.0693s0.2637-0.8428,0.2637-1.3115V0
		h1.8906v16.1426C11.8223,16.8555,11.6875,17.5254,11.4189,18.1504z"/>
	<path class="st24" d="M26.0449,17.1973c0,0.6055-0.1211,1.1602-0.3652,1.6631s-0.5762,0.9346-0.9961,1.2959
		s-0.9063,0.6426-1.458,0.8428s-1.1299,0.2998-1.7354,0.2998h-1.2012c-0.6055,0-1.1846-0.1143-1.7363-0.3438
		s-1.0352-0.5449-1.4502-0.9453s-0.7471-0.8691-0.9961-1.4063s-0.374-1.1074-0.374-1.7129v-0.6016l1.8027-0.293v0.9961
		c0,0.3613,0.0752,0.7012,0.2266,1.0186s0.3535,0.5928,0.6074,0.8271s0.5469,0.4199,0.8789,0.5566s0.6797,0.2051,1.041,0.2051
		h1.2012c0.3613,0,0.707-0.0527,1.0391-0.1602s0.6279-0.2617,0.8867-0.4619s0.4639-0.4424,0.6152-0.7256
		s0.2266-0.6055,0.2266-0.9668c0-0.5371-0.1172-0.9766-0.3516-1.3184s-0.5439-0.627-0.9297-0.8564s-0.8252-0.4199-1.3184-0.5713
		s-0.998-0.3027-1.5156-0.4541s-1.0234-0.3252-1.5166-0.5205s-0.9326-0.4512-1.3184-0.7686s-0.6963-0.7158-0.9307-1.1943
		s-0.3516-1.0742-0.3516-1.7871c0-0.6055,0.1172-1.1592,0.3516-1.6621s0.5527-0.9355,0.9531-1.2969s0.8662-0.6416,1.3984-0.8418
		s1.1016-0.3008,1.707-0.3008h1.0547c0.6055,0,1.1758,0.1152,1.7129,0.3447s1.0059,0.5439,1.4063,0.9443
		s0.7158,0.8691,0.9453,1.4063s0.3438,1.1094,0.3438,1.7148v0.0586l-1.8008,0.293v-0.4551c0-0.3613-0.0684-0.7002-0.2051-1.0176
		s-0.3223-0.5938-0.5566-0.8281s-0.5107-0.4199-0.8281-0.5566s-0.6563-0.2051-1.0176-0.2051h-1.0547
		c-0.3613,0-0.7012,0.0547-1.0186,0.1621s-0.5928,0.2607-0.8271,0.4609s-0.4199,0.4414-0.5566,0.7246s-0.2051,0.6055-0.2051,0.9668
		c0,0.5176,0.1172,0.9404,0.3516,1.2676s0.5439,0.6035,0.9297,0.8281s0.8252,0.4121,1.3184,0.5635s0.9961,0.3076,1.5088,0.4688
		s1.0156,0.3447,1.5088,0.5498s0.9326,0.4688,1.3184,0.791s0.6953,0.7246,0.9297,1.208S26.0449,16.4844,26.0449,17.1973z"/>
	<path class="st24" d="M38.9219,21.0059l-0.9961-1.4941c-0.4102,0.5371-0.9238,0.9697-1.5391,1.2969s-1.2891,0.4902-2.0215,0.4902
		h-0.4531c-0.6055,0-1.1777-0.1143-1.7148-0.3438s-1.0059-0.5449-1.4063-0.9453s-0.7148-0.8691-0.9443-1.4063
		s-0.3447-1.1074-0.3447-1.7129v-0.1465c0-0.6055,0.1152-1.1777,0.3447-1.7148s0.5439-1.0059,0.9443-1.4063
		s0.8691-0.7148,1.4063-0.9443s1.1094-0.3447,1.7148-0.3447h3.8086v-2.3145c0-0.3613-0.0684-0.7002-0.2051-1.0176
		s-0.3223-0.5938-0.5566-0.8281s-0.5107-0.4199-0.8281-0.5566s-0.6563-0.2051-1.0176-0.2051h-1.0547
		c-0.3613,0-0.7012,0.0684-1.0186,0.2051s-0.5928,0.3223-0.8271,0.5566S31.793,8.6846,31.6563,9.002s-0.2051,0.6563-0.2051,1.0176
		v0.543l-1.8027-0.293V10.123c0-0.6055,0.1152-1.1777,0.3447-1.7148s0.5439-1.0059,0.9443-1.4063s0.8691-0.7148,1.4063-0.9443
		s1.1094-0.3447,1.7148-0.3447h1.0547c0.6055,0,1.1758,0.1152,1.7129,0.3447s1.0059,0.5439,1.4063,0.9443
		s0.7158,0.8691,0.9453,1.4063s0.3438,1.1094,0.3438,1.7148v10.8828H38.9219z M37.7207,13.7402h-3.8086
		c-0.3613,0-0.7012,0.0684-1.0186,0.2051s-0.5928,0.3252-0.8271,0.5645s-0.4199,0.5176-0.5566,0.835s-0.2051,0.6572-0.2051,1.0186
		v0.6289c0,0.3613,0.0684,0.7012,0.2051,1.0186s0.3223,0.5928,0.5566,0.8271s0.5098,0.4199,0.8271,0.5566
		s0.6572,0.2051,1.0186,0.2051h1.2012c0.3613,0,0.7002-0.0684,1.0176-0.2051s0.5938-0.3223,0.8281-0.5566
		s0.4199-0.5098,0.5566-0.8271s0.2051-0.6572,0.2051-1.0186V13.7402z"/>
	<path class="st24" d="M52.8008,18.6035c-0.2295,0.5371-0.5449,1.0059-0.9453,1.4063s-0.8691,0.7158-1.4063,0.9453
		s-1.1074,0.3438-1.7129,0.3438h-1.2012c-0.6055,0-1.1777-0.1143-1.7148-0.3438s-1.0059-0.5449-1.4063-0.9453
		s-0.7148-0.8691-0.9443-1.4063s-0.3447-1.1074-0.3447-1.7129V0h1.8027v7.2656c0.4102-0.4883,0.9023-0.8691,1.4785-1.1426
		s1.2012-0.4102,1.875-0.4102h0.4551c0.6055,0,1.1758,0.1152,1.7129,0.3447s1.0059,0.5439,1.4063,0.9443
		s0.7158,0.8691,0.9453,1.4063s0.3438,1.1094,0.3438,1.7148v6.7676C53.1445,17.4961,53.0303,18.0664,52.8008,18.6035z
		 M51.3438,10.0195c0-0.3613-0.0684-0.7002-0.2051-1.0176s-0.3223-0.5938-0.5566-0.8281s-0.5107-0.4199-0.8281-0.5566
		s-0.6563-0.2051-1.0176-0.2051h-1.2012c-0.3613,0-0.7012,0.0684-1.0186,0.2051s-0.5928,0.3223-0.8271,0.5566
		s-0.4199,0.5107-0.5566,0.8281s-0.2051,0.6563-0.2051,1.0176v6.9727c0,0.3613,0.0684,0.7012,0.2051,1.0186
		s0.3223,0.5928,0.5566,0.8271s0.5098,0.4199,0.8271,0.5566s0.6572,0.2051,1.0186,0.2051h1.2012
		c0.3613,0,0.7002-0.0684,1.0176-0.2051s0.5938-0.3223,0.8281-0.5566s0.4199-0.5098,0.5566-0.8271s0.2051-0.6572,0.2051-1.0186
		V10.0195z"/>
	<path class="st24" d="M57.2031,2.4023V0h2.0938v2.4023H57.2031z M57.3496,21.0059v-15h1.8008v15H57.3496z"/>
	<path class="st24" d="M63.9551,21.0059V0h1.8027v21.0059H63.9551z"/>
	<path class="st24" d="M70.416,2.4023V0h2.0938v2.4023H70.416z M70.5625,21.0059v-15h1.8008v15H70.5625z"/>
	<path class="st24" d="M85.9863,21.0059l-0.9961-1.5234c-0.4102,0.5566-0.9219,0.999-1.5371,1.3262s-1.2891,0.4902-2.0215,0.4902
		h-0.4551c-0.6055,0-1.1758-0.1143-1.7129-0.3438s-1.0059-0.5449-1.4063-0.9453s-0.7158-0.8691-0.9453-1.4063
		s-0.3438-1.1074-0.3438-1.7129V10.123c0-0.6055,0.1143-1.1777,0.3438-1.7148s0.5449-1.0059,0.9453-1.4063
		s0.8691-0.7148,1.4063-0.9443s1.1074-0.3447,1.7129-0.3447h0.4551c0.6738,0,1.2988,0.1367,1.875,0.4102
		s1.0684,0.6543,1.4785,1.1426V0h1.8027v21.0059H85.9863z M84.7852,10.0195c0-0.3613-0.0684-0.7002-0.2051-1.0176
		s-0.3223-0.5938-0.5566-0.8281s-0.5098-0.4199-0.8271-0.5566s-0.6572-0.2051-1.0186-0.2051h-1.2012
		c-0.3613,0-0.7002,0.0684-1.0176,0.2051s-0.5938,0.3223-0.8281,0.5566s-0.4199,0.5107-0.5566,0.8281s-0.2051,0.6563-0.2051,1.0176
		v6.9727c0,0.3613,0.0684,0.7012,0.2051,1.0186s0.3223,0.5928,0.5566,0.8271s0.5107,0.4199,0.8281,0.5566
		s0.6563,0.2051,1.0176,0.2051h1.2012c0.3613,0,0.7012-0.0684,1.0186-0.2051s0.5928-0.3223,0.8271-0.5566
		s0.4199-0.5098,0.5566-0.8271s0.2051-0.6572,0.2051-1.0186V10.0195z"/>
	<path class="st24" d="M99.6094,21.0059l-0.9961-1.4941c-0.4102,0.5371-0.9219,0.9697-1.5371,1.2969s-1.2891,0.4902-2.0215,0.4902
		h-0.4551c-0.6055,0-1.1758-0.1143-1.7129-0.3438s-1.0059-0.5449-1.4063-0.9453s-0.7158-0.8691-0.9453-1.4063
		s-0.3438-1.1074-0.3438-1.7129v-0.1465c0-0.6055,0.1143-1.1777,0.3438-1.7148s0.5449-1.0059,0.9453-1.4063
		s0.8691-0.7148,1.4063-0.9443s1.1074-0.3447,1.7129-0.3447h3.8086v-2.3145c0-0.3613-0.0684-0.7002-0.2051-1.0176
		s-0.3223-0.5938-0.5566-0.8281s-0.5098-0.4199-0.8271-0.5566s-0.6572-0.2051-1.0186-0.2051h-1.0547
		c-0.3613,0-0.7002,0.0684-1.0176,0.2051s-0.5938,0.3223-0.8281,0.5566s-0.4199,0.5107-0.5566,0.8281s-0.2051,0.6563-0.2051,1.0176
		v0.543l-1.8008-0.293V10.123c0-0.6055,0.1143-1.1777,0.3438-1.7148s0.5449-1.0059,0.9453-1.4063s0.8691-0.7148,1.4063-0.9443
		s1.1074-0.3447,1.7129-0.3447h1.0547c0.6055,0,1.1777,0.1152,1.7148,0.3447s1.0059,0.5439,1.4063,0.9443
		s0.7148,0.8691,0.9443,1.4063s0.3447,1.1094,0.3447,1.7148v10.8828H99.6094z M98.4082,13.7402h-3.8086
		c-0.3613,0-0.7002,0.0684-1.0176,0.2051s-0.5938,0.3252-0.8281,0.5645s-0.4199,0.5176-0.5566,0.835s-0.2051,0.6572-0.2051,1.0186
		v0.6289c0,0.3613,0.0684,0.7012,0.2051,1.0186s0.3223,0.5928,0.5566,0.8271s0.5107,0.4199,0.8281,0.5566
		s0.6563,0.2051,1.0176,0.2051h1.2012c0.3613,0,0.7012-0.0684,1.0186-0.2051s0.5928-0.3223,0.8271-0.5566
		s0.4199-0.5098,0.5566-0.8271s0.2051-0.6572,0.2051-1.0186V13.7402z"/>
	<path class="st24" d="M113.2324,21.0059l-0.9961-1.5234c-0.4102,0.5566-0.9219,0.999-1.5371,1.3262s-1.2891,0.4902-2.0215,0.4902
		h-0.4551c-0.6055,0-1.1758-0.1143-1.7129-0.3438s-1.0059-0.5449-1.4063-0.9453s-0.7158-0.8691-0.9453-1.4063
		s-0.3438-1.1074-0.3438-1.7129V10.123c0-0.6055,0.1143-1.1777,0.3438-1.7148s0.5449-1.0059,0.9453-1.4063
		s0.8691-0.7148,1.4063-0.9443s1.1074-0.3447,1.7129-0.3447h0.4551c0.6738,0,1.2988,0.1367,1.875,0.4102
		s1.0684,0.6543,1.4785,1.1426V0h1.8027v21.0059H113.2324z M112.0313,10.0195c0-0.3613-0.0684-0.7002-0.2051-1.0176
		s-0.3223-0.5938-0.5566-0.8281s-0.5098-0.4199-0.8271-0.5566s-0.6572-0.2051-1.0186-0.2051h-1.2012
		c-0.3613,0-0.7002,0.0684-1.0176,0.2051s-0.5938,0.3223-0.8281,0.5566s-0.4199,0.5107-0.5566,0.8281s-0.2051,0.6563-0.2051,1.0176
		v6.9727c0,0.3613,0.0684,0.7012,0.2051,1.0186s0.3223,0.5928,0.5566,0.8271s0.5107,0.4199,0.8281,0.5566
		s0.6563,0.2051,1.0176,0.2051h1.2012c0.3613,0,0.7012-0.0684,1.0186-0.2051s0.5928-0.3223,0.8271-0.5566
		s0.4199-0.5098,0.5566-0.8271s0.2051-0.6572,0.2051-1.0186V10.0195z"/>
	<path class="st24" d="M118.4922,25.2109h-0.7617V18.75h2.2559L118.4922,25.2109z"/>
	<path class="st24" d="M140.457,18.6035c-0.2295,0.5371-0.5449,1.0059-0.9453,1.4063s-0.8691,0.7158-1.4063,0.9453
		s-1.1074,0.3438-1.7129,0.3438h-1.2012c-0.6055,0-1.1777-0.1143-1.7148-0.3438s-1.0059-0.5449-1.4063-0.9453
		s-0.7148-0.8691-0.9443-1.4063s-0.3447-1.1074-0.3447-1.7129V10.123c0-0.6055,0.1152-1.1777,0.3447-1.7148
		s0.5439-1.0059,0.9443-1.4063s0.8691-0.7148,1.4063-0.9443s1.1094-0.3447,1.7148-0.3447h1.2012
		c0.6055,0,1.1758,0.1152,1.7129,0.3447s1.0059,0.5439,1.4063,0.9443s0.7158,0.8691,0.9453,1.4063s0.3438,1.1094,0.3438,1.7148
		v0.5996L139,11.0156v-0.9961c0-0.3613-0.0684-0.7002-0.2051-1.0176s-0.3223-0.5938-0.5566-0.8281s-0.5107-0.4199-0.8281-0.5566
		s-0.6563-0.2051-1.0176-0.2051h-1.2012c-0.3613,0-0.7012,0.0684-1.0186,0.2051s-0.5928,0.3223-0.8271,0.5566
		s-0.4199,0.5107-0.5566,0.8281s-0.2051,0.6563-0.2051,1.0176v6.9727c0,0.3613,0.0684,0.7012,0.2051,1.0186
		s0.3223,0.5928,0.5566,0.8271s0.5098,0.4199,0.8271,0.5566s0.6572,0.2051,1.0186,0.2051h1.2012
		c0.3613,0,0.7002-0.0684,1.0176-0.2051s0.5938-0.3223,0.8281-0.5566s0.4199-0.5098,0.5566-0.8271S139,17.3535,139,16.9922v-0.9961
		l1.8008,0.293v0.6016C140.8008,17.4961,140.6865,18.0664,140.457,18.6035z"/>
	<path class="st24" d="M154.0801,18.6035c-0.2295,0.5371-0.5449,1.0059-0.9453,1.4063s-0.8691,0.7158-1.4063,0.9453
		s-1.1074,0.3438-1.7129,0.3438h-1.2012c-0.6055,0-1.1777-0.1143-1.7148-0.3438s-1.0059-0.5449-1.4063-0.9453
		s-0.7148-0.8691-0.9443-1.4063s-0.3447-1.1074-0.3447-1.7129V10.123c0-0.6055,0.1152-1.1777,0.3447-1.7148
		s0.5439-1.0059,0.9443-1.4063s0.8691-0.7148,1.4063-0.9443s1.1094-0.3447,1.7148-0.3447h1.2012
		c0.6055,0,1.1758,0.1152,1.7129,0.3447s1.0059,0.5439,1.4063,0.9443s0.7158,0.8691,0.9453,1.4063s0.3438,1.1094,0.3438,1.7148
		v6.7676C154.4238,17.4961,154.3096,18.0664,154.0801,18.6035z M152.623,10.0195c0-0.3613-0.0684-0.7002-0.2051-1.0176
		s-0.3223-0.5938-0.5566-0.8281s-0.5107-0.4199-0.8281-0.5566s-0.6563-0.2051-1.0176-0.2051h-1.2012
		c-0.3613,0-0.7012,0.0684-1.0186,0.2051s-0.5928,0.3223-0.8271,0.5566s-0.4199,0.5107-0.5566,0.8281s-0.2051,0.6563-0.2051,1.0176
		v6.9727c0,0.3613,0.0684,0.7012,0.2051,1.0186s0.3223,0.5928,0.5566,0.8271s0.5098,0.4199,0.8271,0.5566
		s0.6572,0.2051,1.0186,0.2051h1.2012c0.3613,0,0.7002-0.0684,1.0176-0.2051s0.5938-0.3223,0.8281-0.5566
		s0.4199-0.5098,0.5566-0.8271s0.2051-0.6572,0.2051-1.0186V10.0195z"/>
	<path class="st24" d="M166.2461,21.0059V10.0195c0-0.3613-0.0684-0.7002-0.2051-1.0176s-0.3223-0.5938-0.5566-0.8281
		s-0.5107-0.4199-0.8281-0.5566S164,7.4121,163.6387,7.4121h-1.2012c-0.3613,0-0.7012,0.0684-1.0186,0.2051
		s-0.5928,0.3223-0.8271,0.5566s-0.4199,0.5107-0.5566,0.8281s-0.2051,0.6563-0.2051,1.0176v10.9863h-1.8027v-15h0.6016
		l0.9805,1.5234c0.4102-0.5566,0.9258-0.998,1.5459-1.3252s1.2959-0.4912,2.0283-0.4912h0.4551
		c0.6055,0,1.1758,0.1152,1.7129,0.3447s1.0059,0.5439,1.4063,0.9443s0.7158,0.8691,0.9453,1.4063s0.3438,1.1094,0.3438,1.7148
		v10.8828H166.2461z"/>
	<path class="st24" d="M181.3262,18.6035c-0.2295,0.5371-0.5449,1.0059-0.9453,1.4063s-0.8691,0.7158-1.4063,0.9453
		s-1.1074,0.3438-1.7129,0.3438h-1.2012c-0.6055,0-1.1777-0.1143-1.7148-0.3438s-1.0059-0.5449-1.4063-0.9453
		s-0.7148-0.8691-0.9443-1.4063s-0.3447-1.1074-0.3447-1.7129V10.123c0-0.6055,0.1152-1.1777,0.3447-1.7148
		s0.5439-1.0059,0.9443-1.4063s0.8691-0.7148,1.4063-0.9443s1.1094-0.3447,1.7148-0.3447h1.2012
		c0.6055,0,1.1758,0.1152,1.7129,0.3447s1.0059,0.5439,1.4063,0.9443s0.7158,0.8691,0.9453,1.4063s0.3438,1.1094,0.3438,1.7148
		v0.5996l-1.8008,0.293v-0.9961c0-0.3613-0.0684-0.7002-0.2051-1.0176s-0.3223-0.5938-0.5566-0.8281s-0.5107-0.4199-0.8281-0.5566
		s-0.6563-0.2051-1.0176-0.2051h-1.2012c-0.3613,0-0.7012,0.0684-1.0186,0.2051s-0.5928,0.3223-0.8271,0.5566
		s-0.4199,0.5107-0.5566,0.8281s-0.2051,0.6563-0.2051,1.0176v6.9727c0,0.3613,0.0684,0.7012,0.2051,1.0186
		s0.3223,0.5928,0.5566,0.8271s0.5098,0.4199,0.8271,0.5566s0.6572,0.2051,1.0186,0.2051h1.2012
		c0.3613,0,0.7002-0.0684,1.0176-0.2051s0.5938-0.3223,0.8281-0.5566s0.4199-0.5098,0.5566-0.8271s0.2051-0.6572,0.2051-1.0186
		v-0.9961l1.8008,0.293v0.6016C181.6699,17.4961,181.5557,18.0664,181.3262,18.6035z"/>
	<path class="st24" d="M194.9492,18.6035c-0.2295,0.5371-0.5449,1.0059-0.9453,1.4063s-0.8691,0.7158-1.4063,0.9453
		s-1.1074,0.3438-1.7129,0.3438h-1.2012c-0.6055,0-1.1777-0.1143-1.7148-0.3438s-1.0059-0.5449-1.4063-0.9453
		s-0.7148-0.8691-0.9443-1.4063s-0.3447-1.1074-0.3447-1.7129V10.123c0-0.6055,0.1152-1.1777,0.3447-1.7148
		s0.5439-1.0059,0.9443-1.4063s0.8691-0.7148,1.4063-0.9443s1.1094-0.3447,1.7148-0.3447h1.2012
		c0.6055,0,1.1758,0.1152,1.7129,0.3447s1.0059,0.5439,1.4063,0.9443s0.7158,0.8691,0.9453,1.4063s0.3438,1.1094,0.3438,1.7148
		v3.5293h-8.2168v3.3398c0,0.3613,0.0684,0.7012,0.2051,1.0186s0.3223,0.5928,0.5566,0.8271s0.5098,0.4199,0.8271,0.5566
		s0.6572,0.2051,1.0186,0.2051h1.2012c0.3613,0,0.7002-0.0684,1.0176-0.2051s0.5938-0.3223,0.8281-0.5566
		s0.4199-0.5098,0.5566-0.8271s0.2051-0.6572,0.2051-1.0186v-0.9961l1.8008,0.293v0.6016
		C195.293,17.4961,195.1787,18.0664,194.9492,18.6035z M193.4922,10.0195c0-0.3613-0.0684-0.7002-0.2051-1.0176
		s-0.3223-0.5938-0.5566-0.8281s-0.5107-0.4199-0.8281-0.5566s-0.6563-0.2051-1.0176-0.2051h-1.2012
		c-0.3613,0-0.7012,0.0684-1.0186,0.2051s-0.5928,0.3223-0.8271,0.5566s-0.4199,0.5107-0.5566,0.8281s-0.2051,0.6563-0.2051,1.0176
		v2.2266h6.416V10.0195z"/>
	<path class="st24" d="M208.5723,18.6035c-0.2295,0.5371-0.5449,1.0059-0.9453,1.4063s-0.8691,0.7158-1.4063,0.9453
		s-1.1074,0.3438-1.7129,0.3438h-0.4551c-0.6738,0-1.2988-0.1367-1.875-0.4102s-1.0684-0.6543-1.4785-1.1426v7.2656h-1.8027V6.0059
		h0.6016l0.9805,1.5234c0.4102-0.5566,0.9258-0.998,1.5459-1.3252s1.2959-0.4912,2.0283-0.4912h0.4551
		c0.6055,0,1.1758,0.1152,1.7129,0.3447s1.0059,0.5439,1.4063,0.9443s0.7158,0.8691,0.9453,1.4063s0.3438,1.1094,0.3438,1.7148
		v6.7676C208.916,17.4961,208.8018,18.0664,208.5723,18.6035z M207.1152,10.0195c0-0.3613-0.0684-0.7002-0.2051-1.0176
		s-0.3223-0.5938-0.5566-0.8281s-0.5107-0.4199-0.8281-0.5566s-0.6563-0.2051-1.0176-0.2051h-1.2012
		c-0.3613,0-0.7012,0.0684-1.0186,0.2051s-0.5928,0.3223-0.8271,0.5566s-0.4199,0.5107-0.5566,0.8281s-0.2051,0.6563-0.2051,1.0176
		v6.9727c0,0.3613,0.0684,0.7012,0.2051,1.0186s0.3223,0.5928,0.5566,0.8271s0.5098,0.4199,0.8271,0.5566
		s0.6572,0.2051,1.0186,0.2051h1.2012c0.3613,0,0.7002-0.0684,1.0176-0.2051s0.5938-0.3223,0.8281-0.5566
		s0.4199-0.5098,0.5566-0.8271s0.2051-0.6572,0.2051-1.0186V10.0195z"/>
	<path class="st24" d="M217.9844,21.0059c-0.5469,0-1.0625-0.1016-1.5459-0.3066s-0.9033-0.4883-1.2598-0.8496
		s-0.6396-0.7813-0.8496-1.2598s-0.3154-0.9922-0.3154-1.5391V7.7207h-2.6953V6.0059h2.6953V2.4023l1.8027-0.293v3.8965h3.8086
		v1.7148h-3.8086v9.418c0,0.3027,0.0557,0.584,0.168,0.8428s0.2656,0.4854,0.4609,0.6807s0.4258,0.3496,0.6895,0.4619
		s0.5469,0.1689,0.8496,0.1689h1.6406v1.7129H217.9844z"/>
	<path class="st24" d="M232.6104,18.6035c-0.2295,0.5371-0.5439,1.0059-0.9443,1.4063s-0.8691,0.7158-1.4063,0.9453
		s-1.1094,0.3438-1.7148,0.3438h-1.2012c-0.6055,0-1.1758-0.1143-1.7129-0.3438s-1.0059-0.5449-1.4063-0.9453
		s-0.7158-0.8691-0.9453-1.4063s-0.3438-1.1074-0.3438-1.7129V10.123c0-0.6055,0.1143-1.1777,0.3438-1.7148
		s0.5449-1.0059,0.9453-1.4063s0.8691-0.7148,1.4063-0.9443s1.1074-0.3447,1.7129-0.3447h1.2012
		c0.6055,0,1.1777,0.1152,1.7148,0.3447s1.0059,0.5439,1.4063,0.9443s0.7148,0.8691,0.9443,1.4063s0.3447,1.1094,0.3447,1.7148
		v6.7676C232.9551,17.4961,232.8398,18.0664,232.6104,18.6035z M231.1523,10.0195c0-0.3613-0.0684-0.7002-0.2051-1.0176
		s-0.3223-0.5938-0.5566-0.8281s-0.5098-0.4199-0.8271-0.5566s-0.6572-0.2051-1.0186-0.2051h-1.2012
		c-0.3613,0-0.7002,0.0684-1.0176,0.2051s-0.5938,0.3223-0.8281,0.5566s-0.4199,0.5107-0.5566,0.8281s-0.2051,0.6563-0.2051,1.0176
		v6.9727c0,0.3613,0.0684,0.7012,0.2051,1.0186s0.3223,0.5928,0.5566,0.8271s0.5107,0.4199,0.8281,0.5566
		s0.6563,0.2051,1.0176,0.2051h1.2012c0.3613,0,0.7012-0.0684,1.0186-0.2051s0.5928-0.3223,0.8271-0.5566
		s0.4199-0.5098,0.5566-0.8271s0.2051-0.6572,0.2051-1.0186V10.0195z"/>
</g>
</svg>
