<?xml version="1.0" encoding="utf-8"?>
<!-- Generator: Adobe Illustrator 21.0.2, SVG Export Plug-In . SVG Version: 6.00 Build 0)  -->
<svg version="1.1" id="Capa_1" xmlns="http://www.w3.org/2000/svg" xmlns:xlink="http://www.w3.org/1999/xlink" x="0px" y="0px"
	 viewBox="0 0 142.248 47.6514" style="enable-background:new 0 0 142.248 47.6514;" xml:space="preserve">
<style type="text/css">
	.st0{fill-rule:evenodd;clip-rule:evenodd;fill:#DDDDDD;}
	.st1{fill:#3B86B1;}
	.st2{opacity:0.25;fill-rule:evenodd;clip-rule:evenodd;fill:#020202;}
	.st3{fill:#FFFFFF;}
	.st4{opacity:0.5;}
	.st5{fill-rule:evenodd;clip-rule:evenodd;fill:#A8A8A8;}
	.st6{fill-rule:evenodd;clip-rule:evenodd;fill:#FFFFFF;}
	.st7{fill-rule:evenodd;clip-rule:evenodd;fill:#3B86B1;}
	.st8{opacity:0.5;fill:#2C6882;}
	.st9{opacity:0.75;fill-rule:evenodd;clip-rule:evenodd;fill:#282828;}
	.st10{opacity:0.5;fill:#FFFFFF;}
	.st11{fill-rule:evenodd;clip-rule:evenodd;fill:none;stroke:#FFFFFF;stroke-miterlimit:10;}
	.st12{fill:none;stroke:#FFFFFF;stroke-miterlimit:10;}
	.st13{fill:#FFFFFF;stroke:#3B86B1;stroke-width:1.7139;stroke-miterlimit:10;}
	.st14{fill-rule:evenodd;clip-rule:evenodd;}
	.st15{opacity:0.85;fill:#FFFFFF;}
	.st16{opacity:0.5;fill-rule:evenodd;clip-rule:evenodd;}
	.st17{fill-rule:evenodd;clip-rule:evenodd;fill:#FEFEFE;}
	.st18{fill:#312767;}
	.st19{opacity:0.48;}
	.st20{opacity:0.25;}
	.st21{fill-rule:evenodd;clip-rule:evenodd;fill:#020202;}
	.st22{fill:#757575;}
	.st23{opacity:0.25;clip-path:url(#XMLID_2288_);}
	.st24{fill:#FFFFFF;stroke:#312767;stroke-miterlimit:10;}
	.st25{fill:#ACABC9;}
	.st26{fill-rule:evenodd;clip-rule:evenodd;fill:#312767;}
	.st27{opacity:0.77;fill:#312767;}
	.st28{opacity:0.25;clip-path:url(#XMLID_2290_);}
	.st29{fill:#54518C;}
	.st30{fill:#FFFFFF;stroke:#FFFFFF;stroke-miterlimit:10;}
	.st31{opacity:0.25;fill-rule:evenodd;clip-rule:evenodd;fill:#FFFFFF;}
	.st32{fill:#D4A800;}
	.st33{fill:#00AEB3;}
	.st34{fill:#38353B;}
	.st35{fill:#FF8400;}
	.st36{fill:#BF3900;}
	.st37{fill:#00AA9C;}
	.st38{opacity:0.25;clip-path:url(#XMLID_2291_);}
	.st39{fill:none;stroke:#ACABC9;stroke-width:5;stroke-miterlimit:10;}
	.st40{opacity:0.25;clip-path:url(#XMLID_2292_);}
	.st41{fill:#DDDDDD;}
	.st42{opacity:0.25;clip-path:url(#XMLID_2293_);}
	.st43{fill-rule:evenodd;clip-rule:evenodd;fill:#FFFFFF;stroke:#FFFFFF;stroke-miterlimit:10;}
	.st44{fill:#F79748;}
	.st45{fill:#FF7900;}
	.st46{fill:#DD7105;}
	.st47{fill:#02897C;}
	.st48{fill:#0EAD9A;}
	.st49{fill:#28C6AF;}
	.st50{fill:#4FE0C7;}
	.st51{fill:#D37D00;}
	.st52{fill:#D14600;}
	.st53{fill:#E5B92E;}
	.st54{fill:#DD571B;}
	.st55{fill:#E28A17;}
	.st56{opacity:0.25;clip-path:url(#XMLID_2294_);}
	.st57{opacity:0.77;fill:#FFFFFF;}
	.st58{fill:#50565B;stroke:#656C70;stroke-miterlimit:10;}
	.st59{fill:#808589;stroke:#656C70;stroke-miterlimit:10;}
	.st60{fill:#252728;stroke:#000000;stroke-miterlimit:10;}
	.st61{fill:#1A1B1C;stroke:#000000;stroke-miterlimit:10;}
	.st62{fill:#A0A6AA;}
	.st63{fill:#262C35;stroke:#161A1E;stroke-miterlimit:10;}
	.st64{fill:#181D23;}
	.st65{fill:#EABA96;stroke:#E0AA86;stroke-miterlimit:10;}
	.st66{fill:#E0AA86;}
	.st67{stroke:#000000;stroke-width:0.75;stroke-linecap:square;stroke-linejoin:bevel;stroke-miterlimit:10;}
	.st68{fill:#0F1C3F;stroke:#182951;stroke-miterlimit:10;}
	.st69{fill:#132354;stroke:#3F6093;stroke-miterlimit:10;}
	.st70{fill:#0F1C3F;}
	.st71{fill:none;stroke:#3F6093;stroke-width:0.75;stroke-miterlimit:10;}
	.st72{fill:#DBA682;}
	.st73{fill:none;stroke:#E0AA86;stroke-miterlimit:10;}
	.st74{fill:none;stroke:#E0AA86;stroke-linejoin:bevel;stroke-miterlimit:10;}
	.st75{fill:#8A0A8E;stroke:#AC34B2;stroke-miterlimit:10;}
	.st76{fill:#810C87;}
	.st77{fill:#680B6D;}
	.st78{fill:#AC34B2;stroke:#AC34B2;stroke-width:0.5;stroke-miterlimit:10;}
	.st79{fill:none;stroke:#959DA0;stroke-width:0.5;stroke-miterlimit:10;}
	.st80{fill:#959DA0;stroke:#959DA0;stroke-width:0.5;stroke-miterlimit:10;}
	.st81{fill:none;stroke:#AC34B2;stroke-miterlimit:10;}
	.st82{fill:#282828;stroke:#000000;stroke-miterlimit:10;}
	.st83{fill:#EABA96;stroke:#E0AA86;stroke-width:0.5;stroke-miterlimit:10;}
	.st84{fill:#B7896A;}
	.st85{stroke:#000000;stroke-miterlimit:10;}
	.st86{fill:#C1A578;}
	.st87{stroke:#000000;stroke-width:0.25;stroke-linecap:round;stroke-linejoin:round;stroke-miterlimit:10;}
	.st88{fill:#FFFFFF;stroke:#000000;stroke-width:0.25;stroke-linecap:round;stroke-linejoin:round;stroke-miterlimit:10;}
	.st89{fill:#70582D;}
	.st90{stroke:#000000;stroke-linecap:round;stroke-linejoin:round;stroke-miterlimit:10;}
	.st91{fill:none;stroke:#D8A27D;stroke-width:0.75;stroke-miterlimit:10;}
	.st92{fill:#561409;}
	.st93{fill:#BA2A13;}
	.st94{fill:#9E3025;stroke:#4C2311;stroke-width:0.25;stroke-miterlimit:10;}
	.st95{fill:#871D08;stroke:#4C2311;stroke-width:0.25;stroke-miterlimit:10;}
	.st96{fill:#DDAC8A;}
	.st97{fill:#A5ABAD;stroke:#959DA0;stroke-width:0.5;stroke-miterlimit:10;}
	.st98{fill:#B1BABC;}
	.st99{fill:#FCFCFC;}
	.st100{fill:none;stroke:#153847;stroke-width:5;stroke-miterlimit:10;}
	.st101{fill:#3CA7AF;}
	.st102{fill:#3DAD8D;}
	.st103{fill:#3DAA61;}
	.st104{fill:#67A53F;}
	.st105{fill:#95A340;}
	.st106{opacity:0.25;clip-path:url(#XMLID_2295_);}
	.st107{opacity:0.25;clip-path:url(#XMLID_2297_);}
	.st108{opacity:0.25;clip-path:url(#XMLID_2299_);}
	.st109{clip-path:url(#SVGID_2_);}
	.st110{fill:none;stroke:#3F6093;stroke-miterlimit:10;}
	.st111{fill:none;stroke:#3F6093;stroke-width:0.75;stroke-linecap:round;stroke-linejoin:round;}
	.st112{fill:none;stroke:#3F6093;stroke-width:0.75;stroke-linecap:round;stroke-linejoin:round;stroke-dasharray:0.9892,0.9892;}
	
		.st113{fill:none;stroke:#3F6093;stroke-width:0.75;stroke-linecap:round;stroke-linejoin:round;stroke-miterlimit:10;stroke-dasharray:1;}
	.st114{fill:#EAEAEA;stroke:#FFFFFF;stroke-width:0.25;stroke-miterlimit:10;}
	.st115{fill:#D8D8D8;}
	.st116{fill:#282828;stroke:#000000;stroke-width:0.75;stroke-miterlimit:10;}
	.st117{opacity:0.33;fill:#FFFFFF;}
	.st118{fill:none;stroke:#000000;stroke-width:1.5;stroke-linecap:round;stroke-linejoin:round;stroke-miterlimit:10;}
	.st119{opacity:0.64;}
	.st120{fill:#1D1D1B;}
	.st121{fill:#C9C9C9;}
</style>
<g>
	<g>
		<path class="st3" d="M12.5601,20.2861c-0.2954,0.6885-0.7007,1.2891-1.2163,1.8047s-1.1172,0.9219-1.8047,1.2168
			c-0.6875,0.2959-1.4233,0.4434-2.2075,0.4434H5.688c-0.7842,0-1.5225-0.1475-2.2158-0.4434
			c-0.6924-0.2949-1.2969-0.7012-1.8125-1.2168s-0.9214-1.1162-1.2168-1.8047C0.1475,19.5996,0,18.8633,0,18.0791V0.3223h2.0786
			v17.7568c0,0.5156,0.0967,0.9961,0.29,1.4424c0.1934,0.4453,0.459,0.8379,0.7979,1.1758c0.3379,0.3389,0.73,0.6045,1.1758,0.7979
			s0.9268,0.29,1.4424,0.29h1.4502c0.5156,0,0.9961-0.0967,1.4424-0.29c0.4453-0.1934,0.835-0.459,1.168-0.7979
			c0.333-0.3379,0.5962-0.7305,0.7896-1.1758c0.1934-0.4463,0.29-0.9268,0.29-1.4424V0.3223h2.0786v17.7568
			C13.0034,18.8633,12.8555,19.5996,12.5601,20.2861z"/>
		<path class="st3" d="M30.6313,18.0791c0,0.7842-0.1587,1.5205-0.4756,2.207c-0.3169,0.6885-0.7412,1.2891-1.2725,1.8047
			c-0.5322,0.5156-1.1499,0.9219-1.8535,1.2168c-0.7036,0.2959-1.4473,0.4434-2.2314,0.4434h-1.6597
			c-0.7842,0-1.5283-0.1475-2.2319-0.4434c-0.7036-0.2949-1.3213-0.7012-1.8525-1.2168c-0.5322-0.5156-0.9565-1.1162-1.2734-1.8047
			c-0.3169-0.6865-0.4751-1.4229-0.4751-2.207v-0.918l2.0786-0.3389v1.2568c0,0.5156,0.1045,0.9961,0.3145,1.4424
			c0.209,0.4453,0.4912,0.8379,0.8457,1.1758c0.3545,0.3389,0.7656,0.6045,1.2324,0.7979c0.4678,0.1934,0.959,0.29,1.4746,0.29
			h1.4502c0.5156,0,1.0044-0.0967,1.4663-0.29s0.8701-0.459,1.2246-0.7979c0.3545-0.3379,0.6362-0.7305,0.8462-1.1758
			c0.209-0.4463,0.314-0.9268,0.314-1.4424v-0.6934c0-0.7939-0.1558-1.4551-0.4673-1.9814s-0.7251-0.9746-1.2407-1.3457
			c-0.5156-0.3701-1.0986-0.6846-1.7485-0.9424s-1.3184-0.5156-2.0059-0.7734s-1.3564-0.542-2.0059-0.8535
			c-0.6504-0.3115-1.2329-0.7012-1.7485-1.1689c-0.5156-0.4668-0.9292-1.0391-1.2407-1.7158s-0.4673-1.5088-0.4673-2.498V5.6719
			c0-0.7842,0.1475-1.5195,0.4429-2.208c0.2954-0.6865,0.7012-1.2891,1.2168-1.8047s1.1201-0.9209,1.8125-1.2158
			C21.7935,0.1475,22.5317,0,23.3159,0h1.4824c0.7842,0,1.52,0.1475,2.2075,0.4434c0.6875,0.2949,1.2891,0.7002,1.8047,1.2158
			s0.9209,1.1182,1.2163,1.8047c0.2954,0.6885,0.4434,1.4238,0.4434,2.208v0.5967l-2.0786,0.3379V5.6719
			c0-0.5156-0.0967-0.9961-0.29-1.4424c-0.1934-0.4453-0.4565-0.835-0.7896-1.168s-0.7227-0.5957-1.168-0.7891
			c-0.4463-0.1934-0.9268-0.291-1.4424-0.291h-1.2891c-0.5156,0-0.9966,0.0977-1.4424,0.291s-0.8379,0.4561-1.1758,0.7891
			c-0.3389,0.333-0.6045,0.7227-0.7979,1.168c-0.1934,0.4463-0.29,0.9268-0.29,1.4424v0.4346c0,0.7422,0.1558,1.3652,0.4673,1.8691
			c0.3115,0.5059,0.7251,0.9375,1.2407,1.2979c0.5156,0.3594,1.0981,0.6709,1.748,0.9346c0.6499,0.2627,1.3188,0.5313,2.0063,0.8057
			c0.6875,0.2734,1.356,0.5742,2.0063,0.9023c0.6494,0.3271,1.2324,0.7305,1.748,1.208c0.5156,0.4785,0.9292,1.0615,1.2407,1.748
			c0.3115,0.6885,0.4673,1.5264,0.4673,2.5137V18.0791z"/>
		<path class="st3" d="M43.7637,18.0469h-7.3154l-1.5146,5.3818h-2.1592L39.542,0.3223h1.0957l6.7998,23.1064h-2.1431
			L43.7637,18.0469z M37.0122,16.0654h6.2036L40.1704,5.4141L40.106,4.5596l-0.0645,0.8545L37.0122,16.0654z"/>
		<path class="st3" d="M62.9629,19.9639c-0.2959,0.6885-0.7012,1.2891-1.2168,1.8047s-1.1201,0.9219-1.8125,1.2168
			c-0.6934,0.2959-1.4316,0.4434-2.2158,0.4434h-7.3154V0.3223h7.3154c0.7842,0,1.5225,0.1475,2.2158,0.4434
			c0.6924,0.2949,1.2969,0.7002,1.8125,1.2158s0.9209,1.1201,1.2168,1.8135c0.2949,0.6924,0.4429,1.4316,0.4429,2.2158v0.2246
			c0,0.5488-0.0728,1.0723-0.2173,1.5713c-0.1455,0.5-0.3521,0.9648-0.6206,1.3936c-0.2686,0.4307-0.5854,0.8193-0.9507,1.1689
			c-0.3652,0.3486-0.7734,0.6416-1.2246,0.8779c0.4512,0.2363,0.8594,0.5293,1.2246,0.8779
			c0.3652,0.3496,0.6821,0.7412,0.9507,1.1768c0.2686,0.4346,0.4751,0.9023,0.6206,1.4014c0.1445,0.5,0.2173,1.0234,0.2173,1.5713
			v1.4824C63.4058,18.541,63.2578,19.2773,62.9629,19.9639z M61.3271,6.0107c0-0.5156-0.0967-0.9971-0.29-1.4424
			c-0.1934-0.4463-0.459-0.8379-0.7979-1.1768c-0.3379-0.3379-0.7305-0.6035-1.1758-0.7969
			c-0.4463-0.1934-0.9268-0.291-1.4424-0.291H52.481v7.9609h5.1401c0.5156,0,0.9961-0.0977,1.4424-0.291
			c0.4453-0.1934,0.8379-0.459,1.1758-0.7969C60.5781,8.8379,60.8438,8.4463,61.0371,8c0.1934-0.4453,0.29-0.9268,0.29-1.4424
			V6.0107z M61.3271,15.9365c0-0.5156-0.0967-0.9971-0.29-1.4424c-0.1934-0.4463-0.459-0.835-0.7979-1.1689
			c-0.3379-0.332-0.7305-0.5957-1.1758-0.7891c-0.4463-0.1934-0.9268-0.29-1.4424-0.29H52.481v9.2002h5.1401
			c0.5156,0,0.9961-0.0957,1.4424-0.2891c0.4453-0.1934,0.8379-0.457,1.1758-0.79c0.3389-0.333,0.6045-0.7227,0.7979-1.168
			c0.1934-0.4463,0.29-0.9268,0.29-1.4424V15.9365z"/>
		<path class="st3" d="M67.3696,23.4287V0.3223h2.0786v23.1064H67.3696z"/>
		<path class="st3" d="M74.395,23.4287V0.3223h2.0786v21.124h8.8462v1.9824H74.395z"/>
		<path class="st3" d="M88.623,23.4287V0.3223h2.0786v23.1064H88.623z"/>
		<path class="st3" d="M108.5474,19.9639c-0.2959,0.6885-0.7012,1.2891-1.2168,1.8047s-1.1201,0.9219-1.8125,1.2168
			c-0.6934,0.2959-1.4316,0.4434-2.2158,0.4434h-7.3154V0.3223h7.3154c0.7842,0,1.5225,0.1475,2.2158,0.4434
			c0.6924,0.2949,1.2969,0.7002,1.8125,1.2158s0.9209,1.1201,1.2168,1.8135c0.2949,0.6924,0.4429,1.4316,0.4429,2.2158v11.7461
			C108.9902,18.541,108.8423,19.2773,108.5474,19.9639z M106.9116,6.0107c0-0.5156-0.0967-0.9971-0.29-1.4424
			c-0.1934-0.4463-0.459-0.8379-0.7979-1.1768c-0.3379-0.3379-0.7305-0.6035-1.1758-0.7969
			c-0.4463-0.1934-0.9268-0.291-1.4424-0.291h-5.1401v19.1426h5.1401c0.5156,0,0.9961-0.0957,1.4424-0.2891
			c0.4453-0.1934,0.8379-0.457,1.1758-0.79c0.3389-0.333,0.6045-0.7227,0.7979-1.168c0.1934-0.4463,0.29-0.9268,0.29-1.4424V6.0107z
			"/>
		<path class="st3" d="M122.606,18.0469h-7.3154l-1.5146,5.3818h-2.1592l6.7676-23.1064h1.0957l6.7998,23.1064h-2.1431
			L122.606,18.0469z M115.8545,16.0654h6.2036l-3.0454-10.6514l-0.0645-0.8545l-0.0645,0.8545L115.8545,16.0654z"/>
		<path class="st3" d="M141.8052,19.9639c-0.2959,0.6885-0.7012,1.2891-1.2168,1.8047s-1.1201,0.9219-1.8125,1.2168
			c-0.6934,0.2959-1.4316,0.4434-2.2158,0.4434h-7.3154V0.3223h7.3154c0.7842,0,1.5225,0.1475,2.2158,0.4434
			c0.6924,0.2949,1.2969,0.7002,1.8125,1.2158s0.9209,1.1201,1.2168,1.8135c0.2949,0.6924,0.4429,1.4316,0.4429,2.2158v11.7461
			C142.248,18.541,142.1001,19.2773,141.8052,19.9639z M140.1694,6.0107c0-0.5156-0.0967-0.9971-0.29-1.4424
			c-0.1934-0.4463-0.459-0.8379-0.7979-1.1768c-0.3379-0.3379-0.7305-0.6035-1.1758-0.7969
			c-0.4463-0.1934-0.9268-0.291-1.4424-0.291h-5.1401v19.1426h5.1401c0.5156,0,0.9961-0.0957,1.4424-0.2891
			c0.4453-0.1934,0.8379-0.457,1.1758-0.79c0.3389-0.333,0.6045-0.7227,0.7979-1.168c0.1934-0.4463,0.29-0.9268,0.29-1.4424V6.0107z
			"/>
	</g>
	<g>
		<path class="st3" d="M25.4556,43.8896l0.0449,0.5947l0.0449-0.5947l3.5713-12.5674h1.4937l-4.7393,16.1045h-0.7637
			l-4.7168-16.1045h1.5049L25.4556,43.8896z"/>
		<path class="st3" d="M32.5645,33.1641v-1.8418h1.606v1.8418H32.5645z M32.6768,47.4268v-11.5h1.3813v11.5H32.6768z"/>
		<path class="st3" d="M45.1875,44.5068c0,0.4639-0.0938,0.8887-0.2808,1.2744s-0.4419,0.7168-0.7637,0.9941
			s-0.6943,0.4922-1.1172,0.6455c-0.4233,0.1533-0.8667,0.2305-1.3311,0.2305h-0.9209c-0.4644,0-0.9077-0.0879-1.3311-0.2637
			c-0.4229-0.1758-0.7935-0.418-1.1113-0.7246c-0.3184-0.3066-0.5732-0.666-0.7637-1.0781
			c-0.1914-0.4121-0.2866-0.8496-0.2866-1.3145v-0.46l1.3813-0.2246v0.7637c0,0.2773,0.0581,0.5371,0.1738,0.7803
			c0.1162,0.2432,0.2715,0.4551,0.4663,0.6348s0.4194,0.3223,0.6738,0.4268s0.5205,0.1572,0.7974,0.1572h0.9209
			c0.2769,0,0.543-0.041,0.7974-0.123c0.2544-0.083,0.481-0.2012,0.6792-0.3545c0.1987-0.1533,0.356-0.3389,0.4717-0.5557
			c0.1162-0.2168,0.1743-0.4639,0.1743-0.7412c0-0.4121-0.0898-0.749-0.2695-1.0107s-0.4175-0.4814-0.7134-0.6572
			c-0.2954-0.1758-0.6323-0.3213-1.0107-0.4375c-0.3779-0.1162-0.7651-0.2324-1.1621-0.3486s-0.7842-0.249-1.1621-0.3984
			c-0.3784-0.1494-0.7153-0.3467-1.0107-0.5898c-0.2959-0.2432-0.5337-0.5479-0.7134-0.915s-0.2695-0.8232-0.2695-1.3701
			c0-0.4639,0.0898-0.8887,0.2695-1.2744s0.4229-0.7168,0.73-0.9941s0.6646-0.4922,1.0723-0.6455
			c0.4082-0.1533,0.8442-0.2305,1.3086-0.2305h0.8086c0.4644,0,0.9023,0.0879,1.314,0.2637s0.771,0.418,1.0781,0.7246
			s0.5483,0.666,0.7241,1.0781c0.1763,0.4121,0.2642,0.8496,0.2642,1.3145v0.0449l-1.3813,0.2246v-0.3486
			c0-0.2773-0.0522-0.5371-0.1572-0.7803s-0.2471-0.4551-0.4268-0.6348s-0.3911-0.3223-0.6348-0.4268
			c-0.2432-0.1045-0.5034-0.1572-0.7803-0.1572h-0.8086c-0.2769,0-0.5371,0.041-0.7803,0.123
			c-0.2437,0.083-0.4551,0.2012-0.6348,0.3545s-0.3218,0.3389-0.4268,0.5557s-0.1572,0.4639-0.1572,0.7412
			c0,0.3965,0.0898,0.7207,0.2695,0.9717s0.4175,0.4619,0.7129,0.6348c0.2959,0.1719,0.6328,0.3154,1.0107,0.4316
			c0.3784,0.1162,0.7637,0.2363,1.1572,0.3594c0.3926,0.124,0.7783,0.2637,1.1563,0.4219c0.3784,0.1563,0.7153,0.3594,1.0107,0.6055
			c0.2959,0.248,0.5337,0.5566,0.7134,0.9268C45.0977,43.502,45.1875,43.96,45.1875,44.5068z"/>
		<path class="st3" d="M48.186,33.1641v-1.8418h1.606v1.8418H48.186z M48.2983,47.4268v-11.5h1.3813v11.5H48.2983z"/>
		<path class="st3" d="M60.3203,45.585c-0.1758,0.4121-0.417,0.7715-0.7241,1.0781s-0.6665,0.5488-1.0781,0.7246
			s-0.8496,0.2637-1.314,0.2637h-0.9209c-0.4644,0-0.9023-0.0879-1.314-0.2637s-0.771-0.418-1.0781-0.7246
			s-0.5483-0.666-0.7241-1.0781c-0.1763-0.4121-0.2642-0.8496-0.2642-1.3145V39.083c0-0.4648,0.0879-0.9023,0.2642-1.3145
			c0.1758-0.4121,0.417-0.7715,0.7241-1.0781s0.6665-0.5488,1.0781-0.7246s0.8496-0.2637,1.314-0.2637h0.9209
			c0.4644,0,0.9023,0.0879,1.314,0.2637s0.771,0.418,1.0781,0.7246s0.5483,0.666,0.7241,1.0781
			c0.1763,0.4121,0.2642,0.8496,0.2642,1.3145v5.1875C60.5845,44.7354,60.4966,45.1729,60.3203,45.585z M59.2031,39.0039
			c0-0.2773-0.0522-0.5371-0.1572-0.7803s-0.2471-0.4551-0.4268-0.6348s-0.3911-0.3223-0.6348-0.4268
			c-0.2432-0.1045-0.5034-0.1572-0.7803-0.1572h-0.9209c-0.2769,0-0.5371,0.0527-0.7803,0.1572
			c-0.2437,0.1045-0.4551,0.2471-0.6348,0.4268s-0.3218,0.3916-0.4268,0.6348s-0.1572,0.5029-0.1572,0.7803v5.3457
			c0,0.2773,0.0522,0.5371,0.1572,0.7803s0.2471,0.4551,0.4268,0.6348s0.3911,0.3223,0.6348,0.4268
			c0.2432,0.1045,0.5034,0.1572,0.7803,0.1572h0.9209c0.2769,0,0.5371-0.0527,0.7803-0.1572
			c0.2437-0.1045,0.4551-0.2471,0.6348-0.4268s0.3218-0.3916,0.4268-0.6348s0.1572-0.5029,0.1572-0.7803V39.0039z M56.1709,34.085
			h-1.0332l1.8306-2.7627h2.3022L56.1709,34.085z"/>
		<path class="st3" d="M69.6475,47.4268v-8.4229c0-0.2773-0.0522-0.5371-0.1572-0.7803s-0.2471-0.4551-0.4268-0.6348
			s-0.3911-0.3223-0.6348-0.4268c-0.2432-0.1045-0.5034-0.1572-0.7803-0.1572h-0.9209c-0.2769,0-0.5371,0.0527-0.7803,0.1572
			c-0.2437,0.1045-0.4551,0.2471-0.6348,0.4268s-0.3218,0.3916-0.4268,0.6348s-0.1572,0.5029-0.1572,0.7803v8.4229h-1.3813v-11.5
			h0.4604l0.7524,1.168c0.3145-0.4268,0.7095-0.7656,1.1851-1.0166c0.4751-0.251,0.9937-0.376,1.5552-0.376h0.3481
			c0.4644,0,0.9023,0.0879,1.314,0.2637s0.771,0.418,1.0781,0.7246s0.5483,0.666,0.7241,1.0781
			c0.1763,0.4121,0.2642,0.8496,0.2642,1.3145v8.3438H69.6475z"/>
		<path class="st3" d="M86.4985,45.585c-0.1758,0.4121-0.417,0.7715-0.7241,1.0781s-0.6665,0.5488-1.0781,0.7246
			s-0.8496,0.2637-1.314,0.2637h-0.9209c-0.4644,0-0.9023-0.0879-1.314-0.2637s-0.771-0.418-1.0781-0.7246
			s-0.5483-0.666-0.7241-1.0781c-0.1763-0.4121-0.2642-0.8496-0.2642-1.3145V39.083c0-0.4648,0.0879-0.9023,0.2642-1.3145
			c0.1758-0.4121,0.417-0.7715,0.7241-1.0781s0.6665-0.5488,1.0781-0.7246s0.8496-0.2637,1.314-0.2637h0.9209
			c0.4644,0,0.9023,0.0879,1.314,0.2637s0.771,0.418,1.0781,0.7246s0.5483,0.666,0.7241,1.0781
			c0.1763,0.4121,0.2642,0.8496,0.2642,1.3145v2.7061h-6.3003v2.5605c0,0.2773,0.0522,0.5371,0.1572,0.7803
			s0.2471,0.4551,0.4268,0.6348s0.3911,0.3223,0.6348,0.4268c0.2432,0.1045,0.5034,0.1572,0.7803,0.1572h0.9209
			c0.2769,0,0.5371-0.0527,0.7803-0.1572c0.2437-0.1045,0.4551-0.2471,0.6348-0.4268s0.3218-0.3916,0.4268-0.6348
			s0.1572-0.5029,0.1572-0.7803v-0.7637l1.3813,0.2246v0.46C86.7627,44.7354,86.6748,45.1729,86.4985,45.585z M85.3813,39.0039
			c0-0.2773-0.0522-0.5371-0.1572-0.7803s-0.2471-0.4551-0.4268-0.6348s-0.3911-0.3223-0.6348-0.4268
			c-0.2432-0.1045-0.5034-0.1572-0.7803-0.1572h-0.9209c-0.2769,0-0.5371,0.0527-0.7803,0.1572
			c-0.2437,0.1045-0.4551,0.2471-0.6348,0.4268s-0.3218,0.3916-0.4268,0.6348s-0.1572,0.5029-0.1572,0.7803v1.707h4.9189V39.0039z
			 M82.3491,34.085h-1.0332l1.8306-2.7627h2.3022L82.3491,34.085z"/>
		<path class="st3" d="M93.7144,47.4268c-0.4194,0-0.8145-0.0781-1.1846-0.2363c-0.3711-0.1563-0.6929-0.374-0.9658-0.6504
			c-0.2734-0.2773-0.4907-0.5996-0.6514-0.9668c-0.1611-0.3662-0.2417-0.7598-0.2417-1.1787v-7.1533h-2.0664v-1.3145h2.0664v-2.7627
			l1.3813-0.2246v2.9873h2.9199v1.3145h-2.9199v7.2207c0,0.2324,0.043,0.4473,0.1289,0.6455
			c0.0864,0.1982,0.2041,0.373,0.354,0.5225s0.3257,0.2676,0.5278,0.3535s0.4194,0.1289,0.6514,0.1289h1.2578v1.3145H93.7144z"/>
		<path class="st3" d="M97.8584,33.1641v-1.8418h1.606v1.8418H97.8584z M97.9707,47.4268v-11.5h1.3813v11.5H97.9707z"/>
		<path class="st3" d="M109.9927,45.585c-0.1758,0.4121-0.417,0.7715-0.7241,1.0781s-0.6665,0.5488-1.0781,0.7246
			s-0.8496,0.2637-1.314,0.2637h-0.9209c-0.4644,0-0.9023-0.0879-1.314-0.2637s-0.771-0.418-1.0781-0.7246
			s-0.5483-0.666-0.7241-1.0781c-0.1763-0.4121-0.2642-0.8496-0.2642-1.3145V39.083c0-0.4648,0.0879-0.9023,0.2642-1.3145
			c0.1758-0.4121,0.417-0.7715,0.7241-1.0781s0.6665-0.5488,1.0781-0.7246s0.8496-0.2637,1.314-0.2637h0.9209
			c0.4644,0,0.9023,0.0879,1.314,0.2637s0.771,0.418,1.0781,0.7246s0.5483,0.666,0.7241,1.0781
			c0.1763,0.4121,0.2642,0.8496,0.2642,1.3145v0.46l-1.3813,0.2246v-0.7637c0-0.2773-0.0522-0.5371-0.1572-0.7803
			s-0.2471-0.4551-0.4268-0.6348s-0.3911-0.3223-0.6348-0.4268c-0.2432-0.1045-0.5034-0.1572-0.7803-0.1572h-0.9209
			c-0.2769,0-0.5371,0.0527-0.7803,0.1572c-0.2437,0.1045-0.4551,0.2471-0.6348,0.4268s-0.3218,0.3916-0.4268,0.6348
			s-0.1572,0.5029-0.1572,0.7803v5.3457c0,0.2773,0.0522,0.5371,0.1572,0.7803s0.2471,0.4551,0.4268,0.6348
			s0.3911,0.3223,0.6348,0.4268c0.2432,0.1045,0.5034,0.1572,0.7803,0.1572h0.9209c0.2769,0,0.5371-0.0527,0.7803-0.1572
			c0.2437-0.1045,0.4551-0.2471,0.6348-0.4268s0.3218-0.3916,0.4268-0.6348s0.1572-0.5029,0.1572-0.7803v-0.7637l1.3813,0.2246v0.46
			C110.2568,44.7354,110.1689,45.1729,109.9927,45.585z"/>
		<path class="st3" d="M120.2407,47.4268l-0.7637-1.1455c-0.3145,0.4121-0.7075,0.7432-1.1792,0.9941s-0.9883,0.376-1.5498,0.376
			h-0.3481c-0.4644,0-0.9023-0.0879-1.314-0.2637s-0.771-0.418-1.0781-0.7246s-0.5483-0.666-0.7241-1.0781
			c-0.1763-0.4121-0.2642-0.8496-0.2642-1.3145v-0.1113c0-0.4648,0.0879-0.9023,0.2642-1.3145
			c0.1758-0.4121,0.417-0.7715,0.7241-1.0781s0.6665-0.5488,1.0781-0.7246s0.8496-0.2637,1.314-0.2637h2.9199v-1.7744
			c0-0.2773-0.0522-0.5371-0.1572-0.7803s-0.2471-0.4551-0.4268-0.6348s-0.3911-0.3223-0.6348-0.4268
			c-0.2432-0.1045-0.5034-0.1572-0.7803-0.1572h-0.8086c-0.2769,0-0.5371,0.0527-0.7803,0.1572
			c-0.2437,0.1045-0.4551,0.2471-0.6348,0.4268s-0.3218,0.3916-0.4268,0.6348s-0.1572,0.5029-0.1572,0.7803v0.415l-1.3813-0.2246
			V39.083c0-0.4648,0.0879-0.9023,0.2642-1.3145c0.1758-0.4121,0.417-0.7715,0.7241-1.0781s0.6665-0.5488,1.0781-0.7246
			s0.8496-0.2637,1.314-0.2637h0.8086c0.4644,0,0.9023,0.0879,1.314,0.2637s0.771,0.418,1.0781,0.7246s0.5483,0.666,0.7241,1.0781
			c0.1763,0.4121,0.2642,0.8496,0.2642,1.3145v8.3438H120.2407z M119.3198,41.8564h-2.9199c-0.2769,0-0.5371,0.0527-0.7803,0.1572
			c-0.2437,0.1045-0.4551,0.249-0.6348,0.4326s-0.3218,0.3965-0.4268,0.6396s-0.1572,0.5039-0.1572,0.7803v0.4834
			c0,0.2773,0.0522,0.5371,0.1572,0.7803s0.2471,0.4551,0.4268,0.6348s0.3911,0.3223,0.6348,0.4268
			c0.2432,0.1045,0.5034,0.1572,0.7803,0.1572h0.9209c0.2769,0,0.5371-0.0527,0.7803-0.1572
			c0.2437-0.1045,0.4551-0.2471,0.6348-0.4268s0.3218-0.3916,0.4268-0.6348s0.1572-0.5029,0.1572-0.7803V41.8564z"/>
	</g>
</g>
</svg>
