<?xml version="1.0" encoding="utf-8"?>
<!-- Generator: Adobe Illustrator 21.0.2, SVG Export Plug-In . SVG Version: 6.00 Build 0)  -->
<svg version="1.1" id="Capa_1" xmlns="http://www.w3.org/2000/svg" xmlns:xlink="http://www.w3.org/1999/xlink" x="0px" y="0px"
	 viewBox="0 0 141.3135 34.3506" style="enable-background:new 0 0 141.3135 34.3506;" xml:space="preserve">
<style type="text/css">
	.st0{fill-rule:evenodd;clip-rule:evenodd;fill:#DDDDDD;}
	.st1{fill:#3B86B1;}
	.st2{opacity:0.25;fill-rule:evenodd;clip-rule:evenodd;fill:#020202;}
	.st3{fill:#FFFFFF;}
	.st4{opacity:0.5;}
	.st5{fill-rule:evenodd;clip-rule:evenodd;fill:#A8A8A8;}
	.st6{fill-rule:evenodd;clip-rule:evenodd;fill:#FFFFFF;}
	.st7{fill-rule:evenodd;clip-rule:evenodd;fill:#3B86B1;}
	.st8{opacity:0.5;fill:#2C6882;}
	.st9{opacity:0.75;fill-rule:evenodd;clip-rule:evenodd;fill:#282828;}
	.st10{opacity:0.5;fill:#FFFFFF;}
	.st11{fill-rule:evenodd;clip-rule:evenodd;fill:none;stroke:#FFFFFF;stroke-miterlimit:10;}
	.st12{fill:none;stroke:#FFFFFF;stroke-miterlimit:10;}
	.st13{fill:#FFFFFF;stroke:#3B86B1;stroke-width:1.7139;stroke-miterlimit:10;}
	.st14{fill-rule:evenodd;clip-rule:evenodd;}
	.st15{opacity:0.85;fill:#FFFFFF;}
	.st16{opacity:0.5;fill-rule:evenodd;clip-rule:evenodd;}
	.st17{fill-rule:evenodd;clip-rule:evenodd;fill:#FEFEFE;}
	.st18{fill:#312767;}
	.st19{opacity:0.48;}
	.st20{opacity:0.25;}
	.st21{fill-rule:evenodd;clip-rule:evenodd;fill:#020202;}
	.st22{fill:#757575;}
	.st23{opacity:0.25;clip-path:url(#XMLID_2325_);}
	.st24{fill:#4D4789;}
	.st25{fill:#FFFFFF;stroke:#312767;stroke-miterlimit:10;}
	.st26{fill:#FFFFFF;stroke:#3B86B1;stroke-miterlimit:10;}
	.st27{fill:#ACABC9;}
	.st28{fill-rule:evenodd;clip-rule:evenodd;fill:#312767;}
	.st29{opacity:0.77;fill:#312767;}
	.st30{opacity:0.25;clip-path:url(#XMLID_2326_);}
	.st31{fill:#54518C;}
	.st32{fill:#FFFFFF;stroke:#FFFFFF;stroke-miterlimit:10;}
	.st33{opacity:0.25;fill-rule:evenodd;clip-rule:evenodd;fill:#FFFFFF;}
	.st34{fill:#D4A800;}
	.st35{fill:#00AEB3;}
	.st36{fill:#38353B;}
	.st37{fill:#FF8400;}
	.st38{fill:#BF3900;}
	.st39{fill:#00AA9C;}
	.st40{opacity:0.25;clip-path:url(#XMLID_2327_);}
	.st41{fill:none;stroke:#ACABC9;stroke-width:5;stroke-miterlimit:10;}
	.st42{opacity:0.25;clip-path:url(#XMLID_2328_);}
	.st43{fill:#DDDDDD;}
	.st44{opacity:0.25;clip-path:url(#XMLID_2329_);}
	.st45{fill-rule:evenodd;clip-rule:evenodd;fill:#FFFFFF;stroke:#FFFFFF;stroke-miterlimit:10;}
	.st46{fill:#F79748;}
	.st47{fill:#FF7900;}
	.st48{fill:#DD7105;}
	.st49{fill:#02897C;}
	.st50{fill:#0EAD9A;}
	.st51{fill:#28C6AF;}
	.st52{fill:#4FE0C7;}
	.st53{fill:#D37D00;}
	.st54{fill:#D14600;}
	.st55{fill:#E5B92E;}
	.st56{fill:#DD571B;}
	.st57{fill:#E28A17;}
	.st58{opacity:0.25;clip-path:url(#XMLID_2330_);}
	.st59{opacity:0.77;fill:#FFFFFF;}
	.st60{fill:#50565B;stroke:#656C70;stroke-miterlimit:10;}
	.st61{fill:#808589;stroke:#656C70;stroke-miterlimit:10;}
	.st62{fill:#252728;stroke:#000000;stroke-miterlimit:10;}
	.st63{fill:#1A1B1C;stroke:#000000;stroke-miterlimit:10;}
	.st64{fill:#A0A6AA;}
	.st65{fill:#262C35;stroke:#161A1E;stroke-miterlimit:10;}
	.st66{fill:#181D23;}
	.st67{fill:#EABA96;stroke:#E0AA86;stroke-miterlimit:10;}
	.st68{fill:#E0AA86;}
	.st69{stroke:#000000;stroke-width:0.75;stroke-linecap:square;stroke-linejoin:bevel;stroke-miterlimit:10;}
	.st70{fill:#0F1C3F;stroke:#182951;stroke-miterlimit:10;}
	.st71{fill:#132354;stroke:#3F6093;stroke-miterlimit:10;}
	.st72{fill:#0F1C3F;}
	.st73{fill:none;stroke:#3F6093;stroke-width:0.75;stroke-miterlimit:10;}
	.st74{fill:#DBA682;}
	.st75{fill:none;stroke:#E0AA86;stroke-miterlimit:10;}
	.st76{fill:none;stroke:#E0AA86;stroke-linejoin:bevel;stroke-miterlimit:10;}
	.st77{fill:#8A0A8E;stroke:#AC34B2;stroke-miterlimit:10;}
	.st78{fill:#810C87;}
	.st79{fill:#680B6D;}
	.st80{fill:#AC34B2;stroke:#AC34B2;stroke-width:0.5;stroke-miterlimit:10;}
	.st81{fill:none;stroke:#959DA0;stroke-width:0.5;stroke-miterlimit:10;}
	.st82{fill:#959DA0;stroke:#959DA0;stroke-width:0.5;stroke-miterlimit:10;}
	.st83{fill:none;stroke:#AC34B2;stroke-miterlimit:10;}
	.st84{fill:#282828;stroke:#000000;stroke-miterlimit:10;}
	.st85{fill:#EABA96;stroke:#E0AA86;stroke-width:0.5;stroke-miterlimit:10;}
	.st86{fill:#B7896A;}
	.st87{stroke:#000000;stroke-miterlimit:10;}
	.st88{fill:#C1A578;}
	.st89{stroke:#000000;stroke-width:0.25;stroke-linecap:round;stroke-linejoin:round;stroke-miterlimit:10;}
	.st90{fill:#FFFFFF;stroke:#000000;stroke-width:0.25;stroke-linecap:round;stroke-linejoin:round;stroke-miterlimit:10;}
	.st91{fill:#70582D;}
	.st92{stroke:#000000;stroke-linecap:round;stroke-linejoin:round;stroke-miterlimit:10;}
	.st93{fill:none;stroke:#D8A27D;stroke-width:0.75;stroke-miterlimit:10;}
	.st94{fill:#561409;}
	.st95{fill:#BA2A13;}
	.st96{fill:#9E3025;stroke:#4C2311;stroke-width:0.25;stroke-miterlimit:10;}
	.st97{fill:#871D08;stroke:#4C2311;stroke-width:0.25;stroke-miterlimit:10;}
	.st98{fill:#DDAC8A;}
	.st99{fill:#A5ABAD;stroke:#959DA0;stroke-width:0.5;stroke-miterlimit:10;}
	.st100{fill:#B1BABC;}
	.st101{fill:#FCFCFC;}
	.st102{fill:none;stroke:#153847;stroke-width:5;stroke-miterlimit:10;}
	.st103{fill:#3CA7AF;}
	.st104{fill:#3DAD8D;}
	.st105{fill:#3DAA61;}
	.st106{fill:#67A53F;}
	.st107{fill:#95A340;}
	.st108{opacity:0.25;clip-path:url(#XMLID_2331_);}
	.st109{opacity:0.25;clip-path:url(#XMLID_2332_);}
	.st110{opacity:0.25;clip-path:url(#XMLID_2333_);}
	.st111{clip-path:url(#SVGID_2_);}
	.st112{fill:none;stroke:#3F6093;stroke-miterlimit:10;}
	.st113{fill:none;stroke:#3F6093;stroke-width:0.75;stroke-linecap:round;stroke-linejoin:round;}
	.st114{fill:none;stroke:#3F6093;stroke-width:0.75;stroke-linecap:round;stroke-linejoin:round;stroke-dasharray:0.9892,0.9892;}
	
		.st115{fill:none;stroke:#3F6093;stroke-width:0.75;stroke-linecap:round;stroke-linejoin:round;stroke-miterlimit:10;stroke-dasharray:1;}
	.st116{fill:#EAEAEA;stroke:#FFFFFF;stroke-width:0.25;stroke-miterlimit:10;}
	.st117{fill:#D8D8D8;}
	.st118{fill:#282828;stroke:#000000;stroke-width:0.75;stroke-miterlimit:10;}
	.st119{opacity:0.33;fill:#FFFFFF;}
	.st120{fill:none;stroke:#000000;stroke-width:1.5;stroke-linecap:round;stroke-linejoin:round;stroke-miterlimit:10;}
	.st121{clip-path:url(#SVGID_4_);}
	.st122{opacity:0.64;}
	.st123{fill:#1D1D1B;}
	.st124{fill:#C9C9C9;}
</style>
<g>
	<path class="st24" d="M2.4023,25.5029V4.4971H4.292v21.0059H2.4023z"/>
	<path class="st24" d="M16.7139,25.5029V14.5166c0-0.3613-0.0684-0.7002-0.2051-1.0176s-0.3223-0.5938-0.5566-0.8281
		s-0.5098-0.4199-0.8271-0.5566s-0.6572-0.2051-1.0186-0.2051h-1.2012c-0.3613,0-0.7002,0.0684-1.0176,0.2051
		s-0.5938,0.3223-0.8281,0.5566s-0.4199,0.5107-0.5566,0.8281s-0.2051,0.6563-0.2051,1.0176v10.9863H8.4961v-15h0.6006
		l0.9814,1.5234c0.4102-0.5566,0.9258-0.998,1.5459-1.3252s1.2959-0.4912,2.0283-0.4912h0.4541
		c0.6055,0,1.1768,0.1152,1.7139,0.3447s1.0059,0.5439,1.4063,0.9443s0.7158,0.8691,0.9453,1.4063s0.3438,1.1084,0.3438,1.7139
		v10.8838H16.7139z"/>
	<path class="st24" d="M27.583,25.5029c-0.5469,0-1.0615-0.1025-1.5449-0.3076s-0.9033-0.4883-1.2598-0.8496
		s-0.6396-0.7813-0.8496-1.2598s-0.3154-0.9912-0.3154-1.5381v-9.3311H20.918v-1.7139h2.6953V6.8994l1.8018-0.293v3.8965h3.8086
		v1.7139H25.415v9.4189c0,0.3027,0.0566,0.584,0.1689,0.8428s0.2656,0.4854,0.4609,0.6807s0.4248,0.3496,0.6885,0.4619
		s0.5469,0.168,0.8496,0.168h1.6406v1.7139H27.583z"/>
	<path class="st24" d="M36.9434,12.2168c-0.3613,0-0.7002,0.0684-1.0176,0.2051s-0.5938,0.3223-0.8281,0.5566
		s-0.4199,0.5107-0.5566,0.8281s-0.2051,0.6563-0.2051,1.0176v10.6787h-1.8018v-15h0.6006l0.9814,1.5234
		c0.4102-0.5566,0.9258-0.998,1.5459-1.3252S36.958,10.21,37.6904,10.21h1.0547v2.0068H36.9434z"/>
	<path class="st24" d="M50.8232,23.1006c-0.2295,0.5371-0.5449,1.0059-0.9453,1.4063s-0.8691,0.7158-1.4063,0.9453
		s-1.1084,0.3438-1.7139,0.3438h-1.2012c-0.6055,0-1.1768-0.1143-1.7139-0.3438s-1.0059-0.5449-1.4063-0.9453
		s-0.7148-0.8691-0.9443-1.4063s-0.3447-1.1084-0.3447-1.7139v-6.7676c0-0.6055,0.1152-1.1768,0.3447-1.7139
		s0.5439-1.0059,0.9443-1.4063s0.8691-0.7148,1.4063-0.9443s1.1084-0.3447,1.7139-0.3447h1.2012
		c0.6055,0,1.1768,0.1152,1.7139,0.3447s1.0059,0.5439,1.4063,0.9443s0.7158,0.8691,0.9453,1.4063s0.3438,1.1084,0.3438,1.7139
		v6.7676C51.167,21.9922,51.0527,22.5635,50.8232,23.1006z M49.3652,14.5166c0-0.3613-0.0684-0.7002-0.2051-1.0176
		s-0.3223-0.5938-0.5566-0.8281s-0.5098-0.4199-0.8271-0.5566s-0.6572-0.2051-1.0186-0.2051h-1.2012
		c-0.3613,0-0.7002,0.0684-1.0176,0.2051s-0.5938,0.3223-0.8281,0.5566s-0.4199,0.5107-0.5566,0.8281s-0.2051,0.6563-0.2051,1.0176
		v6.9727c0,0.3613,0.0684,0.7012,0.2051,1.0186s0.3223,0.5928,0.5566,0.8271s0.5107,0.4199,0.8281,0.5566
		s0.6563,0.2051,1.0176,0.2051h1.2012c0.3613,0,0.7012-0.0684,1.0186-0.2051s0.5928-0.3223,0.8271-0.5566
		s0.4199-0.5098,0.5566-0.8271s0.2051-0.6572,0.2051-1.0186V14.5166z"/>
	<path class="st24" d="M64.1895,25.5029l-0.9961-1.5234c-0.4102,0.5566-0.9229,0.999-1.5381,1.3262s-1.2891,0.4902-2.0215,0.4902
		h-0.4541c-0.6055,0-1.1768-0.1143-1.7139-0.3438s-1.0059-0.5449-1.4063-0.9453s-0.7148-0.8691-0.9443-1.4063
		s-0.3447-1.1084-0.3447-1.7139v-6.7676c0-0.6055,0.1152-1.1768,0.3447-1.7139s0.5439-1.0059,0.9443-1.4063
		s0.8691-0.7148,1.4063-0.9443s1.1084-0.3447,1.7139-0.3447h0.4541c0.6738,0,1.2988,0.1367,1.875,0.4102
		s1.0693,0.6543,1.4795,1.1426V4.4971H64.79v21.0059H64.1895z M62.9883,14.5166c0-0.3613-0.0684-0.7002-0.2051-1.0176
		s-0.3223-0.5938-0.5566-0.8281s-0.5098-0.4199-0.8271-0.5566s-0.6572-0.2051-1.0186-0.2051h-1.2012
		c-0.3613,0-0.7002,0.0684-1.0176,0.2051s-0.5938,0.3223-0.8281,0.5566s-0.4199,0.5107-0.5566,0.8281s-0.2051,0.6563-0.2051,1.0176
		v6.9727c0,0.3613,0.0684,0.7012,0.2051,1.0186s0.3223,0.5928,0.5566,0.8271s0.5107,0.4199,0.8281,0.5566
		s0.6563,0.2051,1.0176,0.2051h1.2012c0.3613,0,0.7012-0.0684,1.0186-0.2051s0.5928-0.3223,0.8271-0.5566
		s0.4199-0.5098,0.5566-0.8271s0.2051-0.6572,0.2051-1.0186V14.5166z"/>
	<path class="st24" d="M77.8125,25.5029l-0.9961-1.5234c-0.4102,0.5566-0.9229,0.999-1.5381,1.3262s-1.2891,0.4902-2.0215,0.4902
		h-0.4541c-0.6055,0-1.1768-0.1143-1.7139-0.3438s-1.0059-0.5449-1.4063-0.9453s-0.7148-0.8691-0.9443-1.4063
		s-0.3447-1.1084-0.3447-1.7139V10.5029h1.8018v10.9863c0,0.3613,0.0684,0.7012,0.2051,1.0186s0.3223,0.5928,0.5566,0.8271
		s0.5107,0.4199,0.8281,0.5566s0.6563,0.2051,1.0176,0.2051h1.2012c0.3613,0,0.7012-0.0684,1.0186-0.2051
		s0.5928-0.3223,0.8271-0.5566s0.4199-0.5098,0.5566-0.8271s0.2051-0.6572,0.2051-1.0186V10.5029h1.8018v15H77.8125z"/>
	<path class="st24" d="M91.6924,23.1006c-0.2295,0.5371-0.5449,1.0059-0.9453,1.4063s-0.8691,0.7158-1.4063,0.9453
		s-1.1084,0.3438-1.7139,0.3438h-1.2012c-0.6055,0-1.1768-0.1143-1.7139-0.3438s-1.0059-0.5449-1.4063-0.9453
		s-0.7148-0.8691-0.9443-1.4063s-0.3447-1.1084-0.3447-1.7139v-6.7676c0-0.6055,0.1152-1.1768,0.3447-1.7139
		s0.5439-1.0059,0.9443-1.4063s0.8691-0.7148,1.4063-0.9443s1.1084-0.3447,1.7139-0.3447h1.2012
		c0.6055,0,1.1768,0.1152,1.7139,0.3447s1.0059,0.5439,1.4063,0.9443s0.7158,0.8691,0.9453,1.4063s0.3438,1.1084,0.3438,1.7139
		v0.6006l-1.8018,0.293v-0.9961c0-0.3613-0.0684-0.7002-0.2051-1.0176s-0.3223-0.5938-0.5566-0.8281s-0.5098-0.4199-0.8271-0.5566
		s-0.6572-0.2051-1.0186-0.2051h-1.2012c-0.3613,0-0.7002,0.0684-1.0176,0.2051s-0.5938,0.3223-0.8281,0.5566
		s-0.4199,0.5107-0.5566,0.8281s-0.2051,0.6563-0.2051,1.0176v6.9727c0,0.3613,0.0684,0.7012,0.2051,1.0186
		s0.3223,0.5928,0.5566,0.8271s0.5107,0.4199,0.8281,0.5566s0.6563,0.2051,1.0176,0.2051h1.2012
		c0.3613,0,0.7012-0.0684,1.0186-0.2051s0.5928-0.3223,0.8271-0.5566s0.4199-0.5098,0.5566-0.8271s0.2051-0.6572,0.2051-1.0186
		v-0.9961l1.8018,0.293v0.6006C92.0361,21.9922,91.9219,22.5635,91.6924,23.1006z"/>
	<path class="st24" d="M105.3154,23.1006c-0.2295,0.5371-0.5449,1.0059-0.9453,1.4063s-0.8691,0.7158-1.4063,0.9453
		s-1.1084,0.3438-1.7139,0.3438h-1.2012c-0.6055,0-1.1768-0.1143-1.7139-0.3438s-1.0059-0.5449-1.4063-0.9453
		s-0.7148-0.8691-0.9443-1.4063s-0.3447-1.1084-0.3447-1.7139v-6.7676c0-0.6055,0.1152-1.1768,0.3447-1.7139
		s0.5439-1.0059,0.9443-1.4063s0.8691-0.7148,1.4063-0.9443s1.1084-0.3447,1.7139-0.3447h1.2012
		c0.6055,0,1.1768,0.1152,1.7139,0.3447s1.0059,0.5439,1.4063,0.9443s0.7158,0.8691,0.9453,1.4063s0.3438,1.1084,0.3438,1.7139
		v0.6006l-1.8018,0.293v-0.9961c0-0.3613-0.0684-0.7002-0.2051-1.0176s-0.3223-0.5938-0.5566-0.8281s-0.5098-0.4199-0.8271-0.5566
		s-0.6572-0.2051-1.0186-0.2051h-1.2012c-0.3613,0-0.7002,0.0684-1.0176,0.2051s-0.5938,0.3223-0.8281,0.5566
		s-0.4199,0.5107-0.5566,0.8281s-0.2051,0.6563-0.2051,1.0176v6.9727c0,0.3613,0.0684,0.7012,0.2051,1.0186
		s0.3223,0.5928,0.5566,0.8271s0.5107,0.4199,0.8281,0.5566s0.6563,0.2051,1.0176,0.2051h1.2012
		c0.3613,0,0.7012-0.0684,1.0186-0.2051s0.5928-0.3223,0.8271-0.5566s0.4199-0.5098,0.5566-0.8271s0.2051-0.6572,0.2051-1.0186
		v-0.9961l1.8018,0.293v0.6006C105.6592,21.9922,105.5449,22.5635,105.3154,23.1006z"/>
	<path class="st24" d="M109.7168,6.8994V4.4971h2.0947v2.4023H109.7168z M109.8633,25.5029v-15h1.8018v15H109.8633z"/>
	<path class="st24" d="M125.5449,23.1006c-0.2295,0.5371-0.5449,1.0059-0.9453,1.4063s-0.8691,0.7158-1.4063,0.9453
		s-1.1084,0.3438-1.7139,0.3438h-1.2012c-0.6055,0-1.1768-0.1143-1.7139-0.3438s-1.0059-0.5449-1.4063-0.9453
		s-0.7148-0.8691-0.9443-1.4063s-0.3447-1.1084-0.3447-1.7139v-6.7676c0-0.6055,0.1152-1.1768,0.3447-1.7139
		s0.5439-1.0059,0.9443-1.4063s0.8691-0.7148,1.4063-0.9443s1.1084-0.3447,1.7139-0.3447h1.2012
		c0.6055,0,1.1768,0.1152,1.7139,0.3447s1.0059,0.5439,1.4063,0.9443s0.7158,0.8691,0.9453,1.4063s0.3438,1.1084,0.3438,1.7139
		v6.7676C125.8887,21.9922,125.7744,22.5635,125.5449,23.1006z M124.0869,14.5166c0-0.3613-0.0684-0.7002-0.2051-1.0176
		s-0.3223-0.5938-0.5566-0.8281s-0.5098-0.4199-0.8271-0.5566s-0.6572-0.2051-1.0186-0.2051h-1.2012
		c-0.3613,0-0.7002,0.0684-1.0176,0.2051s-0.5938,0.3223-0.8281,0.5566s-0.4199,0.5107-0.5566,0.8281s-0.2051,0.6563-0.2051,1.0176
		v6.9727c0,0.3613,0.0684,0.7012,0.2051,1.0186s0.3223,0.5928,0.5566,0.8271s0.5107,0.4199,0.8281,0.5566
		s0.6563,0.2051,1.0176,0.2051h1.2012c0.3613,0,0.7012-0.0684,1.0186-0.2051s0.5928-0.3223,0.8271-0.5566
		s0.4199-0.5098,0.5566-0.8271s0.2051-0.6572,0.2051-1.0186V14.5166z M120.1318,8.1006h-1.3477l2.3877-3.6035h3.0029
		L120.1318,8.1006z"/>
	<path class="st24" d="M137.71,25.5029V14.5166c0-0.3613-0.0684-0.7002-0.2051-1.0176s-0.3223-0.5938-0.5566-0.8281
		s-0.5098-0.4199-0.8271-0.5566s-0.6572-0.2051-1.0186-0.2051h-1.2012c-0.3613,0-0.7002,0.0684-1.0176,0.2051
		s-0.5938,0.3223-0.8281,0.5566s-0.4199,0.5107-0.5566,0.8281s-0.2051,0.6563-0.2051,1.0176v10.9863h-1.8018v-15h0.6006
		l0.9814,1.5234c0.4102-0.5566,0.9258-0.998,1.5459-1.3252s1.2959-0.4912,2.0283-0.4912h0.4541
		c0.6055,0,1.1768,0.1152,1.7139,0.3447s1.0059,0.5439,1.4063,0.9443s0.7158,0.8691,0.9453,1.4063s0.3438,1.1084,0.3438,1.7139
		v10.8838H137.71z"/>
</g>
<g>
	<defs>
		<rect id="SVGID_3_" x="13.1433" y="-604.2767" width="256.6336" height="540.3579"/>
	</defs>
	<clipPath id="SVGID_2_">
		<use xlink:href="#SVGID_3_"  style="overflow:visible;"/>
	</clipPath>
	<g class="st111">
		<path id="Pantalon_1_" class="st71" d="M94.2213-245.0857c0,0-23.3359,76.0953-22.9977,134.266c0,0-4.3966,14.5427-2.0292,24.3505
			c0,0-17.3881,90.1358-10.2301,154.2463L78.733,66.491c0,0,32.3983-111.3614,32.7365-140.4467
			c0,0,28.7471-74.0661,33.1438-114.3121c0,0,4.0584,108.2245,7.1022,127.8402c0,0-1.691,4.3966,0,8.7932
			c0,0-14.0136,31.9598-9.9678,125.9471l23.3412,1.2449l23.8288-104.1943c0,0,11.1607-9.8078,8.7932-34.1584
			c0,0,16.2337-62.2291,16.2337-98.7549c0,0,5.2097-57.4356-8.0485-87.0576l-62.2974-7.6389L94.2213-245.0857z"/>
		<path class="st72" d="M88.0491-220.1434c0,0-19.1929,79.6747-15.36,109.2109c0,0-5.123,13.1587-2.4174,24.6576
			c0,0-9.7514,56.5376-11.6187,95.7508c-1.0302,21.6338,1.0725,57.6787,1.0725,57.6787l18.3701-1.2449l7.8373-28.0684
			c0,0-15.3103-2.0458-15.3103-14.672c0,0-20.3202-2.386,7.7033-101.6346c0,0-4.7299-8.3423-1.0122-18.7138
			c0,0,0.7596-69.7186,10.7355-98.5416s0,0,0,0s16.2475-2.2801,21.2995-32.023c5.052-29.7429,0,0,0,0l-12.0741-9.9018
			L88.0491-220.1434z"/>
	</g>
</g>
</svg>
