<?xml version="1.0" encoding="utf-8"?>
<!-- Generator: Adobe Illustrator 21.0.2, SVG Export Plug-In . SVG Version: 6.00 Build 0)  -->
<svg version="1.1" id="Capa_1" xmlns="http://www.w3.org/2000/svg" xmlns:xlink="http://www.w3.org/1999/xlink" x="0px" y="0px"
	 viewBox="0 0 20.8066 18.9587" style="enable-background:new 0 0 20.8066 18.9587;" xml:space="preserve">
<style type="text/css">
	.st0{fill-rule:evenodd;clip-rule:evenodd;fill:#DDDDDD;}
	.st1{fill:#3B86B1;}
	.st2{opacity:0.25;fill-rule:evenodd;clip-rule:evenodd;fill:#020202;}
	.st3{fill:#FFFFFF;}
	.st4{opacity:0.5;}
	.st5{fill-rule:evenodd;clip-rule:evenodd;fill:#A8A8A8;}
	.st6{fill-rule:evenodd;clip-rule:evenodd;fill:#FFFFFF;}
	.st7{fill-rule:evenodd;clip-rule:evenodd;fill:#3B86B1;}
	.st8{opacity:0.5;fill:#2C6882;}
	.st9{opacity:0.75;fill-rule:evenodd;clip-rule:evenodd;fill:#282828;}
	.st10{opacity:0.5;fill:#FFFFFF;}
	.st11{fill-rule:evenodd;clip-rule:evenodd;fill:none;stroke:#FFFFFF;stroke-miterlimit:10;}
	.st12{fill:none;stroke:#FFFFFF;stroke-miterlimit:10;}
	.st13{fill:#FFFFFF;stroke:#3B86B1;stroke-width:1.7139;stroke-miterlimit:10;}
	.st14{fill-rule:evenodd;clip-rule:evenodd;}
	.st15{opacity:0.85;fill:#FFFFFF;}
	.st16{opacity:0.5;fill-rule:evenodd;clip-rule:evenodd;}
	.st17{fill-rule:evenodd;clip-rule:evenodd;fill:#FEFEFE;}
	.st18{fill:#312767;}
	.st19{opacity:0.48;}
	.st20{opacity:0.25;}
	.st21{fill-rule:evenodd;clip-rule:evenodd;fill:#020202;}
	.st22{fill:#757575;}
	.st23{opacity:0.25;clip-path:url(#XMLID_2396_);}
	.st24{fill:#4D4789;}
	.st25{fill:#FFFFFF;stroke:#312767;stroke-miterlimit:10;}
	.st26{fill:#3B86B1;stroke:#3B86B1;stroke-miterlimit:10;}
	.st27{fill:#FFFFFF;stroke:#FFFFFF;stroke-miterlimit:10;}
	.st28{fill:#ACABC9;}
	.st29{fill-rule:evenodd;clip-rule:evenodd;fill:#312767;}
	.st30{opacity:0.77;fill:#312767;}
	.st31{opacity:0.25;clip-path:url(#XMLID_2397_);}
	.st32{fill:#9490B2;stroke:#2D2D2D;stroke-width:0.25;stroke-miterlimit:10;}
	.st33{fill:#312767;stroke:#2D2D2D;stroke-width:0.25;stroke-miterlimit:10;}
	.st34{fill:#FCFCFC;}
	.st35{fill:#FFFFFF;stroke:#2D2D2D;stroke-width:0.25;stroke-miterlimit:10;}
	.st36{fill-rule:evenodd;clip-rule:evenodd;fill:#484849;stroke:#2D2D2D;stroke-width:0.25;stroke-miterlimit:10;}
	.st37{fill-rule:evenodd;clip-rule:evenodd;fill:#312767;stroke:#2D2D2D;stroke-width:0.25;stroke-miterlimit:10;}
	.st38{fill-rule:evenodd;clip-rule:evenodd;fill:#FFFFFF;stroke:#2D2D2D;stroke-width:0.25;stroke-miterlimit:10;}
	.st39{fill:#484849;stroke:#2D2D2D;stroke-width:0.25;stroke-miterlimit:10;}
	.st40{fill:#54518C;}
	.st41{opacity:0.25;fill-rule:evenodd;clip-rule:evenodd;fill:#FFFFFF;}
	.st42{fill:#D4A800;}
	.st43{fill:#00AEB3;}
	.st44{fill:#38353B;}
	.st45{fill:#FF8400;}
	.st46{fill:#BF3900;}
	.st47{fill:#00AA9C;}
	.st48{opacity:0.25;clip-path:url(#XMLID_2400_);}
	.st49{fill:none;stroke:#ACABC9;stroke-width:5;stroke-miterlimit:10;}
	.st50{opacity:0.25;clip-path:url(#XMLID_2403_);}
	.st51{fill:#DDDDDD;}
	.st52{opacity:0.25;fill-rule:evenodd;clip-rule:evenodd;fill:#FFFFFF;stroke:#303030;stroke-width:0.5;stroke-miterlimit:10;}
	.st53{fill:#3B86B1;stroke:#303030;stroke-width:0.5;stroke-miterlimit:10;}
	.st54{fill:#D4A800;stroke:#303030;stroke-width:0.5;stroke-miterlimit:10;}
	.st55{fill:#00AEB3;stroke:#303030;stroke-width:0.5;stroke-miterlimit:10;}
	.st56{fill:#FF8400;stroke:#303030;stroke-width:0.5;stroke-miterlimit:10;}
	.st57{fill:#BF3900;stroke:#303030;stroke-width:0.5;stroke-miterlimit:10;}
	.st58{fill:#00AA9C;stroke:#303030;stroke-width:0.5;stroke-miterlimit:10;}
	.st59{opacity:0.25;clip-path:url(#XMLID_2404_);}
	.st60{fill-rule:evenodd;clip-rule:evenodd;fill:#FFFFFF;stroke:#FFFFFF;stroke-miterlimit:10;}
	.st61{fill:#F79748;}
	.st62{fill:#FF7900;}
	.st63{fill:#DD7105;}
	.st64{fill:#02897C;}
	.st65{fill:#0EAD9A;}
	.st66{fill:#28C6AF;}
	.st67{fill:#4FE0C7;}
	.st68{fill:#00AA9C;stroke:#353535;stroke-width:0.5;stroke-miterlimit:10;}
	.st69{fill:#02897C;stroke:#353535;stroke-width:0.5;stroke-miterlimit:10;}
	.st70{fill:#0EAD9A;stroke:#353535;stroke-width:0.5;stroke-miterlimit:10;}
	.st71{fill:#28C6AF;stroke:#353535;stroke-width:0.5;stroke-miterlimit:10;}
	.st72{fill:#4FE0C7;stroke:#353535;stroke-width:0.5;stroke-miterlimit:10;}
	.st73{fill:#D37D00;}
	.st74{fill:#D14600;}
	.st75{fill:#E5B92E;}
	.st76{fill:#DD571B;}
	.st77{fill:#E28A17;}
	.st78{opacity:0.25;clip-path:url(#XMLID_2410_);}
	.st79{opacity:0.77;fill:#FFFFFF;}
	.st80{fill:#50565B;stroke:#656C70;stroke-miterlimit:10;}
	.st81{fill:#808589;stroke:#656C70;stroke-miterlimit:10;}
	.st82{fill:#252728;stroke:#000000;stroke-miterlimit:10;}
	.st83{fill:#1A1B1C;stroke:#000000;stroke-miterlimit:10;}
	.st84{fill:#A0A6AA;}
	.st85{fill:#262C35;stroke:#161A1E;stroke-miterlimit:10;}
	.st86{fill:#181D23;}
	.st87{fill:#EABA96;stroke:#E0AA86;stroke-miterlimit:10;}
	.st88{fill:#E0AA86;}
	.st89{stroke:#000000;stroke-width:0.75;stroke-linecap:square;stroke-linejoin:bevel;stroke-miterlimit:10;}
	.st90{fill:#0F1C3F;stroke:#182951;stroke-miterlimit:10;}
	.st91{fill:#132354;stroke:#3F6093;stroke-miterlimit:10;}
	.st92{fill:#0F1C3F;}
	.st93{fill:none;stroke:#3F6093;stroke-width:0.75;stroke-miterlimit:10;}
	.st94{fill:#DBA682;}
	.st95{fill:none;stroke:#E0AA86;stroke-miterlimit:10;}
	.st96{fill:none;stroke:#E0AA86;stroke-linejoin:bevel;stroke-miterlimit:10;}
	.st97{fill:#8A0A8E;stroke:#AC34B2;stroke-miterlimit:10;}
	.st98{fill:#810C87;}
	.st99{fill:#680B6D;}
	.st100{fill:#AC34B2;stroke:#AC34B2;stroke-width:0.5;stroke-miterlimit:10;}
	.st101{fill:none;stroke:#959DA0;stroke-width:0.5;stroke-miterlimit:10;}
	.st102{fill:#959DA0;stroke:#959DA0;stroke-width:0.5;stroke-miterlimit:10;}
	.st103{fill:none;stroke:#AC34B2;stroke-miterlimit:10;}
	.st104{fill:#282828;stroke:#000000;stroke-miterlimit:10;}
	.st105{fill:#EABA96;stroke:#E0AA86;stroke-width:0.5;stroke-miterlimit:10;}
	.st106{fill:#B7896A;}
	.st107{stroke:#000000;stroke-miterlimit:10;}
	.st108{fill:#C1A578;}
	.st109{stroke:#000000;stroke-width:0.25;stroke-linecap:round;stroke-linejoin:round;stroke-miterlimit:10;}
	.st110{fill:#FFFFFF;stroke:#000000;stroke-width:0.25;stroke-linecap:round;stroke-linejoin:round;stroke-miterlimit:10;}
	.st111{fill:#70582D;}
	.st112{stroke:#000000;stroke-linecap:round;stroke-linejoin:round;stroke-miterlimit:10;}
	.st113{fill:none;stroke:#D8A27D;stroke-width:0.75;stroke-miterlimit:10;}
	.st114{fill:#561409;}
	.st115{fill:#BA2A13;}
	.st116{fill:#9E3025;stroke:#4C2311;stroke-width:0.25;stroke-miterlimit:10;}
	.st117{fill:#871D08;stroke:#4C2311;stroke-width:0.25;stroke-miterlimit:10;}
	.st118{fill:#DDAC8A;}
	.st119{fill:#A5ABAD;stroke:#959DA0;stroke-width:0.5;stroke-miterlimit:10;}
	.st120{fill:#B1BABC;}
	.st121{fill:none;stroke:#153847;stroke-width:5;stroke-miterlimit:10;}
	.st122{fill:#3CA7AF;}
	.st123{fill:#3DAD8D;}
	.st124{fill:#3DAA61;}
	.st125{fill:#67A53F;}
	.st126{fill:#95A340;}
	.st127{opacity:0.25;clip-path:url(#XMLID_2411_);}
	.st128{opacity:0.25;clip-path:url(#XMLID_2416_);}
	.st129{fill:#F79748;stroke:#303030;stroke-width:0.5;stroke-miterlimit:10;}
	.st130{fill:#FF7900;stroke:#303030;stroke-width:0.5;stroke-miterlimit:10;}
	.st131{fill:#DD7105;stroke:#303030;stroke-width:0.5;stroke-miterlimit:10;}
	.st132{opacity:0.25;clip-path:url(#XMLID_2422_);}
	.st133{clip-path:url(#SVGID_2_);}
	.st134{fill:none;stroke:#3F6093;stroke-miterlimit:10;}
	.st135{fill:none;stroke:#3F6093;stroke-width:0.75;stroke-linecap:round;stroke-linejoin:round;}
	.st136{fill:none;stroke:#3F6093;stroke-width:0.75;stroke-linecap:round;stroke-linejoin:round;stroke-dasharray:0.9892,0.9892;}
	
		.st137{fill:none;stroke:#3F6093;stroke-width:0.75;stroke-linecap:round;stroke-linejoin:round;stroke-miterlimit:10;stroke-dasharray:1;}
	.st138{fill:#EAEAEA;stroke:#FFFFFF;stroke-width:0.25;stroke-miterlimit:10;}
	.st139{fill:#D8D8D8;}
	.st140{fill:#282828;stroke:#000000;stroke-width:0.75;stroke-miterlimit:10;}
	.st141{opacity:0.33;fill:#FFFFFF;}
	.st142{fill:none;stroke:#000000;stroke-width:1.5;stroke-linecap:round;stroke-linejoin:round;stroke-miterlimit:10;}
	.st143{clip-path:url(#SVGID_4_);}
	.st144{opacity:0.64;}
	.st145{fill:#1D1D1B;}
	.st146{fill:#C9C9C9;}
	.st147{fill:#545477;}
</style>
<g id="XMLID_2380_">
	<path id="XMLID_2387_" class="st18" d="M9.6052,10.1544H0.6751C0.3023,10.1544,0,9.8522,0,9.4793
		c0-0.3729,0.3023-0.6751,0.6751-0.6751h8.9302c0.3728,0,0.6751,0.3022,0.6751,0.6751C10.2804,9.8522,9.9781,10.1544,9.6052,10.1544
		z"/>
	<polygon id="XMLID_2386_" class="st18" points="8.8586,6.807 13.4873,9.4793 8.8586,12.1517 	"/>
	<g id="XMLID_2381_">
		<path id="XMLID_2383_" class="st18" d="M8.8587,12.8268c-0.1166,0-0.2331-0.0302-0.3375-0.0905
			c-0.2089-0.1206-0.3375-0.3434-0.3375-0.5846V6.807c0-0.2412,0.1287-0.464,0.3375-0.5846c0.2089-0.1206,0.4662-0.1206,0.6751,0
			l4.6286,2.6723c0.2089,0.1206,0.3375,0.3434,0.3375,0.5846s-0.1287,0.464-0.3375,0.5846l-4.6286,2.6724
			C9.0918,12.7967,8.9752,12.8268,8.8587,12.8268z M9.5338,7.9762v3.0062l2.6034-1.5031L9.5338,7.9762z"/>
		<path id="XMLID_2382_" class="st18" d="M11.3272,18.9587c-1.9297,0-3.7868-0.5747-5.3706-1.662
			c-1.579-1.084-2.7792-2.6031-3.471-4.3931c-0.0802-0.2077-0.0529-0.4415,0.0729-0.6251c0.1259-0.1836,0.3342-0.2933,0.5568-0.2933
			h3.0829c0.3728,0,0.6751,0.3022,0.6751,0.6751s-0.3023,0.6751-0.6751,0.6751H4.1656c1.4022,2.6253,4.1158,4.2732,7.1616,4.2732
			c4.4824,0,8.1292-3.6468,8.1292-8.1292s-3.6467-8.1291-8.1292-8.1291c-3.0458,0-5.7593,1.6479-7.1616,4.2732h1.6705
			c0.8218-1.1666,2.0047-2.0498,3.3675-2.5065c0.6872-0.2303,1.4017-0.347,2.1236-0.347c3.6997,0,6.7096,3.0099,6.7096,6.7096
			s-3.0099,6.7096-6.7096,6.7096c-0.7218,0-1.4363-0.1167-2.1234-0.347c-0.3535-0.1185-0.5441-0.501-0.4256-0.8546
			c0.1185-0.3535,0.5008-0.544,0.8546-0.4256c0.5485,0.1838,1.1186,0.2771,1.6944,0.2771c2.9552,0,5.3595-2.4043,5.3595-5.3595
			S14.2825,4.12,11.3272,4.12c-0.5758,0-1.146,0.0932-1.6946,0.277c-1.187,0.3979-2.2031,1.1997-2.861,2.2579
			c-0.1231,0.1982-0.34,0.3186-0.5733,0.3186H3.1154c-0.2227,0-0.4309-0.1097-0.5568-0.2933
			C2.4328,6.4966,2.4054,6.2627,2.4857,6.0551c0.6918-1.79,1.892-3.3091,3.471-4.3931C7.5405,0.5747,9.3976,0,11.3273,0
			c5.2269,0,9.4793,4.2524,9.4793,9.4793S16.5542,18.9587,11.3272,18.9587z"/>
	</g>
</g>
</svg>
