<?xml version="1.0" encoding="utf-8"?>
<!-- Generator: Adobe Illustrator 16.0.0, SVG Export Plug-In . SVG Version: 6.00 Build 0)  -->
<!DOCTYPE svg PUBLIC "-//W3C//DTD SVG 1.1//EN" "http://www.w3.org/Graphics/SVG/1.1/DTD/svg11.dtd">
<svg version="1.1" id="Layer_1" xmlns="http://www.w3.org/2000/svg" xmlns:xlink="http://www.w3.org/1999/xlink" x="0px" y="0px"
	 width="246.026px" height="69.139px" viewBox="0 0 246.026 69.139" enable-background="new 0 0 246.026 69.139"
	 xml:space="preserve">
<g id="XMLID_5460_">
	<g id="XMLID_5341_">
		<g id="XMLID_5384_">
			<g>
				<polygon id="XMLID_10_" fill-rule="evenodd" clip-rule="evenodd" fill="#2C2E21" points="232,69.139 246.026,51.353 
					235.602,7.184 232,7.187 				"/>
			</g>
		</g>
		<rect id="XMLID_5381_" fill-rule="evenodd" clip-rule="evenodd" fill="#EFEFEF" width="246.026" height="51.353"/>
		<polygon id="XMLID_5378_" opacity="0.25" fill="#303030" points="232,58.523 0,51.353 232,51.353 		"/>
		
			<rect id="XMLID_5376_" x="2.615" y="2.51" fill-rule="evenodd" clip-rule="evenodd" fill="#FFFFFF" width="240.823" height="46.333"/>
		<g>
			<g>
				<path fill="#51564D" d="M60.291,32.121V19.952h2.457v12.169H60.291z"/>
				<path fill="#51564D" d="M73.091,32.121h-2.333v-4.499c0-0.952-0.05-1.567-0.149-1.847s-0.262-0.497-0.485-0.652
					c-0.225-0.154-0.494-0.232-0.81-0.232c-0.404,0-0.767,0.111-1.087,0.332c-0.321,0.222-0.541,0.516-0.66,0.881
					c-0.119,0.365-0.179,1.04-0.179,2.025v3.992h-2.333v-8.815h2.167v1.295c0.769-0.996,1.738-1.494,2.905-1.494
					c0.515,0,0.985,0.093,1.411,0.278s0.749,0.422,0.967,0.709c0.219,0.288,0.371,0.615,0.457,0.98
					c0.085,0.365,0.128,0.888,0.128,1.568V32.121z"/>
				<path fill="#51564D" d="M79.499,23.306v1.859h-1.594v3.553c0,0.72,0.015,1.139,0.046,1.258c0.03,0.119,0.1,0.217,0.207,0.294
					c0.108,0.078,0.24,0.117,0.395,0.117c0.216,0,0.528-0.075,0.938-0.225l0.199,1.81c-0.542,0.232-1.157,0.349-1.843,0.349
					c-0.42,0-0.8-0.07-1.137-0.212c-0.337-0.141-0.585-0.323-0.743-0.548c-0.157-0.224-0.267-0.527-0.328-0.908
					c-0.05-0.271-0.075-0.819-0.075-1.645v-3.843h-1.071v-1.859h1.071v-1.751l2.341-1.361v3.112H79.499z"/>
				<path fill="#51564D" d="M83.351,32.121h-2.333v-8.815h2.167v1.253c0.371-0.592,0.704-0.981,1-1.17
					c0.296-0.188,0.632-0.282,1.009-0.282c0.531,0,1.043,0.146,1.536,0.44l-0.722,2.033c-0.393-0.255-0.758-0.382-1.096-0.382
					c-0.327,0-0.603,0.09-0.83,0.27s-0.405,0.505-0.535,0.976c-0.13,0.471-0.195,1.455-0.195,2.955V32.121z"/>
				<path fill="#51564D" d="M87.194,27.589c0-0.774,0.191-1.524,0.573-2.249c0.382-0.726,0.923-1.279,1.623-1.66
					c0.7-0.383,1.482-0.573,2.345-0.573c1.333,0,2.427,0.433,3.279,1.299s1.278,1.961,1.278,3.283c0,1.334-0.43,2.439-1.291,3.316
					c-0.86,0.877-1.943,1.315-3.25,1.315c-0.808,0-1.579-0.183-2.312-0.548c-0.733-0.365-1.291-0.9-1.672-1.606
					C87.385,29.461,87.194,28.602,87.194,27.589z M89.584,27.713c0,0.875,0.208,1.545,0.623,2.01s0.927,0.697,1.536,0.697
					s1.119-0.232,1.531-0.697c0.413-0.465,0.619-1.141,0.619-2.025c0-0.863-0.206-1.527-0.619-1.992
					c-0.412-0.465-0.922-0.697-1.531-0.697s-1.121,0.232-1.536,0.697S89.584,26.839,89.584,27.713z"/>
				<path fill="#51564D" d="M106.203,32.121h-2.167v-1.295c-0.36,0.504-0.784,0.879-1.274,1.125
					c-0.489,0.246-0.983,0.369-1.481,0.369c-1.013,0-1.88-0.408-2.603-1.225c-0.722-0.816-1.083-1.955-1.083-3.416
					c0-1.494,0.352-2.63,1.054-3.407s1.591-1.166,2.665-1.166c0.985,0,1.837,0.409,2.557,1.229v-4.383h2.333V32.121z M99.977,27.522
					c0,0.94,0.13,1.621,0.39,2.042c0.376,0.608,0.902,0.913,1.577,0.913c0.537,0,0.993-0.229,1.37-0.685
					c0.376-0.457,0.564-1.139,0.564-2.047c0-1.012-0.183-1.741-0.548-2.187s-0.833-0.669-1.403-0.669
					c-0.553,0-1.017,0.221-1.391,0.66C100.164,25.991,99.977,26.648,99.977,27.522z"/>
				<path fill="#51564D" d="M114.304,32.121v-1.32c-0.321,0.471-0.743,0.842-1.266,1.113c-0.523,0.271-1.075,0.406-1.656,0.406
					c-0.592,0-1.124-0.13-1.594-0.391c-0.47-0.26-0.811-0.625-1.021-1.096c-0.21-0.47-0.315-1.12-0.315-1.95v-5.578h2.333v4.051
					c0,1.239,0.043,1.999,0.129,2.278c0.085,0.279,0.242,0.501,0.469,0.664s0.515,0.245,0.863,0.245
					c0.398,0,0.755-0.109,1.071-0.328s0.531-0.489,0.647-0.813c0.116-0.323,0.174-1.116,0.174-2.378v-3.719h2.333v8.815H114.304z"/>
				<path fill="#51564D" d="M126.572,25.912l-2.299,0.415c-0.078-0.459-0.253-0.806-0.527-1.038
					c-0.273-0.232-0.629-0.348-1.066-0.348c-0.581,0-1.044,0.2-1.391,0.602c-0.346,0.401-0.519,1.072-0.519,2.013
					c0,1.046,0.176,1.784,0.527,2.216c0.351,0.432,0.823,0.648,1.415,0.648c0.443,0,0.805-0.126,1.087-0.378s0.481-0.685,0.598-1.3
					l2.292,0.391c-0.238,1.052-0.695,1.846-1.37,2.383c-0.675,0.536-1.58,0.805-2.714,0.805c-1.29,0-2.317-0.406-3.083-1.221
					c-0.767-0.812-1.15-1.939-1.15-3.378c0-1.455,0.385-2.589,1.154-3.399s1.81-1.216,3.121-1.216c1.074,0,1.927,0.231,2.561,0.693
					C125.841,24.262,126.296,24.966,126.572,25.912z"/>
				<path fill="#51564D" d="M136.027,25.912l-2.299,0.415c-0.078-0.459-0.254-0.806-0.527-1.038s-0.63-0.348-1.066-0.348
					c-0.582,0-1.045,0.2-1.391,0.602s-0.52,1.072-0.52,2.013c0,1.046,0.176,1.784,0.527,2.216s0.823,0.648,1.416,0.648
					c0.442,0,0.805-0.126,1.087-0.378s0.481-0.685,0.598-1.3l2.291,0.391c-0.237,1.052-0.694,1.846-1.37,2.383
					c-0.675,0.536-1.58,0.805-2.714,0.805c-1.29,0-2.317-0.406-3.083-1.221c-0.768-0.812-1.15-1.939-1.15-3.378
					c0-1.455,0.385-2.589,1.154-3.399c0.769-0.811,1.809-1.216,3.121-1.216c1.073,0,1.927,0.231,2.561,0.693
					C135.295,24.262,135.75,24.966,136.027,25.912z"/>
				<path fill="#51564D" d="M137.795,22.11v-2.158h2.333v2.158H137.795z M137.795,32.121v-8.815h2.333v8.815H137.795z"/>
				<path fill="#51564D" d="M141.979,27.589c0-0.774,0.191-1.524,0.573-2.249c0.382-0.726,0.923-1.279,1.622-1.66
					c0.701-0.383,1.482-0.573,2.346-0.573c1.334,0,2.427,0.433,3.279,1.299c0.852,0.866,1.277,1.961,1.277,3.283
					c0,1.334-0.43,2.439-1.291,3.316c-0.859,0.877-1.943,1.315-3.249,1.315c-0.808,0-1.579-0.183-2.312-0.548
					c-0.733-0.365-1.291-0.9-1.673-1.606C142.17,29.461,141.979,28.602,141.979,27.589z M144.369,27.713
					c0,0.875,0.208,1.545,0.623,2.01s0.927,0.697,1.535,0.697c0.609,0,1.119-0.232,1.531-0.697c0.413-0.465,0.619-1.141,0.619-2.025
					c0-0.863-0.206-1.527-0.619-1.992c-0.412-0.465-0.922-0.697-1.531-0.697c-0.608,0-1.12,0.232-1.535,0.697
					S144.369,26.839,144.369,27.713z M145.35,22.227l1.145-2.482h2.615l-2.283,2.482H145.35z"/>
				<path fill="#51564D" d="M160.922,32.121h-2.333v-4.499c0-0.952-0.05-1.567-0.149-1.847s-0.262-0.497-0.485-0.652
					c-0.225-0.154-0.494-0.232-0.81-0.232c-0.404,0-0.767,0.111-1.088,0.332c-0.32,0.222-0.541,0.516-0.659,0.881
					c-0.119,0.365-0.179,1.04-0.179,2.025v3.992h-2.332v-8.815h2.166v1.295c0.77-0.996,1.738-1.494,2.905-1.494
					c0.515,0,0.985,0.093,1.411,0.278s0.748,0.422,0.967,0.709c0.219,0.288,0.371,0.615,0.457,0.98s0.129,0.888,0.129,1.568V32.121z
					"/>
			</g>
		</g>
	</g>
	<g id="XMLID_5278_">
		<rect id="XMLID_5340_" x="17.396" y="14.93" fill="#F78B36" width="27.793" height="16.035"/>
		<g id="XMLID_5279_">
			<path id="XMLID_5323_" fill="#51564D" d="M32.797,11.723c0.061-0.167,0.099-0.346,0.099-0.534c0-0.884-0.72-1.604-1.604-1.604
				s-1.604,0.719-1.604,1.604c0,0.188,0.038,0.367,0.099,0.534H15.792v3.207h31v-3.207H32.797z M30.758,11.188
				c0-0.295,0.239-0.535,0.534-0.535s0.534,0.24,0.534,0.535s-0.239,0.534-0.534,0.534S30.758,11.483,30.758,11.188z M45.723,13.861
				H16.861v-1.069h28.861V13.861z"/>
			<path id="XMLID_5302_" fill="#51564D" d="M15.792,34.171h10.794l-4.834,7.734l0.906,0.566l5.188-8.301h2.911v8.018h1.068v-8.018
				h2.911l5.188,8.301l0.906-0.567l-4.833-7.733h10.794v-3.207h-31V34.171z M16.861,32.033h28.861v1.069H16.861V32.033z"/>
			<path id="XMLID_5282_" fill="#51564D" d="M20.068,28.292v1.603h3.206v-1.603c0-0.558-0.287-1.049-0.72-1.336
				c0.433-0.288,0.72-0.778,0.72-1.336c0-0.696-0.448-1.284-1.068-1.505v-0.633h5.345v0.633c-0.621,0.221-1.069,0.809-1.069,1.505
				c0,0.558,0.287,1.048,0.721,1.336c-0.434,0.288-0.721,0.778-0.721,1.336v1.603h3.207v-1.603c0-0.558-0.287-1.049-0.721-1.336
				c0.434-0.288,0.721-0.778,0.721-1.336c0-0.696-0.448-1.284-1.069-1.505v-0.633h5.346v0.633c-0.621,0.221-1.069,0.809-1.069,1.505
				c0,0.558,0.287,1.048,0.721,1.336c-0.434,0.288-0.721,0.778-0.721,1.336v1.603h3.207v-1.603c0-0.558-0.287-1.049-0.721-1.336
				c0.434-0.288,0.721-0.778,0.721-1.336c0-0.696-0.448-1.284-1.069-1.505v-0.633h5.345v0.633c-0.62,0.221-1.069,0.809-1.069,1.505
				c0,0.558,0.288,1.048,0.721,1.336c-0.433,0.288-0.721,0.778-0.721,1.336v1.603h3.207v-1.603c0-0.558-0.286-1.049-0.72-1.336
				c0.434-0.288,0.72-0.778,0.72-1.336c0-0.696-0.448-1.284-1.068-1.505v-1.702h-9.621v-1.069h1.069V19.74
				c0-0.558-0.287-1.049-0.721-1.336c0.434-0.288,0.721-0.778,0.721-1.336c0-0.884-0.72-1.604-1.604-1.604s-1.604,0.719-1.604,1.604
				c0,0.558,0.287,1.048,0.721,1.336c-0.434,0.288-0.721,0.778-0.721,1.336v1.604h1.069v1.069h-9.621v1.702
				c-0.62,0.221-1.068,0.809-1.068,1.505c0,0.558,0.286,1.048,0.72,1.336C20.354,27.243,20.068,27.734,20.068,28.292z
				 M28.085,25.085c0.295,0,0.534,0.239,0.534,0.535c0,0.295-0.239,0.534-0.534,0.534s-0.534-0.239-0.534-0.534
				C27.551,25.324,27.79,25.085,28.085,25.085z M28.619,28.826h-1.068v-0.534c0-0.295,0.239-0.535,0.534-0.535
				s0.534,0.24,0.534,0.535V28.826z M34.499,25.085c0.295,0,0.534,0.239,0.534,0.535c0,0.295-0.239,0.534-0.534,0.534
				s-0.534-0.239-0.534-0.534C33.965,25.324,34.204,25.085,34.499,25.085z M35.033,28.826h-1.068v-0.534
				c0-0.295,0.239-0.535,0.534-0.535s0.534,0.24,0.534,0.535V28.826z M40.913,25.085c0.294,0,0.534,0.239,0.534,0.535
				c0,0.295-0.24,0.534-0.534,0.534c-0.296,0-0.535-0.239-0.535-0.534C40.378,25.324,40.617,25.085,40.913,25.085z M41.447,28.826
				h-1.069v-0.534c0-0.295,0.239-0.535,0.535-0.535c0.294,0,0.534,0.24,0.534,0.535V28.826z M31.826,20.274h-1.068V19.74
				c0-0.295,0.239-0.535,0.534-0.535s0.534,0.239,0.534,0.535V20.274z M31.292,16.533c0.295,0,0.534,0.239,0.534,0.535
				c0,0.295-0.239,0.534-0.534,0.534s-0.534-0.239-0.534-0.534C30.758,16.772,30.997,16.533,31.292,16.533z M22.206,28.826h-1.069
				v-0.534c0-0.295,0.239-0.535,0.534-0.535c0.296,0,0.535,0.24,0.535,0.535V28.826z M21.671,25.085
				c0.296,0,0.535,0.239,0.535,0.535c0,0.295-0.239,0.534-0.535,0.534c-0.295,0-0.534-0.239-0.534-0.534
				C21.137,25.324,21.376,25.085,21.671,25.085z"/>
		</g>
	</g>
</g>
</svg>
