<?xml version="1.0" encoding="utf-8"?>
<!-- Generator: Adobe Illustrator 16.0.0, SVG Export Plug-In . SVG Version: 6.00 Build 0)  -->
<!DOCTYPE svg PUBLIC "-//W3C//DTD SVG 1.1//EN" "http://www.w3.org/Graphics/SVG/1.1/DTD/svg11.dtd">
<svg version="1.1" id="Layer_1" xmlns="http://www.w3.org/2000/svg" xmlns:xlink="http://www.w3.org/1999/xlink" x="0px" y="0px"
	 width="246.026px" height="69.139px" viewBox="0 0 246.026 69.139" enable-background="new 0 0 246.026 69.139"
	 xml:space="preserve">
<g id="XMLID_5341_">
	<g id="XMLID_5384_">
		<g>
			<polygon id="XMLID_10_" fill-rule="evenodd" clip-rule="evenodd" fill="#2C2E21" points="232,69.139 246.026,51.353 
				235.602,7.184 232,7.187 			"/>
		</g>
	</g>
	<rect id="XMLID_5381_" fill-rule="evenodd" clip-rule="evenodd" fill="#EFEFEF" width="246.026" height="51.353"/>
	<polygon id="XMLID_5378_" opacity="0.25" fill="#303030" points="232,58.523 0,51.353 232,51.353 	"/>
	
		<rect id="XMLID_5376_" x="2.615" y="2.51" fill-rule="evenodd" clip-rule="evenodd" fill="#FFFFFF" width="240.823" height="46.333"/>
	<g>
		<g>
			<path fill="#51564D" d="M66.027,27.646v-2.05h5.296v4.848c-0.515,0.498-1.26,0.937-2.237,1.315
				c-0.977,0.379-1.966,0.568-2.968,0.568c-1.273,0-2.382-0.267-3.329-0.801s-1.657-1.298-2.133-2.291s-0.714-2.073-0.714-3.241
				c0-1.268,0.266-2.394,0.797-3.378c0.531-0.985,1.309-1.741,2.333-2.267c0.78-0.404,1.751-0.606,2.914-0.606
				c1.511,0,2.691,0.317,3.54,0.951c0.85,0.634,1.396,1.509,1.64,2.627l-2.44,0.457c-0.171-0.598-0.494-1.07-0.967-1.416
				c-0.474-0.346-1.064-0.519-1.772-0.519c-1.074,0-1.927,0.341-2.561,1.021c-0.634,0.682-0.951,1.691-0.951,3.03
				c0,1.444,0.321,2.527,0.963,3.25c0.642,0.722,1.483,1.083,2.523,1.083c0.515,0,1.031-0.101,1.548-0.303
				c0.517-0.202,0.961-0.447,1.332-0.734v-1.545H66.027z"/>
			<path fill="#51564D" d="M78.677,29.315l2.324,0.39c-0.299,0.853-0.771,1.502-1.415,1.947c-0.645,0.445-1.452,0.668-2.42,0.668
				c-1.533,0-2.667-0.501-3.403-1.502c-0.581-0.803-0.872-1.815-0.872-3.039c0-1.461,0.382-2.604,1.146-3.432
				s1.729-1.241,2.897-1.241c1.312,0,2.346,0.433,3.104,1.299s1.121,2.193,1.087,3.98h-5.844c0.017,0.691,0.205,1.229,0.564,1.614
				s0.808,0.577,1.345,0.577c0.365,0,0.672-0.1,0.921-0.299S78.55,29.758,78.677,29.315z M78.81,26.958
				c-0.017-0.675-0.191-1.188-0.523-1.54s-0.736-0.527-1.212-0.527c-0.509,0-0.93,0.186-1.262,0.557s-0.495,0.874-0.49,1.511H78.81z
				"/>
			<path fill="#51564D" d="M91.045,32.121h-2.333v-4.499c0-0.952-0.05-1.567-0.149-1.847s-0.262-0.497-0.485-0.652
				c-0.225-0.154-0.494-0.232-0.81-0.232c-0.404,0-0.767,0.111-1.087,0.332c-0.321,0.222-0.541,0.516-0.66,0.881
				c-0.119,0.365-0.179,1.04-0.179,2.025v3.992H83.01v-8.815h2.167v1.295c0.769-0.996,1.738-1.494,2.905-1.494
				c0.515,0,0.985,0.093,1.411,0.278s0.749,0.422,0.967,0.709c0.219,0.288,0.371,0.615,0.457,0.98
				c0.085,0.365,0.128,0.888,0.128,1.568V32.121z"/>
			<path fill="#51564D" d="M98.516,29.315l2.324,0.39c-0.299,0.853-0.771,1.502-1.415,1.947c-0.645,0.445-1.452,0.668-2.42,0.668
				c-1.533,0-2.667-0.501-3.403-1.502c-0.581-0.803-0.872-1.815-0.872-3.039c0-1.461,0.382-2.604,1.146-3.432
				s1.729-1.241,2.897-1.241c1.312,0,2.346,0.433,3.104,1.299s1.121,2.193,1.087,3.98h-5.844c0.017,0.691,0.205,1.229,0.564,1.614
				s0.808,0.577,1.345,0.577c0.365,0,0.672-0.1,0.921-0.299S98.389,29.758,98.516,29.315z M98.649,26.958
				c-0.017-0.675-0.191-1.188-0.523-1.54s-0.736-0.527-1.212-0.527c-0.509,0-0.93,0.186-1.262,0.557s-0.495,0.874-0.49,1.511H98.649
				z"/>
			<path fill="#51564D" d="M105.099,32.121h-2.333v-8.815h2.167v1.253c0.371-0.592,0.704-0.981,1-1.17
				c0.296-0.188,0.632-0.282,1.009-0.282c0.531,0,1.043,0.146,1.536,0.44l-0.722,2.033c-0.393-0.255-0.758-0.382-1.096-0.382
				c-0.327,0-0.603,0.09-0.83,0.27s-0.405,0.505-0.535,0.976c-0.13,0.471-0.195,1.455-0.195,2.955V32.121z"/>
			<path fill="#51564D" d="M111.225,25.995l-2.117-0.382c0.238-0.853,0.647-1.483,1.229-1.893s1.444-0.614,2.59-0.614
				c1.041,0,1.815,0.123,2.324,0.369s0.867,0.56,1.075,0.938c0.207,0.379,0.311,1.074,0.311,2.088l-0.025,2.723
				c0,0.774,0.037,1.346,0.112,1.714c0.074,0.368,0.214,0.762,0.419,1.183h-2.308c-0.061-0.155-0.136-0.385-0.224-0.689
				c-0.039-0.138-0.066-0.229-0.083-0.273c-0.398,0.388-0.825,0.678-1.278,0.871c-0.454,0.194-0.938,0.291-1.453,0.291
				c-0.908,0-1.623-0.246-2.146-0.738c-0.523-0.493-0.785-1.115-0.785-1.868c0-0.498,0.119-0.942,0.357-1.332
				c0.238-0.391,0.571-0.689,1-0.896c0.429-0.208,1.047-0.389,1.855-0.544c1.09-0.205,1.846-0.396,2.266-0.572v-0.232
				c0-0.449-0.111-0.769-0.332-0.959c-0.221-0.191-0.639-0.287-1.253-0.287c-0.415,0-0.739,0.082-0.971,0.245
				S111.369,25.586,111.225,25.995z M114.346,27.888c-0.299,0.1-0.772,0.219-1.419,0.356c-0.647,0.139-1.071,0.274-1.27,0.407
				c-0.304,0.216-0.457,0.489-0.457,0.821c0,0.327,0.122,0.609,0.365,0.848c0.244,0.237,0.553,0.356,0.93,0.356
				c0.42,0,0.822-0.139,1.204-0.415c0.282-0.21,0.468-0.468,0.556-0.771c0.061-0.199,0.091-0.579,0.091-1.138V27.888z"/>
			<path fill="#51564D" d="M118.936,32.121V19.952h2.333v12.169H118.936z"/>
			<path fill="#51564D" d="M123.659,22.11v-2.158h2.333v2.158H123.659z M123.659,32.121v-8.815h2.333v8.815H123.659z"/>
			<path fill="#51564D" d="M136.467,32.121h-2.166v-1.295c-0.359,0.504-0.784,0.879-1.274,1.125
				c-0.489,0.246-0.983,0.369-1.481,0.369c-1.013,0-1.88-0.408-2.603-1.225c-0.722-0.816-1.083-1.955-1.083-3.416
				c0-1.494,0.352-2.63,1.055-3.407c0.702-0.777,1.59-1.166,2.664-1.166c0.984,0,1.838,0.409,2.557,1.229v-4.383h2.332V32.121z
				 M130.242,27.522c0,0.94,0.129,1.621,0.39,2.042c0.376,0.608,0.901,0.913,1.577,0.913c0.537,0,0.993-0.229,1.369-0.685
				c0.377-0.457,0.564-1.139,0.564-2.047c0-1.012-0.182-1.741-0.547-2.187s-0.834-0.669-1.403-0.669
				c-0.554,0-1.017,0.221-1.391,0.66C130.429,25.991,130.242,26.648,130.242,27.522z"/>
			<path fill="#51564D" d="M140.51,25.995l-2.117-0.382c0.238-0.853,0.648-1.483,1.229-1.893c0.582-0.409,1.445-0.614,2.59-0.614
				c1.041,0,1.815,0.123,2.324,0.369c0.51,0.246,0.867,0.56,1.076,0.938c0.207,0.379,0.311,1.074,0.311,2.088l-0.025,2.723
				c0,0.774,0.037,1.346,0.113,1.714c0.074,0.368,0.214,0.762,0.418,1.183h-2.307c-0.062-0.155-0.137-0.385-0.225-0.689
				c-0.039-0.138-0.066-0.229-0.083-0.273c-0.398,0.388-0.825,0.678-1.278,0.871c-0.453,0.194-0.938,0.291-1.453,0.291
				c-0.907,0-1.623-0.246-2.145-0.738c-0.523-0.493-0.785-1.115-0.785-1.868c0-0.498,0.119-0.942,0.357-1.332
				c0.237-0.391,0.57-0.689,1-0.896c0.429-0.208,1.047-0.389,1.855-0.544c1.09-0.205,1.846-0.396,2.266-0.572v-0.232
				c0-0.449-0.111-0.769-0.332-0.959c-0.221-0.191-0.639-0.287-1.254-0.287c-0.414,0-0.738,0.082-0.971,0.245
				S140.654,25.586,140.51,25.995z M143.631,27.888c-0.299,0.1-0.771,0.219-1.42,0.356c-0.646,0.139-1.07,0.274-1.27,0.407
				c-0.305,0.216-0.457,0.489-0.457,0.821c0,0.327,0.122,0.609,0.365,0.848c0.244,0.237,0.554,0.356,0.93,0.356
				c0.421,0,0.822-0.139,1.204-0.415c0.282-0.21,0.468-0.468,0.556-0.771c0.062-0.199,0.092-0.579,0.092-1.138V27.888z"/>
			<path fill="#51564D" d="M156.307,32.121h-2.167v-1.295c-0.36,0.504-0.784,0.879-1.274,1.125
				c-0.489,0.246-0.983,0.369-1.481,0.369c-1.013,0-1.88-0.408-2.603-1.225c-0.722-0.816-1.083-1.955-1.083-3.416
				c0-1.494,0.352-2.63,1.054-3.407c0.703-0.777,1.592-1.166,2.665-1.166c0.985,0,1.837,0.409,2.557,1.229v-4.383h2.333V32.121z
				 M150.08,27.522c0,0.94,0.131,1.621,0.391,2.042c0.377,0.608,0.902,0.913,1.577,0.913c0.536,0,0.993-0.229,1.37-0.685
				c0.376-0.457,0.564-1.139,0.564-2.047c0-1.012-0.184-1.741-0.549-2.187s-0.832-0.669-1.402-0.669
				c-0.553,0-1.017,0.221-1.391,0.66C150.268,25.991,150.08,26.648,150.08,27.522z"/>
			<path fill="#51564D" d="M163.711,29.315l2.324,0.39c-0.299,0.853-0.771,1.502-1.416,1.947s-1.451,0.668-2.42,0.668
				c-1.532,0-2.667-0.501-3.402-1.502c-0.582-0.803-0.872-1.815-0.872-3.039c0-1.461,0.382-2.604,1.146-3.432
				s1.729-1.241,2.896-1.241c1.312,0,2.347,0.433,3.105,1.299c0.758,0.866,1.12,2.193,1.087,3.98h-5.844
				c0.017,0.691,0.204,1.229,0.564,1.614s0.808,0.577,1.345,0.577c0.365,0,0.672-0.1,0.922-0.299
				C163.395,30.079,163.583,29.758,163.711,29.315z M163.844,26.958c-0.018-0.675-0.191-1.188-0.523-1.54s-0.736-0.527-1.212-0.527
				c-0.509,0-0.93,0.186-1.262,0.557s-0.495,0.874-0.489,1.511H163.844z"/>
			<path fill="#51564D" d="M167.238,29.605l2.341-0.356c0.1,0.454,0.302,0.798,0.606,1.033c0.304,0.235,0.73,0.353,1.277,0.353
				c0.604,0,1.058-0.11,1.361-0.332c0.205-0.154,0.308-0.362,0.308-0.622c0-0.177-0.056-0.323-0.166-0.44
				c-0.116-0.11-0.376-0.213-0.78-0.307c-1.881-0.415-3.074-0.794-3.578-1.137c-0.697-0.477-1.045-1.138-1.045-1.984
				c0-0.764,0.301-1.405,0.904-1.926s1.539-0.78,2.806-0.78c1.206,0,2.103,0.196,2.689,0.589c0.587,0.394,0.991,0.975,1.212,1.744
				l-2.199,0.406c-0.095-0.343-0.273-0.605-0.536-0.789c-0.263-0.182-0.638-0.273-1.124-0.273c-0.615,0-1.055,0.086-1.32,0.258
				c-0.178,0.121-0.266,0.279-0.266,0.473c0,0.166,0.078,0.307,0.232,0.424c0.211,0.154,0.937,0.373,2.179,0.655
				c1.243,0.282,2.11,0.628,2.603,1.038c0.486,0.414,0.73,0.993,0.73,1.734c0,0.808-0.338,1.502-1.013,2.084
				c-0.675,0.58-1.674,0.871-2.997,0.871c-1.2,0-2.15-0.243-2.851-0.73S167.454,30.441,167.238,29.605z"/>
		</g>
	</g>
</g>
<g id="XMLID_4407_">
	<path id="XMLID_5390_" fill="#51564D" d="M40.05,43.165l0.959-2.877H27.244c-1.162,0-2.108-0.947-2.108-2.109v-7.214h1.097v7.214
		c0,0.559,0.453,1.012,1.012,1.012h15.287l-0.503,1.51l2.515-1.51h1.517c0.559,0,1.012-0.453,1.012-1.012v-8.944
		c0-0.559-0.453-1.012-1.012-1.012H34.458v-1.097H46.06c1.162,0,2.108,0.946,2.108,2.109v8.946c0,1.16-0.946,2.107-2.108,2.107
		h-1.213L40.05,43.165z"/>
	<path id="XMLID_5389_" fill="#F78B36" d="M26.781,21.642h8.226v7.763c0,1.163-0.946,2.108-2.108,2.108h-0.634l1.097,2.742
		l-4.936-2.742H16.276c-1.162,0-2.108-0.946-2.108-2.108V20.46c0-1.163,0.946-2.108,2.108-2.108h9.408v2.193L26.781,21.642z"/>
	<path id="XMLID_5357_" fill="#51564D" d="M40.05,25.069l0.959-2.878H27.244c-1.162,0-2.108-0.946-2.108-2.109v-8.944
		c0-1.162,0.946-2.108,2.108-2.108H46.06c1.162,0,2.108,0.946,2.108,2.108v8.945c0,1.162-0.946,2.108-2.108,2.108h-1.213
		L40.05,25.069z M27.244,10.126c-0.559,0-1.012,0.454-1.012,1.012v8.945c0,0.558,0.453,1.011,1.012,1.011h15.287l-0.503,1.509
		l2.515-1.509h1.517c0.559,0,1.012-0.453,1.012-1.012v-8.944c0-0.558-0.453-1.012-1.012-1.012H27.244z"/>
	<rect id="XMLID_5355_" x="27.878" y="12.32" fill="#51564D" width="17.548" height="1.097"/>
	<rect id="XMLID_5345_" x="27.878" y="15.062" fill="#51564D" width="17.548" height="1.097"/>
	<rect id="XMLID_5319_" x="27.878" y="17.804" fill="#51564D" width="14.807" height="1.097"/>
	<rect id="XMLID_5256_" x="44.329" y="17.804" fill="#51564D" width="1.097" height="1.097"/>
	<rect id="XMLID_5173_" x="16.91" y="21.642" fill="#51564D" width="7.129" height="1.097"/>
	<rect id="XMLID_5152_" x="16.91" y="24.384" fill="#51564D" width="15.354" height="1.097"/>
	<rect id="XMLID_5043_" x="16.91" y="27.126" fill="#51564D" width="12.612" height="1.097"/>
	<rect id="XMLID_5023_" x="31.168" y="27.126" fill="#51564D" width="1.097" height="1.097"/>
	<rect id="XMLID_4422_" x="36.651" y="30.417" fill="#51564D" width="8.774" height="1.097"/>
	<rect id="XMLID_4420_" x="35.007" y="33.158" fill="#51564D" width="10.419" height="1.097"/>
	<rect id="XMLID_4416_" x="27.878" y="35.901" fill="#51564D" width="14.807" height="1.096"/>
	<rect id="XMLID_4413_" x="44.329" y="35.901" fill="#51564D" width="1.097" height="1.096"/>
</g>
</svg>
