<?xml version="1.0" encoding="utf-8"?>
<!-- Generator: Adobe Illustrator 16.0.0, SVG Export Plug-In . SVG Version: 6.00 Build 0)  -->
<!DOCTYPE svg PUBLIC "-//W3C//DTD SVG 1.1//EN" "http://www.w3.org/Graphics/SVG/1.1/DTD/svg11.dtd">
<svg version="1.1" id="Layer_1" xmlns="http://www.w3.org/2000/svg" xmlns:xlink="http://www.w3.org/1999/xlink" x="0px" y="0px"
	 width="246.026px" height="69.139px" viewBox="0 0 246.026 69.139" enable-background="new 0 0 246.026 69.139"
	 xml:space="preserve">
<g id="XMLID_5341_">
	<g id="XMLID_5384_">
		<g>
			<polygon id="XMLID_10_" fill-rule="evenodd" clip-rule="evenodd" fill="#2C2E21" points="232,69.139 246.026,51.353 
				235.602,7.184 232,7.187 			"/>
		</g>
	</g>
	<rect id="XMLID_5381_" fill-rule="evenodd" clip-rule="evenodd" fill="#EFEFEF" width="246.026" height="51.353"/>
	<polygon id="XMLID_5378_" opacity="0.25" fill="#303030" points="232,58.523 0,51.353 232,51.353 	"/>
	
		<rect id="XMLID_5376_" x="2.615" y="2.51" fill-rule="evenodd" clip-rule="evenodd" fill="#51564D" width="240.823" height="46.333"/>
	<g>
		<g>
			<path fill="#FFFFFF" d="M66.027,27.646v-2.05h5.296v4.848c-0.515,0.498-1.26,0.937-2.237,1.315
				c-0.977,0.379-1.966,0.568-2.968,0.568c-1.273,0-2.382-0.267-3.329-0.801s-1.657-1.298-2.133-2.291s-0.714-2.073-0.714-3.241
				c0-1.268,0.266-2.394,0.797-3.378c0.531-0.985,1.309-1.741,2.333-2.267c0.78-0.404,1.751-0.606,2.914-0.606
				c1.511,0,2.691,0.317,3.54,0.951c0.85,0.634,1.396,1.509,1.64,2.627l-2.44,0.457c-0.171-0.598-0.494-1.07-0.967-1.416
				c-0.474-0.346-1.064-0.519-1.772-0.519c-1.074,0-1.927,0.341-2.561,1.021c-0.634,0.682-0.951,1.691-0.951,3.03
				c0,1.444,0.321,2.527,0.963,3.25c0.642,0.722,1.483,1.083,2.523,1.083c0.515,0,1.031-0.101,1.548-0.303
				c0.517-0.202,0.961-0.447,1.332-0.734v-1.545H66.027z"/>
			<path fill="#FFFFFF" d="M78.677,29.315l2.324,0.39c-0.299,0.853-0.771,1.502-1.415,1.947c-0.645,0.445-1.452,0.668-2.42,0.668
				c-1.533,0-2.667-0.501-3.403-1.502c-0.581-0.803-0.872-1.815-0.872-3.039c0-1.461,0.382-2.604,1.146-3.432
				s1.729-1.241,2.897-1.241c1.312,0,2.346,0.433,3.104,1.299s1.121,2.193,1.087,3.98h-5.844c0.017,0.691,0.205,1.229,0.564,1.614
				s0.808,0.577,1.345,0.577c0.365,0,0.672-0.1,0.921-0.299S78.55,29.758,78.677,29.315z M78.81,26.958
				c-0.017-0.675-0.191-1.188-0.523-1.54s-0.736-0.527-1.212-0.527c-0.509,0-0.93,0.186-1.262,0.557s-0.495,0.874-0.49,1.511H78.81z
				"/>
			<path fill="#FFFFFF" d="M82.205,29.605l2.341-0.356c0.1,0.454,0.302,0.798,0.606,1.033s0.73,0.353,1.278,0.353
				c0.603,0,1.057-0.11,1.361-0.332c0.205-0.154,0.307-0.362,0.307-0.622c0-0.177-0.055-0.323-0.166-0.44
				c-0.116-0.11-0.376-0.213-0.78-0.307c-1.881-0.415-3.074-0.794-3.578-1.137c-0.697-0.477-1.046-1.138-1.046-1.984
				c0-0.764,0.302-1.405,0.905-1.926s1.539-0.78,2.806-0.78c1.207,0,2.103,0.196,2.689,0.589c0.586,0.394,0.991,0.975,1.212,1.744
				l-2.2,0.406c-0.094-0.343-0.272-0.605-0.536-0.789c-0.263-0.182-0.638-0.273-1.125-0.273c-0.614,0-1.054,0.086-1.32,0.258
				c-0.177,0.121-0.266,0.279-0.266,0.473c0,0.166,0.078,0.307,0.232,0.424c0.21,0.154,0.937,0.373,2.179,0.655
				c1.243,0.282,2.11,0.628,2.603,1.038c0.487,0.414,0.73,0.993,0.73,1.734c0,0.808-0.337,1.502-1.013,2.084
				c-0.675,0.58-1.674,0.871-2.997,0.871c-1.201,0-2.151-0.243-2.851-0.73C82.879,31.103,82.421,30.441,82.205,29.605z"/>
			<path fill="#FFFFFF" d="M96.524,23.306v1.859H94.93v3.553c0,0.72,0.015,1.139,0.046,1.258c0.03,0.119,0.1,0.217,0.207,0.294
				c0.108,0.078,0.24,0.117,0.395,0.117c0.216,0,0.528-0.075,0.938-0.225l0.199,1.81c-0.542,0.232-1.157,0.349-1.843,0.349
				c-0.42,0-0.8-0.07-1.137-0.212c-0.337-0.141-0.585-0.323-0.743-0.548c-0.157-0.224-0.267-0.527-0.328-0.908
				c-0.05-0.271-0.075-0.819-0.075-1.645v-3.843h-1.071v-1.859h1.071v-1.751l2.341-1.361v3.112H96.524z"/>
			<path fill="#FFFFFF" d="M98.143,22.11v-2.158h2.333v2.158H98.143z M98.143,32.121v-8.815h2.333v8.815H98.143z"/>
			<path fill="#FFFFFF" d="M102.326,27.589c0-0.774,0.191-1.524,0.573-2.249c0.382-0.726,0.923-1.279,1.623-1.66
				c0.7-0.383,1.482-0.573,2.345-0.573c1.333,0,2.427,0.433,3.279,1.299s1.278,1.961,1.278,3.283c0,1.334-0.43,2.439-1.291,3.316
				c-0.86,0.877-1.943,1.315-3.25,1.315c-0.808,0-1.579-0.183-2.312-0.548c-0.733-0.365-1.291-0.9-1.672-1.606
				C102.517,29.461,102.326,28.602,102.326,27.589z M104.717,27.713c0,0.875,0.208,1.545,0.623,2.01s0.927,0.697,1.536,0.697
				s1.119-0.232,1.531-0.697c0.413-0.465,0.619-1.141,0.619-2.025c0-0.863-0.206-1.527-0.619-1.992
				c-0.412-0.465-0.922-0.697-1.531-0.697s-1.121,0.232-1.536,0.697S104.717,26.839,104.717,27.713z M105.696,22.227l1.146-2.482
				h2.615l-2.283,2.482H105.696z"/>
			<path fill="#FFFFFF" d="M121.269,32.121h-2.333v-4.499c0-0.952-0.05-1.567-0.149-1.847s-0.262-0.497-0.485-0.652
				c-0.225-0.154-0.494-0.232-0.81-0.232c-0.404,0-0.767,0.111-1.087,0.332c-0.321,0.222-0.541,0.516-0.66,0.881
				c-0.119,0.365-0.179,1.04-0.179,2.025v3.992h-2.333v-8.815h2.167v1.295c0.769-0.996,1.738-1.494,2.905-1.494
				c0.515,0,0.985,0.093,1.411,0.278s0.749,0.422,0.967,0.709c0.219,0.288,0.371,0.615,0.457,0.98
				c0.085,0.365,0.128,0.888,0.128,1.568V32.121z"/>
			<path fill="#FFFFFF" d="M136.442,32.121h-2.167v-1.295c-0.359,0.504-0.783,0.879-1.273,1.125s-0.984,0.369-1.482,0.369
				c-1.012,0-1.879-0.408-2.602-1.225s-1.084-1.955-1.084-3.416c0-1.494,0.352-2.63,1.055-3.407s1.591-1.166,2.664-1.166
				c0.985,0,1.838,0.409,2.557,1.229v-4.383h2.333V32.121z M130.217,27.522c0,0.94,0.13,1.621,0.391,2.042
				c0.376,0.608,0.901,0.913,1.576,0.913c0.537,0,0.994-0.229,1.37-0.685c0.376-0.457,0.564-1.139,0.564-2.047
				c0-1.012-0.183-1.741-0.548-2.187s-0.833-0.669-1.402-0.669c-0.554,0-1.018,0.221-1.391,0.66
				C130.404,25.991,130.217,26.648,130.217,27.522z"/>
			<path fill="#FFFFFF" d="M143.847,29.315l2.324,0.39c-0.299,0.853-0.771,1.502-1.415,1.947s-1.451,0.668-2.42,0.668
				c-1.533,0-2.668-0.501-3.403-1.502c-0.581-0.803-0.872-1.815-0.872-3.039c0-1.461,0.383-2.604,1.146-3.432
				s1.729-1.241,2.896-1.241c1.312,0,2.346,0.433,3.104,1.299s1.12,2.193,1.087,3.98h-5.844c0.018,0.691,0.205,1.229,0.564,1.614
				c0.36,0.385,0.809,0.577,1.346,0.577c0.365,0,0.672-0.1,0.921-0.299S143.719,29.758,143.847,29.315z M143.979,26.958
				c-0.017-0.675-0.19-1.188-0.522-1.54s-0.736-0.527-1.213-0.527c-0.509,0-0.93,0.186-1.262,0.557s-0.494,0.874-0.489,1.511
				H143.979z"/>
			<path fill="#FFFFFF" d="M152.92,32.121V19.952h2.332v12.169H152.92z"/>
			<path fill="#FFFFFF" d="M159.386,25.995l-2.116-0.382c0.237-0.853,0.646-1.483,1.229-1.893c0.58-0.409,1.443-0.614,2.59-0.614
				c1.04,0,1.814,0.123,2.324,0.369c0.509,0.246,0.867,0.56,1.074,0.938s0.312,1.074,0.312,2.088l-0.024,2.723
				c0,0.774,0.037,1.346,0.111,1.714s0.215,0.762,0.42,1.183h-2.309c-0.061-0.155-0.135-0.385-0.224-0.689
				c-0.038-0.138-0.066-0.229-0.083-0.273c-0.398,0.388-0.824,0.678-1.278,0.871c-0.454,0.194-0.938,0.291-1.452,0.291
				c-0.908,0-1.623-0.246-2.146-0.738c-0.523-0.493-0.784-1.115-0.784-1.868c0-0.498,0.119-0.942,0.356-1.332
				c0.238-0.391,0.572-0.689,1-0.896c0.43-0.208,1.048-0.389,1.855-0.544c1.091-0.205,1.846-0.396,2.267-0.572v-0.232
				c0-0.449-0.11-0.769-0.332-0.959c-0.222-0.191-0.64-0.287-1.253-0.287c-0.416,0-0.739,0.082-0.972,0.245
				S159.529,25.586,159.386,25.995z M162.507,27.888c-0.299,0.1-0.772,0.219-1.419,0.356c-0.648,0.139-1.071,0.274-1.271,0.407
				c-0.304,0.216-0.456,0.489-0.456,0.821c0,0.327,0.121,0.609,0.365,0.848c0.243,0.237,0.553,0.356,0.93,0.356
				c0.42,0,0.821-0.139,1.203-0.415c0.282-0.21,0.468-0.468,0.557-0.771c0.061-0.199,0.091-0.579,0.091-1.138V27.888z"/>
			<path fill="#FFFFFF" d="M179.507,25.912l-2.3,0.415c-0.077-0.459-0.252-0.806-0.527-1.038c-0.273-0.232-0.629-0.348-1.066-0.348
				c-0.58,0-1.044,0.2-1.391,0.602c-0.346,0.401-0.518,1.072-0.518,2.013c0,1.046,0.176,1.784,0.527,2.216
				c0.351,0.432,0.822,0.648,1.414,0.648c0.443,0,0.806-0.126,1.088-0.378s0.481-0.685,0.598-1.3l2.291,0.391
				c-0.238,1.052-0.694,1.846-1.369,2.383c-0.676,0.536-1.58,0.805-2.715,0.805c-1.289,0-2.317-0.406-3.084-1.221
				c-0.766-0.812-1.149-1.939-1.149-3.378c0-1.455,0.385-2.589,1.153-3.399c0.77-0.811,1.811-1.216,3.121-1.216
				c1.074,0,1.928,0.231,2.561,0.693C178.775,24.262,179.23,24.966,179.507,25.912z"/>
			<path fill="#FFFFFF" d="M183.018,25.995l-2.116-0.382c0.237-0.853,0.647-1.483,1.229-1.893s1.444-0.614,2.59-0.614
				c1.04,0,1.815,0.123,2.324,0.369s0.867,0.56,1.075,0.938c0.207,0.379,0.311,1.074,0.311,2.088l-0.024,2.723
				c0,0.774,0.037,1.346,0.112,1.714c0.074,0.368,0.215,0.762,0.419,1.183h-2.308c-0.061-0.155-0.136-0.385-0.225-0.689
				c-0.038-0.138-0.066-0.229-0.082-0.273c-0.398,0.388-0.825,0.678-1.279,0.871c-0.453,0.194-0.938,0.291-1.452,0.291
				c-0.907,0-1.623-0.246-2.146-0.738c-0.523-0.493-0.785-1.115-0.785-1.868c0-0.498,0.119-0.942,0.357-1.332
				c0.238-0.391,0.571-0.689,1-0.896c0.43-0.208,1.047-0.389,1.855-0.544c1.09-0.205,1.846-0.396,2.266-0.572v-0.232
				c0-0.449-0.11-0.769-0.332-0.959c-0.221-0.191-0.639-0.287-1.253-0.287c-0.415,0-0.739,0.082-0.972,0.245
				S183.162,25.586,183.018,25.995z M186.139,27.888c-0.299,0.1-0.771,0.219-1.419,0.356c-0.647,0.139-1.071,0.274-1.271,0.407
				c-0.304,0.216-0.456,0.489-0.456,0.821c0,0.327,0.122,0.609,0.365,0.848c0.243,0.237,0.554,0.356,0.93,0.356
				c0.421,0,0.821-0.139,1.204-0.415c0.281-0.21,0.467-0.468,0.556-0.771c0.062-0.199,0.091-0.579,0.091-1.138V27.888z"/>
			<path fill="#FFFFFF" d="M190.729,32.121V19.952h2.333v12.169H190.729z"/>
			<path fill="#FFFFFF" d="M195.453,22.11v-2.158h2.332v2.158H195.453z M195.453,32.121v-8.815h2.332v8.815H195.453z"/>
			<path fill="#FFFFFF" d="M208.261,32.121h-2.167v-1.295c-0.359,0.504-0.783,0.879-1.273,1.125s-0.984,0.369-1.482,0.369
				c-1.012,0-1.879-0.408-2.602-1.225s-1.084-1.955-1.084-3.416c0-1.494,0.352-2.63,1.055-3.407s1.591-1.166,2.664-1.166
				c0.985,0,1.838,0.409,2.557,1.229v-4.383h2.333V32.121z M202.035,27.522c0,0.94,0.13,1.621,0.391,2.042
				c0.376,0.608,0.901,0.913,1.576,0.913c0.537,0,0.994-0.229,1.37-0.685c0.376-0.457,0.564-1.139,0.564-2.047
				c0-1.012-0.183-1.741-0.548-2.187s-0.833-0.669-1.402-0.669c-0.554,0-1.018,0.221-1.391,0.66
				C202.223,25.991,202.035,26.648,202.035,27.522z"/>
			<path fill="#FFFFFF" d="M212.303,25.995l-2.116-0.382c0.237-0.853,0.647-1.483,1.229-1.893s1.444-0.614,2.59-0.614
				c1.04,0,1.815,0.123,2.324,0.369s0.867,0.56,1.075,0.938c0.207,0.379,0.311,1.074,0.311,2.088l-0.024,2.723
				c0,0.774,0.037,1.346,0.112,1.714c0.074,0.368,0.215,0.762,0.419,1.183h-2.308c-0.061-0.155-0.136-0.385-0.225-0.689
				c-0.038-0.138-0.066-0.229-0.082-0.273c-0.398,0.388-0.825,0.678-1.279,0.871c-0.453,0.194-0.938,0.291-1.452,0.291
				c-0.907,0-1.623-0.246-2.146-0.738c-0.523-0.493-0.785-1.115-0.785-1.868c0-0.498,0.119-0.942,0.357-1.332
				c0.238-0.391,0.571-0.689,1-0.896c0.43-0.208,1.047-0.389,1.855-0.544c1.09-0.205,1.846-0.396,2.266-0.572v-0.232
				c0-0.449-0.11-0.769-0.332-0.959c-0.221-0.191-0.639-0.287-1.253-0.287c-0.415,0-0.739,0.082-0.972,0.245
				S212.447,25.586,212.303,25.995z M215.424,27.888c-0.299,0.1-0.771,0.219-1.419,0.356c-0.647,0.139-1.071,0.274-1.271,0.407
				c-0.304,0.216-0.456,0.489-0.456,0.821c0,0.327,0.122,0.609,0.365,0.848c0.243,0.237,0.554,0.356,0.93,0.356
				c0.421,0,0.821-0.139,1.204-0.415c0.281-0.21,0.467-0.468,0.556-0.771c0.062-0.199,0.091-0.579,0.091-1.138V27.888z"/>
			<path fill="#FFFFFF" d="M228.1,32.121h-2.166v-1.295c-0.36,0.504-0.785,0.879-1.275,1.125c-0.488,0.246-0.982,0.369-1.48,0.369
				c-1.014,0-1.881-0.408-2.604-1.225c-0.721-0.816-1.082-1.955-1.082-3.416c0-1.494,0.352-2.63,1.054-3.407
				s1.591-1.166,2.665-1.166c0.984,0,1.837,0.409,2.557,1.229v-4.383h2.332V32.121z M221.874,27.522c0,0.94,0.13,1.621,0.39,2.042
				c0.377,0.608,0.902,0.913,1.578,0.913c0.536,0,0.992-0.229,1.369-0.685c0.377-0.457,0.564-1.139,0.564-2.047
				c0-1.012-0.183-1.741-0.548-2.187s-0.833-0.669-1.403-0.669c-0.553,0-1.016,0.221-1.391,0.66
				C222.061,25.991,221.874,26.648,221.874,27.522z"/>
		</g>
	</g>
</g>
<g id="XMLID_6556_">
	<path id="XMLID_6669_" fill="#F78B36" d="M32.776,31.438h-4.295V28.92c-0.204-0.077-0.408-0.163-0.611-0.256l-1.781,1.782
		l-5.207-5.207l1.781-1.781c-0.093-0.203-0.178-0.408-0.256-0.611H19.89v-7.363h2.517c0.078-0.204,0.163-0.408,0.256-0.611
		l-1.781-1.781l5.207-5.207l1.781,1.781c0.203-0.093,0.408-0.178,0.611-0.256V6.892h4.295v7.364h-0.613
		c-2.707,0-4.909,2.202-4.909,4.909c0,2.706,2.202,4.908,4.909,4.908h0.613V31.438z"/>
	<g id="XMLID_6557_">
		<path id="XMLID_6660_" fill="#FFFFFF" d="M46.89,18.551c0-1.229-0.532-2.397-1.444-3.208c0.145-0.45,0.217-0.917,0.217-1.395
			c0-2.494-1.995-4.531-4.474-4.6c-0.95-1.524-2.612-2.457-4.424-2.457c-1.135,0-2.217,0.363-3.131,1.051l0.738,0.98
			c0.698-0.526,1.526-0.804,2.393-0.804c1.485,0,2.838,0.819,3.532,2.138l0.183,0.35l0.467-0.027
			c0.037-0.002,0.075-0.006,0.113-0.006c1.861,0,3.375,1.515,3.375,3.375c0,0.238-0.025,0.472-0.074,0.7
			c-0.551-0.25-1.146-0.393-1.767-0.393c-2.368,0-4.295,1.927-4.295,4.295h1.227c0-1.691,1.376-3.067,3.068-3.067
			c0.657,0,1.277,0.207,1.803,0.592c0.792,0.578,1.265,1.499,1.265,2.476c0,0.797-0.305,1.552-0.86,2.127l-0.283,0.294l0.16,0.374
			c0.246,0.572,0.37,1.181,0.37,1.808c0,1.756-0.992,3.301-2.499,4.074c0.029-0.231,0.044-0.465,0.044-0.699
			c0-3.045-2.477-5.522-5.523-5.522v1.228c2.368,0,4.296,1.927,4.296,4.295c0,0.509-0.096,1.01-0.269,1.483
			c-0.621,1.682-2.238,2.812-4.027,2.812c-0.985,0-1.913-0.326-2.684-0.945l-0.769,0.958c0.99,0.795,2.185,1.215,3.452,1.215
			c2.017,0,3.853-1.124,4.816-2.856l0.017,0.009c0.074-0.133,0.132-0.273,0.195-0.412c0.01-0.021,0.023-0.04,0.032-0.062
			c2.456-0.737,4.145-2.986,4.145-5.576c0-0.662-0.11-1.307-0.326-1.924C46.56,20.47,46.89,19.534,46.89,18.551z"/>
		<path id="XMLID_6633_" fill="#FFFFFF" d="M40.14,36.653c0-1.184-0.963-2.147-2.147-2.147H27.561c-1.184,0-2.147,0.963-2.147,2.147
			c0,0.77,0.41,1.441,1.02,1.82c-0.253,0.354-0.407,0.781-0.407,1.248c0,0.77,0.411,1.441,1.021,1.82
			c-0.253,0.354-0.407,0.781-0.407,1.248c0,1.184,0.963,2.148,2.148,2.148h7.977c1.184,0,2.147-0.965,2.147-2.148
			c0-0.467-0.153-0.895-0.407-1.248c0.61-0.379,1.021-1.051,1.021-1.82c0-0.467-0.153-0.895-0.407-1.248
			C39.729,38.095,40.14,37.423,40.14,36.653z M27.561,35.733h10.432c0.507,0,0.92,0.412,0.92,0.92s-0.413,0.92-0.92,0.92h-0.614
			h-9.205h-0.614c-0.507,0-0.92-0.412-0.92-0.92S27.053,35.733,27.561,35.733z M37.379,40.642h-0.614h-7.977h-0.614
			c-0.508,0-0.92-0.412-0.92-0.92s0.413-0.92,0.92-0.92h9.205c0.507,0,0.92,0.412,0.92,0.92S37.886,40.642,37.379,40.642z
			 M36.765,43.71h-7.977c-0.508,0-0.92-0.412-0.92-0.92s0.413-0.92,0.92-0.92h7.977c0.507,0,0.92,0.412,0.92,0.92
			S37.272,43.71,36.765,43.71z"/>
	</g>
</g>
</svg>
