<?xml version="1.0" encoding="utf-8"?>
<!-- Generator: Adobe Illustrator 16.0.0, SVG Export Plug-In . SVG Version: 6.00 Build 0)  -->
<!DOCTYPE svg PUBLIC "-//W3C//DTD SVG 1.1//EN" "http://www.w3.org/Graphics/SVG/1.1/DTD/svg11.dtd">
<svg version="1.1" id="Layer_1" xmlns="http://www.w3.org/2000/svg" xmlns:xlink="http://www.w3.org/1999/xlink" x="0px" y="0px"
	 width="199.555px" height="38.134px" viewBox="0 0 199.555 38.134" enable-background="new 0 0 199.555 38.134"
	 xml:space="preserve">
<rect id="XMLID_6369_" fill="#F76881" width="199.555" height="38.134"/>
<rect id="XMLID_5052_" x="34.809" fill="#CE5B74" width="156.02" height="38.134"/>
<g>
	<path fill="#F7EBCB" d="M55.486,15.217V5.721h1.917v9.496H55.486z"/>
	<path fill="#F7EBCB" d="M65.525,15.217h-1.69v-1.01c-0.28,0.393-0.612,0.686-0.994,0.877s-0.768,0.288-1.156,0.288
		c-0.79,0-1.467-0.318-2.03-0.955c-0.563-0.637-0.846-1.525-0.846-2.666c0-1.166,0.274-2.052,0.823-2.659
		c0.548-0.606,1.241-0.91,2.079-0.91c0.769,0,1.434,0.319,1.995,0.958v-3.42h1.819V15.217z M60.668,11.628
		c0,0.734,0.102,1.265,0.304,1.593c0.294,0.475,0.704,0.712,1.231,0.712c0.419,0,0.774-0.178,1.068-0.534s0.44-0.888,0.44-1.597
		c0-0.79-0.143-1.359-0.428-1.707C63,9.749,62.635,9.575,62.189,9.575c-0.432,0-0.793,0.171-1.085,0.515
		C60.813,10.433,60.668,10.946,60.668,11.628z"/>
	<path fill="#F7EBCB" d="M71.304,13.027l1.813,0.305c-0.232,0.665-0.601,1.171-1.104,1.519c-0.503,0.348-1.132,0.521-1.888,0.521
		c-1.196,0-2.081-0.391-2.655-1.172c-0.454-0.626-0.681-1.416-0.681-2.371c0-1.14,0.298-2.033,0.894-2.678
		c0.597-0.646,1.35-0.968,2.261-0.968c1.023,0,1.831,0.338,2.423,1.014s0.874,1.711,0.849,3.106h-4.561
		c0.014,0.54,0.16,0.959,0.44,1.26c0.281,0.3,0.631,0.45,1.05,0.45c0.285,0,0.524-0.078,0.719-0.233S71.204,13.373,71.304,13.027z
		 M71.407,11.188c-0.013-0.527-0.148-0.927-0.408-1.202c-0.259-0.274-0.574-0.411-0.945-0.411c-0.397,0-0.726,0.145-0.984,0.434
		c-0.259,0.289-0.387,0.682-0.382,1.179H71.407z"/>
	<path fill="#F7EBCB" d="M80.955,15.217h-1.82v-3.511c0-0.743-0.038-1.223-0.116-1.441c-0.078-0.218-0.204-0.388-0.379-0.509
		c-0.175-0.121-0.386-0.181-0.632-0.181c-0.314,0-0.598,0.086-0.849,0.259c-0.25,0.173-0.422,0.402-0.515,0.687
		c-0.093,0.285-0.139,0.812-0.139,1.58v3.116h-1.82V8.338h1.69v1.01c0.6-0.777,1.355-1.166,2.267-1.166
		c0.402,0,0.769,0.072,1.102,0.217c0.332,0.145,0.584,0.33,0.755,0.554c0.17,0.225,0.289,0.479,0.355,0.765
		c0.067,0.285,0.101,0.693,0.101,1.224V15.217z"/>
	<path fill="#F7EBCB" d="M85.956,8.338v1.451h-1.243v2.772c0,0.562,0.012,0.889,0.035,0.981s0.078,0.169,0.162,0.23
		s0.187,0.091,0.308,0.091c0.168,0,0.412-0.059,0.732-0.175l0.155,1.412c-0.424,0.182-0.903,0.272-1.438,0.272
		c-0.328,0-0.624-0.055-0.887-0.165c-0.264-0.11-0.457-0.252-0.58-0.427c-0.123-0.175-0.208-0.412-0.256-0.709
		c-0.039-0.211-0.059-0.639-0.059-1.283V9.789h-0.835V8.338h0.835V6.971l1.827-1.062v2.429H85.956z"/>
	<path fill="#F7EBCB" d="M87.22,7.405V5.721h1.82v1.684H87.22z M87.22,15.217V8.338h1.82v6.879H87.22z"/>
	<path fill="#F7EBCB" d="M90.108,8.338h1.011V7.82c0-0.579,0.062-1.011,0.185-1.295c0.123-0.285,0.35-0.517,0.68-0.696
		c0.331-0.179,0.748-0.269,1.254-0.269c0.518,0,1.025,0.078,1.522,0.233l-0.247,1.27c-0.289-0.069-0.567-0.104-0.835-0.104
		c-0.264,0-0.452,0.062-0.567,0.185c-0.114,0.123-0.171,0.359-0.171,0.709v0.486h1.36V9.77h-1.36v5.447h-1.82V9.77h-1.011V8.338z"/>
	<path fill="#F7EBCB" d="M95.323,7.405V5.721h1.82v1.684H95.323z M95.323,15.217V8.338h1.82v6.879H95.323z"/>
	<path fill="#F7EBCB" d="M105.007,10.372l-1.794,0.324c-0.061-0.358-0.198-0.628-0.412-0.81c-0.213-0.181-0.491-0.272-0.832-0.272
		c-0.453,0-0.815,0.157-1.085,0.47s-0.404,0.837-0.404,1.571c0,0.816,0.137,1.393,0.411,1.729s0.643,0.505,1.104,0.505
		c0.345,0,0.628-0.098,0.849-0.295c0.22-0.196,0.375-0.534,0.466-1.014l1.788,0.304c-0.186,0.821-0.542,1.44-1.069,1.859
		c-0.526,0.419-1.232,0.628-2.118,0.628c-1.006,0-1.808-0.317-2.406-0.952c-0.598-0.635-0.896-1.513-0.896-2.636
		c0-1.136,0.3-2.02,0.9-2.652c0.6-0.632,1.412-0.949,2.436-0.949c0.837,0,1.503,0.18,1.998,0.541
		C104.436,9.084,104.791,9.633,105.007,10.372z"/>
	<path fill="#F7EBCB" d="M107.747,10.437l-1.651-0.298c0.186-0.665,0.505-1.157,0.958-1.477c0.453-0.319,1.127-0.479,2.021-0.479
		c0.812,0,1.416,0.096,1.813,0.288c0.397,0.192,0.677,0.436,0.839,0.732s0.242,0.839,0.242,1.629l-0.019,2.125
		c0,0.605,0.028,1.051,0.087,1.338s0.167,0.595,0.327,0.923h-1.801c-0.048-0.121-0.105-0.3-0.175-0.538
		c-0.03-0.108-0.052-0.179-0.064-0.214c-0.312,0.302-0.644,0.529-0.998,0.68c-0.354,0.151-0.731,0.227-1.133,0.227
		c-0.709,0-1.267-0.192-1.675-0.576s-0.612-0.87-0.612-1.458c0-0.389,0.093-0.735,0.278-1.04c0.186-0.305,0.446-0.538,0.781-0.7
		c0.334-0.162,0.816-0.303,1.447-0.424c0.851-0.16,1.44-0.309,1.769-0.447v-0.181c0-0.35-0.087-0.599-0.26-0.749
		c-0.172-0.149-0.498-0.223-0.978-0.223c-0.324,0-0.576,0.063-0.758,0.191S107.859,10.117,107.747,10.437z M110.183,11.914
		c-0.233,0.078-0.603,0.17-1.107,0.278c-0.506,0.108-0.836,0.214-0.991,0.317c-0.237,0.168-0.356,0.382-0.356,0.641
		c0,0.255,0.095,0.475,0.285,0.661c0.189,0.186,0.432,0.279,0.726,0.279c0.328,0,0.641-0.108,0.938-0.324
		c0.221-0.164,0.365-0.365,0.435-0.603c0.047-0.156,0.071-0.451,0.071-0.888V11.914z"/>
	<path fill="#F7EBCB" d="M115.507,15.217h-1.82V8.338h1.691v0.978c0.289-0.462,0.549-0.767,0.78-0.913
		c0.23-0.147,0.493-0.22,0.787-0.22c0.414,0,0.813,0.114,1.198,0.343l-0.563,1.587c-0.307-0.199-0.592-0.298-0.855-0.298
		c-0.255,0-0.471,0.07-0.647,0.21c-0.177,0.14-0.316,0.394-0.418,0.761c-0.102,0.367-0.152,1.136-0.152,2.306V15.217z"/>
	<path fill="#F7EBCB" d="M128.61,10.372l-1.794,0.324c-0.061-0.358-0.198-0.628-0.412-0.81c-0.213-0.181-0.491-0.272-0.832-0.272
		c-0.453,0-0.815,0.157-1.085,0.47s-0.404,0.837-0.404,1.571c0,0.816,0.137,1.393,0.411,1.729s0.643,0.505,1.104,0.505
		c0.345,0,0.628-0.098,0.849-0.295c0.22-0.196,0.375-0.534,0.466-1.014l1.788,0.304c-0.186,0.821-0.542,1.44-1.069,1.859
		c-0.526,0.419-1.232,0.628-2.118,0.628c-1.006,0-1.808-0.317-2.406-0.952c-0.598-0.635-0.896-1.513-0.896-2.636
		c0-1.136,0.3-2.02,0.9-2.652c0.6-0.632,1.412-0.949,2.436-0.949c0.837,0,1.503,0.18,1.998,0.541
		C128.039,9.084,128.395,9.633,128.61,10.372z"/>
	<path fill="#F7EBCB" d="M129.99,15.217V5.721h1.82v9.496H129.99z"/>
	<path fill="#F7EBCB" d="M133.676,7.405V5.721h1.82v1.684H133.676z M133.676,15.217V8.338h1.82v6.879H133.676z"/>
	<path fill="#F7EBCB" d="M141.345,13.027l1.813,0.305c-0.232,0.665-0.601,1.171-1.104,1.519c-0.503,0.348-1.132,0.521-1.888,0.521
		c-1.196,0-2.081-0.391-2.655-1.172c-0.454-0.626-0.681-1.416-0.681-2.371c0-1.14,0.298-2.033,0.894-2.678
		c0.597-0.646,1.35-0.968,2.261-0.968c1.023,0,1.831,0.338,2.423,1.014s0.874,1.711,0.849,3.106h-4.561
		c0.014,0.54,0.16,0.959,0.44,1.26c0.281,0.3,0.631,0.45,1.05,0.45c0.285,0,0.524-0.078,0.719-0.233S141.245,13.373,141.345,13.027z
		 M141.448,11.188c-0.013-0.527-0.148-0.927-0.408-1.202c-0.259-0.274-0.574-0.411-0.945-0.411c-0.397,0-0.726,0.145-0.984,0.434
		c-0.259,0.289-0.387,0.682-0.382,1.179H141.448z"/>
	<path fill="#F7EBCB" d="M150.996,15.217h-1.82v-3.511c0-0.743-0.038-1.223-0.116-1.441c-0.078-0.218-0.204-0.388-0.379-0.509
		c-0.175-0.121-0.386-0.181-0.632-0.181c-0.314,0-0.598,0.086-0.849,0.259c-0.25,0.173-0.422,0.402-0.515,0.687
		c-0.093,0.285-0.139,0.812-0.139,1.58v3.116h-1.82V8.338h1.69v1.01c0.6-0.777,1.355-1.166,2.267-1.166
		c0.402,0,0.769,0.072,1.102,0.217c0.332,0.145,0.584,0.33,0.755,0.554c0.17,0.225,0.289,0.479,0.355,0.765
		c0.067,0.285,0.101,0.693,0.101,1.224V15.217z"/>
	<path fill="#F7EBCB" d="M155.997,8.338v1.451h-1.243v2.772c0,0.562,0.012,0.889,0.035,0.981s0.078,0.169,0.162,0.23
		s0.187,0.091,0.308,0.091c0.168,0,0.412-0.059,0.732-0.175l0.155,1.412c-0.424,0.182-0.903,0.272-1.438,0.272
		c-0.328,0-0.624-0.055-0.887-0.165c-0.264-0.11-0.457-0.252-0.58-0.427c-0.123-0.175-0.208-0.412-0.256-0.709
		c-0.039-0.211-0.059-0.639-0.059-1.283V9.789h-0.835V8.338h0.835V6.971l1.827-1.062v2.429H155.997z"/>
	<path fill="#F7EBCB" d="M161.244,13.027l1.813,0.305c-0.232,0.665-0.601,1.171-1.104,1.519c-0.503,0.348-1.132,0.521-1.888,0.521
		c-1.196,0-2.081-0.391-2.655-1.172c-0.454-0.626-0.681-1.416-0.681-2.371c0-1.14,0.298-2.033,0.894-2.678
		c0.597-0.646,1.35-0.968,2.261-0.968c1.023,0,1.831,0.338,2.423,1.014s0.874,1.711,0.849,3.106h-4.561
		c0.014,0.54,0.16,0.959,0.44,1.26c0.281,0.3,0.631,0.45,1.05,0.45c0.285,0,0.524-0.078,0.719-0.233S161.145,13.373,161.244,13.027z
		 M161.348,11.188c-0.013-0.527-0.148-0.927-0.408-1.202c-0.259-0.274-0.574-0.411-0.945-0.411c-0.397,0-0.726,0.145-0.984,0.434
		c-0.259,0.289-0.387,0.682-0.382,1.179H161.348z"/>
	<path fill="#F7EBCB" d="M163.997,13.254l1.827-0.279c0.077,0.354,0.235,0.623,0.473,0.807s0.57,0.275,0.997,0.275
		c0.471,0,0.825-0.086,1.062-0.259c0.16-0.121,0.24-0.283,0.24-0.486c0-0.138-0.044-0.252-0.13-0.343
		c-0.091-0.086-0.294-0.166-0.609-0.24c-1.468-0.324-2.398-0.62-2.791-0.887c-0.544-0.372-0.816-0.888-0.816-1.548
		c0-0.596,0.235-1.097,0.706-1.502c0.471-0.406,1.2-0.609,2.189-0.609c0.941,0,1.641,0.153,2.099,0.46s0.772,0.76,0.945,1.36
		l-1.716,0.317c-0.074-0.268-0.213-0.473-0.418-0.615s-0.498-0.214-0.878-0.214c-0.479,0-0.822,0.067-1.03,0.201
		c-0.138,0.095-0.207,0.218-0.207,0.369c0,0.129,0.061,0.239,0.182,0.33c0.164,0.121,0.73,0.292,1.7,0.512s1.646,0.49,2.03,0.81
		c0.38,0.324,0.57,0.775,0.57,1.354c0,0.63-0.264,1.172-0.79,1.625c-0.527,0.454-1.307,0.68-2.339,0.68
		c-0.937,0-1.679-0.19-2.225-0.57S164.166,13.906,163.997,13.254z"/>
	<path fill="#F7EBCB" d="M52.444,24.257h1.937l1.646,4.883l1.606-4.883h1.885l-2.429,6.619l-0.435,1.198
		c-0.159,0.401-0.312,0.708-0.456,0.92c-0.146,0.212-0.312,0.384-0.499,0.515c-0.188,0.132-0.419,0.234-0.693,0.309
		c-0.274,0.072-0.584,0.109-0.93,0.109c-0.35,0-0.692-0.037-1.029-0.109l-0.162-1.426c0.285,0.057,0.542,0.084,0.771,0.084
		c0.423,0,0.736-0.123,0.939-0.372c0.203-0.248,0.358-0.564,0.466-0.948L52.444,24.257z"/>
	<path fill="#F7EBCB" d="M63.728,29.173l1.827-0.279c0.077,0.354,0.235,0.623,0.473,0.807s0.57,0.275,0.997,0.275
		c0.471,0,0.825-0.086,1.062-0.259c0.16-0.121,0.24-0.282,0.24-0.485c0-0.139-0.044-0.253-0.13-0.344
		c-0.091-0.086-0.294-0.166-0.609-0.24c-1.468-0.323-2.398-0.619-2.791-0.887c-0.544-0.371-0.816-0.888-0.816-1.549
		c0-0.596,0.235-1.096,0.706-1.502s1.2-0.609,2.189-0.609c0.941,0,1.641,0.154,2.099,0.461s0.772,0.76,0.945,1.359l-1.716,0.317
		c-0.074-0.268-0.213-0.473-0.418-0.615s-0.498-0.214-0.878-0.214c-0.479,0-0.822,0.067-1.03,0.201
		c-0.138,0.095-0.207,0.218-0.207,0.369c0,0.129,0.061,0.239,0.182,0.33c0.164,0.121,0.73,0.291,1.7,0.512s1.646,0.49,2.03,0.81
		c0.38,0.324,0.57,0.775,0.57,1.354c0,0.63-0.264,1.172-0.79,1.625c-0.527,0.453-1.307,0.68-2.339,0.68
		c-0.937,0-1.679-0.189-2.225-0.569S63.896,29.825,63.728,29.173z"/>
	<path fill="#F7EBCB" d="M76.274,31.136v-1.03c-0.25,0.367-0.579,0.656-0.987,0.868c-0.408,0.211-0.839,0.316-1.292,0.316
		c-0.463,0-0.877-0.102-1.244-0.304c-0.367-0.203-0.633-0.487-0.797-0.854s-0.246-0.875-0.246-1.523v-4.352h1.82v3.16
		c0,0.968,0.033,1.561,0.101,1.778c0.066,0.218,0.188,0.391,0.366,0.519c0.177,0.127,0.401,0.191,0.673,0.191
		c0.312,0,0.59-0.086,0.836-0.256c0.246-0.172,0.415-0.383,0.505-0.635c0.091-0.254,0.137-0.872,0.137-1.856v-2.901h1.819v6.879
		H76.274z"/>
	<path fill="#F7EBCB" d="M79.209,29.173l1.827-0.279c0.077,0.354,0.235,0.623,0.473,0.807s0.57,0.275,0.997,0.275
		c0.471,0,0.825-0.086,1.062-0.259c0.16-0.121,0.24-0.282,0.24-0.485c0-0.139-0.044-0.253-0.13-0.344
		c-0.091-0.086-0.294-0.166-0.609-0.24c-1.468-0.323-2.398-0.619-2.791-0.887c-0.544-0.371-0.816-0.888-0.816-1.549
		c0-0.596,0.235-1.096,0.706-1.502s1.2-0.609,2.189-0.609c0.941,0,1.641,0.154,2.099,0.461s0.772,0.76,0.945,1.359l-1.716,0.317
		c-0.074-0.268-0.213-0.473-0.418-0.615s-0.498-0.214-0.878-0.214c-0.479,0-0.822,0.067-1.03,0.201
		c-0.138,0.095-0.207,0.218-0.207,0.369c0,0.129,0.061,0.239,0.182,0.33c0.164,0.121,0.73,0.291,1.7,0.512s1.646,0.49,2.03,0.81
		c0.38,0.324,0.57,0.775,0.57,1.354c0,0.63-0.264,1.172-0.79,1.625c-0.527,0.453-1.307,0.68-2.339,0.68
		c-0.937,0-1.679-0.189-2.225-0.569S79.378,29.825,79.209,29.173z"/>
	<path fill="#F7EBCB" d="M97.171,31.136h-1.82v-3.512c0-0.742-0.038-1.223-0.116-1.44s-0.204-0.388-0.379-0.509
		s-0.386-0.182-0.632-0.182c-0.314,0-0.598,0.087-0.849,0.26c-0.25,0.172-0.422,0.401-0.515,0.687
		c-0.093,0.284-0.139,0.812-0.139,1.58v3.116h-1.82v-6.879h1.69v1.01c0.6-0.777,1.355-1.166,2.267-1.166
		c0.402,0,0.769,0.072,1.102,0.217c0.332,0.145,0.584,0.33,0.755,0.555c0.17,0.225,0.289,0.479,0.355,0.764
		c0.067,0.285,0.101,0.693,0.101,1.225V31.136z"/>
	<path fill="#F7EBCB" d="M103.001,28.946l1.813,0.305c-0.232,0.664-0.601,1.171-1.104,1.518c-0.503,0.348-1.132,0.521-1.888,0.521
		c-1.196,0-2.081-0.391-2.655-1.172c-0.454-0.626-0.681-1.416-0.681-2.371c0-1.14,0.298-2.032,0.894-2.678
		c0.597-0.646,1.35-0.969,2.261-0.969c1.023,0,1.831,0.338,2.423,1.014s0.874,1.711,0.849,3.106h-4.561
		c0.014,0.54,0.16,0.96,0.44,1.26c0.281,0.3,0.631,0.45,1.05,0.45c0.285,0,0.524-0.078,0.719-0.233S102.901,29.292,103.001,28.946z
		 M103.104,27.106c-0.013-0.527-0.148-0.928-0.408-1.201c-0.259-0.274-0.574-0.412-0.945-0.412c-0.397,0-0.726,0.145-0.984,0.435
		c-0.259,0.289-0.387,0.683-0.382,1.179H103.104z"/>
	<path fill="#F7EBCB" d="M112.394,26.29l-1.794,0.324c-0.061-0.358-0.198-0.629-0.412-0.811c-0.213-0.181-0.491-0.271-0.832-0.271
		c-0.453,0-0.815,0.156-1.085,0.47s-0.404,0.837-0.404,1.571c0,0.815,0.137,1.393,0.411,1.729c0.274,0.338,0.643,0.506,1.104,0.506
		c0.345,0,0.628-0.098,0.849-0.295c0.22-0.196,0.375-0.534,0.466-1.014l1.788,0.305c-0.186,0.82-0.542,1.439-1.069,1.859
		c-0.526,0.418-1.232,0.627-2.118,0.627c-1.006,0-1.808-0.316-2.406-0.951c-0.598-0.635-0.896-1.514-0.896-2.637
		c0-1.136,0.3-2.02,0.9-2.652c0.6-0.633,1.412-0.949,2.436-0.949c0.837,0,1.503,0.181,1.998,0.541
		C111.822,25.003,112.178,25.552,112.394,26.29z"/>
	<path fill="#F7EBCB" d="M117.757,28.946l1.813,0.305c-0.232,0.664-0.601,1.171-1.104,1.518c-0.503,0.348-1.132,0.521-1.888,0.521
		c-1.196,0-2.081-0.391-2.655-1.172c-0.454-0.626-0.681-1.416-0.681-2.371c0-1.14,0.298-2.032,0.894-2.678
		c0.597-0.646,1.35-0.969,2.261-0.969c1.023,0,1.831,0.338,2.423,1.014s0.874,1.711,0.849,3.106h-4.561
		c0.014,0.54,0.16,0.96,0.44,1.26c0.281,0.3,0.631,0.45,1.05,0.45c0.285,0,0.524-0.078,0.719-0.233S117.657,29.292,117.757,28.946z
		 M117.86,27.106c-0.013-0.527-0.148-0.928-0.408-1.201c-0.259-0.274-0.574-0.412-0.945-0.412c-0.397,0-0.726,0.145-0.984,0.435
		c-0.259,0.289-0.387,0.683-0.382,1.179H117.86z"/>
	<path fill="#F7EBCB" d="M120.51,29.173l1.827-0.279c0.077,0.354,0.235,0.623,0.473,0.807s0.57,0.275,0.997,0.275
		c0.471,0,0.825-0.086,1.062-0.259c0.16-0.121,0.24-0.282,0.24-0.485c0-0.139-0.044-0.253-0.13-0.344
		c-0.091-0.086-0.294-0.166-0.609-0.24c-1.468-0.323-2.398-0.619-2.791-0.887c-0.544-0.371-0.816-0.888-0.816-1.549
		c0-0.596,0.235-1.096,0.706-1.502s1.2-0.609,2.189-0.609c0.941,0,1.641,0.154,2.099,0.461s0.772,0.76,0.945,1.359l-1.716,0.317
		c-0.074-0.268-0.213-0.473-0.418-0.615s-0.498-0.214-0.878-0.214c-0.479,0-0.822,0.067-1.03,0.201
		c-0.138,0.095-0.207,0.218-0.207,0.369c0,0.129,0.061,0.239,0.182,0.33c0.164,0.121,0.73,0.291,1.7,0.512s1.646,0.49,2.03,0.81
		c0.38,0.324,0.57,0.775,0.57,1.354c0,0.63-0.264,1.172-0.79,1.625c-0.527,0.453-1.307,0.68-2.339,0.68
		c-0.937,0-1.679-0.189-2.225-0.569S120.679,29.825,120.51,29.173z"/>
	<path fill="#F7EBCB" d="M128.529,23.323V21.64h1.82v1.684H128.529z M128.529,31.136v-6.879h1.82v6.879H128.529z"/>
	<path fill="#F7EBCB" d="M138.523,31.136h-1.69v-1.011c-0.28,0.393-0.612,0.686-0.994,0.878c-0.382,0.191-0.768,0.287-1.156,0.287
		c-0.79,0-1.467-0.318-2.03-0.955s-0.846-1.525-0.846-2.665c0-1.166,0.274-2.052,0.823-2.659c0.548-0.606,1.241-0.91,2.079-0.91
		c0.769,0,1.434,0.32,1.995,0.959v-3.42h1.819V31.136z M133.666,27.547c0,0.733,0.102,1.265,0.304,1.593
		c0.294,0.476,0.704,0.713,1.231,0.713c0.419,0,0.774-0.178,1.068-0.534s0.44-0.888,0.44-1.597c0-0.79-0.143-1.359-0.428-1.707
		c-0.284-0.348-0.649-0.521-1.095-0.521c-0.432,0-0.793,0.172-1.085,0.516C133.812,26.352,133.666,26.864,133.666,27.547z"/>
	<path fill="#F7EBCB" d="M141.679,26.354l-1.651-0.297c0.186-0.666,0.505-1.158,0.958-1.478s1.127-0.479,2.021-0.479
		c0.812,0,1.416,0.097,1.813,0.289c0.397,0.191,0.677,0.436,0.839,0.731s0.242,0.839,0.242,1.629l-0.019,2.124
		c0,0.605,0.028,1.051,0.087,1.338s0.167,0.596,0.327,0.924h-1.801c-0.048-0.121-0.105-0.301-0.175-0.538
		c-0.03-0.108-0.052-0.179-0.064-0.214c-0.312,0.303-0.644,0.529-0.998,0.68c-0.354,0.152-0.731,0.227-1.133,0.227
		c-0.709,0-1.267-0.191-1.675-0.576c-0.408-0.384-0.612-0.869-0.612-1.457c0-0.389,0.093-0.735,0.278-1.039
		c0.186-0.305,0.446-0.538,0.781-0.7c0.334-0.161,0.816-0.304,1.447-0.425c0.851-0.159,1.44-0.309,1.769-0.446v-0.181
		c0-0.351-0.087-0.6-0.26-0.749c-0.172-0.149-0.498-0.224-0.978-0.224c-0.324,0-0.576,0.064-0.758,0.191
		S141.791,26.036,141.679,26.354z M144.114,27.832c-0.233,0.077-0.603,0.171-1.107,0.278c-0.506,0.107-0.836,0.214-0.991,0.317
		c-0.237,0.169-0.356,0.382-0.356,0.642c0,0.254,0.095,0.475,0.285,0.66c0.189,0.186,0.432,0.279,0.726,0.279
		c0.328,0,0.641-0.108,0.938-0.324c0.221-0.164,0.365-0.365,0.435-0.603c0.047-0.155,0.071-0.451,0.071-0.888V27.832z"/>
	<path fill="#F7EBCB" d="M154.005,31.136h-1.69v-1.011c-0.28,0.393-0.612,0.686-0.994,0.878c-0.382,0.191-0.768,0.287-1.156,0.287
		c-0.79,0-1.467-0.318-2.03-0.955s-0.846-1.525-0.846-2.665c0-1.166,0.274-2.052,0.823-2.659c0.548-0.606,1.241-0.91,2.079-0.91
		c0.769,0,1.434,0.32,1.995,0.959v-3.42h1.819V31.136z M149.147,27.547c0,0.733,0.102,1.265,0.304,1.593
		c0.294,0.476,0.704,0.713,1.231,0.713c0.419,0,0.774-0.178,1.068-0.534s0.44-0.888,0.44-1.597c0-0.79-0.143-1.359-0.428-1.707
		c-0.284-0.348-0.649-0.521-1.095-0.521c-0.432,0-0.793,0.172-1.085,0.516C149.293,26.352,149.147,26.864,149.147,27.547z"/>
	<path fill="#F7EBCB" d="M159.783,28.946l1.813,0.305c-0.232,0.664-0.601,1.171-1.104,1.518c-0.503,0.348-1.132,0.521-1.888,0.521
		c-1.196,0-2.081-0.391-2.655-1.172c-0.454-0.626-0.681-1.416-0.681-2.371c0-1.14,0.298-2.032,0.894-2.678
		c0.597-0.646,1.35-0.969,2.261-0.969c1.023,0,1.831,0.338,2.423,1.014s0.874,1.711,0.849,3.106h-4.561
		c0.014,0.54,0.16,0.96,0.44,1.26c0.281,0.3,0.631,0.45,1.05,0.45c0.285,0,0.524-0.078,0.719-0.233S159.684,29.292,159.783,28.946z
		 M159.887,27.106c-0.013-0.527-0.148-0.928-0.408-1.201c-0.259-0.274-0.574-0.412-0.945-0.412c-0.397,0-0.726,0.145-0.984,0.435
		c-0.259,0.289-0.387,0.683-0.382,1.179H159.887z"/>
	<path fill="#F7EBCB" d="M162.536,29.173l1.827-0.279c0.077,0.354,0.235,0.623,0.473,0.807s0.57,0.275,0.997,0.275
		c0.471,0,0.825-0.086,1.062-0.259c0.16-0.121,0.24-0.282,0.24-0.485c0-0.139-0.044-0.253-0.13-0.344
		c-0.091-0.086-0.294-0.166-0.609-0.24c-1.468-0.323-2.398-0.619-2.791-0.887c-0.544-0.371-0.816-0.888-0.816-1.549
		c0-0.596,0.235-1.096,0.706-1.502s1.2-0.609,2.189-0.609c0.941,0,1.641,0.154,2.099,0.461s0.772,0.76,0.945,1.359l-1.716,0.317
		c-0.074-0.268-0.213-0.473-0.418-0.615s-0.498-0.214-0.878-0.214c-0.479,0-0.822,0.067-1.03,0.201
		c-0.138,0.095-0.207,0.218-0.207,0.369c0,0.129,0.061,0.239,0.182,0.33c0.164,0.121,0.73,0.291,1.7,0.512s1.646,0.49,2.03,0.81
		c0.38,0.324,0.57,0.775,0.57,1.354c0,0.63-0.264,1.172-0.79,1.625c-0.527,0.453-1.307,0.68-2.339,0.68
		c-0.937,0-1.679-0.189-2.225-0.569S162.705,29.825,162.536,29.173z"/>
	<path fill="#F7EBCB" d="M170.556,31.136v-1.82h1.82v1.82H170.556z"/>
</g>
<path fill="#F7EBCB" d="M17.918,26.732h-2.606v-9.825c-0.953,0.891-2.075,1.549-3.368,1.976v-2.366
	c0.681-0.223,1.419-0.645,2.218-1.266c0.797-0.622,1.345-1.347,1.642-2.176h2.115V26.732z"/>
</svg>
