<?xml version="1.0" encoding="utf-8"?>
<!-- Generator: Adobe Illustrator 16.0.0, SVG Export Plug-In . SVG Version: 6.00 Build 0)  -->
<!DOCTYPE svg PUBLIC "-//W3C//DTD SVG 1.1//EN" "http://www.w3.org/Graphics/SVG/1.1/DTD/svg11.dtd">
<svg version="1.1" id="Layer_1" xmlns="http://www.w3.org/2000/svg" xmlns:xlink="http://www.w3.org/1999/xlink" x="0px" y="0px"
	 width="199.555px" height="38.134px" viewBox="0 0 199.555 38.134" enable-background="new 0 0 199.555 38.134"
	 xml:space="preserve">
<g>
	<rect id="XMLID_6401_" y="0.001" fill="#F7974A" width="199.555" height="38.132"/>
	<rect id="XMLID_6371_" x="34.809" y="0.001" fill="#51564D" width="156.02" height="38.132"/>
	<g>
		<path fill="#F7EBCB" d="M92.772,6.325h3.504c0.79,0,1.393,0.061,1.808,0.182c0.557,0.164,1.033,0.455,1.431,0.874
			s0.7,0.932,0.907,1.539c0.207,0.606,0.311,1.354,0.311,2.244c0,0.781-0.097,1.455-0.291,2.021
			c-0.237,0.691-0.576,1.25-1.018,1.678c-0.332,0.324-0.781,0.576-1.347,0.758c-0.424,0.134-0.989,0.201-1.697,0.201h-3.607V6.325z
			 M94.689,7.932v6.289h1.432c0.535,0,0.922-0.029,1.159-0.09c0.311-0.078,0.569-0.21,0.774-0.396s0.372-0.491,0.502-0.917
			c0.129-0.425,0.194-1.005,0.194-1.738c0-0.734-0.065-1.298-0.194-1.691c-0.13-0.393-0.312-0.699-0.544-0.919
			c-0.233-0.221-0.529-0.369-0.888-0.447c-0.268-0.061-0.793-0.091-1.574-0.091H94.689z"/>
		<path fill="#F7EBCB" d="M106.329,13.632l1.813,0.305c-0.232,0.665-0.601,1.171-1.104,1.519c-0.503,0.348-1.132,0.521-1.888,0.521
			c-1.196,0-2.081-0.391-2.655-1.173c-0.454-0.626-0.681-1.416-0.681-2.37c0-1.141,0.298-2.033,0.894-2.679
			c0.597-0.646,1.35-0.968,2.261-0.968c1.023,0,1.831,0.338,2.423,1.014s0.874,1.711,0.849,3.105h-4.561
			c0.014,0.54,0.16,0.96,0.44,1.26c0.281,0.3,0.631,0.45,1.05,0.45c0.285,0,0.524-0.078,0.719-0.233S106.229,13.978,106.329,13.632z
			 M106.433,11.792c-0.013-0.526-0.148-0.927-0.408-1.201c-0.259-0.274-0.574-0.411-0.945-0.411c-0.397,0-0.726,0.145-0.984,0.434
			s-0.387,0.683-0.382,1.179H106.433z"/>
		<path fill="#F7EBCB" d="M108.927,8.942h1.011V8.424c0-0.578,0.062-1.011,0.185-1.295c0.123-0.285,0.35-0.518,0.68-0.696
			c0.331-0.18,0.748-0.27,1.254-0.27c0.518,0,1.025,0.078,1.522,0.233l-0.247,1.27c-0.289-0.069-0.567-0.104-0.835-0.104
			c-0.264,0-0.452,0.062-0.567,0.185c-0.114,0.123-0.171,0.359-0.171,0.709v0.486h1.36v1.432h-1.36v5.447h-1.82v-5.447h-1.011V8.942
			z"/>
		<path fill="#F7EBCB" d="M114.142,8.01V6.325h1.82V8.01H114.142z M114.142,15.821V8.942h1.82v6.879H114.142z"/>
		<path fill="#F7EBCB" d="M124.084,15.821h-1.82v-3.511c0-0.743-0.038-1.224-0.116-1.441s-0.204-0.388-0.379-0.509
			c-0.175-0.12-0.386-0.181-0.632-0.181c-0.314,0-0.598,0.086-0.849,0.259c-0.25,0.173-0.422,0.401-0.515,0.687
			s-0.139,0.812-0.139,1.58v3.116h-1.82V8.942h1.69v1.01c0.6-0.776,1.355-1.165,2.267-1.165c0.402,0,0.769,0.072,1.102,0.217
			c0.332,0.145,0.584,0.329,0.755,0.554c0.17,0.225,0.289,0.479,0.355,0.765c0.067,0.284,0.101,0.692,0.101,1.224V15.821z"/>
		<path fill="#F7EBCB" d="M125.931,8.01V6.325h1.82V8.01H125.931z M125.931,15.821V8.942h1.82v6.879H125.931z"/>
		<path fill="#F7EBCB" d="M131.358,15.821h-1.82V8.942h1.691V9.92c0.289-0.462,0.549-0.767,0.78-0.913
			c0.23-0.146,0.493-0.22,0.787-0.22c0.414,0,0.813,0.114,1.198,0.343l-0.563,1.587c-0.307-0.198-0.592-0.298-0.855-0.298
			c-0.255,0-0.471,0.07-0.647,0.211c-0.177,0.14-0.316,0.394-0.418,0.761s-0.152,1.136-0.152,2.306V15.821z"/>
		<path fill="#F7EBCB" d="M45.476,28.65l1.865-0.182c0.112,0.626,0.34,1.086,0.684,1.379c0.343,0.295,0.807,0.441,1.39,0.441
			c0.617,0,1.082-0.131,1.396-0.393c0.312-0.261,0.47-0.566,0.47-0.916c0-0.225-0.066-0.416-0.198-0.573
			c-0.131-0.157-0.361-0.295-0.689-0.411c-0.225-0.078-0.736-0.217-1.535-0.414c-1.027-0.256-1.749-0.568-2.163-0.939
			c-0.583-0.523-0.875-1.16-0.875-1.911c0-0.483,0.138-0.937,0.412-1.356c0.273-0.422,0.669-0.742,1.185-0.963
			c0.517-0.22,1.14-0.33,1.869-0.33c1.191,0,2.089,0.262,2.691,0.783c0.603,0.523,0.919,1.221,0.948,2.093l-1.917,0.084
			c-0.082-0.487-0.258-0.839-0.527-1.052c-0.271-0.215-0.675-0.321-1.215-0.321c-0.557,0-0.993,0.114-1.309,0.343
			c-0.203,0.147-0.305,0.344-0.305,0.59c0,0.225,0.096,0.417,0.285,0.576c0.242,0.203,0.829,0.415,1.762,0.635
			c0.933,0.221,1.623,0.449,2.07,0.684c0.446,0.236,0.796,0.557,1.049,0.965s0.379,0.912,0.379,1.514
			c0,0.543-0.151,1.053-0.453,1.527c-0.303,0.476-0.73,0.828-1.283,1.06s-1.241,0.347-2.065,0.347c-1.201,0-2.123-0.277-2.767-0.832
			C45.985,30.521,45.601,29.713,45.476,28.65z"/>
		<path fill="#F7EBCB" d="M58.779,29.551l1.813,0.305c-0.232,0.664-0.601,1.171-1.104,1.518c-0.503,0.348-1.132,0.521-1.888,0.521
			c-1.196,0-2.081-0.391-2.655-1.172c-0.454-0.626-0.681-1.416-0.681-2.371c0-1.14,0.298-2.032,0.894-2.678
			c0.597-0.646,1.35-0.969,2.261-0.969c1.023,0,1.831,0.338,2.423,1.014s0.874,1.711,0.849,3.106H56.13
			c0.014,0.54,0.16,0.96,0.44,1.26c0.281,0.3,0.631,0.45,1.05,0.45c0.285,0,0.524-0.078,0.719-0.233S58.68,29.896,58.779,29.551z
			 M58.883,27.711c-0.013-0.527-0.148-0.928-0.408-1.201c-0.259-0.274-0.574-0.412-0.945-0.412c-0.397,0-0.726,0.145-0.984,0.435
			c-0.259,0.289-0.387,0.683-0.382,1.179H58.883z"/>
		<path fill="#F7EBCB" d="M63.916,31.74h-1.82v-6.879h1.691v0.978c0.289-0.462,0.549-0.767,0.78-0.913
			c0.23-0.146,0.493-0.221,0.787-0.221c0.414,0,0.813,0.115,1.198,0.344l-0.563,1.587c-0.307-0.198-0.592-0.298-0.855-0.298
			c-0.255,0-0.471,0.07-0.647,0.211c-0.177,0.14-0.316,0.394-0.418,0.76c-0.102,0.367-0.152,1.137-0.152,2.307V31.74z"/>
		<path fill="#F7EBCB" d="M69.228,31.74l-2.772-6.879h1.911l1.295,3.51l0.376,1.173c0.1-0.298,0.162-0.495,0.188-0.589
			c0.061-0.195,0.125-0.389,0.194-0.584l1.309-3.51H73.6l-2.733,6.879H69.228z"/>
		<path fill="#F7EBCB" d="M74.714,23.928v-1.684h1.82v1.684H74.714z M74.714,31.74v-6.879h1.82v6.879H74.714z"/>
		<path fill="#F7EBCB" d="M84.397,26.895l-1.794,0.324c-0.061-0.358-0.198-0.629-0.412-0.811c-0.213-0.181-0.491-0.271-0.832-0.271
			c-0.453,0-0.815,0.156-1.085,0.47s-0.404,0.837-0.404,1.571c0,0.815,0.137,1.393,0.411,1.729c0.274,0.338,0.643,0.506,1.104,0.506
			c0.345,0,0.628-0.098,0.849-0.295c0.22-0.196,0.375-0.534,0.466-1.014l1.788,0.305c-0.186,0.82-0.542,1.439-1.069,1.859
			c-0.526,0.418-1.232,0.627-2.118,0.627c-1.006,0-1.808-0.316-2.406-0.951c-0.598-0.635-0.896-1.514-0.896-2.637
			c0-1.136,0.3-2.02,0.9-2.652c0.6-0.633,1.412-0.949,2.436-0.949c0.837,0,1.503,0.181,1.998,0.541
			C83.826,25.607,84.182,26.156,84.397,26.895z"/>
		<path fill="#F7EBCB" d="M85.777,23.928v-1.684h1.82v1.684H85.777z M85.777,31.74v-6.879h1.82v6.879H85.777z"/>
		<path fill="#F7EBCB" d="M89.042,28.203c0-0.604,0.148-1.189,0.447-1.756c0.298-0.564,0.72-0.997,1.266-1.295
			c0.547-0.298,1.156-0.447,1.83-0.447c1.041,0,1.894,0.338,2.559,1.014s0.997,1.53,0.997,2.562c0,1.041-0.335,1.902-1.007,2.588
			c-0.672,0.684-1.517,1.025-2.536,1.025c-0.63,0-1.231-0.142-1.804-0.427s-1.007-0.702-1.305-1.253
			C89.19,29.664,89.042,28.993,89.042,28.203z M90.907,28.301c0,0.682,0.162,1.204,0.486,1.566c0.323,0.363,0.723,0.545,1.198,0.545
			c0.475,0,0.873-0.182,1.194-0.545c0.322-0.362,0.483-0.889,0.483-1.58c0-0.674-0.161-1.191-0.483-1.555
			c-0.321-0.362-0.72-0.544-1.194-0.544c-0.476,0-0.875,0.182-1.198,0.544C91.069,27.096,90.907,27.618,90.907,28.301z"/>
		<path fill="#F7EBCB" d="M96.925,29.777l1.827-0.279c0.077,0.354,0.235,0.623,0.473,0.807s0.57,0.275,0.997,0.275
			c0.471,0,0.825-0.086,1.062-0.259c0.16-0.121,0.24-0.282,0.24-0.485c0-0.139-0.044-0.253-0.13-0.344
			c-0.091-0.086-0.294-0.166-0.609-0.24c-1.468-0.323-2.398-0.619-2.791-0.887c-0.544-0.371-0.816-0.888-0.816-1.549
			c0-0.596,0.235-1.096,0.706-1.502s1.2-0.609,2.189-0.609c0.941,0,1.641,0.154,2.099,0.461s0.772,0.76,0.945,1.359l-1.716,0.317
			c-0.074-0.268-0.213-0.473-0.418-0.615s-0.498-0.214-0.878-0.214c-0.479,0-0.822,0.067-1.03,0.201
			c-0.138,0.095-0.207,0.218-0.207,0.369c0,0.129,0.061,0.239,0.182,0.33c0.164,0.121,0.73,0.291,1.7,0.512s1.646,0.49,2.03,0.81
			c0.38,0.324,0.57,0.775,0.57,1.354c0,0.63-0.264,1.172-0.79,1.625c-0.527,0.453-1.307,0.68-2.339,0.68
			c-0.937,0-1.679-0.189-2.225-0.569S97.094,30.43,96.925,29.777z"/>
		<path fill="#F7EBCB" d="M107.658,31.902l2.352-9.82h1.366l-2.377,9.82H107.658z"/>
		<path fill="#F7EBCB" d="M116.014,31.74v-9.496h3.077c1.166,0,1.926,0.047,2.28,0.143c0.544,0.143,0.999,0.452,1.366,0.93
			c0.367,0.477,0.551,1.094,0.551,1.85c0,0.582-0.106,1.072-0.317,1.47c-0.212,0.397-0.48,0.709-0.807,0.937
			c-0.326,0.227-0.657,0.376-0.994,0.449c-0.458,0.091-1.121,0.137-1.988,0.137h-1.25v3.582H116.014z M117.932,23.851v2.694h1.049
			c0.756,0,1.261-0.05,1.516-0.148c0.255-0.1,0.454-0.256,0.6-0.467c0.145-0.211,0.217-0.457,0.217-0.738
			c0-0.346-0.102-0.631-0.305-0.855s-0.46-0.365-0.771-0.421c-0.229-0.043-0.689-0.064-1.38-0.064H117.932z"/>
		<path fill="#F7EBCB" d="M126.591,31.74h-1.82v-6.879h1.691v0.978c0.289-0.462,0.549-0.767,0.78-0.913
			c0.23-0.146,0.493-0.221,0.787-0.221c0.414,0,0.813,0.115,1.198,0.344l-0.563,1.587c-0.307-0.198-0.592-0.298-0.855-0.298
			c-0.255,0-0.471,0.07-0.647,0.211c-0.177,0.14-0.316,0.394-0.418,0.76c-0.102,0.367-0.152,1.137-0.152,2.307V31.74z"/>
		<path fill="#F7EBCB" d="M129.59,28.203c0-0.604,0.148-1.189,0.447-1.756c0.298-0.564,0.72-0.997,1.266-1.295
			c0.547-0.298,1.156-0.447,1.83-0.447c1.041,0,1.894,0.338,2.559,1.014s0.997,1.53,0.997,2.562c0,1.041-0.335,1.902-1.007,2.588
			c-0.672,0.684-1.517,1.025-2.536,1.025c-0.63,0-1.231-0.142-1.804-0.427s-1.007-0.702-1.305-1.253
			C129.738,29.664,129.59,28.993,129.59,28.203z M131.455,28.301c0,0.682,0.162,1.204,0.486,1.566
			c0.323,0.363,0.723,0.545,1.198,0.545c0.475,0,0.873-0.182,1.194-0.545c0.322-0.362,0.483-0.889,0.483-1.58
			c0-0.674-0.161-1.191-0.483-1.555c-0.321-0.362-0.72-0.544-1.194-0.544c-0.476,0-0.875,0.182-1.198,0.544
			C131.617,27.096,131.455,27.618,131.455,28.301z"/>
		<path fill="#F7EBCB" d="M144.423,31.74h-1.69v-1.011c-0.28,0.393-0.612,0.686-0.994,0.878c-0.382,0.191-0.768,0.287-1.156,0.287
			c-0.79,0-1.467-0.318-2.03-0.955s-0.846-1.525-0.846-2.665c0-1.166,0.274-2.052,0.823-2.659c0.548-0.606,1.241-0.91,2.079-0.91
			c0.769,0,1.434,0.32,1.995,0.959v-3.42h1.819V31.74z M139.565,28.151c0,0.733,0.102,1.265,0.304,1.593
			c0.294,0.476,0.704,0.713,1.231,0.713c0.419,0,0.774-0.178,1.068-0.534s0.44-0.888,0.44-1.597c0-0.79-0.143-1.359-0.428-1.707
			c-0.284-0.348-0.649-0.521-1.095-0.521c-0.432,0-0.793,0.172-1.085,0.516C139.711,26.956,139.565,27.469,139.565,28.151z"/>
		<path fill="#F7EBCB" d="M150.745,31.74v-1.03c-0.25,0.367-0.579,0.656-0.987,0.868c-0.408,0.211-0.839,0.316-1.292,0.316
			c-0.463,0-0.877-0.102-1.244-0.304c-0.367-0.203-0.633-0.487-0.797-0.854s-0.246-0.875-0.246-1.523v-4.352h1.82v3.16
			c0,0.968,0.033,1.561,0.101,1.778c0.066,0.218,0.188,0.391,0.366,0.519c0.177,0.127,0.401,0.191,0.673,0.191
			c0.312,0,0.59-0.086,0.836-0.256c0.246-0.172,0.415-0.383,0.505-0.635c0.091-0.254,0.137-0.872,0.137-1.856v-2.901h1.819v6.879
			H150.745z"/>
		<path fill="#F7EBCB" d="M160.319,26.895l-1.794,0.324c-0.061-0.358-0.198-0.629-0.412-0.811c-0.213-0.181-0.491-0.271-0.832-0.271
			c-0.453,0-0.815,0.156-1.085,0.47s-0.404,0.837-0.404,1.571c0,0.815,0.137,1.393,0.411,1.729c0.274,0.338,0.643,0.506,1.104,0.506
			c0.345,0,0.628-0.098,0.849-0.295c0.22-0.196,0.375-0.534,0.466-1.014l1.788,0.305c-0.186,0.82-0.542,1.439-1.069,1.859
			c-0.526,0.418-1.232,0.627-2.118,0.627c-1.006,0-1.808-0.316-2.406-0.951c-0.598-0.635-0.896-1.514-0.896-2.637
			c0-1.136,0.3-2.02,0.9-2.652c0.6-0.633,1.412-0.949,2.436-0.949c0.837,0,1.503,0.181,1.998,0.541
			C159.748,25.607,160.104,26.156,160.319,26.895z"/>
		<path fill="#F7EBCB" d="M164.854,24.861v1.451h-1.243v2.771c0,0.562,0.012,0.889,0.035,0.981s0.078,0.169,0.162,0.229
			s0.187,0.092,0.308,0.092c0.168,0,0.412-0.059,0.732-0.176l0.155,1.412c-0.424,0.182-0.903,0.271-1.438,0.271
			c-0.328,0-0.624-0.055-0.887-0.164c-0.264-0.11-0.457-0.253-0.58-0.428c-0.123-0.176-0.208-0.412-0.256-0.709
			c-0.039-0.212-0.059-0.64-0.059-1.283v-2.998h-0.835v-1.451h0.835v-1.367l1.827-1.062v2.43H164.854z"/>
		<path fill="#F7EBCB" d="M165.696,28.203c0-0.604,0.148-1.189,0.447-1.756c0.298-0.564,0.72-0.997,1.266-1.295
			c0.547-0.298,1.156-0.447,1.83-0.447c1.041,0,1.894,0.338,2.559,1.014s0.997,1.53,0.997,2.562c0,1.041-0.335,1.902-1.007,2.588
			c-0.672,0.684-1.517,1.025-2.536,1.025c-0.63,0-1.231-0.142-1.804-0.427s-1.007-0.702-1.305-1.253
			C165.845,29.664,165.696,28.993,165.696,28.203z M167.562,28.301c0,0.682,0.162,1.204,0.486,1.566
			c0.323,0.363,0.723,0.545,1.198,0.545c0.475,0,0.873-0.182,1.194-0.545c0.322-0.362,0.483-0.889,0.483-1.58
			c0-0.674-0.161-1.191-0.483-1.555c-0.321-0.362-0.72-0.544-1.194-0.544c-0.476,0-0.875,0.182-1.198,0.544
			C167.724,27.096,167.562,27.618,167.562,28.301z"/>
		<path fill="#F7EBCB" d="M173.579,29.777l1.827-0.279c0.077,0.354,0.235,0.623,0.473,0.807s0.57,0.275,0.997,0.275
			c0.471,0,0.825-0.086,1.062-0.259c0.16-0.121,0.24-0.282,0.24-0.485c0-0.139-0.044-0.253-0.13-0.344
			c-0.091-0.086-0.294-0.166-0.609-0.24c-1.468-0.323-2.398-0.619-2.791-0.887c-0.544-0.371-0.816-0.888-0.816-1.549
			c0-0.596,0.235-1.096,0.706-1.502s1.2-0.609,2.189-0.609c0.941,0,1.641,0.154,2.099,0.461s0.772,0.76,0.945,1.359l-1.716,0.317
			c-0.074-0.268-0.213-0.473-0.418-0.615s-0.498-0.214-0.878-0.214c-0.479,0-0.822,0.067-1.03,0.201
			c-0.138,0.095-0.207,0.218-0.207,0.369c0,0.129,0.061,0.239,0.182,0.33c0.164,0.121,0.73,0.291,1.7,0.512s1.646,0.49,2.03,0.81
			c0.38,0.324,0.57,0.775,0.57,1.354c0,0.63-0.264,1.172-0.79,1.625c-0.527,0.453-1.307,0.68-2.339,0.68
			c-0.937,0-1.679-0.189-2.225-0.569S173.748,30.43,173.579,29.777z"/>
	</g>
	<path fill="#F7EBCB" d="M20.052,24.047v2.422h-9.139c0.1-0.915,0.396-1.783,0.891-2.603c0.495-0.819,1.473-1.906,2.932-3.261
		c1.176-1.095,1.896-1.837,2.162-2.227c0.358-0.538,0.538-1.07,0.538-1.596c0-0.581-0.156-1.028-0.469-1.341
		s-0.743-0.469-1.294-0.469c-0.544,0-0.978,0.164-1.299,0.492s-0.507,0.872-0.557,1.633l-2.598-0.26
		c0.154-1.435,0.641-2.465,1.457-3.09c0.816-0.624,1.836-0.937,3.061-0.937c1.343,0,2.397,0.361,3.164,1.085s1.15,1.624,1.15,2.7
		c0,0.612-0.11,1.195-0.329,1.749c-0.22,0.554-0.567,1.134-1.044,1.739c-0.315,0.402-0.885,0.98-1.707,1.734
		c-0.822,0.756-1.344,1.256-1.563,1.504c-0.22,0.247-0.397,0.488-0.533,0.723H20.052z"/>
</g>
</svg>
