<?xml version="1.0" encoding="utf-8"?>
<!-- Generator: Adobe Illustrator 16.0.0, SVG Export Plug-In . SVG Version: 6.00 Build 0)  -->
<!DOCTYPE svg PUBLIC "-//W3C//DTD SVG 1.1//EN" "http://www.w3.org/Graphics/SVG/1.1/DTD/svg11.dtd">
<svg version="1.1" id="Layer_1" xmlns="http://www.w3.org/2000/svg" xmlns:xlink="http://www.w3.org/1999/xlink" x="0px" y="0px"
	 width="199.555px" height="38.134px" viewBox="0 0 199.555 38.134" enable-background="new 0 0 199.555 38.134"
	 xml:space="preserve">
<g>
	<rect id="XMLID_5050_" y="0" fill="#36817C" width="199.555" height="38.134"/>
	<rect id="XMLID_5063_" x="34.809" y="0" fill="#51564D" width="156.02" height="38.134"/>
	<g>
		<path fill="#F7EBCB" d="M62.265,16.07h-2.086l-0.829-2.157h-3.796l-0.783,2.157h-2.034l3.698-9.496h2.027L62.265,16.07z
			 M58.734,12.313L57.426,8.79l-1.282,3.523H58.734z"/>
		<path fill="#F7EBCB" d="M69.525,16.07h-1.82v-3.511c0-0.743-0.038-1.223-0.116-1.441c-0.078-0.218-0.204-0.388-0.379-0.509
			c-0.175-0.121-0.386-0.181-0.632-0.181c-0.314,0-0.598,0.086-0.849,0.259c-0.25,0.173-0.422,0.402-0.515,0.687
			c-0.093,0.285-0.139,0.812-0.139,1.58v3.116h-1.82V9.191h1.69v1.01c0.6-0.777,1.355-1.166,2.267-1.166
			c0.402,0,0.769,0.072,1.102,0.217c0.332,0.145,0.584,0.33,0.755,0.554c0.17,0.225,0.289,0.479,0.355,0.765
			c0.067,0.285,0.101,0.693,0.101,1.224V16.07z"/>
		<path fill="#F7EBCB" d="M72.732,11.29l-1.651-0.298c0.186-0.665,0.505-1.157,0.958-1.477c0.453-0.319,1.127-0.479,2.021-0.479
			c0.812,0,1.416,0.096,1.813,0.288c0.397,0.192,0.677,0.436,0.839,0.732s0.242,0.839,0.242,1.629l-0.019,2.125
			c0,0.605,0.028,1.051,0.087,1.338s0.167,0.595,0.327,0.923H75.55c-0.048-0.121-0.105-0.3-0.175-0.538
			c-0.03-0.108-0.052-0.179-0.064-0.214c-0.312,0.302-0.644,0.529-0.998,0.68c-0.354,0.151-0.731,0.227-1.133,0.227
			c-0.709,0-1.267-0.192-1.675-0.576s-0.612-0.87-0.612-1.458c0-0.389,0.093-0.735,0.278-1.04c0.186-0.305,0.446-0.538,0.781-0.7
			c0.334-0.162,0.816-0.303,1.447-0.424c0.851-0.16,1.44-0.309,1.769-0.447V11.4c0-0.35-0.087-0.599-0.26-0.749
			c-0.172-0.149-0.498-0.223-0.978-0.223c-0.324,0-0.576,0.063-0.758,0.191S72.845,10.97,72.732,11.29z M75.168,12.767
			c-0.233,0.078-0.603,0.17-1.107,0.278c-0.506,0.108-0.836,0.214-0.991,0.317c-0.237,0.168-0.356,0.382-0.356,0.641
			c0,0.255,0.095,0.475,0.285,0.661c0.189,0.186,0.432,0.279,0.726,0.279c0.328,0,0.641-0.108,0.938-0.324
			c0.221-0.164,0.365-0.365,0.435-0.603c0.047-0.156,0.071-0.451,0.071-0.888V12.767z M73.198,8.349l0.895-1.937h2.04l-1.781,1.937
			H73.198z"/>
		<path fill="#F7EBCB" d="M78.75,16.07V6.574h1.82v9.496H78.75z"/>
		<path fill="#F7EBCB" d="M82.436,8.258V6.574h1.82v1.684H82.436z M82.436,16.07V9.191h1.82v6.879H82.436z"/>
		<path fill="#F7EBCB" d="M85.479,14.107l1.827-0.279c0.077,0.354,0.235,0.623,0.473,0.807s0.57,0.275,0.997,0.275
			c0.471,0,0.825-0.086,1.062-0.259c0.16-0.121,0.24-0.283,0.24-0.486c0-0.138-0.044-0.252-0.13-0.343
			c-0.091-0.086-0.294-0.166-0.609-0.24c-1.468-0.324-2.398-0.62-2.791-0.887c-0.544-0.372-0.816-0.888-0.816-1.548
			c0-0.596,0.235-1.097,0.706-1.502c0.471-0.406,1.2-0.609,2.189-0.609c0.941,0,1.641,0.153,2.099,0.46s0.772,0.76,0.945,1.36
			l-1.716,0.317c-0.074-0.268-0.213-0.473-0.418-0.615s-0.498-0.214-0.878-0.214c-0.479,0-0.822,0.067-1.03,0.201
			c-0.138,0.095-0.207,0.218-0.207,0.369c0,0.129,0.061,0.239,0.182,0.33c0.164,0.121,0.73,0.292,1.7,0.512s1.646,0.49,2.03,0.81
			c0.38,0.324,0.57,0.775,0.57,1.354c0,0.63-0.264,1.172-0.79,1.625c-0.527,0.454-1.307,0.68-2.339,0.68
			c-0.937,0-1.679-0.19-2.225-0.57S85.648,14.759,85.479,14.107z"/>
		<path fill="#F7EBCB" d="M93.499,8.258V6.574h1.82v1.684H93.499z M93.499,16.07V9.191h1.82v6.879H93.499z"/>
		<path fill="#F7EBCB" d="M96.543,14.107l1.827-0.279c0.077,0.354,0.235,0.623,0.473,0.807s0.57,0.275,0.997,0.275
			c0.471,0,0.825-0.086,1.062-0.259c0.16-0.121,0.24-0.283,0.24-0.486c0-0.138-0.044-0.252-0.13-0.343
			c-0.091-0.086-0.294-0.166-0.609-0.24c-1.468-0.324-2.398-0.62-2.791-0.887c-0.544-0.372-0.816-0.888-0.816-1.548
			c0-0.596,0.235-1.097,0.706-1.502c0.471-0.406,1.2-0.609,2.189-0.609c0.941,0,1.641,0.153,2.099,0.46s0.772,0.76,0.945,1.36
			l-1.716,0.317c-0.074-0.268-0.213-0.473-0.418-0.615s-0.498-0.214-0.878-0.214c-0.479,0-0.822,0.067-1.03,0.201
			c-0.138,0.095-0.207,0.218-0.207,0.369c0,0.129,0.061,0.239,0.182,0.33c0.164,0.121,0.73,0.292,1.7,0.512s1.646,0.49,2.03,0.81
			c0.38,0.324,0.57,0.775,0.57,1.354c0,0.63-0.264,1.172-0.79,1.625c-0.527,0.454-1.307,0.68-2.339,0.68
			c-0.937,0-1.679-0.19-2.225-0.57S96.712,14.759,96.543,14.107z"/>
		<path fill="#F7EBCB" d="M114.557,16.07h-1.69v-1.01c-0.28,0.393-0.612,0.686-0.994,0.877s-0.768,0.288-1.156,0.288
			c-0.79,0-1.467-0.318-2.03-0.955c-0.563-0.637-0.846-1.525-0.846-2.666c0-1.166,0.274-2.052,0.823-2.659
			c0.548-0.606,1.241-0.91,2.079-0.91c0.769,0,1.434,0.319,1.995,0.958v-3.42h1.819V16.07z M109.699,12.481
			c0,0.734,0.102,1.265,0.304,1.593c0.294,0.475,0.704,0.712,1.231,0.712c0.419,0,0.774-0.178,1.068-0.534s0.44-0.888,0.44-1.597
			c0-0.79-0.143-1.359-0.428-1.707c-0.284-0.348-0.649-0.521-1.095-0.521c-0.432,0-0.793,0.171-1.085,0.515
			C109.845,11.286,109.699,11.799,109.699,12.481z"/>
		<path fill="#F7EBCB" d="M120.335,13.88l1.813,0.305c-0.232,0.665-0.601,1.171-1.104,1.519c-0.503,0.348-1.132,0.521-1.888,0.521
			c-1.196,0-2.081-0.391-2.655-1.172c-0.454-0.626-0.681-1.416-0.681-2.371c0-1.14,0.298-2.033,0.894-2.678
			c0.597-0.646,1.35-0.968,2.261-0.968c1.023,0,1.831,0.338,2.423,1.014s0.874,1.711,0.849,3.106h-4.561
			c0.014,0.54,0.16,0.959,0.44,1.26c0.281,0.3,0.631,0.45,1.05,0.45c0.285,0,0.524-0.078,0.719-0.233S120.235,14.226,120.335,13.88z
			 M120.438,12.041c-0.013-0.527-0.148-0.927-0.408-1.202c-0.259-0.274-0.574-0.411-0.945-0.411c-0.397,0-0.726,0.145-0.984,0.434
			c-0.259,0.289-0.387,0.682-0.382,1.179H120.438z"/>
		<path fill="#F7EBCB" d="M133.724,16.07h-1.69v-1.01c-0.28,0.393-0.612,0.686-0.994,0.877s-0.768,0.288-1.156,0.288
			c-0.79,0-1.467-0.318-2.03-0.955c-0.563-0.637-0.846-1.525-0.846-2.666c0-1.166,0.274-2.052,0.823-2.659
			c0.548-0.606,1.241-0.91,2.079-0.91c0.769,0,1.434,0.319,1.995,0.958v-3.42h1.819V16.07z M128.866,12.481
			c0,0.734,0.102,1.265,0.304,1.593c0.294,0.475,0.704,0.712,1.231,0.712c0.419,0,0.774-0.178,1.068-0.534s0.44-0.888,0.44-1.597
			c0-0.79-0.143-1.359-0.428-1.707c-0.284-0.348-0.649-0.521-1.095-0.521c-0.432,0-0.793,0.171-1.085,0.515
			C129.012,11.286,128.866,11.799,128.866,12.481z"/>
		<path fill="#F7EBCB" d="M136.879,11.29l-1.651-0.298c0.186-0.665,0.505-1.157,0.958-1.477c0.453-0.319,1.127-0.479,2.021-0.479
			c0.812,0,1.416,0.096,1.813,0.288c0.397,0.192,0.677,0.436,0.839,0.732s0.242,0.839,0.242,1.629l-0.019,2.125
			c0,0.605,0.028,1.051,0.087,1.338s0.167,0.595,0.327,0.923h-1.801c-0.048-0.121-0.105-0.3-0.175-0.538
			c-0.03-0.108-0.052-0.179-0.064-0.214c-0.312,0.302-0.644,0.529-0.998,0.68c-0.354,0.151-0.731,0.227-1.133,0.227
			c-0.709,0-1.267-0.192-1.675-0.576s-0.612-0.87-0.612-1.458c0-0.389,0.093-0.735,0.278-1.04c0.186-0.305,0.446-0.538,0.781-0.7
			c0.334-0.162,0.816-0.303,1.447-0.424c0.851-0.16,1.44-0.309,1.769-0.447V11.4c0-0.35-0.087-0.599-0.26-0.749
			c-0.172-0.149-0.498-0.223-0.978-0.223c-0.324,0-0.576,0.063-0.758,0.191S136.991,10.97,136.879,11.29z M139.314,12.767
			c-0.233,0.078-0.603,0.17-1.107,0.278c-0.506,0.108-0.836,0.214-0.991,0.317c-0.237,0.168-0.356,0.382-0.356,0.641
			c0,0.255,0.095,0.475,0.285,0.661c0.189,0.186,0.432,0.279,0.726,0.279c0.328,0,0.641-0.108,0.938-0.324
			c0.221-0.164,0.365-0.365,0.435-0.603c0.047-0.156,0.071-0.451,0.071-0.888V12.767z"/>
		<path fill="#F7EBCB" d="M146.051,9.191v1.451h-1.243v2.772c0,0.562,0.012,0.889,0.035,0.981s0.078,0.169,0.162,0.23
			s0.187,0.091,0.308,0.091c0.168,0,0.412-0.059,0.732-0.175l0.155,1.412c-0.424,0.182-0.903,0.272-1.438,0.272
			c-0.328,0-0.624-0.055-0.887-0.165c-0.264-0.11-0.457-0.252-0.58-0.427c-0.123-0.175-0.208-0.412-0.256-0.709
			c-0.039-0.211-0.059-0.639-0.059-1.283v-2.999h-0.835V9.191h0.835V7.824l1.827-1.062v2.429H146.051z"/>
		<path fill="#F7EBCB" d="M146.894,12.533c0-0.604,0.148-1.189,0.447-1.755c0.298-0.565,0.72-0.998,1.266-1.295
			c0.547-0.298,1.156-0.447,1.83-0.447c1.041,0,1.894,0.338,2.559,1.014s0.997,1.53,0.997,2.562c0,1.041-0.335,1.903-1.007,2.588
			s-1.517,1.026-2.536,1.026c-0.63,0-1.231-0.142-1.804-0.427s-1.007-0.703-1.305-1.253
			C147.042,13.994,146.894,13.323,146.894,12.533z M148.759,12.63c0,0.682,0.162,1.205,0.486,1.567
			c0.323,0.363,0.723,0.544,1.198,0.544c0.475,0,0.873-0.182,1.194-0.544c0.322-0.363,0.483-0.889,0.483-1.581
			c0-0.673-0.161-1.191-0.483-1.554c-0.321-0.363-0.72-0.544-1.194-0.544c-0.476,0-0.875,0.182-1.198,0.544
			C148.921,11.426,148.759,11.948,148.759,12.63z"/>
		<path fill="#F7EBCB" d="M154.776,14.107l1.827-0.279c0.077,0.354,0.235,0.623,0.473,0.807s0.57,0.275,0.997,0.275
			c0.471,0,0.825-0.086,1.062-0.259c0.16-0.121,0.24-0.283,0.24-0.486c0-0.138-0.044-0.252-0.13-0.343
			c-0.091-0.086-0.294-0.166-0.609-0.24c-1.468-0.324-2.398-0.62-2.791-0.887c-0.544-0.372-0.816-0.888-0.816-1.548
			c0-0.596,0.235-1.097,0.706-1.502c0.471-0.406,1.2-0.609,2.189-0.609c0.941,0,1.641,0.153,2.099,0.46s0.772,0.76,0.945,1.36
			l-1.716,0.317c-0.074-0.268-0.213-0.473-0.418-0.615s-0.498-0.214-0.878-0.214c-0.479,0-0.822,0.067-1.03,0.201
			c-0.138,0.095-0.207,0.218-0.207,0.369c0,0.129,0.061,0.239,0.182,0.33c0.164,0.121,0.73,0.292,1.7,0.512s1.646,0.49,2.03,0.81
			c0.38,0.324,0.57,0.775,0.57,1.354c0,0.63-0.264,1.172-0.79,1.625c-0.527,0.454-1.307,0.68-2.339,0.68
			c-0.937,0-1.679-0.19-2.225-0.57S154.945,14.759,154.776,14.107z"/>
		<path fill="#F7EBCB" d="M165.62,9.191h1.937l1.646,4.884l1.606-4.884h1.885l-2.429,6.62l-0.435,1.198
			c-0.159,0.402-0.312,0.708-0.456,0.92c-0.146,0.211-0.312,0.383-0.499,0.515c-0.188,0.131-0.419,0.234-0.693,0.308
			c-0.274,0.073-0.584,0.11-0.93,0.11c-0.35,0-0.692-0.037-1.029-0.11l-0.162-1.425c0.285,0.056,0.542,0.084,0.771,0.084
			c0.423,0,0.736-0.124,0.939-0.373c0.203-0.248,0.358-0.564,0.466-0.949L165.62,9.191z"/>
		<path fill="#F7EBCB" d="M50.968,25.11h1.678v0.939c0.6-0.73,1.314-1.096,2.144-1.096c0.44,0,0.822,0.09,1.146,0.271
			s0.59,0.457,0.797,0.824c0.302-0.367,0.628-0.643,0.978-0.824c0.351-0.182,0.724-0.271,1.121-0.271
			c0.505,0,0.933,0.104,1.282,0.309s0.611,0.506,0.784,0.902c0.125,0.295,0.188,0.77,0.188,1.426v4.398h-1.82v-3.932
			c0-0.684-0.062-1.123-0.188-1.322c-0.169-0.26-0.428-0.389-0.777-0.389c-0.255,0-0.494,0.078-0.719,0.232
			c-0.225,0.156-0.387,0.385-0.486,0.684c-0.099,0.301-0.148,0.775-0.148,1.422v3.305h-1.82v-3.771c0-0.668-0.032-1.1-0.098-1.295
			c-0.064-0.193-0.165-0.338-0.301-0.434s-0.32-0.143-0.554-0.143c-0.281,0-0.533,0.076-0.758,0.227
			c-0.225,0.152-0.386,0.369-0.482,0.654c-0.098,0.285-0.146,0.758-0.146,1.418v3.344h-1.82V25.11z"/>
		<path fill="#F7EBCB" d="M66.882,29.8l1.813,0.305c-0.232,0.664-0.601,1.17-1.104,1.518c-0.503,0.348-1.132,0.521-1.888,0.521
			c-1.196,0-2.081-0.391-2.655-1.172c-0.454-0.627-0.681-1.416-0.681-2.371c0-1.141,0.298-2.033,0.894-2.678
			c0.597-0.646,1.35-0.969,2.261-0.969c1.023,0,1.831,0.338,2.423,1.014s0.874,1.711,0.849,3.105h-4.561
			c0.014,0.541,0.16,0.961,0.44,1.26c0.281,0.301,0.631,0.451,1.05,0.451c0.285,0,0.524-0.078,0.719-0.234
			C66.636,30.396,66.782,30.146,66.882,29.8z M66.985,27.96c-0.013-0.527-0.148-0.928-0.408-1.201
			c-0.259-0.275-0.574-0.412-0.945-0.412c-0.397,0-0.726,0.145-0.984,0.434s-0.387,0.684-0.382,1.18H66.985z"/>
		<path fill="#F7EBCB" d="M72.058,25.11v6.664c0,0.877-0.058,1.496-0.172,1.855c-0.114,0.361-0.334,0.643-0.66,0.846
			s-0.742,0.305-1.247,0.305c-0.182,0-0.377-0.016-0.586-0.049c-0.21-0.031-0.436-0.08-0.677-0.146l0.317-1.553
			c0.086,0.016,0.167,0.031,0.242,0.041c0.076,0.012,0.146,0.016,0.211,0.016c0.186,0,0.338-0.039,0.456-0.119
			c0.119-0.08,0.198-0.176,0.237-0.289c0.038-0.111,0.058-0.447,0.058-1.01V25.11H72.058z M70.237,24.177v-1.684h1.82v1.684H70.237z
			"/>
		<path fill="#F7EBCB" d="M73.541,28.452c0-0.605,0.148-1.189,0.447-1.756c0.298-0.564,0.72-0.998,1.266-1.295
			c0.547-0.299,1.156-0.447,1.83-0.447c1.041,0,1.894,0.338,2.559,1.014s0.997,1.529,0.997,2.562c0,1.041-0.335,1.902-1.007,2.588
			c-0.672,0.684-1.517,1.025-2.536,1.025c-0.63,0-1.231-0.143-1.804-0.428s-1.007-0.701-1.305-1.252
			C73.689,29.913,73.541,29.241,73.541,28.452z M75.406,28.55c0,0.682,0.162,1.203,0.486,1.566c0.323,0.363,0.723,0.545,1.198,0.545
			c0.475,0,0.873-0.182,1.194-0.545c0.322-0.363,0.483-0.889,0.483-1.58c0-0.674-0.161-1.191-0.483-1.555
			c-0.321-0.363-0.72-0.545-1.194-0.545c-0.476,0-0.875,0.182-1.198,0.545C75.568,27.345,75.406,27.866,75.406,28.55z"/>
		<path fill="#F7EBCB" d="M83.808,31.989h-1.82V25.11h1.691v0.977c0.289-0.461,0.549-0.766,0.78-0.912
			c0.23-0.146,0.493-0.221,0.787-0.221c0.414,0,0.813,0.115,1.198,0.344l-0.563,1.586c-0.307-0.197-0.592-0.297-0.855-0.297
			c-0.255,0-0.471,0.07-0.647,0.211c-0.177,0.139-0.316,0.393-0.418,0.76s-0.152,1.137-0.152,2.307V31.989z"/>
		<path fill="#F7EBCB" d="M88.588,27.208l-1.651-0.297c0.186-0.666,0.505-1.158,0.958-1.479c0.453-0.318,1.127-0.479,2.021-0.479
			c0.812,0,1.416,0.096,1.813,0.289c0.397,0.191,0.677,0.436,0.839,0.73c0.162,0.297,0.242,0.84,0.242,1.629l-0.019,2.125
			c0,0.605,0.028,1.051,0.087,1.338s0.167,0.596,0.327,0.924h-1.801c-0.048-0.121-0.105-0.301-0.175-0.539
			c-0.03-0.107-0.052-0.178-0.064-0.213c-0.312,0.303-0.644,0.529-0.998,0.68c-0.354,0.152-0.731,0.227-1.133,0.227
			c-0.709,0-1.267-0.191-1.675-0.576s-0.612-0.869-0.612-1.457c0-0.389,0.093-0.736,0.278-1.039
			c0.186-0.305,0.446-0.539,0.781-0.701c0.334-0.16,0.816-0.303,1.447-0.424c0.851-0.16,1.44-0.309,1.769-0.447v-0.18
			c0-0.352-0.087-0.6-0.26-0.75c-0.172-0.148-0.498-0.223-0.978-0.223c-0.324,0-0.576,0.064-0.758,0.191S88.7,26.89,88.588,27.208z
			 M91.023,28.685c-0.233,0.078-0.603,0.172-1.107,0.279c-0.506,0.107-0.836,0.213-0.991,0.316c-0.237,0.17-0.356,0.383-0.356,0.643
			c0,0.254,0.095,0.475,0.285,0.66c0.189,0.186,0.432,0.279,0.726,0.279c0.328,0,0.641-0.109,0.938-0.324
			c0.221-0.164,0.365-0.365,0.435-0.604c0.047-0.154,0.071-0.451,0.071-0.887V28.685z"/>
		<path fill="#F7EBCB" d="M104.6,31.989h-1.69v-1.012c-0.28,0.393-0.612,0.686-0.994,0.879c-0.382,0.191-0.768,0.287-1.156,0.287
			c-0.79,0-1.467-0.318-2.03-0.955s-0.846-1.525-0.846-2.666c0-1.166,0.274-2.051,0.823-2.658c0.548-0.607,1.241-0.91,2.079-0.91
			c0.769,0,1.434,0.32,1.995,0.959v-3.42h1.819V31.989z M99.742,28.399c0,0.734,0.102,1.266,0.304,1.594
			c0.294,0.475,0.704,0.713,1.231,0.713c0.419,0,0.774-0.178,1.068-0.535c0.294-0.355,0.44-0.887,0.44-1.596
			c0-0.791-0.143-1.359-0.428-1.707c-0.284-0.348-0.649-0.521-1.095-0.521c-0.432,0-0.793,0.172-1.085,0.516
			C99.888,27.204,99.742,27.718,99.742,28.399z"/>
		<path fill="#F7EBCB" d="M110.378,29.8l1.813,0.305c-0.232,0.664-0.601,1.17-1.104,1.518c-0.503,0.348-1.132,0.521-1.888,0.521
			c-1.196,0-2.081-0.391-2.655-1.172c-0.454-0.627-0.681-1.416-0.681-2.371c0-1.141,0.298-2.033,0.894-2.678
			c0.597-0.646,1.35-0.969,2.261-0.969c1.023,0,1.831,0.338,2.423,1.014s0.874,1.711,0.849,3.105h-4.561
			c0.014,0.541,0.16,0.961,0.44,1.26c0.281,0.301,0.631,0.451,1.05,0.451c0.285,0,0.524-0.078,0.719-0.234
			C110.132,30.396,110.278,30.146,110.378,29.8z M110.481,27.96c-0.013-0.527-0.148-0.928-0.408-1.201
			c-0.259-0.275-0.574-0.412-0.945-0.412c-0.397,0-0.726,0.145-0.984,0.434s-0.387,0.684-0.382,1.18H110.481z"/>
		<path fill="#F7EBCB" d="M117.406,25.11h1.697v1.01c0.22-0.346,0.518-0.627,0.894-0.842c0.376-0.217,0.792-0.324,1.25-0.324
			c0.799,0,1.477,0.312,2.034,0.939c0.557,0.627,0.835,1.498,0.835,2.617c0,1.148-0.28,2.041-0.842,2.678s-1.241,0.955-2.04,0.955
			c-0.38,0-0.725-0.074-1.033-0.227c-0.309-0.15-0.634-0.41-0.975-0.777v3.465h-1.82V25.11z M119.207,28.433
			c0,0.773,0.153,1.344,0.46,1.713s0.68,0.555,1.12,0.555c0.424,0,0.775-0.17,1.056-0.51c0.281-0.338,0.422-0.895,0.422-1.668
			c0-0.721-0.146-1.256-0.435-1.605s-0.647-0.525-1.075-0.525c-0.444,0-0.813,0.172-1.107,0.516S119.207,27.759,119.207,28.433z"/>
		<path fill="#F7EBCB" d="M127.304,31.989h-1.82V25.11h1.691v0.977c0.289-0.461,0.549-0.766,0.78-0.912
			c0.23-0.146,0.493-0.221,0.787-0.221c0.414,0,0.813,0.115,1.198,0.344l-0.563,1.586c-0.307-0.197-0.592-0.297-0.855-0.297
			c-0.255,0-0.471,0.07-0.647,0.211c-0.177,0.139-0.316,0.393-0.418,0.76s-0.152,1.137-0.152,2.307V31.989z"/>
		<path fill="#F7EBCB" d="M130.303,28.452c0-0.605,0.148-1.189,0.447-1.756c0.298-0.564,0.72-0.998,1.266-1.295
			c0.547-0.299,1.156-0.447,1.83-0.447c1.041,0,1.894,0.338,2.559,1.014s0.997,1.529,0.997,2.562c0,1.041-0.335,1.902-1.007,2.588
			c-0.672,0.684-1.517,1.025-2.536,1.025c-0.63,0-1.231-0.143-1.804-0.428s-1.007-0.701-1.305-1.252
			C130.451,29.913,130.303,29.241,130.303,28.452z M132.168,28.55c0,0.682,0.162,1.203,0.486,1.566
			c0.323,0.363,0.723,0.545,1.198,0.545c0.475,0,0.873-0.182,1.194-0.545c0.322-0.363,0.483-0.889,0.483-1.58
			c0-0.674-0.161-1.191-0.483-1.555c-0.321-0.363-0.72-0.545-1.194-0.545c-0.476,0-0.875,0.182-1.198,0.545
			C132.33,27.345,132.168,27.866,132.168,28.55z"/>
		<path fill="#F7EBCB" d="M144.825,27.144l-1.794,0.324c-0.061-0.359-0.198-0.629-0.412-0.811c-0.213-0.182-0.491-0.271-0.832-0.271
			c-0.453,0-0.815,0.156-1.085,0.469c-0.27,0.314-0.404,0.838-0.404,1.572c0,0.814,0.137,1.393,0.411,1.729
			c0.274,0.338,0.643,0.506,1.104,0.506c0.345,0,0.628-0.098,0.849-0.295c0.22-0.197,0.375-0.535,0.466-1.014l1.788,0.305
			c-0.186,0.82-0.542,1.439-1.069,1.859c-0.526,0.418-1.232,0.627-2.118,0.627c-1.006,0-1.808-0.316-2.406-0.951
			c-0.598-0.635-0.896-1.514-0.896-2.637c0-1.137,0.3-2.02,0.9-2.652c0.6-0.633,1.412-0.949,2.436-0.949
			c0.837,0,1.503,0.18,1.998,0.541C144.254,25.856,144.609,26.405,144.825,27.144z"/>
		<path fill="#F7EBCB" d="M150.188,29.8l1.813,0.305c-0.232,0.664-0.601,1.17-1.104,1.518c-0.503,0.348-1.132,0.521-1.888,0.521
			c-1.196,0-2.081-0.391-2.655-1.172c-0.454-0.627-0.681-1.416-0.681-2.371c0-1.141,0.298-2.033,0.894-2.678
			c0.597-0.646,1.35-0.969,2.261-0.969c1.023,0,1.831,0.338,2.423,1.014s0.874,1.711,0.849,3.105h-4.561
			c0.014,0.541,0.16,0.961,0.44,1.26c0.281,0.301,0.631,0.451,1.05,0.451c0.285,0,0.524-0.078,0.719-0.234
			C149.942,30.396,150.089,30.146,150.188,29.8z M150.292,27.96c-0.013-0.527-0.148-0.928-0.408-1.201
			c-0.259-0.275-0.574-0.412-0.945-0.412c-0.397,0-0.726,0.145-0.984,0.434s-0.387,0.684-0.382,1.18H150.292z"/>
		<path fill="#F7EBCB" d="M152.941,30.026l1.827-0.279c0.077,0.354,0.235,0.623,0.473,0.807s0.57,0.275,0.997,0.275
			c0.471,0,0.825-0.086,1.062-0.26c0.16-0.121,0.24-0.281,0.24-0.484c0-0.139-0.044-0.254-0.13-0.344
			c-0.091-0.086-0.294-0.166-0.609-0.24c-1.468-0.324-2.398-0.619-2.791-0.887c-0.544-0.371-0.816-0.889-0.816-1.549
			c0-0.596,0.235-1.096,0.706-1.502s1.2-0.609,2.189-0.609c0.941,0,1.641,0.154,2.099,0.461s0.772,0.76,0.945,1.359l-1.716,0.316
			c-0.074-0.268-0.213-0.473-0.418-0.615s-0.498-0.213-0.878-0.213c-0.479,0-0.822,0.066-1.03,0.201
			c-0.138,0.094-0.207,0.217-0.207,0.369c0,0.129,0.061,0.238,0.182,0.33c0.164,0.121,0.73,0.291,1.7,0.512s1.646,0.49,2.03,0.809
			c0.38,0.324,0.57,0.775,0.57,1.355c0,0.629-0.264,1.172-0.79,1.625c-0.527,0.453-1.307,0.68-2.339,0.68
			c-0.937,0-1.679-0.189-2.225-0.57C153.468,31.194,153.11,30.679,152.941,30.026z"/>
		<path fill="#F7EBCB" d="M160.54,28.452c0-0.605,0.148-1.189,0.447-1.756c0.298-0.564,0.72-0.998,1.266-1.295
			c0.547-0.299,1.156-0.447,1.83-0.447c1.041,0,1.894,0.338,2.559,1.014s0.997,1.529,0.997,2.562c0,1.041-0.335,1.902-1.007,2.588
			c-0.672,0.684-1.517,1.025-2.536,1.025c-0.63,0-1.231-0.143-1.804-0.428s-1.007-0.701-1.305-1.252
			C160.688,29.913,160.54,29.241,160.54,28.452z M162.405,28.55c0,0.682,0.162,1.203,0.486,1.566
			c0.323,0.363,0.723,0.545,1.198,0.545c0.475,0,0.873-0.182,1.194-0.545c0.322-0.363,0.483-0.889,0.483-1.58
			c0-0.674-0.161-1.191-0.483-1.555c-0.321-0.363-0.72-0.545-1.194-0.545c-0.476,0-0.875,0.182-1.198,0.545
			C162.567,27.345,162.405,27.866,162.405,28.55z"/>
		<path fill="#F7EBCB" d="M168.423,30.026l1.827-0.279c0.077,0.354,0.235,0.623,0.473,0.807s0.57,0.275,0.997,0.275
			c0.471,0,0.825-0.086,1.062-0.26c0.16-0.121,0.24-0.281,0.24-0.484c0-0.139-0.044-0.254-0.13-0.344
			c-0.091-0.086-0.294-0.166-0.609-0.24c-1.468-0.324-2.398-0.619-2.791-0.887c-0.544-0.371-0.816-0.889-0.816-1.549
			c0-0.596,0.235-1.096,0.706-1.502s1.2-0.609,2.189-0.609c0.941,0,1.641,0.154,2.099,0.461s0.772,0.76,0.945,1.359l-1.716,0.316
			c-0.074-0.268-0.213-0.473-0.418-0.615s-0.498-0.213-0.878-0.213c-0.479,0-0.822,0.066-1.03,0.201
			c-0.138,0.094-0.207,0.217-0.207,0.369c0,0.129,0.061,0.238,0.182,0.33c0.164,0.121,0.73,0.291,1.7,0.512s1.646,0.49,2.03,0.809
			c0.38,0.324,0.57,0.775,0.57,1.355c0,0.629-0.264,1.172-0.79,1.625c-0.527,0.453-1.307,0.68-2.339,0.68
			c-0.937,0-1.679-0.189-2.225-0.57C168.949,31.194,168.592,30.679,168.423,30.026z"/>
	</g>
	<path fill="#F7EBCB" d="M20.079,15.14l-2.523,0.277c-0.062-0.52-0.223-0.902-0.482-1.15c-0.26-0.246-0.597-0.371-1.011-0.371
		c-0.551,0-1.016,0.248-1.396,0.742c-0.38,0.496-0.62,1.525-0.719,3.09c0.649-0.766,1.456-1.15,2.421-1.15
		c1.089,0,2.021,0.414,2.798,1.244c0.775,0.828,1.164,1.898,1.164,3.208c0,1.393-0.408,2.508-1.225,3.35s-1.864,1.262-3.146,1.262
		c-1.373,0-2.501-0.533-3.386-1.6c-0.885-1.068-1.327-2.816-1.327-5.248c0-2.492,0.461-4.289,1.383-5.389
		c0.922-1.102,2.118-1.652,3.59-1.652c1.033,0,1.889,0.289,2.565,0.867C19.463,13.201,19.894,14.039,20.079,15.14z M14.17,20.828
		c0,0.847,0.194,1.501,0.585,1.96c0.389,0.461,0.834,0.691,1.336,0.691c0.482,0,0.884-0.188,1.205-0.566
		c0.322-0.377,0.482-0.994,0.482-1.855c0-0.882-0.173-1.531-0.52-1.943c-0.346-0.41-0.779-0.617-1.299-0.617
		c-0.5,0-0.924,0.197-1.271,0.59S14.17,20.06,14.17,20.828z"/>
</g>
</svg>
