<?xml version="1.0" encoding="utf-8"?>
<!-- Generator: Adobe Illustrator 16.0.0, SVG Export Plug-In . SVG Version: 6.00 Build 0)  -->
<!DOCTYPE svg PUBLIC "-//W3C//DTD SVG 1.1//EN" "http://www.w3.org/Graphics/SVG/1.1/DTD/svg11.dtd">
<svg version="1.1" id="Layer_1" xmlns="http://www.w3.org/2000/svg" xmlns:xlink="http://www.w3.org/1999/xlink" x="0px" y="0px"
	 width="199.555px" height="38.134px" viewBox="0 0 199.555 38.134" enable-background="new 0 0 199.555 38.134"
	 xml:space="preserve">
<g>
	<line id="XMLID_1_" fill="#31A6AE" x1="0" y1="38.134" x2="0" y2="0"/>
</g>
<g>
	<rect id="XMLID_5047_" y="0" fill="#A75FB9" width="199.555" height="38.134"/>
	<rect id="XMLID_5065_" x="34.809" y="0" fill="#51564D" width="156.02" height="38.134"/>
	<g>
		<path fill="#F7EBCB" d="M49.634,14.668h3.504c0.79,0,1.393,0.061,1.808,0.181c0.557,0.164,1.033,0.456,1.431,0.875
			s0.7,0.932,0.907,1.539c0.207,0.606,0.311,1.354,0.311,2.244c0,0.782-0.097,1.455-0.291,2.02c-0.237,0.691-0.576,1.25-1.018,1.678
			c-0.332,0.324-0.781,0.576-1.347,0.758c-0.424,0.135-0.989,0.201-1.697,0.201h-3.607V14.668z M51.551,16.274v6.289h1.432
			c0.535,0,0.922-0.029,1.159-0.09c0.311-0.078,0.569-0.211,0.774-0.396s0.372-0.49,0.502-0.916
			c0.129-0.425,0.194-1.005,0.194-1.739c0-0.734-0.065-1.298-0.194-1.691c-0.13-0.393-0.312-0.699-0.544-0.919
			c-0.233-0.22-0.529-0.369-0.888-0.447c-0.268-0.06-0.793-0.09-1.574-0.09H51.551z"/>
		<path fill="#F7EBCB" d="M59.207,16.352v-1.684h1.82v1.684H59.207z M59.207,24.163v-6.878h1.82v6.878H59.207z"/>
		<path fill="#F7EBCB" d="M64.253,19.383l-1.651-0.298c0.186-0.665,0.505-1.157,0.958-1.477c0.453-0.319,1.127-0.479,2.021-0.479
			c0.812,0,1.416,0.096,1.813,0.288c0.397,0.192,0.677,0.436,0.839,0.732c0.162,0.295,0.242,0.838,0.242,1.629l-0.019,2.125
			c0,0.604,0.028,1.051,0.087,1.338s0.167,0.594,0.327,0.922H67.07c-0.048-0.121-0.105-0.301-0.175-0.537
			c-0.03-0.107-0.052-0.18-0.064-0.215c-0.312,0.303-0.644,0.529-0.998,0.682c-0.354,0.15-0.731,0.227-1.133,0.227
			c-0.709,0-1.267-0.193-1.675-0.576c-0.408-0.385-0.612-0.871-0.612-1.459c0-0.389,0.093-0.734,0.278-1.039
			c0.186-0.304,0.446-0.537,0.781-0.699c0.334-0.162,0.816-0.304,1.447-0.425c0.851-0.159,1.44-0.309,1.769-0.446v-0.182
			c0-0.35-0.087-0.6-0.26-0.748c-0.172-0.149-0.498-0.224-0.978-0.224c-0.324,0-0.576,0.063-0.758,0.19
			C64.512,18.84,64.365,19.064,64.253,19.383z M66.688,20.861c-0.233,0.077-0.603,0.169-1.107,0.277
			c-0.506,0.109-0.836,0.215-0.991,0.318c-0.237,0.168-0.356,0.383-0.356,0.641c0,0.256,0.095,0.475,0.285,0.66
			c0.189,0.188,0.432,0.279,0.726,0.279c0.328,0,0.641-0.107,0.938-0.324c0.221-0.164,0.365-0.365,0.435-0.602
			c0.047-0.156,0.071-0.451,0.071-0.889V20.861z"/>
		<path fill="#F7EBCB" d="M70.103,24.616l2.079,0.254c0.034,0.24,0.114,0.408,0.239,0.498c0.173,0.129,0.444,0.193,0.816,0.193
			c0.475,0,0.831-0.07,1.068-0.213c0.16-0.096,0.281-0.248,0.363-0.459c0.056-0.152,0.084-0.43,0.084-0.836V23.05
			c-0.544,0.742-1.23,1.113-2.06,1.113c-0.925,0-1.656-0.391-2.196-1.172c-0.423-0.617-0.635-1.387-0.635-2.306
			c0-1.152,0.277-2.033,0.832-2.643c0.556-0.609,1.245-0.913,2.07-0.913c0.851,0,1.552,0.374,2.104,1.12v-0.965h1.704v6.173
			c0,0.811-0.067,1.418-0.201,1.82c-0.134,0.4-0.321,0.717-0.563,0.945s-0.564,0.408-0.969,0.537
			c-0.403,0.129-0.914,0.193-1.531,0.193c-1.166,0-1.993-0.199-2.481-0.598c-0.487-0.4-0.731-0.906-0.731-1.52
			C70.096,24.776,70.098,24.702,70.103,24.616z M71.728,20.582c0,0.73,0.142,1.263,0.425,1.603c0.282,0.34,0.632,0.508,1.046,0.508
			c0.444,0,0.82-0.174,1.127-0.521s0.46-0.861,0.46-1.544c0-0.712-0.146-1.24-0.44-1.586s-0.665-0.519-1.114-0.519
			c-0.436,0-0.796,0.169-1.078,0.509C71.869,19.369,71.728,19.886,71.728,20.582z"/>
		<path fill="#F7EBCB" d="M80.116,24.163h-1.82v-6.878h1.691v0.979c0.289-0.462,0.549-0.767,0.78-0.914
			c0.23-0.147,0.493-0.22,0.787-0.22c0.414,0,0.813,0.114,1.198,0.343l-0.563,1.587c-0.307-0.199-0.592-0.299-0.855-0.299
			c-0.255,0-0.471,0.07-0.647,0.211s-0.316,0.395-0.418,0.761c-0.102,0.367-0.152,1.136-0.152,2.305V24.163z"/>
		<path fill="#F7EBCB" d="M84.896,19.383l-1.651-0.298c0.186-0.665,0.505-1.157,0.958-1.477c0.453-0.319,1.127-0.479,2.021-0.479
			c0.812,0,1.416,0.096,1.813,0.288c0.397,0.192,0.677,0.436,0.839,0.732c0.162,0.295,0.242,0.838,0.242,1.629l-0.019,2.125
			c0,0.604,0.028,1.051,0.087,1.338s0.167,0.594,0.327,0.922h-1.801c-0.048-0.121-0.105-0.301-0.175-0.537
			c-0.03-0.107-0.052-0.18-0.064-0.215c-0.312,0.303-0.644,0.529-0.998,0.682c-0.354,0.15-0.731,0.227-1.133,0.227
			c-0.709,0-1.267-0.193-1.675-0.576c-0.408-0.385-0.612-0.871-0.612-1.459c0-0.389,0.093-0.734,0.278-1.039
			c0.186-0.304,0.446-0.537,0.781-0.699c0.334-0.162,0.816-0.304,1.447-0.425c0.851-0.159,1.44-0.309,1.769-0.446v-0.182
			c0-0.35-0.087-0.6-0.26-0.748c-0.172-0.149-0.498-0.224-0.978-0.224c-0.324,0-0.576,0.063-0.758,0.19
			C85.155,18.84,85.009,19.064,84.896,19.383z M87.332,20.861c-0.233,0.077-0.603,0.169-1.107,0.277
			c-0.506,0.109-0.836,0.215-0.991,0.318c-0.237,0.168-0.356,0.383-0.356,0.641c0,0.256,0.095,0.475,0.285,0.66
			c0.189,0.188,0.432,0.279,0.726,0.279c0.328,0,0.641-0.107,0.938-0.324c0.221-0.164,0.365-0.365,0.435-0.602
			c0.047-0.156,0.071-0.451,0.071-0.889V20.861z"/>
		<path fill="#F7EBCB" d="M90.778,17.285h1.678v0.939c0.6-0.73,1.314-1.095,2.144-1.095c0.44,0,0.822,0.09,1.146,0.272
			c0.324,0.181,0.59,0.456,0.797,0.823c0.302-0.367,0.628-0.642,0.978-0.823c0.351-0.182,0.724-0.272,1.121-0.272
			c0.505,0,0.933,0.103,1.282,0.308s0.611,0.506,0.784,0.903c0.125,0.294,0.188,0.769,0.188,1.425v4.398h-1.82v-3.931
			c0-0.682-0.062-1.123-0.188-1.321c-0.169-0.259-0.428-0.389-0.777-0.389c-0.255,0-0.494,0.077-0.719,0.233
			c-0.225,0.155-0.387,0.383-0.486,0.684c-0.099,0.3-0.148,0.773-0.148,1.422v3.302h-1.82v-3.769c0-0.67-0.032-1.102-0.098-1.296
			c-0.064-0.194-0.165-0.339-0.301-0.434s-0.32-0.143-0.554-0.143c-0.281,0-0.533,0.075-0.758,0.227s-0.386,0.369-0.482,0.654
			c-0.098,0.285-0.146,0.758-0.146,1.419v3.341h-1.82V17.285z"/>
		<path fill="#F7EBCB" d="M104.069,19.383l-1.651-0.298c0.186-0.665,0.505-1.157,0.958-1.477c0.453-0.319,1.127-0.479,2.021-0.479
			c0.812,0,1.416,0.096,1.813,0.288c0.397,0.192,0.677,0.436,0.839,0.732c0.162,0.295,0.242,0.838,0.242,1.629l-0.019,2.125
			c0,0.604,0.028,1.051,0.087,1.338s0.167,0.594,0.327,0.922h-1.801c-0.048-0.121-0.105-0.301-0.175-0.537
			c-0.03-0.107-0.052-0.18-0.064-0.215c-0.312,0.303-0.644,0.529-0.998,0.682c-0.354,0.15-0.731,0.227-1.133,0.227
			c-0.709,0-1.267-0.193-1.675-0.576c-0.408-0.385-0.612-0.871-0.612-1.459c0-0.389,0.093-0.734,0.278-1.039
			c0.186-0.304,0.446-0.537,0.781-0.699c0.334-0.162,0.816-0.304,1.447-0.425c0.851-0.159,1.44-0.309,1.769-0.446v-0.182
			c0-0.35-0.087-0.6-0.26-0.748c-0.172-0.149-0.498-0.224-0.978-0.224c-0.324,0-0.576,0.063-0.758,0.19
			C104.328,18.84,104.182,19.064,104.069,19.383z M106.505,20.861c-0.233,0.077-0.603,0.169-1.107,0.277
			c-0.506,0.109-0.836,0.215-0.991,0.318c-0.237,0.168-0.356,0.383-0.356,0.641c0,0.256,0.095,0.475,0.285,0.66
			c0.189,0.188,0.432,0.279,0.726,0.279c0.328,0,0.641-0.107,0.938-0.324c0.221-0.164,0.365-0.365,0.435-0.602
			c0.047-0.156,0.071-0.451,0.071-0.889V20.861z"/>
		<path fill="#F7EBCB" d="M111.829,24.163h-1.82v-6.878h1.691v0.979c0.289-0.462,0.549-0.767,0.78-0.914
			c0.23-0.147,0.493-0.22,0.787-0.22c0.414,0,0.813,0.114,1.198,0.343l-0.563,1.587c-0.307-0.199-0.592-0.299-0.855-0.299
			c-0.255,0-0.471,0.07-0.647,0.211s-0.316,0.395-0.418,0.761c-0.102,0.367-0.152,1.136-0.152,2.305V24.163z"/>
		<path fill="#F7EBCB" d="M118.883,17.285h1.697v1.01c0.22-0.345,0.518-0.625,0.894-0.841s0.792-0.324,1.25-0.324
			c0.799,0,1.477,0.313,2.034,0.938c0.557,0.627,0.835,1.499,0.835,2.617c0,1.148-0.28,2.041-0.842,2.679
			c-0.562,0.637-1.241,0.955-2.04,0.955c-0.38,0-0.725-0.076-1.033-0.227c-0.309-0.152-0.634-0.41-0.975-0.777v3.465h-1.82V17.285z
			 M120.684,20.607c0,0.773,0.153,1.345,0.46,1.714s0.68,0.553,1.12,0.553c0.424,0,0.775-0.17,1.056-0.508
			c0.281-0.34,0.422-0.895,0.422-1.667c0-0.722-0.146-1.258-0.435-1.607s-0.647-0.523-1.075-0.523c-0.444,0-0.813,0.171-1.107,0.514
			C120.83,19.425,120.684,19.934,120.684,20.607z"/>
		<path fill="#F7EBCB" d="M128.78,24.163h-1.82v-6.878h1.691v0.979c0.289-0.462,0.549-0.767,0.78-0.914
			c0.23-0.147,0.493-0.22,0.787-0.22c0.414,0,0.813,0.114,1.198,0.343l-0.563,1.587c-0.307-0.199-0.592-0.299-0.855-0.299
			c-0.255,0-0.471,0.07-0.647,0.211s-0.316,0.395-0.418,0.761c-0.102,0.367-0.152,1.136-0.152,2.305V24.163z"/>
		<path fill="#F7EBCB" d="M131.779,20.626c0-0.604,0.148-1.189,0.447-1.755c0.298-0.565,0.72-0.998,1.266-1.295
			c0.547-0.298,1.156-0.447,1.83-0.447c1.041,0,1.894,0.338,2.559,1.014s0.997,1.53,0.997,2.562c0,1.041-0.335,1.904-1.007,2.587
			c-0.672,0.686-1.517,1.027-2.536,1.027c-0.63,0-1.231-0.143-1.804-0.428s-1.007-0.703-1.305-1.254
			C131.928,22.087,131.779,21.417,131.779,20.626z M133.645,20.724c0,0.681,0.162,1.205,0.486,1.568
			c0.323,0.361,0.723,0.543,1.198,0.543c0.475,0,0.873-0.182,1.194-0.543c0.322-0.363,0.483-0.891,0.483-1.582
			c0-0.673-0.161-1.191-0.483-1.554c-0.321-0.362-0.72-0.544-1.194-0.544c-0.476,0-0.875,0.182-1.198,0.544
			C133.807,19.519,133.645,20.042,133.645,20.724z"/>
		<path fill="#F7EBCB" d="M146.302,19.318l-1.794,0.324c-0.061-0.357-0.198-0.628-0.412-0.81c-0.213-0.181-0.491-0.272-0.832-0.272
			c-0.453,0-0.815,0.157-1.085,0.471c-0.27,0.312-0.404,0.836-0.404,1.57c0,0.816,0.137,1.392,0.411,1.73
			c0.274,0.336,0.643,0.504,1.104,0.504c0.345,0,0.628-0.098,0.849-0.295c0.22-0.195,0.375-0.533,0.466-1.014l1.788,0.305
			c-0.186,0.82-0.542,1.441-1.069,1.859c-0.526,0.42-1.232,0.629-2.118,0.629c-1.006,0-1.808-0.318-2.406-0.953
			c-0.598-0.635-0.896-1.514-0.896-2.636c0-1.135,0.3-2.02,0.9-2.652c0.6-0.632,1.412-0.948,2.436-0.948
			c0.837,0,1.503,0.18,1.998,0.541C145.73,18.031,146.086,18.58,146.302,19.318z"/>
		<path fill="#F7EBCB" d="M151.665,21.974l1.813,0.305c-0.232,0.666-0.601,1.172-1.104,1.52c-0.503,0.348-1.132,0.521-1.888,0.521
			c-1.196,0-2.081-0.391-2.655-1.174c-0.454-0.625-0.681-1.416-0.681-2.37c0-1.14,0.298-2.032,0.894-2.679
			c0.597-0.645,1.35-0.968,2.261-0.968c1.023,0,1.831,0.338,2.423,1.014s0.874,1.711,0.849,3.106h-4.561
			c0.014,0.539,0.16,0.959,0.44,1.26c0.281,0.299,0.631,0.449,1.05,0.449c0.285,0,0.524-0.078,0.719-0.232
			C151.419,22.569,151.565,22.319,151.665,21.974z M151.769,20.134c-0.013-0.526-0.148-0.927-0.408-1.201
			c-0.259-0.273-0.574-0.411-0.945-0.411c-0.397,0-0.726,0.145-0.984,0.435c-0.259,0.289-0.387,0.682-0.382,1.178H151.769z"/>
		<path fill="#F7EBCB" d="M154.418,22.2l1.827-0.277c0.077,0.354,0.235,0.623,0.473,0.807s0.57,0.273,0.997,0.273
			c0.471,0,0.825-0.086,1.062-0.258c0.16-0.121,0.24-0.283,0.24-0.486c0-0.139-0.044-0.252-0.13-0.344
			c-0.091-0.086-0.294-0.166-0.609-0.238c-1.468-0.324-2.398-0.621-2.791-0.888c-0.544-0.371-0.816-0.887-0.816-1.548
			c0-0.596,0.235-1.097,0.706-1.502c0.471-0.406,1.2-0.609,2.189-0.609c0.941,0,1.641,0.153,2.099,0.46s0.772,0.76,0.945,1.359
			l-1.716,0.318c-0.074-0.268-0.213-0.473-0.418-0.615s-0.498-0.215-0.878-0.215c-0.479,0-0.822,0.068-1.03,0.201
			c-0.138,0.096-0.207,0.219-0.207,0.369c0,0.13,0.061,0.24,0.182,0.33c0.164,0.121,0.73,0.292,1.7,0.512
			c0.97,0.221,1.646,0.49,2.03,0.811c0.38,0.324,0.57,0.775,0.57,1.353c0,0.631-0.264,1.172-0.79,1.625
			c-0.527,0.455-1.307,0.682-2.339,0.682c-0.937,0-1.679-0.191-2.225-0.57C154.944,23.368,154.587,22.853,154.418,22.2z"/>
		<path fill="#F7EBCB" d="M162.017,20.626c0-0.604,0.148-1.189,0.447-1.755c0.298-0.565,0.72-0.998,1.266-1.295
			c0.547-0.298,1.156-0.447,1.83-0.447c1.041,0,1.894,0.338,2.559,1.014s0.997,1.53,0.997,2.562c0,1.041-0.335,1.904-1.007,2.587
			c-0.672,0.686-1.517,1.027-2.536,1.027c-0.63,0-1.231-0.143-1.804-0.428s-1.007-0.703-1.305-1.254
			C162.165,22.087,162.017,21.417,162.017,20.626z M163.882,20.724c0,0.681,0.162,1.205,0.486,1.568
			c0.323,0.361,0.723,0.543,1.198,0.543c0.475,0,0.873-0.182,1.194-0.543c0.322-0.363,0.483-0.891,0.483-1.582
			c0-0.673-0.161-1.191-0.483-1.554c-0.321-0.362-0.72-0.544-1.194-0.544c-0.476,0-0.875,0.182-1.198,0.544
			C164.044,19.519,163.882,20.042,163.882,20.724z"/>
		<path fill="#F7EBCB" d="M169.899,22.2l1.827-0.277c0.077,0.354,0.235,0.623,0.473,0.807s0.57,0.273,0.997,0.273
			c0.471,0,0.825-0.086,1.062-0.258c0.16-0.121,0.24-0.283,0.24-0.486c0-0.139-0.044-0.252-0.13-0.344
			c-0.091-0.086-0.294-0.166-0.609-0.238c-1.468-0.324-2.398-0.621-2.791-0.888c-0.544-0.371-0.816-0.887-0.816-1.548
			c0-0.596,0.235-1.097,0.706-1.502c0.471-0.406,1.2-0.609,2.189-0.609c0.941,0,1.641,0.153,2.099,0.46s0.772,0.76,0.945,1.359
			l-1.716,0.318c-0.074-0.268-0.213-0.473-0.418-0.615s-0.498-0.215-0.878-0.215c-0.479,0-0.822,0.068-1.03,0.201
			c-0.138,0.096-0.207,0.219-0.207,0.369c0,0.13,0.061,0.24,0.182,0.33c0.164,0.121,0.73,0.292,1.7,0.512
			c0.97,0.221,1.646,0.49,2.03,0.811c0.38,0.324,0.57,0.775,0.57,1.353c0,0.631-0.264,1.172-0.79,1.625
			c-0.527,0.455-1.307,0.682-2.339,0.682c-0.937,0-1.679-0.191-2.225-0.57C170.426,23.368,170.068,22.853,169.899,22.2z"/>
	</g>
	<path fill="#F7EBCB" d="M11.284,22.177l2.598-0.268c0.074,0.588,0.294,1.053,0.659,1.396c0.365,0.342,0.785,0.514,1.262,0.514
		c0.544,0,1.005-0.221,1.382-0.662c0.378-0.443,0.566-1.109,0.566-2c0-0.836-0.188-1.461-0.562-1.879s-0.861-0.627-1.461-0.627
		c-0.748,0-1.419,0.332-2.013,0.994l-2.115-0.307l1.336-7.078h6.893V14.7h-4.917l-0.408,2.311c0.581-0.291,1.175-0.438,1.781-0.438
		c1.156,0,2.137,0.422,2.94,1.262c0.805,0.842,1.207,1.934,1.207,3.276c0,1.119-0.325,2.119-0.975,2.996
		c-0.885,1.201-2.112,1.801-3.684,1.801c-1.255,0-2.278-0.338-3.07-1.012S11.439,23.315,11.284,22.177z"/>
</g>
</svg>
