<?xml version="1.0" encoding="utf-8"?>
<!-- Generator: Adobe Illustrator 16.0.0, SVG Export Plug-In . SVG Version: 6.00 Build 0)  -->
<!DOCTYPE svg PUBLIC "-//W3C//DTD SVG 1.1//EN" "http://www.w3.org/Graphics/SVG/1.1/DTD/svg11.dtd">
<svg version="1.1" id="Layer_1" xmlns="http://www.w3.org/2000/svg" xmlns:xlink="http://www.w3.org/1999/xlink" x="0px" y="0px"
	 width="199.555px" height="38.134px" viewBox="0 0 199.555 38.134" enable-background="new 0 0 199.555 38.134"
	 xml:space="preserve">
<g>
	<rect id="XMLID_6389_" y="0" fill="#599C5B" width="199.555" height="38.134"/>
	<rect id="XMLID_6370_" x="34.809" y="0" fill="#51564D" width="156.02" height="38.134"/>
	<g>
		<path fill="#F7EBCB" d="M42.263,15.006h3.504c0.79,0,1.393,0.061,1.808,0.181c0.557,0.164,1.033,0.456,1.431,0.875
			s0.7,0.932,0.907,1.539c0.207,0.606,0.311,1.354,0.311,2.244c0,0.781-0.097,1.456-0.291,2.022
			c-0.237,0.689-0.576,1.25-1.018,1.678c-0.332,0.322-0.781,0.576-1.347,0.758c-0.424,0.133-0.989,0.199-1.697,0.199h-3.607V15.006z
			 M44.18,16.612v6.289h1.432c0.535,0,0.922-0.029,1.159-0.09c0.311-0.078,0.569-0.209,0.774-0.395
			c0.205-0.188,0.372-0.492,0.502-0.918c0.129-0.426,0.194-1.004,0.194-1.739s-0.065-1.298-0.194-1.691
			c-0.13-0.393-0.312-0.699-0.544-0.919c-0.233-0.22-0.529-0.369-0.888-0.447c-0.268-0.06-0.793-0.09-1.574-0.09H44.18z"/>
		<path fill="#F7EBCB" d="M55.819,22.312l1.813,0.305c-0.232,0.666-0.601,1.172-1.104,1.52c-0.503,0.348-1.132,0.521-1.888,0.521
			c-1.196,0-2.081-0.391-2.655-1.172c-0.454-0.627-0.681-1.416-0.681-2.371c0-1.141,0.298-2.034,0.894-2.678
			c0.597-0.646,1.35-0.969,2.261-0.969c1.023,0,1.831,0.338,2.423,1.014s0.874,1.711,0.849,3.106H53.17
			c0.014,0.539,0.16,0.959,0.44,1.26c0.281,0.301,0.631,0.451,1.05,0.451c0.285,0,0.524-0.078,0.719-0.234
			C55.573,22.909,55.72,22.657,55.819,22.312z M55.923,20.473c-0.013-0.527-0.148-0.928-0.408-1.202
			c-0.259-0.274-0.574-0.411-0.945-0.411c-0.397,0-0.726,0.145-0.984,0.434s-0.387,0.683-0.382,1.18H55.923z"/>
		<path fill="#F7EBCB" d="M58.572,22.54l1.827-0.279c0.077,0.354,0.235,0.623,0.473,0.807s0.57,0.275,0.997,0.275
			c0.471,0,0.825-0.086,1.062-0.26c0.16-0.121,0.24-0.283,0.24-0.486c0-0.137-0.044-0.252-0.13-0.342
			c-0.091-0.088-0.294-0.166-0.609-0.24c-1.468-0.324-2.398-0.619-2.791-0.887c-0.544-0.373-0.816-0.889-0.816-1.549
			c0-0.596,0.235-1.097,0.706-1.502c0.471-0.406,1.2-0.609,2.189-0.609c0.941,0,1.641,0.153,2.099,0.46s0.772,0.76,0.945,1.36
			l-1.716,0.316c-0.074-0.268-0.213-0.473-0.418-0.615s-0.498-0.213-0.878-0.213c-0.479,0-0.822,0.066-1.03,0.201
			c-0.138,0.094-0.207,0.217-0.207,0.369c0,0.129,0.061,0.238,0.182,0.33c0.164,0.121,0.73,0.291,1.7,0.512
			c0.97,0.22,1.646,0.49,2.03,0.809c0.38,0.325,0.57,0.776,0.57,1.354c0,0.631-0.264,1.174-0.79,1.627
			c-0.527,0.453-1.307,0.68-2.339,0.68c-0.937,0-1.679-0.189-2.225-0.57C59.099,23.708,58.741,23.19,58.572,22.54z"/>
		<path fill="#F7EBCB" d="M72.59,19.657l-1.794,0.324c-0.061-0.359-0.198-0.629-0.412-0.811c-0.213-0.182-0.491-0.271-0.832-0.271
			c-0.453,0-0.815,0.156-1.085,0.469c-0.27,0.313-0.404,0.838-0.404,1.571c0,0.816,0.137,1.392,0.411,1.73
			c0.274,0.336,0.643,0.506,1.104,0.506c0.345,0,0.628-0.1,0.849-0.295c0.22-0.197,0.375-0.535,0.466-1.014l1.788,0.303
			c-0.186,0.822-0.542,1.441-1.069,1.859c-0.526,0.42-1.232,0.629-2.118,0.629c-1.006,0-1.808-0.318-2.406-0.953
			c-0.598-0.635-0.896-1.512-0.896-2.635c0-1.137,0.3-2.02,0.9-2.653c0.6-0.633,1.412-0.949,2.436-0.949
			c0.837,0,1.503,0.18,1.998,0.541C72.019,18.369,72.374,18.918,72.59,19.657z"/>
		<path fill="#F7EBCB" d="M75.712,24.501h-1.82v-6.878h1.691V18.6c0.289-0.461,0.549-0.766,0.78-0.912
			c0.23-0.147,0.493-0.221,0.787-0.221c0.414,0,0.813,0.114,1.198,0.344l-0.563,1.586c-0.307-0.198-0.592-0.297-0.855-0.297
			c-0.255,0-0.471,0.069-0.647,0.21c-0.177,0.14-0.316,0.394-0.418,0.761s-0.152,1.135-0.152,2.307V24.501z"/>
		<path fill="#F7EBCB" d="M79.132,16.69v-1.684h1.82v1.684H79.132z M79.132,24.501v-6.878h1.82v6.878H79.132z"/>
		<path fill="#F7EBCB" d="M82.739,24.501v-9.495h1.82v3.42c0.562-0.64,1.227-0.959,1.995-0.959c0.838,0,1.531,0.303,2.079,0.91
			c0.549,0.606,0.823,1.478,0.823,2.613c0,1.174-0.28,2.079-0.839,2.713c-0.56,0.635-1.238,0.953-2.037,0.953
			c-0.394,0-0.781-0.098-1.163-0.295s-0.712-0.486-0.987-0.871v1.01H82.739z M84.547,20.913c0,0.713,0.112,1.241,0.337,1.581
			c0.315,0.484,0.734,0.727,1.257,0.727c0.401,0,0.743-0.172,1.026-0.516c0.282-0.344,0.424-0.885,0.424-1.623
			c0-0.786-0.143-1.352-0.427-1.7c-0.285-0.348-0.65-0.521-1.095-0.521c-0.437,0-0.799,0.17-1.089,0.508
			C84.691,19.708,84.547,20.222,84.547,20.913z"/>
		<path fill="#F7EBCB" d="M90.921,16.69v-1.684h1.82v1.684H90.921z M90.921,24.501v-6.878h1.82v6.878H90.921z"/>
		<path fill="#F7EBCB" d="M96.349,24.501h-1.82v-6.878h1.691V18.6c0.289-0.461,0.549-0.766,0.78-0.912
			c0.23-0.147,0.493-0.221,0.787-0.221c0.414,0,0.813,0.114,1.198,0.344l-0.563,1.586c-0.307-0.198-0.592-0.297-0.855-0.297
			c-0.255,0-0.471,0.069-0.647,0.21c-0.177,0.14-0.316,0.394-0.418,0.761s-0.152,1.135-0.152,2.307V24.501z"/>
		<path fill="#F7EBCB" d="M103.454,24.501v-9.495h1.82v9.495H103.454z"/>
		<path fill="#F7EBCB" d="M106.719,20.965c0-0.605,0.148-1.189,0.447-1.756c0.298-0.565,0.72-0.998,1.266-1.295
			c0.547-0.299,1.156-0.447,1.83-0.447c1.041,0,1.894,0.338,2.559,1.014s0.997,1.529,0.997,2.561c0,1.041-0.335,1.904-1.007,2.588
			c-0.672,0.686-1.517,1.027-2.536,1.027c-0.63,0-1.231-0.143-1.804-0.428s-1.007-0.703-1.305-1.254
			C106.867,22.425,106.719,21.755,106.719,20.965z M108.584,21.062c0,0.684,0.162,1.205,0.486,1.568
			c0.323,0.363,0.723,0.545,1.198,0.545c0.475,0,0.873-0.182,1.194-0.545c0.322-0.363,0.483-0.889,0.483-1.58
			c0-0.674-0.161-1.192-0.483-1.555c-0.321-0.363-0.72-0.545-1.194-0.545c-0.476,0-0.875,0.182-1.198,0.545
			C108.746,19.858,108.584,20.379,108.584,21.062z"/>
		<path fill="#F7EBCB" d="M114.602,22.54l1.827-0.279c0.077,0.354,0.235,0.623,0.473,0.807s0.57,0.275,0.997,0.275
			c0.471,0,0.825-0.086,1.062-0.26c0.16-0.121,0.24-0.283,0.24-0.486c0-0.137-0.044-0.252-0.13-0.342
			c-0.091-0.088-0.294-0.166-0.609-0.24c-1.468-0.324-2.398-0.619-2.791-0.887c-0.544-0.373-0.816-0.889-0.816-1.549
			c0-0.596,0.235-1.097,0.706-1.502c0.471-0.406,1.2-0.609,2.189-0.609c0.941,0,1.641,0.153,2.099,0.46s0.772,0.76,0.945,1.36
			l-1.716,0.316c-0.074-0.268-0.213-0.473-0.418-0.615s-0.498-0.213-0.878-0.213c-0.479,0-0.822,0.066-1.03,0.201
			c-0.138,0.094-0.207,0.217-0.207,0.369c0,0.129,0.061,0.238,0.182,0.33c0.164,0.121,0.73,0.291,1.7,0.512
			c0.97,0.22,1.646,0.49,2.03,0.809c0.38,0.325,0.57,0.776,0.57,1.354c0,0.631-0.264,1.174-0.79,1.627
			c-0.527,0.453-1.307,0.68-2.339,0.68c-0.937,0-1.679-0.189-2.225-0.57C115.128,23.708,114.771,23.19,114.602,22.54z"/>
		<path fill="#F7EBCB" d="M126.255,17.623h1.697v1.011c0.22-0.346,0.518-0.627,0.894-0.842c0.376-0.217,0.792-0.324,1.25-0.324
			c0.799,0,1.477,0.312,2.034,0.939c0.557,0.626,0.835,1.498,0.835,2.616c0,1.15-0.28,2.043-0.842,2.68s-1.241,0.955-2.04,0.955
			c-0.38,0-0.725-0.076-1.033-0.227s-0.634-0.41-0.975-0.777v3.465h-1.82V17.623z M128.056,20.946c0,0.772,0.153,1.344,0.46,1.713
			s0.68,0.553,1.12,0.553c0.424,0,0.775-0.168,1.056-0.508c0.281-0.338,0.422-0.895,0.422-1.668c0-0.721-0.146-1.256-0.435-1.606
			s-0.647-0.525-1.075-0.525c-0.444,0-0.813,0.172-1.107,0.516C128.202,19.763,128.056,20.272,128.056,20.946z"/>
		<path fill="#F7EBCB" d="M136.152,24.501h-1.82v-6.878h1.691V18.6c0.289-0.461,0.549-0.766,0.78-0.912
			c0.23-0.147,0.493-0.221,0.787-0.221c0.414,0,0.813,0.114,1.198,0.344l-0.563,1.586c-0.307-0.198-0.592-0.297-0.855-0.297
			c-0.255,0-0.471,0.069-0.647,0.21c-0.177,0.14-0.316,0.394-0.418,0.761s-0.152,1.135-0.152,2.307V24.501z"/>
		<path fill="#F7EBCB" d="M139.151,20.965c0-0.605,0.148-1.189,0.447-1.756c0.298-0.565,0.72-0.998,1.266-1.295
			c0.547-0.299,1.156-0.447,1.83-0.447c1.041,0,1.894,0.338,2.559,1.014s0.997,1.529,0.997,2.561c0,1.041-0.335,1.904-1.007,2.588
			c-0.672,0.686-1.517,1.027-2.536,1.027c-0.63,0-1.231-0.143-1.804-0.428s-1.007-0.703-1.305-1.254
			C139.3,22.425,139.151,21.755,139.151,20.965z M141.017,21.062c0,0.684,0.162,1.205,0.486,1.568
			c0.323,0.363,0.723,0.545,1.198,0.545c0.475,0,0.873-0.182,1.194-0.545c0.322-0.363,0.483-0.889,0.483-1.58
			c0-0.674-0.161-1.192-0.483-1.555c-0.321-0.363-0.72-0.545-1.194-0.545c-0.476,0-0.875,0.182-1.198,0.545
			C141.179,19.858,141.017,20.379,141.017,21.062z"/>
		<path fill="#F7EBCB" d="M153.674,19.657l-1.794,0.324c-0.061-0.359-0.198-0.629-0.412-0.811c-0.213-0.182-0.491-0.271-0.832-0.271
			c-0.453,0-0.815,0.156-1.085,0.469c-0.27,0.313-0.404,0.838-0.404,1.571c0,0.816,0.137,1.392,0.411,1.73
			c0.274,0.336,0.643,0.506,1.104,0.506c0.345,0,0.628-0.1,0.849-0.295c0.22-0.197,0.375-0.535,0.466-1.014l1.788,0.303
			c-0.186,0.822-0.542,1.441-1.069,1.859c-0.526,0.42-1.232,0.629-2.118,0.629c-1.006,0-1.808-0.318-2.406-0.953
			c-0.598-0.635-0.896-1.512-0.896-2.635c0-1.137,0.3-2.02,0.9-2.653c0.6-0.633,1.412-0.949,2.436-0.949
			c0.837,0,1.503,0.18,1.998,0.541C153.103,18.369,153.458,18.918,153.674,19.657z"/>
		<path fill="#F7EBCB" d="M159.037,22.312l1.813,0.305c-0.232,0.666-0.601,1.172-1.104,1.52c-0.503,0.348-1.132,0.521-1.888,0.521
			c-1.196,0-2.081-0.391-2.655-1.172c-0.454-0.627-0.681-1.416-0.681-2.371c0-1.141,0.298-2.034,0.894-2.678
			c0.597-0.646,1.35-0.969,2.261-0.969c1.023,0,1.831,0.338,2.423,1.014s0.874,1.711,0.849,3.106h-4.561
			c0.014,0.539,0.16,0.959,0.44,1.26c0.281,0.301,0.631,0.451,1.05,0.451c0.285,0,0.524-0.078,0.719-0.234
			C158.791,22.909,158.938,22.657,159.037,22.312z M159.141,20.473c-0.013-0.527-0.148-0.928-0.408-1.202
			c-0.259-0.274-0.574-0.411-0.945-0.411c-0.397,0-0.726,0.145-0.984,0.434s-0.387,0.683-0.382,1.18H159.141z"/>
		<path fill="#F7EBCB" d="M161.79,22.54l1.827-0.279c0.077,0.354,0.235,0.623,0.473,0.807s0.57,0.275,0.997,0.275
			c0.471,0,0.825-0.086,1.062-0.26c0.16-0.121,0.24-0.283,0.24-0.486c0-0.137-0.044-0.252-0.13-0.342
			c-0.091-0.088-0.294-0.166-0.609-0.24c-1.468-0.324-2.398-0.619-2.791-0.887c-0.544-0.373-0.816-0.889-0.816-1.549
			c0-0.596,0.235-1.097,0.706-1.502c0.471-0.406,1.2-0.609,2.189-0.609c0.941,0,1.641,0.153,2.099,0.46s0.772,0.76,0.945,1.36
			l-1.716,0.316c-0.074-0.268-0.213-0.473-0.418-0.615s-0.498-0.213-0.878-0.213c-0.479,0-0.822,0.066-1.03,0.201
			c-0.138,0.094-0.207,0.217-0.207,0.369c0,0.129,0.061,0.238,0.182,0.33c0.164,0.121,0.73,0.291,1.7,0.512
			c0.97,0.22,1.646,0.49,2.03,0.809c0.38,0.325,0.57,0.776,0.57,1.354c0,0.631-0.264,1.174-0.79,1.627
			c-0.527,0.453-1.307,0.68-2.339,0.68c-0.937,0-1.679-0.189-2.225-0.57C162.316,23.708,161.959,23.19,161.79,22.54z"/>
		<path fill="#F7EBCB" d="M169.389,20.965c0-0.605,0.148-1.189,0.447-1.756c0.298-0.565,0.72-0.998,1.266-1.295
			c0.547-0.299,1.156-0.447,1.83-0.447c1.041,0,1.894,0.338,2.559,1.014s0.997,1.529,0.997,2.561c0,1.041-0.335,1.904-1.007,2.588
			c-0.672,0.686-1.517,1.027-2.536,1.027c-0.63,0-1.231-0.143-1.804-0.428s-1.007-0.703-1.305-1.254
			C169.537,22.425,169.389,21.755,169.389,20.965z M171.254,21.062c0,0.684,0.162,1.205,0.486,1.568
			c0.323,0.363,0.723,0.545,1.198,0.545c0.475,0,0.873-0.182,1.194-0.545c0.322-0.363,0.483-0.889,0.483-1.58
			c0-0.674-0.161-1.192-0.483-1.555c-0.321-0.363-0.72-0.545-1.194-0.545c-0.476,0-0.875,0.182-1.198,0.545
			C171.416,19.858,171.254,20.379,171.254,21.062z"/>
		<path fill="#F7EBCB" d="M177.271,22.54l1.827-0.279c0.077,0.354,0.235,0.623,0.473,0.807s0.57,0.275,0.997,0.275
			c0.471,0,0.825-0.086,1.062-0.26c0.16-0.121,0.24-0.283,0.24-0.486c0-0.137-0.044-0.252-0.13-0.342
			c-0.091-0.088-0.294-0.166-0.609-0.24c-1.468-0.324-2.398-0.619-2.791-0.887c-0.544-0.373-0.816-0.889-0.816-1.549
			c0-0.596,0.235-1.097,0.706-1.502c0.471-0.406,1.2-0.609,2.189-0.609c0.941,0,1.641,0.153,2.099,0.46s0.772,0.76,0.945,1.36
			l-1.716,0.316c-0.074-0.268-0.213-0.473-0.418-0.615s-0.498-0.213-0.878-0.213c-0.479,0-0.822,0.066-1.03,0.201
			c-0.138,0.094-0.207,0.217-0.207,0.369c0,0.129,0.061,0.238,0.182,0.33c0.164,0.121,0.73,0.291,1.7,0.512
			c0.97,0.22,1.646,0.49,2.03,0.809c0.38,0.325,0.57,0.776,0.57,1.354c0,0.631-0.264,1.174-0.79,1.627
			c-0.527,0.453-1.307,0.68-2.339,0.68c-0.937,0-1.679-0.189-2.225-0.57C177.798,23.708,177.44,23.19,177.271,22.54z"/>
	</g>
	<path fill="#F7EBCB" d="M11.155,22.593l2.523-0.305c0.08,0.643,0.297,1.135,0.648,1.475c0.354,0.34,0.779,0.51,1.281,0.51
		c0.537,0,0.99-0.203,1.358-0.611s0.552-0.959,0.552-1.652c0-0.654-0.176-1.173-0.528-1.558c-0.353-0.383-0.782-0.574-1.29-0.574
		c-0.334,0-0.732,0.064-1.196,0.193l0.288-2.123c0.705,0.018,1.242-0.135,1.613-0.459c0.371-0.326,0.557-0.758,0.557-1.295
		c0-0.457-0.136-0.822-0.408-1.096c-0.271-0.271-0.634-0.408-1.085-0.408c-0.445,0-0.825,0.156-1.142,0.465
		c-0.314,0.309-0.507,0.76-0.574,1.354l-2.403-0.408c0.167-0.822,0.419-1.479,0.756-1.971s0.808-0.877,1.41-1.16
		c0.604-0.281,1.279-0.422,2.027-0.422c1.28,0,2.307,0.408,3.08,1.225c0.637,0.668,0.956,1.424,0.956,2.264
		c0,1.193-0.653,2.146-1.958,2.857c0.779,0.168,1.402,0.541,1.869,1.123s0.7,1.283,0.7,2.105c0,1.193-0.436,2.211-1.308,3.053
		s-1.958,1.262-3.257,1.262c-1.23,0-2.251-0.354-3.061-1.062C11.755,24.665,11.284,23.737,11.155,22.593z"/>
</g>
</svg>
