<?xml version="1.0" encoding="utf-8"?>
<!-- Generator: Adobe Illustrator 16.0.0, SVG Export Plug-In . SVG Version: 6.00 Build 0)  -->
<!DOCTYPE svg PUBLIC "-//W3C//DTD SVG 1.1//EN" "http://www.w3.org/Graphics/SVG/1.1/DTD/svg11.dtd">
<svg version="1.1" id="Layer_1" xmlns="http://www.w3.org/2000/svg" xmlns:xlink="http://www.w3.org/1999/xlink" x="0px" y="0px"
	 width="199.555px" height="38.134px" viewBox="0 0 199.555 38.134" enable-background="new 0 0 199.555 38.134"
	 xml:space="preserve">
<g>
	<rect id="XMLID_6378_" fill="#31A6AE" width="199.555" height="38.134"/>
	<rect id="XMLID_5066_" x="34.809" fill="#258082" width="156.02" height="38.134"/>
	<g>
		<path fill="#F7EBCB" d="M71.378,6.687h3.504c0.79,0,1.393,0.061,1.808,0.181c0.557,0.164,1.033,0.456,1.431,0.875
			s0.7,0.932,0.907,1.539c0.207,0.606,0.311,1.354,0.311,2.244c0,0.782-0.097,1.455-0.291,2.021
			c-0.237,0.691-0.576,1.25-1.018,1.678c-0.332,0.324-0.781,0.576-1.347,0.758c-0.424,0.134-0.989,0.201-1.697,0.201h-3.607V6.687z
			 M73.295,8.293v6.289h1.432c0.535,0,0.922-0.03,1.159-0.09c0.311-0.078,0.569-0.209,0.774-0.395
			c0.205-0.186,0.372-0.491,0.502-0.917c0.129-0.425,0.194-1.005,0.194-1.739c0-0.734-0.065-1.298-0.194-1.691
			c-0.13-0.393-0.312-0.699-0.544-0.919c-0.233-0.22-0.529-0.369-0.888-0.447c-0.268-0.06-0.793-0.09-1.574-0.09H73.295z"/>
		<path fill="#F7EBCB" d="M84.935,13.993l1.813,0.305c-0.232,0.665-0.601,1.171-1.104,1.519c-0.503,0.348-1.132,0.521-1.888,0.521
			c-1.196,0-2.081-0.391-2.655-1.172c-0.454-0.626-0.681-1.416-0.681-2.371c0-1.14,0.298-2.033,0.894-2.678
			c0.597-0.646,1.35-0.968,2.261-0.968c1.023,0,1.831,0.338,2.423,1.014s0.874,1.711,0.849,3.106h-4.561
			c0.014,0.54,0.16,0.959,0.44,1.26c0.281,0.3,0.631,0.45,1.05,0.45c0.285,0,0.524-0.078,0.719-0.233S84.835,14.338,84.935,13.993z
			 M85.038,12.153c-0.013-0.527-0.148-0.927-0.408-1.202c-0.259-0.274-0.574-0.411-0.945-0.411c-0.397,0-0.726,0.145-0.984,0.434
			c-0.259,0.289-0.387,0.682-0.382,1.179H85.038z"/>
		<path fill="#F7EBCB" d="M87.688,14.22l1.827-0.279c0.077,0.354,0.235,0.623,0.473,0.807s0.57,0.275,0.997,0.275
			c0.471,0,0.825-0.086,1.062-0.259c0.16-0.121,0.24-0.283,0.24-0.486c0-0.138-0.044-0.252-0.13-0.343
			c-0.091-0.086-0.294-0.166-0.609-0.24c-1.468-0.324-2.398-0.62-2.791-0.887c-0.544-0.372-0.816-0.888-0.816-1.548
			c0-0.596,0.235-1.097,0.706-1.502c0.471-0.406,1.2-0.609,2.189-0.609c0.941,0,1.641,0.153,2.099,0.46s0.772,0.76,0.945,1.36
			l-1.716,0.317c-0.074-0.268-0.213-0.473-0.418-0.615s-0.498-0.214-0.878-0.214c-0.479,0-0.822,0.067-1.03,0.201
			c-0.138,0.095-0.207,0.218-0.207,0.369c0,0.129,0.061,0.239,0.182,0.33c0.164,0.121,0.73,0.292,1.7,0.512s1.646,0.49,2.03,0.81
			c0.38,0.324,0.57,0.775,0.57,1.354c0,0.63-0.264,1.172-0.79,1.625c-0.527,0.454-1.307,0.68-2.339,0.68
			c-0.937,0-1.679-0.19-2.225-0.57S87.856,14.872,87.688,14.22z"/>
		<path fill="#F7EBCB" d="M97.067,11.402l-1.651-0.298c0.186-0.665,0.505-1.157,0.958-1.477c0.453-0.319,1.127-0.479,2.021-0.479
			c0.812,0,1.416,0.096,1.813,0.288c0.397,0.192,0.677,0.436,0.839,0.732s0.242,0.839,0.242,1.629l-0.019,2.125
			c0,0.605,0.028,1.051,0.087,1.338s0.167,0.595,0.327,0.923h-1.801c-0.048-0.121-0.105-0.3-0.175-0.538
			c-0.03-0.108-0.052-0.179-0.064-0.214c-0.312,0.302-0.644,0.529-0.998,0.68c-0.354,0.151-0.731,0.227-1.133,0.227
			c-0.709,0-1.267-0.192-1.675-0.576s-0.612-0.87-0.612-1.458c0-0.389,0.093-0.735,0.278-1.04c0.186-0.305,0.446-0.538,0.781-0.7
			c0.334-0.162,0.816-0.303,1.447-0.424c0.851-0.16,1.44-0.309,1.769-0.447v-0.181c0-0.35-0.087-0.599-0.26-0.749
			c-0.172-0.149-0.498-0.223-0.978-0.223c-0.324,0-0.576,0.063-0.758,0.191S97.18,11.083,97.067,11.402z M99.503,12.879
			c-0.233,0.078-0.603,0.17-1.107,0.278c-0.506,0.108-0.836,0.214-0.991,0.317c-0.237,0.168-0.356,0.382-0.356,0.641
			c0,0.255,0.095,0.475,0.285,0.661c0.189,0.186,0.432,0.279,0.726,0.279c0.328,0,0.641-0.108,0.938-0.324
			c0.221-0.164,0.365-0.365,0.435-0.603c0.047-0.156,0.071-0.451,0.071-0.888V12.879z"/>
		<path fill="#F7EBCB" d="M104.827,16.182h-1.82V9.303h1.691v0.978c0.289-0.462,0.549-0.767,0.78-0.913
			c0.23-0.147,0.493-0.22,0.787-0.22c0.414,0,0.813,0.114,1.198,0.343l-0.563,1.587c-0.307-0.199-0.592-0.298-0.855-0.298
			c-0.255,0-0.471,0.07-0.647,0.21c-0.177,0.14-0.316,0.394-0.418,0.761c-0.102,0.367-0.152,1.136-0.152,2.306V16.182z"/>
		<path fill="#F7EBCB" d="M109.989,16.182h-1.82V9.303h1.691v0.978c0.289-0.462,0.549-0.767,0.78-0.913
			c0.23-0.147,0.493-0.22,0.787-0.22c0.414,0,0.813,0.114,1.198,0.343l-0.563,1.587c-0.307-0.199-0.592-0.298-0.855-0.298
			c-0.255,0-0.471,0.07-0.647,0.21c-0.177,0.14-0.316,0.394-0.418,0.761c-0.102,0.367-0.152,1.136-0.152,2.306V16.182z"/>
		<path fill="#F7EBCB" d="M112.988,12.646c0-0.604,0.148-1.189,0.447-1.755c0.298-0.565,0.72-0.998,1.266-1.295
			c0.547-0.298,1.156-0.447,1.83-0.447c1.041,0,1.894,0.338,2.559,1.014s0.997,1.53,0.997,2.562c0,1.041-0.335,1.903-1.007,2.588
			s-1.517,1.026-2.536,1.026c-0.63,0-1.231-0.142-1.804-0.427s-1.007-0.703-1.305-1.253
			C113.137,14.106,112.988,13.436,112.988,12.646z M114.854,12.743c0,0.682,0.162,1.205,0.486,1.567
			c0.323,0.363,0.723,0.544,1.198,0.544c0.475,0,0.873-0.182,1.194-0.544c0.322-0.363,0.483-0.889,0.483-1.581
			c0-0.673-0.161-1.191-0.483-1.554c-0.321-0.363-0.72-0.544-1.194-0.544c-0.476,0-0.875,0.182-1.198,0.544
			C115.016,11.538,114.854,12.061,114.854,12.743z"/>
		<path fill="#F7EBCB" d="M121.513,16.182V6.687h1.82v9.496H121.513z"/>
		<path fill="#F7EBCB" d="M125.198,16.182V6.687h1.82v9.496H125.198z"/>
		<path fill="#F7EBCB" d="M130.244,11.402l-1.651-0.298c0.186-0.665,0.505-1.157,0.958-1.477c0.453-0.319,1.127-0.479,2.021-0.479
			c0.812,0,1.416,0.096,1.813,0.288c0.397,0.192,0.677,0.436,0.839,0.732s0.242,0.839,0.242,1.629l-0.019,2.125
			c0,0.605,0.028,1.051,0.087,1.338s0.167,0.595,0.327,0.923h-1.801c-0.048-0.121-0.105-0.3-0.175-0.538
			c-0.03-0.108-0.052-0.179-0.064-0.214c-0.312,0.302-0.644,0.529-0.998,0.68c-0.354,0.151-0.731,0.227-1.133,0.227
			c-0.709,0-1.267-0.192-1.675-0.576s-0.612-0.87-0.612-1.458c0-0.389,0.093-0.735,0.278-1.04c0.186-0.305,0.446-0.538,0.781-0.7
			c0.334-0.162,0.816-0.303,1.447-0.424c0.851-0.16,1.44-0.309,1.769-0.447v-0.181c0-0.35-0.087-0.599-0.26-0.749
			c-0.172-0.149-0.498-0.223-0.978-0.223c-0.324,0-0.576,0.063-0.758,0.191S130.356,11.083,130.244,11.402z M132.68,12.879
			c-0.233,0.078-0.603,0.17-1.107,0.278c-0.506,0.108-0.836,0.214-0.991,0.317c-0.237,0.168-0.356,0.382-0.356,0.641
			c0,0.255,0.095,0.475,0.285,0.661c0.189,0.186,0.432,0.279,0.726,0.279c0.328,0,0.641-0.108,0.938-0.324
			c0.221-0.164,0.365-0.365,0.435-0.603c0.047-0.156,0.071-0.451,0.071-0.888V12.879z"/>
		<path fill="#F7EBCB" d="M138.004,16.182h-1.82V9.303h1.691v0.978c0.289-0.462,0.549-0.767,0.78-0.913
			c0.23-0.147,0.493-0.22,0.787-0.22c0.414,0,0.813,0.114,1.198,0.343l-0.563,1.587c-0.307-0.199-0.592-0.298-0.855-0.298
			c-0.255,0-0.471,0.07-0.647,0.21c-0.177,0.14-0.316,0.394-0.418,0.761c-0.102,0.367-0.152,1.136-0.152,2.306V16.182z"/>
		<path fill="#F7EBCB" d="M149.093,13.993l1.813,0.305c-0.232,0.665-0.601,1.171-1.104,1.519c-0.503,0.348-1.132,0.521-1.888,0.521
			c-1.196,0-2.081-0.391-2.655-1.172c-0.454-0.626-0.681-1.416-0.681-2.371c0-1.14,0.298-2.033,0.894-2.678
			c0.597-0.646,1.35-0.968,2.261-0.968c1.023,0,1.831,0.338,2.423,1.014s0.874,1.711,0.849,3.106h-4.561
			c0.014,0.54,0.16,0.959,0.44,1.26c0.281,0.3,0.631,0.45,1.05,0.45c0.285,0,0.524-0.078,0.719-0.233S148.993,14.338,149.093,13.993
			z M149.196,12.153c-0.013-0.527-0.148-0.927-0.408-1.202c-0.259-0.274-0.574-0.411-0.945-0.411c-0.397,0-0.726,0.145-0.984,0.434
			c-0.259,0.289-0.387,0.682-0.382,1.179H149.196z"/>
		<path fill="#F7EBCB" d="M152.487,16.182V6.687h1.82v9.496H152.487z"/>
		<path fill="#F7EBCB" d="M55.392,25.222h1.678v0.939c0.6-0.729,1.314-1.095,2.144-1.095c0.44,0,0.822,0.09,1.146,0.271
			s0.59,0.456,0.797,0.823c0.302-0.367,0.628-0.642,0.978-0.823c0.351-0.182,0.724-0.271,1.121-0.271
			c0.505,0,0.933,0.103,1.282,0.308s0.611,0.507,0.784,0.903c0.125,0.294,0.188,0.77,0.188,1.426v4.397h-1.82v-3.932
			c0-0.683-0.062-1.122-0.188-1.321c-0.169-0.26-0.428-0.389-0.777-0.389c-0.255,0-0.494,0.078-0.719,0.232
			c-0.225,0.156-0.387,0.384-0.486,0.684c-0.099,0.301-0.148,0.774-0.148,1.422v3.304h-1.82V28.33c0-0.668-0.032-1.101-0.098-1.295
			c-0.064-0.194-0.165-0.339-0.301-0.434c-0.136-0.096-0.32-0.143-0.554-0.143c-0.281,0-0.533,0.076-0.758,0.227
			c-0.225,0.151-0.386,0.369-0.482,0.654c-0.098,0.285-0.146,0.758-0.146,1.418v3.343h-1.82V25.222z"/>
		<path fill="#F7EBCB" d="M68.683,27.32l-1.651-0.298c0.186-0.665,0.505-1.157,0.958-1.478c0.453-0.318,1.127-0.479,2.021-0.479
			c0.812,0,1.416,0.096,1.813,0.288s0.677,0.437,0.839,0.731c0.162,0.297,0.242,0.84,0.242,1.629l-0.019,2.125
			c0,0.605,0.028,1.051,0.087,1.338s0.167,0.595,0.327,0.923H71.5c-0.048-0.12-0.105-0.3-0.175-0.538
			c-0.03-0.107-0.052-0.179-0.064-0.213c-0.312,0.302-0.644,0.529-0.998,0.68c-0.354,0.151-0.731,0.227-1.133,0.227
			c-0.709,0-1.267-0.191-1.675-0.576s-0.612-0.87-0.612-1.457c0-0.389,0.093-0.736,0.278-1.04c0.186-0.305,0.446-0.538,0.781-0.7
			c0.334-0.161,0.816-0.303,1.447-0.424c0.851-0.16,1.44-0.309,1.769-0.447v-0.181c0-0.351-0.087-0.599-0.26-0.749
			c-0.172-0.148-0.498-0.223-0.978-0.223c-0.324,0-0.576,0.063-0.758,0.191C68.941,26.777,68.795,27.001,68.683,27.32z
			 M71.118,28.797c-0.233,0.078-0.603,0.171-1.107,0.279c-0.506,0.107-0.836,0.213-0.991,0.316
			c-0.237,0.169-0.356,0.383-0.356,0.642c0,0.255,0.095,0.476,0.285,0.661c0.189,0.186,0.432,0.278,0.726,0.278
			c0.328,0,0.641-0.108,0.938-0.323c0.221-0.164,0.365-0.365,0.435-0.604c0.047-0.155,0.071-0.451,0.071-0.887V28.797z"/>
		<path fill="#F7EBCB" d="M74.648,25.222h1.697v1.011c0.22-0.346,0.518-0.627,0.894-0.842c0.376-0.217,0.792-0.324,1.25-0.324
			c0.799,0,1.477,0.312,2.034,0.939c0.557,0.626,0.835,1.498,0.835,2.616c0,1.149-0.28,2.042-0.842,2.679s-1.241,0.955-2.04,0.955
			c-0.38,0-0.725-0.075-1.033-0.227c-0.309-0.15-0.634-0.41-0.975-0.777v3.465h-1.82V25.222z M76.449,28.545
			c0,0.772,0.153,1.344,0.46,1.713s0.68,0.554,1.12,0.554c0.424,0,0.775-0.169,1.056-0.509c0.281-0.338,0.422-0.895,0.422-1.668
			c0-0.721-0.146-1.256-0.435-1.605s-0.647-0.525-1.075-0.525c-0.444,0-0.813,0.172-1.107,0.516
			C76.596,27.362,76.449,27.871,76.449,28.545z"/>
		<path fill="#F7EBCB" d="M84.164,27.32l-1.651-0.298c0.186-0.665,0.505-1.157,0.958-1.478c0.453-0.318,1.127-0.479,2.021-0.479
			c0.812,0,1.416,0.096,1.813,0.288s0.677,0.437,0.839,0.731c0.162,0.297,0.242,0.84,0.242,1.629l-0.019,2.125
			c0,0.605,0.028,1.051,0.087,1.338s0.167,0.595,0.327,0.923h-1.801c-0.048-0.12-0.105-0.3-0.175-0.538
			c-0.03-0.107-0.052-0.179-0.064-0.213c-0.312,0.302-0.644,0.529-0.998,0.68c-0.354,0.151-0.731,0.227-1.133,0.227
			c-0.709,0-1.267-0.191-1.675-0.576s-0.612-0.87-0.612-1.457c0-0.389,0.093-0.736,0.278-1.04c0.186-0.305,0.446-0.538,0.781-0.7
			c0.334-0.161,0.816-0.303,1.447-0.424c0.851-0.16,1.44-0.309,1.769-0.447v-0.181c0-0.351-0.087-0.599-0.26-0.749
			c-0.172-0.148-0.498-0.223-0.978-0.223c-0.324,0-0.576,0.063-0.758,0.191C84.423,26.777,84.276,27.001,84.164,27.32z M86.6,28.797
			c-0.233,0.078-0.603,0.171-1.107,0.279c-0.506,0.107-0.836,0.213-0.991,0.316c-0.237,0.169-0.356,0.383-0.356,0.642
			c0,0.255,0.095,0.476,0.285,0.661c0.189,0.186,0.432,0.278,0.726,0.278c0.328,0,0.641-0.108,0.938-0.323
			c0.221-0.164,0.365-0.365,0.435-0.604c0.047-0.155,0.071-0.451,0.071-0.887V28.797z"/>
		<path fill="#F7EBCB" d="M100.176,32.101h-1.69V31.09c-0.28,0.393-0.612,0.686-0.994,0.878s-0.768,0.288-1.156,0.288
			c-0.79,0-1.467-0.318-2.03-0.955s-0.846-1.525-0.846-2.666c0-1.166,0.274-2.052,0.823-2.658c0.548-0.607,1.241-0.91,2.079-0.91
			c0.769,0,1.434,0.319,1.995,0.959v-3.42h1.819V32.101z M95.318,28.512c0,0.734,0.102,1.266,0.304,1.594
			c0.294,0.475,0.704,0.713,1.231,0.713c0.419,0,0.774-0.178,1.068-0.535c0.294-0.355,0.44-0.888,0.44-1.596
			c0-0.791-0.143-1.359-0.428-1.707c-0.284-0.348-0.649-0.521-1.095-0.521c-0.432,0-0.793,0.172-1.085,0.515
			C95.464,27.316,95.318,27.83,95.318,28.512z"/>
		<path fill="#F7EBCB" d="M105.954,29.911l1.813,0.305c-0.232,0.665-0.601,1.171-1.104,1.519c-0.503,0.348-1.132,0.521-1.888,0.521
			c-1.196,0-2.081-0.391-2.655-1.172c-0.454-0.627-0.681-1.416-0.681-2.371c0-1.141,0.298-2.033,0.894-2.678
			c0.597-0.646,1.35-0.969,2.261-0.969c1.023,0,1.831,0.338,2.423,1.014s0.874,1.711,0.849,3.105h-4.561
			c0.014,0.54,0.16,0.96,0.44,1.26c0.281,0.301,0.631,0.451,1.05,0.451c0.285,0,0.524-0.078,0.719-0.234
			C105.708,30.508,105.854,30.257,105.954,29.911z M106.058,28.072c-0.013-0.527-0.148-0.928-0.408-1.202
			c-0.259-0.274-0.574-0.411-0.945-0.411c-0.397,0-0.726,0.145-0.984,0.434s-0.387,0.683-0.382,1.18H106.058z"/>
		<path fill="#F7EBCB" d="M112.982,25.222h1.697v1.011c0.22-0.346,0.518-0.627,0.894-0.842c0.376-0.217,0.792-0.324,1.25-0.324
			c0.799,0,1.477,0.312,2.034,0.939c0.557,0.626,0.835,1.498,0.835,2.616c0,1.149-0.28,2.042-0.842,2.679s-1.241,0.955-2.04,0.955
			c-0.38,0-0.725-0.075-1.033-0.227c-0.309-0.15-0.634-0.41-0.975-0.777v3.465h-1.82V25.222z M114.783,28.545
			c0,0.772,0.153,1.344,0.46,1.713s0.68,0.554,1.12,0.554c0.424,0,0.775-0.169,1.056-0.509c0.281-0.338,0.422-0.895,0.422-1.668
			c0-0.721-0.146-1.256-0.435-1.605s-0.647-0.525-1.075-0.525c-0.444,0-0.813,0.172-1.107,0.516
			C114.93,27.362,114.783,27.871,114.783,28.545z"/>
		<path fill="#F7EBCB" d="M122.88,32.101h-1.82v-6.879h1.691v0.978c0.289-0.461,0.549-0.766,0.78-0.912
			c0.23-0.147,0.493-0.221,0.787-0.221c0.414,0,0.813,0.114,1.198,0.344l-0.563,1.586c-0.307-0.198-0.592-0.297-0.855-0.297
			c-0.255,0-0.471,0.069-0.647,0.21c-0.177,0.14-0.316,0.394-0.418,0.761s-0.152,1.136-0.152,2.307V32.101z"/>
		<path fill="#F7EBCB" d="M125.879,28.564c0-0.605,0.148-1.189,0.447-1.756c0.298-0.565,0.72-0.998,1.266-1.295
			c0.547-0.299,1.156-0.447,1.83-0.447c1.041,0,1.894,0.338,2.559,1.014s0.997,1.529,0.997,2.562c0,1.041-0.335,1.903-1.007,2.588
			s-1.517,1.026-2.536,1.026c-0.63,0-1.231-0.143-1.804-0.428s-1.007-0.702-1.305-1.253
			C126.027,30.024,125.879,29.354,125.879,28.564z M127.744,28.661c0,0.683,0.162,1.204,0.486,1.567
			c0.323,0.363,0.723,0.545,1.198,0.545c0.475,0,0.873-0.182,1.194-0.545c0.322-0.363,0.483-0.889,0.483-1.58
			c0-0.674-0.161-1.191-0.483-1.555c-0.321-0.363-0.72-0.545-1.194-0.545c-0.476,0-0.875,0.182-1.198,0.545
			C127.906,27.457,127.744,27.979,127.744,28.661z"/>
		<path fill="#F7EBCB" d="M140.401,27.256l-1.794,0.324c-0.061-0.359-0.198-0.629-0.412-0.811c-0.213-0.182-0.491-0.271-0.832-0.271
			c-0.453,0-0.815,0.156-1.085,0.469c-0.27,0.313-0.404,0.838-0.404,1.571c0,0.815,0.137,1.393,0.411,1.729s0.643,0.506,1.104,0.506
			c0.345,0,0.628-0.099,0.849-0.295c0.22-0.197,0.375-0.535,0.466-1.014l1.788,0.304c-0.186,0.821-0.542,1.44-1.069,1.859
			c-0.526,0.419-1.232,0.628-2.118,0.628c-1.006,0-1.808-0.317-2.406-0.952c-0.598-0.635-0.896-1.513-0.896-2.636
			c0-1.137,0.3-2.02,0.9-2.652c0.6-0.633,1.412-0.949,2.436-0.949c0.837,0,1.503,0.18,1.998,0.541
			C139.83,25.968,140.186,26.518,140.401,27.256z"/>
		<path fill="#F7EBCB" d="M145.765,29.911l1.813,0.305c-0.232,0.665-0.601,1.171-1.104,1.519c-0.503,0.348-1.132,0.521-1.888,0.521
			c-1.196,0-2.081-0.391-2.655-1.172c-0.454-0.627-0.681-1.416-0.681-2.371c0-1.141,0.298-2.033,0.894-2.678
			c0.597-0.646,1.35-0.969,2.261-0.969c1.023,0,1.831,0.338,2.423,1.014s0.874,1.711,0.849,3.105h-4.561
			c0.014,0.54,0.16,0.96,0.44,1.26c0.281,0.301,0.631,0.451,1.05,0.451c0.285,0,0.524-0.078,0.719-0.234
			C145.519,30.508,145.665,30.257,145.765,29.911z M145.868,28.072c-0.013-0.527-0.148-0.928-0.408-1.202
			c-0.259-0.274-0.574-0.411-0.945-0.411c-0.397,0-0.726,0.145-0.984,0.434s-0.387,0.683-0.382,1.18H145.868z"/>
		<path fill="#F7EBCB" d="M148.518,30.139l1.827-0.279c0.077,0.354,0.235,0.623,0.473,0.807s0.57,0.275,0.997,0.275
			c0.471,0,0.825-0.086,1.062-0.26c0.16-0.121,0.24-0.282,0.24-0.485c0-0.138-0.044-0.253-0.13-0.343
			c-0.091-0.087-0.294-0.166-0.609-0.24c-1.468-0.324-2.398-0.619-2.791-0.887c-0.544-0.372-0.816-0.889-0.816-1.549
			c0-0.596,0.235-1.097,0.706-1.502c0.471-0.406,1.2-0.609,2.189-0.609c0.941,0,1.641,0.153,2.099,0.46s0.772,0.76,0.945,1.36
			l-1.716,0.316c-0.074-0.268-0.213-0.473-0.418-0.615s-0.498-0.213-0.878-0.213c-0.479,0-0.822,0.066-1.03,0.201
			c-0.138,0.094-0.207,0.217-0.207,0.369c0,0.129,0.061,0.238,0.182,0.33c0.164,0.121,0.73,0.291,1.7,0.512
			c0.97,0.22,1.646,0.49,2.03,0.809c0.38,0.324,0.57,0.775,0.57,1.354c0,0.63-0.264,1.173-0.79,1.626
			c-0.527,0.453-1.307,0.68-2.339,0.68c-0.937,0-1.679-0.189-2.225-0.57C149.044,31.307,148.687,30.79,148.518,30.139z"/>
		<path fill="#F7EBCB" d="M156.116,28.564c0-0.605,0.148-1.189,0.447-1.756c0.298-0.565,0.72-0.998,1.266-1.295
			c0.547-0.299,1.156-0.447,1.83-0.447c1.041,0,1.894,0.338,2.559,1.014s0.997,1.529,0.997,2.562c0,1.041-0.335,1.903-1.007,2.588
			s-1.517,1.026-2.536,1.026c-0.63,0-1.231-0.143-1.804-0.428s-1.007-0.702-1.305-1.253
			C156.265,30.024,156.116,29.354,156.116,28.564z M157.981,28.661c0,0.683,0.162,1.204,0.486,1.567
			c0.323,0.363,0.723,0.545,1.198,0.545c0.475,0,0.873-0.182,1.194-0.545c0.322-0.363,0.483-0.889,0.483-1.58
			c0-0.674-0.161-1.191-0.483-1.555c-0.321-0.363-0.72-0.545-1.194-0.545c-0.476,0-0.875,0.182-1.198,0.545
			C158.144,27.457,157.981,27.979,157.981,28.661z"/>
		<path fill="#F7EBCB" d="M163.999,30.139l1.827-0.279c0.077,0.354,0.235,0.623,0.473,0.807s0.57,0.275,0.997,0.275
			c0.471,0,0.825-0.086,1.062-0.26c0.16-0.121,0.24-0.282,0.24-0.485c0-0.138-0.044-0.253-0.13-0.343
			c-0.091-0.087-0.294-0.166-0.609-0.24c-1.468-0.324-2.398-0.619-2.791-0.887c-0.544-0.372-0.816-0.889-0.816-1.549
			c0-0.596,0.235-1.097,0.706-1.502c0.471-0.406,1.2-0.609,2.189-0.609c0.941,0,1.641,0.153,2.099,0.46s0.772,0.76,0.945,1.36
			l-1.716,0.316c-0.074-0.268-0.213-0.473-0.418-0.615s-0.498-0.213-0.878-0.213c-0.479,0-0.822,0.066-1.03,0.201
			c-0.138,0.094-0.207,0.217-0.207,0.369c0,0.129,0.061,0.238,0.182,0.33c0.164,0.121,0.73,0.291,1.7,0.512
			c0.97,0.22,1.646,0.49,2.03,0.809c0.38,0.324,0.57,0.775,0.57,1.354c0,0.63-0.264,1.173-0.79,1.626
			c-0.527,0.453-1.307,0.68-2.339,0.68c-0.937,0-1.679-0.189-2.225-0.57C164.525,31.307,164.168,30.79,163.999,30.139z"/>
	</g>
	<path fill="#F7EBCB" d="M16.359,25.938v-2.736h-5.566v-2.283l5.9-8.637h2.189v8.629h1.688v2.291h-1.688v2.736H16.359z
		 M16.359,20.911v-4.648l-3.126,4.648H16.359z"/>
</g>
</svg>
