<?xml version="1.0" encoding="utf-8"?>
<!-- Generator: Adobe Illustrator 19.0.0, SVG Export Plug-In . SVG Version: 6.00 Build 0)  -->
<svg version="1.1" id="Capa_1" xmlns="http://www.w3.org/2000/svg" xmlns:xlink="http://www.w3.org/1999/xlink" x="0px" y="0px"
	 viewBox="0 0 30 30" style="enable-background:new 0 0 30 30;" xml:space="preserve">
<style type="text/css">
	.st0{fill:#FFFFFF;stroke:#51564D;stroke-width:1.7139;stroke-miterlimit:10;}
	.st1{fill:#51564D;}
</style>
<g id="XMLID_136808_">
	<path id="XMLID_136813_" class="st0" d="M20,10c0.8,0.8,0.8,2.2,0,3L18.1,15l1.9,1.9c0.8,0.8,0.8,2.2,0,3c-0.8,0.8-2.2,0.8-3,0
		L15,18l-1.9,1.9c-0.8,0.8-2.2,0.8-3,0c-0.8-0.8-0.8-2.2,0-3L12,15l-1.9-1.9c-0.8-0.8-0.8-2.2,0-3c0.8-0.8,2.2-0.8,3,0l1.9,1.9
		l1.9-1.9C17.8,9.2,19.1,9.2,20,10L20,10z M20,10"/>
	<path id="XMLID_136809_" class="st1" d="M4.4,25.6c-5.9-5.9-5.9-15.4,0-21.2c5.9-5.9,15.4-5.9,21.2,0c5.9,5.9,5.9,15.4,0,21.2
		S10.2,31.5,4.4,25.6L4.4,25.6z M23.3,6.7c-4.6-4.6-12-4.6-16.6,0c-4.6,4.6-4.6,12,0,16.6c4.6,4.6,12,4.6,16.6,0
		C27.9,18.7,27.9,11.3,23.3,6.7L23.3,6.7z M24.1,5.9"/>
</g>
</svg>
