<?xml version="1.0" encoding="utf-8"?>
<!-- Generator: Adobe Illustrator 19.0.0, SVG Export Plug-In . SVG Version: 6.00 Build 0)  -->
<svg version="1.1" id="Capa_1" xmlns="http://www.w3.org/2000/svg" xmlns:xlink="http://www.w3.org/1999/xlink" x="0px" y="0px"
	 viewBox="-277 400.9 40 40" style="enable-background:new -277 400.9 40 40;" xml:space="preserve">
<style type="text/css">
	.st0{fill:#C96D2F;}
	.st1{fill:#FFFFFF;}
</style>
<g id="XMLID_1_">
	<rect id="XMLID_2374_" x="-277" y="400.9" class="st0" width="40" height="40"/>
	<g id="XMLID_2353_">
		<path id="XMLID_2361_" class="st1" d="M-248.1,421.5l-8.5-7c-0.4-0.3-1-0.3-1.3,0l-8.5,7c-0.2,0.2-0.4,0.5-0.4,0.8v10.6
			c0,0.6,0.5,1.1,1.1,1.1h16.9c0.6,0,1.1-0.5,1.1-1.1v-10.6C-247.8,422-247.9,421.7-248.1,421.5L-248.1,421.5z M-256.1,431.8h-2.2
			v-5.9h2.2V431.8z M-249.9,431.8h-4.1v-6.9c0-0.6-0.5-1.1-1.1-1.1h-4.4c-0.6,0-1.1,0.5-1.1,1.1v6.9h-4.2v-9l7.4-6.1l7.4,6.1
			L-249.9,431.8L-249.9,431.8z"/>
		<path id="XMLID_2355_" class="st1" d="M-245.2,419.4c-2.4-1.9-4.6-3.7-7-5.7c-0.7-0.6-1.5-1.3-2.2-1.9s-1.5-1.2-2.1-1.8
			c-0.4-0.4-1-0.4-1.4,0c-0.7,0.6-1.4,1.2-2.1,1.8s-1.5,1.2-2.2,1.9c-2.4,2-4.6,3.8-7,5.7c-0.5,0.4-0.5,1-0.2,1.5
			c0.4,0.5,1,0.5,1.5,0.2c2.4-1.9,4.6-3.7,7-5.7l0,0c0.7-0.6,1.4-1.2,2.1-1.8c0.5-0.4,1-0.8,1.5-1.3c0.5,0.4,1,0.8,1.5,1.3
			c0.7,0.6,1.5,1.2,2.1,1.8l0,0c2.4,2,4.7,3.8,7,5.7c0.2,0.2,0.4,0.2,0.7,0.2s0.6-0.1,0.8-0.4C-244.7,420.4-244.7,419.8-245.2,419.4
			L-245.2,419.4z"/>
	</g>
</g>
</svg>
