<?xml version="1.0" encoding="utf-8"?>
<!-- Generator: Adobe Illustrator 16.0.0, SVG Export Plug-In . SVG Version: 6.00 Build 0)  -->
<!DOCTYPE svg PUBLIC "-//W3C//DTD SVG 1.1//EN" "http://www.w3.org/Graphics/SVG/1.1/DTD/svg11.dtd">
<svg version="1.1" id="Layer_1" xmlns="http://www.w3.org/2000/svg" xmlns:xlink="http://www.w3.org/1999/xlink" x="0px" y="0px"
	 width="246.516px" height="56.672px" viewBox="0 0 246.516 56.672" enable-background="new 0 0 246.516 56.672"
	 xml:space="preserve">
<g id="XMLID_4256_">
	<g id="XMLID_4450_">
		<g id="XMLID_4464_">
			<g id="XMLID_4465_">
				<polygon fill="#F78B36" points="222.077,0.001 246.516,28.336 222.077,56.672 199.831,56.672 224.269,28.336 199.831,0.001 
					222.077,0.001 				"/>
			</g>
		</g>
		<g id="XMLID_4462_">
			<g id="XMLID_4463_">
				<polygon fill="#F78B36" points="24.438,56.672 0,28.336 24.438,0 46.685,0 22.246,28.336 46.685,56.672 24.438,56.672 				"/>
			</g>
		</g>
		<g id="XMLID_4461_">
			<polygon fill="#F78B36" points="53.417,0 193.099,0.001 217.538,28.336 193.099,56.672 53.417,56.672 28.978,28.336 			"/>
		</g>
	</g>
	<g>
		<path fill="#F7EBCB" d="M58.412,36.751V24.308h2.512v12.443H58.412z"/>
		<path fill="#F7EBCB" d="M63.083,36.751V24.308h2.445l5.093,8.31v-8.31h2.334v12.443h-2.521l-5.016-8.114v8.114H63.083z"/>
		<path fill="#F7EBCB" d="M78.151,36.751V26.412h-3.692v-2.104h9.889v2.104h-3.684v10.339H78.151z"/>
		<path fill="#F7EBCB" d="M85.717,36.751V24.308h5.288c1.33,0,2.296,0.111,2.899,0.335s1.085,0.621,1.447,1.192
			c0.362,0.572,0.543,1.226,0.543,1.961c0,0.934-0.274,1.705-0.823,2.313s-1.37,0.991-2.461,1.149
			c0.543,0.317,0.992,0.665,1.345,1.045c0.354,0.379,0.831,1.052,1.43,2.02l1.52,2.428h-3.005l-1.816-2.708
			c-0.645-0.968-1.086-1.577-1.324-1.829c-0.237-0.252-0.489-0.424-0.755-0.518s-0.688-0.14-1.265-0.14h-0.509v5.194H85.717z
			 M88.229,29.57h1.859c1.206,0,1.958-0.051,2.258-0.153c0.3-0.102,0.535-0.277,0.705-0.526c0.17-0.248,0.254-0.56,0.254-0.934
			c0-0.418-0.112-0.757-0.335-1.014c-0.224-0.258-0.539-0.421-0.947-0.488c-0.204-0.028-0.814-0.043-1.833-0.043h-1.961V29.57z"/>
		<path fill="#F7EBCB" d="M97.492,30.605c0-1.268,0.189-2.331,0.569-3.191c0.283-0.634,0.669-1.202,1.159-1.706
			c0.489-0.504,1.025-0.877,1.608-1.12c0.775-0.328,1.669-0.492,2.682-0.492c1.833,0,3.3,0.568,4.401,1.706
			c1.101,1.137,1.651,2.719,1.651,4.744c0,2.009-0.546,3.581-1.639,4.716c-1.092,1.134-2.552,1.701-4.379,1.701
			c-1.851,0-3.322-0.564-4.414-1.693S97.492,32.586,97.492,30.605z M100.081,30.521c0,1.409,0.325,2.478,0.976,3.204
			c0.651,0.728,1.477,1.091,2.479,1.091s1.824-0.36,2.466-1.082s0.963-1.804,0.963-3.247c0-1.426-0.312-2.489-0.938-3.191
			c-0.625-0.701-1.456-1.052-2.491-1.052s-1.87,0.354-2.504,1.064C100.397,28.019,100.081,29.089,100.081,30.521z"/>
		<path fill="#F7EBCB" d="M111.253,24.308h4.592c1.036,0,1.825,0.079,2.368,0.237c0.73,0.216,1.355,0.598,1.876,1.146
			s0.917,1.221,1.188,2.016c0.271,0.795,0.407,1.775,0.407,2.941c0,1.023-0.127,1.906-0.382,2.647
			c-0.312,0.906-0.755,1.639-1.333,2.199c-0.436,0.424-1.024,0.755-1.766,0.993c-0.555,0.175-1.296,0.263-2.224,0.263h-4.728V24.308
			z M113.766,26.412v8.242h1.876c0.702,0,1.208-0.039,1.52-0.119c0.407-0.102,0.745-0.274,1.014-0.518
			c0.269-0.243,0.488-0.644,0.658-1.201c0.17-0.557,0.255-1.316,0.255-2.278s-0.085-1.701-0.255-2.216
			c-0.169-0.515-0.407-0.917-0.713-1.205c-0.306-0.289-0.693-0.484-1.163-0.586c-0.351-0.079-1.038-0.119-2.062-0.119H113.766z"/>
		<path fill="#F7EBCB" d="M123.538,24.308h2.513v6.739c0,1.069,0.03,1.763,0.093,2.08c0.107,0.509,0.364,0.918,0.769,1.227
			c0.405,0.308,0.958,0.462,1.659,0.462c0.713,0,1.251-0.146,1.613-0.437c0.361-0.292,0.58-0.649,0.653-1.074
			c0.073-0.424,0.11-1.129,0.11-2.113v-6.884h2.513v6.536c0,1.493-0.067,2.549-0.204,3.166c-0.136,0.616-0.386,1.137-0.751,1.562
			c-0.364,0.424-0.853,0.763-1.464,1.015c-0.611,0.251-1.409,0.377-2.395,0.377c-1.188,0-2.089-0.137-2.703-0.411
			c-0.613-0.274-1.099-0.631-1.456-1.069s-0.591-0.898-0.704-1.38c-0.165-0.713-0.247-1.766-0.247-3.157V24.308z"/>
		<path fill="#F7EBCB" d="M143.81,32.176l2.437,0.772c-0.374,1.358-0.995,2.367-1.863,3.026c-0.869,0.659-1.971,0.988-3.307,0.988
			c-1.652,0-3.01-0.564-4.074-1.693s-1.596-2.672-1.596-4.63c0-2.071,0.535-3.68,1.604-4.825c1.069-1.146,2.476-1.719,4.218-1.719
			c1.523,0,2.76,0.449,3.71,1.35c0.565,0.531,0.99,1.296,1.272,2.291l-2.486,0.595c-0.146-0.646-0.454-1.154-0.921-1.528
			c-0.467-0.373-1.034-0.56-1.702-0.56c-0.922,0-1.67,0.331-2.244,0.993c-0.575,0.661-0.862,1.734-0.862,3.217
			c0,1.573,0.283,2.693,0.849,3.361c0.566,0.667,1.302,1.001,2.207,1.001c0.668,0,1.242-0.212,1.723-0.637
			C143.255,33.755,143.6,33.087,143.81,32.176z"/>
		<path fill="#F7EBCB" d="M156.103,32.176l2.437,0.772c-0.374,1.358-0.995,2.367-1.863,3.026c-0.869,0.659-1.971,0.988-3.307,0.988
			c-1.652,0-3.01-0.564-4.074-1.693s-1.596-2.672-1.596-4.63c0-2.071,0.535-3.68,1.604-4.825c1.069-1.146,2.476-1.719,4.218-1.719
			c1.523,0,2.76,0.449,3.71,1.35c0.565,0.531,0.99,1.296,1.272,2.291l-2.486,0.595c-0.146-0.646-0.454-1.154-0.921-1.528
			c-0.467-0.373-1.034-0.56-1.702-0.56c-0.922,0-1.67,0.331-2.244,0.993c-0.575,0.661-0.862,1.734-0.862,3.217
			c0,1.573,0.283,2.693,0.849,3.361c0.566,0.667,1.302,1.001,2.207,1.001c0.668,0,1.242-0.212,1.723-0.637
			C155.548,33.755,155.893,33.087,156.103,32.176z"/>
		<path fill="#F7EBCB" d="M160.358,36.751V24.308h2.512v12.443H160.358z"/>
		<path fill="#F7EBCB" d="M164.494,30.605c0-1.268,0.189-2.331,0.569-3.191c0.282-0.634,0.668-1.202,1.158-1.706
			c0.489-0.504,1.025-0.877,1.608-1.12c0.774-0.328,1.669-0.492,2.683-0.492c1.833,0,3.3,0.568,4.4,1.706
			c1.101,1.137,1.651,2.719,1.651,4.744c0,2.009-0.546,3.581-1.639,4.716c-1.092,1.134-2.552,1.701-4.38,1.701
			c-1.85,0-3.321-0.564-4.414-1.693C165.04,34.141,164.494,32.586,164.494,30.605z M167.083,30.521c0,1.409,0.325,2.478,0.977,3.204
			c0.65,0.728,1.477,1.091,2.479,1.091c1.001,0,1.823-0.36,2.465-1.082c0.643-0.722,0.964-1.804,0.964-3.247
			c0-1.426-0.312-2.489-0.938-3.191c-0.625-0.701-1.455-1.052-2.49-1.052c-1.036,0-1.871,0.354-2.504,1.064
			C167.399,28.019,167.083,29.089,167.083,30.521z M168.984,23.595l1.171-2.538h2.674l-2.334,2.538H168.984z"/>
		<path fill="#F7EBCB" d="M178.29,36.751V24.308h2.444l5.093,8.31v-8.31h2.334v12.443h-2.521l-5.016-8.114v8.114H178.29z"/>
	</g>
</g>
</svg>
