<?xml version="1.0" encoding="utf-8"?>
<!-- Generator: Adobe Illustrator 19.0.0, SVG Export Plug-In . SVG Version: 6.00 Build 0)  -->
<svg version="1.1" id="Capa_1" xmlns="http://www.w3.org/2000/svg" xmlns:xlink="http://www.w3.org/1999/xlink" x="0px" y="0px"
	 viewBox="-277 400.9 40 40" style="enable-background:new -277 400.9 40 40;" xml:space="preserve">
<style type="text/css">
	.st0{fill:#C96D2F;}
	.st1{fill:#FFFFFF;}
</style>
<g>
	<g id="XMLID_1_">
		<rect id="XMLID_2374_" x="-277" y="400.9" class="st0" width="40" height="40"/>
	</g>
	<g id="XMLID_7073_">
		<g id="XMLID_7080_">
			<path id="XMLID_7082_" class="st1" d="M-246.3,415.6h-17.6c-0.8,0-1.4-0.6-1.4-1.4s0.6-1.4,1.4-1.4h17.6c0.8,0,1.4,0.6,1.4,1.4
				S-245.5,415.6-246.3,415.6z"/>
			<circle id="XMLID_7081_" class="st1" cx="-267.7" cy="414.3" r="1.4"/>
		</g>
		<g id="XMLID_7077_">
			<path id="XMLID_7079_" class="st1" d="M-246.3,422.3h-17.6c-0.8,0-1.4-0.6-1.4-1.4s0.6-1.4,1.4-1.4h17.6c0.8,0,1.4,0.6,1.4,1.4
				S-245.5,422.3-246.3,422.3z"/>
			<circle id="XMLID_7078_" class="st1" cx="-267.7" cy="420.9" r="1.4"/>
		</g>
		<g id="XMLID_7074_">
			<path id="XMLID_7076_" class="st1" d="M-246.3,428.9h-17.6c-0.8,0-1.4-0.6-1.4-1.4s0.6-1.4,1.4-1.4h17.6c0.8,0,1.4,0.6,1.4,1.4
				S-245.5,428.9-246.3,428.9z"/>
			<circle id="XMLID_7075_" class="st1" cx="-267.7" cy="427.5" r="1.4"/>
		</g>
	</g>
</g>
</svg>
