<?xml version="1.0" encoding="utf-8"?>
<!-- Generator: Adobe Illustrator 19.0.0, SVG Export Plug-In . SVG Version: 6.00 Build 0)  -->
<svg version="1.1" id="Capa_1" xmlns="http://www.w3.org/2000/svg" xmlns:xlink="http://www.w3.org/1999/xlink" x="0px" y="0px"
	 viewBox="-220 383.6 154.9 74.3" style="enable-background:new -220 383.6 154.9 74.3;" xml:space="preserve">
<style type="text/css">
	.st0{fill:#F78B36;}
	.st1{fill:#D66316;}
	.st2{fill:#FFFFFF;}
</style>
<g>
	<rect id="XMLID_248_" x="-219.9" y="383.6" class="st0" width="154.9" height="74.3"/>
	<rect id="XMLID_257_" x="-220.2" y="383.6" class="st1" width="155.2" height="48.2"/>
	<g id="XMLID_2_">
		<path id="XMLID_3_" class="st2" d="M-201.4,441.1h2.9c0.7,0,1.2,0,1.5,0.2c0.5,0.1,0.9,0.4,1.2,0.7c0.3,0.3,0.6,0.8,0.8,1.3
			s0.3,1.1,0.3,1.9c0,0.6-0.1,1.2-0.2,1.7c-0.2,0.6-0.5,1-0.8,1.4c-0.3,0.3-0.6,0.5-1.1,0.6c-0.4,0.1-0.8,0.2-1.4,0.2h-3v-8
			L-201.4,441.1L-201.4,441.1z M-199.9,442.4v5.2h1.2c0.4,0,0.8,0,1-0.1c0.3-0.1,0.5-0.2,0.6-0.3c0.1-0.1,0.3-0.4,0.4-0.8
			s0.2-0.8,0.2-1.4s-0.1-1.1-0.2-1.4c-0.1-0.3-0.3-0.6-0.5-0.8c-0.2-0.2-0.4-0.3-0.7-0.4c-0.2,0-0.7-0.1-1.3-0.1L-199.9,442.4
			L-199.9,442.4z"/>
		<path id="XMLID_6_" class="st2" d="M-193.7,448.9V441h5.8v1.3h-4.2v1.7h4v1.3h-4v2.3h4.4v1.3L-193.7,448.9L-193.7,448.9z"/>
		<path id="XMLID_8_" class="st2" d="M-186.7,446.4l1.5-0.2c0.1,0.5,0.3,0.9,0.6,1.1s0.7,0.4,1.2,0.4s0.9-0.1,1.2-0.3
			c0.3-0.2,0.4-0.5,0.4-0.8c0-0.2-0.1-0.3-0.2-0.5s-0.3-0.2-0.6-0.3c-0.2-0.1-0.6-0.2-1.3-0.3c-0.9-0.2-1.5-0.5-1.8-0.8
			c-0.5-0.4-0.7-1-0.7-1.6c0-0.4,0.1-0.8,0.3-1.1c0.2-0.3,0.6-0.6,1-0.8c0.4-0.2,0.9-0.3,1.5-0.3c1,0,1.7,0.2,2.2,0.6s0.8,1,0.8,1.7
			l-1.6,0.1c-0.1-0.4-0.2-0.7-0.4-0.9c-0.2-0.2-0.6-0.3-1-0.3c-0.5,0-0.8,0.1-1.1,0.3c-0.2,0.1-0.3,0.3-0.3,0.5s0.1,0.3,0.2,0.5
			c0.2,0.2,0.7,0.3,1.5,0.5s1.3,0.4,1.7,0.6s0.7,0.5,0.9,0.8s0.3,0.8,0.3,1.3s-0.1,0.9-0.4,1.3c-0.3,0.4-0.6,0.7-1.1,0.9
			s-1,0.3-1.7,0.3c-1,0-1.8-0.2-2.3-0.7S-186.4,447.2-186.7,446.4z"/>
		<path id="XMLID_11_" class="st2" d="M-173.9,446l1.5,0.5c-0.2,0.9-0.6,1.5-1.2,1.9c-0.6,0.4-1.2,0.6-2.1,0.6c-1,0-1.9-0.4-2.6-1.1
			c-0.7-0.7-1-1.7-1-2.9c0-1.3,0.3-2.3,1-3.1c0.7-0.7,1.6-1.1,2.7-1.1c1,0,1.7,0.3,2.3,0.9c0.4,0.3,0.6,0.8,0.8,1.5l-1.4,0.4
			c-0.1-0.4-0.3-0.7-0.6-1c-0.3-0.2-0.7-0.4-1.1-0.4c-0.6,0-1.1,0.2-1.4,0.6c-0.4,0.4-0.5,1.1-0.5,2c0,1,0.2,1.7,0.5,2.1
			s0.8,0.6,1.4,0.6c0.4,0,0.8-0.1,1.1-0.4C-174.2,447-173.9,446.6-173.9,446z"/>
		<path id="XMLID_14_" class="st2" d="M-163.8,448.9h-1.7l-0.7-1.8h-3.1l-0.8,1.8h-1.7l3.1-7.9h1.7L-163.8,448.9z M-166.8,445.8
			l-1.1-2.9l-1.1,2.9H-166.8z"/>
		<path id="XMLID_17_" class="st2" d="M-162.9,448.9V441h3.3c0.8,0,1.5,0.1,1.8,0.2c0.4,0.1,0.7,0.4,0.9,0.8
			c0.2,0.4,0.3,0.8,0.3,1.2c0,0.6-0.2,1.1-0.5,1.5s-0.9,0.6-1.6,0.7c0.3,0.2,0.6,0.4,0.9,0.7s0.5,0.7,0.9,1.3l1,1.5h-1.9l-1.1-1.7
			c-0.4-0.6-0.7-1-0.8-1.2s-0.3-0.3-0.5-0.3s-0.4-0.1-0.8-0.1h-0.3v3.3H-162.9z M-161.4,444.4h1.2c0.8,0,1.2,0,1.4-0.1
			c0.2-0.1,0.3-0.2,0.4-0.3c0.1-0.1,0.2-0.4,0.2-0.6c0-0.3-0.1-0.5-0.2-0.6s-0.3-0.3-0.6-0.3c-0.1,0-0.5,0-1.2,0h-1.2
			C-161.4,442.5-161.4,444.4-161.4,444.4z"/>
		<path id="XMLID_21_" class="st2" d="M-151.4,446v-1.3h3.4v3.1c-0.3,0.3-0.8,0.6-1.4,0.9s-1.3,0.4-1.9,0.4c-0.8,0-1.5-0.2-2.2-0.5
			c-0.6-0.3-1.1-0.8-1.4-1.5s-0.5-1.3-0.5-2.1c0-0.8,0.2-1.5,0.5-2.2c0.3-0.6,0.8-1.1,1.5-1.5c0.5-0.3,1.1-0.4,1.9-0.4
			c1,0,1.7,0.2,2.3,0.6s0.9,1,1.1,1.7l-1.6,0.3c-0.1-0.4-0.3-0.7-0.6-0.9c-0.3-0.2-0.7-0.3-1.1-0.3c-0.7,0-1.2,0.2-1.7,0.7
			c-0.4,0.4-0.6,1.1-0.6,2s0.2,1.6,0.6,2.1s1,0.7,1.6,0.7c0.3,0,0.7-0.1,1-0.2s0.6-0.3,0.9-0.5v-1h-1.8L-151.4,446L-151.4,446z"/>
		<path id="XMLID_23_" class="st2" d="M-139.4,448.9h-1.7l-0.7-1.8h-3.1l-0.6,1.8h-1.7l3.1-7.9h1.7L-139.4,448.9z M-142.3,445.8
			l-1.1-2.9l-1.1,2.9H-142.3z"/>
		<path id="XMLID_26_" class="st2" d="M-138.6,448.9V441h3.3c0.8,0,1.5,0.1,1.8,0.2c0.4,0.1,0.7,0.4,0.9,0.8
			c0.2,0.4,0.3,0.8,0.3,1.2c0,0.6-0.2,1.1-0.5,1.5s-0.9,0.6-1.6,0.7c0.3,0.2,0.6,0.4,0.9,0.7c0.3,0.3,0.5,0.7,0.9,1.3l1,1.5h-1.9
			l-1.1-1.7c-0.4-0.6-0.7-1-0.8-1.2s-0.3-0.3-0.5-0.3c-0.2-0.1-0.4-0.1-0.8-0.1h-0.3v3.3H-138.6z M-136.9,444.4h1.2
			c0.8,0,1.2,0,1.4-0.1c0.2-0.1,0.3-0.2,0.4-0.3c0.1-0.1,0.2-0.4,0.2-0.6c0-0.3-0.1-0.5-0.2-0.6s-0.3-0.3-0.6-0.3
			c-0.1,0-0.5,0-1.2,0h-1.2C-136.9,442.5-136.9,444.4-136.9,444.4z"/>
		<path id="XMLID_29_" class="st2" d="M-127.9,445c0-0.8,0.1-1.5,0.4-2c0.2-0.4,0.4-0.8,0.7-1.1c0.3-0.3,0.6-0.6,1-0.7
			c0.5-0.2,1.1-0.3,1.7-0.3c1.2,0,2.1,0.4,2.8,1.1c0.7,0.7,1,1.7,1,3s-0.3,2.3-1,3s-1.6,1.1-2.8,1.1c-1.2,0-2.1-0.4-2.8-1.1
			C-127.4,447.3-127.9,446.3-127.9,445z M-126.2,445c0,0.9,0.2,1.6,0.6,2c0.4,0.5,0.9,0.7,1.6,0.7c0.6,0,1.2-0.2,1.6-0.7
			s0.6-1.1,0.6-2.1c0-0.9-0.2-1.6-0.6-2s-0.9-0.7-1.6-0.7s-1.2,0.2-1.6,0.7C-126.1,443.4-126.2,444.1-126.2,445z"/>
		<path id="XMLID_32_" class="st2" d="M-118.9,441.1h3.1c0.6,0,1.1,0,1.4,0.1s0.6,0.2,0.8,0.3c0.2,0.2,0.4,0.4,0.6,0.7
			c0.2,0.3,0.2,0.6,0.2,0.9c0,0.4-0.1,0.7-0.3,1s-0.5,0.5-0.8,0.7c0.5,0.1,0.8,0.4,1.1,0.7c0.3,0.3,0.4,0.7,0.4,1.2
			c0,0.4-0.1,0.7-0.3,1c-0.2,0.3-0.4,0.6-0.7,0.8c-0.3,0.2-0.6,0.3-1.1,0.4c-0.3,0-0.9,0-1.9,0.1h-2.7v-7.9L-118.9,441.1
			L-118.9,441.1z M-117.4,442.4v1.8h1c0.6,0,1,0,1.2,0c0.3,0,0.5-0.1,0.6-0.3c0.2-0.2,0.2-0.4,0.2-0.6s-0.1-0.4-0.2-0.6
			s-0.3-0.2-0.6-0.3c-0.2,0-0.6,0-1.4,0C-116.6,442.4-117.4,442.4-117.4,442.4z M-117.4,445.5v2.1h1.5c0.6,0,0.9,0,1.1,0
			s0.4-0.1,0.6-0.3c0.1-0.2,0.2-0.4,0.2-0.7c0-0.2-0.1-0.4-0.2-0.6s-0.3-0.3-0.5-0.4s-0.7-0.1-1.4-0.1H-117.4z"/>
		<path id="XMLID_36_" class="st2" d="M-108.2,441.1h1.6v5c0,0.7-0.1,1.2-0.2,1.5c-0.2,0.5-0.4,0.8-0.8,1.1
			c-0.4,0.3-0.9,0.4-1.6,0.4c-0.8,0-1.4-0.2-1.8-0.7c-0.4-0.4-0.6-1.1-0.6-1.9l1.5-0.2c0,0.5,0.1,0.8,0.2,1c0.2,0.3,0.4,0.4,0.8,0.4
			s0.6-0.1,0.8-0.3c0.1-0.2,0.2-0.6,0.2-1.3L-108.2,441.1L-108.2,441.1z"/>
		<path id="XMLID_38_" class="st2" d="M-104.9,448.9V441h5.8v1.3h-4.2v1.7h4v1.3h-4v2.3h4.4v1.3L-104.9,448.9L-104.9,448.9z"/>
		<path id="XMLID_40_" class="st2" d="M-95.8,448.9v-6.5h-2.3v-1.3h6.3v1.3h-2.3v6.5H-95.8z"/>
		<path id="XMLID_42_" class="st2" d="M-91.4,445c0-0.8,0.1-1.5,0.4-2c0.2-0.4,0.4-0.8,0.7-1.1c0.3-0.3,0.6-0.6,1-0.7
			c0.5-0.2,1.1-0.3,1.7-0.3c1.2,0,2.1,0.4,2.8,1.1c0.7,0.7,1,1.7,1,3s-0.3,2.3-1,3s-1.6,1.1-2.8,1.1c-1.2,0-2.1-0.4-2.8-1.1
			C-91.1,447.3-91.4,446.3-91.4,445z M-89.8,445c0,0.9,0.2,1.6,0.6,2c0.4,0.5,0.9,0.7,1.6,0.7c0.6,0,1.2-0.2,1.6-0.7
			s0.6-1.1,0.6-2.1c0-0.9-0.2-1.6-0.6-2s-0.9-0.7-1.6-0.7s-1.2,0.2-1.6,0.7S-89.8,444.1-89.8,445z"/>
	</g>
	<path id="XMLID_292_" class="st2" d="M-131.4,413.1c-1.2,0-1.9,1-1.9,1.9v2.9h-18.3V415c0-1-1-1.9-2-1.9c-1.2,0-1.9,1-1.9,1.9v4.9
		c0,1.2,0.8,1.9,1.9,1.9h22.2c1,0,1.7-0.8,1.7-1.9V415C-129.7,414.1-130.4,413.1-131.4,413.1L-131.4,413.1z M-143.1,415.3
		c0.2,0.2,0.8,0.2,1.2,0l6.6-6.8c0.2-0.2,0.2-0.4,0.2-0.8c-0.2-0.2-0.4-0.4-0.6-0.4h-3.3V395c0-1-0.6-1.6-1.4-1.6h-4.3
		c-1,0-1.6,0.6-1.6,1.6v12.3h-3.1c-0.4,0-0.6,0.2-0.8,0.4c0,0.4,0,0.6,0.2,0.8L-143.1,415.3z"/>
</g>
</svg>
