<?xml version="1.0" encoding="utf-8"?>
<!-- Generator: Adobe Illustrator 19.0.0, SVG Export Plug-In . SVG Version: 6.00 Build 0)  -->
<svg version="1.1" id="Capa_1" xmlns="http://www.w3.org/2000/svg" xmlns:xlink="http://www.w3.org/1999/xlink" x="0px" y="0px"
	 viewBox="-220 383.6 154.9 74.3" style="enable-background:new -220 383.6 154.9 74.3;" xml:space="preserve">
<style type="text/css">
	.st0{fill:#F78B36;}
	.st1{fill:#D66316;}
	.st2{fill:#FFFFFF;}
</style>
<g>
	<rect id="XMLID_248_" x="-219.9" y="383.6" class="st0" width="154.9" height="74.3"/>
	<rect id="XMLID_257_" x="-220.2" y="383.6" class="st1" width="155.2" height="48.2"/>
	<g id="XMLID_2_">
		<path id="XMLID_3_" class="st2" d="M-167.6,446v-1.3h3.5v3.1c-0.3,0.3-0.8,0.6-1.4,0.9s-1.3,0.4-1.9,0.4c-0.8,0-1.5-0.2-2.2-0.5
			c-0.6-0.3-1.1-0.8-1.4-1.5s-0.5-1.3-0.5-2.1c0-0.8,0.2-1.5,0.5-2.2c0.3-0.6,0.8-1.1,1.5-1.5c0.5-0.3,1.1-0.4,1.9-0.4
			c1,0,1.7,0.2,2.3,0.6s0.9,1,1.1,1.7l-1.6,0.3c-0.1-0.4-0.3-0.7-0.6-0.9c-0.3-0.2-0.7-0.3-1.1-0.3c-0.7,0-1.2,0.2-1.7,0.7
			c-0.4,0.4-0.6,1.1-0.6,2s0.2,1.6,0.6,2.1s1,0.7,1.6,0.7c0.3,0,0.7-0.1,1-0.2s0.6-0.3,0.9-0.5v-1h-1.9L-167.6,446L-167.6,446z"/>
		<path id="XMLID_5_" class="st2" d="M-162.6,448.9v-7.8h1.6v6.5h4v1.3H-162.6z"/>
		<path id="XMLID_7_" class="st2" d="M-156.3,445c0-0.8,0.1-1.5,0.4-2c0.2-0.4,0.4-0.8,0.7-1.1c0.3-0.3,0.6-0.6,1-0.7
			c0.5-0.2,1.1-0.3,1.7-0.3c1.2,0,2.1,0.4,2.8,1.1c0.7,0.7,1,1.7,1,3s-0.3,2.3-1,3s-1.6,1.1-2.8,1.1c-1.2,0-2.1-0.4-2.8-1.1
			C-155.9,447.3-156.3,446.3-156.3,445z M-154.6,445c0,0.9,0.2,1.6,0.6,2c0.4,0.5,0.9,0.7,1.6,0.7c0.6,0,1.2-0.2,1.6-0.7
			s0.6-1.1,0.6-2.1c0-0.9-0.2-1.6-0.6-2s-0.9-0.7-1.6-0.7s-1.2,0.2-1.6,0.7C-154.4,443.4-154.6,444.1-154.6,445z"/>
		<path id="XMLID_11_" class="st2" d="M-147.8,446.4l1.5-0.2c0.1,0.5,0.3,0.9,0.6,1.1c0.3,0.2,0.7,0.4,1.2,0.4s0.9-0.1,1.2-0.3
			c0.3-0.2,0.4-0.5,0.4-0.8c0-0.2-0.1-0.3-0.2-0.5s-0.3-0.2-0.6-0.3c-0.2-0.1-0.6-0.2-1.3-0.3c-0.9-0.2-1.5-0.5-1.8-0.8
			c-0.5-0.4-0.7-1-0.7-1.6c0-0.4,0.1-0.8,0.3-1.1c0.2-0.3,0.6-0.6,1-0.8c0.4-0.2,0.9-0.3,1.5-0.3c1,0,1.7,0.2,2.2,0.6s0.8,1,0.8,1.7
			l-1.6,0.1c-0.1-0.4-0.2-0.7-0.4-0.9c-0.2-0.2-0.6-0.3-1-0.3c-0.5,0-0.8,0.1-1.1,0.3c-0.2,0.1-0.3,0.3-0.3,0.5s0.1,0.3,0.2,0.5
			c0.2,0.2,0.7,0.3,1.5,0.5s1.3,0.4,1.7,0.6s0.7,0.5,0.9,0.8c0.2,0.3,0.3,0.8,0.3,1.3s-0.1,0.9-0.4,1.3s-0.6,0.7-1.1,0.9
			s-1,0.3-1.7,0.3c-1,0-1.8-0.2-2.3-0.7S-147.7,447.2-147.8,446.4z"/>
		<path id="XMLID_14_" class="st2" d="M-132.9,448.9h-1.7l-0.7-1.8h-3.1l-0.6,1.8h-1.7l3.1-7.9h1.6L-132.9,448.9z M-135.9,445.8
			l-1.1-2.9l-1.1,2.9H-135.9z"/>
		<path id="XMLID_17_" class="st2" d="M-132.1,448.9V441h3.3c0.8,0,1.5,0.1,1.8,0.2c0.4,0.1,0.7,0.4,0.9,0.8
			c0.2,0.4,0.3,0.8,0.3,1.2c0,0.6-0.2,1.1-0.5,1.5s-0.9,0.6-1.6,0.7c0.3,0.2,0.6,0.4,0.9,0.7c0.3,0.3,0.5,0.7,0.9,1.3l1,1.5h-1.9
			l-1.1-1.7c-0.4-0.6-0.7-1-0.8-1.2s-0.3-0.3-0.5-0.3c-0.2-0.1-0.4-0.1-0.8-0.1h-0.3v3.3H-132.1z M-130.4,444.4h1.2
			c0.8,0,1.2,0,1.4-0.1c0.2-0.1,0.3-0.2,0.4-0.3c0.1-0.1,0.2-0.4,0.2-0.6c0-0.3-0.1-0.5-0.2-0.6s-0.3-0.3-0.6-0.3
			c-0.1,0-0.5,0-1.2,0h-1.2C-130.4,442.5-130.4,444.4-130.4,444.4z"/>
		<path id="XMLID_20_" class="st2" d="M-124.2,448.9V441h1.6v7.9H-124.2z"/>
		<path id="XMLID_22_" class="st2" d="M-121.4,445c0-0.8,0.1-1.5,0.4-2c0.2-0.4,0.4-0.8,0.7-1.1c0.3-0.3,0.6-0.6,1-0.7
			c0.5-0.2,1.1-0.3,1.7-0.3c1.2,0,2.1,0.4,2.8,1.1c0.7,0.7,1,1.7,1,3s-0.3,2.3-1,3s-1.6,1.1-2.8,1.1c-1.2,0-2.1-0.4-2.8-1.1
			C-121.1,447.3-121.4,446.3-121.4,445z M-119.8,445c0,0.9,0.2,1.6,0.6,2c0.4,0.5,0.9,0.7,1.6,0.7c0.6,0,1.2-0.2,1.6-0.7
			s0.6-1.1,0.6-2.1c0-0.9-0.2-1.6-0.6-2s-0.9-0.7-1.6-0.7s-1.2,0.2-1.6,0.7S-119.8,444.1-119.8,445z"/>
	</g>
	<g id="XMLID_339_">
		<path id="XMLID_380_" class="st2" d="M-128.4,423.3l-3.4-3.4c0.7-1.1,1.1-2.5,1.1-3.9c0-4-3.3-7.3-7.3-7.3s-7.3,3.3-7.3,7.3
			s3.3,7.3,7.3,7.3c1.4,0,2.8-0.4,3.9-1.1l3.4,3.4c0.3,0.3,0.7,0.5,1.1,0.5s0.8-0.2,1.1-0.5C-127.8,424.9-127.8,423.9-128.4,423.3
			L-128.4,423.3z M-137.9,421c-2.8,0-5-2.2-5-5s2.2-5,5-5s5,2.2,5,5C-132.9,418.7-135.2,421-137.9,421L-137.9,421z"/>
		<path id="XMLID_377_" class="st2" d="M-143.9,410h-8.6c-0.3,0-0.5,0.2-0.5,0.5v0.5c0,0.3,0.2,0.5,0.5,0.5h7.4
			C-144.8,411-144.4,410.5-143.9,410L-143.9,410z"/>
		<path id="XMLID_373_" class="st2" d="M-148.9,394.8h6.8c0.9,0,1.6-0.7,1.6-1.6l0,0c0-0.9-0.7-1.6-1.6-1.6h-0.8
			c-0.4,0-0.8-0.4-0.8-0.8l0,0c0-1-0.8-1.8-1.8-1.8l0,0c-1,0-1.8,0.8-1.8,1.8l0,0c0,0.5-0.4,0.8-0.8,0.8h-0.8
			c-0.9,0-1.6,0.7-1.6,1.6l0,0C-150.4,394.1-149.8,394.8-148.9,394.8L-148.9,394.8z M-145.4,390.1c0.4,0,0.8,0.4,0.8,0.8
			s-0.4,0.7-0.8,0.7s-0.8-0.4-0.8-0.8C-146.3,390.4-145.9,390.1-145.4,390.1L-145.4,390.1z"/>
		<path id="XMLID_370_" class="st2" d="M-152.6,414.7c-0.3,0-0.5,0.2-0.5,0.5v0.5c0,0.3,0.2,0.5,0.5,0.5h6.2c0-0.1,0-0.2,0-0.3
			c0-0.4,0-0.8,0.1-1.3L-152.6,414.7L-152.6,414.7z"/>
		<path id="XMLID_367_" class="st2" d="M-137.9,406.9v-0.5c0-0.3-0.2-0.5-0.5-0.5h-14.2c-0.3,0-0.5,0.2-0.5,0.5v0.5
			c0,0.3,0.2,0.5,0.5,0.5h14.2C-138.1,407.4-137.9,407.1-137.9,406.9L-137.9,406.9z"/>
		<path id="XMLID_364_" class="st2" d="M-154.7,419.4v-21h18.4v9.3c0.9,0.2,1.8,0.5,2.6,1v-13.4c0-1-0.8-1.8-1.8-1.8h-4
			c-0.1,1.4-1.2,2.4-2.6,2.4h-6.9c-1.4,0-2.5-1.1-2.6-2.4h-4c-1,0-1.8,0.8-1.8,1.8v24.9c0,1,0.8,1.8,1.8,1.8h11.7
			c-0.8-0.7-1.4-1.6-1.9-2.6L-154.7,419.4L-154.7,419.4z"/>
		<path id="XMLID_360_" class="st2" d="M-137.9,401.6c0-0.3-0.2-0.5-0.5-0.5h-14.2c-0.3,0-0.5,0.2-0.5,0.5v0.5
			c0,0.3,0.2,0.5,0.5,0.5h14.2c0.3,0,0.5-0.2,0.5-0.5V401.6z"/>
	</g>
</g>
</svg>
