<?xml version="1.0" encoding="utf-8"?>
<!-- Generator: Adobe Illustrator 19.0.0, SVG Export Plug-In . SVG Version: 6.00 Build 0)  -->
<svg version="1.1" id="Capa_1" xmlns="http://www.w3.org/2000/svg" xmlns:xlink="http://www.w3.org/1999/xlink" x="0px" y="0px"
	 viewBox="-219 383.6 155.3 74.3" style="enable-background:new -219 383.6 155.3 74.3;" xml:space="preserve">
<style type="text/css">
	.st0{fill:#F78B36;}
	.st1{fill:#D66316;}
	.st2{fill:#FFFFFF;}
</style>
<g>
	<rect id="XMLID_248_" x="-218.8" y="383.6" class="st0" width="154.9" height="74.3"/>
	<rect id="XMLID_257_" x="-219" y="383.6" class="st1" width="155.2" height="48.2"/>
	<g id="XMLID_2_">
		<path id="XMLID_3_" class="st2" d="M-188.7,441.1h2.9c0.7,0,1.2,0,1.5,0.2c0.5,0.1,0.9,0.4,1.2,0.7c0.3,0.3,0.6,0.8,0.8,1.3
			s0.3,1.1,0.3,1.9c0,0.6-0.1,1.2-0.2,1.7c-0.2,0.6-0.5,1-0.8,1.4c-0.3,0.3-0.6,0.5-1.1,0.6c-0.4,0.1-0.8,0.2-1.4,0.2h-3v-8
			L-188.7,441.1L-188.7,441.1z M-187,442.4v5.2h1.2c0.4,0,0.8,0,1-0.1c0.3-0.1,0.5-0.2,0.6-0.3s0.3-0.4,0.4-0.8
			c0.1-0.4,0.2-0.8,0.2-1.4s-0.1-1.1-0.2-1.4c-0.1-0.3-0.3-0.6-0.5-0.8c-0.2-0.2-0.4-0.3-0.7-0.4c-0.2,0-0.7-0.1-1.3-0.1L-187,442.4
			L-187,442.4z"/>
		<path id="XMLID_6_" class="st2" d="M-180.7,448.9V441h5.8v1.3h-4.2v1.7h4v1.3h-4v2.3h4.4v1.3L-180.7,448.9L-180.7,448.9z"/>
		<path id="XMLID_8_" class="st2" d="M-173.8,446.4l1.5-0.2c0.1,0.5,0.3,0.9,0.6,1.1s0.7,0.4,1.2,0.4s0.9-0.1,1.2-0.3
			c0.3-0.2,0.3-0.5,0.3-0.8c0-0.2-0.1-0.3-0.2-0.5s-0.3-0.2-0.6-0.3c-0.2-0.1-0.6-0.2-1.3-0.3c-0.9-0.2-1.5-0.5-1.8-0.8
			c-0.5-0.4-0.7-1-0.7-1.6c0-0.4,0.1-0.8,0.3-1.1c0.2-0.3,0.6-0.6,1-0.8c0.4-0.2,0.9-0.3,1.5-0.3c1,0,1.7,0.2,2.2,0.6s0.8,1,0.8,1.7
			l-1.6,0.1c-0.1-0.4-0.2-0.7-0.4-0.9c-0.2-0.2-0.6-0.3-1-0.3c-0.5,0-0.8,0.1-1.1,0.3c0,0.2-0.1,0.4-0.1,0.6s0.1,0.3,0.2,0.5
			c0.2,0.2,0.7,0.3,1.5,0.5s1.3,0.4,1.7,0.6s0.7,0.5,0.9,0.8s0.3,0.8,0.3,1.3s-0.1,0.9-0.4,1.3s-0.6,0.7-1.1,0.9
			c-0.5,0.2-1,0.3-1.7,0.3c-1,0-1.8-0.2-2.3-0.7S-173.7,447.2-173.8,446.4z"/>
		<path id="XMLID_11_" class="st2" d="M-161,446l1.5,0.5c-0.2,0.9-0.6,1.5-1.2,1.9s-1.2,0.6-2.1,0.6c-1,0-1.9-0.4-2.6-1.1
			s-1-1.7-1-2.9c0-1.3,0.3-2.3,1-3.1c0.7-0.7,1.6-1.1,2.7-1.1c1,0,1.7,0.3,2.3,0.9c0.4,0.3,0.6,0.8,0.8,1.5l-1.4,0.4
			c-0.1-0.4-0.3-0.7-0.6-1c-0.3-0.2-0.7-0.4-1.1-0.4c-0.6,0-1.1,0.2-1.4,0.6c-0.4,0.4-0.5,1.1-0.5,2c0,1,0.2,1.7,0.5,2.1
			s0.8,0.6,1.4,0.6c0.4,0,0.8-0.1,1.1-0.4C-161.3,447-161,446.6-161,446z"/>
		<path id="XMLID_14_" class="st2" d="M-151,448.9h-1.7l-0.7-1.8h-3.1l-0.6,1.8h-1.7l3.1-7.9h1.7L-151,448.9z M-153.8,445.8
			l-1.1-2.9l-1.1,2.9H-153.8z"/>
		<path id="XMLID_17_" class="st2" d="M-150,448.9V441h3.3c0.8,0,1.5,0.1,1.8,0.2c0.4,0.1,0.7,0.4,0.9,0.8c0.2,0.4,0.3,0.8,0.3,1.2
			c0,0.6-0.2,1.1-0.5,1.5s-0.9,0.6-1.6,0.7c0.3,0.2,0.6,0.4,0.9,0.7s0.5,0.7,0.9,1.3l1,1.5h-1.9l-1.1-1.7c-0.4-0.6-0.7-1-0.8-1.2
			c-0.1-0.2-0.3-0.3-0.5-0.3c-0.2-0.1-0.4-0.1-0.8-0.1h-0.3v3.3H-150z M-148.5,444.4h1.2c0.8,0,1.2,0,1.4-0.1s0.3-0.2,0.4-0.3
			s0.2-0.4,0.2-0.6c0-0.3-0.1-0.5-0.2-0.6s-0.3-0.3-0.6-0.3c-0.1,0-0.5,0-1.2,0h-1.2C-148.5,442.5-148.5,444.4-148.5,444.4z"/>
		<path id="XMLID_20_" class="st2" d="M-138.5,446v-1.3h3.4v3.1c-0.3,0.3-0.8,0.6-1.4,0.9s-1.3,0.4-1.9,0.4c-0.8,0-1.5-0.2-2.2-0.5
			c-0.6-0.3-1.1-0.8-1.4-1.5s-0.5-1.3-0.5-2.1c0-0.8,0.2-1.5,0.5-2.2c0.3-0.6,0.8-1.1,1.5-1.5c0.5-0.3,1.1-0.4,1.9-0.4
			c1,0,1.7,0.2,2.3,0.6c0.6,0.4,0.9,1,1.1,1.7l-1.6,0.3c-0.1-0.4-0.3-0.7-0.6-0.9c-0.3-0.2-0.7-0.3-1.1-0.3c-0.7,0-1.2,0.2-1.7,0.7
			c-0.4,0.4-0.6,1.1-0.6,2s0.2,1.6,0.6,2.1s1,0.7,1.6,0.7c0.3,0,0.7-0.1,1-0.2s0.6-0.3,0.9-0.5v-1h-1.8L-138.5,446L-138.5,446z"/>
		<path id="XMLID_22_" class="st2" d="M-126.5,448.9h-1.7l-0.8-1.8h-3.1l-0.6,1.8h-1.7l3.1-7.9h1.7L-126.5,448.9z M-129.5,445.8
			l-1.1-2.9l-1.1,2.9H-129.5z"/>
		<path id="XMLID_25_" class="st2" d="M-125.6,448.9V441h3.3c0.8,0,1.5,0.1,1.8,0.2c0.4,0.1,0.7,0.4,0.9,0.8
			c0.2,0.4,0.3,0.8,0.3,1.2c0,0.6-0.2,1.1-0.5,1.5s-0.9,0.6-1.6,0.7c0.3,0.2,0.6,0.4,0.9,0.7c0.3,0.3,0.5,0.7,0.9,1.3l1,1.5h-1.9
			l-1.1-1.7c-0.4-0.6-0.7-1-0.8-1.2c-0.1-0.2-0.3-0.3-0.5-0.3c-0.2-0.1-0.4-0.1-0.8-0.1h-0.3v3.3H-125.6z M-124,444.4h1.2
			c0.8,0,1.2,0,1.4-0.1s0.3-0.2,0.4-0.3c0.1-0.1,0.2-0.4,0.2-0.6c0-0.3-0.1-0.5-0.2-0.6s-0.3-0.3-0.6-0.3c-0.1,0-0.5,0-1.2,0h-1.2
			C-124,442.5-124,444.4-124,444.4z"/>
		<path id="XMLID_29_" class="st2" d="M-114.6,448.9V441h2.6c1,0,1.6,0,1.9,0.1c0.5,0.1,0.8,0.4,1.1,0.8s0.5,0.9,0.5,1.5
			c0,0.5-0.1,0.9-0.3,1.2c-0.2,0.3-0.4,0.6-0.7,0.8c-0.3,0.2-0.5,0.3-0.8,0.4c-0.4,0.1-0.9,0.1-1.6,0.1h-1v3H-114.6z M-113,442.4
			v2.2h0.9c0.6,0,1,0,1.3-0.1c0.2-0.1,0.4-0.2,0.5-0.4c0.1-0.2,0.2-0.4,0.2-0.6c0-0.3-0.1-0.5-0.3-0.7c-0.2-0.2-0.4-0.3-0.6-0.3
			s-0.6-0.1-1.1-0.1H-113z"/>
		<path id="XMLID_32_" class="st2" d="M-107.3,441.1h2.9c0.7,0,1.2,0,1.5,0.2c0.5,0.1,0.9,0.4,1.2,0.7c0.3,0.3,0.6,0.8,0.8,1.3
			c0.2,0.5,0.3,1.1,0.3,1.9c0,0.6-0.1,1.2-0.2,1.7c-0.2,0.6-0.5,1-0.8,1.4c-0.3,0.3-0.6,0.5-1.1,0.6c-0.4,0.1-0.8,0.2-1.4,0.2h-3v-8
			L-107.3,441.1L-107.3,441.1z M-105.7,442.4v5.2h1.2c0.4,0,0.8,0,1-0.1c0.3-0.1,0.5-0.2,0.6-0.3c0.1-0.1,0.3-0.4,0.4-0.8
			s0.2-0.8,0.2-1.4s-0.1-1.1-0.2-1.4s-0.3-0.6-0.5-0.8c-0.2-0.2-0.4-0.3-0.7-0.4c-0.2,0-0.7-0.1-1.3-0.1L-105.7,442.4L-105.7,442.4z
			"/>
		<path id="XMLID_35_" class="st2" d="M-99.3,448.9V441h5.4v1.3h-3.8v1.9h3.3v1.4h-3.3v3.3L-99.3,448.9L-99.3,448.9z"/>
	</g>
	<g id="XMLID_167_">
		<path id="XMLID_302_" class="st2" d="M-144.5,398.8h-4.8c-0.7,0-1.3,0.6-1.3,1.3s0.6,1.3,1.3,1.3h4.8c0.7,0,1.3-0.6,1.3-1.3
			S-143.8,398.8-144.5,398.8z"/>
		<path id="XMLID_297_" class="st2" d="M-144.5,404.4h-4.8c-0.7,0-1.3,0.6-1.3,1.3c0,0.7,0.6,1.3,1.3,1.3h4.8c0.7,0,1.3-0.6,1.3-1.3
			S-143.8,404.4-144.5,404.4z"/>
		<path id="XMLID_296_" class="st2" d="M-138.8,413.8v1.3h0.7c0.8,0,0.8-0.5,0.8-0.7s0-0.6-0.8-0.6L-138.8,413.8L-138.8,413.8z"/>
		<path id="XMLID_186_" class="st2" d="M-128.8,411.3h-2.2v-13.6c0-0.4-0.1-0.7-0.4-0.9l-5.2-5.2c-0.2-0.2-0.6-0.4-0.9-0.4h-15.8
			c-1.4,0-2.6,1.2-2.6,2.6v27.8c0,1.4,1.2,2.6,2.6,2.6h19.8c1.4,0,2.6-1.2,2.6-2.6v-2.7h2.2c1.1,0,2-0.9,2-2v-3.5
			C-126.6,412.2-127.6,411.3-128.8,411.3z M-133.8,421.3H-153v-27.2h13.7v3.9c0,0.9,0.8,1.7,1.7,1.7h3.9v11.6h-6.6c-1.1,0-2,0.9-2,2
			v3.5c0,1.1,0.9,2,2,2h6.6v2.5H-133.8z M-136.5,414.4c0,0.9-0.6,1.5-1.7,1.5h-0.7v0.8c0,0.2-0.2,0.4-0.4,0.4h-0.1
			c-0.2,0-0.4-0.2-0.4-0.4v-3.4c0-0.2,0.2-0.4,0.4-0.4h1.2C-137.1,412.9-136.5,413.5-136.5,414.4z M-134.5,417.1h-1.3
			c-0.2,0-0.4-0.2-0.4-0.4v-3.4c0-0.2,0.2-0.4,0.4-0.4h1.3c1.2,0,2.1,0.9,2.1,2.1C-132.3,416.1-133.3,417.1-134.5,417.1z
			 M-129,413.4c0,0.2-0.2,0.4-0.4,0.4h-1.5v0.8h1.3c0.2,0,0.4,0.2,0.4,0.4v0.1c0,0.2-0.2,0.4-0.4,0.4h-1.3v1.2
			c0,0.2-0.2,0.4-0.4,0.4h-0.1c-0.2,0-0.4-0.2-0.4-0.4v-3.4c0-0.2,0.2-0.4,0.4-0.4h2C-129.3,412.9-129,413.1-129,413.4L-129,413.4
			L-129,413.4z"/>
		<path id="XMLID_185_" class="st2" d="M-134.5,413.8h-0.9v2.5h0.9c0.7,0,1.3-0.6,1.3-1.2C-133.1,414.3-133.8,413.8-134.5,413.8z"/>
	</g>
</g>
</svg>
