<?xml version="1.0" encoding="utf-8"?>
<!-- Generator: Adobe Illustrator 19.0.0, SVG Export Plug-In . SVG Version: 6.00 Build 0)  -->
<svg version="1.1" id="Capa_1" xmlns="http://www.w3.org/2000/svg" xmlns:xlink="http://www.w3.org/1999/xlink" x="0px" y="0px"
	 viewBox="-220 383.6 154.9 74.3" style="enable-background:new -220 383.6 154.9 74.3;" xml:space="preserve">
<style type="text/css">
	.st0{fill:#F78B36;}
	.st1{fill:#D66316;}
	.st2{fill:#FFFFFF;}
</style>
<g id="XMLID_23_">
	<rect id="XMLID_72_" x="-220" y="383.6" class="st0" width="154.9" height="74.3"/>
	<rect id="XMLID_56_" x="-220" y="383.6" class="st1" width="154.9" height="48.2"/>
	<g id="XMLID_1_">
		<path id="XMLID_2_" class="st2" d="M-201.3,448.9V441h2.4l1.4,5.4l1.4-5.4h2.4v7.9h-1.5v-6.2l-1.6,6.2h-1.5l-1.6-6.2v6.2H-201.3z"
			/>
		<path id="XMLID_4_" class="st2" d="M-185,448.9h-1.7l-0.7-1.8h-3.1l-0.6,1.8h-1.7l3.1-7.9h1.7L-185,448.9z M-187.9,445.8l-1.1-2.9
			l-1,2.9H-187.9z"/>
		<path id="XMLID_7_" class="st2" d="M-184.1,448.9V441h2.6c1,0,1.6,0,1.9,0.1c0.5,0.1,0.8,0.4,1.1,0.8s0.5,0.9,0.5,1.5
			c0,0.5-0.1,0.9-0.3,1.2s-0.4,0.6-0.7,0.8c-0.3,0.2-0.5,0.3-0.8,0.4c-0.4,0.1-0.9,0.1-1.6,0.1h-1v3H-184.1z M-182.5,442.4v2.2h0.9
			c0.6,0,1,0,1.3-0.1c0.2-0.1,0.4-0.2,0.5-0.4c0.1-0.2,0.2-0.4,0.2-0.6c0-0.3-0.1-0.5-0.3-0.7s-0.4-0.3-0.6-0.3s-0.6-0.1-1.1-0.1
			C-181.6,442.4-182.5,442.4-182.5,442.4z"/>
		<path id="XMLID_11_" class="st2" d="M-170.5,448.9h-1.7l-0.7-1.8h-3.1l-0.6,1.8h-1.7l3.1-7.9h1.7L-170.5,448.9z M-173.4,445.8
			l-1.1-2.9l-1.1,2.9H-173.4z"/>
		<path id="XMLID_15_" class="st2" d="M-167,441.1h2.9c0.7,0,1.2,0,1.5,0.2c0.5,0.1,0.9,0.4,1.2,0.7c0.3,0.3,0.6,0.8,0.8,1.3
			s0.3,1.1,0.3,1.9c0,0.6-0.1,1.2-0.2,1.7c-0.2,0.6-0.5,1-0.8,1.4c-0.3,0.3-0.6,0.5-1.1,0.6c-0.4,0.1-0.8,0.2-1.4,0.2h-3v-8
			L-167,441.1L-167,441.1z M-165.4,442.4v5.2h1.2c0.4,0,0.8,0,1-0.1c0.3-0.1,0.5-0.2,0.6-0.3c0.1-0.1,0.3-0.4,0.4-0.8
			s0.2-0.8,0.2-1.4s-0.1-1.1-0.2-1.4s-0.3-0.6-0.5-0.8c-0.2-0.2-0.4-0.3-0.7-0.4c-0.2,0-0.7-0.1-1.3-0.1L-165.4,442.4L-165.4,442.4z
			"/>
		<path id="XMLID_18_" class="st2" d="M-159.1,448.9V441h5.8v1.3h-4.2v1.7h4v1.3h-4v2.3h4.4v1.3L-159.1,448.9L-159.1,448.9z"/>
		<path id="XMLID_20_" class="st2" d="M-143.6,446l1.5,0.5c-0.2,0.9-0.6,1.5-1.2,1.9s-1.2,0.6-2.1,0.6c-1,0-1.9-0.4-2.6-1.1
			s-1-1.7-1-2.9c0-1.3,0.3-2.3,1-3.1c0.7-0.7,1.6-1.1,2.7-1.1c1,0,1.7,0.3,2.3,0.9c0.4,0.3,0.6,0.8,0.8,1.5l-1.5,0.4
			c-0.1-0.4-0.3-0.7-0.6-1c-0.3-0.2-0.7-0.4-1.1-0.4c-0.6,0-1.1,0.2-1.4,0.6c-0.4,0.4-0.5,1.1-0.5,2c0,1,0.2,1.7,0.5,2.1
			s0.8,0.6,1.4,0.6c0.4,0,0.8-0.1,1.1-0.4C-144,447-143.8,446.6-143.6,446z"/>
		<path id="XMLID_22_" class="st2" d="M-141.1,445c0-0.8,0.1-1.5,0.4-2c0.2-0.4,0.4-0.8,0.7-1.1c0.3-0.3,0.6-0.6,1-0.7
			c0.5-0.2,1.1-0.3,1.7-0.3c1.2,0,2.1,0.4,2.8,1.1c0.7,0.7,1,1.7,1,3s-0.3,2.3-1,3s-1.6,1.1-2.8,1.1s-2.1-0.4-2.8-1.1
			C-140.7,447.3-141.1,446.3-141.1,445z M-139.4,445c0,0.9,0.2,1.6,0.6,2c0.4,0.5,0.9,0.7,1.6,0.7c0.6,0,1.2-0.2,1.6-0.7
			s0.6-1.1,0.6-2.1c0-0.9-0.2-1.6-0.6-2s-0.9-0.7-1.6-0.7s-1.2,0.2-1.6,0.7S-139.4,444.1-139.4,445z"/>
		<path id="XMLID_26_" class="st2" d="M-132.2,448.9V441h1.5l3.2,5.3V441h1.5v7.9h-1.6l-3.2-5.1v5.1H-132.2z"/>
		<path id="XMLID_28_" class="st2" d="M-122.5,448.9v-6.5h-2.3v-1.3h6.3v1.3h-2.3v6.5H-122.5z"/>
		<path id="XMLID_30_" class="st2" d="M-117.5,448.9V441h5.8v1.3h-4.2v1.7h4v1.3h-4v2.3h4.4v1.3L-117.5,448.9L-117.5,448.9z"/>
		<path id="XMLID_32_" class="st2" d="M-110.2,448.9V441h1.5l3.2,5.3V441h1.5v7.9h-1.6l-3.2-5.1v5.1H-110.2z"/>
		<path id="XMLID_34_" class="st2" d="M-102.3,448.9V441h1.6v7.9H-102.3z"/>
		<path id="XMLID_36_" class="st2" d="M-99.2,441.1h2.9c0.7,0,1.2,0,1.5,0.2c0.5,0.1,0.9,0.4,1.2,0.7c0.3,0.3,0.6,0.8,0.8,1.3
			s0.3,1.1,0.3,1.9c0,0.6-0.1,1.2-0.2,1.7c-0.2,0.6-0.5,1-0.8,1.4c-0.3,0.3-0.6,0.5-1.1,0.6c-0.4,0.1-0.8,0.2-1.4,0.2h-3v-8
			L-99.2,441.1L-99.2,441.1z M-97.6,442.4v5.2h1.2c0.4,0,0.8,0,1-0.1c0.3-0.1,0.5-0.2,0.6-0.3c0.1-0.1,0.3-0.4,0.4-0.8
			s0.2-0.8,0.2-1.4s-0.1-1.1-0.2-1.4s-0.3-0.6-0.5-0.8c-0.2-0.2-0.4-0.3-0.7-0.4c-0.2,0-0.7-0.1-1.3-0.1L-97.6,442.4L-97.6,442.4z"
			/>
		<path id="XMLID_39_" class="st2" d="M-91.6,445c0-0.8,0.1-1.5,0.4-2c0.2-0.4,0.4-0.8,0.7-1.1c0.3-0.3,0.6-0.6,1-0.7
			c0.5-0.2,1.1-0.3,1.7-0.3c1.2,0,2.1,0.4,2.8,1.1s1,1.7,1,3s-0.3,2.3-1,3s-1.6,1.1-2.8,1.1c-1.2,0-2.1-0.4-2.8-1.1
			C-91.2,447.3-91.6,446.3-91.6,445z M-89.9,445c0,0.9,0.2,1.6,0.6,2c0.4,0.5,0.9,0.7,1.6,0.7c0.6,0,1.2-0.2,1.6-0.7
			s0.6-1.1,0.6-2.1c0-0.9-0.2-1.6-0.6-2s-0.9-0.7-1.6-0.7s-1.2,0.2-1.6,0.7C-89.7,443.4-89.9,444.1-89.9,445z"/>
	</g>
	<g id="XMLID_386_">
		<path id="XMLID_387_" class="st2" d="M-146.3,391.2v10.2c0,0.6,0.5,1.1,1.1,1.1h4v3.1h-15.1c-0.6,0-1.1,0.5-1.1,1.1v4h-4
			c-0.6,0-1.1,0.5-1.1,1.1V422c0,0.6,0.5,1.1,1.1,1.1h10.2c0.6,0,1.1-0.5,1.1-1.1v-10.2c0-0.6-0.5-1.1-1.1-1.1h-4v-2.9h14v2.9h-4
			c-0.6,0-1.1,0.5-1.1,1.1V422c0,0.6,0.5,1.1,1.1,1.1h10.2c0.6,0,1.1-0.5,1.1-1.1v-10.2c0-0.6-0.5-1.1-1.1-1.1h-4v-2.9h14v2.9h-4
			c-0.6,0-1.1,0.5-1.1,1.1V422c0,0.6,0.5,1.1,1.1,1.1h10.2c0.6,0,1.1-0.5,1.1-1.1v-10.2c0-0.6-0.5-1.1-1.1-1.1h-4v-4
			c0-0.6-0.5-1.1-1.1-1.1H-139v-3.1h4c0.6,0,1.1-0.5,1.1-1.1v-10.2c0-0.6-0.5-1.1-1.1-1.1h-10.2
			C-145.8,390.1-146.3,390.6-146.3,391.2L-146.3,391.2z M-152.4,420.8h-7.9v-7.9h7.9V420.8z M-136.2,420.8h-7.9v-7.9h7.9V420.8z
			 M-120,420.8h-7.9v-7.9h7.9V420.8L-120,420.8z M-144.1,392.3h7.9v7.9h-7.9V392.3z"/>
	</g>
</g>
</svg>
