<?xml version="1.0" encoding="utf-8"?>
<!-- Generator: Adobe Illustrator 19.0.0, SVG Export Plug-In . SVG Version: 6.00 Build 0)  -->
<svg version="1.1" id="Capa_1" xmlns="http://www.w3.org/2000/svg" xmlns:xlink="http://www.w3.org/1999/xlink" x="0px" y="0px"
	 viewBox="-220 383.6 154.9 74.3" style="enable-background:new -220 383.6 154.9 74.3;" xml:space="preserve">
<style type="text/css">
	.st0{fill:#F78B36;}
	.st1{fill:#D66316;}
	.st2{fill:#FFFFFF;}
</style>
<g>
	<rect id="XMLID_248_" x="-219.9" y="383.6" class="st0" width="154.9" height="74.3"/>
	<rect id="XMLID_257_" x="-220.2" y="383.6" class="st1" width="155.2" height="48.2"/>
	<g id="XMLID_2_">
		<path id="XMLID_3_" class="st2" d="M-181.9,441.1h3.1c0.6,0,1.1,0,1.4,0.1s0.6,0.2,0.8,0.3c0.2,0.2,0.4,0.4,0.6,0.7
			c0.2,0.3,0.2,0.6,0.2,0.9c0,0.4-0.1,0.7-0.3,1s-0.5,0.5-0.8,0.7c0.5,0.1,0.8,0.4,1.1,0.7c0.3,0.3,0.4,0.7,0.4,1.2
			c0,0.4-0.1,0.7-0.3,1s-0.4,0.6-0.7,0.8c-0.3,0.2-0.6,0.3-1.1,0.4c-0.3,0-0.9,0-1.9,0.1h-2.7v-7.9L-181.9,441.1L-181.9,441.1z
			 M-180.2,442.4v1.8h1c0.6,0,1,0,1.2,0c0.3,0,0.5-0.1,0.6-0.3c0.2-0.2,0.2-0.4,0.2-0.6s-0.1-0.4-0.2-0.6c-0.1-0.2-0.3-0.2-0.6-0.3
			c-0.2,0-0.6,0-1.4,0H-180.2z M-180.2,445.5v2.1h1.5c0.6,0,0.9,0,1.1,0s0.4-0.1,0.6-0.3c0.1-0.2,0.2-0.4,0.2-0.7
			c0-0.2-0.1-0.4-0.2-0.6c-0.1-0.2-0.3-0.3-0.5-0.4s-0.7-0.1-1.4-0.1H-180.2z"/>
		<path id="XMLID_7_" class="st2" d="M-173.9,448.9V441h1.6v7.9H-173.9z"/>
		<path id="XMLID_9_" class="st2" d="M-170.9,441.1h3.1c0.6,0,1.1,0,1.4,0.1s0.6,0.2,0.8,0.3c0.2,0.2,0.4,0.4,0.6,0.7
			c0.2,0.3,0.2,0.6,0.2,0.9c0,0.4-0.1,0.7-0.3,1c-0.2,0.3-0.5,0.5-0.8,0.7c0.5,0.1,0.8,0.4,1.1,0.7c0.3,0.3,0.4,0.7,0.4,1.2
			c0,0.4-0.1,0.7-0.3,1c-0.2,0.3-0.4,0.6-0.7,0.8c-0.3,0.2-0.6,0.3-1.1,0.4c-0.3,0-0.9,0-1.9,0.1h-2.7v-7.9L-170.9,441.1
			L-170.9,441.1z M-169.3,442.4v1.8h1c0.6,0,1,0,1.2,0c0.3,0,0.5-0.1,0.6-0.3c0.2-0.2,0.2-0.4,0.2-0.6s-0.1-0.4-0.2-0.6
			s-0.3-0.2-0.6-0.3c-0.2,0-0.6,0-1.4,0H-169.3z M-169.3,445.5v2.1h1.5c0.6,0,0.9,0,1.1,0s0.4-0.1,0.6-0.3c0.1-0.2,0.2-0.4,0.2-0.7
			c0-0.2-0.1-0.4-0.2-0.6s-0.3-0.3-0.5-0.4s-0.7-0.1-1.4-0.1H-169.3z"/>
		<path id="XMLID_15_" class="st2" d="M-162.9,448.9v-7.8h1.6v6.5h4v1.3H-162.9z"/>
		<path id="XMLID_17_" class="st2" d="M-156.3,448.9V441h1.6v7.9H-156.3z"/>
		<path id="XMLID_20_" class="st2" d="M-153.4,445c0-0.8,0.1-1.5,0.4-2c0.2-0.4,0.4-0.8,0.7-1.1c0.3-0.3,0.6-0.6,1-0.7
			c0.5-0.2,1.1-0.3,1.7-0.3c1.2,0,2.1,0.4,2.8,1.1c0.7,0.7,1,1.7,1,3s-0.3,2.3-1,3s-1.6,1.1-2.8,1.1c-1.2,0-2.1-0.4-2.8-1.1
			C-153.2,447.3-153.4,446.3-153.4,445z M-151.9,445c0,0.9,0.2,1.6,0.6,2c0.4,0.5,0.9,0.7,1.6,0.7c0.6,0,1.2-0.2,1.6-0.7
			s0.6-1.1,0.6-2.1c0-0.9-0.2-1.6-0.6-2s-0.9-0.7-1.6-0.7s-1.2,0.2-1.6,0.7S-151.9,444.1-151.9,445z"/>
		<path id="XMLID_23_" class="st2" d="M-140.9,446v-1.3h3.4v3.1c-0.3,0.3-0.8,0.6-1.4,0.9s-1.3,0.4-1.9,0.4c-0.8,0-1.5-0.2-2.2-0.5
			c-0.6-0.3-1.1-0.8-1.4-1.5s-0.5-1.3-0.5-2.1c0-0.8,0.2-1.5,0.5-2.2c0.3-0.6,0.8-1.1,1.5-1.5c0.5-0.3,1.1-0.4,1.9-0.4
			c1,0,1.7,0.2,2.3,0.6s0.9,1,1.1,1.7l-1.6,0.3c-0.1-0.4-0.3-0.7-0.6-0.9c-0.3-0.2-0.7-0.3-1.1-0.3c-0.7,0-1.2,0.2-1.7,0.7
			c-0.4,0.4-0.6,1.1-0.6,2s0.2,1.6,0.6,2.1s1,0.7,1.6,0.7c0.3,0,0.7-0.1,1-0.2s0.6-0.3,0.9-0.5v-1h-1.8L-140.9,446L-140.9,446z"/>
		<path id="XMLID_25_" class="st2" d="M-136.1,448.9V441h3.3c0.8,0,1.5,0.1,1.8,0.2c0.4,0.1,0.7,0.4,0.9,0.8
			c0.2,0.4,0.3,0.8,0.3,1.2c0,0.6-0.2,1.1-0.5,1.5s-0.9,0.6-1.6,0.7c0.3,0.2,0.6,0.4,0.9,0.7c0.3,0.3,0.5,0.7,0.9,1.3l1,1.5h-1.9
			l-1.1-1.7c-0.4-0.6-0.7-1-0.8-1.2s-0.3-0.3-0.5-0.3c-0.2-0.1-0.4-0.1-0.8-0.1h-0.3v3.3H-136.1z M-134.4,444.4h1.2
			c0.8,0,1.2,0,1.4-0.1c0.2-0.1,0.3-0.2,0.4-0.3c0.1-0.1,0.2-0.4,0.2-0.6c0-0.3-0.1-0.5-0.2-0.6s-0.3-0.3-0.6-0.3
			c-0.1,0-0.5,0-1.2,0h-1.2C-134.4,442.5-134.4,444.4-134.4,444.4z"/>
		<path id="XMLID_28_" class="st2" d="M-121.1,448.9h-1.7l-0.7-1.8h-3.1l-0.6,1.8h-1.7l3.1-7.9h1.7L-121.1,448.9z M-123.9,445.8
			l-1.1-2.9l-1,2.9H-123.9z"/>
		<path id="XMLID_31_" class="st2" d="M-120.2,448.9V441h5.4v1.3h-3.8v1.9h3.3v1.4h-3.3v3.3L-120.2,448.9L-120.2,448.9z"/>
		<path id="XMLID_33_" class="st2" d="M-113.7,440.6l0.7-1.6h1.7l-1.5,1.6H-113.7z M-113.6,448.9V441h1.6v7.9H-113.6z"/>
		<path id="XMLID_36_" class="st2" d="M-103.3,448.9h-1.8l-0.7-1.8h-3.1l-0.6,1.8h-1.7l3.1-7.9h1.7L-103.3,448.9z M-106.3,445.8
			l-1.1-2.9l-1.1,2.9H-106.3z"/>
	</g>
	<g id="XMLID_74_">
		<path id="XMLID_407_" class="st2" d="M-157.2,397.9l7,2.4c0.6,0.3,3.3,1.3,8.2,0c6.2-1.5,19.5-4.2,19.7-4.2l-0.5-2.5
			c0,0,0,0-0.1,0l-12.7-1.8c-1.4-0.2-3.7-0.1-5,0.1l-17,3.3c-2.2-0.1-4.3,1.2-5,3.5c-0.4,1.3-0.3,2.6,0.3,3.8
			c0.3,0.6,0.7,1.1,1.3,1.6c-0.8,0.6-1.4,1.4-1.7,2.4c-0.4,1.3-0.3,2.6,0.3,3.8c0.3,0.6,0.8,1.2,1.3,1.6c-0.8,0.6-1.3,1.4-1.7,2.4
			c-0.4,1.3-0.3,2.6,0.3,3.8c0.6,1.2,1.6,2.1,2.9,2.5l12.3,3.9c0.7,0.2,1.8,0.3,2.5,0.1l21.5-5c0,0-0.1-0.6-0.3-1.2
			c-0.2-0.7-0.8-1.1-1.5-1l-19.6,4.5c-0.7,0.2-1.8,0.1-2.5-0.1l-11.6-3.7c-0.6-0.2-1.1-0.6-1.4-1.2s-0.4-1.2-0.2-1.9
			c0.4-1.3,1.8-2,3.1-1.6c0,0,7.1,2.3,10,3.2c0.7,0.2,1.8,0.3,2.5,0.1l21.5-4.9c0,0-0.1-0.6-0.3-1.3c-0.2-0.7-0.8-1.1-1.5-1
			l-19.6,4.5c-0.7,0.2-1.8,0.1-2.5-0.1l-11.6-3.7c-0.6-0.2-1.1-0.6-1.4-1.2s-0.4-1.2-0.2-1.9c0.4-1.3,1.8-2,3.1-1.6
			c0,0,7.2,2.3,10.1,3.2c0.7,0.2,1.8,0.3,2.5,0.1l21.5-4.9c0,0-0.1-0.6-0.3-1.3c-0.2-0.7-0.8-1.1-1.5-1l-19.6,4.5
			c-0.7,0.2-1.8,0.1-2.5-0.1l-11.6-3.7c-0.6-0.2-1.1-0.6-1.4-1.2s-0.4-1.2-0.2-1.9C-159.8,398.2-158.4,397.5-157.2,397.9
			L-157.2,397.9z"/>
	</g>
</g>
</svg>
