<?xml version="1.0" encoding="utf-8"?>
<!-- Generator: Adobe Illustrator 19.0.0, SVG Export Plug-In . SVG Version: 6.00 Build 0)  -->
<svg version="1.1" id="Capa_1" xmlns="http://www.w3.org/2000/svg" xmlns:xlink="http://www.w3.org/1999/xlink" x="0px" y="0px"
	 viewBox="-219 383.6 155.2 74.3" style="enable-background:new -219 383.6 155.2 74.3;" xml:space="preserve">
<style type="text/css">
	.st0{fill:#F78B36;}
	.st1{fill:#D66316;}
	.st2{fill:#FFFFFF;}
	.st3{fill:#FEFEFE;}
</style>
<g>
	<rect id="XMLID_248_" x="-218.9" y="383.6" class="st0" width="154.9" height="74.3"/>
	<rect id="XMLID_257_" x="-219" y="383.6" class="st1" width="155.2" height="48.2"/>
	<g id="XMLID_1_">
		<path id="XMLID_2_" class="st2" d="M-195.2,448.9h-1.7l-0.7-1.8h-3.1l-0.6,1.8h-1.7l3.1-7.9h1.7L-195.2,448.9z M-198.1,445.8
			l-1.1-2.9l-1.1,2.9H-198.1z"/>
		<path id="XMLID_5_" class="st2" d="M-189.3,446l1.5,0.5c-0.2,0.9-0.6,1.5-1.2,1.9s-1.2,0.6-2.1,0.6c-1,0-1.9-0.4-2.6-1.1
			s-1-1.7-1-2.9c0-1.3,0.3-2.3,1-3.1c0.7-0.7,1.6-1.1,2.7-1.1c1,0,1.7,0.3,2.3,0.9c0.4,0.3,0.6,0.8,0.8,1.5l-1.5,0.4
			c-0.1-0.4-0.3-0.7-0.6-1c-0.3-0.2-0.7-0.4-1.1-0.4c-0.6,0-1.1,0.2-1.4,0.6c-0.4,0.4-0.5,1.1-0.5,2c0,1,0.2,1.7,0.5,2.1
			s0.8,0.6,1.4,0.6c0.4,0,0.8-0.1,1.1-0.4C-189.7,447-189.5,446.6-189.3,446z"/>
		<path id="XMLID_7_" class="st2" d="M-184.7,448.9v-6.5h-2.3v-1.3h6.3v1.3h-2.3v6.5H-184.7z"/>
		<path id="XMLID_10_" class="st2" d="M-179.8,448.9V441h1.6v7.9H-179.8z"/>
		<path id="XMLID_13_" class="st2" d="M-174.6,448.9l-2.8-7.9h1.7l2,5.8l1.9-5.8h1.7l-2.8,7.9H-174.6z"/>
		<path id="XMLID_15_" class="st2" d="M-169.4,448.9V441h1.6v7.9H-169.4z"/>
		<path id="XMLID_17_" class="st2" d="M-166.3,441.1h2.9c0.7,0,1.2,0,1.5,0.2c0.5,0.1,0.9,0.4,1.2,0.7c0.3,0.3,0.6,0.8,0.8,1.3
			c0.2,0.5,0.3,1.1,0.3,1.9c0,0.6-0.1,1.2-0.2,1.7c-0.2,0.6-0.5,1-0.8,1.4c-0.3,0.3-0.6,0.5-1.1,0.6c-0.4,0.1-0.8,0.2-1.4,0.2h-3v-8
			L-166.3,441.1L-166.3,441.1z M-164.7,442.4v5.2h1.2c0.4,0,0.8,0,1-0.1c0.3-0.1,0.5-0.2,0.6-0.3c0.1-0.1,0.3-0.4,0.4-0.8
			s0.2-0.8,0.2-1.4s-0.1-1.1-0.2-1.4s-0.3-0.6-0.5-0.8c-0.2-0.2-0.4-0.3-0.7-0.4c-0.2,0-0.7-0.1-1.3-0.1L-164.7,442.4L-164.7,442.4z
			"/>
		<path id="XMLID_20_" class="st2" d="M-151.2,448.9h-1.7l-0.7-1.8h-3.1l-0.6,1.8h-1.7l3.1-7.9h1.7L-151.2,448.9z M-154.1,445.8
			l-1.1-2.9l-1.1,2.9H-154.1z"/>
		<path id="XMLID_24_" class="st2" d="M-150.4,441.1h2.9c0.7,0,1.2,0,1.5,0.2c0.5,0.1,0.9,0.4,1.2,0.7c0.3,0.3,0.6,0.8,0.8,1.3
			s0.3,1.1,0.3,1.9c0,0.6-0.1,1.2-0.2,1.7c-0.2,0.6-0.5,1-0.8,1.4c-0.3,0.3-0.6,0.5-1.1,0.6c-0.4,0.1-0.8,0.2-1.4,0.2h-3v-8
			L-150.4,441.1L-150.4,441.1z M-148.8,442.4v5.2h1.2c0.4,0,0.8,0,1-0.1c0.3-0.1,0.5-0.2,0.6-0.3c0.1-0.1,0.3-0.4,0.4-0.8
			s0.2-0.8,0.2-1.4s-0.1-1.1-0.2-1.4s-0.3-0.6-0.5-0.8c-0.2-0.2-0.4-0.3-0.7-0.4c-0.2,0-0.7-0.1-1.3-0.1L-148.8,442.4L-148.8,442.4z
			"/>
		<path id="XMLID_27_" class="st2" d="M-139.4,441.1h2.9c0.7,0,1.2,0,1.5,0.2c0.5,0.1,0.9,0.4,1.2,0.7c0.3,0.3,0.6,0.8,0.8,1.3
			s0.3,1.1,0.3,1.9c0,0.6-0.1,1.2-0.2,1.7c-0.2,0.6-0.5,1-0.8,1.4c-0.3,0.3-0.6,0.5-1.1,0.6c-0.4,0.1-0.8,0.2-1.4,0.2h-3v-8
			L-139.4,441.1L-139.4,441.1z M-137.8,442.4v5.2h1.2c0.4,0,0.8,0,1-0.1c0.3-0.1,0.5-0.2,0.6-0.3c0.1-0.1,0.3-0.4,0.4-0.8
			s0.2-0.8,0.2-1.4s-0.1-1.1-0.2-1.4s-0.3-0.6-0.5-0.8c-0.2-0.2-0.4-0.3-0.7-0.4c-0.2,0-0.7-0.1-1.3-0.1L-137.8,442.4L-137.8,442.4z
			"/>
		<path id="XMLID_30_" class="st2" d="M-131.5,448.9V441h1.6v7.9H-131.5z"/>
		<path id="XMLID_32_" class="st2" d="M-128.4,441.1h2.9c0.7,0,1.2,0,1.5,0.2c0.5,0.1,0.9,0.4,1.2,0.7c0.3,0.3,0.6,0.8,0.8,1.3
			s0.3,1.1,0.3,1.9c0,0.6-0.1,1.2-0.2,1.7c-0.2,0.6-0.5,1-0.8,1.4c-0.3,0.3-0.6,0.5-1.1,0.6c-0.4,0.1-0.8,0.2-1.4,0.2h-3v-8
			L-128.4,441.1L-128.4,441.1z M-126.8,442.4v5.2h1.2c0.4,0,0.8,0,1-0.1c0.3-0.1,0.5-0.2,0.6-0.3c0.1-0.1,0.3-0.4,0.4-0.8
			s0.2-0.8,0.2-1.4s-0.1-1.1-0.2-1.4s-0.3-0.6-0.5-0.8c-0.2-0.2-0.4-0.3-0.7-0.4c-0.2,0-0.7-0.1-1.3-0.1L-126.8,442.4L-126.8,442.4z
			"/>
		<path id="XMLID_35_" class="st2" d="M-113.3,448.9h-1.7l-0.7-1.8h-3.1l-0.6,1.8h-1.7l3.1-7.9h1.7L-113.3,448.9z M-116.3,445.8
			l-1.1-2.9l-1.1,2.9H-116.3z M-118.3,440.6l0.7-1.6h1.7l-1.5,1.6H-118.3z"/>
		<path id="XMLID_39_" class="st2" d="M-107.4,446l1.5,0.5c-0.2,0.9-0.6,1.5-1.2,1.9s-1.2,0.6-2.1,0.6c-1,0-1.9-0.4-2.6-1.1
			s-1-1.7-1-2.9c0-1.3,0.3-2.3,1-3.1c0.7-0.7,1.6-1.1,2.7-1.1c1,0,1.7,0.3,2.3,0.9c0.4,0.3,0.6,0.8,0.8,1.5l-1.6,0.4
			c-0.1-0.4-0.3-0.7-0.6-1c-0.3-0.2-0.7-0.4-1.1-0.4c-0.6,0-1.1,0.2-1.4,0.6c-0.4,0.4-0.5,1.1-0.5,2c0,1,0.2,1.7,0.5,2.1
			s0.8,0.6,1.4,0.6c0.4,0,0.8-0.1,1.1-0.4C-107.8,447-107.6,446.6-107.4,446z"/>
		<path id="XMLID_41_" class="st2" d="M-102.8,448.9v-6.5h-2.3v-1.3h6.3v1.3h-2.3v6.5H-102.8z"/>
		<path id="XMLID_43_" class="st2" d="M-97.9,448.9V441h1.6v7.9H-97.9z"/>
		<path id="XMLID_45_" class="st2" d="M-89.7,446l1.5,0.5c-0.2,0.9-0.6,1.5-1.2,1.9s-1.2,0.6-2.1,0.6c-1,0-1.9-0.4-2.6-1.1
			s-1-1.7-1-2.9c0-1.3,0.3-2.3,1-3.1c0.7-0.7,1.6-1.1,2.7-1.1c1,0,1.7,0.3,2.3,0.9c0.4,0.3,0.6,0.8,0.8,1.5l-1.6,0.4
			c-0.1-0.4-0.3-0.7-0.6-1c-0.3-0.2-0.7-0.4-1.1-0.4c-0.6,0-1.1,0.2-1.4,0.6c-0.4,0.4-0.5,1.1-0.5,2c0,1,0.2,1.7,0.5,2.1
			s0.8,0.6,1.4,0.6c0.4,0,0.8-0.1,1.1-0.4C-90.1,447-89.9,446.6-89.7,446z"/>
		<path id="XMLID_47_" class="st2" d="M-79.7,448.9h-1.7l-0.7-1.8h-3.1l-0.6,1.8h-1.7l3.1-7.9h1.7L-79.7,448.9z M-82.6,445.8
			l-1.1-2.9l-1.1,2.9H-82.6z"/>
	</g>
	<path id="XMLID_284_" class="st3" d="M-129.4,401.8v17c0,2.1-1.8,3.8-4,3.8h-20c-2.3,0-4-1.8-4-3.8v-20.2c0-2.3,1.7-4,4-4h17l-4,4
		h-13v20.1h20v-13L-129.4,401.8z M-132.4,393.4l-1.4,1.6l4.2,4.2l1.4-1.4L-132.4,393.4z M-129.6,390.6l-1.4,1.4l4.2,4.4l1.4-1.4
		L-129.6,390.6z M-148,409l4.2,4.4l12.8-12.8l-4.2-4.2L-148,409z M-149.4,414.8h4l-4-4V414.8z"/>
</g>
</svg>
