<?xml version="1.0" encoding="utf-8"?>
<!-- Generator: Adobe Illustrator 19.0.0, SVG Export Plug-In . SVG Version: 6.00 Build 0)  -->
<svg version="1.1" id="Capa_1" xmlns="http://www.w3.org/2000/svg" xmlns:xlink="http://www.w3.org/1999/xlink" x="0px" y="0px"
	 viewBox="-280 403.4 34.5 34.5" style="enable-background:new -280 403.4 34.5 34.5;" xml:space="preserve">
<style type="text/css">
	.st0{fill:#F78B36;}
	.st1{fill:#FFFFFF;stroke:#F78B36;stroke-width:1.7139;stroke-miterlimit:10;}
	.st2{fill:#E54A3F;}
</style>
<path id="XMLID_130973_" class="st0" d="M-275,432.9c-6.7-6.8-6.7-17.7,0-24.5c6.7-6.7,17.7-6.7,24.4,0c6.7,6.7,6.7,17.7,0,24.4
	C-257.3,439.5-268.2,439.6-275,432.9L-275,432.9z"/>
<path id="XMLID_130974_" class="st1" d="M-257,414.9c1,1,1,2.5,0,3.5l-2.2,2.2l2.2,2.2c1,1,1,2.5,0,3.5s-2.5,1-3.5,0l-2.2-2.2
	l-2.2,2.2c-1,1-2.5,1-3.5,0s-1-2.5,0-3.5l2.2-2.2l-2.2-2.2c-1-1-1-2.5,0-3.5s2.5-1,3.5,0l2.2,2.2l2.2-2.2
	C-259.6,414-258,414-257,414.9L-257,414.9z"/>
<path id="XMLID_130971_" class="st2" d="M-252.3,410.2"/>
</svg>
