<?xml version="1.0" encoding="utf-8"?>
<!-- Generator: Adobe Illustrator 19.0.0, SVG Export Plug-In . SVG Version: 6.00 Build 0)  -->
<svg version="1.1" id="Capa_1" xmlns="http://www.w3.org/2000/svg" xmlns:xlink="http://www.w3.org/1999/xlink" x="0px" y="0px"
	 viewBox="-183 400.9 228 40" style="enable-background:new -183 400.9 228 40;" xml:space="preserve">
<style type="text/css">
	.st0{fill:#D66316;}
	.st1{enable-background:new    ;}
	.st2{fill:#FFFFFF;}
	.st3{opacity:0.4;fill:#303030;}
</style>
<g>
	<rect id="XMLID_4209_" x="-183" y="400.9" class="st0" width="228" height="40"/>
	<g id="XMLID_54_">
		<g class="st1">
			<path class="st2" d="M-125.4,421.7v-1.4h3.9v4.3c-0.6,0.6-1.2,1-1.9,1.3s-1.3,0.4-2,0.4c-0.9,0-1.7-0.2-2.4-0.7
				c-0.7-0.5-1.3-1.1-1.7-2s-0.6-1.9-0.6-3.2c0-1.3,0.2-2.3,0.6-3.3c0.4-0.9,1-1.6,1.6-2.1s1.5-0.7,2.4-0.7c0.7,0,1.3,0.1,1.8,0.4
				s0.9,0.6,1.3,1.1c0.3,0.5,0.6,1.1,0.7,1.9l-1.1,0.4c-0.1-0.6-0.3-1.1-0.6-1.4s-0.5-0.6-0.9-0.8c-0.4-0.2-0.8-0.3-1.3-0.3
				c-0.7,0-1.3,0.2-1.7,0.5s-0.9,0.8-1.2,1.5s-0.4,1.6-0.4,2.6c0,1.5,0.3,2.7,1,3.4c0.6,0.8,1.5,1.1,2.5,1.1c0.5,0,1-0.1,1.5-0.4
				c0.5-0.2,0.9-0.5,1.2-0.8v-2.1h-2.7V421.7z"/>
			<path class="st2" d="M-115.3,423.5l1.2,0.2c-0.2,0.9-0.6,1.6-1.1,2s-1.1,0.7-1.9,0.7c-1,0-1.7-0.4-2.3-1.1s-0.9-1.8-0.9-3.2
				c0-1.4,0.3-2.5,0.9-3.3s1.4-1.1,2.3-1.1s1.6,0.4,2.2,1.1s0.9,1.8,0.9,3.2v0.4h-5c0,0.9,0.3,1.6,0.6,2.1c0.4,0.5,0.8,0.7,1.4,0.7
				C-116.2,425.2-115.6,424.7-115.3,423.5z M-119,421.2h3.8c-0.1-0.7-0.2-1.3-0.5-1.6c-0.4-0.5-0.8-0.8-1.4-0.8
				c-0.5,0-0.9,0.2-1.3,0.6S-119,420.5-119,421.2z"/>
			<path class="st2" d="M-113.1,423.7l1.1-0.2c0.1,0.6,0.3,1,0.5,1.3s0.7,0.4,1.2,0.4s0.9-0.1,1.1-0.4c0.3-0.2,0.4-0.6,0.4-0.9
				s-0.1-0.6-0.3-0.8c-0.2-0.1-0.5-0.3-1.2-0.5c-0.9-0.3-1.5-0.5-1.8-0.7s-0.5-0.5-0.7-0.8s-0.2-0.7-0.2-1.1c0-0.7,0.2-1.3,0.7-1.7
				c0.4-0.4,1.1-0.7,1.9-0.7c0.5,0,0.9,0.1,1.3,0.3c0.4,0.2,0.7,0.4,0.9,0.7c0.2,0.3,0.3,0.7,0.4,1.3l-1.1,0.2
				c-0.1-0.9-0.6-1.4-1.5-1.4c-0.5,0-0.9,0.1-1.1,0.3c-0.2,0.2-0.4,0.5-0.4,0.8s0.1,0.5,0.3,0.7c0.1,0.1,0.6,0.3,1.2,0.5
				c0.9,0.3,1.6,0.5,1.8,0.7c0.3,0.2,0.5,0.4,0.6,0.7c0.2,0.3,0.2,0.7,0.2,1.1c0,0.8-0.2,1.4-0.7,1.9s-1.2,0.7-2,0.7
				C-111.9,426.4-112.8,425.5-113.1,423.7z"/>
			<path class="st2" d="M-103.6,424.9l0.2,1.2c-0.3,0.1-0.6,0.1-0.9,0.1c-0.4,0-0.7-0.1-1-0.2s-0.4-0.4-0.5-0.7s-0.1-0.8-0.1-1.6
				V419h-0.8v-1.1h0.8v-2.1l1.1-0.8v2.9h1.2v1.1h-1.2v4.9c0,0.4,0,0.7,0.1,0.9c0.1,0.2,0.3,0.3,0.5,0.3
				C-104,425-103.8,425-103.6,424.9z"/>
			<path class="st2" d="M-102.5,416.4v-1.6h1.1v1.6H-102.5z M-102.5,426.2v-8.3h1.1v8.3H-102.5z"/>
			<path class="st2" d="M-100.1,422c0-1.4,0.3-2.5,0.9-3.2s1.4-1.1,2.3-1.1s1.6,0.4,2.3,1.1c0.6,0.7,0.9,1.8,0.9,3.2
				c0,1.5-0.3,2.6-0.9,3.3s-1.4,1.1-2.3,1.1s-1.7-0.4-2.3-1.1S-100.1,423.5-100.1,422z M-98.9,422c0,1.1,0.2,1.9,0.6,2.4
				s0.9,0.8,1.4,0.8s1-0.3,1.4-0.8s0.6-1.3,0.6-2.4s-0.2-1.9-0.6-2.4s-0.9-0.8-1.4-0.8s-1,0.3-1.4,0.8
				C-98.7,420.2-98.9,421-98.9,422z M-97.7,416.9l0.8-2.2h1.5l-1.4,2.2H-97.7z"/>
			<path class="st2" d="M-92.4,426.2v-8.3h1v1.2c0.2-0.5,0.6-0.8,0.9-1c0.4-0.2,0.8-0.3,1.2-0.3c0.4,0,0.7,0.1,1,0.2
				s0.6,0.3,0.7,0.6c0.2,0.2,0.3,0.5,0.4,0.9s0.1,0.9,0.1,1.7v5.1h-1.1v-5.1c0-0.6-0.1-1.1-0.2-1.3c-0.1-0.3-0.3-0.5-0.5-0.7
				s-0.5-0.2-0.8-0.2c-0.5,0-1,0.2-1.3,0.6s-0.5,1.1-0.5,2.1v4.5L-92.4,426.2L-92.4,426.2z"/>
			<path class="st2" d="M-81.5,429.4v-11.5h1.1v1.1c0.3-0.4,0.5-0.8,0.9-1c0.3-0.2,0.7-0.3,1.1-0.3c0.5,0,1,0.2,1.4,0.5
				s0.8,0.8,1,1.4s0.4,1.4,0.4,2.3c0,1.4-0.3,2.5-0.9,3.3s-1.3,1.1-2.1,1.1c-0.4,0-0.7-0.1-1-0.3s-0.6-0.4-0.8-0.8v4h-1.1V429.4z
				 M-80.5,422.1c0,1.1,0.2,1.9,0.5,2.4c0.4,0.5,0.8,0.8,1.3,0.8s0.9-0.3,1.3-0.8s0.5-1.3,0.5-2.4s-0.2-1.9-0.5-2.4
				c-0.4-0.5-0.8-0.8-1.3-0.8s-0.9,0.3-1.3,0.8C-80.3,420.2-80.5,421-80.5,422.1z"/>
			<path class="st2" d="M-74.7,422c0-1.4,0.3-2.5,0.9-3.2s1.4-1.1,2.3-1.1s1.6,0.4,2.3,1.1c0.6,0.7,0.9,1.8,0.9,3.2
				c0,1.5-0.3,2.6-0.9,3.3s-1.4,1.1-2.3,1.1s-1.7-0.4-2.3-1.1S-74.7,423.5-74.7,422z M-73.6,422c0,1.1,0.2,1.9,0.6,2.4
				s0.9,0.8,1.4,0.8s1-0.3,1.4-0.8s0.6-1.3,0.6-2.4s-0.2-1.9-0.6-2.4s-0.9-0.8-1.4-0.8s-1,0.3-1.4,0.8
				C-73.4,420.2-73.6,421-73.6,422z"/>
			<path class="st2" d="M-67.1,426.2v-8.3h1v1.3c0.3-0.6,0.5-1,0.7-1.2s0.5-0.3,0.7-0.3c0.4,0,0.8,0.2,1.2,0.5l-0.4,1.3
				c-0.3-0.2-0.6-0.3-0.8-0.3s-0.5,0.1-0.7,0.3c-0.2,0.2-0.3,0.4-0.4,0.7c-0.1,0.5-0.2,1.1-0.2,1.7v4.3H-67.1z"/>
			<path class="st2" d="M-59.1,429.4v-11.5h1.1v1.1c0.3-0.4,0.5-0.8,0.9-1c0.3-0.2,0.7-0.3,1.1-0.3c0.5,0,1,0.2,1.4,0.5
				s0.8,0.8,1,1.4c0.3,0.6,0.4,1.4,0.4,2.3c0,1.4-0.3,2.5-0.9,3.3s-1.3,1.1-2.1,1.1c-0.4,0-0.7-0.1-1-0.3s-0.6-0.4-0.8-0.8v4h-1.1
				V429.4z M-58.1,422.1c0,1.1,0.2,1.9,0.5,2.4s0.8,0.8,1.3,0.8s0.9-0.3,1.3-0.8c0.4-0.5,0.5-1.3,0.5-2.4s-0.2-1.9-0.5-2.4
				c-0.4-0.5-0.8-0.8-1.3-0.8s-0.9,0.3-1.3,0.8C-57.9,420.2-58.1,421-58.1,422.1z"/>
			<path class="st2" d="M-51.9,426.2v-8.3h1v1.3c0.3-0.6,0.5-1,0.7-1.2s0.5-0.3,0.7-0.3c0.4,0,0.8,0.2,1.2,0.5l-0.4,1.3
				c-0.3-0.2-0.6-0.3-0.8-0.3s-0.5,0.1-0.7,0.3c-0.2,0.2-0.3,0.4-0.4,0.7c-0.1,0.5-0.2,1.1-0.2,1.7v4.3H-51.9z"/>
			<path class="st2" d="M-48,422c0-1.4,0.3-2.5,0.9-3.2c0.6-0.7,1.4-1.1,2.3-1.1c0.9,0,1.6,0.4,2.3,1.1c0.6,0.7,0.9,1.8,0.9,3.2
				c0,1.5-0.3,2.6-0.9,3.3c-0.6,0.7-1.4,1.1-2.3,1.1c-0.9,0-1.7-0.4-2.3-1.1S-48,423.5-48,422z M-46.8,422c0,1.1,0.2,1.9,0.6,2.4
				c0.4,0.5,0.9,0.8,1.4,0.8s1-0.3,1.4-0.8s0.6-1.3,0.6-2.4s-0.2-1.9-0.6-2.4c-0.4-0.5-0.9-0.8-1.4-0.8s-1,0.3-1.4,0.8
				C-46.6,420.2-46.8,421-46.8,422z"/>
			<path class="st2" d="M-35.9,423.2l1.1,0.2c-0.1,1-0.5,1.7-1,2.3c-0.5,0.5-1.1,0.8-1.9,0.8c-0.9,0-1.6-0.4-2.2-1.1
				s-0.9-1.8-0.9-3.2c0-1.4,0.3-2.5,0.9-3.2c0.6-0.7,1.3-1.1,2.2-1.1c0.7,0,1.3,0.2,1.8,0.7s0.8,1.1,0.9,2l-1.1,0.2
				c-0.1-0.6-0.3-1-0.6-1.3s-0.6-0.4-1-0.4c-0.6,0-1,0.3-1.4,0.8s-0.6,1.3-0.6,2.4s0.2,1.9,0.5,2.5s0.8,0.8,1.4,0.8
				c0.4,0,0.8-0.2,1.1-0.5S-36,423.9-35.9,423.2z"/>
			<path class="st2" d="M-29.2,423.5l1.2,0.2c-0.2,0.9-0.6,1.6-1.1,2s-1.2,0.7-1.9,0.7c-1,0-1.7-0.4-2.3-1.1s-0.9-1.8-0.9-3.2
				c0-1.4,0.3-2.5,0.9-3.3c0.6-0.8,1.4-1.1,2.3-1.1s1.6,0.4,2.2,1.1s0.9,1.8,0.9,3.2v0.4h-5c0,0.9,0.3,1.6,0.6,2.1
				c0.4,0.5,0.8,0.7,1.4,0.7C-30.1,425.2-29.6,424.7-29.2,423.5z M-33,421.2h3.8c-0.1-0.7-0.2-1.3-0.5-1.6c-0.4-0.5-0.8-0.8-1.4-0.8
				c-0.5,0-0.9,0.2-1.3,0.6S-32.9,420.5-33,421.2z"/>
			<path class="st2" d="M-27,423.7l1.1-0.2c0.1,0.6,0.3,1,0.5,1.3s0.7,0.4,1.2,0.4s0.9-0.1,1.1-0.4s0.4-0.6,0.4-0.9
				s-0.1-0.6-0.3-0.8c-0.2-0.1-0.5-0.3-1.2-0.5c-0.9-0.3-1.5-0.5-1.8-0.7s-0.5-0.5-0.7-0.8s-0.2-0.7-0.2-1.1c0-0.7,0.2-1.3,0.7-1.7
				c0.4-0.4,1.1-0.7,1.9-0.7c0.5,0,0.9,0.1,1.3,0.3c0.4,0.2,0.7,0.4,0.9,0.7c0.2,0.3,0.3,0.7,0.4,1.3l-1.1,0.2
				c-0.1-0.9-0.6-1.4-1.5-1.4c-0.5,0-0.9,0.1-1.1,0.3c-0.2,0.2-0.4,0.5-0.4,0.8s0.1,0.5,0.3,0.7c0.1,0.1,0.6,0.3,1.2,0.5
				c0.9,0.3,1.6,0.5,1.8,0.7c0.3,0.2,0.5,0.4,0.6,0.7c0.2,0.3,0.2,0.7,0.2,1.1c0,0.8-0.2,1.4-0.7,1.9s-1.2,0.7-2,0.7
				C-25.8,426.4-26.8,425.5-27,423.7z"/>
			<path class="st2" d="M-20.5,422c0-1.4,0.3-2.5,0.9-3.2s1.4-1.1,2.3-1.1s1.6,0.4,2.3,1.1c0.6,0.7,0.9,1.8,0.9,3.2
				c0,1.5-0.3,2.6-0.9,3.3c-0.6,0.7-1.4,1.1-2.3,1.1s-1.7-0.4-2.3-1.1S-20.5,423.5-20.5,422z M-19.4,422c0,1.1,0.2,1.9,0.6,2.4
				s0.9,0.8,1.4,0.8s1-0.3,1.4-0.8s0.6-1.3,0.6-2.4s-0.2-1.9-0.6-2.4c-0.4-0.5-0.9-0.8-1.4-0.8s-1,0.3-1.4,0.8
				C-19.2,420.2-19.4,421-19.4,422z"/>
			<path class="st2" d="M-13.3,423.7l1.1-0.2c0.1,0.6,0.3,1,0.5,1.3s0.7,0.4,1.2,0.4s0.9-0.1,1.1-0.4s0.4-0.6,0.4-0.9
				s-0.1-0.6-0.3-0.8c-0.2-0.1-0.5-0.3-1.2-0.5c-0.9-0.3-1.5-0.5-1.8-0.7s-0.5-0.5-0.7-0.8s-0.2-0.7-0.2-1.1c0-0.7,0.2-1.3,0.7-1.7
				c0.4-0.4,1.1-0.7,1.9-0.7c0.5,0,0.9,0.1,1.3,0.3c0.4,0.2,0.7,0.4,0.9,0.7C-8.2,419-8,419.5-8,420l-1.1,0.2
				c-0.1-0.9-0.6-1.4-1.5-1.4c-0.5,0-0.9,0.1-1.1,0.3c-0.2,0.2-0.4,0.5-0.4,0.8s0.1,0.5,0.3,0.7c0.1,0.1,0.6,0.3,1.2,0.5
				c0.9,0.3,1.6,0.5,1.8,0.7c0.3,0.2,0.5,0.4,0.6,0.7c0.2,0.3,0.2,0.7,0.2,1.1c0,0.8-0.2,1.4-0.7,1.9s-1.2,0.7-2,0.7
				C-12.1,426.4-13,425.5-13.3,423.7z"/>
		</g>
	</g>
</g>
<polygon id="XMLID_5375_" class="st3" points="48,408.1 -184,400.9 48,400.9 "/>
</svg>
