<?xml version="1.0" encoding="utf-8"?>
<!-- Generator: Adobe Illustrator 19.0.0, SVG Export Plug-In . SVG Version: 6.00 Build 0)  -->
<svg version="1.1" id="Capa_1" xmlns="http://www.w3.org/2000/svg" xmlns:xlink="http://www.w3.org/1999/xlink" x="0px" y="0px"
	 viewBox="-183 400.9 228 40" style="enable-background:new -183 400.9 228 40;" xml:space="preserve">
<style type="text/css">
	.st0{fill:#D66316;}
	.st1{fill:none;}
	.st2{enable-background:new    ;}
	.st3{fill:#FFFFFF;}
</style>
<rect id="XMLID_4209_" x="-183" y="400.9" class="st0" width="228" height="40"/>
<g id="XMLID_54_">
	<rect id="XMLID_79_" x="-183" y="414.7" class="st1" width="228" height="18.9"/>
	<g class="st2">
		<path class="st3" d="M-141,426.2l3.6-11.5h1.3l3.8,11.5h-1.4l-1.1-3.5h-3.9l-1,3.5H-141z M-138.3,421.5h3.2l-1-3.2
			c-0.3-1-0.5-1.8-0.7-2.4c-0.1,0.7-0.3,1.5-0.5,2.2L-138.3,421.5z"/>
		<path class="st3" d="M-127,423.2l1.1,0.2c-0.1,1-0.5,1.7-1,2.3c-0.5,0.5-1.1,0.8-1.9,0.8c-0.9,0-1.6-0.4-2.2-1.1
			c-0.6-0.7-0.9-1.8-0.9-3.2c0-1.4,0.3-2.5,0.9-3.2c0.6-0.7,1.3-1.1,2.2-1.1c0.7,0,1.3,0.2,1.8,0.7s0.8,1.1,0.9,2l-1.1,0.2
			c-0.1-0.6-0.3-1-0.6-1.3c-0.3-0.3-0.6-0.4-1-0.4c-0.6,0-1,0.3-1.4,0.8c-0.4,0.5-0.6,1.3-0.6,2.4c0,1.1,0.2,1.9,0.5,2.5
			c0.4,0.5,0.8,0.8,1.4,0.8c0.4,0,0.8-0.2,1.1-0.5S-127.1,423.9-127,423.2z"/>
		<path class="st3" d="M-122.4,424.9l0.2,1.2c-0.3,0.1-0.6,0.1-0.9,0.1c-0.4,0-0.7-0.1-1-0.2s-0.4-0.4-0.5-0.7s-0.1-0.8-0.1-1.6V419
			h-0.8v-1.1h0.8v-2.1l1.1-0.8v2.9h1.2v1.1h-1.2v4.9c0,0.4,0,0.7,0.1,0.9c0.1,0.2,0.3,0.3,0.5,0.3C-122.8,425-122.6,425-122.4,424.9
			z"/>
		<path class="st3" d="M-121.3,416.4v-1.6h1.1v1.6H-121.3z M-121.3,426.2v-8.3h1.1v8.3H-121.3z"/>
		<path class="st3" d="M-116.6,426.2l-2.6-8.3h1.2l1.5,5c0.2,0.6,0.3,1.1,0.4,1.7c0.1-0.4,0.2-1,0.4-1.6l1.5-5.1h1.2l-2.6,8.3
			H-116.6z"/>
		<path class="st3" d="M-111.9,416.4v-1.6h1.1v1.6H-111.9z M-111.9,426.2v-8.3h1.1v8.3H-111.9z"/>
		<path class="st3" d="M-104.7,426.2v-1c-0.2,0.4-0.5,0.7-0.8,0.9s-0.7,0.3-1.1,0.3c-0.8,0-1.5-0.4-2.1-1.1
			c-0.6-0.8-0.9-1.8-0.9-3.2c0-0.9,0.1-1.7,0.4-2.4s0.6-1.1,1-1.5c0.4-0.3,0.9-0.5,1.4-0.5c0.4,0,0.7,0.1,1,0.3
			c0.3,0.2,0.6,0.5,0.8,0.8v-4.1h1.2v11.5H-104.7z M-108.3,422.1c0,1.1,0.2,1.9,0.6,2.4s0.8,0.8,1.3,0.8c0.5,0,0.9-0.3,1.3-0.8
			c0.4-0.5,0.5-1.3,0.5-2.3c0-1.2-0.2-2-0.5-2.5c-0.4-0.5-0.8-0.8-1.3-0.8c-0.5,0-0.9,0.3-1.2,0.8
			C-108.1,420.1-108.3,421-108.3,422.1z"/>
		<path class="st3" d="M-97.4,425.2c-0.4,0.4-0.8,0.7-1.2,0.9s-0.8,0.3-1.3,0.3c-0.7,0-1.3-0.2-1.7-0.6c-0.4-0.4-0.6-1-0.6-1.7
			c0-0.5,0.1-0.9,0.3-1.3c0.2-0.4,0.5-0.7,0.8-0.9c0.3-0.2,0.9-0.4,1.5-0.5c0.9-0.1,1.6-0.3,2-0.5l0-0.4c0-0.6-0.1-1-0.3-1.2
			c-0.3-0.3-0.7-0.5-1.3-0.5c-0.5,0-0.9,0.1-1.2,0.3c-0.3,0.2-0.5,0.6-0.6,1.3l-1.1-0.2c0.2-0.9,0.5-1.5,1-1.9s1.2-0.6,2.1-0.6
			c0.7,0,1.3,0.1,1.7,0.4c0.4,0.3,0.7,0.6,0.8,1c0.1,0.4,0.2,1,0.2,1.7v1.9c0,1.3,0,2.1,0.1,2.5c0,0.3,0.1,0.7,0.3,1h-1.2
			C-97.3,425.9-97.4,425.6-97.4,425.2z M-97.5,422c-0.4,0.2-1,0.4-1.9,0.5c-0.5,0.1-0.8,0.2-1,0.3s-0.3,0.3-0.4,0.5
			s-0.2,0.4-0.2,0.7c0,0.4,0.1,0.7,0.4,0.9c0.2,0.2,0.6,0.4,1,0.4c0.4,0,0.8-0.1,1.1-0.3c0.3-0.2,0.6-0.5,0.7-0.9s0.2-0.9,0.2-1.6
			V422z"/>
		<path class="st3" d="M-90.2,426.2v-1c-0.2,0.4-0.5,0.7-0.8,0.9s-0.7,0.3-1.1,0.3c-0.8,0-1.5-0.4-2.1-1.1c-0.6-0.8-0.9-1.8-0.9-3.2
			c0-0.9,0.1-1.7,0.4-2.4s0.6-1.1,1-1.5c0.4-0.3,0.9-0.5,1.4-0.5c0.4,0,0.7,0.1,1,0.3c0.3,0.2,0.6,0.5,0.8,0.8v-4.1h1.2v11.5H-90.2z
			 M-93.8,422.1c0,1.1,0.2,1.9,0.6,2.4s0.8,0.8,1.3,0.8c0.5,0,0.9-0.3,1.3-0.8c0.4-0.5,0.5-1.3,0.5-2.3c0-1.2-0.2-2-0.5-2.5
			c-0.4-0.5-0.8-0.8-1.3-0.8c-0.5,0-0.9,0.3-1.2,0.8C-93.6,420.1-93.8,421-93.8,422.1z"/>
		<path class="st3" d="M-82.7,423.5l1.2,0.2c-0.2,0.9-0.6,1.6-1.1,2s-1.1,0.7-1.9,0.7c-1,0-1.7-0.4-2.3-1.1s-0.9-1.8-0.9-3.2
			c0-1.4,0.3-2.5,0.9-3.3c0.6-0.8,1.4-1.1,2.3-1.1c0.9,0,1.6,0.4,2.2,1.1c0.6,0.7,0.9,1.8,0.9,3.2l0,0.4h-5c0,0.9,0.3,1.6,0.6,2.1
			c0.4,0.5,0.8,0.7,1.4,0.7C-83.7,425.2-83.1,424.7-82.7,423.5z M-86.5,421.2h3.8c-0.1-0.7-0.2-1.3-0.5-1.6
			c-0.4-0.5-0.8-0.8-1.4-0.8c-0.5,0-0.9,0.2-1.3,0.6S-86.5,420.5-86.5,421.2z"/>
		<path class="st3" d="M-80.5,423.7l1.1-0.2c0.1,0.6,0.3,1,0.5,1.3s0.7,0.4,1.2,0.4c0.5,0,0.9-0.1,1.1-0.4c0.3-0.2,0.4-0.6,0.4-0.9
			c0-0.3-0.1-0.6-0.3-0.8c-0.2-0.1-0.5-0.3-1.2-0.5c-0.9-0.3-1.5-0.5-1.8-0.7c-0.3-0.2-0.5-0.5-0.7-0.8c-0.2-0.3-0.2-0.7-0.2-1.1
			c0-0.7,0.2-1.3,0.7-1.7c0.4-0.4,1.1-0.7,1.9-0.7c0.5,0,0.9,0.1,1.3,0.3c0.4,0.2,0.7,0.4,0.9,0.7c0.2,0.3,0.3,0.7,0.4,1.3l-1.1,0.2
			c-0.1-0.9-0.6-1.4-1.5-1.4c-0.5,0-0.9,0.1-1.1,0.3c-0.2,0.2-0.4,0.5-0.4,0.8c0,0.3,0.1,0.5,0.3,0.7c0.1,0.1,0.6,0.3,1.2,0.5
			c0.9,0.3,1.6,0.5,1.8,0.7c0.3,0.2,0.5,0.4,0.6,0.7c0.2,0.3,0.2,0.7,0.2,1.1c0,0.8-0.2,1.4-0.7,1.9c-0.5,0.5-1.2,0.7-2,0.7
			C-79.4,426.4-80.3,425.5-80.5,423.7z"/>
		<path class="st3" d="M-65.4,423.5l1.2,0.2c-0.2,0.9-0.6,1.6-1.1,2s-1.2,0.7-1.9,0.7c-1,0-1.7-0.4-2.3-1.1s-0.9-1.8-0.9-3.2
			c0-1.4,0.3-2.5,0.9-3.3c0.6-0.8,1.4-1.1,2.3-1.1c0.9,0,1.6,0.4,2.2,1.1c0.6,0.7,0.9,1.8,0.9,3.2l0,0.4h-5c0,0.9,0.3,1.6,0.6,2.1
			c0.4,0.5,0.8,0.7,1.4,0.7C-66.3,425.2-65.7,424.7-65.4,423.5z M-69.1,421.2h3.8c-0.1-0.7-0.2-1.3-0.5-1.6
			c-0.4-0.5-0.8-0.8-1.4-0.8c-0.5,0-0.9,0.2-1.3,0.6S-69.1,420.5-69.1,421.2z"/>
		<path class="st3" d="M-62.8,426.2v-8.3h1v1.2c0.2-0.5,0.6-0.8,0.9-1c0.4-0.2,0.8-0.3,1.2-0.3c0.4,0,0.7,0.1,1,0.2
			c0.3,0.1,0.6,0.3,0.7,0.6c0.2,0.2,0.3,0.5,0.4,0.9c0.1,0.4,0.1,0.9,0.1,1.7v5.1h-1.1v-5.1c0-0.6-0.1-1.1-0.2-1.3s-0.3-0.5-0.5-0.7
			c-0.2-0.2-0.5-0.2-0.8-0.2c-0.5,0-1,0.2-1.3,0.6c-0.3,0.4-0.5,1.1-0.5,2.1v4.5H-62.8z"/>
		<path class="st3" d="M-51.9,426.2v-11.5h1.1v11.5H-51.9z"/>
		<path class="st3" d="M-44.6,425.2c-0.4,0.4-0.8,0.7-1.2,0.9s-0.8,0.3-1.3,0.3c-0.7,0-1.3-0.2-1.7-0.6c-0.4-0.4-0.6-1-0.6-1.7
			c0-0.5,0.1-0.9,0.3-1.3s0.5-0.7,0.8-0.9c0.3-0.2,0.9-0.4,1.5-0.5c0.9-0.1,1.6-0.3,2-0.5l0-0.4c0-0.6-0.1-1-0.3-1.2
			c-0.3-0.3-0.7-0.5-1.3-0.5c-0.5,0-0.9,0.1-1.2,0.3c-0.3,0.2-0.5,0.6-0.6,1.3l-1.1-0.2c0.2-0.9,0.5-1.5,1-1.9
			c0.5-0.4,1.2-0.6,2.1-0.6c0.7,0,1.3,0.1,1.7,0.4c0.4,0.3,0.7,0.6,0.8,1c0.1,0.4,0.2,1,0.2,1.7v1.9c0,1.3,0,2.1,0.1,2.5
			c0,0.3,0.1,0.7,0.3,1h-1.2C-44.5,425.9-44.6,425.6-44.6,425.2z M-44.7,422c-0.4,0.2-1,0.4-1.9,0.5c-0.5,0.1-0.8,0.2-1,0.3
			c-0.2,0.1-0.3,0.3-0.4,0.5c-0.1,0.2-0.2,0.4-0.2,0.7c0,0.4,0.1,0.7,0.4,0.9c0.2,0.2,0.6,0.4,1,0.4c0.4,0,0.8-0.1,1.1-0.3
			s0.6-0.5,0.7-0.9s0.2-0.9,0.2-1.6V422z"/>
		<path class="st3" d="M-38.4,426.9l1.1,0.2c0.1,0.4,0.2,0.8,0.5,1c0.3,0.2,0.6,0.3,1.1,0.3c0.5,0,0.9-0.1,1.2-0.4s0.5-0.6,0.6-1.1
			c0.1-0.3,0.1-0.9,0.1-1.8c-0.2,0.4-0.5,0.6-0.8,0.8c-0.3,0.2-0.7,0.3-1,0.3c-0.8,0-1.5-0.3-2-1c-0.6-0.8-0.9-1.9-0.9-3.2
			c0-0.9,0.1-1.7,0.4-2.3c0.3-0.7,0.6-1.2,1.1-1.5c0.4-0.3,0.9-0.5,1.5-0.5c0.4,0,0.8,0.1,1.1,0.3c0.3,0.2,0.6,0.5,0.9,0.9v-1h1.1
			v7.2c0,1.3-0.1,2.2-0.3,2.7c-0.2,0.5-0.5,1-1,1.3s-1,0.5-1.7,0.5c-0.9,0-1.5-0.2-2-0.7S-38.4,427.7-38.4,426.9z M-37.4,421.9
			c0,1.1,0.2,1.9,0.5,2.4c0.4,0.5,0.8,0.8,1.3,0.8c0.5,0,1-0.2,1.3-0.7c0.4-0.5,0.5-1.3,0.5-2.3c0-1-0.2-1.8-0.6-2.3
			c-0.4-0.5-0.8-0.8-1.4-0.8c-0.5,0-0.9,0.3-1.3,0.8C-37.3,420.1-37.4,420.9-37.4,421.9z"/>
		<path class="st3" d="M-26.3,423.5l1.2,0.2c-0.2,0.9-0.6,1.6-1.1,2s-1.2,0.7-1.9,0.7c-1,0-1.7-0.4-2.3-1.1s-0.9-1.8-0.9-3.2
			c0-1.4,0.3-2.5,0.9-3.3c0.6-0.8,1.4-1.1,2.3-1.1c0.9,0,1.6,0.4,2.2,1.1c0.6,0.7,0.9,1.8,0.9,3.2l0,0.4h-5c0,0.9,0.3,1.6,0.6,2.1
			c0.4,0.5,0.8,0.7,1.4,0.7C-27.3,425.2-26.7,424.7-26.3,423.5z M-30.1,421.2h3.8c-0.1-0.7-0.2-1.3-0.5-1.6
			c-0.4-0.5-0.8-0.8-1.4-0.8c-0.5,0-0.9,0.2-1.3,0.6S-30,420.5-30.1,421.2z"/>
		<path class="st3" d="M-24.1,423.7l1.1-0.2c0.1,0.6,0.3,1,0.5,1.3s0.7,0.4,1.2,0.4c0.5,0,0.9-0.1,1.1-0.4s0.4-0.6,0.4-0.9
			c0-0.3-0.1-0.6-0.3-0.8c-0.2-0.1-0.5-0.3-1.2-0.5c-0.9-0.3-1.5-0.5-1.8-0.7c-0.3-0.2-0.5-0.5-0.7-0.8c-0.2-0.3-0.2-0.7-0.2-1.1
			c0-0.7,0.2-1.3,0.7-1.7c0.4-0.4,1.1-0.7,1.9-0.7c0.5,0,0.9,0.1,1.3,0.3c0.4,0.2,0.7,0.4,0.9,0.7c0.2,0.3,0.3,0.7,0.4,1.3l-1.1,0.2
			c-0.1-0.9-0.6-1.4-1.5-1.4c-0.5,0-0.9,0.1-1.1,0.3c-0.2,0.2-0.4,0.5-0.4,0.8c0,0.3,0.1,0.5,0.3,0.7c0.1,0.1,0.6,0.3,1.2,0.5
			c0.9,0.3,1.6,0.5,1.8,0.7c0.3,0.2,0.5,0.4,0.6,0.7c0.2,0.3,0.2,0.7,0.2,1.1c0,0.8-0.2,1.4-0.7,1.9c-0.5,0.5-1.2,0.7-2,0.7
			C-22.9,426.4-23.9,425.5-24.1,423.7z"/>
		<path class="st3" d="M-14.6,424.9l0.2,1.2c-0.3,0.1-0.6,0.1-0.9,0.1c-0.4,0-0.7-0.1-1-0.2c-0.2-0.2-0.4-0.4-0.5-0.7
			c-0.1-0.3-0.1-0.8-0.1-1.6V419h-0.8v-1.1h0.8v-2.1l1.1-0.8v2.9h1.2v1.1h-1.2v4.9c0,0.4,0,0.7,0.1,0.9c0.1,0.2,0.3,0.3,0.5,0.3
			C-15,425-14.9,425-14.6,424.9z"/>
		<path class="st3" d="M-13.6,416.4v-1.6h1.1v1.6H-13.6z M-13.6,426.2v-8.3h1.1v8.3H-13.6z"/>
		<path class="st3" d="M-11.1,422c0-1.4,0.3-2.5,0.9-3.2c0.6-0.7,1.4-1.1,2.3-1.1c0.9,0,1.6,0.4,2.3,1.1c0.6,0.7,0.9,1.8,0.9,3.2
			c0,1.5-0.3,2.6-0.9,3.3c-0.6,0.7-1.4,1.1-2.3,1.1c-0.9,0-1.7-0.4-2.3-1.1S-11.1,423.5-11.1,422z M-9.9,422c0,1.1,0.2,1.9,0.6,2.4
			c0.4,0.5,0.9,0.8,1.4,0.8c0.5,0,1-0.3,1.4-0.8S-6,423.1-6,422c0-1.1-0.2-1.9-0.6-2.4c-0.4-0.5-0.9-0.8-1.4-0.8
			c-0.5,0-1,0.3-1.4,0.8C-9.8,420.2-9.9,421-9.9,422z M-8.8,416.9l0.8-2.2h1.5l-1.4,2.2H-8.8z"/>
		<path class="st3" d="M-3.5,426.2v-8.3h1v1.2c0.2-0.5,0.6-0.8,0.9-1c0.4-0.2,0.8-0.3,1.2-0.3c0.4,0,0.7,0.1,1,0.2
			c0.3,0.1,0.6,0.3,0.7,0.6c0.2,0.2,0.3,0.5,0.4,0.9c0.1,0.4,0.1,0.9,0.1,1.7v5.1H0.9v-5.1c0-0.6-0.1-1.1-0.2-1.3s-0.3-0.5-0.5-0.7
			c-0.2-0.2-0.5-0.2-0.8-0.2c-0.5,0-1,0.2-1.3,0.6c-0.3,0.4-0.5,1.1-0.5,2.1v4.5H-3.5z"/>
	</g>
</g>
</svg>
