<?xml version="1.0" encoding="utf-8"?>
<!-- Generator: Adobe Illustrator 19.0.0, SVG Export Plug-In . SVG Version: 6.00 Build 0)  -->
<svg version="1.1" id="Capa_1" xmlns="http://www.w3.org/2000/svg" xmlns:xlink="http://www.w3.org/1999/xlink" x="0px" y="0px"
	 viewBox="-183 400.9 228 40" style="enable-background:new -183 400.9 228 40;" xml:space="preserve">
<style type="text/css">
	.st0{enable-background:new    ;}
	.st1{fill:#F7EBCB;}
</style>
<g class="st0">
	<path class="st1" d="M-96.8,426.2v-11.5h3.2c0.8,0,1.4,0.1,1.8,0.2c0.5,0.2,1,0.5,1.4,1c0.4,0.5,0.7,1.1,0.9,1.8
		c0.2,0.7,0.3,1.6,0.3,2.6c0,1.3-0.2,2.4-0.6,3.3c-0.4,0.9-0.9,1.5-1.5,1.9c-0.6,0.4-1.4,0.6-2.3,0.6H-96.8z M-95.6,424.8h2
		c0.8,0,1.4-0.1,1.8-0.4c0.4-0.3,0.7-0.7,1-1.3c0.3-0.8,0.4-1.7,0.4-2.8c0-1.2-0.2-2.1-0.5-2.7c-0.3-0.7-0.7-1.1-1.2-1.3
		c-0.3-0.2-0.9-0.2-1.6-0.2h-2V424.8z"/>
	<path class="st1" d="M-82.8,423.5l1.2,0.2c-0.2,0.9-0.6,1.6-1.1,2c-0.5,0.5-1.2,0.7-1.9,0.7c-1,0-1.7-0.4-2.3-1.1
		c-0.6-0.7-0.9-1.8-0.9-3.2c0-1.4,0.3-2.5,0.9-3.3s1.4-1.1,2.3-1.1c0.9,0,1.6,0.4,2.2,1.1c0.6,0.7,0.9,1.8,0.9,3.2l0,0.4h-5.1
		c0,0.9,0.3,1.6,0.6,2.1c0.4,0.5,0.9,0.7,1.4,0.7C-83.8,425.2-83.2,424.7-82.8,423.5z M-86.6,421.2h3.8c-0.1-0.7-0.2-1.3-0.5-1.6
		c-0.4-0.5-0.8-0.8-1.4-0.8c-0.5,0-1,0.2-1.3,0.6C-86.4,419.9-86.6,420.5-86.6,421.2z"/>
	<path class="st1" d="M-79.9,426.2V419h-1v-1.1h1V417c0-0.7,0.1-1.1,0.2-1.5s0.3-0.6,0.6-0.7s0.6-0.3,1.1-0.3c0.3,0,0.7,0,1.1,0.1
		l-0.2,1.2c-0.2-0.1-0.5-0.1-0.7-0.1c-0.3,0-0.6,0.1-0.7,0.3s-0.2,0.5-0.2,1v0.8h1.3v1.1h-1.3v7.2H-79.9z"/>
	<path class="st1" d="M-76.5,416.4v-1.6h1.1v1.6H-76.5z M-76.5,426.2v-8.3h1.1v8.3H-76.5z"/>
	<path class="st1" d="M-73.6,426.2v-8.3h1v1.2c0.2-0.5,0.6-0.8,0.9-1s0.8-0.3,1.2-0.3c0.4,0,0.7,0.1,1,0.2c0.3,0.1,0.6,0.3,0.7,0.6
		c0.2,0.2,0.3,0.5,0.4,0.9c0.1,0.4,0.1,0.9,0.1,1.7v5.1h-1.1v-5.1c0-0.6-0.1-1.1-0.2-1.3c-0.1-0.3-0.3-0.5-0.5-0.7
		c-0.2-0.2-0.5-0.2-0.8-0.2c-0.6,0-1,0.2-1.3,0.6c-0.3,0.4-0.5,1.1-0.5,2.1v4.5H-73.6z"/>
	<path class="st1" d="M-66.3,416.4v-1.6h1.1v1.6H-66.3z M-66.3,426.2v-8.3h1.1v8.3H-66.3z"/>
	<path class="st1" d="M-59,423.2l1.1,0.2c-0.1,1-0.5,1.7-1,2.3s-1.2,0.8-1.9,0.8c-0.9,0-1.6-0.4-2.2-1.1s-0.9-1.8-0.9-3.2
		c0-1.4,0.3-2.5,0.9-3.2s1.3-1.1,2.2-1.1c0.7,0,1.3,0.2,1.8,0.7s0.8,1.1,0.9,2l-1.1,0.2c-0.1-0.6-0.3-1-0.6-1.3s-0.6-0.4-1-0.4
		c-0.6,0-1,0.3-1.4,0.8s-0.6,1.3-0.6,2.4c0,1.1,0.2,1.9,0.5,2.5s0.8,0.8,1.4,0.8c0.4,0,0.8-0.2,1.1-0.5S-59,423.9-59,423.2z"/>
	<path class="st1" d="M-56.9,416.4v-1.6h1.1v1.6H-56.9z M-56.9,426.2v-8.3h1.1v8.3H-56.9z"/>
	<path class="st1" d="M-54.4,422c0-1.4,0.3-2.5,0.9-3.2s1.4-1.1,2.3-1.1c0.9,0,1.7,0.4,2.3,1.1s0.9,1.8,0.9,3.2
		c0,1.5-0.3,2.6-0.9,3.3s-1.4,1.1-2.3,1.1c-0.9,0-1.7-0.4-2.3-1.1S-54.4,423.5-54.4,422z M-53.2,422c0,1.1,0.2,1.9,0.6,2.4
		s0.9,0.8,1.5,0.8c0.5,0,1-0.3,1.4-0.8s0.6-1.3,0.6-2.4c0-1.1-0.2-1.9-0.6-2.4s-0.9-0.8-1.5-0.8c-0.5,0-1,0.3-1.4,0.8
		S-53.2,421-53.2,422z M-52,416.9l0.9-2.2h1.5l-1.4,2.2H-52z"/>
	<path class="st1" d="M-46.6,426.2v-8.3h1v1.2c0.3-0.5,0.6-0.8,0.9-1s0.8-0.3,1.2-0.3c0.4,0,0.7,0.1,1,0.2c0.3,0.1,0.6,0.3,0.7,0.6
		s0.3,0.5,0.4,0.9c0.1,0.4,0.1,0.9,0.1,1.7v5.1h-1.1v-5.1c0-0.6-0.1-1.1-0.2-1.3s-0.3-0.5-0.5-0.7c-0.2-0.2-0.5-0.2-0.8-0.2
		c-0.6,0-1,0.2-1.3,0.6c-0.3,0.4-0.5,1.1-0.5,2.1v4.5H-46.6z"/>
</g>
</svg>
