<?xml version="1.0" encoding="utf-8"?>
<!-- Generator: Adobe Illustrator 19.0.0, SVG Export Plug-In . SVG Version: 6.00 Build 0)  -->
<svg version="1.1" id="Capa_1" xmlns="http://www.w3.org/2000/svg" xmlns:xlink="http://www.w3.org/1999/xlink" x="0px" y="0px"
	 viewBox="-183 400.9 228 40" style="enable-background:new -183 400.9 228 40;" xml:space="preserve">
<style type="text/css">
	.st0{fill:#D66316;}
	.st1{enable-background:new    ;}
	.st2{fill:#FFFFFF;}
</style>
<rect id="XMLID_4209_" x="-183" y="400.9" class="st0" width="228" height="40"/>
<g class="st1">
	<path class="st2" d="M-99,426.2v-11.5h6.8v1.4h-5.5v3.5h5.2v1.4h-5.2v3.9h5.8v1.4H-99z"/>
	<path class="st2" d="M-90.4,426.2v-11.5h1.1v11.5H-90.4z"/>
	<path class="st2" d="M-82.8,423.5l1.2,0.2c-0.2,0.9-0.6,1.6-1.1,2c-0.5,0.5-1.2,0.7-1.9,0.7c-1,0-1.7-0.4-2.3-1.1
		c-0.6-0.7-0.9-1.8-0.9-3.2c0-1.4,0.3-2.5,0.9-3.3s1.4-1.1,2.3-1.1c0.9,0,1.6,0.4,2.2,1.1c0.6,0.7,0.9,1.8,0.9,3.2l0,0.4h-5.1
		c0,0.9,0.3,1.6,0.6,2.1c0.4,0.5,0.9,0.7,1.4,0.7C-83.8,425.2-83.2,424.7-82.8,423.5z M-86.6,421.2h3.8c-0.1-0.7-0.2-1.3-0.5-1.6
		c-0.4-0.5-0.8-0.8-1.4-0.8c-0.5,0-1,0.2-1.3,0.6C-86.4,419.9-86.6,420.5-86.6,421.2z"/>
	<path class="st2" d="M-80.2,426.2v-8.3h1v1.2c0.2-0.4,0.5-0.8,0.9-1s0.8-0.3,1.2-0.3c0.5,0,0.9,0.1,1.2,0.4
		c0.3,0.2,0.6,0.6,0.7,1.1c0.3-0.5,0.6-0.8,0.9-1.1s0.7-0.4,1.2-0.4c0.7,0,1.2,0.2,1.5,0.7c0.4,0.4,0.6,1.2,0.6,2.1v5.7h-1.1V421
		c0-0.6,0-1-0.1-1.3c-0.1-0.2-0.2-0.4-0.4-0.6c-0.2-0.1-0.4-0.2-0.7-0.2c-0.5,0-0.9,0.2-1.2,0.6c-0.3,0.4-0.5,1-0.5,1.9v4.8h-1.1
		v-5.4c0-0.7-0.1-1.2-0.3-1.5c-0.2-0.3-0.5-0.4-0.9-0.4c-0.5,0-0.9,0.2-1.2,0.6s-0.5,1.2-0.5,2.3v4.3H-80.2z"/>
	<path class="st2" d="M-64.6,423.5l1.2,0.2c-0.2,0.9-0.6,1.6-1.1,2s-1.2,0.7-1.9,0.7c-1,0-1.7-0.4-2.3-1.1c-0.6-0.7-0.9-1.8-0.9-3.2
		c0-1.4,0.3-2.5,0.9-3.3s1.4-1.1,2.3-1.1c0.9,0,1.6,0.4,2.2,1.1s0.9,1.8,0.9,3.2l0,0.4h-5.1c0,0.9,0.3,1.6,0.6,2.1s0.9,0.7,1.4,0.7
		C-65.5,425.2-64.9,424.7-64.6,423.5z M-68.4,421.2h3.8c-0.1-0.7-0.2-1.3-0.5-1.6c-0.4-0.5-0.8-0.8-1.4-0.8c-0.5,0-1,0.2-1.3,0.6
		C-68.2,419.9-68.4,420.5-68.4,421.2z"/>
	<path class="st2" d="M-62,426.2v-8.3h1v1.2c0.3-0.5,0.6-0.8,0.9-1s0.8-0.3,1.2-0.3c0.4,0,0.7,0.1,1,0.2c0.3,0.1,0.6,0.3,0.7,0.6
		s0.3,0.5,0.4,0.9c0.1,0.4,0.1,0.9,0.1,1.7v5.1h-1.1v-5.1c0-0.6-0.1-1.1-0.2-1.3s-0.3-0.5-0.5-0.7c-0.2-0.2-0.5-0.2-0.8-0.2
		c-0.6,0-1,0.2-1.3,0.6c-0.3,0.4-0.5,1.1-0.5,2.1v4.5H-62z"/>
	<path class="st2" d="M-52.1,424.9l0.2,1.2c-0.3,0.1-0.6,0.1-0.9,0.1c-0.4,0-0.7-0.1-1-0.2s-0.4-0.4-0.5-0.7s-0.1-0.8-0.1-1.6V419
		h-0.8v-1.1h0.8v-2.1l1.1-0.8v2.9h1.2v1.1h-1.2v4.9c0,0.4,0,0.7,0.1,0.9c0.1,0.2,0.3,0.3,0.6,0.3C-52.5,425-52.3,425-52.1,424.9z"/>
	<path class="st2" d="M-51.4,422c0-1.4,0.3-2.5,0.9-3.2s1.4-1.1,2.3-1.1c0.9,0,1.7,0.4,2.3,1.1s0.9,1.8,0.9,3.2
		c0,1.5-0.3,2.6-0.9,3.3s-1.4,1.1-2.3,1.1c-0.9,0-1.7-0.4-2.3-1.1S-51.4,423.5-51.4,422z M-50.3,422c0,1.1,0.2,1.9,0.6,2.4
		s0.9,0.8,1.5,0.8c0.5,0,1-0.3,1.4-0.8s0.6-1.3,0.6-2.4c0-1.1-0.2-1.9-0.6-2.4s-0.9-0.8-1.5-0.8c-0.5,0-1,0.3-1.4,0.8
		S-50.3,421-50.3,422z"/>
	<path class="st2" d="M-44.2,423.7l1.1-0.2c0.1,0.6,0.3,1,0.6,1.3c0.3,0.3,0.7,0.4,1.2,0.4s0.9-0.1,1.2-0.4s0.4-0.6,0.4-0.9
		c0-0.3-0.1-0.6-0.4-0.8c-0.2-0.1-0.6-0.3-1.2-0.5c-0.9-0.3-1.5-0.5-1.8-0.7s-0.5-0.4-0.7-0.8s-0.3-0.7-0.3-1.1
		c0-0.7,0.2-1.3,0.7-1.7s1.1-0.7,1.9-0.7c0.5,0,0.9,0.1,1.3,0.3s0.7,0.4,0.9,0.7s0.3,0.7,0.4,1.3l-1.1,0.2c-0.1-0.9-0.6-1.4-1.5-1.4
		c-0.5,0-0.9,0.1-1.1,0.3c-0.2,0.2-0.4,0.5-0.4,0.8c0,0.3,0.1,0.5,0.4,0.7c0.1,0.1,0.6,0.3,1.3,0.5c1,0.3,1.6,0.5,1.9,0.7
		c0.3,0.2,0.5,0.4,0.7,0.7c0.2,0.3,0.2,0.7,0.2,1.1c0,0.8-0.3,1.4-0.8,1.9c-0.5,0.5-1.2,0.7-2.1,0.7
		C-43,426.4-43.9,425.5-44.2,423.7z"/>
</g>
</svg>
