<?xml version="1.0" encoding="utf-8"?>
<!-- Generator: Adobe Illustrator 19.0.0, SVG Export Plug-In . SVG Version: 6.00 Build 0)  -->
<svg version="1.1" id="Capa_1" xmlns="http://www.w3.org/2000/svg" xmlns:xlink="http://www.w3.org/1999/xlink" x="0px" y="0px"
	 viewBox="0 0 228 40" style="enable-background:new 0 0 228 40;" xml:space="preserve">
<style type="text/css">
	.st0{fill:#D66316;}
	.st1{fill:#FFFFFF;}
</style>
<rect id="XMLID_4209_" class="st0" width="228" height="40"/>
<g id="XMLID_56_">
	<g id="XMLID_665_">
		<path id="XMLID_739_" class="st1" d="M14.6,25.3V13.9h1.2V24h4.6v1.4H14.6z"/>
		<path id="XMLID_736_" class="st1" d="M26.3,24.3c-0.4,0.4-0.8,0.7-1.2,0.9c-0.4,0.2-0.8,0.3-1.3,0.3c-0.7,0-1.3-0.2-1.7-0.6
			s-0.6-1-0.6-1.7c0-0.5,0.1-0.9,0.3-1.3c0.2-0.4,0.5-0.7,0.8-0.9s0.9-0.4,1.6-0.5c0.9-0.1,1.6-0.3,2.1-0.5l0-0.4
			c0-0.6-0.1-1-0.3-1.2c-0.3-0.3-0.7-0.5-1.3-0.5c-0.5,0-0.9,0.1-1.2,0.3c-0.3,0.2-0.5,0.6-0.6,1.3l-1.1-0.2c0.2-0.9,0.5-1.5,1-1.9
			s1.2-0.6,2.1-0.6c0.7,0,1.3,0.1,1.7,0.4c0.4,0.3,0.7,0.6,0.8,1c0.1,0.4,0.2,1,0.2,1.7v1.9c0,1.3,0,2.1,0.1,2.5
			c0,0.3,0.1,0.7,0.3,1h-1.2C26.4,25,26.3,24.7,26.3,24.3z M26.2,21.1c-0.4,0.2-1,0.4-1.9,0.5c-0.5,0.1-0.8,0.2-1,0.3
			c-0.2,0.1-0.3,0.3-0.4,0.5c-0.1,0.2-0.2,0.4-0.2,0.7c0,0.4,0.1,0.7,0.4,0.9c0.2,0.2,0.6,0.4,1,0.4c0.4,0,0.8-0.1,1.1-0.3
			s0.6-0.5,0.8-0.9c0.2-0.4,0.3-0.9,0.3-1.6V21.1z"/>
		<path id="XMLID_733_" class="st1" d="M32.6,19.7c0-2,0.4-3.5,1.3-4.5c0.9-1,1.9-1.6,3.2-1.6c0.8,0,1.6,0.2,2.3,0.7
			c0.7,0.5,1.2,1.1,1.6,2c0.4,0.9,0.6,2,0.6,3.2c0,1.7-0.4,3.1-1.2,4.1c-0.8,1.2-2,1.8-3.3,1.8c-1.4,0-2.5-0.6-3.3-1.8
			C33,22.6,32.6,21.3,32.6,19.7z M33.9,19.7c0,1.4,0.3,2.5,0.9,3.3c0.6,0.8,1.4,1.2,2.3,1.2c0.9,0,1.7-0.4,2.3-1.2s0.9-1.9,0.9-3.5
			c0-1-0.2-1.9-0.5-2.6c-0.2-0.6-0.6-1.1-1.1-1.4s-1-0.5-1.6-0.5c-0.9,0-1.7,0.4-2.3,1.2C34.2,16.9,33.9,18.1,33.9,19.7z"/>
		<path id="XMLID_731_" class="st1" d="M43,25.3V17h1v1.3c0.3-0.6,0.5-1,0.7-1.2c0.2-0.2,0.5-0.3,0.7-0.3c0.4,0,0.8,0.2,1.2,0.5
			l-0.4,1.3c-0.3-0.2-0.6-0.3-0.8-0.3c-0.2,0-0.5,0.1-0.7,0.3s-0.3,0.4-0.4,0.7c-0.1,0.5-0.2,1.1-0.2,1.7v4.3H43z"/>
		<path id="XMLID_728_" class="st1" d="M47.1,26l1.1,0.2c0.1,0.4,0.2,0.8,0.5,1c0.3,0.2,0.6,0.3,1.1,0.3c0.5,0,0.9-0.1,1.2-0.4
			c0.3-0.2,0.5-0.6,0.6-1.1c0.1-0.3,0.1-0.9,0.1-1.8c-0.3,0.4-0.5,0.6-0.8,0.8c-0.3,0.2-0.7,0.3-1,0.3c-0.8,0-1.5-0.3-2-1
			c-0.6-0.8-0.9-1.9-0.9-3.2c0-0.9,0.1-1.7,0.4-2.3c0.3-0.7,0.6-1.2,1.1-1.5c0.4-0.3,0.9-0.5,1.5-0.5c0.4,0,0.8,0.1,1.1,0.3
			c0.3,0.2,0.6,0.5,0.9,0.9v-1h1.1v7.2c0,1.3-0.1,2.2-0.3,2.7c-0.2,0.5-0.5,1-1,1.3c-0.5,0.3-1,0.5-1.7,0.5c-0.9,0-1.6-0.2-2-0.7
			C47.4,27.5,47.1,26.8,47.1,26z M48.1,21c0,1.1,0.2,1.9,0.5,2.4c0.4,0.5,0.8,0.8,1.3,0.8s1-0.2,1.3-0.7c0.4-0.5,0.5-1.3,0.5-2.3
			c0-1-0.2-1.8-0.6-2.3c-0.4-0.5-0.8-0.8-1.4-0.8c-0.5,0-0.9,0.3-1.3,0.8C48.3,19.2,48.1,20,48.1,21z"/>
		<path id="XMLID_725_" class="st1" d="M59.1,24.3c-0.4,0.4-0.8,0.7-1.2,0.9c-0.4,0.2-0.8,0.3-1.3,0.3c-0.7,0-1.3-0.2-1.7-0.6
			s-0.6-1-0.6-1.7c0-0.5,0.1-0.9,0.3-1.3c0.2-0.4,0.5-0.7,0.8-0.9s0.9-0.4,1.6-0.5c0.9-0.1,1.6-0.3,2.1-0.5l0-0.4
			c0-0.6-0.1-1-0.3-1.2C58.4,18.1,58,18,57.4,18c-0.5,0-0.9,0.1-1.2,0.3c-0.3,0.2-0.5,0.6-0.6,1.3l-1.1-0.2c0.2-0.9,0.5-1.5,1-1.9
			s1.2-0.6,2.1-0.6c0.7,0,1.3,0.1,1.7,0.4c0.4,0.3,0.7,0.6,0.8,1c0.1,0.4,0.2,1,0.2,1.7v1.9c0,1.3,0,2.1,0.1,2.5
			c0,0.3,0.1,0.7,0.3,1h-1.2C59.2,25,59.1,24.7,59.1,24.3z M59,21.1c-0.4,0.2-1,0.4-1.9,0.5c-0.5,0.1-0.8,0.2-1,0.3
			c-0.2,0.1-0.3,0.3-0.4,0.5c-0.1,0.2-0.2,0.4-0.2,0.7c0,0.4,0.1,0.7,0.4,0.9c0.2,0.2,0.6,0.4,1,0.4c0.4,0,0.8-0.1,1.1-0.3
			s0.6-0.5,0.8-0.9c0.2-0.4,0.3-0.9,0.3-1.6V21.1z"/>
		<path id="XMLID_723_" class="st1" d="M62,25.3V17h1v1.2c0.2-0.5,0.6-0.8,0.9-1c0.4-0.2,0.8-0.3,1.2-0.3c0.4,0,0.7,0.1,1,0.2
			c0.3,0.1,0.6,0.3,0.7,0.6c0.2,0.2,0.3,0.5,0.4,0.9c0.1,0.4,0.1,0.9,0.1,1.7v5.1h-1.1v-5.1c0-0.6-0.1-1.1-0.2-1.3
			c-0.1-0.3-0.3-0.5-0.5-0.7c-0.2-0.2-0.5-0.2-0.8-0.2c-0.6,0-1,0.2-1.3,0.6c-0.3,0.4-0.5,1.1-0.5,2.1v4.5H62z"/>
		<path id="XMLID_720_" class="st1" d="M69.3,15.5v-1.6h1.1v1.6H69.3z M69.3,25.3V17h1.1v8.3H69.3z"/>
		<path id="XMLID_718_" class="st1" d="M71.6,25.3v-1.1l4.3-6.1c-0.5,0-0.9,0-1.3,0h-2.8V17h5.6v0.9l-3.7,5.3l-0.7,1
			c0.5,0,1-0.1,1.5-0.1h3.1v1.2H71.6z"/>
		<path id="XMLID_715_" class="st1" d="M83.2,24.3c-0.4,0.4-0.8,0.7-1.2,0.9c-0.4,0.2-0.8,0.3-1.3,0.3c-0.7,0-1.3-0.2-1.7-0.6
			s-0.6-1-0.6-1.7c0-0.5,0.1-0.9,0.3-1.3c0.2-0.4,0.5-0.7,0.8-0.9s0.9-0.4,1.6-0.5c0.9-0.1,1.6-0.3,2.1-0.5l0-0.4
			c0-0.6-0.1-1-0.3-1.2c-0.3-0.3-0.7-0.5-1.3-0.5c-0.5,0-0.9,0.1-1.2,0.3c-0.3,0.2-0.5,0.6-0.6,1.3l-1.1-0.2c0.2-0.9,0.5-1.5,1-1.9
			s1.2-0.6,2.1-0.6c0.7,0,1.3,0.1,1.7,0.4c0.4,0.3,0.7,0.6,0.8,1c0.1,0.4,0.2,1,0.2,1.7v1.9c0,1.3,0,2.1,0.1,2.5
			c0,0.3,0.1,0.7,0.3,1h-1.2C83.3,25,83.2,24.7,83.2,24.3z M83.1,21.1c-0.4,0.2-1,0.4-1.9,0.5c-0.5,0.1-0.8,0.2-1,0.3
			c-0.2,0.1-0.3,0.3-0.4,0.5c-0.1,0.2-0.2,0.4-0.2,0.7c0,0.4,0.1,0.7,0.4,0.9c0.2,0.2,0.6,0.4,1,0.4c0.4,0,0.8-0.1,1.1-0.3
			s0.6-0.5,0.8-0.9c0.2-0.4,0.3-0.9,0.3-1.6V21.1z"/>
		<path id="XMLID_713_" class="st1" d="M90.5,22.3l1.1,0.2c-0.1,1-0.5,1.7-1,2.3s-1.2,0.8-1.9,0.8c-0.9,0-1.6-0.4-2.2-1.1
			c-0.6-0.7-0.9-1.8-0.9-3.2c0-1.4,0.3-2.5,0.9-3.2c0.6-0.7,1.3-1.1,2.2-1.1c0.7,0,1.3,0.2,1.8,0.7c0.5,0.4,0.8,1.1,0.9,2l-1.1,0.2
			c-0.1-0.6-0.3-1-0.6-1.3c-0.3-0.3-0.6-0.4-1-0.4c-0.6,0-1,0.3-1.4,0.8c-0.4,0.5-0.6,1.3-0.6,2.4c0,1.1,0.2,1.9,0.5,2.5
			c0.4,0.5,0.8,0.8,1.4,0.8c0.4,0,0.8-0.2,1.1-0.5C90.2,23.5,90.4,23,90.5,22.3z"/>
		<path id="XMLID_710_" class="st1" d="M92.6,15.5v-1.6h1.1v1.6H92.6z M92.6,25.3V17h1.1v8.3H92.6z"/>
		<path id="XMLID_706_" class="st1" d="M95.1,21.2c0-1.4,0.3-2.5,0.9-3.2c0.6-0.7,1.4-1.1,2.3-1.1c0.9,0,1.7,0.4,2.3,1.1
			c0.6,0.7,0.9,1.8,0.9,3.2c0,1.5-0.3,2.6-0.9,3.3c-0.6,0.7-1.4,1.1-2.3,1.1c-0.9,0-1.7-0.4-2.3-1.1C95.4,23.7,95.1,22.6,95.1,21.2z
			 M96.3,21.2c0,1.1,0.2,1.9,0.6,2.4s0.9,0.8,1.5,0.8c0.5,0,1-0.3,1.4-0.8c0.4-0.5,0.6-1.3,0.6-2.4c0-1.1-0.2-1.9-0.6-2.4
			c-0.4-0.5-0.9-0.8-1.5-0.8c-0.5,0-1,0.3-1.4,0.8C96.4,19.3,96.3,20.1,96.3,21.2z M97.4,16l0.9-2.2h1.5L98.4,16H97.4z"/>
		<path id="XMLID_704_" class="st1" d="M102.8,25.3V17h1v1.2c0.2-0.5,0.6-0.8,0.9-1c0.4-0.2,0.8-0.3,1.2-0.3c0.4,0,0.7,0.1,1,0.2
			c0.3,0.1,0.6,0.3,0.7,0.6c0.2,0.2,0.3,0.5,0.4,0.9c0.1,0.4,0.1,0.9,0.1,1.7v5.1h-1.1v-5.1c0-0.6-0.1-1.1-0.2-1.3
			c-0.1-0.3-0.3-0.5-0.5-0.7c-0.2-0.2-0.5-0.2-0.8-0.2c-0.6,0-1,0.2-1.3,0.6c-0.3,0.4-0.5,1.1-0.5,2.1v4.5H102.8z"/>
		<path id="XMLID_702_" class="st1" d="M114.2,25.3V13.9h1.2v11.5H114.2z"/>
		<path id="XMLID_700_" class="st1" d="M117.4,25.3V17h1v1.2c0.3-0.5,0.6-0.8,0.9-1c0.4-0.2,0.8-0.3,1.2-0.3c0.4,0,0.7,0.1,1,0.2
			c0.3,0.1,0.6,0.3,0.7,0.6c0.2,0.2,0.3,0.5,0.4,0.9c0.1,0.4,0.1,0.9,0.1,1.7v5.1h-1.1v-5.1c0-0.6-0.1-1.1-0.2-1.3s-0.3-0.5-0.5-0.7
			c-0.2-0.2-0.5-0.2-0.8-0.2c-0.6,0-1,0.2-1.3,0.6c-0.3,0.4-0.5,1.1-0.5,2.1v4.5H117.4z"/>
		<path id="XMLID_698_" class="st1" d="M127.3,24l0.2,1.2c-0.3,0.1-0.6,0.1-0.9,0.1c-0.4,0-0.7-0.1-1-0.2c-0.2-0.2-0.4-0.4-0.5-0.7
			s-0.1-0.8-0.1-1.6v-4.8h-0.8V17h0.8V15l1.1-0.8V17h1.2v1.1h-1.2V23c0,0.4,0,0.7,0.1,0.9c0.1,0.2,0.3,0.3,0.6,0.3
			C126.9,24.1,127.1,24.1,127.3,24z"/>
		<path id="XMLID_695_" class="st1" d="M133,22.6l1.2,0.2c-0.2,0.9-0.6,1.6-1.1,2s-1.2,0.7-1.9,0.7c-1,0-1.7-0.4-2.3-1.1
			s-0.9-1.8-0.9-3.2c0-1.4,0.3-2.5,0.9-3.3c0.6-0.8,1.4-1.1,2.3-1.1c0.9,0,1.6,0.4,2.2,1.1c0.6,0.7,0.9,1.8,0.9,3.2l0,0.4h-5.1
			c0,0.9,0.3,1.6,0.6,2.1s0.9,0.7,1.4,0.7C132.1,24.3,132.7,23.8,133,22.6z M129.2,20.4h3.8c-0.1-0.7-0.2-1.3-0.5-1.6
			c-0.4-0.5-0.8-0.8-1.4-0.8c-0.5,0-1,0.2-1.3,0.6S129.2,19.6,129.2,20.4z"/>
		<path id="XMLID_693_" class="st1" d="M135.6,25.3V17h1v1.3c0.3-0.6,0.5-1,0.7-1.2c0.2-0.2,0.5-0.3,0.7-0.3c0.4,0,0.8,0.2,1.2,0.5
			l-0.4,1.3c-0.3-0.2-0.6-0.3-0.8-0.3c-0.2,0-0.5,0.1-0.7,0.3s-0.3,0.4-0.4,0.7c-0.1,0.5-0.2,1.1-0.2,1.7v4.3H135.6z"/>
		<path id="XMLID_691_" class="st1" d="M140,25.3V17h1v1.2c0.3-0.5,0.6-0.8,0.9-1c0.4-0.2,0.8-0.3,1.2-0.3c0.4,0,0.7,0.1,1,0.2
			c0.3,0.1,0.6,0.3,0.7,0.6c0.2,0.2,0.3,0.5,0.4,0.9c0.1,0.4,0.1,0.9,0.1,1.7v5.1h-1.1v-5.1c0-0.6-0.1-1.1-0.2-1.3s-0.3-0.5-0.5-0.7
			c-0.2-0.2-0.5-0.2-0.8-0.2c-0.6,0-1,0.2-1.3,0.6c-0.3,0.4-0.5,1.1-0.5,2.1v4.5H140z"/>
		<path id="XMLID_688_" class="st1" d="M151.7,24.3c-0.4,0.4-0.8,0.7-1.2,0.9s-0.8,0.3-1.3,0.3c-0.7,0-1.3-0.2-1.7-0.6
			s-0.6-1-0.6-1.7c0-0.5,0.1-0.9,0.3-1.3s0.5-0.7,0.8-0.9s0.9-0.4,1.6-0.5c0.9-0.1,1.6-0.3,2.1-0.5l0-0.4c0-0.6-0.1-1-0.3-1.2
			c-0.3-0.3-0.7-0.5-1.3-0.5c-0.5,0-0.9,0.1-1.2,0.3c-0.3,0.2-0.5,0.6-0.6,1.3l-1.1-0.2c0.2-0.9,0.5-1.5,1-1.9s1.2-0.6,2.1-0.6
			c0.7,0,1.3,0.1,1.7,0.4c0.4,0.3,0.7,0.6,0.8,1c0.1,0.4,0.2,1,0.2,1.7v1.9c0,1.3,0,2.1,0.1,2.5s0.1,0.7,0.3,1H152
			C151.9,25,151.8,24.7,151.7,24.3z M151.6,21.1c-0.4,0.2-1,0.4-1.9,0.5c-0.5,0.1-0.8,0.2-1,0.3s-0.3,0.3-0.4,0.5s-0.2,0.4-0.2,0.7
			c0,0.4,0.1,0.7,0.4,0.9s0.6,0.4,1,0.4c0.4,0,0.8-0.1,1.1-0.3s0.6-0.5,0.8-0.9s0.3-0.9,0.3-1.6V21.1z"/>
		<path id="XMLID_686_" class="st1" d="M159.1,22.3l1.1,0.2c-0.1,1-0.5,1.7-1,2.3s-1.2,0.8-1.9,0.8c-0.9,0-1.6-0.4-2.2-1.1
			s-0.9-1.8-0.9-3.2c0-1.4,0.3-2.5,0.9-3.2c0.6-0.7,1.3-1.1,2.2-1.1c0.7,0,1.3,0.2,1.8,0.7s0.8,1.1,0.9,2l-1.1,0.2
			c-0.1-0.6-0.3-1-0.6-1.3s-0.6-0.4-1-0.4c-0.6,0-1,0.3-1.4,0.8c-0.4,0.5-0.6,1.3-0.6,2.4c0,1.1,0.2,1.9,0.5,2.5s0.8,0.8,1.4,0.8
			c0.4,0,0.8-0.2,1.1-0.5S159,23,159.1,22.3z"/>
		<path id="XMLID_683_" class="st1" d="M161.2,15.5v-1.6h1.1v1.6H161.2z M161.2,25.3V17h1.1v8.3H161.2z"/>
		<path id="XMLID_680_" class="st1" d="M163.6,21.2c0-1.4,0.3-2.5,0.9-3.2c0.6-0.7,1.4-1.1,2.3-1.1c0.9,0,1.7,0.4,2.3,1.1
			c0.6,0.7,0.9,1.8,0.9,3.2c0,1.5-0.3,2.6-0.9,3.3s-1.4,1.1-2.3,1.1c-0.9,0-1.7-0.4-2.3-1.1S163.6,22.6,163.6,21.2z M164.8,21.2
			c0,1.1,0.2,1.9,0.6,2.4s0.9,0.8,1.5,0.8c0.5,0,1-0.3,1.4-0.8s0.6-1.3,0.6-2.4c0-1.1-0.2-1.9-0.6-2.4c-0.4-0.5-0.9-0.8-1.5-0.8
			c-0.5,0-1,0.3-1.4,0.8C165,19.3,164.8,20.1,164.8,21.2z"/>
		<path id="XMLID_678_" class="st1" d="M171.4,25.3V17h1v1.2c0.3-0.5,0.6-0.8,0.9-1c0.4-0.2,0.8-0.3,1.2-0.3c0.4,0,0.7,0.1,1,0.2
			c0.3,0.1,0.6,0.3,0.7,0.6c0.2,0.2,0.3,0.5,0.4,0.9c0.1,0.4,0.1,0.9,0.1,1.7v5.1h-1.1v-5.1c0-0.6-0.1-1.1-0.2-1.3s-0.3-0.5-0.5-0.7
			c-0.2-0.2-0.5-0.2-0.8-0.2c-0.6,0-1,0.2-1.3,0.6c-0.3,0.4-0.5,1.1-0.5,2.1v4.5H171.4z"/>
		<path id="XMLID_675_" class="st1" d="M183.1,24.3c-0.4,0.4-0.8,0.7-1.2,0.9s-0.8,0.3-1.3,0.3c-0.7,0-1.3-0.2-1.7-0.6
			s-0.6-1-0.6-1.7c0-0.5,0.1-0.9,0.3-1.3s0.5-0.7,0.8-0.9s0.9-0.4,1.6-0.5c0.9-0.1,1.6-0.3,2.1-0.5l0-0.4c0-0.6-0.1-1-0.3-1.2
			c-0.3-0.3-0.7-0.5-1.3-0.5c-0.5,0-0.9,0.1-1.2,0.3c-0.3,0.2-0.5,0.6-0.6,1.3l-1.1-0.2c0.2-0.9,0.5-1.5,1-1.9s1.2-0.6,2.1-0.6
			c0.7,0,1.3,0.1,1.7,0.4c0.4,0.3,0.7,0.6,0.8,1c0.1,0.4,0.2,1,0.2,1.7v1.9c0,1.3,0,2.1,0.1,2.5s0.1,0.7,0.3,1h-1.2
			C183.2,25,183.1,24.7,183.1,24.3z M183,21.1c-0.4,0.2-1,0.4-1.9,0.5c-0.5,0.1-0.8,0.2-1,0.3s-0.3,0.3-0.4,0.5s-0.2,0.4-0.2,0.7
			c0,0.4,0.1,0.7,0.4,0.9s0.6,0.4,1,0.4c0.4,0,0.8-0.1,1.1-0.3s0.6-0.5,0.8-0.9s0.3-0.9,0.3-1.6V21.1z"/>
		<path id="XMLID_673_" class="st1" d="M185.9,25.3V13.9h1.1v11.5H185.9z"/>
		<path id="XMLID_671_" class="st1" d="M192.9,25.3V13.9h1.2v11.5H192.9z"/>
		<path id="XMLID_669_" class="st1" d="M195.9,21.6l1.2-0.1c0.1,0.6,0.2,1.1,0.4,1.5s0.5,0.6,0.9,0.8s0.9,0.3,1.4,0.3
			c0.7,0,1.3-0.2,1.7-0.5s0.6-0.8,0.6-1.4c0-0.3-0.1-0.6-0.2-0.9s-0.4-0.5-0.7-0.6s-0.9-0.4-1.9-0.7c-0.9-0.3-1.5-0.5-1.9-0.8
			s-0.7-0.6-0.9-1c-0.2-0.4-0.3-0.9-0.3-1.4c0-0.9,0.3-1.7,0.9-2.3c0.6-0.6,1.4-0.9,2.4-0.9c0.7,0,1.3,0.1,1.8,0.4
			c0.5,0.3,0.9,0.7,1.2,1.2s0.4,1.1,0.5,1.8l-1.2,0.1c-0.1-0.7-0.3-1.3-0.7-1.7s-0.9-0.5-1.6-0.5c-0.7,0-1.2,0.2-1.6,0.5
			s-0.6,0.7-0.6,1.2c0,0.5,0.1,0.8,0.4,1.1c0.3,0.3,0.9,0.5,1.8,0.8c0.9,0.3,1.6,0.5,2,0.7c0.6,0.3,1,0.7,1.3,1.2
			c0.3,0.5,0.4,1,0.4,1.7c0,0.7-0.2,1.3-0.5,1.8c-0.3,0.5-0.7,0.9-1.3,1.2c-0.5,0.3-1.2,0.4-1.9,0.4c-1.2,0-2.1-0.3-2.8-1
			S196,22.8,195.9,21.6z"/>
		<path id="XMLID_666_" class="st1" d="M204.7,19.7c0-2,0.4-3.5,1.3-4.5c0.9-1,1.9-1.6,3.2-1.6c0.8,0,1.6,0.2,2.3,0.7s1.2,1.1,1.6,2
			c0.4,0.9,0.6,2,0.6,3.2c0,1.7-0.4,3.1-1.2,4.1c-0.8,1.2-2,1.8-3.3,1.8c-1.4,0-2.5-0.6-3.3-1.8C205.1,22.6,204.7,21.3,204.7,19.7z
			 M206,19.7c0,1.4,0.3,2.5,0.9,3.3s1.4,1.2,2.3,1.2c0.9,0,1.7-0.4,2.3-1.2s0.9-1.9,0.9-3.5c0-1-0.2-1.9-0.5-2.6
			c-0.2-0.6-0.6-1.1-1.1-1.4s-1-0.5-1.6-0.5c-0.9,0-1.7,0.4-2.3,1.2C206.3,16.9,206,18.1,206,19.7z"/>
	</g>
</g>
</svg>
