<?xml version="1.0" encoding="utf-8"?>
<!-- Generator: Adobe Illustrator 19.0.0, SVG Export Plug-In . SVG Version: 6.00 Build 0)  -->
<svg version="1.1" id="Capa_1" xmlns="http://www.w3.org/2000/svg" xmlns:xlink="http://www.w3.org/1999/xlink" x="0px" y="0px"
	 viewBox="0 0 227.1 32" style="enable-background:new 0 0 227.1 32;" xml:space="preserve">
<style type="text/css">
	.st0{fill:#F7EBCB;stroke:#F76881;stroke-width:2;stroke-miterlimit:10;}
	.st1{fill:#51564D;}
</style>
<path id="XMLID_12573_" class="st0" d="M222.1,31H5c-2.2,0-4-1.8-4-4V5c0-2.2,1.8-4,4-4h217.1c2.2,0,4,1.8,4,4v22
	C226.1,29.2,224.3,31,222.1,31z"/>
<g id="XMLID_1499_">
	<path id="XMLID_1288_" class="st1" d="M63.9,22.5l-3-11.5h1.6l1.7,7.5c0.2,0.8,0.3,1.6,0.5,2.3c0.3-1.2,0.5-1.9,0.5-2.1l2.2-7.7
		h1.8l1.6,5.8c0.4,1.4,0.7,2.8,0.9,4.1c0.1-0.7,0.3-1.6,0.6-2.5L74,11h1.5l-3.1,11.5h-1.5l-2.4-8.7c-0.2-0.7-0.3-1.2-0.4-1.3
		c-0.1,0.5-0.2,1-0.3,1.3l-2.4,8.7H63.9z"/>
	<path id="XMLID_1290_" class="st1" d="M76.3,22.5v-1.6h1.6v1.6H76.3z"/>
	<path id="XMLID_1292_" class="st1" d="M79.3,22.5L83.7,11h1.6L90,22.5h-1.7L86.9,19h-4.8l-1.3,3.5H79.3z M82.6,17.8h3.9l-1.2-3.2
		c-0.4-1-0.6-1.8-0.8-2.4c-0.1,0.7-0.4,1.5-0.6,2.2L82.6,17.8z"/>
	<path id="XMLID_1295_" class="st1" d="M91.4,22.5v-1.6H93v1.6H91.4z"/>
	<path id="XMLID_1297_" class="st1" d="M99.6,18.8l1.4-0.1c0.1,0.6,0.2,1,0.5,1.4s0.6,0.7,1.2,0.9s1.1,0.3,1.8,0.3
		c0.6,0,1.1-0.1,1.5-0.3s0.8-0.4,1-0.7s0.3-0.6,0.3-1c0-0.4-0.1-0.7-0.3-0.9s-0.6-0.5-1-0.7c-0.3-0.1-1-0.3-2-0.6s-1.8-0.5-2.2-0.7
		c-0.5-0.3-1-0.6-1.2-1.1S100,14.5,100,14c0-0.6,0.2-1.1,0.5-1.6s0.8-0.9,1.4-1.1s1.3-0.4,2.1-0.4c0.8,0,1.6,0.1,2.2,0.4
		s1.1,0.7,1.5,1.2s0.5,1.1,0.6,1.8l-1.5,0.1c-0.1-0.7-0.3-1.3-0.8-1.6s-1.1-0.6-2-0.6c-0.9,0-1.6,0.2-2,0.5s-0.6,0.7-0.6,1.2
		c0,0.4,0.1,0.8,0.4,1c0.3,0.3,1.1,0.5,2.3,0.8s2.1,0.5,2.5,0.7c0.7,0.3,1.2,0.7,1.5,1.2s0.5,1,0.5,1.6c0,0.6-0.2,1.2-0.5,1.7
		s-0.9,1-1.5,1.3s-1.4,0.4-2.2,0.4c-1,0-1.9-0.2-2.6-0.5s-1.3-0.8-1.6-1.4S99.6,19.5,99.6,18.8z"/>
	<path id="XMLID_1299_" class="st1" d="M110.6,22.5V11h1.4v4.1c0.7-0.8,1.5-1.1,2.5-1.1c0.6,0,1.1,0.1,1.6,0.4s0.8,0.6,1,1
		s0.3,1,0.3,1.9v5.3h-1.4v-5.3c0-0.7-0.2-1.2-0.5-1.5s-0.7-0.5-1.3-0.5c-0.4,0-0.8,0.1-1.2,0.3s-0.6,0.5-0.8,0.9s-0.2,0.9-0.2,1.5
		v4.5H110.6z"/>
	<path id="XMLID_1301_" class="st1" d="M125.1,19.8l1.5,0.2c-0.2,0.8-0.7,1.5-1.3,2s-1.4,0.7-2.4,0.7c-1.2,0-2.2-0.4-2.9-1.1
		s-1.1-1.8-1.1-3.1c0-1.4,0.4-2.5,1.1-3.3s1.7-1.2,2.8-1.2c1.1,0,2,0.4,2.7,1.1s1.1,1.8,1.1,3.2c0,0.1,0,0.2,0,0.4h-6.2
		c0.1,0.9,0.3,1.6,0.8,2.1s1,0.7,1.7,0.7c0.5,0,1-0.1,1.3-0.4S124.9,20.4,125.1,19.8z M120.5,17.5h4.6c-0.1-0.7-0.2-1.2-0.5-1.6
		c-0.4-0.5-1-0.8-1.7-0.8c-0.6,0-1.2,0.2-1.6,0.6C120.8,16.2,120.6,16.8,120.5,17.5z"/>
	<path id="XMLID_1304_" class="st1" d="M129.9,22.5l-2.5-8.3h1.5l1.3,4.8l0.5,1.8c0-0.1,0.2-0.7,0.4-1.7l1.3-4.9h1.4l1.2,4.8
		l0.4,1.6L136,19l1.4-4.8h1.4l-2.6,8.3h-1.5l-1.3-5l-0.3-1.4l-1.7,6.4H129.9z"/>
	<path id="XMLID_1306_" class="st1" d="M139.9,22.5V11h1.4v4.1c0.7-0.8,1.5-1.1,2.5-1.1c0.6,0,1.1,0.1,1.6,0.4s0.8,0.6,1,1
		s0.3,1,0.3,1.9v5.3h-1.4v-5.3c0-0.7-0.2-1.2-0.5-1.5s-0.7-0.5-1.3-0.5c-0.4,0-0.8,0.1-1.2,0.3s-0.6,0.5-0.8,0.9s-0.2,0.9-0.2,1.5
		v4.5H139.9z"/>
	<path id="XMLID_1308_" class="st1" d="M154.2,21.4c-0.5,0.4-1,0.8-1.5,0.9s-1,0.3-1.6,0.3c-0.9,0-1.6-0.2-2.1-0.7s-0.7-1-0.7-1.7
		c0-0.4,0.1-0.8,0.3-1.1s0.4-0.6,0.7-0.8s0.6-0.4,1-0.5c0.3-0.1,0.7-0.1,1.3-0.2c1.1-0.1,2-0.3,2.5-0.5c0-0.2,0-0.3,0-0.4
		c0-0.6-0.1-1-0.4-1.2c-0.4-0.3-0.9-0.5-1.6-0.5c-0.7,0-1.1,0.1-1.5,0.3s-0.5,0.6-0.7,1.2l-1.4-0.2c0.1-0.6,0.3-1.1,0.6-1.4
		s0.7-0.6,1.2-0.8s1.2-0.3,1.9-0.3c0.7,0,1.3,0.1,1.7,0.3s0.8,0.4,1,0.6s0.4,0.6,0.4,1c0,0.2,0.1,0.7,0.1,1.3V19
		c0,1.3,0,2.1,0.1,2.5s0.2,0.7,0.4,1h-1.5C154.4,22.2,154.3,21.8,154.2,21.4z M154.1,18.3c-0.5,0.2-1.3,0.4-2.3,0.5
		c-0.6,0.1-1,0.2-1.2,0.3s-0.4,0.3-0.6,0.5s-0.2,0.4-0.2,0.7c0,0.4,0.1,0.7,0.4,0.9s0.7,0.4,1.2,0.4c0.5,0,1-0.1,1.4-0.4
		s0.7-0.6,0.9-1c0.2-0.3,0.2-0.8,0.2-1.4V18.3z"/>
	<path id="XMLID_1311_" class="st1" d="M157.7,22.5v-8.3h1.3v1.3c0.3-0.6,0.6-1,0.9-1.2s0.6-0.3,0.9-0.3c0.5,0,1,0.2,1.4,0.5
		l-0.5,1.3c-0.3-0.2-0.7-0.3-1-0.3c-0.3,0-0.6,0.1-0.8,0.3s-0.4,0.4-0.5,0.8c-0.2,0.5-0.2,1-0.2,1.6v4.3H157.7z"/>
	<path id="XMLID_1313_" class="st1" d="M166.1,21.2l0.2,1.2c-0.4,0.1-0.8,0.1-1.1,0.1c-0.5,0-0.9-0.1-1.2-0.2s-0.5-0.4-0.6-0.6
		s-0.2-0.8-0.2-1.7v-4.8h-1v-1.1h1v-2.1l1.4-0.8v2.9h1.4v1.1h-1.4v4.9c0,0.4,0,0.7,0.1,0.8s0.1,0.2,0.2,0.3s0.3,0.1,0.5,0.1
		C165.7,21.3,165.9,21.2,166.1,21.2z"/>
</g>
</svg>
