<?xml version="1.0" encoding="utf-8"?>
<!-- Generator: Adobe Illustrator 19.0.0, SVG Export Plug-In . SVG Version: 6.00 Build 0)  -->
<svg version="1.1" id="Capa_1" xmlns="http://www.w3.org/2000/svg" xmlns:xlink="http://www.w3.org/1999/xlink" x="0px" y="0px"
	 viewBox="0 0 227.1 32" style="enable-background:new 0 0 227.1 32;" xml:space="preserve">
<style type="text/css">
	.st0{fill:#F7974A;stroke:#F7974A;stroke-width:2;stroke-miterlimit:10;}
	.st1{fill:#F7EBCB;}
</style>
<path id="XMLID_12575_" class="st0" d="M222.1,31H5c-2.2,0-4-1.8-4-4V5c0-2.2,1.8-4,4-4h217.1c2.2,0,4,1.8,4,4v22
	C226.1,29.2,224.3,31,222.1,31z"/>
<g id="XMLID_1500_">
	<path id="XMLID_1315_" class="st1" d="M57.9,22.3V10.8h4.3c0.8,0,1.3,0,1.7,0.1c0.6,0.1,1,0.3,1.4,0.5s0.7,0.6,0.9,1.1
		s0.3,1,0.3,1.6c0,1-0.3,1.8-0.9,2.5s-1.7,1-3.4,1h-2.9v4.7H57.9z M59.4,16.3h3c1,0,1.7-0.2,2.1-0.5s0.6-0.9,0.6-1.5
		c0-0.5-0.1-0.9-0.4-1.2s-0.6-0.6-1-0.7c-0.3-0.1-0.7-0.1-1.4-0.1h-2.9V16.3z"/>
	<path id="XMLID_1318_" class="st1" d="M68.3,22.3V10.8h1.4v4.1c0.7-0.8,1.5-1.1,2.5-1.1c0.6,0,1.1,0.1,1.6,0.4s0.8,0.6,1,1
		s0.3,1,0.3,1.9v5.3h-1.4V17c0-0.7-0.2-1.2-0.5-1.5S72.5,15,71.9,15c-0.4,0-0.8,0.1-1.2,0.3s-0.6,0.5-0.8,0.9s-0.2,0.9-0.2,1.5v4.5
		H68.3z"/>
	<path id="XMLID_1320_" class="st1" d="M77.3,12.4v-1.6h1.4v1.6H77.3z M77.3,22.3V14h1.4v8.3H77.3z"/>
	<path id="XMLID_1323_" class="st1" d="M80.8,22.3V10.8h1.4v11.5H80.8z"/>
	<path id="XMLID_1325_" class="st1" d="M84.4,12.4v-1.6h1.4v1.6H84.4z M84.4,22.3V14h1.4v8.3H84.4z"/>
	<path id="XMLID_1328_" class="st1" d="M87.9,25.4V14h1.3V15c0.3-0.4,0.6-0.7,1-0.9s0.8-0.3,1.4-0.3c0.7,0,1.3,0.2,1.9,0.5
		s1,0.9,1.2,1.5s0.4,1.4,0.4,2.2c0,0.8-0.2,1.6-0.5,2.3s-0.7,1.2-1.3,1.6s-1.2,0.5-1.8,0.5c-0.5,0-0.9-0.1-1.3-0.3s-0.7-0.4-0.9-0.8
		v4H87.9z M89.2,18.2c0,1.1,0.2,1.9,0.6,2.4s1,0.8,1.6,0.8c0.6,0,1.2-0.3,1.6-0.8s0.7-1.3,0.7-2.5c0-1.1-0.2-1.8-0.7-2.4
		s-1-0.8-1.6-0.8c-0.6,0-1.1,0.3-1.6,0.8S89.2,17.1,89.2,18.2z"/>
	<path id="XMLID_1331_" class="st1" d="M101.4,22.3V10.8h4.3c0.9,0,1.6,0.1,2.1,0.3s0.9,0.6,1.2,1.1s0.4,1,0.4,1.5
		c0,0.5-0.1,1-0.4,1.4s-0.7,0.8-1.2,1c0.7,0.2,1.2,0.5,1.6,1s0.6,1.1,0.6,1.7c0,0.5-0.1,1-0.3,1.5s-0.5,0.8-0.8,1.1
		s-0.8,0.4-1.3,0.6s-1.1,0.2-1.8,0.2H101.4z M102.9,15.6h2.5c0.7,0,1.2,0,1.4-0.1c0.4-0.1,0.7-0.3,0.9-0.6s0.3-0.6,0.3-1
		c0-0.4-0.1-0.7-0.3-1s-0.4-0.5-0.8-0.6s-0.9-0.2-1.7-0.2h-2.3V15.6z M102.9,20.9h2.9c0.5,0,0.8,0,1-0.1c0.3-0.1,0.6-0.2,0.9-0.3
		s0.4-0.4,0.6-0.6s0.2-0.6,0.2-1c0-0.4-0.1-0.8-0.3-1.1s-0.5-0.5-0.9-0.7s-0.9-0.2-1.7-0.2h-2.6V20.9z"/>
	<path id="XMLID_1335_" class="st1" d="M112.3,22.3v-1.6h1.6v1.6H112.3z"/>
	<path id="XMLID_1337_" class="st1" d="M129.2,18.3l1.5,0.4c-0.3,1.2-0.9,2.2-1.7,2.8s-1.8,1-3,1c-1.2,0-2.2-0.3-3-0.8
		s-1.4-1.2-1.8-2.2s-0.6-2-0.6-3.1c0-1.2,0.2-2.2,0.7-3.1s1.1-1.6,1.9-2s1.8-0.7,2.8-0.7c1.1,0,2.1,0.3,2.9,0.9s1.3,1.4,1.6,2.5
		l-1.5,0.4c-0.3-0.8-0.7-1.4-1.2-1.8s-1.1-0.6-1.9-0.6c-0.9,0-1.6,0.2-2.2,0.6s-1,1-1.2,1.7s-0.4,1.4-0.4,2.2c0,1,0.1,1.8,0.4,2.6
		s0.7,1.3,1.3,1.6s1.2,0.5,1.9,0.5c0.8,0,1.6-0.2,2.2-0.7S129,19.2,129.2,18.3z"/>
	<path id="XMLID_1339_" class="st1" d="M132.4,22.3V14h1.3v1.3c0.3-0.6,0.6-1,0.9-1.2s0.6-0.3,0.9-0.3c0.5,0,1,0.2,1.4,0.5l-0.5,1.3
		c-0.3-0.2-0.7-0.3-1-0.3c-0.3,0-0.6,0.1-0.8,0.3s-0.4,0.4-0.5,0.8c-0.2,0.5-0.2,1-0.2,1.6v4.3H132.4z"/>
	<path id="XMLID_1341_" class="st1" d="M137.2,18.1c0-1.5,0.4-2.7,1.3-3.4c0.7-0.6,1.6-0.9,2.6-0.9c1.1,0,2.1,0.4,2.8,1.1
		s1.1,1.8,1.1,3.1c0,1.1-0.2,1.9-0.5,2.5s-0.8,1.1-1.4,1.4s-1.3,0.5-2,0.5c-1.2,0-2.1-0.4-2.8-1.1S137.2,19.5,137.2,18.1z
		 M138.6,18.1c0,1.1,0.2,1.9,0.7,2.4s1,0.8,1.8,0.8c0.7,0,1.3-0.3,1.7-0.8s0.7-1.3,0.7-2.4c0-1-0.2-1.8-0.7-2.3s-1-0.8-1.7-0.8
		c-0.7,0-1.3,0.3-1.8,0.8S138.6,17.1,138.6,18.1z"/>
	<path id="XMLID_1344_" class="st1" d="M146,19.8l1.4-0.2c0.1,0.6,0.3,1,0.7,1.3s0.9,0.4,1.5,0.4c0.6,0,1.1-0.1,1.4-0.4
		s0.5-0.6,0.5-0.9c0-0.3-0.1-0.6-0.4-0.8c-0.2-0.1-0.7-0.3-1.4-0.5c-1-0.3-1.7-0.5-2.1-0.7s-0.7-0.5-0.9-0.8s-0.3-0.7-0.3-1.1
		c0-0.4,0.1-0.7,0.3-1s0.4-0.6,0.7-0.8c0.2-0.2,0.5-0.3,0.9-0.4s0.8-0.2,1.2-0.2c0.7,0,1.2,0.1,1.7,0.3s0.9,0.4,1.1,0.8
		s0.4,0.7,0.5,1.3l-1.4,0.2c-0.1-0.4-0.2-0.8-0.5-1s-0.7-0.4-1.3-0.4c-0.6,0-1.1,0.1-1.4,0.3s-0.4,0.5-0.4,0.8
		c0,0.2,0.1,0.3,0.2,0.5c0.1,0.2,0.3,0.3,0.5,0.4c0.1,0.1,0.6,0.2,1.2,0.4c1,0.3,1.7,0.5,2.1,0.7s0.7,0.4,0.9,0.7s0.3,0.7,0.3,1.2
		c0,0.5-0.1,0.9-0.4,1.3s-0.7,0.7-1.2,1s-1.1,0.3-1.8,0.3c-1.1,0-1.9-0.2-2.5-0.7S146.2,20.7,146,19.8z"/>
	<path id="XMLID_1346_" class="st1" d="M155.9,22.3h-1.3V10.8h1.4v4.1c0.6-0.7,1.4-1.1,2.3-1.1c0.5,0,1,0.1,1.4,0.3s0.8,0.5,1.1,0.9
		s0.5,0.8,0.7,1.3s0.3,1.1,0.3,1.7c0,1.4-0.4,2.5-1.1,3.3s-1.5,1.2-2.5,1.2c-1,0-1.7-0.4-2.3-1.2V22.3z M155.9,18.1
		c0,1,0.1,1.7,0.4,2.2c0.4,0.7,1,1.1,1.8,1.1c0.6,0,1.1-0.3,1.6-0.8s0.7-1.3,0.7-2.4c0-1.1-0.2-1.9-0.6-2.4s-0.9-0.8-1.6-0.8
		c-0.6,0-1.1,0.3-1.6,0.8S155.9,17,155.9,18.1z"/>
	<path id="XMLID_1349_" class="st1" d="M163.4,25.5l-0.2-1.3c0.3,0.1,0.6,0.1,0.8,0.1c0.3,0,0.6-0.1,0.8-0.2s0.3-0.3,0.5-0.4
		c0.1-0.1,0.2-0.5,0.4-1c0-0.1,0.1-0.2,0.1-0.3l-3.1-8.3h1.5l1.7,4.8c0.2,0.6,0.4,1.3,0.6,1.9c0.2-0.6,0.4-1.3,0.6-1.9l1.8-4.8h1.4
		l-3.2,8.4c-0.3,0.9-0.6,1.5-0.8,1.9c-0.3,0.5-0.5,0.8-0.9,1s-0.7,0.3-1.2,0.3C164.1,25.6,163.8,25.6,163.4,25.5z"/>
</g>
</svg>
