<?xml version="1.0" encoding="utf-8"?>
<!-- Generator: Adobe Illustrator 19.0.0, SVG Export Plug-In . SVG Version: 6.00 Build 0)  -->
<svg version="1.1" id="Capa_1" xmlns="http://www.w3.org/2000/svg" xmlns:xlink="http://www.w3.org/1999/xlink" x="0px" y="0px"
	 viewBox="0 0 227.1 32" style="enable-background:new 0 0 227.1 32;" xml:space="preserve">
<style type="text/css">
	.st0{fill:#599C5B;stroke:#599C5B;stroke-width:2;stroke-miterlimit:10;}
	.st1{fill:#F7EBCB;}
</style>
<path id="XMLID_12576_" class="st0" d="M222.1,31H5c-2.2,0-4-1.8-4-4V5c0-2.2,1.8-4,4-4h217.1c2.2,0,4,1.8,4,4v22
	C226.1,29.2,224.3,31,222.1,31z"/>
<g id="XMLID_1501_">
	<path id="XMLID_1351_" class="st1" d="M39.4,22.1l4.4-11.5h1.6l4.7,11.5h-1.7l-1.3-3.5h-4.8L41,22.1H39.4z M42.7,17.4h3.9l-1.2-3.2
		c-0.4-1-0.6-1.8-0.8-2.4c-0.1,0.7-0.4,1.5-0.6,2.2L42.7,17.4z"/>
	<path id="XMLID_1354_" class="st1" d="M51.2,22.1v-8.3h1.3V15c0.3-0.6,0.6-1,0.9-1.2s0.6-0.3,0.9-0.3c0.5,0,1,0.2,1.4,0.5l-0.5,1.3
		c-0.3-0.2-0.7-0.3-1-0.3c-0.3,0-0.6,0.1-0.8,0.3s-0.4,0.4-0.5,0.8c-0.2,0.5-0.2,1-0.2,1.6v4.3H51.2z"/>
	<path id="XMLID_1356_" class="st1" d="M56.5,22.1v-8.3h1.3v1.2c0.3-0.4,0.6-0.7,1-1s0.9-0.4,1.5-0.4c0.6,0,1.1,0.1,1.5,0.4
		s0.7,0.6,0.8,1.1c0.7-1,1.5-1.5,2.6-1.5c0.8,0,1.5,0.2,1.9,0.7s0.7,1.2,0.7,2.1v5.7h-1.4v-5.2c0-0.6,0-1-0.1-1.2s-0.3-0.4-0.5-0.6
		s-0.5-0.2-0.8-0.2c-0.6,0-1.1,0.2-1.5,0.6s-0.6,1-0.6,1.9v4.8h-1.4v-5.4c0-0.6-0.1-1.1-0.3-1.4s-0.6-0.5-1.1-0.5
		c-0.4,0-0.8,0.1-1.1,0.3s-0.6,0.5-0.7,0.9c-0.2,0.4-0.2,1-0.2,1.7v4.3H56.5z"/>
	<path id="XMLID_1358_" class="st1" d="M75.2,21c-0.5,0.4-1,0.8-1.5,0.9s-1,0.3-1.6,0.3c-0.9,0-1.6-0.2-2.1-0.7s-0.7-1-0.7-1.7
		c0-0.4,0.1-0.8,0.3-1.1s0.4-0.6,0.7-0.8s0.6-0.4,1-0.5c0.3-0.1,0.7-0.1,1.3-0.2c1.1-0.1,2-0.3,2.5-0.5c0-0.2,0-0.3,0-0.4
		c0-0.6-0.1-1-0.4-1.2c-0.4-0.3-0.9-0.5-1.6-0.5c-0.7,0-1.1,0.1-1.5,0.3s-0.5,0.6-0.7,1.2l-1.4-0.2c0.1-0.6,0.3-1.1,0.6-1.4
		s0.7-0.6,1.2-0.8s1.2-0.3,1.9-0.3c0.7,0,1.3,0.1,1.7,0.3s0.8,0.4,1,0.6s0.4,0.6,0.4,1c0,0.2,0.1,0.7,0.1,1.3v1.9
		c0,1.3,0,2.1,0.1,2.5s0.2,0.7,0.4,1h-1.5C75.4,21.8,75.3,21.4,75.2,21z M75.1,17.9c-0.5,0.2-1.3,0.4-2.3,0.5
		c-0.6,0.1-1,0.2-1.2,0.3S71.2,19,71,19.2s-0.2,0.4-0.2,0.7c0,0.4,0.1,0.7,0.4,0.9s0.7,0.4,1.2,0.4c0.5,0,1-0.1,1.4-0.4
		s0.7-0.6,0.9-1c0.2-0.3,0.2-0.8,0.2-1.4V17.9z"/>
	<path id="XMLID_1361_" class="st1" d="M78.7,22.1v-8.3H80V15c0.6-0.9,1.5-1.4,2.6-1.4c0.5,0,1,0.1,1.4,0.3s0.7,0.4,0.9,0.7
		s0.4,0.6,0.4,1c0.1,0.3,0.1,0.7,0.1,1.4v5.1h-1.4v-5c0-0.6-0.1-1-0.2-1.3c-0.1-0.3-0.3-0.5-0.6-0.7s-0.6-0.3-1-0.3
		c-0.6,0-1.1,0.2-1.6,0.6s-0.7,1.1-0.7,2.2v4.5H78.7z"/>
	<path id="XMLID_1363_" class="st1" d="M93,22.1v-1c-0.5,0.8-1.3,1.2-2.3,1.2c-0.7,0-1.3-0.2-1.8-0.5s-1-0.9-1.3-1.5
		s-0.5-1.4-0.5-2.3c0-0.8,0.1-1.6,0.4-2.3c0.3-0.7,0.7-1.2,1.2-1.6s1.2-0.5,1.9-0.5c0.5,0,0.9,0.1,1.3,0.3s0.7,0.5,1,0.8v-4.1h1.4
		v11.5H93z M88.6,17.9c0,1.1,0.2,1.9,0.7,2.4s1,0.8,1.6,0.8c0.6,0,1.1-0.3,1.6-0.8S93,19.1,93,18c0-1.1-0.2-2-0.7-2.5
		c-0.4-0.5-1-0.8-1.6-0.8c-0.6,0-1.1,0.3-1.6,0.8C88.8,16,88.6,16.8,88.6,17.9z"/>
	<path id="XMLID_1366_" class="st1" d="M100,22.1V10.6h7.7V12h-6.2v3.5h5.4v1.4h-5.4v5.2H100z"/>
	<path id="XMLID_1368_" class="st1" d="M115.2,19.4l1.5,0.2c-0.2,0.8-0.7,1.5-1.3,2s-1.4,0.7-2.4,0.7c-1.2,0-2.2-0.4-2.9-1.1
		S109,19.3,109,18c0-1.4,0.4-2.5,1.1-3.3s1.7-1.2,2.8-1.2c1.1,0,2,0.4,2.7,1.1s1.1,1.8,1.1,3.2c0,0.1,0,0.2,0,0.4h-6.2
		c0.1,0.9,0.3,1.6,0.8,2.1s1,0.7,1.7,0.7c0.5,0,1-0.1,1.3-0.4S115,20,115.2,19.4z M110.6,17.1h4.6c-0.1-0.7-0.2-1.2-0.5-1.6
		c-0.4-0.5-1-0.8-1.7-0.8c-0.6,0-1.2,0.2-1.6,0.6S110.6,16.4,110.6,17.1z"/>
	<path id="XMLID_1371_" class="st1" d="M118.4,12.2v-1.6h1.4v1.6H118.4z M118.4,22.1v-8.3h1.4v8.3H118.4z"/>
	<path id="XMLID_1374_" class="st1" d="M121.7,22.8l1.4,0.2c0.1,0.4,0.2,0.7,0.5,0.9c0.3,0.3,0.8,0.4,1.4,0.4c0.7,0,1.2-0.1,1.5-0.4
		s0.6-0.6,0.7-1.1c0.1-0.3,0.1-0.9,0.1-1.8c-0.6,0.7-1.4,1.1-2.3,1.1c-1.1,0-2-0.4-2.6-1.2s-0.9-1.8-0.9-3c0-0.8,0.1-1.5,0.4-2.2
		c0.3-0.7,0.7-1.2,1.2-1.6s1.2-0.5,1.9-0.5c1,0,1.8,0.4,2.4,1.2v-1h1.3v7.2c0,1.3-0.1,2.2-0.4,2.7s-0.7,1-1.3,1.3s-1.3,0.5-2.1,0.5
		c-1,0-1.8-0.2-2.4-0.7S121.7,23.7,121.7,22.8z M122.9,17.8c0,1.1,0.2,1.9,0.6,2.4s1,0.8,1.6,0.8c0.6,0,1.2-0.2,1.6-0.7
		s0.7-1.3,0.7-2.3c0-1-0.2-1.8-0.7-2.3c-0.5-0.5-1-0.8-1.6-0.8c-0.6,0-1.2,0.3-1.6,0.8C123.1,16,122.9,16.8,122.9,17.8z"/>
	<path id="XMLID_1377_" class="st1" d="M136.5,19.4l1.5,0.2c-0.2,0.8-0.7,1.5-1.3,2s-1.4,0.7-2.4,0.7c-1.2,0-2.2-0.4-2.9-1.1
		s-1.1-1.8-1.1-3.1c0-1.4,0.4-2.5,1.1-3.3s1.7-1.2,2.8-1.2c1.1,0,2,0.4,2.7,1.1s1.1,1.8,1.1,3.2c0,0.1,0,0.2,0,0.4h-6.2
		c0.1,0.9,0.3,1.6,0.8,2.1s1,0.7,1.7,0.7c0.5,0,1-0.1,1.3-0.4S136.3,20,136.5,19.4z M131.9,17.1h4.6c-0.1-0.7-0.2-1.2-0.5-1.6
		c-0.4-0.5-1-0.8-1.7-0.8c-0.6,0-1.2,0.2-1.6,0.6S132,16.4,131.9,17.1z"/>
	<path id="XMLID_1380_" class="st1" d="M139.7,22.1v-8.3h1.3V15c0.6-0.9,1.5-1.4,2.6-1.4c0.5,0,1,0.1,1.4,0.3s0.7,0.4,0.9,0.7
		s0.4,0.6,0.4,1c0.1,0.3,0.1,0.7,0.1,1.4v5.1h-1.4v-5c0-0.6-0.1-1-0.2-1.3c-0.1-0.3-0.3-0.5-0.6-0.7s-0.6-0.3-1-0.3
		c-0.6,0-1.1,0.2-1.6,0.6s-0.7,1.1-0.7,2.2v4.5H139.7z"/>
	<path id="XMLID_1382_" class="st1" d="M149.9,22.1h-1.3V10.6h1.4v4.1c0.6-0.7,1.4-1.1,2.3-1.1c0.5,0,1,0.1,1.4,0.3s0.8,0.5,1.1,0.9
		s0.5,0.8,0.7,1.3c0.2,0.5,0.3,1.1,0.3,1.7c0,1.4-0.4,2.5-1.1,3.3s-1.5,1.2-2.5,1.2c-1,0-1.7-0.4-2.3-1.2V22.1z M149.9,17.9
		c0,1,0.1,1.7,0.4,2.2c0.4,0.7,1,1.1,1.8,1.1c0.6,0,1.1-0.3,1.6-0.8s0.7-1.3,0.7-2.4c0-1.1-0.2-1.9-0.6-2.4
		c-0.4-0.5-0.9-0.8-1.6-0.8c-0.6,0-1.1,0.3-1.6,0.8C150.1,16.1,149.9,16.8,149.9,17.9z"/>
	<path id="XMLID_1385_" class="st1" d="M163,21c-0.5,0.4-1,0.8-1.5,0.9s-1,0.3-1.6,0.3c-0.9,0-1.6-0.2-2.1-0.7s-0.7-1-0.7-1.7
		c0-0.4,0.1-0.8,0.3-1.1s0.4-0.6,0.7-0.8s0.6-0.4,1-0.5c0.3-0.1,0.7-0.1,1.3-0.2c1.1-0.1,2-0.3,2.5-0.5c0-0.2,0-0.3,0-0.4
		c0-0.6-0.1-1-0.4-1.2c-0.4-0.3-0.9-0.5-1.6-0.5c-0.7,0-1.1,0.1-1.5,0.3s-0.5,0.6-0.7,1.2l-1.4-0.2c0.1-0.6,0.3-1.1,0.6-1.4
		s0.7-0.6,1.2-0.8s1.2-0.3,1.9-0.3c0.7,0,1.3,0.1,1.7,0.3s0.8,0.4,1,0.6s0.4,0.6,0.4,1c0,0.2,0.1,0.7,0.1,1.3v1.9
		c0,1.3,0,2.1,0.1,2.5s0.2,0.7,0.4,1h-1.5C163.1,21.8,163,21.4,163,21z M162.8,17.9c-0.5,0.2-1.3,0.4-2.3,0.5
		c-0.6,0.1-1,0.2-1.2,0.3s-0.4,0.3-0.6,0.5s-0.2,0.4-0.2,0.7c0,0.4,0.1,0.7,0.4,0.9s0.7,0.4,1.2,0.4c0.5,0,1-0.1,1.4-0.4
		s0.7-0.6,0.9-1c0.2-0.3,0.2-0.8,0.2-1.4V17.9z"/>
	<path id="XMLID_1388_" class="st1" d="M171.9,22.1v-1.2c-0.6,0.9-1.5,1.4-2.6,1.4c-0.5,0-0.9-0.1-1.4-0.3s-0.7-0.4-0.9-0.7
		s-0.4-0.6-0.4-1c-0.1-0.3-0.1-0.7-0.1-1.3v-5.1h1.4v4.6c0,0.7,0,1.2,0.1,1.5c0.1,0.4,0.3,0.7,0.6,0.9s0.6,0.3,1.1,0.3
		s0.8-0.1,1.2-0.3s0.6-0.5,0.8-0.9s0.2-0.9,0.2-1.6v-4.4h1.4v8.3H171.9z"/>
	<path id="XMLID_1390_" class="st1" d="M175.3,22.1v-8.3h1.3v1.2c0.3-0.4,0.6-0.7,1-1s0.9-0.4,1.5-0.4c0.6,0,1.1,0.1,1.5,0.4
		s0.7,0.6,0.8,1.1c0.7-1,1.5-1.5,2.6-1.5c0.8,0,1.5,0.2,1.9,0.7s0.7,1.2,0.7,2.1v5.7h-1.4v-5.2c0-0.6,0-1-0.1-1.2s-0.3-0.4-0.5-0.6
		s-0.5-0.2-0.8-0.2c-0.6,0-1.1,0.2-1.5,0.6s-0.6,1-0.6,1.9v4.8h-1.4v-5.4c0-0.6-0.1-1.1-0.3-1.4s-0.6-0.5-1.1-0.5
		c-0.4,0-0.8,0.1-1.1,0.3s-0.6,0.5-0.7,0.9c-0.2,0.4-0.2,1-0.2,1.7v4.3H175.3z"/>
</g>
</svg>
