<?xml version="1.0" encoding="utf-8"?>
<!-- Generator: Adobe Illustrator 19.0.0, SVG Export Plug-In . SVG Version: 6.00 Build 0)  -->
<svg version="1.1" id="Capa_1" xmlns="http://www.w3.org/2000/svg" xmlns:xlink="http://www.w3.org/1999/xlink" x="0px" y="0px"
	 viewBox="0 0 227.1 32" style="enable-background:new 0 0 227.1 32;" xml:space="preserve">
<style type="text/css">
	.st0{fill:#F7EBCB;stroke:#31A6AE;stroke-width:2;stroke-miterlimit:10;}
	.st1{fill:#51564D;}
</style>
<path id="XMLID_12579_" class="st0" d="M222.1,31H5c-2.2,0-4-1.8-4-4V5c0-2.2,1.8-4,4-4h217.1c2.2,0,4,1.8,4,4v22
	C226.1,29.2,224.3,31,222.1,31z"/>
<g id="XMLID_1502_">
	<path id="XMLID_1392_" class="st1" d="M39.8,21.9l-3-11.5h1.6l1.7,7.5c0.2,0.8,0.3,1.6,0.5,2.3c0.3-1.2,0.5-1.9,0.5-2.1l2.2-7.7
		h1.8l1.6,5.8c0.4,1.4,0.7,2.8,0.9,4.1c0.1-0.7,0.3-1.6,0.6-2.5l1.8-7.4h1.5l-3.1,11.5h-1.5l-2.4-8.7c-0.2-0.7-0.3-1.2-0.4-1.3
		c-0.1,0.5-0.2,1-0.3,1.3l-2.4,8.7H39.8z"/>
	<path id="XMLID_1394_" class="st1" d="M52.3,21.9v-1.6h1.6v1.6H52.3z"/>
	<path id="XMLID_1396_" class="st1" d="M65.4,21.9V10.4h8.3v1.4h-6.8v3.5h6.3v1.3h-6.3v3.9h7v1.4H65.4z"/>
	<path id="XMLID_1398_" class="st1" d="M81.3,21.9v-1c-0.5,0.8-1.3,1.2-2.3,1.2c-0.7,0-1.3-0.2-1.8-0.5s-1-0.9-1.3-1.5
		s-0.5-1.4-0.5-2.3c0-0.8,0.1-1.6,0.4-2.3c0.3-0.7,0.7-1.2,1.2-1.6s1.2-0.5,1.9-0.5c0.5,0,0.9,0.1,1.3,0.3s0.7,0.5,1,0.8v-4.1h1.4
		v11.5H81.3z M76.8,17.7c0,1.1,0.2,1.9,0.7,2.4s1,0.8,1.6,0.8c0.6,0,1.1-0.3,1.6-0.8s0.6-1.3,0.6-2.3c0-1.1-0.2-2-0.7-2.5
		s-1-0.8-1.6-0.8c-0.6,0-1.1,0.3-1.6,0.8S76.8,16.6,76.8,17.7z"/>
	<path id="XMLID_1401_" class="st1" d="M86.3,21.9l-2.5-8.3h1.5l1.3,4.8l0.5,1.8c0-0.1,0.2-0.7,0.4-1.7l1.3-4.9h1.4l1.2,4.8l0.4,1.6
		l0.5-1.6l1.4-4.8h1.4l-2.6,8.3h-1.5l-1.3-5l-0.3-1.4l-1.7,6.4H86.3z"/>
	<path id="XMLID_1403_" class="st1" d="M101.8,20.8c-0.5,0.4-1,0.8-1.5,0.9s-1,0.3-1.6,0.3c-0.9,0-1.6-0.2-2.1-0.7s-0.7-1-0.7-1.7
		c0-0.4,0.1-0.8,0.3-1.1s0.4-0.6,0.7-0.8s0.6-0.4,1-0.5c0.3-0.1,0.7-0.1,1.3-0.2c1.1-0.1,2-0.3,2.5-0.5c0-0.2,0-0.3,0-0.4
		c0-0.6-0.1-1-0.4-1.2c-0.4-0.3-0.9-0.5-1.6-0.5c-0.7,0-1.1,0.1-1.5,0.3s-0.5,0.6-0.7,1.2l-1.4-0.2c0.1-0.6,0.3-1.1,0.6-1.4
		s0.7-0.6,1.2-0.8s1.2-0.3,1.9-0.3c0.7,0,1.3,0.1,1.7,0.3s0.8,0.4,1,0.6s0.4,0.6,0.4,1c0,0.2,0.1,0.7,0.1,1.3v1.9
		c0,1.3,0,2.1,0.1,2.5s0.2,0.7,0.4,1H102C101.9,21.6,101.8,21.2,101.8,20.8z M101.6,17.7c-0.5,0.2-1.3,0.4-2.3,0.5
		c-0.6,0.1-1,0.2-1.2,0.3s-0.4,0.3-0.6,0.5s-0.2,0.4-0.2,0.7c0,0.4,0.1,0.7,0.4,0.9S98.5,21,99,21c0.5,0,1-0.1,1.4-0.4
		s0.7-0.6,0.9-1c0.2-0.3,0.2-0.8,0.2-1.4V17.7z"/>
	<path id="XMLID_1406_" class="st1" d="M105.2,21.9v-8.3h1.3v1.3c0.3-0.6,0.6-1,0.9-1.2s0.6-0.3,0.9-0.3c0.5,0,1,0.2,1.4,0.5
		l-0.5,1.3c-0.3-0.2-0.7-0.3-1-0.3c-0.3,0-0.6,0.1-0.8,0.3s-0.4,0.4-0.5,0.8c-0.2,0.5-0.2,1-0.2,1.6v4.3H105.2z"/>
	<path id="XMLID_1408_" class="st1" d="M116,21.9v-1c-0.5,0.8-1.3,1.2-2.3,1.2c-0.7,0-1.3-0.2-1.8-0.5s-1-0.9-1.3-1.5
		s-0.5-1.4-0.5-2.3c0-0.8,0.1-1.6,0.4-2.3c0.3-0.7,0.7-1.2,1.2-1.6s1.2-0.5,1.9-0.5c0.5,0,0.9,0.1,1.3,0.3s0.7,0.5,1,0.8v-4.1h1.4
		v11.5H116z M111.5,17.7c0,1.1,0.2,1.9,0.7,2.4s1,0.8,1.6,0.8c0.6,0,1.1-0.3,1.6-0.8s0.6-1.3,0.6-2.3c0-1.1-0.2-2-0.7-2.5
		s-1-0.8-1.6-0.8c-0.6,0-1.1,0.3-1.6,0.8S111.5,16.6,111.5,17.7z"/>
	<path id="XMLID_1411_" class="st1" d="M118.9,19.4l1.4-0.2c0.1,0.6,0.3,1,0.7,1.3s0.9,0.4,1.5,0.4c0.6,0,1.1-0.1,1.4-0.4
		s0.5-0.6,0.5-0.9c0-0.3-0.1-0.6-0.4-0.8c-0.2-0.1-0.7-0.3-1.4-0.5c-1-0.3-1.7-0.5-2.1-0.7s-0.7-0.5-0.9-0.8s-0.3-0.7-0.3-1.1
		c0-0.4,0.1-0.7,0.3-1s0.4-0.6,0.7-0.8c0.2-0.2,0.5-0.3,0.9-0.4s0.8-0.2,1.2-0.2c0.7,0,1.2,0.1,1.7,0.3s0.9,0.4,1.1,0.8
		s0.4,0.7,0.5,1.3l-1.4,0.2c-0.1-0.4-0.2-0.8-0.5-1s-0.7-0.4-1.3-0.4c-0.6,0-1.1,0.1-1.4,0.3s-0.4,0.5-0.4,0.8
		c0,0.2,0.1,0.3,0.2,0.5c0.1,0.2,0.3,0.3,0.5,0.4c0.1,0.1,0.6,0.2,1.2,0.4c1,0.3,1.7,0.5,2.1,0.7s0.7,0.4,0.9,0.7s0.3,0.7,0.3,1.2
		c0,0.5-0.1,0.9-0.4,1.3s-0.7,0.7-1.2,1s-1.1,0.3-1.8,0.3c-1.1,0-1.9-0.2-2.5-0.7S119.1,20.3,118.9,19.4z"/>
	<path id="XMLID_1413_" class="st1" d="M136.5,21.9V10.4h3.9c0.9,0,1.6,0.1,2,0.2c0.7,0.2,1.2,0.4,1.7,0.8c0.6,0.5,1.1,1.2,1.4,2
		s0.4,1.7,0.4,2.7c0,0.9-0.1,1.6-0.3,2.3s-0.5,1.2-0.8,1.7s-0.7,0.8-1,1s-0.8,0.4-1.4,0.6s-1.1,0.2-1.8,0.2H136.5z M138.1,20.5h2.4
		c0.8,0,1.3-0.1,1.8-0.2s0.8-0.3,1-0.6c0.4-0.4,0.6-0.8,0.8-1.4s0.3-1.3,0.3-2.2c0-1.2-0.2-2.1-0.6-2.8s-0.9-1.1-1.4-1.3
		c-0.4-0.2-1.1-0.2-2-0.2h-2.4V20.5z"/>
	<path id="XMLID_1416_" class="st1" d="M153.6,19.2l1.5,0.2c-0.2,0.8-0.7,1.5-1.3,2s-1.4,0.7-2.4,0.7c-1.2,0-2.2-0.4-2.9-1.1
		s-1.1-1.8-1.1-3.1c0-1.4,0.4-2.5,1.1-3.3s1.7-1.2,2.8-1.2c1.1,0,2,0.4,2.7,1.1s1.1,1.8,1.1,3.2c0,0.1,0,0.2,0,0.4h-6.2
		c0.1,0.9,0.3,1.6,0.8,2.1s1,0.7,1.7,0.7c0.5,0,1-0.1,1.3-0.4S153.4,19.8,153.6,19.2z M149,16.9h4.6c-0.1-0.7-0.2-1.2-0.5-1.6
		c-0.4-0.5-1-0.8-1.7-0.8c-0.6,0-1.2,0.2-1.6,0.6S149,16.2,149,16.9z"/>
	<path id="XMLID_1419_" class="st1" d="M156.8,21.9v-8.3h1.3v1.2c0.3-0.4,0.6-0.7,1-1s0.9-0.4,1.5-0.4c0.6,0,1.1,0.1,1.5,0.4
		s0.7,0.6,0.8,1.1c0.7-1,1.5-1.5,2.6-1.5c0.8,0,1.5,0.2,1.9,0.7s0.7,1.2,0.7,2.1v5.7h-1.4v-5.2c0-0.6,0-1-0.1-1.2s-0.3-0.4-0.5-0.6
		s-0.5-0.2-0.8-0.2c-0.6,0-1.1,0.2-1.5,0.6s-0.6,1-0.6,1.9v4.8h-1.4v-5.4c0-0.6-0.1-1.1-0.3-1.4s-0.6-0.5-1.1-0.5
		c-0.4,0-0.8,0.1-1.1,0.3s-0.6,0.5-0.7,0.9c-0.2,0.4-0.2,1-0.2,1.7v4.3H156.8z"/>
	<path id="XMLID_1421_" class="st1" d="M170.2,12v-1.6h1.4V12H170.2z M170.2,21.9v-8.3h1.4v8.3H170.2z"/>
	<path id="XMLID_1424_" class="st1" d="M173.7,21.9v-8.3h1.3v1.2c0.6-0.9,1.5-1.4,2.6-1.4c0.5,0,1,0.1,1.4,0.3s0.7,0.4,0.9,0.7
		s0.4,0.6,0.4,1c0.1,0.3,0.1,0.7,0.1,1.4v5.1H179v-5c0-0.6-0.1-1-0.2-1.3s-0.3-0.5-0.6-0.7s-0.6-0.3-1-0.3c-0.6,0-1.1,0.2-1.6,0.6
		s-0.7,1.1-0.7,2.2v4.5H173.7z"/>
	<path id="XMLID_1426_" class="st1" d="M182.3,22.6l1.4,0.2c0.1,0.4,0.2,0.7,0.5,0.9c0.3,0.3,0.8,0.4,1.4,0.4c0.7,0,1.2-0.1,1.5-0.4
		s0.6-0.6,0.7-1.1c0.1-0.3,0.1-0.9,0.1-1.8c-0.6,0.7-1.4,1.1-2.3,1.1c-1.1,0-2-0.4-2.6-1.2s-0.9-1.8-0.9-3c0-0.8,0.1-1.5,0.4-2.2
		c0.3-0.7,0.7-1.2,1.2-1.6s1.2-0.5,1.9-0.5c1,0,1.8,0.4,2.4,1.2v-1h1.3v7.2c0,1.3-0.1,2.2-0.4,2.7s-0.7,1-1.3,1.3s-1.3,0.5-2.1,0.5
		c-1,0-1.8-0.2-2.4-0.7S182.3,23.5,182.3,22.6z M183.5,17.6c0,1.1,0.2,1.9,0.6,2.4s1,0.8,1.6,0.8c0.6,0,1.2-0.2,1.6-0.7
		s0.7-1.3,0.7-2.3c0-1-0.2-1.8-0.7-2.3s-1-0.8-1.6-0.8c-0.6,0-1.2,0.3-1.6,0.8S183.5,16.6,183.5,17.6z"/>
</g>
</svg>
