<?xml version="1.0" encoding="utf-8"?>
<!-- Generator: Adobe Illustrator 19.0.0, SVG Export Plug-In . SVG Version: 6.00 Build 0)  -->
<svg version="1.1" id="Capa_1" xmlns="http://www.w3.org/2000/svg" xmlns:xlink="http://www.w3.org/1999/xlink" x="0px" y="0px"
	 viewBox="0 0 227.1 32" style="enable-background:new 0 0 227.1 32;" xml:space="preserve">
<style type="text/css">
	.st0{fill:#A75FB9;stroke:#A75FB9;stroke-width:2;stroke-miterlimit:10;}
	.st1{fill:#F7EBCB;}
</style>
<path id="XMLID_12578_" class="st0" d="M222.1,31H5c-2.2,0-4-1.8-4-4V5c0-2.2,1.8-4,4-4h217.1c2.2,0,4,1.8,4,4v22
	C226.1,29.2,224.3,31,222.1,31z"/>
<g id="XMLID_1503_">
	<path id="XMLID_1429_" class="st1" d="M54.8,18.4l1.4-0.2c0,0.9,0.2,1.5,0.5,1.8s0.7,0.5,1.2,0.5c0.4,0,0.7-0.1,1-0.3
		s0.5-0.4,0.6-0.7s0.2-0.8,0.2-1.4v-7.9h1.5V18c0,1-0.1,1.7-0.3,2.2s-0.6,0.9-1.1,1.2s-1.1,0.4-1.8,0.4c-1,0-1.8-0.3-2.3-0.9
		S54.8,19.6,54.8,18.4z"/>
	<path id="XMLID_1431_" class="st1" d="M62.9,17.5c0-1.5,0.4-2.7,1.3-3.4c0.7-0.6,1.6-0.9,2.6-0.9c1.1,0,2.1,0.4,2.8,1.1
		s1.1,1.8,1.1,3.1c0,1.1-0.2,1.9-0.5,2.5s-0.8,1.1-1.4,1.4s-1.3,0.5-2,0.5c-1.2,0-2.1-0.4-2.8-1.1S62.9,18.9,62.9,17.5z M64.4,17.5
		c0,1.1,0.2,1.9,0.7,2.4s1,0.8,1.8,0.8c0.7,0,1.3-0.3,1.7-0.8s0.7-1.3,0.7-2.4c0-1-0.2-1.8-0.7-2.3s-1-0.8-1.7-0.8
		c-0.7,0-1.3,0.3-1.8,0.8S64.4,16.5,64.4,17.5z"/>
	<path id="XMLID_1434_" class="st1" d="M71.8,19.2l1.4-0.2c0.1,0.6,0.3,1,0.7,1.3s0.9,0.4,1.5,0.4c0.6,0,1.1-0.1,1.4-0.4
		s0.5-0.6,0.5-0.9c0-0.3-0.1-0.6-0.4-0.8c-0.2-0.1-0.7-0.3-1.4-0.5c-1-0.3-1.7-0.5-2.1-0.7s-0.7-0.5-0.9-0.8S72,16,72,15.6
		c0-0.4,0.1-0.7,0.3-1s0.4-0.6,0.7-0.8c0.2-0.2,0.5-0.3,0.9-0.4s0.8-0.2,1.2-0.2c0.7,0,1.2,0.1,1.7,0.3s0.9,0.4,1.1,0.8
		s0.4,0.7,0.5,1.3L77,15.7c-0.1-0.4-0.2-0.8-0.5-1s-0.7-0.4-1.3-0.4c-0.6,0-1.1,0.1-1.4,0.3s-0.4,0.5-0.4,0.8c0,0.2,0.1,0.3,0.2,0.5
		c0.1,0.2,0.3,0.3,0.5,0.4c0.1,0.1,0.6,0.2,1.2,0.4c1,0.3,1.7,0.5,2.1,0.7s0.7,0.4,0.9,0.7s0.3,0.7,0.3,1.2c0,0.5-0.1,0.9-0.4,1.3
		s-0.7,0.7-1.2,1s-1.1,0.3-1.8,0.3c-1.1,0-1.9-0.2-2.5-0.7S71.9,20.1,71.8,19.2z"/>
	<path id="XMLID_1436_" class="st1" d="M86,19l1.5,0.2c-0.2,0.8-0.7,1.5-1.3,2s-1.4,0.7-2.4,0.7c-1.2,0-2.2-0.4-2.9-1.1
		s-1.1-1.8-1.1-3.1c0-1.4,0.4-2.5,1.1-3.3s1.7-1.2,2.8-1.2c1.1,0,2,0.4,2.7,1.1s1.1,1.8,1.1,3.2c0,0.1,0,0.2,0,0.4h-6.2
		c0.1,0.9,0.3,1.6,0.8,2.1s1,0.7,1.7,0.7c0.5,0,1-0.1,1.3-0.4S85.8,19.6,86,19z M81.4,16.7H86c-0.1-0.7-0.2-1.2-0.5-1.6
		c-0.4-0.5-1-0.8-1.7-0.8c-0.6,0-1.2,0.2-1.6,0.6S81.4,16,81.4,16.7z"/>
	<path id="XMLID_1439_" class="st1" d="M89.2,24.9V13.4h1.3v1.1c0.3-0.4,0.6-0.7,1-0.9s0.8-0.3,1.4-0.3c0.7,0,1.3,0.2,1.9,0.5
		s1,0.9,1.2,1.5s0.4,1.4,0.4,2.2c0,0.8-0.2,1.6-0.5,2.3s-0.7,1.2-1.3,1.6s-1.2,0.5-1.8,0.5c-0.5,0-0.9-0.1-1.3-0.3s-0.7-0.4-0.9-0.8
		v4H89.2z M90.5,17.6c0,1.1,0.2,1.9,0.6,2.4s1,0.8,1.6,0.8c0.6,0,1.2-0.3,1.6-0.8s0.7-1.3,0.7-2.5c0-1.1-0.2-1.8-0.7-2.4
		s-1-0.8-1.6-0.8c-0.6,0-1.1,0.3-1.6,0.8S90.5,16.5,90.5,17.6z"/>
	<path id="XMLID_1442_" class="st1" d="M98.1,21.7V10.2h1.4v4.1c0.7-0.8,1.5-1.1,2.5-1.1c0.6,0,1.1,0.1,1.6,0.4s0.8,0.6,1,1
		s0.3,1,0.3,1.9v5.3h-1.4v-5.3c0-0.7-0.2-1.2-0.5-1.5s-0.7-0.5-1.3-0.5c-0.4,0-0.8,0.1-1.2,0.3s-0.6,0.5-0.8,0.9s-0.2,0.9-0.2,1.5
		v4.5H98.1z"/>
	<path id="XMLID_1444_" class="st1" d="M111.6,21.7V10.2h2.3l2.7,8.1c0.3,0.8,0.4,1.3,0.5,1.7c0.1-0.4,0.3-1,0.6-1.8l2.7-8h2v11.5
		h-1.5v-9.6l-3.3,9.6h-1.4l-3.3-9.8v9.8H111.6z"/>
	<path id="XMLID_1446_" class="st1" d="M125.2,21.7v-1.6h1.6v1.6H125.2z"/>
	<path id="XMLID_1448_" class="st1" d="M133.1,18.4l1.4-0.2c0,0.9,0.2,1.5,0.5,1.8s0.7,0.5,1.2,0.5c0.4,0,0.7-0.1,1-0.3
		s0.5-0.4,0.6-0.7s0.2-0.8,0.2-1.4v-7.9h1.5V18c0,1-0.1,1.7-0.3,2.2s-0.6,0.9-1.1,1.2s-1.1,0.4-1.8,0.4c-1,0-1.8-0.3-2.3-0.9
		S133.1,19.6,133.1,18.4z"/>
	<path id="XMLID_1450_" class="st1" d="M147.1,21.7v-1.2c-0.6,0.9-1.5,1.4-2.6,1.4c-0.5,0-0.9-0.1-1.4-0.3s-0.7-0.4-0.9-0.7
		s-0.4-0.6-0.4-1c-0.1-0.3-0.1-0.7-0.1-1.3v-5.1h1.4V18c0,0.7,0,1.2,0.1,1.5c0.1,0.4,0.3,0.7,0.6,0.9s0.6,0.3,1.1,0.3
		s0.8-0.1,1.2-0.3s0.6-0.5,0.8-0.9s0.2-0.9,0.2-1.6v-4.4h1.4v8.3H147.1z"/>
	<path id="XMLID_1452_" class="st1" d="M150.6,21.7v-8.3h1.3v1.3c0.3-0.6,0.6-1,0.9-1.2s0.6-0.3,0.9-0.3c0.5,0,1,0.2,1.4,0.5
		l-0.5,1.3c-0.3-0.2-0.7-0.3-1-0.3c-0.3,0-0.6,0.1-0.8,0.3s-0.4,0.4-0.5,0.8c-0.2,0.5-0.2,1-0.2,1.6v4.3H150.6z"/>
	<path id="XMLID_1454_" class="st1" d="M161.3,20.7c-0.5,0.4-1,0.8-1.5,0.9s-1,0.3-1.6,0.3c-0.9,0-1.6-0.2-2.1-0.7s-0.7-1-0.7-1.7
		c0-0.4,0.1-0.8,0.3-1.1s0.4-0.6,0.7-0.8s0.6-0.4,1-0.5c0.3-0.1,0.7-0.1,1.3-0.2c1.1-0.1,2-0.3,2.5-0.5c0-0.2,0-0.3,0-0.4
		c0-0.6-0.1-1-0.4-1.2c-0.4-0.3-0.9-0.5-1.6-0.5c-0.7,0-1.1,0.1-1.5,0.3s-0.5,0.6-0.7,1.2l-1.4-0.2c0.1-0.6,0.3-1.1,0.6-1.4
		s0.7-0.6,1.2-0.8s1.2-0.3,1.9-0.3c0.7,0,1.3,0.1,1.7,0.3s0.8,0.4,1,0.6s0.4,0.6,0.4,1c0,0.2,0.1,0.7,0.1,1.3v1.9
		c0,1.3,0,2.1,0.1,2.5s0.2,0.7,0.4,1h-1.5C161.5,21.4,161.4,21,161.3,20.7z M161.2,17.5c-0.5,0.2-1.3,0.4-2.3,0.5
		c-0.6,0.1-1,0.2-1.2,0.3s-0.4,0.3-0.6,0.5s-0.2,0.4-0.2,0.7c0,0.4,0.1,0.7,0.4,0.9s0.7,0.4,1.2,0.4c0.5,0,1-0.1,1.4-0.4
		s0.7-0.6,0.9-1c0.2-0.3,0.2-0.8,0.2-1.4V17.5z"/>
	<path id="XMLID_1457_" class="st1" d="M164.8,21.7v-8.3h1.3v1.2c0.6-0.9,1.5-1.4,2.6-1.4c0.5,0,1,0.1,1.4,0.3s0.7,0.4,0.9,0.7
		s0.4,0.6,0.4,1c0.1,0.3,0.1,0.7,0.1,1.4v5.1h-1.4v-5c0-0.6-0.1-1-0.2-1.3s-0.3-0.5-0.6-0.7s-0.6-0.3-1-0.3c-0.6,0-1.1,0.2-1.6,0.6
		s-0.7,1.1-0.7,2.2v4.5H164.8z"/>
</g>
</svg>
