<?xml version="1.0" encoding="utf-8"?>
<!-- Generator: Adobe Illustrator 19.0.0, SVG Export Plug-In . SVG Version: 6.00 Build 0)  -->
<svg version="1.1" id="Capa_1" xmlns="http://www.w3.org/2000/svg" xmlns:xlink="http://www.w3.org/1999/xlink" x="0px" y="0px"
	 viewBox="0 0 379.8 203.4" style="enable-background:new 0 0 379.8 203.4;" xml:space="preserve">
<style type="text/css">
	.st0{fill:#F78B36;}
</style>
<g id="XMLID_7696_">
	<g id="XMLID_10816_">
		<polygon id="XMLID_10818_" class="st0" points="80.5,0 80.5,13.1 65.5,6.6 		"/>
		<polygon id="XMLID_10817_" class="st0" points="299.3,203.4 299.3,190.3 314.2,196.8 		"/>
	</g>
	<g id="XMLID_7726_">
		<path id="XMLID_7728_" class="st0" d="M28.2,196h5.2v2.6h-5.2V196z M38.6,196h5.2v2.6h-5.2V196z M49.1,196h5.2v2.6h-5.2V196z
			 M59.5,196h5.2v2.6h-5.2V196z M69.9,196h5.2v2.6h-5.2V196z M80.3,196h5.2v2.6h-5.2V196z M90.7,196h5.2v2.6h-5.2V196z M101.1,196
			h5.2v2.6h-5.2V196z M111.5,196h5.2v2.6h-5.2V196z M121.9,196h5.2v2.6h-5.2V196z M132.3,196h5.2v2.6h-5.2V196z M142.7,196h5.2v2.6
			h-5.2V196z M153.1,196h5.2v2.6h-5.2V196z M163.5,196h5.2v2.6h-5.2V196z M173.9,196h5.2v2.6h-5.2V196z M184.3,196h5.2v2.6h-5.2V196
			z M194.7,196h5.2v2.6h-5.2V196z M205.1,196h5.2v2.6h-5.2V196z M215.5,196h5.2v2.6h-5.2V196z M225.9,196h5.2v2.6h-5.2V196z
			 M236.3,196h5.2v2.6h-5.2V196z M246.8,196h5.2v2.6h-5.2V196z M257.2,196h5.2v2.6h-5.2V196z M267.6,196h5.2v2.6h-5.2V196z M278,196
			h5.2v2.6H278V196z M288.4,196h5.2v2.6h-5.2V196z M298.8,196h5.2v2.6h-5.2V196z M309.2,196h5.2v2.6h-5.2V196z M319.6,196h5.2v2.6
			h-5.2V196z M330,196h5.2v2.6H330V196z M340.4,196h5.2v2.6h-5.2V196z M350.8,196h1.9c1,0,2.1-0.1,3.1-0.2l0.3,2.6
			c-1.1,0.1-2.3,0.2-3.4,0.2h-1.9V196z M17.6,196.9l0.9-2.4c1.5,0.6,3.1,1,4.8,1.3l-0.4,2.6C21.1,198,19.3,197.6,17.6,196.9z
			 M360.6,194.7c1.5-0.5,3.1-1.2,4.5-2.1l1.3,2.2c-1.6,0.9-3.2,1.7-5,2.3L360.6,194.7z M8.4,191.1l1.8-1.9c1.2,1.1,2.5,2.2,3.9,3
			l-1.4,2.2C11.2,193.5,9.7,192.4,8.4,191.1z M369.1,189.7c1.2-1.1,2.3-2.3,3.3-3.7l2.1,1.5c-1.1,1.5-2.3,2.8-3.7,4L369.1,189.7z
			 M2.2,182.2l2.4-1c0.6,1.5,1.5,3,2.4,4.3L4.8,187C3.8,185.5,2.9,183.9,2.2,182.2z M374.9,181.8c0.7-1.5,1.2-3.1,1.6-4.7l2.5,0.6
			c-0.4,1.8-1,3.5-1.8,5.2L374.9,181.8z M0,171.6v-0.1l2.6,0.1c0,1.6,0.2,3.3,0.5,4.9L0.6,177C0.2,175.3,0,173.4,0,171.6z
			 M377.2,172.3c0-0.2,0-0.5,0-0.7v-4.5h2.6v4.5c0,0.3,0,0.5,0,0.8L377.2,172.3z M0,161.1h2.6v5.2H0L0,161.1z M377.2,156.7h2.6v5.2
			h-2.6V156.7z M0,150.7h2.6v5.2H0L0,150.7z M377.2,146.3h2.6v5.2h-2.6V146.3z M0,140.3h2.6v5.2H0L0,140.3z M377.2,135.9h2.6v5.2
			h-2.6V135.9z M0,129.9h2.6v5.2H0L0,129.9z M377.2,125.5h2.6v5.2h-2.6V125.5z M0,119.5h2.6v5.2H0L0,119.5z M377.2,115.1h2.6v5.2
			h-2.6V115.1z M0,109.1h2.6v5.2H0L0,109.1z M377.2,104.7h2.6v5.2h-2.6V104.7z M0,98.7h2.6v5.2H0L0,98.7z M377.2,94.3h2.6v5.2h-2.6
			V94.3z M0,88.3h2.6v5.2H0L0,88.3z M377.2,83.9h2.6v5.2h-2.6V83.9z M0,77.9h2.6v5.2H0L0,77.9z M377.2,73.5h2.6v5.2h-2.6V73.5z
			 M0,67.5h2.6v5.2H0L0,67.5z M377.2,63.1h2.6v5.2h-2.6V63.1z M0,57h2.6v5.2H0L0,57z M377.2,52.7h2.6v5.2h-2.6V52.7z M0,46.6h2.6
			v5.2H0L0,46.6z M377.2,42.3h2.6v5.2h-2.6V42.3z M0,36.2h2.6v5.2H0L0,36.2z M377.2,31.9h2.6v5.2h-2.6V31.9z M0,31
			c0.1-1.8,0.3-3.6,0.7-5.4l2.5,0.6c-0.4,1.6-0.6,3.2-0.6,4.9L0,31z M375.2,22.3l2.4-1c0.7,1.7,1.3,3.4,1.6,5.2l-2.5,0.5
			C376.4,25.3,375.9,23.8,375.2,22.3z M2.5,20.4c0.8-1.6,1.7-3.2,2.8-4.7l2.1,1.5c-1,1.3-1.8,2.7-2.5,4.2L2.5,20.4z M369.6,14.2
			l1.8-1.9c1.3,1.3,2.5,2.7,3.5,4.1l-2.1,1.5C371.9,16.6,370.8,15.3,369.6,14.2z M9,11.7c1.4-1.2,2.8-2.3,4.4-3.2l1.3,2.2
			c-1.4,0.8-2.8,1.8-4,2.9L9,11.7z M361.3,8.9l0.9-2.4c1.7,0.6,3.3,1.5,4.9,2.4l-1.4,2.2C364.3,10.3,362.9,9.5,361.3,8.9z M18.3,6.2
			c1.7-0.6,3.5-1,5.3-1.2L24,7.6c-1.6,0.2-3.2,0.6-4.8,1.1L18.3,6.2z M352.7,7.4h-1.2V4.8h1.2c1.4,0,2.8,0.1,4.2,0.3l-0.4,2.6
			C355.3,7.5,354,7.4,352.7,7.4z M29,4.8h5.2v2.6H29V4.8z M39.4,4.8h5.2v2.6h-5.2V4.8z M49.8,4.8H55v2.6h-5.2V4.8z M60.2,4.8h5.2
			v2.6h-5.2V4.8z M70.6,4.8h5.2v2.6h-5.2V4.8z M81,4.8h5.2v2.6H81V4.8z M91.4,4.8h5.2v2.6h-5.2V4.8z M101.9,4.8h5.2v2.6h-5.2V4.8z
			 M112.3,4.8h5.2v2.6h-5.2V4.8z M122.7,4.8h5.2v2.6h-5.2V4.8z M133.1,4.8h5.2v2.6h-5.2V4.8z M143.5,4.8h5.2v2.6h-5.2V4.8z
			 M153.9,4.8h5.2v2.6h-5.2V4.8z M164.3,4.8h5.2v2.6h-5.2V4.8z M174.7,4.8h5.2v2.6h-5.2V4.8z M185.1,4.8h5.2v2.6h-5.2V4.8z
			 M195.5,4.8h5.2v2.6h-5.2V4.8z M205.9,4.8h5.2v2.6h-5.2V4.8z M216.3,4.8h5.2v2.6h-5.2V4.8z M226.7,4.8h5.2v2.6h-5.2V4.8z
			 M237.1,4.8h5.2v2.6h-5.2V4.8z M247.5,4.8h5.2v2.6h-5.2V4.8z M257.9,4.8h5.2v2.6h-5.2V4.8z M268.3,4.8h5.2v2.6h-5.2V4.8z
			 M278.7,4.8h5.2v2.6h-5.2V4.8z M289.1,4.8h5.2v2.6h-5.2V4.8z M299.6,4.8h5.2v2.6h-5.2V4.8z M310,4.8h5.2v2.6H310V4.8z M320.4,4.8
			h5.2v2.6h-5.2V4.8z M330.8,4.8h5.2v2.6h-5.2V4.8z M341.2,4.8h5.2v2.6h-5.2V4.8z"/>
	</g>
</g>
</svg>
