<?xml version="1.0" encoding="utf-8"?>
<!-- Generator: Adobe Illustrator 19.0.0, SVG Export Plug-In . SVG Version: 6.00 Build 0)  -->
<svg version="1.1" id="Capa_1" xmlns="http://www.w3.org/2000/svg" xmlns:xlink="http://www.w3.org/1999/xlink" x="0px" y="0px"
	 viewBox="0 0 207.6 70.6" style="enable-background:new 0 0 207.6 70.6;" xml:space="preserve">
<style type="text/css">
	.st0{fill:#51564D;}
	.st1{fill:#F7EBCB;}
	.st2{fill:#31A6AE;}
</style>
<g id="XMLID_19_">
	<g id="XMLID_10909_">
		<polygon id="XMLID_10753_" class="st0" points="50.2,0 50.2,6.9 50.2,19.3 4,19.3 0,19.3 0,23.3 0,47.3 0,51.3 4,51.3 50.2,51.3 
			50.2,63.7 50.2,70.6 56.2,67.2 105.4,38.8 111.4,35.3 105.4,31.9 56.2,3.5 50.2,0 		"/>
		<polygon id="XMLID_10752_" class="st1" points="54.2,63.7 54.2,47.3 4,47.3 4,23.3 54.2,23.3 54.2,6.9 103.4,35.3 		"/>
		<polygon id="XMLID_10751_" class="st2" points="8,43.3 58.2,43.3 58.2,56.8 95.4,35.3 58.2,13.9 58.2,27.3 8,27.3 		"/>
	</g>
	<g id="XMLID_1_">
		<path id="XMLID_2_" class="st2" d="M121.5,36.7l2.8-0.3c0.2,0.9,0.5,1.6,1,2.1s1.2,0.7,2.1,0.7c0.9,0,1.6-0.2,2.1-0.6
			c0.5-0.4,0.7-0.9,0.7-1.4c0-0.3-0.1-0.6-0.3-0.9c-0.2-0.2-0.5-0.4-1-0.6c-0.3-0.1-1.1-0.3-2.3-0.6c-1.5-0.4-2.6-0.9-3.3-1.4
			c-0.9-0.8-1.3-1.7-1.3-2.9c0-0.7,0.2-1.4,0.6-2c0.4-0.6,1-1.1,1.8-1.5c0.8-0.3,1.7-0.5,2.8-0.5c1.8,0,3.2,0.4,4.1,1.2
			s1.4,1.8,1.4,3.2l-2.9,0.1c-0.1-0.7-0.4-1.3-0.8-1.6c-0.4-0.3-1-0.5-1.8-0.5c-0.8,0-1.5,0.2-2,0.5c-0.3,0.2-0.5,0.5-0.5,0.9
			c0,0.3,0.1,0.6,0.4,0.9c0.4,0.3,1.3,0.6,2.7,1c1.4,0.3,2.4,0.7,3.1,1s1.2,0.8,1.6,1.5s0.6,1.4,0.6,2.3c0,0.8-0.2,1.6-0.7,2.3
			c-0.5,0.7-1.1,1.2-1.9,1.6c-0.8,0.3-1.9,0.5-3.1,0.5c-1.8,0-3.2-0.4-4.2-1.3C122.3,39.6,121.7,38.3,121.5,36.7z"/>
		<path id="XMLID_4_" class="st2" d="M148.5,41.4h-3.1l-1.3-3.3h-5.7l-1.2,3.3h-3.1l5.6-14.3h3.1L148.5,41.4z M143.2,35.7l-2-5.3
			l-1.9,5.3H143.2z"/>
		<path id="XMLID_7_" class="st2" d="M150.1,41.4V27.2h2.9V39h7.2v2.4H150.1z"/>
		<path id="XMLID_9_" class="st2" d="M162.2,41.4V27.1h2.9v14.3H162.2z"/>
		<path id="XMLID_11_" class="st2" d="M167.8,27.1h5.3c1.2,0,2.1,0.1,2.7,0.3c0.8,0.2,1.6,0.7,2.2,1.3c0.6,0.6,1.1,1.4,1.4,2.3
			s0.5,2,0.5,3.4c0,1.2-0.1,2.2-0.4,3c-0.4,1-0.9,1.9-1.5,2.5c-0.5,0.5-1.2,0.9-2,1.1c-0.6,0.2-1.5,0.3-2.6,0.3h-5.4V27.1z
			 M170.7,29.5V39h2.2c0.8,0,1.4,0,1.7-0.1c0.5-0.1,0.9-0.3,1.2-0.6c0.3-0.3,0.6-0.7,0.8-1.4s0.3-1.5,0.3-2.6s-0.1-2-0.3-2.5
			s-0.5-1.1-0.8-1.4s-0.8-0.6-1.3-0.7c-0.4-0.1-1.2-0.1-2.4-0.1H170.7z"/>
		<path id="XMLID_14_" class="st2" d="M195.2,41.4H192l-1.3-3.3h-5.7l-1.2,3.3h-3.1l5.6-14.3h3.1L195.2,41.4z M189.9,35.7l-2-5.3
			l-1.9,5.3H189.9z"/>
		<path id="XMLID_17_" class="st2" d="M196,36.7l2.8-0.3c0.2,0.9,0.5,1.6,1,2.1s1.2,0.7,2.1,0.7c0.9,0,1.6-0.2,2.1-0.6
			c0.5-0.4,0.7-0.9,0.7-1.4c0-0.3-0.1-0.6-0.3-0.9c-0.2-0.2-0.5-0.4-1-0.6c-0.3-0.1-1.1-0.3-2.3-0.6c-1.5-0.4-2.6-0.9-3.3-1.4
			c-0.9-0.8-1.3-1.7-1.3-2.9c0-0.7,0.2-1.4,0.6-2c0.4-0.6,1-1.1,1.8-1.5c0.8-0.3,1.7-0.5,2.8-0.5c1.8,0,3.2,0.4,4.1,1.2
			s1.4,1.8,1.4,3.2l-2.9,0.1c-0.1-0.7-0.4-1.3-0.8-1.6c-0.4-0.3-1-0.5-1.8-0.5c-0.8,0-1.5,0.2-2,0.5c-0.3,0.2-0.5,0.5-0.5,0.9
			c0,0.3,0.1,0.6,0.4,0.9c0.4,0.3,1.3,0.6,2.7,1s2.4,0.7,3.1,1s1.2,0.8,1.6,1.5s0.6,1.4,0.6,2.3c0,0.8-0.2,1.6-0.7,2.3
			c-0.5,0.7-1.1,1.2-1.9,1.6c-0.8,0.3-1.9,0.5-3.1,0.5c-1.8,0-3.2-0.4-4.2-1.3C196.7,39.6,196.2,38.3,196,36.7z"/>
	</g>
</g>
</svg>
