<?xml version="1.0" encoding="utf-8"?>
<!-- Generator: Adobe Illustrator 19.0.0, SVG Export Plug-In . SVG Version: 6.00 Build 0)  -->
<svg version="1.1" id="Capa_1" xmlns="http://www.w3.org/2000/svg" xmlns:xlink="http://www.w3.org/1999/xlink" x="0px" y="0px"
	 viewBox="-180 385.3 233.7 70.6" style="enable-background:new -180 385.3 233.7 70.6;" xml:space="preserve">
<style type="text/css">
	.st0{fill:#F7974A;}
	.st1{fill:#F7EBCB;}
</style>
<g id="XMLID_22_">
	<g id="XMLID_10908_">
		<polygon id="XMLID_10624_" class="st0" points="-10.3,387.1 -10.3,393.6 -10.3,405.4 -54.2,405.4 -58,405.4 -58,409.2 -58,432 
			-58,435.8 -54.2,435.8 -10.3,435.8 -10.3,447.6 -10.3,454.1 -4.6,450.9 42.2,423.9 47.9,420.6 42.2,417.4 -4.6,390.4 		"/>
		<polygon id="XMLID_10626_" class="st1" points="-6.5,447.6 -6.5,432 -54.2,432 -54.2,409.2 -6.5,409.2 -6.5,393.6 40.3,420.6 		
			"/>
		<polygon id="XMLID_10623_" class="st0" points="-50.4,428.2 -2.7,428.2 -2.7,441 32.7,420.6 -2.7,400.3 -2.7,413 -50.4,413 		"/>
	</g>
	<g id="XMLID_1_">
		<path id="XMLID_2_" class="st0" d="M-174.2,426.4v-13.6h10.1v2.3h-7.3v3h6.8v2.3h-6.8v3.7h7.6v2.3H-174.2z"/>
		<path id="XMLID_4_" class="st0" d="M-161.4,426.4v-13.6h2.7l5.6,9.1v-9.1h2.6v13.6h-2.8l-5.5-8.8v8.8H-161.4z"/>
		<path id="XMLID_6_" class="st0" d="M-144.7,426.4v-11.3h-4v-2.3h10.8v2.3h-4v11.3H-144.7z"/>
		<path id="XMLID_8_" class="st0" d="M-136.2,426.4v-13.6h5.8c1.4,0,2.5,0.1,3.1,0.4c0.7,0.3,1.1,0.7,1.6,1.3s0.6,1.3,0.6,2.2
			c0,1-0.3,1.9-0.9,2.6c-0.6,0.7-1.5,1-2.7,1.2c0.6,0.4,1,0.8,1.4,1.1c0.4,0.4,1,1.1,1.5,2.2l1.6,2.7h-3.3l-2-2.9
			c-0.7-1-1.2-1.7-1.4-2s-0.6-0.5-0.9-0.6s-0.8-0.2-1.4-0.2h-0.6v5.7L-136.2,426.4L-136.2,426.4z M-133.4,418.5h2
			c1.3,0,2.2-0.1,2.5-0.2s0.6-0.3,0.8-0.6c0.2-0.3,0.3-0.6,0.3-1s-0.1-0.9-0.4-1.1c-0.3-0.3-0.6-0.5-1-0.6c-0.2,0-0.9,0-2,0h-2.2
			L-133.4,418.5L-133.4,418.5z"/>
		<path id="XMLID_11_" class="st0" d="M-110.1,426.4h-2.9l-1.2-3.1h-5.4l-1.1,3.1h-2.9l5.3-13.6h2.9L-110.1,426.4z M-115.3,421
			l-1.9-5l-1.8,5H-115.3z"/>
		<path id="XMLID_14_" class="st0" d="M-108.7,412.8h5c1.1,0,2,0.1,2.6,0.3c0.8,0.2,1.5,0.7,2.1,1.2c0.6,0.6,1,1.3,1.3,2.2
			s0.5,1.9,0.5,3.2c0,1.1-0.1,2.1-0.4,2.8c-0.4,1-0.9,1.8-1.4,2.4c-0.5,0.5-1.1,0.9-1.9,1c-0.6,0.2-1.4,0.3-2.5,0.3h-5.1v-13.5
			H-108.7z M-105.9,415.1v9h2.1c0.8,0,1.3,0,1.6-0.1c0.5-0.1,0.9-0.3,1.1-0.6s0.6-0.7,0.8-1.3c0.2-0.7,0.3-1.4,0.3-2.5
			c0-1-0.1-1.9-0.3-2.4c-0.2-0.5-0.5-1-0.8-1.3c-0.3-0.3-0.8-0.6-1.2-0.7c-0.4-0.1-1.1-0.1-2.3-0.1L-105.9,415.1L-105.9,415.1z"/>
		<path id="XMLID_17_" class="st0" d="M-82.8,426.4h-2.9l-1.2-3.1h-5.4l-1.1,3.1h-2.9l5.3-13.6h2.9L-82.8,426.4z M-87.8,421l-1.9-5
			l-1.8,5H-87.8z"/>
		<path id="XMLID_20_" class="st0" d="M-82,421.9l2.7-0.3c0.2,0.9,0.5,1.5,0.9,2s1.1,0.7,2,0.7c0.9,0,1.5-0.2,2-0.6s0.7-0.9,0.7-1.3
			c0-0.3-0.1-0.6-0.3-0.9c-0.2-0.3-0.5-0.4-1-0.6c-0.3-0.1-1-0.3-2.2-0.6c-1.4-0.4-2.5-0.9-3.1-1.3c-0.9-0.8-1.2-1.6-1.2-2.8
			c0-0.7,0.2-1.3,0.6-1.9c0.4-0.6,1-1,1.7-1.4c0.8-0.4,1.6-0.5,2.7-0.5c1.7,0,2.9,0.4,3.9,1.1c0.9,0.8,1.3,1.7,1.3,3l-2.8,0.1
			c-0.1-0.7-0.4-1.2-0.8-1.5c-0.4-0.3-0.9-0.5-1.7-0.5c-0.8,0-1.4,0.2-1.9,0.5c-0.3,0.2-0.5,0.5-0.5,0.9c0,0.3,0.1,0.6,0.4,0.9
			c0.4,0.3,1.2,0.6,2.6,1c1.3,0.4,2.3,0.7,2.9,0.9c0.7,0.3,1.1,0.8,1.5,1.4c0.4,0.7,0.6,1.3,0.6,2.2c0,0.8-0.2,1.5-0.7,2.2
			c-0.5,0.7-1,1.1-1.8,1.5s-1.8,0.5-2.9,0.5c-1.7,0-3-0.4-4-1.2C-81.3,424.6-81.8,423.4-82,421.9z"/>
	</g>
</g>
</svg>
