<?xml version="1.0" encoding="utf-8"?>
<!-- Generator: Adobe Illustrator 19.0.0, SVG Export Plug-In . SVG Version: 6.00 Build 0)  -->
<svg version="1.1" id="Capa_1" xmlns="http://www.w3.org/2000/svg" xmlns:xlink="http://www.w3.org/1999/xlink" x="0px" y="0px"
	 viewBox="-235 352.7 123.6 136.2" style="enable-background:new -235 352.7 123.6 136.2;" xml:space="preserve">
<style type="text/css">
	.st0{fill:#F76881;}
	.st1{fill:#F7EBCB;}
</style>
<g id="XMLID_23_">
	<g id="XMLID_10851_">
		<polygon id="XMLID_10825_" class="st0" points="-139.3,427.3 -145.8,427.3 -157.6,427.3 -157.6,383.5 -157.6,379.7 -161.4,379.7 
			-184.2,379.7 -188,379.7 -188,383.5 -188,427.3 -199.8,427.3 -206.4,427.3 -203.1,433 -176.1,479.8 -172.8,485.5 -169.6,479.8 
			-142.6,433 		"/>
		<polygon id="XMLID_10824_" class="st1" points="-199.8,431.1 -184.2,431.1 -184.2,383.5 -161.4,383.5 -161.4,431.1 -145.8,431.1 
			-172.8,477.9 		"/>
		<polygon id="XMLID_10823_" class="st0" points="-180.4,387.3 -180.4,434.9 -193.2,434.9 -172.8,470.3 -152.5,434.9 -165.2,434.9 
			-165.2,387.3 		"/>
	</g>
	<g id="XMLID_1_">
		<path id="XMLID_2_" class="st0" d="M-222.7,364.9l2.7,0.9c-0.4,1.5-1,2.6-2,3.3c-1,0.8-2.2,1-3.6,1c-1.8,0-3.3-0.6-4.5-1.8
			c-1.1-1.2-1.8-2.9-1.8-5.1c0-2.3,0.6-4,1.7-5.2c1.1-1.2,2.7-1.9,4.7-1.9c1.7,0,3,0.5,4.1,1.5c0.7,0.6,1,1.4,1.4,2.5l-2.8,0.7
			c-0.2-0.8-0.6-1.3-1-1.7c-0.5-0.4-1.1-0.6-1.9-0.6c-0.9,0-1.8,0.4-2.4,1c-0.6,0.7-0.9,1.9-0.9,3.5c0,1.7,0.3,2.9,0.9,3.7
			c0.7,0.8,1.4,1.1,2.4,1.1c0.8,0,1.3-0.2,1.9-0.7C-223.3,366.7-223,365.9-222.7,364.9z"/>
		<path id="XMLID_4_" class="st0" d="M-218.2,363.2c0-1.4,0.2-2.6,0.7-3.5c0.3-0.7,0.8-1.3,1.2-1.9c0.5-0.6,1.1-0.9,1.8-1.2
			c0.8-0.3,1.7-0.5,2.9-0.5c2,0,3.6,0.7,4.8,1.9c1.2,1.2,1.8,2.9,1.8,5.2c0,2.2-0.6,3.9-1.8,5.1c-1.2,1.2-2.8,1.9-4.8,1.9
			c-2,0-3.6-0.6-4.8-1.8C-217.7,367.2-218.2,365.4-218.2,363.2z M-215.5,363.1c0,1.5,0.4,2.7,1,3.5c0.7,0.9,1.6,1.2,2.8,1.2
			s2-0.4,2.7-1.1c0.7-0.8,1-2,1-3.5s-0.4-2.8-1-3.5c-0.7-0.8-1.6-1.1-2.8-1.1s-2.1,0.4-2.8,1.1
			C-215.2,360.5-215.5,361.5-215.5,363.1z"/>
		<path id="XMLID_7_" class="st0" d="M-202.9,370v-13.7h2.7l5.6,9.1v-9.1h2.6v13.6h-2.8l-5.5-8.8v8.8L-202.9,370L-202.9,370z"/>
		<path id="XMLID_9_" class="st0" d="M-186.1,370v-11.3h-4v-2.4h10.8v2.3h-4v11.3L-186.1,370L-186.1,370z"/>
		<path id="XMLID_11_" class="st0" d="M-177.6,370v-13.7h5.8c1.4,0,2.5,0.1,3.1,0.4c0.7,0.3,1.1,0.7,1.6,1.3
			c0.5,0.7,0.6,1.3,0.6,2.2c0,1-0.3,1.9-0.9,2.6c-0.6,0.7-1.5,1-2.7,1.2c0.6,0.4,1,0.8,1.4,1.1s0.9,1.1,1.5,2.2l1.6,2.7h-3.3l-2-2.9
			c-0.7-1-1.2-1.7-1.4-2s-0.6-0.5-0.9-0.6c-0.3-0.1-0.8-0.2-1.4-0.2h-0.6v5.7C-175,370-177.6,370-177.6,370z M-174.8,362.1h2
			c1.3,0,2.2-0.1,2.5-0.2c0.3-0.1,0.6-0.3,0.8-0.6s0.3-0.6,0.3-1c0-0.5-0.1-0.9-0.4-1.1c-0.3-0.3-0.6-0.5-1-0.6c-0.2,0-0.9,0-2,0
			h-2.2L-174.8,362.1L-174.8,362.1z"/>
		<path id="XMLID_14_" class="st0" d="M-164.5,363.2c0-1.4,0.2-2.6,0.7-3.5c0.3-0.7,0.8-1.3,1.2-1.9c0.6-0.6,1.1-0.9,1.8-1.2
			c0.9-0.3,1.8-0.5,2.9-0.5c2,0,3.6,0.7,4.8,1.9c1.2,1.2,1.8,2.9,1.8,5.2c0,2.2-0.6,3.9-1.8,5.1c-1.2,1.2-2.8,1.9-4.8,1.9
			c-2,0-3.6-0.6-4.8-1.8C-163.8,367.1-164.5,365.4-164.5,363.2z M-161.6,363.1c0,1.5,0.4,2.7,1,3.5c0.7,0.8,1.6,1.2,2.8,1.2
			c1.1,0,2-0.4,2.7-1.1c0.7-0.8,1-2,1-3.5s-0.4-2.8-1-3.5c-0.7-0.8-1.6-1.1-2.8-1.1c-1.1,0-2.1,0.4-2.8,1.1
			C-161.2,360.4-161.6,361.5-161.6,363.1z"/>
		<path id="XMLID_17_" class="st0" d="M-149.1,370v-13.5h2.8v11.2h6.8v2.3H-149.1z"/>
		<path id="XMLID_19_" class="st0" d="M-137.5,370v-13.7h10.1v2.3h-7.3v3h6.8v2.3h-6.8v3.7h7.6v2.3L-137.5,370L-137.5,370z"/>
		<path id="XMLID_21_" class="st0" d="M-125.5,365.5l2.7-0.3c0.2,0.9,0.5,1.5,0.9,2c0.5,0.5,1.1,0.7,2,0.7c0.9,0,1.5-0.2,2-0.6
			s0.7-0.9,0.7-1.3c0-0.3-0.1-0.6-0.3-0.9c-0.2-0.2-0.5-0.4-0.9-0.6c-0.3-0.1-1-0.3-2.2-0.6c-1.5-0.4-2.5-0.9-3.1-1.3
			c-0.9-0.8-1.2-1.6-1.2-2.8c0-0.7,0.2-1.3,0.6-1.9c0.4-0.6,0.9-1,1.7-1.4c0.8-0.3,1.6-0.5,2.7-0.5c1.7,0,2.9,0.4,3.9,1.1
			c0.9,0.8,1.3,1.7,1.3,3l-2.8,0.1c-0.1-0.7-0.4-1.2-0.8-1.5c-0.4-0.3-1-0.5-1.7-0.5s-1.4,0.2-1.9,0.5c-0.3,0.2-0.5,0.5-0.5,0.9
			c0,0.3,0.1,0.6,0.4,0.9c0.4,0.3,1.2,0.6,2.6,1s2.3,0.7,2.9,0.9s1.1,0.8,1.5,1.4c0.4,0.7,0.6,1.3,0.6,2.2c0,0.8-0.2,1.5-0.7,2.2
			c-0.5,0.7-1,1.1-1.8,1.5c-0.8,0.3-1.8,0.5-2.9,0.5c-1.7,0-3-0.4-4-1.2C-124.7,368.2-125.3,367-125.5,365.5z"/>
	</g>
</g>
</svg>
