<?xml version="1.0" encoding="utf-8"?>
<!-- Generator: Adobe Illustrator 19.0.0, SVG Export Plug-In . SVG Version: 6.00 Build 0)  -->
<svg version="1.1" id="Capa_1" xmlns="http://www.w3.org/2000/svg" xmlns:xlink="http://www.w3.org/1999/xlink" x="0px" y="0px"
	 viewBox="0 0 183.7 57.9" style="enable-background:new 0 0 183.7 57.9;" xml:space="preserve">
<style type="text/css">
	.st0{fill:#F7EBCB;}
	.st1{fill:#51564D;}
</style>
<g id="XMLID_12_">
	<g id="XMLID_10911_">
		<path id="XMLID_18_" class="st0" d="M12,55.9c-5.5,0-10-4.5-10-10V12C2,6.5,6.5,2,12,2h159.7c5.5,0,10,4.5,10,10v33.9
			c0,5.5-4.5,10-10,10H12z"/>
		<path id="XMLID_14_" class="st1" d="M171.7,4c4.4,0,8,3.6,8,8v33.9c0,4.4-3.6,8-8,8H12c-4.4,0-8-3.6-8-8V12c0-4.4,3.6-8,8-8H171.7
			 M171.7,0H12C5.4,0,0,5.4,0,12v33.9c0,6.6,5.4,12,12,12h159.7c6.6,0,12-5.4,12-12V12C183.7,5.4,178.3,0,171.7,0L171.7,0z"/>
	</g>
	<g id="XMLID_1_">
		<g id="XMLID_177_">
			<path id="XMLID_195_" class="st1" d="M35.8,36.9V22.6h4.6c1.8,0,2.9,0.1,3.4,0.2c0.8,0.2,1.5,0.7,2.1,1.4s0.8,1.6,0.8,2.8
				c0,0.9-0.2,1.6-0.5,2.2s-0.7,1.1-1.2,1.4s-1,0.6-1.5,0.7c-0.7,0.1-1.7,0.2-3,0.2h-1.9v5.4H35.8z M38.7,25v4.1h1.6
				c1.1,0,1.9-0.1,2.3-0.2s0.7-0.4,0.9-0.7s0.3-0.7,0.3-1.1c0-0.5-0.2-1-0.5-1.3s-0.7-0.5-1.2-0.6c-0.3-0.1-1-0.1-2.1-0.1H38.7z"/>
			<path id="XMLID_192_" class="st1" d="M49.2,36.9V22.6h6.1c1.5,0,2.6,0.1,3.3,0.4s1.2,0.7,1.7,1.4s0.6,1.4,0.6,2.3
				c0,1.1-0.3,2-0.9,2.7s-1.6,1.1-2.8,1.3c0.6,0.4,1.1,0.8,1.5,1.2s1,1.2,1.6,2.3l1.7,2.8h-3.5l-2.1-3.1c-0.7-1.1-1.3-1.8-1.5-2.1
				s-0.6-0.5-0.9-0.6s-0.8-0.2-1.5-0.2h-0.6v6H49.2z M52.1,28.6h2.1c1.4,0,2.3-0.1,2.6-0.2s0.6-0.3,0.8-0.6s0.3-0.6,0.3-1.1
				c0-0.5-0.1-0.9-0.4-1.2s-0.6-0.5-1.1-0.6c-0.2,0-0.9,0-2.1,0h-2.3V28.6z"/>
			<path id="XMLID_189_" class="st1" d="M63,29.8c0-1.5,0.2-2.7,0.7-3.7c0.3-0.7,0.8-1.4,1.3-2s1.2-1,1.9-1.3
				c0.9-0.4,1.9-0.6,3.1-0.6c2.1,0,3.8,0.7,5.1,2s1.9,3.1,1.9,5.5c0,2.3-0.6,4.1-1.9,5.4s-2.9,2-5,2c-2.1,0-3.8-0.6-5.1-1.9
				S63,32.1,63,29.8z M66,29.7c0,1.6,0.4,2.8,1.1,3.7s1.7,1.3,2.9,1.3s2.1-0.4,2.8-1.2s1.1-2.1,1.1-3.7c0-1.6-0.4-2.9-1.1-3.7
				s-1.7-1.2-2.9-1.2s-2.2,0.4-2.9,1.2S66,28.1,66,29.7z"/>
			<path id="XMLID_187_" class="st1" d="M88.3,31.6l2.8,0.9C90.7,34.1,90,35.3,89,36s-2.3,1.1-3.8,1.1c-1.9,0-3.5-0.6-4.7-1.9
				s-1.8-3.1-1.8-5.3c0-2.4,0.6-4.2,1.8-5.6s2.8-2,4.9-2c1.8,0,3.2,0.5,4.3,1.6c0.7,0.6,1.1,1.5,1.5,2.6l-2.9,0.7
				c-0.2-0.7-0.5-1.3-1.1-1.8s-1.2-0.6-2-0.6c-1.1,0-1.9,0.4-2.6,1.1s-1,2-1,3.7c0,1.8,0.3,3.1,1,3.9s1.5,1.2,2.5,1.2
				c0.8,0,1.4-0.2,2-0.7S88.1,32.7,88.3,31.6z"/>
			<path id="XMLID_185_" class="st1" d="M93.6,36.9V22.6h10.6V25h-7.7v3.2h7.2v2.4h-7.2v3.9h8v2.4H93.6z"/>
			<path id="XMLID_183_" class="st1" d="M106.2,32.2L109,32c0.2,0.9,0.5,1.6,1,2.1s1.2,0.7,2.1,0.7c0.9,0,1.6-0.2,2.1-0.6
				s0.7-0.9,0.7-1.4c0-0.3-0.1-0.6-0.3-0.9s-0.5-0.4-1-0.6c-0.3-0.1-1.1-0.3-2.3-0.6c-1.5-0.4-2.6-0.9-3.3-1.4
				c-0.9-0.8-1.3-1.7-1.3-2.9c0-0.7,0.2-1.4,0.6-2s1-1.1,1.8-1.5s1.7-0.5,2.8-0.5c1.8,0,3.1,0.4,4.1,1.2s1.4,1.8,1.4,3.2l-2.9,0.1
				c-0.1-0.7-0.4-1.3-0.8-1.6s-1-0.5-1.8-0.5c-0.8,0-1.5,0.2-2,0.5c-0.3,0.2-0.5,0.5-0.5,0.9c0,0.3,0.1,0.6,0.4,0.9
				c0.4,0.3,1.3,0.6,2.7,1s2.4,0.7,3.1,1s1.2,0.8,1.6,1.5s0.6,1.4,0.6,2.3c0,0.8-0.2,1.6-0.7,2.3s-1.1,1.2-1.9,1.6s-1.9,0.5-3.1,0.5
				c-1.8,0-3.2-0.4-4.2-1.3S106.4,33.9,106.2,32.2z"/>
			<path id="XMLID_180_" class="st1" d="M119.7,29.8c0-1.5,0.2-2.7,0.7-3.7c0.3-0.7,0.8-1.4,1.3-2s1.2-1,1.9-1.3
				c0.9-0.4,1.9-0.6,3.1-0.6c2.1,0,3.8,0.7,5.1,2s1.9,3.1,1.9,5.5c0,2.3-0.6,4.1-1.9,5.4s-2.9,2-5,2c-2.1,0-3.8-0.6-5.1-1.9
				S119.7,32.1,119.7,29.8z M122.7,29.7c0,1.6,0.4,2.8,1.1,3.7s1.7,1.3,2.9,1.3s2.1-0.4,2.8-1.2s1.1-2.1,1.1-3.7
				c0-1.6-0.4-2.9-1.1-3.7s-1.7-1.2-2.9-1.2s-2.2,0.4-2.9,1.2S122.7,28.1,122.7,29.7z"/>
			<path id="XMLID_178_" class="st1" d="M135.1,32.2l2.8-0.3c0.2,0.9,0.5,1.6,1,2.1s1.2,0.7,2.1,0.7c0.9,0,1.6-0.2,2.1-0.6
				s0.7-0.9,0.7-1.4c0-0.3-0.1-0.6-0.3-0.9s-0.5-0.4-1-0.6c-0.3-0.1-1.1-0.3-2.3-0.6c-1.5-0.4-2.6-0.9-3.3-1.4
				c-0.9-0.8-1.3-1.7-1.3-2.9c0-0.7,0.2-1.4,0.6-2s1-1.1,1.8-1.5s1.7-0.5,2.8-0.5c1.8,0,3.1,0.4,4.1,1.2s1.4,1.8,1.4,3.2l-2.9,0.1
				c-0.1-0.7-0.4-1.3-0.8-1.6s-1-0.5-1.8-0.5c-0.8,0-1.5,0.2-2,0.5c-0.3,0.2-0.5,0.5-0.5,0.9c0,0.3,0.1,0.6,0.4,0.9
				c0.4,0.3,1.3,0.6,2.7,1s2.4,0.7,3.1,1s1.2,0.8,1.6,1.5s0.6,1.4,0.6,2.3c0,0.8-0.2,1.6-0.7,2.3s-1.1,1.2-1.9,1.6s-1.9,0.5-3.1,0.5
				c-1.8,0-3.2-0.4-4.2-1.3S135.3,33.9,135.1,32.2z"/>
		</g>
	</g>
</g>
</svg>
