<?xml version="1.0" encoding="utf-8"?>
<!-- Generator: Adobe Illustrator 19.0.0, SVG Export Plug-In . SVG Version: 6.00 Build 0)  -->
<svg version="1.1" id="Capa_1" xmlns="http://www.w3.org/2000/svg" xmlns:xlink="http://www.w3.org/1999/xlink" x="0px" y="0px"
	 viewBox="0 0 233.7 70.6" style="enable-background:new 0 0 233.7 70.6;" xml:space="preserve">
<style type="text/css">
	.st0{fill:#51564D;}
	.st1{fill:#F7EBCB;}
	.st2{fill:#F7974A;}
</style>
<g id="XMLID_22_">
	<g id="XMLID_10908_">
		<polygon id="XMLID_10624_" class="st0" points="172.5,0 172.5,6.9 172.5,19.3 126.3,19.3 122.3,19.3 122.3,23.3 122.3,47.3 
			122.3,51.3 126.3,51.3 172.5,51.3 172.5,63.7 172.5,70.6 178.5,67.2 227.7,38.8 233.7,35.3 227.7,31.9 178.5,3.5 172.5,0 		"/>
		<polygon id="XMLID_10626_" class="st1" points="176.5,63.7 176.5,47.3 126.3,47.3 126.3,23.3 176.5,23.3 176.5,6.9 225.7,35.3 		
			"/>
		<polygon id="XMLID_10623_" class="st2" points="130.3,43.3 180.5,43.3 180.5,56.8 217.7,35.3 180.5,13.9 180.5,27.3 130.3,27.3 		
			"/>
	</g>
	<g id="XMLID_1_">
		<path id="XMLID_2_" class="st2" d="M0,41.4V27.1h10.6v2.4H2.9v3.2h7.2v2.4H2.9V39h8v2.4H0z"/>
		<path id="XMLID_4_" class="st2" d="M13.4,41.4V27.1h2.8l5.9,9.6v-9.6h2.7v14.3h-2.9l-5.8-9.3v9.3H13.4z"/>
		<path id="XMLID_6_" class="st2" d="M31,41.4V29.5h-4.2v-2.4h11.4v2.4h-4.2v11.9H31z"/>
		<path id="XMLID_8_" class="st2" d="M40,41.4V27.1h6.1c1.5,0,2.6,0.1,3.3,0.4s1.2,0.7,1.7,1.4s0.6,1.4,0.6,2.3c0,1.1-0.3,2-0.9,2.7
			s-1.6,1.1-2.8,1.3c0.6,0.4,1.1,0.8,1.5,1.2s1,1.2,1.6,2.3l1.7,2.8h-3.5l-2.1-3.1c-0.7-1.1-1.3-1.8-1.5-2.1s-0.6-0.5-0.9-0.6
			s-0.8-0.2-1.5-0.2h-0.6v6H40z M42.9,33.1H45c1.4,0,2.3-0.1,2.6-0.2s0.6-0.3,0.8-0.6s0.3-0.6,0.3-1.1c0-0.5-0.1-0.9-0.4-1.2
			s-0.6-0.5-1.1-0.6c-0.2,0-0.9,0-2.1,0h-2.3V33.1z"/>
		<path id="XMLID_11_" class="st2" d="M67.4,41.4h-3.1L63,38.1h-5.7l-1.2,3.3H53l5.6-14.3h3.1L67.4,41.4z M62,35.7l-2-5.3l-1.9,5.3
			H62z"/>
		<path id="XMLID_14_" class="st2" d="M68.9,27.1h5.3c1.2,0,2.1,0.1,2.7,0.3c0.8,0.2,1.6,0.7,2.2,1.3s1.1,1.4,1.4,2.3s0.5,2,0.5,3.4
			c0,1.2-0.1,2.2-0.4,3c-0.4,1-0.9,1.9-1.5,2.5c-0.5,0.5-1.2,0.9-2,1.1c-0.6,0.2-1.5,0.3-2.6,0.3h-5.4V27.1z M71.8,29.5V39h2.2
			c0.8,0,1.4,0,1.7-0.1c0.5-0.1,0.9-0.3,1.2-0.6s0.6-0.7,0.8-1.4s0.3-1.5,0.3-2.6s-0.1-2-0.3-2.5s-0.5-1.1-0.8-1.4s-0.8-0.6-1.3-0.7
			c-0.4-0.1-1.2-0.1-2.4-0.1H71.8z"/>
		<path id="XMLID_17_" class="st2" d="M96.2,41.4h-3.1l-1.3-3.3h-5.7l-1.2,3.3h-3.1l5.6-14.3h3.1L96.2,41.4z M90.9,35.7l-2-5.3
			L87,35.7H90.9z"/>
		<path id="XMLID_20_" class="st2" d="M97,36.7l2.8-0.3c0.2,0.9,0.5,1.6,1,2.1s1.2,0.7,2.1,0.7c0.9,0,1.6-0.2,2.1-0.6
			s0.7-0.9,0.7-1.4c0-0.3-0.1-0.6-0.3-0.9s-0.5-0.4-1-0.6c-0.3-0.1-1.1-0.3-2.3-0.6c-1.5-0.4-2.6-0.9-3.3-1.4
			c-0.9-0.8-1.3-1.7-1.3-2.9c0-0.7,0.2-1.4,0.6-2s1-1.1,1.8-1.5s1.7-0.5,2.8-0.5c1.8,0,3.1,0.4,4.1,1.2s1.4,1.8,1.4,3.2l-2.9,0.1
			c-0.1-0.7-0.4-1.3-0.8-1.6s-1-0.5-1.8-0.5c-0.8,0-1.5,0.2-2,0.5c-0.3,0.2-0.5,0.5-0.5,0.9c0,0.3,0.1,0.6,0.4,0.9
			c0.4,0.3,1.3,0.6,2.7,1s2.4,0.7,3.1,1s1.2,0.8,1.6,1.5s0.6,1.4,0.6,2.3c0,0.8-0.2,1.6-0.7,2.3s-1.1,1.2-1.9,1.6s-1.9,0.5-3.1,0.5
			c-1.8,0-3.2-0.4-4.2-1.3S97.2,38.3,97,36.7z"/>
	</g>
</g>
</svg>
