<?xml version="1.0" encoding="utf-8"?>
<!-- Generator: Adobe Illustrator 19.0.0, SVG Export Plug-In . SVG Version: 6.00 Build 0)  -->
<svg version="1.1" id="Capa_1" xmlns="http://www.w3.org/2000/svg" xmlns:xlink="http://www.w3.org/1999/xlink" x="0px" y="0px"
	 viewBox="0 0 110.9 139.3" style="enable-background:new 0 0 110.9 139.3;" xml:space="preserve">
<style type="text/css">
	.st0{fill:#51564D;}
	.st1{fill:#F7EBCB;}
	.st2{fill:#599C5B;}
</style>
<g id="XMLID_21_">
	<g id="XMLID_10853_">
		<polygon id="XMLID_10856_" class="st0" points="90.9,50.2 83.9,50.2 71.5,50.2 71.5,4 71.5,0 67.5,0 43.5,0 39.5,0 39.5,4 
			39.5,50.2 27.2,50.2 20.2,50.2 23.7,56.2 52.1,105.4 55.5,111.4 59,105.4 87.4,56.2 90.9,50.2 		"/>
		<polygon id="XMLID_10855_" class="st1" points="27.2,54.2 43.5,54.2 43.5,4 67.5,4 67.5,54.2 83.9,54.2 55.5,103.4 		"/>
		<polygon id="XMLID_10854_" class="st2" points="47.5,8 47.5,58.2 34.1,58.2 55.5,95.4 77,58.2 63.5,58.2 63.5,8 		"/>
	</g>
	<g id="XMLID_1_">
		<path id="XMLID_2_" class="st2" d="M0,139.1v-14.3h6.1c1.5,0,2.6,0.1,3.3,0.4s1.2,0.7,1.7,1.4s0.6,1.4,0.6,2.3
			c0,1.1-0.3,2-0.9,2.7s-1.6,1.1-2.8,1.3c0.6,0.4,1.1,0.8,1.5,1.2s1,1.2,1.6,2.3l1.7,2.8H9.4l-2.1-3.1c-0.7-1.1-1.3-1.8-1.5-2.1
			s-0.6-0.5-0.9-0.6s-0.8-0.2-1.5-0.2H2.9v6H0z M2.9,130.8H5c1.4,0,2.3-0.1,2.6-0.2s0.6-0.3,0.8-0.6s0.3-0.6,0.3-1.1
			c0-0.5-0.1-0.9-0.4-1.2s-0.6-0.5-1.1-0.6c-0.2,0-0.9,0-2.1,0H2.9V130.8z"/>
		<path id="XMLID_5_" class="st2" d="M14.4,139.1v-14.3H25v2.4h-7.7v3.2h7.2v2.4h-7.2v3.9h8v2.4H14.4z"/>
		<path id="XMLID_7_" class="st2" d="M36.9,133.8l2.8,0.9c-0.4,1.6-1.1,2.7-2.1,3.5s-2.3,1.1-3.8,1.1c-1.9,0-3.5-0.6-4.7-1.9
			s-1.8-3.1-1.8-5.3c0-2.4,0.6-4.2,1.8-5.6s2.8-2,4.9-2c1.8,0,3.2,0.5,4.3,1.6c0.7,0.6,1.1,1.5,1.5,2.6l-2.9,0.7
			c-0.2-0.7-0.5-1.3-1.1-1.8s-1.2-0.6-2-0.6c-1.1,0-1.9,0.4-2.6,1.1s-1,2-1,3.7c0,1.8,0.3,3.1,1,3.9s1.5,1.2,2.5,1.2
			c0.8,0,1.4-0.2,2-0.7S36.7,134.8,36.9,133.8z"/>
		<path id="XMLID_9_" class="st2" d="M42.2,124.7h2.9v7.8c0,1.2,0,2,0.1,2.4c0.1,0.6,0.4,1.1,0.9,1.4s1.1,0.5,1.9,0.5
			c0.8,0,1.4-0.2,1.9-0.5s0.7-0.7,0.8-1.2s0.1-1.3,0.1-2.4v-7.9h2.9v7.5c0,1.7-0.1,2.9-0.2,3.6s-0.4,1.3-0.9,1.8s-1,0.9-1.7,1.2
			s-1.6,0.4-2.8,0.4c-1.4,0-2.4-0.2-3.1-0.5s-1.3-0.7-1.7-1.2s-0.7-1-0.8-1.6c-0.2-0.8-0.3-2-0.3-3.6V124.7z"/>
		<path id="XMLID_11_" class="st2" d="M56.7,139.1v-14.3h6.1c1.5,0,2.6,0.1,3.3,0.4s1.2,0.7,1.7,1.4c0.4,0.7,0.6,1.4,0.6,2.3
			c0,1.1-0.3,2-0.9,2.7c-0.6,0.7-1.6,1.1-2.8,1.3c0.6,0.4,1.1,0.8,1.5,1.2c0.4,0.4,1,1.2,1.6,2.3l1.7,2.8h-3.5l-2.1-3.1
			c-0.7-1.1-1.3-1.8-1.5-2.1s-0.6-0.5-0.9-0.6s-0.8-0.2-1.5-0.2h-0.6v6H56.7z M59.6,130.8h2.1c1.4,0,2.3-0.1,2.6-0.2
			c0.3-0.1,0.6-0.3,0.8-0.6s0.3-0.6,0.3-1.1c0-0.5-0.1-0.9-0.4-1.2c-0.3-0.3-0.6-0.5-1.1-0.6c-0.2,0-0.9,0-2.1,0h-2.3V130.8z"/>
		<path id="XMLID_14_" class="st2" d="M70.4,134.4l2.8-0.3c0.2,0.9,0.5,1.6,1,2.1s1.2,0.7,2.1,0.7c0.9,0,1.6-0.2,2.1-0.6
			c0.5-0.4,0.7-0.9,0.7-1.4c0-0.3-0.1-0.6-0.3-0.9c-0.2-0.2-0.5-0.4-1-0.6c-0.3-0.1-1.1-0.3-2.3-0.6c-1.6-0.4-2.6-0.9-3.3-1.4
			c-0.9-0.8-1.3-1.7-1.3-2.9c0-0.7,0.2-1.4,0.6-2c0.4-0.6,1-1.1,1.8-1.5c0.8-0.3,1.7-0.5,2.8-0.5c1.8,0,3.1,0.4,4.1,1.2
			s1.4,1.8,1.4,3.2l-2.9,0.1c-0.1-0.7-0.4-1.3-0.8-1.6c-0.4-0.3-1-0.5-1.8-0.5c-0.8,0-1.5,0.2-2,0.5c-0.3,0.2-0.5,0.5-0.5,0.9
			c0,0.3,0.1,0.6,0.4,0.9c0.4,0.3,1.3,0.6,2.7,1s2.4,0.7,3.1,1s1.2,0.8,1.6,1.5s0.6,1.4,0.6,2.3c0,0.8-0.2,1.6-0.7,2.3
			c-0.5,0.7-1.1,1.2-1.9,1.6c-0.8,0.3-1.9,0.5-3.1,0.5c-1.8,0-3.2-0.4-4.2-1.3C71.1,137.2,70.6,136,70.4,134.4z"/>
		<path id="XMLID_16_" class="st2" d="M83.9,132c0-1.5,0.2-2.7,0.7-3.7c0.3-0.7,0.8-1.4,1.3-2c0.6-0.6,1.2-1,1.9-1.3
			c0.9-0.4,1.9-0.6,3.1-0.6c2.1,0,3.8,0.7,5.1,2c1.3,1.3,1.9,3.1,1.9,5.5c0,2.3-0.6,4.1-1.9,5.4c-1.3,1.3-2.9,2-5,2
			c-2.1,0-3.8-0.6-5.1-1.9C84.5,136.1,83.9,134.3,83.9,132z M86.8,131.9c0,1.6,0.4,2.8,1.1,3.7c0.7,0.8,1.7,1.3,2.9,1.3
			s2.1-0.4,2.8-1.2c0.7-0.8,1.1-2.1,1.1-3.7c0-1.6-0.4-2.9-1.1-3.7c-0.7-0.8-1.7-1.2-2.9-1.2s-2.2,0.4-2.9,1.2
			C87.2,129,86.8,130.2,86.8,131.9z"/>
		<path id="XMLID_19_" class="st2" d="M99.3,134.4l2.8-0.3c0.2,0.9,0.5,1.6,1,2.1s1.2,0.7,2.1,0.7c0.9,0,1.6-0.2,2.1-0.6
			c0.5-0.4,0.7-0.9,0.7-1.4c0-0.3-0.1-0.6-0.3-0.9c-0.2-0.2-0.5-0.4-1-0.6c-0.3-0.1-1.1-0.3-2.3-0.6c-1.6-0.4-2.6-0.9-3.3-1.4
			c-0.9-0.8-1.3-1.7-1.3-2.9c0-0.7,0.2-1.4,0.6-2c0.4-0.6,1-1.1,1.8-1.5c0.8-0.3,1.7-0.5,2.8-0.5c1.8,0,3.1,0.4,4.1,1.2
			s1.4,1.8,1.4,3.2l-2.9,0.1c-0.1-0.7-0.4-1.3-0.8-1.6c-0.4-0.3-1-0.5-1.8-0.5c-0.8,0-1.5,0.2-2,0.5c-0.3,0.2-0.5,0.5-0.5,0.9
			c0,0.3,0.1,0.6,0.4,0.9c0.4,0.3,1.3,0.6,2.7,1s2.4,0.7,3.1,1s1.2,0.8,1.6,1.5s0.6,1.4,0.6,2.3c0,0.8-0.2,1.6-0.7,2.3
			c-0.5,0.7-1.1,1.2-1.9,1.6c-0.8,0.3-1.9,0.5-3.1,0.5c-1.8,0-3.2-0.4-4.2-1.3C100,137.2,99.5,136,99.3,134.4z"/>
	</g>
</g>
</svg>
