<?xml version="1.0" encoding="utf-8"?>
<!-- Generator: Adobe Illustrator 19.0.0, SVG Export Plug-In . SVG Version: 6.00 Build 0)  -->
<svg version="1.1" id="Capa_1" xmlns="http://www.w3.org/2000/svg" xmlns:xlink="http://www.w3.org/1999/xlink" x="0px" y="0px"
	 viewBox="-193 385.3 207.6 70.6" style="enable-background:new -193 385.3 207.6 70.6;" xml:space="preserve">
<style type="text/css">
	.st0{fill:#31A6AE;}
	.st1{fill:#F7EBCB;}
</style>
<g id="XMLID_19_">
	<g id="XMLID_10909_">
		<polygon id="XMLID_10753_" class="st0" points="-140.1,387.1 -140.1,393.6 -140.1,405.4 -184,405.4 -187.8,405.4 -187.8,409.2 
			-187.8,432 -187.8,435.8 -184,435.8 -140.1,435.8 -140.1,447.6 -140.1,454.1 -134.4,450.9 -87.7,423.9 -82,420.6 -87.7,417.4 
			-134.4,390.4 		"/>
		<polygon id="XMLID_10752_" class="st1" points="-136.3,447.6 -136.3,432 -184,432 -184,409.2 -136.3,409.2 -136.3,393.6 
			-89.6,420.6 		"/>
		<polygon id="XMLID_10751_" class="st0" points="-180.2,428.2 -132.5,428.2 -132.5,441 -97.2,420.6 -132.5,400.3 -132.5,413 
			-180.2,413 		"/>
	</g>
	<g id="XMLID_1_">
		<path id="XMLID_2_" class="st0" d="M-72.4,421.9l2.7-0.3c0.2,0.9,0.5,1.5,1,2c0.5,0.5,1.1,0.7,2,0.7s1.5-0.2,2-0.6
			c0.5-0.4,0.7-0.9,0.7-1.3c0-0.3-0.1-0.6-0.3-0.9c-0.2-0.2-0.5-0.4-0.9-0.6c-0.3-0.1-1-0.3-2.2-0.6c-1.4-0.4-2.5-0.9-3.1-1.3
			c-0.9-0.8-1.2-1.6-1.2-2.8c0-0.7,0.2-1.3,0.6-1.9c0.4-0.6,1-1,1.7-1.4c0.8-0.3,1.6-0.5,2.7-0.5c1.7,0,3,0.4,3.9,1.1
			c0.9,0.8,1.3,1.7,1.3,3l-2.8,0.1c-0.1-0.7-0.4-1.2-0.8-1.5c-0.4-0.3-0.9-0.5-1.7-0.5s-1.4,0.2-1.9,0.5c-0.3,0.2-0.5,0.5-0.5,0.9
			c0,0.3,0.1,0.6,0.4,0.9c0.4,0.3,1.2,0.6,2.6,1c1.3,0.3,2.3,0.7,2.9,0.9s1.1,0.8,1.5,1.4c0.4,0.7,0.6,1.3,0.6,2.2
			c0,0.8-0.2,1.5-0.7,2.2c-0.5,0.7-1,1.1-1.8,1.5c-0.8,0.3-1.8,0.5-2.9,0.5c-1.7,0-3-0.4-4-1.2C-71.6,424.7-72.2,423.4-72.4,421.9z"
			/>
		<path id="XMLID_4_" class="st0" d="M-46.7,426.4h-2.9l-1.2-3.1h-5.4l-1.1,3.1h-2.9l5.3-13.6h2.9L-46.7,426.4z M-51.8,421l-1.9-5
			l-1.8,5H-51.8z"/>
		<path id="XMLID_7_" class="st0" d="M-45.2,426.4v-13.5h2.8v11.2h6.8v2.3H-45.2z"/>
		<path id="XMLID_9_" class="st0" d="M-33.7,426.4v-13.6h2.8v13.6H-33.7z"/>
		<path id="XMLID_11_" class="st0" d="M-28.4,412.8h5c1.1,0,2,0.1,2.6,0.3c0.8,0.2,1.5,0.7,2.1,1.2c0.6,0.6,1,1.3,1.3,2.2
			s0.5,1.9,0.5,3.2c0,1.1-0.1,2.1-0.4,2.8c-0.4,1-0.9,1.8-1.4,2.4c-0.5,0.5-1.1,0.9-1.9,1c-0.6,0.2-1.4,0.3-2.5,0.3h-5.1v-13.5
			H-28.4z M-25.6,415.1v9h2.1c0.8,0,1.3,0,1.6-0.1c0.5-0.1,0.9-0.3,1.1-0.6c0.3-0.3,0.6-0.7,0.8-1.3s0.3-1.4,0.3-2.5
			c0-1-0.1-1.9-0.3-2.4s-0.5-1-0.8-1.3c-0.3-0.3-0.8-0.6-1.2-0.7c-0.4-0.1-1.1-0.1-2.3-0.1L-25.6,415.1L-25.6,415.1z"/>
		<path id="XMLID_14_" class="st0" d="M-2.4,426.4h-3l-1.2-3.1h-5.4l-1.1,3.1h-2.9l5.3-13.6h2.9L-2.4,426.4z M-7.4,421l-1.9-5
			l-1.8,5H-7.4z"/>
		<path id="XMLID_17_" class="st0" d="M-1.6,421.9l2.7-0.3c0.2,0.9,0.5,1.5,1,2s1.1,0.7,2,0.7c0.9,0,1.5-0.2,2-0.6s0.7-0.9,0.7-1.3
			c0-0.3-0.1-0.6-0.3-0.9c-0.2-0.2-0.5-0.4-1-0.6c-0.3-0.1-1-0.3-2.2-0.6c-1.4-0.4-2.5-0.9-3.1-1.3c-0.9-0.8-1.2-1.6-1.2-2.8
			c0-0.7,0.2-1.3,0.6-1.9c0.4-0.6,1-1,1.7-1.4c0.8-0.3,1.6-0.5,2.7-0.5c1.7,0,3,0.4,3.9,1.1c0.9,0.8,1.3,1.7,1.3,3l-2.8,0.1
			c-0.1-0.7-0.4-1.2-0.8-1.5c-0.4-0.3-1-0.5-1.7-0.5s-1.4,0.2-1.9,0.5c-0.3,0.2-0.5,0.5-0.5,0.9c0,0.3,0.1,0.6,0.4,0.9
			c0.4,0.3,1.2,0.6,2.6,1c1.3,0.4,2.3,0.7,2.9,0.9s1.1,0.8,1.5,1.4c0.4,0.7,0.6,1.3,0.6,2.2c0,0.8-0.2,1.5-0.7,2.2
			c-0.5,0.7-1,1.1-1.8,1.5c-0.8,0.3-1.8,0.5-2.9,0.5c-1.7,0-3-0.4-4-1.2C-0.9,424.7-1.4,423.4-1.6,421.9z"/>
	</g>
</g>
</svg>
