<?xml version="1.0" encoding="utf-8"?>
<!-- Generator: Adobe Illustrator 19.0.0, SVG Export Plug-In . SVG Version: 6.00 Build 0)  -->
<svg version="1.1" id="Capa_1" xmlns="http://www.w3.org/2000/svg" xmlns:xlink="http://www.w3.org/1999/xlink" x="0px" y="0px"
	 viewBox="-242 351.6 110.9 139.3" style="enable-background:new -242 351.6 110.9 139.3;" xml:space="preserve">
<style type="text/css">
	.st0{fill:#599C5B;}
	.st1{fill:#F7EBCB;}
</style>
<g id="XMLID_21_">
	<g id="XMLID_10853_">
		<polygon id="XMLID_10856_" class="st0" points="-152.9,402.7 -159.5,402.7 -171.3,402.7 -171.3,358.8 -171.3,355 -175.1,355 
			-197.9,355 -201.7,355 -201.7,358.8 -201.7,402.7 -213.4,402.7 -220,402.7 -216.7,408.4 -189.7,455.2 -186.5,460.9 -183.2,455.2 
			-156.2,408.4 		"/>
		<polygon id="XMLID_10855_" class="st1" points="-213.4,406.5 -197.9,406.5 -197.9,358.8 -175.1,358.8 -175.1,406.5 -159.5,406.5 
			-186.5,453.3 		"/>
		<polygon id="XMLID_10854_" class="st0" points="-194.1,362.6 -194.1,410.3 -206.8,410.3 -186.5,445.7 -166.1,410.3 -178.9,410.3 
			-178.9,362.6 		"/>
	</g>
	<g id="XMLID_1_">
		<path id="XMLID_2_" class="st0" d="M-239.2,487.2v-13.6h5.8c1.4,0,2.5,0.1,3.1,0.4c0.7,0.3,1.1,0.7,1.6,1.3
			c0.5,0.7,0.6,1.3,0.6,2.2c0,1-0.3,1.9-0.9,2.6c-0.6,0.7-1.5,1-2.7,1.2c0.6,0.4,1,0.8,1.4,1.1c0.4,0.4,0.9,1.1,1.5,2.2l1.6,2.7
			h-3.2l-2-2.9c-0.7-1-1.2-1.7-1.4-2c-0.2-0.3-0.6-0.5-0.9-0.6c-0.3-0.1-0.8-0.2-1.4-0.2h-0.5v5.7L-239.2,487.2L-239.2,487.2z
			 M-236.5,479.3h2c1.3,0,2.2-0.1,2.5-0.2s0.6-0.3,0.8-0.6c0.2-0.3,0.3-0.6,0.3-1s-0.1-0.9-0.4-1.1c-0.3-0.3-0.6-0.5-1-0.6
			c-0.2,0-0.9,0-2,0h-2.1V479.3z"/>
		<path id="XMLID_5_" class="st0" d="M-225.5,487.2v-13.6h10.1v2.3h-7.3v3h6.8v2.3h-6.8v3.7h7.6v2.3L-225.5,487.2L-225.5,487.2z"/>
		<path id="XMLID_7_" class="st0" d="M-204.2,482.1l2.7,0.9c-0.4,1.5-1,2.6-2,3.3c-0.9,0.8-2.2,1-3.6,1c-1.8,0-3.3-0.6-4.5-1.8
			s-1.7-2.9-1.7-5c0-2.3,0.6-4,1.7-5.3c1.1-1.3,2.7-1.9,4.7-1.9c1.7,0,3,0.5,4.1,1.5c0.7,0.6,1,1.4,1.4,2.5l-2.8,0.7
			c-0.2-0.7-0.5-1.2-1-1.7c-0.6-0.5-1.1-0.6-1.9-0.6c-1,0-1.8,0.4-2.5,1c-0.7,0.7-0.9,1.9-0.9,3.5c0,1.7,0.3,2.9,0.9,3.7
			c0.7,0.8,1.4,1.1,2.4,1.1c0.8,0,1.3-0.2,1.9-0.7C-204.7,483.9-204.4,483.1-204.2,482.1z"/>
		<path id="XMLID_9_" class="st0" d="M-199.1,473.5h2.8v7.4c0,1.1,0,1.9,0.1,2.3c0.1,0.6,0.4,1,0.9,1.3c0.5,0.3,1,0.5,1.8,0.5
			s1.3-0.2,1.8-0.5c0.5-0.3,0.7-0.7,0.8-1.1c0.1-0.5,0.1-1.2,0.1-2.3v-7.5h2.8v7.1c0,1.6-0.1,2.8-0.2,3.4c-0.1,0.7-0.4,1.2-0.9,1.7
			c-0.5,0.5-0.9,0.9-1.6,1.1c-0.7,0.3-1.5,0.4-2.7,0.4c-1.3,0-2.3-0.2-2.9-0.5c-0.7-0.3-1.2-0.7-1.6-1.1c-0.4-0.5-0.7-1-0.8-1.5
			c-0.2-0.8-0.3-1.9-0.3-3.4C-199.1,480.8-199.1,473.5-199.1,473.5z"/>
		<path id="XMLID_11_" class="st0" d="M-185.4,487.2v-13.6h5.8c1.4,0,2.5,0.1,3.1,0.4c0.7,0.3,1.1,0.7,1.6,1.3
			c0.4,0.7,0.6,1.3,0.6,2.2c0,1-0.3,1.9-0.9,2.6c-0.6,0.7-1.5,1-2.7,1.2c0.6,0.4,1,0.8,1.4,1.1c0.4,0.4,0.9,1.1,1.5,2.2l1.6,2.7
			h-3.3l-2-2.9c-0.7-1-1.2-1.7-1.4-2c-0.2-0.3-0.6-0.5-0.9-0.6c-0.3-0.1-0.8-0.2-1.4-0.2h-0.6v5.7L-185.4,487.2L-185.4,487.2z
			 M-182.6,479.3h2c1.3,0,2.2-0.1,2.5-0.2s0.6-0.3,0.8-0.6s0.3-0.6,0.3-1s-0.1-0.9-0.4-1.1s-0.6-0.5-1-0.6c-0.2,0-0.9,0-2,0h-2.2
			L-182.6,479.3L-182.6,479.3z"/>
		<path id="XMLID_14_" class="st0" d="M-172.3,482.7l2.7-0.3c0.2,0.9,0.5,1.5,0.9,2c0.5,0.5,1.1,0.7,2,0.7c0.9,0,1.5-0.2,2-0.6
			c0.5-0.4,0.7-0.9,0.7-1.3c0-0.3-0.1-0.6-0.3-0.9c-0.2-0.2-0.5-0.4-0.9-0.6c-0.3-0.1-1-0.3-2.2-0.6c-1.5-0.4-2.5-0.9-3.1-1.3
			c-0.9-0.8-1.2-1.6-1.2-2.8c0-0.7,0.2-1.3,0.6-1.9c0.4-0.6,0.9-1,1.7-1.4c0.8-0.3,1.6-0.5,2.7-0.5c1.7,0,2.9,0.4,3.9,1.1
			c1,0.8,1.3,1.7,1.3,3l-2.8,0.1c-0.1-0.7-0.4-1.2-0.8-1.5s-0.9-0.5-1.7-0.5c-0.8,0-1.4,0.2-1.9,0.5c-0.3,0.2-0.5,0.5-0.5,0.9
			c0,0.3,0.1,0.6,0.4,0.9c0.4,0.3,1.2,0.6,2.6,1c1.3,0.4,2.3,0.7,2.9,0.9s1.1,0.8,1.5,1.4c0.4,0.7,0.6,1.3,0.6,2.2
			c0,0.8-0.2,1.5-0.7,2.2c-0.5,0.7-1,1.1-1.8,1.5c-0.8,0.3-1.8,0.5-2.9,0.5c-1.7,0-3-0.4-4-1.2S-172.2,484.2-172.3,482.7z"/>
		<path id="XMLID_16_" class="st0" d="M-159.5,480.4c0-1.4,0.2-2.6,0.7-3.5c0.3-0.7,0.8-1.3,1.2-1.9c0.6-0.6,1.1-1,1.8-1.2
			c0.9-0.4,1.8-0.6,2.9-0.6c2,0,3.6,0.7,4.8,1.9c1.2,1.2,1.8,2.9,1.8,5.2c0,2.2-0.6,3.9-1.8,5.1c-1.2,1.2-2.8,1.9-4.8,1.9
			c-2,0-3.6-0.6-4.8-1.8C-159,484.3-159.5,482.6-159.5,480.4z M-156.8,480.3c0,1.5,0.4,2.7,1,3.5c0.7,0.8,1.6,1.2,2.8,1.2
			s2-0.4,2.7-1.1c0.7-0.8,1-2,1-3.5s-0.4-2.8-1-3.5s-1.6-1.1-2.8-1.1s-2.1,0.4-2.8,1.1C-156.4,477.6-156.8,478.7-156.8,480.3z"/>
		<path id="XMLID_19_" class="st0" d="M-144.9,482.7l2.7-0.3c0.2,0.9,0.5,1.5,0.9,2c0.5,0.5,1.1,0.7,2,0.7c0.9,0,1.5-0.2,2-0.6
			c0.5-0.4,0.7-0.9,0.7-1.3c0-0.3-0.1-0.6-0.3-0.9c-0.2-0.2-0.5-0.4-0.9-0.6c-0.3-0.1-1-0.3-2.2-0.6c-1.5-0.4-2.5-0.9-3.1-1.3
			c-0.9-0.8-1.2-1.6-1.2-2.8c0-0.7,0.2-1.3,0.6-1.9c0.4-0.6,0.9-1,1.7-1.4c0.8-0.3,1.6-0.5,2.7-0.5c1.7,0,2.9,0.4,3.9,1.1
			c1,0.8,1.3,1.7,1.3,3l-2.8,0.1c-0.1-0.7-0.4-1.2-0.8-1.5s-0.9-0.5-1.7-0.5c-0.8,0-1.4,0.2-1.9,0.5c-0.3,0.2-0.5,0.5-0.5,0.9
			c0,0.3,0.1,0.6,0.4,0.9c0.4,0.3,1.2,0.6,2.6,1c1.3,0.4,2.3,0.7,2.9,0.9s1.1,0.8,1.5,1.4c0.4,0.7,0.6,1.3,0.6,2.2
			c0,0.8-0.2,1.5-0.7,2.2c-0.5,0.7-1,1.1-1.8,1.5c-0.8,0.3-1.8,0.5-2.9,0.5c-1.7,0-3-0.4-4-1.2S-144.7,484.2-144.9,482.7z"/>
	</g>
</g>
</svg>
