<?xml version="1.0" encoding="utf-8"?>
<!-- Generator: Adobe Illustrator 16.0.0, SVG Export Plug-In . SVG Version: 6.00 Build 0)  -->
<!DOCTYPE svg PUBLIC "-//W3C//DTD SVG 1.1//EN" "http://www.w3.org/Graphics/SVG/1.1/DTD/svg11.dtd">
<svg version="1.1" id="Layer_1" xmlns="http://www.w3.org/2000/svg" xmlns:xlink="http://www.w3.org/1999/xlink" x="0px" y="0px"
	 width="356.084px" height="356.326px" viewBox="0 0 356.084 356.326" enable-background="new 0 0 356.084 356.326"
	 xml:space="preserve">
<g id="XMLID_4276_">
	<g id="XMLID_5225_">
		<path id="XMLID_5227_" fill="#51564D" d="M204.076,221.357c-19.459,13.277-45.995,8.277-59.279-11.185
			c-13.285-19.461-8.278-46.008,11.179-59.289c19.463-13.27,46.007-8.263,59.273,11.195
			C228.54,181.533,223.535,208.081,204.076,221.357z"/>
		<path id="XMLID_5226_" fill="#F7EBCB" d="M201.683,178.771h-14.304v-14.31c0-4.058-3.297-7.359-7.355-7.359
			c-4.062,0-7.354,3.301-7.354,7.359v14.31h-14.308c-4.062,0-7.354,3.289-7.354,7.352c0,4.07,3.291,7.358,7.354,7.358h14.308v14.302
			c0,4.059,3.293,7.363,7.354,7.363c4.059,0,7.355-3.305,7.355-7.363v-14.302h14.304c4.062,0,7.359-3.288,7.359-7.358
			C209.042,182.061,205.745,178.771,201.683,178.771z"/>
	</g>
	<g id="XMLID_4454_">
		<g id="XMLID_5015_">
			<path id="XMLID_5016_" fill="#51564D" d="M276.624,320.229l-0.008-5.242c2.868,0,5.727-0.323,8.502-0.959l1.171,5.109
				C283.128,319.858,279.877,320.229,276.624,320.229z M267.448,320.229h-9.168v-5.242h9.168V320.229z M249.111,320.229h-9.168
				v-5.242h9.168V320.229z M230.777,320.229h-9.169v-5.242h9.169V320.229z M212.44,320.229h-9.168v-5.242h9.168V320.229z
				 M194.103,320.229h-9.168v-5.242h9.168V320.229z M175.766,320.229h-9.168v-5.242h9.168V320.229z M157.43,320.229h-9.169v-5.242
				h9.169V320.229z M139.093,320.229h-9.169v-5.242h9.169V320.229z M120.759,320.229h-9.169v-5.242h9.169V320.229z M102.421,320.229
				h-9.168v-5.242h9.168V320.229z M84.085,320.229h-4.626c-1.604,0-3.225-0.09-4.822-0.267l0.581-5.211
				c1.405,0.155,2.832,0.235,4.241,0.235h4.626V320.229z M65.14,317.79c-3.057-1.071-6.007-2.498-8.765-4.235l2.796-4.435
				c2.426,1.528,5.018,2.781,7.707,3.727L65.14,317.79z M295.475,315.904l-2.288-4.717c2.566-1.244,5.002-2.783,7.241-4.571
				l3.271,4.097C301.159,312.744,298.391,314.49,295.475,315.904z M48.774,307.481c-2.301-2.295-4.348-4.852-6.08-7.591l4.426-2.805
				c1.529,2.416,3.331,4.663,5.358,6.687L48.774,307.481z M310.581,303.834l-4.095-3.276c1.792-2.234,3.331-4.67,4.575-7.242
				l4.718,2.29C314.364,298.525,312.612,301.292,310.581,303.834z M38.44,291.136c-1.084-3.062-1.82-6.258-2.186-9.49l5.209-0.587
				c0.322,2.836,0.967,5.64,1.918,8.332L38.44,291.136z M319.015,286.42l-5.109-1.174c0.637-2.772,0.958-5.636,0.958-8.501v-0.168
				h5.243v0.168C320.107,280.005,319.739,283.26,319.015,286.42z M41.218,272.195h-5.242v-9.168h5.242V272.195z M320.107,267.408
				h-5.243v-9.168h5.243V267.408z M41.218,253.859h-5.242v-9.167h5.242V253.859z M320.107,249.071h-5.243v-9.169h5.243V249.071z
				 M41.218,235.524h-5.242v-9.171h5.242V235.524z M320.107,230.735h-5.243v-9.169h5.243V230.735z M41.218,217.186h-5.242v-9.167
				h5.242V217.186z M320.107,212.398h-5.243v-9.169h5.243V212.398z M41.218,198.849h-5.242v-9.168h5.242V198.849z M320.107,194.063
				h-5.243v-9.169h5.243V194.063z M41.218,180.513h-5.242v-9.168h5.242V180.513z M320.107,175.728h-5.243v-9.168h5.243V175.728z
				 M41.218,162.177h-5.242v-9.168h5.242V162.177z M320.107,157.391h-5.243v-9.168h5.243V157.391z M41.218,143.842h-5.242v-9.168
				h5.242V143.842z M320.107,139.055h-5.243v-9.168h5.243V139.055z M41.218,125.505h-5.242v-9.168h5.242V125.505z M320.107,120.718
				h-5.243v-9.168h5.243V120.718z M41.218,107.168h-5.242v-9.169h5.242V107.168z M320.107,102.383h-5.243v-9.168h5.243V102.383z
				 M41.218,88.833h-5.242v-9.169h5.242V88.833z M320.107,84.046h-5.243V79.58c0-1.462-0.084-2.938-0.25-4.391l5.204-0.6
				c0.191,1.651,0.289,3.331,0.289,4.991V84.046z M42.162,71.154l-5.112-1.16c0.719-3.165,1.8-6.257,3.215-9.193l4.725,2.279
				C43.744,65.655,42.792,68.374,42.162,71.154z M312.676,66.86c-0.956-2.687-2.219-5.271-3.755-7.686l4.422-2.814
				c1.749,2.748,3.186,5.688,4.271,8.744L312.676,66.86z M49.548,55.828l-4.1-3.266c2.024-2.539,4.332-4.858,6.865-6.89l3.282,4.088
				C53.365,51.55,51.33,53.594,49.548,55.828z M303.551,52.498c-2.027-2.017-4.284-3.811-6.704-5.332l2.786-4.44
				c2.75,1.729,5.314,3.766,7.617,6.055L303.551,52.498z M62.825,45.172l-2.296-4.711c2.93-1.427,6.017-2.521,9.179-3.253
				l1.181,5.106C68.113,42.958,65.398,43.919,62.825,45.172z M289.133,43.455c-2.7-0.94-5.506-1.576-8.346-1.886l0.57-5.21
				c3.232,0.354,6.428,1.074,9.5,2.147L289.133,43.455z M271.914,41.341h-9.166V36.1h9.166V41.341z M253.579,41.341h-9.168V36.1
				h9.168V41.341z M235.243,41.341h-9.169V36.1h9.169V41.341z M216.905,41.341h-9.168V36.1h9.168V41.341z M198.569,41.341h-9.166
				V36.1h9.166V41.341z M180.235,41.341h-9.172V36.1h9.172V41.341z M161.895,41.341h-9.166V36.1h9.166V41.341z M143.561,41.341
				h-9.168V36.1h9.168V41.341z M125.224,41.341h-9.169V36.1h9.169V41.341z M106.887,41.341h-9.168V36.1h9.168V41.341z
				 M88.551,41.341h-9.092L79.385,36.1h9.166V41.341z"/>
		</g>
		<g id="XMLID_4541_">
			<g id="XMLID_4871_">
				<g id="XMLID_5009_">
					<circle id="XMLID_5014_" fill="#51564D" cx="177.888" cy="38.301" r="38.302"/>
					<path id="XMLID_5013_" fill="#F7974A" d="M156.873,59.313c-11.603-11.603-11.604-30.419,0.003-42.026
						c11.604-11.606,30.421-11.606,42.025,0c11.607,11.606,11.604,30.421,0,42.026C187.294,70.916,168.477,70.921,156.873,59.313z"
						/>
					<g id="XMLID_5011_">
						<path id="XMLID_5012_" fill="#F7974A" d="M278.196,93.667c-1.851,0.002-3.524,0.752-4.739,1.962
							c-1.211,1.215-1.96,2.887-1.963,4.738v22.067l-77.416-77.416c-2.614-2.615-6.857-2.615-9.472,0
							c-2.618,2.616-2.615,6.857,0,9.472l77.415,77.415l-22.068,0.006c-3.696-0.003-6.696,2.996-6.696,6.697
							c-0.003,3.699,2.998,6.7,6.696,6.699h44.94v-44.943C284.893,96.667,281.891,93.667,278.196,93.667z"/>
					</g>
					<path id="XMLID_5010_" fill="#F7EBCB" d="M164.755,51.436c-7.255-7.253-7.255-19.017,0-26.269
						c7.248-7.253,19.017-7.253,26.265,0c7.255,7.251,7.255,19.015,0,26.269C183.77,58.687,172.003,58.687,164.755,51.436z"/>
				</g>
				<g id="XMLID_4893_">
					<path id="XMLID_5008_" fill="#51564D" d="M290.698,151.361c14.957-14.958,39.211-14.96,54.169,0
						c14.958,14.955,14.956,39.208-0.002,54.167c-14.958,14.957-39.21,14.957-54.167,0
						C275.74,190.569,275.74,166.32,290.698,151.361z"/>
					<path id="XMLID_5007_" fill="#599C5B" d="M296.767,157.427c11.604-11.6,30.422-11.6,42.028,0.005
						c11.605,11.606,11.603,30.424,0,42.022c-11.606,11.61-30.421,11.61-42.025,0.002
						C285.161,187.854,285.161,169.033,296.767,157.427z"/>
					<g id="XMLID_5005_">
						<path id="XMLID_5006_" fill="#599C5B" d="M262.413,278.751c0-1.848-0.75-3.523-1.96-4.737
							c-1.215-1.214-2.889-1.961-4.737-1.961h-22.068l77.417-77.416c2.616-2.62,2.614-6.859-0.003-9.475
							c-2.615-2.617-6.853-2.617-9.473,0l-77.414,77.415l-0.002-22.067c0-3.7-3.001-6.695-6.699-6.698
							c-3.699-0.002-6.699,2.998-6.697,6.698v44.938h44.939C259.417,285.448,262.416,282.45,262.413,278.751z"/>
					</g>
					<path id="XMLID_5004_" fill="#F7EBCB" d="M304.651,165.307c7.246-7.248,19.012-7.251,26.266,0.005
						c7.251,7.25,7.251,19.017,0.002,26.264c-7.254,7.255-19.02,7.255-26.268,0C297.394,184.326,297.394,172.562,304.651,165.307z"
						/>
				</g>
				<g id="XMLID_4882_">
					<circle id="XMLID_4890_" fill="#51564D" cx="178.197" cy="318.025" r="38.302"/>
					<path id="XMLID_4887_" fill="#31A6AE" d="M199.212,297.009c11.603,11.607,11.604,30.428-0.005,42.03
						c-11.599,11.608-30.421,11.606-42.025,0c-11.602-11.603-11.604-30.423,0-42.026
						C168.789,285.407,187.609,285.402,199.212,297.009z"/>
					<g id="XMLID_4884_">
						<path id="XMLID_4886_" fill="#31A6AE" d="M77.889,262.657c1.851,0,3.525-0.75,4.739-1.961c1.211-1.215,1.96-2.892,1.96-4.737
							l0.003-22.068l77.413,77.417c2.618,2.614,6.858,2.614,9.476,0c2.614-2.615,2.614-6.857,0-9.472l-77.416-77.418l22.065-0.001
							c3.699,0,6.7-3.001,6.7-6.7c0.002-3.697-2.999-6.699-6.7-6.696H71.19v44.938C71.193,259.659,74.191,262.659,77.889,262.657z"
							/>
					</g>
					<path id="XMLID_4883_" fill="#F7EBCB" d="M191.333,304.891c7.248,7.25,7.251,19.021-0.002,26.27
						c-7.249,7.255-19.018,7.249-26.269,0s-7.251-19.018,0-26.266C172.316,297.642,184.082,297.639,191.333,304.891z"/>
				</g>
				<g id="XMLID_4872_">
					<path id="XMLID_4881_" fill="#51564D" d="M65.388,204.965c-14.958,14.961-39.212,14.958-54.17,0
						C-3.74,190.008-3.74,165.758,11.221,150.8c14.958-14.957,39.209-14.957,54.167,0C80.346,165.758,80.346,190.008,65.388,204.965
						z"/>
					<path id="XMLID_4880_" fill="#F76881" d="M59.318,198.897c-11.604,11.602-30.422,11.602-42.028-0.003
						c-11.607-11.601-11.605-30.423,0-42.024c11.602-11.609,30.419-11.609,42.023,0C70.922,168.474,70.924,187.294,59.318,198.897z"
						/>
					<g id="XMLID_4874_">
						<path id="XMLID_4878_" fill="#F76881" d="M93.672,77.577c-0.003,1.847,0.749,3.523,1.961,4.734
							c1.214,1.217,2.886,1.963,4.736,1.963l22.068,0.002l-77.42,77.414c-2.613,2.616-2.613,6.86,0.004,9.474
							c2.615,2.618,6.855,2.615,9.473,0l77.413-77.416l0.003,22.066c0.002,3.701,3.001,6.698,6.701,6.7
							c3.696,0.003,6.7-3,6.697-6.697V70.876l-44.939,0.002C96.667,70.878,93.669,73.877,93.672,77.577z"/>
					</g>
					<path id="XMLID_4873_" fill="#F7EBCB" d="M51.44,191.017c-7.254,7.252-19.02,7.257-26.273,0
						c-7.251-7.25-7.251-19.015,0.002-26.27c7.252-7.254,19.014-7.25,26.267,0C58.688,172.004,58.688,183.767,51.44,191.017z"/>
				</g>
			</g>
			<g id="XMLID_4866_">
				<path id="XMLID_4868_" fill="#51564D" d="M43.105,188.438l-1.345-4.038h-8.105l-1.377,4.038h-4.645l8.297-22.809h3.491
					l8.33,22.809H43.105z M37.789,172.356l-2.884,8.295h5.67L37.789,172.356z"/>
			</g>
			<g id="XMLID_4861_">
				<path id="XMLID_4862_" fill="#51564D" d="M179.897,50.185h-9.547V27.377h9.164c4.452,0,7.047,2.498,7.047,6.406
					c0,2.529-1.667,4.165-2.82,4.71c1.378,0.639,3.14,2.081,3.14,5.125C186.88,47.878,183.966,50.185,179.897,50.185z
					 M179.161,31.349h-4.357v5.253h4.357c1.889,0,2.947-1.059,2.947-2.628C182.108,32.406,181.049,31.349,179.161,31.349z
					 M179.447,40.607h-4.644v5.606h4.644c2.02,0,2.981-1.283,2.981-2.823C182.428,41.856,181.466,40.607,179.447,40.607z"/>
			</g>
			<g id="XMLID_4858_">
				<path id="XMLID_4859_" fill="#51564D" d="M318.195,190.376c-2.436,0-4.485-0.834-6.151-2.5
					c-0.992-0.991-1.604-2.145-1.859-3.427c-0.256-1.281-0.383-3.17-0.383-5.669c0-2.501,0.127-4.389,0.383-5.672
					c0.256-1.312,0.867-2.434,1.859-3.426c1.666-1.667,3.716-2.499,6.151-2.499c4.386,0,7.622,2.562,8.391,7.209h-4.516
					c-0.48-1.953-1.697-3.237-3.845-3.237c-1.216,0-2.178,0.385-2.85,1.186c-0.93,0.993-1.122,2.019-1.122,6.439
					s0.192,5.443,1.122,6.438c0.672,0.801,1.634,1.184,2.85,1.184c2.147,0,3.364-1.277,3.845-3.233h4.516
					C325.817,187.812,322.55,190.376,318.195,190.376z"/>
			</g>
			<g id="XMLID_4853_">
				<path id="XMLID_4855_" fill="#51564D" d="M185.7,327.789c-1.507,1.506-3.653,2.177-6.022,2.177h-8.232v-22.807h8.232
					c2.369,0,4.516,0.67,6.022,2.178c2.561,2.562,2.305,5.699,2.305,9.131C188.004,321.895,188.26,325.223,185.7,327.789z
					 M182.59,312.54c-0.766-0.932-1.793-1.408-3.33-1.408h-3.363v14.863h3.363c1.537,0,2.564-0.48,3.33-1.412
					c0.834-1.023,0.962-2.657,0.962-6.115C183.552,315.007,183.424,313.564,182.59,312.54z"/>
			</g>
		</g>
	</g>
</g>
</svg>
