<?xml version="1.0" encoding="utf-8"?>
<!-- Generator: Adobe Illustrator 21.0.0, SVG Export Plug-In . SVG Version: 6.00 Build 0)  -->
<svg version="1.1" id="Layer_1" xmlns="http://www.w3.org/2000/svg" xmlns:xlink="http://www.w3.org/1999/xlink" x="0px" y="0px"
	 viewBox="0 0 418 505.5" style="enable-background:new 0 0 418 505.5;" xml:space="preserve">
<style type="text/css">
	.st0{fill:#F7EBCB;}
	.st1{fill:#BDB39D;}
	.st2{fill:#F76881;}
	.st3{fill:#51564D;}
	.st4{fill:#F7EBCB;stroke:#51564D;stroke-miterlimit:10;}
	.st5{fill:#31A6AE;}
	.st6{fill:#F7974A;}
	.st7{fill:#599C5B;}
	.st8{fill:#F7EBCB;stroke:#BDB39D;stroke-width:12;stroke-linejoin:round;stroke-miterlimit:10;}
	.st9{fill:none;stroke:#51564D;stroke-linejoin:round;stroke-miterlimit:10;}
	.st10{fill:none;}
	.st11{fill:none;stroke:#51564D;stroke-miterlimit:10;}
</style>
<g>
	<polygon id="XMLID_4212_" class="st0" points="230.8,297.2 334.6,153.5 332.2,153.5 228.3,297.2 	"/>
	<polygon id="XMLID_4218_" class="st0" points="235.1,357.6 232.7,357.6 335.6,503.2 338,503.2 	"/>
	<polygon id="XMLID_4228_" class="st1" points="188.9,292.1 91,153.5 88.5,153.5 186.5,292.1 	"/>
	<polygon id="XMLID_4211_" class="st1" points="80,502.5 82.5,502.5 191.4,351.8 188.9,351.8 	"/>
	<path id="XMLID_6022_" class="st2" d="M414,173.5H236c-2.2,0-4-1.8-4-4v-22c0-2.2,1.8-4,4-4H414c2.2,0,4,1.8,4,4v22
		C418,171.7,416.2,173.5,414,173.5z"/>
	<path id="XMLID_4250_" class="st3" d="M298,123.5H120c-2.2,0-4-1.8-4-4v-22c0-2.2,1.8-4,4-4H298c2.2,0,4,1.8,4,4v22
		C302,121.7,300.2,123.5,298,123.5z"/>
	<path id="XMLID_4253_" class="st4" d="M298,77.5H120c-2.2,0-4-1.8-4-4v-22c0-2.2,1.8-4,4-4H298c2.2,0,4,1.8,4,4v22
		C302,75.7,300.2,77.5,298,77.5z"/>
	<path id="XMLID_4203_" class="st5" d="M182.1,173.5H4c-2.2,0-4-1.8-4-4v-22c0-2.2,1.8-4,4-4h178.1c2.2,0,4,1.8,4,4v22
		C186.1,171.7,184.3,173.5,182.1,173.5z"/>
	<path id="XMLID_4206_" class="st6" d="M414,505.5H236c-2.2,0-4-1.8-4-4v-22c0-2.2,1.8-4,4-4H414c2.2,0,4,1.8,4,4v22
		C418,503.7,416.2,505.5,414,505.5z"/>
	<path id="XMLID_4205_" class="st7" d="M182.1,505.5H4c-2.2,0-4-1.8-4-4v-22c0-2.2,1.8-4,4-4h178.1c2.2,0,4,1.8,4,4v22
		C186.1,503.7,184.3,505.5,182.1,505.5z"/>
	<circle id="XMLID_4204_" class="st8" cx="210.2" cy="324" r="139.6"/>
	<circle id="XMLID_5234_" class="st1" cx="210.2" cy="324" r="28.3"/>
	<g id="XMLID_5236_">
		<path id="XMLID_5238_" class="st5" d="M205.7,198.9C140.1,201.2,87.4,253.9,85,319.5h88c2-17.1,15.6-30.6,32.7-32.7V198.9z"/>
		<path id="XMLID_5241_" class="st2" d="M214.7,198.9v88c17.1,2,30.6,15.6,32.7,32.7h88C333.1,253.9,280.3,201.2,214.7,198.9z"/>
	</g>
	<g id="XMLID_5239_">
		<path id="XMLID_5240_" class="st7" d="M205.7,361.2c-17.1-2-30.6-15.6-32.7-32.7H85c2.3,65.6,55.1,118.4,120.7,120.7V361.2z"/>
		<path id="XMLID_5243_" class="st6" d="M247.4,328.5c-2,17.1-15.6,30.6-32.7,32.7v88c65.6-2.3,118.4-55.1,120.7-120.7L247.4,328.5
			L247.4,328.5z"/>
	</g>
	<g>
		<path class="st0" d="M127.9,266.2H126l-0.8-2h-3.4l-0.7,2h-1.8l3.3-8.6h1.8L127.9,266.2z M124.7,262.8l-1.2-3.2l-1.2,3.2H124.7z"
			/>
		<path class="st0" d="M134.3,263.1l1.7,0.5c-0.3,0.9-0.7,1.6-1.3,2.1s-1.4,0.7-2.3,0.7c-1.1,0-2.1-0.4-2.8-1.2s-1.1-1.8-1.1-3.2
			c0-1.4,0.4-2.5,1.1-3.3s1.7-1.2,2.9-1.2c1.1,0,1.9,0.3,2.6,0.9c0.4,0.4,0.7,0.9,0.9,1.6l-1.7,0.4c-0.1-0.4-0.3-0.8-0.6-1.1
			s-0.7-0.4-1.2-0.4c-0.6,0-1.2,0.2-1.6,0.7s-0.6,1.2-0.6,2.2c0,1.1,0.2,1.9,0.6,2.3s0.9,0.7,1.5,0.7c0.5,0,0.9-0.1,1.2-0.4
			S134.1,263.7,134.3,263.1z"/>
		<path class="st0" d="M139.4,266.2v-7.1h-2.5v-1.5h6.8v1.5h-2.5v7.1H139.4z"/>
		<path class="st0" d="M144.8,257.6h1.7v4.7c0,0.7,0,1.2,0.1,1.4c0.1,0.4,0.3,0.6,0.5,0.8s0.7,0.3,1.1,0.3c0.5,0,0.9-0.1,1.1-0.3
			s0.4-0.4,0.5-0.7s0.1-0.8,0.1-1.5v-4.8h1.7v4.5c0,1,0,1.8-0.1,2.2s-0.3,0.8-0.5,1.1s-0.6,0.5-1,0.7s-1,0.3-1.7,0.3
			c-0.8,0-1.4-0.1-1.9-0.3s-0.8-0.4-1-0.7s-0.4-0.6-0.5-1c-0.1-0.5-0.2-1.2-0.2-2.2L144.8,257.6L144.8,257.6z"/>
		<path class="st0" d="M161.2,266.2h-1.9l-0.8-2h-3.4l-0.7,2h-1.8l3.3-8.6h1.8L161.2,266.2z M158,262.8l-1.2-3.2l-1.2,3.2H158z"/>
		<path class="st0" d="M167.6,263.1l1.7,0.5c-0.3,0.9-0.7,1.6-1.3,2.1s-1.4,0.7-2.3,0.7c-1.1,0-2.1-0.4-2.8-1.2s-1.1-1.8-1.1-3.2
			c0-1.4,0.4-2.5,1.1-3.3s1.7-1.2,2.9-1.2c1.1,0,1.9,0.3,2.6,0.9c0.4,0.4,0.7,0.9,0.9,1.6l-1.7,0.4c-0.1-0.4-0.3-0.8-0.6-1.1
			s-0.7-0.4-1.2-0.4c-0.6,0-1.2,0.2-1.6,0.7s-0.6,1.2-0.6,2.2c0,1.1,0.2,1.9,0.6,2.3s0.9,0.7,1.5,0.7c0.5,0,0.9-0.1,1.2-0.4
			S167.5,263.7,167.6,263.1z"/>
		<path class="st0" d="M170.7,266.2v-8.6h1.7v8.6H170.7z"/>
		<path class="st0" d="M173.7,262c0-0.9,0.1-1.6,0.4-2.2c0.2-0.4,0.5-0.8,0.8-1.2s0.7-0.6,1.1-0.8c0.5-0.2,1.2-0.3,1.9-0.3
			c1.3,0,2.3,0.4,3,1.2s1.1,1.9,1.1,3.3c0,1.4-0.4,2.5-1.1,3.3s-1.8,1.2-3,1.2c-1.3,0-2.3-0.4-3-1.2S173.7,263.3,173.7,262z
			 M175.5,261.9c0,1,0.2,1.7,0.7,2.2s1,0.8,1.7,0.8s1.3-0.2,1.7-0.7s0.7-1.2,0.7-2.2c0-1-0.2-1.7-0.6-2.2s-1-0.7-1.7-0.7
			s-1.3,0.2-1.7,0.7S175.5,260.9,175.5,261.9z M176.8,257.1l0.8-1.8h1.8l-1.6,1.8H176.8z"/>
		<path class="st0" d="M183.5,266.2v-8.6h1.7l3.5,5.7v-5.7h1.6v8.6h-1.7l-3.5-5.6v5.6H183.5z"/>
		<path class="st0" d="M154.2,280.2h-1.9l-0.8-2h-3.4l-0.7,2h-1.8l3.3-8.6h1.8L154.2,280.2z M151,276.8l-1.2-3.2l-1.2,3.2H151z"/>
		<path class="st0" d="M160.5,275.8l-1.6,0.3c-0.1-0.3-0.2-0.6-0.4-0.7s-0.4-0.2-0.8-0.2c-0.4,0-0.7,0.1-1,0.4s-0.4,0.8-0.4,1.4
			c0,0.7,0.1,1.3,0.4,1.6s0.6,0.5,1,0.5c0.3,0,0.6-0.1,0.8-0.3s0.3-0.5,0.4-0.9l1.6,0.3c-0.2,0.7-0.5,1.3-1,1.7s-1.1,0.6-1.9,0.6
			c-0.9,0-1.6-0.3-2.2-0.9s-0.8-1.4-0.8-2.4c0-1,0.3-1.8,0.8-2.4s1.3-0.9,2.2-0.9c0.8,0,1.4,0.2,1.8,0.5S160.3,275.2,160.5,275.8z"
			/>
		<path class="st0" d="M164.6,274v1.3h-1.1v2.5c0,0.5,0,0.8,0,0.9s0.1,0.2,0.1,0.2s0.2,0.1,0.3,0.1c0.2,0,0.4-0.1,0.7-0.2l0.1,1.3
			c-0.4,0.2-0.8,0.2-1.3,0.2c-0.3,0-0.6,0-0.8-0.1s-0.4-0.2-0.5-0.4s-0.2-0.4-0.2-0.6c0-0.2-0.1-0.6-0.1-1.2v-2.7h-0.8V274h0.8v-1.2
			l1.7-1v2.2L164.6,274L164.6,274z"/>
	</g>
	<g>
		<path class="st0" d="M219.3,266.2v-8.6h2.8c1.1,0,1.7,0,2.1,0.1c0.5,0.1,0.9,0.4,1.2,0.8s0.5,1,0.5,1.7c0,0.5-0.1,1-0.3,1.3
			s-0.4,0.6-0.7,0.8s-0.6,0.3-0.9,0.4c-0.4,0.1-1,0.1-1.8,0.1H221v3.2L219.3,266.2L219.3,266.2z M221,259.1v2.4h0.9
			c0.7,0,1.1,0,1.4-0.1s0.4-0.2,0.5-0.4s0.2-0.4,0.2-0.7c0-0.3-0.1-0.6-0.3-0.8s-0.4-0.3-0.7-0.4c-0.2,0-0.6-0.1-1.2-0.1L221,259.1
			L221,259.1z"/>
		<path class="st0" d="M227.3,266.2v-8.5h1.7v7.1h4.3v1.4L227.3,266.2L227.3,266.2z"/>
		<path class="st0" d="M242.4,266.2h-1.9l-0.8-2h-3.4l-0.7,2h-1.8l3.3-8.6h1.8L242.4,266.2z M239.2,262.8l-1.2-3.2l-1.2,3.2H239.2z"
			/>
		<path class="st0" d="M243.3,266.2v-8.6h1.7l3.5,5.7v-5.7h1.6v8.6h-1.7l-3.5-5.6v5.6H243.3z"/>
		<path class="st0" d="M251.9,266.2v-8.6h1.7v8.6H251.9z"/>
		<path class="st0" d="M255.3,266.2v-8.6h5.9v1.5H257v2h3.6v1.5H257v3.6L255.3,266.2L255.3,266.2z"/>
		<path class="st0" d="M262.6,266.2v-8.6h1.7v8.6H262.6z"/>
		<path class="st0" d="M271.4,263.1l1.7,0.5c-0.3,0.9-0.7,1.6-1.3,2.1s-1.4,0.7-2.3,0.7c-1.1,0-2.1-0.4-2.8-1.2s-1.1-1.8-1.1-3.2
			c0-1.4,0.4-2.5,1.1-3.3s1.7-1.2,2.9-1.2c1.1,0,1.9,0.3,2.6,0.9c0.4,0.4,0.7,0.9,0.9,1.6l-1.7,0.4c-0.1-0.4-0.3-0.8-0.6-1.1
			s-0.7-0.4-1.2-0.4c-0.6,0-1.2,0.2-1.5,0.7s-0.6,1.2-0.6,2.2c0,1.1,0.2,1.9,0.6,2.3s0.9,0.7,1.5,0.7c0.5,0,0.9-0.1,1.2-0.4
			S271.3,263.7,271.4,263.1z"/>
		<path class="st0" d="M282.4,266.2h-1.9l-0.8-2h-3.4l-0.7,2h-1.8l3.3-8.6h1.8L282.4,266.2z M279.2,262.8l-1.2-3.2l-1.2,3.2H279.2z"
			/>
		<path class="st0" d="M288.8,263.1l1.7,0.5c-0.3,0.9-0.7,1.6-1.3,2.1s-1.4,0.7-2.3,0.7c-1.1,0-2.1-0.4-2.8-1.2s-1.1-1.8-1.1-3.2
			c0-1.4,0.4-2.5,1.1-3.3s1.7-1.2,2.9-1.2c1.1,0,1.9,0.3,2.6,0.9c0.4,0.4,0.7,0.9,0.9,1.6l-1.7,0.4c-0.1-0.4-0.3-0.8-0.6-1.1
			s-0.7-0.4-1.2-0.4c-0.6,0-1.2,0.2-1.5,0.7s-0.6,1.2-0.6,2.2c0,1.1,0.2,1.9,0.6,2.3s0.9,0.7,1.5,0.7c0.5,0,0.9-0.1,1.2-0.4
			S288.6,263.7,288.8,263.1z"/>
		<path class="st0" d="M291.9,266.2v-8.6h1.7v8.6H291.9z"/>
		<path class="st0" d="M294.9,262c0-0.9,0.1-1.6,0.4-2.2c0.2-0.4,0.5-0.8,0.8-1.2s0.7-0.6,1.1-0.8c0.5-0.2,1.2-0.3,1.9-0.3
			c1.3,0,2.3,0.4,3,1.2s1.1,1.9,1.1,3.3c0,1.4-0.4,2.5-1.1,3.3s-1.8,1.2-3,1.2c-1.3,0-2.3-0.4-3-1.2S294.9,263.3,294.9,262z
			 M296.7,261.9c0,1,0.2,1.7,0.7,2.2s1,0.8,1.7,0.8s1.3-0.2,1.7-0.7s0.7-1.2,0.7-2.2c0-1-0.2-1.7-0.6-2.2s-1-0.7-1.7-0.7
			s-1.3,0.2-1.7,0.7S296.7,260.9,296.7,261.9z M298,257.1l0.8-1.8h1.8l-1.6,1.8H298z"/>
		<path class="st0" d="M304.6,266.2v-8.6h1.7l3.5,5.7v-5.7h1.6v8.6h-1.7l-3.5-5.6v5.6H304.6z"/>
		<path class="st0" d="M253.6,280.2v-8.6h2.8c1.1,0,1.7,0,2.1,0.1c0.5,0.1,0.9,0.4,1.2,0.8s0.5,1,0.5,1.7c0,0.5-0.1,1-0.3,1.3
			s-0.4,0.6-0.7,0.8s-0.6,0.3-0.9,0.4c-0.4,0.1-1,0.1-1.8,0.1h-1.1v3.2L253.6,280.2L253.6,280.2z M255.3,273.1v2.4h0.9
			c0.7,0,1.1,0,1.4-0.1s0.4-0.2,0.5-0.4s0.2-0.4,0.2-0.7c0-0.3-0.1-0.6-0.3-0.8s-0.4-0.3-0.7-0.4c-0.2,0-0.6-0.1-1.2-0.1
			L255.3,273.1L255.3,273.1z"/>
		<path class="st0" d="M261.6,280.2v-8.6h1.6v8.6H261.6z"/>
		<path class="st0" d="M266.2,275.9l-1.5-0.3c0.2-0.6,0.5-1,0.9-1.3s1-0.4,1.8-0.4c0.7,0,1.3,0.1,1.6,0.3s0.6,0.4,0.8,0.7
			s0.2,0.8,0.2,1.5l0,1.9c0,0.5,0,1,0.1,1.2s0.2,0.5,0.3,0.8h-1.6c0-0.1-0.1-0.3-0.2-0.5c0-0.1,0-0.2-0.1-0.2
			c-0.3,0.3-0.6,0.5-0.9,0.6s-0.7,0.2-1,0.2c-0.6,0-1.1-0.2-1.5-0.5s-0.6-0.8-0.6-1.3c0-0.4,0.1-0.7,0.3-0.9s0.4-0.5,0.7-0.6
			s0.7-0.3,1.3-0.4c0.8-0.1,1.3-0.3,1.6-0.4V276c0-0.3-0.1-0.5-0.2-0.7s-0.5-0.2-0.9-0.2c-0.3,0-0.5,0.1-0.7,0.2
			S266.3,275.6,266.2,275.9z M268.4,277.2c-0.2,0.1-0.5,0.2-1,0.3s-0.8,0.2-0.9,0.3c-0.2,0.2-0.3,0.3-0.3,0.6c0,0.2,0.1,0.4,0.3,0.6
			s0.4,0.3,0.7,0.3c0.3,0,0.6-0.1,0.9-0.3c0.2-0.1,0.3-0.3,0.4-0.5c0-0.1,0.1-0.4,0.1-0.8L268.4,277.2L268.4,277.2z"/>
		<path class="st0" d="M277.3,280.2h-1.6V277c0-0.7,0-1.1-0.1-1.3s-0.2-0.4-0.3-0.5s-0.3-0.2-0.6-0.2c-0.3,0-0.5,0.1-0.8,0.2
			s-0.4,0.4-0.5,0.6s-0.1,0.7-0.1,1.4v2.8h-1.6V274h1.5v0.9c0.5-0.7,1.2-1.1,2.1-1.1c0.4,0,0.7,0.1,1,0.2s0.5,0.3,0.7,0.5
			s0.3,0.4,0.3,0.7s0.1,0.6,0.1,1.1L277.3,280.2L277.3,280.2z"/>
	</g>
	<g>
		<path class="st0" d="M126.1,385.7v-8.6h2.6l1.6,5.9l1.5-5.9h2.6v8.6h-1.6v-6.8l-1.7,6.8h-1.7l-1.7-6.8v6.8H126.1z"/>
		<path class="st0" d="M136.1,385.7v-8.6h6.4v1.5h-4.6v1.9h4.3v1.4h-4.3v2.3h4.8v1.4L136.1,385.7L136.1,385.7z"/>
		<path class="st0" d="M144.1,377.1h3.2c0.7,0,1.3,0.1,1.6,0.2c0.5,0.1,0.9,0.4,1.3,0.8s0.6,0.8,0.8,1.4s0.3,1.2,0.3,2
			c0,0.7-0.1,1.3-0.3,1.8c-0.2,0.6-0.5,1.1-0.9,1.5c-0.3,0.3-0.7,0.5-1.2,0.7c-0.4,0.1-0.9,0.2-1.5,0.2h-3.3L144.1,377.1
			L144.1,377.1z M145.8,378.5v5.7h1.3c0.5,0,0.8,0,1-0.1c0.3-0.1,0.5-0.2,0.7-0.4s0.3-0.4,0.5-0.8s0.2-0.9,0.2-1.6s-0.1-1.2-0.2-1.5
			s-0.3-0.6-0.5-0.8s-0.5-0.3-0.8-0.4c-0.2-0.1-0.7-0.1-1.4-0.1L145.8,378.5L145.8,378.5z"/>
		<path class="st0" d="M152.7,385.7v-8.6h1.7v8.6H152.7z"/>
		<path class="st0" d="M161.6,382.5l1.7,0.5c-0.3,0.9-0.7,1.6-1.3,2.1s-1.4,0.7-2.3,0.7c-1.1,0-2.1-0.4-2.8-1.2s-1.1-1.8-1.1-3.2
			c0-1.4,0.4-2.5,1.1-3.3s1.7-1.2,2.9-1.2c1.1,0,1.9,0.3,2.6,0.9c0.4,0.4,0.7,0.9,0.9,1.6l-1.7,0.4c-0.1-0.4-0.3-0.8-0.6-1.1
			s-0.7-0.4-1.2-0.4c-0.6,0-1.2,0.2-1.6,0.7s-0.6,1.2-0.6,2.2c0,1.1,0.2,1.9,0.6,2.3s0.9,0.7,1.5,0.7c0.5,0,0.9-0.1,1.2-0.4
			S161.5,383.1,161.6,382.5z"/>
		<path class="st0" d="M164.7,385.7v-8.6h1.7v8.6H164.7z"/>
		<path class="st0" d="M167.8,381.4c0-0.9,0.1-1.6,0.4-2.2c0.2-0.4,0.5-0.8,0.8-1.2s0.7-0.6,1.1-0.8c0.5-0.2,1.2-0.3,1.9-0.3
			c1.3,0,2.3,0.4,3,1.2s1.1,1.9,1.1,3.3c0,1.4-0.4,2.5-1.1,3.3s-1.8,1.2-3,1.2c-1.3,0-2.3-0.4-3-1.2S167.8,382.8,167.8,381.4z
			 M169.5,381.4c0,1,0.2,1.7,0.7,2.2s1,0.8,1.7,0.8s1.3-0.2,1.7-0.7s0.7-1.2,0.7-2.2c0-1-0.2-1.7-0.6-2.2s-1-0.7-1.7-0.7
			s-1.3,0.2-1.7,0.7S169.5,380.4,169.5,381.4z M170.9,376.6l0.8-1.8h1.8l-1.6,1.8H170.9z"/>
		<path class="st0" d="M177.5,385.7v-8.6h1.7l3.5,5.7v-5.7h1.6v8.6h-1.7l-3.5-5.6v5.6H177.5z"/>
		<path class="st0" d="M143.6,396.5l1.7,0.5c-0.3,0.9-0.7,1.6-1.3,2.1s-1.4,0.7-2.3,0.7c-1.1,0-2.1-0.4-2.8-1.2s-1.1-1.8-1.1-3.2
			c0-1.4,0.4-2.5,1.1-3.3s1.7-1.2,2.9-1.2c1.1,0,1.9,0.3,2.6,0.9c0.4,0.4,0.7,0.9,0.9,1.6l-1.7,0.4c-0.1-0.4-0.3-0.8-0.6-1.1
			s-0.7-0.4-1.2-0.4c-0.6,0-1.2,0.2-1.6,0.7s-0.6,1.2-0.6,2.2c0,1.1,0.2,1.9,0.6,2.3s0.9,0.7,1.5,0.7c0.5,0,0.9-0.1,1.2-0.4
			S143.4,397.1,143.6,396.5z"/>
		<path class="st0" d="M148.4,391.1v3.2c0.5-0.6,1.2-0.9,1.9-0.9c0.4,0,0.7,0.1,1,0.2s0.5,0.3,0.7,0.5s0.3,0.5,0.3,0.7
			s0.1,0.7,0.1,1.2v3.6h-1.6v-3.3c0-0.7,0-1.1-0.1-1.2s-0.2-0.3-0.3-0.4s-0.4-0.2-0.6-0.2c-0.3,0-0.5,0.1-0.7,0.2s-0.4,0.3-0.5,0.6
			s-0.1,0.7-0.1,1.2v3.1h-1.6v-8.6L148.4,391.1L148.4,391.1z"/>
		<path class="st0" d="M157.7,397.7l1.6,0.3c-0.2,0.6-0.5,1.1-1,1.4s-1,0.5-1.7,0.5c-1.1,0-1.9-0.4-2.4-1.1
			c-0.4-0.6-0.6-1.3-0.6-2.1c0-1,0.3-1.8,0.8-2.4s1.2-0.9,2-0.9c0.9,0,1.7,0.3,2.2,0.9s0.8,1.5,0.8,2.8h-4.1c0,0.5,0.1,0.9,0.4,1.1
			s0.6,0.4,0.9,0.4c0.3,0,0.5-0.1,0.6-0.2S157.6,398,157.7,397.7z M157.8,396c0-0.5-0.1-0.8-0.4-1.1s-0.5-0.4-0.9-0.4
			c-0.4,0-0.7,0.1-0.9,0.4s-0.4,0.6-0.3,1.1L157.8,396L157.8,396z"/>
		<path class="st0" d="M166.2,395.3l-1.6,0.3c-0.1-0.3-0.2-0.6-0.4-0.7s-0.4-0.2-0.8-0.2c-0.4,0-0.7,0.1-1,0.4s-0.4,0.8-0.4,1.4
			c0,0.7,0.1,1.3,0.4,1.6s0.6,0.5,1,0.5c0.3,0,0.6-0.1,0.8-0.3s0.3-0.5,0.4-0.9l1.6,0.3c-0.2,0.7-0.5,1.3-1,1.7s-1.1,0.6-1.9,0.6
			c-0.9,0-1.6-0.3-2.2-0.9s-0.8-1.4-0.8-2.4c0-1,0.3-1.8,0.8-2.4s1.3-0.9,2.2-0.9c0.8,0,1.4,0.2,1.8,0.5S166,394.6,166.2,395.3z"/>
		<path class="st0" d="M167.4,399.7v-8.6h1.6v4.6l1.9-2.2h2l-2.1,2.3l2.3,3.9h-1.8l-1.6-2.8l-0.8,0.8v2H167.4z"/>
	</g>
	<g>
		<path class="st0" d="M29.6,490.5h1.6c0,0.3,0,0.4,0,0.5c0,0.5-0.1,0.9-0.3,1.3s-0.6,0.8-1.1,1.2c-0.5,0.4-0.9,0.8-1,0.9
			s-0.2,0.4-0.2,0.6c0,0.3,0.1,0.6,0.4,0.9c0.3,0.3,0.7,0.4,1.1,0.4c0.5,0,0.8-0.1,1.1-0.4c0.3-0.3,0.5-0.7,0.6-1.2l1.7,0.2
			c-0.1,0.5-0.2,1-0.5,1.3c-0.3,0.5-0.7,0.8-1.2,1.1c-0.5,0.2-1.1,0.3-1.7,0.3c-1,0-1.9-0.3-2.5-0.8c-0.6-0.5-0.9-1.2-0.9-1.9
			c0-0.3,0.1-0.5,0.2-0.8c0.1-0.3,0.3-0.5,0.5-0.8s0.6-0.6,1.1-1c0.4-0.3,0.6-0.6,0.7-0.8C29.5,491.3,29.6,491,29.6,490.5z
			 M31.2,488v1.8h-1.8V488H31.2z"/>
		<path class="st0" d="M41.4,491.4l1.9,0.6c-0.3,1-0.8,1.8-1.4,2.3c-0.7,0.5-1.5,0.8-2.5,0.8c-1.3,0-2.3-0.4-3.1-1.3
			c-0.8-0.9-1.2-2-1.2-3.5c0-1.6,0.4-2.8,1.2-3.7s1.9-1.3,3.2-1.3c1.2,0,2.1,0.3,2.8,1c0.4,0.4,0.8,1,1,1.7l-1.9,0.5
			c-0.1-0.5-0.3-0.9-0.7-1.2c-0.4-0.3-0.8-0.4-1.3-0.4c-0.7,0-1.3,0.3-1.7,0.8c-0.4,0.5-0.7,1.3-0.7,2.4c0,1.2,0.2,2,0.6,2.6
			c0.4,0.5,1,0.8,1.7,0.8c0.5,0,0.9-0.2,1.3-0.5S41.2,492.1,41.4,491.4z"/>
		<path class="st0" d="M44.4,491.4c0-0.6,0.1-1.2,0.4-1.7c0.3-0.6,0.7-1,1.3-1.3c0.5-0.3,1.2-0.4,1.8-0.4c1,0,1.9,0.3,2.5,1
			s1,1.5,1,2.5c0,1-0.3,1.9-1,2.6c-0.7,0.7-1.5,1-2.5,1c-0.6,0-1.2-0.1-1.8-0.4c-0.6-0.3-1-0.7-1.3-1.2S44.4,492.1,44.4,491.4z
			 M46.3,491.5c0,0.7,0.2,1.2,0.5,1.6c0.3,0.4,0.7,0.5,1.2,0.5c0.5,0,0.9-0.2,1.2-0.5c0.3-0.4,0.5-0.9,0.5-1.6
			c0-0.7-0.2-1.2-0.5-1.5c-0.3-0.4-0.7-0.5-1.2-0.5c-0.5,0-0.9,0.2-1.2,0.5C46.4,490.3,46.3,490.8,46.3,491.5z M47,487.2l0.9-1.9h2
			l-1.8,1.9H47z"/>
		<path class="st0" d="M52.8,488h1.7v0.9c0.6-0.7,1.3-1.1,2.1-1.1c0.4,0,0.8,0.1,1.1,0.3c0.3,0.2,0.6,0.5,0.8,0.8
			c0.3-0.4,0.6-0.6,1-0.8c0.3-0.2,0.7-0.3,1.1-0.3c0.5,0,0.9,0.1,1.3,0.3s0.6,0.5,0.8,0.9c0.1,0.3,0.2,0.8,0.2,1.4v4.4H61V491
			c0-0.7-0.1-1.1-0.2-1.3c-0.2-0.3-0.4-0.4-0.8-0.4c-0.3,0-0.5,0.1-0.7,0.2s-0.4,0.4-0.5,0.7s-0.1,0.8-0.1,1.4v3.3h-1.8v-3.8
			c0-0.7,0-1.1-0.1-1.3c-0.1-0.2-0.2-0.3-0.3-0.4c-0.1-0.1-0.3-0.1-0.6-0.1c-0.3,0-0.5,0.1-0.8,0.2s-0.4,0.4-0.5,0.7
			c-0.1,0.3-0.1,0.8-0.1,1.4v3.3h-1.8L52.8,488L52.8,488z"/>
		<path class="st0" d="M64.2,491.4c0-0.6,0.1-1.2,0.4-1.7s0.7-1,1.3-1.3c0.5-0.3,1.2-0.4,1.8-0.4c1,0,1.9,0.3,2.5,1
			c0.7,0.7,1,1.5,1,2.5c0,1-0.3,1.9-1,2.6c-0.7,0.7-1.5,1-2.5,1c-0.6,0-1.2-0.1-1.8-0.4c-0.6-0.3-1-0.7-1.3-1.2
			S64.2,492.1,64.2,491.4z M66.1,491.5c0,0.7,0.2,1.2,0.5,1.6c0.3,0.4,0.7,0.5,1.2,0.5s0.9-0.2,1.2-0.5c0.3-0.4,0.5-0.9,0.5-1.6
			c0-0.7-0.2-1.2-0.5-1.5c-0.3-0.4-0.7-0.5-1.2-0.5s-0.9,0.2-1.2,0.5C66.2,490.3,66.1,490.8,66.1,491.5z"/>
		<path class="st0" d="M75.7,492.9l1.8-0.3c0.1,0.4,0.2,0.6,0.5,0.8c0.2,0.2,0.6,0.3,1,0.3c0.5,0,0.8-0.1,1.1-0.3
			c0.2-0.1,0.2-0.3,0.2-0.5c0-0.1,0-0.3-0.1-0.3c-0.1-0.1-0.3-0.2-0.6-0.2c-1.5-0.3-2.4-0.6-2.8-0.9c-0.5-0.4-0.8-0.9-0.8-1.5
			c0-0.6,0.2-1.1,0.7-1.5c0.5-0.4,1.2-0.6,2.2-0.6c0.9,0,1.6,0.2,2.1,0.5c0.5,0.3,0.8,0.8,0.9,1.4l-1.7,0.3
			c-0.1-0.3-0.2-0.5-0.4-0.6c-0.2-0.1-0.5-0.2-0.9-0.2c-0.5,0-0.8,0.1-1,0.2c-0.1,0.1-0.2,0.2-0.2,0.4c0,0.1,0.1,0.2,0.2,0.3
			c0.2,0.1,0.7,0.3,1.7,0.5s1.6,0.5,2,0.8c0.4,0.3,0.6,0.8,0.6,1.3c0,0.6-0.3,1.2-0.8,1.6c-0.5,0.5-1.3,0.7-2.3,0.7
			c-0.9,0-1.7-0.2-2.2-0.6C76.2,494.1,75.9,493.6,75.7,492.9z"/>
		<path class="st0" d="M87.7,492.7l1.8,0.3c-0.2,0.7-0.6,1.2-1.1,1.5s-1.1,0.5-1.9,0.5c-1.2,0-2.1-0.4-2.6-1.2
			c-0.5-0.6-0.7-1.4-0.7-2.4c0-1.1,0.3-2,0.9-2.7c0.6-0.6,1.3-1,2.2-1c1,0,1.8,0.3,2.4,1c0.6,0.7,0.9,1.7,0.8,3.1H85
			c0,0.5,0.2,1,0.4,1.3c0.3,0.3,0.6,0.4,1,0.4c0.3,0,0.5-0.1,0.7-0.2C87.4,493.3,87.6,493,87.7,492.7z M87.8,490.9
			c0-0.5-0.1-0.9-0.4-1.2s-0.6-0.4-0.9-0.4c-0.4,0-0.7,0.1-1,0.4c-0.3,0.3-0.4,0.7-0.4,1.2H87.8z"/>
		<path class="st0" d="M96.5,485.4v3.5c0.6-0.7,1.3-1,2.1-1c0.4,0,0.8,0.1,1.1,0.2c0.3,0.2,0.6,0.4,0.8,0.6c0.2,0.2,0.3,0.5,0.3,0.8
			c0.1,0.3,0.1,0.7,0.1,1.4v4h-1.8v-3.6c0-0.7,0-1.2-0.1-1.4c-0.1-0.2-0.2-0.3-0.4-0.5s-0.4-0.2-0.7-0.2c-0.3,0-0.6,0.1-0.8,0.2
			c-0.2,0.1-0.4,0.4-0.5,0.7c-0.1,0.3-0.2,0.7-0.2,1.3v3.4h-1.8v-9.4L96.5,485.4L96.5,485.4z"/>
		<path class="st0" d="M104.1,490.1l-1.6-0.3c0.2-0.7,0.5-1.2,1-1.5s1.1-0.5,2-0.5c0.8,0,1.4,0.1,1.8,0.3c0.4,0.2,0.7,0.4,0.8,0.7
			c0.2,0.3,0.2,0.8,0.2,1.6l0,2.1c0,0.6,0,1,0.1,1.3c0.1,0.3,0.2,0.6,0.3,0.9h-1.8c0-0.1-0.1-0.3-0.2-0.5c0-0.1-0.1-0.2-0.1-0.2
			c-0.3,0.3-0.6,0.5-1,0.7c-0.4,0.1-0.7,0.2-1.1,0.2c-0.7,0-1.3-0.2-1.7-0.6c-0.4-0.4-0.6-0.9-0.6-1.4c0-0.4,0.1-0.7,0.3-1
			c0.2-0.3,0.4-0.5,0.8-0.7c0.3-0.2,0.8-0.3,1.4-0.4c0.8-0.2,1.4-0.3,1.8-0.4v-0.2c0-0.3-0.1-0.6-0.3-0.7c-0.2-0.1-0.5-0.2-1-0.2
			c-0.3,0-0.6,0.1-0.8,0.2C104.4,489.6,104.2,489.8,104.1,490.1z M106.5,491.6c-0.2,0.1-0.6,0.2-1.1,0.3s-0.8,0.2-1,0.3
			c-0.2,0.2-0.4,0.4-0.4,0.6c0,0.3,0.1,0.5,0.3,0.7c0.2,0.2,0.4,0.3,0.7,0.3c0.3,0,0.6-0.1,0.9-0.3c0.2-0.2,0.4-0.4,0.4-0.6
			c0-0.2,0.1-0.4,0.1-0.9L106.5,491.6L106.5,491.6z"/>
		<path class="st0" d="M115.6,485.4v3.5c0.6-0.7,1.3-1,2.1-1c0.4,0,0.8,0.1,1.1,0.2c0.3,0.2,0.6,0.4,0.8,0.6
			c0.2,0.2,0.3,0.5,0.3,0.8c0.1,0.3,0.1,0.7,0.1,1.4v4h-1.8v-3.6c0-0.7,0-1.2-0.1-1.4c-0.1-0.2-0.2-0.3-0.4-0.5s-0.4-0.2-0.7-0.2
			c-0.3,0-0.6,0.1-0.8,0.2c-0.2,0.1-0.4,0.4-0.5,0.7c-0.1,0.3-0.2,0.7-0.2,1.3v3.4h-1.8v-9.4L115.6,485.4L115.6,485.4z"/>
		<path class="st0" d="M125.8,492.7l1.8,0.3c-0.2,0.7-0.6,1.2-1.1,1.5c-0.5,0.3-1.1,0.5-1.9,0.5c-1.2,0-2.1-0.4-2.6-1.2
			c-0.5-0.6-0.7-1.4-0.7-2.4c0-1.1,0.3-2,0.9-2.7c0.6-0.6,1.3-1,2.2-1c1,0,1.8,0.3,2.4,1c0.6,0.7,0.9,1.7,0.8,3.1h-4.5
			c0,0.5,0.2,1,0.4,1.3c0.3,0.3,0.6,0.4,1,0.4c0.3,0,0.5-0.1,0.7-0.2S125.7,493,125.8,492.7z M125.9,490.9c0-0.5-0.1-0.9-0.4-1.2
			s-0.6-0.4-0.9-0.4c-0.4,0-0.7,0.1-1,0.4c-0.3,0.3-0.4,0.7-0.4,1.2H125.9z"/>
		<path class="st0" d="M135.2,490.1l-1.8,0.3c-0.1-0.4-0.2-0.6-0.4-0.8c-0.2-0.2-0.5-0.3-0.8-0.3c-0.5,0-0.8,0.2-1.1,0.5
			c-0.3,0.3-0.4,0.8-0.4,1.6c0,0.8,0.1,1.4,0.4,1.7s0.6,0.5,1.1,0.5c0.3,0,0.6-0.1,0.8-0.3c0.2-0.2,0.4-0.5,0.5-1l1.8,0.3
			c-0.2,0.8-0.5,1.4-1.1,1.9s-1.2,0.6-2.1,0.6c-1,0-1.8-0.3-2.4-0.9c-0.6-0.6-0.9-1.5-0.9-2.6c0-1.1,0.3-2,0.9-2.6
			c0.6-0.6,1.4-0.9,2.4-0.9c0.8,0,1.5,0.2,2,0.5S134.9,489.3,135.2,490.1z"/>
		<path class="st0" d="M138.3,485.4v3.5c0.6-0.7,1.3-1,2.1-1c0.4,0,0.8,0.1,1.1,0.2c0.3,0.2,0.6,0.4,0.8,0.6
			c0.2,0.2,0.3,0.5,0.3,0.8c0.1,0.3,0.1,0.7,0.1,1.4v4h-1.8v-3.6c0-0.7,0-1.2-0.1-1.4c-0.1-0.2-0.2-0.3-0.4-0.5s-0.4-0.2-0.7-0.2
			c-0.3,0-0.6,0.1-0.8,0.2c-0.2,0.1-0.4,0.4-0.5,0.7c-0.1,0.3-0.2,0.7-0.2,1.3v3.4h-1.8v-9.4L138.3,485.4L138.3,485.4z"/>
		<path class="st0" d="M144.2,491.4c0-0.6,0.1-1.2,0.4-1.7s0.7-1,1.3-1.3c0.5-0.3,1.2-0.4,1.8-0.4c1,0,1.9,0.3,2.5,1
			c0.7,0.7,1,1.5,1,2.5c0,1-0.3,1.9-1,2.6c-0.7,0.7-1.5,1-2.5,1c-0.6,0-1.2-0.1-1.8-0.4c-0.6-0.3-1-0.7-1.3-1.2
			C144.3,492.8,144.2,492.1,144.2,491.4z M146,491.5c0,0.7,0.2,1.2,0.5,1.6c0.3,0.4,0.7,0.5,1.2,0.5s0.9-0.2,1.2-0.5
			c0.3-0.4,0.5-0.9,0.5-1.6c0-0.7-0.2-1.2-0.5-1.5c-0.3-0.4-0.7-0.5-1.2-0.5s-0.9,0.2-1.2,0.5C146.2,490.3,146,490.8,146,491.5z"/>
		<path class="st0" d="M156.5,492.4h-1.6c0-0.2,0-0.4,0-0.4c0-0.5,0.1-1,0.3-1.3c0.2-0.3,0.5-0.7,1.1-1.2c0.5-0.4,0.8-0.7,0.9-0.8
			c0.2-0.2,0.2-0.4,0.2-0.7c0-0.4-0.1-0.7-0.4-0.9c-0.3-0.3-0.7-0.4-1.1-0.4c-0.5,0-0.8,0.1-1.2,0.4c-0.3,0.3-0.5,0.7-0.6,1.2
			l-1.7-0.2c0-0.8,0.4-1.4,1-2c0.6-0.5,1.4-0.8,2.4-0.8c1,0,1.9,0.3,2.5,0.8c0.6,0.5,0.9,1.2,0.9,1.9c0,0.4-0.1,0.8-0.3,1.1
			c-0.2,0.4-0.7,0.8-1.4,1.5c-0.4,0.3-0.6,0.6-0.7,0.8C156.6,491.6,156.5,491.9,156.5,492.4z M154.9,494.9v-1.8h1.8v1.8H154.9z"/>
	</g>
	<g>
		<path class="st0" d="M263.2,494.9v-9.4h1.9v3.7h3.7v-3.7h1.9v9.4h-1.9v-4.1h-3.7v4.1H263.2z"/>
		<path class="st0" d="M274.1,490.1l-1.6-0.3c0.2-0.7,0.5-1.2,1-1.5c0.5-0.3,1.1-0.5,2-0.5c0.8,0,1.4,0.1,1.8,0.3
			c0.4,0.2,0.7,0.4,0.8,0.7c0.2,0.3,0.2,0.8,0.2,1.6l0,2.1c0,0.6,0,1,0.1,1.3c0.1,0.3,0.2,0.6,0.3,0.9h-1.8c0-0.1-0.1-0.3-0.2-0.5
			c0-0.1-0.1-0.2-0.1-0.2c-0.3,0.3-0.6,0.5-1,0.7c-0.4,0.1-0.7,0.2-1.1,0.2c-0.7,0-1.3-0.2-1.7-0.6c-0.4-0.4-0.6-0.9-0.6-1.4
			c0-0.4,0.1-0.7,0.3-1c0.2-0.3,0.4-0.5,0.8-0.7c0.3-0.2,0.8-0.3,1.4-0.4c0.8-0.2,1.4-0.3,1.8-0.4v-0.2c0-0.3-0.1-0.6-0.3-0.7
			c-0.2-0.1-0.5-0.2-1-0.2c-0.3,0-0.6,0.1-0.8,0.2S274.2,489.8,274.1,490.1z M276.5,491.6c-0.2,0.1-0.6,0.2-1.1,0.3
			c-0.5,0.1-0.8,0.2-1,0.3c-0.2,0.2-0.4,0.4-0.4,0.6c0,0.3,0.1,0.5,0.3,0.7c0.2,0.2,0.4,0.3,0.7,0.3c0.3,0,0.6-0.1,0.9-0.3
			c0.2-0.2,0.4-0.4,0.4-0.6c0-0.2,0.1-0.4,0.1-0.9L276.5,491.6L276.5,491.6z"/>
		<path class="st0" d="M286,490.1l-1.8,0.3c-0.1-0.4-0.2-0.6-0.4-0.8c-0.2-0.2-0.5-0.3-0.8-0.3c-0.5,0-0.8,0.2-1.1,0.5
			c-0.3,0.3-0.4,0.8-0.4,1.6c0,0.8,0.1,1.4,0.4,1.7c0.3,0.3,0.6,0.5,1.1,0.5c0.3,0,0.6-0.1,0.8-0.3c0.2-0.2,0.4-0.5,0.5-1l1.8,0.3
			c-0.2,0.8-0.5,1.4-1.1,1.9s-1.2,0.6-2.1,0.6c-1,0-1.8-0.3-2.4-0.9c-0.6-0.6-0.9-1.5-0.9-2.6c0-1.1,0.3-2,0.9-2.6
			c0.6-0.6,1.4-0.9,2.4-0.9c0.8,0,1.5,0.2,2,0.5C285.5,488.8,285.8,489.3,286,490.1z"/>
		<path class="st0" d="M291.4,492.7l1.8,0.3c-0.2,0.7-0.6,1.2-1.1,1.5s-1.1,0.5-1.9,0.5c-1.2,0-2.1-0.4-2.6-1.2
			c-0.5-0.6-0.7-1.4-0.7-2.4c0-1.1,0.3-2,0.9-2.7s1.3-1,2.2-1c1,0,1.8,0.3,2.4,1s0.9,1.7,0.8,3.1h-4.5c0,0.5,0.2,1,0.4,1.3
			c0.3,0.3,0.6,0.4,1,0.4c0.3,0,0.5-0.1,0.7-0.2S291.3,493,291.4,492.7z M291.5,490.9c0-0.5-0.1-0.9-0.4-1.2
			c-0.3-0.3-0.6-0.4-0.9-0.4c-0.4,0-0.7,0.1-1,0.4c-0.3,0.3-0.4,0.7-0.4,1.2H291.5z"/>
		<path class="st0" d="M296.5,494.9h-1.8V488h1.7v1c0.3-0.5,0.5-0.8,0.8-0.9s0.5-0.2,0.8-0.2c0.4,0,0.8,0.1,1.2,0.3l-0.6,1.6
			c-0.3-0.2-0.6-0.3-0.9-0.3c-0.3,0-0.5,0.1-0.6,0.2s-0.3,0.4-0.4,0.8c-0.1,0.4-0.2,1.1-0.2,2.3L296.5,494.9L296.5,494.9z"/>
		<path class="st0" d="M303.6,494.9v-9.4h1.8v9.4H303.6z"/>
		<path class="st0" d="M306.8,491.4c0-0.6,0.1-1.2,0.4-1.7c0.3-0.6,0.7-1,1.3-1.3c0.5-0.3,1.1-0.4,1.8-0.4c1,0,1.9,0.3,2.5,1
			c0.7,0.7,1,1.5,1,2.5c0,1-0.3,1.9-1,2.6s-1.5,1-2.5,1c-0.6,0-1.2-0.1-1.8-0.4c-0.6-0.3-1-0.7-1.3-1.2S306.8,492.1,306.8,491.4z
			 M308.7,491.5c0,0.7,0.2,1.2,0.5,1.6c0.3,0.4,0.7,0.5,1.2,0.5c0.5,0,0.9-0.2,1.2-0.5c0.3-0.4,0.5-0.9,0.5-1.6
			c0-0.7-0.2-1.2-0.5-1.5c-0.3-0.4-0.7-0.5-1.2-0.5s-0.9,0.2-1.2,0.5C308.8,490.3,308.7,490.8,308.7,491.5z"/>
		<path class="st0" d="M318.9,488h1.7v1c0.2-0.3,0.5-0.6,0.9-0.8s0.8-0.3,1.2-0.3c0.8,0,1.5,0.3,2,0.9c0.6,0.6,0.8,1.5,0.8,2.6
			c0,1.1-0.3,2-0.8,2.7c-0.6,0.6-1.2,1-2,1c-0.4,0-0.7-0.1-1-0.2c-0.3-0.2-0.6-0.4-1-0.8v3.4h-1.8L318.9,488L318.9,488z
			 M320.7,491.3c0,0.8,0.2,1.3,0.5,1.7c0.3,0.4,0.7,0.6,1.1,0.6c0.4,0,0.8-0.2,1.1-0.5s0.4-0.9,0.4-1.7c0-0.7-0.1-1.3-0.4-1.6
			c-0.3-0.3-0.6-0.5-1.1-0.5c-0.4,0-0.8,0.2-1.1,0.5S320.7,490.7,320.7,491.3z"/>
		<path class="st0" d="M327,494.9v-9.4h1.8v9.4H327z"/>
		<path class="st0" d="M332,490.1l-1.6-0.3c0.2-0.7,0.5-1.2,1-1.5c0.5-0.3,1.1-0.5,2-0.5c0.8,0,1.4,0.1,1.8,0.3
			c0.4,0.2,0.7,0.4,0.8,0.7c0.2,0.3,0.2,0.8,0.2,1.6l0,2.1c0,0.6,0,1,0.1,1.3c0.1,0.3,0.2,0.6,0.3,0.9h-1.8c0-0.1-0.1-0.3-0.2-0.5
			c0-0.1-0.1-0.2-0.1-0.2c-0.3,0.3-0.6,0.5-1,0.7c-0.4,0.1-0.7,0.2-1.1,0.2c-0.7,0-1.3-0.2-1.7-0.6c-0.4-0.4-0.6-0.9-0.6-1.4
			c0-0.4,0.1-0.7,0.3-1c0.2-0.3,0.4-0.5,0.8-0.7c0.3-0.2,0.8-0.3,1.4-0.4c0.8-0.2,1.4-0.3,1.8-0.4v-0.2c0-0.3-0.1-0.6-0.3-0.7
			c-0.2-0.1-0.5-0.2-1-0.2c-0.3,0-0.6,0.1-0.8,0.2S332.2,489.8,332,490.1z M334.5,491.6c-0.2,0.1-0.6,0.2-1.1,0.3
			c-0.5,0.1-0.8,0.2-1,0.3c-0.2,0.2-0.4,0.4-0.4,0.6c0,0.3,0.1,0.5,0.3,0.7c0.2,0.2,0.4,0.3,0.7,0.3c0.3,0,0.6-0.1,0.9-0.3
			c0.2-0.2,0.4-0.4,0.4-0.6c0-0.2,0.1-0.4,0.1-0.9L334.5,491.6L334.5,491.6z"/>
		<path class="st0" d="M344.3,494.9h-1.8v-3.5c0-0.7,0-1.2-0.1-1.4c-0.1-0.2-0.2-0.4-0.4-0.5c-0.2-0.1-0.4-0.2-0.6-0.2
			c-0.3,0-0.6,0.1-0.8,0.3c-0.2,0.2-0.4,0.4-0.5,0.7c-0.1,0.3-0.1,0.8-0.1,1.6v3.1H338V488h1.7v1c0.6-0.8,1.3-1.2,2.3-1.2
			c0.4,0,0.8,0.1,1.1,0.2c0.3,0.1,0.6,0.3,0.8,0.6c0.2,0.2,0.3,0.5,0.4,0.8s0.1,0.7,0.1,1.2L344.3,494.9L344.3,494.9z"/>
		<path class="st0" d="M346.1,487.1v-1.7h1.8v1.7H346.1z M346.1,494.9V488h1.8v6.8H346.1z"/>
		<path class="st0" d="M349,488h1v-0.5c0-0.6,0.1-1,0.2-1.3c0.1-0.3,0.3-0.5,0.7-0.7c0.3-0.2,0.7-0.3,1.2-0.3c0.5,0,1,0.1,1.5,0.2
			l-0.2,1.3c-0.3-0.1-0.6-0.1-0.8-0.1c-0.3,0-0.4,0.1-0.6,0.2c-0.1,0.1-0.2,0.4-0.2,0.7v0.5h1.4v1.4h-1.4v5.4H350v-5.4h-1V488z"/>
		<path class="st0" d="M354.2,487.1v-1.7h1.8v1.7H354.2z M354.2,494.9V488h1.8v6.8H354.2z"/>
		<path class="st0" d="M363.8,490.1l-1.8,0.3c-0.1-0.4-0.2-0.6-0.4-0.8c-0.2-0.2-0.5-0.3-0.8-0.3c-0.5,0-0.8,0.2-1.1,0.5
			c-0.3,0.3-0.4,0.8-0.4,1.6c0,0.8,0.1,1.4,0.4,1.7c0.3,0.3,0.6,0.5,1.1,0.5c0.3,0,0.6-0.1,0.8-0.3c0.2-0.2,0.4-0.5,0.5-1l1.8,0.3
			c-0.2,0.8-0.5,1.4-1.1,1.9s-1.2,0.6-2.1,0.6c-1,0-1.8-0.3-2.4-0.9c-0.6-0.6-0.9-1.5-0.9-2.6c0-1.1,0.3-2,0.9-2.6
			c0.6-0.6,1.4-0.9,2.4-0.9c0.8,0,1.5,0.2,2,0.5C363.2,488.8,363.6,489.3,363.8,490.1z"/>
		<path class="st0" d="M366.5,490.1l-1.6-0.3c0.2-0.7,0.5-1.2,1-1.5c0.5-0.3,1.1-0.5,2-0.5c0.8,0,1.4,0.1,1.8,0.3
			c0.4,0.2,0.7,0.4,0.8,0.7s0.2,0.8,0.2,1.6l0,2.1c0,0.6,0,1,0.1,1.3c0.1,0.3,0.2,0.6,0.3,0.9h-1.8c0-0.1-0.1-0.3-0.2-0.5
			c0-0.1-0.1-0.2-0.1-0.2c-0.3,0.3-0.6,0.5-1,0.7c-0.4,0.1-0.7,0.2-1.1,0.2c-0.7,0-1.3-0.2-1.7-0.6s-0.6-0.9-0.6-1.4
			c0-0.4,0.1-0.7,0.3-1c0.2-0.3,0.4-0.5,0.8-0.7c0.3-0.2,0.8-0.3,1.4-0.4c0.8-0.2,1.4-0.3,1.8-0.4v-0.2c0-0.3-0.1-0.6-0.3-0.7
			c-0.2-0.1-0.5-0.2-1-0.2c-0.3,0-0.6,0.1-0.8,0.2C366.8,489.6,366.6,489.8,366.5,490.1z M368.9,491.6c-0.2,0.1-0.6,0.2-1.1,0.3
			c-0.5,0.1-0.8,0.2-1,0.3c-0.2,0.2-0.4,0.4-0.4,0.6c0,0.3,0.1,0.5,0.3,0.7c0.2,0.2,0.4,0.3,0.7,0.3c0.3,0,0.6-0.1,0.9-0.3
			c0.2-0.2,0.4-0.4,0.4-0.6c0-0.2,0.1-0.4,0.1-0.9L368.9,491.6L368.9,491.6z"/>
		<path class="st0" d="M378.8,494.9h-1.7v-1c-0.3,0.4-0.6,0.7-1,0.9c-0.4,0.2-0.8,0.3-1.2,0.3c-0.8,0-1.5-0.3-2-1
			c-0.6-0.6-0.8-1.5-0.8-2.7c0-1.2,0.3-2,0.8-2.6c0.5-0.6,1.2-0.9,2.1-0.9c0.8,0,1.4,0.3,2,1v-3.4h1.8V494.9z M374,491.3
			c0,0.7,0.1,1.3,0.3,1.6c0.3,0.5,0.7,0.7,1.2,0.7c0.4,0,0.8-0.2,1.1-0.5c0.3-0.4,0.4-0.9,0.4-1.6c0-0.8-0.1-1.4-0.4-1.7
			c-0.3-0.3-0.6-0.5-1.1-0.5c-0.4,0-0.8,0.2-1.1,0.5C374.1,490.1,374,490.6,374,491.3z"/>
		<path class="st0" d="M380.2,491.4c0-0.6,0.1-1.2,0.4-1.7c0.3-0.6,0.7-1,1.3-1.3s1.1-0.4,1.8-0.4c1,0,1.9,0.3,2.5,1
			c0.7,0.7,1,1.5,1,2.5c0,1-0.3,1.9-1,2.6s-1.5,1-2.5,1c-0.6,0-1.2-0.1-1.8-0.4c-0.6-0.3-1-0.7-1.3-1.2S380.2,492.1,380.2,491.4z
			 M382,491.5c0,0.7,0.2,1.2,0.5,1.6c0.3,0.4,0.7,0.5,1.2,0.5s0.9-0.2,1.2-0.5c0.3-0.4,0.5-0.9,0.5-1.6c0-0.7-0.2-1.2-0.5-1.5
			c-0.3-0.4-0.7-0.5-1.2-0.5s-0.9,0.2-1.2,0.5C382.2,490.3,382,490.8,382,491.5z"/>
	</g>
	<g>
		<path class="st0" d="M43.5,158.3h1.6c0,0.3,0,0.4,0,0.5c0,0.5-0.1,0.9-0.3,1.3c-0.2,0.4-0.6,0.8-1.1,1.2c-0.5,0.4-0.9,0.8-1,0.9
			c-0.1,0.2-0.2,0.4-0.2,0.6c0,0.3,0.1,0.6,0.4,0.9c0.3,0.3,0.7,0.4,1.1,0.4c0.5,0,0.8-0.1,1.1-0.4c0.3-0.3,0.5-0.7,0.6-1.2l1.7,0.2
			c-0.1,0.5-0.2,1-0.5,1.3c-0.3,0.5-0.7,0.8-1.2,1.1c-0.5,0.2-1.1,0.3-1.7,0.3c-1,0-1.9-0.3-2.5-0.8c-0.6-0.5-0.9-1.2-0.9-1.9
			c0-0.3,0.1-0.5,0.2-0.8c0.1-0.3,0.3-0.5,0.5-0.8s0.6-0.6,1.1-1c0.4-0.3,0.6-0.6,0.7-0.8C43.5,159.2,43.5,158.9,43.5,158.3z
			 M45.1,155.9v1.8h-1.8v-1.8H45.1z"/>
		<path class="st0" d="M55.3,159.3l1.9,0.6c-0.3,1-0.8,1.8-1.4,2.3c-0.7,0.5-1.5,0.8-2.5,0.8c-1.3,0-2.3-0.4-3.1-1.3
			c-0.8-0.9-1.2-2-1.2-3.5c0-1.6,0.4-2.8,1.2-3.7c0.8-0.9,1.9-1.3,3.2-1.3c1.2,0,2.1,0.3,2.8,1c0.4,0.4,0.8,1,1,1.7l-1.9,0.5
			c-0.1-0.5-0.3-0.9-0.7-1.2c-0.4-0.3-0.8-0.4-1.3-0.4c-0.7,0-1.3,0.3-1.7,0.8c-0.4,0.5-0.7,1.3-0.7,2.4c0,1.2,0.2,2,0.6,2.6
			c0.4,0.5,1,0.8,1.7,0.8c0.5,0,0.9-0.2,1.3-0.5C54.9,160.5,55.1,160,55.3,159.3z"/>
		<path class="st0" d="M58.3,159.2c0-0.6,0.1-1.2,0.4-1.7c0.3-0.6,0.7-1,1.3-1.3s1.2-0.4,1.8-0.4c1,0,1.9,0.3,2.5,1
			c0.7,0.7,1,1.5,1,2.5c0,1-0.3,1.9-1,2.6c-0.7,0.7-1.5,1-2.5,1c-0.6,0-1.2-0.1-1.8-0.4s-1-0.7-1.3-1.2
			C58.5,160.7,58.3,160,58.3,159.2z M60.2,159.3c0,0.7,0.2,1.2,0.5,1.6c0.3,0.4,0.7,0.5,1.2,0.5c0.5,0,0.9-0.2,1.2-0.5
			c0.3-0.4,0.5-0.9,0.5-1.6c0-0.7-0.2-1.2-0.5-1.5c-0.3-0.4-0.7-0.5-1.2-0.5c-0.5,0-0.9,0.2-1.2,0.5
			C60.4,158.1,60.2,158.7,60.2,159.3z M61,155.1l0.9-1.9h2l-1.8,1.9H61z"/>
		<path class="st0" d="M66.7,155.9h1.7v0.9c0.6-0.7,1.3-1.1,2.1-1.1c0.4,0,0.8,0.1,1.1,0.3c0.3,0.2,0.6,0.5,0.8,0.8
			c0.3-0.4,0.6-0.6,1-0.8s0.7-0.3,1.1-0.3c0.5,0,0.9,0.1,1.3,0.3c0.3,0.2,0.6,0.5,0.8,0.9c0.1,0.3,0.2,0.8,0.2,1.4v4.4h-1.8v-3.9
			c0-0.7-0.1-1.1-0.2-1.3c-0.2-0.3-0.4-0.4-0.8-0.4c-0.3,0-0.5,0.1-0.7,0.2s-0.4,0.4-0.5,0.7c-0.1,0.3-0.1,0.8-0.1,1.4v3.3h-1.8V159
			c0-0.7,0-1.1-0.1-1.3c-0.1-0.2-0.2-0.3-0.3-0.4c-0.1-0.1-0.3-0.1-0.6-0.1c-0.3,0-0.5,0.1-0.8,0.2s-0.4,0.4-0.5,0.7
			c-0.1,0.3-0.1,0.8-0.1,1.4v3.3h-1.8L66.7,155.9L66.7,155.9z"/>
		<path class="st0" d="M78.1,159.2c0-0.6,0.1-1.2,0.4-1.7c0.3-0.6,0.7-1,1.3-1.3s1.2-0.4,1.8-0.4c1,0,1.9,0.3,2.5,1
			c0.7,0.7,1,1.5,1,2.5c0,1-0.3,1.9-1,2.6c-0.7,0.7-1.5,1-2.5,1c-0.6,0-1.2-0.1-1.8-0.4c-0.6-0.3-1-0.7-1.3-1.2S78.1,160,78.1,159.2
			z M80,159.3c0,0.7,0.2,1.2,0.5,1.6c0.3,0.4,0.7,0.5,1.2,0.5s0.9-0.2,1.2-0.5c0.3-0.4,0.5-0.9,0.5-1.6c0-0.7-0.2-1.2-0.5-1.5
			c-0.3-0.4-0.7-0.5-1.2-0.5s-0.9,0.2-1.2,0.5C80.2,158.1,80,158.7,80,159.3z"/>
		<path class="st0" d="M90.2,155.9h1.7v0.9c0.6-0.7,1.3-1.1,2.1-1.1c0.4,0,0.8,0.1,1.1,0.3c0.3,0.2,0.6,0.5,0.8,0.8
			c0.3-0.4,0.6-0.6,1-0.8s0.7-0.3,1.1-0.3c0.5,0,0.9,0.1,1.3,0.3c0.3,0.2,0.6,0.5,0.8,0.9c0.1,0.3,0.2,0.8,0.2,1.4v4.4h-1.8v-3.9
			c0-0.7-0.1-1.1-0.2-1.3c-0.2-0.3-0.4-0.4-0.8-0.4c-0.3,0-0.5,0.1-0.7,0.2s-0.4,0.4-0.5,0.7c-0.1,0.3-0.1,0.8-0.1,1.4v3.3h-1.8V159
			c0-0.7,0-1.1-0.1-1.3c-0.1-0.2-0.2-0.3-0.3-0.4c-0.1-0.1-0.3-0.1-0.6-0.1c-0.3,0-0.5,0.1-0.8,0.2s-0.4,0.4-0.5,0.7
			c-0.1,0.3-0.1,0.8-0.1,1.4v3.3h-1.8L90.2,155.9L90.2,155.9z"/>
		<path class="st0" d="M106,160.6l1.8,0.3c-0.2,0.7-0.6,1.2-1.1,1.5c-0.5,0.3-1.1,0.5-1.9,0.5c-1.2,0-2.1-0.4-2.6-1.2
			c-0.5-0.6-0.7-1.4-0.7-2.4c0-1.1,0.3-2,0.9-2.7c0.6-0.6,1.3-1,2.2-1c1,0,1.8,0.3,2.4,1c0.6,0.7,0.9,1.7,0.8,3.1h-4.5
			c0,0.5,0.2,1,0.4,1.3c0.3,0.3,0.6,0.4,1,0.4c0.3,0,0.5-0.1,0.7-0.2S105.9,160.9,106,160.6z M106.1,158.7c0-0.5-0.1-0.9-0.4-1.2
			s-0.6-0.4-0.9-0.4c-0.4,0-0.7,0.1-1,0.4c-0.3,0.3-0.4,0.7-0.4,1.2H106.1z"/>
		<path class="st0" d="M111.1,155.9v6.6c0,0.9-0.1,1.5-0.2,1.8c-0.1,0.4-0.3,0.6-0.7,0.8s-0.7,0.3-1.2,0.3c-0.2,0-0.4,0-0.6,0
			s-0.4-0.1-0.7-0.1l0.3-1.5c0.1,0,0.2,0,0.2,0c0.1,0,0.1,0,0.2,0c0.2,0,0.3,0,0.5-0.1c0.1-0.1,0.2-0.2,0.2-0.3c0-0.1,0.1-0.4,0.1-1
			v-6.5L111.1,155.9L111.1,155.9z M109.3,155v-1.7h1.8v1.7H109.3z"/>
		<path class="st0" d="M112.6,159.2c0-0.6,0.1-1.2,0.4-1.7c0.3-0.6,0.7-1,1.3-1.3s1.2-0.4,1.8-0.4c1,0,1.9,0.3,2.5,1
			c0.7,0.7,1,1.5,1,2.5c0,1-0.3,1.9-1,2.6c-0.7,0.7-1.5,1-2.5,1c-0.6,0-1.2-0.1-1.8-0.4c-0.6-0.3-1-0.7-1.3-1.2
			S112.6,160,112.6,159.2z M114.5,159.3c0,0.7,0.2,1.2,0.5,1.6c0.3,0.4,0.7,0.5,1.2,0.5s0.9-0.2,1.2-0.5c0.3-0.4,0.5-0.9,0.5-1.6
			c0-0.7-0.2-1.2-0.5-1.5c-0.3-0.4-0.7-0.5-1.2-0.5s-0.9,0.2-1.2,0.5C114.6,158.1,114.5,158.7,114.5,159.3z"/>
		<path class="st0" d="M122.8,162.8H121v-6.8h1.7v1c0.3-0.5,0.5-0.8,0.8-0.9c0.2-0.1,0.5-0.2,0.8-0.2c0.4,0,0.8,0.1,1.2,0.3
			l-0.6,1.6c-0.3-0.2-0.6-0.3-0.9-0.3c-0.3,0-0.5,0.1-0.6,0.2s-0.3,0.4-0.4,0.8s-0.2,1.1-0.2,2.3
			C122.8,160.6,122.8,162.8,122.8,162.8z"/>
		<path class="st0" d="M127.6,158l-1.6-0.3c0.2-0.7,0.5-1.2,1-1.5s1.1-0.5,2-0.5c0.8,0,1.4,0.1,1.8,0.3c0.4,0.2,0.7,0.4,0.8,0.7
			c0.2,0.3,0.2,0.8,0.2,1.6l0,2.1c0,0.6,0,1,0.1,1.3c0.1,0.3,0.2,0.6,0.3,0.9h-1.8c0-0.1-0.1-0.3-0.2-0.5c0-0.1-0.1-0.2-0.1-0.2
			c-0.3,0.3-0.6,0.5-1,0.7c-0.4,0.1-0.7,0.2-1.1,0.2c-0.7,0-1.3-0.2-1.7-0.6c-0.4-0.4-0.6-0.9-0.6-1.4c0-0.4,0.1-0.7,0.3-1
			c0.2-0.3,0.4-0.5,0.8-0.7c0.3-0.2,0.8-0.3,1.4-0.4c0.8-0.2,1.4-0.3,1.8-0.4v-0.2c0-0.3-0.1-0.6-0.3-0.7c-0.2-0.1-0.5-0.2-1-0.2
			c-0.3,0-0.6,0.1-0.8,0.2C127.8,157.5,127.7,157.7,127.6,158z M130,159.5c-0.2,0.1-0.6,0.2-1.1,0.3s-0.8,0.2-1,0.3
			c-0.2,0.2-0.4,0.4-0.4,0.6c0,0.3,0.1,0.5,0.3,0.7s0.4,0.3,0.7,0.3c0.3,0,0.6-0.1,0.9-0.3c0.2-0.2,0.4-0.4,0.4-0.6
			c0-0.2,0.1-0.4,0.1-0.9L130,159.5L130,159.5z"/>
		<path class="st0" d="M135.3,162.8h-1.8v-6.8h1.7v1c0.3-0.5,0.5-0.8,0.8-0.9c0.2-0.1,0.5-0.2,0.8-0.2c0.4,0,0.8,0.1,1.2,0.3
			l-0.6,1.6c-0.3-0.2-0.6-0.3-0.9-0.3c-0.3,0-0.5,0.1-0.6,0.2c-0.2,0.1-0.3,0.4-0.4,0.8s-0.2,1.1-0.2,2.3L135.3,162.8L135.3,162.8z"
			/>
		<path class="st0" d="M142.6,160.3H141c0-0.2,0-0.4,0-0.4c0-0.5,0.1-1,0.3-1.3c0.2-0.3,0.5-0.7,1.1-1.2c0.5-0.4,0.8-0.7,0.9-0.8
			c0.2-0.2,0.2-0.4,0.2-0.7c0-0.4-0.1-0.7-0.4-0.9c-0.3-0.3-0.7-0.4-1.1-0.4c-0.5,0-0.8,0.1-1.2,0.4c-0.3,0.3-0.5,0.7-0.6,1.2
			l-1.7-0.2c0-0.8,0.4-1.4,1-2s1.4-0.8,2.4-0.8c1,0,1.9,0.3,2.5,0.8c0.6,0.5,0.9,1.2,0.9,1.9c0,0.4-0.1,0.8-0.3,1.1
			c-0.2,0.4-0.7,0.8-1.4,1.5c-0.4,0.3-0.6,0.6-0.7,0.8C142.6,159.5,142.6,159.8,142.6,160.3z M141,162.8v-1.8h1.8v1.8H141z"/>
	</g>
	<g>
		<path class="st0" d="M174.2,109.2c0-0.9,0.1-1.6,0.4-2.2c0.2-0.4,0.5-0.8,0.8-1.2s0.7-0.6,1.1-0.8c0.5-0.2,1.2-0.3,1.9-0.3
			c1.3,0,2.3,0.4,3,1.2s1.1,1.9,1.1,3.3c0,1.4-0.4,2.5-1.1,3.3s-1.8,1.2-3,1.2c-1.3,0-2.3-0.4-3-1.2S174.2,110.6,174.2,109.2z
			 M176,109.1c0,1,0.2,1.7,0.7,2.2s1,0.8,1.7,0.8s1.3-0.2,1.7-0.7s0.7-1.2,0.7-2.2c0-1-0.2-1.7-0.6-2.2s-1-0.7-1.7-0.7
			s-1.3,0.2-1.7,0.7S176,108.2,176,109.1z"/>
		<path class="st0" d="M183.9,104.9h3.4c0.7,0,1.2,0,1.5,0.1s0.6,0.2,0.9,0.4s0.5,0.4,0.7,0.7s0.3,0.6,0.3,1c0,0.4-0.1,0.8-0.3,1.1
			s-0.5,0.6-0.9,0.8c0.5,0.2,0.9,0.4,1.2,0.8s0.4,0.8,0.4,1.3c0,0.4-0.1,0.8-0.3,1.1s-0.4,0.7-0.7,0.9s-0.7,0.4-1.2,0.4
			c-0.3,0-1,0.1-2.1,0.1h-2.9L183.9,104.9L183.9,104.9z M185.6,106.3v2h1.1c0.7,0,1.1,0,1.3,0c0.3,0,0.5-0.1,0.7-0.3
			s0.3-0.4,0.3-0.7c0-0.3-0.1-0.5-0.2-0.6s-0.4-0.3-0.7-0.3c-0.2,0-0.7,0-1.5,0H185.6z M185.6,109.7v2.3h1.6c0.6,0,1,0,1.2-0.1
			c0.3,0,0.5-0.2,0.6-0.3s0.2-0.4,0.2-0.7c0-0.3-0.1-0.5-0.2-0.7s-0.3-0.3-0.5-0.4s-0.7-0.1-1.5-0.1H185.6z"/>
		<path class="st0" d="M195.7,104.9h1.7v5.4c0,0.7-0.1,1.3-0.2,1.6c-0.2,0.5-0.5,0.9-0.9,1.2s-1,0.5-1.7,0.5c-0.8,0-1.5-0.2-2-0.7
			s-0.7-1.2-0.7-2.1l1.6-0.2c0,0.5,0.1,0.8,0.2,1c0.2,0.3,0.5,0.5,0.9,0.5c0.4,0,0.7-0.1,0.8-0.3s0.2-0.7,0.2-1.4V104.9z"/>
		<path class="st0" d="M199.2,113.4v-8.6h6.4v1.5H201v1.9h4.3v1.4H201v2.3h4.8v1.4L199.2,113.4L199.2,113.4z"/>
		<path class="st0" d="M209.2,113.4v-7.1h-2.5v-1.5h6.8v1.5h-2.5v7.1H209.2z"/>
		<path class="st0" d="M214.5,113.4v-8.6h1.7v8.6H214.5z"/>
		<path class="st0" d="M220.1,113.4l-3.1-8.6h1.9l2.2,6.4l2.1-6.4h1.8l-3.1,8.6H220.1z"/>
		<path class="st0" d="M225.6,109.2c0-0.9,0.1-1.6,0.4-2.2c0.2-0.4,0.5-0.8,0.8-1.2s0.7-0.6,1.1-0.8c0.5-0.2,1.2-0.3,1.9-0.3
			c1.3,0,2.3,0.4,3,1.2s1.1,1.9,1.1,3.3c0,1.4-0.4,2.5-1.1,3.3s-1.8,1.2-3,1.2c-1.3,0-2.3-0.4-3-1.2S225.6,110.6,225.6,109.2z
			 M227.3,109.1c0,1,0.2,1.7,0.7,2.2s1,0.8,1.7,0.8s1.3-0.2,1.7-0.7s0.7-1.2,0.7-2.2c0-1-0.2-1.7-0.6-2.2s-1-0.7-1.7-0.7
			s-1.3,0.2-1.7,0.7S227.3,108.2,227.3,109.1z"/>
		<path class="st0" d="M234.8,110.7l1.7-0.2c0.1,0.6,0.3,1,0.6,1.2s0.7,0.4,1.3,0.4c0.6,0,1-0.1,1.3-0.4s0.4-0.5,0.4-0.8
			c0-0.2-0.1-0.4-0.2-0.5s-0.3-0.3-0.6-0.4c-0.2-0.1-0.7-0.2-1.4-0.4c-0.9-0.2-1.6-0.5-2-0.8c-0.5-0.5-0.8-1-0.8-1.7
			c0-0.4,0.1-0.8,0.4-1.2s0.6-0.7,1.1-0.9s1-0.3,1.7-0.3c1.1,0,1.9,0.2,2.4,0.7s0.8,1.1,0.9,1.9l-1.7,0.1c-0.1-0.4-0.2-0.8-0.5-1
			s-0.6-0.3-1.1-0.3c-0.5,0-0.9,0.1-1.2,0.3c-0.2,0.1-0.3,0.3-0.3,0.5c0,0.2,0.1,0.4,0.3,0.5c0.2,0.2,0.8,0.4,1.6,0.6
			s1.5,0.4,1.9,0.6s0.7,0.5,0.9,0.9s0.3,0.8,0.3,1.4c0,0.5-0.1,1-0.4,1.4s-0.7,0.7-1.2,1s-1.1,0.3-1.9,0.3c-1.1,0-1.9-0.3-2.5-0.8
			S234.9,111.6,234.8,110.7z"/>
	</g>
	<g>
		<path class="st0" d="M237.7,158.3h1.6c0,0.3,0,0.4,0,0.5c0,0.5-0.1,0.9-0.3,1.3c-0.2,0.4-0.6,0.8-1.1,1.2c-0.5,0.4-0.9,0.8-1,0.9
			c-0.1,0.2-0.2,0.4-0.2,0.6c0,0.3,0.1,0.6,0.4,0.9s0.7,0.4,1.1,0.4c0.5,0,0.8-0.1,1.1-0.4c0.3-0.3,0.5-0.7,0.6-1.2l1.7,0.2
			c-0.1,0.5-0.2,1-0.5,1.3c-0.3,0.5-0.7,0.8-1.2,1.1c-0.5,0.2-1.1,0.3-1.7,0.3c-1,0-1.9-0.3-2.5-0.8c-0.6-0.5-0.9-1.2-0.9-1.9
			c0-0.3,0.1-0.5,0.2-0.8s0.3-0.5,0.5-0.8s0.6-0.6,1.1-1c0.4-0.3,0.6-0.6,0.7-0.8C237.6,159.2,237.7,158.9,237.7,158.3z
			 M239.3,155.9v1.8h-1.8v-1.8H239.3z"/>
		<path class="st0" d="M251,161.6c0.5,0.3,1,0.6,1.5,0.8l-0.7,1.3c-0.3-0.1-0.6-0.2-0.8-0.4c-0.1,0-0.5-0.3-1.3-0.8
			c-0.6,0.3-1.3,0.4-2.1,0.4c-1.5,0-2.6-0.4-3.4-1.3c-0.8-0.9-1.2-2.1-1.2-3.6c0-1.5,0.4-2.7,1.2-3.6c0.8-0.9,1.9-1.3,3.4-1.3
			c1.4,0,2.5,0.4,3.3,1.3c0.8,0.9,1.2,2.1,1.2,3.6c0,0.8-0.1,1.5-0.3,2.2C251.7,160.7,251.4,161.1,251,161.6z M249.5,160.5
			c0.2-0.3,0.4-0.6,0.6-1c0.1-0.4,0.2-0.9,0.2-1.4c0-1.1-0.2-1.9-0.7-2.4c-0.5-0.5-1.1-0.8-1.9-0.8c-0.8,0-1.4,0.3-1.9,0.8
			c-0.5,0.5-0.7,1.4-0.7,2.4c0,1.1,0.2,1.9,0.7,2.5s1.1,0.8,1.8,0.8c0.3,0,0.5,0,0.8-0.1c-0.4-0.3-0.8-0.5-1.2-0.6l0.5-1.1
			C248.3,159.7,248.9,160.1,249.5,160.5z"/>
		<path class="st0" d="M258.2,162.8v-1c-0.2,0.4-0.6,0.7-1,0.9c-0.4,0.2-0.8,0.3-1.3,0.3c-0.5,0-0.9-0.1-1.2-0.3s-0.6-0.5-0.8-0.9
			s-0.2-0.9-0.2-1.5v-4.3h1.8v3.1c0,1,0,1.6,0.1,1.8s0.2,0.4,0.4,0.5c0.2,0.1,0.4,0.2,0.7,0.2c0.3,0,0.6-0.1,0.8-0.3
			c0.2-0.2,0.4-0.4,0.5-0.6c0.1-0.3,0.1-0.9,0.1-1.8v-2.9h1.8v6.8H258.2z"/>
		<path class="st0" d="M265.7,160.6l1.8,0.3c-0.2,0.7-0.6,1.2-1.1,1.5c-0.5,0.3-1.1,0.5-1.9,0.5c-1.2,0-2.1-0.4-2.6-1.2
			c-0.5-0.6-0.7-1.4-0.7-2.4c0-1.1,0.3-2,0.9-2.7c0.6-0.6,1.3-1,2.2-1c1,0,1.8,0.3,2.4,1c0.6,0.7,0.9,1.7,0.8,3.1h-4.5
			c0,0.5,0.2,1,0.4,1.3s0.6,0.4,1,0.4c0.3,0,0.5-0.1,0.7-0.2C265.5,161.2,265.6,160.9,265.7,160.6z M265.8,158.7
			c0-0.5-0.1-0.9-0.4-1.2c-0.3-0.3-0.6-0.4-0.9-0.4c-0.4,0-0.7,0.1-1,0.4c-0.3,0.3-0.4,0.7-0.4,1.2H265.8z M263.5,155.1l0.9-1.9h2
			l-1.8,1.9H263.5z"/>
		<path class="st0" d="M274.6,153.3v3.5c0.6-0.7,1.3-1,2.1-1c0.4,0,0.8,0.1,1.1,0.2s0.6,0.4,0.8,0.6c0.2,0.2,0.3,0.5,0.3,0.8
			c0.1,0.3,0.1,0.7,0.1,1.4v4h-1.8v-3.6c0-0.7,0-1.2-0.1-1.4c-0.1-0.2-0.2-0.3-0.4-0.5c-0.2-0.1-0.4-0.2-0.7-0.2
			c-0.3,0-0.6,0.1-0.8,0.2c-0.2,0.1-0.4,0.4-0.5,0.7c-0.1,0.3-0.2,0.7-0.2,1.3v3.4h-1.8v-9.4L274.6,153.3L274.6,153.3z"/>
		<path class="st0" d="M282.2,158l-1.6-0.3c0.2-0.7,0.5-1.2,1-1.5c0.5-0.3,1.1-0.5,2-0.5c0.8,0,1.4,0.1,1.8,0.3
			c0.4,0.2,0.7,0.4,0.8,0.7c0.2,0.3,0.2,0.8,0.2,1.6l0,2.1c0,0.6,0,1,0.1,1.3c0.1,0.3,0.2,0.6,0.3,0.9H285c0-0.1-0.1-0.3-0.2-0.5
			c0-0.1-0.1-0.2-0.1-0.2c-0.3,0.3-0.6,0.5-1,0.7c-0.4,0.1-0.7,0.2-1.1,0.2c-0.7,0-1.3-0.2-1.7-0.6s-0.6-0.9-0.6-1.4
			c0-0.4,0.1-0.7,0.3-1c0.2-0.3,0.4-0.5,0.8-0.7c0.3-0.2,0.8-0.3,1.4-0.4c0.8-0.2,1.4-0.3,1.8-0.4v-0.2c0-0.3-0.1-0.6-0.3-0.7
			c-0.2-0.1-0.5-0.2-1-0.2c-0.3,0-0.6,0.1-0.8,0.2C282.4,157.5,282.3,157.7,282.2,158z M284.6,159.5c-0.2,0.1-0.6,0.2-1.1,0.3
			c-0.5,0.1-0.8,0.2-1,0.3c-0.2,0.2-0.4,0.4-0.4,0.6c0,0.3,0.1,0.5,0.3,0.7c0.2,0.2,0.4,0.3,0.7,0.3c0.3,0,0.6-0.1,0.9-0.3
			c0.2-0.2,0.4-0.4,0.4-0.6c0-0.2,0.1-0.4,0.1-0.9L284.6,159.5L284.6,159.5z"/>
		<path class="st0" d="M294.1,157.9l-1.8,0.3c-0.1-0.4-0.2-0.6-0.4-0.8c-0.2-0.2-0.5-0.3-0.8-0.3c-0.5,0-0.8,0.2-1.1,0.5
			c-0.3,0.3-0.4,0.8-0.4,1.6c0,0.8,0.1,1.4,0.4,1.7c0.3,0.3,0.6,0.5,1.1,0.5c0.3,0,0.6-0.1,0.8-0.3c0.2-0.2,0.4-0.5,0.5-1l1.8,0.3
			c-0.2,0.8-0.5,1.4-1.1,1.9s-1.2,0.6-2.1,0.6c-1,0-1.8-0.3-2.4-0.9c-0.6-0.6-0.9-1.5-0.9-2.6c0-1.1,0.3-2,0.9-2.6
			c0.6-0.6,1.4-0.9,2.4-0.9c0.8,0,1.5,0.2,2,0.5C293.6,156.7,293.9,157.2,294.1,157.9z"/>
		<path class="st0" d="M299.5,160.6l1.8,0.3c-0.2,0.7-0.6,1.2-1.1,1.5c-0.5,0.3-1.1,0.5-1.9,0.5c-1.2,0-2.1-0.4-2.6-1.2
			c-0.5-0.6-0.7-1.4-0.7-2.4c0-1.1,0.3-2,0.9-2.7c0.6-0.6,1.3-1,2.2-1c1,0,1.8,0.3,2.4,1c0.6,0.7,0.9,1.7,0.8,3.1h-4.5
			c0,0.5,0.2,1,0.4,1.3s0.6,0.4,1,0.4c0.3,0,0.5-0.1,0.7-0.2C299.2,161.2,299.4,160.9,299.5,160.6z M299.6,158.7
			c0-0.5-0.1-0.9-0.4-1.2c-0.3-0.3-0.6-0.4-0.9-0.4c-0.4,0-0.7,0.1-1,0.4c-0.3,0.3-0.4,0.7-0.4,1.2H299.6z"/>
		<path class="st0" d="M304.6,162.8h-1.8v-6.8h1.7v1c0.3-0.5,0.5-0.8,0.8-0.9c0.2-0.1,0.5-0.2,0.8-0.2c0.4,0,0.8,0.1,1.2,0.3
			l-0.6,1.6c-0.3-0.2-0.6-0.3-0.9-0.3c-0.3,0-0.5,0.1-0.6,0.2c-0.2,0.1-0.3,0.4-0.4,0.8c-0.1,0.4-0.2,1.1-0.2,2.3V162.8z"/>
		<path class="st0" d="M310.8,155.9h1.9l1.6,4.9l1.6-4.9h1.9l-2.4,6.6l-0.4,1.2c-0.2,0.4-0.3,0.7-0.5,0.9s-0.3,0.4-0.5,0.5
			s-0.4,0.2-0.7,0.3c-0.3,0.1-0.6,0.1-0.9,0.1c-0.3,0-0.7,0-1-0.1l-0.2-1.4c0.3,0.1,0.5,0.1,0.8,0.1c0.4,0,0.7-0.1,0.9-0.4
			c0.2-0.2,0.4-0.6,0.5-0.9L310.8,155.9z"/>
		<path class="st0" d="M328.6,157.9l-1.8,0.3c-0.1-0.4-0.2-0.6-0.4-0.8c-0.2-0.2-0.5-0.3-0.8-0.3c-0.5,0-0.8,0.2-1.1,0.5
			c-0.3,0.3-0.4,0.8-0.4,1.6c0,0.8,0.1,1.4,0.4,1.7c0.3,0.3,0.6,0.5,1.1,0.5c0.3,0,0.6-0.1,0.8-0.3c0.2-0.2,0.4-0.5,0.5-1l1.8,0.3
			c-0.2,0.8-0.5,1.4-1.1,1.9s-1.2,0.6-2.1,0.6c-1,0-1.8-0.3-2.4-0.9c-0.6-0.6-0.9-1.5-0.9-2.6c0-1.1,0.3-2,0.9-2.6
			c0.6-0.6,1.4-0.9,2.4-0.9c0.8,0,1.5,0.2,2,0.5C328,156.7,328.4,157.2,328.6,157.9z"/>
		<path class="st0" d="M329.6,159.2c0-0.6,0.1-1.2,0.4-1.7c0.3-0.6,0.7-1,1.3-1.3c0.5-0.3,1.2-0.4,1.8-0.4c1,0,1.9,0.3,2.5,1
			c0.7,0.7,1,1.5,1,2.5c0,1-0.3,1.9-1,2.6c-0.7,0.7-1.5,1-2.5,1c-0.6,0-1.2-0.1-1.8-0.4s-1-0.7-1.3-1.2
			C329.7,160.7,329.6,160,329.6,159.2z M331.4,159.3c0,0.7,0.2,1.2,0.5,1.6c0.3,0.4,0.7,0.5,1.2,0.5s0.9-0.2,1.2-0.5
			c0.3-0.4,0.5-0.9,0.5-1.6c0-0.7-0.2-1.2-0.5-1.5c-0.3-0.4-0.7-0.5-1.2-0.5s-0.9,0.2-1.2,0.5C331.6,158.1,331.4,158.7,331.4,159.3z
			 M332.2,155.1l0.9-1.9h2l-1.8,1.9H332.2z"/>
		<path class="st0" d="M337.9,155.9h1.7v0.9c0.6-0.7,1.3-1.1,2.1-1.1c0.4,0,0.8,0.1,1.1,0.3s0.6,0.5,0.8,0.8c0.3-0.4,0.6-0.6,1-0.8
			c0.3-0.2,0.7-0.3,1.1-0.3c0.5,0,0.9,0.1,1.3,0.3c0.3,0.2,0.6,0.5,0.8,0.9c0.1,0.3,0.2,0.8,0.2,1.4v4.4h-1.8v-3.9
			c0-0.7-0.1-1.1-0.2-1.3c-0.2-0.3-0.4-0.4-0.8-0.4c-0.3,0-0.5,0.1-0.7,0.2c-0.2,0.2-0.4,0.4-0.5,0.7c-0.1,0.3-0.1,0.8-0.1,1.4v3.3
			h-1.8V159c0-0.7,0-1.1-0.1-1.3c-0.1-0.2-0.2-0.3-0.3-0.4c-0.1-0.1-0.3-0.1-0.6-0.1c-0.3,0-0.5,0.1-0.8,0.2
			c-0.2,0.2-0.4,0.4-0.5,0.7c-0.1,0.3-0.1,0.8-0.1,1.4v3.3h-1.8L337.9,155.9L337.9,155.9z"/>
		<path class="st0" d="M349.4,159.2c0-0.6,0.1-1.2,0.4-1.7c0.3-0.6,0.7-1,1.3-1.3c0.5-0.3,1.2-0.4,1.8-0.4c1,0,1.9,0.3,2.5,1
			c0.7,0.7,1,1.5,1,2.5c0,1-0.3,1.9-1,2.6c-0.7,0.7-1.5,1-2.5,1c-0.6,0-1.2-0.1-1.8-0.4c-0.6-0.3-1-0.7-1.3-1.2
			C349.5,160.7,349.4,160,349.4,159.2z M351.2,159.3c0,0.7,0.2,1.2,0.5,1.6c0.3,0.4,0.7,0.5,1.2,0.5s0.9-0.2,1.2-0.5
			c0.3-0.4,0.5-0.9,0.5-1.6c0-0.7-0.2-1.2-0.5-1.5c-0.3-0.4-0.7-0.5-1.2-0.5s-0.9,0.2-1.2,0.5C351.4,158.1,351.2,158.7,351.2,159.3z
			"/>
		<path class="st0" d="M363.3,153.3v3.5c0.6-0.7,1.3-1,2.1-1c0.4,0,0.8,0.1,1.1,0.2s0.6,0.4,0.8,0.6c0.2,0.2,0.3,0.5,0.3,0.8
			c0.1,0.3,0.1,0.7,0.1,1.4v4h-1.8v-3.6c0-0.7,0-1.2-0.1-1.4c-0.1-0.2-0.2-0.3-0.4-0.5c-0.2-0.1-0.4-0.2-0.7-0.2
			c-0.3,0-0.6,0.1-0.8,0.2c-0.2,0.1-0.4,0.4-0.5,0.7c-0.1,0.3-0.2,0.7-0.2,1.3v3.4h-1.8v-9.4L363.3,153.3L363.3,153.3z"/>
		<path class="st0" d="M370.9,158l-1.6-0.3c0.2-0.7,0.5-1.2,1-1.5c0.5-0.3,1.1-0.5,2-0.5c0.8,0,1.4,0.1,1.8,0.3
			c0.4,0.2,0.7,0.4,0.8,0.7c0.2,0.3,0.2,0.8,0.2,1.6l0,2.1c0,0.6,0,1,0.1,1.3c0.1,0.3,0.2,0.6,0.3,0.9h-1.8c0-0.1-0.1-0.3-0.2-0.5
			c0-0.1-0.1-0.2-0.1-0.2c-0.3,0.3-0.6,0.5-1,0.7c-0.4,0.1-0.7,0.2-1.1,0.2c-0.7,0-1.3-0.2-1.7-0.6s-0.6-0.9-0.6-1.4
			c0-0.4,0.1-0.7,0.3-1c0.2-0.3,0.4-0.5,0.8-0.7c0.3-0.2,0.8-0.3,1.4-0.4c0.8-0.2,1.4-0.3,1.8-0.4v-0.2c0-0.3-0.1-0.6-0.3-0.7
			c-0.2-0.1-0.5-0.2-1-0.2c-0.3,0-0.6,0.1-0.8,0.2C371.2,157.5,371,157.7,370.9,158z M373.4,159.5c-0.2,0.1-0.6,0.2-1.1,0.3
			c-0.5,0.1-0.8,0.2-1,0.3c-0.2,0.2-0.4,0.4-0.4,0.6c0,0.3,0.1,0.5,0.3,0.7c0.2,0.2,0.4,0.3,0.7,0.3c0.3,0,0.6-0.1,0.9-0.3
			c0.2-0.2,0.4-0.4,0.4-0.6c0-0.2,0.1-0.4,0.1-0.9L373.4,159.5L373.4,159.5z"/>
		<path class="st0" d="M382.9,157.9l-1.8,0.3c-0.1-0.4-0.2-0.6-0.4-0.8c-0.2-0.2-0.5-0.3-0.8-0.3c-0.5,0-0.8,0.2-1.1,0.5
			c-0.3,0.3-0.4,0.8-0.4,1.6c0,0.8,0.1,1.4,0.4,1.7c0.3,0.3,0.6,0.5,1.1,0.5c0.3,0,0.6-0.1,0.8-0.3c0.2-0.2,0.4-0.5,0.5-1l1.8,0.3
			c-0.2,0.8-0.5,1.4-1.1,1.9s-1.2,0.6-2.1,0.6c-1,0-1.8-0.3-2.4-0.9c-0.6-0.6-0.9-1.5-0.9-2.6c0-1.1,0.3-2,0.9-2.6
			c0.6-0.6,1.4-0.9,2.4-0.9c0.8,0,1.5,0.2,2,0.5C382.3,156.7,382.7,157.2,382.9,157.9z"/>
		<path class="st0" d="M388.2,160.6l1.8,0.3c-0.2,0.7-0.6,1.2-1.1,1.5c-0.5,0.3-1.1,0.5-1.9,0.5c-1.2,0-2.1-0.4-2.6-1.2
			c-0.5-0.6-0.7-1.4-0.7-2.4c0-1.1,0.3-2,0.9-2.7c0.6-0.6,1.3-1,2.2-1c1,0,1.8,0.3,2.4,1c0.6,0.7,0.9,1.7,0.8,3.1h-4.5
			c0,0.5,0.2,1,0.4,1.3s0.6,0.4,1,0.4c0.3,0,0.5-0.1,0.7-0.2C388,161.2,388.1,160.9,388.2,160.6z M388.3,158.7
			c0-0.5-0.1-0.9-0.4-1.2c-0.3-0.3-0.6-0.4-0.9-0.4c-0.4,0-0.7,0.1-1,0.4c-0.3,0.3-0.4,0.7-0.4,1.2H388.3z"/>
		<path class="st0" d="M393.3,162.8h-1.8v-6.8h1.7v1c0.3-0.5,0.5-0.8,0.8-0.9c0.2-0.1,0.5-0.2,0.8-0.2c0.4,0,0.8,0.1,1.2,0.3
			l-0.6,1.6c-0.3-0.2-0.6-0.3-0.9-0.3c-0.3,0-0.5,0.1-0.6,0.2c-0.2,0.1-0.3,0.4-0.4,0.8s-0.2,1.1-0.2,2.3V162.8z"/>
		<path class="st0" d="M396.7,162.8v-9.4h1.8v9.4H396.7z"/>
		<path class="st0" d="M400,159.2c0-0.6,0.1-1.2,0.4-1.7c0.3-0.6,0.7-1,1.3-1.3c0.5-0.3,1.2-0.4,1.8-0.4c1,0,1.9,0.3,2.5,1
			s1,1.5,1,2.5c0,1-0.3,1.9-1,2.6c-0.7,0.7-1.5,1-2.5,1c-0.6,0-1.2-0.1-1.8-0.4s-1-0.7-1.3-1.2S400,160,400,159.2z M401.8,159.3
			c0,0.7,0.2,1.2,0.5,1.6c0.3,0.4,0.7,0.5,1.2,0.5s0.9-0.2,1.2-0.5c0.3-0.4,0.5-0.9,0.5-1.6c0-0.7-0.2-1.2-0.5-1.5
			c-0.3-0.4-0.7-0.5-1.2-0.5s-0.9,0.2-1.2,0.5C402,158.1,401.8,158.7,401.8,159.3z"/>
		<path class="st0" d="M412.4,160.3h-1.6c0-0.2,0-0.4,0-0.4c0-0.5,0.1-1,0.3-1.3c0.2-0.3,0.5-0.7,1.1-1.2c0.5-0.4,0.8-0.7,0.9-0.8
			c0.2-0.2,0.2-0.4,0.2-0.7c0-0.4-0.1-0.7-0.4-0.9s-0.7-0.4-1.1-0.4c-0.5,0-0.8,0.1-1.2,0.4s-0.5,0.7-0.6,1.2l-1.7-0.2
			c0-0.8,0.4-1.4,1-2s1.4-0.8,2.4-0.8c1,0,1.9,0.3,2.5,0.8c0.6,0.5,0.9,1.2,0.9,1.9c0,0.4-0.1,0.8-0.3,1.1c-0.2,0.4-0.7,0.8-1.4,1.5
			c-0.4,0.3-0.6,0.6-0.7,0.8C412.4,159.5,412.4,159.8,412.4,160.3z M410.7,162.8v-1.8h1.8v1.8H410.7z"/>
	</g>
	<g>
		<path class="st3" d="M168.9,66.4v-8.6h2.8c1.1,0,1.7,0,2.1,0.1c0.5,0.1,0.9,0.4,1.2,0.8s0.5,1,0.5,1.7c0,0.5-0.1,1-0.3,1.3
			s-0.4,0.6-0.7,0.8s-0.6,0.3-0.9,0.4c-0.4,0.1-1,0.1-1.8,0.1h-1.1v3.2C170.6,66.4,168.9,66.4,168.9,66.4z M170.6,59.3v2.4h0.9
			c0.7,0,1.1,0,1.4-0.1s0.4-0.2,0.5-0.4s0.2-0.4,0.2-0.7c0-0.3-0.1-0.6-0.3-0.8s-0.4-0.3-0.7-0.4c-0.2,0-0.6-0.1-1.2-0.1
			C171.4,59.3,170.6,59.3,170.6,59.3z"/>
		<path class="st3" d="M176.8,66.4v-8.6h1.6v8.6H176.8z"/>
		<path class="st3" d="M181.4,62.1l-1.5-0.3c0.2-0.6,0.5-1,0.9-1.3s1-0.4,1.8-0.4c0.7,0,1.3,0.1,1.6,0.3s0.6,0.4,0.8,0.7
			s0.2,0.8,0.2,1.5l0,1.9c0,0.5,0,0.9,0.1,1.2s0.2,0.5,0.3,0.8H184c0-0.1-0.1-0.3-0.2-0.5c0-0.1,0-0.2-0.1-0.2
			c-0.3,0.3-0.6,0.5-0.9,0.6s-0.7,0.2-1,0.2c-0.6,0-1.1-0.2-1.5-0.5s-0.6-0.8-0.6-1.3c0-0.4,0.1-0.7,0.3-0.9s0.4-0.5,0.7-0.6
			s0.7-0.3,1.3-0.4c0.8-0.1,1.3-0.3,1.6-0.4v-0.2c0-0.3-0.1-0.5-0.2-0.7s-0.5-0.2-0.9-0.2c-0.3,0-0.5,0.1-0.7,0.2
			S181.5,61.8,181.4,62.1z M183.6,63.5c-0.2,0.1-0.5,0.2-1,0.3s-0.8,0.2-0.9,0.3c-0.2,0.2-0.3,0.3-0.3,0.6c0,0.2,0.1,0.4,0.3,0.6
			s0.4,0.3,0.7,0.3c0.3,0,0.6-0.1,0.9-0.3c0.2-0.1,0.3-0.3,0.4-0.5c0-0.1,0.1-0.4,0.1-0.8L183.6,63.5L183.6,63.5z"/>
		<path class="st3" d="M192.5,66.4h-1.6v-3.2c0-0.7,0-1.1-0.1-1.3s-0.2-0.4-0.3-0.5s-0.3-0.2-0.6-0.2c-0.3,0-0.5,0.1-0.8,0.2
			s-0.4,0.4-0.5,0.6s-0.1,0.7-0.1,1.4v2.8h-1.6v-6.2h1.5v0.9c0.5-0.7,1.2-1.1,2.1-1.1c0.4,0,0.7,0.1,1,0.2s0.5,0.3,0.7,0.5
			s0.3,0.4,0.3,0.7s0.1,0.6,0.1,1.1L192.5,66.4L192.5,66.4z"/>
		<path class="st3" d="M203.2,66.4h-1.5v-0.9c-0.3,0.4-0.6,0.6-0.9,0.8s-0.7,0.3-1,0.3c-0.7,0-1.3-0.3-1.8-0.9s-0.8-1.4-0.8-2.4
			c0-1.1,0.2-1.9,0.7-2.4s1.1-0.8,1.9-0.8c0.7,0,1.3,0.3,1.8,0.9v-3.1h1.6L203.2,66.4L203.2,66.4z M198.8,63.2
			c0,0.7,0.1,1.1,0.3,1.4c0.3,0.4,0.6,0.6,1.1,0.6c0.4,0,0.7-0.2,1-0.5s0.4-0.8,0.4-1.4c0-0.7-0.1-1.2-0.4-1.5s-0.6-0.5-1-0.5
			c-0.4,0-0.7,0.2-1,0.5S198.8,62.6,198.8,63.2z"/>
		<path class="st3" d="M208.5,64.5l1.6,0.3c-0.2,0.6-0.5,1.1-1,1.4s-1,0.5-1.7,0.5c-1.1,0-1.9-0.4-2.4-1.1c-0.4-0.6-0.6-1.3-0.6-2.1
			c0-1,0.3-1.8,0.8-2.4s1.2-0.9,2-0.9c0.9,0,1.7,0.3,2.2,0.9s0.8,1.5,0.8,2.8h-4.1c0,0.5,0.1,0.9,0.4,1.1s0.6,0.4,0.9,0.4
			c0.3,0,0.5-0.1,0.6-0.2S208.4,64.8,208.5,64.5z M208.5,62.8c0-0.5-0.1-0.8-0.4-1.1s-0.5-0.4-0.9-0.4c-0.4,0-0.7,0.1-0.9,0.4
			s-0.4,0.6-0.3,1.1C206.1,62.8,208.5,62.8,208.5,62.8z"/>
		<path class="st3" d="M211.5,66.4v-8.6h1.6v8.6H211.5z"/>
		<path class="st3" d="M223.6,62.1l-1.6,0.3c-0.1-0.3-0.2-0.6-0.4-0.7s-0.4-0.2-0.8-0.2c-0.4,0-0.7,0.1-1,0.4s-0.4,0.8-0.4,1.4
			c0,0.7,0.1,1.3,0.4,1.6s0.6,0.5,1,0.5c0.3,0,0.6-0.1,0.8-0.3s0.3-0.5,0.4-0.9l1.6,0.3c-0.2,0.7-0.5,1.3-1,1.7s-1.1,0.6-1.9,0.6
			c-0.9,0-1.6-0.3-2.2-0.9s-0.8-1.4-0.8-2.4c0-1,0.3-1.8,0.8-2.4s1.3-0.9,2.2-0.9c0.8,0,1.4,0.2,1.8,0.5S223.4,61.4,223.6,62.1z"/>
		<path class="st3" d="M228.5,64.5l1.6,0.3c-0.2,0.6-0.5,1.1-1,1.4s-1,0.5-1.7,0.5c-1.1,0-1.9-0.4-2.4-1.1c-0.4-0.6-0.6-1.3-0.6-2.1
			c0-1,0.3-1.8,0.8-2.4s1.2-0.9,2-0.9c0.9,0,1.7,0.3,2.2,0.9s0.8,1.5,0.8,2.8h-4.1c0,0.5,0.1,0.9,0.4,1.1s0.6,0.4,0.9,0.4
			c0.3,0,0.5-0.1,0.6-0.2S228.4,64.8,228.5,64.5z M228.6,62.8c0-0.5-0.1-0.8-0.4-1.1s-0.5-0.4-0.9-0.4c-0.4,0-0.7,0.1-0.9,0.4
			s-0.4,0.6-0.3,1.1C226.1,62.8,228.6,62.8,228.6,62.8z"/>
		<path class="st3" d="M237.2,66.4h-1.6v-3.2c0-0.7,0-1.1-0.1-1.3s-0.2-0.4-0.3-0.5s-0.3-0.2-0.6-0.2c-0.3,0-0.5,0.1-0.8,0.2
			s-0.4,0.4-0.5,0.6s-0.1,0.7-0.1,1.4v2.8h-1.6v-6.2h1.5v0.9c0.5-0.7,1.2-1.1,2.1-1.1c0.4,0,0.7,0.1,1,0.2s0.5,0.3,0.7,0.5
			s0.3,0.4,0.3,0.7s0.1,0.6,0.1,1.1L237.2,66.4L237.2,66.4z"/>
		<path class="st3" d="M241.7,60.2v1.3h-1.1V64c0,0.5,0,0.8,0,0.9s0.1,0.2,0.1,0.2s0.2,0.1,0.3,0.1c0.2,0,0.4-0.1,0.7-0.2l0.1,1.3
			c-0.4,0.2-0.8,0.2-1.3,0.2c-0.3,0-0.6-0.1-0.8-0.1s-0.4-0.2-0.5-0.4s-0.2-0.4-0.2-0.6c0-0.2-0.1-0.6-0.1-1.2v-2.7h-0.8v-1.3h0.8
			V59l1.7-1v2.2H241.7z"/>
		<path class="st3" d="M244.4,66.4h-1.6v-6.2h1.5v0.9c0.3-0.4,0.5-0.7,0.7-0.8s0.4-0.2,0.7-0.2c0.4,0,0.7,0.1,1.1,0.3l-0.5,1.4
			c-0.3-0.2-0.5-0.3-0.8-0.3c-0.2,0-0.4,0.1-0.6,0.2s-0.3,0.4-0.4,0.7s-0.1,1-0.1,2.1L244.4,66.4L244.4,66.4z"/>
		<path class="st3" d="M247.2,63.2c0-0.5,0.1-1.1,0.4-1.6s0.7-0.9,1.1-1.2s1-0.4,1.7-0.4c0.9,0,1.7,0.3,2.3,0.9s0.9,1.4,0.9,2.3
			c0,0.9-0.3,1.7-0.9,2.3s-1.4,0.9-2.3,0.9c-0.6,0-1.1-0.1-1.6-0.4s-0.9-0.6-1.2-1.1S247.2,64,247.2,63.2z M248.8,63.3
			c0,0.6,0.1,1.1,0.4,1.4s0.7,0.5,1.1,0.5s0.8-0.2,1.1-0.5s0.4-0.8,0.4-1.4c0-0.6-0.1-1.1-0.4-1.4s-0.7-0.5-1.1-0.5
			s-0.8,0.2-1.1,0.5S248.8,62.7,248.8,63.3z"/>
	</g>
	<path id="XMLID_4258_" class="st4" d="M298,30.5H120c-2.2,0-4-1.8-4-4v-22c0-2.2,1.8-4,4-4H298c2.2,0,4,1.8,4,4v22
		C302,28.7,300.2,30.5,298,30.5z"/>
	<g>
		<path class="st3" d="M138.5,10.9h3.2c0.7,0,1.3,0.1,1.6,0.2c0.5,0.1,0.9,0.4,1.3,0.8s0.6,0.8,0.8,1.4s0.3,1.2,0.3,2
			c0,0.7-0.1,1.3-0.3,1.8c-0.2,0.6-0.5,1.1-0.9,1.5c-0.3,0.3-0.7,0.5-1.2,0.7c-0.4,0.1-0.9,0.2-1.5,0.2h-3.3L138.5,10.9L138.5,10.9z
			 M140.2,12.3V18h1.3c0.5,0,0.8,0,1-0.1c0.3-0.1,0.5-0.2,0.7-0.4s0.3-0.4,0.5-0.8s0.2-0.9,0.2-1.6s-0.1-1.2-0.2-1.5
			s-0.3-0.6-0.5-0.8s-0.5-0.3-0.8-0.4c-0.2-0.1-0.7-0.1-1.4-0.1L140.2,12.3L140.2,12.3z"/>
		<path class="st3" d="M150.8,17.5l1.6,0.3c-0.2,0.6-0.5,1.1-1,1.4s-1,0.5-1.7,0.5c-1.1,0-1.9-0.4-2.4-1.1c-0.4-0.6-0.6-1.3-0.6-2.1
			c0-1,0.3-1.8,0.8-2.4s1.2-0.9,2-0.9c0.9,0,1.7,0.3,2.2,0.9s0.8,1.5,0.8,2.8h-4.1c0,0.5,0.1,0.9,0.4,1.1s0.6,0.4,0.9,0.4
			c0.3,0,0.5-0.1,0.6-0.2S150.7,17.8,150.8,17.5z M150.9,15.8c0-0.5-0.1-0.8-0.4-1.1s-0.5-0.4-0.9-0.4c-0.4,0-0.7,0.1-0.9,0.4
			s-0.4,0.6-0.3,1.1H150.9z"/>
		<path class="st3" d="M153.3,17.7l1.7-0.3c0.1,0.3,0.2,0.6,0.4,0.7s0.5,0.2,0.9,0.2c0.4,0,0.7-0.1,1-0.2c0.1-0.1,0.2-0.3,0.2-0.4
			c0-0.1,0-0.2-0.1-0.3c-0.1-0.1-0.3-0.1-0.6-0.2c-1.3-0.3-2.2-0.6-2.5-0.8c-0.5-0.3-0.7-0.8-0.7-1.4c0-0.5,0.2-1,0.6-1.4
			s1.1-0.6,2-0.6c0.9,0,1.5,0.1,1.9,0.4s0.7,0.7,0.9,1.2l-1.6,0.3c-0.1-0.2-0.2-0.4-0.4-0.6s-0.4-0.2-0.8-0.2
			c-0.4,0-0.7,0.1-0.9,0.2c-0.1,0.1-0.2,0.2-0.2,0.3c0,0.1,0.1,0.2,0.2,0.3c0.1,0.1,0.7,0.3,1.5,0.5s1.5,0.4,1.8,0.7
			c0.3,0.3,0.5,0.7,0.5,1.2c0,0.6-0.2,1.1-0.7,1.5s-1.2,0.6-2.1,0.6c-0.8,0-1.5-0.2-2-0.5S153.4,18.3,153.3,17.7z"/>
		<path class="st3" d="M163.4,13.2v1.3h-1.1V17c0,0.5,0,0.8,0,0.9s0.1,0.2,0.1,0.2s0.2,0.1,0.3,0.1c0.2,0,0.4-0.1,0.7-0.2l0.1,1.3
			c-0.4,0.2-0.8,0.2-1.3,0.2c-0.3,0-0.6,0-0.8-0.1s-0.4-0.2-0.5-0.4s-0.2-0.4-0.2-0.6c0-0.2-0.1-0.6-0.1-1.2v-2.7h-0.8v-1.3h0.8V12
			l1.7-1v2.2C162.2,13.2,163.4,13.2,163.4,13.2z"/>
		<path class="st3" d="M164.5,12.4v-1.5h1.6v1.5H164.5z M164.5,19.4v-6.2h1.6v6.2H164.5z"/>
		<path class="st3" d="M173.5,19.4h-1.6v-3.2c0-0.7,0-1.1-0.1-1.3s-0.2-0.4-0.3-0.5s-0.3-0.2-0.6-0.2c-0.3,0-0.5,0.1-0.8,0.2
			s-0.4,0.4-0.5,0.6s-0.1,0.7-0.1,1.4v2.8h-1.6v-6.2h1.5v0.9c0.5-0.7,1.2-1.1,2.1-1.1c0.4,0,0.7,0.1,1,0.2s0.5,0.3,0.7,0.5
			s0.3,0.4,0.3,0.7s0.1,0.6,0.1,1.1L173.5,19.4L173.5,19.4z"/>
		<path class="st3" d="M176.4,15.1l-1.5-0.3c0.2-0.6,0.5-1,0.9-1.3s1-0.4,1.8-0.4c0.7,0,1.3,0.1,1.6,0.3s0.6,0.4,0.8,0.7
			s0.2,0.8,0.2,1.5l0,1.9c0,0.5,0,1,0.1,1.2s0.2,0.5,0.3,0.8H179c0-0.1-0.1-0.3-0.2-0.5c0-0.1,0-0.2-0.1-0.2
			c-0.3,0.3-0.6,0.5-0.9,0.6s-0.7,0.2-1,0.2c-0.6,0-1.1-0.2-1.5-0.5s-0.6-0.8-0.6-1.3c0-0.4,0.1-0.7,0.3-0.9s0.4-0.5,0.7-0.6
			s0.7-0.3,1.3-0.4c0.8-0.1,1.3-0.3,1.6-0.4v-0.2c0-0.3-0.1-0.5-0.2-0.7s-0.5-0.2-0.9-0.2c-0.3,0-0.5,0.1-0.7,0.2
			S176.5,14.8,176.4,15.1z M178.6,16.5c-0.2,0.1-0.5,0.2-1,0.3s-0.8,0.2-0.9,0.3c-0.2,0.2-0.3,0.3-0.3,0.6c0,0.2,0.1,0.4,0.3,0.6
			s0.4,0.3,0.7,0.3c0.3,0,0.6-0.1,0.9-0.3c0.2-0.1,0.3-0.3,0.4-0.5c0-0.1,0.1-0.4,0.1-0.8L178.6,16.5L178.6,16.5z"/>
		<path class="st3" d="M184.7,13.2v1.3h-1.1V17c0,0.5,0,0.8,0,0.9s0.1,0.2,0.1,0.2s0.2,0.1,0.3,0.1c0.2,0,0.4-0.1,0.7-0.2l0.1,1.3
			c-0.4,0.2-0.8,0.2-1.3,0.2c-0.3,0-0.6,0-0.8-0.1s-0.4-0.2-0.5-0.4s-0.2-0.4-0.2-0.6c0-0.2-0.1-0.6-0.1-1.2v-2.7h-0.8v-1.3h0.8V12
			l1.7-1v2.2C183.6,13.2,184.7,13.2,184.7,13.2z"/>
		<path class="st3" d="M187.1,15.1l-1.5-0.3c0.2-0.6,0.5-1,0.9-1.3s1-0.4,1.8-0.4c0.7,0,1.3,0.1,1.6,0.3s0.6,0.4,0.8,0.7
			s0.2,0.8,0.2,1.5l0,1.9c0,0.5,0,1,0.1,1.2s0.2,0.5,0.3,0.8h-1.6c0-0.1-0.1-0.3-0.2-0.5c0-0.1,0-0.2-0.1-0.2
			c-0.3,0.3-0.6,0.5-0.9,0.6s-0.7,0.2-1,0.2c-0.6,0-1.1-0.2-1.5-0.5s-0.6-0.8-0.6-1.3c0-0.4,0.1-0.7,0.3-0.9s0.4-0.5,0.7-0.6
			s0.7-0.3,1.3-0.4c0.8-0.1,1.3-0.3,1.6-0.4v-0.2c0-0.3-0.1-0.5-0.2-0.7s-0.5-0.2-0.9-0.2c-0.3,0-0.5,0.1-0.7,0.2
			S187.2,14.8,187.1,15.1z M189.3,16.5c-0.2,0.1-0.5,0.2-1,0.3s-0.8,0.2-0.9,0.3c-0.2,0.2-0.3,0.3-0.3,0.6c0,0.2,0.1,0.4,0.3,0.6
			s0.4,0.3,0.7,0.3c0.3,0,0.6-0.1,0.9-0.3c0.2-0.1,0.3-0.3,0.4-0.5c0-0.1,0.1-0.4,0.1-0.8L189.3,16.5L189.3,16.5z"/>
		<path class="st3" d="M194.1,19.4h-1.6v-6.2h1.5v0.9c0.3-0.4,0.5-0.7,0.7-0.8s0.4-0.2,0.7-0.2c0.4,0,0.7,0.1,1.1,0.3l-0.5,1.4
			c-0.3-0.2-0.5-0.3-0.8-0.3c-0.2,0-0.4,0.1-0.6,0.2s-0.3,0.4-0.4,0.7s-0.1,1-0.1,2.1L194.1,19.4L194.1,19.4z"/>
		<path class="st3" d="M197.2,12.4v-1.5h1.6v1.5H197.2z M197.2,19.4v-6.2h1.6v6.2H197.2z"/>
		<path class="st3" d="M200.1,16.2c0-0.5,0.1-1.1,0.4-1.6s0.7-0.9,1.1-1.2s1-0.4,1.7-0.4c0.9,0,1.7,0.3,2.3,0.9s0.9,1.4,0.9,2.3
			c0,0.9-0.3,1.7-0.9,2.3s-1.4,0.9-2.3,0.9c-0.6,0-1.1-0.1-1.6-0.4s-0.9-0.6-1.2-1.1S200.1,17,200.1,16.2z M201.8,16.3
			c0,0.6,0.1,1.1,0.4,1.4s0.7,0.5,1.1,0.5s0.8-0.2,1.1-0.5s0.4-0.8,0.4-1.4c0-0.6-0.1-1.1-0.4-1.4s-0.7-0.5-1.1-0.5
			s-0.8,0.2-1.1,0.5S201.8,15.7,201.8,16.3z"/>
		<path class="st3" d="M207.3,17.7l1.7-0.3c0.1,0.3,0.2,0.6,0.4,0.7s0.5,0.2,0.9,0.2c0.4,0,0.7-0.1,1-0.2c0.1-0.1,0.2-0.3,0.2-0.4
			c0-0.1,0-0.2-0.1-0.3c-0.1-0.1-0.3-0.1-0.6-0.2c-1.3-0.3-2.2-0.6-2.5-0.8c-0.5-0.3-0.7-0.8-0.7-1.4c0-0.5,0.2-1,0.6-1.4
			s1.1-0.6,2-0.6c0.9,0,1.5,0.1,1.9,0.4s0.7,0.7,0.9,1.2l-1.6,0.3c-0.1-0.2-0.2-0.4-0.4-0.6s-0.4-0.2-0.8-0.2
			c-0.4,0-0.7,0.1-0.9,0.2c-0.1,0.1-0.2,0.2-0.2,0.3c0,0.1,0.1,0.2,0.2,0.3c0.1,0.1,0.7,0.3,1.5,0.5s1.5,0.4,1.8,0.7
			c0.3,0.3,0.5,0.7,0.5,1.2c0,0.6-0.2,1.1-0.7,1.5s-1.2,0.6-2.1,0.6c-0.8,0-1.5-0.2-2-0.5S207.4,18.3,207.3,17.7z"/>
		<path class="st3" d="M220.6,22h-1.1c-0.6-0.9-1.1-1.8-1.4-2.8s-0.5-1.9-0.5-2.8c0-1.1,0.2-2.2,0.6-3.2c0.3-0.9,0.8-1.7,1.3-2.4
			h1.1c-0.5,1.2-0.9,2.2-1.1,3s-0.3,1.7-0.3,2.6c0,0.6,0.1,1.3,0.2,2s0.3,1.3,0.5,1.9C220,20.7,220.2,21.2,220.6,22z"/>
		<path class="st3" d="M227.6,19.4H226v-0.9c-0.3,0.4-0.6,0.6-0.9,0.8s-0.7,0.3-1,0.3c-0.7,0-1.3-0.3-1.8-0.9s-0.8-1.4-0.8-2.4
			c0-1.1,0.2-1.9,0.7-2.4s1.1-0.8,1.9-0.8c0.7,0,1.3,0.3,1.8,0.9v-3.1h1.6L227.6,19.4L227.6,19.4z M223.2,16.2
			c0,0.7,0.1,1.1,0.3,1.4c0.3,0.4,0.6,0.6,1.1,0.6c0.4,0,0.7-0.2,1-0.5s0.4-0.8,0.4-1.4c0-0.7-0.1-1.2-0.4-1.5s-0.6-0.5-1-0.5
			c-0.4,0-0.7,0.2-1,0.5S223.2,15.6,223.2,16.2z"/>
		<path class="st3" d="M232.8,17.5l1.6,0.3c-0.2,0.6-0.5,1.1-1,1.4s-1,0.5-1.7,0.5c-1.1,0-1.9-0.4-2.4-1.1c-0.4-0.6-0.6-1.3-0.6-2.1
			c0-1,0.3-1.8,0.8-2.4s1.2-0.9,2-0.9c0.9,0,1.7,0.3,2.2,0.9s0.8,1.5,0.8,2.8h-4.1c0,0.5,0.1,0.9,0.4,1.1s0.6,0.4,0.9,0.4
			c0.3,0,0.5-0.1,0.6-0.2S232.7,17.8,232.8,17.5z M232.9,15.8c0-0.5-0.1-0.8-0.4-1.1s-0.5-0.4-0.9-0.4c-0.4,0-0.7,0.1-0.9,0.4
			s-0.4,0.6-0.3,1.1H232.9z"/>
		<path class="st3" d="M235.7,13.2h1.5v0.9c0.5-0.7,1.2-1,1.9-1c0.4,0,0.7,0.1,1,0.2s0.5,0.4,0.7,0.7c0.3-0.3,0.6-0.6,0.9-0.7
			s0.7-0.2,1-0.2c0.5,0,0.8,0.1,1.2,0.3s0.6,0.5,0.7,0.8c0.1,0.3,0.2,0.7,0.2,1.3v4h-1.6v-3.6c0-0.6-0.1-1-0.2-1.2
			c-0.2-0.2-0.4-0.4-0.7-0.4c-0.2,0-0.4,0.1-0.6,0.2s-0.4,0.3-0.4,0.6s-0.1,0.7-0.1,1.3v3h-1.6V16c0-0.6,0-1-0.1-1.2
			s-0.1-0.3-0.3-0.4s-0.3-0.1-0.5-0.1c-0.3,0-0.5,0.1-0.7,0.2s-0.3,0.3-0.4,0.6s-0.1,0.7-0.1,1.3v3h-1.6L235.7,13.2L235.7,13.2z"/>
		<path class="st3" d="M247.8,15.1l-1.5-0.3c0.2-0.6,0.5-1,0.9-1.3s1-0.4,1.8-0.4c0.7,0,1.3,0.1,1.6,0.3s0.6,0.4,0.8,0.7
			s0.2,0.8,0.2,1.5l0,1.9c0,0.5,0,1,0.1,1.2s0.2,0.5,0.3,0.8h-1.6c0-0.1-0.1-0.3-0.2-0.5c0-0.1,0-0.2-0.1-0.2
			c-0.3,0.3-0.6,0.5-0.9,0.6s-0.7,0.2-1,0.2c-0.6,0-1.1-0.2-1.5-0.5s-0.6-0.8-0.6-1.3c0-0.4,0.1-0.7,0.3-0.9s0.4-0.5,0.7-0.6
			s0.7-0.3,1.3-0.4c0.8-0.1,1.3-0.3,1.6-0.4v-0.2c0-0.3-0.1-0.5-0.2-0.7s-0.5-0.2-0.9-0.2c-0.3,0-0.5,0.1-0.7,0.2
			S247.9,14.8,247.8,15.1z M250,16.5c-0.2,0.1-0.5,0.2-1,0.3s-0.8,0.2-0.9,0.3c-0.2,0.2-0.3,0.3-0.3,0.6c0,0.2,0.1,0.4,0.3,0.6
			s0.4,0.3,0.7,0.3c0.3,0,0.6-0.1,0.9-0.3c0.2-0.1,0.3-0.3,0.4-0.5c0-0.1,0.1-0.4,0.1-0.8L250,16.5L250,16.5z"/>
		<path class="st3" d="M258.9,19.4h-1.6v-3.2c0-0.7,0-1.1-0.1-1.3s-0.2-0.4-0.3-0.5s-0.3-0.2-0.6-0.2c-0.3,0-0.5,0.1-0.8,0.2
			s-0.4,0.4-0.5,0.6s-0.1,0.7-0.1,1.4v2.8h-1.6v-6.2h1.5v0.9c0.5-0.7,1.2-1.1,2.1-1.1c0.4,0,0.7,0.1,1,0.2s0.5,0.3,0.7,0.5
			s0.3,0.4,0.3,0.7s0.1,0.6,0.1,1.1L258.9,19.4L258.9,19.4z"/>
		<path class="st3" d="M266.2,19.4h-1.5v-0.9c-0.3,0.4-0.6,0.6-0.9,0.8s-0.7,0.3-1,0.3c-0.7,0-1.3-0.3-1.8-0.9s-0.8-1.4-0.8-2.4
			c0-1.1,0.2-1.9,0.7-2.4s1.1-0.8,1.9-0.8c0.7,0,1.3,0.3,1.8,0.9v-3.1h1.6V19.4z M261.8,16.2c0,0.7,0.1,1.1,0.3,1.4
			c0.3,0.4,0.6,0.6,1.1,0.6c0.4,0,0.7-0.2,1-0.5s0.4-0.8,0.4-1.4c0-0.7-0.1-1.2-0.4-1.5s-0.6-0.5-1-0.5c-0.4,0-0.7,0.2-1,0.5
			S261.8,15.6,261.8,16.2z"/>
		<path class="st3" d="M269.1,15.1l-1.5-0.3c0.2-0.6,0.5-1,0.9-1.3s1-0.4,1.8-0.4c0.7,0,1.3,0.1,1.6,0.3s0.6,0.4,0.8,0.7
			s0.2,0.8,0.2,1.5l0,1.9c0,0.5,0,1,0.1,1.2s0.2,0.5,0.3,0.8h-1.6c0-0.1-0.1-0.3-0.2-0.5c0-0.1,0-0.2-0.1-0.2
			c-0.3,0.3-0.6,0.5-0.9,0.6s-0.7,0.2-1,0.2c-0.6,0-1.1-0.2-1.5-0.5s-0.6-0.8-0.6-1.3c0-0.4,0.1-0.7,0.3-0.9s0.4-0.5,0.7-0.6
			s0.7-0.3,1.3-0.4c0.8-0.1,1.3-0.3,1.6-0.4v-0.2c0-0.3-0.1-0.5-0.2-0.7s-0.5-0.2-0.9-0.2c-0.3,0-0.5,0.1-0.7,0.2
			S269.2,14.8,269.1,15.1z M271.3,16.5c-0.2,0.1-0.5,0.2-1,0.3s-0.8,0.2-0.9,0.3c-0.2,0.2-0.3,0.3-0.3,0.6c0,0.2,0.1,0.4,0.3,0.6
			s0.4,0.3,0.7,0.3c0.3,0,0.6-0.1,0.9-0.3c0.2-0.1,0.3-0.3,0.4-0.5c0-0.1,0.1-0.4,0.1-0.8L271.3,16.5L271.3,16.5z"/>
		<path class="st3" d="M274,17.7l1.7-0.3c0.1,0.3,0.2,0.6,0.4,0.7s0.5,0.2,0.9,0.2c0.4,0,0.7-0.1,1-0.2c0.1-0.1,0.2-0.3,0.2-0.4
			c0-0.1,0-0.2-0.1-0.3c-0.1-0.1-0.3-0.1-0.6-0.2c-1.3-0.3-2.2-0.6-2.5-0.8c-0.5-0.3-0.7-0.8-0.7-1.4c0-0.5,0.2-1,0.6-1.4
			s1.1-0.6,2-0.6c0.9,0,1.5,0.1,1.9,0.4s0.7,0.7,0.9,1.2L278,15c-0.1-0.2-0.2-0.4-0.4-0.6s-0.5-0.2-0.8-0.2c-0.4,0-0.7,0.1-0.9,0.2
			c-0.1,0.1-0.2,0.2-0.2,0.3c0,0.1,0.1,0.2,0.2,0.3c0.1,0.1,0.7,0.3,1.5,0.5s1.5,0.4,1.8,0.7c0.3,0.3,0.5,0.7,0.5,1.2
			c0,0.6-0.2,1.1-0.7,1.5s-1.2,0.6-2.1,0.6c-0.8,0-1.5-0.2-2-0.5S274.1,18.3,274,17.7z"/>
		<path class="st3" d="M280.8,22c0.3-0.7,0.6-1.2,0.7-1.6s0.3-0.8,0.4-1.3s0.2-0.9,0.3-1.4s0.1-0.9,0.1-1.3c0-0.9-0.1-1.8-0.3-2.6
			s-0.6-1.8-1.1-3h1.1c0.6,0.8,1,1.7,1.4,2.7s0.5,1.9,0.5,2.9c0,0.8-0.1,1.7-0.4,2.6c-0.3,1-0.8,2.1-1.4,3.1L280.8,22L280.8,22z"/>
	</g>
	<g>
		<path class="st0" d="M231.3,385.7v-8.6h6.4v1.5H233v1.9h4.3v1.4H233v2.3h4.8v1.4L231.3,385.7L231.3,385.7z"/>
		<path class="st0" d="M242.4,377.1h1.7v5.4c0,0.7-0.1,1.3-0.2,1.6c-0.2,0.5-0.5,0.9-0.9,1.2s-1,0.5-1.7,0.5c-0.8,0-1.5-0.2-2-0.7
			s-0.7-1.2-0.7-2.1l1.6-0.2c0,0.5,0.1,0.8,0.2,1c0.2,0.3,0.5,0.5,0.9,0.5c0.4,0,0.7-0.1,0.8-0.3s0.2-0.7,0.2-1.4V377.1z"/>
		<path class="st0" d="M245.9,385.7v-8.6h6.4v1.5h-4.6v1.9h4.3v1.4h-4.3v2.3h4.8v1.4L245.9,385.7L245.9,385.7z"/>
		<path class="st0" d="M259.5,382.5l1.7,0.5c-0.3,0.9-0.7,1.6-1.3,2.1s-1.4,0.7-2.3,0.7c-1.1,0-2.1-0.4-2.8-1.2s-1.1-1.8-1.1-3.2
			c0-1.4,0.4-2.5,1.1-3.3s1.7-1.2,2.9-1.2c1.1,0,1.9,0.3,2.6,0.9c0.4,0.4,0.7,0.9,0.9,1.6l-1.7,0.4c-0.1-0.4-0.3-0.8-0.6-1.1
			s-0.7-0.4-1.2-0.4c-0.6,0-1.2,0.2-1.6,0.7s-0.6,1.2-0.6,2.2c0,1.1,0.2,1.9,0.6,2.3s0.9,0.7,1.5,0.7c0.5,0,0.9-0.1,1.2-0.4
			S259.3,383.1,259.5,382.5z"/>
		<path class="st0" d="M262.6,377.1h1.7v4.7c0,0.7,0,1.2,0.1,1.4c0.1,0.4,0.3,0.6,0.5,0.8s0.7,0.3,1.1,0.3c0.5,0,0.9-0.1,1.1-0.3
			s0.4-0.4,0.5-0.7s0.1-0.8,0.1-1.5v-4.8h1.7v4.5c0,1,0,1.8-0.1,2.2s-0.3,0.8-0.5,1.1s-0.6,0.5-1,0.7s-1,0.3-1.7,0.3
			c-0.8,0-1.4-0.1-1.9-0.3s-0.8-0.4-1-0.7s-0.4-0.6-0.5-1c-0.1-0.5-0.2-1.2-0.2-2.2L262.6,377.1L262.6,377.1z"/>
		<path class="st0" d="M276.8,382.5l1.7,0.5c-0.3,0.9-0.7,1.6-1.3,2.1s-1.4,0.7-2.3,0.7c-1.1,0-2.1-0.4-2.8-1.2s-1.1-1.8-1.1-3.2
			c0-1.4,0.4-2.5,1.1-3.3s1.7-1.2,2.9-1.2c1.1,0,1.9,0.3,2.6,0.9c0.4,0.4,0.7,0.9,0.9,1.6l-1.7,0.4c-0.1-0.4-0.3-0.8-0.6-1.1
			s-0.7-0.4-1.2-0.4c-0.6,0-1.2,0.2-1.6,0.7s-0.6,1.2-0.6,2.2c0,1.1,0.2,1.9,0.6,2.3s0.9,0.7,1.5,0.7c0.5,0,0.9-0.1,1.2-0.4
			S276.6,383.1,276.8,382.5z"/>
		<path class="st0" d="M279.9,385.7v-8.6h1.7v8.6H279.9z"/>
		<path class="st0" d="M282.9,381.4c0-0.9,0.1-1.6,0.4-2.2c0.2-0.4,0.5-0.8,0.8-1.2s0.7-0.6,1.1-0.8c0.5-0.2,1.2-0.3,1.9-0.3
			c1.3,0,2.3,0.4,3,1.2s1.1,1.9,1.1,3.3c0,1.4-0.4,2.5-1.1,3.3s-1.8,1.2-3,1.2c-1.3,0-2.3-0.4-3-1.2S282.9,382.8,282.9,381.4z
			 M284.7,381.4c0,1,0.2,1.7,0.7,2.2s1,0.8,1.7,0.8s1.3-0.2,1.7-0.7s0.7-1.2,0.7-2.2c0-1-0.2-1.7-0.6-2.2s-1-0.7-1.7-0.7
			s-1.3,0.2-1.7,0.7S284.7,380.4,284.7,381.4z M286,376.6l0.8-1.8h1.8l-1.6,1.8H286z"/>
		<path class="st0" d="M292.6,385.7v-8.6h1.7l3.5,5.7v-5.7h1.6v8.6h-1.7l-3.5-5.6v5.6H292.6z"/>
		<path class="st0" d="M258.3,391.1h3.2c0.7,0,1.3,0.1,1.6,0.2c0.5,0.1,0.9,0.4,1.3,0.8s0.6,0.8,0.8,1.4s0.3,1.2,0.3,2
			c0,0.7-0.1,1.3-0.3,1.8c-0.2,0.6-0.5,1.1-0.9,1.5c-0.3,0.3-0.7,0.5-1.2,0.7c-0.4,0.1-0.9,0.2-1.5,0.2h-3.3L258.3,391.1
			L258.3,391.1z M260,392.5v5.7h1.3c0.5,0,0.8,0,1-0.1c0.3-0.1,0.5-0.2,0.7-0.4s0.3-0.4,0.5-0.8s0.2-0.9,0.2-1.6s-0.1-1.2-0.2-1.5
			s-0.3-0.6-0.5-0.8s-0.5-0.3-0.8-0.4c-0.2-0.1-0.7-0.1-1.4-0.1L260,392.5L260,392.5z"/>
		<path class="st0" d="M266.6,396.5c0-0.5,0.1-1.1,0.4-1.6s0.7-0.9,1.1-1.2s1-0.4,1.7-0.4c0.9,0,1.7,0.3,2.3,0.9s0.9,1.4,0.9,2.3
			c0,0.9-0.3,1.7-0.9,2.3s-1.4,0.9-2.3,0.9c-0.6,0-1.1-0.1-1.6-0.4s-0.9-0.6-1.2-1.1S266.6,397.2,266.6,396.5z M268.2,396.6
			c0,0.6,0.1,1.1,0.4,1.4s0.7,0.5,1.1,0.5s0.8-0.2,1.1-0.5s0.4-0.8,0.4-1.4c0-0.6-0.1-1.1-0.4-1.4s-0.7-0.5-1.1-0.5
			s-0.8,0.2-1.1,0.5S268.2,395.9,268.2,396.6z"/>
	</g>
	<circle id="XMLID_5965_" class="st9" cx="210.2" cy="324" r="134.5"/>
	<path id="XMLID_5462_" class="st3" d="M210.2,184.8c-2.9,0-5.2,2.3-5.2,5.2c0,2.9,2.3,5.3,5.2,5.3s5.2-2.4,5.2-5.3
		C215.4,187.1,213.1,184.8,210.2,184.8z"/>
	<path id="XMLID_6024_" class="st3" d="M76.3,318.7c-2.9,0-5.2,2.3-5.2,5.2c0,2.9,2.3,5.3,5.2,5.3c2.9,0,5.2-2.4,5.2-5.3
		C81.5,321,79.2,318.7,76.3,318.7z"/>
	<path id="XMLID_6025_" class="st3" d="M344.6,318.7c-2.9,0-5.2,2.3-5.2,5.2c0,2.9,2.3,5.3,5.2,5.3c2.9,0,5.2-2.4,5.2-5.3
		C349.9,321,347.5,318.7,344.6,318.7z"/>
	<path id="XMLID_6023_" class="st3" d="M210.2,453.1c-2.9,0-5.2,2.3-5.2,5.2c0,2.9,2.3,5.3,5.2,5.3s5.2-2.4,5.2-5.3
		C215.4,455.5,213.1,453.1,210.2,453.1z"/>
	<path id="XMLID_4210_" class="st0" d="M139.4,324.5c0.7-2.2,4.7-13.1,18.5-17.3v7.3l11.1-14.3l-11.1-14.3v7.6
		c-8.2,3.5-20.6,12-18.7,31.1c-2.6,25.1,19.6,31.8,24.6,33v-14.5C145.2,340.7,140.2,327,139.4,324.5z"/>
	<path id="XMLID_4207_" class="st0" d="M286,323.9c-0.7,2.2-4.7,13.1-18.5,17.3V334l-11.1,14.3l11.1,14.3V355
		c8.2-3.5,20.6-12,18.7-31.1c2.6-25.1-19.6-31.8-24.6-33v14.5C280.2,307.8,285.2,321.4,286,323.9z"/>
	<g id="XMLID_4262_">
		<line id="XMLID_5251_" class="st10" x1="208.9" y1="77.2" x2="208.9" y2="93.1"/>
		<g id="XMLID_5233_">
			<line id="XMLID_5250_" class="st11" x1="208.9" y1="77.2" x2="208.9" y2="88.9"/>
			<g id="XMLID_5235_">
				<path id="XMLID_5237_" class="st3" d="M208.9,93.1c-0.7-2-2-4.5-3.3-6l3.3,1.2l3.3-1.2C210.9,88.6,209.6,91.1,208.9,93.1z"/>
			</g>
		</g>
	</g>
	<g id="XMLID_4432_">
		<line id="XMLID_5231_" class="st10" x1="208.9" y1="31.1" x2="208.9" y2="47"/>
		<g id="XMLID_5053_">
			<line id="XMLID_5230_" class="st11" x1="208.9" y1="31.1" x2="208.9" y2="42.7"/>
			<g id="XMLID_5124_">
				<path id="XMLID_5125_" class="st3" d="M208.9,47c-0.7-2-2-4.5-3.3-6l3.3,1.2l3.3-1.2C210.9,42.5,209.6,45,208.9,47z"/>
			</g>
		</g>
	</g>
</g>
</svg>
