<?xml version="1.0" encoding="utf-8"?>
<!-- Generator: Adobe Illustrator 16.0.0, SVG Export Plug-In . SVG Version: 6.00 Build 0)  -->
<!DOCTYPE svg PUBLIC "-//W3C//DTD SVG 1.1//EN" "http://www.w3.org/Graphics/SVG/1.1/DTD/svg11.dtd">
<svg version="1.1" id="Layer_1" xmlns="http://www.w3.org/2000/svg" xmlns:xlink="http://www.w3.org/1999/xlink" x="0px" y="0px"
	 width="263.578px" height="391.543px" viewBox="0 0 263.578 391.543" enable-background="new 0 0 263.578 391.543"
	 xml:space="preserve">
<g>
	<path id="XMLID_7693_" fill="#51564D" d="M66.146,54.673H25.282c-13.548,0-24.57-11.021-24.57-24.569v-4.076
		c0-13.548,11.022-24.569,24.57-24.569h40.863c13.548,0,24.568,11.021,24.568,24.569v4.076
		C90.714,43.651,79.693,54.673,66.146,54.673z"/>
	<g id="XMLID_7697_">
		<path fill="#F76881" d="M25.282,51.673c-11.894,0-21.57-9.676-21.57-21.569v-4.076c0-11.894,9.676-21.569,21.57-21.569h40.863
			c11.893,0,21.568,9.676,21.568,21.569v4.076c0,11.894-9.675,21.569-21.568,21.569H25.282z"/>
		<path fill="#F7EBCB" d="M66.146,5.458c11.341,0,20.568,9.228,20.568,20.569v4.076c0,11.342-9.227,20.569-20.568,20.569H25.282
			c-11.342,0-20.57-9.228-20.57-20.569v-4.076c0-11.342,9.228-20.569,20.57-20.569H66.146 M66.146,3.458H25.282
			c-12.445,0-22.57,10.125-22.57,22.569v4.076c0,12.444,10.125,22.569,22.57,22.569h40.863c12.444,0,22.568-10.125,22.568-22.569
			v-4.076C88.714,13.583,78.59,3.458,66.146,3.458L66.146,3.458z"/>
	</g>
	<path id="XMLID_8836_" fill="#51564D" d="M261.145,66.167h-74.134c-0.357,0-0.688-0.19-0.866-0.5s-0.179-0.69,0-1l37.066-64.203
		c0.356-0.619,1.374-0.619,1.732,0l37.067,64.203c0.179,0.31,0.179,0.69,0,1S261.501,66.167,261.145,66.167z"/>
	<g id="XMLID_8837_">
		<polygon fill="#A75FB9" points="190.476,63.167 224.077,4.964 257.68,63.167 		"/>
		<path fill="#F7EBCB" d="M224.077,6.964l31.871,55.203h-63.741L224.077,6.964 M224.077,2.964l-35.334,61.203h70.669L224.077,2.964
			L224.077,2.964z"/>
	</g>
	<path id="XMLID_8816_" fill="#51564D" d="M89.714,148.225H1.712c-0.553,0-1-0.447-1-1V94.247c0-0.553,0.447-1,1-1h88.002
		c0.555,0,1,0.447,1,1v52.978C90.714,147.777,90.269,148.225,89.714,148.225z"/>
	<g id="XMLID_8817_">
		<rect x="3.712" y="96.247" fill="#F7974A" width="84.002" height="48.978"/>
		<path fill="#F7EBCB" d="M86.714,97.247v46.978H4.712V97.247H86.714 M88.714,95.247H2.712v50.978h86.002V95.247L88.714,95.247z"/>
	</g>
	<path id="XMLID_8800_" fill="#51564D" d="M45.714,252.363c-0.19,0-0.381-0.054-0.546-0.162L0.454,223.054
		C0.171,222.869,0,222.554,0,222.216s0.171-0.653,0.454-0.838l44.714-29.146c0.332-0.217,0.76-0.217,1.092,0l44.714,29.146
		c0.283,0.185,0.454,0.5,0.454,0.838s-0.171,0.653-0.454,0.838L46.26,252.201C46.094,252.31,45.903,252.363,45.714,252.363z"/>
	<g id="XMLID_8805_">
		<polygon fill="#599C5B" points="4.662,222.216 45.714,195.457 86.766,222.216 45.714,248.977 		"/>
		<path fill="#F7EBCB" d="M45.714,196.65l39.22,25.565l-39.22,25.566l-39.22-25.566L45.714,196.65 M45.714,194.263L2.831,222.216
			l42.883,27.954l42.883-27.954L45.714,194.263L45.714,194.263z"/>
	</g>
	<path id="XMLID_8786_" fill="#51564D" d="M45.714,353.97c-17.515,0-31.766-14.25-31.766-31.765s14.251-31.765,31.766-31.765
		s31.765,14.25,31.765,31.765S63.229,353.97,45.714,353.97z"/>
	<g id="XMLID_8792_">
		<path fill="#31A6AE" d="M45.714,350.97c-15.861,0-28.766-12.903-28.766-28.765s12.904-28.765,28.766-28.765
			c15.861,0,28.765,12.903,28.765,28.765S61.575,350.97,45.714,350.97z"/>
		<path fill="#F7EBCB" d="M45.714,294.44c15.31,0,27.765,12.455,27.765,27.765S61.023,349.97,45.714,349.97
			c-15.31,0-27.766-12.455-27.766-27.765S30.404,294.44,45.714,294.44 M45.714,292.44c-16.412,0-29.766,13.353-29.766,29.765
			s13.354,29.765,29.766,29.765s29.765-13.353,29.765-29.765S62.126,292.44,45.714,292.44L45.714,292.44z"/>
	</g>
	<path id="XMLID_7709_" fill="#51564D" d="M208.118,198.109c-8.544,0-16.588-1.918-21.006-3.199
		c-0.428-0.123-0.721-0.515-0.721-0.96v-50.987c0-0.553,0.445-1,1-1h73.373c0.553,0,1,0.447,1,1v43.825
		c0,0.291-0.127,0.567-0.348,0.757c-0.219,0.19-0.508,0.272-0.799,0.232c-7.188-1.062-24.795-0.004-31.982,4.912l0,0
		C222.645,196.789,215.209,198.109,208.118,198.109z"/>
	<g id="XMLID_7710_">
		<path fill="#36817C" d="M208.138,195.121c-7.185,0-14.041-1.417-18.746-2.688v-47.47h69.373v39.6
			c-1.288-0.097-2.725-0.146-4.287-0.146c-9.488,0-21.682,1.792-27.534,5.797C222.184,193.469,215.855,195.121,208.138,195.121
			C208.138,195.121,208.139,195.121,208.138,195.121z"/>
		<path fill="#F7EBCB" d="M257.765,145.963v37.535c-1.022-0.053-2.121-0.081-3.287-0.081c-8.937,0-21.657,1.564-28.099,5.971
			c-4.591,3.14-10.729,4.732-18.241,4.732c-6.71,0-13.139-1.257-17.746-2.457v-45.701H257.765 M259.765,143.963h-71.373v49.232
			c4.43,1.239,11.898,2.925,19.746,2.925c6.74,0,13.759-1.244,19.37-5.082c5.883-4.025,18.238-5.622,26.97-5.622
			c1.991,0,3.792,0.083,5.287,0.239V143.963L259.765,143.963z"/>
	</g>
	<path id="XMLID_7692_" fill="#51564D" d="M262.329,336.331h-60.479c-9.388,0-17.025-13.065-17.025-29.126
		s7.638-29.126,17.025-29.126h60.479l0,0l0,0c0.553,0,1,0.447,1,1c0,0.552-0.447,1-1,1c-8.283,0.002-15.022,12.171-15.022,27.126
		c0,14.956,6.739,27.125,15.022,27.126c0.553,0,1,0.448,1,1C263.329,335.884,262.882,336.331,262.329,336.331z"/>
	<g id="XMLID_7698_">
		<path fill="#F76881" d="M201.851,333.331c-7.733,0-14.025-11.72-14.025-26.126s6.292-26.126,14.025-26.126h51.461
			c-5.541,5.307-9.005,15.163-9.005,26.126s3.464,20.819,9.004,26.126H201.851z"/>
		<path fill="#F7EBCB" d="M251.022,282.079c-4.792,5.749-7.716,14.988-7.716,25.126s2.923,19.378,7.715,25.126h-49.171
			c-7.061,0-13.025-11.506-13.025-25.126s5.965-25.126,13.025-25.126H251.022 M256.13,280.079h-54.279
			c-8.285,0-15.025,12.169-15.025,27.126s6.74,27.126,15.025,27.126h54.278c-6.329-4.25-10.822-14.808-10.822-27.126
			S249.8,284.33,256.13,280.079L256.13,280.079z"/>
	</g>
	<g>
		<path fill="#51564D" d="M16.485,69.169v-8.59h1.137v8.59H16.485z"/>
		<path fill="#51564D" d="M19.491,69.169v-6.223h0.949v0.885c0.457-0.684,1.117-1.025,1.98-1.025c0.375,0,0.72,0.067,1.034,0.202
			s0.55,0.312,0.706,0.53s0.266,0.479,0.328,0.779c0.039,0.195,0.059,0.537,0.059,1.025v3.826h-1.055v-3.785
			c0-0.43-0.041-0.751-0.123-0.964s-0.228-0.383-0.437-0.51s-0.454-0.19-0.735-0.19c-0.449,0-0.837,0.143-1.163,0.428
			s-0.489,0.826-0.489,1.623v3.398H19.491z"/>
		<path fill="#51564D" d="M26.171,61.792V60.58h1.055v1.213H26.171z M26.171,69.169v-6.223h1.055v6.223H26.171z"/>
		<path fill="#51564D" d="M32.892,66.89l1.037,0.135c-0.113,0.715-0.403,1.274-0.87,1.679s-1.04,0.606-1.72,0.606
			c-0.852,0-1.536-0.278-2.054-0.835s-0.776-1.354-0.776-2.394c0-0.672,0.111-1.26,0.334-1.764s0.562-0.882,1.017-1.134
			s0.95-0.378,1.485-0.378c0.676,0,1.229,0.171,1.658,0.513s0.705,0.827,0.826,1.456l-1.025,0.158
			c-0.098-0.418-0.271-0.732-0.519-0.943s-0.548-0.316-0.899-0.316c-0.531,0-0.963,0.19-1.295,0.571s-0.498,0.983-0.498,1.808
			c0,0.836,0.16,1.443,0.48,1.822s0.738,0.568,1.254,0.568c0.414,0,0.76-0.127,1.037-0.381S32.817,67.417,32.892,66.89z"/>
		<path fill="#51564D" d="M34.837,61.792V60.58h1.055v1.213H34.837z M34.837,69.169v-6.223h1.055v6.223H34.837z"/>
		<path fill="#51564D" d="M37.104,66.058c0-1.152,0.32-2.006,0.961-2.561c0.535-0.461,1.188-0.691,1.957-0.691
			c0.855,0,1.555,0.28,2.098,0.841s0.814,1.335,0.814,2.323c0,0.801-0.12,1.431-0.36,1.89s-0.59,0.815-1.049,1.069
			s-0.96,0.381-1.503,0.381c-0.871,0-1.575-0.279-2.112-0.838S37.104,67.109,37.104,66.058z M38.188,66.058
			c0,0.797,0.174,1.394,0.521,1.79s0.785,0.595,1.312,0.595c0.523,0,0.959-0.199,1.307-0.598s0.521-1.006,0.521-1.822
			c0-0.77-0.175-1.353-0.524-1.749s-0.784-0.595-1.304-0.595c-0.527,0-0.965,0.197-1.312,0.592S38.188,65.261,38.188,66.058z"/>
		<path fill="#51564D" d="M47.458,71.566l-0.117-0.99c0.23,0.062,0.432,0.094,0.604,0.094c0.234,0,0.422-0.039,0.562-0.117
			s0.256-0.188,0.346-0.328c0.066-0.105,0.174-0.367,0.322-0.785c0.02-0.059,0.051-0.145,0.094-0.258l-2.361-6.234h1.137
			l1.295,3.604c0.168,0.457,0.318,0.938,0.451,1.441c0.121-0.484,0.266-0.957,0.434-1.418l1.33-3.627h1.055l-2.367,6.328
			c-0.254,0.684-0.451,1.154-0.592,1.412c-0.188,0.348-0.402,0.603-0.645,0.765s-0.531,0.243-0.867,0.243
			C47.935,71.695,47.708,71.652,47.458,71.566z"/>
		<path fill="#51564D" d="M57.091,69.169v-5.402h-0.932v-0.82h0.932v-0.662c0-0.418,0.037-0.729,0.111-0.932
			c0.102-0.273,0.28-0.495,0.536-0.665s0.614-0.255,1.075-0.255c0.297,0,0.625,0.035,0.984,0.105l-0.158,0.92
			c-0.219-0.039-0.426-0.059-0.621-0.059c-0.32,0-0.547,0.068-0.68,0.205s-0.199,0.393-0.199,0.768v0.574h1.213v0.82H58.14v5.402
			H57.091z"/>
		<path fill="#51564D" d="M60.179,61.792V60.58h1.055v1.213H60.179z M60.179,69.169v-6.223h1.055v6.223H60.179z"/>
		<path fill="#51564D" d="M62.839,69.169v-6.223h0.949v0.885c0.457-0.684,1.117-1.025,1.98-1.025c0.375,0,0.72,0.067,1.034,0.202
			s0.55,0.312,0.706,0.53s0.266,0.479,0.328,0.779c0.039,0.195,0.059,0.537,0.059,1.025v3.826h-1.055v-3.785
			c0-0.43-0.041-0.751-0.123-0.964s-0.228-0.383-0.437-0.51s-0.454-0.19-0.735-0.19c-0.449,0-0.837,0.143-1.163,0.428
			s-0.489,0.826-0.489,1.623v3.398H62.839z"/>
		<path fill="#51564D" d="M73.573,68.402c-0.391,0.332-0.767,0.566-1.128,0.703s-0.749,0.205-1.163,0.205
			c-0.684,0-1.209-0.167-1.576-0.501s-0.551-0.761-0.551-1.28c0-0.305,0.069-0.583,0.208-0.835s0.32-0.454,0.545-0.606
			s0.478-0.268,0.759-0.346c0.207-0.055,0.52-0.107,0.938-0.158c0.852-0.102,1.479-0.223,1.881-0.363
			c0.004-0.145,0.006-0.236,0.006-0.275c0-0.43-0.1-0.732-0.299-0.908c-0.27-0.238-0.67-0.357-1.201-0.357
			c-0.496,0-0.862,0.087-1.099,0.261s-0.411,0.481-0.524,0.923l-1.031-0.141c0.094-0.441,0.248-0.798,0.463-1.069
			s0.525-0.48,0.932-0.627s0.877-0.22,1.412-0.22c0.531,0,0.963,0.062,1.295,0.188s0.576,0.282,0.732,0.472s0.266,0.429,0.328,0.718
			c0.035,0.18,0.053,0.504,0.053,0.973v1.406c0,0.98,0.022,1.601,0.067,1.86s0.134,0.509,0.267,0.747h-1.102
			C73.675,68.951,73.604,68.695,73.573,68.402z M73.485,66.046c-0.383,0.156-0.957,0.289-1.723,0.398
			c-0.434,0.062-0.74,0.133-0.92,0.211s-0.318,0.192-0.416,0.343S70.28,67.316,70.28,67.5c0,0.281,0.106,0.516,0.319,0.703
			s0.524,0.281,0.935,0.281c0.406,0,0.768-0.089,1.084-0.267s0.549-0.421,0.697-0.729c0.113-0.238,0.17-0.59,0.17-1.055V66.046z"/>
		<path fill="#51564D" d="M76.163,69.169v-8.59h1.055v8.59H76.163z"/>
		<path fill="#51564D" d="M20.522,83.57v-0.785c-0.395,0.617-0.975,0.926-1.74,0.926c-0.496,0-0.952-0.137-1.368-0.41
			s-0.738-0.655-0.967-1.146s-0.343-1.054-0.343-1.69c0-0.621,0.104-1.185,0.311-1.69s0.518-0.894,0.932-1.163
			s0.877-0.404,1.389-0.404c0.375,0,0.709,0.079,1.002,0.237s0.531,0.364,0.715,0.618V74.98h1.049v8.59H20.522z M17.188,80.464
			c0,0.797,0.168,1.393,0.504,1.787s0.732,0.592,1.189,0.592c0.461,0,0.853-0.188,1.175-0.565s0.483-0.952,0.483-1.726
			c0-0.852-0.164-1.477-0.492-1.875s-0.732-0.598-1.213-0.598c-0.469,0-0.86,0.191-1.175,0.574S17.188,79.64,17.188,80.464z"/>
		<path fill="#51564D" d="M27.419,81.566l1.09,0.135c-0.172,0.637-0.49,1.131-0.955,1.482s-1.059,0.527-1.781,0.527
			c-0.91,0-1.632-0.28-2.165-0.841s-0.8-1.347-0.8-2.358c0-1.047,0.27-1.859,0.809-2.438s1.238-0.867,2.098-0.867
			c0.832,0,1.512,0.283,2.039,0.85s0.791,1.363,0.791,2.391c0,0.062-0.002,0.156-0.006,0.281h-4.641
			c0.039,0.684,0.232,1.207,0.58,1.57s0.781,0.545,1.301,0.545c0.387,0,0.717-0.102,0.99-0.305S27.259,82.011,27.419,81.566z
			 M23.956,79.861h3.475c-0.047-0.523-0.18-0.916-0.398-1.178c-0.336-0.406-0.771-0.609-1.307-0.609
			c-0.484,0-0.892,0.162-1.222,0.486S23.991,79.318,23.956,79.861z"/>
		<path fill="#51564D" d="M29.81,83.57v-8.59h1.055v8.59H29.81z"/>
		<path fill="#51564D" d="M35.833,85.955v-8.607h0.961v0.809c0.227-0.316,0.482-0.554,0.768-0.712s0.631-0.237,1.037-0.237
			c0.531,0,1,0.137,1.406,0.41s0.713,0.659,0.92,1.157s0.311,1.044,0.311,1.638c0,0.637-0.114,1.21-0.343,1.72
			s-0.561,0.9-0.996,1.172s-0.894,0.407-1.374,0.407c-0.352,0-0.667-0.074-0.946-0.223s-0.509-0.336-0.688-0.562v3.029H35.833z
			 M36.788,80.494c0,0.801,0.162,1.393,0.486,1.775s0.717,0.574,1.178,0.574c0.469,0,0.87-0.198,1.204-0.595
			s0.501-1.011,0.501-1.843c0-0.793-0.163-1.387-0.489-1.781s-0.716-0.592-1.169-0.592c-0.449,0-0.847,0.21-1.192,0.63
			S36.788,79.693,36.788,80.494z"/>
		<path fill="#51564D" d="M42.495,83.57v-6.223h0.949v0.943c0.242-0.441,0.466-0.732,0.671-0.873s0.431-0.211,0.677-0.211
			c0.355,0,0.717,0.113,1.084,0.34l-0.363,0.979c-0.258-0.152-0.516-0.229-0.773-0.229c-0.23,0-0.438,0.069-0.621,0.208
			s-0.314,0.331-0.393,0.577c-0.117,0.375-0.176,0.785-0.176,1.23v3.258H42.495z"/>
		<path fill="#51564D" d="M46.11,80.458c0-1.152,0.32-2.006,0.961-2.561c0.535-0.461,1.188-0.691,1.957-0.691
			c0.855,0,1.555,0.28,2.098,0.841s0.814,1.335,0.814,2.323c0,0.801-0.12,1.431-0.36,1.89s-0.59,0.815-1.049,1.069
			s-0.96,0.381-1.503,0.381c-0.871,0-1.575-0.279-2.112-0.838S46.11,81.509,46.11,80.458z M47.194,80.458
			c0,0.797,0.174,1.394,0.521,1.79s0.785,0.595,1.312,0.595c0.523,0,0.959-0.199,1.307-0.598s0.521-1.006,0.521-1.822
			c0-0.77-0.175-1.353-0.524-1.749s-0.784-0.595-1.304-0.595c-0.527,0-0.965,0.197-1.312,0.592S47.194,79.662,47.194,80.458z"/>
		<path fill="#51564D" d="M57.237,81.291l1.037,0.135c-0.113,0.715-0.403,1.274-0.87,1.679s-1.04,0.606-1.72,0.606
			c-0.852,0-1.536-0.278-2.054-0.835s-0.776-1.354-0.776-2.394c0-0.672,0.111-1.26,0.334-1.764s0.562-0.882,1.017-1.134
			s0.95-0.378,1.485-0.378c0.676,0,1.229,0.171,1.658,0.513s0.705,0.827,0.826,1.456l-1.025,0.158
			c-0.098-0.418-0.271-0.732-0.519-0.943s-0.548-0.316-0.899-0.316c-0.531,0-0.963,0.19-1.295,0.571s-0.498,0.983-0.498,1.808
			c0,0.836,0.16,1.443,0.48,1.822s0.738,0.568,1.254,0.568c0.414,0,0.76-0.127,1.037-0.381S57.163,81.818,57.237,81.291z"/>
		<path fill="#51564D" d="M63.437,81.566l1.09,0.135c-0.172,0.637-0.49,1.131-0.955,1.482s-1.059,0.527-1.781,0.527
			c-0.91,0-1.632-0.28-2.165-0.841s-0.8-1.347-0.8-2.358c0-1.047,0.27-1.859,0.809-2.438s1.238-0.867,2.098-0.867
			c0.832,0,1.512,0.283,2.039,0.85s0.791,1.363,0.791,2.391c0,0.062-0.002,0.156-0.006,0.281h-4.641
			c0.039,0.684,0.232,1.207,0.58,1.57s0.781,0.545,1.301,0.545c0.387,0,0.717-0.102,0.99-0.305S63.276,82.011,63.437,81.566z
			 M59.974,79.861h3.475c-0.047-0.523-0.18-0.916-0.398-1.178c-0.336-0.406-0.771-0.609-1.307-0.609
			c-0.484,0-0.892,0.162-1.222,0.486S60.009,79.318,59.974,79.861z"/>
		<path fill="#51564D" d="M65.429,81.712l1.043-0.164c0.059,0.418,0.222,0.738,0.489,0.961s0.642,0.334,1.122,0.334
			c0.484,0,0.844-0.099,1.078-0.296s0.352-0.429,0.352-0.694c0-0.238-0.104-0.426-0.311-0.562c-0.145-0.094-0.504-0.213-1.078-0.357
			c-0.773-0.195-1.31-0.364-1.608-0.507s-0.525-0.34-0.68-0.592s-0.231-0.53-0.231-0.835c0-0.277,0.063-0.534,0.19-0.771
			s0.3-0.433,0.519-0.589c0.164-0.121,0.388-0.224,0.671-0.308s0.587-0.126,0.911-0.126c0.488,0,0.917,0.07,1.286,0.211
			s0.642,0.331,0.817,0.571s0.297,0.562,0.363,0.964l-1.031,0.141c-0.047-0.32-0.183-0.57-0.407-0.75s-0.542-0.27-0.952-0.27
			c-0.484,0-0.83,0.08-1.037,0.24s-0.311,0.348-0.311,0.562c0,0.137,0.043,0.26,0.129,0.369c0.086,0.113,0.221,0.207,0.404,0.281
			c0.105,0.039,0.416,0.129,0.932,0.27c0.746,0.199,1.267,0.362,1.562,0.489s0.526,0.312,0.694,0.554s0.252,0.543,0.252,0.902
			c0,0.352-0.103,0.683-0.308,0.993s-0.501,0.551-0.888,0.721s-0.824,0.255-1.312,0.255c-0.809,0-1.425-0.168-1.849-0.504
			S65.546,82.373,65.429,81.712z"/>
		<path fill="#51564D" d="M71.458,80.458c0-1.152,0.32-2.006,0.961-2.561c0.535-0.461,1.188-0.691,1.957-0.691
			c0.855,0,1.555,0.28,2.098,0.841s0.814,1.335,0.814,2.323c0,0.801-0.12,1.431-0.36,1.89s-0.59,0.815-1.049,1.069
			s-0.96,0.381-1.503,0.381c-0.871,0-1.575-0.279-2.112-0.838S71.458,81.509,71.458,80.458z M72.542,80.458
			c0,0.797,0.174,1.394,0.521,1.79s0.785,0.595,1.312,0.595c0.523,0,0.959-0.199,1.307-0.598s0.521-1.006,0.521-1.822
			c0-0.77-0.175-1.353-0.524-1.749s-0.784-0.595-1.304-0.595c-0.527,0-0.965,0.197-1.312,0.592S72.542,79.662,72.542,80.458z"/>
	</g>
	<g>
		<path fill="#51564D" d="M1.507,163.708l3.299-8.59H6.03l3.516,8.59H8.251l-1.002-2.602H3.657l-0.943,2.602H1.507z M3.985,160.18
			h2.912l-0.896-2.379c-0.273-0.723-0.477-1.316-0.609-1.781c-0.109,0.551-0.264,1.098-0.463,1.641L3.985,160.18z"/>
		<path fill="#51564D" d="M14.38,161.428l1.037,0.135c-0.113,0.715-0.403,1.274-0.87,1.679s-1.04,0.606-1.72,0.606
			c-0.852,0-1.536-0.278-2.054-0.835s-0.776-1.354-0.776-2.394c0-0.672,0.111-1.26,0.334-1.764s0.562-0.882,1.017-1.134
			s0.95-0.378,1.485-0.378c0.676,0,1.229,0.171,1.658,0.513s0.705,0.827,0.826,1.456l-1.025,0.158
			c-0.098-0.418-0.271-0.732-0.519-0.943s-0.548-0.316-0.899-0.316c-0.531,0-0.963,0.19-1.295,0.571s-0.498,0.983-0.498,1.808
			c0,0.836,0.16,1.443,0.48,1.822s0.738,0.568,1.254,0.568c0.414,0,0.76-0.127,1.037-0.381S14.306,161.956,14.38,161.428z"/>
		<path fill="#51564D" d="M18.622,162.764l0.152,0.932c-0.297,0.062-0.562,0.094-0.797,0.094c-0.383,0-0.68-0.061-0.891-0.182
			s-0.359-0.28-0.445-0.478s-0.129-0.612-0.129-1.245v-3.58h-0.773v-0.82h0.773v-1.541l1.049-0.633v2.174h1.061v0.82h-1.061v3.639
			c0,0.301,0.019,0.494,0.056,0.58s0.098,0.154,0.182,0.205s0.204,0.076,0.36,0.076C18.276,162.805,18.431,162.792,18.622,162.764z"
			/>
		<path fill="#51564D" d="M19.659,156.331v-1.213h1.055v1.213H19.659z M19.659,163.708v-6.223h1.055v6.223H19.659z"/>
		<path fill="#51564D" d="M24.048,163.708l-2.367-6.223h1.113l1.336,3.727c0.145,0.402,0.277,0.82,0.398,1.254
			c0.094-0.328,0.225-0.723,0.393-1.184l1.383-3.797h1.084l-2.355,6.223H24.048z"/>
		<path fill="#51564D" d="M28.325,156.331v-1.213h1.055v1.213H28.325z M28.325,163.708v-6.223h1.055v6.223H28.325z"/>
		<path fill="#51564D" d="M35.022,163.708v-0.785c-0.395,0.617-0.975,0.926-1.74,0.926c-0.496,0-0.952-0.137-1.368-0.41
			s-0.738-0.655-0.967-1.146s-0.343-1.054-0.343-1.69c0-0.621,0.104-1.185,0.311-1.69s0.518-0.894,0.932-1.163
			s0.877-0.404,1.389-0.404c0.375,0,0.709,0.079,1.002,0.237s0.531,0.364,0.715,0.618v-3.082h1.049v8.59H35.022z M31.688,160.602
			c0,0.797,0.168,1.393,0.504,1.787s0.732,0.592,1.189,0.592c0.461,0,0.853-0.188,1.175-0.565s0.483-0.952,0.483-1.726
			c0-0.852-0.164-1.477-0.492-1.875s-0.732-0.598-1.213-0.598c-0.469,0-0.86,0.191-1.175,0.574S31.688,159.778,31.688,160.602z"/>
		<path fill="#51564D" d="M41.72,162.94c-0.391,0.332-0.767,0.566-1.128,0.703s-0.749,0.205-1.163,0.205
			c-0.684,0-1.209-0.167-1.576-0.501s-0.551-0.761-0.551-1.28c0-0.305,0.069-0.583,0.208-0.835s0.32-0.454,0.545-0.606
			s0.478-0.268,0.759-0.346c0.207-0.055,0.52-0.107,0.938-0.158c0.852-0.102,1.479-0.223,1.881-0.363
			c0.004-0.145,0.006-0.236,0.006-0.275c0-0.43-0.1-0.732-0.299-0.908c-0.27-0.238-0.67-0.357-1.201-0.357
			c-0.496,0-0.862,0.087-1.099,0.261s-0.411,0.481-0.524,0.923l-1.031-0.141c0.094-0.441,0.248-0.798,0.463-1.069
			s0.525-0.48,0.932-0.627s0.877-0.22,1.412-0.22c0.531,0,0.963,0.062,1.295,0.188s0.576,0.282,0.732,0.472s0.266,0.429,0.328,0.718
			c0.035,0.18,0.053,0.504,0.053,0.973v1.406c0,0.98,0.022,1.601,0.067,1.86s0.134,0.509,0.267,0.747h-1.102
			C41.821,163.489,41.751,163.233,41.72,162.94z M41.632,160.584c-0.383,0.156-0.957,0.289-1.723,0.398
			c-0.434,0.062-0.74,0.133-0.92,0.211s-0.318,0.192-0.416,0.343s-0.146,0.317-0.146,0.501c0,0.281,0.106,0.516,0.319,0.703
			s0.524,0.281,0.935,0.281c0.406,0,0.768-0.089,1.084-0.267s0.549-0.421,0.697-0.729c0.113-0.238,0.17-0.59,0.17-1.055V160.584z"/>
		<path fill="#51564D" d="M48.37,163.708v-0.785c-0.395,0.617-0.975,0.926-1.74,0.926c-0.496,0-0.952-0.137-1.368-0.41
			s-0.738-0.655-0.967-1.146s-0.343-1.054-0.343-1.69c0-0.621,0.104-1.185,0.311-1.69s0.518-0.894,0.932-1.163
			s0.877-0.404,1.389-0.404c0.375,0,0.709,0.079,1.002,0.237s0.531,0.364,0.715,0.618v-3.082h1.049v8.59H48.37z M45.036,160.602
			c0,0.797,0.168,1.393,0.504,1.787s0.732,0.592,1.189,0.592c0.461,0,0.853-0.188,1.175-0.565s0.483-0.952,0.483-1.726
			c0-0.852-0.164-1.477-0.492-1.875s-0.732-0.598-1.213-0.598c-0.469,0-0.86,0.191-1.175,0.574S45.036,159.778,45.036,160.602z"/>
		<path fill="#51564D" d="M53.948,160.596c0-1.152,0.32-2.006,0.961-2.561c0.535-0.461,1.188-0.691,1.957-0.691
			c0.855,0,1.555,0.28,2.098,0.841s0.814,1.335,0.814,2.323c0,0.801-0.12,1.431-0.36,1.89s-0.59,0.815-1.049,1.069
			s-0.96,0.381-1.503,0.381c-0.871,0-1.575-0.279-2.112-0.838S53.948,161.647,53.948,160.596z M55.032,160.596
			c0,0.797,0.174,1.394,0.521,1.79s0.785,0.595,1.312,0.595c0.523,0,0.959-0.199,1.307-0.598s0.521-1.006,0.521-1.822
			c0-0.77-0.175-1.353-0.524-1.749s-0.784-0.595-1.304-0.595c-0.527,0-0.965,0.197-1.312,0.592S55.032,159.799,55.032,160.596z"/>
		<path fill="#51564D" d="M64.349,166.092v-8.607h0.961v0.809c0.227-0.316,0.482-0.554,0.768-0.712s0.631-0.237,1.037-0.237
			c0.531,0,1,0.137,1.406,0.41s0.713,0.659,0.92,1.157s0.311,1.044,0.311,1.638c0,0.637-0.114,1.21-0.343,1.72
			s-0.561,0.9-0.996,1.172s-0.894,0.407-1.374,0.407c-0.352,0-0.667-0.074-0.946-0.223s-0.509-0.336-0.688-0.562v3.029H64.349z
			 M65.304,160.631c0,0.801,0.162,1.393,0.486,1.775s0.717,0.574,1.178,0.574c0.469,0,0.87-0.198,1.204-0.595
			s0.501-1.011,0.501-1.843c0-0.793-0.163-1.387-0.489-1.781s-0.716-0.592-1.169-0.592c-0.449,0-0.847,0.21-1.192,0.63
			S65.304,159.831,65.304,160.631z"/>
		<path fill="#51564D" d="M75.083,162.94c-0.391,0.332-0.767,0.566-1.128,0.703s-0.749,0.205-1.163,0.205
			c-0.684,0-1.209-0.167-1.576-0.501s-0.551-0.761-0.551-1.28c0-0.305,0.069-0.583,0.208-0.835s0.32-0.454,0.545-0.606
			s0.478-0.268,0.759-0.346c0.207-0.055,0.52-0.107,0.938-0.158c0.852-0.102,1.479-0.223,1.881-0.363
			c0.004-0.145,0.006-0.236,0.006-0.275c0-0.43-0.1-0.732-0.299-0.908c-0.27-0.238-0.67-0.357-1.201-0.357
			c-0.496,0-0.862,0.087-1.099,0.261s-0.411,0.481-0.524,0.923l-1.031-0.141c0.094-0.441,0.248-0.798,0.463-1.069
			s0.525-0.48,0.932-0.627s0.877-0.22,1.412-0.22c0.531,0,0.963,0.062,1.295,0.188s0.576,0.282,0.732,0.472s0.266,0.429,0.328,0.718
			c0.035,0.18,0.053,0.504,0.053,0.973v1.406c0,0.98,0.022,1.601,0.067,1.86s0.134,0.509,0.267,0.747h-1.102
			C75.185,163.489,75.114,163.233,75.083,162.94z M74.995,160.584c-0.383,0.156-0.957,0.289-1.723,0.398
			c-0.434,0.062-0.74,0.133-0.92,0.211s-0.318,0.192-0.416,0.343s-0.146,0.317-0.146,0.501c0,0.281,0.106,0.516,0.319,0.703
			s0.524,0.281,0.935,0.281c0.406,0,0.768-0.089,1.084-0.267s0.549-0.421,0.697-0.729c0.113-0.238,0.17-0.59,0.17-1.055V160.584z"/>
		<path fill="#51564D" d="M77.274,161.85l1.043-0.164c0.059,0.418,0.222,0.738,0.489,0.961s0.642,0.334,1.122,0.334
			c0.484,0,0.844-0.099,1.078-0.296s0.352-0.429,0.352-0.694c0-0.238-0.104-0.426-0.311-0.562c-0.145-0.094-0.504-0.213-1.078-0.357
			c-0.773-0.195-1.31-0.364-1.608-0.507s-0.525-0.34-0.68-0.592s-0.231-0.53-0.231-0.835c0-0.277,0.063-0.534,0.19-0.771
			s0.3-0.433,0.519-0.589c0.164-0.121,0.388-0.224,0.671-0.308s0.587-0.126,0.911-0.126c0.488,0,0.917,0.07,1.286,0.211
			s0.642,0.331,0.817,0.571s0.297,0.562,0.363,0.964l-1.031,0.141c-0.047-0.32-0.183-0.57-0.407-0.75s-0.542-0.27-0.952-0.27
			c-0.484,0-0.83,0.08-1.037,0.24s-0.311,0.348-0.311,0.562c0,0.137,0.043,0.26,0.129,0.369c0.086,0.113,0.221,0.207,0.404,0.281
			c0.105,0.039,0.416,0.129,0.932,0.27c0.746,0.199,1.267,0.362,1.562,0.489s0.526,0.312,0.694,0.554s0.252,0.543,0.252,0.902
			c0,0.352-0.103,0.683-0.308,0.993s-0.501,0.551-0.888,0.721s-0.824,0.255-1.312,0.255c-0.809,0-1.425-0.168-1.849-0.504
			S77.392,162.51,77.274,161.85z"/>
		<path fill="#51564D" d="M83.304,160.596c0-1.152,0.32-2.006,0.961-2.561c0.535-0.461,1.188-0.691,1.957-0.691
			c0.855,0,1.555,0.28,2.098,0.841s0.814,1.335,0.814,2.323c0,0.801-0.12,1.431-0.36,1.89s-0.59,0.815-1.049,1.069
			s-0.96,0.381-1.503,0.381c-0.871,0-1.575-0.279-2.112-0.838S83.304,161.647,83.304,160.596z M84.388,160.596
			c0,0.797,0.174,1.394,0.521,1.79s0.785,0.595,1.312,0.595c0.523,0,0.959-0.199,1.307-0.598s0.521-1.006,0.521-1.822
			c0-0.77-0.175-1.353-0.524-1.749s-0.784-0.595-1.304-0.595c-0.527,0-0.965,0.197-1.312,0.592S84.388,159.799,84.388,160.596z"/>
		<path fill="#51564D" d="M21.332,170.731v-1.213h1.055v1.213H21.332z M21.332,178.108v-6.223h1.055v6.223H21.332z"/>
		<path fill="#51564D" d="M23.992,178.108v-6.223h0.949v0.885c0.457-0.684,1.117-1.025,1.98-1.025c0.375,0,0.72,0.067,1.034,0.202
			s0.55,0.312,0.706,0.53s0.266,0.479,0.328,0.779c0.039,0.195,0.059,0.537,0.059,1.025v3.826h-1.055v-3.785
			c0-0.43-0.041-0.751-0.123-0.964s-0.228-0.383-0.437-0.51s-0.454-0.19-0.735-0.19c-0.449,0-0.837,0.143-1.163,0.428
			s-0.489,0.826-0.489,1.623v3.398H23.992z"/>
		<path fill="#51564D" d="M34.703,178.108v-0.785c-0.395,0.617-0.975,0.926-1.74,0.926c-0.496,0-0.952-0.137-1.368-0.41
			s-0.738-0.655-0.967-1.146s-0.343-1.054-0.343-1.69c0-0.621,0.104-1.185,0.311-1.69s0.518-0.894,0.932-1.163
			s0.877-0.404,1.389-0.404c0.375,0,0.709,0.079,1.002,0.237s0.531,0.364,0.715,0.618v-3.082h1.049v8.59H34.703z M31.369,175.002
			c0,0.797,0.168,1.393,0.504,1.787s0.732,0.592,1.189,0.592c0.461,0,0.853-0.188,1.175-0.565s0.483-0.952,0.483-1.726
			c0-0.852-0.164-1.477-0.492-1.875s-0.732-0.598-1.213-0.598c-0.469,0-0.86,0.191-1.175,0.574S31.369,174.178,31.369,175.002z"/>
		<path fill="#51564D" d="M37.346,170.731v-1.213H38.4v1.213H37.346z M37.346,178.108v-6.223H38.4v6.223H37.346z"/>
		<path fill="#51564D" d="M41.734,178.108l-2.367-6.223h1.113l1.336,3.727c0.145,0.402,0.277,0.82,0.398,1.254
			c0.094-0.328,0.225-0.723,0.393-1.184l1.383-3.797h1.084l-2.355,6.223H41.734z"/>
		<path fill="#51564D" d="M46.012,170.731v-1.213h1.055v1.213H46.012z M46.012,178.108v-6.223h1.055v6.223H46.012z"/>
		<path fill="#51564D" d="M52.709,178.108v-0.785c-0.395,0.617-0.975,0.926-1.74,0.926c-0.496,0-0.952-0.137-1.368-0.41
			s-0.738-0.655-0.967-1.146s-0.343-1.054-0.343-1.69c0-0.621,0.104-1.185,0.311-1.69s0.518-0.894,0.932-1.163
			s0.877-0.404,1.389-0.404c0.375,0,0.709,0.079,1.002,0.237s0.531,0.364,0.715,0.618v-3.082h1.049v8.59H52.709z M49.375,175.002
			c0,0.797,0.168,1.393,0.504,1.787s0.732,0.592,1.189,0.592c0.461,0,0.853-0.188,1.175-0.565s0.483-0.952,0.483-1.726
			c0-0.852-0.164-1.477-0.492-1.875s-0.732-0.598-1.213-0.598c-0.469,0-0.86,0.191-1.175,0.574S49.375,174.178,49.375,175.002z"/>
		<path fill="#51564D" d="M59.424,178.108v-0.914c-0.484,0.703-1.143,1.055-1.975,1.055c-0.367,0-0.71-0.07-1.028-0.211
			s-0.555-0.317-0.709-0.53s-0.263-0.474-0.325-0.782c-0.043-0.207-0.064-0.535-0.064-0.984v-3.855h1.055v3.451
			c0,0.551,0.021,0.922,0.064,1.113c0.066,0.277,0.207,0.495,0.422,0.653s0.48,0.237,0.797,0.237s0.613-0.081,0.891-0.243
			s0.474-0.383,0.589-0.662s0.173-0.685,0.173-1.216v-3.334h1.055v6.223H59.424z"/>
		<path fill="#51564D" d="M66.08,177.34c-0.391,0.332-0.767,0.566-1.128,0.703s-0.749,0.205-1.163,0.205
			c-0.684,0-1.209-0.167-1.576-0.501s-0.551-0.761-0.551-1.28c0-0.305,0.069-0.583,0.208-0.835s0.32-0.454,0.545-0.606
			s0.478-0.268,0.759-0.346c0.207-0.055,0.52-0.107,0.938-0.158c0.852-0.102,1.479-0.223,1.881-0.363
			c0.004-0.145,0.006-0.236,0.006-0.275c0-0.43-0.1-0.732-0.299-0.908c-0.27-0.238-0.67-0.357-1.201-0.357
			c-0.496,0-0.862,0.087-1.099,0.261s-0.411,0.481-0.524,0.923l-1.031-0.141c0.094-0.441,0.248-0.798,0.463-1.069
			s0.525-0.48,0.932-0.627s0.877-0.22,1.412-0.22c0.531,0,0.963,0.062,1.295,0.188s0.576,0.282,0.732,0.472s0.266,0.429,0.328,0.718
			c0.035,0.18,0.053,0.504,0.053,0.973v1.406c0,0.98,0.022,1.601,0.067,1.86s0.134,0.509,0.267,0.747h-1.102
			C66.182,177.889,66.111,177.633,66.08,177.34z M65.992,174.985c-0.383,0.156-0.957,0.289-1.723,0.398
			c-0.434,0.062-0.74,0.133-0.92,0.211s-0.318,0.192-0.416,0.343s-0.146,0.317-0.146,0.501c0,0.281,0.106,0.516,0.319,0.703
			s0.524,0.281,0.935,0.281c0.406,0,0.768-0.089,1.084-0.267s0.549-0.421,0.697-0.729c0.113-0.238,0.17-0.59,0.17-1.055V174.985z"/>
		<path fill="#51564D" d="M68.67,178.108v-8.59h1.055v8.59H68.67z"/>
	</g>
	<g>
		<path fill="#51564D" d="M22.457,265.424v-8.59h3.24c0.57,0,1.006,0.027,1.307,0.082c0.422,0.07,0.775,0.203,1.061,0.4
			s0.515,0.475,0.688,0.83s0.261,0.746,0.261,1.172c0,0.73-0.232,1.348-0.697,1.854s-1.305,0.76-2.52,0.76h-2.203v3.492H22.457z
			 M23.594,260.918h2.221c0.734,0,1.256-0.137,1.564-0.41s0.463-0.658,0.463-1.154c0-0.359-0.091-0.668-0.272-0.924
			s-0.421-0.424-0.718-0.506c-0.191-0.051-0.545-0.076-1.061-0.076h-2.197V260.918z"/>
		<path fill="#51564D" d="M34.404,265.424v-0.914c-0.484,0.703-1.143,1.055-1.975,1.055c-0.367,0-0.71-0.07-1.028-0.211
			s-0.555-0.318-0.709-0.531s-0.263-0.473-0.325-0.781c-0.043-0.207-0.064-0.535-0.064-0.984v-3.855h1.055v3.451
			c0,0.551,0.021,0.922,0.064,1.113c0.066,0.277,0.207,0.494,0.422,0.652s0.48,0.238,0.797,0.238s0.613-0.082,0.891-0.244
			s0.474-0.383,0.589-0.662s0.173-0.684,0.173-1.215v-3.334h1.055v6.223H34.404z"/>
		<path fill="#51564D" d="M37,265.424v-6.223h0.949v0.885c0.457-0.684,1.117-1.025,1.98-1.025c0.375,0,0.72,0.066,1.034,0.201
			s0.55,0.312,0.706,0.531s0.266,0.479,0.328,0.779c0.039,0.195,0.059,0.537,0.059,1.025v3.826h-1.055v-3.785
			c0-0.43-0.041-0.752-0.123-0.965s-0.228-0.383-0.437-0.51s-0.454-0.189-0.735-0.189c-0.449,0-0.837,0.143-1.163,0.428
			s-0.489,0.826-0.489,1.623v3.398H37z"/>
		<path fill="#51564D" d="M45.977,264.48l0.152,0.932c-0.297,0.062-0.562,0.094-0.797,0.094c-0.383,0-0.68-0.061-0.891-0.182
			s-0.359-0.281-0.445-0.479s-0.129-0.611-0.129-1.244v-3.58h-0.773v-0.82h0.773v-1.541l1.049-0.633v2.174h1.061v0.82h-1.061v3.639
			c0,0.301,0.019,0.494,0.056,0.58s0.098,0.154,0.182,0.205s0.204,0.076,0.36,0.076C45.631,264.521,45.785,264.508,45.977,264.48z"
			/>
		<path fill="#51564D" d="M46.615,262.312c0-1.152,0.32-2.006,0.961-2.561c0.535-0.461,1.188-0.691,1.957-0.691
			c0.855,0,1.555,0.279,2.098,0.84s0.814,1.336,0.814,2.324c0,0.801-0.12,1.43-0.36,1.889s-0.59,0.816-1.049,1.07
			s-0.96,0.381-1.503,0.381c-0.871,0-1.575-0.279-2.112-0.838S46.615,263.363,46.615,262.312z M47.699,262.312
			c0,0.797,0.174,1.393,0.521,1.789s0.785,0.596,1.312,0.596c0.523,0,0.959-0.199,1.307-0.598s0.521-1.006,0.521-1.822
			c0-0.77-0.175-1.354-0.524-1.75s-0.784-0.594-1.304-0.594c-0.527,0-0.965,0.197-1.312,0.592S47.699,261.516,47.699,262.312z"/>
		<path fill="#51564D" d="M61.053,265.424v-0.785c-0.395,0.617-0.975,0.926-1.74,0.926c-0.496,0-0.952-0.137-1.368-0.41
			s-0.738-0.656-0.967-1.146s-0.343-1.053-0.343-1.689c0-0.621,0.104-1.186,0.311-1.691s0.518-0.893,0.932-1.162
			s0.877-0.404,1.389-0.404c0.375,0,0.709,0.078,1.002,0.236s0.531,0.365,0.715,0.619v-3.082h1.049v8.59H61.053z M57.719,262.318
			c0,0.797,0.168,1.393,0.504,1.787s0.732,0.592,1.189,0.592c0.461,0,0.853-0.189,1.175-0.566s0.483-0.951,0.483-1.725
			c0-0.852-0.164-1.477-0.492-1.875s-0.732-0.598-1.213-0.598c-0.469,0-0.86,0.191-1.175,0.574S57.719,261.494,57.719,262.318z"/>
		<path fill="#51564D" d="M67.949,263.42l1.09,0.135c-0.172,0.637-0.49,1.131-0.955,1.482s-1.059,0.527-1.781,0.527
			c-0.91,0-1.632-0.281-2.165-0.842s-0.8-1.346-0.8-2.357c0-1.047,0.27-1.859,0.809-2.438s1.238-0.867,2.098-0.867
			c0.832,0,1.512,0.283,2.039,0.85s0.791,1.363,0.791,2.391c0,0.062-0.002,0.156-0.006,0.281h-4.641
			c0.039,0.684,0.232,1.207,0.58,1.57s0.781,0.545,1.301,0.545c0.387,0,0.717-0.102,0.99-0.305S67.789,263.865,67.949,263.42z
			 M64.486,261.715h3.475c-0.047-0.523-0.18-0.916-0.398-1.178c-0.336-0.406-0.771-0.609-1.307-0.609
			c-0.484,0-0.892,0.162-1.222,0.486S64.521,261.172,64.486,261.715z"/>
		<path fill="#51564D" d="M28.366,279.824v-0.785c-0.395,0.617-0.975,0.926-1.74,0.926c-0.496,0-0.952-0.137-1.368-0.41
			s-0.738-0.656-0.967-1.146s-0.343-1.053-0.343-1.689c0-0.621,0.104-1.186,0.311-1.691s0.518-0.893,0.932-1.162
			s0.877-0.404,1.389-0.404c0.375,0,0.709,0.078,1.002,0.236s0.531,0.365,0.715,0.619v-3.082h1.049v8.59H28.366z M25.032,276.719
			c0,0.797,0.168,1.393,0.504,1.787s0.732,0.592,1.189,0.592c0.461,0,0.853-0.189,1.175-0.566s0.483-0.951,0.483-1.725
			c0-0.852-0.164-1.477-0.492-1.875s-0.732-0.598-1.213-0.598c-0.469,0-0.86,0.191-1.175,0.574S25.032,275.895,25.032,276.719z"/>
		<path fill="#51564D" d="M35.263,277.82l1.09,0.135c-0.172,0.637-0.49,1.131-0.955,1.482s-1.059,0.527-1.781,0.527
			c-0.91,0-1.632-0.281-2.165-0.842s-0.8-1.346-0.8-2.357c0-1.047,0.27-1.859,0.809-2.438s1.238-0.867,2.098-0.867
			c0.832,0,1.512,0.283,2.039,0.85s0.791,1.363,0.791,2.391c0,0.062-0.002,0.156-0.006,0.281h-4.641
			c0.039,0.684,0.232,1.207,0.58,1.57s0.781,0.545,1.301,0.545c0.387,0,0.717-0.102,0.99-0.305S35.103,278.266,35.263,277.82z
			 M31.8,276.115h3.475c-0.047-0.523-0.18-0.916-0.398-1.178c-0.336-0.406-0.771-0.609-1.307-0.609
			c-0.484,0-0.892,0.162-1.222,0.486S31.835,275.572,31.8,276.115z"/>
		<path fill="#51564D" d="M41.737,277.545l1.037,0.135c-0.113,0.715-0.403,1.273-0.87,1.678s-1.04,0.607-1.72,0.607
			c-0.852,0-1.536-0.279-2.054-0.836s-0.776-1.354-0.776-2.393c0-0.672,0.111-1.26,0.334-1.764s0.562-0.883,1.017-1.135
			s0.95-0.377,1.485-0.377c0.676,0,1.229,0.17,1.658,0.512s0.705,0.828,0.826,1.457l-1.025,0.158
			c-0.098-0.418-0.271-0.732-0.519-0.943s-0.548-0.316-0.899-0.316c-0.531,0-0.963,0.189-1.295,0.57s-0.498,0.984-0.498,1.809
			c0,0.836,0.16,1.443,0.48,1.822s0.738,0.568,1.254,0.568c0.414,0,0.76-0.127,1.037-0.381S41.663,278.072,41.737,277.545z"/>
		<path fill="#51564D" d="M43.683,272.447v-1.213h1.055v1.213H43.683z M43.683,279.824v-6.223h1.055v6.223H43.683z"/>
		<path fill="#51564D" d="M45.921,277.967l1.043-0.164c0.059,0.418,0.222,0.738,0.489,0.961s0.642,0.334,1.122,0.334
			c0.484,0,0.844-0.1,1.078-0.297s0.352-0.428,0.352-0.693c0-0.238-0.104-0.426-0.311-0.562c-0.145-0.094-0.504-0.213-1.078-0.357
			c-0.773-0.195-1.31-0.365-1.608-0.508s-0.525-0.34-0.68-0.592s-0.231-0.529-0.231-0.834c0-0.277,0.063-0.535,0.19-0.771
			s0.3-0.432,0.519-0.588c0.164-0.121,0.388-0.225,0.671-0.309s0.587-0.125,0.911-0.125c0.488,0,0.917,0.07,1.286,0.211
			s0.642,0.33,0.817,0.57s0.297,0.562,0.363,0.965l-1.031,0.141c-0.047-0.32-0.183-0.57-0.407-0.75s-0.542-0.27-0.952-0.27
			c-0.484,0-0.83,0.08-1.037,0.24s-0.311,0.348-0.311,0.562c0,0.137,0.043,0.26,0.129,0.369c0.086,0.113,0.221,0.207,0.404,0.281
			c0.105,0.039,0.416,0.129,0.932,0.27c0.746,0.199,1.267,0.361,1.562,0.488s0.526,0.312,0.694,0.555s0.252,0.543,0.252,0.902
			c0,0.352-0.103,0.682-0.308,0.992s-0.501,0.551-0.888,0.721s-0.824,0.256-1.312,0.256c-0.809,0-1.425-0.168-1.849-0.504
			S46.038,278.627,45.921,277.967z"/>
		<path fill="#51564D" d="M52.349,272.447v-1.213h1.055v1.213H52.349z M52.349,279.824v-6.223h1.055v6.223H52.349z"/>
		<path fill="#51564D" d="M54.616,276.713c0-1.152,0.32-2.006,0.961-2.561c0.535-0.461,1.188-0.691,1.957-0.691
			c0.855,0,1.555,0.279,2.098,0.84s0.814,1.336,0.814,2.324c0,0.801-0.12,1.43-0.36,1.889s-0.59,0.816-1.049,1.07
			s-0.96,0.381-1.503,0.381c-0.871,0-1.575-0.279-2.112-0.838S54.616,277.764,54.616,276.713z M55.7,276.713
			c0,0.797,0.174,1.393,0.521,1.789s0.785,0.596,1.312,0.596c0.523,0,0.959-0.199,1.307-0.598s0.521-1.006,0.521-1.822
			c0-0.77-0.175-1.354-0.524-1.75s-0.784-0.594-1.304-0.594c-0.527,0-0.965,0.197-1.312,0.592S55.7,275.916,55.7,276.713z
			 M56.948,272.828l0.779-1.641h1.383l-1.289,1.641H56.948z"/>
		<path fill="#51564D" d="M61.683,279.824v-6.223h0.949v0.885c0.457-0.684,1.117-1.025,1.98-1.025c0.375,0,0.72,0.066,1.034,0.201
			s0.55,0.312,0.706,0.531s0.266,0.479,0.328,0.779c0.039,0.195,0.059,0.537,0.059,1.025v3.826h-1.055v-3.785
			c0-0.43-0.041-0.752-0.123-0.965s-0.228-0.383-0.437-0.51s-0.454-0.189-0.735-0.189c-0.449,0-0.837,0.143-1.163,0.428
			s-0.489,0.826-0.489,1.623v3.398H61.683z"/>
	</g>
	<g>
		<path fill="#51564D" d="M28.261,368.97l1.137,0.287c-0.238,0.934-0.667,1.646-1.286,2.136s-1.376,0.735-2.271,0.735
			c-0.926,0-1.679-0.188-2.259-0.565s-1.021-0.923-1.324-1.638s-0.454-1.482-0.454-2.303c0-0.895,0.171-1.675,0.513-2.341
			s0.828-1.172,1.459-1.518s1.325-0.519,2.083-0.519c0.859,0,1.582,0.219,2.168,0.656s0.994,1.053,1.225,1.846l-1.119,0.264
			c-0.199-0.625-0.488-1.08-0.867-1.365s-0.855-0.428-1.43-0.428c-0.66,0-1.212,0.158-1.655,0.475s-0.755,0.741-0.935,1.274
			s-0.27,1.083-0.27,1.649c0,0.73,0.106,1.368,0.319,1.913s0.544,0.952,0.993,1.222s0.936,0.404,1.459,0.404
			c0.637,0,1.176-0.184,1.617-0.551S28.104,369.692,28.261,368.97z"/>
		<path fill="#51564D" d="M30.271,368.87c0-1.152,0.32-2.006,0.961-2.561c0.535-0.461,1.188-0.691,1.957-0.691
			c0.855,0,1.555,0.28,2.098,0.841s0.814,1.335,0.814,2.323c0,0.801-0.12,1.431-0.36,1.89s-0.59,0.815-1.049,1.069
			s-0.96,0.381-1.503,0.381c-0.871,0-1.575-0.279-2.112-0.838S30.271,369.921,30.271,368.87z M31.354,368.87
			c0,0.797,0.174,1.394,0.521,1.79s0.785,0.595,1.312,0.595c0.523,0,0.959-0.199,1.307-0.598s0.521-1.006,0.521-1.822
			c0-0.77-0.175-1.353-0.524-1.749s-0.784-0.595-1.304-0.595c-0.527,0-0.965,0.197-1.312,0.592S31.354,368.073,31.354,368.87z"/>
		<path fill="#51564D" d="M37.337,371.981v-6.223h0.949v0.885c0.457-0.684,1.117-1.025,1.98-1.025c0.375,0,0.72,0.067,1.034,0.202
			s0.55,0.312,0.706,0.53s0.266,0.479,0.328,0.779c0.039,0.195,0.059,0.537,0.059,1.025v3.826h-1.055v-3.785
			c0-0.43-0.041-0.751-0.123-0.964s-0.228-0.383-0.437-0.51s-0.454-0.19-0.735-0.19c-0.449,0-0.837,0.143-1.163,0.428
			s-0.489,0.826-0.489,1.623v3.398H37.337z"/>
		<path fill="#51564D" d="M48.271,369.978l1.09,0.135c-0.172,0.637-0.49,1.131-0.955,1.482s-1.059,0.527-1.781,0.527
			c-0.91,0-1.632-0.28-2.165-0.841s-0.8-1.347-0.8-2.358c0-1.047,0.27-1.859,0.809-2.438s1.238-0.867,2.098-0.867
			c0.832,0,1.512,0.283,2.039,0.85s0.791,1.363,0.791,2.391c0,0.062-0.002,0.156-0.006,0.281h-4.641
			c0.039,0.684,0.232,1.207,0.58,1.57s0.781,0.545,1.301,0.545c0.387,0,0.717-0.102,0.99-0.305S48.11,370.423,48.271,369.978z
			 M44.808,368.272h3.475c-0.047-0.523-0.18-0.916-0.398-1.178c-0.336-0.406-0.771-0.609-1.307-0.609
			c-0.484,0-0.892,0.162-1.222,0.486S44.843,367.729,44.808,368.272z"/>
		<path fill="#51564D" d="M54.745,369.702l1.037,0.135c-0.113,0.715-0.403,1.274-0.87,1.679s-1.04,0.606-1.72,0.606
			c-0.852,0-1.536-0.278-2.054-0.835s-0.776-1.354-0.776-2.394c0-0.672,0.111-1.26,0.334-1.764s0.562-0.882,1.017-1.134
			s0.95-0.378,1.485-0.378c0.676,0,1.229,0.171,1.658,0.513s0.705,0.827,0.826,1.456l-1.025,0.158
			c-0.098-0.418-0.271-0.732-0.519-0.943s-0.548-0.316-0.899-0.316c-0.531,0-0.963,0.19-1.295,0.571s-0.498,0.983-0.498,1.808
			c0,0.836,0.16,1.443,0.48,1.822s0.738,0.568,1.254,0.568c0.414,0,0.76-0.127,1.037-0.381S54.671,370.229,54.745,369.702z"/>
		<path fill="#51564D" d="M58.987,371.038l0.152,0.932c-0.297,0.062-0.562,0.094-0.797,0.094c-0.383,0-0.68-0.061-0.891-0.182
			s-0.359-0.28-0.445-0.478s-0.129-0.612-0.129-1.245v-3.58h-0.773v-0.82h0.773v-1.541l1.049-0.633v2.174h1.061v0.82h-1.061v3.639
			c0,0.301,0.019,0.494,0.056,0.58s0.098,0.154,0.182,0.205s0.204,0.076,0.36,0.076C58.642,371.079,58.796,371.065,58.987,371.038z"
			/>
		<path fill="#51564D" d="M59.626,368.87c0-1.152,0.32-2.006,0.961-2.561c0.535-0.461,1.188-0.691,1.957-0.691
			c0.855,0,1.555,0.28,2.098,0.841s0.814,1.335,0.814,2.323c0,0.801-0.12,1.431-0.36,1.89s-0.59,0.815-1.049,1.069
			s-0.96,0.381-1.503,0.381c-0.871,0-1.575-0.279-2.112-0.838S59.626,369.921,59.626,368.87z M60.71,368.87
			c0,0.797,0.174,1.394,0.521,1.79s0.785,0.595,1.312,0.595c0.523,0,0.959-0.199,1.307-0.598s0.521-1.006,0.521-1.822
			c0-0.77-0.175-1.353-0.524-1.749s-0.784-0.595-1.304-0.595c-0.527,0-0.965,0.197-1.312,0.592S60.71,368.073,60.71,368.87z"/>
		<path fill="#51564D" d="M66.681,371.981v-6.223h0.949v0.943c0.242-0.441,0.466-0.732,0.671-0.873s0.431-0.211,0.677-0.211
			c0.355,0,0.717,0.113,1.084,0.34l-0.363,0.979c-0.258-0.152-0.516-0.229-0.773-0.229c-0.23,0-0.438,0.069-0.621,0.208
			s-0.314,0.331-0.393,0.577c-0.117,0.375-0.176,0.785-0.176,1.23v3.258H66.681z"/>
	</g>
	<g>
		<path fill="#51564D" d="M200.956,84.169v-8.59h1.711l2.033,6.082c0.188,0.566,0.324,0.99,0.41,1.271
			c0.098-0.312,0.25-0.771,0.457-1.377l2.057-5.977h1.529v8.59h-1.096V76.98l-2.496,7.189h-1.025l-2.484-7.312v7.312H200.956z"/>
		<path fill="#51564D" d="M215.112,82.166l1.09,0.135c-0.172,0.637-0.49,1.131-0.955,1.482s-1.059,0.527-1.781,0.527
			c-0.91,0-1.631-0.28-2.164-0.841s-0.801-1.347-0.801-2.358c0-1.047,0.27-1.859,0.809-2.438s1.238-0.867,2.098-0.867
			c0.832,0,1.512,0.283,2.039,0.85s0.791,1.363,0.791,2.391c0,0.062-0.002,0.156-0.006,0.281h-4.641
			c0.039,0.684,0.232,1.207,0.58,1.57s0.781,0.545,1.301,0.545c0.387,0,0.717-0.102,0.99-0.305S214.952,82.611,215.112,82.166z
			 M211.649,80.46h3.475c-0.047-0.523-0.18-0.916-0.398-1.178c-0.336-0.406-0.771-0.609-1.307-0.609
			c-0.484,0-0.891,0.162-1.221,0.486S211.685,79.917,211.649,80.46z"/>
		<path fill="#51564D" d="M221.563,84.169v-0.785c-0.395,0.617-0.975,0.926-1.74,0.926c-0.496,0-0.951-0.137-1.367-0.41
			s-0.738-0.655-0.967-1.146s-0.344-1.054-0.344-1.69c0-0.621,0.104-1.185,0.311-1.69s0.518-0.894,0.932-1.163
			s0.877-0.404,1.389-0.404c0.375,0,0.709,0.079,1.002,0.237s0.531,0.364,0.715,0.618V75.58h1.049v8.59H221.563z M218.229,81.064
			c0,0.797,0.168,1.393,0.504,1.787s0.732,0.592,1.189,0.592c0.461,0,0.854-0.188,1.176-0.565s0.482-0.952,0.482-1.726
			c0-0.852-0.164-1.477-0.492-1.875s-0.732-0.598-1.213-0.598c-0.469,0-0.859,0.191-1.174,0.574S218.229,80.24,218.229,81.064z"/>
		<path fill="#51564D" d="M224.206,76.792V75.58h1.055v1.213H224.206z M224.206,84.169v-6.223h1.055v6.223H224.206z"/>
		<path fill="#51564D" d="M230.927,81.89l1.037,0.135c-0.113,0.715-0.402,1.274-0.869,1.679s-1.041,0.606-1.721,0.606
			c-0.852,0-1.535-0.278-2.053-0.835s-0.777-1.354-0.777-2.394c0-0.672,0.111-1.26,0.334-1.764s0.562-0.882,1.018-1.134
			s0.949-0.378,1.484-0.378c0.676,0,1.229,0.171,1.658,0.513s0.705,0.827,0.826,1.456l-1.025,0.158
			c-0.098-0.418-0.27-0.732-0.518-0.943s-0.549-0.316-0.9-0.316c-0.531,0-0.963,0.19-1.295,0.571s-0.498,0.983-0.498,1.808
			c0,0.836,0.16,1.443,0.48,1.822s0.738,0.568,1.254,0.568c0.414,0,0.76-0.127,1.037-0.381S230.853,82.417,230.927,81.89z"/>
		<path fill="#51564D" d="M232.872,76.792V75.58h1.055v1.213H232.872z M232.872,84.169v-6.223h1.055v6.223H232.872z"/>
		<path fill="#51564D" d="M235.14,81.058c0-1.152,0.32-2.006,0.961-2.561c0.535-0.461,1.188-0.691,1.957-0.691
			c0.855,0,1.555,0.28,2.098,0.841s0.814,1.335,0.814,2.323c0,0.801-0.119,1.431-0.359,1.89s-0.59,0.815-1.049,1.069
			s-0.961,0.381-1.504,0.381c-0.871,0-1.574-0.279-2.111-0.838S235.14,82.109,235.14,81.058z M236.224,81.058
			c0,0.797,0.174,1.394,0.521,1.79s0.785,0.595,1.312,0.595c0.523,0,0.959-0.199,1.307-0.598s0.521-1.006,0.521-1.822
			c0-0.77-0.174-1.353-0.523-1.749s-0.785-0.595-1.305-0.595c-0.527,0-0.965,0.197-1.312,0.592S236.224,80.261,236.224,81.058z
			 M237.472,77.173l0.779-1.641h1.383l-1.289,1.641H237.472z"/>
		<path fill="#51564D" d="M242.206,84.169v-6.223h0.949v0.885c0.457-0.684,1.117-1.025,1.98-1.025c0.375,0,0.721,0.067,1.035,0.202
			s0.549,0.312,0.705,0.53s0.266,0.479,0.328,0.779c0.039,0.195,0.059,0.537,0.059,1.025v3.826h-1.055v-3.785
			c0-0.43-0.041-0.751-0.123-0.964s-0.227-0.383-0.436-0.51s-0.455-0.19-0.736-0.19c-0.449,0-0.836,0.143-1.162,0.428
			s-0.49,0.826-0.49,1.623v3.398H242.206z"/>
	</g>
	<g>
		<path fill="#51564D" d="M194.321,218.539v-8.59h2.959c0.668,0,1.178,0.041,1.529,0.123c0.492,0.113,0.912,0.318,1.26,0.615
			c0.453,0.383,0.791,0.872,1.016,1.468s0.338,1.276,0.338,2.042c0,0.652-0.076,1.23-0.229,1.734s-0.348,0.921-0.586,1.251
			s-0.5,0.59-0.783,0.779s-0.625,0.333-1.025,0.431s-0.859,0.146-1.379,0.146H194.321z M195.458,217.525h1.834
			c0.566,0,1.01-0.053,1.332-0.158s0.58-0.254,0.771-0.445c0.27-0.27,0.479-0.632,0.629-1.087s0.227-1.007,0.227-1.655
			c0-0.898-0.148-1.589-0.443-2.071s-0.652-0.806-1.074-0.97c-0.305-0.117-0.795-0.176-1.471-0.176h-1.805V217.525z"/>
		<path fill="#51564D" d="M202.46,215.428c0-1.152,0.32-2.006,0.961-2.561c0.535-0.461,1.188-0.691,1.957-0.691
			c0.855,0,1.555,0.28,2.098,0.841s0.814,1.335,0.814,2.323c0,0.801-0.121,1.431-0.361,1.89s-0.59,0.815-1.049,1.069
			s-0.959,0.381-1.502,0.381c-0.871,0-1.576-0.279-2.113-0.838S202.46,216.479,202.46,215.428z M203.544,215.428
			c0,0.797,0.174,1.394,0.521,1.79s0.785,0.595,1.312,0.595c0.523,0,0.959-0.199,1.307-0.598s0.521-1.006,0.521-1.822
			c0-0.77-0.176-1.353-0.525-1.749s-0.783-0.595-1.303-0.595c-0.527,0-0.965,0.197-1.312,0.592S203.544,214.631,203.544,215.428z"/>
		<path fill="#51564D" d="M213.587,216.26l1.037,0.135c-0.113,0.715-0.404,1.274-0.871,1.679s-1.039,0.606-1.719,0.606
			c-0.852,0-1.537-0.278-2.055-0.835s-0.775-1.354-0.775-2.394c0-0.672,0.111-1.26,0.334-1.764s0.561-0.882,1.016-1.134
			s0.951-0.378,1.486-0.378c0.676,0,1.229,0.171,1.658,0.513s0.705,0.827,0.826,1.456l-1.025,0.158
			c-0.098-0.418-0.271-0.732-0.52-0.943s-0.547-0.316-0.898-0.316c-0.531,0-0.963,0.19-1.295,0.571s-0.498,0.983-0.498,1.808
			c0,0.836,0.16,1.443,0.48,1.822s0.738,0.568,1.254,0.568c0.414,0,0.76-0.127,1.037-0.381S213.513,216.787,213.587,216.26z"/>
		<path fill="#51564D" d="M219.604,218.539v-0.914c-0.484,0.703-1.143,1.055-1.975,1.055c-0.367,0-0.711-0.07-1.029-0.211
			s-0.555-0.317-0.709-0.53s-0.262-0.474-0.324-0.782c-0.043-0.207-0.064-0.535-0.064-0.984v-3.855h1.055v3.451
			c0,0.551,0.021,0.922,0.064,1.113c0.066,0.277,0.207,0.495,0.422,0.653s0.48,0.237,0.797,0.237s0.613-0.081,0.891-0.243
			s0.473-0.383,0.588-0.662s0.174-0.685,0.174-1.216v-3.334h1.055v6.223H219.604z"/>
		<path fill="#51564D" d="M222.2,218.539v-6.223h0.943v0.873c0.195-0.305,0.455-0.55,0.779-0.735s0.693-0.278,1.107-0.278
			c0.461,0,0.838,0.096,1.133,0.287s0.504,0.459,0.625,0.803c0.492-0.727,1.133-1.09,1.922-1.09c0.617,0,1.092,0.171,1.424,0.513
			s0.498,0.868,0.498,1.579v4.271h-1.049v-3.92c0-0.422-0.035-0.726-0.104-0.911s-0.191-0.335-0.371-0.448s-0.391-0.17-0.633-0.17
			c-0.438,0-0.801,0.146-1.09,0.437s-0.434,0.757-0.434,1.397v3.615h-1.055v-4.043c0-0.469-0.086-0.82-0.258-1.055
			s-0.453-0.352-0.844-0.352c-0.297,0-0.572,0.078-0.824,0.234s-0.434,0.385-0.547,0.686s-0.17,0.734-0.17,1.301v3.229H222.2z"/>
		<path fill="#51564D" d="M236.456,216.535l1.09,0.135c-0.172,0.637-0.49,1.131-0.955,1.482s-1.059,0.527-1.781,0.527
			c-0.91,0-1.633-0.28-2.166-0.841s-0.799-1.347-0.799-2.358c0-1.047,0.27-1.859,0.809-2.438s1.238-0.867,2.098-0.867
			c0.832,0,1.512,0.283,2.039,0.85s0.791,1.363,0.791,2.391c0,0.062-0.002,0.156-0.006,0.281h-4.641
			c0.039,0.684,0.232,1.207,0.58,1.57s0.781,0.545,1.301,0.545c0.387,0,0.717-0.102,0.99-0.305S236.296,216.98,236.456,216.535z
			 M232.993,214.83h3.475c-0.047-0.523-0.18-0.916-0.398-1.178c-0.336-0.406-0.771-0.609-1.307-0.609
			c-0.484,0-0.893,0.162-1.223,0.486S233.028,214.287,232.993,214.83z"/>
		<path fill="#51564D" d="M238.87,218.539v-6.223h0.949v0.885c0.457-0.684,1.117-1.025,1.98-1.025c0.375,0,0.719,0.067,1.033,0.202
			s0.551,0.312,0.707,0.53s0.266,0.479,0.328,0.779c0.039,0.195,0.059,0.537,0.059,1.025v3.826h-1.055v-3.785
			c0-0.43-0.041-0.751-0.123-0.964s-0.229-0.383-0.438-0.51s-0.453-0.19-0.734-0.19c-0.449,0-0.838,0.143-1.164,0.428
			s-0.488,0.826-0.488,1.623v3.398H238.87z"/>
		<path fill="#51564D" d="M247.847,217.596l0.152,0.932c-0.297,0.062-0.562,0.094-0.797,0.094c-0.383,0-0.68-0.061-0.891-0.182
			s-0.359-0.28-0.445-0.478s-0.129-0.612-0.129-1.245v-3.58h-0.773v-0.82h0.773v-1.541l1.049-0.633v2.174h1.061v0.82h-1.061v3.639
			c0,0.301,0.018,0.494,0.055,0.58s0.098,0.154,0.182,0.205s0.205,0.076,0.361,0.076
			C247.501,217.637,247.655,217.623,247.847,217.596z"/>
		<path fill="#51564D" d="M248.485,215.428c0-1.152,0.32-2.006,0.961-2.561c0.535-0.461,1.188-0.691,1.957-0.691
			c0.855,0,1.555,0.28,2.098,0.841s0.814,1.335,0.814,2.323c0,0.801-0.121,1.431-0.361,1.89s-0.59,0.815-1.049,1.069
			s-0.959,0.381-1.502,0.381c-0.871,0-1.576-0.279-2.113-0.838S248.485,216.479,248.485,215.428z M249.569,215.428
			c0,0.797,0.174,1.394,0.521,1.79s0.785,0.595,1.312,0.595c0.523,0,0.959-0.199,1.307-0.598s0.521-1.006,0.521-1.822
			c0-0.77-0.176-1.353-0.525-1.749s-0.783-0.595-1.303-0.595c-0.527,0-0.965,0.197-1.312,0.592S249.569,214.631,249.569,215.428z"/>
	</g>
	<g>
		<path fill="#51564D" d="M209.329,356.935v-8.59h2.959c0.668,0,1.178,0.041,1.529,0.123c0.492,0.113,0.912,0.318,1.26,0.615
			c0.453,0.383,0.793,0.872,1.018,1.468s0.336,1.276,0.336,2.042c0,0.652-0.076,1.23-0.229,1.734s-0.348,0.921-0.586,1.251
			s-0.498,0.59-0.781,0.779s-0.625,0.333-1.025,0.431s-0.861,0.146-1.381,0.146H209.329z M210.466,355.921h1.834
			c0.566,0,1.012-0.053,1.334-0.158s0.578-0.254,0.77-0.445c0.27-0.27,0.48-0.632,0.631-1.087s0.225-1.007,0.225-1.655
			c0-0.898-0.146-1.589-0.441-2.071s-0.654-0.806-1.076-0.97c-0.305-0.117-0.795-0.176-1.471-0.176h-1.805V355.921z"/>
		<path fill="#51564D" d="M221.921,356.167c-0.391,0.332-0.766,0.566-1.127,0.703s-0.75,0.205-1.164,0.205
			c-0.684,0-1.209-0.167-1.576-0.501s-0.551-0.761-0.551-1.28c0-0.305,0.07-0.583,0.209-0.835s0.32-0.454,0.545-0.606
			s0.477-0.268,0.758-0.346c0.207-0.055,0.52-0.107,0.938-0.158c0.852-0.102,1.479-0.223,1.881-0.363
			c0.004-0.145,0.006-0.236,0.006-0.275c0-0.43-0.1-0.732-0.299-0.908c-0.27-0.238-0.67-0.357-1.201-0.357
			c-0.496,0-0.861,0.087-1.098,0.261s-0.412,0.481-0.525,0.923l-1.031-0.141c0.094-0.441,0.248-0.798,0.463-1.069
			s0.525-0.48,0.932-0.627s0.877-0.22,1.412-0.22c0.531,0,0.963,0.062,1.295,0.188s0.576,0.282,0.732,0.472s0.266,0.429,0.328,0.718
			c0.035,0.18,0.053,0.504,0.053,0.973v1.406c0,0.98,0.023,1.601,0.068,1.86s0.133,0.509,0.266,0.747h-1.102
			C222.022,356.716,221.952,356.46,221.921,356.167z M221.833,353.812c-0.383,0.156-0.957,0.289-1.723,0.398
			c-0.434,0.062-0.74,0.133-0.92,0.211s-0.318,0.192-0.416,0.343s-0.146,0.317-0.146,0.501c0,0.281,0.107,0.516,0.32,0.703
			s0.523,0.281,0.934,0.281c0.406,0,0.768-0.089,1.084-0.267s0.549-0.421,0.697-0.729c0.113-0.238,0.17-0.59,0.17-1.055V353.812z"/>
		<path fill="#51564D" d="M226.837,355.991l0.152,0.932c-0.297,0.062-0.562,0.094-0.797,0.094c-0.383,0-0.68-0.061-0.891-0.182
			s-0.359-0.28-0.445-0.478s-0.129-0.612-0.129-1.245v-3.58h-0.773v-0.82h0.773v-1.541l1.049-0.633v2.174h1.061v0.82h-1.061v3.639
			c0,0.301,0.02,0.494,0.057,0.58s0.098,0.154,0.182,0.205s0.203,0.076,0.359,0.076
			C226.491,356.032,226.646,356.019,226.837,355.991z"/>
		<path fill="#51564D" d="M227.476,353.823c0-1.152,0.32-2.006,0.961-2.561c0.535-0.461,1.188-0.691,1.957-0.691
			c0.855,0,1.555,0.28,2.098,0.841s0.814,1.335,0.814,2.323c0,0.801-0.119,1.431-0.359,1.89s-0.59,0.815-1.049,1.069
			s-0.961,0.381-1.504,0.381c-0.871,0-1.574-0.279-2.111-0.838S227.476,354.874,227.476,353.823z M228.56,353.823
			c0,0.797,0.174,1.394,0.521,1.79s0.785,0.595,1.312,0.595c0.523,0,0.959-0.199,1.307-0.598s0.521-1.006,0.521-1.822
			c0-0.77-0.174-1.353-0.523-1.749s-0.785-0.595-1.305-0.595c-0.527,0-0.965,0.197-1.312,0.592S228.56,353.026,228.56,353.823z"/>
		<path fill="#51564D" d="M234.12,355.077l1.043-0.164c0.059,0.418,0.223,0.738,0.49,0.961s0.641,0.334,1.121,0.334
			c0.484,0,0.844-0.099,1.078-0.296s0.352-0.429,0.352-0.694c0-0.238-0.104-0.426-0.311-0.562c-0.145-0.094-0.504-0.213-1.078-0.357
			c-0.773-0.195-1.309-0.364-1.607-0.507s-0.525-0.34-0.68-0.592s-0.232-0.53-0.232-0.835c0-0.277,0.064-0.534,0.191-0.771
			s0.299-0.433,0.518-0.589c0.164-0.121,0.389-0.224,0.672-0.308s0.586-0.126,0.91-0.126c0.488,0,0.918,0.07,1.287,0.211
			s0.641,0.331,0.816,0.571s0.297,0.562,0.363,0.964l-1.031,0.141c-0.047-0.32-0.182-0.57-0.406-0.75s-0.543-0.27-0.953-0.27
			c-0.484,0-0.83,0.08-1.037,0.24s-0.311,0.348-0.311,0.562c0,0.137,0.043,0.26,0.129,0.369c0.086,0.113,0.221,0.207,0.404,0.281
			c0.105,0.039,0.416,0.129,0.932,0.27c0.746,0.199,1.268,0.362,1.562,0.489s0.525,0.312,0.693,0.554s0.252,0.543,0.252,0.902
			c0,0.352-0.102,0.683-0.307,0.993s-0.502,0.551-0.889,0.721s-0.824,0.255-1.312,0.255c-0.809,0-1.424-0.168-1.848-0.504
			S234.237,355.737,234.12,355.077z"/>
		<path fill="#51564D" d="M193.239,370.567c-0.391,0.332-0.766,0.566-1.127,0.703s-0.75,0.205-1.164,0.205
			c-0.684,0-1.209-0.167-1.576-0.501s-0.551-0.761-0.551-1.28c0-0.305,0.07-0.583,0.209-0.835s0.32-0.454,0.545-0.606
			s0.477-0.268,0.758-0.346c0.207-0.055,0.52-0.107,0.938-0.158c0.852-0.102,1.479-0.223,1.881-0.363
			c0.004-0.145,0.006-0.236,0.006-0.275c0-0.43-0.1-0.732-0.299-0.908c-0.27-0.238-0.67-0.357-1.201-0.357
			c-0.496,0-0.861,0.087-1.098,0.261s-0.412,0.481-0.525,0.923l-1.031-0.141c0.094-0.441,0.248-0.798,0.463-1.069
			s0.525-0.48,0.932-0.627s0.877-0.22,1.412-0.22c0.531,0,0.963,0.062,1.295,0.188s0.576,0.282,0.732,0.472s0.266,0.429,0.328,0.718
			c0.035,0.18,0.053,0.504,0.053,0.973v1.406c0,0.98,0.023,1.601,0.068,1.86s0.133,0.509,0.266,0.747h-1.102
			C193.341,371.116,193.271,370.86,193.239,370.567z M193.151,368.212c-0.383,0.156-0.957,0.289-1.723,0.398
			c-0.434,0.062-0.74,0.133-0.92,0.211s-0.318,0.192-0.416,0.343s-0.146,0.317-0.146,0.501c0,0.281,0.107,0.516,0.32,0.703
			s0.523,0.281,0.934,0.281c0.406,0,0.768-0.089,1.084-0.267s0.549-0.421,0.697-0.729c0.113-0.238,0.17-0.59,0.17-1.055V368.212z"/>
		<path fill="#51564D" d="M195.829,371.335v-8.59h1.055v8.59H195.829z"/>
		<path fill="#51564D" d="M198.519,371.335v-6.223h0.943v0.873c0.195-0.305,0.455-0.55,0.779-0.735s0.693-0.278,1.107-0.278
			c0.461,0,0.84,0.096,1.135,0.287s0.502,0.459,0.623,0.803c0.492-0.727,1.133-1.09,1.922-1.09c0.617,0,1.092,0.171,1.424,0.513
			s0.498,0.868,0.498,1.579v4.271h-1.049v-3.92c0-0.422-0.033-0.726-0.102-0.911s-0.193-0.335-0.373-0.448s-0.391-0.17-0.633-0.17
			c-0.438,0-0.801,0.146-1.09,0.437s-0.434,0.757-0.434,1.397v3.615h-1.055v-4.043c0-0.469-0.086-0.82-0.258-1.055
			s-0.453-0.352-0.844-0.352c-0.297,0-0.57,0.078-0.822,0.234s-0.436,0.385-0.549,0.686s-0.17,0.734-0.17,1.301v3.229H198.519z"/>
		<path fill="#51564D" d="M212.575,370.567c-0.391,0.332-0.766,0.566-1.127,0.703s-0.75,0.205-1.164,0.205
			c-0.684,0-1.209-0.167-1.576-0.501s-0.551-0.761-0.551-1.28c0-0.305,0.07-0.583,0.209-0.835s0.32-0.454,0.545-0.606
			s0.477-0.268,0.758-0.346c0.207-0.055,0.52-0.107,0.938-0.158c0.852-0.102,1.479-0.223,1.881-0.363
			c0.004-0.145,0.006-0.236,0.006-0.275c0-0.43-0.1-0.732-0.299-0.908c-0.27-0.238-0.67-0.357-1.201-0.357
			c-0.496,0-0.861,0.087-1.098,0.261s-0.412,0.481-0.525,0.923l-1.031-0.141c0.094-0.441,0.248-0.798,0.463-1.069
			s0.525-0.48,0.932-0.627s0.877-0.22,1.412-0.22c0.531,0,0.963,0.062,1.295,0.188s0.576,0.282,0.732,0.472s0.266,0.429,0.328,0.718
			c0.035,0.18,0.053,0.504,0.053,0.973v1.406c0,0.98,0.023,1.601,0.068,1.86s0.133,0.509,0.266,0.747h-1.102
			C212.677,371.116,212.606,370.86,212.575,370.567z M212.487,368.212c-0.383,0.156-0.957,0.289-1.723,0.398
			c-0.434,0.062-0.74,0.133-0.92,0.211s-0.318,0.192-0.416,0.343s-0.146,0.317-0.146,0.501c0,0.281,0.107,0.516,0.32,0.703
			s0.523,0.281,0.934,0.281c0.406,0,0.768-0.089,1.084-0.267s0.549-0.421,0.697-0.729c0.113-0.238,0.17-0.59,0.17-1.055V368.212z"/>
		<path fill="#51564D" d="M219.249,369.056l1.037,0.135c-0.113,0.715-0.402,1.274-0.869,1.679s-1.041,0.606-1.721,0.606
			c-0.852,0-1.535-0.278-2.053-0.835s-0.777-1.354-0.777-2.394c0-0.672,0.111-1.26,0.334-1.764s0.562-0.882,1.018-1.134
			s0.949-0.378,1.484-0.378c0.676,0,1.229,0.171,1.658,0.513s0.705,0.827,0.826,1.456l-1.025,0.158
			c-0.098-0.418-0.27-0.732-0.518-0.943s-0.549-0.316-0.9-0.316c-0.531,0-0.963,0.19-1.295,0.571s-0.498,0.983-0.498,1.808
			c0,0.836,0.16,1.443,0.48,1.822s0.738,0.568,1.254,0.568c0.414,0,0.76-0.127,1.037-0.381S219.175,369.583,219.249,369.056z"/>
		<path fill="#51564D" d="M225.448,369.331l1.09,0.135c-0.172,0.637-0.49,1.131-0.955,1.482s-1.059,0.527-1.781,0.527
			c-0.91,0-1.631-0.28-2.164-0.841s-0.801-1.347-0.801-2.358c0-1.047,0.27-1.859,0.809-2.438s1.238-0.867,2.098-0.867
			c0.832,0,1.512,0.283,2.039,0.85s0.791,1.363,0.791,2.391c0,0.062-0.002,0.156-0.006,0.281h-4.641
			c0.039,0.684,0.232,1.207,0.58,1.57s0.781,0.545,1.301,0.545c0.387,0,0.717-0.102,0.99-0.305S225.288,369.776,225.448,369.331z
			 M221.985,367.626h3.475c-0.047-0.523-0.18-0.916-0.398-1.178c-0.336-0.406-0.771-0.609-1.307-0.609
			c-0.484,0-0.891,0.162-1.221,0.486S222.021,367.083,221.985,367.626z"/>
		<path fill="#51564D" d="M227.862,371.335v-6.223h0.949v0.885c0.457-0.684,1.117-1.025,1.98-1.025c0.375,0,0.721,0.067,1.035,0.202
			s0.549,0.312,0.705,0.53s0.266,0.479,0.328,0.779c0.039,0.195,0.059,0.537,0.059,1.025v3.826h-1.055v-3.785
			c0-0.43-0.041-0.751-0.123-0.964s-0.227-0.383-0.436-0.51s-0.455-0.19-0.736-0.19c-0.449,0-0.836,0.143-1.162,0.428
			s-0.49,0.826-0.49,1.623v3.398H227.862z"/>
		<path fill="#51564D" d="M238.597,370.567c-0.391,0.332-0.766,0.566-1.127,0.703s-0.75,0.205-1.164,0.205
			c-0.684,0-1.209-0.167-1.576-0.501s-0.551-0.761-0.551-1.28c0-0.305,0.07-0.583,0.209-0.835s0.32-0.454,0.545-0.606
			s0.477-0.268,0.758-0.346c0.207-0.055,0.52-0.107,0.938-0.158c0.852-0.102,1.479-0.223,1.881-0.363
			c0.004-0.145,0.006-0.236,0.006-0.275c0-0.43-0.1-0.732-0.299-0.908c-0.27-0.238-0.67-0.357-1.201-0.357
			c-0.496,0-0.861,0.087-1.098,0.261s-0.412,0.481-0.525,0.923l-1.031-0.141c0.094-0.441,0.248-0.798,0.463-1.069
			s0.525-0.48,0.932-0.627s0.877-0.22,1.412-0.22c0.531,0,0.963,0.062,1.295,0.188s0.576,0.282,0.732,0.472s0.266,0.429,0.328,0.718
			c0.035,0.18,0.053,0.504,0.053,0.973v1.406c0,0.98,0.023,1.601,0.068,1.86s0.133,0.509,0.266,0.747h-1.102
			C238.698,371.116,238.628,370.86,238.597,370.567z M238.509,368.212c-0.383,0.156-0.957,0.289-1.723,0.398
			c-0.434,0.062-0.74,0.133-0.92,0.211s-0.318,0.192-0.416,0.343s-0.146,0.317-0.146,0.501c0,0.281,0.107,0.516,0.32,0.703
			s0.523,0.281,0.934,0.281c0.406,0,0.768-0.089,1.084-0.267s0.549-0.421,0.697-0.729c0.113-0.238,0.17-0.59,0.17-1.055V368.212z"/>
		<path fill="#51564D" d="M245.247,371.335v-0.785c-0.395,0.617-0.975,0.926-1.74,0.926c-0.496,0-0.951-0.137-1.367-0.41
			s-0.738-0.655-0.967-1.146s-0.344-1.054-0.344-1.69c0-0.621,0.104-1.185,0.311-1.69s0.518-0.894,0.932-1.163
			s0.877-0.404,1.389-0.404c0.375,0,0.709,0.079,1.002,0.237s0.531,0.364,0.715,0.618v-3.082h1.049v8.59H245.247z M241.913,368.229
			c0,0.797,0.168,1.393,0.504,1.787s0.732,0.592,1.189,0.592c0.461,0,0.854-0.188,1.176-0.565s0.482-0.952,0.482-1.726
			c0-0.852-0.164-1.477-0.492-1.875s-0.732-0.598-1.213-0.598c-0.469,0-0.859,0.191-1.174,0.574S241.913,367.405,241.913,368.229z"
			/>
		<path fill="#51564D" d="M247.491,368.224c0-1.152,0.32-2.006,0.961-2.561c0.535-0.461,1.188-0.691,1.957-0.691
			c0.855,0,1.555,0.28,2.098,0.841s0.814,1.335,0.814,2.323c0,0.801-0.119,1.431-0.359,1.89s-0.59,0.815-1.049,1.069
			s-0.961,0.381-1.504,0.381c-0.871,0-1.574-0.279-2.111-0.838S247.491,369.274,247.491,368.224z M248.575,368.224
			c0,0.797,0.174,1.394,0.521,1.79s0.785,0.595,1.312,0.595c0.523,0,0.959-0.199,1.307-0.598s0.521-1.006,0.521-1.822
			c0-0.77-0.174-1.353-0.523-1.749s-0.785-0.595-1.305-0.595c-0.527,0-0.965,0.197-1.312,0.592S248.575,367.427,248.575,368.224z"/>
		<path fill="#51564D" d="M254.136,369.478l1.043-0.164c0.059,0.418,0.223,0.738,0.49,0.961s0.641,0.334,1.121,0.334
			c0.484,0,0.844-0.099,1.078-0.296s0.352-0.429,0.352-0.694c0-0.238-0.104-0.426-0.311-0.562c-0.145-0.094-0.504-0.213-1.078-0.357
			c-0.773-0.195-1.309-0.364-1.607-0.507s-0.525-0.34-0.68-0.592s-0.232-0.53-0.232-0.835c0-0.277,0.064-0.534,0.191-0.771
			s0.299-0.433,0.518-0.589c0.164-0.121,0.389-0.224,0.672-0.308s0.586-0.126,0.91-0.126c0.488,0,0.918,0.07,1.287,0.211
			s0.641,0.331,0.816,0.571s0.297,0.562,0.363,0.964l-1.031,0.141c-0.047-0.32-0.182-0.57-0.406-0.75s-0.543-0.27-0.953-0.27
			c-0.484,0-0.83,0.08-1.037,0.24s-0.311,0.348-0.311,0.562c0,0.137,0.043,0.26,0.129,0.369c0.086,0.113,0.221,0.207,0.404,0.281
			c0.105,0.039,0.416,0.129,0.932,0.27c0.746,0.199,1.268,0.362,1.562,0.489s0.525,0.312,0.693,0.554s0.252,0.543,0.252,0.902
			c0,0.352-0.102,0.683-0.307,0.993s-0.502,0.551-0.889,0.721s-0.824,0.255-1.312,0.255c-0.809,0-1.424-0.168-1.848-0.504
			S254.253,370.138,254.136,369.478z"/>
	</g>
</g>
</svg>
