<?xml version="1.0" encoding="utf-8"?>
<!-- Generator: Adobe Illustrator 16.0.0, SVG Export Plug-In . SVG Version: 6.00 Build 0)  -->
<!DOCTYPE svg PUBLIC "-//W3C//DTD SVG 1.1//EN" "http://www.w3.org/Graphics/SVG/1.1/DTD/svg11.dtd">
<svg version="1.1" id="Layer_1" xmlns="http://www.w3.org/2000/svg" xmlns:xlink="http://www.w3.org/1999/xlink" x="0px" y="0px"
	 width="172.942px" height="137.554px" viewBox="0 0 172.942 137.554" enable-background="new 0 0 172.942 137.554"
	 xml:space="preserve">
<g>
	<g id="XMLID_11570_">
		<polygon id="XMLID_11575_" fill="#51564D" points="17.003,61.755 17.003,63.833 17.003,67.552 3.146,67.552 1.946,67.552 
			1.946,68.752 1.946,75.952 1.946,77.151 3.146,77.151 17.003,77.151 17.003,80.87 17.003,82.949 18.804,81.909 33.555,73.392 
			35.354,72.353 33.556,71.313 18.804,62.794 17.003,61.755 		"/>
		<polygon id="XMLID_11573_" fill="#F7EBCB" points="18.203,80.87 18.203,75.952 3.146,75.952 3.146,68.752 18.203,68.752 
			18.203,63.833 32.955,72.353 		"/>
		<polygon id="XMLID_11571_" fill="#31A6AE" points="4.346,74.752 19.403,74.752 19.403,78.792 30.556,72.353 19.403,65.912 
			19.403,69.952 4.346,69.952 		"/>
	</g>
	<g id="XMLID_11550_">
		
			<circle id="XMLID_11572_" fill="#F7EBCB" stroke="#51564D" stroke-width="1.7014" stroke-miterlimit="10" cx="18.65" cy="17.742" r="16.892"/>
		<g>
			<g>
				<path fill="#51564D" d="M15.026,23.697V13.39h3.34c1.266,0,2.091,0.052,2.475,0.154c0.591,0.155,1.085,0.491,1.483,1.009
					c0.398,0.519,0.598,1.188,0.598,2.008c0,0.633-0.114,1.165-0.344,1.596c-0.23,0.432-0.521,0.771-0.876,1.017
					c-0.354,0.246-0.714,0.409-1.079,0.488c-0.497,0.099-1.217,0.147-2.158,0.147h-1.357v3.889H15.026z M17.107,15.133v2.926h1.139
					c0.82,0,1.369-0.055,1.646-0.162s0.493-0.276,0.65-0.506c0.157-0.23,0.235-0.497,0.235-0.802c0-0.375-0.109-0.685-0.33-0.929
					c-0.221-0.243-0.499-0.396-0.837-0.457c-0.248-0.047-0.747-0.07-1.497-0.07H17.107z"/>
			</g>
		</g>
	</g>
	<g id="XMLID_11281_">
		<g id="XMLID_11645_">
			
				<line id="XMLID_11648_" fill="none" stroke="#C40000" stroke-width="6" stroke-miterlimit="10" x1="0" y1="122.486" x2="22.474" y2="122.486"/>
			<g id="XMLID_11646_">
				<polygon id="XMLID_11647_" fill="#C40000" points="37.3,122.486 16.407,131.023 21.365,122.486 16.407,113.95 				"/>
			</g>
		</g>
	</g>
	<g>
		<path fill="#F7EBCB" d="M52.042,22.335V10.882h3.711c1.406,0,2.322,0.058,2.75,0.172c0.656,0.172,1.205,0.546,1.648,1.121
			c0.441,0.575,0.664,1.319,0.664,2.23c0,0.703-0.129,1.294-0.383,1.773c-0.256,0.479-0.58,0.855-0.973,1.129
			c-0.395,0.273-0.793,0.454-1.199,0.543c-0.553,0.109-1.352,0.164-2.398,0.164h-1.508v4.32H52.042z M54.354,12.819v3.25h1.266
			c0.91,0,1.52-0.06,1.828-0.18c0.307-0.12,0.547-0.308,0.723-0.562c0.174-0.255,0.262-0.552,0.262-0.891
			c0-0.417-0.123-0.761-0.367-1.031c-0.246-0.271-0.555-0.44-0.93-0.508c-0.277-0.052-0.832-0.078-1.664-0.078H54.354z"/>
		<path fill="#F7EBCB" d="M64.8,22.335h-2.195v-8.297h2.039v1.18c0.348-0.558,0.662-0.925,0.941-1.102
			c0.277-0.177,0.594-0.266,0.949-0.266c0.5,0,0.98,0.138,1.445,0.414l-0.68,1.914c-0.371-0.239-0.715-0.359-1.031-0.359
			c-0.309,0-0.568,0.085-0.781,0.254c-0.215,0.169-0.383,0.476-0.504,0.918c-0.123,0.442-0.184,1.37-0.184,2.781V22.335z"/>
		<path fill="#F7EBCB" d="M68.417,18.069c0-0.729,0.18-1.435,0.539-2.117s0.867-1.203,1.527-1.562
			c0.658-0.359,1.395-0.539,2.207-0.539c1.254,0,2.283,0.407,3.086,1.223c0.801,0.815,1.203,1.845,1.203,3.09
			c0,1.255-0.406,2.296-1.215,3.121c-0.811,0.825-1.83,1.238-3.059,1.238c-0.762,0-1.486-0.172-2.176-0.516
			c-0.691-0.344-1.215-0.848-1.574-1.512S68.417,19.022,68.417,18.069z M70.667,18.187c0,0.823,0.195,1.453,0.586,1.891
			s0.871,0.656,1.445,0.656c0.572,0,1.053-0.219,1.441-0.656c0.387-0.438,0.582-1.073,0.582-1.906c0-0.812-0.195-1.438-0.582-1.875
			c-0.389-0.438-0.869-0.656-1.441-0.656c-0.574,0-1.055,0.219-1.445,0.656S70.667,17.363,70.667,18.187z"/>
		<path fill="#F7EBCB" d="M86.308,22.335h-2.039v-1.219c-0.34,0.474-0.738,0.827-1.199,1.059s-0.926,0.348-1.395,0.348
			c-0.953,0-1.77-0.384-2.449-1.152s-1.02-1.84-1.02-3.215c0-1.406,0.33-2.476,0.992-3.207c0.66-0.731,1.496-1.098,2.508-1.098
			c0.926,0,1.729,0.386,2.406,1.156v-4.125h2.195V22.335z M80.448,18.007c0,0.886,0.121,1.526,0.367,1.922
			c0.354,0.573,0.848,0.859,1.484,0.859c0.504,0,0.934-0.215,1.289-0.645c0.354-0.43,0.531-1.071,0.531-1.926
			c0-0.953-0.172-1.64-0.516-2.059s-0.785-0.629-1.32-0.629c-0.521,0-0.957,0.207-1.309,0.621S80.448,17.184,80.448,18.007z"/>
		<path fill="#F7EBCB" d="M93.933,22.335v-1.242c-0.303,0.442-0.699,0.792-1.191,1.047s-1.012,0.383-1.559,0.383
			c-0.559,0-1.059-0.122-1.5-0.367c-0.443-0.245-0.764-0.589-0.961-1.031c-0.199-0.442-0.297-1.055-0.297-1.836v-5.25h2.195v3.812
			c0,1.167,0.039,1.882,0.121,2.145c0.08,0.263,0.227,0.472,0.441,0.625c0.213,0.153,0.484,0.23,0.812,0.23
			c0.375,0,0.711-0.103,1.008-0.309s0.5-0.461,0.609-0.766s0.164-1.051,0.164-2.238v-3.5h2.195v8.297H93.933z"/>
		<path fill="#F7EBCB" d="M105.479,16.491l-2.164,0.391c-0.074-0.433-0.238-0.758-0.496-0.977s-0.594-0.328-1.004-0.328
			c-0.547,0-0.984,0.188-1.309,0.566c-0.326,0.378-0.488,1.009-0.488,1.895c0,0.984,0.164,1.68,0.496,2.086
			c0.33,0.406,0.773,0.609,1.332,0.609c0.416,0,0.758-0.118,1.023-0.355s0.453-0.645,0.562-1.223l2.156,0.367
			c-0.225,0.989-0.654,1.737-1.289,2.242c-0.637,0.505-1.488,0.758-2.555,0.758c-1.215,0-2.182-0.383-2.902-1.148
			c-0.723-0.766-1.082-1.825-1.082-3.18c0-1.37,0.361-2.437,1.086-3.199c0.723-0.763,1.703-1.145,2.938-1.145
			c1.01,0,1.812,0.218,2.41,0.652C104.79,14.938,105.218,15.601,105.479,16.491z"/>
		<path fill="#F7EBCB" d="M110.948,14.038v1.75h-1.5v3.344c0,0.677,0.014,1.071,0.043,1.184c0.027,0.112,0.094,0.204,0.195,0.277
			s0.225,0.109,0.371,0.109c0.203,0,0.496-0.07,0.883-0.211l0.188,1.703c-0.512,0.219-1.09,0.328-1.734,0.328
			c-0.396,0-0.754-0.066-1.07-0.199c-0.318-0.133-0.551-0.305-0.699-0.516s-0.252-0.496-0.309-0.855
			c-0.047-0.255-0.07-0.771-0.07-1.547v-3.617h-1.008v-1.75h1.008V12.39l2.203-1.281v2.93H110.948z"/>
		<path fill="#F7EBCB" d="M111.964,18.069c0-0.729,0.18-1.435,0.539-2.117s0.867-1.203,1.527-1.562
			c0.658-0.359,1.395-0.539,2.207-0.539c1.254,0,2.283,0.407,3.086,1.223c0.801,0.815,1.203,1.845,1.203,3.09
			c0,1.255-0.406,2.296-1.215,3.121c-0.811,0.825-1.83,1.238-3.059,1.238c-0.762,0-1.486-0.172-2.176-0.516
			c-0.691-0.344-1.215-0.848-1.574-1.512S111.964,19.022,111.964,18.069z M114.214,18.187c0,0.823,0.195,1.453,0.586,1.891
			s0.871,0.656,1.445,0.656c0.572,0,1.053-0.219,1.441-0.656c0.387-0.438,0.582-1.073,0.582-1.906c0-0.812-0.195-1.438-0.582-1.875
			c-0.389-0.438-0.869-0.656-1.441-0.656c-0.574,0-1.055,0.219-1.445,0.656S114.214,17.363,114.214,18.187z"/>
	</g>
	<g>
		<path fill="#F7EBCB" d="M62.37,68.399h-2.516l-1-2.602h-4.578l-0.945,2.602h-2.453l4.461-11.453h2.445L62.37,68.399z
			 M58.112,63.868l-1.578-4.25l-1.547,4.25H58.112z"/>
		<path fill="#F7EBCB" d="M70.815,62.556l-2.164,0.391c-0.074-0.432-0.238-0.758-0.496-0.977s-0.594-0.328-1.004-0.328
			c-0.547,0-0.984,0.189-1.309,0.566c-0.326,0.379-0.488,1.01-0.488,1.895c0,0.984,0.164,1.68,0.496,2.086
			c0.33,0.406,0.773,0.609,1.332,0.609c0.416,0,0.758-0.117,1.023-0.355c0.266-0.236,0.453-0.645,0.562-1.223l2.156,0.367
			c-0.225,0.99-0.654,1.738-1.289,2.242c-0.637,0.506-1.488,0.758-2.555,0.758c-1.215,0-2.182-0.383-2.902-1.148
			c-0.723-0.766-1.082-1.824-1.082-3.18c0-1.369,0.361-2.436,1.086-3.199c0.723-0.762,1.703-1.145,2.938-1.145
			c1.01,0,1.812,0.219,2.41,0.652C70.126,61.003,70.554,61.665,70.815,62.556z"/>
		<path fill="#F7EBCB" d="M76.284,60.103v1.75h-1.5v3.344c0,0.678,0.014,1.072,0.043,1.184c0.027,0.113,0.094,0.205,0.195,0.277
			c0.102,0.074,0.225,0.109,0.371,0.109c0.203,0,0.496-0.07,0.883-0.211l0.188,1.703c-0.512,0.219-1.09,0.328-1.734,0.328
			c-0.396,0-0.754-0.066-1.07-0.199c-0.318-0.133-0.551-0.305-0.699-0.516s-0.252-0.496-0.309-0.855
			c-0.047-0.254-0.07-0.77-0.07-1.547v-3.617h-1.008v-1.75h1.008v-1.648l2.203-1.281v2.93H76.284z"/>
		<path fill="#F7EBCB" d="M77.808,58.978v-2.031h2.195v2.031H77.808z M77.808,68.399v-8.297h2.195v8.297H77.808z"/>
		<path fill="#F7EBCB" d="M84.534,68.399l-3.344-8.297h2.305l1.562,4.234l0.453,1.414c0.119-0.359,0.195-0.596,0.227-0.711
			c0.072-0.234,0.15-0.469,0.234-0.703l1.578-4.234h2.258l-3.297,8.297H84.534z"/>
		<path fill="#F7EBCB" d="M91.151,58.978v-2.031h2.195v2.031H91.151z M91.151,68.399v-8.297h2.195v8.297H91.151z"/>
		<path fill="#F7EBCB" d="M103.206,68.399h-2.039v-1.219c-0.34,0.475-0.738,0.828-1.199,1.059c-0.461,0.232-0.926,0.348-1.395,0.348
			c-0.953,0-1.77-0.383-2.449-1.152c-0.68-0.768-1.02-1.84-1.02-3.215c0-1.406,0.33-2.475,0.992-3.207
			c0.66-0.73,1.496-1.098,2.508-1.098c0.926,0,1.729,0.387,2.406,1.156v-4.125h2.195V68.399z M97.347,64.071
			c0,0.887,0.121,1.527,0.367,1.922c0.354,0.574,0.848,0.859,1.484,0.859c0.504,0,0.934-0.215,1.289-0.645
			c0.354-0.43,0.531-1.07,0.531-1.926c0-0.953-0.172-1.639-0.516-2.059c-0.344-0.418-0.785-0.629-1.32-0.629
			c-0.521,0-0.957,0.207-1.309,0.621S97.347,63.249,97.347,64.071z"/>
		<path fill="#F7EBCB" d="M107.011,62.634l-1.992-0.359c0.223-0.801,0.609-1.395,1.156-1.781c0.547-0.385,1.359-0.578,2.438-0.578
			c0.979,0,1.707,0.117,2.188,0.348c0.479,0.232,0.816,0.527,1.012,0.883c0.195,0.357,0.293,1.012,0.293,1.965l-0.023,2.562
			c0,0.73,0.035,1.268,0.105,1.613c0.07,0.348,0.201,0.719,0.395,1.113h-2.172c-0.059-0.145-0.129-0.361-0.211-0.648
			c-0.037-0.129-0.062-0.215-0.078-0.258c-0.375,0.365-0.777,0.639-1.203,0.82c-0.428,0.184-0.883,0.273-1.367,0.273
			c-0.855,0-1.527-0.23-2.02-0.695c-0.492-0.463-0.738-1.049-0.738-1.758c0-0.469,0.111-0.887,0.336-1.254
			c0.223-0.367,0.537-0.648,0.941-0.844c0.402-0.195,0.984-0.365,1.746-0.512c1.025-0.191,1.736-0.371,2.133-0.539v-0.219
			c0-0.422-0.105-0.723-0.312-0.902c-0.209-0.18-0.602-0.27-1.18-0.27c-0.391,0-0.695,0.078-0.914,0.23
			C107.323,61.979,107.146,62.249,107.011,62.634z M109.948,64.415c-0.281,0.094-0.727,0.207-1.336,0.336
			c-0.609,0.131-1.008,0.258-1.195,0.383c-0.287,0.203-0.43,0.461-0.43,0.773c0,0.309,0.113,0.574,0.344,0.797
			c0.229,0.225,0.52,0.336,0.875,0.336c0.395,0,0.773-0.129,1.133-0.391c0.266-0.197,0.439-0.439,0.523-0.727
			c0.057-0.188,0.086-0.543,0.086-1.07V64.415z"/>
		<path fill="#F7EBCB" d="M121.878,68.399h-2.039v-1.219c-0.34,0.475-0.738,0.828-1.199,1.059c-0.461,0.232-0.926,0.348-1.395,0.348
			c-0.953,0-1.77-0.383-2.449-1.152c-0.68-0.768-1.02-1.84-1.02-3.215c0-1.406,0.33-2.475,0.992-3.207
			c0.66-0.73,1.496-1.098,2.508-1.098c0.926,0,1.729,0.387,2.406,1.156v-4.125h2.195V68.399z M116.019,64.071
			c0,0.887,0.121,1.527,0.367,1.922c0.354,0.574,0.848,0.859,1.484,0.859c0.504,0,0.934-0.215,1.289-0.645
			c0.354-0.43,0.531-1.07,0.531-1.926c0-0.953-0.172-1.639-0.516-2.059c-0.344-0.418-0.785-0.629-1.32-0.629
			c-0.521,0-0.957,0.207-1.309,0.621S116.019,63.249,116.019,64.071z"/>
		<path fill="#F7EBCB" d="M128.847,65.759l2.188,0.367c-0.281,0.803-0.727,1.414-1.332,1.832c-0.607,0.42-1.367,0.629-2.277,0.629
			c-1.443,0-2.512-0.471-3.203-1.414c-0.547-0.754-0.82-1.707-0.82-2.859c0-1.375,0.359-2.451,1.078-3.23
			c0.719-0.777,1.627-1.168,2.727-1.168c1.234,0,2.207,0.408,2.922,1.223c0.713,0.816,1.055,2.064,1.023,3.746h-5.5
			c0.016,0.652,0.191,1.158,0.531,1.52c0.338,0.363,0.76,0.543,1.266,0.543c0.344,0,0.633-0.094,0.867-0.281
			S128.726,66.177,128.847,65.759z M128.972,63.54c-0.016-0.635-0.18-1.117-0.492-1.449c-0.312-0.33-0.693-0.496-1.141-0.496
			c-0.48,0-0.875,0.176-1.188,0.523c-0.312,0.35-0.467,0.824-0.461,1.422H128.972z"/>
		<path fill="#F7EBCB" d="M132.167,66.032l2.203-0.336c0.094,0.428,0.283,0.752,0.57,0.973c0.285,0.223,0.688,0.332,1.203,0.332
			c0.566,0,0.994-0.104,1.281-0.312c0.191-0.145,0.289-0.34,0.289-0.586c0-0.166-0.053-0.305-0.156-0.414
			c-0.109-0.104-0.355-0.199-0.734-0.289c-1.771-0.391-2.895-0.746-3.367-1.07c-0.656-0.447-0.984-1.07-0.984-1.867
			c0-0.719,0.283-1.322,0.852-1.812c0.566-0.488,1.447-0.734,2.641-0.734c1.135,0,1.979,0.186,2.531,0.555
			c0.551,0.371,0.932,0.918,1.141,1.641l-2.07,0.383c-0.09-0.322-0.258-0.57-0.504-0.742c-0.248-0.172-0.602-0.258-1.059-0.258
			c-0.578,0-0.992,0.082-1.242,0.242c-0.168,0.115-0.25,0.264-0.25,0.445c0,0.156,0.072,0.289,0.219,0.398
			c0.197,0.146,0.881,0.352,2.051,0.617c1.168,0.266,1.984,0.592,2.449,0.977c0.457,0.391,0.688,0.936,0.688,1.633
			c0,0.762-0.318,1.414-0.953,1.961c-0.637,0.547-1.576,0.82-2.82,0.82c-1.131,0-2.025-0.229-2.684-0.688
			C132.8,67.442,132.37,66.819,132.167,66.032z"/>
		<path fill="#F7EBCB" d="M151.706,71.556v-4.172c-0.287,0.371-0.645,0.664-1.07,0.879c-0.428,0.217-0.889,0.324-1.383,0.324
			c-0.943,0-1.719-0.354-2.328-1.062c-0.719-0.828-1.078-1.949-1.078-3.367c0-1.332,0.336-2.373,1.012-3.121
			c0.674-0.746,1.512-1.121,2.512-1.121c0.551,0,1.029,0.117,1.434,0.352c0.402,0.234,0.762,0.59,1.074,1.062v-1.227h2.023v11.453
			H151.706z M151.776,64.149c0-0.848-0.174-1.48-0.52-1.895c-0.348-0.414-0.781-0.621-1.301-0.621c-0.531,0-0.977,0.211-1.332,0.633
			c-0.357,0.422-0.535,1.092-0.535,2.008c0,0.912,0.172,1.57,0.516,1.973c0.344,0.404,0.768,0.605,1.273,0.605
			c0.504,0,0.947-0.227,1.328-0.68C151.585,65.72,151.776,65.046,151.776,64.149z"/>
		<path fill="#F7EBCB" d="M161.519,68.399v-1.242c-0.303,0.443-0.699,0.793-1.191,1.047c-0.492,0.256-1.012,0.383-1.559,0.383
			c-0.559,0-1.059-0.121-1.5-0.367c-0.443-0.244-0.764-0.588-0.961-1.031c-0.199-0.441-0.297-1.055-0.297-1.836v-5.25h2.195v3.812
			c0,1.168,0.039,1.883,0.121,2.145c0.08,0.264,0.227,0.473,0.441,0.625c0.213,0.154,0.484,0.23,0.812,0.23
			c0.375,0,0.711-0.102,1.008-0.309c0.297-0.205,0.5-0.461,0.609-0.766s0.164-1.051,0.164-2.238v-3.5h2.195v8.297H161.519z"/>
		<path fill="#F7EBCB" d="M170.636,65.759l2.188,0.367c-0.281,0.803-0.727,1.414-1.332,1.832c-0.607,0.42-1.367,0.629-2.277,0.629
			c-1.443,0-2.512-0.471-3.203-1.414c-0.547-0.754-0.82-1.707-0.82-2.859c0-1.375,0.359-2.451,1.078-3.23
			c0.719-0.777,1.627-1.168,2.727-1.168c1.234,0,2.207,0.408,2.922,1.223c0.713,0.816,1.055,2.064,1.023,3.746h-5.5
			c0.016,0.652,0.191,1.158,0.531,1.52c0.338,0.363,0.76,0.543,1.266,0.543c0.344,0,0.633-0.094,0.867-0.281
			S170.515,66.177,170.636,65.759z M170.761,63.54c-0.016-0.635-0.18-1.117-0.492-1.449c-0.312-0.33-0.693-0.496-1.141-0.496
			c-0.48,0-0.875,0.176-1.188,0.523c-0.312,0.35-0.467,0.824-0.461,1.422H170.761z"/>
		<path fill="#F7EBCB" d="M53.667,81.835l-1.992-0.359c0.223-0.803,0.609-1.396,1.156-1.781c0.547-0.387,1.359-0.578,2.438-0.578
			c0.979,0,1.707,0.115,2.188,0.348c0.479,0.23,0.816,0.525,1.012,0.883c0.195,0.355,0.293,1.012,0.293,1.965l-0.023,2.562
			c0,0.729,0.035,1.266,0.105,1.613c0.07,0.346,0.201,0.717,0.395,1.113h-2.172c-0.059-0.146-0.129-0.363-0.211-0.648
			c-0.037-0.131-0.062-0.217-0.078-0.258c-0.375,0.363-0.777,0.637-1.203,0.82c-0.428,0.182-0.883,0.273-1.367,0.273
			c-0.855,0-1.527-0.232-2.02-0.695c-0.492-0.465-0.738-1.051-0.738-1.758c0-0.469,0.111-0.887,0.336-1.254
			c0.223-0.367,0.537-0.648,0.941-0.844c0.402-0.195,0.984-0.367,1.746-0.512c1.025-0.193,1.736-0.373,2.133-0.539v-0.219
			c0-0.422-0.105-0.723-0.312-0.902c-0.209-0.18-0.602-0.27-1.18-0.27c-0.391,0-0.695,0.076-0.914,0.23
			C53.979,81.179,53.802,81.448,53.667,81.835z M56.604,83.616c-0.281,0.094-0.727,0.205-1.336,0.336
			c-0.609,0.129-1.008,0.258-1.195,0.383c-0.287,0.203-0.43,0.461-0.43,0.773c0,0.307,0.113,0.572,0.344,0.797
			c0.229,0.223,0.52,0.336,0.875,0.336c0.395,0,0.773-0.131,1.133-0.391c0.266-0.199,0.439-0.441,0.523-0.727
			c0.057-0.188,0.086-0.545,0.086-1.07V83.616z"/>
		<path fill="#F7EBCB" d="M60.862,79.304h2.047v1.219c0.266-0.418,0.625-0.756,1.078-1.016c0.453-0.262,0.955-0.391,1.508-0.391
			c0.963,0,1.781,0.377,2.453,1.133c0.672,0.754,1.008,1.807,1.008,3.156c0,1.385-0.34,2.461-1.016,3.23
			c-0.678,0.768-1.498,1.152-2.461,1.152c-0.459,0-0.875-0.092-1.246-0.273c-0.373-0.184-0.766-0.496-1.176-0.938v4.18h-2.195
			V79.304z M63.034,83.312c0,0.932,0.184,1.621,0.555,2.066c0.369,0.445,0.82,0.668,1.352,0.668c0.51,0,0.934-0.205,1.273-0.613
			c0.338-0.41,0.508-1.08,0.508-2.012c0-0.871-0.176-1.516-0.523-1.938c-0.35-0.422-0.781-0.633-1.297-0.633
			c-0.537,0-0.982,0.207-1.336,0.621C63.21,81.886,63.034,82.499,63.034,83.312z"/>
		<path fill="#F7EBCB" d="M70.19,83.335c0-0.73,0.18-1.436,0.539-2.117c0.359-0.684,0.867-1.203,1.527-1.562
			c0.658-0.359,1.395-0.539,2.207-0.539c1.254,0,2.283,0.406,3.086,1.223c0.801,0.814,1.203,1.844,1.203,3.09
			c0,1.254-0.406,2.295-1.215,3.121c-0.811,0.824-1.83,1.238-3.059,1.238c-0.762,0-1.486-0.172-2.176-0.516
			c-0.691-0.344-1.215-0.848-1.574-1.512S70.19,84.288,70.19,83.335z M72.44,83.452c0,0.822,0.195,1.453,0.586,1.891
			s0.871,0.656,1.445,0.656c0.572,0,1.053-0.219,1.441-0.656c0.387-0.438,0.582-1.074,0.582-1.906c0-0.812-0.195-1.438-0.582-1.875
			c-0.389-0.438-0.869-0.656-1.441-0.656c-0.574,0-1.055,0.219-1.445,0.656S72.44,82.628,72.44,83.452z"/>
		<path fill="#F7EBCB" d="M82.573,87.601h-2.195v-8.297h2.039v1.18c0.348-0.559,0.662-0.926,0.941-1.102
			c0.277-0.178,0.594-0.266,0.949-0.266c0.5,0,0.98,0.137,1.445,0.414l-0.68,1.914c-0.371-0.24-0.715-0.359-1.031-0.359
			c-0.309,0-0.568,0.084-0.781,0.254c-0.215,0.168-0.383,0.475-0.504,0.918c-0.123,0.441-0.184,1.369-0.184,2.781V87.601z"/>
		<path fill="#F7EBCB" d="M90.503,79.304v1.75h-1.5v3.344c0,0.676,0.014,1.07,0.043,1.184c0.027,0.111,0.094,0.203,0.195,0.277
			c0.102,0.072,0.225,0.109,0.371,0.109c0.203,0,0.496-0.07,0.883-0.211l0.188,1.703c-0.512,0.219-1.09,0.328-1.734,0.328
			c-0.396,0-0.754-0.066-1.07-0.199c-0.318-0.133-0.551-0.305-0.699-0.516s-0.252-0.496-0.309-0.855
			c-0.047-0.256-0.07-0.771-0.07-1.547v-3.617h-1.008v-1.75H86.8v-1.648l2.203-1.281v2.93H90.503z"/>
		<path fill="#F7EBCB" d="M93.667,81.835l-1.992-0.359c0.223-0.803,0.609-1.396,1.156-1.781c0.547-0.387,1.359-0.578,2.438-0.578
			c0.979,0,1.707,0.115,2.188,0.348c0.479,0.23,0.816,0.525,1.012,0.883c0.195,0.355,0.293,1.012,0.293,1.965l-0.023,2.562
			c0,0.729,0.035,1.266,0.105,1.613c0.07,0.346,0.201,0.717,0.395,1.113h-2.172c-0.059-0.146-0.129-0.363-0.211-0.648
			c-0.037-0.131-0.062-0.217-0.078-0.258c-0.375,0.363-0.777,0.637-1.203,0.82c-0.428,0.182-0.883,0.273-1.367,0.273
			c-0.855,0-1.527-0.232-2.02-0.695c-0.492-0.465-0.738-1.051-0.738-1.758c0-0.469,0.111-0.887,0.336-1.254
			c0.223-0.367,0.537-0.648,0.941-0.844c0.402-0.195,0.984-0.367,1.746-0.512c1.025-0.193,1.736-0.373,2.133-0.539v-0.219
			c0-0.422-0.105-0.723-0.312-0.902c-0.209-0.18-0.602-0.27-1.18-0.27c-0.391,0-0.695,0.076-0.914,0.23
			C93.979,81.179,93.802,81.448,93.667,81.835z M96.604,83.616c-0.281,0.094-0.727,0.205-1.336,0.336
			c-0.609,0.129-1.008,0.258-1.195,0.383c-0.287,0.203-0.43,0.461-0.43,0.773c0,0.307,0.113,0.572,0.344,0.797
			c0.229,0.223,0.52,0.336,0.875,0.336c0.395,0,0.773-0.131,1.133-0.391c0.266-0.199,0.439-0.441,0.523-0.727
			c0.057-0.188,0.086-0.545,0.086-1.07V83.616z"/>
		<path fill="#F7EBCB" d="M108.472,87.601h-2.195v-4.234c0-0.896-0.047-1.477-0.141-1.738c-0.094-0.264-0.246-0.469-0.457-0.613
			c-0.211-0.146-0.465-0.219-0.762-0.219c-0.381,0-0.723,0.104-1.023,0.312c-0.303,0.207-0.51,0.484-0.621,0.828
			c-0.113,0.344-0.168,0.979-0.168,1.906v3.758h-2.195v-8.297h2.039v1.219c0.723-0.938,1.635-1.406,2.734-1.406
			c0.484,0,0.926,0.086,1.328,0.262c0.4,0.174,0.703,0.396,0.91,0.668c0.205,0.27,0.348,0.578,0.43,0.922
			c0.08,0.344,0.121,0.836,0.121,1.477V87.601z"/>
		<path fill="#F7EBCB" d="M117.425,87.601l-3.344-8.297h2.305l1.562,4.234l0.453,1.414c0.119-0.359,0.195-0.598,0.227-0.711
			c0.072-0.234,0.15-0.469,0.234-0.703l1.578-4.234h2.258l-3.297,8.297H117.425z"/>
		<path fill="#F7EBCB" d="M125.683,81.835l-1.992-0.359c0.223-0.803,0.609-1.396,1.156-1.781c0.547-0.387,1.359-0.578,2.438-0.578
			c0.979,0,1.707,0.115,2.188,0.348c0.479,0.23,0.816,0.525,1.012,0.883c0.195,0.355,0.293,1.012,0.293,1.965l-0.023,2.562
			c0,0.729,0.035,1.266,0.105,1.613c0.07,0.346,0.201,0.717,0.395,1.113h-2.172c-0.059-0.146-0.129-0.363-0.211-0.648
			c-0.037-0.131-0.062-0.217-0.078-0.258c-0.375,0.363-0.777,0.637-1.203,0.82c-0.428,0.182-0.883,0.273-1.367,0.273
			c-0.855,0-1.527-0.232-2.02-0.695c-0.492-0.465-0.738-1.051-0.738-1.758c0-0.469,0.111-0.887,0.336-1.254
			c0.223-0.367,0.537-0.648,0.941-0.844c0.402-0.195,0.984-0.367,1.746-0.512c1.025-0.193,1.736-0.373,2.133-0.539v-0.219
			c0-0.422-0.105-0.723-0.312-0.902c-0.209-0.18-0.602-0.27-1.18-0.27c-0.391,0-0.695,0.076-0.914,0.23
			C125.995,81.179,125.817,81.448,125.683,81.835z M128.62,83.616c-0.281,0.094-0.727,0.205-1.336,0.336
			c-0.609,0.129-1.008,0.258-1.195,0.383c-0.287,0.203-0.43,0.461-0.43,0.773c0,0.307,0.113,0.572,0.344,0.797
			c0.229,0.223,0.52,0.336,0.875,0.336c0.395,0,0.773-0.131,1.133-0.391c0.266-0.199,0.439-0.441,0.523-0.727
			c0.057-0.188,0.086-0.545,0.086-1.07V83.616z"/>
		<path fill="#F7EBCB" d="M132.94,87.601V76.147h2.195v11.453H132.94z"/>
		<path fill="#F7EBCB" d="M136.878,83.335c0-0.73,0.18-1.436,0.539-2.117c0.359-0.684,0.867-1.203,1.527-1.562
			c0.658-0.359,1.395-0.539,2.207-0.539c1.254,0,2.283,0.406,3.086,1.223c0.801,0.814,1.203,1.844,1.203,3.09
			c0,1.254-0.406,2.295-1.215,3.121c-0.811,0.824-1.83,1.238-3.059,1.238c-0.762,0-1.486-0.172-2.176-0.516
			c-0.691-0.344-1.215-0.848-1.574-1.512S136.878,84.288,136.878,83.335z M139.128,83.452c0,0.822,0.195,1.453,0.586,1.891
			s0.871,0.656,1.445,0.656c0.572,0,1.053-0.219,1.441-0.656c0.387-0.438,0.582-1.074,0.582-1.906c0-0.812-0.195-1.438-0.582-1.875
			c-0.389-0.438-0.869-0.656-1.441-0.656c-0.574,0-1.055,0.219-1.445,0.656S139.128,82.628,139.128,83.452z"/>
		<path fill="#F7EBCB" d="M149.261,87.601h-2.195v-8.297h2.039v1.18c0.348-0.559,0.662-0.926,0.941-1.102
			c0.277-0.178,0.594-0.266,0.949-0.266c0.5,0,0.98,0.137,1.445,0.414l-0.68,1.914c-0.371-0.24-0.715-0.359-1.031-0.359
			c-0.309,0-0.568,0.084-0.781,0.254c-0.215,0.168-0.383,0.475-0.504,0.918c-0.123,0.441-0.184,1.369-0.184,2.781V87.601z"/>
	</g>
	<g>
		<path fill="#F7EBCB" d="M52.058,118.165v-11.453h7.852v1.938H54.37v2.711h4.781v1.938H54.37v4.867H52.058z"/>
		<path fill="#F7EBCB" d="M61.8,118.165v-11.453h2.195v11.453H61.8z"/>
		<path fill="#F7EBCB" d="M71.706,118.165v-1.242c-0.303,0.443-0.699,0.793-1.191,1.047c-0.492,0.256-1.012,0.383-1.559,0.383
			c-0.559,0-1.059-0.121-1.5-0.367c-0.443-0.244-0.764-0.588-0.961-1.031c-0.199-0.441-0.297-1.055-0.297-1.836v-5.25h2.195v3.812
			c0,1.168,0.039,1.883,0.121,2.145c0.08,0.264,0.227,0.473,0.441,0.625c0.213,0.154,0.484,0.23,0.812,0.23
			c0.375,0,0.711-0.102,1.008-0.309c0.297-0.205,0.5-0.461,0.609-0.766s0.164-1.051,0.164-2.238v-3.5h2.195v8.297H71.706z"/>
		<path fill="#F7EBCB" d="M78.167,109.868v8.039c0,1.059-0.07,1.805-0.207,2.238c-0.139,0.436-0.404,0.775-0.797,1.02
			c-0.395,0.246-0.895,0.367-1.504,0.367c-0.219,0-0.455-0.02-0.707-0.059c-0.254-0.039-0.525-0.098-0.816-0.176l0.383-1.875
			c0.104,0.021,0.201,0.039,0.293,0.051c0.09,0.014,0.176,0.02,0.254,0.02c0.223,0,0.406-0.047,0.551-0.145
			c0.143-0.096,0.238-0.211,0.285-0.348c0.047-0.135,0.07-0.541,0.07-1.219v-7.914H78.167z M75.972,108.743v-2.031h2.195v2.031
			H75.972z"/>
		<path fill="#F7EBCB" d="M79.956,113.899c0-0.729,0.18-1.434,0.539-2.117c0.359-0.682,0.867-1.203,1.527-1.562
			c0.658-0.359,1.395-0.539,2.207-0.539c1.254,0,2.283,0.408,3.086,1.223c0.801,0.816,1.203,1.846,1.203,3.09
			c0,1.256-0.406,2.297-1.215,3.121c-0.811,0.826-1.83,1.238-3.059,1.238c-0.762,0-1.486-0.172-2.176-0.516
			c-0.691-0.344-1.215-0.848-1.574-1.512S79.956,114.853,79.956,113.899z M82.206,114.017c0,0.824,0.195,1.453,0.586,1.891
			s0.871,0.656,1.445,0.656c0.572,0,1.053-0.219,1.441-0.656c0.387-0.438,0.582-1.072,0.582-1.906c0-0.812-0.195-1.438-0.582-1.875
			c-0.389-0.438-0.869-0.656-1.441-0.656c-0.574,0-1.055,0.219-1.445,0.656S82.206,113.194,82.206,114.017z"/>
		<path fill="#F7EBCB" d="M102.292,118.165h-2.039v-1.219c-0.34,0.475-0.738,0.828-1.199,1.059
			c-0.461,0.232-0.926,0.348-1.395,0.348c-0.953,0-1.77-0.383-2.449-1.152c-0.68-0.768-1.02-1.84-1.02-3.215
			c0-1.406,0.33-2.475,0.992-3.207c0.66-0.73,1.496-1.098,2.508-1.098c0.926,0,1.729,0.387,2.406,1.156v-4.125h2.195V118.165z
			 M96.433,113.837c0,0.887,0.121,1.527,0.367,1.922c0.354,0.574,0.848,0.859,1.484,0.859c0.504,0,0.934-0.215,1.289-0.645
			c0.354-0.43,0.531-1.07,0.531-1.926c0-0.953-0.172-1.639-0.516-2.059c-0.344-0.418-0.785-0.629-1.32-0.629
			c-0.521,0-0.957,0.207-1.309,0.621S96.433,113.015,96.433,113.837z"/>
		<path fill="#F7EBCB" d="M109.261,115.524l2.188,0.367c-0.281,0.803-0.727,1.414-1.332,1.832c-0.607,0.42-1.367,0.629-2.277,0.629
			c-1.443,0-2.512-0.471-3.203-1.414c-0.547-0.754-0.82-1.707-0.82-2.859c0-1.375,0.359-2.451,1.078-3.23
			c0.719-0.777,1.627-1.168,2.727-1.168c1.234,0,2.207,0.408,2.922,1.223c0.713,0.816,1.055,2.064,1.023,3.746h-5.5
			c0.016,0.652,0.191,1.158,0.531,1.52c0.338,0.363,0.76,0.543,1.266,0.543c0.344,0,0.633-0.094,0.867-0.281
			S109.14,115.942,109.261,115.524z M109.386,113.306c-0.016-0.635-0.18-1.117-0.492-1.449c-0.312-0.33-0.693-0.496-1.141-0.496
			c-0.48,0-0.875,0.176-1.188,0.523c-0.312,0.35-0.467,0.824-0.461,1.422H109.386z"/>
		<path fill="#F7EBCB" d="M52.026,127.944v-2.031h2.195v2.031H52.026z M52.026,137.366v-8.297h2.195v8.297H52.026z"/>
		<path fill="#F7EBCB" d="M64.019,137.366h-2.195v-4.234c0-0.896-0.047-1.477-0.141-1.738c-0.094-0.264-0.246-0.469-0.457-0.613
			c-0.211-0.146-0.465-0.219-0.762-0.219c-0.381,0-0.723,0.104-1.023,0.312c-0.303,0.207-0.51,0.484-0.621,0.828
			c-0.113,0.344-0.168,0.979-0.168,1.906v3.758h-2.195v-8.297h2.039v1.219c0.723-0.938,1.635-1.406,2.734-1.406
			c0.484,0,0.926,0.086,1.328,0.262c0.4,0.174,0.703,0.396,0.91,0.668c0.205,0.27,0.348,0.578,0.43,0.922
			c0.08,0.344,0.121,0.836,0.121,1.477V137.366z"/>
		<path fill="#F7EBCB" d="M65.284,129.069h1.219v-0.625c0-0.699,0.074-1.219,0.223-1.562s0.422-0.625,0.82-0.84
			c0.398-0.217,0.902-0.324,1.512-0.324c0.625,0,1.236,0.094,1.836,0.281l-0.297,1.531c-0.35-0.084-0.686-0.125-1.008-0.125
			c-0.318,0-0.547,0.074-0.684,0.223c-0.139,0.148-0.207,0.434-0.207,0.855v0.586h1.641v1.727h-1.641v6.57h-2.195v-6.57h-1.219
			V129.069z"/>
		<path fill="#F7EBCB" d="M71.065,133.101c0-0.73,0.18-1.436,0.539-2.117c0.359-0.684,0.867-1.203,1.527-1.562
			c0.658-0.359,1.395-0.539,2.207-0.539c1.254,0,2.283,0.406,3.086,1.223c0.801,0.814,1.203,1.844,1.203,3.09
			c0,1.254-0.406,2.295-1.215,3.121c-0.811,0.824-1.83,1.238-3.059,1.238c-0.762,0-1.486-0.172-2.176-0.516
			c-0.691-0.344-1.215-0.848-1.574-1.512S71.065,134.054,71.065,133.101z M73.315,133.218c0,0.822,0.195,1.453,0.586,1.891
			s0.871,0.656,1.445,0.656c0.572,0,1.053-0.219,1.441-0.656c0.387-0.438,0.582-1.074,0.582-1.906c0-0.812-0.195-1.438-0.582-1.875
			c-0.389-0.438-0.869-0.656-1.441-0.656c-0.574,0-1.055,0.219-1.445,0.656S73.315,132.394,73.315,133.218z"/>
		<path fill="#F7EBCB" d="M83.448,137.366h-2.195v-8.297h2.039v1.18c0.348-0.559,0.662-0.926,0.941-1.102
			c0.277-0.178,0.594-0.266,0.949-0.266c0.5,0,0.98,0.137,1.445,0.414l-0.68,1.914c-0.371-0.24-0.715-0.359-1.031-0.359
			c-0.309,0-0.568,0.084-0.781,0.254c-0.215,0.168-0.383,0.475-0.504,0.918c-0.123,0.441-0.184,1.369-0.184,2.781V137.366z"/>
		<path fill="#F7EBCB" d="M87.409,129.069h2.023v1.133c0.723-0.881,1.586-1.32,2.586-1.32c0.531,0,0.992,0.109,1.383,0.328
			s0.711,0.549,0.961,0.992c0.363-0.443,0.758-0.773,1.18-0.992s0.871-0.328,1.352-0.328c0.609,0,1.125,0.123,1.547,0.371
			c0.422,0.246,0.736,0.609,0.945,1.09c0.15,0.354,0.227,0.926,0.227,1.719v5.305h-2.195v-4.742c0-0.824-0.076-1.355-0.227-1.594
			c-0.203-0.312-0.516-0.469-0.938-0.469c-0.309,0-0.598,0.094-0.867,0.281c-0.271,0.188-0.467,0.461-0.586,0.824
			c-0.121,0.361-0.18,0.934-0.18,1.715v3.984h-2.195v-4.547c0-0.809-0.039-1.328-0.117-1.562s-0.199-0.41-0.363-0.523
			c-0.164-0.115-0.387-0.172-0.668-0.172c-0.34,0-0.645,0.09-0.914,0.273c-0.271,0.182-0.465,0.445-0.582,0.789
			s-0.176,0.914-0.176,1.711v4.031h-2.195V129.069z"/>
		<path fill="#F7EBCB" d="M103.44,131.601l-1.992-0.359c0.223-0.803,0.609-1.396,1.156-1.781c0.547-0.387,1.359-0.578,2.438-0.578
			c0.979,0,1.707,0.115,2.188,0.348c0.479,0.23,0.816,0.525,1.012,0.883c0.195,0.355,0.293,1.012,0.293,1.965l-0.023,2.562
			c0,0.729,0.035,1.266,0.105,1.613c0.07,0.346,0.201,0.717,0.395,1.113h-2.172c-0.059-0.146-0.129-0.363-0.211-0.648
			c-0.037-0.131-0.062-0.217-0.078-0.258c-0.375,0.363-0.777,0.637-1.203,0.82c-0.428,0.182-0.883,0.273-1.367,0.273
			c-0.855,0-1.527-0.232-2.02-0.695c-0.492-0.465-0.738-1.051-0.738-1.758c0-0.469,0.111-0.887,0.336-1.254
			c0.223-0.367,0.537-0.648,0.941-0.844c0.402-0.195,0.984-0.367,1.746-0.512c1.025-0.193,1.736-0.373,2.133-0.539v-0.219
			c0-0.422-0.105-0.723-0.312-0.902c-0.209-0.18-0.602-0.27-1.18-0.27c-0.391,0-0.695,0.076-0.914,0.23
			C103.753,130.944,103.575,131.214,103.44,131.601z M106.378,133.382c-0.281,0.094-0.727,0.205-1.336,0.336
			c-0.609,0.129-1.008,0.258-1.195,0.383c-0.287,0.203-0.43,0.461-0.43,0.773c0,0.307,0.113,0.572,0.344,0.797
			c0.229,0.223,0.52,0.336,0.875,0.336c0.395,0,0.773-0.131,1.133-0.391c0.266-0.199,0.439-0.441,0.523-0.727
			c0.057-0.188,0.086-0.545,0.086-1.07V133.382z"/>
		<path fill="#F7EBCB" d="M117.933,131.522l-2.164,0.391c-0.074-0.434-0.238-0.758-0.496-0.977s-0.594-0.328-1.004-0.328
			c-0.547,0-0.984,0.188-1.309,0.566c-0.326,0.377-0.488,1.008-0.488,1.895c0,0.984,0.164,1.68,0.496,2.086
			c0.33,0.406,0.773,0.609,1.332,0.609c0.416,0,0.758-0.119,1.023-0.355c0.266-0.238,0.453-0.645,0.562-1.223l2.156,0.367
			c-0.225,0.988-0.654,1.736-1.289,2.242c-0.637,0.504-1.488,0.758-2.555,0.758c-1.215,0-2.182-0.383-2.902-1.148
			c-0.723-0.766-1.082-1.826-1.082-3.18c0-1.371,0.361-2.438,1.086-3.199c0.723-0.764,1.703-1.145,2.938-1.145
			c1.01,0,1.812,0.217,2.41,0.652C117.243,129.968,117.671,130.632,117.933,131.522z"/>
		<path fill="#F7EBCB" d="M119.597,127.944v-2.031h2.195v2.031H119.597z M119.597,137.366v-8.297h2.195v8.297H119.597z"/>
		<path fill="#F7EBCB" d="M123.534,133.101c0-0.73,0.18-1.436,0.539-2.117c0.359-0.684,0.867-1.203,1.527-1.562
			c0.658-0.359,1.395-0.539,2.207-0.539c1.254,0,2.283,0.406,3.086,1.223c0.801,0.814,1.203,1.844,1.203,3.09
			c0,1.254-0.406,2.295-1.215,3.121c-0.811,0.824-1.83,1.238-3.059,1.238c-0.762,0-1.486-0.172-2.176-0.516
			c-0.691-0.344-1.215-0.848-1.574-1.512S123.534,134.054,123.534,133.101z M125.784,133.218c0,0.822,0.195,1.453,0.586,1.891
			s0.871,0.656,1.445,0.656c0.572,0,1.053-0.219,1.441-0.656c0.387-0.438,0.582-1.074,0.582-1.906c0-0.812-0.195-1.438-0.582-1.875
			c-0.389-0.438-0.869-0.656-1.441-0.656c-0.574,0-1.055,0.219-1.445,0.656S125.784,132.394,125.784,133.218z M126.706,128.054
			l1.078-2.336h2.461l-2.148,2.336H126.706z"/>
		<path fill="#F7EBCB" d="M141.362,137.366h-2.195v-4.234c0-0.896-0.047-1.477-0.141-1.738c-0.094-0.264-0.246-0.469-0.457-0.613
			c-0.211-0.146-0.465-0.219-0.762-0.219c-0.381,0-0.723,0.104-1.023,0.312c-0.303,0.207-0.51,0.484-0.621,0.828
			c-0.113,0.344-0.168,0.979-0.168,1.906v3.758H133.8v-8.297h2.039v1.219c0.723-0.938,1.635-1.406,2.734-1.406
			c0.484,0,0.926,0.086,1.328,0.262c0.4,0.174,0.703,0.396,0.91,0.668c0.205,0.27,0.348,0.578,0.43,0.922
			c0.08,0.344,0.121,0.836,0.121,1.477V137.366z"/>
	</g>
</g>
</svg>
