<?xml version="1.0" encoding="utf-8"?>
<!-- Generator: Adobe Illustrator 16.0.0, SVG Export Plug-In . SVG Version: 6.00 Build 0)  -->
<!DOCTYPE svg PUBLIC "-//W3C//DTD SVG 1.1//EN" "http://www.w3.org/Graphics/SVG/1.1/DTD/svg11.dtd">
<svg version="1.1" id="Layer_1" xmlns="http://www.w3.org/2000/svg" xmlns:xlink="http://www.w3.org/1999/xlink" x="0px" y="0px"
	 width="185.397px" height="298.625px" viewBox="0 0 185.397 298.625" enable-background="new 0 0 185.397 298.625"
	 xml:space="preserve">
<g id="XMLID_12756_">
	<path id="XMLID_12939_" fill="#F7EBCB" d="M180.023,107.504l-0.358-0.848c1.227-2.771,1.145-2.855,0.907-3.096l-1.567-1.529
		l-0.156-0.132h-0.181c-0.095,0-0.381,0-2.763,1.08l-0.876-0.353c-1.134-2.809-1.248-2.809-1.581-2.809h-2.209
		c-0.332,0-0.46,0-1.51,2.818l-0.874,0.354c-1.608-0.679-2.553-1.023-2.808-1.023l-0.209,0.008l-1.685,1.65
		c-0.256,0.241-0.345,0.326,0.952,3.054l-0.358,0.848c-2.868,1.107-2.868,1.216-2.868,1.556v2.166c0,0.34,0,0.46,2.879,1.492
		l0.356,0.844c-1.227,2.77-1.145,2.854-0.905,3.091l1.565,1.534l0.155,0.134h0.183c0.095,0,0.377,0,2.763-1.084l0.873,0.356
		c1.135,2.807,1.251,2.807,1.583,2.807h2.21c0.339,0,0.458,0,1.512-2.816l0.877-0.355c1.607,0.681,2.549,1.025,2.801,1.025
		l0.213-0.006l1.697-1.664c0.24-0.242,0.326-0.326-0.963-3.044l0.354-0.846c2.872-1.111,2.872-1.229,2.872-1.559v-2.165
		C182.905,108.65,182.905,108.531,180.023,107.504L180.023,107.504z M172.392,113.725c-2.025,0-3.676-1.617-3.676-3.606
		c0-1.986,1.65-3.603,3.676-3.603s3.673,1.616,3.673,3.603C176.064,112.107,174.417,113.725,172.392,113.725L172.392,113.725z
		 M172.392,113.725"/>
	<path id="XMLID_12935_" fill="#F7EBCB" d="M175.097,54.425l-0.127-0.301c0.435-0.982,0.405-1.012,0.321-1.097l-0.555-0.542
		l-0.056-0.047h-0.064c-0.033,0-0.135,0-0.979,0.383l-0.311-0.125c-0.402-0.995-0.442-0.995-0.561-0.995h-0.783
		c-0.117,0-0.162,0-0.535,0.998l-0.31,0.126c-0.569-0.241-0.904-0.363-0.995-0.363l-0.074,0.003l-0.597,0.585
		c-0.091,0.086-0.122,0.116,0.337,1.082l-0.127,0.301c-1.016,0.393-1.016,0.431-1.016,0.551v0.769c0,0.12,0,0.162,1.021,0.528
		l0.126,0.299c-0.435,0.981-0.405,1.011-0.321,1.095l0.556,0.544l0.055,0.048h0.064c0.034,0,0.134,0,0.979-0.384l0.31,0.126
		c0.401,0.994,0.443,0.994,0.561,0.994h0.783c0.12,0,0.162,0,0.535-0.997l0.312-0.127c0.569,0.241,0.903,0.364,0.993,0.364
		l0.074-0.002l0.602-0.59c0.086-0.086,0.115-0.116-0.341-1.079l0.126-0.3c1.018-0.395,1.018-0.436,1.018-0.553v-0.767
		C176.118,54.831,176.118,54.789,175.097,54.425L175.097,54.425z M172.393,56.629c-0.718,0-1.303-0.573-1.303-1.278
		c0-0.704,0.585-1.276,1.303-1.276c0.717,0,1.301,0.572,1.301,1.276C173.693,56.056,173.109,56.629,172.393,56.629L172.393,56.629z
		 M172.393,56.629"/>
	<path id="XMLID_12931_" fill="#F7EBCB" d="M184.376,93.76l-0.127-0.301c0.436-0.982,0.406-1.012,0.322-1.098l-0.556-0.541
		l-0.056-0.047h-0.064c-0.033,0-0.135,0-0.979,0.383l-0.311-0.125c-0.401-0.996-0.442-0.996-0.561-0.996h-0.783
		c-0.117,0-0.162,0-0.535,0.999l-0.309,0.126c-0.57-0.241-0.905-0.363-0.995-0.363L179.35,91.8l-0.597,0.585
		c-0.091,0.085-0.123,0.115,0.337,1.082l-0.126,0.301c-1.018,0.393-1.018,0.431-1.018,0.551v0.768c0,0.121,0,0.163,1.021,0.529
		l0.126,0.299c-0.435,0.981-0.405,1.011-0.32,1.096l0.555,0.543l0.055,0.048h0.064c0.034,0,0.134,0,0.979-0.385l0.31,0.127
		c0.402,0.994,0.443,0.994,0.561,0.994h0.783c0.121,0,0.162,0,0.536-0.998l0.311-0.126c0.569,0.241,0.903,0.363,0.993,0.363
		l0.074-0.002l0.602-0.59c0.086-0.086,0.116-0.115-0.34-1.078l0.125-0.3c1.018-0.394,1.018-0.436,1.018-0.553v-0.767
		C185.397,94.166,185.397,94.123,184.376,93.76L184.376,93.76z M181.672,95.964c-0.718,0-1.303-0.573-1.303-1.278
		c0-0.704,0.585-1.276,1.303-1.276s1.302,0.572,1.302,1.276C182.974,95.391,182.39,95.964,181.672,95.964L181.672,95.964z
		 M181.672,95.964"/>
	<path id="XMLID_12927_" fill="#F7EBCB" d="M176.926,126.173l-0.128-0.3c0.436-0.982,0.406-1.012,0.322-1.098l-0.556-0.542
		l-0.056-0.047h-0.064c-0.033,0-0.135,0-0.979,0.383l-0.311-0.124c-0.401-0.996-0.442-0.996-0.561-0.996h-0.782
		c-0.118,0-0.163,0-0.535,0.998l-0.31,0.126c-0.57-0.24-0.905-0.362-0.995-0.362l-0.074,0.002l-0.597,0.586
		c-0.091,0.085-0.123,0.115,0.337,1.082l-0.127,0.3c-1.017,0.393-1.017,0.431-1.017,0.552v0.768c0,0.12,0,0.163,1.021,0.528
		l0.126,0.3c-0.435,0.98-0.406,1.011-0.321,1.095l0.555,0.544l0.055,0.047h0.065c0.033,0,0.133,0,0.979-0.384l0.31,0.126
		c0.402,0.995,0.443,0.995,0.561,0.995h0.783c0.121,0,0.163,0,0.536-0.998l0.312-0.126c0.568,0.241,0.902,0.363,0.992,0.363
		l0.075-0.002l0.602-0.59c0.085-0.086,0.115-0.115-0.341-1.079l0.125-0.3c1.018-0.394,1.018-0.436,1.018-0.552V126.7
		C177.946,126.579,177.946,126.537,176.926,126.173L176.926,126.173z M174.221,128.377c-0.718,0-1.302-0.572-1.302-1.277
		c0-0.704,0.584-1.277,1.302-1.277s1.302,0.573,1.302,1.277C175.522,127.805,174.938,128.377,174.221,128.377L174.221,128.377z
		 M174.221,128.377"/>
	<path id="XMLID_12923_" fill="#F7EBCB" d="M166.668,146.979l-0.127-0.3c0.435-0.982,0.405-1.012,0.321-1.098l-0.555-0.542
		l-0.056-0.047h-0.064c-0.034,0-0.135,0-0.979,0.383l-0.31-0.124c-0.402-0.996-0.442-0.996-0.56-0.996h-0.784
		c-0.117,0-0.163,0-0.535,0.999l-0.31,0.125c-0.57-0.24-0.904-0.362-0.994-0.362l-0.074,0.003l-0.598,0.585
		c-0.09,0.085-0.122,0.115,0.338,1.082l-0.127,0.3c-1.017,0.393-1.017,0.432-1.017,0.552v0.768c0,0.12,0,0.163,1.021,0.528
		l0.126,0.3c-0.435,0.981-0.405,1.011-0.321,1.095l0.556,0.544l0.055,0.048h0.064c0.034,0,0.134,0,0.979-0.385l0.31,0.127
		c0.401,0.994,0.442,0.994,0.561,0.994h0.783c0.12,0,0.162,0,0.536-0.998l0.311-0.126c0.569,0.241,0.903,0.363,0.992,0.363
		l0.076-0.002l0.602-0.59c0.085-0.086,0.115-0.115-0.342-1.079l0.125-0.299c1.019-0.395,1.019-0.436,1.019-0.553v-0.768
		C167.689,147.385,167.689,147.343,166.668,146.979L166.668,146.979z M163.963,149.184c-0.718,0-1.302-0.573-1.302-1.278
		c0-0.704,0.584-1.276,1.302-1.276s1.303,0.572,1.303,1.276C165.266,148.61,164.681,149.184,163.963,149.184L163.963,149.184z
		 M163.963,149.184"/>
	<path id="XMLID_12919_" fill="#31A6AE" d="M155.856,121.812l-1.471-3.481c5.035-11.383,4.7-11.727,3.725-12.715l-6.436-6.278
		l-0.643-0.542h-0.745c-0.39,0-1.562,0-11.346,4.435l-3.595-1.447c-4.655-11.534-5.127-11.534-6.492-11.534h-9.073
		c-1.363,0-1.891,0-6.202,11.571l-3.587,1.455c-6.606-2.787-10.485-4.205-11.529-4.205l-0.86,0.031l-6.918,6.779
		c-1.051,0.991-1.418,1.343,3.908,12.542l-1.471,3.48c-11.777,4.549-11.777,4.992-11.777,6.387v8.897c0,1.395,0,1.89,11.822,6.126
		l1.463,3.466c-5.035,11.375-4.7,11.719-3.717,12.693l6.43,6.3l0.641,0.551h0.746c0.389,0,1.547,0,11.344-4.451l3.589,1.463
		c4.656,11.527,5.136,11.527,6.499,11.527h9.076c1.394,0,1.882,0,6.207-11.564l3.605-1.463c6.598,2.795,10.468,4.213,11.503,4.213
		l0.87-0.023l6.971-6.834c0.991-0.997,1.34-1.34-3.953-12.502l1.454-3.475c11.795-4.563,11.795-5.043,11.795-6.399v-8.892
		C167.689,126.52,167.689,126.032,155.856,121.812L155.856,121.812z M124.513,147.357c-8.32,0-15.092-6.643-15.092-14.811
		c0-8.159,6.771-14.797,15.092-14.797c8.318,0,15.084,6.638,15.084,14.797C139.597,140.715,132.831,147.357,124.513,147.357
		L124.513,147.357z M124.513,147.357"/>
	<path id="XMLID_12915_" fill="#F7EBCB" d="M137.792,32.996l-1.471-3.481c5.036-11.383,4.7-11.726,3.725-12.715l-6.436-6.278
		l-0.642-0.542h-0.745c-0.391,0-1.562,0-11.346,4.435l-3.595-1.446c-4.656-11.535-5.128-11.535-6.493-11.535h-9.073
		c-1.363,0-1.89,0-6.202,11.571l-3.587,1.455c-6.606-2.787-10.485-4.205-11.528-4.205l-0.861,0.031l-6.918,6.78
		c-1.051,0.99-1.418,1.342,3.909,12.541l-1.471,3.481C63.28,37.637,63.28,38.079,63.28,39.474v8.897c0,1.395,0,1.891,11.823,6.127
		l1.463,3.466c-5.036,11.374-4.7,11.718-3.718,12.692l6.431,6.301l0.64,0.55h0.747c0.388,0,1.547,0,11.344-4.451l3.589,1.463
		c4.655,11.527,5.135,11.527,6.498,11.527h9.076c1.395,0,1.882,0,6.208-11.564l3.604-1.463c6.598,2.795,10.468,4.213,11.504,4.213
		l0.869-0.022l6.971-6.835c0.991-0.997,1.34-1.34-3.953-12.502l1.455-3.474c11.794-4.564,11.794-5.044,11.794-6.399v-8.892
		C149.625,37.704,149.625,37.217,137.792,32.996L137.792,32.996z M106.448,58.543c-8.32,0-15.092-6.644-15.092-14.812
		c0-8.159,6.771-14.796,15.092-14.796c8.319,0,15.085,6.637,15.085,14.796C121.533,51.899,114.768,58.543,106.448,58.543
		L106.448,58.543z M106.448,58.543"/>
	<path id="XMLID_12911_" fill="#F7EBCB" d="M70.711,95.273l-1.342-3.178c4.597-10.393,4.291-10.706,3.4-11.609l-5.876-5.731
		l-0.586-0.495h-0.681c-0.355,0-1.426,0-10.357,4.049l-3.282-1.32c-4.25-10.531-4.682-10.531-5.928-10.531h-8.284
		c-1.245,0-1.726,0-5.662,10.564l-3.274,1.328c-6.031-2.544-9.573-3.839-10.526-3.839l-0.785,0.028l-6.316,6.189
		c-0.959,0.905-1.294,1.226,3.569,11.45l-1.343,3.179c-10.754,4.152-10.754,4.557-10.754,5.83v8.123c0,1.273,0,1.726,10.794,5.594
		l1.336,3.164c-4.598,10.385-4.291,10.698-3.394,11.589l5.87,5.751l0.584,0.503h0.683c0.354,0,1.412,0,10.356-4.063l3.276,1.335
		c4.251,10.524,4.688,10.524,5.934,10.524h8.285c1.273,0,1.719,0,5.668-10.559l3.291-1.335c6.024,2.552,9.558,3.847,10.503,3.847
		l0.794-0.021l6.364-6.24c0.904-0.909,1.223-1.223-3.609-11.414l1.328-3.171c10.768-4.167,10.768-4.604,10.768-5.843v-8.118
		C81.515,99.572,81.515,99.127,70.711,95.273L70.711,95.273z M42.096,118.598c-7.597,0-13.778-6.065-13.778-13.523
		c0-7.448,6.182-13.508,13.778-13.508c7.595,0,13.772,6.06,13.772,13.508C55.868,112.532,49.69,118.598,42.096,118.598
		L42.096,118.598z M42.096,118.598"/>
	<path id="XMLID_12907_" fill="#599C5B" d="M81.198,168.719l-0.84-1.991c2.879-6.508,2.688-6.704,2.13-7.27l-3.681-3.59l-0.367-0.31
		h-0.426c-0.223,0-0.893,0-6.486,2.535l-2.056-0.827c-2.662-6.595-2.932-6.595-3.713-6.595h-5.188c-0.779,0-1.081,0-3.546,6.616
		l-2.051,0.831c-3.777-1.593-5.996-2.404-6.592-2.404l-0.492,0.018l-3.955,3.877c-0.602,0.566-0.812,0.768,2.234,7.171l-0.841,1.99
		c-6.735,2.601-6.735,2.854-6.735,3.651v5.088c0,0.797,0,1.08,6.761,3.502l0.837,1.982c-2.88,6.504-2.688,6.699-2.126,7.258
		l3.677,3.602l0.365,0.314h0.428c0.223,0,0.885,0,6.486-2.545l2.052,0.836c2.662,6.592,2.937,6.592,3.716,6.592h5.188
		c0.798,0,1.076,0,3.55-6.612l2.061-0.837c3.772,1.599,5.985,2.409,6.578,2.409l0.497-0.013l3.985-3.908
		c0.566-0.57,0.767-0.766-2.26-7.148l0.832-1.986c6.743-2.609,6.743-2.884,6.743-3.658v-5.085
		C87.965,171.41,87.965,171.132,81.198,168.719L81.198,168.719z M63.277,183.325c-4.757,0-8.629-3.799-8.629-8.469
		c0-4.665,3.872-8.46,8.629-8.46s8.625,3.795,8.625,8.46C71.902,179.526,68.034,183.325,63.277,183.325L63.277,183.325z
		 M63.277,183.325"/>
	<path id="XMLID_12903_" fill="#F7974A" d="M176.247,71.713l-0.674-1.597c2.309-5.218,2.154-5.376,1.707-5.829l-2.95-2.878
		l-0.294-0.249h-0.342c-0.179,0-0.716,0-5.201,2.033l-1.648-0.663c-2.135-5.288-2.351-5.288-2.977-5.288h-4.159
		c-0.625,0-0.866,0-2.844,5.305l-1.644,0.667c-3.029-1.277-4.808-1.928-5.286-1.928l-0.395,0.015l-3.171,3.107
		c-0.482,0.455-0.65,0.615,1.791,5.75l-0.674,1.596c-5.399,2.086-5.399,2.289-5.399,2.928v4.079c0,0.64,0,0.866,5.42,2.809
		l0.671,1.589c-2.309,5.215-2.155,5.372-1.704,5.819l2.948,2.888l0.293,0.253h0.342c0.179,0,0.71,0,5.201-2.041l1.645,0.671
		c2.135,5.284,2.354,5.284,2.98,5.284h4.16c0.64,0,0.862,0,2.846-5.302l1.652-0.67c3.025,1.281,4.799,1.932,5.273,1.932l0.399-0.011
		l3.195-3.134c0.454-0.457,0.614-0.614-1.812-5.731l0.667-1.593c5.407-2.092,5.407-2.312,5.407-2.934v-4.076
		C181.673,73.871,181.673,73.647,176.247,71.713L176.247,71.713z M161.878,83.424c-3.814,0-6.919-3.045-6.919-6.79
		c0-3.74,3.104-6.783,6.919-6.783c3.813,0,6.916,3.043,6.916,6.783C168.794,80.379,165.691,83.424,161.878,83.424L161.878,83.424z
		 M161.878,83.424"/>
	<path id="XMLID_12899_" fill="#F76881" d="M54.415,39.002l-0.648-1.536c2.221-5.02,2.072-5.171,1.643-5.607L52.57,29.09
		l-0.282-0.239h-0.329c-0.172,0-0.688,0-5.003,1.956l-1.586-0.639c-2.053-5.086-2.261-5.086-2.863-5.086h-4.001
		c-0.602,0-0.834,0-2.735,5.103l-1.582,0.642c-2.914-1.229-4.625-1.854-5.084-1.854l-0.38,0.015l-3.051,2.989
		c-0.464,0.437-0.626,0.592,1.724,5.53l-0.648,1.536c-5.194,2.006-5.194,2.201-5.194,2.815v3.925c0,0.614,0,0.833,5.214,2.701
		l0.645,1.528c-2.221,5.017-2.072,5.168-1.639,5.599l2.836,2.778l0.281,0.242h0.33c0.171,0,0.683,0,5.003-1.963l1.583,0.646
		c2.053,5.083,2.265,5.083,2.865,5.083h4.002c0.615,0,0.831,0,2.738-5.1l1.59-0.646c2.91,1.233,4.616,1.858,5.073,1.858l0.384-0.01
		l3.074-3.015c0.437-0.439,0.591-0.591-1.744-5.514l0.643-1.532c5.201-2.013,5.201-2.225,5.201-2.822v-3.921
		C59.634,41.078,59.634,40.863,54.415,39.002L54.415,39.002z M40.592,50.268c-3.669,0-6.655-2.93-6.655-6.532
		c0-3.598,2.986-6.524,6.655-6.524s6.652,2.927,6.652,6.524C47.244,47.338,44.261,50.268,40.592,50.268L40.592,50.268z
		 M40.592,50.268"/>
	<path id="XMLID_12895_" fill="#F7EBCB" d="M130.629,198.472l-0.905-2.142c3.099-7.005,2.893-7.216,2.293-7.824l-3.961-3.863
		l-0.396-0.334h-0.458c-0.24,0-0.961,0-6.981,2.729l-2.212-0.891c-2.865-7.099-3.155-7.099-3.996-7.099h-5.583
		c-0.839,0-1.163,0-3.816,7.121l-2.207,0.896c-4.065-1.715-6.452-2.588-7.095-2.588l-0.529,0.02l-4.257,4.172
		c-0.647,0.609-0.872,0.825,2.405,7.717l-0.905,2.143c-7.248,2.799-7.248,3.071-7.248,3.93v5.476c0,0.857,0,1.162,7.276,3.77
		l0.899,2.133c-3.099,6.999-2.893,7.211-2.288,7.811l3.958,3.877l0.394,0.338h0.459c0.239,0,0.952,0,6.98-2.738l2.209,0.9
		c2.864,7.093,3.16,7.093,3.999,7.093h5.585c0.857,0,1.157,0,3.82-7.116l2.217-0.9c4.061,1.721,6.442,2.593,7.079,2.593l0.536-0.015
		l4.289-4.205c0.609-0.613,0.824-0.824-2.434-7.693l0.896-2.138c7.257-2.809,7.257-3.104,7.257-3.938v-5.472
		C137.91,201.369,137.91,201.069,130.629,198.472L130.629,198.472z M111.342,214.192c-5.12,0-9.287-4.088-9.287-9.114
		c0-5.021,4.167-9.105,9.287-9.105c5.118,0,9.282,4.085,9.282,9.105C120.624,210.104,116.46,214.192,111.342,214.192
		L111.342,214.192z M111.342,214.192"/>
	<path id="XMLID_12891_" fill="#F7EBCB" d="M72.632,216.277l-0.439-1.039c1.503-3.396,1.402-3.499,1.111-3.794l-1.92-1.873
		l-0.191-0.162H70.97c-0.116,0-0.466,0-3.385,1.323l-1.073-0.432c-1.39-3.441-1.53-3.441-1.938-3.441h-2.707
		c-0.407,0-0.564,0-1.851,3.452l-1.07,0.435c-1.972-0.832-3.129-1.255-3.44-1.255l-0.257,0.009l-2.064,2.023
		c-0.313,0.296-0.423,0.4,1.167,3.742l-0.439,1.039c-3.515,1.357-3.515,1.489-3.515,1.905v2.655c0,0.416,0,0.563,3.528,1.828
		l0.437,1.034c-1.503,3.394-1.402,3.496-1.109,3.787l1.919,1.88l0.19,0.164h0.224c0.115,0,0.461,0,3.385-1.328l1.07,0.437
		c1.39,3.44,1.532,3.44,1.939,3.44h2.708c0.416,0,0.562,0,1.853-3.451l1.075-0.437c1.969,0.834,3.124,1.257,3.434,1.257l0.259-0.007
		l2.08-2.039c0.296-0.298,0.399-0.399-1.18-3.73l0.435-1.037c3.519-1.361,3.519-1.505,3.519-1.909v-2.653
		C76.162,217.682,76.162,217.537,72.632,216.277L72.632,216.277z M63.278,223.9c-2.482,0-4.503-1.982-4.503-4.42
		c0-2.435,2.021-4.415,4.503-4.415s4.502,1.98,4.502,4.415C67.78,221.918,65.761,223.9,63.278,223.9L63.278,223.9z M63.278,223.9"/>
	<path id="XMLID_12887_" fill="#F7EBCB" d="M75.419,7.76l-0.192-0.453c0.655-1.482,0.612-1.527,0.485-1.656l-0.838-0.816
		L74.79,4.763h-0.097c-0.051,0-0.203,0-1.478,0.577l-0.467-0.188C72.143,3.65,72.081,3.65,71.903,3.65h-1.182
		c-0.178,0-0.246,0-0.808,1.506l-0.467,0.189c-0.859-0.362-1.364-0.547-1.501-0.547l-0.111,0.004l-0.9,0.883
		c-0.138,0.129-0.186,0.175,0.509,1.633l-0.191,0.453c-1.534,0.592-1.534,0.649-1.534,0.831v1.158c0,0.182,0,0.246,1.539,0.798
		l0.191,0.451c-0.656,1.48-0.612,1.525-0.484,1.652l0.837,0.82l0.084,0.071h0.097c0.051,0,0.201,0,1.477-0.579l0.468,0.19
		c0.606,1.501,0.668,1.501,0.846,1.501h1.182c0.182,0,0.245,0,0.808-1.506l0.47-0.19c0.858,0.364,1.362,0.548,1.497,0.548
		l0.113-0.003l0.908-0.89c0.129-0.129,0.174-0.174-0.516-1.627l0.189-0.453c1.535-0.594,1.535-0.656,1.535-0.832V8.555
		C76.958,8.372,76.958,8.309,75.419,7.76L75.419,7.76z M71.338,11.085c-1.083,0-1.965-0.864-1.965-1.929
		c0-1.062,0.882-1.926,1.965-1.926s1.964,0.864,1.964,1.926C73.302,10.221,72.421,11.085,71.338,11.085L71.338,11.085z
		 M71.338,11.085"/>
	<path id="XMLID_12883_" fill="#F7EBCB" d="M112.099,93.288l-0.19-0.453c0.655-1.482,0.611-1.526,0.484-1.655l-0.838-0.817
		l-0.083-0.071h-0.098c-0.051,0-0.203,0-1.477,0.578l-0.468-0.188c-0.606-1.502-0.668-1.502-0.846-1.502h-1.181
		c-0.178,0-0.246,0-0.808,1.507l-0.467,0.189c-0.86-0.363-1.365-0.548-1.501-0.548l-0.111,0.005l-0.901,0.882
		c-0.137,0.129-0.185,0.175,0.509,1.633l-0.191,0.453c-1.533,0.592-1.533,0.649-1.533,0.831v1.158c0,0.182,0,0.246,1.539,0.798
		l0.19,0.451c-0.655,1.48-0.611,1.525-0.483,1.652l0.836,0.82l0.084,0.071h0.097c0.051,0,0.202,0,1.478-0.579l0.467,0.19
		c0.606,1.5,0.669,1.5,0.846,1.5h1.182c0.182,0,0.246,0,0.809-1.505l0.469-0.19c0.859,0.363,1.363,0.549,1.498,0.549l0.113-0.004
		l0.907-0.889c0.129-0.131,0.175-0.175-0.515-1.628l0.189-0.452c1.535-0.595,1.535-0.656,1.535-0.833v-1.157
		C113.64,93.9,113.64,93.838,112.099,93.288L112.099,93.288z M108.02,96.613c-1.083,0-1.965-0.864-1.965-1.928
		c0-1.062,0.882-1.926,1.965-1.926s1.964,0.863,1.964,1.926C109.983,95.749,109.103,96.613,108.02,96.613L108.02,96.613z
		 M108.02,96.613"/>
	<path id="XMLID_12879_" fill="#F7EBCB" d="M138.505,83.642l-0.192-0.453c0.656-1.481,0.612-1.526,0.485-1.655l-0.838-0.817
		l-0.084-0.071h-0.097c-0.051,0-0.203,0-1.477,0.578l-0.468-0.188c-0.606-1.502-0.668-1.502-0.846-1.502h-1.182
		c-0.178,0-0.245,0-0.807,1.507l-0.467,0.189c-0.86-0.363-1.365-0.548-1.502-0.548l-0.111,0.005l-0.9,0.882
		c-0.137,0.129-0.185,0.175,0.509,1.633l-0.191,0.453c-1.533,0.593-1.533,0.649-1.533,0.831v1.158c0,0.182,0,0.246,1.538,0.798
		l0.191,0.451c-0.656,1.481-0.611,1.525-0.484,1.652l0.838,0.82l0.083,0.071h0.097c0.051,0,0.202,0,1.477-0.579l0.468,0.19
		c0.606,1.501,0.668,1.501,0.846,1.501h1.182c0.182,0,0.245,0,0.808-1.506l0.47-0.19c0.858,0.364,1.362,0.549,1.497,0.549
		l0.113-0.004l0.908-0.889c0.129-0.131,0.174-0.175-0.515-1.628l0.189-0.452c1.535-0.594,1.535-0.656,1.535-0.833v-1.157
		C140.045,84.254,140.045,84.191,138.505,83.642L138.505,83.642z M134.425,86.967c-1.084,0-1.966-0.864-1.966-1.928
		c0-1.062,0.882-1.926,1.966-1.926c1.082,0,1.963,0.863,1.963,1.926C136.388,86.103,135.507,86.967,134.425,86.967L134.425,86.967z
		 M134.425,86.967"/>
	<path id="XMLID_12875_" fill="#F7EBCB" d="M66.533,62.755l-0.257-0.608c0.88-1.988,0.821-2.048,0.65-2.221l-1.124-1.096
		l-0.112-0.096h-0.13c-0.068,0-0.272,0-1.981,0.775l-0.628-0.253c-0.812-2.015-0.896-2.015-1.134-2.015h-1.585
		c-0.238,0-0.33,0-1.083,2.021l-0.627,0.254c-1.153-0.487-1.831-0.734-2.014-0.734l-0.15,0.005l-1.208,1.185
		c-0.183,0.173-0.247,0.234,0.683,2.19l-0.257,0.607c-2.057,0.795-2.057,0.872-2.057,1.116v1.554c0,0.243,0,0.33,2.065,1.07
		l0.255,0.604c-0.88,1.987-0.821,2.047-0.649,2.217l1.123,1.101l0.112,0.097h0.13c0.068,0,0.271,0,1.981-0.777l0.627,0.255
		c0.813,2.014,0.896,2.014,1.136,2.014h1.584c0.244,0,0.329,0,1.085-2.02l0.63-0.256c1.152,0.488,1.827,0.735,2.009,0.735
		l0.151-0.004l1.218-1.193c0.173-0.174,0.233-0.234-0.69-2.184l0.254-0.606c2.061-0.798,2.061-0.881,2.061-1.118v-1.553
		C68.601,63.577,68.601,63.492,66.533,62.755L66.533,62.755z M61.059,67.217c-1.453,0-2.636-1.16-2.636-2.587
		c0-1.425,1.183-2.584,2.636-2.584s2.635,1.159,2.635,2.584C63.693,66.057,62.512,67.217,61.059,67.217L61.059,67.217z
		 M61.059,67.217"/>
	<path id="XMLID_12871_" fill="#F7EBCB" d="M94.528,90.553l-0.256-0.607c0.879-1.988,0.82-2.049,0.65-2.221l-1.125-1.098
		l-0.111-0.094h-0.13c-0.068,0-0.273,0-1.981,0.774l-0.629-0.253c-0.812-2.015-0.895-2.015-1.134-2.015h-1.585
		c-0.237,0-0.329,0-1.083,2.021l-0.626,0.255c-1.154-0.487-1.831-0.734-2.014-0.734l-0.15,0.005l-1.208,1.185
		c-0.185,0.173-0.248,0.234,0.683,2.19l-0.257,0.607c-2.058,0.795-2.058,0.872-2.058,1.115v1.555c0,0.244,0,0.33,2.065,1.07
		l0.255,0.605c-0.879,1.986-0.82,2.046-0.648,2.217l1.123,1.1l0.111,0.097h0.131c0.067,0,0.27,0,1.98-0.777l0.627,0.255
		c0.813,2.014,0.897,2.014,1.135,2.014h1.586c0.243,0,0.328,0,1.084-2.02l0.63-0.256c1.152,0.488,1.828,0.736,2.009,0.736
		l0.152-0.004l1.217-1.194c0.174-0.174,0.234-0.233-0.689-2.184l0.254-0.606c2.06-0.797,2.06-0.881,2.06-1.118V91.62
		C96.596,91.375,96.596,91.29,94.528,90.553L94.528,90.553z M89.055,95.015c-1.453,0-2.636-1.16-2.636-2.587
		c0-1.425,1.183-2.584,2.636-2.584c1.452,0,2.635,1.159,2.635,2.584C91.689,93.854,90.507,95.015,89.055,95.015L89.055,95.015z
		 M89.055,95.015"/>
	<path id="XMLID_12867_" fill="#F7EBCB" d="M79.069,142.291l-0.257-0.607c0.88-1.988,0.821-2.049,0.651-2.221l-1.125-1.098
		l-0.111-0.094h-0.131c-0.067,0-0.272,0-1.98,0.774l-0.628-0.253c-0.813-2.015-0.896-2.015-1.135-2.015H72.77
		c-0.239,0-0.331,0-1.084,2.021l-0.626,0.254c-1.154-0.487-1.832-0.734-2.014-0.734l-0.15,0.005l-1.208,1.185
		c-0.185,0.173-0.248,0.234,0.683,2.19l-0.258,0.607c-2.057,0.795-2.057,0.872-2.057,1.116v1.554c0,0.244,0,0.33,2.065,1.07
		l0.255,0.605c-0.879,1.986-0.82,2.047-0.648,2.217l1.123,1.1l0.111,0.097h0.131c0.067,0,0.27,0,1.98-0.777l0.627,0.255
		c0.813,2.014,0.896,2.014,1.135,2.014h1.586c0.243,0,0.328,0,1.084-2.02l0.63-0.256c1.152,0.488,1.828,0.736,2.009,0.736
		l0.152-0.004l1.217-1.194c0.174-0.174,0.234-0.233-0.69-2.184l0.255-0.606c2.06-0.797,2.06-0.881,2.06-1.117v-1.554
		C81.137,143.113,81.137,143.028,79.069,142.291L79.069,142.291z M73.595,146.753c-1.453,0-2.635-1.16-2.635-2.587
		c0-1.425,1.182-2.584,2.635-2.584s2.635,1.159,2.635,2.584C76.229,145.593,75.048,146.753,73.595,146.753L73.595,146.753z
		 M73.595,146.753"/>
	<path id="XMLID_12863_" fill="#F7EBCB" d="M104.386,172.984l-0.257-0.608c0.88-1.987,0.821-2.048,0.65-2.221l-1.124-1.097
		l-0.112-0.094h-0.13c-0.068,0-0.272,0-1.981,0.774l-0.628-0.253c-0.813-2.015-0.896-2.015-1.134-2.015h-1.585
		c-0.238,0-0.33,0-1.083,2.021l-0.627,0.255c-1.153-0.487-1.831-0.734-2.014-0.734l-0.15,0.005l-1.208,1.185
		c-0.184,0.173-0.248,0.234,0.683,2.19L93.429,173c-2.057,0.795-2.057,0.872-2.057,1.115v1.555c0,0.243,0,0.33,2.064,1.07
		l0.256,0.605c-0.88,1.986-0.821,2.046-0.649,2.217l1.123,1.1l0.111,0.097h0.131c0.067,0,0.271,0,1.981-0.777l0.627,0.255
		c0.812,2.014,0.896,2.014,1.135,2.014h1.585c0.243,0,0.329,0,1.085-2.02l0.629-0.256c1.152,0.488,1.828,0.736,2.01,0.736
		l0.151-0.004l1.218-1.194c0.173-0.174,0.233-0.233-0.69-2.184l0.254-0.606c2.06-0.797,2.06-0.881,2.06-1.118v-1.553
		C106.452,173.807,106.452,173.722,104.386,172.984L104.386,172.984z M98.911,177.446c-1.453,0-2.636-1.16-2.636-2.587
		c0-1.425,1.183-2.584,2.636-2.584s2.635,1.159,2.635,2.584C101.546,176.286,100.364,177.446,98.911,177.446L98.911,177.446z
		 M98.911,177.446"/>
	<path id="XMLID_12859_" fill="#F7EBCB" d="M145.519,180.373l-0.257-0.607c0.88-1.988,0.821-2.048,0.65-2.221l-1.124-1.097
		l-0.112-0.095h-0.13c-0.068,0-0.273,0-1.981,0.774l-0.628-0.253c-0.813-2.014-0.896-2.014-1.134-2.014h-1.585
		c-0.238,0-0.33,0-1.083,2.021l-0.627,0.254c-1.153-0.486-1.831-0.734-2.014-0.734l-0.15,0.006l-1.208,1.184
		c-0.184,0.173-0.248,0.234,0.683,2.19l-0.257,0.608c-2.057,0.794-2.057,0.872-2.057,1.115v1.554c0,0.244,0,0.33,2.064,1.07
		l0.256,0.605c-0.88,1.986-0.821,2.047-0.649,2.217l1.123,1.101l0.111,0.096h0.131c0.067,0,0.271,0,1.981-0.777l0.627,0.256
		c0.812,2.013,0.896,2.013,1.135,2.013h1.585c0.243,0,0.328,0,1.085-2.02l0.629-0.255c1.152,0.487,1.828,0.735,2.009,0.735
		l0.152-0.004l1.218-1.193c0.173-0.174,0.233-0.234-0.69-2.184l0.254-0.607c2.06-0.797,2.06-0.881,2.06-1.117v-1.553
		C147.585,181.196,147.585,181.111,145.519,180.373L145.519,180.373z M140.044,184.836c-1.453,0-2.636-1.16-2.636-2.588
		c0-1.424,1.183-2.584,2.636-2.584s2.635,1.16,2.635,2.584C142.679,183.676,141.497,184.836,140.044,184.836L140.044,184.836z
		 M140.044,184.836"/>
	<path id="XMLID_12855_" fill="#F7EBCB" d="M81.704,200.051l-0.257-0.608c0.88-1.988,0.821-2.048,0.651-2.221l-1.124-1.097
		l-0.112-0.095h-0.131c-0.068,0-0.272,0-1.98,0.774l-0.629-0.252c-0.812-2.015-0.896-2.015-1.134-2.015h-1.585
		c-0.238,0-0.33,0-1.083,2.021l-0.626,0.254c-1.154-0.486-1.832-0.734-2.015-0.734l-0.149,0.006l-1.209,1.184
		c-0.184,0.174-0.247,0.234,0.684,2.191l-0.258,0.607c-2.057,0.795-2.057,0.872-2.057,1.115v1.555c0,0.243,0,0.33,2.064,1.069
		l0.256,0.605c-0.88,1.987-0.82,2.047-0.649,2.218l1.124,1.1l0.111,0.096h0.131c0.067,0,0.27,0,1.98-0.777l0.627,0.256
		c0.812,2.014,0.897,2.014,1.135,2.014h1.586c0.243,0,0.328,0,1.084-2.02l0.63-0.256c1.152,0.488,1.827,0.735,2.009,0.735
		l0.151-0.004l1.218-1.193c0.174-0.174,0.234-0.234-0.69-2.184l0.254-0.606c2.061-0.798,2.061-0.881,2.061-1.118v-1.553
		C83.771,200.873,83.771,200.788,81.704,200.051L81.704,200.051z M76.229,204.513c-1.453,0-2.636-1.16-2.636-2.587
		c0-1.425,1.183-2.584,2.636-2.584c1.454,0,2.635,1.159,2.635,2.584C78.864,203.353,77.684,204.513,76.229,204.513L76.229,204.513z
		 M76.229,204.513"/>
	<path id="XMLID_12851_" fill="#F7EBCB" d="M166.035,41.718l-0.276-0.655c0.947-2.143,0.885-2.207,0.701-2.393l-1.211-1.182
		l-0.121-0.103h-0.141c-0.073,0-0.294,0-2.135,0.835l-0.677-0.272c-0.876-2.171-0.965-2.171-1.222-2.171h-1.708
		c-0.256,0-0.355,0-1.167,2.178l-0.675,0.273c-1.243-0.524-1.974-0.791-2.17-0.791l-0.161,0.006l-1.303,1.275
		c-0.197,0.188-0.267,0.253,0.736,2.36l-0.277,0.655c-2.217,0.856-2.217,0.939-2.217,1.202v1.675c0,0.262,0,0.355,2.226,1.152
		l0.274,0.652c-0.947,2.141-0.884,2.205-0.699,2.389l1.211,1.186l0.119,0.104h0.142c0.072,0,0.291,0,2.135-0.838l0.675,0.275
		c0.877,2.17,0.967,2.17,1.224,2.17h1.707c0.263,0,0.354,0,1.169-2.177l0.678-0.275c1.242,0.526,1.971,0.793,2.166,0.793
		l0.163-0.004l1.312-1.286c0.188-0.188,0.252-0.252-0.744-2.354l0.274-0.653c2.22-0.858,2.22-0.949,2.22-1.204v-1.674
		C168.263,42.604,168.263,42.512,166.035,41.718L166.035,41.718z M160.137,46.525c-1.565,0-2.84-1.25-2.84-2.788
		c0-1.535,1.274-2.784,2.84-2.784s2.839,1.249,2.839,2.784C162.976,45.275,161.702,46.525,160.137,46.525L160.137,46.525z
		 M160.137,46.525"/>
	<path id="XMLID_12847_" fill="#F7EBCB" d="M148.518,19.844l-0.127-0.301c0.435-0.982,0.405-1.012,0.321-1.098l-0.556-0.541
		l-0.055-0.047h-0.064c-0.034,0-0.135,0-0.979,0.383l-0.311-0.125c-0.401-0.996-0.441-0.996-0.56-0.996h-0.783
		c-0.117,0-0.163,0-0.535,0.999l-0.31,0.126c-0.57-0.241-0.904-0.363-0.994-0.363l-0.075,0.003l-0.597,0.585
		c-0.091,0.086-0.122,0.115,0.337,1.082l-0.126,0.301c-1.017,0.393-1.017,0.431-1.017,0.551v0.768c0,0.121,0,0.163,1.021,0.529
		l0.126,0.299c-0.435,0.981-0.406,1.011-0.321,1.096l0.555,0.543l0.056,0.048h0.064c0.033,0,0.134,0,0.979-0.384l0.309,0.126
		c0.402,0.994,0.443,0.994,0.562,0.994h0.783c0.12,0,0.162,0,0.535-0.997l0.312-0.127c0.569,0.241,0.903,0.363,0.992,0.363
		l0.075-0.002l0.602-0.59c0.086-0.086,0.116-0.115-0.341-1.078l0.125-0.3c1.018-0.394,1.018-0.436,1.018-0.553v-0.767
		C149.538,20.25,149.538,20.207,148.518,19.844L148.518,19.844z M145.812,22.048c-0.718,0-1.302-0.573-1.302-1.278
		c0-0.704,0.584-1.276,1.302-1.276s1.302,0.572,1.302,1.276C147.114,21.475,146.53,22.048,145.812,22.048L145.812,22.048z
		 M145.812,22.048"/>
	<path id="XMLID_12843_" fill="#F7EBCB" d="M84.22,117.309l-0.127-0.3c0.434-0.982,0.404-1.013,0.32-1.098l-0.555-0.542
		l-0.056-0.047h-0.063c-0.034,0-0.135,0-0.979,0.383l-0.31-0.125c-0.402-0.995-0.443-0.995-0.561-0.995h-0.783
		c-0.118,0-0.163,0-0.535,0.999l-0.31,0.125c-0.57-0.24-0.905-0.363-0.995-0.363l-0.074,0.004l-0.598,0.584
		c-0.09,0.086-0.122,0.116,0.338,1.082l-0.127,0.301c-1.017,0.393-1.017,0.431-1.017,0.551v0.769c0,0.12,0,0.163,1.021,0.528
		l0.127,0.299c-0.436,0.982-0.406,1.012-0.321,1.096l0.555,0.544l0.056,0.047h0.064c0.033,0,0.133,0,0.979-0.384l0.31,0.126
		c0.401,0.995,0.443,0.995,0.562,0.995h0.782c0.12,0,0.163,0,0.536-0.998l0.311-0.126c0.57,0.241,0.903,0.363,0.993,0.363
		l0.075-0.002l0.602-0.59c0.085-0.086,0.115-0.115-0.341-1.079l0.125-0.3c1.018-0.394,1.018-0.435,1.018-0.552v-0.768
		C85.24,117.715,85.24,117.673,84.22,117.309L84.22,117.309z M81.515,119.514c-0.719,0-1.303-0.574-1.303-1.278
		s0.584-1.276,1.303-1.276c0.718,0,1.301,0.572,1.301,1.276S82.232,119.514,81.515,119.514L81.515,119.514z M81.515,119.514"/>
	<path id="XMLID_12839_" fill="#F7EBCB" d="M87.944,151.657l-0.127-0.301c0.436-0.981,0.406-1.012,0.322-1.097l-0.556-0.542
		l-0.056-0.047h-0.064c-0.033,0-0.135,0-0.979,0.383l-0.311-0.125c-0.401-0.995-0.442-0.995-0.561-0.995h-0.783
		c-0.117,0-0.162,0-0.535,0.998l-0.309,0.126c-0.57-0.241-0.905-0.363-0.995-0.363l-0.074,0.003l-0.597,0.585
		c-0.092,0.085-0.123,0.116,0.337,1.082l-0.127,0.301c-1.017,0.393-1.017,0.431-1.017,0.551v0.769c0,0.12,0,0.162,1.021,0.528
		l0.126,0.299c-0.435,0.981-0.405,1.011-0.32,1.096l0.555,0.543l0.055,0.048h0.064c0.034,0,0.135,0,0.979-0.384l0.31,0.126
		c0.402,0.994,0.443,0.994,0.561,0.994h0.783c0.121,0,0.162,0,0.535-0.998l0.312-0.125c0.569,0.24,0.903,0.363,0.993,0.363
		l0.074-0.002l0.602-0.59c0.086-0.086,0.116-0.116-0.341-1.079l0.126-0.3c1.018-0.394,1.018-0.436,1.018-0.553v-0.767
		C88.966,152.063,88.966,152.021,87.944,151.657L87.944,151.657z M85.24,153.861c-0.718,0-1.303-0.573-1.303-1.277
		c0-0.705,0.585-1.277,1.303-1.277s1.302,0.572,1.302,1.277C86.542,153.288,85.958,153.861,85.24,153.861L85.24,153.861z
		 M85.24,153.861"/>
	<path id="XMLID_12835_" fill="#F7EBCB" d="M59.949,141.783l-0.127-0.301c0.435-0.982,0.405-1.012,0.321-1.098l-0.556-0.541
		l-0.056-0.047h-0.063c-0.034,0-0.135,0-0.979,0.383l-0.311-0.125c-0.401-0.996-0.441-0.996-0.56-0.996h-0.783
		c-0.117,0-0.163,0-0.535,0.999l-0.31,0.126c-0.57-0.241-0.904-0.363-0.995-0.363l-0.073,0.003l-0.598,0.585
		c-0.091,0.085-0.122,0.115,0.337,1.082l-0.126,0.301c-1.017,0.393-1.017,0.431-1.017,0.551v0.768c0,0.121,0,0.163,1.021,0.529
		l0.125,0.299c-0.434,0.981-0.405,1.011-0.32,1.096l0.556,0.543l0.055,0.047h0.064c0.034,0,0.134,0,0.979-0.383l0.309,0.125
		c0.402,0.995,0.443,0.995,0.562,0.995h0.783c0.12,0,0.162,0,0.535-0.997l0.312-0.127c0.569,0.241,0.903,0.363,0.992,0.363
		l0.075-0.002l0.602-0.59c0.086-0.086,0.116-0.115-0.341-1.078l0.125-0.3c1.019-0.394,1.019-0.436,1.019-0.553v-0.767
		C60.971,142.189,60.971,142.146,59.949,141.783L59.949,141.783z M57.244,143.987c-0.718,0-1.302-0.573-1.302-1.278
		c0-0.704,0.584-1.276,1.302-1.276s1.302,0.572,1.302,1.276C58.546,143.414,57.962,143.987,57.244,143.987L57.244,143.987z
		 M57.244,143.987"/>
	<path id="XMLID_12831_" fill="#F7EBCB" d="M142.749,95.105l-0.127-0.301c0.435-0.982,0.406-1.012,0.321-1.097l-0.556-0.542
		l-0.055-0.047h-0.064c-0.033,0-0.135,0-0.979,0.383l-0.311-0.125c-0.402-0.995-0.442-0.995-0.561-0.995h-0.783
		c-0.117,0-0.162,0-0.535,0.999l-0.31,0.125c-0.569-0.24-0.904-0.363-0.995-0.363l-0.073,0.003l-0.598,0.585
		c-0.091,0.086-0.122,0.116,0.337,1.082l-0.126,0.301c-1.017,0.393-1.017,0.431-1.017,0.551v0.768c0,0.121,0,0.164,1.021,0.529
		l0.126,0.299c-0.435,0.982-0.406,1.012-0.321,1.096l0.556,0.543l0.055,0.048h0.064c0.034,0,0.134,0,0.979-0.384l0.311,0.126
		c0.401,0.995,0.443,0.995,0.561,0.995h0.783c0.12,0,0.162,0,0.536-0.998l0.311-0.126c0.569,0.241,0.903,0.363,0.993,0.363
		l0.074-0.002l0.602-0.59c0.086-0.086,0.116-0.116-0.341-1.079l0.126-0.3c1.018-0.394,1.018-0.435,1.018-0.552v-0.768
		C143.771,95.512,143.771,95.47,142.749,95.105L142.749,95.105z M140.044,97.311c-0.718,0-1.302-0.574-1.302-1.279
		c0-0.703,0.584-1.276,1.302-1.276c0.719,0,1.302,0.573,1.302,1.276C141.346,96.736,140.763,97.311,140.044,97.311L140.044,97.311z
		 M140.044,97.311"/>
	<path id="XMLID_12827_" fill="#F7EBCB" d="M124.861,82.046l-0.126-0.301c0.435-0.982,0.405-1.012,0.32-1.097l-0.555-0.542
		l-0.056-0.047h-0.064c-0.033,0-0.135,0-0.979,0.383l-0.311-0.125c-0.401-0.995-0.442-0.995-0.56-0.995h-0.783
		c-0.117,0-0.163,0-0.535,0.998l-0.31,0.126c-0.57-0.241-0.905-0.363-0.995-0.363l-0.074,0.003l-0.597,0.585
		c-0.091,0.085-0.123,0.116,0.337,1.082l-0.127,0.301c-1.016,0.393-1.016,0.431-1.016,0.551v0.768c0,0.12,0,0.163,1.02,0.529
		l0.126,0.299c-0.435,0.981-0.405,1.011-0.32,1.095l0.555,0.544l0.056,0.048h0.064c0.033,0,0.133,0,0.979-0.385l0.31,0.127
		c0.401,0.994,0.443,0.994,0.562,0.994h0.783c0.12,0,0.162,0,0.535-0.998l0.311-0.125c0.569,0.24,0.904,0.363,0.993,0.363
		l0.075-0.002l0.602-0.59c0.085-0.086,0.115-0.116-0.342-1.079l0.126-0.3c1.018-0.394,1.018-0.436,1.018-0.553v-0.767
		C125.883,82.452,125.883,82.41,124.861,82.046L124.861,82.046z M122.157,84.25c-0.718,0-1.303-0.573-1.303-1.278
		c0-0.704,0.585-1.276,1.303-1.276s1.301,0.572,1.301,1.276C123.458,83.677,122.875,84.25,122.157,84.25L122.157,84.25z
		 M122.157,84.25"/>
	<path id="XMLID_12823_" fill="#F7EBCB" d="M150.29,170.195l-0.128-0.301c0.435-0.981,0.406-1.012,0.322-1.097l-0.556-0.542
		l-0.056-0.047h-0.063c-0.034,0-0.135,0-0.979,0.383l-0.31-0.125c-0.402-0.995-0.443-0.995-0.562-0.995h-0.782
		c-0.118,0-0.163,0-0.535,0.999l-0.31,0.125c-0.57-0.24-0.905-0.363-0.995-0.363l-0.074,0.003l-0.598,0.585
		c-0.09,0.086-0.122,0.116,0.338,1.082l-0.127,0.301c-1.017,0.393-1.017,0.431-1.017,0.551v0.769c0,0.12,0,0.163,1.021,0.528
		l0.127,0.299c-0.436,0.982-0.406,1.012-0.321,1.096l0.555,0.543l0.056,0.048h0.064c0.033,0,0.133,0,0.979-0.384l0.31,0.126
		c0.402,0.995,0.443,0.995,0.561,0.995h0.783c0.12,0,0.163,0,0.536-0.998l0.311-0.127c0.57,0.242,0.903,0.364,0.993,0.364
		l0.075-0.002l0.602-0.59c0.086-0.086,0.115-0.116-0.342-1.079l0.126-0.3c1.018-0.394,1.018-0.435,1.018-0.552v-0.768
		C151.311,170.602,151.311,170.56,150.29,170.195L150.29,170.195z M147.585,172.4c-0.718,0-1.303-0.574-1.303-1.278
		s0.585-1.277,1.303-1.277s1.302,0.573,1.302,1.277S148.303,172.4,147.585,172.4L147.585,172.4z M147.585,172.4"/>
	<path id="XMLID_12819_" fill="#F7EBCB" d="M140.614,193.611l-0.127-0.301c0.436-0.982,0.406-1.012,0.322-1.098l-0.556-0.541
		l-0.056-0.047h-0.064c-0.033,0-0.135,0-0.979,0.383l-0.311-0.125c-0.401-0.996-0.442-0.996-0.561-0.996h-0.782
		c-0.118,0-0.163,0-0.536,0.999l-0.309,0.126c-0.57-0.241-0.905-0.363-0.995-0.363l-0.074,0.002l-0.597,0.586
		c-0.091,0.085-0.123,0.115,0.337,1.082l-0.127,0.301c-1.017,0.393-1.017,0.43-1.017,0.551v0.768c0,0.12,0,0.163,1.021,0.528
		l0.126,0.3c-0.435,0.981-0.405,1.011-0.32,1.095l0.555,0.544l0.055,0.047h0.064c0.034,0,0.134,0,0.979-0.384l0.31,0.126
		c0.401,0.995,0.443,0.995,0.561,0.995h0.783c0.12,0,0.162,0,0.536-0.998l0.311-0.126c0.569,0.241,0.903,0.363,0.993,0.363
		l0.075-0.002l0.602-0.59c0.085-0.086,0.115-0.115-0.342-1.078l0.126-0.301c1.018-0.394,1.018-0.435,1.018-0.552v-0.768
		C141.636,194.018,141.636,193.975,140.614,193.611L140.614,193.611z M137.909,195.815c-0.717,0-1.302-0.573-1.302-1.278
		c0-0.704,0.585-1.276,1.302-1.276c0.719,0,1.303,0.572,1.303,1.276C139.212,195.242,138.628,195.815,137.909,195.815
		L137.909,195.815z M137.909,195.815"/>
	<path id="XMLID_12815_" fill="#F7EBCB" d="M124.861,179.757l-0.126-0.301c0.435-0.981,0.405-1.012,0.32-1.097l-0.555-0.542
		l-0.056-0.047h-0.064c-0.033,0-0.135,0-0.979,0.383l-0.311-0.125c-0.401-0.995-0.442-0.995-0.56-0.995h-0.783
		c-0.117,0-0.163,0-0.535,0.998l-0.31,0.126c-0.57-0.24-0.905-0.363-0.995-0.363l-0.074,0.003l-0.597,0.585
		c-0.091,0.086-0.123,0.116,0.337,1.082l-0.127,0.301c-1.016,0.393-1.016,0.431-1.016,0.551v0.769c0,0.12,0,0.162,1.02,0.528
		l0.126,0.299c-0.435,0.981-0.405,1.011-0.32,1.096l0.555,0.544l0.056,0.047h0.064c0.033,0,0.133,0,0.979-0.384l0.31,0.126
		c0.401,0.994,0.443,0.994,0.562,0.994h0.783c0.12,0,0.162,0,0.535-0.997l0.311-0.126c0.569,0.24,0.904,0.363,0.993,0.363
		l0.075-0.002l0.602-0.59c0.085-0.086,0.115-0.115-0.342-1.079l0.126-0.3c1.018-0.394,1.018-0.436,1.018-0.552v-0.768
		C125.883,180.163,125.883,180.121,124.861,179.757L124.861,179.757z M122.157,181.961c-0.718,0-1.303-0.573-1.303-1.277
		s0.585-1.277,1.303-1.277s1.301,0.573,1.301,1.277S122.875,181.961,122.157,181.961L122.157,181.961z M122.157,181.961"/>
	<path id="XMLID_12811_" fill="#F7EBCB" d="M86.476,214.905l-0.127-0.301c0.435-0.981,0.406-1.012,0.321-1.097l-0.556-0.542
		l-0.055-0.047h-0.064c-0.034,0-0.135,0-0.979,0.383l-0.311-0.125c-0.402-0.995-0.443-0.995-0.561-0.995h-0.783
		c-0.117,0-0.163,0-0.535,0.998l-0.31,0.126c-0.57-0.241-0.905-0.363-0.995-0.363l-0.074,0.003l-0.597,0.585
		c-0.091,0.085-0.122,0.116,0.338,1.082l-0.128,0.301c-1.016,0.393-1.016,0.431-1.016,0.551v0.768c0,0.12,0,0.163,1.021,0.529
		l0.126,0.299c-0.435,0.981-0.406,1.011-0.321,1.095l0.556,0.544l0.055,0.048h0.064c0.033,0,0.133,0,0.979-0.385l0.311,0.127
		c0.401,0.994,0.442,0.994,0.561,0.994h0.783c0.12,0,0.162,0,0.535-0.998l0.312-0.126c0.569,0.241,0.903,0.364,0.993,0.364
		l0.074-0.002l0.602-0.59c0.086-0.086,0.115-0.116-0.341-1.079l0.125-0.3c1.019-0.395,1.019-0.436,1.019-0.553v-0.767
		C87.497,215.312,87.497,215.27,86.476,214.905L86.476,214.905z M83.771,217.109c-0.718,0-1.302-0.573-1.302-1.277
		c0-0.705,0.584-1.277,1.302-1.277c0.719,0,1.303,0.572,1.303,1.277C85.073,216.536,84.489,217.109,83.771,217.109L83.771,217.109z
		 M83.771,217.109"/>
	<path id="XMLID_12807_" fill="#F7EBCB" d="M54.185,202.246l-0.127-0.301c0.435-0.982,0.405-1.012,0.322-1.098l-0.557-0.541
		l-0.055-0.047h-0.064c-0.033,0-0.135,0-0.979,0.383l-0.31-0.125c-0.402-0.995-0.443-0.995-0.561-0.995h-0.783
		c-0.117,0-0.163,0-0.535,0.998l-0.31,0.126c-0.569-0.24-0.905-0.363-0.995-0.363l-0.074,0.003l-0.597,0.585
		c-0.091,0.086-0.122,0.115,0.337,1.082l-0.126,0.301c-1.017,0.393-1.017,0.431-1.017,0.551v0.768c0,0.121,0,0.164,1.02,0.529
		l0.127,0.299c-0.436,0.981-0.406,1.012-0.321,1.096l0.556,0.543l0.055,0.048h0.064c0.033,0,0.134,0,0.979-0.384l0.31,0.126
		c0.402,0.995,0.443,0.995,0.562,0.995h0.783c0.12,0,0.162,0,0.535-0.998l0.312-0.127c0.569,0.241,0.903,0.364,0.992,0.364
		l0.075-0.003l0.602-0.589c0.086-0.086,0.116-0.116-0.341-1.079l0.126-0.3c1.018-0.394,1.018-0.436,1.018-0.552v-0.768
		C55.206,202.652,55.206,202.61,54.185,202.246L54.185,202.246z M51.479,204.45c-0.718,0-1.302-0.573-1.302-1.278
		c0-0.704,0.584-1.276,1.302-1.276s1.303,0.572,1.303,1.276C52.782,203.877,52.197,204.45,51.479,204.45L51.479,204.45z
		 M51.479,204.45"/>
	<path id="XMLID_12803_" fill="#F7EBCB" d="M51.602,149.476l-0.127-0.301c0.435-0.981,0.405-1.012,0.321-1.097l-0.555-0.542
		l-0.056-0.047h-0.064c-0.033,0-0.135,0-0.979,0.383l-0.311-0.125c-0.401-0.995-0.442-0.995-0.561-0.995h-0.782
		c-0.118,0-0.164,0-0.535,0.998l-0.31,0.126c-0.57-0.24-0.905-0.363-0.995-0.363l-0.074,0.003l-0.598,0.585
		c-0.09,0.086-0.122,0.116,0.338,1.082l-0.127,0.301c-1.017,0.393-1.017,0.431-1.017,0.551v0.769c0,0.12,0,0.162,1.021,0.528
		l0.126,0.299c-0.435,0.981-0.405,1.011-0.321,1.096l0.556,0.544l0.055,0.047h0.064c0.034,0,0.134,0,0.979-0.384l0.31,0.126
		c0.401,0.994,0.443,0.994,0.561,0.994h0.783c0.12,0,0.163,0,0.536-0.997l0.311-0.126c0.569,0.24,0.903,0.363,0.992,0.363
		l0.076-0.002l0.602-0.59c0.085-0.086,0.115-0.115-0.342-1.079l0.126-0.3c1.018-0.394,1.018-0.436,1.018-0.553v-0.767
		C52.623,149.882,52.623,149.84,51.602,149.476L51.602,149.476z M48.897,151.68c-0.719,0-1.303-0.573-1.303-1.277
		c0-0.705,0.584-1.277,1.303-1.277c0.717,0,1.301,0.572,1.301,1.277C50.198,151.106,49.614,151.68,48.897,151.68L48.897,151.68z
		 M48.897,151.68"/>
	<path id="XMLID_12799_" fill="#F7EBCB" d="M25.189,145.824l-0.127-0.3c0.435-0.982,0.405-1.012,0.321-1.097l-0.555-0.543
		l-0.056-0.046h-0.064c-0.034,0-0.135,0-0.979,0.382l-0.31-0.125c-0.401-0.995-0.442-0.995-0.561-0.995h-0.783
		c-0.117,0-0.163,0-0.535,0.999l-0.31,0.125c-0.57-0.24-0.904-0.362-0.994-0.362l-0.075,0.003l-0.597,0.585
		c-0.091,0.085-0.122,0.115,0.338,1.082l-0.127,0.3c-1.017,0.393-1.017,0.432-1.017,0.552v0.768c0,0.12,0,0.163,1.021,0.528
		l0.126,0.3c-0.435,0.981-0.405,1.011-0.321,1.095l0.555,0.544l0.056,0.048h0.064c0.033,0,0.134,0,0.979-0.385l0.309,0.127
		c0.402,0.994,0.443,0.994,0.562,0.994h0.783c0.12,0,0.162,0,0.536-0.998l0.311-0.126c0.569,0.241,0.903,0.363,0.992,0.363
		l0.075-0.002l0.602-0.59c0.085-0.086,0.116-0.115-0.341-1.078l0.125-0.3c1.018-0.395,1.018-0.436,1.018-0.553v-0.768
		C26.21,146.23,26.21,146.189,25.189,145.824L25.189,145.824z M22.485,148.029c-0.719,0-1.303-0.573-1.303-1.278
		c0-0.704,0.584-1.276,1.303-1.276c0.717,0,1.301,0.572,1.301,1.276C23.786,147.456,23.202,148.029,22.485,148.029L22.485,148.029z
		 M22.485,148.029"/>
	<path id="XMLID_12795_" fill="#F7EBCB" d="M30.306,138.132l-0.127-0.3c0.435-0.982,0.406-1.012,0.322-1.098l-0.557-0.542
		l-0.055-0.047h-0.064c-0.033,0-0.135,0-0.979,0.383l-0.311-0.125c-0.401-0.995-0.442-0.995-0.561-0.995h-0.783
		c-0.117,0-0.163,0-0.535,0.998l-0.309,0.126c-0.571-0.24-0.905-0.362-0.995-0.362l-0.075,0.002l-0.597,0.586
		c-0.091,0.085-0.122,0.115,0.338,1.082l-0.128,0.3c-1.016,0.393-1.016,0.431-1.016,0.552v0.768c0,0.12,0,0.163,1.02,0.528
		l0.127,0.299c-0.435,0.981-0.405,1.012-0.32,1.096l0.555,0.544l0.055,0.047h0.064c0.033,0,0.134,0,0.979-0.384l0.31,0.126
		c0.401,0.995,0.443,0.995,0.561,0.995h0.783c0.12,0,0.162,0,0.535-0.998l0.312-0.126c0.569,0.241,0.903,0.363,0.993,0.363
		l0.074-0.002l0.602-0.59c0.086-0.086,0.116-0.115-0.341-1.079l0.126-0.3c1.018-0.394,1.018-0.436,1.018-0.552v-0.768
		C31.327,138.538,31.327,138.496,30.306,138.132L30.306,138.132z M27.601,140.336c-0.718,0-1.303-0.572-1.303-1.277
		c0-0.704,0.585-1.277,1.303-1.277c0.719,0,1.303,0.573,1.303,1.277C28.903,139.764,28.319,140.336,27.601,140.336L27.601,140.336z
		 M27.601,140.336"/>
	<path id="XMLID_12791_" fill="#F7EBCB" d="M6.43,85.119l-0.126-0.301c0.434-0.982,0.405-1.012,0.32-1.098L6.069,83.18l-0.056-0.047
		H5.95c-0.034,0-0.135,0-0.979,0.383L4.66,83.391c-0.401-0.996-0.442-0.996-0.56-0.996H3.317c-0.118,0-0.163,0-0.535,0.999
		L2.472,83.52c-0.569-0.241-0.904-0.363-0.994-0.363l-0.074,0.003l-0.597,0.585c-0.091,0.085-0.122,0.115,0.337,1.082l-0.127,0.301
		C0,85.52,0,85.557,0,85.678v0.768c0,0.12,0,0.163,1.021,0.529l0.126,0.299c-0.435,0.981-0.405,1.011-0.321,1.095l0.556,0.544
		l0.056,0.048h0.064c0.033,0,0.133,0,0.979-0.385l0.31,0.127c0.401,0.994,0.442,0.994,0.561,0.994h0.783c0.12,0,0.162,0,0.536-0.998
		l0.311-0.126c0.57,0.241,0.904,0.363,0.993,0.363l0.074-0.002l0.603-0.59c0.085-0.086,0.115-0.115-0.342-1.078l0.126-0.301
		c1.018-0.394,1.018-0.435,1.018-0.552v-0.767C7.451,85.525,7.451,85.482,6.43,85.119L6.43,85.119z M3.726,87.323
		c-0.719,0-1.303-0.573-1.303-1.278c0-0.704,0.584-1.276,1.303-1.276c0.718,0,1.302,0.572,1.302,1.276
		C5.027,86.75,4.443,87.323,3.726,87.323L3.726,87.323z M3.726,87.323"/>
	<path id="XMLID_12787_" fill="#F7EBCB" d="M9.113,74.744l-0.127-0.301c0.435-0.982,0.405-1.012,0.322-1.097l-0.556-0.542
		l-0.056-0.047H8.633c-0.034,0-0.135,0-0.979,0.383l-0.311-0.125c-0.401-0.995-0.442-0.995-0.561-0.995H6.001
		c-0.118,0-0.164,0-0.535,0.999l-0.311,0.125c-0.569-0.24-0.904-0.363-0.994-0.363l-0.074,0.003l-0.598,0.585
		c-0.09,0.086-0.122,0.116,0.338,1.082L3.7,74.752c-1.017,0.393-1.017,0.431-1.017,0.551v0.768c0,0.121,0,0.164,1.021,0.529
		l0.126,0.299c-0.435,0.981-0.405,1.012-0.321,1.096l0.555,0.543l0.056,0.048h0.065c0.033,0,0.133,0,0.979-0.384l0.31,0.126
		c0.401,0.995,0.442,0.995,0.561,0.995h0.783c0.12,0,0.162,0,0.536-0.998l0.311-0.127c0.569,0.242,0.903,0.364,0.993,0.364
		L8.73,78.56l0.603-0.59c0.085-0.086,0.115-0.116-0.342-1.079l0.126-0.3c1.018-0.394,1.018-0.435,1.018-0.552v-0.768
		C10.135,75.15,10.135,75.108,9.113,74.744L9.113,74.744z M6.409,76.949c-0.719,0-1.303-0.574-1.303-1.279
		c0-0.703,0.584-1.276,1.303-1.276c0.717,0,1.301,0.573,1.301,1.276C7.71,76.375,7.126,76.949,6.409,76.949L6.409,76.949z
		 M6.409,76.949"/>
	<path id="XMLID_12783_" fill="#F7EBCB" d="M18.28,47.123l-0.127-0.301c0.435-0.982,0.405-1.012,0.321-1.097l-0.556-0.542
		l-0.055-0.047H17.8c-0.033,0-0.135,0-0.979,0.383l-0.311-0.125c-0.402-0.995-0.442-0.995-0.561-0.995h-0.783
		c-0.117,0-0.163,0-0.535,0.999l-0.31,0.125c-0.569-0.24-0.904-0.363-0.995-0.363l-0.074,0.003l-0.597,0.585
		c-0.091,0.086-0.122,0.116,0.337,1.082l-0.126,0.301c-1.017,0.393-1.017,0.431-1.017,0.551v0.768c0,0.121,0,0.164,1.02,0.529
		l0.127,0.299c-0.435,0.981-0.406,1.012-0.321,1.096l0.556,0.543l0.055,0.048h0.064c0.033,0,0.134,0,0.979-0.384l0.311,0.126
		c0.401,0.995,0.443,0.995,0.561,0.995h0.783c0.12,0,0.162,0,0.535-0.998l0.312-0.127c0.569,0.242,0.903,0.364,0.992,0.364
		l0.075-0.002l0.602-0.59c0.086-0.086,0.115-0.116-0.341-1.079l0.126-0.3c1.018-0.394,1.018-0.435,1.018-0.552V47.65
		C19.302,47.529,19.302,47.487,18.28,47.123L18.28,47.123z M15.575,49.328c-0.718,0-1.302-0.574-1.302-1.279
		c0-0.703,0.584-1.276,1.302-1.276s1.302,0.573,1.302,1.276C16.877,48.754,16.293,49.328,15.575,49.328L15.575,49.328z
		 M15.575,49.328"/>
	<path id="XMLID_12779_" fill="#F7EBCB" d="M44.804,18.686l-0.127-0.301c0.435-0.982,0.406-1.012,0.322-1.098l-0.557-0.541
		l-0.055-0.047h-0.064c-0.034,0-0.135,0-0.979,0.383l-0.311-0.125c-0.402-0.996-0.443-0.996-0.561-0.996H41.69
		c-0.117,0-0.163,0-0.535,0.999l-0.31,0.126c-0.57-0.24-0.904-0.363-0.995-0.363l-0.074,0.003l-0.597,0.585
		c-0.091,0.086-0.122,0.115,0.338,1.082l-0.128,0.301c-1.016,0.393-1.016,0.431-1.016,0.551v0.768c0,0.121,0,0.163,1.021,0.529
		l0.126,0.299c-0.435,0.981-0.406,1.012-0.321,1.096l0.556,0.543l0.055,0.048h0.064c0.033,0,0.133,0,0.979-0.384l0.31,0.126
		c0.402,0.995,0.443,0.995,0.562,0.995h0.783c0.12,0,0.162,0,0.535-0.998l0.312-0.127c0.569,0.241,0.903,0.363,0.993,0.363
		l0.074-0.002l0.602-0.59c0.086-0.086,0.116-0.115-0.342-1.078l0.126-0.3c1.019-0.394,1.019-0.436,1.019-0.552v-0.768
		C45.825,19.092,45.825,19.05,44.804,18.686L44.804,18.686z M42.099,20.89c-0.718,0-1.303-0.573-1.303-1.278
		c0-0.703,0.585-1.276,1.303-1.276c0.719,0,1.302,0.573,1.302,1.276C43.4,20.316,42.817,20.89,42.099,20.89L42.099,20.89z
		 M42.099,20.89"/>
	<path id="XMLID_12775_" fill="#F7EBCB" d="M87.944,2.724l-0.127-0.301c0.436-0.982,0.406-1.012,0.322-1.097l-0.556-0.542
		l-0.056-0.047h-0.064c-0.033,0-0.135,0-0.979,0.383l-0.311-0.125C85.773,0,85.732,0,85.614,0h-0.783c-0.117,0-0.162,0-0.535,0.998
		l-0.309,0.126c-0.57-0.241-0.905-0.363-0.995-0.363l-0.074,0.003l-0.597,0.585c-0.092,0.085-0.123,0.116,0.337,1.082l-0.127,0.301
		c-1.017,0.393-1.017,0.431-1.017,0.551V4.05c0,0.12,0,0.163,1.021,0.528l0.126,0.3c-0.435,0.981-0.405,1.011-0.32,1.095
		l0.555,0.544l0.056,0.048h0.063c0.034,0,0.135,0,0.979-0.385l0.31,0.127c0.402,0.994,0.443,0.994,0.561,0.994h0.783
		c0.121,0,0.162,0,0.535-0.998l0.312-0.126c0.569,0.241,0.903,0.364,0.993,0.364l0.074-0.002l0.602-0.59
		c0.086-0.086,0.116-0.116-0.341-1.079l0.126-0.3c1.018-0.394,1.018-0.436,1.018-0.553V3.251C88.966,3.13,88.966,3.088,87.944,2.724
		L87.944,2.724z M85.24,4.928c-0.718,0-1.303-0.573-1.303-1.278c0-0.704,0.585-1.276,1.303-1.276s1.302,0.572,1.302,1.276
		C86.542,4.354,85.958,4.928,85.24,4.928L85.24,4.928z M85.24,4.928"/>
	<path id="XMLID_12771_" fill="#F7EBCB" d="M85.238,226.15l-0.175-0.413c0.598-1.353,0.559-1.394,0.443-1.511l-0.766-0.746
		l-0.076-0.064h-0.089c-0.046,0-0.186,0-1.348,0.527l-0.427-0.172c-0.553-1.371-0.609-1.371-0.771-1.371h-1.078
		c-0.162,0-0.225,0-0.736,1.375l-0.427,0.173c-0.784-0.331-1.246-0.499-1.37-0.499l-0.102,0.004l-0.822,0.805
		c-0.125,0.118-0.168,0.16,0.465,1.49l-0.175,0.414c-1.399,0.54-1.399,0.593-1.399,0.758v1.058c0,0.165,0,0.225,1.404,0.728
		l0.174,0.412c-0.598,1.352-0.559,1.393-0.441,1.508l0.764,0.748l0.076,0.065h0.089c0.046,0,0.185,0,1.348-0.528l0.427,0.174
		c0.553,1.369,0.609,1.369,0.771,1.369h1.078c0.166,0,0.225,0,0.738-1.373l0.428-0.174c0.784,0.332,1.244,0.5,1.367,0.5l0.103-0.003
		l0.829-0.812c0.117-0.119,0.158-0.159-0.47-1.485l0.173-0.413c1.401-0.542,1.401-0.6,1.401-0.76v-1.057
		C86.645,226.71,86.645,226.652,85.238,226.15L85.238,226.15z M81.515,229.186c-0.989,0-1.793-0.789-1.793-1.76
		c0-0.969,0.804-1.758,1.793-1.758c0.988,0,1.792,0.789,1.792,1.758C83.307,228.396,82.503,229.186,81.515,229.186L81.515,229.186z
		 M81.515,229.186"/>
	<path id="XMLID_12767_" fill="#F7EBCB" d="M63.275,15.098l-0.276-0.655c0.947-2.142,0.885-2.206,0.701-2.393l-1.211-1.182
		l-0.121-0.102h-0.141c-0.073,0-0.294,0-2.135,0.835l-0.677-0.273c-0.876-2.17-0.965-2.17-1.222-2.17h-1.708
		c-0.257,0-0.354,0-1.167,2.178l-0.675,0.273c-1.243-0.524-1.974-0.791-2.17-0.791l-0.162,0.006L51.011,12.1
		c-0.197,0.187-0.267,0.253,0.735,2.36l-0.276,0.655c-2.217,0.855-2.217,0.939-2.217,1.201v1.675c0,0.263,0,0.356,2.226,1.153
		l0.275,0.652c-0.948,2.141-0.885,2.205-0.7,2.389l1.211,1.186l0.12,0.104h0.141c0.073,0,0.29,0,2.135-0.838l0.675,0.275
		c0.876,2.17,0.967,2.17,1.224,2.17h1.708c0.262,0,0.354,0,1.168-2.177l0.678-0.275c1.242,0.526,1.971,0.793,2.165,0.793
		l0.164-0.005l1.312-1.286c0.187-0.188,0.252-0.252-0.744-2.353l0.274-0.653c2.22-0.859,2.22-0.949,2.22-1.205v-1.673
		C65.503,15.984,65.503,15.893,63.275,15.098L63.275,15.098z M57.377,19.905c-1.565,0-2.84-1.25-2.84-2.787
		c0-1.535,1.274-2.784,2.84-2.784s2.839,1.249,2.839,2.784C60.216,18.655,58.942,19.905,57.377,19.905L57.377,19.905z
		 M57.377,19.905"/>
	<path id="XMLID_12763_" fill="#F7EBCB" d="M41.624,152.691l-0.277-0.654c0.948-2.143,0.885-2.207,0.701-2.394l-1.211-1.182
		l-0.121-0.102h-0.14c-0.073,0-0.294,0-2.136,0.835l-0.676-0.272c-0.877-2.171-0.965-2.171-1.223-2.171h-1.707
		c-0.257,0-0.355,0-1.167,2.178l-0.675,0.273c-1.244-0.524-1.974-0.791-2.17-0.791l-0.162,0.006l-1.302,1.275
		c-0.198,0.187-0.267,0.253,0.735,2.36l-0.276,0.655c-2.217,0.855-2.217,0.939-2.217,1.201v1.675c0,0.263,0,0.356,2.225,1.153
		l0.275,0.652c-0.947,2.141-0.884,2.205-0.699,2.389l1.21,1.186l0.121,0.104h0.14c0.073,0,0.291,0,2.136-0.838l0.674,0.275
		c0.877,2.17,0.967,2.17,1.224,2.17h1.708c0.263,0,0.354,0,1.168-2.177l0.679-0.275c1.242,0.526,1.97,0.793,2.165,0.793l0.164-0.005
		l1.312-1.285c0.187-0.188,0.252-0.253-0.744-2.354l0.273-0.653c2.22-0.859,2.22-0.949,2.22-1.204v-1.674
		C43.851,153.578,43.851,153.486,41.624,152.691L41.624,152.691z M35.726,157.5c-1.566,0-2.84-1.25-2.84-2.788
		c0-1.535,1.273-2.784,2.84-2.784c1.565,0,2.838,1.249,2.838,2.784C38.563,156.25,37.291,157.5,35.726,157.5L35.726,157.5z
		 M35.726,157.5"/>
	<path id="XMLID_12759_" fill="#F7EBCB" d="M21.474,60.375l-0.277-0.655c0.948-2.142,0.885-2.206,0.702-2.393l-1.212-1.182
		l-0.12-0.103h-0.141c-0.073,0-0.294,0-2.136,0.835l-0.676-0.272c-0.876-2.17-0.965-2.17-1.223-2.17h-1.707
		c-0.256,0-0.355,0-1.167,2.178l-0.675,0.273c-1.244-0.524-1.974-0.791-2.17-0.791l-0.162,0.006l-1.302,1.275
		c-0.198,0.187-0.267,0.253,0.735,2.36l-0.276,0.655c-2.217,0.855-2.217,0.939-2.217,1.201v1.675c0,0.263,0,0.355,2.225,1.153
		l0.276,0.652c-0.948,2.141-0.885,2.205-0.7,2.389l1.21,1.186l0.121,0.104h0.141c0.072,0,0.29,0,2.134-0.838l0.676,0.275
		c0.876,2.169,0.966,2.169,1.223,2.169h1.708c0.263,0,0.354,0,1.168-2.176l0.679-0.275c1.242,0.526,1.97,0.792,2.165,0.792
		l0.164-0.004l1.312-1.286c0.187-0.188,0.252-0.252-0.744-2.353l0.274-0.654c2.22-0.858,2.22-0.949,2.22-1.204v-1.673
		C23.701,61.262,23.701,61.17,21.474,60.375L21.474,60.375z M15.575,65.183c-1.566,0-2.84-1.25-2.84-2.787
		c0-1.536,1.273-2.784,2.84-2.784c1.565,0,2.839,1.248,2.839,2.784C18.414,63.933,17.141,65.183,15.575,65.183L15.575,65.183z
		 M15.575,65.183"/>
	<path id="XMLID_12758_" fill="#F7EBCB" d="M130.411,258.733c2.588,0,4.704-2.116,4.704-4.704c0-2.587-2.116-4.704-4.704-4.704
		h-0.226v-3.481h0.226c2.588,0,4.704-2.116,4.704-4.704c0-2.587-2.116-4.704-4.704-4.704h-4.277
		c-0.562-0.182-1.16-0.282-1.781-0.282H63.078c-0.621,0-1.219,0.101-1.781,0.282H57.02c-2.587,0-4.704,2.117-4.704,4.704
		c0,2.588,2.117,4.704,4.704,4.704h0.226v3.481H57.02c-2.587,0-4.704,2.117-4.704,4.704c0,2.588,2.117,4.704,4.704,4.704h0.226
		v3.481H57.02c-2.587,0-4.704,2.117-4.704,4.704s2.117,4.704,4.704,4.704h0.226v3.857c0,3.208,2.625,5.833,5.833,5.833
		c0,0,18.915,17.312,25.888,17.312c2.421,0,3.731,0,4.413,0c0.137,0,0.246,0,0.337,0c0.269,0,0.348,0,0.336,0
		c0.682,0,1.992,0,4.412,0c6.974,0,25.889-17.312,25.889-17.312c3.208,0,5.833-2.625,5.833-5.833v-3.857h0.226
		c2.588,0,4.704-2.117,4.704-4.704s-2.116-4.704-4.704-4.704h-0.226v-3.481H130.411z"/>
</g>
</svg>
