<?xml version="1.0" encoding="utf-8"?>
<!-- Generator: Adobe Illustrator 16.0.0, SVG Export Plug-In . SVG Version: 6.00 Build 0)  -->
<!DOCTYPE svg PUBLIC "-//W3C//DTD SVG 1.1//EN" "http://www.w3.org/Graphics/SVG/1.1/DTD/svg11.dtd">
<svg version="1.1" id="Layer_1" xmlns="http://www.w3.org/2000/svg" xmlns:xlink="http://www.w3.org/1999/xlink" x="0px" y="0px"
	 width="57.349px" height="60.84px" viewBox="0 0 57.349 60.84" enable-background="new 0 0 57.349 60.84" xml:space="preserve">
<g id="XMLID_4435_">
	<rect id="XMLID_5415_" x="2.967" y="9.888" fill="#F78B36" width="51.416" height="29.664"/>
	<g id="XMLID_4436_">
		<path id="XMLID_5411_" fill="#51564D" d="M31.459,3.955c0.11-0.311,0.182-0.641,0.182-0.989C31.641,1.331,30.31,0,28.675,0
			c-1.636,0-2.967,1.331-2.967,2.966c0,0.348,0.071,0.678,0.183,0.989H0v5.933h57.349V3.955H31.459z M27.686,2.966
			c0-0.546,0.443-0.989,0.989-0.989s0.988,0.443,0.988,0.989s-0.442,0.989-0.988,0.989S27.686,3.512,27.686,2.966z M55.371,7.91
			H1.978V5.933h53.394V7.91z"/>
		<path id="XMLID_4451_" fill="#51564D" d="M0,45.483h19.97l-8.942,14.308l1.676,1.05l9.598-15.357h5.385v14.832h1.978V45.483h5.385
			l9.597,15.355l1.677-1.049L37.38,45.483h19.969v-5.932H0V45.483z M1.978,41.528h53.394v1.979H1.978V41.528z"/>
		<path id="XMLID_4437_" fill="#F7EBCB" d="M7.91,34.607v2.966h5.933v-2.966c0-1.032-0.53-1.94-1.333-2.472
			c0.803-0.532,1.333-1.44,1.333-2.472c0-1.288-0.829-2.375-1.978-2.785v-1.17h9.888v1.17c-1.147,0.41-1.978,1.497-1.978,2.785
			c0,1.032,0.531,1.94,1.333,2.472c-0.802,0.531-1.333,1.439-1.333,2.472v2.966h5.933v-2.966c0-1.032-0.531-1.94-1.333-2.472
			c0.802-0.532,1.333-1.44,1.333-2.472c0-1.288-0.829-2.375-1.978-2.785v-1.17h9.888v1.17c-1.147,0.41-1.978,1.497-1.978,2.785
			c0,1.032,0.531,1.94,1.333,2.472c-0.802,0.531-1.333,1.439-1.333,2.472v2.966h5.933v-2.966c0-1.032-0.53-1.94-1.333-2.472
			c0.803-0.532,1.333-1.44,1.333-2.472c0-1.288-0.829-2.375-1.978-2.785v-1.17h9.888v1.17c-1.147,0.41-1.978,1.497-1.978,2.785
			c0,1.032,0.531,1.94,1.333,2.472c-0.802,0.531-1.333,1.439-1.333,2.472v2.966h5.933v-2.966c0-1.032-0.53-1.94-1.333-2.472
			c0.803-0.532,1.333-1.44,1.333-2.472c0-1.288-0.829-2.375-1.978-2.785V23.73H29.663v-1.978h1.978v-2.966
			c0-1.032-0.531-1.94-1.333-2.472c0.802-0.532,1.333-1.439,1.333-2.472c0-1.636-1.331-2.966-2.966-2.966
			c-1.636,0-2.967,1.331-2.967,2.966c0,1.032,0.531,1.94,1.333,2.472c-0.802,0.532-1.333,1.44-1.333,2.472v2.966h1.978v1.978H9.888
			v3.148c-1.147,0.41-1.978,1.497-1.978,2.785c0,1.032,0.531,1.94,1.333,2.472C8.441,32.667,7.91,33.575,7.91,34.607z
			 M22.742,28.674c0.546,0,0.988,0.443,0.988,0.989c0,0.545-0.442,0.989-0.988,0.989s-0.989-0.443-0.989-0.989
			C21.753,29.117,22.196,28.674,22.742,28.674z M23.73,35.596h-1.978v-0.989c0-0.546,0.443-0.989,0.989-0.989
			s0.988,0.443,0.988,0.989V35.596z M34.607,28.674c0.545,0,0.988,0.443,0.988,0.989c0,0.545-0.443,0.989-0.988,0.989
			c-0.546,0-0.989-0.443-0.989-0.989C33.618,29.117,34.062,28.674,34.607,28.674z M35.596,35.596h-1.978v-0.989
			c0-0.546,0.443-0.989,0.989-0.989c0.545,0,0.988,0.443,0.988,0.989V35.596z M46.473,28.674c0.545,0,0.988,0.443,0.988,0.989
			c0,0.545-0.443,0.989-0.988,0.989c-0.546,0-0.989-0.443-0.989-0.989C45.483,29.117,45.927,28.674,46.473,28.674z M47.461,35.596
			h-1.978v-0.989c0-0.546,0.443-0.989,0.989-0.989c0.545,0,0.988,0.443,0.988,0.989V35.596z M29.663,19.775h-1.978v-0.989
			c0-0.546,0.443-0.989,0.989-0.989s0.988,0.443,0.988,0.989V19.775z M28.675,12.854c0.546,0,0.988,0.443,0.988,0.989
			s-0.442,0.989-0.988,0.989s-0.989-0.443-0.989-0.989S28.129,12.854,28.675,12.854z M11.865,35.596H9.888v-0.989
			c0-0.546,0.443-0.989,0.989-0.989s0.988,0.443,0.988,0.989V35.596z M10.877,28.674c0.546,0,0.988,0.443,0.988,0.989
			c0,0.545-0.442,0.989-0.988,0.989s-0.989-0.443-0.989-0.989C9.888,29.117,10.331,28.674,10.877,28.674z"/>
	</g>
</g>
</svg>
