<?xml version="1.0" encoding="utf-8"?>
<!-- Generator: Adobe Illustrator 16.0.0, SVG Export Plug-In . SVG Version: 6.00 Build 0)  -->
<!DOCTYPE svg PUBLIC "-//W3C//DTD SVG 1.1//EN" "http://www.w3.org/Graphics/SVG/1.1/DTD/svg11.dtd">
<svg version="1.1" id="Layer_1" xmlns="http://www.w3.org/2000/svg" xmlns:xlink="http://www.w3.org/1999/xlink" x="0px" y="0px"
	 width="42.148px" height="59.391px" viewBox="0 0 42.148 59.391" enable-background="new 0 0 42.148 59.391" xml:space="preserve">
<g id="XMLID_11314_">
	<path id="XMLID_11564_" fill="#F78B36" d="M20.115,38.316H13.41v-3.929c-0.318-0.122-0.637-0.255-0.954-0.399l-2.78,2.781
		l-8.129-8.129l2.781-2.78c-0.145-0.317-0.277-0.636-0.399-0.954H0V13.411h3.929c0.122-0.318,0.255-0.637,0.399-0.954L1.547,9.676
		l8.129-8.127l2.78,2.78c0.317-0.145,0.636-0.278,0.954-0.399V0h6.705v11.495h-0.957c-4.226,0-7.664,3.438-7.664,7.663
		c0,4.226,3.438,7.664,7.664,7.664h0.957V38.316z"/>
	<g id="XMLID_11358_">
		<path id="XMLID_11563_" fill="#51564D" d="M42.148,18.201c0-1.92-0.831-3.743-2.256-5.01c0.227-0.702,0.34-1.431,0.34-2.175
			c0-3.895-3.115-7.075-6.984-7.182C31.766,1.455,29.171,0,26.342,0c-1.771,0-3.461,0.567-4.887,1.64l1.152,1.53
			c1.09-0.82,2.383-1.254,3.734-1.254c2.318,0,4.431,1.279,5.514,3.337l0.286,0.546l0.729-0.043
			c0.059-0.003,0.117-0.008,0.178-0.008c2.904,0,5.269,2.363,5.269,5.269c0,0.37-0.039,0.735-0.116,1.093
			c-0.86-0.391-1.788-0.614-2.758-0.614c-3.696,0-6.705,3.009-6.705,6.706h1.915c0-2.642,2.149-4.79,4.79-4.79
			c1.025,0,1.993,0.325,2.815,0.925c1.236,0.902,1.975,2.34,1.975,3.865c0,1.243-0.478,2.421-1.344,3.32l-0.441,0.457l0.25,0.584
			c0.383,0.895,0.577,1.845,0.577,2.822c0,2.742-1.55,5.152-3.901,6.359c0.047-0.36,0.069-0.725,0.069-1.09
			c0-4.755-3.867-8.622-8.621-8.622v1.916c3.696,0,6.705,3.009,6.705,6.706c0,0.793-0.149,1.576-0.419,2.314
			c-0.97,2.626-3.494,4.391-6.286,4.391c-1.537,0-2.987-0.511-4.19-1.477l-1.199,1.495c1.547,1.241,3.412,1.897,5.39,1.897
			c3.148,0,6.015-1.756,7.518-4.461l0.026,0.015c0.114-0.208,0.206-0.427,0.305-0.643c0.015-0.034,0.036-0.063,0.051-0.097
			c3.833-1.151,6.469-4.662,6.469-8.705c0-1.032-0.171-2.04-0.508-3.004C41.631,21.195,42.148,19.733,42.148,18.201z"/>
		<path id="XMLID_11384_" fill="#51564D" d="M31.61,46.459c0-1.849-1.503-3.353-3.353-3.353H11.974
			c-1.849,0-3.353,1.504-3.353,3.353c0,1.201,0.641,2.25,1.593,2.842c-0.396,0.551-0.636,1.22-0.636,1.948
			c0,1.201,0.642,2.249,1.594,2.841c-0.396,0.551-0.635,1.221-0.635,1.948c0,1.849,1.504,3.353,3.352,3.353h12.453
			c1.85,0,3.354-1.504,3.354-3.353c0-0.728-0.24-1.397-0.636-1.948c0.952-0.592,1.593-1.64,1.593-2.841
			c0-0.729-0.239-1.397-0.635-1.948C30.97,48.709,31.61,47.66,31.61,46.459z M11.974,45.022h16.284c0.793,0,1.438,0.645,1.438,1.437
			c0,0.793-0.645,1.438-1.438,1.438h-0.957H12.932h-0.958c-0.792,0-1.437-0.645-1.437-1.438
			C10.537,45.667,11.182,45.022,11.974,45.022z M27.301,52.686h-0.959H13.889h-0.957c-0.793,0-1.438-0.645-1.438-1.437
			s0.645-1.437,1.438-1.437h14.369c0.791,0,1.437,0.645,1.437,1.437S28.092,52.686,27.301,52.686z M26.342,57.476H13.889
			c-0.792,0-1.437-0.645-1.437-1.438c0-0.792,0.645-1.437,1.437-1.437h12.453c0.793,0,1.438,0.645,1.438,1.437
			C27.779,56.831,27.135,57.476,26.342,57.476z"/>
	</g>
</g>
</svg>
