<?xml version="1.0" encoding="utf-8"?>
<!-- Generator: Adobe Illustrator 16.0.0, SVG Export Plug-In . SVG Version: 6.00 Build 0)  -->
<!DOCTYPE svg PUBLIC "-//W3C//DTD SVG 1.1//EN" "http://www.w3.org/Graphics/SVG/1.1/DTD/svg11.dtd">
<svg version="1.1" id="Layer_1" xmlns="http://www.w3.org/2000/svg" xmlns:xlink="http://www.w3.org/1999/xlink" x="0px" y="0px"
	 width="54.791px" height="47.177px" viewBox="0 0 54.791 47.177" enable-background="new 0 0 54.791 47.177" xml:space="preserve">
<g id="XMLID_11789_">
	<g id="XMLID_11813_">
		<path id="XMLID_11816_" fill="#51564D" d="M23.588,0C10.562,0,0,10.559,0,23.588c0,13.028,10.562,23.589,23.588,23.589
			c7.107,0,13.072-3.39,17.799-8.118c3.492-3.477,9.039-9.008,11.426-11.395c2.574-2.575,2.699-5.422,0-8.124
			c-2.39-2.389-7.936-7.934-11.426-11.423C36.762,3.492,30.696,0,23.588,0z"/>
		<circle id="XMLID_11815_" fill="#F78B36" cx="23.431" cy="23.588" r="21.089"/>
		<circle id="XMLID_11814_" fill="#5D5D5D" cx="23.432" cy="23.588" r="17.715"/>
	</g>
	<path id="XMLID_11790_" fill="#F7EBCB" d="M15.08,23.832h-4.504c0.008,2.521,0.752,4.867,2.031,6.838
		c1.008-0.456,2.074-0.85,3.185-1.172C15.365,27.705,15.119,25.804,15.08,23.832z M17.053,29.169
		c1.764-0.413,3.631-0.652,5.566-0.69v-4.646h-6.236C16.422,25.692,16.653,27.483,17.053,29.169z M17.317,12.603
		c-1.237,0.655-2.356,1.511-3.306,2.521c0.674,0.275,1.375,0.521,2.1,0.734C16.44,14.72,16.846,13.631,17.317,12.603z M19.93,36.01
		c0.863,0.232,1.763,0.377,2.689,0.421v-6.652c-1.822,0.04-3.577,0.265-5.232,0.649C17.997,32.499,18.863,34.385,19.93,36.01z
		 M32.469,15.148c-0.93-0.993-2.017-1.837-3.223-2.489c0.463,1.011,0.857,2.081,1.184,3.198
		C31.131,15.649,31.811,15.412,32.469,15.148z M16.389,22.53h6.23v-4.365c-1.939-0.046-3.814-0.292-5.582-0.713
		C16.662,19.06,16.438,20.765,16.389,22.53z M22.619,11.154c-1.199,0.057-2.354,0.279-3.441,0.646
		c-0.734,1.334-1.346,2.81-1.811,4.391c1.661,0.395,3.423,0.627,5.252,0.671V11.154z M13.39,31.747
		c1.23,1.521,2.808,2.751,4.608,3.569c-0.762-1.396-1.395-2.926-1.873-4.559C15.172,31.035,14.259,31.367,13.39,31.747z
		 M28.567,35.264c1.746-0.812,3.276-2.013,4.479-3.491c-0.843-0.37-1.727-0.696-2.646-0.971
		C29.93,32.399,29.311,33.896,28.567,35.264z M27.379,11.836c-1.092-0.38-2.252-0.613-3.459-0.677v5.703
		c1.829-0.044,3.59-0.276,5.25-0.671C28.711,14.623,28.105,13.16,27.379,11.836z M15.779,17.117
		c-0.918-0.27-1.802-0.588-2.648-0.948c-1.366,1.804-2.258,3.986-2.492,6.361h4.447C15.135,20.651,15.375,18.836,15.779,17.117z
		 M30.735,29.543c1.08,0.321,2.116,0.708,3.096,1.155c1.29-1.975,2.042-4.332,2.05-6.866h-4.422
		C31.419,25.82,31.168,27.736,30.735,29.543z M31.453,22.53h4.366c-0.234-2.364-1.118-4.536-2.473-6.337
		c-0.827,0.352-1.693,0.662-2.588,0.925C31.164,18.836,31.402,20.651,31.453,22.53z M29.5,17.452
		c-1.768,0.421-3.639,0.667-5.58,0.713v4.365h6.231C30.102,20.765,29.875,19.06,29.5,17.452z M30.156,23.832H23.92v4.648
		c1.934,0.051,3.797,0.302,5.558,0.725C29.883,27.509,30.117,25.705,30.156,23.832z M29.142,30.465
		c-1.65-0.396-3.403-0.633-5.222-0.681v6.642c0.933-0.051,1.839-0.201,2.707-0.443C27.678,34.374,28.534,32.51,29.142,30.465z"/>
</g>
</svg>
