<?xml version="1.0" encoding="utf-8"?>
<!-- Generator: Adobe Illustrator 16.0.0, SVG Export Plug-In . SVG Version: 6.00 Build 0)  -->
<!DOCTYPE svg PUBLIC "-//W3C//DTD SVG 1.1//EN" "http://www.w3.org/Graphics/SVG/1.1/DTD/svg11.dtd">
<svg version="1.1" id="Layer_1" xmlns="http://www.w3.org/2000/svg" xmlns:xlink="http://www.w3.org/1999/xlink" x="0px" y="0px"
	 width="133.346px" height="219.377px" viewBox="0 0 133.346 219.377" enable-background="new 0 0 133.346 219.377"
	 xml:space="preserve">
<g>
	<g id="XMLID_4449_">
		<path fill-rule="evenodd" clip-rule="evenodd" fill="#FFFFFF" d="M133.346,109.689c0-40.77-14.402-78.571-38.954-109.689H0
			v219.377h94.393C118.943,188.26,133.346,150.458,133.346,109.689z"/>
	</g>
	<g id="XMLID_4263_">
		<path id="XMLID_4842_" fill-rule="evenodd" clip-rule="evenodd" d="M63.782,68.3c5.025,0.018,9.106,4.154,9.089,9.207
			c-0.018,5.053-4.127,9.16-9.152,9.143c-5.023-0.018-9.109-4.152-9.092-9.205C54.645,72.392,58.759,68.283,63.782,68.3"/>
		<path id="XMLID_4836_" fill-rule="evenodd" clip-rule="evenodd" d="M30.458,97.797v0.034l-0.045,0.337
			c-0.001,0.473,0.265,0.826,0.802,1.059c0.541,0.232,1.375,0.351,2.506,0.354c0.86,0.003,1.534-0.091,2.023-0.278
			c0.492-0.188,0.738-0.446,0.739-0.777c0.001-0.502-0.967-0.908-2.896-1.231c-0.226-0.037-0.394-0.065-0.504-0.082
			c-0.124-0.023-0.305-0.054-0.542-0.092c-3.064-0.513-5.037-1.063-5.905-1.653c-0.423-0.291-0.747-0.627-0.965-1.018
			c-0.209-0.391-0.317-0.834-0.316-1.319c0.004-1.2,0.711-2.11,2.123-2.732c1.411-0.622,3.475-0.929,6.188-0.919
			c2.683,0.009,4.668,0.309,5.958,0.9c1.289,0.595,1.933,1.504,1.929,2.721l0,0.142l-5.08-0.018V93.17
			c0.001-0.422-0.25-0.737-0.764-0.954c-0.514-0.219-1.269-0.331-2.259-0.334c-0.77-0.002-1.365,0.071-1.779,0.224
			c-0.42,0.153-0.63,0.374-0.631,0.656c-0.001,0.508,1.104,0.942,3.317,1.309c0.425,0.064,0.761,0.119,1.003,0.157
			c1.577,0.269,2.7,0.5,3.368,0.693c0.668,0.19,1.243,0.417,1.729,0.676c0.537,0.297,0.959,0.674,1.249,1.126
			c0.292,0.452,0.438,0.946,0.436,1.486c-0.004,1.235-0.777,2.182-2.312,2.843c-1.538,0.661-3.751,0.986-6.632,0.977
			c-2.849-0.01-4.91-0.337-6.184-0.981c-1.273-0.647-1.9-1.674-1.896-3.089l0-0.18L30.458,97.797z M44.359,101.863L44.4,89.701
			l14.479,0.05l-0.009,2.622l-9.043-0.031l-0.007,1.938l8.362,0.029l-0.009,2.587l-8.362-0.028l-0.008,2.359l9.387,0.032
			l-0.009,2.655L44.359,101.863z M61.451,101.921l0.042-12.162l6.881,0.023l7.336,8.185l0.028-8.159l5.224,0.018l-0.042,12.162
			l-7.137-0.024l-7.097-8.213l-0.028,8.189L61.451,101.921z M94.984,97.186l-2.588-4.429l-2.766,4.411L94.984,97.186z
			 M86.684,102.008l-5.451-0.019l8.458-12.133l6.031,0.021l7.987,12.189l-6.055-0.021l-1.219-2.2L88,99.817L86.684,102.008z"/>
		<path id="XMLID_4835_" fill-rule="evenodd" clip-rule="evenodd" d="M36.982,144.712l-4.841-4.582l14.874-25.61
			c0.811-1.397-0.192-3.149-1.807-3.155l-24.206-0.082l0.022-6.42l38.959,0.134L36.982,144.712z"/>
		<path id="XMLID_4834_" fill-rule="evenodd" clip-rule="evenodd" d="M89.634,144.893l4.872-4.549l-14.697-25.712
			c-0.801-1.402,0.214-3.147,1.829-3.142l24.206,0.083l0.021-6.419l-38.959-0.134L89.634,144.893z"/>
		<path id="XMLID_4833_" fill-rule="evenodd" clip-rule="evenodd" d="M63.368,111.792l0.053-0.09l21.829,36.362l-5.84,3.013
			l-14.064-23.74c-0.828-1.398-2.851-1.407-3.684-0.012c-4.743,7.932-14.135,23.643-14.135,23.643l-5.697-2.842
			C41.83,148.126,62.189,113.784,63.368,111.792"/>
	</g>
</g>
</svg>
