<?xml version="1.0" encoding="utf-8"?>
<!-- Generator: Adobe Illustrator 19.0.0, SVG Export Plug-In . SVG Version: 6.00 Build 0)  -->
<svg version="1.1" id="Capa_1" xmlns="http://www.w3.org/2000/svg" xmlns:xlink="http://www.w3.org/1999/xlink" x="0px" y="0px"
	 viewBox="0 0 228 122.4" style="enable-background:new 0 0 228 122.4;" xml:space="preserve">
<style type="text/css">
	.st0{fill:#D3712F;}
	.st1{fill-rule:evenodd;clip-rule:evenodd;fill:#FFFFFF;}
	.st2{fill-rule:evenodd;clip-rule:evenodd;}
</style>
<g id="XMLID_5135_">
	<path id="XMLID_5172_" class="st0" d="M226.9,23.9C218,20.5,159.2-1.3,114,0.1C68.8-1.3,10,20.5,1.1,23.9c-0.6,0.2-1,0.7-1.1,1.3
		v11.5c0-0.6,0.3-1.2,0.8-1.5C32.3,13.5,70.4,0.7,111.5,0.2c0,0,0,0,0,0c0.8,0,1.6,0,2.4,0c0,0,0,0,0,0s0,0,0,0c0.8,0,1.6,0,2.4,0
		c0,0,0,0,0,0c41.1,0.5,79.2,13.4,110.7,35.1c0.5,0.3,0.8,0.9,0.8,1.5V25.2C227.9,24.6,227.5,24.1,226.9,23.9z"/>
	<g id="XMLID_5162_">
		<path id="XMLID_14_" class="st1" d="M114,0.3C71.6,0.3,32.3,13.5,0,36v86.4h228V36C195.7,13.5,156.4,0.3,114,0.3z"/>
	</g>
	<g id="XMLID_5144_">
		<path id="XMLID_5161_" class="st2" d="M114.2,24.7c4.5,0,8.1,3.7,8.1,8.1c0,4.5-3.6,8.1-8.1,8.1c-4.5,0-8.1-3.7-8.1-8.1
			C106.1,28.4,109.7,24.7,114.2,24.7"/>
		<path id="XMLID_5154_" class="st2" d="M84.7,50.9L84.7,50.9l0,0.3c0,0.4,0.2,0.7,0.7,0.9c0.5,0.2,1.2,0.3,2.2,0.3
			c0.8,0,1.4-0.1,1.8-0.3c0.4-0.2,0.7-0.4,0.7-0.7c0-0.4-0.9-0.8-2.6-1.1c-0.2,0-0.3-0.1-0.4-0.1c-0.1,0-0.3,0-0.5-0.1
			c-2.7-0.4-4.5-0.9-5.2-1.4c-0.4-0.3-0.7-0.6-0.9-0.9c-0.2-0.3-0.3-0.7-0.3-1.2c0-1.1,0.6-1.9,1.9-2.4c1.2-0.6,3.1-0.8,5.5-0.8
			c2.4,0,4.1,0.3,5.3,0.8c1.1,0.5,1.7,1.3,1.7,2.4v0.1h-4.5v0c0-0.4-0.2-0.7-0.7-0.8c-0.5-0.2-1.1-0.3-2-0.3c-0.7,0-1.2,0.1-1.6,0.2
			c-0.4,0.1-0.6,0.3-0.6,0.6c0,0.5,1,0.8,2.9,1.1c0.4,0.1,0.7,0.1,0.9,0.1c1.4,0.2,2.4,0.4,3,0.6c0.6,0.2,1.1,0.4,1.5,0.6
			c0.5,0.3,0.9,0.6,1.1,1c0.3,0.4,0.4,0.8,0.4,1.3c0,1.1-0.7,1.9-2,2.5c-1.4,0.6-3.3,0.9-5.9,0.9c-2.5,0-4.4-0.3-5.5-0.9
			c-1.1-0.6-1.7-1.5-1.7-2.7v-0.2H84.7z M97.1,54.5V43.7h12.8v2.3h-8v1.7h7.4v2.3h-7.4v2.1h8.3v2.4H97.1z M112.2,54.5V43.7h6.1
			l6.5,7.2v-7.2h4.6v10.8h-6.3l-6.3-7.3v7.3H112.2z M141.9,50.2l-2.3-3.9l-2.4,3.9H141.9z M134.6,54.5h-4.8l7.5-10.8h5.3l7.1,10.8
			h-5.4l-1.1-1.9h-7.5L134.6,54.5z"/>
		<path id="XMLID_5153_" class="st2" d="M90.7,92.5l-4.3-4l13.1-22.7c0.7-1.2-0.2-2.8-1.6-2.8H76.4v-5.7h34.5L90.7,92.5z"/>
		<path id="XMLID_5146_" class="st2" d="M137.3,92.5l4.3-4l-13.1-22.7c-0.7-1.2,0.2-2.8,1.6-2.8h21.5v-5.7h-34.5L137.3,92.5z"/>
		<path id="XMLID_5145_" class="st2" d="M114,63.2L114,63.2l19.5,32.1l-5.2,2.7l-12.5-21c-0.7-1.2-2.5-1.2-3.3,0
			c-4.2,7-12.5,21-12.5,21L95,95.5C95,95.5,112.9,65,114,63.2"/>
	</g>
</g>
</svg>
