<?xml version="1.0" encoding="utf-8"?>
<!-- Generator: Adobe Illustrator 16.0.0, SVG Export Plug-In . SVG Version: 6.00 Build 0)  -->
<!DOCTYPE svg PUBLIC "-//W3C//DTD SVG 1.1//EN" "http://www.w3.org/Graphics/SVG/1.1/DTD/svg11.dtd">
<svg version="1.1" id="Layer_1" xmlns="http://www.w3.org/2000/svg" xmlns:xlink="http://www.w3.org/1999/xlink" x="0px" y="0px"
	 width="269.294px" height="205.84px" viewBox="0 0 269.294 205.84" enable-background="new 0 0 269.294 205.84"
	 xml:space="preserve">
<g id="XMLID_13071_">
	<g id="XMLID_17256_">
		<path id="XMLID_17262_" fill="#0E2A30" d="M269.294,165.277V12.599c0-6.93-5.668-12.599-12.598-12.599H12.6
			C5.67,0,0,5.669,0,12.599v152.679H269.294z"/>
		<rect id="XMLID_17261_" x="8.663" y="9.448" fill="#F9F9F9" width="251.969" height="146.459"/>
		<rect id="XMLID_17260_" x="8.663" y="9.448" fill="#BDB39D" width="251.969" height="6.266"/>
		<rect id="XMLID_17259_" x="117.861" y="179.557" fill="#FFFFFF" width="33.575" height="20.954"/>
		<path id="XMLID_17258_" fill="#FFFFFF" d="M171.006,205.84H98.292c-2.092,0-2.092-6.781,0-6.781h72.714
			C173.095,199.059,173.095,205.84,171.006,205.84z"/>
		<path id="XMLID_17257_" fill="#FFFFFF" d="M0,161.563v7.797c0,6.929,5.67,12.6,12.6,12.6h244.097c6.93,0,12.598-5.671,12.598-12.6
			v-7.797H0z"/>
	</g>
	<g id="XMLID_13072_">
		<g id="XMLID_17084_">
			<g id="XMLID_17174_">
				<rect id="XMLID_17197_" x="172.026" y="41.468" fill="#599C5B" width="27.188" height="113.827"/>
				<g id="XMLID_17192_">
					<circle id="XMLID_17196_" fill="#51564D" cx="185.438" cy="140.812" r="6.019"/>
					<path id="XMLID_17193_" fill="#FFFFFF" d="M185.439,147.613c-3.751,0-6.802-3.051-6.802-6.801s3.051-6.802,6.802-6.802
						c3.75,0,6.801,3.052,6.801,6.802S189.189,147.613,185.439,147.613z M185.439,135.579c-2.887,0-5.235,2.348-5.235,5.233
						s2.349,5.235,5.235,5.235c2.886,0,5.234-2.35,5.234-5.235S188.325,135.579,185.439,135.579z"/>
				</g>
				<rect id="XMLID_17191_" x="177.795" y="44.588" fill="#FFFFFF" width="15.97" height="80.445"/>
				<g id="XMLID_17175_">
					<g id="XMLID_17185_">
						<rect id="XMLID_17190_" x="178.947" y="54.86" fill="#B0B0B0" width="5.844" height="1.41"/>
						<rect id="XMLID_17189_" x="178.947" y="60.632" fill="#B0B0B0" width="12.913" height="1.409"/>
						<rect id="XMLID_17188_" x="178.947" y="63.837" fill="#B0B0B0" width="12.913" height="1.411"/>
						<rect id="XMLID_17187_" x="178.947" y="67.042" fill="#B0B0B0" width="12.913" height="1.41"/>
						<rect id="XMLID_17186_" x="178.947" y="70.248" fill="#B0B0B0" width="12.913" height="1.411"/>
					</g>
					<g id="XMLID_17180_">
						<rect id="XMLID_17184_" x="178.947" y="73.459" fill="#B0B0B0" width="12.913" height="1.41"/>
						<rect id="XMLID_17183_" x="178.947" y="76.665" fill="#B0B0B0" width="12.913" height="1.41"/>
						<rect id="XMLID_17182_" x="178.947" y="79.871" fill="#B0B0B0" width="12.913" height="1.409"/>
						<rect id="XMLID_17181_" x="178.947" y="83.077" fill="#B0B0B0" width="12.913" height="1.411"/>
					</g>
					<g id="XMLID_17176_">
						<rect id="XMLID_17179_" x="178.947" y="86.268" fill="#B0B0B0" width="12.913" height="1.409"/>
						<rect id="XMLID_17178_" x="178.947" y="89.473" fill="#B0B0B0" width="12.913" height="1.411"/>
						<rect id="XMLID_17177_" x="178.947" y="92.679" fill="#B0B0B0" width="12.913" height="1.412"/>
					</g>
				</g>
			</g>
			<g id="XMLID_17150_">
				<rect id="XMLID_17173_" x="143.732" y="41.468" fill="#F76881" width="27.188" height="113.827"/>
				<g id="XMLID_17168_">
					<circle id="XMLID_17172_" fill="#51564D" cx="157.144" cy="140.812" r="6.019"/>
					<path id="XMLID_17169_" fill="#FFFFFF" d="M157.145,147.613c-3.751,0-6.803-3.051-6.803-6.801s3.052-6.802,6.803-6.802
						c3.75,0,6.801,3.052,6.801,6.802S160.895,147.613,157.145,147.613z M157.145,135.579c-2.887,0-5.235,2.348-5.235,5.233
						s2.349,5.235,5.235,5.235c2.886,0,5.235-2.35,5.235-5.235S160.03,135.579,157.145,135.579z"/>
				</g>
				<rect id="XMLID_17167_" x="149.5" y="44.588" fill="#FFFFFF" width="15.97" height="80.445"/>
				<g id="XMLID_17151_">
					<g id="XMLID_17161_">
						<rect id="XMLID_17166_" x="150.652" y="54.86" fill="#B0B0B0" width="5.844" height="1.41"/>
						<rect id="XMLID_17165_" x="150.652" y="60.632" fill="#B0B0B0" width="12.914" height="1.409"/>
						<rect id="XMLID_17164_" x="150.652" y="63.837" fill="#B0B0B0" width="12.914" height="1.411"/>
						<rect id="XMLID_17163_" x="150.652" y="67.042" fill="#B0B0B0" width="12.914" height="1.41"/>
						<rect id="XMLID_17162_" x="150.652" y="70.248" fill="#B0B0B0" width="12.914" height="1.411"/>
					</g>
					<g id="XMLID_17156_">
						<rect id="XMLID_17160_" x="150.652" y="73.459" fill="#B0B0B0" width="12.914" height="1.41"/>
						<rect id="XMLID_17159_" x="150.652" y="76.665" fill="#B0B0B0" width="12.914" height="1.41"/>
						<rect id="XMLID_17158_" x="150.652" y="79.871" fill="#B0B0B0" width="12.914" height="1.409"/>
						<rect id="XMLID_17157_" x="150.652" y="83.077" fill="#B0B0B0" width="12.914" height="1.411"/>
					</g>
					<g id="XMLID_17152_">
						<rect id="XMLID_17155_" x="150.652" y="86.268" fill="#B0B0B0" width="12.914" height="1.409"/>
						<rect id="XMLID_17154_" x="150.652" y="89.473" fill="#B0B0B0" width="12.914" height="1.411"/>
						<rect id="XMLID_17153_" x="150.652" y="92.679" fill="#B0B0B0" width="12.914" height="1.412"/>
					</g>
				</g>
			</g>
			<g id="XMLID_17122_">
				<rect id="XMLID_17149_" x="200.321" y="41.468" fill="#F76881" width="27.188" height="113.827"/>
				<g id="XMLID_17144_">
					<circle id="XMLID_17148_" fill="#51564D" cx="213.733" cy="140.812" r="6.02"/>
					<path id="XMLID_17145_" fill="#FFFFFF" d="M213.733,147.613c-3.751,0-6.802-3.051-6.802-6.801s3.051-6.802,6.802-6.802
						s6.803,3.052,6.803,6.802S217.484,147.613,213.733,147.613z M213.733,135.579c-2.886,0-5.235,2.348-5.235,5.233
						s2.35,5.235,5.235,5.235c2.887,0,5.236-2.35,5.236-5.235S216.62,135.579,213.733,135.579z"/>
				</g>
				<rect id="XMLID_17143_" x="206.09" y="44.588" fill="#FFFFFF" width="15.97" height="80.445"/>
				<g id="XMLID_17123_">
					<g id="XMLID_17137_">
						<rect id="XMLID_17142_" x="207.242" y="54.86" fill="#B0B0B0" width="5.844" height="1.41"/>
						<rect id="XMLID_17141_" x="207.242" y="60.632" fill="#B0B0B0" width="12.913" height="1.409"/>
						<rect id="XMLID_17140_" x="207.242" y="63.837" fill="#B0B0B0" width="12.913" height="1.411"/>
						<rect id="XMLID_17139_" x="207.242" y="67.042" fill="#B0B0B0" width="12.913" height="1.41"/>
						<rect id="XMLID_17138_" x="207.242" y="70.248" fill="#B0B0B0" width="12.913" height="1.411"/>
					</g>
					<g id="XMLID_17132_">
						<rect id="XMLID_17136_" x="207.242" y="73.459" fill="#B0B0B0" width="12.913" height="1.41"/>
						<rect id="XMLID_17135_" x="207.242" y="76.665" fill="#B0B0B0" width="12.913" height="1.41"/>
						<rect id="XMLID_17134_" x="207.242" y="79.871" fill="#B0B0B0" width="12.913" height="1.409"/>
						<rect id="XMLID_17133_" x="207.242" y="83.077" fill="#B0B0B0" width="12.913" height="1.411"/>
					</g>
					<g id="XMLID_17124_">
						<rect id="XMLID_17131_" x="207.242" y="86.268" fill="#B0B0B0" width="12.913" height="1.409"/>
						<rect id="XMLID_17130_" x="207.242" y="89.473" fill="#B0B0B0" width="12.913" height="1.411"/>
						<rect id="XMLID_17129_" x="207.242" y="92.679" fill="#B0B0B0" width="12.913" height="1.412"/>
					</g>
				</g>
			</g>
			<g id="XMLID_17085_">
				<rect id="XMLID_17121_" x="228.616" y="41.468" fill="#31A6AE" width="27.188" height="113.827"/>
				<g id="XMLID_17116_">
					<circle id="XMLID_17120_" fill="#51564D" cx="242.029" cy="140.812" r="6.018"/>
					<path id="XMLID_17117_" fill="#FFFFFF" d="M242.028,147.613c-3.75,0-6.802-3.051-6.802-6.801s3.052-6.802,6.802-6.802
						c3.751,0,6.803,3.052,6.803,6.802S245.779,147.613,242.028,147.613z M242.028,135.579c-2.887,0-5.235,2.348-5.235,5.233
						s2.349,5.235,5.235,5.235c2.888,0,5.235-2.35,5.235-5.235S244.916,135.579,242.028,135.579z"/>
				</g>
				<rect id="XMLID_17103_" x="234.385" y="44.588" fill="#FFFFFF" width="15.971" height="80.445"/>
				<g id="XMLID_17086_">
					<g id="XMLID_17097_">
						<rect id="XMLID_17102_" x="235.537" y="54.86" fill="#B0B0B0" width="5.843" height="1.41"/>
						<rect id="XMLID_17101_" x="235.537" y="60.632" fill="#B0B0B0" width="12.913" height="1.409"/>
						<rect id="XMLID_17100_" x="235.537" y="63.837" fill="#B0B0B0" width="12.913" height="1.411"/>
						<rect id="XMLID_17099_" x="235.537" y="67.042" fill="#B0B0B0" width="12.913" height="1.41"/>
						<rect id="XMLID_17098_" x="235.537" y="70.248" fill="#B0B0B0" width="12.913" height="1.411"/>
					</g>
					<g id="XMLID_17091_">
						<rect id="XMLID_17096_" x="235.537" y="73.459" fill="#B0B0B0" width="12.913" height="1.41"/>
						<rect id="XMLID_17094_" x="235.537" y="76.665" fill="#B0B0B0" width="12.913" height="1.41"/>
						<rect id="XMLID_17093_" x="235.537" y="79.871" fill="#B0B0B0" width="12.913" height="1.409"/>
						<rect id="XMLID_17092_" x="235.537" y="83.077" fill="#B0B0B0" width="12.913" height="1.411"/>
					</g>
					<g id="XMLID_17087_">
						<rect id="XMLID_17090_" x="235.537" y="86.268" fill="#B0B0B0" width="12.913" height="1.409"/>
						<rect id="XMLID_17089_" x="235.537" y="89.473" fill="#B0B0B0" width="12.913" height="1.411"/>
						<rect id="XMLID_17088_" x="235.537" y="92.679" fill="#B0B0B0" width="12.913" height="1.412"/>
					</g>
				</g>
			</g>
		</g>
		<g id="XMLID_13073_">
			<g id="XMLID_16292_">
				<path id="XMLID_17082_" fill="#F76881" d="M36.559,79.493c0,0.104-0.11,0.188-0.243,0.188h-3.802
					c-0.134,0-0.242-0.085-0.242-0.188v-5.4c0-0.103,0.108-0.188,0.242-0.188h3.802c0.133,0,0.243,0.085,0.243,0.188V79.493z"/>
				<path id="XMLID_17079_" fill="#F1F1F1" d="M36.072,73.904h-1.371v5.777h1.371c0.135,0,0.243-0.085,0.243-0.188v-5.4
					C36.315,73.989,36.207,73.904,36.072,73.904z"/>
				<polygon id="XMLID_17076_" fill="#51564D" points="96.08,73.904 93.048,73.904 53.175,73.904 46.595,73.904 36.193,73.904 
					36.193,79.682 46.595,79.682 53.175,79.682 93.048,79.682 96.08,79.682 109.282,79.682 109.282,73.904 				"/>
				<polygon id="XMLID_16305_" fill="#FFFFFF" points="109.247,79.698 107.197,76.793 109.246,73.887 118.612,76.793 				"/>
				<polygon id="XMLID_16296_" fill="#161D21" points="114.705,75.581 114.705,78.004 118.612,76.793 				"/>
				<polygon id="XMLID_16295_" fill="#F1F1F1" points="109.247,79.698 107.197,76.793 109.246,73.887 118.612,76.793 				"/>
				<polygon id="XMLID_16294_" fill="#51564D" points="114.705,75.581 114.705,78.004 118.612,76.793 				"/>
			</g>
			<g id="XMLID_16286_">
				<path id="XMLID_16289_" fill="#51564D" d="M129.551,116.117v-2.646H21.309c-3.663,0-6.634,2.971-6.634,6.635v6.197
					c0,3.663,2.971,6.634,6.634,6.634h108.242v-2.646h-2.994v-14.175H129.551z"/>
				<path id="XMLID_16288_" fill="#F1F1F1" d="M126.723,116.117H22.966c-2.327,0-4.215,1.888-4.215,4.216v5.744
					c0,2.327,1.888,4.215,4.215,4.215h103.757V116.117z"/>
				<polygon id="XMLID_16287_" fill="#F76881" points="35.13,130.964 32.375,127.392 29.621,130.964 29.621,122.242 35.13,122.242 
									"/>
			</g>
			<g id="XMLID_16281_">
				<g id="XMLID_16283_">
					<path id="XMLID_16285_" fill="#31A6AE" d="M116.11,84.491v-4.517H27.149c-3.012,0-5.453,5.069-5.453,11.325v10.583
						c0,6.255,2.441,11.327,5.453,11.327h88.961v-4.517h-2.461V84.491H116.11z"/>
					<path id="XMLID_16284_" fill="#F1F1F1" d="M113.786,84.491H28.511c-1.913,0-3.464,3.223-3.464,7.197v9.807
						c0,3.976,1.551,7.198,3.464,7.198h85.275V84.491z"/>
				</g>
				<polygon id="XMLID_16282_" fill="#F76881" points="44.536,111.65 42.081,108.468 39.626,111.65 39.626,103.877 44.536,103.877 
									"/>
			</g>
			<g id="XMLID_13074_">
				<g id="XMLID_16275_">
					<rect id="XMLID_16280_" x="13.49" y="133.344" fill="#599C5B" width="107.389" height="21.911"/>
					<rect id="XMLID_16279_" x="24.995" y="133.344" fill="#FFFFFF" width="2.719" height="21.911"/>
					<rect id="XMLID_16278_" x="105.365" y="133.344" fill="#FFFFFF" width="2.719" height="21.911"/>
					<rect id="XMLID_16277_" x="30.016" y="133.344" fill="#FFFFFF" width="8.332" height="21.911"/>
					<rect id="XMLID_16276_" x="94.25" y="133.344" fill="#FFFFFF" width="8.332" height="21.911"/>
				</g>
				<g id="XMLID_13075_" opacity="0.2">
					<rect id="XMLID_13077_" x="33.2" y="144.097" fill="#FFFFFF" width="2.719" height="11.158"/>
					<rect id="XMLID_13076_" x="101.849" y="144.097" fill="#FFFFFF" width="2.719" height="11.158"/>
				</g>
			</g>
		</g>
	</g>
</g>
</svg>
