<?xml version="1.0" encoding="utf-8"?>
<!-- Generator: Adobe Illustrator 16.0.0, SVG Export Plug-In . SVG Version: 6.00 Build 0)  -->
<!DOCTYPE svg PUBLIC "-//W3C//DTD SVG 1.1//EN" "http://www.w3.org/Graphics/SVG/1.1/DTD/svg11.dtd">
<svg version="1.1" id="Layer_1" xmlns="http://www.w3.org/2000/svg" xmlns:xlink="http://www.w3.org/1999/xlink" x="0px" y="0px"
	 width="519.111px" height="591.112px" viewBox="0 0 519.111 591.112" enable-background="new 0 0 519.111 591.112"
	 xml:space="preserve">
<g>
	<g id="XMLID_5276_">
		<defs>
			<rect id="XMLID_5262_" x="-25.188" width="544.3" height="591.112"/>
		</defs>
		<clipPath id="XMLID_4_">
			<use xlink:href="#XMLID_5262_"  overflow="visible"/>
		</clipPath>
		<g id="XMLID_6251_" clip-path="url(#XMLID_4_)">
			<g id="XMLID_5444_">
				
					<path id="XMLID_6064_" fill="#ECBA97" stroke="#9F7557" stroke-width="1.1126" stroke-linecap="round" stroke-linejoin="round" stroke-miterlimit="10" d="
					M346.764,246.467l-58.866,6.374c8.249-41.619,1.875-66.365,1.875-66.365l54.366-44.993
					C338.647,177.208,343.137,210.944,346.764,246.467z"/>
				
					<path id="XMLID_6063_" fill="#767F84" stroke="#8FA5AA" stroke-width="0.8477" stroke-linecap="round" stroke-linejoin="round" stroke-miterlimit="10" d="
					M124.554,279.761c2.367,3.314,0.002,11.51-5.847,24.084c-5.849,12.575-13.137,19.202-18.997,14.914
					c-5.86-4.289,2.426-18.325,6.812-25.539C110.908,286.007,122.604,277.032,124.554,279.761z"/>
				<g id="XMLID_6161_">
					<g id="XMLID_6187_">
						<path id="XMLID_6062_" fill="#0C0C0C" stroke="#1D1D1B" stroke-width="0.9575" stroke-miterlimit="10" d="M339.875,904.985
							c-1.33,4.477-4.117,19.395-8.146,28.704c-4.029,9.311-2.383,18.095-1.656,22.208s16.91,8.762,36.822,8.567
							c19.913-0.195,31.226-2.022,34.269-6.859s1.226-16.908-3.981-22.694s-11.319-32.093-12.732-36.199
							c-1.414-4.106-41.949-6.112-42.949-3.013C340.501,898.799,339.875,904.985,339.875,904.985z"/>
						<path id="XMLID_6059_" fill="#272727" stroke="#1D1D1B" stroke-width="0.9575" stroke-miterlimit="10" d="M339.802,897.538
							c-1.33,4.477-2.882,21.315-6.911,30.626c-4.028,9.31-3.618,16.173-2.892,20.286c0.728,4.113,16.91,8.762,36.823,8.566
							c19.912-0.195,31.225-2.022,34.268-6.859c3.043-4.836-1.521-15.093-6.728-20.878c-5.207-5.786-8.572-33.908-9.986-38.015
							c-1.413-4.106-41.948-6.113-42.948-3.014C340.428,891.352,339.802,897.538,339.802,897.538z"/>
						<path id="XMLID_6191_" fill="#191919" stroke="#1D1D1B" stroke-width="0.707" stroke-miterlimit="10" d="M380.631,887.26
							c-0.431,4.607-1.421,17.854,1.621,23.988c3.054,6.155,6.562,17.361,4.193,18.654c-2.368,1.294-15.088-0.805-21.273-0.268
							l-0.182,0.002c-6.195-0.416-18.871,1.931-21.264,0.685c-2.394-1.247-0.101-12.935,3.213-18.927
							c3.548-6.417,2.287-19.225,1.766-23.822C349.122,881.536,380.381,880.277,380.631,887.26z"/>
						<path id="XMLID_6057_" fill="#7F8080" stroke="#1D1D1B" stroke-width="1.0308" stroke-miterlimit="10" d="M382.748,924.013
							c-12.434-1.527-24.335-1.373-36.456,0.356c-1.919,0.02-0.256-7.671,1.805-8.299c10.994-2.194,21.577-2.282,32.691-0.319
							C382.673,916.237,384.889,923.619,382.748,924.013z"/>
						<path id="XMLID_6055_" fill="#7F8080" stroke="#1D1D1B" stroke-width="1.1209" stroke-miterlimit="10" d="M380.014,912.19
							c-10.63-1.329-20.849-1.196-31.21,0.306c-1.644,0.017-0.441-6.739,1.331-7.298c9.536-1.965,18.768-2.041,28.41-0.278
							C380.168,905.354,381.857,911.85,380.014,912.19z"/>
						<path id="XMLID_6054_" fill="#7F8080" stroke="#1D1D1B" stroke-width="1.1209" stroke-miterlimit="10" d="M377.904,900.039
							c-9.261-1.002-18.193-0.89-27.222,0.267c-1.433,0.014-0.528-5.18,1.024-5.616c8.403-1.543,16.572-1.612,25.066-0.245
							C378.195,894.78,379.52,899.777,377.904,900.039z"/>
					</g>
					<g id="XMLID_6179_">
						<g id="XMLID_6183_">
							<path id="XMLID_6052_" fill="#0C0C0C" stroke="#1D1D1B" stroke-width="0.9575" stroke-miterlimit="10" d="M223.294,886.333
								c-1.179,0.652-6.739,12.481-17.799,17.491c-11.061,5.009-18.844,10.966-24.042,13.958c-5.198,2.991-2.111,17.99,0.864,21.556
								c2.976,3.564,28.871,12.133,43.836,5.452c14.964-6.682,20.765-14.906,30.854-18.926c10.089-4.02,21.077-10.398,20.379-14.966
								s-2.817-15.898-2.545-21.456C275.114,883.886,235.317,879.681,223.294,886.333z"/>
							<path id="XMLID_6051_" fill="#272727" stroke="#1D1D1B" stroke-width="0.9575" stroke-miterlimit="10" d="M223.233,880.126
								c-1.179,0.651-6.739,12.481-17.8,17.49c-11.06,5.01-19.816,11.63-25.015,14.621c-5.198,2.992-3.085,18.654-0.109,22.219
								c2.976,3.565,30.818,10.808,45.783,4.126c14.964-6.681,20.765-14.905,30.854-18.925c10.09-4.02,20.489-9.676,19.792-14.244
								c-0.698-4.566-1.471-16.648-1.198-22.206C275.812,877.65,235.257,873.473,223.233,880.126z"/>
							<path id="XMLID_6049_" fill="#191919" stroke="#1D1D1B" stroke-width="0.9575" stroke-miterlimit="10" d="M211.425,910.609
								c4.244,4.161,8.792,3.65,12.849,0.691c4.057-2.958,20.324-10.822,24.106-17.98c3.237-6.128,3.638-13.677,3.46-16.382
								c-11.04-0.672-22.965,0.065-28.606,3.188c-1.179,0.651-6.739,12.481-17.8,17.49c-5.701,2.583-10.788,5.592-15.094,8.312
								c0.232,0.214,0.262,0.215,0.262,0.215C194.342,906.574,207.182,906.448,211.425,910.609z"/>
						</g>
						<path id="XMLID_6048_" fill="#7F8080" stroke="#1D1D1B" stroke-width="0.9575" stroke-miterlimit="10" d="M194.878,903.353
							c5.781-0.653,14.153,0.643,23.867,4.753c1.666,0.705,6.493-1.877,5.729-3.067c-2.727-4.25-19.729-6.218-23.112-5.607
							c-1.449,0.262-3.454,0.81-4.671,1.378C194.326,901.913,193.45,903.514,194.878,903.353z"/>
						<path id="XMLID_6046_" fill="#7F8080" stroke="#1D1D1B" stroke-width="0.9575" stroke-miterlimit="10" d="M206.716,897.062
							c5.77-0.751,14.162,0.402,23.945,4.348c1.678,0.676,6.459-1.987,5.675-3.165c-2.798-4.202-19.831-5.882-23.203-5.214
							c-1.445,0.287-3.44,0.868-4.647,1.457C206.14,895.632,205.291,897.248,206.716,897.062z"/>
						<path id="XMLID_6045_" fill="#7F8080" stroke="#1D1D1B" stroke-width="0.9575" stroke-miterlimit="10" d="M215.43,890.374
							c5.754-0.857,13.576,0.472,23.803,3.059c1.753,0.443,6.132-2.842,5.195-3.902c-3.34-3.786-21.714-4.478-25.073-3.747
							c-1.439,0.312-2.56,0.959-3.399,1.86C214.177,889.554,214.009,890.586,215.43,890.374z"/>
					</g>
					<g id="XMLID_6043_">
						<path fill="#111111" d="M221.801,510.099c0,0-1.57,143.793-3.071,174.248c-1.502,30.456,4.613,95.731,3.112,126.187
							c-1.02,20.673,0.367,58.833-2.256,62.583c-3.345,4.78-6.322,10.782-5.449,10.278c9.428,0.929,22.636-0.817,34.68,4.819
							c10.769,5.04,28.107,4.992,38.122,1.354c0,0,4.531-2.002,1.729-9.086c-2.146-7.231-2.419-72.39-1.491-98.834
							c1.234-35.236,13.71-144.941,13.796-172.121c0.085-27.18-0.451-61.988-0.451-61.988l9.641-0.799
							c0,0,0.983,101.827,4.795,141.579c3.784,39.467,18.887,163.17,19.969,182.596c0.435,11.092-10.404,22.109-2.685,21.104
							c7.142-0.93,25.955,13.315,56.938-4.583c2.518-2.247,10.868-5.583,0.721-15.543c-3.309-4.861,0.068-114.99,2.869-139.12
							c3.903-33.632,4.674-168.952-1.26-189.402c-5.935-20.45-7.269-73.128-12.626-83.22s-148.411,4.706-148.411,4.706
							L221.801,510.099z"/>
					</g>
					<path id="XMLID_6038_" d="M286.938,889.568c-10.015,3.638-27.354,3.686-38.122-1.354c-12.044-5.637-25.252-3.891-34.68-4.819
						c-0.873,0.504,2.104-5.498,5.449-10.278c0.44-0.63,0.766-1.905,1.011-3.669c6.208,2.125,13.655,1.522,19.468-1.384
						c8.593-4.297-1.838,12.173,12.483,12.889c14.32,0.716,8.998-7.16,17.591-12.889c8.592-5.729,9.309-30.567,7.876-62.79
						c-1.432-32.222-3.58-24.398,0.716-52.324c4.297-27.926,7.161-45.749,8.593-78.687c1.433-32.938,14.321-100.504,7.877-116.973
						c-6.444-16.47-4.702-17.901-11.862-26.494c-7.161-8.593-10.025-11.457,20.765-7.16c30.79,4.296,35.856,4.296,22.251,9.309
						c-13.604,5.012-11.456,7.16-9.309,19.333c2.148,12.173-4.296,33.708-1.432,56.621s15.037,77.537,12.889,103.314
						s-8.593,42.884-0.716,67.945c7.876,25.062,5.729,57.831,6.444,73.584c0.781,17.183,0.716,17.186,11.457,22.197
						c2.685,1.253,4.632,3.088,4.632,3.088s-5.169,2.819-11.076,1.209c-7.877-2.148-5.782-1.433-6.499,7.16
						c-0.181,2.175-1.42,3.477-3.166,4.21c-2.885-2.161,2.185-11.398,1.82-20.691c-1.082-19.426-12.658-143.129-16.442-182.596
						c-3.812-39.752-8.321-141.579-8.321-141.579l-6.114,0.799c0,0,0.536,34.809,0.451,61.988
						c-0.086,27.18-12.562,136.885-13.796,172.121c-0.682,19.447-0.716,63.698,0.168,84.173c-3.38,3.542-8.081,6.885-13.625,6.538
						c0,0,7.123,4.409,14.365,4.59c0.176,1.609,0.37,2.817,0.582,3.533C291.47,887.566,286.938,889.568,286.938,889.568z"/>
					<g id="XMLID_6037_">
						<path d="M219.586,873.116c2.623-3.75,1.236-41.91,2.256-62.583c1.501-30.455-4.614-95.73-3.112-126.187
							c0.677-13.729-2.379-75.33-0.775-105.596l5.235,1.506l1.433,6.444c0,0-3.175,76.82,1.121,111.19
							c4.297,34.37,11.457,50.045,4.297,57.205c-7.16,7.161-6.444,90.77-2.864,102.226c3.267,10.454-6.105,12.98-6.627,26.21
							c-0.582-0.038-4.68-0.082-5.236-0.138C214.439,883.898,216.241,877.896,219.586,873.116z"/>
					</g>
					<path id="XMLID_6036_" d="M386.299,880.952c-0.09-1.532-0.146-2.753-0.182-3.753c-8.572,1.261-16.717-1.414-16.717-1.414
						c6.719-2.939,14.378-13.438,14.034-14.883c-3.58-15.036,3.729-70.665,3.729-70.665s0.716-50.099,2.864-80.173
						c2.147-30.073,0-35.086-2.148-47.259s1.433-63.216,1.433-63.216l6.346-0.929c0.642,39.7-0.572,114.129-2.891,134.111
						c-2.181,18.788-7.362,106.497-4.305,133.074c0.164,2.78-6.814,6.086-14.337,9.377c0,0,8.737,1.947,17.264-1.807
						c0.067,0.097,0.189,0.271,0.332,0.475c0.01-0.004,0.02-0.008,0.029-0.013c7.149,8.431-0.231,11.467-2.573,13.557
						c-6.448,3.725-6.741,6.043-12.542,7.41l0.138-0.401C389.312,888.828,387.015,893.125,386.299,880.952z"/>
				</g>
				<path id="XMLID_6033_" d="M382.614,606.568l-0.483,6.924c-20.125,4.669-44.275,7.889-61.503,3.059l-1.127-5.796L382.614,606.568
					z"/>
				<path id="XMLID_6032_" fill="#5287AC" d="M296.521,249.842c0,0-10.483-26.009-12.679-33.475
					c-16.096,5.533-36.662,14.147-41.562,23.343c-8.325,15.625-23.072,182.011-23.481,212.395s26.505,20.731,54.769,21.161
					c28.265,0.43,86.097-10.027,100.156-17.23c14.06-7.202,4.337-58.69,6.186-86.263c1.851-27.571,34.224-112.669,20.662-126.667
					c-13.561-13.997-36.801-30.49-48.635-36.498S296.521,249.842,296.521,249.842z"/>
				
					<path id="XMLID_6031_" fill="#ECBA97" stroke="#9F7557" stroke-width="0.5" stroke-linecap="round" stroke-linejoin="round" stroke-miterlimit="10" d="
					M99.454,253.302c-11.813-21.096-30.139-19.163-44.423-23.42c-10.746-3.203-16.039,26.833-15.211,35.717
					c0.827,8.884,23.84,13.104,23.84,13.104s7.316-1.987,16.979,7.237c2.349,2.242,54.751,53.563,54.751,53.563l14.441-38.673
					C149.832,300.831,102.142,276.725,99.454,253.302z"/>
				
					<path id="XMLID_6028_" fill="#ECBA97" stroke="#9F7557" stroke-width="0.5" stroke-linecap="round" stroke-linejoin="round" stroke-miterlimit="10" d="
					M100.445,260.298c-1.77-4.393-1.028-7.085-0.321-13.229c0.707-6.143-7.414-12.967-5.972-22.377
					c1.441-9.41,1.354-18.422-0.024-22.052c-1.378-3.63-9.215-1.061-11.05,7.395c-1.835,8.455-2.333,16.322-0.942,21.294
					c0,0-11.946,13.732-6.444,27.293"/>
				
					<path id="XMLID_6027_" fill="#ECBA97" stroke="#9F7557" stroke-width="0.5" stroke-linecap="round" stroke-linejoin="round" stroke-miterlimit="10" d="
					M46.039,259.977c0,0-16.511-1.947-20.938-3.63s-17.146-8.078-19.08-9.785c-1.934-1.707-0.118-12.08,11.245-7.014
					s14.454,7.337,15.029,7.332c0.575-0.005,13.098,1.604,14.683,2.114"/>
				
					<path id="XMLID_12095_" fill="#ECBA97" stroke="#9F7557" stroke-width="0.5" stroke-linecap="round" stroke-linejoin="round" stroke-miterlimit="10" d="
					M54.691,229.746c0,0-13.073-2.916-16.336-4.507c-8.479-4.136-13.03-7.233-16.011-9.623c-4.252-3.41-13.777,3.011-8.946,6.799
					c4.957,3.886,20.466,12.939,20.063,12.49c0,0,10.579,3.125,15.777,5.184"/>
				
					<path id="XMLID_6020_" fill="#ECBA97" stroke="#9F7557" stroke-width="0.5" stroke-linecap="round" stroke-linejoin="round" stroke-miterlimit="10" d="
					M46.987,252c0,0-16.886-5.102-20.963-7.511c-4.077-2.409-15.527-10.869-17.144-12.879c-1.617-2.01,1.057-11.773,11.396-4.853
					c10.34,6.92,13.871,9.554,14.442,9.623c2.341,0.28,13.013,3.547,14.454,3.901"/>
				
					<path id="XMLID_6019_" fill="#ECBA97" stroke="#9F7557" stroke-width="0.5" stroke-linecap="round" stroke-linejoin="round" stroke-miterlimit="10" d="
					M71.253,262.674c-5.778-2.628-17.296-3.857-21.501-2.474c0,0-7.506-2.803-9.258-5.47s-2.766-7.067-3.175-10.899
					c-0.634-5.938-9.542-14.864-8.658-2.983c0.883,11.88-0.646,12.471,2.086,17.238c2.731,4.768,11.07,14.274,13.603,18.276
					c2.531,4.002,22.662,3.613,27.812,0.687"/>
				
					<path id="XMLID_6018_" fill="#E3DCD6" stroke="#979797" stroke-width="0.75" stroke-linecap="round" stroke-linejoin="round" stroke-miterlimit="10" d="
					M220.254,237.316c0,0-48.142,72.296-51.04,78.994c0,0-35.854-29.289-44.07-35.877c0,0-7.816,34.162-24.814,38.774
					c0,0,44.339,63.292,62.891,66.074s60.541-53.185,63.446-59.142C226.666,326.14,228.541,251.313,220.254,237.316z"/>
				<path id="XMLID_6016_" fill="#D3CDC9" d="M163.22,384.823c-18.553-2.782-62.891-66.074-62.891-66.074
					c4.46-1.21,8.286-3.521,11.506-7.648c2.983,6.007,5.761,12.175,13.819,19.338c13.338,11.855,29.639,37.048,38.53,37.048
					s37.826-37.826,51.905-51.904c3.262-3.263,6.604-7.241,9.812-11.429c0.585,12.437,0.764,21.528,0.764,21.528
					C223.761,331.639,181.771,387.605,163.22,384.823z"/>
				<path id="XMLID_6013_" fill="#C1DA9D" stroke="#1D1D1B" stroke-width="0.8477" stroke-miterlimit="10" d="M261.404,225.398
					c-5.734,4.165-13.222,9.481-17.714,12.192C247.12,233.26,253.749,229.106,261.404,225.398z"/>
				<path id="XMLID_6012_" fill="#98A580" d="M269.343,219.556l3.62,0.814c-3.93,1.552-7.863,3.238-11.559,5.028
					C265.918,222.119,269.343,219.556,269.343,219.556z"/>
				<path id="XMLID_6011_" d="M222.212,458.901c-0.297-6.235-0.257,2.281,0.031-6.786c0.364,0.819,0.729-14.817,1.099-14.002
					c0.025,0.056,0.058,0.095,0.084,0.147c0.439,23.962,15.828,32.325,35.726,34.83c-0.669,19.835-0.465,37.281-1.045,48.256
					c-2.124,40.194,4.56,99.92,3.974,98.316c-16.077,10.756-50.252,7.157-48.596-8.734S224.42,505.176,222.212,458.901z"/>
				<path id="XMLID_6008_" fill="#3E718D" d="M218.8,451.592c0.409-30.312,15.156-196.34,23.481-211.928
					c0.379-0.708,0.854-1.414,1.409-2.114c4.492-2.704,11.979-8.008,17.714-12.164c3.695-1.786,7.629-3.467,11.559-5.016
					l7.648,1.717c-6.432,18.539-22.883,99.412-21.684,149.337c0.752,31.306,1.738,67.665,0.517,100.383
					C236.97,469.252,218.46,476.767,218.8,451.592z"/>
				<g id="XMLID_5996_">
					<path id="XMLID_6146_" fill="#3B505A" d="M228.805,478.15c0,0,100.639-2.762,104.219-3.095
						c3.577-0.334,4.471-10.684,1.533-11.953c-2.933-1.271-103.765,0.11-105.966,0.249
						C226.394,463.497,221.425,477.984,228.805,478.15z"/>
					<path id="XMLID_6145_" fill="#667B80" d="M295.324,478.284c0,0,4.01-16.733,0.464-16.945
						c-3.544-0.211-22.321-2.155-23.546-0.037c-1.219,2.119,0.264,18.632,1.077,18.681
						C274.139,480.031,293.494,481.459,295.324,478.284z"/>
					<path id="XMLID_6144_" fill="#90A9AD" d="M293.3,475.383c0,0,3.075-12.407,0.323-12.571c-2.743-0.164-17.299-1.64-18.239-0.072
						c-0.944,1.568,0.232,13.823,0.869,13.861C276.888,476.639,291.889,477.736,293.3,475.383z"/>
				</g>
				<path id="XMLID_6007_" fill="#E3DCD6" stroke="#979797" stroke-width="0.75" stroke-miterlimit="10" d="M270.518,211.328
					c0,0-40.818,18.003-48.055,22.042c-7.235,4.04-5.815,13.946-7.684,25.87c-1.867,11.923-3.268,152.436-0.83,198.71
					c2.437,46.274-7.972,131.461-9.8,147.353c-1.829,15.892,35.906,19.49,53.659,8.734c0,0-5.925-64.523-4.226-93.642
					s5.616-98.386,1.817-148.615c-3.798-50.229,15.252-131.107,21.685-149.689L270.518,211.328z"/>
				
					<path id="XMLID_6006_" fill="#E3DCD6" stroke="#979797" stroke-width="0.75" stroke-linecap="round" stroke-linejoin="round" stroke-miterlimit="10" d="
					M264.795,215.816c0,0-12.681,7.831-16.604,12.5c-3.923,4.668,0.271,27.776-1.608,38.377
					c-1.881,10.601-5.116,17.908-0.525,13.895c4.59-4.014,8.517-1.663,8.517-1.663s-17.666,12.996-14.255,23.545
					c3.41,10.55,13.483,132.081,16.37,144.019c0.148,15.211-0.308-115.858,2.149-135.062c2.458-19.205,15.639-84.189,18.232-89.505
					C279.665,216.603,270.08,215.103,264.795,215.816z"/>
				<path id="XMLID_6003_" fill="#E3DCD6" stroke="#979797" stroke-width="0.75" stroke-miterlimit="10" d="M366.429,207.905
					c0,0,44.883,21.59,54.127,31.674c-20.28,29.803-12.173,69.844-22.924,120.215c-10.751,50.372-10.168,106.367-0.527,145.296
					c9.641,38.928,10.763,79.333,14.187,91.205c0,0-36.796,24.832-91.79,14.788c0,0-15.204-127.572-16.279-169.892
					c-1.076-42.319,26.722-172.008,40.364-197.275C357.228,218.65,366.429,207.905,366.429,207.905z"/>
				<path id="XMLID_6002_" fill="#D3CDC9" d="M340.8,611.959c7.139-0.935,9.295-1.415,16.259-3.223
					c10.812-2.807,24.848-31.105,32.021-40.318c0.262-0.336,0.432-0.688,0.557-1.043c0.148-0.136,0.302-0.271,0.447-0.406
					c10.461-9.764,9.764-16.737,1.395-36.265s-7.672-53.003-12.554-92.059c-4.882-39.055,7.672-73.189,9.066-86.44
					s-7.409-6.974-11.594-27.199c-4.185-20.225,2.527-40.449,2.527-40.449s9.066,19.527,11.856,31.383
					c1.095,4.654,5.735,11.134,10.969,17.289c-1.292,8.761-2.867,17.613-4.72,26.292c-10.751,50.372-10.168,106.367-0.527,145.296
					c9.641,38.928,8.486,79.848,11.909,91.72c0,0-29.602,19.46-75.33,16.364C334.059,612.791,339.824,612.087,340.8,611.959z"/>
				<path id="XMLID_6001_" fill="#D3CDC9" d="M374.819,223.616c5.049,10.548-17.794,58.814-14.089,76.44
					c3.705,17.627-13.388,3.664-17.695-3.359c0,0,3.747,21.865,10.153,26.748s-38.439,39.242-44.599,131.855
					c0,0,9.952,127.985,21.846,156.497c-4.12,0-8.082-1.268-10.935-1.585c-2.218-18.249-14.686-131.232-15.646-169.021
					c-1.076-42.319,26.722-172.008,40.364-197.275c10.787-19.979,18.796-27.937,21.676-30.393
					C369.825,216.65,373.229,220.292,374.819,223.616z"/>
				
					<path id="XMLID_5995_" fill="#E3DCD6" stroke="#979797" stroke-width="0.75" stroke-linecap="round" stroke-linejoin="round" stroke-miterlimit="10" d="
					M304.424,449.648c-4.224-23.516-5.84-110.105,11.901-152.023c18.547-43.823,38.318-79.268,38.812-88.929
					c0.493-9.661,10.467-1.28,15.516,9.268c5.049,10.548-17.794,58.814-14.089,76.441c3.705,17.626-13.388,3.663-17.695-3.359
					c0,0,3.746,21.865,10.153,26.748C355.429,322.677,310.583,357.035,304.424,449.648z"/>
				<path id="XMLID_5992_" fill="#3E718D" d="M296.521,249.842c0,0,14.997-20.997,28.495-29.246
					c13.498-8.249,16.872-11.249,17.997-16.123c0,0,5.25,11.249-4.874,22.122C328.017,237.469,324.267,228.47,296.521,249.842z"/>
				<path id="XMLID_5991_" fill="#5287AC" d="M341.889,184.227c1.755,8.923,1.431,14.405-0.819,20.404
					c-2.249,5.999-2.93,10.341-5.554,12.591c-2.625,2.25,0,6.749,2.249,7.874c2.25,1.125,9.374,16.497,9.749,28.121
					c0.375,11.623,9.748-9.749,16.122-18.373c6.374-8.624,9.374-16.872,7.124-25.496c-2.25-8.624-14.998-15.748-20.247-24.371
					S341.889,184.227,341.889,184.227z"/>
				<path id="XMLID_5990_" fill="#3E718D" d="M290.896,191.726c1.437,1.68-3.588,35.249,5.625,58.116
					c0,0-16.123-22.497-17.998-30.371c-1.874-7.874,6.375-25.121,8.999-30.745C290.147,183.102,290.896,191.726,290.896,191.726z"/>
				<path id="XMLID_5987_" fill="#5287AC" d="M266.15,204.849c-4.154,3.936,0.75,18.747-2.999,32.62c0,0,9.373-17.998,15.372-17.998
					c0,0,0-9.749,4.125-17.622c4.124-7.874,4.874-13.123,4.874-13.123S273.274,198.1,266.15,204.849z"/>
				<path id="XMLID_5986_" fill="#CDA285" d="M315.435,194.542c1.729-3.229,16.648-16.21,25.393-30.812
					c0.36-7.352,1.026-14.754,2.137-22.246l-52.378,44.993c0,0,0.972,3.932,1.642,11.275
					C301.371,198.314,313.773,197.646,315.435,194.542z"/>
				
					<path id="XMLID_5985_" fill="#ECBA97" stroke="#C4916E" stroke-width="0.5" stroke-linecap="round" stroke-linejoin="round" stroke-miterlimit="10" d="
					M313.228,24.214c-13.214-0.529-39.643-0.508-41.675,17.788c-2.033,18.296-6.607,51.332-13.723,60.48
					c-7.115,9.148-7.624,23.379-1.017,34.56c6.606,11.181,14.739,28.969,16.264,36.084s-0.509,15.755,5.591,17.788
					c6.099,2.033,29.478,2.542,32.019-2.033s31.511-27.953,34.052-48.791c2.541-20.838,22.87-80.81,10.164-96.564
					C342.197,27.771,325.934,24.722,313.228,24.214z"/>
				<path id="XMLID_5983_" fill="#CDA285" d="M354.902,43.526c-12.705-15.755-28.969-18.805-41.675-19.312
					c-11.021-0.441-31.226-0.49-38.81,10.119c6.399,0.712,11.54-3.806,21.85-4.579c11.3-0.848,15.82,11.018,28.25,11.3
					c12.431,0.283,11.583,6.78,14.408,12.148c2.825,5.367-5.65,9.322-8.476,13.842s1.978,7.062,8.476,13.56
					c6.497,6.498,4.52,19.775,3.955,27.403c-0.565,7.627-2.45,11.491-2.45,11.491l7.858-2.749
					C354.443,90.207,364.879,55.897,354.902,43.526z"/>
				
					<path id="XMLID_5982_" fill="#FFA96A" stroke="#6B4429" stroke-width="0.8084" stroke-linecap="round" stroke-linejoin="round" stroke-miterlimit="10" d="
					M351.718,109.653"/>
				
					<path id="XMLID_5980_" fill="#FFA96A" stroke="#6B4429" stroke-width="0.8084" stroke-linecap="round" stroke-linejoin="round" stroke-miterlimit="10" d="
					M344.908,140.082"/>
				<g id="XMLID_6099_">
					<path id="XMLID_5977_" fill="#452109" d="M328.25,94.762c0.741,0.873-0.354,10.288-9.437,10.124
						c-8.986-0.163-16.104-2.422-17.104-9.815C301.229,92.092,317.643,89.502,328.25,94.762z"/>
					<path id="XMLID_5976_" fill="#FFFFFF" d="M328.372,95.512c1.016,0.514-0.461,10.764-9.623,10.927
						c-10.398,0.185-16.72-3.997-16.927-9.98C301.342,93.479,318.116,91.384,328.372,95.512z"/>
					<g id="XMLID_6113_">
						<defs>
							<path id="XMLID_5962_" d="M328.381,95.403c0.913,0.432-0.506,11.042-9.623,10.927c-3.503-0.044-16.574,0.2-16.927-9.981
								C301.351,93.371,318.125,91.275,328.381,95.403z"/>
						</defs>
						<clipPath id="XMLID_5_">
							<use xlink:href="#XMLID_5962_"  overflow="visible"/>
						</clipPath>
						<circle id="XMLID_5975_" clip-path="url(#XMLID_5_)" fill="#964C15" cx="312.243" cy="98.778" r="7.21"/>
						<circle id="XMLID_5974_" clip-path="url(#XMLID_5_)" fill="#3D1800" cx="311.243" cy="98.779" r="3.653"/>
						<circle id="XMLID_5963_" clip-path="url(#XMLID_5_)" fill="#FFFFFF" cx="308.068" cy="97.469" r="1.86"/>
					</g>
					<path id="XMLID_5961_" fill="#452109" d="M264.825,89.98c-1.062,0.556-2.191,9.162,6.37,10.365
						c8.188,1.151,15.641,2.566,17.843-6.455C288.959,91.052,273.381,84.775,264.825,89.98z"/>
					<path id="XMLID_5960_" fill="#FFFFFF" d="M264.516,90.666c-0.958,0.286-1.674,10.426,6.881,11.436
						c8.287,0.979,16.322-1.384,17.351-6.846C289.605,92.59,274.506,88.315,264.516,90.666z"/>
					<g id="XMLID_6100_">
						<defs>
							<path id="XMLID_5954_" d="M264.516,90.666c0,0-1.375,10.226,6.881,11.436c8.256,1.211,16.322-1.384,17.351-6.846
								C289.605,92.59,274.506,88.315,264.516,90.666z"/>
						</defs>
						<clipPath id="XMLID_6_">
							<use xlink:href="#XMLID_5954_"  overflow="visible"/>
						</clipPath>
						<circle id="XMLID_5959_" clip-path="url(#XMLID_6_)" fill="#964C15" cx="274.445" cy="96.244" r="6.693"/>
						<circle id="XMLID_5958_" clip-path="url(#XMLID_6_)" fill="#3D1800" cx="273.445" cy="96.244" r="3.465"/>
						<circle id="XMLID_5955_" clip-path="url(#XMLID_6_)" fill="#FFFFFF" cx="271.013" cy="94.322" r="1.727"/>
					</g>
				</g>
				<path id="XMLID_5953_" fill="#595455" d="M365.573,108.198l-15.538,12.712l-9.604-1.412c0,0,3.107-5.085,3.672-12.713
					c0.565-7.627,2.543-20.905-3.955-27.403c-6.497-6.498-11.3-9.04-8.475-13.56s11.3-8.475,8.475-13.843
					c-2.825-5.367-1.978-11.865-14.407-12.147c-12.43-0.282-16.95-12.147-28.25-11.3c-11.301,0.847-16.386,6.215-23.73,4.237
					s-7.627-12.995,3.107-15.538c10.735-2.542,26.838-9.888,38.703-7.345s16.385,7.628,28.532,7.345s28.533,7.91,32.771,19.21
					c4.237,11.3-1.13,22.318-5.085,28.533C367.833,71.19,371.506,98.31,365.573,108.198z"/>
				<path id="XMLID_5952_" fill="#564F4C" stroke="#473F3D" stroke-width="0.9282" stroke-miterlimit="10" d="M291.128,80.622
					c-0.513-2.903-3.617-4.609-10.001-4.993c-11.067-0.666-15.562,5.369-14.929,5.963c0.634,0.594,1.644,1.242,4.967,0.351
					c3.324-0.891,9.761-2.51,13.239-0.826C287.882,82.803,291.642,83.524,291.128,80.622z"/>
				<path id="XMLID_5950_" fill="#564F4C" stroke="#473F3D" stroke-width="0.9172" stroke-miterlimit="10" d="M302.861,82.146
					c0.837-2.77,2.007-5.61,12.941-4.538c11,1.08,15.621,8.233,14.927,8.744c-0.694,0.51-1.769,1.033-4.96-0.188
					c-3.193-1.221-12.665-4.088-16.303-2.819C305.83,84.615,302.024,84.917,302.861,82.146z"/>
				<g id="XMLID_5928_">
					<g id="XMLID_6076_">
						<path id="XMLID_6091_" opacity="0.3" d="M446.233,556.863c-0.03-0.629-0.093-1.285-0.222-2.002
							c-1.73-9.591-3.512-17.081-3.234-22.931s-0.638-12.974-0.638-12.974l-28.486,1.613c0,0,1.409,5.479-4.713,15.823
							c-3.938,4.077-12.776,4.642-15.204,9.673c-2.792,5.787-2.652,9.365-14.029,20.667c-8.582,8.524,9.094,8.447,15.775-0.4
							c2.016-2.668,4.158-4.787,5.515-6.026c0.147,1.423,0.378,2.837,0.664,4.266l-0.062-0.021c0,0-0.754,16.839-2.001,20.71
							c-1.248,3.87-8.005,10.355-10.43,14.592s-2.259,15.148,1.302,12.495c6.685-4.982,16.311-16.42,19.865-18.686
							c2.74-1.746,3.61-10.88,4.293-18.354c0.176-0.004,0.344,0.005,0.522-0.003c-0.19,4.871-0.575,10.814-0.737,12.062
							c-0.493,3.813-7.689,11.873-9.214,16.229c-1.523,4.355,0.511,14.473,3.364,11.392c3.117-3.367,7.469-9.225,11.14-14.075
							c-0.458,5.072,1.394,12.21,3.957,9.497c3.462-3.664,6.989-9.594,9.765-14.488c0.083,4.269,3.348,11.214,5.097,8.25
							c3.547-6.014,8.872-19.097,10.883-21.996C450.521,580.564,447.928,565.356,446.233,556.863z M427.984,582.155
							c-0.078,0.556-0.258,1.184-0.501,1.856c0.19-3.823,0.218-8.236,0.205-12.124c0.075-0.036,0.151-0.067,0.228-0.104
							C428.127,575.41,428.293,579.938,427.984,582.155z"/>
						
							<path id="XMLID_5945_" fill="#ECBA97" stroke="#9F7557" stroke-width="1.0565" stroke-linecap="round" stroke-linejoin="round" stroke-miterlimit="10" d="
							M440.387,518.957c0,0,0.952,6.832,0.675,12.682s1.467,13.632,3.197,23.223s-5.625,10.75-17.765,16.771
							c-12.141,6.02-23.925,4.713-25.934-4.054c-2.009-8.766-3.251-16.263,4.887-28.409c8.14-12.147,6.453-18.599,6.453-18.599
							L440.387,518.957z"/>
						
							<path id="XMLID_5944_" fill="#ECBA97" stroke="#9F7557" stroke-width="1.0565" stroke-linecap="round" stroke-linejoin="round" stroke-miterlimit="10" d="
							M408.597,534.299c-2.544,6.108-13.822,5.981-16.613,11.768c-2.792,5.787-2.652,9.365-14.03,20.667
							c-8.581,8.524,9.095,8.447,15.776-0.4c3.279-4.341,6.907-7.239,6.907-7.239"/>
						<path id="XMLID_5941_" opacity="0.4" fill="#545454" d="M359.728,582.365l13.457,61.308c0.736,3.355,4.196,5.355,7.471,4.317
							l101.928-32.287c2.877-0.912,4.586-3.863,3.944-6.813l-11.506-52.859c-0.692-3.178-3.847-5.18-7.017-4.452l-103.878,23.839
							C361.004,576.135,359.04,579.233,359.728,582.365z"/>
						<path id="XMLID_5940_" fill="#51564D" stroke="#3B3F38" stroke-width="0.7011" stroke-miterlimit="10" d="M356.543,581.4
							L370,642.708c0.736,3.355,4.196,5.355,7.472,4.318l101.927-32.287c2.877-0.912,4.587-3.864,3.945-6.812l-11.508-52.861
							c-0.69-3.178-3.846-5.179-7.016-4.452l-103.877,23.84C357.819,575.17,355.855,578.27,356.543,581.4z"/>
						<path id="XMLID_6084_" opacity="0.3" d="M446.233,556.863c-0.023-0.498-0.078-1.024-0.16-1.574
							c-15.153,1.136-30.282,4.295-44.482,9.44c-0.084,1.803-0.82,16.894-1.992,20.531c-1.248,3.87-8.005,10.355-10.43,14.592
							s-2.259,15.148,1.302,12.495c6.685-4.982,16.311-16.42,19.865-18.686c2.74-1.746,3.61-10.88,4.293-18.354
							c0.176-0.004,0.344,0.005,0.522-0.003c-0.19,4.871-0.575,10.814-0.737,12.062c-0.493,3.813-7.689,11.873-9.214,16.229
							c-1.523,4.355,0.511,14.473,3.364,11.392c3.117-3.367,7.469-9.225,11.14-14.075c-0.458,5.072,1.394,12.21,3.957,9.497
							c3.462-3.664,6.989-9.594,9.765-14.488c0.083,4.269,3.348,11.214,5.097,8.25c3.547-6.014,8.872-19.097,10.883-21.996
							C450.521,580.564,447.928,565.356,446.233,556.863z M427.984,582.155c-0.078,0.556-0.258,1.184-0.501,1.856
							c0.19-3.823,0.218-8.236,0.205-12.124c0.075-0.036,0.151-0.067,0.228-0.104C428.127,575.41,428.293,579.938,427.984,582.155z"
							/>
						<path id="XMLID_5936_" fill="#ECBA97" d="M440.012,519.518c0,0,0.809,6.576,0.537,12.308
							c-0.272,5.731,1.561,13.475,3.256,22.872c1.696,9.397-5.512,10.533-17.406,16.432c-11.895,5.897-23.441,4.618-25.41-3.972
							c-1.968-8.589-3.186-15.935,4.789-27.836c7.975-11.902,6.875-18.068,6.875-18.068L440.012,519.518z"/>
						
							<path id="XMLID_5933_" fill="#ECBA97" stroke="#9F7557" stroke-width="1.0565" stroke-linecap="round" stroke-linejoin="round" stroke-miterlimit="10" d="
							M443.844,553.79c1.547,7.123,5.078,26.554,3.809,28.385c-2.011,2.899-7.336,15.982-10.883,21.996
							c-1.891,3.203-5.554-5.171-5.055-9.228c0.5-4.057,5.214-12.386,4.924-15.779c-0.291-3.394-0.686-11.505-0.686-11.505"/>
						
							<path id="XMLID_5932_" fill="#ECBA97" stroke="#9F7557" stroke-width="1.0565" stroke-linecap="round" stroke-linejoin="round" stroke-miterlimit="10" d="
							M437.388,565.029c0.046,9.446,0.718,20.324-1.47,23.552c-2.363,3.488-8.284,15.769-14.01,21.828
							c-3.051,3.229-5.095-7.493-3.436-12.083c1.658-4.591,7.195-12.143,7.759-16.171c0.389-2.784,0.027-9.222-0.233-12.93"/>
						
							<path id="XMLID_5931_" fill="#ECBA97" stroke="#9F7557" stroke-width="1.0565" stroke-linecap="round" stroke-linejoin="round" stroke-miterlimit="10" d="
							M425.91,567.898c0.071,8.663,0.16,23.583-1.818,25.429c-2.913,2.718-11.926,15.876-17.28,21.66
							c-2.854,3.081-4.888-7.035-3.365-11.392c1.524-4.355,8.722-12.415,9.215-16.229c0.247-1.907,1.019-14.803,0.814-18.034"/>
						
							<path id="XMLID_5917_" fill="#ECBA97" stroke="#9F7557" stroke-width="1.0565" stroke-linecap="round" stroke-linejoin="round" stroke-miterlimit="10" d="
							M413.476,569.333c-0.931,7.383-1.341,22.065-4.894,24.329c-3.554,2.266-13.18,13.703-19.864,18.686
							c-3.561,2.653-3.727-8.259-1.302-12.495c2.424-4.236,9.181-10.722,10.43-14.592c1.247-3.871,2-20.71,2-20.71"/>
					</g>
					<path id="XMLID_5915_" fill="#E3DCD6" stroke="#979797" stroke-width="0.75" stroke-miterlimit="10" d="M423.249,242.983
						c0,0,5.802,14.089,10.774,38.954s5.802,115.204,9.117,138.41c3.314,23.207,9.391,67.117,2.76,99.44
						c-1.559,10.518-35.838,6.232-40.122,1.559c0,0-6.564-71.161-10.709-104.313c-4.144-33.152-20.72-109.402-17.404-130.952
						C380.98,264.532,407.502,229.722,423.249,242.983z"/>
				</g>
				<path id="XMLID_5914_" opacity="0.5" fill="#CDA285" d="M345.116,134.894c-2.541,20.838-40.224,48.681-42.765,53.255
					c-1.171,2.108-6.758,3.863-13.052,4.16c8.891,0.396,19.218-0.169,20.901-3.199c2.541-4.574,31.996-28.914,34.537-49.751
					c0.393-3.225,1.214-7.391,2.271-12.183C346.062,130.072,345.386,132.687,345.116,134.894z"/>
				
					<path id="XMLID_5823_" fill="#ECBA97" stroke="#9F7557" stroke-linecap="round" stroke-linejoin="round" stroke-miterlimit="10" d="
					M348.051,108.431c7.23-8.484,18.987-12.087,21.132-2.1c2.146,9.988-3.683,17.291-9.852,21.564
					c-6.168,4.273-0.07,17.445-8.229,17.802c-8.157,0.356-7.417-6.838-7.417-6.838"/>
				
					<path id="XMLID_5443_" fill="#ECBA97" stroke="#9F7557" stroke-linecap="round" stroke-linejoin="round" stroke-miterlimit="10" d="
					M357.211,109.41c5.17-2.921,8.766,6.068,1.124,10.788c-7.641,4.72-8.765,8.091-8.765,11.687"/>
				<g id="XMLID_5445_">
					
						<path id="XMLID_5440_" fill="#ECBA97" stroke="#9F7557" stroke-linecap="round" stroke-linejoin="round" stroke-miterlimit="10" d="
						M291.464,96.88c-1.751,3.1-5.472,18.014-5.696,20.74c-4.562,0.873-7.441,11.614-5.91,14.235
						c1.531,2.621,7.809,2.139,11.773,2.465"/>
				</g>
			</g>
			<g id="XMLID_6193_">
				<path id="XMLID_6197_" fill="#E3DCD6" stroke="#979797" stroke-width="0.75" stroke-miterlimit="10" d="M347.071,487.963
					l-4.31,24.597c0,0,49.197,3.824,51.044,2.185c1.84-1.64,4.3-27.328,0-28.42C389.499,485.229,350.143,482.495,347.071,487.963z"
					/>
			</g>
			<g id="XMLID_6186_">
				<path id="XMLID_6192_" fill="#E3DCD6" stroke="#979797" stroke-width="0.75" stroke-miterlimit="10" d="M250.496,483.749
					l-1.831,33.889c0,0-31.994-4.375-37.471-4.375c-5.494,0,2.738-30.605,2.738-30.605S248.665,481.562,250.496,483.749z"/>
			</g>
		</g>
	</g>
	<path id="XMLID_5331_" fill="#876E5C" d="M285.55,153.123c3.69,0.408,7.783,0.387,11.712-0.618
		c11.412-2.919,15.277-7.209,15.437-7.391c0.162-0.183,0.127-0.453-0.078-0.604c-0.204-0.151-0.5-0.124-0.661,0.058
		c-0.036,0.042-3.88,4.273-14.969,7.11c-11.104,2.841-23.639-2.441-23.764-2.495c-0.24-0.103-0.517-0.01-0.622,0.204
		c-0.108,0.214-0.002,0.47,0.234,0.573C272.924,149.997,278.496,152.343,285.55,153.123z"/>
	<path id="XMLID_5330_" fill="#876E5C" d="M314.068,149.148c0.254,0.028,0.438,0.255,0.471,0.023
		c0.731-5.09-6.008-7.585-6.293-7.697c-0.24-0.095-0.526,0.103-0.627,0.321c-0.098,0.218,0.014,0.52,0.254,0.614
		c0.064,0.025,6.37,2.178,5.733,6.61c-0.034,0.235,0.188,0.099,0.447,0.127L314.068,149.148z"/>
</g>
</svg>
