<?xml version="1.0" encoding="utf-8"?>
<!-- Generator: Adobe Illustrator 16.0.0, SVG Export Plug-In . SVG Version: 6.00 Build 0)  -->
<!DOCTYPE svg PUBLIC "-//W3C//DTD SVG 1.1//EN" "http://www.w3.org/Graphics/SVG/1.1/DTD/svg11.dtd">
<svg version="1.1" id="Layer_1" xmlns="http://www.w3.org/2000/svg" xmlns:xlink="http://www.w3.org/1999/xlink" x="0px" y="0px"
	 width="477.778px" height="534.832px" viewBox="0 0 477.778 534.832" enable-background="new 0 0 477.778 534.832"
	 xml:space="preserve">
<g id="XMLID_8457_">
	<defs>
		<rect id="XMLID_8419_" x="-31.173" y="-9.277" width="523.531" height="542.943"/>
	</defs>
	<clipPath id="XMLID_2_">
		<use xlink:href="#XMLID_8419_"  overflow="visible"/>
	</clipPath>
	<g id="XMLID_6341_" clip-path="url(#XMLID_2_)">
		<g id="XMLID_6317_">
			<g id="XMLID_6480_">
				<path id="XMLID_6484_" fill="#EABA96" d="M32.911,279.433c-1.875,0.287-5.148-0.637-6.846-1.012
					c-0.033,0.015-0.061,0.021-0.094,0.035c-0.045,0.019-0.086,0.033-0.133,0.052c-0.969,4.27-2.643,12.343-1.818,13.824
					c0.414,0.744,2.043,1,3.939,1.025C33.333,289.489,35.37,279.056,32.911,279.433z"/>
				<path id="XMLID_6483_" fill="#E0AA86" d="M27.96,293.357c0.605,0.008,1.236-0.006,1.867-0.035
					c1.166-2.338,3.197-4.804,6.404-6.556c7.457-4.072,8.127-15.826-10.166-8.345c1.697,0.375,4.971,1.299,6.846,1.012
					C35.37,279.056,33.333,289.489,27.96,293.357z"/>
				<path id="XMLID_6482_" fill="#E0AA86" d="M65.054,255.138c0.877-0.297,1.678-0.568,2.289-0.776
					c0.701-0.237,4.037-1.355,4.311-1.448l1.529,20.389c-2.34,2.394-8.756,8.136-15.217,13.21c0.807-1.918,2.111-4.93,3.242-7.106
					C62.792,276.357,64.657,258.978,65.054,255.138z"/>
				<path id="XMLID_6481_" fill="#EABA96" d="M25.028,269.627c2.854-1.017,30.678-11.317,40.025-14.489
					c-0.396,3.84-2.262,21.219-3.846,24.268c-1.131,2.177-2.436,5.188-3.242,7.106c-6.008,4.716-12.055,8.859-14.904,9.177
					c-6.631,0.74-11.312,5.246-13.51,4.203c-0.49-0.232-0.785-0.822-0.877-1.631c-0.145-1.256,0.209-3.051,1.152-4.939
					c1.166-2.338,3.197-4.804,6.406-6.556c7.455-4.073,8.125-15.826-10.168-8.345c-0.033,0.015-0.061,0.021-0.094,0.035
					c-0.045,0.019-0.104,0.012-0.133,0.052C13.821,294.727,2.138,298.342,6.112,293.43
					C10.706,287.751,21.429,270.909,25.028,269.627z"/>
			</g>
			<path id="XMLID_6479_" fill="#EABA96" d="M372.394,561.613c-1.564,17.094-4.061,41.393-6.568,53.512
				c-4.107,19.842-33.738,99.641-34.764,110.139c-0.803,8.203,12.955,34.441,18.773,50.812c-0.637,5.285-2.689,13.846-9.338,16.957
				c-9.889,4.629-27.57-15.371-30.301-20.773c-2.26-4.473-1.379-29.441-1.008-37.941c1.271-5.785,6.83-14.293,7.09-19.775
				c0.275-5.787,4.125-86.812,4.676-98.387c0.549-11.576,5.887-12.904,5.959-25.557c0.035-5.764,0.203-16.66,0.375-26.822
				C343.29,558.734,362.349,560.232,372.394,561.613z"/>
			<path id="XMLID_6478_" fill="#E0AA86" d="M374.011,542.742c0,0-0.621,7.977-1.617,18.871
				c-10.045-1.381-29.104-2.879-45.105,2.164c0.209-12.141,0.422-23.234,0.422-23.234L374.011,542.742z"/>
			<path id="XMLID_6477_" fill="#1E1917" d="M308.964,735.287c0.043-0.303,0.154-0.648,0.225-0.969
				c-0.371,8.5-1.252,33.469,1.008,37.941c2.73,5.402,20.412,25.402,30.301,20.773c6.648-3.111,8.701-11.672,9.338-16.957
				c1.627,4.578,2.668,8.428,2.553,10.844c-0.525,11.049-7.389,22.322-10.545,22.174c-3.156-0.15-30.867-16.232-33.574-25.854
				C305.562,773.621,308.163,741.051,308.964,735.287z"/>
			<path id="XMLID_6476_" fill="#E0AA86" d="M236.702,547.027l48.793,5.219c0,0-4.564,10.908-9.531,21.646
				c-17.434-1.738-34.627-6.779-42.676-11.973C235.046,554.084,236.702,547.027,236.702,547.027z"/>
			<path id="XMLID_6475_" fill="#EABA96" d="M168.204,773.422c10.834-11.613,26.615-27.475,29.596-45.789
				s10.539-88.617,14.445-104.25c3.906-15.635,16.193-35.617,17.02-41.904c0.414-3.143,2.27-11.738,4.023-19.559
				c8.049,5.193,25.242,10.234,42.676,11.973c-3.055,6.6-6.26,13.139-8.652,17.039c-6.289,10.248-16.256,53.541-23.67,65.318
				c-7.414,11.775-23.283,46.088-25.01,54.707c-1.729,8.619-2.355,16.234-0.463,20.807c0.836,2.021,1.58,4.658,2.145,7.355
				c-0.555,3.949-2.473,10.062-7.879,19.002c-11.16,18.453-19.439,20.697-26.869,21.662c-6.771,0.881-7.527-1.236-20.959-2.252
				C165.653,776.244,166.849,774.875,168.204,773.422z"/>
			<path id="XMLID_6474_" fill="#1E1917" d="M164.606,777.531c13.432,1.016,14.188,3.133,20.959,2.252
				c7.43-0.965,15.709-3.209,26.869-21.662c5.406-8.939,7.324-15.053,7.879-19.002c0.713,3.406,1.133,6.91,1.014,9.406
				c-0.213,4.473-8.828,24.891-8.527,35.189l-4.209-0.201c0,0-7.09,10.473-16.873,11.062s-28.748,0.217-31.83-1.512
				C157.192,791.553,157.284,786.539,164.606,777.531z"/>
			<path id="XMLID_6473_" fill="#F2F2F2" d="M78.604,243.794c10.031-4.419,25.811-11.248,26.092-10.587
				c0.135,0.315,0.562,5.133,1.078,11.472c0.578,7.081,1.262,16.047,1.77,22.816c-5.717,0.146-20.084,0.452-23.188-0.051
				C81.603,266.999,79.565,252.357,78.604,243.794z"/>
			<path id="XMLID_6472_" fill="#D3D3D3" d="M84.356,267.445c3.104,0.503,17.471,0.196,23.188,0.051
				c0.326,4.336,0.582,7.778,0.688,9.22c0.035,0.479,0.057,0.764,0.057,0.764c-1.455,1.957-38.363,0.886-38.363,0.886l0.551-30.961
				c0,0,3.441-1.543,8.129-3.609C79.565,252.357,81.603,266.999,84.356,267.445z"/>
			<path id="XMLID_6432_" fill="#D3D3D3" d="M275.374,153.466c2.748-2.446,5.754-4.065,9.188-5.151l0.441,3.779
				c-0.508,0.683-1.037,1.45-1.572,2.26c-1.158-0.951-2.275-1.976-3.312-3.127c1.037,1.151,2.154,2.176,3.312,3.127
				c-3.176,4.809-6.57,11.769-7.105,20.159c-0.002,0.036,0,0.084-0.002,0.121C275.345,167.617,275.108,159.96,275.374,153.466z"/>
			<path id="XMLID_6431_" fill="#E0AA86" d="M281.62,152.646c0.926-1.334,1.926-2.603,3.006-3.786l-0.064-0.545L282.999,136
				c9.463,5.893,25.195,10.998,42.625,13.854c0,0,7.035,8.742,10.824,17.108C329.999,168.61,292.458,194.703,281.62,152.646z"/>
			<path id="XMLID_6430_" fill="#EABA96" d="M281.62,152.646c19.574,37.807,48.023,17.106,52.48,7.714
				c2.127,4.698,3.973,11.336,4.539,20.717c1.572,26.089-11.689,31.436-40.803,30.052
				C271.714,209.888,267.392,173.182,281.62,152.646z"/>
			<path id="XMLID_6429_" fill="#D3D3D3" d="M335.421,160.007c0,0-1.26,0.368-3.381,0.844c-2.193-5.336-4.928-9.263-6.262-10.976
				c1.223,0.2,2.467,0.369,3.703,0.545c4.047,1.731,7.344,4.251,10.25,7.969c-0.801,4.843-2.604,14.79-5.342,25.053l0.016-0.726
				c0.475-2.194,0.768-4.043,0.811-5.406c0.195-6.281-1.293-11.883-3.176-16.46C334.161,160.375,335.421,160.007,335.421,160.007z"
				/>
			<path id="XMLID_6428_" d="M315.03,426.391c0.736-0.67,3.012-20.557,4.443-33.689c0.711-6.525,1.213-11.393,1.213-11.393
				s18.861,39.566,22.703,40.102c2.842,0.395,37.521-6.152,54.717-10.051c0.191,1.02,0.393,2.271,0.58,3.703
				c-13.75,5.709-57.193,23.697-60.102,24.225c-3.457,0.625-12.754-25.654-12.754-25.654s-10.195,25.881-13.25,29.164
				c-2.568,2.758-55.771-13.264-72.727-18.457c0.096-3.691,0.156-6.951,0.168-9.604C264.265,419.176,314.183,427.158,315.03,426.391
				z"/>
			<path id="XMLID_6427_" fill="#1E1E1E" d="M319.694,553.871c-26.656,6.117-69.674,12.51-85.834-2.496
				c0,0,5.002-88.502,5.994-127.035c16.955,5.193,70.207,20.209,72.773,17.451c3.057-3.283,13.203-28.158,13.203-28.158
				s9.297,26.279,12.754,25.654c2.908-0.527,46.352-18.516,60.102-24.225c1.141,8.723,1.707,24.855-4.441,45.852
				c-9.441,32.246-15.152,52.541-13.27,90.598C380.976,551.512,346.351,547.756,319.694,553.871z"/>
			<path id="XMLID_6426_" d="M108.665,244.475l3.6,22.627c0,0,39.621,4.305,50.35,0.594c5.623-1.946,20.178-16.715,33.914-30.576
				c3.812-0.478,6.707-0.517,7.203-1.254c69.508-103.42,59.352-7.099,52.16-2.703c-0.484-0.85-35.266,37.234-34.367,36.789
				c-11.496,5.695-33.258,6.108-33.473,6.188c-5.684,2.123-57.723-4.092-80.027-2.218c-0.125-1.688-0.291-3.918-0.48-6.427
				c1.457-0.038,2.381-0.064,2.381-0.064s-0.924,0.026-2.381,0.064c-0.508-6.766-1.191-15.724-1.77-22.816
				C106.558,244.625,107.55,244.554,108.665,244.475z"/>
			<path id="XMLID_6425_" fill="#1E1E1E" d="M112.265,267.102l-3.6-22.627c16.691-1.178,68.424-4.919,87.863-7.355
				c-13.736,13.861-27.896,29.557-33.52,31.502C152.28,272.333,112.265,267.102,112.265,267.102z"/>
			<path id="XMLID_6424_" d="M354.901,245.744c0,0-0.951-40.932-4.881-62.682c0,0,8.699,32.279,7.037,72.804
				c0,0-26.145-4.67-27.197-4.72c-1.051-0.051-29.447,24.501-29.447,24.501l32.891-41.476L354.901,245.744z"/>
			<path id="XMLID_6423_" d="M247.868,245.492c0,0,4.064-43.361,15.088-72.649c-6.822,18.281-12.719,67.928-12.719,67.928
				l22.598-9.472l27.578,44.349l-3.1-3.533l0.025-0.542l-0.025,0.542l-25.93-29.548L247.868,245.492z"/>
			<path id="XMLID_6422_" fill="#1E1E1E" d="M300.413,275.647c0,0,28.396-24.552,29.447-24.501c1.053,0.05,27.197,4.72,27.197,4.72
				c1.662-40.525-10.023-80.366-10.023-80.366c12.621,4.821,42.529,22.742,43.818,23.878c0,0-5.061,18.634-6.137,42.785
				c0,0-6.756,35.27-16.812,48.625c-2.621,2.439-6.293,4.814-8.791,6.922c-10.256,8.652-48.355-3.352-57.123-3.77
				c-0.717-0.033-1.59-0.008-2.527,0.041C299.511,289.924,300.413,275.647,300.413,275.647z"/>
			<path id="XMLID_6421_" d="M300.413,275.647c0,0-0.902,14.277-0.951,18.333c-0.959,0.051-2.051,0.152-3.201,0.271l1.053-22.138
				L300.413,275.647z"/>
			<path id="XMLID_6420_" fill="#1E1E1E" d="M235.937,195.223c0.355-1.037,20.672-16.41,29.717-17.254
				c-11.023,29.289-17.785,67.522-17.785,67.522l23.516-2.926l25.93,29.548l-1.053,22.138c-11.469,1.203-31.385,5.426-39.818,3.852
				c-8.18-1.527-12.824-18.449-16.922-25.358C238.911,271.01,222.101,235.52,235.937,195.223z"/>
			<path id="XMLID_6406_" fill="#2D2D2D" d="M315.511,320.117c28.398,7.15,45.482,4.574,45.482,4.574s44.93,82.814,46.635,83.951
				c0.443,0.297-3.463,1.344-9.521,2.717c-17.195,3.898-51.924,11.451-54.764,11.057c-3.842-0.535-22.656-41.107-22.656-41.107
				s-10.707-43.613-14.242-61.855C309.274,319.785,312.312,319.312,315.511,320.117z"/>
			<path id="XMLID_6405_" d="M306.444,319.453c3.535,18.242,14.242,61.855,14.242,61.855s-0.502,4.867-1.213,11.393
				c-1.023-13.582-13.908-63.463-16.541-73.555C304.075,319.215,305.241,319.311,306.444,319.453z"/>
			<g id="XMLID_6357_">
				<path id="XMLID_6377_" fill="#F2F2F2" d="M331.392,205.178c-6.623,5.459-17.746,6.702-33.555,5.951
					c-7.801-0.371-13.654-3.905-17.654-9.226c-1.428-0.311-2.271-0.51-2.271-0.51l22.502,74.253"/>
				<path id="XMLID_6368_" fill="#D3D3D3" d="M276.644,200.203l1.467,0.347c0.004,0.001,0.842,0.2,2.256,0.507l0.316,0.068
					l0.193,0.257c4.117,5.477,9.996,8.547,17.004,8.88c17.217,0.819,27.074-0.902,32.961-5.753l1.102,1.337
					c-6.248,5.149-16.457,6.988-34.146,6.148c-7.428-0.354-13.684-3.571-18.109-9.312c-0.184-0.04-0.354-0.078-0.514-0.113
					L276.644,200.203z"/>
			</g>
			<path id="XMLID_6356_" fill="#2D2D2D" d="M230.011,402.213c8.018-20.896,29.377-68.369,29.941-74.412
				c0.021-0.229,0-1.568-0.029-1.854c13.23-0.91,24.318-7.936,43.01-6.801c2.633,10.092,15.518,59.973,16.541,73.555
				c-1.432,13.133-3.756,34.025-4.492,34.693c-0.846,0.77-50.717-8.219-74.959-12.658c-7.332-1.342-12.344-2.365-12.9-2.719
				C226.608,411.691,227.812,407.945,230.011,402.213z"/>
			<path id="XMLID_6354_" fill="#F2F2F2" d="M339.731,158.39c2.953,3.78,5.525,8.755,8.035,15.562
				c0.844,2.289,1.59,5.434,2.254,9.109c3.93,21.75,4.881,62.682,4.881,62.682l-21.598-11.572l1.086-50.728
				C337.128,173.18,338.931,163.233,339.731,158.39z"/>
			<path id="XMLID_6353_" fill="#D3D3D3" d="M334.39,183.443l-1.086,50.728l-32.891,41.476c0,0,24.336-58.207,32.309-86.306
				C333.317,187.384,333.864,185.411,334.39,183.443z"/>
			<path id="XMLID_6352_" fill="#F2F2F2" d="M262.956,172.842c0.395-1.058,0.793-2.031,1.193-2.863
				c3.695-7.685,7.213-12.942,11.225-16.513c-0.266,6.494-0.029,14.151,0.949,21.167c-0.043,0.771-0.012,1.733,0.053,2.783
				l-3.541,53.881l-22.598,9.472C250.237,240.77,256.134,191.124,262.956,172.842z"/>
			<path id="XMLID_6351_" fill="#D3D3D3" d="M276.376,177.417c1.316,21.501,24.037,98.23,24.037,98.23l-27.578-44.349
				L276.376,177.417z"/>
			<path id="XMLID_6350_" fill="#1E1E1E" d="M256.489,297.098c8.434,1.576,28.303-1.643,39.771-2.846
				c1.15-0.119,2.242-0.221,3.201-0.271c0.938-0.049,1.811-0.074,2.527-0.041c8.768,0.418,46.916,11.418,57.17,2.764
				c2.498-2.107,5.117-3.523,7.738-5.963c10.057-13.356,17.818-48.578,17.818-48.578c12.123,14.741,50.162,60.72,60.949,70.548
				l-7.004,8.816c-7.367-0.35-53.463-54.921-53.463-54.921s-4.287,7.525-8.18,14.388c-2.918,5.146-5.617,9.92-6.115,10.86
				c-2.316,4.373-9.91,32.838-9.91,32.838s-17.133,3.58-45.531-3.568c-3.199-0.807-6.188-1.338-9.018-1.67
				c-1.203-0.143-2.369-0.238-3.512-0.307c-18.691-1.135-29.875,7.902-43.104,8.811c-0.83-8.387-15.24-41.905-20.262-56.217
				C243.667,278.649,248.31,295.57,256.489,297.098z"/>
			<path id="XMLID_6349_" fill="#2D2D2D" d="M400.165,349.006c9.885-10.701,28.895-31.145,39.836-42.023
				c-14.826-15.834-45.783-52.09-56.291-64.868c1.076-24.15,7.143-42.737,7.143-42.737c1.334,1.175,35.285,55.282,49.457,77.908
				c1.592,2.104,27.453,36.339,29.525,42.912c0.852,2.701,1.572,5.076,1.969,7.146c-11.398,7.48-47.146,31.65-54.053,32.867
				C411.243,361.359,403.265,352.408,400.165,349.006z"/>
			<path id="XMLID_6348_" fill="#1E1E1E" d="M417.798,359.207c6.906-1.219,42.607-24.383,54.006-31.863
				c0.598,3.129,0.434,5.547-1.303,7.211l-60.93,45.027c-2.357-4.133-5.986-10.455-9.549-16.512
				c-1.748-2.975-3.484-5.891-5.041-8.439c1.098-1.193,2.898-3.15,5.184-5.625C403.265,352.408,411.29,360.355,417.798,359.207z"/>
			<g id="XMLID_6344_">
				<path id="XMLID_6347_" fill="#D3D3D3" d="M404.165,336.35c0.594,0.246,2.914,3.795,5.865,8.625
					c1.557,2.551,3.291,5.467,5.041,8.441c-0.25,0.238-0.41,0.395-0.41,0.395s-7.193-7.699-8.365-7.578
					c-0.936,0.096-13.133,12.393-18.041,17.373l-5.32-8.947C382.935,354.658,402.185,335.527,404.165,336.35z"/>
				<path id="XMLID_6346_" fill="#F2F2F2" d="M406.296,346.232c1.172-0.121,8.365,7.578,8.365,7.578s0.16-0.156,0.41-0.395
					c3.562,6.055,7.191,12.377,9.549,16.512c1.602,2.809,2.613,4.602,2.613,4.602l-23.924,14.404l-1.074-1.807l-11.426-19.223
					l-2.555-4.299C393.163,358.625,405.36,346.328,406.296,346.232z"/>
			</g>
			<path id="XMLID_6343_" fill="#EABA96" d="M394.229,361.457c0,0-16.014-23.621-18.809-26.498
				c-2.793-2.879-16.926,4.539-20.494,7.615c-3.566,3.076-6.867,10.07-9.072,13.525c-2.203,3.457,3.723,6.121,9.023-1.561
				c5.301-7.68,11.811-9.148,11.811-9.148s-6.742,3.846-8.258,7.018c-1.514,3.174-8.787,11.934-8.465,14.352s9.578-1.52,13-7.893
				c3.42-6.371,9.256-6.219,9.256-6.219s-6.377,3.426-8.555,7.273s-8.908,11.311-7.453,14.203c1.457,2.891,8.65-4.088,12.486-8.486
				c2.189-2.512,7.943-3.533,7.943-3.533s-6.891,2.832-8.229,5.127s-6.598,9.422-5.695,12.271
				c0.902,2.852,11.082-8.311,12.162-8.621c1.08-0.309,6.506,5.381,6.506,5.381s-1.871,9.492,2.367,11.643
				c4.24,2.152,15.668-1.068,17.182-1.959S396.63,364.361,394.229,361.457z"/>
			<g id="XMLID_6321_">
				<path id="XMLID_6340_" fill="#282828" stroke="#000000" stroke-width="0.75" stroke-miterlimit="10" d="M332.433,17.423
					l48.195,52.416c0,0,7.17,39.161-21.361,58.02c0,0,4.031-3.176,3.848-7.085c0,0-2.643,5.619-9.109,8.062
					c0,0,2.273-3.107,1.324-5.218c0,0-2.367,5.18-11.676,8.131L332.433,17.423z"/>
				<path id="Cara_1_" fill="#EABA96" stroke="#E0AA86" stroke-width="0.5" stroke-miterlimit="10" d="M349.37,95.352
					c0,0-1.221,15.77-4.836,32.435c0,0-4.691,14.609-18.008,27.375c0,0-6.291,10.262-16.736,10.079c0,0-11.053,1.833-20.553-10.079
					c0,0-19.066-11.525-22.875-34.633l-4.398-32.24l3.664-27.864l11.545-22.172l2.199-9.163l22.172,6.23l36.467,14.477
					l12.611,13.926L349.37,95.352z"/>
				<path id="Sombra_cara_1_" fill="#E0AA86" d="M282.288,50.529c0,0,15.967,16.858,37.584,15.759c0,0,11.404-2.566,21.07,11.003
					c0,0,5.951,9.622,0.777,19.925c0,0,8.385,12.318-2.793,37.239c0,0-7.758,12.827-12.4,17.225c0,0-13.945,21.026-34.857,6.207
					c0,0,18.244,19.081,34.857-2.726c0,0,15.193-12.277,20.949-34.121c0,0,5.193-12.973,5.561-16.271l10.078-8.362l-2.016-13.921
					c0,0-4.947-3.31-5.498-3.615c-0.549-0.306-2.564,3.909-2.564,3.909s-2.264,3.722-2.414,2.502
					c-0.152-1.219-6.879-22.659-7.09-23.392c-0.209-0.733-19.449-11.361-19.449-11.361l-13.561-4.032l-15.574-6.963l-11.912-4.765
					l-9.65,14.66C273.386,49.43,279.655,48.083,282.288,50.529z"/>
				<path id="sombra_oreja_izq_1_" fill="#B7896A" d="M355.296,88.916c0,0-0.428,4.411-3.664,8.3c0,0-2.631-0.265-1.01,2.484
					c0,0,1.01,2.565,3.086-1.955C353.708,97.745,355.601,95.296,355.296,88.916z"/>
				<path id="oreja_der_1_" fill="#EABA96" stroke="#E0AA86" stroke-width="0.5" stroke-miterlimit="10" d="M269.489,131.693
					c1.072,0.944-5.877-10.432-6.977-21.793c0,0-3.721,6.165-7.797,0c0,0-9.061-13.443-6.252-24.008c0,0,4.705-13.374,8.828-6.533
					l4.672,8.929"/>
				<path id="Sobra_oreja_der_1_" fill="#B7896A" d="M255.183,90.025c0,0-1.342,10.401,2.199,14.527c0,0,3.178,0.217,2.443-2.959
					c0,0-0.648-1.359-1.119-1.168C258.706,100.425,255.304,98.506,255.183,90.025z"/>
				<path id="cabello_1_" fill="#282828" stroke="#000000" stroke-width="0.75" stroke-miterlimit="10" d="M353.036,41.367
					c0,0-11.729-13.56-25.654-15.759c0,0,17.592,9.162,17.592,23.822c0,0,14.781,18.691,1.832,46.544
					c0,0,10.262-27.12-23.455-37.748c0,0-30.418,0-39.215-19.424c0,0,1.1,8.429-6.963,8.062c0,0,3.666,17.591-9.529,21.623
					c0,0-10.994,17.958,0,35.549c0,0-6.596-4.031-9.527-20.89c0,0-8.477-7.604-8.201,9.466c0,0-0.092,19.028,9.701,20.128
					c0,0,0.332,4.123,3.996,8.521c0,0-3.664,0.733-1.832,4.397c0,0-5.498-1.833-6.23-6.23c0,0-2.199,3.298-1.465,6.23
					c0,0-4.398-4.031-2.566-12.46c0,0-2.566,1.833-1.832,8.429c0,0-3.666-5.864-3.666-13.193c2.355,9.378,0.201,10.683,3.115,17.225
					c0,0-23.271,2.932-24.371-38.481c0,0,6.23-60.104,52.408-63.036c0,0,4.398-39.947,64.502-4.764
					C341.675,19.378,353.036,28.173,353.036,41.367z"/>
				<path id="mechon_izq_1_" stroke="#000000" stroke-miterlimit="10" d="M341.675,19.378c0,0,59.371,28.219,31.518,84.292
					c0,0,1.832-9.529-5.131-20.89c0,0,2.811,32.373-25.217,39.825c0,0,7.883-5.611,7.504-15.393c0,0,11.588-7.208,10.803-17.469
					c0,0-0.785-12.094-8.115-6.963c0,0-2.932,13.193-6.23,13.193c0,0,13.01-21.989-1.832-46.544c0,0,2.016-12.277-17.592-23.822
					c0,0,14.844,2.382,25.654,15.759C353.036,41.367,355.052,31.838,341.675,19.378z"/>
				<path id="sombra_cabello_der_1_" stroke="#000000" stroke-miterlimit="10" d="M277.173,24.142c0,0-43.246-0.001-52.408,63.036
					c0,0-0.916,36.648,24.371,38.481c0,0-3.629-6.058-3.115-17.225c0,0-6.779,1.099-7.879,7.146
					C238.142,115.581,209.372,60.607,277.173,24.142z"/>
				<path id="sombra_cabello_der_2_1_" stroke="#000000" stroke-miterlimit="10" d="M262.239,110.679c0,0-0.703,3.936,3.725,14.797
					c0,0-6.139-3.359-4.184,0.183c0,0-5.375-2.138-6.23-6.23c0,0-2.871,2.688-1.465,6.23c0,0-4.514-4.951-2.566-12.46
					c0,0-3.299,1.71-1.832,8.429c0,0-5.191-9.59-3.543-16.064c0,0,0.596,3.016,1.955,3.97c1.357,0.955,3.48-0.152,2.871-3.237
					c0,0-2.371-17.042-0.795-20.34c0,0-1.143,6.177,0.014,12.558C251.759,107.179,256.329,116.219,262.239,110.679z"/>
				<g id="ojo_der_1_">
					<path id="parpado_der_1_" fill="#C1A578" d="M301.604,89.56c0,0-1.771-9.467-11.238-11.911c0,0-10.873-2.688-13.682,6.658
						l0.611,2.226c0,0,4.031-4.792,10.934-4.498C288.229,82.036,298.796,84.002,301.604,89.56z"/>
					
						<path id="pestaña_der_1_" stroke="#000000" stroke-width="0.25" stroke-linecap="round" stroke-linejoin="round" stroke-miterlimit="10" d="
						M300.751,90.477l0.854,0.564V89.56c0,0-5.527-7.463-13.375-7.524c0,0-6.842-0.416-10.689,3.921c0,0-1.283,0.489-2.688-1.161
						c0,0,0.854,2.932,3.053,2.871L300.751,90.477z"/>
					
						<path id="XMLID_6339_" fill="#FFFFFF" stroke="#000000" stroke-width="0.25" stroke-linecap="round" stroke-linejoin="round" stroke-miterlimit="10" d="
						M300.751,90.477c0,0,0.488,6.475-10.385,8.307c0,0-9.406,2.675-12.461-11.117C277.905,87.667,286.335,75.695,300.751,90.477z"
						/>
					<path id="ceja_der_1_" stroke="#000000" stroke-linecap="round" stroke-linejoin="round" stroke-miterlimit="10" d="
						M301.604,78.871v-2.688c0,0-11.85-12.583-26.752-2.309C274.853,73.875,290.366,67.51,301.604,78.871z"/>
				</g>
				<g id="Ojo_izq_1_">
					<path id="parpado_izq_1_" fill="#C1A578" d="M319.872,89.433c0,0,1.633-8.727,10.361-10.979c0,0,10.021-2.477,12.611,6.137
						l-0.562,2.052c0,0-3.717-4.417-10.078-4.146C332.204,82.497,322.464,84.309,319.872,89.433z"/>
					
						<path id="pestaña_izq_1_" stroke="#000000" stroke-width="0.25" stroke-linecap="round" stroke-linejoin="round" stroke-miterlimit="10" d="
						M320.661,90.277l-0.789,0.521v-1.365c0,0,5.098-6.88,12.332-6.936c0,0,6.305-0.384,9.852,3.614c0,0,1.184,0.451,2.479-1.07
						c0,0-0.789,2.703-2.814,2.646L320.661,90.277z"/>
					
						<path id="cuenca_izq_1_" fill="#FFFFFF" stroke="#000000" stroke-width="0.25" stroke-linecap="round" stroke-linejoin="round" stroke-miterlimit="10" d="
						M320.661,90.277c0,0-0.451,5.968,9.572,7.657c0,0,8.67,2.466,11.486-10.247C341.72,87.687,333.948,76.651,320.661,90.277z"/>
					<path id="ceja_izq_1_" stroke="#000000" stroke-linecap="round" stroke-linejoin="round" stroke-miterlimit="10" d="
						M318.796,77.291v-2.688c0,0,10.957-12.583,24.736-2.308C343.532,72.295,329.187,65.93,318.796,77.291z"/>
				</g>
				<g id="Boca_1_">
					<path id="XMLID_6334_" fill="#9E3025" stroke="#4C2311" stroke-width="0.25" stroke-miterlimit="10" d="M321.909,137.255
						c0,0-2.223,5.625-11.947,6.368c0,0-14.623,2.14-17.645-10.804l16.529,3.146L321.909,137.255z"/>
					<path id="XMLID_6333_" fill="#871D08" stroke="#4C2311" stroke-width="0.25" stroke-miterlimit="10" d="M322.868,137.045
						c0,0-3.785-2.586-5.779-5.623c0,0-3.77-4.138-7.906,0c0,0-3.002-2.677-5.887-2.697c-3.256-0.022-3.502,6.11-10.979,4.094
						c0,0,4.725,5.883,15.557,2.953C307.874,135.771,315.442,138.424,322.868,137.045z"/>
				</g>
				<path id="Nariz_1_" fill="none" stroke="#D8A27D" stroke-width="0.75" stroke-miterlimit="10" d="M315.532,85.893
					c0,0-2.443,19.854,2.199,26.817c0,0,2.809,9.529-12.34,4.765"/>
				<g id="XMLID_6330_">
					
						<circle id="XMLID_6332_" fill="#A5ABAD" stroke="#959DA0" stroke-width="0.5" stroke-miterlimit="10" cx="353.036" cy="103.081" r="2.406"/>
					<path id="XMLID_6331_" fill="#B1BABC" d="M353.128,101.659c0,0-1.682,0.492-1.301,2.587c0,0-0.896-1.305-0.158-2.396
						C351.669,101.85,352.097,101.151,353.128,101.659z"/>
				</g>
				<g id="XMLID_6327_">
					
						<circle id="XMLID_6329_" fill="#A5ABAD" stroke="#959DA0" stroke-width="0.5" stroke-miterlimit="10" cx="259.034" cy="109.563" r="2.406"/>
					<path id="XMLID_6328_" fill="#B1BABC" d="M259.126,108.142c0,0-1.682,0.492-1.301,2.587c0,0-0.896-1.306-0.158-2.396
						C257.667,108.332,258.095,107.634,259.126,108.142z"/>
				</g>
				
					<path id="XMLID_6326_" fill="none" stroke="#000000" stroke-width="1.5" stroke-linecap="round" stroke-linejoin="round" stroke-miterlimit="10" d="
					M259.491,86.694L259.491,86.694l12.232,1.39l0.822-4.416l0.84,0.179c17.742-14.434,35.807,2.985,35.807,2.985l-0.479,3.548
					l4.74,0.351l-0.479-3.547c0,0,18.064-17.419,35.807-2.985l0.842-0.179l1.012,7.109l-0.59,0.268c0,0-1.434,14.261-11.889,14.083
					c0,0-15.682,2.397-20.234-5.731c0,0-2.699-4.541-2.361-9.017c0,0-1.18-1.336-2.107,0l-4.74-0.351c-0.928-1.336-2.107,0-2.107,0
					c0.338,4.476-2.361,9.017-2.361,9.017c-4.553,8.128-20.234,5.731-20.234,5.731c-10.455,0.179-11.887-14.083-11.887-14.083
					l-0.592-0.268l0.191-2.693L259.491,86.694z"/>
			</g>
		</g>
		<circle id="XMLID_6338_" fill="#70582D" cx="331.358" cy="90.729" r="4.896"/>
		<circle id="XMLID_6337_" cx="330.766" cy="91.448" r="3.032"/>
		<circle id="XMLID_6336_" fill="#FFFFFF" cx="332.625" cy="89.919" r="1.062"/>
		<circle id="XMLID_6335_" fill="#FFFFFF" cx="329.449" cy="86.445" r="0.681"/>
		<circle id="XMLID_6325_" fill="#70582D" cx="289.751" cy="90.729" r="4.896"/>
		<circle id="XMLID_6324_" cx="289.158" cy="91.448" r="3.032"/>
		<circle id="XMLID_6323_" fill="#FFFFFF" cx="291.017" cy="89.919" r="1.062"/>
		<circle id="XMLID_6322_" fill="#FFFFFF" cx="287.841" cy="86.445" r="0.682"/>
	</g>
</g>
</svg>
