<?xml version="1.0" encoding="utf-8"?>
<!-- Generator: Adobe Illustrator 16.0.0, SVG Export Plug-In . SVG Version: 6.00 Build 0)  -->
<!DOCTYPE svg PUBLIC "-//W3C//DTD SVG 1.1//EN" "http://www.w3.org/Graphics/SVG/1.1/DTD/svg11.dtd">
<svg version="1.1" id="Layer_1" xmlns="http://www.w3.org/2000/svg" xmlns:xlink="http://www.w3.org/1999/xlink" x="0px" y="0px"
	 width="43.58px" height="48.728px" viewBox="0 0 43.58 48.728" enable-background="new 0 0 43.58 48.728" xml:space="preserve">
<g id="XMLID_14618_">
	<path id="XMLID_14632_" fill="#51564D" d="M21.779,43.586c-4.9,0-9.713-1.681-13.552-4.73c-9.408-7.475-10.981-21.21-3.507-30.618
		C8.88,3.002,15.102,0,21.789,0c4.899,0,9.712,1.681,13.551,4.73c4.559,3.621,7.433,8.8,8.095,14.583
		c0.315,2.754,0.116,5.49-0.593,8.133c-0.441,1.647-1.082,3.245-1.902,4.748c-0.378,0.693-1.247,0.949-1.94,0.57
		c-0.693-0.378-0.948-1.247-0.57-1.94c0.712-1.304,1.267-2.69,1.65-4.12c0.615-2.293,0.788-4.67,0.514-7.065
		c-0.575-5.023-3.072-9.523-7.032-12.669c-3.335-2.65-7.516-4.109-11.771-4.109c-5.811,0-11.215,2.608-14.828,7.155
		c-6.494,8.174-5.127,20.106,3.046,26.601c3.335,2.649,7.517,4.109,11.772,4.109c0.79,0,1.43,0.64,1.43,1.43
		C23.209,42.944,22.569,43.586,21.779,43.586L21.779,43.586z M21.779,43.586"/>
	<path id="XMLID_14629_" fill="#51564D" d="M21.779,37.149c-3.452,0-6.843-1.184-9.548-3.333C5.602,28.549,4.493,18.87,9.761,12.24
		c2.931-3.688,7.314-5.804,12.028-5.804c3.452,0,6.843,1.184,9.548,3.333c3.212,2.552,5.237,6.201,5.704,10.276
		c0.232,2.039,0.066,4.06-0.495,6.007c-0.22,0.759-1.013,1.196-1.771,0.978c-0.76-0.22-1.197-1.012-0.979-1.771
		c0.457-1.582,0.592-3.227,0.401-4.888c-0.379-3.315-2.027-6.285-4.642-8.362c-2.201-1.749-4.96-2.713-7.768-2.713
		c-3.836,0-7.404,1.723-9.789,4.724c-4.286,5.395-3.385,13.271,2.011,17.558c2.201,1.748,4.96,2.712,7.769,2.712
		c0.79,0,1.43,0.64,1.43,1.431C23.209,36.509,22.569,37.149,21.779,37.149L21.779,37.149z M21.779,37.149"/>
	<path id="XMLID_14626_" fill="#FFFFFF" stroke="#FFFFFF" stroke-width="0.115" stroke-miterlimit="10" d="M29.273,21.793
		c0,4.136-3.353,7.489-7.489,7.489c-4.138,0-7.49-3.354-7.49-7.489c0-4.137,3.353-7.49,7.49-7.49
		C25.921,14.303,29.273,17.656,29.273,21.793L29.273,21.793z M29.273,21.793"/>
	<path id="XMLID_14622_" fill="#787C74" d="M21.779,30.714c-2.004,0-3.973-0.688-5.544-1.937c-3.852-3.06-4.495-8.683-1.436-12.534
		c1.702-2.143,4.25-3.371,6.989-3.371c2.004,0,3.973,0.688,5.544,1.937c3.851,3.06,4.495,8.683,1.436,12.533
		C27.065,29.484,24.519,30.714,21.779,30.714L21.779,30.714z M21.789,15.732c-1.862,0-3.593,0.835-4.75,2.291
		c-2.078,2.616-1.641,6.436,0.975,8.515c1.084,0.86,2.386,1.314,3.766,1.314c1.861,0,3.593-0.834,4.749-2.29
		c2.079-2.616,1.642-6.436-0.975-8.515C24.471,16.188,23.169,15.732,21.789,15.732L21.789,15.732z M21.789,15.732"/>
	<path id="XMLID_14619_" fill="#FFFFFF" stroke="#51564D" stroke-width="1.7139" stroke-miterlimit="10" d="M31.138,47.871
		c2.029,0,3.675-1.646,3.675-3.675v-9.398c0-2.739-2.221-4.96-4.961-4.96l-5.023-0.009v-7.348c0-1.551-1.205-2.872-2.756-2.928
		c-1.627-0.057-2.965,1.244-2.965,2.859v12.838l-0.75-1.564c-0.409-0.854-1.181-1.338-1.977-1.338c-0.366,0-0.737,0.104-1.081,0.317
		c-1.091,0.685-1.491,2.247-0.892,3.493c0,0,2.475,5.795,4.242,9.59c0.603,1.295,1.902,2.122,3.33,2.122H31.138z M31.138,47.871"/>
</g>
</svg>
