<?xml version="1.0" encoding="utf-8"?>
<!-- Generator: Adobe Illustrator 16.0.0, SVG Export Plug-In . SVG Version: 6.00 Build 0)  -->
<!DOCTYPE svg PUBLIC "-//W3C//DTD SVG 1.1//EN" "http://www.w3.org/Graphics/SVG/1.1/DTD/svg11.dtd">
<svg version="1.1" id="Layer_1" xmlns="http://www.w3.org/2000/svg" xmlns:xlink="http://www.w3.org/1999/xlink" x="0px" y="0px"
	 width="412.515px" height="274.466px" viewBox="0 0 412.515 274.466" enable-background="new 0 0 412.515 274.466"
	 xml:space="preserve">
<g id="XMLID_7761_">
	<g id="XMLID_13740_">
		<g id="XMLID_16417_">
			<g id="XMLID_16434_">
				<path id="XMLID_16435_" fill="#F7EBCB" d="M187.615,6.385c-23.815,0-43.19,19.368-43.19,43.181v175.331
					c0,23.812,19.375,43.188,43.19,43.188h175.329c23.813,0,43.188-19.376,43.188-43.188V49.565
					c0-23.812-19.374-43.181-43.188-43.181H187.615z"/>
			</g>
			<path id="XMLID_16431_" fill="#2BB0BA" d="M362.944,0H187.615c-27.334,0-49.571,22.238-49.571,49.565v175.331
				c0,27.333,22.237,49.569,49.571,49.569h175.329c27.334,0,49.57-22.236,49.57-49.569V49.565C412.515,22.238,390.278,0,362.944,0z
				 M362.944,266.806H187.615c-23.11,0-41.912-18.8-41.912-41.909V49.565c0-23.103,18.802-41.903,41.912-41.903h175.329
				c23.111,0,41.912,18.801,41.912,41.903v175.331C404.856,248.006,386.056,266.806,362.944,266.806z"/>
			<g id="XMLID_16418_">
				<path id="XMLID_16419_" fill="#2BB0BA" d="M69.345,188.258c-2.447,0-4.744,0.955-6.475,2.683c-3.57,3.573-3.57,9.379,0,12.944
					c1.73,1.73,4.027,2.68,6.475,2.68c2.446,0,4.742-0.949,6.471-2.68c3.57-3.565,3.57-9.371,0-12.944
					C74.087,189.213,71.791,188.258,69.345,188.258z M49.279,168.193c-2.446,0-4.747,0.953-6.474,2.68
					c-3.567,3.571-3.567,9.381,0,12.951c1.727,1.73,4.027,2.68,6.474,2.68c2.444,0,4.745-0.949,6.475-2.68
					c3.565-3.57,3.565-9.38,0-12.951C54.024,169.146,51.724,168.193,49.279,168.193z M29.218,148.13
					c-2.447,0-4.748,0.956-6.475,2.683c-1.727,1.73-2.682,4.031-2.682,6.476s0.955,4.742,2.682,6.47
					c1.727,1.731,4.027,2.681,6.475,2.681c2.442,0,4.74-0.949,6.471-2.681c3.57-3.566,3.57-9.375,0-12.945
					C33.958,149.086,31.66,148.13,29.218,148.13z M9.153,128.066c-2.447,0-4.748,0.953-6.477,2.68
					c-1.728,1.735-2.68,4.035-2.677,6.485c-0.003,2.454,0.949,4.755,2.677,6.485c1.729,1.73,4.029,2.684,6.477,2.684
					c2.442,0,4.743-0.953,6.474-2.684c1.728-1.73,2.681-4.031,2.677-6.482c0.004-2.453-0.949-4.753-2.677-6.488
					C13.896,129.02,11.596,128.066,9.153,128.066z M134.05,128.076c-5.049,0.004-9.154,4.11-9.154,9.155
					c0,5.05,4.105,9.155,9.154,9.155c5.047,0,9.152-4.105,9.152-9.155S139.097,128.076,134.05,128.076z M105.675,128.076
					c-5.051,0-9.154,4.105-9.154,9.155s4.104,9.155,9.154,9.155c5.047,0,9.152-4.105,9.152-9.155S110.722,128.076,105.675,128.076z
					 M77.303,128.08c-5.05,0-9.159,4.106-9.159,9.151c0,2.448,0.954,4.747,2.685,6.475c1.728,1.731,4.028,2.681,6.475,2.681
					c5.044,0,9.152-4.105,9.152-9.155C86.455,132.187,82.352,128.08,77.303,128.08z M48.927,128.076
					c-5.048,0-9.154,4.105-9.154,9.155s4.106,9.155,9.154,9.155c5.045,0,9.152-4.105,9.156-9.155
					C58.083,132.182,53.976,128.076,48.927,128.076z M29.218,108.025c-2.45,0-4.748,0.953-6.475,2.682s-2.682,4.029-2.682,6.474
					c0,2.445,0.955,4.743,2.682,6.47c1.727,1.732,4.024,2.681,6.475,2.681c2.442,0,4.74-0.948,6.471-2.681
					c3.57-3.565,3.57-9.371,0-12.943C33.958,108.979,31.66,108.025,29.218,108.025z M49.279,87.96c-2.446,0-4.747,0.954-6.474,2.68
					c-3.567,3.574-3.567,9.38,0,12.951c1.727,1.729,4.027,2.68,6.474,2.68c2.444,0,4.745-0.95,6.475-2.68
					c3.565-3.571,3.565-9.377,0-12.951C54.024,88.914,51.724,87.96,49.279,87.96z M69.345,67.896c-2.451,0-4.744,0.955-6.475,2.683
					c-3.57,3.573-3.57,9.379,0,12.945c1.73,1.73,4.023,2.681,6.475,2.681c2.446,0,4.742-0.95,6.471-2.681
					c3.57-3.566,3.57-9.372,0-12.945C74.087,68.852,71.791,67.896,69.345,67.896z"/>
			</g>
		</g>
	</g>
</g>
</svg>
