<?xml version="1.0" encoding="utf-8"?>
<!-- Generator: Adobe Illustrator 16.0.0, SVG Export Plug-In . SVG Version: 6.00 Build 0)  -->
<!DOCTYPE svg PUBLIC "-//W3C//DTD SVG 1.1//EN" "http://www.w3.org/Graphics/SVG/1.1/DTD/svg11.dtd">
<svg version="1.1" id="Layer_1" xmlns="http://www.w3.org/2000/svg" xmlns:xlink="http://www.w3.org/1999/xlink" x="0px" y="0px"
	 width="176.941px" height="128px" viewBox="0 0 176.941 128" enable-background="new 0 0 176.941 128" xml:space="preserve">
<g id="XMLID_4191_">
	<g id="XMLID_5001_">
		<polygon id="XMLID_5003_" fill="#51564D" points="37.496,33.221 37.495,39.348 30.533,36.285 		"/>
		<polygon id="XMLID_5002_" fill="#51564D" points="139.447,128 139.447,121.874 146.409,124.936 		"/>
	</g>
	<g id="XMLID_4456_">
		<path id="XMLID_4542_" fill="#51564D" d="M45.115,26.733l-0.455-0.085l0.398-2.545l-0.057-0.37l0.412-3.726l0.142-0.469
			l-0.113-0.271l0.085-0.867c-0.047,0.038-0.123,0.104-0.228,0.199c-0.729,0.635-1.351,1.208-1.862,1.721l-0.214,0.114l-0.113,0.213
			l-0.256,0.085c-0.551,0.37-1.029,0.657-1.437,0.86c-0.408,0.204-0.806,0.353-1.194,0.448l-0.427,0.171l-0.327-0.171l-0.327,0.057
			l-0.142-0.085l-0.47,0.199l-0.896-0.427L36.91,21.23l-0.668-0.64l-0.47-1.493l-0.355-1.422l-0.028-0.583l0.086-0.085l-0.086-0.142
			l0.114-0.27l-0.086-0.441c0.095-2.085,0.427-3.906,0.996-5.46c0.568-1.555,1.44-3.062,2.616-4.522l0.113-0.384
			c0.844-1.119,2.186-2.185,4.024-3.2l0.143-0.085l0.128,0.028l0.412-0.355c0.284-0.085,0.6-0.149,0.945-0.192
			s0.756-0.064,1.23-0.064h0.583l0.469,0.199l0.256-0.029c0.437,0.294,0.766,0.55,0.989,0.768c0.222,0.218,0.386,0.441,0.49,0.668
			c0.228,0.19,0.4,0.408,0.519,0.654s0.192,0.531,0.221,0.853l0.228,0.256l0.199,0.91l0.213,0.256l0.114,0.611
			c-0.304,0.379-0.839,0.938-1.607,1.678l-0.057,0.043c-0.104,0.028-0.192,0.05-0.263,0.064c-0.071,0.014-0.141,0.021-0.207,0.021
			c-0.18,0-0.322-0.055-0.426-0.164c-0.104-0.109-0.166-0.268-0.186-0.476l-0.199-1.223V6.84c0-0.398-0.09-0.775-0.27-1.13
			c-0.181-0.355-0.564-0.86-1.152-1.515l-0.241-0.242l-0.341-0.057l-0.299-0.171l-0.228,0.085h-0.114
			c-0.645,0-1.297,0.239-1.955,0.718c-0.659,0.479-1.264,1.154-1.812,2.026l-0.342,0.341l-0.057,0.299l-0.526,0.867L39.854,8.29
			l-0.1,0.469c-0.095,0.266-0.173,0.467-0.234,0.604c-0.062,0.138-0.126,0.268-0.191,0.391l-0.058,0.284
			c-0.066,0.228-0.149,0.51-0.249,0.846s-0.163,0.562-0.191,0.676l-0.113,0.17l-0.086,0.583c-0.152,0.578-0.263,1.147-0.334,1.707
			c-0.071,0.559-0.106,1.128-0.106,1.706c0,0.304,0.009,0.576,0.028,0.818c0.019,0.242,0.047,0.462,0.085,0.661v0.27l0.199,0.285
			l0.412,0.995l0.058,0.285c0.397,0.294,0.729,0.502,0.995,0.625c0.265,0.123,0.507,0.185,0.726,0.185
			c0.274,0,0.698-0.135,1.272-0.405c0.573-0.271,1.073-0.6,1.5-0.988l0.171-0.114l0.17-0.384l0.91-0.867l0.285-0.028l0.17-0.441
			l0.214-0.028V16.21c0.293-0.351,0.691-0.811,1.194-1.379c0.142-0.161,0.246-0.28,0.312-0.356c0.171-0.085,0.317-0.146,0.44-0.185
			c0.124-0.038,0.242-0.057,0.356-0.057c0.246,0,0.476,0.057,0.689,0.171c0.213,0.114,0.4,0.284,0.562,0.512l0.142,0.285
			l-0.142,0.896l-0.1,0.355l0.042,0.341l-0.739,3.186l-0.113,0.37l-0.37,1.408l-0.128,0.455v0.298
			c-0.038,0.18-0.095,0.368-0.171,0.562c-0.075,0.194-0.161,0.386-0.256,0.576v0.285c-0.133,0.768-0.306,1.287-0.519,1.557
			c-0.213,0.271-0.538,0.434-0.974,0.491L45.115,26.733z"/>
		<path id="XMLID_4544_" fill="#51564D" d="M50.732,17.476l-0.029-0.27l-0.369,0.27l-0.214,0.142l-0.284,0.228
			c-0.171,0.095-0.294,0.166-0.369,0.213c-0.076,0.048-0.147,0.095-0.214,0.142l-0.171,0.143L48.784,18.5
			c-0.048,0.104-0.116,0.183-0.206,0.234c-0.091,0.052-0.235,0.079-0.435,0.079c-0.095-0.009-0.151-0.026-0.17-0.05
			c-0.02-0.023-0.038-0.093-0.058-0.206c0.02-0.133,0.053-0.23,0.1-0.292c0.048-0.062,0.128-0.121,0.242-0.178v-0.298
			c0.095-0.085,0.189-0.18,0.284-0.285c0.095-0.104,0.204-0.232,0.327-0.384l0.213-0.298l0.199-0.085
			c0.057-0.133,0.131-0.239,0.221-0.32s0.221-0.159,0.391-0.235l0.086-0.199l0.384-0.228l0.327-0.27
			c0.028-0.019,0.052-0.05,0.071-0.092c0.019-0.043,0.033-0.097,0.042-0.164v-0.114l0.143-0.27l-0.057-0.171l0.085-0.242
			c0.066-0.341,0.14-0.623,0.221-0.846c0.08-0.223,0.182-0.424,0.306-0.604l0.199-0.114l-0.058-0.171
			c0.189-0.37,0.432-0.728,0.726-1.073c0.294-0.346,0.749-0.794,1.365-1.344h0.156l0.113-0.128l0.143-0.028l0.085-0.199
			c0.257-0.208,0.5-0.357,0.732-0.448c0.232-0.09,0.486-0.135,0.761-0.135c0.104,0,0.186,0.002,0.242,0.007s0.108,0.012,0.156,0.021
			l0.128,0.057l0.583,0.185l0.199,0.256l0.085,0.028c0.058,0.152,0.1,0.285,0.128,0.398c0.029,0.114,0.043,0.194,0.043,0.242
			c0,0.057-0.002,0.104-0.007,0.142c-0.005,0.038-0.013,0.066-0.021,0.085l0.085,0.213l-0.028,0.312l-0.113,0.384l-0.199,0.285
			l-0.057,0.327c-0.076,0.133-0.169,0.265-0.277,0.398c-0.109,0.133-0.249,0.29-0.42,0.469l-0.1,0.185
			c-0.228,0.275-0.497,0.559-0.811,0.853c-0.312,0.294-0.711,0.63-1.194,1.01l-0.256,0.085l-0.085,0.171l-0.498,0.327l-0.213,0.256
			c-0.038,0.028-0.067,0.057-0.086,0.085c-0.019,0.028-0.028,0.057-0.028,0.085c0,0.095,0.017,0.197,0.05,0.306
			c0.033,0.109,0.088,0.245,0.163,0.405l0.143,0.171l0.086,0.284c0.236,0.18,0.464,0.313,0.682,0.398
			c0.219,0.085,0.437,0.128,0.654,0.128c0.133,0,0.275-0.023,0.427-0.071c0.151-0.047,0.351-0.137,0.598-0.27l0.198-0.057
			l0.498-0.327l0.384,0.028l0.086-0.228c0.028-0.028,0.144-0.133,0.348-0.313c0.204-0.18,0.387-0.341,0.548-0.483l0.242-0.114
			l0.17-0.256c0.123-0.085,0.251-0.159,0.384-0.22c0.133-0.062,0.275-0.116,0.427-0.164c0.076-0.124,0.168-0.223,0.277-0.299
			c0.109-0.076,0.244-0.133,0.405-0.17l0.228-0.228c0.076-0.029,0.149-0.05,0.221-0.064s0.121-0.021,0.149-0.021
			c0.113,0,0.191,0.017,0.234,0.05s0.063,0.092,0.063,0.178c0,0.057-0.014,0.121-0.042,0.192s-0.062,0.13-0.1,0.178l-0.071,0.185
			c-0.066,0.114-0.163,0.239-0.291,0.376c-0.129,0.138-0.302,0.306-0.52,0.505v0.085c0,0.114-0.028,0.192-0.085,0.234
			c-0.058,0.043-0.166,0.074-0.327,0.093c-0.124,0.256-0.394,0.545-0.811,0.867c-0.133,0.104-0.237,0.19-0.312,0.256l-0.242,0.199
			l-0.156,0.071c-0.066,0.057-0.141,0.123-0.221,0.199c-0.081,0.076-0.188,0.18-0.32,0.313l-0.17,0.213l-0.355,0.228
			c-0.313,0.275-0.661,0.5-1.045,0.675c-0.385,0.176-0.714,0.263-0.988,0.263h-0.143l-0.327-0.057l-0.143,0.085h-0.412
			c-0.351,0-0.643-0.036-0.874-0.106c-0.232-0.071-0.405-0.183-0.52-0.334l-0.213,0.029l-0.342-0.313l-0.17-0.327l-0.157-0.156
			c-0.095-0.123-0.173-0.244-0.234-0.363c-0.062-0.118-0.116-0.253-0.163-0.405L50.732,17.476z M54.586,13.097l0.227-0.171
			c0-0.076,0.041-0.189,0.121-0.341c0.081-0.151,0.121-0.308,0.121-0.469c-0.01-0.132-0.02-0.208-0.028-0.228
			c-0.01-0.019-0.043-0.033-0.1-0.042H54.87l-0.228,0.142l-0.555,0.498l-0.526,0.526l-0.469,0.683
			c-0.058,0.104-0.104,0.211-0.143,0.32s-0.057,0.202-0.057,0.277c0,0.019,0.007,0.033,0.021,0.042
			c0.014,0.01,0.025,0.014,0.035,0.014c0.028,0,0.057-0.004,0.085-0.014c0.029-0.009,0.071-0.033,0.129-0.071
			c0.047-0.009,0.089-0.017,0.127-0.021s0.081-0.007,0.129-0.007c0.019,0,0.042-0.007,0.07-0.021
			c0.029-0.014,0.071-0.055,0.128-0.121l0.143-0.256l0.241-0.242L54.586,13.097z"/>
		<path id="XMLID_4824_" fill="#51564D" d="M58.481,17.533l-0.085,0.028l-0.114-0.028c-0.095,0.133-0.191,0.232-0.291,0.298
			c-0.1,0.066-0.221,0.114-0.362,0.143l-0.285,0.227l-0.284,0.171c-0.028,0.019-0.066,0.047-0.113,0.085
			c-0.143,0.104-0.242,0.194-0.299,0.27l-0.355,0.114c-0.123-0.057-0.201-0.104-0.234-0.142c-0.034-0.038-0.05-0.09-0.05-0.157
			c0-0.028,0.005-0.064,0.014-0.106c0.01-0.043,0.023-0.092,0.043-0.149l0.312-0.27v-0.256c0.133-0.124,0.244-0.239,0.334-0.349
			c0.091-0.109,0.173-0.225,0.249-0.348l0.214-0.299l0.256-0.057c0.085-0.143,0.175-0.271,0.27-0.384s0.19-0.208,0.285-0.284
			l0.27-0.285l1.066-0.881l0.384-0.228l0.143-0.299l0.64-0.697l0.214-0.057l0.17-0.313l1.337-1.351l0.171-0.057l0.057-0.142
			l1.166-1.194c0.294-0.332,0.526-0.545,0.697-0.64c0.17-0.095,0.355-0.142,0.554-0.142c0.104,0,0.224,0.019,0.355,0.057
			c0.133,0.038,0.309,0.104,0.526,0.199l0.199,0.114l0.256,0.313c0.058,0.095,0.097,0.178,0.121,0.249
			c0.023,0.071,0.035,0.14,0.035,0.206c0,0.019-0.005,0.05-0.014,0.092c-0.01,0.042-0.024,0.097-0.043,0.164v0.142
			c0,0.161-0.017,0.325-0.05,0.491s-0.088,0.372-0.163,0.619l0.071,0.327l-0.129,0.612c-0.028,0.256-0.078,0.54-0.148,0.853
			c-0.071,0.313-0.174,0.716-0.307,1.208l-0.185,0.612l-0.256,0.853l-0.241,0.583c-0.02,0.095-0.05,0.194-0.093,0.298
			c-0.043,0.104-0.088,0.199-0.135,0.285l0.028,0.256l1.194-0.853l0.299-0.37c0.208-0.114,0.386-0.235,0.533-0.363
			c0.146-0.128,0.277-0.282,0.391-0.462l0.271-0.256c0.057-0.142,0.191-0.256,0.405-0.341c0.213-0.085,0.367-0.166,0.462-0.242
			l0.342-0.312c0.104-0.029,0.196-0.064,0.276-0.107c0.081-0.042,0.154-0.097,0.221-0.164l0.384-0.199h0.057
			c0.096,0,0.168,0.021,0.221,0.064c0.053,0.042,0.078,0.097,0.078,0.164c-0.01,0.038-0.021,0.078-0.035,0.121
			c-0.015,0.042-0.031,0.088-0.05,0.135l-0.043,0.27c-0.028,0.038-0.075,0.1-0.142,0.185c-0.256,0.312-0.488,0.574-0.697,0.782
			c-0.028,0.114-0.073,0.195-0.135,0.242c-0.062,0.048-0.159,0.081-0.292,0.1c-0.161,0.323-0.412,0.617-0.753,0.882
			c-0.114,0.085-0.195,0.152-0.242,0.199l-0.213,0.142l-0.313,0.412l-0.27,0.114l-0.199,0.299c-0.161,0.142-0.339,0.277-0.533,0.405
			s-0.425,0.254-0.69,0.377l-0.326,0.469l-0.171,0.256l-0.313,0.142c-0.095,0.17-0.189,0.292-0.284,0.363
			c-0.095,0.071-0.194,0.106-0.298,0.106h-0.129l-0.455,0.555l-0.64,0.256l-0.27,0.185l-0.228-0.029
			c-0.124-0.019-0.221-0.059-0.292-0.121s-0.12-0.149-0.149-0.263l0.029-0.142l-0.114-0.171c-0.133-0.293-0.234-0.606-0.306-0.938
			c-0.071-0.332-0.116-0.697-0.135-1.095l0.085-0.299l-0.228-0.668c0.18-0.322,0.374-0.574,0.583-0.754
			c0.208-0.18,0.402-0.27,0.583-0.27c0.151,0,0.271,0.109,0.355,0.327c0.047,0.114,0.085,0.199,0.113,0.256h0.1
			c0.058-0.095,0.107-0.208,0.149-0.341c0.043-0.133,0.093-0.322,0.149-0.569v-0.526c0.066-0.256,0.114-0.502,0.143-0.74
			c0.028-0.237,0.043-0.464,0.043-0.683v-0.284l0.057-0.611l-0.214-0.271l-0.369,0.057l-0.271,0.299l-0.312,0.199
			c-0.162,0.133-0.448,0.405-0.86,0.818c-0.413,0.412-0.766,0.742-1.06,0.988l-0.412,0.327l-0.285,0.143l-0.042,0.156
			c-0.124,0.161-0.264,0.315-0.42,0.462C58.858,17.247,58.681,17.391,58.481,17.533z"/>
		<path id="XMLID_4826_" fill="#51564D" d="M75.986,4.394C75.9,4.65,75.815,4.937,75.73,5.254c-0.086,0.317-0.166,0.652-0.242,1.002
			c0.104,0,0.196,0.01,0.277,0.028c0.08,0.019,0.164,0.048,0.249,0.085c0.057,0,0.1,0.012,0.128,0.036s0.043,0.059,0.043,0.106v0.1
			c0.009,0.284,0.03,0.571,0.063,0.86s0.05,0.438,0.05,0.448c0,0.266-0.05,0.448-0.149,0.547c-0.1,0.1-0.301,0.149-0.604,0.149
			c-0.341-0.019-0.593-0.028-0.753-0.028c-0.076,0.208-0.149,0.4-0.221,0.576C74.5,9.34,74.427,9.508,74.351,9.669
			c0.01,0.038,0.026,0.085,0.05,0.143c0.023,0.057,0.036,0.095,0.036,0.113c0,0.057-0.038,0.128-0.114,0.213
			c-0.038,0.048-0.066,0.081-0.085,0.1c-0.398,1.564-0.702,2.83-0.91,3.797c-0.209,0.967-0.365,1.811-0.47,2.531v0.1
			c-0.019,0.066-0.033,0.116-0.042,0.149c-0.01,0.033-0.015,0.06-0.015,0.078c0,0.019,0.002,0.036,0.007,0.05
			s0.012,0.031,0.021,0.05c-0.057,0.313-0.104,0.609-0.142,0.889c-0.039,0.28-0.058,0.491-0.058,0.633
			c0,0.066,0.033,0.133,0.1,0.199s0.118,0.1,0.157,0.1c0.075,0,0.203-0.071,0.384-0.213c0.085-0.057,0.151-0.104,0.198-0.142
			c0.029,0,0.076-0.005,0.143-0.015c0.066-0.009,0.118-0.014,0.156-0.014h0.086c-0.02-0.066-0.033-0.116-0.043-0.149
			s-0.015-0.059-0.015-0.079c0-0.028,0.005-0.052,0.015-0.071s0.028-0.047,0.057-0.085c0.171-0.151,0.354-0.308,0.548-0.469
			s0.424-0.341,0.689-0.54c0.019-0.085,0.043-0.149,0.071-0.192c0.028-0.042,0.085-0.087,0.17-0.135
			c0.133-0.085,0.259-0.18,0.377-0.285c0.118-0.104,0.244-0.232,0.377-0.384l0.114-0.028l0.085-0.171
			c0.18-0.123,0.327-0.213,0.441-0.27c0.113-0.057,0.227-0.104,0.341-0.142c0.038-0.029,0.085-0.066,0.143-0.114
			c0.208-0.19,0.374-0.318,0.497-0.384l0.186-0.085c0.113-0.076,0.213-0.133,0.298-0.171c0.086-0.038,0.171-0.057,0.256-0.057
			c0.076,0,0.143,0.017,0.199,0.05s0.086,0.073,0.086,0.121c0,0.048-0.013,0.102-0.036,0.164s-0.06,0.135-0.106,0.22l-0.071,0.213
			c-0.123,0.152-0.259,0.306-0.405,0.462c-0.146,0.156-0.296,0.306-0.448,0.448c-0.019,0.142-0.054,0.237-0.106,0.284
			c-0.052,0.048-0.145,0.071-0.277,0.071l-0.213,0.355l-0.455,0.469c-0.199,0.218-0.365,0.389-0.498,0.512s-0.241,0.204-0.327,0.242
			c-0.057,0-0.099,0.012-0.128,0.036c-0.028,0.023-0.052,0.078-0.07,0.163c-0.237,0.332-0.446,0.59-0.626,0.775
			c-0.181,0.185-0.36,0.325-0.54,0.419c-0.086,0.009-0.149,0.035-0.192,0.078c-0.043,0.042-0.078,0.125-0.106,0.249
			c-0.219,0.294-0.477,0.567-0.775,0.818c-0.298,0.251-0.638,0.481-1.017,0.689h-0.071c-0.057,0.066-0.13,0.116-0.22,0.149
			c-0.091,0.033-0.178,0.05-0.264,0.05c-0.028,0-0.063-0.004-0.106-0.014c-0.043-0.009-0.078-0.014-0.106-0.014
			c-0.02-0.019-0.033-0.031-0.043-0.036s-0.023-0.012-0.043-0.021c-0.01,0-0.033,0.007-0.07,0.021
			c-0.038,0.014-0.076,0.026-0.114,0.036c-0.038-0.009-0.073-0.024-0.106-0.042c-0.033-0.019-0.083-0.062-0.149-0.128
			c-0.36-0.076-0.604-0.215-0.732-0.419c-0.128-0.204-0.191-0.628-0.191-1.272c0-0.057,0.002-0.116,0.007-0.178
			c0.004-0.062,0.012-0.13,0.021-0.206v-0.114c0-0.057-0.015-0.127-0.043-0.213c-0.01-0.019-0.014-0.033-0.014-0.043v-0.199v-0.271
			c0-0.161,0.014-0.327,0.042-0.498c0.028-0.17,0.071-0.332,0.128-0.483l0.086-0.185c-0.029-0.028-0.05-0.062-0.064-0.099
			c-0.014-0.038-0.021-0.081-0.021-0.128v-0.113c0.104-0.531,0.206-0.991,0.306-1.38c0.1-0.388,0.207-0.72,0.32-0.995
			c0.123-0.123,0.201-0.206,0.234-0.249c0.033-0.042,0.05-0.083,0.05-0.121c0-0.019-0.007-0.045-0.021-0.078
			c-0.014-0.033-0.04-0.074-0.078-0.121l0.1-0.441l-0.185,0.299c-0.085,0.047-0.166,0.116-0.242,0.206
			c-0.075,0.09-0.185,0.277-0.327,0.562c-0.047,0.057-0.146,0.135-0.298,0.235c-0.152,0.1-0.242,0.23-0.271,0.391l-0.342,0.327
			c-0.066,0.142-0.128,0.239-0.185,0.292s-0.123,0.078-0.199,0.078c-0.104,0-0.18,0.021-0.228,0.064
			c-0.047,0.042-0.075,0.116-0.085,0.22l-0.085,0.242l-0.355,0.256c-0.104,0.066-0.181,0.13-0.228,0.192
			c-0.048,0.062-0.091,0.154-0.128,0.277l-0.157,0.114c-0.189,0.095-0.334,0.175-0.434,0.242s-0.183,0.133-0.249,0.199
			c-0.085,0.029-0.165,0.066-0.241,0.114c-0.076,0.048-0.161,0.109-0.256,0.185c-0.151,0.076-0.272,0.145-0.362,0.206
			c-0.091,0.062-0.164,0.126-0.221,0.192l-0.271,0.213c-0.047,0.019-0.095,0.033-0.142,0.043c-0.048,0.009-0.095,0.014-0.143,0.014
			c-0.133,0-0.223-0.021-0.271-0.064c-0.047-0.043-0.071-0.121-0.071-0.235v-0.085c0.048-0.104,0.096-0.18,0.143-0.228
			c0.048-0.047,0.123-0.085,0.228-0.114v-0.384c0.151-0.123,0.279-0.234,0.384-0.334s0.189-0.192,0.256-0.277l-0.028-0.199
			l0.47-0.242c0.057-0.114,0.125-0.213,0.206-0.298c0.08-0.085,0.196-0.171,0.349-0.256l0.17-0.256
			c0.02-0.009,0.038-0.019,0.058-0.028c0.142-0.085,0.231-0.166,0.27-0.242c0.01,0,0.023-0.005,0.043-0.014
			c0.143-0.047,0.241-0.071,0.299-0.071v-0.228l0.271-0.327c0.397-0.483,0.687-0.829,0.867-1.038
			c0.075-0.246,0.346-0.663,0.811-1.251l0.128-0.157c0.085-0.009,0.149-0.03,0.191-0.064c0.043-0.033,0.064-0.078,0.064-0.135
			c0-0.019-0.007-0.047-0.021-0.085c-0.015-0.038-0.026-0.066-0.036-0.085c0.143-0.189,0.271-0.379,0.385-0.569
			c0.113-0.189,0.208-0.379,0.284-0.568h0.028c0.143,0,0.312-0.235,0.512-0.704s0.398-0.865,0.598-1.188
			c0.075-0.076,0.149-0.168,0.22-0.277c0.071-0.109,0.136-0.229,0.192-0.362L72.161,8.39c-0.143,0.057-0.272,0.1-0.392,0.128
			c-0.118,0.029-0.22,0.043-0.306,0.043c-0.066,0-0.175-0.009-0.327-0.028c-0.151-0.019-0.266-0.029-0.341-0.029
			c-0.019,0-0.048,0.007-0.085,0.021c-0.039,0.014-0.066,0.026-0.086,0.036c-0.019-0.009-0.042-0.017-0.071-0.021
			c-0.028-0.005-0.066-0.007-0.113-0.007c-0.048,0-0.088,0.004-0.121,0.014c-0.033,0.009-0.068,0.023-0.106,0.042h-0.498h-1.066
			c-0.057-0.028-0.109-0.066-0.156-0.114s-0.095-0.104-0.143-0.17c-0.009,0.038-0.033,0.081-0.07,0.128
			c-0.038,0.047-0.091,0.1-0.156,0.156c-0.01,0-0.031,0.005-0.064,0.014c-0.033,0.01-0.055,0.014-0.064,0.014
			c-0.085,0-0.175-0.021-0.27-0.064c-0.095-0.042-0.204-0.106-0.327-0.192c-0.151-0.019-0.249-0.05-0.292-0.092
			c-0.042-0.043-0.063-0.159-0.063-0.349c0-0.057,0.015-0.206,0.042-0.448c0.029-0.242,0.043-0.462,0.043-0.661
			c0-0.038-0.005-0.102-0.014-0.192c-0.01-0.09-0.015-0.164-0.015-0.221h0.143c0.019,0,0.042-0.009,0.071-0.028
			c0.028-0.019,0.065-0.047,0.113-0.085c0.076-0.009,0.189-0.028,0.342-0.057c0.265-0.038,0.44-0.057,0.525-0.057
			c0.161,0,0.32,0.007,0.477,0.021s0.32,0.036,0.49,0.064c0.313-0.028,0.545-0.045,0.697-0.05C70.108,6.203,70.251,6.2,70.384,6.2
			c0.019,0,0.097,0.007,0.234,0.021s0.263,0.026,0.377,0.036c0.009,0.01,0.023,0.017,0.042,0.021
			c0.02,0.005,0.048,0.007,0.086,0.007c0.01,0,0.035-0.007,0.078-0.021c0.043-0.014,0.093-0.035,0.149-0.064
			c0.075-0.009,0.156-0.016,0.241-0.021c0.086-0.005,0.199-0.007,0.342-0.007c0.057,0,0.137,0.007,0.241,0.021
			s0.237,0.036,0.398,0.064l0.143,0.114c0.132-0.009,0.258-0.026,0.377-0.05c0.118-0.023,0.234-0.054,0.348-0.092
			c0.161-0.351,0.301-0.664,0.42-0.938c0.118-0.275,0.192-0.479,0.22-0.612c0.066-0.123,0.141-0.228,0.221-0.312
			c0.081-0.085,0.183-0.157,0.306-0.213V4.095c0-0.113,0.083-0.218,0.249-0.312s0.349-0.142,0.548-0.142
			c0.113,0,0.201,0.023,0.263,0.071s0.116,0.138,0.164,0.271c0.057,0.095,0.097,0.173,0.12,0.234
			C75.975,4.278,75.986,4.337,75.986,4.394z"/>
		<path id="XMLID_4828_" fill="#51564D" d="M82.939,19.069l-0.171,0.142l-0.525,0.27l-0.47,0.029
			c-0.047,0.009-0.103,0.017-0.163,0.021c-0.062,0.005-0.149,0.007-0.264,0.007c-0.246,0-0.458-0.042-0.633-0.128
			s-0.334-0.218-0.476-0.398l-0.114-0.256l-0.213-0.185v-0.143l-0.058-0.114l-0.17-0.085l-0.313-0.668v-0.27l-0.185-0.143
			l-0.312-0.554c-0.058-0.066-0.124-0.152-0.199-0.256c-0.124-0.18-0.224-0.27-0.299-0.27c-0.048,0-0.098,0.014-0.149,0.043
			c-0.052,0.028-0.103,0.062-0.149,0.099l-0.228,0.029l-0.113,0.185l-0.271,0.285l-0.199,0.028l-0.199,0.156l-0.085,0.143
			l-0.128,0.17c-0.219,0.161-0.507,0.375-0.867,0.64c-0.92,0.664-1.455,0.996-1.607,0.996c-0.075,0-0.142-0.028-0.199-0.085
			c-0.057-0.057-0.085-0.128-0.085-0.213c0-0.094,0.028-0.182,0.085-0.263c0.058-0.081,0.152-0.159,0.285-0.235v-0.256
			c0.398-0.474,0.763-0.875,1.095-1.202s0.531-0.491,0.598-0.491c0.122-0.17,0.243-0.325,0.362-0.462
			c0.118-0.137,0.244-0.268,0.377-0.391l0.256-0.284l0.171-0.085l0.057-0.142c0.075-0.095,0.236-0.296,0.483-0.604
			c0.246-0.308,0.455-0.571,0.625-0.789l0.355-0.185l0.143-0.313l0.284-0.242h1.053l0.555,0.327
			c0.199,0.095,0.341,0.541,0.427,1.337c0,0.057,0.004,0.104,0.014,0.142l0.199,1.351l0.113,0.171
			c0.133,0.521,0.271,0.86,0.413,1.017c0.142,0.156,0.355,0.235,0.64,0.235c0.123,0,0.251-0.031,0.384-0.093
			c0.133-0.062,0.256-0.149,0.37-0.263l0.299-0.029l0.113-0.199l0.583-0.498l0.113-0.256c0.437-0.208,0.863-0.464,1.28-0.768
			c0.417-0.304,0.701-0.455,0.854-0.455c0.094,0,0.165,0.023,0.213,0.071c0.047,0.048,0.071,0.119,0.071,0.213
			c0,0.01-0.01,0.033-0.028,0.071c-0.066,0.142-0.119,0.289-0.156,0.44l-0.199,0.213c-0.209,0.218-0.401,0.448-0.576,0.69
			c-0.176,0.242-0.292,0.362-0.349,0.362h-0.057l-0.185,0.271l-0.313,0.341l-0.17,0.114l-0.299,0.242
			c-0.161,0.142-0.375,0.346-0.64,0.611C83.537,18.713,83.186,18.983,82.939,19.069z M80.152,7.978l-0.27,0.114
			c-0.076-0.019-0.147-0.05-0.214-0.093c-0.066-0.042-0.118-0.097-0.156-0.164l-0.114-0.256c-0.047-0.085-0.085-0.17-0.113-0.256
			s-0.043-0.161-0.043-0.228c0-0.322,0.093-0.63,0.277-0.924c0.185-0.293,0.5-0.635,0.945-1.024l0.157-0.057l0.228,0.028
			l0.028-0.228l0.555-0.526l0.341-0.085c0.085-0.066,0.168-0.114,0.249-0.142c0.08-0.028,0.183-0.043,0.306-0.043
			c0.189,0,0.344,0.048,0.462,0.143s0.178,0.213,0.178,0.355V4.65l-0.171,0.882l-0.198,0.583l-0.143,0.114v0.256l-0.213,0.441
			c-0.067,0.123-0.171,0.253-0.313,0.391c-0.142,0.137-0.232,0.229-0.27,0.277l-0.199,0.029l-0.086,0.114
			c-0.266,0.142-0.462,0.237-0.59,0.284s-0.244,0.071-0.349,0.071h-0.113L80.152,7.978z"/>
		<path id="XMLID_4831_" fill="#51564D" d="M85.399,16.822c-0.474,0.483-1.017,0.941-1.628,1.372s-0.983,0.647-1.116,0.647
			c-0.076,0-0.143-0.028-0.199-0.085c-0.057-0.057-0.085-0.128-0.085-0.213c0-0.094,0.028-0.182,0.085-0.263
			s0.151-0.159,0.284-0.235v-0.256c0.398-0.474,0.764-0.875,1.095-1.202c0.332-0.327,0.531-0.491,0.598-0.491
			c0.133-0.085,0.271-0.246,0.412-0.483c0.048-0.076,0.086-0.137,0.114-0.185l0.27-0.199l0.171-0.213l0.143-0.085l0.085-0.228
			l0.668-0.696l0.612-0.555l0.525-0.697c0.161-0.189,0.337-0.37,0.526-0.541c0.189-0.17,0.394-0.332,0.611-0.483l0.256-0.142
			l0.071-0.213c0.455-0.474,0.796-0.77,1.024-0.889c0.227-0.119,0.507-0.178,0.838-0.178c0.19,0,0.349,0.028,0.477,0.085
			c0.129,0.057,0.192,0.123,0.192,0.199c0,0.028-0.085,0.168-0.256,0.419c-0.171,0.251-0.317,0.481-0.44,0.69l0.582-0.327
			l0.37-0.142c0.066-0.038,0.136-0.066,0.206-0.085c0.071-0.019,0.149-0.028,0.234-0.028c0.076,0,0.136,0.002,0.178,0.007
			c0.043,0.005,0.083,0.012,0.121,0.021l0.284-0.028c0.683,0.085,1.232,0.348,1.649,0.789s0.626,0.983,0.626,1.628
			c0,0.029-0.005,0.074-0.014,0.135c-0.01,0.062-0.015,0.116-0.015,0.164l-0.156,0.64l-0.057,0.228l-0.171,0.469l-0.299,0.668
			l-0.199,0.256l-0.256,0.213l-0.085,0.285c0,0.057-0.133,0.239-0.398,0.547s-0.611,0.68-1.038,1.116l-0.228,0.37l-0.241,0.156
			L91.6,18.841l-0.285,0.256c-0.161,0.142-0.317,0.27-0.469,0.384c-0.152,0.114-0.299,0.209-0.441,0.285l-0.469,0.028l-0.228,0.057
			l-0.185,0.242c-0.133,0.047-0.287,0.095-0.462,0.142c-0.176,0.047-0.277,0.076-0.306,0.085l-0.257-0.015
			c-0.057,0.048-0.13,0.085-0.22,0.114c-0.091,0.029-0.197,0.043-0.32,0.043c-0.598,0-1.09-0.173-1.479-0.519
			s-0.583-0.794-0.583-1.344v-0.142l0.057-0.199c-0.019-0.057-0.038-0.123-0.057-0.199c-0.038-0.142-0.058-0.251-0.058-0.327
			c0-0.142,0.1-0.621,0.299-1.436l0.071-0.284l-0.199,0.142l-0.27,0.298l-0.257,0.171L85.399,16.822z M88.627,16.154v0.298
			l-0.057,0.313l-0.028,0.242l-0.085,0.313c-0.01,0.028-0.018,0.064-0.021,0.106c-0.005,0.043-0.007,0.107-0.007,0.192
			c0,0.114,0.009,0.216,0.028,0.306c0.019,0.09,0.047,0.183,0.085,0.277v0.114c0.075,0.095,0.146,0.164,0.214,0.207
			c0.065,0.042,0.146,0.078,0.241,0.106l0.271,0.028c0.085-0.076,0.246-0.161,0.483-0.256c0.236-0.095,0.417-0.18,0.54-0.256
			l0.412-0.242l1.038-1.038l0.327-0.441l0.199-0.085l-0.028-0.242l0.085-0.199c0.095-0.171,0.232-0.545,0.413-1.124l0.028-0.071
			l0.028-0.327c-0.152-0.37-0.313-0.626-0.483-0.768c-0.171-0.142-0.389-0.213-0.654-0.213c-0.066,0-0.133,0.007-0.199,0.021
			s-0.138,0.036-0.213,0.064l-0.313,0.114l-0.171,0.27c-0.236,0.18-0.471,0.436-0.703,0.768c-0.232,0.332-0.405,0.521-0.52,0.569
			l-0.355-0.085c-0.076,0-0.123,0.002-0.142,0.007c-0.02,0.005-0.028,0.012-0.028,0.021c0,0.124-0.008,0.221-0.021,0.292
			c-0.015,0.071-0.036,0.135-0.064,0.192L88.627,16.154z M92.638,7.522c0.047-0.095,0.12-0.185,0.22-0.27
			c0.1-0.085,0.239-0.176,0.42-0.271l0.156-0.17c0.161-0.066,0.303-0.145,0.427-0.235c0.123-0.09,0.213-0.178,0.271-0.263
			l0.312-0.17c0.037-0.038,0.095-0.1,0.171-0.185c0.284-0.322,0.512-0.498,0.683-0.526c0.047-0.095,0.104-0.168,0.17-0.22
			c0.066-0.052,0.143-0.093,0.228-0.121l0.185-0.17l0.427-0.299l0.271-0.142h0.228l0.256,0.17c0,0.019-0.003,0.043-0.007,0.071
			c-0.005,0.028-0.008,0.066-0.008,0.114c0,0.057,0.012,0.106,0.036,0.149c0.023,0.042,0.068,0.087,0.135,0.135l0.058,0.242
			c0.019,0.038,0.032,0.074,0.042,0.107S97.33,5.532,97.33,5.56c0,0.095-0.026,0.188-0.078,0.277
			c-0.053,0.09-0.154,0.211-0.306,0.362l-0.483,0.256l-0.214,0.156l-0.312,0.114c-0.066,0-0.131,0.012-0.192,0.036
			c-0.062,0.024-0.145,0.069-0.249,0.135l-0.142,0.143c-0.076,0.047-0.138,0.078-0.186,0.092c-0.047,0.014-0.104,0.026-0.17,0.036
			c-0.086,0.047-0.159,0.097-0.221,0.149c-0.062,0.052-0.116,0.106-0.163,0.163l-0.257,0.057c-0.066,0.057-0.12,0.1-0.163,0.128
			c-0.042,0.028-0.073,0.042-0.093,0.042c-0.047,0-0.189,0.045-0.426,0.135c-0.237,0.09-0.446,0.135-0.626,0.135
			c-0.02,0-0.053-0.005-0.1-0.014c-0.048-0.01-0.081-0.014-0.1-0.014c-0.113-0.019-0.191-0.045-0.234-0.079
			c-0.043-0.033-0.064-0.087-0.064-0.164c0-0.019,0.007-0.045,0.021-0.078S92.609,7.561,92.638,7.522z"/>
		<path id="XMLID_4845_" fill="#51564D" d="M96.576,15.229l0.185-0.213c0.304-0.341,0.721-0.815,1.252-1.422
			c1.525-1.754,2.436-2.673,2.729-2.759l0.299-0.1l0.312-0.199l0.327-0.114l0.199,0.057l0.214,0.028
			c0.274,0.209,0.469,0.394,0.583,0.555c0.113,0.162,0.171,0.337,0.171,0.526c0,0.114-0.011,0.23-0.029,0.348
			c-0.019,0.119-0.047,0.244-0.085,0.377l-0.057,0.483c-0.048,0.199-0.093,0.377-0.136,0.533c-0.042,0.156-0.088,0.301-0.135,0.434
			l-0.199,0.299v0.256c-0.113,0.247-0.225,0.512-0.334,0.796s-0.254,0.692-0.434,1.223l-0.143,0.114
			c0.01,0.019,0.019,0.038,0.028,0.057c0.02,0.066,0.028,0.123,0.028,0.17c0,0.085-0.042,0.185-0.127,0.299
			c-0.086,0.114-0.129,0.218-0.129,0.313v0.114l0.598-0.541c0.113-0.18,0.246-0.358,0.398-0.533c0.151-0.175,0.331-0.358,0.54-0.547
			l0.214-0.085l0.085-0.156l0.028-0.171c0.057-0.114,0.113-0.204,0.171-0.27c0.057-0.066,0.118-0.123,0.185-0.171l0.427-0.256
			l0.213-0.327c0.512-0.502,0.972-0.865,1.38-1.088c0.407-0.222,0.801-0.334,1.18-0.334c0.266,0,0.48,0.045,0.647,0.135
			c0.165,0.09,0.277,0.22,0.334,0.391l0.271,0.298c0.065,0.152,0.175,0.389,0.326,0.711c0.152,0.323,0.266,0.569,0.342,0.74
			l-0.086,0.312c0.114,0.076,0.242,0.266,0.385,0.569c0.142,0.304,0.312,0.455,0.512,0.455c0.047,0,0.104-0.007,0.171-0.021
			c0.065-0.014,0.146-0.035,0.241-0.064l0.114-0.057l0.113-0.213l0.355-0.256l0.228-0.228c0.332-0.085,0.706-0.287,1.123-0.604
			c0.417-0.317,0.716-0.476,0.896-0.476c0.095,0,0.16,0.021,0.199,0.064c0.037,0.042,0.057,0.116,0.057,0.22
			c-0.076,0.228-0.128,0.398-0.156,0.512l-0.186,0.213c-0.246,0.304-0.521,0.614-0.824,0.932c-0.304,0.317-0.631,0.652-0.981,1.002
			l-0.156,0.142l-0.228,0.142c-0.057,0.19-0.218,0.355-0.483,0.498c-0.048,0.028-0.085,0.052-0.114,0.071l-0.185,0.185l-0.583,0.242
			c-0.123,0.057-0.23,0.1-0.32,0.128s-0.168,0.042-0.234,0.042c-0.332,0-0.661-0.156-0.988-0.469c-0.327-0.312-0.6-0.739-0.817-1.28
			l-0.028-0.284c-0.181-0.152-0.349-0.313-0.505-0.483c-0.156-0.171-0.311-0.36-0.462-0.569c-0.057-0.028-0.111-0.05-0.164-0.064
			c-0.052-0.014-0.102-0.021-0.149-0.021c-0.104,0-0.228,0.043-0.369,0.128c-0.143,0.085-0.408,0.294-0.797,0.626l-0.27,0.085
			l-0.228,0.327c-0.104,0.133-0.216,0.242-0.334,0.327c-0.119,0.085-0.249,0.152-0.392,0.199l-0.412,0.611
			c-0.56,0.625-0.988,1.095-1.287,1.408s-0.543,0.555-0.732,0.725c-0.218,0.294-0.44,0.496-0.668,0.604s-0.526,0.164-0.896,0.164
			c-0.19,0-0.32-0.028-0.392-0.085c-0.071-0.057-0.126-0.17-0.163-0.341l0.028-0.412l-0.086-0.143l0.058-0.27
			c0.274-0.91,0.476-1.6,0.604-2.069c0.129-0.469,0.192-0.747,0.192-0.832c0-0.009,0.019-0.054,0.057-0.135s0.076-0.173,0.114-0.277
			l0.142-0.242c-0.019-0.038-0.033-0.074-0.042-0.107c-0.01-0.033-0.015-0.064-0.015-0.092c0-0.076,0.052-0.253,0.156-0.533
			s0.157-0.51,0.157-0.69c0-0.047-0.024-0.083-0.071-0.106c-0.048-0.023-0.109-0.036-0.186-0.036c-0.312,0-0.575,0.138-0.789,0.413
			c-0.213,0.275-0.344,0.426-0.391,0.455l-0.37,0.469l-0.312,0.298l-0.199,0.057l-0.1,0.085l-0.085,0.143l-0.114,0.17
			c-0.085,0.038-0.146,0.074-0.185,0.106c-0.038,0.034-0.062,0.064-0.071,0.093l-0.27,0.242c-0.692,0.54-1.24,0.948-1.643,1.223
			c-0.403,0.275-0.661,0.413-0.775,0.413c-0.076,0-0.142-0.028-0.199-0.085c-0.057-0.057-0.085-0.128-0.085-0.213
			c0-0.094,0.028-0.182,0.085-0.263c0.058-0.081,0.152-0.159,0.285-0.235v-0.256c0.397-0.474,0.763-0.875,1.095-1.202
			s0.53-0.491,0.597-0.491c0-0.019-0.009-0.047-0.028-0.085c0.01-0.029,0.02-0.045,0.028-0.05c0.01-0.005,0.029-0.007,0.057-0.007
			h0.029c0.047,0,0.085-0.023,0.113-0.071s0.052-0.124,0.071-0.228l0.199-0.17L96.576,15.229z"/>
		<path id="XMLID_4847_" fill="#51564D" d="M129.992,16.424l0.441-0.185l0.312-0.199c0.085-0.104,0.164-0.183,0.234-0.235
			c0.071-0.052,0.149-0.078,0.234-0.078l0.669-0.298l0.355-0.37c0.113-0.028,0.199-0.057,0.256-0.085s0.104-0.066,0.143-0.114
			c0.085-0.085,0.163-0.147,0.234-0.185c0.071-0.038,0.14-0.057,0.206-0.057c0.047,0,0.085,0.002,0.113,0.007
			c0.029,0.005,0.058,0.012,0.086,0.021c0.047,0.038,0.08,0.076,0.1,0.114c0.019,0.038,0.028,0.076,0.028,0.114
			c0,0.028-0.033,0.147-0.1,0.355c-0.019,0.066-0.038,0.124-0.057,0.17l-0.342,0.498l-0.469,0.44
			c-0.02,0.143-0.062,0.242-0.128,0.299s-0.181,0.095-0.342,0.114c-0.057,0.19-0.138,0.334-0.241,0.434
			c-0.104,0.1-0.266,0.173-0.483,0.221l-0.114,0.156l-0.241,0.114c-0.076,0.076-0.156,0.135-0.242,0.178
			c-0.085,0.042-0.176,0.069-0.27,0.078c-0.02,0.01-0.039,0.024-0.058,0.043c-0.189,0.123-0.322,0.227-0.397,0.312
			c-0.124,0.01-0.238,0.031-0.342,0.064c-0.104,0.033-0.209,0.078-0.312,0.135l-0.214,0.057l-0.256-0.028
			c-0.057,0.01-0.116,0.017-0.178,0.021s-0.13,0.007-0.206,0.007c-0.189,0-0.405-0.04-0.646-0.121
			c-0.242-0.081-0.52-0.216-0.832-0.405l-0.086-0.128c-0.076-0.057-0.151-0.125-0.228-0.206c-0.075-0.081-0.146-0.173-0.213-0.277
			l-0.057-0.199l-0.086-0.085c-0.075-0.104-0.142-0.208-0.198-0.313c-0.058-0.104-0.109-0.213-0.157-0.327
			c0.01-0.019,0.019-0.043,0.028-0.071c0.02-0.057,0.029-0.1,0.029-0.128c0-0.066-0.015-0.121-0.043-0.164s-0.081-0.087-0.156-0.135
			c-0.02-0.161-0.043-0.289-0.071-0.384s-0.071-0.18-0.128-0.256l-0.057-0.355l-0.157-0.313c-0.085,0.085-0.175,0.194-0.27,0.327
			c-0.096,0.133-0.147,0.204-0.157,0.213c-0.095,0.066-0.17,0.138-0.227,0.213c-0.058,0.076-0.114,0.175-0.171,0.298
			c-0.124,0.057-0.216,0.126-0.277,0.206c-0.062,0.081-0.103,0.188-0.121,0.32l-0.085,0.199c-0.038,0.048-0.131,0.152-0.277,0.313
			c-0.147,0.161-0.268,0.299-0.362,0.413l-0.356,0.199l-0.142,0.299l-0.043,0.057c-0.417,0.55-0.801,0.996-1.151,1.337l-0.455,0.298
			l-0.299,0.285c-0.143,0.095-0.27,0.194-0.384,0.298c-0.114,0.104-0.218,0.218-0.312,0.341l-0.355,0.143h-0.199
			c-0.048,0-0.104,0.002-0.171,0.007c-0.066,0.005-0.138,0.012-0.213,0.021l-0.242,0.014c-0.085,0.019-0.152,0.033-0.199,0.042
			c-0.047,0.01-0.085,0.014-0.113,0.014c-0.104,0-0.209-0.045-0.313-0.135c-0.104-0.09-0.18-0.211-0.228-0.363l-0.042-0.156
			l-0.058-0.085l-0.028-0.17l-0.057-0.114c0-0.322,0.043-0.659,0.128-1.01c0.086-0.351,0.219-0.754,0.398-1.208l0.113-0.484
			c-0.161,0.114-0.314,0.23-0.462,0.349s-0.296,0.244-0.448,0.377l-0.312,0.142c-0.048,0.095-0.113,0.168-0.199,0.22
			c-0.085,0.052-0.199,0.093-0.341,0.121l-0.114,0.085c-0.653,0.493-1.047,0.74-1.18,0.74c-0.048,0-0.091-0.014-0.128-0.042
			c-0.038-0.029-0.081-0.085-0.128-0.171l0.057-0.228c0.047-0.095,0.095-0.164,0.143-0.206c0.047-0.043,0.104-0.069,0.17-0.078
			l-0.028-0.327c0.038-0.076,0.091-0.145,0.156-0.206c0.066-0.062,0.161-0.13,0.285-0.207c0.095-0.123,0.196-0.237,0.306-0.341
			c0.108-0.104,0.229-0.204,0.362-0.299c0.066-0.189,0.147-0.327,0.241-0.413c0.095-0.085,0.219-0.142,0.37-0.17l0.113-0.285
			l0.228-0.085c0.029-0.095,0.071-0.171,0.129-0.228c0.057-0.057,0.146-0.109,0.27-0.157c0.066,0.02,0.104,0.029,0.114,0.029
			c0.037,0,0.071-0.019,0.099-0.057c0.029-0.038,0.053-0.095,0.071-0.17c0.161-0.161,0.327-0.318,0.498-0.469
			c0.171-0.152,0.355-0.308,0.555-0.469c0.218-0.066,0.364-0.13,0.44-0.192c0.076-0.062,0.114-0.14,0.114-0.234v-0.071
			c0.492-0.464,0.867-0.82,1.123-1.066l0.156-0.185l0.427-0.341l0.498-0.469c0.18-0.199,0.422-0.438,0.725-0.718
			c0.304-0.28,0.683-0.604,1.138-0.974c0.123-0.104,0.287-0.234,0.491-0.391c0.203-0.156,0.447-0.343,0.731-0.562
			c0.189-0.085,0.332-0.142,0.427-0.17c0.095-0.029,0.176-0.043,0.242-0.043c0.075-0.189,0.145-0.393,0.206-0.611
			c0.062-0.218,0.121-0.459,0.178-0.725l0.142-0.171c0.181-0.616,0.38-1.216,0.598-1.799s0.455-1.149,0.711-1.699l0.213-0.17V3.555
			c0-0.142,0.024-0.271,0.071-0.384c0.048-0.114,0.118-0.218,0.214-0.313c0.019-0.028,0.037-0.052,0.057-0.071
			c0.123-0.151,0.203-0.289,0.242-0.412l0.256-0.285l0.085-0.398c0.085-0.189,0.194-0.379,0.327-0.569s0.289-0.379,0.469-0.569
			l0.256-0.355l0.285-0.17l0.128,0.085L130.604,0c0.143,0.019,0.249,0.038,0.32,0.057s0.14,0.038,0.206,0.057l0.114,0.228
			l-0.086,0.157l0.114,0.142v0.114c0,0.218-0.062,0.531-0.185,0.938c-0.02,0.066-0.034,0.114-0.043,0.142l0.028,0.285
			c-0.038,0.237-0.09,0.445-0.156,0.625c-0.067,0.18-0.152,0.341-0.256,0.483l0.028,0.228c-0.028,0.199-0.074,0.391-0.136,0.576
			c-0.062,0.185-0.135,0.358-0.22,0.519l-0.143,0.128l0.028,0.128l-0.057,0.17l-0.028,0.199c-0.086,0.076-0.149,0.156-0.191,0.242
			c-0.043,0.085-0.064,0.18-0.064,0.284c0,0.028,0.004,0.066,0.014,0.114s0.015,0.09,0.015,0.128
			c-0.038,0.228-0.104,0.455-0.199,0.683s-0.223,0.474-0.384,0.74c-0.076,0.057-0.128,0.106-0.156,0.149
			c-0.028,0.043-0.048,0.088-0.057,0.135c0,0.019,0.007,0.045,0.021,0.078c0.015,0.033,0.021,0.06,0.021,0.078
			c-0.048,0.124-0.104,0.259-0.171,0.405c-0.066,0.147-0.146,0.301-0.241,0.462c-0.095,0.019-0.156,0.035-0.185,0.05
			c-0.029,0.014-0.048,0.035-0.058,0.064c0.01,0.019,0.019,0.047,0.028,0.085c0.01,0.038,0.029,0.095,0.058,0.17
			c-0.048,0.18-0.128,0.396-0.242,0.647c-0.113,0.251-0.241,0.51-0.384,0.775l-0.156,0.341c-0.057,0.171-0.1,0.344-0.128,0.519
			s-0.043,0.348-0.043,0.519v0.213l-0.085,0.312l0.085,0.327c0,0.341,0.021,0.688,0.064,1.038c0.042,0.351,0.106,0.716,0.191,1.095
			c0,0.009-0.019,0.062-0.057,0.156c0,0.038,0.017,0.076,0.05,0.114s0.078,0.071,0.135,0.1l0.199,0.426
			c0.066,0.066,0.123,0.143,0.171,0.228c0.047,0.085,0.09,0.18,0.128,0.285c0.085,0.047,0.182,0.097,0.291,0.149
			c0.109,0.052,0.254,0.107,0.434,0.164c0.01,0,0.033,0.005,0.071,0.015c0.181,0.028,0.309,0.042,0.384,0.042
			c0.038,0,0.088-0.012,0.149-0.036C129.904,16.45,129.954,16.434,129.992,16.424z M122.3,16.566l0.213-0.355
			c0.218-0.218,0.429-0.45,0.633-0.697c0.204-0.246,0.41-0.517,0.618-0.811l0.199-0.085l0.171-0.327
			c0.218-0.275,0.467-0.649,0.747-1.124c0.279-0.474,0.476-0.787,0.59-0.938c0.028-0.426,0.055-0.742,0.078-0.945
			c0.023-0.204,0.059-0.391,0.106-0.562l-0.299,0.014l-0.113,0.271l-0.171,0.228c-0.085,0.095-0.201,0.22-0.348,0.376
			c-0.147,0.157-0.259,0.277-0.335,0.363l-0.142,0.114l-0.228,0.114l-0.028,0.199c-0.039,0.047-0.104,0.137-0.199,0.27
			c-0.37,0.483-0.711,0.919-1.024,1.308c-0.104,0.085-0.191,0.188-0.263,0.306c-0.071,0.119-0.121,0.24-0.149,0.363
			c-0.095,0.085-0.181,0.183-0.256,0.292c-0.076,0.109-0.133,0.22-0.171,0.334c-0.085,0.066-0.161,0.145-0.228,0.235
			c-0.066,0.09-0.128,0.201-0.185,0.334c-0.02,0.124-0.053,0.23-0.1,0.32c-0.048,0.09-0.118,0.173-0.213,0.249
			c-0.029,0.076-0.069,0.164-0.121,0.263c-0.053,0.1-0.121,0.22-0.206,0.363c-0.02,0.047-0.053,0.113-0.1,0.199
			c-0.114,0.218-0.166,0.403-0.156,0.555c0.047,0.033,0.092,0.058,0.135,0.075s0.073,0.025,0.093,0.025
			c0.057,0,0.12-0.034,0.191-0.103s0.154-0.172,0.249-0.31l0.242-0.17c0.075-0.085,0.17-0.204,0.284-0.355
			c0.18-0.256,0.331-0.384,0.455-0.384H122.3z"/>
		<path id="XMLID_4850_" fill="#51564D" d="M131.642,17.476l-0.028-0.27l-0.369,0.27l-0.214,0.142l-0.284,0.228
			c-0.171,0.095-0.294,0.166-0.369,0.213c-0.076,0.048-0.147,0.095-0.214,0.142l-0.171,0.143l-0.299,0.156
			c-0.047,0.104-0.115,0.183-0.205,0.234c-0.091,0.052-0.235,0.079-0.435,0.079c-0.095-0.009-0.151-0.026-0.171-0.05
			c-0.019-0.023-0.037-0.093-0.057-0.206c0.02-0.133,0.053-0.23,0.1-0.292c0.048-0.062,0.128-0.121,0.242-0.178v-0.298
			c0.095-0.085,0.189-0.18,0.284-0.285c0.095-0.104,0.204-0.232,0.327-0.384l0.213-0.298l0.199-0.085
			c0.057-0.133,0.131-0.239,0.221-0.32s0.221-0.159,0.391-0.235l0.086-0.199l0.384-0.228l0.327-0.27
			c0.028-0.019,0.052-0.05,0.07-0.092c0.02-0.043,0.034-0.097,0.043-0.164v-0.114l0.143-0.27l-0.057-0.171l0.085-0.242
			c0.066-0.341,0.14-0.623,0.221-0.846c0.08-0.223,0.182-0.424,0.306-0.604l0.199-0.114l-0.058-0.171
			c0.189-0.37,0.432-0.728,0.726-1.073c0.294-0.346,0.749-0.794,1.365-1.344h0.156l0.113-0.128l0.143-0.028l0.085-0.199
			c0.256-0.208,0.5-0.357,0.732-0.448c0.232-0.09,0.486-0.135,0.761-0.135c0.104,0,0.186,0.002,0.242,0.007s0.108,0.012,0.156,0.021
			l0.128,0.057l0.583,0.185l0.199,0.256l0.085,0.028c0.058,0.152,0.1,0.285,0.128,0.398s0.043,0.194,0.043,0.242
			c0,0.057-0.003,0.104-0.007,0.142c-0.005,0.038-0.013,0.066-0.021,0.085l0.085,0.213l-0.028,0.312l-0.113,0.384l-0.199,0.285
			l-0.058,0.327c-0.075,0.133-0.168,0.265-0.276,0.398c-0.109,0.133-0.249,0.29-0.42,0.469l-0.1,0.185
			c-0.228,0.275-0.497,0.559-0.811,0.853c-0.312,0.294-0.711,0.63-1.194,1.01l-0.256,0.085l-0.086,0.171l-0.497,0.327l-0.214,0.256
			c-0.038,0.028-0.066,0.057-0.085,0.085c-0.019,0.028-0.028,0.057-0.028,0.085c0,0.095,0.017,0.197,0.05,0.306
			c0.033,0.109,0.088,0.245,0.163,0.405l0.143,0.171l0.085,0.284c0.237,0.18,0.465,0.313,0.683,0.398
			c0.218,0.085,0.437,0.128,0.654,0.128c0.133,0,0.274-0.023,0.427-0.071c0.151-0.047,0.351-0.137,0.597-0.27l0.199-0.057
			l0.498-0.327l0.384,0.028l0.085-0.228c0.029-0.028,0.145-0.133,0.349-0.313c0.204-0.18,0.387-0.341,0.548-0.483l0.241-0.114
			l0.171-0.256c0.123-0.085,0.251-0.159,0.384-0.22c0.133-0.062,0.274-0.116,0.427-0.164c0.076-0.124,0.168-0.223,0.277-0.299
			c0.109-0.076,0.244-0.133,0.405-0.17l0.228-0.228c0.075-0.029,0.149-0.05,0.221-0.064c0.07-0.014,0.12-0.021,0.148-0.021
			c0.114,0,0.192,0.017,0.235,0.05s0.063,0.092,0.063,0.178c0,0.057-0.014,0.121-0.042,0.192s-0.062,0.13-0.1,0.178l-0.071,0.185
			c-0.066,0.114-0.164,0.239-0.291,0.376c-0.129,0.138-0.302,0.306-0.52,0.505v0.085c0,0.114-0.028,0.192-0.085,0.234
			c-0.058,0.043-0.167,0.074-0.327,0.093c-0.124,0.256-0.394,0.545-0.811,0.867c-0.133,0.104-0.237,0.19-0.313,0.256l-0.241,0.199
			l-0.156,0.071c-0.066,0.057-0.141,0.123-0.221,0.199c-0.081,0.076-0.188,0.18-0.32,0.313l-0.17,0.213l-0.355,0.228
			c-0.313,0.275-0.661,0.5-1.046,0.675c-0.384,0.176-0.713,0.263-0.988,0.263h-0.142l-0.327-0.057l-0.143,0.085h-0.412
			c-0.351,0-0.643-0.036-0.874-0.106c-0.232-0.071-0.406-0.183-0.52-0.334l-0.213,0.029l-0.342-0.313l-0.171-0.327l-0.156-0.156
			c-0.095-0.123-0.173-0.244-0.234-0.363c-0.062-0.118-0.116-0.253-0.163-0.405L131.642,17.476z M135.495,13.097l0.228-0.171
			c0-0.076,0.04-0.189,0.121-0.341c0.08-0.151,0.121-0.308,0.121-0.469c-0.01-0.132-0.02-0.208-0.028-0.228
			c-0.01-0.019-0.043-0.033-0.1-0.042h-0.057l-0.228,0.142l-0.555,0.498l-0.526,0.526l-0.47,0.683
			c-0.057,0.104-0.104,0.211-0.142,0.32s-0.057,0.202-0.057,0.277c0,0.019,0.007,0.033,0.021,0.042
			c0.014,0.01,0.025,0.014,0.035,0.014c0.028,0,0.057-0.004,0.085-0.014c0.028-0.009,0.071-0.033,0.128-0.071
			c0.048-0.009,0.09-0.017,0.128-0.021s0.081-0.007,0.128-0.007c0.02,0,0.043-0.007,0.071-0.021s0.071-0.055,0.128-0.121
			l0.143-0.256l0.241-0.242L135.495,13.097z"/>
	</g>
	<g id="XMLID_4455_">
		<path id="XMLID_4457_" fill="#F7EBCB" d="M26.961,45.272c2.153,0,3.871,0.679,5.15,2.037c1.186,1.296,1.779,2.95,1.779,4.963v4.26
			c0,1.936-0.676,3.59-2.025,4.963s-2.984,2.06-4.904,2.06h-2.552v11.05h-4.425V45.272H26.961z M29.606,52.342
			c0-0.764-0.23-1.381-0.69-1.849c-0.461-0.468-1.073-0.702-1.838-0.702h-2.669v9.387h2.669c0.702,0,1.299-0.25,1.791-0.749
			c0.491-0.5,0.737-1.1,0.737-1.803V52.342z"/>
		<path id="XMLID_4460_" fill="#F7EBCB" d="M44.401,45.272c2.466,0,4.276,0.679,5.431,2.037c1.015,1.187,1.522,2.841,1.522,4.963
			v4.26c0,2.076-0.789,3.832-2.365,5.268l3.277,12.806h-4.785l-2.683-11.05c-0.125,0-0.258,0-0.397,0H41.85v11.05h-4.425V45.272
			H44.401z M47.047,52.342c0-1.701-0.844-2.551-2.528-2.551H41.85v9.387h2.669c0.702,0,1.299-0.25,1.791-0.749
			c0.491-0.5,0.737-1.1,0.737-1.803V52.342z"/>
		<path id="XMLID_4468_" fill="#F7EBCB" d="M62.31,44.897c1.951,0,3.609,0.687,4.975,2.06c1.366,1.374,2.049,3.028,2.049,4.963
			v16.014c0,1.95-0.687,3.608-2.06,4.975c-1.374,1.365-3.028,2.048-4.964,2.048c-1.951,0-3.604-0.687-4.963-2.06
			c-1.357-1.373-2.036-3.027-2.036-4.963V51.92c0-1.951,0.687-3.609,2.06-4.975S60.39,44.897,62.31,44.897z M64.722,51.827
			c0-0.703-0.246-1.299-0.738-1.791c-0.491-0.492-1.089-0.738-1.79-0.738c-0.703,0-1.304,0.246-1.804,0.738
			c-0.499,0.492-0.749,1.088-0.749,1.791v16.06c0,0.701,0.25,1.299,0.749,1.79c0.5,0.492,1.101,0.737,1.804,0.737
			c0.701,0,1.299-0.245,1.79-0.737c0.492-0.491,0.738-1.089,0.738-1.79V51.827z"/>
		<path id="XMLID_4474_" fill="#F7EBCB" d="M80.172,74.98c-1.951,0-3.609-0.683-4.975-2.048c-1.366-1.365-2.049-3.017-2.049-4.952
			V51.967c0-1.951,0.687-3.609,2.061-4.975c1.373-1.365,3.027-2.048,4.963-2.048c1.95,0,3.605,0.687,4.963,2.06
			c1.357,1.374,2.037,3.028,2.037,4.963v3.348h-4.589v-3.441c0-0.703-0.25-1.303-0.749-1.803c-0.5-0.5-1.101-0.749-1.803-0.749
			s-1.3,0.25-1.791,0.749s-0.737,1.1-0.737,1.803v16.06c0,0.701,0.246,1.299,0.737,1.791c0.491,0.49,1.089,0.736,1.791,0.736
			s1.303-0.246,1.803-0.736c0.499-0.492,0.749-1.09,0.749-1.791v-4.051h4.589v4.097c0,1.952-0.688,3.605-2.061,4.964
			C83.738,74.301,82.092,74.98,80.172,74.98z"/>
		<path id="XMLID_4476_" fill="#F7EBCB" d="M90.8,74.606V45.249h12.595v4.448h-8.17v8.007h5.969v4.448h-5.969v8.006h8.17v4.449H90.8
			z"/>
		<path id="XMLID_4478_" fill="#F7EBCB" d="M121.069,67.301c0.031,2.045-0.5,3.793-1.592,5.244
			c-0.719,0.983-1.732,1.678-3.044,2.084c-0.702,0.218-1.521,0.327-2.458,0.327c-1.732,0-3.168-0.429-4.308-1.288
			c-0.952-0.701-1.705-1.657-2.259-2.867c-0.555-1.209-0.878-2.595-0.972-4.156l4.214-0.304c0.188,1.71,0.64,2.95,1.357,3.718
			c0.53,0.581,1.14,0.855,1.826,0.824c0.968-0.031,1.74-0.508,2.318-1.43c0.296-0.453,0.444-1.102,0.444-1.944
			c0-1.219-0.555-2.429-1.662-3.632c-0.874-0.828-2.186-2.069-3.934-3.726c-1.467-1.421-2.504-2.695-3.113-3.819
			c-0.655-1.265-0.982-2.64-0.982-4.124c0-2.671,0.896-4.694,2.691-6.069c1.108-0.828,2.481-1.242,4.12-1.242
			c1.576,0,2.927,0.351,4.051,1.053c0.873,0.547,1.58,1.311,2.118,2.294c0.539,0.983,0.862,2.115,0.972,3.395l-4.237,0.772
			c-0.125-1.202-0.468-2.138-1.03-2.809c-0.405-0.484-0.991-0.726-1.756-0.726c-0.812,0-1.428,0.359-1.849,1.077
			c-0.344,0.578-0.516,1.296-0.516,2.154c0,1.342,0.577,2.708,1.732,4.097c0.438,0.531,1.093,1.155,1.967,1.873
			c1.03,0.858,1.709,1.459,2.037,1.803c1.092,1.093,1.935,2.169,2.527,3.23c0.281,0.5,0.508,0.96,0.68,1.381
			C120.835,65.538,121.054,66.474,121.069,67.301z"/>
		<path id="XMLID_4480_" fill="#F7EBCB" d="M131.674,44.897c1.951,0,3.608,0.687,4.975,2.06c1.365,1.374,2.049,3.028,2.049,4.963
			v16.014c0,1.95-0.688,3.608-2.061,4.975c-1.374,1.365-3.028,2.048-4.963,2.048c-1.951,0-3.605-0.687-4.963-2.06
			c-1.358-1.373-2.037-3.027-2.037-4.963V51.92c0-1.951,0.687-3.609,2.061-4.975C128.107,45.58,129.754,44.897,131.674,44.897z
			 M134.085,51.827c0-0.703-0.245-1.299-0.737-1.791s-1.089-0.738-1.791-0.738s-1.304,0.246-1.803,0.738
			c-0.5,0.492-0.749,1.088-0.749,1.791v16.06c0,0.701,0.249,1.299,0.749,1.79c0.499,0.492,1.101,0.737,1.803,0.737
			s1.299-0.245,1.791-0.737c0.492-0.491,0.737-1.089,0.737-1.79V51.827z"/>
		<path id="XMLID_4483_" fill="#F7EBCB" d="M156.956,67.301c0.031,2.045-0.499,3.793-1.592,5.244
			c-0.718,0.983-1.732,1.678-3.043,2.084c-0.702,0.218-1.521,0.327-2.458,0.327c-1.732,0-3.168-0.429-4.308-1.288
			c-0.952-0.701-1.705-1.657-2.26-2.867c-0.554-1.209-0.878-2.595-0.972-4.156l4.215-0.304c0.187,1.71,0.639,2.95,1.357,3.718
			c0.53,0.581,1.139,0.855,1.826,0.824c0.967-0.031,1.74-0.508,2.317-1.43c0.296-0.453,0.445-1.102,0.445-1.944
			c0-1.219-0.555-2.429-1.662-3.632c-0.875-0.828-2.186-2.069-3.934-3.726c-1.467-1.421-2.505-2.695-3.113-3.819
			c-0.655-1.265-0.983-2.64-0.983-4.124c0-2.671,0.897-4.694,2.692-6.069c1.107-0.828,2.481-1.242,4.12-1.242
			c1.576,0,2.927,0.351,4.051,1.053c0.873,0.547,1.579,1.311,2.117,2.294c0.539,0.983,0.862,2.115,0.973,3.395l-4.238,0.772
			c-0.125-1.202-0.468-2.138-1.029-2.809c-0.406-0.484-0.992-0.726-1.756-0.726c-0.812,0-1.428,0.359-1.85,1.077
			c-0.344,0.578-0.515,1.296-0.515,2.154c0,1.342,0.577,2.708,1.732,4.097c0.437,0.531,1.092,1.155,1.966,1.873
			c1.03,0.858,1.709,1.459,2.037,1.803c1.092,1.093,1.936,2.169,2.528,3.23c0.28,0.5,0.507,0.96,0.679,1.381
			C156.723,65.538,156.94,66.474,156.956,67.301z"/>
		<path id="XMLID_4485_" fill="#F7EBCB" d="M28.049,101.87l-5.922-17.066h4.869l3.277,10.535l3.254-10.535h4.894l-5.946,17.066
			v12.29h-4.426V101.87z"/>
		<path id="XMLID_4487_" fill="#F7EBCB" d="M51.529,114.534c-1.951,0-3.609-0.682-4.975-2.048c-1.366-1.366-2.048-3.017-2.048-4.952
			V91.522c0-1.951,0.687-3.609,2.06-4.975s3.028-2.049,4.963-2.049c1.951,0,3.605,0.687,4.963,2.061
			c1.358,1.373,2.037,3.027,2.037,4.963v3.348H53.94v-3.441c0-0.702-0.249-1.303-0.749-1.803s-1.1-0.749-1.803-0.749
			c-0.701,0-1.299,0.249-1.791,0.749c-0.491,0.5-0.736,1.101-0.736,1.803v16.06c0,0.702,0.245,1.3,0.736,1.791
			c0.492,0.491,1.09,0.737,1.791,0.737c0.703,0,1.303-0.246,1.803-0.737s0.749-1.089,0.749-1.791v-4.05h4.589v4.096
			c0,1.951-0.687,3.605-2.06,4.964C55.096,113.855,53.449,114.534,51.529,114.534z"/>
		<path id="XMLID_4489_" fill="#F7EBCB" d="M66.739,107.417l-1.075,6.742h-4.606l4.986-29.334h6.087l4.916,29.334h-4.652
			l-1.035-6.742H66.739z M69.063,91.545l-1.639,11.564h3.278L69.063,91.545z"/>
		<path id="XMLID_4492_" fill="#F7EBCB" d="M92.824,114.16H80.769V84.826h4.425v24.933h7.631V114.16z"/>
		<path id="XMLID_4494_" fill="#F7EBCB" d="M100.292,114.16h-4.424V84.826h4.424V114.16z"/>
		<path id="XMLID_4496_" fill="#F7EBCB" d="M118.154,107.136c0,1.936-0.679,3.591-2.037,4.964c-1.357,1.373-2.996,2.06-4.915,2.06
			h-6.953V84.803h6.953c1.935,0,3.577,0.687,4.927,2.06c1.351,1.374,2.025,3.021,2.025,4.94V107.136z M108.673,109.782h2.669
			c0.703,0,1.295-0.254,1.779-0.761c0.483-0.507,0.726-1.104,0.726-1.79V91.874c0-0.703-0.245-1.303-0.737-1.804
			c-0.491-0.499-1.081-0.749-1.768-0.749h-2.669V109.782z"/>
		<path id="XMLID_4499_" fill="#F7EBCB" d="M126.88,107.417l-1.075,6.742h-4.607l4.987-29.334h6.086l4.916,29.334h-4.652
			l-1.035-6.742H126.88z M129.204,91.545l-1.64,11.564h3.278L129.204,91.545z"/>
		<path id="XMLID_4538_" fill="#F7EBCB" d="M154.814,107.136c0,1.936-0.679,3.591-2.037,4.964c-1.357,1.373-2.996,2.06-4.916,2.06
			h-6.953V84.803h6.953c1.936,0,3.578,0.687,4.928,2.06c1.35,1.374,2.025,3.021,2.025,4.94V107.136z M145.333,109.782h2.669
			c0.702,0,1.295-0.254,1.779-0.761c0.483-0.507,0.726-1.104,0.726-1.79V91.874c0-0.703-0.246-1.303-0.737-1.804
			c-0.492-0.499-1.081-0.749-1.768-0.749h-2.669V109.782z"/>
	</g>
	<g id="XMLID_4894_">
		<path id="XMLID_4895_" fill="#51564D" d="M13.159,124.563h2.423v1.207h-2.423V124.563z M18.006,124.563h2.424v1.207h-2.424
			V124.563z M22.854,124.563h2.425v1.207h-2.425V124.563z M27.701,124.563h2.425v1.207h-2.425V124.563z M32.551,124.563h2.424v1.207
			h-2.424V124.563z M37.397,124.563h2.424v1.207h-2.424V124.563z M42.246,124.563h2.424v1.207h-2.424V124.563z M47.094,124.563
			h2.425v1.207h-2.425V124.563z M51.942,124.563h2.424v1.207h-2.424V124.563z M56.79,124.563h2.424v1.207H56.79V124.563z
			 M61.638,124.563h2.424v1.207h-2.424V124.563z M66.486,124.563h2.424v1.207h-2.424V124.563z M71.335,124.563h2.424v1.207h-2.424
			V124.563z M76.183,124.563h2.424v1.207h-2.424V124.563z M81.03,124.563h2.424v1.207H81.03V124.563z M85.878,124.563h2.424v1.207
			h-2.424V124.563z M90.727,124.563h2.424v1.207h-2.424V124.563z M95.574,124.563h2.425v1.207h-2.425V124.563z M100.423,124.563
			h2.423v1.207h-2.423V124.563z M105.271,124.563h2.424v1.207h-2.424V124.563z M110.118,124.563h2.424v1.207h-2.424V124.563z
			 M114.967,124.563h2.424v1.207h-2.424V124.563z M119.814,124.563h2.424v1.207h-2.424V124.563z M124.662,124.563h2.425v1.207
			h-2.425V124.563z M129.511,124.563h2.423v1.207h-2.423V124.563z M134.358,124.563h2.425v1.207h-2.425V124.563z M139.206,124.563
			h2.425v1.207h-2.425V124.563z M144.055,124.563h2.424v1.207h-2.424V124.563z M148.903,124.563h2.423v1.207h-2.423V124.563z
			 M153.75,124.563h2.424v1.207h-2.424V124.563z M158.599,124.563h2.424v1.207h-2.424V124.563z M163.447,124.563h0.902
			c0.482,0,0.968-0.031,1.44-0.092l0.153,1.199c-0.523,0.066-1.061,0.1-1.594,0.1h-0.902V124.563z M8.189,124.971l0.426-1.129
			c0.717,0.269,1.464,0.466,2.22,0.584l-0.187,1.193C9.811,125.489,8.982,125.27,8.189,124.971z M168.025,123.95
			c0.721-0.248,1.422-0.573,2.085-0.964l0.614,1.04c-0.731,0.434-1.508,0.791-2.307,1.066L168.025,123.95z M3.911,122.28
			l0.834-0.874c0.556,0.531,1.166,1.007,1.813,1.415l-0.645,1.021C5.199,123.391,4.524,122.866,3.911,122.28z M171.962,121.624
			c0.57-0.515,1.089-1.087,1.544-1.703l0.973,0.719c-0.504,0.68-1.078,1.312-1.707,1.881L171.962,121.624z M1.021,118.132
			l1.109-0.479c0.303,0.701,0.679,1.376,1.118,2.008l-0.991,0.69C1.77,119.653,1.354,118.907,1.021,118.132z M174.681,117.944
			c0.323-0.695,0.576-1.426,0.751-2.168l1.177,0.277c-0.194,0.822-0.474,1.63-0.832,2.4L174.681,117.944z M0,113.178v-0.049
			l1.208,0.049c0,0.768,0.078,1.536,0.232,2.286l-1.184,0.242C0.086,114.877,0,114.028,0,113.178z M175.729,113.5
			c0.002-0.108,0.004-0.216,0.005-0.321v-2.087h1.208v2.09c0,0.118-0.002,0.233-0.005,0.35L175.729,113.5z M0,108.28h1.208v2.426H0
			V108.28z M175.733,106.243h1.208v2.426h-1.208V106.243z M0,103.434h1.208v2.423H0V103.434z M175.733,101.395h1.208v2.425h-1.208
			V101.395z M0,98.584h1.208v2.424H0V98.584z M175.733,96.547h1.208v2.424h-1.208V96.547z M0,93.737h1.208v2.424H0V93.737z
			 M175.733,91.699h1.208v2.425h-1.208V91.699z M0,88.889h1.208v2.424H0V88.889z M175.733,86.852h1.208v2.424h-1.208V86.852z
			 M0,84.042h1.208v2.424H0V84.042z M175.733,82.003h1.208v2.424h-1.208V82.003z M0,79.193h1.208v2.425H0V79.193z M175.733,77.155
			h1.208v2.424h-1.208V77.155z M0,74.344h1.208v2.426H0V74.344z M175.733,72.307h1.208v2.424h-1.208V72.307z M0,69.497h1.208v2.425
			H0V69.497z M175.733,67.459h1.208v2.424h-1.208V67.459z M0,64.648h1.208v2.424H0V64.648z M175.733,62.611h1.208v2.424h-1.208
			V62.611z M0,59.8h1.208v2.425H0V59.8z M175.733,57.763h1.208v2.424h-1.208V57.763z M0,54.954h1.208v2.423H0V54.954z
			 M175.733,52.915h1.208v2.425h-1.208V52.915z M0,50.105h1.208v2.424H0V50.105z M175.733,48.067h1.208v2.424h-1.208V48.067z
			 M0.006,47.662c0.026-0.849,0.138-1.697,0.334-2.519l1.176,0.279c-0.177,0.743-0.278,1.508-0.301,2.277L0.006,47.662z
			 M174.82,43.589l1.11-0.477c0.334,0.778,0.59,1.596,0.759,2.427l-1.184,0.242C175.353,45.03,175.122,44.292,174.82,43.589z
			 M1.177,42.742c0.358-0.766,0.797-1.499,1.303-2.18l0.97,0.72c-0.457,0.616-0.854,1.28-1.178,1.973L1.177,42.742z M172.213,39.831
			l0.837-0.872c0.612,0.586,1.167,1.237,1.649,1.932l-0.992,0.689C173.27,40.95,172.768,40.362,172.213,39.831z M4.189,38.683
			c0.63-0.567,1.319-1.072,2.049-1.501l0.613,1.04c-0.66,0.39-1.283,0.847-1.855,1.361L4.189,38.683z M168.349,37.388l0.427-1.13
			c0.791,0.299,1.554,0.68,2.273,1.135l-0.646,1.021C169.753,38.003,169.062,37.658,168.349,37.388z M8.549,36.12
			c0.803-0.274,1.635-0.466,2.477-0.572l0.149,1.199c-0.759,0.096-1.511,0.269-2.236,0.516L8.549,36.12z M164.35,36.659h-0.541
			V35.45h0.541c0.66,0,1.323,0.053,1.969,0.155l-0.189,1.193C165.546,36.706,164.946,36.66,164.35,36.659z M13.52,35.45h2.425v1.208
			H13.52V35.45z M18.368,35.45h2.424v1.208h-2.424V35.45z M23.215,35.45h2.425v1.208h-2.425V35.45z M28.064,35.45h2.424v1.208
			h-2.424V35.45z M32.912,35.45h2.424v1.208h-2.424V35.45z M37.761,35.45h2.423v1.208h-2.423V35.45z M42.607,35.45h2.425v1.208
			h-2.425V35.45z M47.456,35.45h2.424v1.208h-2.424V35.45z M52.304,35.45h2.425v1.208h-2.425V35.45z M57.152,35.45h2.425v1.208
			h-2.425V35.45z M62,35.45h2.424v1.208H62V35.45z M66.849,35.45h2.423v1.208h-2.423V35.45z M71.696,35.45h2.424v1.208h-2.424V35.45
			z M76.545,35.45h2.423v1.208h-2.423V35.45z M81.393,35.45h2.424v1.208h-2.424V35.45z M86.24,35.45h2.424v1.208H86.24V35.45z
			 M91.087,35.45h2.426v1.208h-2.426V35.45z M95.937,35.45h2.424v1.208h-2.424V35.45z M100.784,35.45h2.424v1.208h-2.424V35.45z
			 M105.632,35.45h2.424v1.208h-2.424V35.45z M110.48,35.45h2.423v1.208h-2.423V35.45z M115.328,35.45h2.424v1.208h-2.424V35.45z
			 M120.176,35.45h2.424v1.208h-2.424V35.45z M125.024,35.45h2.424v1.208h-2.424V35.45z M129.871,35.45h2.425v1.208h-2.425V35.45z
			 M134.72,35.45h2.425v1.208h-2.425V35.45z M139.568,35.45h2.424v1.208h-2.424V35.45z M144.416,35.45h2.425v1.208h-2.425V35.45z
			 M149.265,35.45h2.423v1.208h-2.423V35.45z M154.112,35.45h2.423v1.208h-2.423V35.45z M158.961,35.45h2.423v1.208h-2.423V35.45z"
			/>
	</g>
</g>
</svg>
