<?xml version="1.0" encoding="utf-8"?>
<!-- Generator: Adobe Illustrator 16.0.0, SVG Export Plug-In . SVG Version: 6.00 Build 0)  -->
<!DOCTYPE svg PUBLIC "-//W3C//DTD SVG 1.1//EN" "http://www.w3.org/Graphics/SVG/1.1/DTD/svg11.dtd">
<svg version="1.1" id="Layer_1" xmlns="http://www.w3.org/2000/svg" xmlns:xlink="http://www.w3.org/1999/xlink" x="0px" y="0px"
	 width="1256.625px" height="291.417px" viewBox="0 0 1256.625 291.417" enable-background="new 0 0 1256.625 291.417"
	 xml:space="preserve">
<g>
	<g id="XMLID_1_">
		<path id="XMLID_4132_" fill="#31A6AE" d="M1256.625,259.42c0-15.027-12.183-27.21-27.211-27.21v54.422
			C1244.442,286.632,1256.625,274.447,1256.625,259.42z"/>
		<path id="XMLID_4131_" fill="#F76881" d="M1256.625,189.707c0-15.028-12.183-27.21-27.211-27.21v54.419
			C1244.442,216.916,1256.625,204.733,1256.625,189.707z"/>
		<path id="XMLID_4133_" fill="#F7974A" d="M1256.625,119.989c0-15.028-12.183-27.209-27.211-27.209v54.42
			C1244.442,147.2,1256.625,135.016,1256.625,119.989z"/>
	</g>
	<g>
		<path fill="#51564D" d="M477.999,115.215c4.46,0,8.011,1.41,10.652,4.228c2.463,2.685,3.695,6.103,3.695,10.252v8.821
			c0,3.994-1.396,7.413-4.188,10.252s-6.169,4.26-10.135,4.26h-5.284v22.902h-9.154v-60.715H477.999z M483.458,129.861
			c0-1.598-0.47-2.879-1.41-3.844c-0.94-0.965-2.207-1.448-3.8-1.448h-5.508v19.407h5.508c1.46,0,2.693-0.517,3.7-1.548
			c1.006-1.032,1.51-2.269,1.51-3.711V129.861z"/>
		<path fill="#51564D" d="M514.082,115.215c5.104,0,8.843,1.41,11.218,4.228c2.108,2.463,3.162,5.881,3.162,10.252v8.821
			c0,4.305-1.628,7.934-4.885,10.885l6.782,26.529h-9.873l-5.583-22.936c-0.266,0.023-0.543,0.033-0.831,0.033h-5.25v22.902h-9.154
			v-60.715H514.082z M519.541,129.861c0-3.528-1.736-5.292-5.21-5.292h-5.508v19.407h5.508c1.46,0,2.693-0.517,3.7-1.548
			c1.006-1.032,1.51-2.269,1.51-3.711V129.861z"/>
		<path fill="#51564D" d="M551.096,114.483c4.039,0,7.473,1.42,10.302,4.261c2.83,2.841,4.244,6.27,4.244,10.286v33.12
			c0,4.039-1.42,7.473-4.261,10.303c-2.841,2.829-6.269,4.244-10.286,4.244s-7.428-1.42-10.235-4.262
			c-2.808-2.84-4.211-6.268-4.211-10.285v-33.12c0-4.039,1.42-7.473,4.261-10.302C543.751,115.898,547.146,114.483,551.096,114.483z
			 M556.089,128.859c0-1.463-0.505-2.699-1.515-3.708c-1.01-1.009-2.247-1.514-3.711-1.514c-1.443,0-2.68,0.505-3.711,1.514
			c-1.032,1.009-1.548,2.245-1.548,3.708v33.228c0,1.441,0.516,2.672,1.548,3.691c1.032,1.021,2.269,1.531,3.711,1.531
			c1.465,0,2.702-0.51,3.711-1.531c1.01-1.02,1.515-2.25,1.515-3.691V128.859z"/>
		<path fill="#51564D" d="M588.045,176.696c-4.039,0-7.468-1.41-10.286-4.229c-2.818-2.817-4.228-6.234-4.228-10.252v-33.253
			c0-4.016,1.42-7.439,4.261-10.269c2.84-2.829,6.258-4.244,10.252-4.244c4.039,0,7.461,1.42,10.269,4.261
			c2.807,2.841,4.21,6.258,4.21,10.252v6.923h-9.487v-7.09c0-1.465-0.516-2.713-1.548-3.745c-1.032-1.032-2.28-1.548-3.745-1.548
			c-1.443,0-2.674,0.516-3.695,1.548c-1.021,1.032-1.531,2.28-1.531,3.745v33.32c0,1.465,0.51,2.707,1.531,3.729
			c1.021,1.021,2.252,1.531,3.695,1.531c1.465,0,2.713-0.511,3.745-1.531c1.032-1.021,1.548-2.264,1.548-3.729v-8.355h9.487v8.455
			c0,4.039-1.42,7.463-4.261,10.27C595.423,175.292,592.017,176.696,588.045,176.696z"/>
		<path fill="#51564D" d="M610.014,175.931v-60.715h26.063v9.154h-16.91v16.644h12.35v9.154h-12.35v16.609h16.91v9.154H610.014z"/>
		<path fill="#51564D" d="M672.626,160.852c0.066,4.239-1.032,7.855-3.296,10.851c-1.486,2.043-3.584,3.475-6.291,4.295
			c-1.465,0.466-3.162,0.699-5.093,0.699c-3.595,0-6.569-0.888-8.921-2.664c-1.953-1.464-3.506-3.444-4.66-5.941
			c-1.154-2.496-1.82-5.375-1.997-8.638l8.688-0.599c0.398,3.527,1.342,6.08,2.828,7.656c1.088,1.197,2.342,1.764,3.762,1.697
			c1.998-0.066,3.596-1.043,4.793-2.93c0.621-0.953,0.933-2.297,0.933-4.027c0-2.552-1.144-5.07-3.429-7.557
			c-1.82-1.708-4.538-4.271-8.154-7.689c-3.041-2.929-5.183-5.558-6.425-7.888c-1.354-2.618-2.03-5.459-2.03-8.521
			c0-5.525,1.852-9.708,5.559-12.549c2.285-1.708,5.126-2.563,8.521-2.563c3.262,0,6.059,0.732,8.389,2.197
			c1.797,1.132,3.25,2.713,4.359,4.743c1.109,2.031,1.787,4.366,2.031,7.007l-8.788,1.598c-0.244-2.485-0.954-4.416-2.13-5.792
			c-0.844-1.021-2.053-1.531-3.629-1.531c-1.664,0-2.94,0.744-3.828,2.23c-0.71,1.198-1.064,2.686-1.064,4.46
			c0,2.774,1.198,5.604,3.595,8.488c0.909,1.087,2.264,2.375,4.062,3.861c2.13,1.776,3.539,3.018,4.227,3.729
			c2.241,2.263,3.983,4.493,5.227,6.689c0.576,1.021,1.043,1.976,1.398,2.863C672.127,157.179,672.581,159.12,672.626,160.852z"/>
		<path fill="#51564D" d="M694.528,114.483c4.038,0,7.474,1.42,10.302,4.261c2.83,2.841,4.244,6.27,4.244,10.286v33.12
			c0,4.039-1.42,7.473-4.26,10.303c-2.842,2.829-6.27,4.244-10.286,4.244s-7.429-1.42-10.235-4.262
			c-2.808-2.84-4.211-6.268-4.211-10.285v-33.12c0-4.039,1.42-7.473,4.261-10.302C687.184,115.898,690.578,114.483,694.528,114.483z
			 M699.521,128.859c0-1.463-0.505-2.699-1.515-3.708c-1.01-1.009-2.247-1.514-3.712-1.514c-1.442,0-2.68,0.505-3.711,1.514
			c-1.031,1.009-1.548,2.245-1.548,3.708v33.228c0,1.441,0.517,2.672,1.548,3.691c1.031,1.021,2.269,1.531,3.711,1.531
			c1.465,0,2.702-0.51,3.712-1.531c1.01-1.02,1.515-2.25,1.515-3.691V128.859z"/>
		<path fill="#51564D" d="M746.822,160.852c0.066,4.239-1.033,7.855-3.296,10.851c-1.487,2.043-3.584,3.475-6.292,4.295
			c-1.464,0.466-3.162,0.699-5.092,0.699c-3.596,0-6.569-0.888-8.922-2.664c-1.952-1.464-3.506-3.444-4.66-5.941
			c-1.153-2.496-1.819-5.375-1.996-8.638l8.688-0.599c0.399,3.527,1.342,6.08,2.829,7.656c1.087,1.197,2.341,1.764,3.762,1.697
			c1.997-0.066,3.595-1.043,4.793-2.93c0.621-0.953,0.933-2.297,0.933-4.027c0-2.552-1.144-5.07-3.43-7.557
			c-1.819-1.708-4.537-4.271-8.154-7.689c-3.041-2.929-5.182-5.558-6.424-7.888c-1.354-2.618-2.031-5.459-2.031-8.521
			c0-5.525,1.853-9.708,5.559-12.549c2.285-1.708,5.127-2.563,8.521-2.563c3.262,0,6.059,0.732,8.389,2.197
			c1.797,1.132,3.25,2.713,4.36,4.743c1.109,2.031,1.786,4.366,2.03,7.007l-8.787,1.598c-0.244-2.485-0.955-4.416-2.131-5.792
			c-0.844-1.021-2.053-1.531-3.628-1.531c-1.665,0-2.94,0.744-3.828,2.23c-0.71,1.198-1.065,2.686-1.065,4.46
			c0,2.774,1.199,5.604,3.596,8.488c0.909,1.087,2.264,2.375,4.061,3.861c2.131,1.776,3.539,3.018,4.228,3.729
			c2.241,2.263,3.983,4.493,5.226,6.689c0.577,1.021,1.043,1.976,1.398,2.863C746.322,157.179,746.777,159.12,746.822,160.852z"/>
		<path fill="#51564D" d="M480.246,232.304l-12.25-35.283h10.053l6.807,21.803l6.74-21.803h10.119l-12.316,35.283v25.432h-9.154
			V232.304z"/>
		<path fill="#51564D" d="M528.778,258.501c-4.039,0-7.468-1.41-10.286-4.229c-2.818-2.816-4.228-6.234-4.228-10.252v-33.254
			c0-4.016,1.42-7.439,4.261-10.268c2.84-2.83,6.258-4.244,10.252-4.244c4.039,0,7.461,1.42,10.269,4.26
			c2.807,2.842,4.21,6.258,4.21,10.252v6.924h-9.487v-7.09c0-1.465-0.516-2.713-1.548-3.744c-1.032-1.031-2.28-1.549-3.745-1.549
			c-1.443,0-2.674,0.518-3.695,1.549c-1.021,1.031-1.531,2.279-1.531,3.744v33.32c0,1.465,0.51,2.707,1.531,3.729
			c1.021,1.021,2.252,1.531,3.695,1.531c1.465,0,2.713-0.51,3.745-1.531c1.032-1.021,1.548-2.264,1.548-3.729v-8.355h9.487v8.455
			c0,4.039-1.42,7.463-4.261,10.27C536.156,257.097,532.75,258.501,528.778,258.501z"/>
		<path fill="#51564D" d="M560.233,243.788l-2.23,13.947h-9.52l10.286-60.715h12.616l10.152,60.715h-9.586l-2.164-13.947H560.233z
			 M565.026,210.935l-3.395,23.932h6.791L565.026,210.935z"/>
		<path fill="#51564D" d="M614.224,257.735h-24.965v-60.715h9.154v51.627h15.811V257.735z"/>
		<path fill="#51564D" d="M629.636,257.735h-9.154v-60.715h9.154V257.735z"/>
		<path fill="#51564D" d="M666.584,243.222c0,3.994-1.41,7.412-4.228,10.252c-2.818,2.842-6.202,4.262-10.152,4.262h-14.38v-60.715
			h14.38c3.995,0,7.39,1.42,10.186,4.26c2.796,2.842,4.194,6.248,4.194,10.219V243.222z M646.979,248.681h5.508
			c1.46,0,2.688-0.527,3.684-1.58c0.996-1.055,1.493-2.291,1.493-3.713v-31.754c0-1.443-0.509-2.68-1.526-3.713
			c-1.018-1.031-2.234-1.547-3.65-1.547h-5.508V248.681z"/>
		<path fill="#51564D" d="M684.625,243.788l-2.23,13.947h-9.52l10.285-60.715h12.616l10.152,60.715h-9.587l-2.163-13.947H684.625z
			 M689.418,210.935l-3.395,23.932h6.791L689.418,210.935z"/>
		<path fill="#51564D" d="M742.41,243.222c0,3.994-1.409,7.412-4.227,10.252c-2.818,2.842-6.203,4.262-10.152,4.262H713.65v-60.715
			h14.381c3.994,0,7.389,1.42,10.186,4.26c2.796,2.842,4.193,6.248,4.193,10.219V243.222z M722.805,248.681h5.508
			c1.461,0,2.688-0.527,3.684-1.58c0.996-1.055,1.494-2.291,1.494-3.713v-31.754c0-1.443-0.51-2.68-1.527-3.713
			c-1.018-1.031-2.234-1.547-3.65-1.547h-5.508V248.681z"/>
	</g>
	<g>
		<path fill="#51564D" d="M493.065,69.766l-1.188-0.223l1.039-6.643l-0.148-0.965l1.076-9.723l0.371-1.225l-0.297-0.705l0.223-2.264
			c-0.124,0.099-0.322,0.272-0.594,0.52c-1.905,1.658-3.525,3.154-4.861,4.49l-0.557,0.297l-0.297,0.557l-0.668,0.223
			c-1.435,0.965-2.685,1.713-3.748,2.245c-1.064,0.532-2.103,0.922-3.117,1.169l-1.113,0.445l-0.854-0.445l-0.854,0.148
			l-0.371-0.223l-1.225,0.52l-2.338-1.113l-1.893-1.447l-1.744-1.67l-1.225-3.896l-0.928-3.711l-0.074-1.521l0.223-0.223
			l-0.223-0.371l0.297-0.705l-0.223-1.15c0.247-5.442,1.113-10.192,2.598-14.25c1.484-4.057,3.76-7.991,6.828-11.801l0.297-1.002
			c2.202-2.919,5.702-5.702,10.502-8.35l0.371-0.223l0.334,0.074l1.076-0.928c0.742-0.223,1.564-0.39,2.468-0.501
			c0.903-0.111,1.973-0.167,3.21-0.167h1.521l1.225,0.52l0.668-0.074c1.138,0.767,1.998,1.435,2.579,2.004
			c0.581,0.569,1.008,1.15,1.28,1.744c0.594,0.495,1.045,1.064,1.354,1.707c0.309,0.644,0.501,1.386,0.575,2.227l0.594,0.668
			l0.52,2.375l0.557,0.668l0.297,1.596c-0.792,0.99-2.189,2.449-4.193,4.379l-0.148,0.111c-0.272,0.074-0.501,0.13-0.687,0.167
			s-0.365,0.056-0.538,0.056c-0.47,0-0.841-0.142-1.113-0.427c-0.272-0.284-0.433-0.699-0.482-1.243l-0.52-3.191V17.85
			c0-1.039-0.235-2.022-0.705-2.95c-0.47-0.928-1.472-2.245-3.006-3.952l-0.631-0.631l-0.891-0.148l-0.779-0.445l-0.594,0.223
			h-0.297c-1.683,0-3.383,0.625-5.103,1.874c-1.72,1.25-3.297,3.012-4.731,5.288l-0.891,0.891l-0.148,0.779l-1.373,2.264
			l-0.445,0.594l-0.26,1.225c-0.248,0.693-0.452,1.219-0.612,1.577c-0.161,0.359-0.328,0.699-0.501,1.021l-0.148,0.742
			c-0.173,0.594-0.39,1.33-0.649,2.208c-0.26,0.878-0.427,1.466-0.501,1.763l-0.297,0.445l-0.223,1.521
			c-0.396,1.509-0.687,2.994-0.872,4.453c-0.186,1.46-0.278,2.944-0.278,4.453c0,0.792,0.024,1.503,0.074,2.134
			c0.049,0.631,0.124,1.206,0.223,1.726v0.705l0.52,0.742l1.076,2.598l0.148,0.742c1.039,0.767,1.905,1.312,2.598,1.633
			c0.692,0.322,1.323,0.482,1.893,0.482c0.717,0,1.824-0.353,3.321-1.058c1.497-0.705,2.802-1.564,3.915-2.579l0.445-0.297
			l0.445-1.002l2.375-2.264l0.742-0.074l0.445-1.15l0.557-0.074v-1.002c0.767-0.915,1.806-2.115,3.117-3.6
			c0.371-0.42,0.643-0.729,0.816-0.928c0.445-0.223,0.829-0.383,1.15-0.482c0.321-0.099,0.631-0.148,0.928-0.148
			c0.643,0,1.243,0.148,1.8,0.445s1.045,0.742,1.466,1.336l0.371,0.742l-0.371,2.338l-0.26,0.928l0.111,0.891l-1.93,8.312
			l-0.297,0.965l-0.965,3.674l-0.334,1.188v0.779c-0.099,0.47-0.248,0.958-0.445,1.466c-0.198,0.507-0.421,1.008-0.668,1.503v0.742
			c-0.347,2.004-0.798,3.358-1.354,4.063s-1.404,1.132-2.542,1.28L493.065,69.766z"/>
		<path fill="#51564D" d="M507.723,45.607l-0.074-0.705l-0.965,0.705l-0.557,0.371l-0.742,0.594
			c-0.445,0.248-0.767,0.433-0.965,0.557c-0.198,0.124-0.383,0.248-0.557,0.371l-0.445,0.371l-0.779,0.408
			c-0.124,0.272-0.303,0.477-0.538,0.612c-0.235,0.136-0.612,0.204-1.132,0.204c-0.247-0.024-0.396-0.068-0.445-0.13
			c-0.049-0.062-0.099-0.241-0.148-0.538c0.05-0.346,0.136-0.6,0.26-0.761c0.124-0.161,0.334-0.315,0.631-0.464v-0.779
			c0.248-0.223,0.495-0.47,0.742-0.742c0.248-0.272,0.532-0.606,0.854-1.002l0.557-0.779l0.52-0.223
			c0.148-0.346,0.34-0.625,0.575-0.835c0.235-0.21,0.575-0.414,1.021-0.612l0.223-0.52l1.002-0.594l0.854-0.705
			c0.074-0.049,0.136-0.13,0.186-0.241c0.05-0.111,0.087-0.253,0.111-0.427v-0.297l0.371-0.705l-0.148-0.445l0.223-0.631
			c0.173-0.891,0.365-1.626,0.575-2.208c0.21-0.581,0.476-1.107,0.798-1.577l0.52-0.297l-0.148-0.445
			c0.495-0.965,1.125-1.898,1.893-2.802c0.767-0.903,1.954-2.072,3.562-3.507h0.408l0.297-0.334l0.371-0.074l0.223-0.52
			c0.668-0.544,1.305-0.934,1.911-1.169c0.606-0.235,1.268-0.353,1.985-0.353c0.272,0,0.482,0.006,0.631,0.019
			c0.148,0.013,0.284,0.031,0.408,0.056l0.334,0.148l1.521,0.482l0.52,0.668l0.223,0.074c0.148,0.396,0.26,0.742,0.334,1.039
			s0.111,0.507,0.111,0.631c0,0.148-0.006,0.272-0.019,0.371c-0.013,0.099-0.031,0.173-0.056,0.223l0.223,0.557l-0.074,0.816
			l-0.297,1.002l-0.52,0.742l-0.148,0.854c-0.198,0.347-0.439,0.693-0.724,1.039c-0.285,0.347-0.649,0.755-1.095,1.225l-0.26,0.482
			c-0.594,0.718-1.299,1.46-2.115,2.227c-0.816,0.767-1.855,1.646-3.117,2.635l-0.668,0.223l-0.223,0.445l-1.299,0.854l-0.557,0.668
			c-0.099,0.074-0.173,0.148-0.223,0.223c-0.05,0.074-0.074,0.148-0.074,0.223c0,0.248,0.043,0.514,0.13,0.798
			c0.086,0.285,0.229,0.637,0.427,1.058l0.371,0.445l0.223,0.742c0.618,0.47,1.212,0.816,1.781,1.039
			c0.569,0.223,1.138,0.334,1.707,0.334c0.346,0,0.717-0.062,1.113-0.186c0.396-0.124,0.915-0.358,1.559-0.705l0.52-0.148
			l1.299-0.854l1.002,0.074l0.223-0.594c0.074-0.074,0.377-0.346,0.909-0.816c0.532-0.47,1.008-0.891,1.429-1.262l0.631-0.297
			l0.445-0.668c0.321-0.223,0.655-0.414,1.002-0.575c0.346-0.161,0.717-0.303,1.113-0.427c0.198-0.321,0.439-0.581,0.724-0.779
			c0.284-0.198,0.637-0.346,1.058-0.445l0.594-0.594c0.198-0.074,0.39-0.13,0.575-0.167s0.315-0.056,0.39-0.056
			c0.297,0,0.501,0.043,0.612,0.13c0.111,0.087,0.167,0.241,0.167,0.464c0,0.148-0.037,0.315-0.111,0.501s-0.161,0.34-0.26,0.464
			l-0.186,0.482c-0.173,0.297-0.427,0.625-0.761,0.983c-0.334,0.359-0.786,0.798-1.354,1.317v0.223c0,0.297-0.074,0.501-0.223,0.612
			s-0.433,0.192-0.854,0.241c-0.322,0.668-1.027,1.423-2.115,2.264c-0.347,0.272-0.619,0.495-0.816,0.668l-0.631,0.52l-0.408,0.186
			c-0.173,0.148-0.365,0.322-0.575,0.52c-0.21,0.198-0.489,0.47-0.835,0.816l-0.445,0.557l-0.928,0.594
			c-0.816,0.718-1.726,1.305-2.728,1.763c-1.002,0.458-1.862,0.687-2.579,0.687h-0.371l-0.854-0.148l-0.371,0.223h-1.076
			c-0.916,0-1.676-0.093-2.282-0.278c-0.606-0.186-1.058-0.476-1.354-0.872l-0.557,0.074l-0.891-0.816l-0.445-0.854l-0.408-0.408
			c-0.248-0.321-0.452-0.637-0.612-0.946c-0.161-0.309-0.303-0.662-0.427-1.058L507.723,45.607z M517.78,34.178l0.594-0.445
			c0-0.198,0.105-0.495,0.315-0.891c0.21-0.396,0.315-0.804,0.315-1.225c-0.025-0.346-0.05-0.544-0.074-0.594
			c-0.025-0.049-0.111-0.086-0.26-0.111h-0.148l-0.594,0.371l-1.447,1.299l-1.373,1.373l-1.225,1.781
			c-0.148,0.272-0.272,0.551-0.371,0.835c-0.099,0.285-0.148,0.526-0.148,0.724c0,0.05,0.019,0.087,0.056,0.111
			c0.037,0.025,0.068,0.037,0.093,0.037c0.074,0,0.148-0.012,0.223-0.037c0.074-0.024,0.186-0.086,0.334-0.186
			c0.124-0.024,0.235-0.043,0.334-0.056c0.099-0.012,0.21-0.019,0.334-0.019c0.049,0,0.111-0.019,0.186-0.056
			s0.186-0.142,0.334-0.315l0.371-0.668l0.631-0.631L517.78,34.178z"/>
		<path fill="#51564D" d="M527.948,45.756l-0.223,0.074l-0.297-0.074c-0.247,0.347-0.501,0.606-0.761,0.779
			c-0.26,0.173-0.575,0.297-0.946,0.371l-0.742,0.594l-0.742,0.445c-0.074,0.05-0.173,0.124-0.297,0.223
			c-0.371,0.272-0.631,0.507-0.779,0.705l-0.928,0.297c-0.321-0.148-0.525-0.272-0.612-0.371c-0.086-0.099-0.13-0.235-0.13-0.408
			c0-0.074,0.013-0.167,0.037-0.278c0.025-0.111,0.062-0.241,0.111-0.39l0.816-0.705V46.35c0.347-0.321,0.637-0.625,0.872-0.909
			c0.235-0.284,0.452-0.587,0.649-0.909l0.557-0.779l0.668-0.148c0.223-0.371,0.458-0.705,0.705-1.002
			c0.248-0.297,0.495-0.544,0.742-0.742l0.705-0.742l2.783-2.301l1.002-0.594l0.371-0.779l1.67-1.818l0.557-0.148l0.445-0.816
			l3.488-3.525l0.445-0.148l0.148-0.371l3.043-3.117c0.767-0.866,1.373-1.422,1.818-1.67c0.445-0.247,0.928-0.371,1.447-0.371
			c0.272,0,0.581,0.05,0.928,0.148c0.346,0.099,0.804,0.272,1.373,0.52l0.52,0.297l0.668,0.816c0.148,0.248,0.253,0.464,0.315,0.649
			c0.062,0.186,0.093,0.365,0.093,0.538c0,0.05-0.013,0.13-0.037,0.241c-0.025,0.111-0.062,0.254-0.111,0.427v0.371
			c0,0.421-0.043,0.848-0.13,1.28c-0.087,0.433-0.229,0.971-0.427,1.614l0.186,0.854l-0.334,1.596
			c-0.074,0.668-0.204,1.41-0.39,2.227s-0.452,1.868-0.798,3.154l-0.482,1.596l-0.668,2.227l-0.631,1.521
			c-0.05,0.248-0.13,0.507-0.241,0.779c-0.111,0.272-0.229,0.52-0.353,0.742l0.074,0.668l3.117-2.227l0.779-0.965
			c0.544-0.297,1.008-0.612,1.392-0.946c0.383-0.334,0.724-0.736,1.021-1.206l0.705-0.668c0.148-0.371,0.501-0.668,1.058-0.891
			s0.958-0.433,1.206-0.631l0.891-0.816c0.272-0.074,0.513-0.167,0.724-0.278c0.21-0.111,0.402-0.253,0.575-0.427l1.002-0.52h0.148
			c0.247,0,0.439,0.056,0.575,0.167c0.136,0.111,0.204,0.254,0.204,0.427c-0.025,0.099-0.056,0.204-0.093,0.315
			s-0.081,0.229-0.13,0.353l-0.111,0.705c-0.074,0.099-0.198,0.26-0.371,0.482c-0.668,0.816-1.274,1.497-1.818,2.041
			c-0.074,0.297-0.192,0.507-0.353,0.631c-0.161,0.124-0.415,0.21-0.761,0.26c-0.421,0.841-1.076,1.608-1.967,2.301
			c-0.297,0.223-0.507,0.396-0.631,0.52l-0.557,0.371l-0.816,1.076l-0.705,0.297l-0.52,0.779c-0.421,0.371-0.885,0.724-1.392,1.058
			c-0.507,0.334-1.107,0.662-1.8,0.983l-0.854,1.225l-0.445,0.668l-0.816,0.371c-0.248,0.445-0.495,0.761-0.742,0.946
			c-0.248,0.186-0.507,0.278-0.779,0.278h-0.334l-1.188,1.447l-1.67,0.668L537.967,57l-0.594-0.074
			c-0.322-0.049-0.575-0.154-0.761-0.315c-0.186-0.161-0.315-0.39-0.39-0.687l0.074-0.371L536,55.107
			c-0.347-0.767-0.612-1.583-0.798-2.449c-0.186-0.866-0.303-1.818-0.353-2.857l0.223-0.779l-0.594-1.744
			c0.47-0.841,0.977-1.497,1.521-1.967c0.544-0.47,1.051-0.705,1.521-0.705c0.396,0,0.705,0.285,0.928,0.854
			c0.124,0.297,0.223,0.52,0.297,0.668h0.26c0.148-0.247,0.278-0.544,0.39-0.891c0.111-0.346,0.241-0.841,0.39-1.484v-1.373
			c0.173-0.668,0.297-1.311,0.371-1.93c0.074-0.618,0.111-1.212,0.111-1.781v-0.742l0.148-1.596l-0.557-0.705l-0.965,0.148
			l-0.705,0.779l-0.816,0.52c-0.421,0.347-1.169,1.058-2.245,2.134s-1.998,1.936-2.765,2.579l-1.076,0.854l-0.742,0.371
			l-0.111,0.408c-0.322,0.421-0.687,0.823-1.095,1.206C528.931,45.008,528.467,45.385,527.948,45.756z"/>
		<path fill="#51564D" d="M573.629,11.467c-0.223,0.668-0.445,1.417-0.668,2.245c-0.223,0.829-0.433,1.701-0.631,2.616
			c0.272,0,0.513,0.025,0.724,0.074c0.21,0.05,0.427,0.124,0.649,0.223c0.148,0,0.26,0.031,0.334,0.093
			c0.074,0.062,0.111,0.155,0.111,0.278v0.26c0.024,0.742,0.08,1.491,0.167,2.245c0.086,0.755,0.13,1.145,0.13,1.169
			c0,0.693-0.13,1.169-0.39,1.429s-0.786,0.39-1.577,0.39c-0.891-0.049-1.546-0.074-1.967-0.074
			c-0.198,0.544-0.39,1.045-0.575,1.503c-0.186,0.458-0.377,0.897-0.575,1.317c0.024,0.099,0.068,0.223,0.13,0.371
			c0.062,0.148,0.093,0.248,0.093,0.297c0,0.148-0.099,0.334-0.297,0.557c-0.099,0.124-0.173,0.21-0.223,0.26
			c-1.039,4.082-1.831,7.385-2.375,9.908c-0.544,2.523-0.953,4.726-1.225,6.605v0.26c-0.05,0.173-0.087,0.303-0.111,0.39
			c-0.025,0.087-0.037,0.155-0.037,0.204c0,0.05,0.006,0.093,0.019,0.13c0.012,0.037,0.031,0.081,0.056,0.13
			c-0.148,0.816-0.272,1.59-0.371,2.319c-0.099,0.73-0.148,1.28-0.148,1.651c0,0.173,0.086,0.347,0.26,0.52
			c0.173,0.173,0.309,0.26,0.408,0.26c0.198,0,0.532-0.186,1.002-0.557c0.223-0.148,0.396-0.272,0.52-0.371
			c0.074,0,0.198-0.012,0.371-0.037c0.173-0.024,0.309-0.037,0.408-0.037h0.223c-0.05-0.173-0.087-0.303-0.111-0.39
			c-0.025-0.086-0.037-0.154-0.037-0.204c0-0.074,0.012-0.136,0.037-0.186c0.024-0.049,0.074-0.124,0.148-0.223
			c0.445-0.396,0.921-0.804,1.429-1.225c0.507-0.42,1.107-0.891,1.8-1.41c0.049-0.223,0.111-0.39,0.186-0.501
			s0.223-0.229,0.445-0.353c0.346-0.223,0.674-0.47,0.983-0.742c0.309-0.272,0.637-0.606,0.983-1.002l0.297-0.074l0.223-0.445
			c0.47-0.321,0.854-0.557,1.15-0.705s0.594-0.272,0.891-0.371c0.099-0.074,0.223-0.173,0.371-0.297
			c0.544-0.495,0.977-0.829,1.299-1.002l0.482-0.223c0.297-0.198,0.557-0.346,0.779-0.445c0.223-0.099,0.445-0.148,0.668-0.148
			c0.198,0,0.371,0.043,0.52,0.13c0.148,0.087,0.223,0.192,0.223,0.315c0,0.124-0.031,0.266-0.093,0.427
			c-0.062,0.161-0.155,0.353-0.278,0.575l-0.186,0.557c-0.322,0.396-0.674,0.798-1.058,1.206c-0.384,0.408-0.773,0.798-1.169,1.169
			c-0.05,0.371-0.143,0.619-0.278,0.742c-0.136,0.124-0.377,0.186-0.724,0.186l-0.557,0.928l-1.188,1.225
			c-0.52,0.569-0.953,1.015-1.299,1.336c-0.347,0.322-0.631,0.532-0.854,0.631c-0.148,0-0.26,0.031-0.334,0.093
			c-0.074,0.062-0.136,0.204-0.186,0.427c-0.619,0.866-1.163,1.54-1.633,2.022c-0.47,0.482-0.94,0.848-1.41,1.095
			c-0.223,0.025-0.39,0.093-0.501,0.204s-0.204,0.328-0.278,0.649c-0.569,0.767-1.243,1.479-2.022,2.134
			c-0.779,0.656-1.664,1.256-2.653,1.8h-0.186c-0.148,0.173-0.34,0.303-0.575,0.39c-0.235,0.087-0.464,0.13-0.687,0.13
			c-0.074,0-0.167-0.012-0.278-0.037c-0.111-0.024-0.204-0.037-0.278-0.037c-0.05-0.049-0.087-0.08-0.111-0.093
			c-0.025-0.012-0.062-0.031-0.111-0.056c-0.025,0-0.087,0.019-0.186,0.056c-0.099,0.037-0.198,0.068-0.297,0.093
			c-0.099-0.024-0.192-0.062-0.278-0.111c-0.087-0.049-0.217-0.161-0.39-0.334c-0.94-0.198-1.577-0.562-1.911-1.095
			c-0.334-0.532-0.501-1.639-0.501-3.321c0-0.148,0.006-0.303,0.019-0.464c0.012-0.161,0.031-0.34,0.056-0.538v-0.297
			c0-0.148-0.037-0.334-0.111-0.557c-0.025-0.049-0.037-0.086-0.037-0.111v-0.52v-0.705c0-0.42,0.037-0.854,0.111-1.299
			s0.186-0.866,0.334-1.262l0.223-0.482c-0.074-0.074-0.13-0.161-0.167-0.26c-0.037-0.099-0.056-0.21-0.056-0.334v-0.297
			c0.272-1.385,0.538-2.585,0.798-3.6c0.26-1.014,0.538-1.88,0.835-2.598c0.321-0.321,0.525-0.538,0.612-0.649
			c0.086-0.111,0.13-0.216,0.13-0.315c0-0.049-0.019-0.117-0.056-0.204c-0.037-0.086-0.105-0.191-0.204-0.315l0.26-1.15
			l-0.482,0.779c-0.223,0.124-0.433,0.303-0.631,0.538c-0.198,0.235-0.482,0.724-0.854,1.466c-0.124,0.148-0.384,0.353-0.779,0.612
			c-0.396,0.26-0.631,0.6-0.705,1.021l-0.891,0.854c-0.173,0.371-0.334,0.625-0.482,0.761c-0.148,0.136-0.322,0.204-0.52,0.204
			c-0.272,0-0.47,0.056-0.594,0.167c-0.124,0.111-0.198,0.303-0.223,0.575l-0.223,0.631l-0.928,0.668
			c-0.272,0.173-0.47,0.34-0.594,0.501c-0.124,0.161-0.235,0.402-0.334,0.724l-0.408,0.297c-0.495,0.248-0.872,0.458-1.132,0.631
			c-0.26,0.173-0.476,0.347-0.649,0.52c-0.223,0.074-0.433,0.173-0.631,0.297c-0.198,0.124-0.42,0.285-0.668,0.482
			c-0.396,0.198-0.711,0.377-0.946,0.538c-0.235,0.161-0.427,0.328-0.575,0.501l-0.705,0.557c-0.124,0.05-0.247,0.087-0.371,0.111
			c-0.124,0.025-0.247,0.037-0.371,0.037c-0.346,0-0.581-0.056-0.705-0.167c-0.124-0.111-0.186-0.315-0.186-0.612v-0.223
			c0.124-0.272,0.248-0.47,0.371-0.594c0.124-0.124,0.322-0.223,0.594-0.297v-1.002c0.396-0.321,0.73-0.612,1.002-0.872
			c0.272-0.26,0.495-0.501,0.668-0.724l-0.074-0.52l1.225-0.631c0.148-0.297,0.328-0.557,0.538-0.779
			c0.21-0.223,0.514-0.445,0.909-0.668l0.445-0.668c0.05-0.024,0.099-0.049,0.148-0.074c0.371-0.223,0.606-0.433,0.705-0.631
			c0.025,0,0.062-0.012,0.111-0.037c0.371-0.124,0.631-0.186,0.779-0.186v-0.594l0.705-0.854c1.039-1.262,1.793-2.165,2.264-2.709
			c0.198-0.643,0.903-1.731,2.115-3.266l0.334-0.408c0.223-0.024,0.39-0.08,0.501-0.167c0.111-0.086,0.167-0.204,0.167-0.353
			c0-0.049-0.019-0.124-0.056-0.223c-0.037-0.099-0.068-0.173-0.093-0.223c0.371-0.495,0.705-0.989,1.002-1.484
			c0.297-0.495,0.544-0.989,0.742-1.484h0.074c0.371,0,0.816-0.612,1.336-1.837s1.039-2.257,1.559-3.099
			c0.198-0.198,0.39-0.439,0.575-0.724c0.186-0.284,0.353-0.6,0.501-0.946l-1.002-0.148c-0.371,0.148-0.711,0.26-1.021,0.334
			c-0.31,0.074-0.575,0.111-0.798,0.111c-0.173,0-0.458-0.024-0.854-0.074c-0.396-0.049-0.693-0.074-0.891-0.074
			c-0.05,0-0.124,0.019-0.223,0.056c-0.099,0.037-0.173,0.068-0.223,0.093c-0.05-0.024-0.111-0.043-0.186-0.056
			c-0.074-0.012-0.173-0.019-0.297-0.019c-0.124,0-0.229,0.013-0.315,0.037c-0.087,0.025-0.18,0.062-0.278,0.111h-1.299h-2.783
			c-0.148-0.074-0.285-0.173-0.408-0.297c-0.124-0.124-0.248-0.272-0.371-0.445c-0.024,0.099-0.086,0.21-0.186,0.334
			c-0.099,0.124-0.235,0.26-0.408,0.408c-0.024,0-0.08,0.013-0.167,0.037c-0.086,0.025-0.142,0.037-0.167,0.037
			c-0.223,0-0.458-0.056-0.705-0.167c-0.247-0.111-0.532-0.278-0.854-0.501c-0.396-0.049-0.649-0.13-0.761-0.241
			s-0.167-0.414-0.167-0.909c0-0.148,0.037-0.538,0.111-1.169s0.111-1.206,0.111-1.726c0-0.099-0.012-0.266-0.037-0.501
			c-0.024-0.235-0.037-0.427-0.037-0.575h0.371c0.05,0,0.111-0.024,0.186-0.074c0.074-0.049,0.173-0.124,0.297-0.223
			c0.198-0.024,0.495-0.074,0.891-0.148c0.693-0.099,1.15-0.148,1.373-0.148c0.42,0,0.835,0.019,1.243,0.056s0.835,0.093,1.28,0.167
			c0.816-0.074,1.422-0.117,1.818-0.13c0.396-0.012,0.767-0.019,1.113-0.019c0.049,0,0.253,0.019,0.612,0.056
			c0.358,0.037,0.687,0.068,0.983,0.093c0.024,0.025,0.062,0.043,0.111,0.056c0.049,0.013,0.124,0.019,0.223,0.019
			c0.024,0,0.093-0.019,0.204-0.056s0.241-0.093,0.39-0.167c0.198-0.024,0.408-0.043,0.631-0.056
			c0.223-0.012,0.52-0.019,0.891-0.019c0.148,0,0.358,0.019,0.631,0.056c0.272,0.037,0.618,0.093,1.039,0.167l0.371,0.297
			c0.346-0.024,0.674-0.068,0.983-0.13c0.309-0.062,0.612-0.142,0.909-0.241c0.42-0.915,0.785-1.731,1.095-2.449
			c0.309-0.717,0.501-1.249,0.575-1.596c0.173-0.321,0.365-0.594,0.575-0.816c0.21-0.223,0.476-0.408,0.798-0.557v-0.148
			c0-0.297,0.216-0.569,0.649-0.816c0.433-0.247,0.909-0.371,1.429-0.371c0.297,0,0.525,0.062,0.687,0.186
			c0.161,0.124,0.303,0.359,0.427,0.705c0.148,0.248,0.253,0.452,0.315,0.612C573.598,11.164,573.629,11.318,573.629,11.467z"/>
		<path fill="#51564D" d="M591.776,49.764l-0.445,0.371l-1.373,0.705l-1.225,0.074c-0.124,0.025-0.266,0.043-0.427,0.056
			c-0.161,0.013-0.39,0.019-0.687,0.019c-0.644,0-1.194-0.111-1.651-0.334c-0.458-0.223-0.872-0.569-1.243-1.039l-0.297-0.668
			l-0.557-0.482v-0.371l-0.148-0.297l-0.445-0.223l-0.816-1.744v-0.705l-0.482-0.371l-0.816-1.447
			c-0.148-0.173-0.322-0.396-0.52-0.668c-0.322-0.47-0.582-0.705-0.779-0.705c-0.124,0-0.254,0.037-0.39,0.111
			c-0.136,0.074-0.266,0.161-0.39,0.26l-0.594,0.074l-0.297,0.482l-0.705,0.742l-0.52,0.074l-0.52,0.408l-0.223,0.371l-0.334,0.445
			c-0.569,0.421-1.323,0.978-2.264,1.67c-2.399,1.732-3.797,2.598-4.193,2.598c-0.198,0-0.371-0.074-0.52-0.223
			s-0.223-0.334-0.223-0.557c0-0.247,0.074-0.476,0.223-0.687c0.148-0.21,0.396-0.414,0.742-0.612v-0.668
			c1.039-1.237,1.992-2.282,2.857-3.136c0.866-0.854,1.386-1.28,1.559-1.28c0.322-0.445,0.637-0.847,0.946-1.206
			c0.31-0.358,0.637-0.699,0.983-1.021l0.668-0.742l0.445-0.223l0.148-0.371c0.198-0.247,0.618-0.773,1.262-1.577
			c0.643-0.804,1.188-1.49,1.633-2.06l0.928-0.482l0.371-0.816l0.742-0.631h2.746l1.447,0.854c0.52,0.248,0.891,1.41,1.113,3.488
			c0,0.148,0.012,0.272,0.037,0.371l0.52,3.525l0.297,0.445c0.346,1.361,0.705,2.245,1.076,2.653s0.928,0.612,1.67,0.612
			c0.321,0,0.655-0.08,1.002-0.241c0.346-0.161,0.668-0.39,0.965-0.687l0.779-0.074l0.297-0.52l1.521-1.299l0.297-0.668
			c1.138-0.544,2.251-1.212,3.34-2.004c1.088-0.792,1.831-1.188,2.227-1.188c0.247,0,0.433,0.062,0.557,0.186
			c0.124,0.124,0.186,0.31,0.186,0.557c0,0.025-0.025,0.087-0.074,0.186c-0.173,0.371-0.31,0.755-0.408,1.15l-0.52,0.557
			c-0.544,0.569-1.045,1.169-1.503,1.8c-0.458,0.631-0.761,0.946-0.909,0.946h-0.148l-0.482,0.705l-0.816,0.891l-0.445,0.297
			l-0.779,0.631c-0.421,0.371-0.978,0.903-1.67,1.596C593.334,48.836,592.419,49.541,591.776,49.764z M584.502,20.818l-0.705,0.297
			c-0.198-0.049-0.384-0.13-0.557-0.241c-0.173-0.111-0.31-0.253-0.408-0.427l-0.297-0.668c-0.124-0.223-0.223-0.445-0.297-0.668
			s-0.111-0.42-0.111-0.594c0-0.841,0.241-1.645,0.724-2.412c0.482-0.767,1.305-1.657,2.468-2.672l0.408-0.148l0.594,0.074
			l0.074-0.594l1.447-1.373l0.891-0.223c0.223-0.173,0.439-0.297,0.649-0.371c0.21-0.074,0.476-0.111,0.798-0.111
			c0.495,0,0.896,0.124,1.206,0.371c0.309,0.248,0.464,0.557,0.464,0.928v0.148l-0.445,2.301l-0.52,1.521l-0.371,0.297v0.668
			l-0.557,1.15c-0.173,0.322-0.445,0.662-0.816,1.021c-0.371,0.359-0.606,0.6-0.705,0.724l-0.52,0.074l-0.223,0.297
			c-0.693,0.371-1.206,0.619-1.54,0.742c-0.334,0.124-0.637,0.186-0.909,0.186h-0.297L584.502,20.818z"/>
		<path fill="#51564D" d="M598.196,43.9c-1.237,1.262-2.653,2.456-4.249,3.581c-1.596,1.126-2.566,1.688-2.913,1.688
			c-0.198,0-0.371-0.074-0.52-0.223s-0.223-0.334-0.223-0.557c0-0.247,0.074-0.476,0.223-0.687c0.148-0.21,0.396-0.414,0.742-0.612
			v-0.668c1.039-1.237,1.992-2.282,2.857-3.136c0.866-0.854,1.386-1.28,1.559-1.28c0.347-0.223,0.705-0.643,1.076-1.262
			c0.124-0.198,0.223-0.358,0.297-0.482l0.705-0.52l0.445-0.557l0.371-0.223l0.223-0.594l1.744-1.818l1.596-1.447l1.373-1.818
			c0.42-0.495,0.878-0.965,1.373-1.41c0.495-0.445,1.026-0.866,1.596-1.262l0.668-0.371l0.186-0.557
			c1.188-1.237,2.078-2.01,2.672-2.319c0.594-0.309,1.323-0.464,2.189-0.464c0.495,0,0.909,0.074,1.243,0.223
			s0.501,0.322,0.501,0.52c0,0.074-0.223,0.439-0.668,1.095c-0.445,0.656-0.829,1.256-1.15,1.8l1.521-0.854l0.965-0.371
			c0.173-0.099,0.353-0.173,0.538-0.223c0.186-0.049,0.39-0.074,0.612-0.074c0.198,0,0.353,0.006,0.464,0.019
			c0.111,0.013,0.216,0.031,0.315,0.056l0.742-0.074c1.781,0.223,3.216,0.909,4.305,2.06c1.088,1.15,1.633,2.567,1.633,4.249
			c0,0.074-0.013,0.192-0.037,0.353c-0.025,0.161-0.037,0.303-0.037,0.427l-0.408,1.67l-0.148,0.594l-0.445,1.225l-0.779,1.744
			l-0.52,0.668l-0.668,0.557l-0.223,0.742c0,0.148-0.347,0.625-1.039,1.429c-0.693,0.804-1.596,1.775-2.709,2.913l-0.594,0.965
			l-0.631,0.408l-0.594,0.148l-0.742,0.668c-0.421,0.371-0.829,0.705-1.225,1.002c-0.396,0.297-0.779,0.544-1.15,0.742l-1.225,0.074
			l-0.594,0.148l-0.482,0.631c-0.347,0.124-0.749,0.248-1.206,0.371c-0.458,0.124-0.724,0.198-0.798,0.223l-0.668-0.037
			c-0.148,0.124-0.34,0.223-0.575,0.297c-0.235,0.074-0.514,0.111-0.835,0.111c-1.559,0-2.845-0.451-3.859-1.354
			c-1.015-0.903-1.521-2.072-1.521-3.507v-0.371l0.148-0.52c-0.05-0.148-0.099-0.321-0.148-0.52
			c-0.099-0.371-0.148-0.655-0.148-0.854c0-0.371,0.26-1.62,0.779-3.748l0.186-0.742l-0.52,0.371l-0.705,0.779l-0.668,0.445
			L598.196,43.9z M606.62,42.156v0.779l-0.148,0.816l-0.074,0.631l-0.223,0.816c-0.025,0.074-0.043,0.167-0.056,0.278
			c-0.013,0.111-0.019,0.278-0.019,0.501c0,0.297,0.024,0.563,0.074,0.798c0.049,0.235,0.124,0.477,0.223,0.724v0.297
			c0.198,0.248,0.383,0.427,0.557,0.538c0.173,0.111,0.383,0.204,0.631,0.278l0.705,0.074c0.223-0.198,0.643-0.42,1.262-0.668
			c0.618-0.247,1.088-0.47,1.41-0.668l1.076-0.631l2.709-2.709l0.854-1.15l0.52-0.223l-0.074-0.631l0.223-0.52
			c0.247-0.445,0.606-1.422,1.076-2.932l0.074-0.186l0.074-0.854c-0.396-0.965-0.816-1.633-1.262-2.004s-1.015-0.557-1.707-0.557
			c-0.173,0-0.347,0.019-0.52,0.056c-0.173,0.037-0.359,0.093-0.557,0.167l-0.816,0.297l-0.445,0.705
			c-0.619,0.47-1.231,1.138-1.837,2.004c-0.606,0.866-1.058,1.361-1.354,1.484l-0.928-0.223c-0.198,0-0.322,0.006-0.371,0.019
			c-0.05,0.013-0.074,0.031-0.074,0.056c0,0.322-0.019,0.575-0.056,0.761s-0.093,0.353-0.167,0.501L606.62,42.156z M617.084,19.631
			c0.124-0.247,0.315-0.482,0.575-0.705s0.625-0.458,1.095-0.705l0.408-0.445c0.42-0.173,0.792-0.377,1.113-0.612
			c0.321-0.235,0.557-0.464,0.705-0.687l0.816-0.445c0.099-0.099,0.247-0.26,0.445-0.482c0.742-0.841,1.336-1.299,1.781-1.373
			c0.124-0.247,0.272-0.439,0.445-0.575c0.173-0.136,0.371-0.241,0.594-0.315l0.482-0.445l1.113-0.779l0.705-0.371h0.594
			l0.668,0.445c0,0.05-0.006,0.111-0.019,0.186c-0.013,0.074-0.019,0.173-0.019,0.297c0,0.148,0.031,0.278,0.093,0.39
			c0.062,0.111,0.179,0.229,0.353,0.353l0.148,0.631c0.049,0.099,0.086,0.192,0.111,0.278c0.024,0.087,0.037,0.167,0.037,0.241
			c0,0.248-0.068,0.489-0.204,0.724c-0.136,0.235-0.402,0.551-0.798,0.946l-1.262,0.668l-0.557,0.408l-0.816,0.297
			c-0.173,0-0.34,0.031-0.501,0.093c-0.161,0.062-0.377,0.18-0.649,0.353l-0.371,0.371c-0.198,0.124-0.359,0.204-0.482,0.241
			c-0.124,0.037-0.272,0.068-0.445,0.093c-0.223,0.124-0.415,0.254-0.575,0.39c-0.161,0.136-0.303,0.278-0.427,0.427l-0.668,0.148
			c-0.173,0.148-0.315,0.26-0.427,0.334s-0.192,0.111-0.241,0.111c-0.124,0-0.495,0.118-1.113,0.353
			c-0.619,0.235-1.163,0.353-1.633,0.353c-0.05,0-0.136-0.012-0.26-0.037c-0.124-0.024-0.21-0.037-0.26-0.037
			c-0.297-0.049-0.501-0.117-0.612-0.204c-0.111-0.086-0.167-0.229-0.167-0.427c0-0.049,0.019-0.117,0.056-0.204
			C616.955,19.823,617.01,19.73,617.084,19.631z"/>
		<path fill="#51564D" d="M627.364,39.744l0.482-0.557c0.792-0.891,1.88-2.127,3.265-3.711c3.983-4.577,6.358-6.977,7.125-7.199
			l0.779-0.26l0.816-0.52l0.854-0.297l0.52,0.148l0.557,0.074c0.718,0.544,1.225,1.027,1.521,1.447
			c0.297,0.421,0.445,0.878,0.445,1.373c0,0.297-0.024,0.6-0.074,0.909c-0.049,0.31-0.123,0.637-0.223,0.983l-0.148,1.262
			c-0.123,0.52-0.24,0.983-0.352,1.392s-0.229,0.786-0.354,1.132l-0.52,0.779v0.668c-0.297,0.644-0.588,1.336-0.871,2.078
			c-0.285,0.742-0.662,1.806-1.133,3.191l-0.371,0.297c0.025,0.05,0.05,0.099,0.074,0.148c0.05,0.173,0.074,0.322,0.074,0.445
			c0,0.223-0.111,0.482-0.334,0.779s-0.334,0.569-0.334,0.816v0.297l1.559-1.41c0.297-0.47,0.644-0.934,1.039-1.392
			c0.396-0.458,0.866-0.934,1.41-1.429l0.557-0.223l0.223-0.408l0.074-0.445c0.148-0.297,0.297-0.532,0.445-0.705
			c0.148-0.173,0.31-0.321,0.482-0.445l1.113-0.668l0.557-0.854c1.336-1.311,2.536-2.257,3.6-2.839
			c1.064-0.581,2.091-0.872,3.08-0.872c0.693,0,1.256,0.118,1.689,0.353c0.432,0.235,0.723,0.575,0.871,1.021l0.705,0.779
			c0.174,0.396,0.458,1.015,0.854,1.855c0.396,0.841,0.693,1.484,0.891,1.93l-0.223,0.816c0.297,0.198,0.631,0.693,1.002,1.484
			c0.371,0.792,0.816,1.188,1.336,1.188c0.124,0,0.272-0.019,0.445-0.056c0.174-0.037,0.384-0.093,0.631-0.167l0.297-0.148
			l0.297-0.557l0.928-0.668l0.594-0.594c0.866-0.223,1.844-0.748,2.932-1.577c1.089-0.829,1.868-1.243,2.338-1.243
			c0.248,0,0.421,0.056,0.52,0.167c0.1,0.111,0.148,0.303,0.148,0.575c-0.197,0.594-0.334,1.039-0.408,1.336l-0.482,0.557
			c-0.643,0.792-1.36,1.602-2.152,2.431c-0.791,0.829-1.645,1.701-2.561,2.616l-0.408,0.371l-0.594,0.371
			c-0.148,0.495-0.568,0.928-1.262,1.299c-0.123,0.074-0.223,0.136-0.297,0.186l-0.482,0.482l-1.521,0.631
			c-0.321,0.148-0.6,0.26-0.834,0.334c-0.236,0.074-0.439,0.111-0.613,0.111c-0.865,0-1.725-0.408-2.578-1.225
			s-1.565-1.93-2.135-3.34l-0.074-0.742c-0.47-0.396-0.908-0.816-1.316-1.262s-0.811-0.94-1.207-1.484
			c-0.148-0.074-0.291-0.13-0.426-0.167c-0.137-0.037-0.267-0.056-0.391-0.056c-0.271,0-0.594,0.111-0.965,0.334
			s-1.063,0.767-2.078,1.633l-0.705,0.223l-0.594,0.854c-0.271,0.347-0.562,0.631-0.871,0.854c-0.311,0.223-0.65,0.396-1.021,0.52
			l-1.076,1.596c-1.459,1.633-2.578,2.857-3.357,3.674s-1.417,1.447-1.912,1.893c-0.568,0.767-1.15,1.293-1.744,1.577
			c-0.594,0.285-1.373,0.427-2.338,0.427c-0.494,0-0.834-0.074-1.02-0.223s-0.328-0.445-0.428-0.891l0.074-1.076l-0.223-0.371
			l0.148-0.705c0.718-2.375,1.244-4.175,1.578-5.399s0.5-1.948,0.5-2.171c0-0.024,0.05-0.142,0.148-0.353
			c0.1-0.21,0.198-0.451,0.297-0.724l0.371-0.631c-0.049-0.099-0.086-0.191-0.111-0.278c-0.024-0.086-0.037-0.167-0.037-0.241
			c0-0.198,0.137-0.662,0.408-1.392c0.272-0.729,0.408-1.33,0.408-1.8c0-0.124-0.062-0.216-0.186-0.278
			c-0.123-0.062-0.284-0.093-0.482-0.093c-0.816,0-1.502,0.359-2.059,1.076c-0.557,0.718-0.897,1.113-1.021,1.188l-0.965,1.225
			l-0.816,0.779l-0.52,0.148l-0.26,0.223l-0.223,0.371l-0.297,0.445c-0.223,0.099-0.383,0.192-0.482,0.278
			c-0.099,0.087-0.161,0.167-0.186,0.241l-0.705,0.631c-1.806,1.41-3.234,2.474-4.286,3.191c-1.051,0.718-1.726,1.076-2.022,1.076
			c-0.198,0-0.371-0.074-0.52-0.223s-0.223-0.334-0.223-0.557c0-0.247,0.074-0.476,0.223-0.687c0.148-0.21,0.396-0.414,0.742-0.612
			v-0.668c1.039-1.237,1.992-2.282,2.857-3.136c0.866-0.854,1.386-1.28,1.559-1.28c0-0.049-0.024-0.124-0.074-0.223
			c0.025-0.074,0.05-0.117,0.074-0.13c0.025-0.012,0.074-0.019,0.148-0.019h0.074c0.124,0,0.223-0.062,0.297-0.186
			c0.074-0.124,0.136-0.321,0.186-0.594l0.52-0.445L627.364,39.744z"/>
		<path fill="#51564D" d="M714.57,42.861l1.15-0.482l0.816-0.52c0.223-0.272,0.428-0.476,0.613-0.612
			c0.186-0.136,0.389-0.204,0.611-0.204l1.744-0.779l0.928-0.965c0.297-0.074,0.52-0.148,0.668-0.223s0.272-0.173,0.371-0.297
			c0.223-0.223,0.428-0.383,0.613-0.482c0.186-0.099,0.364-0.148,0.537-0.148c0.124,0,0.223,0.006,0.297,0.019
			c0.074,0.013,0.148,0.031,0.223,0.056c0.124,0.099,0.211,0.198,0.26,0.297c0.05,0.099,0.074,0.198,0.074,0.297
			c0,0.074-0.086,0.384-0.26,0.928c-0.049,0.173-0.099,0.322-0.148,0.445l-0.891,1.299l-1.225,1.15
			c-0.049,0.371-0.16,0.631-0.334,0.779c-0.173,0.148-0.47,0.248-0.891,0.297c-0.148,0.495-0.358,0.872-0.631,1.132
			c-0.271,0.26-0.692,0.452-1.262,0.575l-0.297,0.408l-0.631,0.297c-0.197,0.198-0.408,0.353-0.631,0.464s-0.457,0.18-0.705,0.204
			c-0.049,0.025-0.099,0.062-0.148,0.111c-0.494,0.322-0.841,0.594-1.039,0.816c-0.321,0.025-0.618,0.081-0.891,0.167
			c-0.271,0.087-0.544,0.204-0.816,0.353l-0.557,0.148l-0.668-0.074c-0.148,0.025-0.303,0.043-0.463,0.056
			c-0.162,0.013-0.341,0.019-0.539,0.019c-0.494,0-1.057-0.105-1.688-0.315c-0.631-0.21-1.355-0.562-2.172-1.058l-0.223-0.334
			c-0.197-0.148-0.396-0.328-0.594-0.538c-0.197-0.21-0.383-0.451-0.557-0.724l-0.148-0.52l-0.223-0.223
			c-0.197-0.272-0.371-0.544-0.52-0.816c-0.148-0.272-0.284-0.557-0.408-0.854c0.025-0.049,0.05-0.111,0.074-0.186
			c0.05-0.148,0.074-0.26,0.074-0.334c0-0.173-0.037-0.315-0.111-0.427s-0.21-0.229-0.408-0.353
			c-0.049-0.42-0.111-0.754-0.186-1.002c-0.074-0.247-0.186-0.47-0.334-0.668l-0.148-0.928l-0.408-0.816
			c-0.223,0.223-0.457,0.507-0.705,0.854c-0.247,0.347-0.383,0.532-0.408,0.557c-0.247,0.173-0.445,0.359-0.594,0.557
			c-0.148,0.198-0.297,0.458-0.445,0.779c-0.321,0.148-0.562,0.328-0.723,0.538c-0.162,0.21-0.267,0.489-0.316,0.835l-0.223,0.52
			c-0.099,0.124-0.34,0.396-0.723,0.816c-0.385,0.421-0.699,0.779-0.947,1.076l-0.928,0.52l-0.371,0.779l-0.111,0.148
			c-1.088,1.435-2.09,2.598-3.006,3.488l-1.188,0.779l-0.779,0.742c-0.371,0.248-0.705,0.507-1.002,0.779
			c-0.297,0.272-0.568,0.569-0.816,0.891l-0.928,0.371h-0.52c-0.123,0-0.271,0.006-0.445,0.019
			c-0.173,0.013-0.358,0.031-0.557,0.056l-0.631,0.037c-0.223,0.05-0.396,0.087-0.52,0.111c-0.123,0.025-0.223,0.037-0.297,0.037
			c-0.271,0-0.544-0.117-0.816-0.353c-0.271-0.235-0.469-0.55-0.594-0.946l-0.111-0.408l-0.148-0.223l-0.074-0.445l-0.148-0.297
			c0-0.841,0.111-1.719,0.334-2.635c0.223-0.915,0.57-1.967,1.039-3.154l0.297-1.262c-0.42,0.297-0.822,0.6-1.205,0.909
			c-0.384,0.31-0.773,0.637-1.17,0.983l-0.816,0.371c-0.123,0.248-0.297,0.439-0.52,0.575c-0.223,0.136-0.52,0.241-0.891,0.315
			l-0.297,0.223c-1.707,1.287-2.732,1.93-3.08,1.93c-0.123,0-0.234-0.037-0.334-0.111c-0.098-0.074-0.209-0.223-0.334-0.445
			l0.148-0.594c0.125-0.247,0.248-0.427,0.371-0.538c0.125-0.111,0.273-0.179,0.445-0.204l-0.074-0.854
			c0.1-0.198,0.236-0.377,0.408-0.538c0.174-0.161,0.422-0.34,0.742-0.538c0.248-0.321,0.514-0.618,0.799-0.891
			c0.284-0.272,0.6-0.532,0.945-0.779c0.174-0.495,0.385-0.854,0.631-1.076c0.248-0.223,0.57-0.371,0.965-0.445l0.297-0.742
			l0.594-0.223c0.074-0.247,0.186-0.445,0.334-0.594s0.385-0.284,0.705-0.408c0.174,0.05,0.273,0.074,0.297,0.074
			c0.1,0,0.186-0.049,0.26-0.148c0.074-0.099,0.137-0.247,0.186-0.445c0.421-0.42,0.854-0.829,1.299-1.225
			c0.445-0.396,0.928-0.804,1.447-1.225c0.569-0.173,0.953-0.34,1.15-0.501c0.198-0.161,0.297-0.365,0.297-0.612v-0.186
			c1.287-1.212,2.264-2.14,2.932-2.783l0.408-0.482l1.113-0.891l1.299-1.225c0.471-0.52,1.102-1.144,1.893-1.874
			c0.792-0.729,1.781-1.577,2.969-2.542c0.322-0.272,0.748-0.612,1.281-1.021c0.531-0.408,1.168-0.896,1.91-1.466
			c0.495-0.223,0.866-0.371,1.113-0.445c0.248-0.074,0.458-0.111,0.631-0.111c0.198-0.495,0.377-1.026,0.539-1.596
			c0.16-0.569,0.314-1.2,0.463-1.893l0.371-0.445c0.471-1.608,0.99-3.173,1.559-4.694c0.569-1.521,1.188-3,1.855-4.435l0.557-0.445
			V9.277c0-0.371,0.062-0.705,0.186-1.002c0.124-0.297,0.31-0.569,0.557-0.816c0.05-0.074,0.1-0.136,0.148-0.186
			c0.322-0.396,0.532-0.754,0.631-1.076l0.668-0.742l0.223-1.039c0.223-0.495,0.508-0.989,0.854-1.484
			c0.347-0.495,0.755-0.989,1.225-1.484l0.668-0.928l0.742-0.445l0.334,0.223L716.166,0c0.371,0.05,0.65,0.099,0.836,0.148
			c0.186,0.05,0.364,0.099,0.537,0.148l0.297,0.594l-0.223,0.408l0.297,0.371v0.297c0,0.569-0.16,1.386-0.482,2.449
			c-0.049,0.173-0.086,0.297-0.111,0.371l0.074,0.742c-0.099,0.619-0.234,1.163-0.408,1.633c-0.173,0.47-0.396,0.891-0.668,1.262
			l0.074,0.594c-0.074,0.52-0.191,1.021-0.352,1.503c-0.162,0.482-0.354,0.934-0.576,1.354l-0.371,0.334l0.074,0.334l-0.148,0.445
			l-0.074,0.52c-0.223,0.198-0.389,0.408-0.5,0.631s-0.168,0.47-0.168,0.742c0,0.074,0.013,0.173,0.037,0.297
			c0.025,0.124,0.037,0.235,0.037,0.334c-0.099,0.594-0.271,1.188-0.52,1.781c-0.247,0.594-0.581,1.237-1.002,1.93
			c-0.197,0.148-0.334,0.278-0.408,0.39s-0.123,0.229-0.148,0.353c0,0.05,0.02,0.118,0.057,0.204
			c0.037,0.087,0.055,0.155,0.055,0.204c-0.123,0.322-0.271,0.674-0.445,1.058c-0.173,0.384-0.383,0.786-0.631,1.206
			c-0.247,0.05-0.408,0.093-0.482,0.13s-0.123,0.093-0.148,0.167c0.025,0.05,0.05,0.124,0.074,0.223
			c0.025,0.099,0.074,0.248,0.148,0.445c-0.123,0.47-0.334,1.033-0.631,1.688c-0.297,0.656-0.631,1.33-1.002,2.022l-0.408,0.891
			c-0.148,0.445-0.26,0.897-0.334,1.354c-0.074,0.458-0.111,0.909-0.111,1.354v0.557l-0.223,0.816l0.223,0.854
			c0,0.891,0.057,1.794,0.168,2.709c0.111,0.916,0.277,1.868,0.5,2.857c0,0.025-0.049,0.161-0.148,0.408
			c0,0.099,0.043,0.198,0.131,0.297c0.086,0.099,0.203,0.186,0.352,0.26l0.52,1.113c0.174,0.173,0.322,0.371,0.445,0.594
			c0.124,0.223,0.235,0.47,0.334,0.742c0.223,0.124,0.477,0.254,0.762,0.39c0.283,0.136,0.661,0.278,1.131,0.427
			c0.025,0,0.087,0.013,0.186,0.037c0.471,0.074,0.805,0.111,1.002,0.111c0.1,0,0.229-0.031,0.391-0.093
			C714.342,42.93,714.472,42.886,714.57,42.861z M694.494,43.232l0.557-0.928c0.569-0.569,1.119-1.175,1.652-1.818
			c0.531-0.643,1.069-1.348,1.613-2.115l0.52-0.223l0.445-0.854c0.569-0.717,1.219-1.694,1.949-2.932
			c0.729-1.237,1.242-2.053,1.539-2.449c0.074-1.113,0.143-1.936,0.205-2.468c0.061-0.532,0.154-1.021,0.277-1.466l-0.779,0.037
			l-0.297,0.705l-0.445,0.594c-0.223,0.248-0.525,0.575-0.908,0.983c-0.385,0.408-0.675,0.724-0.873,0.946l-0.371,0.297
			l-0.594,0.297l-0.074,0.52c-0.099,0.124-0.271,0.359-0.52,0.705c-0.965,1.262-1.855,2.4-2.672,3.414
			c-0.271,0.223-0.5,0.489-0.686,0.798c-0.186,0.31-0.316,0.625-0.391,0.946c-0.247,0.223-0.47,0.477-0.668,0.761
			c-0.197,0.285-0.346,0.575-0.445,0.872c-0.223,0.173-0.42,0.377-0.594,0.612c-0.173,0.235-0.334,0.526-0.482,0.872
			c-0.049,0.322-0.136,0.6-0.26,0.835c-0.123,0.235-0.309,0.452-0.557,0.649c-0.074,0.198-0.18,0.427-0.314,0.687
			c-0.137,0.26-0.316,0.575-0.539,0.946c-0.049,0.124-0.136,0.297-0.26,0.52c-0.297,0.569-0.433,1.052-0.408,1.447
			c0.124,0.087,0.242,0.152,0.354,0.195c0.111,0.043,0.191,0.065,0.24,0.065c0.148,0,0.316-0.089,0.502-0.269
			c0.186-0.179,0.401-0.448,0.648-0.807l0.631-0.445c0.198-0.223,0.445-0.532,0.742-0.928c0.471-0.668,0.866-1.002,1.188-1.002
			H694.494z"/>
		<path fill="#51564D" d="M718.875,45.607l-0.074-0.705l-0.965,0.705l-0.557,0.371l-0.742,0.594
			c-0.445,0.248-0.766,0.433-0.965,0.557c-0.197,0.124-0.383,0.248-0.557,0.371l-0.445,0.371l-0.779,0.408
			c-0.123,0.272-0.303,0.477-0.537,0.612c-0.235,0.136-0.613,0.204-1.133,0.204c-0.246-0.024-0.395-0.068-0.445-0.13
			c-0.049-0.062-0.098-0.241-0.148-0.538c0.051-0.346,0.137-0.6,0.26-0.761c0.125-0.161,0.334-0.315,0.631-0.464v-0.779
			c0.248-0.223,0.496-0.47,0.742-0.742c0.248-0.272,0.533-0.606,0.854-1.002l0.557-0.779l0.52-0.223
			c0.148-0.346,0.341-0.625,0.576-0.835c0.234-0.21,0.574-0.414,1.02-0.612l0.223-0.52l1.002-0.594l0.854-0.705
			c0.074-0.049,0.137-0.13,0.186-0.241c0.051-0.111,0.088-0.253,0.111-0.427v-0.297l0.371-0.705l-0.148-0.445l0.223-0.631
			c0.174-0.891,0.365-1.626,0.576-2.208c0.209-0.581,0.476-1.107,0.797-1.577l0.52-0.297l-0.148-0.445
			c0.495-0.965,1.126-1.898,1.893-2.802c0.768-0.903,1.955-2.072,3.562-3.507h0.408l0.297-0.334l0.371-0.074l0.223-0.52
			c0.668-0.544,1.305-0.934,1.912-1.169c0.605-0.235,1.268-0.353,1.984-0.353c0.272,0,0.482,0.006,0.631,0.019
			c0.148,0.013,0.285,0.031,0.408,0.056l0.334,0.148l1.521,0.482l0.52,0.668l0.223,0.074c0.148,0.396,0.26,0.742,0.334,1.039
			s0.111,0.507,0.111,0.631c0,0.148-0.006,0.272-0.018,0.371c-0.014,0.099-0.031,0.173-0.057,0.223l0.223,0.557l-0.074,0.816
			l-0.297,1.002l-0.52,0.742l-0.148,0.854c-0.197,0.347-0.439,0.693-0.723,1.039c-0.285,0.347-0.65,0.755-1.096,1.225l-0.26,0.482
			c-0.594,0.718-1.299,1.46-2.115,2.227c-0.816,0.767-1.855,1.646-3.117,2.635l-0.668,0.223l-0.223,0.445l-1.299,0.854l-0.557,0.668
			c-0.099,0.074-0.173,0.148-0.223,0.223c-0.049,0.074-0.074,0.148-0.074,0.223c0,0.248,0.043,0.514,0.131,0.798
			c0.086,0.285,0.229,0.637,0.426,1.058l0.371,0.445l0.223,0.742c0.619,0.47,1.213,0.816,1.781,1.039
			c0.569,0.223,1.139,0.334,1.707,0.334c0.347,0,0.718-0.062,1.113-0.186c0.396-0.124,0.916-0.358,1.559-0.705l0.52-0.148
			l1.299-0.854l1.002,0.074l0.223-0.594c0.074-0.074,0.377-0.346,0.91-0.816c0.531-0.47,1.008-0.891,1.428-1.262l0.631-0.297
			l0.445-0.668c0.322-0.223,0.656-0.414,1.002-0.575c0.347-0.161,0.718-0.303,1.113-0.427c0.198-0.321,0.439-0.581,0.725-0.779
			c0.283-0.198,0.637-0.346,1.057-0.445l0.594-0.594c0.198-0.074,0.391-0.13,0.576-0.167s0.314-0.056,0.389-0.056
			c0.297,0,0.502,0.043,0.613,0.13c0.111,0.087,0.166,0.241,0.166,0.464c0,0.148-0.037,0.315-0.111,0.501s-0.16,0.34-0.26,0.464
			l-0.186,0.482c-0.173,0.297-0.426,0.625-0.76,0.983c-0.334,0.359-0.786,0.798-1.355,1.317v0.223c0,0.297-0.074,0.501-0.223,0.612
			s-0.433,0.192-0.854,0.241c-0.321,0.668-1.026,1.423-2.115,2.264c-0.346,0.272-0.618,0.495-0.816,0.668l-0.631,0.52l-0.408,0.186
			c-0.173,0.148-0.365,0.322-0.574,0.52c-0.211,0.198-0.489,0.47-0.836,0.816l-0.445,0.557l-0.928,0.594
			c-0.816,0.718-1.725,1.305-2.727,1.763c-1.002,0.458-1.862,0.687-2.58,0.687h-0.371l-0.854-0.148l-0.371,0.223h-1.076
			c-0.915,0-1.676-0.093-2.281-0.278c-0.607-0.186-1.059-0.476-1.355-0.872l-0.557,0.074l-0.891-0.816l-0.445-0.854l-0.408-0.408
			c-0.247-0.321-0.451-0.637-0.611-0.946c-0.161-0.309-0.303-0.662-0.428-1.058L718.875,45.607z M728.932,34.178l0.594-0.445
			c0-0.198,0.105-0.495,0.316-0.891c0.209-0.396,0.314-0.804,0.314-1.225c-0.024-0.346-0.049-0.544-0.074-0.594
			c-0.024-0.049-0.111-0.086-0.26-0.111h-0.148l-0.594,0.371l-1.447,1.299l-1.373,1.373l-1.225,1.781
			c-0.148,0.272-0.271,0.551-0.371,0.835c-0.099,0.285-0.148,0.526-0.148,0.724c0,0.05,0.02,0.087,0.057,0.111
			c0.037,0.025,0.067,0.037,0.092,0.037c0.074,0,0.148-0.012,0.223-0.037c0.074-0.024,0.186-0.086,0.334-0.186
			c0.124-0.024,0.235-0.043,0.334-0.056c0.1-0.012,0.211-0.019,0.334-0.019c0.05,0,0.111-0.019,0.186-0.056s0.186-0.142,0.334-0.315
			l0.371-0.668l0.631-0.631L728.932,34.178z"/>
	</g>
	<g id="XMLID_4283_">
		<polygon id="XMLID_4285_" fill="#51564D" points="495.78,87.995 495.779,101.145 480.836,94.571 		"/>
		<polygon id="XMLID_4284_" fill="#51564D" points="714.596,291.417 714.596,278.268 729.538,284.841 		"/>
	</g>
	<g id="XMLID_4135_">
		<path id="XMLID_4136_" fill="#51564D" d="M443.546,284.039h5.201v2.593h-5.201V284.039z M453.95,284.039h5.203v2.593h-5.203
			V284.039z M464.354,284.039h5.204v2.593h-5.204V284.039z M474.759,284.039h5.204v2.593h-5.204V284.039z M485.167,284.039h5.203
			v2.593h-5.203V284.039z M495.57,284.039h5.202v2.593h-5.202V284.039z M505.976,284.039h5.202v2.593h-5.202V284.039z
			 M516.381,284.039h5.204v2.593h-5.204V284.039z M526.786,284.039h5.204v2.593h-5.204V284.039z M537.192,284.039h5.202v2.593
			h-5.202V284.039z M547.596,284.039h5.203v2.593h-5.203V284.039z M558.001,284.039h5.203v2.593h-5.203V284.039z M568.408,284.039
			h5.202v2.593h-5.202V284.039z M578.814,284.039h5.201v2.593h-5.201V284.039z M589.217,284.039h5.201v2.593h-5.201V284.039z
			 M599.623,284.039h5.201v2.593h-5.201V284.039z M610.028,284.039h5.203v2.593h-5.203V284.039z M620.432,284.039h5.205v2.593
			h-5.205V284.039z M630.839,284.039h5.201v2.593h-5.201V284.039z M641.243,284.039h5.202v2.593h-5.202V284.039z M651.647,284.039
			h5.203v2.593h-5.203V284.039z M662.055,284.039h5.201v2.593h-5.201V284.039z M672.46,284.039h5.202v2.593h-5.202V284.039z
			 M682.863,284.039h5.204v2.593h-5.204V284.039z M693.27,284.039h5.201v2.593h-5.201V284.039z M703.674,284.039h5.203v2.593h-5.203
			V284.039z M714.079,284.039h5.203v2.593h-5.203V284.039z M724.484,284.039h5.203v2.593h-5.203V284.039z M734.891,284.039h5.201
			v2.593h-5.201V284.039z M745.293,284.039h5.203v2.593h-5.203V284.039z M755.7,284.039h5.201v2.593H755.7V284.039z
			 M766.106,284.039h1.937c1.035,0,2.077-0.067,3.091-0.197l0.329,2.574c-1.123,0.143-2.274,0.216-3.42,0.216h-1.937V284.039z
			 M432.881,284.917l0.914-2.425c1.538,0.577,3.141,1,4.763,1.253l-0.4,2.563C436.36,286.026,434.584,285.558,432.881,284.917z
			 M775.932,282.726c1.549-0.533,3.054-1.232,4.476-2.071l1.317,2.233c-1.569,0.93-3.234,1.696-4.95,2.288L775.932,282.726z
			 M423.699,279.14l1.79-1.877c1.192,1.141,2.502,2.161,3.891,3.037l-1.382,2.192C426.463,281.525,425.016,280.397,423.699,279.14z
			 M784.382,277.73c1.223-1.104,2.337-2.332,3.313-3.655l2.088,1.543c-1.082,1.46-2.313,2.816-3.664,4.039L784.382,277.73z
			 M417.494,270.237l2.381-1.027c0.649,1.503,1.456,2.952,2.4,4.309L420.148,275C419.103,273.502,418.211,271.899,417.494,270.237z
			 M790.216,269.835c0.695-1.494,1.238-3.061,1.613-4.654l2.524,0.594c-0.416,1.766-1.016,3.5-1.785,5.154L790.216,269.835z
			 M415.304,259.604v-0.105l2.593,0.105c0,1.648,0.167,3.298,0.498,4.907l-2.54,0.521
			C415.489,263.254,415.304,261.428,415.304,259.604z M792.465,260.295c0.005-0.232,0.009-0.463,0.011-0.69v-4.479h2.594v4.485
			c-0.001,0.253-0.005,0.502-0.012,0.751L792.465,260.295z M415.304,249.094h2.593v5.204h-2.593V249.094z M792.476,244.721h2.594
			v5.204h-2.594V244.721z M415.304,238.69h2.593v5.201h-2.593V238.69z M792.476,234.315h2.594v5.204h-2.594V234.315z
			 M415.304,228.284h2.593v5.202h-2.593V228.284z M792.476,223.911h2.594v5.202h-2.594V223.911z M415.304,217.88h2.593v5.201h-2.593
			V217.88z M792.476,213.505h2.594v5.204h-2.594V213.505z M415.304,207.475h2.593v5.201h-2.593V207.475z M792.476,203.102h2.594
			v5.202h-2.594V203.102z M415.304,197.068h2.593v5.202h-2.593V197.068z M792.476,192.695h2.594v5.202h-2.594V192.695z
			 M415.304,186.663h2.593v5.203h-2.593V186.663z M792.476,182.29h2.594v5.202h-2.594V182.29z M415.304,176.258h2.593v5.204h-2.593
			V176.258z M792.476,171.886h2.594v5.201h-2.594V171.886z M415.304,165.853h2.593v5.203h-2.593V165.853z M792.476,161.479h2.594
			v5.202h-2.594V161.479z M415.304,155.446h2.593v5.205h-2.593V155.446z M792.476,151.074h2.594v5.204h-2.594V151.074z
			 M415.304,145.042h2.593v5.203h-2.593V145.042z M792.476,140.669h2.594v5.203h-2.594V140.669z M415.304,134.639h2.593v5.202
			h-2.593V134.639z M792.476,130.263h2.594v5.205h-2.594V130.263z M415.304,124.232h2.593v5.203h-2.593V124.232z M792.476,119.859
			h2.594v5.201h-2.594V119.859z M415.316,118.99c0.057-1.822,0.296-3.643,0.716-5.407l2.523,0.6
			c-0.378,1.595-0.596,3.238-0.645,4.886L415.316,118.99z M790.517,110.247l2.383-1.022c0.718,1.671,1.266,3.425,1.629,5.21
			l-2.54,0.519C791.659,113.34,791.164,111.758,790.517,110.247z M417.829,108.431c0.77-1.644,1.711-3.217,2.797-4.68l2.08,1.546
			c-0.98,1.322-1.831,2.748-2.527,4.233L417.829,108.431z M784.92,102.182l1.797-1.871c1.313,1.258,2.505,2.655,3.54,4.145
			l-2.131,1.479C787.188,104.584,786.111,103.322,784.92,102.182z M424.295,99.717c1.353-1.217,2.833-2.301,4.399-3.222l1.314,2.233
			c-1.417,0.835-2.754,1.818-3.98,2.92L424.295,99.717z M776.626,96.939l0.917-2.426c1.696,0.641,3.335,1.459,4.879,2.436
			l-1.386,2.19C779.641,98.26,778.156,97.519,776.626,96.939z M433.651,94.218c1.724-0.588,3.51-1,5.315-1.228l0.322,2.573
			c-1.629,0.206-3.244,0.578-4.8,1.108L433.651,94.218z M768.043,95.374h-1.162V92.78h1.162c1.417,0,2.84,0.112,4.226,0.333
			l-0.406,2.56C770.611,95.476,769.323,95.375,768.043,95.374z M444.321,92.78h5.205v2.593h-5.205V92.78z M454.727,92.78h5.202
			v2.593h-5.202V92.78z M465.13,92.78h5.204v2.593h-5.204V92.78z M475.538,92.78h5.202v2.593h-5.202V92.78z M485.943,92.78h5.203
			v2.593h-5.203V92.78z M496.349,92.78h5.202v2.593h-5.202V92.78z M506.751,92.78h5.204v2.593h-5.204V92.78z M517.157,92.78h5.203
			v2.593h-5.203V92.78z M527.562,92.78h5.203v2.593h-5.203V92.78z M537.968,92.78h5.204v2.593h-5.204V92.78z M548.374,92.78h5.202
			v2.593h-5.202V92.78z M558.779,92.78h5.201v2.593h-5.201V92.78z M569.184,92.78h5.201v2.593h-5.201V92.78z M579.59,92.78h5.201
			v2.593h-5.201V92.78z M589.995,92.78h5.202v2.593h-5.202V92.78z M600.398,92.78h5.204v2.593h-5.204V92.78z M610.802,92.78h5.205
			v2.593h-5.205V92.78z M621.209,92.78h5.203v2.593h-5.203V92.78z M631.613,92.78h5.203v2.593h-5.203V92.78z M642.02,92.78h5.201
			v2.593h-5.201V92.78z M652.425,92.78h5.201v2.593h-5.201V92.78z M662.83,92.78h5.202v2.593h-5.202V92.78z M673.235,92.78h5.201
			v2.593h-5.201V92.78z M683.641,92.78h5.202v2.593h-5.202V92.78z M694.044,92.78h5.204v2.593h-5.204V92.78z M704.449,92.78h5.204
			v2.593h-5.204V92.78z M714.854,92.78h5.204v2.593h-5.204V92.78z M725.26,92.78h5.204v2.593h-5.204V92.78z M735.666,92.78h5.201
			v2.593h-5.201V92.78z M746.071,92.78h5.201v2.593h-5.201V92.78z M756.477,92.78h5.201v2.593h-5.201V92.78z"/>
	</g>
	<rect id="XMLID_5106_" y="92.78" fill="#51564D" width="402.077" height="193.852"/>
	<g id="XMLID_5087_">
		<path id="XMLID_5088_" fill="#F7EBCB" d="M334.948,226.267c-2.43,2.432-2.43,6.384,0,8.812c1.178,1.179,2.74,1.824,4.406,1.824
			s3.229-0.646,4.407-1.824c2.431-2.428,2.431-6.38,0-8.812c-1.178-1.176-2.741-1.826-4.407-1.826S336.126,225.091,334.948,226.267z
			 M348.605,212.606c-2.427,2.431-2.427,6.385,0,8.815c1.177,1.178,2.744,1.824,4.408,1.824c1.665,0,3.231-0.646,4.406-1.824
			c2.429-2.431,2.429-6.385,0-8.815c-1.175-1.176-2.741-1.825-4.406-1.825C351.349,210.781,349.783,211.431,348.605,212.606z
			 M362.264,198.95c-2.43,2.43-2.43,6.385,0,8.812c1.179,1.179,2.743,1.824,4.405,1.824c1.666,0,3.232-0.646,4.407-1.824
			c1.176-1.176,1.826-2.74,1.826-4.404s-0.649-3.23-1.826-4.408c-1.175-1.176-2.741-1.826-4.407-1.826
			C365.007,197.124,363.443,197.774,362.264,198.95z M375.921,185.29c-1.176,1.182-1.825,2.746-1.823,4.416
			c-0.002,1.669,0.647,3.235,1.823,4.414c1.178,1.178,2.744,1.826,4.407,1.826c1.666,0,3.232-0.648,4.408-1.826
			c1.177-1.179,1.825-2.745,1.823-4.415c0.002-1.669-0.646-3.233-1.823-4.415c-1.176-1.176-2.742-1.824-4.408-1.824
			C378.666,183.466,377.099,184.114,375.921,185.29z M289.076,189.705c0,3.438,2.795,6.231,6.23,6.231
			c3.437,0,6.231-2.794,6.231-6.231c0-3.435-2.794-6.229-6.231-6.232C291.871,183.473,289.076,186.268,289.076,189.705z
			 M308.392,189.705c0,3.438,2.795,6.231,6.231,6.231c3.437,0,6.231-2.794,6.231-6.231s-2.794-6.232-6.231-6.232
			C311.187,183.473,308.392,186.268,308.392,189.705z M327.706,189.705c0,3.438,2.797,6.231,6.23,6.231
			c1.666,0,3.231-0.646,4.407-1.824c1.178-1.176,1.827-2.741,1.827-4.407c0-3.435-2.797-6.229-6.234-6.229
			S327.706,186.271,327.706,189.705z M347.021,189.705c0.002,3.438,2.797,6.231,6.233,6.231c3.436,0,6.231-2.794,6.231-6.231
			s-2.795-6.232-6.231-6.232C349.816,183.473,347.021,186.268,347.021,189.705z M362.264,171.648c-2.43,2.433-2.43,6.384,0,8.812
			c1.179,1.18,2.743,1.824,4.405,1.824c1.668,0,3.232-0.645,4.407-1.824c1.176-1.176,1.826-2.74,1.826-4.404
			s-0.649-3.23-1.826-4.407c-1.175-1.177-2.739-1.825-4.407-1.825C365.007,169.823,363.443,170.472,362.264,171.648z
			 M348.605,157.987c-2.427,2.434-2.427,6.387,0,8.816c1.177,1.178,2.744,1.824,4.408,1.824c1.665,0,3.231-0.646,4.406-1.824
			c2.429-2.43,2.429-6.383,0-8.816c-1.175-1.174-2.741-1.823-4.406-1.823C351.349,156.164,349.783,156.813,348.605,157.987z
			 M334.948,144.332c-2.43,2.433-2.43,6.385,0,8.812c1.178,1.178,2.74,1.825,4.406,1.825c1.668,0,3.229-0.647,4.407-1.825
			c2.431-2.428,2.431-6.38,0-8.812c-1.178-1.176-2.739-1.826-4.407-1.826C337.688,142.506,336.126,143.156,334.948,144.332z"/>
	</g>
	<g id="XMLID_4190_">
		<rect id="XMLID_4247_" x="808.501" y="92.78" fill="#51564D" width="412.081" height="193.852"/>
	</g>
	<g>
		<g id="XMLID_5103_">
			<path id="XMLID_5104_" fill="#F78B36" d="M179.129,129.095c-11.031,0-20.005,8.972-20.005,20.001v81.217
				c0,11.029,8.974,20.005,20.005,20.005h81.215c11.031,0,20.006-8.976,20.006-20.005v-81.217c0-11.03-8.975-20.001-20.006-20.001
				H179.129z"/>
		</g>
		<path id="XMLID_5100_" fill="#F7EBCB" d="M156.167,149.097v81.217c0,12.66,10.3,22.961,22.962,22.961h81.215
			c12.661,0,22.962-10.301,22.962-22.961v-81.217c0-12.658-10.301-22.958-22.962-22.958h-81.215
			C166.468,126.138,156.167,136.438,156.167,149.097z M159.715,230.313v-81.217c0-10.701,8.708-19.41,19.414-19.41h81.215
			c10.705,0,19.414,8.708,19.414,19.41v81.217c0,10.704-8.709,19.412-19.414,19.412h-81.215
			C168.424,249.726,159.715,241.018,159.715,230.313z"/>
		<g id="XMLID_4414_">
			<path id="XMLID_4472_" fill="#F7EBCB" d="M266.556,179.927h-6.29c-0.604-2.693-1.672-5.207-3.109-7.465l4.464-4.459
				c0.65-0.652,0.65-1.707,0-2.357l-5.065-5.062c-0.65-0.652-1.707-0.652-2.359,0l-4.477,4.475c-2.257-1.414-4.766-2.465-7.453-3.06
				v-6.354c0-0.923-0.741-1.668-1.665-1.668h-7.163c-0.921,0-1.663,0.745-1.663,1.668v6.393c-2.661,0.611-5.148,1.671-7.386,3.092
				l-4.542-4.545c-0.652-0.652-1.71-0.652-2.362,0l-5.058,5.062c-0.653,0.65-0.653,1.705,0,2.357l4.571,4.564
				c-1.404,2.238-2.446,4.715-3.038,7.359h-6.47c-0.926,0-1.672,0.748-1.672,1.67v7.159c0,0.918,0.746,1.669,1.672,1.669h6.47
				c0.599,2.646,1.633,5.125,3.038,7.352l-4.571,4.571c-0.651,0.652-0.653,1.71,0,2.359l5.058,5.062c0.657,0.652,1.71,0.652,2.362,0
				l4.549-4.551c2.235,1.42,4.718,2.475,7.379,3.088v6.402c0,0.922,0.741,1.671,1.663,1.671h7.163c0.923,0,1.665-0.749,1.665-1.671
				v-6.363c2.68-0.598,5.189-1.645,7.449-3.057l4.48,4.48c0.652,0.652,1.707,0.652,2.359,0l5.062-5.062
				c0.654-0.649,0.654-1.707,0.003-2.359l-4.464-4.458c1.437-2.262,2.495-4.775,3.106-7.465h6.292c0.924,0,1.672-0.751,1.672-1.669
				v-7.159C268.228,180.675,267.48,179.927,266.556,179.927z M237.115,199.144c-7.719,0-13.976-6.254-13.976-13.973
				c0-7.717,6.257-13.973,13.976-13.973c7.718,0,13.97,6.256,13.97,13.973C251.085,192.89,244.833,199.144,237.115,199.144z"/>
			<path id="XMLID_4411_" fill="#F7EBCB" d="M212.539,208.191l-4.044-1.504c0.248-1.815,0.19-3.681-0.191-5.528l3.914-1.791
				c0.575-0.262,0.825-0.941,0.565-1.514l-2.039-4.454c-0.262-0.573-0.94-0.827-1.514-0.563l-3.915,1.789
				c-1.139-1.504-2.518-2.762-4.056-3.76l1.506-4.043c0.221-0.592-0.078-1.25-0.672-1.467l-4.59-1.71
				c-0.591-0.224-1.249,0.079-1.467,0.673l-1.511,4.057c-1.807-0.238-3.669-0.178-5.509,0.217l-1.808-3.953
				c-0.264-0.576-0.936-0.826-1.507-0.564l-4.461,2.037c-0.571,0.262-0.822,0.938-0.561,1.512l1.821,3.979
				c-1.478,1.139-2.727,2.504-3.716,4.022l-4.12-1.535c-0.591-0.219-1.249,0.083-1.471,0.675l-1.701,4.59
				c-0.224,0.59,0.076,1.246,0.667,1.467l4.145,1.537c-0.239,1.794-0.181,3.629,0.204,5.443l-4.027,1.84
				c-0.576,0.266-0.83,0.944-0.564,1.516l2.034,4.454c0.264,0.571,0.941,0.827,1.517,0.565l4.026-1.844
				c1.125,1.476,2.473,2.726,3.981,3.711l-1.542,4.146c-0.221,0.59,0.08,1.249,0.669,1.469l4.586,1.705
				c0.595,0.223,1.254-0.078,1.473-0.667l1.535-4.129c1.791,0.248,3.639,0.197,5.466-0.178l1.825,3.983
				c0.262,0.575,0.937,0.829,1.509,0.566l4.458-2.036c0.571-0.264,0.82-0.94,0.558-1.518l-1.809-3.957
				c1.498-1.135,2.759-2.498,3.765-4.019l4.062,1.513c0.592,0.219,1.246-0.081,1.469-0.675l1.707-4.585
				C213.432,209.069,213.13,208.41,212.539,208.191z M196.379,213.171c-4.801,2.197-10.47,0.085-12.669-4.717
				c-2.196-4.804-0.084-10.476,4.718-12.67c4.803-2.197,10.472-0.085,12.667,4.719C203.294,205.305,201.182,210.974,196.379,213.171
				z"/>
		</g>
	</g>
</g>
</svg>
