<?xml version="1.0" encoding="utf-8"?>
<!-- Generator: Adobe Illustrator 19.0.0, SVG Export Plug-In . SVG Version: 6.00 Build 0)  -->
<svg version="1.1" id="Capa_1" xmlns="http://www.w3.org/2000/svg" xmlns:xlink="http://www.w3.org/1999/xlink" x="0px" y="0px"
	 viewBox="0 0 334.4 20.5" style="enable-background:new 0 0 334.4 20.5;" xml:space="preserve">
<style type="text/css">
	.st0{fill:#333333;}
	.st1{fill:#333333;stroke:#333333;stroke-miterlimit:10;}
	.st2{fill:#029ECF;}
</style>
<g id="XMLID_1_">
	<g id="XMLID_7575_">
		<g id="XMLID_7577_">
			<path id="XMLID_7578_" class="st0" d="M324.8,4.9c-2.9,0-5.3,2.4-5.3,5.3c0,2.9,2.4,5.3,5.3,5.3c2.9,0,5.3-2.4,5.3-5.3
				C330.1,7.3,327.7,5,324.8,4.9z"/>
		</g>
		<g id="XMLID_7579_">
			<path id="XMLID_7580_" class="st0" d="M324.8,0.7c5.3,0,9.6,4.3,9.6,9.6c0,5.3-4.3,9.6-9.6,9.6c-5.3,0-9.6-4.3-9.6-9.6
				C315.2,4.9,319.5,0.7,324.8,0.7z M324.8,2c-4.6,0-8.3,3.7-8.3,8.3c0,4.6,3.7,8.3,8.3,8.3c4.6,0,8.3-3.7,8.3-8.3
				C333.1,5.7,329.4,2,324.8,2z"/>
		</g>
	</g>
	<line id="XMLID_9844_" class="st1" x1="324.8" y1="10.2" x2="10.2" y2="10.2"/>
	
		<rect id="XMLID_9845_" x="3" y="3" transform="matrix(-0.7071 0.7071 -0.7071 -0.7071 24.702 10.2319)" class="st2" width="14.5" height="14.5"/>
</g>
</svg>
