<?xml version="1.0" encoding="utf-8"?>
<!-- Generator: Adobe Illustrator 19.0.0, SVG Export Plug-In . SVG Version: 6.00 Build 0)  -->
<svg version="1.1" id="Capa_1" xmlns="http://www.w3.org/2000/svg" xmlns:xlink="http://www.w3.org/1999/xlink" x="0px" y="0px"
	 viewBox="0 0 641.3 126.7" style="enable-background:new 0 0 641.3 126.7;" xml:space="preserve">
<style type="text/css">
	.st0{fill:#6B6B6B;}
	.st1{fill:none;stroke:#6B6B6B;stroke-width:2;stroke-miterlimit:10;}
	.st2{fill:#A0BE00;}
	.st3{fill:#FF7F00;}
	.st4{fill:#D74434;}
	.st5{fill:#029ECF;}
	.st6{fill:#CECECE;}
</style>
<g id="XMLID_7551_">
	<g id="XMLID_644_">
		<g id="XMLID_647_">
			<path id="XMLID_648_" class="st0" d="M34.4,65.6c0-2.8-2.2-4.9-4.9-4.9c-2.7,0-4.9,2.2-4.9,4.9c0,2.7,2.2,4.9,4.9,4.9
				C32.2,70.5,34.4,68.3,34.4,65.6z"/>
		</g>
	</g>
	<g id="XMLID_7706_">
		<g id="XMLID_7846_">
			<path id="XMLID_7847_" class="st0" d="M306.5,65.6c0-2.8-2.2-4.9-4.9-4.9c-2.7,0-4.9,2.2-4.9,4.9c0,2.7,2.2,4.9,4.9,4.9
				C304.3,70.5,306.5,68.3,306.5,65.6z"/>
		</g>
	</g>
	<g id="XMLID_7856_">
		<g id="XMLID_7857_">
			<path id="XMLID_7858_" class="st0" d="M384.7,65.6c0-2.8-2.2-4.9-4.9-4.9c-2.7,0-4.9,2.2-4.9,4.9c0,2.7,2.2,4.9,4.9,4.9
				C382.5,70.5,384.7,68.3,384.7,65.6z"/>
		</g>
	</g>
	<g id="XMLID_7859_">
		<g id="XMLID_7860_">
			<path id="XMLID_7861_" class="st0" d="M463,65.6c0-2.8-2.2-4.9-4.9-4.9c-2.7,0-4.9,2.2-4.9,4.9c0,2.7,2.2,4.9,4.9,4.9
				C460.8,70.5,463,68.3,463,65.6z"/>
		</g>
	</g>
	<g id="XMLID_10576_">
		<g id="XMLID_10577_">
			<path id="XMLID_10578_" class="st0" d="M543.9,65.6c0-2.8-2.2-4.9-4.9-4.9c-2.7,0-4.9,2.2-4.9,4.9c0,2.7,2.2,4.9,4.9,4.9
				C541.7,70.5,543.9,68.3,543.9,65.6z"/>
		</g>
	</g>
	<g id="XMLID_7848_">
		<g id="XMLID_7849_">
			<path id="XMLID_7850_" class="st0" d="M227.4,65.6c0-2.8-2.2-4.9-4.9-4.9c-2.7,0-4.9,2.2-4.9,4.9c0,2.7,2.2,4.9,4.9,4.9
				C225.2,70.5,227.4,68.3,227.4,65.6z"/>
		</g>
	</g>
	<g id="XMLID_7851_">
		<g id="XMLID_7853_">
			<path id="XMLID_7855_" class="st0" d="M150.2,65.6c0-2.8-2.2-4.9-4.9-4.9c-2.7,0-4.9,2.2-4.9,4.9c0,2.7,2.2,4.9,4.9,4.9
				C148,70.5,150.2,68.3,150.2,65.6z"/>
		</g>
	</g>
	<g id="XMLID_619_">
		<g id="XMLID_640_">
			<g id="XMLID_641_">
				<path id="XMLID_643_" class="st0" d="M633.8,65.6c0-2.7-2.2-4.9-4.9-4.9c-2.7,0-4.9,2.2-4.9,4.9c0,2.7,2.2,4.9,4.9,4.9
					C631.6,70.5,633.8,68.3,633.8,65.6z"/>
			</g>
		</g>
		<g id="XMLID_244_">
			<path id="XMLID_565_" class="st0" d="M628.9,53.2c6.9,0,12.4,5.6,12.4,12.4c0,6.9-5.6,12.5-12.4,12.4c-6.9,0-12.5-5.6-12.4-12.4
				C616.4,58.8,621.9,53.2,628.9,53.2z M628.8,54.9c-5.9,0-10.8,4.8-10.8,10.8c0,6,4.8,10.8,10.8,10.8c6,0,10.8-4.9,10.8-10.8
				C639.7,59.7,634.8,54.9,628.8,54.9z"/>
		</g>
	</g>
	<polyline id="XMLID_626_" class="st1" points="29.5,126.7 29.5,65.6 628.9,65.6 628.9,126.7 	"/>
	<circle id="XMLID_7713_" class="st2" cx="546.9" cy="29.6" r="5.6"/>
	<circle id="XMLID_7743_" class="st2" cx="107.7" cy="11.7" r="4"/>
	<circle id="XMLID_7710_" class="st3" cx="457.2" cy="115.6" r="5.6"/>
	<circle id="XMLID_7707_" class="st2" cx="552.5" cy="107.4" r="5.6"/>
	<circle id="XMLID_7704_" class="st2" cx="214.9" cy="90.5" r="3.7"/>
	<circle id="XMLID_7701_" class="st4" cx="234" cy="19.4" r="3.7"/>
	<circle id="XMLID_7698_" class="st5" cx="10.5" cy="115.8" r="3.7"/>
	<circle id="XMLID_7695_" class="st3" cx="47.3" cy="46.7" r="3.7"/>
	<circle id="XMLID_7106_" class="st3" cx="482.6" cy="26" r="3.7"/>
	<circle id="XMLID_7810_" class="st3" cx="380.6" cy="112.8" r="3.7"/>
	<circle id="XMLID_7692_" class="st5" cx="248.8" cy="115.8" r="3.7"/>
	<g id="XMLID_7749_">
		<g id="XMLID_7750_">
			<g id="XMLID_7755_">
				<path id="XMLID_7756_" class="st6" d="M27.5,18.5c-2.3-4.7-7.2-7.9-12.7-7.9c-7.3,0-13.3,5.5-14.1,12.5h3.5
					c0.8-5.1,5.3-9,10.6-9c4.6,0,8.6,2.9,10.1,7l-2,2h2.5h3.5h0.7v-6.7L27.5,18.5z"/>
			</g>
			<g id="XMLID_7752_">
				<path id="XMLID_7754_" class="st6" d="M14.7,35.6c-4.6,0-8.6-2.9-10.1-7l2-2H4.2H0.6l0,0H0v6.7l2-2c2.3,4.7,7.2,7.9,12.7,7.9
					c7.3,0,13.3-5.5,14.1-12.5h-3.5C24.5,31.7,20.1,35.6,14.7,35.6z"/>
			</g>
		</g>
	</g>
	<g id="XMLID_7378_">
		<g id="XMLID_7745_">
			<path id="XMLID_7746_" class="st6" d="M75,106.3v-4.8h-2.2c-0.2-0.7-0.5-1.4-0.9-2.1l1.6-1.6l-3.4-3.4l-1.6,1.6
				c-0.7-0.4-1.4-0.7-2.1-0.9v-2.2h-4.8V95c-0.7,0.2-1.4,0.5-2.1,0.9l-1.6-1.6l-3.4,3.4l1.6,1.6c-0.4,0.7-0.7,1.4-0.9,2.1H53v4.8
				h2.2c0.2,0.7,0.5,1.4,0.9,2.1l-1.6,1.6l3.4,3.4l1.6-1.6c0.7,0.4,1.4,0.7,2.1,0.9v2.2h4.8v-2.2c0.7-0.2,1.4-0.5,2.1-0.9l1.6,1.6
				l3.4-3.4l-1.6-1.6c0.4-0.7,0.7-1.4,0.9-2.1H75z M64,108.2c-2.4,0-4.3-1.9-4.3-4.3c0-2.4,1.9-4.3,4.3-4.3c2.4,0,4.3,1.9,4.3,4.3
				C68.3,106.2,66.4,108.2,64,108.2z"/>
		</g>
		<g id="XMLID_7379_">
			<path id="XMLID_7380_" class="st6" d="M56.1,94.1v-1.4c0.5-0.1,0.9-0.3,1.4-0.6l1,1l2.2-2.2l-1-1c0.2-0.4,0.4-0.9,0.6-1.4h1.4
				v-3.2h-1.4c-0.1-0.5-0.3-0.9-0.6-1.4l1-1l-2.2-2.2l-1,1c-0.4-0.2-0.9-0.4-1.4-0.6v-1.4h-3.2v1.4c-0.5,0.1-0.9,0.3-1.4,0.6l-1-1
				l-2.2,2.2l1,1c-0.2,0.4-0.4,0.9-0.6,1.4h-1.4v3.2h1.4c0.1,0.5,0.3,0.9,0.6,1.4l-1,1l2.2,2.2l1-1c0.4,0.2,0.9,0.4,1.4,0.6v1.4
				H56.1z M51.7,86.8c0-1.6,1.3-2.8,2.8-2.8s2.8,1.3,2.8,2.8c0,1.6-1.3,2.8-2.8,2.8S51.7,88.4,51.7,86.8z"/>
		</g>
	</g>
	<g id="XMLID_7376_">
		<path id="XMLID_7377_" class="st6" d="M381.7,9.8c0.1-0.4,0.1-0.9,0.1-1.3c0-4.7-3.8-8.5-8.5-8.5c-3.9,0-7.2,2.7-8.2,6.3
			c-1.2-0.8-2.6-1.3-4.1-1.3c-4,0-7.2,3.2-7.2,7.2c0,0,0,0,0,0c-3.1,0.3-5.5,2.8-5.5,6c0,3.3,2.7,6,6,6c1.3,0,6.4,0,11.8,0v-2.9
			v-2.6h-1.9l4.3-7.5l4.3,7.5h-1.9v2v3.6c4.7,0,9,0,10.6,0c4,0,7.2-3.2,7.2-7.2C388.6,13.1,385.5,9.9,381.7,9.8z"/>
	</g>
</g>
</svg>
