<?xml version="1.0" encoding="utf-8"?>
<!-- Generator: Adobe Illustrator 19.0.0, SVG Export Plug-In . SVG Version: 6.00 Build 0)  -->
<svg version="1.1" id="Capa_1" xmlns="http://www.w3.org/2000/svg" xmlns:xlink="http://www.w3.org/1999/xlink" x="0px" y="0px"
	 viewBox="0 0 246 58.2" style="enable-background:new 0 0 246 58.2;" xml:space="preserve">
<style type="text/css">
	.st0{fill-rule:evenodd;clip-rule:evenodd;fill:#A8A8A8;}
	.st1{fill-rule:evenodd;clip-rule:evenodd;fill:#EFEFEF;}
	.st2{opacity:0.5;fill:#2C6882;}
	.st3{fill-rule:evenodd;clip-rule:evenodd;fill:#B1D9E8;}
	.st4{fill:#3C92CA;}
	.st5{clip-path:url(#XMLID_63_);}
</style>
<g id="XMLID_23706_">
	<g id="XMLID_25874_">
		<g id="XMLID_24_">
			<polygon id="XMLID_25_" class="st0" points="232,58.2 246,40.4 235.6,20.3 232,20.3 			"/>
		</g>
	</g>
	<rect id="XMLID_25871_" x="0" y="0.1" class="st1" width="246" height="40.4"/>
	<polygon id="XMLID_25868_" class="st2" points="232,47.6 0,40.4 232,40.4 	"/>
	<rect id="XMLID_25867_" x="2.6" y="2.6" class="st3" width="240.8" height="35.3"/>
	<g id="XMLID_4157_">
		<g id="XMLID_223_">
			<path id="XMLID_251_" d="M46.5,28V15.9H49V28H46.5z"/>
			<path id="XMLID_249_" d="M59.3,28H57v-4.5c0-1,0-1.6-0.1-1.8s-0.3-0.5-0.5-0.7c-0.2-0.2-0.5-0.2-0.8-0.2c-0.4,0-0.8,0.1-1.1,0.3
				c-0.3,0.2-0.5,0.5-0.7,0.9c-0.1,0.4-0.2,1-0.2,2v4h-2.3v-8.8h2.2v1.3c0.8-1,1.7-1.5,2.9-1.5c0.5,0,1,0.1,1.4,0.3s0.7,0.4,1,0.7
				c0.2,0.3,0.4,0.6,0.5,1c0.1,0.4,0.1,0.9,0.1,1.6V28z"/>
			<path id="XMLID_247_" d="M65.7,19.2v1.9h-1.6v3.6c0,0.7,0,1.1,0,1.3c0,0.1,0.1,0.2,0.2,0.3c0.1,0.1,0.2,0.1,0.4,0.1
				c0.2,0,0.5-0.1,0.9-0.2l0.2,1.8c-0.5,0.2-1.2,0.3-1.8,0.3c-0.4,0-0.8-0.1-1.1-0.2c-0.3-0.1-0.6-0.3-0.7-0.5
				c-0.2-0.2-0.3-0.5-0.3-0.9c0-0.3-0.1-0.8-0.1-1.6v-3.8h-1.1v-1.9h1.1v-1.8l2.3-1.4v3.1H65.7z"/>
			<path id="XMLID_245_" d="M69.6,28h-2.3v-8.8h2.2v1.3c0.4-0.6,0.7-1,1-1.2c0.3-0.2,0.6-0.3,1-0.3c0.5,0,1,0.1,1.5,0.4l-0.7,2
				c-0.4-0.3-0.8-0.4-1.1-0.4c-0.3,0-0.6,0.1-0.8,0.3s-0.4,0.5-0.5,1c-0.1,0.5-0.2,1.5-0.2,3V28z"/>
			<path id="XMLID_242_" d="M73.4,23.5c0-0.8,0.2-1.5,0.6-2.2c0.4-0.7,0.9-1.3,1.6-1.7c0.7-0.4,1.5-0.6,2.3-0.6
				c1.3,0,2.4,0.4,3.3,1.3s1.3,2,1.3,3.3c0,1.3-0.4,2.4-1.3,3.3c-0.9,0.9-1.9,1.3-3.2,1.3c-0.8,0-1.6-0.2-2.3-0.5
				c-0.7-0.4-1.3-0.9-1.7-1.6C73.6,25.4,73.4,24.5,73.4,23.5z M75.8,23.6c0,0.9,0.2,1.5,0.6,2s0.9,0.7,1.5,0.7s1.1-0.2,1.5-0.7
				c0.4-0.5,0.6-1.1,0.6-2c0-0.9-0.2-1.5-0.6-2c-0.4-0.5-0.9-0.7-1.5-0.7s-1.1,0.2-1.5,0.7S75.8,22.7,75.8,23.6z"/>
			<path id="XMLID_239_" d="M92.4,28h-2.2v-1.3c-0.4,0.5-0.8,0.9-1.3,1.1c-0.5,0.2-1,0.4-1.5,0.4c-1,0-1.9-0.4-2.6-1.2
				c-0.7-0.8-1.1-2-1.1-3.4c0-1.5,0.4-2.6,1.1-3.4s1.6-1.2,2.7-1.2c1,0,1.8,0.4,2.6,1.2v-4.4h2.3V28z M86.2,23.4
				c0,0.9,0.1,1.6,0.4,2c0.4,0.6,0.9,0.9,1.6,0.9c0.5,0,1-0.2,1.4-0.7c0.4-0.5,0.6-1.1,0.6-2c0-1-0.2-1.7-0.5-2.2s-0.8-0.7-1.4-0.7
				c-0.6,0-1,0.2-1.4,0.7C86.4,21.9,86.2,22.6,86.2,23.4z"/>
			<path id="XMLID_237_" d="M100.5,28v-1.3c-0.3,0.5-0.7,0.8-1.3,1.1c-0.5,0.3-1.1,0.4-1.7,0.4c-0.6,0-1.1-0.1-1.6-0.4
				c-0.5-0.3-0.8-0.6-1-1.1c-0.2-0.5-0.3-1.1-0.3-2v-5.6H97v4.1c0,1.2,0,2,0.1,2.3c0.1,0.3,0.2,0.5,0.5,0.7s0.5,0.2,0.9,0.2
				c0.4,0,0.8-0.1,1.1-0.3s0.5-0.5,0.6-0.8c0.1-0.3,0.2-1.1,0.2-2.4v-3.7h2.3V28H100.5z"/>
			<path id="XMLID_235_" d="M112.8,21.8l-2.3,0.4c-0.1-0.5-0.3-0.8-0.5-1c-0.3-0.2-0.6-0.3-1.1-0.3c-0.6,0-1,0.2-1.4,0.6
				c-0.3,0.4-0.5,1.1-0.5,2c0,1,0.2,1.8,0.5,2.2c0.4,0.4,0.8,0.6,1.4,0.6c0.4,0,0.8-0.1,1.1-0.4s0.5-0.7,0.6-1.3l2.3,0.4
				c-0.2,1.1-0.7,1.8-1.4,2.4c-0.7,0.5-1.6,0.8-2.7,0.8c-1.3,0-2.3-0.4-3.1-1.2c-0.8-0.8-1.1-1.9-1.1-3.4c0-1.5,0.4-2.6,1.2-3.4
				s1.8-1.2,3.1-1.2c1.1,0,1.9,0.2,2.6,0.7C112.1,20.2,112.5,20.9,112.8,21.8z"/>
			<path id="XMLID_233_" d="M122.2,21.8l-2.3,0.4c-0.1-0.5-0.3-0.8-0.5-1c-0.3-0.2-0.6-0.3-1.1-0.3c-0.6,0-1,0.2-1.4,0.6
				c-0.3,0.4-0.5,1.1-0.5,2c0,1,0.2,1.8,0.5,2.2c0.4,0.4,0.8,0.6,1.4,0.6c0.4,0,0.8-0.1,1.1-0.4s0.5-0.7,0.6-1.3l2.3,0.4
				c-0.2,1.1-0.7,1.8-1.4,2.4c-0.7,0.5-1.6,0.8-2.7,0.8c-1.3,0-2.3-0.4-3.1-1.2c-0.8-0.8-1.1-1.9-1.1-3.4c0-1.5,0.4-2.6,1.2-3.4
				s1.8-1.2,3.1-1.2c1.1,0,1.9,0.2,2.6,0.7C121.5,20.2,122,20.9,122.2,21.8z"/>
			<path id="XMLID_230_" d="M124,18v-2.2h2.3V18H124z M124,28v-8.8h2.3V28H124z"/>
			<path id="XMLID_226_" d="M128.2,23.5c0-0.8,0.2-1.5,0.6-2.2c0.4-0.7,0.9-1.3,1.6-1.7c0.7-0.4,1.5-0.6,2.3-0.6
				c1.3,0,2.4,0.4,3.3,1.3s1.3,2,1.3,3.3c0,1.3-0.4,2.4-1.3,3.3c-0.9,0.9-1.9,1.3-3.2,1.3c-0.8,0-1.6-0.2-2.3-0.5
				c-0.7-0.4-1.3-0.9-1.7-1.6C128.4,25.4,128.2,24.5,128.2,23.5z M130.6,23.6c0,0.9,0.2,1.5,0.6,2s0.9,0.7,1.5,0.7s1.1-0.2,1.5-0.7
				c0.4-0.5,0.6-1.1,0.6-2c0-0.9-0.2-1.5-0.6-2c-0.4-0.5-0.9-0.7-1.5-0.7s-1.1,0.2-1.5,0.7S130.6,22.7,130.6,23.6z M131.6,18.1
				l1.1-2.5h2.6l-2.3,2.5H131.6z"/>
			<path id="XMLID_224_" d="M147.1,28h-2.3v-4.5c0-1,0-1.6-0.1-1.8s-0.3-0.5-0.5-0.7c-0.2-0.2-0.5-0.2-0.8-0.2
				c-0.4,0-0.8,0.1-1.1,0.3c-0.3,0.2-0.5,0.5-0.7,0.9c-0.1,0.4-0.2,1-0.2,2v4h-2.3v-8.8h2.2v1.3c0.8-1,1.7-1.5,2.9-1.5
				c0.5,0,1,0.1,1.4,0.3s0.7,0.4,1,0.7c0.2,0.3,0.4,0.6,0.5,1c0.1,0.4,0.1,0.9,0.1,1.6V28z"/>
		</g>
	</g>
	<g id="XMLID_25528_">
		<path id="XMLID_25634_" class="st4" d="M26.6,19.4c0.1,0.1,0,0.2-0.1,0.2c-0.2,0.1-0.5,0.2-0.7,0.3l-7.6,2.9c-0.1,0-0.1,0-0.2,0
			c-0.1-0.1,0-0.1,0-0.2c0.4-1,0.9-2,1.3-3.1c-0.4-1-0.9-2-1.3-3.1c0-0.1-0.1-0.1,0-0.2c0.1-0.1,0.1,0,0.2,0c2.8,1,5.5,2.1,8.3,3.1
			C26.5,19.3,26.6,19.3,26.6,19.4L26.6,19.4z M26.6,19.4"/>
		<path id="XMLID_25631_" d="M28.1,24.9c-0.2,0.2-0.2,0.5,0.1,0.7c0.2,0.2,0.5,0.2,0.7-0.1c0.2-0.2,0.2-0.5-0.1-0.7
			C28.6,24.7,28.3,24.7,28.1,24.9C28.1,24.9,28.1,24.9,28.1,24.9L28.1,24.9z M28.1,24.9"/>
		<path id="XMLID_25628_" d="M15.1,12.8c-0.2,0.2-0.2,0.5,0,0.7c0.2,0.2,0.5,0.2,0.7,0c0.2-0.2,0.2-0.5,0-0.7
			C15.6,12.6,15.3,12.6,15.1,12.8C15.1,12.8,15.1,12.8,15.1,12.8L15.1,12.8z M15.1,12.8"/>
		<path id="XMLID_25625_" d="M26.7,12.8c0.2,0.2,0.5,0.1,0.7-0.1c0.2-0.2,0.1-0.5-0.1-0.7c-0.2-0.2-0.5-0.1-0.7,0c0,0,0,0,0,0.1
			C26.5,12.3,26.5,12.6,26.7,12.8L26.7,12.8z M26.7,12.8"/>
		<path id="XMLID_25622_" d="M29.2,23.4c0,0-0.1,0.1-0.1,0.1c-0.1,0.3,0,0.6,0.2,0.7c0.3,0.1,0.6,0,0.7-0.2c0.1-0.2,0-0.6-0.2-0.7
			C29.6,23.2,29.3,23.2,29.2,23.4L29.2,23.4z M29.2,23.4"/>
		<path id="XMLID_25619_" d="M28.7,13.3c-0.2-0.2-0.5-0.2-0.7,0l0,0c-0.2,0.2-0.2,0.5,0,0.7c0.2,0.2,0.5,0.2,0.7,0
			C28.9,13.8,28.9,13.5,28.7,13.3L28.7,13.3z M28.7,13.3"/>
		<path id="XMLID_25616_" d="M26.9,26.1c-0.2,0.2-0.2,0.5,0,0.7c0.2,0.2,0.5,0.3,0.7,0.1c0.2-0.2,0.3-0.5,0.1-0.7
			C27.4,25.9,27.1,25.9,26.9,26.1L26.9,26.1z M26.9,26.1"/>
		<path id="XMLID_25613_" d="M25.3,27.1c-0.2,0.2-0.2,0.4-0.1,0.6c0.1,0.3,0.4,0.4,0.7,0.2c0.3-0.1,0.4-0.4,0.2-0.7
			C26,27,25.7,26.9,25.5,27C25.4,27,25.4,27.1,25.3,27.1L25.3,27.1z M25.3,27.1"/>
		<path id="XMLID_25610_" d="M22.5,10.6c0-0.3-0.2-0.5-0.5-0.5c-0.1,0-0.3,0.1-0.4,0.1c-0.1,0.1-0.1,0.2-0.1,0.3
			c0,0.3,0.2,0.5,0.5,0.5C22.3,11.1,22.5,10.9,22.5,10.6L22.5,10.6z M22.5,10.6"/>
		<path id="XMLID_25607_" d="M31.1,20.3c0-0.3-0.2-0.5-0.5-0.6c-0.2,0-0.3,0-0.4,0.1c-0.1,0.1-0.1,0.2-0.1,0.3
			c0,0.3,0.2,0.5,0.5,0.6C30.8,20.8,31,20.6,31.1,20.3L31.1,20.3z M31.1,20.3"/>
		<path id="XMLID_25604_" d="M23.9,27.6c-0.1,0-0.2,0.1-0.2,0.1c-0.1,0.1-0.2,0.3-0.1,0.5c0.1,0.3,0.4,0.4,0.6,0.4
			c0.3-0.1,0.4-0.4,0.4-0.6C24.4,27.7,24.2,27.5,23.9,27.6L23.9,27.6z M23.9,27.6"/>
		<path id="XMLID_25601_" d="M25.1,11.1c0,0-0.1,0.1-0.1,0.1c-0.1,0.3,0,0.6,0.2,0.7c0.3,0.1,0.6,0,0.7-0.2c0.1-0.3,0-0.6-0.2-0.7
			C25.5,10.9,25.3,10.9,25.1,11.1L25.1,11.1z M25.1,11.1"/>
		<path id="XMLID_25598_" d="M30.7,22.2c0.1-0.3-0.1-0.6-0.3-0.6c-0.2-0.1-0.4,0-0.5,0.1c-0.1,0.1-0.1,0.1-0.1,0.2
			c-0.1,0.3,0.1,0.6,0.3,0.6C30.3,22.6,30.6,22.5,30.7,22.2L30.7,22.2z M30.7,22.2"/>
		<path id="XMLID_25595_" d="M18.9,11c-0.1-0.3-0.4-0.4-0.7-0.3c-0.1,0-0.1,0.1-0.2,0.1C18,11,17.9,11.2,18,11.4
			c0.1,0.3,0.4,0.4,0.7,0.3C18.9,11.6,19,11.3,18.9,11L18.9,11z M18.9,11"/>
		<path id="XMLID_25592_" d="M20.3,11.2c0.3,0,0.5-0.3,0.4-0.6c0-0.3-0.3-0.5-0.6-0.4c-0.1,0-0.2,0.1-0.3,0.1
			c-0.1,0.1-0.2,0.3-0.1,0.4C19.8,11.1,20,11.3,20.3,11.2L20.3,11.2z M20.3,11.2"/>
		<path id="XMLID_25589_" d="M16.5,11.6c-0.2,0.2-0.2,0.4-0.1,0.6c0.2,0.2,0.5,0.3,0.7,0.2c0.2-0.2,0.3-0.5,0.2-0.7
			C17.1,11.5,16.8,11.4,16.5,11.6C16.6,11.6,16.5,11.6,16.5,11.6L16.5,11.6z M16.5,11.6"/>
		<path id="XMLID_25586_" d="M30.6,19c0.3,0,0.5-0.3,0.4-0.6c0-0.3-0.3-0.5-0.6-0.4c-0.1,0-0.2,0.1-0.3,0.1
			c-0.1,0.1-0.2,0.3-0.1,0.4C30.1,18.8,30.3,19,30.6,19L30.6,19z M30.6,19"/>
		<path id="XMLID_25583_" d="M13.3,19.6c0-0.3-0.2-0.5-0.5-0.5c-0.1,0-0.3,0.1-0.4,0.1c-0.1,0.1-0.2,0.2-0.2,0.4
			c0,0.3,0.2,0.5,0.5,0.5C13,20.1,13.3,19.9,13.3,19.6L13.3,19.6z M13.3,19.6"/>
		<path id="XMLID_25580_" d="M20.9,28.4c0-0.3-0.2-0.5-0.4-0.6c-0.2,0-0.3,0-0.4,0.1C20,28,20,28.1,19.9,28.3c0,0.3,0.2,0.5,0.4,0.6
			C20.6,28.9,20.9,28.7,20.9,28.4L20.9,28.4z M20.9,28.4"/>
		<path id="XMLID_25577_" d="M19.2,28.1c0.1-0.3,0-0.6-0.3-0.7c-0.2-0.1-0.4,0-0.5,0.1c-0.1,0.1-0.1,0.1-0.1,0.2
			c-0.1,0.3,0,0.6,0.3,0.7C18.8,28.5,19.1,28.3,19.2,28.1L19.2,28.1z M19.2,28.1"/>
		<path id="XMLID_25574_" d="M30.3,17.2c0.3-0.1,0.4-0.4,0.3-0.6c-0.1-0.3-0.4-0.4-0.6-0.3c-0.1,0-0.1,0.1-0.2,0.1
			c-0.1,0.1-0.2,0.3-0.1,0.5C29.7,17.2,30,17.3,30.3,17.2L30.3,17.2z M30.3,17.2"/>
		<path id="XMLID_25571_" d="M22.7,28.4c0-0.3-0.3-0.5-0.5-0.5c-0.1,0-0.2,0.1-0.3,0.1c-0.1,0.1-0.2,0.2-0.1,0.4
			c0,0.3,0.3,0.5,0.5,0.5C22.6,28.9,22.8,28.6,22.7,28.4L22.7,28.4z M22.7,28.4"/>
		<path id="XMLID_25568_" d="M29.8,14.8c-0.1-0.2-0.4-0.3-0.7-0.2c0,0-0.1,0.1-0.1,0.1c-0.2,0.2-0.2,0.4-0.1,0.6
			c0.1,0.2,0.4,0.3,0.7,0.2C29.9,15.4,30,15.1,29.8,14.8L29.8,14.8z M29.8,14.8"/>
		<path id="XMLID_25565_" d="M13.4,17.9c0.1-0.3-0.1-0.5-0.4-0.6c-0.2,0-0.3,0-0.5,0.1c-0.1,0.1-0.1,0.2-0.1,0.3
			c-0.1,0.3,0.1,0.5,0.4,0.6C13.1,18.4,13.4,18.2,13.4,17.9L13.4,17.9z M13.4,17.9"/>
		<path id="XMLID_25562_" d="M13.2,22.8c-0.1,0.1-0.2,0.4-0.1,0.6c0.1,0.3,0.4,0.4,0.7,0.3c0.3-0.1,0.4-0.4,0.3-0.7
			c-0.1-0.3-0.4-0.4-0.7-0.3C13.3,22.7,13.2,22.7,13.2,22.8L13.2,22.8z M13.2,22.8"/>
		<path id="XMLID_25559_" d="M14,25c0.2,0.2,0.5,0.3,0.7,0.1c0.2-0.2,0.3-0.5,0.1-0.7c-0.2-0.2-0.5-0.3-0.7-0.1c0,0,0,0-0.1,0.1
			C13.9,24.5,13.9,24.8,14,25L14,25z M14,25"/>
		<path id="XMLID_25556_" d="M23.4,10.5c-0.1,0.1-0.1,0.1-0.1,0.2c-0.1,0.3,0.1,0.6,0.4,0.6c0.3,0.1,0.6-0.1,0.6-0.4
			c0.1-0.3-0.1-0.6-0.4-0.6C23.7,10.3,23.6,10.4,23.4,10.5L23.4,10.5z M23.4,10.5"/>
		<path id="XMLID_25553_" d="M13.1,21.9c0.3-0.1,0.4-0.3,0.4-0.6c-0.1-0.3-0.3-0.4-0.6-0.4c-0.1,0-0.2,0.1-0.3,0.1
			c-0.1,0.1-0.2,0.3-0.1,0.5C12.5,21.8,12.8,22,13.1,21.9L13.1,21.9z M13.1,21.9"/>
		<path id="XMLID_25550_" d="M14.7,14.8c0.2-0.2,0.1-0.5-0.1-0.7c-0.2-0.1-0.5-0.1-0.6,0.1c0,0,0,0-0.1,0.1
			c-0.2,0.2-0.1,0.5,0.1,0.7C14.2,15.1,14.6,15,14.7,14.8L14.7,14.8z M14.7,14.8"/>
		<path id="XMLID_25547_" d="M13.9,16.3C13.9,16.3,13.9,16.3,13.9,16.3c0.1-0.3,0-0.6-0.3-0.7c-0.2-0.1-0.4,0-0.6,0.1
			c0,0-0.1,0.1-0.1,0.2c0,0,0,0,0,0c-0.1,0.3,0,0.6,0.3,0.7C13.5,16.7,13.8,16.6,13.9,16.3L13.9,16.3z M13.9,16.3"/>
		<path id="XMLID_25544_" d="M17.5,27.4c0.1-0.2,0.1-0.6-0.2-0.7c-0.2-0.1-0.5-0.1-0.6,0.1c0,0-0.1,0.1-0.1,0.1
			c-0.1,0.2-0.1,0.6,0.2,0.7C17,27.7,17.3,27.6,17.5,27.4L17.5,27.4z M17.5,27.4"/>
		<g id="XMLID_25533_">
			<defs>
				
					<rect id="XMLID_25534_" x="7.8" y="5.7" transform="matrix(0.7071 -0.7071 0.7071 0.7071 -7.4532 21.0065)" width="27.6" height="27.6"/>
			</defs>
			<clipPath id="XMLID_63_">
				<use xlink:href="#XMLID_25534_"  style="overflow:visible;"/>
			</clipPath>
			<path id="XMLID_25541_" class="st5" d="M16,26.4c0.2-0.2,0.2-0.5,0-0.7c-0.2-0.2-0.5-0.2-0.7,0l0,0c-0.2,0.2-0.2,0.5,0,0.7
				C15.5,26.6,15.8,26.6,16,26.4L16,26.4z M16,26.4"/>
			<path id="XMLID_25538_" class="st5" d="M31.5,29.1c2.6-2.6,4-6.1,3.9-9.8c0-2.6-0.8-5.2-2.2-7.4c-1.4-2.1-3.4-3.8-5.7-4.9
				C27.3,7,27.1,7,27,7.1c0,0-0.1,0.1-0.1,0.1c-0.1,0.3,0,0.6,0.2,0.7c4.4,2.1,7.3,6.5,7.3,11.4c0,3.4-1.2,6.6-3.6,9
				c-2.4,2.4-5.6,3.8-9,3.8l-0.1,0l1.1-1.1c0.2-0.2,0.2-0.5,0-0.7c-0.2-0.2-0.5-0.2-0.7,0l0,0l-1.9,2c-0.2,0.2-0.2,0.5,0,0.7l2,1.9
				c0.2,0.2,0.5,0.2,0.7,0c0.2-0.2,0.2-0.5,0-0.7l-1.1-1.1l0.1,0C25.5,33.2,28.9,31.7,31.5,29.1L31.5,29.1z M31.5,29.1"/>
			<path id="XMLID_25535_" class="st5" d="M21.5,6.8l0.1,0l-1.1,1.1c-0.2,0.2-0.2,0.5,0,0.7c0.2,0.2,0.5,0.2,0.7,0l1.9-2
				c0.2-0.2,0.2-0.5,0-0.7l-2-1.9c-0.2-0.2-0.5-0.2-0.7,0l0,0c-0.2,0.2-0.2,0.5,0,0.7l1.1,1.1l-0.1,0c-3.7,0-7.1,1.6-9.6,4
				c-2.5,2.5-4.1,6-4,9.9c0,2.6,0.8,5.2,2.2,7.4c1.4,2.1,3.4,3.8,5.7,4.9c0.3,0.1,0.6,0,0.7-0.2c0.1-0.3,0-0.6-0.2-0.7
				c-4.4-2.1-7.3-6.5-7.3-11.4C8.9,12.6,14.5,6.8,21.5,6.8L21.5,6.8z M21.5,6.8"/>
		</g>
		<path id="XMLID_25529_" d="M27.1,19.4c0-0.2-0.1-0.3-0.2-0.4c-0.1-0.1-0.2-0.2-0.3-0.2l-8.3-3.1c-0.4-0.1-0.6,0-0.7,0.1l0,0
			c-0.1,0.1-0.2,0.4-0.1,0.7l0.4,1c0.3,0.6,0.5,1.2,0.8,1.9c-0.3,0.7-0.6,1.4-0.9,2.1l-0.4,0.8c-0.2,0.4,0,0.6,0.1,0.7
			c0.1,0.1,0.4,0.3,0.7,0.1c2-0.7,3.9-1.5,5.9-2.2l1.9-0.7l0.6-0.2C27,19.9,27.1,19.7,27.1,19.4L27.1,19.4z M23.9,20
			c-1.7,0.6-3.4,1.3-5.1,1.9l0,0c0.3-0.7,0.6-1.5,1-2.2c0.1-0.1,0.1-0.3,0-0.4c-0.3-0.7-0.6-1.4-0.9-2.1l-0.1-0.2l6.6,2.5L23.9,20z
			 M23.9,20"/>
	</g>
</g>
</svg>
