<?xml version="1.0" encoding="utf-8"?>
<!-- Generator: Adobe Illustrator 19.0.0, SVG Export Plug-In . SVG Version: 6.00 Build 0)  -->
<svg version="1.1" id="Capa_1" xmlns="http://www.w3.org/2000/svg" xmlns:xlink="http://www.w3.org/1999/xlink" x="0px" y="0px"
	 viewBox="0 0 246 58.1" style="enable-background:new 0 0 246 58.1;" xml:space="preserve">
<style type="text/css">
	.st0{fill-rule:evenodd;clip-rule:evenodd;fill:#A8A8A8;}
	.st1{fill-rule:evenodd;clip-rule:evenodd;fill:#EFEFEF;}
	.st2{opacity:0.5;fill:#2C6882;}
	.st3{fill-rule:evenodd;clip-rule:evenodd;fill:#B1D9E8;}
	.st4{fill:#3C92CA;}
	.st5{fill:#FFFFFF;}
	.st6{clip-path:url(#XMLID_168_);}
</style>
<g id="XMLID_25_">
	<g id="XMLID_25913_">
		<g id="XMLID_25924_">
			<g id="XMLID_129_">
				<polygon id="XMLID_130_" class="st0" points="232,58.1 246,40.4 235.6,20.2 232,20.2 				"/>
			</g>
		</g>
		<rect id="XMLID_25921_" x="0" class="st1" width="246" height="40.4"/>
		<polygon id="XMLID_25918_" class="st2" points="232,47.5 0,40.4 232,40.4 		"/>
		<rect id="XMLID_25917_" x="2.6" y="2.5" class="st3" width="240.8" height="35.3"/>
		<g id="XMLID_24608_">
			<g id="XMLID_426_">
				<path id="XMLID_467_" d="M57.6,27.9h-2.7l-1.1-2.8H49l-1,2.8h-2.6l4.7-12.2h2.6L57.6,27.9z M53,23.1l-1.7-4.5l-1.6,4.5H53z"/>
				<path id="XMLID_465_" d="M61.1,27.9h-2.3v-8.8h2.2v1.3c0.4-0.6,0.7-1,1-1.2c0.3-0.2,0.6-0.3,1-0.3c0.5,0,1,0.1,1.5,0.4l-0.7,2
					C63.3,21.2,63,21,62.6,21c-0.3,0-0.6,0.1-0.8,0.3s-0.4,0.5-0.5,1c-0.1,0.5-0.2,1.5-0.2,3V27.9z"/>
				<path id="XMLID_462_" d="M71.2,31.3v-4.4c-0.3,0.4-0.7,0.7-1.1,0.9s-0.9,0.3-1.5,0.3c-1,0-1.8-0.4-2.5-1.1
					c-0.8-0.9-1.1-2.1-1.1-3.6c0-1.4,0.4-2.5,1.1-3.3c0.7-0.8,1.6-1.2,2.7-1.2c0.6,0,1.1,0.1,1.5,0.4c0.4,0.2,0.8,0.6,1.1,1.1v-1.3
					h2.1v12.2H71.2z M71.3,23.4c0-0.9-0.2-1.6-0.6-2c-0.4-0.4-0.8-0.7-1.4-0.7c-0.6,0-1,0.2-1.4,0.7c-0.4,0.4-0.6,1.2-0.6,2.1
					c0,1,0.2,1.7,0.5,2.1s0.8,0.6,1.4,0.6s1-0.2,1.4-0.7C71.1,25.1,71.3,24.4,71.3,23.4z"/>
				<path id="XMLID_460_" d="M81.6,27.9v-1.3c-0.3,0.5-0.7,0.8-1.3,1.1c-0.5,0.3-1.1,0.4-1.7,0.4c-0.6,0-1.1-0.1-1.6-0.4
					c-0.5-0.3-0.8-0.6-1-1.1c-0.2-0.5-0.3-1.1-0.3-2v-5.6h2.3v4.1c0,1.2,0,2,0.1,2.3c0.1,0.3,0.2,0.5,0.5,0.7s0.5,0.2,0.9,0.2
					c0.4,0,0.8-0.1,1.1-0.3s0.5-0.5,0.6-0.8c0.1-0.3,0.2-1.1,0.2-2.4v-3.7h2.3v8.8H81.6z"/>
				<path id="XMLID_457_" d="M86.2,17.9v-2.2h2.3v2.2H86.2z M86.2,27.9v-8.8h2.3v8.8H86.2z"/>
				<path id="XMLID_455_" d="M95,19.1V21h-1.6v3.6c0,0.7,0,1.1,0,1.3c0,0.1,0.1,0.2,0.2,0.3c0.1,0.1,0.2,0.1,0.4,0.1
					c0.2,0,0.5-0.1,0.9-0.2l0.2,1.8c-0.5,0.2-1.2,0.3-1.8,0.3c-0.4,0-0.8-0.1-1.1-0.2c-0.3-0.1-0.6-0.3-0.7-0.5
					c-0.2-0.2-0.3-0.5-0.3-0.9c0-0.3-0.1-0.8-0.1-1.6V21H90v-1.9h1.1v-1.8l2.3-1.4v3.1H95z"/>
				<path id="XMLID_452_" d="M101.7,25.1l2.3,0.4c-0.3,0.9-0.8,1.5-1.4,1.9c-0.6,0.4-1.5,0.7-2.4,0.7c-1.5,0-2.7-0.5-3.4-1.5
					c-0.6-0.8-0.9-1.8-0.9-3c0-1.5,0.4-2.6,1.1-3.4s1.7-1.2,2.9-1.2c1.3,0,2.3,0.4,3.1,1.3s1.1,2.2,1.1,4h-5.8
					c0,0.7,0.2,1.2,0.6,1.6s0.8,0.6,1.3,0.6c0.4,0,0.7-0.1,0.9-0.3S101.6,25.6,101.7,25.1z M101.8,22.8c0-0.7-0.2-1.2-0.5-1.5
					s-0.7-0.5-1.2-0.5c-0.5,0-0.9,0.2-1.3,0.6s-0.5,0.9-0.5,1.5H101.8z"/>
				<path id="XMLID_450_" d="M113.7,21.7l-2.3,0.4c-0.1-0.5-0.3-0.8-0.5-1c-0.3-0.2-0.6-0.3-1.1-0.3c-0.6,0-1,0.2-1.4,0.6
					c-0.3,0.4-0.5,1.1-0.5,2c0,1,0.2,1.8,0.5,2.2c0.4,0.4,0.8,0.6,1.4,0.6c0.4,0,0.8-0.1,1.1-0.4s0.5-0.7,0.6-1.3l2.3,0.4
					c-0.2,1.1-0.7,1.8-1.4,2.4c-0.7,0.5-1.6,0.8-2.7,0.8c-1.3,0-2.3-0.4-3.1-1.2c-0.8-0.8-1.1-1.9-1.1-3.4c0-1.5,0.4-2.6,1.2-3.4
					s1.8-1.2,3.1-1.2c1.1,0,1.9,0.2,2.6,0.7C113,20.1,113.5,20.8,113.7,21.7z"/>
				<path id="XMLID_448_" d="M119.6,19.1V21H118v3.6c0,0.7,0,1.1,0,1.3c0,0.1,0.1,0.2,0.2,0.3c0.1,0.1,0.2,0.1,0.4,0.1
					c0.2,0,0.5-0.1,0.9-0.2l0.2,1.8c-0.5,0.2-1.2,0.3-1.8,0.3c-0.4,0-0.8-0.1-1.1-0.2c-0.3-0.1-0.6-0.3-0.7-0.5
					c-0.2-0.2-0.3-0.5-0.3-0.9c0-0.3-0.1-0.8-0.1-1.6V21h-1.1v-1.9h1.1v-1.8L118,16v3.1H119.6z"/>
				<path id="XMLID_446_" d="M127,27.9v-1.3c-0.3,0.5-0.7,0.8-1.3,1.1c-0.5,0.3-1.1,0.4-1.7,0.4c-0.6,0-1.1-0.1-1.6-0.4
					c-0.5-0.3-0.8-0.6-1-1.1c-0.2-0.5-0.3-1.1-0.3-2v-5.6h2.3v4.1c0,1.2,0,2,0.1,2.3c0.1,0.3,0.2,0.5,0.5,0.7s0.5,0.2,0.9,0.2
					c0.4,0,0.8-0.1,1.1-0.3s0.5-0.5,0.6-0.8c0.1-0.3,0.2-1.1,0.2-2.4v-3.7h2.3v8.8H127z"/>
				<path id="XMLID_444_" d="M133.8,27.9h-2.3v-8.8h2.2v1.3c0.4-0.6,0.7-1,1-1.2c0.3-0.2,0.6-0.3,1-0.3c0.5,0,1,0.1,1.5,0.4l-0.7,2
					c-0.4-0.3-0.8-0.4-1.1-0.4c-0.3,0-0.6,0.1-0.8,0.3s-0.4,0.5-0.5,1c-0.1,0.5-0.2,1.5-0.2,3V27.9z"/>
				<path id="XMLID_441_" d="M139.9,21.8l-2.1-0.4c0.2-0.9,0.6-1.5,1.2-1.9s1.4-0.6,2.6-0.6c1,0,1.8,0.1,2.3,0.4s0.9,0.6,1.1,0.9
					c0.2,0.4,0.3,1.1,0.3,2.1l0,2.7c0,0.8,0,1.3,0.1,1.7c0.1,0.4,0.2,0.8,0.4,1.2h-2.3c-0.1-0.2-0.1-0.4-0.2-0.7
					c0-0.1-0.1-0.2-0.1-0.3c-0.4,0.4-0.8,0.7-1.3,0.9c-0.5,0.2-0.9,0.3-1.5,0.3c-0.9,0-1.6-0.2-2.1-0.7c-0.5-0.5-0.8-1.1-0.8-1.9
					c0-0.5,0.1-0.9,0.4-1.3c0.2-0.4,0.6-0.7,1-0.9c0.4-0.2,1-0.4,1.9-0.5c1.1-0.2,1.8-0.4,2.3-0.6V22c0-0.4-0.1-0.8-0.3-1
					c-0.2-0.2-0.6-0.3-1.3-0.3c-0.4,0-0.7,0.1-1,0.2S140.1,21.4,139.9,21.8z M143,23.7c-0.3,0.1-0.8,0.2-1.4,0.4
					c-0.6,0.1-1.1,0.3-1.3,0.4c-0.3,0.2-0.5,0.5-0.5,0.8c0,0.3,0.1,0.6,0.4,0.8c0.2,0.2,0.6,0.4,0.9,0.4c0.4,0,0.8-0.1,1.2-0.4
					c0.3-0.2,0.5-0.5,0.6-0.8c0.1-0.2,0.1-0.6,0.1-1.1V23.7z"/>
				<path id="XMLID_438_" d="M160.4,27.9h-2.2v-1.3c-0.4,0.5-0.8,0.9-1.3,1.1c-0.5,0.2-1,0.4-1.5,0.4c-1,0-1.9-0.4-2.6-1.2
					c-0.7-0.8-1.1-2-1.1-3.4c0-1.5,0.4-2.6,1.1-3.4s1.6-1.2,2.7-1.2c1,0,1.8,0.4,2.6,1.2v-4.4h2.3V27.9z M154.2,23.3
					c0,0.9,0.1,1.6,0.4,2c0.4,0.6,0.9,0.9,1.6,0.9c0.5,0,1-0.2,1.4-0.7c0.4-0.5,0.6-1.1,0.6-2c0-1-0.2-1.7-0.5-2.2s-0.8-0.7-1.4-0.7
					c-0.6,0-1,0.2-1.4,0.7C154.4,21.8,154.2,22.5,154.2,23.3z"/>
				<path id="XMLID_435_" d="M167.8,25.1l2.3,0.4c-0.3,0.9-0.8,1.5-1.4,1.9c-0.6,0.4-1.5,0.7-2.4,0.7c-1.5,0-2.7-0.5-3.4-1.5
					c-0.6-0.8-0.9-1.8-0.9-3c0-1.5,0.4-2.6,1.1-3.4s1.7-1.2,2.9-1.2c1.3,0,2.3,0.4,3.1,1.3s1.1,2.2,1.1,4h-5.8
					c0,0.7,0.2,1.2,0.6,1.6s0.8,0.6,1.3,0.6c0.4,0,0.7-0.1,0.9-0.3S167.7,25.6,167.8,25.1z M168,22.8c0-0.7-0.2-1.2-0.5-1.5
					s-0.7-0.5-1.2-0.5c-0.5,0-0.9,0.2-1.3,0.6s-0.5,0.9-0.5,1.5H168z"/>
				<path id="XMLID_433_" d="M179.1,27.9h-2.3v-8.8h2.2v1.3c0.4-0.6,0.7-1,1-1.2c0.3-0.2,0.6-0.3,1-0.3c0.5,0,1,0.1,1.5,0.4l-0.7,2
					c-0.4-0.3-0.8-0.4-1.1-0.4c-0.3,0-0.6,0.1-0.8,0.3s-0.4,0.5-0.5,1c-0.1,0.5-0.2,1.5-0.2,3V27.9z"/>
				<path id="XMLID_430_" d="M188.6,25.1l2.3,0.4c-0.3,0.9-0.8,1.5-1.4,1.9c-0.6,0.4-1.5,0.7-2.4,0.7c-1.5,0-2.7-0.5-3.4-1.5
					c-0.6-0.8-0.9-1.8-0.9-3c0-1.5,0.4-2.6,1.1-3.4s1.7-1.2,2.9-1.2c1.3,0,2.3,0.4,3.1,1.3s1.1,2.2,1.1,4h-5.8
					c0,0.7,0.2,1.2,0.6,1.6s0.8,0.6,1.3,0.6c0.4,0,0.7-0.1,0.9-0.3S188.5,25.6,188.6,25.1z M188.8,22.8c0-0.7-0.2-1.2-0.5-1.5
					s-0.7-0.5-1.2-0.5c-0.5,0-0.9,0.2-1.3,0.6s-0.5,0.9-0.5,1.5H188.8z"/>
				<path id="XMLID_427_" d="M201.1,27.9h-2.2v-1.3c-0.4,0.5-0.8,0.9-1.3,1.1c-0.5,0.2-1,0.4-1.5,0.4c-1,0-1.9-0.4-2.6-1.2
					c-0.7-0.8-1.1-2-1.1-3.4c0-1.5,0.4-2.6,1.1-3.4s1.6-1.2,2.7-1.2c1,0,1.8,0.4,2.6,1.2v-4.4h2.3V27.9z M194.8,23.3
					c0,0.9,0.1,1.6,0.4,2c0.4,0.6,0.9,0.9,1.6,0.9c0.5,0,1-0.2,1.4-0.7c0.4-0.5,0.6-1.1,0.6-2c0-1-0.2-1.7-0.5-2.2s-0.8-0.7-1.4-0.7
					c-0.6,0-1,0.2-1.4,0.7C195,21.8,194.8,22.5,194.8,23.3z"/>
			</g>
		</g>
	</g>
	<g id="XMLID_25781_">
		<path id="XMLID_25808_" class="st4" d="M27.2,17.2c0,0.5-0.4,1-1,1H17c-0.5,0-1-0.4-1-1v-6.6c0-0.5,0.4-1,1-1h9.2c0.5,0,1,0.4,1,1
			V17.2z M27.2,17.2"/>
		<path id="XMLID_25804_" d="M26.2,18.6c0.8,0,1.5-0.7,1.5-1.5v-6.6c0-0.8-0.7-1.5-1.5-1.5H17c-0.8,0-1.5,0.7-1.5,1.5v6.6
			c0,0.8,0.7,1.5,1.5,1.5h4.1V20h-1.3c-0.3,0-0.5,0.2-0.5,0.5c0,0.3,0.2,0.5,0.5,0.5h3.7c0.3,0,0.5-0.2,0.5-0.5
			c0-0.3-0.2-0.5-0.5-0.5h-1.3v-1.4H26.2z M16.6,17.2v-6.6c0-0.2,0.2-0.4,0.4-0.4h9.2c0.2,0,0.4,0.2,0.4,0.4v6.6
			c0,0.2-0.2,0.4-0.4,0.4H17C16.8,17.6,16.6,17.4,16.6,17.2L16.6,17.2z M16.6,17.2"/>
		<path id="XMLID_25801_" class="st5" d="M19.4,31c0,0.5-0.4,1-1,1H9.3c-0.5,0-1-0.4-1-1v-6.6c0-0.5,0.4-1,1-1h9.2c0.5,0,1,0.4,1,1
			V31z M19.4,31"/>
		<path id="XMLID_25798_" class="st5" d="M34.9,31c0,0.5-0.4,1-1,1h-9.2c-0.5,0-1-0.4-1-1v-6.6c0-0.5,0.4-1,1-1H34c0.5,0,1,0.4,1,1
			L34.9,31L34.9,31z M34.9,31"/>
		<g id="XMLID_25788_">
			<defs>
				<rect id="XMLID_25789_" x="7.8" y="9.1" width="27.6" height="25.8"/>
			</defs>
			<clipPath id="XMLID_168_">
				<use xlink:href="#XMLID_25789_"  style="overflow:visible;"/>
			</clipPath>
			<path id="XMLID_25794_" class="st6" d="M18.5,22.9H9.3c-0.8,0-1.5,0.7-1.5,1.5V31c0,0.8,0.7,1.5,1.5,1.5h4.1v1.4H12
				c-0.3,0-0.5,0.2-0.5,0.5c0,0.3,0.2,0.5,0.5,0.5h3.7c0.3,0,0.5-0.2,0.5-0.5c0-0.3-0.2-0.5-0.5-0.5h-1.3v-1.4h4.1
				c0.8,0,1.5-0.7,1.5-1.5v-6.6C20,23.6,19.3,22.9,18.5,22.9L18.5,22.9z M18.9,31c0,0.2-0.2,0.4-0.4,0.4H9.3c-0.2,0-0.4-0.2-0.4-0.4
				v-6.6c0-0.2,0.2-0.4,0.4-0.4h9.2c0.2,0,0.4,0.2,0.4,0.4L18.9,31L18.9,31z M18.9,31"/>
			<path id="XMLID_25790_" class="st6" d="M34,22.9h-9.2c-0.8,0-1.5,0.7-1.5,1.5V31c0,0.8,0.7,1.5,1.5,1.5h4.1v1.4h-1.3
				c-0.3,0-0.5,0.2-0.5,0.5c0,0.3,0.2,0.5,0.5,0.5h3.7c0.3,0,0.5-0.2,0.5-0.5c0-0.3-0.2-0.5-0.5-0.5h-1.3v-1.4H34
				c0.8,0,1.5-0.7,1.5-1.5v-6.6C35.4,23.6,34.8,22.9,34,22.9L34,22.9z M34.4,31c0,0.2-0.2,0.4-0.4,0.4h-9.2c-0.2,0-0.4-0.2-0.4-0.4
				v-6.6c0-0.2,0.2-0.4,0.4-0.4H34c0.2,0,0.4,0.2,0.4,0.4V31z M34.4,31"/>
		</g>
		<path id="XMLID_25785_" d="M9.9,21c0.3,0,0.5-0.2,0.5-0.5v-7h3.1c0.3,0,0.5-0.2,0.5-0.5c0-0.3-0.2-0.5-0.5-0.5H9.9
			c-0.3,0-0.5,0.2-0.5,0.5v7.5C9.4,20.8,9.6,21,9.9,21L9.9,21z M9.9,21"/>
		<path id="XMLID_25782_" d="M33.3,21c0.3,0,0.5-0.2,0.5-0.5V13c0-0.3-0.2-0.5-0.5-0.5h-3.6c-0.3,0-0.5,0.2-0.5,0.5
			c0,0.3,0.2,0.5,0.5,0.5h3.1v7C32.8,20.8,33.1,21,33.3,21L33.3,21z M33.3,21"/>
	</g>
</g>
</svg>
