<?xml version="1.0" encoding="utf-8"?>
<!-- Generator: Adobe Illustrator 19.0.0, SVG Export Plug-In . SVG Version: 6.00 Build 0)  -->
<svg version="1.1" id="Capa_1" xmlns="http://www.w3.org/2000/svg" xmlns:xlink="http://www.w3.org/1999/xlink" x="0px" y="0px"
	 viewBox="0 0 246 58.1" style="enable-background:new 0 0 246 58.1;" xml:space="preserve">
<style type="text/css">
	.st0{fill-rule:evenodd;clip-rule:evenodd;fill:#A8A8A8;}
	.st1{fill-rule:evenodd;clip-rule:evenodd;fill:#EFEFEF;}
	.st2{opacity:0.5;fill:#2C6882;}
	.st3{fill-rule:evenodd;clip-rule:evenodd;fill:#FFFFFF;}
	.st4{fill:#3C92CA;}
	.st5{clip-path:url(#XMLID_170_);}
</style>
<g id="XMLID_23729_">
	<g id="XMLID_25895_">
		<g id="XMLID_25908_">
			<g id="XMLID_180_">
				<polygon id="XMLID_181_" class="st0" points="232,58.1 246,40.4 235.6,20.2 232,20.2 				"/>
			</g>
		</g>
		<rect id="XMLID_25905_" x="0" class="st1" width="246" height="40.4"/>
		<polygon id="XMLID_25902_" class="st2" points="232,47.5 0,40.4 232,40.4 		"/>
		<rect id="XMLID_25899_" x="2.6" y="2.5" class="st3" width="240.8" height="35.3"/>
		<g id="XMLID_24584_">
			<g id="XMLID_337_">
				<path id="XMLID_359_" d="M46.5,27.9V15.8h3.7l2.2,8.3l2.2-8.3h3.7v12.2H56v-9.6l-2.4,9.6h-2.4l-2.4-9.6v9.6H46.5z"/>
				<path id="XMLID_356_" d="M60.2,23.4c0-0.8,0.2-1.5,0.6-2.2c0.4-0.7,0.9-1.3,1.6-1.7c0.7-0.4,1.5-0.6,2.3-0.6
					c1.3,0,2.4,0.4,3.3,1.3s1.3,2,1.3,3.3c0,1.3-0.4,2.4-1.3,3.3c-0.9,0.9-1.9,1.3-3.2,1.3c-0.8,0-1.6-0.2-2.3-0.5
					c-0.7-0.4-1.3-0.9-1.7-1.6C60.4,25.3,60.2,24.4,60.2,23.4z M62.6,23.5c0,0.9,0.2,1.5,0.6,2s0.9,0.7,1.5,0.7s1.1-0.2,1.5-0.7
					c0.4-0.5,0.6-1.1,0.6-2c0-0.9-0.2-1.5-0.6-2c-0.4-0.5-0.9-0.7-1.5-0.7s-1.1,0.2-1.5,0.7S62.6,22.7,62.6,23.5z"/>
				<path id="XMLID_353_" d="M79.2,27.9H77v-1.3c-0.4,0.5-0.8,0.9-1.3,1.1c-0.5,0.2-1,0.4-1.5,0.4c-1,0-1.9-0.4-2.6-1.2
					c-0.7-0.8-1.1-2-1.1-3.4c0-1.5,0.4-2.6,1.1-3.4s1.6-1.2,2.7-1.2c1,0,1.8,0.4,2.6,1.2v-4.4h2.3V27.9z M73,23.3
					c0,0.9,0.1,1.6,0.4,2c0.4,0.6,0.9,0.9,1.6,0.9c0.5,0,1-0.2,1.4-0.7c0.4-0.5,0.6-1.1,0.6-2c0-1-0.2-1.7-0.5-2.2s-0.8-0.7-1.4-0.7
					c-0.6,0-1,0.2-1.4,0.7C73.2,21.8,73,22.5,73,23.3z"/>
				<path id="XMLID_350_" d="M86.6,25.1l2.3,0.4c-0.3,0.9-0.8,1.5-1.4,1.9c-0.6,0.4-1.5,0.7-2.4,0.7c-1.5,0-2.7-0.5-3.4-1.5
					c-0.6-0.8-0.9-1.8-0.9-3c0-1.5,0.4-2.6,1.1-3.4s1.7-1.2,2.9-1.2c1.3,0,2.3,0.4,3.1,1.3s1.1,2.2,1.1,4h-5.8
					c0,0.7,0.2,1.2,0.6,1.6s0.8,0.6,1.3,0.6c0.4,0,0.7-0.1,0.9-0.3S86.5,25.6,86.6,25.1z M86.7,22.8c0-0.7-0.2-1.2-0.5-1.5
					s-0.7-0.5-1.2-0.5c-0.5,0-0.9,0.2-1.3,0.6s-0.5,0.9-0.5,1.5H86.7z"/>
				<path id="XMLID_348_" d="M90.9,27.9V15.8h2.3v12.2H90.9z"/>
				<path id="XMLID_345_" d="M95.1,23.4c0-0.8,0.2-1.5,0.6-2.2c0.4-0.7,0.9-1.3,1.6-1.7c0.7-0.4,1.5-0.6,2.3-0.6
					c1.3,0,2.4,0.4,3.3,1.3s1.3,2,1.3,3.3c0,1.3-0.4,2.4-1.3,3.3c-0.9,0.9-1.9,1.3-3.2,1.3c-0.8,0-1.6-0.2-2.3-0.5
					c-0.7-0.4-1.3-0.9-1.7-1.6C95.3,25.3,95.1,24.4,95.1,23.4z M97.5,23.5c0,0.9,0.2,1.5,0.6,2s0.9,0.7,1.5,0.7s1.1-0.2,1.5-0.7
					c0.4-0.5,0.6-1.1,0.6-2c0-0.9-0.2-1.5-0.6-2c-0.4-0.5-0.9-0.7-1.5-0.7s-1.1,0.2-1.5,0.7S97.5,22.7,97.5,23.5z"/>
				<path id="XMLID_342_" d="M110.3,21.9c0-1.2,0.2-2.3,0.6-3.1c0.3-0.6,0.7-1.2,1.1-1.7c0.5-0.5,1-0.9,1.6-1.1
					c0.8-0.3,1.6-0.5,2.6-0.5c1.8,0,3.2,0.6,4.3,1.7c1.1,1.1,1.6,2.7,1.6,4.6c0,2-0.5,3.5-1.6,4.6s-2.5,1.7-4.3,1.7
					c-1.8,0-3.2-0.6-4.3-1.7C110.8,25.4,110.3,23.9,110.3,21.9z M112.8,21.9c0,1.4,0.3,2.4,1,3.1s1.4,1.1,2.4,1.1s1.8-0.4,2.4-1.1
					c0.6-0.7,0.9-1.8,0.9-3.2c0-1.4-0.3-2.4-0.9-3.1c-0.6-0.7-1.4-1-2.4-1s-1.8,0.3-2.4,1S112.8,20.5,112.8,21.9z"/>
				<path id="XMLID_340_" d="M123.4,24l2.4-0.2c0.1,0.8,0.4,1.4,0.9,1.8c0.4,0.4,1,0.6,1.8,0.6c0.8,0,1.4-0.2,1.8-0.5
					c0.4-0.3,0.6-0.7,0.6-1.2c0-0.3-0.1-0.5-0.3-0.7c-0.2-0.2-0.5-0.4-0.9-0.5c-0.3-0.1-0.9-0.3-2-0.5c-1.3-0.3-2.2-0.7-2.8-1.2
					c-0.7-0.7-1.1-1.5-1.1-2.4c0-0.6,0.2-1.2,0.5-1.7c0.4-0.5,0.9-1,1.5-1.2c0.7-0.3,1.5-0.4,2.4-0.4c1.5,0,2.7,0.3,3.4,1
					c0.8,0.7,1.2,1.6,1.2,2.7l-2.5,0.1c-0.1-0.6-0.3-1.1-0.7-1.3c-0.3-0.3-0.9-0.4-1.6-0.4c-0.7,0-1.3,0.1-1.7,0.4
					c-0.3,0.2-0.4,0.4-0.4,0.8c0,0.3,0.1,0.5,0.4,0.7c0.3,0.3,1.1,0.5,2.3,0.8c1.2,0.3,2.1,0.6,2.7,0.9c0.6,0.3,1,0.7,1.3,1.2
					c0.3,0.5,0.5,1.2,0.5,1.9c0,0.7-0.2,1.4-0.6,2c-0.4,0.6-0.9,1.1-1.6,1.4s-1.6,0.4-2.6,0.4c-1.5,0-2.7-0.4-3.5-1.1
					S123.6,25.3,123.4,24z"/>
				<path id="XMLID_338_" d="M135.3,27.9V15.8h2.5v12.2H135.3z"/>
			</g>
		</g>
	</g>
	<g id="XMLID_25747_">
		<path id="XMLID_25778_" class="st4" d="M24.9,20.6c0,1.8-1.5,3.3-3.3,3.3c-1.8,0-3.3-1.5-3.3-3.3c0-1.8,1.5-3.3,3.3-3.3
			C23.5,17.3,24.9,18.8,24.9,20.6L24.9,20.6z M24.9,20.6"/>
		<g id="XMLID_25760_">
			<defs>
				<rect id="XMLID_25761_" x="7.8" y="6.8" width="27.6" height="27.6"/>
			</defs>
			<clipPath id="XMLID_170_">
				<use xlink:href="#XMLID_25761_"  style="overflow:visible;"/>
			</clipPath>
			<path id="XMLID_25774_" class="st5" d="M21.6,24.4c-2.1,0-3.8-1.7-3.8-3.8c0-2.1,1.7-3.8,3.8-3.8c2.1,0,3.8,1.7,3.8,3.8
				C25.4,22.7,23.7,24.4,21.6,24.4L21.6,24.4z M21.6,17.8c-1.5,0-2.8,1.3-2.8,2.8c0,1.5,1.3,2.8,2.8,2.8c1.5,0,2.8-1.3,2.8-2.8
				C24.4,19.1,23.2,17.8,21.6,17.8L21.6,17.8z M21.6,17.8"/>
			<path id="XMLID_25771_" class="st5" d="M21.6,14.5c0.3,0,0.5-0.2,0.5-0.5V8.6l1.1,1.1c0.1,0.1,0.2,0.2,0.4,0.2
				c0.1,0,0.3-0.1,0.4-0.2c0.2-0.2,0.2-0.5,0-0.7l-2-2c-0.2-0.2-0.5-0.2-0.7,0l-2,2c-0.2,0.2-0.2,0.5,0,0.7c0.2,0.2,0.5,0.2,0.7,0
				l1.1-1.1V14C21.1,14.3,21.3,14.5,21.6,14.5L21.6,14.5z M21.6,14.5"/>
			<path id="XMLID_25768_" class="st5" d="M19.3,32.2l2,2c0.1,0.1,0.2,0.2,0.4,0.2c0.1,0,0.3-0.1,0.4-0.2l2-2c0.2-0.2,0.2-0.5,0-0.7
				c-0.2-0.2-0.5-0.2-0.7,0l-1.1,1.1v-5.5c0-0.3-0.2-0.5-0.5-0.5s-0.5,0.2-0.5,0.5v5.5L20,31.5c-0.2-0.2-0.5-0.2-0.7,0
				C19.1,31.7,19.1,32,19.3,32.2L19.3,32.2z M19.3,32.2"/>
			<path id="XMLID_25765_" class="st5" d="M10,23c0.1,0.1,0.2,0.2,0.4,0.2c0.1,0,0.3-0.1,0.4-0.2c0.2-0.2,0.2-0.5,0-0.7l-1.1-1.1
				h5.5c0.3,0,0.5-0.2,0.5-0.5c0-0.3-0.2-0.5-0.5-0.5H9.6l1.1-1.1c0.2-0.2,0.2-0.5,0-0.7c-0.2-0.2-0.5-0.2-0.7,0l-2,2
				c-0.2,0.2-0.2,0.5,0,0.7L10,23z M10,23"/>
			<path id="XMLID_25762_" class="st5" d="M27.7,20.6c0,0.3,0.2,0.5,0.5,0.5h5.5l-1.1,1.1c-0.2,0.2-0.2,0.5,0,0.7
				c0.1,0.1,0.2,0.2,0.4,0.2c0.1,0,0.3-0.1,0.4-0.2l2-2c0.2-0.2,0.2-0.5,0-0.7l-2-2c-0.2-0.2-0.5-0.2-0.7,0c-0.2,0.2-0.2,0.5,0,0.7
				l1.1,1.1h-5.5C27.9,20.1,27.7,20.3,27.7,20.6L27.7,20.6z M27.7,20.6"/>
		</g>
		<path id="XMLID_25757_" d="M15.6,11.2c0-0.3-0.2-0.5-0.5-0.5h-2.8c-0.3,0-0.5,0.2-0.5,0.5v2.8c0,0.3,0.2,0.5,0.5,0.5
			s0.5-0.2,0.5-0.5v-1.6l3.9,3.9c0.1,0.1,0.2,0.2,0.4,0.2c0.1,0,0.3-0.1,0.4-0.2c0.2-0.2,0.2-0.5,0-0.7l-3.9-3.9h1.6
			C15.4,11.7,15.6,11.5,15.6,11.2L15.6,11.2z M15.6,11.2"/>
		<path id="XMLID_25754_" d="M25.9,25.6l3.9,3.9h-1.6c-0.3,0-0.5,0.2-0.5,0.5c0,0.3,0.2,0.5,0.5,0.5H31c0.3,0,0.5-0.2,0.5-0.5v-2.8
			c0-0.3-0.2-0.5-0.5-0.5c-0.3,0-0.5,0.2-0.5,0.5v1.6l-3.9-3.9c-0.2-0.2-0.5-0.2-0.7,0C25.7,25.1,25.7,25.4,25.9,25.6L25.9,25.6z
			 M25.9,25.6"/>
		<path id="XMLID_25751_" d="M12.2,26.6c-0.3,0-0.5,0.2-0.5,0.5V30c0,0.3,0.2,0.5,0.5,0.5h2.8c0.3,0,0.5-0.2,0.5-0.5
			c0-0.3-0.2-0.5-0.5-0.5h-1.6l3.9-3.9c0.2-0.2,0.2-0.5,0-0.7c-0.2-0.2-0.5-0.2-0.7,0l-3.9,3.9v-1.6C12.7,26.9,12.5,26.6,12.2,26.6
			L12.2,26.6z M12.2,26.6"/>
		<path id="XMLID_25748_" d="M25.9,16.3c0.1,0.1,0.2,0.2,0.4,0.2c0.1,0,0.3-0.1,0.4-0.2l3.9-3.9v1.6c0,0.3,0.2,0.5,0.5,0.5
			c0.3,0,0.5-0.2,0.5-0.5v-2.8c0-0.3-0.2-0.5-0.5-0.5h-2.8c-0.3,0-0.5,0.2-0.5,0.5c0,0.3,0.2,0.5,0.5,0.5h1.6l-3.9,3.9
			C25.7,15.8,25.7,16.1,25.9,16.3L25.9,16.3z M25.9,16.3"/>
	</g>
</g>
</svg>
