<?xml version="1.0" encoding="utf-8"?>
<!-- Generator: Adobe Illustrator 19.0.0, SVG Export Plug-In . SVG Version: 6.00 Build 0)  -->
<svg version="1.1" id="Capa_1" xmlns="http://www.w3.org/2000/svg" xmlns:xlink="http://www.w3.org/1999/xlink" x="0px" y="0px"
	 viewBox="0 0 237.7 32.4" style="enable-background:new 0 0 237.7 32.4;" xml:space="preserve">
<style type="text/css">
	.st0{fill:#FF7F00;}
	.st1{fill:#FFFFFF;}
	.st2{fill:#575756;}
</style>
<g id="XMLID_311_">
	<path id="XMLID_19270_" class="st0" d="M232.4,32.4H5.2c-2.9,0-5.2-2.3-5.2-5.2v-22C0,2.3,2.3,0,5.2,0h227.2c2.9,0,5.2,2.3,5.2,5.2
		v22C237.7,30.1,235.3,32.4,232.4,32.4z"/>
	<g id="XMLID_19268_">
		<path id="XMLID_19269_" class="st1" d="M34.7,29.4c-0.9,0-1.7-0.8-1.7-1.7V4.8c0-0.9,0.8-1.7,1.7-1.7c0.9,0,1.7,0.8,1.7,1.7v22.9
			C36.4,28.6,35.6,29.4,34.7,29.4z"/>
	</g>
	<g id="XMLID_19266_">
		<path id="XMLID_19267_" class="st1" d="M189,29.4c-0.9,0-1.7-0.8-1.7-1.7V4.8c0-0.9,0.8-1.7,1.7-1.7c0.9,0,1.7,0.8,1.7,1.7v22.9
			C190.7,28.6,190,29.4,189,29.4z"/>
	</g>
	<g id="XMLID_19264_">
		<path id="XMLID_19265_" class="st1" d="M205.9,29.4c-0.9,0-1.7-0.8-1.7-1.7V4.8c0-0.9,0.8-1.7,1.7-1.7c0.9,0,1.7,0.8,1.7,1.7v22.9
			C207.6,28.6,206.9,29.4,205.9,29.4z"/>
	</g>
	<g id="XMLID_19262_">
		<path id="XMLID_19263_" class="st1" d="M197.5,29.4c-0.9,0-1.7-0.8-1.7-1.7V4.8c0-0.9,0.8-1.7,1.7-1.7c0.9,0,1.7,0.8,1.7,1.7v22.9
			C199.2,28.6,198.4,29.4,197.5,29.4z"/>
	</g>
	<g id="XMLID_19260_">
		<path id="XMLID_19261_" class="st1" d="M214.4,29.4c-0.9,0-1.7-0.8-1.7-1.7V4.8c0-0.9,0.8-1.7,1.7-1.7c0.9,0,1.7,0.8,1.7,1.7v22.9
			C216.1,28.6,215.3,29.4,214.4,29.4z"/>
	</g>
	<g id="XMLID_19258_">
		<path id="XMLID_19259_" class="st1" d="M222.8,29.4c-0.9,0-1.7-0.8-1.7-1.7V4.8c0-0.9,0.8-1.7,1.7-1.7c0.9,0,1.7,0.8,1.7,1.7v22.9
			C224.5,28.6,223.8,29.4,222.8,29.4z"/>
	</g>
	<circle id="XMLID_19235_" class="st1" cx="15.4" cy="16" r="10.5"/>
	<g id="XMLID_161_">
		<path id="XMLID_202_" class="st1" d="M44.8,22V11.3h2.1l4.4,7.2v-7.2h2V22h-2.2l-4.3-7v7H44.8z"/>
		<path id="XMLID_199_" class="st1" d="M55.6,13.2v-1.9h2.1v1.9H55.6z M55.6,22v-7.8h2.1V22H55.6z"/>
		<path id="XMLID_197_" class="st1" d="M61.9,22l-3.1-7.8h2.2l1.5,4l0.4,1.3c0.1-0.3,0.2-0.6,0.2-0.7c0.1-0.2,0.1-0.4,0.2-0.7l1.5-4
			h2.1L63.7,22H61.9z"/>
		<path id="XMLID_194_" class="st1" d="M72.6,19.6l2.1,0.3c-0.3,0.8-0.7,1.3-1.2,1.7c-0.6,0.4-1.3,0.6-2.1,0.6c-1.4,0-2.4-0.4-3-1.3
			c-0.5-0.7-0.8-1.6-0.8-2.7c0-1.3,0.3-2.3,1-3c0.7-0.7,1.5-1.1,2.6-1.1c1.2,0,2.1,0.4,2.7,1.1c0.7,0.8,1,1.9,1,3.5h-5.2
			c0,0.6,0.2,1.1,0.5,1.4c0.3,0.3,0.7,0.5,1.2,0.5c0.3,0,0.6-0.1,0.8-0.3S72.5,20,72.6,19.6z M72.7,17.5c0-0.6-0.2-1-0.5-1.4
			c-0.3-0.3-0.6-0.5-1.1-0.5c-0.5,0-0.8,0.2-1.1,0.5c-0.3,0.3-0.4,0.8-0.4,1.3H72.7z"/>
		<path id="XMLID_192_" class="st1" d="M76.4,22V11.3h2.1V22H76.4z"/>
		<path id="XMLID_189_" class="st1" d="M91.9,22H90v-1.1c-0.3,0.4-0.7,0.8-1.1,1c-0.4,0.2-0.9,0.3-1.3,0.3c-0.9,0-1.7-0.4-2.3-1.1
			c-0.6-0.7-1-1.7-1-3c0-1.3,0.3-2.3,0.9-3c0.6-0.7,1.4-1,2.4-1c0.9,0,1.6,0.4,2.3,1.1v-3.9h2.1V22z M86.4,18c0,0.8,0.1,1.4,0.3,1.8
			c0.3,0.5,0.8,0.8,1.4,0.8c0.5,0,0.9-0.2,1.2-0.6c0.3-0.4,0.5-1,0.5-1.8c0-0.9-0.2-1.5-0.5-1.9c-0.3-0.4-0.7-0.6-1.2-0.6
			c-0.5,0-0.9,0.2-1.2,0.6C86.6,16.6,86.4,17.2,86.4,18z"/>
		<path id="XMLID_186_" class="st1" d="M98.4,19.6l2.1,0.3c-0.3,0.8-0.7,1.3-1.2,1.7c-0.6,0.4-1.3,0.6-2.1,0.6c-1.4,0-2.4-0.4-3-1.3
			c-0.5-0.7-0.8-1.6-0.8-2.7c0-1.3,0.3-2.3,1-3c0.7-0.7,1.5-1.1,2.6-1.1c1.2,0,2.1,0.4,2.7,1.1c0.7,0.8,1,1.9,1,3.5h-5.2
			c0,0.6,0.2,1.1,0.5,1.4c0.3,0.3,0.7,0.5,1.2,0.5c0.3,0,0.6-0.1,0.8-0.3S98.3,20,98.4,19.6z M98.5,17.5c0-0.6-0.2-1-0.5-1.4
			c-0.3-0.3-0.6-0.5-1.1-0.5c-0.5,0-0.8,0.2-1.1,0.5c-0.3,0.3-0.4,0.8-0.4,1.3H98.5z"/>
		<path id="XMLID_184_" class="st1" d="M110,14.3v1.6h-1.4V19c0,0.6,0,1,0,1.1c0,0.1,0.1,0.2,0.2,0.3c0.1,0.1,0.2,0.1,0.3,0.1
			c0.2,0,0.5-0.1,0.8-0.2l0.2,1.6c-0.5,0.2-1,0.3-1.6,0.3c-0.4,0-0.7-0.1-1-0.2c-0.3-0.1-0.5-0.3-0.7-0.5c-0.1-0.2-0.2-0.5-0.3-0.8
			c0-0.2-0.1-0.7-0.1-1.4v-3.4h-0.9v-1.6h0.9v-1.5l2.1-1.2v2.7H110z"/>
		<path id="XMLID_182_" class="st1" d="M113.4,22h-2.1v-7.8h1.9v1.1c0.3-0.5,0.6-0.9,0.9-1c0.3-0.2,0.6-0.2,0.9-0.2
			c0.5,0,0.9,0.1,1.4,0.4l-0.6,1.8c-0.3-0.2-0.7-0.3-1-0.3c-0.3,0-0.5,0.1-0.7,0.2c-0.2,0.2-0.4,0.4-0.5,0.9
			c-0.1,0.4-0.2,1.3-0.2,2.6V22z"/>
		<path id="XMLID_179_" class="st1" d="M118.8,16.6l-1.9-0.3c0.2-0.8,0.6-1.3,1.1-1.7s1.3-0.5,2.3-0.5c0.9,0,1.6,0.1,2.1,0.3
			c0.4,0.2,0.8,0.5,0.9,0.8c0.2,0.3,0.3,0.9,0.3,1.8l0,2.4c0,0.7,0,1.2,0.1,1.5c0.1,0.3,0.2,0.7,0.4,1h-2c-0.1-0.1-0.1-0.3-0.2-0.6
			c0-0.1-0.1-0.2-0.1-0.2c-0.4,0.3-0.7,0.6-1.1,0.8c-0.4,0.2-0.8,0.3-1.3,0.3c-0.8,0-1.4-0.2-1.9-0.7c-0.5-0.4-0.7-1-0.7-1.6
			c0-0.4,0.1-0.8,0.3-1.2c0.2-0.3,0.5-0.6,0.9-0.8c0.4-0.2,0.9-0.3,1.6-0.5c1-0.2,1.6-0.3,2-0.5v-0.2c0-0.4-0.1-0.7-0.3-0.8
			c-0.2-0.2-0.6-0.3-1.1-0.3c-0.4,0-0.7,0.1-0.9,0.2C119.1,16,118.9,16.3,118.8,16.6z M121.6,18.3c-0.3,0.1-0.7,0.2-1.3,0.3
			s-0.9,0.2-1.1,0.4c-0.3,0.2-0.4,0.4-0.4,0.7c0,0.3,0.1,0.5,0.3,0.7c0.2,0.2,0.5,0.3,0.8,0.3c0.4,0,0.7-0.1,1.1-0.4
			c0.3-0.2,0.4-0.4,0.5-0.7c0.1-0.2,0.1-0.5,0.1-1V18.3z"/>
		<path id="XMLID_177_" class="st1" d="M132.7,22h-2.1v-4c0-0.8,0-1.4-0.1-1.6c-0.1-0.2-0.2-0.4-0.4-0.6c-0.2-0.1-0.4-0.2-0.7-0.2
			c-0.4,0-0.7,0.1-1,0.3c-0.3,0.2-0.5,0.5-0.6,0.8c-0.1,0.3-0.2,0.9-0.2,1.8V22h-2.1v-7.8h1.9v1.1c0.7-0.9,1.5-1.3,2.6-1.3
			c0.5,0,0.9,0.1,1.2,0.2c0.4,0.2,0.7,0.4,0.9,0.6c0.2,0.3,0.3,0.5,0.4,0.9c0.1,0.3,0.1,0.8,0.1,1.4V22z"/>
		<path id="XMLID_175_" class="st1" d="M134,19.8l2.1-0.3c0.1,0.4,0.3,0.7,0.5,0.9c0.3,0.2,0.6,0.3,1.1,0.3c0.5,0,0.9-0.1,1.2-0.3
			c0.2-0.1,0.3-0.3,0.3-0.5c0-0.2,0-0.3-0.1-0.4c-0.1-0.1-0.3-0.2-0.7-0.3c-1.7-0.4-2.7-0.7-3.2-1c-0.6-0.4-0.9-1-0.9-1.8
			c0-0.7,0.3-1.2,0.8-1.7s1.4-0.7,2.5-0.7c1.1,0,1.9,0.2,2.4,0.5s0.9,0.9,1.1,1.5l-1.9,0.4c-0.1-0.3-0.2-0.5-0.5-0.7
			c-0.2-0.2-0.6-0.2-1-0.2c-0.5,0-0.9,0.1-1.2,0.2c-0.2,0.1-0.2,0.2-0.2,0.4c0,0.1,0.1,0.3,0.2,0.4c0.2,0.1,0.8,0.3,1.9,0.6
			c1.1,0.2,1.9,0.6,2.3,0.9c0.4,0.4,0.6,0.9,0.6,1.5c0,0.7-0.3,1.3-0.9,1.8c-0.6,0.5-1.5,0.8-2.6,0.8c-1.1,0-1.9-0.2-2.5-0.6
			C134.6,21.1,134.2,20.6,134,19.8z"/>
		<path id="XMLID_172_" class="st1" d="M143.1,14.3h1.9v1.1c0.2-0.4,0.6-0.7,1-1c0.4-0.2,0.9-0.4,1.4-0.4c0.9,0,1.7,0.4,2.3,1.1
			c0.6,0.7,0.9,1.7,0.9,3c0,1.3-0.3,2.3-1,3c-0.6,0.7-1.4,1.1-2.3,1.1c-0.4,0-0.8-0.1-1.2-0.3c-0.3-0.2-0.7-0.5-1.1-0.9V25h-2.1
			V14.3z M145.1,18c0,0.9,0.2,1.5,0.5,1.9c0.3,0.4,0.8,0.6,1.3,0.6c0.5,0,0.9-0.2,1.2-0.6c0.3-0.4,0.5-1,0.5-1.9
			c0-0.8-0.2-1.4-0.5-1.8c-0.3-0.4-0.7-0.6-1.2-0.6c-0.5,0-0.9,0.2-1.3,0.6C145.3,16.7,145.1,17.3,145.1,18z"/>
		<path id="XMLID_169_" class="st1" d="M151.8,18c0-0.7,0.2-1.3,0.5-2c0.3-0.6,0.8-1.1,1.4-1.5c0.6-0.3,1.3-0.5,2.1-0.5
			c1.2,0,2.1,0.4,2.9,1.1c0.8,0.8,1.1,1.7,1.1,2.9c0,1.2-0.4,2.2-1.1,2.9c-0.8,0.8-1.7,1.2-2.9,1.2c-0.7,0-1.4-0.2-2-0.5
			c-0.6-0.3-1.1-0.8-1.5-1.4C152,19.7,151.8,18.9,151.8,18z M153.9,18.1c0,0.8,0.2,1.4,0.5,1.8c0.4,0.4,0.8,0.6,1.4,0.6
			s1-0.2,1.4-0.6c0.4-0.4,0.5-1,0.5-1.8c0-0.8-0.2-1.3-0.5-1.8c-0.4-0.4-0.8-0.6-1.4-0.6s-1,0.2-1.4,0.6
			C154.1,16.8,153.9,17.4,153.9,18.1z"/>
		<path id="XMLID_162_" class="st1" d="M163.4,22h-2.1v-7.8h1.9v1.1c0.3-0.5,0.6-0.9,0.9-1c0.3-0.2,0.6-0.2,0.9-0.2
			c0.5,0,0.9,0.1,1.4,0.4l-0.6,1.8c-0.3-0.2-0.7-0.3-1-0.3c-0.3,0-0.5,0.1-0.7,0.2c-0.2,0.2-0.4,0.4-0.5,0.9
			c-0.1,0.4-0.2,1.3-0.2,2.6V22z"/>
		<path id="XMLID_163_" class="st1" d="M170.8,14.3v1.6h-1.4V19c0,0.6,0,1,0,1.1c0,0.1,0.1,0.2,0.2,0.3c0.1,0.1,0.2,0.1,0.3,0.1
			c0.2,0,0.5-0.1,0.8-0.2l0.2,1.6c-0.5,0.2-1,0.3-1.6,0.3c-0.4,0-0.7-0.1-1-0.2c-0.3-0.1-0.5-0.3-0.7-0.5c-0.1-0.2-0.2-0.5-0.3-0.8
			c0-0.2-0.1-0.7-0.1-1.4v-3.4h-0.9v-1.6h0.9v-1.5l2.1-1.2v2.7H170.8z"/>
		<path id="XMLID_165_" class="st1" d="M176.8,19.6l2.1,0.3c-0.3,0.8-0.7,1.3-1.2,1.7c-0.6,0.4-1.3,0.6-2.1,0.6
			c-1.4,0-2.4-0.4-3-1.3c-0.5-0.7-0.8-1.6-0.8-2.7c0-1.3,0.3-2.3,1-3c0.7-0.7,1.5-1.1,2.6-1.1c1.2,0,2.1,0.4,2.7,1.1
			c0.7,0.8,1,1.9,1,3.5h-5.2c0,0.6,0.2,1.1,0.5,1.4c0.3,0.3,0.7,0.5,1.2,0.5c0.3,0,0.6-0.1,0.8-0.3S176.7,20,176.8,19.6z
			 M176.9,17.5c0-0.6-0.2-1-0.5-1.4c-0.3-0.3-0.6-0.5-1.1-0.5c-0.5,0-0.8,0.2-1.1,0.5c-0.3,0.3-0.4,0.8-0.4,1.3H176.9z"/>
	</g>
	<g id="XMLID_157_">
		<path id="XMLID_158_" class="st2" d="M16.2,21v-2h-4.1v-1.7l4.3-6.4H18v6.4h1.2V19H18v2H16.2z M16.2,17.3v-3.4l-2.3,3.4H16.2z"/>
	</g>
</g>
</svg>
