<?xml version="1.0" encoding="utf-8"?>
<!-- Generator: Adobe Illustrator 19.0.0, SVG Export Plug-In . SVG Version: 6.00 Build 0)  -->
<svg version="1.1" id="Capa_1" xmlns="http://www.w3.org/2000/svg" xmlns:xlink="http://www.w3.org/1999/xlink" x="0px" y="0px"
	 viewBox="0 0 237.7 32.4" style="enable-background:new 0 0 237.7 32.4;" xml:space="preserve">
<style type="text/css">
	.st0{fill:#3B86B1;}
	.st1{fill:#FFFFFF;}
	.st2{fill:#575756;}
</style>
<g id="XMLID_314_">
	<path id="XMLID_19220_" class="st0" d="M232.4,32.4H5.2c-2.9,0-5.2-2.3-5.2-5.2v-22C0,2.3,2.3,0,5.2,0h227.2c2.9,0,5.2,2.3,5.2,5.2
		v22C237.7,30.1,235.3,32.4,232.4,32.4z"/>
	<g id="XMLID_19218_">
		<path id="XMLID_19219_" class="st1" d="M34.7,29.4c-0.9,0-1.7-0.8-1.7-1.7V4.8c0-0.9,0.8-1.7,1.7-1.7c0.9,0,1.7,0.8,1.7,1.7v22.9
			C36.4,28.6,35.6,29.4,34.7,29.4z"/>
	</g>
	<circle id="XMLID_19217_" class="st1" cx="15.4" cy="16" r="10.5"/>
	<g id="XMLID_160_">
		<path id="XMLID_186_" class="st1" d="M44.8,22V11.3h2.1l4.4,7.2v-7.2h2V22h-2.2l-4.3-7v7H44.8z"/>
		<path id="XMLID_183_" class="st1" d="M55.6,13.2v-1.9h2.1v1.9H55.6z M55.6,22v-7.8h2.1V22H55.6z"/>
		<path id="XMLID_181_" class="st1" d="M61.9,22l-3.1-7.8h2.2l1.5,4l0.4,1.3c0.1-0.3,0.2-0.6,0.2-0.7c0.1-0.2,0.1-0.4,0.2-0.7l1.5-4
			h2.1L63.7,22H61.9z"/>
		<path id="XMLID_178_" class="st1" d="M72.6,19.6l2.1,0.3c-0.3,0.8-0.7,1.3-1.2,1.7c-0.6,0.4-1.3,0.6-2.1,0.6c-1.4,0-2.4-0.4-3-1.3
			c-0.5-0.7-0.8-1.6-0.8-2.7c0-1.3,0.3-2.3,1-3c0.7-0.7,1.5-1.1,2.6-1.1c1.2,0,2.1,0.4,2.7,1.1c0.7,0.8,1,1.9,1,3.5h-5.2
			c0,0.6,0.2,1.1,0.5,1.4c0.3,0.3,0.7,0.5,1.2,0.5c0.3,0,0.6-0.1,0.8-0.3S72.5,20,72.6,19.6z M72.7,17.5c0-0.6-0.2-1-0.5-1.4
			c-0.3-0.3-0.6-0.5-1.1-0.5c-0.5,0-0.8,0.2-1.1,0.5c-0.3,0.3-0.4,0.8-0.4,1.3H72.7z"/>
		<path id="XMLID_176_" class="st1" d="M76.4,22V11.3h2.1V22H76.4z"/>
		<path id="XMLID_174_" class="st1" d="M83.9,14.3H85v-0.6c0-0.7,0.1-1.1,0.2-1.5c0.1-0.3,0.4-0.6,0.8-0.8c0.4-0.2,0.8-0.3,1.4-0.3
			c0.6,0,1.2,0.1,1.7,0.3l-0.3,1.4c-0.3-0.1-0.6-0.1-0.9-0.1c-0.3,0-0.5,0.1-0.6,0.2c-0.1,0.1-0.2,0.4-0.2,0.8v0.6h1.5v1.6h-1.5V22
			H85v-6.2h-1.1V14.3z"/>
		<path id="XMLID_171_" class="st1" d="M89.6,13.3l1-2.2h2.3l-2,2.2H89.6z M89.8,22v-7.8h2.1V22H89.8z"/>
		<path id="XMLID_169_" class="st1" d="M93.2,19.8l2.1-0.3c0.1,0.4,0.3,0.7,0.5,0.9c0.3,0.2,0.6,0.3,1.1,0.3c0.5,0,0.9-0.1,1.2-0.3
			c0.2-0.1,0.3-0.3,0.3-0.5c0-0.2,0-0.3-0.1-0.4c-0.1-0.1-0.3-0.2-0.7-0.3c-1.7-0.4-2.7-0.7-3.2-1c-0.6-0.4-0.9-1-0.9-1.8
			c0-0.7,0.3-1.2,0.8-1.7s1.4-0.7,2.5-0.7c1.1,0,1.9,0.2,2.4,0.5c0.5,0.3,0.9,0.9,1.1,1.5l-1.9,0.4c-0.1-0.3-0.2-0.5-0.5-0.7
			c-0.2-0.2-0.6-0.2-1-0.2c-0.5,0-0.9,0.1-1.2,0.2c-0.2,0.1-0.2,0.2-0.2,0.4c0,0.1,0.1,0.3,0.2,0.4c0.2,0.1,0.8,0.3,1.9,0.6
			c1.1,0.2,1.9,0.6,2.3,0.9c0.4,0.4,0.6,0.9,0.6,1.5c0,0.7-0.3,1.3-0.9,1.8c-0.6,0.5-1.5,0.8-2.6,0.8c-1.1,0-1.9-0.2-2.5-0.6
			C93.8,21.1,93.4,20.6,93.2,19.8z"/>
		<path id="XMLID_166_" class="st1" d="M102.3,13.2v-1.9h2.1v1.9H102.3z M102.3,22v-7.8h2.1V22H102.3z"/>
		<path id="XMLID_164_" class="st1" d="M113.2,16.6l-2,0.4c-0.1-0.4-0.2-0.7-0.5-0.9c-0.2-0.2-0.6-0.3-0.9-0.3
			c-0.5,0-0.9,0.2-1.2,0.5c-0.3,0.4-0.5,0.9-0.5,1.8c0,0.9,0.2,1.6,0.5,2c0.3,0.4,0.7,0.6,1.2,0.6c0.4,0,0.7-0.1,1-0.3
			c0.3-0.2,0.4-0.6,0.5-1.1l2,0.3c-0.2,0.9-0.6,1.6-1.2,2.1c-0.6,0.5-1.4,0.7-2.4,0.7c-1.1,0-2-0.4-2.7-1.1c-0.7-0.7-1-1.7-1-3
			c0-1.3,0.3-2.3,1-3s1.6-1.1,2.8-1.1c0.9,0,1.7,0.2,2.3,0.6C112.6,15.1,113,15.7,113.2,16.6z"/>
		<path id="XMLID_161_" class="st1" d="M114.3,18c0-0.7,0.2-1.3,0.5-2c0.3-0.6,0.8-1.1,1.4-1.5c0.6-0.3,1.3-0.5,2.1-0.5
			c1.2,0,2.1,0.4,2.9,1.1c0.8,0.8,1.1,1.7,1.1,2.9c0,1.2-0.4,2.2-1.1,2.9c-0.8,0.8-1.7,1.2-2.9,1.2c-0.7,0-1.4-0.2-2-0.5
			c-0.6-0.3-1.1-0.8-1.5-1.4C114.5,19.7,114.3,18.9,114.3,18z M116.4,18.1c0,0.8,0.2,1.4,0.5,1.8c0.4,0.4,0.8,0.6,1.4,0.6
			s1-0.2,1.4-0.6c0.4-0.4,0.5-1,0.5-1.8c0-0.8-0.2-1.3-0.5-1.8c-0.4-0.4-0.8-0.6-1.4-0.6s-1,0.2-1.4,0.6
			C116.6,16.8,116.4,17.4,116.4,18.1z"/>
	</g>
	<g id="XMLID_157_">
		<path id="XMLID_158_" class="st2" d="M12.4,12.9v-1.8H19v1.4c-0.5,0.5-1.1,1.3-1.7,2.3s-1,2.1-1.3,3.2c-0.3,1.1-0.4,2.1-0.4,3
			h-1.9c0-1.4,0.3-2.8,0.9-4.2c0.5-1.4,1.3-2.7,2.2-3.9H12.4z"/>
	</g>
	<g id="XMLID_19208_">
		<circle id="XMLID_19214_" class="st1" cx="172.3" cy="17.3" r="5.1"/>
		<circle id="XMLID_19213_" class="st1" cx="155.6" cy="17.3" r="5.1"/>
		<circle id="XMLID_19212_" class="st1" cx="138.9" cy="17.3" r="5.1"/>
		<circle id="XMLID_19211_" class="st1" cx="222.3" cy="17.3" r="5.1"/>
		<circle id="XMLID_19210_" class="st1" cx="205.6" cy="17.3" r="5.1"/>
		<circle id="XMLID_19209_" class="st1" cx="188.9" cy="17.3" r="5.1"/>
	</g>
</g>
</svg>
