<?xml version="1.0" encoding="utf-8"?>
<!-- Generator: Adobe Illustrator 19.0.0, SVG Export Plug-In . SVG Version: 6.00 Build 0)  -->
<svg version="1.1" id="Capa_1" xmlns="http://www.w3.org/2000/svg" xmlns:xlink="http://www.w3.org/1999/xlink" x="0px" y="0px"
	 viewBox="0 0 237.7 32.4" style="enable-background:new 0 0 237.7 32.4;" xml:space="preserve">
<style type="text/css">
	.st0{fill:#2FB5B0;}
	.st1{fill:#FFFFFF;}
	.st2{fill:#575756;}
</style>
<g id="XMLID_309_">
	<path id="XMLID_19282_" class="st0" d="M232.4,32.4H5.2c-2.9,0-5.2-2.3-5.2-5.2v-22C0,2.3,2.3,0,5.2,0h227.2c2.9,0,5.2,2.3,5.2,5.2
		v22C237.7,30.1,235.3,32.4,232.4,32.4z"/>
	<g id="XMLID_19280_">
		<path id="XMLID_19281_" class="st1" d="M34.7,29.4c-0.9,0-1.7-0.8-1.7-1.7V4.8c0-0.9,0.8-1.7,1.7-1.7c0.9,0,1.7,0.8,1.7,1.7v22.9
			C36.4,28.6,35.6,29.4,34.7,29.4z"/>
	</g>
	<circle id="XMLID_19279_" class="st1" cx="15.4" cy="16" r="10.5"/>
	<g id="XMLID_209_">
		<path id="XMLID_210_" class="st1" d="M44.8,22V11.3h2.1l4.4,7.2v-7.2h2V22h-2.2l-4.3-7v7H44.8z"/>
		<path id="XMLID_212_" class="st1" d="M55.6,13.2v-1.9h2.1v1.9H55.6z M55.6,22v-7.8h2.1V22H55.6z"/>
		<path id="XMLID_215_" class="st1" d="M61.9,22l-3.1-7.8h2.2l1.5,4l0.4,1.3c0.1-0.3,0.2-0.6,0.2-0.7c0.1-0.2,0.1-0.4,0.2-0.7l1.5-4
			h2.1L63.7,22H61.9z"/>
		<path id="XMLID_217_" class="st1" d="M72.6,19.6l2.1,0.3c-0.3,0.8-0.7,1.3-1.2,1.7c-0.6,0.4-1.3,0.6-2.1,0.6c-1.4,0-2.4-0.4-3-1.3
			c-0.5-0.7-0.8-1.6-0.8-2.7c0-1.3,0.3-2.3,1-3c0.7-0.7,1.5-1.1,2.6-1.1c1.2,0,2.1,0.4,2.7,1.1c0.7,0.8,1,1.9,1,3.5h-5.2
			c0,0.6,0.2,1.1,0.5,1.4c0.3,0.3,0.7,0.5,1.2,0.5c0.3,0,0.6-0.1,0.8-0.3S72.5,20,72.6,19.6z M72.7,17.5c0-0.6-0.2-1-0.5-1.4
			c-0.3-0.3-0.6-0.5-1.1-0.5c-0.5,0-0.8,0.2-1.1,0.5c-0.3,0.3-0.4,0.8-0.4,1.3H72.7z"/>
		<path id="XMLID_220_" class="st1" d="M76.4,22V11.3h2.1V22H76.4z"/>
		<path id="XMLID_222_" class="st1" d="M91.9,22H90v-1.1c-0.3,0.4-0.7,0.8-1.1,1c-0.4,0.2-0.9,0.3-1.3,0.3c-0.9,0-1.7-0.4-2.3-1.1
			c-0.6-0.7-1-1.7-1-3c0-1.3,0.3-2.3,0.9-3c0.6-0.7,1.4-1,2.4-1c0.9,0,1.6,0.4,2.3,1.1v-3.9h2.1V22z M86.4,18c0,0.8,0.1,1.4,0.3,1.8
			c0.3,0.5,0.8,0.8,1.4,0.8c0.5,0,0.9-0.2,1.2-0.6c0.3-0.4,0.5-1,0.5-1.8c0-0.9-0.2-1.5-0.5-1.9c-0.3-0.4-0.7-0.6-1.2-0.6
			c-0.5,0-0.9,0.2-1.2,0.6C86.6,16.6,86.4,17.2,86.4,18z"/>
		<path id="XMLID_225_" class="st1" d="M98.4,19.6l2.1,0.3c-0.3,0.8-0.7,1.3-1.2,1.7c-0.6,0.4-1.3,0.6-2.1,0.6c-1.4,0-2.4-0.4-3-1.3
			c-0.5-0.7-0.8-1.6-0.8-2.7c0-1.3,0.3-2.3,1-3c0.7-0.7,1.5-1.1,2.6-1.1c1.2,0,2.1,0.4,2.7,1.1c0.7,0.8,1,1.9,1,3.5h-5.2
			c0,0.6,0.2,1.1,0.5,1.4c0.3,0.3,0.7,0.5,1.2,0.5c0.3,0,0.6-0.1,0.8-0.3S98.3,20,98.4,19.6z M98.5,17.5c0-0.6-0.2-1-0.5-1.4
			c-0.3-0.3-0.6-0.5-1.1-0.5c-0.5,0-0.8,0.2-1.1,0.5c-0.3,0.3-0.4,0.8-0.4,1.3H98.5z"/>
		<path id="XMLID_228_" class="st1" d="M106.4,14.3h1.9v1.1c0.2-0.4,0.6-0.7,1-1c0.4-0.2,0.9-0.4,1.4-0.4c0.9,0,1.7,0.4,2.3,1.1
			c0.6,0.7,0.9,1.7,0.9,3c0,1.3-0.3,2.3-1,3c-0.6,0.7-1.4,1.1-2.3,1.1c-0.4,0-0.8-0.1-1.2-0.3c-0.3-0.2-0.7-0.5-1.1-0.9V25h-2.1
			V14.3z M108.4,18c0,0.9,0.2,1.5,0.5,1.9c0.3,0.4,0.8,0.6,1.3,0.6c0.5,0,0.9-0.2,1.2-0.6c0.3-0.4,0.5-1,0.5-1.9
			c0-0.8-0.2-1.4-0.5-1.8c-0.3-0.4-0.7-0.6-1.2-0.6c-0.5,0-0.9,0.2-1.3,0.6C108.6,16.7,108.4,17.3,108.4,18z"/>
		<path id="XMLID_231_" class="st1" d="M117.6,22h-2.1v-7.8h1.9v1.1c0.3-0.5,0.6-0.9,0.9-1c0.3-0.2,0.6-0.2,0.9-0.2
			c0.5,0,0.9,0.1,1.4,0.4l-0.6,1.8c-0.3-0.2-0.7-0.3-1-0.3c-0.3,0-0.5,0.1-0.7,0.2c-0.2,0.2-0.4,0.4-0.5,0.9
			c-0.1,0.4-0.2,1.3-0.2,2.6V22z"/>
		<path id="XMLID_233_" class="st1" d="M125.9,19.6l2.1,0.3c-0.3,0.8-0.7,1.3-1.2,1.7c-0.6,0.4-1.3,0.6-2.1,0.6
			c-1.4,0-2.4-0.4-3-1.3c-0.5-0.7-0.8-1.6-0.8-2.7c0-1.3,0.3-2.3,1-3c0.7-0.7,1.5-1.1,2.6-1.1c1.2,0,2.1,0.4,2.7,1.1
			c0.7,0.8,1,1.9,1,3.5h-5.2c0,0.6,0.2,1.1,0.5,1.4c0.3,0.3,0.7,0.5,1.2,0.5c0.3,0,0.6-0.1,0.8-0.3S125.8,20,125.9,19.6z
			 M126.1,17.5c0-0.6-0.2-1-0.5-1.4c-0.3-0.3-0.6-0.5-1.1-0.5c-0.5,0-0.8,0.2-1.1,0.5c-0.3,0.3-0.4,0.8-0.4,1.3H126.1z"/>
		<path id="XMLID_236_" class="st1" d="M129,19.8l2.1-0.3c0.1,0.4,0.3,0.7,0.5,0.9c0.3,0.2,0.6,0.3,1.1,0.3c0.5,0,0.9-0.1,1.2-0.3
			c0.2-0.1,0.3-0.3,0.3-0.5c0-0.2,0-0.3-0.1-0.4c-0.1-0.1-0.3-0.2-0.7-0.3c-1.7-0.4-2.7-0.7-3.2-1c-0.6-0.4-0.9-1-0.9-1.8
			c0-0.7,0.3-1.2,0.8-1.7s1.4-0.7,2.5-0.7c1.1,0,1.9,0.2,2.4,0.5s0.9,0.9,1.1,1.5l-1.9,0.4c-0.1-0.3-0.2-0.5-0.5-0.7
			c-0.2-0.2-0.6-0.2-1-0.2c-0.5,0-0.9,0.1-1.2,0.2c-0.2,0.1-0.2,0.2-0.2,0.4c0,0.1,0.1,0.3,0.2,0.4c0.2,0.1,0.8,0.3,1.9,0.6
			c1.1,0.2,1.9,0.6,2.3,0.9c0.4,0.4,0.6,0.9,0.6,1.5c0,0.7-0.3,1.3-0.9,1.8c-0.6,0.5-1.5,0.8-2.6,0.8c-1.1,0-1.9-0.2-2.5-0.6
			C129.6,21.1,129.2,20.6,129,19.8z"/>
		<path id="XMLID_238_" class="st1" d="M142.6,19.6l2.1,0.3c-0.3,0.8-0.7,1.3-1.2,1.7c-0.6,0.4-1.3,0.6-2.1,0.6
			c-1.4,0-2.4-0.4-3-1.3c-0.5-0.7-0.8-1.6-0.8-2.7c0-1.3,0.3-2.3,1-3c0.7-0.7,1.5-1.1,2.6-1.1c1.2,0,2.1,0.4,2.7,1.1
			c0.7,0.8,1,1.9,1,3.5h-5.2c0,0.6,0.2,1.1,0.5,1.4c0.3,0.3,0.7,0.5,1.2,0.5c0.3,0,0.6-0.1,0.8-0.3S142.5,20,142.6,19.6z
			 M142.7,17.5c0-0.6-0.2-1-0.5-1.4c-0.3-0.3-0.6-0.5-1.1-0.5c-0.5,0-0.8,0.2-1.1,0.5c-0.3,0.3-0.4,0.8-0.4,1.3H142.7z"/>
		<path id="XMLID_241_" class="st1" d="M153.5,22h-2.1v-4c0-0.8,0-1.4-0.1-1.6c-0.1-0.2-0.2-0.4-0.4-0.6c-0.2-0.1-0.4-0.2-0.7-0.2
			c-0.4,0-0.7,0.1-1,0.3c-0.3,0.2-0.5,0.5-0.6,0.8c-0.1,0.3-0.2,0.9-0.2,1.8V22h-2.1v-7.8h1.9v1.1c0.7-0.9,1.5-1.3,2.6-1.3
			c0.5,0,0.9,0.1,1.2,0.2c0.4,0.2,0.7,0.4,0.9,0.6c0.2,0.3,0.3,0.5,0.4,0.9c0.1,0.3,0.1,0.8,0.1,1.4V22z"/>
		<path id="XMLID_243_" class="st1" d="M159.2,14.3v1.6h-1.4V19c0,0.6,0,1,0,1.1c0,0.1,0.1,0.2,0.2,0.3c0.1,0.1,0.2,0.1,0.3,0.1
			c0.2,0,0.5-0.1,0.8-0.2l0.2,1.6c-0.5,0.2-1,0.3-1.6,0.3c-0.4,0-0.7-0.1-1-0.2c-0.3-0.1-0.5-0.3-0.7-0.5c-0.1-0.2-0.2-0.5-0.3-0.8
			c0-0.2-0.1-0.7-0.1-1.4v-3.4h-0.9v-1.6h0.9v-1.5l2.1-1.2v2.7H159.2z"/>
		<path id="XMLID_245_" class="st1" d="M162.2,16.6l-1.9-0.3c0.2-0.8,0.6-1.3,1.1-1.7s1.3-0.5,2.3-0.5c0.9,0,1.6,0.1,2.1,0.3
			c0.4,0.2,0.8,0.5,0.9,0.8c0.2,0.3,0.3,0.9,0.3,1.8l0,2.4c0,0.7,0,1.2,0.1,1.5c0.1,0.3,0.2,0.7,0.4,1h-2c-0.1-0.1-0.1-0.3-0.2-0.6
			c0-0.1-0.1-0.2-0.1-0.2c-0.4,0.3-0.7,0.6-1.1,0.8c-0.4,0.2-0.8,0.3-1.3,0.3c-0.8,0-1.4-0.2-1.9-0.7c-0.5-0.4-0.7-1-0.7-1.6
			c0-0.4,0.1-0.8,0.3-1.2c0.2-0.3,0.5-0.6,0.9-0.8c0.4-0.2,0.9-0.3,1.6-0.5c1-0.2,1.6-0.3,2-0.5v-0.2c0-0.4-0.1-0.7-0.3-0.8
			c-0.2-0.2-0.6-0.3-1.1-0.3c-0.4,0-0.7,0.1-0.9,0.2C162.4,16,162.3,16.3,162.2,16.6z M164.9,18.3c-0.3,0.1-0.7,0.2-1.3,0.3
			s-0.9,0.2-1.1,0.4c-0.3,0.2-0.4,0.4-0.4,0.7c0,0.3,0.1,0.5,0.3,0.7c0.2,0.2,0.5,0.3,0.8,0.3c0.4,0,0.7-0.1,1.1-0.4
			c0.3-0.2,0.4-0.4,0.5-0.7c0.1-0.2,0.1-0.5,0.1-1V18.3z"/>
		<path id="XMLID_248_" class="st1" d="M175.7,16.6l-2,0.4c-0.1-0.4-0.2-0.7-0.5-0.9c-0.2-0.2-0.6-0.3-0.9-0.3
			c-0.5,0-0.9,0.2-1.2,0.5c-0.3,0.4-0.5,0.9-0.5,1.8c0,0.9,0.2,1.6,0.5,2c0.3,0.4,0.7,0.6,1.2,0.6c0.4,0,0.7-0.1,1-0.3
			c0.3-0.2,0.4-0.6,0.5-1.1l2,0.3c-0.2,0.9-0.6,1.6-1.2,2.1c-0.6,0.5-1.4,0.7-2.4,0.7c-1.1,0-2-0.4-2.7-1.1c-0.7-0.7-1-1.7-1-3
			c0-1.3,0.3-2.3,1-3c0.7-0.7,1.6-1.1,2.8-1.1c0.9,0,1.7,0.2,2.3,0.6C175.1,15.1,175.5,15.7,175.7,16.6z"/>
		<path id="XMLID_250_" class="st1" d="M177.3,13.2v-1.9h2.1v1.9H177.3z M177.3,22v-7.8h2.1V22H177.3z"/>
		<path id="XMLID_253_" class="st1" d="M181,18c0-0.7,0.2-1.3,0.5-2c0.3-0.6,0.8-1.1,1.4-1.5c0.6-0.3,1.3-0.5,2.1-0.5
			c1.2,0,2.1,0.4,2.9,1.1c0.8,0.8,1.1,1.7,1.1,2.9c0,1.2-0.4,2.2-1.1,2.9c-0.8,0.8-1.7,1.2-2.9,1.2c-0.7,0-1.4-0.2-2-0.5
			c-0.6-0.3-1.1-0.8-1.5-1.4C181.2,19.7,181,18.9,181,18z M183.1,18.1c0,0.8,0.2,1.4,0.5,1.8c0.4,0.4,0.8,0.6,1.4,0.6s1-0.2,1.4-0.6
			c0.4-0.4,0.5-1,0.5-1.8c0-0.8-0.2-1.3-0.5-1.8c-0.4-0.4-0.8-0.6-1.4-0.6s-1,0.2-1.4,0.6C183.3,16.8,183.1,17.4,183.1,18.1z
			 M184,13.3l1-2.2h2.3l-2,2.2H184z"/>
		<path id="XMLID_257_" class="st1" d="M197.7,22h-2.1v-4c0-0.8,0-1.4-0.1-1.6c-0.1-0.2-0.2-0.4-0.4-0.6c-0.2-0.1-0.4-0.2-0.7-0.2
			c-0.4,0-0.7,0.1-1,0.3c-0.3,0.2-0.5,0.5-0.6,0.8c-0.1,0.3-0.2,0.9-0.2,1.8V22h-2.1v-7.8h1.9v1.1c0.7-0.9,1.5-1.3,2.6-1.3
			c0.5,0,0.9,0.1,1.2,0.2c0.4,0.2,0.7,0.4,0.9,0.6c0.2,0.3,0.3,0.5,0.4,0.9c0.1,0.3,0.1,0.8,0.1,1.4V22z"/>
	</g>
	<g id="XMLID_206_">
		<path id="XMLID_207_" class="st2" d="M18.9,19.3V21h-6.7c0.1-0.7,0.3-1.3,0.7-1.9c0.4-0.6,1.1-1.4,2.2-2.4
			c0.9-0.8,1.4-1.4,1.6-1.6c0.3-0.4,0.4-0.8,0.4-1.2c0-0.4-0.1-0.8-0.3-1c-0.2-0.2-0.5-0.3-1-0.3c-0.4,0-0.7,0.1-1,0.4
			s-0.4,0.6-0.4,1.2l-1.9-0.2c0.1-1.1,0.5-1.8,1.1-2.3s1.4-0.7,2.3-0.7c1,0,1.8,0.3,2.3,0.8s0.8,1.2,0.8,2c0,0.5-0.1,0.9-0.2,1.3
			c-0.2,0.4-0.4,0.8-0.8,1.3c-0.2,0.3-0.7,0.7-1.3,1.3s-1,0.9-1.2,1.1c-0.2,0.2-0.3,0.4-0.4,0.5H18.9z"/>
	</g>
	<g id="XMLID_19240_">
		<path id="XMLID_19241_" class="st1" d="M214.1,29.8c-0.9,0-1.7-0.8-1.7-1.7V5.2c0-0.9,0.8-1.7,1.7-1.7c0.9,0,1.7,0.8,1.7,1.7v22.9
			C215.8,29,215,29.8,214.1,29.8z"/>
	</g>
	<g id="XMLID_19238_">
		<path id="XMLID_19239_" class="st1" d="M205.4,29.8c-0.9,0-1.7-0.8-1.7-1.7V5.2c0-0.9,0.8-1.7,1.7-1.7c0.9,0,1.7,0.8,1.7,1.7v22.9
			C207.1,29,206.3,29.8,205.4,29.8z"/>
	</g>
	<g id="XMLID_19236_">
		<path id="XMLID_19237_" class="st1" d="M222.8,29.8c-0.9,0-1.7-0.8-1.7-1.7V5.2c0-0.9,0.8-1.7,1.7-1.7c0.9,0,1.7,0.8,1.7,1.7v22.9
			C224.5,29,223.8,29.8,222.8,29.8z"/>
	</g>
</g>
</svg>
