<?xml version="1.0" encoding="utf-8"?>
<!-- Generator: Adobe Illustrator 19.0.0, SVG Export Plug-In . SVG Version: 6.00 Build 0)  -->
<svg version="1.1" id="Capa_1" xmlns="http://www.w3.org/2000/svg" xmlns:xlink="http://www.w3.org/1999/xlink" x="0px" y="0px"
	 viewBox="0 0 237.7 32.4" style="enable-background:new 0 0 237.7 32.4;" xml:space="preserve">
<style type="text/css">
	.st0{fill:#575756;}
	.st1{fill:#FFFFFF;}
</style>
<g id="XMLID_310_">
	<path id="XMLID_19276_" class="st0" d="M232.4,32.4H5.2c-2.9,0-5.2-2.3-5.2-5.2v-22C0,2.3,2.3,0,5.2,0h227.2c2.9,0,5.2,2.3,5.2,5.2
		v22C237.7,30.1,235.3,32.4,232.4,32.4z"/>
	<g id="XMLID_19274_">
		<path id="XMLID_19275_" class="st1" d="M34.7,29.4c-0.9,0-1.7-0.8-1.7-1.7V4.8c0-0.9,0.8-1.7,1.7-1.7c0.9,0,1.7,0.8,1.7,1.7v22.9
			C36.4,28.6,35.6,29.4,34.7,29.4z"/>
	</g>
	<circle id="XMLID_19273_" class="st1" cx="15.4" cy="16" r="10.5"/>
	<g id="XMLID_171_">
		<path id="XMLID_172_" class="st1" d="M44.8,22V11.3h2.1l4.4,7.2v-7.2h2V22h-2.2l-4.3-7v7H44.8z"/>
		<path id="XMLID_174_" class="st1" d="M55.6,13.2v-1.9h2.1v1.9H55.6z M55.6,22v-7.8h2.1V22H55.6z"/>
		<path id="XMLID_177_" class="st1" d="M61.9,22l-3.1-7.8h2.2l1.5,4l0.4,1.3c0.1-0.3,0.2-0.6,0.2-0.7c0.1-0.2,0.1-0.4,0.2-0.7l1.5-4
			h2.1L63.7,22H61.9z"/>
		<path id="XMLID_179_" class="st1" d="M72.6,19.6l2.1,0.3c-0.3,0.8-0.7,1.3-1.2,1.7c-0.6,0.4-1.3,0.6-2.1,0.6c-1.4,0-2.4-0.4-3-1.3
			c-0.5-0.7-0.8-1.6-0.8-2.7c0-1.3,0.3-2.3,1-3c0.7-0.7,1.5-1.1,2.6-1.1c1.2,0,2.1,0.4,2.7,1.1c0.7,0.8,1,1.9,1,3.5h-5.2
			c0,0.6,0.2,1.1,0.5,1.4c0.3,0.3,0.7,0.5,1.2,0.5c0.3,0,0.6-0.1,0.8-0.3S72.5,20,72.6,19.6z M72.7,17.5c0-0.6-0.2-1-0.5-1.4
			c-0.3-0.3-0.6-0.5-1.1-0.5c-0.5,0-0.8,0.2-1.1,0.5s-0.4,0.8-0.4,1.3H72.7z"/>
		<path id="XMLID_182_" class="st1" d="M76.4,22V11.3h2.1V22H76.4z"/>
		<path id="XMLID_184_" class="st1" d="M91.9,22H90v-1.1c-0.3,0.4-0.7,0.8-1.1,1c-0.4,0.2-0.9,0.3-1.3,0.3c-0.9,0-1.7-0.4-2.3-1.1
			c-0.6-0.7-1-1.7-1-3c0-1.3,0.3-2.3,0.9-3c0.6-0.7,1.4-1,2.4-1c0.9,0,1.6,0.4,2.3,1.1v-3.9h2.1V22z M86.4,18c0,0.8,0.1,1.4,0.3,1.8
			c0.3,0.5,0.8,0.8,1.4,0.8c0.5,0,0.9-0.2,1.2-0.6c0.3-0.4,0.5-1,0.5-1.8c0-0.9-0.2-1.5-0.5-1.9c-0.3-0.4-0.7-0.6-1.2-0.6
			c-0.5,0-0.9,0.2-1.2,0.6C86.6,16.6,86.4,17.2,86.4,18z"/>
		<path id="XMLID_187_" class="st1" d="M98.4,19.6l2.1,0.3c-0.3,0.8-0.7,1.3-1.2,1.7c-0.6,0.4-1.3,0.6-2.1,0.6c-1.4,0-2.4-0.4-3-1.3
			c-0.5-0.7-0.8-1.6-0.8-2.7c0-1.3,0.3-2.3,1-3c0.7-0.7,1.5-1.1,2.6-1.1c1.2,0,2.1,0.4,2.7,1.1c0.7,0.8,1,1.9,1,3.5h-5.2
			c0,0.6,0.2,1.1,0.5,1.4c0.3,0.3,0.7,0.5,1.2,0.5c0.3,0,0.6-0.1,0.8-0.3S98.3,20,98.4,19.6z M98.5,17.5c0-0.6-0.2-1-0.5-1.4
			c-0.3-0.3-0.6-0.5-1.1-0.5c-0.5,0-0.8,0.2-1.1,0.5s-0.4,0.8-0.4,1.3H98.5z"/>
		<path id="XMLID_190_" class="st1" d="M105.7,19.8l2.1-0.3c0.1,0.4,0.3,0.7,0.5,0.9c0.3,0.2,0.6,0.3,1.1,0.3c0.5,0,0.9-0.1,1.2-0.3
			c0.2-0.1,0.3-0.3,0.3-0.5c0-0.2,0-0.3-0.1-0.4c-0.1-0.1-0.3-0.2-0.7-0.3c-1.7-0.4-2.7-0.7-3.2-1c-0.6-0.4-0.9-1-0.9-1.8
			c0-0.7,0.3-1.2,0.8-1.7s1.4-0.7,2.5-0.7c1.1,0,1.9,0.2,2.4,0.5s0.9,0.9,1.1,1.5l-1.9,0.4c-0.1-0.3-0.2-0.5-0.5-0.7
			c-0.2-0.2-0.6-0.2-1-0.2c-0.5,0-0.9,0.1-1.2,0.2c-0.2,0.1-0.2,0.2-0.2,0.4c0,0.1,0.1,0.3,0.2,0.4c0.2,0.1,0.8,0.3,1.9,0.6
			c1.1,0.2,1.9,0.6,2.3,0.9c0.4,0.4,0.6,0.9,0.6,1.5c0,0.7-0.3,1.3-0.9,1.8c-0.6,0.5-1.5,0.8-2.6,0.8c-1.1,0-1.9-0.2-2.5-0.6
			C106.3,21.1,105.9,20.6,105.7,19.8z"/>
		<path id="XMLID_192_" class="st1" d="M119.3,19.6l2.1,0.3c-0.3,0.8-0.7,1.3-1.2,1.7c-0.6,0.4-1.3,0.6-2.1,0.6
			c-1.4,0-2.4-0.4-3-1.3c-0.5-0.7-0.8-1.6-0.8-2.7c0-1.3,0.3-2.3,1-3c0.7-0.7,1.5-1.1,2.6-1.1c1.2,0,2.1,0.4,2.7,1.1
			c0.7,0.8,1,1.9,1,3.5h-5.2c0,0.6,0.2,1.1,0.5,1.4c0.3,0.3,0.7,0.5,1.2,0.5c0.3,0,0.6-0.1,0.8-0.3S119.2,20,119.3,19.6z
			 M119.4,17.5c0-0.6-0.2-1-0.5-1.4c-0.3-0.3-0.6-0.5-1.1-0.5c-0.5,0-0.8,0.2-1.1,0.5s-0.4,0.8-0.4,1.3H119.4z"/>
		<path id="XMLID_195_" class="st1" d="M122.4,19.8l2.1-0.3c0.1,0.4,0.3,0.7,0.5,0.9c0.3,0.2,0.6,0.3,1.1,0.3c0.5,0,0.9-0.1,1.2-0.3
			c0.2-0.1,0.3-0.3,0.3-0.5c0-0.2,0-0.3-0.1-0.4c-0.1-0.1-0.3-0.2-0.7-0.3c-1.7-0.4-2.7-0.7-3.2-1c-0.6-0.4-0.9-1-0.9-1.8
			c0-0.7,0.3-1.2,0.8-1.7s1.4-0.7,2.5-0.7c1.1,0,1.9,0.2,2.4,0.5s0.9,0.9,1.1,1.5l-1.9,0.4c-0.1-0.3-0.2-0.5-0.5-0.7
			c-0.2-0.2-0.6-0.2-1-0.2c-0.5,0-0.9,0.1-1.2,0.2c-0.2,0.1-0.2,0.2-0.2,0.4c0,0.1,0.1,0.3,0.2,0.4c0.2,0.1,0.8,0.3,1.9,0.6
			c1.1,0.2,1.9,0.6,2.3,0.9c0.4,0.4,0.6,0.9,0.6,1.5c0,0.7-0.3,1.3-0.9,1.8c-0.6,0.5-1.5,0.8-2.6,0.8c-1.1,0-1.9-0.2-2.5-0.6
			C123,21.1,122.6,20.6,122.4,19.8z"/>
		<path id="XMLID_197_" class="st1" d="M131.5,13.2v-1.9h2.1v1.9H131.5z M131.5,22v-7.8h2.1V22H131.5z"/>
		<path id="XMLID_200_" class="st1" d="M135.1,18c0-0.7,0.2-1.3,0.5-2c0.3-0.6,0.8-1.1,1.4-1.5c0.6-0.3,1.3-0.5,2.1-0.5
			c1.2,0,2.1,0.4,2.9,1.1c0.8,0.8,1.1,1.7,1.1,2.9c0,1.2-0.4,2.2-1.1,2.9c-0.8,0.8-1.7,1.2-2.9,1.2c-0.7,0-1.4-0.2-2-0.5
			c-0.6-0.3-1.1-0.8-1.5-1.4C135.3,19.7,135.1,18.9,135.1,18z M137.3,18.1c0,0.8,0.2,1.4,0.5,1.8c0.4,0.4,0.8,0.6,1.4,0.6
			s1-0.2,1.4-0.6c0.4-0.4,0.5-1,0.5-1.8c0-0.8-0.2-1.3-0.5-1.8c-0.4-0.4-0.8-0.6-1.4-0.6s-1,0.2-1.4,0.6
			C137.4,16.8,137.3,17.4,137.3,18.1z M138.1,13.3l1-2.2h2.3l-2,2.2H138.1z"/>
		<path id="XMLID_204_" class="st1" d="M151.9,22h-2.1v-4c0-0.8,0-1.4-0.1-1.6c-0.1-0.2-0.2-0.4-0.4-0.6c-0.2-0.1-0.4-0.2-0.7-0.2
			c-0.4,0-0.7,0.1-1,0.3s-0.5,0.5-0.6,0.8c-0.1,0.3-0.2,0.9-0.2,1.8V22h-2.1v-7.8h1.9v1.1c0.7-0.9,1.5-1.3,2.6-1.3
			c0.5,0,0.9,0.1,1.2,0.2c0.4,0.2,0.7,0.4,0.9,0.6c0.2,0.3,0.3,0.5,0.4,0.9c0.1,0.3,0.1,0.8,0.1,1.4V22z"/>
	</g>
	<g id="XMLID_168_">
		<path id="XMLID_169_" class="st0" d="M12.3,18.4l1.9-0.2c0.1,0.5,0.2,0.8,0.5,1.1s0.6,0.4,0.9,0.4c0.4,0,0.7-0.2,1-0.5
			c0.3-0.3,0.4-0.7,0.4-1.2c0-0.5-0.1-0.9-0.4-1.1s-0.6-0.4-1-0.4c-0.2,0-0.5,0-0.9,0.1L15,15c0.5,0,0.9-0.1,1.2-0.3
			c0.3-0.2,0.4-0.6,0.4-1c0-0.3-0.1-0.6-0.3-0.8s-0.5-0.3-0.8-0.3c-0.3,0-0.6,0.1-0.8,0.3s-0.4,0.6-0.4,1l-1.8-0.3
			c0.1-0.6,0.3-1.1,0.6-1.5c0.2-0.4,0.6-0.6,1-0.9c0.4-0.2,0.9-0.3,1.5-0.3c0.9,0,1.7,0.3,2.3,0.9c0.5,0.5,0.7,1,0.7,1.7
			c0,0.9-0.5,1.6-1.4,2.1c0.6,0.1,1,0.4,1.4,0.8c0.3,0.4,0.5,0.9,0.5,1.6c0,0.9-0.3,1.6-1,2.2s-1.4,0.9-2.4,0.9
			c-0.9,0-1.7-0.3-2.3-0.8C12.8,19.9,12.4,19.2,12.3,18.4z"/>
	</g>
	<g id="XMLID_19256_">
		<path id="XMLID_19257_" class="st1" d="M188,29.2c-0.9,0-1.7-0.8-1.7-1.7V4.6c0-0.9,0.8-1.7,1.7-1.7c0.9,0,1.7,0.8,1.7,1.7v22.9
			C189.7,28.4,188.9,29.2,188,29.2z"/>
	</g>
	<g id="XMLID_19254_">
		<path id="XMLID_19255_" class="st1" d="M196.7,29.2c-0.9,0-1.7-0.8-1.7-1.7V4.6c0-0.9,0.8-1.7,1.7-1.7c0.9,0,1.7,0.8,1.7,1.7v22.9
			C198.4,28.4,197.6,29.2,196.7,29.2z"/>
	</g>
	<g id="XMLID_19252_">
		<path id="XMLID_19253_" class="st1" d="M214.1,29.2c-0.9,0-1.7-0.8-1.7-1.7V4.6c0-0.9,0.8-1.7,1.7-1.7c0.9,0,1.7,0.8,1.7,1.7v22.9
			C215.8,28.4,215,29.2,214.1,29.2z"/>
	</g>
	<g id="XMLID_19250_">
		<path id="XMLID_19251_" class="st1" d="M170.5,29.2c-0.9,0-1.7-0.8-1.7-1.7V4.6c0-0.9,0.8-1.7,1.7-1.7c0.9,0,1.7,0.8,1.7,1.7v22.9
			C172.2,28.4,171.5,29.2,170.5,29.2z"/>
	</g>
	<g id="XMLID_19248_">
		<path id="XMLID_19249_" class="st1" d="M179.3,29.2c-0.9,0-1.7-0.8-1.7-1.7V4.6c0-0.9,0.8-1.7,1.7-1.7c0.9,0,1.7,0.8,1.7,1.7v22.9
			C180.9,28.4,180.2,29.2,179.3,29.2z"/>
	</g>
	<g id="XMLID_19246_">
		<path id="XMLID_19247_" class="st1" d="M161.8,29.2c-0.9,0-1.7-0.8-1.7-1.7V4.6c0-0.9,0.8-1.7,1.7-1.7c0.9,0,1.7,0.8,1.7,1.7v22.9
			C163.5,28.4,162.8,29.2,161.8,29.2z"/>
	</g>
	<g id="XMLID_19244_">
		<path id="XMLID_19245_" class="st1" d="M205.4,29.2c-0.9,0-1.7-0.8-1.7-1.7V4.6c0-0.9,0.8-1.7,1.7-1.7c0.9,0,1.7,0.8,1.7,1.7v22.9
			C207.1,28.4,206.3,29.2,205.4,29.2z"/>
	</g>
	<g id="XMLID_19242_">
		<path id="XMLID_19243_" class="st1" d="M222.8,29.2c-0.9,0-1.7-0.8-1.7-1.7V4.6c0-0.9,0.8-1.7,1.7-1.7c0.9,0,1.7,0.8,1.7,1.7v22.9
			C224.5,28.4,223.8,29.2,222.8,29.2z"/>
	</g>
</g>
</svg>
