<?xml version="1.0" encoding="utf-8"?>
<!-- Generator: Adobe Illustrator 19.0.0, SVG Export Plug-In . SVG Version: 6.00 Build 0)  -->
<svg version="1.1" id="Capa_1" xmlns="http://www.w3.org/2000/svg" xmlns:xlink="http://www.w3.org/1999/xlink" x="0px" y="0px"
	 viewBox="0 0 293.3 33.7" style="enable-background:new 0 0 293.3 33.7;" xml:space="preserve">
<style type="text/css">
	.st0{fill:#3B86B1;}
	.st1{fill:#FFFFFF;}
</style>
<g id="XMLID_72_">
	<g id="XMLID_169_">
		<g id="XMLID_227_">
			<g id="XMLID_234_">
				<polygon id="XMLID_238_" class="st0" points="266.6,33.2 280.7,16.8 266.6,0.5 278.5,0.5 292.6,16.8 278.5,33.2 				"/>
				<path id="XMLID_235_" class="st0" d="M278.3,1L292,16.8l-13.7,15.8h-10.6l13.1-15.2l0.6-0.7l-0.6-0.7L267.7,1H278.3 M278.8,0
					h-13.2l14.5,16.8l-14.5,16.8h13.2l14.5-16.8L278.8,0L278.8,0z"/>
			</g>
		</g>
	</g>
	<g id="XMLID_83_">
		<g id="XMLID_228_">
			<g id="XMLID_229_">
				<polygon id="XMLID_233_" class="st0" points="14.8,33.2 0.7,16.8 14.8,0.5 26.6,0.5 12.6,16.8 26.6,33.2 				"/>
				<path id="XMLID_230_" class="st0" d="M25.6,1L12.5,16.2l-0.6,0.7l0.6,0.7l13.1,15.2H15L1.3,16.8L15,1H25.6 M27.7,0H14.5L0,16.8
					l14.5,16.8h13.2L13.2,16.8L27.7,0L27.7,0z"/>
			</g>
		</g>
	</g>
	<g id="XMLID_73_">
		<polygon id="XMLID_195_" class="st0" points="32,33.2 17.9,16.8 32,0.5 261.3,0.5 275.4,16.8 261.3,33.2 		"/>
		<path id="XMLID_191_" class="st0" d="M32.2,1l228.9,0l13.7,15.8l-13.7,15.8l-228.9,0L18.5,16.8L32.2,1 M31.7,0L17.2,16.8
			l14.5,16.8l229.8,0l14.5-16.8L261.6,0L31.7,0L31.7,0z"/>
	</g>
</g>
<g id="XMLID_187_">
	<g id="XMLID_455_">
		<path id="XMLID_478_" class="st1" d="M103.2,23.4V12h3.7c1.4,0,2.3,0.1,2.8,0.2c0.7,0.2,1.2,0.5,1.6,1.1c0.4,0.6,0.7,1.3,0.7,2.2
			c0,0.7-0.1,1.3-0.4,1.8c-0.3,0.5-0.6,0.9-1,1.1c-0.4,0.3-0.8,0.5-1.2,0.5c-0.6,0.1-1.4,0.2-2.4,0.2h-1.5v4.3H103.2z M105.5,13.9
			v3.3h1.3c0.9,0,1.5-0.1,1.8-0.2c0.3-0.1,0.5-0.3,0.7-0.6c0.2-0.3,0.3-0.6,0.3-0.9c0-0.4-0.1-0.8-0.4-1c-0.2-0.3-0.6-0.4-0.9-0.5
			c-0.3-0.1-0.8-0.1-1.7-0.1H105.5z"/>
		<path id="XMLID_475_" class="st1" d="M115.5,17.6l-2-0.4c0.2-0.8,0.6-1.4,1.2-1.8s1.4-0.6,2.4-0.6c1,0,1.7,0.1,2.2,0.3
			c0.5,0.2,0.8,0.5,1,0.9s0.3,1,0.3,2l0,2.6c0,0.7,0,1.3,0.1,1.6s0.2,0.7,0.4,1.1h-2.2c-0.1-0.1-0.1-0.4-0.2-0.6
			c0-0.1-0.1-0.2-0.1-0.3c-0.4,0.4-0.8,0.6-1.2,0.8c-0.4,0.2-0.9,0.3-1.4,0.3c-0.9,0-1.5-0.2-2-0.7s-0.7-1-0.7-1.8
			c0-0.5,0.1-0.9,0.3-1.3c0.2-0.4,0.5-0.6,0.9-0.8c0.4-0.2,1-0.4,1.7-0.5c1-0.2,1.7-0.4,2.1-0.5v-0.2c0-0.4-0.1-0.7-0.3-0.9
			c-0.2-0.2-0.6-0.3-1.2-0.3c-0.4,0-0.7,0.1-0.9,0.2S115.6,17.3,115.5,17.6z M118.4,19.4c-0.3,0.1-0.7,0.2-1.3,0.3s-1,0.3-1.2,0.4
			c-0.3,0.2-0.4,0.5-0.4,0.8c0,0.3,0.1,0.6,0.3,0.8c0.2,0.2,0.5,0.3,0.9,0.3c0.4,0,0.8-0.1,1.1-0.4c0.3-0.2,0.4-0.4,0.5-0.7
			c0.1-0.2,0.1-0.5,0.1-1.1V19.4z"/>
		<path id="XMLID_473_" class="st1" d="M124.8,23.4h-2.2v-8.3h2v1.2c0.3-0.6,0.7-0.9,0.9-1.1c0.3-0.2,0.6-0.3,0.9-0.3
			c0.5,0,1,0.1,1.4,0.4l-0.7,1.9c-0.4-0.2-0.7-0.4-1-0.4c-0.3,0-0.6,0.1-0.8,0.3c-0.2,0.2-0.4,0.5-0.5,0.9c-0.1,0.4-0.2,1.4-0.2,2.8
			V23.4z"/>
		<path id="XMLID_470_" class="st1" d="M133.8,20.8l2.2,0.4c-0.3,0.8-0.7,1.4-1.3,1.8c-0.6,0.4-1.4,0.6-2.3,0.6
			c-1.4,0-2.5-0.5-3.2-1.4c-0.5-0.8-0.8-1.7-0.8-2.9c0-1.4,0.4-2.5,1.1-3.2s1.6-1.2,2.7-1.2c1.2,0,2.2,0.4,2.9,1.2
			c0.7,0.8,1.1,2.1,1,3.7h-5.5c0,0.7,0.2,1.2,0.5,1.5c0.3,0.4,0.8,0.5,1.3,0.5c0.3,0,0.6-0.1,0.9-0.3S133.6,21.2,133.8,20.8z
			 M133.9,18.6c0-0.6-0.2-1.1-0.5-1.4s-0.7-0.5-1.1-0.5c-0.5,0-0.9,0.2-1.2,0.5s-0.5,0.8-0.5,1.4H133.9z"/>
		<path id="XMLID_468_" class="st1" d="M137.1,21l2.2-0.3c0.1,0.4,0.3,0.8,0.6,1c0.3,0.2,0.7,0.3,1.2,0.3c0.6,0,1-0.1,1.3-0.3
			c0.2-0.1,0.3-0.3,0.3-0.6c0-0.2-0.1-0.3-0.2-0.4c-0.1-0.1-0.4-0.2-0.7-0.3c-1.8-0.4-2.9-0.7-3.4-1.1c-0.7-0.4-1-1.1-1-1.9
			c0-0.7,0.3-1.3,0.9-1.8c0.6-0.5,1.4-0.7,2.6-0.7c1.1,0,2,0.2,2.5,0.6c0.6,0.4,0.9,0.9,1.1,1.6l-2.1,0.4c-0.1-0.3-0.3-0.6-0.5-0.7
			c-0.2-0.2-0.6-0.3-1.1-0.3c-0.6,0-1,0.1-1.2,0.2c-0.2,0.1-0.3,0.3-0.3,0.4c0,0.2,0.1,0.3,0.2,0.4c0.2,0.1,0.9,0.4,2.1,0.6
			c1.2,0.3,2,0.6,2.4,1c0.5,0.4,0.7,0.9,0.7,1.6c0,0.8-0.3,1.4-1,2c-0.6,0.5-1.6,0.8-2.8,0.8c-1.1,0-2-0.2-2.7-0.7
			C137.7,22.5,137.3,21.8,137.1,21z"/>
		<path id="XMLID_466_" class="st1" d="M154.8,26.8h-1.5c-0.8-1.2-1.4-2.5-1.8-3.8c-0.4-1.3-0.6-2.6-0.6-3.8c0-1.5,0.3-2.9,0.8-4.3
			c0.4-1.2,1-2.2,1.7-3.2h1.5c-0.7,1.6-1.2,2.9-1.5,4c-0.3,1.1-0.4,2.3-0.4,3.5c0,0.9,0.1,1.7,0.2,2.6c0.2,0.9,0.4,1.7,0.7,2.6
			C154.1,25,154.4,25.8,154.8,26.8z"/>
		<path id="XMLID_463_" class="st1" d="M156.5,23.4V12h3.7c1.4,0,2.3,0.1,2.8,0.2c0.7,0.2,1.2,0.5,1.6,1.1c0.4,0.6,0.7,1.3,0.7,2.2
			c0,0.7-0.1,1.3-0.4,1.8c-0.3,0.5-0.6,0.9-1,1.1c-0.4,0.3-0.8,0.5-1.2,0.5c-0.6,0.1-1.4,0.2-2.4,0.2h-1.5v4.3H156.5z M158.9,13.9
			v3.3h1.3c0.9,0,1.5-0.1,1.8-0.2c0.3-0.1,0.5-0.3,0.7-0.6c0.2-0.3,0.3-0.6,0.3-0.9c0-0.4-0.1-0.8-0.4-1c-0.2-0.3-0.6-0.4-0.9-0.5
			c-0.3-0.1-0.8-0.1-1.7-0.1H158.9z"/>
		<path id="XMLID_461_" class="st1" d="M174.1,21.4v2h-7.7c0.1-0.8,0.3-1.5,0.8-2.2c0.4-0.7,1.2-1.6,2.5-2.7c1-0.9,1.6-1.5,1.8-1.9
			c0.3-0.5,0.5-0.9,0.5-1.3c0-0.5-0.1-0.9-0.4-1.1c-0.3-0.3-0.6-0.4-1.1-0.4c-0.5,0-0.8,0.1-1.1,0.4c-0.3,0.3-0.4,0.7-0.5,1.4
			l-2.2-0.2c0.1-1.2,0.5-2.1,1.2-2.6s1.5-0.8,2.6-0.8c1.1,0,2,0.3,2.7,0.9c0.6,0.6,1,1.4,1,2.3c0,0.5-0.1,1-0.3,1.5
			c-0.2,0.5-0.5,1-0.9,1.5c-0.3,0.3-0.7,0.8-1.4,1.5c-0.7,0.6-1.1,1.1-1.3,1.3c-0.2,0.2-0.3,0.4-0.4,0.6H174.1z"/>
		<path id="XMLID_458_" class="st1" d="M176.1,23.4V12h3.7c1.4,0,2.3,0.1,2.8,0.2c0.7,0.2,1.2,0.5,1.6,1.1c0.4,0.6,0.7,1.3,0.7,2.2
			c0,0.7-0.1,1.3-0.4,1.8c-0.3,0.5-0.6,0.9-1,1.1c-0.4,0.3-0.8,0.5-1.2,0.5c-0.6,0.1-1.4,0.2-2.4,0.2h-1.5v4.3H176.1z M178.4,13.9
			v3.3h1.3c0.9,0,1.5-0.1,1.8-0.2c0.3-0.1,0.5-0.3,0.7-0.6c0.2-0.3,0.3-0.6,0.3-0.9c0-0.4-0.1-0.8-0.4-1c-0.2-0.3-0.6-0.4-0.9-0.5
			c-0.3-0.1-0.8-0.1-1.7-0.1H178.4z"/>
		<path id="XMLID_456_" class="st1" d="M186.2,26.8c0.4-0.9,0.7-1.6,0.9-2.1c0.2-0.5,0.3-1.1,0.5-1.7c0.2-0.6,0.3-1.3,0.3-1.8
			c0.1-0.6,0.1-1.2,0.1-1.8c0-1.2-0.1-2.4-0.4-3.5s-0.8-2.4-1.5-4h1.5c0.8,1.1,1.4,2.3,1.8,3.6c0.4,1.3,0.7,2.5,0.7,3.8
			c0,1.1-0.2,2.3-0.5,3.5c-0.4,1.4-1,2.8-1.9,4.1H186.2z"/>
	</g>
</g>
</svg>
