<?xml version="1.0" encoding="utf-8"?>
<!-- Generator: Adobe Illustrator 19.0.0, SVG Export Plug-In . SVG Version: 6.00 Build 0)  -->
<svg version="1.1" id="Capa_1" xmlns="http://www.w3.org/2000/svg" xmlns:xlink="http://www.w3.org/1999/xlink" x="0px" y="0px"
	 viewBox="-150 404.2 293.3 33.7" style="enable-background:new -150 404.2 293.3 33.7;" xml:space="preserve">
<style type="text/css">
	.st0{fill:#FFFFFF;}
	.st1{fill:#3B86B1;}
</style>
<g id="XMLID_209_">
	<g id="XMLID_223_">
		<g id="XMLID_230_">
			<polygon id="XMLID_234_" class="st0" points="116.6,437.4 130.7,421 116.6,404.7 128.5,404.7 142.6,421 128.5,437.4 			"/>
			<path id="XMLID_231_" class="st1" d="M128.3,405.2L142,421l-13.7,15.8h-10.6l13.1-15.2l0.6-0.7l-0.6-0.7l-13.1-15H128.3
				 M128.8,404.2h-13.2l14.5,16.8l-14.5,16.8h13.2l14.5-16.8L128.8,404.2L128.8,404.2z"/>
		</g>
	</g>
</g>
<g id="XMLID_195_">
	<g id="XMLID_224_">
		<g id="XMLID_225_">
			<polygon id="XMLID_229_" class="st0" points="-135.3,437.4 -149.3,421 -135.3,404.7 -123.4,404.7 -137.4,421 -123.4,437.4 			"/>
			<path id="XMLID_226_" class="st1" d="M-124.4,405.2l-13.1,15.2l-0.6,0.7l0.6,0.7l13.1,15.2H-135l-13.7-16l13.7-15.8H-124.4
				 M-122.3,404.2h-13.2L-150,421l14.5,16.8h13.2l-14.5-16.8L-122.3,404.2L-122.3,404.2z"/>
		</g>
	</g>
</g>
<g id="XMLID_189_">
	<polygon id="XMLID_123_" class="st0" points="-118,437.4 -132.1,421 -118,404.7 111.3,404.7 125.4,421 111.3,437.4 	"/>
	<path id="XMLID_120_" class="st1" d="M-117.8,405.2h228.9l13.7,15.8l-13.7,15.8h-228.9l-13.7-15.8L-117.8,405.2 M-118.3,404.2
		l-14.5,16.8l14.5,16.8h229.8L126,421l-14.5-16.8H-118.3L-118.3,404.2z"/>
</g>
<g id="XMLID_1_">
	<path id="XMLID_20_" class="st1" d="M-91.8,427.6v-11.4h4.9c1.2,0,2.1,0.1,2.7,0.3s1,0.6,1.3,1.1s0.5,1.1,0.5,1.8
		c0,0.9-0.3,1.6-0.8,2.1c-0.5,0.6-1.3,0.9-2.3,1.1c0.5,0.3,0.9,0.6,1.2,1c0.3,0.3,0.8,1,1.3,1.9l1.4,2.2h-2.8l-1.7-2.5
		c-0.6-0.9-1-1.5-1.2-1.7s-0.5-0.4-0.7-0.5c-0.2-0.1-0.6-0.1-1.2-0.1h-0.5v4.8h-2.1V427.6z M-89.5,421h1.7c1.1,0,1.8,0,2.1-0.1
		c0.3-0.1,0.5-0.3,0.6-0.5s0.2-0.5,0.2-0.9s-0.1-0.7-0.3-0.9c-0.2-0.2-0.5-0.4-0.9-0.4c-0.2,0-0.8,0-1.7,0h-1.8v2.8H-89.5z"/>
	<path id="XMLID_27_" class="st1" d="M-75.4,425l2.2,0.4c-0.3,0.8-0.7,1.4-1.3,1.8c-0.6,0.4-1.4,0.6-2.3,0.6c-1.4,0-2.5-0.5-3.2-1.4
		c-0.5-0.8-0.8-1.7-0.8-2.9c0-1.4,0.4-2.5,1.1-3.2c0.7-0.7,1.6-1.2,2.7-1.2c1.2,0,2.2,0.4,2.9,1.2c0.7,0.8,1.1,2.1,1,3.7h-5.5
		c0,0.7,0.2,1.2,0.5,1.5c0.3,0.4,0.8,0.5,1.3,0.5c0.3,0,0.6-0.1,0.9-0.3C-75.6,425.5-75.6,425.4-75.4,425z M-75.3,422.8
		c0-0.6-0.2-1.1-0.5-1.4c-0.3-0.3-0.7-0.5-1.1-0.5c-0.5,0-0.9,0.2-1.2,0.5c-0.3,0.3-0.5,0.8-0.5,1.4H-75.3z"/>
	<path id="XMLID_56_" class="st1" d="M-63.7,427.6h-2v-1.2c-0.3,0.5-0.7,0.8-1.2,1.1c-0.5,0.3-0.9,0.3-1.4,0.3c-1,0-1.8-0.4-2.4-1.2
		c-0.6-0.8-1-1.8-1-3.2s0.3-2.5,1-3.2c0.7-0.7,1.5-1.1,2.5-1.1c0.9,0,1.7,0.4,2.4,1.2v-4.1h2.2L-63.7,427.6L-63.7,427.6z
		 M-69.6,423.3c0,0.9,0.1,1.5,0.4,1.9c0.4,0.6,0.8,0.9,1.5,0.9c0.5,0,0.9-0.2,1.3-0.6s0.5-1.1,0.5-1.9c0-1-0.2-1.6-0.5-2.1
		s-0.8-0.6-1.3-0.6s-1,0.2-1.3,0.6S-69.6,422.5-69.6,423.3z"/>
	<path id="XMLID_71_" class="st1" d="M-49.5,427.6h-2v-1.2c-0.3,0.5-0.7,0.8-1.2,1.1c-0.5,0.3-0.9,0.3-1.4,0.3c-1,0-1.8-0.4-2.4-1.2
		c-0.6-0.8-1-1.8-1-3.2s0.3-2.5,1-3.2c0.7-0.7,1.5-1.1,2.5-1.1c0.9,0,1.7,0.4,2.4,1.2v-4.1h2.2L-49.5,427.6L-49.5,427.6z
		 M-55.4,423.3c0,0.9,0.1,1.5,0.4,1.9c0.4,0.6,0.8,0.9,1.5,0.9c0.5,0,0.9-0.2,1.3-0.6s0.5-1.1,0.5-1.9c0-1-0.2-1.6-0.5-2.1
		s-0.8-0.6-1.3-0.6s-1,0.2-1.3,0.6S-55.4,422.5-55.4,423.3z"/>
	<path id="XMLID_126_" class="st1" d="M-42.5,425l2.2,0.4c-0.3,0.8-0.7,1.4-1.3,1.8c-0.6,0.4-1.4,0.6-2.3,0.6
		c-1.4,0-2.5-0.5-3.2-1.4c-0.5-0.8-0.8-1.7-0.8-2.9c0-1.4,0.4-2.5,1.1-3.2c0.7-0.7,1.6-1.2,2.7-1.2c1.2,0,2.2,0.4,2.9,1.2
		c0.7,0.8,1.1,2.1,1,3.7h-5.5c0,0.7,0.2,1.2,0.5,1.5c0.3,0.4,0.8,0.5,1.3,0.5c0.3,0,0.6-0.1,0.9-0.3
		C-42.7,425.5-42.7,425.4-42.5,425z M-42.4,422.8c0-0.6-0.2-1.1-0.5-1.4c-0.3-0.3-0.7-0.5-1.1-0.5c-0.5,0-0.9,0.2-1.2,0.5
		c-0.3,0.3-0.5,0.8-0.5,1.4H-42.4z"/>
	<path id="XMLID_138_" class="st1" d="M-32.4,421.9l-2-0.4c0.2-0.8,0.6-1.4,1.2-1.8c0.6-0.4,1.4-0.6,2.4-0.6s1.7,0.1,2.2,0.3
		c0.5,0.2,0.8,0.5,1,0.9c0.2,0.4,0.3,1,0.3,2v2.6c0,0.7,0,1.3,0.1,1.6s0.2,0.7,0.4,1.1H-29c-0.1-0.1-0.1-0.4-0.2-0.6
		c0-0.1-0.1-0.2-0.1-0.3c-0.4,0.4-0.8,0.6-1.2,0.8c-0.4,0.2-0.9,0.3-1.4,0.3c-0.9,0-1.5-0.2-2-0.7s-0.7-1-0.7-1.8
		c0-0.5,0.1-0.9,0.3-1.3c0.2-0.4,0.5-0.6,0.9-0.8c0.4-0.2,1-0.4,1.7-0.5c1-0.2,1.7-0.4,2.1-0.5V422c0-0.4-0.1-0.7-0.3-0.9
		c-0.2-0.2-0.6-0.3-1.2-0.3c-0.4,0-0.7,0.1-0.9,0.2S-32.2,421.5-32.4,421.9z M-29.4,423.6c-0.3,0.1-0.7,0.2-1.3,0.3s-1,0.3-1.2,0.4
		c-0.3,0.2-0.4,0.5-0.4,0.8c0,0.3,0.1,0.6,0.3,0.8c0.2,0.2,0.5,0.3,0.9,0.3s0.8-0.1,1.1-0.4c0.3-0.2,0.4-0.4,0.5-0.7
		c0.1-0.2,0.1-0.5,0.1-1.1V423.6z M-31.8,418.3l1.1-2.3h2.5l-2.1,2.3H-31.8z"/>
	<path id="XMLID_142_" class="st1" d="M-23,427.6h-2.2v-8.3h2v1.2c0.3-0.6,0.7-0.9,0.9-1.1c0.3-0.2,0.6-0.3,0.9-0.3
		c0.5,0,1,0.1,1.4,0.4l-0.7,1.9c-0.4-0.2-0.7-0.4-1-0.4s-0.6,0.1-0.8,0.3c-0.2,0.2-0.4,0.5-0.5,0.9c-0.1,0.4-0.2,1.4-0.2,2.8v2.6
		H-23z"/>
	<path id="XMLID_144_" class="st1" d="M-14.1,425l2.2,0.4c-0.3,0.8-0.7,1.4-1.3,1.8c-0.6,0.4-1.4,0.6-2.3,0.6
		c-1.4,0-2.5-0.5-3.2-1.4c-0.5-0.8-0.8-1.7-0.8-2.9c0-1.4,0.4-2.5,1.1-3.2c0.7-0.7,1.6-1.2,2.7-1.2c1.2,0,2.2,0.4,2.9,1.2
		c0.7,0.8,1.1,2.1,1,3.7h-5.5c0,0.7,0.2,1.2,0.5,1.5c0.3,0.4,0.8,0.5,1.3,0.5c0.3,0,0.6-0.1,0.9-0.3
		C-14.3,425.5-14.2,425.4-14.1,425z M-13.9,422.8c0-0.6-0.2-1.1-0.5-1.4c-0.3-0.3-0.7-0.5-1.1-0.5c-0.5,0-0.9,0.2-1.2,0.5
		c-0.3,0.3-0.5,0.8-0.5,1.4H-13.9z"/>
	<path id="XMLID_147_" class="st1" d="M-8.3,421.9l-2-0.4c0.2-0.8,0.6-1.4,1.2-1.8c0.6-0.4,1.4-0.6,2.4-0.6s1.7,0.1,2.2,0.3
		c0.5,0.2,0.8,0.5,1,0.9c0.2,0.4,0.3,1,0.3,2v2.6c0,0.7,0,1.3,0.1,1.6s0.2,0.7,0.4,1.1h-2.2c-0.1-0.1-0.1-0.4-0.2-0.6
		c0-0.1-0.1-0.2-0.1-0.3c-0.4,0.4-0.8,0.6-1.2,0.8s-0.9,0.3-1.4,0.3c-0.9,0-1.5-0.2-2-0.7s-0.7-1-0.7-1.8c0-0.5,0.1-0.9,0.3-1.3
		s0.5-0.6,0.9-0.8c0.4-0.2,1-0.4,1.7-0.5c1-0.2,1.7-0.4,2.1-0.5V422c0-0.4-0.1-0.7-0.3-0.9c-0.2-0.2-0.6-0.3-1.2-0.3
		c-0.4,0-0.7,0.1-0.9,0.2S-8.2,421.5-8.3,421.9z M-5.4,423.6c-0.3,0.1-0.7,0.2-1.3,0.3s-1,0.3-1.2,0.4c-0.3,0.2-0.4,0.5-0.4,0.8
		c0,0.3,0.1,0.6,0.3,0.8s0.5,0.3,0.9,0.3s0.8-0.1,1.1-0.4c0.3-0.2,0.4-0.4,0.5-0.7c0.1-0.2,0.1-0.5,0.1-1.1L-5.4,423.6L-5.4,423.6z"
		/>
	<path id="XMLID_150_" class="st1" d="M3.4,427.6v-11.4h2.2v11.5H3.4V427.6z"/>
	<path id="XMLID_152_" class="st1" d="M7.3,423.4c0-0.7,0.2-1.4,0.5-2.1c0.3-0.7,0.9-1.2,1.5-1.6c0.6-0.4,1.4-0.5,2.2-0.5
		c1.3,0,2.3,0.4,3.1,1.2c0.8,0.8,1.2,1.8,1.2,3.1s-0.4,2.3-1.2,3.1c-0.8,0.8-1.8,1.2-3.1,1.2c-0.8,0-1.5-0.2-2.2-0.5
		c-0.7-0.3-1.2-0.8-1.6-1.5C7.3,425.1,7.3,424.3,7.3,423.4z M9.6,423.5c0,0.8,0.2,1.5,0.6,1.9s0.9,0.7,1.4,0.7s1.1-0.2,1.4-0.7
		s0.6-1.1,0.6-1.9s-0.2-1.4-0.6-1.9s-0.9-0.7-1.4-0.7s-1.1,0.2-1.4,0.7S9.6,422.6,9.6,423.5z"/>
	<path id="XMLID_155_" class="st1" d="M24.8,421.8l-2.2,0.4c-0.1-0.4-0.2-0.8-0.5-1c-0.3-0.2-0.6-0.3-1-0.3c-0.5,0-1,0.2-1.3,0.6
		s-0.5,1-0.5,1.9c0,1,0.2,1.7,0.5,2.1s0.8,0.6,1.3,0.6c0.4,0,0.8-0.1,1-0.4c0.2-0.3,0.5-0.6,0.6-1.2l2.2,0.4c-0.2,1-0.7,1.7-1.3,2.2
		s-1.5,0.8-2.6,0.8c-1.2,0-2.2-0.4-2.9-1.1c-0.7-0.7-1.1-1.8-1.1-3.2s0.4-2.4,1.1-3.2c0.7-0.8,1.7-1.1,2.9-1.1c1,0,1.8,0.2,2.4,0.7
		S24.6,420.9,24.8,421.8z"/>
	<path id="XMLID_157_" class="st1" d="M28.1,421.9l-2-0.4c0.2-0.8,0.6-1.4,1.2-1.8c0.6-0.4,1.4-0.6,2.4-0.6s1.7,0.1,2.2,0.3
		c0.5,0.2,0.8,0.5,1,0.9c0.2,0.4,0.3,1,0.3,2v2.6c0,0.7,0,1.3,0.1,1.6s0.2,0.7,0.4,1.1h-2.2c-0.1-0.1-0.1-0.4-0.2-0.6
		c0-0.1-0.1-0.2-0.1-0.3c-0.4,0.4-0.8,0.6-1.2,0.8s-0.9,0.3-1.4,0.3c-0.9,0-1.5-0.2-2-0.7s-0.7-1-0.7-1.8c0-0.5,0.1-0.9,0.3-1.3
		s0.5-0.6,0.9-0.8c0.4-0.2,1-0.4,1.7-0.5c1-0.2,1.7-0.4,2.1-0.5V422c0-0.4-0.1-0.7-0.3-0.9c-0.2-0.2-0.6-0.3-1.2-0.3
		c-0.4,0-0.7,0.1-0.9,0.2S28.3,421.5,28.1,421.9z M31.1,423.6c-0.3,0.1-0.7,0.2-1.3,0.3s-1,0.3-1.2,0.4c-0.3,0.2-0.4,0.5-0.4,0.8
		c0,0.3,0.1,0.6,0.3,0.8s0.5,0.3,0.9,0.3s0.8-0.1,1.1-0.4c0.3-0.2,0.4-0.4,0.5-0.7c0.1-0.2,0.1-0.5,0.1-1.1L31.1,423.6L31.1,423.6z"
		/>
	<path id="XMLID_162_" class="st1" d="M35.4,427.6v-11.4h2.2v11.5h-2.2V427.6z"/>
	<path id="XMLID_164_" class="st1" d="M47.5,431H46c-0.8-1.2-1.4-2.5-1.8-3.8c-0.4-1.3-0.6-2.6-0.6-3.8c0-1.5,0.3-2.9,0.8-4.3
		c0.4-1.2,1-2.2,1.7-3.2h1.5c-0.7,1.6-1.2,2.9-1.5,4s-0.4,2.3-0.4,3.5c0,0.9,0.1,1.7,0.2,2.6s0.4,1.7,0.7,2.6
		C46.7,429.2,47,430,47.5,431z"/>
	<path id="XMLID_166_" class="st1" d="M49.2,427.6v-11.3h2.3v9.4h5.8v1.9H49.2z"/>
	<path id="XMLID_180_" class="st1" d="M69.3,427.6h-2.5l-1-2.6h-4.6l-0.9,2.6h-2.5l4.5-11.5h2.4L69.3,427.6z M65,423.1l-1.6-4.3
		l-1.5,4.3H65z"/>
	<path id="XMLID_183_" class="st1" d="M70.5,427.6v-11.4h2.3l4.7,7.6v-7.6h2.1v11.5h-2.3l-4.6-7.5v7.5h-2.2V427.6z"/>
	<path id="XMLID_186_" class="st1" d="M81.4,431c0.4-0.9,0.7-1.6,0.9-2.1s0.3-1.1,0.5-1.7c0.2-0.6,0.3-1.3,0.3-1.8s0.1-1.2,0.1-1.8
		c0-1.2-0.1-2.4-0.4-3.5s-0.8-2.4-1.5-4h1.5c0.8,1.1,1.4,2.3,1.8,3.6c0.4,1.3,0.7,2.5,0.7,3.8c0,1.1-0.2,2.3-0.5,3.5
		c-0.4,1.4-1,2.8-1.9,4.1h-1.5V431z"/>
</g>
</svg>
