<?xml version="1.0" encoding="utf-8"?>
<!-- Generator: Adobe Illustrator 19.0.0, SVG Export Plug-In . SVG Version: 6.00 Build 0)  -->
<svg version="1.1" id="Capa_1" xmlns="http://www.w3.org/2000/svg" xmlns:xlink="http://www.w3.org/1999/xlink" x="0px" y="0px"
	 viewBox="0 0 246 58.1" style="enable-background:new 0 0 246 58.1;" xml:space="preserve">
<style type="text/css">
	.st0{fill-rule:evenodd;clip-rule:evenodd;fill:#A8A8A8;}
	.st1{fill-rule:evenodd;clip-rule:evenodd;fill:#EFEFEF;}
	.st2{opacity:0.5;fill:#2C6882;}
	.st3{fill-rule:evenodd;clip-rule:evenodd;fill:#B1D9E8;}
	.st4{clip-path:url(#XMLID_271_);fill:#3C92CA;}
	.st5{clip-path:url(#XMLID_271_);}
</style>
<g id="XMLID_23733_">
	<g id="XMLID_25879_">
		<g id="XMLID_25890_">
			<g id="XMLID_232_">
				<polygon id="XMLID_233_" class="st0" points="232,58.1 246,40.4 235.6,20.2 232,20.2 				"/>
			</g>
		</g>
		<rect id="XMLID_25887_" x="0" class="st1" width="246" height="40.4"/>
		<polygon id="XMLID_25884_" class="st2" points="232,47.5 0,40.4 232,40.4 		"/>
		<rect id="XMLID_25883_" x="2.6" y="2.5" class="st3" width="240.8" height="35.3"/>
		<g id="XMLID_24524_">
			<g id="XMLID_522_">
				<path id="XMLID_563_" d="M46.6,27.9V15.8h9v2.1H49v2.7h6.1v2.1H49v3.3h6.8v2.1H46.6z"/>
				<path id="XMLID_561_" d="M57.9,27.9V15.8h2.3v12.2H57.9z"/>
				<path id="XMLID_558_" d="M67.7,25.1l2.3,0.4c-0.3,0.9-0.8,1.5-1.4,1.9c-0.6,0.4-1.5,0.7-2.4,0.7c-1.5,0-2.7-0.5-3.4-1.5
					c-0.6-0.8-0.9-1.8-0.9-3c0-1.5,0.4-2.6,1.1-3.4c0.8-0.8,1.7-1.2,2.9-1.2c1.3,0,2.3,0.4,3.1,1.3c0.8,0.9,1.1,2.2,1.1,4h-5.8
					c0,0.7,0.2,1.2,0.6,1.6s0.8,0.6,1.3,0.6c0.4,0,0.7-0.1,0.9-0.3S67.6,25.6,67.7,25.1z M67.9,22.8c0-0.7-0.2-1.2-0.5-1.5
					s-0.7-0.5-1.2-0.5c-0.5,0-0.9,0.2-1.3,0.6s-0.5,0.9-0.5,1.5H67.9z"/>
				<path id="XMLID_556_" d="M71.9,19.1h2.1v1.2c0.8-0.9,1.7-1.4,2.7-1.4c0.6,0,1.1,0.1,1.5,0.3s0.8,0.6,1,1.1
					c0.4-0.5,0.8-0.8,1.3-1.1s0.9-0.3,1.4-0.3c0.6,0,1.2,0.1,1.6,0.4c0.4,0.3,0.8,0.6,1,1.2c0.2,0.4,0.2,1,0.2,1.8v5.6h-2.3v-5
					c0-0.9-0.1-1.4-0.2-1.7c-0.2-0.3-0.5-0.5-1-0.5c-0.3,0-0.6,0.1-0.9,0.3s-0.5,0.5-0.6,0.9s-0.2,1-0.2,1.8v4.2h-2.3v-4.8
					c0-0.9,0-1.4-0.1-1.7c-0.1-0.3-0.2-0.4-0.4-0.6c-0.2-0.1-0.4-0.2-0.7-0.2c-0.4,0-0.7,0.1-1,0.3s-0.5,0.5-0.6,0.8
					c-0.1,0.4-0.2,1-0.2,1.8v4.3h-2.3V19.1z"/>
				<path id="XMLID_553_" d="M92.3,25.1l2.3,0.4c-0.3,0.9-0.8,1.5-1.4,1.9c-0.6,0.4-1.5,0.7-2.4,0.7c-1.5,0-2.7-0.5-3.4-1.5
					c-0.6-0.8-0.9-1.8-0.9-3c0-1.5,0.4-2.6,1.1-3.4c0.8-0.8,1.7-1.2,2.9-1.2c1.3,0,2.3,0.4,3.1,1.3c0.8,0.9,1.1,2.2,1.1,4h-5.8
					c0,0.7,0.2,1.2,0.6,1.6s0.8,0.6,1.3,0.6c0.4,0,0.7-0.1,0.9-0.3S92.2,25.6,92.3,25.1z M92.4,22.8c0-0.7-0.2-1.2-0.5-1.5
					s-0.7-0.5-1.2-0.5c-0.5,0-0.9,0.2-1.3,0.6s-0.5,0.9-0.5,1.5H92.4z"/>
				<path id="XMLID_551_" d="M104.7,27.9h-2.3v-4.5c0-1,0-1.6-0.1-1.8s-0.3-0.5-0.5-0.7c-0.2-0.2-0.5-0.2-0.8-0.2
					c-0.4,0-0.8,0.1-1.1,0.3c-0.3,0.2-0.5,0.5-0.7,0.9C99,22.3,99,23,99,24v4h-2.3v-8.8h2.2v1.3c0.8-1,1.7-1.5,2.9-1.5
					c0.5,0,1,0.1,1.4,0.3s0.7,0.4,1,0.7c0.2,0.3,0.4,0.6,0.5,1c0.1,0.4,0.1,0.9,0.1,1.6V27.9z"/>
				<path id="XMLID_549_" d="M111.1,19.1V21h-1.6v3.6c0,0.7,0,1.1,0,1.3c0,0.1,0.1,0.2,0.2,0.3c0.1,0.1,0.2,0.1,0.4,0.1
					c0.2,0,0.5-0.1,0.9-0.2l0.2,1.8c-0.5,0.2-1.2,0.3-1.8,0.3c-0.4,0-0.8-0.1-1.1-0.2s-0.6-0.3-0.7-0.5c-0.2-0.2-0.3-0.5-0.3-0.9
					c0-0.3-0.1-0.8-0.1-1.6V21h-1.1v-1.9h1.1v-1.8l2.3-1.4v3.1H111.1z"/>
				<path id="XMLID_546_" d="M112.2,23.4c0-0.8,0.2-1.5,0.6-2.3s0.9-1.3,1.6-1.7c0.7-0.4,1.5-0.6,2.3-0.6c1.3,0,2.4,0.4,3.3,1.3
					c0.9,0.9,1.3,2,1.3,3.3c0,1.3-0.4,2.4-1.3,3.3c-0.9,0.9-1.9,1.3-3.2,1.3c-0.8,0-1.6-0.2-2.3-0.5c-0.7-0.4-1.3-0.9-1.7-1.6
					C112.3,25.3,112.2,24.4,112.2,23.4z M114.5,23.5c0,0.9,0.2,1.5,0.6,2s0.9,0.7,1.5,0.7s1.1-0.2,1.5-0.7c0.4-0.5,0.6-1.1,0.6-2
					c0-0.9-0.2-1.5-0.6-2c-0.4-0.5-0.9-0.7-1.5-0.7s-1.1,0.2-1.5,0.7S114.5,22.7,114.5,23.5z"/>
				<path id="XMLID_544_" d="M122.3,25.4l2.3-0.4c0.1,0.5,0.3,0.8,0.6,1c0.3,0.2,0.7,0.4,1.3,0.4c0.6,0,1.1-0.1,1.4-0.3
					c0.2-0.2,0.3-0.4,0.3-0.6c0-0.2-0.1-0.3-0.2-0.4c-0.1-0.1-0.4-0.2-0.8-0.3c-1.9-0.4-3.1-0.8-3.6-1.1c-0.7-0.5-1-1.1-1-2
					c0-0.8,0.3-1.4,0.9-1.9c0.6-0.5,1.5-0.8,2.8-0.8c1.2,0,2.1,0.2,2.7,0.6c0.6,0.4,1,1,1.2,1.7l-2.2,0.4c-0.1-0.3-0.3-0.6-0.5-0.8
					c-0.3-0.2-0.6-0.3-1.1-0.3c-0.6,0-1.1,0.1-1.3,0.3c-0.2,0.1-0.3,0.3-0.3,0.5c0,0.2,0.1,0.3,0.2,0.4c0.2,0.2,0.9,0.4,2.2,0.7
					c1.2,0.3,2.1,0.6,2.6,1c0.5,0.4,0.7,1,0.7,1.7c0,0.8-0.3,1.5-1,2.1c-0.7,0.6-1.7,0.9-3,0.9c-1.2,0-2.2-0.2-2.9-0.7
					C122.9,26.9,122.5,26.3,122.3,25.4z"/>
				<path id="XMLID_541_" d="M145.3,27.9h-2.2v-1.3c-0.4,0.5-0.8,0.9-1.3,1.1c-0.5,0.2-1,0.4-1.5,0.4c-1,0-1.9-0.4-2.6-1.2
					c-0.7-0.8-1.1-2-1.1-3.4c0-1.5,0.4-2.6,1.1-3.4s1.6-1.2,2.7-1.2c1,0,1.8,0.4,2.6,1.2v-4.4h2.3V27.9z M139.1,23.3
					c0,0.9,0.1,1.6,0.4,2c0.4,0.6,0.9,0.9,1.6,0.9c0.5,0,1-0.2,1.4-0.7s0.6-1.1,0.6-2c0-1-0.2-1.7-0.5-2.2s-0.8-0.7-1.4-0.7
					c-0.6,0-1,0.2-1.4,0.7C139.3,21.8,139.1,22.5,139.1,23.3z"/>
				<path id="XMLID_538_" d="M152.7,25.1l2.3,0.4c-0.3,0.9-0.8,1.5-1.4,1.9c-0.6,0.4-1.5,0.7-2.4,0.7c-1.5,0-2.7-0.5-3.4-1.5
					c-0.6-0.8-0.9-1.8-0.9-3c0-1.5,0.4-2.6,1.1-3.4c0.8-0.8,1.7-1.2,2.9-1.2c1.3,0,2.3,0.4,3.1,1.3c0.8,0.9,1.1,2.2,1.1,4h-5.8
					c0,0.7,0.2,1.2,0.6,1.6s0.8,0.6,1.3,0.6c0.4,0,0.7-0.1,0.9-0.3S152.6,25.6,152.7,25.1z M152.9,22.8c0-0.7-0.2-1.2-0.5-1.5
					s-0.7-0.5-1.2-0.5c-0.5,0-0.9,0.2-1.3,0.6s-0.5,0.9-0.5,1.5H152.9z"/>
				<path id="XMLID_536_" d="M167.6,27.9v-1.3c-0.3,0.5-0.7,0.8-1.3,1.1c-0.5,0.3-1.1,0.4-1.7,0.4c-0.6,0-1.1-0.1-1.6-0.4
					c-0.5-0.3-0.8-0.6-1-1.1c-0.2-0.5-0.3-1.1-0.3-1.9v-5.6h2.3v4.1c0,1.2,0,2,0.1,2.3c0.1,0.3,0.2,0.5,0.5,0.7
					c0.2,0.2,0.5,0.2,0.9,0.2c0.4,0,0.8-0.1,1.1-0.3s0.5-0.5,0.6-0.8c0.1-0.3,0.2-1.1,0.2-2.4v-3.7h2.3v8.8H167.6z"/>
				<path id="XMLID_534_" d="M180.2,27.9h-2.3v-4.5c0-1,0-1.6-0.1-1.8s-0.3-0.5-0.5-0.7c-0.2-0.2-0.5-0.2-0.8-0.2
					c-0.4,0-0.8,0.1-1.1,0.3c-0.3,0.2-0.5,0.5-0.7,0.9c-0.1,0.4-0.2,1-0.2,2v4h-2.3v-8.8h2.2v1.3c0.8-1,1.7-1.5,2.9-1.5
					c0.5,0,1,0.1,1.4,0.3s0.7,0.4,1,0.7c0.2,0.3,0.4,0.6,0.5,1c0.1,0.4,0.1,0.9,0.1,1.6V27.9z"/>
				<path id="XMLID_531_" d="M184.3,21.8l-2.1-0.4c0.2-0.9,0.6-1.5,1.2-1.9c0.6-0.4,1.4-0.6,2.6-0.6c1,0,1.8,0.1,2.3,0.4
					s0.9,0.6,1.1,0.9c0.2,0.4,0.3,1.1,0.3,2.1l0,2.7c0,0.8,0,1.3,0.1,1.7c0.1,0.4,0.2,0.8,0.4,1.2h-2.3c-0.1-0.2-0.1-0.4-0.2-0.7
					c0-0.1-0.1-0.2-0.1-0.3c-0.4,0.4-0.8,0.7-1.3,0.9c-0.5,0.2-0.9,0.3-1.5,0.3c-0.9,0-1.6-0.2-2.1-0.7c-0.5-0.5-0.8-1.1-0.8-1.9
					c0-0.5,0.1-0.9,0.4-1.3c0.2-0.4,0.6-0.7,1-0.9c0.4-0.2,1-0.4,1.9-0.5c1.1-0.2,1.8-0.4,2.3-0.6V22c0-0.4-0.1-0.8-0.3-1
					s-0.6-0.3-1.3-0.3c-0.4,0-0.7,0.1-1,0.2C184.7,21.1,184.5,21.4,184.3,21.8z M187.4,23.7c-0.3,0.1-0.8,0.2-1.4,0.4
					c-0.6,0.1-1.1,0.3-1.3,0.4c-0.3,0.2-0.5,0.5-0.5,0.8c0,0.3,0.1,0.6,0.4,0.8s0.6,0.4,0.9,0.4c0.4,0,0.8-0.1,1.2-0.4
					c0.3-0.2,0.5-0.5,0.6-0.8c0.1-0.2,0.1-0.6,0.1-1.1V23.7z"/>
				<path id="XMLID_529_" d="M199,27.9h-2.3v-8.8h2.2v1.3c0.4-0.6,0.7-1,1-1.2c0.3-0.2,0.6-0.3,1-0.3c0.5,0,1,0.1,1.5,0.4l-0.7,2
					c-0.4-0.3-0.8-0.4-1.1-0.4c-0.3,0-0.6,0.1-0.8,0.3s-0.4,0.5-0.5,1c-0.1,0.5-0.2,1.5-0.2,3V27.9z"/>
				<path id="XMLID_526_" d="M208.5,25.1l2.3,0.4c-0.3,0.9-0.8,1.5-1.4,1.9c-0.6,0.4-1.5,0.7-2.4,0.7c-1.5,0-2.7-0.5-3.4-1.5
					c-0.6-0.8-0.9-1.8-0.9-3c0-1.5,0.4-2.6,1.1-3.4c0.8-0.8,1.7-1.2,2.9-1.2c1.3,0,2.3,0.4,3.1,1.3c0.8,0.9,1.1,2.2,1.1,4h-5.8
					c0,0.7,0.2,1.2,0.6,1.6s0.8,0.6,1.3,0.6c0.4,0,0.7-0.1,0.9-0.3S208.4,25.6,208.5,25.1z M208.6,22.8c0-0.7-0.2-1.2-0.5-1.5
					s-0.7-0.5-1.2-0.5c-0.5,0-0.9,0.2-1.3,0.6s-0.5,0.9-0.5,1.5H208.6z"/>
				<path id="XMLID_523_" d="M220.9,27.9h-2.2v-1.3c-0.4,0.5-0.8,0.9-1.3,1.1c-0.5,0.2-1,0.4-1.5,0.4c-1,0-1.9-0.4-2.6-1.2
					c-0.7-0.8-1.1-2-1.1-3.4c0-1.5,0.4-2.6,1.1-3.4s1.6-1.2,2.7-1.2c1,0,1.8,0.4,2.6,1.2v-4.4h2.3V27.9z M214.7,23.3
					c0,0.9,0.1,1.6,0.4,2c0.4,0.6,0.9,0.9,1.6,0.9c0.5,0,1-0.2,1.4-0.7s0.6-1.1,0.6-2c0-1-0.2-1.7-0.5-2.2s-0.8-0.7-1.4-0.7
					c-0.6,0-1,0.2-1.4,0.7C214.9,21.8,214.7,22.5,214.7,23.3z"/>
			</g>
		</g>
	</g>
	<g id="XMLID_25677_">
		<g id="XMLID_25702_">
			<defs>
				<rect id="XMLID_25703_" x="12.2" y="8.4" width="18.9" height="27.6"/>
			</defs>
			<clipPath id="XMLID_271_">
				<use xlink:href="#XMLID_25703_"  style="overflow:visible;"/>
			</clipPath>
			<path id="XMLID_25720_" class="st4" d="M23.6,33.6c0,1.1-0.9,1.9-1.9,1.9c-1.1,0-1.9-0.9-1.9-1.9c0-1.1,0.9-1.9,1.9-1.9
				C22.7,31.6,23.6,32.5,23.6,33.6L23.6,33.6z M23.6,33.6"/>
			<path id="XMLID_25704_" class="st5" d="M30.3,14.3c-1.5-3.5-4.9-5.8-8.7-5.8c-1.2,0-2.4,0.2-3.6,0.7c-4.8,2-7.1,7.5-5.1,12.3
				c1.4,3.4,4.6,5.6,8.2,5.8v3.9c-1.1,0.2-1.9,1.2-1.9,2.4c0,1.4,1.1,2.5,2.5,2.5s2.5-1.1,2.5-2.5c0-1.2-0.8-2.2-1.9-2.4v-3.9
				c1.1-0.1,2.1-0.3,3.1-0.7c2.3-1,4.1-2.8,5.1-5.1C31.2,19.1,31.2,16.6,30.3,14.3L30.3,14.3z M29.5,20.7h-2.6c0.2-1,0.3-2,0.3-2.9
				c0-1-0.1-1.9-0.3-2.9h2.5C30.2,16.8,30.2,18.9,29.5,20.7L29.5,20.7z M13.7,20.7c-0.7-1.9-0.7-4,0-5.8h2.6
				c-0.2,0.9-0.3,1.9-0.3,2.9c0,0.9,0.1,1.9,0.3,2.9H13.7z M17.1,17.8c0-1,0.1-2,0.3-2.9h3.7v5.8h-3.6
				C17.2,19.8,17.1,18.8,17.1,17.8L17.1,17.8z M22.1,9.6c1.5,0.3,2.8,2.1,3.5,4.4h-3.5V9.6z M21.1,9.6v4.4h-3.4
				C18.4,11.7,19.7,9.9,21.1,9.6L21.1,9.6z M21.1,21.8v4.3c-1.4-0.4-2.6-2.2-3.3-4.3H21.1z M22.1,26.1v-4.4h3.4
				C24.8,23.9,23.5,25.8,22.1,26.1L22.1,26.1z M22.1,20.7V15h3.8c0.2,0.9,0.3,1.9,0.3,2.9c0,0.9-0.1,1.9-0.4,2.9L22.1,20.7
				L22.1,20.7z M29,13.9h-2.3c-0.3-0.9-0.6-1.7-1-2.5c-0.3-0.6-0.6-1-1-1.4C26.5,10.8,28.1,12.1,29,13.9L29,13.9z M18.4,10.1
				c0.1,0,0.2-0.1,0.3-0.1c-0.4,0.4-0.7,0.9-1,1.5c-0.4,0.7-0.7,1.6-1,2.5h-2.4C15.1,12.3,16.5,10.9,18.4,10.1L18.4,10.1z
				 M14.2,21.8h2.5c0.5,1.6,1.3,3,2.2,4C16.9,25.1,15.2,23.7,14.2,21.8L14.2,21.8z M23,33.6c0,0.8-0.6,1.4-1.4,1.4
				c-0.8,0-1.4-0.6-1.4-1.4c0-0.8,0.6-1.4,1.4-1.4C22.4,32.1,23,32.8,23,33.6L23,33.6z M24.8,25.6c-0.1,0.1-0.2,0.1-0.4,0.1
				c0.9-1,1.7-2.4,2.2-4H29C28.1,23.5,26.6,24.8,24.8,25.6L24.8,25.6z M24.8,25.6"/>
		</g>
		<path id="XMLID_25699_" d="M17.5,33.6c0,0.3,0.2,0.5,0.5,0.5c0.3,0,0.5-0.2,0.5-0.5c0-0.3-0.2-0.5-0.5-0.5
			C17.7,33.1,17.5,33.3,17.5,33.6L17.5,33.6z M17.5,33.6"/>
		<path id="XMLID_25696_" d="M14.2,33.6c0,0.3,0.2,0.5,0.5,0.5c0.3,0,0.5-0.2,0.5-0.5c0-0.3-0.2-0.5-0.5-0.5
			C14.4,33.1,14.2,33.3,14.2,33.6L14.2,33.6z M14.2,33.6"/>
		<path id="XMLID_25693_" d="M15.8,33.6c0,0.3,0.2,0.5,0.5,0.5c0.3,0,0.5-0.2,0.5-0.5c0-0.3-0.2-0.5-0.5-0.5
			C16.1,33.1,15.8,33.3,15.8,33.6L15.8,33.6z M15.8,33.6"/>
		<path id="XMLID_25690_" d="M12.7,33.2c-0.1,0.1-0.2,0.2-0.2,0.4c0,0.1,0.1,0.3,0.2,0.4c0.1,0.1,0.2,0.2,0.4,0.2
			c0.1,0,0.3-0.1,0.4-0.2c0.1-0.1,0.2-0.2,0.2-0.4c0-0.1-0.1-0.3-0.2-0.4c-0.1-0.1-0.2-0.2-0.4-0.2C12.9,33.1,12.8,33.1,12.7,33.2
			L12.7,33.2z M12.7,33.2"/>
		<path id="XMLID_25687_" d="M29.8,33.2c-0.1,0.1-0.2,0.2-0.2,0.4c0,0.1,0.1,0.3,0.2,0.4c0.1,0.1,0.2,0.2,0.4,0.2
			c0.1,0,0.3-0.1,0.4-0.2c0.1-0.1,0.2-0.2,0.2-0.4c0-0.1-0.1-0.3-0.2-0.4c-0.1-0.1-0.2-0.2-0.4-0.2C30,33.1,29.9,33.1,29.8,33.2
			L29.8,33.2z M29.8,33.2"/>
		<path id="XMLID_25684_" d="M28.5,33.1c-0.3,0-0.5,0.2-0.5,0.5c0,0.3,0.2,0.5,0.5,0.5c0.3,0,0.5-0.2,0.5-0.5
			C29,33.3,28.8,33.1,28.5,33.1L28.5,33.1z M28.5,33.1"/>
		<path id="XMLID_25681_" d="M26.8,33.1c-0.3,0-0.5,0.2-0.5,0.5c0,0.3,0.2,0.5,0.5,0.5c0.3,0,0.5-0.2,0.5-0.5
			C27.4,33.3,27.1,33.1,26.8,33.1L26.8,33.1z M26.8,33.1"/>
		<path id="XMLID_25678_" d="M24.7,33.6c0,0.3,0.2,0.5,0.5,0.5c0.3,0,0.5-0.2,0.5-0.5c0-0.3-0.2-0.5-0.5-0.5
			C24.9,33.1,24.7,33.3,24.7,33.6L24.7,33.6z M24.7,33.6"/>
	</g>
</g>
</svg>
