<?xml version="1.0" encoding="utf-8"?>
<!-- Generator: Adobe Illustrator 19.0.0, SVG Export Plug-In . SVG Version: 6.00 Build 0)  -->
<svg version="1.1" id="Capa_1" xmlns="http://www.w3.org/2000/svg" xmlns:xlink="http://www.w3.org/1999/xlink" x="0px" y="0px"
	 viewBox="0 0 293.3 33.7" style="enable-background:new 0 0 293.3 33.7;" xml:space="preserve">
<style type="text/css">
	.st0{fill:#FFFFFF;}
	.st1{fill:#3B86B1;}
</style>
<g id="XMLID_25_">
	<g id="XMLID_59_">
		<g id="XMLID_227_">
			<g id="XMLID_234_">
				<polygon id="XMLID_238_" class="st0" points="266.6,33.3 280.7,17 266.6,0.6 278.5,0.6 292.6,17 278.5,33.3 				"/>
				<path id="XMLID_235_" class="st1" d="M278.3,1.1L292,17l-13.7,15.8h-10.6l13.1-15.2l0.6-0.7l-0.6-0.7L267.7,1.1H278.3
					 M278.8,0.1h-13.2L280.1,17l-14.5,16.8h13.2L293.3,17L278.8,0.1L278.8,0.1z"/>
			</g>
		</g>
	</g>
	<g id="XMLID_116_">
		<g id="XMLID_228_">
			<g id="XMLID_229_">
				<polygon id="XMLID_233_" class="st0" points="14.7,33.3 0.7,17 14.7,0.6 26.6,0.6 12.6,17 26.6,33.3 				"/>
				<path id="XMLID_230_" class="st1" d="M25.6,1.1L12.5,16.3L11.9,17l0.6,0.7l13.1,15.2H15L1.3,17L15,1.1H25.6 M27.7,0.1H14.5L0,17
					l14.5,16.8h13.2L13.2,17L27.7,0.1L27.7,0.1z"/>
			</g>
		</g>
	</g>
	<g id="XMLID_26_">
		<polygon id="XMLID_140_" class="st0" points="32,33.3 17.9,17 32,0.6 261.3,0.6 275.4,17 261.3,33.3 		"/>
		<path id="XMLID_126_" class="st1" d="M32.2,1.1l228.9,0L274.7,17l-13.7,15.8l-228.9,0L18.5,17L32.2,1.1 M31.7,0.1L17.2,17
			l14.5,16.8l229.8,0L276.1,17L261.5,0.1L31.7,0.1L31.7,0.1z"/>
	</g>
</g>
<g id="XMLID_20_">
	<path id="XMLID_27_" class="st1" d="M48.5,23.5V12.1h4.9c1.2,0,2.1,0.1,2.7,0.3s1,0.6,1.3,1.1c0.3,0.5,0.5,1.1,0.5,1.8
		c0,0.9-0.3,1.6-0.8,2.1c-0.5,0.6-1.3,0.9-2.3,1.1c0.5,0.3,0.9,0.6,1.2,1c0.3,0.3,0.8,1,1.3,1.9l1.4,2.2H56l-1.7-2.5
		c-0.6-0.9-1-1.5-1.2-1.7s-0.5-0.4-0.7-0.5c-0.2-0.1-0.6-0.1-1.2-0.1h-0.5v4.8H48.5z M50.8,16.9h1.7c1.1,0,1.8,0,2.1-0.1
		c0.3-0.1,0.5-0.3,0.6-0.5s0.2-0.5,0.2-0.9c0-0.4-0.1-0.7-0.3-0.9c-0.2-0.2-0.5-0.4-0.9-0.4c-0.2,0-0.8,0-1.7,0h-1.8V16.9z"/>
	<path id="XMLID_56_" class="st1" d="M64.8,20.9l2.2,0.4c-0.3,0.8-0.7,1.4-1.3,1.8c-0.6,0.4-1.4,0.6-2.3,0.6c-1.4,0-2.5-0.5-3.2-1.4
		c-0.5-0.8-0.8-1.7-0.8-2.9c0-1.4,0.4-2.5,1.1-3.2s1.6-1.2,2.7-1.2c1.2,0,2.2,0.4,2.9,1.2c0.7,0.8,1.1,2.1,1,3.7h-5.5
		c0,0.7,0.2,1.2,0.5,1.5c0.3,0.4,0.8,0.5,1.3,0.5c0.3,0,0.6-0.1,0.9-0.3S64.7,21.3,64.8,20.9z M65,18.7c0-0.6-0.2-1.1-0.5-1.4
		s-0.7-0.5-1.1-0.5c-0.5,0-0.9,0.2-1.2,0.5s-0.5,0.8-0.5,1.4H65z"/>
	<path id="XMLID_61_" class="st1" d="M76.5,23.5h-2v-1.2c-0.3,0.5-0.7,0.8-1.2,1.1s-0.9,0.3-1.4,0.3c-1,0-1.8-0.4-2.4-1.2
		s-1-1.8-1-3.2c0-1.4,0.3-2.5,1-3.2c0.7-0.7,1.5-1.1,2.5-1.1c0.9,0,1.7,0.4,2.4,1.2v-4.1h2.2V23.5z M70.7,19.2
		c0,0.9,0.1,1.5,0.4,1.9c0.4,0.6,0.8,0.9,1.5,0.9c0.5,0,0.9-0.2,1.3-0.6c0.4-0.4,0.5-1.1,0.5-1.9c0-1-0.2-1.6-0.5-2.1
		s-0.8-0.6-1.3-0.6c-0.5,0-1,0.2-1.3,0.6S70.7,18.4,70.7,19.2z"/>
	<path id="XMLID_73_" class="st1" d="M90.8,23.5h-2v-1.2c-0.3,0.5-0.7,0.8-1.2,1.1s-0.9,0.3-1.4,0.3c-1,0-1.8-0.4-2.4-1.2
		s-1-1.8-1-3.2c0-1.4,0.3-2.5,1-3.2c0.7-0.7,1.5-1.1,2.5-1.1c0.9,0,1.7,0.4,2.4,1.2v-4.1h2.2V23.5z M84.9,19.2
		c0,0.9,0.1,1.5,0.4,1.9c0.4,0.6,0.8,0.9,1.5,0.9c0.5,0,0.9-0.2,1.3-0.6c0.4-0.4,0.5-1.1,0.5-1.9c0-1-0.2-1.6-0.5-2.1
		s-0.8-0.6-1.3-0.6c-0.5,0-1,0.2-1.3,0.6S84.9,18.4,84.9,19.2z"/>
	<path id="XMLID_120_" class="st1" d="M97.7,20.9l2.2,0.4c-0.3,0.8-0.7,1.4-1.3,1.8c-0.6,0.4-1.4,0.6-2.3,0.6
		c-1.4,0-2.5-0.5-3.2-1.4c-0.5-0.8-0.8-1.7-0.8-2.9c0-1.4,0.4-2.5,1.1-3.2s1.6-1.2,2.7-1.2c1.2,0,2.2,0.4,2.9,1.2
		c0.7,0.8,1.1,2.1,1,3.7h-5.5c0,0.7,0.2,1.2,0.5,1.5c0.3,0.4,0.8,0.5,1.3,0.5c0.3,0,0.6-0.1,0.9-0.3S97.6,21.3,97.7,20.9z
		 M97.9,18.7c0-0.6-0.2-1.1-0.5-1.4s-0.7-0.5-1.1-0.5c-0.5,0-0.9,0.2-1.2,0.5s-0.5,0.8-0.5,1.4H97.9z"/>
	<path id="XMLID_145_" class="st1" d="M107.9,17.8l-2-0.4c0.2-0.8,0.6-1.4,1.2-1.8s1.4-0.6,2.4-0.6c1,0,1.7,0.1,2.2,0.3
		c0.5,0.2,0.8,0.5,1,0.9s0.3,1,0.3,2l0,2.6c0,0.7,0,1.3,0.1,1.6s0.2,0.7,0.4,1.1h-2.2c-0.1-0.1-0.1-0.4-0.2-0.6
		c0-0.1-0.1-0.2-0.1-0.3c-0.4,0.4-0.8,0.6-1.2,0.8c-0.4,0.2-0.9,0.3-1.4,0.3c-0.9,0-1.5-0.2-2-0.7s-0.7-1-0.7-1.8
		c0-0.5,0.1-0.9,0.3-1.3c0.2-0.4,0.5-0.6,0.9-0.8c0.4-0.2,1-0.4,1.7-0.5c1-0.2,1.7-0.4,2.1-0.5v-0.2c0-0.4-0.1-0.7-0.3-0.9
		c-0.2-0.2-0.6-0.3-1.2-0.3c-0.4,0-0.7,0.1-0.9,0.2S108.1,17.4,107.9,17.8z M110.9,19.6c-0.3,0.1-0.7,0.2-1.3,0.3s-1,0.3-1.2,0.4
		c-0.3,0.2-0.4,0.5-0.4,0.8c0,0.3,0.1,0.6,0.3,0.8c0.2,0.2,0.5,0.3,0.9,0.3c0.4,0,0.8-0.1,1.1-0.4c0.3-0.2,0.4-0.4,0.5-0.7
		c0.1-0.2,0.1-0.5,0.1-1.1V19.6z M108.5,14.2l1.1-2.3h2.5l-2.1,2.3H108.5z"/>
	<path id="XMLID_149_" class="st1" d="M117.3,23.5h-2.2v-8.3h2v1.2c0.3-0.6,0.7-0.9,0.9-1.1c0.3-0.2,0.6-0.3,0.9-0.3
		c0.5,0,1,0.1,1.4,0.4l-0.7,1.9c-0.4-0.2-0.7-0.4-1-0.4c-0.3,0-0.6,0.1-0.8,0.3c-0.2,0.2-0.4,0.5-0.5,0.9c-0.1,0.4-0.2,1.4-0.2,2.8
		V23.5z"/>
	<path id="XMLID_151_" class="st1" d="M126.2,20.9l2.2,0.4c-0.3,0.8-0.7,1.4-1.3,1.8c-0.6,0.4-1.4,0.6-2.3,0.6
		c-1.4,0-2.5-0.5-3.2-1.4c-0.5-0.8-0.8-1.7-0.8-2.9c0-1.4,0.4-2.5,1.1-3.2s1.6-1.2,2.7-1.2c1.2,0,2.2,0.4,2.9,1.2
		c0.7,0.8,1.1,2.1,1,3.7H123c0,0.7,0.2,1.2,0.5,1.5c0.3,0.4,0.8,0.5,1.3,0.5c0.3,0,0.6-0.1,0.9-0.3S126.1,21.3,126.2,20.9z
		 M126.3,18.7c0-0.6-0.2-1.1-0.5-1.4s-0.7-0.5-1.1-0.5c-0.5,0-0.9,0.2-1.2,0.5s-0.5,0.8-0.5,1.4H126.3z"/>
	<path id="XMLID_154_" class="st1" d="M131.9,17.8l-2-0.4c0.2-0.8,0.6-1.4,1.2-1.8s1.4-0.6,2.4-0.6c1,0,1.7,0.1,2.2,0.3
		c0.5,0.2,0.8,0.5,1,0.9s0.3,1,0.3,2l0,2.6c0,0.7,0,1.3,0.1,1.6s0.2,0.7,0.4,1.1h-2.2c-0.1-0.1-0.1-0.4-0.2-0.6
		c0-0.1-0.1-0.2-0.1-0.3c-0.4,0.4-0.8,0.6-1.2,0.8c-0.4,0.2-0.9,0.3-1.4,0.3c-0.9,0-1.5-0.2-2-0.7s-0.7-1-0.7-1.8
		c0-0.5,0.1-0.9,0.3-1.3c0.2-0.4,0.5-0.6,0.9-0.8c0.4-0.2,1-0.4,1.7-0.5c1-0.2,1.7-0.4,2.1-0.5v-0.2c0-0.4-0.1-0.7-0.3-0.9
		c-0.2-0.2-0.6-0.3-1.2-0.3c-0.4,0-0.7,0.1-0.9,0.2S132.1,17.4,131.9,17.8z M134.9,19.6c-0.3,0.1-0.7,0.2-1.3,0.3s-1,0.3-1.2,0.4
		c-0.3,0.2-0.4,0.5-0.4,0.8c0,0.3,0.1,0.6,0.3,0.8c0.2,0.2,0.5,0.3,0.9,0.3c0.4,0,0.8-0.1,1.1-0.4c0.3-0.2,0.4-0.4,0.5-0.7
		c0.1-0.2,0.1-0.5,0.1-1.1V19.6z"/>
	<path id="XMLID_157_" class="st1" d="M145.3,17.8l-2-0.4c0.2-0.8,0.6-1.4,1.2-1.8s1.4-0.6,2.4-0.6c1,0,1.7,0.1,2.2,0.3
		s0.8,0.5,1,0.9s0.3,1,0.3,2l0,2.6c0,0.7,0,1.3,0.1,1.6s0.2,0.7,0.4,1.1h-2.2c-0.1-0.1-0.1-0.4-0.2-0.6c0-0.1-0.1-0.2-0.1-0.3
		c-0.4,0.4-0.8,0.6-1.2,0.8s-0.9,0.3-1.4,0.3c-0.9,0-1.5-0.2-2-0.7s-0.7-1-0.7-1.8c0-0.5,0.1-0.9,0.3-1.3s0.5-0.6,0.9-0.8
		s1-0.4,1.7-0.5c1-0.2,1.7-0.4,2.1-0.5v-0.2c0-0.4-0.1-0.7-0.3-0.9s-0.6-0.3-1.2-0.3c-0.4,0-0.7,0.1-0.9,0.2S145.4,17.4,145.3,17.8z
		 M148.2,19.6c-0.3,0.1-0.7,0.2-1.3,0.3s-1,0.3-1.2,0.4c-0.3,0.2-0.4,0.5-0.4,0.8c0,0.3,0.1,0.6,0.3,0.8s0.5,0.3,0.9,0.3
		c0.4,0,0.8-0.1,1.1-0.4c0.3-0.2,0.4-0.4,0.5-0.7c0.1-0.2,0.1-0.5,0.1-1.1V19.6z"/>
	<path id="XMLID_160_" class="st1" d="M152.4,15.2h2v1.1c0.7-0.9,1.6-1.3,2.6-1.3c0.5,0,1,0.1,1.4,0.3s0.7,0.5,1,1
		c0.4-0.4,0.8-0.8,1.2-1s0.9-0.3,1.4-0.3c0.6,0,1.1,0.1,1.5,0.4s0.7,0.6,0.9,1.1c0.2,0.4,0.2,0.9,0.2,1.7v5.3h-2.2v-4.7
		c0-0.8-0.1-1.4-0.2-1.6c-0.2-0.3-0.5-0.5-0.9-0.5c-0.3,0-0.6,0.1-0.9,0.3s-0.5,0.5-0.6,0.8s-0.2,0.9-0.2,1.7v4h-2.2V19
		c0-0.8,0-1.3-0.1-1.6s-0.2-0.4-0.4-0.5s-0.4-0.2-0.7-0.2c-0.3,0-0.6,0.1-0.9,0.3s-0.5,0.4-0.6,0.8s-0.2,0.9-0.2,1.7v4h-2.2V15.2z"
		/>
	<path id="XMLID_162_" class="st1" d="M166.7,15.2h2v1.2c0.3-0.4,0.6-0.8,1.1-1s1-0.4,1.5-0.4c1,0,1.8,0.4,2.5,1.1s1,1.8,1,3.2
		c0,1.4-0.3,2.5-1,3.2s-1.5,1.2-2.5,1.2c-0.5,0-0.9-0.1-1.2-0.3s-0.8-0.5-1.2-0.9v4.2h-2.2V15.2z M168.9,19.3c0,0.9,0.2,1.6,0.6,2.1
		s0.8,0.7,1.4,0.7c0.5,0,0.9-0.2,1.3-0.6s0.5-1.1,0.5-2c0-0.9-0.2-1.5-0.5-1.9s-0.8-0.6-1.3-0.6c-0.5,0-1,0.2-1.3,0.6
		S168.9,18.4,168.9,19.3z"/>
	<path id="XMLID_165_" class="st1" d="M176.5,23.5V12.1h2.2v11.5H176.5z"/>
	<path id="XMLID_168_" class="st1" d="M181,14.1v-2h2.2v2H181z M181,23.5v-8.3h2.2v8.3H181z"/>
	<path id="XMLID_172_" class="st1" d="M187.1,17.8l-2-0.4c0.2-0.8,0.6-1.4,1.2-1.8s1.4-0.6,2.4-0.6c1,0,1.7,0.1,2.2,0.3
		s0.8,0.5,1,0.9s0.3,1,0.3,2l0,2.6c0,0.7,0,1.3,0.1,1.6s0.2,0.7,0.4,1.1h-2.2c-0.1-0.1-0.1-0.4-0.2-0.6c0-0.1-0.1-0.2-0.1-0.3
		c-0.4,0.4-0.8,0.6-1.2,0.8s-0.9,0.3-1.4,0.3c-0.9,0-1.5-0.2-2-0.7s-0.7-1-0.7-1.8c0-0.5,0.1-0.9,0.3-1.3s0.5-0.6,0.9-0.8
		s1-0.4,1.7-0.5c1-0.2,1.7-0.4,2.1-0.5v-0.2c0-0.4-0.1-0.7-0.3-0.9s-0.6-0.3-1.2-0.3c-0.4,0-0.7,0.1-0.9,0.2S187.2,17.4,187.1,17.8z
		 M190,19.6c-0.3,0.1-0.7,0.2-1.3,0.3s-1,0.3-1.2,0.4c-0.3,0.2-0.4,0.5-0.4,0.8c0,0.3,0.1,0.6,0.3,0.8s0.5,0.3,0.9,0.3
		c0.4,0,0.8-0.1,1.1-0.4c0.3-0.2,0.4-0.4,0.5-0.7c0.1-0.2,0.1-0.5,0.1-1.1V19.6z"/>
	<path id="XMLID_187_" class="st1" d="M202.4,26.9h-1.5c-0.8-1.2-1.4-2.5-1.8-3.8s-0.6-2.6-0.6-3.8c0-1.5,0.3-2.9,0.8-4.3
		c0.4-1.2,1-2.2,1.7-3.2h1.5c-0.7,1.6-1.2,2.9-1.5,4s-0.4,2.3-0.4,3.5c0,0.9,0.1,1.7,0.2,2.6s0.4,1.7,0.7,2.6
		C201.6,25.2,202,25.9,202.4,26.9z"/>
	<path id="XMLID_189_" class="st1" d="M205.7,23.5L203,12.1h2.4l1.7,7.9l2.1-7.9h2.8l2,8l1.8-8h2.3l-2.8,11.5h-2.5l-2.3-8.6
		l-2.3,8.6H205.7z"/>
	<path id="XMLID_191_" class="st1" d="M228.7,23.5h-2.5l-1-2.6h-4.6l-0.9,2.6h-2.5l4.5-11.5h2.4L228.7,23.5z M224.4,19l-1.6-4.3
		l-1.5,4.3H224.4z"/>
	<path id="XMLID_194_" class="st1" d="M229.9,23.5V12.1h2.3l4.7,7.6v-7.6h2.1v11.5h-2.3l-4.6-7.5v7.5H229.9z"/>
	<path id="XMLID_196_" class="st1" d="M240.8,26.9c0.4-0.9,0.7-1.6,0.9-2.1s0.3-1.1,0.5-1.7s0.3-1.3,0.3-1.8s0.1-1.2,0.1-1.8
		c0-1.2-0.1-2.4-0.4-3.5s-0.8-2.4-1.5-4h1.5c0.8,1.1,1.4,2.3,1.8,3.6s0.7,2.5,0.7,3.8c0,1.1-0.2,2.3-0.5,3.5c-0.4,1.4-1,2.8-1.9,4.1
		H240.8z"/>
</g>
</svg>
