<?xml version="1.0" encoding="utf-8"?>
<!-- Generator: Adobe Illustrator 19.0.0, SVG Export Plug-In . SVG Version: 6.00 Build 0)  -->
<svg version="1.1" id="Capa_1" xmlns="http://www.w3.org/2000/svg" xmlns:xlink="http://www.w3.org/1999/xlink" x="0px" y="0px"
	 viewBox="-247 376.9 99.2 88" style="enable-background:new -247 376.9 99.2 88;" xml:space="preserve">
<style type="text/css">
	.st0{fill-rule:evenodd;clip-rule:evenodd;fill:url(#XMLID_2_);}
	.st1{fill:#FFFFFF;}
	.st2{fill:url(#SVGID_1_);}
	.st3{fill:url(#SVGID_2_);}
	.st4{fill:url(#SVGID_3_);}
	.st5{fill:url(#SVGID_4_);}
	.st6{fill:#3B608D;}
	.st7{fill:url(#SVGID_5_);}
	.st8{fill:#DDDDDD;}
	.st9{fill:#748C42;}
	.st10{fill:#B97034;}
</style>
<radialGradient id="XMLID_2_" cx="-197.4" cy="420.89" r="44.011" gradientUnits="userSpaceOnUse">
	<stop  offset="0" style="stop-color:#66A9E1"/>
	<stop  offset="0.4763" style="stop-color:#64A9E1"/>
	<stop  offset="0.6808" style="stop-color:#5DA8E0"/>
	<stop  offset="0.8332" style="stop-color:#50A7DE"/>
	<stop  offset="0.959" style="stop-color:#3FA5DC"/>
	<stop  offset="1" style="stop-color:#37A4DB"/>
</radialGradient>
<circle id="XMLID_13997_" class="st0" cx="-197.4" cy="420.9" r="44"/>
<g id="XMLID_13309_">
	<path id="XMLID_13310_" class="st1" d="M-209.7,450.4v-8.6h1.7v3.4h3.4v-3.4h1.7v8.6h-1.7v-3.8h-3.4v3.8H-209.7z"/>
	<path id="XMLID_13312_" class="st1" d="M-201,441.8h1.7v4.7c0,0.7,0,1.2,0.1,1.4c0.1,0.4,0.3,0.6,0.5,0.8s0.7,0.3,1.1,0.3
		c0.5,0,0.9-0.1,1.1-0.3s0.4-0.4,0.5-0.7s0.1-0.8,0.1-1.5v-4.8h1.7v4.5c0,1,0,1.8-0.1,2.2s-0.3,0.8-0.5,1.1s-0.6,0.5-1,0.7
		s-1,0.3-1.7,0.3c-0.8,0-1.4-0.1-1.9-0.3s-0.8-0.4-1-0.7s-0.4-0.6-0.5-1c-0.1-0.5-0.2-1.2-0.2-2.2V441.8z"/>
	<path id="XMLID_13314_" class="st1" d="M-192.3,441.8h3.4c0.7,0,1.2,0,1.5,0.1s0.6,0.2,0.9,0.4s0.5,0.4,0.7,0.7s0.3,0.6,0.3,1
		c0,0.4-0.1,0.8-0.3,1.1s-0.5,0.6-0.9,0.8c0.5,0.2,0.9,0.4,1.2,0.8s0.4,0.8,0.4,1.3c0,0.4-0.1,0.8-0.3,1.1s-0.4,0.7-0.7,0.9
		s-0.7,0.4-1.2,0.4c-0.3,0-1,0.1-2.1,0.1h-2.9V441.8z M-190.6,443.2v2h1.1c0.7,0,1.1,0,1.3,0c0.3,0,0.5-0.1,0.7-0.3s0.3-0.4,0.3-0.7
		c0-0.3-0.1-0.5-0.2-0.6s-0.4-0.3-0.7-0.3c-0.2,0-0.7,0-1.5,0H-190.6z M-190.6,446.6v2.3h1.6c0.6,0,1,0,1.2-0.1
		c0.3,0,0.5-0.2,0.6-0.3s0.2-0.4,0.2-0.7c0-0.3-0.1-0.5-0.2-0.7s-0.3-0.3-0.5-0.4s-0.7-0.1-1.5-0.1H-190.6z"/>
</g>
<g>
	
		<linearGradient id="SVGID_1_" gradientUnits="userSpaceOnUse" x1="-182.1756" y1="399.7473" x2="-182.1756" y2="364.2546" gradientTransform="matrix(0.75 0 0 -0.75 -63.9097 708.6151)">
		<stop  offset="0" style="stop-color:#314594"/>
		<stop  offset="1" style="stop-color:#234B7B"/>
	</linearGradient>
	<path class="st2" d="M-154.1,421.9v13.6l-92.9-15.1v-11.6L-154.1,421.9z"/>
	
		<linearGradient id="SVGID_2_" gradientUnits="userSpaceOnUse" x1="-178.0983" y1="370.9098" x2="-178.0983" y2="339.1003" gradientTransform="matrix(0.75 0 0 -0.75 -63.7881 676.0995)">
		<stop  offset="0" style="stop-color:#314594"/>
		<stop  offset="1" style="stop-color:#7B8ACE"/>
	</linearGradient>
	<path class="st3" d="M-220.6,397.9l-26.4,10.8l92.9,13.1l6.3-16.3L-220.6,397.9z"/>
	
		<linearGradient id="SVGID_3_" gradientUnits="userSpaceOnUse" x1="-485.225" y1="390.706" x2="-485.225" y2="350.1907" gradientTransform="matrix(0.75 0 0 -0.75 212.8534 698.4203)">
		<stop  offset="0" style="stop-color:#314594"/>
		<stop  offset="1" style="stop-color:#7B8ACE"/>
	</linearGradient>
	<path class="st4" d="M-154.3,421.7v14.1l6.5-20.1v-10.3L-154.3,421.7z"/>
	
		<linearGradient id="SVGID_4_" gradientUnits="userSpaceOnUse" x1="-203.6869" y1="427.3643" x2="-203.6869" y2="412.6314" gradientTransform="matrix(0.75 0 0 -0.75 -62.118 739.7535)">
		<stop  offset="0" style="stop-color:#002060"/>
		<stop  offset="1" style="stop-color:#234B7B"/>
	</linearGradient>
	<path class="st5" d="M-246.4,419.7v-0.5l63,10.5v0.5L-246.4,419.7z"/>
	<path class="st6" d="M-162.1,423.1v1.5l2.8,0.5v-1.5L-162.1,423.1z"/>
	
		<linearGradient id="SVGID_5_" gradientUnits="userSpaceOnUse" x1="-195.0681" y1="396.0888" x2="-195.0681" y2="379.347" gradientTransform="matrix(0.75 0 0 -0.75 -52.3922 704.4901)">
		<stop  offset="0" style="stop-color:#3B608D"/>
		<stop  offset="1" style="stop-color:#234B7B"/>
	</linearGradient>
	<path class="st7" d="M-243.1,407.9l1.5-0.5l87.4,12.1l-0.3,0.5L-243.1,407.9z"/>
	<path class="st8" d="M-179.4,411.7v1l19.1,2.5v-1L-179.4,411.7z"/>
	<path class="st1" d="M-203.3,415.6l7,1v1.3l-7-1.3V415.6z"/>
	<path class="st1" d="M-195.9,416.7l7,1v1.3l-7-1.3V416.7z"/>
	<path class="st1" d="M-177.5,419.5l11.6,1.8l-0.3,0.8l-11.3-1.5V419.5z"/>
	<path class="st6" d="M-163.4,427.4v3l4.3,0.5v-3L-163.4,427.4z"/>
	<path class="st8" d="M-242.1,412.1l1.8,0.3v1.3l-1.8-0.3V412.1z"/>
	<path class="st9" d="M-244.1,414.9l1.8,0.3v1.3l-1.8-0.3V414.9z"/>
	<path class="st10" d="M-242,415.2l1.8,0.3v1.3l-1.8-0.3V415.2z"/>
	<path class="st8" d="M-244.1,416.9l1.8,0.3v1.3l-1.8-0.3V416.9z"/>
	<path class="st8" d="M-242,417.3l1.8,0.3v1.3l-1.8-0.3V417.3z"/>
	<path class="st8" d="M-166.5,414.8v0.8l6.8,1v-0.8L-166.5,414.8z"/>
	<path class="st10" d="M-182.6,411.4c0-0.5,0.5-0.8,1.1-0.8c0.7,0,1.1,0.3,1.1,0.6c0,0.4-0.5,0.6-1.1,0.6c-0.6,0-1.1-0.3-1.1-0.6
		V411.4z"/>
	<path class="st10" d="M-159.5,416.3c0-0.5,0.5-0.8,1.1-0.8c0.7,0,1.1,0.3,1.1,0.6c0,0.4-0.5,0.6-1.1,0.6c-0.6,0-1.1-0.3-1.1-0.6
		V416.3z"/>
	<path class="st8" d="M-190.1,427.2v1.3l0.8,0.3v-1.5H-190.1z"/>
	<path d="M-192.9,418.6l26.1,4.3v7l-25.9-4L-192.9,418.6z"/>
	<path class="st8" d="M-193,418.6l3,0.5v1h-0.8v0.8h-0.8v3.5l4.8,0.8v-3.5l-0.8-0.3v-0.8l-1-0.3l0.3-1l1.5,0.3v0.5l1.3,0.3v-0.5
		l1.5,0.3v1l-0.8-0.3v1h-0.8v3.5l5,0.8v-3.5l-1-0.3v-0.8l-0.8-0.3v-1l1.8,0.3v0.8h1v-0.5l1.5,0.3v1l-0.8-0.3v1h-0.8v3.5l5,0.8v-3.5
		l-1-0.3v-1l-1-0.3v-0.8l2,0.3l-0.3,0.5l1.3,0.3v-0.5l2,0.3v1l-1-0.3v1h-0.8v3.5l5,0.8v-3.5l-1-0.3l0.3-0.8l-1-0.3l0.3-1l2.8,0.5v7
		l-26.1-4V418.6z"/>
	<path class="st8" d="M-177,429.5v1.3l0.8,0.3v-1.5H-177z"/>
	<path class="st8" d="M-183.6,428.4v1.3l0.8,0.3v-1.5H-183.6z"/>
	<path class="st8" d="M-170.5,430.6v1.3l0.8,0.3v-1.5H-170.5z"/>
	<path class="st8" d="M-220.2,422v1.3h0.8V422H-220.2z"/>
	<path d="M-222.8,414l24.1,4v6.5l-23.9-3.8L-222.8,414z"/>
	<path class="st8" d="M-222.9,413.9l2.8,0.5v1l-0.8-0.3v1l-0.8-0.3v3.5l4.5,0.5v-3.3l-0.8-0.3v-0.8h-0.8v-1l1.5,0.3v0.5l1.3,0.3
		v-0.5h1.3v1h-0.5v0.8h-0.8v3.3l4.5,0.8v-3.3l-0.8-0.3v-0.8l-0.8-0.3v-1l1.5,0.5v0.5h1v-0.5l1.5,0.3v1l-0.8-0.3v1l-0.8-0.3v3.5
		l4.5,0.8v-3.5h-0.8v-1l-0.8-0.3v-0.8l1.8,0.3l-0.3,0.5l1.3,0.3v-0.5l1.8,0.3v1l-0.8-0.3v1l-1-0.3v3.3l4.8,0.8v-3.3h-0.8v-1h-0.8v-1
		l2.8,0.5v6.5l-24.4-3.8V413.9z"/>
	<path class="st8" d="M-208,424.1v1.3h0.8v-1.3H-208z"/>
	<path class="st8" d="M-214.1,423v1.3h0.8V423H-214.1z"/>
	<path class="st8" d="M-202,425.2v1.3h0.8v-1.3H-202z"/>
</g>
</svg>
