<?xml version="1.0" encoding="utf-8"?>
<!-- Generator: Adobe Illustrator 19.0.0, SVG Export Plug-In . SVG Version: 6.00 Build 0)  -->
<svg version="1.1" id="Capa_1" xmlns="http://www.w3.org/2000/svg" xmlns:xlink="http://www.w3.org/1999/xlink" x="0px" y="0px"
	 viewBox="-243.6 379.8 96 88" style="enable-background:new -243.6 379.8 96 88;" xml:space="preserve">
<style type="text/css">
	.st0{fill-rule:evenodd;clip-rule:evenodd;fill:url(#XMLID_2_);}
	.st1{fill:#FFFFFF;}
	.st2{fill:url(#SVGID_1_);}
	.st3{fill:url(#SVGID_2_);}
	.st4{fill:url(#SVGID_3_);}
	.st5{fill:#C0C0C0;}
	.st6{fill:url(#SVGID_4_);}
	.st7{fill:#3B608D;}
	.st8{fill:url(#SVGID_5_);}
	.st9{fill:#DDDDDD;}
</style>
<g id="XMLID_13308_">
	<radialGradient id="XMLID_2_" cx="-195.563" cy="423.822" r="44.011" gradientUnits="userSpaceOnUse">
		<stop  offset="0" style="stop-color:#66A9E1"/>
		<stop  offset="0.4763" style="stop-color:#64A9E1"/>
		<stop  offset="0.6808" style="stop-color:#5DA8E0"/>
		<stop  offset="0.8332" style="stop-color:#50A7DE"/>
		<stop  offset="0.959" style="stop-color:#3FA5DC"/>
		<stop  offset="1" style="stop-color:#37A4DB"/>
	</radialGradient>
	<circle id="XMLID_23859_" class="st0" cx="-195.6" cy="423.8" r="44"/>
	<g id="XMLID_13294_">
		<path id="XMLID_13295_" class="st1" d="M-218.5,446.5l1.7-0.2c0.1,0.6,0.3,1,0.6,1.2s0.7,0.4,1.3,0.4c0.6,0,1-0.1,1.3-0.4
			s0.4-0.5,0.4-0.8c0-0.2-0.1-0.4-0.2-0.5s-0.3-0.3-0.6-0.4c-0.2-0.1-0.7-0.2-1.4-0.4c-0.9-0.2-1.6-0.5-2-0.8
			c-0.5-0.5-0.8-1-0.8-1.7c0-0.4,0.1-0.8,0.4-1.2s0.6-0.7,1.1-0.9s1-0.3,1.7-0.3c1.1,0,1.9,0.2,2.4,0.7s0.8,1.1,0.9,1.9l-1.7,0.1
			c-0.1-0.4-0.2-0.8-0.5-1s-0.6-0.3-1.1-0.3c-0.5,0-0.9,0.1-1.2,0.3c-0.2,0.1-0.3,0.3-0.3,0.5c0,0.2,0.1,0.4,0.3,0.5
			c0.2,0.2,0.8,0.4,1.6,0.6s1.5,0.4,1.9,0.6s0.7,0.5,0.9,0.9s0.3,0.8,0.3,1.4c0,0.5-0.1,1-0.4,1.4s-0.7,0.7-1.2,1s-1.1,0.3-1.9,0.3
			c-1.1,0-1.9-0.3-2.5-0.8S-218.4,447.5-218.5,446.5z"/>
		<path id="XMLID_13297_" class="st1" d="M-208.9,449.3l-2.1-8.6h1.8l1.3,5.9l1.6-5.9h2.1l1.5,6l1.3-6h1.7l-2.1,8.6h-1.8l-1.7-6.4
			l-1.7,6.4H-208.9z"/>
		<path id="XMLID_13299_" class="st1" d="M-198.8,449.3v-8.6h1.7v8.6H-198.8z"/>
		<path id="XMLID_13302_" class="st1" d="M-193.5,449.3v-7.1h-2.5v-1.5h6.8v1.5h-2.5v7.1H-193.5z"/>
		<path id="XMLID_13304_" class="st1" d="M-182.6,446.1l1.7,0.5c-0.3,0.9-0.7,1.6-1.3,2.1s-1.4,0.7-2.3,0.7c-1.1,0-2.1-0.4-2.8-1.2
			s-1.1-1.8-1.1-3.2c0-1.4,0.4-2.5,1.1-3.3s1.7-1.2,2.9-1.2c1.1,0,1.9,0.3,2.6,0.9c0.4,0.4,0.7,0.9,0.9,1.6l-1.7,0.4
			c-0.1-0.4-0.3-0.8-0.6-1.1s-0.7-0.4-1.2-0.4c-0.6,0-1.2,0.2-1.5,0.7s-0.6,1.2-0.6,2.2c0,1.1,0.2,1.9,0.6,2.3s0.9,0.7,1.5,0.7
			c0.5,0,0.9-0.1,1.2-0.4S-182.8,446.8-182.6,446.1z"/>
		<path id="XMLID_13306_" class="st1" d="M-179.4,449.3v-8.6h1.7v3.4h3.4v-3.4h1.7v8.6h-1.7v-3.8h-3.4v3.8H-179.4z"/>
	</g>
</g>
<g>
	
		<linearGradient id="SVGID_1_" gradientUnits="userSpaceOnUse" x1="-190.9788" y1="576.3875" x2="-190.9788" y2="538.1461" gradientTransform="matrix(0.75 0 0 -0.75 -55.1701 840.3376)">
		<stop  offset="0" style="stop-color:#314594"/>
		<stop  offset="1" style="stop-color:#234B7B"/>
	</linearGradient>
	<path class="st2" d="M-153.6,422v14.7l-89.5-16.2V408L-153.6,422z"/>
	
		<linearGradient id="SVGID_2_" gradientUnits="userSpaceOnUse" x1="-187.092" y1="545.1449" x2="-187.092" y2="511.2265" gradientTransform="matrix(0.75 0 0 -0.75 -55.0521 805.2307)">
		<stop  offset="0" style="stop-color:#314594"/>
		<stop  offset="1" style="stop-color:#7B8ACE"/>
	</linearGradient>
	<path class="st3" d="M-217.7,396.4l-25.4,11.7l89.5,13.7l6-17.5L-217.7,396.4z"/>
	
		<linearGradient id="SVGID_3_" gradientUnits="userSpaceOnUse" x1="-485.7486" y1="566.5921" x2="-485.7486" y2="523.3627" gradientTransform="matrix(0.75 0 0 -0.75 213.6504 829.3306)">
		<stop  offset="0" style="stop-color:#314594"/>
		<stop  offset="1" style="stop-color:#7B8ACE"/>
	</linearGradient>
	<path class="st4" d="M-153.8,421.8v15l6.2-21.4v-11L-153.8,421.8z"/>
	<path class="st5" d="M-236,418.2l1.7,0.2v0.7h-0.5v0.7h-0.7v-1h-0.5V418.2z"/>
	<path class="st5" d="M-224.3,413.6v0.7l8.5,1.5v-0.7L-224.3,413.6z"/>
	<path class="st5" d="M-219.1,416.8v0.5l1.7,0.2V417L-219.1,416.8z"/>
	<path class="st5" d="M-219.1,418.3v0.5l2.2,0.5v-0.5L-219.1,418.3z"/>
	<path class="st5" d="M-219.1,420.6v0.5l1.7,0.2v-0.5L-219.1,420.6z"/>
	<path class="st5" d="M-219.1,422.1v0.5l2.2,0.5v-0.5L-219.1,422.1z"/>
	<path class="st5" d="M-235.9,414.5v1.2l1,0.2v-1.2L-235.9,414.5z"/>
	
		<linearGradient id="SVGID_4_" gradientUnits="userSpaceOnUse" x1="-211.6459" y1="606.3073" x2="-211.6459" y2="590.3456" gradientTransform="matrix(0.75 0 0 -0.75 -53.4322 873.9562)">
		<stop  offset="0" style="stop-color:#002060"/>
		<stop  offset="1" style="stop-color:#234B7B"/>
	</linearGradient>
	<path class="st6" d="M-242.6,419.7v-0.5l60.9,11.2v0.7L-242.6,419.7z"/>
	<path class="st7" d="M-157,430.1v3l2.2,0.5v-3.2L-157,430.1z"/>
	<path class="st7" d="M-159.6,422.1l5.2,0.7v1.2l-5.2-1V422.1z"/>
	
		<linearGradient id="SVGID_5_" gradientUnits="userSpaceOnUse" x1="-203.425" y1="572.4231" x2="-203.425" y2="554.4663" gradientTransform="matrix(0.75 0 0 -0.75 -43.9858 835.8835)">
		<stop  offset="0" style="stop-color:#3B608D"/>
		<stop  offset="1" style="stop-color:#234B7B"/>
	</linearGradient>
	<path class="st8" d="M-239.5,407.1l1.5-0.5l84.3,13l-0.2,0.5L-239.5,407.1z"/>
	<path d="M-212.5,415.5l16,2.5v8.2l-16-2.7V415.5z"/>
	<path class="st9" d="M-212.5,415.4l1.7,0.2v0.7l-0.5-0.2v0.7l-0.5-0.2v2.2l3,0.2v-2l-0.5-0.2v-0.2l-0.5-0.2v-0.5l1,0.2v0.2h1.7v0.5
		h-0.5v0.5l-0.5-0.2v2.2l3.2,0.5v-2.2h-0.7v-0.5h-0.5l0.2-0.7l1,0.2v0.2l0.5,0.2v-0.5l1,0.2v0.5h-0.5v0.5h-0.5v2l3,0.5v-2l-0.5-0.2
		v-0.5l-0.5-0.2v-0.5l1,0.2v0.5h0.7v-0.2h1.2v0.7l-0.5-0.2v0.5h-0.5v2l3,0.5v-2h-0.5v-0.5l-0.5-0.2v-0.5l1.7,0.2v8.2l-2-0.2l0.2-0.5
		h0.2v-0.5h0.7v-2.2l-3-0.2v2l0.5,0.2v0.5h0.5v0.5l-1.2-0.2v-0.2h-0.7v0.2l-1-0.2v-0.2h0.5v-0.5h0.5v-2.2l-3-0.5v2.2h0.5v0.7h0.5
		v0.5l-1.2-0.2l0.2-0.2l-0.7-0.2v0.2h-1v-0.5h0.5v-0.5h0.5v-2l-3-0.5v2l0.5,0.2v0.5l0.5,0.2v0.2h-1v-0.5h-0.7v0.2l-1-0.2v-0.5
		l0.5,0.2v-0.5h0.5v-2.2l-3-0.5v2l0.7,0.2v0.5l0.2,0.2v0.5l-1.7-0.5V415.4z"/>
	<path class="st9" d="M-210.4,414.8v0.7h0.5v-0.7H-210.4z"/>
	<path class="st9" d="M-206.6,415.3v0.7h0.5v-0.7H-206.6z"/>
	<path class="st9" d="M-202.8,415.9v0.7h0.5v-0.7H-202.8z"/>
	<path class="st9" d="M-199,416.6v0.7h0.5v-0.7H-199z"/>
	<path class="st9" d="M-210.4,424.2v0.7h0.5v-0.7H-210.4z"/>
	<path class="st9" d="M-206.8,424.8v0.7h0.5v-0.7H-206.8z"/>
	<path class="st9" d="M-202.9,425.5v0.7h0.5v-0.7H-202.9z"/>
	<path class="st9" d="M-199.1,426.1v0.7h0.5v-0.7H-199.1z"/>
	<path d="M-194.9,418.7l17.2,2.5v8.2l-17.2-2.7V418.7z"/>
	<path class="st9" d="M-194.9,418.7l2,0.2v0.7l-0.5-0.2v0.7l-0.5-0.2v2.2l3,0.2v-2l-0.5-0.2V420l-0.5-0.2v-0.5l1,0.2v0.2h2v0.5h-0.5
		v0.5l-0.5-0.2l-0.2,2.2l3.5,0.5v-2l-0.7-0.2v-0.5h-0.5v-0.7l1.2,0.2v0.2l0.7,0.2V420l1,0.2v0.5h-0.5v0.5h-0.7v2l3.5,0.5l-0.2-2
		l-0.5-0.2V421l-0.5-0.2v-0.5l1.2,0.2v0.5l0.5,0.2v-0.5h1.5v0.7l-0.7-0.2v0.7l-0.5-0.2v2l3.2,0.5v-2h-0.5v-0.5l-0.5-0.2V421l1.7,0.2
		v8.2l-2-0.2v-0.5h0.5v-0.5h0.7v-2.2l-3.2-0.2v2l0.7,0.2l-0.2,0.5h0.5v0.5l-1-0.2l-0.2-0.2h-0.7v0.2l-1-0.2v-0.2h0.5v-0.5h0.7
		l-0.2-2.2l-3.2-0.5v2.2h0.7v0.7h0.5v0.5l-1.2-0.2v-0.2l-0.7-0.2v0.5l-1.2-0.2v-0.5h0.5l0.2-0.5h0.5v-2l-3.2-0.5v2l0.7,0.2v0.5
		l0.5,0.2v0.2h-1.2v-0.5h-0.7v0.2l-1-0.2v-0.2h0.5v-0.5h0.5v-2.2l-3-0.5v2l0.5,0.2v0.5l0.5,0.2v0.5l-2-0.2V418.7z"/>
	<path class="st9" d="M-192.6,418v0.7h0.5V418H-192.6z"/>
	<path class="st9" d="M-188.6,418.6v0.7h0.5v-0.7H-188.6z"/>
	<path class="st9" d="M-184.5,419.2v0.7h0.5v-0.7H-184.5z"/>
	<path class="st9" d="M-180.4,419.8v0.7h0.5v-0.7H-180.4z"/>
	<path class="st9" d="M-192.6,427.5v0.7h0.5v-0.7H-192.6z"/>
	<path class="st9" d="M-188.7,428.1v0.7h0.5v-0.7H-188.7z"/>
	<path class="st9" d="M-184.7,428.8v0.7h0.5v-0.7H-184.7z"/>
	<path class="st9" d="M-180.6,429.4v0.7h0.5v-0.7H-180.6z"/>
	<path d="M-176,421.9l18.2,2.5v8.7l-18.2-2.7V421.9z"/>
	<path class="st9" d="M-176,421.9l2,0.2v0.7l-0.5-0.2v0.7h-0.5v2l3.2,0.5v-2.2h-0.5v-0.5l-0.5-0.2v-0.5l1,0.2v0.2h1v-0.2l1,0.2v0.5
		h-0.5v0.5h-0.5v2.2l3.5,0.2v-2l-0.7-0.2v-0.5h-0.5v-0.5h1.2v0.2l0.7,0.2v-0.2h1v0.5h-0.5v0.5h-0.5v2.2l3.2,0.5v-2.2l-0.7-0.2v-0.5
		h-0.5v-0.5h1.2v0.5l0.7,0.2v-0.5l1.5,0.2v0.5h-0.7v0.5h-0.5v2l3.5,0.5v-2l-0.5-0.2v-0.5h-0.7v-0.7l2,0.2v8.7l-2-0.5v-0.5l0.5,0.2
		v-0.7l0.7,0.2v-2.5l-3.5-0.2v2.2h0.7v0.5l0.2,0.2v0.5l-1-0.2l-0.2-0.5h-0.7v0.5l-1.2-0.2v-0.5h0.5l0.2-0.5h0.5v-2.2l-3.2-0.5v2.2
		l0.5,0.2v0.5h0.5v0.5l-1.2-0.2v-0.2h-0.7v0.2l-1.2-0.2v-0.5h0.5v-0.5l0.7,0.2v-2.2l-3.2-0.5l-0.2,2.2h0.7v0.5l0.5,0.2v0.2h-1.2
		v-0.2l-0.7-0.2v0.2h-1v-0.5h0.5v-0.5h0.5v-2.2l-3.2-0.5v2l0.5,0.2v0.5l0.5,0.2v0.5l-2-0.2V421.9z"/>
	<path class="st9" d="M-173.6,421.2v0.7h0.5v-0.7H-173.6z"/>
	<path class="st9" d="M-169.3,421.8v0.7h0.5v-0.7H-169.3z"/>
	<path class="st9" d="M-165,422.4v0.7h0.5v-0.7H-165z"/>
	<path class="st9" d="M-160.6,423.1v0.7h0.5v-0.7H-160.6z"/>
	<path class="st9" d="M-173.6,431v0.7h0.5V431H-173.6z"/>
	<path class="st9" d="M-169.5,431.6v0.7h0.5v-0.7H-169.5z"/>
	<path class="st9" d="M-165.2,432.3v0.7h0.5v-0.7H-165.2z"/>
	<path class="st9" d="M-160.8,432.9v0.7h0.5v-0.7H-160.8z"/>
	<path class="st5" d="M-233.5,414.3h0.7v0.5l-0.2,1l0.2,0.7h-0.7v-0.7l0.2-1L-233.5,414.3z"/>
	<path class="st5" d="M-232.3,414.5h0.7v0.5l-0.2,1l0.2,0.7h-0.7V416l0.2-1L-232.3,414.5z"/>
	<path class="st5" d="M-231.1,414.7h0.7v0.5l-0.2,1l0.2,0.7h-0.7v-0.7l0.2-1L-231.1,414.7z"/>
	<path class="st5" d="M-229.9,414.9h0.7v0.5l-0.2,1l0.2,0.7h-0.7v-0.7l0.2-1L-229.9,414.9z"/>
	<path class="st5" d="M-228.7,415.2h0.7v0.5l-0.2,1l0.2,0.7h-0.7v-0.7l0.2-1L-228.7,415.2z"/>
	<path class="st5" d="M-227.5,415.4h0.7v0.5l-0.2,1l0.2,0.7h-0.7v-0.7l0.2-1L-227.5,415.4z"/>
	<path class="st5" d="M-226.3,415.6h0.7v0.5l-0.2,1l0.2,0.7h-0.7v-0.7l0.2-1L-226.3,415.6z"/>
	<path class="st5" d="M-225.1,415.8h0.7v0.5l-0.2,1l0.2,0.7h-0.7v-0.7l0.2-1L-225.1,415.8z"/>
	<path class="st5" d="M-223.7,416h0.7v0.5l-0.2,1l0.2,0.7h-0.7v-0.7l0.2-1L-223.7,416z"/>
	<path class="st5" d="M-222.5,416.2h0.7v0.5l-0.2,1l0.2,0.7h-0.7v-0.7l0.2-1L-222.5,416.2z"/>
	<path class="st5" d="M-221.3,416.4h0.7v0.5l-0.2,1l0.2,0.7h-0.7v-0.7l0.2-1L-221.3,416.4z"/>
	<path class="st5" d="M-220.2,416.6h0.7v0.5l-0.2,1l0.2,0.7h-0.7v-0.7l0.2-1L-220.2,416.6z"/>
	<path class="st5" d="M-233.5,418.1h0.7v0.5l-0.2,1l0.2,0.7h-0.7v-0.7l0.2-1L-233.5,418.1z"/>
	<path class="st5" d="M-232.3,418.3h0.7v0.5l-0.2,1l0.2,0.7h-0.7v-0.7l0.2-1L-232.3,418.3z"/>
	<path class="st5" d="M-231.1,418.5h0.7v0.5l-0.2,1l0.2,0.7h-0.7V420l0.2-1L-231.1,418.5z"/>
	<path class="st5" d="M-229.9,418.7h0.7v0.5l-0.2,1l0.2,0.7h-0.7v-0.7l0.2-1L-229.9,418.7z"/>
	<path class="st5" d="M-228.7,418.9h0.7v0.5l-0.2,1l0.2,0.7h-0.7v-0.7l0.2-1L-228.7,418.9z"/>
	<path class="st5" d="M-227.5,419.1h0.7v0.5l-0.2,1l0.2,0.7h-0.7v-0.7l0.2-1L-227.5,419.1z"/>
	<path class="st5" d="M-226.3,419.3h0.7v0.5l-0.2,1l0.2,0.7h-0.7v-0.7l0.2-1L-226.3,419.3z"/>
	<path class="st5" d="M-225.1,419.5h0.7v0.5l-0.2,1l0.2,0.7h-0.7V421l0.2-1L-225.1,419.5z"/>
	<path class="st5" d="M-223.7,419.7h0.7v0.5l-0.2,1l0.2,0.7h-0.7v-0.7l0.2-1L-223.7,419.7z"/>
	<path class="st5" d="M-222.5,419.9h0.7v0.5l-0.2,1l0.2,0.7h-0.7v-0.7l0.2-1L-222.5,419.9z"/>
	<path class="st5" d="M-221.3,420.1h0.7v0.5l-0.2,1l0.2,0.7h-0.7v-0.7l0.2-1L-221.3,420.1z"/>
	<path class="st5" d="M-220.2,420.3h0.7v0.5l-0.2,1l0.2,0.7h-0.7v-0.7l0.2-1L-220.2,420.3z"/>
</g>
</svg>
