<?xml version="1.0" encoding="utf-8"?>
<!-- Generator: Adobe Illustrator 19.0.0, SVG Export Plug-In . SVG Version: 6.00 Build 0)  -->
<svg version="1.1" id="Capa_1" xmlns="http://www.w3.org/2000/svg" xmlns:xlink="http://www.w3.org/1999/xlink" x="0px" y="0px"
	 viewBox="0 0 293.3 33.7" style="enable-background:new 0 0 293.3 33.7;" xml:space="preserve">
<style type="text/css">
	.st0{fill:#FFFFFF;}
	.st1{fill:#3B86B1;}
</style>
<g id="XMLID_187_">
	<g id="XMLID_247_">
		<g id="XMLID_262_">
			<g id="XMLID_269_">
				<polygon id="XMLID_273_" class="st0" points="266.6,33.2 280.7,16.8 266.6,0.5 278.5,0.5 292.6,16.8 278.5,33.2 				"/>
				<path id="XMLID_270_" class="st1" d="M278.3,1L292,16.8l-13.7,15.8h-10.6l13.1-15.2l0.6-0.7l-0.6-0.7L267.7,1H278.3 M278.8,0
					h-13.2l14.5,16.8l-14.5,16.8h13.2l14.5-16.8L278.8,0L278.8,0z"/>
			</g>
		</g>
	</g>
	<g id="XMLID_231_">
		<g id="XMLID_263_">
			<g id="XMLID_264_">
				<polygon id="XMLID_268_" class="st0" points="14.8,33.2 0.7,16.8 14.8,0.5 26.6,0.5 12.6,16.8 26.6,33.2 				"/>
				<path id="XMLID_265_" class="st1" d="M25.6,1L12.5,16.2l-0.6,0.7l0.6,0.7l13.1,15.2H15L1.3,16.8L15,1H25.6 M27.7,0H14.5L0,16.8
					l14.5,16.8h13.2L13.2,16.8L27.7,0L27.7,0z"/>
			</g>
		</g>
	</g>
	<g id="XMLID_223_">
		<polygon id="XMLID_126_" class="st0" points="32,33.2 17.9,16.8 32,0.5 261.3,0.5 275.4,16.8 261.3,33.2 		"/>
		<path id="XMLID_123_" class="st1" d="M32.2,1l228.9,0l13.7,15.8l-13.7,15.8l-228.9,0L18.5,16.8L32.2,1 M31.7,0L17.2,16.8
			l14.5,16.8l229.8,0l14.5-16.8L261.6,0L31.7,0L31.7,0z"/>
	</g>
</g>
<g id="XMLID_190_">
	<path id="XMLID_191_" class="st1" d="M93.3,19.2l2.2,0.7c-0.3,1.3-0.9,2.2-1.7,2.8c-0.8,0.6-1.8,0.9-3,0.9c-1.5,0-2.8-0.5-3.8-1.6
		c-1-1-1.5-2.5-1.5-4.3c0-1.9,0.5-3.4,1.5-4.4s2.3-1.6,3.9-1.6c1.4,0,2.5,0.4,3.4,1.2c0.5,0.5,0.9,1.2,1.2,2.1l-2.3,0.5
		c-0.1-0.6-0.4-1.1-0.8-1.4s-1-0.5-1.6-0.5c-0.8,0-1.5,0.3-2.1,0.9c-0.5,0.6-0.8,1.6-0.8,3c0,1.4,0.3,2.5,0.8,3.1
		c0.5,0.6,1.2,0.9,2,0.9c0.6,0,1.1-0.2,1.6-0.6C92.8,20.7,93.1,20,93.3,19.2z"/>
	<path id="XMLID_193_" class="st1" d="M97.5,23.4V12h2.2v11.5H97.5z"/>
	<path id="XMLID_195_" class="st1" d="M102,14v-2h2.2v2H102z M102,23.4v-8.3h2.2v8.3H102z"/>
	<path id="XMLID_198_" class="st1" d="M111.2,20.8l2.2,0.4c-0.3,0.8-0.7,1.4-1.3,1.8c-0.6,0.4-1.4,0.6-2.3,0.6
		c-1.4,0-2.5-0.5-3.2-1.4c-0.5-0.8-0.8-1.7-0.8-2.9c0-1.4,0.4-2.5,1.1-3.2s1.6-1.2,2.7-1.2c1.2,0,2.2,0.4,2.9,1.2
		c0.7,0.8,1.1,2.1,1,3.7H108c0,0.7,0.2,1.2,0.5,1.5c0.3,0.4,0.8,0.5,1.3,0.5c0.3,0,0.6-0.1,0.9-0.3S111.1,21.2,111.2,20.8z
		 M111.3,18.6c0-0.6-0.2-1.1-0.5-1.4s-0.7-0.5-1.1-0.5c-0.5,0-0.9,0.2-1.2,0.5s-0.5,0.8-0.5,1.4H111.3z"/>
	<path id="XMLID_201_" class="st1" d="M122.9,23.4h-2.2v-4.2c0-0.9,0-1.5-0.1-1.7s-0.2-0.5-0.5-0.6s-0.5-0.2-0.8-0.2
		c-0.4,0-0.7,0.1-1,0.3c-0.3,0.2-0.5,0.5-0.6,0.8c-0.1,0.3-0.2,1-0.2,1.9v3.8h-2.2v-8.3h2v1.2c0.7-0.9,1.6-1.4,2.7-1.4
		c0.5,0,0.9,0.1,1.3,0.3c0.4,0.2,0.7,0.4,0.9,0.7c0.2,0.3,0.3,0.6,0.4,0.9c0.1,0.3,0.1,0.8,0.1,1.5V23.4z"/>
	<path id="XMLID_203_" class="st1" d="M128.9,15.1v1.8h-1.5v3.3c0,0.7,0,1.1,0,1.2c0,0.1,0.1,0.2,0.2,0.3s0.2,0.1,0.4,0.1
		c0.2,0,0.5-0.1,0.9-0.2l0.2,1.7c-0.5,0.2-1.1,0.3-1.7,0.3c-0.4,0-0.8-0.1-1.1-0.2c-0.3-0.1-0.6-0.3-0.7-0.5s-0.3-0.5-0.3-0.9
		c0-0.3-0.1-0.8-0.1-1.5v-3.6h-1v-1.8h1v-1.6l2.2-1.3v2.9H128.9z"/>
	<path id="XMLID_205_" class="st1" d="M135.2,20.8l2.2,0.4c-0.3,0.8-0.7,1.4-1.3,1.8c-0.6,0.4-1.4,0.6-2.3,0.6
		c-1.4,0-2.5-0.5-3.2-1.4c-0.5-0.8-0.8-1.7-0.8-2.9c0-1.4,0.4-2.5,1.1-3.2s1.6-1.2,2.7-1.2c1.2,0,2.2,0.4,2.9,1.2
		c0.7,0.8,1.1,2.1,1,3.7H132c0,0.7,0.2,1.2,0.5,1.5c0.3,0.4,0.8,0.5,1.3,0.5c0.3,0,0.6-0.1,0.9-0.3S135.1,21.2,135.2,20.8z
		 M135.3,18.6c0-0.6-0.2-1.1-0.5-1.4s-0.7-0.5-1.1-0.5c-0.5,0-0.9,0.2-1.2,0.5s-0.5,0.8-0.5,1.4H135.3z"/>
	<path id="XMLID_208_" class="st1" d="M143.2,19.7l2.3-0.2c0.1,0.8,0.4,1.3,0.8,1.7s1,0.5,1.7,0.5c0.7,0,1.3-0.2,1.7-0.5
		s0.6-0.7,0.6-1.1c0-0.3-0.1-0.5-0.2-0.7s-0.4-0.4-0.8-0.5c-0.3-0.1-0.9-0.3-1.9-0.5c-1.2-0.3-2.1-0.7-2.6-1.1
		c-0.7-0.6-1.1-1.4-1.1-2.3c0-0.6,0.2-1.1,0.5-1.6s0.8-0.9,1.4-1.2s1.4-0.4,2.3-0.4c1.4,0,2.5,0.3,3.2,0.9s1.1,1.5,1.1,2.5l-2.3,0.1
		c-0.1-0.6-0.3-1-0.6-1.3s-0.8-0.4-1.5-0.4c-0.7,0-1.2,0.1-1.6,0.4c-0.2,0.2-0.4,0.4-0.4,0.7c0,0.3,0.1,0.5,0.3,0.7
		c0.3,0.2,1,0.5,2.1,0.8s2,0.5,2.5,0.8s1,0.7,1.3,1.2s0.5,1.1,0.5,1.8c0,0.7-0.2,1.3-0.5,1.8s-0.9,1-1.5,1.3s-1.5,0.4-2.5,0.4
		c-1.4,0-2.6-0.3-3.3-1S143.3,21,143.2,19.7z"/>
	<path id="XMLID_210_" class="st1" d="M159.2,20.8l2.2,0.4c-0.3,0.8-0.7,1.4-1.3,1.8s-1.4,0.6-2.3,0.6c-1.4,0-2.5-0.5-3.2-1.4
		c-0.5-0.8-0.8-1.7-0.8-2.9c0-1.4,0.4-2.5,1.1-3.2s1.6-1.2,2.7-1.2c1.2,0,2.2,0.4,2.9,1.2s1.1,2.1,1,3.7H156c0,0.7,0.2,1.2,0.5,1.5
		s0.8,0.5,1.3,0.5c0.3,0,0.6-0.1,0.9-0.3S159.1,21.2,159.2,20.8z M159.4,18.6c0-0.6-0.2-1.1-0.5-1.4s-0.7-0.5-1.1-0.5
		c-0.5,0-0.9,0.2-1.2,0.5s-0.5,0.8-0.5,1.4H159.4z"/>
	<path id="XMLID_213_" class="st1" d="M165.4,23.4h-2.2v-8.3h2v1.2c0.3-0.6,0.7-0.9,0.9-1.1s0.6-0.3,0.9-0.3c0.5,0,1,0.1,1.4,0.4
		l-0.7,1.9c-0.4-0.2-0.7-0.4-1-0.4c-0.3,0-0.6,0.1-0.8,0.3s-0.4,0.5-0.5,0.9s-0.2,1.4-0.2,2.8V23.4z"/>
	<path id="XMLID_215_" class="st1" d="M171.8,23.4l-3.3-8.3h2.3l1.6,4.2l0.5,1.4c0.1-0.4,0.2-0.6,0.2-0.7c0.1-0.2,0.2-0.5,0.2-0.7
		l1.6-4.2h2.3l-3.3,8.3H171.8z"/>
	<path id="XMLID_217_" class="st1" d="M178.4,14v-2h2.2v2H178.4z M178.4,23.4v-8.3h2.2v8.3H178.4z"/>
	<path id="XMLID_220_" class="st1" d="M190.5,23.4h-2v-1.2c-0.3,0.5-0.7,0.8-1.2,1.1s-0.9,0.3-1.4,0.3c-1,0-1.8-0.4-2.4-1.2
		s-1-1.8-1-3.2c0-1.4,0.3-2.5,1-3.2s1.5-1.1,2.5-1.1c0.9,0,1.7,0.4,2.4,1.2V12h2.2V23.4z M184.6,19.1c0,0.9,0.1,1.5,0.4,1.9
		c0.4,0.6,0.8,0.9,1.5,0.9c0.5,0,0.9-0.2,1.3-0.6s0.5-1.1,0.5-1.9c0-1-0.2-1.6-0.5-2.1s-0.8-0.6-1.3-0.6c-0.5,0-1,0.2-1.3,0.6
		S184.6,18.3,184.6,19.1z"/>
	<path id="XMLID_224_" class="st1" d="M192.2,19.1c0-0.7,0.2-1.4,0.5-2.1s0.9-1.2,1.5-1.6s1.4-0.5,2.2-0.5c1.3,0,2.3,0.4,3.1,1.2
		s1.2,1.8,1.2,3.1c0,1.3-0.4,2.3-1.2,3.1s-1.8,1.2-3.1,1.2c-0.8,0-1.5-0.2-2.2-0.5s-1.2-0.8-1.6-1.5S192.2,20.1,192.2,19.1z
		 M194.4,19.3c0,0.8,0.2,1.5,0.6,1.9s0.9,0.7,1.4,0.7s1.1-0.2,1.4-0.7s0.6-1.1,0.6-1.9c0-0.8-0.2-1.4-0.6-1.9s-0.9-0.7-1.4-0.7
		s-1.1,0.2-1.4,0.7S194.4,18.4,194.4,19.3z"/>
	<path id="XMLID_227_" class="st1" d="M204.5,23.4h-2.2v-8.3h2v1.2c0.3-0.6,0.7-0.9,0.9-1.1s0.6-0.3,0.9-0.3c0.5,0,1,0.1,1.4,0.4
		l-0.7,1.9c-0.4-0.2-0.7-0.4-1-0.4c-0.3,0-0.6,0.1-0.8,0.3s-0.4,0.5-0.5,0.9s-0.2,1.4-0.2,2.8V23.4z"/>
</g>
</svg>
