<?xml version="1.0" encoding="utf-8"?>
<!-- Generator: Adobe Illustrator 19.0.0, SVG Export Plug-In . SVG Version: 6.00 Build 0)  -->
<svg version="1.1" id="Capa_1" xmlns="http://www.w3.org/2000/svg" xmlns:xlink="http://www.w3.org/1999/xlink" x="0px" y="0px"
	 viewBox="-240.2 390.7 99.7 88" style="enable-background:new -240.2 390.7 99.7 88;" xml:space="preserve">
<style type="text/css">
	.st0{fill-rule:evenodd;clip-rule:evenodd;fill:url(#XMLID_2_);}
	.st1{fill:#FFFFFF;}
	.st2{fill:#234B7B;}
	.st3{fill:url(#SVGID_1_);}
	.st4{fill:url(#SVGID_2_);}
	.st5{fill:#C0C0C0;}
	.st6{fill:url(#SVGID_3_);}
	.st7{fill:#3B608D;}
	.st8{fill:#C00000;}
	.st9{fill:url(#SVGID_4_);}
	.st10{fill:url(#SVGID_5_);}
	.st11{fill:#CC0000;}
	.st12{fill:#7F7F7F;}
	.st13{fill:#FFC000;}
</style>
<g id="XMLID_10796_">
	<radialGradient id="XMLID_2_" cx="-190.3541" cy="434.6852" r="44.011" gradientUnits="userSpaceOnUse">
		<stop  offset="0" style="stop-color:#66A9E1"/>
		<stop  offset="0.4763" style="stop-color:#64A9E1"/>
		<stop  offset="0.6808" style="stop-color:#5DA8E0"/>
		<stop  offset="0.8332" style="stop-color:#50A7DE"/>
		<stop  offset="0.959" style="stop-color:#3FA5DC"/>
		<stop  offset="1" style="stop-color:#37A4DB"/>
	</radialGradient>
	<circle id="XMLID_10819_" class="st0" cx="-190.4" cy="434.7" r="44"/>
	<g id="XMLID_13320_">
		<path id="XMLID_13321_" class="st1" d="M-227.8,451.2v-8.6h6.4v1.5h-4.6v1.9h4.3v1.4h-4.3v2.3h4.8v1.4H-227.8z"/>
		<path id="XMLID_13323_" class="st1" d="M-219.8,451.2v-8.6h1.7l3.5,5.7v-5.7h1.6v8.6h-1.7l-3.5-5.6v5.6H-219.8z"/>
		<path id="XMLID_13326_" class="st1" d="M-211.1,451.2v-8.6h3.7c0.9,0,1.6,0.1,2,0.2s0.7,0.4,1,0.8s0.4,0.8,0.4,1.4
			c0,0.6-0.2,1.2-0.6,1.6s-0.9,0.7-1.7,0.8c0.4,0.2,0.7,0.5,0.9,0.7s0.6,0.7,1,1.4l1,1.7h-2.1l-1.3-1.9c-0.4-0.7-0.8-1.1-0.9-1.3
			s-0.3-0.3-0.5-0.4s-0.5-0.1-0.9-0.1h-0.4v3.6H-211.1z M-209.4,446.2h1.3c0.8,0,1.4,0,1.6-0.1s0.4-0.2,0.5-0.4s0.2-0.4,0.2-0.6
			c0-0.3-0.1-0.5-0.2-0.7s-0.4-0.3-0.7-0.3c-0.1,0-0.6,0-1.3,0h-1.4V446.2z"/>
		<path id="XMLID_13329_" class="st1" d="M-202.4,442.6h1.7v4.7c0,0.7,0,1.2,0.1,1.4c0.1,0.4,0.3,0.6,0.5,0.8s0.7,0.3,1.1,0.3
			c0.5,0,0.9-0.1,1.1-0.3s0.4-0.4,0.5-0.7s0.1-0.8,0.1-1.5v-4.8h1.7v4.5c0,1,0,1.8-0.1,2.2s-0.3,0.8-0.5,1.1s-0.6,0.5-1,0.7
			s-1,0.3-1.7,0.3c-0.8,0-1.4-0.1-1.9-0.3s-0.8-0.4-1-0.7s-0.4-0.6-0.5-1c-0.1-0.5-0.2-1.2-0.2-2.2V442.6z"/>
		<path id="XMLID_13331_" class="st1" d="M-191.8,451.2V444h-2.5v-1.5h6.8v1.5h-2.5v7.1H-191.8z"/>
		<path id="XMLID_13333_" class="st1" d="M-179.6,451.2h-1.9l-0.8-2h-3.4l-0.7,2h-1.8l3.3-8.6h1.8L-179.6,451.2z M-182.8,447.8
			l-1.2-3.2l-1.2,3.2H-182.8z"/>
		<path id="XMLID_13337_" class="st1" d="M-178.7,442.6h3.2c0.7,0,1.3,0.1,1.6,0.2c0.5,0.1,0.9,0.4,1.3,0.8s0.6,0.8,0.8,1.4
			s0.3,1.2,0.3,2c0,0.7-0.1,1.3-0.3,1.8c-0.2,0.6-0.5,1.1-0.9,1.5c-0.3,0.3-0.7,0.5-1.2,0.7c-0.4,0.1-0.9,0.2-1.5,0.2h-3.3V442.6z
			 M-176.9,444v5.7h1.3c0.5,0,0.8,0,1-0.1c0.3-0.1,0.5-0.2,0.7-0.4s0.3-0.4,0.5-0.8s0.2-0.9,0.2-1.6s-0.1-1.2-0.2-1.5
			s-0.3-0.6-0.5-0.8s-0.5-0.3-0.8-0.4c-0.2-0.1-0.7-0.1-1.4-0.1H-176.9z"/>
		<path id="XMLID_13340_" class="st1" d="M-170.4,446.9c0-0.9,0.1-1.6,0.4-2.2c0.2-0.4,0.5-0.8,0.8-1.2s0.7-0.6,1.1-0.8
			c0.5-0.2,1.2-0.3,1.9-0.3c1.3,0,2.3,0.4,3,1.2s1.1,1.9,1.1,3.3c0,1.4-0.4,2.5-1.1,3.3s-1.8,1.2-3,1.2c-1.3,0-2.3-0.4-3-1.2
			S-170.4,448.3-170.4,446.9z M-168.6,446.9c0,1,0.2,1.7,0.7,2.2s1,0.8,1.7,0.8s1.3-0.2,1.7-0.7s0.7-1.2,0.7-2.2
			c0-1-0.2-1.7-0.6-2.2s-1-0.7-1.7-0.7s-1.3,0.2-1.7,0.7S-168.6,445.9-168.6,446.9z"/>
		<path id="XMLID_13344_" class="st1" d="M-160.7,451.2v-8.6h3.7c0.9,0,1.6,0.1,2,0.2s0.7,0.4,1,0.8s0.4,0.8,0.4,1.4
			c0,0.6-0.2,1.2-0.6,1.6s-0.9,0.7-1.7,0.8c0.4,0.2,0.7,0.5,0.9,0.7s0.6,0.7,1,1.4l1,1.7h-2.1l-1.3-1.9c-0.4-0.7-0.8-1.1-0.9-1.3
			s-0.3-0.3-0.5-0.4s-0.5-0.1-0.9-0.1h-0.4v3.6H-160.7z M-158.9,446.2h1.3c0.8,0,1.4,0,1.6-0.1s0.4-0.2,0.5-0.4s0.2-0.4,0.2-0.6
			c0-0.3-0.1-0.5-0.2-0.7s-0.4-0.3-0.7-0.3c-0.1,0-0.6,0-1.3,0h-1.4V446.2z"/>
	</g>
</g>
<g>
	<path class="st2" d="M-147.2,427.1v13.6l-92.6-15v-11.6L-147.2,427.1z"/>
	
		<linearGradient id="SVGID_1_" gradientUnits="userSpaceOnUse" x1="-589.6261" y1="784.4327" x2="-589.6261" y2="752.7249" gradientTransform="matrix(0.75 0 0 -0.75 251.8802 991.5992)">
		<stop  offset="0" style="stop-color:#234B7B"/>
		<stop  offset="1" style="stop-color:#3470B9"/>
	</linearGradient>
	<path class="st3" d="M-213.5,403.3l-26.3,10.8l92.8,13l6.2-16.3L-213.5,403.3z"/>
	
		<linearGradient id="SVGID_2_" gradientUnits="userSpaceOnUse" x1="-1084.0364" y1="819.3686" x2="-1084.0364" y2="779.0133" gradientTransform="matrix(0.75 0 0 -0.75 668.9304 1025.2655)">
		<stop  offset="0" style="stop-color:#234B7B"/>
		<stop  offset="1" style="stop-color:#3470B9"/>
	</linearGradient>
	<path class="st4" d="M-147.3,427v14l6.5-20.1v-10.1L-147.3,427z"/>
	<path class="st5" d="M-220.3,419.3v0.7l8.8,1.3v-0.7L-220.3,419.3z"/>
	<path class="st5" d="M-212.4,427.6v0.8l5.2,0.8v-0.8L-212.4,427.6z"/>
	<path class="st5" d="M-184.1,429.3v1.3l1.2,0.2v-1.3L-184.1,429.3z"/>
	
		<linearGradient id="SVGID_3_" gradientUnits="userSpaceOnUse" x1="-616.2865" y1="884.0524" x2="-616.2865" y2="869.418" gradientTransform="matrix(0.75 0 0 -0.75 254.3889 1087.6002)">
		<stop  offset="0" style="stop-color:#002060"/>
		<stop  offset="1" style="stop-color:#234B7B"/>
	</linearGradient>
	<path class="st6" d="M-239.3,425.1v-0.5l62.9,10.5v0.5L-239.3,425.1z"/>
	<path class="st7" d="M-150.6,434.7v2.8l2.2,0.3v-2.8L-150.6,434.7z"/>
	<path class="st8" d="M-160.5,426.6l11.8,1.7v1.2l-11.8-1.8V426.6z"/>
	
		<linearGradient id="SVGID_4_" gradientUnits="userSpaceOnUse" x1="-614.2048" y1="828.8671" x2="-614.2048" y2="812.2371" gradientTransform="matrix(0.75 0 0 -0.75 269.0497 1034.4196)">
		<stop  offset="0" style="stop-color:#3B608D"/>
		<stop  offset="1" style="stop-color:#234B7B"/>
	</linearGradient>
	<path class="st9" d="M-236,413.3l1.5-0.5l87.3,12l-0.2,0.5L-236,413.3z"/>
	
		<linearGradient id="SVGID_5_" gradientUnits="userSpaceOnUse" x1="-766.3068" y1="861.7521" x2="-766.3068" y2="851.1089" gradientTransform="matrix(0.75 0 0 -0.75 385.3911 1066.1105)">
		<stop  offset="0" style="stop-color:#EDF0F7"/>
		<stop  offset="1" style="stop-color:#A6BED0"/>
	</linearGradient>
	<path class="st10" d="M-210.2,419.8l41.7,6v2l-41.7-6V419.8z"/>
	<path class="st11" d="M-210.3,421.6l41.7,6.3v1.2l-41.7-6.3V421.6z"/>
	<path d="M-220,422.2c0-0.3,0.4-0.5,0.8-0.5c0.5,0,0.8,0.2,0.8,0.5c0,0.3-0.4,0.5-0.8,0.5C-219.6,422.7-220,422.5-220,422.2
		L-220,422.2z"/>
	<path class="st5" d="M-202.9,429.3v0.8l5.2,0.8v-0.8L-202.9,429.3z"/>
	<path class="st5" d="M-193.2,430.9v0.8l5.2,0.8v-0.8L-193.2,430.9z"/>
	<path class="st12" d="M-184.4,428.2c0-0.3,0.4-0.5,0.8-0.5c0.5,0,0.8,0.2,0.8,0.5c0,0.3-0.4,0.5-0.8,0.5
		C-184.1,428.7-184.4,428.5-184.4,428.2L-184.4,428.2z"/>
	<path class="st12" d="M-184.4,431.9c0-0.3,0.4-0.5,0.8-0.5c0.5,0,0.8,0.2,0.8,0.5c0,0.3-0.4,0.5-0.8,0.5
		C-184.1,432.4-184.4,432.2-184.4,431.9L-184.4,431.9z"/>
	<path class="st5" d="M-180.2,430v1.3l1.2,0.2v-1.3L-180.2,430z"/>
	<path class="st12" d="M-180.5,428.9c0-0.3,0.4-0.5,0.8-0.5c0.5,0,0.8,0.2,0.8,0.5c0,0.3-0.4,0.5-0.8,0.5
		C-180.1,429.4-180.5,429.2-180.5,428.9L-180.5,428.9z"/>
	<path class="st12" d="M-180.5,432.6c0-0.3,0.4-0.5,0.8-0.5c0.5,0,0.8,0.2,0.8,0.5c0,0.3-0.4,0.5-0.8,0.5
		C-180.1,433.1-180.5,432.9-180.5,432.6L-180.5,432.6z"/>
	<path class="st5" d="M-176.4,430.6v1.3l1.2,0.2v-1.3L-176.4,430.6z"/>
	<path class="st12" d="M-176.7,429.5c0-0.3,0.4-0.5,0.8-0.5c0.5,0,0.8,0.2,0.8,0.5c0,0.3-0.4,0.5-0.8,0.5
		C-176.3,430-176.7,429.8-176.7,429.5L-176.7,429.5z"/>
	<path class="st12" d="M-176.7,433.2c0-0.3,0.4-0.5,0.8-0.5c0.5,0,0.8,0.2,0.8,0.5c0,0.3-0.4,0.5-0.8,0.5
		C-176.3,433.7-176.7,433.5-176.7,433.2L-176.7,433.2z"/>
	<path class="st5" d="M-172.2,431.2v1.3l1.2,0.2v-1.3L-172.2,431.2z"/>
	<path class="st12" d="M-172.4,430.2c0-0.3,0.4-0.5,0.8-0.5c0.5,0,0.8,0.2,0.8,0.5c0,0.3-0.4,0.5-0.8,0.5
		C-172.1,430.7-172.4,430.5-172.4,430.2L-172.4,430.2z"/>
	<path class="st12" d="M-172.4,433.9c0-0.3,0.4-0.5,0.8-0.5c0.5,0,0.8,0.2,0.8,0.5c0,0.3-0.4,0.5-0.8,0.5
		C-172.1,434.4-172.4,434.2-172.4,433.9L-172.4,433.9z"/>
	<path class="st5" d="M-168.9,433.1v0.8l5.2,0.8v-1L-168.9,433.1z"/>
	<path class="st5" d="M-168.9,430.9v0.8l5.2,0.8v-0.8L-168.9,430.9z"/>
	<path class="st5" d="M-185,432.9v0.3l21.1,3.3v-0.5L-185,432.9z"/>
	<path class="st12" d="M-159,435.1c0-0.3,0.5-0.7,1.1-0.7c0.6,0,1.1,0.3,1.1,0.7c0,0.3-0.5,0.7-1.1,0.7
		C-158.5,435.8-159,435.5-159,435.1L-159,435.1z"/>
	<path class="st5" d="M-160.5,436.4v0.8l5.2,0.8v-1L-160.5,436.4z"/>
	<path class="st5" d="M-160.5,428.3v0.8l5.2,1v-1L-160.5,428.3z"/>
	<path class="st13" d="M-154.5,429.3v0.8l5.2,0.8v-0.8L-154.5,429.3z"/>
	<path class="st5" d="M-209.9,425.6v0.8l2.7,0.5v-1L-209.9,425.6z"/>
	<path class="st12" d="M-212.6,425.8c0-0.3,0.4-0.5,0.8-0.5c0.5,0,0.8,0.2,0.8,0.5c0,0.3-0.4,0.5-0.8,0.5
		C-212.3,426.3-212.6,426.1-212.6,425.8L-212.6,425.8z"/>
	<path class="st5" d="M-217.2,424.5v0.8l2.7,0.5v-1L-217.2,424.5z"/>
	<path class="st12" d="M-220,424.7c0-0.3,0.4-0.5,0.8-0.5c0.5,0,0.8,0.2,0.8,0.5c0,0.3-0.4,0.5-0.8,0.5
		C-219.6,425.2-220,425-220,424.7L-220,424.7z"/>
	<path class="st5" d="M-223.7,423.6v0.8l2.7,0.5v-1L-223.7,423.6z"/>
	<path class="st12" d="M-226.5,423.8c0-0.3,0.4-0.5,0.8-0.5c0.5,0,0.8,0.2,0.8,0.5c0,0.3-0.4,0.5-0.8,0.5
		C-226.2,424.3-226.5,424-226.5,423.8L-226.5,423.8z"/>
	<path class="st5" d="M-209.9,423.6v0.8l2.7,0.5v-1L-209.9,423.6z"/>
	<path class="st12" d="M-212.6,423.8c0-0.3,0.4-0.5,0.8-0.5c0.5,0,0.8,0.2,0.8,0.5c0,0.3-0.4,0.5-0.8,0.5
		C-212.3,424.3-212.6,424-212.6,423.8L-212.6,423.8z"/>
	<path class="st5" d="M-200.3,427.4v0.8l2.7,0.5v-1L-200.3,427.4z"/>
	<path class="st12" d="M-203,427.5c0-0.3,0.4-0.5,0.8-0.5c0.5,0,0.8,0.2,0.8,0.5c0,0.3-0.4,0.5-0.8,0.5
		C-202.7,428-203,427.8-203,427.5L-203,427.5z"/>
	<path class="st5" d="M-200.3,425.3v0.8l2.7,0.5v-1L-200.3,425.3z"/>
	<path class="st12" d="M-203,425.5c0-0.3,0.4-0.5,0.8-0.5c0.5,0,0.8,0.2,0.8,0.5c0,0.3-0.4,0.5-0.8,0.5
		C-202.7,426-203,425.8-203,425.5L-203,425.5z"/>
	<path class="st5" d="M-190.6,426.7v0.8l2.7,0.5v-1L-190.6,426.7z"/>
	<path class="st12" d="M-193.3,426.9c0-0.3,0.4-0.5,0.8-0.5c0.5,0,0.8,0.2,0.8,0.5c0,0.3-0.4,0.5-0.8,0.5
		C-193,427.4-193.3,427.2-193.3,426.9L-193.3,426.9z"/>
	<path class="st5" d="M-190.6,428.7v0.8l2.7,0.5v-1L-190.6,428.7z"/>
	<path class="st12" d="M-193.3,428.9c0-0.3,0.4-0.5,0.8-0.5c0.5,0,0.8,0.2,0.8,0.5c0,0.3-0.4,0.5-0.8,0.5
		C-193,429.4-193.3,429.2-193.3,428.9L-193.3,428.9z"/>
</g>
</svg>
