<?xml version="1.0" encoding="utf-8"?>
<!-- Generator: Adobe Illustrator 19.0.0, SVG Export Plug-In . SVG Version: 6.00 Build 0)  -->
<svg version="1.1" id="Capa_1" xmlns="http://www.w3.org/2000/svg" xmlns:xlink="http://www.w3.org/1999/xlink" x="0px" y="0px"
	 viewBox="0 0 293.3 33.7" style="enable-background:new 0 0 293.3 33.7;" xml:space="preserve">
<style type="text/css">
	.st0{fill:#FFFFFF;}
	.st1{fill:#3B86B1;}
</style>
<g id="XMLID_25_">
	<g id="XMLID_62_">
		<g id="XMLID_249_">
			<g id="XMLID_250_">
				<polygon id="XMLID_254_" class="st0" points="266.6,33.2 280.7,16.8 266.6,0.5 278.5,0.5 292.6,16.8 278.5,33.2 				"/>
				<path id="XMLID_251_" class="st1" d="M278.3,1L292,16.8l-13.7,15.8h-10.6l13.1-15.2l0.6-0.7l-0.6-0.7L267.7,1H278.3 M278.8,0
					h-13.2l14.5,16.8l-14.5,16.8h13.2l14.5-16.8L278.8,0L278.8,0z"/>
			</g>
		</g>
	</g>
	<g id="XMLID_27_">
		<g id="XMLID_238_">
			<g id="XMLID_239_">
				<polygon id="XMLID_243_" class="st0" points="14.8,33.2 0.7,16.8 14.8,0.5 26.6,0.5 12.6,16.8 26.6,33.2 				"/>
				<path id="XMLID_240_" class="st1" d="M25.6,1L12.5,16.2l-0.6,0.7l0.6,0.7l13.1,15.2H15L1.3,16.8L15,1H25.6 M27.7,0H14.5L0,16.8
					l14.5,16.8h13.2L13.2,16.8L27.7,0L27.7,0z"/>
			</g>
		</g>
	</g>
	<g id="XMLID_26_">
		<polygon id="XMLID_139_" class="st0" points="32,33.2 17.9,16.8 32,0.5 261.3,0.5 275.4,16.8 261.3,33.2 		"/>
		<path id="XMLID_127_" class="st1" d="M32.2,1l228.9,0l13.7,15.8l-13.7,15.8l-228.9,0L18.5,16.8L32.2,1 M31.7,0L17.2,16.8
			l14.5,16.8l229.8,0l14.5-16.8L261.6,0L31.7,0L31.7,0z"/>
	</g>
</g>
<g id="XMLID_20_">
	<path id="XMLID_49_" class="st1" d="M36.5,23.4V12h2.3v4.5h4.5V12h2.3v11.5h-2.3v-5h-4.5v5H36.5z"/>
	<path id="XMLID_56_" class="st1" d="M49.7,17.6l-2-0.4c0.2-0.8,0.6-1.4,1.2-1.8s1.4-0.6,2.4-0.6c1,0,1.7,0.1,2.2,0.3
		c0.5,0.2,0.8,0.5,1,0.9s0.3,1,0.3,2l0,2.6c0,0.7,0,1.3,0.1,1.6s0.2,0.7,0.4,1.1h-2.2c-0.1-0.1-0.1-0.4-0.2-0.6
		c0-0.1-0.1-0.2-0.1-0.3c-0.4,0.4-0.8,0.6-1.2,0.8c-0.4,0.2-0.9,0.3-1.4,0.3c-0.9,0-1.5-0.2-2-0.7s-0.7-1-0.7-1.8
		c0-0.5,0.1-0.9,0.3-1.3c0.2-0.4,0.5-0.6,0.9-0.8c0.4-0.2,1-0.4,1.7-0.5c1-0.2,1.7-0.4,2.1-0.5v-0.2c0-0.4-0.1-0.7-0.3-0.9
		c-0.2-0.2-0.6-0.3-1.2-0.3c-0.4,0-0.7,0.1-0.9,0.2S49.8,17.3,49.7,17.6z M52.6,19.4c-0.3,0.1-0.7,0.2-1.3,0.3s-1,0.3-1.2,0.4
		c-0.3,0.2-0.4,0.5-0.4,0.8c0,0.3,0.1,0.6,0.3,0.8c0.2,0.2,0.5,0.3,0.9,0.3c0.4,0,0.8-0.1,1.1-0.4c0.3-0.2,0.4-0.4,0.5-0.7
		c0.1-0.2,0.1-0.5,0.1-1.1V19.4z"/>
	<path id="XMLID_60_" class="st1" d="M56.9,23.4V12h2.2v11.5H56.9z"/>
	<path id="XMLID_72_" class="st1" d="M60.4,15.1h1.2v-0.6c0-0.7,0.1-1.2,0.2-1.6s0.4-0.6,0.8-0.8s0.9-0.3,1.5-0.3
		c0.6,0,1.2,0.1,1.8,0.3l-0.3,1.5c-0.3-0.1-0.7-0.1-1-0.1c-0.3,0-0.5,0.1-0.7,0.2c-0.1,0.1-0.2,0.4-0.2,0.9v0.6h1.6v1.7h-1.6v6.6
		h-2.2v-6.6h-1.2V15.1z"/>
	<path id="XMLID_110_" class="st1" d="M66.5,20.4v-2.2h4.3v2.2H66.5z"/>
	<path id="XMLID_121_" class="st1" d="M72,12h4.2c1,0,1.7,0.1,2.2,0.2c0.7,0.2,1.2,0.5,1.7,1.1c0.5,0.5,0.8,1.1,1.1,1.9
		s0.4,1.6,0.4,2.7c0,0.9-0.1,1.8-0.4,2.4c-0.3,0.8-0.7,1.5-1.2,2c-0.4,0.4-0.9,0.7-1.6,0.9c-0.5,0.2-1.2,0.2-2,0.2H72V12z
		 M74.4,13.9v7.6h1.7c0.6,0,1.1,0,1.4-0.1c0.4-0.1,0.7-0.3,0.9-0.5c0.2-0.2,0.4-0.6,0.6-1.1s0.2-1.2,0.2-2.1s-0.1-1.6-0.2-2
		s-0.4-0.8-0.7-1.1s-0.6-0.4-1.1-0.5c-0.3-0.1-1-0.1-1.9-0.1H74.4z"/>
	<path id="XMLID_144_" class="st1" d="M89.1,23.4v-1.2c-0.3,0.4-0.7,0.8-1.2,1s-1,0.4-1.6,0.4c-0.6,0-1.1-0.1-1.5-0.4
		c-0.4-0.2-0.8-0.6-1-1c-0.2-0.4-0.3-1.1-0.3-1.8v-5.3h2.2v3.8c0,1.2,0,1.9,0.1,2.1c0.1,0.3,0.2,0.5,0.4,0.6
		c0.2,0.2,0.5,0.2,0.8,0.2c0.4,0,0.7-0.1,1-0.3s0.5-0.5,0.6-0.8s0.2-1.1,0.2-2.2v-3.5h2.2v8.3H89.1z"/>
	<path id="XMLID_146_" class="st1" d="M93.3,15.1h2v1.2c0.3-0.4,0.6-0.8,1.1-1s1-0.4,1.5-0.4c1,0,1.8,0.4,2.5,1.1s1,1.8,1,3.2
		c0,1.4-0.3,2.5-1,3.2c-0.7,0.8-1.5,1.2-2.5,1.2c-0.5,0-0.9-0.1-1.2-0.3c-0.4-0.2-0.8-0.5-1.2-0.9v4.2h-2.2V15.1z M95.5,19.1
		c0,0.9,0.2,1.6,0.6,2.1c0.4,0.4,0.8,0.7,1.4,0.7c0.5,0,0.9-0.2,1.3-0.6c0.3-0.4,0.5-1.1,0.5-2c0-0.9-0.2-1.5-0.5-1.9
		c-0.3-0.4-0.8-0.6-1.3-0.6c-0.5,0-1,0.2-1.3,0.6C95.7,17.7,95.5,18.3,95.5,19.1z"/>
	<path id="XMLID_149_" class="st1" d="M103.1,23.4V12h2.2v11.5H103.1z"/>
	<path id="XMLID_151_" class="st1" d="M112.4,20.8l2.2,0.4c-0.3,0.8-0.7,1.4-1.3,1.8c-0.6,0.4-1.4,0.6-2.3,0.6
		c-1.4,0-2.5-0.5-3.2-1.4c-0.5-0.8-0.8-1.7-0.8-2.9c0-1.4,0.4-2.5,1.1-3.2s1.6-1.2,2.7-1.2c1.2,0,2.2,0.4,2.9,1.2
		c0.7,0.8,1.1,2.1,1,3.7h-5.5c0,0.7,0.2,1.2,0.5,1.5c0.3,0.4,0.8,0.5,1.3,0.5c0.3,0,0.6-0.1,0.9-0.3S112.3,21.2,112.4,20.8z
		 M112.5,18.6c0-0.6-0.2-1.1-0.5-1.4s-0.7-0.5-1.1-0.5c-0.5,0-0.9,0.2-1.2,0.5s-0.5,0.8-0.5,1.4H112.5z"/>
	<path id="XMLID_154_" class="st1" d="M115.4,23.4l3-4.3l-2.9-4h2.7l1.5,2.3l1.5-2.3h2.6L121,19l3.1,4.4h-2.7l-1.7-2.6l-1.7,2.6
		H115.4z"/>
	<path id="XMLID_156_" class="st1" d="M133.5,26.8H132c-0.8-1.2-1.4-2.5-1.8-3.8c-0.4-1.3-0.6-2.6-0.6-3.8c0-1.5,0.3-2.9,0.8-4.3
		c0.4-1.2,1-2.2,1.7-3.2h1.5c-0.7,1.6-1.2,2.9-1.5,4c-0.3,1.1-0.4,2.3-0.4,3.5c0,0.9,0.1,1.7,0.2,2.6c0.2,0.9,0.4,1.7,0.7,2.6
		C132.7,25,133,25.8,133.5,26.8z"/>
	<path id="XMLID_158_" class="st1" d="M135.2,12h4.6c0.9,0,1.6,0,2,0.1s0.8,0.2,1.2,0.5s0.6,0.6,0.9,1c0.2,0.4,0.4,0.8,0.4,1.3
		c0,0.5-0.1,1-0.4,1.5c-0.3,0.4-0.7,0.8-1.2,1c0.7,0.2,1.2,0.5,1.6,1c0.4,0.5,0.6,1.1,0.6,1.7c0,0.5-0.1,1-0.4,1.5s-0.6,0.9-1,1.2
		c-0.4,0.3-0.9,0.5-1.6,0.5c-0.4,0-1.3,0.1-2.8,0.1h-3.9V12z M137.5,13.9v2.6h1.5c0.9,0,1.5,0,1.7,0c0.4,0,0.7-0.2,0.9-0.4
		s0.3-0.5,0.3-0.9c0-0.4-0.1-0.6-0.3-0.9s-0.5-0.4-0.9-0.4c-0.2,0-0.9,0-2,0H137.5z M137.5,18.4v3.1h2.1c0.8,0,1.4,0,1.6-0.1
		c0.3-0.1,0.6-0.2,0.8-0.5c0.2-0.2,0.3-0.6,0.3-1c0-0.3-0.1-0.6-0.3-0.9c-0.2-0.2-0.4-0.4-0.7-0.5c-0.3-0.1-1-0.2-2.1-0.2H137.5z"/>
	<path id="XMLID_162_" class="st1" d="M146.7,14v-2h2.2v2H146.7z M146.7,23.4v-8.3h2.2v8.3H146.7z"/>
	<path id="XMLID_165_" class="st1" d="M158.8,23.4h-2v-1.2c-0.3,0.5-0.7,0.8-1.2,1.1s-0.9,0.3-1.4,0.3c-1,0-1.8-0.4-2.4-1.2
		s-1-1.8-1-3.2c0-1.4,0.3-2.5,1-3.2s1.5-1.1,2.5-1.1c0.9,0,1.7,0.4,2.4,1.2V12h2.2V23.4z M152.9,19.1c0,0.9,0.1,1.5,0.4,1.9
		c0.4,0.6,0.8,0.9,1.5,0.9c0.5,0,0.9-0.2,1.3-0.6s0.5-1.1,0.5-1.9c0-1-0.2-1.6-0.5-2.1s-0.8-0.6-1.3-0.6c-0.5,0-1,0.2-1.3,0.6
		S152.9,18.3,152.9,19.1z"/>
	<path id="XMLID_170_" class="st1" d="M160.9,14v-2h2.2v2H160.9z M160.9,23.4v-8.3h2.2v8.3H160.9z"/>
	<path id="XMLID_173_" class="st1" d="M167.5,23.4h-2.2v-8.3h2v1.2c0.3-0.6,0.7-0.9,0.9-1.1s0.6-0.3,0.9-0.3c0.5,0,1,0.1,1.4,0.4
		l-0.7,1.9c-0.4-0.2-0.7-0.4-1-0.4c-0.3,0-0.6,0.1-0.8,0.3s-0.4,0.5-0.5,0.9s-0.2,1.4-0.2,2.8V23.4z"/>
	<path id="XMLID_175_" class="st1" d="M176.4,20.8l2.2,0.4c-0.3,0.8-0.7,1.4-1.3,1.8s-1.4,0.6-2.3,0.6c-1.4,0-2.5-0.5-3.2-1.4
		c-0.5-0.8-0.8-1.7-0.8-2.9c0-1.4,0.4-2.5,1.1-3.2s1.6-1.2,2.7-1.2c1.2,0,2.2,0.4,2.9,1.2s1.1,2.1,1,3.7h-5.5c0,0.7,0.2,1.2,0.5,1.5
		s0.8,0.5,1.3,0.5c0.3,0,0.6-0.1,0.9-0.3S176.3,21.2,176.4,20.8z M176.5,18.6c0-0.6-0.2-1.1-0.5-1.4s-0.7-0.5-1.1-0.5
		c-0.5,0-0.9,0.2-1.2,0.5s-0.5,0.8-0.5,1.4H176.5z"/>
	<path id="XMLID_190_" class="st1" d="M187.7,17.6l-2.2,0.4c-0.1-0.4-0.2-0.8-0.5-1s-0.6-0.3-1-0.3c-0.5,0-1,0.2-1.3,0.6
		s-0.5,1-0.5,1.9c0,1,0.2,1.7,0.5,2.1s0.8,0.6,1.3,0.6c0.4,0,0.8-0.1,1-0.4s0.5-0.6,0.6-1.2l2.2,0.4c-0.2,1-0.7,1.7-1.3,2.2
		s-1.5,0.8-2.6,0.8c-1.2,0-2.2-0.4-2.9-1.1s-1.1-1.8-1.1-3.2c0-1.4,0.4-2.4,1.1-3.2s1.7-1.1,2.9-1.1c1,0,1.8,0.2,2.4,0.7
		S187.5,16.7,187.7,17.6z"/>
	<path id="XMLID_192_" class="st1" d="M196.6,17.6l-2.2,0.4c-0.1-0.4-0.2-0.8-0.5-1s-0.6-0.3-1-0.3c-0.5,0-1,0.2-1.3,0.6
		s-0.5,1-0.5,1.9c0,1,0.2,1.7,0.5,2.1s0.8,0.6,1.3,0.6c0.4,0,0.8-0.1,1-0.4s0.5-0.6,0.6-1.2l2.2,0.4c-0.2,1-0.7,1.7-1.3,2.2
		s-1.5,0.8-2.6,0.8c-1.2,0-2.2-0.4-2.9-1.1s-1.1-1.8-1.1-3.2c0-1.4,0.4-2.4,1.1-3.2s1.7-1.1,2.9-1.1c1,0,1.8,0.2,2.4,0.7
		S196.4,16.7,196.6,17.6z"/>
	<path id="XMLID_194_" class="st1" d="M198.3,14v-2h2.2v2H198.3z M198.3,23.4v-8.3h2.2v8.3H198.3z"/>
	<path id="XMLID_197_" class="st1" d="M202.2,19.1c0-0.7,0.2-1.4,0.5-2.1s0.9-1.2,1.5-1.6s1.4-0.5,2.2-0.5c1.3,0,2.3,0.4,3.1,1.2
		s1.2,1.8,1.2,3.1c0,1.3-0.4,2.3-1.2,3.1s-1.8,1.2-3.1,1.2c-0.8,0-1.5-0.2-2.2-0.5s-1.2-0.8-1.6-1.5S202.2,20.1,202.2,19.1z
		 M204.5,19.3c0,0.8,0.2,1.5,0.6,1.9s0.9,0.7,1.4,0.7s1.1-0.2,1.4-0.7s0.6-1.1,0.6-1.9c0-0.8-0.2-1.4-0.6-1.9s-0.9-0.7-1.4-0.7
		s-1.1,0.2-1.4,0.7S204.5,18.4,204.5,19.3z"/>
	<path id="XMLID_200_" class="st1" d="M220.1,23.4h-2.2v-4.2c0-0.9,0-1.5-0.1-1.7s-0.2-0.5-0.5-0.6s-0.5-0.2-0.8-0.2
		c-0.4,0-0.7,0.1-1,0.3s-0.5,0.5-0.6,0.8s-0.2,1-0.2,1.9v3.8h-2.2v-8.3h2v1.2c0.7-0.9,1.6-1.4,2.7-1.4c0.5,0,0.9,0.1,1.3,0.3
		s0.7,0.4,0.9,0.7s0.3,0.6,0.4,0.9s0.1,0.8,0.1,1.5V23.4z"/>
	<path id="XMLID_202_" class="st1" d="M223.9,17.6l-2-0.4c0.2-0.8,0.6-1.4,1.2-1.8s1.4-0.6,2.4-0.6c1,0,1.7,0.1,2.2,0.3
		s0.8,0.5,1,0.9s0.3,1,0.3,2l0,2.6c0,0.7,0,1.3,0.1,1.6s0.2,0.7,0.4,1.1h-2.2c-0.1-0.1-0.1-0.4-0.2-0.6c0-0.1-0.1-0.2-0.1-0.3
		c-0.4,0.4-0.8,0.6-1.2,0.8s-0.9,0.3-1.4,0.3c-0.9,0-1.5-0.2-2-0.7s-0.7-1-0.7-1.8c0-0.5,0.1-0.9,0.3-1.3s0.5-0.6,0.9-0.8
		s1-0.4,1.7-0.5c1-0.2,1.7-0.4,2.1-0.5v-0.2c0-0.4-0.1-0.7-0.3-0.9s-0.6-0.3-1.2-0.3c-0.4,0-0.7,0.1-0.9,0.2S224.1,17.3,223.9,17.6z
		 M226.9,19.4c-0.3,0.1-0.7,0.2-1.3,0.3s-1,0.3-1.2,0.4c-0.3,0.2-0.4,0.5-0.4,0.8c0,0.3,0.1,0.6,0.3,0.8s0.5,0.3,0.9,0.3
		c0.4,0,0.8-0.1,1.1-0.4c0.3-0.2,0.4-0.4,0.5-0.7c0.1-0.2,0.1-0.5,0.1-1.1V19.4z"/>
	<path id="XMLID_205_" class="st1" d="M231.2,23.4V12h2.2v11.5H231.2z"/>
	<path id="XMLID_207_" class="st1" d="M240.4,20.8l2.2,0.4c-0.3,0.8-0.7,1.4-1.3,1.8s-1.4,0.6-2.3,0.6c-1.4,0-2.5-0.5-3.2-1.4
		c-0.5-0.8-0.8-1.7-0.8-2.9c0-1.4,0.4-2.5,1.1-3.2s1.6-1.2,2.7-1.2c1.2,0,2.2,0.4,2.9,1.2s1.1,2.1,1,3.7h-5.5c0,0.7,0.2,1.2,0.5,1.5
		s0.8,0.5,1.3,0.5c0.3,0,0.6-0.1,0.9-0.3S240.3,21.2,240.4,20.8z M240.6,18.6c0-0.6-0.2-1.1-0.5-1.4s-0.7-0.5-1.1-0.5
		c-0.5,0-0.9,0.2-1.2,0.5s-0.5,0.8-0.5,1.4H240.6z"/>
	<path id="XMLID_210_" class="st1" d="M243.8,21l2.2-0.3c0.1,0.4,0.3,0.8,0.6,1s0.7,0.3,1.2,0.3c0.6,0,1-0.1,1.3-0.3
		c0.2-0.1,0.3-0.3,0.3-0.6c0-0.2-0.1-0.3-0.2-0.4c-0.1-0.1-0.4-0.2-0.7-0.3c-1.8-0.4-2.9-0.7-3.4-1.1c-0.7-0.4-1-1.1-1-1.9
		c0-0.7,0.3-1.3,0.9-1.8s1.4-0.7,2.6-0.7c1.1,0,2,0.2,2.5,0.6s0.9,0.9,1.1,1.6l-2.1,0.4c-0.1-0.3-0.3-0.6-0.5-0.7s-0.6-0.3-1.1-0.3
		c-0.6,0-1,0.1-1.2,0.2c-0.2,0.1-0.3,0.3-0.3,0.4c0,0.2,0.1,0.3,0.2,0.4c0.2,0.1,0.9,0.4,2.1,0.6s2,0.6,2.4,1
		c0.5,0.4,0.7,0.9,0.7,1.6c0,0.8-0.3,1.4-1,2s-1.6,0.8-2.8,0.8c-1.1,0-2-0.2-2.7-0.7S244,21.8,243.8,21z"/>
	<path id="XMLID_212_" class="st1" d="M252.8,26.8c0.4-0.9,0.7-1.6,0.9-2.1s0.3-1.1,0.5-1.7s0.3-1.3,0.3-1.8s0.1-1.2,0.1-1.8
		c0-1.2-0.1-2.4-0.4-3.5s-0.8-2.4-1.5-4h1.5c0.8,1.1,1.4,2.3,1.8,3.6c0.4,1.3,0.7,2.5,0.7,3.8c0,1.1-0.2,2.3-0.5,3.5
		c-0.4,1.4-1,2.8-1.9,4.1H252.8z"/>
</g>
</svg>
