<?xml version="1.0" encoding="utf-8"?>
<!-- Generator: Adobe Illustrator 19.0.0, SVG Export Plug-In . SVG Version: 6.00 Build 0)  -->
<svg version="1.1" id="Capa_1" xmlns="http://www.w3.org/2000/svg" xmlns:xlink="http://www.w3.org/1999/xlink" x="0px" y="0px"
	 viewBox="-238.4 391.3 96 88" style="enable-background:new -238.4 391.3 96 88;" xml:space="preserve">
<style type="text/css">
	.st0{fill-rule:evenodd;clip-rule:evenodd;fill:url(#XMLID_2_);}
	.st1{fill:#FFFFFF;}
	.st2{fill:url(#SVGID_1_);}
	.st3{fill:url(#SVGID_2_);}
	.st4{fill:url(#SVGID_3_);}
	.st5{fill:url(#SVGID_4_);}
	.st6{fill:#BFBFBF;}
	.st7{fill:#0D0D0D;}
	.st8{fill:url(#SVGID_5_);}
	.st9{fill:url(#SVGID_6_);}
	.st10{fill:url(#SVGID_7_);}
	.st11{fill:url(#SVGID_8_);}
	.st12{fill:url(#SVGID_9_);}
	.st13{fill:#F2F2F2;fill-opacity:0.2549;}
	.st14{fill:url(#SVGID_10_);}
	.st15{fill:url(#SVGID_11_);}
	.st16{fill:url(#SVGID_12_);}
	.st17{fill:url(#SVGID_13_);}
	.st18{fill:#303030;}
	.st19{fill:url(#SVGID_14_);}
</style>
<radialGradient id="XMLID_2_" cx="-190.3928" cy="435.2756" r="44.011" gradientUnits="userSpaceOnUse">
	<stop  offset="0" style="stop-color:#66A9E1"/>
	<stop  offset="0.4763" style="stop-color:#64A9E1"/>
	<stop  offset="0.6808" style="stop-color:#5DA8E0"/>
	<stop  offset="0.8332" style="stop-color:#50A7DE"/>
	<stop  offset="0.959" style="stop-color:#3FA5DC"/>
	<stop  offset="1" style="stop-color:#37A4DB"/>
</radialGradient>
<circle id="XMLID_5740_" class="st0" cx="-190.4" cy="435.3" r="44"/>
<g id="XMLID_13258_">
	<path id="XMLID_13259_" class="st1" d="M-214,451.7v-8.6h2.8c1.1,0,1.7,0,2.1,0.1c0.5,0.1,0.9,0.4,1.2,0.8s0.5,1,0.5,1.7
		c0,0.5-0.1,1-0.3,1.3s-0.4,0.6-0.7,0.8s-0.6,0.3-0.9,0.4c-0.4,0.1-1,0.1-1.8,0.1h-1.1v3.2H-214z M-212.3,444.6v2.4h0.9
		c0.7,0,1.1,0,1.4-0.1s0.4-0.2,0.5-0.4s0.2-0.4,0.2-0.7c0-0.3-0.1-0.6-0.3-0.8s-0.4-0.3-0.7-0.4c-0.2,0-0.6-0.1-1.2-0.1H-212.3z"/>
	<path id="XMLID_13262_" class="st1" d="M-206,443.2h1.7v4.7c0,0.7,0,1.2,0.1,1.4c0.1,0.4,0.3,0.6,0.5,0.8s0.7,0.3,1.1,0.3
		c0.5,0,0.9-0.1,1.1-0.3s0.4-0.4,0.5-0.7s0.1-0.8,0.1-1.5v-4.8h1.7v4.5c0,1,0,1.8-0.1,2.2s-0.3,0.8-0.5,1.1s-0.6,0.5-1,0.7
		s-1,0.3-1.7,0.3c-0.8,0-1.4-0.1-1.9-0.3s-0.8-0.4-1-0.7s-0.4-0.6-0.5-1c-0.1-0.5-0.2-1.2-0.2-2.2V443.2z"/>
	<path id="XMLID_13265_" class="st1" d="M-197.3,451.7v-8.6h6.4v1.5h-4.6v1.9h4.3v1.4h-4.3v2.3h4.8v1.4H-197.3z"/>
	<path id="XMLID_13267_" class="st1" d="M-189.3,451.7v-8.6h1.7l3.5,5.7v-5.7h1.6v8.6h-1.7l-3.5-5.6v5.6H-189.3z"/>
	<path id="XMLID_13269_" class="st1" d="M-178.7,451.7v-7.1h-2.5v-1.5h6.8v1.5h-2.5v7.1H-178.7z"/>
	<path id="XMLID_13271_" class="st1" d="M-173.3,451.7v-8.6h6.4v1.5h-4.6v1.9h4.3v1.4h-4.3v2.3h4.8v1.4H-173.3z"/>
	<path id="XMLID_13281_" class="st1" d="M-212.3,456.2h3.2c0.7,0,1.3,0.1,1.6,0.2c0.5,0.1,0.9,0.4,1.3,0.8s0.6,0.8,0.8,1.4
		s0.3,1.2,0.3,2c0,0.7-0.1,1.3-0.3,1.8c-0.2,0.6-0.5,1.1-0.9,1.5c-0.3,0.3-0.7,0.5-1.2,0.7c-0.4,0.1-0.9,0.2-1.5,0.2h-3.3V456.2z
		 M-210.6,457.6v5.7h1.3c0.5,0,0.8,0,1-0.1c0.3-0.1,0.5-0.2,0.7-0.4s0.3-0.4,0.5-0.8s0.2-0.9,0.2-1.6s-0.1-1.2-0.2-1.5
		s-0.3-0.6-0.5-0.8s-0.5-0.3-0.8-0.4c-0.2-0.1-0.7-0.1-1.4-0.1H-210.6z"/>
	<path id="XMLID_13284_" class="st1" d="M-203.7,464.7v-8.6h6.4v1.5h-4.6v1.9h4.3v1.4h-4.3v2.3h4.8v1.4H-203.7z"/>
	<path id="XMLID_13286_" class="st1" d="M-192.3,464.7v-8.6h3.7c0.9,0,1.6,0.1,2,0.2s0.7,0.4,1,0.8s0.4,0.8,0.4,1.4
		c0,0.6-0.2,1.2-0.6,1.6s-0.9,0.7-1.7,0.8c0.4,0.2,0.7,0.5,0.9,0.7s0.6,0.7,1,1.4l1,1.7h-2.1l-1.3-1.9c-0.4-0.7-0.8-1.1-0.9-1.3
		s-0.3-0.3-0.5-0.4s-0.5-0.1-0.9-0.1h-0.4v3.6H-192.3z M-190.6,459.8h1.3c0.8,0,1.4,0,1.6-0.1s0.4-0.2,0.5-0.4s0.2-0.4,0.2-0.6
		c0-0.3-0.1-0.5-0.2-0.7s-0.4-0.3-0.7-0.3c-0.1,0-0.6,0-1.3,0h-1.4V459.8z"/>
	<path id="XMLID_13289_" class="st1" d="M-183.7,464.7v-8.6h6.4v1.5h-4.6v1.9h4.3v1.4h-4.3v2.3h4.8v1.4H-183.7z"/>
	<path id="XMLID_13291_" class="st1" d="M-175.7,456.2h3.2c0.7,0,1.3,0.1,1.6,0.2c0.5,0.1,0.9,0.4,1.3,0.8s0.6,0.8,0.8,1.4
		s0.3,1.2,0.3,2c0,0.7-0.1,1.3-0.3,1.8c-0.2,0.6-0.5,1.1-0.9,1.5c-0.3,0.3-0.7,0.5-1.2,0.7c-0.4,0.1-0.9,0.2-1.5,0.2h-3.3V456.2z
		 M-173.9,457.6v5.7h1.3c0.5,0,0.8,0,1-0.1c0.3-0.1,0.5-0.2,0.7-0.4s0.3-0.4,0.5-0.8s0.2-0.9,0.2-1.6s-0.1-1.2-0.2-1.5
		s-0.3-0.6-0.5-0.8s-0.5-0.3-0.8-0.4c-0.2-0.1-0.7-0.1-1.4-0.1H-173.9z"/>
</g>
<g>
	
		<linearGradient id="SVGID_1_" gradientUnits="userSpaceOnUse" x1="-180.5116" y1="751.4619" x2="-180.5116" y2="707.7205" gradientTransform="matrix(0.75 0 0 -0.75 -55.0521 962.1462)">
		<stop  offset="0" style="stop-color:#314594"/>
		<stop  offset="1" style="stop-color:#7B8ACE"/>
	</linearGradient>
	<path class="st2" d="M-238.4,410.8l27.8-12.3l68.1,12.8l-11,12.8l-7.3,7.3L-238.4,410.8z"/>
	
		<linearGradient id="SVGID_2_" gradientUnits="userSpaceOnUse" x1="-422.3287" y1="785.5656" x2="-422.3287" y2="746.4988" gradientTransform="matrix(0.75 0 0 -0.75 162.7089 1000.5453)">
		<stop  offset="0" style="stop-color:#314594"/>
		<stop  offset="1" style="stop-color:#7B8ACE"/>
	</linearGradient>
	<path class="st3" d="M-163.2,440.7l20.5-19l0.3-10.3l-20.8,18l-2.5,4.3L-163.2,440.7z"/>
	
		<linearGradient id="SVGID_3_" gradientUnits="userSpaceOnUse" x1="-194.3688" y1="783.8533" x2="-194.3688" y2="743.7849" gradientTransform="matrix(0.75 0 0 -0.75 -55.052 998.6182)">
		<stop  offset="0" style="stop-color:#314594"/>
		<stop  offset="1" style="stop-color:#234B7B"/>
	</linearGradient>
	<path class="st4" d="M-238.4,410.7v12.8l75.1,17.3v-11.3L-238.4,410.7z"/>
	
		<linearGradient id="SVGID_4_" gradientUnits="userSpaceOnUse" x1="-268.3777" y1="778.0846" x2="-270.011" y2="768.8216" gradientTransform="matrix(0.75 0 0 -0.75 -15.9707 990.2769)">
		<stop  offset="0" style="stop-color:#8E9FB0"/>
		<stop  offset="1" style="stop-color:#000063"/>
	</linearGradient>
	<path class="st5" d="M-225.3,408.9l14.8,3.5c0,0,0.3-1.3-1-1.7c-1-0.3-10.7-2.6-12.1-2.9C-224.3,407.7-225.1,408.7-225.3,408.9
		L-225.3,408.9z"/>
	<path class="st6" d="M-206.8,421.9v7l8.3,2v-7L-206.8,421.9z"/>
	<path class="st6" d="M-197.2,424.3v7l8.3,2v-7L-197.2,424.3z"/>
	<path class="st7" d="M-194.5,425.3v1l-1.8-0.5v5l6.5,1.5v-5l-2.3-0.5v-1L-194.5,425.3z"/>
	
		<linearGradient id="SVGID_5_" gradientUnits="userSpaceOnUse" x1="-391.1417" y1="829.7428" x2="-391.1417" y2="818.0562" gradientTransform="matrix(0.75 0 0 -0.75 115.9401 1050.2874)">
		<stop  offset="0" style="stop-color:#808080"/>
		<stop  offset="1" style="stop-color:#FFFFFF"/>
	</linearGradient>
	<path class="st8" d="M-181.3,428v7l7.8,1.8v-7L-181.3,428z"/>
	<path class="st7" d="M-178.6,428.7v0.5l-2-0.5v5.5l6,1.5v-5.5l-2.3-0.5v-0.8L-178.6,428.7z"/>
	
		<linearGradient id="SVGID_6_" gradientUnits="userSpaceOnUse" x1="-396.5935" y1="833.4856" x2="-396.5935" y2="826.4736" gradientTransform="matrix(0.75 0 0 -0.75 119.8229 1054.5018)">
		<stop  offset="0" style="stop-color:#454545"/>
		<stop  offset="1" style="stop-color:#696969"/>
	</linearGradient>
	<path class="st9" d="M-180,429.4l4.8,1v4.3l-4.8-1.3V429.4z"/>
	<path class="st7" d="M-179.4,429.2v4.5l0.5,0.3v-4.8H-179.4z"/>
	<path class="st7" d="M-178,429.4v5l0.5,0.3v-5L-178,429.4z"/>
	<path class="st7" d="M-176.5,429.8v4.8l0.5,0.3v-4.8L-176.5,429.8z"/>
	
		<linearGradient id="SVGID_7_" gradientUnits="userSpaceOnUse" x1="-308.5562" y1="787.2343" x2="-310.1895" y2="777.9713" gradientTransform="matrix(0.75 0 0 -0.75 29.2698 1000.5792)">
		<stop  offset="0" style="stop-color:#8E9FB0"/>
		<stop  offset="1" style="stop-color:#000063"/>
	</linearGradient>
	<path class="st10" d="M-210.2,412.4l14.8,3.5c0,0,0.3-1.3-1-1.7c-1-0.3-10.7-2.6-12.1-2.9C-209.2,411.1-210,412.2-210.2,412.4
		L-210.2,412.4z"/>
	
		<linearGradient id="SVGID_8_" gradientUnits="userSpaceOnUse" x1="-349.7693" y1="796.6962" x2="-351.4027" y2="787.4332" gradientTransform="matrix(0.75 0 0 -0.75 75.6748 1011.2331)">
		<stop  offset="0" style="stop-color:#8E9FB0"/>
		<stop  offset="1" style="stop-color:#000063"/>
	</linearGradient>
	<path class="st11" d="M-194.7,415.9l14.8,3.5c0,0,0.3-1.3-1-1.7c-1-0.3-10.7-2.6-12.1-2.9C-193.7,414.7-194.5,415.7-194.7,415.9
		L-194.7,415.9z"/>
	
		<linearGradient id="SVGID_9_" gradientUnits="userSpaceOnUse" x1="-390.7121" y1="805.6901" x2="-392.3455" y2="796.4271" gradientTransform="matrix(0.75 0 0 -0.75 121.7755 1021.36)">
		<stop  offset="0" style="stop-color:#8E9FB0"/>
		<stop  offset="1" style="stop-color:#000063"/>
	</linearGradient>
	<path class="st12" d="M-179.3,419.3l14.8,3.5c0,0,0.3-1.3-1-1.7c-1-0.3-10.7-2.6-12.1-2.9C-178.3,418.1-179.1,419.1-179.3,419.3
		L-179.3,419.3z"/>
	<path class="st13" d="M-238.4,418v-7.3l74.9,17.5c0,0-42.6-9.2-57.7-10.7c-14.7-1.6-17.2,0.3-17.2,0.3V418z"/>
	<path d="M-185.6,431.4l2.5,0.8v2l-2.5-0.5V431.4z"/>
	
		<linearGradient id="SVGID_10_" gradientUnits="userSpaceOnUse" x1="-384.2333" y1="836.609" x2="-384.2333" y2="839.6141" gradientTransform="matrix(0.75 0 0 -0.75 103.8368 1061.403)">
		<stop  offset="0" style="stop-color:#A5A5A5"/>
		<stop  offset="1" style="stop-color:#F2F2F2"/>
	</linearGradient>
	<path class="st14" d="M-185.3,431.7l2,0.5v1.8l-2-0.5V431.7z"/>
	<path d="M-237.1,420.1l2.5,0.8v2l-2.5-0.5V420.1z"/>
	
		<linearGradient id="SVGID_11_" gradientUnits="userSpaceOnUse" x1="-247.1008" y1="806.4617" x2="-247.1008" y2="809.4669" gradientTransform="matrix(0.75 0 0 -0.75 -50.5694 1027.458)">
		<stop  offset="0" style="stop-color:#A5A5A5"/>
		<stop  offset="1" style="stop-color:#F2F2F2"/>
	</linearGradient>
	<path class="st15" d="M-236.9,420.4l2,0.5v1.8l-2-0.5V420.4z"/>
	<path d="M-211.1,421.2l2.5,0.8v2l-2.5-0.5V421.2z"/>
	
		<linearGradient id="SVGID_12_" gradientUnits="userSpaceOnUse" x1="-316.3392" y1="809.5144" x2="-316.3392" y2="812.5196" gradientTransform="matrix(0.75 0 0 -0.75 27.3909 1030.8954)">
		<stop  offset="0" style="stop-color:#A5A5A5"/>
		<stop  offset="1" style="stop-color:#F2F2F2"/>
	</linearGradient>
	<path class="st16" d="M-210.9,421.5l2,0.5v1.8l-2-0.5V421.5z"/>
	<path d="M-211.3,425.7l2.5,0.8v2l-2.5-0.5V425.7z"/>
	
		<linearGradient id="SVGID_13_" gradientUnits="userSpaceOnUse" x1="-315.9592" y1="821.3445" x2="-315.9592" y2="824.3497" gradientTransform="matrix(0.75 0 0 -0.75 26.9624 1044.2157)">
		<stop  offset="0" style="stop-color:#A5A5A5"/>
		<stop  offset="1" style="stop-color:#F2F2F2"/>
	</linearGradient>
	<path class="st17" d="M-211,426l2,0.5v1.8l-2-0.5V426z"/>
	<path class="st7" d="M-204.1,422.9v1l-1.8-0.5v5l6.5,1.5v-5l-2.3-0.5v-1L-204.1,422.9z"/>
	<path class="st18" d="M-172.2,433.3l4,1v2l-4-0.8V433.3z"/>
	
		<linearGradient id="SVGID_14_" gradientUnits="userSpaceOnUse" x1="-419.1483" y1="841.4419" x2="-419.1483" y2="844.7809" gradientTransform="matrix(0.75 0 0 -0.75 144.2779 1067.2189)">
		<stop  offset="0" style="stop-color:#BFBFBF"/>
		<stop  offset="1" style="stop-color:#F2F2F2"/>
	</linearGradient>
	<path class="st19" d="M-171.8,433.6l3.5,0.8v1.8l-3.5-0.8V433.6z"/>
</g>
</svg>
