<?xml version="1.0" encoding="utf-8"?>
<!-- Generator: Adobe Illustrator 19.0.0, SVG Export Plug-In . SVG Version: 6.00 Build 0)  -->
<svg version="1.1" id="Capa_1" xmlns="http://www.w3.org/2000/svg" xmlns:xlink="http://www.w3.org/1999/xlink" x="0px" y="0px"
	 viewBox="0 0 293.3 33.7" style="enable-background:new 0 0 293.3 33.7;" xml:space="preserve">
<style type="text/css">
	.st0{fill:#FFFFFF;}
	.st1{fill:#3B86B1;}
</style>
<g id="XMLID_25_">
	<g id="XMLID_61_">
		<g id="XMLID_248_">
			<g id="XMLID_249_">
				<polygon id="XMLID_253_" class="st0" points="266.6,33.2 280.7,16.8 266.6,0.5 278.5,0.5 292.6,16.8 278.5,33.2 				"/>
				<path id="XMLID_250_" class="st1" d="M278.3,1L292,16.8l-13.7,15.8h-10.6l13.1-15.2l0.6-0.7l-0.6-0.7L267.7,1H278.3 M278.8,0
					h-13.2l14.5,16.8l-14.5,16.8h13.2l14.5-16.8L278.8,0L278.8,0z"/>
			</g>
		</g>
	</g>
	<g id="XMLID_26_">
		<g id="XMLID_237_">
			<g id="XMLID_238_">
				<polygon id="XMLID_242_" class="st0" points="14.8,33.2 0.7,16.8 14.8,0.5 26.6,0.5 12.6,16.8 26.6,33.2 				"/>
				<path id="XMLID_239_" class="st1" d="M25.6,1L12.5,16.2l-0.6,0.7l0.6,0.7l13.1,15.2H15L1.3,16.8L15,1H25.6 M27.7,0H14.5L0,16.8
					l14.5,16.8h13.2L13.2,16.8L27.7,0L27.7,0z"/>
			</g>
		</g>
	</g>
	<g id="XMLID_59_">
		<polygon id="XMLID_139_" class="st0" points="32,33.2 17.9,16.8 32,0.5 261.3,0.5 275.4,16.8 261.3,33.2 		"/>
		<path id="XMLID_127_" class="st1" d="M32.2,1l228.9,0l13.7,15.8l-13.7,15.8l-228.9,0L18.5,16.8L32.2,1 M31.7,0L17.2,16.8
			l14.5,16.8l229.8,0l14.5-16.8L261.6,0L31.7,0L31.7,0z"/>
	</g>
</g>
<g id="XMLID_20_">
	<path id="XMLID_27_" class="st1" d="M35.4,23.4V12h7.9v1.9h-5.5v2.7h4.8v1.9h-4.8v4.9H35.4z"/>
	<path id="XMLID_55_" class="st1" d="M50.6,23.4v-1.2c-0.3,0.4-0.7,0.8-1.2,1s-1,0.4-1.6,0.4c-0.6,0-1.1-0.1-1.5-0.4
		c-0.4-0.2-0.8-0.6-1-1c-0.2-0.4-0.3-1.1-0.3-1.8v-5.3h2.2v3.8c0,1.2,0,1.9,0.1,2.1c0.1,0.3,0.2,0.5,0.4,0.6
		c0.2,0.2,0.5,0.2,0.8,0.2c0.4,0,0.7-0.1,1-0.3s0.5-0.5,0.6-0.8s0.2-1.1,0.2-2.2v-3.5h2.2v8.3H50.6z"/>
	<path id="XMLID_58_" class="st1" d="M54.9,23.4V12h2.2v11.5H54.9z"/>
	<path id="XMLID_71_" class="st1" d="M59.3,23.4V12h2.2v11.5H59.3z"/>
	<path id="XMLID_83_" class="st1" d="M63.5,20.4v-2.2h4.3v2.2H63.5z"/>
	<path id="XMLID_116_" class="st1" d="M69.1,12h4.2c1,0,1.7,0.1,2.2,0.2c0.7,0.2,1.2,0.5,1.7,1.1c0.5,0.5,0.8,1.1,1.1,1.9
		s0.4,1.6,0.4,2.7c0,0.9-0.1,1.8-0.4,2.4c-0.3,0.8-0.7,1.5-1.2,2c-0.4,0.4-0.9,0.7-1.6,0.9c-0.5,0.2-1.2,0.2-2,0.2h-4.4V12z
		 M71.4,13.9v7.6h1.7c0.6,0,1.1,0,1.4-0.1c0.4-0.1,0.7-0.3,0.9-0.5c0.2-0.2,0.4-0.6,0.6-1.1s0.2-1.2,0.2-2.1s-0.1-1.6-0.2-2
		s-0.4-0.8-0.7-1.1s-0.6-0.4-1.1-0.5c-0.3-0.1-1-0.1-1.9-0.1H71.4z"/>
	<path id="XMLID_143_" class="st1" d="M86.1,23.4v-1.2c-0.3,0.4-0.7,0.8-1.2,1s-1,0.4-1.6,0.4c-0.6,0-1.1-0.1-1.5-0.4
		c-0.4-0.2-0.8-0.6-1-1c-0.2-0.4-0.3-1.1-0.3-1.8v-5.3h2.2v3.8c0,1.2,0,1.9,0.1,2.1c0.1,0.3,0.2,0.5,0.4,0.6
		c0.2,0.2,0.5,0.2,0.8,0.2c0.4,0,0.7-0.1,1-0.3s0.5-0.5,0.6-0.8s0.2-1.1,0.2-2.2v-3.5h2.2v8.3H86.1z"/>
	<path id="XMLID_145_" class="st1" d="M90.4,15.1h2v1.2c0.3-0.4,0.6-0.8,1.1-1s1-0.4,1.5-0.4c1,0,1.8,0.4,2.5,1.1s1,1.8,1,3.2
		c0,1.4-0.3,2.5-1,3.2c-0.7,0.8-1.5,1.2-2.5,1.2c-0.5,0-0.9-0.1-1.2-0.3c-0.4-0.2-0.8-0.5-1.2-0.9v4.2h-2.2V15.1z M92.5,19.1
		c0,0.9,0.2,1.6,0.6,2.1c0.4,0.4,0.8,0.7,1.4,0.7c0.5,0,0.9-0.2,1.3-0.6c0.3-0.4,0.5-1.1,0.5-2c0-0.9-0.2-1.5-0.5-1.9
		c-0.3-0.4-0.8-0.6-1.3-0.6c-0.5,0-1,0.2-1.3,0.6C92.7,17.7,92.5,18.3,92.5,19.1z"/>
	<path id="XMLID_148_" class="st1" d="M100.2,23.4V12h2.2v11.5H100.2z"/>
	<path id="XMLID_150_" class="st1" d="M109.4,20.8l2.2,0.4c-0.3,0.8-0.7,1.4-1.3,1.8c-0.6,0.4-1.4,0.6-2.3,0.6
		c-1.4,0-2.5-0.5-3.2-1.4c-0.5-0.8-0.8-1.7-0.8-2.9c0-1.4,0.4-2.5,1.1-3.2s1.6-1.2,2.7-1.2c1.2,0,2.2,0.4,2.9,1.2
		c0.7,0.8,1.1,2.1,1,3.7h-5.5c0,0.7,0.2,1.2,0.5,1.5c0.3,0.4,0.8,0.5,1.3,0.5c0.3,0,0.6-0.1,0.9-0.3S109.3,21.2,109.4,20.8z
		 M109.6,18.6c0-0.6-0.2-1.1-0.5-1.4s-0.7-0.5-1.1-0.5c-0.5,0-0.9,0.2-1.2,0.5s-0.5,0.8-0.5,1.4H109.6z"/>
	<path id="XMLID_153_" class="st1" d="M112.5,23.4l3-4.3l-2.9-4h2.7l1.5,2.3l1.5-2.3h2.6l-2.8,3.9l3.1,4.4h-2.7l-1.7-2.6l-1.7,2.6
		H112.5z"/>
	<path id="XMLID_155_" class="st1" d="M130.5,26.8H129c-0.8-1.2-1.4-2.5-1.8-3.8c-0.4-1.3-0.6-2.6-0.6-3.8c0-1.5,0.3-2.9,0.8-4.3
		c0.4-1.2,1-2.2,1.7-3.2h1.5c-0.7,1.6-1.2,2.9-1.5,4c-0.3,1.1-0.4,2.3-0.4,3.5c0,0.9,0.1,1.7,0.2,2.6c0.2,0.9,0.4,1.7,0.7,2.6
		C129.7,25,130.1,25.8,130.5,26.8z"/>
	<path id="XMLID_157_" class="st1" d="M132.2,12h4.6c0.9,0,1.6,0,2,0.1s0.8,0.2,1.2,0.5s0.6,0.6,0.9,1s0.4,0.8,0.4,1.3
		c0,0.5-0.1,1-0.4,1.5s-0.7,0.8-1.2,1c0.7,0.2,1.2,0.5,1.6,1s0.6,1.1,0.6,1.7c0,0.5-0.1,1-0.4,1.5s-0.6,0.9-1,1.2
		c-0.4,0.3-0.9,0.5-1.6,0.5c-0.4,0-1.3,0.1-2.8,0.1h-3.9V12z M134.5,13.9v2.6h1.5c0.9,0,1.5,0,1.7,0c0.4,0,0.7-0.2,0.9-0.4
		s0.3-0.5,0.3-0.9c0-0.4-0.1-0.6-0.3-0.9s-0.5-0.4-0.9-0.4c-0.2,0-0.9,0-2,0H134.5z M134.5,18.4v3.1h2.1c0.8,0,1.4,0,1.6-0.1
		c0.3-0.1,0.6-0.2,0.8-0.5c0.2-0.2,0.3-0.6,0.3-1c0-0.3-0.1-0.6-0.3-0.9c-0.2-0.2-0.4-0.4-0.7-0.5c-0.3-0.1-1-0.2-2.1-0.2H134.5z"/>
	<path id="XMLID_161_" class="st1" d="M143.8,14v-2h2.2v2H143.8z M143.8,23.4v-8.3h2.2v8.3H143.8z"/>
	<path id="XMLID_164_" class="st1" d="M155.8,23.4h-2v-1.2c-0.3,0.5-0.7,0.8-1.2,1.1s-0.9,0.3-1.4,0.3c-1,0-1.8-0.4-2.4-1.2
		s-1-1.8-1-3.2c0-1.4,0.3-2.5,1-3.2s1.5-1.1,2.5-1.1c0.9,0,1.7,0.4,2.4,1.2V12h2.2V23.4z M150,19.1c0,0.9,0.1,1.5,0.4,1.9
		c0.4,0.6,0.8,0.9,1.5,0.9c0.5,0,0.9-0.2,1.3-0.6s0.5-1.1,0.5-1.9c0-1-0.2-1.6-0.5-2.1s-0.8-0.6-1.3-0.6c-0.5,0-1,0.2-1.3,0.6
		S150,18.3,150,19.1z"/>
	<path id="XMLID_167_" class="st1" d="M158,14v-2h2.2v2H158z M158,23.4v-8.3h2.2v8.3H158z"/>
	<path id="XMLID_172_" class="st1" d="M164.5,23.4h-2.2v-8.3h2v1.2c0.3-0.6,0.7-0.9,0.9-1.1s0.6-0.3,0.9-0.3c0.5,0,1,0.1,1.4,0.4
		l-0.7,1.9c-0.4-0.2-0.7-0.4-1-0.4c-0.3,0-0.6,0.1-0.8,0.3s-0.4,0.5-0.5,0.9s-0.2,1.4-0.2,2.8V23.4z"/>
	<path id="XMLID_174_" class="st1" d="M173.5,20.8l2.2,0.4c-0.3,0.8-0.7,1.4-1.3,1.8s-1.4,0.6-2.3,0.6c-1.4,0-2.5-0.5-3.2-1.4
		c-0.5-0.8-0.8-1.7-0.8-2.9c0-1.4,0.4-2.5,1.1-3.2s1.6-1.2,2.7-1.2c1.2,0,2.2,0.4,2.9,1.2s1.1,2.1,1,3.7h-5.5c0,0.7,0.2,1.2,0.5,1.5
		s0.8,0.5,1.3,0.5c0.3,0,0.6-0.1,0.9-0.3S173.3,21.2,173.5,20.8z M173.6,18.6c0-0.6-0.2-1.1-0.5-1.4s-0.7-0.5-1.1-0.5
		c-0.5,0-0.9,0.2-1.2,0.5s-0.5,0.8-0.5,1.4H173.6z"/>
	<path id="XMLID_189_" class="st1" d="M184.8,17.6l-2.2,0.4c-0.1-0.4-0.2-0.8-0.5-1s-0.6-0.3-1-0.3c-0.5,0-1,0.2-1.3,0.6
		s-0.5,1-0.5,1.9c0,1,0.2,1.7,0.5,2.1s0.8,0.6,1.3,0.6c0.4,0,0.8-0.1,1-0.4s0.5-0.6,0.6-1.2l2.2,0.4c-0.2,1-0.7,1.7-1.3,2.2
		s-1.5,0.8-2.6,0.8c-1.2,0-2.2-0.4-2.9-1.1s-1.1-1.8-1.1-3.2c0-1.4,0.4-2.4,1.1-3.2s1.7-1.1,2.9-1.1c1,0,1.8,0.2,2.4,0.7
		S184.5,16.7,184.8,17.6z"/>
	<path id="XMLID_191_" class="st1" d="M193.7,17.6l-2.2,0.4c-0.1-0.4-0.2-0.8-0.5-1s-0.6-0.3-1-0.3c-0.5,0-1,0.2-1.3,0.6
		s-0.5,1-0.5,1.9c0,1,0.2,1.7,0.5,2.1s0.8,0.6,1.3,0.6c0.4,0,0.8-0.1,1-0.4s0.5-0.6,0.6-1.2l2.2,0.4c-0.2,1-0.7,1.7-1.3,2.2
		s-1.5,0.8-2.6,0.8c-1.2,0-2.2-0.4-2.9-1.1s-1.1-1.8-1.1-3.2c0-1.4,0.4-2.4,1.1-3.2s1.7-1.1,2.9-1.1c1,0,1.8,0.2,2.4,0.7
		S193.4,16.7,193.7,17.6z"/>
	<path id="XMLID_193_" class="st1" d="M195.4,14v-2h2.2v2H195.4z M195.4,23.4v-8.3h2.2v8.3H195.4z"/>
	<path id="XMLID_196_" class="st1" d="M199.3,19.1c0-0.7,0.2-1.4,0.5-2.1s0.9-1.2,1.5-1.6s1.4-0.5,2.2-0.5c1.3,0,2.3,0.4,3.1,1.2
		s1.2,1.8,1.2,3.1c0,1.3-0.4,2.3-1.2,3.1s-1.8,1.2-3.1,1.2c-0.8,0-1.5-0.2-2.2-0.5s-1.2-0.8-1.6-1.5S199.3,20.1,199.3,19.1z
		 M201.5,19.3c0,0.8,0.2,1.5,0.6,1.9s0.9,0.7,1.4,0.7s1.1-0.2,1.4-0.7s0.6-1.1,0.6-1.9c0-0.8-0.2-1.4-0.6-1.9s-0.9-0.7-1.4-0.7
		s-1.1,0.2-1.4,0.7S201.5,18.4,201.5,19.3z"/>
	<path id="XMLID_199_" class="st1" d="M217.1,23.4h-2.2v-4.2c0-0.9,0-1.5-0.1-1.7s-0.2-0.5-0.5-0.6s-0.5-0.2-0.8-0.2
		c-0.4,0-0.7,0.1-1,0.3s-0.5,0.5-0.6,0.8s-0.2,1-0.2,1.9v3.8h-2.2v-8.3h2v1.2c0.7-0.9,1.6-1.4,2.7-1.4c0.5,0,0.9,0.1,1.3,0.3
		s0.7,0.4,0.9,0.7s0.3,0.6,0.4,0.9s0.1,0.8,0.1,1.5V23.4z"/>
	<path id="XMLID_201_" class="st1" d="M221,17.6l-2-0.4c0.2-0.8,0.6-1.4,1.2-1.8s1.4-0.6,2.4-0.6c1,0,1.7,0.1,2.2,0.3s0.8,0.5,1,0.9
		s0.3,1,0.3,2l0,2.6c0,0.7,0,1.3,0.1,1.6s0.2,0.7,0.4,1.1h-2.2c-0.1-0.1-0.1-0.4-0.2-0.6c0-0.1-0.1-0.2-0.1-0.3
		c-0.4,0.4-0.8,0.6-1.2,0.8s-0.9,0.3-1.4,0.3c-0.9,0-1.5-0.2-2-0.7s-0.7-1-0.7-1.8c0-0.5,0.1-0.9,0.3-1.3s0.5-0.6,0.9-0.8
		s1-0.4,1.7-0.5c1-0.2,1.7-0.4,2.1-0.5v-0.2c0-0.4-0.1-0.7-0.3-0.9s-0.6-0.3-1.2-0.3c-0.4,0-0.7,0.1-0.9,0.2S221.1,17.3,221,17.6z
		 M223.9,19.4c-0.3,0.1-0.7,0.2-1.3,0.3s-1,0.3-1.2,0.4c-0.3,0.2-0.4,0.5-0.4,0.8c0,0.3,0.1,0.6,0.3,0.8s0.5,0.3,0.9,0.3
		c0.4,0,0.8-0.1,1.1-0.4c0.3-0.2,0.4-0.4,0.5-0.7c0.1-0.2,0.1-0.5,0.1-1.1V19.4z"/>
	<path id="XMLID_204_" class="st1" d="M228.2,23.4V12h2.2v11.5H228.2z"/>
	<path id="XMLID_206_" class="st1" d="M237.5,20.8l2.2,0.4c-0.3,0.8-0.7,1.4-1.3,1.8s-1.4,0.6-2.3,0.6c-1.4,0-2.5-0.5-3.2-1.4
		c-0.5-0.8-0.8-1.7-0.8-2.9c0-1.4,0.4-2.5,1.1-3.2s1.6-1.2,2.7-1.2c1.2,0,2.2,0.4,2.9,1.2s1.1,2.1,1,3.7h-5.5c0,0.7,0.2,1.2,0.5,1.5
		s0.8,0.5,1.3,0.5c0.3,0,0.6-0.1,0.9-0.3S237.4,21.2,237.5,20.8z M237.6,18.6c0-0.6-0.2-1.1-0.5-1.4s-0.7-0.5-1.1-0.5
		c-0.5,0-0.9,0.2-1.2,0.5s-0.5,0.8-0.5,1.4H237.6z"/>
	<path id="XMLID_209_" class="st1" d="M240.8,21l2.2-0.3c0.1,0.4,0.3,0.8,0.6,1s0.7,0.3,1.2,0.3c0.6,0,1-0.1,1.3-0.3
		c0.2-0.1,0.3-0.3,0.3-0.6c0-0.2-0.1-0.3-0.2-0.4c-0.1-0.1-0.4-0.2-0.7-0.3c-1.8-0.4-2.9-0.7-3.4-1.1c-0.7-0.4-1-1.1-1-1.9
		c0-0.7,0.3-1.3,0.9-1.8s1.4-0.7,2.6-0.7c1.1,0,2,0.2,2.5,0.6s0.9,0.9,1.1,1.6l-2.1,0.4c-0.1-0.3-0.3-0.6-0.5-0.7s-0.6-0.3-1.1-0.3
		c-0.6,0-1,0.1-1.2,0.2c-0.2,0.1-0.3,0.3-0.3,0.4c0,0.2,0.1,0.3,0.2,0.4c0.2,0.1,0.9,0.4,2.1,0.6s2,0.6,2.4,1
		c0.5,0.4,0.7,0.9,0.7,1.6c0,0.8-0.3,1.4-1,2s-1.6,0.8-2.8,0.8c-1.1,0-2-0.2-2.7-0.7S241,21.8,240.8,21z"/>
	<path id="XMLID_211_" class="st1" d="M249.9,26.8c0.4-0.9,0.7-1.6,0.9-2.1s0.3-1.1,0.5-1.7s0.3-1.3,0.3-1.8s0.1-1.2,0.1-1.8
		c0-1.2-0.1-2.4-0.4-3.5s-0.8-2.4-1.5-4h1.5c0.8,1.1,1.4,2.3,1.8,3.6s0.7,2.5,0.7,3.8c0,1.1-0.2,2.3-0.5,3.5c-0.4,1.4-1,2.8-1.9,4.1
		H249.9z"/>
</g>
</svg>
