<?xml version="1.0" encoding="utf-8"?>
<!-- Generator: Adobe Illustrator 19.0.0, SVG Export Plug-In . SVG Version: 6.00 Build 0)  -->
<svg version="1.1" id="Capa_1" xmlns="http://www.w3.org/2000/svg" xmlns:xlink="http://www.w3.org/1999/xlink" x="0px" y="0px"
	 viewBox="-235.6 391 90.5 88" style="enable-background:new -235.6 391 90.5 88;" xml:space="preserve">
<style type="text/css">
	.st0{fill-rule:evenodd;clip-rule:evenodd;fill:url(#XMLID_2_);}
	.st1{fill:#FFFFFF;}
	.st2{fill:#5C69A0;}
	.st3{fill:#1F396C;}
	.st4{fill:#003366;}
	.st5{fill:#DEE4EC;}
	.st6{fill:url(#SVGID_1_);}
</style>
<radialGradient id="XMLID_2_" cx="-190.2815" cy="435.0125" r="44.011" gradientUnits="userSpaceOnUse">
	<stop  offset="0" style="stop-color:#66A9E1"/>
	<stop  offset="0.4763" style="stop-color:#64A9E1"/>
	<stop  offset="0.6808" style="stop-color:#5DA8E0"/>
	<stop  offset="0.8332" style="stop-color:#50A7DE"/>
	<stop  offset="0.959" style="stop-color:#3FA5DC"/>
	<stop  offset="1" style="stop-color:#37A4DB"/>
</radialGradient>
<circle id="XMLID_10368_" class="st0" cx="-190.3" cy="435" r="44"/>
<g id="XMLID_13347_">
	<path id="XMLID_13349_" class="st1" d="M-223.5,451.5v-8.6h2.8c1.1,0,1.7,0,2.1,0.1c0.5,0.1,0.9,0.4,1.2,0.8s0.5,1,0.5,1.7
		c0,0.5-0.1,1-0.3,1.3s-0.4,0.6-0.7,0.8s-0.6,0.3-0.9,0.4c-0.4,0.1-1,0.1-1.8,0.1h-1.1v3.2H-223.5z M-221.8,444.3v2.4h0.9
		c0.7,0,1.1,0,1.4-0.1s0.4-0.2,0.5-0.4s0.2-0.4,0.2-0.7c0-0.3-0.1-0.6-0.3-0.8s-0.4-0.3-0.7-0.4c-0.2,0-0.6-0.1-1.2-0.1H-221.8z"/>
	<path id="XMLID_13353_" class="st1" d="M-215.6,442.9h1.7v4.7c0,0.7,0,1.2,0.1,1.4c0.1,0.4,0.3,0.6,0.5,0.8s0.7,0.3,1.1,0.3
		c0.5,0,0.9-0.1,1.1-0.3s0.4-0.4,0.5-0.7s0.1-0.8,0.1-1.5v-4.8h1.7v4.5c0,1,0,1.8-0.1,2.2s-0.3,0.8-0.5,1.1s-0.6,0.5-1,0.7
		s-1,0.3-1.7,0.3c-0.8,0-1.4-0.1-1.9-0.3s-0.8-0.4-1-0.7s-0.4-0.6-0.5-1c-0.1-0.5-0.2-1.2-0.2-2.2V442.9z"/>
	<path id="XMLID_13355_" class="st1" d="M-206.9,451.5v-8.6h6.4v1.5h-4.6v1.9h4.3v1.4h-4.3v2.3h4.8v1.4H-206.9z"/>
	<path id="XMLID_13357_" class="st1" d="M-198.9,451.5v-8.6h3.7c0.9,0,1.6,0.1,2,0.2s0.7,0.4,1,0.8s0.4,0.8,0.4,1.4
		c0,0.6-0.2,1.2-0.6,1.6s-0.9,0.7-1.7,0.8c0.4,0.2,0.7,0.5,0.9,0.7s0.6,0.7,1,1.4l1,1.7h-2.1l-1.3-1.9c-0.4-0.7-0.8-1.1-0.9-1.3
		s-0.3-0.3-0.5-0.4s-0.5-0.1-0.9-0.1h-0.4v3.6H-198.9z M-197.1,446.5h1.3c0.8,0,1.4,0,1.6-0.1s0.4-0.2,0.5-0.4s0.2-0.4,0.2-0.6
		c0-0.3-0.1-0.5-0.2-0.7s-0.4-0.3-0.7-0.3c-0.1,0-0.6,0-1.3,0h-1.4V446.5z"/>
	<path id="XMLID_13360_" class="st1" d="M-188.3,451.5v-7.1h-2.5v-1.5h6.8v1.5h-2.5v7.1H-188.3z"/>
	<path id="XMLID_13363_" class="st1" d="M-176,451.5h-1.9l-0.8-2h-3.4l-0.7,2h-1.8l3.3-8.6h1.8L-176,451.5z M-179.2,448.1l-1.2-3.2
		l-1.2,3.2H-179.2z"/>
	<path id="XMLID_13366_" class="st1" d="M-172.2,442.9h3.2c0.7,0,1.3,0.1,1.6,0.2c0.5,0.1,0.9,0.4,1.3,0.8s0.6,0.8,0.8,1.4
		s0.3,1.2,0.3,2c0,0.7-0.1,1.3-0.3,1.8c-0.2,0.6-0.5,1.1-0.9,1.5c-0.3,0.3-0.7,0.5-1.2,0.7c-0.4,0.1-0.9,0.2-1.5,0.2h-3.3V442.9z
		 M-170.5,444.3v5.7h1.3c0.5,0,0.8,0,1-0.1c0.3-0.1,0.5-0.2,0.7-0.4s0.3-0.4,0.5-0.8s0.2-0.9,0.2-1.6s-0.1-1.2-0.2-1.5
		s-0.3-0.6-0.5-0.8s-0.5-0.3-0.8-0.4c-0.2-0.1-0.7-0.1-1.4-0.1H-170.5z"/>
	<path id="XMLID_13369_" class="st1" d="M-163.5,451.5v-8.6h6.4v1.5h-4.6v1.9h4.3v1.4h-4.3v2.3h4.8v1.4H-163.5z"/>
	<path id="XMLID_13371_" class="st1" d="M-214.2,464.5v-8.6h6.4v1.5h-4.6v1.9h4.3v1.4h-4.3v2.3h4.8v1.4H-214.2z"/>
	<path id="XMLID_13373_" class="st1" d="M-206.2,464.5v-8.6h1.7l3.5,5.7v-5.7h1.6v8.6h-1.7l-3.5-5.6v5.6H-206.2z"/>
	<path id="XMLID_13375_" class="st1" d="M-197.5,464.5V456h1.7v7.1h4.3v1.4H-197.5z"/>
	<path id="XMLID_13377_" class="st1" d="M-182.5,464.5h-1.9l-0.8-2h-3.4l-0.7,2h-1.8l3.3-8.6h1.8L-182.5,464.5z M-185.7,461.1
		l-1.2-3.2l-1.2,3.2H-185.7z"/>
	<path id="XMLID_13380_" class="st1" d="M-176.1,461.3l1.7,0.5c-0.3,0.9-0.7,1.6-1.3,2.1s-1.4,0.7-2.3,0.7c-1.1,0-2.1-0.4-2.8-1.2
		s-1.1-1.8-1.1-3.2c0-1.4,0.4-2.5,1.1-3.3s1.7-1.2,2.9-1.2c1.1,0,1.9,0.3,2.6,0.9c0.4,0.4,0.7,0.9,0.9,1.6l-1.7,0.4
		c-0.1-0.4-0.3-0.8-0.6-1.1s-0.7-0.4-1.2-0.4c-0.6,0-1.2,0.2-1.5,0.7s-0.6,1.2-0.6,2.2c0,1.1,0.2,1.9,0.6,2.3s0.9,0.7,1.5,0.7
		c0.5,0,0.9-0.1,1.2-0.4S-176.2,462-176.1,461.3z"/>
	<path id="XMLID_13382_" class="st1" d="M-172.9,464.5v-8.6h6.4v1.5h-4.6v1.9h4.3v1.4h-4.3v2.3h4.8v1.4H-172.9z"/>
</g>
<g>
	<path class="st2" d="M-235.8,414.7l23.1-5.5l53.7,3.7l-0.2,23.8l-76.7,0.2V414.7z"/>
	<path class="st3" d="M-159.1,407.7l14.3-5.9v21.7l-14.3,13V407.7z"/>
	<path class="st4" d="M-229.8,427l16.9,0.2v3.9h-16.9V427z"/>
	<path class="st5" d="M-229.2,429.5h16.8l-0.2,1.6h-16.8L-229.2,429.5z"/>
	<path class="st4" d="M-187.7,420.6h20.5v2h-20.5V420.6z"/>
	<path class="st5" d="M-187.6,421.7h20.3v1.1h-20.3V421.7z"/>
	<path class="st4" d="M-187.7,428.8h20.5v2h-20.5V428.8z"/>
	<path class="st5" d="M-187.6,429.8h20.3v1.1h-20.3V429.8z"/>
	
		<linearGradient id="SVGID_1_" gradientUnits="userSpaceOnUse" x1="-606.8349" y1="352.5747" x2="-606.8349" y2="335.6445" gradientTransform="matrix(0.75 0 0 -0.75 264.8447 666.3334)">
		<stop  offset="0" style="stop-color:#5C69A0"/>
		<stop  offset="1" style="stop-color:#9CA7CE"/>
	</linearGradient>
	<path class="st6" d="M-219.2,401.9h74.4l-14.3,12.7h-76.7L-219.2,401.9z"/>
</g>
</svg>
