<?xml version="1.0" encoding="utf-8"?>
<!-- Generator: Adobe Illustrator 19.0.0, SVG Export Plug-In . SVG Version: 6.00 Build 0)  -->
<svg version="1.1" id="Capa_1" xmlns="http://www.w3.org/2000/svg" xmlns:xlink="http://www.w3.org/1999/xlink" x="0px" y="0px"
	 viewBox="-233.7 382.4 88 107.9" style="enable-background:new -233.7 382.4 88 107.9;" xml:space="preserve">
<style type="text/css">
	.st0{fill-rule:evenodd;clip-rule:evenodd;fill:url(#XMLID_2_);}
	.st1{fill:#FFFFFF;}
	.st2{fill:#0D0D0D;}
	.st3{fill:url(#SVGID_1_);}
	.st4{fill:#163479;}
	.st5{fill:#124CC3;}
	.st6{fill:#193B86;}
	.st7{fill:#193B87;}
	.st8{fill:url(#SVGID_2_);}
	.st9{fill:url(#SVGID_3_);}
	.st10{fill:url(#SVGID_4_);}
	.st11{fill:url(#SVGID_5_);}
	.st12{fill:url(#SVGID_6_);}
	.st13{fill:url(#SVGID_7_);}
	.st14{fill:url(#SVGID_8_);}
	.st15{fill:#D2DBE5;}
	.st16{fill:url(#SVGID_9_);}
</style>
<radialGradient id="XMLID_2_" cx="-189.6946" cy="446.2709" r="44.011" gradientUnits="userSpaceOnUse">
	<stop  offset="0" style="stop-color:#66A9E1"/>
	<stop  offset="0.4763" style="stop-color:#64A9E1"/>
	<stop  offset="0.6808" style="stop-color:#5DA8E0"/>
	<stop  offset="0.8332" style="stop-color:#50A7DE"/>
	<stop  offset="0.959" style="stop-color:#3FA5DC"/>
	<stop  offset="1" style="stop-color:#37A4DB"/>
</radialGradient>
<circle id="XMLID_11560_" class="st0" cx="-189.7" cy="446.3" r="44"/>
<g id="XMLID_10792_">
	<path id="XMLID_11561_" class="st1" d="M-224.2,466.7v-8.6h3.7c0.9,0,1.6,0.1,2,0.2s0.7,0.4,1,0.8s0.4,0.8,0.4,1.4
		c0,0.6-0.2,1.2-0.6,1.6s-0.9,0.7-1.7,0.8c0.4,0.2,0.7,0.5,0.9,0.7s0.6,0.7,1,1.4l1,1.7h-2.1l-1.3-1.9c-0.4-0.7-0.8-1.1-0.9-1.3
		s-0.3-0.3-0.5-0.4s-0.5-0.1-0.9-0.1h-0.4v3.6H-224.2z M-222.5,461.8h1.3c0.8,0,1.4,0,1.6-0.1s0.4-0.2,0.5-0.4s0.2-0.4,0.2-0.6
		c0-0.3-0.1-0.5-0.2-0.7s-0.4-0.3-0.7-0.3c-0.1,0-0.6,0-1.3,0h-1.4V461.8z"/>
	<path id="XMLID_11570_" class="st1" d="M-215.6,466.7v-8.6h6.4v1.5h-4.6v1.9h4.3v1.4h-4.3v2.3h4.8v1.4H-215.6z"/>
	<path id="XMLID_11573_" class="st1" d="M-207.6,466.7v-8.6h2.8c1.1,0,1.7,0,2.1,0.1c0.5,0.1,0.9,0.4,1.2,0.8s0.5,1,0.5,1.7
		c0,0.5-0.1,1-0.3,1.3s-0.4,0.6-0.7,0.8s-0.6,0.3-0.9,0.4c-0.4,0.1-1,0.1-1.8,0.1h-1.1v3.2H-207.6z M-205.8,459.6v2.4h0.9
		c0.7,0,1.1,0,1.4-0.1s0.4-0.2,0.5-0.4s0.2-0.4,0.2-0.7c0-0.3-0.1-0.6-0.3-0.8s-0.4-0.3-0.7-0.4c-0.2,0-0.6-0.1-1.2-0.1H-205.8z"/>
	<path id="XMLID_11579_" class="st1" d="M-199.6,466.7v-8.6h6.4v1.5h-4.6v1.9h4.3v1.4h-4.3v2.3h4.8v1.4H-199.6z"/>
	<path id="XMLID_11591_" class="st1" d="M-189.6,466.7v-7.1h-2.5v-1.5h6.8v1.5h-2.5v7.1H-189.6z"/>
	<path id="XMLID_11594_" class="st1" d="M-184.3,466.7v-8.6h1.7v8.6H-184.3z"/>
	<path id="XMLID_12991_" class="st1" d="M-180.9,458.1h3.2c0.7,0,1.3,0.1,1.6,0.2c0.5,0.1,0.9,0.4,1.3,0.8s0.6,0.8,0.8,1.4
		s0.3,1.2,0.3,2c0,0.7-0.1,1.3-0.3,1.8c-0.2,0.6-0.5,1.1-0.9,1.5c-0.3,0.3-0.7,0.5-1.2,0.7c-0.4,0.1-0.9,0.2-1.5,0.2h-3.3V458.1z
		 M-179.2,459.6v5.7h1.3c0.5,0,0.8,0,1-0.1c0.3-0.1,0.5-0.2,0.7-0.4s0.3-0.4,0.5-0.8s0.2-0.9,0.2-1.6s-0.1-1.2-0.2-1.5
		s-0.3-0.6-0.5-0.8s-0.5-0.3-0.8-0.4c-0.2-0.1-0.7-0.1-1.4-0.1H-179.2z"/>
	<path id="XMLID_13252_" class="st1" d="M-172.6,462.5c0-0.9,0.1-1.6,0.4-2.2c0.2-0.4,0.5-0.8,0.8-1.2s0.7-0.6,1.1-0.8
		c0.5-0.2,1.2-0.3,1.9-0.3c1.3,0,2.3,0.4,3,1.2s1.1,1.9,1.1,3.3c0,1.4-0.4,2.5-1.1,3.3s-1.8,1.2-3,1.2c-1.3,0-2.3-0.4-3-1.2
		S-172.6,463.9-172.6,462.5z M-170.8,462.4c0,1,0.2,1.7,0.7,2.2s1,0.8,1.7,0.8s1.3-0.2,1.7-0.7s0.7-1.2,0.7-2.2c0-1-0.2-1.7-0.6-2.2
		s-1-0.7-1.7-0.7s-1.3,0.2-1.7,0.7S-170.8,461.4-170.8,462.4z"/>
	<path id="XMLID_13255_" class="st1" d="M-162.9,466.7v-8.6h3.7c0.9,0,1.6,0.1,2,0.2s0.7,0.4,1,0.8s0.4,0.8,0.4,1.4
		c0,0.6-0.2,1.2-0.6,1.6s-0.9,0.7-1.7,0.8c0.4,0.2,0.7,0.5,0.9,0.7s0.6,0.7,1,1.4l1,1.7h-2.1l-1.3-1.9c-0.4-0.7-0.8-1.1-0.9-1.3
		s-0.3-0.3-0.5-0.4s-0.5-0.1-0.9-0.1h-0.4v3.6H-162.9z M-161.2,461.8h1.3c0.8,0,1.4,0,1.6-0.1s0.4-0.2,0.5-0.4s0.2-0.4,0.2-0.6
		c0-0.3-0.1-0.5-0.2-0.7s-0.4-0.3-0.7-0.3c-0.1,0-0.6,0-1.3,0h-1.4V461.8z"/>
</g>
<g>
	<path class="st2" d="M-167.1,417.4l0.8,0.5l-0.1,4.7l-0.7,0.7V417.4z"/>
	<path class="st2" d="M-167.1,396.4l0.8,0.5l-0.1,4.7l-0.7,0.7V396.4z"/>
	
		<linearGradient id="SVGID_1_" gradientUnits="userSpaceOnUse" x1="-641.8284" y1="581.1671" x2="-696.7402" y2="581.1671" gradientTransform="matrix(0.75 0 0 -0.75 314.6195 852.4482)">
		<stop  offset="0" style="stop-color:#AFAFAF"/>
		<stop  offset="0.72" style="stop-color:#CBCBCB"/>
		<stop  offset="1" style="stop-color:#BCBCBC"/>
	</linearGradient>
	<path class="st3" d="M-205,389.4l38.2-2.6v51.8l-38.2,7.7l-2.9-13.6v-27.9L-205,389.4z"/>
	<path class="st4" d="M-168.6,446v1.5l0.7,0.4v-2.2L-168.6,446z"/>
	<path class="st5" d="M-167.9,447.8l2.2-0.7v-2.2h-0.7l-1.5,0.7V447.8z"/>
	<path class="st6" d="M-205.9,452.5v1.8l1.1,1.1l3.7-0.7v-2.2H-205.9z"/>
	<path class="st7" d="M-212.4,442.6l1.8-0.7l-1.1,1.5L-212.4,442.6z"/>
	
		<linearGradient id="SVGID_2_" gradientUnits="userSpaceOnUse" x1="-627.6473" y1="622.9277" x2="-686.1345" y2="601.6401" gradientTransform="matrix(0.75 0 0 -0.75 302.875 844.85)">
		<stop  offset="0" style="stop-color:#224DB2"/>
		<stop  offset="1" style="stop-color:#1054DC"/>
	</linearGradient>
	<path class="st8" d="M-213.7,385.6l2.6-0.7l32.4-1.8l12.9,2.6l-26.8,2.6l-12.1-0.7h-4.8L-213.7,385.6z"/>
	
		<linearGradient id="SVGID_3_" gradientUnits="userSpaceOnUse" x1="-650.2304" y1="625.5204" x2="-698.1299" y2="608.0864" gradientTransform="matrix(0.75 0 0 -0.75 319.9449 849.8543)">
		<stop  offset="0" style="stop-color:#1A3A84"/>
		<stop  offset="1" style="stop-color:#0D46B9"/>
	</linearGradient>
	<path class="st9" d="M-205,389.2l39-2.2v-1.5l-39,1.8l-0.4,1.1L-205,389.2z"/>
	
		<linearGradient id="SVGID_4_" gradientUnits="userSpaceOnUse" x1="-682.7418" y1="581.529" x2="-691.5669" y2="581.529" gradientTransform="matrix(0.75 0 0 -0.75 307.0068 852.982)">
		<stop  offset="0" style="stop-color:#C2C2C2"/>
		<stop  offset="0.75" style="stop-color:#D7D7D7"/>
	</linearGradient>
	<path class="st10" d="M-211.7,387.1v55.9l6.6,3.7v-57.4L-211.7,387.1z"/>
	<path class="st4" d="M-205.1,446.3l38.2-7.7l1.1,0.7l-11,2.9l-27.6,4.4L-205.1,446.3z"/>
	
		<linearGradient id="SVGID_5_" gradientUnits="userSpaceOnUse" x1="-648.1866" y1="693.1317" x2="-700.9708" y2="673.9197" gradientTransform="matrix(0.75 0 0 -0.75 320.5292 959.2128)">
		<stop  offset="0" style="stop-color:#1A3A84"/>
		<stop  offset="1" style="stop-color:#0D46B9"/>
	</linearGradient>
	<path class="st11" d="M-204.7,446.9l-0.4,3.7l0.7,3.7l7-1.1c0,0,6.9-3.6,13-4.8c6.1-1,11.9-0.4,11.9-0.4l6.7-1.8v-7L-204.7,446.9z"
		/>
	
		<linearGradient id="SVGID_6_" gradientUnits="userSpaceOnUse" x1="-677.9553" y1="692.9973" x2="-692.5221" y2="687.6954" gradientTransform="matrix(0.75 0 0 -0.75 305.6295 966.203)">
		<stop  offset="0" style="stop-color:#406EDA"/>
		<stop  offset="1" style="stop-color:#407BF1"/>
	</linearGradient>
	<path class="st12" d="M-212.3,442.6l8.1,4v7.7l-8.1-4.8V442.6z"/>
	
		<linearGradient id="SVGID_7_" gradientUnits="userSpaceOnUse" x1="-677.3546" y1="618.7646" x2="-688.8878" y2="614.5669" gradientTransform="matrix(0.75 0 0 -0.75 302.875 849.8543)">
		<stop  offset="0" style="stop-color:#406EDA"/>
		<stop  offset="1" style="stop-color:#407BF1"/>
	</linearGradient>
	<path class="st13" d="M-213.7,385.5v1.5l8.5,2.2v-1.8L-213.7,385.5z"/>
	<path class="st2" d="M-209.8,399.1l1.1,0.1c0,0,4.2,1.7,4.6,1.9c0.3,0.2,0.4,0.8,0.4,1.2c0.1,0.5-0.2,0.9-0.6,0.8
		c-0.4-0.1-4.3-0.9-5.2-1c-0.7-0.1-0.5-1.5-0.6-1.1L-209.8,399.1z"/>
	
		<linearGradient id="SVGID_8_" gradientUnits="userSpaceOnUse" x1="-663.7865" y1="611.36" x2="-663.7865" y2="615.2658" gradientTransform="matrix(0.7444 9.140200e-002 9.140200e-002 -0.7444 230.9152 918.2597)">
		<stop  offset="0" style="stop-color:#808080;stop-opacity:0"/>
		<stop  offset="1" style="stop-color:#E0E0E0"/>
	</linearGradient>
	<path class="st14" d="M-209.9,399.2c0,0,5,1.9,5.4,2.1c0.3,0.1,0.3,0.7,0.2,0.9c-0.1,0.3-0.1,0.6-0.5,0.6c-0.4,0-4.5-0.8-5-1.2
		c-0.8-0.3-0.3-0.7-0.2-1.1C-210,400.3-209.9,399.2-209.9,399.2L-209.9,399.2z"/>
	<path class="st15" d="M-209.1,400.8c0-0.4,0.3-0.7,0.7-0.7c0.5,0.1,0.6,0.4,0.5,0.8c-0.1,0.3-0.4,0.7-0.7,0.7
		C-208.8,401.6-209.2,401.2-209.1,400.8L-209.1,400.8z"/>
	<path class="st2" d="M-209.9,434.1l0.8-0.2c0,0,5,2.4,5.5,2.7c0.5,0.4,0.3,0.9,0.2,1.4c0,0.5-0.4,0.9-0.8,0.8
		c-0.4-0.3-4.4-1.3-5.3-1.5c-0.5-0.1-0.5-0.6-0.5-1.2c0.1-0.8,0.1-2.1,0.1-2.1L-209.9,434.1z"/>
	<path class="st15" d="M-208.9,435.9c0.1-0.4,0.5-0.6,0.8-0.5c0.4,0.1,0.5,0.5,0.4,1c0,0.7-0.5,0.7-0.8,0.6
		C-208.8,437-209,436.4-208.9,435.9L-208.9,435.9z"/>
	
		<linearGradient id="SVGID_9_" gradientUnits="userSpaceOnUse" x1="-642.1309" y1="635.5547" x2="-642.1309" y2="639.8597" gradientTransform="matrix(0.7244 0.1941 0.1941 -0.7244 134.6178 1023.1335)">
		<stop  offset="0" style="stop-color:#808080;stop-opacity:0"/>
		<stop  offset="1" style="stop-color:#E0E0E0"/>
	</linearGradient>
	<path class="st16" d="M-209.9,434l1.3,0.7c0,0,4.4,1.9,4.8,2.2c0.6,0.4,0.4,0.6,0.3,1.1c0,0.4-0.4,0.9-0.8,0.8
		c-0.5,0-4.4-1.3-5.3-1.5c-0.4-0.3-0.5-0.6-0.5-1.2C-209.9,435.5-209.9,434-209.9,434L-209.9,434z"/>
</g>
</svg>
