<?xml version="1.0" encoding="utf-8"?>
<!-- Generator: Adobe Illustrator 19.0.0, SVG Export Plug-In . SVG Version: 6.00 Build 0)  -->
<svg version="1.1" id="Capa_1" xmlns="http://www.w3.org/2000/svg" xmlns:xlink="http://www.w3.org/1999/xlink" x="0px" y="0px"
	 viewBox="0 0 246 58.1" style="enable-background:new 0 0 246 58.1;" xml:space="preserve">
<style type="text/css">
	.st0{fill-rule:evenodd;clip-rule:evenodd;fill:#A8A8A8;}
	.st1{fill-rule:evenodd;clip-rule:evenodd;fill:#EFEFEF;}
	.st2{opacity:0.5;fill:#2C6882;}
	.st3{fill-rule:evenodd;clip-rule:evenodd;fill:#B1D9E8;}
	.st4{fill:#A7A9AC;}
	.st5{fill:#3C92CA;}
	.st6{clip-path:url(#XMLID_323_);}
</style>
<g id="XMLID_23768_">
	<g id="XMLID_25848_">
		<g id="XMLID_25859_">
			<g id="XMLID_284_">
				<polygon id="XMLID_285_" class="st0" points="232,58.1 246,40.4 235.6,20.2 232,20.2 				"/>
			</g>
		</g>
		<rect id="XMLID_25856_" x="0" y="0" class="st1" width="246" height="40.4"/>
		<polygon id="XMLID_25853_" class="st2" points="232,47.5 0,40.4 232,40.4 		"/>
		<rect id="XMLID_25852_" x="2.6" y="2.5" class="st3" width="240.8" height="35.3"/>
		<g id="XMLID_24401_">
			<g id="XMLID_455_">
				<path id="XMLID_479_" d="M46,24l2.4-0.2c0.1,0.8,0.4,1.4,0.9,1.8c0.4,0.4,1,0.6,1.8,0.6c0.8,0,1.4-0.2,1.8-0.5
					c0.4-0.3,0.6-0.7,0.6-1.2c0-0.3-0.1-0.5-0.3-0.7c-0.2-0.2-0.5-0.4-0.9-0.5c-0.3-0.1-0.9-0.3-2-0.5c-1.3-0.3-2.2-0.7-2.8-1.2
					c-0.7-0.7-1.1-1.5-1.1-2.4c0-0.6,0.2-1.2,0.5-1.7c0.4-0.5,0.9-1,1.5-1.2c0.7-0.3,1.5-0.4,2.4-0.4c1.5,0,2.7,0.3,3.4,1
					c0.8,0.7,1.2,1.6,1.2,2.7L53,19.4c-0.1-0.6-0.3-1.1-0.7-1.3c-0.3-0.3-0.9-0.4-1.6-0.4c-0.7,0-1.3,0.1-1.7,0.4
					c-0.3,0.2-0.4,0.4-0.4,0.8c0,0.3,0.1,0.5,0.4,0.7c0.3,0.3,1.1,0.5,2.3,0.8c1.2,0.3,2.1,0.6,2.7,0.9c0.6,0.3,1,0.7,1.3,1.2
					c0.3,0.5,0.5,1.2,0.5,1.9c0,0.7-0.2,1.4-0.6,2c-0.4,0.6-0.9,1.1-1.6,1.4S52,28.2,51,28.2c-1.5,0-2.7-0.4-3.5-1.1
					S46.1,25.3,46,24z"/>
				<path id="XMLID_476_" d="M63,25.1l2.3,0.4c-0.3,0.9-0.8,1.5-1.4,1.9c-0.6,0.4-1.5,0.7-2.4,0.7c-1.5,0-2.7-0.5-3.4-1.5
					c-0.6-0.8-0.9-1.8-0.9-3c0-1.5,0.4-2.6,1.1-3.4s1.7-1.2,2.9-1.2c1.3,0,2.3,0.4,3.1,1.3c0.8,0.9,1.1,2.2,1.1,4h-5.8
					c0,0.7,0.2,1.2,0.6,1.6s0.8,0.6,1.3,0.6c0.4,0,0.7-0.1,0.9-0.3S62.9,25.6,63,25.1z M63.1,22.8c0-0.7-0.2-1.2-0.5-1.5
					s-0.7-0.5-1.2-0.5c-0.5,0-0.9,0.2-1.3,0.6s-0.5,0.9-0.5,1.5H63.1z"/>
				<path id="XMLID_474_" d="M69.6,27.9h-2.3v-8.8h2.2v1.3c0.4-0.6,0.7-1,1-1.2c0.3-0.2,0.6-0.3,1-0.3c0.5,0,1,0.1,1.5,0.4l-0.7,2
					c-0.4-0.3-0.8-0.4-1.1-0.4c-0.3,0-0.6,0.1-0.8,0.3s-0.4,0.5-0.5,1c-0.1,0.5-0.2,1.5-0.2,3V27.9z"/>
				<path id="XMLID_472_" d="M76.4,27.9l-3.6-8.8h2.4l1.7,4.5l0.5,1.5c0.1-0.4,0.2-0.6,0.2-0.8c0.1-0.2,0.2-0.5,0.2-0.7l1.7-4.5H82
					l-3.5,8.8H76.4z"/>
				<path id="XMLID_469_" d="M83.4,17.9v-2.2h2.3v2.2H83.4z M83.4,27.9v-8.8h2.3v8.8H83.4z"/>
				<path id="XMLID_466_" d="M96.2,27.9h-2.2v-1.3c-0.4,0.5-0.8,0.9-1.3,1.1c-0.5,0.2-1,0.4-1.5,0.4c-1,0-1.9-0.4-2.6-1.2
					c-0.7-0.8-1.1-2-1.1-3.4c0-1.5,0.4-2.6,1.1-3.4s1.6-1.2,2.7-1.2c1,0,1.8,0.4,2.6,1.2v-4.4h2.3V27.9z M90,23.3
					c0,0.9,0.1,1.6,0.4,2c0.4,0.6,0.9,0.9,1.6,0.9c0.5,0,1-0.2,1.4-0.7c0.4-0.5,0.6-1.1,0.6-2c0-1-0.2-1.7-0.5-2.2s-0.8-0.7-1.4-0.7
					c-0.6,0-1,0.2-1.4,0.7C90.2,21.8,90,22.5,90,23.3z"/>
				<path id="XMLID_463_" d="M98,23.4c0-0.8,0.2-1.5,0.6-2.2c0.4-0.7,0.9-1.3,1.6-1.7c0.7-0.4,1.5-0.6,2.3-0.6
					c1.3,0,2.4,0.4,3.3,1.3s1.3,2,1.3,3.3c0,1.3-0.4,2.4-1.3,3.3c-0.9,0.9-1.9,1.3-3.2,1.3c-0.8,0-1.6-0.2-2.3-0.5
					c-0.7-0.4-1.3-0.9-1.7-1.6C98.2,25.3,98,24.4,98,23.4z M100.4,23.5c0,0.9,0.2,1.5,0.6,2s0.9,0.7,1.5,0.7s1.1-0.2,1.5-0.7
					c0.4-0.5,0.6-1.1,0.6-2c0-0.9-0.2-1.5-0.6-2c-0.4-0.5-0.9-0.7-1.5-0.7s-1.1,0.2-1.5,0.7S100.4,22.7,100.4,23.5z"/>
				<path id="XMLID_461_" d="M111.1,27.9h-2.3v-8.8h2.2v1.3c0.4-0.6,0.7-1,1-1.2c0.3-0.2,0.6-0.3,1-0.3c0.5,0,1,0.1,1.5,0.4l-0.7,2
					c-0.4-0.3-0.8-0.4-1.1-0.4c-0.3,0-0.6,0.1-0.8,0.3s-0.4,0.5-0.5,1c-0.1,0.5-0.2,1.5-0.2,3V27.9z"/>
				<path id="XMLID_458_" d="M120.6,25.1l2.3,0.4c-0.3,0.9-0.8,1.5-1.4,1.9c-0.6,0.4-1.5,0.7-2.4,0.7c-1.5,0-2.7-0.5-3.4-1.5
					c-0.6-0.8-0.9-1.8-0.9-3c0-1.5,0.4-2.6,1.1-3.4s1.7-1.2,2.9-1.2c1.3,0,2.3,0.4,3.1,1.3s1.1,2.2,1.1,4h-5.8
					c0,0.7,0.2,1.2,0.6,1.6s0.8,0.6,1.3,0.6c0.4,0,0.7-0.1,0.9-0.3S120.5,25.6,120.6,25.1z M120.8,22.8c0-0.7-0.2-1.2-0.5-1.5
					s-0.7-0.5-1.2-0.5c-0.5,0-0.9,0.2-1.3,0.6s-0.5,0.9-0.5,1.5H120.8z"/>
				<path id="XMLID_456_" d="M124.2,25.4l2.3-0.4c0.1,0.5,0.3,0.8,0.6,1s0.7,0.4,1.3,0.4c0.6,0,1.1-0.1,1.4-0.3
					c0.2-0.2,0.3-0.4,0.3-0.6c0-0.2-0.1-0.3-0.2-0.4c-0.1-0.1-0.4-0.2-0.8-0.3c-1.9-0.4-3.1-0.8-3.6-1.1c-0.7-0.5-1-1.1-1-2
					c0-0.8,0.3-1.4,0.9-1.9s1.5-0.8,2.8-0.8c1.2,0,2.1,0.2,2.7,0.6c0.6,0.4,1,1,1.2,1.7l-2.2,0.4c-0.1-0.3-0.3-0.6-0.5-0.8
					c-0.3-0.2-0.6-0.3-1.1-0.3c-0.6,0-1.1,0.1-1.3,0.3c-0.2,0.1-0.3,0.3-0.3,0.5c0,0.2,0.1,0.3,0.2,0.4c0.2,0.2,0.9,0.4,2.2,0.7
					c1.2,0.3,2.1,0.6,2.6,1c0.5,0.4,0.7,1,0.7,1.7c0,0.8-0.3,1.5-1,2.1c-0.7,0.6-1.7,0.9-3,0.9c-1.2,0-2.2-0.2-2.9-0.7
					C124.8,26.9,124.4,26.3,124.2,25.4z"/>
			</g>
		</g>
	</g>
	<g id="XMLID_25723_">
		<path id="XMLID_25744_" class="st4" d="M21.6,14.2c-1.8,0-3.3-1.5-3.3-3.3c0-1.8,1.5-3.3,3.3-3.3c1.8,0,3.3,1.5,3.3,3.3
			C24.9,12.7,23.4,14.2,21.6,14.2L21.6,14.2z M21.6,14.2"/>
		<path id="XMLID_25741_" class="st5" d="M21.6,24.1c-1.8,0-3.3-1.5-3.3-3.3c0-1.8,1.5-3.3,3.3-3.3c1.8,0,3.3,1.5,3.3,3.3
			C24.9,22.6,23.4,24.1,21.6,24.1L21.6,24.1z M21.6,24.1"/>
		<path id="XMLID_25738_" class="st4" d="M21.6,34c-1.8,0-3.3-1.5-3.3-3.3c0-1.8,1.5-3.3,3.3-3.3c1.8,0,3.3,1.5,3.3,3.3
			C24.9,32.5,23.4,34,21.6,34L21.6,34z M21.6,34"/>
		<g id="XMLID_25728_">
			<defs>
				<rect id="XMLID_25729_" x="8.6" y="7.1" width="26" height="27.5"/>
			</defs>
			<clipPath id="XMLID_323_">
				<use xlink:href="#XMLID_25729_"  style="overflow:visible;"/>
			</clipPath>
			<path id="XMLID_25734_" class="st6" d="M34.1,10.3h-5.4l2.2-2.2c0.2-0.2,0.2-0.5,0-0.7c-0.2-0.2-0.5-0.2-0.7,0l-3.1,3.1
				c-0.1,0.1-0.2,0.2-0.2,0.4c0,0.1,0.1,0.3,0.2,0.4l3.1,3.1c0.1,0.1,0.2,0.2,0.4,0.2s0.3-0.1,0.4-0.2c0.2-0.2,0.2-0.5,0-0.7
				l-2.2-2.2h4.9v18.9h-8.2c-0.2-1.9-1.8-3.3-3.8-3.3c-2.1,0-3.8,1.7-3.8,3.8s1.7,3.8,3.8,3.8c1.9,0,3.5-1.4,3.8-3.3h8.7
				c0.3,0,0.5-0.2,0.5-0.5V10.8C34.6,10.5,34.4,10.3,34.1,10.3L34.1,10.3z M21.6,33.5c-1.5,0-2.8-1.3-2.8-2.8c0-1.5,1.3-2.8,2.8-2.8
				c1.5,0,2.8,1.3,2.8,2.8C24.4,32.2,23.2,33.5,21.6,33.5L21.6,33.5z M21.6,33.5"/>
			<path id="XMLID_25730_" class="st6" d="M13,27.4c-0.2-0.2-0.5-0.2-0.7,0c-0.2,0.2-0.2,0.5,0,0.7l2.2,2.2H9.6V11.4h8.2
				c0.2,1.9,1.8,3.3,3.8,3.3c2.1,0,3.8-1.7,3.8-3.8c0-2.1-1.7-3.8-3.8-3.8c-1.9,0-3.5,1.4-3.8,3.3H9.1c-0.3,0-0.5,0.2-0.5,0.5v19.9
				c0,0.3,0.2,0.5,0.5,0.5h5.4l-2.2,2.2c-0.2,0.2-0.2,0.5,0,0.7c0.1,0.1,0.2,0.2,0.4,0.2c0.1,0,0.3-0.1,0.4-0.2l3.1-3.1
				c0.1-0.1,0.2-0.2,0.2-0.4c0-0.1-0.1-0.3-0.2-0.4L13,27.4z M21.6,8.1c1.5,0,2.8,1.3,2.8,2.8s-1.3,2.8-2.8,2.8
				c-1.5,0-2.8-1.3-2.8-2.8S20.1,8.1,21.6,8.1L21.6,8.1z M21.6,8.1"/>
		</g>
		<path id="XMLID_25724_" d="M21.6,17c-2.1,0-3.8,1.7-3.8,3.8s1.7,3.8,3.8,3.8s3.8-1.7,3.8-3.8C25.4,18.7,23.7,17,21.6,17L21.6,17z
			 M21.6,23.6c-1.5,0-2.8-1.3-2.8-2.8c0-1.5,1.3-2.8,2.8-2.8c1.5,0,2.8,1.3,2.8,2.8C24.4,22.3,23.2,23.6,21.6,23.6L21.6,23.6z
			 M21.6,23.6"/>
	</g>
</g>
</svg>
