<?xml version="1.0" encoding="utf-8"?>
<!-- Generator: Adobe Illustrator 19.0.0, SVG Export Plug-In . SVG Version: 6.00 Build 0)  -->
<svg version="1.1" id="Capa_1" xmlns="http://www.w3.org/2000/svg" xmlns:xlink="http://www.w3.org/1999/xlink" x="0px" y="0px"
	 viewBox="0 0 246 58.1" style="enable-background:new 0 0 246 58.1;" xml:space="preserve">
<style type="text/css">
	.st0{fill-rule:evenodd;clip-rule:evenodd;fill:#A8A8A8;}
	.st1{fill-rule:evenodd;clip-rule:evenodd;fill:#EFEFEF;}
	.st2{opacity:0.5;fill:#2C6882;}
	.st3{fill-rule:evenodd;clip-rule:evenodd;fill:#FFFFFF;}
	.st4{fill:#3C92CA;}
	.st5{fill:#A7A9AC;}
</style>
<g id="XMLID_233_">
	<g id="XMLID_25832_">
		<g id="XMLID_25843_">
			<g id="XMLID_337_">
				<polygon id="XMLID_338_" class="st0" points="232,58.1 246,40.4 235.6,20.2 232,20.2 				"/>
			</g>
		</g>
		<rect id="XMLID_25840_" x="0" class="st1" width="246" height="40.4"/>
		<polygon id="XMLID_25837_" class="st2" points="232,47.5 0,40.4 232,40.4 		"/>
		<rect id="XMLID_25836_" x="2.6" y="2.5" class="st3" width="240.8" height="35.3"/>
		<g id="XMLID_23732_">
			<g id="XMLID_572_">
				<path id="XMLID_605_" d="M57.6,27.9h-2.7l-1.1-2.8H49l-1,2.8h-2.6l4.7-12.2h2.6L57.6,27.9z M53,23.1l-1.7-4.5l-1.6,4.5H53z"/>
				<path id="XMLID_603_" d="M58.8,27.9V15.8h2.3v12.2H58.8z"/>
				<path id="XMLID_601_" d="M63.4,19.1h2.1v1.2c0.8-0.9,1.7-1.4,2.7-1.4c0.6,0,1.1,0.1,1.5,0.3s0.8,0.6,1,1.1
					c0.4-0.5,0.8-0.8,1.3-1.1s0.9-0.3,1.4-0.3c0.6,0,1.2,0.1,1.6,0.4s0.8,0.6,1,1.2c0.2,0.4,0.2,1,0.2,1.8v5.6H74v-5
					c0-0.9-0.1-1.4-0.2-1.7c-0.2-0.3-0.5-0.5-1-0.5c-0.3,0-0.6,0.1-0.9,0.3s-0.5,0.5-0.6,0.9s-0.2,1-0.2,1.8v4.2h-2.3v-4.8
					c0-0.9,0-1.4-0.1-1.7s-0.2-0.4-0.4-0.6c-0.2-0.1-0.4-0.2-0.7-0.2c-0.4,0-0.7,0.1-1,0.3s-0.5,0.5-0.6,0.8c-0.1,0.4-0.2,1-0.2,1.8
					v4.3h-2.3V19.1z"/>
				<path id="XMLID_598_" d="M80.4,21.8l-2.1-0.4c0.2-0.9,0.6-1.5,1.2-1.9s1.4-0.6,2.6-0.6c1,0,1.8,0.1,2.3,0.4s0.9,0.6,1.1,0.9
					c0.2,0.4,0.3,1.1,0.3,2.1l0,2.7c0,0.8,0,1.3,0.1,1.7c0.1,0.4,0.2,0.8,0.4,1.2H84c-0.1-0.2-0.1-0.4-0.2-0.7
					c0-0.1-0.1-0.2-0.1-0.3c-0.4,0.4-0.8,0.7-1.3,0.9C82,28,81.5,28.1,81,28.1c-0.9,0-1.6-0.2-2.1-0.7c-0.5-0.5-0.8-1.1-0.8-1.9
					c0-0.5,0.1-0.9,0.4-1.3c0.2-0.4,0.6-0.7,1-0.9c0.4-0.2,1-0.4,1.9-0.5c1.1-0.2,1.8-0.4,2.3-0.6V22c0-0.4-0.1-0.8-0.3-1
					c-0.2-0.2-0.6-0.3-1.3-0.3c-0.4,0-0.7,0.1-1,0.2S80.6,21.4,80.4,21.8z M83.5,23.7c-0.3,0.1-0.8,0.2-1.4,0.4
					c-0.6,0.1-1.1,0.3-1.3,0.4c-0.3,0.2-0.5,0.5-0.5,0.8c0,0.3,0.1,0.6,0.4,0.8c0.2,0.2,0.6,0.4,0.9,0.4c0.4,0,0.8-0.1,1.2-0.4
					c0.3-0.2,0.5-0.5,0.6-0.8c0.1-0.2,0.1-0.6,0.1-1.1V23.7z"/>
				<path id="XMLID_596_" d="M95.8,21.7l-2.3,0.4c-0.1-0.5-0.3-0.8-0.5-1c-0.3-0.2-0.6-0.3-1.1-0.3c-0.6,0-1,0.2-1.4,0.6
					c-0.3,0.4-0.5,1.1-0.5,2c0,1,0.2,1.8,0.5,2.2c0.4,0.4,0.8,0.6,1.4,0.6c0.4,0,0.8-0.1,1.1-0.4s0.5-0.7,0.6-1.3l2.3,0.4
					c-0.2,1.1-0.7,1.8-1.4,2.4c-0.7,0.5-1.6,0.8-2.7,0.8c-1.3,0-2.3-0.4-3.1-1.2c-0.8-0.8-1.1-1.9-1.1-3.4c0-1.5,0.4-2.6,1.2-3.4
					s1.8-1.2,3.1-1.2c1.1,0,1.9,0.2,2.6,0.7C95.1,20.1,95.5,20.8,95.8,21.7z"/>
				<path id="XMLID_593_" d="M102.7,25.1l2.3,0.4c-0.3,0.9-0.8,1.5-1.4,1.9c-0.6,0.4-1.5,0.7-2.4,0.7c-1.5,0-2.7-0.5-3.4-1.5
					c-0.6-0.8-0.9-1.8-0.9-3c0-1.5,0.4-2.6,1.1-3.4s1.7-1.2,2.9-1.2c1.3,0,2.3,0.4,3.1,1.3s1.1,2.2,1.1,4h-5.8
					c0,0.7,0.2,1.2,0.6,1.6s0.8,0.6,1.3,0.6c0.4,0,0.7-0.1,0.9-0.3S102.6,25.6,102.7,25.1z M102.8,22.8c0-0.7-0.2-1.2-0.5-1.5
					s-0.7-0.5-1.2-0.5c-0.5,0-0.9,0.2-1.3,0.6s-0.5,0.9-0.5,1.5H102.8z"/>
				<path id="XMLID_591_" d="M115.1,27.9h-2.3v-4.5c0-1,0-1.6-0.1-1.8s-0.3-0.5-0.5-0.7c-0.2-0.2-0.5-0.2-0.8-0.2
					c-0.4,0-0.8,0.1-1.1,0.3c-0.3,0.2-0.5,0.5-0.7,0.9c-0.1,0.4-0.2,1-0.2,2v4H107v-8.8h2.2v1.3c0.8-1,1.7-1.5,2.9-1.5
					c0.5,0,1,0.1,1.4,0.3s0.7,0.4,1,0.7c0.2,0.3,0.4,0.6,0.5,1c0.1,0.4,0.1,0.9,0.1,1.6V27.9z"/>
				<path id="XMLID_588_" d="M119.2,21.8l-2.1-0.4c0.2-0.9,0.6-1.5,1.2-1.9s1.4-0.6,2.6-0.6c1,0,1.8,0.1,2.3,0.4s0.9,0.6,1.1,0.9
					c0.2,0.4,0.3,1.1,0.3,2.1l0,2.7c0,0.8,0,1.3,0.1,1.7c0.1,0.4,0.2,0.8,0.4,1.2h-2.3c-0.1-0.2-0.1-0.4-0.2-0.7
					c0-0.1-0.1-0.2-0.1-0.3c-0.4,0.4-0.8,0.7-1.3,0.9c-0.5,0.2-0.9,0.3-1.5,0.3c-0.9,0-1.6-0.2-2.1-0.7c-0.5-0.5-0.8-1.1-0.8-1.9
					c0-0.5,0.1-0.9,0.4-1.3c0.2-0.4,0.6-0.7,1-0.9c0.4-0.2,1-0.4,1.9-0.5c1.1-0.2,1.8-0.4,2.3-0.6V22c0-0.4-0.1-0.8-0.3-1
					c-0.2-0.2-0.6-0.3-1.3-0.3c-0.4,0-0.7,0.1-1,0.2S119.3,21.4,119.2,21.8z M122.3,23.7c-0.3,0.1-0.8,0.2-1.4,0.4
					c-0.6,0.1-1.1,0.3-1.3,0.4c-0.3,0.2-0.5,0.5-0.5,0.8c0,0.3,0.1,0.6,0.4,0.8c0.2,0.2,0.6,0.4,0.9,0.4c0.4,0,0.8-0.1,1.2-0.4
					c0.3-0.2,0.5-0.5,0.6-0.8c0.1-0.2,0.1-0.6,0.1-1.1V23.7z"/>
				<path id="XMLID_586_" d="M126.7,19.1h2.1v1.2c0.8-0.9,1.7-1.4,2.7-1.4c0.6,0,1.1,0.1,1.5,0.3s0.8,0.6,1,1.1
					c0.4-0.5,0.8-0.8,1.3-1.1s0.9-0.3,1.4-0.3c0.6,0,1.2,0.1,1.6,0.4s0.8,0.6,1,1.2c0.2,0.4,0.2,1,0.2,1.8v5.6h-2.3v-5
					c0-0.9-0.1-1.4-0.2-1.7c-0.2-0.3-0.5-0.5-1-0.5c-0.3,0-0.6,0.1-0.9,0.3s-0.5,0.5-0.6,0.9s-0.2,1-0.2,1.8v4.2H132v-4.8
					c0-0.9,0-1.4-0.1-1.7s-0.2-0.4-0.4-0.6c-0.2-0.1-0.4-0.2-0.7-0.2c-0.4,0-0.7,0.1-1,0.3s-0.5,0.5-0.6,0.8c-0.1,0.4-0.2,1-0.2,1.8
					v4.3h-2.3V19.1z"/>
				<path id="XMLID_583_" d="M142,17.9v-2.2h2.3v2.2H142z M142,27.9v-8.8h2.3v8.8H142z"/>
				<path id="XMLID_580_" d="M151.8,25.1l2.3,0.4c-0.3,0.9-0.8,1.5-1.4,1.9c-0.6,0.4-1.5,0.7-2.4,0.7c-1.5,0-2.7-0.5-3.4-1.5
					c-0.6-0.8-0.9-1.8-0.9-3c0-1.5,0.4-2.6,1.1-3.4s1.7-1.2,2.9-1.2c1.3,0,2.3,0.4,3.1,1.3s1.1,2.2,1.1,4h-5.8
					c0,0.7,0.2,1.2,0.6,1.6s0.8,0.6,1.3,0.6c0.4,0,0.7-0.1,0.9-0.3S151.7,25.6,151.8,25.1z M152,22.8c0-0.7-0.2-1.2-0.5-1.5
					s-0.7-0.5-1.2-0.5c-0.5,0-0.9,0.2-1.3,0.6s-0.5,0.9-0.5,1.5H152z"/>
				<path id="XMLID_578_" d="M164.2,27.9h-2.3v-4.5c0-1,0-1.6-0.1-1.8s-0.3-0.5-0.5-0.7c-0.2-0.2-0.5-0.2-0.8-0.2
					c-0.4,0-0.8,0.1-1.1,0.3c-0.3,0.2-0.5,0.5-0.7,0.9c-0.1,0.4-0.2,1-0.2,2v4h-2.3v-8.8h2.2v1.3c0.8-1,1.7-1.5,2.9-1.5
					c0.5,0,1,0.1,1.4,0.3s0.7,0.4,1,0.7c0.2,0.3,0.4,0.6,0.5,1c0.1,0.4,0.1,0.9,0.1,1.6V27.9z"/>
				<path id="XMLID_576_" d="M170.6,19.1V21H169v3.6c0,0.7,0,1.1,0,1.3c0,0.1,0.1,0.2,0.2,0.3c0.1,0.1,0.2,0.1,0.4,0.1
					c0.2,0,0.5-0.1,0.9-0.2l0.2,1.8c-0.5,0.2-1.2,0.3-1.8,0.3c-0.4,0-0.8-0.1-1.1-0.2c-0.3-0.1-0.6-0.3-0.7-0.5
					c-0.2-0.2-0.3-0.5-0.3-0.9c0-0.3-0.1-0.8-0.1-1.6V21h-1.1v-1.9h1.1v-1.8L169,16v3.1H170.6z"/>
				<path id="XMLID_573_" d="M171.7,23.4c0-0.8,0.2-1.5,0.6-2.2c0.4-0.7,0.9-1.3,1.6-1.7c0.7-0.4,1.5-0.6,2.3-0.6
					c1.3,0,2.4,0.4,3.3,1.3s1.3,2,1.3,3.3c0,1.3-0.4,2.4-1.3,3.3c-0.9,0.9-1.9,1.3-3.2,1.3c-0.8,0-1.6-0.2-2.3-0.5
					c-0.7-0.4-1.3-0.9-1.7-1.6C171.9,25.3,171.7,24.4,171.7,23.4z M174.1,23.5c0,0.9,0.2,1.5,0.6,2s0.9,0.7,1.5,0.7s1.1-0.2,1.5-0.7
					c0.4-0.5,0.6-1.1,0.6-2c0-0.9-0.2-1.5-0.6-2c-0.4-0.5-0.9-0.7-1.5-0.7s-1.1,0.2-1.5,0.7S174.1,22.7,174.1,23.5z"/>
			</g>
		</g>
	</g>
	<g id="XMLID_25637_">
		<path id="XMLID_25674_" class="st4" d="M23.1,32.3c0,0.8-0.7,1.5-1.5,1.5c-0.8,0-1.5-0.7-1.5-1.5c0-0.8,0.7-1.5,1.5-1.5
			C22.4,30.8,23.1,31.5,23.1,32.3L23.1,32.3z M23.1,32.3"/>
		<path id="XMLID_25671_" class="st5" d="M33.1,32.3c0,0.8-0.7,1.5-1.5,1.5c-0.8,0-1.5-0.7-1.5-1.5c0-0.8,0.7-1.5,1.5-1.5
			C32.4,30.8,33.1,31.5,33.1,32.3L33.1,32.3z M33.1,32.3"/>
		<path id="XMLID_25668_" class="st5" d="M13.1,32.3c0,0.8-0.7,1.5-1.5,1.5c-0.8,0-1.5-0.7-1.5-1.5c0-0.8,0.7-1.5,1.5-1.5
			C12.4,30.8,13.1,31.5,13.1,32.3L13.1,32.3z M13.1,32.3"/>
		<path id="XMLID_25662_" d="M32.7,8.5c0-0.9-0.8-1.7-1.7-1.7H12.2c-0.9,0-1.7,0.8-1.7,1.7v3.9c0,0.5,0.2,0.9,0.5,1.2
			c-0.3,0.3-0.5,0.7-0.5,1.2v3.9c0,0.5,0.2,0.9,0.5,1.2c-0.3,0.3-0.5,0.7-0.5,1.2V25c0,0.9,0.8,1.7,1.7,1.7H31
			c0.9,0,1.7-0.8,1.7-1.7v-3.9c0-0.5-0.2-0.9-0.5-1.2c0.3-0.3,0.5-0.7,0.5-1.2v-3.9c0-0.5-0.2-0.9-0.5-1.2c0.3-0.3,0.5-0.7,0.5-1.2
			V8.5z M11.5,8.5c0-0.4,0.3-0.7,0.7-0.7H31c0.4,0,0.7,0.3,0.7,0.7v3.9c0,0.4-0.3,0.7-0.7,0.7H12.2c-0.4,0-0.7-0.3-0.7-0.7L11.5,8.5
			L11.5,8.5z M31.7,14.8v3.9c0,0.4-0.3,0.7-0.7,0.7H12.2c-0.4,0-0.7-0.3-0.7-0.7v-3.9c0-0.4,0.3-0.7,0.7-0.7H31
			C31.4,14.1,31.7,14.4,31.7,14.8L31.7,14.8z M31.7,25c0,0.4-0.3,0.7-0.7,0.7H12.2c-0.4,0-0.7-0.3-0.7-0.7v-3.9
			c0-0.4,0.3-0.7,0.7-0.7H31c0.4,0,0.7,0.3,0.7,0.7V25z M31.7,25"/>
		<path id="XMLID_25659_" d="M21.4,10.9h6.4c0.3,0,0.5-0.2,0.5-0.5c0-0.3-0.2-0.5-0.5-0.5h-6.4c-0.3,0-0.5,0.2-0.5,0.5
			C20.9,10.7,21.1,10.9,21.4,10.9L21.4,10.9z M21.4,10.9"/>
		<path id="XMLID_25656_" d="M16.8,10.4c0,0.3-0.3,0.6-0.6,0.6c-0.3,0-0.6-0.3-0.6-0.6c0-0.3,0.3-0.6,0.6-0.6
			C16.5,9.8,16.8,10.1,16.8,10.4L16.8,10.4z M16.8,10.4"/>
		<path id="XMLID_25653_" d="M21.4,17.2h6.4c0.3,0,0.5-0.2,0.5-0.5c0-0.3-0.2-0.5-0.5-0.5h-6.4c-0.3,0-0.5,0.2-0.5,0.5
			C20.9,17,21.1,17.2,21.4,17.2L21.4,17.2z M21.4,17.2"/>
		<path id="XMLID_25650_" d="M27.7,22.5h-6.4c-0.3,0-0.5,0.2-0.5,0.5c0,0.3,0.2,0.5,0.5,0.5h6.4c0.3,0,0.5-0.2,0.5-0.5
			C28.3,22.8,28,22.5,27.7,22.5L27.7,22.5z M27.7,22.5"/>
		<path id="XMLID_25647_" d="M16.8,16.7c0,0.3-0.3,0.6-0.6,0.6c-0.3,0-0.6-0.3-0.6-0.6c0-0.3,0.3-0.6,0.6-0.6
			C16.5,16.1,16.8,16.4,16.8,16.7L16.8,16.7z M16.8,16.7"/>
		<path id="XMLID_25644_" d="M16.8,23c0,0.3-0.3,0.6-0.6,0.6c-0.3,0-0.6-0.3-0.6-0.6c0-0.3,0.3-0.6,0.6-0.6
			C16.5,22.4,16.8,22.7,16.8,23L16.8,23z M16.8,23"/>
		<path id="XMLID_25638_" d="M31.6,30.3c-0.9,0-1.7,0.6-2,1.5h-6.1c-0.2-0.7-0.7-1.3-1.4-1.4v-1.6c0-0.3-0.2-0.5-0.5-0.5
			s-0.5,0.2-0.5,0.5v1.6c-0.7,0.2-1.3,0.7-1.4,1.4h-6.1c-0.2-0.9-1-1.5-2-1.5c-1.1,0-2,0.9-2,2s0.9,2,2,2c0.9,0,1.7-0.6,2-1.5h6.1
			c0.2,0.9,1,1.5,2,1.5c0.9,0,1.7-0.6,2-1.5h6.1c0.2,0.9,1,1.5,2,1.5c1.1,0,2-0.9,2-2S32.7,30.3,31.6,30.3L31.6,30.3z M11.6,33.3
			c-0.6,0-1-0.5-1-1c0-0.6,0.5-1,1-1c0.6,0,1,0.5,1,1C12.6,32.9,12.1,33.3,11.6,33.3L11.6,33.3z M21.6,33.3c-0.6,0-1-0.5-1-1
			c0-0.6,0.5-1,1-1c0.6,0,1,0.5,1,1C22.6,32.9,22.2,33.3,21.6,33.3L21.6,33.3z M31.6,33.3c-0.6,0-1-0.5-1-1c0-0.6,0.5-1,1-1
			c0.6,0,1,0.5,1,1C32.6,32.9,32.2,33.3,31.6,33.3L31.6,33.3z M31.6,33.3"/>
	</g>
</g>
</svg>
