<?xml version="1.0" encoding="utf-8"?>
<!-- Generator: Adobe Illustrator 19.0.0, SVG Export Plug-In . SVG Version: 6.00 Build 0)  -->
<svg version="1.1" id="Capa_1" xmlns="http://www.w3.org/2000/svg" xmlns:xlink="http://www.w3.org/1999/xlink" x="0px" y="0px"
	 viewBox="-126 404.3 341.5 33.6" style="enable-background:new -126 404.3 341.5 33.6;" xml:space="preserve">
<style type="text/css">
	.st0{fill:#FFFFFF;}
	.st1{fill:#3B86B1;}
</style>
<g>
	<polygon id="XMLID_179_" class="st0" points="188.8,437.5 202.9,421.1 188.8,404.8 200.7,404.8 214.8,421.1 200.7,437.5 	"/>
	<path id="XMLID_176_" class="st1" d="M200.5,405.3l13.7,15.8l-13.7,15.8h-10.6l13.1-15.2l0.6-0.7l-0.6-0.7l-13.1-15L200.5,405.3
		 M201,404.3h-13.2l14.5,16.8l-14.5,16.8H201l14.5-16.8L201,404.3L201,404.3z"/>
	<polygon id="XMLID_174_" class="st0" points="-111.3,437.5 -125.3,421.1 -111.3,404.8 -99.4,404.8 -113.4,421.1 -99.4,437.5 	"/>
	<path id="XMLID_171_" class="st1" d="M-100.4,405.3l-13.1,15.2l-0.6,0.7l0.6,0.7l13.1,15.2H-111l-13.7-16l13.7-15.8L-100.4,405.3
		 M-98.3,404.3h-13.2l-14.5,16.8l14.5,16.8h13.2l-14.5-16.8L-98.3,404.3L-98.3,404.3z"/>
	<polygon id="XMLID_121_" class="st0" points="-94,437.5 -108.1,421.1 -94,404.8 183.5,404.8 197.6,421.1 183.5,437.5 	"/>
	<path id="XMLID_73_" class="st1" d="M-93.8,405.3h277.1l13.7,15.8l-13.7,15.8H-93.8l-13.7-15.8L-93.8,405.3 M-94.3,404.3
		l-14.5,16.8l14.5,16.8h278l14.5-16.8l-14.5-16.8H-94.3L-94.3,404.3z"/>
</g>
<g>
	<g>
		<path class="st1" d="M-46.5,422.3l1.9-0.2c0.1,0.6,0.3,1.1,0.7,1.4s0.8,0.5,1.4,0.5s1.1-0.1,1.4-0.4s0.5-0.6,0.5-0.9
			c0-0.2-0.1-0.4-0.2-0.6s-0.4-0.3-0.7-0.4c-0.2-0.1-0.8-0.2-1.6-0.4c-1.1-0.3-1.8-0.6-2.2-1c-0.6-0.5-0.9-1.2-0.9-2
			c0-0.5,0.1-1,0.4-1.4s0.7-0.8,1.2-1s1.2-0.3,1.9-0.3c1.2,0,2.1,0.3,2.8,0.8c0.6,0.5,0.9,1.3,1,2.2l-2,0.1
			c-0.1-0.5-0.3-0.9-0.5-1.1s-0.7-0.3-1.2-0.3c-0.6,0-1,0.1-1.3,0.4c-0.2,0.2-0.3,0.4-0.3,0.6s0.1,0.4,0.3,0.6
			c0.2,0.2,0.9,0.4,1.8,0.7s1.7,0.5,2.1,0.7s0.8,0.6,1.1,1s0.4,0.9,0.4,1.6c0,0.6-0.2,1.1-0.5,1.6s-0.8,0.9-1.3,1.1
			c-0.6,0.2-1.3,0.4-2.1,0.4c-1.2,0-2.2-0.3-2.8-0.9S-46.5,423.4-46.5,422.3z"/>
		<path class="st1" d="M-33.8,418.5v1.5H-35v2.9c0,0.6,0,0.9,0,1s0.1,0.2,0.2,0.2c0.1,0.1,0.2,0.1,0.3,0.1c0.2,0,0.4-0.1,0.8-0.2
			l0.2,1.5c-0.4,0.2-0.9,0.3-1.5,0.3c-0.3,0-0.6-0.1-0.9-0.2c-0.3-0.1-0.5-0.3-0.6-0.4s-0.2-0.4-0.3-0.7c0-0.2-0.1-0.7-0.1-1.3v-3.1
			h-0.9v-1.5h0.9v-1.4l1.9-1.1v2.5L-33.8,418.5L-33.8,418.5z"/>
		<path class="st1" d="M-32.9,421.9c0-0.6,0.2-1.2,0.5-1.8c0.3-0.6,0.7-1,1.3-1.3s1.2-0.5,1.9-0.5c1.1,0,1.9,0.3,2.6,1
			c0.7,0.7,1,1.6,1,2.6c0,1.1-0.3,2-1,2.7s-1.6,1.1-2.6,1.1c-0.6,0-1.3-0.1-1.9-0.4c-0.6-0.3-1-0.7-1.3-1.3
			C-32.7,423.4-32.9,422.7-32.9,421.9z M-31,422c0,0.7,0.2,1.2,0.5,1.6s0.7,0.6,1.2,0.6s0.9-0.2,1.2-0.6s0.5-0.9,0.5-1.6
			s-0.2-1.2-0.5-1.6s-0.7-0.6-1.2-0.6s-0.9,0.2-1.2,0.6S-31,421.3-31,422z"/>
		<path class="st1" d="M-22.3,425.5h-1.9v-7.1h1.7v1c0.3-0.5,0.6-0.8,0.8-0.9c0.2-0.2,0.5-0.2,0.8-0.2c0.4,0,0.8,0.1,1.2,0.4
			l-0.6,1.6c-0.3-0.2-0.6-0.3-0.9-0.3c-0.3,0-0.5,0.1-0.7,0.2s-0.3,0.4-0.4,0.8c-0.1,0.4-0.2,1.2-0.2,2.4v2.1H-22.3z"/>
		<path class="st1" d="M-17.4,420.6l-1.7-0.3c0.2-0.7,0.5-1.2,1-1.5s1.2-0.5,2.1-0.5c0.8,0,1.5,0.1,1.9,0.3c0.4,0.2,0.7,0.4,0.9,0.8
			c0.2,0.3,0.2,0.9,0.2,1.7v2.2c0,0.6,0,1.1,0.1,1.4s0.2,0.6,0.3,0.9h-1.9c0-0.1-0.1-0.3-0.2-0.6c0-0.1-0.1-0.2-0.1-0.2
			c-0.3,0.3-0.7,0.5-1,0.7c-0.4,0.2-0.8,0.2-1.2,0.2c-0.7,0-1.3-0.2-1.7-0.6s-0.6-0.9-0.6-1.5c0-0.4,0.1-0.8,0.3-1.1
			c0.2-0.3,0.5-0.6,0.8-0.7c0.3-0.2,0.8-0.3,1.5-0.4c0.9-0.2,1.5-0.3,1.8-0.5v-0.2c0-0.4-0.1-0.6-0.3-0.8c-0.2-0.2-0.5-0.2-1-0.2
			c-0.3,0-0.6,0.1-0.8,0.2C-17.2,420.1-17.3,420.3-17.4,420.6z M-14.9,422.1c-0.2,0.1-0.6,0.2-1.1,0.3c-0.5,0.1-0.9,0.2-1,0.3
			c-0.2,0.2-0.4,0.4-0.4,0.7c0,0.3,0.1,0.5,0.3,0.7s0.4,0.3,0.7,0.3s0.7-0.1,1-0.3c0.2-0.2,0.4-0.4,0.4-0.6s0.1-0.5,0.1-0.9V422.1z"
			/>
		<path class="st1" d="M-11.4,426l2.1,0.3c0,0.2,0.1,0.4,0.2,0.5c0.2,0.1,0.5,0.2,0.8,0.2c0.5,0,0.9-0.1,1.1-0.2s0.3-0.3,0.4-0.5
			s0.1-0.4,0.1-0.9v-1c-0.6,0.8-1.3,1.1-2.1,1.1c-1,0-1.7-0.4-2.3-1.2c-0.4-0.6-0.7-1.4-0.7-2.4c0-1.2,0.3-2.1,0.9-2.7
			s1.3-0.9,2.1-0.9c0.9,0,1.6,0.4,2.2,1.2v-1h1.8v6.3c0,0.8-0.1,1.5-0.2,1.9s-0.3,0.7-0.6,1c-0.2,0.2-0.6,0.4-1,0.6
			c-0.4,0.1-0.9,0.2-1.6,0.2c-1.2,0-2-0.2-2.6-0.6c-0.5-0.4-0.8-0.9-0.8-1.6C-11.4,426.2-11.4,426.1-11.4,426z M-9.7,421.8
			c0,0.8,0.1,1.3,0.4,1.6c0.3,0.3,0.6,0.5,1.1,0.5s0.8-0.2,1.2-0.5c0.3-0.4,0.5-0.9,0.5-1.6s-0.2-1.3-0.5-1.6
			c-0.3-0.4-0.7-0.5-1.1-0.5c-0.4,0-0.8,0.2-1.1,0.5C-9.5,420.6-9.7,421.1-9.7,421.8z"/>
		<path class="st1" d="M1.3,423.3l1.9,0.3c-0.2,0.7-0.6,1.2-1.1,1.6s-1.2,0.5-1.9,0.5c-1.2,0-2.1-0.4-2.7-1.2
			c-0.5-0.6-0.7-1.5-0.7-2.4c0-1.2,0.3-2.1,0.9-2.8c0.6-0.7,1.4-1,2.3-1c1.1,0,1.9,0.3,2.5,1s0.9,1.8,0.9,3.2h-4.7
			c0,0.6,0.2,1,0.5,1.3s0.6,0.5,1.1,0.5c0.3,0,0.5-0.1,0.7-0.2S1.1,423.6,1.3,423.3z M1.3,421.4c0-0.5-0.2-1-0.4-1.2
			c-0.3-0.3-0.6-0.4-1-0.4s-0.7,0.1-1,0.4s-0.4,0.7-0.4,1.2H1.3z"/>
		<path class="st1" d="M16.8,425.5h-2.1l-0.9-2.2H10l-0.8,2.2H7l3.8-9.8h2.1L16.8,425.5z M13.2,421.7l-1.3-3.6l-1.3,3.6H13.2z"/>
		<path class="st1" d="M19.6,425.5h-1.9v-7.1h1.7v1c0.3-0.5,0.6-0.8,0.8-0.9c0.2-0.2,0.5-0.2,0.8-0.2c0.4,0,0.8,0.1,1.2,0.4
			l-0.6,1.6c-0.3-0.2-0.6-0.3-0.9-0.3c-0.3,0-0.5,0.1-0.7,0.2c-0.2,0.1-0.3,0.4-0.4,0.8c-0.1,0.4-0.2,1.2-0.2,2.4v2.1H19.6z"/>
		<path class="st1" d="M27.3,423.3l1.9,0.3c-0.2,0.7-0.6,1.2-1.1,1.6s-1.2,0.5-1.9,0.5c-1.2,0-2.1-0.4-2.7-1.2
			c-0.5-0.6-0.7-1.5-0.7-2.4c0-1.2,0.3-2.1,0.9-2.8c0.6-0.7,1.4-1,2.3-1c1.1,0,1.9,0.3,2.5,1s0.9,1.8,0.9,3.2h-4.8
			c0,0.6,0.2,1,0.5,1.3s0.6,0.5,1.1,0.5c0.3,0,0.5-0.1,0.7-0.2C27,423.9,27.1,423.6,27.3,423.3z M27.3,421.4c0-0.5-0.2-1-0.4-1.2
			c-0.3-0.3-0.6-0.4-1-0.4s-0.7,0.1-1,0.4c-0.3,0.3-0.4,0.7-0.4,1.2H27.3z"/>
		<path class="st1" d="M32.2,420.6l-1.7-0.3c0.2-0.7,0.5-1.2,1-1.5s1.2-0.5,2.1-0.5c0.8,0,1.5,0.1,1.9,0.3c0.4,0.2,0.7,0.4,0.9,0.8
			c0.2,0.3,0.2,0.9,0.2,1.7v2.2c0,0.6,0,1.1,0.1,1.4c0.1,0.3,0.2,0.6,0.3,0.9H35c0-0.1-0.1-0.3-0.2-0.6c0-0.1-0.1-0.2-0.1-0.2
			c-0.3,0.3-0.7,0.5-1,0.7c-0.3,0.2-0.8,0.2-1.2,0.2c-0.7,0-1.3-0.2-1.7-0.6c-0.4-0.4-0.6-0.9-0.6-1.5c0-0.4,0.1-0.8,0.3-1.1
			c0.2-0.3,0.5-0.6,0.8-0.7c0.3-0.2,0.8-0.3,1.5-0.4c0.9-0.2,1.5-0.3,1.8-0.5v-0.2c0-0.4-0.1-0.6-0.3-0.8c-0.2-0.2-0.5-0.2-1-0.2
			c-0.3,0-0.6,0.1-0.8,0.2S32.3,420.3,32.2,420.6z M34.7,422.1c-0.2,0.1-0.6,0.2-1.1,0.3c-0.5,0.1-0.9,0.2-1,0.3
			c-0.2,0.2-0.4,0.4-0.4,0.7c0,0.3,0.1,0.5,0.3,0.7s0.4,0.3,0.7,0.3c0.3,0,0.7-0.1,1-0.3c0.2-0.2,0.4-0.4,0.4-0.6s0.1-0.5,0.1-0.9
			V422.1z"/>
		<path class="st1" d="M42.2,425.5v-9.8H44l4,6.5v-6.5h1.8v9.8h-2l-3.9-6.4v6.4H42.2z"/>
		<path class="st1" d="M56,423.3l1.9,0.3c-0.2,0.7-0.6,1.2-1.1,1.6s-1.2,0.5-1.9,0.5c-1.2,0-2.1-0.4-2.7-1.2
			c-0.5-0.6-0.7-1.5-0.7-2.4c0-1.2,0.3-2.1,0.9-2.8c0.6-0.7,1.4-1,2.3-1c1.1,0,1.9,0.3,2.5,1s0.9,1.8,0.9,3.2h-4.7
			c0,0.6,0.2,1,0.5,1.3s0.6,0.5,1.1,0.5c0.3,0,0.5-0.1,0.7-0.2C55.8,423.9,55.9,423.6,56,423.3z M56.1,421.4c0-0.5-0.2-1-0.4-1.2
			c-0.3-0.3-0.6-0.4-1-0.4c-0.4,0-0.7,0.1-1,0.4c-0.3,0.3-0.4,0.7-0.4,1.2H56.1z"/>
		<path class="st1" d="M62.8,418.5v1.5h-1.3v2.9c0,0.6,0,0.9,0,1s0.1,0.2,0.2,0.2c0.1,0.1,0.2,0.1,0.3,0.1c0.2,0,0.4-0.1,0.8-0.2
			l0.2,1.5c-0.4,0.2-0.9,0.3-1.5,0.3c-0.3,0-0.6-0.1-0.9-0.2c-0.3-0.1-0.5-0.3-0.6-0.4c-0.1-0.2-0.2-0.4-0.3-0.7
			c0-0.2-0.1-0.7-0.1-1.3v-3.1h-0.9v-1.5h0.9v-1.4l1.9-1.1v2.5L62.8,418.5L62.8,418.5z"/>
		<path class="st1" d="M65.4,425.5l-2.2-7.1h1.8l1.3,4.6l1.2-4.6h1.8l1.2,4.6l1.4-4.6h1.8l-2.3,7.1h-1.8l-1.2-4.5l-1.2,4.5H65.4z"/>
		<path class="st1" d="M74.3,421.9c0-0.6,0.2-1.2,0.5-1.8c0.3-0.6,0.7-1,1.3-1.3c0.6-0.3,1.2-0.5,1.9-0.5c1.1,0,1.9,0.3,2.6,1
			s1,1.6,1,2.6c0,1.1-0.3,2-1,2.7c-0.7,0.7-1.6,1.1-2.6,1.1c-0.6,0-1.3-0.1-1.9-0.4c-0.6-0.3-1-0.7-1.3-1.3
			C74.4,423.4,74.3,422.7,74.3,421.9z M76.1,422c0,0.7,0.2,1.2,0.5,1.6c0.3,0.4,0.7,0.6,1.2,0.6s0.9-0.2,1.2-0.6
			c0.3-0.4,0.5-0.9,0.5-1.6s-0.2-1.2-0.5-1.6c-0.3-0.4-0.7-0.6-1.2-0.6s-0.9,0.2-1.2,0.6C76.3,420.8,76.1,421.3,76.1,422z"/>
		<path class="st1" d="M84.8,425.5h-1.9v-7.1h1.7v1c0.3-0.5,0.6-0.8,0.8-0.9c0.2-0.2,0.5-0.2,0.8-0.2c0.4,0,0.8,0.1,1.2,0.4
			l-0.6,1.6c-0.3-0.2-0.6-0.3-0.9-0.3s-0.5,0.1-0.7,0.2c-0.2,0.1-0.3,0.4-0.4,0.8c-0.1,0.4-0.2,1.2-0.2,2.4v2.1H84.8z"/>
		<path class="st1" d="M88.3,425.5v-9.8h1.9v5.2l2.2-2.5h2.3l-2.4,2.6l2.6,4.5h-2l-1.8-3.2l-0.9,0.9v2.3H88.3z"/>
		<path class="st1" d="M102.9,428.4h-1.3c-0.7-1-1.2-2.1-1.6-3.2c-0.4-1.1-0.5-2.2-0.5-3.2c0-1.3,0.2-2.5,0.7-3.6
			c0.4-1,0.9-1.9,1.5-2.8h1.3c-0.6,1.3-1,2.5-1.3,3.4s-0.3,1.9-0.3,3c0,0.7,0.1,1.5,0.2,2.2c0.1,0.7,0.3,1.5,0.6,2.2
			C102.1,426.9,102.4,427.5,102.9,428.4z"/>
		<path class="st1" d="M103.8,422.3l1.9-0.2c0.1,0.6,0.3,1.1,0.7,1.4s0.8,0.5,1.4,0.5c0.6,0,1.1-0.1,1.4-0.4s0.5-0.6,0.5-0.9
			c0-0.2-0.1-0.4-0.2-0.6c-0.1-0.2-0.4-0.3-0.7-0.4c-0.2-0.1-0.8-0.2-1.6-0.4c-1.1-0.3-1.8-0.6-2.2-1c-0.6-0.5-0.9-1.2-0.9-2
			c0-0.5,0.1-1,0.4-1.4s0.7-0.8,1.2-1s1.2-0.3,1.9-0.3c1.2,0,2.1,0.3,2.8,0.8c0.7,0.5,0.9,1.3,1,2.2l-2,0.1
			c-0.1-0.5-0.3-0.9-0.5-1.1c-0.3-0.2-0.7-0.3-1.2-0.3c-0.6,0-1,0.1-1.3,0.4c-0.2,0.2-0.3,0.4-0.3,0.6s0.1,0.4,0.3,0.6
			s0.9,0.4,1.8,0.7c0.9,0.3,1.7,0.5,2.1,0.7c0.5,0.2,0.8,0.6,1.1,1c0.3,0.4,0.4,0.9,0.4,1.6c0,0.6-0.2,1.1-0.5,1.6s-0.8,0.9-1.3,1.1
			c-0.6,0.2-1.3,0.4-2.1,0.4c-1.2,0-2.2-0.3-2.8-0.9C104.4,424.3,103.9,423.4,103.8,422.3z"/>
		<path class="st1" d="M122.1,425.5h-2.1l-0.9-2.2h-3.9l-0.8,2.2h-2.1l3.8-9.8h2.1L122.1,425.5z M118.6,421.7l-1.3-3.6l-1.3,3.6
			H118.6z"/>
		<path class="st1" d="M123.3,425.5v-9.8h1.9l4,6.5v-6.5h1.8v9.8h-2l-3.9-6.3v6.4h-1.8V425.5z"/>
		<path class="st1" d="M132.6,428.4c0.4-0.8,0.6-1.4,0.8-1.8c0.2-0.4,0.3-0.9,0.4-1.5c0.1-0.6,0.2-1.1,0.3-1.6s0.1-1,0.1-1.5
			c0-1.1-0.1-2.1-0.3-3c-0.2-0.9-0.6-2.1-1.3-3.4h1.3c0.7,1,1.2,2,1.6,3c0.4,1.1,0.6,2.2,0.6,3.3c0,0.9-0.1,1.9-0.4,3
			c-0.3,1.2-0.9,2.4-1.6,3.5H132.6z"/>
	</g>
</g>
</svg>
