<?xml version="1.0" encoding="utf-8"?>
<!-- Generator: Adobe Illustrator 19.0.0, SVG Export Plug-In . SVG Version: 6.00 Build 0)  -->
<svg version="1.1" id="Capa_1" xmlns="http://www.w3.org/2000/svg" xmlns:xlink="http://www.w3.org/1999/xlink" x="0px" y="0px"
	 viewBox="-126 404.3 341.5 33.6" style="enable-background:new -126 404.3 341.5 33.6;" xml:space="preserve">
<style type="text/css">
	.st0{fill:#FFFFFF;}
	.st1{fill:#3B86B1;}
	.st2{enable-background:new    ;}
</style>
<g>
	<polygon id="XMLID_179_" class="st0" points="188.8,437.5 202.9,421.1 188.8,404.8 200.7,404.8 214.8,421.1 200.7,437.5 	"/>
	<path id="XMLID_176_" class="st1" d="M200.5,405.3l13.7,15.8l-13.7,15.8h-10.6l13.1-15.2l0.6-0.7l-0.6-0.7l-13.1-15L200.5,405.3
		 M201,404.3h-13.2l14.5,16.8l-14.5,16.8H201l14.5-16.8L201,404.3L201,404.3z"/>
	<polygon id="XMLID_174_" class="st0" points="-111.3,437.5 -125.3,421.1 -111.3,404.8 -99.4,404.8 -113.4,421.1 -99.4,437.5 	"/>
	<path id="XMLID_171_" class="st1" d="M-100.4,405.3l-13.1,15.2l-0.6,0.7l0.6,0.7l13.1,15.2H-111l-13.7-16l13.7-15.8L-100.4,405.3
		 M-98.3,404.3h-13.2l-14.5,16.8l14.5,16.8h13.2l-14.5-16.8L-98.3,404.3L-98.3,404.3z"/>
	<polygon id="XMLID_121_" class="st0" points="-94,437.5 -108.1,421.1 -94,404.8 183.5,404.8 197.6,421.1 183.5,437.5 	"/>
	<path id="XMLID_73_" class="st1" d="M-93.8,405.3h277.1l13.7,15.8l-13.7,15.8H-93.8l-13.7-15.8L-93.8,405.3 M-94.3,404.3
		l-14.5,16.8l14.5,16.8h278l14.5-16.8l-14.5-16.8H-94.3L-94.3,404.3z"/>
</g>
<g id="XMLID_13986_">
	<g class="st2">
		<path class="st1" d="M-60.3,426.4v-9.8h1.9l4,6.5v-6.5h1.8v9.8h-2l-3.9-6.4v6.4H-60.3z"/>
		<path class="st1" d="M-46.4,424.2l1.9,0.3c-0.2,0.7-0.6,1.2-1.1,1.6s-1.2,0.5-1.9,0.5c-1.2,0-2.1-0.4-2.7-1.2
			c-0.5-0.6-0.7-1.5-0.7-2.4c0-1.2,0.3-2.1,0.9-2.8c0.6-0.7,1.4-1,2.3-1c1.1,0,1.9,0.3,2.5,1c0.6,0.7,0.9,1.8,0.9,3.2h-4.7
			c0,0.6,0.2,1,0.5,1.3s0.6,0.5,1.1,0.5c0.3,0,0.5-0.1,0.7-0.2S-46.5,424.5-46.4,424.2z M-46.3,422.3c0-0.5-0.2-1-0.4-1.2
			c-0.3-0.3-0.6-0.4-1-0.4c-0.4,0-0.7,0.1-1,0.4c-0.3,0.3-0.4,0.7-0.4,1.2H-46.3z"/>
		<path class="st1" d="M-39.7,419.3v1.5H-41v2.9c0,0.6,0,0.9,0,1c0,0.1,0.1,0.2,0.2,0.2c0.1,0.1,0.2,0.1,0.3,0.1
			c0.2,0,0.4-0.1,0.8-0.2l0.2,1.5c-0.4,0.2-0.9,0.3-1.5,0.3c-0.3,0-0.6-0.1-0.9-0.2c-0.3-0.1-0.5-0.3-0.6-0.4s-0.2-0.4-0.3-0.7
			c0-0.2-0.1-0.7-0.1-1.3v-3.1h-0.9v-1.5h0.9v-1.4l1.9-1.1v2.5H-39.7z"/>
		<path class="st1" d="M-37.1,426.4l-2.2-7.1h1.8l1.3,4.6l1.2-4.6h1.8l1.2,4.6l1.4-4.6h1.8l-2.3,7.1h-1.8l-1.2-4.5l-1.2,4.5H-37.1z"
			/>
		<path class="st1" d="M-28.2,422.8c0-0.6,0.2-1.2,0.5-1.8c0.3-0.6,0.7-1,1.3-1.3c0.6-0.3,1.2-0.5,1.9-0.5c1.1,0,1.9,0.3,2.6,1
			c0.7,0.7,1,1.6,1,2.6c0,1.1-0.3,2-1,2.7c-0.7,0.7-1.6,1.1-2.6,1.1c-0.6,0-1.3-0.1-1.9-0.4c-0.6-0.3-1-0.7-1.3-1.3
			C-28.1,424.3-28.2,423.6-28.2,422.8z M-26.3,422.9c0,0.7,0.2,1.2,0.5,1.6s0.7,0.6,1.2,0.6s0.9-0.2,1.2-0.6
			c0.3-0.4,0.5-0.9,0.5-1.6c0-0.7-0.2-1.2-0.5-1.6c-0.3-0.4-0.7-0.6-1.2-0.6s-0.9,0.2-1.2,0.6S-26.3,422.2-26.3,422.9z"/>
		<path class="st1" d="M-17.7,426.4h-1.9v-7.1h1.7v1c0.3-0.5,0.6-0.8,0.8-0.9c0.2-0.2,0.5-0.2,0.8-0.2c0.4,0,0.8,0.1,1.2,0.4
			l-0.6,1.6c-0.3-0.2-0.6-0.3-0.9-0.3c-0.3,0-0.5,0.1-0.7,0.2c-0.2,0.1-0.3,0.4-0.4,0.8c-0.1,0.4-0.2,1.2-0.2,2.4V426.4z"/>
		<path class="st1" d="M-14.2,426.4v-9.8h1.9v5.2l2.2-2.5h2.3l-2.4,2.6l2.6,4.5h-2l-1.8-3.2l-0.9,0.9v2.3H-14.2z"/>
		<path class="st1" d="M5.5,426.4H3.4l-0.9-2.2h-3.9l-0.8,2.2h-2.1l3.8-9.8h2.1L5.5,426.4z M1.9,422.6l-1.3-3.6l-1.3,3.6H1.9z"/>
		<path class="st1" d="M9.8,419.3v1.5H8.5v2.9c0,0.6,0,0.9,0,1c0,0.1,0.1,0.2,0.2,0.2c0.1,0.1,0.2,0.1,0.3,0.1
			c0.2,0,0.4-0.1,0.8-0.2l0.2,1.5c-0.4,0.2-0.9,0.3-1.5,0.3c-0.3,0-0.6-0.1-0.9-0.2c-0.3-0.1-0.5-0.3-0.6-0.4s-0.2-0.4-0.3-0.7
			c0-0.2-0.1-0.7-0.1-1.3v-3.1H5.8v-1.5h0.9v-1.4l1.9-1.1v2.5H9.8z"/>
		<path class="st1" d="M14.4,419.3v1.5h-1.3v2.9c0,0.6,0,0.9,0,1c0,0.1,0.1,0.2,0.2,0.2c0.1,0.1,0.2,0.1,0.3,0.1
			c0.2,0,0.4-0.1,0.8-0.2l0.2,1.5c-0.4,0.2-0.9,0.3-1.5,0.3c-0.3,0-0.6-0.1-0.9-0.2c-0.3-0.1-0.5-0.3-0.6-0.4s-0.2-0.4-0.3-0.7
			c0-0.2-0.1-0.7-0.1-1.3v-3.1h-0.9v-1.5h0.9v-1.4l1.9-1.1v2.5H14.4z"/>
		<path class="st1" d="M17.1,421.5l-1.7-0.3c0.2-0.7,0.5-1.2,1-1.5c0.5-0.3,1.2-0.5,2.1-0.5c0.8,0,1.5,0.1,1.9,0.3
			c0.4,0.2,0.7,0.4,0.9,0.8c0.2,0.3,0.2,0.9,0.2,1.7l0,2.2c0,0.6,0,1.1,0.1,1.4c0.1,0.3,0.2,0.6,0.3,0.9H20c0-0.1-0.1-0.3-0.2-0.6
			c0-0.1-0.1-0.2-0.1-0.2c-0.3,0.3-0.7,0.5-1,0.7c-0.4,0.2-0.8,0.2-1.2,0.2c-0.7,0-1.3-0.2-1.7-0.6c-0.4-0.4-0.6-0.9-0.6-1.5
			c0-0.4,0.1-0.8,0.3-1.1c0.2-0.3,0.5-0.6,0.8-0.7c0.3-0.2,0.8-0.3,1.5-0.4c0.9-0.2,1.5-0.3,1.8-0.5v-0.2c0-0.4-0.1-0.6-0.3-0.8
			c-0.2-0.2-0.5-0.2-1-0.2c-0.3,0-0.6,0.1-0.8,0.2C17.3,420.9,17.2,421.2,17.1,421.5z M19.6,423c-0.2,0.1-0.6,0.2-1.1,0.3
			c-0.5,0.1-0.9,0.2-1,0.3c-0.2,0.2-0.4,0.4-0.4,0.7c0,0.3,0.1,0.5,0.3,0.7c0.2,0.2,0.4,0.3,0.7,0.3c0.3,0,0.7-0.1,1-0.3
			c0.2-0.2,0.4-0.4,0.4-0.6c0-0.2,0.1-0.5,0.1-0.9V423z"/>
		<path class="st1" d="M29.4,421.4l-1.8,0.3c-0.1-0.4-0.2-0.6-0.4-0.8s-0.5-0.3-0.9-0.3c-0.5,0-0.8,0.2-1.1,0.5
			c-0.3,0.3-0.4,0.9-0.4,1.6c0,0.8,0.1,1.4,0.4,1.8c0.3,0.3,0.7,0.5,1.1,0.5c0.4,0,0.6-0.1,0.9-0.3s0.4-0.5,0.5-1l1.8,0.3
			c-0.2,0.8-0.6,1.5-1.1,1.9c-0.5,0.4-1.3,0.6-2.2,0.6c-1,0-1.9-0.3-2.5-1c-0.6-0.7-0.9-1.6-0.9-2.7c0-1.2,0.3-2.1,0.9-2.7
			s1.5-1,2.5-1c0.9,0,1.5,0.2,2.1,0.6C28.8,420.1,29.2,420.7,29.4,421.4z"/>
		<path class="st1" d="M32.7,416.7v3.6c0.6-0.7,1.3-1.1,2.2-1.1c0.4,0,0.8,0.1,1.2,0.2c0.3,0.2,0.6,0.4,0.8,0.6
			c0.2,0.2,0.3,0.5,0.4,0.8s0.1,0.8,0.1,1.4v4.1h-1.9v-3.7c0-0.7,0-1.2-0.1-1.4c-0.1-0.2-0.2-0.4-0.4-0.5c-0.2-0.1-0.4-0.2-0.7-0.2
			c-0.3,0-0.6,0.1-0.8,0.2c-0.2,0.2-0.4,0.4-0.5,0.7c-0.1,0.3-0.2,0.8-0.2,1.3v3.5h-1.9v-9.8H32.7z"/>
		<path class="st1" d="M43.3,424.2l1.9,0.3c-0.2,0.7-0.6,1.2-1.1,1.6s-1.2,0.5-1.9,0.5c-1.2,0-2.1-0.4-2.7-1.2
			c-0.5-0.6-0.7-1.5-0.7-2.4c0-1.2,0.3-2.1,0.9-2.8c0.6-0.7,1.4-1,2.3-1c1.1,0,1.9,0.3,2.5,1c0.6,0.7,0.9,1.8,0.9,3.2h-4.7
			c0,0.6,0.2,1,0.5,1.3s0.6,0.5,1.1,0.5c0.3,0,0.5-0.1,0.7-0.2S43.2,424.5,43.3,424.2z M43.4,422.3c0-0.5-0.2-1-0.4-1.2
			c-0.3-0.3-0.6-0.4-1-0.4c-0.4,0-0.7,0.1-1,0.4c-0.3,0.3-0.4,0.7-0.4,1.2H43.4z"/>
		<path class="st1" d="M53.2,426.4h-1.7v-1c-0.3,0.4-0.6,0.7-1,0.9s-0.8,0.3-1.2,0.3c-0.8,0-1.5-0.3-2.1-1c-0.6-0.7-0.9-1.6-0.9-2.7
			c0-1.2,0.3-2.1,0.8-2.7c0.6-0.6,1.3-0.9,2.1-0.9c0.8,0,1.5,0.3,2.1,1v-3.5h1.9V426.4z M48.2,422.7c0,0.8,0.1,1.3,0.3,1.6
			c0.3,0.5,0.7,0.7,1.3,0.7c0.4,0,0.8-0.2,1.1-0.5c0.3-0.4,0.5-0.9,0.5-1.6c0-0.8-0.1-1.4-0.4-1.8s-0.7-0.5-1.1-0.5
			c-0.4,0-0.8,0.2-1.1,0.5C48.4,421.5,48.2,422,48.2,422.7z"/>
		<path class="st1" d="M58.4,423.2l1.9-0.2c0.1,0.6,0.3,1.1,0.7,1.4c0.4,0.3,0.8,0.5,1.4,0.5c0.6,0,1.1-0.1,1.4-0.4
			c0.3-0.3,0.5-0.6,0.5-0.9c0-0.2-0.1-0.4-0.2-0.6c-0.1-0.2-0.4-0.3-0.7-0.4c-0.2-0.1-0.8-0.2-1.6-0.4c-1.1-0.3-1.8-0.6-2.2-1
			c-0.6-0.5-0.9-1.2-0.9-2c0-0.5,0.1-1,0.4-1.4c0.3-0.4,0.7-0.8,1.2-1s1.2-0.3,1.9-0.3c1.2,0,2.1,0.3,2.8,0.8s0.9,1.3,1,2.2l-2,0.1
			c-0.1-0.5-0.3-0.9-0.5-1.1s-0.7-0.3-1.2-0.3c-0.6,0-1,0.1-1.3,0.4c-0.2,0.2-0.3,0.4-0.3,0.6c0,0.2,0.1,0.4,0.3,0.6
			c0.2,0.2,0.9,0.4,1.8,0.7s1.7,0.5,2.1,0.7c0.5,0.2,0.8,0.6,1.1,1c0.3,0.4,0.4,0.9,0.4,1.6c0,0.6-0.2,1.1-0.5,1.6
			c-0.3,0.5-0.8,0.9-1.3,1.1c-0.6,0.2-1.3,0.4-2.1,0.4c-1.2,0-2.2-0.3-2.8-0.9C58.9,425.2,58.5,424.3,58.4,423.2z"/>
		<path class="st1" d="M71.2,419.3v1.5h-1.3v2.9c0,0.6,0,0.9,0,1c0,0.1,0.1,0.2,0.2,0.2c0.1,0.1,0.2,0.1,0.3,0.1
			c0.2,0,0.4-0.1,0.8-0.2l0.2,1.5c-0.4,0.2-0.9,0.3-1.5,0.3c-0.3,0-0.6-0.1-0.9-0.2c-0.3-0.1-0.5-0.3-0.6-0.4
			c-0.1-0.2-0.2-0.4-0.3-0.7c0-0.2-0.1-0.7-0.1-1.3v-3.1h-0.9v-1.5h0.9v-1.4l1.9-1.1v2.5H71.2z"/>
		<path class="st1" d="M72.1,422.8c0-0.6,0.2-1.2,0.5-1.8c0.3-0.6,0.7-1,1.3-1.3c0.6-0.3,1.2-0.5,1.9-0.5c1.1,0,1.9,0.3,2.6,1
			c0.7,0.7,1,1.6,1,2.6c0,1.1-0.3,2-1,2.7c-0.7,0.7-1.6,1.1-2.6,1.1c-0.6,0-1.3-0.1-1.9-0.4s-1-0.7-1.3-1.3S72.1,423.6,72.1,422.8z
			 M74,422.9c0,0.7,0.2,1.2,0.5,1.6s0.7,0.6,1.2,0.6s0.9-0.2,1.2-0.6c0.3-0.4,0.5-0.9,0.5-1.6c0-0.7-0.2-1.2-0.5-1.6
			c-0.3-0.4-0.7-0.6-1.2-0.6s-0.9,0.2-1.2,0.6S74,422.2,74,422.9z"/>
		<path class="st1" d="M82.6,426.4h-1.9v-7.1h1.7v1c0.3-0.5,0.6-0.8,0.8-0.9c0.2-0.2,0.5-0.2,0.8-0.2c0.4,0,0.8,0.1,1.2,0.4
			l-0.6,1.6c-0.3-0.2-0.6-0.3-0.9-0.3c-0.3,0-0.5,0.1-0.7,0.2c-0.2,0.1-0.3,0.4-0.4,0.8c-0.1,0.4-0.2,1.2-0.2,2.4V426.4z"/>
		<path class="st1" d="M87.5,421.5l-1.7-0.3c0.2-0.7,0.5-1.2,1-1.5c0.5-0.3,1.2-0.5,2.1-0.5c0.8,0,1.5,0.1,1.9,0.3
			c0.4,0.2,0.7,0.4,0.9,0.8c0.2,0.3,0.3,0.9,0.3,1.7l0,2.2c0,0.6,0,1.1,0.1,1.4c0.1,0.3,0.2,0.6,0.3,0.9h-1.9c0-0.1-0.1-0.3-0.2-0.6
			c0-0.1-0.1-0.2-0.1-0.2c-0.3,0.3-0.7,0.5-1,0.7c-0.4,0.2-0.8,0.2-1.2,0.2c-0.7,0-1.3-0.2-1.7-0.6c-0.4-0.4-0.6-0.9-0.6-1.5
			c0-0.4,0.1-0.8,0.3-1.1c0.2-0.3,0.5-0.6,0.8-0.7c0.3-0.2,0.8-0.3,1.5-0.4c0.9-0.2,1.5-0.3,1.8-0.5v-0.2c0-0.4-0.1-0.6-0.3-0.8
			c-0.2-0.2-0.5-0.2-1-0.2c-0.3,0-0.6,0.1-0.8,0.2C87.8,420.9,87.7,421.2,87.5,421.5z M90,423c-0.2,0.1-0.6,0.2-1.1,0.3
			c-0.5,0.1-0.9,0.2-1,0.3c-0.2,0.2-0.4,0.4-0.4,0.7c0,0.3,0.1,0.5,0.3,0.7c0.2,0.2,0.4,0.3,0.7,0.3c0.3,0,0.7-0.1,1-0.3
			c0.2-0.2,0.4-0.4,0.4-0.6c0-0.2,0.1-0.5,0.1-0.9V423z"/>
		<path class="st1" d="M93.6,426.9l2.1,0.3c0,0.2,0.1,0.4,0.2,0.5c0.2,0.1,0.5,0.2,0.8,0.2c0.5,0,0.9-0.1,1.1-0.2
			c0.2-0.1,0.3-0.3,0.4-0.5c0.1-0.2,0.1-0.4,0.1-0.9v-1c-0.6,0.8-1.3,1.1-2.1,1.1c-1,0-1.7-0.4-2.3-1.2c-0.4-0.6-0.7-1.4-0.7-2.4
			c0-1.2,0.3-2.1,0.9-2.7s1.3-0.9,2.1-0.9c0.9,0,1.6,0.4,2.2,1.2v-1h1.8v6.3c0,0.8-0.1,1.5-0.2,1.9s-0.3,0.7-0.6,1
			c-0.2,0.2-0.6,0.4-1,0.6c-0.4,0.1-0.9,0.2-1.6,0.2c-1.2,0-2-0.2-2.6-0.6c-0.5-0.4-0.8-0.9-0.8-1.6C93.6,427,93.6,427,93.6,426.9z
			 M95.2,422.7c0,0.8,0.1,1.3,0.4,1.6c0.3,0.3,0.6,0.5,1.1,0.5c0.5,0,0.8-0.2,1.2-0.5c0.3-0.4,0.5-0.9,0.5-1.6
			c0-0.7-0.2-1.3-0.5-1.6s-0.7-0.5-1.1-0.5c-0.4,0-0.8,0.2-1.1,0.5C95.4,421.5,95.2,422,95.2,422.7z"/>
		<path class="st1" d="M106.2,424.2l1.9,0.3c-0.2,0.7-0.6,1.2-1.1,1.6c-0.5,0.4-1.2,0.5-1.9,0.5c-1.2,0-2.1-0.4-2.7-1.2
			c-0.5-0.6-0.7-1.5-0.7-2.4c0-1.2,0.3-2.1,0.9-2.8c0.6-0.7,1.4-1,2.3-1c1.1,0,1.9,0.3,2.5,1c0.6,0.7,0.9,1.8,0.9,3.2h-4.7
			c0,0.6,0.2,1,0.5,1.3c0.3,0.3,0.6,0.5,1.1,0.5c0.3,0,0.5-0.1,0.7-0.2C105.9,424.8,106.1,424.5,106.2,424.2z M106.3,422.3
			c0-0.5-0.2-1-0.4-1.2c-0.3-0.3-0.6-0.4-1-0.4c-0.4,0-0.7,0.1-1,0.4c-0.3,0.3-0.4,0.7-0.4,1.2H106.3z"/>
		<path class="st1" d="M116.5,429.3h-1.3c-0.7-1-1.2-2.1-1.6-3.2s-0.5-2.2-0.5-3.2c0-1.3,0.2-2.5,0.7-3.6c0.4-1,0.9-1.9,1.5-2.8h1.3
			c-0.6,1.3-1,2.5-1.3,3.4s-0.3,1.9-0.3,3c0,0.7,0.1,1.5,0.2,2.2c0.1,0.8,0.3,1.5,0.6,2.2C115.9,427.8,116.1,428.4,116.5,429.3z"/>
		<path class="st1" d="M118,426.4v-9.8h1.9l4,6.5v-6.5h1.8v9.8h-2l-3.9-6.4v6.4H118z"/>
		<path class="st1" d="M136.6,426.4h-2.1l-0.9-2.2h-3.9l-0.8,2.2h-2.1l3.8-9.8h2.1L136.6,426.4z M133,422.6l-1.3-3.6l-1.3,3.6H133z"
			/>
		<path class="st1" d="M137.2,423.2l1.9-0.2c0.1,0.6,0.3,1.1,0.7,1.4c0.4,0.3,0.8,0.5,1.4,0.5c0.6,0,1.1-0.1,1.4-0.4
			s0.5-0.6,0.5-0.9c0-0.2-0.1-0.4-0.2-0.6c-0.1-0.2-0.4-0.3-0.7-0.4c-0.2-0.1-0.8-0.2-1.6-0.4c-1.1-0.3-1.8-0.6-2.2-1
			c-0.6-0.5-0.9-1.2-0.9-2c0-0.5,0.1-1,0.4-1.4c0.3-0.4,0.7-0.8,1.2-1c0.5-0.2,1.2-0.3,1.9-0.3c1.2,0,2.1,0.3,2.8,0.8
			c0.6,0.5,0.9,1.3,1,2.2l-2,0.1c-0.1-0.5-0.3-0.9-0.5-1.1s-0.7-0.3-1.2-0.3c-0.6,0-1,0.1-1.3,0.4c-0.2,0.2-0.3,0.4-0.3,0.6
			c0,0.2,0.1,0.4,0.3,0.6c0.2,0.2,0.9,0.4,1.8,0.7s1.7,0.5,2.1,0.7c0.5,0.2,0.8,0.6,1.1,1c0.3,0.4,0.4,0.9,0.4,1.6
			c0,0.6-0.2,1.1-0.5,1.6c-0.3,0.5-0.8,0.9-1.3,1.1c-0.6,0.2-1.3,0.4-2.1,0.4c-1.2,0-2.2-0.3-2.8-0.9
			C137.7,425.2,137.3,424.3,137.2,423.2z"/>
		<path class="st1" d="M146.3,429.3c0.4-0.8,0.6-1.4,0.8-1.8c0.2-0.4,0.3-0.9,0.4-1.5s0.2-1.1,0.3-1.6s0.1-1,0.1-1.5
			c0-1.1-0.1-2.1-0.3-3s-0.6-2.1-1.3-3.4h1.3c0.7,1,1.2,2,1.6,3c0.4,1.1,0.6,2.2,0.6,3.3c0,0.9-0.1,1.9-0.4,3
			c-0.3,1.2-0.9,2.4-1.6,3.5H146.3z"/>
	</g>
</g>
</svg>
