<?xml version="1.0" encoding="utf-8"?>
<!-- Generator: Adobe Illustrator 19.0.0, SVG Export Plug-In . SVG Version: 6.00 Build 0)  -->
<svg version="1.1" id="Capa_1" xmlns="http://www.w3.org/2000/svg" xmlns:xlink="http://www.w3.org/1999/xlink" x="0px" y="0px"
	 viewBox="-126 404.3 341.5 33.6" style="enable-background:new -126 404.3 341.5 33.6;" xml:space="preserve">
<style type="text/css">
	.st0{fill:#FFFFFF;}
	.st1{fill:#3B86B1;}
	.st2{enable-background:new    ;}
</style>
<g>
	<polygon id="XMLID_179_" class="st0" points="188.8,437.5 202.9,421.1 188.8,404.8 200.7,404.8 214.8,421.1 200.7,437.5 	"/>
	<path id="XMLID_176_" class="st1" d="M200.5,405.3l13.7,15.8l-13.7,15.8h-10.6l13.1-15.2l0.6-0.7l-0.6-0.7l-13.1-15L200.5,405.3
		 M201,404.3h-13.2l14.5,16.8l-14.5,16.8H201l14.5-16.8L201,404.3L201,404.3z"/>
	<polygon id="XMLID_174_" class="st0" points="-111.3,437.5 -125.3,421.1 -111.3,404.8 -99.4,404.8 -113.4,421.1 -99.4,437.5 	"/>
	<path id="XMLID_171_" class="st1" d="M-100.4,405.3l-13.1,15.2l-0.6,0.7l0.6,0.7l13.1,15.2H-111l-13.7-16l13.7-15.8L-100.4,405.3
		 M-98.3,404.3h-13.2l-14.5,16.8l14.5,16.8h13.2l-14.5-16.8L-98.3,404.3L-98.3,404.3z"/>
	<polygon id="XMLID_121_" class="st0" points="-94,437.5 -108.1,421.1 -94,404.8 183.5,404.8 197.6,421.1 183.5,437.5 	"/>
	<path id="XMLID_73_" class="st1" d="M-93.8,405.3h277.1l13.7,15.8l-13.7,15.8H-93.8l-13.7-15.8L-93.8,405.3 M-94.3,404.3
		l-14.5,16.8l14.5,16.8h278l14.5-16.8l-14.5-16.8H-94.3L-94.3,404.3z"/>
</g>
<g id="XMLID_13986_">
	<g class="st2">
		<path class="st1" d="M-84.8,425.6v-9.8h2v9.8H-84.8z"/>
		<path class="st1" d="M-74.5,425.6h-1.9V422c0-0.8,0-1.3-0.1-1.5c-0.1-0.2-0.2-0.4-0.4-0.5c-0.2-0.1-0.4-0.2-0.6-0.2
			c-0.3,0-0.6,0.1-0.9,0.3c-0.3,0.2-0.4,0.4-0.5,0.7c-0.1,0.3-0.1,0.8-0.1,1.6v3.2h-1.9v-7.1h1.7v1c0.6-0.8,1.4-1.2,2.3-1.2
			c0.4,0,0.8,0.1,1.1,0.2c0.3,0.1,0.6,0.3,0.8,0.6c0.2,0.2,0.3,0.5,0.4,0.8s0.1,0.7,0.1,1.3V425.6z"/>
		<path class="st1" d="M-73.4,418.5h1V418c0-0.6,0.1-1,0.2-1.3c0.1-0.3,0.4-0.5,0.7-0.7c0.3-0.2,0.8-0.3,1.3-0.3
			c0.5,0,1.1,0.1,1.6,0.2l-0.3,1.3c-0.3-0.1-0.6-0.1-0.9-0.1c-0.3,0-0.5,0.1-0.6,0.2c-0.1,0.1-0.2,0.4-0.2,0.7v0.5h1.4v1.5h-1.4v5.6
			h-1.9V420h-1V418.5z"/>
		<path class="st1" d="M-68.5,422c0-0.6,0.2-1.2,0.5-1.8c0.3-0.6,0.7-1,1.3-1.3c0.6-0.3,1.2-0.5,1.9-0.5c1.1,0,1.9,0.3,2.6,1
			c0.7,0.7,1,1.6,1,2.6c0,1.1-0.3,2-1,2.7c-0.7,0.7-1.6,1.1-2.6,1.1c-0.6,0-1.3-0.1-1.9-0.4c-0.6-0.3-1-0.7-1.3-1.3
			C-68.3,423.5-68.5,422.8-68.5,422z M-66.6,422.1c0,0.7,0.2,1.2,0.5,1.6s0.7,0.6,1.2,0.6s0.9-0.2,1.2-0.6c0.3-0.4,0.5-0.9,0.5-1.6
			c0-0.7-0.2-1.2-0.5-1.6c-0.3-0.4-0.7-0.6-1.2-0.6s-0.9,0.2-1.2,0.6S-66.6,421.4-66.6,422.1z"/>
		<path class="st1" d="M-57.9,425.6h-1.9v-7.1h1.7v1c0.3-0.5,0.6-0.8,0.8-0.9c0.2-0.2,0.5-0.2,0.8-0.2c0.4,0,0.8,0.1,1.2,0.4
			l-0.6,1.6c-0.3-0.2-0.6-0.3-0.9-0.3c-0.3,0-0.5,0.1-0.7,0.2c-0.2,0.1-0.3,0.4-0.4,0.8c-0.1,0.4-0.2,1.2-0.2,2.4V425.6z"/>
		<path class="st1" d="M-54.6,418.5h1.7v1c0.6-0.8,1.4-1.1,2.2-1.1c0.5,0,0.8,0.1,1.2,0.3s0.6,0.5,0.8,0.8c0.3-0.4,0.6-0.7,1-0.8
			c0.4-0.2,0.7-0.3,1.2-0.3c0.5,0,1,0.1,1.3,0.3c0.4,0.2,0.6,0.5,0.8,0.9c0.1,0.3,0.2,0.8,0.2,1.5v4.5H-46v-4c0-0.7-0.1-1.2-0.2-1.4
			c-0.2-0.3-0.4-0.4-0.8-0.4c-0.3,0-0.5,0.1-0.7,0.2c-0.2,0.2-0.4,0.4-0.5,0.7c-0.1,0.3-0.2,0.8-0.2,1.5v3.4h-1.9v-3.9
			c0-0.7,0-1.1-0.1-1.3c-0.1-0.2-0.2-0.3-0.3-0.4c-0.1-0.1-0.3-0.1-0.6-0.1c-0.3,0-0.5,0.1-0.8,0.2s-0.4,0.4-0.5,0.7
			c-0.1,0.3-0.1,0.8-0.1,1.5v3.4h-1.9V418.5z"/>
		<path class="st1" d="M-40.9,420.7l-1.7-0.3c0.2-0.7,0.5-1.2,1-1.5c0.5-0.3,1.2-0.5,2.1-0.5c0.8,0,1.5,0.1,1.9,0.3
			c0.4,0.2,0.7,0.4,0.9,0.8c0.2,0.3,0.2,0.9,0.2,1.7l0,2.2c0,0.6,0,1.1,0.1,1.4c0.1,0.3,0.2,0.6,0.3,0.9H-38c0-0.1-0.1-0.3-0.2-0.6
			c0-0.1-0.1-0.2-0.1-0.2c-0.3,0.3-0.7,0.5-1,0.7c-0.4,0.2-0.8,0.2-1.2,0.2c-0.7,0-1.3-0.2-1.7-0.6c-0.4-0.4-0.6-0.9-0.6-1.5
			c0-0.4,0.1-0.8,0.3-1.1c0.2-0.3,0.5-0.6,0.8-0.7c0.3-0.2,0.8-0.3,1.5-0.4c0.9-0.2,1.5-0.3,1.8-0.5v-0.2c0-0.4-0.1-0.6-0.3-0.8
			c-0.2-0.2-0.5-0.2-1-0.2c-0.3,0-0.6,0.1-0.8,0.2C-40.6,420.1-40.8,420.4-40.9,420.7z M-38.4,422.2c-0.2,0.1-0.6,0.2-1.1,0.3
			c-0.5,0.1-0.9,0.2-1,0.3c-0.2,0.2-0.4,0.4-0.4,0.7c0,0.3,0.1,0.5,0.3,0.7c0.2,0.2,0.4,0.3,0.7,0.3c0.3,0,0.7-0.1,1-0.3
			c0.2-0.2,0.4-0.4,0.4-0.6c0-0.2,0.1-0.5,0.1-0.9V422.2z"/>
		<path class="st1" d="M-31.5,418.5v1.5h-1.3v2.9c0,0.6,0,0.9,0,1c0,0.1,0.1,0.2,0.2,0.2c0.1,0.1,0.2,0.1,0.3,0.1
			c0.2,0,0.4-0.1,0.8-0.2l0.2,1.5c-0.4,0.2-0.9,0.3-1.5,0.3c-0.3,0-0.6-0.1-0.9-0.2c-0.3-0.1-0.5-0.3-0.6-0.4s-0.2-0.4-0.3-0.7
			c0-0.2-0.1-0.7-0.1-1.3V420h-0.9v-1.5h0.9v-1.4l1.9-1.1v2.5H-31.5z"/>
		<path class="st1" d="M-30.2,417.6v-1.7h1.9v1.7H-30.2z M-30.2,425.6v-7.1h1.9v7.1H-30.2z"/>
		<path class="st1" d="M-26.8,422c0-0.6,0.2-1.2,0.5-1.8c0.3-0.6,0.7-1,1.3-1.3c0.6-0.3,1.2-0.5,1.9-0.5c1.1,0,1.9,0.3,2.6,1
			c0.7,0.7,1,1.6,1,2.6c0,1.1-0.3,2-1,2.7c-0.7,0.7-1.6,1.1-2.6,1.1c-0.6,0-1.3-0.1-1.9-0.4c-0.6-0.3-1-0.7-1.3-1.3
			C-26.7,423.5-26.8,422.8-26.8,422z M-24.9,422.1c0,0.7,0.2,1.2,0.5,1.6s0.7,0.6,1.2,0.6s0.9-0.2,1.2-0.6c0.3-0.4,0.5-0.9,0.5-1.6
			c0-0.7-0.2-1.2-0.5-1.6c-0.3-0.4-0.7-0.6-1.2-0.6s-0.9,0.2-1.2,0.6S-24.9,421.4-24.9,422.1z"/>
		<path class="st1" d="M-11.6,425.6h-1.9V422c0-0.8,0-1.3-0.1-1.5c-0.1-0.2-0.2-0.4-0.4-0.5c-0.2-0.1-0.4-0.2-0.6-0.2
			c-0.3,0-0.6,0.1-0.9,0.3c-0.3,0.2-0.4,0.4-0.5,0.7c-0.1,0.3-0.1,0.8-0.1,1.6v3.2h-1.9v-7.1h1.7v1c0.6-0.8,1.4-1.2,2.3-1.2
			c0.4,0,0.8,0.1,1.1,0.2c0.3,0.1,0.6,0.3,0.8,0.6c0.2,0.2,0.3,0.5,0.4,0.8s0.1,0.7,0.1,1.3V425.6z"/>
		<path class="st1" d="M-5.9,425.6v-9.7h2v8H1v1.6H-5.9z"/>
		<path class="st1" d="M2.4,417.6v-1.7h1.9v1.7H2.4z M2.4,425.6v-7.1h1.9v7.1H2.4z"/>
		<path class="st1" d="M5.4,418.5h1V418c0-0.6,0.1-1,0.2-1.3c0.1-0.3,0.4-0.5,0.7-0.7c0.3-0.2,0.8-0.3,1.3-0.3
			c0.5,0,1.1,0.1,1.6,0.2l-0.3,1.3c-0.3-0.1-0.6-0.1-0.9-0.1c-0.3,0-0.5,0.1-0.6,0.2c-0.1,0.1-0.2,0.4-0.2,0.7v0.5h1.4v1.5H8.3v5.6
			H6.4V420h-1V418.5z"/>
		<path class="st1" d="M14.8,423.4l1.9,0.3c-0.2,0.7-0.6,1.2-1.1,1.6s-1.2,0.5-1.9,0.5c-1.2,0-2.1-0.4-2.7-1.2
			c-0.5-0.6-0.7-1.5-0.7-2.4c0-1.2,0.3-2.1,0.9-2.8c0.6-0.7,1.4-1,2.3-1c1.1,0,1.9,0.3,2.5,1c0.6,0.7,0.9,1.8,0.9,3.2h-4.7
			c0,0.6,0.2,1,0.5,1.3s0.6,0.5,1.1,0.5c0.3,0,0.5-0.1,0.7-0.2S14.7,423.7,14.8,423.4z M14.9,421.5c0-0.5-0.2-1-0.4-1.2
			c-0.3-0.3-0.6-0.4-1-0.4c-0.4,0-0.7,0.1-1,0.4c-0.3,0.3-0.4,0.7-0.4,1.2H14.9z"/>
		<path class="st1" d="M24.5,420.6l-1.8,0.3c-0.1-0.4-0.2-0.6-0.4-0.8s-0.5-0.3-0.9-0.3c-0.5,0-0.8,0.2-1.1,0.5
			c-0.3,0.3-0.4,0.9-0.4,1.6c0,0.8,0.1,1.4,0.4,1.8c0.3,0.3,0.7,0.5,1.1,0.5c0.4,0,0.6-0.1,0.9-0.3s0.4-0.5,0.5-1l1.8,0.3
			c-0.2,0.8-0.6,1.5-1.1,1.9c-0.5,0.4-1.3,0.6-2.2,0.6c-1,0-1.9-0.3-2.5-1c-0.6-0.7-0.9-1.6-0.9-2.7c0-1.2,0.3-2.1,0.9-2.7
			s1.5-1,2.5-1c0.9,0,1.5,0.2,2.1,0.6C23.9,419.3,24.3,419.9,24.5,420.6z"/>
		<path class="st1" d="M25,418.5h2l1.7,5l1.7-5h1.9l-2.5,6.8l-0.4,1.2c-0.2,0.4-0.3,0.7-0.5,0.9c-0.1,0.2-0.3,0.4-0.5,0.5
			c-0.2,0.1-0.4,0.2-0.7,0.3c-0.3,0.1-0.6,0.1-1,0.1c-0.4,0-0.7,0-1.1-0.1l-0.2-1.5c0.3,0.1,0.6,0.1,0.8,0.1c0.4,0,0.8-0.1,1-0.4
			c0.2-0.3,0.4-0.6,0.5-1L25,418.5z"/>
		<path class="st1" d="M39.7,420.6l-1.8,0.3c-0.1-0.4-0.2-0.6-0.4-0.8s-0.5-0.3-0.9-0.3c-0.5,0-0.8,0.2-1.1,0.5
			c-0.3,0.3-0.4,0.9-0.4,1.6c0,0.8,0.1,1.4,0.4,1.8c0.3,0.3,0.7,0.5,1.1,0.5c0.4,0,0.6-0.1,0.9-0.3s0.4-0.5,0.5-1l1.8,0.3
			c-0.2,0.8-0.6,1.5-1.1,1.9c-0.5,0.4-1.3,0.6-2.2,0.6c-1,0-1.9-0.3-2.5-1c-0.6-0.7-0.9-1.6-0.9-2.7c0-1.2,0.3-2.1,0.9-2.7
			s1.5-1,2.5-1c0.9,0,1.5,0.2,2.1,0.6C39.1,419.3,39.4,419.9,39.7,420.6z"/>
		<path class="st1" d="M41.1,425.6v-9.8h1.9v9.8H41.1z"/>
		<path class="st1" d="M49,423.4l1.9,0.3c-0.2,0.7-0.6,1.2-1.1,1.6c-0.5,0.4-1.2,0.5-1.9,0.5c-1.2,0-2.1-0.4-2.7-1.2
			c-0.5-0.6-0.7-1.5-0.7-2.4c0-1.2,0.3-2.1,0.9-2.8c0.6-0.7,1.4-1,2.3-1c1.1,0,1.9,0.3,2.5,1c0.6,0.7,0.9,1.8,0.9,3.2h-4.7
			c0,0.6,0.2,1,0.5,1.3c0.3,0.3,0.6,0.5,1.1,0.5c0.3,0,0.5-0.1,0.7-0.2C48.7,424,48.9,423.7,49,423.4z M49.1,421.5
			c0-0.5-0.2-1-0.4-1.2c-0.3-0.3-0.6-0.4-1-0.4c-0.4,0-0.7,0.1-1,0.4c-0.3,0.3-0.4,0.7-0.4,1.2H49.1z"/>
		<path class="st1" d="M56.2,425.6v-9.8h2.9l1.8,6.7l1.8-6.7h3v9.8h-1.8v-7.7l-1.9,7.7H60l-1.9-7.7v7.7H56.2z"/>
		<path class="st1" d="M69,420.7l-1.7-0.3c0.2-0.7,0.5-1.2,1-1.5c0.5-0.3,1.2-0.5,2.1-0.5c0.8,0,1.5,0.1,1.9,0.3
			c0.4,0.2,0.7,0.4,0.9,0.8c0.2,0.3,0.3,0.9,0.3,1.7l0,2.2c0,0.6,0,1.1,0.1,1.4c0.1,0.3,0.2,0.6,0.3,0.9h-1.9c0-0.1-0.1-0.3-0.2-0.6
			c0-0.1-0.1-0.2-0.1-0.2c-0.3,0.3-0.7,0.5-1,0.7c-0.4,0.2-0.8,0.2-1.2,0.2c-0.7,0-1.3-0.2-1.7-0.6c-0.4-0.4-0.6-0.9-0.6-1.5
			c0-0.4,0.1-0.8,0.3-1.1c0.2-0.3,0.5-0.6,0.8-0.7c0.3-0.2,0.8-0.3,1.5-0.4c0.9-0.2,1.5-0.3,1.8-0.5v-0.2c0-0.4-0.1-0.6-0.3-0.8
			c-0.2-0.2-0.5-0.2-1-0.2c-0.3,0-0.6,0.1-0.8,0.2C69.3,420.1,69.1,420.4,69,420.7z M71.5,422.2c-0.2,0.1-0.6,0.2-1.1,0.3
			c-0.5,0.1-0.9,0.2-1,0.3c-0.2,0.2-0.4,0.4-0.4,0.7c0,0.3,0.1,0.5,0.3,0.7c0.2,0.2,0.4,0.3,0.7,0.3c0.3,0,0.7-0.1,1-0.3
			c0.2-0.2,0.4-0.4,0.4-0.6c0-0.2,0.1-0.5,0.1-0.9V422.2z"/>
		<path class="st1" d="M81.6,425.6h-1.9V422c0-0.8,0-1.3-0.1-1.5c-0.1-0.2-0.2-0.4-0.4-0.5c-0.2-0.1-0.4-0.2-0.6-0.2
			c-0.3,0-0.6,0.1-0.9,0.3c-0.3,0.2-0.4,0.4-0.5,0.7c-0.1,0.3-0.1,0.8-0.1,1.6v3.2h-1.9v-7.1h1.7v1c0.6-0.8,1.4-1.2,2.3-1.2
			c0.4,0,0.8,0.1,1.1,0.2c0.3,0.1,0.6,0.3,0.8,0.6c0.2,0.2,0.3,0.5,0.4,0.8c0.1,0.3,0.1,0.7,0.1,1.3V425.6z"/>
		<path class="st1" d="M84.9,420.7l-1.7-0.3c0.2-0.7,0.5-1.2,1-1.5c0.5-0.3,1.2-0.5,2.1-0.5c0.8,0,1.5,0.1,1.9,0.3
			c0.4,0.2,0.7,0.4,0.9,0.8c0.2,0.3,0.3,0.9,0.3,1.7l0,2.2c0,0.6,0,1.1,0.1,1.4c0.1,0.3,0.2,0.6,0.3,0.9h-1.9c0-0.1-0.1-0.3-0.2-0.6
			c0-0.1-0.1-0.2-0.1-0.2c-0.3,0.3-0.7,0.5-1,0.7c-0.4,0.2-0.8,0.2-1.2,0.2c-0.7,0-1.3-0.2-1.7-0.6c-0.4-0.4-0.6-0.9-0.6-1.5
			c0-0.4,0.1-0.8,0.3-1.1c0.2-0.3,0.5-0.6,0.8-0.7c0.3-0.2,0.8-0.3,1.5-0.4c0.9-0.2,1.5-0.3,1.8-0.5v-0.2c0-0.4-0.1-0.6-0.3-0.8
			c-0.2-0.2-0.5-0.2-1-0.2c-0.3,0-0.6,0.1-0.8,0.2C85.2,420.1,85,420.4,84.9,420.7z M87.4,422.2c-0.2,0.1-0.6,0.2-1.1,0.3
			c-0.5,0.1-0.9,0.2-1,0.3c-0.2,0.2-0.4,0.4-0.4,0.7c0,0.3,0.1,0.5,0.3,0.7c0.2,0.2,0.4,0.3,0.7,0.3c0.3,0,0.7-0.1,1-0.3
			c0.2-0.2,0.4-0.4,0.4-0.6c0-0.2,0.1-0.5,0.1-0.9V422.2z"/>
		<path class="st1" d="M90.9,426.1l2.1,0.3c0,0.2,0.1,0.4,0.2,0.5c0.2,0.1,0.5,0.2,0.8,0.2c0.5,0,0.9-0.1,1.1-0.2
			c0.2-0.1,0.3-0.3,0.4-0.5c0.1-0.2,0.1-0.4,0.1-0.9v-1c-0.6,0.8-1.3,1.1-2.1,1.1c-1,0-1.7-0.4-2.3-1.2c-0.4-0.6-0.7-1.4-0.7-2.4
			c0-1.2,0.3-2.1,0.9-2.7s1.3-0.9,2.1-0.9c0.9,0,1.6,0.4,2.2,1.2v-1h1.8v6.3c0,0.8-0.1,1.5-0.2,1.9s-0.3,0.7-0.6,1
			c-0.2,0.2-0.6,0.4-1,0.6c-0.4,0.1-0.9,0.2-1.6,0.2c-1.2,0-2-0.2-2.5-0.6c-0.5-0.4-0.8-0.9-0.8-1.6
			C90.9,426.2,90.9,426.2,90.9,426.1z M92.6,421.9c0,0.8,0.1,1.3,0.4,1.6s0.6,0.5,1.1,0.5c0.5,0,0.8-0.2,1.2-0.5s0.5-0.9,0.5-1.6
			c0-0.7-0.2-1.3-0.5-1.6c-0.3-0.4-0.7-0.5-1.1-0.5c-0.4,0-0.8,0.2-1.1,0.5S92.6,421.2,92.6,421.9z"/>
		<path class="st1" d="M103.5,423.4l1.9,0.3c-0.2,0.7-0.6,1.2-1.1,1.6c-0.5,0.4-1.2,0.5-1.9,0.5c-1.2,0-2.1-0.4-2.7-1.2
			c-0.5-0.6-0.7-1.5-0.7-2.4c0-1.2,0.3-2.1,0.9-2.8c0.6-0.7,1.4-1,2.3-1c1.1,0,1.9,0.3,2.5,1c0.6,0.7,0.9,1.8,0.9,3.2h-4.7
			c0,0.6,0.2,1,0.5,1.3c0.3,0.3,0.6,0.5,1.1,0.5c0.3,0,0.5-0.1,0.7-0.2C103.3,424,103.4,423.7,103.5,423.4z M103.6,421.5
			c0-0.5-0.2-1-0.4-1.2c-0.3-0.3-0.6-0.4-1-0.4c-0.4,0-0.7,0.1-1,0.4c-0.3,0.3-0.4,0.7-0.4,1.2H103.6z"/>
		<path class="st1" d="M106.9,418.5h1.7v1c0.6-0.8,1.4-1.1,2.2-1.1c0.5,0,0.8,0.1,1.2,0.3s0.6,0.5,0.8,0.8c0.3-0.4,0.6-0.7,1-0.8
			s0.7-0.3,1.2-0.3c0.5,0,1,0.1,1.3,0.3s0.6,0.5,0.8,0.9c0.1,0.3,0.2,0.8,0.2,1.5v4.5h-1.9v-4c0-0.7-0.1-1.2-0.2-1.4
			c-0.2-0.3-0.4-0.4-0.8-0.4c-0.3,0-0.5,0.1-0.7,0.2c-0.2,0.2-0.4,0.4-0.5,0.7s-0.2,0.8-0.2,1.5v3.4h-1.9v-3.9c0-0.7,0-1.1-0.1-1.3
			c-0.1-0.2-0.2-0.3-0.3-0.4c-0.1-0.1-0.3-0.1-0.6-0.1c-0.3,0-0.5,0.1-0.8,0.2c-0.2,0.2-0.4,0.4-0.5,0.7c-0.1,0.3-0.2,0.8-0.2,1.5
			v3.4h-1.9V418.5z"/>
		<path class="st1" d="M123.2,423.4l1.9,0.3c-0.2,0.7-0.6,1.2-1.1,1.6c-0.5,0.4-1.2,0.5-1.9,0.5c-1.2,0-2.1-0.4-2.7-1.2
			c-0.5-0.6-0.7-1.5-0.7-2.4c0-1.2,0.3-2.1,0.9-2.8c0.6-0.7,1.4-1,2.3-1c1.1,0,1.9,0.3,2.5,1c0.6,0.7,0.9,1.8,0.9,3.2h-4.7
			c0,0.6,0.2,1,0.5,1.3c0.3,0.3,0.6,0.5,1.1,0.5c0.3,0,0.5-0.1,0.7-0.2C123,424,123.1,423.7,123.2,423.4z M123.3,421.5
			c0-0.5-0.2-1-0.4-1.2c-0.3-0.3-0.6-0.4-1-0.4c-0.4,0-0.7,0.1-1,0.4c-0.3,0.3-0.4,0.7-0.4,1.2H123.3z"/>
		<path class="st1" d="M133.2,425.6h-1.9V422c0-0.8,0-1.3-0.1-1.5c-0.1-0.2-0.2-0.4-0.4-0.5c-0.2-0.1-0.4-0.2-0.6-0.2
			c-0.3,0-0.6,0.1-0.9,0.3c-0.3,0.2-0.4,0.4-0.5,0.7c-0.1,0.3-0.1,0.8-0.1,1.6v3.2h-1.9v-7.1h1.7v1c0.6-0.8,1.4-1.2,2.3-1.2
			c0.4,0,0.8,0.1,1.1,0.2c0.3,0.1,0.6,0.3,0.8,0.6c0.2,0.2,0.3,0.5,0.4,0.8c0.1,0.3,0.1,0.7,0.1,1.3V425.6z"/>
		<path class="st1" d="M138.3,418.5v1.5H137v2.9c0,0.6,0,0.9,0,1c0,0.1,0.1,0.2,0.2,0.2c0.1,0.1,0.2,0.1,0.3,0.1
			c0.2,0,0.4-0.1,0.8-0.2l0.2,1.5c-0.4,0.2-0.9,0.3-1.5,0.3c-0.3,0-0.6-0.1-0.9-0.2s-0.5-0.3-0.6-0.4c-0.1-0.2-0.2-0.4-0.3-0.7
			c0-0.2-0.1-0.7-0.1-1.3V420h-0.9v-1.5h0.9v-1.4l1.9-1.1v2.5H138.3z"/>
		<path class="st1" d="M146.5,428.5h-1.3c-0.7-1-1.2-2.1-1.6-3.2s-0.5-2.2-0.5-3.2c0-1.3,0.2-2.5,0.7-3.6c0.4-1,0.9-1.9,1.5-2.8h1.3
			c-0.6,1.3-1,2.5-1.3,3.4s-0.3,1.9-0.3,3c0,0.7,0.1,1.5,0.2,2.2c0.1,0.8,0.3,1.5,0.6,2.2C145.8,427,146.1,427.6,146.5,428.5z"/>
		<path class="st1" d="M147.9,425.6v-9.8h2v9.8H147.9z"/>
		<path class="st1" d="M151.8,425.6v-9.7h2v8h4.9v1.6H151.8z"/>
		<path class="st1" d="M160,425.6v-9.8h2.9l1.8,6.7l1.8-6.7h3v9.8h-1.8v-7.7l-1.9,7.7h-1.9l-1.9-7.7v7.7H160z"/>
		<path class="st1" d="M170.9,428.5c0.4-0.8,0.6-1.4,0.8-1.8c0.2-0.4,0.3-0.9,0.4-1.5s0.2-1.1,0.3-1.6c0.1-0.5,0.1-1,0.1-1.5
			c0-1.1-0.1-2.1-0.3-3s-0.6-2.1-1.3-3.4h1.3c0.7,1,1.2,2,1.6,3c0.4,1.1,0.6,2.2,0.6,3.3c0,0.9-0.1,1.9-0.4,3
			c-0.3,1.2-0.9,2.4-1.6,3.5H170.9z"/>
	</g>
</g>
</svg>
