<?xml version="1.0" encoding="utf-8"?>
<!-- Generator: Adobe Illustrator 19.0.0, SVG Export Plug-In . SVG Version: 6.00 Build 0)  -->
<svg version="1.1" id="Capa_1" xmlns="http://www.w3.org/2000/svg" xmlns:xlink="http://www.w3.org/1999/xlink" x="0px" y="0px"
	 viewBox="0 0 55.8 55.8" style="enable-background:new 0 0 55.8 55.8;" xml:space="preserve">
<style type="text/css">
	.st0{fill:#FF7F00;}
	.st1{fill:#FFFFFF;}
</style>
<g id="XMLID_6869_">
	<g id="XMLID_81_">
		<g id="XMLID_82_">
			<circle id="XMLID_83_" class="st0" cx="27.9" cy="27.9" r="27.9"/>
		</g>
	</g>
</g>
<g id="XMLID_1_">
	<path id="XMLID_2_" class="st1" d="M12.5,31.1v-6.4h1.9l1.2,4.4l1.2-4.4h2v6.4h-1.2V26l-1.3,5.1H15L13.7,26v5.1H12.5z"/>
	<path id="XMLID_4_" class="st1" d="M25.8,31.1h-1.4l-0.6-1.5h-2.6l-0.5,1.5h-1.4l2.5-6.4h1.4L25.8,31.1z M23.4,28.6l-0.9-2.4
		l-0.9,2.4H23.4z"/>
	<path id="XMLID_7_" class="st1" d="M26.5,31.1v-6.4h1.3V30h3.2v1.1H26.5z"/>
	<path id="XMLID_11_" class="st1" d="M32,31.1v-6.4h1.3V30h3.2v1.1H32z"/>
	<path id="XMLID_67_" class="st1" d="M43.3,31.1h-1.4l-0.6-1.5h-2.6l-0.5,1.5h-1.4l2.5-6.4h1.4L43.3,31.1z M40.9,28.6L40,26.2
		l-0.9,2.4H40.9z"/>
</g>
</svg>
