<?xml version="1.0" encoding="utf-8"?>
<!-- Generator: Adobe Illustrator 19.0.0, SVG Export Plug-In . SVG Version: 6.00 Build 0)  -->
<svg version="1.1" id="Capa_1" xmlns="http://www.w3.org/2000/svg" xmlns:xlink="http://www.w3.org/1999/xlink" x="0px" y="0px"
	 viewBox="0 0 55.8 55.8" style="enable-background:new 0 0 55.8 55.8;" xml:space="preserve">
<style type="text/css">
	.st0{fill:#029ECF;}
	.st1{fill:#FFFFFF;}
</style>
<g id="XMLID_6869_">
	<g id="XMLID_100_">
		<g id="XMLID_101_">
			<circle id="XMLID_102_" class="st0" cx="27.9" cy="27.9" r="27.9"/>
		</g>
	</g>
</g>
<g id="XMLID_1_">
	<path id="XMLID_2_" class="st1" d="M17.6,21.1h-1.4l-0.6-1.5h-2.6l-0.5,1.5h-1.4l2.5-6.4h1.4L17.6,21.1z M15.2,18.6l-0.9-2.4
		l-0.9,2.4H15.2z"/>
	<path id="XMLID_5_" class="st1" d="M18.3,21.1v-6.4h1.3l2.6,4.3v-4.3h1.2v6.4h-1.3l-2.6-4.2v4.2H18.3z"/>
	<path id="XMLID_7_" class="st1" d="M24.8,21.1v-6.4h1.3v6.4H24.8z"/>
	<path id="XMLID_9_" class="st1" d="M27.4,21.1v-6.4h1.3V20h3.2v1.1H27.4z"/>
	<path id="XMLID_19_" class="st1" d="M32.9,21.1v-6.4h1.3V20h3.2v1.1H32.9z"/>
	<path id="XMLID_65_" class="st1" d="M38.1,17.9c0-0.7,0.1-1.2,0.3-1.7c0.1-0.3,0.3-0.6,0.6-0.9c0.3-0.3,0.5-0.5,0.8-0.6
		c0.4-0.2,0.9-0.3,1.4-0.3c0.9,0,1.7,0.3,2.3,0.9c0.6,0.6,0.9,1.4,0.9,2.5c0,1-0.3,1.9-0.8,2.4c-0.6,0.6-1.3,0.9-2.3,0.9
		c-1,0-1.7-0.3-2.3-0.9C38.3,19.8,38.1,19,38.1,17.9z M39.4,17.9c0,0.7,0.2,1.3,0.5,1.7c0.3,0.4,0.8,0.6,1.3,0.6
		c0.5,0,0.9-0.2,1.3-0.6c0.3-0.4,0.5-0.9,0.5-1.7c0-0.7-0.2-1.3-0.5-1.7c-0.3-0.4-0.8-0.5-1.3-0.5c-0.5,0-1,0.2-1.3,0.6
		C39.6,16.6,39.4,17.1,39.4,17.9z"/>
	<path id="XMLID_68_" class="st1" d="M7.8,27.9c0-0.7,0.1-1.2,0.3-1.7c0.1-0.3,0.3-0.6,0.6-0.9c0.3-0.3,0.5-0.5,0.8-0.6
		c0.4-0.2,0.9-0.3,1.4-0.3c0.9,0,1.7,0.3,2.3,0.9c0.6,0.6,0.9,1.4,0.9,2.5c0,1-0.3,1.9-0.8,2.4c-0.6,0.6-1.3,0.9-2.3,0.9
		c-1,0-1.7-0.3-2.3-0.9C8.1,29.8,7.8,29,7.8,27.9z M9.2,27.9c0,0.7,0.2,1.3,0.5,1.7c0.3,0.4,0.8,0.6,1.3,0.6c0.5,0,0.9-0.2,1.3-0.6
		c0.3-0.4,0.5-0.9,0.5-1.7c0-0.7-0.2-1.3-0.5-1.7c-0.3-0.4-0.8-0.5-1.3-0.5c-0.5,0-1,0.2-1.3,0.6C9.3,26.6,9.2,27.1,9.2,27.9z"/>
	<path id="XMLID_71_" class="st1" d="M17.6,24.7h2.4c0.5,0,0.9,0,1.2,0.1c0.4,0.1,0.7,0.3,1,0.6c0.3,0.3,0.5,0.6,0.6,1
		c0.1,0.4,0.2,0.9,0.2,1.5c0,0.5-0.1,1-0.2,1.4c-0.2,0.5-0.4,0.8-0.7,1.1c-0.2,0.2-0.5,0.4-0.9,0.5c-0.3,0.1-0.7,0.1-1.2,0.1h-2.4
		V24.7z M18.9,25.8V30h1c0.4,0,0.6,0,0.8-0.1c0.2-0.1,0.4-0.1,0.5-0.3c0.1-0.1,0.3-0.3,0.3-0.6c0.1-0.3,0.1-0.7,0.1-1.2
		s0-0.9-0.1-1.1s-0.2-0.5-0.4-0.6c-0.2-0.1-0.4-0.3-0.6-0.3c-0.2,0-0.5-0.1-1.1-0.1H18.9z"/>
	<path id="XMLID_74_" class="st1" d="M23.8,27.9c0-0.7,0.1-1.2,0.3-1.7c0.1-0.3,0.3-0.6,0.6-0.9c0.3-0.3,0.5-0.5,0.8-0.6
		c0.4-0.2,0.9-0.3,1.4-0.3c0.9,0,1.7,0.3,2.3,0.9c0.6,0.6,0.9,1.4,0.9,2.5c0,1-0.3,1.9-0.8,2.4c-0.6,0.6-1.3,0.9-2.3,0.9
		c-1,0-1.7-0.3-2.3-0.9C24.1,29.8,23.8,29,23.8,27.9z M25.2,27.9c0,0.7,0.2,1.3,0.5,1.7c0.3,0.4,0.8,0.6,1.3,0.6
		c0.5,0,0.9-0.2,1.3-0.6c0.3-0.4,0.5-0.9,0.5-1.7c0-0.7-0.2-1.3-0.5-1.7c-0.3-0.4-0.8-0.5-1.3-0.5c-0.5,0-1,0.2-1.3,0.6
		C25.3,26.6,25.2,27.1,25.2,27.9z"/>
	<path id="XMLID_77_" class="st1" d="M31.1,24.7h2.6c0.5,0,0.9,0,1.1,0.1c0.3,0,0.5,0.1,0.7,0.3c0.2,0.1,0.4,0.3,0.5,0.5
		c0.1,0.2,0.2,0.5,0.2,0.8c0,0.3-0.1,0.6-0.2,0.8c-0.2,0.3-0.4,0.4-0.7,0.6c0.4,0.1,0.7,0.3,0.9,0.6s0.3,0.6,0.3,1
		c0,0.3-0.1,0.6-0.2,0.9c-0.1,0.3-0.3,0.5-0.6,0.7c-0.2,0.2-0.5,0.3-0.9,0.3c-0.2,0-0.7,0-1.6,0h-2.2V24.7z M32.4,25.7v1.5h0.9
		c0.5,0,0.8,0,0.9,0c0.2,0,0.4-0.1,0.5-0.2c0.1-0.1,0.2-0.3,0.2-0.5c0-0.2-0.1-0.4-0.2-0.5c-0.1-0.1-0.3-0.2-0.5-0.2
		c-0.1,0-0.5,0-1.1,0H32.4z M32.4,28.3V30h1.2c0.5,0,0.8,0,0.9,0c0.2,0,0.4-0.1,0.5-0.3c0.1-0.1,0.2-0.3,0.2-0.5
		c0-0.2,0-0.4-0.1-0.5c-0.1-0.1-0.2-0.2-0.4-0.3c-0.2-0.1-0.6-0.1-1.2-0.1H32.4z"/>
	<path id="XMLID_82_" class="st1" d="M37.6,31.1v-6.4h1.3V30h3.2v1.1H37.6z"/>
	<path id="XMLID_85_" class="st1" d="M43.1,31.1v-6.4h4.8v1.1h-3.5v1.4h3.2v1.1h-3.2V30H48v1.1H43.1z"/>
	<path id="XMLID_89_" class="st1" d="M17.6,41.1h-1.4l-0.6-1.5h-2.6l-0.5,1.5h-1.4l2.5-6.4h1.4L17.6,41.1z M15.2,38.6l-0.9-2.4
		l-0.9,2.4H15.2z"/>
	<path id="XMLID_92_" class="st1" d="M18.3,41.1v-6.4h1.3l2.6,4.3v-4.3h1.2v6.4h-1.3l-2.6-4.2v4.2H18.3z"/>
	<path id="XMLID_94_" class="st1" d="M24.8,41.1v-6.4h1.3v6.4H24.8z"/>
	<path id="XMLID_97_" class="st1" d="M27.4,41.1v-6.4h1.3V40h3.2v1.1H27.4z"/>
	<path id="XMLID_99_" class="st1" d="M32.9,41.1v-6.4h1.3V40h3.2v1.1H32.9z"/>
	<path id="XMLID_104_" class="st1" d="M38.1,37.9c0-0.7,0.1-1.2,0.3-1.7c0.1-0.3,0.3-0.6,0.6-0.9c0.3-0.3,0.5-0.5,0.8-0.6
		c0.4-0.2,0.9-0.3,1.4-0.3c0.9,0,1.7,0.3,2.3,0.9c0.6,0.6,0.9,1.4,0.9,2.5c0,1-0.3,1.9-0.8,2.4c-0.6,0.6-1.3,0.9-2.3,0.9
		c-1,0-1.7-0.3-2.3-0.9C38.3,39.8,38.1,39,38.1,37.9z M39.4,37.9c0,0.7,0.2,1.3,0.5,1.7c0.3,0.4,0.8,0.6,1.3,0.6
		c0.5,0,0.9-0.2,1.3-0.6c0.3-0.4,0.5-0.9,0.5-1.7c0-0.7-0.2-1.3-0.5-1.7c-0.3-0.4-0.8-0.5-1.3-0.5c-0.5,0-1,0.2-1.3,0.6
		C39.6,36.6,39.4,37.1,39.4,37.9z"/>
</g>
</svg>
