<?xml version="1.0" encoding="utf-8"?>
<!-- Generator: Adobe Illustrator 19.0.0, SVG Export Plug-In . SVG Version: 6.00 Build 0)  -->
<svg version="1.1" id="Capa_1" xmlns="http://www.w3.org/2000/svg" xmlns:xlink="http://www.w3.org/1999/xlink" x="0px" y="0px"
	 viewBox="-269 393.1 55.8 55.8" style="enable-background:new -269 393.1 55.8 55.8;" xml:space="preserve">
<style type="text/css">
	.st0{fill:#FFFFFF;}
	.st1{fill:#6B6B6B;}
</style>
<g id="XMLID_6869_">
	<g id="XMLID_6186_">
		<path class="st0" d="M-241.1,447.4c-14.6,0-26.4-11.8-26.4-26.4c0-14.6,11.8-26.4,26.4-26.4s26.4,11.8,26.4,26.4
			C-214.7,435.5-226.5,447.4-241.1,447.4z"/>
		<path class="st1" d="M-241.1,396.1c13.7,0,24.9,11.2,24.9,24.9c0,13.7-11.2,24.9-24.9,24.9c-13.7,0-24.9-11.2-24.9-24.9
			C-266,407.3-254.8,396.1-241.1,396.1 M-241.1,393.1c-15.4,0-27.9,12.5-27.9,27.9c0,15.4,12.5,27.9,27.9,27.9
			c15.4,0,27.9-12.5,27.9-27.9C-213.2,405.6-225.7,393.1-241.1,393.1L-241.1,393.1z"/>
	</g>
</g>
<g id="XMLID_1_">
	<g id="XMLID_324_">
		<path id="XMLID_354_" class="st1" d="M-250.2,419.2v-6.4h1.3v6.4H-250.2z"/>
		<path id="XMLID_352_" class="st1" d="M-247.7,419.2v-6.4h1.3l2.6,4.3v-4.3h1.2v6.4h-1.3l-2.6-4.2v4.2
			C-246.5,419.2-247.7,419.2-247.7,419.2z"/>
		<path id="XMLID_349_" class="st1" d="M-235.4,419.2h-1.4l-0.6-1.5h-2.6l-0.5,1.5h-1.4l2.5-6.4h1.4L-235.4,419.2z M-237.8,416.6
			l-0.9-2.4l-0.9,2.4H-237.8z"/>
		<path id="XMLID_347_" class="st1" d="M-234.8,417.4v-1.2h2.4v1.2H-234.8z"/>
		<path id="XMLID_345_" class="st1" d="M-264.7,429.2v-6.4h1.3v5.3h3.2v1.1H-264.7z"/>
		<path id="XMLID_341_" class="st1" d="M-253.5,429.2h-1.4l-0.6-1.5h-2.5l-0.5,1.5h-1.4l2.5-6.4h1.4L-253.5,429.2z M-255.9,426.6
			l-0.9-2.4l-0.9,2.4H-255.9z M-257.5,422.3l0.6-1.3h1.4l-1.2,1.3H-257.5z"/>
		<path id="XMLID_339_" class="st1" d="M-252.8,429.2v-6.4h1.9l1.2,4.4l1.2-4.4h2v6.4h-1.2v-5.1l-1.3,5.1h-1.3l-1.3-5.1v5.1H-252.8z
			"/>
		<path id="XMLID_335_" class="st1" d="M-245.3,422.7h2.6c0.5,0,0.9,0,1.1,0.1c0.3,0,0.5,0.1,0.7,0.3c0.2,0.1,0.4,0.3,0.5,0.5
			c0.1,0.2,0.2,0.5,0.2,0.8s-0.1,0.6-0.2,0.8c-0.2,0.3-0.4,0.4-0.7,0.6c0.4,0.1,0.7,0.3,0.9,0.6c0.2,0.3,0.3,0.6,0.3,1
			c0,0.3-0.1,0.6-0.2,0.9c-0.1,0.3-0.3,0.5-0.6,0.7c-0.2,0.2-0.5,0.3-0.9,0.3c-0.2,0-0.7,0-1.6,0h-2.2L-245.3,422.7L-245.3,422.7z
			 M-244,423.8v1.5h0.9c0.5,0,0.8,0,0.9,0c0.2,0,0.4-0.1,0.5-0.2c0.1-0.1,0.2-0.3,0.2-0.5c0-0.2-0.1-0.4-0.2-0.5
			c-0.1-0.1-0.3-0.2-0.5-0.2c-0.1,0-0.5,0-1.1,0h-0.7V423.8z M-244,426.4v1.7h1.2c0.5,0,0.8,0,0.9,0c0.2,0,0.4-0.1,0.5-0.3
			c0.1-0.1,0.2-0.3,0.2-0.5c0-0.2,0-0.4-0.1-0.5c-0.1-0.1-0.2-0.2-0.4-0.3s-0.6-0.1-1.2-0.1C-242.9,426.4-244,426.4-244,426.4z"/>
		<path id="XMLID_332_" class="st1" d="M-238.8,429.2v-6.4h2.8c0.7,0,1.2,0.1,1.5,0.2s0.6,0.3,0.7,0.6c0.1,0.3,0.3,0.6,0.3,1
			c0,0.5-0.1,0.9-0.4,1.2c-0.3,0.3-0.7,0.5-1.3,0.6c0.3,0.2,0.5,0.3,0.7,0.5s0.4,0.5,0.7,1l0.8,1.3h-1.6l-0.9-1.4
			c-0.3-0.5-0.6-0.8-0.7-0.9c-0.1-0.1-0.3-0.2-0.4-0.3c-0.1,0-0.4-0.1-0.7-0.1h-0.3v2.7H-238.8z M-237.5,425.4h1c0.6,0,1,0,1.2-0.1
			s0.3-0.1,0.4-0.3c0.1-0.2,0.1-0.3,0.1-0.5c0-0.2-0.1-0.4-0.2-0.5s-0.3-0.2-0.5-0.3c-0.1,0-0.4,0-0.9,0h-1v1.7H-237.5z"/>
		<path id="XMLID_330_" class="st1" d="M-232.3,429.2v-6.4h1.3v6.4H-232.3z"/>
		<path id="XMLID_328_" class="st1" d="M-225.7,426.8l1.3,0.4c-0.2,0.7-0.5,1.2-1,1.6c-0.4,0.3-1,0.5-1.7,0.5
			c-0.9,0-1.6-0.3-2.1-0.9c-0.6-0.6-0.8-1.4-0.8-2.4c0-1.1,0.3-1.9,0.8-2.5c0.6-0.6,1.3-0.9,2.2-0.9c0.8,0,1.4,0.2,1.9,0.7
			c0.3,0.3,0.5,0.7,0.7,1.2l-1.3,0.3c-0.1-0.3-0.2-0.6-0.5-0.8c-0.2-0.2-0.5-0.3-0.9-0.3c-0.5,0-0.9,0.2-1.2,0.5
			c-0.3,0.3-0.4,0.9-0.4,1.7s0.1,1.4,0.4,1.7c0.3,0.3,0.7,0.5,1.1,0.5c0.3,0,0.6-0.1,0.9-0.3C-225.9,427.6-225.8,427.3-225.7,426.8z
			"/>
		<path id="XMLID_325_" class="st1" d="M-217.5,429.2h-1.4l-0.6-1.5h-2.5l-0.5,1.5h-1.4l2.5-6.4h1.4L-217.5,429.2z M-219.9,426.6
			l-0.9-2.4l-0.9,2.4H-219.9z"/>
	</g>
</g>
</svg>
