<?xml version="1.0" encoding="utf-8"?>
<!-- Generator: Adobe Illustrator 19.0.0, SVG Export Plug-In . SVG Version: 6.00 Build 0)  -->
<svg version="1.1" id="Capa_1" xmlns="http://www.w3.org/2000/svg" xmlns:xlink="http://www.w3.org/1999/xlink" x="0px" y="0px"
	 viewBox="0 0 55.8 55.8" style="enable-background:new 0 0 55.8 55.8;" xml:space="preserve">
<style type="text/css">
	.st0{fill:#A0BE00;}
	.st1{fill:#FFFFFF;}
</style>
<g id="XMLID_6869_">
	<g id="XMLID_98_">
		<g id="XMLID_99_">
			<circle id="XMLID_100_" class="st0" cx="27.9" cy="27.9" r="27.9"/>
		</g>
	</g>
</g>
<g id="XMLID_1_">
	<path id="XMLID_2_" class="st1" d="M14.6,31.1v-6.4h1.9l1.2,4.4l1.2-4.4h2v6.4h-1.2V26l-1.3,5.1H17L15.8,26v5.1H14.6z"/>
	<path id="XMLID_4_" class="st1" d="M22,31.1v-6.4h1.3v6.4H22z"/>
	<path id="XMLID_6_" class="st1" d="M23.9,31.1l2.2-3.4l-2-3.1h1.5l1.3,2.1l1.3-2.1h1.5l-2,3.1l2.2,3.3h-1.6l-1.4-2.2l-1.4,2.2H23.9
		z"/>
	<path id="XMLID_8_" class="st1" d="M32,31.1v-5.4h-1.9v-1.1h5.1v1.1h-1.9v5.4H32z"/>
	<path id="XMLID_19_" class="st1" d="M41.2,31.1h-1.4l-0.6-1.5h-2.6l-0.5,1.5h-1.4l2.5-6.4h1.4L41.2,31.1z M38.8,28.6l-0.9-2.4
		l-0.9,2.4H38.8z"/>
</g>
</svg>
