<?xml version="1.0" encoding="utf-8"?>
<!-- Generator: Adobe Illustrator 19.0.0, SVG Export Plug-In . SVG Version: 6.00 Build 0)  -->
<svg version="1.1" id="Capa_1" xmlns="http://www.w3.org/2000/svg" xmlns:xlink="http://www.w3.org/1999/xlink" x="0px" y="0px"
	 viewBox="-269 393.1 55.8 55.8" style="enable-background:new -269 393.1 55.8 55.8;" xml:space="preserve">
<style type="text/css">
	.st0{fill:#FFFFFF;}
	.st1{fill:#6B6B6B;}
</style>
<g id="XMLID_6869_">
	<g id="XMLID_6186_">
		<path class="st0" d="M-241.1,447.4c-14.6,0-26.4-11.8-26.4-26.4c0-14.6,11.8-26.4,26.4-26.4s26.4,11.8,26.4,26.4
			C-214.7,435.5-226.5,447.4-241.1,447.4z"/>
		<path class="st1" d="M-241.1,396.1c13.7,0,24.9,11.2,24.9,24.9c0,13.7-11.2,24.9-24.9,24.9c-13.7,0-24.9-11.2-24.9-24.9
			C-266,407.3-254.8,396.1-241.1,396.1 M-241.1,393.1c-15.4,0-27.9,12.5-27.9,27.9c0,15.4,12.5,27.9,27.9,27.9
			c15.4,0,27.9-12.5,27.9-27.9C-213.2,405.6-225.7,393.1-241.1,393.1L-241.1,393.1z"/>
	</g>
</g>
<g id="XMLID_1_">
	<path id="XMLID_2_" class="st1" d="M-264.5,424.2v-6.4h4.8v1.1h-3.5v1.4h3.2v1.1h-3.2v1.7h3.6v1.1H-264.5z"/>
	<path id="XMLID_4_" class="st1" d="M-258.8,422.1l1.3-0.1c0.1,0.4,0.2,0.7,0.5,0.9c0.2,0.2,0.5,0.3,0.9,0.3c0.4,0,0.7-0.1,0.9-0.3
		c0.2-0.2,0.3-0.4,0.3-0.6s0-0.3-0.1-0.4s-0.2-0.2-0.5-0.3c-0.2-0.1-0.5-0.1-1-0.3c-0.7-0.2-1.2-0.4-1.5-0.6
		c-0.4-0.4-0.6-0.8-0.6-1.3c0-0.3,0.1-0.6,0.3-0.9c0.2-0.3,0.5-0.5,0.8-0.7c0.3-0.1,0.8-0.2,1.3-0.2c0.8,0,1.4,0.2,1.8,0.5
		c0.4,0.4,0.6,0.8,0.6,1.4l-1.3,0.1c-0.1-0.3-0.2-0.6-0.4-0.7s-0.5-0.2-0.8-0.2c-0.4,0-0.7,0.1-0.9,0.2c-0.1,0.1-0.2,0.2-0.2,0.4
		c0,0.2,0.1,0.3,0.2,0.4c0.2,0.1,0.6,0.3,1.2,0.4c0.6,0.2,1.1,0.3,1.4,0.5c0.3,0.2,0.5,0.4,0.7,0.7c0.2,0.3,0.3,0.6,0.3,1
		s-0.1,0.7-0.3,1c-0.2,0.3-0.5,0.6-0.9,0.7c-0.4,0.2-0.8,0.2-1.4,0.2c-0.8,0-1.4-0.2-1.9-0.6C-258.5,423.4-258.8,422.8-258.8,422.1z
		"/>
	<path id="XMLID_6_" class="st1" d="M-251.1,424.2v-5.4h-1.9v-1.1h5.1v1.1h-1.9v5.4H-251.1z"/>
	<path id="XMLID_8_" class="st1" d="M-247,424.2v-6.4h2.7c0.7,0,1.2,0.1,1.5,0.2s0.6,0.3,0.7,0.6c0.1,0.3,0.3,0.6,0.3,1
		c0,0.5-0.1,0.9-0.4,1.2c-0.3,0.3-0.7,0.5-1.3,0.6c0.3,0.2,0.5,0.3,0.7,0.5c0.2,0.2,0.4,0.5,0.7,1l0.8,1.3h-1.6l-0.9-1.4
		c-0.3-0.5-0.6-0.8-0.7-0.9s-0.3-0.2-0.4-0.3c-0.1,0-0.4-0.1-0.7-0.1h-0.3v2.7C-245.9,424.2-247,424.2-247,424.2z M-245.7,420.5h1
		c0.6,0,1,0,1.2-0.1s0.3-0.1,0.4-0.3c0.1-0.2,0.1-0.3,0.1-0.5c0-0.2-0.1-0.4-0.2-0.5c-0.1-0.1-0.3-0.2-0.5-0.3c-0.1,0-0.4,0-0.9,0
		h-1L-245.7,420.5L-245.7,420.5z"/>
	<path id="XMLID_65_" class="st1" d="M-240.5,424.2v-6.4h4.8v1.1h-3.5v1.4h3.2v1.1h-3.2v1.7h3.6v1.1H-240.5z"/>
	<path id="XMLID_67_" class="st1" d="M-234.5,424.2v-6.4h1.3v5.3h3.2v1.1H-234.5z"/>
	<path id="XMLID_69_" class="st1" d="M-229,424.2v-6.4h1.3v5.3h3.2v1.1H-229z"/>
	<path id="XMLID_71_" class="st1" d="M-217.7,424.2h-1.4l-0.6-1.5h-2.6l-0.5,1.5h-1.4l2.5-6.4h1.4L-217.7,424.2z M-220.1,421.7
		l-0.9-2.4l-0.9,2.4H-220.1z"/>
</g>
</svg>
