<?xml version="1.0" encoding="utf-8"?>
<!-- Generator: Adobe Illustrator 19.0.0, SVG Export Plug-In . SVG Version: 6.00 Build 0)  -->
<svg version="1.1" id="Capa_1" xmlns="http://www.w3.org/2000/svg" xmlns:xlink="http://www.w3.org/1999/xlink" x="0px" y="0px"
	 viewBox="0 0 55.8 55.8" style="enable-background:new 0 0 55.8 55.8;" xml:space="preserve">
<style type="text/css">
	.st0{fill:#D74434;}
	.st1{fill:#FFFFFF;}
</style>
<g id="XMLID_1_">
	<g id="XMLID_6869_">
		<circle id="XMLID_6186_" class="st0" cx="27.9" cy="27.9" r="27.9"/>
	</g>
	<g id="XMLID_2_">
		<path id="XMLID_3_" class="st1" d="M18.1,26.1h2.9c0.6,0,1,0,1.3,0.1c0.3,0,0.5,0.1,0.7,0.3c0.2,0.1,0.4,0.3,0.5,0.6
			c0.1,0.2,0.2,0.5,0.2,0.8c0,0.3-0.1,0.6-0.3,0.9c-0.2,0.3-0.4,0.5-0.7,0.6c0.4,0.1,0.8,0.3,1,0.6s0.4,0.7,0.4,1.1
			c0,0.3-0.1,0.6-0.2,1c-0.2,0.3-0.4,0.6-0.6,0.7c-0.3,0.2-0.6,0.3-1,0.3c-0.2,0-0.8,0-1.7,0h-2.4V26.1z M19.5,27.3V29h0.9
			c0.6,0,0.9,0,1,0c0.2,0,0.4-0.1,0.6-0.3c0.1-0.1,0.2-0.3,0.2-0.6c0-0.2-0.1-0.4-0.2-0.5c-0.1-0.1-0.3-0.2-0.5-0.3
			c-0.1,0-0.6,0-1.2,0H19.5z M19.5,30.2v1.9h1.3c0.5,0,0.9,0,1,0c0.2,0,0.4-0.1,0.5-0.3c0.1-0.2,0.2-0.4,0.2-0.6
			c0-0.2-0.1-0.4-0.2-0.5s-0.3-0.3-0.5-0.3c-0.2-0.1-0.6-0.1-1.3-0.1H19.5z"/>
		<path id="XMLID_7_" class="st1" d="M25.3,26.1h1.4V30c0,0.6,0,1,0.1,1.2c0.1,0.3,0.2,0.5,0.4,0.7c0.2,0.2,0.6,0.3,1,0.3
			c0.4,0,0.7-0.1,0.9-0.3c0.2-0.2,0.3-0.4,0.4-0.6c0-0.2,0.1-0.6,0.1-1.2v-4H31v3.8c0,0.9,0,1.5-0.1,1.8s-0.2,0.7-0.4,0.9
			c-0.2,0.2-0.5,0.4-0.8,0.6c-0.4,0.1-0.8,0.2-1.4,0.2c-0.7,0-1.2-0.1-1.6-0.2c-0.4-0.2-0.6-0.4-0.8-0.6c-0.2-0.3-0.3-0.5-0.4-0.8
			c-0.1-0.4-0.1-1-0.1-1.8V26.1z"/>
		<path id="XMLID_9_" class="st1" d="M32.1,31l1.4-0.1c0.1,0.5,0.3,0.8,0.5,1c0.3,0.2,0.6,0.3,1,0.3c0.5,0,0.8-0.1,1.1-0.3
			c0.2-0.2,0.4-0.4,0.4-0.7c0-0.2-0.1-0.3-0.1-0.4c-0.1-0.1-0.3-0.2-0.5-0.3c-0.2-0.1-0.6-0.2-1.2-0.3c-0.8-0.2-1.3-0.4-1.6-0.7
			c-0.4-0.4-0.7-0.9-0.7-1.4c0-0.4,0.1-0.7,0.3-1c0.2-0.3,0.5-0.6,0.9-0.7C34,26.1,34.5,26,35,26c0.9,0,1.6,0.2,2,0.6
			c0.5,0.4,0.7,0.9,0.7,1.6l-1.4,0.1c-0.1-0.4-0.2-0.6-0.4-0.8c-0.2-0.2-0.5-0.2-0.9-0.2c-0.4,0-0.7,0.1-1,0.3
			c-0.2,0.1-0.2,0.3-0.2,0.4c0,0.2,0.1,0.3,0.2,0.4c0.2,0.2,0.6,0.3,1.3,0.5c0.7,0.2,1.2,0.3,1.6,0.5c0.3,0.2,0.6,0.4,0.8,0.7
			c0.2,0.3,0.3,0.7,0.3,1.1c0,0.4-0.1,0.8-0.3,1.2c-0.2,0.4-0.6,0.6-1,0.8c-0.4,0.2-0.9,0.3-1.6,0.3c-0.9,0-1.6-0.2-2.1-0.6
			C32.5,32.4,32.2,31.8,32.1,31z"/>
	</g>
</g>
</svg>
