<?xml version="1.0" encoding="utf-8"?>
<!-- Generator: Adobe Illustrator 19.0.0, SVG Export Plug-In . SVG Version: 6.00 Build 0)  -->
<svg version="1.1" id="Capa_1" xmlns="http://www.w3.org/2000/svg" xmlns:xlink="http://www.w3.org/1999/xlink" x="0px" y="0px"
	 viewBox="0 0 55.8 55.8" style="enable-background:new 0 0 55.8 55.8;" xml:space="preserve">
<style type="text/css">
	.st0{fill:#8F6CB0;}
	.st1{fill:#FFFFFF;}
</style>
<g id="XMLID_6869_">
	<g id="XMLID_94_">
		<g id="XMLID_95_">
			<circle id="XMLID_96_" class="st0" cx="27.9" cy="27.9" r="27.9"/>
		</g>
	</g>
</g>
<g id="XMLID_9_">
	<path id="XMLID_19_" class="st1" d="M18.5,31.9h-1.4l-0.6-1.5h-2.6l-0.5,1.5H12l2.5-6.4h1.4L18.5,31.9z M16.1,29.4L15.2,27
		l-0.9,2.4H16.1z M14.5,25.1l0.6-1.3h1.4l-1.2,1.3H14.5z"/>
	<path id="XMLID_71_" class="st1" d="M19.2,31.9v-6.4h2.7c0.7,0,1.2,0.1,1.5,0.2c0.3,0.1,0.6,0.3,0.7,0.6s0.3,0.6,0.3,1
		c0,0.5-0.1,0.9-0.4,1.2c-0.3,0.3-0.7,0.5-1.3,0.6c0.3,0.2,0.5,0.3,0.7,0.5c0.2,0.2,0.4,0.5,0.7,1l0.8,1.3h-1.6l-0.9-1.4
		c-0.3-0.5-0.6-0.8-0.7-0.9c-0.1-0.1-0.3-0.2-0.4-0.3c-0.1,0-0.4-0.1-0.7-0.1h-0.3v2.7H19.2z M20.5,28.2h1c0.6,0,1,0,1.2-0.1
		c0.2-0.1,0.3-0.1,0.4-0.3s0.1-0.3,0.1-0.5c0-0.2-0.1-0.4-0.2-0.5c-0.1-0.1-0.3-0.2-0.5-0.3c-0.1,0-0.4,0-0.9,0h-1V28.2z"/>
	<path id="XMLID_74_" class="st1" d="M25.7,25.5h2.6c0.5,0,0.9,0,1.1,0.1c0.3,0,0.5,0.1,0.7,0.3c0.2,0.1,0.4,0.3,0.5,0.5
		c0.1,0.2,0.2,0.5,0.2,0.8c0,0.3-0.1,0.6-0.2,0.8c-0.2,0.3-0.4,0.4-0.7,0.6c0.4,0.1,0.7,0.3,0.9,0.6s0.3,0.6,0.3,1
		c0,0.3-0.1,0.6-0.2,0.9c-0.1,0.3-0.3,0.5-0.6,0.7c-0.2,0.2-0.5,0.3-0.9,0.3c-0.2,0-0.7,0-1.6,0h-2.2V25.5z M27,26.5V28h0.9
		c0.5,0,0.8,0,0.9,0c0.2,0,0.4-0.1,0.5-0.2c0.1-0.1,0.2-0.3,0.2-0.5c0-0.2-0.1-0.4-0.2-0.5c-0.1-0.1-0.3-0.2-0.5-0.2
		c-0.1,0-0.5,0-1.1,0H27z M27,29.1v1.7h1.2c0.5,0,0.8,0,0.9,0c0.2,0,0.4-0.1,0.5-0.3c0.1-0.1,0.2-0.3,0.2-0.5c0-0.2,0-0.4-0.1-0.5
		c-0.1-0.1-0.2-0.2-0.4-0.3c-0.2-0.1-0.6-0.1-1.2-0.1H27z"/>
	<path id="XMLID_82_" class="st1" d="M31.9,28.7c0-0.7,0.1-1.2,0.3-1.7c0.1-0.3,0.3-0.6,0.6-0.9c0.3-0.3,0.5-0.5,0.8-0.6
		c0.4-0.2,0.9-0.3,1.4-0.3c0.9,0,1.7,0.3,2.3,0.9c0.6,0.6,0.9,1.4,0.9,2.5c0,1-0.3,1.9-0.8,2.4C36.8,31.7,36,32,35.1,32
		c-1,0-1.7-0.3-2.3-0.9C32.2,30.5,31.9,29.7,31.9,28.7z M33.3,28.7c0,0.7,0.2,1.3,0.5,1.7c0.3,0.4,0.8,0.6,1.3,0.6
		c0.5,0,0.9-0.2,1.3-0.6c0.3-0.4,0.5-0.9,0.5-1.7c0-0.7-0.2-1.3-0.5-1.7c-0.3-0.4-0.8-0.5-1.3-0.5c-0.5,0-1,0.2-1.3,0.6
		C33.4,27.4,33.3,27.9,33.3,28.7z"/>
	<path id="XMLID_85_" class="st1" d="M39.2,31.9v-6.4h1.3v5.3h3.2v1.1H39.2z"/>
</g>
</svg>
