<?xml version="1.0" encoding="utf-8"?>
<!-- Generator: Adobe Illustrator 19.0.0, SVG Export Plug-In . SVG Version: 6.00 Build 0)  -->
<svg version="1.1" id="Capa_1" xmlns="http://www.w3.org/2000/svg" xmlns:xlink="http://www.w3.org/1999/xlink" x="0px" y="0px"
	 viewBox="-269 393.1 55.8 55.8" style="enable-background:new -269 393.1 55.8 55.8;" xml:space="preserve">
<style type="text/css">
	.st0{fill:#FFFFFF;}
	.st1{fill:#6B6B6B;}
</style>
<g id="XMLID_6869_">
	<g id="XMLID_6186_">
		<path class="st0" d="M-241.1,447.4c-14.6,0-26.4-11.8-26.4-26.4c0-14.6,11.8-26.4,26.4-26.4s26.4,11.8,26.4,26.4
			C-214.7,435.5-226.5,447.4-241.1,447.4z"/>
		<path class="st1" d="M-241.1,396.1c13.7,0,24.9,11.2,24.9,24.9c0,13.7-11.2,24.9-24.9,24.9c-13.7,0-24.9-11.2-24.9-24.9
			C-266,407.3-254.8,396.1-241.1,396.1 M-241.1,393.1c-15.4,0-27.9,12.5-27.9,27.9c0,15.4,12.5,27.9,27.9,27.9
			c15.4,0,27.9-12.5,27.9-27.9C-213.2,405.6-225.7,393.1-241.1,393.1L-241.1,393.1z"/>
	</g>
</g>
<g id="XMLID_1_">
	<path id="XMLID_2_" class="st1" d="M-254.4,424.2v-6.4h1.9l1.2,4.4l1.2-4.4h2v6.4h-1.2v-5.1l-1.3,5.1h-1.4l-1.2-5.1v5.1H-254.4z"/>
	<path id="XMLID_4_" class="st1" d="M-247,424.2v-6.4h1.3v6.4H-247z"/>
	<path id="XMLID_6_" class="st1" d="M-245.1,424.2l2.2-3.4l-2-3.1h1.5l1.3,2.1l1.3-2.1h1.5l-2,3.1l2.2,3.3h-1.6l-1.4-2.2l-1.4,2.2
		L-245.1,424.2L-245.1,424.2z"/>
	<path id="XMLID_8_" class="st1" d="M-237,424.2v-5.4h-1.9v-1.1h5.1v1.1h-1.9v5.4H-237z"/>
	<path id="XMLID_19_" class="st1" d="M-227.8,424.2h-1.4l-0.6-1.5h-2.6l-0.5,1.5h-1.4l2.5-6.4h1.4L-227.8,424.2z M-230.2,421.7
		l-0.9-2.4l-0.9,2.4H-230.2z"/>
</g>
</svg>
