<?xml version="1.0" encoding="utf-8"?>
<!-- Generator: Adobe Illustrator 19.0.0, SVG Export Plug-In . SVG Version: 6.00 Build 0)  -->
<svg version="1.1" id="Capa_1" xmlns="http://www.w3.org/2000/svg" xmlns:xlink="http://www.w3.org/1999/xlink" x="0px" y="0px"
	 viewBox="0 0 55.8 55.8" style="enable-background:new 0 0 55.8 55.8;" xml:space="preserve">
<style type="text/css">
	.st0{fill:#3B86B1;}
	.st1{fill:#FFFFFF;}
</style>
<g id="XMLID_6869_">
	<g id="XMLID_98_">
		<g id="XMLID_99_">
			<circle id="XMLID_100_" class="st0" cx="27.9" cy="27.9" r="27.9"/>
		</g>
	</g>
</g>
<g id="XMLID_1_">
	<g id="XMLID_324_">
		<path id="XMLID_354_" class="st1" d="M18.8,26.1v-6.4h1.3v6.4H18.8z"/>
		<path id="XMLID_352_" class="st1" d="M21.3,26.1v-6.4h1.3l2.6,4.3v-4.3h1.2v6.4h-1.3l-2.6-4.2v4.2H21.3z"/>
		<path id="XMLID_349_" class="st1" d="M33.6,26.1h-1.4l-0.6-1.5h-2.6l-0.5,1.5h-1.4l2.5-6.4H31L33.6,26.1z M31.2,23.5l-0.9-2.4
			l-0.9,2.4H31.2z"/>
		<path id="XMLID_347_" class="st1" d="M34.2,24.3v-1.2h2.4v1.2H34.2z"/>
		<path id="XMLID_345_" class="st1" d="M4.3,36.1v-6.4h1.3V35h3.2v1.1H4.3z"/>
		<path id="XMLID_341_" class="st1" d="M15.5,36.1h-1.4l-0.6-1.5H11l-0.5,1.5H9.1l2.5-6.4H13L15.5,36.1z M13.1,33.5l-0.9-2.4
			l-0.9,2.4H13.1z M11.5,29.2l0.6-1.3h1.4l-1.2,1.3H11.5z"/>
		<path id="XMLID_339_" class="st1" d="M16.2,36.1v-6.4h1.9l1.2,4.4l1.2-4.4h2v6.4h-1.2V31l-1.3,5.1h-1.3L17.4,31v5.1H16.2z"/>
		<path id="XMLID_335_" class="st1" d="M23.7,29.6h2.6c0.5,0,0.9,0,1.1,0.1c0.3,0,0.5,0.1,0.7,0.3c0.2,0.1,0.4,0.3,0.5,0.5
			c0.1,0.2,0.2,0.5,0.2,0.8c0,0.3-0.1,0.6-0.2,0.8c-0.2,0.3-0.4,0.4-0.7,0.6c0.4,0.1,0.7,0.3,0.9,0.6s0.3,0.6,0.3,1
			c0,0.3-0.1,0.6-0.2,0.9c-0.1,0.3-0.3,0.5-0.6,0.7c-0.2,0.2-0.5,0.3-0.9,0.3c-0.2,0-0.7,0-1.6,0h-2.2V29.6z M25,30.7v1.5h0.9
			c0.5,0,0.8,0,0.9,0c0.2,0,0.4-0.1,0.5-0.2c0.1-0.1,0.2-0.3,0.2-0.5c0-0.2-0.1-0.4-0.2-0.5c-0.1-0.1-0.3-0.2-0.5-0.2
			c-0.1,0-0.5,0-1.1,0H25z M25,33.3V35h1.2c0.5,0,0.8,0,0.9,0c0.2,0,0.4-0.1,0.5-0.3c0.1-0.1,0.2-0.3,0.2-0.5c0-0.2,0-0.4-0.1-0.5
			c-0.1-0.1-0.2-0.2-0.4-0.3c-0.2-0.1-0.6-0.1-1.2-0.1H25z"/>
		<path id="XMLID_332_" class="st1" d="M30.2,36.1v-6.4H33c0.7,0,1.2,0.1,1.5,0.2c0.3,0.1,0.6,0.3,0.7,0.6s0.3,0.6,0.3,1
			c0,0.5-0.1,0.9-0.4,1.2c-0.3,0.3-0.7,0.5-1.3,0.6c0.3,0.2,0.5,0.3,0.7,0.5c0.2,0.2,0.4,0.5,0.7,1l0.8,1.3h-1.6l-0.9-1.4
			c-0.3-0.5-0.6-0.8-0.7-0.9c-0.1-0.1-0.3-0.2-0.4-0.3c-0.1,0-0.4-0.1-0.7-0.1h-0.3v2.7H30.2z M31.5,32.3h1c0.6,0,1,0,1.2-0.1
			c0.2-0.1,0.3-0.1,0.4-0.3s0.1-0.3,0.1-0.5c0-0.2-0.1-0.4-0.2-0.5c-0.1-0.1-0.3-0.2-0.5-0.3c-0.1,0-0.4,0-0.9,0h-1V32.3z"/>
		<path id="XMLID_330_" class="st1" d="M36.7,36.1v-6.4H38v6.4H36.7z"/>
		<path id="XMLID_328_" class="st1" d="M43.3,33.7l1.3,0.4c-0.2,0.7-0.5,1.2-1,1.6c-0.4,0.3-1,0.5-1.7,0.5c-0.9,0-1.6-0.3-2.1-0.9
			c-0.6-0.6-0.8-1.4-0.8-2.4c0-1.1,0.3-1.9,0.8-2.5c0.6-0.6,1.3-0.9,2.2-0.9c0.8,0,1.4,0.2,1.9,0.7c0.3,0.3,0.5,0.7,0.7,1.2
			l-1.3,0.3c-0.1-0.3-0.2-0.6-0.5-0.8c-0.2-0.2-0.5-0.3-0.9-0.3c-0.5,0-0.9,0.2-1.2,0.5c-0.3,0.3-0.4,0.9-0.4,1.7
			c0,0.8,0.1,1.4,0.4,1.7s0.7,0.5,1.1,0.5c0.3,0,0.6-0.1,0.9-0.3C43.1,34.5,43.2,34.2,43.3,33.7z"/>
		<path id="XMLID_325_" class="st1" d="M51.5,36.1h-1.4l-0.6-1.5H47l-0.5,1.5h-1.4l2.5-6.4h1.4L51.5,36.1z M49.1,33.5l-0.9-2.4
			l-0.9,2.4H49.1z"/>
	</g>
</g>
</svg>
