<?xml version="1.0" encoding="utf-8"?>
<!-- Generator: Adobe Illustrator 19.0.0, SVG Export Plug-In . SVG Version: 6.00 Build 0)  -->
<svg version="1.1" id="Capa_1" xmlns="http://www.w3.org/2000/svg" xmlns:xlink="http://www.w3.org/1999/xlink" x="0px" y="0px"
	 viewBox="-269 393.1 55.8 55.8" style="enable-background:new -269 393.1 55.8 55.8;" xml:space="preserve">
<style type="text/css">
	.st0{fill:#FFFFFF;}
	.st1{fill:#6B6B6B;}
</style>
<g id="XMLID_6869_">
	<g id="XMLID_6186_">
		<path class="st0" d="M-241.1,447.4c-14.6,0-26.4-11.8-26.4-26.4c0-14.6,11.8-26.4,26.4-26.4s26.4,11.8,26.4,26.4
			C-214.7,435.5-226.5,447.4-241.1,447.4z"/>
		<path class="st1" d="M-241.1,396.1c13.7,0,24.9,11.2,24.9,24.9c0,13.7-11.2,24.9-24.9,24.9c-13.7,0-24.9-11.2-24.9-24.9
			C-266,407.3-254.8,396.1-241.1,396.1 M-241.1,393.1c-15.4,0-27.9,12.5-27.9,27.9c0,15.4,12.5,27.9,27.9,27.9
			c15.4,0,27.9-12.5,27.9-27.9C-213.2,405.6-225.7,393.1-241.1,393.1L-241.1,393.1z"/>
	</g>
</g>
<g id="XMLID_9_">
	<path id="XMLID_19_" class="st1" d="M-250.5,425h-1.4l-0.6-1.5h-2.6l-0.5,1.5h-1.4l2.5-6.4h1.4L-250.5,425z M-252.9,422.5l-0.9-2.4
		l-0.9,2.4H-252.9z M-254.5,418.2l0.6-1.3h1.4l-1.2,1.3H-254.5z"/>
	<path id="XMLID_71_" class="st1" d="M-249.8,425v-6.4h2.7c0.7,0,1.2,0.1,1.5,0.2c0.3,0.1,0.6,0.3,0.7,0.6c0.1,0.3,0.3,0.6,0.3,1
		c0,0.5-0.1,0.9-0.4,1.2c-0.3,0.3-0.7,0.5-1.3,0.6c0.3,0.2,0.5,0.3,0.7,0.5c0.2,0.2,0.4,0.5,0.7,1l0.8,1.3h-1.6l-0.9-1.4
		c-0.3-0.5-0.6-0.8-0.7-0.9c-0.1-0.1-0.3-0.2-0.4-0.3c-0.1,0-0.4-0.1-0.7-0.1h-0.3v2.7C-248.7,425-249.8,425-249.8,425z
		 M-248.5,421.3h1c0.6,0,1,0,1.2-0.1c0.2-0.1,0.3-0.1,0.4-0.3c0.1-0.2,0.1-0.3,0.1-0.5s-0.1-0.4-0.2-0.5s-0.3-0.2-0.5-0.3
		c-0.1,0-0.4,0-0.9,0h-1v1.7H-248.5z"/>
	<path id="XMLID_74_" class="st1" d="M-243.3,418.6h2.6c0.5,0,0.9,0,1.1,0.1c0.3,0,0.5,0.1,0.7,0.3c0.2,0.1,0.4,0.3,0.5,0.5
		c0.1,0.2,0.2,0.5,0.2,0.8s-0.1,0.6-0.2,0.8c-0.2,0.3-0.4,0.4-0.7,0.6c0.4,0.1,0.7,0.3,0.9,0.6c0.2,0.3,0.3,0.6,0.3,1
		c0,0.3-0.1,0.6-0.2,0.9c-0.1,0.3-0.3,0.5-0.6,0.7c-0.2,0.2-0.5,0.3-0.9,0.3c-0.2,0-0.7,0-1.6,0h-2.2L-243.3,418.6L-243.3,418.6z
		 M-242,419.6v1.5h0.9c0.5,0,0.8,0,0.9,0c0.2,0,0.4-0.1,0.5-0.2c0.1-0.1,0.2-0.3,0.2-0.5s-0.1-0.4-0.2-0.5c-0.1-0.1-0.3-0.2-0.5-0.2
		c-0.1,0-0.5,0-1.1,0L-242,419.6L-242,419.6z M-242,422.2v1.7h1.2c0.5,0,0.8,0,0.9,0c0.2,0,0.4-0.1,0.5-0.3c0.1-0.1,0.2-0.3,0.2-0.5
		c0-0.2,0-0.4-0.1-0.5c-0.1-0.1-0.2-0.2-0.4-0.3s-0.6-0.1-1.2-0.1C-240.9,422.2-242,422.2-242,422.2z"/>
	<path id="XMLID_82_" class="st1" d="M-237.1,421.8c0-0.7,0.1-1.2,0.3-1.7c0.1-0.3,0.3-0.6,0.6-0.9c0.3-0.3,0.5-0.5,0.8-0.6
		c0.4-0.2,0.9-0.3,1.4-0.3c0.9,0,1.7,0.3,2.3,0.9c0.6,0.6,0.9,1.4,0.9,2.5c0,1-0.3,1.9-0.8,2.4c-0.6,0.7-1.4,1-2.3,1
		c-1,0-1.7-0.3-2.3-0.9C-236.8,423.6-237.1,422.8-237.1,421.8z M-235.7,421.8c0,0.7,0.2,1.3,0.5,1.7s0.8,0.6,1.3,0.6
		s0.9-0.2,1.3-0.6c0.3-0.4,0.5-0.9,0.5-1.7c0-0.7-0.2-1.3-0.5-1.7c-0.3-0.4-0.8-0.5-1.3-0.5s-1,0.2-1.3,0.6
		C-235.6,420.5-235.7,421-235.7,421.8z"/>
	<path id="XMLID_85_" class="st1" d="M-229.8,425v-6.4h1.3v5.3h3.2v1.1H-229.8z"/>
</g>
</svg>
