<?xml version="1.0" encoding="utf-8"?>
<!-- Generator: Adobe Illustrator 19.0.0, SVG Export Plug-In . SVG Version: 6.00 Build 0)  -->
<svg version="1.1" id="Capa_1" xmlns="http://www.w3.org/2000/svg" xmlns:xlink="http://www.w3.org/1999/xlink" x="0px" y="0px"
	 viewBox="-269 393.1 55.8 55.8" style="enable-background:new -269 393.1 55.8 55.8;" xml:space="preserve">
<style type="text/css">
	.st0{fill:#FFFFFF;}
	.st1{fill:#6B6B6B;}
</style>
<g id="XMLID_1_">
	<g id="XMLID_6869_">
		<g id="XMLID_6186_">
			<path class="st0" d="M-241.1,447.4c-14.6,0-26.4-11.8-26.4-26.4c0-14.6,11.8-26.4,26.4-26.4s26.4,11.8,26.4,26.4
				C-214.7,435.5-226.5,447.4-241.1,447.4z"/>
			<path class="st1" d="M-241.1,396.1c13.7,0,24.9,11.2,24.9,24.9c0,13.7-11.2,24.9-24.9,24.9c-13.7,0-24.9-11.2-24.9-24.9
				C-266,407.3-254.8,396.1-241.1,396.1 M-241.1,393.1c-15.4,0-27.9,12.5-27.9,27.9c0,15.4,12.5,27.9,27.9,27.9
				c15.4,0,27.9-12.5,27.9-27.9C-213.2,405.6-225.7,393.1-241.1,393.1L-241.1,393.1z"/>
		</g>
	</g>
	<g id="XMLID_2_">
		<path id="XMLID_3_" class="st1" d="M-250.9,419.2h2.9c0.6,0,1,0,1.3,0.1c0.3,0,0.5,0.1,0.7,0.3c0.2,0.1,0.4,0.3,0.5,0.6
			c0.1,0.2,0.2,0.5,0.2,0.8c0,0.3-0.1,0.6-0.3,0.9c-0.2,0.3-0.4,0.5-0.7,0.6c0.4,0.1,0.8,0.3,1,0.6c0.2,0.3,0.4,0.7,0.4,1.1
			c0,0.3-0.1,0.6-0.2,1c-0.2,0.3-0.4,0.6-0.6,0.7c-0.3,0.2-0.6,0.3-1,0.3c-0.2,0-0.8,0-1.7,0h-2.4L-250.9,419.2L-250.9,419.2z
			 M-249.5,420.4v1.7h0.9c0.6,0,0.9,0,1,0c0.2,0,0.4-0.1,0.6-0.3c0.1-0.1,0.2-0.3,0.2-0.6c0-0.2-0.1-0.4-0.2-0.5
			c-0.1-0.1-0.3-0.2-0.5-0.3c-0.1,0-0.6,0-1.2,0C-248.7,420.4-249.5,420.4-249.5,420.4z M-249.5,423.3v1.9h1.3c0.5,0,0.9,0,1,0
			c0.2,0,0.4-0.1,0.5-0.3c0.1-0.2,0.2-0.4,0.2-0.6c0-0.2-0.1-0.4-0.2-0.5c-0.1-0.1-0.3-0.3-0.5-0.3c-0.2-0.1-0.6-0.1-1.3-0.1h-1
			V423.3z"/>
		<path id="XMLID_7_" class="st1" d="M-243.7,419.2h1.4v3.9c0,0.6,0,1,0.1,1.2c0.1,0.3,0.2,0.5,0.4,0.7c0.2,0.2,0.6,0.3,1,0.3
			c0.4,0,0.7-0.1,0.9-0.3c0.2-0.2,0.3-0.4,0.4-0.6c0-0.2,0.1-0.6,0.1-1.2v-4h1.4v3.8c0,0.9,0,1.5-0.1,1.8c-0.1,0.3-0.2,0.7-0.4,0.9
			c-0.2,0.2-0.5,0.4-0.8,0.6c-0.4,0.1-0.8,0.2-1.4,0.2c-0.7,0-1.2-0.1-1.6-0.2c-0.4-0.2-0.6-0.4-0.8-0.6c-0.2-0.3-0.3-0.5-0.4-0.8
			c-0.1-0.4-0.1-1-0.1-1.8L-243.7,419.2L-243.7,419.2z"/>
		<path id="XMLID_9_" class="st1" d="M-236.9,424.1l1.4-0.1c0.1,0.5,0.3,0.8,0.5,1c0.3,0.2,0.6,0.3,1,0.3c0.5,0,0.8-0.1,1.1-0.3
			c0.2-0.2,0.4-0.4,0.4-0.7c0-0.2-0.1-0.3-0.1-0.4c-0.1-0.1-0.3-0.2-0.5-0.3c-0.2-0.1-0.6-0.2-1.2-0.3c-0.8-0.2-1.3-0.4-1.6-0.7
			c-0.4-0.4-0.7-0.9-0.7-1.4c0-0.4,0.1-0.7,0.3-1c0.2-0.3,0.5-0.6,0.9-0.7c0.4-0.3,0.9-0.4,1.4-0.4c0.9,0,1.6,0.2,2,0.6
			c0.5,0.4,0.7,0.9,0.7,1.6l-1.4,0.1c-0.1-0.4-0.2-0.6-0.4-0.8c-0.2-0.2-0.5-0.2-0.9-0.2c-0.4,0-0.7,0.1-1,0.3
			c-0.2,0.1-0.2,0.3-0.2,0.4c0,0.2,0.1,0.3,0.2,0.4c0.2,0.2,0.6,0.3,1.3,0.5c0.7,0.2,1.2,0.3,1.6,0.5c0.3,0.2,0.6,0.4,0.8,0.7
			c0.2,0.3,0.3,0.7,0.3,1.1s-0.1,0.8-0.3,1.2s-0.6,0.6-1,0.8c-0.4,0.2-0.9,0.3-1.6,0.3c-0.9,0-1.6-0.2-2.1-0.6
			C-236.5,425.5-236.8,424.9-236.9,424.1z"/>
	</g>
</g>
</svg>
