<?xml version="1.0" encoding="utf-8"?>
<!-- Generator: Adobe Illustrator 19.0.0, SVG Export Plug-In . SVG Version: 6.00 Build 0)  -->
<svg version="1.1" id="Capa_1" xmlns="http://www.w3.org/2000/svg" xmlns:xlink="http://www.w3.org/1999/xlink" x="0px" y="0px"
	 viewBox="-269 393.1 55.8 55.8" style="enable-background:new -269 393.1 55.8 55.8;" xml:space="preserve">
<style type="text/css">
	.st0{fill:#FFFFFF;}
	.st1{fill:#6B6B6B;}
</style>
<g id="XMLID_6869_">
	<g id="XMLID_6186_">
		<path class="st0" d="M-241.1,447.4c-14.6,0-26.4-11.8-26.4-26.4c0-14.6,11.8-26.4,26.4-26.4s26.4,11.8,26.4,26.4
			C-214.7,435.5-226.5,447.4-241.1,447.4z"/>
		<path class="st1" d="M-241.1,396.1c13.7,0,24.9,11.2,24.9,24.9c0,13.7-11.2,24.9-24.9,24.9c-13.7,0-24.9-11.2-24.9-24.9
			C-266,407.3-254.8,396.1-241.1,396.1 M-241.1,393.1c-15.4,0-27.9,12.5-27.9,27.9c0,15.4,12.5,27.9,27.9,27.9
			c15.4,0,27.9-12.5,27.9-27.9C-213.2,405.6-225.7,393.1-241.1,393.1L-241.1,393.1z"/>
	</g>
</g>
<g id="XMLID_1_">
	<path id="XMLID_2_" class="st1" d="M-251.4,414.2h-1.4l-0.6-1.5h-2.6l-0.5,1.5h-1.4l2.5-6.4h1.4L-251.4,414.2z M-253.8,411.7
		l-0.9-2.4l-0.9,2.4H-253.8z"/>
	<path id="XMLID_5_" class="st1" d="M-250.7,414.2v-6.4h1.3l2.6,4.3v-4.3h1.2v6.4h-1.3l-2.6-4.2v4.2
		C-249.5,414.2-250.7,414.2-250.7,414.2z"/>
	<path id="XMLID_7_" class="st1" d="M-244.2,414.2v-6.4h1.3v6.4H-244.2z"/>
	<path id="XMLID_9_" class="st1" d="M-241.6,414.2v-6.4h1.3v5.3h3.2v1.1H-241.6z"/>
	<path id="XMLID_19_" class="st1" d="M-236.1,414.2v-6.4h1.3v5.3h3.2v1.1H-236.1z"/>
	<path id="XMLID_65_" class="st1" d="M-230.9,411c0-0.7,0.1-1.2,0.3-1.7c0.1-0.3,0.3-0.6,0.6-0.9c0.3-0.3,0.5-0.5,0.8-0.6
		c0.4-0.2,0.9-0.3,1.4-0.3c0.9,0,1.7,0.3,2.3,0.9c0.6,0.6,0.9,1.4,0.9,2.5c0,1-0.3,1.9-0.8,2.4c-0.6,0.6-1.3,0.9-2.3,0.9
		s-1.7-0.3-2.3-0.9C-230.7,412.9-230.9,412.1-230.9,411z M-229.6,411c0,0.7,0.2,1.3,0.5,1.7c0.3,0.4,0.8,0.6,1.3,0.6
		s0.9-0.2,1.3-0.6c0.3-0.4,0.5-0.9,0.5-1.7c0-0.7-0.2-1.3-0.5-1.7s-0.8-0.5-1.3-0.5s-1,0.2-1.3,0.6
		C-229.4,409.7-229.6,410.2-229.6,411z"/>
	<path id="XMLID_68_" class="st1" d="M-261.2,421c0-0.7,0.1-1.2,0.3-1.7c0.1-0.3,0.3-0.6,0.6-0.9c0.3-0.3,0.5-0.5,0.8-0.6
		c0.4-0.2,0.9-0.3,1.4-0.3c0.9,0,1.7,0.3,2.3,0.9c0.6,0.6,0.9,1.4,0.9,2.5c0,1-0.3,1.9-0.8,2.4c-0.6,0.6-1.3,0.9-2.3,0.9
		s-1.7-0.3-2.3-0.9C-260.9,422.9-261.2,422.1-261.2,421z M-259.8,421c0,0.7,0.2,1.3,0.5,1.7c0.3,0.4,0.8,0.6,1.3,0.6
		s0.9-0.2,1.3-0.6c0.3-0.4,0.5-0.9,0.5-1.7c0-0.7-0.2-1.3-0.5-1.7c-0.3-0.4-0.8-0.5-1.3-0.5s-1,0.2-1.3,0.6
		C-259.7,419.7-259.8,420.2-259.8,421z"/>
	<path id="XMLID_71_" class="st1" d="M-251.4,417.8h2.4c0.5,0,0.9,0,1.2,0.1c0.4,0.1,0.7,0.3,1,0.6c0.3,0.3,0.5,0.6,0.6,1
		c0.1,0.4,0.2,0.9,0.2,1.5c0,0.5-0.1,1-0.2,1.4c-0.2,0.5-0.4,0.8-0.7,1.1c-0.2,0.2-0.5,0.4-0.9,0.5c-0.3,0.1-0.7,0.1-1.2,0.1h-2.4
		V417.8z M-250.1,418.9v4.2h1c0.4,0,0.6,0,0.8-0.1s0.4-0.1,0.5-0.3c0.1-0.1,0.3-0.3,0.3-0.6c0.1-0.3,0.1-0.7,0.1-1.2s0-0.9-0.1-1.1
		s-0.2-0.5-0.4-0.6c-0.2-0.1-0.4-0.3-0.6-0.3s-0.5-0.1-1.1-0.1h-0.5V418.9z"/>
	<path id="XMLID_74_" class="st1" d="M-245.2,421c0-0.7,0.1-1.2,0.3-1.7c0.1-0.3,0.3-0.6,0.6-0.9s0.5-0.5,0.8-0.6
		c0.4-0.2,0.9-0.3,1.4-0.3c0.9,0,1.7,0.3,2.3,0.9c0.6,0.6,0.9,1.4,0.9,2.5c0,1-0.3,1.9-0.8,2.4c-0.6,0.6-1.3,0.9-2.3,0.9
		s-1.7-0.3-2.3-0.9C-244.9,422.9-245.2,422.1-245.2,421z M-243.8,421c0,0.7,0.2,1.3,0.5,1.7c0.3,0.4,0.8,0.6,1.3,0.6
		s0.9-0.2,1.3-0.6c0.3-0.4,0.5-0.9,0.5-1.7c0-0.7-0.2-1.3-0.5-1.7s-0.8-0.5-1.3-0.5s-1,0.2-1.3,0.6
		C-243.7,419.7-243.8,420.2-243.8,421z"/>
	<path id="XMLID_77_" class="st1" d="M-237.9,417.8h2.6c0.5,0,0.9,0,1.1,0.1c0.3,0,0.5,0.1,0.7,0.3c0.2,0.1,0.4,0.3,0.5,0.5
		c0.1,0.2,0.2,0.5,0.2,0.8c0,0.3-0.1,0.6-0.2,0.8c-0.2,0.3-0.4,0.4-0.7,0.6c0.4,0.1,0.7,0.3,0.9,0.6c0.2,0.3,0.3,0.6,0.3,1
		c0,0.3-0.1,0.6-0.2,0.9c-0.1,0.3-0.3,0.5-0.6,0.7c-0.2,0.2-0.5,0.3-0.9,0.3c-0.2,0-0.7,0-1.6,0h-2.2v-6.6H-237.9z M-236.6,418.8
		v1.5h0.9c0.5,0,0.8,0,0.9,0c0.2,0,0.4-0.1,0.5-0.2c0.1-0.1,0.2-0.3,0.2-0.5c0-0.2-0.1-0.4-0.2-0.5c-0.1-0.1-0.3-0.2-0.5-0.2
		c-0.1,0-0.5,0-1.1,0h-0.7V418.8z M-236.6,421.4v1.7h1.2c0.5,0,0.8,0,0.9,0c0.2,0,0.4-0.1,0.5-0.3c0.1-0.1,0.2-0.3,0.2-0.5
		c0-0.2,0-0.4-0.1-0.5s-0.2-0.2-0.4-0.3c-0.2-0.1-0.6-0.1-1.2-0.1C-235.5,421.4-236.6,421.4-236.6,421.4z"/>
	<path id="XMLID_82_" class="st1" d="M-231.4,424.2v-6.4h1.3v5.3h3.2v1.1H-231.4z"/>
	<path id="XMLID_85_" class="st1" d="M-225.9,424.2v-6.4h4.8v1.1h-3.5v1.4h3.2v1.1h-3.2v1.7h3.6v1.1H-225.9z"/>
	<path id="XMLID_89_" class="st1" d="M-251.4,434.2h-1.4l-0.6-1.5h-2.6l-0.5,1.5h-1.4l2.5-6.4h1.4L-251.4,434.2z M-253.8,431.7
		l-0.9-2.4l-0.9,2.4H-253.8z"/>
	<path id="XMLID_92_" class="st1" d="M-250.7,434.2v-6.4h1.3l2.6,4.3v-4.3h1.2v6.4h-1.3l-2.6-4.2v4.2H-250.7z"/>
	<path id="XMLID_94_" class="st1" d="M-244.2,434.2v-6.4h1.3v6.4H-244.2z"/>
	<path id="XMLID_97_" class="st1" d="M-241.6,434.2v-6.4h1.3v5.3h3.2v1.1H-241.6z"/>
	<path id="XMLID_99_" class="st1" d="M-236.1,434.2v-6.4h1.3v5.3h3.2v1.1H-236.1z"/>
	<path id="XMLID_104_" class="st1" d="M-230.9,431c0-0.7,0.1-1.2,0.3-1.7c0.1-0.3,0.3-0.6,0.6-0.9c0.3-0.3,0.5-0.5,0.8-0.6
		c0.4-0.2,0.9-0.3,1.4-0.3c0.9,0,1.7,0.3,2.3,0.9c0.6,0.6,0.9,1.4,0.9,2.5c0,1-0.3,1.9-0.8,2.4c-0.6,0.6-1.3,0.9-2.3,0.9
		s-1.7-0.3-2.3-0.9C-230.7,432.9-230.9,432.1-230.9,431z M-229.6,431c0,0.7,0.2,1.3,0.5,1.7c0.3,0.4,0.8,0.6,1.3,0.6
		s0.9-0.2,1.3-0.6c0.3-0.4,0.5-0.9,0.5-1.7c0-0.7-0.2-1.3-0.5-1.7s-0.8-0.5-1.3-0.5s-1,0.2-1.3,0.6
		C-229.4,429.7-229.6,430.2-229.6,431z"/>
</g>
</svg>
