<?xml version="1.0" encoding="utf-8"?>
<!-- Generator: Adobe Illustrator 19.0.0, SVG Export Plug-In . SVG Version: 6.00 Build 0)  -->
<svg version="1.1" id="Capa_1" xmlns="http://www.w3.org/2000/svg" xmlns:xlink="http://www.w3.org/1999/xlink" x="0px" y="0px"
	 viewBox="0 0 175.8 34.7" style="enable-background:new 0 0 175.8 34.7;" xml:space="preserve">
<style type="text/css">
	.st0{fill:#3B86B1;stroke:#3B86B1;stroke-miterlimit:10;}
	.st1{fill:#FFFFFF;}
</style>
<g id="XMLID_11576_">
	<g id="XMLID_194_">
		<g id="XMLID_199_">
			<g id="XMLID_200_">
				<polygon id="XMLID_201_" class="st0" points="160.6,0.5 175.1,17.3 160.6,34.2 147.4,34.2 161.9,17.3 147.4,0.5 160.6,0.5 				
					"/>
			</g>
		</g>
		<g id="XMLID_196_">
			<g id="XMLID_197_">
				<polygon id="XMLID_198_" class="st0" points="15.2,34.2 0.7,17.3 15.2,0.5 28.4,0.5 13.9,17.3 28.4,34.2 15.2,34.2 				"/>
			</g>
		</g>
		<polygon id="XMLID_195_" class="st0" points="32.4,0.5 143.4,0.5 157.9,17.3 143.4,34.2 32.4,34.2 17.9,17.3 		"/>
	</g>
</g>
<g id="XMLID_78_">
	<g id="XMLID_315_">
		<path id="XMLID_335_" class="st1" d="M50.1,11.5h4.6c0.9,0,1.6,0,2,0.1s0.8,0.2,1.2,0.5s0.6,0.6,0.9,1s0.4,0.8,0.4,1.3
			c0,0.5-0.1,1-0.4,1.5c-0.3,0.4-0.7,0.8-1.2,1c0.7,0.2,1.2,0.5,1.6,1s0.6,1.1,0.6,1.7c0,0.5-0.1,1-0.4,1.5s-0.6,0.9-1,1.2
			c-0.4,0.3-0.9,0.5-1.6,0.5c-0.4,0-1.3,0.1-2.8,0.1h-3.9V11.5z M52.4,13.4v2.6h1.5c0.9,0,1.5,0,1.7,0c0.4,0,0.7-0.2,0.9-0.4
			s0.3-0.5,0.3-0.9c0-0.4-0.1-0.6-0.3-0.9s-0.5-0.4-0.9-0.4c-0.2,0-0.9,0-2,0H52.4z M52.4,18V21h2.1c0.8,0,1.4,0,1.6-0.1
			c0.3-0.1,0.6-0.2,0.8-0.5c0.2-0.2,0.3-0.6,0.3-1c0-0.3-0.1-0.6-0.3-0.9c-0.2-0.2-0.4-0.4-0.7-0.5C56,18,55.3,18,54.3,18H52.4z"/>
		<path id="XMLID_333_" class="st1" d="M61.6,23V11.5h2.2V23H61.6z"/>
		<path id="XMLID_331_" class="st1" d="M71.5,23v-1.2c-0.3,0.4-0.7,0.8-1.2,1s-1,0.4-1.6,0.4c-0.6,0-1.1-0.1-1.5-0.4
			c-0.4-0.2-0.8-0.6-1-1c-0.2-0.4-0.3-1.1-0.3-1.8v-5.3h2.2v3.8c0,1.2,0,1.9,0.1,2.1c0.1,0.3,0.2,0.5,0.4,0.6
			c0.2,0.2,0.5,0.2,0.8,0.2c0.4,0,0.7-0.1,1-0.3s0.5-0.5,0.6-0.8s0.2-1.1,0.2-2.2v-3.5h2.2V23H71.5z"/>
		<path id="XMLID_328_" class="st1" d="M80.6,20.3l2.2,0.4c-0.3,0.8-0.7,1.4-1.3,1.8c-0.6,0.4-1.4,0.6-2.3,0.6
			c-1.4,0-2.5-0.5-3.2-1.4c-0.5-0.8-0.8-1.7-0.8-2.9c0-1.4,0.4-2.5,1.1-3.2c0.7-0.8,1.6-1.2,2.7-1.2c1.2,0,2.2,0.4,2.9,1.2
			c0.7,0.8,1.1,2.1,1,3.7h-5.5c0,0.7,0.2,1.2,0.5,1.5c0.3,0.4,0.8,0.5,1.3,0.5c0.3,0,0.6-0.1,0.9-0.3S80.5,20.7,80.6,20.3z
			 M80.8,18.1c0-0.6-0.2-1.1-0.5-1.4s-0.7-0.5-1.1-0.5c-0.5,0-0.9,0.2-1.2,0.5s-0.5,0.8-0.5,1.4H80.8z"/>
		<path id="XMLID_326_" class="st1" d="M87.3,23v-9.5h-3.4v-1.9H93v1.9h-3.4V23H87.3z"/>
		<path id="XMLID_323_" class="st1" d="M92.8,18.7c0-0.7,0.2-1.4,0.5-2.1c0.4-0.7,0.9-1.2,1.5-1.6c0.7-0.4,1.4-0.5,2.2-0.5
			c1.3,0,2.3,0.4,3.1,1.2c0.8,0.8,1.2,1.8,1.2,3.1c0,1.3-0.4,2.3-1.2,3.1c-0.8,0.8-1.8,1.2-3.1,1.2c-0.8,0-1.5-0.2-2.2-0.5
			c-0.7-0.3-1.2-0.8-1.6-1.5S92.8,19.7,92.8,18.7z M95.1,18.8c0,0.8,0.2,1.5,0.6,1.9s0.9,0.7,1.4,0.7c0.6,0,1.1-0.2,1.4-0.7
			c0.4-0.4,0.6-1.1,0.6-1.9c0-0.8-0.2-1.4-0.6-1.9c-0.4-0.4-0.9-0.7-1.4-0.7c-0.6,0-1.1,0.2-1.4,0.7S95.1,18,95.1,18.8z"/>
		<path id="XMLID_320_" class="st1" d="M102.6,18.7c0-0.7,0.2-1.4,0.5-2.1c0.4-0.7,0.9-1.2,1.5-1.6c0.7-0.4,1.4-0.5,2.2-0.5
			c1.3,0,2.3,0.4,3.1,1.2c0.8,0.8,1.2,1.8,1.2,3.1c0,1.3-0.4,2.3-1.2,3.1s-1.8,1.2-3.1,1.2c-0.8,0-1.5-0.2-2.2-0.5
			c-0.7-0.3-1.2-0.8-1.6-1.5S102.6,19.7,102.6,18.7z M104.8,18.8c0,0.8,0.2,1.5,0.6,1.9s0.9,0.7,1.4,0.7c0.6,0,1.1-0.2,1.4-0.7
			c0.4-0.4,0.6-1.1,0.6-1.9c0-0.8-0.2-1.4-0.6-1.9c-0.4-0.4-0.9-0.7-1.4-0.7c-0.6,0-1.1,0.2-1.4,0.7S104.8,18,104.8,18.8z"/>
		<path id="XMLID_318_" class="st1" d="M116.7,14.7v1.8h-1.5v3.3c0,0.7,0,1.1,0,1.2s0.1,0.2,0.2,0.3s0.2,0.1,0.4,0.1
			c0.2,0,0.5-0.1,0.9-0.2l0.2,1.7c-0.5,0.2-1.1,0.3-1.7,0.3c-0.4,0-0.8-0.1-1.1-0.2s-0.6-0.3-0.7-0.5s-0.3-0.5-0.3-0.9
			c0-0.3-0.1-0.8-0.1-1.5v-3.6h-1v-1.8h1V13l2.2-1.3v2.9H116.7z"/>
		<path id="XMLID_316_" class="st1" d="M120.4,11.5v4.2c0.7-0.8,1.6-1.2,2.5-1.2c0.5,0,1,0.1,1.4,0.3s0.7,0.4,0.9,0.7s0.3,0.6,0.4,1
			s0.1,0.9,0.1,1.6V23h-2.2v-4.4c0-0.9,0-1.4-0.1-1.7s-0.2-0.4-0.4-0.6s-0.5-0.2-0.8-0.2c-0.4,0-0.7,0.1-1,0.3s-0.5,0.4-0.6,0.8
			s-0.2,0.9-0.2,1.6V23h-2.2V11.5H120.4z"/>
	</g>
</g>
</svg>
