<?xml version="1.0" encoding="utf-8"?>
<!-- Generator: Adobe Illustrator 19.0.0, SVG Export Plug-In . SVG Version: 6.00 Build 0)  -->
<svg version="1.1" id="Capa_1" xmlns="http://www.w3.org/2000/svg" xmlns:xlink="http://www.w3.org/1999/xlink" x="0px" y="0px"
	 viewBox="0 0 34.5 34.5" style="enable-background:new 0 0 34.5 34.5;" xml:space="preserve">
<style type="text/css">
	.st0{fill:#FFFFFF;stroke:#3B86B1;stroke-width:1.7139;stroke-miterlimit:10;}
	.st1{fill:#3B86B1;}
</style>
<g id="XMLID_325_">
	<path id="XMLID_710_" class="st0" d="M23,11.5c1,1,1,2.5,0,3.5l-2.2,2.2l2.2,2.2c1,1,1,2.5,0,3.5c-1,1-2.5,1-3.5,0l-2.2-2.2
		l-2.2,2.2c-1,1-2.5,1-3.5,0s-1-2.5,0-3.5l2.2-2.2L11.6,15c-1-1-1-2.5,0-3.5s2.5-1,3.5,0l2.2,2.2l2.2-2.2C20.4,10.6,22,10.6,23,11.5
		L23,11.5z M23,11.5"/>
	<path id="XMLID_331_" class="st1" d="M5,29.5C-1.7,22.7-1.7,11.8,5,5c6.7-6.7,17.7-6.7,24.4,0c6.7,6.7,6.7,17.7,0,24.4
		S11.8,36.2,5,29.5L5,29.5z M26.8,7.7C21.5,2.5,13,2.5,7.7,7.7c-5.3,5.3-5.3,13.8,0,19.1c5.3,5.3,13.8,5.3,19.1,0
		C32.1,21.5,32.1,13,26.8,7.7L26.8,7.7z M27.7,6.8"/>
</g>
</svg>
