<?xml version="1.0" encoding="utf-8"?>
<!-- Generator: Adobe Illustrator 19.0.0, SVG Export Plug-In . SVG Version: 6.00 Build 0)  -->
<svg version="1.1" id="Capa_1" xmlns="http://www.w3.org/2000/svg" xmlns:xlink="http://www.w3.org/1999/xlink" x="0px" y="0px"
	 viewBox="0 0 40 40" style="enable-background:new 0 0 40 40;" xml:space="preserve">
<style type="text/css">
	.st0{fill-rule:evenodd;clip-rule:evenodd;fill:#3B86B1;}
	.st1{fill:#FFFFFF;}
</style>
<g id="XMLID_1_">
	<rect id="XMLID_2374_" class="st0" width="40" height="40"/>
	<g id="XMLID_2353_">
		<path id="XMLID_2361_" class="st1" d="M28.9,20.6l-8.5-7c-0.4-0.3-1-0.3-1.3,0l-8.5,7c-0.2,0.2-0.4,0.5-0.4,0.8V32
			c0,0.6,0.5,1.1,1.1,1.1h16.9c0.6,0,1.1-0.5,1.1-1.1V21.4C29.2,21.1,29.1,20.8,28.9,20.6L28.9,20.6z M20.9,30.9h-2.2v-5.9h2.2V30.9
			z M27.1,30.9H23V24c0-0.6-0.5-1.1-1.1-1.1h-4.4c-0.6,0-1.1,0.5-1.1,1.1v6.9h-4.2v-9l7.4-6.1l7.4,6.1V30.9z M27.1,30.9"/>
		<path id="XMLID_2355_" class="st1" d="M31.8,18.5c-2.4-1.9-4.6-3.7-7-5.7c-0.7-0.6-1.5-1.3-2.2-1.9c-0.7-0.6-1.5-1.2-2.1-1.8
			c-0.4-0.4-1-0.4-1.4,0c-0.7,0.6-1.4,1.2-2.1,1.8c-0.7,0.6-1.5,1.2-2.2,1.9c-2.4,2-4.6,3.8-7,5.7c-0.5,0.4-0.5,1-0.2,1.5
			c0.4,0.5,1,0.5,1.5,0.2c2.4-1.9,4.6-3.7,7-5.7c0,0,0,0,0,0c0.7-0.6,1.4-1.2,2.1-1.8c0.5-0.4,1-0.8,1.5-1.3c0.5,0.4,1,0.8,1.5,1.3
			c0.7,0.6,1.5,1.2,2.1,1.8c0,0,0,0,0,0c2.4,2,4.7,3.8,7,5.7c0.2,0.2,0.4,0.2,0.7,0.2c0.3,0,0.6-0.1,0.8-0.4
			C32.3,19.5,32.3,18.9,31.8,18.5L31.8,18.5z M31.8,18.5"/>
	</g>
</g>
</svg>
