<?xml version="1.0" encoding="utf-8"?>
<!-- Generator: Adobe Illustrator 19.0.0, SVG Export Plug-In . SVG Version: 6.00 Build 0)  -->
<svg version="1.1" id="Capa_1" xmlns="http://www.w3.org/2000/svg" xmlns:xlink="http://www.w3.org/1999/xlink" x="0px" y="0px"
	 viewBox="0 0 226.9 67.2" style="enable-background:new 0 0 226.9 67.2;" xml:space="preserve">
<style type="text/css">
	.st0{fill:#3B86B1;}
	.st1{fill:#17577A;stroke:#17577A;stroke-width:15;stroke-miterlimit:10;}
	.st2{fill:#FAFAFA;}
</style>
<g id="XMLID_510_">
	<g id="XMLID_21_">
		<polygon id="XMLID_22_" class="st0" points="204.4,7.5 226.9,33.6 204.4,59.7 183.9,59.7 206.4,33.6 183.9,7.5 204.4,7.5 		"/>
	</g>
</g>
<g id="XMLID_515_">
	<g id="XMLID_18_">
		<polygon id="XMLID_19_" class="st0" points="22.5,59.7 0,33.6 22.5,7.5 43,7.5 20.5,33.6 43,59.7 22.5,59.7 		"/>
	</g>
</g>
<polygon id="XMLID_517_" class="st1" points="49.2,7.5 177.7,7.5 200.2,33.6 177.7,59.7 49.2,59.7 26.7,33.6 "/>
<g id="XMLID_1_">
	<path id="XMLID_60_" class="st2" d="M47.7,40.7V27.9h2.6v12.8H47.7z"/>
	<path id="XMLID_62_" class="st2" d="M52.5,40.7V27.9H55l5.2,8.5v-8.5h2.4v12.8h-2.6l-5.2-8.3v8.3H52.5z"/>
	<path id="XMLID_64_" class="st2" d="M68,40.7V30.1h-3.8v-2.2h10.2v2.2h-3.8v10.6H68z"/>
	<path id="XMLID_66_" class="st2" d="M75.8,40.7V27.9h5.4c1.4,0,2.4,0.1,3,0.3c0.6,0.2,1.1,0.6,1.5,1.2c0.4,0.6,0.6,1.3,0.6,2
		c0,1-0.3,1.8-0.8,2.4c-0.6,0.6-1.4,1-2.5,1.2c0.6,0.3,1,0.7,1.4,1.1c0.4,0.4,0.9,1.1,1.5,2.1l1.6,2.5h-3.1l-1.9-2.8
		c-0.7-1-1.1-1.6-1.4-1.9s-0.5-0.4-0.8-0.5c-0.3-0.1-0.7-0.1-1.3-0.1h-0.5v5.3H75.8z M78.4,33.3h1.9c1.2,0,2-0.1,2.3-0.2
		s0.5-0.3,0.7-0.5s0.3-0.6,0.3-1c0-0.4-0.1-0.8-0.3-1c-0.2-0.3-0.6-0.4-1-0.5c-0.2,0-0.8,0-1.9,0h-2V33.3z"/>
	<path id="XMLID_69_" class="st2" d="M87.9,34.4c0-1.3,0.2-2.4,0.6-3.3c0.3-0.7,0.7-1.2,1.2-1.8c0.5-0.5,1.1-0.9,1.7-1.2
		c0.8-0.3,1.7-0.5,2.8-0.5c1.9,0,3.4,0.6,4.5,1.8c1.1,1.2,1.7,2.8,1.7,4.9c0,2.1-0.6,3.7-1.7,4.8s-2.6,1.7-4.5,1.7
		c-1.9,0-3.4-0.6-4.5-1.7S87.9,36.4,87.9,34.4z M90.5,34.3c0,1.4,0.3,2.5,1,3.3c0.7,0.7,1.5,1.1,2.5,1.1c1,0,1.9-0.4,2.5-1.1
		c0.7-0.7,1-1.9,1-3.3c0-1.5-0.3-2.6-1-3.3c-0.6-0.7-1.5-1.1-2.6-1.1c-1.1,0-1.9,0.4-2.6,1.1C90.9,31.7,90.5,32.8,90.5,34.3z"/>
	<path id="XMLID_72_" class="st2" d="M102,27.9h4.7c1.1,0,1.9,0.1,2.4,0.2c0.8,0.2,1.4,0.6,1.9,1.2c0.5,0.6,0.9,1.3,1.2,2.1
		c0.3,0.8,0.4,1.8,0.4,3c0,1.1-0.1,2-0.4,2.7c-0.3,0.9-0.8,1.7-1.4,2.3c-0.4,0.4-1.1,0.8-1.8,1c-0.6,0.2-1.3,0.3-2.3,0.3H102V27.9z
		 M104.6,30.1v8.5h1.9c0.7,0,1.2,0,1.6-0.1c0.4-0.1,0.8-0.3,1-0.5c0.3-0.3,0.5-0.7,0.7-1.2c0.2-0.6,0.3-1.4,0.3-2.3
		c0-1-0.1-1.7-0.3-2.3c-0.2-0.5-0.4-0.9-0.7-1.2c-0.3-0.3-0.7-0.5-1.2-0.6c-0.4-0.1-1.1-0.1-2.1-0.1H104.6z"/>
	<path id="XMLID_75_" class="st2" d="M114.7,27.9h2.6v6.9c0,1.1,0,1.8,0.1,2.1c0.1,0.5,0.4,0.9,0.8,1.3c0.4,0.3,1,0.5,1.7,0.5
		c0.7,0,1.3-0.1,1.7-0.4c0.4-0.3,0.6-0.7,0.7-1.1c0.1-0.4,0.1-1.2,0.1-2.2v-7.1h2.6v6.7c0,1.5-0.1,2.6-0.2,3.3s-0.4,1.2-0.8,1.6
		c-0.4,0.4-0.9,0.8-1.5,1s-1.4,0.4-2.5,0.4c-1.2,0-2.1-0.1-2.8-0.4s-1.1-0.6-1.5-1.1c-0.4-0.5-0.6-0.9-0.7-1.4
		c-0.2-0.7-0.3-1.8-0.3-3.2V27.9z"/>
	<path id="XMLID_77_" class="st2" d="M135.5,36l2.5,0.8c-0.4,1.4-1,2.4-1.9,3.1c-0.9,0.7-2,1-3.4,1c-1.7,0-3.1-0.6-4.2-1.7
		c-1.1-1.2-1.6-2.7-1.6-4.8c0-2.1,0.5-3.8,1.6-5c1.1-1.2,2.5-1.8,4.3-1.8c1.6,0,2.8,0.5,3.8,1.4c0.6,0.5,1,1.3,1.3,2.4l-2.6,0.6
		c-0.2-0.7-0.5-1.2-0.9-1.6c-0.5-0.4-1.1-0.6-1.8-0.6c-0.9,0-1.7,0.3-2.3,1c-0.6,0.7-0.9,1.8-0.9,3.3c0,1.6,0.3,2.8,0.9,3.5
		c0.6,0.7,1.3,1,2.3,1c0.7,0,1.3-0.2,1.8-0.7C134.9,37.6,135.3,36.9,135.5,36z"/>
	<path id="XMLID_79_" class="st2" d="M148.1,36l2.5,0.8c-0.4,1.4-1,2.4-1.9,3.1c-0.9,0.7-2,1-3.4,1c-1.7,0-3.1-0.6-4.2-1.7
		c-1.1-1.2-1.6-2.7-1.6-4.8c0-2.1,0.5-3.8,1.6-5c1.1-1.2,2.5-1.8,4.3-1.8c1.6,0,2.8,0.5,3.8,1.4c0.6,0.5,1,1.3,1.3,2.4L148,32
		c-0.2-0.7-0.5-1.2-0.9-1.6c-0.5-0.4-1.1-0.6-1.8-0.6c-0.9,0-1.7,0.3-2.3,1c-0.6,0.7-0.9,1.8-0.9,3.3c0,1.6,0.3,2.8,0.9,3.5
		c0.6,0.7,1.3,1,2.3,1c0.7,0,1.3-0.2,1.8-0.7C147.6,37.6,147.9,36.9,148.1,36z"/>
	<path id="XMLID_81_" class="st2" d="M152.5,40.7V27.9h2.6v12.8H152.5z"/>
	<path id="XMLID_83_" class="st2" d="M156.7,34.4c0-1.3,0.2-2.4,0.6-3.3c0.3-0.7,0.7-1.2,1.2-1.8s1.1-0.9,1.7-1.2
		c0.8-0.3,1.7-0.5,2.8-0.5c1.9,0,3.4,0.6,4.5,1.8s1.7,2.8,1.7,4.9c0,2.1-0.6,3.7-1.7,4.8c-1.1,1.2-2.6,1.7-4.5,1.7
		c-1.9,0-3.4-0.6-4.5-1.7S156.7,36.4,156.7,34.4z M159.4,34.3c0,1.4,0.3,2.5,1,3.3c0.7,0.7,1.5,1.1,2.5,1.1s1.9-0.4,2.5-1.1
		c0.7-0.7,1-1.9,1-3.3c0-1.5-0.3-2.6-1-3.3c-0.6-0.7-1.5-1.1-2.6-1.1s-1.9,0.4-2.6,1.1C159.7,31.7,159.4,32.8,159.4,34.3z
		 M161.4,27.2l1.2-2.6h2.7l-2.4,2.6H161.4z"/>
	<path id="XMLID_87_" class="st2" d="M170.9,40.7V27.9h2.5l5.2,8.5v-8.5h2.4v12.8h-2.6l-5.2-8.3v8.3H170.9z"/>
</g>
</svg>
