<?xml version="1.0" encoding="utf-8"?>
<!-- Generator: Adobe Illustrator 19.0.0, SVG Export Plug-In . SVG Version: 6.00 Build 0)  -->
<svg version="1.1" id="Capa_1" xmlns="http://www.w3.org/2000/svg" xmlns:xlink="http://www.w3.org/1999/xlink" x="0px" y="0px"
	 viewBox="0 0 175.8 34.7" style="enable-background:new 0 0 175.8 34.7;" xml:space="preserve">
<style type="text/css">
	.st0{fill:#3B86B1;stroke:#3B86B1;stroke-miterlimit:10;}
	.st1{fill:#FFFFFF;}
</style>
<g id="XMLID_11576_">
	<g id="XMLID_194_">
		<g id="XMLID_199_">
			<g id="XMLID_200_">
				<polygon id="XMLID_201_" class="st0" points="160.6,0.5 175.1,17.3 160.6,34.2 147.4,34.2 161.9,17.3 147.4,0.5 160.6,0.5 				
					"/>
			</g>
		</g>
		<g id="XMLID_196_">
			<g id="XMLID_197_">
				<polygon id="XMLID_198_" class="st0" points="15.2,34.2 0.7,17.3 15.2,0.5 28.4,0.5 13.9,17.3 28.4,34.2 15.2,34.2 				"/>
			</g>
		</g>
		<polygon id="XMLID_195_" class="st0" points="32.4,0.5 143.4,0.5 157.9,17.3 143.4,34.2 32.4,34.2 17.9,17.3 		"/>
	</g>
</g>
<g id="XMLID_1_">
	<g id="XMLID_331_">
		<path id="XMLID_355_" class="st1" d="M44,23V11.5h3.5l2.1,7.8l2.1-7.8H55V23h-2.1v-9l-2.3,9h-2.2l-2.3-9v9H44z"/>
		<path id="XMLID_352_" class="st1" d="M57.3,13.5v-2h2.2v2H57.3z M57.3,23v-8.3h2.2V23H57.3z"/>
		<path id="XMLID_350_" class="st1" d="M69,17.1l-2.2,0.4c-0.1-0.4-0.2-0.8-0.5-1s-0.6-0.3-1-0.3c-0.5,0-1,0.2-1.3,0.6
			c-0.3,0.4-0.5,1-0.5,1.9c0,1,0.2,1.7,0.5,2.1c0.3,0.4,0.8,0.6,1.3,0.6c0.4,0,0.8-0.1,1-0.4s0.5-0.6,0.6-1.2l2.2,0.4
			c-0.2,1-0.7,1.7-1.3,2.2c-0.6,0.5-1.5,0.8-2.6,0.8c-1.2,0-2.2-0.4-2.9-1.1c-0.7-0.8-1.1-1.8-1.1-3.2c0-1.4,0.4-2.4,1.1-3.2
			c0.7-0.8,1.7-1.1,2.9-1.1c1,0,1.8,0.2,2.4,0.7C68.3,15.6,68.7,16.2,69,17.1z"/>
		<path id="XMLID_348_" class="st1" d="M72.8,23h-2.2v-8.3h2v1.2c0.3-0.6,0.7-0.9,0.9-1.1c0.3-0.2,0.6-0.3,0.9-0.3
			c0.5,0,1,0.1,1.4,0.4l-0.7,1.9c-0.4-0.2-0.7-0.4-1-0.4c-0.3,0-0.6,0.1-0.8,0.3c-0.2,0.2-0.4,0.5-0.5,0.9c-0.1,0.4-0.2,1.4-0.2,2.8
			V23z"/>
		<path id="XMLID_345_" class="st1" d="M76.4,18.7c0-0.7,0.2-1.4,0.5-2.1c0.4-0.7,0.9-1.2,1.5-1.6c0.7-0.4,1.4-0.5,2.2-0.5
			c1.3,0,2.3,0.4,3.1,1.2c0.8,0.8,1.2,1.8,1.2,3.1c0,1.3-0.4,2.3-1.2,3.1c-0.8,0.8-1.8,1.2-3.1,1.2c-0.8,0-1.5-0.2-2.2-0.5
			c-0.7-0.3-1.2-0.8-1.6-1.5S76.4,19.7,76.4,18.7z M78.6,18.8c0,0.8,0.2,1.5,0.6,1.9s0.9,0.7,1.4,0.7c0.6,0,1.1-0.2,1.4-0.7
			c0.4-0.4,0.6-1.1,0.6-1.9c0-0.8-0.2-1.4-0.6-1.9c-0.4-0.4-0.9-0.7-1.4-0.7c-0.6,0-1.1,0.2-1.4,0.7S78.6,18,78.6,18.8z"/>
		<path id="XMLID_342_" class="st1" d="M86.1,18.7c0-0.7,0.2-1.4,0.5-2.1c0.4-0.7,0.9-1.2,1.5-1.6c0.7-0.4,1.4-0.5,2.2-0.5
			c1.3,0,2.3,0.4,3.1,1.2c0.8,0.8,1.2,1.8,1.2,3.1c0,1.3-0.4,2.3-1.2,3.1c-0.8,0.8-1.8,1.2-3.1,1.2c-0.8,0-1.5-0.2-2.2-0.5
			c-0.7-0.3-1.2-0.8-1.6-1.5S86.1,19.7,86.1,18.7z M88.4,18.8c0,0.8,0.2,1.5,0.6,1.9s0.9,0.7,1.4,0.7c0.6,0,1.1-0.2,1.4-0.7
			c0.4-0.4,0.6-1.1,0.6-1.9c0-0.8-0.2-1.4-0.6-1.9c-0.4-0.4-0.9-0.7-1.4-0.7c-0.6,0-1.1,0.2-1.4,0.7S88.4,18,88.4,18.8z"/>
		<path id="XMLID_340_" class="st1" d="M104,23h-2.2v-4.2c0-0.9,0-1.5-0.1-1.7s-0.2-0.5-0.5-0.6s-0.5-0.2-0.8-0.2
			c-0.4,0-0.7,0.1-1,0.3c-0.3,0.2-0.5,0.5-0.6,0.8c-0.1,0.3-0.2,1-0.2,1.9V23h-2.2v-8.3h2v1.2c0.7-0.9,1.6-1.4,2.7-1.4
			c0.5,0,0.9,0.1,1.3,0.3c0.4,0.2,0.7,0.4,0.9,0.7c0.2,0.3,0.3,0.6,0.4,0.9c0.1,0.3,0.1,0.8,0.1,1.5V23z"/>
		<path id="XMLID_337_" class="st1" d="M113.8,23h-2v-1.2c-0.3,0.5-0.7,0.8-1.2,1.1s-0.9,0.3-1.4,0.3c-1,0-1.8-0.4-2.4-1.2
			s-1-1.8-1-3.2c0-1.4,0.3-2.5,1-3.2c0.7-0.7,1.5-1.1,2.5-1.1c0.9,0,1.7,0.4,2.4,1.2v-4.1h2.2V23z M107.9,18.6
			c0,0.9,0.1,1.5,0.4,1.9c0.4,0.6,0.8,0.9,1.5,0.9c0.5,0,0.9-0.2,1.3-0.6s0.5-1.1,0.5-1.9c0-1-0.2-1.6-0.5-2.1s-0.8-0.6-1.3-0.6
			c-0.5,0-1,0.2-1.3,0.6S107.9,17.8,107.9,18.6z"/>
		<path id="XMLID_334_" class="st1" d="M117.6,17.2l-2-0.4c0.2-0.8,0.6-1.4,1.2-1.8s1.4-0.6,2.4-0.6c1,0,1.7,0.1,2.2,0.3
			s0.8,0.5,1,0.9c0.2,0.4,0.3,1,0.3,2l0,2.6c0,0.7,0,1.3,0.1,1.6s0.2,0.7,0.4,1.1H121c-0.1-0.1-0.1-0.4-0.2-0.6
			c0-0.1-0.1-0.2-0.1-0.3c-0.4,0.4-0.8,0.6-1.2,0.8s-0.9,0.3-1.4,0.3c-0.9,0-1.5-0.2-2-0.7s-0.7-1-0.7-1.8c0-0.5,0.1-0.9,0.3-1.3
			s0.5-0.6,0.9-0.8s1-0.4,1.7-0.5c1-0.2,1.7-0.4,2.1-0.5v-0.2c0-0.4-0.1-0.7-0.3-0.9s-0.6-0.3-1.2-0.3c-0.4,0-0.7,0.1-0.9,0.2
			S117.7,16.8,117.6,17.2z M120.5,19c-0.3,0.1-0.7,0.2-1.3,0.3s-1,0.3-1.2,0.4c-0.3,0.2-0.4,0.5-0.4,0.8c0,0.3,0.1,0.6,0.3,0.8
			s0.5,0.3,0.9,0.3c0.4,0,0.8-0.1,1.1-0.4c0.3-0.2,0.4-0.4,0.5-0.7c0.1-0.2,0.1-0.5,0.1-1.1V19z"/>
		<path id="XMLID_332_" class="st1" d="M124.1,20.6l2.2-0.3c0.1,0.4,0.3,0.8,0.6,1s0.7,0.3,1.2,0.3c0.6,0,1-0.1,1.3-0.3
			c0.2-0.1,0.3-0.3,0.3-0.6c0-0.2-0.1-0.3-0.2-0.4c-0.1-0.1-0.4-0.2-0.7-0.3c-1.8-0.4-2.9-0.7-3.4-1.1c-0.7-0.4-1-1.1-1-1.9
			c0-0.7,0.3-1.3,0.9-1.8s1.4-0.7,2.6-0.7c1.1,0,2,0.2,2.5,0.6s0.9,0.9,1.1,1.6l-2.1,0.4c-0.1-0.3-0.3-0.6-0.5-0.7s-0.6-0.3-1.1-0.3
			c-0.6,0-1,0.1-1.2,0.2c-0.2,0.1-0.3,0.3-0.3,0.4c0,0.2,0.1,0.3,0.2,0.4c0.2,0.1,0.9,0.4,2.1,0.6s2,0.6,2.4,1
			c0.5,0.4,0.7,0.9,0.7,1.6c0,0.8-0.3,1.4-1,2s-1.6,0.8-2.8,0.8c-1.1,0-2-0.2-2.7-0.7S124.3,21.4,124.1,20.6z"/>
	</g>
</g>
</svg>
