<?xml version="1.0" encoding="utf-8"?>
<!-- Generator: Adobe Illustrator 19.0.0, SVG Export Plug-In . SVG Version: 6.00 Build 0)  -->
<svg version="1.1" id="Capa_1" xmlns="http://www.w3.org/2000/svg" xmlns:xlink="http://www.w3.org/1999/xlink" x="0px" y="0px"
	 viewBox="0 0 40 40" style="enable-background:new 0 0 40 40;" xml:space="preserve">
<style type="text/css">
	.st0{fill-rule:evenodd;clip-rule:evenodd;fill:#2C6882;}
	.st1{fill:#FFFFFF;}
</style>
<g id="XMLID_1_">
	<rect id="XMLID_2374_" class="st0" width="40" height="40"/>
</g>
<g id="XMLID_7073_">
	<g id="XMLID_7080_">
		<path id="XMLID_7082_" class="st1" d="M30.7,14.7H13.1c-0.8,0-1.4-0.6-1.4-1.4s0.6-1.4,1.4-1.4h17.6c0.8,0,1.4,0.6,1.4,1.4
			S31.5,14.7,30.7,14.7z"/>
		<circle id="XMLID_7081_" class="st1" cx="9.3" cy="13.4" r="1.4"/>
	</g>
	<g id="XMLID_7077_">
		<path id="XMLID_7079_" class="st1" d="M30.7,21.4H13.1c-0.8,0-1.4-0.6-1.4-1.4s0.6-1.4,1.4-1.4h17.6c0.8,0,1.4,0.6,1.4,1.4
			S31.5,21.4,30.7,21.4z"/>
		<circle id="XMLID_7078_" class="st1" cx="9.3" cy="20" r="1.4"/>
	</g>
	<g id="XMLID_7074_">
		<path id="XMLID_7076_" class="st1" d="M30.7,28H13.1c-0.8,0-1.4-0.6-1.4-1.4s0.6-1.4,1.4-1.4h17.6c0.8,0,1.4,0.6,1.4,1.4
			S31.5,28,30.7,28z"/>
		<circle id="XMLID_7075_" class="st1" cx="9.3" cy="26.6" r="1.4"/>
	</g>
</g>
</svg>
