<?xml version="1.0" encoding="utf-8"?>
<!-- Generator: Adobe Illustrator 19.0.0, SVG Export Plug-In . SVG Version: 6.00 Build 0)  -->
<svg version="1.1" id="Capa_1" xmlns="http://www.w3.org/2000/svg" xmlns:xlink="http://www.w3.org/1999/xlink" x="0px" y="0px"
	 viewBox="0 0 155.2 74.3" style="enable-background:new 0 0 155.2 74.3;" xml:space="preserve">
<style type="text/css">
	.st0{opacity:0.5;fill:#FFFFFF;}
	.st1{fill:#3B86B1;}
	.st2{fill-rule:evenodd;clip-rule:evenodd;fill:#FEFEFE;}
</style>
<g id="XMLID_21_">
	<rect id="XMLID_248_" x="0.1" class="st0" width="154.9" height="74.3"/>
	<rect id="XMLID_257_" class="st1" width="155.2" height="48.2"/>
	<g id="XMLID_1_">
		<path id="XMLID_2_" d="M23.8,65.3h-1.7l-0.7-1.8h-3.1l-0.6,1.8h-1.7l3.1-7.9h1.7L23.8,65.3z M20.9,62.2l-1.1-2.9l-1.1,2.9H20.9z"
			/>
		<path id="XMLID_5_" d="M29.7,62.4l1.5,0.5c-0.2,0.9-0.6,1.5-1.2,1.9s-1.2,0.6-2.1,0.6c-1,0-1.9-0.4-2.6-1.1c-0.7-0.7-1-1.7-1-2.9
			c0-1.3,0.3-2.3,1-3.1c0.7-0.7,1.6-1.1,2.7-1.1c1,0,1.7,0.3,2.3,0.9c0.4,0.3,0.6,0.8,0.8,1.5L29.6,60c-0.1-0.4-0.3-0.7-0.6-1
			c-0.3-0.2-0.7-0.4-1.1-0.4c-0.6,0-1.1,0.2-1.4,0.6c-0.4,0.4-0.5,1.1-0.5,2c0,1,0.2,1.7,0.5,2.1s0.8,0.6,1.4,0.6
			c0.4,0,0.8-0.1,1.1-0.4C29.3,63.4,29.5,63,29.7,62.4z"/>
		<path id="XMLID_7_" d="M34.3,65.3v-6.5H32v-1.3h6.3v1.3h-2.3v6.5H34.3z"/>
		<path id="XMLID_10_" d="M39.2,65.3v-7.9h1.6v7.9H39.2z"/>
		<path id="XMLID_13_" d="M44.4,65.3l-2.8-7.9h1.7l2,5.8l1.9-5.8h1.7l-2.8,7.9H44.4z"/>
		<path id="XMLID_15_" d="M49.6,65.3v-7.9h1.6v7.9H49.6z"/>
		<path id="XMLID_17_" d="M52.7,57.5h2.9c0.7,0,1.2,0,1.5,0.2c0.5,0.1,0.9,0.4,1.2,0.7c0.3,0.3,0.6,0.8,0.8,1.3s0.3,1.1,0.3,1.9
			c0,0.6-0.1,1.2-0.2,1.7c-0.2,0.6-0.5,1-0.8,1.4c-0.3,0.3-0.6,0.5-1.1,0.6c-0.4,0.1-0.8,0.2-1.4,0.2h-3V57.5z M54.3,58.8V64h1.2
			c0.4,0,0.8,0,1-0.1c0.3-0.1,0.5-0.2,0.6-0.3s0.3-0.4,0.4-0.8s0.2-0.8,0.2-1.4s-0.1-1.1-0.2-1.4c-0.1-0.3-0.3-0.6-0.5-0.8
			c-0.2-0.2-0.4-0.3-0.7-0.4c-0.2,0-0.7-0.1-1.3-0.1H54.3z"/>
		<path id="XMLID_20_" d="M67.8,65.3h-1.7l-0.7-1.8h-3.1l-0.6,1.8h-1.7l3.1-7.9h1.7L67.8,65.3z M64.9,62.2l-1.1-2.9l-1.1,2.9H64.9z"
			/>
		<path id="XMLID_24_" d="M68.6,57.5h2.9c0.7,0,1.2,0,1.5,0.2c0.5,0.1,0.9,0.4,1.2,0.7c0.3,0.3,0.6,0.8,0.8,1.3s0.3,1.1,0.3,1.9
			c0,0.6-0.1,1.2-0.2,1.7c-0.2,0.6-0.5,1-0.8,1.4c-0.3,0.3-0.6,0.5-1.1,0.6c-0.4,0.1-0.8,0.2-1.4,0.2h-3V57.5z M70.2,58.8V64h1.2
			c0.4,0,0.8,0,1-0.1c0.3-0.1,0.5-0.2,0.6-0.3s0.3-0.4,0.4-0.8s0.2-0.8,0.2-1.4s-0.1-1.1-0.2-1.4c-0.1-0.3-0.3-0.6-0.5-0.8
			c-0.2-0.2-0.4-0.3-0.7-0.4c-0.2,0-0.7-0.1-1.3-0.1H70.2z"/>
		<path id="XMLID_27_" d="M79.6,57.5h2.9c0.7,0,1.2,0,1.5,0.2c0.5,0.1,0.9,0.4,1.2,0.7c0.3,0.3,0.6,0.8,0.8,1.3s0.3,1.1,0.3,1.9
			c0,0.6-0.1,1.2-0.2,1.7c-0.2,0.6-0.5,1-0.8,1.4c-0.3,0.3-0.6,0.5-1.1,0.6c-0.4,0.1-0.8,0.2-1.4,0.2h-3V57.5z M81.2,58.8V64h1.2
			c0.4,0,0.8,0,1-0.1c0.3-0.1,0.5-0.2,0.6-0.3s0.3-0.4,0.4-0.8s0.2-0.8,0.2-1.4s-0.1-1.1-0.2-1.4c-0.1-0.3-0.3-0.6-0.5-0.8
			c-0.2-0.2-0.4-0.3-0.7-0.4c-0.2,0-0.7-0.1-1.3-0.1H81.2z"/>
		<path id="XMLID_30_" d="M87.5,65.3v-7.9h1.6v7.9H87.5z"/>
		<path id="XMLID_32_" d="M90.6,57.5h2.9c0.7,0,1.2,0,1.5,0.2c0.5,0.1,0.9,0.4,1.2,0.7c0.3,0.3,0.6,0.8,0.8,1.3s0.3,1.1,0.3,1.9
			c0,0.6-0.1,1.2-0.2,1.7c-0.2,0.6-0.5,1-0.8,1.4c-0.3,0.3-0.6,0.5-1.1,0.6c-0.4,0.1-0.8,0.2-1.4,0.2h-3V57.5z M92.2,58.8V64h1.2
			c0.4,0,0.8,0,1-0.1c0.3-0.1,0.5-0.2,0.6-0.3s0.3-0.4,0.4-0.8s0.2-0.8,0.2-1.4s-0.1-1.1-0.2-1.4c-0.1-0.3-0.3-0.6-0.5-0.8
			c-0.2-0.2-0.4-0.3-0.7-0.4c-0.2,0-0.7-0.1-1.3-0.1H92.2z"/>
		<path id="XMLID_35_" d="M105.7,65.3h-1.7l-0.7-1.8h-3.1l-0.6,1.8h-1.7l3.1-7.9h1.7L105.7,65.3z M102.7,62.2l-1.1-2.9l-1.1,2.9
			H102.7z M100.7,57l0.7-1.6h1.7l-1.5,1.6H100.7z"/>
		<path id="XMLID_39_" d="M111.6,62.4l1.5,0.5c-0.2,0.9-0.6,1.5-1.2,1.9s-1.2,0.6-2.1,0.6c-1,0-1.9-0.4-2.6-1.1
			c-0.7-0.7-1-1.7-1-2.9c0-1.3,0.3-2.3,1-3.1c0.7-0.7,1.6-1.1,2.7-1.1c1,0,1.7,0.3,2.3,0.9c0.4,0.3,0.6,0.8,0.8,1.5l-1.6,0.4
			c-0.1-0.4-0.3-0.7-0.6-1c-0.3-0.2-0.7-0.4-1.1-0.4c-0.6,0-1.1,0.2-1.4,0.6c-0.4,0.4-0.5,1.1-0.5,2c0,1,0.2,1.7,0.5,2.1
			s0.8,0.6,1.4,0.6c0.4,0,0.8-0.1,1.1-0.4C111.2,63.4,111.4,63,111.6,62.4z"/>
		<path id="XMLID_41_" d="M116.2,65.3v-6.5h-2.3v-1.3h6.3v1.3h-2.3v6.5H116.2z"/>
		<path id="XMLID_43_" d="M121.1,65.3v-7.9h1.6v7.9H121.1z"/>
		<path id="XMLID_45_" d="M129.3,62.4l1.5,0.5c-0.2,0.9-0.6,1.5-1.2,1.9s-1.2,0.6-2.1,0.6c-1,0-1.9-0.4-2.6-1.1
			c-0.7-0.7-1-1.7-1-2.9c0-1.3,0.3-2.3,1-3.1c0.7-0.7,1.6-1.1,2.7-1.1c1,0,1.7,0.3,2.3,0.9c0.4,0.3,0.6,0.8,0.8,1.5l-1.6,0.4
			c-0.1-0.4-0.3-0.7-0.6-1c-0.3-0.2-0.7-0.4-1.1-0.4c-0.6,0-1.1,0.2-1.4,0.6c-0.4,0.4-0.5,1.1-0.5,2c0,1,0.2,1.7,0.5,2.1
			s0.8,0.6,1.4,0.6c0.4,0,0.8-0.1,1.1-0.4C128.9,63.4,129.1,63,129.3,62.4z"/>
		<path id="XMLID_47_" d="M139.3,65.3h-1.7l-0.7-1.8h-3.1l-0.6,1.8h-1.7l3.1-7.9h1.7L139.3,65.3z M136.4,62.2l-1.1-2.9l-1.1,2.9
			H136.4z"/>
	</g>
	<path id="XMLID_284_" class="st2" d="M89.6,18.2v17c0,2.1-1.8,3.8-4,3.8h-20c-2.3,0-4-1.8-4-3.8V15c0-2.3,1.7-4,4-4h17l-4,4h-13
		v20.1h20v-13L89.6,18.2z M86.6,9.8l-1.4,1.6l4.2,4.2l1.4-1.4L86.6,9.8z M89.4,7L88,8.4l4.2,4.4l1.4-1.4L89.4,7z M71,25.4l4.2,4.4
		L88,17l-4.2-4.2L71,25.4z M69.6,31.2h4l-4-4V31.2z"/>
</g>
</svg>
