<?xml version="1.0" encoding="utf-8"?>
<!-- Generator: Adobe Illustrator 19.0.0, SVG Export Plug-In . SVG Version: 6.00 Build 0)  -->
<svg version="1.1" id="Capa_1" xmlns="http://www.w3.org/2000/svg" xmlns:xlink="http://www.w3.org/1999/xlink" x="0px" y="0px"
	 viewBox="0 0 154.9 74.3" style="enable-background:new 0 0 154.9 74.3;" xml:space="preserve">
<style type="text/css">
	.st0{opacity:0.5;fill:#FFFFFF;}
	.st1{fill:#FFFFFF;}
</style>
<g id="XMLID_1_">
	<rect id="XMLID_246_" class="st0" width="154.9" height="74.3"/>
	<rect id="XMLID_221_" width="154.9" height="48.2"/>
	<g id="XMLID_2_">
		<path id="XMLID_3_" d="M52.5,62.4v-1.3H56v3.1c-0.3,0.3-0.8,0.6-1.4,0.9s-1.3,0.4-1.9,0.4c-0.8,0-1.5-0.2-2.2-0.5
			c-0.6-0.3-1.1-0.8-1.4-1.5s-0.5-1.3-0.5-2.1c0-0.8,0.2-1.5,0.5-2.2c0.3-0.6,0.8-1.1,1.5-1.5c0.5-0.3,1.1-0.4,1.9-0.4
			c1,0,1.7,0.2,2.3,0.6s0.9,1,1.1,1.7l-1.6,0.3c-0.1-0.4-0.3-0.7-0.6-0.9c-0.3-0.2-0.7-0.3-1.1-0.3c-0.7,0-1.2,0.2-1.7,0.7
			c-0.4,0.4-0.6,1.1-0.6,2c0,0.9,0.2,1.6,0.6,2.1c0.4,0.5,1,0.7,1.6,0.7c0.3,0,0.7-0.1,1-0.2s0.6-0.3,0.9-0.5v-1H52.5z"/>
		<path id="XMLID_5_" d="M57.5,65.3v-7.8h1.6V64h4v1.3H57.5z"/>
		<path id="XMLID_7_" d="M63.8,61.4c0-0.8,0.1-1.5,0.4-2c0.2-0.4,0.4-0.8,0.7-1.1c0.3-0.3,0.6-0.6,1-0.7c0.5-0.2,1.1-0.3,1.7-0.3
			c1.2,0,2.1,0.4,2.8,1.1s1,1.7,1,3c0,1.3-0.3,2.3-1,3s-1.6,1.1-2.8,1.1c-1.2,0-2.1-0.4-2.8-1.1C64.2,63.7,63.8,62.7,63.8,61.4z
			 M65.5,61.4c0,0.9,0.2,1.6,0.6,2c0.4,0.5,0.9,0.7,1.6,0.7c0.6,0,1.2-0.2,1.6-0.7c0.4-0.5,0.6-1.1,0.6-2.1c0-0.9-0.2-1.6-0.6-2
			s-0.9-0.7-1.6-0.7c-0.7,0-1.2,0.2-1.6,0.7S65.5,60.5,65.5,61.4z"/>
		<path id="XMLID_11_" d="M72.3,62.8l1.5-0.2c0.1,0.5,0.3,0.9,0.6,1.1c0.3,0.2,0.7,0.4,1.2,0.4c0.5,0,0.9-0.1,1.2-0.3
			s0.4-0.5,0.4-0.8c0-0.2-0.1-0.3-0.2-0.5s-0.3-0.2-0.6-0.3c-0.2-0.1-0.6-0.2-1.3-0.3c-0.9-0.2-1.5-0.5-1.8-0.8
			c-0.5-0.4-0.7-1-0.7-1.6c0-0.4,0.1-0.8,0.3-1.1c0.2-0.3,0.6-0.6,1-0.8s0.9-0.3,1.5-0.3c1,0,1.7,0.2,2.2,0.6c0.5,0.4,0.8,1,0.8,1.7
			l-1.6,0.1c-0.1-0.4-0.2-0.7-0.4-0.9c-0.2-0.2-0.6-0.3-1-0.3c-0.5,0-0.8,0.1-1.1,0.3c-0.2,0.1-0.3,0.3-0.3,0.5
			c0,0.2,0.1,0.3,0.2,0.5c0.2,0.2,0.7,0.3,1.5,0.5c0.8,0.2,1.3,0.4,1.7,0.6c0.4,0.2,0.7,0.5,0.9,0.8c0.2,0.3,0.3,0.8,0.3,1.3
			c0,0.5-0.1,0.9-0.4,1.3c-0.3,0.4-0.6,0.7-1.1,0.9s-1,0.3-1.7,0.3c-1,0-1.8-0.2-2.3-0.7S72.4,63.6,72.3,62.8z"/>
		<path id="XMLID_14_" d="M87.1,65.3h-1.7l-0.7-1.8h-3.1l-0.6,1.8h-1.7l3.1-7.9H84L87.1,65.3z M84.2,62.2l-1.1-2.9l-1.1,2.9H84.2z"
			/>
		<path id="XMLID_17_" d="M88,65.3v-7.9h3.3c0.8,0,1.5,0.1,1.8,0.2c0.4,0.1,0.7,0.4,0.9,0.8c0.2,0.4,0.3,0.8,0.3,1.2
			c0,0.6-0.2,1.1-0.5,1.5s-0.9,0.6-1.6,0.7c0.3,0.2,0.6,0.4,0.9,0.7s0.5,0.7,0.9,1.3l1,1.5h-1.9L92,63.6c-0.4-0.6-0.7-1-0.8-1.2
			s-0.3-0.3-0.5-0.3c-0.2-0.1-0.4-0.1-0.8-0.1h-0.3v3.3H88z M89.6,60.8h1.2c0.8,0,1.2,0,1.4-0.1c0.2-0.1,0.3-0.2,0.4-0.3
			s0.2-0.4,0.2-0.6c0-0.3-0.1-0.5-0.2-0.6s-0.3-0.3-0.6-0.3c-0.1,0-0.5,0-1.2,0h-1.2V60.8z"/>
		<path id="XMLID_20_" d="M95.9,65.3v-7.9h1.6v7.9H95.9z"/>
		<path id="XMLID_22_" d="M98.7,61.4c0-0.8,0.1-1.5,0.4-2c0.2-0.4,0.4-0.8,0.7-1.1c0.3-0.3,0.6-0.6,1-0.7c0.5-0.2,1.1-0.3,1.7-0.3
			c1.2,0,2.1,0.4,2.8,1.1s1,1.7,1,3c0,1.3-0.3,2.3-1,3s-1.6,1.1-2.8,1.1c-1.2,0-2.1-0.4-2.8-1.1C99,63.7,98.7,62.7,98.7,61.4z
			 M100.3,61.4c0,0.9,0.2,1.6,0.6,2c0.4,0.5,0.9,0.7,1.6,0.7c0.6,0,1.2-0.2,1.6-0.7c0.4-0.5,0.6-1.1,0.6-2.1c0-0.9-0.2-1.6-0.6-2
			s-0.9-0.7-1.6-0.7c-0.7,0-1.2,0.2-1.6,0.7S100.3,60.5,100.3,61.4z"/>
	</g>
	<g id="XMLID_339_">
		<path id="XMLID_380_" class="st1" d="M91.7,39.7l-3.4-3.4c0.7-1.1,1.1-2.5,1.1-3.9c0-4-3.3-7.3-7.3-7.3c-4,0-7.3,3.3-7.3,7.3
			c0,4,3.3,7.3,7.3,7.3c1.4,0,2.8-0.4,3.9-1.1l3.4,3.4c0.3,0.3,0.7,0.5,1.1,0.5c0.4,0,0.8-0.2,1.1-0.5
			C92.3,41.3,92.3,40.3,91.7,39.7L91.7,39.7z M82.1,37.4c-2.8,0-5-2.2-5-5c0-2.8,2.2-5,5-5c2.8,0,5,2.2,5,5
			C87.1,35.1,84.9,37.4,82.1,37.4L82.1,37.4z M82.1,37.4"/>
		<path id="XMLID_377_" class="st1" d="M76.1,26.4h-8.6c-0.3,0-0.5,0.2-0.5,0.5v0.5c0,0.3,0.2,0.5,0.5,0.5h7.4
			C75.3,27.4,75.7,26.9,76.1,26.4L76.1,26.4z M76.1,26.4"/>
		<path id="XMLID_373_" class="st1" d="M71.2,11.2H78c0.9,0,1.6-0.7,1.6-1.6v0C79.6,8.7,78.9,8,78,8h-0.8c-0.4,0-0.8-0.4-0.8-0.8v0
			c0-1-0.8-1.8-1.8-1.8h0c-1,0-1.8,0.8-1.8,1.8v0C72.8,7.7,72.4,8,72,8h-0.8c-0.9,0-1.6,0.7-1.6,1.6v0
			C69.6,10.5,70.3,11.2,71.2,11.2L71.2,11.2z M74.6,6.5c0.4,0,0.8,0.4,0.8,0.8C75.4,7.7,75,8,74.6,8c-0.4,0-0.8-0.4-0.8-0.8
			C73.8,6.8,74.2,6.5,74.6,6.5L74.6,6.5z M74.6,6.5"/>
		<path id="XMLID_370_" class="st1" d="M67.5,31.1c-0.3,0-0.5,0.2-0.5,0.5v0.5c0,0.3,0.2,0.5,0.5,0.5h6.2c0-0.1,0-0.2,0-0.3
			c0-0.4,0-0.8,0.1-1.3H67.5z M67.5,31.1"/>
		<path id="XMLID_367_" class="st1" d="M82.2,23.3v-0.5c0-0.3-0.2-0.5-0.5-0.5H67.5c-0.3,0-0.5,0.2-0.5,0.5v0.5
			c0,0.3,0.2,0.5,0.5,0.5h14.2C82,23.8,82.2,23.5,82.2,23.3L82.2,23.3z M82.2,23.3"/>
		<path id="XMLID_364_" class="st1" d="M65.4,35.8v-21h18.4v9.3c0.9,0.2,1.8,0.5,2.6,1V11.7c0-1-0.8-1.8-1.8-1.8h-4
			c-0.1,1.4-1.2,2.4-2.6,2.4h-6.9c-1.4,0-2.5-1.1-2.6-2.4h-4c-1,0-1.8,0.8-1.8,1.8v24.9c0,1,0.8,1.8,1.8,1.8h11.7
			c-0.8-0.7-1.4-1.6-1.9-2.6H65.4z M65.4,35.8"/>
		<path id="XMLID_360_" class="st1" d="M82.2,18c0-0.3-0.2-0.5-0.5-0.5H67.5c-0.3,0-0.5,0.2-0.5,0.5v0.5c0,0.3,0.2,0.5,0.5,0.5h14.2
			c0.3,0,0.5-0.2,0.5-0.5V18z M82.2,18"/>
	</g>
</g>
</svg>
