<?xml version="1.0" encoding="utf-8"?>
<!-- Generator: Adobe Illustrator 19.0.0, SVG Export Plug-In . SVG Version: 6.00 Build 0)  -->
<svg version="1.1" id="Capa_1" xmlns="http://www.w3.org/2000/svg" xmlns:xlink="http://www.w3.org/1999/xlink" x="0px" y="0px"
	 viewBox="0 0 155.3 74.3" style="enable-background:new 0 0 155.3 74.3;" xml:space="preserve">
<style type="text/css">
	.st0{opacity:0.5;fill:#FFFFFF;}
	.st1{fill:#3B86B1;}
	.st2{fill:#FFFFFF;}
</style>
<g id="XMLID_1_">
	<rect id="XMLID_281_" x="0.2" class="st0" width="154.9" height="74.3"/>
	<rect id="XMLID_266_" class="st1" width="155.3" height="48.2"/>
	<g id="XMLID_2_">
		<path id="XMLID_3_" d="M30.3,57.5h2.9c0.7,0,1.2,0,1.5,0.2c0.5,0.1,0.9,0.4,1.2,0.7c0.3,0.3,0.6,0.8,0.8,1.3s0.3,1.1,0.3,1.9
			c0,0.6-0.1,1.2-0.2,1.7c-0.2,0.6-0.5,1-0.8,1.4c-0.3,0.3-0.6,0.5-1.1,0.6c-0.4,0.1-0.8,0.2-1.4,0.2h-3V57.5z M31.9,58.8V64h1.2
			c0.4,0,0.8,0,1-0.1c0.3-0.1,0.5-0.2,0.6-0.3s0.3-0.4,0.4-0.8s0.2-0.8,0.2-1.4s-0.1-1.1-0.2-1.4c-0.1-0.3-0.3-0.6-0.5-0.8
			c-0.2-0.2-0.4-0.3-0.7-0.4c-0.2,0-0.7-0.1-1.3-0.1H31.9z"/>
		<path id="XMLID_6_" d="M38.3,65.3v-7.9h5.8v1.3h-4.2v1.7h4v1.3h-4V64h4.4v1.3H38.3z"/>
		<path id="XMLID_8_" d="M45.2,62.8l1.5-0.2c0.1,0.5,0.3,0.9,0.6,1.1c0.3,0.2,0.7,0.4,1.2,0.4c0.5,0,0.9-0.1,1.2-0.3S50,63.3,50,63
			c0-0.2-0.1-0.3-0.2-0.5s-0.3-0.2-0.6-0.3c-0.2-0.1-0.6-0.2-1.3-0.3c-0.9-0.2-1.5-0.5-1.8-0.8c-0.5-0.4-0.7-1-0.7-1.6
			c0-0.4,0.1-0.8,0.3-1.1c0.2-0.3,0.6-0.6,1-0.8s0.9-0.3,1.5-0.3c1,0,1.7,0.2,2.2,0.6c0.5,0.4,0.8,1,0.8,1.7l-1.6,0.1
			c-0.1-0.4-0.2-0.7-0.4-0.9c-0.2-0.2-0.6-0.3-1-0.3c-0.5,0-0.8,0.1-1.1,0.3C47.1,59,47,59.2,47,59.4c0,0.2,0.1,0.3,0.2,0.5
			c0.2,0.2,0.7,0.3,1.5,0.5c0.8,0.2,1.3,0.4,1.7,0.6c0.4,0.2,0.7,0.5,0.9,0.8c0.2,0.3,0.3,0.8,0.3,1.3c0,0.5-0.1,0.9-0.4,1.3
			c-0.3,0.4-0.6,0.7-1.1,0.9s-1,0.3-1.7,0.3c-1,0-1.8-0.2-2.3-0.7S45.3,63.6,45.2,62.8z"/>
		<path id="XMLID_11_" d="M58,62.4l1.5,0.5c-0.2,0.9-0.6,1.5-1.2,1.9s-1.2,0.6-2.1,0.6c-1,0-1.9-0.4-2.6-1.1c-0.7-0.7-1-1.7-1-2.9
			c0-1.3,0.3-2.3,1-3.1c0.7-0.7,1.6-1.1,2.7-1.1c1,0,1.7,0.3,2.3,0.9c0.4,0.3,0.6,0.8,0.8,1.5L58,60c-0.1-0.4-0.3-0.7-0.6-1
			c-0.3-0.2-0.7-0.4-1.1-0.4c-0.6,0-1.1,0.2-1.4,0.6c-0.4,0.4-0.5,1.1-0.5,2c0,1,0.2,1.7,0.5,2.1s0.8,0.6,1.4,0.6
			c0.4,0,0.8-0.1,1.1-0.4C57.7,63.4,57.9,63,58,62.4z"/>
		<path id="XMLID_14_" d="M68,65.3h-1.7l-0.7-1.8h-3.1l-0.6,1.8h-1.7l3.1-7.9h1.7L68,65.3z M65.1,62.2L64,59.3l-1.1,2.9H65.1z"/>
		<path id="XMLID_17_" d="M68.9,65.3v-7.9h3.3c0.8,0,1.5,0.1,1.8,0.2c0.4,0.1,0.7,0.4,0.9,0.8c0.2,0.4,0.3,0.8,0.3,1.2
			c0,0.6-0.2,1.1-0.5,1.5s-0.9,0.6-1.6,0.7c0.3,0.2,0.6,0.4,0.9,0.7s0.5,0.7,0.9,1.3l1,1.5H74l-1.1-1.7c-0.4-0.6-0.7-1-0.8-1.2
			s-0.3-0.3-0.5-0.3c-0.2-0.1-0.4-0.1-0.8-0.1h-0.3v3.3H68.9z M70.5,60.8h1.2c0.8,0,1.2,0,1.4-0.1c0.2-0.1,0.3-0.2,0.4-0.3
			s0.2-0.4,0.2-0.6c0-0.3-0.1-0.5-0.2-0.6s-0.3-0.3-0.6-0.3c-0.1,0-0.5,0-1.2,0h-1.2V60.8z"/>
		<path id="XMLID_20_" d="M80.5,62.4v-1.3h3.4v3.1c-0.3,0.3-0.8,0.6-1.4,0.9s-1.3,0.4-1.9,0.4c-0.8,0-1.5-0.2-2.2-0.5
			c-0.6-0.3-1.1-0.8-1.4-1.5s-0.5-1.3-0.5-2.1c0-0.8,0.2-1.5,0.5-2.2c0.3-0.6,0.8-1.1,1.5-1.5c0.5-0.3,1.1-0.4,1.9-0.4
			c1,0,1.7,0.2,2.3,0.6s0.9,1,1.1,1.7l-1.6,0.3c-0.1-0.4-0.3-0.7-0.6-0.9c-0.3-0.2-0.7-0.3-1.1-0.3c-0.7,0-1.2,0.2-1.7,0.7
			c-0.4,0.4-0.6,1.1-0.6,2c0,0.9,0.2,1.6,0.6,2.1c0.4,0.5,1,0.7,1.6,0.7c0.3,0,0.7-0.1,1-0.2s0.6-0.3,0.9-0.5v-1H80.5z"/>
		<path id="XMLID_22_" d="M92.5,65.3h-1.7L90,63.5h-3.1l-0.6,1.8h-1.7l3.1-7.9h1.7L92.5,65.3z M89.5,62.2l-1.1-2.9l-1.1,2.9H89.5z"
			/>
		<path id="XMLID_25_" d="M93.3,65.3v-7.9h3.3c0.8,0,1.5,0.1,1.8,0.2c0.4,0.1,0.7,0.4,0.9,0.8c0.2,0.4,0.3,0.8,0.3,1.2
			c0,0.6-0.2,1.1-0.5,1.5s-0.9,0.6-1.6,0.7c0.3,0.2,0.6,0.4,0.9,0.7s0.5,0.7,0.9,1.3l1,1.5h-1.9l-1.1-1.7c-0.4-0.6-0.7-1-0.8-1.2
			s-0.3-0.3-0.5-0.3c-0.2-0.1-0.4-0.1-0.8-0.1h-0.3v3.3H93.3z M94.9,60.8h1.2c0.8,0,1.2,0,1.4-0.1c0.2-0.1,0.3-0.2,0.4-0.3
			s0.2-0.4,0.2-0.6c0-0.3-0.1-0.5-0.2-0.6s-0.3-0.3-0.6-0.3c-0.1,0-0.5,0-1.2,0h-1.2V60.8z"/>
		<path id="XMLID_29_" d="M104.3,65.3v-7.9h2.6c1,0,1.6,0,1.9,0.1c0.5,0.1,0.8,0.4,1.1,0.8c0.3,0.4,0.5,0.9,0.5,1.5
			c0,0.5-0.1,0.9-0.3,1.2c-0.2,0.3-0.4,0.6-0.7,0.8c-0.3,0.2-0.5,0.3-0.8,0.4c-0.4,0.1-0.9,0.1-1.6,0.1h-1v3H104.3z M105.9,58.8V61
			h0.9c0.6,0,1,0,1.3-0.1c0.2-0.1,0.4-0.2,0.5-0.4c0.1-0.2,0.2-0.4,0.2-0.6c0-0.3-0.1-0.5-0.3-0.7c-0.2-0.2-0.4-0.3-0.6-0.3
			c-0.2,0-0.6-0.1-1.1-0.1H105.9z"/>
		<path id="XMLID_32_" d="M111.6,57.5h2.9c0.7,0,1.2,0,1.5,0.2c0.5,0.1,0.9,0.4,1.2,0.7c0.3,0.3,0.6,0.8,0.8,1.3s0.3,1.1,0.3,1.9
			c0,0.6-0.1,1.2-0.2,1.7c-0.2,0.6-0.5,1-0.8,1.4c-0.3,0.3-0.6,0.5-1.1,0.6c-0.4,0.1-0.8,0.2-1.4,0.2h-3V57.5z M113.2,58.8V64h1.2
			c0.4,0,0.8,0,1-0.1c0.3-0.1,0.5-0.2,0.6-0.3s0.3-0.4,0.4-0.8s0.2-0.8,0.2-1.4s-0.1-1.1-0.2-1.4c-0.1-0.3-0.3-0.6-0.5-0.8
			c-0.2-0.2-0.4-0.3-0.7-0.4c-0.2,0-0.7-0.1-1.3-0.1H113.2z"/>
		<path id="XMLID_35_" d="M119.6,65.3v-7.9h5.4v1.3h-3.8v1.9h3.3V62h-3.3v3.3H119.6z"/>
	</g>
	<g id="XMLID_167_">
		<path id="XMLID_302_" class="st2" d="M74.4,15.2h-4.8c-0.7,0-1.3,0.6-1.3,1.3s0.6,1.3,1.3,1.3h4.8c0.7,0,1.3-0.6,1.3-1.3
			S75.2,15.2,74.4,15.2z"/>
		<path id="XMLID_297_" class="st2" d="M74.4,20.8h-4.8c-0.7,0-1.3,0.6-1.3,1.3s0.6,1.3,1.3,1.3h4.8c0.7,0,1.3-0.6,1.3-1.3
			S75.2,20.8,74.4,20.8z"/>
		<path id="XMLID_296_" class="st2" d="M80.1,30.2v1.3h0.7c0.8,0,0.8-0.5,0.8-0.7c0-0.2,0-0.6-0.8-0.6L80.1,30.2L80.1,30.2z"/>
		<path id="XMLID_186_" class="st2" d="M90.2,27.7H88V14.1c0-0.4-0.1-0.7-0.4-0.9L82.4,8c-0.2-0.2-0.6-0.4-0.9-0.4H65.7
			c-1.4,0-2.6,1.2-2.6,2.6V38c0,1.4,1.2,2.6,2.6,2.6h19.8c1.4,0,2.6-1.2,2.6-2.6v-2.7h2.2c1.1,0,2-0.9,2-2v-3.5
			C92.3,28.6,91.3,27.7,90.2,27.7z M85.2,37.7H65.9V10.5h13.7v3.9c0,0.9,0.8,1.7,1.7,1.7h3.9v11.6h-6.6c-1.1,0-2,0.9-2,2v3.5
			c0,1.1,0.9,2,2,2h6.6L85.2,37.7L85.2,37.7z M82.4,30.8c0,0.9-0.6,1.5-1.7,1.5h-0.7v0.8c0,0.2-0.2,0.4-0.4,0.4h-0.1
			c-0.2,0-0.4-0.2-0.4-0.4v-3.4c0-0.2,0.2-0.4,0.4-0.4h1.2C81.8,29.3,82.4,29.9,82.4,30.8z M84.5,33.5h-1.3c-0.2,0-0.4-0.2-0.4-0.4
			v-3.4c0-0.2,0.2-0.4,0.4-0.4h1.3c1.2,0,2.1,0.9,2.1,2.1C86.7,32.5,85.7,33.5,84.5,33.5z M89.9,29.8c0,0.2-0.2,0.4-0.4,0.4H88V31
			h1.3c0.2,0,0.4,0.2,0.4,0.4v0.1c0,0.2-0.2,0.4-0.4,0.4H88v1.2c0,0.2-0.2,0.4-0.4,0.4h-0.1c-0.2,0-0.4-0.2-0.4-0.4v-3.4
			c0-0.2,0.2-0.4,0.4-0.4h2C89.7,29.3,89.9,29.5,89.9,29.8L89.9,29.8L89.9,29.8z"/>
		<path id="XMLID_185_" class="st2" d="M84.5,30.2h-0.9v2.5h0.9c0.7,0,1.3-0.6,1.3-1.2C85.8,30.7,85.2,30.2,84.5,30.2z"/>
	</g>
</g>
</svg>
