<?xml version="1.0" encoding="utf-8"?>
<!-- Generator: Adobe Illustrator 19.0.0, SVG Export Plug-In . SVG Version: 6.00 Build 0)  -->
<svg version="1.1" id="Capa_1" xmlns="http://www.w3.org/2000/svg" xmlns:xlink="http://www.w3.org/1999/xlink" x="0px" y="0px"
	 viewBox="0 0 154.9 74.3" style="enable-background:new 0 0 154.9 74.3;" xml:space="preserve">
<style type="text/css">
	.st0{opacity:0.5;fill:#FFFFFF;}
	.st1{fill-rule:evenodd;clip-rule:evenodd;fill:#FEFEFE;}
</style>
<g id="XMLID_1_">
	<rect id="XMLID_282_" class="st0" width="154.9" height="74.3"/>
	<rect id="XMLID_265_" width="154.9" height="48.2"/>
	<g id="XMLID_2_">
		<path id="XMLID_3_" d="M18.6,57.5h2.9c0.7,0,1.2,0,1.5,0.2c0.5,0.1,0.9,0.4,1.2,0.7c0.3,0.3,0.6,0.8,0.8,1.3s0.3,1.1,0.3,1.9
			c0,0.6-0.1,1.2-0.2,1.7c-0.2,0.6-0.5,1-0.8,1.4c-0.3,0.3-0.6,0.5-1.1,0.6c-0.4,0.1-0.8,0.2-1.4,0.2h-3V57.5z M20.2,58.8V64h1.2
			c0.4,0,0.8,0,1-0.1c0.3-0.1,0.5-0.2,0.6-0.3s0.3-0.4,0.4-0.8s0.2-0.8,0.2-1.4s-0.1-1.1-0.2-1.4c-0.1-0.3-0.3-0.6-0.5-0.8
			c-0.2-0.2-0.4-0.3-0.7-0.4c-0.2,0-0.7-0.1-1.3-0.1H20.2z"/>
		<path id="XMLID_6_" d="M26.5,65.3v-7.9h5.8v1.3h-4.2v1.7h4v1.3h-4V64h4.4v1.3H26.5z"/>
		<path id="XMLID_8_" d="M33.5,62.8l1.5-0.2c0.1,0.5,0.3,0.9,0.6,1.1c0.3,0.2,0.7,0.4,1.2,0.4c0.5,0,0.9-0.1,1.2-0.3
			s0.4-0.5,0.4-0.8c0-0.2-0.1-0.3-0.2-0.5s-0.3-0.2-0.6-0.3c-0.2-0.1-0.6-0.2-1.3-0.3c-0.9-0.2-1.5-0.5-1.8-0.8
			c-0.5-0.4-0.7-1-0.7-1.6c0-0.4,0.1-0.8,0.3-1.1c0.2-0.3,0.6-0.6,1-0.8s0.9-0.3,1.5-0.3c1,0,1.7,0.2,2.2,0.6c0.5,0.4,0.8,1,0.8,1.7
			l-1.6,0.1c-0.1-0.4-0.2-0.7-0.4-0.9c-0.2-0.2-0.6-0.3-1-0.3c-0.5,0-0.8,0.1-1.1,0.3c-0.2,0.1-0.3,0.3-0.3,0.5
			c0,0.2,0.1,0.3,0.2,0.5c0.2,0.2,0.7,0.3,1.5,0.5c0.8,0.2,1.3,0.4,1.7,0.6c0.4,0.2,0.7,0.5,0.9,0.8c0.2,0.3,0.3,0.8,0.3,1.3
			c0,0.5-0.1,0.9-0.4,1.3c-0.3,0.4-0.6,0.7-1.1,0.9s-1,0.3-1.7,0.3c-1,0-1.8-0.2-2.3-0.7S33.6,63.6,33.5,62.8z"/>
		<path id="XMLID_11_" d="M46.2,62.4l1.5,0.5c-0.2,0.9-0.6,1.5-1.2,1.9s-1.2,0.6-2.1,0.6c-1,0-1.9-0.4-2.6-1.1c-0.7-0.7-1-1.7-1-2.9
			c0-1.3,0.3-2.3,1-3.1c0.7-0.7,1.6-1.1,2.7-1.1c1,0,1.7,0.3,2.3,0.9c0.4,0.3,0.6,0.8,0.8,1.5L46.2,60c-0.1-0.4-0.3-0.7-0.6-1
			c-0.3-0.2-0.7-0.4-1.1-0.4c-0.6,0-1.1,0.2-1.4,0.6c-0.4,0.4-0.5,1.1-0.5,2c0,1,0.2,1.7,0.5,2.1s0.8,0.6,1.4,0.6
			c0.4,0,0.8-0.1,1.1-0.4C45.9,63.4,46.1,63,46.2,62.4z"/>
		<path id="XMLID_14_" d="M56.3,65.3h-1.7l-0.7-1.8h-3.1L50,65.3h-1.7l3.1-7.9h1.7L56.3,65.3z M53.3,62.2l-1.1-2.9l-1.1,2.9H53.3z"
			/>
		<path id="XMLID_17_" d="M57.1,65.3v-7.9h3.3c0.8,0,1.5,0.1,1.8,0.2c0.4,0.1,0.7,0.4,0.9,0.8c0.2,0.4,0.3,0.8,0.3,1.2
			c0,0.6-0.2,1.1-0.5,1.5s-0.9,0.6-1.6,0.7c0.3,0.2,0.6,0.4,0.9,0.7s0.5,0.7,0.9,1.3l1,1.5h-1.9l-1.1-1.7c-0.4-0.6-0.7-1-0.8-1.2
			s-0.3-0.3-0.5-0.3C59.6,62.1,59.4,62,59,62h-0.3v3.3H57.1z M58.7,60.8h1.2c0.8,0,1.2,0,1.4-0.1c0.2-0.1,0.3-0.2,0.4-0.3
			s0.2-0.4,0.2-0.6c0-0.3-0.1-0.5-0.2-0.6s-0.3-0.3-0.6-0.3c-0.1,0-0.5,0-1.2,0h-1.2V60.8z"/>
		<path id="XMLID_21_" d="M68.7,62.4v-1.3h3.4v3.1c-0.3,0.3-0.8,0.6-1.4,0.9s-1.3,0.4-1.9,0.4c-0.8,0-1.5-0.2-2.2-0.5
			c-0.6-0.3-1.1-0.8-1.4-1.5s-0.5-1.3-0.5-2.1c0-0.8,0.2-1.5,0.5-2.2c0.3-0.6,0.8-1.1,1.5-1.5c0.5-0.3,1.1-0.4,1.9-0.4
			c1,0,1.7,0.2,2.3,0.6s0.9,1,1.1,1.7l-1.6,0.3c-0.1-0.4-0.3-0.7-0.6-0.9c-0.3-0.2-0.7-0.3-1.1-0.3c-0.7,0-1.2,0.2-1.7,0.7
			c-0.4,0.4-0.6,1.1-0.6,2c0,0.9,0.2,1.6,0.6,2.1c0.4,0.5,1,0.7,1.6,0.7c0.3,0,0.7-0.1,1-0.2s0.6-0.3,0.9-0.5v-1H68.7z"/>
		<path id="XMLID_23_" d="M80.7,65.3H79l-0.7-1.8h-3.1l-0.6,1.8h-1.7l3.1-7.9h1.7L80.7,65.3z M77.8,62.2l-1.1-2.9l-1.1,2.9H77.8z"/>
		<path id="XMLID_26_" d="M81.5,65.3v-7.9h3.3c0.8,0,1.5,0.1,1.8,0.2c0.4,0.1,0.7,0.4,0.9,0.8c0.2,0.4,0.3,0.8,0.3,1.2
			c0,0.6-0.2,1.1-0.5,1.5s-0.9,0.6-1.6,0.7c0.3,0.2,0.6,0.4,0.9,0.7s0.5,0.7,0.9,1.3l1,1.5h-1.9l-1.1-1.7c-0.4-0.6-0.7-1-0.8-1.2
			s-0.3-0.3-0.5-0.3c-0.2-0.1-0.4-0.1-0.8-0.1h-0.3v3.3H81.5z M83.1,60.8h1.2c0.8,0,1.2,0,1.4-0.1c0.2-0.1,0.3-0.2,0.4-0.3
			s0.2-0.4,0.2-0.6c0-0.3-0.1-0.5-0.2-0.6s-0.3-0.3-0.6-0.3c-0.1,0-0.5,0-1.2,0h-1.2V60.8z"/>
		<path id="XMLID_29_" d="M92.2,61.4c0-0.8,0.1-1.5,0.4-2c0.2-0.4,0.4-0.8,0.7-1.1c0.3-0.3,0.6-0.6,1-0.7c0.5-0.2,1.1-0.3,1.7-0.3
			c1.2,0,2.1,0.4,2.8,1.1s1,1.7,1,3c0,1.3-0.3,2.3-1,3s-1.6,1.1-2.8,1.1c-1.2,0-2.1-0.4-2.8-1.1C92.6,63.7,92.2,62.7,92.2,61.4z
			 M93.9,61.4c0,0.9,0.2,1.6,0.6,2c0.4,0.5,0.9,0.7,1.6,0.7c0.6,0,1.2-0.2,1.6-0.7c0.4-0.5,0.6-1.1,0.6-2.1c0-0.9-0.2-1.6-0.6-2
			s-0.9-0.7-1.6-0.7c-0.7,0-1.2,0.2-1.6,0.7S93.9,60.5,93.9,61.4z"/>
		<path id="XMLID_32_" d="M101.1,57.5h3.1c0.6,0,1.1,0,1.4,0.1c0.3,0.1,0.6,0.2,0.8,0.3c0.2,0.2,0.4,0.4,0.6,0.7
			c0.2,0.3,0.2,0.6,0.2,0.9c0,0.4-0.1,0.7-0.3,1c-0.2,0.3-0.5,0.5-0.8,0.7c0.5,0.1,0.8,0.4,1.1,0.7s0.4,0.7,0.4,1.2
			c0,0.4-0.1,0.7-0.3,1c-0.2,0.3-0.4,0.6-0.7,0.8s-0.6,0.3-1.1,0.4c-0.3,0-0.9,0-1.9,0.1h-2.7V57.5z M102.7,58.8v1.8h1
			c0.6,0,1,0,1.2,0c0.3,0,0.5-0.1,0.6-0.3c0.2-0.2,0.2-0.4,0.2-0.6c0-0.2-0.1-0.4-0.2-0.6c-0.1-0.2-0.3-0.2-0.6-0.3
			c-0.2,0-0.6,0-1.4,0H102.7z M102.7,61.9V64h1.5c0.6,0,0.9,0,1.1,0c0.2,0,0.4-0.1,0.6-0.3c0.1-0.2,0.2-0.4,0.2-0.7
			c0-0.2-0.1-0.4-0.2-0.6c-0.1-0.2-0.3-0.3-0.5-0.4s-0.7-0.1-1.4-0.1H102.7z"/>
		<path id="XMLID_36_" d="M111.9,57.5h1.6v5c0,0.7-0.1,1.2-0.2,1.5c-0.2,0.5-0.4,0.8-0.8,1.1c-0.4,0.3-0.9,0.4-1.6,0.4
			c-0.8,0-1.4-0.2-1.8-0.7c-0.4-0.4-0.6-1.1-0.6-1.9l1.5-0.2c0,0.5,0.1,0.8,0.2,1c0.2,0.3,0.4,0.4,0.8,0.4c0.4,0,0.6-0.1,0.8-0.3
			c0.1-0.2,0.2-0.6,0.2-1.3V57.5z"/>
		<path id="XMLID_38_" d="M115.2,65.3v-7.9h5.8v1.3h-4.2v1.7h4v1.3h-4V64h4.4v1.3H115.2z"/>
		<path id="XMLID_40_" d="M124.3,65.3v-6.5h-2.3v-1.3h6.3v1.3h-2.3v6.5H124.3z"/>
		<path id="XMLID_42_" d="M128.7,61.4c0-0.8,0.1-1.5,0.4-2c0.2-0.4,0.4-0.8,0.7-1.1c0.3-0.3,0.6-0.6,1-0.7c0.5-0.2,1.1-0.3,1.7-0.3
			c1.2,0,2.1,0.4,2.8,1.1s1,1.7,1,3c0,1.3-0.3,2.3-1,3s-1.6,1.1-2.8,1.1c-1.2,0-2.1-0.4-2.8-1.1C129,63.7,128.7,62.7,128.7,61.4z
			 M130.3,61.4c0,0.9,0.2,1.6,0.6,2c0.4,0.5,0.9,0.7,1.6,0.7c0.6,0,1.2-0.2,1.6-0.7c0.4-0.5,0.6-1.1,0.6-2.1c0-0.9-0.2-1.6-0.6-2
			s-0.9-0.7-1.6-0.7c-0.7,0-1.2,0.2-1.6,0.7S130.3,60.5,130.3,61.4z"/>
	</g>
	<path id="XMLID_292_" class="st1" d="M88.6,29.5c-1.2,0-1.9,1-1.9,1.9v2.9H68.4v-2.9c0-1-1-1.9-2-1.9c-1.2,0-1.9,1-1.9,1.9v4.9
		c0,1.2,0.8,1.9,1.9,1.9h22.2c1,0,1.7-0.8,1.7-1.9v-4.9C90.4,30.5,89.6,29.5,88.6,29.5L88.6,29.5z M77,31.7c0.2,0.2,0.8,0.2,1.2,0
		l6.6-6.8c0.2-0.2,0.2-0.4,0.2-0.8c-0.2-0.2-0.4-0.4-0.6-0.4h-3.3V11.4c0-1-0.6-1.6-1.4-1.6h-4.3c-1,0-1.6,0.6-1.6,1.6v12.3h-3.1
		c-0.4,0-0.6,0.2-0.8,0.4c0,0.4,0,0.6,0.2,0.8L77,31.7z"/>
</g>
</svg>
