<?xml version="1.0" encoding="utf-8"?>
<!-- Generator: Adobe Illustrator 19.0.0, SVG Export Plug-In . SVG Version: 6.00 Build 0)  -->
<svg version="1.1" id="Capa_1" xmlns="http://www.w3.org/2000/svg" xmlns:xlink="http://www.w3.org/1999/xlink" x="0px" y="0px"
	 viewBox="0 0 175.8 34.7" style="enable-background:new 0 0 175.8 34.7;" xml:space="preserve">
<style type="text/css">
	.st0{fill:#3B86B1;stroke:#3B86B1;stroke-miterlimit:10;}
	.st1{fill:#FFFFFF;}
</style>
<g id="XMLID_11576_">
	<g id="XMLID_127_">
		<g id="XMLID_132_">
			<g id="XMLID_133_">
				<polygon id="XMLID_134_" class="st0" points="160.6,0.5 175.1,17.3 160.6,34.2 147.4,34.2 161.9,17.3 147.4,0.5 160.6,0.5 				
					"/>
			</g>
		</g>
		<g id="XMLID_129_">
			<g id="XMLID_130_">
				<polygon id="XMLID_131_" class="st0" points="15.2,34.2 0.7,17.3 15.2,0.5 28.4,0.5 13.9,17.3 28.4,34.2 15.2,34.2 				"/>
			</g>
		</g>
		<polygon id="XMLID_128_" class="st0" points="32.4,0.5 143.4,0.5 157.9,17.3 143.4,34.2 32.4,34.2 17.9,17.3 		"/>
	</g>
</g>
<g id="XMLID_1_">
	<path id="XMLID_2_" class="st1" d="M72.1,24.1l-2.7-11.5h2.4l1.7,7.9l2.1-7.9h2.8l2,8l1.8-8h2.3l-2.8,11.5h-2.5l-2.3-8.6l-2.3,8.6
		H72.1z"/>
	<path id="XMLID_4_" class="st1" d="M85.5,24.1V12.6h2.3v11.5H85.5z"/>
	<path id="XMLID_6_" class="st1" d="M94.5,24.1V12.6h7.9v1.9h-5.5v2.7h4.8v1.9h-4.8v4.9H94.5z"/>
	<path id="XMLID_8_" class="st1" d="M104.1,24.1V12.6h2.3v11.5H104.1z"/>
</g>
</svg>
