<?xml version="1.0" encoding="utf-8"?>
<!-- Generator: Adobe Illustrator 19.0.0, SVG Export Plug-In . SVG Version: 6.00 Build 0)  -->
<svg version="1.1" id="Capa_1" xmlns="http://www.w3.org/2000/svg" xmlns:xlink="http://www.w3.org/1999/xlink" x="0px" y="0px"
	 viewBox="0 0 45.1 46" style="enable-background:new 0 0 45.1 46;" xml:space="preserve">
<style type="text/css">
	.st0{fill:#3B86B1;}
</style>
<g id="XMLID_18077_">
	<path id="XMLID_18078_" class="st0" d="M30.9,26.1l11.8,12.2c1.5,1.5,1.5,3.9,0,5.4c-1.5,1.5-3.9,1.5-5.4,0l-12-12.4"/>
	<path id="XMLID_18079_" class="st0" d="M40,46c-1.3,0-2.6-0.5-3.6-1.5l-12-12.4c-0.5-0.5-0.5-1.2,0-1.7c0.5-0.5,1.2-0.5,1.7,0
		l12,12.4c1,1,2.7,1,3.7,0c1-1,1-2.7,0-3.7L30.1,26.9c-0.5-0.5-0.5-1.2,0-1.7c0.5-0.5,1.2-0.5,1.7,0l11.8,12.2c2,2,2,5.2,0,7.1
		C42.6,45.5,41.3,46,40,46L40,46z M40,46"/>
	<path id="XMLID_18082_" class="st0" d="M22.8,14.7c1.4,0,2.5,1.1,2.5,2.5s-1.1,2.5-2.5,2.5H11.7c-1.4,0-2.5-1.1-2.5-2.5
		s1.1-2.5,2.5-2.5H22.8z"/>
	<path id="XMLID_18085_" class="st0" d="M17.3,34.5C7.7,34.5,0,26.8,0,17.3C0,7.7,7.7,0,17.3,0c9.5,0,17.3,7.7,17.3,17.3
		S26.8,34.5,17.3,34.5L17.3,34.5z M17.3,3.8C9.8,3.8,3.8,9.8,3.8,17.3c0,7.4,6.1,13.5,13.5,13.5c7.4,0,13.5-6.1,13.5-13.5
		C30.8,9.8,24.7,3.8,17.3,3.8L17.3,3.8z M17.3,2.4"/>
</g>
</svg>
