<?xml version="1.0" encoding="utf-8"?>
<!-- Generator: Adobe Illustrator 19.0.0, SVG Export Plug-In . SVG Version: 6.00 Build 0)  -->
<svg version="1.1" id="Capa_1" xmlns="http://www.w3.org/2000/svg" xmlns:xlink="http://www.w3.org/1999/xlink" x="0px" y="0px"
	 viewBox="0 0 422.4 128.5" style="enable-background:new 0 0 422.4 128.5;" xml:space="preserve">
<style type="text/css">
	.st0{fill:#17577A;}
	.st1{fill-rule:evenodd;clip-rule:evenodd;fill:#17577A;}
</style>
<g id="XMLID_1_">
	<g id="XMLID_249_">
		<path id="XMLID_2479_" class="st0" d="M56.3,34C56.3,34,56.3,34,56.3,34L56.3,34c-5.5,0.7-10.8,3.1-15,7.3
			c-4.2,4.2-6.6,9.5-7.3,15c0,0,0,0,0,0c-0.4,3.3,1.9,6.3,5.2,6.7c3.3,0.4,6.3-1.9,6.7-5.2c0,0,0,0,0,0c0.4-2.9,1.7-5.7,3.9-7.9
			c2.2-2.2,5-3.5,7.9-3.9l0,0c0,0,0,0,0,0c3.3-0.4,5.6-3.4,5.2-6.7C62.6,36,59.6,33.6,56.3,34L56.3,34z M59.6,39.7
			c0.2,1.4-0.8,2.7-2.2,2.9l0,0c-3.6,0.5-7.2,2.1-10,4.9c-2.8,2.8-4.4,6.3-4.9,9.9l0,0c0,0,0,0,0,0c0,0,0,0,0,0l0,0
			c-0.2,1.4-1.5,2.4-2.9,2.2c-1.4-0.2-2.4-1.5-2.2-2.9c0,0,0,0,0,0l0,0c0.6-4.7,2.7-9.3,6.3-12.9c3.6-3.6,8.2-5.7,12.9-6.3v0
			c0,0,0,0,0,0C58.1,37.3,59.4,38.3,59.6,39.7L59.6,39.7z M54.2,17.1C54.2,17.1,54.2,17.1,54.2,17.1L54.2,17.1L54.2,17.1L54.2,17.1
			c-9.2,1.1-18,5.2-25,12.2S18.2,45,17.1,54.2l0,0c0,0,0,0,0,0c-0.4,3.3,1.9,6.3,5.2,6.7c3.3,0.4,6.3-1.9,6.7-5.2c0,0,0,0,0,0
			c0.8-6.6,3.7-12.9,8.8-17.9c5-5,11.4-7.9,17.9-8.7l0,0c0,0,0,0,0,0c3.3-0.4,5.6-3.4,5.2-6.7C60.5,19,57.5,16.7,54.2,17.1
			L54.2,17.1z M57.5,22.7c0.2,1.4-0.8,2.7-2.2,2.9c0,0,0,0,0,0l0,0c-7.3,0.9-14.4,4.1-20,9.7c-5.6,5.6-8.8,12.7-9.7,19.9l0,0
			c0,0,0,0,0,0c-0.2,1.4-1.4,2.4-2.9,2.2c-1.4-0.2-2.4-1.5-2.2-2.9c0,0,0,0,0,0l0,0c1-8.4,4.8-16.5,11.2-22.9
			c6.4-6.4,14.6-10.1,23-11.2l0-0.1c0,0,0,0,0,0l0,0.1c0,0,0,0,0,0C56.1,20.3,57.3,21.3,57.5,22.7L57.5,22.7z M52,0
			C52,0,52,0.1,52,0L52,0l-3.5,0.5C37,2.7,26,8.2,17.1,17.1C8.2,26,2.7,37,0.6,48.5L0.1,52l0,0c0,0,0,0,0,0
			c-0.4,3.3,1.9,6.3,5.2,6.7c3.3,0.4,6.2-1.9,6.7-5.2l0,0c1.3-10.2,5.8-20.1,13.7-27.9c7.8-7.8,17.7-12.4,27.9-13.7l0,0
			c3.3-0.4,5.6-3.4,5.2-6.7C58.3,2,55.3-0.4,52,0L52,0z M55.3,5.7c0.2,1.4-0.8,2.7-2.2,2.9c0,0,0,0,0,0v0
			c-10.9,1.4-21.5,6.2-29.9,14.6C14.8,31.5,10,42.1,8.6,53l0,0c0,0,0,0,0,0c-0.2,1.4-1.5,2.4-2.9,2.2c-1.4-0.2-2.4-1.4-2.2-2.8h0
			c1.5-12,6.9-23.7,16.1-32.9C28.8,10.3,40.4,5,52.4,3.5l0,0c0,0,0,0,0,0c0,0,0,0,0,0C53.9,3.3,55.2,4.3,55.3,5.7L55.3,5.7z
			 M55.3,5.7"/>
	</g>
	<g id="XMLID_632_">
		<path id="XMLID_2166_" class="st1" d="M362.5,63.3h52.3c4.1,0,7.5,3.4,7.5,7.5V121c0,4.1-3.4,7.5-7.5,7.5h-52.3
			c-4.1,0-7.5-3.4-7.5-7.5V70.8C355,66.6,358.4,63.3,362.5,63.3L362.5,63.3z M362.5,67.8c-1.6,0-3,1.3-3,3V121c0,1.6,1.3,3,3,3h52.3
			c1.6,0,3-1.3,3-3V70.8c0-1.6-1.3-3-3-3H362.5z"/>
		<path id="XMLID_1990_" class="st1" d="M368.4,73.5h40.6c1.5,0,2.9,0.6,3.9,1.6c1,1,1.6,2.4,1.6,3.9v22.5c0,1.5-0.6,2.9-1.6,3.9
			c-1,1-2.4,1.6-3.9,1.6h-2.8v1.6c0,1.3-0.5,2.4-1.3,3.2c-0.8,0.8-2,1.3-3.2,1.3h-0.3v1c0,1.3-0.5,2.4-1.3,3.2
			c-0.8,0.8-2,1.3-3.2,1.3h-16.1c-1.3,0-2.4-0.5-3.2-1.3s-1.3-2-1.3-3.2v-1h-0.3c-1.3,0-2.4-0.5-3.2-1.3c-0.8-0.8-1.3-2-1.3-3.2
			v-1.6h-2.8c-1.5,0-2.9-0.6-3.9-1.6c-1-1-1.6-2.4-1.6-3.9V79c0-1.5,0.6-2.9,1.6-3.9C365.5,74.1,366.9,73.5,368.4,73.5L368.4,73.5z
			 M408.9,75.2h-40.6c-1.1,0-2,0.4-2.7,1.1c-0.7,0.7-1.1,1.7-1.1,2.7v22.5c0,1.1,0.4,2,1.1,2.7c0.7,0.7,1.7,1.1,2.7,1.1h4.4v3.2
			c0,0.8,0.3,1.5,0.9,2.1c0.5,0.5,1.3,0.9,2.1,0.9h1.9v2.6c0,0.8,0.3,1.5,0.9,2.1c0.5,0.5,1.3,0.9,2.1,0.9h16.1
			c0.8,0,1.5-0.3,2.1-0.9c0.5-0.5,0.9-1.3,0.9-2.1v-2.6h1.9c0.8,0,1.5-0.3,2.1-0.9c0.5-0.5,0.9-1.3,0.9-2.1v-3.2h4.4
			c1.1,0,2-0.4,2.7-1.1c0.7-0.7,1.1-1.7,1.1-2.7V79c0-1.1-0.4-2-1.1-2.7C411,75.6,410,75.2,408.9,75.2z"/>
		<path id="XMLID_633_" class="st1" d="M368.4,77.9c-0.6,0-1.2,0.5-1.2,1.2v22.5c0,0.6,0.5,1.2,1.2,1.2h7.1v5.9
			c0,0.1,0.1,0.2,0.2,0.2h4.7v5.4c0,0.1,0.1,0.2,0.2,0.2h16.1c0.1,0,0.2-0.1,0.2-0.2v-5.4h4.7c0.1,0,0.2-0.1,0.2-0.2v-5.9h7.1
			c0.6,0,1.2-0.5,1.2-1.2V79c0-0.6-0.5-1.2-1.2-1.2H368.4L368.4,77.9z M370.8,81.5h2.9v4.7c0,0.8-0.6,1.4-1.4,1.4h-0.1
			c-0.8,0-1.4-0.6-1.4-1.4V81.5L370.8,81.5z M403.7,81.5h2.9v4.7c0,0.8-0.6,1.4-1.4,1.4h-0.1c-0.8,0-1.4-0.6-1.4-1.4V81.5
			L403.7,81.5z M399,81.5h2.9v4.7c0,0.8-0.6,1.4-1.4,1.4h-0.1c-0.8,0-1.4-0.6-1.4-1.4V81.5L399,81.5z M394.3,81.5h2.9v4.7
			c0,0.8-0.6,1.4-1.4,1.4h-0.1c-0.8,0-1.4-0.6-1.4-1.4V81.5L394.3,81.5z M389.6,81.5h2.9v4.7c0,0.8-0.6,1.4-1.4,1.4H391
			c-0.8,0-1.4-0.6-1.4-1.4V81.5L389.6,81.5z M384.9,81.5h2.9v4.7c0,0.8-0.6,1.4-1.4,1.4h-0.1c-0.8,0-1.4-0.6-1.4-1.4V81.5
			L384.9,81.5z M380.2,81.5h2.9v4.7c0,0.8-0.6,1.4-1.4,1.4h-0.1c-0.8,0-1.4-0.6-1.4-1.4V81.5L380.2,81.5z M375.5,81.5h2.9v4.7
			c0,0.8-0.6,1.4-1.4,1.4h-0.1c-0.8,0-1.4-0.6-1.4-1.4V81.5z"/>
	</g>
</g>
</svg>
