<?xml version="1.0" encoding="utf-8"?>
<!-- Generator: Adobe Illustrator 19.0.0, SVG Export Plug-In . SVG Version: 6.00 Build 0)  -->
<svg version="1.1" id="Capa_1" xmlns="http://www.w3.org/2000/svg" xmlns:xlink="http://www.w3.org/1999/xlink" x="0px" y="0px"
	 viewBox="0 0 424 423.6" style="enable-background:new 0 0 424 423.6;" xml:space="preserve">
<style type="text/css">
	.st0{fill:#3B86B1;}
	.st1{fill:#317A9B;}
</style>
<g id="XMLID_12984_">
	<g id="XMLID_25451_">
		<g id="XMLID_26041_">
			<g id="XMLID_26042_">
				<path id="XMLID_26043_" class="st0" d="M67.3,219.2l81-137.4l0.2,0.4L214,219.6l-0.3,0L67.3,219.2z M148.3,82.7L68.1,218.7
					l145.3,0.5L148.3,82.7z"/>
			</g>
		</g>
		<g id="XMLID_26036_">
			<g id="XMLID_26037_">
				<path id="XMLID_26038_" class="st0" d="M213.6,219.8l-0.2-0.3L147.9,82l0.4,0l140.5,15.7l-0.2,0.3L213.6,219.8z M148.6,82.5
					L213.7,219l74.4-121L148.6,82.5z"/>
			</g>
		</g>
		<g id="XMLID_26031_">
			<g id="XMLID_26032_">
				<path id="XMLID_26033_" class="st0" d="M288.8,98.1l-0.4,0L147.7,82.4l0.5-0.3l105-71.4l0.1,0.2L288.8,98.1z M148.9,82.1
					l139.2,15.5L253,11.2L148.9,82.1z"/>
			</g>
		</g>
		<g id="XMLID_26026_">
			<g id="XMLID_26027_">
				<path id="XMLID_26028_" class="st0" d="M148.2,82.5l-0.1-0.2l-30.4-61.8l0.3,0l135.9-9.9L148.2,82.5z M118.3,20.9l30,61
					l103.9-70.7L118.3,20.9z"/>
			</g>
		</g>
		<g id="XMLID_26021_">
			<g id="XMLID_26022_">
				<path id="XMLID_26023_" class="st0" d="M118,21l-0.1-0.4l92.4-17.6l0,0l44.4,8.1L118,21z M210.4,3.3l-88.7,16.9l129.8-9.4
					L210.4,3.3z"/>
			</g>
		</g>
		<g id="XMLID_26016_">
			<g id="XMLID_26017_">
				<path id="XMLID_26018_" class="st0" d="M357.4,102.5L288.3,98l0-0.1l-35.7-87.7L357.4,102.5z M288.6,97.6l67.6,4.4L253.6,11.7
					L288.6,97.6z"/>
			</g>
		</g>
		<g id="XMLID_26011_">
			<g id="XMLID_26012_">
				<path id="XMLID_26013_" class="st0" d="M357.3,103.2L252.1,10.3l70.1,26.4l0,0.1L357.3,103.2z M254.1,11.5l101.7,89.8
					l-33.9-64.2L254.1,11.5z"/>
			</g>
		</g>
		<g id="XMLID_26006_">
			<g id="XMLID_26007_">
				<path id="XMLID_26008_" class="st0" d="M356.7,102.5l-35.5-66.7L379.7,94L356.7,102.5z M322.9,38.1l34,63.9l22-8.1L322.9,38.1z"
					/>
			</g>
		</g>
		<g id="XMLID_26001_">
			<g id="XMLID_26002_">
				<path id="XMLID_26003_" class="st0" d="M397.9,123.8l-41.6-21.6l23.1-8.5L397.9,123.8z M357.3,102.3l39.4,20.4l-17.6-28.5
					L357.3,102.3z"/>
			</g>
		</g>
		<g id="XMLID_25996_">
			<g id="XMLID_25997_">
				<path id="XMLID_25998_" class="st0" d="M367.3,221.6l-0.4,0l-153.6-2l0.2-0.3l75-121.8l0.2,0.3L367.3,221.6z M214.1,219.2
					l152.4,1.9l-78-122.9L214.1,219.2z"/>
			</g>
		</g>
		<g id="XMLID_25991_">
			<g id="XMLID_25992_">
				<path id="XMLID_25993_" class="st0" d="M277.1,356.6l-0.2-0.3l-63.7-137.1l153.9,2.1l-0.2,0.3L277.1,356.6z M214,219.6
					l63.2,136.1l89.3-134.2L214,219.6z"/>
			</g>
		</g>
		<g id="XMLID_25986_">
			<g id="XMLID_25987_">
				<path id="XMLID_25988_" class="st0" d="M144.4,337.1l-0.2-0.3l-76.9-118l0.4,0l146.3,0.6l-0.2,0.3L144.4,337.1z M68.1,219.2
					l76.3,117.1l68.9-116.4L68.1,219.2z"/>
			</g>
		</g>
		<g id="XMLID_25981_">
			<g id="XMLID_25982_">
				<path id="XMLID_25983_" class="st0" d="M56.7,341.8l0-0.2l10.8-123.2l0.3,0.5l76.9,118l-0.4,0L56.7,341.8z M67.9,219.6
					L57.2,341.3l86.8-4.8L67.9,219.6z"/>
			</g>
		</g>
		<g id="XMLID_25976_">
			<g id="XMLID_25977_">
				<path id="XMLID_25978_" class="st0" d="M176.1,413.8L56.3,341.4l0.7,0l87.6-4.9l0.1,0.1L176.1,413.8z M57.7,341.7l117.5,71.1
					l-30.9-75.9L57.7,341.7z"/>
			</g>
		</g>
		<g id="XMLID_25916_">
			<g id="XMLID_25972_">
				<path id="XMLID_25973_" class="st0" d="M177.2,414.1L110,393l-54.6-52.6L177.2,414.1z M110.3,392.6l63.7,20L58.5,342.7
					L110.3,392.6z"/>
			</g>
		</g>
		<g id="XMLID_25907_">
			<g id="XMLID_25909_">
				<path id="XMLID_25910_" class="st0" d="M57.8,342.9l-26-32.1L1.6,219l0.4-0.2L57.8,342.9z M32.2,310.7l23.9,29.5L3.2,222.7
					L32.2,310.7z"/>
			</g>
		</g>
		<g id="XMLID_25900_">
			<g id="XMLID_25901_">
				<path id="XMLID_25903_" class="st0" d="M210.4,418.4L210.4,418.4l-36.7-5.2l127.4-10.4l0.1,0.4L210.4,418.4z M177.5,413.4
					l32.8,4.6l85.7-14.3L177.5,413.4z"/>
			</g>
		</g>
		<g id="XMLID_25866_">
			<g id="XMLID_25881_">
				<path id="XMLID_25882_" class="st0" d="M175.5,413.6L144,336.4l0.4,0.1l133.4,19.6l-0.5,0.3L175.5,413.6z M144.7,336.9l31,76.1
					l100.8-56.7L144.7,336.9z"/>
			</g>
		</g>
		<g id="XMLID_25834_">
			<g id="XMLID_25835_">
				<path id="XMLID_25850_" class="st0" d="M174.7,413.6l0.8-0.5l101.7-57.2l0.1,0.2l24.1,47.2l-0.3,0L174.7,413.6z M277.1,356.5
					L176.6,413l124.2-10.2L277.1,356.5z"/>
			</g>
		</g>
		<g id="XMLID_25512_">
			<g id="XMLID_25513_">
				<path id="XMLID_25514_" class="st0" d="M301.1,403.4l-0.1-0.2l-24.1-46.9l0.3-0.1L380,327.4l-0.6,0.6L301.1,403.4z M277.5,356.6
					l23.7,46.2l77.3-74.4L277.5,356.6z"/>
			</g>
		</g>
		<g id="XMLID_25507_">
			<g id="XMLID_25508_">
				<path id="XMLID_25509_" class="st0" d="M57.1,342.4L1.4,218.7h66.5l0,0.2L57.1,342.4z M2.1,219.2l54.7,121.5l10.7-121.5H2.1z"/>
			</g>
		</g>
		<g id="XMLID_25502_">
			<g id="XMLID_25503_">
				<path id="XMLID_25504_" class="st0" d="M38.4,112.9l0.5-0.5l79.2-92l0.1,0.3l30.4,61.7L38.4,112.9z M118,21.1l-78.3,91l108.3-30
					L118,21.1z"/>
			</g>
		</g>
		<g id="XMLID_25497_">
			<g id="XMLID_25498_">
				<path id="XMLID_25499_" class="st0" d="M68,219.2H1.5l0.1-0.3l37.5-107.1L68,219.2z M2.1,218.7h65.4L39,113.2L2.1,218.7z"/>
			</g>
		</g>
		<g id="XMLID_25492_">
			<g id="XMLID_25493_">
				<path id="XMLID_25494_" class="st0" d="M2,219l-0.4-0.1l22-89.9l0,0l16-17.4L2,219z M24,129.2L3,214.8l35.5-101.4L24,129.2z"/>
			</g>
		</g>
		<g id="XMLID_25487_">
			<g id="XMLID_25488_">
				<path id="XMLID_25489_" class="st0" d="M23,130.3l11.6-24.4l83.3-85.2l0.3,0.3l-78.9,91.8L23,130.3z M34.9,106.1l-10.4,21.8
					l14.4-15.6l74.6-86.7L34.9,106.1z"/>
			</g>
		</g>
		<g id="XMLID_25482_">
			<g id="XMLID_25483_">
				<path id="XMLID_25484_" class="st0" d="M67.6,219.5l-0.1-0.5L38.8,112.3l0.2-0.1l109.7-30.4l-0.3,0.5L67.6,219.5z M39.3,112.6
					l28.5,105.8l80.1-135.9L39.3,112.6z"/>
			</g>
		</g>
		<g id="XMLID_25477_">
			<g id="XMLID_25478_">
				<path id="XMLID_25479_" class="st0" d="M277.5,356.5l-0.4-0.1l-133.1-19.6l0.1-0.3l69.5-117.5l0.2,0.4L277.5,356.5z
					 M144.7,336.5l132.1,19.4L213.7,220L144.7,336.5z"/>
			</g>
		</g>
		<g id="XMLID_25472_">
			<g id="XMLID_25473_">
				<path id="XMLID_25474_" class="st0" d="M276.7,356.5l0.3-0.5l90-134.8l0.1,0.6L379.5,328l-0.2,0L276.7,356.5z M366.7,222.5
					l-89,133.4L379,327.7L366.7,222.5z"/>
			</g>
		</g>
		<g id="XMLID_25467_">
			<g id="XMLID_25468_">
				<path id="XMLID_25469_" class="st0" d="M379.2,328.7l-12.5-107.5l55.3,1.5l0.1,0.3L379.2,328.7z M367.1,221.6L379.4,327
					l42.1-103.9L367.1,221.6z"/>
			</g>
		</g>
		<g id="XMLID_25462_">
			<g id="XMLID_25463_">
				<path id="XMLID_25464_" class="st0" d="M367.1,222.7l-0.5-0.7L288,97.6l69,4.4l0,0.2L367.1,222.7z M288.8,98.1l77.7,123
					l-10-118.6L288.8,98.1z"/>
			</g>
		</g>
		<g id="XMLID_25457_">
			<g id="XMLID_25458_">
				<path id="XMLID_25459_" class="st0" d="M421.8,223.1l-55.1-1.5l-10.1-120.3L421.8,223.1z M367.1,221.2l54.4,1.5l-64.3-119.4
					L367.1,221.2z"/>
			</g>
		</g>
		<g id="XMLID_25452_">
			<g id="XMLID_25453_">
				<path id="XMLID_25454_" class="st0" d="M422,222.9l-0.4,0l-65.3-121.2l41.2,21.4l0,0.1L422,222.9z M357.3,102.7l63.8,118.6
					l-24-97.9L357.3,102.7z"/>
			</g>
		</g>
	</g>
	<g id="XMLID_25354_">
		<g id="XMLID_25376_">
			<g id="XMLID_25449_">
				
					<rect id="XMLID_25450_" x="102.3" y="19.1" transform="matrix(0.9674 0.2534 -0.2534 0.9674 23.5936 -23.3557)" class="st1" width="0.4" height="121.6"/>
			</g>
			<g id="XMLID_25447_">
				
					<rect id="XMLID_25448_" x="170" y="-30.2" transform="matrix(0.606 0.7955 -0.7955 0.606 126.5321 -105.9372)" class="st1" width="0.4" height="209.9"/>
			</g>
			<g id="XMLID_25445_">
				
					<rect id="XMLID_25446_" x="80" y="161" transform="matrix(0.8239 0.5667 -0.5667 0.8239 112.419 -39.4364)" class="st1" width="79.4" height="0.4"/>
			</g>
			<g id="XMLID_25443_">
				
					<rect id="XMLID_25444_" x="194.7" y="102.6" transform="matrix(0.5673 0.8235 -0.8235 0.5673 211.3701 -93.7532)" class="st1" width="0.4" height="103.4"/>
			</g>
			<g id="XMLID_25441_">
				
					<rect id="XMLID_25442_" x="245.2" y="10.3" transform="matrix(0.99 0.1408 -0.1408 0.99 11.9992 -33.8877)" class="st1" width="0.4" height="115.2"/>
			</g>
			<g id="XMLID_25439_">
				
					<rect id="XMLID_25440_" x="98.6" y="72.8" transform="matrix(0.7551 0.6556 -0.6556 0.7551 91.3656 -98.621)" class="st1" width="158.2" height="0.4"/>
			</g>
			<g id="XMLID_25437_">
				
					<rect id="XMLID_25438_" x="198.8" y="181.4" transform="matrix(0.3669 0.9302 -0.9302 0.3669 333.4165 -126.7322)" class="st1" width="122" height="0.4"/>
			</g>
			<g id="XMLID_25435_">
				
					<rect id="XMLID_25436_" x="146.8" y="210.8" transform="matrix(0.9216 0.3881 -0.3881 0.9216 98.9134 -67.7838)" class="st1" width="140.9" height="0.4"/>
			</g>
			<g id="XMLID_25433_">
				
					<rect id="XMLID_25434_" x="145.9" y="183.2" transform="matrix(0.9901 0.1403 -0.1403 0.9901 33.3831 -18.2464)" class="st1" width="0.4" height="88.9"/>
			</g>
			<g id="XMLID_25431_">
				
					<rect id="XMLID_25432_" x="210.8" y="181.9" transform="matrix(0.2269 0.9739 -0.9739 0.2269 411.4937 -8.3933)" class="st1" width="0.4" height="146.2"/>
			</g>
			<g id="XMLID_25429_">
				
					<rect id="XMLID_25430_" x="44.2" y="120.3" transform="matrix(0.6833 0.7301 -0.7301 0.6833 144.6548 24.2381)" class="st1" width="0.4" height="117.1"/>
			</g>
			<g id="XMLID_25427_">
				
					<rect id="XMLID_25428_" x="41.9" y="205" transform="matrix(0.3696 0.9292 -0.9292 0.3696 262.1489 23.9559)" class="st1" width="143.1" height="0.4"/>
			</g>
			<g id="XMLID_25425_">
				
					<rect id="XMLID_25426_" x="236.3" y="135.6" transform="matrix(0.9779 0.2092 -0.2092 0.9779 34.7929 -57.3717)" class="st1" width="104.7" height="0.4"/>
			</g>
			<g id="XMLID_25423_">
				
					<rect id="XMLID_25424_" x="310.8" y="138.4" transform="matrix(0.8473 0.5311 -0.5311 0.8473 149.7529 -135.7815)" class="st1" width="0.4" height="108.2"/>
			</g>
			<g id="XMLID_25421_">
				
					<rect id="XMLID_25422_" x="216.1" y="78.6" transform="matrix(0.5364 0.844 -0.844 0.5364 204.0112 -213.823)" class="st1" width="161.1" height="0.4"/>
			</g>
			<g id="XMLID_25419_">
				
					<rect id="XMLID_25420_" x="348.2" y="100.6" transform="matrix(0.9332 0.3593 -0.3593 0.9332 67.9869 -116.866)" class="st1" width="0.4" height="47.7"/>
			</g>
			<g id="XMLID_25417_">
				
					<rect id="XMLID_25418_" x="324.8" y="184.7" transform="matrix(0.7313 0.6821 -0.6821 0.7313 228.4395 -210.0079)" class="st1" width="111.9" height="0.4"/>
			</g>
			<g id="XMLID_25415_">
				
					<rect id="XMLID_25416_" x="351.7" y="160.6" transform="matrix(0.1052 0.9944 -0.9944 0.1052 544.3163 -143.5436)" class="st1" width="0.4" height="140.3"/>
			</g>
			<g id="XMLID_25413_">
				
					<rect id="XMLID_25414_" x="248.7" y="273.6" transform="matrix(5.641192e-002 0.9984 -0.9984 5.641192e-002 541.5668 -25.378)" class="st1" width="71.1" height="0.4"/>
			</g>
			<g id="XMLID_25411_">
				
					<rect id="XMLID_25412_" x="285.3" y="318.2" transform="matrix(0.9816 0.1908 -0.1908 0.9816 66.8494 -57.6541)" class="st1" width="95" height="0.4"/>
			</g>
			<g id="XMLID_25409_">
				
					<rect id="XMLID_25410_" x="353.7" y="185.9" transform="matrix(0.5357 0.8444 -0.8444 0.5357 389.1022 -175.2722)" class="st1" width="0.4" height="160.6"/>
			</g>
			<g id="XMLID_25407_">
				<polygon id="XMLID_25408_" class="st1" points="301,402.9 286,309.3 286.4,309.3 301.4,402.8 				"/>
			</g>
			<g id="XMLID_25405_">
				
					<rect id="XMLID_25406_" x="230.7" y="285.4" transform="matrix(0.6863 0.7273 -0.7273 0.6863 335.3127 -54.5265)" class="st1" width="0.4" height="152.1"/>
			</g>
			<g id="XMLID_25403_">
				
					<rect id="XMLID_25404_" x="137.5" y="290.3" transform="matrix(0.9685 0.2491 -0.2491 0.9685 79.0823 -43.9145)" class="st1" width="151.1" height="0.4"/>
			</g>
			<g id="XMLID_25401_">
				
					<rect id="XMLID_25402_" x="130.5" y="270.7" transform="matrix(0.9775 0.2111 -0.2111 0.9775 69.1863 -20.5262)" class="st1" width="0.4" height="86.2"/>
			</g>
			<g id="XMLID_25399_">
				
					<rect id="XMLID_25400_" x="109.1" y="384.5" transform="matrix(0.6827 0.7307 -0.7307 0.6827 328.2825 13.5331)" class="st1" width="79" height="0.4"/>
			</g>
			<g id="XMLID_25397_">
				
					<rect id="XMLID_25398_" x="115.6" y="355" transform="matrix(0.9547 0.2974 -0.2974 0.9547 116.6005 -17.5033)" class="st1" width="0.4" height="38.8"/>
			</g>
			<g id="XMLID_25395_">
				<polygon id="XMLID_25396_" class="st1" points="121.5,356.1 57.1,341.5 57.2,341.1 121.6,355.7 				"/>
			</g>
			<g id="XMLID_25393_">
				
					<rect id="XMLID_25394_" x="203.7" y="247.1" transform="matrix(0.272 0.9623 -0.9623 0.272 468.515 45.9272)" class="st1" width="0.4" height="171.1"/>
			</g>
			<g id="XMLID_25391_">
				
					<rect id="XMLID_25392_" x="33.6" y="315.2" transform="matrix(0.6505 0.7595 -0.7595 0.6505 269.9238 44.2102)" class="st1" width="106.6" height="0.4"/>
			</g>
			<g id="XMLID_25389_">
				
					<rect id="XMLID_25390_" x="95.8" y="229.5" transform="matrix(3.713559e-002 0.9993 -0.9993 3.713559e-002 365.5945 167.1582)" class="st1" width="0.4" height="87.7"/>
			</g>
			<g id="XMLID_25387_">
				
					<rect id="XMLID_25388_" x="69.4" y="136.5" transform="matrix(0.9692 0.2462 -0.2462 0.9692 53.0609 -10.7723)" class="st1" width="0.4" height="140.6"/>
			</g>
			<g id="XMLID_25385_">
				
					<rect id="XMLID_25386_" x="-10.6" y="246.8" transform="matrix(0.67 0.7424 -0.7424 0.67 192.2774 61.4518)" class="st1" width="75.3" height="0.4"/>
			</g>
			<g id="XMLID_25383_">
				<polygon id="XMLID_25384_" class="st1" points="32.1,310.9 31.8,310.7 52.1,274.8 52.4,275 				"/>
			</g>
			<g id="XMLID_25381_">
				<polygon id="XMLID_25382_" class="st1" points="86.9,138.9 34.6,105.9 34.8,105.6 87.1,138.5 				"/>
			</g>
			<g id="XMLID_25379_">
				
					<rect id="XMLID_25380_" x="192.4" y="-1.4" transform="matrix(0.8832 0.469 -0.469 0.8832 39.8417 -86.0165)" class="st1" width="0.4" height="76.9"/>
			</g>
			<g id="XMLID_25377_">
				<polygon id="XMLID_25378_" class="st1" points="237.6,125 237.3,124.7 321.8,36.4 322.1,36.7 				"/>
			</g>
		</g>
		<g id="XMLID_25355_">
			<g id="XMLID_25374_">
				<circle id="XMLID_25375_" class="st1" cx="152.5" cy="183.5" r="2.3"/>
			</g>
			<g id="XMLID_25372_">
				<circle id="XMLID_25373_" class="st1" cx="86.9" cy="138.8" r="2.3"/>
			</g>
			<g id="XMLID_25370_">
				<circle id="XMLID_25371_" class="st1" cx="139.8" cy="271.4" r="2.3"/>
			</g>
			<g id="XMLID_25368_">
				<circle id="XMLID_25369_" class="st1" cx="52.1" cy="275.1" r="2.3"/>
			</g>
			<g id="XMLID_25366_">
				<circle id="XMLID_25367_" class="st1" cx="121.6" cy="355.8" r="2.3"/>
			</g>
			<g id="XMLID_25364_">
				<circle id="XMLID_25365_" class="st1" cx="286.2" cy="309.1" r="2.3"/>
			</g>
			<g id="XMLID_25362_">
				<circle id="XMLID_25363_" class="st1" cx="282" cy="238.1" r="2.3"/>
			</g>
			<g id="XMLID_25360_">
				<circle id="XMLID_25361_" class="st1" cx="237.6" cy="124.9" r="2.3"/>
			</g>
			<g id="XMLID_25358_">
				<circle id="XMLID_25359_" class="st1" cx="339.6" cy="146.8" r="2.3"/>
			</g>
			<g id="XMLID_25356_">
				<circle id="XMLID_25357_" class="st1" cx="175.4" cy="71.1" r="2.3"/>
			</g>
		</g>
	</g>
	<g id="XMLID_25295_">
		<g id="XMLID_25352_">
			<circle id="XMLID_25353_" class="st0" cx="421.2" cy="223" r="2.8"/>
		</g>
		<g id="XMLID_25350_">
			<circle id="XMLID_25351_" class="st0" cx="366.6" cy="221.2" r="10.4"/>
		</g>
		<g id="XMLID_25348_">
			<circle id="XMLID_25349_" class="st0" cx="276.7" cy="356.6" r="10.4"/>
		</g>
		<g id="XMLID_25346_">
			<circle id="XMLID_25347_" class="st0" cx="379.5" cy="327" r="3.4"/>
		</g>
		<g id="XMLID_25344_">
			<circle id="XMLID_25345_" class="st0" cx="301.2" cy="403.4" r="2.5"/>
		</g>
		<g id="XMLID_25342_">
			<circle id="XMLID_25343_" class="st0" cx="209.9" cy="418.4" r="1.9"/>
		</g>
		<g id="XMLID_25340_">
			<circle id="XMLID_25341_" class="st0" cx="175" cy="413.6" r="10"/>
		</g>
		<g id="XMLID_25338_">
			<circle id="XMLID_25339_" class="st0" cx="109.4" cy="393" r="2.2"/>
		</g>
		<g id="XMLID_25336_">
			<circle id="XMLID_25337_" class="st0" cx="144" cy="337.1" r="3.4"/>
		</g>
		<g id="XMLID_25334_">
			<circle id="XMLID_25335_" class="st0" cx="56.6" cy="341.8" r="3.4"/>
		</g>
		<g id="XMLID_25332_">
			<circle id="XMLID_25333_" class="st0" cx="32.6" cy="311.4" r="2.1"/>
		</g>
		<g id="XMLID_25330_">
			<circle id="XMLID_25331_" class="st0" cx="214" cy="219.2" r="3.4"/>
		</g>
		<g id="XMLID_25328_">
			<circle id="XMLID_25329_" class="st0" cx="68" cy="219.6" r="7.5"/>
		</g>
		<g id="XMLID_25326_">
			<circle id="XMLID_25327_" class="st0" cx="2.1" cy="218.9" r="2.1"/>
		</g>
		<g id="XMLID_25324_">
			<circle id="XMLID_25325_" class="st0" cx="39.4" cy="112.9" r="7.4"/>
		</g>
		<g id="XMLID_25322_">
			<circle id="XMLID_25323_" class="st0" cx="148.6" cy="82.5" r="3.4"/>
		</g>
		<g id="XMLID_25320_">
			<circle id="XMLID_25321_" class="st0" cx="118.2" cy="21.2" r="3.4"/>
		</g>
		<g id="XMLID_25317_">
			<circle id="XMLID_25318_" class="st0" cx="211" cy="2.5" r="2.5"/>
		</g>
		<g id="XMLID_25315_">
			<circle id="XMLID_25316_" class="st0" cx="253.4" cy="11.7" r="6.3"/>
		</g>
		<g id="XMLID_25313_">
			<circle id="XMLID_25314_" class="st0" cx="288.3" cy="97.5" r="3.4"/>
		</g>
		<g id="XMLID_25310_">
			<circle id="XMLID_25311_" class="st0" cx="321.2" cy="35.8" r="2.9"/>
		</g>
		<g id="XMLID_25306_">
			<circle id="XMLID_25309_" class="st0" cx="356.5" cy="102.5" r="3.4"/>
		</g>
		<g id="XMLID_25302_">
			<circle id="XMLID_25303_" class="st0" cx="379.7" cy="94" r="2.4"/>
		</g>
		<g id="XMLID_25300_">
			<circle id="XMLID_25301_" class="st0" cx="397.9" cy="123.2" r="3.4"/>
		</g>
		<g id="XMLID_25298_">
			<circle id="XMLID_25299_" class="st0" cx="34.7" cy="105.2" r="2.4"/>
		</g>
		<g id="XMLID_25296_">
			<circle id="XMLID_25297_" class="st0" cx="23" cy="129.5" r="2.1"/>
		</g>
	</g>
</g>
</svg>
