<?xml version="1.0" encoding="utf-8"?>
<!-- Generator: Adobe Illustrator 19.0.0, SVG Export Plug-In . SVG Version: 6.00 Build 0)  -->
<svg version="1.1" id="Capa_1" xmlns="http://www.w3.org/2000/svg" xmlns:xlink="http://www.w3.org/1999/xlink" x="0px" y="0px"
	 viewBox="0 0 1010.7 560.6" style="enable-background:new 0 0 1010.7 560.6;" xml:space="preserve">
<style type="text/css">
	.st0{opacity:0.25;}
	.st1{fill:#FFFFFF;}
	.st2{fill:#71ABBF;}
	.st3{fill:#575756;}
	.st4{fill:#666666;}
	.st5{fill:#333333;}
	.st6{fill:#B6B3B5;}
	.st7{fill:#FFFFFF;stroke:#575756;stroke-width:1.7139;stroke-miterlimit:10;}
</style>
<g id="XMLID_1_">
	<g id="XMLID_17452_" class="st0">
		<g id="XMLID_121_">
			<rect id="XMLID_136_" x="0.1" class="st1" width="37.6" height="503.2"/>
			<rect id="XMLID_135_" x="69.6" class="st1" width="37.6" height="503.2"/>
			<rect id="XMLID_134_" x="139.1" class="st1" width="37.6" height="503.2"/>
			<rect id="XMLID_133_" x="208.6" class="st1" width="37.6" height="503.2"/>
			<rect id="XMLID_132_" x="278.1" class="st1" width="37.6" height="503.2"/>
			<rect id="XMLID_131_" x="347.6" class="st1" width="37.6" height="503.2"/>
			<rect id="XMLID_130_" x="417.1" class="st1" width="37.6" height="503.2"/>
			<rect id="XMLID_129_" x="486.6" class="st1" width="37.6" height="503.2"/>
			<rect id="XMLID_128_" x="556.1" class="st1" width="37.6" height="503.2"/>
			<rect id="XMLID_127_" x="625.6" class="st1" width="37.6" height="503.2"/>
			<rect id="XMLID_126_" x="695.1" class="st1" width="37.6" height="503.2"/>
			<rect id="XMLID_125_" x="764.6" class="st1" width="37.6" height="503.2"/>
			<rect id="XMLID_124_" x="834.1" class="st1" width="37.6" height="503.2"/>
			<rect id="XMLID_123_" x="903.6" class="st1" width="37.6" height="503.2"/>
			<rect id="XMLID_122_" x="973.1" class="st1" width="37.6" height="503.2"/>
		</g>
	</g>
	<polygon id="XMLID_20281_" class="st2" points="0.3,560.6 0.1,502.8 1010.7,502.8 1010.7,560.6 	"/>
	<circle id="XMLID_19827_" class="st3" cx="456.3" cy="510.6" r="12.7"/>
	<circle id="XMLID_19826_" class="st3" cx="663.6" cy="510.6" r="12.7"/>
	<g id="XMLID_19821_">
		<path id="XMLID_19825_" class="st4" d="M685.5,126.4H442.9c-3,0-5.4,2.4-5.4,5.4v375.7c0,3,2.4,5.4,5.4,5.4h242.6
			c3,0,5.4-2.4,5.4-5.4V131.8C690.9,128.8,688.5,126.4,685.5,126.4z"/>
		<path id="XMLID_19822_" class="st5" d="M685.5,123H442.9c-4.9,0-8.8,3.9-8.8,8.8v375.7c0,4.9,3.9,8.8,8.8,8.8h242.6
			c4.9,0,8.8-3.9,8.8-8.8V131.8C694.3,127,690.3,123,685.5,123z M690.9,507.5c0,3-2.4,5.4-5.4,5.4H442.9c-3,0-5.4-2.4-5.4-5.4V131.8
			c0-3,2.4-5.4,5.4-5.4h242.6c3,0,5.4,2.4,5.4,5.4V507.5z"/>
	</g>
	<g id="XMLID_19817_">
		<path id="XMLID_19820_" class="st3" d="M437,219.1h-2.4c-1.5,0-2.7-1.2-2.7-2.7v-18.9c0-1.5,1.2-2.7,2.7-2.7h2.4
			c1.5,0,2.7,1.2,2.7,2.7v18.9C439.7,217.8,438.5,219.1,437,219.1z"/>
		<path id="XMLID_19819_" class="st3" d="M437,344.2h-2.4c-1.5,0-2.7-1.2-2.7-2.7v-18.9c0-1.5,1.2-2.7,2.7-2.7h2.4
			c1.5,0,2.7,1.2,2.7,2.7v18.9C439.7,342.9,438.5,344.2,437,344.2z"/>
		<path id="XMLID_19818_" class="st3" d="M437,473.7h-2.4c-1.5,0-2.7-1.2-2.7-2.7v-18.9c0-1.5,1.2-2.7,2.7-2.7h2.4
			c1.5,0,2.7,1.2,2.7,2.7V471C439.7,472.5,438.5,473.7,437,473.7z"/>
	</g>
	<path id="XMLID_19816_" class="st3" d="M675.1,504.8H453.2c-4.9,0-8.9-4-8.9-8.9v-42.1c0-4.9,4-8.9,8.9-8.9h221.9
		c4.9,0,8.9,4,8.9,8.9v42.1C684.1,500.8,680.1,504.8,675.1,504.8z"/>
	<g id="XMLID_19289_">
		<g id="XMLID_19542_">
			<g id="XMLID_19663_">
				<path id="XMLID_19667_" class="st4" d="M399.5,343.3h-75c-6.4,0-11.6,5.2-11.6,11.6v155.7c0,1.7,1.4,3.1,3.1,3.1h92
					c1.7,0,3.1-1.4,3.1-3.1V355C411.1,348.6,405.9,343.3,399.5,343.3z"/>
				<path id="XMLID_19664_" class="st5" d="M399.5,340.4h-75c-8.1,0-14.6,6.6-14.6,14.6v155.7c0,3.4,2.7,6.1,6.1,6.1h92
					c3.4,0,6.1-2.7,6.1-6.1V355C414.1,346.9,407.5,340.4,399.5,340.4z M411.1,510.7c0,1.7-1.4,3.1-3.1,3.1h-92
					c-1.7,0-3.1-1.4-3.1-3.1V355c0-6.4,5.2-11.6,11.6-11.6h75c6.4,0,11.6,5.2,11.6,11.6V510.7z"/>
			</g>
			<g id="XMLID_19660_">
				<path id="XMLID_19662_" class="st3" d="M337.8,522h-15.9c-1.3,0-2.3-1-2.3-2.3v-4.4h20.6v4.4C340.1,520.9,339.1,522,337.8,522z"
					/>
				<path id="XMLID_19661_" class="st3" d="M402.1,522h-15.9c-1.3,0-2.3-1-2.3-2.3v-4.4h20.6v4.4C404.4,520.9,403.4,522,402.1,522z"
					/>
			</g>
			<g id="XMLID_19658_">
				<path id="XMLID_19659_" class="st3" d="M404.4,485.8h-84.9c-0.8,0-1.5-0.7-1.5-1.5c0-0.8,0.7-1.5,1.5-1.5h84.9
					c0.8,0,1.5,0.7,1.5,1.5C405.9,485.1,405.2,485.8,404.4,485.8z"/>
			</g>
			<g id="XMLID_19656_">
				<path id="XMLID_19657_" class="st3" d="M404.4,493.4h-84.9c-0.8,0-1.5-0.7-1.5-1.5c0-0.8,0.7-1.5,1.5-1.5h84.9
					c0.8,0,1.5,0.7,1.5,1.5C405.9,492.7,405.2,493.4,404.4,493.4z"/>
			</g>
			<g id="XMLID_19654_">
				<path id="XMLID_19655_" class="st3" d="M404.4,501h-84.9c-0.8,0-1.5-0.7-1.5-1.5c0-0.8,0.7-1.5,1.5-1.5h84.9
					c0.8,0,1.5,0.7,1.5,1.5C405.9,500.3,405.2,501,404.4,501z"/>
			</g>
			<g id="XMLID_19652_">
				<path id="XMLID_19653_" class="st3" d="M404.4,508.5h-84.9c-0.8,0-1.5-0.7-1.5-1.5c0-0.8,0.7-1.5,1.5-1.5h84.9
					c0.8,0,1.5,0.7,1.5,1.5C405.9,507.9,405.2,508.5,404.4,508.5z"/>
			</g>
			<g id="XMLID_19635_">
				<rect id="XMLID_19651_" x="321" y="364.2" class="st6" width="81.9" height="18"/>
				<path id="XMLID_19648_" class="st5" d="M318.1,361.2v23.9h87.9v-23.9H318.1z M402.9,382.2H321v-18h81.9V382.2z"/>
				<rect id="XMLID_19647_" x="321" y="393.8" class="st6" width="81.9" height="18"/>
				<path id="XMLID_19644_" class="st5" d="M318.1,414.8h87.9v-23.9h-87.9V414.8z M321,393.8h81.9v18H321V393.8z"/>
				<rect id="XMLID_19643_" x="321" y="423.5" class="st6" width="81.9" height="18"/>
				<path id="XMLID_19640_" class="st5" d="M318.1,444.5h87.9v-23.9h-87.9V444.5z M321,423.5h81.9v18H321V423.5z"/>
				<rect id="XMLID_19639_" x="321" y="453.1" class="st6" width="81.9" height="18"/>
				<path id="XMLID_19636_" class="st5" d="M318.1,474.1h87.9v-23.9h-87.9V474.1z M321,453.1h81.9v18H321V453.1z"/>
			</g>
			<g id="XMLID_19612_">
				<g id="XMLID_19633_">
					<path id="XMLID_19634_" class="st3" d="M328,379.5c-0.8,0-1.5-0.7-1.5-1.5v-9.7c0-0.8,0.7-1.5,1.5-1.5c0.8,0,1.5,0.7,1.5,1.5
						v9.7C329.5,378.8,328.8,379.5,328,379.5z"/>
				</g>
				<g id="XMLID_19631_">
					<path id="XMLID_19632_" class="st3" d="M334.8,379.5c-0.8,0-1.5-0.7-1.5-1.5v-9.7c0-0.8,0.7-1.5,1.5-1.5c0.8,0,1.5,0.7,1.5,1.5
						v9.7C336.3,378.8,335.6,379.5,334.8,379.5z"/>
				</g>
				<g id="XMLID_19629_">
					<path id="XMLID_19630_" class="st3" d="M341.6,379.5c-0.8,0-1.5-0.7-1.5-1.5v-9.7c0-0.8,0.7-1.5,1.5-1.5s1.5,0.7,1.5,1.5v9.7
						C343.1,378.8,342.4,379.5,341.6,379.5z"/>
				</g>
				<g id="XMLID_19627_">
					<path id="XMLID_19628_" class="st3" d="M348.4,379.5c-0.8,0-1.5-0.7-1.5-1.5v-9.7c0-0.8,0.7-1.5,1.5-1.5c0.8,0,1.5,0.7,1.5,1.5
						v9.7C349.9,378.8,349.2,379.5,348.4,379.5z"/>
				</g>
				<g id="XMLID_19625_">
					<path id="XMLID_19626_" class="st3" d="M355.2,379.5c-0.8,0-1.5-0.7-1.5-1.5v-9.7c0-0.8,0.7-1.5,1.5-1.5c0.8,0,1.5,0.7,1.5,1.5
						v9.7C356.7,378.8,356,379.5,355.2,379.5z"/>
				</g>
				<g id="XMLID_19623_">
					<path id="XMLID_19624_" class="st3" d="M362,379.5c-0.8,0-1.5-0.7-1.5-1.5v-9.7c0-0.8,0.7-1.5,1.5-1.5c0.8,0,1.5,0.7,1.5,1.5
						v9.7C363.5,378.8,362.8,379.5,362,379.5z"/>
				</g>
				<g id="XMLID_19621_">
					<path id="XMLID_19622_" class="st3" d="M368.8,379.5c-0.8,0-1.5-0.7-1.5-1.5v-9.7c0-0.8,0.7-1.5,1.5-1.5c0.8,0,1.5,0.7,1.5,1.5
						v9.7C370.3,378.8,369.6,379.5,368.8,379.5z"/>
				</g>
				<g id="XMLID_19619_">
					<path id="XMLID_19620_" class="st3" d="M375.6,379.5c-0.8,0-1.5-0.7-1.5-1.5v-9.7c0-0.8,0.7-1.5,1.5-1.5c0.8,0,1.5,0.7,1.5,1.5
						v9.7C377.1,378.8,376.4,379.5,375.6,379.5z"/>
				</g>
				<g id="XMLID_19617_">
					<path id="XMLID_19618_" class="st3" d="M382.4,379.5c-0.8,0-1.5-0.7-1.5-1.5v-9.7c0-0.8,0.7-1.5,1.5-1.5s1.5,0.7,1.5,1.5v9.7
						C383.9,378.8,383.2,379.5,382.4,379.5z"/>
				</g>
				<g id="XMLID_19615_">
					<path id="XMLID_19616_" class="st3" d="M389.2,379.5c-0.8,0-1.5-0.7-1.5-1.5v-9.7c0-0.8,0.7-1.5,1.5-1.5c0.8,0,1.5,0.7,1.5,1.5
						v9.7C390.7,378.8,390,379.5,389.2,379.5z"/>
				</g>
				<g id="XMLID_19613_">
					<path id="XMLID_19614_" class="st3" d="M396,379.5c-0.8,0-1.5-0.7-1.5-1.5v-9.7c0-0.8,0.7-1.5,1.5-1.5c0.8,0,1.5,0.7,1.5,1.5
						v9.7C397.5,378.8,396.8,379.5,396,379.5z"/>
				</g>
			</g>
			<g id="XMLID_19589_">
				<g id="XMLID_19610_">
					<path id="XMLID_19611_" class="st3" d="M328,409.1c-0.8,0-1.5-0.7-1.5-1.5V398c0-0.8,0.7-1.5,1.5-1.5c0.8,0,1.5,0.7,1.5,1.5
						v9.7C329.5,408.5,328.8,409.1,328,409.1z"/>
				</g>
				<g id="XMLID_19608_">
					<path id="XMLID_19609_" class="st3" d="M334.8,409.1c-0.8,0-1.5-0.7-1.5-1.5V398c0-0.8,0.7-1.5,1.5-1.5c0.8,0,1.5,0.7,1.5,1.5
						v9.7C336.3,408.5,335.6,409.1,334.8,409.1z"/>
				</g>
				<g id="XMLID_19606_">
					<path id="XMLID_19607_" class="st3" d="M341.6,409.1c-0.8,0-1.5-0.7-1.5-1.5V398c0-0.8,0.7-1.5,1.5-1.5s1.5,0.7,1.5,1.5v9.7
						C343.1,408.5,342.4,409.1,341.6,409.1z"/>
				</g>
				<g id="XMLID_19604_">
					<path id="XMLID_19605_" class="st3" d="M348.4,409.1c-0.8,0-1.5-0.7-1.5-1.5V398c0-0.8,0.7-1.5,1.5-1.5c0.8,0,1.5,0.7,1.5,1.5
						v9.7C349.9,408.5,349.2,409.1,348.4,409.1z"/>
				</g>
				<g id="XMLID_19602_">
					<path id="XMLID_19603_" class="st3" d="M355.2,409.1c-0.8,0-1.5-0.7-1.5-1.5V398c0-0.8,0.7-1.5,1.5-1.5c0.8,0,1.5,0.7,1.5,1.5
						v9.7C356.7,408.5,356,409.1,355.2,409.1z"/>
				</g>
				<g id="XMLID_19600_">
					<path id="XMLID_19601_" class="st3" d="M362,409.1c-0.8,0-1.5-0.7-1.5-1.5V398c0-0.8,0.7-1.5,1.5-1.5c0.8,0,1.5,0.7,1.5,1.5
						v9.7C363.5,408.5,362.8,409.1,362,409.1z"/>
				</g>
				<g id="XMLID_19598_">
					<path id="XMLID_19599_" class="st3" d="M368.8,409.1c-0.8,0-1.5-0.7-1.5-1.5V398c0-0.8,0.7-1.5,1.5-1.5c0.8,0,1.5,0.7,1.5,1.5
						v9.7C370.3,408.5,369.6,409.1,368.8,409.1z"/>
				</g>
				<g id="XMLID_19596_">
					<path id="XMLID_19597_" class="st3" d="M375.6,409.1c-0.8,0-1.5-0.7-1.5-1.5V398c0-0.8,0.7-1.5,1.5-1.5c0.8,0,1.5,0.7,1.5,1.5
						v9.7C377.1,408.5,376.4,409.1,375.6,409.1z"/>
				</g>
				<g id="XMLID_19594_">
					<path id="XMLID_19595_" class="st3" d="M382.4,409.1c-0.8,0-1.5-0.7-1.5-1.5V398c0-0.8,0.7-1.5,1.5-1.5s1.5,0.7,1.5,1.5v9.7
						C383.9,408.5,383.2,409.1,382.4,409.1z"/>
				</g>
				<g id="XMLID_19592_">
					<path id="XMLID_19593_" class="st3" d="M389.2,409.1c-0.8,0-1.5-0.7-1.5-1.5V398c0-0.8,0.7-1.5,1.5-1.5c0.8,0,1.5,0.7,1.5,1.5
						v9.7C390.7,408.5,390,409.1,389.2,409.1z"/>
				</g>
				<g id="XMLID_19590_">
					<path id="XMLID_19591_" class="st3" d="M396,409.1c-0.8,0-1.5-0.7-1.5-1.5V398c0-0.8,0.7-1.5,1.5-1.5c0.8,0,1.5,0.7,1.5,1.5
						v9.7C397.5,408.5,396.8,409.1,396,409.1z"/>
				</g>
			</g>
			<g id="XMLID_19566_">
				<g id="XMLID_19587_">
					<path id="XMLID_19588_" class="st3" d="M328,438.8c-0.8,0-1.5-0.7-1.5-1.5v-9.7c0-0.8,0.7-1.5,1.5-1.5c0.8,0,1.5,0.7,1.5,1.5
						v9.7C329.5,438.1,328.8,438.8,328,438.8z"/>
				</g>
				<g id="XMLID_19585_">
					<path id="XMLID_19586_" class="st3" d="M334.8,438.8c-0.8,0-1.5-0.7-1.5-1.5v-9.7c0-0.8,0.7-1.5,1.5-1.5c0.8,0,1.5,0.7,1.5,1.5
						v9.7C336.3,438.1,335.6,438.8,334.8,438.8z"/>
				</g>
				<g id="XMLID_19583_">
					<path id="XMLID_19584_" class="st3" d="M341.6,438.8c-0.8,0-1.5-0.7-1.5-1.5v-9.7c0-0.8,0.7-1.5,1.5-1.5s1.5,0.7,1.5,1.5v9.7
						C343.1,438.1,342.4,438.8,341.6,438.8z"/>
				</g>
				<g id="XMLID_19581_">
					<path id="XMLID_19582_" class="st3" d="M348.4,438.8c-0.8,0-1.5-0.7-1.5-1.5v-9.7c0-0.8,0.7-1.5,1.5-1.5c0.8,0,1.5,0.7,1.5,1.5
						v9.7C349.9,438.1,349.2,438.8,348.4,438.8z"/>
				</g>
				<g id="XMLID_19579_">
					<path id="XMLID_19580_" class="st3" d="M355.2,438.8c-0.8,0-1.5-0.7-1.5-1.5v-9.7c0-0.8,0.7-1.5,1.5-1.5c0.8,0,1.5,0.7,1.5,1.5
						v9.7C356.7,438.1,356,438.8,355.2,438.8z"/>
				</g>
				<g id="XMLID_19577_">
					<path id="XMLID_19578_" class="st3" d="M362,438.8c-0.8,0-1.5-0.7-1.5-1.5v-9.7c0-0.8,0.7-1.5,1.5-1.5c0.8,0,1.5,0.7,1.5,1.5
						v9.7C363.5,438.1,362.8,438.8,362,438.8z"/>
				</g>
				<g id="XMLID_19575_">
					<path id="XMLID_19576_" class="st3" d="M368.8,438.8c-0.8,0-1.5-0.7-1.5-1.5v-9.7c0-0.8,0.7-1.5,1.5-1.5c0.8,0,1.5,0.7,1.5,1.5
						v9.7C370.3,438.1,369.6,438.8,368.8,438.8z"/>
				</g>
				<g id="XMLID_19573_">
					<path id="XMLID_19574_" class="st3" d="M375.6,438.8c-0.8,0-1.5-0.7-1.5-1.5v-9.7c0-0.8,0.7-1.5,1.5-1.5c0.8,0,1.5,0.7,1.5,1.5
						v9.7C377.1,438.1,376.4,438.8,375.6,438.8z"/>
				</g>
				<g id="XMLID_19571_">
					<path id="XMLID_19572_" class="st3" d="M382.4,438.8c-0.8,0-1.5-0.7-1.5-1.5v-9.7c0-0.8,0.7-1.5,1.5-1.5s1.5,0.7,1.5,1.5v9.7
						C383.9,438.1,383.2,438.8,382.4,438.8z"/>
				</g>
				<g id="XMLID_19569_">
					<path id="XMLID_19570_" class="st3" d="M389.2,438.8c-0.8,0-1.5-0.7-1.5-1.5v-9.7c0-0.8,0.7-1.5,1.5-1.5c0.8,0,1.5,0.7,1.5,1.5
						v9.7C390.7,438.1,390,438.8,389.2,438.8z"/>
				</g>
				<g id="XMLID_19567_">
					<path id="XMLID_19568_" class="st3" d="M396,438.8c-0.8,0-1.5-0.7-1.5-1.5v-9.7c0-0.8,0.7-1.5,1.5-1.5c0.8,0,1.5,0.7,1.5,1.5
						v9.7C397.5,438.1,396.8,438.8,396,438.8z"/>
				</g>
			</g>
			<g id="XMLID_19543_">
				<g id="XMLID_19564_">
					<path id="XMLID_19565_" class="st3" d="M328,468.4c-0.8,0-1.5-0.7-1.5-1.5v-9.7c0-0.8,0.7-1.5,1.5-1.5c0.8,0,1.5,0.7,1.5,1.5
						v9.7C329.5,467.8,328.8,468.4,328,468.4z"/>
				</g>
				<g id="XMLID_19562_">
					<path id="XMLID_19563_" class="st3" d="M334.8,468.4c-0.8,0-1.5-0.7-1.5-1.5v-9.7c0-0.8,0.7-1.5,1.5-1.5c0.8,0,1.5,0.7,1.5,1.5
						v9.7C336.3,467.8,335.6,468.4,334.8,468.4z"/>
				</g>
				<g id="XMLID_19560_">
					<path id="XMLID_19561_" class="st3" d="M341.6,468.4c-0.8,0-1.5-0.7-1.5-1.5v-9.7c0-0.8,0.7-1.5,1.5-1.5s1.5,0.7,1.5,1.5v9.7
						C343.1,467.8,342.4,468.4,341.6,468.4z"/>
				</g>
				<g id="XMLID_19558_">
					<path id="XMLID_19559_" class="st3" d="M348.4,468.4c-0.8,0-1.5-0.7-1.5-1.5v-9.7c0-0.8,0.7-1.5,1.5-1.5c0.8,0,1.5,0.7,1.5,1.5
						v9.7C349.9,467.8,349.2,468.4,348.4,468.4z"/>
				</g>
				<g id="XMLID_19556_">
					<path id="XMLID_19557_" class="st3" d="M355.2,468.4c-0.8,0-1.5-0.7-1.5-1.5v-9.7c0-0.8,0.7-1.5,1.5-1.5c0.8,0,1.5,0.7,1.5,1.5
						v9.7C356.7,467.8,356,468.4,355.2,468.4z"/>
				</g>
				<g id="XMLID_19554_">
					<path id="XMLID_19555_" class="st3" d="M362,468.4c-0.8,0-1.5-0.7-1.5-1.5v-9.7c0-0.8,0.7-1.5,1.5-1.5c0.8,0,1.5,0.7,1.5,1.5
						v9.7C363.5,467.8,362.8,468.4,362,468.4z"/>
				</g>
				<g id="XMLID_19552_">
					<path id="XMLID_19553_" class="st3" d="M368.8,468.4c-0.8,0-1.5-0.7-1.5-1.5v-9.7c0-0.8,0.7-1.5,1.5-1.5c0.8,0,1.5,0.7,1.5,1.5
						v9.7C370.3,467.8,369.6,468.4,368.8,468.4z"/>
				</g>
				<g id="XMLID_19550_">
					<path id="XMLID_19551_" class="st3" d="M375.6,468.4c-0.8,0-1.5-0.7-1.5-1.5v-9.7c0-0.8,0.7-1.5,1.5-1.5c0.8,0,1.5,0.7,1.5,1.5
						v9.7C377.1,467.8,376.4,468.4,375.6,468.4z"/>
				</g>
				<g id="XMLID_19548_">
					<path id="XMLID_19549_" class="st3" d="M382.4,468.4c-0.8,0-1.5-0.7-1.5-1.5v-9.7c0-0.8,0.7-1.5,1.5-1.5s1.5,0.7,1.5,1.5v9.7
						C383.9,467.8,383.2,468.4,382.4,468.4z"/>
				</g>
				<g id="XMLID_19546_">
					<path id="XMLID_19547_" class="st3" d="M389.2,468.4c-0.8,0-1.5-0.7-1.5-1.5v-9.7c0-0.8,0.7-1.5,1.5-1.5c0.8,0,1.5,0.7,1.5,1.5
						v9.7C390.7,467.8,390,468.4,389.2,468.4z"/>
				</g>
				<g id="XMLID_19544_">
					<path id="XMLID_19545_" class="st3" d="M396,468.4c-0.8,0-1.5-0.7-1.5-1.5v-9.7c0-0.8,0.7-1.5,1.5-1.5c0.8,0,1.5,0.7,1.5,1.5
						v9.7C397.5,467.8,396.8,468.4,396,468.4z"/>
				</g>
			</g>
		</g>
		<g id="XMLID_19416_">
			<g id="XMLID_19537_">
				<path id="XMLID_19541_" class="st4" d="M178.9,343.3h-75c-6.4,0-11.6,5.2-11.6,11.6v155.7c0,1.7,1.4,3.1,3.1,3.1h92
					c1.7,0,3.1-1.4,3.1-3.1V355C190.5,348.6,185.3,343.3,178.9,343.3z"/>
				<path id="XMLID_19538_" class="st5" d="M178.9,340.4h-75c-8.1,0-14.6,6.6-14.6,14.6v155.7c0,3.4,2.7,6.1,6.1,6.1h92
					c3.4,0,6.1-2.7,6.1-6.1V355C193.5,346.9,186.9,340.4,178.9,340.4z M190.5,510.7c0,1.7-1.4,3.1-3.1,3.1h-92
					c-1.7,0-3.1-1.4-3.1-3.1V355c0-6.4,5.2-11.6,11.6-11.6h75c6.4,0,11.6,5.2,11.6,11.6V510.7z"/>
			</g>
			<g id="XMLID_19534_">
				<path id="XMLID_19536_" class="st3" d="M117.2,522h-15.9c-1.3,0-2.3-1-2.3-2.3v-4.4h20.6v4.4C119.5,520.9,118.5,522,117.2,522z"
					/>
				<path id="XMLID_19535_" class="st3" d="M181.5,522h-15.9c-1.3,0-2.3-1-2.3-2.3v-4.4h20.6v4.4C183.8,520.9,182.8,522,181.5,522z"
					/>
			</g>
			<g id="XMLID_19532_">
				<path id="XMLID_19533_" class="st3" d="M183.8,485.8H98.9c-0.8,0-1.5-0.7-1.5-1.5c0-0.8,0.7-1.5,1.5-1.5h84.9
					c0.8,0,1.5,0.7,1.5,1.5C185.3,485.1,184.6,485.8,183.8,485.8z"/>
			</g>
			<g id="XMLID_19530_">
				<path id="XMLID_19531_" class="st3" d="M183.8,493.4H98.9c-0.8,0-1.5-0.7-1.5-1.5c0-0.8,0.7-1.5,1.5-1.5h84.9
					c0.8,0,1.5,0.7,1.5,1.5C185.3,492.7,184.6,493.4,183.8,493.4z"/>
			</g>
			<g id="XMLID_19528_">
				<path id="XMLID_19529_" class="st3" d="M183.8,501H98.9c-0.8,0-1.5-0.7-1.5-1.5c0-0.8,0.7-1.5,1.5-1.5h84.9
					c0.8,0,1.5,0.7,1.5,1.5C185.3,500.3,184.6,501,183.8,501z"/>
			</g>
			<g id="XMLID_19526_">
				<path id="XMLID_19527_" class="st3" d="M183.8,508.5H98.9c-0.8,0-1.5-0.7-1.5-1.5c0-0.8,0.7-1.5,1.5-1.5h84.9
					c0.8,0,1.5,0.7,1.5,1.5C185.3,507.9,184.6,508.5,183.8,508.5z"/>
			</g>
			<g id="XMLID_19509_">
				<rect id="XMLID_19525_" x="100.4" y="364.2" class="st6" width="81.9" height="18"/>
				<path id="XMLID_19522_" class="st5" d="M97.4,361.2v23.9h87.9v-23.9H97.4z M182.3,382.2h-81.9v-18h81.9V382.2z"/>
				<rect id="XMLID_19521_" x="100.4" y="393.8" class="st6" width="81.9" height="18"/>
				<path id="XMLID_19518_" class="st5" d="M97.4,414.8h87.9v-23.9H97.4V414.8z M100.4,393.8h81.9v18h-81.9V393.8z"/>
				<rect id="XMLID_19517_" x="100.4" y="423.5" class="st6" width="81.9" height="18"/>
				<path id="XMLID_19514_" class="st5" d="M97.4,444.5h87.9v-23.9H97.4V444.5z M100.4,423.5h81.9v18h-81.9V423.5z"/>
				<rect id="XMLID_19513_" x="100.4" y="453.1" class="st6" width="81.9" height="18"/>
				<path id="XMLID_19510_" class="st5" d="M97.4,474.1h87.9v-23.9H97.4V474.1z M100.4,453.1h81.9v18h-81.9V453.1z"/>
			</g>
			<g id="XMLID_19486_">
				<g id="XMLID_19507_">
					<path id="XMLID_19508_" class="st3" d="M107.4,379.5c-0.8,0-1.5-0.7-1.5-1.5v-9.7c0-0.8,0.7-1.5,1.5-1.5c0.8,0,1.5,0.7,1.5,1.5
						v9.7C108.8,378.8,108.2,379.5,107.4,379.5z"/>
				</g>
				<g id="XMLID_19505_">
					<path id="XMLID_19506_" class="st3" d="M114.2,379.5c-0.8,0-1.5-0.7-1.5-1.5v-9.7c0-0.8,0.7-1.5,1.5-1.5c0.8,0,1.5,0.7,1.5,1.5
						v9.7C115.7,378.8,115,379.5,114.2,379.5z"/>
				</g>
				<g id="XMLID_19503_">
					<path id="XMLID_19504_" class="st3" d="M121,379.5c-0.8,0-1.5-0.7-1.5-1.5v-9.7c0-0.8,0.7-1.5,1.5-1.5c0.8,0,1.5,0.7,1.5,1.5
						v9.7C122.5,378.8,121.8,379.5,121,379.5z"/>
				</g>
				<g id="XMLID_19501_">
					<path id="XMLID_19502_" class="st3" d="M127.8,379.5c-0.8,0-1.5-0.7-1.5-1.5v-9.7c0-0.8,0.7-1.5,1.5-1.5c0.8,0,1.5,0.7,1.5,1.5
						v9.7C129.3,378.8,128.6,379.5,127.8,379.5z"/>
				</g>
				<g id="XMLID_19499_">
					<path id="XMLID_19500_" class="st3" d="M134.6,379.5c-0.8,0-1.5-0.7-1.5-1.5v-9.7c0-0.8,0.7-1.5,1.5-1.5c0.8,0,1.5,0.7,1.5,1.5
						v9.7C136.1,378.8,135.4,379.5,134.6,379.5z"/>
				</g>
				<g id="XMLID_19497_">
					<path id="XMLID_19498_" class="st3" d="M141.4,379.5c-0.8,0-1.5-0.7-1.5-1.5v-9.7c0-0.8,0.7-1.5,1.5-1.5c0.8,0,1.5,0.7,1.5,1.5
						v9.7C142.9,378.8,142.2,379.5,141.4,379.5z"/>
				</g>
				<g id="XMLID_19495_">
					<path id="XMLID_19496_" class="st3" d="M148.2,379.5c-0.8,0-1.5-0.7-1.5-1.5v-9.7c0-0.8,0.7-1.5,1.5-1.5c0.8,0,1.5,0.7,1.5,1.5
						v9.7C149.7,378.8,149,379.5,148.2,379.5z"/>
				</g>
				<g id="XMLID_19493_">
					<path id="XMLID_19494_" class="st3" d="M155,379.5c-0.8,0-1.5-0.7-1.5-1.5v-9.7c0-0.8,0.7-1.5,1.5-1.5c0.8,0,1.5,0.7,1.5,1.5
						v9.7C156.5,378.8,155.8,379.5,155,379.5z"/>
				</g>
				<g id="XMLID_19491_">
					<path id="XMLID_19492_" class="st3" d="M161.8,379.5c-0.8,0-1.5-0.7-1.5-1.5v-9.7c0-0.8,0.7-1.5,1.5-1.5c0.8,0,1.5,0.7,1.5,1.5
						v9.7C163.3,378.8,162.6,379.5,161.8,379.5z"/>
				</g>
				<g id="XMLID_19489_">
					<path id="XMLID_19490_" class="st3" d="M168.6,379.5c-0.8,0-1.5-0.7-1.5-1.5v-9.7c0-0.8,0.7-1.5,1.5-1.5c0.8,0,1.5,0.7,1.5,1.5
						v9.7C170.1,378.8,169.4,379.5,168.6,379.5z"/>
				</g>
				<g id="XMLID_19487_">
					<path id="XMLID_19488_" class="st3" d="M175.4,379.5c-0.8,0-1.5-0.7-1.5-1.5v-9.7c0-0.8,0.7-1.5,1.5-1.5c0.8,0,1.5,0.7,1.5,1.5
						v9.7C176.9,378.8,176.2,379.5,175.4,379.5z"/>
				</g>
			</g>
			<g id="XMLID_19463_">
				<g id="XMLID_19484_">
					<path id="XMLID_19485_" class="st3" d="M107.4,409.1c-0.8,0-1.5-0.7-1.5-1.5V398c0-0.8,0.7-1.5,1.5-1.5c0.8,0,1.5,0.7,1.5,1.5
						v9.7C108.8,408.5,108.2,409.1,107.4,409.1z"/>
				</g>
				<g id="XMLID_19482_">
					<path id="XMLID_19483_" class="st3" d="M114.2,409.1c-0.8,0-1.5-0.7-1.5-1.5V398c0-0.8,0.7-1.5,1.5-1.5c0.8,0,1.5,0.7,1.5,1.5
						v9.7C115.7,408.5,115,409.1,114.2,409.1z"/>
				</g>
				<g id="XMLID_19480_">
					<path id="XMLID_19481_" class="st3" d="M121,409.1c-0.8,0-1.5-0.7-1.5-1.5V398c0-0.8,0.7-1.5,1.5-1.5c0.8,0,1.5,0.7,1.5,1.5
						v9.7C122.5,408.5,121.8,409.1,121,409.1z"/>
				</g>
				<g id="XMLID_19478_">
					<path id="XMLID_19479_" class="st3" d="M127.8,409.1c-0.8,0-1.5-0.7-1.5-1.5V398c0-0.8,0.7-1.5,1.5-1.5c0.8,0,1.5,0.7,1.5,1.5
						v9.7C129.3,408.5,128.6,409.1,127.8,409.1z"/>
				</g>
				<g id="XMLID_19476_">
					<path id="XMLID_19477_" class="st3" d="M134.6,409.1c-0.8,0-1.5-0.7-1.5-1.5V398c0-0.8,0.7-1.5,1.5-1.5c0.8,0,1.5,0.7,1.5,1.5
						v9.7C136.1,408.5,135.4,409.1,134.6,409.1z"/>
				</g>
				<g id="XMLID_19474_">
					<path id="XMLID_19475_" class="st3" d="M141.4,409.1c-0.8,0-1.5-0.7-1.5-1.5V398c0-0.8,0.7-1.5,1.5-1.5c0.8,0,1.5,0.7,1.5,1.5
						v9.7C142.9,408.5,142.2,409.1,141.4,409.1z"/>
				</g>
				<g id="XMLID_19472_">
					<path id="XMLID_19473_" class="st3" d="M148.2,409.1c-0.8,0-1.5-0.7-1.5-1.5V398c0-0.8,0.7-1.5,1.5-1.5c0.8,0,1.5,0.7,1.5,1.5
						v9.7C149.7,408.5,149,409.1,148.2,409.1z"/>
				</g>
				<g id="XMLID_19470_">
					<path id="XMLID_19471_" class="st3" d="M155,409.1c-0.8,0-1.5-0.7-1.5-1.5V398c0-0.8,0.7-1.5,1.5-1.5c0.8,0,1.5,0.7,1.5,1.5
						v9.7C156.5,408.5,155.8,409.1,155,409.1z"/>
				</g>
				<g id="XMLID_19468_">
					<path id="XMLID_19469_" class="st3" d="M161.8,409.1c-0.8,0-1.5-0.7-1.5-1.5V398c0-0.8,0.7-1.5,1.5-1.5c0.8,0,1.5,0.7,1.5,1.5
						v9.7C163.3,408.5,162.6,409.1,161.8,409.1z"/>
				</g>
				<g id="XMLID_19466_">
					<path id="XMLID_19467_" class="st3" d="M168.6,409.1c-0.8,0-1.5-0.7-1.5-1.5V398c0-0.8,0.7-1.5,1.5-1.5c0.8,0,1.5,0.7,1.5,1.5
						v9.7C170.1,408.5,169.4,409.1,168.6,409.1z"/>
				</g>
				<g id="XMLID_19464_">
					<path id="XMLID_19465_" class="st3" d="M175.4,409.1c-0.8,0-1.5-0.7-1.5-1.5V398c0-0.8,0.7-1.5,1.5-1.5c0.8,0,1.5,0.7,1.5,1.5
						v9.7C176.9,408.5,176.2,409.1,175.4,409.1z"/>
				</g>
			</g>
			<g id="XMLID_19440_">
				<g id="XMLID_19461_">
					<path id="XMLID_19462_" class="st3" d="M107.4,438.8c-0.8,0-1.5-0.7-1.5-1.5v-9.7c0-0.8,0.7-1.5,1.5-1.5c0.8,0,1.5,0.7,1.5,1.5
						v9.7C108.8,438.1,108.2,438.8,107.4,438.8z"/>
				</g>
				<g id="XMLID_19459_">
					<path id="XMLID_19460_" class="st3" d="M114.2,438.8c-0.8,0-1.5-0.7-1.5-1.5v-9.7c0-0.8,0.7-1.5,1.5-1.5c0.8,0,1.5,0.7,1.5,1.5
						v9.7C115.7,438.1,115,438.8,114.2,438.8z"/>
				</g>
				<g id="XMLID_19457_">
					<path id="XMLID_19458_" class="st3" d="M121,438.8c-0.8,0-1.5-0.7-1.5-1.5v-9.7c0-0.8,0.7-1.5,1.5-1.5c0.8,0,1.5,0.7,1.5,1.5
						v9.7C122.5,438.1,121.8,438.8,121,438.8z"/>
				</g>
				<g id="XMLID_19455_">
					<path id="XMLID_19456_" class="st3" d="M127.8,438.8c-0.8,0-1.5-0.7-1.5-1.5v-9.7c0-0.8,0.7-1.5,1.5-1.5c0.8,0,1.5,0.7,1.5,1.5
						v9.7C129.3,438.1,128.6,438.8,127.8,438.8z"/>
				</g>
				<g id="XMLID_19453_">
					<path id="XMLID_19454_" class="st3" d="M134.6,438.8c-0.8,0-1.5-0.7-1.5-1.5v-9.7c0-0.8,0.7-1.5,1.5-1.5c0.8,0,1.5,0.7,1.5,1.5
						v9.7C136.1,438.1,135.4,438.8,134.6,438.8z"/>
				</g>
				<g id="XMLID_19451_">
					<path id="XMLID_19452_" class="st3" d="M141.4,438.8c-0.8,0-1.5-0.7-1.5-1.5v-9.7c0-0.8,0.7-1.5,1.5-1.5c0.8,0,1.5,0.7,1.5,1.5
						v9.7C142.9,438.1,142.2,438.8,141.4,438.8z"/>
				</g>
				<g id="XMLID_19449_">
					<path id="XMLID_19450_" class="st3" d="M148.2,438.8c-0.8,0-1.5-0.7-1.5-1.5v-9.7c0-0.8,0.7-1.5,1.5-1.5c0.8,0,1.5,0.7,1.5,1.5
						v9.7C149.7,438.1,149,438.8,148.2,438.8z"/>
				</g>
				<g id="XMLID_19447_">
					<path id="XMLID_19448_" class="st3" d="M155,438.8c-0.8,0-1.5-0.7-1.5-1.5v-9.7c0-0.8,0.7-1.5,1.5-1.5c0.8,0,1.5,0.7,1.5,1.5
						v9.7C156.5,438.1,155.8,438.8,155,438.8z"/>
				</g>
				<g id="XMLID_19445_">
					<path id="XMLID_19446_" class="st3" d="M161.8,438.8c-0.8,0-1.5-0.7-1.5-1.5v-9.7c0-0.8,0.7-1.5,1.5-1.5c0.8,0,1.5,0.7,1.5,1.5
						v9.7C163.3,438.1,162.6,438.8,161.8,438.8z"/>
				</g>
				<g id="XMLID_19443_">
					<path id="XMLID_19444_" class="st3" d="M168.6,438.8c-0.8,0-1.5-0.7-1.5-1.5v-9.7c0-0.8,0.7-1.5,1.5-1.5c0.8,0,1.5,0.7,1.5,1.5
						v9.7C170.1,438.1,169.4,438.8,168.6,438.8z"/>
				</g>
				<g id="XMLID_19441_">
					<path id="XMLID_19442_" class="st3" d="M175.4,438.8c-0.8,0-1.5-0.7-1.5-1.5v-9.7c0-0.8,0.7-1.5,1.5-1.5c0.8,0,1.5,0.7,1.5,1.5
						v9.7C176.9,438.1,176.2,438.8,175.4,438.8z"/>
				</g>
			</g>
			<g id="XMLID_19417_">
				<g id="XMLID_19438_">
					<path id="XMLID_19439_" class="st3" d="M107.4,468.4c-0.8,0-1.5-0.7-1.5-1.5v-9.7c0-0.8,0.7-1.5,1.5-1.5c0.8,0,1.5,0.7,1.5,1.5
						v9.7C108.8,467.8,108.2,468.4,107.4,468.4z"/>
				</g>
				<g id="XMLID_19436_">
					<path id="XMLID_19437_" class="st3" d="M114.2,468.4c-0.8,0-1.5-0.7-1.5-1.5v-9.7c0-0.8,0.7-1.5,1.5-1.5c0.8,0,1.5,0.7,1.5,1.5
						v9.7C115.7,467.8,115,468.4,114.2,468.4z"/>
				</g>
				<g id="XMLID_19434_">
					<path id="XMLID_19435_" class="st3" d="M121,468.4c-0.8,0-1.5-0.7-1.5-1.5v-9.7c0-0.8,0.7-1.5,1.5-1.5c0.8,0,1.5,0.7,1.5,1.5
						v9.7C122.5,467.8,121.8,468.4,121,468.4z"/>
				</g>
				<g id="XMLID_19432_">
					<path id="XMLID_19433_" class="st3" d="M127.8,468.4c-0.8,0-1.5-0.7-1.5-1.5v-9.7c0-0.8,0.7-1.5,1.5-1.5c0.8,0,1.5,0.7,1.5,1.5
						v9.7C129.3,467.8,128.6,468.4,127.8,468.4z"/>
				</g>
				<g id="XMLID_19430_">
					<path id="XMLID_19431_" class="st3" d="M134.6,468.4c-0.8,0-1.5-0.7-1.5-1.5v-9.7c0-0.8,0.7-1.5,1.5-1.5c0.8,0,1.5,0.7,1.5,1.5
						v9.7C136.1,467.8,135.4,468.4,134.6,468.4z"/>
				</g>
				<g id="XMLID_19428_">
					<path id="XMLID_19429_" class="st3" d="M141.4,468.4c-0.8,0-1.5-0.7-1.5-1.5v-9.7c0-0.8,0.7-1.5,1.5-1.5c0.8,0,1.5,0.7,1.5,1.5
						v9.7C142.9,467.8,142.2,468.4,141.4,468.4z"/>
				</g>
				<g id="XMLID_19426_">
					<path id="XMLID_19427_" class="st3" d="M148.2,468.4c-0.8,0-1.5-0.7-1.5-1.5v-9.7c0-0.8,0.7-1.5,1.5-1.5c0.8,0,1.5,0.7,1.5,1.5
						v9.7C149.7,467.8,149,468.4,148.2,468.4z"/>
				</g>
				<g id="XMLID_19424_">
					<path id="XMLID_19425_" class="st3" d="M155,468.4c-0.8,0-1.5-0.7-1.5-1.5v-9.7c0-0.8,0.7-1.5,1.5-1.5c0.8,0,1.5,0.7,1.5,1.5
						v9.7C156.5,467.8,155.8,468.4,155,468.4z"/>
				</g>
				<g id="XMLID_19422_">
					<path id="XMLID_19423_" class="st3" d="M161.8,468.4c-0.8,0-1.5-0.7-1.5-1.5v-9.7c0-0.8,0.7-1.5,1.5-1.5c0.8,0,1.5,0.7,1.5,1.5
						v9.7C163.3,467.8,162.6,468.4,161.8,468.4z"/>
				</g>
				<g id="XMLID_19420_">
					<path id="XMLID_19421_" class="st3" d="M168.6,468.4c-0.8,0-1.5-0.7-1.5-1.5v-9.7c0-0.8,0.7-1.5,1.5-1.5c0.8,0,1.5,0.7,1.5,1.5
						v9.7C170.1,467.8,169.4,468.4,168.6,468.4z"/>
				</g>
				<g id="XMLID_19418_">
					<path id="XMLID_19419_" class="st3" d="M175.4,468.4c-0.8,0-1.5-0.7-1.5-1.5v-9.7c0-0.8,0.7-1.5,1.5-1.5c0.8,0,1.5,0.7,1.5,1.5
						v9.7C176.9,467.8,176.2,468.4,175.4,468.4z"/>
				</g>
			</g>
		</g>
		<g id="XMLID_19290_">
			<g id="XMLID_19411_">
				<path id="XMLID_19415_" class="st4" d="M290.1,343.3h-75c-6.4,0-11.6,5.2-11.6,11.6v155.7c0,1.7,1.4,3.1,3.1,3.1h92
					c1.7,0,3.1-1.4,3.1-3.1V355C301.7,348.6,296.5,343.3,290.1,343.3z"/>
				<path id="XMLID_19412_" class="st5" d="M290.1,340.4h-75c-8.1,0-14.6,6.6-14.6,14.6v155.7c0,3.4,2.7,6.1,6.1,6.1h92
					c3.4,0,6.1-2.7,6.1-6.1V355C304.7,346.9,298.1,340.4,290.1,340.4z M301.7,510.7c0,1.7-1.4,3.1-3.1,3.1h-92
					c-1.7,0-3.1-1.4-3.1-3.1V355c0-6.4,5.2-11.6,11.6-11.6h75c6.4,0,11.6,5.2,11.6,11.6V510.7z"/>
			</g>
			<g id="XMLID_19408_">
				<path id="XMLID_19410_" class="st3" d="M228.4,522h-15.9c-1.3,0-2.3-1-2.3-2.3v-4.4h20.6v4.4C230.7,520.9,229.7,522,228.4,522z"
					/>
				<path id="XMLID_19409_" class="st3" d="M292.7,522h-15.9c-1.3,0-2.3-1-2.3-2.3v-4.4H295v4.4C295,520.9,294,522,292.7,522z"/>
			</g>
			<g id="XMLID_19406_">
				<path id="XMLID_19407_" class="st3" d="M295,485.8h-84.9c-0.8,0-1.5-0.7-1.5-1.5c0-0.8,0.7-1.5,1.5-1.5H295
					c0.8,0,1.5,0.7,1.5,1.5C296.5,485.1,295.8,485.8,295,485.8z"/>
			</g>
			<g id="XMLID_19404_">
				<path id="XMLID_19405_" class="st3" d="M295,493.4h-84.9c-0.8,0-1.5-0.7-1.5-1.5c0-0.8,0.7-1.5,1.5-1.5H295
					c0.8,0,1.5,0.7,1.5,1.5C296.5,492.7,295.8,493.4,295,493.4z"/>
			</g>
			<g id="XMLID_19402_">
				<path id="XMLID_19403_" class="st3" d="M295,501h-84.9c-0.8,0-1.5-0.7-1.5-1.5c0-0.8,0.7-1.5,1.5-1.5H295c0.8,0,1.5,0.7,1.5,1.5
					C296.5,500.3,295.8,501,295,501z"/>
			</g>
			<g id="XMLID_19400_">
				<path id="XMLID_19401_" class="st3" d="M295,508.5h-84.9c-0.8,0-1.5-0.7-1.5-1.5c0-0.8,0.7-1.5,1.5-1.5H295
					c0.8,0,1.5,0.7,1.5,1.5C296.5,507.9,295.8,508.5,295,508.5z"/>
			</g>
			<g id="XMLID_19383_">
				<rect id="XMLID_19399_" x="211.6" y="364.2" class="st6" width="81.9" height="18"/>
				<path id="XMLID_19396_" class="st5" d="M208.6,361.2v23.9h87.9v-23.9H208.6z M293.5,382.2h-81.9v-18h81.9V382.2z"/>
				<rect id="XMLID_19395_" x="211.6" y="393.8" class="st6" width="81.9" height="18"/>
				<path id="XMLID_19392_" class="st5" d="M208.6,414.8h87.9v-23.9h-87.9V414.8z M211.6,393.8h81.9v18h-81.9V393.8z"/>
				<rect id="XMLID_19391_" x="211.6" y="423.5" class="st6" width="81.9" height="18"/>
				<path id="XMLID_19388_" class="st5" d="M208.6,444.5h87.9v-23.9h-87.9V444.5z M211.6,423.5h81.9v18h-81.9V423.5z"/>
				<rect id="XMLID_19387_" x="211.6" y="453.1" class="st6" width="81.9" height="18"/>
				<path id="XMLID_19384_" class="st5" d="M208.6,474.1h87.9v-23.9h-87.9V474.1z M211.6,453.1h81.9v18h-81.9V453.1z"/>
			</g>
			<g id="XMLID_19360_">
				<g id="XMLID_19381_">
					<path id="XMLID_19382_" class="st3" d="M218.6,379.5c-0.8,0-1.5-0.7-1.5-1.5v-9.7c0-0.8,0.7-1.5,1.5-1.5c0.8,0,1.5,0.7,1.5,1.5
						v9.7C220,378.8,219.4,379.5,218.6,379.5z"/>
				</g>
				<g id="XMLID_19379_">
					<path id="XMLID_19380_" class="st3" d="M225.4,379.5c-0.8,0-1.5-0.7-1.5-1.5v-9.7c0-0.8,0.7-1.5,1.5-1.5c0.8,0,1.5,0.7,1.5,1.5
						v9.7C226.8,378.8,226.2,379.5,225.4,379.5z"/>
				</g>
				<g id="XMLID_19377_">
					<path id="XMLID_19378_" class="st3" d="M232.2,379.5c-0.8,0-1.5-0.7-1.5-1.5v-9.7c0-0.8,0.7-1.5,1.5-1.5c0.8,0,1.5,0.7,1.5,1.5
						v9.7C233.6,378.8,233,379.5,232.2,379.5z"/>
				</g>
				<g id="XMLID_19375_">
					<path id="XMLID_19376_" class="st3" d="M239,379.5c-0.8,0-1.5-0.7-1.5-1.5v-9.7c0-0.8,0.7-1.5,1.5-1.5c0.8,0,1.5,0.7,1.5,1.5
						v9.7C240.4,378.8,239.8,379.5,239,379.5z"/>
				</g>
				<g id="XMLID_19373_">
					<path id="XMLID_19374_" class="st3" d="M245.8,379.5c-0.8,0-1.5-0.7-1.5-1.5v-9.7c0-0.8,0.7-1.5,1.5-1.5c0.8,0,1.5,0.7,1.5,1.5
						v9.7C247.2,378.8,246.6,379.5,245.8,379.5z"/>
				</g>
				<g id="XMLID_19371_">
					<path id="XMLID_19372_" class="st3" d="M252.6,379.5c-0.8,0-1.5-0.7-1.5-1.5v-9.7c0-0.8,0.7-1.5,1.5-1.5c0.8,0,1.5,0.7,1.5,1.5
						v9.7C254,378.8,253.4,379.5,252.6,379.5z"/>
				</g>
				<g id="XMLID_19369_">
					<path id="XMLID_19370_" class="st3" d="M259.4,379.5c-0.8,0-1.5-0.7-1.5-1.5v-9.7c0-0.8,0.7-1.5,1.5-1.5c0.8,0,1.5,0.7,1.5,1.5
						v9.7C260.8,378.8,260.2,379.5,259.4,379.5z"/>
				</g>
				<g id="XMLID_19367_">
					<path id="XMLID_19368_" class="st3" d="M266.2,379.5c-0.8,0-1.5-0.7-1.5-1.5v-9.7c0-0.8,0.7-1.5,1.5-1.5c0.8,0,1.5,0.7,1.5,1.5
						v9.7C267.6,378.8,267,379.5,266.2,379.5z"/>
				</g>
				<g id="XMLID_19365_">
					<path id="XMLID_19366_" class="st3" d="M273,379.5c-0.8,0-1.5-0.7-1.5-1.5v-9.7c0-0.8,0.7-1.5,1.5-1.5c0.8,0,1.5,0.7,1.5,1.5
						v9.7C274.4,378.8,273.8,379.5,273,379.5z"/>
				</g>
				<g id="XMLID_19363_">
					<path id="XMLID_19364_" class="st3" d="M279.8,379.5c-0.8,0-1.5-0.7-1.5-1.5v-9.7c0-0.8,0.7-1.5,1.5-1.5c0.8,0,1.5,0.7,1.5,1.5
						v9.7C281.2,378.8,280.6,379.5,279.8,379.5z"/>
				</g>
				<g id="XMLID_19361_">
					<path id="XMLID_19362_" class="st3" d="M286.6,379.5c-0.8,0-1.5-0.7-1.5-1.5v-9.7c0-0.8,0.7-1.5,1.5-1.5c0.8,0,1.5,0.7,1.5,1.5
						v9.7C288,378.8,287.4,379.5,286.6,379.5z"/>
				</g>
			</g>
			<g id="XMLID_19337_">
				<g id="XMLID_19358_">
					<path id="XMLID_19359_" class="st3" d="M218.6,409.1c-0.8,0-1.5-0.7-1.5-1.5V398c0-0.8,0.7-1.5,1.5-1.5c0.8,0,1.5,0.7,1.5,1.5
						v9.7C220,408.5,219.4,409.1,218.6,409.1z"/>
				</g>
				<g id="XMLID_19356_">
					<path id="XMLID_19357_" class="st3" d="M225.4,409.1c-0.8,0-1.5-0.7-1.5-1.5V398c0-0.8,0.7-1.5,1.5-1.5c0.8,0,1.5,0.7,1.5,1.5
						v9.7C226.8,408.5,226.2,409.1,225.4,409.1z"/>
				</g>
				<g id="XMLID_19354_">
					<path id="XMLID_19355_" class="st3" d="M232.2,409.1c-0.8,0-1.5-0.7-1.5-1.5V398c0-0.8,0.7-1.5,1.5-1.5c0.8,0,1.5,0.7,1.5,1.5
						v9.7C233.6,408.5,233,409.1,232.2,409.1z"/>
				</g>
				<g id="XMLID_19352_">
					<path id="XMLID_19353_" class="st3" d="M239,409.1c-0.8,0-1.5-0.7-1.5-1.5V398c0-0.8,0.7-1.5,1.5-1.5c0.8,0,1.5,0.7,1.5,1.5
						v9.7C240.4,408.5,239.8,409.1,239,409.1z"/>
				</g>
				<g id="XMLID_19350_">
					<path id="XMLID_19351_" class="st3" d="M245.8,409.1c-0.8,0-1.5-0.7-1.5-1.5V398c0-0.8,0.7-1.5,1.5-1.5c0.8,0,1.5,0.7,1.5,1.5
						v9.7C247.2,408.5,246.6,409.1,245.8,409.1z"/>
				</g>
				<g id="XMLID_19348_">
					<path id="XMLID_19349_" class="st3" d="M252.6,409.1c-0.8,0-1.5-0.7-1.5-1.5V398c0-0.8,0.7-1.5,1.5-1.5c0.8,0,1.5,0.7,1.5,1.5
						v9.7C254,408.5,253.4,409.1,252.6,409.1z"/>
				</g>
				<g id="XMLID_19346_">
					<path id="XMLID_19347_" class="st3" d="M259.4,409.1c-0.8,0-1.5-0.7-1.5-1.5V398c0-0.8,0.7-1.5,1.5-1.5c0.8,0,1.5,0.7,1.5,1.5
						v9.7C260.8,408.5,260.2,409.1,259.4,409.1z"/>
				</g>
				<g id="XMLID_19344_">
					<path id="XMLID_19345_" class="st3" d="M266.2,409.1c-0.8,0-1.5-0.7-1.5-1.5V398c0-0.8,0.7-1.5,1.5-1.5c0.8,0,1.5,0.7,1.5,1.5
						v9.7C267.6,408.5,267,409.1,266.2,409.1z"/>
				</g>
				<g id="XMLID_19342_">
					<path id="XMLID_19343_" class="st3" d="M273,409.1c-0.8,0-1.5-0.7-1.5-1.5V398c0-0.8,0.7-1.5,1.5-1.5c0.8,0,1.5,0.7,1.5,1.5
						v9.7C274.4,408.5,273.8,409.1,273,409.1z"/>
				</g>
				<g id="XMLID_19340_">
					<path id="XMLID_19341_" class="st3" d="M279.8,409.1c-0.8,0-1.5-0.7-1.5-1.5V398c0-0.8,0.7-1.5,1.5-1.5c0.8,0,1.5,0.7,1.5,1.5
						v9.7C281.2,408.5,280.6,409.1,279.8,409.1z"/>
				</g>
				<g id="XMLID_19338_">
					<path id="XMLID_19339_" class="st3" d="M286.6,409.1c-0.8,0-1.5-0.7-1.5-1.5V398c0-0.8,0.7-1.5,1.5-1.5c0.8,0,1.5,0.7,1.5,1.5
						v9.7C288,408.5,287.4,409.1,286.6,409.1z"/>
				</g>
			</g>
			<g id="XMLID_19314_">
				<g id="XMLID_19335_">
					<path id="XMLID_19336_" class="st3" d="M218.6,438.8c-0.8,0-1.5-0.7-1.5-1.5v-9.7c0-0.8,0.7-1.5,1.5-1.5c0.8,0,1.5,0.7,1.5,1.5
						v9.7C220,438.1,219.4,438.8,218.6,438.8z"/>
				</g>
				<g id="XMLID_19333_">
					<path id="XMLID_19334_" class="st3" d="M225.4,438.8c-0.8,0-1.5-0.7-1.5-1.5v-9.7c0-0.8,0.7-1.5,1.5-1.5c0.8,0,1.5,0.7,1.5,1.5
						v9.7C226.8,438.1,226.2,438.8,225.4,438.8z"/>
				</g>
				<g id="XMLID_19331_">
					<path id="XMLID_19332_" class="st3" d="M232.2,438.8c-0.8,0-1.5-0.7-1.5-1.5v-9.7c0-0.8,0.7-1.5,1.5-1.5c0.8,0,1.5,0.7,1.5,1.5
						v9.7C233.6,438.1,233,438.8,232.2,438.8z"/>
				</g>
				<g id="XMLID_19329_">
					<path id="XMLID_19330_" class="st3" d="M239,438.8c-0.8,0-1.5-0.7-1.5-1.5v-9.7c0-0.8,0.7-1.5,1.5-1.5c0.8,0,1.5,0.7,1.5,1.5
						v9.7C240.4,438.1,239.8,438.8,239,438.8z"/>
				</g>
				<g id="XMLID_19327_">
					<path id="XMLID_19328_" class="st3" d="M245.8,438.8c-0.8,0-1.5-0.7-1.5-1.5v-9.7c0-0.8,0.7-1.5,1.5-1.5c0.8,0,1.5,0.7,1.5,1.5
						v9.7C247.2,438.1,246.6,438.8,245.8,438.8z"/>
				</g>
				<g id="XMLID_19325_">
					<path id="XMLID_19326_" class="st3" d="M252.6,438.8c-0.8,0-1.5-0.7-1.5-1.5v-9.7c0-0.8,0.7-1.5,1.5-1.5c0.8,0,1.5,0.7,1.5,1.5
						v9.7C254,438.1,253.4,438.8,252.6,438.8z"/>
				</g>
				<g id="XMLID_19323_">
					<path id="XMLID_19324_" class="st3" d="M259.4,438.8c-0.8,0-1.5-0.7-1.5-1.5v-9.7c0-0.8,0.7-1.5,1.5-1.5c0.8,0,1.5,0.7,1.5,1.5
						v9.7C260.8,438.1,260.2,438.8,259.4,438.8z"/>
				</g>
				<g id="XMLID_19321_">
					<path id="XMLID_19322_" class="st3" d="M266.2,438.8c-0.8,0-1.5-0.7-1.5-1.5v-9.7c0-0.8,0.7-1.5,1.5-1.5c0.8,0,1.5,0.7,1.5,1.5
						v9.7C267.6,438.1,267,438.8,266.2,438.8z"/>
				</g>
				<g id="XMLID_19319_">
					<path id="XMLID_19320_" class="st3" d="M273,438.8c-0.8,0-1.5-0.7-1.5-1.5v-9.7c0-0.8,0.7-1.5,1.5-1.5c0.8,0,1.5,0.7,1.5,1.5
						v9.7C274.4,438.1,273.8,438.8,273,438.8z"/>
				</g>
				<g id="XMLID_19317_">
					<path id="XMLID_19318_" class="st3" d="M279.8,438.8c-0.8,0-1.5-0.7-1.5-1.5v-9.7c0-0.8,0.7-1.5,1.5-1.5c0.8,0,1.5,0.7,1.5,1.5
						v9.7C281.2,438.1,280.6,438.8,279.8,438.8z"/>
				</g>
				<g id="XMLID_19315_">
					<path id="XMLID_19316_" class="st3" d="M286.6,438.8c-0.8,0-1.5-0.7-1.5-1.5v-9.7c0-0.8,0.7-1.5,1.5-1.5c0.8,0,1.5,0.7,1.5,1.5
						v9.7C288,438.1,287.4,438.8,286.6,438.8z"/>
				</g>
			</g>
			<g id="XMLID_19291_">
				<g id="XMLID_19312_">
					<path id="XMLID_19313_" class="st3" d="M218.6,468.4c-0.8,0-1.5-0.7-1.5-1.5v-9.7c0-0.8,0.7-1.5,1.5-1.5c0.8,0,1.5,0.7,1.5,1.5
						v9.7C220,467.8,219.4,468.4,218.6,468.4z"/>
				</g>
				<g id="XMLID_19310_">
					<path id="XMLID_19311_" class="st3" d="M225.4,468.4c-0.8,0-1.5-0.7-1.5-1.5v-9.7c0-0.8,0.7-1.5,1.5-1.5c0.8,0,1.5,0.7,1.5,1.5
						v9.7C226.8,467.8,226.2,468.4,225.4,468.4z"/>
				</g>
				<g id="XMLID_19308_">
					<path id="XMLID_19309_" class="st3" d="M232.2,468.4c-0.8,0-1.5-0.7-1.5-1.5v-9.7c0-0.8,0.7-1.5,1.5-1.5c0.8,0,1.5,0.7,1.5,1.5
						v9.7C233.6,467.8,233,468.4,232.2,468.4z"/>
				</g>
				<g id="XMLID_19306_">
					<path id="XMLID_19307_" class="st3" d="M239,468.4c-0.8,0-1.5-0.7-1.5-1.5v-9.7c0-0.8,0.7-1.5,1.5-1.5c0.8,0,1.5,0.7,1.5,1.5
						v9.7C240.4,467.8,239.8,468.4,239,468.4z"/>
				</g>
				<g id="XMLID_19304_">
					<path id="XMLID_19305_" class="st3" d="M245.8,468.4c-0.8,0-1.5-0.7-1.5-1.5v-9.7c0-0.8,0.7-1.5,1.5-1.5c0.8,0,1.5,0.7,1.5,1.5
						v9.7C247.2,467.8,246.6,468.4,245.8,468.4z"/>
				</g>
				<g id="XMLID_19302_">
					<path id="XMLID_19303_" class="st3" d="M252.6,468.4c-0.8,0-1.5-0.7-1.5-1.5v-9.7c0-0.8,0.7-1.5,1.5-1.5c0.8,0,1.5,0.7,1.5,1.5
						v9.7C254,467.8,253.4,468.4,252.6,468.4z"/>
				</g>
				<g id="XMLID_19300_">
					<path id="XMLID_19301_" class="st3" d="M259.4,468.4c-0.8,0-1.5-0.7-1.5-1.5v-9.7c0-0.8,0.7-1.5,1.5-1.5c0.8,0,1.5,0.7,1.5,1.5
						v9.7C260.8,467.8,260.2,468.4,259.4,468.4z"/>
				</g>
				<g id="XMLID_19298_">
					<path id="XMLID_19299_" class="st3" d="M266.2,468.4c-0.8,0-1.5-0.7-1.5-1.5v-9.7c0-0.8,0.7-1.5,1.5-1.5c0.8,0,1.5,0.7,1.5,1.5
						v9.7C267.6,467.8,267,468.4,266.2,468.4z"/>
				</g>
				<g id="XMLID_19296_">
					<path id="XMLID_19297_" class="st3" d="M273,468.4c-0.8,0-1.5-0.7-1.5-1.5v-9.7c0-0.8,0.7-1.5,1.5-1.5c0.8,0,1.5,0.7,1.5,1.5
						v9.7C274.4,467.8,273.8,468.4,273,468.4z"/>
				</g>
				<g id="XMLID_19294_">
					<path id="XMLID_19295_" class="st3" d="M279.8,468.4c-0.8,0-1.5-0.7-1.5-1.5v-9.7c0-0.8,0.7-1.5,1.5-1.5c0.8,0,1.5,0.7,1.5,1.5
						v9.7C281.2,467.8,280.6,468.4,279.8,468.4z"/>
				</g>
				<g id="XMLID_19292_">
					<path id="XMLID_19293_" class="st3" d="M286.6,468.4c-0.8,0-1.5-0.7-1.5-1.5v-9.7c0-0.8,0.7-1.5,1.5-1.5c0.8,0,1.5,0.7,1.5,1.5
						v9.7C288,467.8,287.4,468.4,286.6,468.4z"/>
				</g>
			</g>
		</g>
	</g>
</g>
<g id="XMLID_171_">
	<path id="XMLID_570_" class="st1" d="M537.4,468.8l1,0.3c-0.2,0.9-0.6,1.6-1.2,2.1c-0.6,0.5-1.4,0.7-2.2,0.7s-1.6-0.2-2.2-0.5
		c-0.5-0.3-0.9-0.8-1.2-1.6c-0.3-0.7-0.4-1.5-0.4-2.2c0-0.8,0.2-1.6,0.5-2.2s0.8-1.1,1.4-1.5c0.6-0.3,1.2-0.5,2-0.5
		c0.8,0,1.6,0.2,2.1,0.6s0.9,1,1.1,1.8l-1,0.2c-0.2-0.6-0.4-1-0.8-1.4c-0.4-0.3-0.8-0.4-1.4-0.4c-0.6,0-1.1,0.1-1.6,0.4
		c-0.4,0.3-0.7,0.7-0.9,1.2s-0.2,1-0.2,1.6c0,0.7,0.1,1.4,0.3,1.9c0.2,0.5,0.5,0.9,0.9,1.1c0.4,0.2,0.9,0.4,1.4,0.4
		c0.6,0,1.1-0.2,1.6-0.5C536.9,470,537.2,469.5,537.4,468.8z"/>
	<path id="XMLID_649_" class="st1" d="M539.6,471.6v-8.2h1v8.2H539.6z"/>
	<path id="XMLID_652_" class="st1" d="M542.2,464.7v-1.3h1v1.1h-1V464.7z M542.2,471.6v-5.9h1v5.9H542.2z"/>
	<path id="XMLID_6478_" class="st1" d="M548.7,469.5l1,0.1c-0.1,0.7-0.4,1.2-0.8,1.6c-0.4,0.4-1,0.6-1.7,0.6c-0.8,0-1.5-0.3-2-0.8
		s-0.7-1.2-0.7-2.3c0-0.6,0.1-1.2,0.3-1.7c0.2-0.5,0.5-0.8,0.9-1c0.4-0.2,0.9-0.3,1.5-0.3c0.6,0,1.1,0.2,1.6,0.5
		c0.4,0.3,0.6,0.8,0.8,1.4l-0.9,0.1c-0.1-0.4-0.2-0.7-0.5-0.9c-0.3-0.2-0.5-0.3-0.8-0.3c-0.5,0-0.9,0.2-1.2,0.5s-0.5,0.9-0.5,1.8
		s0.1,1.4,0.4,1.8c0.3,0.3,0.7,0.5,1.2,0.5c0.4,0,0.7-0.1,1-0.3C548.4,470.4,548.6,470,548.7,469.5z"/>
	<path id="XMLID_7520_" class="st1" d="M553.3,469.9l1-0.2c0.1,0.4,0.2,0.7,0.4,0.9c0.2,0.2,0.6,0.3,1,0.3c0.4,0,0.8-0.1,1-0.3
		c0.2-0.2,0.3-0.4,0.3-0.6s-0.1-0.4-0.3-0.5c-0.1-0.1-0.5-0.2-1-0.3c-0.7-0.2-1.2-0.3-1.6-0.5c-0.3-0.1-0.5-0.3-0.6-0.5
		c-0.1-0.2-0.2-0.5-0.2-0.8s0.1-0.5,0.2-0.7s0.3-0.4,0.5-0.5s0.4-0.2,0.6-0.3c0.2-0.1,0.5-0.1,0.8-0.1c0.4,0,0.8,0.1,1.2,0.2
		c0.3,0.1,0.6,0.3,0.7,0.5c0.2,0.2,0.3,0.5,0.3,0.9l-0.9,0.1c0-0.3-0.2-0.5-0.4-0.7c-0.2-0.2-0.5-0.2-0.9-0.2c-0.4,0-0.8,0.1-1,0.2
		s-0.3,0.3-0.3,0.5c0,0.1,0,0.2,0.1,0.3c0.1,0.1,0.2,0.2,0.4,0.3c0.1,0,0.4,0.1,0.9,0.2c0.7,0.2,1.2,0.3,1.5,0.4s0.5,0.3,0.6,0.5
		c0.1,0.2,0.2,0.5,0.2,0.8s-0.1,0.6-0.3,0.9s-0.5,0.5-0.8,0.7c-0.4,0.2-0.8,0.2-1.2,0.2c-0.7,0-1.4-0.2-1.8-0.5
		C553.4,470.8,553.4,470.5,553.3,469.9z"/>
	<path id="XMLID_7537_" class="st1" d="M559,468.7c0-1.1,0.3-1.9,0.9-2.4c0.5-0.4,1.1-0.6,1.9-0.6s1.5,0.3,2,0.8s0.7,1.2,0.7,2.2
		c0,0.7-0.1,1.4-0.3,1.8c-0.2,0.4-0.5,0.7-1,1c-0.4,0.2-0.9,0.3-1.5,0.3c-0.8,0-1.5-0.3-2-0.8C559.3,470.5,559,469.7,559,468.7z
		 M560,468.7c0,0.7,0.2,1.4,0.5,1.7c0.3,0.3,0.7,0.5,1.2,0.5s0.9-0.2,1.2-0.5c0.3-0.4,0.5-0.9,0.5-1.8c0-0.7-0.2-1.2-0.5-1.7
		c-0.3-0.4-0.7-0.5-1.2-0.5s-0.9,0.2-1.2,0.5C560.2,467.3,560,467.9,560,468.7z"/>
	<path id="XMLID_7543_" class="st1" d="M566.7,471.6h-0.9v-8.2h1v2.9c0.4-0.5,0.9-0.8,1.7-0.8c0.4,0,0.7,0.1,1,0.2s0.6,0.3,0.8,0.6
		c0.2,0.3,0.4,0.6,0.5,0.9c0.1,0.4,0.2,0.7,0.2,1.2c0,1-0.2,1.8-0.7,2.4c-0.5,0.5-1.1,0.8-1.8,0.8s-1.2-0.3-1.7-0.8L566.7,471.6
		L566.7,471.6L566.7,471.6z M566.7,468.6c0,0.7,0.1,1.2,0.3,1.6c0.3,0.5,0.7,0.7,1.2,0.7c0.4,0,0.8-0.2,1.1-0.6s0.5-0.9,0.5-1.7
		c0-0.7-0.1-1.4-0.4-1.7c-0.3-0.4-0.7-0.5-1.1-0.5c-0.4,0-0.8,0.2-1.1,0.6C566.8,467.4,566.7,467.9,566.7,468.6z"/>
	<path id="XMLID_7560_" class="st1" d="M572.1,471.6v-5.9h0.9v0.9c0.2-0.4,0.4-0.7,0.6-0.8c0.2-0.1,0.4-0.2,0.6-0.2
		c0.3,0,0.7,0.1,1,0.3l-0.3,0.9c-0.2-0.1-0.5-0.2-0.7-0.2s-0.4,0.1-0.6,0.2s-0.3,0.3-0.4,0.5c-0.1,0.3-0.2,0.7-0.2,1.1v3.1h-0.9
		V471.6z"/>
	<path id="XMLID_10320_" class="st1" d="M580,469.8l1,0.1c-0.2,0.6-0.4,1-0.9,1.5c-0.4,0.3-1,0.5-1.7,0.5c-0.8,0-1.6-0.3-2.1-0.8
		s-0.7-1.2-0.7-2.3s0.2-1.8,0.7-2.3s1.1-0.8,2-0.8c0.8,0,1.5,0.3,2,0.8s0.7,1.4,0.7,2.3c0,0.1,0,0.1,0,0.3h-4.5
		c0,0.6,0.2,1.1,0.5,1.5c0.3,0.3,0.7,0.5,1.2,0.5c0.4,0,0.7-0.1,0.9-0.3C579.6,470.5,579.8,470.2,580,469.8z M576.7,468.1h3.3
		c0-0.5-0.2-0.8-0.4-1.1c-0.3-0.4-0.7-0.6-1.2-0.6c-0.4,0-0.8,0.1-1.1,0.4C576.9,467.2,576.7,467.6,576.7,468.1z"/>
	<path id="XMLID_10330_" class="st1" d="M589.3,469.5l1,0.1c-0.1,0.7-0.4,1.2-0.8,1.6c-0.4,0.4-1,0.6-1.7,0.6c-0.8,0-1.5-0.3-2-0.8
		s-0.7-1.2-0.7-2.3c0-0.6,0.1-1.2,0.3-1.7c0.2-0.5,0.5-0.8,0.9-1c0.4-0.2,0.9-0.3,1.5-0.3c0.6,0,1.1,0.2,1.6,0.5
		c0.4,0.3,0.6,0.8,0.8,1.4l-1,0.1c-0.1-0.4-0.2-0.7-0.5-0.9c-0.3-0.2-0.5-0.3-0.8-0.3c-0.5,0-0.9,0.2-1.2,0.5
		c-0.3,0.3-0.5,0.9-0.5,1.8s0.1,1.4,0.4,1.8c0.3,0.3,0.7,0.5,1.2,0.5c0.4,0,0.7-0.1,1-0.3C589.1,470.4,589.2,470,589.3,469.5z"/>
	<path id="XMLID_10344_" class="st1" d="M595.1,470.9c-0.4,0.3-0.7,0.5-1,0.6s-0.7,0.2-1.1,0.2c-0.6,0-1.1-0.2-1.5-0.5
		c-0.3-0.3-0.5-0.7-0.5-1.2c0-0.3,0.1-0.5,0.2-0.8c0.1-0.2,0.3-0.4,0.5-0.6s0.4-0.2,0.7-0.3c0.2,0,0.5-0.1,0.9-0.1
		c0.8-0.1,1.5-0.2,1.8-0.3c0-0.1,0-0.2,0-0.3c0-0.4-0.1-0.7-0.3-0.8c-0.2-0.2-0.6-0.3-1.1-0.3s-0.8,0.1-1,0.2s-0.4,0.4-0.5,0.8
		l-0.9-0.1c0.1-0.4,0.2-0.7,0.4-1s0.5-0.4,0.9-0.6c0.4-0.1,0.8-0.2,1.4-0.2c0.6,0,0.9,0.1,1.2,0.2c0.3,0.1,0.5,0.3,0.7,0.4
		s0.2,0.4,0.3,0.7c0,0.2,0,0.5,0,0.9v1.4c0,0.9,0,1.6,0.1,1.8c0.1,0.2,0.1,0.5,0.2,0.7h-1C595.2,471.4,595.1,471.2,595.1,470.9z
		 M595,468.7c-0.4,0.1-0.9,0.3-1.7,0.4c-0.4,0.1-0.7,0.1-0.8,0.2c-0.2,0.1-0.3,0.2-0.4,0.3c-0.1,0.1-0.1,0.3-0.1,0.5
		c0,0.3,0.1,0.5,0.3,0.6s0.5,0.3,0.9,0.3c0.4,0,0.7-0.1,1-0.2c0.3-0.2,0.5-0.4,0.6-0.7c0.1-0.2,0.2-0.5,0.2-1V468.7L595,468.7
		L595,468.7z"/>
	<path id="XMLID_10787_" class="st1" d="M601.4,471.6v-0.7c-0.4,0.6-0.9,0.8-1.7,0.8c-0.5,0-0.9-0.1-1.4-0.4c-0.4-0.3-0.7-0.6-0.9-1
		c-0.2-0.4-0.3-1-0.3-1.6s0.1-1.1,0.3-1.6s0.5-0.8,0.9-1.1c0.4-0.2,0.8-0.4,1.4-0.4c0.3,0,0.7,0.1,0.9,0.2c0.3,0.1,0.5,0.3,0.7,0.6
		v-3h1v8.2H601.4z M598.2,468.7c0,0.7,0.2,1.4,0.5,1.7c0.3,0.4,0.7,0.5,1.1,0.5c0.4,0,0.8-0.2,1.1-0.5c0.3-0.3,0.4-0.9,0.4-1.7
		c0-0.8-0.2-1.5-0.5-1.8s-0.7-0.5-1.1-0.5c-0.4,0-0.8,0.2-1.1,0.5C598.4,467.4,598.2,467.9,598.2,468.7z"/>
	<path id="XMLID_10801_" class="st1" d="M607.7,470.9c-0.4,0.3-0.7,0.5-1,0.6s-0.7,0.2-1.1,0.2c-0.6,0-1.1-0.2-1.5-0.5
		c-0.3-0.3-0.5-0.7-0.5-1.2c0-0.3,0.1-0.5,0.2-0.8c0.1-0.2,0.3-0.4,0.5-0.6s0.4-0.2,0.7-0.3c0.2,0,0.5-0.1,0.9-0.1
		c0.8-0.1,1.5-0.2,1.8-0.3c0-0.1,0-0.2,0-0.3c0-0.4-0.1-0.7-0.3-0.8c-0.2-0.2-0.6-0.3-1.1-0.3s-0.8,0.1-1,0.2s-0.4,0.4-0.5,0.8
		l-0.9-0.1c0.1-0.4,0.2-0.7,0.4-1c0.2-0.3,0.5-0.4,0.9-0.6c0.4-0.1,0.8-0.2,1.4-0.2c0.6,0,0.9,0.1,1.2,0.2s0.5,0.3,0.7,0.4
		s0.2,0.4,0.3,0.7c0,0.2,0,0.5,0,0.9v1.4c0,0.9,0,1.6,0.1,1.8c0.1,0.2,0.1,0.5,0.2,0.7h-1C607.9,471.4,607.7,471.2,607.7,470.9z
		 M607.6,468.7c-0.4,0.1-0.9,0.3-1.7,0.4c-0.4,0.1-0.7,0.1-0.8,0.2c-0.2,0.1-0.3,0.2-0.4,0.3c-0.1,0.1-0.1,0.3-0.1,0.5
		c0,0.3,0.1,0.5,0.3,0.6c0.2,0.1,0.5,0.3,0.9,0.3c0.4,0,0.7-0.1,1-0.2c0.3-0.2,0.5-0.4,0.6-0.7c0.1-0.2,0.2-0.5,0.2-1V468.7
		L607.6,468.7L607.6,468.7z"/>
	<path id="XMLID_13163_" class="st1" d="M614.4,471.6h-0.9v-8.2h1v2.9c0.4-0.5,0.9-0.8,1.7-0.8c0.4,0,0.7,0.1,1,0.2s0.6,0.3,0.8,0.6
		c0.2,0.3,0.4,0.6,0.5,0.9c0.1,0.4,0.2,0.7,0.2,1.2c0,1-0.2,1.8-0.7,2.4c-0.5,0.5-1.1,0.8-1.8,0.8s-1.2-0.3-1.7-0.8L614.4,471.6
		L614.4,471.6L614.4,471.6z M614.3,468.6c0,0.7,0.1,1.2,0.3,1.6c0.3,0.5,0.7,0.7,1.2,0.7c0.4,0,0.8-0.2,1.1-0.6
		c0.3-0.4,0.5-0.9,0.5-1.7c0-0.7-0.1-1.4-0.4-1.7c-0.3-0.4-0.7-0.5-1.1-0.5c-0.4,0-0.8,0.2-1.1,0.6
		C614.5,467.4,614.3,467.9,614.3,468.6z"/>
	<path id="XMLID_13254_" class="st1" d="M619.4,468.7c0-1.1,0.3-1.9,0.9-2.4c0.5-0.4,1.1-0.6,1.9-0.6s1.5,0.3,2,0.8s0.7,1.2,0.7,2.2
		c0,0.7-0.1,1.4-0.3,1.8c-0.2,0.4-0.5,0.7-1,1c-0.4,0.2-0.9,0.3-1.5,0.3c-0.8,0-1.5-0.3-2-0.8C619.7,470.5,619.4,469.7,619.4,468.7z
		 M620.4,468.7c0,0.7,0.2,1.4,0.5,1.7s0.7,0.5,1.2,0.5s0.9-0.2,1.2-0.5c0.3-0.4,0.5-0.9,0.5-1.8c0-0.7-0.2-1.2-0.5-1.7
		c-0.3-0.4-0.7-0.5-1.2-0.5s-0.9,0.2-1.2,0.5C620.6,467.3,620.4,467.9,620.4,468.7z"/>
	<path id="XMLID_13257_" class="st1" d="M628.3,470.8l0.1,0.9c-0.3,0.1-0.5,0.1-0.7,0.1c-0.4,0-0.6-0.1-0.8-0.2
		c-0.2-0.1-0.3-0.3-0.4-0.4c-0.1-0.1-0.1-0.6-0.1-1.1v-3.5h-0.7v-0.8h0.7v-1.5l1-0.6v2.1h1v0.8h-1v3.4c0,0.3,0,0.5,0.1,0.5
		c0.1,0,0.1,0.1,0.2,0.2c0.1,0,0.2,0.1,0.3,0.1C628,470.8,628.1,470.8,628.3,470.8z"/>
	<path id="XMLID_13259_" class="st1" d="M629,468.7c0-1.1,0.3-1.9,0.9-2.4c0.5-0.4,1.1-0.6,1.9-0.6s1.5,0.3,2,0.8s0.7,1.2,0.7,2.2
		c0,0.7-0.1,1.4-0.3,1.8c-0.2,0.4-0.5,0.7-1,1c-0.4,0.2-0.9,0.3-1.5,0.3c-0.8,0-1.5-0.3-2-0.8C629.2,470.5,629,469.7,629,468.7z
		 M630,468.7c0,0.7,0.2,1.4,0.5,1.7s0.7,0.5,1.2,0.5s0.9-0.2,1.2-0.5c0.3-0.4,0.5-0.9,0.5-1.8c0-0.7-0.2-1.2-0.5-1.7
		c-0.3-0.4-0.7-0.5-1.2-0.5s-0.9,0.2-1.2,0.5C630.2,467.3,630,467.9,630,468.7z M631.1,465l0.7-1.6h1.4L632,465H631.1z"/>
	<path id="XMLID_13263_" class="st1" d="M635.7,471.6v-5.9h0.9v0.8c0.4-0.6,1-0.9,1.9-0.9c0.3,0,0.7,0.1,0.9,0.2
		c0.3,0.1,0.5,0.3,0.6,0.5c0.1,0.2,0.2,0.4,0.3,0.7c0,0.2,0.1,0.5,0.1,0.9v3.6h-1v-3.6c0-0.4,0-0.7-0.1-0.9
		c-0.1-0.2-0.2-0.4-0.4-0.5s-0.4-0.2-0.7-0.2c-0.4,0-0.8,0.1-1.1,0.4s-0.4,0.8-0.4,1.6v3.2L635.7,471.6L635.7,471.6L635.7,471.6z"/>
	<path id="XMLID_13265_" class="st1" d="M531.7,488.5v-8.2h0.9v0.7c0.2-0.3,0.4-0.5,0.7-0.7c0.3-0.1,0.6-0.2,1-0.2
		c0.5,0,0.9,0.1,1.4,0.4c0.4,0.3,0.7,0.6,0.8,1.1c0.2,0.5,0.3,1,0.3,1.6s-0.1,1.1-0.3,1.7s-0.5,0.8-0.9,1.1
		c-0.4,0.3-0.8,0.4-1.4,0.4c-0.3,0-0.6-0.1-0.9-0.2s-0.5-0.3-0.6-0.5v2.9L531.7,488.5L531.7,488.5z M532.7,483.3
		c0,0.7,0.1,1.4,0.4,1.7c0.3,0.4,0.7,0.5,1.1,0.5s0.8-0.2,1.1-0.5c0.3-0.4,0.5-0.9,0.5-1.8c0-0.7-0.2-1.4-0.4-1.7
		c-0.2-0.3-0.7-0.5-1.1-0.5c-0.4,0-0.8,0.2-1.1,0.6C532.9,481.9,532.7,482.6,532.7,483.3z"/>
	<path id="XMLID_13268_" class="st1" d="M542,485.5c-0.4,0.3-0.7,0.5-1,0.6s-0.7,0.2-1.1,0.2c-0.6,0-1.1-0.2-1.5-0.5
		c-0.3-0.3-0.5-0.7-0.5-1.2c0-0.3,0.1-0.5,0.2-0.8c0.1-0.2,0.3-0.4,0.5-0.6c0.2-0.2,0.4-0.2,0.7-0.3c0.2,0,0.5-0.1,0.9-0.1
		c0.8-0.1,1.5-0.2,1.8-0.3c0-0.1,0-0.2,0-0.3c0-0.4-0.1-0.7-0.3-0.8c-0.2-0.2-0.6-0.3-1.1-0.3s-0.8,0.1-1,0.2s-0.4,0.4-0.5,0.8
		l-0.9-0.1c0.1-0.4,0.2-0.7,0.4-1s0.5-0.4,0.9-0.6c0.4-0.1,0.8-0.2,1.4-0.2s0.9,0.1,1.2,0.2s0.5,0.3,0.7,0.4
		c0.2,0.1,0.2,0.4,0.3,0.7c0,0.2,0,0.5,0,0.9v1.4c0,0.9,0,1.6,0.1,1.8c0.1,0.2,0.1,0.5,0.2,0.7h-1C542,486,542,485.8,542,485.5z
		 M541.9,483.3c-0.4,0.1-0.9,0.3-1.7,0.4c-0.4,0.1-0.7,0.1-0.8,0.2c-0.2,0.1-0.3,0.2-0.4,0.3c-0.1,0.1-0.1,0.3-0.1,0.5
		c0,0.3,0.1,0.5,0.3,0.6s0.5,0.3,0.9,0.3c0.4,0,0.7-0.1,1-0.2c0.3-0.2,0.5-0.4,0.6-0.7c0.1-0.2,0.2-0.5,0.2-1V483.3L541.9,483.3
		L541.9,483.3z"/>
	<path id="XMLID_13271_" class="st1" d="M544.4,486.2v-5.9h0.9v0.9c0.2-0.4,0.4-0.7,0.6-0.8c0.2-0.1,0.4-0.2,0.6-0.2
		c0.3,0,0.7,0.1,1,0.3l-0.3,0.9c-0.2-0.1-0.5-0.2-0.7-0.2s-0.4,0.1-0.6,0.2s-0.3,0.3-0.4,0.5c-0.1,0.3-0.2,0.7-0.2,1.1v3.1h-0.9
		V486.2z"/>
	<path id="XMLID_13273_" class="st1" d="M552.1,485.5c-0.4,0.3-0.7,0.5-1,0.6c-0.3,0.1-0.7,0.2-1.1,0.2c-0.6,0-1.1-0.2-1.5-0.5
		c-0.4-0.3-0.5-0.7-0.5-1.2c0-0.3,0.1-0.5,0.2-0.8c0.1-0.2,0.3-0.4,0.5-0.6c0.2-0.2,0.4-0.2,0.7-0.3c0.2,0,0.5-0.1,0.9-0.1
		c0.8-0.1,1.5-0.2,1.8-0.3c0-0.1,0-0.2,0-0.3c0-0.4-0.1-0.7-0.3-0.8c-0.2-0.2-0.6-0.3-1.1-0.3s-0.8,0.1-1,0.2
		c-0.2,0.1-0.4,0.4-0.5,0.8l-0.9-0.1c0.1-0.4,0.2-0.7,0.4-1c0.2-0.3,0.5-0.4,0.9-0.6c0.4-0.1,0.8-0.2,1.4-0.2c0.5,0,0.9,0.1,1.2,0.2
		s0.5,0.3,0.7,0.4s0.2,0.4,0.3,0.7c0,0.2,0,0.5,0,0.9v1.4c0,0.9,0,1.6,0.1,1.8c0.1,0.2,0.1,0.5,0.2,0.7h-1
		C552.2,486,552.2,485.8,552.1,485.5z M552.1,483.3c-0.4,0.1-0.9,0.3-1.7,0.4c-0.4,0.1-0.7,0.1-0.8,0.2c-0.2,0.1-0.3,0.2-0.4,0.3
		c-0.1,0.1-0.1,0.3-0.1,0.5c0,0.3,0.1,0.5,0.3,0.6c0.2,0.1,0.5,0.3,0.9,0.3c0.4,0,0.7-0.1,1-0.2c0.3-0.2,0.5-0.4,0.6-0.7
		c0.1-0.2,0.2-0.5,0.2-1V483.3L552.1,483.3L552.1,483.3z"/>
	<path id="XMLID_13276_" class="st1" d="M557.8,486.2v-5.9h0.9v0.8c0.2-0.3,0.4-0.5,0.7-0.7c0.3-0.2,0.6-0.3,1-0.3
		c0.4,0,0.8,0.1,1,0.3c0.3,0.2,0.5,0.4,0.6,0.7c0.5-0.7,1-1,1.9-1c0.6,0,1,0.2,1.4,0.5c0.3,0.3,0.5,0.8,0.5,1.5v4.1h-1v-3.8
		c0-0.4,0-0.7-0.1-0.8c-0.1-0.1-0.2-0.3-0.3-0.4c-0.2-0.1-0.4-0.2-0.6-0.2c-0.4,0-0.7,0.1-1,0.4s-0.4,0.7-0.4,1.4v3.4h-1v-3.8
		c0-0.4-0.1-0.8-0.2-1c-0.1-0.2-0.4-0.3-0.8-0.3c-0.3,0-0.5,0.1-0.8,0.2c-0.2,0.1-0.4,0.4-0.5,0.6c-0.1,0.3-0.2,0.7-0.2,1.2v3.1H558
		v0H557.8z"/>
	<path id="XMLID_13278_" class="st1" d="M571.2,485.5c-0.4,0.3-0.7,0.5-1,0.6s-0.7,0.2-1.1,0.2c-0.6,0-1.1-0.2-1.5-0.5
		c-0.3-0.3-0.5-0.7-0.5-1.2c0-0.3,0.1-0.5,0.2-0.8c0.1-0.2,0.3-0.4,0.5-0.6s0.4-0.2,0.7-0.3c0.2,0,0.5-0.1,0.9-0.1
		c0.8-0.1,1.5-0.2,1.8-0.3c0-0.1,0-0.2,0-0.3c0-0.4-0.1-0.7-0.3-0.8c-0.2-0.2-0.6-0.3-1.1-0.3s-0.8,0.1-1,0.2s-0.4,0.4-0.5,0.8
		l-0.9-0.1c0.1-0.4,0.2-0.7,0.4-1c0.2-0.3,0.5-0.4,0.9-0.6c0.4-0.1,0.8-0.2,1.4-0.2c0.6,0,0.9,0.1,1.2,0.2c0.3,0.1,0.5,0.3,0.7,0.4
		s0.2,0.4,0.3,0.7c0,0.2,0,0.5,0,0.9v1.4c0,0.9,0,1.6,0.1,1.8c0.1,0.2,0.1,0.5,0.2,0.7h-1C571.4,486,571.2,485.8,571.2,485.5z
		 M571.1,483.3c-0.4,0.1-0.9,0.3-1.7,0.4c-0.4,0.1-0.7,0.1-0.8,0.2c-0.2,0.1-0.3,0.2-0.4,0.3c-0.1,0.1-0.1,0.3-0.1,0.5
		c0,0.3,0.1,0.5,0.3,0.6c0.2,0.1,0.5,0.3,0.9,0.3c0.4,0,0.7-0.1,1-0.2c0.3-0.2,0.5-0.4,0.6-0.7c0.1-0.2,0.2-0.5,0.2-1V483.3
		L571.1,483.3L571.1,483.3z M569.2,479.5l0.7-1.6h1.4l-1.2,1.6H569.2z"/>
	<path id="XMLID_13282_" class="st1" d="M573.3,484.4l1-0.2c0.1,0.4,0.2,0.7,0.4,0.9c0.2,0.2,0.6,0.3,1,0.3c0.4,0,0.8-0.1,1-0.3
		c0.2-0.2,0.3-0.4,0.3-0.6s-0.1-0.4-0.3-0.5c-0.1-0.1-0.5-0.2-1-0.3c-0.7-0.2-1.2-0.3-1.6-0.5c-0.3-0.1-0.5-0.3-0.6-0.5
		c-0.1-0.2-0.2-0.5-0.2-0.8s0.1-0.5,0.2-0.7c0.1-0.2,0.3-0.4,0.5-0.5s0.4-0.2,0.6-0.3s0.5-0.1,0.8-0.1c0.4,0,0.8,0.1,1.2,0.2
		c0.3,0.1,0.6,0.3,0.7,0.5c0.2,0.2,0.3,0.5,0.3,0.9l-0.9,0.1c0-0.3-0.2-0.5-0.4-0.7s-0.5-0.2-0.9-0.2c-0.4,0-0.8,0.1-1,0.2
		s-0.3,0.3-0.3,0.5c0,0.1,0,0.2,0.1,0.3c0.1,0.1,0.2,0.2,0.4,0.3c0.1,0,0.4,0.1,0.9,0.2c0.7,0.2,1.2,0.3,1.5,0.4
		c0.2,0.1,0.5,0.3,0.6,0.5c0.1,0.2,0.2,0.5,0.2,0.8s-0.1,0.6-0.3,0.9c-0.2,0.3-0.5,0.5-0.8,0.7c-0.4,0.2-0.8,0.2-1.2,0.2
		c-0.7,0-1.4-0.2-1.8-0.5C573.4,485.4,573.4,485.1,573.3,484.4z"/>
	<path id="XMLID_13284_" class="st1" d="M582.6,479.2V478h1v1.1h-1V479.2z M582.6,486.2v-5.9h1v5.9H582.6z"/>
	<path id="XMLID_13287_" class="st1" d="M585.2,486.2v-5.9h0.9v0.8c0.4-0.6,1-0.9,1.9-0.9c0.3,0,0.7,0.1,0.9,0.2
		c0.3,0.1,0.5,0.3,0.6,0.5c0.1,0.2,0.2,0.4,0.3,0.7c0,0.2,0.1,0.5,0.1,0.9v3.6h-1v-3.6c0-0.4,0-0.7-0.1-0.9
		c-0.1-0.2-0.2-0.4-0.4-0.5s-0.4-0.2-0.7-0.2c-0.4,0-0.8,0.1-1.1,0.4s-0.4,0.8-0.4,1.6v3.2L585.2,486.2L585.2,486.2z"/>
	<path id="XMLID_13289_" class="st1" d="M591.7,486.2V481h-0.9v-0.8h0.9v-0.6c0-0.4,0-0.7,0.1-0.9c0.1-0.3,0.3-0.5,0.5-0.6
		c0.2-0.2,0.6-0.2,1-0.2c0.3,0,0.6,0,0.9,0.1l-0.1,0.8c-0.2,0-0.4-0.1-0.6-0.1c-0.3,0-0.5,0.1-0.6,0.2c-0.1,0.1-0.2,0.4-0.2,0.7v0.5
		h1.1v0.8h-1.1v5.2h-1L591.7,486.2L591.7,486.2z"/>
	<path id="XMLID_13291_" class="st1" d="M594.3,483.3c0-1.1,0.3-1.9,0.9-2.4c0.5-0.4,1.1-0.6,1.9-0.6s1.5,0.3,2,0.8s0.7,1.2,0.7,2.2
		c0,0.7-0.1,1.4-0.3,1.8s-0.5,0.7-1,1c-0.4,0.2-0.9,0.3-1.5,0.3c-0.8,0-1.5-0.3-2-0.8C594.5,485.1,594.3,484.2,594.3,483.3z
		 M595.4,483.3c0,0.7,0.2,1.4,0.5,1.7c0.3,0.3,0.7,0.5,1.2,0.5s0.9-0.2,1.2-0.5c0.3-0.4,0.5-0.9,0.5-1.8c0-0.7-0.2-1.2-0.5-1.7
		c-0.3-0.4-0.7-0.5-1.2-0.5s-0.9,0.2-1.2,0.5C595.6,481.8,595.4,482.5,595.4,483.3z"/>
	<path id="XMLID_13294_" class="st1" d="M601.1,486.2v-5.9h0.9v0.9c0.2-0.4,0.4-0.7,0.6-0.8c0.2-0.1,0.4-0.2,0.6-0.2
		c0.3,0,0.7,0.1,1,0.3l-0.3,0.9c-0.2-0.1-0.5-0.2-0.7-0.2s-0.4,0.1-0.6,0.2s-0.3,0.3-0.4,0.5c-0.1,0.3-0.2,0.7-0.2,1.1v3.1h-0.9
		V486.2z"/>
	<path id="XMLID_13296_" class="st1" d="M604.8,486.2v-5.9h0.9v0.8c0.2-0.3,0.4-0.5,0.7-0.7c0.3-0.2,0.6-0.3,1-0.3
		c0.4,0,0.8,0.1,1,0.3c0.3,0.2,0.5,0.4,0.6,0.7c0.5-0.7,1-1,1.9-1c0.6,0,1,0.2,1.4,0.5c0.4,0.3,0.5,0.8,0.5,1.5v4.1h-1v-3.8
		c0-0.4,0-0.7-0.1-0.8c-0.1-0.1-0.2-0.3-0.3-0.4c-0.2-0.1-0.4-0.2-0.6-0.2c-0.4,0-0.7,0.1-1,0.4s-0.4,0.7-0.4,1.4v3.4h-1v-3.8
		c0-0.4-0.1-0.8-0.2-1c-0.1-0.2-0.4-0.3-0.8-0.3c-0.3,0-0.5,0.1-0.8,0.2c-0.2,0.1-0.4,0.4-0.5,0.6c-0.1,0.3-0.2,0.7-0.2,1.2v3.1H605
		v0H604.8z"/>
	<path id="XMLID_13298_" class="st1" d="M618.2,485.5c-0.4,0.3-0.7,0.5-1,0.6s-0.7,0.2-1.1,0.2c-0.6,0-1.1-0.2-1.5-0.5
		c-0.4-0.3-0.5-0.7-0.5-1.2c0-0.3,0.1-0.5,0.2-0.8c0.1-0.2,0.3-0.4,0.5-0.6s0.4-0.2,0.7-0.3c0.2,0,0.5-0.1,0.9-0.1
		c0.8-0.1,1.5-0.2,1.8-0.3c0-0.1,0-0.2,0-0.3c0-0.4-0.1-0.7-0.3-0.8c-0.2-0.2-0.6-0.3-1.1-0.3s-0.8,0.1-1,0.2s-0.4,0.4-0.5,0.8
		l-0.9-0.1c0.1-0.4,0.2-0.7,0.4-1c0.2-0.3,0.5-0.4,0.9-0.6c0.4-0.1,0.8-0.2,1.4-0.2c0.6,0,0.9,0.1,1.2,0.2s0.5,0.3,0.7,0.4
		s0.2,0.4,0.3,0.7c0,0.2,0,0.5,0,0.9v1.4c0,0.9,0,1.6,0.1,1.8c0.1,0.2,0.1,0.5,0.2,0.7h-1C618.4,486,618.2,485.8,618.2,485.5z
		 M618.1,483.3c-0.4,0.1-0.9,0.3-1.7,0.4c-0.4,0.1-0.7,0.1-0.8,0.2c-0.2,0.1-0.3,0.2-0.4,0.3c-0.1,0.1-0.1,0.3-0.1,0.5
		c0,0.3,0.1,0.5,0.3,0.6c0.2,0.1,0.5,0.3,0.9,0.3c0.4,0,0.7-0.1,1-0.2c0.3-0.2,0.5-0.4,0.6-0.7c0.1-0.2,0.2-0.5,0.2-1V483.3
		L618.1,483.3L618.1,483.3z"/>
	<path id="XMLID_13302_" class="st1" d="M624.6,484l1,0.1c-0.1,0.7-0.4,1.2-0.8,1.6c-0.4,0.4-1,0.6-1.7,0.6c-0.8,0-1.5-0.3-2-0.8
		s-0.7-1.2-0.7-2.3c0-0.6,0.1-1.2,0.3-1.7c0.2-0.5,0.5-0.8,0.9-1c0.4-0.2,0.9-0.3,1.5-0.3c0.6,0,1.1,0.2,1.6,0.5
		c0.4,0.3,0.6,0.8,0.8,1.4l-0.9,0.1c-0.1-0.4-0.2-0.7-0.5-0.9c-0.3-0.2-0.5-0.3-0.8-0.3c-0.5,0-0.9,0.2-1.2,0.5s-0.5,0.9-0.5,1.8
		c0,0.8,0.1,1.4,0.4,1.8c0.3,0.3,0.7,0.5,1.2,0.5c0.4,0,0.7-0.1,1-0.3C624.4,485,624.6,484.5,624.6,484z"/>
	<path id="XMLID_13304_" class="st1" d="M626.5,479.2V478h1v1.1h-1V479.2z M626.5,486.2v-5.9h1v5.9H626.5z"/>
	<path id="XMLID_13307_" class="st1" d="M628.6,483.3c0-1.1,0.3-1.9,0.9-2.4c0.5-0.4,1.1-0.6,1.9-0.6s1.5,0.3,2,0.8s0.7,1.2,0.7,2.2
		c0,0.7-0.1,1.4-0.3,1.8s-0.5,0.7-1,1c-0.4,0.2-0.9,0.3-1.5,0.3c-0.8,0-1.5-0.3-2-0.8C628.9,485.1,628.6,484.2,628.6,483.3z
		 M629.7,483.3c0,0.7,0.2,1.4,0.5,1.7c0.3,0.3,0.7,0.5,1.2,0.5s0.9-0.2,1.2-0.5c0.3-0.4,0.5-0.9,0.5-1.8c0-0.7-0.2-1.2-0.5-1.7
		c-0.3-0.4-0.7-0.5-1.2-0.5s-0.9,0.2-1.2,0.5S629.7,482.5,629.7,483.3z M630.8,479.5l0.7-1.6h1.4l-1.2,1.6H630.8z"/>
	<path id="XMLID_13311_" class="st1" d="M635.4,486.2v-5.9h0.9v0.8c0.4-0.6,1-0.9,1.9-0.9c0.3,0,0.7,0.1,0.9,0.2
		c0.3,0.1,0.5,0.3,0.6,0.5c0.1,0.2,0.2,0.4,0.3,0.7c0,0.2,0.1,0.5,0.1,0.9v3.6h-1v-3.6c0-0.4,0-0.7-0.1-0.9
		c-0.1-0.2-0.2-0.4-0.4-0.5s-0.4-0.2-0.7-0.2c-0.4,0-0.8,0.1-1.1,0.4s-0.4,0.8-0.4,1.6v3.2L635.4,486.2L635.4,486.2L635.4,486.2z"/>
</g>
<g id="Capa_2">
	<g id="XMLID_723_">
		<path id="XMLID_852_" class="st1" d="M500.7,495.4c-4.7,0-9.3-1.6-12.9-4.5c-9-7.1-10.5-20.3-3.3-29.2c4-5,9.9-7.9,16.3-7.9
			c4.7,0,9.3,1.6,12.9,4.5c4.4,3.5,7.1,8.4,7.7,13.9c0.3,2.6,0.1,5.2-0.6,7.8c-0.4,1.6-1,3.1-1.8,4.5c-0.4,0.7-1.2,0.9-1.9,0.5
			c-0.7-0.4-0.9-1.2-0.5-1.9c0.7-1.2,1.2-2.6,1.6-3.9c0.6-2.2,0.8-4.5,0.5-6.7c-0.5-4.8-2.9-9.1-6.7-12.1c-3.2-2.5-7.2-3.9-11.2-3.9
			c-5.6,0-10.7,2.5-14.2,6.8c-6.2,7.8-4.9,19.2,2.9,25.4c3.2,2.5,7.2,3.9,11.2,3.9c0.8,0,1.4,0.6,1.4,1.4
			C502.1,494.7,501.5,495.4,500.7,495.4L500.7,495.4z"/>
		<path id="XMLID_792_" class="st1" d="M500.7,489.2c-3.3,0-6.5-1.1-9.1-3.2c-6.3-5-7.4-14.3-2.4-20.6c2.8-3.5,7-5.5,11.5-5.5
			c3.3,0,6.5,1.1,9.1,3.2c3.1,2.4,5,5.9,5.4,9.8c0.2,1.9,0.1,3.9-0.5,5.7c-0.2,0.7-1,1.1-1.7,0.9s-1.1-1-0.9-1.7
			c0.4-1.5,0.6-3.1,0.4-4.7c-0.4-3.2-1.9-6-4.4-8c-2.1-1.7-4.7-2.6-7.4-2.6c-3.7,0-7.1,1.6-9.4,4.5c-4.1,5.2-3.2,12.7,1.9,16.8
			c2.1,1.7,4.7,2.6,7.4,2.6c0.8,0,1.4,0.6,1.4,1.4C502.1,488.6,501.5,489.2,500.7,489.2L500.7,489.2z"/>
		<path id="XMLID_746_" class="st1" d="M500.7,483.1c-1.9,0-3.8-0.7-5.3-1.8c-3.7-2.9-4.3-8.3-1.4-12c1.6-2,4.1-3.2,6.7-3.2
			c1.9,0,3.8,0.7,5.3,1.8c3.7,2.9,4.3,8.3,1.4,12C505.8,481.9,503.3,483.1,500.7,483.1L500.7,483.1z M500.7,468.8
			c-1.8,0-3.4,0.8-4.5,2.2c-2,2.5-1.6,6.1,0.9,8.1c1,0.8,2.3,1.3,3.6,1.3c1.8,0,3.4-0.8,4.5-2.2c2-2.5,1.6-6.1-0.9-8.1
			C503.3,469.2,502,468.8,500.7,468.8L500.7,468.8z"/>
		<path id="XMLID_726_" class="st7" d="M509.6,499.5c1.9,0,3.5-1.6,3.5-3.5v-9c0-2.6-2.1-4.7-4.7-4.7h-4.8v-7c0-1.5-1.2-2.7-2.6-2.8
			c-1.6-0.1-2.8,1.2-2.8,2.7v12.2l-0.7-1.5c-0.4-0.8-1.1-1.3-1.9-1.3c-0.3,0-0.7,0.1-1,0.3c-1,0.7-1.4,2.1-0.9,3.3
			c0,0,2.4,5.5,4.1,9.2c0.6,1.2,1.8,2,3.2,2h8.6V499.5z"/>
	</g>
</g>
</svg>
