<?xml version="1.0" encoding="utf-8"?>
<!-- Generator: Adobe Illustrator 19.0.0, SVG Export Plug-In . SVG Version: 6.00 Build 0)  -->
<svg version="1.1" id="Capa_1" xmlns="http://www.w3.org/2000/svg" xmlns:xlink="http://www.w3.org/1999/xlink" x="0px" y="0px"
	 viewBox="0 0 478.4 153.2" style="enable-background:new 0 0 478.4 153.2;" xml:space="preserve">
<style type="text/css">
	.st0{opacity:0.5;fill:#FFFFFF;}
	.st1{fill:#FFFFFF;}
	.st2{fill-rule:evenodd;clip-rule:evenodd;}
</style>
<rect id="XMLID_224_" x="242.2" class="st0" width="236.1" height="153.2"/>
<rect id="XMLID_578_" class="st0" width="236.3" height="153.2"/>
<path id="XMLID_68_" d="M52.1,128.1c-0.9,1.6-2,3.2-3.4,4.5c-4,4-8.8,5.9-14.3,5.9c-5.4,0-10.1-2-14-5.9c-1.4-1.4-2.6-3-3.5-4.6H0
	v25.1h236.3v-25.1H52.1z"/>
<g id="XMLID_18_">
	<g id="XMLID_138_">
		<path id="XMLID_140_" class="st1" d="M62.9,136.8c0.3,0,0.6,0,0.9,0.1c0.3,0.1,0.5,0.1,0.7,0.3c0.2,0.1,0.3,0.3,0.4,0.5
			c0.1,0.2,0.2,0.5,0.2,0.8c0,0.3-0.1,0.6-0.2,0.8c-0.2,0.2-0.4,0.4-0.7,0.5c0.4,0.1,0.7,0.3,0.9,0.6c0.2,0.3,0.3,0.6,0.3,1.1
			c0,0.3-0.1,0.6-0.2,0.9c-0.1,0.2-0.3,0.4-0.5,0.6c-0.2,0.2-0.5,0.3-0.8,0.3c-0.3,0.1-0.6,0.1-0.9,0.1h-3.2v-6.6H62.9L62.9,136.8z
			 M62.7,139.5c0.3,0,0.5-0.1,0.6-0.2c0.2-0.1,0.3-0.3,0.3-0.6c0-0.2,0-0.3-0.1-0.4c-0.1-0.1-0.1-0.2-0.2-0.2
			c-0.1-0.1-0.2-0.1-0.3-0.1c-0.1,0-0.2,0-0.4,0h-1.4v1.5H62.7z M62.8,142.3c0.1,0,0.3,0,0.4,0c0.1,0,0.2-0.1,0.3-0.1
			c0.1-0.1,0.2-0.2,0.2-0.3c0.1-0.1,0.1-0.3,0.1-0.4c0-0.3-0.1-0.6-0.3-0.7c-0.2-0.1-0.4-0.2-0.8-0.2h-1.6v1.8H62.8z"/>
		<polygon id="XMLID_139_" class="st1" points="65.6,136.8 67.2,136.8 68.8,139.4 70.3,136.8 71.9,136.8 69.5,140.9 69.5,143.4 
			68,143.4 68,140.8 		"/>
	</g>
	<g id="XMLID_92_">
		<path id="XMLID_137_" class="st1" d="M112.9,141.8c0.1,0.2,0.2,0.3,0.3,0.4c0.1,0.1,0.3,0.2,0.5,0.2c0.2,0,0.4,0.1,0.6,0.1
			c0.1,0,0.3,0,0.4,0c0.1,0,0.3-0.1,0.4-0.1c0.1-0.1,0.2-0.1,0.3-0.3c0.1-0.1,0.1-0.2,0.1-0.4c0-0.2-0.1-0.3-0.2-0.4
			c-0.1-0.1-0.3-0.2-0.4-0.3c-0.2-0.1-0.4-0.1-0.6-0.2c-0.2-0.1-0.5-0.1-0.7-0.2c-0.2-0.1-0.5-0.1-0.7-0.2c-0.2-0.1-0.4-0.2-0.6-0.3
			c-0.2-0.1-0.3-0.3-0.4-0.5c-0.1-0.2-0.2-0.5-0.2-0.8c0-0.3,0.1-0.6,0.2-0.9c0.1-0.3,0.3-0.5,0.6-0.6c0.2-0.2,0.5-0.3,0.8-0.4
			c0.3-0.1,0.6-0.1,0.9-0.1c0.3,0,0.7,0,1,0.1c0.3,0.1,0.6,0.2,0.8,0.4c0.2,0.2,0.4,0.4,0.6,0.7c0.1,0.3,0.2,0.6,0.2,1h-1.4
			c0-0.2-0.1-0.4-0.1-0.5c-0.1-0.1-0.2-0.2-0.3-0.3c-0.1-0.1-0.3-0.1-0.4-0.2c-0.2,0-0.3,0-0.5,0c-0.1,0-0.2,0-0.4,0
			c-0.1,0-0.2,0.1-0.3,0.1c-0.1,0.1-0.2,0.1-0.2,0.2c-0.1,0.1-0.1,0.2-0.1,0.4c0,0.1,0,0.2,0.1,0.3c0,0.1,0.1,0.2,0.3,0.2
			c0.1,0.1,0.3,0.1,0.6,0.2c0.3,0.1,0.6,0.2,1,0.3c0.1,0,0.3,0.1,0.5,0.1c0.2,0.1,0.4,0.2,0.7,0.3c0.2,0.1,0.4,0.3,0.6,0.6
			c0.2,0.2,0.2,0.5,0.2,0.9c0,0.3-0.1,0.6-0.2,0.8c-0.1,0.3-0.3,0.5-0.5,0.7c-0.2,0.2-0.5,0.3-0.9,0.4c-0.3,0.1-0.7,0.2-1.2,0.2
			c-0.4,0-0.7,0-1.1-0.1c-0.3-0.1-0.6-0.2-0.9-0.4c-0.3-0.2-0.5-0.4-0.6-0.7c-0.2-0.3-0.2-0.6-0.2-1.1h1.4
			C112.8,141.4,112.9,141.6,112.9,141.8z"/>
		<path id="XMLID_93_" class="st1" d="M121.1,136.8l2.5,6.6h-1.5l-0.5-1.5h-2.5l-0.5,1.5h-1.5l2.5-6.6H121.1z M121.2,140.9l-0.8-2.4
			h0l-0.9,2.4H121.2z"/>
	</g>
	<g id="XMLID_89_">
		<polygon id="XMLID_91_" class="st1" points="87,136.8 89.8,141.2 89.8,141.2 89.8,136.8 91.2,136.8 91.2,143.4 89.7,143.4 
			86.9,139 86.9,139 86.9,143.4 85.6,143.4 85.6,136.8 		"/>
		<path id="XMLID_90_" class="st1" d="M96.7,138.6c-0.1-0.1-0.2-0.3-0.3-0.4c-0.1-0.1-0.3-0.2-0.4-0.2c-0.2-0.1-0.3-0.1-0.5-0.1
			c-0.3,0-0.6,0.1-0.8,0.2c-0.2,0.1-0.4,0.3-0.6,0.5c-0.1,0.2-0.2,0.5-0.3,0.7c-0.1,0.3-0.1,0.6-0.1,0.8c0,0.3,0,0.5,0.1,0.8
			c0.1,0.3,0.2,0.5,0.3,0.7c0.1,0.2,0.3,0.4,0.6,0.5c0.2,0.1,0.5,0.2,0.8,0.2c0.4,0,0.8-0.1,1-0.4c0.3-0.3,0.4-0.6,0.5-1.1h1.4
			c0,0.4-0.1,0.8-0.3,1.1c-0.2,0.3-0.4,0.6-0.6,0.9c-0.3,0.2-0.5,0.4-0.9,0.5c-0.3,0.1-0.7,0.2-1.1,0.2c-0.5,0-1-0.1-1.4-0.3
			c-0.4-0.2-0.7-0.4-1-0.7c-0.3-0.3-0.5-0.7-0.6-1.1c-0.1-0.4-0.2-0.9-0.2-1.4c0-0.5,0.1-1,0.2-1.4c0.1-0.4,0.4-0.8,0.6-1.1
			s0.6-0.6,1-0.7c0.4-0.2,0.9-0.3,1.4-0.3c0.4,0,0.7,0.1,1,0.2c0.3,0.1,0.6,0.3,0.9,0.5c0.3,0.2,0.5,0.4,0.6,0.7
			c0.2,0.3,0.3,0.6,0.3,1h-1.4C96.8,138.9,96.8,138.7,96.7,138.6z"/>
	</g>
</g>
<g id="XMLID_65_">
	<path id="XMLID_53_" class="st2" d="M149.4,113c-1-1.8-2.7-2.6-4.7-2.6c-2.9,0-5.2,2-5.2,5.5c0,3.5,2.2,5.5,5.3,5.5
		c2,0,3.7-1.1,4.7-2.8l-2.2-1.1c-0.5,1.2-1.2,1.5-2.2,1.5c-1.6,0-2.4-1.4-2.4-3.1c0-1.8,0.6-3.1,2.4-3.1c0.5,0,1.4,0.3,2,1.4
		L149.4,113z"/>
	<path id="XMLID_95_" class="st2" d="M155,112.8c1.7,0,2.5,1.4,2.5,3c0,1.9-0.7,3.3-2.5,3.3s-2.5-1.4-2.5-3.1
		C152.5,114.1,153.3,112.8,155,112.8z M155,110.4c-3.3,0-5.6,2-5.6,5.5c0,3.5,2.3,5.5,5.6,5.5s5.6-2,5.6-5.5
		C160.6,112.4,158.3,110.4,155,110.4z"/>
	<path id="XMLID_50_" class="st2" d="M161.2,121.1h3.1v-6.5c0-0.9,0.4-1.7,1.6-1.7c1.2,0,1.5,0.7,1.5,1.7v6.5h3.1v-6.4
		c0-1.1,0.5-1.8,1.6-1.8c1.2,0,1.6,0.7,1.6,2.1v6.1h3.1v-8c0-2.4-2.2-2.8-3.2-2.8c-1.2,0-2.4,0.4-3.4,1.4c-0.7-0.9-1.6-1.4-2.8-1.4
		c-0.9,0-2.2,0.3-3,1.2v-0.9h-3.1V121.1z"/>
	<path id="XMLID_49_" class="st2" d="M177.6,121.1h3.1v-6.5c0-0.9,0.4-1.7,1.6-1.7c1.2,0,1.5,0.7,1.5,1.7v6.5h3.1v-6.4
		c0-1.1,0.5-1.8,1.6-1.8c1.2,0,1.6,0.7,1.6,2.1v6.1h3.1v-8c0-2.4-2.2-2.8-3.2-2.8c-1.2,0-2.4,0.4-3.4,1.4c-0.7-0.9-1.6-1.4-2.8-1.4
		c-0.9,0-2.2,0.3-3,1.2v-0.9h-3.1V121.1z"/>
	<path id="XMLID_73_" class="st2" d="M199.3,112.8c1.7,0,2.5,1.4,2.5,3c0,1.9-0.7,3.3-2.5,3.3c-1.7,0-2.5-1.4-2.5-3.1
		C196.8,114.1,197.5,112.8,199.3,112.8z M199.3,110.4c-3.3,0-5.6,2-5.6,5.5c0,3.5,2.3,5.5,5.6,5.5c3.3,0,5.6-2,5.6-5.5
		C204.8,112.4,202.5,110.4,199.3,110.4z"/>
	<path id="XMLID_46_" class="st2" d="M205.6,121.1h3.1v-6.5c0-0.9,0.4-1.7,1.6-1.7c1.2,0,1.5,0.7,1.5,1.7v6.5h3.1v-7.7
		c0-1.6-0.7-3-3.2-3c-0.9,0-2.2,0.3-3,1.2v-0.9h-3.1V121.1z"/>
	<path id="XMLID_44_" class="st2" d="M225.1,111.9c-1.4-0.9-3-1.5-4.6-1.5c-2.1,0-4.4,1-4.4,3.7c0,3.7,6.2,2.4,6.2,4
		c0,0.9-1.2,1.1-1.7,1.1c-1.4,0-2.4-0.6-3.3-1.5l-1.9,1.6c1.5,1.4,2.8,2.1,5.1,2.1c2.3,0,4.7-1,4.7-3.7c0-3.9-6.2-2.4-6.2-4.2
		c0-0.5,0.5-0.8,1.3-0.8c1,0,2.3,0.4,2.9,1.1L225.1,111.9z"/>
	<path id="XMLID_40_" class="st2" d="M149.4,101c-1-1.8-2.7-2.6-4.7-2.6c-2.9,0-5.2,2-5.2,5.5c0,3.5,2.2,5.5,5.3,5.5
		c2,0,3.7-1.1,4.7-2.8l-2.2-1.1c-0.5,1.2-1.2,1.5-2.2,1.5c-1.6,0-2.4-1.4-2.4-3.1c0-1.8,0.6-3.1,2.4-3.1c0.5,0,1.4,0.3,2,1.4
		L149.4,101z"/>
	<path id="XMLID_39_" class="st2" d="M150.2,109.1h3.1v-6c0-1.2,0.7-1.5,2.6-1.7l0.3,0l0-2.7c-1.1,0.1-2.2,0.5-2.9,1.1v-1.1h-3.1
		V109.1z"/>
	<path id="XMLID_66_" class="st2" d="M166.5,104.5c0-3.2-1.3-6.1-5.1-6.1c-3.2,0-5.1,2.1-5.1,5.8c0,2.9,1.9,5.2,5.1,5.2
		c2.3,0,4-0.9,5.1-2.9l-2.3-1.2c-0.9,1.3-1.4,1.8-2.6,1.8c-1,0-2.3-0.6-2.3-2.6H166.5z M159.3,102.6c0.1-1.4,1.2-2,2.1-2
		c0.9,0,2,0.5,2.1,2H159.3z"/>
	<path id="XMLID_63_" class="st2" d="M173.5,104.8c0,1.6-0.9,2.4-2.1,2.4c-0.7,0-1.4-0.4-1.4-1.2c0-0.8,0.7-1.1,1.5-1.4l2.1-0.6
		V104.8z M176.5,101.4c0-2.4-1.8-3-4.7-3c-1.4,0-4.2,0.3-4.3,3.3h2.9c0.2-1,0.6-1.4,1.6-1.4c0.8,0,1.5,0.3,1.5,1.1v0.9l-1.1,0.2
		c-3.3,0.5-5.4,1.4-5.4,3.9c0,2,1.5,3.1,3.5,3.1c1.1,0,2.6-0.5,3.1-1.4h0c0,0.4,0.1,0.7,0.2,1.1h2.8c-0.3-0.6-0.3-1.5-0.3-2.2V101.4
		z"/>
	<path id="XMLID_34_" class="st2" d="M183.7,98.9h-1.8v-3h-3.1v3h-1.5v1.9h1.5v5.5c0,1.5,0.4,3.1,3,3.1c0.7,0,1.6-0.1,2-0.1v-2.4
		c-0.2,0-0.6,0.1-0.9,0.1c-0.6,0-1-0.2-1-1v-5.1h1.8V98.9z"/>
	<path id="XMLID_59_" class="st2" d="M184.9,98.7v10.4h3.1V98.7H184.9z M187.9,97.5v-2.4h-3.1v2.4H187.9z"/>
	<polygon id="XMLID_12_" class="st2" points="192,109.1 195.1,109.1 198.7,98.7 195.4,98.7 193.6,106.1 193.6,106.1 191.8,98.7 
		188.5,98.7 	"/>
	<path id="XMLID_55_" class="st2" d="M208.6,104.5c0-3.2-1.3-6.1-5.1-6.1c-3.2,0-5.1,2.1-5.1,5.8c0,2.9,1.9,5.2,5.1,5.2
		c2.3,0,4-0.9,5.1-2.9l-2.3-1.2c-0.9,1.3-1.4,1.8-2.6,1.8c-1,0-2.3-0.6-2.3-2.6H208.6z M201.4,102.6c0.1-1.4,1.2-2,2.1-2
		s2,0.5,2.1,2H201.4z"/>
</g>
<path id="XMLID_155_" class="st1" d="M48,118.6c0,7.5-6.1,13.6-13.6,13.6c-7.5,0-13.6-6.1-13.6-13.6c0,0,0,0,0,0
	c0-7.5,6.1-13.6,13.6-13.6C41.9,105,48,111.1,48,118.6C48,118.6,48,118.6,48,118.6z"/>
<path id="XMLID_150_" d="M45.5,107.5c3,3,4.5,6.7,4.5,11.1c0,4.4-1.5,8-4.5,11c-3.2,3.1-6.9,4.7-11.2,4.7c-4.2,0-7.9-1.5-11-4.6
	c-3.1-3.1-4.6-6.8-4.6-11c0-4.3,1.5-8,4.6-11.1c3-3,6.7-4.5,11-4.5C38.7,103,42.4,104.5,45.5,107.5z M25.4,109.5
	c-2.6,2.6-3.8,5.6-3.8,9.1c0,3.5,1.3,6.5,3.8,9c2.5,2.5,5.5,3.8,9,3.8c3.5,0,6.5-1.3,9.1-3.8c2.5-2.4,3.7-5.4,3.7-9
	c0-3.6-1.2-6.6-3.7-9.1c-2.5-2.5-5.5-3.7-9.1-3.7C30.9,105.8,27.9,107,25.4,109.5z M32.1,117.1c-0.4-0.9-1-1.3-1.8-1.3
	c-1.4,0-2.1,0.9-2.1,2.8c0,1.9,0.7,2.8,2.1,2.8c0.9,0,1.6-0.5,2-1.4l1.9,1c-0.9,1.6-2.3,2.4-4.1,2.4c-1.4,0-2.5-0.4-3.4-1.3
	c-0.8-0.9-1.3-2.1-1.3-3.6c0-1.5,0.4-2.7,1.3-3.5c0.9-0.9,2-1.3,3.3-1.3c1.9,0,3.3,0.8,4.1,2.3L32.1,117.1z M41.1,117.1
	c-0.4-0.9-1-1.3-1.7-1.3c-1.4,0-2.1,0.9-2.1,2.8c0,1.9,0.7,2.8,2.1,2.8c0.9,0,1.6-0.5,1.9-1.4l2,1c-0.9,1.6-2.3,2.4-4.1,2.4
	c-1.4,0-2.5-0.4-3.4-1.3c-0.8-0.9-1.3-2.1-1.3-3.6c0-1.5,0.4-2.7,1.3-3.5c0.9-0.9,1.9-1.3,3.3-1.3c1.9,0,3.3,0.8,4.1,2.3L41.1,117.1
	z"/>
<path id="XMLID_585_" d="M294.2,128.1c-0.9,1.6-2,3.2-3.4,4.5c-4,4-8.8,5.9-14.3,5.9c-5.4,0-10.1-2-14-5.9c-1.4-1.4-2.6-3-3.5-4.6
	h-16.8v25.1h236.3v-25.1H294.2z"/>
<path id="XMLID_584_" class="st1" d="M290.2,118.6c0,7.5-6.1,13.6-13.6,13.6c-7.5,0-13.6-6.1-13.6-13.6c0,0,0,0,0,0
	c0-7.5,6.1-13.6,13.6-13.6C284.1,105,290.2,111.1,290.2,118.6C290.2,118.6,290.2,118.6,290.2,118.6z"/>
<path id="XMLID_577_" d="M287.6,107.5c3,3,4.5,6.7,4.5,11.1c0,4.4-1.5,8-4.5,11c-3.2,3.1-6.9,4.7-11.2,4.7c-4.2,0-7.9-1.5-11-4.6
	c-3.1-3.1-4.6-6.8-4.6-11c0-4.3,1.5-8,4.6-11.1c3-3,6.7-4.5,11-4.5C280.9,103,284.6,104.5,287.6,107.5z M267.6,109.5
	c-2.6,2.6-3.8,5.6-3.8,9.1c0,3.5,1.3,6.5,3.8,9c2.5,2.5,5.5,3.8,9,3.8c3.5,0,6.5-1.3,9.1-3.8c2.5-2.4,3.7-5.4,3.7-9
	c0-3.6-1.2-6.6-3.7-9.1c-2.5-2.5-5.5-3.7-9.1-3.7C273,105.8,270,107,267.6,109.5z"/>
<g id="XMLID_119_">
	<circle id="XMLID_147_" class="st1" cx="65.3" cy="114.3" r="10.7"/>
	<g id="XMLID_144_">
		<path id="XMLID_146_" d="M68.4,111.2c0-0.4-0.3-0.7-0.7-0.7h-4.7c-0.4,0-0.7,0.3-0.7,0.7v4.7h1.3v5.6H67v-5.6h1.3V111.2
			L68.4,111.2z"/>
		<circle id="XMLID_145_" cx="65.2" cy="108.2" r="1.6"/>
	</g>
	<path id="XMLID_120_" d="M65.2,102.5c-3.2,0-5.9,1.1-8.2,3.4c-2.3,2.3-3.4,5.1-3.4,8.2c0,3.2,1.1,5.9,3.4,8.2
		c2.3,2.3,5,3.4,8.2,3.4c3.2,0,6-1.1,8.3-3.4c2.2-2.2,3.3-4.9,3.3-8.1c0-3.2-1.1-6-3.4-8.2C71.2,103.6,68.5,102.5,65.2,102.5z
		 M65.3,104.5c2.6,0,4.9,0.9,6.7,2.8c1.9,1.8,2.8,4.1,2.8,6.7c0,2.7-0.9,4.9-2.7,6.6c-1.9,1.9-4.2,2.8-6.8,2.8
		c-2.6,0-4.8-0.9-6.7-2.8c-1.9-1.9-2.8-4.1-2.8-6.7c0-2.6,0.9-4.8,2.8-6.7C60.4,105.5,62.6,104.5,65.3,104.5z"/>
</g>
<path id="XMLID_88_" class="st1" d="M128.1,114c0,5.8-4.7,10.6-10.6,10.6c-5.8,0-10.6-4.7-10.6-10.6c0,0,0,0,0,0
	c0-5.8,4.7-10.6,10.6-10.6C123.3,103.4,128.1,108.2,128.1,114C128.1,114,128.1,114,128.1,114z"/>
<path id="XMLID_84_" d="M117.4,102.4c-3.2,0-5.9,1.1-8.2,3.4c-2.3,2.3-3.4,5.1-3.4,8.2c0,3.2,1.1,5.9,3.4,8.2c2.3,2.3,5,3.4,8.2,3.4
	c3.2,0,6-1.2,8.3-3.4c2.2-2.2,3.3-4.9,3.3-8.1c0-3.2-1.1-6-3.4-8.2C123.4,103.6,120.7,102.4,117.4,102.4z M117.4,104.5
	c2.6,0,4.9,0.9,6.7,2.8c1.9,1.8,2.8,4.1,2.8,6.7c0,2.7-0.9,4.9-2.7,6.6c-1.9,1.9-4.2,2.8-6.8,2.8c-2.6,0-4.8-0.9-6.7-2.8
	c-1.9-1.9-2.8-4.1-2.8-6.7c0-2.6,0.9-4.8,2.8-6.7C112.6,105.5,114.8,104.5,117.4,104.5z"/>
<path id="XMLID_83_" d="M112.3,112.4c0.5-2.9,2.5-4.5,5.1-4.5c3.7,0,6,2.7,6,6.3c0,3.5-2.4,6.2-6,6.2c-2.5,0-4.7-1.5-5.1-4.5h2.9
	c0.1,1.6,1.1,2.1,2.5,2.1c1.6,0,2.7-1.5,2.7-3.9c0-2.5-0.9-3.8-2.7-3.8c-1.3,0-2.4,0.5-2.6,2.1l0.8,0l-2.3,2.3l-2.3-2.3L112.3,112.4
	z"/>
<path id="XMLID_80_" class="st1" d="M102.1,114c0,6-4.8,10.8-10.8,10.8c-6,0-10.8-4.8-10.8-10.8c0,0,0,0,0,0c0-6,4.8-10.8,10.8-10.8
	C97.3,103.2,102.1,108.1,102.1,114C102.1,114,102.1,114,102.1,114z"/>
<path id="XMLID_23_" d="M91.3,102.4c3.3,0,6,1.1,8.2,3.4c2.2,2.2,3.4,5,3.4,8.2c0,3.2-1.1,6-3.3,8.1c-2.3,2.3-5.1,3.4-8.3,3.4
	c-3.2,0-5.9-1.1-8.2-3.4c-2.3-2.3-3.4-5-3.4-8.2c0-3.2,1.1-5.9,3.4-8.2C85.4,103.6,88.1,102.4,91.3,102.4z M82.3,110.9
	c-0.3,1-0.5,2-0.5,3.1c0,2.6,0.9,4.8,2.8,6.7c1.9,1.9,4.1,2.8,6.7,2.8c2.6,0,4.8-0.9,6.8-2.8c0.6-0.6,1.2-1.3,1.6-2l-4.4-1.9
	c-0.3,1.5-1.6,2.5-3.2,2.6v1.8h-1.3v-1.8c-1.3,0-2.6-0.5-3.5-1.4l1.6-1.6c0.8,0.7,1.5,1,2.6,1c0.7,0,1.4-0.3,1.4-1.2
	c0-0.3-0.1-0.5-0.3-0.7l-1.1-0.5l-1.4-0.6c-0.7-0.3-1.3-0.6-1.8-0.8L82.3,110.9z M91.3,104.5c-2.6,0-4.9,0.9-6.7,2.8
	c-0.5,0.5-0.9,1-1.3,1.6l4.4,2c0.4-1.2,1.6-2,3-2.1V107h1.3v1.8c0.9,0,1.9,0.3,2.9,1.1l-1.5,1.6c-0.6-0.4-1.3-0.7-2-0.7
	c-0.6,0-1.4,0.2-1.4,0.9c0,0.1,0,0.2,0.1,0.3l1.5,0.7l1,0.4c0.6,0.3,1.3,0.6,1.9,0.8l5.9,2.6c0.2-0.8,0.3-1.6,0.3-2.5
	c0-2.6-0.9-4.9-2.8-6.7C96.2,105.5,94,104.5,91.3,104.5z"/>
<g id="XMLID_41_">
	<path id="XMLID_42_" d="M269.9,125.5v-15.4h6.5c1.6,0,2.8,0.1,3.6,0.4c0.7,0.3,1.3,0.8,1.8,1.5c0.4,0.7,0.7,1.5,0.7,2.4
		c0,1.2-0.3,2.1-1,2.9c-0.7,0.8-1.7,1.2-3,1.4c0.7,0.4,1.2,0.8,1.7,1.3c0.4,0.5,1,1.3,1.8,2.5l1.9,3h-3.7l-2.2-3.3
		c-0.8-1.2-1.3-2-1.6-2.3c-0.3-0.3-0.6-0.5-0.9-0.6c-0.3-0.1-0.8-0.2-1.6-0.2h-0.6v6.4H269.9z M273.1,116.6h2.3
		c1.5,0,2.4-0.1,2.8-0.2c0.4-0.1,0.7-0.3,0.9-0.7c0.2-0.3,0.3-0.7,0.3-1.2c0-0.5-0.1-0.9-0.4-1.3c-0.3-0.3-0.7-0.5-1.2-0.6
		c-0.3,0-1-0.1-2.3-0.1h-2.4V116.6z"/>
</g>
<g id="XMLID_19_">
	<g id="XMLID_537_">
		<path id="XMLID_590_" d="M304,120.1v-11.5h4.9c1.2,0,2.1,0.1,2.7,0.3s1,0.6,1.3,1.1s0.5,1.1,0.5,1.8c0,0.9-0.3,1.6-0.8,2.1
			s-1.3,0.9-2.3,1.1c0.5,0.3,0.9,0.6,1.2,1s0.8,1,1.3,1.9l1.4,2.2h-2.8l-1.7-2.5c-0.6-0.9-1-1.5-1.2-1.7s-0.5-0.4-0.7-0.5
			s-0.6-0.1-1.2-0.1h-0.5v4.8H304z M306.3,113.5h1.7c1.1,0,1.8,0,2.1-0.1s0.5-0.3,0.6-0.5s0.2-0.5,0.2-0.9c0-0.4-0.1-0.7-0.3-0.9
			s-0.5-0.4-0.9-0.4c-0.2,0-0.8,0-1.7,0h-1.8V113.5z"/>
		<path id="XMLID_587_" d="M320.4,117.4l2.2,0.4c-0.3,0.8-0.7,1.4-1.3,1.8s-1.4,0.6-2.3,0.6c-1.4,0-2.5-0.5-3.2-1.4
			c-0.5-0.8-0.8-1.7-0.8-2.9c0-1.4,0.4-2.5,1.1-3.2s1.6-1.2,2.7-1.2c1.2,0,2.2,0.4,2.9,1.2s1.1,2.1,1,3.7h-5.5
			c0,0.7,0.2,1.2,0.5,1.5s0.8,0.5,1.3,0.5c0.3,0,0.6-0.1,0.9-0.3S320.2,117.8,320.4,117.4z M320.5,115.2c0-0.6-0.2-1.1-0.5-1.4
			s-0.7-0.5-1.1-0.5c-0.5,0-0.9,0.2-1.2,0.5s-0.5,0.8-0.5,1.4H320.5z"/>
		<path id="XMLID_580_" d="M324.3,120.6l2.5,0.3c0,0.3,0.1,0.5,0.3,0.6c0.2,0.2,0.5,0.2,1,0.2c0.6,0,1-0.1,1.3-0.3
			c0.2-0.1,0.3-0.3,0.4-0.6c0.1-0.2,0.1-0.5,0.1-1v-1.2c-0.7,0.9-1.5,1.3-2.5,1.3c-1.1,0-2-0.5-2.6-1.4c-0.5-0.7-0.8-1.7-0.8-2.8
			c0-1.4,0.3-2.5,1-3.2s1.5-1.1,2.5-1.1c1,0,1.9,0.5,2.5,1.4v-1.2h2.1v7.4c0,1-0.1,1.7-0.2,2.2s-0.4,0.9-0.7,1.1s-0.7,0.5-1.2,0.6
			s-1.1,0.2-1.8,0.2c-1.4,0-2.4-0.2-3-0.7s-0.9-1.1-0.9-1.8C324.2,120.8,324.2,120.7,324.3,120.6z M326.2,115.7
			c0,0.9,0.2,1.5,0.5,1.9s0.8,0.6,1.3,0.6c0.5,0,1-0.2,1.4-0.6s0.6-1,0.6-1.9c0-0.9-0.2-1.5-0.5-1.9s-0.8-0.6-1.3-0.6
			c-0.5,0-1,0.2-1.3,0.6S326.2,114.9,326.2,115.7z"/>
		<path id="XMLID_575_" d="M334.2,110.6v-2h2.2v2H334.2z M334.2,120.1v-8.3h2.2v8.3H334.2z"/>
		<path id="XMLID_573_" d="M337.9,117.7l2.2-0.3c0.1,0.4,0.3,0.8,0.6,1s0.7,0.3,1.2,0.3c0.6,0,1-0.1,1.3-0.3
			c0.2-0.1,0.3-0.3,0.3-0.6c0-0.2-0.1-0.3-0.2-0.4c-0.1-0.1-0.4-0.2-0.7-0.3c-1.8-0.4-2.9-0.7-3.4-1.1c-0.7-0.4-1-1.1-1-1.9
			c0-0.7,0.3-1.3,0.9-1.8s1.4-0.7,2.6-0.7c1.1,0,2,0.2,2.5,0.6s0.9,0.9,1.1,1.6l-2.1,0.4c-0.1-0.3-0.3-0.6-0.5-0.7s-0.6-0.3-1.1-0.3
			c-0.6,0-1,0.1-1.2,0.2c-0.2,0.1-0.3,0.3-0.3,0.4c0,0.2,0.1,0.3,0.2,0.4c0.2,0.1,0.9,0.4,2.1,0.6s2,0.6,2.4,1
			c0.5,0.4,0.7,0.9,0.7,1.6c0,0.8-0.3,1.4-1,2s-1.6,0.8-2.8,0.8c-1.1,0-2-0.2-2.7-0.7S338.1,118.5,337.9,117.7z"/>
		<path id="XMLID_571_" d="M351.4,111.8v1.8h-1.5v3.3c0,0.7,0,1.1,0,1.2s0.1,0.2,0.2,0.3s0.2,0.1,0.4,0.1c0.2,0,0.5-0.1,0.9-0.2
			l0.2,1.7c-0.5,0.2-1.1,0.3-1.7,0.3c-0.4,0-0.8-0.1-1.1-0.2s-0.6-0.3-0.7-0.5s-0.3-0.5-0.3-0.9c0-0.3-0.1-0.8-0.1-1.5v-3.6h-1v-1.8
			h1v-1.6l2.2-1.3v2.9H351.4z"/>
		<path id="XMLID_568_" d="M357.7,117.4l2.2,0.4c-0.3,0.8-0.7,1.4-1.3,1.8s-1.4,0.6-2.3,0.6c-1.4,0-2.5-0.5-3.2-1.4
			c-0.5-0.8-0.8-1.7-0.8-2.9c0-1.4,0.4-2.5,1.1-3.2s1.6-1.2,2.7-1.2c1.2,0,2.2,0.4,2.9,1.2s1.1,2.1,1,3.7h-5.5
			c0,0.7,0.2,1.2,0.5,1.5s0.8,0.5,1.3,0.5c0.3,0,0.6-0.1,0.9-0.3S357.6,117.8,357.7,117.4z M357.8,115.2c0-0.6-0.2-1.1-0.5-1.4
			s-0.7-0.5-1.1-0.5c-0.5,0-0.9,0.2-1.2,0.5s-0.5,0.8-0.5,1.4H357.8z"/>
		<path id="XMLID_566_" d="M363.9,120.1h-2.2v-8.3h2v1.2c0.3-0.6,0.7-0.9,0.9-1.1s0.6-0.3,0.9-0.3c0.5,0,1,0.1,1.4,0.4l-0.7,1.9
			c-0.4-0.2-0.7-0.4-1-0.4c-0.3,0-0.6,0.1-0.8,0.3s-0.4,0.5-0.5,0.9s-0.2,1.4-0.2,2.8V120.1z"/>
		<path id="XMLID_563_" d="M372.8,117.4l2.2,0.4c-0.3,0.8-0.7,1.4-1.3,1.8s-1.4,0.6-2.3,0.6c-1.4,0-2.5-0.5-3.2-1.4
			c-0.5-0.8-0.8-1.7-0.8-2.9c0-1.4,0.4-2.5,1.1-3.2s1.6-1.2,2.7-1.2c1.2,0,2.2,0.4,2.9,1.2s1.1,2.1,1,3.7h-5.5
			c0,0.7,0.2,1.2,0.5,1.5s0.8,0.5,1.3,0.5c0.3,0,0.6-0.1,0.9-0.3S372.7,117.8,372.8,117.4z M373,115.2c0-0.6-0.2-1.1-0.5-1.4
			s-0.7-0.5-1.1-0.5c-0.5,0-0.9,0.2-1.2,0.5s-0.5,0.8-0.5,1.4H373z"/>
		<path id="XMLID_560_" d="M384.5,120.1h-2v-1.2c-0.3,0.5-0.7,0.8-1.2,1.1s-0.9,0.3-1.4,0.3c-1,0-1.8-0.4-2.4-1.2s-1-1.8-1-3.2
			c0-1.4,0.3-2.5,1-3.2s1.5-1.1,2.5-1.1c0.9,0,1.7,0.4,2.4,1.2v-4.1h2.2V120.1z M378.7,115.7c0,0.9,0.1,1.5,0.4,1.9
			c0.4,0.6,0.8,0.9,1.5,0.9c0.5,0,0.9-0.2,1.3-0.6s0.5-1.1,0.5-1.9c0-1-0.2-1.6-0.5-2.1s-0.8-0.6-1.3-0.6c-0.5,0-1,0.2-1.3,0.6
			S378.7,114.9,378.7,115.7z"/>
		<path id="XMLID_558_" d="M394.9,111.8v1.8h-1.5v3.3c0,0.7,0,1.1,0,1.2s0.1,0.2,0.2,0.3s0.2,0.1,0.4,0.1c0.2,0,0.5-0.1,0.9-0.2
			l0.2,1.7c-0.5,0.2-1.1,0.3-1.7,0.3c-0.4,0-0.8-0.1-1.1-0.2s-0.6-0.3-0.7-0.5s-0.3-0.5-0.3-0.9c0-0.3-0.1-0.8-0.1-1.5v-3.6h-1v-1.8
			h1v-1.6l2.2-1.3v2.9H394.9z"/>
		<path id="XMLID_556_" d="M398.6,120.1h-2.2v-8.3h2v1.2c0.3-0.6,0.7-0.9,0.9-1.1s0.6-0.3,0.9-0.3c0.5,0,1,0.1,1.4,0.4l-0.7,1.9
			c-0.4-0.2-0.7-0.4-1-0.4c-0.3,0-0.6,0.1-0.8,0.3s-0.4,0.5-0.5,0.9s-0.2,1.4-0.2,2.8V120.1z"/>
		<path id="XMLID_553_" d="M404.3,114.3l-2-0.4c0.2-0.8,0.6-1.4,1.2-1.8s1.4-0.6,2.4-0.6c1,0,1.7,0.1,2.2,0.3s0.8,0.5,1,0.9
			s0.3,1,0.3,2l0,2.6c0,0.7,0,1.3,0.1,1.6s0.2,0.7,0.4,1.1h-2.2c-0.1-0.1-0.1-0.4-0.2-0.6c0-0.1-0.1-0.2-0.1-0.3
			c-0.4,0.4-0.8,0.6-1.2,0.8s-0.9,0.3-1.4,0.3c-0.9,0-1.5-0.2-2-0.7s-0.7-1-0.7-1.8c0-0.5,0.1-0.9,0.3-1.3s0.5-0.6,0.9-0.8
			s1-0.4,1.7-0.5c1-0.2,1.7-0.4,2.1-0.5v-0.2c0-0.4-0.1-0.7-0.3-0.9s-0.6-0.3-1.2-0.3c-0.4,0-0.7,0.1-0.9,0.2
			S404.5,113.9,404.3,114.3z M407.3,116.1c-0.3,0.1-0.7,0.2-1.3,0.3s-1,0.3-1.2,0.4c-0.3,0.2-0.4,0.5-0.4,0.8c0,0.3,0.1,0.6,0.3,0.8
			s0.5,0.3,0.9,0.3c0.4,0,0.8-0.1,1.1-0.4c0.3-0.2,0.4-0.4,0.5-0.7c0.1-0.2,0.1-0.5,0.1-1.1V116.1z"/>
		<path id="XMLID_550_" d="M419.2,120.1h-2v-1.2c-0.3,0.5-0.7,0.8-1.2,1.1s-0.9,0.3-1.4,0.3c-1,0-1.8-0.4-2.4-1.2s-1-1.8-1-3.2
			c0-1.4,0.3-2.5,1-3.2s1.5-1.1,2.5-1.1c0.9,0,1.7,0.4,2.4,1.2v-4.1h2.2V120.1z M413.3,115.7c0,0.9,0.1,1.5,0.4,1.9
			c0.4,0.6,0.8,0.9,1.5,0.9c0.5,0,0.9-0.2,1.3-0.6s0.5-1.1,0.5-1.9c0-1-0.2-1.6-0.5-2.1s-0.8-0.6-1.3-0.6c-0.5,0-1,0.2-1.3,0.6
			S413.3,114.9,413.3,115.7z"/>
		<path id="XMLID_547_" d="M426.2,117.4l2.2,0.4c-0.3,0.8-0.7,1.4-1.3,1.8s-1.4,0.6-2.3,0.6c-1.4,0-2.5-0.5-3.2-1.4
			c-0.5-0.8-0.8-1.7-0.8-2.9c0-1.4,0.4-2.5,1.1-3.2s1.6-1.2,2.7-1.2c1.2,0,2.2,0.4,2.9,1.2s1.1,2.1,1,3.7H423c0,0.7,0.2,1.2,0.5,1.5
			s0.8,0.5,1.3,0.5c0.3,0,0.6-0.1,0.9-0.3S426.1,117.8,426.2,117.4z M426.3,115.2c0-0.6-0.2-1.1-0.5-1.4s-0.7-0.5-1.1-0.5
			c-0.5,0-0.9,0.2-1.2,0.5s-0.5,0.8-0.5,1.4H426.3z"/>
		<path id="XMLID_545_" d="M430.1,111.8h2v1.1c0.7-0.9,1.6-1.3,2.6-1.3c0.5,0,1,0.1,1.4,0.3s0.7,0.5,1,1c0.4-0.4,0.8-0.8,1.2-1
			s0.9-0.3,1.4-0.3c0.6,0,1.1,0.1,1.5,0.4s0.7,0.6,0.9,1.1c0.2,0.4,0.2,0.9,0.2,1.7v5.3h-2.2v-4.7c0-0.8-0.1-1.4-0.2-1.6
			c-0.2-0.3-0.5-0.5-0.9-0.5c-0.3,0-0.6,0.1-0.9,0.3s-0.5,0.5-0.6,0.8s-0.2,0.9-0.2,1.7v4h-2.2v-4.5c0-0.8,0-1.3-0.1-1.6
			s-0.2-0.4-0.4-0.5s-0.4-0.2-0.7-0.2c-0.3,0-0.6,0.1-0.9,0.3s-0.5,0.4-0.6,0.8s-0.2,0.9-0.2,1.7v4h-2.2V111.8z"/>
		<path id="XMLID_542_" d="M446.1,114.3l-2-0.4c0.2-0.8,0.6-1.4,1.2-1.8s1.4-0.6,2.4-0.6c1,0,1.7,0.1,2.2,0.3s0.8,0.5,1,0.9
			s0.3,1,0.3,2l0,2.6c0,0.7,0,1.3,0.1,1.6s0.2,0.7,0.4,1.1h-2.2c-0.1-0.1-0.1-0.4-0.2-0.6c0-0.1-0.1-0.2-0.1-0.3
			c-0.4,0.4-0.8,0.6-1.2,0.8s-0.9,0.3-1.4,0.3c-0.9,0-1.5-0.2-2-0.7s-0.7-1-0.7-1.8c0-0.5,0.1-0.9,0.3-1.3s0.5-0.6,0.9-0.8
			s1-0.4,1.7-0.5c1-0.2,1.7-0.4,2.1-0.5v-0.2c0-0.4-0.1-0.7-0.3-0.9s-0.6-0.3-1.2-0.3c-0.4,0-0.7,0.1-0.9,0.2
			S446.3,113.9,446.1,114.3z M449.1,116.1c-0.3,0.1-0.7,0.2-1.3,0.3s-1,0.3-1.2,0.4c-0.3,0.2-0.4,0.5-0.4,0.8c0,0.3,0.1,0.6,0.3,0.8
			s0.5,0.3,0.9,0.3c0.4,0,0.8-0.1,1.1-0.4c0.3-0.2,0.4-0.4,0.5-0.7c0.1-0.2,0.1-0.5,0.1-1.1V116.1z"/>
		<path id="XMLID_540_" d="M455.5,120.1h-2.2v-8.3h2v1.2c0.3-0.6,0.7-0.9,0.9-1.1s0.6-0.3,0.9-0.3c0.5,0,1,0.1,1.4,0.4l-0.7,1.9
			c-0.4-0.2-0.7-0.4-1-0.4c-0.3,0-0.6,0.1-0.8,0.3s-0.4,0.5-0.5,0.9s-0.2,1.4-0.2,2.8V120.1z"/>
		<path id="XMLID_538_" d="M459.5,120.1v-11.5h2.2v6.1l2.6-2.9h2.7l-2.8,3l3,5.3h-2.4l-2.1-3.7l-1,1.1v2.7H459.5z"/>
	</g>
</g>
</svg>
