<?xml version="1.0" encoding="utf-8"?>
<!-- Generator: Adobe Illustrator 19.0.0, SVG Export Plug-In . SVG Version: 6.00 Build 0)  -->
<svg version="1.1" xmlns="http://www.w3.org/2000/svg" xmlns:xlink="http://www.w3.org/1999/xlink" x="0px" y="0px"
	 viewBox="-20 193 555 456.9" style="enable-background:new -20 193 555 456.9;" xml:space="preserve">
<style type="text/css">
	.st0{fill:none;stroke:#6B6B6B;stroke-width:2;stroke-miterlimit:10;}
	.st1{fill:#CECECE;}
	.st2{fill:#6B6B6B;}
	.st3{fill:#8F6CB0;}
	.st4{fill:#A0BE00;}
	.st5{fill:#FF7F00;}
	.st6{fill:#D74434;}
	.st7{fill:#029ECF;}
	.st8{fill:#3F3A37;}
	.st9{fill:#FFFFFF;}
	.st10{fill:#004158;}
	.st11{opacity:0.5;fill:#00313D;enable-background:new    ;}
	.st12{fill:#606060;}
	.st13{fill:#1E1E1E;}
	.st14{fill:#FFFFFF;stroke:#FFFFFF;stroke-width:0.115;stroke-miterlimit:10;}
	.st15{fill:#FFFFFF;stroke:#1E1E1E;stroke-width:1.7139;stroke-miterlimit:10;}
</style>
<g id="Capa_1">
	<g id="XMLID_2_">
		<g id="XMLID_6137_">
			<polyline id="XMLID_6098_" class="st0" points="364.6,236.4 364.6,265.1 341.3,265.1 341.3,291 496.1,291 			"/>
			<polyline id="XMLID_6606_" class="st0" points="205.2,548.8 373,548.8 373,533.3 428.2,533.3 428.2,561.1 483.3,561.1 
				483.3,472.7 443.3,432.8 443.3,416.9 507.1,416.9 507.1,326.5 439.1,326.5 439.1,245 			"/>
			<polyline id="XMLID_6605_" class="st0" points="200.2,548.8 102.4,548.8 102.4,526.3 46.7,526.3 46.7,468.3 105.2,468.3 
				105.2,435.3 83.1,435.3 69.7,411.5 69.7,356.8 97.5,356.8 97.5,320.4 74,320.4 74,263.2 			"/>
			<g id="XMLID_6929_">
				<g id="XMLID_6937_">
					<g id="XMLID_6940_">
						<path id="XMLID_6203_" class="st1" d="M167.8,206.5c-2.3-4.7-7.2-7.9-12.7-7.9c-7.3,0-13.3,5.5-14.1,12.5h3.5
							c0.8-5.1,5.3-9,10.6-9c4.6,0,8.6,2.9,10.1,7l-2,2h2.5h3.5h0.7v-6.7L167.8,206.5z"/>
					</g>
					<g id="XMLID_6938_">
						<path id="XMLID_6202_" class="st1" d="M155.1,223.6c-4.6,0-8.6-2.9-10.1-7l2-2h-2.5H141l0,0h-0.6v6.7l2-2
							c2.3,4.7,7.2,7.9,12.7,7.9c7.3,0,13.3-5.5,14.1-12.5h-3.5C164.8,219.7,160.4,223.6,155.1,223.6z"/>
					</g>
				</g>
			</g>
			<g id="XMLID_6891_">
				<g id="XMLID_6906_">
					<path id="XMLID_6907_" class="st1" d="M60,376.2v-4.8h-2.2c-0.2-0.7-0.5-1.4-0.9-2.1l1.6-1.6l-3.4-3.4l-1.6,1.6
						c-0.7-0.4-1.4-0.7-2.1-0.9v-2.2h-4.8v2.2c-0.7,0.2-1.4,0.5-2.1,0.9l-1.6-1.6l-3.4,3.4l1.6,1.6c-0.4,0.7-0.7,1.4-0.9,2.1H38v4.8
						h2.2c0.2,0.7,0.5,1.4,0.9,2.1l-1.6,1.6l3.4,3.4l1.6-1.6c0.7,0.4,1.4,0.7,2.1,0.9v2.2h4.8v-2.2c0.7-0.2,1.4-0.5,2.1-0.9l1.6,1.6
						l3.4-3.4l-1.6-1.6c0.4-0.7,0.7-1.4,0.9-2.1H60z M49,378.1c-2.4,0-4.3-1.9-4.3-4.3c0-2.4,1.9-4.3,4.3-4.3s4.3,1.9,4.3,4.3
						S51.4,378.1,49,378.1z"/>
				</g>
				<g id="XMLID_6902_">
					<path id="XMLID_6903_" class="st1" d="M41.1,364v-1.4c0.5-0.1,0.9-0.3,1.4-0.6l1,1l2.2-2.2l-1-1c0.2-0.4,0.4-0.9,0.6-1.4h1.4
						v-3.2h-1.4c-0.1-0.5-0.3-0.9-0.6-1.4l1-1l-2.2-2.2l-1,1c-0.4-0.2-0.9-0.4-1.4-0.6v-1.4h-3.2v1.4c-0.5,0.1-0.9,0.3-1.4,0.6l-1-1
						l-2.2,2.2l1,1c-0.2,0.4-0.4,0.9-0.6,1.4h-1.4v3.2h1.4c0.1,0.5,0.3,0.9,0.6,1.4l-1,1l2.2,2.2l1-1c0.4,0.2,0.9,0.4,1.4,0.6v1.4
						H41.1z M36.7,356.8c0-1.6,1.3-2.8,2.8-2.8c1.6,0,2.8,1.3,2.8,2.8c0,1.6-1.3,2.8-2.8,2.8C37.9,359.6,36.7,358.4,36.7,356.8z"/>
				</g>
			</g>
			<g id="XMLID_6882_">
				<g id="XMLID_6887_">
					<path id="XMLID_6888_" class="st1" d="M230,344.1h9.2v-4.2c1.4-0.4,2.8-1,4-1.7l3,3l6.5-6.5l-3-3c0.7-1.2,1.3-2.6,1.7-4h4.2
						v-9.2h-4.2c-0.4-1.4-1-2.8-1.7-4l3-3l-6.5-6.5l-3,3c-1.2-0.7-2.6-1.3-4-1.7v-4.2H230v4.2c-1.4,0.4-2.8,1-4,1.7l-3-3l-6.5,6.5
						l3,3c-0.7,1.2-1.3,2.6-1.7,4h-4.2v9.2h4.2c0.4,1.4,1,2.8,1.7,4l-3,3l6.5,6.5l3-3c1.2,0.7,2.6,1.3,4,1.7V344.1z M226.4,323.1
						c0-4.5,3.7-8.2,8.2-8.2c4.5,0,8.2,3.7,8.2,8.2s-3.7,8.2-8.2,8.2S226.4,327.7,226.4,323.1z"/>
				</g>
				<g id="XMLID_6883_">
					<path id="XMLID_6884_" class="st1" d="M253.3,308h2.7c0.3,0.9,0.6,1.8,1.1,2.6l-1.9,1.9l4.3,4.3l1.9-1.9
						c0.8,0.5,1.7,0.8,2.6,1.1v2.7h6V316c0.9-0.3,1.8-0.6,2.6-1.1l1.9,1.9l4.3-4.3l-1.9-1.9c0.5-0.8,0.8-1.7,1.1-2.6h2.7v-6H278
						c-0.3-0.9-0.6-1.8-1.1-2.6l1.9-1.9l-4.3-4.3l-1.9,1.9c-0.8-0.5-1.7-0.8-2.6-1.1v-2.7h-6v2.7c-0.9,0.3-1.8,0.6-2.6,1.1l-1.9-1.9
						l-4.3,4.3l1.9,1.9c-0.5,0.8-0.8,1.7-1.1,2.6h-2.7V308z M267,299.7c3,0,5.4,2.4,5.4,5.4s-2.4,5.4-5.4,5.4s-5.4-2.4-5.4-5.4
						S264,299.7,267,299.7z"/>
				</g>
			</g>
			<g id="XMLID_6848_">
				<g id="XMLID_6860_">
					<g id="XMLID_6867_">
						<ellipse id="XMLID_6181_" class="st1" cx="366.8" cy="384.2" rx="10" ry="1.8"/>
					</g>
					<g id="XMLID_6863_">
						<path id="XMLID_6864_" class="st1" d="M366.8,350.9c-5.5,0-10,4.5-10,10c0,1.4,0.3,2.7,0.8,3.9l0,0c0.1,0.2,0.2,0.4,0.3,0.6
							l8.9,18.8l8.8-18.7c0.7-1.4,1.2-3,1.2-4.7C376.8,355.3,372.3,350.9,366.8,350.9z M366.8,367.6c-3.7,0-6.7-3-6.7-6.7
							c0-3.7,3-6.7,6.7-6.7s6.7,3,6.7,6.7C373.5,364.6,370.5,367.6,366.8,367.6z"/>
					</g>
					<g id="XMLID_6861_">
						<circle id="XMLID_6178_" class="st1" cx="366.8" cy="360.9" r="5"/>
					</g>
				</g>
			</g>
			<g id="XMLID_6846_">
				<path id="XMLID_6177_" class="st1" d="M377.8,215.9c0.1-0.4,0.1-0.9,0.1-1.3c0-4.7-3.8-8.5-8.5-8.5c-3.9,0-7.2,2.7-8.2,6.3
					c-1.2-0.8-2.6-1.3-4.1-1.3c-4,0-7.2,3.2-7.2,7.2l0,0c-3.1,0.3-5.5,2.8-5.5,6c0,3.3,2.7,6,6,6c1.3,0,6.4,0,11.8,0v-2.9v-2.6h-1.9
					l4.3-7.5l4.3,7.5H367v2v3.6c4.7,0,9,0,10.6,0c4,0,7.2-3.2,7.2-7.2C384.8,219.2,381.7,216.1,377.8,215.9z"/>
			</g>
			<g id="XMLID_6843_">
				<circle id="XMLID_6176_" class="st0" cx="97.1" cy="320.2" r="8.6"/>
				<circle id="XMLID_6175_" class="st2" cx="97.1" cy="320.2" r="6.2"/>
			</g>
			<g id="XMLID_6840_">
				<circle id="XMLID_6174_" class="st0" cx="176.9" cy="248.1" r="8.6"/>
				<circle id="XMLID_6173_" class="st2" cx="176.9" cy="248.1" r="6.2"/>
			</g>
			<g id="XMLID_6837_">
				<circle id="XMLID_6172_" class="st0" cx="341.3" cy="292.5" r="8.6"/>
				<circle id="XMLID_6171_" class="st2" cx="341.3" cy="292.5" r="6.2"/>
			</g>
			<g id="XMLID_6834_">
				<circle id="XMLID_6170_" class="st0" cx="412" cy="328" r="8.6"/>
				<circle id="XMLID_6169_" class="st2" cx="412" cy="328" r="6.2"/>
			</g>
			<g id="XMLID_6828_">
				<circle id="XMLID_6166_" class="st0" cx="507.1" cy="416.9" r="8.6"/>
				<circle id="XMLID_6165_" class="st2" cx="507.1" cy="416.9" r="6.2"/>
			</g>
			<g id="XMLID_6825_">
				<circle id="XMLID_6164_" class="st0" cx="105.7" cy="468.3" r="8.6"/>
				<circle id="XMLID_6163_" class="st2" cx="105.7" cy="468.3" r="6.2"/>
			</g>
			<g id="XMLID_6822_">
				<circle id="XMLID_6162_" class="st0" cx="352.6" cy="468.3" r="8.6"/>
				<circle id="XMLID_6161_" class="st2" cx="352.6" cy="468.3" r="6.2"/>
			</g>
			<g id="XMLID_6819_">
				<circle id="XMLID_6160_" class="st0" cx="101.9" cy="548.8" r="8.6"/>
				<circle id="XMLID_6159_" class="st2" cx="101.9" cy="548.8" r="6.2"/>
			</g>
			<g id="XMLID_6816_">
				<circle id="XMLID_6158_" class="st0" cx="372.7" cy="533.3" r="8.6"/>
				<circle id="XMLID_6157_" class="st2" cx="372.7" cy="533.3" r="6.2"/>
			</g>
			<g id="XMLID_6813_">
				<circle id="XMLID_6156_" class="st0" cx="483.3" cy="561.1" r="8.6"/>
				<circle id="XMLID_6155_" class="st2" cx="483.3" cy="561.1" r="6.2"/>
			</g>
			<polyline id="XMLID_6154_" class="st0" points="21.9,302.2 51.7,302.2 51.7,342.6 111.8,342.6 111.8,246.7 154.7,246.7 
				154.7,233 			"/>
			<polyline id="XMLID_6153_" class="st0" points="388.1,278.3 388.1,327.8 410.9,327.8 410.9,379.3 433.2,379.3 433.2,426.2 
				457.3,426.2 			"/>
			<polyline id="XMLID_6152_" class="st0" points="28.3,402.5 84.3,402.5 84.3,412.5 122.2,412.5 122.2,450 84.3,450 84.3,498.5 
				145.3,498.5 145.3,573.5 164.6,573.5 			"/>
			<polyline id="XMLID_6151_" class="st0" points="345.4,565 394.1,565 394.1,507.2 447.5,507.2 447.5,526.3 519.9,526.3 
				519.9,433.1 419.2,433.1 419.2,401 465.4,401 			"/>
			<polyline id="XMLID_6150_" class="st0" points="122.2,227.1 122.2,281.7 176.7,281.7 176.7,247.9 216.4,247.9 216.4,218.2 			"/>
			<polyline id="XMLID_6149_" class="st0" points="300.5,218.2 300.5,250 345.4,250 345.4,256.1 403.4,256.1 403.4,220.8 
				474.7,220.8 474.7,314 507.1,314 			"/>
			<circle id="XMLID_6148_" class="st2" cx="122.2" cy="227.1" r="3.2"/>
			<circle id="XMLID_6147_" class="st2" cx="103.3" cy="211.1" r="3.2"/>
			<circle id="XMLID_6146_" class="st2" cx="154.7" cy="233" r="3.2"/>
			<circle id="XMLID_6145_" class="st2" cx="21.9" cy="302" r="3.2"/>
			<circle id="XMLID_6144_" class="st2" cx="97.1" cy="356.8" r="3.2"/>
			<circle id="XMLID_6143_" class="st2" cx="28.3" cy="402.5" r="3.2"/>
			<circle id="XMLID_6142_" class="st2" cx="105" cy="449.7" r="3.2"/>
			<circle id="XMLID_6141_" class="st2" cx="164" cy="573.5" r="3.2"/>
			<circle id="XMLID_6121_" class="st2" cx="345.4" cy="565" r="3.2"/>
			<circle id="XMLID_6120_" class="st2" cx="447.4" cy="526.3" r="3.2"/>
			<circle id="XMLID_6119_" class="st2" cx="430.6" cy="488" r="3.2"/>
			<circle id="XMLID_6118_" class="st2" cx="394.3" cy="533.3" r="3.2"/>
			<circle id="XMLID_6116_" class="st2" cx="519.9" cy="433.1" r="3.2"/>
			<circle id="XMLID_6115_" class="st2" cx="457.3" cy="426" r="3.2"/>
			<circle id="XMLID_6114_" class="st2" cx="465.4" cy="401" r="3.2"/>
			<circle id="XMLID_6113_" class="st2" cx="419.2" cy="401" r="3.2"/>
			<circle id="XMLID_6112_" class="st2" cx="438.7" cy="326.2" r="3.2"/>
			<circle id="XMLID_6110_" class="st2" cx="388.1" cy="278.3" r="3.2"/>
			<circle id="XMLID_6109_" class="st2" cx="364.6" cy="236.1" r="3.2"/>
			<circle id="XMLID_6108_" class="st2" cx="300.5" cy="218.2" r="3.2"/>
			<circle id="XMLID_6107_" class="st2" cx="507.1" cy="314" r="3.2"/>
			<circle id="XMLID_6097_" class="st2" cx="46.7" cy="526.3" r="3.2"/>
			<circle id="XMLID_6096_" class="st2" cx="216.4" cy="218.2" r="3.2"/>
			<polyline id="XMLID_6095_" class="st0" points="168.3,514.3 71.2,514.3 71.2,559.2 1.6,559.2 1.6,429.9 43.6,429.9 43.6,393.8 
				7.7,393.8 7.7,326.3 38,326.3 38,273.4 5,273.4 5,230.8 103.3,230.8 103.3,211.1 			"/>
			<g id="XMLID_6352_">
				<g id="XMLID_6831_">
					<circle id="XMLID_6168_" class="st0" cx="495.3" cy="236.4" r="8.6"/>
					<circle id="XMLID_6167_" class="st2" cx="495.3" cy="236.4" r="6.2"/>
				</g>
				<circle id="XMLID_6106_" class="st2" cx="495.3" cy="291" r="3.2"/>
				<line id="XMLID_1858_" class="st0" x1="495.2" y1="236.4" x2="495.2" y2="290.4"/>
			</g>
			<g id="XMLID_6768_">
				<circle id="XMLID_6092_" class="st1" cx="383.5" cy="483.4" r="2.4"/>
				<path id="XMLID_6086_" class="st1" d="M381.1,475.8c5.5,0,10,4.5,10,10h3.3c0-7.3-5.9-13.2-13.2-13.2L381.1,475.8L381.1,475.8z"
					/>
				<path id="XMLID_6085_" class="st1" d="M381.1,467.3c10.2,0,18.5,8.3,18.5,18.5l0,0h3.7l0,0c0-12.2-9.9-22.2-22.2-22.2V467.3z"/>
				<path id="XMLID_6084_" class="st1" d="M411.9,485.8L411.9,485.8c0-17-13.8-30.9-30.9-30.9v4c14.8,0,26.8,12,26.8,26.8l0,0h4.1
					V485.8z"/>
			</g>
			<polyline id="XMLID_6083_" class="st0" points="430.6,488 430.6,516.3 352.6,516.3 352.6,468.3 			"/>
			<circle id="XMLID_6082_" class="st2" cx="4.7" cy="230.8" r="3.2"/>
			<circle id="XMLID_6080_" class="st2" cx="37.9" cy="273.7" r="3.2"/>
			<circle id="XMLID_6079_" class="st2" cx="37.9" cy="326.3" r="3.2"/>
			<circle id="XMLID_6078_" class="st2" cx="7.8" cy="394.1" r="3.2"/>
			<circle id="XMLID_6077_" class="st2" cx="69.6" cy="402.5" r="3.2"/>
			<circle id="XMLID_6076_" class="st2" cx="43.6" cy="429.5" r="3.2"/>
			<circle id="XMLID_6075_" class="st2" cx="1.6" cy="430.7" r="3.2"/>
			<circle id="XMLID_6074_" class="st2" cx="1.6" cy="558.5" r="3.2"/>
			<circle id="XMLID_6073_" class="st3" cx="105.9" cy="388.1" r="5.6"/>
			<circle id="XMLID_6072_" class="st4" cx="150.2" cy="479.2" r="5.6"/>
			<circle id="XMLID_6071_" class="st5" cx="18.3" cy="520.1" r="5.6"/>
			<circle id="XMLID_6070_" class="st4" cx="363.5" cy="447.7" r="5.6"/>
			<circle id="XMLID_6069_" class="st6" cx="395.3" cy="370.3" r="5.6"/>
			<circle id="XMLID_6068_" class="st5" cx="375.7" cy="306.7" r="5.6"/>
			<circle id="XMLID_5860_" class="st4" cx="324.1" cy="265.1" r="5.6"/>
			<circle id="XMLID_5843_" class="st6" cx="192.8" cy="266.1" r="5.6"/>
			<circle id="XMLID_5772_" class="st3" cx="131" cy="300.4" r="3.7"/>
			<circle id="XMLID_5771_" class="st4" cx="34.8" cy="241.9" r="3.7"/>
			<circle id="XMLID_5770_" class="st3" cx="74" cy="218.2" r="3.7"/>
			<circle id="XMLID_5769_" class="st7" cx="18.3" cy="446.5" r="3.7"/>
			<circle id="XMLID_5768_" class="st7" cx="503.9" cy="446.5" r="3.7"/>
			<circle id="XMLID_5767_" class="st6" cx="440.9" cy="459.7" r="3.7"/>
			<circle id="XMLID_5766_" class="st7" cx="460.5" cy="254.2" r="3.7"/>
			<circle id="XMLID_5765_" class="st5" cx="416.9" cy="255.8" r="3.7"/>
			<circle id="XMLID_5764_" class="st7" cx="138.3" cy="435.3" r="3.7"/>
			<circle id="XMLID_5763_" class="st7" cx="97.1" cy="485.8" r="3.7"/>
			<circle id="XMLID_5762_" class="st7" cx="331.7" cy="472.6" r="3.7"/>
			<circle id="XMLID_5761_" class="st5" cx="178.6" cy="476.2" r="3.7"/>
			<circle id="XMLID_5760_" class="st7" cx="440.9" cy="365.3" r="3.7"/>
			<circle id="XMLID_5759_" class="st7" cx="359.8" cy="314" r="3.7"/>
			<circle id="XMLID_5758_" class="st6" cx="303.6" cy="265.1" r="3.7"/>
			<circle id="XMLID_5757_" class="st7" cx="190.9" cy="286.3" r="3.7"/>
		</g>
		<g id="XMLID_13313_">
			<path id="XMLID_13314_" d="M182.9,352.4h1.9v9.9c0,1.7-0.2,3-0.5,4.1s-0.9,1.9-1.8,2.5c-0.9,0.6-1.9,0.9-3.3,0.9
				c-1.9,0-3.2-0.6-4.2-1.7c-1-1.1-1.4-3.1-1.4-5.9v-9.9h1.9v9.9c0,1.6,0.1,2.7,0.4,3.4c0.3,0.7,0.6,1.2,1.2,1.6
				c0.6,0.4,1.2,0.5,2,0.5c1.3,0,2.3-0.4,2.9-1.1s0.9-2.2,0.9-4.4L182.9,352.4L182.9,352.4z"/>
			<path id="XMLID_13317_" d="M187.3,369.6v-12.4h1.6v1.8c0.4-0.7,0.8-1.2,1.4-1.5c0.5-0.3,1.2-0.5,1.9-0.5c0.5,0,1.1,0.1,1.5,0.3
				c0.4,0.2,0.8,0.5,1.1,0.8c0.3,0.3,0.5,0.8,0.6,1.4c0.1,0.6,0.2,1.4,0.2,2.6v7.7h-1.7V362c0-0.9-0.1-1.6-0.2-2s-0.4-0.7-0.7-1
				c-0.3-0.2-0.7-0.3-1.2-0.3c-0.8,0-1.5,0.3-2,0.9c-0.5,0.6-0.7,1.7-0.7,3.2v6.8L187.3,369.6L187.3,369.6z"/>
			<path id="XMLID_13319_" d="M204.5,368.1c-0.6,0.6-1.2,1.1-1.8,1.4s-1.3,0.5-1.9,0.5c-1.1,0-1.9-0.3-2.5-1
				c-0.6-0.7-0.9-1.5-0.9-2.6c0-0.7,0.1-1.4,0.4-1.9s0.7-1,1.2-1.3c0.5-0.3,1.3-0.5,2.3-0.7c1.4-0.2,2.4-0.5,3.1-0.7v-0.5
				c0-0.9-0.2-1.4-0.5-1.8c-0.4-0.5-1.1-0.8-2-0.8c-0.8,0-1.4,0.2-1.8,0.5c-0.4,0.3-0.7,1-0.9,1.9l-1.7-0.3c0.2-1.3,0.7-2.3,1.5-2.9
				c0.8-0.6,1.8-0.9,3.2-0.9c1.1,0,1.9,0.2,2.5,0.6c0.6,0.4,1,0.9,1.2,1.5s0.2,1.5,0.2,2.6v2.8c0,2,0,3.2,0.1,3.7s0.2,1,0.4,1.5
				h-1.8C204.7,369.2,204.6,368.6,204.5,368.1z M204.4,363.3c-0.6,0.3-1.6,0.6-2.8,0.8c-0.7,0.1-1.2,0.3-1.5,0.4
				c-0.3,0.1-0.5,0.4-0.7,0.7c-0.2,0.3-0.2,0.6-0.2,1c0,0.6,0.2,1.1,0.6,1.4s0.9,0.5,1.5,0.5s1.2-0.2,1.7-0.5
				c0.5-0.3,0.9-0.7,1.1-1.3s0.4-1.3,0.4-2.3v-0.7H204.4z"/>
			<path id="XMLID_13322_" d="M213.6,369.6v-12.4h1.6v1.9c0.4-0.9,0.8-1.5,1.1-1.7c0.3-0.2,0.7-0.4,1.1-0.4c0.6,0,1.2,0.2,1.8,0.7
				l-0.6,2c-0.4-0.3-0.8-0.5-1.3-0.5c-0.4,0-0.7,0.1-1,0.4s-0.5,0.6-0.6,1.1c-0.2,0.8-0.3,1.7-0.3,2.6v6.5h-1.8V369.6z"/>
			<path id="XMLID_13324_" d="M226.7,365.6l1.8,0.3c-0.3,1.3-0.8,2.3-1.6,3c-0.8,0.7-1.7,1-2.9,1c-1.4,0-2.6-0.5-3.5-1.6
				s-1.3-2.7-1.3-4.8s0.5-3.8,1.4-4.9c0.9-1.1,2-1.7,3.4-1.7c1.3,0,2.4,0.6,3.3,1.7c0.9,1.1,1.3,2.7,1.3,4.8v0.6H221
				c0.1,1.4,0.4,2.5,1,3.2c0.6,0.7,1.3,1.1,2.1,1.1C225.3,368.1,226.2,367.3,226.7,365.6z M221,362.2h5.7c-0.1-1.1-0.3-1.9-0.7-2.4
				c-0.6-0.8-1.3-1.2-2.1-1.2s-1.4,0.3-2,1C221.3,360.3,221.1,361.1,221,362.2z"/>
			<path id="XMLID_13328_" d="M236.9,369.6V368c-0.3,0.6-0.7,1.1-1.2,1.4s-1,0.5-1.6,0.5c-1.2,0-2.2-0.6-3.1-1.7
				c-0.9-1.1-1.3-2.7-1.3-4.8c0-1.4,0.2-2.6,0.6-3.6s0.9-1.7,1.6-2.2s1.4-0.7,2.2-0.7c0.6,0,1.1,0.2,1.6,0.5
				c0.5,0.3,0.9,0.7,1.2,1.3v-6.2h1.7v17.2L236.9,369.6L236.9,369.6z M231.5,363.4c0,1.6,0.3,2.8,0.8,3.6c0.6,0.8,1.2,1.2,2,1.2
				c0.7,0,1.4-0.4,1.9-1.1c0.5-0.7,0.8-1.9,0.8-3.4c0-1.7-0.3-3-0.8-3.8c-0.5-0.8-1.2-1.2-2-1.2c-0.7,0-1.4,0.4-1.9,1.2
				C231.7,360.5,231.5,361.7,231.5,363.4z"/>
			<path id="XMLID_13331_" d="M245.4,365.9l1.7-0.3c0.1,0.9,0.4,1.5,0.8,2s1.1,0.6,1.8,0.6s1.3-0.2,1.7-0.6c0.4-0.4,0.6-0.8,0.6-1.4
				c0-0.5-0.2-0.9-0.5-1.1c-0.2-0.2-0.8-0.4-1.8-0.7c-1.3-0.4-2.2-0.8-2.7-1.1c-0.5-0.3-0.8-0.7-1.1-1.2s-0.4-1-0.4-1.7
				c0-1.1,0.3-1.9,1-2.6s1.6-1,2.8-1c0.8,0,1.4,0.1,2,0.4s1,0.6,1.3,1.1s0.5,1.1,0.6,2l-1.7,0.3c-0.2-1.4-0.9-2-2.2-2
				c-0.8,0-1.3,0.1-1.7,0.4c-0.4,0.3-0.6,0.7-0.6,1.1c0,0.5,0.2,0.8,0.5,1.1c0.2,0.2,0.8,0.4,1.9,0.7c1.4,0.5,2.4,0.8,2.8,1.1
				c0.4,0.3,0.7,0.6,1,1.1s0.4,1,0.4,1.7c0,1.2-0.4,2.2-1.1,2.9c-0.8,0.7-1.8,1.1-3.1,1.1C247.2,369.9,245.8,368.5,245.4,365.9z"/>
			<path id="XMLID_13333_" d="M262.5,365.6l1.8,0.3c-0.3,1.3-0.8,2.3-1.6,3c-0.8,0.7-1.7,1-2.9,1c-1.4,0-2.6-0.5-3.5-1.6
				s-1.3-2.7-1.3-4.8s0.5-3.8,1.4-4.9c0.9-1.1,2-1.7,3.4-1.7c1.3,0,2.4,0.6,3.3,1.7c0.9,1.1,1.3,2.7,1.3,4.8v0.6h-7.6
				c0.1,1.4,0.4,2.5,1,3.2c0.6,0.7,1.3,1.1,2.1,1.1C261.1,368.1,262,367.3,262.5,365.6z M256.8,362.2h5.7c-0.1-1.1-0.3-1.9-0.7-2.4
				c-0.6-0.8-1.3-1.2-2.1-1.2c-0.8,0-1.4,0.3-2,1C257.1,360.3,256.9,361.1,256.8,362.2z"/>
			<path id="XMLID_13337_" d="M277.9,365l1.7,0.3c-0.2,1.5-0.7,2.6-1.5,3.4s-1.7,1.2-2.8,1.2c-1.3,0-2.4-0.5-3.3-1.6
				s-1.3-2.7-1.3-4.9c0-2.2,0.4-3.8,1.3-4.9c0.9-1.1,2-1.6,3.4-1.6c1.1,0,1.9,0.3,2.7,1c0.8,0.7,1.2,1.6,1.4,3l-1.7,0.3
				c-0.2-0.8-0.4-1.5-0.9-1.9s-0.9-0.6-1.5-0.6c-0.9,0-1.6,0.4-2.1,1.1s-0.8,2-0.8,3.6c0,1.7,0.3,2.9,0.8,3.7
				c0.5,0.8,1.2,1.1,2.1,1.1c0.7,0,1.2-0.3,1.7-0.8S277.8,366.1,277.9,365z"/>
			<path id="XMLID_13339_" d="M280.6,369.6v-17.2h1.7v17.2H280.6z"/>
			<path id="XMLID_13341_" d="M291.4,368.1c-0.6,0.6-1.2,1.1-1.8,1.4s-1.3,0.5-1.9,0.5c-1.1,0-1.9-0.3-2.5-1
				c-0.6-0.7-0.9-1.5-0.9-2.6c0-0.7,0.1-1.4,0.4-1.9s0.7-1,1.2-1.3c0.5-0.3,1.3-0.5,2.3-0.7c1.4-0.2,2.4-0.5,3.1-0.7v-0.5
				c0-0.9-0.2-1.4-0.5-1.8c-0.4-0.5-1.1-0.8-2-0.8c-0.8,0-1.4,0.2-1.8,0.5c-0.4,0.3-0.7,1-0.9,1.9l-1.7-0.3c0.2-1.3,0.7-2.3,1.5-2.9
				c0.8-0.6,1.8-0.9,3.2-0.9c1.1,0,1.9,0.2,2.5,0.6c0.6,0.4,1,0.9,1.2,1.5s0.2,1.5,0.2,2.6v2.8c0,2,0,3.2,0.1,3.7s0.2,1,0.4,1.5
				h-1.8C291.5,369.2,291.4,368.6,291.4,368.1z M291.2,363.3c-0.6,0.3-1.6,0.6-2.8,0.8c-0.7,0.1-1.2,0.3-1.5,0.4
				c-0.3,0.1-0.5,0.4-0.7,0.7c-0.2,0.3-0.2,0.6-0.2,1c0,0.6,0.2,1.1,0.6,1.4s0.9,0.5,1.5,0.5s1.2-0.2,1.7-0.5
				c0.5-0.3,0.9-0.7,1.1-1.3s0.4-1.3,0.4-2.3v-0.7H291.2z"/>
			<path id="XMLID_13345_" d="M294.6,365.9l1.7-0.3c0.1,0.9,0.4,1.5,0.8,2s1.1,0.6,1.8,0.6s1.3-0.2,1.7-0.6c0.4-0.4,0.6-0.8,0.6-1.4
				c0-0.5-0.2-0.9-0.5-1.1c-0.2-0.2-0.8-0.4-1.8-0.7c-1.3-0.4-2.2-0.8-2.7-1.1c-0.5-0.3-0.8-0.7-1.1-1.2s-0.4-1-0.4-1.7
				c0-1.1,0.3-1.9,1-2.6s1.6-1,2.8-1c0.8,0,1.4,0.1,2,0.4s1,0.6,1.3,1.1s0.5,1.1,0.6,2l-1.7,0.3c-0.2-1.4-0.9-2-2.2-2
				c-0.8,0-1.3,0.1-1.7,0.4c-0.4,0.3-0.6,0.7-0.6,1.1c0,0.5,0.2,0.8,0.5,1.1c0.2,0.2,0.8,0.4,1.9,0.7c1.4,0.5,2.4,0.8,2.8,1.1
				c0.4,0.3,0.7,0.6,1,1.1s0.4,1,0.4,1.7c0,1.2-0.4,2.2-1.1,2.9c-0.8,0.7-1.8,1.1-3.1,1.1C296.4,369.9,295,368.5,294.6,365.9z"/>
			<path id="XMLID_13347_" d="M304.8,354.8v-2.4h1.7v2.4H304.8z M304.8,369.6v-12.4h1.7v12.4H304.8z"/>
			<path id="XMLID_13350_" d="M309.3,369.6v-10.8h-1.5v-1.6h1.5v-1.3c0-1,0.1-1.7,0.3-2.2c0.2-0.5,0.5-0.9,0.9-1.1s0.9-0.4,1.6-0.4
				c0.5,0,1,0.1,1.6,0.2l-0.3,1.8c-0.4-0.1-0.7-0.1-1-0.1c-0.5,0-0.9,0.1-1.1,0.4s-0.3,0.8-0.3,1.5v1.1h2v1.6h-2v10.8h-1.7V369.6z"
				/>
			<path id="XMLID_13353_" d="M313.9,354.8v-2.4h1.7v2.4H313.9z M313.9,369.6v-12.4h1.7v12.4H313.9z"/>
			<path id="XMLID_13356_" d="M324.6,365l1.7,0.3c-0.2,1.5-0.7,2.6-1.5,3.4s-1.7,1.2-2.8,1.2c-1.3,0-2.4-0.5-3.3-1.6
				s-1.3-2.7-1.3-4.9c0-2.2,0.4-3.8,1.3-4.9c0.9-1.1,2-1.6,3.4-1.6c1.1,0,1.9,0.3,2.7,1c0.8,0.7,1.2,1.6,1.4,3l-1.7,0.3
				c-0.2-0.8-0.4-1.5-0.9-1.9s-0.9-0.6-1.5-0.6c-0.9,0-1.6,0.4-2.1,1.1s-0.8,2-0.8,3.6c0,1.7,0.3,2.9,0.8,3.7
				c0.5,0.8,1.2,1.1,2.1,1.1c0.7,0,1.2-0.3,1.7-0.8S324.5,366.1,324.6,365z"/>
			<path id="XMLID_13358_" d="M334,368.1c-0.6,0.6-1.2,1.1-1.8,1.4s-1.3,0.5-1.9,0.5c-1.1,0-1.9-0.3-2.5-1c-0.6-0.7-0.9-1.5-0.9-2.6
				c0-0.7,0.1-1.4,0.4-1.9s0.7-1,1.2-1.3c0.5-0.3,1.3-0.5,2.3-0.7c1.4-0.2,2.4-0.5,3.1-0.7v-0.5c0-0.9-0.2-1.4-0.5-1.8
				c-0.4-0.5-1.1-0.8-2-0.8c-0.8,0-1.4,0.2-1.8,0.5c-0.4,0.3-0.7,1-0.9,1.9l-1.7-0.3c0.2-1.3,0.7-2.3,1.5-2.9
				c0.8-0.6,1.8-0.9,3.2-0.9c1.1,0,1.9,0.2,2.5,0.6c0.6,0.4,1,0.9,1.2,1.5s0.2,1.5,0.2,2.6v2.8c0,2,0,3.2,0.1,3.7s0.2,1,0.4,1.5
				h-1.8C334.2,369.2,334.1,368.6,334,368.1z M333.9,363.3c-0.6,0.3-1.6,0.6-2.8,0.8c-0.7,0.1-1.2,0.3-1.5,0.4
				c-0.3,0.1-0.5,0.4-0.7,0.7c-0.2,0.3-0.2,0.6-0.2,1c0,0.6,0.2,1.1,0.6,1.4s0.9,0.5,1.5,0.5s1.2-0.2,1.7-0.5
				c0.5-0.3,0.9-0.7,1.1-1.3s0.4-1.3,0.4-2.3v-0.7H333.9z"/>
			<path id="XMLID_13362_" d="M185.5,403.2V386h1.6v1.6c0.4-0.7,0.8-1.2,1.3-1.5c0.5-0.3,1-0.4,1.6-0.4c0.8,0,1.5,0.2,2.2,0.7
				c0.6,0.5,1.2,1.2,1.6,2.2c0.4,1,0.6,2.1,0.6,3.5c0,2.1-0.4,3.7-1.3,4.9c-0.9,1.2-1.9,1.7-3.1,1.7c-0.5,0-1-0.1-1.5-0.4
				s-0.9-0.7-1.2-1.2v6.1L185.5,403.2L185.5,403.2z M187,392.2c0,1.6,0.3,2.8,0.8,3.6c0.5,0.8,1.2,1.1,2,1.1c0.7,0,1.4-0.4,1.9-1.2
				c0.5-0.8,0.8-2,0.8-3.7c0-1.6-0.3-2.8-0.8-3.6c-0.5-0.8-1.2-1.2-2-1.2c-0.7,0-1.3,0.4-1.9,1.3C187.3,389.4,187,390.6,187,392.2z"
				/>
			<path id="XMLID_13365_" d="M195.4,392.2c0-2.1,0.5-3.8,1.4-4.9c0.9-1.1,2-1.6,3.4-1.6s2.5,0.5,3.4,1.6s1.4,2.7,1.4,4.7
				c0,2.2-0.4,3.9-1.3,5s-2,1.6-3.4,1.6s-2.5-0.5-3.4-1.6S195.4,394.3,195.4,392.2z M197.2,392.2c0,1.6,0.3,2.8,0.9,3.6
				c0.6,0.8,1.3,1.2,2.2,1.2c0.8,0,1.5-0.4,2.1-1.2c0.6-0.8,0.9-2,0.9-3.6s-0.3-2.8-0.9-3.6c-0.6-0.8-1.3-1.2-2.2-1.2
				c-0.8,0-1.5,0.4-2.1,1.2C197.5,389.4,197.2,390.6,197.2,392.2z"/>
			<path id="XMLID_13368_" d="M206.6,398.4V386h1.6v1.9c0.4-0.9,0.8-1.5,1.1-1.7c0.3-0.2,0.7-0.4,1.1-0.4c0.6,0,1.2,0.2,1.8,0.7
				l-0.6,2c-0.4-0.3-0.8-0.5-1.3-0.5c-0.4,0-0.7,0.1-1,0.4s-0.5,0.6-0.6,1.1c-0.2,0.8-0.3,1.7-0.3,2.6v6.5h-1.8V398.4z"/>
			<path id="XMLID_13370_" d="M217.3,394.7l1.7-0.3c0.1,0.9,0.4,1.5,0.8,2s1.1,0.6,1.8,0.6s1.3-0.2,1.7-0.6s0.6-0.8,0.6-1.4
				c0-0.5-0.2-0.9-0.5-1.1c-0.2-0.2-0.8-0.4-1.8-0.7c-1.3-0.4-2.2-0.8-2.7-1.1c-0.5-0.3-0.8-0.7-1.1-1.2s-0.4-1-0.4-1.7
				c0-1.1,0.3-1.9,1-2.6s1.6-1,2.8-1c0.8,0,1.4,0.1,2,0.4s1,0.6,1.3,1.1s0.5,1.1,0.6,2l-1.7,0.3c-0.2-1.4-0.9-2-2.2-2
				c-0.8,0-1.3,0.1-1.7,0.4s-0.6,0.7-0.6,1.1c0,0.5,0.2,0.8,0.5,1.1c0.2,0.2,0.8,0.4,1.9,0.7c1.4,0.5,2.4,0.8,2.8,1.1
				c0.4,0.3,0.7,0.6,1,1.1s0.4,1,0.4,1.7c0,1.2-0.4,2.2-1.1,2.9c-0.7,0.7-1.8,1.1-3.1,1.1C219.1,398.7,217.6,397.3,217.3,394.7z"/>
			<path id="XMLID_13372_" d="M234.1,398.4v-1.8c-0.4,0.7-0.9,1.2-1.4,1.6c-0.5,0.4-1.1,0.5-1.8,0.5c-0.8,0-1.5-0.2-2.1-0.7
				s-1-1-1.1-1.6s-0.3-1.6-0.3-2.7V386h1.7v6.9c0,1.3,0.1,2.1,0.2,2.6s0.4,0.8,0.7,1c0.3,0.2,0.7,0.4,1.2,0.4c0.8,0,1.5-0.3,2-1
				c0.5-0.6,0.7-1.7,0.7-3.2V386h1.7v12.4H234.1z"/>
			<path id="XMLID_13374_" d="M247,396.5l0.2,1.9c-0.5,0.1-0.9,0.2-1.3,0.2c-0.6,0-1.1-0.1-1.5-0.4s-0.6-0.6-0.8-1s-0.2-1.2-0.2-2.5
				v-7.2h-1.3v-1.6h1.3v-3.1l1.7-1.3v4.3h1.7v1.6h-1.7v7.3c0,0.7,0.1,1.1,0.2,1.3c0.1,0.3,0.4,0.4,0.8,0.4
				C246.4,396.6,246.6,396.6,247,396.5z"/>
			<path id="XMLID_13376_" d="M247.6,392.2c0-2.1,0.5-3.8,1.4-4.9c0.9-1.1,2-1.6,3.4-1.6s2.5,0.5,3.4,1.6s1.4,2.7,1.4,4.7
				c0,2.2-0.4,3.9-1.3,5s-2,1.6-3.4,1.6s-2.5-0.5-3.4-1.6S247.6,394.3,247.6,392.2z M249.3,392.2c0,1.6,0.3,2.8,0.9,3.6
				c0.6,0.8,1.3,1.2,2.2,1.2c0.8,0,1.5-0.4,2.1-1.2c0.6-0.8,0.9-2,0.9-3.6s-0.3-2.8-0.9-3.6c-0.6-0.8-1.3-1.2-2.2-1.2
				c-0.8,0-1.5,0.4-2.1,1.2C249.6,389.4,249.3,390.6,249.3,392.2z"/>
			<path id="XMLID_13379_" d="M258.8,403.2V386h1.6v1.6c0.4-0.7,0.8-1.2,1.3-1.5c0.5-0.3,1-0.4,1.6-0.4c0.8,0,1.5,0.2,2.2,0.7
				c0.6,0.5,1.2,1.2,1.6,2.2s0.6,2.1,0.6,3.5c0,2.1-0.4,3.7-1.3,4.9c-0.9,1.2-1.9,1.7-3.1,1.7c-0.5,0-1-0.1-1.5-0.4
				s-0.9-0.7-1.2-1.2v6.1L258.8,403.2L258.8,403.2z M260.4,392.2c0,1.6,0.3,2.8,0.8,3.6c0.5,0.8,1.2,1.1,2,1.1
				c0.7,0,1.4-0.4,1.9-1.2c0.5-0.8,0.8-2,0.8-3.7c0-1.6-0.3-2.8-0.8-3.6c-0.5-0.8-1.2-1.2-2-1.2c-0.7,0-1.3,0.4-1.9,1.3
				C260.7,389.4,260.4,390.6,260.4,392.2z"/>
			<path id="XMLID_13382_" d="M268.7,392.2c0-2.1,0.5-3.8,1.4-4.9c0.9-1.1,2-1.6,3.4-1.6s2.5,0.5,3.4,1.6s1.4,2.7,1.4,4.7
				c0,2.2-0.4,3.9-1.3,5s-2,1.6-3.4,1.6s-2.5-0.5-3.4-1.6S268.7,394.3,268.7,392.2z M270.5,392.2c0,1.6,0.3,2.8,0.9,3.6
				c0.6,0.8,1.3,1.2,2.2,1.2c0.8,0,1.5-0.4,2.1-1.2c0.6-0.8,0.9-2,0.9-3.6s-0.3-2.8-0.9-3.6c-0.6-0.8-1.3-1.2-2.2-1.2
				c-0.8,0-1.5,0.4-2.1,1.2C270.8,389.4,270.5,390.6,270.5,392.2z"/>
			<path id="XMLID_13385_" d="M279.9,398.4v-17.2h1.7v17.2H279.9z"/>
			<path id="XMLID_13387_" d="M283.3,392.2c0-2.1,0.5-3.8,1.4-4.9c0.9-1.1,2-1.6,3.4-1.6s2.5,0.5,3.4,1.6s1.4,2.7,1.4,4.7
				c0,2.2-0.4,3.9-1.3,5s-2,1.6-3.4,1.6s-2.5-0.5-3.4-1.6S283.3,394.3,283.3,392.2z M285.1,392.2c0,1.6,0.3,2.8,0.9,3.6
				c0.6,0.8,1.3,1.2,2.2,1.2c0.8,0,1.5-0.4,2.1-1.2c0.6-0.8,0.9-2,0.9-3.6s-0.3-2.8-0.9-3.6c-0.6-0.8-1.3-1.2-2.2-1.2
				c-0.8,0-1.5,0.4-2.1,1.2C285.4,389.4,285.1,390.6,285.1,392.2z"/>
			<path id="XMLID_13390_" d="M294.2,399.4l1.7,0.3c0.1,0.7,0.3,1.2,0.7,1.5c0.4,0.3,0.9,0.5,1.6,0.5c0.8,0,1.4-0.2,1.8-0.5
				c0.4-0.3,0.8-0.9,0.9-1.6c0.1-0.4,0.2-1.4,0.2-2.8c-0.4,0.5-0.8,0.9-1.3,1.2c-0.5,0.3-1,0.4-1.6,0.4c-1.2,0-2.2-0.5-3-1.5
				c-0.9-1.2-1.4-2.8-1.4-4.8c0-1.3,0.2-2.5,0.6-3.5s0.9-1.7,1.6-2.2s1.4-0.7,2.2-0.7c0.6,0,1.2,0.1,1.6,0.4s0.9,0.7,1.3,1.3v-1.5
				h1.6v10.8c0,1.9-0.2,3.3-0.5,4.1c-0.3,0.8-0.8,1.5-1.5,1.9s-1.6,0.7-2.6,0.7c-1.3,0-2.3-0.4-3-1.1S294.2,400.7,294.2,399.4z
				 M295.7,391.9c0,1.6,0.3,2.8,0.8,3.6c0.5,0.8,1.2,1.1,2,1.1s1.4-0.4,2-1.1s0.8-1.9,0.8-3.5s-0.3-2.7-0.8-3.5
				c-0.5-0.8-1.2-1.1-2.1-1.1c-0.7,0-1.4,0.4-1.9,1.1C295.9,389.3,295.7,390.4,295.7,391.9z"/>
			<path id="XMLID_13393_" d="M305.4,384.4l1.3-3.3h2.3l-2.1,3.3H305.4z M305.8,398.4V386h1.7v12.4H305.8z"/>
			<path id="XMLID_13396_" d="M316.9,396.9c-0.6,0.6-1.2,1.1-1.8,1.4s-1.3,0.5-1.9,0.5c-1.1,0-1.9-0.3-2.5-1
				c-0.6-0.7-0.9-1.5-0.9-2.6c0-0.7,0.1-1.4,0.4-1.9s0.7-1,1.2-1.3c0.5-0.3,1.3-0.5,2.3-0.7c1.4-0.2,2.4-0.5,3.1-0.7v-0.5
				c0-0.9-0.2-1.4-0.5-1.8c-0.4-0.5-1.1-0.8-2-0.8c-0.8,0-1.4,0.2-1.8,0.5c-0.4,0.3-0.7,1-0.9,1.9l-1.7-0.3c0.2-1.3,0.7-2.3,1.5-2.9
				c0.8-0.6,1.8-0.9,3.2-0.9c1.1,0,1.9,0.2,2.5,0.6c0.6,0.4,1,0.9,1.2,1.5s0.2,1.5,0.2,2.6v2.8c0,2,0,3.2,0.1,3.7s0.2,1,0.4,1.5
				h-1.8C317.1,398,317,397.4,316.9,396.9z M316.8,392.1c-0.6,0.3-1.6,0.6-2.8,0.8c-0.7,0.1-1.2,0.3-1.5,0.4
				c-0.3,0.1-0.5,0.4-0.7,0.7c-0.2,0.3-0.2,0.6-0.2,1c0,0.6,0.2,1.1,0.6,1.4s0.9,0.5,1.5,0.5s1.2-0.2,1.7-0.5
				c0.5-0.3,0.9-0.7,1.1-1.3s0.4-1.3,0.4-2.3v-0.7H316.8z"/>
			<path id="XMLID_13399_" d="M321.4,398.4V396h2v2.4H321.4z"/>
		</g>
		<g id="XMLID_5666_">
			<path id="XMLID_6489_" class="st8" d="M358.1,649.9H152.4c-2.3,0-4.7-1.2-4.9-4.5v-3.1l22.5-41.6c1.2-2.4,3.7-4,6.4-4h157.4
				c2.9,0,9.4,5.8,10.7,8.4l18.6,37.9v1.4C363.2,648.3,360.6,649.9,358.1,649.9z"/>
			<path id="XMLID_6488_" class="st9" d="M358.1,645.5H152.4c-2.3,0-6-2-4.6-4.5l22.2-44.7c1.2-2.4,3.7-4,6.4-4h157.4
				c2.9,0,5.6,1.7,6.9,4.3l22,44C364.3,643.4,360.6,645.5,358.1,645.5z"/>
			<rect id="XMLID_6487_" x="170.7" y="486.1" class="st8" width="168.5" height="106.5"/>
			<rect id="XMLID_6486_" x="173.9" y="490" class="st10" width="162" height="96.1"/>
			<path id="XMLID_6485_" class="st8" d="M285.1,643.6h-60.6c-0.7,0-1.2-0.6-1.1-1.3l2.6-16c0.1-0.9,0.9-1.5,1.8-1.5h54.7
				c0.8,0,1.4,0.6,1.5,1.3l2.3,16.1C286.3,643,285.8,643.6,285.1,643.6z"/>
			<path id="XMLID_6484_" class="st8" d="M185.5,601.9h-6.6c-0.9,0-1.6-0.3-1.4-0.6l0.4-1c0.1-0.3,1-0.6,1.9-0.6h6.5
				c0.9,0,1.5,0.3,1.4,0.6l-0.3,1C187.3,601.7,186.4,601.9,185.5,601.9z"/>
			<path id="XMLID_6330_" class="st8" d="M196.6,601.9H190c-0.9,0-1.6-0.3-1.5-0.6l0.3-1c0.1-0.3,0.9-0.6,1.8-0.6h6.5
				c0.9,0,1.6,0.3,1.5,0.6l-0.3,1C198.4,601.7,197.5,601.9,196.6,601.9z"/>
			<path id="XMLID_6329_" class="st8" d="M207.7,601.9h-6.6c-0.9,0-1.6-0.3-1.5-0.6l0.3-1c0.1-0.3,0.9-0.6,1.8-0.6h6.5
				c0.9,0,1.6,0.3,1.5,0.6l-0.2,1C209.4,601.7,208.6,601.9,207.7,601.9z"/>
			<path id="XMLID_6327_" class="st8" d="M218.8,601.9h-6.6c-0.9,0-1.6-0.3-1.5-0.6l0.2-1c0.1-0.3,0.9-0.6,1.8-0.6h6.5
				c0.9,0,1.6,0.3,1.5,0.6l-0.2,1C220.5,601.7,219.7,601.9,218.8,601.9z"/>
			<path id="XMLID_6326_" class="st8" d="M229.9,601.9h-6.6c-0.9,0-1.6-0.3-1.6-0.6l0.2-1c0.1-0.3,0.8-0.6,1.7-0.6h6.5
				c0.9,0,1.6,0.3,1.6,0.6l-0.1,1C231.6,601.7,230.8,601.9,229.9,601.9z"/>
			<path id="XMLID_6325_" class="st8" d="M241,601.9h-6.6c-0.9,0-1.6-0.3-1.6-0.6l0.1-1c0-0.3,0.8-0.6,1.7-0.6h6.5
				c0.9,0,1.6,0.3,1.6,0.6l-0.1,1C242.7,601.7,241.9,601.9,241,601.9z"/>
			<path id="XMLID_6324_" class="st8" d="M252.1,601.9h-6.6c-0.9,0-1.6-0.3-1.6-0.6l0.1-1c0-0.3,0.8-0.6,1.7-0.6h6.5
				c0.9,0,1.6,0.3,1.6,0.6v1C253.7,601.7,253,601.9,252.1,601.9z"/>
			<path id="XMLID_6323_" class="st8" d="M263.2,601.9h-6.6c-0.9,0-1.7-0.3-1.7-0.6v-1c0-0.3,0.7-0.6,1.6-0.6h6.5
				c0.9,0,1.7,0.3,1.7,0.6l0.1,1C264.8,601.7,264.1,601.9,263.2,601.9z"/>
			<path id="XMLID_6322_" class="st8" d="M274.3,601.9h-6.6c-0.9,0-1.7-0.3-1.7-0.6l-0.1-1c0-0.3,0.7-0.6,1.6-0.6h6.5
				c0.9,0,1.7,0.3,1.7,0.6l0.1,1C275.9,601.7,275.2,601.9,274.3,601.9z"/>
			<path id="XMLID_6321_" class="st8" d="M285.4,601.9h-6.6c-0.9,0-1.7-0.3-1.7-0.6l-0.1-1c0-0.3,0.7-0.6,1.6-0.6h6.5
				c0.9,0,1.7,0.3,1.7,0.6l0.2,1C287,601.7,286.3,601.9,285.4,601.9z"/>
			<path id="XMLID_6320_" class="st8" d="M296.5,601.9h-6.6c-0.9,0-1.7-0.3-1.8-0.6l-0.2-1c-0.1-0.3,0.6-0.6,1.5-0.6h6.5
				c0.9,0,1.7,0.3,1.8,0.6l0.2,1C298.1,601.7,297.4,601.9,296.5,601.9z"/>
			<path id="XMLID_6319_" class="st8" d="M307.5,601.9H301c-0.9,0-1.7-0.3-1.8-0.6l-0.2-1c-0.1-0.3,0.6-0.6,1.5-0.6h6.5
				c0.9,0,1.7,0.3,1.8,0.6l0.3,1C309.1,601.7,308.5,601.9,307.5,601.9z"/>
			<path id="XMLID_6318_" class="st8" d="M318.6,601.9H312c-0.9,0-1.7-0.3-1.8-0.6l-0.3-1c-0.1-0.3,0.6-0.6,1.5-0.6h6.5
				c0.9,0,1.7,0.3,1.9,0.6l0.3,1C320.2,601.7,319.6,601.9,318.6,601.9z"/>
			<path id="XMLID_6317_" class="st8" d="M329.7,601.9h-6.6c-0.9,0-1.8-0.3-1.9-0.6l-0.4-1c-0.1-0.3,0.5-0.6,1.4-0.6h6.5
				c0.9,0,1.8,0.3,1.9,0.6l0.4,1C331.3,601.7,330.7,601.9,329.7,601.9z"/>
			<path id="XMLID_6316_" class="st8" d="M184.9,605.6h-8.4c-0.2,0-0.4-0.1-0.3-0.1l1.2-3.1c0-0.1,0.2-0.1,0.4-0.1h8.2
				c0.2,0,0.4,0.1,0.3,0.1l-1.1,3.1C185.3,605.5,185.1,605.6,184.9,605.6z"/>
			<path id="XMLID_6315_" class="st8" d="M200.4,609.6h-8.6c-0.2,0-0.4-0.1-0.3-0.1l1-3.2c0-0.1,0.2-0.1,0.4-0.1h8.4
				c0.2,0,0.4,0.1,0.3,0.1l-0.9,3.2C200.8,609.6,200.6,609.6,200.4,609.6z"/>
			<path id="XMLID_6314_" class="st8" d="M201.8,613.8H193c-0.2,0-0.4-0.1-0.3-0.2l1-3.3c0-0.1,0.2-0.1,0.4-0.1h8.6
				c0.2,0,0.4,0.1,0.3,0.1l-0.9,3.3C202.2,613.8,202,613.8,201.8,613.8z"/>
			<path id="XMLID_6313_" class="st8" d="M206.7,618.2h-8.9c-0.2,0-0.4-0.1-0.4-0.2l1-3.5c0-0.1,0.2-0.2,0.4-0.2h8.8
				c0.2,0,0.4,0.1,0.4,0.2l-0.8,3.5C207.2,618.1,207,618.2,206.7,618.2z"/>
			<path id="XMLID_6312_" class="st8" d="M178.5,623.3h-9.1c-0.2,0-0.4-0.1-0.4-0.2l1.7-4.1c0-0.1,0.3-0.2,0.5-0.2h8.9
				c0.2,0,0.4,0.1,0.4,0.2l-1.5,4.1C179,623.2,178.8,623.3,178.5,623.3z"/>
			<path id="XMLID_6311_" class="st8" d="M190.7,623.3h-9.1c-0.2,0-0.4-0.1-0.4-0.2l1.4-4.1c0-0.1,0.3-0.2,0.5-0.2h8.9
				c0.2,0,0.4,0.1,0.4,0.2l-1.2,4.1C191.2,623.2,190.9,623.3,190.7,623.3z"/>
			<path id="XMLID_6310_" class="st8" d="M202.5,623.3h-9.1c-0.2,0-0.4-0.1-0.4-0.2l1.2-4.1c0-0.1,0.2-0.2,0.5-0.2h8.9
				c0.2,0,0.4,0.1,0.4,0.2l-1,4.1C203,623.2,202.7,623.3,202.5,623.3z"/>
			<path id="XMLID_6309_" class="st8" d="M217.4,623.3h-12c-0.3,0-0.5-0.1-0.5-0.2l1-4.1c0-0.1,0.3-0.2,0.5-0.2h11.8
				c0.3,0,0.5,0.1,0.5,0.2l-0.7,4.1C217.9,623.2,217.7,623.3,217.4,623.3z"/>
			<path id="XMLID_6308_" class="st8" d="M291.4,623.3h-12c-0.3,0-0.5-0.1-0.5-0.2l-0.5-4.1c0-0.1,0.2-0.2,0.5-0.2h11.8
				c0.3,0,0.5,0.1,0.5,0.2l0.7,4.1C291.9,623.2,291.7,623.3,291.4,623.3z"/>
			<path id="XMLID_6307_" class="st8" d="M303.6,623.3h-9c-0.2,0-0.5-0.1-0.5-0.2l-0.8-4.1c0-0.1,0.2-0.2,0.4-0.2h8.8
				c0.2,0,0.4,0.1,0.5,0.2l1,4.1C304,623.2,303.8,623.3,303.6,623.3z"/>
			<path id="XMLID_6306_" class="st8" d="M276.4,623.3h-55.5c-0.6,0-1-0.2-1-0.4l0.6-3.6c0-0.2,0.5-0.4,1.1-0.4h54.3
				c0.6,0,1.1,0.2,1.1,0.4l0.4,3.6C277.4,623.1,276.9,623.3,276.4,623.3z"/>
			<path id="XMLID_6305_" class="st8" d="M218.4,618.2h-8.9c-0.2,0-0.4-0.1-0.4-0.2l0.8-3.5c0-0.1,0.2-0.2,0.4-0.2h8.8
				c0.2,0,0.4,0.1,0.4,0.2l-0.6,3.5C218.8,618.1,218.6,618.2,218.4,618.2z"/>
			<path id="XMLID_6304_" class="st8" d="M230,618.2h-9c-0.2,0-0.4-0.1-0.4-0.2l0.6-3.5c0-0.1,0.2-0.2,0.4-0.2h8.8
				c0.2,0,0.4,0.1,0.4,0.2l-0.4,3.5C230.4,618.1,230.2,618.2,230,618.2z"/>
			<path id="XMLID_6303_" class="st8" d="M241.6,618.2h-8.9c-0.2,0-0.4-0.1-0.4-0.2l0.4-3.5c0-0.1,0.2-0.2,0.4-0.2h8.8
				c0.2,0,0.4,0.1,0.4,0.2l-0.2,3.5C242,618.1,241.8,618.2,241.6,618.2z"/>
			<path id="XMLID_6302_" class="st8" d="M253.2,618.2h-8.9c-0.2,0-0.4-0.1-0.4-0.2l0.2-3.5c0-0.1,0.2-0.2,0.4-0.2h8.8
				c0.2,0,0.4,0.1,0.4,0.2v3.5C253.6,618.1,253.4,618.2,253.2,618.2z"/>
			<path id="XMLID_6301_" class="st8" d="M264.8,618.2h-8.9c-0.2,0-0.4-0.1-0.4-0.2v-3.5c0-0.1,0.2-0.2,0.4-0.2h8.8
				c0.2,0,0.4,0.1,0.4,0.2l0.2,3.5C265.2,618.1,265,618.2,264.8,618.2z"/>
			<path id="XMLID_6300_" class="st8" d="M276.4,618.2h-8.9c-0.2,0-0.4-0.1-0.4-0.2l-0.2-3.5c0-0.1,0.2-0.2,0.4-0.2h8.8
				c0.2,0,0.4,0.1,0.4,0.2l0.4,3.5C276.8,618.1,276.7,618.2,276.4,618.2z"/>
			<path id="XMLID_6299_" class="st8" d="M288,618.2h-8.9c-0.2,0-0.4-0.1-0.4-0.2l-0.4-3.5c0-0.1,0.2-0.2,0.4-0.2h8.8
				c0.2,0,0.4,0.1,0.4,0.2l0.6,3.5C288.4,618.1,288.3,618.2,288,618.2z"/>
			<path id="XMLID_6298_" class="st8" d="M299.7,618.2h-8.9c-0.2,0-0.4-0.1-0.4-0.2l-0.6-3.5c0-0.1,0.1-0.2,0.4-0.2h8.8
				c0.2,0,0.4,0.1,0.4,0.2l0.8,3.5C300.1,618.1,299.9,618.2,299.7,618.2z"/>
			<path id="XMLID_6297_" class="st8" d="M314.3,623.4h-7c-0.9,0-1.7-0.3-1.8-0.7l-0.3-1c-0.1-0.4,0.6-0.6,1.4-0.6h6.9
				c0.9,0,1.7,0.3,1.8,0.6l0.3,1C315.8,623.1,315.2,623.4,314.3,623.4z"/>
			<path id="XMLID_6296_" class="st8" d="M326.3,623.4h-7c-0.9,0-1.7-0.3-1.8-0.7l-0.3-1c-0.1-0.4,0.5-0.6,1.4-0.6h6.9
				c0.9,0,1.7,0.3,1.8,0.6l0.4,1C327.8,623.1,327.2,623.4,326.3,623.4z"/>
			<path id="XMLID_6295_" class="st8" d="M325.4,620.8h-6.9c-0.9,0-1.7-0.3-1.8-0.6l-0.3-1c-0.1-0.3,0.5-0.6,1.4-0.6h6.8
				c0.9,0,1.7,0.3,1.8,0.6l0.4,1C326.9,620.5,326.2,620.8,325.4,620.8z"/>
			<path id="XMLID_6294_" class="st8" d="M338.2,623.4h-7c-0.9,0-1.7-0.3-1.8-0.7l-0.4-1c-0.1-0.4,0.5-0.6,1.4-0.6h6.9
				c0.9,0,1.7,0.3,1.8,0.6l0.4,1C339.7,623.1,339.1,623.4,338.2,623.4z"/>
			<path id="XMLID_6293_" class="st8" d="M213.3,613.8h-8.8c-0.2,0-0.4-0.1-0.4-0.2l0.8-3.3c0-0.1,0.2-0.1,0.4-0.1h8.6
				c0.2,0,0.4,0.1,0.4,0.1l-0.7,3.3C213.7,613.8,213.5,613.8,213.3,613.8z"/>
			<path id="XMLID_6292_" class="st8" d="M224.8,613.8H216c-0.2,0-0.4-0.1-0.4-0.2l0.6-3.3c0-0.1,0.2-0.1,0.4-0.1h8.6
				c0.2,0,0.4,0.1,0.4,0.1l-0.5,3.3C225.2,613.8,225,613.8,224.8,613.8z"/>
			<path id="XMLID_6291_" class="st8" d="M236.2,613.8h-8.8c-0.2,0-0.4-0.1-0.4-0.2l0.4-3.3c0-0.1,0.2-0.1,0.4-0.1h8.6
				c0.2,0,0.4,0.1,0.4,0.1l-0.3,3.3C236.6,613.8,236.4,613.8,236.2,613.8z"/>
			<path id="XMLID_6290_" class="st8" d="M247.6,613.8h-8.8c-0.2,0-0.4-0.1-0.4-0.2l0.3-3.3c0-0.1,0.2-0.1,0.4-0.1h8.6
				c0.2,0,0.4,0.1,0.4,0.1l-0.1,3.3C248,613.8,247.8,613.8,247.6,613.8z"/>
			<path id="XMLID_6289_" class="st8" d="M259.1,613.8h-8.8c-0.2,0-0.4-0.1-0.4-0.2l0.1-3.3c0-0.1,0.2-0.1,0.4-0.1h8.6
				c0.2,0,0.4,0.1,0.4,0.1l0.1,3.3C259.5,613.8,259.3,613.8,259.1,613.8z"/>
			<path id="XMLID_6288_" class="st8" d="M270.1,613.8h-8.8c-0.2,0-0.4-0.1-0.4-0.2l-0.1-3.3c0-0.1,0.2-0.1,0.4-0.1h8.6
				c0.2,0,0.4,0.1,0.4,0.1l0.3,3.3C270.5,613.8,270.3,613.8,270.1,613.8z"/>
			<path id="XMLID_6287_" class="st8" d="M281.5,613.8h-8.8c-0.2,0-0.4-0.1-0.4-0.2l-0.3-3.3c0-0.1,0.2-0.1,0.4-0.1h8.6
				c0.2,0,0.4,0.1,0.4,0.1l0.5,3.3C281.8,613.8,281.7,613.8,281.5,613.8z"/>
			<path id="XMLID_6286_" class="st8" d="M292.8,613.8H284c-0.2,0-0.4-0.1-0.4-0.2l-0.5-3.3c0-0.1,0.2-0.1,0.4-0.1h8.6
				c0.2,0,0.4,0.1,0.4,0.1l0.7,3.3C293.2,613.8,293,613.8,292.8,613.8z"/>
			<path id="XMLID_6285_" class="st8" d="M304.1,613.8h-8.8c-0.2,0-0.4-0.1-0.4-0.2l-0.7-3.3c0-0.1,0.1-0.1,0.4-0.1h8.6
				c0.2,0,0.4,0.1,0.4,0.1l0.8,3.3C304.5,613.8,304.3,613.8,304.1,613.8z"/>
			<path id="XMLID_6284_" class="st8" d="M315.4,613.8h-8.8c-0.2,0-0.4-0.1-0.4-0.2l-0.9-3.3c0-0.1,0.1-0.1,0.3-0.1h8.6
				c0.2,0,0.4,0.1,0.4,0.1l1,3.3C315.8,613.8,315.6,613.8,315.4,613.8z"/>
			<path id="XMLID_6266_" class="st8" d="M311.2,618.2h-8.9c-0.2,0-0.4-0.1-0.4-0.2l-0.8-3.5c0-0.1,0.1-0.2,0.4-0.2h8.8
				c0.2,0,0.4,0.1,0.4,0.2l1,3.5C311.6,618.1,311.4,618.2,311.2,618.2z"/>
			<path id="XMLID_6265_" class="st8" d="M335.4,613.8h-16.9c-0.3,0-0.6-0.1-0.6-0.2l-1-3.2c0-0.1,0.2-0.2,0.5-0.2H334
				c0.3,0,0.6,0.1,0.6,0.2l1.3,3.2C335.9,613.7,335.7,613.8,335.4,613.8z"/>
			<path id="XMLID_6264_" class="st8" d="M337.1,618.2H314c-0.4,0-0.7-0.1-0.7-0.3l-1-3.3c0-0.1,0.2-0.2,0.6-0.2h22.7
				c0.3,0,0.7,0.1,0.7,0.2l1.3,3.3C337.7,618.1,337.5,618.2,337.1,618.2z"/>
			<path id="XMLID_6263_" class="st8" d="M190.4,613.8h-17.1c-0.3,0-0.5-0.1-0.5-0.2l1.3-3.2c0-0.1,0.3-0.2,0.6-0.2h16.8
				c0.3,0,0.5,0.1,0.5,0.2l-1,3.2C191,613.7,190.7,613.8,190.4,613.8z"/>
			<path id="XMLID_6262_" class="st8" d="M195,618.2h-23.5c-0.4,0-0.6-0.1-0.5-0.3l1.3-3.3c0.1-0.1,0.4-0.2,0.7-0.2h23.1
				c0.3,0,0.6,0.1,0.6,0.2l-0.9,3.3C195.7,618.1,195.3,618.2,195,618.2z"/>
			<path id="XMLID_6261_" class="st8" d="M211.6,609.6H203c-0.2,0-0.4-0.1-0.3-0.1l0.8-3.2c0-0.1,0.2-0.1,0.4-0.1h8.4
				c0.2,0,0.4,0.1,0.3,0.1l-0.7,3.2C212,609.6,211.8,609.6,211.6,609.6z"/>
			<path id="XMLID_6260_" class="st8" d="M222.7,609.6h-8.6c-0.2,0-0.4-0.1-0.4-0.1l0.7-3.2c0-0.1,0.2-0.1,0.4-0.1h8.4
				c0.2,0,0.4,0.1,0.4,0.1l-0.5,3.2C223.1,609.6,222.9,609.6,222.7,609.6z"/>
			<path id="XMLID_6259_" class="st8" d="M233.9,609.6h-8.6c-0.2,0-0.4-0.1-0.4-0.1l0.5-3.2c0-0.1,0.2-0.1,0.4-0.1h8.4
				c0.2,0,0.4,0.1,0.4,0.1l-0.3,3.2C234.3,609.6,234.1,609.6,233.9,609.6z"/>
			<path id="XMLID_6258_" class="st8" d="M245,609.6h-8.6c-0.2,0-0.4-0.1-0.4-0.1l0.3-3.2c0-0.1,0.2-0.1,0.4-0.1h8.4
				c0.2,0,0.4,0.1,0.4,0.1l-0.1,3.2C245.4,609.6,245.3,609.6,245,609.6z"/>
			<path id="XMLID_6257_" class="st8" d="M256.1,609.6h-8.6c-0.2,0-0.4-0.1-0.4-0.1l0.1-3.2c0-0.1,0.2-0.1,0.4-0.1h8.4
				c0.2,0,0.4,0.1,0.4,0.1v3.2C256.5,609.6,256.4,609.6,256.1,609.6z"/>
			<path id="XMLID_6256_" class="st8" d="M267,609.6h-8.6c-0.2,0-0.4-0.1-0.4-0.1l-0.1-3.2c0-0.1,0.2-0.1,0.4-0.1h8.4
				c0.2,0,0.4,0.1,0.4,0.1l0.2,3.2C267.4,609.6,267.2,609.6,267,609.6z"/>
			<path id="XMLID_6255_" class="st8" d="M278.3,609.6h-8.6c-0.2,0-0.4-0.1-0.4-0.1l-0.2-3.2c0-0.1,0.2-0.1,0.4-0.1h8.4
				c0.2,0,0.4,0.1,0.4,0.1l0.4,3.2C278.6,609.6,278.5,609.6,278.3,609.6z"/>
			<path id="XMLID_6254_" class="st8" d="M289.4,609.6h-8.6c-0.2,0-0.4-0.1-0.4-0.1l-0.4-3.2c0-0.1,0.2-0.1,0.4-0.1h8.4
				c0.2,0,0.4,0.1,0.4,0.1l0.6,3.2C289.8,609.6,289.6,609.6,289.4,609.6z"/>
			<path id="XMLID_6253_" class="st8" d="M300.3,609.6h-8.6c-0.2,0-0.4-0.1-0.4-0.1l-0.6-3.2c0-0.1,0.1-0.1,0.4-0.1h8.4
				c0.2,0,0.4,0.1,0.4,0.1l0.8,3.2C300.7,609.6,300.6,609.6,300.3,609.6z"/>
			<path id="XMLID_6252_" class="st8" d="M311.7,609.6h-8.6c-0.2,0-0.4-0.1-0.4-0.1l-0.8-3.2c0-0.1,0.1-0.1,0.3-0.1h8.4
				c0.2,0,0.4,0.1,0.4,0.1l0.9,3.2C312.1,609.6,312,609.6,311.7,609.6z"/>
			<path id="XMLID_6251_" class="st8" d="M322.6,609.6H314c-0.2,0-0.4-0.1-0.4-0.1l-1-3.2c0-0.1,0.1-0.1,0.3-0.1h8.4
				c0.2,0,0.4,0.1,0.4,0.1l1.1,3.2C323,609.6,322.9,609.6,322.6,609.6z"/>
			<path id="XMLID_6250_" class="st8" d="M333.9,609.6h-8.6c-0.2,0-0.4-0.1-0.4-0.1l-1.2-3.2c0-0.1,0.1-0.1,0.3-0.1h8.4
				c0.2,0,0.4,0.1,0.4,0.1l1.3,3.2C334.2,609.6,334.1,609.6,333.9,609.6z"/>
			<path id="XMLID_6249_" class="st8" d="M196,605.6h-8.4c-0.2,0-0.4-0.1-0.3-0.1l1.1-3.1c0-0.1,0.2-0.1,0.4-0.1h8.2
				c0.2,0,0.4,0.1,0.3,0.1l-0.9,3.1C196.4,605.5,196.2,605.6,196,605.6z"/>
			<path id="XMLID_6248_" class="st8" d="M206.8,605.6h-8.4c-0.2,0-0.4-0.1-0.3-0.1l0.9-3.1c0-0.1,0.2-0.1,0.4-0.1h8.2
				c0.2,0,0.4,0.1,0.3,0.1l-0.7,3.1C207.2,605.5,207,605.6,206.8,605.6z"/>
			<path id="XMLID_6247_" class="st8" d="M217.8,605.6h-8.4c-0.2,0-0.4-0.1-0.3-0.1l0.7-3.1c0-0.1,0.2-0.1,0.4-0.1h8.2
				c0.2,0,0.4,0.1,0.3,0.1l-0.6,3.1C218.2,605.5,218,605.6,217.8,605.6z"/>
			<path id="XMLID_6246_" class="st8" d="M228.6,605.6h-8.4c-0.2,0-0.4-0.1-0.4-0.1l0.5-3.1c0-0.1,0.2-0.1,0.4-0.1h8.2
				c0.2,0,0.4,0.1,0.4,0.1l-0.4,3.1C229,605.5,228.8,605.6,228.6,605.6z"/>
			<path id="XMLID_6245_" class="st8" d="M239.7,605.6h-8.4c-0.2,0-0.4-0.1-0.4-0.1l0.4-3.1c0-0.1,0.2-0.1,0.4-0.1h8.2
				c0.2,0,0.4,0.1,0.4,0.1l-0.2,3.1C240.1,605.5,239.9,605.6,239.7,605.6z"/>
			<path id="XMLID_6244_" class="st8" d="M250.3,605.6h-8.4c-0.2,0-0.4-0.1-0.4-0.1l0.2-3.1c0-0.1,0.2-0.1,0.4-0.1h8.2
				c0.2,0,0.4,0.1,0.4,0.1l-0.1,3.1C250.7,605.5,250.5,605.6,250.3,605.6z"/>
			<path id="XMLID_6243_" class="st8" d="M261.4,605.6H253c-0.2,0-0.4-0.1-0.4-0.1v-3.1c0-0.1,0.2-0.1,0.4-0.1h8.2
				c0.2,0,0.4,0.1,0.4,0.1l0.1,3.1C261.8,605.5,261.6,605.6,261.4,605.6z"/>
			<path id="XMLID_6242_" class="st8" d="M272.2,605.6h-8.4c-0.2,0-0.4-0.1-0.4-0.1l-0.1-3.1c0-0.1,0.2-0.1,0.4-0.1h8.2
				c0.2,0,0.4,0.1,0.4,0.1l0.3,3.1C272.6,605.5,272.4,605.6,272.2,605.6z"/>
			<path id="XMLID_6241_" class="st8" d="M283.2,605.6h-8.4c-0.2,0-0.4-0.1-0.4-0.1l-0.3-3.1c0-0.1,0.2-0.1,0.4-0.1h8.2
				c0.2,0,0.4,0.1,0.4,0.1l0.5,3.1C283.6,605.5,283.5,605.6,283.2,605.6z"/>
			<path id="XMLID_6238_" class="st8" d="M294.3,605.6h-8.4c-0.2,0-0.4-0.1-0.4-0.1l-0.5-3.1c0-0.1,0.1-0.1,0.3-0.1h8.2
				c0.2,0,0.4,0.1,0.4,0.1l0.6,3.1C294.6,605.5,294.5,605.6,294.3,605.6z"/>
			<path id="XMLID_6067_" class="st8" d="M305.2,605.6h-8.4c-0.2,0-0.4-0.1-0.4-0.1l-0.7-3.1c0-0.1,0.1-0.1,0.3-0.1h8.2
				c0.2,0,0.4,0.1,0.4,0.1l0.8,3.1C305.6,605.5,305.4,605.6,305.2,605.6z"/>
			<path id="XMLID_6066_" class="st8" d="M315.7,605.6h-8.4c-0.2,0-0.4-0.1-0.4-0.1l-0.8-3.1c0-0.1,0.1-0.1,0.3-0.1h8.2
				c0.2,0,0.4,0.1,0.4,0.1l1,3.1C316.1,605.5,315.9,605.6,315.7,605.6z"/>
			<path id="XMLID_6065_" class="st8" d="M331.4,605.6h-12.6c-0.6,0-1.1-0.2-1.2-0.4l-0.9-2.6c-0.1-0.2,0.3-0.4,0.9-0.4h12.3
				c0.6,0,1.1,0.2,1.2,0.4l1.1,2.6C332.4,605.4,332,605.6,331.4,605.6z"/>
			<path id="XMLID_6064_" class="st8" d="M188.4,609.6h-12.8c-0.6,0-1-0.2-0.9-0.4l1.1-2.7c0.1-0.2,0.6-0.4,1.2-0.4h12.6
				c0.6,0,1,0.2,0.9,0.4l-0.9,2.7C189.5,609.4,189,609.6,188.4,609.6z"/>
		</g>
		<g id="XMLID_4135_">
			<path id="XMLID_6183_" class="st9" d="M294.7,544.1c1.5,0.8,1.1,3.4,3.1,3.7c0-0.7-0.5-0.9-0.3-1.8c-1.1-1.1-3-2.3-1.8-4.3
				c0.9,0.7,1.9,1.3,2.5,2.3c0.7-0.5,1.3-1,2-1.4c0.3-2.4-1.8-2.4-2.3-4c0.4-0.4,0.6-1.1,1.6-1c0.1,0.2,0.3,0.3,0.3,0.5
				c-0.2,0.3-0.7,0.5-0.4,1c0.4,0.2,0.7,0,1-0.2c0.1-0.6-0.3-0.6-0.2-1.2c2.3-0.6,4.5-1.4,4.4-4.3c-0.5-0.4-0.4-0.6-0.5-1.2
				c-0.6-0.4-1.1-1-1.6-1.6c0-0.6,1-0.6,0.8-1.1c-1.1-0.1-1.7,0.1-2.4-0.7c0.6-0.2,0.6-0.9,1.3-1c0.4,0,0,0.9,0.4,0.9
				c0.5-0.7,1.8-0.5,1.7,0.5c1.1,0,1.2,0.9,1.4,1.7c0.7,0.1,1.2-0.1,1.3-0.7c-0.3-1-1.2-1.3-1.8-2c0.8-0.4,0.2-1.5,1.1-1.7
				c0.2,0.1,0.3,0.3,0.7,0.2c0.7-0.5,1.2-1.9,1-3c-0.1-0.6-0.9-0.9-0.8-1.5c0.9,0.2,1.1,1.7,2,1.7c-0.1-0.3,0.1-0.4,0.1-0.7
				c-0.6-0.8-1.6-1.2-2.2-2.1c-0.3,0-0.4,0.3-0.6,0.3c-0.7-0.8-2.2-0.2-3-1c0.4-0.5,0.5-1.3,0.9-1.8c1.7-0.3,3.1,0,4.7,0
				c0.3-0.3-0.4-0.3-0.2-0.9c0.4-0.9,1.3-0.1,1.8,0.1c0.3-0.1,0.3-0.5,0.4-0.8c0.3,0.1,0.4,0.4,0.5,0.7c-0.3,0.4-0.3,1.2-0.6,1.6
				c0.7,1.5,2,2.3,3.4,3c0.2-0.5-0.3-1.4,0.1-1.8c-0.5-0.1-0.1-0.5-0.3-0.8c-0.4-0.6-1.6-0.5-1.5-1.5c0.8-0.1,1.4-0.4,2.3-0.2
				c0.5-0.5,0.9-1.3,1.8-1c0-0.8-1.2-0.4-1.3-1.1c0.8-0.9,2,0.3,3.1,0.1c0-1.1-1.3-1.3-2.3-1.1c-2.1-1-5-0.9-7.2-1.4
				c-0.2,0.1,0,0.5-0.3,0.4c-1-0.5-2.1-0.1-3.7-0.2c-1.2-1.2-4.2,0-5.5-1.2c-1,0-2.1,0-3.1,0c-0.3,0.1-0.2,0.5-0.6,0.4
				c-0.8-0.2-1.6-0.1-2.2,0.2c-0.6-0.2-1-0.8-1.5-1.1c-2.2-0.2-3.8,0.5-5.6,0c-0.5-0.1-0.6-0.7-0.9-0.9c-0.6-0.4-1.5-0.2-2.5-0.3
				c-0.3,0-0.5-0.3-0.8-0.3c-1-0.1-1.7,0.4-2.3,0.5c-1-0.3-3.1,0.1-3.4,0.9c-0.5,0-0.9,0-1.3,0.1c0,0.2,0,0.4-0.1,0.4
				c-0.8,0.2-1.5,0.1-2.2,0.5c-0.6-2-3.1,0.5-0.9,1.1c-1-0.2-1.9-0.5-3-0.5c-0.1,0.3,0.3,0.5,0,0.5c-1.9-0.2-3.3,0-4.9,0.8
				c-0.3-0.1,0.3-0.7-0.2-0.7c-0.1,0-0.3,0-0.4,0c-0.4,0.3,0.3,0.7,0,0.9c-0.8-0.1-1.3,0.2-1.4,0.8c-0.4,0-0.5-0.2-1-0.1
				c-0.1,0.3,0.6,0.3,0.2,0.4c-0.7,0-1-0.4-1.2-1c0.9-0.1,2,0.5,2.3-0.3c-0.8-1.3-3.6-0.7-4.4-1.7c-2.1-0.2-3.5,0.5-5.3,0.9
				c-0.1,0.9-1.2,1.4-1.6,2.3c-1,0-1.4,0.6-2.2,0.9c-0.3,1.9,1.2,2.1,2.3,1.3c0.3,0.4,0.7,0.7,0.8,1.3c-0.2,0.1-0.4,0.3-0.8,0.2
				c0-0.3,0-0.6-0.1-0.8c-0.5,0-0.8,0.2-1,0.5c0.1,0.4,0.3,0.6,0.2,1.2c-0.4,0.1-0.8,0.2-1.3,0.1c-0.8,0.9-1.8,2-3.1,2
				c-0.1,0.2-0.1,0.5-0.4,0.4c-0.5,0.1-0.8-0.3-0.9,0.2c0.8,0.2,2,1.4,1,2.4c-1.2,0.2-2.6-0.5-3.3,0.2c0.2,1.4-0.5,1.9-0.1,3
				c0.7-0.1,1.3,0,1.3,0.7c-0.4,1.3-2.2,1.1-2.1,2.9c-1.6,1.1-2.9,2.6-3.8,4.3c1.1,1.3-0.3,2.9,0,4.7c0.7,0.7,1.7,1.1,1.8,2.3
				c1.1,0.4,1.6,1.7,2.7,1.7c0.9,0.1,1.8-0.8,2.9-0.2c0.9-0.4,1.7-0.9,3.1-0.8c0.3,0.3,0.3,0.8,0.8,1c0.5,0.1,0.7-0.1,1.2-0.1
				c1.4,0.7,0,2,0.2,3c0.1,0.5,0.8,0.9,1.2,1.4c0.8,1.2,0.8,2.4,1.2,3.7c-0.4,1-1.3,1.9-1.1,3.3c0.1,0.8,1,1.5,1.3,2.4
				c0.2,0.8,0.1,1.8,0.4,2.5c0.4,0.8,1.3,1.5,1.4,2.4c-0.3,0.6,0,1.1,0.4,1.3c3.6-0.2,6.2-1.4,6.7-4.7c1.3-0.1,1.7-1.5,1.1-2.7
				c0.7-1.1,2.3-1.4,3-2.5c0.3-2.2-0.6-3.2-0.8-5c1.3-3.5,5.9-4.3,5.9-8.8c-1.2,0.2-4,1.4-3.8-0.4c1.7-0.2,3.7-1,4.9-2.1
				c1.7-0.3,2.2-1.6,2.9-2.8c-0.5-0.8-1.7-0.9-2.1-1.8c-0.4,0.5-0.9,1-2,0.9c-0.2-1.4-1.9-1.3-2-2.8c0.1-0.1,0.4-0.1,0.5-0.2
				c0.9,0.8,1.9,2.4,3.7,1.6c0.6,1.5,3,0.8,4.8,0.9c0.4,0.6,1,1,1.6,1.3c-0.3,0.6,0.4,0.8,0.8,1.1c0.4,0,0.4-0.4,0.9-0.3
				c0.1,1.8,1,2.8,1.4,4.3c0.8,0.5,0.6,1.9,1.5,2.3c1.2-0.6,1.4-1.9,1.2-3.6c1.1-0.7,1.7-1.9,2.9-2.5c0-0.3-0.1-0.6,0.2-0.7
				c0.8,0,1.4-0.2,2-0.4c0.4,1.3,1.9,1.5,1.8,3.3c0.6,0.3,0.8-0.4,1.3-0.4C294.4,541,295,542.4,294.7,544.1z M260,524.9
				c0.9-0.1,1,0.6,1.5,0.9c0.4,0,0.6-0.1,0.9-0.2c0.1-0.4-0.4-0.2-0.3-0.5c0.3-0.2,0.6-0.4,1.2-0.3c0.1,0.5-0.2,0.5-0.3,0.8
				c0.5,0.9,2.2,0.6,2.3,2c-1.8,0.7-3.4-1.2-4.8,0.1c-0.3,0.1-0.3-0.2-0.5-0.1c-0.5,0-0.3,0.5-0.9,0.4
				C259,527.1,259.2,525.7,260,524.9z M253.7,519.8c0.1-0.3-0.2-0.3-0.1-0.7c0.2-0.3,0.7-0.4,0.9-0.8c-0.1-0.3-0.6-0.3-0.7-0.7
				c-0.1-1.3,1.6-0.8,1.6-2c0.4,0,0.8-0.2,1,0.1c-0.1,0.6-1,0.5-1.2,1.1c-0.3,2.3,2.2,0.6,3,1.4c-0.8,0.2-2.2-0.1-2.5,0.7
				c0.1,0.2,1-0.3,0.9,0.4c-0.3,0.3-0.4-0.2-0.9-0.1c-0.4,0.2-0.5,0.6-0.4,1.2c-0.7,0.5-1.6-0.1-2.4,0.5c-0.5-0.5-1.6,0.2-1.8-0.4
				C252.2,520.7,252.9,520.2,253.7,519.8z M260.5,550.8c0.3,0.2,0.2,0.9,0.4,1.2C260.6,551.9,260.3,551.3,260.5,550.8z M261,532.3
				c-0.3,0-0.5,0.3-0.9,0.3c-1.6,0-2.9-1.4-4.4-0.8c-0.2,0.3,0,0.8-0.2,1.1c-1.7-0.4-2.8-1.4-4.4-1.7c0.3-0.5,0.4-1.2,0-1.7
				c-1.2,0.1-2.1,0.1-3.3,0.1c-1.1,0-1.5,0.7-2.4,0.9c-0.4,0.1-1.3,0.2-1.6-0.3c0.7-0.5,2-0.4,2.5-1.1c-0.3-1.4,1.5-1.4,1.7-2.6
				c1.1,0.4,1.7,0,2.4-0.5c0.9,1.1,2.3,1.6,3.3,2.5c0.1,0.3-0.1,0.4-0.1,0.7c0.5,0.1,0.8-0.6,0.4-0.9c0-0.3,0.4-0.2,0.7-0.2
				c-0.8-0.9-2.4-1-2.6-2.5c1.1,0.1,1.9,1.4,3.1,1.7c0,1.3,1,1.6,1.3,2.6c0.1,0,0.2,0,0.3,0c0.3-0.1,0.4-0.6,0.8-0.7
				c0.1-0.7-0.8-0.4-0.7-1.1c0.5,0.1,0.7-0.6,1.1-0.3c0.6,0.8,0.6,2.3,2.1,2.3c0.5,0.1,0.4-0.4,0.9-0.3c0.2,0.2,0.4,0.3,0.7,0.4
				c0.5,0,0.7-0.4,1.3-0.3c0.5,0.9-0.1,1.9-0.4,2.7C261.8,532.7,261.5,532.2,261,532.3z M261.7,549.5c-0.1-0.9,0.2-1.3,1.1-1.2
				C263,548.9,262.5,549.9,261.7,549.5z M263,554.8c-0.4-0.1-0.1-0.4-0.1-0.8C263.3,554,263.1,554.8,263,554.8z M264.2,538.5
				c-0.1-1.9-1.7-2.7-1.8-4.2c0.2,0,0.4,0,0.5,0c0.7,0.9,1.6,1.7,2,3c0.4,0.9,2,1.7,1.6,2.7c0.5,0.4,0.7,1.1,0.9,1.8
				C265.9,541.1,265.2,539.7,264.2,538.5z M271.2,529.6c-0.8,0.5-1.8-0.1-2.3-0.7c0-0.4,0.1-0.7,0.3-0.9c-0.5-0.8-1.3-1.3-1.7-2.3
				c0.4-0.7,1.1-1.2,2.4-1.1c0,0.3,0.2,0.3,0.1,0.7c-0.5,0-0.8,0.1-1,0.4c0.5,0.9,1.3,1.3,2.1,1.7c0.1,0.4-0.3,0.2-0.5,0.2
				C270.5,528.5,271.5,528.8,271.2,529.6z M273.3,526c-0.4,0-0.6-0.2-0.5-0.7C273.3,525.2,273.5,525.7,273.3,526z M273.9,515.2
				c0.6-0.9-0.7-1-0.6-1.8c0.5,0.3,0.8,0.9,1.3,1.2C274.6,515.1,274.4,515.3,273.9,515.2z M279.5,525.1c-0.1,0-0.1-0.2-0.1-0.3
				c0.2,0,0.2,0.1,0.2,0.2C279.5,525,279.5,525.1,279.5,525.1z M284.6,512.3c0.2-0.2,0.4-0.3,0.7-0.3
				C285.2,512.2,284.9,512.3,284.6,512.3z M292.5,521.5c-0.4,0.1-0.5,0.5-1,0.7c0.3-0.5,0.8-0.9,0.5-1.6
				C292.5,520.6,292.5,521.1,292.5,521.5z"/>
			<path id="XMLID_6123_" class="st9" d="M233.2,550.9c-1.8-0.4-2.2-1.6-4.4-1.3c-0.4-1.3-2.3-0.6-2.8-1.6c0.2-0.6-0.6-1-0.5-1.7
				c-0.6-1.1-2-0.6-2.9-1c-0.8-0.3-0.8-1.4-1.7-1.4c-0.1-0.3-0.2-0.6-0.3-0.9c-0.4,0.5-0.5-0.2-1.1-0.1c-1,0.5-2.1,0-3-0.5
				c-0.4,0-0.4,0.4-0.9,0.3c0-0.3,0.3-0.6-0.1-0.7c-0.4,0.5-1,0.6-1.7,0.8c-0.4,0.4-0.4,1.1-1,1.2c-0.5-0.5-1.5-0.5-2.2-0.1
				c-0.5-0.2-0.9-0.7-1.1-1.2c0.2-0.7,0.3-1.3,0.4-2.1c-0.5-0.7-1.6-0.1-2.5-0.4c0.3-0.9,0.9-1.5,1-2.6c-0.3-0.4-1-0.1-1.4,0
				c-0.3,1-1.1,1.5-2.6,1.4c-1.6-1-0.6-3-0.2-4.6c1-0.7,2.2-1.6,3.7-0.9c0.8-0.9,2.8-0.7,3.5,0c0,0.4,0,0.6-0.1,0.9
				c0.3,0.3,0.7,0.4,1.3,0.4c0-0.8-0.2-1.4-0.2-2.2c0.9-1.1,2.3-1.7,3.6-2.4c0-0.4,0-0.8,0-1.2c0.2,0,0.4,0,0.5,0
				c0.6-1,1.6-1.6,2.9-1.8c0-1.5,1.7-1.3,2.7-1.7c-0.1,0.2-0.5,0.4-0.2,0.8c0.8-0.7,2.6-0.5,3-1.5c-0.6-0.2-1.3,0.8-1.8,0
				c-0.1-0.7,0.4-0.7,0.5-1.2c-0.3-0.4-0.7,0-1-0.2c0.4-1,1.5-0.1,2,0.2c0.4-0.3-0.5-0.4-0.2-0.5c1.2,0.1,2-0.5,2.8-0.5
				c-0.4,0.6-1.4,1.1-1.4,1.7c1.1-0.1,1.7,0.2,2.5,0.4c0.2-0.4-0.1-0.7,0-1.3c-0.1-0.2-0.8,0-0.8-0.3c0.2-0.6,0.6-0.9,0.6-1.6
				c-0.3-0.5-0.7-0.9-1.3-1.1c-0.2-0.7,0-1.8-0.5-2.2c-0.7,0.1-0.8,0.8-1.6,0.9c-0.2-0.1-0.4-0.2-0.4-0.5c-0.1-0.3,0.3-0.2,0.2-0.6
				c-0.5-0.1-0.7-0.5-1-0.8c-0.5,0.3-1.1,0-1.7,0c-1.3,1-0.3,4-3.1,3.7c-0.3,0.6-0.3,1.6-1.2,1.6c-0.6-0.6,0-1.2,0.2-1.8
				c-1.6,0.1-1.9-1-3.4-1c0.2-0.6,0-0.5-0.2-1c1.2-1.5,3.5-1.8,5.4-2.6c-0.1,0.3-0.7,0.4-0.4,0.8c0.7,0.1,1.5-0.3,2.2-0.1
				c0.1-0.7-1.1-0.8-1-1.2c1.1,0.4,2.2-0.6,2.7-1.5c0.6,0,1.1,0,1.5-0.1c0.4,0.3,0.7,0.7,1.1,1c-0.5,1-2.2,0.7-3,1.4
				c0.4,0.3,0.9-0.1,1.4,0c0.6,0.6,1.2,1.2,2.4,1.2c0.2-0.3-0.4-0.4-0.1-0.5c0.6,0.2,1,0.2,1.2-0.4c0-0.5-0.5-0.3-0.4-0.9
				c0.5-0.4,0.6,0.4,1.1,0.4c0.5-0.2,1.1-0.3,1.2-0.9c-0.3-0.5-1.1-0.4-1.4-0.9c-0.1-0.4,0.2-0.4,0.1-0.8c-0.7-0.4-1.7-0.4-2-1.2
				c-2.2,0.1-5-0.5-5.1,1.3c0.1,0.3,0.8-0.1,0.7,0.4c-0.3,0.4-0.8,0.7-1.4,0.9c-0.3-0.3,0.2-0.2,0.1-0.7c-0.2-0.1-0.7-0.1-0.6-0.5
				c0.1-0.2,0.1-0.7,0.2-0.9c0.5-0.3,1.5,0,1.6-0.7c-1.1-0.7-1.7,0.5-2.5,0.8c0-0.3,0.4-0.3,0.3-0.8c-0.8-0.2-1.7,0.3-2.2,0.5
				c0.2,0.5,0.8,0.5,1.2,0.5c-0.3,0.3-0.4,0.6-0.2,1.1c-0.2,0.2-0.4,0.3-0.8,0.3c-0.1-0.4,0.5-0.2,0.3-0.7c-0.7-0.4-1.2,0.2-1.4,0.7
				c-0.8-0.1-2.1,0.3-2.3-0.4c0.9,0.2,1.5,0,2.2-0.3c0.1-0.4-0.5-0.3-0.4-0.7c0.1-0.5,0.7-0.5,0.9-1c-0.6-0.4-1.2,0.5-1.7,0.5
				c-0.6,0-1.7-0.7-2-0.8c-1.7-0.5-3.3,0-4,1.1c0.4,0.5,1.3-0.4,1.8,0c-0.2,0.4-0.2,0.8-0.5,1.1c-1-0.4-2.6-0.1-3.5-0.7
				c-1,0.4-2.7,0.4-4,0.7c-3.4-1.2-7.8-1-11.1,0.2c0,0.3,0.3,0.8,0,1c-0.9-0.2-2.3-0.2-2.6,0.5c0.2,0.6,1.2-0.1,1.5,0.4
				c-1.1,0.4-2.8,0.3-3.5,1.1c1.7,1.3,5,1.4,6.8,0.4c0.7,0.6,2.6,0.1,2.7,1.4c-0.4,0.3,0,0.8-0.3,1.2c0.3,0.3,0.8-0.3,0.9,0.2
				c-0.4,0.6,0,2-0.7,2.3c0.2,0.3,0.5,0.4,0.5,0.9c-0.9,2.2-3.5,3.2-2.6,6.7c1.5,0.2,1,2.3,1.7,3.3c0,0.3-0.3,0.3-0.3,0.5
				c0.2,0.4,0.6,0.4,0.9,0.7c-0.1,0.9,0.6,1.5,1.1,1.4c-0.5-1.3-1-2.5-1.4-3.8c0.2-0.1,0.2-0.4,0.5-0.3c0.4,0.2,0.3,0.6,0.2,1.1
				c0.8,1.4,1.9,2.5,2.5,4c0,0.4-0.3,0.4-0.2,0.9c1.3,1,3,2.4,5.1,1.8c0.6,0.2,0.7,0.9,1.4,1.2c1,0.5,2.6,0.2,2.5,1.8
				c0.9,0.5,1.6,1.2,2.6,1.5c0.2-0.4,0.2-0.9,0.8-0.9c0.5,0.6,0.8,1.5,0.7,2.7c-0.6,0.9-1.6,1.3-1.7,2.7c-0.1,0.4,0.4,0.3,0.3,0.7
				c-0.1,0.4-0.6,0.3-0.5,0.9c1.1,1.7,2.2,3.2,3,5.1c1.1,1.1,2.4,0.6,3,2c0.8,1.6-0.1,4.1,0.4,6.3c0.2,0.9,0.5,2.3,0.1,3.4
				c0.7,0.6,0.2,2.4,1.1,2.8c0.1-0.2-0.1-0.6,0.1-0.7c0.2,0.2,0.3,0.5,0.2,1c0,0.2-0.4,0.1-0.4,0.2c0.2,0.4,0.2,0.5,0.1,1.1
				c0.1,0.2,0.5,0.1,0.5,0.4c-0.1,0.1-0.1,0.4-0.2,0.5c0.3,0.6,0.9,0.9,1.1,1.6c0.5,0.2,0.9,0.6,1.2,1c1,0.2,2.6,1.5,3.6,0.4
				c-0.9-0.6-2-0.9-2.4-2.1c0.4-0.4,0.5-1,0.8-1.5c-0.2-0.4-1-0.2-1.1-0.8c0.5-0.4,0.6-1.2,0.9-1.8c-0.4-0.1-0.7-0.2-0.8-0.5
				c0.4,0,0.9,0.1,1.1-0.1c0-0.3-0.1-0.8,0.1-1c2.2,0.3,2.1-1.6,1.2-2.3c0.5,0,0.8,0.3,1.4,0.2c0.8-0.2,0.6-1.2,1.1-2
				c0.5-0.9,1.7-1.3,1.1-2.8c0.7-0.8,1.6-1.2,2.9-1.3c0.9-1.2,1.5-2.8,1.2-4.8C232.3,554,234.4,552.8,233.2,550.9z M216.8,526.1
				c0,0.5-0.8,0.3-1.1,0.2C215.9,526,216.4,526.1,216.8,526.1z M225.9,515.2c0,0.1-0.1,0.1-0.2,0.1
				C225.7,515.3,225.8,515.3,225.9,515.2z M211.5,527.1c0.3-1,0.7-1.9,2-2C212.5,525.4,212.6,526.8,211.5,527.1z M213.4,527.2
				c0.3-0.3,1-0.3,1.5-0.4C214.7,527.1,214,527.5,213.4,527.2z M214.1,525.1c0.5-0.2,1,0.1,1.4,0.1c0,0.1,0,0.3,0,0.4
				c-0.8-0.2-0.9,0.4-1.2,0.8C213.8,526.3,214.1,525.4,214.1,525.1z M214,524.6c-1,0.5-1.8-0.3-2.7,0
				C211.8,524.1,213.9,523,214,524.6z M210.4,514.4c0.5-0.1,1.3,0.2,2,0.2c-0.3,0.2-1.4,0.1-2,0.1
				C210.4,514.6,210.4,514.5,210.4,514.4z M210.3,521.3c0,0.4,0,0.8-0.4,0.8C209.6,521.8,209.7,521.2,210.3,521.3z M206.3,517.9
				c0.4-0.3,0.9-0.9,1.4-0.4C207.4,517.7,206.9,517.8,206.3,517.9z M207.6,515.7c-0.7-0.1-1,0.3-1.6,0.2
				C205.9,515.2,207.5,514.9,207.6,515.7z M215.4,543.7c-0.2,0-0.2-0.2-0.2-0.4C215.5,543.2,215.6,543.5,215.4,543.7z"/>
			<path id="XMLID_6099_" class="st9" d="M265.2,514.4c0-0.1,0-0.2,0-0.3c-0.2,0-0.4,0-0.4,0.2C264.9,514.3,265,514.4,265.2,514.4z"
				/>
			<path id="XMLID_6094_" class="st9" d="M224.5,514.7c-0.1-0.4-0.9-0.2-0.8,0.3C224.1,515,224.5,515.1,224.5,514.7z"/>
			<path id="XMLID_6007_" class="st9" d="M219.4,517c0,0.1,0,0.2,0,0.3c0.3,0,0.6,0,0.5-0.3C219.8,516.8,219.6,516.8,219.4,517z"/>
			<path id="XMLID_6006_" class="st9" d="M245.2,521.4c-1,0.3-0.4,1.1-0.7,1.5c0.9-0.4,2.8,0.2,2.7-1.2c-0.7-0.4-1.1-1.1-1.6-1.7
				c0.1-0.2,0.3-0.3,0.3-0.5c-0.6,0-0.3-0.5-0.7-0.7c-0.7,0.2-1.4,0.4-1.2,1.4C244.4,520.7,245.3,520.6,245.2,521.4z"/>
			<path id="XMLID_6005_" class="st9" d="M244,521.9c-0.1-0.6,0.2-0.8,0.3-1.1c-0.7-0.7-1.3,0.1-2,0.3c0.2,0.6-0.1,0.7-0.2,1.1
				C242.8,522.5,243.5,522,244,521.9z"/>
			<path id="XMLID_6004_" class="st9" d="M196.1,521.1c-0.3-0.1-0.4,0.1-0.5,0.3C195.7,521.6,196.2,521.5,196.1,521.1z"/>
			<path id="XMLID_6003_" class="st9" d="M309,524.1c0,0.4,0.2,0.8,0.7,0.8C309.7,524.4,309.4,524.2,309,524.1z"/>
			<path id="XMLID_6002_" class="st9" d="M310.5,527.3c-0.1-0.7,0.5-0.3,0.9-0.3c0.3-0.1,0.2-0.5,0.7-0.4c-0.3-0.7-1.6-0.6-2.2-1.1
				c0.2,0.6,0.2,1-0.1,1.4C310,527.1,310.1,527.3,310.5,527.3z"/>
			<path id="XMLID_6001_" class="st9" d="M250.4,527.3c0-0.2,0.3-0.2,0.2-0.5c-0.2,0-0.3,0-0.4,0.1
				C250.2,527.1,250.2,527.3,250.4,527.3z"/>
			<path id="XMLID_6000_" class="st9" d="M310.4,527.5c0.8,1.1,0.2,2.1-0.6,2.7c-1-0.1-1.9,0.5-2.3,1.3c0.4,0.3,0.5,0.9,1.1,1
				c0.2-0.8,1-1.4,1.8-1.2c0.2-0.7,1.3-0.5,1.7-0.9C311.8,529.2,311.9,527.4,310.4,527.5z"/>
			<path id="XMLID_5999_" class="st9" d="M250.1,528.6c0.7,0.2,0.7-0.6,0.5-1.1C249.9,527.3,249.9,528.2,250.1,528.6z"/>
			<path id="XMLID_5998_" class="st9" d="M253.4,529c-0.4,0.1-1.2-0.2-1.3,0.2c0.3,0.2,0.6,0.4,1.2,0.4
				C253.2,529.3,253.4,529.4,253.4,529z"/>
			<path id="XMLID_5735_" class="st9" d="M261.4,530.7c0.2,0.2,0.7,0.2,0.7-0.2C261.8,530.4,261.4,530.4,261.4,530.7z"/>
			<path id="XMLID_4236_" class="st9" d="M285.7,543.5c-0.1,0.5-0.2,1.5,0.1,1.8c0.4,0.2,0.6-0.1,0.9-0.3
				C286.5,544.3,286.3,543.7,285.7,543.5z"/>
			<path id="XMLID_4234_" class="st9" d="M305.1,545.6c-0.5-0.2-0.5-0.9-1.1-1c-0.6,1.3-2,1.9-2.9,2.8c-0.3,0.1-0.3-0.2-0.7-0.1
				c-0.7,0.9,0.4,1.6,0.4,2.5c1.1,0.1,2,0.7,3,0.3c0.2-1,0.5-1.8,1.2-2.3C304.6,547.2,304.6,546.3,305.1,545.6z"/>
			<path id="XMLID_4230_" class="st9" d="M299,549.5c-0.1,0-0.1-0.1-0.1-0.2c-0.2-0.2-0.5,0-0.7,0.1c-0.2-0.5-0.8-0.5-0.7-1.3
				c-1.5-0.7-2.4-2.2-4.2-2.6c0,0.1,0,0.3,0,0.4c2.1,1.3,2.5,4.4,4.9,5.4c0-0.1,0.2-0.1,0.3-0.1C298.7,550.6,298.8,550,299,549.5z"
				/>
			<path id="XMLID_4228_" class="st9" d="M307.9,547.9c-0.7-0.1-2.4-0.4-2.1,0.4C306.5,547.9,307.8,548.7,307.9,547.9z"/>
			<path id="XMLID_4225_" class="st9" d="M313.3,550c-0.3-0.5-1.4-2.5-1.8-0.9c0.2,0.4,0.5,0.5,0.5,1.1c1.1,0.3,2.4,0.5,2.8,1.6
				c-0.1,0.4-0.6,0.3-0.5,0.9c0.9-0.4,1.3,0.3,1.7,0.4c1.2,0.4,1-0.7,1.7-0.8c0.8-0.1,1,0.6,1.3,1.2c0.5,0.1,1,0.2,1.5,0.3
				c-0.1-0.9-1-1.1-1.4-1.7c-0.1-0.3,0.3-0.2,0.2-0.7c-0.5-0.2-0.9-0.6-1.2-1.1C316.6,550.1,314.6,548.4,313.3,550z"/>
			<path id="XMLID_4223_" class="st9" d="M307.3,551.2c0.1-0.9-0.4-1.2-0.5-1.8c0.4-0.1,0.6-0.3,0.7-0.7c-0.9,0.1-1.1,0.4-1.8,0
				c0,0.5-0.3,0.9-0.4,1.3c0.5,0.1,0.1,1.1,0.5,1.3c0.4-0.2,0.1-1.1,0.5-1.3C306.4,550.5,306.5,551.2,307.3,551.2z"/>
			<path id="XMLID_4204_" class="st9" d="M299.4,550.4c0.7,0.1,1-0.2,0.9-0.9C299.6,548.9,298.8,549.8,299.4,550.4z"/>
			<path id="XMLID_4202_" class="st9" d="M321.3,551c-0.2-0.1-1.1,0-1.4,0.1C320,551.8,321.3,551.9,321.3,551z"/>
			<path id="XMLID_4200_" class="st9" d="M303.3,552.6c-1.3-0.8-3.3-1.2-4.8-1C299.3,552.6,301.9,552.9,303.3,552.6z"/>
			<path id="XMLID_4168_" class="st9" d="M303.6,552.8c0.3,0.3,1.2,0.2,1.5-0.1C304.8,552.5,303.7,552.4,303.6,552.8z"/>
			<path id="XMLID_4163_" class="st9" d="M306.3,552.9c0.2-0.4-0.7-0.5-0.7-0.1C305.7,553,306.1,552.8,306.3,552.9z"/>
			<path id="XMLID_4161_" class="st9" d="M309,552.7c-0.7-0.2-1.5,0.3-1.7,0.9C307.8,553.6,308.5,553,309,552.7z"/>
			<path id="XMLID_4153_" class="st9" d="M305.2,553.1c-0.1,0.4,0.6,0.6,0.7,0.2C305.7,553.2,305.6,553,305.2,553.1z"/>
			<path id="XMLID_4148_" class="st9" d="M318.9,558.6c-0.3-0.4-0.8-0.4-1-0.9s-0.1-1.3-0.2-2c-0.9-0.1-0.5-1.1-0.9-1.8
				c-0.1,0-0.2,0-0.3,0c-0.7,0.9-0.4,2.9-1.5,3.4c-0.7-0.5-1.5-0.8-2-1.5c0.4-0.3,0.8-0.9,0.6-1.4c-0.8,0.3-1.4-0.1-2.1-0.3
				c-0.2,0,0,0.6-0.3,0.5c-1-0.4-1,1.1-1.7,1.3c-0.3-0.2-0.5-0.5-1-0.5c-1.1,0.1-1,1.5-2.3,1.4c-0.4,2.3-3.7,1.6-4.9,3
				c-1,1.8,0.5,4.4-1,6c1.1,1.2,2.4-0.8,4-0.1c1.1-0.9,3.7-1.7,5.2-0.9c0,0.5,0.4,0.6,0.3,1.2c0.5,0,0.6-0.5,1.1-0.5
				c0,1,0.6,1.1,0.3,2.1c0.8,0.8,1.8,0.1,2.6,0.7c0.5-0.4,1.1-0.6,2-0.7c1.3-2.2,4.2-2.9,4.3-6.3c-0.3-0.6-0.9-1.1-1.2-1.7
				C319,559.3,319.1,558.9,318.9,558.6z"/>
			<path id="XMLID_4146_" class="st9" d="M310.5,554.3c0.1,0,0.2,0.2,0.4,0.1c0-0.1,0-0.2,0-0.3
				C310.7,554.1,310.6,554.1,310.5,554.3z"/>
			<path id="XMLID_4144_" class="st9" d="M269,556.1c-0.4,0.3-1,0.3-1.3,0.7c-0.3,0.4,0.1,1.1,0,1.6c-0.2,0.9-1.1,1.7-0.2,2.8
				c0.5,0.2,1,0,1.4-0.1c0.4-2.1,2.7-4.5,1.4-6.5C269.8,555.1,269.6,555.7,269,556.1z"/>
			<path id="XMLID_4142_" class="st9" d="M328.4,567.6c-0.3-0.5-0.4-1-0.4-1.5c-0.1,0-0.2,0-0.3,0c-0.1,1-0.2,1.9-1.1,2.2
				c0.3,0.6-0.2,0.6-0.3,1.1c1-0.2,2.1-1.1,2.8-1.8C328.7,567.5,328.7,567.6,328.4,567.6z"/>
			<path id="XMLID_4140_" class="st9" d="M312.3,570.5c1,0,1.6-0.5,1.7-1.3C312.7,568.9,312,569.3,312.3,570.5z"/>
			<path id="XMLID_4138_" class="st9" d="M325.1,569.1c-1,1.4-3.5,1.3-4.4,2.7c1.2,0.7,2.2-0.5,2.9-1c1-0.3,1.9-0.7,2.3-1.6
				C325.6,569.1,325.4,569,325.1,569.1z"/>
		</g>
		<polygon id="XMLID_1_" class="st11" points="335.9,586.1 173.9,586.1 335.9,490 		"/>
		<g id="XMLID_171_">
			<path id="XMLID_570_" class="st12" d="M227.2,431.4l1,0.3c-0.2,0.9-0.6,1.6-1.2,2.1c-0.6,0.5-1.4,0.7-2.2,0.7
				c-0.8,0-1.6-0.2-2.2-0.5c-0.5-0.3-0.9-0.8-1.2-1.6c-0.3-0.7-0.4-1.5-0.4-2.2c0-0.8,0.2-1.6,0.5-2.2c0.3-0.6,0.8-1.1,1.4-1.5
				c0.6-0.3,1.2-0.5,2-0.5c0.8,0,1.6,0.2,2.1,0.6c0.5,0.4,0.9,1,1.1,1.8l-1,0.2c-0.2-0.6-0.4-1-0.8-1.4c-0.4-0.3-0.8-0.4-1.4-0.4
				c-0.6,0-1.1,0.1-1.6,0.4c-0.4,0.3-0.7,0.7-0.9,1.2c-0.2,0.5-0.2,1-0.2,1.6c0,0.7,0.1,1.4,0.3,1.9s0.5,0.9,0.9,1.1
				c0.4,0.2,0.9,0.4,1.4,0.4c0.6,0,1.1-0.2,1.6-0.5C226.7,432.6,227,432.1,227.2,431.4z"/>
			<path id="XMLID_649_" class="st12" d="M229.4,434.2V426h1v8.2H229.4z"/>
			<path id="XMLID_652_" class="st12" d="M232,427.3V426h1v1.1h-1V427.3z M232,434.2v-5.9h1v5.9H232z"/>
			<path id="XMLID_6478_" class="st12" d="M238.5,432.1l1,0.1c-0.1,0.7-0.4,1.2-0.8,1.6c-0.4,0.4-1,0.6-1.7,0.6
				c-0.8,0-1.5-0.3-2-0.8c-0.5-0.5-0.7-1.2-0.7-2.3c0-0.6,0.1-1.2,0.3-1.7c0.2-0.5,0.5-0.8,0.9-1c0.4-0.2,0.9-0.3,1.5-0.3
				c0.6,0,1.1,0.2,1.6,0.5c0.4,0.3,0.6,0.8,0.8,1.4l-0.9,0.1c-0.1-0.4-0.2-0.7-0.5-0.9c-0.3-0.2-0.5-0.3-0.8-0.3
				c-0.5,0-0.9,0.2-1.2,0.5c-0.3,0.3-0.5,0.9-0.5,1.8s0.1,1.4,0.4,1.8c0.3,0.3,0.7,0.5,1.2,0.5c0.4,0,0.7-0.1,1-0.3
				C238.2,433,238.4,432.6,238.5,432.1z"/>
			<path id="XMLID_7520_" class="st12" d="M243.1,432.5l1-0.2c0.1,0.4,0.2,0.7,0.4,0.9c0.2,0.2,0.6,0.3,1,0.3c0.4,0,0.8-0.1,1-0.3
				c0.2-0.2,0.3-0.4,0.3-0.6c0-0.2-0.1-0.4-0.3-0.5c-0.1-0.1-0.5-0.2-1-0.3c-0.7-0.2-1.2-0.3-1.6-0.5c-0.3-0.1-0.5-0.3-0.6-0.5
				s-0.2-0.5-0.2-0.8s0.1-0.5,0.2-0.7c0.1-0.2,0.3-0.4,0.5-0.5c0.2-0.1,0.4-0.2,0.6-0.3c0.2-0.1,0.5-0.1,0.8-0.1
				c0.4,0,0.8,0.1,1.2,0.2c0.3,0.1,0.6,0.3,0.7,0.5c0.2,0.2,0.3,0.5,0.3,0.9l-0.9,0.1c0-0.3-0.2-0.5-0.4-0.7
				c-0.2-0.2-0.5-0.2-0.9-0.2s-0.8,0.1-1,0.2c-0.2,0.1-0.3,0.3-0.3,0.5c0,0.1,0,0.2,0.1,0.3c0.1,0.1,0.2,0.2,0.4,0.3
				c0.1,0,0.4,0.1,0.9,0.2c0.7,0.2,1.2,0.3,1.5,0.4s0.5,0.3,0.6,0.5c0.1,0.2,0.2,0.5,0.2,0.8c0,0.3-0.1,0.6-0.3,0.9
				c-0.2,0.3-0.5,0.5-0.8,0.7c-0.4,0.2-0.8,0.2-1.2,0.2c-0.7,0-1.4-0.2-1.8-0.5C243.2,433.4,243.2,433.1,243.1,432.5z"/>
			<path id="XMLID_7537_" class="st12" d="M248.8,431.3c0-1.1,0.3-1.9,0.9-2.4c0.5-0.4,1.1-0.6,1.9-0.6c0.8,0,1.5,0.3,2,0.8
				c0.5,0.5,0.7,1.2,0.7,2.2c0,0.7-0.1,1.4-0.3,1.8c-0.2,0.4-0.5,0.7-1,1c-0.4,0.2-0.9,0.3-1.5,0.3c-0.8,0-1.5-0.3-2-0.8
				C249.1,433.1,248.8,432.3,248.8,431.3z M249.8,431.3c0,0.7,0.2,1.4,0.5,1.7c0.3,0.3,0.7,0.5,1.2,0.5s0.9-0.2,1.2-0.5
				c0.3-0.4,0.5-0.9,0.5-1.8c0-0.7-0.2-1.2-0.5-1.7c-0.3-0.4-0.7-0.5-1.2-0.5s-0.9,0.2-1.2,0.5C250,429.9,249.8,430.5,249.8,431.3z"
				/>
			<path id="XMLID_7543_" class="st12" d="M256.5,434.2h-0.9V426h1v2.9c0.4-0.5,0.9-0.8,1.7-0.8c0.4,0,0.7,0.1,1,0.2
				s0.6,0.3,0.8,0.6c0.2,0.3,0.4,0.6,0.5,0.9c0.1,0.4,0.2,0.7,0.2,1.2c0,1-0.2,1.8-0.7,2.4c-0.5,0.5-1.1,0.8-1.8,0.8
				c-0.7,0-1.2-0.3-1.7-0.8v0.7H256.5z M256.5,431.2c0,0.7,0.1,1.2,0.3,1.6c0.3,0.5,0.7,0.7,1.2,0.7c0.4,0,0.8-0.2,1.1-0.6
				c0.3-0.4,0.5-0.9,0.5-1.7c0-0.7-0.1-1.4-0.4-1.7c-0.3-0.4-0.7-0.5-1.1-0.5c-0.4,0-0.8,0.2-1.1,0.6
				C256.6,430,256.5,430.5,256.5,431.2z"/>
			<path id="XMLID_7560_" class="st12" d="M261.9,434.2v-5.9h0.9v0.9c0.2-0.4,0.4-0.7,0.6-0.8c0.2-0.1,0.4-0.2,0.6-0.2
				c0.3,0,0.7,0.1,1,0.3l-0.3,0.9c-0.2-0.1-0.5-0.2-0.7-0.2s-0.4,0.1-0.6,0.2c-0.2,0.1-0.3,0.3-0.4,0.5c-0.1,0.3-0.2,0.7-0.2,1.1
				v3.1H261.9z"/>
			<path id="XMLID_10320_" class="st12" d="M269.8,432.4l1,0.1c-0.2,0.6-0.4,1-0.9,1.5c-0.4,0.3-1,0.5-1.7,0.5
				c-0.8,0-1.6-0.3-2.1-0.8s-0.7-1.2-0.7-2.3s0.2-1.8,0.7-2.3s1.1-0.8,2-0.8c0.8,0,1.5,0.3,2,0.8c0.5,0.5,0.7,1.4,0.7,2.3
				c0,0.1,0,0.1,0,0.3h-4.5c0,0.6,0.2,1.1,0.5,1.5c0.3,0.3,0.7,0.5,1.2,0.5c0.4,0,0.7-0.1,0.9-0.3
				C269.4,433.1,269.6,432.8,269.8,432.4z M266.5,430.7h3.3c0-0.5-0.2-0.8-0.4-1.1c-0.3-0.4-0.7-0.6-1.2-0.6c-0.4,0-0.8,0.1-1.1,0.4
				C266.7,429.8,266.5,430.2,266.5,430.7z"/>
			<path id="XMLID_10330_" class="st12" d="M279.1,432.1l1,0.1c-0.1,0.7-0.4,1.2-0.8,1.6c-0.4,0.4-1,0.6-1.7,0.6
				c-0.8,0-1.5-0.3-2-0.8c-0.5-0.5-0.7-1.2-0.7-2.3c0-0.6,0.1-1.2,0.3-1.7c0.2-0.5,0.5-0.8,0.9-1c0.4-0.2,0.9-0.3,1.5-0.3
				c0.6,0,1.1,0.2,1.6,0.5c0.4,0.3,0.6,0.8,0.8,1.4l-1,0.1c-0.1-0.4-0.2-0.7-0.5-0.9c-0.3-0.2-0.5-0.3-0.8-0.3
				c-0.5,0-0.9,0.2-1.2,0.5c-0.3,0.3-0.5,0.9-0.5,1.8s0.1,1.4,0.4,1.8c0.3,0.3,0.7,0.5,1.2,0.5c0.4,0,0.7-0.1,1-0.3
				C278.9,433,279,432.6,279.1,432.1z"/>
			<path id="XMLID_10344_" class="st12" d="M284.9,433.5c-0.4,0.3-0.7,0.5-1,0.6c-0.3,0.1-0.7,0.2-1.1,0.2c-0.6,0-1.1-0.2-1.5-0.5
				c-0.3-0.3-0.5-0.7-0.5-1.2c0-0.3,0.1-0.5,0.2-0.8c0.1-0.2,0.3-0.4,0.5-0.6s0.4-0.2,0.7-0.3c0.2,0,0.5-0.1,0.9-0.1
				c0.8-0.1,1.5-0.2,1.8-0.3c0-0.1,0-0.2,0-0.3c0-0.4-0.1-0.7-0.3-0.8c-0.2-0.2-0.6-0.3-1.1-0.3s-0.8,0.1-1,0.2s-0.4,0.4-0.5,0.8
				l-0.9-0.1c0.1-0.4,0.2-0.7,0.4-1c0.2-0.3,0.5-0.4,0.9-0.6c0.4-0.1,0.8-0.2,1.4-0.2s0.9,0.1,1.2,0.2c0.3,0.1,0.5,0.3,0.7,0.4
				c0.2,0.1,0.2,0.4,0.3,0.7c0,0.2,0,0.5,0,0.9v1.4c0,0.9,0,1.6,0.1,1.8c0.1,0.2,0.1,0.5,0.2,0.7h-1
				C285,434,284.9,433.8,284.9,433.5z M284.8,431.3c-0.4,0.1-0.9,0.3-1.7,0.4c-0.4,0.1-0.7,0.1-0.8,0.2c-0.2,0.1-0.3,0.2-0.4,0.3
				c-0.1,0.1-0.1,0.3-0.1,0.5c0,0.3,0.1,0.5,0.3,0.6c0.2,0.1,0.5,0.3,0.9,0.3c0.4,0,0.7-0.1,1-0.2c0.3-0.2,0.5-0.4,0.6-0.7
				c0.1-0.2,0.2-0.5,0.2-1v-0.4H284.8z"/>
			<path id="XMLID_10787_" class="st12" d="M291.2,434.2v-0.7c-0.4,0.6-0.9,0.8-1.7,0.8c-0.5,0-0.9-0.1-1.4-0.4
				c-0.4-0.3-0.7-0.6-0.9-1c-0.2-0.4-0.3-1-0.3-1.6c0-0.6,0.1-1.1,0.3-1.6c0.2-0.5,0.5-0.8,0.9-1.1c0.4-0.2,0.8-0.4,1.4-0.4
				c0.3,0,0.7,0.1,0.9,0.2c0.3,0.1,0.5,0.3,0.7,0.6v-3h1v8.2H291.2z M288,431.3c0,0.7,0.2,1.4,0.5,1.7c0.3,0.4,0.7,0.5,1.1,0.5
				c0.4,0,0.8-0.2,1.1-0.5c0.3-0.3,0.4-0.9,0.4-1.7c0-0.8-0.2-1.5-0.5-1.8c-0.3-0.3-0.7-0.5-1.1-0.5s-0.8,0.2-1.1,0.5
				C288.2,430,288,430.5,288,431.3z"/>
			<path id="XMLID_10801_" class="st12" d="M297.5,433.5c-0.4,0.3-0.7,0.5-1,0.6c-0.3,0.1-0.7,0.2-1.1,0.2c-0.6,0-1.1-0.2-1.5-0.5
				c-0.3-0.3-0.5-0.7-0.5-1.2c0-0.3,0.1-0.5,0.2-0.8c0.1-0.2,0.3-0.4,0.5-0.6s0.4-0.2,0.7-0.3c0.2,0,0.5-0.1,0.9-0.1
				c0.8-0.1,1.5-0.2,1.8-0.3c0-0.1,0-0.2,0-0.3c0-0.4-0.1-0.7-0.3-0.8c-0.2-0.2-0.6-0.3-1.1-0.3s-0.8,0.1-1,0.2s-0.4,0.4-0.5,0.8
				l-0.9-0.1c0.1-0.4,0.2-0.7,0.4-1c0.2-0.3,0.5-0.4,0.9-0.6c0.4-0.1,0.8-0.2,1.4-0.2s0.9,0.1,1.2,0.2c0.3,0.1,0.5,0.3,0.7,0.4
				c0.2,0.1,0.2,0.4,0.3,0.7c0,0.2,0,0.5,0,0.9v1.4c0,0.9,0,1.6,0.1,1.8c0.1,0.2,0.1,0.5,0.2,0.7h-1
				C297.7,434,297.5,433.8,297.5,433.5z M297.4,431.3c-0.4,0.1-0.9,0.3-1.7,0.4c-0.4,0.1-0.7,0.1-0.8,0.2c-0.2,0.1-0.3,0.2-0.4,0.3
				c-0.1,0.1-0.1,0.3-0.1,0.5c0,0.3,0.1,0.5,0.3,0.6c0.2,0.1,0.5,0.3,0.9,0.3s0.7-0.1,1-0.2c0.3-0.2,0.5-0.4,0.6-0.7
				c0.1-0.2,0.2-0.5,0.2-1v-0.4H297.4z"/>
			<path id="XMLID_13163_" class="st12" d="M304.2,434.2h-0.9V426h1v2.9c0.4-0.5,0.9-0.8,1.7-0.8c0.4,0,0.7,0.1,1,0.2
				c0.3,0.1,0.6,0.3,0.8,0.6s0.4,0.6,0.5,0.9c0.1,0.4,0.2,0.7,0.2,1.2c0,1-0.2,1.8-0.7,2.4c-0.5,0.5-1.1,0.8-1.8,0.8
				c-0.7,0-1.2-0.3-1.7-0.8v0.7H304.2z M304.1,431.2c0,0.7,0.1,1.2,0.3,1.6c0.3,0.5,0.7,0.7,1.2,0.7c0.4,0,0.8-0.2,1.1-0.6
				c0.3-0.4,0.5-0.9,0.5-1.7c0-0.7-0.1-1.4-0.4-1.7c-0.3-0.4-0.7-0.5-1.1-0.5c-0.4,0-0.8,0.2-1.1,0.6
				C304.3,430,304.1,430.5,304.1,431.2z"/>
			<path id="XMLID_13254_" class="st12" d="M309.2,431.3c0-1.1,0.3-1.9,0.9-2.4c0.5-0.4,1.1-0.6,1.9-0.6c0.8,0,1.5,0.3,2,0.8
				s0.7,1.2,0.7,2.2c0,0.7-0.1,1.4-0.3,1.8c-0.2,0.4-0.5,0.7-1,1c-0.4,0.2-0.9,0.3-1.5,0.3c-0.8,0-1.5-0.3-2-0.8
				C309.5,433.1,309.2,432.3,309.2,431.3z M310.2,431.3c0,0.7,0.2,1.4,0.5,1.7s0.7,0.5,1.2,0.5s0.9-0.2,1.2-0.5
				c0.3-0.4,0.5-0.9,0.5-1.8c0-0.7-0.2-1.2-0.5-1.7c-0.3-0.4-0.7-0.5-1.2-0.5s-0.9,0.2-1.2,0.5C310.4,429.9,310.2,430.5,310.2,431.3
				z"/>
			<path id="XMLID_13257_" class="st12" d="M318.1,433.4l0.1,0.9c-0.3,0.1-0.5,0.1-0.7,0.1c-0.4,0-0.6-0.1-0.8-0.2
				c-0.2-0.1-0.3-0.3-0.4-0.4c-0.1-0.1-0.1-0.6-0.1-1.1v-3.5h-0.7v-0.8h0.7v-1.5l1-0.6v2.1h1v0.8h-1v3.4c0,0.3,0,0.5,0.1,0.5
				c0.1,0,0.1,0.1,0.2,0.2c0.1,0,0.2,0.1,0.3,0.1C317.8,433.4,317.9,433.4,318.1,433.4z"/>
			<path id="XMLID_13259_" class="st12" d="M318.8,431.3c0-1.1,0.3-1.9,0.9-2.4c0.5-0.4,1.1-0.6,1.9-0.6c0.8,0,1.5,0.3,2,0.8
				s0.7,1.2,0.7,2.2c0,0.7-0.1,1.4-0.3,1.8c-0.2,0.4-0.5,0.7-1,1c-0.4,0.2-0.9,0.3-1.5,0.3c-0.8,0-1.5-0.3-2-0.8
				C319,433.1,318.8,432.3,318.8,431.3z M319.8,431.3c0,0.7,0.2,1.4,0.5,1.7s0.7,0.5,1.2,0.5s0.9-0.2,1.2-0.5
				c0.3-0.4,0.5-0.9,0.5-1.8c0-0.7-0.2-1.2-0.5-1.7c-0.3-0.4-0.7-0.5-1.2-0.5s-0.9,0.2-1.2,0.5C320,429.9,319.8,430.5,319.8,431.3z
				 M320.9,427.6l0.7-1.6h1.4l-1.2,1.6H320.9z"/>
			<path id="XMLID_13263_" class="st12" d="M325.5,434.2v-5.9h0.9v0.8c0.4-0.6,1-0.9,1.9-0.9c0.3,0,0.7,0.1,0.9,0.2
				c0.3,0.1,0.5,0.3,0.6,0.5c0.1,0.2,0.2,0.4,0.3,0.7c0,0.2,0.1,0.5,0.1,0.9v3.6h-1v-3.6c0-0.4,0-0.7-0.1-0.9
				c-0.1-0.2-0.2-0.4-0.4-0.5c-0.2-0.1-0.4-0.2-0.7-0.2c-0.4,0-0.8,0.1-1.1,0.4c-0.3,0.3-0.4,0.8-0.4,1.6v3.2h-0.9V434.2z"/>
			<path id="XMLID_13265_" class="st12" d="M221.5,451.1v-8.2h0.9v0.7c0.2-0.3,0.4-0.5,0.7-0.7c0.3-0.1,0.6-0.2,1-0.2
				c0.5,0,0.9,0.1,1.4,0.4c0.4,0.3,0.7,0.6,0.8,1.1c0.2,0.5,0.3,1,0.3,1.6c0,0.6-0.1,1.1-0.3,1.7s-0.5,0.8-0.9,1.1
				c-0.4,0.3-0.8,0.4-1.4,0.4c-0.3,0-0.6-0.1-0.9-0.2c-0.3-0.1-0.5-0.3-0.6-0.5v2.9h-1V451.1z M222.5,445.9c0,0.7,0.1,1.4,0.4,1.7
				c0.3,0.4,0.7,0.5,1.1,0.5s0.8-0.2,1.1-0.5c0.3-0.4,0.5-0.9,0.5-1.8c0-0.7-0.2-1.4-0.4-1.7c-0.2-0.3-0.7-0.5-1.1-0.5
				c-0.4,0-0.8,0.2-1.1,0.6C222.7,444.5,222.5,445.2,222.5,445.9z"/>
			<path id="XMLID_13268_" class="st12" d="M231.8,448.1c-0.4,0.3-0.7,0.5-1,0.6c-0.3,0.1-0.7,0.2-1.1,0.2c-0.6,0-1.1-0.2-1.5-0.5
				c-0.3-0.3-0.5-0.7-0.5-1.2c0-0.3,0.1-0.5,0.2-0.8c0.1-0.2,0.3-0.4,0.5-0.6c0.2-0.2,0.4-0.2,0.7-0.3c0.2,0,0.5-0.1,0.9-0.1
				c0.8-0.1,1.5-0.2,1.8-0.3c0-0.1,0-0.2,0-0.3c0-0.4-0.1-0.7-0.3-0.8c-0.2-0.2-0.6-0.3-1.1-0.3c-0.5,0-0.8,0.1-1,0.2
				s-0.4,0.4-0.5,0.8l-0.9-0.1c0.1-0.4,0.2-0.7,0.4-1c0.2-0.3,0.5-0.4,0.9-0.6c0.4-0.1,0.8-0.2,1.4-0.2s0.9,0.1,1.2,0.2
				c0.3,0.1,0.5,0.3,0.7,0.4c0.2,0.1,0.2,0.4,0.3,0.7c0,0.2,0,0.5,0,0.9v1.4c0,0.9,0,1.6,0.1,1.8s0.1,0.5,0.2,0.7h-1
				C231.8,448.6,231.8,448.4,231.8,448.1z M231.7,445.9c-0.4,0.1-0.9,0.3-1.7,0.4c-0.4,0.1-0.7,0.1-0.8,0.2
				c-0.2,0.1-0.3,0.2-0.4,0.3c-0.1,0.1-0.1,0.3-0.1,0.5c0,0.3,0.1,0.5,0.3,0.6c0.2,0.1,0.5,0.3,0.9,0.3s0.7-0.1,1-0.2
				c0.3-0.2,0.5-0.4,0.6-0.7c0.1-0.2,0.2-0.5,0.2-1v-0.4H231.7z"/>
			<path id="XMLID_13271_" class="st12" d="M234.2,448.8v-5.9h0.9v0.9c0.2-0.4,0.4-0.7,0.6-0.8c0.2-0.1,0.4-0.2,0.6-0.2
				c0.3,0,0.7,0.1,1,0.3l-0.3,0.9c-0.2-0.1-0.5-0.2-0.7-0.2s-0.4,0.1-0.6,0.2c-0.2,0.1-0.3,0.3-0.4,0.5c-0.1,0.3-0.2,0.7-0.2,1.1
				v3.1H234.2z"/>
			<path id="XMLID_13273_" class="st12" d="M241.9,448.1c-0.4,0.3-0.7,0.5-1,0.6c-0.3,0.1-0.7,0.2-1.1,0.2c-0.6,0-1.1-0.2-1.5-0.5
				s-0.5-0.7-0.5-1.2c0-0.3,0.1-0.5,0.2-0.8c0.1-0.2,0.3-0.4,0.5-0.6s0.4-0.2,0.7-0.3c0.2,0,0.5-0.1,0.9-0.1
				c0.8-0.1,1.5-0.2,1.8-0.3c0-0.1,0-0.2,0-0.3c0-0.4-0.1-0.7-0.3-0.8c-0.2-0.2-0.6-0.3-1.1-0.3s-0.8,0.1-1,0.2
				c-0.2,0.1-0.4,0.4-0.5,0.8l-0.9-0.1c0.1-0.4,0.2-0.7,0.4-1s0.5-0.4,0.9-0.6c0.4-0.1,0.8-0.2,1.4-0.2c0.5,0,0.9,0.1,1.2,0.2
				c0.3,0.1,0.5,0.3,0.7,0.4s0.2,0.4,0.3,0.7c0,0.2,0,0.5,0,0.9v1.4c0,0.9,0,1.6,0.1,1.8s0.1,0.5,0.2,0.7h-1
				C242,448.6,242,448.4,241.9,448.1z M241.9,445.9c-0.4,0.1-0.9,0.3-1.7,0.4c-0.4,0.1-0.7,0.1-0.8,0.2c-0.2,0.1-0.3,0.2-0.4,0.3
				c-0.1,0.1-0.1,0.3-0.1,0.5c0,0.3,0.1,0.5,0.3,0.6c0.2,0.1,0.5,0.3,0.9,0.3c0.4,0,0.7-0.1,1-0.2c0.3-0.2,0.5-0.4,0.6-0.7
				c0.1-0.2,0.2-0.5,0.2-1v-0.4H241.9z"/>
			<path id="XMLID_13276_" class="st12" d="M247.6,448.8v-5.9h0.9v0.8c0.2-0.3,0.4-0.5,0.7-0.7c0.3-0.2,0.6-0.3,1-0.3s0.8,0.1,1,0.3
				c0.3,0.2,0.5,0.4,0.6,0.7c0.5-0.7,1-1,1.9-1c0.6,0,1,0.2,1.4,0.5c0.3,0.3,0.5,0.8,0.5,1.5v4.1h-1V445c0-0.4,0-0.7-0.1-0.8
				s-0.2-0.3-0.3-0.4c-0.2-0.1-0.4-0.2-0.6-0.2c-0.4,0-0.7,0.1-1,0.4c-0.3,0.3-0.4,0.7-0.4,1.4v3.4h-1v-3.8c0-0.4-0.1-0.8-0.2-1
				c-0.1-0.2-0.4-0.3-0.8-0.3c-0.3,0-0.5,0.1-0.8,0.2c-0.2,0.1-0.4,0.4-0.5,0.6c-0.1,0.3-0.2,0.7-0.2,1.2v3.1h-0.9V448.8z"/>
			<path id="XMLID_13278_" class="st12" d="M261,448.1c-0.4,0.3-0.7,0.5-1,0.6c-0.3,0.1-0.7,0.2-1.1,0.2c-0.6,0-1.1-0.2-1.5-0.5
				c-0.3-0.3-0.5-0.7-0.5-1.2c0-0.3,0.1-0.5,0.2-0.8c0.1-0.2,0.3-0.4,0.5-0.6s0.4-0.2,0.7-0.3c0.2,0,0.5-0.1,0.9-0.1
				c0.8-0.1,1.5-0.2,1.8-0.3c0-0.1,0-0.2,0-0.3c0-0.4-0.1-0.7-0.3-0.8c-0.2-0.2-0.6-0.3-1.1-0.3c-0.5,0-0.8,0.1-1,0.2
				s-0.4,0.4-0.5,0.8l-0.9-0.1c0.1-0.4,0.2-0.7,0.4-1s0.5-0.4,0.9-0.6c0.4-0.1,0.8-0.2,1.4-0.2s0.9,0.1,1.2,0.2s0.5,0.3,0.7,0.4
				c0.2,0.1,0.2,0.4,0.3,0.7c0,0.2,0,0.5,0,0.9v1.4c0,0.9,0,1.6,0.1,1.8c0.1,0.2,0.1,0.5,0.2,0.7h-1
				C261.2,448.6,261,448.4,261,448.1z M260.9,445.9c-0.4,0.1-0.9,0.3-1.7,0.4c-0.4,0.1-0.7,0.1-0.8,0.2c-0.2,0.1-0.3,0.2-0.4,0.3
				s-0.1,0.3-0.1,0.5c0,0.3,0.1,0.5,0.3,0.6c0.2,0.1,0.5,0.3,0.9,0.3c0.4,0,0.7-0.1,1-0.2c0.3-0.2,0.5-0.4,0.6-0.7
				c0.1-0.2,0.2-0.5,0.2-1v-0.4H260.9z M259,442.1l0.7-1.6h1.4l-1.2,1.6H259z"/>
			<path id="XMLID_13282_" class="st12" d="M263.1,447l1-0.2c0.1,0.4,0.2,0.7,0.4,0.9c0.2,0.2,0.6,0.3,1,0.3s0.8-0.1,1-0.3
				c0.2-0.2,0.3-0.4,0.3-0.6s-0.1-0.4-0.3-0.5c-0.1-0.1-0.5-0.2-1-0.3c-0.7-0.2-1.2-0.3-1.6-0.5c-0.3-0.1-0.5-0.3-0.6-0.5
				c-0.1-0.2-0.2-0.5-0.2-0.8c0-0.3,0.1-0.5,0.2-0.7c0.1-0.2,0.3-0.4,0.5-0.5c0.2-0.1,0.4-0.2,0.6-0.3s0.5-0.1,0.8-0.1
				c0.4,0,0.8,0.1,1.2,0.2c0.3,0.1,0.6,0.3,0.7,0.5c0.2,0.2,0.3,0.5,0.3,0.9l-0.9,0.1c0-0.3-0.2-0.5-0.4-0.7
				c-0.2-0.2-0.5-0.2-0.9-0.2c-0.4,0-0.8,0.1-1,0.2s-0.3,0.3-0.3,0.5c0,0.1,0,0.2,0.1,0.3c0.1,0.1,0.2,0.2,0.4,0.3
				c0.1,0,0.4,0.1,0.9,0.2c0.7,0.2,1.2,0.3,1.5,0.4c0.2,0.1,0.5,0.3,0.6,0.5c0.1,0.2,0.2,0.5,0.2,0.8s-0.1,0.6-0.3,0.9
				c-0.2,0.3-0.5,0.5-0.8,0.7c-0.4,0.2-0.8,0.2-1.2,0.2c-0.7,0-1.4-0.2-1.8-0.5C263.2,448,263.2,447.7,263.1,447z"/>
			<path id="XMLID_13284_" class="st12" d="M272.4,441.8v-1.2h1v1.1h-1V441.8z M272.4,448.8v-5.9h1v5.9H272.4z"/>
			<path id="XMLID_13287_" class="st12" d="M275,448.8v-5.9h0.9v0.8c0.4-0.6,1-0.9,1.9-0.9c0.3,0,0.7,0.1,0.9,0.2
				c0.3,0.1,0.5,0.3,0.6,0.5c0.1,0.2,0.2,0.4,0.3,0.7c0,0.2,0.1,0.5,0.1,0.9v3.6h-1v-3.6c0-0.4,0-0.7-0.1-0.9
				c-0.1-0.2-0.2-0.4-0.4-0.5c-0.2-0.1-0.4-0.2-0.7-0.2c-0.4,0-0.8,0.1-1.1,0.4c-0.3,0.3-0.4,0.8-0.4,1.6v3.2H275V448.8z"/>
			<path id="XMLID_13289_" class="st12" d="M281.5,448.8v-5.2h-0.9v-0.8h0.9v-0.6c0-0.4,0-0.7,0.1-0.9c0.1-0.3,0.3-0.5,0.5-0.6
				c0.2-0.2,0.6-0.2,1-0.2c0.3,0,0.6,0,0.9,0.1l-0.1,0.8c-0.2,0-0.4-0.1-0.6-0.1c-0.3,0-0.5,0.1-0.6,0.2c-0.1,0.1-0.2,0.4-0.2,0.7
				v0.5h1.1v0.8h-1.1v5.2h-1V448.8z"/>
			<path id="XMLID_13291_" class="st12" d="M284.1,445.9c0-1.1,0.3-1.9,0.9-2.4c0.5-0.4,1.1-0.6,1.9-0.6c0.8,0,1.5,0.3,2,0.8
				c0.5,0.5,0.7,1.2,0.7,2.2c0,0.7-0.1,1.4-0.3,1.8c-0.2,0.4-0.5,0.7-1,1c-0.4,0.2-0.9,0.3-1.5,0.3c-0.8,0-1.5-0.3-2-0.8
				C284.3,447.7,284.1,446.8,284.1,445.9z M285.2,445.9c0,0.7,0.2,1.4,0.5,1.7c0.3,0.3,0.7,0.5,1.2,0.5c0.5,0,0.9-0.2,1.2-0.5
				c0.3-0.4,0.5-0.9,0.5-1.8c0-0.7-0.2-1.2-0.5-1.7c-0.3-0.4-0.7-0.5-1.2-0.5c-0.5,0-0.9,0.2-1.2,0.5
				C285.4,444.4,285.2,445.1,285.2,445.9z"/>
			<path id="XMLID_13294_" class="st12" d="M290.9,448.8v-5.9h0.9v0.9c0.2-0.4,0.4-0.7,0.6-0.8c0.2-0.1,0.4-0.2,0.6-0.2
				c0.3,0,0.7,0.1,1,0.3l-0.3,0.9c-0.2-0.1-0.5-0.2-0.7-0.2c-0.2,0-0.4,0.1-0.6,0.2s-0.3,0.3-0.4,0.5c-0.1,0.3-0.2,0.7-0.2,1.1v3.1
				H290.9z"/>
			<path id="XMLID_13296_" class="st12" d="M294.6,448.8v-5.9h0.9v0.8c0.2-0.3,0.4-0.5,0.7-0.7c0.3-0.2,0.6-0.3,1-0.3s0.8,0.1,1,0.3
				c0.3,0.2,0.5,0.4,0.6,0.7c0.5-0.7,1-1,1.9-1c0.6,0,1,0.2,1.4,0.5s0.5,0.8,0.5,1.5v4.1h-1V445c0-0.4,0-0.7-0.1-0.8
				c-0.1-0.1-0.2-0.3-0.3-0.4c-0.2-0.1-0.4-0.2-0.6-0.2c-0.4,0-0.7,0.1-1,0.4c-0.3,0.3-0.4,0.7-0.4,1.4v3.4h-1v-3.8
				c0-0.4-0.1-0.8-0.2-1c-0.1-0.2-0.4-0.3-0.8-0.3c-0.3,0-0.5,0.1-0.8,0.2c-0.2,0.1-0.4,0.4-0.5,0.6c-0.1,0.3-0.2,0.7-0.2,1.2v3.1
				h-0.9V448.8z"/>
			<path id="XMLID_13298_" class="st12" d="M308,448.1c-0.4,0.3-0.7,0.5-1,0.6c-0.3,0.1-0.7,0.2-1.1,0.2c-0.6,0-1.1-0.2-1.5-0.5
				s-0.5-0.7-0.5-1.2c0-0.3,0.1-0.5,0.2-0.8c0.1-0.2,0.3-0.4,0.5-0.6s0.4-0.2,0.7-0.3c0.2,0,0.5-0.1,0.9-0.1
				c0.8-0.1,1.5-0.2,1.8-0.3c0-0.1,0-0.2,0-0.3c0-0.4-0.1-0.7-0.3-0.8c-0.2-0.2-0.6-0.3-1.1-0.3s-0.8,0.1-1,0.2s-0.4,0.4-0.5,0.8
				l-0.9-0.1c0.1-0.4,0.2-0.7,0.4-1c0.2-0.3,0.5-0.4,0.9-0.6c0.4-0.1,0.8-0.2,1.4-0.2s0.9,0.1,1.2,0.2c0.3,0.1,0.5,0.3,0.7,0.4
				s0.2,0.4,0.3,0.7c0,0.2,0,0.5,0,0.9v1.4c0,0.9,0,1.6,0.1,1.8c0.1,0.2,0.1,0.5,0.2,0.7h-1C308.2,448.6,308,448.4,308,448.1z
				 M307.9,445.9c-0.4,0.1-0.9,0.3-1.7,0.4c-0.4,0.1-0.7,0.1-0.8,0.2c-0.2,0.1-0.3,0.2-0.4,0.3c-0.1,0.1-0.1,0.3-0.1,0.5
				c0,0.3,0.1,0.5,0.3,0.6c0.2,0.1,0.5,0.3,0.9,0.3s0.7-0.1,1-0.2c0.3-0.2,0.5-0.4,0.6-0.7c0.1-0.2,0.2-0.5,0.2-1v-0.4H307.9z"/>
			<path id="XMLID_13302_" class="st12" d="M314.4,446.6l1,0.1c-0.1,0.7-0.4,1.2-0.8,1.6c-0.4,0.4-1,0.6-1.7,0.6
				c-0.8,0-1.5-0.3-2-0.8s-0.7-1.2-0.7-2.3c0-0.6,0.1-1.2,0.3-1.7c0.2-0.5,0.5-0.8,0.9-1c0.4-0.2,0.9-0.3,1.5-0.3
				c0.6,0,1.1,0.2,1.6,0.5c0.4,0.3,0.6,0.8,0.8,1.4l-0.9,0.1c-0.1-0.4-0.2-0.7-0.5-0.9c-0.3-0.2-0.5-0.3-0.8-0.3
				c-0.5,0-0.9,0.2-1.2,0.5c-0.3,0.3-0.5,0.9-0.5,1.8c0,0.8,0.1,1.4,0.4,1.8c0.3,0.3,0.7,0.5,1.2,0.5c0.4,0,0.7-0.1,1-0.3
				C314.2,447.6,314.4,447.1,314.4,446.6z"/>
			<path id="XMLID_13304_" class="st12" d="M316.3,441.8v-1.2h1v1.1h-1V441.8z M316.3,448.8v-5.9h1v5.9H316.3z"/>
			<path id="XMLID_13307_" class="st12" d="M318.4,445.9c0-1.1,0.3-1.9,0.9-2.4c0.5-0.4,1.1-0.6,1.9-0.6c0.8,0,1.5,0.3,2,0.8
				s0.7,1.2,0.7,2.2c0,0.7-0.1,1.4-0.3,1.8c-0.2,0.4-0.5,0.7-1,1c-0.4,0.2-0.9,0.3-1.5,0.3c-0.8,0-1.5-0.3-2-0.8
				C318.7,447.7,318.4,446.8,318.4,445.9z M319.5,445.9c0,0.7,0.2,1.4,0.5,1.7c0.3,0.3,0.7,0.5,1.2,0.5s0.9-0.2,1.2-0.5
				c0.3-0.4,0.5-0.9,0.5-1.8c0-0.7-0.2-1.2-0.5-1.7c-0.3-0.4-0.7-0.5-1.2-0.5s-0.9,0.2-1.2,0.5C319.7,444.4,319.5,445.1,319.5,445.9
				z M320.6,442.1l0.7-1.6h1.4l-1.2,1.6H320.6z"/>
			<path id="XMLID_13311_" class="st12" d="M325.2,448.8v-5.9h0.9v0.8c0.4-0.6,1-0.9,1.9-0.9c0.3,0,0.7,0.1,0.9,0.2
				c0.3,0.1,0.5,0.3,0.6,0.5c0.1,0.2,0.2,0.4,0.3,0.7c0,0.2,0.1,0.5,0.1,0.9v3.6h-1v-3.6c0-0.4,0-0.7-0.1-0.9s-0.2-0.4-0.4-0.5
				c-0.2-0.1-0.4-0.2-0.7-0.2c-0.4,0-0.8,0.1-1.1,0.4c-0.3,0.3-0.4,0.8-0.4,1.6v3.2h-0.9V448.8z"/>
		</g>
	</g>
</g>
<g id="Capa_2">
	<g id="XMLID_723_">
		<path id="XMLID_852_" class="st13" d="M190.5,458c-4.7,0-9.3-1.6-12.9-4.5c-9-7.1-10.5-20.3-3.3-29.2c4-5,9.9-7.9,16.3-7.9
			c4.7,0,9.3,1.6,12.9,4.5c4.4,3.5,7.1,8.4,7.7,13.9c0.3,2.6,0.1,5.2-0.6,7.8c-0.4,1.6-1,3.1-1.8,4.5c-0.4,0.7-1.2,0.9-1.9,0.5
			c-0.7-0.4-0.9-1.2-0.5-1.9c0.7-1.2,1.2-2.6,1.6-3.9c0.6-2.2,0.8-4.5,0.5-6.7c-0.5-4.8-2.9-9.1-6.7-12.1c-3.2-2.5-7.2-3.9-11.2-3.9
			c-5.6,0-10.7,2.5-14.2,6.8c-6.2,7.8-4.9,19.2,2.9,25.4c3.2,2.5,7.2,3.9,11.2,3.9c0.8,0,1.4,0.6,1.4,1.4
			C191.9,457.3,191.3,458,190.5,458L190.5,458z M190.5,458"/>
		<path id="XMLID_792_" class="st13" d="M190.5,451.8c-3.3,0-6.5-1.1-9.1-3.2c-6.3-5-7.4-14.3-2.4-20.6c2.8-3.5,7-5.5,11.5-5.5
			c3.3,0,6.5,1.1,9.1,3.2c3.1,2.4,5,5.9,5.4,9.8c0.2,1.9,0.1,3.9-0.5,5.7c-0.2,0.7-1,1.1-1.7,0.9c-0.7-0.2-1.1-1-0.9-1.7
			c0.4-1.5,0.6-3.1,0.4-4.7c-0.4-3.2-1.9-6-4.4-8c-2.1-1.7-4.7-2.6-7.4-2.6c-3.7,0-7.1,1.6-9.4,4.5c-4.1,5.2-3.2,12.7,1.9,16.8
			c2.1,1.7,4.7,2.6,7.4,2.6c0.8,0,1.4,0.6,1.4,1.4C191.9,451.2,191.3,451.8,190.5,451.8L190.5,451.8z M190.5,451.8"/>
		<path id="XMLID_727_" class="st14" d="M197.7,437.1c0,4-3.2,7.2-7.2,7.2c-4,0-7.2-3.2-7.2-7.2c0-4,3.2-7.2,7.2-7.2
			C194.5,430,197.7,433.2,197.7,437.1L197.7,437.1z M197.7,437.1"/>
		<path id="XMLID_746_" class="st13" d="M190.5,445.7c-1.9,0-3.8-0.7-5.3-1.8c-3.7-2.9-4.3-8.3-1.4-12c1.6-2,4.1-3.2,6.7-3.2
			c1.9,0,3.8,0.7,5.3,1.8c3.7,2.9,4.3,8.3,1.4,12C195.6,444.5,193.1,445.7,190.5,445.7L190.5,445.7z M190.5,431.4
			c-1.8,0-3.4,0.8-4.5,2.2c-2,2.5-1.6,6.1,0.9,8.1c1,0.8,2.3,1.3,3.6,1.3c1.8,0,3.4-0.8,4.5-2.2c2-2.5,1.6-6.1-0.9-8.1
			C193.1,431.8,191.8,431.4,190.5,431.4L190.5,431.4z M190.5,431.4"/>
		<path id="XMLID_726_" class="st15" d="M199.4,462.1c1.9,0,3.5-1.6,3.5-3.5v-9c0-2.6-2.1-4.7-4.7-4.7l-4.8,0v-7
			c0-1.5-1.2-2.7-2.6-2.8c-1.6-0.1-2.8,1.2-2.8,2.7V450l-0.7-1.5c-0.4-0.8-1.1-1.3-1.9-1.3c-0.3,0-0.7,0.1-1,0.3
			c-1,0.7-1.4,2.1-0.9,3.3c0,0,2.4,5.5,4.1,9.2c0.6,1.2,1.8,2,3.2,2H199.4z M199.4,462.1"/>
	</g>
</g>
</svg>
