<?xml version="1.0" encoding="utf-8"?>
<!-- Generator: Adobe Illustrator 19.0.0, SVG Export Plug-In . SVG Version: 6.00 Build 0)  -->
<svg version="1.1" id="Capa_1" xmlns="http://www.w3.org/2000/svg" xmlns:xlink="http://www.w3.org/1999/xlink" x="0px" y="0px"
	 viewBox="0 0 343.8 274.8" style="enable-background:new 0 0 343.8 274.8;" xml:space="preserve">
<style type="text/css">
	.st0{fill:#3D4752;}
	.st1{fill:#454545;}
	.st2{fill:#FFFFFF;}
	.st3{fill:#1D9932;}
	.st4{fill:none;stroke:#454545;stroke-width:2;stroke-linecap:round;stroke-miterlimit:10;}
	.st5{fill:none;stroke:#454545;stroke-width:2;stroke-linecap:round;stroke-miterlimit:10;stroke-dasharray:5.0854,5.0854;}
	.st6{fill:none;stroke:#454545;stroke-width:2;stroke-linecap:round;stroke-miterlimit:10;stroke-dasharray:4.8635,4.8635;}
	.st7{fill:none;stroke:#454545;stroke-width:2;stroke-linecap:round;stroke-miterlimit:10;stroke-dasharray:5.0163,5.0163;}
</style>
<g id="XMLID_18520_">
	<g id="XMLID_18521_">
		<path id="XMLID_18540_" class="st0" d="M269.4,18.1l-21.1,0c-0.5,0-0.9,0.4-0.9,0.9l0,5.3l-1.8,0V10.5c0-0.5-0.4-0.9-0.9-0.9
			l-0.6,0V4.3c0-0.3-0.1-0.5-0.3-0.7l-3.4-2.9c-0.5-0.4-1.4-0.8-2.1-0.8l-2.4,0c-0.7,0-1.5,0.3-2.1,0.8l-3.4,2.9c0,0,0,0,0,0
			c0,0,0,0-0.1,0c0,0,0,0,0,0c0,0,0,0,0,0c0,0,0,0,0,0c0,0,0,0,0,0c0,0,0,0,0,0c0,0,0,0,0,0.1c0,0,0,0,0,0c0,0,0,0,0,0.1
			c0,0,0,0,0,0c0,0,0,0,0,0.1c0,0,0,0,0,0c0,0,0,0,0,0.1c0,0,0,0,0,0c0,0,0,0.1,0,0.1l0,5.2l-0.6,0c-0.5,0-0.9,0.4-0.9,0.9l0,13.9
			l-1.8,0V19c0-0.5-0.4-0.9-0.9-0.9l-21.1,0c-0.5,0-0.9,0.4-0.9,0.9l0,12.4c0,0.5,0.4,0.9,0.9,0.9h21.1c0.3,0,0.5-0.1,0.6-0.3
			c0.2-0.2,0.3-0.4,0.3-0.6l0-5.3l1.8,0v13.3c0,0.5,0.4,0.9,0.9,0.9l4.6,0l0,2.1c-3.8,0.6-7.4,2.4-10.2,5.2
			c-0.8,0.8-1.5,1.6-2.1,2.5c-0.2,0.3-0.2,0.6-0.1,0.9c0.2,0.3,0.5,0.5,0.8,0.5l7,0l5.1,6.2c0.2,0.2,0.4,0.3,0.7,0.3h3.7
			c0.2,0,0.5-0.1,0.6-0.3c0,0,0,0,0.1-0.1l5.1-6.2l7,0c0.2,0,0.5-0.1,0.6-0.3c0.1-0.1,0.1-0.1,0.2-0.2c0.2-0.3,0.1-0.7-0.1-0.9
			c-2.8-4-7-6.7-11.7-7.6l0-2.2l4,0c0.3,0,0.5-0.1,0.6-0.3c0.2-0.2,0.3-0.4,0.3-0.6l0-13.3l1.8,0l0,5.3c0,0.5,0.4,0.9,0.9,0.9
			l21.1,0c0.3,0,0.5-0.1,0.6-0.3c0.2-0.2,0.3-0.4,0.3-0.6l0-12.4C270.3,18.5,269.9,18.1,269.4,18.1L269.4,18.1z M224.7,20l0,2.3
			l-8.7,0l0-2.3L224.7,20z M205.4,30.5l0-2.3l6,0c0.3,0,0.5-0.1,0.6-0.3c0.2-0.2,0.3-0.4,0.3-0.6c0-0.5-0.4-0.9-0.9-0.9l-6,0l0-2.3
			l6,0c0.3,0,0.5-0.1,0.6-0.3c0.2-0.2,0.3-0.4,0.3-0.6c0-0.5-0.4-0.9-0.9-0.9l-6,0V20l8.7,0l0,3.2l0,4.1l0,3.2L205.4,30.5z
			 M224.7,30.5l-8.7,0l0-2.3l8.7,0L224.7,30.5z M224.7,25.2l0,1.1l-8.7,0l0-2.3l8.7,0V25.2z M231.8,5.3l5.9,0c0.3,0,0.5-0.1,0.6-0.3
			c0.2-0.2,0.3-0.4,0.3-0.6c0-0.5-0.4-0.9-0.9-0.9l-4.3,0l1.5-1.3c0.2-0.2,0.6-0.3,0.9-0.3l2.4,0c0.2,0,0.7,0.2,0.9,0.3l3.1,2.6
			l0,4.8l-10.4,0L231.8,5.3z M238.4,56.4l-2.8,0l-3.8-4.7l10.5,0L238.4,56.4z M249.7,49.8l-25.4,0c0.2-0.3,0.5-0.6,0.8-0.8
			c2.7-2.7,6.1-4.4,9.9-4.8c0,0,0,0,0,0c0.7-0.1,1.3-0.1,2-0.1C241.8,44,246.5,46.2,249.7,49.8L249.7,49.8z M238.8,42.3
			c-0.6-0.1-1.2-0.1-1.8-0.1c-0.4,0-0.8,0-1.2,0l0-1.9l3.1,0V42.3z M243.7,38.5h-13.5l0-27.2h13.5L243.7,38.5z M249.2,30.5v-2.3l6,0
			c0.3,0,0.5-0.1,0.6-0.3c0.2-0.2,0.3-0.4,0.3-0.6c0-0.5-0.4-0.9-0.9-0.9l-6,0v-1.1l0-1.1l6,0c0.3,0,0.5-0.1,0.6-0.3
			c0.2-0.2,0.3-0.4,0.3-0.6c0-0.5-0.4-0.9-0.9-0.9l-6,0l0-2.3l8.7,0l0,10.5L249.2,30.5z M268.5,30.5l-8.7,0v-2.3l8.7,0L268.5,30.5z
			 M268.5,26.4l-8.7,0l0-2.3l8.7,0L268.5,26.4z M268.5,22.2l-8.7,0l0-2.3l8.7,0L268.5,22.2z M268.5,22.2"/>
		<path id="XMLID_18755_" class="st0" d="M235.1,60c-0.5,0-0.9,0.4-0.9,0.9c0,0.5,0.4,0.9,0.9,0.9l3.7,0c0.3,0,0.5-0.1,0.6-0.3
			c0.2-0.2,0.3-0.4,0.3-0.6c0-0.5-0.4-0.9-0.9-0.9H235.1z M235.1,60"/>
	</g>
	<g id="XMLID_19166_">
		<path id="XMLID_19167_" class="st0" d="M130.3,57.2c-0.4-0.4-1.1-0.4-1.5,0c-4,4-10.4,4-14.4,0c-0.4-0.4-1.1-0.4-1.5,0
			c-0.4,0.4-0.4,1.1,0,1.5c4.8,4.8,12.6,4.8,17.3,0C130.7,58.3,130.7,57.6,130.3,57.2L130.3,57.2z M130.3,57.2"/>
		<path id="XMLID_19170_" class="st0" d="M115.6,56c3.3,3.3,8.7,3.3,12.1,0c0.4-0.4,0.4-1.1,0-1.5c-0.4-0.4-1.1-0.4-1.5,0
			c-2.5,2.5-6.6,2.5-9.1,0c-0.4-0.4-1.1-0.4-1.5,0C115.2,55,115.2,55.6,115.6,56L115.6,56z M115.6,56"/>
		<path id="XMLID_19173_" class="st0" d="M118.2,53.4c1.9,1.9,4.9,1.9,6.8,0c0.4-0.4,0.4-1.1,0-1.5c-0.4-0.4-1.1-0.4-1.5,0
			c-1.1,1.1-2.8,1.1-3.8,0c-0.4-0.4-1.1-0.4-1.5,0C117.8,52.3,117.8,53,118.2,53.4L118.2,53.4z M118.2,53.4"/>
		<path id="XMLID_19176_" class="st0" d="M120.6,50.2c0,0.3,0.1,0.5,0.3,0.7c0.2,0.2,0.4,0.3,0.7,0.3c0.6,0,1-0.5,1-1l0-0.5l7.7,0
			c0.3,0,0.5-0.1,0.7-0.3c0.2-0.2,0.3-0.5,0.3-0.7c0-3.8-2.2-7.1-5.4-8.7l0-2.3l3.7,0c0.6,0,1-0.5,1-1v-9.5l3.7,0l0,4.6
			c0,0.3,0.1,0.5,0.3,0.7s0.4,0.3,0.7,0.3h19.1c0.3,0,0.5-0.1,0.7-0.3s0.3-0.5,0.3-0.7l0-11.4c0-0.3-0.1-0.5-0.3-0.7
			c-0.2-0.2-0.5-0.3-0.7-0.3l-19.1,0c-0.3,0-0.5,0.1-0.7,0.3c-0.2,0.2-0.3,0.5-0.3,0.7l0,4.6l-3.7,0l0-7.1c0-2.8-2-5.2-4.7-5.7V8.9
			c0-0.6-0.5-1-1-1h-6.7c-0.3,0-0.5,0.1-0.7,0.3c-0.2,0.2-0.3,0.5-0.3,0.7l0,3.3c-1.1,0.2-2.2,0.8-3,1.6c-1.1,1.1-1.7,2.5-1.7,4.1
			l0,7.1l-3.7,0v-4.6c0-0.6-0.5-1-1-1l-19.1,0c-0.6,0-1,0.5-1,1l0,11.4c0,0.3,0.1,0.5,0.3,0.7s0.4,0.3,0.7,0.3l19.1,0
			c0.6,0,1-0.5,1-1l0-4.6l3.7,0v9.5c0,0.3,0.1,0.5,0.3,0.7c0.2,0.2,0.5,0.3,0.7,0.3h3.7l0,2.3c-3.2,1.6-5.4,4.9-5.4,8.7
			c0,0.3,0.1,0.5,0.3,0.7c0.2,0.2,0.4,0.3,0.7,0.3l7.7,0L120.6,50.2z M142.9,30.7l0-9.3h4.3l0,9.3L142.9,30.7z M153.6,21.4l0,9.3
			l-4.3,0l0-9.3L153.6,21.4z M140.8,21.4l0,9.3l-4.3,0l0-9.3L140.8,21.4z M100.3,21.4l0,9.3H96l0-9.3L100.3,21.4z M89.6,30.7l0-9.3
			l4.3,0l0,9.3H89.6z M102.4,30.7l0-9.3l4.3,0l0,9.3L102.4,30.7z M128.7,19.1v12.5l-14.1,0V19.1L128.7,19.1z M127.6,15.3
			c0.5,0.5,0.8,1.1,1,1.8h-13.9c0.2-0.7,0.5-1.3,1-1.8c0.7-0.7,1.6-1.1,2.6-1.1h6.7C126,14.2,126.9,14.6,127.6,15.3L127.6,15.3z
			 M123.9,9.9l0,2.2l-2.3,0l-2.3,0l0-2.2L123.9,9.9z M114.6,35.5v-1.8l14.1,0v1.8H114.6z M119.3,37.6l4.6,0l0,1.6
			c-0.7-0.2-1.5-0.3-2.3-0.3c-0.8,0-1.6,0.1-2.3,0.3V37.6z M114,47.6c0.5-3.8,3.7-6.7,7.6-6.7c2.1,0,4,0.9,5.4,2.3
			c1.2,1.2,2,2.7,2.2,4.4H114z M114,47.6"/>
	</g>
	<g id="XMLID_20236_">
		<path id="XMLID_20419_" class="st1" d="M197.1,269.9h-0.9v-0.1c0-1.3-1.1-2.4-2.4-2.4h-2.5V265c0-0.9-0.7-1.6-1.6-1.6h-1.8
			l-3.1-17.8c3.8-1,7.2-3.1,9.7-6.1c2.7-3.2,4.2-7,4.4-11.2c0-0.4-0.1-0.8-0.4-1.1c-0.3-0.3-0.7-0.5-1.2-0.5l-7.6,0l-8.8-8.8l0-3.1
			c0,0,0,0,0,0c0.3-0.1,0.7-0.3,0.9-0.6c0.9-0.9,0.9-2.5,0-3.4c-0.9-0.9-2.5-0.9-3.4,0s-0.9,2.5,0,3.4c0.3,0.3,0.6,0.5,0.9,0.6
			c0,0,0,0,0,0v3.1l-8.8,8.8l-7.6,0c-0.4,0-0.9,0.2-1.2,0.5c-0.3,0.3-0.5,0.7-0.4,1.1c0.2,4,1.6,7.8,4.2,11c0.4,0.5,0.8,1,1.3,1.4
			c2,2,4.4,3.5,7.1,4.4l2.8,0.9l-1,3.9l-2.3,13.4h-1.8c-0.9,0-1.6,0.7-1.6,1.6v2.5h-2.5c-1.3,0-2.4,1.1-2.4,2.4v0.1h-0.9
			c-0.4,0-0.8,0.3-0.8,0.8c0,0.4,0.3,0.8,0.8,0.8h32.6c0.4,0,0.8-0.3,0.8-0.8C197.8,270.3,197.5,269.9,197.1,269.9z"/>
		<path id="XMLID_20420_" class="st2" d="M180.8,211.9c0.3,0.3,0.3,0.9,0,1.2s-0.9,0.3-1.2,0c-0.3-0.3-0.3-0.9,0-1.2
			C179.9,211.5,180.5,211.5,180.8,211.9L180.8,211.9z"/>
		<polygon id="XMLID_20421_" class="st2" points="172.8,226.7 179.4,220.1 179.4,226.7 		"/>
		<polygon id="XMLID_20422_" class="st2" points="187.6,226.7 180.9,226.7 180.9,220.1 		"/>
		<path id="XMLID_20423_" class="st2" d="M197.3,228.3c0,0.4-0.1,0.9-0.1,1.3l-34.1,0c-0.1-0.4-0.1-0.9-0.1-1.3c0,0,0,0,0,0
			c0,0,0,0,0,0l7.9,0l0,0h18.5l0,0L197.3,228.3C197.3,228.2,197.3,228.3,197.3,228.3C197.3,228.3,197.3,228.3,197.3,228.3
			L197.3,228.3z"/>
		<path id="XMLID_20424_" class="st2" d="M182.5,243.6c1,1,1,2.6,0,3.5c-1,1-2.6,1-3.5,0c-1-1-1-2.6,0-3.5
			C180,242.6,181.5,242.6,182.5,243.6L182.5,243.6z"/>
		<path id="XMLID_20425_" class="st1" d="M180.2,245.9c0.1,0.1,0.3,0.2,0.5,0.2c0.2,0,0.4-0.1,0.5-0.2c0.1-0.1,0.2-0.3,0.2-0.5
			c0-0.2-0.1-0.4-0.2-0.5c-0.1-0.1-0.3-0.2-0.5-0.2c-0.2,0-0.4,0.1-0.5,0.2c-0.1,0.1-0.2,0.3-0.2,0.5
			C180,245.6,180.1,245.8,180.2,245.9L180.2,245.9z M180.2,245.9"/>
		<g id="XMLID_20428_">
			<path id="XMLID_20429_" class="st1" d="M222.7,256.6c0.5,0,1,0,1.4-0.1c3-0.3,5.9-1.6,8.1-3.6c0.2-0.2,0.4-0.5,0.4-0.8
				c0-0.3-0.1-0.6-0.4-0.9l-4-4v-9.4l1.7-1.7c0,0,0,0,0,0c0.2,0.1,0.5,0.2,0.8,0.2c1,0,1.8-0.8,1.8-1.8s-0.8-1.8-1.8-1.8
				c-1,0-1.8,0.8-1.8,1.8c0,0.3,0.1,0.6,0.2,0.8c0,0,0,0,0,0l-1.7,1.7H218l-4-4c-0.2-0.2-0.6-0.4-0.9-0.4c-0.3,0-0.6,0.1-0.8,0.4
				c-2.1,2.3-3.4,5.2-3.6,8.3c-0.3,3,0.4,6,1.9,8.5c-0.5,0.5-0.7,1.2-0.8,2l-2.4,13.7H206c-0.7,0-1.2,0.5-1.2,1.2v1.9h-1.9
				c-1,0-1.8,0.8-1.8,1.8v0h-0.7c-0.3,0-0.6,0.3-0.6,0.6c0,0.3,0.3,0.6,0.6,0.6h24.7c0.3,0,0.6-0.3,0.6-0.6c0-0.3-0.3-0.6-0.6-0.6
				h-0.7v0c0-1-0.8-1.8-1.8-1.8h-1.9v-1.9c0-0.7-0.5-1.2-1.2-1.2h-1.4l-1.8-10.2C218.4,256.1,220.5,256.6,222.7,256.6L222.7,256.6z
				 M230.7,233.8c0.4,0,0.7,0.3,0.7,0.7c0,0.4-0.3,0.7-0.7,0.7c-0.4,0-0.7-0.3-0.7-0.7C230.1,234.1,230.4,233.8,230.7,233.8
				L230.7,233.8z M223.5,242.5l3.5-3.5v7.1L223.5,242.5z M226.2,238.1l-3.5,3.5l-3.5-3.5H226.2z M213.1,233.7
				C213.1,233.7,213.1,233.7,213.1,233.7C213.1,233.7,213.1,233.7,213.1,233.7l4.3,4.2v0l9.9,9.9h0l4.2,4.2c0,0,0,0,0,0c0,0,0,0,0,0
				c-0.2,0.2-0.5,0.4-0.8,0.6l-18.3-18.3C212.6,234.2,212.9,234,213.1,233.7L213.1,233.7z M211.8,235.4l18,18
				c-1.7,1.1-3.7,1.8-5.7,2c-2.7,0.3-5.4-0.3-7.8-1.7l-0.4-2.1c0-1.7-1.4-3-3-3c-0.5,0-1,0.1-1.4,0.3
				C209,244.8,209.2,239.5,211.8,235.4L211.8,235.4z M212.8,249.8c1,0,1.9,0.8,1.9,1.9c0,1-0.8,1.9-1.9,1.9c-1,0-1.9-0.8-1.9-1.9
				C210.9,250.7,211.8,249.8,212.8,249.8L212.8,249.8z M223.4,270.3L223.4,270.3l-21.1,0v0c0-0.4,0.3-0.7,0.7-0.7h19.8
				C223.1,269.6,223.4,269.9,223.4,270.3L223.4,270.3z M219.6,266.6v1.9H206v-1.9c0,0,0,0,0,0h1.9h0h0h9.9h0h0L219.6,266.6
				C219.6,266.5,219.6,266.5,219.6,266.6L219.6,266.6z M208.6,265.4l2-11.6c0.6,0.6,1.4,1,2.2,1s1.7-0.4,2.2-1l2,11.6H208.6z
				 M208.6,265.4"/>
			<path id="XMLID_20441_" class="st1" d="M212.8,252.3c0.2,0,0.3-0.1,0.4-0.2c0.1-0.1,0.2-0.3,0.2-0.4c0-0.2-0.1-0.3-0.2-0.4
				c-0.1-0.1-0.3-0.2-0.4-0.2c-0.2,0-0.3,0.1-0.4,0.2c-0.1,0.1-0.2,0.3-0.2,0.4c0,0.2,0.1,0.3,0.2,0.4
				C212.5,252.3,212.7,252.3,212.8,252.3L212.8,252.3z M212.8,252.3"/>
		</g>
		<g id="XMLID_20444_">
			<path id="XMLID_20445_" class="st1" d="M138.9,256.6c2.2,0,4.3-0.5,6.2-1.4l-1.8,10.2H142c-0.7,0-1.2,0.5-1.2,1.2v1.9h-1.9
				c-1,0-1.8,0.8-1.8,1.8v0h-0.7c-0.3,0-0.6,0.3-0.6,0.6c0,0.3,0.3,0.6,0.6,0.6h24.7c0.3,0,0.6-0.3,0.6-0.6c0-0.3-0.3-0.6-0.6-0.6
				h-0.7v0c0-1-0.8-1.8-1.8-1.8h-1.9v-1.9c0-0.7-0.5-1.2-1.2-1.2h-1.4l-2.4-13.7c0-0.7-0.3-1.4-0.8-2c1.5-2.5,2.2-5.5,1.9-8.5
				c-0.3-3.1-1.5-6-3.6-8.3c-0.2-0.2-0.5-0.4-0.8-0.4c-0.3,0-0.6,0.1-0.9,0.4l-4,4h-9.4l-1.7-1.7c0,0,0,0,0,0
				c0.1-0.2,0.2-0.5,0.2-0.8c0-1-0.8-1.8-1.8-1.8c-1,0-1.8,0.8-1.8,1.8s0.8,1.8,1.8,1.8c0.3,0,0.6-0.1,0.8-0.2c0,0,0,0,0,0l1.7,1.7
				v9.4l-4,4c-0.2,0.2-0.4,0.6-0.4,0.9c0,0.3,0.1,0.6,0.4,0.8c2.3,2.1,5.1,3.3,8.1,3.6C138,256.6,138.5,256.6,138.9,256.6
				L138.9,256.6z M130.9,233.8c0.4,0,0.7,0.3,0.7,0.7c0,0.4-0.3,0.7-0.7,0.7c-0.4,0-0.7-0.3-0.7-0.7
				C130.2,234.1,130.5,233.8,130.9,233.8L130.9,233.8z M134.6,246v-7.1l3.5,3.5L134.6,246z M142.5,238.1l-3.5,3.5l-3.5-3.5H142.5z
				 M148.5,233.7c0.2,0.2,0.4,0.5,0.6,0.8l-18.3,18.3c-0.3-0.2-0.5-0.4-0.8-0.6c0,0,0,0,0,0c0,0,0,0,0,0l4.2-4.2h0l9.9-9.9v0
				L148.5,233.7C148.5,233.7,148.5,233.7,148.5,233.7C148.5,233.7,148.5,233.7,148.5,233.7L148.5,233.7z M149.9,235.4
				c2.6,4.1,2.8,9.3,0.3,13.6c-0.4-0.2-0.9-0.3-1.4-0.3c-1.7,0-3,1.3-3,3l-0.4,2.1c-2.4,1.4-5,1.9-7.8,1.7c-2.1-0.2-4-0.9-5.7-2
				L149.9,235.4L149.9,235.4z M148.8,249.8c1,0,1.9,0.8,1.9,1.9c0,1-0.8,1.9-1.9,1.9c-1,0-1.9-0.8-1.9-1.9
				C146.9,250.7,147.8,249.8,148.8,249.8L148.8,249.8z M138.3,270.3c0-0.4,0.3-0.7,0.7-0.7h19.8c0.4,0,0.7,0.3,0.7,0.7v0
				L138.3,270.3L138.3,270.3L138.3,270.3z M142,266.6C142,266.5,142,266.5,142,266.6l1.9,0h0h0h9.9h0h0h1.9c0,0,0,0,0,0v1.9H142
				V266.6L142,266.6z M144.5,265.4l2-11.6c0.6,0.6,1.4,1,2.2,1s1.7-0.4,2.2-1l2,11.6H144.5z M153,265.4"/>
			<path id="XMLID_20457_" class="st1" d="M148.8,252.3c0.2,0,0.3-0.1,0.4-0.2c0.1-0.1,0.2-0.3,0.2-0.4c0-0.2-0.1-0.3-0.2-0.4
				c-0.1-0.1-0.3-0.2-0.4-0.2c-0.2,0-0.3,0.1-0.4,0.2c-0.1,0.1-0.2,0.3-0.2,0.4c0,0.2,0.1,0.3,0.2,0.4
				C148.5,252.3,148.6,252.3,148.8,252.3L148.8,252.3z M148.8,252.3"/>
		</g>
		<path id="XMLID_20460_" class="st2" d="M166.8,269.9c0-0.5,0.4-0.9,0.9-0.9h26.1c0.5,0,0.9,0.4,0.9,0.9v0.1L166.8,269.9
			L166.8,269.9L166.8,269.9z"/>
		<path id="XMLID_20461_" class="st2" d="M171.7,265C171.7,264.9,171.7,264.9,171.7,265l2.5-0.1c0,0,0,0,0,0h0h13.1h0c0,0,0,0,0,0
			h2.4c0,0,0.1,0,0.1,0.1v2.5h-18.1V265L171.7,265z"/>
		<path id="XMLID_20462_" class="st2" d="M175.1,263.4l2.7-15.3c0.7,0.8,1.8,1.3,3,1.3s2.2-0.5,3-1.3l2.7,15.3H175.1z"/>
		<path id="XMLID_20463_" d="M186.4,263.4"/>
		<path id="XMLID_20465_" class="st2" d="M163.4,231.1c0.6,2.6,1.8,5.1,3.5,7.2c2.3,2.8,5.3,4.8,8.8,5.7l1.1,0.4
			c0.2-0.7,0.5-1.4,1.1-1.9c1.6-1.6,4.2-1.6,5.8,0c0.5,0.5,0.8,1,1,1.6c6.3-1.7,11-6.7,12.4-13H163.4z"/>
	</g>
	<path id="XMLID_20467_" class="st3" d="M342.1,271.5H95v-10.2c2.9-0.7,5-3.3,5-6.4c0-3.7-3-6.7-6.7-6.7c-3.7,0-6.7,3-6.7,6.7
		c0,3.1,2.1,5.7,5,6.4v10.2H50v-6.8c3.8-0.8,6.7-4.1,6.7-8.2c0-4.6-3.7-8.3-8.3-8.3c-4.6,0-8.3,3.7-8.3,8.3c0,4,2.9,7.4,6.7,8.2v6.8
		H10v-16.8c3.8-0.8,6.7-4.1,6.7-8.2c0-4.6-3.7-8.3-8.3-8.3c-4.6,0-8.3,3.7-8.3,8.3c0,4,2.9,7.4,6.7,8.2v16.8h-5
		c-0.9,0-1.7,0.7-1.7,1.7c0,0.9,0.7,1.7,1.7,1.7h340.5c0.9,0,1.7-0.7,1.7-1.7C343.8,272.3,343,271.5,342.1,271.5L342.1,271.5z
		 M3.3,246.5c0-2.8,2.2-5,5-5c2.8,0,5,2.2,5,5c0,2.8-2.2,5-5,5C5.6,251.5,3.3,249.3,3.3,246.5L3.3,246.5z M43.3,256.5
		c0-2.8,2.2-5,5-5c2.8,0,5,2.2,5,5c0,2.8-2.2,5-5,5C45.6,261.5,43.3,259.3,43.3,256.5L43.3,256.5z M90,254.8c0-1.8,1.5-3.3,3.3-3.3
		c1.8,0,3.3,1.5,3.3,3.3c0,1.8-1.5,3.3-3.3,3.3C91.5,258.2,90,256.7,90,254.8L90,254.8z M90,254.8"/>
	<g id="XMLID_20473_">
		<path id="XMLID_20474_" class="st1" d="M63.3,239.8c0-0.9-0.7-1.7-1.7-1.7c-0.9,0-1.7,0.7-1.7,1.7v3.3c0,0.9,0.7,1.7,1.7,1.7
			c0.9,0,1.7-0.7,1.7-1.7V239.8z M63.3,239.8"/>
		<path id="XMLID_20477_" class="st1" d="M61.7,258.2c-0.9,0-1.7,0.7-1.7,1.7v6.7c0,0.9,0.7,1.7,1.7,1.7c0.9,0,1.7-0.7,1.7-1.7v-6.7
			C63.3,258.9,62.6,258.2,61.7,258.2L61.7,258.2z M61.7,258.2"/>
		<path id="XMLID_20480_" class="st1" d="M70,219.8c0-0.9-0.7-1.7-1.7-1.7c-0.9,0-1.7,0.7-1.7,1.7v3.3c0,0.9,0.7,1.7,1.7,1.7
			c0.9,0,1.7-0.7,1.7-1.7V219.8z M70,219.8"/>
		<path id="XMLID_20483_" class="st1" d="M63.3,229.8c0-0.9-0.7-1.7-1.7-1.7c-0.9,0-1.7,0.7-1.7,1.7v3.3c0,0.9,0.7,1.7,1.7,1.7
			c0.9,0,1.7-0.7,1.7-1.7V229.8z M63.3,229.8"/>
		<path id="XMLID_20486_" class="st1" d="M63.3,249.8c0-0.9-0.7-1.7-1.7-1.7c-0.9,0-1.7,0.7-1.7,1.7v3.3c0,0.9,0.7,1.7,1.7,1.7
			c0.9,0,1.7-0.7,1.7-1.7V249.8z M63.3,249.8"/>
		<path id="XMLID_20489_" class="st1" d="M70,229.8c0-0.9-0.7-1.7-1.7-1.7c-0.9,0-1.7,0.7-1.7,1.7v3.3c0,0.9,0.7,1.7,1.7,1.7
			c0.9,0,1.7-0.7,1.7-1.7V229.8z M70,229.8"/>
		<path id="XMLID_20492_" class="st1" d="M56.7,219.8c0-0.9-0.7-1.7-1.7-1.7c-0.9,0-1.7,0.7-1.7,1.7v3.3c0,0.9,0.7,1.7,1.7,1.7
			c0.9,0,1.7-0.7,1.7-1.7V219.8z M56.7,219.8"/>
		<path id="XMLID_20495_" class="st1" d="M63.3,219.8c0-0.9-0.7-1.7-1.7-1.7c-0.9,0-1.7,0.7-1.7,1.7v3.3c0,0.9,0.7,1.7,1.7,1.7
			c0.9,0,1.7-0.7,1.7-1.7V219.8z M63.3,219.8"/>
		<path id="XMLID_20498_" class="st1" d="M70,203.2v-3.3c0-0.9-0.7-1.7-1.7-1.7c-0.9,0-1.7,0.7-1.7,1.7v3.3c0,0.9,0.7,1.7,1.7,1.7
			C69.3,204.8,70,204.1,70,203.2L70,203.2z M70,203.2"/>
		<path id="XMLID_20501_" class="st1" d="M56.7,229.8c0-0.9-0.7-1.7-1.7-1.7c-0.9,0-1.7,0.7-1.7,1.7v3.3c0,0.9,0.7,1.7,1.7,1.7
			c0.9,0,1.7-0.7,1.7-1.7V229.8z M56.7,229.8"/>
		<path id="XMLID_20504_" class="st1" d="M76.7,199.8c0-0.9-0.7-1.7-1.7-1.7c-0.9,0-1.7,0.7-1.7,1.7v3.3c0,0.9,0.7,1.7,1.7,1.7
			c0.9,0,1.7-0.7,1.7-1.7V199.8z M76.7,199.8"/>
		<path id="XMLID_20507_" class="st1" d="M55,238.2c-0.9,0-1.7,0.7-1.7,1.7v3.3c0,0.9,0.7,1.7,1.7,1.7c0.9,0,1.7-0.7,1.7-1.7v-3.3
			C56.7,238.9,55.9,238.2,55,238.2L55,238.2z M55,238.2"/>
		<path id="XMLID_20510_" class="st1" d="M83.3,249.8c0-0.9-0.7-1.7-1.7-1.7c-0.9,0-1.7,0.7-1.7,1.7v3.3c0,0.9,0.7,1.7,1.7,1.7
			c0.9,0,1.7-0.7,1.7-1.7V249.8z M83.3,249.8"/>
		<path id="XMLID_20513_" class="st1" d="M81.7,258.2c-0.9,0-1.7,0.7-1.7,1.7v6.7c0,0.9,0.7,1.7,1.7,1.7c0.9,0,1.7-0.7,1.7-1.7v-6.7
			C83.3,258.9,82.6,258.2,81.7,258.2L81.7,258.2z M81.7,258.2"/>
		<path id="XMLID_20516_" class="st1" d="M88.3,238.2c-0.9,0-1.7,0.7-1.7,1.7v3.3c0,0.9,0.7,1.7,1.7,1.7c0.9,0,1.7-0.7,1.7-1.7v-3.3
			C90,238.9,89.3,238.2,88.3,238.2L88.3,238.2z M88.3,238.2"/>
		<path id="XMLID_20519_" class="st1" d="M61.7,204.8c0.9,0,1.7-0.7,1.7-1.7v-7L80,192v27.9c0,0.7,0.4,1.3,1.1,1.6l12.3,4.6v17.2
			c0,0.9,0.7,1.7,1.7,1.7c0.9,0,1.7-0.7,1.7-1.7v-18.3c0-0.7-0.4-1.3-1.1-1.6l-12.3-4.6v-32.2c0-0.9-0.7-1.7-1.7-1.7
			c-0.9,0-1.7,0.7-1.7,1.7v2l-18.7,4.7c-0.7,0.2-1.3,0.9-1.3,1.6v8.3C60,204.1,60.7,204.8,61.7,204.8L61.7,204.8z M61.7,204.8"/>
		<path id="XMLID_20522_" class="st1" d="M90,229.8c0-0.9-0.7-1.7-1.7-1.7c-0.9,0-1.7,0.7-1.7,1.7v3.3c0,0.9,0.7,1.7,1.7,1.7
			c0.9,0,1.7-0.7,1.7-1.7V229.8z M90,229.8"/>
		<path id="XMLID_20525_" class="st1" d="M83.3,229.8c0-0.9-0.7-1.7-1.7-1.7c-0.9,0-1.7,0.7-1.7,1.7v3.3c0,0.9,0.7,1.7,1.7,1.7
			c0.9,0,1.7-0.7,1.7-1.7V229.8z M83.3,229.8"/>
		<path id="XMLID_20528_" class="st1" d="M70,249.8c0-0.9-0.7-1.7-1.7-1.7c-0.9,0-1.7,0.7-1.7,1.7v3.3c0,0.9,0.7,1.7,1.7,1.7
			c0.9,0,1.7-0.7,1.7-1.7V249.8z M70,249.8"/>
		<path id="XMLID_20531_" class="st1" d="M83.3,239.8c0-0.9-0.7-1.7-1.7-1.7c-0.9,0-1.7,0.7-1.7,1.7v3.3c0,0.9,0.7,1.7,1.7,1.7
			c0.9,0,1.7-0.7,1.7-1.7V239.8z M83.3,239.8"/>
		<path id="XMLID_20534_" class="st1" d="M68.3,258.2c-0.9,0-1.7,0.7-1.7,1.7v6.7c0,0.9,0.7,1.7,1.7,1.7c0.9,0,1.7-0.7,1.7-1.7v-6.7
			C70,258.9,69.3,258.2,68.3,258.2L68.3,258.2z M68.3,258.2"/>
		<path id="XMLID_20537_" class="st1" d="M70,239.8c0-0.9-0.7-1.7-1.7-1.7c-0.9,0-1.7,0.7-1.7,1.7v3.3c0,0.9,0.7,1.7,1.7,1.7
			c0.9,0,1.7-0.7,1.7-1.7V239.8z M70,239.8"/>
		<path id="XMLID_20540_" class="st1" d="M75,268.2c0.9,0,1.7-0.7,1.7-1.7v-53.3c0-0.8-0.5-1.4-1.3-1.6l-26.7-6.7
			c-0.5-0.1-1,0-1.4,0.3c-0.4,0.3-0.6,0.8-0.6,1.3v36.7c0,0.9,0.7,1.7,1.7,1.7c0.9,0,1.7-0.7,1.7-1.7v-34.5l23.3,5.8v52
			C73.3,267.4,74.1,268.2,75,268.2L75,268.2z M75,268.2"/>
		<path id="XMLID_20543_" class="st1" d="M36.7,209.8c0-0.9-0.7-1.7-1.7-1.7c-0.9,0-1.7,0.7-1.7,1.7v3.3c0,0.9,0.7,1.7,1.7,1.7
			c0.9,0,1.7-0.7,1.7-1.7V209.8z M36.7,209.8"/>
		<path id="XMLID_20546_" class="st1" d="M36.7,199.8c0-0.9-0.7-1.7-1.7-1.7c-0.9,0-1.7,0.7-1.7,1.7v3.3c0,0.9,0.7,1.7,1.7,1.7
			c0.9,0,1.7-0.7,1.7-1.7V199.8z M36.7,199.8"/>
		<path id="XMLID_20549_" class="st1" d="M23.3,249.8c0-0.9-0.7-1.7-1.7-1.7c-0.9,0-1.7,0.7-1.7,1.7v3.3c0,0.9,0.7,1.7,1.7,1.7
			c0.9,0,1.7-0.7,1.7-1.7V249.8z M23.3,249.8"/>
		<path id="XMLID_20552_" class="st1" d="M8.3,234.8c0.9,0,1.7-0.7,1.7-1.7v-8.3h16.7v41.7c0,0.9,0.7,1.7,1.7,1.7
			c0.9,0,1.7-0.7,1.7-1.7v-43.3c0-0.9-0.7-1.7-1.7-1.7h-20c-0.9,0-1.7,0.7-1.7,1.7v10C6.7,234.1,7.4,234.8,8.3,234.8L8.3,234.8z
			 M8.3,234.8"/>
		<path id="XMLID_20556_" class="st1" d="M26.7,209.8v3.3c0,0.9,0.7,1.7,1.7,1.7c0.9,0,1.7-0.7,1.7-1.7v-3.3c0-0.9-0.7-1.7-1.7-1.7
			C27.4,208.2,26.7,208.9,26.7,209.8L26.7,209.8z M26.7,209.8"/>
		<path id="XMLID_20560_" class="st1" d="M36.7,189.8c0-0.9-0.7-1.7-1.7-1.7c-0.9,0-1.7,0.7-1.7,1.7v3.3c0,0.9,0.7,1.7,1.7,1.7
			c0.9,0,1.7-0.7,1.7-1.7V189.8z M36.7,189.8"/>
		<path id="XMLID_20678_" class="st1" d="M21.7,258.2c-0.9,0-1.7,0.7-1.7,1.7v6.7c0,0.9,0.7,1.7,1.7,1.7c0.9,0,1.7-0.7,1.7-1.7v-6.7
			C23.3,258.9,22.6,258.2,21.7,258.2L21.7,258.2z M21.7,258.2"/>
		<path id="XMLID_21064_" class="st1" d="M13.3,259.8v6.7c0,0.9,0.7,1.7,1.7,1.7c0.9,0,1.7-0.7,1.7-1.7v-6.7c0-0.9-0.7-1.7-1.7-1.7
			C14.1,258.2,13.3,258.9,13.3,259.8L13.3,259.8z M13.3,259.8"/>
		<path id="XMLID_21068_" class="st1" d="M23.3,229.8c0-0.9-0.7-1.7-1.7-1.7c-0.9,0-1.7,0.7-1.7,1.7v3.3c0,0.9,0.7,1.7,1.7,1.7
			c0.9,0,1.7-0.7,1.7-1.7V229.8z M23.3,229.8"/>
		<path id="XMLID_21080_" class="st1" d="M23.3,239.8c0-0.9-0.7-1.7-1.7-1.7c-0.9,0-1.7,0.7-1.7,1.7v3.3c0,0.9,0.7,1.7,1.7,1.7
			c0.9,0,1.7-0.7,1.7-1.7V239.8z M23.3,239.8"/>
		<path id="XMLID_21128_" class="st1" d="M13.3,229.8v3.3c0,0.9,0.7,1.7,1.7,1.7c0.9,0,1.7-0.7,1.7-1.7v-3.3c0-0.9-0.7-1.7-1.7-1.7
			C14.1,228.2,13.3,228.9,13.3,229.8L13.3,229.8z M13.3,229.8"/>
		<path id="XMLID_21142_" class="st1" d="M36.7,239.8c0-0.9-0.7-1.7-1.7-1.7c-0.9,0-1.7,0.7-1.7,1.7v3.3c0,0.9,0.7,1.7,1.7,1.7
			c0.9,0,1.7-0.7,1.7-1.7V239.8z M36.7,239.8"/>
		<path id="XMLID_21152_" class="st1" d="M43.3,219.8c0-0.9-0.7-1.7-1.7-1.7c-0.9,0-1.7,0.7-1.7,1.7v3.3c0,0.9,0.7,1.7,1.7,1.7
			c0.9,0,1.7-0.7,1.7-1.7V219.8z M43.3,219.8"/>
		<path id="XMLID_21156_" class="st1" d="M43.3,209.8c0-0.9-0.7-1.7-1.7-1.7c-0.9,0-1.7,0.7-1.7,1.7v3.3c0,0.9,0.7,1.7,1.7,1.7
			c0.9,0,1.7-0.7,1.7-1.7V209.8z M43.3,209.8"/>
		<path id="XMLID_21161_" class="st1" d="M43.3,229.8c0-0.9-0.7-1.7-1.7-1.7c-0.9,0-1.7,0.7-1.7,1.7v3.3c0,0.9,0.7,1.7,1.7,1.7
			c0.9,0,1.7-0.7,1.7-1.7V229.8z M43.3,229.8"/>
		<path id="XMLID_21165_" class="st1" d="M41.7,238.2c-0.9,0-1.7,0.7-1.7,1.7v3.3c0,0.9,0.7,1.7,1.7,1.7c0.9,0,1.7-0.7,1.7-1.7v-3.3
			C43.3,238.9,42.6,238.2,41.7,238.2L41.7,238.2z M41.7,238.2"/>
		<path id="XMLID_21174_" class="st1" d="M43.3,199.8c0-0.9-0.7-1.7-1.7-1.7c-0.9,0-1.7,0.7-1.7,1.7v3.3c0,0.9,0.7,1.7,1.7,1.7
			c0.9,0,1.7-0.7,1.7-1.7V199.8z M43.3,199.8"/>
		<path id="XMLID_21196_" class="st1" d="M36.7,249.8c0-0.9-0.7-1.7-1.7-1.7c-0.9,0-1.7,0.7-1.7,1.7v3.3c0,0.9,0.7,1.7,1.7,1.7
			c0.9,0,1.7-0.7,1.7-1.7V249.8z M36.7,249.8"/>
		<path id="XMLID_21200_" class="st1" d="M21.7,218.2c0.9,0,1.7-0.7,1.7-1.7v-12.3l5.7-2.9c0.6-0.3,0.9-0.9,0.9-1.5v-14l8.3-4.2
			l8.3,4.2v14c0,0.9,0.7,1.7,1.7,1.7c0.9,0,1.7-0.7,1.7-1.7v-15c0-0.6-0.4-1.2-0.9-1.5l-9.1-4.5v-2.3c0-0.9-0.7-1.7-1.7-1.7
			c-0.9,0-1.7,0.7-1.7,1.7v2.3l-9.1,4.5c-0.6,0.3-0.9,0.9-0.9,1.5v14l-5.7,2.9c-0.6,0.3-0.9,0.9-0.9,1.5v13.3
			C20,217.4,20.7,218.2,21.7,218.2L21.7,218.2z M21.7,218.2"/>
		<path id="XMLID_21205_" class="st1" d="M36.7,229.8c0-0.9-0.7-1.7-1.7-1.7c-0.9,0-1.7,0.7-1.7,1.7v3.3c0,0.9,0.7,1.7,1.7,1.7
			c0.9,0,1.7-0.7,1.7-1.7V229.8z M36.7,229.8"/>
		<path id="XMLID_21209_" class="st1" d="M35,258.2c-0.9,0-1.7,0.7-1.7,1.7v6.7c0,0.9,0.7,1.7,1.7,1.7c0.9,0,1.7-0.7,1.7-1.7v-6.7
			C36.7,258.9,35.9,258.2,35,258.2L35,258.2z M35,258.2"/>
		<path id="XMLID_21213_" class="st1" d="M43.3,189.8c0-0.9-0.7-1.7-1.7-1.7c-0.9,0-1.7,0.7-1.7,1.7v3.3c0,0.9,0.7,1.7,1.7,1.7
			c0.9,0,1.7-0.7,1.7-1.7V189.8z M43.3,189.8"/>
		<path id="XMLID_21240_" class="st1" d="M36.7,219.8c0-0.9-0.7-1.7-1.7-1.7c-0.9,0-1.7,0.7-1.7,1.7v3.3c0,0.9,0.7,1.7,1.7,1.7
			c0.9,0,1.7-0.7,1.7-1.7V219.8z M36.7,219.8"/>
	</g>
	<path id="XMLID_21244_" class="st3" d="M263.3,262.5c-2.5,0-4.5,2-4.5,4.5c0,2.5,2,4.5,4.5,4.5h12.3c1.9,0,3.4-1.5,3.4-3.4
		c0-1.5-1-2.8-2.3-3.2l0,0c-0.5-2.6-2.8-4.6-5.5-4.6c-2.2,0-4.1,1.3-5,3.1c-0.2-0.1-0.4-0.2-0.6-0.3 M275.6,269.3h-12.3
		c-1.2,0-2.2-1-2.2-2.2s1-2.2,2.2-2.2c1,0,2,0.6,2.3,1.5c0.2,0.5,0.7,0.8,1.2,0.7c0.5-0.1,0.9-0.6,0.9-1.1c0-1.9,1.5-3.4,3.4-3.4
		c1.9,0,3.4,1.5,3.4,3.4c0,0.6,0.5,1.1,1.1,1.1c0.6,0,1.1,0.5,1.1,1.1C276.7,268.8,276.2,269.3,275.6,269.3L275.6,269.3z
		 M275.6,269.3"/>
	<path id="XMLID_21250_" class="st1" d="M324.9,214.3h-21.3c-0.6,0-1.1,0.5-1.1,1.1c0,0.6,0.5,1.1,1.1,1.1h20.2v24.2l-30.6-30.6
		c-0.2-0.2-0.5-0.3-0.8-0.3c-0.3,0-0.6,0.1-0.8,0.3L261,240.7v-24.2h12.3c0.6,0,1.1-0.5,1.1-1.1v-4.5c0-0.6-0.5-1.1-1.1-1.1h-1.1
		v-2.2h6.7v2.2h-1.1c-0.6,0-1.1,0.5-1.1,1.1v4.5c0,0.6,0.5,1.1,1.1,1.1h3.4c0.6,0,1.1-0.5,1.1-1.1c0-0.6-0.5-1.1-1.1-1.1H279V212
		h1.1c0.6,0,1.1-0.5,1.1-1.1v-4.5c0-0.6-0.5-1.1-1.1-1.1h-9c-0.6,0-1.1,0.5-1.1,1.1v4.5c0,0.6,0.5,1.1,1.1,1.1h1.1v2.2h-12.3
		c-0.3,0-0.6,0.1-0.8,0.3c-0.2,0.2-0.3,0.5-0.3,0.8l0,28c0,0.5,0.3,0.9,0.7,1c0.1,0.1,0.3,0.1,0.4,0.1c0.3,0,0.6-0.1,0.8-0.3
		l31.7-31.7l31.7,31.7c0.2,0.2,0.5,0.3,0.8,0.3c0.1,0,0.3,0,0.4-0.1c0.4-0.2,0.7-0.6,0.7-1v-28C326,214.8,325.5,214.3,324.9,214.3
		L324.9,214.3z M324.9,214.3"/>
	<path id="XMLID_21254_" class="st1" d="M296.9,227.7c0-2.5-2-4.5-4.5-4.5c-2.5,0-4.5,2-4.5,4.5c0,2.5,2,4.5,4.5,4.5
		C294.9,232.2,296.9,230.2,296.9,227.7L296.9,227.7z M290.2,227.7c0-1.2,1-2.2,2.2-2.2c1.2,0,2.2,1,2.2,2.2c0,1.2-1,2.2-2.2,2.2
		S290.2,228.9,290.2,227.7L290.2,227.7z M290.2,227.7"/>
	<g id="XMLID_22381_">
		<path id="XMLID_22382_" class="st1" d="M313.7,243.4h-9c-0.6,0-1.1,0.5-1.1,1.1v12.3h-1.1c-0.6,0-1.1,0.5-1.1,1.1
			c0,0.6,0.5,1.1,1.1,1.1h13.4c0.6,0,1.1-0.5,1.1-1.1c0-0.6-0.5-1.1-1.1-1.1h-1.1v-12.3C314.8,243.9,314.3,243.4,313.7,243.4
			L313.7,243.4z M312.6,256.8h-6.7v-4.5h6.7V256.8z M312.6,250.1h-6.7v-4.5h6.7V250.1z M312.6,250.1"/>
		<path id="XMLID_22396_" class="st1" d="M299.1,271.5v-21.3c0-0.6-0.5-1.1-1.1-1.1h-11.2c-0.6,0-1.1,0.5-1.1,1.1v21.3H299.1z
			 M296.9,260.3h-1.1c-0.6,0-1.1,0.5-1.1,1.1c0,0.6,0.5,1.1,1.1,1.1h1.1v9h-9v-20.2h9V260.3z M296.9,260.3"/>
		<path id="XMLID_22456_" class="st1" d="M280.1,243.4h-9c-0.6,0-1.1,0.5-1.1,1.1v12.3h-1.1c-0.6,0-1.1,0.5-1.1,1.1
			c0,0.6,0.5,1.1,1.1,1.1h13.4c0.6,0,1.1-0.5,1.1-1.1c0-0.6-0.5-1.1-1.1-1.1h-1.1v-12.3C281.2,243.9,280.7,243.4,280.1,243.4
			L280.1,243.4z M279,256.8h-6.7v-4.5h6.7V256.8z M279,250.1h-6.7v-4.5h6.7V250.1z M279,250.1"/>
	</g>
	<line id="XMLID_22466_" class="st4" x1="263.9" y1="243.2" x2="263.9" y2="261.4"/>
	<path id="XMLID_22467_" class="st3" d="M318.5,263.1c-0.2,0.1-0.4,0.2-0.6,0.3c-0.9-1.9-2.8-3.1-5-3.1c-2.8,0-5.1,2-5.5,4.6l0,0
		c-1.3,0.4-2.3,1.7-2.3,3.2c0,1.9,1.5,3.4,3.4,3.4h12.3c2.5,0,4.5-2,4.5-4.5c0-2.5-2-4.5-4.5-4.5 M308.4,269.3
		c-0.6,0-1.1-0.5-1.1-1.1c0-0.6,0.5-1.1,1.1-1.1c0.6,0,1.1-0.5,1.1-1.1c0-1.9,1.5-3.4,3.4-3.4c1.9,0,3.4,1.5,3.4,3.4
		c0,0.5,0.4,1,0.9,1.1c0.5,0.1,1.1-0.2,1.2-0.7c0.3-0.9,1.3-1.5,2.3-1.5c1.2,0,2.2,1,2.2,2.2s-1,2.2-2.2,2.2H308.4L308.4,269.3z
		 M308.4,269.3"/>
	<line id="XMLID_22474_" class="st4" x1="320.2" y1="243.2" x2="320.2" y2="261.4"/>
	<g id="XMLID_22488_">
		<g id="XMLID_20_">
			<line id="XMLID_25_" class="st4" x1="292.4" y1="201.5" x2="291.4" y2="199.2"/>
			<line id="XMLID_24_" class="st5" x1="289.5" y1="194.5" x2="239.2" y2="75"/>
			<polyline id="XMLID_23_" class="st4" points="238.2,72.6 237.3,70.3 236.3,72.6 			"/>
			<line id="XMLID_22_" class="st6" x1="234.5" y1="77.1" x2="183.4" y2="200.7"/>
			<line id="XMLID_21_" class="st4" x1="182.5" y1="203" x2="181.5" y2="205.3"/>
		</g>
	</g>
	<g id="XMLID_22504_">
		<g id="XMLID_13_">
			<line id="XMLID_18_" class="st4" x1="75" y1="181.3" x2="76" y2="179"/>
			<line id="XMLID_17_" class="st7" x1="77.9" y1="174.4" x2="119.7" y2="74.9"/>
			<polyline id="XMLID_16_" class="st4" points="120.7,72.6 121.6,70.3 122.6,72.6 			"/>
			<line id="XMLID_15_" class="st6" x1="124.4" y1="77.1" x2="175.5" y2="200.7"/>
			<line id="XMLID_14_" class="st4" x1="176.4" y1="203" x2="177.4" y2="205.3"/>
		</g>
	</g>
</g>
</svg>
