<?xml version="1.0" encoding="utf-8"?>
<!-- Generator: Adobe Illustrator 19.0.0, SVG Export Plug-In . SVG Version: 6.00 Build 0)  -->
<svg version="1.1" id="Capa_1" xmlns="http://www.w3.org/2000/svg" xmlns:xlink="http://www.w3.org/1999/xlink" x="0px" y="0px"
	 viewBox="388.5 343.4 379.9 305.3" style="enable-background:new 388.5 343.4 379.9 305.3;" xml:space="preserve">
<style type="text/css">
	.st0{fill:url(#SVGID_1_);}
	.st1{fill:#262626;}
	.st2{fill:url(#SVGID_2_);}
	.st3{fill:url(#SVGID_3_);}
	.st4{fill:#303030;}
	.st5{fill:url(#SVGID_4_);}
	.st6{fill:url(#SVGID_5_);}
	.st7{fill:url(#SVGID_6_);}
	.st8{fill:url(#SVGID_7_);}
	.st9{fill:url(#SVGID_8_);}
	.st10{fill:url(#SVGID_9_);stroke:#454545;stroke-linejoin:bevel;stroke-miterlimit:10;}
	.st11{fill:url(#SVGID_10_);}
	.st12{fill:url(#SVGID_11_);}
	.st13{fill:#7E7E7E;}
	.st14{fill:url(#SVGID_12_);}
	.st15{fill:url(#SVGID_13_);}
	.st16{fill:#5F964C;}
	.st17{fill:url(#SVGID_14_);}
	.st18{fill:url(#SVGID_15_);}
	.st19{fill:url(#SVGID_16_);}
	.st20{fill:url(#SVGID_17_);}
</style>
<g>
	
		<linearGradient id="SVGID_1_" gradientUnits="userSpaceOnUse" x1="136.4979" y1="678.5042" x2="136.4979" y2="308.5042" gradientTransform="matrix(0.75 0 0 -0.75 625.1031 867.8754)">
		<stop  offset="0.24" style="stop-color:#303030"/>
		<stop  offset="1" style="stop-color:#696969"/>
	</linearGradient>
	<path class="st0" d="M730.9,359l37.5,12v241.5l-36,24L686.6,470L730.9,359z"/>
	<path class="st1" d="M678.1,355.4l53.3,3.8l0.8,277.5h-59.3L678.1,355.4z"/>
	<path class="st1" d="M525.6,377h12.8v220.5h-13.5L525.6,377z"/>
	
		<linearGradient id="SVGID_2_" gradientUnits="userSpaceOnUse" x1="95.5013" y1="678.5045" x2="95.5013" y2="362.5045" gradientTransform="matrix(0.75 0 0 -0.75 478.6943 878.3326)">
		<stop  offset="0.8" style="stop-color:#303030"/>
		<stop  offset="1" style="stop-color:#454545"/>
	</linearGradient>
	<path class="st2" d="M540.2,374l20.3-4.5v237l-20.3-5.3V374z"/>
	
		<linearGradient id="SVGID_3_" gradientUnits="userSpaceOnUse" x1="88.4995" y1="678.5056" x2="88.4995" y2="378.5056" gradientTransform="matrix(0.75 0 0 -0.75 457.0238 884.5287)">
		<stop  offset="0" style="stop-color:#696969"/>
		<stop  offset="0.23" style="stop-color:#9B9B9B"/>
		<stop  offset="1" style="stop-color:#696969"/>
	</linearGradient>
	<path class="st3" d="M521.5,375.6l6.8,0.8v222.8l-9.8,1.5L521.5,375.6z"/>
	<path class="st4" d="M465.3,376.9l33-3.8v229.5l-39-5.3L465.3,376.9z"/>
	
		<linearGradient id="SVGID_4_" gradientUnits="userSpaceOnUse" x1="111.4976" y1="678.5045" x2="111.4976" y2="271.5045" gradientTransform="matrix(0.75 0 0 -0.75 574.3611 852.2428)">
		<stop  offset="0" style="stop-color:#7E7E7E"/>
		<stop  offset="1" style="stop-color:#696969"/>
	</linearGradient>
	<path class="st5" d="M666.6,343.4l13.5,3l-0.8,299.3l-12.8,3l-30.8-142.5L666.6,343.4z"/>
	
		<linearGradient id="SVGID_5_" gradientUnits="userSpaceOnUse" x1="114.4987" y1="678.5049" x2="114.4987" y2="349.5049" gradientTransform="matrix(0.75 0 0 -0.75 370.3408 875.0712)">
		<stop  offset="0" style="stop-color:#7E7E7E"/>
		<stop  offset="1" style="stop-color:#696969"/>
	</linearGradient>
	<path class="st6" d="M470.8,366.2h8.3l1.5,246.8h-9.8l-39-216L470.8,366.2z"/>
	
		<linearGradient id="SVGID_6_" gradientUnits="userSpaceOnUse" x1="28.6485" y1="614.9226" x2="255.2" y2="424.8233" gradientTransform="matrix(0.75 0 0 -0.75 327 875.0712)">
		<stop  offset="0.21" style="stop-color:#303030"/>
		<stop  offset="0.4" style="stop-color:#595959"/>
		<stop  offset="0.86" style="stop-color:#303030"/>
	</linearGradient>
	<path class="st7" d="M388.5,375.9v222l82.5,15V366.2L388.5,375.9z"/>
	
		<linearGradient id="SVGID_7_" gradientUnits="userSpaceOnUse" x1="89.4982" y1="678.5021" x2="89.4982" y2="312.5021" gradientTransform="matrix(0.75 0 0 -0.75 494.6811 863.3308)">
		<stop  offset="0" style="stop-color:#696969"/>
		<stop  offset="0.23" style="stop-color:#9B9B9B"/>
		<stop  offset="1" style="stop-color:#696969"/>
	</linearGradient>
	<path class="st8" d="M565.9,354.5l-8.3,3l-1.5,269.3l11.3,2.3L565.9,354.5z"/>
	
		<linearGradient id="SVGID_8_" gradientUnits="userSpaceOnUse" x1="16.9522" y1="600.9835" x2="298.3423" y2="364.8692" gradientTransform="matrix(0.75 0 0 -0.75 501.6332 852.2428)">
		<stop  offset="0.21" style="stop-color:#303030"/>
		<stop  offset="0.38" style="stop-color:#595959"/>
		<stop  offset="0.75" style="stop-color:#303030"/>
	</linearGradient>
	<path class="st9" d="M566.1,354.6l100.5-11.3v305.3l-103.5-20.3L566.1,354.6z"/>
	
		<linearGradient id="SVGID_9_" gradientUnits="userSpaceOnUse" x1="81.9984" y1="525.0063" x2="114.9984" y2="525.0063" gradientTransform="matrix(0.75 0 0 -0.75 436.1379 881.9199)">
		<stop  offset="0" style="stop-color:#7E7E7E"/>
		<stop  offset="0.45" style="stop-color:#454545"/>
	</linearGradient>
	<path class="st10" d="M497.6,373l24.8,2.3v224.3l-24.8,3.8V373z"/>
	
		<linearGradient id="SVGID_10_" gradientUnits="userSpaceOnUse" x1="86.0002" y1="678.5032" x2="86.0002" y2="375.5032" gradientTransform="matrix(0.75 0 0 -0.75 472.7498 882.8981)">
		<stop  offset="0" style="stop-color:#696969"/>
		<stop  offset="0.23" style="stop-color:#9B9B9B"/>
		<stop  offset="1" style="stop-color:#696969"/>
	</linearGradient>
	<path class="st11" d="M534.3,375.5l6-1.5v227.3l-6-1.5V375.5z"/>
	
		<linearGradient id="SVGID_11_" gradientUnits="userSpaceOnUse" x1="84.9982" y1="678.5057" x2="84.9982" y2="634.5057" gradientTransform="matrix(0.75 0 0 -0.75 486.6225 974.2125)">
		<stop  offset="0" style="stop-color:#696969"/>
		<stop  offset="0.23" style="stop-color:#AFAFAF"/>
		<stop  offset="1" style="stop-color:#696969"/>
	</linearGradient>
	<path class="st12" d="M548.1,465.3h4.5v33h-4.5V465.3z"/>
	<path class="st4" d="M496.4,452.5h26.3v65.3h-26.3V452.5z"/>
	<path class="st13" d="M421.3,415.8H437v171.8l-15.8-3V415.8z"/>
	
		<linearGradient id="SVGID_12_" gradientUnits="userSpaceOnUse" x1="88.5005" y1="678.5033" x2="88.5005" y2="450.5033" gradientTransform="matrix(0.75 0 0 -0.75 366.1129 925.1911)">
		<stop  offset="0.81" style="stop-color:#303030"/>
		<stop  offset="1" style="stop-color:#454545"/>
	</linearGradient>
	<path class="st14" d="M437.4,416.3h-9.8v169.5l9.8,1.5V416.3z"/>
	
		<linearGradient id="SVGID_13_" gradientUnits="userSpaceOnUse" x1="100.0003" y1="678.5022" x2="100.0003" y2="399.5022" gradientTransform="matrix(0.75 0 0 -0.75 538.0623 914.8583)">
		<stop  offset="0" style="stop-color:#7F7F7F"/>
		<stop  offset="1" style="stop-color:#D8D8D8"/>
	</linearGradient>
	<path class="st15" d="M599.6,408.2l27-2.3v209.3l-27-3.8V408.2z"/>
	<path class="st16" d="M608.5,413.2l12.8-0.8V609l-12.8-1.5V413.2z"/>
	
		<linearGradient id="SVGID_14_" gradientUnits="userSpaceOnUse" x1="86.9998" y1="678.5024" x2="86.9998" y2="304.5024" gradientTransform="matrix(0.75 0 0 -0.75 626.7501 864.7021)">
		<stop  offset="0" style="stop-color:#696969"/>
		<stop  offset="0.23" style="stop-color:#9B9B9B"/>
		<stop  offset="1" style="stop-color:#696969"/>
	</linearGradient>
	<path class="st17" d="M688.3,355.8v280.5h6.8l0.8-279.8L688.3,355.8z"/>
	
		<linearGradient id="SVGID_15_" gradientUnits="userSpaceOnUse" x1="86.5001" y1="678.5028" x2="86.5001" y2="306.5028" gradientTransform="matrix(0.75 0 0 -0.75 641.8749 865.9329)">
		<stop  offset="0" style="stop-color:#696969"/>
		<stop  offset="0.23" style="stop-color:#9B9B9B"/>
		<stop  offset="1" style="stop-color:#696969"/>
	</linearGradient>
	<path class="st18" d="M703.4,357.1v279h6.8V357.8L703.4,357.1z"/>
	
		<linearGradient id="SVGID_16_" gradientUnits="userSpaceOnUse" x1="85.9999" y1="678.5046" x2="85.9999" y2="307.5046" gradientTransform="matrix(0.75 0 0 -0.75 655.9688 867.0671)">
		<stop  offset="0" style="stop-color:#696969"/>
		<stop  offset="0.23" style="stop-color:#9B9B9B"/>
		<stop  offset="1" style="stop-color:#696969"/>
	</linearGradient>
	<path class="st19" d="M717.5,358.2v278.3h6V358.9L717.5,358.2z"/>
	
		<linearGradient id="SVGID_17_" gradientUnits="userSpaceOnUse" x1="97.4989" y1="678.5042" x2="97.4989" y2="593.5042" gradientTransform="matrix(0.75 0 0 -0.75 436.4501 962.1801)">
		<stop  offset="0" style="stop-color:#595959"/>
		<stop  offset="0.45" style="stop-color:#454545"/>
	</linearGradient>
	<path class="st20" d="M497.9,453.3h23.3v63.8h-23.3V453.3z"/>
</g>
</svg>
