<?xml version="1.0" encoding="utf-8"?>
<!-- Generator: Adobe Illustrator 19.0.0, SVG Export Plug-In . SVG Version: 6.00 Build 0)  -->
<svg version="1.1" id="Capa_1" xmlns="http://www.w3.org/2000/svg" xmlns:xlink="http://www.w3.org/1999/xlink" x="0px" y="0px"
	 viewBox="0 0 432.7 236.7" style="enable-background:new 0 0 432.7 236.7;" xml:space="preserve">
<style type="text/css">
	.st0{fill:#3D4752;}
	.st1{fill:#FFFFFF;stroke:#3D4752;stroke-width:3.1372;stroke-miterlimit:10;}
	.st2{fill:#3D4752;stroke:#3D4752;stroke-width:3.1372;stroke-miterlimit:10;}
	.st3{fill:#FFFFFF;}
	.st4{fill:none;stroke:#3D4752;stroke-width:3.1372;stroke-miterlimit:10;}
</style>
<g id="XMLID_356_">
	<rect id="XMLID_6558_" x="1.6" y="117.9" class="st0" width="429.6" height="3.1"/>
	<g id="XMLID_7328_">
		<path id="XMLID_7336_" class="st1" d="M66,4.6c0-1.6,0.4-3,0.8-3h27.1c0.5,0,0.8,1.3,0.8,3v66.6c0,1.7-0.4,3-0.8,3h-27
			c-0.5,0-0.8-1.3-0.8-3L66,4.6z"/>
		<path id="XMLID_7334_" class="st1" d="M36,63.9c0-0.2,0.1-0.3,0.3-0.3l0,0h9.1c0.2,0,0.3,0.1,0.3,0.3c0,0,0,0,0,0v6.3
			c0,0.2-0.1,0.3-0.3,0.3l0,0h-9.2c-0.2,0-0.3-0.1-0.3-0.3c0,0,0,0,0,0L36,63.9z"/>
		<path id="XMLID_7333_" class="st2" d="M1.6,15.6c0.1-1.2,1.1-2.1,2.3-2.1h72.9c1.2-0.1,2.2,0.9,2.3,2.1v46c0,1.2-1,2.1-2.2,2.1
			c0,0,0,0-0.1,0H3.9c-1.2,0.1-2.2-0.8-2.3-2c0,0,0,0,0-0.1V15.6z"/>
		<path id="XMLID_7331_" class="st1" d="M3.7,81.5h77c1.1-0.1,1.9-1,1.8-2c0-0.2-0.1-0.4-0.1-0.6l-4.2-8.7c-0.3-0.6-0.9-1-1.5-1
			L6.3,69.3c-0.7,0-1.4,0.5-1.6,1.2l-2.6,8.9c-0.2,0.9,0.3,1.8,1.2,2.1C3.4,81.4,3.5,81.5,3.7,81.5z"/>
		<path id="XMLID_7330_" class="st3" d="M7.1,21c0.1-1,1-1.7,2-1.6h62.1c1-0.1,1.8,0.6,2,1.6v35.7c-0.1,1-1,1.7-1.9,1.6c0,0,0,0,0,0
			l-62.1,0c-1,0.1-1.9-0.6-2-1.5c0,0,0,0,0-0.1V21z"/>
	</g>
	<g id="XMLID_6566_">
		<path id="XMLID_6571_" class="st1" d="M402.4,4.6c0-1.6,0.4-3,0.8-3h27c0.5,0,0.8,1.3,0.8,3v66.6c0,1.7-0.4,3-0.8,3h-27
			c-0.5,0-0.8-1.3-0.8-3V4.6z"/>
		<path id="XMLID_6570_" class="st1" d="M372.4,64c0-0.2,0.1-0.3,0.3-0.3c0,0,0,0,0,0h9.1c0.2,0,0.3,0.1,0.3,0.3c0,0,0,0,0,0v6.3
			c0,0.2-0.1,0.3-0.3,0.3l0,0h-9.1c-0.2,0-0.3-0.1-0.3-0.3c0,0,0,0,0,0V64z"/>
		<path id="XMLID_6569_" class="st2" d="M338,15.6c0.1-1.2,1.1-2.1,2.3-2.1h72.9c1.2-0.1,2.2,0.9,2.3,2.1v46c0,1.2-1,2.1-2.2,2.1
			c0,0,0,0-0.1,0h-72.9c-1.2,0.1-2.2-0.8-2.3-2c0,0,0,0,0-0.1L338,15.6z"/>
		<path id="XMLID_6568_" class="st1" d="M340.1,81.5h77c1.1-0.1,1.9-1,1.8-2c0-0.2-0.1-0.4-0.1-0.6l-4.2-8.7c-0.3-0.6-0.9-1-1.5-1
			l-70.3,0.1c-0.7,0-1.4,0.5-1.6,1.2l-2.6,8.9c-0.2,0.9,0.3,1.8,1.2,2C339.9,81.4,340,81.5,340.1,81.5z"/>
		<path id="XMLID_6567_" class="st3" d="M343.5,21c0.1-1,1-1.7,2-1.6h62.1c1-0.1,1.8,0.6,2,1.6v35.7c-0.1,1-1,1.7-1.9,1.6
			c0,0,0,0,0,0h-62c-1,0.1-1.9-0.6-2-1.6c0,0,0,0,0,0L343.5,21z"/>
	</g>
	<g id="XMLID_6560_">
		<path id="XMLID_6565_" class="st1" d="M234.2,4.6c0-1.6,0.4-3,0.8-3h27c0.5,0,0.8,1.3,0.8,3v66.6c0,1.7-0.4,3-0.8,3h-27
			c-0.5,0-0.8-1.3-0.8-3V4.6z"/>
		<path id="XMLID_6564_" class="st1" d="M204.2,63.9c0-0.2,0.1-0.3,0.3-0.3c0,0,0,0,0,0l9.1,0c0.2,0,0.3,0.1,0.3,0.3c0,0,0,0,0,0
			v6.3c0,0.2-0.1,0.3-0.3,0.3c0,0,0,0,0,0h-9.1c-0.2,0-0.3-0.1-0.3-0.3c0,0,0,0,0,0V63.9z"/>
		<path id="XMLID_6563_" class="st2" d="M169.8,15.6c0.1-1.2,1.1-2.1,2.3-2.1H245c1.2-0.1,2.2,0.9,2.3,2.1v46c0,1.2-1,2.1-2.2,2.1
			c0,0,0,0-0.1,0h-72.9c-1.2,0.1-2.2-0.8-2.3-2c0,0,0,0,0-0.1L169.8,15.6z"/>
		<path id="XMLID_6562_" class="st1" d="M171.9,81.5h77c1.1-0.1,1.9-1,1.8-2c0-0.2-0.1-0.4-0.1-0.6l-4.2-8.7c-0.3-0.6-0.9-1-1.5-1
			l-70.3,0.1c-0.7,0-1.4,0.5-1.6,1.2l-2.6,8.9c-0.2,0.9,0.3,1.8,1.2,2.1C171.6,81.4,171.7,81.5,171.9,81.5z"/>
		<path id="XMLID_6561_" class="st3" d="M175.4,21c0.1-1,1-1.7,2-1.6h62.1c1-0.1,1.8,0.6,2,1.6v35.7c-0.1,1-1,1.7-1.9,1.6
			c0,0,0,0,0,0l-62.1,0c-1,0.1-1.9-0.6-2-1.6c0,0,0,0,0,0V21z"/>
	</g>
	<g id="XMLID_7352_">
		<path id="XMLID_7361_" class="st1" d="M200,158.2c0-1.6,0.4-3,0.8-3h27.1c0.5,0,0.8,1.3,0.8,3v66.6c0,1.7-0.4,3-0.8,3h-27
			c-0.5,0-0.8-1.3-0.8-3L200,158.2z"/>
		<path id="XMLID_7359_" class="st1" d="M169.9,217.6c0-0.2,0.1-0.3,0.3-0.3c0,0,0,0,0,0h9.1c0.2,0,0.3,0.1,0.3,0.3c0,0,0,0,0,0v6.3
			c0,0.2-0.1,0.3-0.3,0.3c0,0,0,0,0,0h-9.2c-0.2,0-0.3-0.1-0.3-0.3c0,0,0,0,0,0L169.9,217.6z"/>
		<path id="XMLID_7358_" class="st2" d="M135.5,169.3c0.1-1.2,1.1-2.1,2.3-2.1h72.9c1.2-0.1,2.2,0.9,2.3,2.1v46c0,1.2-1,2.1-2.2,2.1
			c0,0,0,0-0.1,0h-72.9c-1.2,0.1-2.2-0.8-2.3-2c0,0,0,0,0-0.1V169.3z"/>
		<path id="XMLID_7355_" class="st1" d="M137.6,235.1h77c1.1-0.1,1.9-1,1.8-2c0-0.2-0.1-0.4-0.1-0.6l-4.2-8.7c-0.3-0.6-0.9-1-1.5-1
			l-70.3,0.1c-0.7,0-1.4,0.5-1.6,1.2l-2.6,8.9c-0.2,0.9,0.3,1.8,1.2,2.1C137.4,235.1,137.5,235.1,137.6,235.1z"/>
		<path id="XMLID_7354_" class="st3" d="M141.1,174.6c0.1-1,1-1.7,2-1.6h62.1c1-0.1,1.8,0.6,2,1.6v35.7c-0.1,1-1,1.7-1.9,1.6
			c0,0,0,0,0,0H143c-1,0.1-1.9-0.6-2-1.5c0,0,0,0,0-0.1V174.6z"/>
	</g>
	<g id="XMLID_7337_">
		<path id="XMLID_7351_" class="st1" d="M368.2,158.2c0-1.6,0.4-3,0.8-3h27c0.5,0,0.8,1.3,0.8,3v66.6c0,1.7-0.4,3-0.8,3h-27
			c-0.5,0-0.8-1.3-0.8-3V158.2z"/>
		<path id="XMLID_7349_" class="st1" d="M338.2,217.6c0-0.2,0.1-0.3,0.3-0.3c0,0,0,0,0,0h9.1c0.2,0,0.3,0.1,0.3,0.3c0,0,0,0,0,0v6.3
			c0,0.2-0.1,0.3-0.3,0.3c0,0,0,0,0,0h-9.1c-0.2,0-0.3-0.1-0.3-0.3c0,0,0,0,0,0V217.6z"/>
		<path id="XMLID_7348_" class="st2" d="M303.8,169.3c0.1-1.2,1.1-2.1,2.3-2.1h72.9c1.2-0.1,2.2,0.9,2.3,2.1v46c0,1.2-1,2.1-2.2,2.1
			c0,0,0,0-0.1,0h-72.9c-1.2,0.1-2.2-0.8-2.3-2c0,0,0,0,0-0.1L303.8,169.3z"/>
		<path id="XMLID_7346_" class="st1" d="M305.8,235.1h77c1.1-0.1,1.9-1,1.8-2c0-0.2-0.1-0.4-0.1-0.6l-4.2-8.7c-0.3-0.6-0.9-1-1.5-1
			l-70.3,0.1c-0.7,0-1.4,0.5-1.6,1.2l-2.6,8.9c-0.2,0.9,0.3,1.8,1.2,2.1C305.6,235.1,305.7,235.1,305.8,235.1z"/>
		<path id="XMLID_7342_" class="st3" d="M309.3,174.6c0.1-1,1-1.7,2-1.6h62.1c1-0.1,1.8,0.6,2,1.6v35.7c-0.1,1-1,1.7-1.9,1.6
			c0,0,0,0,0,0h-62.1c-1,0.1-1.9-0.6-2-1.6c0,0,0,0,0,0V174.6z"/>
	</g>
	<line id="XMLID_7362_" class="st4" x1="40.1" y1="81.5" x2="66" y2="119.5"/>
	<line id="XMLID_7366_" class="st4" x1="138.8" y1="118.2" x2="175.4" y2="171.2"/>
	<line id="XMLID_7367_" class="st4" x1="306.5" y1="118.2" x2="343" y2="171.2"/>
	<line id="XMLID_7364_" class="st4" x1="210.2" y1="81.5" x2="236.1" y2="119.5"/>
	<line id="XMLID_7365_" class="st4" x1="379.8" y1="81.5" x2="405.7" y2="119.5"/>
</g>
</svg>
