<?xml version="1.0" encoding="utf-8"?>
<!-- Generator: Adobe Illustrator 19.0.0, SVG Export Plug-In . SVG Version: 6.00 Build 0)  -->
<svg version="1.1" id="Capa_1" xmlns="http://www.w3.org/2000/svg" xmlns:xlink="http://www.w3.org/1999/xlink" x="0px" y="0px"
	 viewBox="0 0 500.5 290.7" style="enable-background:new 0 0 500.5 290.7;" xml:space="preserve">
<style type="text/css">
	.st0{fill:none;stroke:#E28A16;stroke-width:0.963;stroke-miterlimit:10;stroke-dasharray:3.8518;}
	.st1{fill:none;stroke:#E28A16;stroke-width:1.1366;stroke-miterlimit:10;stroke-dasharray:4.5466;}
	.st2{fill:none;stroke:#3B85B1;stroke-width:1.5495;stroke-miterlimit:10;}
	.st3{fill:none;stroke:#DD1115;stroke-width:1.5495;stroke-miterlimit:10;}
	.st4{fill:#151515;}
	.st5{fill:#222222;}
	.st6{fill:#343434;}
	.st7{fill:#898989;}
	.st8{fill:#6F6E6E;}
	.st9{fill:#5C2B85;}
	.st10{fill:#DFDFDF;}
	.st11{fill:#1E1E1E;}
	.st12{fill:#373737;}
	.st13{fill:#ADACAC;}
	.st14{fill:#303031;}
	.st15{fill:#4E4E4E;}
	.st16{fill:#838383;}
	.st17{fill:#7A7A7A;}
	.st18{fill:#31509D;}
	.st19{fill:#515050;}
	.st20{fill:#A5C738;}
	.st21{fill:#424242;}
	.st22{fill:#323232;}
	.st23{fill:#3F3F3F;}
	.st24{fill:#414141;}
	.st25{fill:#68B32E;}
	.st26{fill:#A3A2A2;}
	.st27{fill:#BDBCBC;}
	.st28{fill:#E1E0E0;}
	.st29{fill:#FFFFFF;}
	.st30{fill:#E28A16;}
	.st31{fill:#9E391C;}
	.st32{fill:#0B84C7;}
	.st33{fill:#E8E8E9;}
	.st34{fill:#1D1D1B;}
	.st35{fill:#2B4C93;}
	.st36{fill:#283272;}
	.st37{fill:#293F91;}
</style>
<g id="XMLID_2776_">
	<rect id="XMLID_2500_" x="0.5" y="0.6" class="st0" width="95.5" height="289.6"/>
	<rect id="XMLID_2503_" x="133.6" y="0.6" class="st0" width="95.5" height="289.6"/>
	<rect id="XMLID_2506_" x="326.1" y="0.6" class="st1" width="133" height="289.6"/>
	<polyline id="XMLID_2782_" class="st2" points="46.3,84.4 105,84.4 105,69.1 171.2,69.1 	"/>
	<polyline id="XMLID_2784_" class="st2" points="47.6,163.2 113.1,163.2 113.1,77.1 168,77.1 	"/>
	<polyline id="XMLID_2785_" class="st2" points="46.1,229.5 122.4,229.5 122.4,86.5 176.6,86.5 	"/>
	<line id="XMLID_2781_" class="st2" x1="197" y1="160.5" x2="338.9" y2="160.5"/>
	<polyline id="XMLID_2779_" class="st2" points="181.4,76.8 237.6,76.8 237.6,133.2 338.9,133.2 	"/>
	<line id="XMLID_2790_" class="st3" x1="66.1" y1="239.8" x2="392" y2="239.8"/>
	<g id="XMLID_2504_">
		<polygon id="XMLID_4067_" class="st4" points="395.7,119.6 341.4,125.2 341.4,217.9 395.7,228.8 		"/>
		<polygon id="XMLID_4064_" class="st5" points="344.3,233.1 399.6,243.1 394,236.4 338.9,227.2 		"/>
		<polygon id="XMLID_4061_" class="st6" points="338.9,209 338.9,227.2 394,236.4 394,215.4 		"/>
		<polygon id="XMLID_4058_" class="st7" points="402.1,115.1 402.1,181.4 396.5,187.4 394,187.6 394,114.5 		"/>
		<polyline id="XMLID_4055_" class="st8" points="343.5,124.9 349.4,139 345.1,139.7 340.6,128.9 341.4,125.2 		"/>
		<polygon id="XMLID_4052_" class="st6" points="391.1,114.8 391.1,119.8 383.8,135.8 347,138.2 341.4,125.2 341.4,120.8 
			338.9,121.1 338.9,184.7 394,187.6 394,114.5 		"/>
		<polygon id="XMLID_4049_" class="st7" points="370.3,122 341.4,120.8 341.4,125.2 		"/>
		<path id="XMLID_4048_" class="st9" d="M394,215.4"/>
		<polygon id="XMLID_4045_" class="st10" points="394,215.4 394,236.4 399.6,243.1 395.7,215.2 		"/>
		<polygon id="XMLID_4042_" class="st11" points="395.7,215.2 341.4,208.6 338.9,209 394,215.4 		"/>
		<polygon id="XMLID_4039_" class="st12" points="440.5,239.7 399.6,243.1 395.7,215.2 395.7,187.5 396.5,187.4 402.1,181.4 
			402.1,115.1 438.7,117.1 438.7,180.6 444.4,186.4 444.4,213.3 		"/>
		<ellipse id="XMLID_4036_" class="st10" cx="421.4" cy="210.9" rx="3.5" ry="3.6"/>
		<polygon id="XMLID_2515_" class="st7" points="445.1,117.1 438.7,117.1 438.7,180.6 444.4,186.4 445.4,186.2 		"/>
		<polygon id="XMLID_2511_" class="st10" points="445.9,210.9 446.3,232.6 440.5,239.7 444.4,211 		"/>
		<polygon id="XMLID_2505_" class="st13" points="444.4,210.5 445.9,210.9 444.4,211 		"/>
	</g>
	<g id="XMLID_641_">
		<g id="XMLID_3398_" transform="matrix( 2.2337799072265625, 0, 0, 2.2337799072265625, -615.8,-92.35) ">
			<g id="XMLID_3399_">
				<g id="Layer0_160_MEMBER_0_MEMBER_244_FILL">
					<path id="XMLID_727_" class="st14" d="M390.3,65.2l-0.9-1.1l1.4,28.6l0.8,1.4L390.3,65.2z"/>
				</g>
			</g>
		</g>
		<g id="XMLID_3395_" transform="matrix( 2.2337799072265625, 0, 0, 2.2337799072265625, -615.8,-92.35) ">
			<g id="XMLID_3396_">
				<g id="Layer0_160_MEMBER_0_MEMBER_245_FILL">
					<path id="XMLID_726_" class="st15" d="M409.4,63.5l-5.6,3.1l0.4,29l5.3-4.3L409.4,63.5z"/>
				</g>
			</g>
		</g>
		<g id="XMLID_3386_" transform="matrix( 2.2337799072265625, 0, 0, 2.2337799072265625, -615.8,-92.35) ">
			<g id="XMLID_3387_">
				<g id="Layer0_160_MEMBER_0_MEMBER_246_FILL">
					<path id="XMLID_3388_" class="st16" d="M393.9,95l10.3,0.6l-0.4-29l-11.1-0.7L393.9,95 M398.3,76.5l0-0.1l0.1-0.1l0.1-0.1
						l0.2-0.1l0.2,0l0.1,0.1l0.2,0.2l0,0.1l0,0.1l0,0.1l-0.1,0.1l-0.1,0.1l-0.1,0.1l-0.2,0l-0.1,0l-0.1-0.1l-0.2-0.2L398.3,76.5
						L398.3,76.5z"/>
				</g>
			</g>
		</g>
		<g id="XMLID_3383_" transform="matrix( 2.2337799072265625, 0, 0, 2.2337799072265625, -615.8,-92.35) ">
			<g id="XMLID_3384_">
				<g id="Layer0_160_MEMBER_0_MEMBER_247_FILL">
					<path id="XMLID_719_" class="st17" d="M409.4,63.5l-13.8-2.3l-6.2,2.9l0.9,1.1l0.8,0l0.2-0.1l0.4-0.2l0.1,0l0.8,0l0.2,0
						l0.2,0.1l0,0.1l0,0.1l-0.5,0.3l0.3,0.2l0.1,0.2l-0.1,0.1l11.1,0.7L409.4,63.5z"/>
				</g>
			</g>
		</g>
		<g id="XMLID_3380_" transform="matrix( 2.2337799072265625, 0, 0, 2.2337799072265625, -615.8,-92.35) ">
			<g id="XMLID_3381_">
				<g id="Layer0_160_MEMBER_0_MEMBER_248_FILL">
					<path id="XMLID_718_" class="st18" d="M392.6,64.9l-0.8,0l-0.1,0l-0.4,0.2l-0.2,0.1l-0.3,0.2l0,0l-0.1,0l0,0.1l0,0l0.1,0.1l0,0
						l0.2-0.1l0.1,0l0.1,0l0.1,0l0.1,0l0.1,0l0,0l0,0l0,0l0,0l0,0l0,0l-0.1,0l0.1,0l0.4,0l0.3-0.1l0.8-0.4l0-0.1l0-0.1l-0.2-0.1
						L392.6,64.9z"/>
				</g>
			</g>
		</g>
		<g id="XMLID_3377_" transform="matrix( 2.2337799072265625, 0, 0, 2.2337799072265625, -615.8,-92.35) ">
			<g id="XMLID_3378_">
				<g id="Layer0_160_MEMBER_0_MEMBER_249_FILL">
					<path id="XMLID_717_" class="st18" d="M392.5,94.5l0.2,0l-1.3-28.8l0,0l0.1,0l0,0l0,0l0,0l0,0l0,0l0,0l-0.1,0l-0.1,0l-0.1,0
						l-0.1,0l-0.1,0l-0.2,0.1l1.3,29l0.1-0.1l0.1,0L392.5,94.5z"/>
				</g>
			</g>
		</g>
		<g id="XMLID_3374_" transform="matrix( 2.2337799072265625, 0, 0, 2.2337799072265625, -615.8,-92.35) ">
			<g id="XMLID_3375_">
				<g id="Layer0_160_MEMBER_0_MEMBER_250_FILL">
					<path id="XMLID_716_" class="st19" d="M391.1,65.2l-0.8,0l1.4,28.9l0.3,0l-1.3-28.6l0-0.1l0.1,0l0,0L391.1,65.2z"/>
				</g>
			</g>
		</g>
		<g id="XMLID_3371_" transform="matrix( 2.2337799072265625, 0, 0, 2.2337799072265625, -615.8,-92.35) ">
			<g id="XMLID_3372_">
				<g id="Layer0_160_MEMBER_0_MEMBER_251_FILL">
					<path id="XMLID_715_" class="st18" d="M390.7,65.5L390.7,65.5l1.3,29l0,0.1l0.1,0.1l0,0l-1.3-29L390.7,65.5L390.7,65.5z"/>
				</g>
			</g>
		</g>
		<g id="XMLID_3368_" transform="matrix( 2.2337799072265625, 0, 0, 2.2337799072265625, -615.8,-92.35) ">
			<g id="XMLID_3369_">
				<g id="Layer0_160_MEMBER_0_MEMBER_252_FILL">
					<path id="XMLID_714_" class="st18" d="M393.4,94.6l0.3-0.2l-1.2-29l-0.3,0.2l-0.3,0.1l-0.4,0l-0.1,0l1.3,29.1l0.1,0l0.2,0
						l0.2,0L393.4,94.6z"/>
				</g>
			</g>
		</g>
		<g id="XMLID_3365_" transform="matrix( 2.2337799072265625, 0, 0, 2.2337799072265625, -615.8,-92.35) ">
			<g id="XMLID_3366_">
				<g id="Layer0_160_MEMBER_0_MEMBER_253_FILL">
					<path id="XMLID_713_" class="st14" d="M393.7,94.5l0.2,0.2l-1.2-28.7l0.1-0.1l-0.1-0.2l-0.3-0.2L393.7,94.5L393.7,94.5z"/>
				</g>
			</g>
		</g>
		<g id="XMLID_3362_" transform="matrix( 2.2337799072265625, 0, 0, 2.2337799072265625, -615.8,-92.35) ">
			<g id="XMLID_3363_">
				<g id="Layer0_160_MEMBER_0_MEMBER_254_FILL">
					<path id="XMLID_712_" d="M394,71.8l8.8,0.5l0-0.8L394,71L394,71.8z"/>
				</g>
			</g>
		</g>
		<g id="XMLID_3359_" transform="matrix( 2.2337799072265625, 0, 0, 2.2337799072265625, -615.8,-92.35) ">
			<g id="XMLID_3360_">
				<g id="Layer0_160_MEMBER_0_MEMBER_255_FILL">
					<path id="XMLID_711_" class="st20" d="M398.3,76.4l0,0.1l0,0.1l0,0.1l0.2,0.2l0.1,0.1l0.1,0l0.2,0l0.1-0.1l0.1-0.1l0.1-0.1
						l0-0.1l0-0.1l0-0.1l-0.2-0.2l-0.1-0.1l-0.2,0l-0.2,0.1L398.3,76.4L398.3,76.4z"/>
				</g>
			</g>
		</g>
		<g id="XMLID_3356_" transform="matrix( 2.2337799072265625, 0, 0, 2.2337799072265625, -615.8,-92.35) ">
			<g id="XMLID_3357_">
				<g id="Layer0_160_MEMBER_0_MEMBER_256_FILL">
					<path id="XMLID_710_" d="M402.8,75.4l0-0.8l-8.7-0.5l0,0.8L402.8,75.4z"/>
				</g>
			</g>
		</g>
		<g id="XMLID_3353_" transform="matrix( 2.2337799072265625, 0, 0, 2.2337799072265625, -615.8,-92.35) ">
			<g id="XMLID_3354_">
				<g id="Layer0_160_MEMBER_0_MEMBER_257_FILL">
					<path id="XMLID_709_" d="M402.8,73l-8.7-0.5l0,0.8l8.7,0.5L402.8,73z"/>
				</g>
			</g>
		</g>
		<g id="XMLID_3350_" transform="matrix( 2.2337799072265625, 0, 0, 2.2337799072265625, -615.8,-92.35) ">
			<g id="XMLID_3351_">
				<g id="Layer0_160_MEMBER_0_MEMBER_258_FILL">
					<path id="XMLID_708_" d="M393.9,69.4l0,0.8l8.8,0.5l0-0.8L393.9,69.4z"/>
				</g>
			</g>
		</g>
	</g>
	<g id="XMLID_2_">
		<g id="XMLID_636_" transform="matrix( 2.2337799072265625, 0, 0, 2.2337799072265625, -615.8,-92.35) ">
			<g id="XMLID_637_">
				<g id="Layer0_160_MEMBER_0_MEMBER_259_FILL_1_">
					<path id="XMLID_638_" class="st21" d="M294.4,83.7l-0.1,0l-4.9-0.7l0.3,7.8l9.6,1.6l-0.2-7.8l-4.6-0.7L294.4,83.7 M294.1,87.1
						L294.1,87.1l0.1-0.1l0,0l0,0l0,0l0.1,0l0.3,0l0.1,0l0,0l0,0l0.1,0l0.1,0.1l0.1,0.2l0.1,0l0,0l0.1,0.1l0,0.1l0,0l0,0l0,0.1
						l0,0.1l0,0l0,0l0,0.1l0,0.1l0,0.1l0,0l0,0.1l0,0l-0.1,0.1l0,0l-0.1,0.1l0,0l0,0l0,0l0,0l-0.4,0l0,0l-0.1,0l0,0l-0.1,0l-0.1-0.1
						l-0.1,0l-0.1-0.1l0-0.1l-0.1-0.1l0,0l0-0.1l0,0l0,0l0-0.1l0,0l0-0.2l0,0l0,0l0,0l0-0.1L294.1,87.1z"/>
				</g>
			</g>
		</g>
		<g id="XMLID_633_" transform="matrix( 2.2337799072265625, 0, 0, 2.2337799072265625, -615.8,-92.35) ">
			<g id="XMLID_634_">
				<g id="Layer0_160_MEMBER_0_MEMBER_260_FILL_1_">
					<path id="XMLID_635_" class="st15" d="M299,75.6l6.5-5.5l0-2.4l-6.5,5.4L299,75.6z"/>
				</g>
			</g>
		</g>
		<g id="XMLID_602_" transform="matrix( 2.2337799072265625, 0, 0, 2.2337799072265625, -615.8,-92.35) ">
			<g id="XMLID_631_">
				<g id="Layer0_160_MEMBER_0_MEMBER_261_FILL_1_">
					<path id="XMLID_632_" class="st15" d="M299.2,75.4l0,0.3l6.1-5.2l0-0.3L299.2,75.4z"/>
				</g>
			</g>
		</g>
		<g id="XMLID_599_" transform="matrix( 2.2337799072265625, 0, 0, 2.2337799072265625, -615.8,-92.35) ">
			<g id="XMLID_600_">
				<g id="Layer0_160_MEMBER_0_MEMBER_262_FILL_1_">
					<path id="XMLID_601_" class="st15" d="M299.1,84l6.4-5.9l0-2.1l-6.5,5.8L299.1,84z"/>
				</g>
			</g>
		</g>
		<g id="XMLID_596_" transform="matrix( 2.2337799072265625, 0, 0, 2.2337799072265625, -615.8,-92.35) ">
			<g id="XMLID_597_">
				<g id="Layer0_160_MEMBER_0_MEMBER_263_FILL_1_">
					<path id="XMLID_598_" class="st15" d="M299.4,83.8l0,0.3l5.9-5.5l0-0.2L299.4,83.8z"/>
				</g>
			</g>
		</g>
		<g id="XMLID_593_" transform="matrix( 2.2337799072265625, 0, 0, 2.2337799072265625, -615.8,-92.35) ">
			<g id="XMLID_594_">
				<g id="Layer0_160_MEMBER_0_MEMBER_264_FILL_1_">
					<path id="XMLID_595_" class="st21" d="M294.2,83.4l0.1,0l0.1-0.1l4.6,0.7l-0.1-2.2l-4.6-0.7l-0.1-0.1l-0.2,0l-4.9-0.7l0.1,2.4
						l0,0L294.2,83.4z"/>
				</g>
			</g>
		</g>
		<g id="XMLID_572_" transform="matrix( 2.2337799072265625, 0, 0, 2.2337799072265625, -615.8,-92.35) ">
			<g id="XMLID_591_">
				<g id="Layer0_160_MEMBER_0_MEMBER_265_FILL_1_">
					<path id="XMLID_592_" class="st18" d="M299.2,76l0-0.6l-0.2,0.2l0,0.6L299.2,76z"/>
				</g>
			</g>
		</g>
		<g id="XMLID_569_" transform="matrix( 2.2337799072265625, 0, 0, 2.2337799072265625, -615.8,-92.35) ">
			<g id="XMLID_570_">
				<g id="Layer0_160_MEMBER_0_MEMBER_266_FILL_1_">
					<path id="XMLID_571_" class="st14" d="M299.2,76l6.3-5.4l-0.2,0l-6.1,5.2L299.2,76z"/>
				</g>
			</g>
		</g>
		<g id="XMLID_566_" transform="matrix( 2.2337799072265625, 0, 0, 2.2337799072265625, -615.8,-92.35) ">
			<g id="XMLID_567_">
				<g id="Layer0_160_MEMBER_0_MEMBER_267_FILL_1_">
					<path id="XMLID_568_" class="st18" d="M299.4,84.3l0-0.5l-0.2,0.2l0,0.6L299.4,84.3z"/>
				</g>
			</g>
		</g>
		<g id="XMLID_563_" transform="matrix( 2.2337799072265625, 0, 0, 2.2337799072265625, -615.8,-92.35) ">
			<g id="XMLID_564_">
				<g id="Layer0_160_MEMBER_0_MEMBER_268_FILL_1_">
					<path id="XMLID_565_" class="st14" d="M299.4,84.3l6.2-5.8l-0.3,0l-5.9,5.5L299.4,84.3z"/>
				</g>
			</g>
		</g>
		<g id="XMLID_560_" transform="matrix( 2.2337799072265625, 0, 0, 2.2337799072265625, -615.8,-92.35) ">
			<g id="XMLID_561_">
				<g id="Layer0_160_MEMBER_0_MEMBER_269_FILL_1_">
					<path id="XMLID_562_" class="st15" d="M299.1,81.2l6.4-5.8l0-2.1L299,79L299.1,81.2z"/>
				</g>
			</g>
		</g>
		<g id="XMLID_557_" transform="matrix( 2.2337799072265625, 0, 0, 2.2337799072265625, -615.8,-92.35) ">
			<g id="XMLID_558_">
				<g id="Layer0_160_MEMBER_0_MEMBER_270_FILL_1_">
					<path id="XMLID_559_" class="st15" d="M299.3,81l0,0.3l6-5.4l0-0.3L299.3,81z"/>
				</g>
			</g>
		</g>
		<g id="XMLID_554_" transform="matrix( 2.2337799072265625, 0, 0, 2.2337799072265625, -615.8,-92.35) ">
			<g id="XMLID_555_">
				<g id="Layer0_160_MEMBER_0_MEMBER_271_FILL_1_">
					<path id="XMLID_556_" class="st21" d="M294.1,77.9l0.1,0l0.1-0.1l4.7,0.7l0-2.3l-4.8-0.6l-0.1-0.2l-0.1,0l-4.9-0.7l0.1,2.5l0,0
						L294.1,77.9z"/>
				</g>
			</g>
		</g>
		<g id="XMLID_551_" transform="matrix( 2.2337799072265625, 0, 0, 2.2337799072265625, -615.8,-92.35) ">
			<g id="XMLID_552_">
				<g id="Layer0_160_MEMBER_0_MEMBER_272_FILL_1_">
					<path id="XMLID_553_" class="st15" d="M299,78.4l6.5-5.7l-0.1-2.2l-6.5,5.6L299,78.4z"/>
				</g>
			</g>
		</g>
		<g id="XMLID_548_" transform="matrix( 2.2337799072265625, 0, 0, 2.2337799072265625, -615.8,-92.35) ">
			<g id="XMLID_549_">
				<g id="Layer0_160_MEMBER_0_MEMBER_273_FILL_1_">
					<path id="XMLID_550_" class="st15" d="M299.3,78.2l0,0.3l6-5.2l0-0.3L299.3,78.2z"/>
				</g>
			</g>
		</g>
		<g id="XMLID_545_" transform="matrix( 2.2337799072265625, 0, 0, 2.2337799072265625, -615.8,-92.35) ">
			<g id="XMLID_546_">
				<g id="Layer0_160_MEMBER_0_MEMBER_274_FILL_1_">
					<path id="XMLID_547_" class="st18" d="M299.3,81.6l0-0.5l-0.2,0.2l0,0.5L299.3,81.6z"/>
				</g>
			</g>
		</g>
		<g id="XMLID_542_" transform="matrix( 2.2337799072265625, 0, 0, 2.2337799072265625, -615.8,-92.35) ">
			<g id="XMLID_543_">
				<g id="Layer0_160_MEMBER_0_MEMBER_275_FILL_1_">
					<path id="XMLID_544_" class="st14" d="M299.3,81.6l6.2-5.6l-0.3,0l-6,5.4L299.3,81.6z"/>
				</g>
			</g>
		</g>
		<g id="XMLID_539_" transform="matrix( 2.2337799072265625, 0, 0, 2.2337799072265625, -615.8,-92.35) ">
			<g id="XMLID_540_">
				<g id="Layer0_160_MEMBER_0_MEMBER_276_FILL_1_">
					<path id="XMLID_541_" class="st18" d="M299.3,78.8l0-0.5l-0.2,0.2l0,0.5L299.3,78.8z"/>
				</g>
			</g>
		</g>
		<g id="XMLID_536_" transform="matrix( 2.2337799072265625, 0, 0, 2.2337799072265625, -615.8,-92.35) ">
			<g id="XMLID_537_">
				<g id="Layer0_160_MEMBER_0_MEMBER_277_FILL_1_">
					<path id="XMLID_538_" class="st14" d="M299.3,78.8l6.3-5.5l-0.3,0l-6,5.2L299.3,78.8z"/>
				</g>
			</g>
		</g>
		<g id="XMLID_533_" transform="matrix( 2.2337799072265625, 0, 0, 2.2337799072265625, -615.8,-92.35) ">
			<g id="XMLID_534_">
				<g id="Layer0_160_MEMBER_0_MEMBER_278_FILL_1_">
					<path id="XMLID_535_" class="st21" d="M294.1,77.9l0,0.1l0.1-0.1L294.1,77.9z"/>
				</g>
			</g>
		</g>
		<g id="XMLID_530_" transform="matrix( 2.2337799072265625, 0, 0, 2.2337799072265625, -615.8,-92.35) ">
			<g id="XMLID_531_">
				<g id="Layer0_160_MEMBER_0_MEMBER_279_FILL_1_">
					<path id="XMLID_532_" class="st21" d="M294.1,80.6l0.1,0.1l0.2-0.1l4.7,0.7L299,79l-4.7-0.7l-0.2-0.2l-0.1,0l-4.9-0.7l0.1,2.5
						l0,0L294.1,80.6z"/>
				</g>
			</g>
		</g>
		<g id="XMLID_527_" transform="matrix( 2.2337799072265625, 0, 0, 2.2337799072265625, -615.8,-92.35) ">
			<g id="XMLID_528_">
				<g id="Layer0_160_MEMBER_0_MEMBER_280_FILL_1_">
					<path id="XMLID_529_" class="st21" d="M294.1,80.6l0,0.2l0.1-0.1L294.1,80.6z"/>
				</g>
			</g>
		</g>
		<g id="XMLID_524_" transform="matrix( 2.2337799072265625, 0, 0, 2.2337799072265625, -615.8,-92.35) ">
			<g id="XMLID_525_">
				<g id="Layer0_160_MEMBER_0_MEMBER_281_FILL_1_">
					<path id="XMLID_526_" class="st21" d="M294,75l0.1,0l0.1-0.1l4.8,0.6l0-2.6l-10-1.4l0.1,2.7l0.1,0L294,75z"/>
				</g>
			</g>
		</g>
		<g id="XMLID_519_" transform="matrix( 2.2337799072265625, 0, 0, 2.2337799072265625, -615.8,-92.35) ">
			<g id="XMLID_521_">
				<g id="Layer0_160_MEMBER_0_MEMBER_282_FILL_1_">
					<path id="XMLID_522_" class="st14" d="M295.8,66.4l-6.9,5.3l10,1.4l6.5-5.4L295.8,66.4z"/>
				</g>
			</g>
		</g>
		<g id="XMLID_514_" transform="matrix( 2.2337799072265625, 0, 0, 2.2337799072265625, -615.8,-92.35) ">
			<g id="XMLID_515_">
				<g id="Layer0_160_MEMBER_0_MEMBER_283_FILL_1_">
					<path id="XMLID_518_" class="st21" d="M294.2,83.4l0,0.1l0.1-0.1L294.2,83.4z"/>
				</g>
			</g>
		</g>
		<g id="XMLID_511_" transform="matrix( 2.2337799072265625, 0, 0, 2.2337799072265625, -615.8,-92.35) ">
			<g id="XMLID_512_">
				<g id="Layer0_160_MEMBER_0_MEMBER_284_FILL_1_">
					<path id="XMLID_513_" class="st21" d="M294.1,80.8l0,0.1l0.2,0L294.1,80.8z"/>
				</g>
			</g>
		</g>
		<g id="XMLID_507_" transform="matrix( 2.2337799072265625, 0, 0, 2.2337799072265625, -615.8,-92.35) ">
			<g id="XMLID_508_">
				<g id="Layer0_160_MEMBER_0_MEMBER_285_FILL_1_">
					<path id="XMLID_510_" class="st21" d="M294,75L294,75L294,75l0,0.1l0.1-0.1L294,75z"/>
				</g>
			</g>
		</g>
		<g id="XMLID_504_" transform="matrix( 2.2337799072265625, 0, 0, 2.2337799072265625, -615.8,-92.35) ">
			<g id="XMLID_505_">
				<g id="Layer0_160_MEMBER_0_MEMBER_286_FILL_1_">
					<path id="XMLID_506_" class="st21" d="M294.2,83.5l0,0.1l0.1,0L294.2,83.5z"/>
				</g>
			</g>
		</g>
		<g id="XMLID_501_" transform="matrix( 2.2337799072265625, 0, 0, 2.2337799072265625, -615.8,-92.35) ">
			<g id="XMLID_502_">
				<g id="Layer0_160_MEMBER_0_MEMBER_287_FILL_1_">
					<path id="XMLID_503_" class="st22" d="M294.1,80.9l0-0.3l-4.8-0.7l0,0l0,0.1l0,0l0,0.1l0,0L294.1,80.9z"/>
				</g>
			</g>
		</g>
		<g id="XMLID_498_" transform="matrix( 2.2337799072265625, 0, 0, 2.2337799072265625, -615.8,-92.35) ">
			<g id="XMLID_499_">
				<g id="Layer0_160_MEMBER_0_MEMBER_288_FILL_1_">
					<path id="XMLID_500_" class="st21" d="M294.1,78l0,0.1l0.1,0L294.1,78z"/>
				</g>
			</g>
		</g>
		<g id="XMLID_495_" transform="matrix( 2.2337799072265625, 0, 0, 2.2337799072265625, -615.8,-92.35) ">
			<g id="XMLID_496_">
				<g id="Layer0_160_MEMBER_0_MEMBER_289_FILL_1_">
					<path id="XMLID_497_" class="st22" d="M294.1,78.1l0-0.3l-4.9-0.7l0,0l0,0l0,0.1l0,0l0,0l0,0L294.1,78.1z"/>
				</g>
			</g>
		</g>
		<g id="XMLID_492_" transform="matrix( 2.2337799072265625, 0, 0, 2.2337799072265625, -615.8,-92.35) ">
			<g id="XMLID_493_">
				<g id="Layer0_160_MEMBER_0_MEMBER_290_FILL_1_">
					<path id="XMLID_494_" class="st23" d="M294.2,83.6l0-0.3l-4.8-0.7l0,0l0,0l0,0.1l0,0l0,0.1l0,0L294.2,83.6z"/>
				</g>
			</g>
		</g>
		<g id="XMLID_489_" transform="matrix( 2.2337799072265625, 0, 0, 2.2337799072265625, -615.8,-92.35) ">
			<g id="XMLID_490_">
				<g id="Layer0_160_MEMBER_0_MEMBER_291_FILL_1_">
					<path id="XMLID_491_" class="st24" d="M294,75.1L294,75.1l-4.9-0.7l0,0l0,0.1l0,0l0,0.1l0,0l4.9,0.7L294,75.1L294,75.1z"/>
				</g>
			</g>
		</g>
		<g id="XMLID_486_" transform="matrix( 2.2337799072265625, 0, 0, 2.2337799072265625, -615.8,-92.35) ">
			<g id="XMLID_487_">
				<g id="Layer0_160_MEMBER_0_MEMBER_292_FILL_1_">
					<path id="XMLID_488_" class="st15" d="M305.6,78.5l-6.4,6l0.2,7.8l6.3-6.3L305.6,78.5z"/>
				</g>
			</g>
		</g>
		<g id="XMLID_483_" transform="matrix( 2.2337799072265625, 0, 0, 2.2337799072265625, -615.8,-92.35) ">
			<g id="XMLID_484_">
				<g id="Layer0_160_MEMBER_0_MEMBER_293_FILL_1_">
					<path id="XMLID_485_" class="st18" d="M294.2,83.5l0.3,0.3l4.6,0.7l0-0.6l-4.6-0.7L294.2,83.5z"/>
				</g>
			</g>
		</g>
		<g id="XMLID_480_" transform="matrix( 2.2337799072265625, 0, 0, 2.2337799072265625, -615.8,-92.35) ">
			<g id="XMLID_481_">
				<g id="Layer0_160_MEMBER_0_MEMBER_294_FILL_1_">
					<path id="XMLID_482_" class="st18" d="M294.1,80.8l0.3,0.3l4.6,0.7l0-0.5l-4.7-0.7L294.1,80.8z"/>
				</g>
			</g>
		</g>
		<g id="XMLID_477_" transform="matrix( 2.2337799072265625, 0, 0, 2.2337799072265625, -615.8,-92.35) ">
			<g id="XMLID_478_">
				<g id="Layer0_160_MEMBER_0_MEMBER_295_FILL_1_">
					<path id="XMLID_479_" class="st18" d="M294,75.2l0.2,0.4l4.8,0.6l0-0.6l-4.8-0.6L294,75.2z"/>
				</g>
			</g>
		</g>
		<g id="XMLID_474_" transform="matrix( 2.2337799072265625, 0, 0, 2.2337799072265625, -615.8,-92.35) ">
			<g id="XMLID_475_">
				<g id="Layer0_160_MEMBER_0_MEMBER_296_FILL_1_">
					<path id="XMLID_476_" class="st18" d="M294.1,78l0.3,0.3L299,79l0-0.5l-4.7-0.7L294.1,78z"/>
				</g>
			</g>
		</g>
		<g id="XMLID_458_" transform="matrix( 2.2337799072265625, 0, 0, 2.2337799072265625, -615.8,-92.35) ">
			<g id="XMLID_472_">
				<g id="Layer0_160_MEMBER_0_MEMBER_297_FILL_1_">
					<path id="XMLID_473_" class="st25" d="M294.1,87.1L294.1,87.1l-0.1,0.1l0,0.1l0,0l0,0l0,0l0,0.2l0,0l0,0.1l0,0l0,0l0,0.1l0,0
						l0.1,0.1l0,0.1l0.1,0.1l0.1,0l0.1,0.1l0.1,0l0,0l0.1,0l0,0l0.4,0l0,0l0,0l0,0l0,0l0.1-0.1l0,0l0.1-0.1l0,0l0-0.1l0,0l0-0.1
						l0-0.1l0-0.1l0,0l0,0l0-0.1l0-0.1l0,0l0,0l0-0.1l-0.1-0.1l0,0l-0.1,0l-0.1-0.2l-0.1-0.1l-0.1,0l0,0l0,0l-0.1,0l-0.3,0l-0.1,0
						l0,0l0,0L294.1,87.1L294.1,87.1z"/>
				</g>
			</g>
		</g>
	</g>
	<g id="XMLID_3711_">
		<g id="XMLID_3826_" transform="matrix( 2.2337799072265625, 0, 0, 2.2337799072265625, -615.8,-92.35) ">
			<g id="XMLID_3827_">
				<g id="Layer0_160_MEMBER_0_MEMBER_259_FILL_2_">
					<path id="XMLID_3828_" class="st21" d="M294.4,116.7l-0.1,0l-4.9-0.7l0.3,7.8l9.6,1.6l-0.2-7.8l-4.6-0.7L294.4,116.7
						 M294.1,120.1L294.1,120.1l0.1-0.1l0,0l0,0l0,0l0.1,0l0.3,0l0.1,0l0,0l0,0l0.1,0l0.1,0.1l0.1,0.2l0.1,0l0,0l0.1,0.1l0,0.1l0,0
						l0,0l0,0.1l0,0.1l0,0l0,0l0,0.1l0,0.1l0,0.1l0,0l0,0.1l0,0l-0.1,0.1l0,0l-0.1,0.1l0,0l0,0l0,0l0,0l-0.4,0l0,0l-0.1,0l0,0
						l-0.1,0l-0.1-0.1l-0.1,0l-0.1-0.1l0-0.1l-0.1-0.1l0,0l0-0.1l0,0l0,0l0-0.1l0,0l0-0.2l0,0l0,0l0,0l0-0.1L294.1,120.1z"/>
				</g>
			</g>
		</g>
		<g id="XMLID_3823_" transform="matrix( 2.2337799072265625, 0, 0, 2.2337799072265625, -615.8,-92.35) ">
			<g id="XMLID_3824_">
				<g id="Layer0_160_MEMBER_0_MEMBER_260_FILL_2_">
					<path id="XMLID_3825_" class="st15" d="M299,108.6l6.5-5.5l0-2.4l-6.5,5.4L299,108.6z"/>
				</g>
			</g>
		</g>
		<g id="XMLID_3820_" transform="matrix( 2.2337799072265625, 0, 0, 2.2337799072265625, -615.8,-92.35) ">
			<g id="XMLID_3821_">
				<g id="Layer0_160_MEMBER_0_MEMBER_261_FILL_2_">
					<path id="XMLID_3822_" class="st15" d="M299.2,108.4l0,0.3l6.1-5.2l0-0.3L299.2,108.4z"/>
				</g>
			</g>
		</g>
		<g id="XMLID_3817_" transform="matrix( 2.2337799072265625, 0, 0, 2.2337799072265625, -615.8,-92.35) ">
			<g id="XMLID_3818_">
				<g id="Layer0_160_MEMBER_0_MEMBER_262_FILL_2_">
					<path id="XMLID_3819_" class="st15" d="M299.1,117l6.4-5.9l0-2.1l-6.5,5.8L299.1,117z"/>
				</g>
			</g>
		</g>
		<g id="XMLID_3814_" transform="matrix( 2.2337799072265625, 0, 0, 2.2337799072265625, -615.8,-92.35) ">
			<g id="XMLID_3815_">
				<g id="Layer0_160_MEMBER_0_MEMBER_263_FILL_2_">
					<path id="XMLID_3816_" class="st15" d="M299.4,116.8l0,0.3l5.9-5.5l0-0.2L299.4,116.8z"/>
				</g>
			</g>
		</g>
		<g id="XMLID_3811_" transform="matrix( 2.2337799072265625, 0, 0, 2.2337799072265625, -615.8,-92.35) ">
			<g id="XMLID_3812_">
				<g id="Layer0_160_MEMBER_0_MEMBER_264_FILL_2_">
					<path id="XMLID_3813_" class="st21" d="M294.2,116.4l0.1,0l0.1-0.1l4.6,0.7l-0.1-2.2l-4.6-0.7l-0.1-0.1l-0.2,0l-4.9-0.7
						l0.1,2.4l0,0L294.2,116.4z"/>
				</g>
			</g>
		</g>
		<g id="XMLID_3808_" transform="matrix( 2.2337799072265625, 0, 0, 2.2337799072265625, -615.8,-92.35) ">
			<g id="XMLID_3809_">
				<g id="Layer0_160_MEMBER_0_MEMBER_265_FILL_2_">
					<path id="XMLID_3810_" class="st18" d="M299.2,109l0-0.6l-0.2,0.2l0,0.6L299.2,109z"/>
				</g>
			</g>
		</g>
		<g id="XMLID_3805_" transform="matrix( 2.2337799072265625, 0, 0, 2.2337799072265625, -615.8,-92.35) ">
			<g id="XMLID_3806_">
				<g id="Layer0_160_MEMBER_0_MEMBER_266_FILL_2_">
					<path id="XMLID_3807_" class="st14" d="M299.2,109l6.3-5.4l-0.2,0l-6.1,5.2L299.2,109z"/>
				</g>
			</g>
		</g>
		<g id="XMLID_3802_" transform="matrix( 2.2337799072265625, 0, 0, 2.2337799072265625, -615.8,-92.35) ">
			<g id="XMLID_3803_">
				<g id="Layer0_160_MEMBER_0_MEMBER_267_FILL_2_">
					<path id="XMLID_3804_" class="st18" d="M299.4,117.3l0-0.5l-0.2,0.2l0,0.6L299.4,117.3z"/>
				</g>
			</g>
		</g>
		<g id="XMLID_3799_" transform="matrix( 2.2337799072265625, 0, 0, 2.2337799072265625, -615.8,-92.35) ">
			<g id="XMLID_3800_">
				<g id="Layer0_160_MEMBER_0_MEMBER_268_FILL_2_">
					<path id="XMLID_3801_" class="st14" d="M299.4,117.3l6.2-5.8l-0.3,0l-5.9,5.5L299.4,117.3z"/>
				</g>
			</g>
		</g>
		<g id="XMLID_3796_" transform="matrix( 2.2337799072265625, 0, 0, 2.2337799072265625, -615.8,-92.35) ">
			<g id="XMLID_3797_">
				<g id="Layer0_160_MEMBER_0_MEMBER_269_FILL_2_">
					<path id="XMLID_3798_" class="st15" d="M299.1,114.2l6.4-5.8l0-2.1L299,112L299.1,114.2z"/>
				</g>
			</g>
		</g>
		<g id="XMLID_3793_" transform="matrix( 2.2337799072265625, 0, 0, 2.2337799072265625, -615.8,-92.35) ">
			<g id="XMLID_3794_">
				<g id="Layer0_160_MEMBER_0_MEMBER_270_FILL_2_">
					<path id="XMLID_3795_" class="st15" d="M299.3,114l0,0.3l6-5.4l0-0.3L299.3,114z"/>
				</g>
			</g>
		</g>
		<g id="XMLID_3790_" transform="matrix( 2.2337799072265625, 0, 0, 2.2337799072265625, -615.8,-92.35) ">
			<g id="XMLID_3791_">
				<g id="Layer0_160_MEMBER_0_MEMBER_271_FILL_2_">
					<path id="XMLID_3792_" class="st21" d="M294.1,110.9l0.1,0l0.1-0.1l4.7,0.7l0-2.3l-4.8-0.6l-0.1-0.2l-0.1,0l-4.9-0.7l0.1,2.5
						l0,0L294.1,110.9z"/>
				</g>
			</g>
		</g>
		<g id="XMLID_3787_" transform="matrix( 2.2337799072265625, 0, 0, 2.2337799072265625, -615.8,-92.35) ">
			<g id="XMLID_3788_">
				<g id="Layer0_160_MEMBER_0_MEMBER_272_FILL_2_">
					<path id="XMLID_3789_" class="st15" d="M299,111.4l6.5-5.7l-0.1-2.2l-6.5,5.6L299,111.4z"/>
				</g>
			</g>
		</g>
		<g id="XMLID_3784_" transform="matrix( 2.2337799072265625, 0, 0, 2.2337799072265625, -615.8,-92.35) ">
			<g id="XMLID_3785_">
				<g id="Layer0_160_MEMBER_0_MEMBER_273_FILL_2_">
					<path id="XMLID_3786_" class="st15" d="M299.3,111.2l0,0.3l6-5.2l0-0.3L299.3,111.2z"/>
				</g>
			</g>
		</g>
		<g id="XMLID_3781_" transform="matrix( 2.2337799072265625, 0, 0, 2.2337799072265625, -615.8,-92.35) ">
			<g id="XMLID_3782_">
				<g id="Layer0_160_MEMBER_0_MEMBER_274_FILL_2_">
					<path id="XMLID_3783_" class="st18" d="M299.3,114.6l0-0.5l-0.2,0.2l0,0.5L299.3,114.6z"/>
				</g>
			</g>
		</g>
		<g id="XMLID_3778_" transform="matrix( 2.2337799072265625, 0, 0, 2.2337799072265625, -615.8,-92.35) ">
			<g id="XMLID_3779_">
				<g id="Layer0_160_MEMBER_0_MEMBER_275_FILL_2_">
					<path id="XMLID_3780_" class="st14" d="M299.3,114.6l6.2-5.6l-0.3,0l-6,5.4L299.3,114.6z"/>
				</g>
			</g>
		</g>
		<g id="XMLID_3775_" transform="matrix( 2.2337799072265625, 0, 0, 2.2337799072265625, -615.8,-92.35) ">
			<g id="XMLID_3776_">
				<g id="Layer0_160_MEMBER_0_MEMBER_276_FILL_2_">
					<path id="XMLID_3777_" class="st18" d="M299.3,111.8l0-0.5l-0.2,0.2l0,0.5L299.3,111.8z"/>
				</g>
			</g>
		</g>
		<g id="XMLID_3772_" transform="matrix( 2.2337799072265625, 0, 0, 2.2337799072265625, -615.8,-92.35) ">
			<g id="XMLID_3773_">
				<g id="Layer0_160_MEMBER_0_MEMBER_277_FILL_2_">
					<path id="XMLID_3774_" class="st14" d="M299.3,111.8l6.3-5.5l-0.3,0l-6,5.2L299.3,111.8z"/>
				</g>
			</g>
		</g>
		<g id="XMLID_3769_" transform="matrix( 2.2337799072265625, 0, 0, 2.2337799072265625, -615.8,-92.35) ">
			<g id="XMLID_3770_">
				<g id="Layer0_160_MEMBER_0_MEMBER_278_FILL_2_">
					<path id="XMLID_3771_" class="st21" d="M294.1,110.9l0,0.1l0.1-0.1L294.1,110.9z"/>
				</g>
			</g>
		</g>
		<g id="XMLID_3766_" transform="matrix( 2.2337799072265625, 0, 0, 2.2337799072265625, -615.8,-92.35) ">
			<g id="XMLID_3767_">
				<g id="Layer0_160_MEMBER_0_MEMBER_279_FILL_2_">
					<path id="XMLID_3768_" class="st21" d="M294.1,113.6l0.1,0.1l0.2-0.1l4.7,0.7L299,112l-4.7-0.7l-0.2-0.2l-0.1,0l-4.9-0.7
						l0.1,2.5l0,0L294.1,113.6z"/>
				</g>
			</g>
		</g>
		<g id="XMLID_3763_" transform="matrix( 2.2337799072265625, 0, 0, 2.2337799072265625, -615.8,-92.35) ">
			<g id="XMLID_3764_">
				<g id="Layer0_160_MEMBER_0_MEMBER_280_FILL_2_">
					<path id="XMLID_3765_" class="st21" d="M294.1,113.6l0,0.2l0.1-0.1L294.1,113.6z"/>
				</g>
			</g>
		</g>
		<g id="XMLID_3760_" transform="matrix( 2.2337799072265625, 0, 0, 2.2337799072265625, -615.8,-92.35) ">
			<g id="XMLID_3761_">
				<g id="Layer0_160_MEMBER_0_MEMBER_281_FILL_2_">
					<path id="XMLID_3762_" class="st21" d="M294,108.1l0.1,0l0.1-0.1l4.8,0.6l0-2.6l-10-1.4l0.1,2.7l0.1,0L294,108.1z"/>
				</g>
			</g>
		</g>
		<g id="XMLID_3757_" transform="matrix( 2.2337799072265625, 0, 0, 2.2337799072265625, -615.8,-92.35) ">
			<g id="XMLID_3758_">
				<g id="Layer0_160_MEMBER_0_MEMBER_282_FILL_2_">
					<path id="XMLID_3759_" class="st14" d="M295.8,99.4l-6.9,5.3l10,1.4l6.5-5.4L295.8,99.4z"/>
				</g>
			</g>
		</g>
		<g id="XMLID_3754_" transform="matrix( 2.2337799072265625, 0, 0, 2.2337799072265625, -615.8,-92.35) ">
			<g id="XMLID_3755_">
				<g id="Layer0_160_MEMBER_0_MEMBER_283_FILL_2_">
					<path id="XMLID_3756_" class="st21" d="M294.2,116.4l0,0.1l0.1-0.1L294.2,116.4z"/>
				</g>
			</g>
		</g>
		<g id="XMLID_3751_" transform="matrix( 2.2337799072265625, 0, 0, 2.2337799072265625, -615.8,-92.35) ">
			<g id="XMLID_3752_">
				<g id="Layer0_160_MEMBER_0_MEMBER_284_FILL_2_">
					<path id="XMLID_3753_" class="st21" d="M294.1,113.8l0,0.1l0.2,0L294.1,113.8z"/>
				</g>
			</g>
		</g>
		<g id="XMLID_3748_" transform="matrix( 2.2337799072265625, 0, 0, 2.2337799072265625, -615.8,-92.35) ">
			<g id="XMLID_3749_">
				<g id="Layer0_160_MEMBER_0_MEMBER_285_FILL_2_">
					<path id="XMLID_3750_" class="st21" d="M294,108.1L294,108.1L294,108.1l0,0.1l0.1-0.1L294,108.1z"/>
				</g>
			</g>
		</g>
		<g id="XMLID_3745_" transform="matrix( 2.2337799072265625, 0, 0, 2.2337799072265625, -615.8,-92.35) ">
			<g id="XMLID_3746_">
				<g id="Layer0_160_MEMBER_0_MEMBER_286_FILL_2_">
					<path id="XMLID_3747_" class="st21" d="M294.2,116.5l0,0.1l0.1,0L294.2,116.5z"/>
				</g>
			</g>
		</g>
		<g id="XMLID_3742_" transform="matrix( 2.2337799072265625, 0, 0, 2.2337799072265625, -615.8,-92.35) ">
			<g id="XMLID_3743_">
				<g id="Layer0_160_MEMBER_0_MEMBER_287_FILL_2_">
					<path id="XMLID_3744_" class="st22" d="M294.1,113.9l0-0.3l-4.8-0.7l0,0l0,0.1l0,0l0,0.1l0,0L294.1,113.9z"/>
				</g>
			</g>
		</g>
		<g id="XMLID_3739_" transform="matrix( 2.2337799072265625, 0, 0, 2.2337799072265625, -615.8,-92.35) ">
			<g id="XMLID_3740_">
				<g id="Layer0_160_MEMBER_0_MEMBER_288_FILL_2_">
					<path id="XMLID_3741_" class="st21" d="M294.1,111l0,0.1l0.1,0L294.1,111z"/>
				</g>
			</g>
		</g>
		<g id="XMLID_3736_" transform="matrix( 2.2337799072265625, 0, 0, 2.2337799072265625, -615.8,-92.35) ">
			<g id="XMLID_3737_">
				<g id="Layer0_160_MEMBER_0_MEMBER_289_FILL_2_">
					<path id="XMLID_3738_" class="st22" d="M294.1,111.1l0-0.3l-4.9-0.7l0,0l0,0l0,0.1l0,0l0,0l0,0L294.1,111.1z"/>
				</g>
			</g>
		</g>
		<g id="XMLID_3733_" transform="matrix( 2.2337799072265625, 0, 0, 2.2337799072265625, -615.8,-92.35) ">
			<g id="XMLID_3734_">
				<g id="Layer0_160_MEMBER_0_MEMBER_290_FILL_2_">
					<path id="XMLID_3735_" class="st23" d="M294.2,116.6l0-0.3l-4.8-0.7l0,0l0,0l0,0.1l0,0l0,0.1l0,0L294.2,116.6z"/>
				</g>
			</g>
		</g>
		<g id="XMLID_3730_" transform="matrix( 2.2337799072265625, 0, 0, 2.2337799072265625, -615.8,-92.35) ">
			<g id="XMLID_3731_">
				<g id="Layer0_160_MEMBER_0_MEMBER_291_FILL_2_">
					<path id="XMLID_3732_" class="st24" d="M294,108.1L294,108.1l-4.9-0.7l0,0l0,0.1l0,0l0,0.1l0,0l4.9,0.7L294,108.1L294,108.1z"
						/>
				</g>
			</g>
		</g>
		<g id="XMLID_3727_" transform="matrix( 2.2337799072265625, 0, 0, 2.2337799072265625, -615.8,-92.35) ">
			<g id="XMLID_3728_">
				<g id="Layer0_160_MEMBER_0_MEMBER_292_FILL_2_">
					<path id="XMLID_3729_" class="st15" d="M305.6,111.5l-6.4,6l0.2,7.8l6.3-6.3L305.6,111.5z"/>
				</g>
			</g>
		</g>
		<g id="XMLID_3724_" transform="matrix( 2.2337799072265625, 0, 0, 2.2337799072265625, -615.8,-92.35) ">
			<g id="XMLID_3725_">
				<g id="Layer0_160_MEMBER_0_MEMBER_293_FILL_2_">
					<path id="XMLID_3726_" class="st18" d="M294.2,116.5l0.3,0.3l4.6,0.7l0-0.6l-4.6-0.7L294.2,116.5z"/>
				</g>
			</g>
		</g>
		<g id="XMLID_3721_" transform="matrix( 2.2337799072265625, 0, 0, 2.2337799072265625, -615.8,-92.35) ">
			<g id="XMLID_3722_">
				<g id="Layer0_160_MEMBER_0_MEMBER_294_FILL_2_">
					<path id="XMLID_3723_" class="st18" d="M294.1,113.8l0.3,0.3l4.6,0.7l0-0.5l-4.7-0.7L294.1,113.8z"/>
				</g>
			</g>
		</g>
		<g id="XMLID_3718_" transform="matrix( 2.2337799072265625, 0, 0, 2.2337799072265625, -615.8,-92.35) ">
			<g id="XMLID_3719_">
				<g id="Layer0_160_MEMBER_0_MEMBER_295_FILL_2_">
					<path id="XMLID_3720_" class="st18" d="M294,108.2l0.2,0.4l4.8,0.6l0-0.6l-4.8-0.6L294,108.2z"/>
				</g>
			</g>
		</g>
		<g id="XMLID_3715_" transform="matrix( 2.2337799072265625, 0, 0, 2.2337799072265625, -615.8,-92.35) ">
			<g id="XMLID_3716_">
				<g id="Layer0_160_MEMBER_0_MEMBER_296_FILL_2_">
					<path id="XMLID_3717_" class="st18" d="M294.1,111l0.3,0.3l4.7,0.7l0-0.5l-4.7-0.7L294.1,111z"/>
				</g>
			</g>
		</g>
		<g id="XMLID_3712_" transform="matrix( 2.2337799072265625, 0, 0, 2.2337799072265625, -615.8,-92.35) ">
			<g id="XMLID_3713_">
				<g id="Layer0_160_MEMBER_0_MEMBER_297_FILL_2_">
					<path id="XMLID_3714_" class="st25" d="M294.1,120.1L294.1,120.1l-0.1,0.1l0,0.1l0,0l0,0l0,0l0,0.2l0,0l0,0.1l0,0l0,0l0,0.1
						l0,0l0.1,0.1l0,0.1l0.1,0.1l0.1,0l0.1,0.1l0.1,0l0,0l0.1,0l0,0l0.4,0l0,0l0,0l0,0l0,0l0.1-0.1l0,0l0.1-0.1l0,0l0-0.1l0,0l0-0.1
						l0-0.1l0-0.1l0,0l0,0l0-0.1l0-0.1l0,0l0,0l0-0.1l-0.1-0.1l0,0l-0.1,0l-0.1-0.2l-0.1-0.1l-0.1,0l0,0l0,0l-0.1,0l-0.3,0l-0.1,0
						l0,0l0,0L294.1,120.1L294.1,120.1z"/>
				</g>
			</g>
		</g>
	</g>
	<g id="XMLID_3831_">
		<g id="XMLID_3947_" transform="matrix( 2.2337799072265625, 0, 0, 2.2337799072265625, -615.8,-92.35) ">
			<g id="XMLID_3948_">
				<g id="Layer0_160_MEMBER_0_MEMBER_259_FILL_3_">
					<path id="XMLID_3949_" class="st21" d="M294.4,148.6l-0.1,0l-4.9-0.7l0.3,7.8l9.6,1.6l-0.2-7.8l-4.6-0.7L294.4,148.6
						 M294.1,152.1L294.1,152.1l0.1-0.1l0,0l0,0l0,0l0.1,0l0.3,0l0.1,0l0,0l0,0l0.1,0l0.1,0.1l0.1,0.2l0.1,0l0,0l0.1,0.1l0,0.1l0,0
						l0,0l0,0.1l0,0.1l0,0l0,0l0,0.1l0,0.1l0,0.1l0,0l0,0.1l0,0l-0.1,0.1l0,0l-0.1,0.1l0,0l0,0l0,0l0,0l-0.4,0l0,0l-0.1,0l0,0
						l-0.1,0l-0.1-0.1l-0.1,0l-0.1-0.1l0-0.1l-0.1-0.1l0,0l0-0.1l0,0l0,0l0-0.1l0,0l0-0.2l0,0l0,0l0,0l0-0.1L294.1,152.1z"/>
				</g>
			</g>
		</g>
		<g id="XMLID_3944_" transform="matrix( 2.2337799072265625, 0, 0, 2.2337799072265625, -615.8,-92.35) ">
			<g id="XMLID_3945_">
				<g id="Layer0_160_MEMBER_0_MEMBER_260_FILL_3_">
					<path id="XMLID_3946_" class="st15" d="M299,140.6l6.5-5.5l0-2.4l-6.5,5.4L299,140.6z"/>
				</g>
			</g>
		</g>
		<g id="XMLID_3941_" transform="matrix( 2.2337799072265625, 0, 0, 2.2337799072265625, -615.8,-92.35) ">
			<g id="XMLID_3942_">
				<g id="Layer0_160_MEMBER_0_MEMBER_261_FILL_3_">
					<path id="XMLID_3943_" class="st15" d="M299.2,140.4l0,0.3l6.1-5.2l0-0.3L299.2,140.4z"/>
				</g>
			</g>
		</g>
		<g id="XMLID_3938_" transform="matrix( 2.2337799072265625, 0, 0, 2.2337799072265625, -615.8,-92.35) ">
			<g id="XMLID_3939_">
				<g id="Layer0_160_MEMBER_0_MEMBER_262_FILL_3_">
					<path id="XMLID_3940_" class="st15" d="M299.1,148.9l6.4-5.9l0-2.1l-6.5,5.8L299.1,148.9z"/>
				</g>
			</g>
		</g>
		<g id="XMLID_3935_" transform="matrix( 2.2337799072265625, 0, 0, 2.2337799072265625, -615.8,-92.35) ">
			<g id="XMLID_3936_">
				<g id="Layer0_160_MEMBER_0_MEMBER_263_FILL_3_">
					<path id="XMLID_3937_" class="st15" d="M299.4,148.7l0,0.3l5.9-5.5l0-0.2L299.4,148.7z"/>
				</g>
			</g>
		</g>
		<g id="XMLID_3931_" transform="matrix( 2.2337799072265625, 0, 0, 2.2337799072265625, -615.8,-92.35) ">
			<g id="XMLID_3932_">
				<g id="Layer0_160_MEMBER_0_MEMBER_264_FILL_3_">
					<path id="XMLID_3934_" class="st21" d="M294.2,148.3l0.1,0l0.1-0.1l4.6,0.7l-0.1-2.2l-4.6-0.7l-0.1-0.1l-0.2,0l-4.9-0.7
						l0.1,2.4l0,0L294.2,148.3z"/>
				</g>
			</g>
		</g>
		<g id="XMLID_3928_" transform="matrix( 2.2337799072265625, 0, 0, 2.2337799072265625, -615.8,-92.35) ">
			<g id="XMLID_3929_">
				<g id="Layer0_160_MEMBER_0_MEMBER_265_FILL_3_">
					<path id="XMLID_3930_" class="st18" d="M299.2,140.9l0-0.6l-0.2,0.2l0,0.6L299.2,140.9z"/>
				</g>
			</g>
		</g>
		<g id="XMLID_3925_" transform="matrix( 2.2337799072265625, 0, 0, 2.2337799072265625, -615.8,-92.35) ">
			<g id="XMLID_3926_">
				<g id="Layer0_160_MEMBER_0_MEMBER_266_FILL_3_">
					<path id="XMLID_3927_" class="st14" d="M299.2,140.9l6.3-5.4l-0.2,0l-6.1,5.2L299.2,140.9z"/>
				</g>
			</g>
		</g>
		<g id="XMLID_3922_" transform="matrix( 2.2337799072265625, 0, 0, 2.2337799072265625, -615.8,-92.35) ">
			<g id="XMLID_3923_">
				<g id="Layer0_160_MEMBER_0_MEMBER_267_FILL_3_">
					<path id="XMLID_3924_" class="st18" d="M299.4,149.3l0-0.5l-0.2,0.2l0,0.6L299.4,149.3z"/>
				</g>
			</g>
		</g>
		<g id="XMLID_3919_" transform="matrix( 2.2337799072265625, 0, 0, 2.2337799072265625, -615.8,-92.35) ">
			<g id="XMLID_3920_">
				<g id="Layer0_160_MEMBER_0_MEMBER_268_FILL_3_">
					<path id="XMLID_3921_" class="st14" d="M299.4,149.3l6.2-5.8l-0.3,0l-5.9,5.5L299.4,149.3z"/>
				</g>
			</g>
		</g>
		<g id="XMLID_3916_" transform="matrix( 2.2337799072265625, 0, 0, 2.2337799072265625, -615.8,-92.35) ">
			<g id="XMLID_3917_">
				<g id="Layer0_160_MEMBER_0_MEMBER_269_FILL_3_">
					<path id="XMLID_3918_" class="st15" d="M299.1,146.2l6.4-5.8l0-2.1l-6.5,5.7L299.1,146.2z"/>
				</g>
			</g>
		</g>
		<g id="XMLID_3913_" transform="matrix( 2.2337799072265625, 0, 0, 2.2337799072265625, -615.8,-92.35) ">
			<g id="XMLID_3914_">
				<g id="Layer0_160_MEMBER_0_MEMBER_270_FILL_3_">
					<path id="XMLID_3915_" class="st15" d="M299.3,146l0,0.3l6-5.4l0-0.3L299.3,146z"/>
				</g>
			</g>
		</g>
		<g id="XMLID_3910_" transform="matrix( 2.2337799072265625, 0, 0, 2.2337799072265625, -615.8,-92.35) ">
			<g id="XMLID_3911_">
				<g id="Layer0_160_MEMBER_0_MEMBER_271_FILL_3_">
					<path id="XMLID_3912_" class="st21" d="M294.1,142.8l0.1,0l0.1-0.1l4.7,0.7l0-2.3l-4.8-0.6l-0.1-0.2l-0.1,0l-4.9-0.7l0.1,2.5
						l0,0L294.1,142.8z"/>
				</g>
			</g>
		</g>
		<g id="XMLID_3907_" transform="matrix( 2.2337799072265625, 0, 0, 2.2337799072265625, -615.8,-92.35) ">
			<g id="XMLID_3908_">
				<g id="Layer0_160_MEMBER_0_MEMBER_272_FILL_3_">
					<path id="XMLID_3909_" class="st15" d="M299,143.4l6.5-5.7l-0.1-2.2l-6.5,5.6L299,143.4z"/>
				</g>
			</g>
		</g>
		<g id="XMLID_3904_" transform="matrix( 2.2337799072265625, 0, 0, 2.2337799072265625, -615.8,-92.35) ">
			<g id="XMLID_3905_">
				<g id="Layer0_160_MEMBER_0_MEMBER_273_FILL_3_">
					<path id="XMLID_3906_" class="st15" d="M299.3,143.2l0,0.3l6-5.2l0-0.3L299.3,143.2z"/>
				</g>
			</g>
		</g>
		<g id="XMLID_3901_" transform="matrix( 2.2337799072265625, 0, 0, 2.2337799072265625, -615.8,-92.35) ">
			<g id="XMLID_3902_">
				<g id="Layer0_160_MEMBER_0_MEMBER_274_FILL_3_">
					<path id="XMLID_3903_" class="st18" d="M299.3,146.5l0-0.5l-0.2,0.2l0,0.5L299.3,146.5z"/>
				</g>
			</g>
		</g>
		<g id="XMLID_3898_" transform="matrix( 2.2337799072265625, 0, 0, 2.2337799072265625, -615.8,-92.35) ">
			<g id="XMLID_3899_">
				<g id="Layer0_160_MEMBER_0_MEMBER_275_FILL_3_">
					<path id="XMLID_3900_" class="st14" d="M299.3,146.5l6.2-5.6l-0.3,0l-6,5.4L299.3,146.5z"/>
				</g>
			</g>
		</g>
		<g id="XMLID_3895_" transform="matrix( 2.2337799072265625, 0, 0, 2.2337799072265625, -615.8,-92.35) ">
			<g id="XMLID_3896_">
				<g id="Layer0_160_MEMBER_0_MEMBER_276_FILL_3_">
					<path id="XMLID_3897_" class="st18" d="M299.3,143.7l0-0.5l-0.2,0.2l0,0.5L299.3,143.7z"/>
				</g>
			</g>
		</g>
		<g id="XMLID_3892_" transform="matrix( 2.2337799072265625, 0, 0, 2.2337799072265625, -615.8,-92.35) ">
			<g id="XMLID_3893_">
				<g id="Layer0_160_MEMBER_0_MEMBER_277_FILL_3_">
					<path id="XMLID_3894_" class="st14" d="M299.3,143.7l6.3-5.5l-0.3,0l-6,5.2L299.3,143.7z"/>
				</g>
			</g>
		</g>
		<g id="XMLID_3889_" transform="matrix( 2.2337799072265625, 0, 0, 2.2337799072265625, -615.8,-92.35) ">
			<g id="XMLID_3890_">
				<g id="Layer0_160_MEMBER_0_MEMBER_278_FILL_3_">
					<path id="XMLID_3891_" class="st21" d="M294.1,142.8l0,0.1l0.1-0.1L294.1,142.8z"/>
				</g>
			</g>
		</g>
		<g id="XMLID_3886_" transform="matrix( 2.2337799072265625, 0, 0, 2.2337799072265625, -615.8,-92.35) ">
			<g id="XMLID_3887_">
				<g id="Layer0_160_MEMBER_0_MEMBER_279_FILL_3_">
					<path id="XMLID_3888_" class="st21" d="M294.1,145.6l0.1,0.1l0.2-0.1l4.7,0.7l-0.1-2.2l-4.7-0.7l-0.2-0.2l-0.1,0l-4.9-0.7
						l0.1,2.5l0,0L294.1,145.6z"/>
				</g>
			</g>
		</g>
		<g id="XMLID_3883_" transform="matrix( 2.2337799072265625, 0, 0, 2.2337799072265625, -615.8,-92.35) ">
			<g id="XMLID_3884_">
				<g id="Layer0_160_MEMBER_0_MEMBER_280_FILL_3_">
					<path id="XMLID_3885_" class="st21" d="M294.1,145.6l0,0.2l0.1-0.1L294.1,145.6z"/>
				</g>
			</g>
		</g>
		<g id="XMLID_3880_" transform="matrix( 2.2337799072265625, 0, 0, 2.2337799072265625, -615.8,-92.35) ">
			<g id="XMLID_3881_">
				<g id="Layer0_160_MEMBER_0_MEMBER_281_FILL_3_">
					<path id="XMLID_3882_" class="st21" d="M294,140l0.1,0l0.1-0.1l4.8,0.6l0-2.6l-10-1.4l0.1,2.7l0.1,0L294,140z"/>
				</g>
			</g>
		</g>
		<g id="XMLID_3877_" transform="matrix( 2.2337799072265625, 0, 0, 2.2337799072265625, -615.8,-92.35) ">
			<g id="XMLID_3878_">
				<g id="Layer0_160_MEMBER_0_MEMBER_282_FILL_3_">
					<path id="XMLID_3879_" class="st14" d="M295.8,131.3l-6.9,5.3l10,1.4l6.5-5.4L295.8,131.3z"/>
				</g>
			</g>
		</g>
		<g id="XMLID_3874_" transform="matrix( 2.2337799072265625, 0, 0, 2.2337799072265625, -615.8,-92.35) ">
			<g id="XMLID_3875_">
				<g id="Layer0_160_MEMBER_0_MEMBER_283_FILL_3_">
					<path id="XMLID_3876_" class="st21" d="M294.2,148.3l0,0.1l0.1-0.1L294.2,148.3z"/>
				</g>
			</g>
		</g>
		<g id="XMLID_3871_" transform="matrix( 2.2337799072265625, 0, 0, 2.2337799072265625, -615.8,-92.35) ">
			<g id="XMLID_3872_">
				<g id="Layer0_160_MEMBER_0_MEMBER_284_FILL_3_">
					<path id="XMLID_3873_" class="st21" d="M294.1,145.7l0,0.1l0.2,0L294.1,145.7z"/>
				</g>
			</g>
		</g>
		<g id="XMLID_3868_" transform="matrix( 2.2337799072265625, 0, 0, 2.2337799072265625, -615.8,-92.35) ">
			<g id="XMLID_3869_">
				<g id="Layer0_160_MEMBER_0_MEMBER_285_FILL_3_">
					<path id="XMLID_3870_" class="st21" d="M294,140L294,140L294,140l0,0.1l0.1-0.1L294,140z"/>
				</g>
			</g>
		</g>
		<g id="XMLID_3865_" transform="matrix( 2.2337799072265625, 0, 0, 2.2337799072265625, -615.8,-92.35) ">
			<g id="XMLID_3866_">
				<g id="Layer0_160_MEMBER_0_MEMBER_286_FILL_3_">
					<path id="XMLID_3867_" class="st21" d="M294.2,148.5l0,0.1l0.1,0L294.2,148.5z"/>
				</g>
			</g>
		</g>
		<g id="XMLID_3862_" transform="matrix( 2.2337799072265625, 0, 0, 2.2337799072265625, -615.8,-92.35) ">
			<g id="XMLID_3863_">
				<g id="Layer0_160_MEMBER_0_MEMBER_287_FILL_3_">
					<path id="XMLID_3864_" class="st22" d="M294.1,145.9l0-0.3l-4.8-0.7l0,0l0,0.1l0,0l0,0.1l0,0L294.1,145.9z"/>
				</g>
			</g>
		</g>
		<g id="XMLID_3859_" transform="matrix( 2.2337799072265625, 0, 0, 2.2337799072265625, -615.8,-92.35) ">
			<g id="XMLID_3860_">
				<g id="Layer0_160_MEMBER_0_MEMBER_288_FILL_3_">
					<path id="XMLID_3861_" class="st21" d="M294.1,143l0,0.1l0.1,0L294.1,143z"/>
				</g>
			</g>
		</g>
		<g id="XMLID_3856_" transform="matrix( 2.2337799072265625, 0, 0, 2.2337799072265625, -615.8,-92.35) ">
			<g id="XMLID_3857_">
				<g id="Layer0_160_MEMBER_0_MEMBER_289_FILL_3_">
					<path id="XMLID_3858_" class="st22" d="M294.1,143.1l0-0.3l-4.9-0.7l0,0l0,0l0,0.1l0,0l0,0l0,0L294.1,143.1z"/>
				</g>
			</g>
		</g>
		<g id="XMLID_3853_" transform="matrix( 2.2337799072265625, 0, 0, 2.2337799072265625, -615.8,-92.35) ">
			<g id="XMLID_3854_">
				<g id="Layer0_160_MEMBER_0_MEMBER_290_FILL_3_">
					<path id="XMLID_3855_" class="st23" d="M294.2,148.6l0-0.3l-4.8-0.7l0,0l0,0l0,0.1l0,0l0,0.1l0,0L294.2,148.6z"/>
				</g>
			</g>
		</g>
		<g id="XMLID_3850_" transform="matrix( 2.2337799072265625, 0, 0, 2.2337799072265625, -615.8,-92.35) ">
			<g id="XMLID_3851_">
				<g id="Layer0_160_MEMBER_0_MEMBER_291_FILL_3_">
					<path id="XMLID_3852_" class="st24" d="M294,140L294,140l-4.9-0.7l0,0l0,0.1l0,0l0,0.1l0,0l4.9,0.7L294,140L294,140z"/>
				</g>
			</g>
		</g>
		<g id="XMLID_3847_" transform="matrix( 2.2337799072265625, 0, 0, 2.2337799072265625, -615.8,-92.35) ">
			<g id="XMLID_3848_">
				<g id="Layer0_160_MEMBER_0_MEMBER_292_FILL_3_">
					<path id="XMLID_3849_" class="st15" d="M305.6,143.5l-6.4,6l0.2,7.8l6.3-6.3L305.6,143.5z"/>
				</g>
			</g>
		</g>
		<g id="XMLID_3844_" transform="matrix( 2.2337799072265625, 0, 0, 2.2337799072265625, -615.8,-92.35) ">
			<g id="XMLID_3845_">
				<g id="Layer0_160_MEMBER_0_MEMBER_293_FILL_3_">
					<path id="XMLID_3846_" class="st18" d="M294.2,148.5l0.3,0.3l4.6,0.7l0-0.6l-4.6-0.7L294.2,148.5z"/>
				</g>
			</g>
		</g>
		<g id="XMLID_3841_" transform="matrix( 2.2337799072265625, 0, 0, 2.2337799072265625, -615.8,-92.35) ">
			<g id="XMLID_3842_">
				<g id="Layer0_160_MEMBER_0_MEMBER_294_FILL_3_">
					<path id="XMLID_3843_" class="st18" d="M294.1,145.7l0.3,0.3l4.6,0.7l0-0.5l-4.7-0.7L294.1,145.7z"/>
				</g>
			</g>
		</g>
		<g id="XMLID_3838_" transform="matrix( 2.2337799072265625, 0, 0, 2.2337799072265625, -615.8,-92.35) ">
			<g id="XMLID_3839_">
				<g id="Layer0_160_MEMBER_0_MEMBER_295_FILL_3_">
					<path id="XMLID_3840_" class="st18" d="M294,140.1l0.2,0.4l4.8,0.6l0-0.6l-4.8-0.6L294,140.1z"/>
				</g>
			</g>
		</g>
		<g id="XMLID_3835_" transform="matrix( 2.2337799072265625, 0, 0, 2.2337799072265625, -615.8,-92.35) ">
			<g id="XMLID_3836_">
				<g id="Layer0_160_MEMBER_0_MEMBER_296_FILL_3_">
					<path id="XMLID_3837_" class="st18" d="M294.1,143l0.3,0.3l4.7,0.7l0-0.5l-4.7-0.7L294.1,143z"/>
				</g>
			</g>
		</g>
		<g id="XMLID_3832_" transform="matrix( 2.2337799072265625, 0, 0, 2.2337799072265625, -615.8,-92.35) ">
			<g id="XMLID_3833_">
				<g id="Layer0_160_MEMBER_0_MEMBER_297_FILL_3_">
					<path id="XMLID_3834_" class="st25" d="M294.1,152.1L294.1,152.1l-0.1,0.1l0,0.1l0,0l0,0l0,0l0,0.2l0,0l0,0.1l0,0l0,0l0,0.1
						l0,0l0.1,0.1l0,0.1l0.1,0.1l0.1,0l0.1,0.1l0.1,0l0,0l0.1,0l0,0l0.4,0l0,0l0,0l0,0l0,0l0.1-0.1l0,0l0.1-0.1l0,0l0-0.1l0,0l0-0.1
						l0-0.1l0-0.1l0,0l0,0l0-0.1l0-0.1l0,0l0,0l0-0.1l-0.1-0.1l0,0l-0.1,0l-0.1-0.2l-0.1-0.1l-0.1,0l0,0l0,0l-0.1,0l-0.3,0l-0.1,0
						l0,0l0,0L294.1,152.1L294.1,152.1z"/>
				</g>
			</g>
		</g>
	</g>
	<g id="XMLID_4083_">
		<g id="XMLID_4110_">
			<polygon id="XMLID_4122_" class="st17" points="474.5,193 475.9,192.2 498.4,194.8 497,195.7 			"/>
			<polygon id="XMLID_4121_" class="st26" points="475,208.8 474.5,193 497,195.7 497.3,211.5 			"/>
			<polygon id="XMLID_4120_" class="st27" points="498.7,210.7 497.3,211.5 497,195.7 498.4,194.8 			"/>
			<path id="XMLID_4119_" class="st28" d="M487.6,205l-3.2-0.3c-0.2,0-0.3-0.2-0.3-0.4l0-4.4c0-0.2,0.1-0.3,0.3-0.3l3.2,0.3
				c0.2,0,0.3,0.2,0.3,0.4l0,4.4C487.9,204.8,487.8,205,487.6,205z"/>
			<path id="XMLID_4116_" class="st29" d="M480.3,205.2c-2.1-0.1-3.8-1.8-4-3.8c-0.1-1,0.3-2,1-2.7c0.7-0.7,1.6-1.1,2.6-1.1
				c2.1,0.1,3.8,1.8,4,3.8l0,0c0.1,1-0.3,2-1,2.7C482.2,204.8,481.3,205.2,480.3,205.2z M479.9,198.7c-0.7,0-1.4,0.2-1.8,0.7
				c-0.5,0.5-0.7,1.1-0.7,1.8c0.1,1.5,1.4,2.8,2.9,2.8c0.7,0,1.4-0.2,1.8-0.7c0.5-0.5,0.7-1.1,0.7-1.8l0,0
				C482.7,200,481.4,198.7,479.9,198.7z"/>
			<path id="XMLID_4113_" class="st29" d="M491.9,206.7c-2-0.1-3.7-1.8-3.9-3.8c-0.1-1,0.3-2,1-2.7c0.7-0.7,1.6-1,2.6-1
				c2,0.1,3.7,1.8,3.9,3.8c0.1,1-0.3,2-1,2.7C493.8,206.3,492.9,206.7,491.9,206.7z M491.5,200.2c-0.7,0-1.3,0.2-1.7,0.7
				c-0.5,0.5-0.7,1.2-0.7,1.9c0.1,1.5,1.3,2.8,2.8,2.8c0.7,0,1.3-0.2,1.7-0.7c0.5-0.5,0.7-1.2,0.7-1.9
				C494.3,201.5,493,200.2,491.5,200.2z"/>
			<path id="XMLID_4112_" class="st27" d="M479.3,200.5c0-0.7,0.2-1.3,0.6-1.8c0,0,0,0,0,0c-0.7,0-1.4,0.2-1.8,0.7
				c-0.5,0.5-0.7,1.1-0.7,1.8c0.1,1.5,1.4,2.8,2.9,2.8c0.7,0,1.4-0.2,1.8-0.7c0,0,0,0,0,0C480.6,203.3,479.3,202,479.3,200.5z"/>
			<path id="XMLID_4111_" class="st27" d="M493.3,204.6c-1.5,0-2.7-1.3-2.8-2.8c0-0.6,0.1-1.1,0.4-1.5c-0.4,0.1-0.8,0.3-1.1,0.6
				c-0.5,0.5-0.7,1.2-0.7,1.9c0.1,1.5,1.3,2.8,2.8,2.8c0.7,0,1.3-0.2,1.7-0.7c0.1-0.1,0.2-0.2,0.3-0.3
				C493.7,204.6,493.5,204.6,493.3,204.6z"/>
		</g>
		<g id="XMLID_4097_">
			<polygon id="XMLID_4109_" class="st17" points="474.9,212.9 476.3,212.2 498.8,214.8 497.4,215.7 			"/>
			<polygon id="XMLID_4108_" class="st26" points="475.4,228.8 474.9,212.9 497.4,215.7 497.7,231.5 			"/>
			<polygon id="XMLID_4107_" class="st27" points="499.1,230.7 497.7,231.5 497.4,215.7 498.8,214.8 			"/>
			<path id="XMLID_4106_" class="st28" d="M488,224.9l-3.2-0.3c-0.2,0-0.3-0.2-0.3-0.4l0-4.4c0-0.2,0.1-0.3,0.3-0.3l3.2,0.3
				c0.2,0,0.3,0.2,0.3,0.4l0,4.4C488.3,224.8,488.2,225,488,224.9z"/>
			<path id="XMLID_4103_" class="st29" d="M480.7,225.1c-2.1-0.1-3.8-1.8-4-3.8c-0.1-1,0.3-2,1-2.7c0.7-0.7,1.6-1.1,2.6-1.1
				c2.1,0.1,3.8,1.8,4,3.8l0,0c0.1,1-0.3,2-1,2.7C482.6,224.8,481.7,225.2,480.7,225.1z M480.3,218.7c-0.7,0-1.4,0.2-1.8,0.7
				c-0.5,0.5-0.7,1.1-0.7,1.8c0.1,1.5,1.4,2.8,2.9,2.8c0.7,0,1.4-0.2,1.8-0.7c0.5-0.5,0.7-1.1,0.7-1.8l0,0
				C483.1,220,481.8,218.7,480.3,218.7z"/>
			<path id="XMLID_4100_" class="st29" d="M492.3,226.6c-2-0.1-3.7-1.8-3.9-3.8c-0.1-1,0.3-2,1-2.7c0.7-0.7,1.6-1,2.6-1
				c2,0.1,3.7,1.8,3.9,3.8c0.1,1-0.3,2-1,2.7C494.2,226.3,493.3,226.7,492.3,226.6z M491.9,220.2c-0.7,0-1.3,0.2-1.7,0.7
				c-0.5,0.5-0.7,1.2-0.7,1.9c0.1,1.5,1.3,2.8,2.8,2.8c0.7,0,1.3-0.2,1.7-0.7c0.5-0.5,0.7-1.2,0.7-1.9
				C494.7,221.5,493.4,220.2,491.9,220.2z"/>
			<path id="XMLID_4099_" class="st27" d="M479.7,220.5c0-0.7,0.2-1.3,0.6-1.8c0,0,0,0,0,0c-0.7,0-1.4,0.2-1.8,0.7
				c-0.5,0.5-0.7,1.1-0.7,1.8c0.1,1.5,1.4,2.8,2.9,2.8c0.7,0,1.4-0.2,1.8-0.7c0,0,0,0,0,0C481,223.3,479.7,222,479.7,220.5z"/>
			<path id="XMLID_4098_" class="st27" d="M493.7,224.6c-1.5,0-2.7-1.3-2.8-2.8c0-0.6,0.1-1.1,0.4-1.5c-0.4,0.1-0.8,0.3-1.1,0.6
				c-0.5,0.5-0.7,1.2-0.7,1.9c0.1,1.5,1.3,2.8,2.8,2.8c0.7,0,1.3-0.2,1.7-0.7c0.1-0.1,0.2-0.2,0.3-0.3
				C494.1,224.6,493.9,224.6,493.7,224.6z"/>
		</g>
		<g id="XMLID_4084_">
			<polygon id="XMLID_4096_" class="st17" points="475.9,232.4 477.3,231.7 499.7,234.3 498.3,235.2 			"/>
			<polygon id="XMLID_4095_" class="st26" points="476.3,248.3 475.9,232.4 498.3,235.2 498.6,251 			"/>
			<polygon id="XMLID_4094_" class="st27" points="500,250.2 498.6,251 498.3,235.2 499.7,234.3 			"/>
			<path id="XMLID_4093_" class="st28" d="M488.9,244.5l-3.2-0.3c-0.2,0-0.3-0.2-0.3-0.4l0-4.4c0-0.2,0.1-0.3,0.3-0.3l3.2,0.3
				c0.2,0,0.3,0.2,0.3,0.4l0,4.4C489.2,244.3,489.1,244.5,488.9,244.5z"/>
			<path id="XMLID_4090_" class="st29" d="M481.6,244.7c-2.1-0.1-3.8-1.8-4-3.8c-0.1-1,0.3-2,1-2.7c0.7-0.7,1.6-1.1,2.6-1.1
				c2.1,0.1,3.8,1.8,4,3.8l0,0c0.1,1-0.3,2-1,2.7C483.5,244.3,482.6,244.7,481.6,244.7z M481.2,238.2c-0.7,0-1.4,0.2-1.8,0.7
				c-0.5,0.5-0.7,1.1-0.7,1.8c0.1,1.5,1.4,2.8,2.9,2.8c0.7,0,1.4-0.2,1.8-0.7c0.5-0.5,0.7-1.1,0.7-1.8l0,0
				C484,239.5,482.7,238.2,481.2,238.2z"/>
			<path id="XMLID_4087_" class="st29" d="M493.2,246.2c-2-0.1-3.7-1.8-3.9-3.8c-0.1-1,0.3-2,1-2.7c0.7-0.7,1.6-1,2.6-1
				c2,0.1,3.7,1.8,3.9,3.8c0.1,1-0.3,2-1,2.7C495.1,245.8,494.2,246.2,493.2,246.2z M492.9,239.7c-0.7,0-1.3,0.2-1.7,0.7
				c-0.5,0.5-0.7,1.2-0.7,1.9c0.1,1.5,1.3,2.8,2.8,2.8c0.7,0,1.3-0.2,1.7-0.7c0.5-0.5,0.7-1.2,0.7-1.9
				C495.6,241,494.3,239.7,492.9,239.7z"/>
			<path id="XMLID_4086_" class="st27" d="M480.6,240c0-0.7,0.2-1.3,0.6-1.8c0,0,0,0,0,0c-0.7,0-1.4,0.2-1.8,0.7
				c-0.5,0.5-0.7,1.1-0.7,1.8c0.1,1.5,1.4,2.8,2.9,2.8c0.7,0,1.4-0.2,1.8-0.7c0,0,0,0,0,0C482,242.8,480.7,241.5,480.6,240z"/>
			<path id="XMLID_4085_" class="st27" d="M494.6,244.1c-1.5,0-2.7-1.3-2.8-2.8c0-0.6,0.1-1.1,0.4-1.5c-0.4,0.1-0.8,0.3-1.1,0.6
				c-0.5,0.5-0.7,1.2-0.7,1.9c0.1,1.5,1.3,2.8,2.8,2.8c0.7,0,1.3-0.2,1.7-0.7c0.1-0.1,0.2-0.2,0.3-0.3
				C495.1,244.1,494.8,244.1,494.6,244.1z"/>
		</g>
	</g>
	<line id="XMLID_2778_" class="st2" x1="181" y1="74.3" x2="181.9" y2="196.3"/>
	<g id="XMLID_4500_">
		<g id="XMLID_4546_">
			<g id="XMLID_4547_">
				<g id="XMLID_4548_">
					<g id="XMLID_4549_">
						<g id="XMLID_4584_">
							<g id="XMLID_4589_">
								<polygon id="XMLID_4590_" class="st29" points="248.8,143.6 243.2,149.2 243.2,172.3 265.2,172.3 265.2,143.6 								"/>
							</g>
							<g id="XMLID_4585_">
								<path id="XMLID_4586_" class="st11" d="M265.5,172.7h-22.7v-23.6l5.8-5.8h16.9V172.7z M243.5,172h21.3v-28.1h-15.9l-5.4,5.4
									V172z"/>
							</g>
						</g>
						<g id="XMLID_4557_">
							<g id="XMLID_4558_">
								<g id="XMLID_4559_">
									<g id="XMLID_4560_">
										<g id="XMLID_4561_">
											<g id="XMLID_4562_">
												<g id="XMLID_4577_">
													<g id="XMLID_4582_">
														<rect id="XMLID_4583_" x="247.2" y="153.7" class="st30" width="14" height="1.8"/>
													</g>
													<g id="XMLID_4578_">
														<path id="XMLID_4579_" class="st31" d="M261.3,155.6H247v-2h14.3V155.6z M247.3,155.3H261v-1.5h-13.7V155.3z"/>
													</g>
												</g>
												<g id="XMLID_4570_">
													<g id="XMLID_4575_">
														<rect id="XMLID_4576_" x="247.2" y="158.3" class="st30" width="14" height="1.8"/>
													</g>
													<g id="XMLID_4571_">
														<path id="XMLID_4572_" class="st31" d="M261.3,160.2H247v-2h14.3V160.2z M247.3,159.9H261v-1.5h-13.7V159.9z"/>
													</g>
												</g>
												<g id="XMLID_4563_">
													<g id="XMLID_4568_">
														<rect id="XMLID_4569_" x="247.2" y="162.9" class="st30" width="9.4" height="1.8"/>
													</g>
													<g id="XMLID_4564_">
														<path id="XMLID_4565_" class="st31" d="M256.7,164.8H247v-2h9.7V164.8z M247.3,164.5h9.1v-1.5h-9.1V164.5z"/>
													</g>
												</g>
											</g>
										</g>
									</g>
								</g>
							</g>
						</g>
						<g id="XMLID_4550_">
							<g id="XMLID_4555_">
								<polygon id="XMLID_4556_" class="st29" points="248.8,149.2 248.8,143.6 243.2,149.2 								"/>
							</g>
							<g id="XMLID_4551_">
								<path id="XMLID_4552_" class="st11" d="M248.8,149.5h-5.6c-0.1,0-0.3-0.1-0.3-0.2c-0.1-0.1,0-0.3,0.1-0.4l5.6-5.6
									c0.1-0.1,0.2-0.1,0.4-0.1c0.1,0.1,0.2,0.2,0.2,0.3v5.6C249.1,149.4,249,149.5,248.8,149.5z M244,148.9h4.5v-4.5L244,148.9z"
									/>
							</g>
						</g>
					</g>
				</g>
			</g>
		</g>
		<g id="XMLID_4501_">
			<g id="XMLID_4502_">
				<g id="XMLID_4503_">
					<g id="XMLID_4504_">
						<g id="XMLID_4539_">
							<g id="XMLID_4544_">
								<polygon id="XMLID_4545_" class="st29" points="293.3,143.6 287.7,149.2 287.7,172.3 309.6,172.3 309.6,143.6 								"/>
							</g>
							<g id="XMLID_4540_">
								<path id="XMLID_4541_" class="st11" d="M310,172.7h-22.7v-23.6l5.8-5.8H310V172.7z M288,172h21.3v-28.1h-15.9l-5.4,5.4V172z
									"/>
							</g>
						</g>
						<g id="XMLID_4512_">
							<g id="XMLID_4513_">
								<g id="XMLID_4514_">
									<g id="XMLID_4515_">
										<g id="XMLID_4516_">
											<g id="XMLID_4517_">
												<g id="XMLID_4532_">
													<g id="XMLID_4537_">
														<rect id="XMLID_4538_" x="291.6" y="153.7" class="st30" width="14" height="1.8"/>
													</g>
													<g id="XMLID_4533_">
														<path id="XMLID_4534_" class="st31" d="M305.8,155.6h-14.3v-2h14.3V155.6z M291.8,155.3h13.7v-1.5h-13.7V155.3z"/>
													</g>
												</g>
												<g id="XMLID_4525_">
													<g id="XMLID_4530_">
														<rect id="XMLID_4531_" x="291.6" y="158.3" class="st30" width="14" height="1.8"/>
													</g>
													<g id="XMLID_4526_">
														<path id="XMLID_4527_" class="st31" d="M305.8,160.2h-14.3v-2h14.3V160.2z M291.8,159.9h13.7v-1.5h-13.7V159.9z"/>
													</g>
												</g>
												<g id="XMLID_4518_">
													<g id="XMLID_4523_">
														<rect id="XMLID_4524_" x="291.6" y="162.9" class="st30" width="9.4" height="1.8"/>
													</g>
													<g id="XMLID_4519_">
														<path id="XMLID_4520_" class="st31" d="M301.2,164.8h-9.7v-2h9.7V164.8z M291.8,164.5h9.1v-1.5h-9.1V164.5z"/>
													</g>
												</g>
											</g>
										</g>
									</g>
								</g>
							</g>
						</g>
						<g id="XMLID_4505_">
							<g id="XMLID_4510_">
								<polygon id="XMLID_4511_" class="st29" points="293.3,149.2 293.3,143.6 287.7,149.2 								"/>
							</g>
							<g id="XMLID_4506_">
								<path id="XMLID_4507_" class="st11" d="M293.3,149.5h-5.6c-0.1,0-0.3-0.1-0.3-0.2c-0.1-0.1,0-0.3,0.1-0.4l5.6-5.6
									c0.1-0.1,0.2-0.1,0.4-0.1c0.1,0.1,0.2,0.2,0.2,0.3v5.6C293.6,149.4,293.4,149.5,293.3,149.5z M288.4,148.9h4.5v-4.5
									L288.4,148.9z"/>
							</g>
						</g>
					</g>
				</g>
			</g>
		</g>
	</g>
	<g id="XMLID_4409_">
		<g id="XMLID_4455_">
			<g id="XMLID_4456_">
				<g id="XMLID_4457_">
					<g id="XMLID_4458_">
						<g id="XMLID_4493_">
							<g id="XMLID_4498_">
								<polygon id="XMLID_4499_" class="st29" points="248.8,223.8 243.2,229.4 243.2,252.6 265.2,252.6 265.2,223.8 								"/>
							</g>
							<g id="XMLID_4494_">
								<path id="XMLID_4495_" class="st11" d="M265.5,252.9h-22.7v-23.6l5.8-5.8h16.9V252.9z M243.5,252.2h21.3v-28.1h-15.9
									l-5.4,5.4V252.2z"/>
							</g>
						</g>
						<g id="XMLID_4466_">
							<g id="XMLID_4467_">
								<g id="XMLID_4468_">
									<g id="XMLID_4469_">
										<g id="XMLID_4470_">
											<g id="XMLID_4471_">
												<g id="XMLID_4486_">
													<g id="XMLID_4491_">
														<rect id="XMLID_4492_" x="247.2" y="234" class="st30" width="14" height="1.8"/>
													</g>
													<g id="XMLID_4487_">
														<path id="XMLID_4488_" class="st31" d="M261.3,235.9H247v-2h14.3V235.9z M247.3,235.6H261v-1.5h-13.7V235.6z"/>
													</g>
												</g>
												<g id="XMLID_4479_">
													<g id="XMLID_4484_">
														<rect id="XMLID_4485_" x="247.2" y="238.6" class="st30" width="14" height="1.8"/>
													</g>
													<g id="XMLID_4480_">
														<path id="XMLID_4481_" class="st31" d="M261.3,240.5H247v-2h14.3V240.5z M247.3,240.2H261v-1.5h-13.7V240.2z"/>
													</g>
												</g>
												<g id="XMLID_4472_">
													<g id="XMLID_4477_">
														<rect id="XMLID_4478_" x="247.2" y="243.1" class="st30" width="9.4" height="1.8"/>
													</g>
													<g id="XMLID_4473_">
														<path id="XMLID_4474_" class="st31" d="M256.7,245H247v-2h9.7V245z M247.3,244.8h9.1v-1.5h-9.1V244.8z"/>
													</g>
												</g>
											</g>
										</g>
									</g>
								</g>
							</g>
						</g>
						<g id="XMLID_4459_">
							<g id="XMLID_4464_">
								<polygon id="XMLID_4465_" class="st29" points="248.8,229.4 248.8,223.8 243.2,229.4 								"/>
							</g>
							<g id="XMLID_4460_">
								<path id="XMLID_4461_" class="st11" d="M248.8,229.8h-5.6c-0.1,0-0.3-0.1-0.3-0.2c-0.1-0.1,0-0.3,0.1-0.4l5.6-5.6
									c0.1-0.1,0.2-0.1,0.4-0.1c0.1,0.1,0.2,0.2,0.2,0.3v5.6C249.1,229.6,249,229.8,248.8,229.8z M244,229.1h4.5v-4.5L244,229.1z"
									/>
							</g>
						</g>
					</g>
				</g>
			</g>
		</g>
		<g id="XMLID_4410_">
			<g id="XMLID_4411_">
				<g id="XMLID_4412_">
					<g id="XMLID_4413_">
						<g id="XMLID_4448_">
							<g id="XMLID_4453_">
								<polygon id="XMLID_4454_" class="st29" points="293.3,223.8 287.7,229.4 287.7,252.6 309.6,252.6 309.6,223.8 								"/>
							</g>
							<g id="XMLID_4449_">
								<path id="XMLID_4450_" class="st11" d="M310,252.9h-22.7v-23.6l5.8-5.8H310V252.9z M288,252.2h21.3v-28.1h-15.9l-5.4,5.4
									V252.2z"/>
							</g>
						</g>
						<g id="XMLID_4421_">
							<g id="XMLID_4422_">
								<g id="XMLID_4423_">
									<g id="XMLID_4424_">
										<g id="XMLID_4425_">
											<g id="XMLID_4426_">
												<g id="XMLID_4441_">
													<g id="XMLID_4446_">
														<rect id="XMLID_4447_" x="291.6" y="234" class="st30" width="14" height="1.8"/>
													</g>
													<g id="XMLID_4442_">
														<path id="XMLID_4443_" class="st31" d="M305.8,235.9h-14.3v-2h14.3V235.9z M291.8,235.6h13.7v-1.5h-13.7V235.6z"/>
													</g>
												</g>
												<g id="XMLID_4434_">
													<g id="XMLID_4439_">
														<rect id="XMLID_4440_" x="291.6" y="238.6" class="st30" width="14" height="1.8"/>
													</g>
													<g id="XMLID_4435_">
														<path id="XMLID_4436_" class="st31" d="M305.8,240.5h-14.3v-2h14.3V240.5z M291.8,240.2h13.7v-1.5h-13.7V240.2z"/>
													</g>
												</g>
												<g id="XMLID_4427_">
													<g id="XMLID_4432_">
														<rect id="XMLID_4433_" x="291.6" y="243.1" class="st30" width="9.4" height="1.8"/>
													</g>
													<g id="XMLID_4428_">
														<path id="XMLID_4429_" class="st31" d="M301.2,245h-9.7v-2h9.7V245z M291.8,244.8h9.1v-1.5h-9.1V244.8z"/>
													</g>
												</g>
											</g>
										</g>
									</g>
								</g>
							</g>
						</g>
						<g id="XMLID_4414_">
							<g id="XMLID_4419_">
								<polygon id="XMLID_4420_" class="st29" points="293.3,229.4 293.3,223.8 287.7,229.4 								"/>
							</g>
							<g id="XMLID_4415_">
								<path id="XMLID_4416_" class="st11" d="M293.3,229.8h-5.6c-0.1,0-0.3-0.1-0.3-0.2c-0.1-0.1,0-0.3,0.1-0.4l5.6-5.6
									c0.1-0.1,0.2-0.1,0.4-0.1c0.1,0.1,0.2,0.2,0.2,0.3v5.6C293.6,229.6,293.4,229.8,293.3,229.8z M288.4,229.1h4.5v-4.5
									L288.4,229.1z"/>
							</g>
						</g>
					</g>
				</g>
			</g>
		</g>
	</g>
	<g id="XMLID_4024_">
		<g id="XMLID_4025_">
			<g id="XMLID_4028_">
				<g id="XMLID_4033_">
					<path id="XMLID_4034_" class="st29" d="M198.5,71.1c-0.4-0.1-0.6-0.4-0.7-0.8c-0.3-3.8-2.9-6.6-6.1-6.6c-1.2,0-2.3,0.3-3.2,0.9
						c-0.4,0.3-1,0.2-1.2-0.3c-1.4-2.3-3.4-4.1-5.9-5.1c-1.5-0.6-3-0.9-4.7-0.9c-6.6,0-12.1,4.4-12.3,12.1c0,0.4-0.3,0.7-0.6,0.8
						c-3.9,1.3-6.6,5-6.6,9.3c0,5.2,4,9.5,9.2,9.9l30,0c5.2-0.2,9.4-4.6,9.4-9.9C205.7,76.1,202.6,72.3,198.5,71.1z"/>
				</g>
				<g id="XMLID_4029_">
					<path id="XMLID_4030_" class="st32" d="M196.3,90.9l-30,0c0,0,0,0,0,0c-5.4-0.4-9.6-4.9-9.6-10.3c0-4.4,2.8-8.3,7-9.8
						c0.2-0.1,0.3-0.2,0.3-0.4c0.3-7.5,5.4-12.6,12.8-12.6c0,0,0,0,0,0c1.7,0,3.3,0.3,4.9,1c2.5,1.1,4.7,2.9,6.1,5.3
						c0.1,0.1,0.2,0.2,0.2,0.2c0.1,0,0.2,0,0.3-0.1c1-0.6,2.3-1,3.5-1c0,0,0,0,0,0c3.5,0,6.3,3,6.6,7c0,0.2,0.2,0.3,0.3,0.4
						c4.4,1.3,7.5,5.4,7.5,9.9C206.1,86.1,201.8,90.7,196.3,90.9z M166.3,90l30,0c5-0.2,8.9-4.4,8.9-9.4c0-4.2-2.8-7.9-6.8-9l0,0
						c-0.6-0.2-1-0.6-1-1.2c-0.2-3.6-2.6-6.2-5.7-6.2c0,0,0,0,0,0c-1.1,0-2.1,0.3-3,0.8c-0.3,0.2-0.7,0.3-1.1,0.2
						c-0.3-0.1-0.6-0.3-0.8-0.6c-1.3-2.2-3.3-3.9-5.7-4.9c-1.4-0.6-3-0.9-4.5-0.9c0,0,0,0,0,0c-6.8,0-11.6,4.7-11.9,11.7
						c0,0.6-0.4,1-0.9,1.2c-3.8,1.3-6.3,4.9-6.3,8.9C157.5,85.5,161.4,89.6,166.3,90z"/>
				</g>
			</g>
			<g id="XMLID_4026_">
				<path id="XMLID_4027_" class="st33" d="M176.4,58.9c-6.6,0-11.9,4.5-11.9,12.3c0,0,0,0,0,0c-4,1.1-7,4.8-7,9.2
					c0,5,3.9,9.2,8.9,9.5l12.4,0l0,0l2.2-30.1C179.5,59.2,178,58.9,176.4,58.9z"/>
			</g>
		</g>
	</g>
	<g id="XMLID_2850_">
		<path id="XMLID_2863_" class="st34" d="M28,30.2l-2.1-9.8h1.1l1.2,6.4c0.1,0.7,0.2,1.3,0.3,2l0.4-1.8l1.5-6.6h1.3l1.1,4.9
			c0.3,1.2,0.5,2.4,0.6,3.5c0.1-0.6,0.2-1.3,0.4-2.1l1.3-6.3h1.1l-2.2,9.8h-1l-1.7-7.4L31,21.6c-0.1,0.4-0.2,0.8-0.2,1.1L29,30.2H28
			z"/>
		<path id="XMLID_2866_" class="st34" d="M36.9,21.8v-1.4h1v1.4H36.9z M36.9,30.2v-7.1h1v7.1H36.9z"/>
		<path id="XMLID_2871_" class="st34" d="M39.4,30.2v-7.1h0.9v1c0.2-0.4,0.5-0.7,0.8-0.9c0.3-0.2,0.7-0.3,1.1-0.3
			c0.3,0,0.6,0.1,0.9,0.2c0.3,0.1,0.5,0.3,0.6,0.5c0.2,0.2,0.3,0.5,0.4,0.8c0.1,0.3,0.1,0.8,0.1,1.5v4.3h-1v-4.3
			c0-0.5,0-0.9-0.1-1.1c-0.1-0.2-0.2-0.4-0.4-0.6C42.4,24,42.2,24,42,24c-0.5,0-0.8,0.2-1.1,0.5s-0.4,1-0.4,1.8v3.9H39.4z"/>
		<path id="XMLID_4060_" class="st34" d="M49.4,30.2v-0.9c-0.2,0.3-0.4,0.6-0.7,0.8c-0.3,0.2-0.6,0.3-0.9,0.3c-0.7,0-1.3-0.3-1.8-1
			c-0.5-0.6-0.7-1.6-0.7-2.7c0-0.8,0.1-1.5,0.3-2s0.5-1,0.9-1.2c0.4-0.3,0.8-0.4,1.2-0.4c0.3,0,0.6,0.1,0.9,0.3
			c0.3,0.2,0.5,0.4,0.7,0.7v-3.5h1v9.8H49.4z M46.3,26.6c0,0.9,0.2,1.6,0.5,2c0.3,0.4,0.7,0.7,1.1,0.7c0.4,0,0.8-0.2,1.1-0.6
			s0.5-1.1,0.5-1.9c0-1-0.2-1.7-0.5-2.2c-0.3-0.5-0.7-0.7-1.2-0.7c-0.4,0-0.8,0.2-1.1,0.7C46.4,25,46.3,25.7,46.3,26.6z"/>
		<path id="XMLID_4258_" class="st34" d="M51.5,26.6c0-1.2,0.3-2.1,0.8-2.8c0.5-0.6,1.2-0.9,1.9-0.9c0.8,0,1.4,0.3,1.9,0.9
			c0.5,0.6,0.8,1.5,0.8,2.7c0,1.3-0.3,2.2-0.8,2.8c-0.5,0.6-1.2,0.9-2,0.9c-0.8,0-1.4-0.3-1.9-0.9C51.8,28.8,51.5,27.9,51.5,26.6z
			 M52.5,26.6c0,0.9,0.2,1.6,0.5,2c0.3,0.4,0.7,0.7,1.2,0.7c0.5,0,0.9-0.2,1.2-0.7c0.3-0.5,0.5-1.1,0.5-2c0-0.9-0.2-1.6-0.5-2
			c-0.3-0.4-0.7-0.7-1.2-0.7c-0.5,0-0.9,0.2-1.2,0.7C52.7,25,52.5,25.7,52.5,26.6z"/>
		<path id="XMLID_4261_" class="st34" d="M59.2,30.2l-1.8-7.1h1l0.9,4.1l0.3,1.5l0.3-1.5l0.9-4.1h1l0.9,4.1l0.3,1.4l0.3-1.4l1-4.1h1
			l-1.8,7.1h-1l-0.9-4.2l-0.2-1.2l-1.2,5.4H59.2z"/>
		<path id="XMLID_4263_" class="st34" d="M65.8,28.1l1-0.2c0.1,0.5,0.2,0.9,0.5,1.1c0.3,0.2,0.6,0.4,1,0.4s0.8-0.1,1-0.3
			c0.2-0.2,0.3-0.5,0.3-0.8c0-0.3-0.1-0.5-0.3-0.7c-0.1-0.1-0.5-0.2-1-0.4c-0.8-0.2-1.3-0.4-1.5-0.6c-0.3-0.2-0.5-0.4-0.6-0.7
			c-0.1-0.3-0.2-0.6-0.2-0.9c0-0.6,0.2-1.1,0.6-1.5c0.4-0.4,0.9-0.6,1.6-0.6c0.4,0,0.8,0.1,1.1,0.2c0.3,0.2,0.6,0.4,0.7,0.6
			c0.2,0.3,0.3,0.6,0.4,1.1l-1,0.2c-0.1-0.8-0.5-1.2-1.3-1.2c-0.4,0-0.7,0.1-1,0.3c-0.2,0.2-0.3,0.4-0.3,0.7c0,0.3,0.1,0.5,0.3,0.6
			c0.1,0.1,0.5,0.2,1.1,0.4c0.8,0.3,1.3,0.5,1.6,0.6c0.2,0.2,0.4,0.4,0.6,0.6c0.1,0.3,0.2,0.6,0.2,0.9c0,0.7-0.2,1.2-0.6,1.6
			c-0.4,0.4-1,0.6-1.8,0.6C66.8,30.3,66,29.6,65.8,28.1z"/>
		<path id="XMLID_4265_" class="st34" d="M29.6,41l1-0.1c0.1,0.5,0.2,1,0.4,1.3c0.2,0.3,0.5,0.5,0.8,0.7c0.4,0.2,0.7,0.3,1.2,0.3
			c0.6,0,1.1-0.2,1.5-0.5c0.3-0.3,0.5-0.7,0.5-1.2c0-0.3-0.1-0.5-0.2-0.8c-0.1-0.2-0.3-0.4-0.6-0.5c-0.3-0.1-0.8-0.3-1.7-0.6
			c-0.8-0.2-1.3-0.4-1.6-0.7s-0.6-0.5-0.7-0.9c-0.2-0.3-0.3-0.7-0.3-1.2c0-0.8,0.3-1.4,0.8-1.9c0.5-0.5,1.2-0.8,2.1-0.8
			c0.6,0,1.1,0.1,1.6,0.4c0.4,0.2,0.8,0.6,1,1c0.2,0.4,0.4,1,0.4,1.6l-1,0.1c-0.1-0.6-0.2-1.1-0.6-1.4c-0.3-0.3-0.8-0.5-1.4-0.5
			c-0.6,0-1.1,0.1-1.4,0.4c-0.3,0.3-0.5,0.6-0.5,1c0,0.4,0.1,0.7,0.3,0.9c0.2,0.2,0.7,0.4,1.6,0.7c0.8,0.2,1.3,0.4,1.7,0.6
			c0.5,0.2,0.9,0.6,1.1,1c0.2,0.4,0.4,0.9,0.4,1.5c0,0.6-0.1,1.1-0.4,1.5c-0.3,0.5-0.6,0.8-1.1,1c-0.5,0.2-1,0.4-1.6,0.4
			c-1,0-1.8-0.3-2.4-0.9C29.9,42.8,29.6,42,29.6,41z"/>
		<path id="XMLID_4267_" class="st34" d="M41.2,41.8l1,0.2c-0.2,0.8-0.5,1.3-0.9,1.7c-0.4,0.4-1,0.6-1.6,0.6c-0.8,0-1.5-0.3-2-0.9
			c-0.5-0.6-0.8-1.5-0.8-2.7c0-1.2,0.3-2.2,0.8-2.8c0.5-0.6,1.2-1,1.9-1c0.8,0,1.4,0.3,1.9,0.9c0.5,0.6,0.8,1.5,0.8,2.7l0,0.3h-4.3
			c0,0.8,0.2,1.4,0.6,1.8c0.3,0.4,0.7,0.6,1.2,0.6C40.4,43.3,40.9,42.8,41.2,41.8z M38,39.9h3.2c0-0.6-0.2-1.1-0.4-1.4
			c-0.3-0.4-0.7-0.7-1.2-0.7c-0.4,0-0.8,0.2-1.1,0.5C38.2,38.8,38,39.3,38,39.9z"/>
		<path id="XMLID_4270_" class="st34" d="M43.5,44.1V37h0.9v1.1c0.2-0.5,0.4-0.8,0.6-1c0.2-0.2,0.4-0.2,0.6-0.2c0.3,0,0.7,0.1,1,0.4
			l-0.3,1.1c-0.2-0.2-0.5-0.3-0.7-0.3c-0.2,0-0.4,0.1-0.6,0.2c-0.2,0.1-0.3,0.4-0.4,0.6c-0.1,0.5-0.2,0.9-0.2,1.5v3.7H43.5z"/>
		<path id="XMLID_4272_" class="st34" d="M48.8,44.1L46.6,37h1l1.2,4.2c0.1,0.5,0.3,1,0.4,1.4c0.1-0.4,0.2-0.8,0.4-1.3l1.3-4.3h1
			l-2.2,7.1H48.8z"/>
		<path id="XMLID_4274_" class="st34" d="M56.8,41.8l1,0.2c-0.2,0.8-0.5,1.3-0.9,1.7c-0.4,0.4-1,0.6-1.6,0.6c-0.8,0-1.5-0.3-2-0.9
			c-0.5-0.6-0.8-1.5-0.8-2.7c0-1.2,0.3-2.2,0.8-2.8c0.5-0.6,1.2-1,1.9-1c0.8,0,1.4,0.3,1.9,0.9c0.5,0.6,0.8,1.5,0.8,2.7l0,0.3h-4.3
			c0,0.8,0.2,1.4,0.6,1.8c0.3,0.4,0.7,0.6,1.2,0.6C56,43.3,56.5,42.8,56.8,41.8z M53.5,39.9h3.2c0-0.6-0.2-1.1-0.4-1.4
			c-0.3-0.4-0.7-0.7-1.2-0.7c-0.4,0-0.8,0.2-1.1,0.5C53.7,38.8,53.6,39.3,53.5,39.9z"/>
		<path id="XMLID_4277_" class="st34" d="M59,44.1V37h0.9v1.1c0.2-0.5,0.4-0.8,0.6-1c0.2-0.2,0.4-0.2,0.6-0.2c0.3,0,0.7,0.1,1,0.4
			l-0.3,1.1c-0.2-0.2-0.5-0.3-0.7-0.3c-0.2,0-0.4,0.1-0.6,0.2c-0.2,0.1-0.3,0.4-0.4,0.6c-0.1,0.5-0.2,0.9-0.2,1.5v3.7H59z"/>
		<path id="XMLID_4279_" class="st34" d="M62.4,42l1-0.2c0.1,0.5,0.2,0.9,0.5,1.1c0.3,0.2,0.6,0.4,1,0.4s0.8-0.1,1-0.3
			c0.2-0.2,0.3-0.5,0.3-0.8c0-0.3-0.1-0.5-0.3-0.7c-0.1-0.1-0.5-0.2-1-0.4c-0.8-0.2-1.3-0.4-1.5-0.6c-0.3-0.2-0.5-0.4-0.6-0.7
			c-0.1-0.3-0.2-0.6-0.2-0.9c0-0.6,0.2-1.1,0.6-1.5c0.4-0.4,0.9-0.6,1.6-0.6c0.4,0,0.8,0.1,1.1,0.2c0.3,0.2,0.6,0.4,0.7,0.6
			c0.2,0.3,0.3,0.6,0.4,1.1L66,39c-0.1-0.8-0.5-1.2-1.3-1.2c-0.4,0-0.7,0.1-1,0.3c-0.2,0.2-0.3,0.4-0.3,0.7c0,0.3,0.1,0.5,0.3,0.6
			c0.1,0.1,0.5,0.2,1.1,0.4c0.8,0.3,1.3,0.5,1.6,0.6c0.2,0.2,0.4,0.4,0.6,0.6c0.1,0.3,0.2,0.6,0.2,0.9c0,0.7-0.2,1.2-0.6,1.6
			c-0.4,0.4-1,0.6-1.8,0.6C63.4,44.3,62.6,43.5,62.4,42z"/>
	</g>
	<g id="XMLID_4044_">
		<path id="XMLID_4359_" class="st34" d="M29.4,274.5l1-0.1c0.1,0.5,0.2,1,0.4,1.3c0.2,0.3,0.5,0.5,0.8,0.7c0.4,0.2,0.7,0.3,1.2,0.3
			c0.6,0,1.1-0.2,1.5-0.5c0.3-0.3,0.5-0.7,0.5-1.2c0-0.3-0.1-0.5-0.2-0.8c-0.1-0.2-0.3-0.4-0.6-0.5c-0.3-0.1-0.8-0.3-1.7-0.6
			c-0.8-0.2-1.3-0.4-1.6-0.7s-0.6-0.5-0.7-0.9c-0.2-0.3-0.3-0.7-0.3-1.2c0-0.8,0.3-1.4,0.8-1.9c0.5-0.5,1.2-0.8,2.1-0.8
			c0.6,0,1.1,0.1,1.6,0.4c0.4,0.2,0.8,0.6,1,1c0.2,0.4,0.4,1,0.4,1.6l-1,0.1c-0.1-0.6-0.2-1.1-0.6-1.4c-0.3-0.3-0.8-0.5-1.4-0.5
			c-0.6,0-1.1,0.1-1.4,0.4c-0.3,0.3-0.5,0.6-0.5,1c0,0.4,0.1,0.7,0.3,0.9c0.2,0.2,0.7,0.4,1.6,0.7c0.8,0.2,1.3,0.4,1.7,0.6
			c0.5,0.2,0.9,0.6,1.1,1c0.2,0.4,0.4,0.9,0.4,1.5c0,0.6-0.1,1.1-0.4,1.5c-0.3,0.5-0.6,0.8-1.1,1c-0.5,0.2-1,0.4-1.6,0.4
			c-1,0-1.8-0.3-2.4-0.9C29.7,276.3,29.4,275.5,29.4,274.5z"/>
		<path id="XMLID_4361_" class="st34" d="M41.1,275.4l1,0.2c-0.2,0.8-0.5,1.3-0.9,1.7c-0.4,0.4-1,0.6-1.6,0.6c-0.8,0-1.5-0.3-2-0.9
			c-0.5-0.6-0.8-1.5-0.8-2.7c0-1.2,0.3-2.2,0.8-2.8c0.5-0.6,1.2-1,1.9-1c0.8,0,1.4,0.3,1.9,0.9c0.5,0.6,0.8,1.5,0.8,2.7l0,0.3h-4.3
			c0,0.8,0.2,1.4,0.6,1.8c0.3,0.4,0.7,0.6,1.2,0.6C40.3,276.8,40.8,276.3,41.1,275.4z M37.8,273.4h3.2c0-0.6-0.2-1.1-0.4-1.4
			c-0.3-0.4-0.7-0.7-1.2-0.7c-0.4,0-0.8,0.2-1.1,0.5C38,272.3,37.9,272.8,37.8,273.4z"/>
		<path id="XMLID_4364_" class="st34" d="M43.3,277.6v-7.1h0.9v1.1c0.2-0.5,0.4-0.8,0.6-1c0.2-0.2,0.4-0.2,0.6-0.2
			c0.3,0,0.7,0.1,1,0.4l-0.3,1.1c-0.2-0.2-0.5-0.3-0.7-0.3c-0.2,0-0.4,0.1-0.6,0.2c-0.2,0.1-0.3,0.4-0.4,0.6
			c-0.1,0.5-0.2,0.9-0.2,1.5v3.7H43.3z"/>
		<path id="XMLID_4366_" class="st34" d="M48.7,277.6l-2.2-7.1h1l1.2,4.2c0.1,0.5,0.3,1,0.4,1.4c0.1-0.4,0.2-0.8,0.4-1.3l1.3-4.3h1
			l-2.2,7.1H48.7z"/>
		<path id="XMLID_4368_" class="st34" d="M56.6,275.4l1,0.2c-0.2,0.8-0.5,1.3-0.9,1.7c-0.4,0.4-1,0.6-1.6,0.6c-0.8,0-1.5-0.3-2-0.9
			c-0.5-0.6-0.8-1.5-0.8-2.7c0-1.2,0.3-2.2,0.8-2.8c0.5-0.6,1.2-1,1.9-1c0.8,0,1.4,0.3,1.9,0.9c0.5,0.6,0.8,1.5,0.8,2.7l0,0.3h-4.3
			c0,0.8,0.2,1.4,0.6,1.8c0.3,0.4,0.7,0.6,1.2,0.6C55.8,276.8,56.3,276.3,56.6,275.4z M53.4,273.4h3.2c0-0.6-0.2-1.1-0.4-1.4
			c-0.3-0.4-0.7-0.7-1.2-0.7c-0.4,0-0.8,0.2-1.1,0.5C53.6,272.3,53.4,272.8,53.4,273.4z"/>
		<path id="XMLID_4371_" class="st34" d="M58.8,277.6v-7.1h0.9v1.1c0.2-0.5,0.4-0.8,0.6-1c0.2-0.2,0.4-0.2,0.6-0.2
			c0.3,0,0.7,0.1,1,0.4l-0.3,1.1c-0.2-0.2-0.5-0.3-0.7-0.3c-0.2,0-0.4,0.1-0.6,0.2c-0.2,0.1-0.3,0.4-0.4,0.6
			c-0.1,0.5-0.2,0.9-0.2,1.5v3.7H58.8z"/>
		<path id="XMLID_4373_" class="st34" d="M62.2,275.5l1-0.2c0.1,0.5,0.2,0.9,0.5,1.1c0.3,0.2,0.6,0.4,1,0.4s0.8-0.1,1-0.3
			c0.2-0.2,0.3-0.5,0.3-0.8c0-0.3-0.1-0.5-0.3-0.7c-0.1-0.1-0.5-0.2-1-0.4c-0.8-0.2-1.3-0.4-1.5-0.6c-0.3-0.2-0.5-0.4-0.6-0.7
			c-0.1-0.3-0.2-0.6-0.2-0.9c0-0.6,0.2-1.1,0.6-1.5c0.4-0.4,0.9-0.6,1.6-0.6c0.4,0,0.8,0.1,1.1,0.2c0.3,0.2,0.6,0.4,0.7,0.6
			c0.2,0.3,0.3,0.6,0.4,1.1l-1,0.2c-0.1-0.8-0.5-1.2-1.3-1.2c-0.4,0-0.7,0.1-1,0.3c-0.2,0.2-0.3,0.4-0.3,0.7c0,0.3,0.1,0.5,0.3,0.6
			c0.1,0.1,0.5,0.2,1.1,0.4c0.8,0.3,1.3,0.5,1.6,0.6c0.2,0.2,0.4,0.4,0.6,0.6c0.1,0.3,0.2,0.6,0.2,0.9c0,0.7-0.2,1.2-0.6,1.6
			c-0.4,0.4-1,0.6-1.8,0.6C63.2,277.8,62.4,277,62.2,275.5z"/>
	</g>
	<g id="XMLID_4046_">
		<path id="XMLID_4375_" class="st34" d="M479.6,277.6V269H477v-1.2h6.3v1.2h-2.6v8.6H479.6z"/>
		<path id="XMLID_4377_" class="st34" d="M486.8,276.8c-0.3,0.3-0.7,0.6-1,0.8c-0.4,0.2-0.7,0.3-1.1,0.3c-0.6,0-1.1-0.2-1.4-0.5
			c-0.4-0.4-0.5-0.9-0.5-1.5c0-0.4,0.1-0.8,0.3-1.1c0.2-0.3,0.4-0.6,0.7-0.7c0.3-0.2,0.7-0.3,1.3-0.4c0.8-0.1,1.4-0.3,1.8-0.4l0-0.3
			c0-0.5-0.1-0.8-0.3-1c-0.2-0.3-0.6-0.4-1.1-0.4c-0.5,0-0.8,0.1-1,0.3s-0.4,0.5-0.5,1.1l-1-0.2c0.1-0.8,0.4-1.3,0.8-1.7
			s1-0.5,1.8-0.5c0.6,0,1.1,0.1,1.4,0.3c0.3,0.2,0.6,0.5,0.7,0.8c0.1,0.3,0.1,0.8,0.1,1.5v1.6c0,1.1,0,1.8,0.1,2.1
			c0,0.3,0.1,0.6,0.2,0.8h-1C486.9,277.4,486.8,277.1,486.8,276.8z M486.7,274.1c-0.4,0.2-0.9,0.3-1.6,0.5c-0.4,0.1-0.7,0.2-0.9,0.2
			c-0.2,0.1-0.3,0.2-0.4,0.4c-0.1,0.2-0.1,0.4-0.1,0.6c0,0.3,0.1,0.6,0.3,0.8c0.2,0.2,0.5,0.3,0.9,0.3c0.4,0,0.7-0.1,1-0.3
			c0.3-0.2,0.5-0.4,0.6-0.7c0.1-0.3,0.2-0.7,0.2-1.3V274.1z"/>
		<path id="XMLID_4380_" class="st34" d="M489.3,280.4v-9.8h0.9v0.9c0.2-0.4,0.5-0.7,0.7-0.8c0.3-0.2,0.6-0.3,0.9-0.3
			c0.5,0,0.9,0.1,1.2,0.4c0.4,0.3,0.7,0.7,0.9,1.2c0.2,0.6,0.3,1.2,0.3,2c0,1.2-0.3,2.1-0.8,2.8c-0.5,0.7-1.1,1-1.8,1
			c-0.3,0-0.6-0.1-0.8-0.2c-0.3-0.2-0.5-0.4-0.7-0.7v3.4H489.3z M490.1,274.2c0,0.9,0.2,1.6,0.5,2c0.3,0.4,0.7,0.6,1.1,0.6
			c0.4,0,0.8-0.2,1.1-0.7c0.3-0.4,0.5-1.1,0.5-2.1c0-0.9-0.2-1.6-0.5-2.1c-0.3-0.4-0.7-0.7-1.1-0.7c-0.4,0-0.8,0.2-1.1,0.7
			C490.3,272.5,490.1,273.2,490.1,274.2z"/>
		<path id="XMLID_4383_" class="st34" d="M499.4,275.4l1,0.2c-0.2,0.8-0.5,1.3-0.9,1.7c-0.4,0.4-1,0.6-1.6,0.6c-0.8,0-1.5-0.3-2-0.9
			c-0.5-0.6-0.8-1.5-0.8-2.7c0-1.2,0.3-2.2,0.8-2.8c0.5-0.6,1.2-1,1.9-1c0.7,0,1.4,0.3,1.9,0.9c0.5,0.6,0.8,1.5,0.8,2.7l0,0.3h-4.3
			c0,0.8,0.2,1.4,0.6,1.8c0.3,0.4,0.7,0.6,1.2,0.6C498.6,276.8,499.1,276.3,499.4,275.4z M496.2,273.4h3.2c0-0.6-0.2-1.1-0.4-1.4
			c-0.3-0.4-0.7-0.7-1.2-0.7c-0.4,0-0.8,0.2-1.1,0.5C496.4,272.3,496.2,272.8,496.2,273.4z"/>
	</g>
	<g id="XMLID_4038_">
		<path id="XMLID_4281_" class="st34" d="M163.5,30.2v-9.8h1.1l4.2,7.7v-7.7h1v9.8h-1.1l-4.2-7.7v7.7H163.5z"/>
		<path id="XMLID_4283_" class="st34" d="M175.5,27.9l1,0.2c-0.2,0.8-0.5,1.3-0.9,1.7c-0.4,0.4-1,0.6-1.6,0.6c-0.8,0-1.5-0.3-2-0.9
			c-0.5-0.6-0.8-1.5-0.8-2.7c0-1.2,0.3-2.2,0.8-2.8c0.5-0.6,1.2-1,1.9-1c0.8,0,1.4,0.3,1.9,0.9c0.5,0.6,0.8,1.5,0.8,2.7l0,0.3h-4.3
			c0,0.8,0.2,1.4,0.6,1.8c0.3,0.4,0.7,0.6,1.2,0.6C174.7,29.3,175.2,28.9,175.5,27.9z M172.2,26h3.2c0-0.6-0.2-1.1-0.4-1.4
			c-0.3-0.4-0.7-0.7-1.2-0.7c-0.4,0-0.8,0.2-1.1,0.5C172.4,24.8,172.3,25.3,172.2,26z"/>
		<path id="XMLID_4286_" class="st34" d="M179.9,29.1l0.1,1.1c-0.3,0.1-0.5,0.1-0.7,0.1c-0.3,0-0.6-0.1-0.8-0.2
			c-0.2-0.1-0.4-0.3-0.4-0.6c-0.1-0.2-0.1-0.7-0.1-1.4V24h-0.7v-0.9h0.7v-1.8l1-0.7v2.5h1V24h-1v4.1c0,0.4,0,0.6,0.1,0.7
			c0.1,0.2,0.2,0.2,0.5,0.2C179.6,29.1,179.7,29.1,179.9,29.1z"/>
		<path id="XMLID_4288_" class="st34" d="M180.1,30.2l3.1-9.8h1.1l3.3,9.8h-1.2l-0.9-3h-3.4l-0.9,3H180.1z M182.4,26.2h2.7l-0.8-2.7
			c-0.3-0.8-0.4-1.5-0.6-2c-0.1,0.6-0.2,1.2-0.4,1.9L182.4,26.2z"/>
		<path id="XMLID_4291_" class="st34" d="M188.3,32.9v-9.8h0.9V24c0.2-0.4,0.5-0.7,0.7-0.8c0.3-0.2,0.6-0.3,0.9-0.3
			c0.5,0,0.9,0.1,1.2,0.4c0.4,0.3,0.7,0.7,0.9,1.2c0.2,0.6,0.3,1.2,0.3,2c0,1.2-0.3,2.1-0.8,2.8c-0.5,0.7-1.1,1-1.8,1
			c-0.3,0-0.6-0.1-0.8-0.2s-0.5-0.4-0.7-0.7v3.4H188.3z M189.2,26.7c0,0.9,0.2,1.6,0.5,2s0.7,0.6,1.1,0.6c0.4,0,0.8-0.2,1.1-0.7
			c0.3-0.4,0.5-1.1,0.5-2.1c0-0.9-0.2-1.6-0.5-2.1c-0.3-0.4-0.7-0.7-1.1-0.7c-0.4,0-0.8,0.2-1.1,0.7
			C189.3,25.1,189.2,25.8,189.2,26.7z"/>
		<path id="XMLID_4294_" class="st34" d="M194.5,32.9v-9.8h0.9V24c0.2-0.4,0.5-0.7,0.7-0.8c0.3-0.2,0.6-0.3,0.9-0.3
			c0.5,0,0.9,0.1,1.2,0.4c0.4,0.3,0.7,0.7,0.9,1.2c0.2,0.6,0.3,1.2,0.3,2c0,1.2-0.3,2.1-0.8,2.8c-0.5,0.7-1.1,1-1.8,1
			c-0.3,0-0.6-0.1-0.8-0.2s-0.5-0.4-0.7-0.7v3.4H194.5z M195.4,26.7c0,0.9,0.2,1.6,0.5,2s0.7,0.6,1.1,0.6c0.4,0,0.8-0.2,1.1-0.7
			c0.3-0.4,0.5-1.1,0.5-2.1c0-0.9-0.2-1.6-0.5-2.1c-0.3-0.4-0.7-0.7-1.1-0.7c-0.4,0-0.8,0.2-1.1,0.7
			C195.6,25.1,195.4,25.8,195.4,26.7z"/>
		<path id="XMLID_4297_" class="st34" d="M162.3,41l1-0.1c0.1,0.5,0.2,1,0.4,1.3s0.5,0.5,0.8,0.7c0.4,0.2,0.7,0.3,1.2,0.3
			c0.6,0,1.1-0.2,1.5-0.5c0.3-0.3,0.5-0.7,0.5-1.2c0-0.3-0.1-0.5-0.2-0.8c-0.1-0.2-0.3-0.4-0.6-0.5c-0.3-0.1-0.8-0.3-1.7-0.6
			c-0.8-0.2-1.3-0.4-1.6-0.7c-0.3-0.2-0.6-0.5-0.7-0.9c-0.2-0.3-0.3-0.7-0.3-1.2c0-0.8,0.3-1.4,0.8-1.9c0.5-0.5,1.2-0.8,2.1-0.8
			c0.6,0,1.1,0.1,1.6,0.4c0.4,0.2,0.8,0.6,1,1c0.2,0.4,0.4,1,0.4,1.6l-1,0.1c-0.1-0.6-0.2-1.1-0.6-1.4c-0.3-0.3-0.8-0.5-1.4-0.5
			c-0.6,0-1.1,0.1-1.4,0.4s-0.5,0.6-0.5,1c0,0.4,0.1,0.7,0.3,0.9c0.2,0.2,0.7,0.4,1.6,0.7c0.8,0.2,1.3,0.4,1.7,0.6
			c0.5,0.2,0.9,0.6,1.1,1c0.2,0.4,0.4,0.9,0.4,1.5c0,0.6-0.1,1.1-0.4,1.5c-0.3,0.5-0.6,0.8-1.1,1c-0.5,0.2-1,0.4-1.6,0.4
			c-1,0-1.8-0.3-2.4-0.9C162.6,42.8,162.3,42,162.3,41z"/>
		<path id="XMLID_4299_" class="st34" d="M172.1,43l0.1,1.1c-0.3,0.1-0.5,0.1-0.7,0.1c-0.3,0-0.6-0.1-0.8-0.2
			c-0.2-0.1-0.4-0.3-0.4-0.6c-0.1-0.2-0.1-0.7-0.1-1.4V38h-0.7V37h0.7v-1.8l1-0.7V37h1V38h-1v4.1c0,0.4,0,0.6,0.1,0.7
			c0.1,0.2,0.2,0.2,0.5,0.2C171.8,43.1,172,43.1,172.1,43z"/>
		<path id="XMLID_4301_" class="st34" d="M172.7,40.6c0-1.2,0.3-2.1,0.8-2.8c0.5-0.6,1.2-0.9,1.9-0.9c0.8,0,1.4,0.3,1.9,0.9
			c0.5,0.6,0.8,1.5,0.8,2.7c0,1.3-0.3,2.2-0.8,2.8c-0.5,0.6-1.2,0.9-2,0.9c-0.8,0-1.4-0.3-1.9-0.9C172.9,42.7,172.7,41.8,172.7,40.6
			z M173.7,40.6c0,0.9,0.2,1.6,0.5,2c0.3,0.4,0.7,0.7,1.2,0.7c0.5,0,0.9-0.2,1.2-0.7c0.3-0.5,0.5-1.1,0.5-2c0-0.9-0.2-1.6-0.5-2
			c-0.3-0.4-0.7-0.7-1.2-0.7c-0.5,0-0.9,0.2-1.2,0.7C173.9,39,173.7,39.7,173.7,40.6z"/>
		<path id="XMLID_4304_" class="st34" d="M179.3,44.1V37h0.9v1.1c0.2-0.5,0.4-0.8,0.6-1c0.2-0.2,0.4-0.2,0.6-0.2
			c0.3,0,0.7,0.1,1,0.4l-0.3,1.1c-0.2-0.2-0.5-0.3-0.7-0.3c-0.2,0-0.4,0.1-0.6,0.2c-0.2,0.1-0.3,0.4-0.4,0.6
			c-0.1,0.5-0.2,0.9-0.2,1.5v3.7H179.3z"/>
		<path id="XMLID_4306_" class="st34" d="M186.8,43.2c-0.3,0.3-0.7,0.6-1,0.8c-0.4,0.2-0.7,0.3-1.1,0.3c-0.6,0-1.1-0.2-1.4-0.5
			c-0.4-0.4-0.5-0.9-0.5-1.5c0-0.4,0.1-0.8,0.3-1.1c0.2-0.3,0.4-0.6,0.7-0.7c0.3-0.2,0.7-0.3,1.3-0.4c0.8-0.1,1.4-0.3,1.8-0.4l0-0.3
			c0-0.5-0.1-0.8-0.3-1c-0.2-0.3-0.6-0.4-1.1-0.4c-0.5,0-0.8,0.1-1,0.3c-0.2,0.2-0.4,0.5-0.5,1.1l-1-0.2c0.1-0.8,0.4-1.3,0.8-1.7
			c0.4-0.3,1-0.5,1.8-0.5c0.6,0,1.1,0.1,1.4,0.3c0.3,0.2,0.6,0.5,0.7,0.8c0.1,0.3,0.1,0.8,0.1,1.5v1.6c0,1.1,0,1.8,0.1,2.1
			c0,0.3,0.1,0.6,0.2,0.8h-1C186.9,43.9,186.8,43.6,186.8,43.2z M186.7,40.6c-0.4,0.2-0.9,0.3-1.6,0.5c-0.4,0.1-0.7,0.2-0.9,0.2
			c-0.2,0.1-0.3,0.2-0.4,0.4c-0.1,0.2-0.1,0.4-0.1,0.6c0,0.3,0.1,0.6,0.3,0.8c0.2,0.2,0.5,0.3,0.9,0.3c0.4,0,0.7-0.1,1-0.3
			c0.3-0.2,0.5-0.4,0.6-0.7c0.1-0.3,0.2-0.7,0.2-1.3V40.6z"/>
		<path id="XMLID_4309_" class="st34" d="M189,44.7l1,0.2c0,0.4,0.2,0.7,0.4,0.8c0.2,0.2,0.5,0.3,0.9,0.3c0.4,0,0.8-0.1,1-0.3
			c0.3-0.2,0.4-0.5,0.5-0.9c0.1-0.2,0.1-0.8,0.1-1.6c-0.2,0.3-0.5,0.5-0.7,0.7c-0.3,0.2-0.6,0.2-0.9,0.2c-0.7,0-1.3-0.3-1.7-0.9
			c-0.5-0.7-0.8-1.6-0.8-2.7c0-0.8,0.1-1.4,0.3-2c0.2-0.6,0.5-1,0.9-1.3c0.4-0.3,0.8-0.4,1.3-0.4c0.3,0,0.7,0.1,0.9,0.3
			c0.3,0.2,0.5,0.4,0.7,0.8V37h0.9v6.1c0,1.1-0.1,1.9-0.3,2.3c-0.2,0.5-0.5,0.8-0.9,1.1c-0.4,0.3-0.9,0.4-1.5,0.4
			c-0.8,0-1.3-0.2-1.7-0.6C189.2,46,189,45.4,189,44.7z M189.8,40.5c0,0.9,0.2,1.6,0.5,2c0.3,0.4,0.7,0.6,1.1,0.6
			c0.4,0,0.8-0.2,1.1-0.6c0.3-0.4,0.5-1.1,0.5-2c0-0.9-0.2-1.6-0.5-2c-0.3-0.4-0.7-0.7-1.2-0.7c-0.4,0-0.8,0.2-1.1,0.7
			C190,39,189.8,39.6,189.8,40.5z"/>
		<path id="XMLID_4313_" class="st34" d="M199.4,41.8l1,0.2c-0.2,0.8-0.5,1.3-0.9,1.7c-0.4,0.4-1,0.6-1.6,0.6c-0.8,0-1.5-0.3-2-0.9
			c-0.5-0.6-0.8-1.5-0.8-2.7c0-1.2,0.3-2.2,0.8-2.8c0.5-0.6,1.2-1,1.9-1c0.8,0,1.4,0.3,1.9,0.9c0.5,0.6,0.8,1.5,0.8,2.7l0,0.3h-4.3
			c0,0.8,0.2,1.4,0.6,1.8c0.3,0.4,0.7,0.6,1.2,0.6C198.6,43.3,199.1,42.8,199.4,41.8z M196.2,39.9h3.2c0-0.6-0.2-1.1-0.4-1.4
			c-0.3-0.4-0.7-0.7-1.2-0.7c-0.4,0-0.8,0.2-1.1,0.5C196.4,38.8,196.2,39.3,196.2,39.9z"/>
	</g>
	<g id="XMLID_4338_">
		<path id="XMLID_4357_" class="st34" d="M249.5,30.2v-9.8h1.1v9.8H249.5z"/>
		<path id="XMLID_4355_" class="st34" d="M252.4,30.2v-9.8h1.1V29h3.9v1.2H252.4z"/>
		<path id="XMLID_4353_" class="st34" d="M258.6,30.2v-9.8h1.6l1.9,6.9l0.4,1.4c0.1-0.4,0.2-0.9,0.4-1.6l1.9-6.8h1.4v9.8h-1V22
			l-2.3,8.2h-1l-2.3-8.3v8.3H258.6z"/>
		<path id="XMLID_4351_" class="st34" d="M270.7,27l1-0.1c0.1,0.5,0.2,1,0.4,1.3c0.2,0.3,0.5,0.5,0.8,0.7c0.4,0.2,0.7,0.3,1.2,0.3
			c0.6,0,1.1-0.2,1.5-0.5c0.3-0.3,0.5-0.7,0.5-1.2c0-0.3-0.1-0.5-0.2-0.8c-0.1-0.2-0.3-0.4-0.6-0.5c-0.3-0.1-0.8-0.3-1.7-0.6
			c-0.8-0.2-1.3-0.4-1.6-0.7c-0.3-0.2-0.6-0.5-0.7-0.9c-0.2-0.3-0.3-0.7-0.3-1.2c0-0.8,0.3-1.4,0.8-1.9c0.5-0.5,1.2-0.8,2.1-0.8
			c0.6,0,1.1,0.1,1.6,0.4c0.4,0.2,0.8,0.6,1,1c0.2,0.4,0.4,1,0.4,1.6l-1,0.1c-0.1-0.6-0.2-1.1-0.6-1.4c-0.3-0.3-0.8-0.5-1.4-0.5
			c-0.6,0-1.1,0.1-1.4,0.4c-0.3,0.3-0.5,0.6-0.5,1c0,0.4,0.1,0.7,0.3,0.9c0.2,0.2,0.7,0.4,1.6,0.7c0.8,0.2,1.3,0.4,1.7,0.6
			c0.5,0.2,0.9,0.6,1.1,1c0.2,0.4,0.4,0.9,0.4,1.5c0,0.6-0.1,1.1-0.4,1.5c-0.3,0.5-0.6,0.8-1.1,1c-0.5,0.2-1,0.4-1.6,0.4
			c-1,0-1.8-0.3-2.4-0.9C271.1,28.9,270.7,28,270.7,27z"/>
		<path id="XMLID_4348_" class="st34" d="M282.4,27.9l1,0.2c-0.2,0.8-0.5,1.3-0.9,1.7c-0.4,0.4-1,0.6-1.6,0.6c-0.8,0-1.5-0.3-2-0.9
			c-0.5-0.6-0.8-1.5-0.8-2.7c0-1.2,0.3-2.2,0.8-2.8c0.5-0.6,1.2-1,1.9-1c0.7,0,1.4,0.3,1.9,0.9c0.5,0.6,0.8,1.5,0.8,2.7l0,0.3h-4.3
			c0,0.8,0.2,1.4,0.6,1.8c0.3,0.4,0.7,0.6,1.2,0.6C281.6,29.3,282.1,28.9,282.4,27.9z M279.1,26h3.2c0-0.6-0.2-1.1-0.4-1.4
			c-0.3-0.4-0.7-0.7-1.2-0.7c-0.4,0-0.8,0.2-1.1,0.5C279.3,24.8,279.2,25.3,279.1,26z"/>
		<path id="XMLID_4346_" class="st34" d="M284.6,30.2v-7.1h0.9v1.1c0.2-0.5,0.4-0.8,0.6-1c0.2-0.2,0.4-0.2,0.6-0.2
			c0.3,0,0.7,0.1,1,0.4l-0.3,1.1c-0.2-0.2-0.5-0.3-0.7-0.3c-0.2,0-0.4,0.1-0.6,0.2c-0.2,0.1-0.3,0.4-0.4,0.6
			c-0.1,0.5-0.2,0.9-0.2,1.5v3.7H284.6z"/>
		<path id="XMLID_4344_" class="st34" d="M290,30.2l-2.2-7.1h1l1.2,4.2c0.1,0.5,0.3,1,0.4,1.4c0.1-0.4,0.2-0.8,0.4-1.3l1.3-4.3h1
			l-2.2,7.1H290z"/>
		<path id="XMLID_4341_" class="st34" d="M297.9,27.9l1,0.2c-0.2,0.8-0.5,1.3-0.9,1.7c-0.4,0.4-1,0.6-1.6,0.6c-0.8,0-1.5-0.3-2-0.9
			c-0.5-0.6-0.8-1.5-0.8-2.7c0-1.2,0.3-2.2,0.8-2.8c0.5-0.6,1.2-1,1.9-1c0.7,0,1.4,0.3,1.9,0.9c0.5,0.6,0.8,1.5,0.8,2.7l0,0.3h-4.3
			c0,0.8,0.2,1.4,0.6,1.8c0.3,0.4,0.7,0.6,1.2,0.6C297.1,29.3,297.6,28.9,297.9,27.9z M294.7,26h3.2c0-0.6-0.2-1.1-0.4-1.4
			c-0.3-0.4-0.7-0.7-1.2-0.7c-0.4,0-0.8,0.2-1.1,0.5C294.9,24.8,294.7,25.3,294.7,26z"/>
		<path id="XMLID_4339_" class="st34" d="M300.2,30.2v-7.1h0.9v1.1c0.2-0.5,0.4-0.8,0.6-1c0.2-0.2,0.4-0.2,0.6-0.2
			c0.3,0,0.7,0.1,1,0.4l-0.3,1.1c-0.2-0.2-0.5-0.3-0.7-0.3c-0.2,0-0.4,0.1-0.6,0.2c-0.2,0.1-0.3,0.4-0.4,0.6
			c-0.1,0.5-0.2,0.9-0.2,1.5v3.7H300.2z"/>
	</g>
	<g id="XMLID_2872_">
		<path id="XMLID_4407_" class="st34" d="M366.5,30.2v-9.8h1.1l4.2,7.7v-7.7h1v9.8h-1.1l-4.2-7.7v7.7H366.5z"/>
		<path id="XMLID_4404_" class="st34" d="M378.5,27.9l1,0.2c-0.2,0.8-0.5,1.3-0.9,1.7c-0.4,0.4-1,0.6-1.6,0.6c-0.8,0-1.5-0.3-2-0.9
			c-0.5-0.6-0.8-1.5-0.8-2.7c0-1.2,0.3-2.2,0.8-2.8c0.5-0.6,1.2-1,1.9-1c0.8,0,1.4,0.3,1.9,0.9c0.5,0.6,0.8,1.5,0.8,2.7l0,0.3h-4.3
			c0,0.8,0.2,1.4,0.6,1.8c0.3,0.4,0.7,0.6,1.2,0.6C377.6,29.3,378.2,28.9,378.5,27.9z M375.2,26h3.2c0-0.6-0.2-1.1-0.4-1.4
			c-0.3-0.4-0.7-0.7-1.2-0.7c-0.4,0-0.8,0.2-1.1,0.5S375.3,25.3,375.2,26z"/>
		<path id="XMLID_4401_" class="st34" d="M384.5,29.3c-0.3,0.3-0.7,0.6-1,0.8c-0.4,0.2-0.7,0.3-1.1,0.3c-0.6,0-1.1-0.2-1.4-0.5
			c-0.4-0.4-0.5-0.9-0.5-1.5c0-0.4,0.1-0.8,0.3-1.1c0.2-0.3,0.4-0.6,0.7-0.7c0.3-0.2,0.7-0.3,1.3-0.4c0.8-0.1,1.4-0.3,1.8-0.4l0-0.3
			c0-0.5-0.1-0.8-0.3-1c-0.2-0.3-0.6-0.4-1.1-0.4c-0.5,0-0.8,0.1-1,0.3c-0.2,0.2-0.4,0.5-0.5,1.1l-1-0.2c0.1-0.8,0.4-1.3,0.8-1.7
			c0.4-0.3,1-0.5,1.8-0.5c0.6,0,1.1,0.1,1.4,0.3c0.3,0.2,0.6,0.5,0.7,0.8c0.1,0.3,0.1,0.8,0.1,1.5v1.6c0,1.1,0,1.8,0.1,2.1
			c0,0.3,0.1,0.6,0.2,0.8h-1C384.6,29.9,384.5,29.6,384.5,29.3z M384.4,26.6c-0.4,0.2-0.9,0.3-1.6,0.5c-0.4,0.1-0.7,0.2-0.9,0.2
			c-0.2,0.1-0.3,0.2-0.4,0.4c-0.1,0.2-0.1,0.4-0.1,0.6c0,0.3,0.1,0.6,0.3,0.8c0.2,0.2,0.5,0.3,0.9,0.3c0.4,0,0.7-0.1,1-0.3
			c0.3-0.2,0.5-0.4,0.6-0.7c0.1-0.3,0.2-0.7,0.2-1.3V26.6z"/>
		<path id="XMLID_4399_" class="st34" d="M386.9,30.2v-7.1h0.9v1.1c0.2-0.5,0.4-0.8,0.6-1c0.2-0.2,0.4-0.2,0.6-0.2
			c0.3,0,0.7,0.1,1,0.4l-0.3,1.1c-0.2-0.2-0.5-0.3-0.7-0.3c-0.2,0-0.4,0.1-0.6,0.2c-0.2,0.1-0.3,0.4-0.4,0.6
			c-0.1,0.5-0.2,0.9-0.2,1.5v3.7H386.9z"/>
		<path id="XMLID_4397_" class="st34" d="M390.4,27l1-0.1c0.1,0.5,0.2,1,0.4,1.3c0.2,0.3,0.5,0.5,0.8,0.7c0.4,0.2,0.7,0.3,1.2,0.3
			c0.6,0,1.1-0.2,1.5-0.5c0.3-0.3,0.5-0.7,0.5-1.2c0-0.3-0.1-0.5-0.2-0.8c-0.1-0.2-0.3-0.4-0.6-0.5c-0.3-0.1-0.8-0.3-1.7-0.6
			c-0.8-0.2-1.3-0.4-1.6-0.7c-0.3-0.2-0.6-0.5-0.7-0.9c-0.2-0.3-0.3-0.7-0.3-1.2c0-0.8,0.3-1.4,0.8-1.9c0.5-0.5,1.2-0.8,2.1-0.8
			c0.6,0,1.1,0.1,1.6,0.4c0.4,0.2,0.8,0.6,1,1c0.2,0.4,0.4,1,0.4,1.6l-1,0.1c-0.1-0.6-0.2-1.1-0.6-1.4c-0.3-0.3-0.8-0.5-1.4-0.5
			c-0.6,0-1.1,0.1-1.4,0.4c-0.3,0.3-0.5,0.6-0.5,1c0,0.4,0.1,0.7,0.3,0.9c0.2,0.2,0.7,0.4,1.6,0.7c0.8,0.2,1.3,0.4,1.7,0.6
			c0.5,0.2,0.9,0.6,1.1,1c0.2,0.4,0.4,0.9,0.4,1.5c0,0.6-0.1,1.1-0.4,1.5c-0.3,0.5-0.6,0.8-1.1,1c-0.5,0.2-1,0.4-1.6,0.4
			c-1,0-1.8-0.3-2.4-0.9C390.8,28.9,390.5,28,390.4,27z"/>
		<path id="XMLID_4395_" class="st34" d="M400.3,29.1l0.1,1.1c-0.3,0.1-0.5,0.1-0.7,0.1c-0.3,0-0.6-0.1-0.8-0.2
			c-0.2-0.1-0.4-0.3-0.4-0.6c-0.1-0.2-0.1-0.7-0.1-1.4V24h-0.7v-0.9h0.7v-1.8l1-0.7v2.5h1V24h-1v4.1c0,0.4,0,0.6,0.1,0.7
			c0.1,0.2,0.2,0.2,0.5,0.2C400,29.1,400.1,29.1,400.3,29.1z"/>
		<path id="XMLID_4054_" class="st34" d="M400.8,26.6c0-1.2,0.3-2.1,0.8-2.8c0.5-0.6,1.2-0.9,1.9-0.9c0.8,0,1.4,0.3,1.9,0.9
			c0.5,0.6,0.8,1.5,0.8,2.7c0,1.3-0.3,2.2-0.8,2.8c-0.5,0.6-1.2,0.9-2,0.9c-0.8,0-1.4-0.3-1.9-0.9C401.1,28.8,400.8,27.9,400.8,26.6
			z M401.8,26.6c0,0.9,0.2,1.6,0.5,2c0.3,0.4,0.7,0.7,1.2,0.7c0.5,0,0.9-0.2,1.2-0.7c0.3-0.5,0.5-1.1,0.5-2c0-0.9-0.2-1.6-0.5-2
			c-0.3-0.4-0.7-0.7-1.2-0.7c-0.5,0-0.9,0.2-1.2,0.7C402,25,401.8,25.7,401.8,26.6z"/>
		<path id="XMLID_4051_" class="st34" d="M407.4,30.2v-7.1h0.9v1c0.2-0.4,0.5-0.7,0.8-0.9c0.3-0.2,0.7-0.3,1.1-0.3
			c0.3,0,0.6,0.1,0.9,0.2c0.3,0.1,0.5,0.3,0.6,0.5c0.2,0.2,0.3,0.5,0.4,0.8c0.1,0.3,0.1,0.8,0.1,1.5v4.3h-1v-4.3
			c0-0.5,0-0.9-0.1-1.1c-0.1-0.2-0.2-0.4-0.4-0.6c-0.2-0.1-0.4-0.2-0.7-0.2c-0.5,0-0.8,0.2-1.1,0.5s-0.4,1-0.4,1.8v3.9H407.4z"/>
		<path id="XMLID_2874_" class="st34" d="M417.6,27.9l1,0.2c-0.2,0.8-0.5,1.3-0.9,1.7c-0.4,0.4-1,0.6-1.6,0.6c-0.8,0-1.5-0.3-2-0.9
			c-0.5-0.6-0.8-1.5-0.8-2.7c0-1.2,0.3-2.2,0.8-2.8c0.5-0.6,1.2-1,1.9-1c0.8,0,1.4,0.3,1.9,0.9c0.5,0.6,0.8,1.5,0.8,2.7l0,0.3h-4.3
			c0,0.8,0.2,1.4,0.6,1.8c0.3,0.4,0.7,0.6,1.2,0.6C416.8,29.3,417.3,28.9,417.6,27.9z M414.4,26h3.2c0-0.6-0.2-1.1-0.4-1.4
			c-0.3-0.4-0.7-0.7-1.2-0.7c-0.4,0-0.8,0.2-1.1,0.5C414.6,24.8,414.4,25.3,414.4,26z"/>
	</g>
	<g id="XMLID_246_">
		<g id="XMLID_3991_" transform="matrix( 2.2337799072265625, 0, 0, 2.2337799072265625, -615.8,-92.35) ">
			<g id="XMLID_3992_">
				<g id="Layer0_160_MEMBER_0_MEMBER_228_FILL_1_">
					<path id="XMLID_3993_" class="st35" d="M366.5,102.1l0.3-2.3l-0.4-0.1l-6.4-1.6l-8-1.2l-4.8-0.2l-0.4-0.1l-0.2,2.2L366.5,102.1
						 M366.4,100.1l-0.3,1.7l-19.3-3l0.1-1.7l6.4,0.4l6.4,1L366.4,100.1z"/>
				</g>
			</g>
		</g>
		<g id="XMLID_3979_" transform="matrix( 2.2337799072265625, 0, 0, 2.2337799072265625, -615.8,-92.35) ">
			<g id="XMLID_3980_">
				<g id="Layer0_160_MEMBER_0_MEMBER_232_FILL_1_">
					<path id="XMLID_3981_" class="st17" d="M352.5,91.9L352.5,91.9l-0.1,0l-0.1,0h-0.1l-0.7-0.1h-0.1l-0.1,0H351l-1-0.1l-2.1,3
						l7.9,0.5l11.1,2.4l-0.5-3.5l-0.9-0.1l0,0h-0.1l-0.1,0H365l-0.7-0.1h-0.1l-0.1-0.1h-0.1L352.5,91.9z"/>
				</g>
			</g>
		</g>
		<g id="XMLID_3973_" transform="matrix( 2.2337799072265625, 0, 0, 2.2337799072265625, -615.8,-92.35) ">
			<g id="XMLID_3974_">
				<g id="Layer0_160_MEMBER_0_MEMBER_234_FILL_1_">
					<path id="XMLID_3975_" class="st18" d="M347.2,96.8l0.7-2.3l-0.4-0.1l-0.7,2.3L347.2,96.8z"/>
				</g>
			</g>
		</g>
		<g id="XMLID_3970_" transform="matrix( 2.2337799072265625, 0, 0, 2.2337799072265625, -615.8,-92.35) ">
			<g id="XMLID_3971_">
				<g id="Layer0_160_MEMBER_0_MEMBER_235_FILL_1_">
					<path id="XMLID_3972_" class="st18" d="M366.4,99.8l0.4-2.4l-6.3-1.6l-6.3-0.9l-6.3-0.4l-0.7,2.3l3.2,0.2l9,1.1L366.4,99.8z"/>
				</g>
			</g>
		</g>
		<g id="XMLID_3967_" transform="matrix( 2.2337799072265625, 0, 0, 2.2337799072265625, -615.8,-92.35) ">
			<g id="XMLID_3968_">
				<g id="Layer0_160_MEMBER_0_MEMBER_236_FILL_1_">
					<path id="XMLID_3969_" class="st18" d="M366.8,99.8l0.4-2.4l-0.4-0.1l-0.4,2.4L366.8,99.8z"/>
				</g>
			</g>
		</g>
		<g id="XMLID_3955_" transform="matrix( 2.2337799072265625, 0, 0, 2.2337799072265625, -615.8,-92.35) ">
			<g id="XMLID_3956_">
				<g id="Layer0_160_MEMBER_0_MEMBER_241_FILL_1_">
					<path id="XMLID_3957_" class="st36" d="M366.2,101.8l0-0.2l-19.2-3l-0.1,0.2L366.2,101.8z"/>
				</g>
			</g>
		</g>
		<g id="XMLID_3952_" transform="matrix( 2.2337799072265625, 0, 0, 2.2337799072265625, -615.8,-92.35) ">
			<g id="XMLID_3953_">
				<g id="Layer0_160_MEMBER_0_MEMBER_242_FILL_1_">
					<path id="XMLID_3954_" class="st37" d="M366.2,101.6l0.2-1.5l-6.6-1.6l-6.4-1l-6.3-0.4l-0.1,1.5L366.2,101.6z"/>
				</g>
			</g>
		</g>
	</g>
	<g id="XMLID_3959_">
		<g id="XMLID_3990_" transform="matrix( 2.2337799072265625, 0, 0, 2.2337799072265625, -615.8,-92.35) ">
			<g id="XMLID_3996_">
				<g id="Layer0_160_MEMBER_0_MEMBER_228_FILL_2_">
					<path id="XMLID_3997_" class="st35" d="M366.5,117.9l0.3-2.3l-0.4-0.1l-6.4-1.6l-8-1.2l-4.8-0.2l-0.4-0.1l-0.2,2.2L366.5,117.9
						 M366.4,115.8l-0.3,1.7l-19.3-3l0.1-1.7l6.4,0.4l6.4,1L366.4,115.8z"/>
				</g>
			</g>
		</g>
		<g id="XMLID_3987_" transform="matrix( 2.2337799072265625, 0, 0, 2.2337799072265625, -615.8,-92.35) ">
			<g id="XMLID_3988_">
				<g id="Layer0_160_MEMBER_0_MEMBER_232_FILL_2_">
					<path id="XMLID_3989_" class="st17" d="M352.5,107.7L352.5,107.7l-0.1,0l-0.1,0h-0.1l-0.7-0.1h-0.1l-0.1,0H351l-1-0.1l-2.1,3
						l7.9,0.5l11.1,2.4l-0.5-3.5l-0.9-0.1l0,0h-0.1l-0.1,0H365l-0.7-0.1h-0.1l-0.1-0.1h-0.1L352.5,107.7z"/>
				</g>
			</g>
		</g>
		<g id="XMLID_3984_" transform="matrix( 2.2337799072265625, 0, 0, 2.2337799072265625, -615.8,-92.35) ">
			<g id="XMLID_3985_">
				<g id="Layer0_160_MEMBER_0_MEMBER_234_FILL_2_">
					<path id="XMLID_3986_" class="st18" d="M347.2,112.6l0.7-2.3l-0.4-0.1l-0.7,2.3L347.2,112.6z"/>
				</g>
			</g>
		</g>
		<g id="XMLID_3978_" transform="matrix( 2.2337799072265625, 0, 0, 2.2337799072265625, -615.8,-92.35) ">
			<g id="XMLID_3982_">
				<g id="Layer0_160_MEMBER_0_MEMBER_235_FILL_2_">
					<path id="XMLID_3983_" class="st18" d="M366.4,115.6l0.4-2.4l-6.3-1.6l-6.3-0.9l-6.3-0.4l-0.7,2.3l3.2,0.2l9,1.1L366.4,115.6z"
						/>
				</g>
			</g>
		</g>
		<g id="XMLID_3966_" transform="matrix( 2.2337799072265625, 0, 0, 2.2337799072265625, -615.8,-92.35) ">
			<g id="XMLID_3976_">
				<g id="Layer0_160_MEMBER_0_MEMBER_236_FILL_2_">
					<path id="XMLID_3977_" class="st18" d="M366.8,115.6l0.4-2.4l-0.4-0.1l-0.4,2.4L366.8,115.6z"/>
				</g>
			</g>
		</g>
		<g id="XMLID_3963_" transform="matrix( 2.2337799072265625, 0, 0, 2.2337799072265625, -615.8,-92.35) ">
			<g id="XMLID_3964_">
				<g id="Layer0_160_MEMBER_0_MEMBER_241_FILL_2_">
					<path id="XMLID_3965_" class="st36" d="M366.2,117.6l0-0.2l-19.2-3l-0.1,0.2L366.2,117.6z"/>
				</g>
			</g>
		</g>
		<g id="XMLID_3960_" transform="matrix( 2.2337799072265625, 0, 0, 2.2337799072265625, -615.8,-92.35) ">
			<g id="XMLID_3961_">
				<g id="Layer0_160_MEMBER_0_MEMBER_242_FILL_2_">
					<path id="XMLID_3962_" class="st37" d="M366.2,117.4l0.2-1.5l-6.6-1.6l-6.4-1l-6.3-0.4l-0.1,1.5L366.2,117.4z"/>
				</g>
			</g>
		</g>
	</g>
	<g id="XMLID_4000_">
		<g id="XMLID_4019_" transform="matrix( 2.2337799072265625, 0, 0, 2.2337799072265625, -615.8,-92.35) ">
			<g id="XMLID_4020_">
				<g id="Layer0_160_MEMBER_0_MEMBER_228_FILL_3_">
					<path id="XMLID_4021_" class="st35" d="M366.5,136l0.3-2.3l-0.4-0.1l-6.4-1.6l-8-1.2l-4.8-0.2l-0.4-0.1l-0.2,2.2L366.5,136
						 M366.4,133.9l-0.3,1.7l-19.3-3l0.1-1.7l6.4,0.4l6.4,1L366.4,133.9z"/>
				</g>
			</g>
		</g>
		<g id="XMLID_4016_" transform="matrix( 2.2337799072265625, 0, 0, 2.2337799072265625, -615.8,-92.35) ">
			<g id="XMLID_4017_">
				<g id="Layer0_160_MEMBER_0_MEMBER_232_FILL_3_">
					<path id="XMLID_4018_" class="st17" d="M352.5,125.8L352.5,125.8l-0.1,0l-0.1,0h-0.1l-0.7-0.1h-0.1l-0.1,0H351l-1-0.1l-2.1,3
						l7.9,0.5l11.1,2.4l-0.5-3.5l-0.9-0.1l0,0h-0.1l-0.1,0H365l-0.7-0.1h-0.1l-0.1-0.1h-0.1L352.5,125.8z"/>
				</g>
			</g>
		</g>
		<g id="XMLID_4013_" transform="matrix( 2.2337799072265625, 0, 0, 2.2337799072265625, -615.8,-92.35) ">
			<g id="XMLID_4014_">
				<g id="Layer0_160_MEMBER_0_MEMBER_234_FILL_3_">
					<path id="XMLID_4015_" class="st18" d="M347.2,130.7l0.7-2.3l-0.4-0.1l-0.7,2.3L347.2,130.7z"/>
				</g>
			</g>
		</g>
		<g id="XMLID_4010_" transform="matrix( 2.2337799072265625, 0, 0, 2.2337799072265625, -615.8,-92.35) ">
			<g id="XMLID_4011_">
				<g id="Layer0_160_MEMBER_0_MEMBER_235_FILL_3_">
					<path id="XMLID_4012_" class="st18" d="M366.4,133.7l0.4-2.4l-6.3-1.6l-6.3-0.9l-6.3-0.4l-0.7,2.3l3.2,0.2l9,1.1L366.4,133.7z"
						/>
				</g>
			</g>
		</g>
		<g id="XMLID_4007_" transform="matrix( 2.2337799072265625, 0, 0, 2.2337799072265625, -615.8,-92.35) ">
			<g id="XMLID_4008_">
				<g id="Layer0_160_MEMBER_0_MEMBER_236_FILL_3_">
					<path id="XMLID_4009_" class="st18" d="M366.8,133.7l0.4-2.4l-0.4-0.1l-0.4,2.4L366.8,133.7z"/>
				</g>
			</g>
		</g>
		<g id="XMLID_4004_" transform="matrix( 2.2337799072265625, 0, 0, 2.2337799072265625, -615.8,-92.35) ">
			<g id="XMLID_4005_">
				<g id="Layer0_160_MEMBER_0_MEMBER_241_FILL_3_">
					<path id="XMLID_4006_" class="st36" d="M366.2,135.7l0-0.2l-19.2-3l-0.1,0.2L366.2,135.7z"/>
				</g>
			</g>
		</g>
		<g id="XMLID_4001_" transform="matrix( 2.2337799072265625, 0, 0, 2.2337799072265625, -615.8,-92.35) ">
			<g id="XMLID_4002_">
				<g id="Layer0_160_MEMBER_0_MEMBER_242_FILL_3_">
					<path id="XMLID_4003_" class="st37" d="M366.2,135.5l0.2-1.5l-6.6-1.6l-6.4-1l-6.3-0.4l-0.1,1.5L366.2,135.5z"/>
				</g>
			</g>
		</g>
	</g>
</g>
</svg>
