<?xml version="1.0" encoding="utf-8"?>
<!-- Generator: Adobe Illustrator 19.0.0, SVG Export Plug-In . SVG Version: 6.00 Build 0)  -->
<svg version="1.1" id="Capa_1" xmlns="http://www.w3.org/2000/svg" xmlns:xlink="http://www.w3.org/1999/xlink" x="0px" y="0px"
	 viewBox="0 0 355.6 314.2" style="enable-background:new 0 0 355.6 314.2;" xml:space="preserve">
<style type="text/css">
	.st0{fill:#FFFFFF;}
	.st1{fill:none;stroke:#3D4752;stroke-width:2.357;stroke-miterlimit:10;}
	.st2{fill:#3D4752;}
	.st3{fill:none;stroke:#3D4752;stroke-width:2.769;stroke-miterlimit:10;}
</style>
<g id="XMLID_5931_">
	<path id="XMLID_7100_" class="st0" d="M125,6.1c0-1.2,0.3-2.2,0.6-2.2H146c0.4,0,0.6,1,0.6,2.2v50c0,1.3-0.3,2.2-0.6,2.2h-20.3
		c-0.4,0-0.6-1-0.6-2.2L125,6.1z"/>
	<path id="XMLID_7099_" class="st1" d="M125,6.1c0-1.2,0.3-2.2,0.6-2.2H146c0.4,0,0.6,1,0.6,2.2v50c0,1.3-0.3,2.2-0.6,2.2h-20.3
		c-0.4,0-0.6-1-0.6-2.2L125,6.1z"/>
	<path id="XMLID_7098_" class="st0" d="M102.5,50.8c0-0.1,0.1-0.2,0.2-0.2l0,0h6.9c0.1,0,0.2,0.1,0.2,0.2v0v4.7
		c0,0.1-0.1,0.2-0.2,0.2h0h-6.9c-0.1,0-0.2-0.1-0.2-0.2v0L102.5,50.8z"/>
	<path id="XMLID_7097_" class="st1" d="M102.5,50.8c0-0.1,0.1-0.2,0.2-0.2l0,0h6.9c0.1,0,0.2,0.1,0.2,0.2v0v4.7
		c0,0.1-0.1,0.2-0.2,0.2h0h-6.9c-0.1,0-0.2-0.1-0.2-0.2v0L102.5,50.8z"/>
	<path id="XMLID_7096_" class="st2" d="M76.6,14.5c0-0.9,0.8-1.6,1.7-1.6h54.8c0.9,0,1.7,0.7,1.7,1.6V49c0,0.9-0.8,1.6-1.7,1.6
		c0,0,0,0,0,0H78.4c-0.9,0.1-1.7-0.6-1.7-1.5c0,0,0,0,0,0V14.5z"/>
	<path id="XMLID_7095_" class="st1" d="M76.6,14.5c0-0.9,0.8-1.6,1.7-1.6h54.8c0.9,0,1.7,0.7,1.7,1.6V49c0,0.9-0.8,1.6-1.7,1.6
		c0,0,0,0,0,0H78.4c-0.9,0.1-1.7-0.6-1.7-1.5c0,0,0,0,0,0V14.5z"/>
	<path id="XMLID_7094_" class="st0" d="M78.2,63.9h57.8c0.8,0,1.4-0.7,1.4-1.5c0-0.1,0-0.3-0.1-0.4l-3.1-6.6
		c-0.2-0.4-0.7-0.7-1.1-0.7l-52.9,0.1c-0.6,0-1.1,0.4-1.2,0.9L77,62.3c-0.2,0.7,0.2,1.4,0.9,1.5C78,63.9,78.1,63.9,78.2,63.9"/>
	<path id="XMLID_7093_" class="st1" d="M78.2,63.9h57.8c0.8,0,1.4-0.7,1.4-1.5c0-0.1,0-0.3-0.1-0.4l-3.1-6.6
		c-0.2-0.4-0.7-0.7-1.1-0.7l-52.9,0.1c-0.6,0-1.1,0.4-1.2,0.9L77,62.3c-0.2,0.7,0.2,1.4,0.9,1.5C78,63.9,78.1,63.9,78.2,63.9z"/>
	<path id="XMLID_7092_" class="st0" d="M80.8,18.5c0.1-0.7,0.7-1.3,1.5-1.2h46.7c0.7-0.1,1.4,0.5,1.5,1.2v26.8
		c-0.1,0.7-0.7,1.3-1.5,1.2c0,0,0,0,0,0H82.3c-0.7,0.1-1.4-0.4-1.5-1.2c0,0,0,0,0,0V18.5z"/>
	<path id="XMLID_7070_" class="st0" d="M270.9,3.4c0-1.2,0.3-2.2,0.6-2.2h20.3c0.4,0,0.6,1,0.6,2.2v50c0,1.3-0.3,2.2-0.6,2.2h-20.3
		c-0.4,0-0.6-1-0.6-2.2L270.9,3.4z"/>
	<path id="XMLID_7068_" class="st1" d="M270.9,3.4c0-1.2,0.3-2.2,0.6-2.2h20.3c0.4,0,0.6,1,0.6,2.2v50c0,1.3-0.3,2.2-0.6,2.2h-20.3
		c-0.4,0-0.6-1-0.6-2.2L270.9,3.4z"/>
	<path id="XMLID_7066_" class="st0" d="M248.4,48c0-0.1,0.1-0.2,0.2-0.2l0,0h6.9c0.1,0,0.2,0.1,0.2,0.2v0v4.7c0,0.1-0.1,0.2-0.2,0.2
		h0h-6.9c-0.1,0-0.2-0.1-0.2-0.2v0L248.4,48z"/>
	<path id="XMLID_7065_" class="st1" d="M248.4,48c0-0.1,0.1-0.2,0.2-0.2l0,0h6.9c0.1,0,0.2,0.1,0.2,0.2v0v4.7c0,0.1-0.1,0.2-0.2,0.2
		h0h-6.9c-0.1,0-0.2-0.1-0.2-0.2v0L248.4,48z"/>
	<path id="XMLID_7064_" class="st2" d="M222.5,11.7c0-0.9,0.8-1.6,1.7-1.6H279c0.9,0,1.7,0.7,1.7,1.6v34.6c0,0.9-0.8,1.6-1.7,1.6
		c0,0,0,0,0,0h-54.8c-0.9,0.1-1.7-0.6-1.7-1.5c0,0,0,0,0,0V11.7z"/>
	<path id="XMLID_7063_" class="st1" d="M222.5,11.7c0-0.9,0.8-1.6,1.7-1.6H279c0.9,0,1.7,0.7,1.7,1.6v34.6c0,0.9-0.8,1.6-1.7,1.6
		c0,0,0,0,0,0h-54.8c-0.9,0.1-1.7-0.6-1.7-1.5c0,0,0,0,0,0V11.7z"/>
	<path id="XMLID_7062_" class="st0" d="M224.1,61.2H282c0.8,0,1.4-0.7,1.4-1.5c0-0.2,0-0.3-0.1-0.4l-3.1-6.6
		c-0.2-0.4-0.7-0.7-1.1-0.7L226.1,52c-0.6,0-1.1,0.4-1.2,0.9l-1.9,6.7c-0.2,0.7,0.2,1.4,0.9,1.5C223.9,61.2,224,61.2,224.1,61.2"/>
	<path id="XMLID_7061_" class="st1" d="M224.1,61.2H282c0.8,0,1.4-0.7,1.4-1.5c0-0.2,0-0.3-0.1-0.4l-3.1-6.6
		c-0.2-0.4-0.7-0.7-1.1-0.7L226.1,52c-0.6,0-1.1,0.4-1.2,0.9l-1.9,6.7c-0.2,0.7,0.2,1.4,0.9,1.5C223.9,61.2,224,61.2,224.1,61.2z"/>
	<path id="XMLID_7060_" class="st0" d="M226.7,15.7c0.1-0.7,0.7-1.3,1.5-1.2h46.7c0.7-0.1,1.4,0.5,1.5,1.2v26.8
		c-0.1,0.7-0.7,1.3-1.5,1.2c0,0,0,0,0,0h-46.6c-0.7,0.1-1.4-0.4-1.5-1.2c0,0,0,0,0,0V15.7z"/>
	<path id="XMLID_7059_" class="st0" d="M128.5,255.2c0-1.2,0.3-2.2,0.6-2.2h20.3c0.4,0,0.6,1,0.6,2.2v50c0,1.3-0.3,2.2-0.6,2.2
		h-20.3c-0.4,0-0.6-1-0.6-2.2L128.5,255.2z"/>
	<path id="XMLID_7058_" class="st1" d="M128.5,255.2c0-1.2,0.3-2.2,0.6-2.2h20.3c0.4,0,0.6,1,0.6,2.2v50c0,1.3-0.3,2.2-0.6,2.2
		h-20.3c-0.4,0-0.6-1-0.6-2.2L128.5,255.2z"/>
	<path id="XMLID_7057_" class="st0" d="M105.9,299.8c0-0.1,0.1-0.2,0.2-0.2l0,0h6.9c0.1,0,0.2,0.1,0.2,0.2v0v4.7
		c0,0.1-0.1,0.2-0.2,0.2h0h-6.9c-0.1,0-0.2-0.1-0.2-0.2v0L105.9,299.8z"/>
	<path id="XMLID_7026_" class="st1" d="M105.9,299.8c0-0.1,0.1-0.2,0.2-0.2l0,0h6.9c0.1,0,0.2,0.1,0.2,0.2v0v4.7
		c0,0.1-0.1,0.2-0.2,0.2h0h-6.9c-0.1,0-0.2-0.1-0.2-0.2v0L105.9,299.8z"/>
	<path id="XMLID_7025_" class="st2" d="M80.1,263.5c0-0.9,0.8-1.6,1.7-1.6h54.8c0.9,0,1.7,0.7,1.7,1.6v34.6c0,0.9-0.8,1.6-1.7,1.6h0
		H81.8c-0.9,0.1-1.7-0.6-1.7-1.5c0,0,0,0,0,0V263.5z"/>
	<path id="XMLID_7009_" class="st1" d="M80.1,263.5c0-0.9,0.8-1.6,1.7-1.6h54.8c0.9,0,1.7,0.7,1.7,1.6v34.6c0,0.9-0.8,1.6-1.7,1.6h0
		H81.8c-0.9,0.1-1.7-0.6-1.7-1.5c0,0,0,0,0,0V263.5z"/>
	<path id="XMLID_6994_" class="st0" d="M81.6,313h57.8c0.8,0,1.4-0.7,1.4-1.5c0-0.1,0-0.3-0.1-0.4l-3.1-6.6
		c-0.2-0.4-0.7-0.7-1.1-0.7l-52.9,0.1c-0.6,0-1.1,0.4-1.2,0.9l-1.9,6.7c-0.2,0.7,0.2,1.4,0.9,1.5C81.4,313,81.5,313,81.6,313"/>
	<path id="XMLID_6993_" class="st1" d="M81.6,313h57.8c0.8,0,1.4-0.7,1.4-1.5c0-0.1,0-0.3-0.1-0.4l-3.1-6.6
		c-0.2-0.4-0.7-0.7-1.1-0.7l-52.9,0.1c-0.6,0-1.1,0.4-1.2,0.9l-1.9,6.7c-0.2,0.7,0.2,1.4,0.9,1.5C81.4,313,81.5,313,81.6,313z"/>
	<path id="XMLID_6978_" class="st0" d="M84.2,267.5c0.1-0.7,0.7-1.3,1.5-1.2h46.7c0.7-0.1,1.4,0.5,1.5,1.2v26.8
		c-0.1,0.7-0.7,1.3-1.5,1.2c0,0,0,0,0,0H85.7c-0.7,0.1-1.4-0.4-1.5-1.2c0,0,0,0,0,0V267.5z"/>
	<path id="XMLID_6977_" class="st0" d="M274.4,252.5c0-1.2,0.3-2.2,0.6-2.2h20.3c0.4,0,0.6,1,0.6,2.2v50c0,1.3-0.3,2.2-0.6,2.2H275
		c-0.4,0-0.6-1-0.6-2.2L274.4,252.5z"/>
	<path id="XMLID_6963_" class="st1" d="M274.4,252.5c0-1.2,0.3-2.2,0.6-2.2h20.3c0.4,0,0.6,1,0.6,2.2v50c0,1.3-0.3,2.2-0.6,2.2H275
		c-0.4,0-0.6-1-0.6-2.2L274.4,252.5z"/>
	<path id="XMLID_6962_" class="st0" d="M251.8,297.1c0-0.1,0.1-0.2,0.2-0.2l0,0h6.9c0.1,0,0.2,0.1,0.2,0.2v0v4.7
		c0,0.1-0.1,0.2-0.2,0.2h0H252c-0.1,0-0.2-0.1-0.2-0.2v0L251.8,297.1z"/>
	<path id="XMLID_6946_" class="st1" d="M251.8,297.1c0-0.1,0.1-0.2,0.2-0.2l0,0h6.9c0.1,0,0.2,0.1,0.2,0.2v0v4.7
		c0,0.1-0.1,0.2-0.2,0.2h0H252c-0.1,0-0.2-0.1-0.2-0.2v0L251.8,297.1z"/>
	<path id="XMLID_6945_" class="st2" d="M226,260.8c0-0.9,0.8-1.6,1.7-1.6h54.8c0.9,0,1.7,0.7,1.7,1.6v34.6c0,0.9-0.8,1.6-1.7,1.6h0
		h-54.8c-0.9,0.1-1.7-0.6-1.7-1.5c0,0,0,0,0,0V260.8z"/>
	<path id="XMLID_6590_" class="st1" d="M226,260.8c0-0.9,0.8-1.6,1.7-1.6h54.8c0.9,0,1.7,0.7,1.7,1.6v34.6c0,0.9-0.8,1.6-1.7,1.6h0
		h-54.8c-0.9,0.1-1.7-0.6-1.7-1.5c0,0,0,0,0,0V260.8z"/>
	<path id="XMLID_6589_" class="st0" d="M227.6,310.3h57.8c0.8,0,1.4-0.7,1.4-1.5c0-0.1,0-0.3-0.1-0.4l-3.1-6.6
		c-0.2-0.4-0.7-0.7-1.1-0.7l-52.9,0.1c-0.6,0-1.1,0.4-1.2,0.9l-1.9,6.7c-0.2,0.7,0.2,1.4,0.9,1.5
		C227.4,310.3,227.5,310.3,227.6,310.3"/>
	<path id="XMLID_6588_" class="st1" d="M227.6,310.3h57.8c0.8,0,1.4-0.7,1.4-1.5c0-0.1,0-0.3-0.1-0.4l-3.1-6.6
		c-0.2-0.4-0.7-0.7-1.1-0.7l-52.9,0.1c-0.6,0-1.1,0.4-1.2,0.9l-1.9,6.7c-0.2,0.7,0.2,1.4,0.9,1.5
		C227.4,310.3,227.5,310.3,227.6,310.3z"/>
	<path id="XMLID_6587_" class="st0" d="M230.1,264.8c0.1-0.7,0.7-1.3,1.5-1.2h46.7c0.7-0.1,1.4,0.5,1.5,1.2v26.8
		c-0.1,0.7-0.7,1.3-1.5,1.2c0,0,0,0,0,0h-46.6c-0.7,0.1-1.4-0.4-1.5-1.2c0,0,0,0,0,0V264.8z"/>
	<path id="XMLID_6586_" class="st0" d="M332.8,136.1c0-1.2,0.3-2.2,0.6-2.2h20.3c0.4,0,0.6,1,0.6,2.2v50c0,1.3-0.3,2.2-0.6,2.2
		h-20.3c-0.4,0-0.6-1-0.6-2.2L332.8,136.1z"/>
	<path id="XMLID_6585_" class="st1" d="M332.8,136.1c0-1.2,0.3-2.2,0.6-2.2h20.3c0.4,0,0.6,1,0.6,2.2v50c0,1.3-0.3,2.2-0.6,2.2
		h-20.3c-0.4,0-0.6-1-0.6-2.2L332.8,136.1z"/>
	<path id="XMLID_6584_" class="st0" d="M310.2,180.7c0-0.1,0.1-0.2,0.2-0.2l0,0h6.9c0.1,0,0.2,0.1,0.2,0.2v0v4.7
		c0,0.1-0.1,0.2-0.2,0.2h0h-6.9c-0.1,0-0.2-0.1-0.2-0.2v0L310.2,180.7z"/>
	<path id="XMLID_6583_" class="st1" d="M310.2,180.7c0-0.1,0.1-0.2,0.2-0.2l0,0h6.9c0.1,0,0.2,0.1,0.2,0.2v0v4.7
		c0,0.1-0.1,0.2-0.2,0.2h0h-6.9c-0.1,0-0.2-0.1-0.2-0.2v0L310.2,180.7z"/>
	<path id="XMLID_6582_" class="st2" d="M284.4,144.4c0-0.9,0.8-1.6,1.7-1.6h54.8c0.9,0,1.7,0.7,1.7,1.6V179c0,0.9-0.8,1.6-1.7,1.6h0
		h-54.8c-0.9,0.1-1.7-0.6-1.7-1.5c0,0,0,0,0,0V144.4z"/>
	<path id="XMLID_6581_" class="st1" d="M284.4,144.4c0-0.9,0.8-1.6,1.7-1.6h54.8c0.9,0,1.7,0.7,1.7,1.6V179c0,0.9-0.8,1.6-1.7,1.6h0
		h-54.8c-0.9,0.1-1.7-0.6-1.7-1.5c0,0,0,0,0,0V144.4z"/>
	<path id="XMLID_6580_" class="st0" d="M286,193.9h57.8c0.8,0,1.4-0.7,1.4-1.5c0-0.1,0-0.3-0.1-0.4l-3.1-6.6
		c-0.2-0.4-0.7-0.7-1.1-0.7l-52.9,0.1c-0.6,0-1.1,0.4-1.2,0.9l-1.9,6.7c-0.2,0.7,0.2,1.4,0.9,1.5C285.8,193.8,285.9,193.9,286,193.9
		"/>
	<path id="XMLID_6579_" class="st1" d="M286,193.9h57.8c0.8,0,1.4-0.7,1.4-1.5c0-0.1,0-0.3-0.1-0.4l-3.1-6.6
		c-0.2-0.4-0.7-0.7-1.1-0.7l-52.9,0.1c-0.6,0-1.1,0.4-1.2,0.9l-1.9,6.7c-0.2,0.7,0.2,1.4,0.9,1.5C285.8,193.8,285.9,193.9,286,193.9
		z"/>
	<path id="XMLID_6578_" class="st0" d="M288.5,148.4c0.1-0.7,0.7-1.3,1.5-1.2h46.7c0.7-0.1,1.4,0.5,1.5,1.2v26.8
		c-0.1,0.7-0.7,1.3-1.5,1.2c0,0,0,0,0,0H290c-0.7,0.1-1.4-0.4-1.5-1.2c0,0,0,0,0,0V148.4z"/>
	<path id="XMLID_6421_" class="st0" d="M49.6,136.1c0-1.2,0.3-2.2,0.6-2.2h20.3c0.4,0,0.6,1,0.6,2.2v50c0,1.3-0.3,2.2-0.6,2.2H50.2
		c-0.4,0-0.6-1-0.6-2.2L49.6,136.1z"/>
	<path id="XMLID_6418_" class="st1" d="M49.6,136.1c0-1.2,0.3-2.2,0.6-2.2h20.3c0.4,0,0.6,1,0.6,2.2v50c0,1.3-0.3,2.2-0.6,2.2H50.2
		c-0.4,0-0.6-1-0.6-2.2L49.6,136.1z"/>
	<path id="XMLID_6406_" class="st0" d="M27,180.7c0-0.1,0.1-0.2,0.2-0.2l0,0h6.9c0.1,0,0.2,0.1,0.2,0.2v0v4.7c0,0.1-0.1,0.2-0.2,0.2
		h0h-6.9c-0.1,0-0.2-0.1-0.2-0.2v0L27,180.7z"/>
	<path id="XMLID_6405_" class="st1" d="M27,180.7c0-0.1,0.1-0.2,0.2-0.2l0,0h6.9c0.1,0,0.2,0.1,0.2,0.2v0v4.7c0,0.1-0.1,0.2-0.2,0.2
		h0h-6.9c-0.1,0-0.2-0.1-0.2-0.2v0L27,180.7z"/>
	<path id="XMLID_6404_" class="st2" d="M1.2,144.4c0-0.9,0.8-1.6,1.7-1.6h54.8c0.9,0,1.7,0.7,1.7,1.6V179c0,0.9-0.8,1.6-1.7,1.6
		c0,0,0,0,0,0H2.9c-0.9,0.1-1.7-0.6-1.7-1.5c0,0,0,0,0,0V144.4z"/>
	<path id="XMLID_6403_" class="st1" d="M1.2,144.4c0-0.9,0.8-1.6,1.7-1.6h54.8c0.9,0,1.7,0.7,1.7,1.6V179c0,0.9-0.8,1.6-1.7,1.6
		c0,0,0,0,0,0H2.9c-0.9,0.1-1.7-0.6-1.7-1.5c0,0,0,0,0,0V144.4z"/>
	<path id="XMLID_6343_" class="st0" d="M2.8,193.9h57.8c0.8,0,1.4-0.7,1.4-1.5c0-0.1,0-0.3-0.1-0.4l-3.1-6.6
		c-0.2-0.4-0.7-0.7-1.1-0.7l-52.9,0.1c-0.6,0-1.1,0.4-1.2,0.9l-1.9,6.7c-0.2,0.7,0.2,1.4,0.9,1.5C2.6,193.8,2.7,193.9,2.8,193.9"/>
	<path id="XMLID_6342_" class="st1" d="M2.8,193.9h57.8c0.8,0,1.4-0.7,1.4-1.5c0-0.1,0-0.3-0.1-0.4l-3.1-6.6
		c-0.2-0.4-0.7-0.7-1.1-0.7l-52.9,0.1c-0.6,0-1.1,0.4-1.2,0.9l-1.9,6.7c-0.2,0.7,0.2,1.4,0.9,1.5C2.6,193.8,2.7,193.9,2.8,193.9z"/>
	<path id="XMLID_6341_" class="st0" d="M5.3,148.4c0.1-0.7,0.7-1.3,1.5-1.2h46.7c0.7-0.1,1.4,0.5,1.5,1.2v26.8
		c-0.1,0.7-0.7,1.3-1.5,1.2c0,0,0,0,0,0l-46.6,0c-0.7,0.1-1.4-0.4-1.5-1.2c0,0,0,0,0,0V148.4z"/>
	<path id="XMLID_6088_" class="st2" d="M196,103.6h-42.7c-3.4,0-6.1,2.8-6.1,6.1v93.3c0,3.4,2.8,6.1,6.1,6.1H196
		c3.4,0,6.1-2.8,6.1-6.1v-93.3C202.1,106.4,199.4,103.6,196,103.6 M199,203.1c0,1.6-1.3,3-3,3h-42.7c-1.6,0-3-1.3-3-3v-93.3
		c0-1.6,1.3-3,3-3H196c1.6,0,3,1.3,3,3V203.1z M158.2,127.4h33.1c1.2,0,2.1-0.9,2.1-2.1v-11.1c0-1.2-0.9-2.1-2.1-2.1h-33.1
		c-1.2,0-2.1,1-2.1,2.1v11.1C156.1,126.5,157,127.4,158.2,127.4 M184.9,123.8h6.3v1.5h-6.3V123.8z M158.2,149.3h33.1
		c1.2,0,2.1-0.9,2.1-2.1v-11.1c0-1.1-0.9-2.1-2.1-2.1h-33.1c-1.2,0-2.1,0.9-2.1,2.1v11.1C156.1,148.4,157,149.3,158.2,149.3
		 M184.3,146.3h6.3v1.5h-6.3V146.3z M174.8,186.4c-3.6,0-6.5,2.9-6.5,6.5c0,3.6,2.9,6.5,6.5,6.5c3.6,0,6.5-2.9,6.5-6.5
		C181.3,189.3,178.4,186.4,174.8,186.4 M174.8,196.3c-1.8,0-3.4-1.5-3.4-3.4c0-1.8,1.5-3.4,3.4-3.4c1.9,0,3.4,1.5,3.4,3.4
		C178.2,194.8,176.7,196.3,174.8,196.3 M156.1,175.4h37.3v3.2h-37.3V175.4z M156.2,167.3h37.3v3.2h-37.3V167.3z M156.2,158.8h37.3
		v3.2h-37.3V158.8z"/>
	<line id="XMLID_6087_" class="st3" x1="82.4" y1="156.4" x2="138.3" y2="156.4"/>
	<line id="XMLID_6081_" class="st3" x1="215.9" y1="156.2" x2="271.8" y2="156.2"/>
	<line id="XMLID_6011_" class="st3" x1="123" y1="68.6" x2="142.5" y2="100.7"/>
	<line id="XMLID_6010_" class="st3" x1="225" y1="68.6" x2="205.5" y2="100.7"/>
	<line id="XMLID_6008_" class="st3" x1="123" y1="248.2" x2="142.5" y2="216.1"/>
	<line id="XMLID_5997_" class="st3" x1="225" y1="248.2" x2="205.5" y2="216.1"/>
</g>
</svg>
