<?xml version="1.0" encoding="utf-8"?>
<!-- Generator: Adobe Illustrator 19.0.0, SVG Export Plug-In . SVG Version: 6.00 Build 0)  -->
<svg version="1.1" id="Capa_1" xmlns="http://www.w3.org/2000/svg" xmlns:xlink="http://www.w3.org/1999/xlink" x="0px" y="0px"
	 viewBox="0 0 373.9 323.1" style="enable-background:new 0 0 373.9 323.1;" xml:space="preserve">
<style type="text/css">
	.st0{fill:#FFFFFF;}
	.st1{fill:none;stroke:#3D4752;stroke-width:2.694;stroke-miterlimit:10;}
	.st2{fill:#3D4752;}
	.st3{fill:none;stroke:#3D4752;stroke-width:2.713;stroke-miterlimit:10;}
</style>
<g id="XMLID_7440_">
	<path id="XMLID_7510_" class="st0" d="M134.1,6.6c0-1.4,0.3-2.6,0.7-2.6h23.2c0.4,0,0.7,1.2,0.7,2.6v57.2c0,1.5-0.3,2.6-0.7,2.6
		h-23.2c-0.4,0-0.7-1.1-0.7-2.6L134.1,6.6z"/>
	<path id="XMLID_7509_" class="st1" d="M134.1,6.6c0-1.4,0.3-2.6,0.7-2.6h23.2c0.4,0,0.7,1.2,0.7,2.6v57.2c0,1.5-0.3,2.6-0.7,2.6
		h-23.2c-0.4,0-0.7-1.1-0.7-2.6L134.1,6.6z"/>
	<path id="XMLID_7508_" class="st0" d="M108.3,57.6c0-0.1,0.1-0.2,0.2-0.2l0,0h7.8c0.1,0,0.2,0.1,0.3,0.2v0V63
		c0,0.1-0.1,0.2-0.2,0.2h0h-7.9c-0.1,0-0.2-0.1-0.3-0.2v0L108.3,57.6z"/>
	<path id="XMLID_7507_" class="st1" d="M108.3,57.6c0-0.1,0.1-0.2,0.2-0.2l0,0h7.8c0.1,0,0.2,0.1,0.3,0.2v0V63
		c0,0.1-0.1,0.2-0.2,0.2h0h-7.9c-0.1,0-0.2-0.1-0.3-0.2v0L108.3,57.6z"/>
	<path id="XMLID_7506_" class="st2" d="M78.8,16.1c0-1,0.9-1.8,2-1.8h62.6c1,0,1.9,0.8,2,1.8v39.5c0,1-0.9,1.8-1.9,1.8c0,0,0,0,0,0
		H80.8c-1,0.1-1.9-0.7-2-1.7c0,0,0,0,0-0.1V16.1z"/>
	<path id="XMLID_7505_" class="st1" d="M78.8,16.1c0-1,0.9-1.8,2-1.8h62.6c1,0,1.9,0.8,2,1.8v39.5c0,1-0.9,1.8-1.9,1.8c0,0,0,0,0,0
		H80.8c-1,0.1-1.9-0.7-2-1.7c0,0,0,0,0-0.1V16.1z"/>
	<path id="XMLID_7504_" class="st0" d="M80.6,72.7h66.1c0.9,0,1.6-0.8,1.6-1.7c0-0.2,0-0.3-0.1-0.5l-3.6-7.5
		c-0.2-0.5-0.7-0.8-1.3-0.8l-60.4,0.1c-0.6,0-1.2,0.4-1.4,1l-2.2,7.6c-0.2,0.8,0.3,1.6,1,1.8C80.4,72.6,80.5,72.7,80.6,72.7"/>
	<path id="XMLID_7503_" class="st1" d="M80.6,72.7h66.1c0.9,0,1.6-0.8,1.6-1.7c0-0.2,0-0.3-0.1-0.5l-3.6-7.5
		c-0.2-0.5-0.7-0.8-1.3-0.8l-60.4,0.1c-0.6,0-1.2,0.4-1.4,1l-2.2,7.6c-0.2,0.8,0.3,1.6,1,1.8C80.4,72.6,80.5,72.7,80.6,72.7z"/>
	<path id="XMLID_7502_" class="st0" d="M83.5,20.7c0.1-0.8,0.8-1.4,1.7-1.4h53.3c0.8-0.1,1.6,0.5,1.7,1.4v30.6
		c-0.1,0.8-0.8,1.5-1.7,1.4c0,0,0,0,0,0H85.3c-0.8,0.1-1.6-0.5-1.7-1.3c0,0,0,0,0,0V20.7z"/>
	<path id="XMLID_7501_" class="st0" d="M280,3.9c0-1.4,0.3-2.6,0.7-2.6H304c0.4,0,0.7,1.2,0.7,2.6v57.2c0,1.5-0.3,2.6-0.7,2.6h-23.2
		c-0.4,0-0.7-1.1-0.7-2.6L280,3.9z"/>
	<path id="XMLID_7500_" class="st1" d="M280,3.9c0-1.4,0.3-2.6,0.7-2.6H304c0.4,0,0.7,1.2,0.7,2.6v57.2c0,1.5-0.3,2.6-0.7,2.6h-23.2
		c-0.4,0-0.7-1.1-0.7-2.6L280,3.9z"/>
	<path id="XMLID_7499_" class="st0" d="M254.2,54.9c0-0.1,0.1-0.2,0.2-0.2l0,0h7.8c0.1,0,0.2,0.1,0.3,0.2v0v5.4
		c0,0.1-0.1,0.2-0.2,0.2h0h-7.9c-0.1,0-0.2-0.1-0.3-0.2v0L254.2,54.9z"/>
	<path id="XMLID_7497_" class="st1" d="M254.2,54.9c0-0.1,0.1-0.2,0.2-0.2l0,0h7.8c0.1,0,0.2,0.1,0.3,0.2v0v5.4
		c0,0.1-0.1,0.2-0.2,0.2h0h-7.9c-0.1,0-0.2-0.1-0.3-0.2v0L254.2,54.9z"/>
	<path id="XMLID_7496_" class="st2" d="M224.7,13.4c0-1,0.9-1.8,2-1.8h62.6c1,0,1.9,0.8,2,1.8v39.5c0,1-0.9,1.8-1.9,1.8c0,0,0,0,0,0
		h-62.6c-1,0.1-1.9-0.7-2-1.7c0,0,0,0,0-0.1V13.4z"/>
	<path id="XMLID_7495_" class="st1" d="M224.7,13.4c0-1,0.9-1.8,2-1.8h62.6c1,0,1.9,0.8,2,1.8v39.5c0,1-0.9,1.8-1.9,1.8c0,0,0,0,0,0
		h-62.6c-1,0.1-1.9-0.7-2-1.7c0,0,0,0,0-0.1V13.4z"/>
	<path id="XMLID_7494_" class="st0" d="M226.5,70h66.1c0.9,0,1.6-0.8,1.6-1.7c0-0.2,0-0.3-0.1-0.5l-3.6-7.5
		c-0.2-0.5-0.7-0.8-1.3-0.8l-60.4,0.1c-0.6,0-1.2,0.4-1.4,1l-2.2,7.6c-0.2,0.8,0.3,1.6,1,1.8C226.3,69.9,226.4,70,226.5,70"/>
	<path id="XMLID_7493_" class="st1" d="M226.5,70h66.1c0.9,0,1.6-0.8,1.6-1.7c0-0.2,0-0.3-0.1-0.5l-3.6-7.5
		c-0.2-0.5-0.7-0.8-1.3-0.8l-60.4,0.1c-0.6,0-1.2,0.4-1.4,1l-2.2,7.6c-0.2,0.8,0.3,1.6,1,1.8C226.3,69.9,226.4,70,226.5,70z"/>
	<path id="XMLID_7492_" class="st0" d="M229.5,18c0.1-0.8,0.8-1.4,1.7-1.4h53.3c0.8-0.1,1.6,0.5,1.7,1.4v30.6
		c-0.1,0.8-0.8,1.5-1.7,1.4l0,0h-53.3c-0.8,0.1-1.6-0.5-1.7-1.3c0,0,0,0,0,0V18z"/>
	<path id="XMLID_7491_" class="st0" d="M137.5,255.7c0-1.4,0.3-2.6,0.7-2.6h23.2c0.4,0,0.7,1.2,0.7,2.6v57.2c0,1.5-0.3,2.6-0.7,2.6
		h-23.2c-0.4,0-0.7-1.1-0.7-2.6L137.5,255.7z"/>
	<path id="XMLID_7490_" class="st1" d="M137.5,255.7c0-1.4,0.3-2.6,0.7-2.6h23.2c0.4,0,0.7,1.2,0.7,2.6v57.2c0,1.5-0.3,2.6-0.7,2.6
		h-23.2c-0.4,0-0.7-1.1-0.7-2.6L137.5,255.7z"/>
	<path id="XMLID_7489_" class="st0" d="M111.8,306.7c0-0.1,0.1-0.2,0.2-0.2h0h7.8c0.1,0,0.2,0.1,0.3,0.2v0v5.4
		c0,0.1-0.1,0.2-0.2,0.2h0H112c-0.1,0-0.2-0.1-0.3-0.2v0L111.8,306.7z"/>
	<path id="XMLID_7488_" class="st1" d="M111.8,306.7c0-0.1,0.1-0.2,0.2-0.2h0h7.8c0.1,0,0.2,0.1,0.3,0.2v0v5.4
		c0,0.1-0.1,0.2-0.2,0.2h0H112c-0.1,0-0.2-0.1-0.3-0.2v0L111.8,306.7z"/>
	<path id="XMLID_7487_" class="st2" d="M82.2,265.2c0-1,0.9-1.8,2-1.8h62.6c1,0,1.9,0.8,2,1.8v39.5c0,1-0.9,1.8-1.9,1.8c0,0,0,0,0,0
		H84.2c-1,0.1-1.9-0.7-2-1.7c0,0,0,0,0-0.1V265.2z"/>
	<path id="XMLID_7486_" class="st1" d="M82.2,265.2c0-1,0.9-1.8,2-1.8h62.6c1,0,1.9,0.8,2,1.8v39.5c0,1-0.9,1.8-1.9,1.8c0,0,0,0,0,0
		H84.2c-1,0.1-1.9-0.7-2-1.7c0,0,0,0,0-0.1V265.2z"/>
	<path id="XMLID_7485_" class="st0" d="M84,321.7h66.1c0.9,0,1.6-0.8,1.6-1.7c0-0.2,0-0.3-0.1-0.5L148,312c-0.2-0.5-0.7-0.8-1.3-0.8
		l-60.4,0.1c-0.6,0-1.2,0.4-1.4,1l-2.2,7.6c-0.2,0.8,0.3,1.6,1,1.8C83.8,321.7,83.9,321.7,84,321.7"/>
	<path id="XMLID_7484_" class="st1" d="M84,321.7h66.1c0.9,0,1.6-0.8,1.6-1.7c0-0.2,0-0.3-0.1-0.5L148,312c-0.2-0.5-0.7-0.8-1.3-0.8
		l-60.4,0.1c-0.6,0-1.2,0.4-1.4,1l-2.2,7.6c-0.2,0.8,0.3,1.6,1,1.8C83.8,321.7,83.9,321.7,84,321.7z"/>
	<path id="XMLID_7482_" class="st0" d="M87,269.8c0.1-0.8,0.8-1.4,1.7-1.4H142c0.8-0.1,1.6,0.5,1.7,1.4v30.6
		c-0.1,0.8-0.8,1.5-1.7,1.4l0,0H88.7c-0.8,0.1-1.6-0.5-1.7-1.3c0,0,0,0,0,0V269.8z"/>
	<path id="XMLID_7480_" class="st0" d="M283.5,253c0-1.4,0.3-2.6,0.7-2.6h23.2c0.4,0,0.7,1.2,0.7,2.6v57.2c0,1.5-0.3,2.6-0.7,2.6
		h-23.2c-0.4,0-0.7-1.1-0.7-2.6L283.5,253z"/>
	<path id="XMLID_7479_" class="st1" d="M283.5,253c0-1.4,0.3-2.6,0.7-2.6h23.2c0.4,0,0.7,1.2,0.7,2.6v57.2c0,1.5-0.3,2.6-0.7,2.6
		h-23.2c-0.4,0-0.7-1.1-0.7-2.6L283.5,253z"/>
	<path id="XMLID_7478_" class="st0" d="M257.7,304c0-0.1,0.1-0.2,0.2-0.2l0,0h7.8c0.1,0,0.2,0.1,0.3,0.2v0v5.4
		c0,0.1-0.1,0.2-0.2,0.2h0h-7.9c-0.1,0-0.2-0.1-0.3-0.2v0L257.7,304z"/>
	<path id="XMLID_7477_" class="st1" d="M257.7,304c0-0.1,0.1-0.2,0.2-0.2l0,0h7.8c0.1,0,0.2,0.1,0.3,0.2v0v5.4
		c0,0.1-0.1,0.2-0.2,0.2h0h-7.9c-0.1,0-0.2-0.1-0.3-0.2v0L257.7,304z"/>
	<path id="XMLID_7476_" class="st2" d="M228.1,262.5c0-1,0.9-1.8,2-1.8h62.6c1,0,1.9,0.8,2,1.8V302c0,1-0.9,1.8-1.9,1.8h0h-62.6
		c-1,0.1-1.9-0.7-2-1.7c0,0,0,0,0,0V262.5z"/>
	<path id="XMLID_7475_" class="st1" d="M228.1,262.5c0-1,0.9-1.8,2-1.8h62.6c1,0,1.9,0.8,2,1.8V302c0,1-0.9,1.8-1.9,1.8h0h-62.6
		c-1,0.1-1.9-0.7-2-1.7c0,0,0,0,0,0V262.5z"/>
	<path id="XMLID_7474_" class="st0" d="M229.9,319H296c0.9-0.1,1.6-0.8,1.6-1.7c0-0.2,0-0.3-0.1-0.5l-3.6-7.5
		c-0.2-0.5-0.7-0.8-1.3-0.8l-60.4,0.1c-0.6,0-1.2,0.4-1.4,1l-2.2,7.6c-0.2,0.8,0.3,1.6,1,1.8C229.7,319,229.8,319,229.9,319"/>
	<path id="XMLID_7473_" class="st1" d="M229.9,319H296c0.9-0.1,1.6-0.8,1.6-1.7c0-0.2,0-0.3-0.1-0.5l-3.6-7.5
		c-0.2-0.5-0.7-0.8-1.3-0.8l-60.4,0.1c-0.6,0-1.2,0.4-1.4,1l-2.2,7.6c-0.2,0.8,0.3,1.6,1,1.8C229.7,319,229.8,319,229.9,319z"/>
	<path id="XMLID_7472_" class="st0" d="M232.9,267.1c0.1-0.8,0.8-1.4,1.7-1.4h53.3c0.8-0.1,1.6,0.5,1.7,1.4v30.6
		c-0.1,0.8-0.8,1.5-1.7,1.4h0h-53.3c-0.8,0.1-1.6-0.5-1.7-1.3c0,0,0,0,0,0V267.1z"/>
	<path id="XMLID_7471_" class="st0" d="M347.9,136.6c0-1.4,0.3-2.6,0.7-2.6h23.2c0.4,0,0.7,1.2,0.7,2.6v57.2c0,1.5-0.3,2.6-0.7,2.6
		h-23.2c-0.4,0-0.7-1.1-0.7-2.6L347.9,136.6z"/>
	<path id="XMLID_7470_" class="st1" d="M347.9,136.6c0-1.4,0.3-2.6,0.7-2.6h23.2c0.4,0,0.7,1.2,0.7,2.6v57.2c0,1.5-0.3,2.6-0.7,2.6
		h-23.2c-0.4,0-0.7-1.1-0.7-2.6L347.9,136.6z"/>
	<path id="XMLID_7469_" class="st0" d="M322.1,187.6c0-0.1,0.1-0.2,0.2-0.2l0,0h7.8c0.1,0,0.2,0.1,0.3,0.2v0v5.4
		c0,0.1-0.1,0.2-0.2,0.2h0h-7.9c-0.1,0-0.2-0.1-0.3-0.2v0L322.1,187.6z"/>
	<path id="XMLID_7468_" class="st1" d="M322.1,187.6c0-0.1,0.1-0.2,0.2-0.2l0,0h7.8c0.1,0,0.2,0.1,0.3,0.2v0v5.4
		c0,0.1-0.1,0.2-0.2,0.2h0h-7.9c-0.1,0-0.2-0.1-0.3-0.2v0L322.1,187.6z"/>
	<path id="XMLID_7467_" class="st2" d="M292.6,146.1c0-1,0.9-1.8,2-1.8h62.6c1,0,1.9,0.8,2,1.8v39.5c0,1-0.9,1.8-1.9,1.8
		c0,0,0,0,0,0h-62.6c-1,0.1-1.9-0.7-2-1.7c0,0,0,0,0-0.1V146.1z"/>
	<path id="XMLID_7466_" class="st1" d="M292.6,146.1c0-1,0.9-1.8,2-1.8h62.6c1,0,1.9,0.8,2,1.8v39.5c0,1-0.9,1.8-1.9,1.8
		c0,0,0,0,0,0h-62.6c-1,0.1-1.9-0.7-2-1.7c0,0,0,0,0-0.1V146.1z"/>
	<path id="XMLID_7465_" class="st0" d="M294.4,202.6h66.1c0.9,0,1.6-0.8,1.6-1.7c0-0.2,0-0.3-0.1-0.5l-3.6-7.5
		c-0.2-0.5-0.7-0.8-1.3-0.8l-60.4,0.1c-0.6,0-1.2,0.4-1.4,1l-2.2,7.6c-0.2,0.8,0.3,1.6,1,1.8C294.1,202.6,294.2,202.6,294.4,202.6"
		/>
	<path id="XMLID_7464_" class="st1" d="M294.4,202.6h66.1c0.9,0,1.6-0.8,1.6-1.7c0-0.2,0-0.3-0.1-0.5l-3.6-7.5
		c-0.2-0.5-0.7-0.8-1.3-0.8l-60.4,0.1c-0.6,0-1.2,0.4-1.4,1l-2.2,7.6c-0.2,0.8,0.3,1.6,1,1.8C294.1,202.6,294.2,202.6,294.4,202.6z"
		/>
	<path id="XMLID_7463_" class="st0" d="M297.3,150.6c0.1-0.8,0.8-1.4,1.7-1.4h53.3c0.8-0.1,1.6,0.5,1.7,1.4v30.6
		c-0.1,0.8-0.8,1.5-1.7,1.4l0,0H299c-0.8,0.1-1.6-0.5-1.7-1.3c0,0,0,0,0,0V150.6z"/>
	<path id="XMLID_7462_" class="st0" d="M56.7,136.6c0-1.4,0.3-2.6,0.7-2.6h23.2c0.4,0,0.7,1.2,0.7,2.6v57.2c0,1.5-0.3,2.6-0.7,2.6
		H57.4c-0.4,0-0.7-1.1-0.7-2.6L56.7,136.6z"/>
	<path id="XMLID_7461_" class="st1" d="M56.7,136.6c0-1.4,0.3-2.6,0.7-2.6h23.2c0.4,0,0.7,1.2,0.7,2.6v57.2c0,1.5-0.3,2.6-0.7,2.6
		H57.4c-0.4,0-0.7-1.1-0.7-2.6L56.7,136.6z"/>
	<path id="XMLID_7460_" class="st0" d="M30.9,187.6c0-0.1,0.1-0.2,0.2-0.2l0,0H39c0.1,0,0.2,0.1,0.3,0.2v0v5.4
		c0,0.1-0.1,0.2-0.2,0.2h0h-7.9c-0.1,0-0.2-0.1-0.3-0.2v0L30.9,187.6z"/>
	<path id="XMLID_7459_" class="st1" d="M30.9,187.6c0-0.1,0.1-0.2,0.2-0.2l0,0H39c0.1,0,0.2,0.1,0.3,0.2v0v5.4
		c0,0.1-0.1,0.2-0.2,0.2h0h-7.9c-0.1,0-0.2-0.1-0.3-0.2v0L30.9,187.6z"/>
	<path id="XMLID_7458_" class="st2" d="M1.3,146.1c0-1,0.9-1.8,2-1.8h62.6c1,0,1.9,0.8,2,1.8v39.5c0,1-0.9,1.8-1.9,1.8c0,0,0,0,0,0
		H3.3c-1,0.1-1.9-0.7-2-1.7c0,0,0,0,0,0V146.1z"/>
	<path id="XMLID_7457_" class="st1" d="M1.3,146.1c0-1,0.9-1.8,2-1.8h62.6c1,0,1.9,0.8,2,1.8v39.5c0,1-0.9,1.8-1.9,1.8c0,0,0,0,0,0
		H3.3c-1,0.1-1.9-0.7-2-1.7c0,0,0,0,0,0V146.1z"/>
	<path id="XMLID_7456_" class="st0" d="M3.2,202.6h66.1c0.9,0,1.6-0.8,1.6-1.7c0-0.2,0-0.3-0.1-0.5l-3.6-7.5
		c-0.2-0.5-0.7-0.8-1.3-0.8l-60.4,0.1c-0.6,0-1.2,0.4-1.4,1l-2.2,7.6c-0.2,0.8,0.3,1.6,1,1.8C2.9,202.6,3,202.6,3.2,202.6"/>
	<path id="XMLID_7455_" class="st1" d="M3.2,202.6h66.1c0.9,0,1.6-0.8,1.6-1.7c0-0.2,0-0.3-0.1-0.5l-3.6-7.5
		c-0.2-0.5-0.7-0.8-1.3-0.8l-60.4,0.1c-0.6,0-1.2,0.4-1.4,1l-2.2,7.6c-0.2,0.8,0.3,1.6,1,1.8C2.9,202.6,3,202.6,3.2,202.6z"/>
	<path id="XMLID_7453_" class="st0" d="M6.1,150.6c0.1-0.8,0.8-1.4,1.7-1.4h53.3c0.8-0.1,1.6,0.5,1.7,1.4v30.6
		c-0.1,0.8-0.8,1.5-1.7,1.4l0,0l-53.3,0c-0.8,0.1-1.6-0.5-1.7-1.3c0,0,0,0,0,0V150.6z"/>
	<path id="XMLID_7452_" class="st3" d="M312,241.7c5.8-9.2,10.6-19.1,14.2-29.5"/>
	<path id="XMLID_7451_" class="st3" d="M312,207.3c-3.3,9.4-7.6,18.2-12.8,26.5"/>
	<path id="XMLID_7450_" class="st3" d="M216.5,22.1c-8.8-1.7-18-2.6-27.3-2.6c-7.3,0-14.5,0.5-21.5,1.6"/>
	<path id="XMLID_7449_" class="st3" d="M170,35.9c6.3-0.9,12.7-1.4,19.2-1.4c8.4,0,16.6,0.8,24.5,2.3"/>
	<path id="XMLID_7448_" class="st3" d="M330.3,130.9c-4.7-19.7-13.4-37.8-25.1-53.5"/>
	<path id="XMLID_7447_" class="st3" d="M293.2,86.4c10.6,14,18.4,30.3,22.5,48"/>
	<path id="XMLID_7446_" class="st3" d="M215.1,291.9c-8.4,1.7-17,2.6-25.9,2.6c-5.3,0-10.5-0.3-15.6-0.9"/>
	<path id="XMLID_7445_" class="st3" d="M171.8,308.4c5.7,0.7,11.5,1,17.4,1c9.9,0,19.6-1,28.9-2.9"/>
	<path id="XMLID_7444_" class="st3" d="M73.8,76.7C63.4,90.4,55.3,106,50.3,122.9"/>
	<path id="XMLID_7443_" class="st3" d="M64.7,127.2c4.5-15.1,11.7-29.1,21.1-41.4"/>
	<path id="XMLID_7442_" class="st3" d="M90.3,248.8c-9.8-11.4-17.6-24.6-22.9-39"/>
	<path id="XMLID_7441_" class="st3" d="M53.3,215.1c6,16,14.7,30.7,25.6,43.5"/>
</g>
</svg>
