<?xml version="1.0" encoding="utf-8"?>
<!-- Generator: Adobe Illustrator 19.0.0, SVG Export Plug-In . SVG Version: 6.00 Build 0)  -->
<svg version="1.1" id="Capa_1" xmlns="http://www.w3.org/2000/svg" xmlns:xlink="http://www.w3.org/1999/xlink" x="0px" y="0px"
	 viewBox="0 0 373.9 323.1" style="enable-background:new 0 0 373.9 323.1;" xml:space="preserve">
<style type="text/css">
	.st0{fill:#FFFFFF;}
	.st1{fill:none;stroke:#3D4752;stroke-width:2.694;stroke-miterlimit:10;}
	.st2{fill:#3D4752;}
	.st3{fill:none;stroke:#3D4752;stroke-width:2.713;stroke-miterlimit:10;}
</style>
<g id="XMLID_7668_">
	<path id="XMLID_7654_" class="st0" d="M134.1,6.6c0-1.4,0.3-2.6,0.7-2.6h23.2c0.4,0,0.7,1.2,0.7,2.6v57.2c0,1.5-0.3,2.6-0.7,2.6
		h-23.2c-0.4,0-0.7-1.1-0.7-2.6L134.1,6.6z"/>
	<path id="XMLID_7653_" class="st1" d="M134.1,6.6c0-1.4,0.3-2.6,0.7-2.6h23.2c0.4,0,0.7,1.2,0.7,2.6v57.2c0,1.5-0.3,2.6-0.7,2.6
		h-23.2c-0.4,0-0.7-1.1-0.7-2.6L134.1,6.6z"/>
	<path id="XMLID_7652_" class="st0" d="M108.3,57.6c0-0.1,0.1-0.2,0.2-0.2l0,0h7.8c0.1,0,0.2,0.1,0.3,0.2v0V63
		c0,0.1-0.1,0.2-0.2,0.2h0h-7.9c-0.1,0-0.2-0.1-0.3-0.2v0L108.3,57.6z"/>
	<path id="XMLID_7651_" class="st1" d="M108.3,57.6c0-0.1,0.1-0.2,0.2-0.2l0,0h7.8c0.1,0,0.2,0.1,0.3,0.2v0V63
		c0,0.1-0.1,0.2-0.2,0.2h0h-7.9c-0.1,0-0.2-0.1-0.3-0.2v0L108.3,57.6z"/>
	<path id="XMLID_7647_" class="st2" d="M78.8,16.1c0-1,0.9-1.8,2-1.8h62.6c1,0,1.9,0.8,2,1.8v39.5c0,1-0.9,1.8-1.9,1.8c0,0,0,0,0,0
		H80.8c-1,0.1-1.9-0.7-2-1.7c0,0,0,0,0-0.1V16.1z"/>
	<path id="XMLID_7646_" class="st1" d="M78.8,16.1c0-1,0.9-1.8,2-1.8h62.6c1,0,1.9,0.8,2,1.8v39.5c0,1-0.9,1.8-1.9,1.8c0,0,0,0,0,0
		H80.8c-1,0.1-1.9-0.7-2-1.7c0,0,0,0,0-0.1V16.1z"/>
	<path id="XMLID_7645_" class="st0" d="M80.6,72.7h66.1c0.9,0,1.6-0.8,1.6-1.7c0-0.2,0-0.3-0.1-0.5l-3.6-7.5
		c-0.2-0.5-0.7-0.8-1.3-0.8l-60.4,0.1c-0.6,0-1.2,0.4-1.4,1l-2.2,7.6c-0.2,0.8,0.3,1.6,1,1.8C80.4,72.6,80.5,72.7,80.6,72.7"/>
	<path id="XMLID_7644_" class="st1" d="M80.6,72.7h66.1c0.9,0,1.6-0.8,1.6-1.7c0-0.2,0-0.3-0.1-0.5l-3.6-7.5
		c-0.2-0.5-0.7-0.8-1.3-0.8l-60.4,0.1c-0.6,0-1.2,0.4-1.4,1l-2.2,7.6c-0.2,0.8,0.3,1.6,1,1.8C80.4,72.6,80.5,72.7,80.6,72.7z"/>
	<path id="XMLID_7643_" class="st0" d="M83.5,20.7c0.1-0.8,0.8-1.4,1.7-1.4h53.3c0.8-0.1,1.6,0.5,1.7,1.4v30.6
		c-0.1,0.8-0.8,1.5-1.7,1.4c0,0,0,0,0,0H85.3c-0.8,0.1-1.6-0.5-1.7-1.3c0,0,0,0,0,0V20.7z"/>
	<path id="XMLID_7642_" class="st0" d="M280,3.9c0-1.4,0.3-2.6,0.7-2.6H304c0.4,0,0.7,1.2,0.7,2.6v57.2c0,1.5-0.3,2.6-0.7,2.6h-23.2
		c-0.4,0-0.7-1.1-0.7-2.6L280,3.9z"/>
	<path id="XMLID_7641_" class="st1" d="M280,3.9c0-1.4,0.3-2.6,0.7-2.6H304c0.4,0,0.7,1.2,0.7,2.6v57.2c0,1.5-0.3,2.6-0.7,2.6h-23.2
		c-0.4,0-0.7-1.1-0.7-2.6L280,3.9z"/>
	<path id="XMLID_7640_" class="st0" d="M254.2,54.9c0-0.1,0.1-0.2,0.2-0.2l0,0h7.8c0.1,0,0.2,0.1,0.3,0.2v0v5.4
		c0,0.1-0.1,0.2-0.2,0.2h0h-7.9c-0.1,0-0.2-0.1-0.3-0.2v0L254.2,54.9z"/>
	<path id="XMLID_7639_" class="st1" d="M254.2,54.9c0-0.1,0.1-0.2,0.2-0.2l0,0h7.8c0.1,0,0.2,0.1,0.3,0.2v0v5.4
		c0,0.1-0.1,0.2-0.2,0.2h0h-7.9c-0.1,0-0.2-0.1-0.3-0.2v0L254.2,54.9z"/>
	<path id="XMLID_7638_" class="st2" d="M224.7,13.4c0-1,0.9-1.8,2-1.8h62.6c1,0,1.9,0.8,2,1.8v39.5c0,1-0.9,1.8-1.9,1.8c0,0,0,0,0,0
		h-62.6c-1,0.1-1.9-0.7-2-1.7c0,0,0,0,0-0.1V13.4z"/>
	<path id="XMLID_7637_" class="st1" d="M224.7,13.4c0-1,0.9-1.8,2-1.8h62.6c1,0,1.9,0.8,2,1.8v39.5c0,1-0.9,1.8-1.9,1.8c0,0,0,0,0,0
		h-62.6c-1,0.1-1.9-0.7-2-1.7c0,0,0,0,0-0.1V13.4z"/>
	<path id="XMLID_7636_" class="st0" d="M226.5,70h66.1c0.9,0,1.6-0.8,1.6-1.7c0-0.2,0-0.3-0.1-0.5l-3.6-7.5
		c-0.2-0.5-0.7-0.8-1.3-0.8l-60.4,0.1c-0.6,0-1.2,0.4-1.4,1l-2.2,7.6c-0.2,0.8,0.3,1.6,1,1.8C226.3,69.9,226.4,70,226.5,70"/>
	<path id="XMLID_7635_" class="st1" d="M226.5,70h66.1c0.9,0,1.6-0.8,1.6-1.7c0-0.2,0-0.3-0.1-0.5l-3.6-7.5
		c-0.2-0.5-0.7-0.8-1.3-0.8l-60.4,0.1c-0.6,0-1.2,0.4-1.4,1l-2.2,7.6c-0.2,0.8,0.3,1.6,1,1.8C226.3,69.9,226.4,70,226.5,70z"/>
	<path id="XMLID_7634_" class="st0" d="M229.5,18c0.1-0.8,0.8-1.4,1.7-1.4h53.3c0.8-0.1,1.6,0.5,1.7,1.4v30.6
		c-0.1,0.8-0.8,1.5-1.7,1.4l0,0h-53.3c-0.8,0.1-1.6-0.5-1.7-1.3c0,0,0,0,0,0V18z"/>
	<path id="XMLID_7633_" class="st0" d="M137.5,255.7c0-1.4,0.3-2.6,0.7-2.6h23.2c0.4,0,0.7,1.2,0.7,2.6v57.2c0,1.5-0.3,2.6-0.7,2.6
		h-23.2c-0.4,0-0.7-1.1-0.7-2.6L137.5,255.7z"/>
	<path id="XMLID_7632_" class="st1" d="M137.5,255.7c0-1.4,0.3-2.6,0.7-2.6h23.2c0.4,0,0.7,1.2,0.7,2.6v57.2c0,1.5-0.3,2.6-0.7,2.6
		h-23.2c-0.4,0-0.7-1.1-0.7-2.6L137.5,255.7z"/>
	<path id="XMLID_7631_" class="st0" d="M111.8,306.7c0-0.1,0.1-0.2,0.2-0.2h0h7.8c0.1,0,0.2,0.1,0.3,0.2v0v5.4
		c0,0.1-0.1,0.2-0.2,0.2h0H112c-0.1,0-0.2-0.1-0.3-0.2v0L111.8,306.7z"/>
	<path id="XMLID_7630_" class="st1" d="M111.8,306.7c0-0.1,0.1-0.2,0.2-0.2h0h7.8c0.1,0,0.2,0.1,0.3,0.2v0v5.4
		c0,0.1-0.1,0.2-0.2,0.2h0H112c-0.1,0-0.2-0.1-0.3-0.2v0L111.8,306.7z"/>
	<path id="XMLID_7629_" class="st2" d="M82.2,265.2c0-1,0.9-1.8,2-1.8h62.6c1,0,1.9,0.8,2,1.8v39.5c0,1-0.9,1.8-1.9,1.8c0,0,0,0,0,0
		H84.2c-1,0.1-1.9-0.7-2-1.7c0,0,0,0,0-0.1V265.2z"/>
	<path id="XMLID_7628_" class="st1" d="M82.2,265.2c0-1,0.9-1.8,2-1.8h62.6c1,0,1.9,0.8,2,1.8v39.5c0,1-0.9,1.8-1.9,1.8c0,0,0,0,0,0
		H84.2c-1,0.1-1.9-0.7-2-1.7c0,0,0,0,0-0.1V265.2z"/>
	<path id="XMLID_7627_" class="st0" d="M84,321.7h66.1c0.9,0,1.6-0.8,1.6-1.7c0-0.2,0-0.3-0.1-0.5L148,312c-0.2-0.5-0.7-0.8-1.3-0.8
		l-60.4,0.1c-0.6,0-1.2,0.4-1.4,1l-2.2,7.6c-0.2,0.8,0.3,1.6,1,1.8C83.8,321.7,83.9,321.7,84,321.7"/>
	<path id="XMLID_7626_" class="st1" d="M84,321.7h66.1c0.9,0,1.6-0.8,1.6-1.7c0-0.2,0-0.3-0.1-0.5L148,312c-0.2-0.5-0.7-0.8-1.3-0.8
		l-60.4,0.1c-0.6,0-1.2,0.4-1.4,1l-2.2,7.6c-0.2,0.8,0.3,1.6,1,1.8C83.8,321.7,83.9,321.7,84,321.7z"/>
	<path id="XMLID_7625_" class="st0" d="M87,269.8c0.1-0.8,0.8-1.4,1.7-1.4H142c0.8-0.1,1.6,0.5,1.7,1.4v30.6
		c-0.1,0.8-0.8,1.5-1.7,1.4c0,0,0,0,0,0H88.7c-0.8,0.1-1.6-0.5-1.7-1.3c0,0,0,0,0,0V269.8z"/>
	<path id="XMLID_7624_" class="st0" d="M283.5,253c0-1.4,0.3-2.6,0.7-2.6h23.2c0.4,0,0.7,1.2,0.7,2.6v57.2c0,1.5-0.3,2.6-0.7,2.6
		h-23.2c-0.4,0-0.7-1.1-0.7-2.6L283.5,253z"/>
	<path id="XMLID_7623_" class="st1" d="M283.5,253c0-1.4,0.3-2.6,0.7-2.6h23.2c0.4,0,0.7,1.2,0.7,2.6v57.2c0,1.5-0.3,2.6-0.7,2.6
		h-23.2c-0.4,0-0.7-1.1-0.7-2.6L283.5,253z"/>
	<path id="XMLID_7622_" class="st0" d="M257.7,304c0-0.1,0.1-0.2,0.2-0.2l0,0h7.8c0.1,0,0.2,0.1,0.3,0.2v0v5.4
		c0,0.1-0.1,0.2-0.2,0.2h0h-7.9c-0.1,0-0.2-0.1-0.3-0.2v0L257.7,304z"/>
	<path id="XMLID_7621_" class="st1" d="M257.7,304c0-0.1,0.1-0.2,0.2-0.2l0,0h7.8c0.1,0,0.2,0.1,0.3,0.2v0v5.4
		c0,0.1-0.1,0.2-0.2,0.2h0h-7.9c-0.1,0-0.2-0.1-0.3-0.2v0L257.7,304z"/>
	<path id="XMLID_7620_" class="st2" d="M228.1,262.5c0-1,0.9-1.8,2-1.8h62.6c1,0,1.9,0.8,2,1.8V302c0,1-0.9,1.8-1.9,1.8h0h-62.6
		c-1,0.1-1.9-0.7-2-1.7c0,0,0,0,0,0V262.5z"/>
	<path id="XMLID_7618_" class="st1" d="M228.1,262.5c0-1,0.9-1.8,2-1.8h62.6c1,0,1.9,0.8,2,1.8V302c0,1-0.9,1.8-1.9,1.8h0h-62.6
		c-1,0.1-1.9-0.7-2-1.7c0,0,0,0,0,0V262.5z"/>
	<path id="XMLID_7617_" class="st0" d="M229.9,319H296c0.9-0.1,1.6-0.8,1.6-1.7c0-0.2,0-0.3-0.1-0.5l-3.6-7.5
		c-0.2-0.5-0.7-0.8-1.3-0.8l-60.4,0.1c-0.6,0-1.2,0.4-1.4,1l-2.2,7.6c-0.2,0.8,0.3,1.6,1,1.8C229.7,319,229.8,319,229.9,319"/>
	<path id="XMLID_7616_" class="st1" d="M229.9,319H296c0.9-0.1,1.6-0.8,1.6-1.7c0-0.2,0-0.3-0.1-0.5l-3.6-7.5
		c-0.2-0.5-0.7-0.8-1.3-0.8l-60.4,0.1c-0.6,0-1.2,0.4-1.4,1l-2.2,7.6c-0.2,0.8,0.3,1.6,1,1.8C229.7,319,229.8,319,229.9,319z"/>
	<path id="XMLID_7615_" class="st0" d="M232.9,267.1c0.1-0.8,0.8-1.4,1.7-1.4h53.3c0.8-0.1,1.6,0.5,1.7,1.4v30.6
		c-0.1,0.8-0.8,1.5-1.7,1.4h0h-53.3c-0.8,0.1-1.6-0.5-1.7-1.3c0,0,0,0,0,0V267.1z"/>
	<path id="XMLID_7614_" class="st0" d="M347.9,136.6c0-1.4,0.3-2.6,0.7-2.6h23.2c0.4,0,0.7,1.2,0.7,2.6v57.2c0,1.5-0.3,2.6-0.7,2.6
		h-23.2c-0.4,0-0.7-1.1-0.7-2.6L347.9,136.6z"/>
	<path id="XMLID_7613_" class="st1" d="M347.9,136.6c0-1.4,0.3-2.6,0.7-2.6h23.2c0.4,0,0.7,1.2,0.7,2.6v57.2c0,1.5-0.3,2.6-0.7,2.6
		h-23.2c-0.4,0-0.7-1.1-0.7-2.6L347.9,136.6z"/>
	<path id="XMLID_7612_" class="st0" d="M322.1,187.6c0-0.1,0.1-0.2,0.2-0.2l0,0h7.8c0.1,0,0.2,0.1,0.3,0.2v0v5.4
		c0,0.1-0.1,0.2-0.2,0.2h0h-7.9c-0.1,0-0.2-0.1-0.3-0.2v0L322.1,187.6z"/>
	<path id="XMLID_7611_" class="st1" d="M322.1,187.6c0-0.1,0.1-0.2,0.2-0.2l0,0h7.8c0.1,0,0.2,0.1,0.3,0.2v0v5.4
		c0,0.1-0.1,0.2-0.2,0.2h0h-7.9c-0.1,0-0.2-0.1-0.3-0.2v0L322.1,187.6z"/>
	<path id="XMLID_7610_" class="st2" d="M292.6,146.1c0-1,0.9-1.8,2-1.8h62.6c1,0,1.9,0.8,2,1.8v39.5c0,1-0.9,1.8-1.9,1.8
		c0,0,0,0,0,0h-62.6c-1,0.1-1.9-0.7-2-1.7c0,0,0,0,0-0.1V146.1z"/>
	<path id="XMLID_7609_" class="st1" d="M292.6,146.1c0-1,0.9-1.8,2-1.8h62.6c1,0,1.9,0.8,2,1.8v39.5c0,1-0.9,1.8-1.9,1.8
		c0,0,0,0,0,0h-62.6c-1,0.1-1.9-0.7-2-1.7c0,0,0,0,0-0.1V146.1z"/>
	<path id="XMLID_7608_" class="st0" d="M294.4,202.6h66.1c0.9,0,1.6-0.8,1.6-1.7c0-0.2,0-0.3-0.1-0.5l-3.6-7.5
		c-0.2-0.5-0.7-0.8-1.3-0.8l-60.4,0.1c-0.6,0-1.2,0.4-1.4,1l-2.2,7.6c-0.2,0.8,0.3,1.6,1,1.8C294.1,202.6,294.2,202.6,294.4,202.6"
		/>
	<path id="XMLID_7607_" class="st1" d="M294.4,202.6h66.1c0.9,0,1.6-0.8,1.6-1.7c0-0.2,0-0.3-0.1-0.5l-3.6-7.5
		c-0.2-0.5-0.7-0.8-1.3-0.8l-60.4,0.1c-0.6,0-1.2,0.4-1.4,1l-2.2,7.6c-0.2,0.8,0.3,1.6,1,1.8C294.1,202.6,294.2,202.6,294.4,202.6z"
		/>
	<path id="XMLID_7606_" class="st0" d="M297.3,150.6c0.1-0.8,0.8-1.4,1.7-1.4h53.3c0.8-0.1,1.6,0.5,1.7,1.4v30.6
		c-0.1,0.8-0.8,1.5-1.7,1.4c0,0,0,0,0,0H299c-0.8,0.1-1.6-0.5-1.7-1.3c0,0,0,0,0,0V150.6z"/>
	<path id="XMLID_7605_" class="st0" d="M56.7,136.6c0-1.4,0.3-2.6,0.7-2.6h23.2c0.4,0,0.7,1.2,0.7,2.6v57.2c0,1.5-0.3,2.6-0.7,2.6
		H57.4c-0.4,0-0.7-1.1-0.7-2.6L56.7,136.6z"/>
	<path id="XMLID_7604_" class="st1" d="M56.7,136.6c0-1.4,0.3-2.6,0.7-2.6h23.2c0.4,0,0.7,1.2,0.7,2.6v57.2c0,1.5-0.3,2.6-0.7,2.6
		H57.4c-0.4,0-0.7-1.1-0.7-2.6L56.7,136.6z"/>
	<path id="XMLID_7603_" class="st0" d="M30.9,187.6c0-0.1,0.1-0.2,0.2-0.2h0H39c0.1,0,0.2,0.1,0.3,0.2v0v5.4c0,0.1-0.1,0.2-0.2,0.2
		h0h-7.9c-0.1,0-0.2-0.1-0.3-0.2v0L30.9,187.6z"/>
	<path id="XMLID_7602_" class="st1" d="M30.9,187.6c0-0.1,0.1-0.2,0.2-0.2h0H39c0.1,0,0.2,0.1,0.3,0.2v0v5.4c0,0.1-0.1,0.2-0.2,0.2
		h0h-7.9c-0.1,0-0.2-0.1-0.3-0.2v0L30.9,187.6z"/>
	<path id="XMLID_7601_" class="st2" d="M1.3,146.1c0-1,0.9-1.8,2-1.8h62.6c1,0,1.9,0.8,2,1.8v39.5c0,1-0.9,1.8-1.9,1.8c0,0,0,0,0,0
		H3.3c-1,0.1-1.9-0.7-2-1.7c0,0,0,0,0,0V146.1z"/>
	<path id="XMLID_7600_" class="st1" d="M1.3,146.1c0-1,0.9-1.8,2-1.8h62.6c1,0,1.9,0.8,2,1.8v39.5c0,1-0.9,1.8-1.9,1.8c0,0,0,0,0,0
		H3.3c-1,0.1-1.9-0.7-2-1.7c0,0,0,0,0,0V146.1z"/>
	<path id="XMLID_7599_" class="st0" d="M3.2,202.6h66.1c0.9,0,1.6-0.8,1.6-1.7c0-0.2,0-0.3-0.1-0.5l-3.6-7.5
		c-0.2-0.5-0.7-0.8-1.3-0.8l-60.4,0.1c-0.6,0-1.2,0.4-1.4,1l-2.2,7.6c-0.2,0.8,0.3,1.6,1,1.8C2.9,202.6,3,202.6,3.2,202.6"/>
	<path id="XMLID_7598_" class="st1" d="M3.2,202.6h66.1c0.9,0,1.6-0.8,1.6-1.7c0-0.2,0-0.3-0.1-0.5l-3.6-7.5
		c-0.2-0.5-0.7-0.8-1.3-0.8l-60.4,0.1c-0.6,0-1.2,0.4-1.4,1l-2.2,7.6c-0.2,0.8,0.3,1.6,1,1.8C2.9,202.6,3,202.6,3.2,202.6z"/>
	<path id="XMLID_7597_" class="st0" d="M6.1,150.6c0.1-0.8,0.8-1.4,1.7-1.4h53.3c0.8-0.1,1.6,0.5,1.7,1.4v30.6
		c-0.1,0.8-0.8,1.5-1.7,1.4c0,0,0,0,0,0H7.8c-0.8,0.1-1.6-0.5-1.7-1.3c0,0,0,0,0,0V150.6z"/>
	<line id="XMLID_7596_" class="st3" x1="93.5" y1="164.8" x2="280.3" y2="164.8"/>
	<line id="XMLID_7595_" class="st3" x1="173.1" y1="272.8" x2="285.8" y2="208.8"/>
	<line id="XMLID_7594_" class="st3" x1="197.3" y1="264.8" x2="219.8" y2="279.4"/>
	<line id="XMLID_7593_" class="st3" x1="89.8" y1="194.8" x2="187" y2="258.1"/>
	<line id="XMLID_7592_" class="st3" x1="230.2" y1="247" x2="233.1" y2="252.8"/>
	<line id="XMLID_7591_" class="st3" x1="191.3" y1="169.5" x2="225.3" y2="237.1"/>
	<line id="XMLID_7590_" class="st3" x1="147.4" y1="82.1" x2="185.7" y2="158.4"/>
	<line id="XMLID_7589_" class="st3" x1="168.1" y1="32.4" x2="216.8" y2="32.4"/>
	<line id="XMLID_7588_" class="st3" x1="73.6" y1="76.4" x2="49.9" y2="122.8"/>
	<line id="XMLID_7587_" class="st3" x1="53.4" y1="214.3" x2="78.6" y2="258"/>
	<line id="XMLID_7586_" class="st3" x1="312.2" y1="241.9" x2="326.3" y2="212"/>
</g>
</svg>
