<?xml version="1.0" encoding="utf-8"?>
<!-- Generator: Adobe Illustrator 19.0.0, SVG Export Plug-In . SVG Version: 6.00 Build 0)  -->
<svg version="1.1" id="Capa_1" xmlns="http://www.w3.org/2000/svg" xmlns:xlink="http://www.w3.org/1999/xlink" x="0px" y="0px"
	 viewBox="0 0 460.9 307" style="enable-background:new 0 0 460.9 307;" xml:space="preserve">
<style type="text/css">
	.st0{fill:#3D4752;}
	.st1{fill:#FFFFFF;}
	.st2{fill:none;stroke:#3D4752;stroke-width:2.694;stroke-miterlimit:10;}
	.st3{fill:none;stroke:#3D4752;stroke-width:2.713;stroke-miterlimit:10;}
	.st4{fill:#454545;}
</style>
<g id="XMLID_7684_">
	<path id="XMLID_7806_" class="st0" d="M256.4,0h-42.7c-3.4,0-6.1,2.8-6.1,6.1v93.3c0,3.4,2.8,6.1,6.1,6.1h42.7
		c3.4,0,6.1-2.8,6.1-6.1V6.1C262.5,2.8,259.8,0,256.4,0 M259.4,99.5c0,1.6-1.3,3-3,3h-42.7c-1.6,0-3-1.3-3-3V6.1c0-1.6,1.3-3,3-3
		h42.7c1.6,0,3,1.3,3,3V99.5z M218.6,23.8h33.1c1.2,0,2.1-0.9,2.1-2.1V10.5c0-1.2-0.9-2.1-2.1-2.1h-33.1c-1.2,0-2.1,1-2.1,2.1v11.1
		C216.5,22.8,217.4,23.8,218.6,23.8 M245.3,20.2h6.3v1.5h-6.3V20.2z M218.6,45.7h33.1c1.2,0,2.1-0.9,2.1-2.1V32.5
		c0-1.1-0.9-2.1-2.1-2.1h-33.1c-1.2,0-2.1,0.9-2.1,2.1v11.1C216.5,44.8,217.4,45.7,218.6,45.7 M244.8,42.7h6.3v1.5h-6.3V42.7z
		 M235.2,82.8c-3.6,0-6.5,2.9-6.5,6.5c0,3.6,2.9,6.5,6.5,6.5c3.6,0,6.5-2.9,6.5-6.5C241.8,85.7,238.8,82.8,235.2,82.8 M235.2,92.7
		c-1.8,0-3.4-1.5-3.4-3.4c0-1.8,1.5-3.4,3.4-3.4c1.9,0,3.4,1.5,3.4,3.4C238.6,91.2,237.1,92.7,235.2,92.7 M216.5,71.8h37.3V75h-37.3
		V71.8z M216.6,63.6h37.3v3.2h-37.3V63.6z M216.6,55.2h37.3v3.2h-37.3V55.2z"/>
	<path id="XMLID_7805_" class="st1" d="M56.7,239.6c0-1.4,0.3-2.6,0.7-2.6h23.2c0.4,0,0.7,1.2,0.7,2.6v57.2c0,1.5-0.3,2.6-0.7,2.6
		H57.4c-0.4,0-0.7-1.1-0.7-2.6L56.7,239.6z"/>
	<path id="XMLID_7804_" class="st2" d="M56.7,239.6c0-1.4,0.3-2.6,0.7-2.6h23.2c0.4,0,0.7,1.2,0.7,2.6v57.2c0,1.5-0.3,2.6-0.7,2.6
		H57.4c-0.4,0-0.7-1.1-0.7-2.6L56.7,239.6z"/>
	<path id="XMLID_7803_" class="st1" d="M30.9,290.6c0-0.1,0.1-0.2,0.2-0.2l0,0H39c0.1,0,0.2,0.1,0.3,0.2v0v5.4
		c0,0.1-0.1,0.2-0.2,0.2h0h-7.9c-0.1,0-0.2-0.1-0.3-0.2v0L30.9,290.6z"/>
	<path id="XMLID_7802_" class="st2" d="M30.9,290.6c0-0.1,0.1-0.2,0.2-0.2l0,0H39c0.1,0,0.2,0.1,0.3,0.2v0v5.4
		c0,0.1-0.1,0.2-0.2,0.2h0h-7.9c-0.1,0-0.2-0.1-0.3-0.2v0L30.9,290.6z"/>
	<path id="XMLID_7801_" class="st0" d="M1.3,249.2c0-1,0.9-1.8,2-1.8h62.6c1,0,1.9,0.8,2,1.8v39.5c0,1-0.9,1.8-1.9,1.8h0H3.3
		c-1,0.1-1.9-0.7-2-1.7c0,0,0,0,0,0V249.2z"/>
	<path id="XMLID_7800_" class="st2" d="M1.3,249.2c0-1,0.9-1.8,2-1.8h62.6c1,0,1.9,0.8,2,1.8v39.5c0,1-0.9,1.8-1.9,1.8h0H3.3
		c-1,0.1-1.9-0.7-2-1.7c0,0,0,0,0,0V249.2z"/>
	<path id="XMLID_7799_" class="st1" d="M3.2,305.7h66.1c0.9-0.1,1.6-0.8,1.6-1.7c0-0.2,0-0.3-0.1-0.5l-3.6-7.5
		c-0.2-0.5-0.7-0.8-1.3-0.8l-60.4,0.1c-0.6,0-1.2,0.4-1.4,1l-2.2,7.6c-0.2,0.8,0.3,1.6,1,1.8C2.9,305.7,3,305.7,3.2,305.7"/>
	<path id="XMLID_7798_" class="st2" d="M3.2,305.7h66.1c0.9-0.1,1.6-0.8,1.6-1.7c0-0.2,0-0.3-0.1-0.5l-3.6-7.5
		c-0.2-0.5-0.7-0.8-1.3-0.8l-60.4,0.1c-0.6,0-1.2,0.4-1.4,1l-2.2,7.6c-0.2,0.8,0.3,1.6,1,1.8C2.9,305.7,3,305.7,3.2,305.7z"/>
	<path id="XMLID_7797_" class="st1" d="M6.1,253.7c0.1-0.8,0.8-1.4,1.7-1.4h53.3c0.8-0.1,1.6,0.5,1.7,1.4v30.6
		c-0.1,0.8-0.8,1.5-1.7,1.4h0H7.8c-0.8,0.1-1.6-0.5-1.7-1.3c0,0,0,0,0,0V253.7z"/>
	<path id="XMLID_7796_" class="st1" d="M182.7,239.6c0-1.4,0.3-2.6,0.7-2.6h23.2c0.4,0,0.7,1.2,0.7,2.6v57.2c0,1.5-0.3,2.6-0.7,2.6
		h-23.2c-0.4,0-0.7-1.1-0.7-2.6L182.7,239.6z"/>
	<path id="XMLID_7795_" class="st2" d="M182.7,239.6c0-1.4,0.3-2.6,0.7-2.6h23.2c0.4,0,0.7,1.2,0.7,2.6v57.2c0,1.5-0.3,2.6-0.7,2.6
		h-23.2c-0.4,0-0.7-1.1-0.7-2.6L182.7,239.6z"/>
	<path id="XMLID_7794_" class="st1" d="M156.9,290.6c0-0.1,0.1-0.2,0.2-0.2l0,0h7.8c0.1,0,0.2,0.1,0.3,0.2v0v5.4
		c0,0.1-0.1,0.2-0.2,0.2h0h-7.9c-0.1,0-0.2-0.1-0.3-0.2v0L156.9,290.6z"/>
	<path id="XMLID_7793_" class="st2" d="M156.9,290.6c0-0.1,0.1-0.2,0.2-0.2l0,0h7.8c0.1,0,0.2,0.1,0.3,0.2v0v5.4
		c0,0.1-0.1,0.2-0.2,0.2h0h-7.9c-0.1,0-0.2-0.1-0.3-0.2v0L156.9,290.6z"/>
	<path id="XMLID_7792_" class="st0" d="M127.4,249.2c0-1,0.9-1.8,2-1.8H192c1,0,1.9,0.8,2,1.8v39.5c0,1-0.9,1.8-1.9,1.8h0h-62.6
		c-1,0.1-1.9-0.7-2-1.7c0,0,0,0,0,0V249.2z"/>
	<path id="XMLID_7791_" class="st2" d="M127.4,249.2c0-1,0.9-1.8,2-1.8H192c1,0,1.9,0.8,2,1.8v39.5c0,1-0.9,1.8-1.9,1.8h0h-62.6
		c-1,0.1-1.9-0.7-2-1.7c0,0,0,0,0,0V249.2z"/>
	<path id="XMLID_7790_" class="st1" d="M129.2,305.7h66.1c0.9-0.1,1.6-0.8,1.6-1.7c0-0.2,0-0.3-0.1-0.5l-3.6-7.5
		c-0.2-0.5-0.7-0.8-1.3-0.8l-60.4,0.1c-0.6,0-1.2,0.4-1.4,1l-2.2,7.6c-0.2,0.8,0.3,1.6,1,1.8C129,305.7,129.1,305.7,129.2,305.7"/>
	<path id="XMLID_7789_" class="st2" d="M129.2,305.7h66.1c0.9-0.1,1.6-0.8,1.6-1.7c0-0.2,0-0.3-0.1-0.5l-3.6-7.5
		c-0.2-0.5-0.7-0.8-1.3-0.8l-60.4,0.1c-0.6,0-1.2,0.4-1.4,1l-2.2,7.6c-0.2,0.8,0.3,1.6,1,1.8C129,305.7,129.1,305.7,129.2,305.7z"/>
	<path id="XMLID_7788_" class="st1" d="M132.2,253.7c0.1-0.8,0.8-1.4,1.7-1.4h53.3c0.8-0.1,1.6,0.5,1.7,1.4v30.6
		c-0.1,0.8-0.8,1.5-1.7,1.4h0h-53.3c-0.8,0.1-1.6-0.5-1.7-1.3c0,0,0,0,0,0V253.7z"/>
	<path id="XMLID_7787_" class="st1" d="M308.8,239.6c0-1.4,0.3-2.6,0.7-2.6h23.2c0.4,0,0.7,1.2,0.7,2.6v57.2c0,1.5-0.3,2.6-0.7,2.6
		h-23.2c-0.4,0-0.7-1.1-0.7-2.6L308.8,239.6z"/>
	<path id="XMLID_7786_" class="st2" d="M308.8,239.6c0-1.4,0.3-2.6,0.7-2.6h23.2c0.4,0,0.7,1.2,0.7,2.6v57.2c0,1.5-0.3,2.6-0.7,2.6
		h-23.2c-0.4,0-0.7-1.1-0.7-2.6L308.8,239.6z"/>
	<path id="XMLID_7785_" class="st1" d="M283,290.6c0-0.1,0.1-0.2,0.2-0.2l0,0h7.8c0.1,0,0.2,0.1,0.3,0.2v0v5.4
		c0,0.1-0.1,0.2-0.2,0.2h0h-7.9c-0.1,0-0.2-0.1-0.3-0.2v0L283,290.6z"/>
	<path id="XMLID_7784_" class="st2" d="M283,290.6c0-0.1,0.1-0.2,0.2-0.2l0,0h7.8c0.1,0,0.2,0.1,0.3,0.2v0v5.4
		c0,0.1-0.1,0.2-0.2,0.2h0h-7.9c-0.1,0-0.2-0.1-0.3-0.2v0L283,290.6z"/>
	<path id="XMLID_7783_" class="st0" d="M253.5,249.2c0-1,0.9-1.8,2-1.8H318c1,0,1.9,0.8,2,1.8v39.5c0,1-0.9,1.8-1.9,1.8h0h-62.6
		c-1,0.1-1.9-0.7-2-1.7c0,0,0,0,0,0V249.2z"/>
	<path id="XMLID_7782_" class="st2" d="M253.5,249.2c0-1,0.9-1.8,2-1.8H318c1,0,1.9,0.8,2,1.8v39.5c0,1-0.9,1.8-1.9,1.8h0h-62.6
		c-1,0.1-1.9-0.7-2-1.7c0,0,0,0,0,0V249.2z"/>
	<path id="XMLID_7781_" class="st1" d="M255.3,305.7h66.1c0.9-0.1,1.6-0.8,1.6-1.7c0-0.2,0-0.3-0.1-0.5l-3.6-7.5
		c-0.2-0.5-0.7-0.8-1.3-0.8l-60.4,0.1c-0.6,0-1.2,0.4-1.4,1l-2.2,7.6c-0.2,0.8,0.3,1.6,1,1.8C255.1,305.7,255.2,305.7,255.3,305.7"
		/>
	<path id="XMLID_7780_" class="st2" d="M255.3,305.7h66.1c0.9-0.1,1.6-0.8,1.6-1.7c0-0.2,0-0.3-0.1-0.5l-3.6-7.5
		c-0.2-0.5-0.7-0.8-1.3-0.8l-60.4,0.1c-0.6,0-1.2,0.4-1.4,1l-2.2,7.6c-0.2,0.8,0.3,1.6,1,1.8C255.1,305.7,255.2,305.7,255.3,305.7z"
		/>
	<path id="XMLID_7779_" class="st1" d="M258.2,253.7c0.1-0.8,0.8-1.4,1.7-1.4h53.3c0.8-0.1,1.6,0.5,1.7,1.4v30.6
		c-0.1,0.8-0.8,1.5-1.7,1.4h0h-53.3c-0.8,0.1-1.6-0.5-1.7-1.3c0,0,0,0,0,0V253.7z"/>
	<path id="XMLID_7778_" class="st1" d="M434.9,239.6c0-1.4,0.3-2.6,0.7-2.6h23.2c0.4,0,0.7,1.2,0.7,2.6v57.2c0,1.5-0.3,2.6-0.7,2.6
		h-23.2c-0.4,0-0.7-1.1-0.7-2.6L434.9,239.6z"/>
	<path id="XMLID_7777_" class="st2" d="M434.9,239.6c0-1.4,0.3-2.6,0.7-2.6h23.2c0.4,0,0.7,1.2,0.7,2.6v57.2c0,1.5-0.3,2.6-0.7,2.6
		h-23.2c-0.4,0-0.7-1.1-0.7-2.6L434.9,239.6z"/>
	<path id="XMLID_7776_" class="st1" d="M409.1,290.6c0-0.1,0.1-0.2,0.2-0.2l0,0h7.8c0.1,0,0.2,0.1,0.3,0.2v0v5.4
		c0,0.1-0.1,0.2-0.2,0.2h0h-7.9c-0.1,0-0.2-0.1-0.3-0.2v0L409.1,290.6z"/>
	<path id="XMLID_7775_" class="st2" d="M409.1,290.6c0-0.1,0.1-0.2,0.2-0.2l0,0h7.8c0.1,0,0.2,0.1,0.3,0.2v0v5.4
		c0,0.1-0.1,0.2-0.2,0.2h0h-7.9c-0.1,0-0.2-0.1-0.3-0.2v0L409.1,290.6z"/>
	<path id="XMLID_7774_" class="st0" d="M379.6,249.2c0-1,0.9-1.8,2-1.8h62.6c1,0,1.9,0.8,2,1.8v39.5c0,1-0.9,1.8-1.9,1.8h0h-62.6
		c-1,0.1-1.9-0.7-2-1.7c0,0,0,0,0,0V249.2z"/>
	<path id="XMLID_7773_" class="st2" d="M379.6,249.2c0-1,0.9-1.8,2-1.8h62.6c1,0,1.9,0.8,2,1.8v39.5c0,1-0.9,1.8-1.9,1.8h0h-62.6
		c-1,0.1-1.9-0.7-2-1.7c0,0,0,0,0,0V249.2z"/>
	<path id="XMLID_7772_" class="st1" d="M381.4,305.7h66.1c0.9-0.1,1.6-0.8,1.6-1.7c0-0.2,0-0.3-0.1-0.5l-3.6-7.5
		c-0.2-0.5-0.7-0.8-1.3-0.8l-60.4,0.1c-0.6,0-1.2,0.4-1.4,1l-2.2,7.6c-0.2,0.8,0.3,1.6,1,1.8C381.1,305.7,381.2,305.7,381.4,305.7"
		/>
	<path id="XMLID_7771_" class="st2" d="M381.4,305.7h66.1c0.9-0.1,1.6-0.8,1.6-1.7c0-0.2,0-0.3-0.1-0.5l-3.6-7.5
		c-0.2-0.5-0.7-0.8-1.3-0.8l-60.4,0.1c-0.6,0-1.2,0.4-1.4,1l-2.2,7.6c-0.2,0.8,0.3,1.6,1,1.8C381.1,305.7,381.2,305.7,381.4,305.7z"
		/>
	<path id="XMLID_7770_" class="st1" d="M384.3,253.7c0.1-0.8,0.8-1.4,1.7-1.4h53.3c0.8-0.1,1.6,0.5,1.7,1.4v30.6
		c-0.1,0.8-0.8,1.5-1.7,1.4h0H386c-0.8,0.1-1.6-0.5-1.7-1.3c0,0,0,0,0,0V253.7z"/>
	<polyline id="XMLID_7769_" class="st3" points="202.8,107.1 139.7,156.1 137,158.2 	"/>
	<line id="XMLID_7768_" class="st3" x1="101.8" y1="185.5" x2="32.5" y2="239.4"/>
	<line id="XMLID_7767_" class="st3" x1="113.5" y1="185.5" x2="176.3" y2="234.2"/>
	<line id="XMLID_7766_" class="st3" x1="353.9" y1="185.5" x2="284.6" y2="239.4"/>
	<line id="XMLID_7765_" class="st3" x1="365.6" y1="185.5" x2="428.4" y2="234.2"/>
	<line id="XMLID_7764_" class="st3" x1="263.1" y1="107.1" x2="318.8" y2="150.3"/>
	<path id="XMLID_7758_" class="st4" d="M131.1,162H81.8v-28.3c0-1.7-1.4-3.1-3.1-3.1c-1.7,0-3.1,1.4-3.1,3.1v28.4
		c-2.4,0.5-4.2,2.6-4.2,5.1v6.3c0,2.1,1.3,4,3.1,4.8v1.5c0,1.2,0.9,2.1,2.1,2.1h4.2c1.2,0,2.1-0.9,2.1-2.1v-1h40.9v1
		c0,1.2,0.9,2.1,2.1,2.1h4.2c1.2,0,2.1-0.9,2.1-2.1v-1.2c2.4-0.5,4.2-2.6,4.2-5.1v-6.3C136.3,164.4,134,162,131.1,162 M78.7,132.7
		c0.6,0,1,0.5,1,1V162h-2.1v-28.3C77.6,133.1,78.1,132.7,78.7,132.7 M80.8,179.8h-4.2v-1h4.2V179.8z M130,179.8h-4.2v-1h4.2V179.8z
		 M134.2,173.5c0,1.7-1.4,3.1-3.1,3.1H76.6c-1.7,0-3.1-1.4-3.1-3.1v-6.3c0-1.7,1.4-3.1,3.1-3.1h54.5c1.7,0,3.1,1.4,3.1,3.1V173.5z"
		/>
	<path id="XMLID_7740_" class="st4" d="M92.3,166.2H77.6c-1.2,0-2.1,0.9-2.1,2.1v4.2c0,1.2,0.9,2.1,2.1,2.1h14.7
		c1.2,0,2.1-0.9,2.1-2.1v-4.2C94.4,167.1,93.5,166.2,92.3,166.2 M77.6,172.5v-4.2h14.7l0,4.2H77.6z"/>
	<rect id="XMLID_7739_" x="130" y="169.4" class="st4" width="2.1" height="2.1"/>
	<rect id="XMLID_7738_" x="125.8" y="169.4" class="st4" width="2.1" height="2.1"/>
	<rect id="XMLID_7737_" x="121.7" y="169.4" class="st4" width="2.1" height="2.1"/>
	<rect id="XMLID_7736_" x="117.5" y="169.4" class="st4" width="2.1" height="2.1"/>
	<path id="XMLID_7733_" class="st4" d="M92.3,144.2c1.7,0,3.1-1.4,3.1-3.1c0-1.7-1.4-3.1-3.1-3.1c-1.7,0-3.1,1.4-3.1,3.1
		C89.2,142.8,90.6,144.2,92.3,144.2 M92.3,140c0.6,0,1,0.5,1,1c0,0.6-0.5,1-1,1c-0.6,0-1-0.5-1-1C91.3,140.5,91.7,140,92.3,140"/>
	<path id="XMLID_7732_" class="st4" d="M98.6,141h2.1c0-4.6-3.8-8.4-8.4-8.4v2.1C95.8,134.8,98.6,137.6,98.6,141"/>
	<path id="XMLID_7731_" class="st4" d="M103.8,141h2.1c0-7.5-6.1-13.6-13.6-13.6v2.1C98.7,129.5,103.8,134.7,103.8,141"/>
	<path id="XMLID_7730_" class="st4" d="M109.1,141h2.1c0-10.4-8.5-18.9-18.9-18.9v2.1C101.5,124.3,109.1,131.8,109.1,141"/>
	<path id="XMLID_7729_" class="st4" d="M114.3,141h2.1c0-13.3-10.8-24.1-24.1-24.1v2.1C104.4,119,114.3,128.9,114.3,141"/>
	<path id="XMLID_7723_" class="st4" d="M383.6,162h-49.3v-28.3c0-1.7-1.4-3.1-3.1-3.1c-1.7,0-3.1,1.4-3.1,3.1v28.4
		c-2.4,0.5-4.2,2.6-4.2,5.1v6.3c0,2.1,1.3,4,3.1,4.8v1.5c0,1.2,0.9,2.1,2.1,2.1h4.2c1.2,0,2.1-0.9,2.1-2.1v-1h40.9v1
		c0,1.2,0.9,2.1,2.1,2.1h4.2c1.2,0,2.1-0.9,2.1-2.1v-1.2c2.4-0.5,4.2-2.6,4.2-5.1v-6.3C388.9,164.4,386.5,162,383.6,162
		 M331.2,132.7c0.6,0,1,0.5,1,1V162h-2.1v-28.3C330.2,133.1,330.6,132.7,331.2,132.7 M333.3,179.8h-4.2v-1h4.2V179.8z M382.6,179.8
		h-4.2v-1h4.2V179.8z M386.8,173.5c0,1.7-1.4,3.1-3.1,3.1h-54.5c-1.7,0-3.1-1.4-3.1-3.1v-6.3c0-1.7,1.4-3.1,3.1-3.1h54.5
		c1.7,0,3.1,1.4,3.1,3.1V173.5z"/>
	<path id="XMLID_7717_" class="st4" d="M344.8,166.2h-14.7c-1.2,0-2.1,0.9-2.1,2.1v4.2c0,1.2,0.9,2.1,2.1,2.1h14.7
		c1.2,0,2.1-0.9,2.1-2.1v-4.2C346.9,167.1,346,166.2,344.8,166.2 M330.2,172.5v-4.2h14.7l0,4.2H330.2z"/>
	<rect id="XMLID_7716_" x="382.6" y="169.4" class="st4" width="2.1" height="2.1"/>
	<rect id="XMLID_7705_" x="378.4" y="169.4" class="st4" width="2.1" height="2.1"/>
	<rect id="XMLID_7700_" x="374.2" y="169.4" class="st4" width="2.1" height="2.1"/>
	<rect id="XMLID_7699_" x="370" y="169.4" class="st4" width="2.1" height="2.1"/>
	<path id="XMLID_6972_" class="st4" d="M344.8,144.2c1.7,0,3.1-1.4,3.1-3.1c0-1.7-1.4-3.1-3.1-3.1c-1.7,0-3.1,1.4-3.1,3.1
		C341.7,142.8,343.1,144.2,344.8,144.2 M344.8,140c0.6,0,1,0.5,1,1c0,0.6-0.5,1-1,1c-0.6,0-1-0.5-1-1
		C343.8,140.5,344.3,140,344.8,140"/>
	<path id="XMLID_6970_" class="st4" d="M351.1,141h2.1c0-4.6-3.8-8.4-8.4-8.4v2.1C348.3,134.8,351.1,137.6,351.1,141"/>
	<path id="XMLID_6969_" class="st4" d="M356.4,141h2.1c0-7.5-6.1-13.6-13.6-13.6v2.1C351.2,129.5,356.4,134.7,356.4,141"/>
	<path id="XMLID_6967_" class="st4" d="M361.6,141h2.1c0-10.4-8.5-18.9-18.9-18.9v2.1C354.1,124.3,361.6,131.8,361.6,141"/>
	<path id="XMLID_6966_" class="st4" d="M366.9,141h2.1c0-13.3-10.8-24.1-24.1-24.1v2.1C357,119,366.9,128.9,366.9,141"/>
</g>
</svg>
