<?xml version="1.0" encoding="utf-8"?>
<!-- Generator: Adobe Illustrator 19.0.0, SVG Export Plug-In . SVG Version: 6.00 Build 0)  -->
<svg version="1.1" id="Capa_1" xmlns="http://www.w3.org/2000/svg" xmlns:xlink="http://www.w3.org/1999/xlink" x="0px" y="0px"
	 viewBox="0 0 584.6 263.4" style="enable-background:new 0 0 584.6 263.4;" xml:space="preserve">
<style type="text/css">
	.st0{fill:#3D4752;}
	.st1{fill:#FFFFFF;}
	.st2{fill:none;stroke:#3D4752;stroke-width:1.676;stroke-miterlimit:10;}
	.st3{fill:none;stroke:#3D4752;stroke-width:1.6878;stroke-miterlimit:10;}
	.st4{fill:#454545;}
</style>
<g id="XMLID_7871_">
	<path id="XMLID_8007_" class="st0" d="M347.1,0h-26.6c-2.1,0-3.8,1.7-3.8,3.8v58.1c0,2.1,1.7,3.8,3.8,3.8h26.6
		c2.1,0,3.8-1.7,3.8-3.8V3.8C350.9,1.7,349.2,0,347.1,0 M349,61.9c0,1-0.8,1.8-1.8,1.8h-26.6c-1,0-1.8-0.8-1.8-1.8V3.8
		c0-1,0.8-1.8,1.8-1.8h26.6c1,0,1.8,0.8,1.8,1.8V61.9z M323.6,14.8h20.6c0.7,0,1.3-0.6,1.3-1.3V6.6c0-0.7-0.6-1.3-1.3-1.3h-20.6
		c-0.7,0-1.3,0.6-1.3,1.3v6.9C322.3,14.2,322.9,14.8,323.6,14.8 M340.2,12.5h3.9v0.9h-3.9V12.5z M323.6,28.4h20.6
		c0.7,0,1.3-0.6,1.3-1.3v-6.9c0-0.7-0.6-1.3-1.3-1.3h-20.6c-0.7,0-1.3,0.6-1.3,1.3v6.9C322.3,27.8,322.9,28.4,323.6,28.4
		 M339.9,26.6h3.9v0.9h-3.9V26.6z M333.9,51.5c-2.2,0-4.1,1.8-4.1,4.1c0,2.3,1.8,4.1,4.1,4.1c2.3,0,4.1-1.8,4.1-4.1
		C338,53.3,336.2,51.5,333.9,51.5 M333.9,57.7c-1.1,0-2.1-0.9-2.1-2.1c0-1.1,1-2.1,2.1-2.1c1.2,0,2.1,1,2.1,2.1
		C336,56.7,335.1,57.7,333.9,57.7 M322.3,44.6h23.2v2h-23.2V44.6z M322.3,39.6h23.2v2h-23.2V39.6z M322.3,34.3h23.2v2h-23.2V34.3z"
		/>
	<path id="XMLID_8006_" class="st1" d="M227.5,147.3c0-0.9,0.2-1.6,0.5-1.6h14.5c0.3,0,0.5,0.7,0.5,1.6v35.6c0,0.9-0.2,1.6-0.5,1.6
		h-14.4c-0.3,0-0.5-0.7-0.5-1.6L227.5,147.3z"/>
	<path id="XMLID_8005_" class="st2" d="M227.5,147.3c0-0.9,0.2-1.6,0.5-1.6h14.5c0.3,0,0.5,0.7,0.5,1.6v35.6c0,0.9-0.2,1.6-0.5,1.6
		h-14.4c-0.3,0-0.5-0.7-0.5-1.6L227.5,147.3z"/>
	<path id="XMLID_8004_" class="st1" d="M211.4,179c0-0.1,0.1-0.2,0.2-0.2l0,0h4.9c0.1,0,0.2,0.1,0.2,0.1v0v3.4
		c0,0.1-0.1,0.2-0.2,0.2h0h-4.9c-0.1,0-0.2-0.1-0.2-0.1v0L211.4,179z"/>
	<path id="XMLID_8003_" class="st2" d="M211.4,179c0-0.1,0.1-0.2,0.2-0.2l0,0h4.9c0.1,0,0.2,0.1,0.2,0.1v0v3.4
		c0,0.1-0.1,0.2-0.2,0.2h0h-4.9c-0.1,0-0.2-0.1-0.2-0.1v0L211.4,179z"/>
	<path id="XMLID_8002_" class="st0" d="M193.1,153.2c0-0.6,0.6-1.1,1.2-1.1h38.9c0.6,0,1.2,0.5,1.2,1.1v24.6c0,0.6-0.6,1.1-1.2,1.1
		h0h-38.9c-0.6,0-1.2-0.4-1.2-1.1c0,0,0,0,0,0V153.2z"/>
	<path id="XMLID_8001_" class="st2" d="M193.1,153.2c0-0.6,0.6-1.1,1.2-1.1h38.9c0.6,0,1.2,0.5,1.2,1.1v24.6c0,0.6-0.6,1.1-1.2,1.1
		h0h-38.9c-0.6,0-1.2-0.4-1.2-1.1c0,0,0,0,0,0V153.2z"/>
	<path id="XMLID_8000_" class="st1" d="M194.2,188.3h41.1c0.6,0,1-0.5,1-1.1c0-0.1,0-0.2-0.1-0.3l-2.2-4.7c-0.2-0.3-0.5-0.5-0.8-0.5
		l-37.6,0c-0.4,0-0.7,0.3-0.9,0.6l-1.4,4.7c-0.1,0.5,0.2,1,0.6,1.1C194.1,188.3,194.1,188.3,194.2,188.3"/>
	<path id="XMLID_7999_" class="st2" d="M194.2,188.3h41.1c0.6,0,1-0.5,1-1.1c0-0.1,0-0.2-0.1-0.3l-2.2-4.7c-0.2-0.3-0.5-0.5-0.8-0.5
		l-37.6,0c-0.4,0-0.7,0.3-0.9,0.6l-1.4,4.7c-0.1,0.5,0.2,1,0.6,1.1C194.1,188.3,194.1,188.3,194.2,188.3z"/>
	<path id="XMLID_7998_" class="st1" d="M196,156c0.1-0.5,0.5-0.9,1-0.9h33.2c0.5,0,1,0.3,1,0.9v19.1c0,0.5-0.5,0.9-1,0.9h0h-33.2
		c-0.5,0.1-1-0.3-1.1-0.8c0,0,0,0,0,0V156z"/>
	<path id="XMLID_7997_" class="st1" d="M164.8,84.6c0-0.9,0.2-1.6,0.5-1.6h14.5c0.3,0,0.5,0.7,0.5,1.6v35.6c0,0.9-0.2,1.6-0.5,1.6
		h-14.4c-0.3,0-0.5-0.7-0.5-1.6L164.8,84.6z"/>
	<path id="XMLID_7996_" class="st2" d="M164.8,84.6c0-0.9,0.2-1.6,0.5-1.6h14.5c0.3,0,0.5,0.7,0.5,1.6v35.6c0,0.9-0.2,1.6-0.5,1.6
		h-14.4c-0.3,0-0.5-0.7-0.5-1.6L164.8,84.6z"/>
	<path id="XMLID_7995_" class="st1" d="M148.8,116.3c0-0.1,0.1-0.2,0.2-0.2l0,0h4.9c0.1,0,0.2,0.1,0.2,0.1v0v3.4
		c0,0.1-0.1,0.2-0.2,0.2h0h-4.9c-0.1,0-0.2-0.1-0.2-0.1v0L148.8,116.3z"/>
	<path id="XMLID_7994_" class="st2" d="M148.8,116.3c0-0.1,0.1-0.2,0.2-0.2l0,0h4.9c0.1,0,0.2,0.1,0.2,0.1v0v3.4
		c0,0.1-0.1,0.2-0.2,0.2h0h-4.9c-0.1,0-0.2-0.1-0.2-0.1v0L148.8,116.3z"/>
	<path id="XMLID_7993_" class="st0" d="M130.4,90.5c0-0.6,0.6-1.1,1.2-1.1h38.9c0.6,0,1.2,0.5,1.2,1.1v24.6c0,0.6-0.6,1.1-1.2,1.1h0
		h-38.9c-0.6,0-1.2-0.4-1.2-1.1c0,0,0,0,0,0V90.5z"/>
	<path id="XMLID_7992_" class="st2" d="M130.4,90.5c0-0.6,0.6-1.1,1.2-1.1h38.9c0.6,0,1.2,0.5,1.2,1.1v24.6c0,0.6-0.6,1.1-1.2,1.1h0
		h-38.9c-0.6,0-1.2-0.4-1.2-1.1c0,0,0,0,0,0V90.5z"/>
	<path id="XMLID_7991_" class="st1" d="M131.5,125.7h41.1c0.6,0,1-0.5,1-1.1c0-0.1,0-0.2-0.1-0.3l-2.2-4.7c-0.2-0.3-0.5-0.5-0.8-0.5
		l-37.6,0c-0.4,0-0.7,0.3-0.9,0.6l-1.4,4.7c-0.1,0.5,0.2,1,0.6,1.1C131.4,125.7,131.5,125.7,131.5,125.7"/>
	<path id="XMLID_7990_" class="st2" d="M131.5,125.7h41.1c0.6,0,1-0.5,1-1.1c0-0.1,0-0.2-0.1-0.3l-2.2-4.7c-0.2-0.3-0.5-0.5-0.8-0.5
		l-37.6,0c-0.4,0-0.7,0.3-0.9,0.6l-1.4,4.7c-0.1,0.5,0.2,1,0.6,1.1C131.4,125.7,131.5,125.7,131.5,125.7z"/>
	<path id="XMLID_7989_" class="st1" d="M133.4,93.3c0.1-0.5,0.5-0.9,1-0.9h33.2c0.5,0,1,0.3,1,0.9v19.1c0,0.5-0.5,0.9-1,0.9h0h-33.2
		c-0.5,0.1-1-0.3-1.1-0.8c0,0,0,0,0,0V93.3z"/>
	<path id="XMLID_7988_" class="st1" d="M305.9,147.3c0-0.9,0.2-1.6,0.5-1.6h14.5c0.3,0,0.5,0.7,0.5,1.6v35.6c0,0.9-0.2,1.6-0.5,1.6
		h-14.4c-0.3,0-0.5-0.7-0.5-1.6L305.9,147.3z"/>
	<path id="XMLID_7987_" class="st2" d="M305.9,147.3c0-0.9,0.2-1.6,0.5-1.6h14.5c0.3,0,0.5,0.7,0.5,1.6v35.6c0,0.9-0.2,1.6-0.5,1.6
		h-14.4c-0.3,0-0.5-0.7-0.5-1.6L305.9,147.3z"/>
	<path id="XMLID_7986_" class="st1" d="M289.9,179c0-0.1,0.1-0.2,0.2-0.2l0,0h4.9c0.1,0,0.2,0.1,0.2,0.1v0v3.4
		c0,0.1-0.1,0.2-0.2,0.2h0H290c-0.1,0-0.2-0.1-0.2-0.1v0L289.9,179z"/>
	<path id="XMLID_7985_" class="st2" d="M289.9,179c0-0.1,0.1-0.2,0.2-0.2l0,0h4.9c0.1,0,0.2,0.1,0.2,0.1v0v3.4
		c0,0.1-0.1,0.2-0.2,0.2h0H290c-0.1,0-0.2-0.1-0.2-0.1v0L289.9,179z"/>
	<path id="XMLID_7984_" class="st0" d="M271.5,153.2c0-0.6,0.6-1.1,1.2-1.1h38.9c0.6,0,1.2,0.5,1.2,1.1v24.6c0,0.6-0.6,1.1-1.2,1.1
		h0h-38.9c-0.6,0-1.2-0.4-1.2-1.1c0,0,0,0,0,0V153.2z"/>
	<path id="XMLID_7983_" class="st2" d="M271.5,153.2c0-0.6,0.6-1.1,1.2-1.1h38.9c0.6,0,1.2,0.5,1.2,1.1v24.6c0,0.6-0.6,1.1-1.2,1.1
		h0h-38.9c-0.6,0-1.2-0.4-1.2-1.1c0,0,0,0,0,0V153.2z"/>
	<path id="XMLID_7982_" class="st1" d="M272.6,188.3h41.1c0.6,0,1-0.5,1-1.1c0-0.1,0-0.2-0.1-0.3l-2.2-4.7c-0.2-0.3-0.5-0.5-0.8-0.5
		l-37.6,0c-0.4,0-0.7,0.3-0.9,0.6l-1.4,4.7c-0.1,0.5,0.2,1,0.6,1.1C272.5,188.3,272.6,188.3,272.6,188.3"/>
	<path id="XMLID_7981_" class="st2" d="M272.6,188.3h41.1c0.6,0,1-0.5,1-1.1c0-0.1,0-0.2-0.1-0.3l-2.2-4.7c-0.2-0.3-0.5-0.5-0.8-0.5
		l-37.6,0c-0.4,0-0.7,0.3-0.9,0.6l-1.4,4.7c-0.1,0.5,0.2,1,0.6,1.1C272.5,188.3,272.6,188.3,272.6,188.3z"/>
	<path id="XMLID_7980_" class="st1" d="M274.5,156c0.1-0.5,0.5-0.9,1-0.9h33.2c0.5,0,1,0.3,1,0.9v19.1c0,0.5-0.5,0.9-1,0.9h0h-33.2
		c-0.5,0.1-1-0.3-1.1-0.8c0,0,0,0,0,0V156z"/>
	<path id="XMLID_7979_" class="st1" d="M35.3,21.6c0-0.9,0.2-1.6,0.5-1.6h14.5c0.3,0,0.5,0.7,0.5,1.6v35.6c0,0.9-0.2,1.6-0.5,1.6
		H35.7c-0.3,0-0.5-0.7-0.5-1.6L35.3,21.6z"/>
	<path id="XMLID_7978_" class="st2" d="M35.3,21.6c0-0.9,0.2-1.6,0.5-1.6h14.5c0.3,0,0.5,0.7,0.5,1.6v35.6c0,0.9-0.2,1.6-0.5,1.6
		H35.7c-0.3,0-0.5-0.7-0.5-1.6L35.3,21.6z"/>
	<path id="XMLID_7977_" class="st1" d="M19.2,53.3c0-0.1,0.1-0.2,0.2-0.2l0,0h4.9c0.1,0,0.2,0.1,0.2,0.1v0v3.4
		c0,0.1-0.1,0.2-0.2,0.2h0h-4.9c-0.1,0-0.2-0.1-0.2-0.1v0L19.2,53.3z"/>
	<path id="XMLID_7976_" class="st2" d="M19.2,53.3c0-0.1,0.1-0.2,0.2-0.2l0,0h4.9c0.1,0,0.2,0.1,0.2,0.1v0v3.4
		c0,0.1-0.1,0.2-0.2,0.2h0h-4.9c-0.1,0-0.2-0.1-0.2-0.1v0L19.2,53.3z"/>
	<path id="XMLID_7975_" class="st0" d="M0.8,27.5c0-0.6,0.6-1.1,1.2-1.1H41c0.6,0,1.2,0.5,1.2,1.1v24.6c0,0.6-0.6,1.1-1.2,1.1h0H2.1
		c-0.6,0-1.2-0.4-1.2-1.1c0,0,0,0,0,0V27.5z"/>
	<path id="XMLID_7974_" class="st2" d="M0.8,27.5c0-0.6,0.6-1.1,1.2-1.1H41c0.6,0,1.2,0.5,1.2,1.1v24.6c0,0.6-0.6,1.1-1.2,1.1h0H2.1
		c-0.6,0-1.2-0.4-1.2-1.1c0,0,0,0,0,0V27.5z"/>
	<path id="XMLID_7973_" class="st1" d="M2,62.7h41.1c0.6,0,1-0.5,1-1.1c0-0.1,0-0.2-0.1-0.3l-2.2-4.7c-0.2-0.3-0.5-0.5-0.8-0.5
		l-37.6,0c-0.4,0-0.7,0.3-0.9,0.6l-1.4,4.7c-0.1,0.5,0.2,1,0.6,1.1C1.8,62.7,1.9,62.7,2,62.7"/>
	<path id="XMLID_7972_" class="st2" d="M2,62.7h41.1c0.6,0,1-0.5,1-1.1c0-0.1,0-0.2-0.1-0.3l-2.2-4.7c-0.2-0.3-0.5-0.5-0.8-0.5
		l-37.6,0c-0.4,0-0.7,0.3-0.9,0.6l-1.4,4.7c-0.1,0.5,0.2,1,0.6,1.1C1.8,62.7,1.9,62.7,2,62.7z"/>
	<path id="XMLID_7971_" class="st1" d="M3.8,30.4c0.1-0.5,0.5-0.9,1-0.9H38c0.5,0,1,0.3,1,0.9v19.1c0,0.5-0.5,0.9-1,0.9h0H4.8
		c-0.5,0.1-1-0.3-1.1-0.8c0,0,0,0,0,0V30.4z"/>
	<path id="XMLID_7970_" class="st1" d="M113.7,21.6c0-0.9,0.2-1.6,0.5-1.6h14.5c0.3,0,0.5,0.7,0.5,1.6v35.6c0,0.9-0.2,1.6-0.5,1.6
		h-14.4c-0.3,0-0.5-0.7-0.5-1.6L113.7,21.6z"/>
	<path id="XMLID_7969_" class="st2" d="M113.7,21.6c0-0.9,0.2-1.6,0.5-1.6h14.5c0.3,0,0.5,0.7,0.5,1.6v35.6c0,0.9-0.2,1.6-0.5,1.6
		h-14.4c-0.3,0-0.5-0.7-0.5-1.6L113.7,21.6z"/>
	<path id="XMLID_7968_" class="st1" d="M97.6,53.3c0-0.1,0.1-0.2,0.2-0.2l0,0h4.9c0.1,0,0.2,0.1,0.2,0.1v0v3.4
		c0,0.1-0.1,0.2-0.2,0.2h0h-4.9c-0.1,0-0.2-0.1-0.2-0.1v0L97.6,53.3z"/>
	<path id="XMLID_7967_" class="st2" d="M97.6,53.3c0-0.1,0.1-0.2,0.2-0.2l0,0h4.9c0.1,0,0.2,0.1,0.2,0.1v0v3.4
		c0,0.1-0.1,0.2-0.2,0.2h0h-4.9c-0.1,0-0.2-0.1-0.2-0.1v0L97.6,53.3z"/>
	<path id="XMLID_7966_" class="st0" d="M79.3,27.5c0-0.6,0.6-1.1,1.2-1.1h38.9c0.6,0,1.2,0.5,1.2,1.1v24.6c0,0.6-0.6,1.1-1.2,1.1h0
		H80.5c-0.6,0-1.2-0.4-1.2-1.1c0,0,0,0,0,0V27.5z"/>
	<path id="XMLID_7965_" class="st2" d="M79.3,27.5c0-0.6,0.6-1.1,1.2-1.1h38.9c0.6,0,1.2,0.5,1.2,1.1v24.6c0,0.6-0.6,1.1-1.2,1.1h0
		H80.5c-0.6,0-1.2-0.4-1.2-1.1c0,0,0,0,0,0V27.5z"/>
	<path id="XMLID_7964_" class="st1" d="M80.4,62.7h41.1c0.6,0,1-0.5,1-1.1c0-0.1,0-0.2-0.1-0.3l-2.2-4.7c-0.2-0.3-0.5-0.5-0.8-0.5
		l-37.6,0c-0.4,0-0.7,0.3-0.9,0.6l-1.4,4.7c-0.1,0.5,0.2,1,0.6,1.1C80.3,62.7,80.3,62.7,80.4,62.7"/>
	<path id="XMLID_7963_" class="st2" d="M80.4,62.7h41.1c0.6,0,1-0.5,1-1.1c0-0.1,0-0.2-0.1-0.3l-2.2-4.7c-0.2-0.3-0.5-0.5-0.8-0.5
		l-37.6,0c-0.4,0-0.7,0.3-0.9,0.6l-1.4,4.7c-0.1,0.5,0.2,1,0.6,1.1C80.3,62.7,80.3,62.7,80.4,62.7z"/>
	<path id="XMLID_7962_" class="st1" d="M82.2,30.4c0.1-0.5,0.5-0.9,1-0.9h33.2c0.5,0,1,0.3,1,0.9v19.1c0,0.5-0.5,0.9-1,0.9h0H83.3
		c-0.5,0.1-1-0.3-1.1-0.8c0,0,0,0,0,0V30.4z"/>
	<line id="XMLID_7961_" class="st3" x1="255.6" y1="113.6" x2="212.4" y2="147.1"/>
	<polyline id="XMLID_7960_" class="st3" points="243.8,65.5 162.1,2 2.5,2 	"/>
	<line id="XMLID_7959_" class="st3" x1="317.1" y1="68.2" x2="282.2" y2="95.4"/>
	<line id="XMLID_7958_" class="st3" x1="262.8" y1="113.6" x2="301.9" y2="143.9"/>
	<path id="XMLID_7957_" class="st1" d="M435.4,66.5c0-0.9,0.2-1.6,0.5-1.6h14.5c0.3,0,0.5,0.7,0.5,1.6v35.6c0,0.9-0.2,1.6-0.5,1.6
		h-14.4c-0.3,0-0.5-0.7-0.5-1.6L435.4,66.5z"/>
	<path id="XMLID_7956_" class="st2" d="M435.4,66.5c0-0.9,0.2-1.6,0.5-1.6h14.5c0.3,0,0.5,0.7,0.5,1.6v35.6c0,0.9-0.2,1.6-0.5,1.6
		h-14.4c-0.3,0-0.5-0.7-0.5-1.6L435.4,66.5z"/>
	<path id="XMLID_7955_" class="st1" d="M419.4,98.3c0-0.1,0.1-0.2,0.2-0.2l0,0h4.9c0.1,0,0.2,0.1,0.2,0.1v0v3.4
		c0,0.1-0.1,0.2-0.2,0.2h0h-4.9c-0.1,0-0.2-0.1-0.2-0.1v0L419.4,98.3z"/>
	<path id="XMLID_7954_" class="st2" d="M419.4,98.3c0-0.1,0.1-0.2,0.2-0.2l0,0h4.9c0.1,0,0.2,0.1,0.2,0.1v0v3.4
		c0,0.1-0.1,0.2-0.2,0.2h0h-4.9c-0.1,0-0.2-0.1-0.2-0.1v0L419.4,98.3z"/>
	<path id="XMLID_7953_" class="st0" d="M401,72.5c0-0.6,0.6-1.1,1.2-1.1h38.9c0.6,0,1.2,0.5,1.2,1.1V97c0,0.6-0.6,1.1-1.2,1.1
		c0,0,0,0,0,0h-38.9c-0.6,0-1.2-0.4-1.2-1.1c0,0,0,0,0,0V72.5z"/>
	<path id="XMLID_7952_" class="st2" d="M401,72.5c0-0.6,0.6-1.1,1.2-1.1h38.9c0.6,0,1.2,0.5,1.2,1.1V97c0,0.6-0.6,1.1-1.2,1.1
		c0,0,0,0,0,0h-38.9c-0.6,0-1.2-0.4-1.2-1.1c0,0,0,0,0,0V72.5z"/>
	<path id="XMLID_7951_" class="st1" d="M402.1,107.6h41.1c0.6,0,1-0.5,1-1.1c0-0.1,0-0.2-0.1-0.3l-2.2-4.7c-0.2-0.3-0.5-0.5-0.8-0.5
		l-37.6,0.1c-0.4,0-0.7,0.3-0.9,0.6l-1.4,4.7c-0.1,0.5,0.2,1,0.6,1.1C402,107.6,402.1,107.6,402.1,107.6"/>
	<path id="XMLID_7950_" class="st2" d="M402.1,107.6h41.1c0.6,0,1-0.5,1-1.1c0-0.1,0-0.2-0.1-0.3l-2.2-4.7c-0.2-0.3-0.5-0.5-0.8-0.5
		l-37.6,0.1c-0.4,0-0.7,0.3-0.9,0.6l-1.4,4.7c-0.1,0.5,0.2,1,0.6,1.1C402,107.6,402.1,107.6,402.1,107.6z"/>
	<path id="XMLID_7949_" class="st1" d="M404,75.3c0.1-0.5,0.5-0.9,1-0.9h33.2c0.5,0,1,0.3,1,0.9v19.1c0,0.5-0.5,0.9-1,0.9
		c0,0,0,0,0,0H405c-0.5,0.1-1-0.3-1.1-0.8c0,0,0,0,0,0V75.3z"/>
	<path id="XMLID_7948_" class="st1" d="M526.2,64.9c0-0.9,0.2-1.6,0.5-1.6h14.5c0.3,0,0.5,0.7,0.5,1.6v35.6c0,0.9-0.2,1.6-0.5,1.6
		h-14.4c-0.3,0-0.5-0.7-0.5-1.6L526.2,64.9z"/>
	<path id="XMLID_7947_" class="st2" d="M526.2,64.9c0-0.9,0.2-1.6,0.5-1.6h14.5c0.3,0,0.5,0.7,0.5,1.6v35.6c0,0.9-0.2,1.6-0.5,1.6
		h-14.4c-0.3,0-0.5-0.7-0.5-1.6L526.2,64.9z"/>
	<path id="XMLID_7946_" class="st1" d="M510.2,96.6c0-0.1,0.1-0.2,0.2-0.2l0,0h4.9c0.1,0,0.2,0.1,0.2,0.1v0v3.4
		c0,0.1-0.1,0.2-0.2,0.2h0h-4.9c-0.1,0-0.2-0.1-0.2-0.1v0L510.2,96.6z"/>
	<path id="XMLID_7945_" class="st2" d="M510.2,96.6c0-0.1,0.1-0.2,0.2-0.2l0,0h4.9c0.1,0,0.2,0.1,0.2,0.1v0v3.4
		c0,0.1-0.1,0.2-0.2,0.2h0h-4.9c-0.1,0-0.2-0.1-0.2-0.1v0L510.2,96.6z"/>
	<path id="XMLID_7944_" class="st0" d="M491.8,70.8c0-0.6,0.6-1.1,1.2-1.1h38.9c0.6,0,1.2,0.5,1.2,1.1v24.6c0,0.6-0.6,1.1-1.2,1.1
		c0,0,0,0,0,0H493c-0.6,0-1.2-0.4-1.2-1.1c0,0,0,0,0,0V70.8z"/>
	<path id="XMLID_7943_" class="st2" d="M491.8,70.8c0-0.6,0.6-1.1,1.2-1.1h38.9c0.6,0,1.2,0.5,1.2,1.1v24.6c0,0.6-0.6,1.1-1.2,1.1
		c0,0,0,0,0,0H493c-0.6,0-1.2-0.4-1.2-1.1c0,0,0,0,0,0V70.8z"/>
	<path id="XMLID_7942_" class="st1" d="M492.9,105.9H534c0.6,0,1-0.5,1-1.1c0-0.1,0-0.2-0.1-0.3l-2.2-4.7c-0.2-0.3-0.5-0.5-0.8-0.5
		l-37.6,0.1c-0.4,0-0.7,0.3-0.9,0.6l-1.4,4.7c-0.1,0.5,0.2,1,0.6,1.1C492.8,105.9,492.8,105.9,492.9,105.9"/>
	<path id="XMLID_7941_" class="st2" d="M492.9,105.9H534c0.6,0,1-0.5,1-1.1c0-0.1,0-0.2-0.1-0.3l-2.2-4.7c-0.2-0.3-0.5-0.5-0.8-0.5
		l-37.6,0.1c-0.4,0-0.7,0.3-0.9,0.6l-1.4,4.7c-0.1,0.5,0.2,1,0.6,1.1C492.8,105.9,492.8,105.9,492.9,105.9z"/>
	<path id="XMLID_7940_" class="st1" d="M494.7,73.6c0.1-0.5,0.5-0.9,1-0.9H529c0.5,0,1,0.3,1,0.9v19.1c0,0.5-0.5,0.9-1,0.9l0,0
		h-33.2c-0.5,0.1-1-0.3-1.1-0.8c0,0,0,0,0,0V73.6z"/>
	<path id="XMLID_7939_" class="st1" d="M437.6,221.5c0-0.9,0.2-1.6,0.5-1.6h14.5c0.3,0,0.5,0.7,0.5,1.6v35.6c0,0.9-0.2,1.6-0.5,1.6
		H438c-0.3,0-0.5-0.7-0.5-1.6L437.6,221.5z"/>
	<path id="XMLID_7938_" class="st2" d="M437.6,221.5c0-0.9,0.2-1.6,0.5-1.6h14.5c0.3,0,0.5,0.7,0.5,1.6v35.6c0,0.9-0.2,1.6-0.5,1.6
		H438c-0.3,0-0.5-0.7-0.5-1.6L437.6,221.5z"/>
	<path id="XMLID_7937_" class="st1" d="M421.5,253.2c0-0.1,0.1-0.2,0.2-0.2h0h4.9c0.1,0,0.2,0.1,0.2,0.1v0v3.4
		c0,0.1-0.1,0.2-0.2,0.2h0h-4.9c-0.1,0-0.2-0.1-0.2-0.1v0L421.5,253.2z"/>
	<path id="XMLID_7936_" class="st2" d="M421.5,253.2c0-0.1,0.1-0.2,0.2-0.2h0h4.9c0.1,0,0.2,0.1,0.2,0.1v0v3.4
		c0,0.1-0.1,0.2-0.2,0.2h0h-4.9c-0.1,0-0.2-0.1-0.2-0.1v0L421.5,253.2z"/>
	<path id="XMLID_7935_" class="st0" d="M403.2,227.4c0-0.6,0.6-1.1,1.2-1.1h38.9c0.6,0,1.2,0.5,1.2,1.1V252c0,0.6-0.6,1.1-1.2,1.1
		c0,0,0,0,0,0h-38.9c-0.6,0-1.2-0.4-1.2-1.1c0,0,0,0,0,0V227.4z"/>
	<path id="XMLID_7934_" class="st2" d="M403.2,227.4c0-0.6,0.6-1.1,1.2-1.1h38.9c0.6,0,1.2,0.5,1.2,1.1V252c0,0.6-0.6,1.1-1.2,1.1
		c0,0,0,0,0,0h-38.9c-0.6,0-1.2-0.4-1.2-1.1c0,0,0,0,0,0V227.4z"/>
	<path id="XMLID_7933_" class="st1" d="M404.3,262.6h41.1c0.6,0,1-0.5,1-1.1c0-0.1,0-0.2-0.1-0.3l-2.2-4.7c-0.2-0.3-0.5-0.5-0.8-0.5
		l-37.6,0c-0.4,0-0.7,0.3-0.9,0.6l-1.4,4.7c-0.1,0.5,0.2,1,0.6,1.1C404.1,262.6,404.2,262.6,404.3,262.6"/>
	<path id="XMLID_7932_" class="st2" d="M404.3,262.6h41.1c0.6,0,1-0.5,1-1.1c0-0.1,0-0.2-0.1-0.3l-2.2-4.7c-0.2-0.3-0.5-0.5-0.8-0.5
		l-37.6,0c-0.4,0-0.7,0.3-0.9,0.6l-1.4,4.7c-0.1,0.5,0.2,1,0.6,1.1C404.1,262.6,404.2,262.6,404.3,262.6z"/>
	<path id="XMLID_7931_" class="st1" d="M406.1,230.3c0.1-0.5,0.5-0.9,1-0.9h33.2c0.5,0,1,0.3,1,0.9v19.1c0,0.5-0.5,0.9-1,0.9
		c0,0,0,0,0,0h-33.2c-0.5,0.1-1-0.3-1.1-0.8c0,0,0,0,0,0V230.3z"/>
	<path id="XMLID_7930_" class="st1" d="M528.3,219.8c0-0.9,0.2-1.6,0.5-1.6h14.5c0.3,0,0.5,0.7,0.5,1.6v35.6c0,0.9-0.2,1.6-0.5,1.6
		h-14.4c-0.3,0-0.5-0.7-0.5-1.6L528.3,219.8z"/>
	<path id="XMLID_7929_" class="st2" d="M528.3,219.8c0-0.9,0.2-1.6,0.5-1.6h14.5c0.3,0,0.5,0.7,0.5,1.6v35.6c0,0.9-0.2,1.6-0.5,1.6
		h-14.4c-0.3,0-0.5-0.7-0.5-1.6L528.3,219.8z"/>
	<path id="XMLID_7928_" class="st1" d="M512.3,251.5c0-0.1,0.1-0.2,0.2-0.2l0,0h4.9c0.1,0,0.2,0.1,0.2,0.1v0v3.4
		c0,0.1-0.1,0.2-0.2,0.2h0h-4.9c-0.1,0-0.2-0.1-0.2-0.1v0L512.3,251.5z"/>
	<path id="XMLID_7927_" class="st2" d="M512.3,251.5c0-0.1,0.1-0.2,0.2-0.2l0,0h4.9c0.1,0,0.2,0.1,0.2,0.1v0v3.4
		c0,0.1-0.1,0.2-0.2,0.2h0h-4.9c-0.1,0-0.2-0.1-0.2-0.1v0L512.3,251.5z"/>
	<path id="XMLID_7926_" class="st0" d="M493.9,225.7c0-0.6,0.6-1.1,1.2-1.1h38.9c0.6,0,1.2,0.5,1.2,1.1v24.6c0,0.6-0.6,1.1-1.2,1.1
		h0h-38.9c-0.6,0-1.2-0.4-1.2-1.1c0,0,0,0,0,0V225.7z"/>
	<path id="XMLID_7925_" class="st2" d="M493.9,225.7c0-0.6,0.6-1.1,1.2-1.1h38.9c0.6,0,1.2,0.5,1.2,1.1v24.6c0,0.6-0.6,1.1-1.2,1.1
		h0h-38.9c-0.6,0-1.2-0.4-1.2-1.1c0,0,0,0,0,0V225.7z"/>
	<path id="XMLID_7924_" class="st1" d="M495,260.9h41.1c0.6,0,1-0.5,1-1.1c0-0.1,0-0.2-0.1-0.3l-2.2-4.7c-0.2-0.3-0.5-0.5-0.8-0.5
		l-37.6,0c-0.4,0-0.7,0.3-0.9,0.6l-1.4,4.7c-0.1,0.5,0.2,1,0.6,1.1C494.9,260.9,495,260.9,495,260.9"/>
	<path id="XMLID_7923_" class="st2" d="M495,260.9h41.1c0.6,0,1-0.5,1-1.1c0-0.1,0-0.2-0.1-0.3l-2.2-4.7c-0.2-0.3-0.5-0.5-0.8-0.5
		l-37.6,0c-0.4,0-0.7,0.3-0.9,0.6l-1.4,4.7c-0.1,0.5,0.2,1,0.6,1.1C494.9,260.9,495,260.9,495,260.9z"/>
	<path id="XMLID_7922_" class="st1" d="M496.9,228.6c0.1-0.5,0.5-0.9,1-0.9h33.2c0.5,0,1,0.3,1,0.9v19.1c0,0.5-0.5,0.9-1,0.9h0
		h-33.2c-0.5,0.1-1-0.3-1.1-0.8c0,0,0,0,0,0V228.6z"/>
	<path id="XMLID_7921_" class="st1" d="M568.4,147.4c0-0.9,0.2-1.6,0.5-1.6h14.5c0.3,0,0.5,0.7,0.5,1.6V183c0,0.9-0.2,1.6-0.5,1.6
		h-14.4c-0.3,0-0.5-0.7-0.5-1.6L568.4,147.4z"/>
	<path id="XMLID_7920_" class="st2" d="M568.4,147.4c0-0.9,0.2-1.6,0.5-1.6h14.5c0.3,0,0.5,0.7,0.5,1.6V183c0,0.9-0.2,1.6-0.5,1.6
		h-14.4c-0.3,0-0.5-0.7-0.5-1.6L568.4,147.4z"/>
	<path id="XMLID_7919_" class="st1" d="M552.4,179.1c0-0.1,0.1-0.2,0.2-0.2l0,0h4.9c0.1,0,0.2,0.1,0.2,0.1v0v3.4
		c0,0.1-0.1,0.2-0.2,0.2h0h-4.9c-0.1,0-0.2-0.1-0.2-0.1v0L552.4,179.1z"/>
	<path id="XMLID_7918_" class="st2" d="M552.4,179.1c0-0.1,0.1-0.2,0.2-0.2l0,0h4.9c0.1,0,0.2,0.1,0.2,0.1v0v3.4
		c0,0.1-0.1,0.2-0.2,0.2h0h-4.9c-0.1,0-0.2-0.1-0.2-0.1v0L552.4,179.1z"/>
	<path id="XMLID_7917_" class="st0" d="M534,153.3c0-0.6,0.6-1.1,1.2-1.1h38.9c0.6,0,1.2,0.5,1.2,1.1v24.6c0,0.6-0.6,1.1-1.2,1.1
		c0,0,0,0,0,0h-38.9c-0.6,0-1.2-0.4-1.2-1.1c0,0,0,0,0,0V153.3z"/>
	<path id="XMLID_7916_" class="st2" d="M534,153.3c0-0.6,0.6-1.1,1.2-1.1h38.9c0.6,0,1.2,0.5,1.2,1.1v24.6c0,0.6-0.6,1.1-1.2,1.1
		c0,0,0,0,0,0h-38.9c-0.6,0-1.2-0.4-1.2-1.1c0,0,0,0,0,0V153.3z"/>
	<path id="XMLID_7915_" class="st1" d="M535.1,188.5h41.1c0.6,0,1-0.5,1-1.1c0-0.1,0-0.2-0.1-0.3l-2.2-4.7c-0.2-0.3-0.5-0.5-0.8-0.5
		l-37.6,0c-0.4,0-0.7,0.3-0.9,0.6l-1.4,4.7c-0.1,0.5,0.2,1,0.6,1.1C535,188.5,535.1,188.5,535.1,188.5"/>
	<path id="XMLID_7914_" class="st2" d="M535.1,188.5h41.1c0.6,0,1-0.5,1-1.1c0-0.1,0-0.2-0.1-0.3l-2.2-4.7c-0.2-0.3-0.5-0.5-0.8-0.5
		l-37.6,0c-0.4,0-0.7,0.3-0.9,0.6l-1.4,4.7c-0.1,0.5,0.2,1,0.6,1.1C535,188.5,535.1,188.5,535.1,188.5z"/>
	<path id="XMLID_7913_" class="st1" d="M537,156.1c0.1-0.5,0.5-0.9,1-0.9h33.2c0.5,0,1,0.3,1,0.9v19.1c0,0.5-0.5,0.9-1,0.9l0,0H538
		c-0.5,0.1-1-0.3-1.1-0.8c0,0,0,0,0,0V156.1z"/>
	<path id="XMLID_7912_" class="st1" d="M387.2,147.4c0-0.9,0.2-1.6,0.5-1.6h14.5c0.3,0,0.5,0.7,0.5,1.6V183c0,0.9-0.2,1.6-0.5,1.6
		h-14.4c-0.3,0-0.5-0.7-0.5-1.6L387.2,147.4z"/>
	<path id="XMLID_7911_" class="st2" d="M387.2,147.4c0-0.9,0.2-1.6,0.5-1.6h14.5c0.3,0,0.5,0.7,0.5,1.6V183c0,0.9-0.2,1.6-0.5,1.6
		h-14.4c-0.3,0-0.5-0.7-0.5-1.6L387.2,147.4z"/>
	<path id="XMLID_7910_" class="st1" d="M371.2,179.1c0-0.1,0.1-0.2,0.2-0.2h0h4.9c0.1,0,0.2,0.1,0.2,0.1v0v3.4
		c0,0.1-0.1,0.2-0.2,0.2h0h-4.9c-0.1,0-0.2-0.1-0.2-0.1v0L371.2,179.1z"/>
	<path id="XMLID_7909_" class="st2" d="M371.2,179.1c0-0.1,0.1-0.2,0.2-0.2h0h4.9c0.1,0,0.2,0.1,0.2,0.1v0v3.4
		c0,0.1-0.1,0.2-0.2,0.2h0h-4.9c-0.1,0-0.2-0.1-0.2-0.1v0L371.2,179.1z"/>
	<path id="XMLID_7908_" class="st0" d="M352.8,153.3c0-0.6,0.6-1.1,1.2-1.1H393c0.6,0,1.2,0.5,1.2,1.1v24.6c0,0.6-0.6,1.1-1.2,1.1
		c0,0,0,0,0,0h-38.9c-0.6,0-1.2-0.4-1.2-1.1c0,0,0,0,0,0V153.3z"/>
	<path id="XMLID_7907_" class="st2" d="M352.8,153.3c0-0.6,0.6-1.1,1.2-1.1H393c0.6,0,1.2,0.5,1.2,1.1v24.6c0,0.6-0.6,1.1-1.2,1.1
		c0,0,0,0,0,0h-38.9c-0.6,0-1.2-0.4-1.2-1.1c0,0,0,0,0,0V153.3z"/>
	<path id="XMLID_7906_" class="st1" d="M354,188.5h41.1c0.6,0,1-0.5,1-1.1c0-0.1,0-0.2-0.1-0.3l-2.2-4.7c-0.2-0.3-0.5-0.5-0.8-0.5
		l-37.6,0c-0.4,0-0.7,0.3-0.9,0.6l-1.4,4.7c-0.1,0.5,0.2,1,0.6,1.1C353.8,188.5,353.9,188.5,354,188.5"/>
	<path id="XMLID_7905_" class="st2" d="M354,188.5h41.1c0.6,0,1-0.5,1-1.1c0-0.1,0-0.2-0.1-0.3l-2.2-4.7c-0.2-0.3-0.5-0.5-0.8-0.5
		l-37.6,0c-0.4,0-0.7,0.3-0.9,0.6l-1.4,4.7c-0.1,0.5,0.2,1,0.6,1.1C353.8,188.5,353.9,188.5,354,188.5z"/>
	<path id="XMLID_7904_" class="st1" d="M355.8,156.1c0.1-0.5,0.5-0.9,1-0.9H390c0.5,0,1,0.3,1,0.9v19.1c0,0.5-0.5,0.9-1,0.9l0,0
		h-33.2c-0.5,0.1-1-0.3-1.1-0.8c0,0,0,0,0,0V156.1z"/>
	<path id="XMLID_7903_" class="st3" d="M546.1,212.8c3.6-5.7,6.6-11.9,8.8-18.4"/>
	<path id="XMLID_7902_" class="st3" d="M486.7,76.1c-5.5-1-11.2-1.6-17-1.6c-4.5,0-9,0.3-13.3,1"/>
	<path id="XMLID_7901_" class="st3" d="M557.5,143.8c-2.9-12.3-8.3-23.5-15.6-33.3"/>
	<path id="XMLID_7900_" class="st3" d="M458.9,254.3c3.5,0.4,7.2,0.6,10.8,0.6c6.2,0,12.2-0.6,18-1.8"/>
	<path id="XMLID_7899_" class="st3" d="M397.9,110.1c-6.5,8.5-11.5,18.2-14.6,28.7"/>
	<path id="XMLID_7898_" class="st3" d="M385.2,196.2c3.7,10,9.1,19.1,15.9,27"/>
	<line id="XMLID_7897_" class="st3" x1="352.1" y1="68.2" x2="387" y2="95.4"/>
	<line id="XMLID_7896_" class="st3" x1="235.4" y1="104" x2="187" y2="104"/>
	<line id="XMLID_7895_" class="st3" x1="22" y1="20.6" x2="36" y2="2"/>
	<line id="XMLID_7894_" class="st3" x1="100.5" y1="20.6" x2="114.5" y2="2"/>
	<path id="XMLID_7888_" class="st4" d="M276.5,99h-30.7V81.4c0-1.1-0.9-2-2-2c-1.1,0-2,0.9-2,2V99c-1.5,0.3-2.6,1.6-2.6,3.2v3.9
		c0,1.3,0.8,2.5,2,3v0.9c0,0.7,0.6,1.3,1.3,1.3h2.6c0.7,0,1.3-0.6,1.3-1.3v-0.7H272v0.7c0,0.7,0.6,1.3,1.3,1.3h2.6
		c0.7,0,1.3-0.6,1.3-1.3v-0.7c1.5-0.3,2.6-1.6,2.6-3.2v-3.9C279.8,100.4,278.3,99,276.5,99 M243.9,80.7c0.4,0,0.7,0.3,0.7,0.7V99
		h-1.3V81.4C243.3,81,243.6,80.7,243.9,80.7 M245.2,110.1h-2.6v-0.7h2.6V110.1z M275.9,110.1h-2.6v-0.7h2.6V110.1z M278.5,106.1
		c0,1.1-0.9,2-2,2h-33.9c-1.1,0-2-0.9-2-2v-3.9c0-1.1,0.9-2,2-2h33.9c1.1,0,2,0.9,2,2V106.1z"/>
	<path id="XMLID_7885_" class="st4" d="M252.4,101.6h-9.1c-0.7,0-1.3,0.6-1.3,1.3v2.6c0,0.7,0.6,1.3,1.3,1.3h9.1
		c0.7,0,1.3-0.6,1.3-1.3v-2.6C253.7,102.2,253.1,101.6,252.4,101.6 M243.3,105.5v-2.6h9.1l0,2.6H243.3z"/>
	<rect id="XMLID_7884_" x="275.9" y="103.5" class="st4" width="1.3" height="1.3"/>
	<rect id="XMLID_7883_" x="273.3" y="103.5" class="st4" width="1.3" height="1.3"/>
	<rect id="XMLID_7882_" x="270.7" y="103.5" class="st4" width="1.3" height="1.3"/>
	<rect id="XMLID_7881_" x="268" y="103.5" class="st4" width="1.3" height="1.3"/>
	<path id="XMLID_7878_" class="st4" d="M252.4,87.9c1.1,0,2-0.9,2-2c0-1.1-0.9-2-2-2c-1.1,0-2,0.9-2,2
		C250.4,87,251.3,87.9,252.4,87.9 M252.4,85.3c0.4,0,0.7,0.3,0.7,0.7c0,0.4-0.3,0.7-0.7,0.7c-0.4,0-0.7-0.3-0.7-0.7
		C251.7,85.6,252,85.3,252.4,85.3"/>
	<path id="XMLID_7877_" class="st4" d="M256.3,85.9h1.3c0-2.9-2.3-5.2-5.2-5.2V82C254.5,82,256.3,83.8,256.3,85.9"/>
	<path id="XMLID_7876_" class="st4" d="M259.6,85.9h1.3c0-4.7-3.8-8.5-8.5-8.5v1.3C256.3,78.7,259.6,82,259.6,85.9"/>
	<path id="XMLID_7875_" class="st4" d="M262.8,85.9h1.3c0-6.5-5.3-11.7-11.7-11.7v1.3C258.1,75.5,262.8,80.2,262.8,85.9"/>
	<path id="XMLID_7874_" class="st4" d="M266.1,85.9h1.3c0-8.3-6.7-15-15-15v1.3C259.9,72.2,266.1,78.4,266.1,85.9"/>
</g>
</svg>
