<?xml version="1.0" encoding="utf-8"?>
<!-- Generator: Adobe Illustrator 19.0.0, SVG Export Plug-In . SVG Version: 6.00 Build 0)  -->
<svg version="1.1" id="Capa_1" xmlns="http://www.w3.org/2000/svg" xmlns:xlink="http://www.w3.org/1999/xlink" x="0px" y="0px"
	 viewBox="0 0 369.9 287" style="enable-background:new 0 0 369.9 287;" xml:space="preserve">
<style type="text/css">
	.st0{fill:#FFFFFF;stroke:#3D4752;stroke-width:1.9131;stroke-miterlimit:10;}
	.st1{fill:#46515C;}
	.st2{fill:none;stroke:#0056A3;stroke-width:2.8986;stroke-miterlimit:10;}
	.st3{fill:#3D4752;stroke:#3D4752;stroke-width:1.849;stroke-miterlimit:10;}
	.st4{fill:#FFFFFF;stroke:#3D4752;stroke-width:1.849;stroke-miterlimit:10;}
	.st5{fill:#FFFFFF;}
	.st6{fill:#FFFFFF;stroke:#3D4752;stroke-width:1.5751;stroke-miterlimit:10;}
	.st7{fill:#3D4752;stroke:#3D4752;stroke-width:1.5751;stroke-miterlimit:10;}
	.st8{fill:#3D4752;}
	.st9{fill:#0056A3;}
	.st10{fill-rule:evenodd;clip-rule:evenodd;fill:#0056A3;}
	.st11{fill-rule:evenodd;clip-rule:evenodd;fill:#FFFFFF;}
	.st12{fill-rule:evenodd;clip-rule:evenodd;fill:none;stroke:#0056A3;stroke-width:2.8986;stroke-miterlimit:10;}
</style>
<g id="XMLID_16205_">
	<g id="XMLID_16206_">
		<path id="XMLID_16207_" class="st0" d="M320.6,124.6h20.9c0.8,0,1.5,0.7,1.5,1.6v12.5c0,0.8-0.6,1.5-1.5,1.6h-20.9
			c-0.8,0-1.5-0.7-1.5-1.6v-12.5C319.1,125.4,319.8,124.6,320.6,124.6z"/>
		<path id="XMLID_16208_" class="st0" d="M309.9,140.2c0-0.3,0.6-0.6,1.3-0.6h40.3c0.7,0,1.3,0.3,1.3,0.6v13.6
			c0,0.4-0.6,0.6-1.3,0.6h-40.3c-0.7,0-1.3-0.3-1.3-0.6L309.9,140.2L309.9,140.2z"/>
		<path id="XMLID_16209_" class="st1" d="M337.9,145.3c-0.1,1-1,1.7-2,1.6c-1.1,0-2-0.7-2-1.6s1-1.6,2-1.6S337.9,144.5,337.9,145.3z
			"/>
		<path id="XMLID_16210_" class="st1" d="M344.2,145.3c-0.2,1.1-1.3,1.8-2.4,1.6c-0.8-0.2-1.4-0.8-1.6-1.6c0-0.9,0.9-1.6,2-1.6
			C343.4,143.7,344.2,144.5,344.2,145.3z"/>
		<path id="XMLID_16211_" class="st1" d="M350.3,145.3c0,0.9-0.9,1.6-2,1.6c-1,0.1-1.8-0.6-2-1.6c0-0.9,0.9-1.6,2-1.6
			C349.5,143.7,350.3,144.5,350.3,145.3z"/>
		<path id="XMLID_16212_" class="st0" d="M318.9,150.7h24.8c0.7,0,1.3,0.6,1.3,1.3v5.7c0,0.7-0.6,1.3-1.3,1.3h-24.8
			c-0.7,0-1.3-0.6-1.3-1.3V152C317.6,151.3,318.2,150.7,318.9,150.7z"/>
	</g>
	<circle id="XMLID_16213_" class="st2" cx="38.5" cy="142.2" r="37.1"/>
	<g id="XMLID_16214_">
		<path id="XMLID_16215_" class="st3" d="M61.8,51h40.4c0.3,0,0.5,0.2,0.5,0.5v2.9c0,0.3-0.2,0.5-0.5,0.5H61.8
			c-0.3,0-0.5-0.2-0.5-0.5v-2.9C61.3,51.2,61.5,51,61.8,51z"/>
		<path id="XMLID_16216_" class="st4" d="M73.6,46.4h27.3c0.3,0,0.6,0.2,0.7,0.5l1,3.3c0.1,0.4-0.1,0.8-0.5,0.9c-0.1,0-0.1,0-0.2,0
			H74.6c-0.3,0-0.6-0.2-0.7-0.5l-1-3.3c-0.1-0.4,0.1-0.8,0.4-0.9C73.4,46.4,73.5,46.4,73.6,46.4z"/>
		<path id="XMLID_16217_" class="st4" d="M90.2,46.4h-27c-0.3,0-0.5,0.2-0.6,0.5l-1,3.3c-0.1,0.4,0.1,0.7,0.4,0.8c0.1,0,0.1,0,0.2,0
			h27c0.3,0,0.5-0.2,0.6-0.5l1-3.3c0.1-0.4-0.1-0.7-0.4-0.8C90.3,46.4,90.2,46.4,90.2,46.4z"/>
		<path id="XMLID_16218_" class="st3" d="M63.2,23.1c0-0.6,0.5-1,1.1-1h35.4c0.6,0,1.1,0.4,1.1,1v22.3c0,0.6-0.5,1-1.1,1
			c0,0,0,0,0,0H64.4c-0.6,0-1.1-0.4-1.1-1c0,0,0,0,0,0L63.2,23.1L63.2,23.1z"/>
		<path id="XMLID_16219_" class="st5" d="M68,25.6H96c0.8,0,1.5,1.2,1.5,2.7v12c0,1.5-0.7,2.7-1.5,2.7H68c-0.8,0-1.5-1.2-1.5-2.7
			v-12C66.5,26.8,67.2,25.6,68,25.6z"/>
		<rect id="XMLID_16220_" x="88.7" y="47.3" class="st5" width="5.5" height="2.8"/>
	</g>
	<circle id="XMLID_16221_" class="st2" cx="82" cy="38.5" r="37.1"/>
	<g id="XMLID_16224_">
		<path id="XMLID_16226_" class="st6" d="M298.7,20c0-0.8,0.2-1.5,0.4-1.5h13.6c0.2,0,0.4,0.7,0.4,1.5v33.4c0,0.9-0.2,1.5-0.4,1.5
			h-13.6c-0.2,0-0.4-0.6-0.4-1.5L298.7,20L298.7,20z"/>
		<path id="XMLID_16227_" class="st6" d="M283.7,49.8c0-0.1,0.1-0.1,0.1-0.1c0,0,0,0,0,0h4.6c0.1,0,0.1,0.1,0.1,0.1l0,0v3.2
			c0,0.1-0.1,0.1-0.1,0.1c0,0,0,0,0,0h-4.6c-0.1,0-0.1-0.1-0.1-0.1l0,0L283.7,49.8L283.7,49.8z"/>
		<path id="XMLID_16228_" class="st7" d="M266.4,25.5c0-0.6,0.5-1.1,1.1-1.1h36.6c0.6,0,1.1,0.4,1.1,1.1v23.1c0,0.6-0.5,1.1-1.1,1.1
			c0,0,0,0,0,0h-36.6c-0.6,0-1.1-0.4-1.1-1c0,0,0,0,0,0V25.5z"/>
		<path id="XMLID_16229_" class="st6" d="M267.5,58.6l38.7-0.1c0.5,0,0.8-0.4,0.8-0.9c0-0.1,0-0.2-0.1-0.4l-2.1-4.4
			c-0.1-0.3-0.4-0.5-0.8-0.5l-35.3,0c-0.4,0-0.7,0.2-0.8,0.6l-1.3,4.5c-0.1,0.4,0.1,0.9,0.6,1C267.3,58.6,267.4,58.6,267.5,58.6z"/>
		<path id="XMLID_16230_" class="st5" d="M269.2,28.2c0.1-0.5,0.5-0.8,1-0.8h31.2c0.5,0,0.9,0.3,1,0.8v17.9c0,0.5-0.5,0.9-1,0.8
			c0,0,0,0,0,0h-31.1c-0.5,0.1-0.9-0.3-1-0.8c0,0,0,0,0,0V28.2z"/>
	</g>
	<circle id="XMLID_16231_" class="st2" cx="289.8" cy="38.5" r="37.1"/>
	<g id="XMLID_16232_">
		<path id="XMLID_16233_" class="st8" d="M79.8,233.3h4.4c4.1,0,7.5,0.6,7.5,1.4v27.4c0,0.8-3.3,1.4-7.5,1.4h-4.4
			c-4.1,0-7.4-0.6-7.4-1.4v-27.4C72.4,233.9,75.7,233.3,79.8,233.3z"/>
		<path id="XMLID_16234_" class="st5" d="M75.4,235.7h13.2c0.9,0,1.5,0.7,1.5,1.5V256c0,0.9-0.7,1.5-1.5,1.5H75.4
			c-0.9,0-1.5-0.7-1.5-1.5v-18.7C73.9,236.4,74.6,235.7,75.4,235.7z"/>
	</g>
	<circle id="XMLID_16235_" class="st2" cx="82" cy="248.4" r="37.1"/>
	<g id="XMLID_16236_">
		<path id="XMLID_16237_" class="st8" d="M313,245.1v6.6c0,6.3-0.9,11.3-2.2,11.3h-42.1c-1.2,0-2.2-5.1-2.2-11.3v-6.6
			c0-6.2,1-11.3,2.2-11.3h42.1C312.1,233.8,313,238.9,313,245.1z"/>
		<path id="XMLID_16238_" class="st5" d="M309.2,238.5v19.9c0,1.3-1,2.3-2.3,2.3h-34.2c-1.3,0-2.3-1-2.3-2.3v-19.9
			c0-1.3,1-2.3,2.3-2.3h34.2C308.2,236.1,309.2,237.2,309.2,238.5z"/>
	</g>
	<circle id="XMLID_16239_" class="st2" cx="289.8" cy="248.4" r="37.1"/>
	<circle id="XMLID_16240_" class="st2" cx="331.3" cy="141.8" r="37.1"/>
	<path id="XMLID_16241_" class="st8" d="M38.5,105.2c5.2,0,10.1,1.1,14.6,3c3.3-12.6,8.2-24.5,14.7-35.4
		c-5.7-2.4-10.7-6.2-14.6-10.9c-8.1,13.3-14.3,27.9-18.1,43.4C36.2,105.2,37.4,105.2,38.5,105.2z"/>
	<path id="XMLID_16242_" class="st8" d="M331.3,104.8c1.2,0,2.5,0.1,3.7,0.2c-3.7-15-9.6-29.1-17.4-42c-4,4.6-9.1,8.2-14.9,10.3
		c6.2,10.6,11.1,22.2,14.3,34.3C321.4,105.8,326.3,104.8,331.3,104.8z"/>
	<path id="XMLID_16243_" class="st8" d="M316.8,223c8.3-13.5,14.6-28.4,18.5-44.3c-1.3,0.1-2.6,0.2-3.9,0.2c-5,0-9.8-1-14.1-2.8
		c-3.4,13.3-8.8,25.7-15.7,37.1C307.4,215.2,312.6,218.6,316.8,223z"/>
	<g id="XMLID_16244_">
		<path id="XMLID_16246_" class="st8" d="M69.1,213.7c-7.1-11.4-12.5-24-16-37.4c-4.5,1.9-9.4,3-14.6,3c-1.1,0-2.3-0.1-3.4-0.2
			c4,16.1,10.5,31.2,19,44.9C58.1,219.4,63.3,215.9,69.1,213.7z"/>
	</g>
	<g id="XMLID_16248_">
		<circle id="XMLID_16251_" class="st9" cx="100.4" cy="143.4" r="4.8"/>
		<circle id="XMLID_16252_" class="st9" cx="112.9" cy="143.4" r="4.8"/>
		<circle id="XMLID_16253_" class="st9" cx="125.4" cy="143.4" r="4.8"/>
		<circle id="XMLID_16254_" class="st9" cx="138" cy="143.4" r="4.8"/>
		<circle id="XMLID_16255_" class="st9" cx="87.9" cy="143.4" r="4.8"/>
	</g>
	<g id="XMLID_16256_">
		<circle id="XMLID_16257_" class="st9" cx="245.3" cy="143.4" r="4.8"/>
		<circle id="XMLID_16258_" class="st9" cx="257.8" cy="143.4" r="4.8"/>
		<circle id="XMLID_16259_" class="st9" cx="270.3" cy="143.4" r="4.8"/>
		<circle id="XMLID_16260_" class="st9" cx="282.8" cy="143.4" r="4.8"/>
		<circle id="XMLID_16261_" class="st9" cx="232.8" cy="143.4" r="4.8"/>
	</g>
	<g id="XMLID_16262_">
		<circle id="XMLID_16263_" class="st9" cx="125.3" cy="83.3" r="4.8"/>
		<circle id="XMLID_16576_" class="st9" cx="134.2" cy="92.2" r="4.8"/>
		<circle id="XMLID_16591_" class="st9" cx="143" cy="101" r="4.8"/>
		<circle id="XMLID_16592_" class="st9" cx="151.8" cy="109.8" r="4.8"/>
		<circle id="XMLID_16623_" class="st9" cx="116.5" cy="74.5" r="4.8"/>
	</g>
	<g id="XMLID_16624_">
		<circle id="XMLID_16705_" class="st9" cx="227.7" cy="185.7" r="4.8"/>
		<circle id="XMLID_16707_" class="st9" cx="236.6" cy="194.6" r="4.8"/>
		<circle id="XMLID_16709_" class="st9" cx="245.4" cy="203.4" r="4.8"/>
		<circle id="XMLID_16726_" class="st9" cx="254.2" cy="212.2" r="4.8"/>
		<circle id="XMLID_16727_" class="st9" cx="218.9" cy="176.9" r="4.8"/>
	</g>
	<g id="XMLID_16904_">
		<circle id="XMLID_16908_" class="st9" cx="245.4" cy="83.3" r="4.8"/>
		<circle id="XMLID_17338_" class="st9" cx="236.6" cy="92.2" r="4.8"/>
		<circle id="XMLID_17339_" class="st9" cx="227.7" cy="101" r="4.8"/>
		<circle id="XMLID_17341_" class="st9" cx="218.9" cy="109.8" r="4.8"/>
		<circle id="XMLID_17347_" class="st9" cx="254.2" cy="74.5" r="4.8"/>
	</g>
	<g id="XMLID_17348_">
		<circle id="XMLID_17351_" class="st9" cx="143" cy="185.7" r="4.8"/>
		<circle id="XMLID_17352_" class="st9" cx="134.2" cy="194.6" r="4.8"/>
		<circle id="XMLID_17357_" class="st9" cx="125.3" cy="203.4" r="4.8"/>
		<circle id="XMLID_17360_" class="st9" cx="116.5" cy="212.2" r="4.8"/>
		<circle id="XMLID_17445_" class="st9" cx="151.8" cy="176.9" r="4.8"/>
	</g>
	<g id="XMLID_17446_">
		<path id="XMLID_17448_" class="st10" d="M184.3,121.2c-7.9,0.2-13.4,4.4-14.1,12c-0.2,2.5-0.4,5.1-0.5,7.6v4.1
			c0.1,3.8,0.6,7.2,1.7,9.8c2.1,5,5.8,8,12.4,8.2h1c7.3-0.2,12-2.2,14.4-10.6c2.4-8.3,0.7-20.3-1.6-24.5c-2.2-4.2-5.7-6.5-12.5-6.6
			H184.3L184.3,121.2z"/>
		<path id="XMLID_17450_" class="st11" d="M194.5,149.3l-7.3-7.3l7.3-7.3l-10.7-10.6v14.4l-6.1-6.1l-2.2,2.2l7.4,7.4l-7.5,7.5
			l2.2,2.2l6.1-6.1v14.5L194.5,149.3L194.5,149.3z M186.5,131l3.7,3.8l-3.7,3.7V131L186.5,131z M186.5,145.4l3.7,3.8l-3.7,3.7V145.4
			L186.5,145.4z"/>
	</g>
	<circle id="XMLID_17775_" class="st12" cx="185.1" cy="142" r="35.6"/>
	<g id="XMLID_17789_">
		<path id="XMLID_17790_" class="st8" d="M52.6,123H38.9c-0.8,0-1.5,0.3-2.1,0.8c-0.6-0.5-1.3-0.8-2.1-0.8H21
			c-1.7,0-3.2,1.4-3.2,3.2v31.6c0,1.7,1.4,3.2,3.2,3.2h13.7c0.8,0,1.5-0.3,2.1-0.8c0.6,0.5,1.3,0.8,2.1,0.8h13.7
			c1.7,0,3.2-1.4,3.2-3.2v-31.6C55.8,124.4,54.4,123,52.6,123z M34.7,158.9H21c-0.6,0-1.1-0.5-1.1-1.1v-31.6c0-0.6,0.5-1.1,1.1-1.1
			h13.7c0.6,0,1.1,0.5,1.1,1.1v31.6C35.8,158.4,35.3,158.9,34.7,158.9z M53.7,157.8c0,0.6-0.5,1.1-1.1,1.1H38.9
			c-0.6,0-1.1-0.5-1.1-1.1v-31.6c0-0.6,0.5-1.1,1.1-1.1h13.7c0.6,0,1.1,0.5,1.1,1.1L53.7,157.8L53.7,157.8z"/>
		<path id="XMLID_17905_" class="st8" d="M33,144.8H22.7c-0.6,0-1.1,0.5-1.1,1.1v8c0,0.6,0.5,1.1,1.1,1.1H33c0.6,0,1.1-0.5,1.1-1.1
			v-8C34.1,145.3,33.6,144.8,33,144.8z M32,152.9h-8.3v-5.9H32V152.9z"/>
		<path id="XMLID_17918_" class="st8" d="M23.7,131.1h1.2c0.6,0,1.1-0.5,1.1-1.1s-0.5-1.1-1.1-1.1h-1.2c-0.6,0-1.1,0.5-1.1,1.1
			S23.2,131.1,23.7,131.1z"/>
		<path id="XMLID_17920_" class="st8" d="M30.8,131.1H32c0.6,0,1.1-0.5,1.1-1.1S32.6,129,32,129h-1.2c-0.6,0-1.1,0.5-1.1,1.1
			S30.2,131.1,30.8,131.1z"/>
		<path id="XMLID_17921_" class="st8" d="M23.7,135.4h1.2c0.6,0,1.1-0.5,1.1-1.1s-0.5-1.1-1.1-1.1h-1.2c-0.6,0-1.1,0.5-1.1,1.1
			S23.2,135.4,23.7,135.4z"/>
		<path id="XMLID_17923_" class="st8" d="M30.8,135.4H32c0.6,0,1.1-0.5,1.1-1.1s-0.5-1.1-1.1-1.1h-1.2c-0.6,0-1.1,0.5-1.1,1.1
			S30.2,135.4,30.8,135.4z"/>
		<path id="XMLID_17924_" class="st8" d="M23.7,139.7h1.2c0.6,0,1.1-0.5,1.1-1.1s-0.5-1.1-1.1-1.1h-1.2c-0.6,0-1.1,0.5-1.1,1.1
			S23.2,139.7,23.7,139.7z"/>
		<path id="XMLID_17925_" class="st8" d="M30.8,139.7H32c0.6,0,1.1-0.5,1.1-1.1s-0.5-1.1-1.1-1.1h-1.2c-0.6,0-1.1,0.5-1.1,1.1
			S30.2,139.7,30.8,139.7z"/>
		<path id="XMLID_17928_" class="st8" d="M45.8,137.5c2.6,0,4.7-2.1,4.7-4.7s-2.1-4.8-4.7-4.8c-2.6,0-4.7,2.1-4.7,4.7
			C41.1,135.4,43.2,137.5,45.8,137.5z M45.8,130.1c1.5,0,2.6,1.2,2.6,2.6s-1.2,2.6-2.6,2.6c-1.5,0-2.6-1.2-2.6-2.6
			S44.3,130.1,45.8,130.1z"/>
		<path id="XMLID_17931_" class="st8" d="M45.8,142.2c-3.8,0-6.9,3.1-6.9,6.9s3.1,6.9,6.9,6.9c3.8,0,6.9-3.1,6.9-6.9
			S49.6,142.2,45.8,142.2z M45.8,153.8c-2.6,0-4.8-2.1-4.8-4.8s2.1-4.8,4.8-4.8c2.6,0,4.8,2.1,4.8,4.8
			C50.6,151.7,48.4,153.8,45.8,153.8z"/>
		<path id="XMLID_17934_" class="st8" d="M45.8,146.4c-1.5,0-2.7,1.2-2.7,2.7c0,1.5,1.2,2.7,2.7,2.7s2.7-1.2,2.7-2.7
			C48.5,147.6,47.3,146.4,45.8,146.4z M45.8,149.6c-0.3,0-0.6-0.2-0.6-0.6c0-0.3,0.2-0.6,0.6-0.6c0.3,0,0.6,0.2,0.6,0.6
			C46.4,149.4,46.1,149.6,45.8,149.6z"/>
	</g>
</g>
</svg>
