<?xml version="1.0" encoding="utf-8"?>
<!-- Generator: Adobe Illustrator 19.0.0, SVG Export Plug-In . SVG Version: 6.00 Build 0)  -->
<svg version="1.1" id="Capa_1" xmlns="http://www.w3.org/2000/svg" xmlns:xlink="http://www.w3.org/1999/xlink" x="0px" y="0px"
	 viewBox="0 0 150 179.7" style="enable-background:new 0 0 150 179.7;" xml:space="preserve">
<style type="text/css">
	.st0{fill:#151515;}
	.st1{fill:#222222;}
	.st2{fill:#343434;}
	.st3{fill:#898989;}
	.st4{fill:#6F6E6E;}
	.st5{fill:#5C2B85;}
	.st6{fill:#DFDFDF;}
	.st7{fill:#1E1E1E;}
	.st8{fill:#373737;}
	.st9{fill:#ADACAC;}
</style>
<g id="XMLID_29_">
	<polygon id="XMLID_27_" class="st0" points="79.3,7.1 3.4,14.9 3.4,144.5 79.3,159.7 	"/>
	<polygon id="XMLID_16_" class="st1" points="7.5,165.6 84.8,179.7 76.9,170.3 0,157.4 	"/>
	<polygon id="XMLID_20_" class="st2" points="0,132 0,157.4 76.9,170.3 76.9,140.9 	"/>
	<polygon id="XMLID_19_" class="st3" points="88.3,0.8 88.3,93.4 80.5,101.9 76.9,102.2 76.9,0 	"/>
	<polyline id="XMLID_17_" class="st4" points="6.5,14.6 14.7,34.2 8.7,35.2 2.4,20.1 3.4,14.9 	"/>
	<polygon id="XMLID_18_" class="st2" points="72.9,0.5 72.9,7.4 62.7,29.7 11.3,33.2 3.4,14.9 3.4,8.8 0,9.2 0,98.1 76.9,102.2 
		76.9,0 	"/>
	<polygon id="XMLID_23_" class="st3" points="43.9,10.5 3.4,8.8 3.4,14.9 	"/>
	<path id="XMLID_22_" class="st5" d="M76.9,140.9"/>
	<polygon id="XMLID_24_" class="st6" points="76.9,140.9 76.9,170.3 84.8,179.7 79.3,140.7 	"/>
	<polygon id="XMLID_25_" class="st7" points="79.3,140.7 3.4,131.5 0,132 76.9,140.9 	"/>
	<polygon id="XMLID_26_" class="st8" points="141.9,175 84.8,179.7 79.3,140.7 79.3,102 80.5,101.9 88.3,93.4 88.3,0.8 139.4,3.7 
		139.4,92.3 147.3,100.5 147.3,138 	"/>
	<ellipse id="XMLID_15_" class="st6" cx="115.3" cy="134.7" rx="4.9" ry="5"/>
	<polygon id="XMLID_31_" class="st3" points="148.3,3.7 139.4,3.7 139.4,92.3 147.3,100.5 148.8,100.2 	"/>
	<polygon id="XMLID_28_" class="st6" points="149.5,134.7 150,164.9 141.9,175 147.3,134.8 	"/>
	<polygon id="XMLID_30_" class="st9" points="147.3,134.2 149.5,134.7 147.3,134.8 	"/>
</g>
</svg>
