<?xml version="1.0" encoding="utf-8"?>
<!-- Generator: Adobe Illustrator 19.0.0, SVG Export Plug-In . SVG Version: 6.00 Build 0)  -->
<svg version="1.1" id="Capa_1" xmlns="http://www.w3.org/2000/svg" xmlns:xlink="http://www.w3.org/1999/xlink" x="0px" y="0px"
	 viewBox="0 0 171.7 129.5" style="enable-background:new 0 0 171.7 129.5;" xml:space="preserve">
<style type="text/css">
	.st0{fill:#151515;}
	.st1{fill:#747474;}
	.st2{fill:#4E4E4E;}
	.st3{fill:#424242;}
	.st4{fill:#AEAEAE;}
	.st5{opacity:0.66;}
	.st6{fill:#222426;}
	.st7{opacity:0.38;fill:#E9E9E9;}
	.st8{opacity:0.38;}
	.st9{fill:#796E69;}
	.st10{opacity:0.42;fill:#111111;}
	.st11{fill:#1F1F21;}
	.st12{opacity:0.7;}
</style>
<g id="XMLID_304_">
	<path id="XMLID_302_" class="st0" d="M69.7,0L166.4,9c3.4,0.5,5.8,3.4,5.3,6.5l-10.3,67.2L54.6,67.9l9.7-64.2
		C64.7,1.3,67.1-0.3,69.7,0z"/>
	<path id="XMLID_301_" class="st1" d="M71.1,5.2l93.9,8.5c0.9,0.1,1.5,0.9,1.3,1.7l-9.1,59.8c-0.1,0.8-0.9,1.4-1.8,1.2L62.3,63.5
		c-0.9-0.1-1.5-0.9-1.3-1.7l8.3-55.4C69.4,5.7,70.2,5.1,71.1,5.2z"/>
	<path id="XMLID_300_" class="st2" d="M1,112.1l-1-3.3l16.7-9.4l37.7-29.8l87.4,12.2l19.9,0.1l1.2,3.7l-0.1,0c0.2,0.5,0,1.1-0.5,1.6
		l-50.9,40.1c-2.2,1.7-5.1,2.5-7.9,2.1l-101-15.8C1.6,113.5,1,112.8,1,112.1z"/>
	<g id="XMLID_523_">
		<path id="XMLID_299_" class="st3" d="M160.6,88.5l-49.2,38.8c-2.1,1.7-4.9,2.4-7.7,2.1l-2-6.6c1.7,0.2,2.8,0.2,3.2,0.1
			c3.4-0.7,33.9-25,52.1-39.7"/>
	</g>
	<path id="XMLID_298_" class="st4" d="M56.9,67l103.6,14.3c1.4,0.2,1.9,1.8,0.8,2.7l-50.9,40c-2.2,1.7-5.1,2.5-7.9,2.1l-101-15.8
		c-1.4-0.2-1.9-1.8-0.8-2.7l50.1-39C52.4,67.3,54.7,66.7,56.9,67z"/>
	<g id="XMLID_520_" class="st5">
		<path id="XMLID_297_" class="st6" d="M150.5,79.7l-2.4,1.9c-0.2,0.2-0.5,0.3-0.8,0.2L61.9,70c-0.4,0-0.5-0.5-0.2-0.7l2.6-2
			c0.1-0.1,0.2-0.1,0.3-0.1L150.2,79C150.6,79.1,150.7,79.5,150.5,79.7z"/>
	</g>
	<path id="XMLID_296_" class="st7" d="M56.2,100.9l27.3,3.8c0.6,0.1,0.7,0.7,0.3,1l-13.7,10.8c-0.8,0.6-1.8,0.9-2.9,0.8l-25.9-3.6
		c-0.6-0.1-0.7-0.7-0.3-1L55.7,101C55.8,100.9,56,100.9,56.2,100.9z"/>
	<g id="XMLID_517_" class="st8">
		<path id="XMLID_295_" class="st9" d="M42.6,111.5c0,0,2-1.5,5-3.9c1.5-1.2,3.2-2.5,5.1-4c0.9-0.7,1.9-1.5,2.9-2.3l0.2-0.1l0.1-0.1
			c0,0,0,0,0,0l0,0c0.1,0,0.2-0.1,0.3,0c0.3,0,0.6,0.1,1,0.1c0.6,0.1,1.3,0.2,1.9,0.3c2.6,0.4,5.2,0.7,7.6,1
			c2.4,0.3,4.7,0.6,6.6,0.9c3.9,0.5,6.5,0.8,6.5,0.8c0.1,0,0.1,0,0.1-0.1c0-0.1,0-0.1-0.1-0.1c0,0-2.6-0.4-6.5-1
			c-1.9-0.3-4.2-0.6-6.6-1c-2.4-0.3-5-0.7-7.6-1.1c-0.6-0.1-1.3-0.2-1.9-0.3c-0.3,0-0.6-0.1-1-0.1c-0.2,0-0.5,0-0.6,0.1
			c0,0,0,0-0.1,0c0,0,0,0-0.1,0l-0.1,0.1l-0.2,0.1c-1,0.8-1.9,1.5-2.9,2.3c-1.8,1.5-3.6,2.9-5.1,4c-2.9,2.4-4.9,4-4.9,4
			c-0.1,0-0.1,0.1,0,0.2C42.4,111.6,42.5,111.6,42.6,111.5z"/>
	</g>
	<path id="XMLID_294_" class="st10" d="M159.8,86.6l0.4,1.2c0,0.1,0,0.2-0.1,0.2l-2.4,1.9c-0.1,0.1-0.3,0-0.4-0.1l-0.4-1.2
		c0-0.1,0-0.2,0.1-0.2l2.4-1.9C159.6,86.4,159.8,86.4,159.8,86.6z"/>
	<path id="XMLID_293_" class="st10" d="M154.6,90.6l0.4,1.2c0,0.1,0,0.2-0.1,0.2l-2.4,1.9c-0.1,0.1-0.3,0-0.4-0.1l-0.4-1.2
		c0-0.1,0-0.2,0.1-0.2l2.4-1.9C154.3,90.4,154.5,90.5,154.6,90.6z"/>
	<path id="XMLID_292_" class="st10" d="M149.7,94.5l0.4,1.2c0,0.1,0,0.2-0.1,0.2l-2.4,1.9c-0.1,0.1-0.3,0-0.4-0.1l-0.4-1.2
		c0-0.1,0-0.2,0.1-0.2l2.4-1.9C149.4,94.3,149.6,94.4,149.7,94.5z"/>
	<g id="XMLID_444_">
		<path id="XMLID_291_" class="st11" d="M37.2,95.5l3.3,0.5c0.6,0.1,1.4-0.1,1.9-0.5l0.5-0.4c0.1-0.1,0.2-0.2,0.2-0.3
			c0.2,0.1,0.2,0.4-0.1,0.6l-0.5,0.4c-0.5,0.4-1.3,0.6-1.9,0.5l-3.3-0.5c-0.4,0-0.5-0.2-0.4-0.4C36.9,95.5,37,95.5,37.2,95.5z"/>
		<path id="XMLID_290_" class="st11" d="M60.1,99l30.9,4.3c0.6,0.1,1.4-0.1,1.8-0.5l3.4-2.7c0.1-0.1,0.2-0.2,0.2-0.3
			c0.2,0.2,0.2,0.4-0.1,0.6l-3.4,2.7c-0.4,0.3-1.3,0.6-1.8,0.5l-30.9-4.3c-0.4-0.1-0.6-0.2-0.5-0.5C59.8,98.9,59.9,98.9,60.1,99z"/>
		<path id="XMLID_289_" class="st11" d="M43.8,96.7l3.7,0.5c0.6,0.1,1.4-0.1,1.8-0.5l3.4-2.7c0.1-0.1,0.2-0.2,0.2-0.3
			c0.2,0.2,0.2,0.4-0.1,0.6l-3.4,2.7c-0.4,0.3-1.3,0.6-1.8,0.5L43.9,97c-0.4-0.1-0.6-0.2-0.5-0.5C43.5,96.6,43.6,96.7,43.8,96.7z"/>
		<path id="XMLID_288_" class="st11" d="M94.7,103.8l4.7,0.7c0.6,0.1,1.4-0.1,1.8-0.5l3.4-2.7c0.1-0.1,0.2-0.2,0.2-0.3
			c0.2,0.2,0.2,0.4-0.1,0.6l-3.4,2.7c-0.4,0.3-1.3,0.6-1.8,0.5l-4.7-0.7c-0.4-0.1-0.6-0.2-0.5-0.5C94.4,103.7,94.6,103.7,94.7,103.8
			z"/>
		<path id="XMLID_287_" class="st11" d="M51.3,97.8l4.9,0.7c0.6,0.1,1.4-0.1,1.8-0.5l3.4-2.7c0.1-0.1,0.2-0.2,0.2-0.3
			c0.2,0.2,0.2,0.4-0.1,0.6l-3.4,2.7c-0.4,0.3-1.3,0.6-1.8,0.5l-4.9-0.7C51,98,50.9,97.8,51,97.6C51,97.7,51.2,97.7,51.3,97.8z"/>
		<path id="XMLID_286_" class="st11" d="M121.6,101.5c0.1,0.1,0.2,0.1,0.4,0.1l7.7,1.1c0.6,0.1,1.4-0.1,1.8-0.5l2.8-2.2
			c0.1-0.1,0.2-0.2,0.2-0.3c0.2,0.2,0.2,0.4-0.1,0.6l-2.8,2.2c-0.4,0.3-1.3,0.6-1.8,0.5l-7.7-1.1
			C121.7,101.9,121.5,101.7,121.6,101.5z"/>
		<path id="XMLID_285_" class="st11" d="M103.3,105l4.1,0.6c0.6,0.1,1.4-0.1,1.8-0.5l3.4-2.7c0.1-0.1,0.2-0.2,0.2-0.3
			c0.2,0.2,0.2,0.4-0.1,0.6l-3.4,2.7c-0.4,0.3-1.3,0.6-1.8,0.5l-4.1-0.6c-0.4-0.1-0.6-0.2-0.5-0.5C103,104.9,103.1,104.9,103.3,105z
			"/>
		<path id="XMLID_284_" class="st11" d="M111.2,106l3.6,0.5c0.6,0.1,1.4-0.1,1.8-0.5l3.4-2.7c0.1-0.1,0.2-0.2,0.2-0.3
			c0.2,0.2,0.2,0.4-0.1,0.6l-3.4,2.7c-0.4,0.3-1.3,0.6-1.8,0.5l-3.6-0.5c-0.4-0.1-0.6-0.2-0.5-0.5C110.9,106,111,106,111.2,106z"/>
		<path id="XMLID_283_" class="st11" d="M118.5,107.1l4.8,0.7c0.6,0.1,1.4-0.1,1.8-0.5l3.4-2.7c0.1-0.1,0.2-0.2,0.2-0.3
			c0.2,0.2,0.2,0.4-0.1,0.6l-3.4,2.7c-0.4,0.3-1.3,0.6-1.8,0.5l-4.8-0.7c-0.4-0.1-0.6-0.2-0.5-0.5C118.2,107,118.4,107,118.5,107.1z
			"/>
		<path id="XMLID_282_" class="st11" d="M83.6,83.4l-1.9,1.5c-0.4,0.3-0.9,0.5-0.9,0.5c0,0-0.5,0.2-1.1,0.1L75.7,85
			c-0.4-0.1-0.6-0.2-0.5-0.5c0.1,0.1,0.2,0.1,0.4,0.1l3.9,0.5c0.6,0.1,1.1-0.1,1.1-0.1c0,0,0.4-0.2,0.9-0.5l1.9-1.5
			c0.1-0.1,0.2-0.2,0.2-0.3C83.9,83,83.9,83.2,83.6,83.4z"/>
		<path id="XMLID_281_" class="st11" d="M34.9,95.2c0.6,0.1,1.5-0.2,2-0.5l0.6-0.5c0.1-0.1,0.1-0.1,0.2-0.2c0.1,0,0.1,0.1,0.1,0.2
			c-0.1,0.1-0.2,0.1-0.3,0.2L37,94.9c-0.2,0.1-0.2,0.2-0.2,0.3c-0.5,0.3-1.2,0.4-1.7,0.3l-3.4-0.5c-0.3,0-0.5-0.2-0.4-0.4
			c0.1,0,0.1,0.1,0.3,0.1L34.9,95.2z"/>
		<path id="XMLID_280_" class="st11" d="M91.6,84.5l-2.1,1.6c-0.4,0.3-0.9,0.5-0.9,0.5c0,0-0.4,0.1-1,0l-4.2-0.6
			C83,86,82.9,85.9,83,85.6c0.1,0.1,0.2,0.1,0.4,0.1l4.2,0.6c0.6,0.1,1,0,1,0c0,0,0.4-0.1,0.9-0.5l2.1-1.6c0.1-0.1,0.2-0.2,0.2-0.3
			C91.9,84.1,91.9,84.3,91.6,84.5z"/>
		<path id="XMLID_279_" class="st11" d="M99.6,85.6l-2.1,1.7c-0.4,0.3-1.3,0.6-1.8,0.5l-4.2-0.6c-0.4-0.1-0.6-0.2-0.5-0.5
			c0.1,0.1,0.2,0.1,0.4,0.1l4.2,0.6c0.6,0.1,1.4-0.1,1.8-0.5l2.1-1.7c0.1-0.1,0.2-0.2,0.2-0.3C99.9,85.2,99.9,85.4,99.6,85.6z"/>
		<path id="XMLID_278_" class="st11" d="M59.3,82.5l4.2,0.6c0.6,0.1,1.4-0.1,1.8-0.5l2.1-1.7c0.1-0.1,0.2-0.2,0.2-0.3
			c0.2,0.2,0.2,0.4-0.1,0.6l-2.1,1.7c-0.4,0.3-1.3,0.6-1.8,0.5l-4.2-0.6c-0.4-0.1-0.6-0.2-0.5-0.5C59,82.4,59.1,82.4,59.3,82.5z"/>
		<path id="XMLID_277_" class="st11" d="M75.9,82.4L73.8,84c-0.4,0.3-0.9,0.4-0.9,0.4c0,0-0.3,0.1-0.9,0.1l-4.5-0.6
			c-0.4-0.1-0.6-0.2-0.5-0.5c0.1,0.1,0.2,0.1,0.4,0.1l4.5,0.6c0.6,0.1,0.9-0.1,0.9-0.1c0,0,0.5-0.1,0.9-0.4l2.1-1.6
			c0.1-0.1,0.2-0.2,0.2-0.3C76.2,81.9,76.2,82.1,75.9,82.4z"/>
		<path id="XMLID_276_" class="st11" d="M26,94c0,0,0.1,0,0.2,0l3.2,0.4c0.6,0.1,1.5-0.1,1.9-0.5l0.8-0.6c0,0,0,0,0.1-0.1
			c0.1,0,0.2,0.1,0.2,0.2c-0.1,0.1-0.3,0.1-0.4,0.2l-0.6,0.5c-0.1,0.1-0.2,0.2-0.2,0.2c-0.5,0.3-1.2,0.4-1.7,0.4l-3.2-0.4
			C26,94.3,25.9,94.1,26,94z"/>
		<path id="XMLID_275_" class="st11" d="M51.6,86.6l4.6,0.6c0.6,0.1,1.4-0.1,1.8-0.5l2.7-2.2c0.1-0.1,0.2-0.2,0.2-0.3
			c0.2,0.2,0.2,0.4-0.1,0.6l-2.7,2.2c-0.4,0.3-1.3,0.6-1.8,0.5L51.7,87c-0.4-0.1-0.6-0.2-0.5-0.5C51.3,86.6,51.4,86.6,51.6,86.6z"/>
		<path id="XMLID_274_" class="st11" d="M103.4,77.8l-0.9,0.7c-0.4,0.3-1.3,0.6-1.8,0.5l-5.2-0.7c-0.4-0.1-0.6-0.2-0.5-0.5
			c0.1,0.1,0.2,0.1,0.4,0.1l5.2,0.7c0.6,0.1,1.4-0.1,1.8-0.5l0.9-0.7c0.1-0.1,0.2-0.2,0.2-0.3C103.8,77.3,103.7,77.6,103.4,77.8z"/>
		<path id="XMLID_273_" class="st11" d="M78,74.3L77.1,75c-0.4,0.3-1.3,0.6-1.8,0.5L70,74.8c-0.4-0.1-0.6-0.2-0.5-0.5
			c0.1,0.1,0.2,0.1,0.4,0.1l5.3,0.7c0.6,0.1,1.4-0.1,1.8-0.5l0.9-0.7c0.1-0.1,0.2-0.2,0.2-0.3C78.4,73.8,78.3,74,78,74.3z"/>
		<path id="XMLID_272_" class="st11" d="M61,71.9l-0.9,0.7c-0.4,0.3-1.3,0.6-1.8,0.5l-4.8-0.7c-0.4-0.1-0.6-0.2-0.5-0.5
			c0.1,0.1,0.2,0.1,0.4,0.1l4.8,0.7c0.6,0.1,1.4-0.1,1.8-0.5l0.9-0.7c0.1-0.1,0.2-0.2,0.2-0.3C61.3,71.4,61.3,71.7,61,71.9z"/>
		<path id="XMLID_271_" class="st11" d="M68.9,73L68,73.8c-0.4,0.3-1.3,0.6-1.8,0.5L62,73.7c-0.4-0.1-0.6-0.2-0.5-0.5
			c0.1,0.1,0.2,0.1,0.4,0.1l4.1,0.6c0.6,0.1,1.4-0.1,1.8-0.5l0.9-0.7c0.1-0.1,0.2-0.2,0.2-0.3C69.3,72.5,69.2,72.8,68.9,73z"/>
		<path id="XMLID_270_" class="st11" d="M86.3,75.4l-0.9,0.7c-0.4,0.3-1.3,0.6-1.8,0.5L79,76c-0.4-0.1-0.6-0.2-0.5-0.5
			c0.1,0.1,0.2,0.1,0.4,0.1l4.5,0.6c0.6,0.1,1.4-0.1,1.8-0.5l0.9-0.7c0.1-0.1,0.2-0.2,0.2-0.3C86.6,74.9,86.6,75.2,86.3,75.4z"/>
		<path id="XMLID_269_" class="st11" d="M94.5,76.6l-0.9,0.7c-0.4,0.3-1.3,0.6-1.8,0.5l-4.3-0.6c-0.4-0.1-0.6-0.2-0.5-0.5
			c0.1,0.1,0.2,0.1,0.4,0.1l4.3,0.6c0.6,0.1,1.4-0.1,1.8-0.5l0.9-0.7c0.1-0.1,0.2-0.2,0.2-0.3C94.8,76.1,94.8,76.3,94.5,76.6z"/>
		<path id="XMLID_268_" class="st11" d="M31.8,89.2l14.3,2c0.6,0.1,1-0.1,1-0.1c0,0,0.5-0.1,0.9-0.5l2.7-2.1
			c0.1-0.1,0.2-0.2,0.2-0.3c0.2,0.2,0.2,0.4-0.1,0.6l-2.7,2.1c-0.4,0.3-0.9,0.5-0.9,0.5c0,0-0.4,0.2-1,0.1l-14.3-2
			c-0.4-0.1-0.6-0.2-0.5-0.5C31.5,89.1,31.6,89.1,31.8,89.2z"/>
		<path id="XMLID_267_" class="st11" d="M123.7,96.5c0.1,0.1,0.2,0.1,0.4,0.1l11.2,1.5c0.6,0.1,1.1-0.1,1.1,0c0,0,0.4-0.1,0.8-0.4
			l2.7-2.2c0.1-0.1,0.2-0.2,0.2-0.3c0.2,0.2,0.2,0.4-0.1,0.6l-2.7,2.2c-0.4,0.3-0.8,0.4-0.8,0.4c0,0-0.5,0.1-1.1,0L124.2,97
			C123.8,96.9,123.6,96.7,123.7,96.5z"/>
		<path id="XMLID_266_" class="st11" d="M48.2,76.3l9.7,1.3c0.6,0.1,1.4-0.1,1.8-0.5l2.1-1.8c0.1-0.1,0.2-0.2,0.2-0.3
			c0.2,0.2,0.2,0.4-0.1,0.6l-2.1,1.8c-0.4,0.4-1.3,0.6-1.8,0.5l-9.7-1.3c-0.4-0.1-0.6-0.2-0.5-0.5C47.9,76.2,48,76.2,48.2,76.3z"/>
		<path id="XMLID_265_" class="st11" d="M37.5,84.7l1.6,0.2c0.6,0.1,1.4-0.1,1.8-0.5l3.8-3c0.4-0.3,0.9-0.7,1.3-0.8
			c0.3,0,0.7,0.1,1.3,0.2c0,0,0.8,0.1,1.2,0c0.4-0.1,0.4-0.2,0.9-0.5l2-1.6c0.1-0.1,0.2-0.2,0.2-0.3c0.2,0.2,0.2,0.4-0.1,0.6l-2,1.6
			c-0.4,0.3-0.5,0.4-0.9,0.5c-0.4,0.1-1.2,0-1.2,0c-0.6-0.1-0.9-0.2-1.3-0.2c-0.3,0-0.8,0.4-1.3,0.8l-3.8,3
			c-0.4,0.3-1.3,0.6-1.8,0.5L37.6,85c-0.4-0.1-0.6-0.2-0.5-0.5C37.2,84.6,37.3,84.7,37.5,84.7z"/>
		<path id="XMLID_264_" class="st11" d="M144.8,83.5l-0.9,0.7c-0.4,0.3-1.3,0.6-1.8,0.5l-4.5-0.6c-0.4-0.1-0.6-0.2-0.5-0.5
			c0.1,0.1,0.2,0.1,0.4,0.1l4.5,0.6c0.6,0.1,1.4-0.1,1.8-0.5l0.9-0.7c0.1-0.1,0.2-0.2,0.2-0.3C145.1,83,145.1,83.3,144.8,83.5z"/>
		<path id="XMLID_263_" class="st11" d="M141.3,89c0.1,0.1,0.2,0.1,0.4,0.1l4.4,0.6c0.6,0.1,1.4-0.1,1.8-0.5l2.2-1.8
			c0.1-0.1,0.2-0.2,0.2-0.3c0.2,0.2,0.2,0.4-0.1,0.6l-2.2,1.8c-0.4,0.3-1.3,0.6-1.8,0.5l-4.4-0.6C141.4,89.5,141.2,89.3,141.3,89z"
			/>
		<path id="XMLID_262_" class="st11" d="M136.5,82.4l-0.9,0.7c-0.4,0.3-1.3,0.6-1.8,0.5l-4.5-0.6c-0.4-0.1-0.6-0.2-0.5-0.5
			c0.1,0.1,0.2,0.1,0.4,0.1l4.5,0.6c0.6,0.1,1.4-0.1,1.8-0.5l0.9-0.7c0.1-0.1,0.2-0.2,0.2-0.3C136.8,81.9,136.8,82.1,136.5,82.4z"/>
		<path id="XMLID_261_" class="st11" d="M107.6,86.8l-2.1,1.7c-0.4,0.3-1.3,0.6-1.8,0.5l-4.2-0.6c-0.4-0.1-0.6-0.2-0.5-0.5
			c0.1,0.1,0.2,0.1,0.4,0.1l4.2,0.6c0.6,0.1,1.4-0.1,1.8-0.5l2.1-1.7c0.1-0.1,0.2-0.2,0.2-0.3C107.9,86.3,107.9,86.5,107.6,86.8z"/>
		<path id="XMLID_260_" class="st11" d="M131.1,92.3c0.1,0.1,0.2,0.1,0.4,0.1l9.5,1.3c0.6,0.1,1.4-0.1,1.8-0.5l2.1-1.7
			c0.1-0.1,0.2-0.2,0.2-0.3c0.2,0.2,0.2,0.4-0.1,0.6l-2.1,1.7c-0.4,0.3-1.3,0.6-1.8,0.5l-9.5-1.3C131.2,92.7,131,92.5,131.1,92.3z"
			/>
		<path id="XMLID_259_" class="st11" d="M111.7,78.9l-0.9,0.7c-0.4,0.3-1.3,0.6-1.8,0.5l-4.4-0.6c-0.4-0.1-0.6-0.2-0.5-0.5
			c0.1,0.1,0.2,0.1,0.4,0.1l4.4,0.6c0.6,0.1,1.4-0.1,1.8-0.5l0.9-0.7c0.1-0.1,0.2-0.2,0.2-0.3C112,78.5,112,78.7,111.7,78.9z"/>
		<path id="XMLID_258_" class="st11" d="M128.2,81.2l-0.9,0.7c-0.4,0.3-1.3,0.6-1.8,0.5l-4.5-0.6c-0.4-0.1-0.6-0.2-0.5-0.5
			c0.1,0.1,0.2,0.1,0.4,0.1l4.5,0.6c0.6,0.1,1.4-0.1,1.8-0.5l0.9-0.7c0.1-0.1,0.2-0.2,0.2-0.3C128.6,80.7,128.5,81,128.2,81.2z"/>
		<path id="XMLID_243_" class="st11" d="M119.9,80.1l-0.9,0.7c-0.4,0.3-1.3,0.6-1.8,0.5l-4.5-0.6c-0.4-0.1-0.6-0.2-0.5-0.5
			c0.1,0.1,0.2,0.1,0.4,0.1l4.5,0.6c0.6,0.1,1.4-0.1,1.8-0.5l0.9-0.7c0.1-0.1,0.2-0.2,0.2-0.3C120.3,79.6,120.2,79.8,119.9,80.1z"/>
		<path id="XMLID_242_" class="st11" d="M145.2,85c0,0,0-0.1,0-0.2c0.1,0.1,0.2,0.1,0.5,0.1l5.5,0.8c0.6,0.1,1.4-0.1,1.8-0.5
			l0.9-0.7c0.1-0.1,0.2-0.2,0.2-0.3c0.2,0.2,0.2,0.4-0.1,0.6l-0.9,0.7c-0.4,0.3-1.3,0.6-1.8,0.5l-5.5-0.8
			C145.3,85.2,145.2,85,145.2,85z"/>
		<path id="XMLID_241_" class="st11" d="M114,100.5l4.1,0.6c0.6,0.1,1.4-0.1,1.8-0.5l2.8-2.2c0.1-0.1,0.2-0.2,0.2-0.3
			c0.2,0.2,0.2,0.4-0.1,0.6l-2.8,2.2c-0.4,0.3-1.3,0.6-1.8,0.5l-4.1-0.6c-0.4-0.1-0.6-0.2-0.5-0.5
			C113.7,100.5,113.9,100.5,114,100.5z"/>
		<path id="XMLID_240_" class="st11" d="M125,93.8l-2.7,2.2c-0.4,0.3-1.3,0.6-1.8,0.5l-4.2-0.6c-0.4-0.1-0.6-0.2-0.5-0.5
			c0.1,0.1,0.2,0.1,0.4,0.1l4.2,0.6c0.6,0.1,1.4-0.1,1.8-0.5l2.7-2.2c0.1-0.1,0.2-0.2,0.2-0.3C125.3,93.3,125.3,93.6,125,93.8z"/>
		<path id="XMLID_239_" class="st11" d="M131.7,90.1l-2.1,1.7c-0.4,0.3-1.3,0.6-1.8,0.5l-4.2-0.6c-0.4-0.1-0.6-0.2-0.5-0.5
			c0.1,0.1,0.2,0.1,0.4,0.1l4.2,0.6c0.6,0.1,1.4-0.1,1.8-0.5l2.1-1.7c0.1-0.1,0.2-0.2,0.2-0.3C132,89.6,132,89.8,131.7,90.1z"/>
		<path id="XMLID_238_" class="st11" d="M106,99.4l4.2,0.6c0.6,0.1,1.1,0,1.1-0.1c0,0,0.3-0.1,0.8-0.4l2.8-2.2
			c0.1-0.1,0.2-0.2,0.2-0.3c0.2,0.2,0.2,0.4-0.1,0.6l-2.8,2.2c-0.4,0.3-0.8,0.4-0.8,0.4c0,0-0.5,0.1-1.1,0.1l-4.2-0.6
			c-0.4-0.1-0.6-0.2-0.5-0.5C105.7,99.4,105.8,99.4,106,99.4z"/>
		<path id="XMLID_237_" class="st11" d="M133.7,88.1l4.2,0.6c0.6,0.1,1.4-0.1,1.8-0.5l2.2-1.8c0.1-0.1,0.2-0.2,0.2-0.3
			c0.2,0.2,0.2,0.4-0.1,0.6l-2.2,1.8c-0.4,0.3-1.3,0.6-1.8,0.5l-4.2-0.6c-0.4-0.1-0.6-0.2-0.5-0.5C133.3,88,133.5,88.1,133.7,88.1z"
			/>
		<path id="XMLID_236_" class="st11" d="M126,84.5l-2.2,1.8c-0.4,0.4-1.3,0.6-1.8,0.5l-4.3-0.6c-0.4-0.1-0.6-0.2-0.5-0.5
			c0.1,0.1,0.2,0.1,0.4,0.1l4.3,0.6c0.6,0.1,1.4-0.1,1.8-0.5l2.2-1.8c0.1-0.1,0.2-0.2,0.2-0.3C126.3,84,126.3,84.3,126,84.5z"/>
		<path id="XMLID_235_" class="st11" d="M130.9,87.9c0,0-0.4,0.1-1,0l-4.2-0.6c-0.4-0.1-0.6-0.2-0.5-0.5c0.1,0.1,0.2,0.1,0.4,0.1
			l4.2,0.6c0.6,0.1,1,0,1,0c0,0,0.4-0.1,0.9-0.5l2.2-1.8c0.1-0.1,0.2-0.2,0.2-0.3c0.2,0.2,0.2,0.4-0.1,0.6l-2.2,1.8
			C131.4,87.7,130.9,87.9,130.9,87.9z"/>
		<path id="XMLID_234_" class="st11" d="M98,98.3l4.2,0.6c0.6,0.1,1.4-0.1,1.8-0.5l2.8-2.2c0.1-0.1,0.2-0.2,0.2-0.3
			c0.2,0.2,0.2,0.4-0.1,0.6l-2.8,2.2c-0.4,0.3-1.3,0.6-1.8,0.5l-4.2-0.6c-0.4-0.1-0.6-0.2-0.5-0.5C97.7,98.2,97.8,98.3,98,98.3z"/>
		<path id="XMLID_233_" class="st11" d="M58,92.8l4.2,0.6c0.6,0.1,1.4-0.1,1.8-0.5l2.8-2.2c0.1-0.1,0.2-0.2,0.2-0.3
			c0.2,0.2,0.2,0.4-0.1,0.6l-2.8,2.2c-0.4,0.3-1.3,0.6-1.8,0.5l-4.2-0.6c-0.4-0.1-0.6-0.2-0.5-0.5C57.6,92.7,57.8,92.8,58,92.8z"/>
		<path id="XMLID_232_" class="st11" d="M49.9,91.7l4.2,0.6c0.6,0.1,1.4-0.1,1.8-0.5l2.8-2.2c0.1-0.1,0.2-0.2,0.2-0.3
			c0.2,0.2,0.2,0.4-0.1,0.6l-2.8,2.2c-0.4,0.3-1.3,0.6-1.8,0.5L50,92c-0.4-0.1-0.6-0.2-0.5-0.5C49.6,91.6,49.8,91.7,49.9,91.7z"/>
		<path id="XMLID_231_" class="st11" d="M37.3,93.7l-3.4-0.5c-0.1,0-0.3,0-0.4,0c-0.1-0.1-0.1-0.2,0-0.3c0.1,0.1,0.2,0.1,0.4,0.1
			l3.5,0.5c0.5,0.1,1.1-0.1,1.5-0.4l0.8-0.6c0.2-0.1,0.2-0.2,0.3-0.3c0.2,0.2,0.2,0.4-0.2,0.7l-0.8,0.6c-0.3,0.2-0.8,0.4-1.2,0.4
			C37.6,93.8,37.5,93.7,37.3,93.7z"/>
		<path id="XMLID_230_" class="st11" d="M118,83.4l-2.2,1.8c-0.4,0.3-0.9,0.5-0.9,0.5s-0.4,0.1-1,0l-4.2-0.6
			c-0.4-0.1-0.6-0.2-0.5-0.5c0.1,0.1,0.2,0.1,0.4,0.1l4.2,0.6c0.6,0.1,1,0,1,0s0.4-0.1,0.9-0.5l2.2-1.8c0.1-0.1,0.2-0.2,0.2-0.3
			C118.3,82.9,118.3,83.2,118,83.4z"/>
		<path id="XMLID_229_" class="st11" d="M90,97.2l4.2,0.6c0.6,0.1,1.4-0.1,1.8-0.5l2.8-2.2c0.1-0.1,0.2-0.2,0.2-0.3
			c0.2,0.2,0.2,0.4-0.1,0.6l-2.8,2.2c-0.4,0.3-1.3,0.6-1.8,0.5l-4.2-0.6c-0.4-0.1-0.6-0.2-0.5-0.5C89.7,97.1,89.8,97.2,90,97.2z"/>
		<path id="XMLID_228_" class="st11" d="M82,96.1l4.2,0.6c0.6,0.1,1.4-0.1,1.8-0.5l2.8-2.2c0.1-0.1,0.2-0.2,0.2-0.3
			c0.2,0.2,0.2,0.4-0.1,0.6l-2.8,2.2c-0.4,0.3-1.3,0.6-1.8,0.5l-4.2-0.6c-0.4-0.1-0.6-0.2-0.5-0.5C81.7,96,81.8,96.1,82,96.1z"/>
		<path id="XMLID_227_" class="st11" d="M74.3,95l3.9,0.5c0.6,0.1,1-0.1,1.1-0.1c0,0,0.5-0.1,0.9-0.5l2.6-2.1
			c0.1-0.1,0.2-0.2,0.2-0.3c0.2,0.2,0.2,0.4-0.1,0.6l-2.6,2.1c-0.4,0.3-0.9,0.5-0.9,0.5c0,0-0.5,0.2-1.1,0.1l-3.9-0.5
			c-0.4-0.1-0.6-0.2-0.5-0.5C74,95,74.1,95,74.3,95z"/>
		<path id="XMLID_226_" class="st11" d="M66,93.9l4.5,0.6c0.6,0.1,1.4-0.1,1.8-0.5l2.8-2.2c0.1-0.1,0.2-0.2,0.2-0.3
			c0.2,0.2,0.2,0.4-0.1,0.6l-2.8,2.2c-0.4,0.3-1.3,0.6-1.8,0.5l-4.5-0.6c-0.4-0.1-0.6-0.2-0.5-0.5C65.6,93.8,65.8,93.9,66,93.9z"/>
		<path id="XMLID_225_" class="st11" d="M115.6,87.9l-2,1.6c-0.4,0.3-0.6,0.4-0.8,0.5c-0.3,0.1-0.5,0.1-1,0.1l-4.2-0.6
			c-0.4-0.1-0.6-0.2-0.5-0.5c0.1,0.1,0.2,0.1,0.4,0.1l4.2,0.6c0.6,0.1,0.8,0,1-0.1c0.3-0.1,0.4-0.1,0.8-0.5l2-1.6
			c0.1-0.1,0.2-0.2,0.2-0.3C115.9,87.4,115.9,87.6,115.6,87.9z"/>
		<path id="XMLID_224_" class="st11" d="M84.1,91.1l4.2,0.6c0.6,0.1,0.7,0,1-0.1c0.3-0.1,0.5-0.2,0.9-0.6l2.6-2
			c0.1-0.1,0.2-0.2,0.2-0.3c0.2,0.2,0.2,0.4-0.1,0.6l-2.6,2c-0.4,0.3-0.6,0.5-0.9,0.6c-0.3,0.1-0.5,0.1-1,0.1l-4.2-0.6
			c-0.4-0.1-0.6-0.2-0.5-0.5C83.8,91.1,83.9,91.1,84.1,91.1z"/>
		<path id="XMLID_223_" class="st11" d="M76.4,90.1l3.9,0.5c0.6,0.1,1.4-0.1,1.8-0.5l2.7-2.2c0.1-0.1,0.2-0.2,0.2-0.3
			c0.2,0.2,0.2,0.4-0.1,0.6l-2.7,2.2c-0.4,0.3-1.3,0.6-1.8,0.5l-3.9-0.5c-0.4-0.1-0.6-0.2-0.5-0.5C76.1,90,76.2,90,76.4,90.1z"/>
		<path id="XMLID_222_" class="st11" d="M60,87.8l4.2,0.6c0.6,0.1,1.4-0.1,1.8-0.5l2.7-2.2c0.1-0.1,0.2-0.2,0.2-0.3
			c0.2,0.2,0.2,0.4-0.1,0.6l-2.7,2.2c-0.4,0.3-1.3,0.6-1.8,0.5l-4.2-0.6c-0.4-0.1-0.6-0.2-0.5-0.5C59.7,87.7,59.9,87.8,60,87.8z"/>
		<path id="XMLID_221_" class="st11" d="M92.1,92.2l4.2,0.6c0.6,0.1,1.4-0.1,1.8-0.5l2.7-2.2c0.1-0.1,0.2-0.2,0.2-0.3
			c0.2,0.2,0.2,0.4-0.1,0.6l-2.7,2.2c-0.4,0.3-1.3,0.6-1.8,0.5l-4.2-0.6c-0.4-0.1-0.6-0.2-0.5-0.5C91.8,92.2,91.9,92.2,92.1,92.2z"
			/>
		<path id="XMLID_220_" class="st11" d="M68,88.9l4.7,0.5c0.6,0.1,1.4-0.2,1.8-0.5l2.6-2c0.1-0.1,0.2-0.2,0.2-0.3
			c0.2,0.2,0.2,0.4-0.1,0.6l-2.6,2c-0.4,0.3-1.3,0.6-1.8,0.5l-4.7-0.5c-0.4,0-0.6-0.2-0.5-0.5C67.7,88.8,67.9,88.9,68,88.9z"/>
		<path id="XMLID_219_" class="st11" d="M100.1,93.3l4.2,0.6c0.6,0.1,1.4-0.1,1.8-0.5l2.7-2.2c0.1-0.1,0.2-0.2,0.2-0.3
			c0.2,0.2,0.2,0.4-0.1,0.6l-2.7,2.2c-0.4,0.3-1.3,0.6-1.8,0.5l-4.2-0.6c-0.4-0.1-0.6-0.2-0.5-0.5C99.8,93.3,99.9,93.3,100.1,93.3z"
			/>
		<path id="XMLID_218_" class="st11" d="M123.6,89l-2.1,1.7c-0.4,0.3-1.3,0.6-1.8,0.5l-4.2-0.6c-0.4-0.1-0.6-0.2-0.5-0.5
			c0.1,0.1,0.2,0.1,0.4,0.1l4.2,0.6c0.6,0.1,1.4-0.1,1.8-0.5l2.1-1.7c0.1-0.1,0.2-0.2,0.2-0.3C124,88.5,123.9,88.7,123.6,89z"/>
		<path id="XMLID_217_" class="st11" d="M108.1,94.5l4.3,0.6c0.6,0.1,1-0.1,1.1-0.1c0,0,0.5-0.2,0.9-0.6l2.5-2
			c0.1-0.1,0.2-0.2,0.2-0.3c0.2,0.2,0.2,0.4-0.1,0.6l-2.5,2c-0.4,0.3-0.9,0.5-0.9,0.6c0,0-0.5,0.2-1.1,0.1l-4.3-0.6
			c-0.4-0.1-0.6-0.2-0.5-0.5C107.8,94.4,107.9,94.4,108.1,94.5z"/>
		<path id="XMLID_216_" class="st11" d="M69.9,76.7l-2.2,1.8c-0.4,0.3-0.8,0.6-0.8,0.6c0,0-0.5-0.1-1-0.1l-4.2-0.6
			c-0.4-0.1-0.6-0.2-0.5-0.5c0.1,0.1,0.2,0.1,0.4,0.1l4.2,0.6c0.6,0.1,1,0.1,1,0.1c0,0,0.4-0.3,0.8-0.6l2.2-1.8
			c0.1-0.1,0.2-0.2,0.2-0.3C70.3,76.3,70.2,76.5,69.9,76.7z"/>
		<path id="XMLID_215_" class="st11" d="M102,81.2L99.7,83c-0.4,0.3-1.3,0.6-1.8,0.5l-4.2-0.6c-0.4-0.1-0.6-0.2-0.5-0.5
			c0.1,0.1,0.2,0.1,0.4,0.1l4.2,0.6c0.6,0.1,1.4-0.1,1.8-0.5l2.2-1.8c0.1-0.1,0.2-0.2,0.2-0.3C102.3,80.7,102.3,80.9,102,81.2z"/>
		<path id="XMLID_214_" class="st11" d="M42.9,85.4l4.9,0.7c0.6,0.1,1.4-0.1,1.8-0.5l2.7-2.2c0.1-0.1,0.2-0.2,0.2-0.3
			c0.2,0.2,0.2,0.4-0.1,0.6l-2.7,2.2c-0.4,0.3-1.3,0.6-1.8,0.5L43,85.8c-0.4-0.1-0.6-0.2-0.5-0.5C42.6,85.4,42.8,85.4,42.9,85.4z"/>
		<path id="XMLID_213_" class="st11" d="M86.3,79L84,80.8c-0.4,0.3-1.3,0.6-1.8,0.5l-4.5-0.6c-0.4-0.1-0.6-0.2-0.5-0.5
			c0.1,0.1,0.2,0.1,0.4,0.1l4.5,0.6c0.6,0.1,1.4-0.1,1.8-0.5l2.2-1.8c0.1-0.1,0.2-0.2,0.2-0.3C86.6,78.5,86.6,78.8,86.3,79z"/>
		<path id="XMLID_212_" class="st11" d="M94,80.1l-2.2,1.8c-0.4,0.3-1.3,0.6-1.8,0.5L86,81.8c-0.4-0.1-0.6-0.2-0.5-0.5
			c0.1,0.1,0.2,0.1,0.4,0.1l3.9,0.5c0.6,0.1,1.4-0.1,1.8-0.5l2.2-1.8c0.1-0.1,0.2-0.2,0.2-0.3C94.3,79.6,94.3,79.8,94,80.1z"/>
		<path id="XMLID_211_" class="st11" d="M110,82.3l-2.2,1.7c-0.4,0.3-0.9,0.5-0.9,0.5c0,0-0.4,0.1-1,0l-4.2-0.6
			c-0.4-0.1-0.6-0.2-0.5-0.5c0.1,0.1,0.2,0.1,0.4,0.1l4.2,0.6c0.6,0.1,1,0,1,0s0.5-0.1,0.9-0.5l2.2-1.7c0.1-0.1,0.2-0.2,0.2-0.3
			C110.3,81.8,110.3,82,110,82.3z"/>
		<path id="XMLID_210_" class="st11" d="M77.9,77.9l-2.2,1.8c-0.4,0.3-1.3,0.6-1.8,0.5l-4.2-0.6c-0.4-0.1-0.6-0.2-0.5-0.5
			c0.1,0.1,0.2,0.1,0.4,0.1l4.2,0.6c0.6,0.1,1.4-0.1,1.8-0.5l2.2-1.8c0.1-0.1,0.2-0.2,0.2-0.3C78.3,77.4,78.2,77.6,77.9,77.9z"/>
		<path id="XMLID_209_" class="st11" d="M59.5,80.1l-2.1,1.7c-0.4,0.3-1.3,0.6-1.8,0.5l-4.2-0.6c-0.4-0.1-0.6-0.2-0.5-0.5
			c0.1,0.1,0.2,0.1,0.4,0.1l4.2,0.6c0.6,0.1,1.4-0.1,1.8-0.5l2.1-1.7c0.1-0.1,0.2-0.2,0.2-0.3C59.9,79.6,59.8,79.9,59.5,80.1z"/>
	</g>
	<g id="XMLID_305_">
		<g id="XMLID_442_" class="st12">
			<path id="XMLID_208_" class="st6" d="M42.6,94.4c0.5,0.1,0.6,0.4,0.2,0.7l-0.5,0.4c-0.5,0.4-1.3,0.6-1.9,0.5l-3.3-0.5
				c-0.5-0.1-0.6-0.4-0.2-0.7l0.5-0.4c0.5-0.4,1.3-0.6,1.9-0.5L42.6,94.4z"/>
		</g>
		<g id="XMLID_440_" class="st12">
			<path id="XMLID_207_" class="st6" d="M96,99.3c0.6,0.1,0.7,0.4,0.2,0.8l-3.4,2.7c-0.4,0.3-1.3,0.6-1.8,0.5L60.1,99
				c-0.6-0.1-0.7-0.4-0.2-0.8l3.4-2.7c0.4-0.3,1.3-0.6,1.8-0.5L96,99.3z"/>
		</g>
		<g id="XMLID_438_" class="st12">
			<path id="XMLID_206_" class="st6" d="M52.6,93.3c0.6,0.1,0.7,0.4,0.2,0.8l-3.4,2.7c-0.4,0.3-1.3,0.6-1.8,0.5l-3.7-0.5
				c-0.6-0.1-0.7-0.4-0.2-0.8l3.4-2.7c0.4-0.3,1.3-0.6,1.8-0.5L52.6,93.3z"/>
		</g>
		<g id="XMLID_436_" class="st12">
			<path id="XMLID_205_" class="st6" d="M104.5,100.5c0.6,0.1,0.7,0.4,0.2,0.8l-3.4,2.7c-0.4,0.3-1.3,0.6-1.8,0.5l-4.7-0.7
				c-0.6-0.1-0.7-0.4-0.2-0.8l3.4-2.7c0.4-0.3,1.3-0.6,1.8-0.5L104.5,100.5z"/>
		</g>
		<g id="XMLID_434_" class="st12">
			<path id="XMLID_186_" class="st6" d="M61.3,94.5c0.6,0.1,0.7,0.4,0.2,0.8L58.1,98c-0.4,0.3-1.3,0.6-1.8,0.5l-4.9-0.7
				c-0.6-0.1-0.7-0.4-0.2-0.8l3.4-2.7c0.4-0.3,1.3-0.6,1.8-0.5L61.3,94.5z"/>
		</g>
		<g id="XMLID_432_" class="st12">
			<path id="XMLID_185_" class="st6" d="M124.4,98.7c0.4-0.4,1.3-0.6,1.8-0.5l7.8,1.1c0.6,0.1,0.7,0.4,0.2,0.8l-2.8,2.2
				c-0.4,0.3-1.3,0.6-1.8,0.5l-7.7-1.1c-0.6-0.1-0.7-0.4-0.2-0.8L124.4,98.7z"/>
		</g>
		<g id="XMLID_430_" class="st12">
			<path id="XMLID_184_" class="st6" d="M112.4,101.5c0.6,0.1,0.7,0.4,0.2,0.8l-3.4,2.7c-0.4,0.3-1.3,0.6-1.8,0.5l-4.1-0.6
				c-0.6-0.1-0.7-0.4-0.2-0.8l3.4-2.7c0.4-0.3,1.3-0.6,1.8-0.5L112.4,101.5z"/>
		</g>
		<g id="XMLID_428_" class="st12">
			<path id="XMLID_183_" class="st6" d="M119.8,102.6c0.6,0.1,0.7,0.4,0.2,0.8l-3.4,2.7c-0.4,0.3-1.3,0.6-1.8,0.5l-3.6-0.5
				c-0.6-0.1-0.7-0.4-0.2-0.8l3.4-2.7c0.4-0.3,1.3-0.6,1.8-0.5L119.8,102.6z"/>
		</g>
		<g id="XMLID_426_" class="st12">
			<path id="XMLID_182_" class="st6" d="M128.4,103.8c0.6,0.1,0.7,0.4,0.2,0.8l-3.4,2.7c-0.4,0.3-1.3,0.6-1.8,0.5l-4.8-0.7
				c-0.6-0.1-0.7-0.4-0.2-0.8l3.4-2.7c0.4-0.3,1.3-0.6,1.8-0.5L128.4,103.8z"/>
		</g>
		<g id="XMLID_424_" class="st12">
			<path id="XMLID_181_" class="st6" d="M78.1,81.9c0.4-0.1,0.6-0.2,1.2-0.1l3.9,0.5c0.6,0.1,0.7,0.4,0.2,0.8l-1.9,1.5
				c-0.4,0.3-0.9,0.5-0.9,0.5c0,0-0.5,0.2-1.1,0.1l-3.9-0.5c-0.6-0.1-0.7-0.4-0.2-0.8l1.9-1.5C77.7,82.1,77.8,82,78.1,81.9z"/>
		</g>
		<g id="XMLID_422_" class="st12">
			<path id="XMLID_180_" class="st6" d="M37.3,93.7c0.4,0.1,0.5,0.3,0.2,0.6l-0.6,0.5c-0.5,0.4-1.4,0.6-2,0.5l-3.4-0.5
				c-0.4-0.1-0.5-0.3-0.2-0.6l0.6-0.5c0.5-0.4,1.4-0.6,2-0.5L37.3,93.7z"/>
		</g>
		<g id="XMLID_420_" class="st12">
			<path id="XMLID_177_" class="st6" d="M91.2,83.4c0.6,0.1,0.7,0.4,0.2,0.8l-2.1,1.6c-0.4,0.3-0.9,0.5-0.9,0.5c0,0-0.4,0.1-1,0
				l-4.2-0.6c-0.6-0.1-0.7-0.4-0.2-0.8l2.1-1.7c0.4-0.3,1.3-0.6,1.8-0.5L91.2,83.4z"/>
		</g>
		<g id="XMLID_418_" class="st12">
			<path id="XMLID_176_" class="st6" d="M94,84c0,0,0.4-0.1,1,0l4.2,0.6c0.6,0.1,0.7,0.4,0.2,0.8L97.4,87c-0.4,0.3-1.3,0.6-1.8,0.5
				l-4.2-0.6c-0.6-0.1-0.7-0.4-0.2-0.8l2-1.6C93.6,84.2,94,84,94,84z"/>
		</g>
		<g id="XMLID_416_" class="st12">
			<path id="XMLID_175_" class="st6" d="M59.3,82.5c-0.6-0.1-0.7-0.4-0.2-0.8l2.1-1.7c0.4-0.3,1.3-0.6,1.8-0.5l4.2,0.6
				c0.6,0.1,0.7,0.4,0.2,0.8l-2.1,1.7c-0.4,0.3-1.3,0.6-1.8,0.5L59.3,82.5z"/>
		</g>
		<g id="XMLID_414_" class="st12">
			<path id="XMLID_168_" class="st6" d="M69.8,80.7c0.2-0.1,0.6-0.2,1.2-0.1l4.6,0.6c0.6,0.1,0.7,0.4,0.2,0.8l-2.1,1.6
				c-0.4,0.3-0.9,0.4-0.9,0.4c0,0-0.3,0.1-0.9,0.1l-4.5-0.6c-0.6-0.1-0.7-0.4-0.2-0.8l1.9-1.5C69.4,81,69.5,80.9,69.8,80.7z"/>
		</g>
		<g id="XMLID_412_" class="st12">
			<path id="XMLID_167_" class="st6" d="M31.3,94c-0.5,0.4-1.3,0.6-1.9,0.5L26.2,94c-0.3,0-0.4-0.3-0.1-0.5l0.7-0.6
				c0.5-0.4,1.3-0.6,1.9-0.5l3.3,0.5c0.3,0,0.4,0.2,0.1,0.4L31.3,94z"/>
		</g>
		<g id="XMLID_410_" class="st12">
			<path id="XMLID_166_" class="st6" d="M60.6,83.9c0.6,0.1,0.7,0.4,0.2,0.8l-2.7,2.2c-0.4,0.3-1.3,0.6-1.8,0.5l-4.6-0.6
				c-0.6-0.1-0.7-0.4-0.2-0.8l2.7-2.2c0.4-0.3,1.3-0.6,1.8-0.5L60.6,83.9z"/>
		</g>
		<g id="XMLID_408_" class="st12">
			<path id="XMLID_157_" class="st6" d="M95.4,78c-0.6-0.1-0.7-0.4-0.2-0.8l0.9-0.7c0.4-0.3,1.3-0.6,1.8-0.5l5.2,0.7
				c0.6,0.1,0.7,0.4,0.2,0.8l-0.9,0.7c-0.4,0.3-1.3,0.6-1.8,0.5L95.4,78z"/>
		</g>
		<g id="XMLID_406_" class="st12">
			<path id="XMLID_156_" class="st6" d="M69.9,74.5c-0.6-0.1-0.7-0.4-0.2-0.8l0.9-0.7c0.4-0.3,1.3-0.6,1.8-0.5l5.3,0.7
				c0.6,0.1,0.7,0.4,0.2,0.8L77,74.7c-0.4,0.3-1.3,0.6-1.8,0.5L69.9,74.5z"/>
		</g>
		<g id="XMLID_404_" class="st12">
			<path id="XMLID_155_" class="st6" d="M53.3,72.2c-0.6-0.1-0.7-0.4-0.2-0.8l0.9-0.7c0.4-0.3,1.3-0.6,1.8-0.5l4.8,0.7
				c0.6,0.1,0.7,0.4,0.2,0.8L60,72.4c-0.4,0.3-1.3,0.6-1.8,0.5L53.3,72.2z"/>
		</g>
		<g id="XMLID_402_" class="st12">
			<path id="XMLID_154_" class="st6" d="M61.9,73.4c-0.6-0.1-0.7-0.4-0.2-0.8l0.9-0.7c0.4-0.3,1.3-0.6,1.8-0.5l4.1,0.6
				c0.6,0.1,0.7,0.4,0.2,0.8l-0.9,0.7c-0.4,0.3-1.3,0.6-1.8,0.5L61.9,73.4z"/>
		</g>
		<g id="XMLID_400_" class="st12">
			<path id="XMLID_153_" class="st6" d="M78.9,75.7c-0.6-0.1-0.7-0.4-0.2-0.8l0.9-0.7c0.4-0.3,1.3-0.6,1.8-0.5l4.5,0.6
				c0.6,0.1,0.7,0.4,0.2,0.8l-0.9,0.7c-0.4,0.3-1.3,0.6-1.8,0.5L78.9,75.7z"/>
		</g>
		<g id="XMLID_398_" class="st12">
			<path id="XMLID_152_" class="st6" d="M87.2,76.9c-0.6-0.1-0.7-0.4-0.2-0.8l0.9-0.7c0.4-0.3,1.3-0.6,1.8-0.5l4.3,0.6
				c0.6,0.1,0.7,0.4,0.2,0.8L93.4,77c-0.4,0.3-1.3,0.6-1.8,0.5L87.2,76.9z"/>
		</g>
		<g id="XMLID_396_" class="st12">
			<path id="XMLID_149_" class="st6" d="M48,90.6c-0.4,0.3-0.9,0.5-0.9,0.5c0,0-0.4,0.2-1,0.1l-14.3-2c-0.6-0.1-0.7-0.4-0.2-0.8
				l2.8-2.2c0.4-0.3,1.3-0.6,1.8-0.5l14.3,2c0.6,0.1,0.7,0.4,0.2,0.8L48,90.6z"/>
		</g>
		<g id="XMLID_394_" class="st12">
			<path id="XMLID_105_" class="st6" d="M124.1,96.7c-0.6-0.1-0.7-0.4-0.2-0.8l2.7-2.2c0.4-0.3,1.3-0.6,1.8-0.5l11.3,1.6
				c0.6,0.1,0.7,0.4,0.2,0.8l-2.7,2.2c-0.4,0.3-0.8,0.4-0.8,0.4c0,0-0.5,0.1-1.1,0L124.1,96.7z"/>
		</g>
		<g id="XMLID_392_" class="st12">
			<path id="XMLID_104_" class="st6" d="M59.7,77.1c-0.4,0.4-1.3,0.6-1.8,0.5l-9.7-1.3c-0.6-0.1-0.7-0.4-0.2-0.8l2.2-1.8
				c0.4-0.3,1.3-0.6,1.8-0.5l9.6,1.3c0.6,0.1,0.7,0.4,0.3,0.8L59.7,77.1z"/>
		</g>
		<g id="XMLID_390_" class="st12">
			<path id="XMLID_103_" class="st6" d="M49.4,80.2c-0.4,0.3-0.5,0.4-0.9,0.5c-0.4,0.1-1.2,0-1.2,0c-0.6-0.1-0.9-0.2-1.3-0.2
				c-0.3,0-0.8,0.4-1.3,0.8l-3.8,3c-0.4,0.3-1.3,0.6-1.8,0.5l-1.6-0.2c-0.6-0.1-0.7-0.4-0.2-0.8l7.7-6.1c0.4-0.3,1.3-0.6,1.8-0.5
				l4.3,0.6c0.6,0.1,0.7,0.4,0.2,0.8L49.4,80.2z"/>
		</g>
		<g id="XMLID_388_" class="st12">
			<path id="XMLID_102_" class="st6" d="M137.4,83.8c-0.6-0.1-0.7-0.4-0.2-0.8l0.9-0.7c0.4-0.3,1.3-0.6,1.8-0.5l4.5,0.6
				c0.6,0.1,0.7,0.4,0.2,0.8l-0.9,0.7c-0.4,0.3-1.3,0.6-1.8,0.5L137.4,83.8z"/>
		</g>
		<g id="XMLID_386_" class="st12">
			<path id="XMLID_101_" class="st6" d="M143.7,86.6c0.4-0.3,1.3-0.6,1.8-0.5l4.4,0.6c0.6,0.1,0.7,0.4,0.2,0.8l-2.2,1.8
				c-0.4,0.3-1.3,0.6-1.8,0.5l-4.4-0.6c-0.6-0.1-0.7-0.4-0.2-0.8L143.7,86.6z"/>
		</g>
		<g id="XMLID_384_" class="st12">
			<path id="XMLID_100_" class="st6" d="M129.1,82.7c-0.6-0.1-0.7-0.4-0.2-0.8l0.9-0.7c0.4-0.3,1.3-0.6,1.8-0.5l4.5,0.6
				c0.6,0.1,0.7,0.4,0.2,0.8l-0.9,0.7c-0.4,0.3-1.3,0.6-1.8,0.5L129.1,82.7z"/>
		</g>
		<g id="XMLID_382_" class="st12">
			<path id="XMLID_99_" class="st6" d="M107.2,85.7c0.6,0.1,0.7,0.4,0.2,0.8l-2.1,1.7c-0.4,0.3-1.3,0.6-1.8,0.5L99.3,88
				c-0.6-0.1-0.7-0.4-0.2-0.8l2.1-1.7c0.4-0.3,1.3-0.6,1.8-0.5L107.2,85.7z"/>
		</g>
		<g id="XMLID_380_" class="st12">
			<path id="XMLID_98_" class="st6" d="M133.3,90c0.4-0.3,1.3-0.6,1.8-0.5l9.5,1.3c0.6,0.1,0.7,0.4,0.2,0.8l-2.1,1.7
				c-0.4,0.3-1.3,0.6-1.8,0.5l-9.5-1.3c-0.6-0.1-0.7-0.4-0.2-0.8L133.3,90z"/>
		</g>
		<g id="XMLID_378_" class="st12">
			<path id="XMLID_97_" class="st6" d="M104.4,79.2c-0.6-0.1-0.7-0.4-0.2-0.8l0.9-0.7c0.4-0.3,1.3-0.6,1.8-0.5l4.4,0.6
				c0.6,0.1,0.7,0.4,0.2,0.8l-0.9,0.7c-0.4,0.3-1.3,0.6-1.8,0.5L104.4,79.2z"/>
		</g>
		<g id="XMLID_376_" class="st12">
			<path id="XMLID_67_" class="st6" d="M120.9,81.5c-0.6-0.1-0.7-0.4-0.2-0.8l0.9-0.7c0.4-0.3,1.3-0.6,1.8-0.5l4.5,0.6
				c0.6,0.1,0.7,0.4,0.2,0.8l-0.9,0.7c-0.4,0.3-1.3,0.6-1.8,0.5L120.9,81.5z"/>
		</g>
		<g id="XMLID_374_" class="st12">
			<path id="XMLID_66_" class="st6" d="M112.6,80.4c-0.6-0.1-0.7-0.4-0.2-0.8l0.9-0.7c0.4-0.3,1.3-0.6,1.8-0.5l4.5,0.6
				c0.6,0.1,0.7,0.4,0.2,0.8l-0.9,0.7c-0.4,0.3-1.3,0.6-1.8,0.5L112.6,80.4z"/>
		</g>
		<g id="XMLID_372_" class="st12">
			<path id="XMLID_64_" class="st6" d="M145.1,84.7c0,0-0.1-0.2,0.3-0.5l0.9-0.7c0.4-0.3,1.3-0.6,1.8-0.5l5.5,0.8
				c0.6,0.1,0.7,0.4,0.2,0.8l-0.9,0.7c-0.4,0.3-1.3,0.6-1.8,0.5l-5.5-0.8C145.2,84.9,145.1,84.7,145.1,84.7z"/>
		</g>
		<g id="XMLID_370_" class="st12">
			<path id="XMLID_63_" class="st6" d="M117.4,97.1c0,0,0.5-0.1,1,0l4.1,0.6c0.6,0.1,0.7,0.4,0.2,0.8l-2.8,2.2
				c-0.4,0.3-1.3,0.6-1.8,0.5l-4.1-0.6c-0.6-0.1-0.7-0.4-0.2-0.8l2.7-2.1C116.9,97.3,117.3,97.1,117.4,97.1z"/>
		</g>
		<g id="XMLID_368_" class="st12">
			<path id="XMLID_62_" class="st6" d="M116.1,95.6c-0.6-0.1-0.7-0.4-0.2-0.8l2.7-2.2c0.4-0.3,1.3-0.6,1.8-0.5l4.2,0.6
				c0.6,0.1,0.7,0.4,0.2,0.8l-2.7,2.2c-0.4,0.3-1.3,0.6-1.8,0.5L116.1,95.6z"/>
		</g>
		<g id="XMLID_366_" class="st12">
			<path id="XMLID_61_" class="st6" d="M125.1,89c0.4-0.3,0.9-0.5,0.9-0.5c0,0,0.5-0.1,1.1-0.1l4.2,0.6c0.6,0.1,0.7,0.4,0.2,0.8
				l-2.1,1.7c-0.4,0.3-1.3,0.6-1.8,0.5l-4.2-0.6c-0.6-0.1-0.7-0.4-0.2-0.8L125.1,89z"/>
		</g>
		<g id="XMLID_364_" class="st12">
			<path id="XMLID_60_" class="st6" d="M114.6,96.6c0.6,0.1,0.7,0.4,0.2,0.8l-2.8,2.2c-0.4,0.3-0.8,0.4-0.8,0.4c0,0-0.5,0.1-1.1,0.1
				l-4.2-0.6c-0.6-0.1-0.7-0.4-0.2-0.8l2.8-2.2c0.4-0.3,1.3-0.6,1.8-0.5L114.6,96.6z"/>
		</g>
		<g id="XMLID_362_" class="st12">
			<path id="XMLID_59_" class="st6" d="M136.5,85.1c0,0,0.4-0.1,1,0l4.2,0.6c0.6,0.1,0.7,0.4,0.2,0.8l-2.2,1.8
				c-0.4,0.3-1.3,0.6-1.8,0.5l-4.2-0.6c-0.6-0.1-0.7-0.4-0.2-0.8l2.2-1.7C136,85.2,136.5,85.1,136.5,85.1z"/>
		</g>
		<g id="XMLID_360_" class="st12">
			<path id="XMLID_58_" class="st6" d="M117.6,85.9c-0.6-0.1-0.7-0.4-0.2-0.8l2.2-1.8c0.4-0.3,1.3-0.6,1.8-0.5l4.2,0.6
				c0.6,0.1,0.7,0.4,0.3,0.8l-2.2,1.8c-0.4,0.4-1.3,0.6-1.8,0.5L117.6,85.9z"/>
		</g>
		<g id="XMLID_358_" class="st12">
			<path id="XMLID_57_" class="st6" d="M130.8,87.5c0,0-0.4,0.1-1,0l-4.2-0.6c-0.6-0.1-0.7-0.4-0.2-0.8l2.2-1.8
				c0.4-0.3,1.3-0.6,1.8-0.5l4.2,0.6c0.6,0.1,0.7,0.4,0.2,0.8l-2.2,1.8C131.3,87.4,130.8,87.5,130.8,87.5z"/>
		</g>
		<g id="XMLID_356_" class="st12">
			<path id="XMLID_56_" class="st6" d="M106.6,95.5c0.6,0.1,0.7,0.4,0.2,0.8l-2.8,2.2c-0.4,0.3-1.3,0.6-1.8,0.5L98,98.3
				c-0.6-0.1-0.7-0.4-0.2-0.8l2.8-2.2c0.4-0.3,1.3-0.6,1.8-0.5L106.6,95.5z"/>
		</g>
		<g id="XMLID_354_" class="st12">
			<path id="XMLID_55_" class="st6" d="M66.5,89.9c0.6,0.1,0.7,0.4,0.2,0.8L64,92.9c-0.4,0.3-1.3,0.6-1.8,0.5L58,92.8
				c-0.6-0.1-0.7-0.4-0.2-0.8l2.8-2.2c0.4-0.3,1.3-0.6,1.8-0.5L66.5,89.9z"/>
		</g>
		<g id="XMLID_352_" class="st12">
			<path id="XMLID_54_" class="st6" d="M58.5,88.8c0.6,0.1,0.7,0.4,0.2,0.8L56,91.8c-0.4,0.3-1.3,0.6-1.8,0.5l-4.2-0.6
				c-0.6-0.1-0.7-0.4-0.2-0.8l2.8-2.2c0.4-0.3,1.3-0.6,1.8-0.5L58.5,88.8z"/>
		</g>
		<g id="XMLID_350_" class="st12">
			<path id="XMLID_53_" class="st6" d="M39.3,91.7c0.6,0.1,0.7,0.5,0.3,0.8l-0.8,0.6c-0.4,0.3-1,0.5-1.5,0.4l-3.5-0.5
				c-0.6-0.1-0.7-0.4-0.2-0.8l1.1-0.9c0.2-0.2,0.6-0.3,0.9-0.2L39.3,91.7z"/>
		</g>
		<g id="XMLID_348_" class="st12">
			<path id="XMLID_52_" class="st6" d="M114.8,85.3c0,0-0.4,0.1-1,0l-4.2-0.6c-0.6-0.1-0.7-0.4-0.2-0.8l2.2-1.8
				c0.4-0.3,1.3-0.6,1.8-0.5l4.2,0.6c0.6,0.1,0.7,0.4,0.2,0.8l-2.2,1.8C115.2,85.2,114.8,85.3,114.8,85.3z"/>
		</g>
		<g id="XMLID_346_" class="st12">
			<path id="XMLID_51_" class="st6" d="M98.5,94.4c0.6,0.1,0.7,0.4,0.2,0.8L96,97.3c-0.4,0.3-1.3,0.6-1.8,0.5L90,97.2
				c-0.6-0.1-0.7-0.4-0.2-0.8l2.8-2.2c0.4-0.3,1.3-0.6,1.8-0.5L98.5,94.4z"/>
		</g>
		<g id="XMLID_344_" class="st12">
			<path id="XMLID_50_" class="st6" d="M90.6,93.2c0.6,0.1,0.7,0.4,0.2,0.8L88,96.2c-0.4,0.3-1.3,0.6-1.8,0.5L82,96.1
				c-0.6-0.1-0.7-0.4-0.2-0.8l2.8-2.2c0.4-0.3,1.3-0.6,1.8-0.5L90.6,93.2z"/>
		</g>
		<g id="XMLID_342_" class="st12">
			<path id="XMLID_48_" class="st6" d="M77.7,91.6c0,0,0.4-0.1,1,0l3.9,0.5c0.6,0.1,0.7,0.4,0.2,0.8L80.2,95
				c-0.4,0.3-0.9,0.5-0.9,0.5c0,0-0.5,0.2-1.1,0.1L74.3,95c-0.6-0.1-0.7-0.4-0.2-0.8l2.7-2.2C77.2,91.8,77.7,91.6,77.7,91.6z"/>
		</g>
		<g id="XMLID_340_" class="st12">
			<path id="XMLID_47_" class="st6" d="M69.3,90.5c0,0,0.4-0.1,1-0.1l4.5,0.6c0.6,0.1,0.7,0.4,0.2,0.8L72.3,94
				c-0.4,0.3-1.3,0.6-1.8,0.5L66,93.9c-0.6-0.1-0.7-0.4-0.2-0.8l2.7-2.1C68.8,90.6,69.3,90.5,69.3,90.5z"/>
		</g>
		<g id="XMLID_338_" class="st12">
			<path id="XMLID_31_" class="st6" d="M110,86.2c0,0,0.5-0.1,1,0l4.2,0.6c0.6,0.1,0.7,0.4,0.2,0.8l-2,1.6c-0.4,0.3-0.6,0.4-0.8,0.5
				c-0.3,0.1-0.5,0.1-1,0.1l-4.2-0.6c-0.6-0.1-0.7-0.4-0.2-0.8l2-1.6C109.6,86.4,110,86.2,110,86.2z"/>
		</g>
		<g id="XMLID_336_" class="st12">
			<path id="XMLID_30_" class="st6" d="M89.4,91.7c-0.3,0.1-0.5,0.1-1,0.1l-4.2-0.6c-0.6-0.1-0.7-0.4-0.2-0.8l2.7-2.2
				c0.4-0.3,1.3-0.6,1.8-0.5l4.2,0.6c0.6,0.1,0.7,0.4,0.2,0.8l-2.6,2C89.9,91.4,89.7,91.6,89.4,91.7z"/>
		</g>
		<g id="XMLID_334_" class="st12">
			<path id="XMLID_29_" class="st6" d="M76.4,90.1c-0.6-0.1-0.7-0.4-0.2-0.8l2.7-2.2c0.4-0.3,1.3-0.6,1.8-0.5l3.9,0.5
				c0.6,0.1,0.7,0.4,0.2,0.8l-2.7,2.2c-0.4,0.3-1.3,0.6-1.8,0.5L76.4,90.1z"/>
		</g>
		<g id="XMLID_332_" class="st12">
			<path id="XMLID_28_" class="st6" d="M60,87.8c-0.6-0.1-0.7-0.4-0.2-0.8l2.7-2.2c0.4-0.3,1.3-0.6,1.8-0.5l4.2,0.6
				c0.6,0.1,0.7,0.4,0.2,0.8l-2.7,2.2c-0.4,0.3-1.3,0.6-1.8,0.5L60,87.8z"/>
		</g>
		<g id="XMLID_330_" class="st12">
			<path id="XMLID_27_" class="st6" d="M92.1,92.2c-0.6-0.1-0.7-0.4-0.2-0.8l2.7-2.2c0.4-0.3,1.3-0.6,1.8-0.5l4.2,0.6
				c0.6,0.1,0.7,0.4,0.2,0.8l-2.7,2.2c-0.4,0.3-1.3,0.6-1.8,0.5L92.1,92.2z"/>
		</g>
		<g id="XMLID_328_" class="st12">
			<path id="XMLID_26_" class="st6" d="M68,88.9c-0.6-0.1-0.7-0.4-0.2-0.8l2.7-2.2c0.4-0.3,1.3-0.6,1.8-0.5l4.5,0.6
				c0.6,0.1,0.7,0.4,0.2,0.8l-2.6,2c-0.4,0.3-1.3,0.6-1.8,0.5L68,88.9z"/>
		</g>
		<g id="XMLID_326_" class="st12">
			<path id="XMLID_25_" class="st6" d="M100.1,93.3c-0.6-0.1-0.7-0.4-0.2-0.8l2.4-1.9c0.4-0.3,0.6-0.5,0.9-0.6
				c0.3-0.1,0.5-0.2,1.1-0.1l4.3,0.6c0.6,0.1,0.7,0.4,0.2,0.8l-2.7,2.2c-0.4,0.3-1.3,0.6-1.8,0.5L100.1,93.3z"/>
		</g>
		<g id="XMLID_324_" class="st12">
			<path id="XMLID_24_" class="st6" d="M123.3,87.9c0.6,0.1,0.7,0.4,0.2,0.8l-2.1,1.7c-0.4,0.3-1.3,0.6-1.8,0.5l-4.2-0.6
				c-0.6-0.1-0.7-0.4-0.2-0.8l2.1-1.7c0.4-0.3,1.3-0.6,1.8-0.5L123.3,87.9z"/>
		</g>
		<g id="XMLID_322_" class="st12">
			<path id="XMLID_23_" class="st6" d="M113.4,95c0,0-0.5,0.2-1.1,0.1l-4.3-0.6c-0.6-0.1-0.7-0.4-0.2-0.8l2.7-2.2
				c0.4-0.3,1.3-0.6,1.8-0.5l4.2,0.6c0.6,0.1,0.7,0.4,0.2,0.8l-2.5,2C113.9,94.7,113.5,94.9,113.4,95z"/>
		</g>
		<g id="XMLID_320_" class="st12">
			<path id="XMLID_22_" class="st6" d="M66.8,78.8c0,0-0.5-0.1-1-0.1l-4.2-0.6c-0.6-0.1-0.7-0.4-0.2-0.8l2.2-1.8
				c0.4-0.3,1.3-0.6,1.8-0.5l4.2,0.6c0.6,0.1,0.7,0.4,0.2,0.8l-2.2,1.8C67.2,78.5,66.8,78.8,66.8,78.8z"/>
		</g>
		<g id="XMLID_318_" class="st12">
			<path id="XMLID_20_" class="st6" d="M93.6,82.5c-0.6-0.1-0.7-0.4-0.2-0.8l2.2-1.8c0.4-0.3,1.3-0.6,1.8-0.5l4.2,0.6
				c0.6,0.1,0.7,0.4,0.2,0.8l-2.2,1.8c-0.4,0.3-1.3,0.6-1.8,0.5L93.6,82.5z"/>
		</g>
		<g id="XMLID_316_" class="st12">
			<path id="XMLID_19_" class="st6" d="M49.7,85.6c-0.4,0.3-1.3,0.6-1.8,0.5l-4.9-0.7c-0.6-0.1-0.7-0.4-0.2-0.8l2.7-2.2
				c0.4-0.3,1.3-0.6,1.8-0.5l4.9,0.7c0.6,0.1,0.7,0.4,0.2,0.8L49.7,85.6z"/>
		</g>
		<g id="XMLID_314_" class="st12">
			<path id="XMLID_18_" class="st6" d="M77.5,80.3c-0.6-0.1-0.7-0.4-0.2-0.8l2.1-1.7c0.4-0.3,0.9-0.5,0.9-0.5c0,0,0.5-0.2,1.1-0.1
				l4.6,0.6c0.6,0.1,0.7,0.4,0.2,0.8l-2.2,1.8c-0.4,0.3-1.3,0.6-1.8,0.5L77.5,80.3z"/>
		</g>
		<g id="XMLID_312_" class="st12">
			<path id="XMLID_17_" class="st6" d="M85.9,81.5c-0.6-0.1-0.7-0.4-0.2-0.8l2.1-1.7c0.4-0.3,0.8-0.5,0.8-0.5c0,0,0.5-0.2,1.1-0.1
				l3.9,0.5c0.6,0.1,0.7,0.4,0.2,0.8l-2.2,1.8c-0.4,0.3-1.3,0.6-1.8,0.5L85.9,81.5z"/>
		</g>
		<g id="XMLID_310_" class="st12">
			<path id="XMLID_16_" class="st6" d="M106.8,84.2c0,0-0.4,0.1-1,0l-4.2-0.6c-0.6-0.1-0.7-0.4-0.2-0.8l2.2-1.8
				c0.4-0.3,1.3-0.6,1.8-0.5l4.2,0.6c0.6,0.1,0.7,0.4,0.2,0.8l-2.2,1.7C107.2,84.1,106.8,84.2,106.8,84.2z"/>
		</g>
		<g id="XMLID_308_" class="st12">
			<path id="XMLID_15_" class="st6" d="M69.5,79.2c-0.6-0.1-0.7-0.4-0.2-0.8l2.2-1.8c0.4-0.3,1.3-0.6,1.8-0.5l4.2,0.6
				c0.6,0.1,0.7,0.4,0.2,0.8l-2.2,1.8c-0.4,0.3-1.3,0.6-1.8,0.5L69.5,79.2z"/>
		</g>
		<g id="XMLID_306_" class="st12">
			<path id="XMLID_244_" class="st6" d="M51.3,81.3c-0.6-0.1-0.7-0.4-0.2-0.8l2.1-1.7c0.4-0.3,1.3-0.6,1.8-0.5l4.2,0.6
				c0.6,0.1,0.7,0.4,0.2,0.8l-2.1,1.7c-0.4,0.3-1.3,0.6-1.8,0.5L51.3,81.3z"/>
		</g>
	</g>
</g>
</svg>
