<?xml version="1.0" encoding="utf-8"?>
<!-- Generator: Adobe Illustrator 19.0.0, SVG Export Plug-In . SVG Version: 6.00 Build 0)  -->
<svg version="1.1" id="Capa_1" xmlns="http://www.w3.org/2000/svg" xmlns:xlink="http://www.w3.org/1999/xlink" x="0px" y="0px"
	 viewBox="0 0 152.6 151.3" style="enable-background:new 0 0 152.6 151.3;" xml:space="preserve">
<style type="text/css">
	.st0{fill:#222222;}
	.st1{fill:#424242;}
	.st2{fill:#303031;}
	.st3{fill:#7A7A7A;}
	.st4{fill:#979797;}
	.st5{fill:#BDBCBC;}
	.st6{fill:#4E4E4E;}
	.st7{fill:#A3A2A2;}
	.st8{fill:#151515;}
	.st9{fill:#A7A7A7;}
	.st10{fill:#DFDFDF;}
	.st11{fill:#515050;}
</style>
<g id="XMLID_15_">
	<polygon id="XMLID_227_" class="st0" points="77.2,136.7 72.8,141.8 64.2,143.6 68.8,138.4 	"/>
	<polygon id="XMLID_226_" class="st1" points="64.2,146.6 64.2,143.6 72.8,141.8 106.2,145.2 114.3,148.7 114.4,151.3 	"/>
	<polygon id="XMLID_225_" class="st2" points="77.2,136.7 72.8,141.8 106.2,145.2 110.4,139.9 	"/>
	<polygon id="XMLID_224_" class="st1" points="4.8,138.8 1.5,115.3 1.5,91.4 7,86.4 7.3,27.4 41.8,30.1 41.1,89.5 43.3,91.7 
		42.9,112.7 46.2,113 46.2,119.6 43.6,142.5 	"/>
	<polygon id="XMLID_223_" class="st3" points="47.3,56.6 46.5,109.5 145.1,118.4 147.5,64.7 	"/>
	<g id="XMLID_220_" transform="matrix( 5.4611968994140625, 0, 0, 5.4611968994140625, -1916.8,-814.8) ">
		<g id="XMLID_221_">
			<g id="Layer0_0_FILL">
				<path id="XMLID_222_" class="st3" d="M352.3,154.2l6.3,0.5l0.1-0.1l1.5,0.1l0.3-0.2l-9.2-0.7L351,154l1.5,0.1L352.3,154.2z"/>
			</g>
		</g>
	</g>
	<g id="XMLID_217_" transform="matrix( 5.4611968994140625, 0, 0, 5.4611968994140625, -1916.8,-814.8) ">
		<g id="XMLID_218_">
			<g id="Layer0_1_FILL">
				<path id="XMLID_219_" class="st2" d="M365.3,150.7l-7.9-0.6l-4.8,3.7l7.9,0.6v0.4L365.3,150.7z"/>
			</g>
		</g>
	</g>
	<g id="XMLID_214_" transform="matrix( 5.4611968994140625, 0, 0, 5.4611968994140625, -1916.8,-814.8) ">
		<g id="XMLID_215_">
			<g id="Layer0_2_FILL">
				<path id="XMLID_216_" class="st4" d="M356.9,150.5l0.5-0.3l-0.4,0L356.9,150.5z"/>
			</g>
		</g>
	</g>
	<g id="XMLID_211_" transform="matrix( 5.4611968994140625, 0, 0, 5.4611968994140625, -1916.8,-814.8) ">
		<g id="XMLID_212_">
			<g id="Layer0_3_FILL">
				<path id="XMLID_213_" class="st5" d="M361.1,157.2l-0.6-2v-0.8l-0.3,0.2l-0.1,4l5.6,0.5l0.2-9.3l-0.2,0.2l0,0.7l-0.7,3
					L361.1,157.2z"/>
			</g>
		</g>
	</g>
	<g id="XMLID_208_" transform="matrix( 5.4611968994140625, 0, 0, 5.4611968994140625, -1916.8,-814.8) ">
		<g id="XMLID_209_">
			<g id="Layer0_4_FILL">
				<path id="XMLID_210_" class="st6" d="M365.3,150.7l-4.8,4.1v0.4l0.5,1.7l3.6-3.3L365.3,150.7z"/>
			</g>
		</g>
	</g>
	<g id="XMLID_205_" transform="matrix( 5.4611968994140625, 0, 0, 5.4611968994140625, -1916.8,-814.8) ">
		<g id="XMLID_206_">
			<g id="Layer0_5_FILL">
				<path id="XMLID_207_" class="st3" d="M364.6,153.7l-3.6,3.3l0.1,0.3l3.9-3.5L364.6,153.7z"/>
			</g>
		</g>
	</g>
	<g id="XMLID_184_" transform="matrix( 5.4611968994140625, 0, 0, 5.4611968994140625, -1916.8,-814.8) ">
		<g id="XMLID_185_">
			<g id="Layer0_10_FILL">
				<path id="XMLID_186_" class="st3" d="M351.3,170.2v-0.3l-0.3,0.2L351.3,170.2z"/>
			</g>
		</g>
	</g>
	<g id="XMLID_181_" transform="matrix( 5.4611968994140625, 0, 0, 5.4611968994140625, -1916.8,-814.8) ">
		<g id="XMLID_182_">
			<g id="Layer0_11_FILL">
				<path id="XMLID_183_" class="st7" d="M352.3,165l0.1-10.8l0.1-0.1L351,154v11.8l0.4,0.1L352.3,165z"/>
			</g>
		</g>
	</g>
	<g id="XMLID_168_" transform="matrix( 5.4611968994140625, 0, 0, 5.4611968994140625, -1916.8,-814.8) ">
		<g id="XMLID_175_">
			<g id="Layer0_13_FILL">
				<path id="XMLID_176_" class="st8" d="M359,158.8l-0.2,11l19.3,1.7l0.5-11.2L359,158.8 M359.5,169.2l0.1-9.7h0L378,161l-0.4,9.8
					L359.5,169.2z"/>
			</g>
		</g>
	</g>
	<g id="XMLID_157_" transform="matrix( 5.4611968994140625, 0, 0, 5.4611968994140625, -1916.8,-814.8) ">
		<g id="XMLID_166_">
			<g id="Layer0_14_FILL">
				<path id="XMLID_167_" class="st9" d="M358.9,166v-0.2l-0.3-0.3l-0.1,0.1L358.9,166z"/>
			</g>
		</g>
	</g>
	<g id="XMLID_154_" transform="matrix( 5.4611968994140625, 0, 0, 5.4611968994140625, -1916.8,-814.8) ">
		<g id="XMLID_155_">
			<g id="Layer0_17_FILL">
				<path id="XMLID_156_" d="M359.3,158.6l-0.2,0.2l19.7,1.6l0.2-0.2L359.3,158.6z"/>
			</g>
		</g>
	</g>
	<g id="XMLID_149_" transform="matrix( 5.4611968994140625, 0, 0, 5.4611968994140625, -1916.8,-814.8) ">
		<g id="XMLID_152_">
			<g id="Layer0_18_FILL">
				<path id="XMLID_153_" class="st6" d="M360.6,170l-1.1-0.1v1.2L360.6,170z"/>
			</g>
		</g>
	</g>
	<g id="XMLID_64_" transform="matrix( 5.4611968994140625, 0, 0, 5.4611968994140625, -1916.8,-814.8) ">
		<g id="XMLID_66_">
			<g id="Layer0_19_FILL">
				<path id="XMLID_67_" class="st7" d="M358.9,165.8l0.1-6.9l0.2-0.2l0.9,0.1l0.1-4l-1.5-0.1l-0.2,10.9L358.9,165.8z"/>
			</g>
		</g>
	</g>
	<g id="XMLID_61_" transform="matrix( 5.4611968994140625, 0, 0, 5.4611968994140625, -1916.8,-814.8) ">
		<g id="XMLID_62_">
			<g id="Layer0_26_FILL">
				<path id="XMLID_63_" class="st5" d="M363.6,170.3l-2.7-0.3l-1,1l0,3.3L363.6,170.3z"/>
			</g>
		</g>
	</g>
	<g id="XMLID_58_" transform="matrix( 5.4611968994140625, 0, 0, 5.4611968994140625, -1916.8,-814.8) ">
		<g id="XMLID_59_">
			<g id="Layer0_28_FILL">
				<path id="XMLID_60_" class="st3" d="M360.9,170l-0.4,0l-1.1,1.1l0.5-0.1L360.9,170z"/>
			</g>
		</g>
	</g>
	<g id="XMLID_55_" transform="matrix( 5.4611968994140625, 0, 0, 5.4611968994140625, -1916.8,-814.8) ">
		<g id="XMLID_56_">
			<g id="Layer0_31_FILL">
				<path id="XMLID_57_" class="st3" d="M366,149.8l-8.7-0.6l-0.3,0.2l8.7,0.6L366,149.8z"/>
			</g>
		</g>
	</g>
	<g id="XMLID_104_" transform="matrix( 5.4611968994140625, 0, 0, 5.4611968994140625, -1916.8,-814.8) ">
		<g id="XMLID_105_">
			<g id="Layer0_32_FILL">
				<path id="XMLID_54_" class="st7" d="M357,150.1l0.4,0v-0.7l-0.4,0V150.1z"/>
			</g>
		</g>
	</g>
	<g id="XMLID_101_" transform="matrix( 5.4611968994140625, 0, 0, 5.4611968994140625, -1916.8,-814.8) ">
		<g id="XMLID_102_">
			<g id="Layer0_33_FILL">
				<path id="XMLID_103_" class="st7" d="M365.3,150l-7.9-0.6v0.7l7.9,0.6L365.3,150z"/>
			</g>
		</g>
	</g>
	<g id="XMLID_98_" transform="matrix( 5.4611968994140625, 0, 0, 5.4611968994140625, -1916.8,-814.8) ">
		<g id="XMLID_99_">
			<g id="Layer0_34_FILL">
				<path id="XMLID_100_" class="st7" d="M365.7,150.8l0-0.7l-0.4,0l0,0.7L365.7,150.8z"/>
			</g>
		</g>
	</g>
	<g id="XMLID_52_" transform="matrix( 5.4611968994140625, 0, 0, 5.4611968994140625, -1916.8,-814.8) ">
		<g id="XMLID_269_">
			<g id="XMLID_270_">
				<g id="Layer0_35_FILL_8_">
					<path id="XMLID_271_" class="st10" d="M359,175.3l0.9-1l0-3.3l-0.5,0.1L359,175.3z"/>
				</g>
			</g>
		</g>
	</g>
	<g id="XMLID_48_" transform="matrix( 5.4611968994140625, 0, 0, 5.4611968994140625, -1916.8,-814.8) ">
		<g id="XMLID_50_">
			<g id="Layer0_36_FILL">
				<path id="XMLID_51_" class="st4" d="M365.7,150.8l-0.4,0l-0.7,2.9l0.4,0.1L365.7,150.8z"/>
			</g>
		</g>
	</g>
	<g id="XMLID_30_" transform="matrix( 5.4611968994140625, 0, 0, 5.4611968994140625, -1916.8,-814.8) ">
		<g id="XMLID_266_">
			<g id="XMLID_267_">
				<g id="Layer0_39_FILL_8_">
					<path id="XMLID_268_" class="st10" d="M351,173.4l0.9,1.2l-0.6-4.4l-0.3,0V173.4z"/>
				</g>
			</g>
		</g>
	</g>
	<g id="XMLID_27_" transform="matrix( 5.4611968994140625, 0, 0, 5.4611968994140625, -1916.8,-814.8) ">
		<g id="XMLID_28_">
			<g id="Layer0_40_FILL">
				<path id="XMLID_29_" class="st5" d="M358.6,154.7l-0.1,10.9l0.1-0.1l0.2-10.9L358.6,154.7z"/>
			</g>
		</g>
	</g>
	<g id="XMLID_24_" transform="matrix( 5.4611968994140625, 0, 0, 5.4611968994140625, -1916.8,-814.8) ">
		<g id="XMLID_25_">
			<g id="Layer0_46_FILL">
				<path id="XMLID_26_" d="M378.9,160.2l-0.2,0.2l-0.5,11.2l0.2-0.2L378.9,160.2z"/>
			</g>
		</g>
	</g>
	<g id="XMLID_20_" transform="matrix( 5.4611968994140625, 0, 0, 5.4611968994140625, -1916.8,-814.8) ">
		<g id="XMLID_22_">
			<g id="Layer0_47_FILL">
				<path id="XMLID_23_" class="st7" d="M359.7,159.6l-0.1,9.6l18,1.6l0.4-9.8L359.7,159.6z"/>
			</g>
		</g>
	</g>
	
		<ellipse id="XMLID_19_" transform="matrix(0.9992 4.082569e-002 -4.082569e-002 0.9992 4.6904 -0.8752)" class="st7" cx="23.8" cy="114.4" rx="3.4" ry="3.1"/>
	<polygon id="XMLID_18_" class="st0" points="114.3,148.7 118.6,143.3 110.4,139.9 106.2,145.2 	"/>
	<polygon id="XMLID_17_" class="st2" points="114.3,148.7 114.4,151.3 118.6,145.9 118.6,143.3 	"/>
	<path id="XMLID_16_" class="st11" d="M98.1,117.7L84,116.4V140h0c0,0.1,0,0.1,0,0.2c0,1.5,3.2,2.7,7.1,2.7s7.1-1.2,7.1-2.7
		c0-0.1,0-0.1,0-0.2h0V117.7z"/>
</g>
</svg>
