<?xml version="1.0" encoding="utf-8"?>
<!-- Generator: Adobe Illustrator 19.0.0, SVG Export Plug-In . SVG Version: 6.00 Build 0)  -->
<svg version="1.1" id="Capa_1" xmlns="http://www.w3.org/2000/svg" xmlns:xlink="http://www.w3.org/1999/xlink" x="0px" y="0px"
	 viewBox="163 154.2 922.4 533.7" style="enable-background:new 163 154.2 922.4 533.7;" xml:space="preserve">
<style type="text/css">
	.st0{fill:#FFFFFF;}
	.st1{fill:#0B84C7;}
	.st2{fill:#E8E8E9;}
	.st3{fill:#293F91;}
	.st4{fill:#6AC5DE;stroke:#186782;stroke-width:2;stroke-miterlimit:10;}
	.st5{fill:#222222;}
	.st6{fill:#424242;}
	.st7{fill:#303031;}
	.st8{fill:#7A7A7A;}
	.st9{fill:#979797;}
	.st10{fill:#BDBCBC;}
	.st11{fill:#4E4E4E;}
	.st12{fill:#A3A2A2;}
	.st13{fill:#151515;}
	.st14{fill:#A7A7A7;}
	.st15{fill:#DFDFDF;}
	.st16{fill:#515050;}
	.st17{fill:#747474;}
	.st18{fill:#AEAEAE;}
	.st19{opacity:0.66;}
	.st20{fill:#222426;}
	.st21{opacity:0.38;fill:#E9E9E9;enable-background:new    ;}
	.st22{opacity:0.38;}
	.st23{fill:#796E69;}
	.st24{opacity:0.42;fill:#111111;enable-background:new    ;}
	.st25{fill:#1F1F21;}
	.st26{opacity:0.7;}
	.st27{fill:#2D4696;}
	.st28{fill:#31509D;}
	.st29{fill:#283D90;}
	.st30{fill:#273E90;}
	.st31{fill:#283272;}
	.st32{fill:#2C4494;}
	.st33{fill:#263782;}
	.st34{fill:#535252;}
</style>
<g id="XMLID_4074_">
	<g id="XMLID_4251_">
		<g id="XMLID_4252_">
			<g id="XMLID_4255_">
				<g id="XMLID_4276_">
					<path id="XMLID_4277_" class="st0" d="M320.9,218c-1.4-0.6-2.4-1.9-2.5-3.4c-0.9-14.9-10.8-27.1-23.1-28.9
						c-4.5-0.7-8.7,0-12.2,1.7c-1.6,0.8-3.6,0.1-4.6-1.7c-5.1-9.5-12.9-17.7-22.2-23c-5.5-3.1-11.5-5.3-17.8-6.2
						c-25-3.7-45.4,10.4-46.4,39.9c-0.1,1.4-1,2.5-2.3,2.8c-14.6,3-25,15.7-25,32.3c0,20.1,15.2,38.8,34.5,43.1l113.1,16.7
						c19.7,1.9,35.4-12.4,35.4-32.9C347.8,241.2,336.4,224.9,320.9,218z"/>
				</g>
				<g id="XMLID_4256_">
					<path id="XMLID_4258_" class="st1" d="M312.5,293.2l-113.2-16.7h-0.1c-20.3-4.4-36.2-24.2-36.2-45.1c0-17,10.5-30.6,26.2-33.9
						c0.6-0.1,1.1-0.7,1.1-1.3c1-28.9,20.4-45.5,48.2-41.4l0,0c6.4,0.9,12.6,3.1,18.5,6.5c9.6,5.5,17.8,13.9,23.1,23.8
						c0.2,0.5,0.6,0.7,0.9,0.8c0.4,0.2,0.9,0.2,1.3,0c4-1.9,8.5-2.6,13.1-1.9l0,0c13.4,2,23.8,14.9,24.8,30.8c0,0.7,0.7,1.3,1.3,1.6
						c16.6,7.3,28.2,24.8,28.2,42.5C349.6,280.2,333.3,295.3,312.5,293.2z M199.4,273l113,16.7c18.8,1.8,33.7-11.9,33.7-31.3
						c0-16.1-10.5-32-25.6-38.6l0,0c-2.1-0.9-3.7-3-3.8-5.2c-0.9-13.9-9.8-25.3-21.3-26.9l0,0c-4-0.6-7.9,0-11.3,1.6
						c-1.2,0.6-2.6,0.6-4,0.1c-1.3-0.5-2.4-1.5-3-2.8c-4.9-9.2-12.5-17-21.4-22.1c-5.4-3.1-11.2-5.1-17.1-6l0,0
						c-25.9-3.9-43.8,11.6-44.8,38.4c-0.1,2.2-1.4,3.8-3.5,4.2c-14.3,3-23.9,15.4-23.9,30.8C166.5,250.9,180.9,268.9,199.4,273z"/>
				</g>
			</g>
			<g id="XMLID_4253_">
				<path id="XMLID_4254_" class="st2" d="M237.5,158.6c-24.7-3.6-44.8,10.8-44.8,40.8c0,0.1,0,0.1-0.1,0.1
					c-15.1,2.1-26.3,14.7-26.3,31.6c0,19.4,14.7,37.5,33.3,41.6l46.8,6.9l0,0v-30l0,0c0,0-2.6-0.4-5-0.7c-1.6-0.2-2.6-2.2-1.8-3.5
					l6.6-10.7l8.4-13.6l0,0v-56.4C249.4,161.6,243.6,159.5,237.5,158.6z"/>
			</g>
		</g>
	</g>
	<g id="XMLID_4085_" transform="matrix( 2.2337799072265625, 0, 0, 2.2337799072265625, -615.8,-92.35) ">
		<g id="XMLID_4167_">
			<g id="Layer0_160_MEMBER_33_FILL_1_">
				<path id="XMLID_4168_" class="st3" d="M402.9,144.9h-1.4l-0.9,0.5c-0.3,0.2-0.4,0.5-0.5,0.9v4.7l0.6,1.3l0.8,0.7l1.3,0.4
					l2.1-0.4c0.5-0.4,0.7-1,0.7-1.9v-0.3l-1.9-0.2l-0.2,1.2l-0.8,0.3l-0.6-0.6c-0.2-0.3-0.2-0.9-0.2-1.6v-0.5l3.6,0.5l-0.2-2.6
					l-0.4-1.1l-0.9-0.9L402.9,144.9 M402,148v-0.3l0.2-1.2l0.7-0.2c0.4,0,0.6,0.1,0.7,0.4l0.2,1.2v0.3L402,148 M409.1,143.8
					l-1.9-0.2v2.2l-0.7-0.1v1.4l0.7,0.1v4.8c0,0.8,0.1,1.4,0.4,1.6l1.2,0.5l0.5,0.1h0.6v-1.5h-0.2c-0.2,0-0.4-0.1-0.5-0.2l-0.1-0.9
					v-4.3l0.8,0.1V146l-0.8-0.1V143.8 M391.7,145.5l0.5,0.2v-2.3l-1.1,0.2c-0.3,0.2-0.6,0.5-0.9,1v-1.3l-1.8-0.3v8.1l1.9,0.3v-4.8
					c0-0.4,0.1-0.6,0.4-0.9L391.7,145.5 M379.7,141.7v-2.2l-1.9-0.2v2.2l-0.7-0.2v1.4l0.7,0.2v4.9c0,0.8,0.1,1.3,0.4,1.6l1.2,0.5
					l1.1,0.2v-1.5h-0.1l-0.2,0.1l-0.5-0.2l-0.1-0.9v-4.3l0.8,0.2v-1.4L379.7,141.7 M382.1,142.7l-0.5,0.9l-0.2,2.2l0.2,2.6l0.5,1.3
					l0.9,0.7l1.2,0.4c0.9,0.2,1.6,0,2.1-0.4c0.5-0.4,0.7-1,0.7-1.9v-0.3l-1.8-0.2l-0.2,1c-0.2,0.3-0.4,0.4-0.8,0.3
					c-0.3-0.1-0.5-0.2-0.6-0.5c-0.2-0.4-0.2-0.9-0.2-1.7v-0.5l3.6,0.5l-0.1-2.6l-0.5-1.1l-0.9-0.9l-1.2-0.4l-1.3,0.1
					C382.6,142.3,382.3,142.4,382.1,142.7 M383.4,145.2v-0.3l0.2-1.1c0.2-0.2,0.4-0.3,0.7-0.2l0.7,0.4l0.2,1.2v0.3L383.4,145.2
					 M396.8,144.1l-0.9,0.1l-0.8,0.7V144l-1.8-0.2v8.1l1.9,0.2v-5.2c0-0.6,0.1-1,0.2-1.2s0.3-0.3,0.7-0.3l0.6,0.4l0.2,1.1v5.5
					l1.8,0.2v-6.4l-0.5-1.5C397.9,144.3,397.4,144.1,396.8,144.1 M369,137.4l-2-0.3v10.8l2,0.3V137.4 M374.3,140.7l-1,0.2l-0.7,0.6
					v-0.8l-1.9-0.3v8.1l1.9,0.3v-5.2c0-0.6,0.1-1,0.2-1.2s0.3-0.3,0.6-0.2c0.3,0.1,0.5,0.2,0.7,0.4l0.2,1v5.4l1.8,0.3v-6.4l-0.5-1.5
					C375.4,141,374.9,140.8,374.3,140.7z"/>
			</g>
		</g>
	</g>
	<g id="XMLID_4072_">
		<path id="XMLID_4073_" class="st4" d="M678.6,603.2l321.2,32.7c0.8,0.1,1.7,0.1,2.6,0.1c4.8-0.3,9.6-2.6,11.7-5.9l21.8-33.5
			l-7.6-1.1l-20.1,30.9c-0.8,1.2-4,2.7-7.3,2.4l-432.8-44.2l53.1-84.4l-7.5-2.2L562,580.9c-0.9,1-1.5,2-1.8,3L271,554.5l76.4-84.1
			l-7.5-2.2l-75,82.5c-1.9,2.1-2.6,4.5-1.8,6.7c0.8,2.3,3,3.8,6.1,4.1L678.6,603.2"/>
	</g>
	<g id="XMLID_4152_">
		<polygon id="XMLID_4246_" class="st5" points="398.1,511.6 390.4,520.5 375.5,523.6 383.5,514.7 		"/>
		<polygon id="XMLID_4245_" class="st6" points="375.5,528.9 375.5,523.6 390.4,520.5 448.9,526.4 463.1,532.6 463.2,537.2 		"/>
		<polygon id="XMLID_4244_" class="st7" points="398.1,511.6 390.4,520.5 448.9,526.4 456.3,517.2 		"/>
		<polygon id="XMLID_4243_" class="st6" points="271.5,515.3 265.6,474.2 265.6,432.3 275.3,423.6 275.8,320.3 336.2,324.9 
			334.9,429 338.8,432.9 338,469.6 343.9,470.1 343.9,481.7 339.3,521.7 		"/>
		<polygon id="XMLID_4242_" class="st8" points="345.7,371.4 344.4,463.9 517.1,479.6 521.2,385.6 		"/>
		<g id="XMLID_4239_" transform="matrix( 5.4611968994140625, 0, 0, 5.4611968994140625, -1916.8,-814.8) ">
			<g id="XMLID_4240_">
				<g id="Layer0_0_FILL_4_">
					<path id="XMLID_4241_" class="st8" d="M401.4,207.8l11.1,0.8l0.2-0.2l2.5,0.2l0.5-0.4l-16-1.2l-0.6,0.4l2.5,0.2L401.4,207.8z"
						/>
				</g>
			</g>
		</g>
		<g id="XMLID_4236_" transform="matrix( 5.4611968994140625, 0, 0, 5.4611968994140625, -1916.8,-814.8) ">
			<g id="XMLID_4237_">
				<g id="Layer0_1_FILL_4_">
					<path id="XMLID_4238_" class="st7" d="M424.2,201.7l-13.8-1l-8.4,6.5l13.8,1v0.7L424.2,201.7z"/>
				</g>
			</g>
		</g>
		<g id="XMLID_4233_" transform="matrix( 5.4611968994140625, 0, 0, 5.4611968994140625, -1916.8,-814.8) ">
			<g id="XMLID_4234_">
				<g id="Layer0_2_FILL_4_">
					<path id="XMLID_4235_" class="st9" d="M409.5,201.3l0.8-0.6h-0.7L409.5,201.3z"/>
				</g>
			</g>
		</g>
		<g id="XMLID_4230_" transform="matrix( 5.4611968994140625, 0, 0, 5.4611968994140625, -1916.8,-814.8) ">
			<g id="XMLID_4231_">
				<g id="Layer0_3_FILL_4_">
					<path id="XMLID_4232_" class="st10" d="M416.8,213l-1.1-3.4v-1.4l-0.5,0.4l-0.1,7l9.7,0.8l0.4-16.3l-0.4,0.4v1.3l-1.2,5.2
						L416.8,213z"/>
				</g>
			</g>
		</g>
		<g id="XMLID_4227_" transform="matrix( 5.4611968994140625, 0, 0, 5.4611968994140625, -1916.8,-814.8) ">
			<g id="XMLID_4228_">
				<g id="Layer0_4_FILL_4_">
					<path id="XMLID_4229_" class="st11" d="M424.2,201.7l-8.4,7.2v0.7l0.9,2.9l6.4-5.7L424.2,201.7z"/>
				</g>
			</g>
		</g>
		<g id="XMLID_4224_" transform="matrix( 5.4611968994140625, 0, 0, 5.4611968994140625, -1916.8,-814.8) ">
			<g id="XMLID_4225_">
				<g id="Layer0_5_FILL_4_">
					<path id="XMLID_4226_" class="st8" d="M423,206.8l-6.4,5.7l0.2,0.5l6.8-6.1L423,206.8z"/>
				</g>
			</g>
		</g>
		<g id="XMLID_4221_" transform="matrix( 5.4611968994140625, 0, 0, 5.4611968994140625, -1916.8,-814.8) ">
			<g id="XMLID_4222_">
				<g id="Layer0_10_FILL_4_">
					<path id="XMLID_4223_" class="st8" d="M399.6,235.8v-0.5l-0.5,0.4L399.6,235.8z"/>
				</g>
			</g>
		</g>
		<g id="XMLID_4218_" transform="matrix( 5.4611968994140625, 0, 0, 5.4611968994140625, -1916.8,-814.8) ">
			<g id="XMLID_4219_">
				<g id="Layer0_11_FILL_4_">
					<path id="XMLID_4220_" class="st12" d="M401.4,226.7l0.1-18.9l0.2-0.2l-2.5-0.2V228l0.7,0.1L401.4,226.7z"/>
				</g>
			</g>
		</g>
		<g id="XMLID_4213_" transform="matrix( 5.4611968994140625, 0, 0, 5.4611968994140625, -1916.8,-814.8) ">
			<g id="XMLID_4214_">
				<g id="Layer0_13_FILL_4_">
					<path id="XMLID_4215_" class="st13" d="M413.2,215.9l-0.3,19.2l33.9,3.1l0.9-19.5L413.2,215.9 M414,234.1l0.2-16.9l0,0
						l32.1,2.6l-0.8,17.2L414,234.1z"/>
				</g>
			</g>
		</g>
		<g id="XMLID_4210_" transform="matrix( 5.4611968994140625, 0, 0, 5.4611968994140625, -1916.8,-814.8) ">
			<g id="XMLID_4211_">
				<g id="Layer0_14_FILL_4_">
					<path id="XMLID_4212_" class="st14" d="M413,228.4V228l-0.6-0.5l-0.1,0.2L413,228.4z"/>
				</g>
			</g>
		</g>
		<g id="XMLID_4207_" transform="matrix( 5.4611968994140625, 0, 0, 5.4611968994140625, -1916.8,-814.8) ">
			<g id="XMLID_4208_">
				<g id="Layer0_17_FILL_4_">
					<path id="XMLID_4209_" d="M413.6,215.5l-0.4,0.4l34.5,2.8l0.4-0.4L413.6,215.5z"/>
				</g>
			</g>
		</g>
		<g id="XMLID_4204_" transform="matrix( 5.4611968994140625, 0, 0, 5.4611968994140625, -1916.8,-814.8) ">
			<g id="XMLID_4205_">
				<g id="Layer0_18_FILL_4_">
					<path id="XMLID_4206_" class="st11" d="M415.8,235.4l-1.9-0.2v2.1L415.8,235.4z"/>
				</g>
			</g>
		</g>
		<g id="XMLID_4201_" transform="matrix( 5.4611968994140625, 0, 0, 5.4611968994140625, -1916.8,-814.8) ">
			<g id="XMLID_4202_">
				<g id="Layer0_19_FILL_4_">
					<path id="XMLID_4203_" class="st12" d="M413,228l0.2-12.1l0.4-0.4l1.6,0.1l0.1-7l-2.5-0.2l-0.3,19.1L413,228z"/>
				</g>
			</g>
		</g>
		<g id="XMLID_4198_" transform="matrix( 5.4611968994140625, 0, 0, 5.4611968994140625, -1916.8,-814.8) ">
			<g id="XMLID_4199_">
				<g id="Layer0_26_FILL_4_">
					<path id="XMLID_4200_" class="st10" d="M421.2,235.9l-4.7-0.4l-1.7,1.7v5.7L421.2,235.9z"/>
				</g>
			</g>
		</g>
		<g id="XMLID_4195_" transform="matrix( 5.4611968994140625, 0, 0, 5.4611968994140625, -1916.8,-814.8) ">
			<g id="XMLID_4196_">
				<g id="Layer0_28_FILL_4_">
					<path id="XMLID_4197_" class="st8" d="M416.5,235.5l-0.6-0.1l-1.9,1.9l0.8-0.1L416.5,235.5z"/>
				</g>
			</g>
		</g>
		<g id="XMLID_4192_" transform="matrix( 5.4611968994140625, 0, 0, 5.4611968994140625, -1916.8,-814.8) ">
			<g id="XMLID_4193_">
				<g id="Layer0_31_FILL_4_">
					<path id="XMLID_4194_" class="st8" d="M425.3,200.1l-15.1-1.1l-0.5,0.4l15.2,1.1L425.3,200.1z"/>
				</g>
			</g>
		</g>
		<g id="XMLID_4189_" transform="matrix( 5.4611968994140625, 0, 0, 5.4611968994140625, -1916.8,-814.8) ">
			<g id="XMLID_4190_">
				<g id="Layer0_32_FILL_4_">
					<path id="XMLID_4191_" class="st12" d="M409.7,200.7h0.7v-1.3h-0.7V200.7z"/>
				</g>
			</g>
		</g>
		<g id="XMLID_4186_" transform="matrix( 5.4611968994140625, 0, 0, 5.4611968994140625, -1916.8,-814.8) ">
			<g id="XMLID_4187_">
				<g id="Layer0_33_FILL_4_">
					<path id="XMLID_4188_" class="st12" d="M424.2,200.4l-13.9-1v1.3l13.8,1L424.2,200.4z"/>
				</g>
			</g>
		</g>
		<g id="XMLID_4183_" transform="matrix( 5.4611968994140625, 0, 0, 5.4611968994140625, -1916.8,-814.8) ">
			<g id="XMLID_4184_">
				<g id="Layer0_34_FILL_4_">
					<path id="XMLID_4185_" class="st12" d="M424.8,201.7v-1.3h-0.7v1.3H424.8z"/>
				</g>
			</g>
		</g>
		<g id="XMLID_4176_" transform="matrix( 5.4611968994140625, 0, 0, 5.4611968994140625, -1916.8,-814.8) ">
			<g id="XMLID_37_">
				<g id="XMLID_38_">
					<g id="Layer0_35_FILL_11_">
						<path id="XMLID_39_" class="st15" d="M413.1,244.7l1.6-1.7v-5.7l-0.8,0.1L413.1,244.7z"/>
					</g>
				</g>
			</g>
		</g>
		<g id="XMLID_4173_" transform="matrix( 5.4611968994140625, 0, 0, 5.4611968994140625, -1916.8,-814.8) ">
			<g id="XMLID_4174_">
				<g id="Layer0_36_FILL_4_">
					<path id="XMLID_4175_" class="st9" d="M424.8,201.7h-0.7l-1.2,5.1l0.7,0.1L424.8,201.7z"/>
				</g>
			</g>
		</g>
		<g id="XMLID_4166_" transform="matrix( 5.4611968994140625, 0, 0, 5.4611968994140625, -1916.8,-814.8) ">
			<g id="XMLID_33_">
				<g id="XMLID_34_">
					<g id="Layer0_39_FILL_11_">
						<path id="XMLID_35_" class="st15" d="M399.1,241.5l1.6,2.1l-1.1-7.7h-0.5V241.5z"/>
					</g>
				</g>
			</g>
		</g>
		<g id="XMLID_4163_" transform="matrix( 5.4611968994140625, 0, 0, 5.4611968994140625, -1916.8,-814.8) ">
			<g id="XMLID_4164_">
				<g id="Layer0_40_FILL_4_">
					<path id="XMLID_4165_" class="st10" d="M412.5,208.7l-0.2,19.1l0.1-0.2l0.3-19.1L412.5,208.7z"/>
				</g>
			</g>
		</g>
		<g id="XMLID_4160_" transform="matrix( 5.4611968994140625, 0, 0, 5.4611968994140625, -1916.8,-814.8) ">
			<g id="XMLID_4161_">
				<g id="Layer0_46_FILL_4_">
					<path id="XMLID_4162_" d="M448,218.3l-0.4,0.4l-0.9,19.5l0.3-0.4L448,218.3z"/>
				</g>
			</g>
		</g>
		<g id="XMLID_4157_" transform="matrix( 5.4611968994140625, 0, 0, 5.4611968994140625, -1916.8,-814.8) ">
			<g id="XMLID_4158_">
				<g id="Layer0_47_FILL_4_">
					<path id="XMLID_4159_" class="st12" d="M414.3,217.2l-0.2,16.9l31.6,2.8l0.8-17.1L414.3,217.2z"/>
				</g>
			</g>
		</g>
		
			<ellipse id="XMLID_4156_" transform="matrix(4.082432e-002 -0.9992 0.9992 4.082432e-002 -180.0378 757.6557)" class="st12" cx="304.6" cy="472.6" rx="5.5" ry="5.9"/>
		<polygon id="XMLID_4155_" class="st5" points="463.1,532.6 470.7,523.1 456.3,517.2 448.9,526.4 		"/>
		<polygon id="XMLID_4154_" class="st7" points="463.1,532.6 463.2,537.2 470.7,527.7 470.7,523.1 		"/>
		<path id="XMLID_4153_" class="st16" d="M434.8,478.4l-24.7-2.3v41.2l0,0c0,0.1,0,0.2,0,0.3c0,2.6,5.5,4.7,12.4,4.7
			c6.8,0,12.4-2.1,12.4-4.7c0-0.1,0-0.2,0-0.3l0,0v-38.9H434.8z"/>
	</g>
	<g id="XMLID_4057_">
		<polygon id="XMLID_4151_" class="st5" points="686.9,543.5 679.2,552.5 664.2,555.6 672.3,546.6 		"/>
		<polygon id="XMLID_4150_" class="st6" points="664.2,560.8 664.2,555.6 679.2,552.5 737.7,558.4 751.9,564.5 752,569.2 		"/>
		<polygon id="XMLID_4149_" class="st7" points="686.9,543.5 679.2,552.5 737.7,558.4 745.1,549.2 		"/>
		<polygon id="XMLID_4148_" class="st6" points="560.3,547.3 554.4,506.2 554.4,464.3 564.1,455.5 564.6,352.3 625,356.9 
			623.7,460.9 627.6,464.8 626.8,501.5 632.7,502.1 632.7,513.6 628.1,553.7 		"/>
		<polygon id="XMLID_4147_" class="st8" points="634.5,403.4 633.2,495.9 805.9,511.6 810,417.5 		"/>
		<g id="XMLID_4144_" transform="matrix( 5.4611968994140625, 0, 0, 5.4611968994140625, -1916.8,-814.8) ">
			<g id="XMLID_4145_">
				<g id="Layer0_0_FILL_3_">
					<path id="XMLID_4146_" class="st8" d="M454.3,213.7l11.1,0.8l0.2-0.2l2.5,0.2l0.5-0.4l-16-1.2l-0.6,0.4l2.5,0.2L454.3,213.7z"
						/>
				</g>
			</g>
		</g>
		<g id="XMLID_4141_" transform="matrix( 5.4611968994140625, 0, 0, 5.4611968994140625, -1916.8,-814.8) ">
			<g id="XMLID_4142_">
				<g id="Layer0_1_FILL_3_">
					<path id="XMLID_4143_" class="st7" d="M477,207.5l-13.8-1l-8.4,6.5l13.8,1v0.7L477,207.5z"/>
				</g>
			</g>
		</g>
		<g id="XMLID_4138_" transform="matrix( 5.4611968994140625, 0, 0, 5.4611968994140625, -1916.8,-814.8) ">
			<g id="XMLID_4139_">
				<g id="Layer0_2_FILL_3_">
					<path id="XMLID_4140_" class="st9" d="M462.4,207.2l0.8-0.6h-0.7L462.4,207.2z"/>
				</g>
			</g>
		</g>
		<g id="XMLID_4135_" transform="matrix( 5.4611968994140625, 0, 0, 5.4611968994140625, -1916.8,-814.8) ">
			<g id="XMLID_4136_">
				<g id="Layer0_3_FILL_3_">
					<path id="XMLID_4137_" class="st10" d="M469.7,218.9l-1.1-3.4v-1.4l-0.5,0.4l-0.1,7l9.7,0.8l0.4-16.3l-0.4,0.4v1.3l-1.2,5.2
						L469.7,218.9z"/>
				</g>
			</g>
		</g>
		<g id="XMLID_4132_" transform="matrix( 5.4611968994140625, 0, 0, 5.4611968994140625, -1916.8,-814.8) ">
			<g id="XMLID_4133_">
				<g id="Layer0_4_FILL_3_">
					<path id="XMLID_4134_" class="st11" d="M477,207.5l-8.4,7.2v0.7l0.9,2.9l6.4-5.7L477,207.5z"/>
				</g>
			</g>
		</g>
		<g id="XMLID_4129_" transform="matrix( 5.4611968994140625, 0, 0, 5.4611968994140625, -1916.8,-814.8) ">
			<g id="XMLID_4130_">
				<g id="Layer0_5_FILL_3_">
					<path id="XMLID_4131_" class="st8" d="M475.9,212.7l-6.4,5.7l0.2,0.5l6.8-6.1L475.9,212.7z"/>
				</g>
			</g>
		</g>
		<g id="XMLID_4126_" transform="matrix( 5.4611968994140625, 0, 0, 5.4611968994140625, -1916.8,-814.8) ">
			<g id="XMLID_4127_">
				<g id="Layer0_10_FILL_3_">
					<path id="XMLID_4128_" class="st8" d="M452.4,241.7v-0.5l-0.5,0.4L452.4,241.7z"/>
				</g>
			</g>
		</g>
		<g id="XMLID_4123_" transform="matrix( 5.4611968994140625, 0, 0, 5.4611968994140625, -1916.8,-814.8) ">
			<g id="XMLID_4124_">
				<g id="Layer0_11_FILL_3_">
					<path id="XMLID_4125_" class="st12" d="M454.2,232.6l0.1-18.9l0.2-0.2l-2.5-0.2v20.6l0.7,0.1L454.2,232.6z"/>
				</g>
			</g>
		</g>
		<g id="XMLID_4118_" transform="matrix( 5.4611968994140625, 0, 0, 5.4611968994140625, -1916.8,-814.8) ">
			<g id="XMLID_4119_">
				<g id="Layer0_13_FILL_3_">
					<path id="XMLID_4120_" class="st13" d="M466,221.8l-0.3,19.2l33.9,3.1l0.9-19.5L466,221.8 M466.9,240l0.2-16.9l0,0l32.1,2.6
						l-0.8,17.2L466.9,240z"/>
				</g>
			</g>
		</g>
		<g id="XMLID_4115_" transform="matrix( 5.4611968994140625, 0, 0, 5.4611968994140625, -1916.8,-814.8) ">
			<g id="XMLID_4116_">
				<g id="Layer0_14_FILL_3_">
					<path id="XMLID_4117_" class="st14" d="M465.9,234.3v-0.4l-0.6-0.5l-0.1,0.2L465.9,234.3z"/>
				</g>
			</g>
		</g>
		<g id="XMLID_4112_" transform="matrix( 5.4611968994140625, 0, 0, 5.4611968994140625, -1916.8,-814.8) ">
			<g id="XMLID_4113_">
				<g id="Layer0_17_FILL_3_">
					<path id="XMLID_4114_" d="M466.5,221.3l-0.4,0.4l34.5,2.8l0.4-0.4L466.5,221.3z"/>
				</g>
			</g>
		</g>
		<g id="XMLID_4109_" transform="matrix( 5.4611968994140625, 0, 0, 5.4611968994140625, -1916.8,-814.8) ">
			<g id="XMLID_4110_">
				<g id="Layer0_18_FILL_3_">
					<path id="XMLID_4111_" class="st11" d="M468.7,241.3l-1.9-0.2v2.1L468.7,241.3z"/>
				</g>
			</g>
		</g>
		<g id="XMLID_4106_" transform="matrix( 5.4611968994140625, 0, 0, 5.4611968994140625, -1916.8,-814.8) ">
			<g id="XMLID_4107_">
				<g id="Layer0_19_FILL_3_">
					<path id="XMLID_4108_" class="st12" d="M465.9,233.9l0.2-12.1l0.4-0.4l1.6,0.1l0.1-7l-2.5-0.2l-0.3,19.1L465.9,233.9z"/>
				</g>
			</g>
		</g>
		<g id="XMLID_4103_" transform="matrix( 5.4611968994140625, 0, 0, 5.4611968994140625, -1916.8,-814.8) ">
			<g id="XMLID_4104_">
				<g id="Layer0_26_FILL_3_">
					<path id="XMLID_4105_" class="st10" d="M474.1,241.8l-4.7-0.4l-1.7,1.7v5.7L474.1,241.8z"/>
				</g>
			</g>
		</g>
		<g id="XMLID_4100_" transform="matrix( 5.4611968994140625, 0, 0, 5.4611968994140625, -1916.8,-814.8) ">
			<g id="XMLID_4101_">
				<g id="Layer0_28_FILL_3_">
					<path id="XMLID_4102_" class="st8" d="M469.4,241.3l-0.6-0.1l-2,2l0.8-0.1L469.4,241.3z"/>
				</g>
			</g>
		</g>
		<g id="XMLID_4097_" transform="matrix( 5.4611968994140625, 0, 0, 5.4611968994140625, -1916.8,-814.8) ">
			<g id="XMLID_4098_">
				<g id="Layer0_31_FILL_3_">
					<path id="XMLID_4099_" class="st8" d="M478.2,206l-15.1-1.1l-0.5,0.4l15.2,1.1L478.2,206z"/>
				</g>
			</g>
		</g>
		<g id="XMLID_4094_" transform="matrix( 5.4611968994140625, 0, 0, 5.4611968994140625, -1916.8,-814.8) ">
			<g id="XMLID_4095_">
				<g id="Layer0_32_FILL_3_">
					<path id="XMLID_4096_" class="st12" d="M462.6,206.5h0.7v-1.3h-0.7V206.5z"/>
				</g>
			</g>
		</g>
		<g id="XMLID_4091_" transform="matrix( 5.4611968994140625, 0, 0, 5.4611968994140625, -1916.8,-814.8) ">
			<g id="XMLID_4092_">
				<g id="Layer0_33_FILL_3_">
					<path id="XMLID_4093_" class="st12" d="M477.1,206.3l-13.9-1v1.3l13.8,1L477.1,206.3z"/>
				</g>
			</g>
		</g>
		<g id="XMLID_4088_" transform="matrix( 5.4611968994140625, 0, 0, 5.4611968994140625, -1916.8,-814.8) ">
			<g id="XMLID_4089_">
				<g id="Layer0_34_FILL_3_">
					<path id="XMLID_4090_" class="st12" d="M477.7,207.6v-1.3H477v1.3H477.7z"/>
				</g>
			</g>
		</g>
		<g id="XMLID_4081_" transform="matrix( 5.4611968994140625, 0, 0, 5.4611968994140625, -1916.8,-814.8) ">
			<g id="XMLID_29_">
				<g id="XMLID_30_">
					<g id="Layer0_35_FILL_10_">
						<path id="XMLID_31_" class="st15" d="M465.9,250.5l1.6-1.7v-5.7l-0.7,0.1L465.9,250.5z"/>
					</g>
				</g>
			</g>
		</g>
		<g id="XMLID_4078_" transform="matrix( 5.4611968994140625, 0, 0, 5.4611968994140625, -1916.8,-814.8) ">
			<g id="XMLID_4079_">
				<g id="Layer0_36_FILL_3_">
					<path id="XMLID_4080_" class="st9" d="M477.7,207.6H477l-1.2,5.1l0.7,0.1L477.7,207.6z"/>
				</g>
			</g>
		</g>
		<g id="XMLID_4071_" transform="matrix( 5.4611968994140625, 0, 0, 5.4611968994140625, -1916.8,-814.8) ">
			<g id="XMLID_25_">
				<g id="XMLID_26_">
					<g id="Layer0_39_FILL_10_">
						<path id="XMLID_27_" class="st15" d="M452,247.3l1.6,2.1l-1.1-7.7H452V247.3z"/>
					</g>
				</g>
			</g>
		</g>
		<g id="XMLID_4068_" transform="matrix( 5.4611968994140625, 0, 0, 5.4611968994140625, -1916.8,-814.8) ">
			<g id="XMLID_4069_">
				<g id="Layer0_40_FILL_3_">
					<path id="XMLID_4070_" class="st10" d="M465.4,214.5l-0.2,19.1l0.1-0.2l0.3-19.1L465.4,214.5z"/>
				</g>
			</g>
		</g>
		<g id="XMLID_4065_" transform="matrix( 5.4611968994140625, 0, 0, 5.4611968994140625, -1916.8,-814.8) ">
			<g id="XMLID_4066_">
				<g id="Layer0_46_FILL_3_">
					<path id="XMLID_4067_" d="M500.9,224.1l-0.4,0.4l-0.9,19.5l0.3-0.4L500.9,224.1z"/>
				</g>
			</g>
		</g>
		<g id="XMLID_4062_" transform="matrix( 5.4611968994140625, 0, 0, 5.4611968994140625, -1916.8,-814.8) ">
			<g id="XMLID_4063_">
				<g id="Layer0_47_FILL_3_">
					<path id="XMLID_4064_" class="st12" d="M467.2,223l-0.2,16.9l31.6,2.8l0.8-17.1L467.2,223z"/>
				</g>
			</g>
		</g>
		
			<ellipse id="XMLID_4061_" transform="matrix(4.082432e-002 -0.9992 0.9992 4.082432e-002 65.1079 1076.8259)" class="st12" cx="593.4" cy="504.5" rx="5.5" ry="5.9"/>
		<polygon id="XMLID_4060_" class="st5" points="751.9,564.5 759.4,555.1 745.1,549.2 737.7,558.4 		"/>
		<polygon id="XMLID_4059_" class="st7" points="751.9,564.5 752,569.2 759.4,559.7 759.4,555.1 		"/>
		<path id="XMLID_4058_" class="st16" d="M723.6,510.3l-24.7-2.3v41.2l0,0c0,0.1,0,0.2,0,0.3c0,2.6,5.5,4.7,12.4,4.7
			c6.8,0,12.4-2.1,12.4-4.7c0-0.1,0-0.2,0-0.3l0,0v-38.9H723.6z"/>
	</g>
	<g id="XMLID_3832_">
		<path id="XMLID_4056_" class="st13" d="M346.1,509.2l133.5,12.3c4.7,0.7,8,4.7,7.3,9l-14.2,92.8l-147.4-20.4l13.4-88.6
			C339.2,511,342.5,508.7,346.1,509.2z"/>
		<path id="XMLID_4055_" class="st17" d="M348,516.4l129.7,11.8c1.2,0.2,2,1.2,1.9,2.3L467,613c-0.2,1.1-1.3,1.9-2.5,1.7
			l-128.6-17.8c-1.2-0.2-2-1.2-1.9-2.3l11.5-76.5C345.7,517,346.8,516.2,348,516.4z"/>
		<path id="XMLID_4054_" class="st11" d="M251.3,663.9l-1.4-4.6l23.1-13l52.1-41.1L445.7,622l27.5,0.1l1.6,5.2h-0.1
			c0.2,0.7,0,1.6-0.7,2.2l-70.3,55.4c-3,2.4-7,3.4-10.9,2.9L253.2,666C252,665.8,251.3,664.9,251.3,663.9z"/>
		<g id="XMLID_4052_">
			<path id="XMLID_4053_" class="st6" d="M471.5,631.3l-67.9,53.6c-2.9,2.3-6.8,3.4-10.6,2.9l-2.8-9c2.3,0.2,3.8,0.3,4.4,0.2
				c4.7-0.9,46.9-34.6,72-54.9"/>
		</g>
		<path id="XMLID_4051_" class="st18" d="M328.4,601.7l143,19.8c1.9,0.3,2.6,2.5,1.2,3.7l-70.3,55.3c-3,2.4-7,3.4-10.9,2.9
			l-139.6-21.9c-1.9-0.3-2.6-2.5-1.2-3.7l69.2-53.9C322.2,602.1,325.3,601.2,328.4,601.7z"/>
		<g id="XMLID_4049_" class="st19">
			<path id="XMLID_4050_" class="st20" d="M457.6,619.2l-3.3,2.6c-0.3,0.2-0.7,0.4-1.1,0.3l-117.8-16.3c-0.5-0.1-0.7-0.6-0.3-0.9
				l3.6-2.8c0.1-0.1,0.3-0.1,0.5-0.1l118.2,16.3C457.8,618.3,457.9,618.9,457.6,619.2z"/>
		</g>
		<path id="XMLID_4048_" class="st21" d="M327.4,648.5l37.6,5.2c0.8,0.1,1,1,0.5,1.4L346.6,670c-1.1,0.9-2.5,1.2-4,1l-35.8-4.9
			c-0.8-0.1-1-1-0.5-1.4l20.3-16C326.9,648.5,327.2,648.4,327.4,648.5z"/>
		<g id="XMLID_4046_" class="st22">
			<path id="XMLID_4047_" class="st23" d="M308.6,663.1c0,0,2.8-2.1,6.9-5.3c2.1-1.6,4.5-3.5,7.1-5.5c1.3-1,2.6-2.1,4-3.1l0.3-0.2
				l0.1-0.1l0,0l0,0c0.1-0.1,0.2-0.1,0.4-0.1c0.4,0.1,0.9,0.1,1.3,0.2c0.9,0.1,1.8,0.2,2.7,0.4c3.6,0.5,7.1,1,10.5,1.4
				c3.4,0.4,6.5,0.9,9.2,1.2c5.4,0.7,8.9,1.1,8.9,1.1c0.1,0,0.2,0,0.2-0.1c0-0.1,0-0.2-0.1-0.2c0,0-3.6-0.5-8.9-1.3
				c-2.7-0.4-5.8-0.8-9.1-1.3c-3.3-0.5-6.9-1-10.5-1.5c-0.9-0.1-1.8-0.2-2.7-0.4c-0.4-0.1-0.9-0.1-1.3-0.2c-0.3,0-0.6,0-0.9,0.1
				c0,0-0.1,0-0.1,0.1c0,0,0,0-0.1,0.1l-0.1,0.1l-0.3,0.2c-1.3,1.1-2.7,2.1-3.9,3.1c-2.6,2-4.9,3.9-7,5.6c-4.1,3.3-6.8,5.5-6.8,5.5
				c-0.1,0.1-0.1,0.2,0,0.2C308.4,663.2,308.5,663.2,308.6,663.1z"/>
		</g>
		<path id="XMLID_4045_" class="st24" d="M470.5,628.7l0.5,1.6c0,0.1,0,0.2-0.1,0.3l-3.3,2.6c-0.2,0.1-0.4,0.1-0.5-0.1l-0.5-1.6
			c0-0.1,0-0.2,0.1-0.3l3.3-2.6C470.2,628.4,470.4,628.5,470.5,628.7z"/>
		<path id="XMLID_4044_" class="st24" d="M463.3,634.2l0.5,1.6c0,0.1,0,0.2-0.1,0.3l-3.3,2.6c-0.2,0.1-0.4,0.1-0.5-0.1l-0.5-1.6
			c0-0.1,0-0.2,0.1-0.3l3.3-2.6C462.9,634,463.2,634,463.3,634.2z"/>
		<path id="XMLID_4043_" class="st24" d="M456.5,639.6l0.5,1.6c0,0.1,0,0.2-0.1,0.3l-3.3,2.6c-0.2,0.1-0.4,0.1-0.5-0.1l-0.5-1.6
			c0-0.1,0-0.2,0.1-0.3l3.3-2.6C456.1,639.3,456.4,639.4,456.5,639.6z"/>
		<g id="XMLID_3973_">
			<path id="XMLID_4042_" class="st25" d="M301.2,641l4.5,0.6c0.8,0.1,2-0.2,2.6-0.7l0.7-0.5c0.2-0.1,0.3-0.3,0.3-0.4
				c0.3,0.2,0.2,0.5-0.2,0.8l-0.7,0.5c-0.6,0.5-1.8,0.8-2.6,0.7l-4.5-0.6c-0.5-0.1-0.7-0.3-0.6-0.6C300.9,641,301,641,301.2,641z"/>
			<path id="XMLID_4041_" class="st25" d="M332.8,645.8l42.6,5.9c0.8,0.1,1.9-0.2,2.5-0.7l4.7-3.7c0.2-0.1,0.3-0.3,0.3-0.4
				c0.3,0.2,0.2,0.5-0.2,0.9l-4.7,3.7c-0.6,0.5-1.8,0.8-2.5,0.7l-42.6-5.9c-0.5-0.1-0.8-0.3-0.7-0.6
				C332.4,645.7,332.5,645.8,332.8,645.8z"/>
			<path id="XMLID_4040_" class="st25" d="M310.3,642.7l5.1,0.7c0.8,0.1,1.9-0.2,2.5-0.7l4.7-3.7c0.2-0.1,0.3-0.3,0.3-0.4
				c0.3,0.2,0.2,0.5-0.2,0.9l-4.7,3.7c-0.6,0.5-1.8,0.8-2.5,0.7l-5.1-0.7c-0.5-0.1-0.8-0.3-0.7-0.6
				C309.9,642.6,310.1,642.6,310.3,642.7z"/>
			<path id="XMLID_4039_" class="st25" d="M380.6,652.4l6.5,0.9c0.8,0.1,1.9-0.2,2.5-0.7l4.7-3.7c0.2-0.1,0.3-0.3,0.3-0.4
				c0.3,0.2,0.2,0.5-0.2,0.9l-4.7,3.7c-0.6,0.5-1.8,0.8-2.5,0.7l-6.5-0.9c-0.5-0.1-0.8-0.3-0.7-0.6
				C380.2,652.3,380.4,652.4,380.6,652.4z"/>
			<path id="XMLID_4038_" class="st25" d="M320.7,644.1l6.8,0.9c0.8,0.1,1.9-0.2,2.5-0.7l4.7-3.7c0.2-0.1,0.3-0.3,0.3-0.4
				c0.3,0.2,0.2,0.5-0.2,0.9l-4.7,3.7c-0.6,0.5-1.8,0.8-2.5,0.7l-6.8-0.9c-0.5-0.1-0.8-0.3-0.7-0.6
				C320.3,644,320.5,644.1,320.7,644.1z"/>
			<path id="XMLID_4037_" class="st25" d="M417.7,649.3c0.1,0.1,0.3,0.2,0.5,0.2l10.6,1.5c0.8,0.1,1.9-0.2,2.5-0.7l3.8-3
				c0.2-0.1,0.3-0.3,0.3-0.4c0.3,0.2,0.2,0.5-0.2,0.9l-3.8,3c-0.6,0.5-1.8,0.8-2.5,0.7l-10.6-1.5
				C417.8,649.8,417.6,649.6,417.7,649.3z"/>
			<path id="XMLID_4036_" class="st25" d="M392.4,654l5.6,0.8c0.8,0.1,1.9-0.2,2.5-0.7l4.7-3.7c0.2-0.1,0.3-0.3,0.3-0.4
				c0.3,0.2,0.2,0.5-0.2,0.9l-4.7,3.7c-0.6,0.5-1.8,0.8-2.5,0.7l-5.6-0.8c-0.5-0.1-0.8-0.3-0.7-0.6C392,653.9,392.2,654,392.4,654z"
				/>
			<path id="XMLID_4035_" class="st25" d="M403.3,655.5l4.9,0.7c0.8,0.1,1.9-0.2,2.5-0.7l4.7-3.7c0.2-0.1,0.3-0.3,0.3-0.4
				c0.3,0.2,0.2,0.5-0.2,0.9l-4.7,3.7c-0.6,0.5-1.8,0.8-2.5,0.7l-4.9-0.7c-0.5-0.1-0.8-0.3-0.7-0.6
				C402.9,655.4,403.1,655.5,403.3,655.5z"/>
			<path id="XMLID_4034_" class="st25" d="M413.5,657l6.6,0.9c0.8,0.1,1.9-0.2,2.5-0.7l4.7-3.7c0.2-0.1,0.3-0.3,0.3-0.4
				c0.3,0.2,0.2,0.5-0.2,0.9l-4.7,3.7c-0.6,0.5-1.8,0.8-2.5,0.7l-6.6-0.9c-0.5-0.1-0.8-0.3-0.7-0.6
				C413.1,656.8,413.3,656.9,413.5,657z"/>
			<path id="XMLID_4033_" class="st25" d="M365.2,624.3l-2.7,2.1c-0.6,0.5-1.2,0.7-1.2,0.8c0,0-0.7,0.2-1.5,0.1l-5.4-0.8
				c-0.5-0.1-0.8-0.3-0.7-0.6c0.1,0.1,0.3,0.2,0.5,0.2l5.4,0.8c0.8,0.1,1.5-0.1,1.5-0.1s0.6-0.3,1.2-0.8l2.7-2.1
				c0.2-0.1,0.3-0.3,0.3-0.4C365.7,623.7,365.6,624,365.2,624.3z"/>
			<path id="XMLID_4032_" class="st25" d="M298.1,640.6c0.9,0.1,2.1-0.2,2.8-0.7l0.8-0.6c0.1-0.1,0.2-0.2,0.2-0.3
				c0.1,0.1,0.2,0.2,0.2,0.3c-0.1,0.1-0.3,0.2-0.4,0.3l-0.8,0.6c-0.2,0.2-0.3,0.3-0.3,0.5c-0.7,0.4-1.6,0.6-2.4,0.5l-4.7-0.7
				c-0.5-0.1-0.6-0.3-0.5-0.5c0.1,0,0.2,0.1,0.3,0.1L298.1,640.6z"/>
			<path id="XMLID_4031_" class="st25" d="M376.3,625.9l-2.9,2.3c-0.6,0.5-1.2,0.6-1.2,0.6s-0.6,0.2-1.4,0.1l-5.8-0.8
				c-0.5-0.1-0.8-0.3-0.7-0.6c0.1,0.1,0.3,0.2,0.5,0.2l5.8,0.8c0.8,0.1,1.4,0,1.4-0.1c0,0,0.6-0.2,1.2-0.6l2.9-2.3
				c0.2-0.1,0.3-0.3,0.3-0.4C376.8,625.2,376.7,625.5,376.3,625.9z"/>
			<path id="XMLID_4030_" class="st25" d="M387.3,627.4l-2.9,2.3c-0.6,0.5-1.8,0.8-2.5,0.7l-5.8-0.8c-0.5-0.1-0.8-0.3-0.7-0.6
				c0.1,0.1,0.3,0.2,0.5,0.2l5.8,0.8c0.8,0.1,1.9-0.2,2.5-0.7l2.9-2.3c0.2-0.1,0.3-0.3,0.3-0.4C387.8,626.7,387.7,627.1,387.3,627.4
				z"/>
			<path id="XMLID_4029_" class="st25" d="M331.7,623l5.8,0.8c0.8,0.1,1.9-0.2,2.5-0.7l2.9-2.3c0.2-0.1,0.3-0.3,0.3-0.4
				c0.3,0.2,0.2,0.5-0.2,0.9l-2.9,2.3c-0.6,0.5-1.8,0.8-2.5,0.7l-5.8-0.8c-0.5-0.1-0.8-0.3-0.7-0.6
				C331.3,622.9,331.5,622.9,331.7,623z"/>
			<path id="XMLID_4028_" class="st25" d="M354.6,622.9l-2.9,2.3c-0.6,0.5-1.3,0.6-1.3,0.6s-0.5,0.2-1.3,0.1l-6.2-0.9
				c-0.5-0.1-0.8-0.3-0.7-0.6c0.1,0.1,0.3,0.2,0.5,0.2l6.2,0.9c0.8,0.1,1.3-0.1,1.3-0.1s0.7-0.1,1.3-0.6l2.9-2.3
				c0.2-0.1,0.3-0.3,0.3-0.4C355,622.2,355,622.5,354.6,622.9z"/>
			<path id="XMLID_4027_" class="st25" d="M285.8,638.9c0.1,0,0.1,0,0.2,0.1l4.4,0.6c0.8,0.1,2-0.2,2.6-0.7l1.1-0.9l0.1-0.1
				c0.2,0.1,0.3,0.2,0.2,0.3c-0.2,0.1-0.4,0.2-0.5,0.3l-0.8,0.6c-0.1,0.1-0.2,0.2-0.3,0.3c-0.7,0.4-1.6,0.6-2.3,0.5l-4.4-0.6
				C285.7,639.3,285.6,639.1,285.8,638.9z"/>
			<path id="XMLID_4026_" class="st25" d="M321.1,628.8l6.4,0.9c0.8,0.1,1.9-0.2,2.5-0.7l3.8-3c0.2-0.1,0.3-0.3,0.3-0.4
				c0.3,0.2,0.2,0.5-0.2,0.9l-3.8,3c-0.6,0.5-1.8,0.8-2.5,0.7l-6.4-0.9c-0.5-0.1-0.8-0.3-0.7-0.6
				C320.7,628.7,320.9,628.7,321.1,628.8z"/>
			<path id="XMLID_4025_" class="st25" d="M392.6,616.6l-1.3,1c-0.6,0.5-1.8,0.8-2.5,0.7l-7.1-1c-0.5-0.1-0.8-0.3-0.7-0.6
				c0.1,0.1,0.3,0.2,0.5,0.2l7.1,1c0.8,0.1,1.9-0.2,2.5-0.7l1.3-1c0.2-0.1,0.3-0.3,0.3-0.4C393.1,615.9,393.1,616.2,392.6,616.6z"/>
			<path id="XMLID_4024_" class="st25" d="M357.6,611.7l-1.3,1c-0.6,0.5-1.8,0.8-2.5,0.7l-7.3-1c-0.5-0.1-0.8-0.3-0.7-0.6
				c0.1,0.1,0.3,0.2,0.5,0.2l7.3,1c0.8,0.1,1.9-0.2,2.5-0.7l1.3-1c0.2-0.1,0.3-0.3,0.3-0.4C358,611,358,611.4,357.6,611.7z"/>
			<path id="XMLID_4023_" class="st25" d="M334.1,608.4l-1.3,1c-0.6,0.5-1.8,0.8-2.5,0.7l-6.6-0.9c-0.5-0.1-0.8-0.3-0.7-0.6
				c0.1,0.1,0.3,0.2,0.5,0.2l6.6,0.9c0.8,0.1,1.9-0.2,2.5-0.7l1.3-1c0.2-0.1,0.3-0.3,0.3-0.4C334.5,607.8,334.5,608.1,334.1,608.4z"
				/>
			<path id="XMLID_4022_" class="st25" d="M345,610l-1.3,1c-0.6,0.5-1.8,0.8-2.5,0.7l-5.7-0.8c-0.5-0.1-0.8-0.3-0.7-0.6
				c0.1,0.1,0.3,0.2,0.5,0.2l5.7,0.8c0.8,0.1,1.9-0.2,2.5-0.7l1.3-1c0.2-0.1,0.3-0.3,0.3-0.4C345.5,609.3,345.4,609.6,345,610z"/>
			<path id="XMLID_4021_" class="st25" d="M369,613.3l-1.3,1c-0.6,0.5-1.8,0.8-2.5,0.7l-6.2-0.9c-0.5-0.1-0.8-0.3-0.7-0.6
				c0.1,0.1,0.3,0.2,0.5,0.2l6.2,0.9c0.8,0.1,1.9-0.2,2.5-0.7l1.3-1c0.2-0.1,0.3-0.3,0.3-0.4C369.5,612.6,369.4,612.9,369,613.3z"/>
			<path id="XMLID_4020_" class="st25" d="M380.3,614.8l-1.3,1c-0.6,0.5-1.8,0.8-2.5,0.7l-6-0.8c-0.5-0.1-0.8-0.3-0.7-0.6
				c0.1,0.1,0.3,0.2,0.5,0.2l6,0.8c0.8,0.1,1.9-0.2,2.5-0.7l1.3-1c0.2-0.1,0.3-0.3,0.3-0.4C380.7,614.2,380.7,614.5,380.3,614.8z"/>
			<path id="XMLID_4019_" class="st25" d="M293.8,632.3l19.8,2.7c0.8,0.1,1.3-0.1,1.3-0.1s0.7-0.2,1.3-0.7l3.7-2.9
				c0.2-0.1,0.3-0.3,0.3-0.4c0.3,0.2,0.2,0.5-0.2,0.9l-3.7,2.9c-0.6,0.5-1.3,0.6-1.3,0.7c0,0-0.6,0.2-1.3,0.1l-19.8-2.7
				c-0.5-0.1-0.8-0.3-0.7-0.6C293.3,632.1,293.5,632.2,293.8,632.3z"/>
			<path id="XMLID_4018_" class="st25" d="M420.6,642.4c0.1,0.1,0.3,0.2,0.5,0.2l15.5,2.1c0.8,0.1,1.5-0.1,1.5-0.1s0.5-0.1,1.1-0.6
				l3.8-3c0.2-0.1,0.3-0.3,0.3-0.4c0.3,0.2,0.2,0.5-0.2,0.9l-3.8,3c-0.6,0.5-1.1,0.6-1.1,0.6s-0.7,0.2-1.5,0.1l-15.5-2.1
				C420.8,643,420.5,642.7,420.6,642.4z"/>
			<path id="XMLID_4017_" class="st25" d="M316.3,614.4l13.4,1.9c0.8,0.1,1.9-0.2,2.5-0.7l2.9-2.4c0.2-0.2,0.3-0.3,0.3-0.4
				c0.3,0.2,0.2,0.5-0.2,0.9l-2.9,2.4c-0.6,0.5-1.7,0.8-2.5,0.7l-13.4-1.9c-0.5-0.1-0.8-0.3-0.7-0.6
				C315.9,614.3,316.1,614.4,316.3,614.4z"/>
			<path id="XMLID_4016_" class="st25" d="M301.6,626.1l2.3,0.3c0.8,0.1,1.9-0.2,2.5-0.7l5.3-4.2c0.6-0.5,1.2-1,1.7-1
				c0.5-0.1,1,0.1,1.8,0.2c0,0,1.2,0.1,1.6-0.1c0.5-0.2,0.6-0.2,1.2-0.7l2.7-2.1c0.2-0.1,0.3-0.3,0.3-0.4c0.3,0.2,0.2,0.5-0.2,0.9
				l-2.7,2.1c-0.6,0.5-0.7,0.5-1.2,0.7s-1.6,0.1-1.6,0.1c-0.8-0.1-1.3-0.3-1.8-0.2c-0.5,0.1-1.1,0.6-1.7,1l-5.3,4.2
				c-0.6,0.5-1.8,0.8-2.5,0.7l-2.3-0.3c-0.5-0.1-0.8-0.3-0.7-0.6C301.2,626,301.4,626,301.6,626.1z"/>
			<path id="XMLID_4015_" class="st25" d="M449.7,624.4l-1.3,1c-0.6,0.5-1.8,0.8-2.5,0.7l-6.2-0.9c-0.5-0.1-0.8-0.3-0.7-0.6
				c0.1,0.1,0.3,0.2,0.5,0.2l6.2,0.9c0.8,0.1,1.9-0.2,2.5-0.7l1.3-1c0.2-0.1,0.3-0.3,0.3-0.4C450.2,623.8,450.1,624.1,449.7,624.4z"
				/>
			<path id="XMLID_4014_" class="st25" d="M444.9,632.1c0.1,0.1,0.3,0.2,0.5,0.2l6,0.8c0.8,0.1,1.9-0.2,2.5-0.7l3.1-2.4
				c0.2-0.1,0.3-0.3,0.3-0.4c0.3,0.2,0.2,0.5-0.2,0.9l-3.1,2.4c-0.6,0.5-1.8,0.8-2.5,0.7l-6-0.8C445,632.7,444.8,632.4,444.9,632.1z
				"/>
			<path id="XMLID_4013_" class="st25" d="M438.3,622.9l-1.3,1c-0.6,0.5-1.8,0.8-2.5,0.7l-6.2-0.9c-0.5-0.1-0.8-0.3-0.7-0.6
				c0.1,0.1,0.3,0.2,0.5,0.2l6.2,0.9c0.8,0.1,1.9-0.2,2.5-0.7l1.3-1c0.2-0.1,0.3-0.3,0.3-0.4C438.8,622.2,438.7,622.5,438.3,622.9z"
				/>
			<path id="XMLID_4012_" class="st25" d="M398.4,628.9l-2.9,2.3c-0.6,0.5-1.8,0.8-2.5,0.7l-5.8-0.8c-0.5-0.1-0.8-0.3-0.7-0.6
				c0.1,0.1,0.3,0.2,0.5,0.2l5.8,0.8c0.8,0.1,1.9-0.2,2.5-0.7l2.9-2.3c0.2-0.1,0.3-0.3,0.3-0.4C398.9,628.3,398.8,628.6,398.4,628.9
				z"/>
			<path id="XMLID_4011_" class="st25" d="M430.9,636.6c0.1,0.1,0.3,0.2,0.5,0.2l13.2,1.8c0.8,0.1,1.9-0.2,2.5-0.7l2.9-2.3
				c0.2-0.1,0.3-0.3,0.3-0.4c0.3,0.2,0.2,0.5-0.2,0.9l-2.9,2.3c-0.6,0.5-1.8,0.8-2.5,0.7l-13.2-1.8
				C431,637.1,430.7,636.9,430.9,636.6z"/>
			<path id="XMLID_4010_" class="st25" d="M404,618.1l-1.3,1c-0.6,0.5-1.8,0.8-2.5,0.7l-6.1-0.8c-0.5-0.1-0.8-0.3-0.7-0.6
				c0.1,0.1,0.3,0.2,0.5,0.2l6.1,0.8c0.8,0.1,1.9-0.2,2.5-0.7l1.3-1c0.2-0.1,0.3-0.3,0.3-0.4C404.5,617.5,404.4,617.8,404,618.1z"/>
			<path id="XMLID_4009_" class="st25" d="M426.9,621.3l-1.3,1c-0.6,0.5-1.8,0.8-2.5,0.7l-6.2-0.9c-0.5-0.1-0.8-0.3-0.7-0.6
				c0.1,0.1,0.3,0.2,0.5,0.2l6.2,0.9c0.8,0.1,1.9-0.2,2.5-0.7l1.3-1c0.2-0.1,0.3-0.3,0.3-0.4C427.3,620.6,427.3,621,426.9,621.3z"/>
			<path id="XMLID_4008_" class="st25" d="M415.4,619.7l-1.3,1c-0.6,0.5-1.8,0.8-2.5,0.7l-6.2-0.9c-0.5-0.1-0.8-0.3-0.7-0.6
				c0.1,0.1,0.3,0.2,0.5,0.2l6.2,0.9c0.8,0.1,1.9-0.2,2.5-0.7l1.3-1c0.2-0.1,0.3-0.3,0.3-0.4C415.9,619,415.9,619.4,415.4,619.7z"/>
			<path id="XMLID_4007_" class="st25" d="M450.3,626.5c0,0-0.1-0.1,0-0.3c0.1,0.1,0.3,0.2,0.7,0.2l7.6,1c0.8,0.1,1.9-0.2,2.5-0.7
				l1.3-1c0.2-0.1,0.3-0.3,0.3-0.4c0.3,0.2,0.2,0.5-0.2,0.9l-1.3,1c-0.6,0.5-1.8,0.8-2.5,0.7l-7.6-1
				C450.4,626.8,450.4,626.5,450.3,626.5z"/>
			<path id="XMLID_4006_" class="st25" d="M407.3,648l5.7,0.8c0.8,0.1,1.9-0.2,2.5-0.7l3.8-3c0.2-0.1,0.3-0.3,0.3-0.4
				c0.3,0.2,0.2,0.5-0.2,0.9l-3.8,3c-0.6,0.5-1.8,0.8-2.5,0.7l-5.7-0.8c-0.5-0.1-0.8-0.3-0.7-0.6C406.9,647.9,407,647.9,407.3,648z"
				/>
			<path id="XMLID_4005_" class="st25" d="M422.4,638.7l-3.8,3c-0.6,0.5-1.8,0.8-2.5,0.7l-5.7-0.8c-0.5-0.1-0.8-0.3-0.7-0.6
				c0.1,0.1,0.3,0.2,0.5,0.2l5.7,0.8c0.8,0.1,1.9-0.2,2.5-0.7l3.8-3c0.2-0.1,0.3-0.3,0.3-0.4C422.8,638,422.8,638.3,422.4,638.7z"/>
			<path id="XMLID_4004_" class="st25" d="M431.6,633.5l-2.9,2.3c-0.6,0.5-1.8,0.8-2.5,0.7l-5.8-0.8c-0.5-0.1-0.8-0.3-0.7-0.6
				c0.1,0.1,0.3,0.2,0.5,0.2l5.8,0.8c0.8,0.1,1.9-0.2,2.5-0.7l2.9-2.3c0.2-0.1,0.3-0.3,0.3-0.4C432.1,632.9,432,633.2,431.6,633.5z"
				/>
			<path id="XMLID_4003_" class="st25" d="M396.2,646.4l5.8,0.8c0.8,0.1,1.5-0.1,1.5-0.1s0.4-0.1,1-0.6l3.8-3
				c0.2-0.1,0.3-0.3,0.3-0.4c0.3,0.2,0.2,0.5-0.2,0.9l-3.8,3c-0.6,0.5-1,0.6-1,0.6s-0.7,0.2-1.5,0.1l-5.8-0.8
				c-0.5-0.1-0.8-0.3-0.7-0.6C395.8,646.3,396,646.4,396.2,646.4z"/>
			<path id="XMLID_4002_" class="st25" d="M434.4,630.8l5.8,0.8c0.8,0.1,1.9-0.2,2.5-0.7l3.1-2.4c0.2-0.1,0.3-0.3,0.3-0.4
				c0.3,0.2,0.2,0.5-0.2,0.9l-3.1,2.4c-0.6,0.5-1.8,0.8-2.5,0.7l-5.8-0.8c-0.5-0.1-0.8-0.3-0.7-0.6
				C433.9,630.6,434.1,630.7,434.4,630.8z"/>
			<path id="XMLID_4001_" class="st25" d="M423.8,625.8l-3,2.4c-0.6,0.5-1.7,0.8-2.5,0.7l-6-0.8c-0.5-0.1-0.8-0.3-0.7-0.6
				c0.1,0.1,0.3,0.2,0.5,0.2l6,0.8c0.8,0.1,1.9-0.2,2.5-0.7l3-2.4c0.2-0.2,0.3-0.3,0.3-0.4C424.3,625.2,424.2,625.5,423.8,625.8z"/>
			<path id="XMLID_4000_" class="st25" d="M430.6,630.4c0,0-0.5,0.1-1.3,0l-5.8-0.8c-0.5-0.1-0.8-0.3-0.7-0.6
				c0.1,0.1,0.3,0.2,0.5,0.2l5.8,0.8c0.8,0.1,1.3,0,1.3,0s0.6-0.2,1.2-0.7l3.1-2.4c0.2-0.1,0.3-0.3,0.3-0.4c0.3,0.2,0.2,0.5-0.2,0.9
				l-3.1,2.4C431.2,630.3,430.6,630.4,430.6,630.4z"/>
			<path id="XMLID_3999_" class="st25" d="M385.1,644.9l5.8,0.8c0.8,0.1,1.9-0.2,2.5-0.7l3.8-3c0.2-0.1,0.3-0.3,0.3-0.4
				c0.3,0.2,0.2,0.5-0.2,0.9l-3.8,3c-0.6,0.5-1.8,0.8-2.5,0.7l-5.8-0.8c-0.5-0.1-0.8-0.3-0.7-0.6
				C384.7,644.8,384.9,644.9,385.1,644.9z"/>
			<path id="XMLID_3998_" class="st25" d="M329.9,637.2l5.8,0.8c0.8,0.1,1.9-0.2,2.5-0.7l3.8-3c0.2-0.1,0.3-0.3,0.3-0.4
				c0.3,0.2,0.2,0.5-0.2,0.9l-3.8,3c-0.6,0.5-1.8,0.8-2.5,0.7l-5.8-0.8c-0.5-0.1-0.8-0.3-0.7-0.6
				C329.4,637.1,329.6,637.2,329.9,637.2z"/>
			<path id="XMLID_3997_" class="st25" d="M318.8,635.7l5.8,0.8c0.8,0.1,1.9-0.2,2.5-0.7l3.8-3c0.2-0.1,0.3-0.3,0.3-0.4
				c0.3,0.2,0.2,0.5-0.2,0.9l-3.8,3c-0.6,0.5-1.8,0.8-2.5,0.7l-5.8-0.8c-0.5-0.1-0.8-0.3-0.7-0.6
				C318.4,635.6,318.6,635.7,318.8,635.7z"/>
			<path id="XMLID_3996_" class="st25" d="M301.4,638.5l-4.7-0.7c-0.2,0-0.4,0-0.6,0c-0.1-0.1-0.1-0.2-0.1-0.4
				c0.1,0.1,0.3,0.2,0.5,0.2l4.8,0.7c0.6,0.1,1.6-0.2,2-0.5l1.1-0.9c0.2-0.2,0.3-0.3,0.4-0.5c0.3,0.2,0.2,0.6-0.2,0.9l-1.1,0.9
				c-0.4,0.3-1,0.5-1.6,0.6C301.8,638.6,301.7,638.5,301.4,638.5z"/>
			<path id="XMLID_3995_" class="st25" d="M412.7,624.3l-3.1,2.4c-0.6,0.5-1.2,0.6-1.2,0.6s-0.6,0.2-1.4,0l-5.8-0.8
				c-0.5-0.1-0.8-0.3-0.7-0.6c0.1,0.1,0.3,0.2,0.5,0.2l5.8,0.8c0.8,0.1,1.4,0,1.4,0s0.6-0.1,1.2-0.6l3.1-2.4
				c0.2-0.1,0.3-0.3,0.3-0.4C413.2,623.6,413.2,624,412.7,624.3z"/>
			<path id="XMLID_3994_" class="st25" d="M374.1,643.4l5.8,0.8c0.8,0.1,1.9-0.2,2.5-0.7l3.8-3c0.2-0.1,0.3-0.3,0.3-0.4
				c0.3,0.2,0.2,0.5-0.2,0.9l-3.8,3c-0.6,0.5-1.8,0.8-2.5,0.7l-5.8-0.8c-0.5-0.1-0.8-0.3-0.7-0.6
				C373.7,643.3,373.9,643.3,374.1,643.4z"/>
			<path id="XMLID_3993_" class="st25" d="M363.1,641.8l5.8,0.8c0.8,0.1,1.9-0.2,2.5-0.7l3.8-3c0.2-0.1,0.3-0.3,0.3-0.4
				c0.3,0.2,0.2,0.5-0.2,0.9l-3.8,3c-0.6,0.5-1.8,0.8-2.5,0.7l-5.8-0.8c-0.5-0.1-0.8-0.3-0.7-0.6
				C362.6,641.7,362.8,641.8,363.1,641.8z"/>
			<path id="XMLID_3992_" class="st25" d="M352.4,640.4l5.4,0.7c0.8,0.1,1.4-0.1,1.5-0.2c0,0,0.6-0.2,1.2-0.7l3.6-2.9
				c0.2-0.1,0.3-0.3,0.3-0.4c0.3,0.2,0.2,0.5-0.2,0.9l-3.6,2.9c-0.6,0.5-1.2,0.6-1.2,0.7c0,0-0.7,0.3-1.5,0.2l-5.4-0.7
				c-0.5-0.1-0.8-0.3-0.7-0.6C352,640.3,352.2,640.3,352.4,640.4z"/>
			<path id="XMLID_3991_" class="st25" d="M340.9,638.8l6.2,0.9c0.8,0.1,1.9-0.2,2.5-0.7l3.8-3c0.2-0.1,0.3-0.3,0.3-0.4
				c0.3,0.2,0.2,0.5-0.2,0.9l-3.8,3c-0.6,0.5-1.8,0.8-2.5,0.7l-6.2-1c-0.5-0.1-0.8-0.3-0.7-0.6C340.5,638.7,340.7,638.7,340.9,638.8
				z"/>
			<path id="XMLID_3990_" class="st25" d="M409.5,630.5l-2.8,2.2c-0.6,0.5-0.8,0.5-1.2,0.6c-0.4,0.1-0.7,0.2-1.4,0.1l-5.8-0.8
				c-0.5-0.1-0.8-0.3-0.7-0.6c0.1,0.1,0.3,0.2,0.5,0.2l5.8,0.8c0.8,0.1,1.1,0,1.4-0.1c0.4-0.1,0.6-0.2,1.2-0.6l2.8-2.2
				c0.2-0.1,0.3-0.3,0.3-0.4C409.9,629.8,409.9,630.1,409.5,630.5z"/>
			<path id="XMLID_3989_" class="st25" d="M365.9,635l5.9,0.8c0.8,0.1,1,0.1,1.4-0.1c0.5-0.1,0.7-0.3,1.3-0.8l3.5-2.8
				c0.2-0.1,0.3-0.3,0.3-0.4c0.3,0.2,0.2,0.5-0.2,0.9l-3.5,2.8c-0.6,0.5-0.8,0.7-1.3,0.8c-0.5,0.1-0.7,0.2-1.4,0.1l-5.9-0.8
				c-0.5-0.1-0.8-0.3-0.7-0.6C365.5,634.9,365.7,634.9,365.9,635z"/>
			<path id="XMLID_3988_" class="st25" d="M355.3,633.5l5.4,0.7c0.8,0.1,1.9-0.2,2.5-0.7l3.8-3c0.2-0.1,0.3-0.3,0.3-0.4
				c0.3,0.2,0.2,0.5-0.2,0.9l-3.8,3c-0.6,0.5-1.8,0.8-2.5,0.7l-5.4-0.7c-0.5-0.1-0.8-0.3-0.7-0.6
				C354.9,633.4,355.1,633.5,355.3,633.5z"/>
			<path id="XMLID_3987_" class="st25" d="M332.8,630.4l5.8,0.8c0.8,0.1,1.9-0.2,2.5-0.7l3.8-3c0.2-0.1,0.3-0.3,0.3-0.4
				c0.3,0.2,0.2,0.5-0.2,0.9l-3.8,3c-0.6,0.5-1.8,0.8-2.5,0.7l-5.8-0.8c-0.5-0.1-0.8-0.3-0.7-0.6
				C332.3,630.3,332.5,630.3,332.8,630.4z"/>
			<path id="XMLID_3986_" class="st25" d="M377,636.5l5.8,0.8c0.8,0.1,1.9-0.2,2.5-0.7l3.8-3c0.2-0.1,0.3-0.3,0.3-0.4
				c0.3,0.2,0.2,0.5-0.2,0.9l-3.8,3c-0.6,0.5-1.8,0.8-2.5,0.7l-5.8-0.8c-0.5-0.1-0.8-0.3-0.7-0.6C376.6,636.4,376.8,636.5,377,636.5
				z"/>
			<path id="XMLID_3985_" class="st25" d="M343.8,631.9l6.4,0.8c0.8,0.1,1.9-0.2,2.6-0.7l3.6-2.8c0.2-0.1,0.3-0.3,0.3-0.4
				c0.3,0.2,0.2,0.5-0.2,0.9l-3.6,2.8c-0.6,0.5-1.8,0.8-2.6,0.7l-6.4-0.8c-0.6-0.1-0.8-0.3-0.7-0.6
				C343.4,631.8,343.6,631.8,343.8,631.9z"/>
			<path id="XMLID_3984_" class="st25" d="M388,638l5.8,0.8c0.8,0.1,1.9-0.2,2.5-0.7l3.8-3c0.2-0.1,0.3-0.3,0.3-0.4
				c0.3,0.2,0.2,0.5-0.2,0.9l-3.8,3c-0.6,0.5-1.8,0.8-2.5,0.7l-5.8-0.8c-0.5-0.1-0.8-0.3-0.7-0.6C387.6,637.9,387.8,638,388,638z"/>
			<path id="XMLID_3983_" class="st25" d="M420.5,632l-2.9,2.3c-0.6,0.5-1.8,0.8-2.5,0.7l-5.8-0.8c-0.5-0.1-0.8-0.3-0.7-0.6
				c0.1,0.1,0.3,0.2,0.5,0.2l5.8,0.8c0.8,0.1,1.9-0.2,2.5-0.7l2.9-2.3c0.2-0.1,0.3-0.3,0.3-0.4C421,631.3,421,631.7,420.5,632z"/>
			<path id="XMLID_3982_" class="st25" d="M399.1,639.5l5.9,0.8c0.8,0.1,1.4-0.1,1.5-0.1c0,0,0.7-0.3,1.3-0.8l3.5-2.7
				c0.2-0.1,0.3-0.3,0.3-0.4c0.3,0.2,0.2,0.5-0.2,0.9l-3.5,2.7c-0.6,0.5-1.2,0.7-1.3,0.8c0,0-0.7,0.2-1.5,0.1l-5.9-0.8
				c-0.5-0.1-0.8-0.3-0.7-0.6C398.7,639.4,398.9,639.5,399.1,639.5z"/>
			<path id="XMLID_3981_" class="st25" d="M346.4,615.1l-3.1,2.4c-0.6,0.5-1.1,0.9-1.1,0.9s-0.7-0.1-1.4-0.2l-5.8-0.8
				c-0.5-0.1-0.8-0.3-0.7-0.6c0.1,0.1,0.3,0.2,0.5,0.2l5.8,0.8c0.8,0.1,1.4,0.2,1.4,0.2s0.5-0.4,1.1-0.9l3.1-2.4
				c0.2-0.1,0.3-0.3,0.3-0.4C346.9,614.4,346.8,614.8,346.4,615.1z"/>
			<path id="XMLID_3980_" class="st25" d="M390.6,621.2l-3.1,2.4c-0.6,0.5-1.8,0.8-2.5,0.7l-5.8-0.8c-0.5-0.1-0.8-0.3-0.7-0.6
				c0.1,0.1,0.3,0.2,0.5,0.2l5.8,0.8c0.8,0.1,1.9-0.2,2.5-0.7l3.1-2.4c0.2-0.1,0.3-0.3,0.3-0.4C391.1,620.6,391.1,620.9,390.6,621.2
				z"/>
			<path id="XMLID_3979_" class="st25" d="M309.1,627.1l6.7,0.9c0.8,0.1,1.9-0.2,2.5-0.7l3.8-3c0.2-0.1,0.3-0.3,0.3-0.4
				c0.3,0.2,0.2,0.5-0.2,0.9l-3.8,3c-0.6,0.5-1.8,0.8-2.5,0.7l-6.7-0.9c-0.5-0.1-0.8-0.3-0.7-0.6C308.7,627,308.9,627.1,309.1,627.1
				z"/>
			<path id="XMLID_3978_" class="st25" d="M368.9,618.2l-3.1,2.4c-0.6,0.5-1.8,0.8-2.5,0.7l-6.2-0.9c-0.5-0.1-0.8-0.3-0.7-0.6
				c0.1,0.1,0.3,0.2,0.5,0.2l6.2,0.9c0.8,0.1,1.9-0.2,2.5-0.7l3.1-2.4c0.2-0.1,0.3-0.3,0.3-0.4C369.4,617.6,369.3,617.9,368.9,618.2
				z"/>
			<path id="XMLID_3977_" class="st25" d="M379.6,619.7l-3.1,2.4c-0.6,0.5-1.8,0.8-2.5,0.7l-5.4-0.7c-0.5-0.1-0.8-0.3-0.7-0.6
				c0.1,0.1,0.3,0.2,0.5,0.2l5.4,0.7c0.8,0.1,1.9-0.2,2.5-0.7l3.1-2.4c0.2-0.1,0.3-0.3,0.3-0.4C380,619,380,619.4,379.6,619.7z"/>
			<path id="XMLID_3976_" class="st25" d="M401.7,622.8l-3,2.4c-0.6,0.5-1.2,0.7-1.2,0.7s-0.6,0.2-1.4,0.1l-5.8-0.8
				c-0.5-0.1-0.8-0.3-0.7-0.6c0.1,0.1,0.3,0.2,0.5,0.2l5.8,0.8c0.8,0.1,1.4,0,1.4-0.1c0,0,0.6-0.2,1.2-0.7l3-2.4
				c0.2-0.1,0.3-0.3,0.3-0.4C402.1,622.1,402.1,622.4,401.7,622.8z"/>
			<path id="XMLID_3975_" class="st25" d="M357.4,616.6l-3.1,2.4c-0.6,0.5-1.8,0.8-2.5,0.7l-5.8-0.8c-0.5-0.1-0.8-0.3-0.7-0.6
				c0.1,0.1,0.3,0.2,0.5,0.2l5.8,0.8c0.8,0.1,1.9-0.2,2.5-0.7l3.1-2.4c0.2-0.1,0.3-0.3,0.3-0.4C357.9,616,357.8,616.3,357.4,616.6z"
				/>
			<path id="XMLID_3974_" class="st25" d="M332,619.7l-2.9,2.3c-0.6,0.5-1.8,0.8-2.5,0.7l-5.8-0.8c-0.5-0.1-0.8-0.3-0.7-0.6
				c0.1,0.1,0.3,0.2,0.5,0.2l5.8,0.8c0.8,0.1,1.9-0.2,2.5-0.7l2.9-2.3c0.2-0.1,0.3-0.3,0.3-0.4C332.5,619.1,332.5,619.4,332,619.7z"
				/>
		</g>
		<g id="XMLID_3833_">
			<g id="XMLID_3971_" class="st26">
				<path id="XMLID_3972_" class="st20" d="M308.6,639.5c0.7,0.1,0.9,0.6,0.3,1l-0.7,0.5c-0.6,0.5-1.8,0.8-2.6,0.7l-4.5-0.6
					c-0.7-0.1-0.8-0.5-0.3-0.9l0.8-0.6c0.6-0.5,1.8-0.8,2.6-0.7L308.6,639.5z"/>
			</g>
			<g id="XMLID_3969_" class="st26">
				<path id="XMLID_3970_" class="st20" d="M382.3,646.2c0.8,0.1,0.9,0.6,0.3,1.1l-4.7,3.7c-0.6,0.5-1.8,0.8-2.5,0.7l-42.6-5.9
					c-0.8-0.1-0.9-0.6-0.3-1.1l4.7-3.7c0.6-0.5,1.8-0.8,2.5-0.7L382.3,646.2z"/>
			</g>
			<g id="XMLID_3967_" class="st26">
				<path id="XMLID_3968_" class="st20" d="M322.4,637.9c0.8,0.1,0.9,0.6,0.3,1.1l-4.7,3.7c-0.6,0.5-1.8,0.8-2.5,0.7l-5.1-0.7
					c-0.8-0.1-0.9-0.6-0.3-1.1l4.7-3.7c0.6-0.5,1.8-0.8,2.5-0.7L322.4,637.9z"/>
			</g>
			<g id="XMLID_3965_" class="st26">
				<path id="XMLID_3966_" class="st20" d="M394.1,647.8c0.8,0.1,0.9,0.6,0.3,1.1l-4.7,3.7c-0.6,0.5-1.8,0.8-2.5,0.7l-6.5-0.9
					c-0.8-0.1-0.9-0.6-0.3-1.1l4.7-3.7c0.6-0.5,1.8-0.8,2.5-0.7L394.1,647.8z"/>
			</g>
			<g id="XMLID_3963_" class="st26">
				<path id="XMLID_3964_" class="st20" d="M334.5,639.6c0.8,0.1,0.9,0.6,0.3,1.1l-4.7,3.7c-0.6,0.5-1.8,0.8-2.5,0.7l-6.8-0.9
					c-0.8-0.1-0.9-0.6-0.3-1.1l4.7-3.7c0.6-0.5,1.8-0.8,2.6-0.7L334.5,639.6z"/>
			</g>
			<g id="XMLID_3961_" class="st26">
				<path id="XMLID_3962_" class="st20" d="M421.6,645.4c0.6-0.5,1.7-0.8,2.5-0.7l10.8,1.5c0.8,0.1,0.9,0.6,0.3,1.1l-3.8,3
					c-0.6,0.5-1.8,0.8-2.5,0.7l-10.6-1.5c-0.8-0.1-0.9-0.6-0.3-1.1L421.6,645.4z"/>
			</g>
			<g id="XMLID_3959_" class="st26">
				<path id="XMLID_3960_" class="st20" d="M405,649.3c0.8,0.1,0.9,0.6,0.3,1.1l-4.7,3.7c-0.6,0.5-1.8,0.8-2.5,0.7l-5.6-0.8
					c-0.8-0.1-0.9-0.6-0.3-1.1l4.7-3.7c0.6-0.5,1.8-0.8,2.5-0.7L405,649.3z"/>
			</g>
			<g id="XMLID_3957_" class="st26">
				<path id="XMLID_3958_" class="st20" d="M415.2,650.7c0.8,0.1,0.9,0.6,0.3,1.1l-4.7,3.7c-0.6,0.5-1.8,0.8-2.5,0.7l-4.9-0.7
					c-0.8-0.1-0.9-0.6-0.3-1.1l4.7-3.7c0.6-0.5,1.8-0.8,2.5-0.7L415.2,650.7z"/>
			</g>
			<g id="XMLID_3955_" class="st26">
				<path id="XMLID_3956_" class="st20" d="M427.1,652.4c0.8,0.1,0.9,0.6,0.3,1.1l-4.7,3.7c-0.6,0.5-1.8,0.8-2.5,0.7l-6.6-0.9
					c-0.8-0.1-0.9-0.6-0.3-1.1l4.7-3.7c0.6-0.5,1.8-0.8,2.5-0.7L427.1,652.4z"/>
			</g>
			<g id="XMLID_3953_" class="st26">
				<path id="XMLID_3954_" class="st20" d="M357.7,622.2c0.5-0.2,0.8-0.2,1.6-0.1l5.4,0.8c0.8,0.1,0.9,0.6,0.3,1.1l-2.7,2.1
					c-0.6,0.5-1.2,0.7-1.2,0.8c0,0-0.7,0.2-1.5,0.1l-5.4-0.8c-0.8-0.1-0.9-0.6-0.3-1.1l2.6-2.1C357.2,622.5,357.2,622.3,357.7,622.2
					z"/>
			</g>
			<g id="XMLID_3951_" class="st26">
				<path id="XMLID_3952_" class="st20" d="M301.4,638.5c0.6,0.1,0.7,0.4,0.3,0.8l-0.8,0.6c-0.7,0.5-1.9,0.8-2.8,0.7l-4.7-0.7
					c-0.6-0.1-0.7-0.4-0.3-0.8l0.8-0.6c0.7-0.5,1.9-0.8,2.8-0.7L301.4,638.5z"/>
			</g>
			<g id="XMLID_3949_" class="st26">
				<path id="XMLID_3950_" class="st20" d="M375.8,624.3c0.8,0.1,0.9,0.6,0.3,1.1l-2.9,2.3c-0.6,0.5-1.2,0.6-1.2,0.6
					s-0.6,0.2-1.4,0.1l-5.8-0.8c-0.8-0.1-0.9-0.6-0.3-1.1l2.9-2.3c0.6-0.5,1.8-0.8,2.5-0.7L375.8,624.3z"/>
			</g>
			<g id="XMLID_3947_" class="st26">
				<path id="XMLID_3948_" class="st20" d="M379.7,625.1c0,0,0.6-0.1,1.4,0l5.8,0.8c0.8,0.1,0.9,0.6,0.3,1.1l-2.9,2.3
					c-0.6,0.5-1.8,0.8-2.5,0.7l-5.8-0.8c-0.8-0.1-0.9-0.6-0.3-1.1l2.8-2.2C379,625.3,379.7,625.1,379.7,625.1z"/>
			</g>
			<g id="XMLID_3945_" class="st26">
				<path id="XMLID_3946_" class="st20" d="M331.7,623c-0.8-0.1-0.9-0.6-0.3-1.1l2.9-2.3c0.6-0.5,1.8-0.8,2.5-0.7l5.8,0.8
					c0.8,0.1,0.9,0.6,0.3,1.1l-2.9,2.3c-0.6,0.5-1.8,0.8-2.5,0.7L331.7,623z"/>
			</g>
			<g id="XMLID_3943_" class="st26">
				<path id="XMLID_3944_" class="st20" d="M346.2,620.6c0.3-0.1,0.8-0.3,1.6-0.2l6.3,0.9c0.8,0.1,0.9,0.6,0.3,1.1l-2.9,2.3
					c-0.6,0.5-1.3,0.6-1.3,0.6s-0.5,0.2-1.3,0.1l-6.2-0.9c-0.8-0.1-0.9-0.6-0.3-1.1l2.6-2C345.6,620.9,345.9,620.8,346.2,620.6z"/>
			</g>
			<g id="XMLID_3941_" class="st26">
				<path id="XMLID_3942_" class="st20" d="M293,638.9c-0.6,0.5-1.8,0.8-2.6,0.7L286,639c-0.5-0.1-0.6-0.4-0.2-0.7l1-0.8
					c0.6-0.5,1.8-0.8,2.6-0.7l4.5,0.6c0.4,0.1,0.5,0.3,0.2,0.6L293,638.9z"/>
			</g>
			<g id="XMLID_3939_" class="st26">
				<path id="XMLID_3940_" class="st20" d="M333.5,624.9c0.8,0.1,0.9,0.6,0.3,1.1l-3.8,3c-0.6,0.5-1.8,0.8-2.5,0.7l-6.4-0.9
					c-0.8-0.1-0.9-0.6-0.3-1.1l3.8-3c0.6-0.5,1.8-0.8,2.5-0.7L333.5,624.9z"/>
			</g>
			<g id="XMLID_3937_" class="st26">
				<path id="XMLID_3938_" class="st20" d="M381.5,616.8c-0.8-0.1-0.9-0.6-0.3-1.1l1.3-1c0.6-0.5,1.8-0.8,2.5-0.7l7.1,1
					c0.8,0.1,0.9,0.6,0.3,1.1l-1.3,1c-0.6,0.5-1.8,0.8-2.5,0.7L381.5,616.8z"/>
			</g>
			<g id="XMLID_3935_" class="st26">
				<path id="XMLID_3936_" class="st20" d="M346.3,612c-0.8-0.1-0.9-0.6-0.3-1.1l1.3-1c0.6-0.5,1.8-0.8,2.5-0.7l7.3,1
					c0.8,0.1,0.9,0.6,0.3,1.1l-1.3,1c-0.6,0.5-1.8,0.8-2.5,0.7L346.3,612z"/>
			</g>
			<g id="XMLID_3932_" class="st26">
				<path id="XMLID_3934_" class="st20" d="M323.5,608.8c-0.8-0.1-0.9-0.6-0.3-1.1l1.3-1c0.6-0.5,1.8-0.8,2.5-0.7l6.6,0.9
					c0.8,0.1,0.9,0.6,0.3,1.1l-1.3,1c-0.6,0.5-1.8,0.8-2.5,0.7L323.5,608.8z"/>
			</g>
			<g id="XMLID_3930_" class="st26">
				<path id="XMLID_3931_" class="st20" d="M335.3,610.4c-0.8-0.1-0.9-0.6-0.3-1.1l1.3-1c0.6-0.5,1.8-0.8,2.5-0.7l5.7,0.8
					c0.8,0.1,0.9,0.6,0.3,1.1l-1.3,1c-0.6,0.5-1.8,0.8-2.5,0.7L335.3,610.4z"/>
			</g>
			<g id="XMLID_3928_" class="st26">
				<path id="XMLID_3929_" class="st20" d="M358.8,613.7c-0.8-0.1-0.9-0.6-0.3-1.1l1.3-1c0.6-0.5,1.8-0.8,2.5-0.7l6.2,0.9
					c0.8,0.1,0.9,0.6,0.3,1.1l-1.3,1c-0.6,0.5-1.8,0.8-2.5,0.7L358.8,613.7z"/>
			</g>
			<g id="XMLID_3926_" class="st26">
				<path id="XMLID_3927_" class="st20" d="M370.3,615.3c-0.8-0.1-0.9-0.6-0.3-1.1l1.3-1c0.6-0.5,1.8-0.8,2.5-0.7l6,0.8
					c0.8,0.1,0.9,0.6,0.3,1.1l-1.3,1c-0.6,0.5-1.8,0.8-2.5,0.7L370.3,615.3z"/>
			</g>
			<g id="XMLID_3924_" class="st26">
				<path id="XMLID_3925_" class="st20" d="M316.2,634.2c-0.6,0.5-1.3,0.6-1.3,0.7c0,0-0.6,0.2-1.3,0.1l-19.8-2.7
					c-0.8-0.1-0.9-0.6-0.3-1.1l3.8-3c0.6-0.5,1.8-0.8,2.5-0.7l19.8,2.7c0.8,0.1,0.9,0.6,0.3,1.1L316.2,634.2z"/>
			</g>
			<g id="XMLID_3922_" class="st26">
				<path id="XMLID_3923_" class="st20" d="M421.2,642.6c-0.8-0.1-0.9-0.6-0.3-1.1l3.7-3c0.6-0.5,1.8-0.8,2.5-0.7l15.6,2.2
					c0.8,0.1,0.9,0.6,0.3,1.1l-3.8,3c-0.6,0.5-1.1,0.6-1.1,0.6s-0.7,0.2-1.5,0.1L421.2,642.6z"/>
			</g>
			<g id="XMLID_3920_" class="st26">
				<path id="XMLID_3921_" class="st20" d="M332.3,615.6c-0.6,0.5-1.7,0.8-2.5,0.7l-13.4-1.9c-0.8-0.1-0.9-0.6-0.3-1.1l3.1-2.4
					c0.6-0.5,1.8-0.8,2.5-0.7l13.2,1.8c0.8,0.1,1,0.6,0.4,1.1L332.3,615.6z"/>
			</g>
			<g id="XMLID_3918_" class="st26">
				<path id="XMLID_3919_" class="st20" d="M318.1,619.9c-0.6,0.5-0.7,0.5-1.2,0.7s-1.6,0.1-1.6,0.1c-0.8-0.1-1.3-0.3-1.8-0.2
					c-0.5,0.1-1.1,0.6-1.7,1l-5.3,4.2c-0.6,0.5-1.8,0.8-2.5,0.7l-2.3-0.3c-0.8-0.1-0.9-0.6-0.3-1.1l10.7-8.4
					c0.6-0.5,1.8-0.8,2.5-0.7l6,0.8c0.8,0.1,0.9,0.6,0.3,1.1L318.1,619.9z"/>
			</g>
			<g id="XMLID_3916_" class="st26">
				<path id="XMLID_3917_" class="st20" d="M439.6,624.9c-0.8-0.1-0.9-0.6-0.3-1.1l1.3-1c0.6-0.5,1.8-0.8,2.5-0.7l6.2,0.9
					c0.8,0.1,0.9,0.6,0.3,1.1l-1.3,1c-0.6,0.5-1.8,0.8-2.5,0.7L439.6,624.9z"/>
			</g>
			<g id="XMLID_3914_" class="st26">
				<path id="XMLID_3915_" class="st20" d="M448.2,628.8c0.6-0.5,1.8-0.8,2.5-0.7l6,0.8c0.8,0.1,0.9,0.6,0.3,1.1l-3.1,2.4
					c-0.6,0.5-1.8,0.8-2.5,0.7l-6-0.8c-0.8-0.1-0.9-0.6-0.3-1.1L448.2,628.8z"/>
			</g>
			<g id="XMLID_3912_" class="st26">
				<path id="XMLID_3913_" class="st20" d="M428.1,623.3c-0.8-0.1-0.9-0.6-0.3-1.1l1.3-1c0.6-0.5,1.8-0.8,2.5-0.7l6.2,0.9
					c0.8,0.1,0.9,0.6,0.3,1.1l-1.3,1c-0.6,0.5-1.8,0.8-2.5,0.7L428.1,623.3z"/>
			</g>
			<g id="XMLID_3910_" class="st26">
				<path id="XMLID_3911_" class="st20" d="M397.9,627.4c0.8,0.1,0.9,0.6,0.3,1.1l-2.9,2.3c-0.6,0.5-1.8,0.8-2.5,0.7l-5.8-0.8
					c-0.8-0.1-0.9-0.6-0.3-1.1l2.9-2.3c0.6-0.5,1.8-0.8,2.5-0.7L397.9,627.4z"/>
			</g>
			<g id="XMLID_3908_" class="st26">
				<path id="XMLID_3909_" class="st20" d="M433.9,633.4c0.6-0.5,1.8-0.8,2.5-0.7l13.2,1.8c0.8,0.1,0.9,0.6,0.3,1.1l-2.9,2.3
					c-0.6,0.5-1.8,0.8-2.5,0.7l-13.2-1.8c-0.8-0.1-0.9-0.6-0.3-1.1L433.9,633.4z"/>
			</g>
			<g id="XMLID_3906_" class="st26">
				<path id="XMLID_3907_" class="st20" d="M393.9,618.5c-0.8-0.1-0.9-0.6-0.3-1.1l1.3-1c0.6-0.5,1.8-0.8,2.5-0.7l6.1,0.8
					c0.8,0.1,0.9,0.6,0.3,1.1l-1.3,1c-0.6,0.5-1.8,0.8-2.5,0.7L393.9,618.5z"/>
			</g>
			<g id="XMLID_3904_" class="st26">
				<path id="XMLID_3905_" class="st20" d="M416.7,621.7c-0.8-0.1-0.9-0.6-0.3-1.1l1.3-1c0.6-0.5,1.8-0.8,2.5-0.7l6.2,0.9
					c0.8,0.1,0.9,0.6,0.3,1.1l-1.3,1c-0.6,0.5-1.8,0.8-2.5,0.7L416.7,621.7z"/>
			</g>
			<g id="XMLID_3902_" class="st26">
				<path id="XMLID_3903_" class="st20" d="M405.3,620.1c-0.8-0.1-0.9-0.6-0.3-1.1l1.3-1c0.6-0.5,1.8-0.8,2.5-0.7l6.2,0.9
					c0.8,0.1,0.9,0.6,0.3,1.1l-1.3,1c-0.6,0.5-1.8,0.8-2.5,0.7L405.3,620.1z"/>
			</g>
			<g id="XMLID_3900_" class="st26">
				<path id="XMLID_3901_" class="st20" d="M450.2,626.1c0,0-0.1-0.2,0.5-0.7l1.3-1c0.6-0.5,1.8-0.8,2.5-0.7l7.6,1.1
					c0.8,0.1,0.9,0.6,0.3,1.1l-1.3,1c-0.6,0.5-1.8,0.8-2.5,0.7l-7.6-1C450.3,626.3,450.2,626.1,450.2,626.1z"/>
			</g>
			<g id="XMLID_3898_" class="st26">
				<path id="XMLID_3899_" class="st20" d="M411.9,643.2c0,0,0.6-0.1,1.4,0l5.7,0.8c0.8,0.1,0.9,0.6,0.3,1.1l-3.8,3
					c-0.6,0.5-1.8,0.8-2.5,0.7l-5.7-0.8c-0.8-0.1-0.9-0.6-0.3-1.1l3.7-2.9C411.2,643.5,411.8,643.3,411.9,643.2z"/>
			</g>
			<g id="XMLID_3896_" class="st26">
				<path id="XMLID_3897_" class="st20" d="M410.2,641.1c-0.8-0.1-0.9-0.6-0.3-1.1l3.8-3c0.6-0.5,1.8-0.8,2.5-0.7l5.7,0.8
					c0.8,0.1,0.9,0.6,0.3,1.1l-3.8,3c-0.6,0.5-1.8,0.8-2.5,0.7L410.2,641.1z"/>
			</g>
			<g id="XMLID_3894_" class="st26">
				<path id="XMLID_3895_" class="st20" d="M422.6,632c0.6-0.5,1.2-0.7,1.2-0.7s0.7-0.2,1.5-0.1l5.9,0.8c0.8,0.1,0.9,0.6,0.3,1.1
					l-2.9,2.3c-0.6,0.5-1.8,0.8-2.5,0.7l-5.8-0.8c-0.8-0.1-0.9-0.6-0.3-1.1L422.6,632z"/>
			</g>
			<g id="XMLID_3892_" class="st26">
				<path id="XMLID_3893_" class="st20" d="M408.1,642.5c0.8,0.1,0.9,0.6,0.3,1.1l-3.8,3c-0.6,0.5-1,0.6-1,0.6s-0.7,0.2-1.5,0.1
					l-5.8-0.8c-0.8-0.1-0.9-0.6-0.3-1.1l3.8-3c0.6-0.5,1.8-0.8,2.5-0.7L408.1,642.5z"/>
			</g>
			<g id="XMLID_3890_" class="st26">
				<path id="XMLID_3891_" class="st20" d="M438.3,626.6c0,0,0.6-0.2,1.4,0l5.8,0.8c0.8,0.1,0.9,0.6,0.3,1.1l-3.1,2.4
					c-0.6,0.5-1.8,0.8-2.5,0.7l-5.8-0.8c-0.8-0.1-0.9-0.6-0.3-1.1l3-2.4C437.6,626.8,438.3,626.6,438.3,626.6z"/>
			</g>
			<g id="XMLID_3888_" class="st26">
				<path id="XMLID_3889_" class="st20" d="M412.2,627.7c-0.8-0.1-0.9-0.6-0.3-1.1l3.1-2.4c0.6-0.5,1.8-0.8,2.5-0.7l5.8,0.8
					c0.8,0.1,1,0.6,0.4,1.1l-3,2.4c-0.6,0.5-1.7,0.8-2.5,0.7L412.2,627.7z"/>
			</g>
			<g id="XMLID_3886_" class="st26">
				<path id="XMLID_3887_" class="st20" d="M430.4,630c0,0-0.5,0.1-1.3,0l-5.8-0.8c-0.8-0.1-0.9-0.6-0.3-1.1l3.1-2.4
					c0.6-0.5,1.8-0.8,2.5-0.7l5.8,0.8c0.8,0.1,0.9,0.6,0.3,1.1l-3.1,2.4C431.1,629.8,430.4,630,430.4,630z"/>
			</g>
			<g id="XMLID_3884_" class="st26">
				<path id="XMLID_3885_" class="st20" d="M397,640.9c0.8,0.1,0.9,0.6,0.3,1.1l-3.8,3c-0.6,0.5-1.8,0.8-2.5,0.7l-5.8-0.8
					c-0.8-0.1-0.9-0.6-0.3-1.1l3.8-3c0.6-0.5,1.8-0.8,2.5-0.7L397,640.9z"/>
			</g>
			<g id="XMLID_3882_" class="st26">
				<path id="XMLID_3883_" class="st20" d="M341.7,633.3c0.8,0.1,0.9,0.6,0.3,1.1l-3.8,3c-0.6,0.5-1.8,0.8-2.5,0.7l-5.8-0.8
					c-0.8-0.1-0.9-0.6-0.3-1.1l3.8-3c0.6-0.5,1.8-0.8,2.5-0.7L341.7,633.3z"/>
			</g>
			<g id="XMLID_3880_" class="st26">
				<path id="XMLID_3881_" class="st20" d="M330.6,631.8c0.8,0.1,0.9,0.6,0.3,1.1l-3.8,3c-0.6,0.5-1.8,0.8-2.5,0.7l-5.8-0.8
					c-0.8-0.1-0.9-0.6-0.3-1.1l3.8-3c0.6-0.5,1.8-0.8,2.5-0.7L330.6,631.8z"/>
			</g>
			<g id="XMLID_3878_" class="st26">
				<path id="XMLID_3879_" class="st20" d="M304.1,635.7c0.8,0.1,1,0.6,0.4,1.1l-1.1,0.9c-0.5,0.4-1.4,0.6-2,0.5l-4.8-0.7
					c-0.8-0.1-1-0.6-0.3-1.1l1.5-1.2c0.3-0.2,0.9-0.4,1.3-0.3L304.1,635.7z"/>
			</g>
			<g id="XMLID_3876_" class="st26">
				<path id="XMLID_3877_" class="st20" d="M408.3,626.9c0,0-0.6,0.2-1.4,0l-5.8-0.8c-0.8-0.1-0.9-0.6-0.3-1.1l3.1-2.4
					c0.6-0.5,1.8-0.8,2.5-0.7l5.8,0.8c0.8,0.1,0.9,0.6,0.3,1.1l-3.1,2.4C408.9,626.8,408.3,626.9,408.3,626.9z"/>
			</g>
			<g id="XMLID_3874_" class="st26">
				<path id="XMLID_3875_" class="st20" d="M385.9,639.4c0.8,0.1,0.9,0.6,0.3,1.1l-3.8,3c-0.6,0.5-1.8,0.8-2.5,0.7l-5.8-0.8
					c-0.8-0.1-0.9-0.6-0.3-1.1l3.8-3c0.6-0.5,1.8-0.8,2.5-0.7L385.9,639.4z"/>
			</g>
			<g id="XMLID_3872_" class="st26">
				<path id="XMLID_3873_" class="st20" d="M374.9,637.9c0.8,0.1,0.9,0.6,0.3,1.1l-3.8,3c-0.6,0.5-1.8,0.8-2.5,0.7l-5.8-0.8
					c-0.8-0.1-0.9-0.6-0.3-1.1l3.8-3c0.6-0.5,1.8-0.8,2.5-0.7L374.9,637.9z"/>
			</g>
			<g id="XMLID_3870_" class="st26">
				<path id="XMLID_3871_" class="st20" d="M357.1,635.6c0,0,0.5-0.1,1.3,0l5.4,0.7c0.8,0.1,0.9,0.6,0.3,1.1l-3.6,2.9
					c-0.6,0.5-1.2,0.6-1.2,0.7c0,0-0.7,0.3-1.5,0.2l-5.4-0.7c-0.8-0.1-0.9-0.6-0.3-1.1l3.8-3C356.5,635.8,357.1,635.7,357.1,635.6z"
					/>
			</g>
			<g id="XMLID_3868_" class="st26">
				<path id="XMLID_3869_" class="st20" d="M345.6,634.1c0,0,0.6-0.2,1.3-0.1l6.3,0.9c0.8,0.1,0.9,0.6,0.3,1.1l-3.8,3
					c-0.6,0.5-1.8,0.8-2.5,0.7l-6.2-0.9c-0.8-0.1-0.9-0.6-0.3-1.1l3.7-2.9C344.9,634.3,345.6,634.1,345.6,634.1z"/>
			</g>
			<g id="XMLID_3866_" class="st26">
				<path id="XMLID_3867_" class="st20" d="M401.7,628.2c0,0,0.6-0.1,1.4,0l5.8,0.8c0.8,0.1,0.9,0.6,0.3,1.1l-2.8,2.2
					c-0.6,0.5-0.8,0.5-1.2,0.6c-0.4,0.1-0.7,0.2-1.4,0.1l-5.8-0.8c-0.8-0.1-0.9-0.6-0.3-1.1l2.8-2.2
					C401.1,628.4,401.7,628.2,401.7,628.2z"/>
			</g>
			<g id="XMLID_3864_" class="st26">
				<path id="XMLID_3865_" class="st20" d="M373.3,635.7c-0.5,0.1-0.7,0.2-1.4,0.1L366,635c-0.8-0.1-0.9-0.6-0.3-1.1l3.8-3
					c0.6-0.5,1.8-0.8,2.5-0.7l5.8,0.8c0.8,0.1,0.9,0.6,0.3,1.1l-3.5,2.8C373.9,635.4,373.7,635.6,373.3,635.7z"/>
			</g>
			<g id="XMLID_3862_" class="st26">
				<path id="XMLID_3863_" class="st20" d="M355.3,633.5c-0.8-0.1-0.9-0.6-0.3-1.1l3.8-3c0.6-0.5,1.8-0.8,2.5-0.7l5.4,0.7
					c0.8,0.1,0.9,0.6,0.3,1.1l-3.8,3c-0.6,0.5-1.8,0.8-2.5,0.7L355.3,633.5z"/>
			</g>
			<g id="XMLID_3860_" class="st26">
				<path id="XMLID_3861_" class="st20" d="M332.8,630.4c-0.8-0.1-0.9-0.6-0.3-1.1l3.8-3c0.6-0.5,1.8-0.8,2.5-0.7l5.8,0.8
					c0.8,0.1,0.9,0.6,0.3,1.1l-3.8,3c-0.6,0.5-1.8,0.8-2.5,0.7L332.8,630.4z"/>
			</g>
			<g id="XMLID_3858_" class="st26">
				<path id="XMLID_3859_" class="st20" d="M377,636.5c-0.8-0.1-0.9-0.6-0.3-1.1l3.8-3c0.6-0.5,1.8-0.8,2.5-0.7l5.8,0.8
					c0.8,0.1,0.9,0.6,0.3,1.1l-3.8,3c-0.6,0.5-1.8,0.8-2.5,0.7L377,636.5z"/>
			</g>
			<g id="XMLID_3856_" class="st26">
				<path id="XMLID_3857_" class="st20" d="M343.8,631.9c-0.8-0.1-0.9-0.6-0.3-1l3.8-3c0.6-0.5,1.8-0.8,2.5-0.7l6.2,0.9
					c0.8,0.1,0.9,0.6,0.3,1.1l-3.6,2.8c-0.6,0.5-1.8,0.8-2.6,0.7L343.8,631.9z"/>
			</g>
			<g id="XMLID_3854_" class="st26">
				<path id="XMLID_3855_" class="st20" d="M388,638c-0.8-0.1-0.9-0.6-0.3-1.1l3.3-2.6c0.6-0.5,0.8-0.7,1.3-0.9
					c0.4-0.2,0.7-0.3,1.5-0.2l6,0.8c0.8,0.1,0.9,0.6,0.3,1.1l-3.8,3c-0.6,0.5-1.8,0.8-2.5,0.7L388,638z"/>
			</g>
			<g id="XMLID_3852_" class="st26">
				<path id="XMLID_3853_" class="st20" d="M420.1,630.5c0.8,0.1,0.9,0.6,0.3,1.1l-2.9,2.3c-0.6,0.5-1.8,0.8-2.5,0.7l-5.8-0.8
					c-0.8-0.1-0.9-0.6-0.3-1.1l2.9-2.3c0.6-0.5,1.8-0.8,2.5-0.7L420.1,630.5z"/>
			</g>
			<g id="XMLID_3850_" class="st26">
				<path id="XMLID_3851_" class="st20" d="M406.5,640.2c0,0-0.7,0.2-1.5,0.1l-5.9-0.8c-0.8-0.1-0.9-0.6-0.3-1.1l3.8-3
					c0.6-0.5,1.8-0.8,2.5-0.7l5.8,0.8c0.8,0.1,0.9,0.6,0.3,1.1l-3.5,2.7C407.1,639.9,406.5,640.2,406.5,640.2z"/>
			</g>
			<g id="XMLID_3848_" class="st26">
				<path id="XMLID_3849_" class="st20" d="M342,618c0,0-0.7-0.1-1.4-0.2l-5.8-0.8c-0.8-0.1-0.9-0.6-0.3-1.1l3.1-2.4
					c0.6-0.5,1.8-0.8,2.5-0.7l5.8,0.8c0.8,0.1,0.9,0.6,0.3,1.1l-3.1,2.4C342.6,617.6,342.1,618,342,618z"/>
			</g>
			<g id="XMLID_3846_" class="st26">
				<path id="XMLID_3847_" class="st20" d="M379.1,623.1c-0.8-0.1-0.9-0.6-0.3-1.1l3.1-2.4c0.6-0.5,1.8-0.8,2.5-0.7l5.8,0.8
					c0.8,0.1,0.9,0.6,0.3,1.1l-3.1,2.4c-0.6,0.5-1.8,0.8-2.5,0.7L379.1,623.1z"/>
			</g>
			<g id="XMLID_3844_" class="st26">
				<path id="XMLID_3845_" class="st20" d="M318.4,627.4c-0.6,0.5-1.8,0.8-2.5,0.7l-6.7-0.9c-0.8-0.1-0.9-0.6-0.3-1.1l3.8-3
					c0.6-0.5,1.8-0.8,2.5-0.7l6.7,0.9c0.8,0.1,0.9,0.6,0.3,1.1L318.4,627.4z"/>
			</g>
			<g id="XMLID_3842_" class="st26">
				<path id="XMLID_3843_" class="st20" d="M356.9,620c-0.8-0.1-0.9-0.6-0.3-1.1l2.9-2.3c0.6-0.5,1.2-0.7,1.2-0.7s0.7-0.2,1.5-0.1
					l6.3,0.9c0.8,0.1,0.9,0.6,0.3,1.1l-3.1,2.4c-0.6,0.5-1.8,0.8-2.5,0.7L356.9,620z"/>
			</g>
			<g id="XMLID_3840_" class="st26">
				<path id="XMLID_3841_" class="st20" d="M368.4,621.6c-0.8-0.1-0.9-0.6-0.3-1.1l2.9-2.3c0.6-0.5,1.1-0.7,1.2-0.7
					c0,0,0.7-0.2,1.5-0.1l5.4,0.7c0.8,0.1,0.9,0.6,0.3,1.1l-3.1,2.4c-0.6,0.5-1.8,0.8-2.5,0.7L368.4,621.6z"/>
			</g>
			<g id="XMLID_3838_" class="st26">
				<path id="XMLID_3839_" class="st20" d="M397.2,625.4c0,0-0.6,0.2-1.4,0.1l-5.8-0.8c-0.8-0.1-0.9-0.6-0.3-1.1l3.1-2.4
					c0.6-0.5,1.8-0.8,2.5-0.7l5.8,0.8c0.8,0.1,0.9,0.6,0.3,1.1l-3,2.4C397.9,625.2,397.3,625.4,397.2,625.4z"/>
			</g>
			<g id="XMLID_3836_" class="st26">
				<path id="XMLID_3837_" class="st20" d="M345.9,618.5c-0.8-0.1-0.9-0.6-0.3-1.1l3.1-2.4c0.6-0.5,1.8-0.8,2.5-0.7l5.8,0.8
					c0.8,0.1,0.9,0.6,0.3,1.1l-3.1,2.4c-0.6,0.5-1.8,0.8-2.5,0.7L345.9,618.5z"/>
			</g>
			<g id="XMLID_3834_" class="st26">
				<path id="XMLID_3835_" class="st20" d="M320.7,621.5c-0.8-0.1-0.9-0.6-0.3-1.1l2.9-2.3c0.6-0.5,1.8-0.8,2.5-0.7l5.8,0.8
					c0.8,0.1,0.9,0.6,0.3,1.1l-2.9,2.3c-0.6,0.5-1.8,0.8-2.5,0.7L320.7,621.5z"/>
			</g>
		</g>
	</g>
	<g id="XMLID_325_">
		<g id="XMLID_3827_" transform="matrix( 2.2337799072265625, 0, 0, 2.2337799072265625, -615.8,-92.35) ">
			<g id="XMLID_3828_">
				<g id="Layer0_160_MEMBER_0_MEMBER_116_FILL_1_">
					<path id="XMLID_3829_" class="st27" d="M728,253l-0.4,0.2l-0.1,0.1h-0.1l-0.1-0.1h-0.2v-0.1L727,253l15.9,56.5l0.2-2.4
						l-4.7-16.8l5.9,5.3l0.2-2.1l-6.1-15.4l-1.9,0.6l-0.4,3.1l-3.4-11.5l-0.2-0.9l-0.8-2.5v-0.5l-0.9-3.1l-0.3,0.1l-0.9-2.7l0.4-1.9
						l0.5-0.2l-2.4-5.8L728,253 M739,286.8l0.5-3.6l2.5,6.3L739,286.8z"/>
				</g>
			</g>
		</g>
		<g id="XMLID_3824_" transform="matrix( 2.2337799072265625, 0, 0, 2.2337799072265625, -615.8,-92.35) ">
			<g id="XMLID_3825_">
				<g id="Layer0_160_MEMBER_0_MEMBER_117_FILL_1_">
					<path id="XMLID_3826_" class="st28" d="M748.8,235l-2.5-4.1l-2.1-2.3l-3.8-3l-2-1.2l-2,3.5l1.6,0.9l4.2,3.5l1.7,2.1l0.7,1.1
						l2.1,4.9l0.4,1.4l0.4,4.1l-0.1,1.1l-0.1,1.5l-1,4l-1,2.5l-2.2,3.5l-1.8,2.2l-4.4,3.5l-5,2.5l0.8,2.5l0.2,0.9l0.1-0.1l1.6-0.5
						l4.4-2.3l3.9-3.1l1.1-1.1l3.2-3.9l0.8-1.4l2-4.5l0.5-1.5l0.9-4.8v-3.1l-1.3-6.3L748.8,235z"/>
				</g>
			</g>
		</g>
		<g id="XMLID_3821_" transform="matrix( 2.2337799072265625, 0, 0, 2.2337799072265625, -615.8,-92.35) ">
			<g id="XMLID_3822_">
				<g id="Layer0_160_MEMBER_0_MEMBER_118_FILL_1_">
					<path id="XMLID_3823_" class="st28" d="M736.8,237l1.1,1.4l1,1.6l1.2,3.5l0.2,4.2l-0.1,0.5L740,249l-0.8,2.8l-0.8,1.6l-1.6,2.4
						l-2.8,2.7l-2.5,1.5l-1.6,0.7l0.9,2.7l0.3-0.1l0.4-0.2l0.5-0.1l1-0.5l3.9-2.6l1.7-1.5l2.2-2.8l1.9-4.1l0.6-2.2l0.3-2.2l-0.1-3.4
						l-0.8-3.3l-1.4-3l-1.3-1.8l-3.2-3.1l-2-1.2l-0.4-0.3l-1.6,2.7l0.4,0.1l0.7,0.6l0.9,0.5L736.8,237z"/>
				</g>
			</g>
		</g>
		<g id="XMLID_3816_" transform="matrix( 2.2337799072265625, 0, 0, 2.2337799072265625, -615.8,-92.35) ">
			<g id="XMLID_3817_">
				<g id="Layer0_160_MEMBER_0_MEMBER_119_FILL_1_">
					<path id="XMLID_3818_" class="st27" d="M702.9,278.9l1.1-3.6l-1-0.5l-9.7,14l-0.6,2l7.7-11.1L689.2,302l-0.6,2.3l30.8-51.9
						l-0.3,0.3H719l-0.4-0.4l-3.3,4.5l0.2,0.1l0.1,0.1l-0.5,1.9l-1.6,2.5l-0.2-0.2l-1.7,2.9l-0.1,0.4l-1.9,2.9l-0.1,0.3L702.9,278.9
						 M693.8,294.3l5.5-11.2l-1,3.5L693.8,294.3z"/>
				</g>
			</g>
		</g>
		<g id="XMLID_3813_" transform="matrix( 2.2337799072265625, 0, 0, 2.2337799072265625, -615.8,-92.35) ">
			<g id="XMLID_3814_">
				<g id="Layer0_160_MEMBER_0_MEMBER_120_FILL_1_">
					<path id="XMLID_3815_" class="st28" d="M702.9,244.3l1.6-5.1l2.1-3.6l0.8-1.1l1.9-2.1l3.3-2.7l2.5-1.5l3.7-1.5l-1.2-3.5
						l-5.7,2.6l-4,2.9l-3.5,3.6l-2.6,4l-1.4,3l-0.9,3l-0.7,6.3l0.6,4.5l0.8,3l1.3,2.8l2.5,3.8l2.1,2.3l2.3,1.9l0.1,0.1l1.1,0.7
						l0.1-0.3l1.9-2.9l-0.7-0.5l-2.9-2.6l-1.7-2.1l-1.9-3.5l-1.3-3.6l-0.5-5.4L702.9,244.3z"/>
				</g>
			</g>
		</g>
		<g id="XMLID_3810_" transform="matrix( 2.2337799072265625, 0, 0, 2.2337799072265625, -615.8,-92.35) ">
			<g id="XMLID_3811_">
				<g id="Layer0_160_MEMBER_0_MEMBER_121_FILL_1_">
					<path id="XMLID_3812_" class="st28" d="M706.9,243.8l-0.5,3.3l0.2,3.3l0.5,2.2l1.7,4l2,2.5l1.6,1.5l0.3,0.2l0.5,0.5l0.2,0.1
						l0.2,0.2l1.6-2.5h-0.1l-2.6-2.5l-1.9-3.2l-1-3.4l-0.2-1.8l0.1-1.9l0.6-2.7h0.1l0.1-0.5l1.4-2.9l1.7-2.3l2.2-2l2.5-1.6l2.5-1
						l-0.8-2.7l-2,0.6l-4.9,3.2l-2.5,2.5l-1.4,1.8l-1.5,3.1L706.9,243.8z"/>
				</g>
			</g>
		</g>
		<g id="XMLID_3807_" transform="matrix( 2.2337799072265625, 0, 0, 2.2337799072265625, -615.8,-92.35) ">
			<g id="XMLID_3808_">
				<g id="Layer0_160_MEMBER_0_MEMBER_122_FILL_1_">
					<path id="XMLID_3809_" class="st27" d="M712,262.9l1.3-1.7l-0.5-0.5l-1.1,1.5l0.5,0.4L712,262.9z"/>
				</g>
			</g>
		</g>
		<g id="XMLID_3804_" transform="matrix( 2.2337799072265625, 0, 0, 2.2337799072265625, -615.8,-92.35) ">
			<g id="XMLID_3805_">
				<g id="Layer0_160_MEMBER_0_MEMBER_123_FILL_1_">
					<path id="XMLID_3806_" class="st29" d="M712.3,263.1l1.1-1.8l-0.2-0.1l-1.3,1.7L712.3,263.1z"/>
				</g>
			</g>
		</g>
		<g id="XMLID_3801_" transform="matrix( 2.2337799072265625, 0, 0, 2.2337799072265625, -615.8,-92.35) ">
			<g id="XMLID_3802_">
				<g id="Layer0_160_MEMBER_0_MEMBER_124_FILL_1_">
					<path id="XMLID_3803_" class="st29" d="M732.1,265.1l-0.8-1.9l-0.4,0.2l0.5,1.9L732.1,265.1z"/>
				</g>
			</g>
		</g>
		<g id="XMLID_3798_" transform="matrix( 2.2337799072265625, 0, 0, 2.2337799072265625, -615.8,-92.35) ">
			<g id="XMLID_3799_">
				<g id="Layer0_160_MEMBER_0_MEMBER_125_FILL_1_">
					<path id="XMLID_3800_" class="st28" d="M756,226.4l-6-6.5l-5.6-3.7l-0.8-0.5l-2.8,4.7l0.7,0.4l6.1,4.5l3.7,4.4l2.6,4.9l0.6,1.7
						l1.3,5.5l0.2,4.6l-0.6,4.7l-2.5,7.1l-0.9,1.7l-3.4,4.7l-5.6,5.3l-3.4,2.1l-5.3,2.4l-0.4,0.1l1.4,4.8l3.1-1.1l5.7-3.1l5.5-4.2
						l4.5-5l4.5-7.8l2-6.3l0.6-4.4l-0.2-6.7l-0.7-4.4l-2.4-6.1L756,226.4z"/>
				</g>
			</g>
		</g>
		<g id="XMLID_3792_" transform="matrix( 2.2337799072265625, 0, 0, 2.2337799072265625, -615.8,-92.35) ">
			<g id="XMLID_3793_">
				<g id="Layer0_160_MEMBER_0_MEMBER_126_FILL_1_">
					<path id="XMLID_3794_" class="st30" d="M726.8,253.2l-0.7,0.3l-1.8,0.5h-1.1l-0.3-0.2h-0.5l-0.4-0.1l-0.5-0.2l-0.4-0.1
						l-1.3-0.5l-0.2-0.2l-0.2-0.1l-0.2-0.2l-30.8,51.9l7.4,0.6l9.2-15.5l30.2,19.3l7.7,0.7L727.1,253L726.8,253.2L726.8,253.2
						 M709.8,281.7l12.3-20.4l6.2,22L709.8,281.7 M717.8,290.6l12.8,1.2l2.4,8.5L717.8,290.6z"/>
				</g>
			</g>
		</g>
		<g id="XMLID_3789_" transform="matrix( 2.2337799072265625, 0, 0, 2.2337799072265625, -615.8,-92.35) ">
			<g id="XMLID_3790_">
				<g id="Layer0_160_MEMBER_0_MEMBER_127_FILL_1_">
					<path id="XMLID_3791_" class="st29" d="M705.1,289.5l-0.3,0.5l0.8-0.2L705.1,289.5z"/>
				</g>
			</g>
		</g>
		<g id="XMLID_3786_" transform="matrix( 2.2337799072265625, 0, 0, 2.2337799072265625, -615.8,-92.35) ">
			<g id="XMLID_3787_">
				<g id="Layer0_160_MEMBER_0_MEMBER_128_FILL_1_">
					<path id="XMLID_3788_" class="st31" d="M739.9,295l4.5,0.5l-5.9-5.3L739.9,295z"/>
				</g>
			</g>
		</g>
		<g id="XMLID_3783_" transform="matrix( 2.2337799072265625, 0, 0, 2.2337799072265625, -615.8,-92.35) ">
			<g id="XMLID_3784_">
				<g id="Layer0_160_MEMBER_0_MEMBER_129_FILL_1_">
					<path id="XMLID_3785_" class="st31" d="M704.7,275.9l-0.5-0.3l-0.3-0.4l-1.1,3.6L704.7,275.9z"/>
				</g>
			</g>
		</g>
		<g id="XMLID_3780_" transform="matrix( 2.2337799072265625, 0, 0, 2.2337799072265625, -615.8,-92.35) ">
			<g id="XMLID_3781_">
				<g id="Layer0_160_MEMBER_0_MEMBER_130_FILL_1_">
					<path id="XMLID_3782_" class="st29" d="M700.3,279.7l-7.7,11.1l2.2,0.3L700.3,279.7z"/>
				</g>
			</g>
		</g>
		<g id="XMLID_3777_" transform="matrix( 2.2337799072265625, 0, 0, 2.2337799072265625, -615.8,-92.35) ">
			<g id="XMLID_3778_">
				<g id="Layer0_160_MEMBER_0_MEMBER_131_FILL_1_">
					<path id="XMLID_3779_" class="st29" d="M735,272.2l-0.9-2.4l-1.1,0.4l-0.1,0.1l0.6,2.3l1.3-0.4L735,272.2L735,272.2z"/>
				</g>
			</g>
		</g>
		<g id="XMLID_3774_" transform="matrix( 2.2337799072265625, 0, 0, 2.2337799072265625, -615.8,-92.35) ">
			<g id="XMLID_3775_">
				<g id="Layer0_160_MEMBER_0_MEMBER_132_FILL_1_">
					<path id="XMLID_3776_" class="st27" d="M731.8,263.1l-0.5,0.1l0.8,1.9v-0.2l0.8-0.5l-0.6-1.6L731.8,263.1z"/>
				</g>
			</g>
		</g>
		<g id="XMLID_3771_" transform="matrix( 2.2337799072265625, 0, 0, 2.2337799072265625, -615.8,-92.35) ">
			<g id="XMLID_3772_">
				<g id="Layer0_160_MEMBER_0_MEMBER_133_FILL_1_">
					<path id="XMLID_3773_" class="st27" d="M734.6,269.7l-0.5,0.2l0.9,2.4l0.9-0.4l-0.9-2.4L734.6,269.7z"/>
				</g>
			</g>
		</g>
		<g id="XMLID_3768_" transform="matrix( 2.2337799072265625, 0, 0, 2.2337799072265625, -615.8,-92.35) ">
			<g id="XMLID_3769_">
				<g id="Layer0_160_MEMBER_0_MEMBER_134_FILL_1_">
					<path id="XMLID_3770_" class="st28" d="M705,218.8l-1.9,1.4l-6.5,6.5l-2.5,3.7l-2.8,6l-0.7,2.1l-1,4.3l-0.5,4.3l0.4,6.4l1,4.2
						l2.5,5.8l3.4,5.3l4.5,4.5l2.3,1.7l1,0.5l0.3,0.4l0.5,0.3l2.6-4.4l-0.2-0.1l-4.3-3.4l-2.5-2.6l-2.1-3l-2.9-6.5l-0.8-3.5
						l-0.3-5.5l0.5-3.6l1.4-5.4l3.5-6.7l3.8-4.5l4.5-3.8l3.4-2l5-2.2l-1.5-5l-3.8,1.5L705,218.8z"/>
				</g>
			</g>
		</g>
		<g id="XMLID_3765_" transform="matrix( 2.2337799072265625, 0, 0, 2.2337799072265625, -615.8,-92.35) ">
			<g id="XMLID_3766_">
				<g id="Layer0_160_MEMBER_0_MEMBER_135_FILL_1_">
					<path id="XMLID_3767_" class="st32" d="M736.6,278.8l-1.2,0.5l0.8,2.6L736.6,278.8z"/>
				</g>
			</g>
		</g>
		<g id="XMLID_3762_" transform="matrix( 2.2337799072265625, 0, 0, 2.2337799072265625, -615.8,-92.35) ">
			<g id="XMLID_3763_">
				<g id="Layer0_160_MEMBER_0_MEMBER_136_FILL_1_">
					<path id="XMLID_3764_" class="st32" d="M740.2,247.7v-0.3l-0.7,2.5l-0.8,1.6L737,254l-3.6,3.1l-2.5,1.4l-0.3,0.2l-0.5,0.2
						l-0.4,1.9l1.6-0.7l2.5-1.5l2.8-2.7l0.5-0.7l1.9-3.3l0.8-2.8l0.1-0.9L740.2,247.7z"/>
				</g>
			</g>
		</g>
		<g id="XMLID_3759_" transform="matrix( 2.2337799072265625, 0, 0, 2.2337799072265625, -615.8,-92.35) ">
			<g id="XMLID_3760_">
				<g id="Layer0_160_MEMBER_0_MEMBER_137_FILL_1_">
					<path id="XMLID_3761_" class="st32" d="M747.2,248.6l0.1-1.5l-0.1,1.1L746,252l-1.9,3.5l-1.7,2.3l-2.9,3l-1.1,0.8l-3.6,2.2
						l-1.3,0.5l-0.5,0.1l-0.8,0.5v0.2l-0.6,0.2l0.4,1.2v0.5l5-2.5l4.4-3.5l1.8-2.2l2.2-3.5l1-2.5L747.2,248.6z"/>
				</g>
			</g>
		</g>
		<g id="XMLID_3756_" transform="matrix( 2.2337799072265625, 0, 0, 2.2337799072265625, -615.8,-92.35) ">
			<g id="XMLID_3757_">
				<g id="Layer0_160_MEMBER_0_MEMBER_138_FILL_1_">
					<path id="XMLID_3758_" class="st32" d="M738.7,232.4l-1.7-1.5l-2.4-1.5l-1.5,2.7l-0.4,1.7l1.6-2.7l0.4,0.3l2,1.2l3.2,3.1
						l1.8,2.9l0.8,1.9l0.8,3.3l0.1,3.4l0.3-1.8v-2.2l-0.8-4.4l-2-3.9L738.7,232.4z"/>
				</g>
			</g>
		</g>
		<g id="XMLID_3753_" transform="matrix( 2.2337799072265625, 0, 0, 2.2337799072265625, -615.8,-92.35) ">
			<g id="XMLID_3754_">
				<g id="Layer0_160_MEMBER_0_MEMBER_139_FILL_1_">
					<path id="XMLID_3755_" class="st32" d="M750,219.9l6,6.5l2.2,3.8l2.4,6.1l0.9,6.5l0.1,2.2v-3.9l-0.9-6.5l-1.5-4.2l-3.1-5.7
						l-1.4-1.8l-4.5-4.7l-6.4-4.2l-2.8,4.7l-0.3,1.6l2.8-4.7L750,219.9z"/>
				</g>
			</g>
		</g>
		<g id="XMLID_3750_" transform="matrix( 2.2337799072265625, 0, 0, 2.2337799072265625, -615.8,-92.35) ">
			<g id="XMLID_3751_">
				<g id="Layer0_160_MEMBER_0_MEMBER_140_FILL_1_">
					<path id="XMLID_3752_" class="st32" d="M746.2,230.9l1.8,2.6l2,4.3l1.3,6.3v3.1l0.2-5l-1.3-6.2l-1.3-2.8l-2.5-4l-3.2-3.4
						l-4-2.7l-0.6-0.3l-2,3.4l-0.3,1.7l2-3.5l2,1.2l3.8,3L746.2,230.9z"/>
				</g>
			</g>
		</g>
		<g id="XMLID_3747_" transform="matrix( 2.2337799072265625, 0, 0, 2.2337799072265625, -615.8,-92.35) ">
			<g id="XMLID_3748_">
				<g id="Layer0_160_MEMBER_0_MEMBER_141_FILL_1_">
					<path id="XMLID_3749_" class="st32" d="M755.8,249.1l0.2-1.9l-2,7.4l-2.8,5l-2.3,3.1l-5.6,5.2l-4.9,2.9l-3.4,1.5h-0.2l-1.3,0.4
						l0.5,1.8l0.4-0.1l1.8-0.6l6.8-3.8l5.6-5.3l1.3-1.5l3-5l2-5.3L755.8,249.1z"/>
				</g>
			</g>
		</g>
		<g id="XMLID_3744_" transform="matrix( 2.2337799072265625, 0, 0, 2.2337799072265625, -615.8,-92.35) ">
			<g id="XMLID_3745_">
				<g id="Layer0_160_MEMBER_0_MEMBER_142_FILL_1_">
					<path id="XMLID_3746_" class="st32" d="M720.6,233l0.5-1.7l-0.9-2.7l-1.9,0.6l-3,1.7l-1.9,1.5l-2.4,2.5l-1.9,2.8l-1.4,3.2
						l-0.1,0.5l1.5-3l2.1-2.7l2.6-2.4l4-2.5l2-0.6L720.6,233z"/>
				</g>
			</g>
		</g>
		<g id="XMLID_3741_" transform="matrix( 2.2337799072265625, 0, 0, 2.2337799072265625, -615.8,-92.35) ">
			<g id="XMLID_3742_">
				<g id="Layer0_160_MEMBER_0_MEMBER_143_FILL_1_">
					<path id="XMLID_3743_" class="st32" d="M704,240.7l-1.1,3.6l-0.3,2.6v1.5l0.5,3.9l1.3,3.6l1.9,3.5l1.7,2.1l2.9,2.6l0.7,0.5
						l0.1-0.4l0.6-1.1l-0.4-0.2l0.2-0.3l-1.8-1.3l-1.9-1.8l-3-4.3l-1.5-3.5l-0.8-5.3l0.1-2.6L704,240.7z"/>
				</g>
			</g>
		</g>
		<g id="XMLID_3738_" transform="matrix( 2.2337799072265625, 0, 0, 2.2337799072265625, -615.8,-92.35) ">
			<g id="XMLID_3739_">
				<g id="Layer0_160_MEMBER_0_MEMBER_144_FILL_1_">
					<path id="XMLID_3740_" class="st32" d="M710,247l0.2-3.6h-0.1l-0.6,2.7l-0.1,1.9l0.2,1.8l1,3.4l0.8,1.6l1.1,1.5l2.6,2.5h0.1
						l0.5-1.9l-0.1-0.1l-0.2-0.1l-2.5-2.4l-1-1.5l-1.2-2.5L710,247z"/>
				</g>
			</g>
		</g>
		<g id="XMLID_3733_" transform="matrix( 2.2337799072265625, 0, 0, 2.2337799072265625, -615.8,-92.35) ">
			<g id="XMLID_3734_">
				<g id="Layer0_160_MEMBER_0_MEMBER_145_FILL_1_">
					<path id="XMLID_3735_" class="st32" d="M694.8,243.3l-0.5,3.6l0.3,5.5l1.4,5.3l3.5,6.4l4.8,5.3l2.9,2.2l0.2,0.1l2.3-3.8
						l-1.1-0.7l-0.1-0.1l-1.5,2l-3.5-2.8l-2.5-2.6l-3-4.7l-1.5-3.3l-1-3.4l-0.6-5.5l0.7-7L694.8,243.3 M696.3,237.5l-0.3,1.1
						l0.2-0.6L696.3,237.5z"/>
				</g>
			</g>
		</g>
		<g id="XMLID_3728_" transform="matrix( 2.2337799072265625, 0, 0, 2.2337799072265625, -615.8,-92.35) ">
			<g id="XMLID_3729_">
				<g id="Layer0_160_MEMBER_0_MEMBER_146_FILL_1_">
					<path id="XMLID_3730_" class="st32" d="M692,234.3l-0.2,0.4l-0.5,1.3L692,234.3 M696.6,226.6l6.5-6.5l3.8-2.6l6.3-3.1l1.7-0.6
						l1.5,5l0.5-1.5l-1.5-5l-5.9,2.5l-5.7,3.7l-5,4.6l-3.9,5.5l-1.7,3.6l1-2L696.6,226.6z"/>
				</g>
			</g>
		</g>
		<g id="XMLID_3725_" transform="matrix( 2.2337799072265625, 0, 0, 2.2337799072265625, -615.8,-92.35) ">
			<g id="XMLID_3726_">
				<g id="Layer0_160_MEMBER_0_MEMBER_147_FILL_1_">
					<path id="XMLID_3727_" class="st32" d="M701.8,236.3l2.6-4l3.5-3.6l4-2.9l5.7-2.6l1.2,3.5l0.4-1.7l-1.1-3.5l-2.7,1L711,225
						l-3.8,3.2l-2.2,2.5l-2.6,4.1l-1.9,4.6L701.8,236.3z"/>
				</g>
			</g>
		</g>
		<g id="XMLID_3722_" transform="matrix( 2.2337799072265625, 0, 0, 2.2337799072265625, -615.8,-92.35) ">
			<g id="XMLID_3723_">
				<g id="Layer0_160_MEMBER_0_MEMBER_148_FILL_1_">
					<path id="XMLID_3724_" class="st33" d="M698.3,286.7l1-3.5l-5.5,11.2L698.3,286.7z"/>
				</g>
			</g>
		</g>
		<g id="XMLID_3719_" transform="matrix( 2.2337799072265625, 0, 0, 2.2337799072265625, -615.8,-92.35) ">
			<g id="XMLID_3720_">
				<g id="Layer0_160_MEMBER_0_MEMBER_149_FILL_1_">
					<path id="XMLID_3721_" class="st30" d="M722.3,291.1l-4.5-0.5l15.2,9.7l-0.8-3.1L722.3,291.1z"/>
				</g>
			</g>
		</g>
		<g id="XMLID_3716_" transform="matrix( 2.2337799072265625, 0, 0, 2.2337799072265625, -615.8,-92.35) ">
			<g id="XMLID_3717_">
				<g id="Layer0_160_MEMBER_0_MEMBER_150_FILL_1_">
					<path id="XMLID_3718_" class="st31" d="M728.2,283.3l-0.6-2.2l-16.5-1.5l-1.3,2L728.2,283.3z"/>
				</g>
			</g>
		</g>
		<g id="XMLID_3713_" transform="matrix( 2.2337799072265625, 0, 0, 2.2337799072265625, -615.8,-92.35) ">
			<g id="XMLID_3714_">
				<g id="Layer0_160_MEMBER_0_MEMBER_151_FILL_1_">
					<path id="XMLID_3715_" class="st29" d="M727.6,281.1l-1.5-5.2l-12.3-1.1l-2.8,4.8L727.6,281.1z"/>
				</g>
			</g>
		</g>
		<g id="XMLID_3211_" transform="matrix( 2.2337799072265625, 0, 0, 2.2337799072265625, -615.8,-92.35) ">
			<g id="XMLID_3711_">
				<g id="Layer0_160_MEMBER_0_MEMBER_152_FILL_1_">
					<path id="XMLID_3712_" class="st31" d="M726.1,275.9l-0.5-2.1l-10.5-0.9l-1.3,1.9L726.1,275.9z"/>
				</g>
			</g>
		</g>
		<g id="XMLID_2360_" transform="matrix( 2.2337799072265625, 0, 0, 2.2337799072265625, -615.8,-92.35) ">
			<g id="XMLID_2364_">
				<g id="Layer0_160_MEMBER_0_MEMBER_153_FILL_1_">
					<path id="XMLID_2374_" class="st29" d="M742,289.4l-2.5-6.3l-0.5,3.6L742,289.4z"/>
				</g>
			</g>
		</g>
		<g id="XMLID_379_" transform="matrix( 2.2337799072265625, 0, 0, 2.2337799072265625, -615.8,-92.35) ">
			<g id="XMLID_2339_">
				<g id="Layer0_160_MEMBER_0_MEMBER_154_FILL_1_">
					<path id="XMLID_2359_" class="st34" d="M731.2,247.9c0.2-2-0.2-3.7-1.5-5.2s-2.9-2.4-5-2.5c-2-0.2-3.8,0.4-5.3,1.6
						c-1.6,1.2-2.5,2.8-2.6,4.7c-0.2,1.9,0.2,3.6,1.5,5.2c1.3,1.5,3,2.4,5,2.5s3.8-0.4,5.3-1.6C730.1,251.5,731,249.9,731.2,247.9z"
						/>
				</g>
			</g>
		</g>
	</g>
</g>
</svg>
