<?xml version="1.0" encoding="utf-8"?>
<!-- Generator: Adobe Illustrator 19.0.0, SVG Export Plug-In . SVG Version: 6.00 Build 0)  -->
<svg version="1.1" id="Capa_1" xmlns="http://www.w3.org/2000/svg" xmlns:xlink="http://www.w3.org/1999/xlink" x="0px" y="0px"
	 viewBox="-47 369.5 236.1 107" style="enable-background:new -47 369.5 236.1 107;" xml:space="preserve">
<style type="text/css">
	.st0{fill:#F29038;}
	.st1{fill:#6AC5DE;}
	.st2{fill:#186782;}
	.st3{fill:#222222;}
	.st4{fill:#424242;}
	.st5{fill:#303031;}
	.st6{fill:#7A7A7A;}
	.st7{fill:#979797;}
	.st8{fill:#BDBCBC;}
	.st9{fill:#4E4E4E;}
	.st10{fill:#A3A2A2;}
	.st11{fill:#151515;}
	.st12{fill:#A7A7A7;}
	.st13{fill:#DFDFDF;}
	.st14{fill:#515050;}
	.st15{fill:#747474;}
	.st16{fill:#AEAEAE;}
	.st17{opacity:0.66;}
	.st18{fill:#222426;}
	.st19{opacity:0.38;fill:#E9E9E9;enable-background:new    ;}
	.st20{opacity:0.38;}
	.st21{fill:#796E69;}
	.st22{opacity:0.42;fill:#111111;enable-background:new    ;}
	.st23{fill:#1F1F21;}
	.st24{opacity:0.7;}
	.st25{fill:#767676;}
	.st26{fill:#585757;}
	.st27{fill:#2D4898;}
	.st28{fill:#888989;}
	.st29{fill:#757576;}
	.st30{fill:#FFFFFF;}
	.st31{fill:#283272;}
	.st32{fill:#FFFFFF;stroke:#3F3F3F;stroke-width:0.5;stroke-linejoin:round;stroke-miterlimit:10;}
	.st33{fill:#FAFAFA;}
	.st34{fill:#283F91;}
	.st35{fill:#FFFFFF;stroke:#3F3F3F;stroke-width:0.25;stroke-linejoin:round;stroke-miterlimit:10;}
	.st36{fill:#666666;}
	.st37{fill:#636363;}
	.st38{fill:#283375;}
	.st39{fill:#EDECEC;}
	.st40{fill:#F5F5F5;}
	.st41{fill:#68B43F;}
	.st42{fill:#FFFFFF;stroke:#3F3F3F;stroke-width:0.5;stroke-miterlimit:10;}
	.st43{fill:#838383;}
	.st44{fill:#31509D;}
	.st45{fill:#A5C738;}
</style>
<path id="XMLID_373_" class="st0" d="M331.1,496.1"/>
<g>
	<g id="XMLID_327_">
		<g id="XMLID_434_">
			<path id="XMLID_1_" class="st1" d="M102.8,439l-1.3-0.5l-0.2,0.2L74.9,435l-0.3,1.8l25.1,3.5l-14.5,15.2
				c-0.7,0.7-0.9,1.6-0.6,2.3c0.3,0.8,1.1,1.4,2.2,1.6l60.7,9.4l1.4-2.3L87,457l15.5-16.2h0.2v0.2"/>
			<path id="XMLID_428_" class="st2" d="M102.7,441.1L102.7,441.1l-15,15.7l61.2,9.6l-1.7,2.7h-0.1l-60.7-9.4
				c-1.2-0.2-2-0.8-2.3-1.7c-0.3-0.8,0-1.8,0.7-2.5l14.3-14.9l-24.9-3.5l0.3-2.2l26.5,3.7l0.3-0.3l1.5,0.5 M102.6,439.4l-1.3-0.4
				l-0.2,0.2H101l-26.3-3.9l-0.2,1.5l25.2,3.6L85,455.7c-0.6,0.7-0.8,1.4-0.6,2.2c0.3,0.8,1,1.3,2,1.5l60.6,9.3l1.2-2l-61.6-9.5
				l15.8-16.5l0.4,0.1v0.2"/>
		</g>
		<g id="XMLID_422_">
			<path id="XMLID_406_" class="st1" d="M15.9,429.5c-0.4-0.3-1.2-0.8-1.2-1.4c0-0.4,0.3-1.2,2.2-2.4c6.6-4.1,8.8-5.6,9.5-6.1
				l21.9,2.6c0.4,0.1,0.9,0.1,1.3,0.1c3.9,0,8.9-1.8,11.7-4.2l28.2-24.9c1.4-1.2,1.3-2.4,1.1-2.9c-0.4-1.1-1.6-1.9-3.6-2.1
				l-69.9-7.9c-3-0.3-7.9,0.6-11.1,2.1l-47.6,22.2c-2.5,1.2-5.4,2.9-5.1,4.8c0.1,0.7,0.7,1.6,2.9,1.9l67.4,8
				c-1.4,0.9-3.7,2.4-7.7,4.9c-2,1.3-3,2.6-3,3.9c0,0.8,0.4,1.9,2,3c0.8,0.5,1.6,0.8,2.5,0.9l55.5,7.4c-6.1,4.7-26.4,20.7-32.8,27
				c-7,7-16.8,4.7-16.9,4.6l0,0l-23.5-4.5l-0.3,1.8l23.5,4.5c0.2,0.1,2,0.4,4.4,0.4c0.6,0,1.2,0,1.9-0.1c4.8-0.4,9-2.3,12.2-5.5
				c7.3-7.3,34.1-28,34.4-28.2l1.7-1.3l-59.8-8C17.1,430.1,16.5,429.9,15.9,429.5z M-44.9,409.1c0.1-0.3,0.8-1.4,4.1-2.9L6.9,384
				c2.9-1.4,7.5-2.2,10.1-1.9l69.9,7.9c1.5,0.2,2,0.6,2.1,0.9c0.1,0.2-0.2,0.6-0.6,1l-28.2,24.9c-2.8,2.4-8.1,4.1-11.6,3.7l-92.1-11
				C-44.5,409.4-44.8,409.2-44.9,409.1z"/>
			<path id="XMLID_412_" class="st2" d="M27.3,473.5c-2.5,0-4.3-0.4-4.5-0.5l-23.6-4.5l0.4-2.1h0.2l23.5,4.5c0.1,0,9.8,2.3,16.7-4.6
				c6.3-6.3,26-21.8,32.5-26.8l-55.1-7.4c-0.9-0.1-1.8-0.4-2.6-0.9c-1.7-1.1-2.1-2.3-2.1-3.1c0-1.4,1-2.8,3.1-4.1
				c3.1-1.9,5.5-3.5,7.2-4.6l-66.9-8c-2.3-0.3-2.9-1.3-3.1-2.1c-0.3-2,2.6-3.9,5.2-5L6,382.2c3.3-1.5,8.2-2.4,11.2-2.1l69.9,7.9
				c2,0.2,3.4,1,3.8,2.2c0.2,0.6,0.3,1.8-1.2,3.1l-28.2,24.9c-2.8,2.5-7.8,4.3-11.8,4.3c-0.5,0-0.9,0-1.4-0.1l-21.8-2.6
				c-0.8,0.5-3,2-9.4,6c-1.9,1.2-2.1,2-2.1,2.2c0,0.5,0.8,1.1,1.1,1.3l0,0c0.5,0.3,1.1,0.5,1.7,0.6l60.3,8.1l-2.1,1.6
				c-0.3,0.2-27.1,21-34.4,28.2c-3.2,3.2-7.5,5.1-12.4,5.5C28.6,473.4,27.9,473.5,27.3,473.5z M-0.4,468.2l23.3,4.4
				c0.2,0,1.9,0.4,4.4,0.4c0.6,0,1.3,0,1.9-0.1c4.8-0.4,8.9-2.3,12.1-5.4c7.3-7.3,34.1-28,34.4-28.2l1.4-1.1l-59.4-7.9
				c-0.7-0.1-1.3-0.3-1.8-0.7l0,0c-0.6-0.4-1.3-0.9-1.3-1.6c0-0.5,0.4-1.4,2.3-2.5c6.6-4.1,8.8-5.6,9.5-6.1h0.1h0.1l21.9,2.6
				c0.4,0,0.9,0.1,1.3,0.1c3.9,0,8.8-1.8,11.6-4.2L89.6,393c1.3-1.2,1.3-2.2,1.1-2.7c-0.3-1.1-1.6-1.8-3.5-2l-69.9-7.9
				c-3-0.3-7.8,0.6-11,2.1l-47.8,22.2c-2.4,1.1-5.3,2.9-5,4.6c0.2,0.9,1.1,1.6,2.8,1.7l67.9,8.1l-0.4,0.3c-1.7,1.1-4.3,2.8-7.7,4.9
				c-2,1.2-2.9,2.5-2.9,3.8c0,0.7,0.3,1.8,1.9,2.8c0.7,0.5,1.5,0.8,2.4,0.9l56,7.5l-0.3,0.3c-6.1,4.7-26.4,20.7-32.8,27
				c-7,7-17,4.7-17.1,4.7L0,466.9L-0.4,468.2z M49.6,420.7c-0.4,0-0.8,0-1.1-0.1l-92.1-11c-1-0.1-1.3-0.4-1.4-0.5l-0.1-0.1v-0.1
				c0.1-0.4,1.1-1.6,4.2-3l47.7-22.2c2.9-1.4,7.5-2.2,10.2-1.9l69.9,7.9c1.5,0.2,2.1,0.6,2.2,1c0.1,0.3-0.2,0.7-0.7,1.2l-28.2,24.9
				C57.7,419.1,53.1,420.7,49.6,420.7z M-44.7,409c0.1,0.1,0.5,0.2,1.1,0.3l92.1,11c3.5,0.4,8.7-1.3,11.4-3.7l28.2-24.9
				c0.5-0.4,0.6-0.7,0.6-0.8c0-0.1-0.5-0.6-1.9-0.7l-69.9-7.9c-2.6-0.3-7.1,0.6-10,1.9l-47.7,22.2C-43.7,407.7-44.5,408.7-44.7,409z
				"/>
		</g>
	</g>
	<g id="XMLID_86_">
		<polygon id="XMLID_2609_" class="st3" points="165,471.8 163.6,473.5 160.8,474 162.3,472.4 		"/>
		<polygon id="XMLID_2606_" class="st4" points="160.8,475 160.8,474 163.6,473.5 174.2,474.5 176.8,475.6 176.8,476.5 		"/>
		<polygon id="XMLID_2603_" class="st5" points="165,471.8 163.6,473.5 174.2,474.5 175.5,472.8 		"/>
		<polygon id="XMLID_2600_" class="st4" points="142,472.5 140.9,465 140.9,457.4 142.7,455.9 142.8,437.1 153.7,438 153.5,456.8 
			154.2,457.5 154,464.2 155.1,464.3 155.1,466.4 154.3,473.7 		"/>
		<polygon id="XMLID_2597_" class="st6" points="155.4,446.4 155.2,463.2 186.5,466 187.3,449 		"/>
		<g id="XMLID_2588_" transform="matrix( 5.4611968994140625, 0, 0, 5.4611968994140625, -1916.8,-814.8) ">
			<g id="XMLID_2591_">
				<g id="Layer0_0_FILL_1_">
					<path id="XMLID_2594_" class="st6" d="M377.1,229.2l2,0.2l0,0h0.5l0.1-0.1l-2.9-0.2l-0.1,0.1H377.1L377.1,229.2z"/>
				</g>
			</g>
		</g>
		<g id="XMLID_2579_" transform="matrix( 5.4611968994140625, 0, 0, 5.4611968994140625, -1916.8,-814.8) ">
			<g id="XMLID_2582_">
				<g id="Layer0_1_FILL_1_">
					<path id="XMLID_2585_" class="st5" d="M381.2,228.1l-2.5-0.2l-1.5,1.2l2.5,0.2v0.1L381.2,228.1z"/>
				</g>
			</g>
		</g>
		<g id="XMLID_2570_" transform="matrix( 5.4611968994140625, 0, 0, 5.4611968994140625, -1916.8,-814.8) ">
			<g id="XMLID_2573_">
				<g id="Layer0_2_FILL_1_">
					<path id="XMLID_2576_" class="st7" d="M378.6,228l0.2-0.1h-0.1L378.6,228z"/>
				</g>
			</g>
		</g>
		<g id="XMLID_2561_" transform="matrix( 5.4611968994140625, 0, 0, 5.4611968994140625, -1916.8,-814.8) ">
			<g id="XMLID_2564_">
				<g id="Layer0_3_FILL_1_">
					<path id="XMLID_2567_" class="st8" d="M379.9,230.1l-0.2-0.6v-0.2l-0.1,0.1v1.3l1.8,0.1l0.1-3l-0.1,0.1v0.2l-0.2,0.9
						L379.9,230.1z"/>
				</g>
			</g>
		</g>
		<g id="XMLID_2555_" transform="matrix( 5.4611968994140625, 0, 0, 5.4611968994140625, -1916.8,-814.8) ">
			<g id="XMLID_2556_">
				<g id="Layer0_4_FILL_1_">
					<path id="XMLID_2558_" class="st9" d="M381.2,228.1l-1.5,1.3v0.1l0.2,0.5l1.2-1L381.2,228.1z"/>
				</g>
			</g>
		</g>
		<g id="XMLID_2546_" transform="matrix( 5.4611968994140625, 0, 0, 5.4611968994140625, -1916.8,-814.8) ">
			<g id="XMLID_2548_">
				<g id="Layer0_5_FILL_1_">
					<path id="XMLID_2552_" class="st6" d="M381,229l-1.2,1v0.1L381,229L381,229z"/>
				</g>
			</g>
		</g>
		<g id="XMLID_2538_" transform="matrix( 5.4611968994140625, 0, 0, 5.4611968994140625, -1916.8,-814.8) ">
			<g id="XMLID_2542_">
				<g id="Layer0_10_FILL_1_">
					<path id="XMLID_2545_" class="st6" d="M376.8,234.3L376.8,234.3L376.8,234.3L376.8,234.3z"/>
				</g>
			</g>
		</g>
		<g id="XMLID_2532_" transform="matrix( 5.4611968994140625, 0, 0, 5.4611968994140625, -1916.8,-814.8) ">
			<g id="XMLID_2535_">
				<g id="Layer0_11_FILL_1_">
					<path id="XMLID_2536_" class="st10" d="M377.1,232.6v-3.4l0,0h-0.5v3.7h0.1L377.1,232.6z"/>
				</g>
			</g>
		</g>
		<g id="XMLID_2517_" transform="matrix( 5.4611968994140625, 0, 0, 5.4611968994140625, -1916.8,-814.8) ">
			<g id="XMLID_2518_">
				<g id="Layer0_13_FILL_1_">
					<path id="XMLID_2520_" class="st11" d="M379.2,230.7l-0.1,3.5l6.1,0.6l0.2-3.5L379.2,230.7 M379.4,234v-3.1l0,0l5.8,0.5
						l-0.1,3.1L379.4,234z"/>
				</g>
			</g>
		</g>
		<g id="XMLID_2508_" transform="matrix( 5.4611968994140625, 0, 0, 5.4611968994140625, -1916.8,-814.8) ">
			<g id="XMLID_2509_">
				<g id="Layer0_14_FILL_1_">
					<path id="XMLID_2514_" class="st12" d="M379.2,232.9L379.2,232.9l-0.1-0.2l0,0L379.2,232.9z"/>
				</g>
			</g>
		</g>
		<g id="XMLID_2499_" transform="matrix( 5.4611968994140625, 0, 0, 5.4611968994140625, -1916.8,-814.8) ">
			<g id="XMLID_2501_">
				<g id="Layer0_17_FILL_1_">
					<path id="XMLID_2507_" d="M379.3,230.6L379.3,230.6l6.2,0.6l0.1-0.1L379.3,230.6z"/>
				</g>
			</g>
		</g>
		<g id="XMLID_2490_" transform="matrix( 5.4611968994140625, 0, 0, 5.4611968994140625, -1916.8,-814.8) ">
			<g id="XMLID_2495_">
				<g id="Layer0_18_FILL_1_">
					<path id="XMLID_2498_" class="st9" d="M379.7,234.2h-0.4v0.4L379.7,234.2z"/>
				</g>
			</g>
		</g>
		<g id="XMLID_2481_" transform="matrix( 5.4611968994140625, 0, 0, 5.4611968994140625, -1916.8,-814.8) ">
			<g id="XMLID_2483_">
				<g id="Layer0_19_FILL_1_">
					<path id="XMLID_2489_" class="st10" d="M379.2,232.9v-2.2l0.1-0.1h0.3v-1.3h-0.5l-0.1,3.5L379.2,232.9z"/>
				</g>
			</g>
		</g>
		<g id="XMLID_2473_" transform="matrix( 5.4611968994140625, 0, 0, 5.4611968994140625, -1916.8,-814.8) ">
			<g id="XMLID_2477_">
				<g id="Layer0_26_FILL_1_">
					<path id="XMLID_2480_" class="st8" d="M380.7,234.3l-0.9-0.1l-0.3,0.3v1L380.7,234.3z"/>
				</g>
			</g>
		</g>
		<g id="XMLID_2467_" transform="matrix( 5.4611968994140625, 0, 0, 5.4611968994140625, -1916.8,-814.8) ">
			<g id="XMLID_2470_">
				<g id="Layer0_28_FILL_1_">
					<path id="XMLID_2471_" class="st6" d="M379.8,234.2h-0.1l-0.4,0.4h0.2L379.8,234.2z"/>
				</g>
			</g>
		</g>
		<g id="XMLID_2460_" transform="matrix( 5.4611968994140625, 0, 0, 5.4611968994140625, -1916.8,-814.8) ">
			<g id="XMLID_2461_">
				<g id="Layer0_31_FILL_1_">
					<path id="XMLID_2463_" class="st6" d="M381.4,227.8l-2.7-0.2l-0.1,0.1L381.4,227.8L381.4,227.8z"/>
				</g>
			</g>
		</g>
		<g id="XMLID_2451_" transform="matrix( 5.4611968994140625, 0, 0, 5.4611968994140625, -1916.8,-814.8) ">
			<g id="XMLID_2453_">
				<g id="Layer0_32_FILL_1_">
					<path id="XMLID_2457_" class="st10" d="M378.6,227.9h0.1v-0.2h-0.1V227.9z"/>
				</g>
			</g>
		</g>
		<g id="XMLID_2443_" transform="matrix( 5.4611968994140625, 0, 0, 5.4611968994140625, -1916.8,-814.8) ">
			<g id="XMLID_2447_">
				<g id="Layer0_33_FILL_1_">
					<path id="XMLID_2450_" class="st10" d="M381.2,227.9l-2.5-0.2v0.2l2.5,0.2V227.9z"/>
				</g>
			</g>
		</g>
		<g id="XMLID_2437_" transform="matrix( 5.4611968994140625, 0, 0, 5.4611968994140625, -1916.8,-814.8) ">
			<g id="XMLID_2440_">
				<g id="Layer0_34_FILL_1_">
					<path id="XMLID_2441_" class="st10" d="M381.3,228.1v-0.2h-0.1v0.2H381.3z"/>
				</g>
			</g>
		</g>
		<g id="XMLID_2415_" transform="matrix( 5.4611968994140625, 0, 0, 5.4611968994140625, -1916.8,-814.8) ">
			<g id="XMLID_482_">
				<g id="XMLID_483_">
					<g id="Layer0_35_FILL_11_">
						<path id="XMLID_484_" class="st13" d="M379.2,235.9l0.3-0.3v-1h-0.2L379.2,235.9z"/>
					</g>
				</g>
			</g>
		</g>
		<g id="XMLID_2381_" transform="matrix( 5.4611968994140625, 0, 0, 5.4611968994140625, -1916.8,-814.8) ">
			<g id="XMLID_2409_">
				<g id="Layer0_36_FILL_1_">
					<path id="XMLID_2412_" class="st7" d="M381.3,228.1h-0.1L381,229h0.1L381.3,228.1z"/>
				</g>
			</g>
		</g>
		<g id="XMLID_2355_" transform="matrix( 5.4611968994140625, 0, 0, 5.4611968994140625, -1916.8,-814.8) ">
			<g id="XMLID_478_">
				<g id="XMLID_479_">
					<g id="Layer0_39_FILL_11_">
						<path id="XMLID_480_" class="st13" d="M376.7,235.3l0.3,0.4l-0.2-1.4h-0.1L376.7,235.3L376.7,235.3z"/>
					</g>
				</g>
			</g>
		</g>
		<g id="XMLID_2352_" transform="matrix( 5.4611968994140625, 0, 0, 5.4611968994140625, -1916.8,-814.8) ">
			<g id="XMLID_2353_">
				<g id="Layer0_40_FILL_1_">
					<path id="XMLID_2354_" class="st8" d="M379.1,229.3v3.5l0,0V229.3L379.1,229.3z"/>
				</g>
			</g>
		</g>
		<g id="XMLID_2329_" transform="matrix( 5.4611968994140625, 0, 0, 5.4611968994140625, -1916.8,-814.8) ">
			<g id="XMLID_2330_">
				<g id="Layer0_46_FILL_1_">
					<path id="XMLID_2351_" d="M385.6,231.1L385.6,231.1l-0.2,3.6l0.1-0.1L385.6,231.1z"/>
				</g>
			</g>
		</g>
		<g id="XMLID_114_" transform="matrix( 5.4611968994140625, 0, 0, 5.4611968994140625, -1916.8,-814.8) ">
			<g id="XMLID_115_">
				<g id="Layer0_47_FILL_1_">
					<path id="XMLID_2325_" class="st10" d="M379.4,230.9v3.1l5.7,0.5l0.1-3.1L379.4,230.9z"/>
				</g>
			</g>
		</g>
		
			<ellipse id="XMLID_113_" transform="matrix(4.082432e-002 -0.9992 0.9992 4.082432e-002 -322.3716 593.5572)" class="st10" cx="148" cy="464.7" rx="1" ry="1.1"/>
		<polygon id="XMLID_91_" class="st3" points="176.8,475.6 178.1,473.9 175.5,472.8 174.2,474.5 		"/>
		<polygon id="XMLID_90_" class="st5" points="176.8,475.6 176.8,476.5 178.1,474.8 178.1,473.9 		"/>
		<path id="XMLID_89_" class="st14" d="M171.6,465.8l-4.5-0.4v7.5l0,0c0,0,0,0,0,0.1c0,0.5,1,0.9,2.2,0.9s2.2-0.4,2.2-0.9
			c0,0,0,0,0-0.1l0,0L171.6,465.8L171.6,465.8z"/>
	</g>
	<g id="XMLID_405_">
		<path id="XMLID_3109_" class="st11" d="M-17.5,442.2l24.2,2.2c0.9,0.1,1.4,0.9,1.3,1.6l-2.6,16.8l-26.7-3.6l2.4-16.1
			C-18.7,442.5-18.1,442.1-17.5,442.2z"/>
		<path id="XMLID_3106_" class="st15" d="M-17.1,443.5l23.5,2.1c0.2,0,0.4,0.2,0.3,0.4l-2.3,15c0,0.2-0.2,0.3-0.5,0.3l-23.3-3.2
			c-0.2,0-0.4-0.2-0.3-0.4l2.1-13.9C-17.6,443.6-17.4,443.5-17.1,443.5z"/>
		<path id="XMLID_3103_" class="st9" d="M-34.7,470.3l-0.3-0.8l4.2-2.4l9.4-7.5l21.9,3.1h5l0.3,0.9l0,0c0,0.1,0,0.3-0.1,0.4
			l-12.8,10c-0.5,0.4-1.3,0.6-2,0.5l-25.3-3.9C-34.6,470.6-34.7,470.4-34.7,470.3z"/>
		<g id="XMLID_3097_">
			<path id="XMLID_3100_" class="st4" d="M5.3,464.3L-7,474c-0.5,0.4-1.2,0.6-1.9,0.5l-0.5-1.6c0.4,0,0.7,0.1,0.8,0
				c0.8-0.2,8.5-6.3,13.1-10"/>
		</g>
		<path id="XMLID_3094_" class="st16" d="M-20.7,459l25.9,3.6c0.4,0,0.5,0.5,0.2,0.7l-12.8,10c-0.5,0.4-1.3,0.6-2,0.5l-25.3-3.9
			c-0.4,0-0.5-0.5-0.2-0.7l12.6-9.8C-21.8,459-21.2,458.9-20.7,459z"/>
		<g id="XMLID_3087_" class="st17">
			<path id="XMLID_3090_" class="st18" d="M2.7,462.2l-0.6,0.5c-0.1,0-0.1,0.1-0.2,0.1l-21.4-3c-0.1,0-0.1-0.1-0.1-0.2l0.6-0.5h0.1
				l21.4,3C2.8,462,2.8,462.1,2.7,462.2z"/>
		</g>
		<path id="XMLID_3084_" class="st19" d="M-20.9,467.5l6.8,0.9c0.1,0,0.2,0.2,0.1,0.3l-3.4,2.7c-0.2,0.2-0.5,0.2-0.7,0.2l-6.5-0.9
			c-0.1,0-0.2-0.2-0.1-0.3l3.7-2.9C-21,467.5-20.9,467.5-20.9,467.5z"/>
		<g id="XMLID_3078_" class="st20">
			<path id="XMLID_3081_" class="st21" d="M-24.3,470.1c0,0,0.5-0.4,1.3-1c0.4-0.3,0.8-0.6,1.3-1c0.2-0.2,0.5-0.4,0.7-0.6l0,0l0,0
				l0,0l0,0c0,0,0,0,0.1,0s0.2,0,0.2,0c0.2,0,0.3,0,0.5,0.1c0.6,0.1,1.3,0.2,1.9,0.3c0.6,0.1,1.2,0.2,1.7,0.2c1,0.1,1.6,0.2,1.6,0.2
				l0,0l0,0c0,0-0.6-0.1-1.6-0.2c-0.5-0.1-1.1-0.2-1.7-0.2c-0.6-0.1-1.3-0.2-1.9-0.3c-0.2,0-0.3,0-0.5-0.1c-0.1,0-0.2,0-0.2,0
				s-0.1,0-0.2,0l0,0l0,0l0,0l0,0c-0.2,0.2-0.5,0.4-0.7,0.6c-0.5,0.4-0.9,0.7-1.3,1C-23.8,469.7-24.3,470.1-24.3,470.1L-24.3,470.1
				L-24.3,470.1z"/>
		</g>
		<path id="XMLID_3075_" class="st22" d="M5.1,463.9l0.1,0.3c0,0,0,0,0,0.1l-0.6,0.5H4.5l-0.1-0.3c0,0,0,0,0-0.1L5.1,463.9
			C5,463.8,5.1,463.8,5.1,463.9z"/>
		<path id="XMLID_3072_" class="st22" d="M3.8,464.9l0.1,0.3c0,0,0,0,0,0.1l-0.6,0.5H3.2l-0.1-0.3c0,0,0,0,0-0.1L3.8,464.9
			C3.7,464.8,3.8,464.8,3.8,464.9z"/>
		<path id="XMLID_3068_" class="st22" d="M2.5,465.9l0.1,0.3c0,0,0,0,0,0.1L2,466.8H1.9l-0.1-0.3c0,0,0,0,0-0.1L2.5,465.9
			C2.5,465.8,2.5,465.8,2.5,465.9z"/>
		<g id="XMLID_2544_">
			<path id="XMLID_3065_" class="st23" d="M-25.6,466.1l0.8,0.1c0.1,0,0.4,0,0.5-0.1l0.1-0.1c0,0,0,0,0.1-0.1v0.1l-0.1,0.1
				c-0.1,0.1-0.3,0.1-0.5,0.1L-25.6,466.1C-25.7,466.2-25.7,466.1-25.6,466.1C-25.7,466.1-25.7,466.1-25.6,466.1z"/>
			<path id="XMLID_3062_" class="st23" d="M-19.9,467l7.7,1.1c0.1,0,0.4,0,0.5-0.1l0.9-0.7l0.1-0.1c0,0,0,0.1,0,0.2l-0.9,0.7
				c-0.1,0.1-0.3,0.1-0.5,0.1L-19.9,467C-20,467-20,467-19.9,467C-20,467-19.9,467-19.9,467z"/>
			<path id="XMLID_3059_" class="st23" d="M-24,466.4l0.9,0.1c0.1,0,0.4,0,0.5-0.1l0.9-0.7l0.1-0.1c0,0,0,0.1,0,0.2l-0.9,0.7
				c-0.1,0.1-0.3,0.1-0.5,0.1L-24,466.4C-24,466.5-24.1,466.4-24,466.4L-24,466.4z"/>
			<path id="XMLID_3056_" class="st23" d="M-11.2,468.2l1.2,0.2c0.1,0,0.4,0,0.5-0.1l0.9-0.7l0.1-0.1c0,0,0,0.1,0,0.2l-0.9,0.7
				c-0.1,0.1-0.3,0.1-0.5,0.1L-11.2,468.2C-11.3,468.2-11.3,468.2-11.2,468.2C-11.3,468.2-11.3,468.2-11.2,468.2z"/>
			<path id="XMLID_3053_" class="st23" d="M-22.1,466.7l1.2,0.2c0.1,0,0.4,0,0.5-0.1l0.9-0.7l0.1-0.1c0,0,0,0.1,0,0.2l-0.9,0.7
				c-0.1,0.1-0.3,0.1-0.5,0.1L-22.1,466.7C-22.2,466.7-22.2,466.7-22.1,466.7C-22.2,466.7-22.1,466.7-22.1,466.7z"/>
			<path id="XMLID_3050_" class="st23" d="M-4.5,467.6C-4.5,467.6-4.4,467.6-4.5,467.6l2,0.3c0.1,0,0.4,0,0.5-0.1l0.7-0.5l0.1-0.1
				c0,0,0,0.1,0,0.2l-0.7,0.5C-2,468-2.2,468-2.4,468l-1.9-0.3C-4.5,467.7-4.5,467.7-4.5,467.6z"/>
			<path id="XMLID_3047_" class="st23" d="M-9.1,468.5l1,0.1c0.1,0,0.4,0,0.5-0.1l0.9-0.7l0.1-0.1c0,0,0,0.1,0,0.2l-0.9,0.7
				c-0.1,0.1-0.3,0.1-0.5,0.1L-9.1,468.5C-9.2,468.5-9.2,468.5-9.1,468.5C-9.2,468.5-9.1,468.5-9.1,468.5z"/>
			<path id="XMLID_3044_" class="st23" d="M-7.1,468.7l0.9,0.1c0.1,0,0.4,0,0.5-0.1l0.9-0.7l0.1-0.1c0,0,0,0.1,0,0.2l-0.9,0.7
				c-0.1,0.1-0.3,0.1-0.5,0.1L-7.1,468.7C-7.2,468.8-7.2,468.8-7.1,468.7C-7.2,468.7-7.1,468.7-7.1,468.7z"/>
			<path id="XMLID_3041_" class="st23" d="M-5.3,469l1.2,0.2c0.1,0,0.4,0,0.5-0.1l0.9-0.7l0.1-0.1c0,0,0,0.1,0,0.2l-0.9,0.7
				c-0.1,0.1-0.3,0.1-0.5,0.1L-5.3,469C-5.3,469.1-5.4,469-5.3,469L-5.3,469z"/>
			<path id="XMLID_3040_" class="st23" d="M-14,463.1l-0.5,0.4c-0.1,0.1-0.2,0.1-0.2,0.1s-0.1,0-0.3,0l-1-0.1
				c-0.1,0-0.1-0.1-0.1-0.1h0.1l1,0.1c0.1,0,0.3,0,0.3,0s0.1,0,0.2-0.1L-14,463.1c0-0.1,0-0.1,0-0.2C-13.9,463-13.9,463-14,463.1z"
				/>
			<path id="XMLID_3036_" class="st23" d="M-26.2,466c0.2,0,0.4,0,0.5-0.1l0.1-0.1l0,0l0,0h-0.1l-0.1,0.1l-0.1,0.1
				C-25.9,466.1-26,466.1-26.2,466H-27c-0.1,0-0.1-0.1-0.1-0.1s0,0,0.1,0L-26.2,466z"/>
			<path id="XMLID_3035_" class="st23" d="M-12,463.4l-0.5,0.4c-0.1,0.1-0.2,0.1-0.2,0.1s-0.1,0-0.2,0l-1.1-0.1
				c-0.1,0-0.1-0.1-0.1-0.1h0.1l1.1,0.1c0.1,0,0.2,0,0.2,0s0.1,0,0.2-0.1L-12,463.4c0-0.1,0-0.1,0-0.2
				C-11.9,463.2-11.9,463.3-12,463.4z"/>
			<path id="XMLID_3031_" class="st23" d="M-10,463.6l-0.5,0.4c-0.1,0.1-0.3,0.1-0.5,0.1l-1-0.1c-0.1,0-0.1-0.1-0.1-0.1h0.1l1,0.1
				c0.1,0,0.4,0,0.5-0.1L-10,463.6c0-0.1,0-0.1,0-0.2C-9.9,463.5-9.9,463.6-10,463.6z"/>
			<path id="XMLID_3028_" class="st23" d="M-20.1,462.8l1,0.1c0.1,0,0.4,0,0.5-0.1l0.5-0.4l0.1-0.1c0,0,0,0.1,0,0.2l-0.5,0.4
				c-0.1,0.1-0.3,0.1-0.5,0.1L-20.1,462.8C-20.2,462.9-20.2,462.9-20.1,462.8C-20.2,462.8-20.1,462.8-20.1,462.8z"/>
			<path id="XMLID_3025_" class="st23" d="M-15.9,462.8l-0.5,0.4c-0.1,0.1-0.2,0.1-0.2,0.1s-0.1,0-0.2,0l-1.1-0.2
				c-0.1,0-0.1-0.1-0.1-0.1h0.1l1.1,0.2c0.1,0,0.2,0,0.2,0s0.1,0,0.2-0.1L-15.9,462.8c0-0.1,0-0.1,0-0.2
				C-15.9,462.7-15.9,462.8-15.9,462.8z"/>
			<path id="XMLID_3022_" class="st23" d="M-28.4,465.7L-28.4,465.7l0.8,0.1c0.1,0,0.4,0,0.5-0.1l0.2-0.2l0,0c0,0,0,0,0,0.1
				c0,0-0.1,0-0.1,0.1l-0.1,0.1c0,0,0,0,0,0.1c-0.1,0.1-0.3,0.1-0.4,0.1L-28.4,465.7C-28.4,465.8-28.5,465.8-28.4,465.7z"/>
			<path id="XMLID_3021_" class="st23" d="M-22,463.9l1.2,0.2c0.1,0,0.4,0,0.5-0.1l0.7-0.5l0.1-0.1c0,0,0,0.1,0,0.2l-0.7,0.5
				c-0.1,0.1-0.3,0.1-0.5,0.1L-22,463.9C-22.1,464-22.1,463.9-22,463.9C-22.1,463.9-22.1,463.9-22,463.9z"/>
			<path id="XMLID_3017_" class="st23" d="M-9,461.7l-0.2,0.2c-0.1,0.1-0.3,0.1-0.5,0.1l-1.3-0.2c-0.1,0-0.1-0.1-0.1-0.1h0.1
				l1.3,0.2c0.1,0,0.4,0,0.5-0.1L-9,461.7c0-0.1,0-0.1,0-0.2C-9,461.6-9,461.6-9,461.7z"/>
			<path id="XMLID_3014_" class="st23" d="M-15.4,460.8l-0.2,0.2c-0.1,0.1-0.3,0.1-0.5,0.1l-1.3-0.2c-0.1,0-0.1-0.1-0.1-0.1h0.1
				l1.3,0.2c0.1,0,0.4,0,0.5-0.1L-15.4,460.8c0-0.1,0-0.1,0-0.2C-15.3,460.7-15.3,460.7-15.4,460.8z"/>
			<path id="XMLID_3011_" class="st23" d="M-19.7,460.2l-0.2,0.2c-0.1,0.1-0.3,0.1-0.5,0.1l-1.2-0.2c-0.1,0-0.1-0.1-0.1-0.1h0.1
				l1.2,0.2c0.1,0,0.4,0,0.5-0.1L-19.7,460.2c0-0.1,0-0.1,0-0.2C-19.6,460.1-19.6,460.1-19.7,460.2z"/>
			<path id="XMLID_3007_" class="st23" d="M-17.7,460.5l-0.2,0.2c-0.1,0.1-0.3,0.1-0.5,0.1l-1-0.1c-0.1,0-0.1-0.1-0.1-0.1h0.1l1,0.1
				c0.1,0,0.4,0,0.5-0.1L-17.7,460.5c0-0.1,0-0.1,0-0.2C-17.6,460.4-17.6,460.4-17.7,460.5z"/>
			<path id="XMLID_3003_" class="st23" d="M-13.3,461.1l-0.2,0.2c-0.1,0.1-0.3,0.1-0.5,0.1l-1.1-0.2c-0.1,0-0.1-0.1-0.1-0.1h0.1
				l1.1,0.2c0.1,0,0.4,0,0.5-0.1L-13.3,461.1c0-0.1,0-0.1,0-0.2C-13.2,461-13.3,461-13.3,461.1z"/>
			<path id="XMLID_3000_" class="st23" d="M-11.3,461.4l-0.2,0.2c-0.1,0.1-0.3,0.1-0.5,0.1l-1.1-0.2c-0.1,0-0.1-0.1-0.1-0.1h0.1
				l1.1,0.2c0.1,0,0.4,0,0.5-0.1L-11.3,461.4c0-0.1,0-0.1,0-0.2C-11.2,461.2-11.2,461.3-11.3,461.4z"/>
			<path id="XMLID_2997_" class="st23" d="M-27,464.5l3.6,0.5c0.1,0,0.2,0,0.2,0s0.1,0,0.2-0.1l0.7-0.5l0.1-0.1c0,0,0,0.1,0,0.2
				l-0.7,0.5c-0.1,0.1-0.2,0.1-0.2,0.1s-0.1,0-0.2,0L-27,464.5C-27.1,464.6-27.1,464.5-27,464.5C-27.1,464.5-27,464.5-27,464.5z"/>
			<path id="XMLID_2994_" class="st23" d="M-4,466.4C-3.9,466.4-3.9,466.4-4,466.4l2.9,0.4c0.1,0,0.3,0,0.3,0s0.1,0,0.2-0.1l0.7-0.5
				l0.1-0.1c0,0,0,0.1,0,0.2l-0.7,0.5c-0.1,0.1-0.2,0.1-0.2,0.1s-0.1,0-0.3,0l-2.8-0.4C-3.9,466.5-4,466.4-4,466.4z"/>
			<path id="XMLID_2991_" class="st23" d="M-22.9,461.3l2.4,0.3c0.1,0,0.4,0,0.5-0.1l0.5-0.4l0.1-0.1c0,0,0,0.1,0,0.2l-0.5,0.4
				c-0.1,0.1-0.3,0.1-0.5,0.1L-22.9,461.3C-23,461.4-23,461.3-22.9,461.3C-23,461.3-22.9,461.3-22.9,461.3z"/>
			<path id="XMLID_2987_" class="st23" d="M-25.6,463.4l0.4,0.1c0.1,0,0.4,0,0.5-0.1l1-0.8c0.1-0.1,0.2-0.2,0.3-0.2
				c0.1,0,0.2,0,0.3,0c0,0,0.2,0,0.3,0c0.1,0,0.1,0,0.2-0.1l0.5-0.4l0.1-0.1c0,0,0,0.1,0,0.2l-0.5,0.4c-0.1,0.1-0.1,0.1-0.2,0.1
				s-0.3,0-0.3,0c-0.1,0-0.2-0.1-0.3,0c-0.1,0-0.2,0.1-0.3,0.2l-1,0.8c-0.1,0.1-0.3,0.1-0.5,0.1L-25.6,463.4
				C-25.6,463.5-25.7,463.4-25.6,463.4L-25.6,463.4z"/>
			<path id="XMLID_2986_" class="st23" d="M1.3,463.1l-0.2,0.2c-0.1,0.1-0.3,0.1-0.5,0.1l-1.1-0.2c-0.1,0-0.1-0.1-0.1-0.1h0.1
				l1.1,0.2c0.1,0,0.4,0,0.5-0.1L1.3,463.1c0-0.1,0-0.1,0-0.2C1.4,463,1.4,463,1.3,463.1z"/>
			<path id="XMLID_2985_" class="st23" d="M0.4,464.5C0.5,464.5,0.5,464.5,0.4,464.5l1.2,0.2c0.1,0,0.4,0,0.5-0.1l0.6-0.4l0.1-0.1
				c0,0,0,0.1,0,0.2l-0.6,0.4c-0.1,0.1-0.3,0.1-0.5,0.1l-1.1-0.2C0.5,464.6,0.4,464.5,0.4,464.5z"/>
			<path id="XMLID_2984_" class="st23" d="M-0.8,462.8L-1,463c-0.1,0.1-0.3,0.1-0.5,0.1l-1.1-0.2c-0.1,0-0.1-0.1-0.1-0.1h0.1
				l1.1,0.2c0.1,0,0.4,0,0.5-0.1L-0.8,462.8c0-0.1,0-0.1,0-0.2C-0.7,462.7-0.7,462.8-0.8,462.8z"/>
			<path id="XMLID_2983_" class="st23" d="M-8,463.9l-0.5,0.4c-0.1,0.1-0.3,0.1-0.5,0.1l-1.1-0.1c-0.1,0-0.1-0.1-0.1-0.1h0.1
				l1.1,0.1c0.1,0,0.4,0,0.5-0.1L-8,463.9c0-0.1,0-0.1,0-0.2C-7.9,463.8-7.9,463.9-8,463.9z"/>
			<path id="XMLID_2980_" class="st23" d="M-2.1,465.3L-2.1,465.3l2.5,0.4c0.1,0,0.4,0,0.5-0.1l0.5-0.4l0.1-0.1c0,0,0,0.1,0,0.2
				L1,465.7c-0.1,0.1-0.3,0.1-0.5,0.1l-2.4-0.3C-2.1,465.4-2.1,465.4-2.1,465.3z"/>
			<path id="XMLID_2979_" class="st23" d="M-7,462l-0.2,0.2c-0.1,0.1-0.3,0.1-0.5,0.1l-1.1-0.2c-0.1,0-0.1-0.1-0.1-0.1h0.1l1.1,0.2
				c0.1,0,0.4,0,0.5-0.1L-7,462c0-0.1,0-0.1,0-0.2C-6.9,461.8-6.9,461.9-7,462z"/>
			<path id="XMLID_2978_" class="st23" d="M-2.8,462.5l-0.2,0.2c-0.1,0.1-0.3,0.1-0.5,0.1l-1.1-0.2c-0.1,0-0.1-0.1-0.1-0.1h0.1
				l1.1,0.2c0.1,0,0.4,0,0.5-0.1L-2.8,462.5c0-0.1,0-0.1,0-0.2C-2.7,462.4-2.8,462.5-2.8,462.5z"/>
			<path id="XMLID_2977_" class="st23" d="M-4.9,462.2l-0.2,0.2c-0.1,0.1-0.3,0.1-0.5,0.1l-1.1-0.2c-0.1,0-0.1-0.1-0.1-0.1h0.1
				l1.1,0.2c0.1,0,0.4,0,0.5-0.1L-4.9,462.2c0-0.1,0-0.1,0-0.2C-4.8,462.1-4.8,462.2-4.9,462.2z"/>
			<path id="XMLID_2976_" class="st23" d="M1.4,463.5L1.4,463.5h0.1l1.4,0.2c0.1,0,0.4,0,0.5-0.1l0.2-0.2l0.1-0.1c0,0,0,0.1,0,0.2
				l-0.2,0.2c-0.1,0.1-0.3,0.1-0.5,0.1l-1.4-0.2C1.4,463.5,1.4,463.5,1.4,463.5z"/>
			<path id="XMLID_2973_" class="st23" d="M-6.4,467.4l1,0.1c0.1,0,0.4,0,0.5-0.1l0.7-0.5l0.1-0.1c0,0,0,0.1,0,0.2l-0.7,0.5
				c-0.1,0.1-0.3,0.1-0.5,0.1L-6.4,467.4C-6.5,467.4-6.5,467.4-6.4,467.4C-6.5,467.4-6.4,467.4-6.4,467.4z"/>
			<path id="XMLID_2969_" class="st23" d="M-3.6,465.7l-0.7,0.5c-0.1,0.1-0.3,0.1-0.5,0.1l-1-0.1c-0.1,0-0.1-0.1-0.1-0.1h0.1l1,0.1
				c0.1,0,0.4,0,0.5-0.1L-3.6,465.7c0-0.1,0-0.1,0-0.2C-3.6,465.6-3.6,465.6-3.6,465.7z"/>
			<path id="XMLID_2966_" class="st23" d="M-2,464.8l-0.5,0.4c-0.1,0.1-0.3,0.1-0.5,0.1l-1.1-0.1c-0.1,0-0.1-0.1-0.1-0.1h0.1
				l1.1,0.1c0.1,0,0.4,0,0.5-0.1L-2,464.8c0-0.1,0-0.1,0-0.2C-1.9,464.6-1.9,464.7-2,464.8z"/>
			<path id="XMLID_2963_" class="st23" d="M-8.4,467.1l1.1,0.1c0.1,0,0.3,0,0.3,0s0.1,0,0.2-0.1l0.7-0.5l0.1-0.1c0,0,0,0.1,0,0.2
				l-0.7,0.5c-0.1,0.1-0.2,0.1-0.2,0.1s-0.1,0-0.3,0L-8.4,467.1C-8.5,467.2-8.5,467.1-8.4,467.1C-8.5,467.1-8.4,467.1-8.4,467.1z"/>
			<path id="XMLID_2960_" class="st23" d="M-1.5,464.3l1.1,0.1c0.1,0,0.4,0,0.5-0.1l0.6-0.4l0.1-0.1c0,0,0,0.1,0,0.2l-0.6,0.4
				c-0.1,0.1-0.3,0.1-0.5,0.1L-1.5,464.3C-1.5,464.3-1.6,464.3-1.5,464.3C-1.5,464.2-1.5,464.2-1.5,464.3z"/>
			<path id="XMLID_2957_" class="st23" d="M-3.4,463.4l-0.5,0.4c-0.1,0.1-0.3,0.1-0.5,0.1l-1.1-0.1c-0.1,0-0.1-0.1-0.1-0.1h0.1
				l1.1,0.1c0.1,0,0.4,0,0.5-0.1L-3.4,463.4c0-0.1,0-0.1,0-0.2C-3.3,463.2-3.3,463.3-3.4,463.4z"/>
			<path id="XMLID_2954_" class="st23" d="M-2.2,464.2c0,0-0.1,0-0.2,0l-1.1-0.1c-0.1,0-0.1-0.1-0.1-0.1h0.1l1.1,0.1
				C-2.3,464.1-2.2,464.1-2.2,464.2c0-0.1,0.1-0.1,0.2-0.2l0.6-0.4l0.1-0.1c0,0,0,0.1,0,0.2l-0.6,0.4C-2,464.2-2.2,464.2-2.2,464.2z
				"/>
			<path id="XMLID_2951_" class="st23" d="M-10.4,466.8l1.1,0.1c0.1,0,0.4,0,0.5-0.1l0.7-0.5l0.1-0.1c0,0,0,0.1,0,0.2l-0.7,0.5
				C-8.8,467-9,467-9.2,467L-10.4,466.8C-10.5,466.9-10.5,466.8-10.4,466.8C-10.5,466.8-10.4,466.8-10.4,466.8z"/>
			<path id="XMLID_2948_" class="st23" d="M-20.4,465.4l1,0.1c0.1,0,0.4,0,0.5-0.1l0.7-0.5l0.1-0.1c0,0,0,0.1,0,0.2l-0.7,0.5
				c-0.1,0.1-0.3,0.1-0.5,0.1L-20.4,465.4C-20.5,465.5-20.5,465.4-20.4,465.4C-20.5,465.4-20.5,465.4-20.4,465.4z"/>
			<path id="XMLID_2945_" class="st23" d="M-22.4,465.2l1.1,0.1c0.1,0,0.4,0,0.5-0.1l0.7-0.5l0.1-0.1c0,0,0,0.1,0,0.2l-0.7,0.5
				c-0.1,0.1-0.3,0.1-0.5,0.1L-22.4,465.2C-22.5,465.2-22.6,465.2-22.4,465.2C-22.5,465.1-22.5,465.1-22.4,465.2z"/>
			<path id="XMLID_2942_" class="st23" d="M-25.6,465.7l-0.9-0.1h-0.1c0,0,0,0,0-0.1h0.1L-25.6,465.7c0.1,0,0.3-0.1,0.4-0.1l0.2-0.2
				l0.1-0.1c0,0,0,0.1,0,0.2l-0.2,0.2C-25.3,465.7-25.4,465.7-25.6,465.7C-25.5,465.7-25.5,465.7-25.6,465.7z"/>
			<path id="XMLID_2939_" class="st23" d="M-5.4,463.1l-0.6,0.4c-0.1,0.1-0.2,0.1-0.2,0.1s-0.1,0-0.2,0l-1.1-0.1
				c-0.1,0-0.1-0.1-0.1-0.1h0.1l1.1,0.1c0.1,0,0.2,0,0.2,0s0.1,0,0.2-0.1L-5.4,463.1c0-0.1,0-0.1,0-0.2C-5.3,463-5.3,463-5.4,463.1z
				"/>
			<path id="XMLID_2936_" class="st23" d="M-12.4,466.5l1,0.1c0.1,0,0.4,0,0.5-0.1l0.7-0.5l0.1-0.1c0,0,0,0.1,0,0.2l-0.7,0.5
				c-0.1,0.1-0.3,0.1-0.5,0.1L-12.4,466.5C-12.5,466.6-12.5,466.6-12.4,466.5C-12.5,466.5-12.4,466.5-12.4,466.5z"/>
			<path id="XMLID_2933_" class="st23" d="M-14.4,466.3l1.1,0.1c0.1,0,0.4,0,0.5-0.1l0.7-0.5l0.1-0.1c0,0,0,0.1,0,0.2l-0.7,0.5
				c-0.1,0.1-0.3,0.1-0.5,0.1L-14.4,466.3C-14.5,466.3-14.5,466.3-14.4,466.3C-14.5,466.2-14.5,466.3-14.4,466.3z"/>
			<path id="XMLID_2930_" class="st23" d="M-16.3,466l1,0.1c0.1,0,0.3,0,0.3,0s0.1,0,0.2-0.1l0.7-0.5l0.1-0.1c0,0,0,0.1,0,0.2
				l-0.7,0.5c-0.1,0.1-0.2,0.1-0.2,0.1s-0.1,0-0.3,0L-16.3,466C-16.4,466.1-16.5,466-16.3,466C-16.4,466-16.4,466-16.3,466z"/>
			<path id="XMLID_2927_" class="st23" d="M-18.4,465.7l1.1,0.2c0.1,0,0.4,0,0.5-0.1l0.7-0.5l0.1-0.1c0,0,0,0.1,0,0.2l-0.7,0.5
				c-0.1,0.1-0.3,0.1-0.5,0.1L-18.4,465.7C-18.5,465.8-18.5,465.7-18.4,465.7C-18.5,465.7-18.5,465.7-18.4,465.7z"/>
			<path id="XMLID_2924_" class="st23" d="M-6,464.2l-0.5,0.4c-0.1,0.1-0.1,0.1-0.2,0.1s-0.1,0-0.3,0l-1.1-0.1
				c-0.1,0-0.1-0.1-0.1-0.1h0.1l1.1,0.1c0.1,0,0.2,0,0.3,0c0.1,0,0.1,0,0.2-0.1L-6,464.2c0-0.1,0-0.1,0-0.2
				C-5.9,464.1-5.9,464.1-6,464.2z"/>
			<path id="XMLID_2921_" class="st23" d="M-13.9,465l1.1,0.1c0.1,0,0.2,0,0.3,0c0.1,0,0.1-0.1,0.2-0.1l0.6-0.5l0.1-0.1
				c0,0,0,0.1,0,0.2l-0.6,0.5c-0.1,0.1-0.1,0.1-0.2,0.1s-0.1,0-0.3,0L-13.9,465C-14,465.1-14,465-13.9,465
				C-14,465-13.9,465-13.9,465z"/>
			<path id="XMLID_2918_" class="st23" d="M-15.8,464.7l1,0.1c0.1,0,0.4,0,0.5-0.1l0.7-0.5l0.1-0.1c0,0,0,0.1,0,0.2l-0.7,0.5
				c-0.1,0.1-0.3,0.1-0.5,0.1L-15.8,464.7C-15.9,464.8-15.9,464.8-15.8,464.7C-15.9,464.7-15.9,464.7-15.8,464.7z"/>
			<path id="XMLID_2915_" class="st23" d="M-19.9,464.2l1,0.1c0.1,0,0.4,0,0.5-0.1l0.7-0.5l0.1-0.1c0,0,0,0.1,0,0.2l-0.7,0.5
				c-0.1,0.1-0.3,0.1-0.5,0.1L-19.9,464.2C-20,464.2-20,464.2-19.9,464.2C-20,464.2-20,464.2-19.9,464.2z"/>
			<path id="XMLID_2912_" class="st23" d="M-11.9,465.3l1,0.1c0.1,0,0.4,0,0.5-0.1l0.7-0.5l0.1-0.1c0,0,0,0.1,0,0.2l-0.7,0.5
				c-0.1,0.1-0.3,0.1-0.5,0.1L-11.9,465.3C-11.9,465.4-12,465.3-11.9,465.3C-12,465.3-11.9,465.3-11.9,465.3z"/>
			<path id="XMLID_2909_" class="st23" d="M-17.9,464.5l1.2,0.1c0.1,0,0.4,0,0.5-0.1l0.6-0.5l0.1-0.1c0,0,0,0.1,0,0.2l-0.6,0.5
				c-0.1,0.1-0.3,0.1-0.5,0.1L-17.9,464.5C-18,464.5-18,464.5-17.9,464.5C-18,464.4-17.9,464.4-17.9,464.5z"/>
			<path id="XMLID_2906_" class="st23" d="M-9.9,465.6l1.1,0.1c0.1,0,0.4,0,0.5-0.1l0.7-0.5l0.1-0.1c0,0,0,0.1,0,0.2l-0.7,0.5
				c-0.1,0.1-0.3,0.1-0.5,0.1L-9.9,465.6C-10,465.6-10,465.6-9.9,465.6C-10,465.5-9.9,465.6-9.9,465.6z"/>
			<path id="XMLID_2903_" class="st23" d="M-4,464.5l-0.5,0.4C-4.6,465-4.8,465-5,465l-1.1-0.1c-0.1,0-0.1-0.1-0.1-0.1h0.1l1.1,0.1
				c0.1,0,0.4,0,0.5-0.1L-4,464.5c0-0.1,0-0.1,0-0.2C-3.9,464.4-3.9,464.4-4,464.5z"/>
			<path id="XMLID_2900_" class="st23" d="M-7.9,465.8l1.1,0.1c0.1,0,0.3,0,0.3,0s0.1-0.1,0.2-0.1l0.6-0.5l0.1-0.1c0,0,0,0.1,0,0.2
				l-0.6,0.5c-0.1,0.1-0.2,0.1-0.2,0.1s-0.1,0-0.3,0L-7.9,465.8C-7.9,465.9-8,465.9-7.9,465.8L-7.9,465.8z"/>
			<path id="XMLID_2897_" class="st23" d="M-17.4,461.4l-0.6,0.4c-0.1,0.1-0.2,0.2-0.2,0.2s-0.1,0-0.3,0l-1.1-0.1
				c-0.1,0-0.1-0.1-0.1-0.1h0.1l1.1,0.1c0.1,0,0.3,0,0.3,0s0.1-0.1,0.2-0.2L-17.4,461.4c0-0.1,0-0.1,0-0.2
				C-17.3,461.3-17.4,461.4-17.4,461.4z"/>
			<path id="XMLID_2557_" class="st23" d="M-9.4,462.5l-0.6,0.4c-0.1,0.1-0.3,0.1-0.5,0.1l-1.1-0.1c-0.1,0-0.1-0.1-0.1-0.1h0.1
				l1.1,0.1c0.1,0,0.4,0,0.5-0.1L-9.4,462.5c0-0.1,0-0.1,0-0.2C-9.3,462.4-9.3,462.5-9.4,462.5z"/>
			<path id="XMLID_2554_" class="st23" d="M-24.2,463.6l1.2,0.2c0.1,0,0.4,0,0.5-0.1l0.7-0.5l0.1-0.1c0,0,0,0.1,0,0.2l-0.7,0.5
				c-0.1,0.1-0.3,0.1-0.5,0.1L-24.2,463.6C-24.3,463.7-24.3,463.6-24.2,463.6C-24.3,463.6-24.2,463.6-24.2,463.6z"/>
			<path id="XMLID_2553_" class="st23" d="M-13.3,462l-0.6,0.4c-0.1,0.1-0.3,0.1-0.5,0.1l-1.1-0.2c-0.1,0-0.1-0.1-0.1-0.1h0.1
				l1.1,0.2c0.1,0,0.4,0,0.5-0.1L-13.3,462c0-0.1,0-0.1,0-0.2C-13.3,461.9-13.3,461.9-13.3,462z"/>
			<path id="XMLID_2551_" class="st23" d="M-11.4,462.2l-0.6,0.4c-0.1,0.1-0.3,0.1-0.5,0.1l-1-0.1c-0.1,0-0.1-0.1-0.1-0.1h0.1l1,0.1
				c0.1,0,0.4,0,0.5-0.1L-11.4,462.2c0-0.1,0-0.1,0-0.2C-11.3,462.1-11.3,462.2-11.4,462.2z"/>
			<path id="XMLID_2550_" class="st23" d="M-7.4,462.8l-0.6,0.4c-0.1,0.1-0.2,0.1-0.2,0.1s-0.1,0-0.2,0l-1-0.1
				c-0.1,0-0.1-0.1-0.1-0.1h0.1l1,0.1c0.1,0,0.2,0,0.2,0s0.1,0,0.2-0.1L-7.4,462.8c0-0.1,0-0.1,0-0.2
				C-7.3,462.7-7.3,462.7-7.4,462.8z"/>
			<path id="XMLID_2549_" class="st23" d="M-15.4,461.7l-0.6,0.4c-0.1,0.1-0.3,0.1-0.5,0.1l-1-0.1c-0.1,0-0.1-0.1-0.1-0.1h0.1l1,0.1
				c0.1,0,0.4,0,0.5-0.1L-15.4,461.7c0-0.1,0-0.1,0-0.2C-15.3,461.6-15.4,461.6-15.4,461.7z"/>
			<path id="XMLID_2547_" class="st23" d="M-20,462.3l-0.5,0.4c-0.1,0.1-0.3,0.1-0.5,0.1l-1.1-0.1c-0.1,0-0.1-0.1-0.1-0.1h0.1
				l1.1,0.1c0.1,0,0.4,0,0.5-0.1L-20,462.3c0-0.1,0-0.1,0-0.2C-20,462.1-20,462.2-20,462.3z"/>
		</g>
		<g id="XMLID_407_">
			<g id="XMLID_2541_" class="st24">
				<path id="XMLID_2543_" class="st18" d="M-24.3,465.8c0.1,0,0.2,0.1,0.1,0.2l-0.1,0.1c-0.1,0.1-0.3,0.1-0.5,0.1l-0.8-0.1
					c-0.1,0-0.1-0.1-0.1-0.2l0.1-0.1c0.1-0.1,0.3-0.1,0.5-0.1L-24.3,465.8z"/>
			</g>
			<g id="XMLID_2539_" class="st24">
				<path id="XMLID_2540_" class="st18" d="M-10.9,467.1c0.1,0,0.2,0.1,0.1,0.2l-0.9,0.7c-0.1,0.1-0.3,0.1-0.5,0.1l-7.7-1.1
					c-0.1,0-0.2-0.1-0.1-0.2l0.9-0.7c0.1-0.1,0.3-0.1,0.5-0.1L-10.9,467.1z"/>
			</g>
			<g id="XMLID_2534_" class="st24">
				<path id="XMLID_2537_" class="st18" d="M-21.8,465.5c0.1,0,0.2,0.1,0.1,0.2l-0.9,0.7c-0.1,0.1-0.3,0.1-0.5,0.1l-0.9-0.1
					c-0.1,0-0.2-0.1-0.1-0.2l0.9-0.7c0.1-0.1,0.3-0.1,0.5-0.1L-21.8,465.5z"/>
			</g>
			<g id="XMLID_2531_" class="st24">
				<path id="XMLID_2533_" class="st18" d="M-8.8,467.3c0.1,0,0.2,0.1,0.1,0.2l-0.9,0.7c-0.1,0.1-0.3,0.1-0.5,0.1l-1.2-0.2
					c-0.1,0-0.2-0.1-0.1-0.2l0.9-0.7c0.1-0.1,0.3-0.1,0.5-0.1L-8.8,467.3z"/>
			</g>
			<g id="XMLID_2529_" class="st24">
				<path id="XMLID_2530_" class="st18" d="M-19.6,465.9c0.1,0,0.2,0.1,0.1,0.2l-0.9,0.7c-0.1,0.1-0.3,0.1-0.5,0.1l-1.2-0.2
					c-0.1,0-0.2-0.1-0.1-0.2l0.9-0.7c0.1-0.1,0.3-0.1,0.5-0.1L-19.6,465.9z"/>
			</g>
			<g id="XMLID_2525_" class="st24">
				<path id="XMLID_2528_" class="st18" d="M-3.8,466.9c0.1-0.1,0.3-0.1,0.5-0.1l2,0.3c0.1,0,0.2,0.1,0.1,0.2l-0.7,0.5
					c-0.1,0.1-0.3,0.1-0.5,0.1l-1.9-0.3c-0.1,0-0.2-0.1-0.1-0.2L-3.8,466.9z"/>
			</g>
			<g id="XMLID_2523_" class="st24">
				<path id="XMLID_2524_" class="st18" d="M-6.8,467.6c0.1,0,0.2,0.1,0.1,0.2l-0.9,0.7c-0.1,0.1-0.3,0.1-0.5,0.1l-1-0.1
					c-0.1,0-0.2-0.1-0.1-0.2l0.9-0.7c0.1-0.1,0.3-0.1,0.5-0.1L-6.8,467.6z"/>
			</g>
			<g id="XMLID_2521_" class="st24">
				<path id="XMLID_2522_" class="st18" d="M-4.9,467.9c0.1,0,0.2,0.1,0.1,0.2l-0.9,0.7c-0.1,0.1-0.3,0.1-0.5,0.1l-0.9-0.1
					c-0.1,0-0.2-0.1-0.1-0.2l0.9-0.7c0.1-0.1,0.3-0.1,0.5-0.1L-4.9,467.9z"/>
			</g>
			<g id="XMLID_2349_" class="st24">
				<path id="XMLID_2350_" class="st18" d="M-2.8,468.2c0.1,0,0.2,0.1,0.1,0.2l-0.9,0.7c-0.1,0.1-0.3,0.1-0.5,0.1l-1.2-0.2
					c-0.1,0-0.2-0.1-0.1-0.2l0.9-0.7C-4.4,468-4.2,468-4,468L-2.8,468.2z"/>
			</g>
			<g id="XMLID_2347_" class="st24">
				<path id="XMLID_2348_" class="st18" d="M-15.4,462.7c0.1,0,0.1,0,0.3,0l1,0.1c0.1,0,0.2,0.1,0.1,0.2l-0.5,0.4
					c-0.1,0.1-0.2,0.1-0.2,0.1s-0.1,0-0.3,0l-1-0.1c-0.1,0-0.2-0.1-0.1-0.2l0.5-0.4C-15.5,462.7-15.5,462.7-15.4,462.7z"/>
			</g>
			<g id="XMLID_2345_" class="st24">
				<path id="XMLID_2346_" class="st18" d="M-25.6,465.7c0.1,0,0.1,0.1,0,0.1l-0.1,0.1c-0.1,0.1-0.3,0.2-0.5,0.1l-0.9-0.1
					c-0.1,0-0.1-0.1,0-0.1l0.1-0.1c0.1-0.1,0.3-0.2,0.5-0.1L-25.6,465.7z"/>
			</g>
			<g id="XMLID_2310_" class="st24">
				<path id="XMLID_2311_" class="st18" d="M-12.1,463.1c0.1,0,0.2,0.1,0.1,0.2l-0.5,0.4c-0.1,0.1-0.2,0.1-0.2,0.1s-0.1,0-0.2,0
					l-1.1-0.1c-0.1,0-0.2-0.1-0.1-0.2l0.5-0.4c0.1-0.1,0.3-0.1,0.5-0.1L-12.1,463.1z"/>
			</g>
			<g id="XMLID_2308_" class="st24">
				<path id="XMLID_2309_" class="st18" d="M-11.4,463.2c0,0,0.1,0,0.3,0l1,0.1c0.1,0,0.2,0.1,0.1,0.2l-0.5,0.4
					c-0.1,0.1-0.3,0.1-0.5,0.1l-1-0.1c-0.1,0-0.2-0.1-0.1-0.2l0.5-0.4C-11.5,463.3-11.4,463.2-11.4,463.2z"/>
			</g>
			<g id="XMLID_2306_" class="st24">
				<path id="XMLID_2307_" class="st18" d="M-20.1,462.8c-0.1,0-0.2-0.1-0.1-0.2l0.5-0.4c0.1-0.1,0.3-0.1,0.5-0.1l1,0.1
					c0.1,0,0.2,0.1,0.1,0.2l-0.5,0.4c-0.1,0.1-0.3,0.1-0.5,0.1L-20.1,462.8z"/>
			</g>
			<g id="XMLID_2304_" class="st24">
				<path id="XMLID_2305_" class="st18" d="M-17.5,462.4c0.1,0,0.1,0,0.3,0l1.1,0.2c0.1,0,0.2,0.1,0.1,0.2l-0.5,0.4
					c-0.1,0.1-0.2,0.1-0.2,0.1s-0.1,0-0.2,0l-1.1-0.2c-0.1,0-0.2-0.1-0.1-0.2l0.5-0.4C-17.6,462.5-17.5,462.4-17.5,462.4z"/>
			</g>
			<g id="XMLID_2302_" class="st24">
				<path id="XMLID_2303_" class="st18" d="M-27.1,465.7c-0.1,0.1-0.3,0.1-0.5,0.1l-0.8-0.1c-0.1,0-0.1-0.1,0-0.1l0.2-0.1
					c0.1-0.1,0.3-0.1,0.5-0.1l0.8,0.1c0.1,0,0.1,0.1,0,0.1L-27.1,465.7z"/>
			</g>
			<g id="XMLID_2300_" class="st24">
				<path id="XMLID_2301_" class="st18" d="M-19.8,463.2c0.1,0,0.2,0.1,0.1,0.2l-0.7,0.5c-0.1,0.1-0.3,0.1-0.5,0.1l-1.2-0.2
					c-0.1,0-0.2-0.1-0.1-0.2l0.7-0.5c0.1-0.1,0.3-0.1,0.5-0.1L-19.8,463.2z"/>
			</g>
			<g id="XMLID_2298_" class="st24">
				<path id="XMLID_2299_" class="st18" d="M-11.1,461.7c-0.1,0-0.2-0.1-0.1-0.2l0.2-0.2c0.1-0.1,0.3-0.1,0.5-0.1l1.3,0.2
					c0.1,0,0.2,0.1,0.1,0.2l-0.2,0.2c-0.1,0.1-0.3,0.1-0.5,0.1L-11.1,461.7z"/>
			</g>
			<g id="XMLID_2296_" class="st24">
				<path id="XMLID_2297_" class="st18" d="M-17.4,460.8c-0.1,0-0.2-0.1-0.1-0.2l0.2-0.2c0.1-0.1,0.3-0.1,0.5-0.1l1.3,0.2
					c0.1,0,0.2,0.1,0.1,0.2l-0.2,0.2c-0.1,0.1-0.3,0.1-0.5,0.1L-17.4,460.8z"/>
			</g>
			<g id="XMLID_2294_" class="st24">
				<path id="XMLID_2295_" class="st18" d="M-21.6,460.3c-0.1,0-0.2-0.1-0.1-0.2l0.2-0.2c0.1-0.1,0.3-0.1,0.5-0.1l1.2,0.2
					c0.1,0,0.2,0.1,0.1,0.2l-0.2,0.2c-0.1,0.1-0.3,0.1-0.5,0.1L-21.6,460.3z"/>
			</g>
			<g id="XMLID_2292_" class="st24">
				<path id="XMLID_2293_" class="st18" d="M-19.4,460.6c-0.1,0-0.2-0.1-0.1-0.2l0.2-0.2c0.1-0.1,0.3-0.1,0.5-0.1l1,0.1
					c0.1,0,0.2,0.1,0.1,0.2l-0.2,0.2c-0.1,0.1-0.3,0.1-0.5,0.1L-19.4,460.6z"/>
			</g>
			<g id="XMLID_2290_" class="st24">
				<path id="XMLID_2291_" class="st18" d="M-15.2,461.2c-0.1,0-0.2-0.1-0.1-0.2l0.2-0.2c0.1-0.1,0.3-0.1,0.5-0.1l1.1,0.2
					c0.1,0,0.2,0.1,0.1,0.2l-0.2,0.2c-0.1,0.1-0.3,0.1-0.5,0.1L-15.2,461.2z"/>
			</g>
			<g id="XMLID_2288_" class="st24">
				<path id="XMLID_2289_" class="st18" d="M-13.1,461.4c-0.1,0-0.2-0.1-0.1-0.2l0.2-0.2c0.1-0.1,0.3-0.1,0.5-0.1l1.1,0.2
					c0.1,0,0.2,0.1,0.1,0.2l-0.2,0.2c-0.1,0.1-0.3,0.1-0.5,0.1L-13.1,461.4z"/>
			</g>
			<g id="XMLID_2286_" class="st24">
				<path id="XMLID_2287_" class="st18" d="M-22.9,464.9c-0.1,0.1-0.2,0.1-0.2,0.1s-0.1,0-0.2,0l-3.6-0.5c-0.1,0-0.2-0.1-0.1-0.2
					l0.7-0.5c0.1-0.1,0.3-0.1,0.5-0.1l3.6,0.5c0.1,0,0.2,0.1,0.1,0.2L-22.9,464.9z"/>
			</g>
			<g id="XMLID_2284_" class="st24">
				<path id="XMLID_2285_" class="st18" d="M-3.9,466.4c-0.1,0-0.2-0.1-0.1-0.2l0.7-0.5c0.1-0.1,0.3-0.1,0.5-0.1L0,466
					c0.1,0,0.2,0.1,0.1,0.2l-0.7,0.5c-0.1,0.1-0.2,0.1-0.2,0.1s-0.1,0-0.3,0L-3.9,466.4z"/>
			</g>
			<g id="XMLID_2282_" class="st24">
				<path id="XMLID_2283_" class="st18" d="M-20,461.5c-0.1,0.1-0.3,0.1-0.5,0.1l-2.4-0.3c-0.1,0-0.2-0.1-0.1-0.2l0.6-0.4
					c0.1-0.1,0.3-0.1,0.5-0.1l2.4,0.3c0.1,0,0.2,0.1,0.1,0.2L-20,461.5z"/>
			</g>
			<g id="XMLID_2280_" class="st24">
				<path id="XMLID_2281_" class="st18" d="M-22.6,462.3c-0.1,0.1-0.1,0.1-0.2,0.1s-0.3,0-0.3,0c-0.1,0-0.2-0.1-0.3,0
					c-0.1,0-0.2,0.1-0.3,0.2l-1,0.8c-0.1,0.1-0.3,0.1-0.5,0.1l-0.4-0.1c-0.1,0-0.2-0.1-0.1-0.2l1.9-1.5c0.1-0.1,0.3-0.1,0.5-0.1
					l1.1,0.2c0.1,0,0.2,0.1,0.1,0.2L-22.6,462.3z"/>
			</g>
			<g id="XMLID_2278_" class="st24">
				<path id="XMLID_2279_" class="st18" d="M-0.5,463.2c-0.1,0-0.2-0.1-0.1-0.2l0.2-0.2c0.1-0.1,0.3-0.1,0.5-0.1l1.1,0.2
					c0.1,0,0.2,0.1,0.1,0.2l-0.2,0.2c-0.1,0.1-0.3,0.1-0.5,0.1L-0.5,463.2z"/>
			</g>
			<g id="XMLID_2276_" class="st24">
				<path id="XMLID_2277_" class="st18" d="M1,463.9c0.1-0.1,0.3-0.1,0.5-0.1l1.1,0.2c0.1,0,0.2,0.1,0.1,0.2l-0.6,0.4
					c-0.1,0.1-0.3,0.1-0.5,0.1l-1.1-0.2c-0.1,0-0.2-0.1-0.1-0.2L1,463.9z"/>
			</g>
			<g id="XMLID_2274_" class="st24">
				<path id="XMLID_2275_" class="st18" d="M-2.6,462.9c-0.1,0-0.2-0.1-0.1-0.2l0.2-0.2c0.1-0.1,0.3-0.1,0.5-0.1l1.1,0.2
					c0.1,0,0.2,0.1,0.1,0.2L-1,463c-0.1,0.1-0.3,0.1-0.5,0.1L-2.6,462.9z"/>
			</g>
			<g id="XMLID_2272_" class="st24">
				<path id="XMLID_2273_" class="st18" d="M-8.1,463.6c0.1,0,0.2,0.1,0.1,0.2l-0.5,0.4c-0.1,0.1-0.3,0.1-0.5,0.1l-1.1-0.1
					c-0.1,0-0.2-0.1-0.1-0.2l0.5-0.4c0.1-0.1,0.3-0.1,0.5-0.1L-8.1,463.6z"/>
			</g>
			<g id="XMLID_2270_" class="st24">
				<path id="XMLID_2271_" class="st18" d="M-1.5,464.7c0.1-0.1,0.3-0.1,0.5-0.1l2.4,0.3c0.1,0,0.2,0.1,0.1,0.2L1,465.5
					c-0.1,0.1-0.3,0.1-0.5,0.1l-2.4-0.3c-0.1,0-0.2-0.1-0.1-0.2L-1.5,464.7z"/>
			</g>
			<g id="XMLID_2268_" class="st24">
				<path id="XMLID_2269_" class="st18" d="M-8.8,462c-0.1,0-0.2-0.1-0.1-0.2l0.2-0.2c0.1-0.1,0.3-0.1,0.5-0.1l1.1,0.2
					c0.1,0,0.2,0.1,0.1,0.2l-0.2,0.2c-0.1,0.1-0.3,0.1-0.5,0.1L-8.8,462z"/>
			</g>
			<g id="XMLID_2266_" class="st24">
				<path id="XMLID_2267_" class="st18" d="M-4.7,462.6c-0.1,0-0.2-0.1-0.1-0.2l0.2-0.2c0.1-0.1,0.3-0.1,0.5-0.1l1.1,0.2
					c0.1,0,0.2,0.1,0.1,0.2l-0.2,0.2c-0.1,0.1-0.3,0.1-0.5,0.1L-4.7,462.6z"/>
			</g>
			<g id="XMLID_2264_" class="st24">
				<path id="XMLID_2265_" class="st18" d="M-6.7,462.3c-0.1,0-0.2-0.1-0.1-0.2l0.2-0.2c0.1-0.1,0.3-0.1,0.5-0.1L-5,462
					c0.1,0,0.2,0.1,0.1,0.2l-0.2,0.2c-0.1,0.1-0.3,0.1-0.5,0.1L-6.7,462.3z"/>
			</g>
			<g id="XMLID_2262_" class="st24">
				<path id="XMLID_2263_" class="st18" d="M1.4,463.4c0,0,0,0,0.1-0.1l0.2-0.2C1.8,463,2,463,2.2,463l1.4,0.2
					c0.1,0,0.2,0.1,0.1,0.2l-0.2,0.2c-0.1,0.1-0.3,0.1-0.5,0.1l-1.4-0.2C1.4,463.4,1.4,463.4,1.4,463.4z"/>
			</g>
			<g id="XMLID_2260_" class="st24">
				<path id="XMLID_2261_" class="st18" d="M-5.6,466.5c0,0,0.1,0,0.3,0l1,0.1c0.1,0,0.2,0.1,0.1,0.2l-0.7,0.5
					c-0.1,0.1-0.3,0.1-0.5,0.1l-1-0.1c-0.1,0-0.2-0.1-0.1-0.2l0.7-0.5C-5.7,466.6-5.6,466.5-5.6,466.5z"/>
			</g>
			<g id="XMLID_2258_" class="st24">
				<path id="XMLID_2259_" class="st18" d="M-5.9,466.1c-0.1,0-0.2-0.1-0.1-0.2l0.7-0.5c0.1-0.1,0.3-0.1,0.5-0.1l1,0.1
					c0.1,0,0.2,0.1,0.1,0.2l-0.7,0.5c-0.1,0.1-0.3,0.1-0.5,0.1L-5.9,466.1z"/>
			</g>
			<g id="XMLID_2256_" class="st24">
				<path id="XMLID_2257_" class="st18" d="M-3.6,464.5c0.1-0.1,0.2-0.1,0.2-0.1s0.1,0,0.3,0l1.1,0.1c0.1,0,0.2,0.1,0.1,0.2
					l-0.5,0.4c-0.1,0.1-0.3,0.1-0.5,0.1l-1.1-0.1c-0.1,0-0.2-0.1-0.1-0.2L-3.6,464.5z"/>
			</g>
			<g id="XMLID_2254_" class="st24">
				<path id="XMLID_2255_" class="st18" d="M-6.2,466.4c0.1,0,0.2,0.1,0.1,0.2l-0.7,0.5c-0.1,0.1-0.2,0.1-0.2,0.1s-0.1,0-0.3,0
					l-1.1-0.1c-0.1,0-0.2-0.1-0.1-0.2l0.7-0.5c0.1-0.1,0.3-0.1,0.5-0.1L-6.2,466.4z"/>
			</g>
			<g id="XMLID_2252_" class="st24">
				<path id="XMLID_2253_" class="st18" d="M-0.8,463.5c0,0,0.1,0,0.2,0l1.1,0.1c0.1,0,0.2,0.1,0.1,0.2L0,464.2
					c-0.1,0.1-0.3,0.1-0.5,0.1l-1.1-0.1c-0.1,0-0.2-0.1-0.1-0.2l0.5-0.4C-0.9,463.5-0.8,463.5-0.8,463.5z"/>
			</g>
			<g id="XMLID_2250_" class="st24">
				<path id="XMLID_2251_" class="st18" d="M-5.5,463.7c-0.1,0-0.2-0.1-0.1-0.2l0.6-0.4c0.1-0.1,0.3-0.1,0.5-0.1l1.1,0.1
					c0.1,0,0.2,0.1,0.1,0.2l-0.5,0.4c-0.1,0.1-0.3,0.1-0.5,0.1L-5.5,463.7z"/>
			</g>
			<g id="XMLID_2248_" class="st24">
				<path id="XMLID_2249_" class="st18" d="M-2.2,464.1c0,0-0.1,0-0.2,0l-1.1-0.1c-0.1,0-0.2-0.1-0.1-0.2l0.6-0.4
					c0.1-0.1,0.3-0.1,0.5-0.1l1.1,0.1c0.1,0,0.2,0.1,0.1,0.2l-0.6,0.4C-2.1,464.1-2.2,464.1-2.2,464.1z"/>
			</g>
			<g id="XMLID_2246_" class="st24">
				<path id="XMLID_2247_" class="st18" d="M-8.3,466.1c0.1,0,0.2,0.1,0.1,0.2l-0.7,0.5c-0.1,0.1-0.3,0.1-0.5,0.1l-1.1-0.1
					c-0.1,0-0.2-0.1-0.1-0.2l0.7-0.5c0.1-0.1,0.3-0.1,0.5-0.1L-8.3,466.1z"/>
			</g>
			<g id="XMLID_2244_" class="st24">
				<path id="XMLID_2245_" class="st18" d="M-18.3,464.7c0.1,0,0.2,0.1,0.1,0.2l-0.7,0.5c-0.1,0.1-0.3,0.1-0.5,0.1l-1-0.1
					c-0.1,0-0.2-0.1-0.1-0.2l0.7-0.5c0.1-0.1,0.3-0.1,0.5-0.1L-18.3,464.7z"/>
			</g>
			<g id="XMLID_2242_" class="st24">
				<path id="XMLID_2243_" class="st18" d="M-20.3,464.4c0.1,0,0.2,0.1,0.1,0.2l-0.7,0.5c-0.1,0.1-0.3,0.1-0.5,0.1l-1.1-0.1
					c-0.1,0-0.2-0.1-0.1-0.2l0.7-0.5c0.1-0.1,0.3-0.1,0.5-0.1L-20.3,464.4z"/>
			</g>
			<g id="XMLID_2240_" class="st24">
				<path id="XMLID_2241_" class="st18" d="M-25.1,465.2c0.2,0,0.2,0.1,0.1,0.2l-0.2,0.2c-0.1,0.1-0.3,0.1-0.4,0.1l-0.9-0.1
					c-0.1,0-0.2-0.1-0.1-0.2l0.3-0.2c0.1,0,0.2-0.1,0.2-0.1L-25.1,465.2z"/>
			</g>
			<g id="XMLID_2238_" class="st24">
				<path id="XMLID_2239_" class="st18" d="M-6.2,463.6c0,0-0.1,0-0.2,0l-1.1-0.1c-0.1,0-0.2-0.1-0.1-0.2l0.6-0.4
					c0.1-0.1,0.3-0.1,0.5-0.1l1.1,0.1c0.1,0,0.2,0.1,0.1,0.2l-0.6,0.4C-6.1,463.5-6.2,463.6-6.2,463.6z"/>
			</g>
			<g id="XMLID_2236_" class="st24">
				<path id="XMLID_2237_" class="st18" d="M-10.3,465.8c0.1,0,0.2,0.1,0.1,0.2l-0.7,0.5c-0.1,0.1-0.3,0.1-0.5,0.1l-1-0.1
					c-0.1,0-0.2-0.1-0.1-0.2l0.7-0.5c0.1-0.1,0.3-0.1,0.5-0.1L-10.3,465.8z"/>
			</g>
			<g id="XMLID_2234_" class="st24">
				<path id="XMLID_2235_" class="st18" d="M-12.3,465.5c0.1,0,0.2,0.1,0.1,0.2l-0.7,0.5c-0.1,0.1-0.3,0.1-0.5,0.1l-1.1-0.1
					c-0.1,0-0.2-0.1-0.1-0.2l0.7-0.5c0.1-0.1,0.3-0.1,0.5-0.1L-12.3,465.5z"/>
			</g>
			<g id="XMLID_2232_" class="st24">
				<path id="XMLID_2233_" class="st18" d="M-15.5,465.1c0,0,0.1,0,0.2,0l1,0.1c0.1,0,0.2,0.1,0.1,0.2l-0.7,0.5
					c-0.1,0.1-0.2,0.1-0.2,0.1s-0.1,0-0.3,0l-1-0.1c-0.1,0-0.2-0.1-0.1-0.2l0.7-0.5C-15.6,465.2-15.5,465.1-15.5,465.1z"/>
			</g>
			<g id="XMLID_2230_" class="st24">
				<path id="XMLID_2231_" class="st18" d="M-17.6,464.9c0,0,0.1,0,0.2,0l1.1,0.2c0.1,0,0.2,0.1,0.1,0.2l-0.7,0.5
					c-0.1,0.1-0.3,0.1-0.5,0.1l-1.1-0.2c-0.1,0-0.2-0.1-0.1-0.2l0.7-0.5C-17.7,464.9-17.6,464.9-17.6,464.9z"/>
			</g>
			<g id="XMLID_2228_" class="st24">
				<path id="XMLID_2229_" class="st18" d="M-7.4,463.8c0,0,0.1,0,0.3,0l1.1,0.1c0.1,0,0.2,0.1,0.1,0.2l-0.5,0.4
					c-0.1,0.1-0.1,0.1-0.2,0.1s-0.1,0-0.3,0l-1.1-0.1c-0.1,0-0.2-0.1-0.1-0.2l0.5-0.4C-7.5,463.8-7.4,463.8-7.4,463.8z"/>
			</g>
			<g id="XMLID_2226_" class="st24">
				<path id="XMLID_2227_" class="st18" d="M-12.6,465.1c-0.1,0-0.1,0-0.3,0L-14,465c-0.1,0-0.2-0.1-0.1-0.2l0.7-0.5
					c0.1-0.1,0.3-0.1,0.5-0.1l1.1,0.1c0.1,0,0.2,0.1,0.1,0.2l-0.6,0.5C-12.4,465.1-12.5,465.1-12.6,465.1z"/>
			</g>
			<g id="XMLID_2224_" class="st24">
				<path id="XMLID_2225_" class="st18" d="M-15.8,464.7c-0.1,0-0.2-0.1-0.1-0.2l0.7-0.5c0.1-0.1,0.3-0.1,0.5-0.1l1,0.1
					c0.1,0,0.2,0.1,0.1,0.2l-0.7,0.5c-0.1,0.1-0.3,0.1-0.5,0.1L-15.8,464.7z"/>
			</g>
			<g id="XMLID_2222_" class="st24">
				<path id="XMLID_2223_" class="st18" d="M-19.9,464.2c-0.1,0-0.2-0.1-0.1-0.2l0.7-0.5c0.1-0.1,0.3-0.1,0.5-0.1l1,0.1
					c0.1,0,0.2,0.1,0.1,0.2l-0.7,0.5c-0.1,0.1-0.3,0.1-0.5,0.1L-19.9,464.2z"/>
			</g>
			<g id="XMLID_2220_" class="st24">
				<path id="XMLID_2221_" class="st18" d="M-11.9,465.3c-0.1,0-0.2-0.1-0.1-0.2l0.7-0.5c0.1-0.1,0.3-0.1,0.5-0.1l1,0.1
					c0.1,0,0.2,0.1,0.1,0.2l-0.7,0.5c-0.1,0.1-0.3,0.1-0.5,0.1L-11.9,465.3z"/>
			</g>
			<g id="XMLID_2218_" class="st24">
				<path id="XMLID_2219_" class="st18" d="M-17.9,464.5c-0.1,0-0.2-0.1-0.1-0.2l0.7-0.5c0.1-0.1,0.3-0.1,0.5-0.1l1.1,0.2
					c0.1,0,0.2,0.1,0.1,0.2l-0.6,0.5c-0.1,0.1-0.3,0.1-0.5,0.1L-17.9,464.5z"/>
			</g>
			<g id="XMLID_2216_" class="st24">
				<path id="XMLID_2217_" class="st18" d="M-9.9,465.6c-0.1,0-0.2-0.1-0.1-0.2l0.6-0.5c0.1-0.1,0.2-0.1,0.2-0.2c0.1,0,0.1,0,0.3,0
					l1.1,0.1c0.1,0,0.2,0.1,0.1,0.2l-0.7,0.5c-0.1,0.1-0.3,0.1-0.5,0.1H-9.9z"/>
			</g>
			<g id="XMLID_2214_" class="st24">
				<path id="XMLID_2215_" class="st18" d="M-4.1,464.2c0.1,0,0.2,0.1,0.1,0.2l-0.5,0.4c-0.1,0.1-0.3,0.1-0.5,0.1l-1.1-0.1
					c-0.1,0-0.2-0.1-0.1-0.2l0.5-0.4c0.1-0.1,0.3-0.1,0.5-0.1L-4.1,464.2z"/>
			</g>
			<g id="XMLID_2212_" class="st24">
				<path id="XMLID_2213_" class="st18" d="M-6.5,466c0,0-0.1,0-0.3,0l-1.1-0.1c-0.1,0-0.2-0.1-0.1-0.2l0.7-0.5
					c0.1-0.1,0.3-0.1,0.5-0.1l1.1,0.1c0.1,0,0.2,0.1,0.1,0.2l-0.6,0.5C-6.4,465.9-6.5,466-6.5,466z"/>
			</g>
			<g id="XMLID_2210_" class="st24">
				<path id="XMLID_2211_" class="st18" d="M-18.2,461.9c0,0-0.1,0-0.3,0l-1.1-0.1c-0.1,0-0.2-0.1-0.1-0.2l0.6-0.4
					c0.1-0.1,0.3-0.1,0.5-0.1l1.1,0.1c0.1,0,0.2,0.1,0.1,0.2l-0.6,0.4C-18.1,461.9-18.2,461.9-18.2,461.9z"/>
			</g>
			<g id="XMLID_2208_" class="st24">
				<path id="XMLID_2209_" class="st18" d="M-11.5,462.9c-0.1,0-0.2-0.1-0.1-0.2l0.6-0.5c0.1-0.1,0.3-0.1,0.5-0.1l1.1,0.1
					c0.1,0,0.2,0.1,0.1,0.2l-0.6,0.4c-0.1,0.1-0.3,0.1-0.5,0.1H-11.5z"/>
			</g>
			<g id="XMLID_2206_" class="st24">
				<path id="XMLID_2207_" class="st18" d="M-22.5,463.6c-0.1,0.1-0.3,0.1-0.5,0.1l-1.2-0.2c-0.1,0-0.2-0.1-0.1-0.2l0.7-0.5
					c0.1-0.1,0.3-0.1,0.5-0.1l1.2,0.2c0.1,0,0.2,0.1,0.1,0.2L-22.5,463.6z"/>
			</g>
			<g id="XMLID_2204_" class="st24">
				<path id="XMLID_2205_" class="st18" d="M-15.5,462.3c-0.1,0-0.2-0.1-0.1-0.2l0.5-0.4c0.1-0.1,0.2-0.1,0.2-0.1s0.1,0,0.3,0
					l1.1,0.2c0.1,0,0.2,0.1,0.1,0.2l-0.6,0.4c-0.1,0.1-0.3,0.1-0.5,0.1L-15.5,462.3z"/>
			</g>
			<g id="XMLID_2202_" class="st24">
				<path id="XMLID_2203_" class="st18" d="M-13.4,462.6c-0.1,0-0.2-0.1-0.1-0.2l0.5-0.4c0.1-0.1,0.2-0.1,0.2-0.1s0.1,0,0.3,0l1,0.1
					c0.1,0,0.2,0.1,0.1,0.2l-0.6,0.4c-0.1,0.1-0.3,0.1-0.5,0.1L-13.4,462.6z"/>
			</g>
			<g id="XMLID_417_" class="st24">
				<path id="XMLID_419_" class="st18" d="M-8.2,463.3c0,0-0.1,0-0.2,0l-1-0.1c-0.1,0-0.2-0.1-0.1-0.2l0.6-0.4
					c0.1-0.1,0.3-0.1,0.5-0.1l1,0.1c0.1,0,0.2,0.1,0.1,0.2l-0.7,0.4C-8.1,463.2-8.2,463.3-8.2,463.3z"/>
			</g>
			<g id="XMLID_413_" class="st24">
				<path id="XMLID_415_" class="st18" d="M-17.5,462c-0.1,0-0.2-0.1-0.1-0.2l0.6-0.4c0.1-0.1,0.3-0.1,0.5-0.1l1,0.1
					c0.1,0,0.2,0.1,0.1,0.2L-16,462c-0.1,0.1-0.3,0.1-0.5,0.1L-17.5,462z"/>
			</g>
			<g id="XMLID_409_" class="st24">
				<path id="XMLID_411_" class="st18" d="M-22.1,462.6c-0.1,0-0.2-0.1-0.1-0.2l0.5-0.4c0.1-0.1,0.3-0.1,0.5-0.1l1.1,0.1
					c0.1,0,0.2,0.1,0.1,0.2l-0.5,0.4c-0.1,0.1-0.3,0.1-0.5,0.1L-22.1,462.6z"/>
			</g>
		</g>
	</g>
	<g id="XMLID_5027_" transform="matrix( 2.2337799072265625, 0, 0, 2.2337799072265625, -615.8,-92.35) ">
		<g id="XMLID_5028_">
			<g id="Layer0_160_MEMBER_0_MEMBER_155_FILL">
				<path id="XMLID_2156_" class="st25" d="M291.8,224.8h-0.5v0.1h0.3L291.8,224.8z"/>
			</g>
		</g>
	</g>
	<g id="XMLID_5024_" transform="matrix( 2.2337799072265625, 0, 0, 2.2337799072265625, -615.8,-92.35) ">
		<g id="XMLID_5025_">
			<g id="Layer0_160_MEMBER_0_MEMBER_156_FILL">
				<path id="XMLID_2155_" class="st25" d="M297.1,225.6l1.5,0.2v-0.1l-1.3-0.1H297.1z"/>
			</g>
		</g>
	</g>
	<g id="XMLID_5021_" transform="matrix( 2.2337799072265625, 0, 0, 2.2337799072265625, -615.8,-92.35) ">
		<g id="XMLID_5022_">
			<g id="Layer0_160_MEMBER_0_MEMBER_157_FILL">
				<path id="XMLID_2154_" class="st26" d="M298.7,224.6h0.3l0.1-0.1h-0.3L298.7,224.6z"/>
			</g>
		</g>
	</g>
	<g id="XMLID_5018_" transform="matrix( 2.2337799072265625, 0, 0, 2.2337799072265625, -615.8,-92.35) ">
		<g id="XMLID_5019_">
			<g id="Layer0_160_MEMBER_0_MEMBER_158_FILL">
				<path id="XMLID_2153_" class="st26" d="M297.3,225.5l1.3,0.1l-0.1-0.7l0.5-0.3h-0.3L297.3,225.5z"/>
			</g>
		</g>
	</g>
	<g id="XMLID_5015_" transform="matrix( 2.2337799072265625, 0, 0, 2.2337799072265625, -615.8,-92.35) ">
		<g id="XMLID_5016_">
			<g id="Layer0_160_MEMBER_0_MEMBER_159_FILL">
				<path id="XMLID_2152_" class="st26" d="M300,224.2l0.1-0.1L300,224.2L300,224.2l-1.5,0.8h0.2l0.1-0.1h0l1.1-0.7H300L300,224.2z"
					/>
			</g>
		</g>
	</g>
	<g id="XMLID_5012_" transform="matrix( 2.2337799072265625, 0, 0, 2.2337799072265625, -615.8,-92.35) ">
		<g id="XMLID_5013_">
			<g id="Layer0_160_MEMBER_0_MEMBER_160_FILL">
				<path id="XMLID_2151_" class="st27" d="M301.9,219.3l-0.8,0.6l-0.7,0.8l-0.7,1l-0.6,1.2l0.4,1.3l0.2-0.1h0.1l-0.3-1.2l0.3-0.7
					l0.5-0.9l0.8-1l0.4-0.4l0.2-0.1v-0.1L301.9,219.3z"/>
			</g>
		</g>
	</g>
	<g id="XMLID_5009_" transform="matrix( 2.2337799072265625, 0, 0, 2.2337799072265625, -615.8,-92.35) ">
		<g id="XMLID_5010_">
			<g id="Layer0_160_MEMBER_0_MEMBER_161_FILL">
				<path id="XMLID_2150_" class="st28" d="M302.6,222.2l-0.5,1l0.5,1.8l2.2-1.5l-0.4-3.5l-0.4,0.3l-0.7,0.6L302.6,222.2z"/>
			</g>
		</g>
	</g>
	<g id="XMLID_5006_" transform="matrix( 2.2337799072265625, 0, 0, 2.2337799072265625, -615.8,-92.35) ">
		<g id="XMLID_5007_">
			<g id="Layer0_160_MEMBER_0_MEMBER_162_FILL">
				<path id="XMLID_2149_" class="st28" d="M298.9,225.6l-0.1-0.8l-0.1,0.1l0.1,0.8L298.9,225.6L298.9,225.6z"/>
			</g>
		</g>
	</g>
	<g id="XMLID_5003_" transform="matrix( 2.2337799072265625, 0, 0, 2.2337799072265625, -615.8,-92.35) ">
		<g id="XMLID_5004_">
			<g id="Layer0_160_MEMBER_0_MEMBER_163_FILL">
				<path id="XMLID_2148_" class="st28" d="M300.2,224.7L300.2,224.7l-0.1-0.6l-0.1,0.1l0.1,0.8l0.2-0.1L300.2,224.7z"/>
			</g>
		</g>
	</g>
	<g id="XMLID_5000_" transform="matrix( 2.2337799072265625, 0, 0, 2.2337799072265625, -615.8,-92.35) ">
		<g id="XMLID_5001_">
			<g id="Layer0_160_MEMBER_0_MEMBER_164_FILL">
				<path id="XMLID_2147_" class="st29" d="M300.2,224.6L300.2,224.6l2.4,0.4l-0.5-1.8l-2.4-0.3l0.3,1.2h0.1L300.2,224.6z"/>
			</g>
		</g>
	</g>
	<g id="XMLID_4995_" transform="matrix( 2.2337799072265625, 0, 0, 2.2337799072265625, -615.8,-92.35) ">
		<g id="XMLID_4996_">
			<g id="Layer0_160_MEMBER_0_MEMBER_165_FILL">
				<path id="XMLID_4997_" class="st12" d="M269.9,222.7l1.2-0.5l0.1-0.1h-0.1l-0.4,0.3L269.9,222.7L268,223L269.9,222.7
					 M266.8,223.2h0.5h-1.2l-0.9-0.2l-0.4-0.2l-0.1-0.1l-0.1-0.1v-0.1v-0.1l0.1-0.1l0.1-0.1l0.8-0.4l0.3-0.1h-0.1l-0.2,0.1l-0.6,0.3
					l-0.2,0.1l-0.1,0.1l-0.1,0.2v0.1v-0.1v0.2l0.1,0.1l0.4,0.2l0.6,0.2L266.8,223.2z"/>
			</g>
		</g>
	</g>
	<g id="XMLID_4992_" transform="matrix( 2.2337799072265625, 0, 0, 2.2337799072265625, -615.8,-92.35) ">
		<g id="XMLID_4993_">
			<g id="Layer0_160_MEMBER_0_MEMBER_166_FILL">
				<path id="XMLID_2144_" class="st30" d="M265.6,221.2L265.6,221.2v0.2l0.2-0.1h0.1l5.3,0.6h0.1l0,0l-0.1-0.1L265.6,221.2z"/>
			</g>
		</g>
	</g>
	<g id="XMLID_4989_" transform="matrix( 2.2337799072265625, 0, 0, 2.2337799072265625, -615.8,-92.35) ">
		<g id="XMLID_4990_">
			<g id="Layer0_160_MEMBER_0_MEMBER_167_FILL">
				<path id="XMLID_2143_" class="st31" d="M267.9,222.4h-0.6l-0.4-0.1l0,0l0,0l0,0l0,0v-0.1l0,0h0.1h0.1h0.1h0.1h0.1h0.1l0.3-0.1
					l-1.9-0.2l-0.3,0.1l-0.8,0.4l-0.1,0.1l-0.1,0.1v0.1v-0.2l0.1,0.1l0.1,0.1l0.4,0.2l0.9,0.2h1.2h0.4l1.7-0.3l1.4-0.5l0.4-0.3
					l-1.9-0.2v0.1l0,0l-0.1,0.1l-0.3,0.2h-0.1h-0.1L267.9,222.4z"/>
			</g>
		</g>
	</g>
	<g id="XMLID_4986_" transform="matrix( 2.2337799072265625, 0, 0, 2.2337799072265625, -615.8,-92.35) ">
		<g id="XMLID_4987_">
			<g id="Layer0_160_MEMBER_0_MEMBER_168_FILL">
				<path id="XMLID_2142_" class="st30" d="M265.4,221.5l0.2-0.1l0,0L265.4,221.5L265.4,221.5z"/>
			</g>
		</g>
	</g>
	<g id="XMLID_4984_">
		<g id="Layer0_160_MEMBER_0_MEMBER_169_FILL">
			<path id="XMLID_2141_" class="st32" d="M-24.2,400.6l0.5,2.4l0.7-0.3v-0.2v-0.3l0.1-0.1l0.1-0.1l0.1-0.1h0.1l12.4,1.5l0.3,0.2
				l0.1,0.1h0.1v0.1l0.1,0.1v0.2l0.1,0.1l-0.3,0.1l-0.1,0.1v0.1l-0.1,0.1h0l-0.6-0.1l-0.1,0.1l-2.3,0.8l4.3,0.5l-0.7-3.6
				L-24.2,400.6z"/>
		</g>
	</g>
	<g id="XMLID_4979_" transform="matrix( 2.2337799072265625, 0, 0, 2.2337799072265625, -615.8,-92.35) ">
		<g id="XMLID_4980_">
			<g id="Layer0_160_MEMBER_0_MEMBER_170_FILL">
				<path id="XMLID_2140_" class="st30" d="M271.3,222.3L271.3,222.3L271.3,222.3v-0.2l0,0l0,0l-0.1,0.1l0,0L271.3,222.3z"/>
			</g>
		</g>
	</g>
	<g id="XMLID_4976_" transform="matrix( 2.2337799072265625, 0, 0, 2.2337799072265625, -615.8,-92.35) ">
		<g id="XMLID_4977_">
			<g id="Layer0_160_MEMBER_0_MEMBER_171_FILL">
				<path id="XMLID_2139_" class="st33" d="M271.3,222.1L271.3,222.1L271.3,222.1l-0.2,0.1l0,0L271.3,222.1z"/>
			</g>
		</g>
	</g>
	<g id="XMLID_4968_" transform="matrix( 2.2337799072265625, 0, 0, 2.2337799072265625, -615.8,-92.35) ">
		<g id="XMLID_4972_">
			<g id="Layer0_160_MEMBER_0_MEMBER_172_FILL">
				<path id="XMLID_4973_" class="st32" d="M296.3,216.4v-0.5l-9.2,5.2l-9.6-1.1l8.7-4.6h-0.1H286h-0.2h-0.1h-0.2l-9.6,5l0,0l0,0
					l0,0l0,0l0,0h0.1h0.1l10.1,1.2h0.4h0.1h0.1l0,0h0.1l0,0l0,0L296.3,216.4 M281.9,220.8h0.1l0,0l0,0H281.9l-0.3,0.2h-0.1h-0.1
					h-0.1h-0.1h-0.1l0,0l0,0l0.1-0.1l0.4-0.1H281.9z"/>
			</g>
		</g>
	</g>
	<g id="XMLID_4964_" transform="matrix( 2.2337799072265625, 0, 0, 2.2337799072265625, -615.8,-92.35) ">
		<g id="XMLID_4966_">
			<g id="Layer0_160_MEMBER_0_MEMBER_173_FILL">
				<path id="XMLID_2134_" class="st30" d="M286.5,215.5h-0.3l-8.7,4.6h0.3L286.5,215.5z"/>
			</g>
		</g>
	</g>
	<g id="XMLID_4961_" transform="matrix( 2.2337799072265625, 0, 0, 2.2337799072265625, -615.8,-92.35) ">
		<g id="XMLID_4962_">
			<g id="Layer0_160_MEMBER_0_MEMBER_174_FILL">
				<path id="XMLID_2133_" class="st30" d="M286.6,215.5L286.6,215.5h-0.1h-0.3H286.6z"/>
			</g>
		</g>
	</g>
	<g id="XMLID_4958_" transform="matrix( 2.2337799072265625, 0, 0, 2.2337799072265625, -615.8,-92.35) ">
		<g id="XMLID_4959_">
			<g id="Layer0_160_MEMBER_0_MEMBER_175_FILL">
				<path id="XMLID_2132_" class="st34" d="M299.3,223.8l0.1,0.5l0.1-0.1l-0.4-1.3l-7.3-0.9l0.6,1.9l0,0h0.2l-0.3-1L299.3,223.8z"/>
			</g>
		</g>
	</g>
	<g id="XMLID_4955_" transform="matrix( 2.2337799072265625, 0, 0, 2.2337799072265625, -615.8,-92.35) ">
		<g id="XMLID_4956_">
			<g id="Layer0_160_MEMBER_0_MEMBER_176_FILL">
				<path id="XMLID_2131_" class="st26" d="M292.4,223.3v-0.1l-0.1,0.1H292.4h-0.1l-1.1,0.6h-0.1L291,224h0.2L292.4,223.3z"/>
			</g>
		</g>
	</g>
	<g id="XMLID_4952_" transform="matrix( 2.2337799072265625, 0, 0, 2.2337799072265625, -615.8,-92.35) ">
		<g id="XMLID_4953_">
			<g id="Layer0_160_MEMBER_0_MEMBER_177_FILL">
				<path id="XMLID_2130_" class="st26" d="M292.6,223.9l-1.3,0.8h0.5l1.4-0.9h-0.3h-0.1v0.1H292.6L292.6,223.9z"/>
			</g>
		</g>
	</g>
	<g id="XMLID_4949_" transform="matrix( 2.2337799072265625, 0, 0, 2.2337799072265625, -615.8,-92.35) ">
		<g id="XMLID_4950_">
			<g id="Layer0_160_MEMBER_0_MEMBER_178_FILL">
				<path id="XMLID_2129_" class="st28" d="M292.7,223.1l0.2,0.8l0.2-0.1l-0.1-0.6L292.7,223.1z"/>
			</g>
		</g>
	</g>
	<g id="XMLID_4946_" transform="matrix( 2.2337799072265625, 0, 0, 2.2337799072265625, -615.8,-92.35) ">
		<g id="XMLID_4947_">
			<g id="Layer0_160_MEMBER_0_MEMBER_179_FILL">
				<path id="XMLID_2128_" class="st28" d="M292.8,223.9h0.1h0.1l-0.2-0.8l-0.3-0.1L292.8,223.9z"/>
			</g>
		</g>
	</g>
	<g id="XMLID_4943_" transform="matrix( 2.2337799072265625, 0, 0, 2.2337799072265625, -615.8,-92.35) ">
		<g id="XMLID_4944_">
			<g id="Layer0_160_MEMBER_0_MEMBER_180_FILL">
				<path id="XMLID_2127_" class="st29" d="M292.2,223.3L292.2,223.3l0.1-0.1l-0.4-1.2l-1.9-0.2l0.6,1.8l1,0.1L292.2,223.3z"/>
			</g>
		</g>
	</g>
	<g id="XMLID_4940_" transform="matrix( 2.2337799072265625, 0, 0, 2.2337799072265625, -615.8,-92.35) ">
		<g id="XMLID_4941_">
			<g id="Layer0_160_MEMBER_0_MEMBER_181_FILL">
				<path id="XMLID_2126_" class="st26" d="M293.2,223.9l0.1-0.1L293.2,223.9v-0.2l-0.2,0.1h-0.1L293.2,223.9z"/>
			</g>
		</g>
	</g>
	<g id="XMLID_4937_" transform="matrix( 2.2337799072265625, 0, 0, 2.2337799072265625, -615.8,-92.35) ">
		<g id="XMLID_4938_">
			<g id="Layer0_160_MEMBER_0_MEMBER_182_FILL">
				<path id="XMLID_2125_" class="st25" d="M299.5,224.3l-0.1-0.5l-6.2-0.7l0.1,0.7h0.1l0.5-0.3l5.4,0.7l-0.5,0.3h0.3L299.5,224.3z"
					/>
			</g>
		</g>
	</g>
	<g id="XMLID_4934_" transform="matrix( 2.2337799072265625, 0, 0, 2.2337799072265625, -615.8,-92.35) ">
		<g id="XMLID_4935_">
			<g id="Layer0_160_MEMBER_0_MEMBER_183_FILL">
				<path id="XMLID_2124_" class="st15" d="M296.6,213.9h-0.2l-0.3,4.8h0.3L296.6,213.9z"/>
			</g>
		</g>
	</g>
	<g id="XMLID_4931_" transform="matrix( 2.2337799072265625, 0, 0, 2.2337799072265625, -615.8,-92.35) ">
		<g id="XMLID_4932_">
			<g id="Layer0_160_MEMBER_0_MEMBER_184_FILL">
				<path id="XMLID_2123_" class="st30" d="M296.3,215l-1.3-0.1l-1,0.1l2.4,0.3V215H296.3z"/>
			</g>
		</g>
	</g>
	<g id="XMLID_4928_" transform="matrix( 2.2337799072265625, 0, 0, 2.2337799072265625, -615.8,-92.35) ">
		<g id="XMLID_4929_">
			<g id="Layer0_160_MEMBER_0_MEMBER_185_FILL">
				<path id="XMLID_2122_" class="st15" d="M302.3,214.5H302l-0.3,4.8h0.2v0.4L302.3,214.5z"/>
			</g>
		</g>
	</g>
	<g id="XMLID_4925_" transform="matrix( 2.2337799072265625, 0, 0, 2.2337799072265625, -615.8,-92.35) ">
		<g id="XMLID_4926_">
			<g id="Layer0_160_MEMBER_0_MEMBER_186_FILL">
				<path id="XMLID_2121_" class="st30" d="M271.3,222.3h-0.2l-0.2,0.1h0.3L271.3,222.3z"/>
			</g>
		</g>
	</g>
	<g id="XMLID_4922_" transform="matrix( 2.2337799072265625, 0, 0, 2.2337799072265625, -615.8,-92.35) ">
		<g id="XMLID_4923_">
			<g id="Layer0_160_MEMBER_0_MEMBER_187_FILL">
				<path id="XMLID_2120_" class="st30" d="M296.4,214.7L296.4,214.7l-9.7,0.7v0.1L296.4,214.7z"/>
			</g>
		</g>
	</g>
	<g id="XMLID_4918_" transform="matrix( 2.2337799072265625, 0, 0, 2.2337799072265625, -615.8,-92.35) ">
		<g id="XMLID_4920_">
			<g id="Layer0_160_MEMBER_0_MEMBER_188_FILL">
				<path id="XMLID_2119_" class="st32" d="M296.3,215.9v-0.7l-2.4-0.3l-7.3,0.6h-0.2l-8.6,4.6l9.3,1.1L296.3,215.9z"/>
			</g>
		</g>
	</g>
	<g id="XMLID_4915_" transform="matrix( 2.2337799072265625, 0, 0, 2.2337799072265625, -615.8,-92.35) ">
		<g id="XMLID_4916_">
			<g id="Layer0_160_MEMBER_0_MEMBER_189_FILL">
				<path id="XMLID_2118_" class="st28" d="M292.4,223.3l-1.2,0.8l0.1,0.7l1.3-0.8L292.4,223.3z"/>
			</g>
		</g>
	</g>
	<g id="XMLID_4911_" transform="matrix( 2.2337799072265625, 0, 0, 2.2337799072265625, -615.8,-92.35) ">
		<g id="XMLID_4913_">
			<g id="Layer0_160_MEMBER_0_MEMBER_190_FILL">
				<path id="XMLID_2117_" class="st32" d="M275.3,214L275.3,214h-0.1l0,0l0,0H275.3L275.3,214L275.3,214l0.1,0.1l4,0.4h0.1l0,0h1.1
					l0.8,0.1h0.1l0,0l0,0l0,0l0,0l0,0l4.1,0.5h0.1h0.1h0.6l9.9-0.8v-0.6l0,0h0.2l0,0l-7.1-0.8L275.3,214z"/>
			</g>
		</g>
	</g>
	<g id="XMLID_4908_" transform="matrix( 2.2337799072265625, 0, 0, 2.2337799072265625, -615.8,-92.35) ">
		<g id="XMLID_4909_">
			<g id="Layer0_160_MEMBER_0_MEMBER_191_FILL">
				<path id="XMLID_2116_" class="st30" d="M295,214.8l1.3,0.1v-0.3L295,214.8z"/>
			</g>
		</g>
	</g>
	<g id="XMLID_4906_">
		<g id="Layer0_160_MEMBER_0_MEMBER_192_FILL">
			<path id="XMLID_2115_" class="st32" d="M6.9,396.7l-0.4-2.5l-15.7,8.1l0.7,3.6l9-4.7l-0.3-0.9l0,0l0.1-0.1l0.1-0.1L6.9,396.7z"/>
		</g>
	</g>
	<g id="XMLID_4899_" transform="matrix( 2.2337799072265625, 0, 0, 2.2337799072265625, -615.8,-92.35) ">
		<g id="XMLID_4900_">
			<g id="Layer0_160_MEMBER_0_MEMBER_193_FILL">
				<path id="XMLID_4901_" class="st12" d="M267.6,221.7h-0.1h-0.1h-0.1h-0.1h-0.1H267l0,0v0.1l0,0l0,0l0,0l0,0l0.4,0.1h0.6l0.6-0.1
					h0.1h0.1l0.3-0.2l0.1-0.1l0,0v-0.1l-1.4-0.2L267.6,221.7 M267.7,221.8L267.7,221.8h0.3h0.1h0.1h0.4h0.1l0,0h0.1l0,0l0,0l0,0v0.1
					l0,0l0,0h-0.1l-0.3,0.1h-0.1h-0.2h-0.5h-0.1l0,0l0,0l-0.1-0.1v-0.1l0,0l0,0l0,0l0,0h0.1H267.7L267.7,221.8z"/>
			</g>
		</g>
	</g>
	<g id="XMLID_4893_" transform="matrix( 2.2337799072265625, 0, 0, 2.2337799072265625, -615.8,-92.35) ">
		<g id="XMLID_4897_">
			<g id="Layer0_160_MEMBER_0_MEMBER_194_FILL">
				<path id="XMLID_2112_" class="st32" d="M296.2,218.1l0.1-1.7l-9.4,5.4l0,0l0,0h-0.1l0,0h-0.1h-0.1h-0.4l-10.1-1.2H276h-0.1l0,0
					l0,0l0.3,1.5l0,0l0.1,0.1h0.1h0.1l0,0l10.1,1.2h0.4h0.1h0.1h0.1l0,0h0.1c0.9-0.6,1.9-1.1,2.8-1.6l0.5-1l0.6-0.9l0.7-0.7l0.7-0.5
					l1.6,0.2l0.6-0.4h0.7L296.2,218.1z"/>
			</g>
		</g>
	</g>
	<g id="XMLID_4890_" transform="matrix( 2.2337799072265625, 0, 0, 2.2337799072265625, -615.8,-92.35) ">
		<g id="XMLID_4891_">
			<g id="Layer0_160_MEMBER_0_MEMBER_195_FILL">
				<path id="XMLID_2109_" class="st30" d="M281.1,214.8h-1.4l1.7,0.2v-0.1L281.1,214.8z"/>
			</g>
		</g>
	</g>
	<g id="XMLID_4886_" transform="matrix( 2.2337799072265625, 0, 0, 2.2337799072265625, -615.8,-92.35) ">
		<g id="XMLID_4888_">
			<g id="Layer0_160_MEMBER_0_MEMBER_196_FILL">
				<path id="XMLID_2108_" class="st35" d="M275.4,214L275.4,214h-0.1h-0.1l0,0l0,0v0.2l0,0h0.1l0,0h0.1l6,0.6v0.1l0,0l0,0l3.9,0.4
					h0.2h0.1h0.2h0.1h0.4h0.1l9.7-0.8v-0.2l-9.9,0.8h-0.6h-0.1h-0.1l-4.1-0.5l0,0l0,0l0,0l0,0l0,0h-0.1l-0.3-0.1h-1.5l0,0h-0.1
					L275.4,214z"/>
			</g>
		</g>
	</g>
	<g id="XMLID_4883_" transform="matrix( 2.2337799072265625, 0, 0, 2.2337799072265625, -615.8,-92.35) ">
		<g id="XMLID_4884_">
			<g id="Layer0_160_MEMBER_0_MEMBER_197_FILL">
				<path id="XMLID_2107_" class="st36" d="M294,219l0.2-0.1l-1.6-0.2l-0.9,0.7l-0.4,0.5l-0.6,0.9l-0.5,1l1.9,0.2l0.6-1.2l0.5-0.7
					l0,0l0.2-0.3l0.1-0.2l0.3-0.4l0,0L294,219z"/>
			</g>
		</g>
	</g>
	<g id="XMLID_4880_" transform="matrix( 2.2337799072265625, 0, 0, 2.2337799072265625, -615.8,-92.35) ">
		<g id="XMLID_4881_">
			<g id="Layer0_160_MEMBER_0_MEMBER_198_FILL">
				<path id="XMLID_2106_" class="st37" d="M304,220.4l0.4-0.3l-2.4-0.2l0,0l-0.4,0.3l-0.2,0.2l-0.8,1l-0.5,0.9l-0.3,0.7l2.4,0.3
					l0.5-1l0.7-1.2L304,220.4z"/>
			</g>
		</g>
	</g>
	<g id="XMLID_4877_" transform="matrix( 2.2337799072265625, 0, 0, 2.2337799072265625, -615.8,-92.35) ">
		<g id="XMLID_4878_">
			<g id="Layer0_160_MEMBER_0_MEMBER_199_FILL">
				<path id="XMLID_2105_" class="st38" d="M300,221.3l1.2-1.5l0.8-0.6l-7.2-0.8l-0.6,0.4l-0.4,0.3l0,0l-0.3,0.4l-0.1,0.2l-0.2,0.3
					l0,0l-0.5,0.7l-0.6,1.2l7.3,0.9l0.2-0.4L300,221.3z"/>
			</g>
		</g>
	</g>
	<g id="XMLID_4874_" transform="matrix( 2.2337799072265625, 0, 0, 2.2337799072265625, -615.8,-92.35) ">
		<g id="XMLID_4875_">
			<g id="Layer0_160_MEMBER_0_MEMBER_200_FILL">
				<path id="XMLID_2104_" class="st25" d="M291.3,224.9l-0.1-0.8H291l0.1,0.8H291.3z"/>
			</g>
		</g>
	</g>
	<g id="XMLID_4871_" transform="matrix( 2.2337799072265625, 0, 0, 2.2337799072265625, -615.8,-92.35) ">
		<g id="XMLID_4872_">
			<g id="Layer0_160_MEMBER_0_MEMBER_201_FILL">
				<path id="XMLID_2103_" class="st25" d="M299.8,224.2l0.1,0.8h0.1l-0.1-0.8H299.8z"/>
			</g>
		</g>
	</g>
	<g id="XMLID_4868_" transform="matrix( 2.2337799072265625, 0, 0, 2.2337799072265625, -615.8,-92.35) ">
		<g id="XMLID_4869_">
			<g id="Layer0_160_MEMBER_0_MEMBER_202_FILL">
				<path id="XMLID_2102_" class="st28" d="M299.8,224.2l-1.1,0.7h0.1l0.1,0.8l1-0.6L299.8,224.2z"/>
			</g>
		</g>
	</g>
	<g id="XMLID_4865_" transform="matrix( 2.2337799072265625, 0, 0, 2.2337799072265625, -615.8,-92.35) ">
		<g id="XMLID_4866_">
			<g id="Layer0_160_MEMBER_0_MEMBER_203_FILL">
				<path id="XMLID_2101_" class="st25" d="M298.6,225.7L298.6,225.7l0.2,0.1l-0.1-0.8h-0.2L298.6,225.7z"/>
			</g>
		</g>
	</g>
	<g id="XMLID_4862_" transform="matrix( 2.2337799072265625, 0, 0, 2.2337799072265625, -615.8,-92.35) ">
		<g id="XMLID_4863_">
			<g id="Layer0_160_MEMBER_0_MEMBER_204_FILL">
				<path id="XMLID_2100_" class="st30" d="M265.4,221.4L265.4,221.4h0.1v-0.1L265.4,221.4z"/>
			</g>
		</g>
	</g>
	<g id="XMLID_4860_">
		<g id="Layer0_160_MEMBER_0_MEMBER_205_FILL">
			<path id="XMLID_2099_" class="st32" d="M-9.3,402.4l15.7-8.1l-14.3-1.6l-16.3,8L-9.3,402.4z"/>
		</g>
	</g>
	<g id="XMLID_4855_" transform="matrix( 2.2337799072265625, 0, 0, 2.2337799072265625, -615.8,-92.35) ">
		<g id="XMLID_4856_">
			<g id="Layer0_160_MEMBER_0_MEMBER_206_FILL">
				<path id="XMLID_2098_" class="st30" d="M265.4,221.4L265.4,221.4h0.2l0,0H265.4z"/>
			</g>
		</g>
	</g>
	<g id="XMLID_4850_" transform="matrix( 2.2337799072265625, 0, 0, 2.2337799072265625, -615.8,-92.35) ">
		<g id="XMLID_4851_">
			<g id="Layer0_160_MEMBER_0_MEMBER_207_FILL">
				<path id="XMLID_4852_" class="st30" d="M264.6,222.7L264.6,222.7l0.3,0.2l0.8,0.2l1.6,0.1l1.8-0.2l0.8-0.2l1-0.4l0,0l0.2-0.1
					l0,0l-1.2,0.5L269,223l-2.2,0.2l-1.2-0.1l-0.6-0.2L264.6,222.7L264.6,222.7L264.6,222.7 M264.5,222.5L264.5,222.5L264.5,222.5
					L264.5,222.5z"/>
			</g>
		</g>
	</g>
	<g id="XMLID_4847_" transform="matrix( 2.2337799072265625, 0, 0, 2.2337799072265625, -615.8,-92.35) ">
		<g id="XMLID_4848_">
			<g id="Layer0_160_MEMBER_0_MEMBER_208_FILL">
				<path id="XMLID_2095_" class="st30" d="M267.5,221.9l-0.1,0.1l0,0l0,0l0,0l0,0l0,0l0,0h0.1h0.5h0.2h0.1l0.3-0.1H267.5
					L267.5,221.9z"/>
			</g>
		</g>
	</g>
	<g id="XMLID_4844_" transform="matrix( 2.2337799072265625, 0, 0, 2.2337799072265625, -615.8,-92.35) ">
		<g id="XMLID_4845_">
			<g id="Layer0_160_MEMBER_0_MEMBER_209_FILL">
				<path id="XMLID_2094_" class="st30" d="M268.5,221.8h-0.4H268h-0.1h-0.2l1,0.1l0,0l0,0l0,0l0,0L268.5,221.8L268.5,221.8
					L268.5,221.8z"/>
			</g>
		</g>
	</g>
	<g id="XMLID_4841_" transform="matrix( 2.2337799072265625, 0, 0, 2.2337799072265625, -615.8,-92.35) ">
		<g id="XMLID_4842_">
			<g id="Layer0_160_MEMBER_0_MEMBER_210_FILL">
				<path id="XMLID_2093_" class="st30" d="M267.8,221.9h-0.2l0,0l1.1,0.1h0.1l0,0l0,0L267.8,221.9z"/>
			</g>
		</g>
	</g>
	<g id="XMLID_4838_" transform="matrix( 2.2337799072265625, 0, 0, 2.2337799072265625, -615.8,-92.35) ">
		<g id="XMLID_4839_">
			<g id="Layer0_160_MEMBER_0_MEMBER_211_FILL">
				<path id="XMLID_2092_" class="st30" d="M267.8,221.9L267.8,221.9L267.8,221.9L267.8,221.9L267.8,221.9z"/>
			</g>
		</g>
	</g>
	<g id="XMLID_4835_" transform="matrix( 2.2337799072265625, 0, 0, 2.2337799072265625, -615.8,-92.35) ">
		<g id="XMLID_4836_">
			<g id="Layer0_160_MEMBER_0_MEMBER_212_FILL">
				<path id="XMLID_2091_" class="st30" d="M268.1,221.7L268.1,221.7h0.1H268.1L268.1,221.7z"/>
			</g>
		</g>
	</g>
	<g id="XMLID_4832_" transform="matrix( 2.2337799072265625, 0, 0, 2.2337799072265625, -615.8,-92.35) ">
		<g id="XMLID_4833_">
			<g id="Layer0_160_MEMBER_0_MEMBER_213_FILL">
				<path id="XMLID_2090_" class="st30" d="M267.7,221.8L267.7,221.8h0.1H267.7L267.7,221.8z"/>
			</g>
		</g>
	</g>
	<g id="XMLID_4829_" transform="matrix( 2.2337799072265625, 0, 0, 2.2337799072265625, -615.8,-92.35) ">
		<g id="XMLID_4830_">
			<g id="Layer0_160_MEMBER_0_MEMBER_214_FILL">
				<path id="XMLID_2089_" class="st30" d="M267.4,221.9L267.4,221.9L267.4,221.9L267.4,221.9L267.4,221.9z"/>
			</g>
		</g>
	</g>
	<g id="XMLID_4826_" transform="matrix( 2.2337799072265625, 0, 0, 2.2337799072265625, -615.8,-92.35) ">
		<g id="XMLID_4827_">
			<g id="Layer0_160_MEMBER_0_MEMBER_215_FILL">
				<path id="XMLID_2088_" class="st33" d="M267.4,222L267.4,222L267.4,222L267.4,222L267.4,222z"/>
			</g>
		</g>
	</g>
	<g id="XMLID_4823_" transform="matrix( 2.2337799072265625, 0, 0, 2.2337799072265625, -615.8,-92.35) ">
		<g id="XMLID_4824_">
			<g id="Layer0_160_MEMBER_0_MEMBER_216_FILL">
				<path id="XMLID_2087_" class="st12" d="M267.3,222L267.3,222L267.3,222L267.3,222L267.3,222z"/>
			</g>
		</g>
	</g>
	<g id="XMLID_4820_" transform="matrix( 2.2337799072265625, 0, 0, 2.2337799072265625, -615.8,-92.35) ">
		<g id="XMLID_4821_">
			<g id="Layer0_160_MEMBER_0_MEMBER_217_FILL">
				<path id="XMLID_2086_" class="st30" d="M268.3,221.8L268.3,221.8L268.3,221.8L268.3,221.8L268.3,221.8z"/>
			</g>
		</g>
	</g>
	<g id="XMLID_4817_" transform="matrix( 2.2337799072265625, 0, 0, 2.2337799072265625, -615.8,-92.35) ">
		<g id="XMLID_4818_">
			<g id="Layer0_160_MEMBER_0_MEMBER_218_FILL">
				<path id="XMLID_2085_" class="st30" d="M267.6,221.9L267.6,221.9L267.6,221.9L267.6,221.9L267.6,221.9z"/>
			</g>
		</g>
	</g>
	<g id="XMLID_4814_" transform="matrix( 2.2337799072265625, 0, 0, 2.2337799072265625, -615.8,-92.35) ">
		<g id="XMLID_4815_">
			<g id="Layer0_160_MEMBER_0_MEMBER_219_FILL">
				<path id="XMLID_2084_" class="st30" d="M268,221.8L268,221.8L268,221.8L268,221.8L268,221.8z"/>
			</g>
		</g>
	</g>
	<g id="XMLID_4811_" transform="matrix( 2.2337799072265625, 0, 0, 2.2337799072265625, -615.8,-92.35) ">
		<g id="XMLID_4812_">
			<g id="Layer0_160_MEMBER_0_MEMBER_220_FILL">
				<path id="XMLID_2083_" class="st39" d="M268.5,221.8L268.5,221.8L268.5,221.8L268.5,221.8L268.5,221.8z"/>
			</g>
		</g>
	</g>
	<g id="XMLID_4808_" transform="matrix( 2.2337799072265625, 0, 0, 2.2337799072265625, -615.8,-92.35) ">
		<g id="XMLID_4809_">
			<g id="Layer0_160_MEMBER_0_MEMBER_221_FILL">
				<path id="XMLID_2082_" class="st40" d="M268.4,221.8L268.4,221.8L268.4,221.8L268.4,221.8L268.4,221.8z"/>
			</g>
		</g>
	</g>
	<g id="XMLID_4805_" transform="matrix( 2.2337799072265625, 0, 0, 2.2337799072265625, -615.8,-92.35) ">
		<g id="XMLID_4806_">
			<g id="Layer0_160_MEMBER_0_MEMBER_222_FILL">
				<path id="XMLID_2081_" class="st30" d="M268.1,221.8L268.1,221.8L268.1,221.8L268.1,221.8L268.1,221.8z"/>
			</g>
		</g>
	</g>
	<g id="XMLID_4802_" transform="matrix( 2.2337799072265625, 0, 0, 2.2337799072265625, -615.8,-92.35) ">
		<g id="XMLID_4803_">
			<g id="Layer0_160_MEMBER_0_MEMBER_223_FILL">
				<path id="XMLID_2080_" class="st41" d="M281.7,220.8l-0.4,0.1l-0.1,0.1l0,0l0,0h0.1h0.1h0.1h0.1h0.1l0.3-0.1l0.1-0.1l0,0l0,0
					H282H281.7z"/>
			</g>
		</g>
	</g>
	<g id="XMLID_4798_" transform="matrix( 2.2337799072265625, 0, 0, 2.2337799072265625, -615.8,-92.35) ">
		<g id="XMLID_4800_">
			<g id="Layer0_160_MEMBER_0_MEMBER_224_FILL">
				<path id="XMLID_2079_" class="st42" d="M293.9,223.5l-3,1.9l5.5,0.7l2.9-1.9L293.9,223.5z"/>
			</g>
		</g>
	</g>
	<g id="XMLID_4794_" transform="matrix( 2.2337799072265625, 0, 0, 2.2337799072265625, -615.8,-92.35) ">
		<g id="XMLID_4796_">
			<g id="Layer0_160_MEMBER_0_MEMBER_225_FILL">
				<path id="XMLID_2078_" class="st30" d="M296.7,212.3l-0.1,1.4v0.1l-0.3,4.8l5.3,0.6l0.4-6.4L296.7,212.3z"/>
			</g>
		</g>
		<polygon id="XMLID_346_" class="st42" points="296.5,218.6 301.6,219.1 302,213 296.9,212.4 296.8,213.7 296.8,213.9 		"/>
	</g>
	<g id="XMLID_641_">
		<g id="XMLID_3398_" transform="matrix( 2.2337799072265625, 0, 0, 2.2337799072265625, -615.8,-92.35) ">
			<g id="XMLID_3399_">
				<g id="Layer0_160_MEMBER_0_MEMBER_244_FILL">
					<path id="XMLID_727_" class="st5" d="M304.3,211.1l-1-1.1l3.4,28.7l1,1.4L304.3,211.1z"/>
				</g>
			</g>
		</g>
		<g id="XMLID_3395_" transform="matrix( 2.2337799072265625, 0, 0, 2.2337799072265625, -615.8,-92.35) ">
			<g id="XMLID_3396_">
				<g id="Layer0_160_MEMBER_0_MEMBER_245_FILL">
					<path id="XMLID_726_" class="st9" d="M323.5,208l-5.5,3.5l2.4,29.2l5-4.7L323.5,208z"/>
				</g>
			</g>
		</g>
		<g id="XMLID_3386_" transform="matrix( 2.2337799072265625, 0, 0, 2.2337799072265625, -615.8,-92.35) ">
			<g id="XMLID_3387_">
				<g id="Layer0_160_MEMBER_0_MEMBER_246_FILL">
					<path id="XMLID_3388_" class="st43" d="M310,240.9l10.4-0.1l-2.4-29.2h-11.2L310,240.9 M313.1,222v-0.1v-0.1v-0.1l0.2-0.1h0.2
						h0.1l0.2,0.1v0.1v0.1v0.1v0.1v0.1l-0.1,0.1h-0.2h-0.1h-0.1l-0.2-0.1V222L313.1,222z"/>
				</g>
			</g>
		</g>
		<g id="XMLID_3383_" transform="matrix( 2.2337799072265625, 0, 0, 2.2337799072265625, -615.8,-92.35) ">
			<g id="XMLID_3384_">
				<g id="Layer0_160_MEMBER_0_MEMBER_247_FILL">
					<path id="XMLID_719_" class="st6" d="M323.5,208l-14.1-1.3l-6.1,3.4l1,1.1l0.8-0.1l0.2-0.1l0.3-0.2h0.1h0.8h0.2l0.2,0.1v0.1
						v0.1l-0.5,0.3l0.3,0.1l0.1,0v0.1l11.2-0.1L323.5,208z"/>
				</g>
			</g>
		</g>
		<g id="XMLID_3380_" transform="matrix( 2.2337799072265625, 0, 0, 2.2337799072265625, -615.8,-92.35) ">
			<g id="XMLID_3381_">
				<g id="Layer0_160_MEMBER_0_MEMBER_248_FILL">
					<path id="XMLID_718_" class="st44" d="M306.6,210.6h-0.8h-0.1l-0.3,0.2l-0.2,0.1l-0.3,0.2l0,0h-0.1v0.1l0,0v0.3l0,0l0.2-0.1
						h0.1h0.1h0.1h0.1h0.1l0,0l0,0l0,0l0,0l0,0l0,0h-0.1h0.1h0.4l0.3-0.1l0.8-0.5v-0.1v-0.1l-0.2-0.1L306.6,210.6z"/>
				</g>
			</g>
		</g>
		<g id="XMLID_3377_" transform="matrix( 2.2337799072265625, 0, 0, 2.2337799072265625, -615.8,-92.35) ">
			<g id="XMLID_3378_">
				<g id="Layer0_160_MEMBER_0_MEMBER_249_FILL">
					<path id="XMLID_717_" class="st44" d="M308.5,240.5h0.2l-3.3-28.9l0,0h0.1l0,0l0,0l0,0l0,0l0,0l0,0h-0.1h-0.1h-0.1h-0.1H305
						l-0.2-0.1l3.4,29.2l0.1-0.1h0.1L308.5,240.5z"/>
				</g>
			</g>
		</g>
		<g id="XMLID_3374_" transform="matrix( 2.2337799072265625, 0, 0, 2.2337799072265625, -615.8,-92.35) ">
			<g id="XMLID_3375_">
				<g id="Layer0_160_MEMBER_0_MEMBER_250_FILL">
					<path id="XMLID_716_" class="st14" d="M305.1,211l-0.8,0.1l3.4,29h0.3l-3.3-28.8v-0.1h0.1l0,0L305.1,211z"/>
				</g>
			</g>
		</g>
		<g id="XMLID_3371_" transform="matrix( 2.2337799072265625, 0, 0, 2.2337799072265625, -615.8,-92.35) ">
			<g id="XMLID_3372_">
				<g id="Layer0_160_MEMBER_0_MEMBER_251_FILL">
					<path id="XMLID_715_" class="st44" d="M304.7,211.4L304.7,211.4l3.3,29.1v0.1l0.1,0.1l0,0l-3.3-29.2L304.7,211.4L304.7,211.4z"
						/>
				</g>
			</g>
		</g>
		<g id="XMLID_3368_" transform="matrix( 2.2337799072265625, 0, 0, 2.2337799072265625, -615.8,-92.35) ">
			<g id="XMLID_3369_">
				<g id="Layer0_160_MEMBER_0_MEMBER_252_FILL">
					<path id="XMLID_714_" class="st44" d="M309.5,240.5l0.2-0.2l-3.2-29.1l-0.3,0.2l-0.3,0.1h-0.4h-0.1l3.3,29.2h0.1h0.2h0.2
						L309.5,240.5z"/>
				</g>
			</g>
		</g>
		<g id="XMLID_3365_" transform="matrix( 2.2337799072265625, 0, 0, 2.2337799072265625, -615.8,-92.35) ">
			<g id="XMLID_3366_">
				<g id="Layer0_160_MEMBER_0_MEMBER_253_FILL">
					<path id="XMLID_713_" class="st5" d="M309.7,240.4l0.2,0.1l-3.1-28.9v-0.1l-0.1-0.2l-0.3-0.1L309.7,240.4L309.7,240.4z"/>
				</g>
			</g>
		</g>
		<g id="XMLID_3362_" transform="matrix( 2.2337799072265625, 0, 0, 2.2337799072265625, -615.8,-92.35) ">
			<g id="XMLID_3363_">
				<g id="Layer0_160_MEMBER_0_MEMBER_254_FILL">
					<path id="XMLID_712_" d="M308.5,217.4l8.9-0.1l-0.1-0.8l-8.9,0.1L308.5,217.4z"/>
				</g>
			</g>
		</g>
		<g id="XMLID_3359_" transform="matrix( 2.2337799072265625, 0, 0, 2.2337799072265625, -615.8,-92.35) ">
			<g id="XMLID_3360_">
				<g id="Layer0_160_MEMBER_0_MEMBER_255_FILL">
					<path id="XMLID_711_" class="st45" d="M313.1,221.8L313.1,221.8v0.2v0.1l0.2,0.1h0.1h0.1h0.2l0.1-0.1V222v-0.1v-0.1v-0.1v-0.1
						l-0.2-0.1h-0.1h-0.2l-0.2,0.1V221.8L313.1,221.8z"/>
				</g>
			</g>
		</g>
		<g id="XMLID_3356_" transform="matrix( 2.2337799072265625, 0, 0, 2.2337799072265625, -615.8,-92.35) ">
			<g id="XMLID_3357_">
				<g id="Layer0_160_MEMBER_0_MEMBER_256_FILL">
					<path id="XMLID_710_" d="M317.6,220.5v-0.8l-8.8,0.1v0.7H317.6z"/>
				</g>
			</g>
		</g>
		<g id="XMLID_3353_" transform="matrix( 2.2337799072265625, 0, 0, 2.2337799072265625, -615.8,-92.35) ">
			<g id="XMLID_3354_">
				<g id="Layer0_160_MEMBER_0_MEMBER_257_FILL">
					<path id="XMLID_709_" d="M317.4,218.1l-8.8,0.1l0.1,0.8l8.8-0.1L317.4,218.1z"/>
				</g>
			</g>
		</g>
		<g id="XMLID_3350_" transform="matrix( 2.2337799072265625, 0, 0, 2.2337799072265625, -615.8,-92.35) ">
			<g id="XMLID_3351_">
				<g id="Layer0_160_MEMBER_0_MEMBER_258_FILL">
					<path id="XMLID_708_" d="M308.2,215.1l0.1,0.8l8.9-0.1V215L308.2,215.1z"/>
				</g>
			</g>
		</g>
	</g>
</g>
</svg>
