<?xml version="1.0" encoding="utf-8"?>
<!-- Generator: Adobe Illustrator 19.0.0, SVG Export Plug-In . SVG Version: 6.00 Build 0)  -->
<svg version="1.1" id="Capa_1" xmlns="http://www.w3.org/2000/svg" xmlns:xlink="http://www.w3.org/1999/xlink" x="0px" y="0px"
	 viewBox="212.1 272.2 823.8 415.8" style="enable-background:new 212.1 272.2 823.8 415.8;" xml:space="preserve">
<style type="text/css">
	.st0{fill:#FFFFFF;}
	.st1{fill:#0B84C7;}
	.st2{fill:#E8E8E9;}
	.st3{fill:#293F91;}
	.st4{fill:#6AC5DE;stroke:#186782;stroke-width:2;stroke-miterlimit:10;}
	.st5{fill:#222222;}
	.st6{fill:#424242;}
	.st7{fill:#303031;}
	.st8{fill:#7A7A7A;}
	.st9{fill:#979797;}
	.st10{fill:#BDBCBC;}
	.st11{fill:#4E4E4E;}
	.st12{fill:#A3A2A2;}
	.st13{fill:#151515;}
	.st14{fill:#A7A7A7;}
	.st15{fill:#DFDFDF;}
	.st16{fill:#515050;}
	.st17{fill:#747474;}
	.st18{fill:#AEAEAE;}
	.st19{opacity:0.66;}
	.st20{fill:#222426;}
	.st21{opacity:0.38;fill:#E9E9E9;enable-background:new    ;}
	.st22{opacity:0.38;}
	.st23{fill:#796E69;}
	.st24{opacity:0.42;fill:#111111;enable-background:new    ;}
	.st25{fill:#1F1F21;}
	.st26{opacity:0.7;}
	.st27{fill:#31509D;}
	.st28{fill:#2C4494;}
</style>
<g>
	<g>
		<g id="XMLID_4251_">
			<g id="XMLID_4252_">
				<g id="XMLID_4255_">
					<g id="XMLID_4276_">
						<path id="XMLID_4277_" class="st0" d="M363.9,512.7c-1.3-0.2-2.3-1.2-2.4-2.7c-0.9-14.2-10.4-23.6-22.2-22.3
							c-4.3,0.4-8.4,2.1-11.7,4.6c-1.5,1.2-3.5,1-4.4-0.5c-4.9-7.9-12.4-13.9-21.3-16.8c-5.3-1.6-11.1-2.3-17.1-1.6
							c-24,2.6-43.6,21.2-44.6,50c-0.1,1.4-1,2.7-2.2,3.3c-14,6.5-24,21.3-24,37.4c0,19.4,14.6,33.8,33.2,33.2l108.7-11.6
							c18.9-3,34-20.7,34-40.5C389.8,528.5,378.8,515.6,363.9,512.7z"/>
					</g>
					<g id="XMLID_4256_">
						<path id="XMLID_4258_" class="st1" d="M355.8,587.5L247,599.2l-0.1,0c-19.5,0.7-34.8-14.5-34.8-34.7
							c0-16.4,10.1-32.2,25.2-39.2c0.6-0.2,1.1-0.9,1.1-1.5c1-28.2,19.6-49,46.3-51.9l0,0c6.2-0.7,12.1-0.1,17.8,1.7
							c9.2,3,17.1,9.1,22.2,17.3c0.2,0.4,0.6,0.5,0.9,0.6c0.4,0.1,0.9,0,1.2-0.3c3.8-2.8,8.2-4.6,12.6-5.1l0,0
							c12.9-1.4,22.9,8.6,23.8,23.7c0,0.7,0.7,1.1,1.2,1.2c16,3,27.1,17.1,27.1,34.2C391.5,565.8,375.8,584.4,355.8,587.5z
							 M247.1,595.8l108.6-11.6c18.1-2.9,32.4-19.8,32.4-38.5c0-15.6-10.1-28.4-24.6-31l0,0c-2-0.4-3.6-2-3.7-4.1
							c-0.9-13.2-9.4-22.1-20.5-20.8l0,0c-3.8,0.4-7.6,1.9-10.9,4.3c-1.2,0.9-2.5,1.2-3.8,1.1c-1.2-0.2-2.3-0.9-2.9-2
							c-4.7-7.7-12-13.4-20.6-16.1c-5.2-1.7-10.8-2.2-16.4-1.6l0,0c-24.9,2.6-42.1,22-43.1,48.1c-0.1,2.2-1.3,4-3.4,4.9
							c-13.7,6.4-23,20.8-23,35.7C215.5,582.5,229.3,596.3,247.1,595.8z"/>
					</g>
				</g>
				<g id="XMLID_4253_">
					<path id="XMLID_4254_" class="st2" d="M283.7,475.8c-23.7,2.6-43.1,21.5-43.1,50.5c0,0.1,0,0.1-0.1,0.1
						c-14.5,5.7-25.3,20.7-25.3,37c0,18.8,14.1,32.7,32,32l45-4.8l0,0v-29l0,0c0,0-2.5,0.3-4.8,0.6c-1.5,0.2-2.5-1.5-1.7-2.9l6.3-12
						l8.1-15.2l0,0v-54.5C295.2,475.7,289.6,475.1,283.7,475.8z"/>
				</g>
			</g>
		</g>
		<g id="XMLID_4085_" transform="matrix( 2.2337799072265625, 0, 0, 2.2337799072265625, -615.8,-92.35) ">
			<g id="XMLID_4167_">
				<g id="Layer0_160_MEMBER_33_FILL_1_">
					<path id="XMLID_4168_" class="st3" d="M422.8,280.7l-1.3,0.3l-0.9,0.7c-0.3,0.3-0.4,0.6-0.5,1v4.5l0.6,1.1l0.8,0.5l1.2,0.1
						l2-0.9c0.5-0.5,0.7-1.1,0.7-2v-0.3l-1.8,0.3l-0.2,1.2l-0.8,0.5l-0.6-0.4c-0.2-0.2-0.2-0.8-0.2-1.5v-0.5l3.5-0.4l-0.2-2.5
						l-0.4-1l-0.9-0.6L422.8,280.7 M421.9,283.9v-0.3l0.2-1.2l0.7-0.4c0.4-0.1,0.6-0.1,0.7,0.2l0.2,1.1v0.3L421.9,283.9
						 M428.7,278.1l-1.8,0.3v2.1l-0.7,0.1v1.4l0.7-0.1v4.6c0,0.8,0.1,1.3,0.4,1.4l1.2,0.2l0.5,0l0.6-0.1v-1.5l-0.2,0
						c-0.2,0-0.4,0-0.5-0.1l-0.1-0.8v-4.2l0.8-0.1v-1.4l-0.8,0.1V278.1 M412,284l0.5,0.1v-2.2l-1.1,0.5c-0.3,0.3-0.6,0.6-0.9,1.2
						v-1.3l-1.7,0.2v7.8l1.8-0.2v-4.6c0-0.4,0.1-0.6,0.4-1L412,284 M400.5,283.3v-2.1l-1.8,0.3v2.1l-0.7,0v1.4l0.7,0v4.7
						c0,0.8,0.1,1.2,0.4,1.4l1.2,0.2l1.1-0.1v-1.5l-0.1,0l-0.2,0.1l-0.5-0.1l-0.1-0.8v-4.2l0.8,0v-1.4L400.5,283.3 M402.8,283.7
						l-0.5,1l-0.2,2.2l0.2,2.5l0.5,1.1l0.9,0.5l1.2,0.1c0.9,0,1.5-0.4,2-0.9c0.5-0.5,0.7-1.1,0.7-2v-0.3l-1.7,0.2l-0.2,1
						c-0.2,0.3-0.4,0.5-0.8,0.5c-0.3,0-0.5-0.1-0.6-0.3c-0.2-0.3-0.2-0.8-0.2-1.6v-0.5l3.5-0.4l-0.1-2.5l-0.5-0.9l-0.9-0.6l-1.2-0.1
						l-1.2,0.4C403.3,283.2,403,283.4,402.8,283.7 M404,285.8v-0.3l0.2-1.1c0.2-0.2,0.4-0.4,0.7-0.4l0.7,0.2l0.2,1.1v0.3L404,285.8
						 M416.9,281.4l-0.9,0.3l-0.8,0.9v-0.9l-1.7,0.2v7.8l1.8-0.3v-5c0-0.6,0.1-1,0.2-1.2s0.3-0.4,0.7-0.5l0.6,0.2l0.2,1v5.3l1.7-0.2
						V283l-0.5-1.3C418,281.4,417.5,281.3,416.9,281.4 M390.2,281.8l-1.9,0.2v10.4l1.9-0.2V281.8 M395.3,283.7l-1,0.4l-0.7,0.8v-0.8
						l-1.8,0.2v7.8l1.8-0.2v-5c0-0.6,0.1-1,0.2-1.2c0.1-0.2,0.3-0.4,0.6-0.3s0.5,0.1,0.7,0.2l0.2,0.9v5.2l1.7-0.2v-6.2l-0.5-1.3
						C396.3,283.7,395.8,283.6,395.3,283.7z"/>
				</g>
			</g>
		</g>
	</g>
	<g id="XMLID_4072_">
		<path id="XMLID_4073_" class="st4" d="M607.2,603.2l409.4-41.7c3.1-0.3,5.3-1.8,6.1-4.1c0.8-2.2,0.1-4.6-1.8-6.7l-75-82.5
			l-7.5,2.2l76.4,84.1l-289.2,29.4c-0.3-1-0.9-2-1.8-3L672.1,498l-7.5,2.2l53.1,84.4l-380.8,39.2c-3.3,0.3-6.5-1.2-7.3-2.4
			l-20.1-30.9l-7.6,1.1l21.8,33.5c2.1,3.3,6.9,5.6,11.7,5.9c0.9,0,1.8,0,2.6-0.1L607.2,603.2"/>
	</g>
	<g id="XMLID_4152_">
		<polygon id="XMLID_4246_" class="st5" points="902.3,514.7 910.3,523.6 895.4,520.5 887.7,511.6 		"/>
		<polygon id="XMLID_4245_" class="st6" points="822.6,537.2 822.7,532.6 836.9,526.4 895.4,520.5 910.3,523.6 910.3,528.9 		"/>
		<polygon id="XMLID_4244_" class="st7" points="829.5,517.2 836.9,526.4 895.4,520.5 887.7,511.6 		"/>
		<polygon id="XMLID_4243_" class="st6" points="946.5,521.7 941.9,481.7 941.9,470.1 947.8,469.6 947,432.9 950.9,429 949.6,324.9 
			1010,320.3 1010.5,423.6 1020.2,432.3 1020.2,474.2 1014.3,515.3 		"/>
		<polygon id="XMLID_4242_" class="st8" points="764.6,385.6 768.7,479.6 941.4,463.9 940.1,371.4 		"/>
		<g id="XMLID_4239_" transform="matrix( 5.4611968994140625, 0, 0, 5.4611968994140625, -1916.8,-814.8) ">
			<g id="XMLID_4240_">
				<g id="Layer0_0_FILL_4_">
					<path id="XMLID_4241_" class="st8" d="M535.8,207.6l2.5-0.2l-0.6-0.4l-16,1.2l0.5,0.4l2.5-0.2l0.2,0.2l11.1-0.8L535.8,207.6z"
						/>
				</g>
			</g>
		</g>
		<g id="XMLID_4236_" transform="matrix( 5.4611968994140625, 0, 0, 5.4611968994140625, -1916.8,-814.8) ">
			<g id="XMLID_4237_">
				<g id="Layer0_1_FILL_4_">
					<path id="XMLID_4238_" class="st7" d="M521.6,208.9v-0.7l13.8-1l-8.4-6.5l-13.8,1L521.6,208.9z"/>
				</g>
			</g>
		</g>
		<g id="XMLID_4233_" transform="matrix( 5.4611968994140625, 0, 0, 5.4611968994140625, -1916.8,-814.8) ">
			<g id="XMLID_4234_">
				<g id="Layer0_2_FILL_4_">
					<path id="XMLID_4235_" class="st9" d="M527.8,200.7h-0.7l0.8,0.6L527.8,200.7z"/>
				</g>
			</g>
		</g>
		<g id="XMLID_4230_" transform="matrix( 5.4611968994140625, 0, 0, 5.4611968994140625, -1916.8,-814.8) ">
			<g id="XMLID_4231_">
				<g id="Layer0_3_FILL_4_">
					<path id="XMLID_4232_" class="st10" d="M513.8,207l-1.2-5.2v-1.3l-0.4-0.4l0.4,16.3l9.7-0.8l-0.1-7l-0.5-0.4v1.4l-1.1,3.4
						L513.8,207z"/>
				</g>
			</g>
		</g>
		<g id="XMLID_4227_" transform="matrix( 5.4611968994140625, 0, 0, 5.4611968994140625, -1916.8,-814.8) ">
			<g id="XMLID_4228_">
				<g id="Layer0_4_FILL_4_">
					<path id="XMLID_4229_" class="st11" d="M514.3,206.8l6.4,5.7l0.9-2.9v-0.7l-8.4-7.2L514.3,206.8z"/>
				</g>
			</g>
		</g>
		<g id="XMLID_4224_" transform="matrix( 5.4611968994140625, 0, 0, 5.4611968994140625, -1916.8,-814.8) ">
			<g id="XMLID_4225_">
				<g id="Layer0_5_FILL_4_">
					<path id="XMLID_4226_" class="st8" d="M513.8,206.9l6.8,6.1l0.2-0.5l-6.4-5.7L513.8,206.9z"/>
				</g>
			</g>
		</g>
		<g id="XMLID_4221_" transform="matrix( 5.4611968994140625, 0, 0, 5.4611968994140625, -1916.8,-814.8) ">
			<g id="XMLID_4222_">
				<g id="Layer0_10_FILL_4_">
					<path id="XMLID_4223_" class="st8" d="M538.3,235.7l-0.5-0.4v0.5L538.3,235.7z"/>
				</g>
			</g>
		</g>
		<g id="XMLID_4218_" transform="matrix( 5.4611968994140625, 0, 0, 5.4611968994140625, -1916.8,-814.8) ">
			<g id="XMLID_4219_">
				<g id="Layer0_11_FILL_4_">
					<path id="XMLID_4220_" class="st12" d="M537.5,228.1l0.7-0.1v-20.6l-2.5,0.2l0.2,0.2l0.1,18.9L537.5,228.1z"/>
				</g>
			</g>
		</g>
		<g id="XMLID_4213_" transform="matrix( 5.4611968994140625, 0, 0, 5.4611968994140625, -1916.8,-814.8) ">
			<g id="XMLID_4214_">
				<g id="Layer0_13_FILL_4_">
					<path id="XMLID_4215_" class="st13" d="M524.2,215.9l-34.5,2.8l0.9,19.5l33.9-3.1L524.2,215.9 M491.9,237l-0.8-17.2l32.1-2.6
						l0,0l0.2,16.9L491.9,237z"/>
				</g>
			</g>
		</g>
		<g id="XMLID_4210_" transform="matrix( 5.4611968994140625, 0, 0, 5.4611968994140625, -1916.8,-814.8) ">
			<g id="XMLID_4211_">
				<g id="Layer0_14_FILL_4_">
					<path id="XMLID_4212_" class="st14" d="M525.1,227.7l-0.1-0.2l-0.6,0.5v0.4L525.1,227.7z"/>
				</g>
			</g>
		</g>
		<g id="XMLID_4207_" transform="matrix( 5.4611968994140625, 0, 0, 5.4611968994140625, -1916.8,-814.8) ">
			<g id="XMLID_4208_">
				<g id="Layer0_17_FILL_4_">
					<path id="XMLID_4209_" d="M489.3,218.3l0.4,0.4l34.5-2.8l-0.4-0.4L489.3,218.3z"/>
				</g>
			</g>
		</g>
		<g id="XMLID_4204_" transform="matrix( 5.4611968994140625, 0, 0, 5.4611968994140625, -1916.8,-814.8) ">
			<g id="XMLID_4205_">
				<g id="Layer0_18_FILL_4_">
					<path id="XMLID_4206_" class="st11" d="M523.5,237.3v-2.1l-1.9,0.2L523.5,237.3z"/>
				</g>
			</g>
		</g>
		<g id="XMLID_4201_" transform="matrix( 5.4611968994140625, 0, 0, 5.4611968994140625, -1916.8,-814.8) ">
			<g id="XMLID_4202_">
				<g id="Layer0_19_FILL_4_">
					<path id="XMLID_4203_" class="st12" d="M524.9,227.5l-0.3-19.1l-2.5,0.2l0.1,7l1.6-0.1l0.4,0.4l0.2,12.1L524.9,227.5z"/>
				</g>
			</g>
		</g>
		<g id="XMLID_4198_" transform="matrix( 5.4611968994140625, 0, 0, 5.4611968994140625, -1916.8,-814.8) ">
			<g id="XMLID_4199_">
				<g id="Layer0_26_FILL_4_">
					<path id="XMLID_4200_" class="st10" d="M522.6,242.9v-5.7l-1.7-1.7l-4.7,0.4L522.6,242.9z"/>
				</g>
			</g>
		</g>
		<g id="XMLID_4195_" transform="matrix( 5.4611968994140625, 0, 0, 5.4611968994140625, -1916.8,-814.8) ">
			<g id="XMLID_4196_">
				<g id="Layer0_28_FILL_4_">
					<path id="XMLID_4197_" class="st8" d="M522.6,237.2l0.8,0.1l-1.9-1.9l-0.6,0.1L522.6,237.2z"/>
				</g>
			</g>
		</g>
		<g id="XMLID_4192_" transform="matrix( 5.4611968994140625, 0, 0, 5.4611968994140625, -1916.8,-814.8) ">
			<g id="XMLID_4193_">
				<g id="Layer0_31_FILL_4_">
					<path id="XMLID_4194_" class="st8" d="M512.5,200.5l15.2-1.1l-0.5-0.4l-15.1,1.1L512.5,200.5z"/>
				</g>
			</g>
		</g>
		<g id="XMLID_4189_" transform="matrix( 5.4611968994140625, 0, 0, 5.4611968994140625, -1916.8,-814.8) ">
			<g id="XMLID_4190_">
				<g id="Layer0_32_FILL_4_">
					<path id="XMLID_4191_" class="st12" d="M527.7,199.4H527v1.3h0.7V199.4z"/>
				</g>
			</g>
		</g>
		<g id="XMLID_4186_" transform="matrix( 5.4611968994140625, 0, 0, 5.4611968994140625, -1916.8,-814.8) ">
			<g id="XMLID_4187_">
				<g id="Layer0_33_FILL_4_">
					<path id="XMLID_4188_" class="st12" d="M513.3,201.7l13.8-1v-1.3l-13.9,1L513.3,201.7z"/>
				</g>
			</g>
		</g>
		<g id="XMLID_4183_" transform="matrix( 5.4611968994140625, 0, 0, 5.4611968994140625, -1916.8,-814.8) ">
			<g id="XMLID_4184_">
				<g id="Layer0_34_FILL_4_">
					<path id="XMLID_4185_" class="st12" d="M513.3,201.7v-1.3h-0.7v1.3H513.3z"/>
				</g>
			</g>
		</g>
		<g id="XMLID_4176_" transform="matrix( 5.4611968994140625, 0, 0, 5.4611968994140625, -1916.8,-814.8) ">
			<g id="XMLID_37_">
				<g id="XMLID_38_">
					<g id="Layer0_35_FILL_11_">
						<path id="XMLID_39_" class="st15" d="M523.5,237.4l-0.8-0.1v5.7l1.6,1.7L523.5,237.4z"/>
					</g>
				</g>
			</g>
		</g>
		<g id="XMLID_4173_" transform="matrix( 5.4611968994140625, 0, 0, 5.4611968994140625, -1916.8,-814.8) ">
			<g id="XMLID_4174_">
				<g id="Layer0_36_FILL_4_">
					<path id="XMLID_4175_" class="st9" d="M513.8,206.9l0.7-0.1l-1.2-5.1h-0.7L513.8,206.9z"/>
				</g>
			</g>
		</g>
		<g id="XMLID_4166_" transform="matrix( 5.4611968994140625, 0, 0, 5.4611968994140625, -1916.8,-814.8) ">
			<g id="XMLID_33_">
				<g id="XMLID_34_">
					<g id="Layer0_39_FILL_11_">
						<path id="XMLID_35_" class="st15" d="M538.3,235.9h-0.5l-1.1,7.7l1.6-2.1V235.9z"/>
					</g>
				</g>
			</g>
		</g>
		<g id="XMLID_4163_" transform="matrix( 5.4611968994140625, 0, 0, 5.4611968994140625, -1916.8,-814.8) ">
			<g id="XMLID_4164_">
				<g id="Layer0_40_FILL_4_">
					<path id="XMLID_4165_" class="st10" d="M524.7,208.5l0.3,19.1l0.1,0.2l-0.2-19.1L524.7,208.5z"/>
				</g>
			</g>
		</g>
		<g id="XMLID_4160_" transform="matrix( 5.4611968994140625, 0, 0, 5.4611968994140625, -1916.8,-814.8) ">
			<g id="XMLID_4161_">
				<g id="Layer0_46_FILL_4_">
					<path id="XMLID_4162_" d="M490.4,237.8l0.3,0.4l-0.9-19.5l-0.4-0.4L490.4,237.8z"/>
				</g>
			</g>
		</g>
		<g id="XMLID_4157_" transform="matrix( 5.4611968994140625, 0, 0, 5.4611968994140625, -1916.8,-814.8) ">
			<g id="XMLID_4158_">
				<g id="Layer0_47_FILL_4_">
					<path id="XMLID_4159_" class="st12" d="M490.9,219.8l0.8,17.1l31.6-2.8l-0.2-16.9L490.9,219.8z"/>
				</g>
			</g>
		</g>
		
			<ellipse id="XMLID_4156_" transform="matrix(0.9992 -4.082432e-002 4.082432e-002 0.9992 -18.4756 40.4491)" class="st12" cx="981.2" cy="472.6" rx="5.9" ry="5.5"/>
		<polygon id="XMLID_4155_" class="st5" points="836.9,526.4 829.5,517.2 815.1,523.1 822.7,532.6 		"/>
		<polygon id="XMLID_4154_" class="st7" points="815.1,523.1 815.1,527.7 822.6,537.2 822.7,532.6 		"/>
		<path id="XMLID_4153_" class="st16" d="M850.9,478.4v38.9l0,0c0,0.1,0,0.2,0,0.3c0,2.6,5.6,4.7,12.4,4.7c6.9,0,12.4-2.1,12.4-4.7
			c0-0.1,0-0.2,0-0.3l0,0v-41.2L850.9,478.4L850.9,478.4z"/>
	</g>
	<g id="XMLID_4057_">
		<polygon id="XMLID_4151_" class="st5" points="613.5,546.6 621.6,555.6 606.6,552.5 598.9,543.5 		"/>
		<polygon id="XMLID_4150_" class="st6" points="533.8,569.2 533.9,564.5 548.1,558.4 606.6,552.5 621.6,555.6 621.6,560.8 		"/>
		<polygon id="XMLID_4149_" class="st7" points="540.7,549.2 548.1,558.4 606.6,552.5 598.9,543.5 		"/>
		<polygon id="XMLID_4148_" class="st6" points="657.7,553.7 653.1,513.6 653.1,502.1 659,501.5 658.2,464.8 662.1,460.9 
			660.8,356.9 721.2,352.3 721.7,455.5 731.4,464.3 731.4,506.2 725.5,547.3 		"/>
		<polygon id="XMLID_4147_" class="st8" points="475.8,417.5 479.9,511.6 652.6,495.9 651.3,403.4 		"/>
		<g id="XMLID_4144_" transform="matrix( 5.4611968994140625, 0, 0, 5.4611968994140625, -1916.8,-814.8) ">
			<g id="XMLID_4145_">
				<g id="Layer0_0_FILL_3_">
					<path id="XMLID_4146_" class="st8" d="M482.9,213.5l2.5-0.2l-0.6-0.4l-16,1.2l0.5,0.4l2.5-0.2l0.2,0.2l11.1-0.8L482.9,213.5z"
						/>
				</g>
			</g>
		</g>
		<g id="XMLID_4141_" transform="matrix( 5.4611968994140625, 0, 0, 5.4611968994140625, -1916.8,-814.8) ">
			<g id="XMLID_4142_">
				<g id="Layer0_1_FILL_3_">
					<path id="XMLID_4143_" class="st7" d="M468.8,214.7V214l13.8-1l-8.4-6.5l-13.8,1L468.8,214.7z"/>
				</g>
			</g>
		</g>
		<g id="XMLID_4138_" transform="matrix( 5.4611968994140625, 0, 0, 5.4611968994140625, -1916.8,-814.8) ">
			<g id="XMLID_4139_">
				<g id="Layer0_2_FILL_3_">
					<path id="XMLID_4140_" class="st9" d="M474.9,206.6h-0.7l0.8,0.6L474.9,206.6z"/>
				</g>
			</g>
		</g>
		<g id="XMLID_4135_" transform="matrix( 5.4611968994140625, 0, 0, 5.4611968994140625, -1916.8,-814.8) ">
			<g id="XMLID_4136_">
				<g id="Layer0_3_FILL_3_">
					<path id="XMLID_4137_" class="st10" d="M460.9,212.9l-1.2-5.2v-1.3l-0.4-0.4l0.4,16.3l9.7-0.8l-0.1-7l-0.5-0.4v1.4l-1.1,3.4
						L460.9,212.9z"/>
				</g>
			</g>
		</g>
		<g id="XMLID_4132_" transform="matrix( 5.4611968994140625, 0, 0, 5.4611968994140625, -1916.8,-814.8) ">
			<g id="XMLID_4133_">
				<g id="Layer0_4_FILL_3_">
					<path id="XMLID_4134_" class="st11" d="M461.5,212.6l6.4,5.7l0.9-2.9v-0.7l-8.4-7.2L461.5,212.6z"/>
				</g>
			</g>
		</g>
		<g id="XMLID_4129_" transform="matrix( 5.4611968994140625, 0, 0, 5.4611968994140625, -1916.8,-814.8) ">
			<g id="XMLID_4130_">
				<g id="Layer0_5_FILL_3_">
					<path id="XMLID_4131_" class="st8" d="M460.9,212.8l6.8,6.1l0.2-0.5l-6.4-5.7L460.9,212.8z"/>
				</g>
			</g>
		</g>
		<g id="XMLID_4126_" transform="matrix( 5.4611968994140625, 0, 0, 5.4611968994140625, -1916.8,-814.8) ">
			<g id="XMLID_4127_">
				<g id="Layer0_10_FILL_3_">
					<path id="XMLID_4128_" class="st8" d="M485.5,241.6l-0.5-0.4v0.5L485.5,241.6z"/>
				</g>
			</g>
		</g>
		<g id="XMLID_4123_" transform="matrix( 5.4611968994140625, 0, 0, 5.4611968994140625, -1916.8,-814.8) ">
			<g id="XMLID_4124_">
				<g id="Layer0_11_FILL_3_">
					<path id="XMLID_4125_" class="st12" d="M484.7,234l0.7-0.1v-20.6l-2.5,0.2l0.2,0.2l0.1,18.9L484.7,234z"/>
				</g>
			</g>
		</g>
		<g id="XMLID_4118_" transform="matrix( 5.4611968994140625, 0, 0, 5.4611968994140625, -1916.8,-814.8) ">
			<g id="XMLID_4119_">
				<g id="Layer0_13_FILL_3_">
					<path id="XMLID_4120_" class="st13" d="M471.4,221.8l-34.5,2.8l0.9,19.5l33.9-3.1L471.4,221.8 M439,242.9l-0.8-17.2l32.1-2.6
						l0,0l0.2,16.9L439,242.9z"/>
				</g>
			</g>
		</g>
		<g id="XMLID_4115_" transform="matrix( 5.4611968994140625, 0, 0, 5.4611968994140625, -1916.8,-814.8) ">
			<g id="XMLID_4116_">
				<g id="Layer0_14_FILL_3_">
					<path id="XMLID_4117_" class="st14" d="M472.2,233.6l-0.1-0.2l-0.6,0.5v0.4L472.2,233.6z"/>
				</g>
			</g>
		</g>
		<g id="XMLID_4112_" transform="matrix( 5.4611968994140625, 0, 0, 5.4611968994140625, -1916.8,-814.8) ">
			<g id="XMLID_4113_">
				<g id="Layer0_17_FILL_3_">
					<path id="XMLID_4114_" d="M436.4,224.1l0.4,0.4l34.5-2.8l-0.4-0.4L436.4,224.1z"/>
				</g>
			</g>
		</g>
		<g id="XMLID_4109_" transform="matrix( 5.4611968994140625, 0, 0, 5.4611968994140625, -1916.8,-814.8) ">
			<g id="XMLID_4110_">
				<g id="Layer0_18_FILL_3_">
					<path id="XMLID_4111_" class="st11" d="M470.6,243.2v-2.1l-1.9,0.2L470.6,243.2z"/>
				</g>
			</g>
		</g>
		<g id="XMLID_4106_" transform="matrix( 5.4611968994140625, 0, 0, 5.4611968994140625, -1916.8,-814.8) ">
			<g id="XMLID_4107_">
				<g id="Layer0_19_FILL_3_">
					<path id="XMLID_4108_" class="st12" d="M472,233.4l-0.3-19.1l-2.5,0.2l0.1,7l1.6-0.1l0.4,0.4l0.2,12.1L472,233.4z"/>
				</g>
			</g>
		</g>
		<g id="XMLID_4103_" transform="matrix( 5.4611968994140625, 0, 0, 5.4611968994140625, -1916.8,-814.8) ">
			<g id="XMLID_4104_">
				<g id="Layer0_26_FILL_3_">
					<path id="XMLID_4105_" class="st10" d="M469.7,248.8v-5.7l-1.7-1.7l-4.7,0.4L469.7,248.8z"/>
				</g>
			</g>
		</g>
		<g id="XMLID_4100_" transform="matrix( 5.4611968994140625, 0, 0, 5.4611968994140625, -1916.8,-814.8) ">
			<g id="XMLID_4101_">
				<g id="Layer0_28_FILL_3_">
					<path id="XMLID_4102_" class="st8" d="M469.8,243.1l0.8,0.1l-2-2l-0.6,0.1L469.8,243.1z"/>
				</g>
			</g>
		</g>
		<g id="XMLID_4097_" transform="matrix( 5.4611968994140625, 0, 0, 5.4611968994140625, -1916.8,-814.8) ">
			<g id="XMLID_4098_">
				<g id="Layer0_31_FILL_3_">
					<path id="XMLID_4099_" class="st8" d="M459.6,206.4l15.2-1.1l-0.5-0.4l-15.1,1.1L459.6,206.4z"/>
				</g>
			</g>
		</g>
		<g id="XMLID_4094_" transform="matrix( 5.4611968994140625, 0, 0, 5.4611968994140625, -1916.8,-814.8) ">
			<g id="XMLID_4095_">
				<g id="Layer0_32_FILL_3_">
					<path id="XMLID_4096_" class="st12" d="M474.8,205.2h-0.7v1.3h0.7V205.2z"/>
				</g>
			</g>
		</g>
		<g id="XMLID_4091_" transform="matrix( 5.4611968994140625, 0, 0, 5.4611968994140625, -1916.8,-814.8) ">
			<g id="XMLID_4092_">
				<g id="Layer0_33_FILL_3_">
					<path id="XMLID_4093_" class="st12" d="M460.4,207.6l13.8-1v-1.3l-13.9,1L460.4,207.6z"/>
				</g>
			</g>
		</g>
		<g id="XMLID_4088_" transform="matrix( 5.4611968994140625, 0, 0, 5.4611968994140625, -1916.8,-814.8) ">
			<g id="XMLID_4089_">
				<g id="Layer0_34_FILL_3_">
					<path id="XMLID_4090_" class="st12" d="M460.4,207.6v-1.3h-0.7v1.3H460.4z"/>
				</g>
			</g>
		</g>
		<g id="XMLID_4081_" transform="matrix( 5.4611968994140625, 0, 0, 5.4611968994140625, -1916.8,-814.8) ">
			<g id="XMLID_29_">
				<g id="XMLID_30_">
					<g id="Layer0_35_FILL_10_">
						<path id="XMLID_31_" class="st15" d="M470.6,243.2l-0.7-0.1v5.7l1.6,1.7L470.6,243.2z"/>
					</g>
				</g>
			</g>
		</g>
		<g id="XMLID_4078_" transform="matrix( 5.4611968994140625, 0, 0, 5.4611968994140625, -1916.8,-814.8) ">
			<g id="XMLID_4079_">
				<g id="Layer0_36_FILL_3_">
					<path id="XMLID_4080_" class="st9" d="M460.9,212.8l0.7-0.1l-1.2-5.1h-0.7L460.9,212.8z"/>
				</g>
			</g>
		</g>
		<g id="XMLID_4071_" transform="matrix( 5.4611968994140625, 0, 0, 5.4611968994140625, -1916.8,-814.8) ">
			<g id="XMLID_25_">
				<g id="XMLID_26_">
					<g id="Layer0_39_FILL_10_">
						<path id="XMLID_27_" class="st15" d="M485.4,241.7h-0.5l-1.1,7.7l1.6-2.1V241.7z"/>
					</g>
				</g>
			</g>
		</g>
		<g id="XMLID_4068_" transform="matrix( 5.4611968994140625, 0, 0, 5.4611968994140625, -1916.8,-814.8) ">
			<g id="XMLID_4069_">
				<g id="Layer0_40_FILL_3_">
					<path id="XMLID_4070_" class="st10" d="M471.8,214.3l0.3,19.1l0.1,0.2l-0.2-19.1L471.8,214.3z"/>
				</g>
			</g>
		</g>
		<g id="XMLID_4065_" transform="matrix( 5.4611968994140625, 0, 0, 5.4611968994140625, -1916.8,-814.8) ">
			<g id="XMLID_4066_">
				<g id="Layer0_46_FILL_3_">
					<path id="XMLID_4067_" d="M437.5,243.6l0.3,0.4l-0.9-19.5l-0.4-0.4L437.5,243.6z"/>
				</g>
			</g>
		</g>
		<g id="XMLID_4062_" transform="matrix( 5.4611968994140625, 0, 0, 5.4611968994140625, -1916.8,-814.8) ">
			<g id="XMLID_4063_">
				<g id="Layer0_47_FILL_3_">
					<path id="XMLID_4064_" class="st12" d="M438,225.6l0.8,17.1l31.6-2.8l-0.2-16.9L438,225.6z"/>
				</g>
			</g>
		</g>
		
			<ellipse id="XMLID_4061_" transform="matrix(0.9992 -4.082432e-002 4.082432e-002 0.9992 -20.0188 28.6852)" class="st12" cx="692.3" cy="504.5" rx="5.9" ry="5.5"/>
		<polygon id="XMLID_4060_" class="st5" points="548.1,558.4 540.7,549.2 526.4,555.1 533.9,564.5 		"/>
		<polygon id="XMLID_4059_" class="st7" points="526.4,555.1 526.4,559.7 533.8,569.2 533.9,564.5 		"/>
		<path id="XMLID_4058_" class="st16" d="M562.1,510.3v38.9l0,0c0,0.1,0,0.2,0,0.3c0,2.6,5.6,4.7,12.4,4.7c6.9,0,12.4-2.1,12.4-4.7
			c0-0.1,0-0.2,0-0.3l0,0V508l-24.7,2.3H562.1z"/>
	</g>
	<g id="XMLID_3832_">
		<path id="XMLID_4056_" class="st13" d="M947.1,514.3l13.4,88.6l-147.4,20.4l-14.2-92.8c-0.7-4.3,2.6-8.3,7.3-9l133.5-12.3
			C943.3,508.7,946.6,511,947.1,514.3z"/>
		<path id="XMLID_4055_" class="st17" d="M940.3,518.1l11.5,76.5c0.1,1.1-0.7,2.1-1.9,2.3l-128.6,17.8c-1.2,0.2-2.3-0.6-2.5-1.7
			l-12.6-82.5c-0.1-1.1,0.7-2.1,1.9-2.3l129.7-11.8C939,516.2,940.1,517,940.3,518.1z"/>
		<path id="XMLID_4054_" class="st11" d="M1032.6,666L893,687.8c-3.9,0.5-7.9-0.5-10.9-2.9l-70.3-55.4c-0.7-0.6-0.9-1.5-0.7-2.2H811
			l1.6-5.2l27.5-0.1l120.6-16.8l52.1,41.1l23.1,13l-1.4,4.6C1034.5,664.9,1033.8,665.8,1032.6,666z"/>
		<g id="XMLID_4052_">
			<path id="XMLID_4053_" class="st6" d="M819.2,624.1c25.1,20.3,67.3,54,72,54.9c0.6,0.1,2.1,0,4.4-0.2l-2.8,9
				c-3.8,0.5-7.7-0.6-10.6-2.9l-67.9-53.6"/>
		</g>
		<path id="XMLID_4051_" class="st18" d="M966,603.9l69.2,53.9c1.4,1.2,0.7,3.4-1.2,3.7l-139.6,21.9c-3.9,0.5-7.9-0.5-10.9-2.9
			l-70.3-55.3c-1.4-1.2-0.7-3.4,1.2-3.7l143-19.8C960.5,601.2,963.6,602.1,966,603.9z"/>
		<g id="XMLID_4049_" class="st19">
			<path id="XMLID_4050_" class="st20" d="M828.4,618.3L946.6,602c0.2,0,0.4,0,0.5,0.1l3.6,2.8c0.4,0.3,0.2,0.8-0.3,0.9l-117.8,16.3
				c-0.4,0.1-0.8-0.1-1.1-0.3l-3.3-2.6C827.9,618.9,828,618.3,828.4,618.3z"/>
		</g>
		<path id="XMLID_4048_" class="st21" d="M959.2,648.7l20.3,16c0.5,0.4,0.3,1.3-0.5,1.4l-35.8,4.9c-1.5,0.2-2.9-0.1-4-1l-18.9-14.9
			c-0.5-0.4-0.3-1.3,0.5-1.4l37.6-5.2C958.6,648.4,958.9,648.5,959.2,648.7z"/>
		<g id="XMLID_4046_" class="st22">
			<path id="XMLID_4047_" class="st23" d="M977.4,663.1c0.1,0,0.1-0.1,0-0.2c0,0-2.7-2.2-6.8-5.5c-2.1-1.7-4.4-3.6-7-5.6
				c-1.2-1-2.6-2-3.9-3.1l-0.3-0.2l-0.1-0.1c-0.1-0.1-0.1-0.1-0.1-0.1c0-0.1-0.1-0.1-0.1-0.1c-0.3-0.1-0.6-0.1-0.9-0.1
				c-0.4,0.1-0.9,0.1-1.3,0.2c-0.9,0.2-1.8,0.3-2.7,0.4c-3.6,0.5-7.2,1-10.5,1.5s-6.4,0.9-9.1,1.3c-5.3,0.8-8.9,1.3-8.9,1.3
				c-0.1,0-0.1,0.1-0.1,0.2c0,0.1,0.1,0.1,0.2,0.1c0,0,3.5-0.4,8.9-1.1c2.7-0.3,5.8-0.8,9.2-1.2c3.4-0.4,6.9-0.9,10.5-1.4
				c0.9-0.2,1.8-0.3,2.7-0.4c0.4-0.1,0.9-0.1,1.3-0.2c0.2,0,0.3,0,0.4,0.1l0,0l0,0l0.1,0.1l0.3,0.2c1.4,1,2.7,2.1,4,3.1
				c2.6,2,5,3.9,7.1,5.5c4.1,3.2,6.9,5.3,6.9,5.3C977.3,663.2,977.4,663.2,977.4,663.1z"/>
		</g>
		<path id="XMLID_4045_" class="st24" d="M815.8,628.6l3.3,2.6c0.1,0.1,0.1,0.2,0.1,0.3l-0.5,1.6c-0.1,0.2-0.3,0.2-0.5,0.1l-3.3-2.6
			c-0.1-0.1-0.1-0.2-0.1-0.3l0.5-1.6C815.4,628.5,815.6,628.4,815.8,628.6z"/>
		<path id="XMLID_4044_" class="st24" d="M823,634.1l3.3,2.6c0.1,0.1,0.1,0.2,0.1,0.3l-0.5,1.6c-0.1,0.2-0.3,0.2-0.5,0.1l-3.3-2.6
			c-0.1-0.1-0.1-0.2-0.1-0.3l0.5-1.6C822.6,634,822.9,634,823,634.1z"/>
		<path id="XMLID_4043_" class="st24" d="M829.8,639.5l3.3,2.6c0.1,0.1,0.1,0.2,0.1,0.3l-0.5,1.6c-0.1,0.2-0.3,0.2-0.5,0.1l-3.3-2.6
			c-0.1-0.1-0.1-0.2-0.1-0.3l0.5-1.6C829.4,639.4,829.7,639.3,829.8,639.5z"/>
		<g id="XMLID_3973_">
			<path id="XMLID_4042_" class="st25" d="M985.1,640.8c0.1,0.3-0.1,0.5-0.6,0.6L980,642c-0.8,0.1-2-0.2-2.6-0.7l-0.7-0.5
				c-0.4-0.3-0.5-0.6-0.2-0.8c0,0.1,0.1,0.3,0.3,0.4l0.7,0.5c0.6,0.5,1.8,0.8,2.6,0.7l4.5-0.6C984.8,641,984.9,641,985.1,640.8z"/>
			<path id="XMLID_4041_" class="st25" d="M953.6,645.7c0.1,0.3-0.2,0.5-0.7,0.6l-42.6,5.9c-0.7,0.1-1.9-0.2-2.5-0.7l-4.7-3.7
				c-0.4-0.4-0.5-0.7-0.2-0.9c0,0.1,0.1,0.3,0.3,0.4l4.7,3.7c0.6,0.5,1.7,0.8,2.5,0.7l42.6-5.9C953.3,645.8,953.4,645.7,953.6,645.7
				z"/>
			<path id="XMLID_4040_" class="st25" d="M976.1,642.6c0.1,0.3-0.2,0.5-0.7,0.6l-5.1,0.7c-0.7,0.1-1.9-0.2-2.5-0.7l-4.7-3.7
				c-0.4-0.4-0.5-0.7-0.2-0.9c0,0.1,0.1,0.3,0.3,0.4l4.7,3.7c0.6,0.5,1.7,0.8,2.5,0.7l5.1-0.7C975.7,642.6,975.9,642.6,976.1,642.6z
				"/>
			<path id="XMLID_4039_" class="st25" d="M905.8,652.3c0.1,0.3-0.2,0.5-0.7,0.6l-6.5,0.9c-0.7,0.1-1.9-0.2-2.5-0.7l-4.7-3.7
				c-0.4-0.4-0.5-0.7-0.2-0.9c0,0.1,0.1,0.3,0.3,0.4l4.7,3.7c0.6,0.5,1.7,0.8,2.5,0.7l6.5-0.9C905.4,652.4,905.6,652.3,905.8,652.3z
				"/>
			<path id="XMLID_4038_" class="st25" d="M965.7,644c0.1,0.3-0.2,0.5-0.7,0.6l-6.8,0.9c-0.7,0.1-1.9-0.2-2.5-0.7l-4.7-3.7
				c-0.4-0.4-0.5-0.7-0.2-0.9c0,0.1,0.1,0.3,0.3,0.4l4.7,3.7c0.6,0.5,1.7,0.8,2.5,0.7l6.8-0.9C965.3,644.1,965.5,644,965.7,644z"/>
			<path id="XMLID_4037_" class="st25" d="M867.5,650l-10.6,1.5c-0.7,0.1-1.9-0.2-2.5-0.7l-3.8-3c-0.4-0.4-0.5-0.7-0.2-0.9
				c0,0.1,0.1,0.3,0.3,0.4l3.8,3c0.6,0.5,1.7,0.8,2.5,0.7l10.6-1.5c0.2,0,0.4-0.1,0.5-0.2C868.2,649.6,868,649.8,867.5,650z"/>
			<path id="XMLID_4036_" class="st25" d="M894,653.9c0.1,0.3-0.2,0.5-0.7,0.6l-5.6,0.8c-0.7,0.1-1.9-0.2-2.5-0.7l-4.7-3.7
				c-0.4-0.4-0.5-0.7-0.2-0.9c0,0.1,0.1,0.3,0.3,0.4l4.7,3.7c0.6,0.5,1.7,0.8,2.5,0.7l5.6-0.8C893.6,654,893.8,653.9,894,653.9z"/>
			<path id="XMLID_4035_" class="st25" d="M883.1,655.4c0.1,0.3-0.2,0.5-0.7,0.6l-4.9,0.7c-0.7,0.1-1.9-0.2-2.5-0.7l-4.7-3.7
				c-0.4-0.4-0.5-0.7-0.2-0.9c0,0.1,0.1,0.3,0.3,0.4l4.7,3.7c0.6,0.5,1.7,0.8,2.5,0.7l4.9-0.7C882.7,655.5,882.9,655.4,883.1,655.4z
				"/>
			<path id="XMLID_4034_" class="st25" d="M872.9,656.9c0.1,0.3-0.2,0.5-0.7,0.6l-6.6,0.9c-0.7,0.1-1.9-0.2-2.5-0.7l-4.7-3.7
				c-0.4-0.4-0.5-0.7-0.2-0.9c0,0.1,0.1,0.3,0.3,0.4l4.7,3.7c0.6,0.5,1.7,0.8,2.5,0.7l6.6-0.9C872.5,656.9,872.7,656.8,872.9,656.9z
				"/>
			<path id="XMLID_4033_" class="st25" d="M920.5,623.5c0,0.1,0.1,0.3,0.3,0.4l2.7,2.1c0.6,0.5,1.2,0.8,1.2,0.8s0.7,0.2,1.5,0.1
				l5.4-0.8c0.2,0,0.4-0.1,0.5-0.2c0.1,0.3-0.2,0.5-0.7,0.6l-5.4,0.8c-0.8,0.1-1.5-0.1-1.5-0.1c0-0.1-0.6-0.3-1.2-0.8l-2.7-2.1
				C920.2,624,920.1,623.7,920.5,623.5z"/>
			<path id="XMLID_4032_" class="st25" d="M992.5,640.1c0.1,0,0.2-0.1,0.3-0.1c0.1,0.2,0,0.4-0.5,0.5l-4.7,0.7
				c-0.8,0.1-1.7-0.1-2.4-0.5c0-0.2-0.1-0.3-0.3-0.5l-0.8-0.6c-0.1-0.1-0.3-0.2-0.4-0.3c0-0.1,0.1-0.2,0.2-0.3
				c0,0.1,0.1,0.2,0.2,0.3l0.8,0.6c0.7,0.5,1.9,0.8,2.8,0.7L992.5,640.1z"/>
			<path id="XMLID_4031_" class="st25" d="M909.4,625.1c0,0.1,0.1,0.3,0.3,0.4l2.9,2.3c0.6,0.4,1.2,0.6,1.2,0.6
				c0,0.1,0.6,0.2,1.4,0.1l5.8-0.8c0.2,0,0.4-0.1,0.5-0.2c0.1,0.3-0.2,0.5-0.7,0.6l-5.8,0.8c-0.8,0.1-1.4-0.1-1.4-0.1
				s-0.6-0.1-1.2-0.6l-2.9-2.3C909.1,625.5,909,625.2,909.4,625.1z"/>
			<path id="XMLID_4030_" class="st25" d="M898.4,626.6c0,0.1,0.1,0.3,0.3,0.4l2.9,2.3c0.6,0.5,1.7,0.8,2.5,0.7l5.8-0.8
				c0.2,0,0.4-0.1,0.5-0.2c0.1,0.3-0.2,0.5-0.7,0.6l-5.8,0.8c-0.7,0.1-1.9-0.2-2.5-0.7l-2.9-2.3C898.1,627.1,898,626.7,898.4,626.6z
				"/>
			<path id="XMLID_4029_" class="st25" d="M954.7,622.9c0.1,0.3-0.2,0.5-0.7,0.6l-5.8,0.8c-0.7,0.1-1.9-0.2-2.5-0.7l-2.9-2.3
				c-0.4-0.4-0.5-0.7-0.2-0.9c0,0.1,0.1,0.3,0.3,0.4l2.9,2.3c0.6,0.5,1.7,0.8,2.5,0.7l5.8-0.8C954.3,622.9,954.5,622.9,954.7,622.9z
				"/>
			<path id="XMLID_4028_" class="st25" d="M931.1,622.1c0,0.1,0.1,0.3,0.3,0.4l2.9,2.3c0.6,0.5,1.3,0.6,1.3,0.6s0.5,0.2,1.3,0.1
				l6.2-0.9c0.2,0,0.4-0.1,0.5-0.2c0.1,0.3-0.2,0.5-0.7,0.6l-6.2,0.9c-0.8,0.1-1.3-0.1-1.3-0.1s-0.7-0.1-1.3-0.6l-2.9-2.3
				C930.8,622.5,930.8,622.2,931.1,622.1z"/>
			<path id="XMLID_4027_" class="st25" d="M999.7,639.3l-4.4,0.6c-0.7,0.1-1.6-0.1-2.3-0.5c-0.1-0.1-0.2-0.2-0.3-0.3l-0.8-0.6
				c-0.1-0.1-0.3-0.2-0.5-0.3c-0.1-0.1,0-0.2,0.2-0.3l0.1,0.1l1.1,0.9c0.6,0.5,1.8,0.8,2.6,0.7l4.4-0.6c0.1-0.1,0.1-0.1,0.2-0.1
				C1000.2,639.1,1000.1,639.3,999.7,639.3z"/>
			<path id="XMLID_4026_" class="st25" d="M965.3,628.7c0.1,0.3-0.2,0.5-0.7,0.6l-6.4,0.9c-0.7,0.1-1.9-0.2-2.5-0.7l-3.8-3
				c-0.4-0.4-0.5-0.7-0.2-0.9c0,0.1,0.1,0.3,0.3,0.4l3.8,3c0.6,0.5,1.7,0.8,2.5,0.7l6.4-0.9C964.9,628.7,965.1,628.7,965.3,628.7z"
				/>
			<path id="XMLID_4025_" class="st25" d="M893.1,615.8c0,0.1,0.1,0.3,0.3,0.4l1.3,1c0.6,0.5,1.7,0.8,2.5,0.7l7.1-1
				c0.2,0,0.4-0.1,0.5-0.2c0.1,0.3-0.2,0.5-0.7,0.6l-7.1,1c-0.7,0.1-1.9-0.2-2.5-0.7l-1.3-1C892.7,616.2,892.7,615.9,893.1,615.8z"
				/>
			<path id="XMLID_4024_" class="st25" d="M928.1,610.9c0,0.1,0.1,0.3,0.3,0.4l1.3,1c0.6,0.5,1.7,0.8,2.5,0.7l7.3-1
				c0.2,0,0.4-0.1,0.5-0.2c0.1,0.3-0.2,0.5-0.7,0.6l-7.3,1c-0.7,0.1-1.9-0.2-2.5-0.7l-1.3-1C927.8,611.4,927.8,611,928.1,610.9z"/>
			<path id="XMLID_4023_" class="st25" d="M951.6,607.6c0,0.1,0.1,0.3,0.3,0.4l1.3,1c0.6,0.5,1.7,0.8,2.5,0.7l6.6-0.9
				c0.2,0,0.4-0.1,0.5-0.2c0.1,0.3-0.2,0.5-0.7,0.6l-6.6,0.9c-0.7,0.1-1.9-0.2-2.5-0.7l-1.3-1C951.3,608.1,951.3,607.8,951.6,607.6z
				"/>
			<path id="XMLID_4022_" class="st25" d="M940.7,609.2c0,0.1,0.1,0.3,0.3,0.4l1.3,1c0.6,0.5,1.7,0.8,2.5,0.7l5.7-0.8
				c0.2,0,0.4-0.1,0.5-0.2c0.1,0.3-0.2,0.5-0.7,0.6l-5.7,0.8c-0.7,0.1-1.9-0.2-2.5-0.7l-1.3-1C940.4,609.6,940.3,609.3,940.7,609.2z
				"/>
			<path id="XMLID_4021_" class="st25" d="M916.7,612.5c0,0.1,0.1,0.3,0.3,0.4l1.3,1c0.6,0.5,1.7,0.8,2.5,0.7l6.2-0.9
				c0.2,0,0.4-0.1,0.5-0.2c0.1,0.3-0.2,0.5-0.7,0.6l-6.2,0.9c-0.7,0.1-1.9-0.2-2.5-0.7l-1.3-1C916.4,612.9,916.3,612.6,916.7,612.5z
				"/>
			<path id="XMLID_4020_" class="st25" d="M905.4,614c0,0.1,0.1,0.3,0.3,0.4l1.3,1c0.6,0.5,1.7,0.8,2.5,0.7l6-0.8
				c0.2,0,0.4-0.1,0.5-0.2c0.1,0.3-0.2,0.5-0.7,0.6l-6,0.8c-0.7,0.1-1.9-0.2-2.5-0.7l-1.3-1C905.1,614.5,905.1,614.2,905.4,614z"/>
			<path id="XMLID_4019_" class="st25" d="M992.6,632.2c0.1,0.3-0.2,0.5-0.7,0.6l-19.8,2.7c-0.7,0.1-1.3-0.1-1.3-0.1
				c0-0.1-0.7-0.2-1.3-0.7l-3.7-2.9c-0.4-0.4-0.5-0.7-0.2-0.9c0,0.1,0.1,0.3,0.3,0.4l3.7,2.9c0.6,0.5,1.3,0.7,1.3,0.7
				s0.5,0.2,1.3,0.1l19.8-2.7C992.3,632.2,992.5,632.1,992.6,632.2z"/>
			<path id="XMLID_4018_" class="st25" d="M864.6,643.1l-15.5,2.1c-0.8,0.1-1.5-0.1-1.5-0.1s-0.5-0.1-1.1-0.6l-3.8-3
				c-0.4-0.4-0.5-0.7-0.2-0.9c0,0.1,0.1,0.3,0.3,0.4l3.8,3c0.6,0.5,1.1,0.6,1.1,0.6s0.7,0.2,1.5,0.1l15.5-2.1c0.2,0,0.4-0.1,0.5-0.2
				C865.3,642.7,865,643,864.6,643.1z"/>
			<path id="XMLID_4017_" class="st25" d="M970.1,614.3c0.1,0.3-0.2,0.5-0.7,0.6l-13.4,1.9c-0.8,0.1-1.9-0.2-2.5-0.7l-2.9-2.4
				c-0.4-0.4-0.5-0.7-0.2-0.9c0,0.1,0.1,0.2,0.3,0.4l2.9,2.4c0.6,0.5,1.7,0.8,2.5,0.7l13.4-1.9C969.7,614.4,969.9,614.3,970.1,614.3
				z"/>
			<path id="XMLID_4016_" class="st25" d="M984.8,626c0.1,0.3-0.2,0.5-0.7,0.6l-2.3,0.3c-0.7,0.1-1.9-0.2-2.5-0.7L974,622
				c-0.6-0.4-1.2-0.9-1.7-1c-0.5-0.1-1,0.1-1.8,0.2c0,0-1.1,0.1-1.6-0.1s-0.6-0.2-1.2-0.7l-2.7-2.1c-0.4-0.4-0.5-0.7-0.2-0.9
				c0,0.1,0.1,0.3,0.3,0.4l2.7,2.1c0.6,0.5,0.7,0.5,1.2,0.7c0.4,0.2,1.6,0.1,1.6,0.1c0.8-0.1,1.3-0.3,1.8-0.2c0.5,0,1.1,0.5,1.7,1
				l5.3,4.2c0.6,0.5,1.7,0.8,2.5,0.7l2.3-0.3C984.4,626,984.6,626,984.8,626z"/>
			<path id="XMLID_4015_" class="st25" d="M836,623.6c0,0.1,0.1,0.3,0.3,0.4l1.3,1c0.6,0.5,1.7,0.8,2.5,0.7l6.2-0.9
				c0.2,0,0.4-0.1,0.5-0.2c0.1,0.3-0.2,0.5-0.7,0.6l-6.2,0.9c-0.7,0.1-1.9-0.2-2.5-0.7l-1.3-1C835.7,624.1,835.6,623.8,836,623.6z"
				/>
			<path id="XMLID_4014_" class="st25" d="M840.3,632.8l-6,0.8c-0.7,0.1-1.9-0.2-2.5-0.7l-3.1-2.4c-0.4-0.4-0.5-0.7-0.2-0.9
				c0,0.1,0.1,0.3,0.3,0.4l3.1,2.4c0.6,0.5,1.7,0.8,2.5,0.7l6-0.8c0.2,0,0.4-0.1,0.5-0.2C841,632.4,840.8,632.7,840.3,632.8z"/>
			<path id="XMLID_4013_" class="st25" d="M847.4,622.1c0,0.1,0.1,0.3,0.3,0.4l1.3,1c0.6,0.5,1.7,0.8,2.5,0.7l6.2-0.9
				c0.2,0,0.4-0.1,0.5-0.2c0.1,0.3-0.2,0.5-0.7,0.6l-6.2,0.9c-0.7,0.1-1.9-0.2-2.5-0.7l-1.3-1C847.1,622.5,847,622.2,847.4,622.1z"
				/>
			<path id="XMLID_4012_" class="st25" d="M887.3,628.1c0,0.1,0.1,0.3,0.3,0.4l2.9,2.3c0.6,0.5,1.7,0.8,2.5,0.7l5.8-0.8
				c0.2,0,0.4-0.1,0.5-0.2c0.1,0.3-0.2,0.5-0.7,0.6l-5.8,0.8c-0.7,0.1-1.9-0.2-2.5-0.7l-2.9-2.3C887,628.6,886.9,628.3,887.3,628.1z
				"/>
			<path id="XMLID_4011_" class="st25" d="M854.3,637.3l-13.2,1.8c-0.7,0.1-1.9-0.2-2.5-0.7l-2.9-2.3c-0.4-0.4-0.5-0.7-0.2-0.9
				c0,0.1,0.1,0.3,0.3,0.4l2.9,2.3c0.6,0.5,1.7,0.8,2.5,0.7l13.2-1.8c0.2,0,0.4-0.1,0.5-0.2C855.1,636.9,854.8,637.1,854.3,637.3z"
				/>
			<path id="XMLID_4010_" class="st25" d="M881.7,617.3c0,0.1,0.1,0.3,0.3,0.4l1.3,1c0.6,0.5,1.7,0.8,2.5,0.7l6.1-0.8
				c0.2,0,0.4-0.1,0.5-0.2c0.1,0.3-0.2,0.5-0.7,0.6l-6.1,0.8c-0.7,0.1-1.9-0.2-2.5-0.7l-1.3-1C881.4,617.8,881.3,617.5,881.7,617.3z
				"/>
			<path id="XMLID_4009_" class="st25" d="M858.8,620.5c0,0.1,0.1,0.3,0.3,0.4l1.3,1c0.6,0.5,1.7,0.8,2.5,0.7l6.2-0.9
				c0.2,0,0.4-0.1,0.5-0.2c0.1,0.3-0.2,0.5-0.7,0.6l-6.2,0.9c-0.7,0.1-1.9-0.2-2.5-0.7l-1.3-1C858.5,621,858.5,620.6,858.8,620.5z"
				/>
			<path id="XMLID_4008_" class="st25" d="M870.3,618.9c0,0.1,0.1,0.3,0.3,0.4l1.3,1c0.6,0.5,1.7,0.8,2.5,0.7l6.2-0.9
				c0.2,0,0.4-0.1,0.5-0.2c0.1,0.3-0.2,0.5-0.7,0.6l-6.2,0.9c-0.7,0.1-1.9-0.2-2.5-0.7l-1.3-1C869.9,619.4,869.9,619,870.3,618.9z"
				/>
			<path id="XMLID_4007_" class="st25" d="M834.7,626.9l-7.6,1c-0.7,0.1-1.9-0.2-2.5-0.7l-1.3-1c-0.4-0.4-0.5-0.7-0.2-0.9
				c0,0.1,0.1,0.3,0.3,0.4l1.3,1c0.6,0.5,1.7,0.8,2.5,0.7l7.6-1c0.4,0,0.6-0.1,0.7-0.2c0.1,0.2,0,0.3,0,0.3
				C835.4,626.5,835.4,626.8,834.7,626.9z"/>
			<path id="XMLID_4006_" class="st25" d="M879.1,647.9c0.1,0.3-0.2,0.5-0.7,0.6l-5.7,0.8c-0.7,0.1-1.9-0.2-2.5-0.7l-3.8-3
				c-0.4-0.4-0.5-0.7-0.2-0.9c0,0.1,0.1,0.3,0.3,0.4l3.8,3c0.6,0.5,1.7,0.8,2.5,0.7l5.7-0.8C878.8,647.9,878.9,647.9,879.1,647.9z"
				/>
			<path id="XMLID_4005_" class="st25" d="M863.3,637.9c0,0.1,0.1,0.3,0.3,0.4l3.8,3c0.6,0.5,1.7,0.8,2.5,0.7l5.7-0.8
				c0.2,0,0.4-0.1,0.5-0.2c0.1,0.3-0.2,0.5-0.7,0.6l-5.7,0.8c-0.7,0.1-1.9-0.2-2.5-0.7l-3.8-3C863,638.3,863,638,863.3,637.9z"/>
			<path id="XMLID_4004_" class="st25" d="M854.1,632.7c0,0.1,0.1,0.3,0.3,0.4l2.9,2.3c0.6,0.5,1.7,0.8,2.5,0.7l5.8-0.8
				c0.2,0,0.4-0.1,0.5-0.2c0.1,0.3-0.2,0.5-0.7,0.6l-5.8,0.8c-0.7,0.1-1.9-0.2-2.5-0.7l-2.9-2.3
				C853.8,633.2,853.7,632.9,854.1,632.7z"/>
			<path id="XMLID_4003_" class="st25" d="M890.2,646.3c0.1,0.3-0.2,0.5-0.7,0.6l-5.8,0.8c-0.8,0.1-1.5-0.1-1.5-0.1s-0.4-0.1-1-0.6
				l-3.8-3c-0.4-0.4-0.5-0.7-0.2-0.9c0,0.1,0.1,0.3,0.3,0.4l3.8,3c0.6,0.5,1,0.6,1,0.6s0.7,0.2,1.5,0.1l5.8-0.8
				C889.8,646.4,890,646.3,890.2,646.3z"/>
			<path id="XMLID_4002_" class="st25" d="M852,630.7c0.1,0.3-0.2,0.5-0.7,0.6l-5.8,0.8c-0.7,0.1-1.9-0.2-2.5-0.7l-3.1-2.4
				c-0.4-0.4-0.5-0.7-0.2-0.9c0,0.1,0.1,0.3,0.3,0.4l3.1,2.4c0.6,0.5,1.7,0.8,2.5,0.7l5.8-0.8C851.7,630.7,851.9,630.6,852,630.7z"
				/>
			<path id="XMLID_4001_" class="st25" d="M861.9,625c0,0.1,0.1,0.2,0.3,0.4l3,2.4c0.6,0.5,1.7,0.8,2.5,0.7l6-0.8
				c0.2,0,0.4-0.1,0.5-0.2c0.1,0.3-0.2,0.5-0.7,0.6l-6,0.8c-0.8,0.1-1.9-0.2-2.5-0.7l-3-2.4C861.6,625.5,861.5,625.2,861.9,625z"/>
			<path id="XMLID_4000_" class="st25" d="M854.1,629.8l-3.1-2.4c-0.4-0.4-0.5-0.7-0.2-0.9c0,0.1,0.1,0.3,0.3,0.4l3.1,2.4
				c0.6,0.5,1.2,0.7,1.2,0.7s0.5,0.1,1.3,0l5.8-0.8c0.2,0,0.4-0.1,0.5-0.2c0.1,0.3-0.2,0.5-0.7,0.6l-5.8,0.8c-0.8,0.1-1.3,0-1.3,0
				S854.6,630.3,854.1,629.8z"/>
			<path id="XMLID_3999_" class="st25" d="M901.3,644.8c0.1,0.3-0.2,0.5-0.7,0.6l-5.8,0.8c-0.7,0.1-1.9-0.2-2.5-0.7l-3.8-3
				c-0.4-0.4-0.5-0.7-0.2-0.9c0,0.1,0.1,0.3,0.3,0.4l3.8,3c0.6,0.5,1.7,0.8,2.5,0.7l5.8-0.8C900.9,644.9,901.1,644.8,901.3,644.8z"
				/>
			<path id="XMLID_3998_" class="st25" d="M956.5,637.1c0.1,0.3-0.2,0.5-0.7,0.6l-5.8,0.8c-0.7,0.1-1.9-0.2-2.5-0.7l-3.8-3
				c-0.4-0.4-0.5-0.7-0.2-0.9c0,0.1,0.1,0.3,0.3,0.4l3.8,3c0.6,0.5,1.7,0.8,2.5,0.7l5.8-0.8C956.2,637.2,956.4,637.1,956.5,637.1z"
				/>
			<path id="XMLID_3997_" class="st25" d="M967.6,635.6c0.1,0.3-0.2,0.5-0.7,0.6l-5.8,0.8c-0.7,0.1-1.9-0.2-2.5-0.7l-3.8-3
				c-0.4-0.4-0.5-0.7-0.2-0.9c0,0.1,0.1,0.3,0.3,0.4l3.8,3c0.6,0.5,1.7,0.8,2.5,0.7l5.8-0.8C967.2,635.7,967.4,635.6,967.6,635.6z"
				/>
			<path id="XMLID_3996_" class="st25" d="M983.9,638.8c-0.6-0.1-1.2-0.3-1.6-0.6l-1.1-0.9c-0.4-0.3-0.5-0.7-0.2-0.9
				c0.1,0.2,0.2,0.3,0.4,0.5l1.1,0.9c0.4,0.3,1.4,0.6,2,0.5l4.8-0.7c0.2,0,0.4-0.1,0.5-0.2c0,0.2,0,0.3-0.1,0.4c-0.2,0-0.4,0-0.6,0
				l-4.7,0.7C984.1,638.5,984,638.6,983.9,638.8z"/>
			<path id="XMLID_3995_" class="st25" d="M873,623.5c0,0.1,0.1,0.3,0.3,0.4l3.1,2.4c0.6,0.5,1.2,0.6,1.2,0.6s0.6,0.1,1.4,0l5.8-0.8
				c0.2,0,0.4-0.1,0.5-0.2c0.1,0.3-0.2,0.5-0.7,0.6l-5.8,0.8c-0.8,0.2-1.4,0-1.4,0s-0.6-0.1-1.2-0.6l-3.1-2.4
				C872.6,624,872.6,623.6,873,623.5z"/>
			<path id="XMLID_3994_" class="st25" d="M912.3,643.3c0.1,0.3-0.2,0.5-0.7,0.6l-5.8,0.8c-0.7,0.1-1.9-0.2-2.5-0.7l-3.8-3
				c-0.4-0.4-0.5-0.7-0.2-0.9c0,0.1,0.1,0.3,0.3,0.4l3.8,3c0.6,0.5,1.7,0.8,2.5,0.7l5.8-0.8C911.9,643.3,912.1,643.3,912.3,643.3z"
				/>
			<path id="XMLID_3993_" class="st25" d="M923.3,641.7c0.1,0.3-0.2,0.5-0.7,0.6l-5.8,0.8c-0.7,0.1-1.9-0.2-2.5-0.7l-3.8-3
				c-0.4-0.4-0.5-0.7-0.2-0.9c0,0.1,0.1,0.3,0.3,0.4l3.8,3c0.6,0.5,1.7,0.8,2.5,0.7l5.8-0.8C923,641.8,923.2,641.7,923.3,641.7z"/>
			<path id="XMLID_3992_" class="st25" d="M934,640.3c0.1,0.3-0.2,0.5-0.7,0.6l-5.4,0.7c-0.8,0.1-1.5-0.2-1.5-0.2
				c0-0.1-0.6-0.2-1.2-0.7l-3.6-2.9c-0.4-0.4-0.5-0.7-0.2-0.9c0,0.1,0.1,0.3,0.3,0.4l3.6,2.9c0.6,0.5,1.2,0.7,1.2,0.7
				c0.1,0.1,0.7,0.3,1.5,0.2l5.4-0.7C933.6,640.3,933.8,640.3,934,640.3z"/>
			<path id="XMLID_3991_" class="st25" d="M945.5,638.6c0.1,0.3-0.2,0.5-0.7,0.6l-6.2,1c-0.7,0.1-1.9-0.2-2.5-0.7l-3.8-3
				c-0.4-0.4-0.5-0.7-0.2-0.9c0,0.1,0.1,0.3,0.3,0.4l3.8,3c0.6,0.5,1.7,0.8,2.5,0.7l6.2-0.9C945.1,638.7,945.3,638.7,945.5,638.6z"
				/>
			<path id="XMLID_3990_" class="st25" d="M876.2,629.7c0,0.1,0.1,0.3,0.3,0.4l2.8,2.2c0.6,0.4,0.8,0.5,1.2,0.6
				c0.3,0.1,0.6,0.2,1.4,0.1l5.8-0.8c0.2,0,0.4-0.1,0.5-0.2c0.1,0.3-0.2,0.5-0.7,0.6l-5.8,0.8c-0.7,0.1-1,0-1.4-0.1
				c-0.4-0.1-0.6-0.1-1.2-0.6l-2.8-2.2C875.9,630.1,875.9,629.8,876.2,629.7z"/>
			<path id="XMLID_3989_" class="st25" d="M920.5,634.9c0.1,0.3-0.2,0.5-0.7,0.6l-5.9,0.8c-0.7,0.1-0.9,0-1.4-0.1
				c-0.5-0.1-0.7-0.3-1.3-0.8l-3.5-2.8c-0.4-0.4-0.5-0.7-0.2-0.9c0,0.1,0.1,0.3,0.3,0.4l3.5,2.8c0.6,0.5,0.8,0.7,1.3,0.8
				c0.4,0.2,0.6,0.2,1.4,0.1l5.9-0.8C920.1,634.9,920.3,634.9,920.5,634.9z"/>
			<path id="XMLID_3988_" class="st25" d="M931.1,633.4c0.1,0.3-0.2,0.5-0.7,0.6l-5.4,0.7c-0.7,0.1-1.9-0.2-2.5-0.7l-3.8-3
				c-0.4-0.4-0.5-0.7-0.2-0.9c0,0.1,0.1,0.3,0.3,0.4l3.8,3c0.6,0.5,1.7,0.8,2.5,0.7l5.4-0.7C930.7,633.5,930.9,633.4,931.1,633.4z"
				/>
			<path id="XMLID_3987_" class="st25" d="M953.6,630.3c0.1,0.3-0.2,0.5-0.7,0.6l-5.8,0.8c-0.7,0.1-1.9-0.2-2.5-0.7l-3.8-3
				c-0.4-0.4-0.5-0.7-0.2-0.9c0,0.1,0.1,0.3,0.3,0.4l3.8,3c0.6,0.5,1.7,0.8,2.5,0.7l5.8-0.8C953.3,630.3,953.5,630.3,953.6,630.3z"
				/>
			<path id="XMLID_3986_" class="st25" d="M909.4,636.4c0.1,0.3-0.2,0.5-0.7,0.6l-5.8,0.8c-0.7,0.1-1.9-0.2-2.5-0.7l-3.8-3
				c-0.4-0.4-0.5-0.7-0.2-0.9c0,0.1,0.1,0.3,0.3,0.4l3.8,3c0.6,0.5,1.7,0.8,2.5,0.7l5.8-0.8C909,636.5,909.2,636.4,909.4,636.4z"/>
			<path id="XMLID_3985_" class="st25" d="M942.6,631.8c0.1,0.3-0.1,0.5-0.7,0.6l-6.4,0.8c-0.8,0.1-2-0.2-2.6-0.7l-3.6-2.8
				c-0.4-0.4-0.5-0.7-0.2-0.9c0,0.1,0.1,0.3,0.3,0.4l3.6,2.8c0.7,0.5,1.8,0.8,2.6,0.7l6.4-0.8C942.2,631.8,942.4,631.8,942.6,631.8z
				"/>
			<path id="XMLID_3984_" class="st25" d="M898.4,637.9c0.1,0.3-0.2,0.5-0.7,0.6l-5.8,0.8c-0.7,0.1-1.9-0.2-2.5-0.7l-3.8-3
				c-0.4-0.4-0.5-0.7-0.2-0.9c0,0.1,0.1,0.3,0.3,0.4l3.8,3c0.6,0.5,1.7,0.8,2.5,0.7l5.8-0.8C898,638,898.2,637.9,898.4,637.9z"/>
			<path id="XMLID_3983_" class="st25" d="M865.2,631.2c0,0.1,0.1,0.3,0.3,0.4l2.9,2.3c0.6,0.5,1.7,0.8,2.5,0.7l5.8-0.8
				c0.2,0,0.4-0.1,0.5-0.2c0.1,0.3-0.2,0.5-0.7,0.6l-5.8,0.8c-0.7,0.1-1.9-0.2-2.5-0.7l-2.9-2.3
				C864.8,631.7,864.8,631.3,865.2,631.2z"/>
			<path id="XMLID_3982_" class="st25" d="M887.3,639.4c0.1,0.3-0.2,0.5-0.7,0.6l-5.9,0.8c-0.8,0.1-1.5-0.1-1.5-0.1
				c-0.1-0.1-0.7-0.3-1.3-0.8l-3.5-2.7c-0.4-0.4-0.5-0.7-0.2-0.9c0,0.1,0.1,0.3,0.3,0.4l3.5,2.7c0.6,0.5,1.3,0.8,1.3,0.8
				c0.1,0,0.7,0.2,1.5,0.1l5.9-0.8C886.9,639.5,887.1,639.4,887.3,639.4z"/>
			<path id="XMLID_3981_" class="st25" d="M939.3,614.3c0,0.1,0.1,0.3,0.3,0.4l3.1,2.4c0.6,0.5,1.1,0.9,1.1,0.9s0.6-0.1,1.4-0.2
				l5.8-0.8c0.2,0,0.4-0.1,0.5-0.2c0.1,0.3-0.2,0.5-0.7,0.6l-5.8,0.8c-0.7,0.1-1.4,0.2-1.4,0.2s-0.5-0.4-1.1-0.9l-3.1-2.4
				C939,614.8,938.9,614.4,939.3,614.3z"/>
			<path id="XMLID_3980_" class="st25" d="M895.1,620.4c0,0.1,0.1,0.3,0.3,0.4l3.1,2.4c0.6,0.5,1.7,0.8,2.5,0.7l5.8-0.8
				c0.2,0,0.4-0.1,0.5-0.2c0.1,0.3-0.2,0.5-0.7,0.6l-5.8,0.8c-0.7,0.1-1.9-0.2-2.5-0.7l-3.1-2.4
				C894.7,620.9,894.7,620.6,895.1,620.4z"/>
			<path id="XMLID_3979_" class="st25" d="M977.3,627c0.1,0.3-0.2,0.5-0.7,0.6l-6.7,0.9c-0.7,0.1-1.9-0.2-2.5-0.7l-3.8-3
				c-0.4-0.4-0.5-0.7-0.2-0.9c0,0.1,0.1,0.3,0.3,0.4l3.8,3c0.6,0.5,1.7,0.8,2.5,0.7l6.7-0.9C976.9,627.1,977.1,627,977.3,627z"/>
			<path id="XMLID_3978_" class="st25" d="M916.8,617.4c0,0.1,0.1,0.3,0.3,0.4l3.1,2.4c0.6,0.5,1.7,0.8,2.5,0.7l6.2-0.9
				c0.2,0,0.4-0.1,0.5-0.2c0.1,0.3-0.2,0.5-0.7,0.6l-6.2,0.9c-0.7,0.1-1.9-0.2-2.5-0.7l-3.1-2.4
				C916.5,617.9,916.4,617.6,916.8,617.4z"/>
			<path id="XMLID_3977_" class="st25" d="M906.1,618.9c0,0.1,0.1,0.3,0.3,0.4l3.1,2.4c0.6,0.5,1.7,0.8,2.5,0.7l5.4-0.7
				c0.2,0,0.4-0.1,0.5-0.2c0.1,0.3-0.2,0.5-0.7,0.6l-5.4,0.7c-0.7,0.1-1.9-0.2-2.5-0.7l-3.1-2.4C905.8,619.4,905.8,619,906.1,618.9z
				"/>
			<path id="XMLID_3976_" class="st25" d="M884,622c0,0.1,0.1,0.3,0.3,0.4l3,2.4c0.6,0.5,1.2,0.7,1.2,0.7c0,0.1,0.6,0.2,1.4,0.1
				l5.8-0.8c0.2,0,0.4-0.1,0.5-0.2c0.1,0.3-0.2,0.5-0.7,0.6l-5.8,0.8c-0.8,0.1-1.4-0.1-1.4-0.1s-0.6-0.2-1.2-0.7l-3-2.4
				C883.7,622.4,883.7,622.1,884,622z"/>
			<path id="XMLID_3975_" class="st25" d="M928.3,615.8c0,0.1,0.1,0.3,0.3,0.4l3.1,2.4c0.6,0.5,1.7,0.8,2.5,0.7l5.8-0.8
				c0.2,0,0.4-0.1,0.5-0.2c0.1,0.3-0.2,0.5-0.7,0.6l-5.8,0.8c-0.7,0.1-1.9-0.2-2.5-0.7l-3.1-2.4C928,616.3,927.9,616,928.3,615.8z"
				/>
			<path id="XMLID_3974_" class="st25" d="M953.7,618.9c0,0.1,0.1,0.3,0.3,0.4l2.9,2.3c0.6,0.5,1.7,0.8,2.5,0.7l5.8-0.8
				c0.2,0,0.4-0.1,0.5-0.2c0.1,0.3-0.2,0.5-0.7,0.6l-5.8,0.8c-0.7,0.1-1.9-0.2-2.5-0.7l-2.9-2.3
				C953.3,619.4,953.3,619.1,953.7,618.9z"/>
		</g>
		<g id="XMLID_3833_">
			<g id="XMLID_3971_" class="st26">
				<path id="XMLID_3972_" class="st20" d="M981.6,638.9c0.8-0.1,2,0.2,2.6,0.7l0.8,0.6c0.5,0.4,0.4,0.8-0.3,0.9l-4.5,0.6
					c-0.8,0.1-2-0.2-2.6-0.7l-0.7-0.5c-0.6-0.4-0.4-0.9,0.3-1L981.6,638.9z"/>
			</g>
			<g id="XMLID_3969_" class="st26">
				<path id="XMLID_3970_" class="st20" d="M946.1,640.3c0.7-0.1,1.9,0.2,2.5,0.7l4.7,3.7c0.6,0.5,0.5,1-0.3,1.1l-42.6,5.9
					c-0.7,0.1-1.9-0.2-2.5-0.7l-4.7-3.7c-0.6-0.5-0.5-1,0.3-1.1L946.1,640.3z"/>
			</g>
			<g id="XMLID_3967_" class="st26">
				<path id="XMLID_3968_" class="st20" d="M968.5,637.2c0.7-0.1,1.9,0.2,2.5,0.7l4.7,3.7c0.6,0.5,0.5,1-0.3,1.1l-5.1,0.7
					c-0.7,0.1-1.9-0.2-2.5-0.7l-4.7-3.7c-0.6-0.5-0.5-1,0.3-1.1L968.5,637.2z"/>
			</g>
			<g id="XMLID_3965_" class="st26">
				<path id="XMLID_3966_" class="st20" d="M898.2,646.9c0.7-0.1,1.9,0.2,2.5,0.7l4.7,3.7c0.6,0.5,0.5,1-0.3,1.1l-6.5,0.9
					c-0.7,0.1-1.9-0.2-2.5-0.7l-4.7-3.7c-0.6-0.5-0.5-1,0.3-1.1L898.2,646.9z"/>
			</g>
			<g id="XMLID_3963_" class="st26">
				<path id="XMLID_3964_" class="st20" d="M958,638.7c0.8-0.1,2,0.2,2.6,0.7l4.7,3.7c0.6,0.5,0.5,1-0.3,1.1l-6.8,0.9
					c-0.7,0.1-1.9-0.2-2.5-0.7l-4.7-3.7c-0.6-0.5-0.5-1,0.3-1.1L958,638.7z"/>
			</g>
			<g id="XMLID_3961_" class="st26">
				<path id="XMLID_3962_" class="st20" d="M867.8,648.4c0.6,0.5,0.5,1-0.3,1.1l-10.6,1.5c-0.7,0.1-1.9-0.2-2.5-0.7l-3.8-3
					c-0.6-0.5-0.5-1,0.3-1.1l10.8-1.5c0.8-0.1,1.9,0.2,2.5,0.7L867.8,648.4z"/>
			</g>
			<g id="XMLID_3959_" class="st26">
				<path id="XMLID_3960_" class="st20" d="M886.4,648.5c0.7-0.1,1.9,0.2,2.5,0.7l4.7,3.7c0.6,0.5,0.5,1-0.3,1.1l-5.6,0.8
					c-0.7,0.1-1.9-0.2-2.5-0.7l-4.7-3.7c-0.6-0.5-0.5-1,0.3-1.1L886.4,648.5z"/>
			</g>
			<g id="XMLID_3957_" class="st26">
				<path id="XMLID_3958_" class="st20" d="M875.5,650c0.7-0.1,1.9,0.2,2.5,0.7l4.7,3.7c0.6,0.5,0.5,1-0.3,1.1l-4.9,0.7
					c-0.7,0.1-1.9-0.2-2.5-0.7l-4.7-3.7c-0.6-0.5-0.5-1,0.3-1.1L875.5,650z"/>
			</g>
			<g id="XMLID_3955_" class="st26">
				<path id="XMLID_3956_" class="st20" d="M865.3,651.5c0.7-0.1,1.9,0.2,2.5,0.7l4.7,3.7c0.6,0.5,0.5,1-0.3,1.1l-6.6,0.9
					c-0.7,0.1-1.9-0.2-2.5-0.7l-4.7-3.7c-0.6-0.5-0.5-1,0.3-1.1L865.3,651.5z"/>
			</g>
			<g id="XMLID_3953_" class="st26">
				<path id="XMLID_3954_" class="st20" d="M929.3,623l2.6,2.1c0.6,0.5,0.5,1-0.3,1.1l-5.4,0.8c-0.8,0.1-1.5-0.1-1.5-0.1
					c0-0.1-0.6-0.3-1.2-0.8l-2.7-2.1c-0.6-0.5-0.5-1,0.3-1.1l5.4-0.8c0.8-0.1,1.1-0.1,1.6,0.1C928.6,622.3,928.6,622.5,929.3,623z"
					/>
			</g>
			<g id="XMLID_3951_" class="st26">
				<path id="XMLID_3952_" class="st20" d="M989.1,637.8c0.9-0.1,2.1,0.2,2.8,0.7l0.8,0.6c0.4,0.4,0.3,0.7-0.3,0.8l-4.7,0.7
					c-0.9,0.1-2.1-0.2-2.8-0.7l-0.8-0.6c-0.4-0.4-0.3-0.7,0.3-0.8L989.1,637.8z"/>
			</g>
			<g id="XMLID_3949_" class="st26">
				<path id="XMLID_3950_" class="st20" d="M915.9,623.5c0.7-0.1,1.9,0.2,2.5,0.7l2.9,2.3c0.6,0.5,0.5,1-0.3,1.1l-5.8,0.8
					c-0.8,0.1-1.4-0.1-1.4-0.1s-0.6-0.1-1.2-0.6l-2.9-2.3c-0.6-0.5-0.5-1,0.3-1.1L915.9,623.5z"/>
			</g>
			<g id="XMLID_3947_" class="st26">
				<path id="XMLID_3948_" class="st20" d="M907.3,625.9l2.8,2.2c0.6,0.5,0.5,1-0.3,1.1L904,630c-0.7,0.1-1.9-0.2-2.5-0.7l-2.9-2.3
					c-0.6-0.5-0.5-1,0.3-1.1l5.8-0.8c0.8-0.1,1.4,0,1.4,0S906.8,625.3,907.3,625.9z"/>
			</g>
			<g id="XMLID_3945_" class="st26">
				<path id="XMLID_3946_" class="st20" d="M948.3,623.8c-0.7,0.1-1.9-0.2-2.5-0.7l-2.9-2.3c-0.6-0.5-0.5-1,0.3-1.1l5.8-0.8
					c0.7-0.1,1.9,0.2,2.5,0.7l2.9,2.3c0.6,0.5,0.5,1-0.3,1.1L948.3,623.8z"/>
			</g>
			<g id="XMLID_3943_" class="st26">
				<path id="XMLID_3944_" class="st20" d="M940.8,621.4l2.6,2c0.6,0.5,0.5,1-0.3,1.1l-6.2,0.9c-0.8,0.1-1.3-0.1-1.3-0.1
					s-0.7-0.1-1.3-0.6l-2.9-2.3c-0.6-0.5-0.5-1,0.3-1.1l6.3-0.9c0.8-0.1,1.3,0.1,1.6,0.2C939.9,620.8,940.2,620.9,940.8,621.4z"/>
			</g>
			<g id="XMLID_3941_" class="st26">
				<path id="XMLID_3942_" class="st20" d="M991.7,638c-0.3-0.3-0.2-0.5,0.2-0.6l4.5-0.6c0.8-0.1,2,0.2,2.6,0.7l1,0.8
					c0.4,0.3,0.3,0.6-0.2,0.7l-4.4,0.6c-0.8,0.1-2-0.2-2.6-0.7L991.7,638z"/>
			</g>
			<g id="XMLID_3939_" class="st26">
				<path id="XMLID_3940_" class="st20" d="M958.7,624c0.7-0.1,1.9,0.2,2.5,0.7l3.8,3c0.6,0.5,0.5,1-0.3,1.1l-6.4,0.9
					c-0.7,0.1-1.9-0.2-2.5-0.7l-3.8-3c-0.6-0.5-0.5-1,0.3-1.1L958.7,624z"/>
			</g>
			<g id="XMLID_3937_" class="st26">
				<path id="XMLID_3938_" class="st20" d="M897.2,617.8c-0.7,0.1-1.9-0.2-2.5-0.7l-1.3-1c-0.6-0.5-0.5-1,0.3-1.1l7.1-1
					c0.7-0.1,1.9,0.2,2.5,0.7l1.3,1c0.6,0.5,0.5,1-0.3,1.1L897.2,617.8z"/>
			</g>
			<g id="XMLID_3935_" class="st26">
				<path id="XMLID_3936_" class="st20" d="M932.2,613c-0.7,0.1-1.9-0.2-2.5-0.7l-1.3-1c-0.6-0.5-0.5-1,0.3-1.1l7.3-1
					c0.7-0.1,1.9,0.2,2.5,0.7l1.3,1c0.6,0.5,0.5,1-0.3,1.1L932.2,613z"/>
			</g>
			<g id="XMLID_3932_" class="st26">
				<path id="XMLID_3934_" class="st20" d="M955.7,609.7c-0.7,0.1-1.9-0.2-2.5-0.7l-1.3-1c-0.6-0.5-0.5-1,0.3-1.1l6.6-0.9
					c0.7-0.1,1.9,0.2,2.5,0.7l1.3,1c0.6,0.5,0.5,1-0.3,1.1L955.7,609.7z"/>
			</g>
			<g id="XMLID_3930_" class="st26">
				<path id="XMLID_3931_" class="st20" d="M944.8,611.2c-0.7,0.1-1.9-0.2-2.5-0.7l-1.3-1c-0.6-0.5-0.5-1,0.3-1.1l5.7-0.8
					c0.7-0.1,1.9,0.2,2.5,0.7l1.3,1c0.6,0.5,0.5,1-0.3,1.1L944.8,611.2z"/>
			</g>
			<g id="XMLID_3928_" class="st26">
				<path id="XMLID_3929_" class="st20" d="M920.8,614.6c-0.7,0.1-1.9-0.2-2.5-0.7l-1.3-1c-0.6-0.5-0.5-1,0.3-1.1l6.2-0.9
					c0.7-0.1,1.9,0.2,2.5,0.7l1.3,1c0.6,0.5,0.5,1-0.3,1.1L920.8,614.6z"/>
			</g>
			<g id="XMLID_3926_" class="st26">
				<path id="XMLID_3927_" class="st20" d="M909.5,616.1c-0.7,0.1-1.9-0.2-2.5-0.7l-1.3-1c-0.6-0.5-0.5-1,0.3-1.1l6-0.8
					c0.7-0.1,1.9,0.2,2.5,0.7l1.3,1c0.6,0.5,0.5,1-0.3,1.1L909.5,616.1z"/>
			</g>
			<g id="XMLID_3924_" class="st26">
				<path id="XMLID_3925_" class="st20" d="M965.9,631.3c-0.6-0.5-0.5-1,0.3-1.1l19.8-2.7c0.7-0.1,1.9,0.2,2.5,0.7l3.8,3
					c0.6,0.5,0.5,1-0.3,1.1l-19.8,2.7c-0.7,0.1-1.3-0.1-1.3-0.1c0-0.1-0.7-0.2-1.3-0.7L965.9,631.3z"/>
			</g>
			<g id="XMLID_3922_" class="st26">
				<path id="XMLID_3923_" class="st20" d="M849.2,644.8c-0.8,0.1-1.5-0.1-1.5-0.1s-0.5-0.1-1.1-0.6l-3.8-3c-0.6-0.5-0.5-1,0.3-1.1
					l15.6-2.2c0.7-0.1,1.9,0.2,2.5,0.7l3.7,3c0.6,0.5,0.5,1-0.3,1.1L849.2,644.8z"/>
			</g>
			<g id="XMLID_3920_" class="st26">
				<path id="XMLID_3921_" class="st20" d="M950.5,613.1c-0.6-0.5-0.4-1,0.4-1.1l13.2-1.8c0.7-0.1,1.9,0.2,2.5,0.7l3.1,2.4
					c0.6,0.5,0.5,1-0.3,1.1l-13.4,1.9c-0.8,0.1-1.9-0.2-2.5-0.7L950.5,613.1z"/>
			</g>
			<g id="XMLID_3918_" class="st26">
				<path id="XMLID_3919_" class="st20" d="M964.9,617.8c-0.6-0.5-0.5-1,0.3-1.1l6-0.8c0.7-0.1,1.9,0.2,2.5,0.7l10.7,8.4
					c0.6,0.5,0.5,1-0.3,1.1l-2.3,0.3c-0.7,0.1-1.9-0.2-2.5-0.7l-5.3-4.2c-0.6-0.4-1.2-0.9-1.7-1c-0.5-0.1-1,0.1-1.8,0.2
					c0,0-1.1,0.1-1.6-0.1s-0.6-0.2-1.2-0.7L964.9,617.8z"/>
			</g>
			<g id="XMLID_3916_" class="st26">
				<path id="XMLID_3917_" class="st20" d="M840,625.8c-0.7,0.1-1.9-0.2-2.5-0.7l-1.3-1c-0.6-0.5-0.5-1,0.3-1.1l6.2-0.9
					c0.7-0.1,1.9,0.2,2.5,0.7l1.3,1c0.6,0.5,0.5,1-0.3,1.1L840,625.8z"/>
			</g>
			<g id="XMLID_3914_" class="st26">
				<path id="XMLID_3915_" class="st20" d="M840.7,631.2c0.6,0.5,0.5,1-0.3,1.1l-6,0.8c-0.7,0.1-1.9-0.2-2.5-0.7l-3.1-2.4
					c-0.6-0.5-0.5-1,0.3-1.1l6-0.8c0.7-0.1,1.9,0.2,2.5,0.7L840.7,631.2z"/>
			</g>
			<g id="XMLID_3912_" class="st26">
				<path id="XMLID_3913_" class="st20" d="M851.5,624.2c-0.7,0.1-1.9-0.2-2.5-0.7l-1.3-1c-0.6-0.5-0.5-1,0.3-1.1l6.2-0.9
					c0.7-0.1,1.9,0.2,2.5,0.7l1.3,1c0.6,0.5,0.5,1-0.3,1.1L851.5,624.2z"/>
			</g>
			<g id="XMLID_3910_" class="st26">
				<path id="XMLID_3911_" class="st20" d="M893.7,626.6c0.7-0.1,1.9,0.2,2.5,0.7l2.9,2.3c0.6,0.5,0.5,1-0.3,1.1l-5.8,0.8
					c-0.7,0.1-1.9-0.2-2.5-0.7l-2.9-2.3c-0.6-0.5-0.5-1,0.3-1.1L893.7,626.6z"/>
			</g>
			<g id="XMLID_3908_" class="st26">
				<path id="XMLID_3909_" class="st20" d="M854.8,635.7c0.6,0.5,0.5,1-0.3,1.1l-13.2,1.8c-0.7,0.1-1.9-0.2-2.5-0.7l-2.9-2.3
					c-0.6-0.5-0.5-1,0.3-1.1l13.2-1.8c0.7-0.1,1.9,0.2,2.5,0.7L854.8,635.7z"/>
			</g>
			<g id="XMLID_3906_" class="st26">
				<path id="XMLID_3907_" class="st20" d="M885.8,619.3c-0.7,0.1-1.9-0.2-2.5-0.7l-1.3-1c-0.6-0.5-0.5-1,0.3-1.1l6.1-0.8
					c0.7-0.1,1.9,0.2,2.5,0.7l1.3,1c0.6,0.5,0.5,1-0.3,1.1L885.8,619.3z"/>
			</g>
			<g id="XMLID_3904_" class="st26">
				<path id="XMLID_3905_" class="st20" d="M862.9,622.6c-0.7,0.1-1.9-0.2-2.5-0.7l-1.3-1c-0.6-0.5-0.5-1,0.3-1.1l6.2-0.9
					c0.7-0.1,1.9,0.2,2.5,0.7l1.3,1c0.6,0.5,0.5,1-0.3,1.1L862.9,622.6z"/>
			</g>
			<g id="XMLID_3902_" class="st26">
				<path id="XMLID_3903_" class="st20" d="M874.3,621c-0.7,0.1-1.9-0.2-2.5-0.7l-1.3-1c-0.6-0.5-0.5-1,0.3-1.1l6.2-0.9
					c0.7-0.1,1.9,0.2,2.5,0.7l1.3,1c0.6,0.5,0.5,1-0.3,1.1L874.3,621z"/>
			</g>
			<g id="XMLID_3900_" class="st26">
				<path id="XMLID_3901_" class="st20" d="M834.8,626.6l-7.6,1c-0.7,0.1-1.9-0.2-2.5-0.7l-1.3-1c-0.6-0.5-0.5-1,0.3-1.1l7.6-1.1
					c0.7-0.1,1.9,0.2,2.5,0.7l1.3,1c0.6,0.5,0.5,0.7,0.5,0.7S835.5,626.3,834.8,626.6z"/>
			</g>
			<g id="XMLID_3898_" class="st26">
				<path id="XMLID_3899_" class="st20" d="M875.1,644l3.7,2.9c0.6,0.5,0.5,1-0.3,1.1l-5.7,0.8c-0.7,0.1-1.9-0.2-2.5-0.7l-3.8-3
					c-0.6-0.5-0.5-1,0.3-1.1l5.7-0.8c0.8-0.1,1.4,0,1.4,0C874,643.3,874.6,643.5,875.1,644z"/>
			</g>
			<g id="XMLID_3896_" class="st26">
				<path id="XMLID_3897_" class="st20" d="M869.9,641.9c-0.7,0.1-1.9-0.2-2.5-0.7l-3.8-3c-0.6-0.5-0.5-1,0.3-1.1l5.7-0.8
					c0.7-0.1,1.9,0.2,2.5,0.7l3.8,3c0.6,0.5,0.5,1-0.3,1.1L869.9,641.9z"/>
			</g>
			<g id="XMLID_3894_" class="st26">
				<path id="XMLID_3895_" class="st20" d="M865.8,634.2c0.6,0.5,0.5,1-0.3,1.1l-5.8,0.8c-0.7,0.1-1.9-0.2-2.5-0.7l-2.9-2.3
					c-0.6-0.5-0.5-1,0.3-1.1l5.9-0.8c0.8-0.1,1.5,0.1,1.5,0.1s0.6,0.2,1.2,0.7L865.8,634.2z"/>
			</g>
			<g id="XMLID_3892_" class="st26">
				<path id="XMLID_3893_" class="st20" d="M883.5,641.7c0.7-0.1,1.9,0.2,2.5,0.7l3.8,3c0.6,0.5,0.5,1-0.3,1.1l-5.8,0.8
					c-0.8,0.1-1.5-0.1-1.5-0.1s-0.4-0.1-1-0.6l-3.8-3c-0.6-0.5-0.5-1,0.3-1.1L883.5,641.7z"/>
			</g>
			<g id="XMLID_3890_" class="st26">
				<path id="XMLID_3891_" class="st20" d="M848.7,627.3l3,2.4c0.6,0.5,0.5,1-0.3,1.1l-5.8,0.8c-0.7,0.1-1.9-0.2-2.5-0.7l-3.1-2.4
					c-0.6-0.5-0.5-1,0.3-1.1l5.8-0.8c0.8-0.2,1.4,0,1.4,0S848.2,626.8,848.7,627.3z"/>
			</g>
			<g id="XMLID_3888_" class="st26">
				<path id="XMLID_3889_" class="st20" d="M867.6,628.5c-0.8,0.1-1.9-0.2-2.5-0.7l-3-2.4c-0.6-0.5-0.4-1,0.4-1.1l5.8-0.8
					c0.7-0.1,1.9,0.2,2.5,0.7l3.1,2.4c0.6,0.5,0.5,1-0.3,1.1L867.6,628.5z"/>
			</g>
			<g id="XMLID_3886_" class="st26">
				<path id="XMLID_3887_" class="st20" d="M854.2,629.3l-3.1-2.4c-0.6-0.5-0.5-1,0.3-1.1l5.8-0.8c0.7-0.1,1.9,0.2,2.5,0.7l3.1,2.4
					c0.6,0.5,0.5,1-0.3,1.1l-5.8,0.8c-0.8,0.1-1.3,0-1.3,0S854.7,629.8,854.2,629.3z"/>
			</g>
			<g id="XMLID_3884_" class="st26">
				<path id="XMLID_3885_" class="st20" d="M894.6,640.1c0.7-0.1,1.9,0.2,2.5,0.7l3.8,3c0.6,0.5,0.5,1-0.3,1.1l-5.8,0.8
					c-0.7,0.1-1.9-0.2-2.5-0.7l-3.8-3c-0.6-0.5-0.5-1,0.3-1.1L894.6,640.1z"/>
			</g>
			<g id="XMLID_3882_" class="st26">
				<path id="XMLID_3883_" class="st20" d="M949.9,632.5c0.7-0.1,1.9,0.2,2.5,0.7l3.8,3c0.6,0.5,0.5,1-0.3,1.1l-5.8,0.8
					c-0.7,0.1-1.9-0.2-2.5-0.7l-3.8-3c-0.6-0.5-0.5-1,0.3-1.1L949.9,632.5z"/>
			</g>
			<g id="XMLID_3880_" class="st26">
				<path id="XMLID_3881_" class="st20" d="M961,631c0.7-0.1,1.9,0.2,2.5,0.7l3.8,3c0.6,0.5,0.5,1-0.3,1.1l-5.8,0.8
					c-0.7,0.1-1.9-0.2-2.5-0.7l-3.8-3c-0.6-0.5-0.5-1,0.3-1.1L961,631z"/>
			</g>
			<g id="XMLID_3878_" class="st26">
				<path id="XMLID_3879_" class="st20" d="M986.7,634.9c0.4-0.1,1,0.1,1.3,0.3l1.5,1.2c0.7,0.5,0.5,1-0.3,1.1l-4.8,0.7
					c-0.6,0.1-1.5-0.1-2-0.5l-1.1-0.9c-0.6-0.5-0.4-1,0.4-1.1L986.7,634.9z"/>
			</g>
			<g id="XMLID_3876_" class="st26">
				<path id="XMLID_3877_" class="st20" d="M876.4,626.2l-3.1-2.4c-0.6-0.5-0.5-1,0.3-1.1l5.8-0.8c0.7-0.1,1.9,0.2,2.5,0.7l3.1,2.4
					c0.6,0.5,0.5,1-0.3,1.1l-5.8,0.8c-0.8,0.2-1.4,0-1.4,0S876.9,626.8,876.4,626.2z"/>
			</g>
			<g id="XMLID_3874_" class="st26">
				<path id="XMLID_3875_" class="st20" d="M905.7,638.6c0.7-0.1,1.9,0.2,2.5,0.7l3.8,3c0.6,0.5,0.5,1-0.3,1.1l-5.8,0.8
					c-0.7,0.1-1.9-0.2-2.5-0.7l-3.8-3c-0.6-0.5-0.5-1,0.3-1.1L905.7,638.6z"/>
			</g>
			<g id="XMLID_3872_" class="st26">
				<path id="XMLID_3873_" class="st20" d="M916.7,637.1c0.7-0.1,1.9,0.2,2.5,0.7l3.8,3c0.6,0.5,0.5,1-0.3,1.1l-5.8,0.8
					c-0.7,0.1-1.9-0.2-2.5-0.7l-3.8-3c-0.6-0.5-0.5-1,0.3-1.1L916.7,637.1z"/>
			</g>
			<g id="XMLID_3870_" class="st26">
				<path id="XMLID_3871_" class="st20" d="M929.9,636.4l3.8,3c0.6,0.5,0.5,1-0.3,1.1l-5.4,0.7c-0.8,0.1-1.5-0.2-1.5-0.2
					c0-0.1-0.6-0.2-1.2-0.7l-3.6-2.9c-0.6-0.5-0.5-1,0.3-1.1l5.4-0.7c0.8-0.1,1.3,0,1.3,0C928.7,635.7,929.3,635.8,929.9,636.4z"/>
			</g>
			<g id="XMLID_3868_" class="st26">
				<path id="XMLID_3869_" class="st20" d="M941.4,634.8l3.7,2.9c0.6,0.5,0.5,1-0.3,1.1l-6.2,0.9c-0.7,0.1-1.9-0.2-2.5-0.7l-3.8-3
					c-0.6-0.5-0.5-1,0.3-1.1l6.3-0.9c0.7-0.1,1.3,0.1,1.3,0.1S940.9,634.3,941.4,634.8z"/>
			</g>
			<g id="XMLID_3866_" class="st26">
				<path id="XMLID_3867_" class="st20" d="M885.3,628.9l2.8,2.2c0.6,0.5,0.5,1-0.3,1.1L882,633c-0.7,0.1-1,0-1.4-0.1
					c-0.4-0.1-0.6-0.1-1.2-0.6l-2.8-2.2c-0.6-0.5-0.5-1,0.3-1.1l5.8-0.8c0.8-0.1,1.4,0,1.4,0S884.7,628.4,885.3,628.9z"/>
			</g>
			<g id="XMLID_3864_" class="st26">
				<path id="XMLID_3865_" class="st20" d="M911.2,634.9l-3.5-2.8c-0.6-0.5-0.5-1,0.3-1.1l5.8-0.8c0.7-0.1,1.9,0.2,2.5,0.7l3.8,3
					c0.6,0.5,0.5,1-0.3,1.1l-5.9,0.8c-0.7,0.1-0.9,0-1.4-0.1C912.1,635.6,911.9,635.4,911.2,634.9z"/>
			</g>
			<g id="XMLID_3862_" class="st26">
				<path id="XMLID_3863_" class="st20" d="M925.1,634.2c-0.7,0.1-1.9-0.2-2.5-0.7l-3.8-3c-0.6-0.5-0.5-1,0.3-1.1l5.4-0.7
					c0.7-0.1,1.9,0.2,2.5,0.7l3.8,3c0.6,0.5,0.5,1-0.3,1.1L925.1,634.2z"/>
			</g>
			<g id="XMLID_3860_" class="st26">
				<path id="XMLID_3861_" class="st20" d="M947.2,631.2c-0.7,0.1-1.9-0.2-2.5-0.7l-3.8-3c-0.6-0.5-0.5-1,0.3-1.1l5.8-0.8
					c0.7-0.1,1.9,0.2,2.5,0.7l3.8,3c0.6,0.5,0.5,1-0.3,1.1L947.2,631.2z"/>
			</g>
			<g id="XMLID_3858_" class="st26">
				<path id="XMLID_3859_" class="st20" d="M903,637.3c-0.7,0.1-1.9-0.2-2.5-0.7l-3.8-3c-0.6-0.5-0.5-1,0.3-1.1l5.8-0.8
					c0.7-0.1,1.9,0.2,2.5,0.7l3.8,3c0.6,0.5,0.5,1-0.3,1.1L903,637.3z"/>
			</g>
			<g id="XMLID_3856_" class="st26">
				<path id="XMLID_3857_" class="st20" d="M935.7,632.7c-0.8,0.1-2-0.2-2.6-0.7l-3.6-2.8c-0.6-0.5-0.5-1,0.3-1.1l6.2-0.9
					c0.7-0.1,1.9,0.2,2.5,0.7l3.8,3c0.6,0.4,0.5,0.9-0.3,1L935.7,632.7z"/>
			</g>
			<g id="XMLID_3854_" class="st26">
				<path id="XMLID_3855_" class="st20" d="M892,638.8c-0.7,0.1-1.9-0.2-2.5-0.7l-3.8-3c-0.6-0.5-0.5-1,0.3-1.1l6-0.8
					c0.8-0.1,1.1,0,1.5,0.2c0.5,0.2,0.7,0.4,1.3,0.9l3.3,2.6c0.6,0.5,0.5,1-0.3,1.1L892,638.8z"/>
			</g>
			<g id="XMLID_3852_" class="st26">
				<path id="XMLID_3853_" class="st20" d="M871.5,629.7c0.7-0.1,1.9,0.2,2.5,0.7l2.9,2.3c0.6,0.5,0.5,1-0.3,1.1l-5.8,0.8
					c-0.7,0.1-1.9-0.2-2.5-0.7l-2.9-2.3c-0.6-0.5-0.5-1,0.3-1.1L871.5,629.7z"/>
			</g>
			<g id="XMLID_3850_" class="st26">
				<path id="XMLID_3851_" class="st20" d="M878.1,639.3l-3.5-2.7c-0.6-0.5-0.5-1,0.3-1.1l5.8-0.8c0.7-0.1,1.9,0.2,2.5,0.7l3.8,3
					c0.6,0.5,0.5,1-0.3,1.1l-5.9,0.8c-0.8,0.1-1.5-0.1-1.5-0.1S878.7,639.9,878.1,639.3z"/>
			</g>
			<g id="XMLID_3848_" class="st26">
				<path id="XMLID_3849_" class="st20" d="M942.7,617.1l-3.1-2.4c-0.6-0.5-0.5-1,0.3-1.1l5.8-0.8c0.7-0.1,1.9,0.2,2.5,0.7l3.1,2.4
					c0.6,0.5,0.5,1-0.3,1.1l-5.8,0.8c-0.7,0.1-1.4,0.2-1.4,0.2C943.7,618,943.2,617.6,942.7,617.1z"/>
			</g>
			<g id="XMLID_3846_" class="st26">
				<path id="XMLID_3847_" class="st20" d="M900.9,623.9c-0.7,0.1-1.9-0.2-2.5-0.7l-3.1-2.4c-0.6-0.5-0.5-1,0.3-1.1l5.8-0.8
					c0.7-0.1,1.9,0.2,2.5,0.7l3.1,2.4c0.6,0.5,0.5,1-0.3,1.1L900.9,623.9z"/>
			</g>
			<g id="XMLID_3844_" class="st26">
				<path id="XMLID_3845_" class="st20" d="M963.6,624.4c-0.6-0.5-0.5-1,0.3-1.1l6.7-0.9c0.7-0.1,1.9,0.2,2.5,0.7l3.8,3
					c0.6,0.5,0.5,1-0.3,1.1l-6.7,0.9c-0.7,0.1-1.9-0.2-2.5-0.7L963.6,624.4z"/>
			</g>
			<g id="XMLID_3842_" class="st26">
				<path id="XMLID_3843_" class="st20" d="M922.6,620.9c-0.7,0.1-1.9-0.2-2.5-0.7l-3.1-2.4c-0.6-0.5-0.5-1,0.3-1.1l6.3-0.9
					c0.8-0.1,1.5,0.1,1.5,0.1s0.6,0.2,1.2,0.7l2.9,2.3c0.6,0.5,0.5,1-0.3,1.1L922.6,620.9z"/>
			</g>
			<g id="XMLID_3840_" class="st26">
				<path id="XMLID_3841_" class="st20" d="M912,622.3c-0.7,0.1-1.9-0.2-2.5-0.7l-3.1-2.4c-0.6-0.5-0.5-1,0.3-1.1l5.4-0.7
					c0.8-0.1,1.5,0.1,1.5,0.1c0.1,0,0.6,0.2,1.2,0.7l2.9,2.3c0.6,0.5,0.5,1-0.3,1.1L912,622.3z"/>
			</g>
			<g id="XMLID_3838_" class="st26">
				<path id="XMLID_3839_" class="st20" d="M887.4,624.8l-3-2.4c-0.6-0.5-0.5-1,0.3-1.1l5.8-0.8c0.7-0.1,1.9,0.2,2.5,0.7l3.1,2.4
					c0.6,0.5,0.5,1-0.3,1.1l-5.8,0.8c-0.8,0.1-1.4-0.1-1.4-0.1C888.5,625.4,887.9,625.2,887.4,624.8z"/>
			</g>
			<g id="XMLID_3836_" class="st26">
				<path id="XMLID_3837_" class="st20" d="M934.1,619.3c-0.7,0.1-1.9-0.2-2.5-0.7l-3.1-2.4c-0.6-0.5-0.5-1,0.3-1.1l5.8-0.8
					c0.7-0.1,1.9,0.2,2.5,0.7l3.1,2.4c0.6,0.5,0.5,1-0.3,1.1L934.1,619.3z"/>
			</g>
			<g id="XMLID_3834_" class="st26">
				<path id="XMLID_3835_" class="st20" d="M959.3,622.3c-0.7,0.1-1.9-0.2-2.5-0.7l-2.9-2.3c-0.6-0.5-0.5-1,0.3-1.1l5.8-0.8
					c0.7-0.1,1.9,0.2,2.5,0.7l2.9,2.3c0.6,0.5,0.5,1-0.3,1.1L959.3,622.3z"/>
			</g>
		</g>
	</g>
	<g id="XMLID_4075_">
		<g id="XMLID_5530_" transform="matrix( 2.234100341796875, 0, 0, 2.234100341796875, -615.65,-92.4) ">
			<g id="XMLID_5531_">
				<g id="Layer0_160_FILL">
					<path id="XMLID_2324_" class="st27" d="M628.7,316.3l-0.1,0.3l-0.3,0.3l-0.1,0.4l-0.1,0.3l-0.3,0.3v0.4l-0.3,0.7v0.4l-0.1,0.3
						v1.1l0.1,0.3v0.4l0.3,0.5l0.1,0.4v0.1l0.1,0.1v0.1l0.1,0.1l0.1,0.3l0.9,1.1l0.5,0.3l0.3,0.3l0.4,0.1l0.3,0.1h0.3l-0.4,1.1
						l-0.3-0.1l-0.8-0.3l-0.3-0.3l-0.4-0.1l-0.3-0.3l-0.4-0.3l-0.5-0.5l-0.4-0.8l-0.3-0.3l-0.5-1.1l-0.1-0.4v-0.4l-0.1-0.4v-1.2
						l0.1-0.4v-0.5l0.4-1.2l0.3-0.3l0.3-0.4l0.1-0.4l0.3-0.3l0.3-0.4l0.5-0.5l0.4-0.3l0.3-0.3l0.4-0.3l0.4-0.1l0.1-0.3l0.4,1.1h-0.1
						l-0.3,0.3l-0.3,0.1l-0.5,0.5L629,316L628.7,316.3z"/>
				</g>
			</g>
		</g>
		<g id="XMLID_2431_" transform="matrix( 2.2337799072265625, 0, 0, 2.2337799072265625, -615.8,-92.35) ">
			<g id="XMLID_2432_">
				<g id="Layer0_160_MEMBER_12_FILL">
					<path id="XMLID_365_" class="st27" d="M629.1,311.6h0.3l0.5,1.1l-0.1,0.1l-1.2,0.8l-0.8,0.9l-0.5,0.3l-0.5,0.8l-0.3,0.5
						l-0.3,0.4L626,317l-0.3,0.5l-0.3,0.9v0.5l-0.1,0.5v1.5l0.1,0.4v0.5l0.7,1.8v0.1h0.1l0.1,0.4l0.3,0.4l0.8,0.7l0.3,0.4l1.6,1.1
						l0.9,0.3l0.3,0.1l-0.4,1.5l-0.4-0.1l-2-1.2l-0.7-0.3l-1.2-1.2l-0.9-1.3l-0.3-0.5l-0.1-0.7l-0.3-0.5l-0.1-0.5v-0.5l-0.1-0.5
						v-2.3l0.3-1.2l0.3-0.5l0.1-0.5l0.8-1.6l0.4-0.4l0.4-0.7L629.1,311.6z"/>
				</g>
			</g>
		</g>
		<g id="XMLID_2428_" transform="matrix( 2.2337799072265625, 0, 0, 2.2337799072265625, -615.8,-92.35) ">
			<g id="XMLID_2429_">
				<g id="Layer0_160_MEMBER_13_FILL">
					<path id="XMLID_363_" class="st27" d="M628.7,310.1l-2.7,1.8l-1.1,1.1l-2.4,4.3l-0.3,1.3v0.8l-0.1,0.7v0.7l0.1,0.7v0.7l0.1,0.7
						l0.4,0.8l0.1,0.5l0.5,1.2h0.1l0.3,0.5l1.2,1.6l0.5,0.4l0.4,0.5l0.5,0.4l2.6,1.2l0.5,0.1l-0.7,1.8l-0.7-0.1l-2.3-1.1l-1.2-0.8
						l-1.2-1.1l-0.4-0.5l-0.7-0.7l-1.2-2l-0.8-2.3l-0.1-0.8v-0.8l-0.1-0.7v-1.6l0.3-1.8l0.3-0.8l0.1-0.7l1.1-2.4l0.4-0.7l1.2-1.3
						l3.1-2.8l1.1-0.5L628.7,310.1z"/>
				</g>
			</g>
		</g>
		<g id="XMLID_2425_" transform="matrix( 2.2337799072265625, 0, 0, 2.2337799072265625, -615.8,-92.35) ">
			<g id="XMLID_2426_">
				<g id="Layer0_160_MEMBER_14_FILL">
					<path id="XMLID_361_" class="st28" d="M627.9,314.8l0.8-1.1l0.4-0.3l0.3-0.3l0.4-0.1l0.1-0.1l0.7,0.9l-0.1,0.3l-0.4,0.1
						l-0.4,0.3l-0.3,0.3l-0.4,0.3l-0.5,0.5l-0.3,0.4l-0.3,0.3l-0.1,0.4l-0.3,0.4l-0.3,0.3l-0.4,1.2v0.5l-0.1,0.4v1.2l0.1,0.4v0.4
						l0.1,0.4l0.1,0.3l0.1,0.7l-0.4-0.8l-0.1-0.4l-0.1-0.3l-0.4-1.2v-2.2l0.1-0.4v-0.4l0.1-0.3l0.1-0.4l0.3-0.4l0.1-0.4L627.9,314.8
						z"/>
				</g>
			</g>
		</g>
		<g id="XMLID_2419_" transform="matrix( 2.2337799072265625, 0, 0, 2.2337799072265625, -615.8,-92.35) ">
			<g id="XMLID_2420_">
				<g id="Layer0_160_MEMBER_16_FILL">
					<path id="XMLID_357_" class="st28" d="M629.3,311.6h-0.3l-2.8,2.3l-0.4,0.7l-0.4,0.4l-0.8,1.6l-0.1,0.5l-0.3,0.5l-0.3,1.2v2.3
						l0.1,0.5v0.5l0.1,0.5l0.3,0.5l0.1,0.7l0.3,0.5l-0.3-0.4l-0.5-1.2l-0.3-0.4l-0.4-1.6v-0.7l-0.1-0.5v-1.2l0.5-2.3l0.8-1.6
						l0.3-0.4l0.3-0.7l0.4-0.5l0.8-0.8l1.6-1.1l0.5-0.3l0.1-0.1L629.3,311.6z"/>
				</g>
			</g>
		</g>
		<g id="XMLID_2413_" transform="matrix( 2.2337799072265625, 0, 0, 2.2337799072265625, -615.8,-92.35) ">
			<g id="XMLID_2414_">
				<g id="Layer0_160_MEMBER_18_FILL">
					<path id="XMLID_353_" class="st28" d="M622.2,311.5l3.1-3l1.5-0.9l0.3-0.1l0.7,0.9l-1.1,0.5l-4.3,4.2l-1.5,3.1l-0.1,0.7
						l-0.3,0.8l-0.3,1.8v1.6l0.1,0.7v0.8l0.1,0.8l0.8,2.3l0.8,1.3l-1.1-1.6l-1.1-3l-0.3-1.6v-2.4l0.4-2.3l0.5-1.6L622.2,311.5z"/>
				</g>
			</g>
		</g>
	</g>
</g>
</svg>
