<?xml version="1.0" encoding="utf-8"?>
<!-- Generator: Adobe Illustrator 19.0.0, SVG Export Plug-In . SVG Version: 6.00 Build 0)  -->
<svg version="1.1" id="Capa_1" xmlns="http://www.w3.org/2000/svg" xmlns:xlink="http://www.w3.org/1999/xlink" x="0px" y="0px"
	 viewBox="0 0 60.4 92.6" style="enable-background:new 0 0 60.4 92.6;" xml:space="preserve">
<style type="text/css">
	.st0{fill:#6B6B6B;}
</style>
<g id="XMLID_1_">
	<g id="XMLID_7102_">
		<path id="XMLID_7649_" class="st0" d="M50.8,82.5c-5.3,0-9.6-4.3-9.6-9.6c0-5.3,4.3-9.6,9.6-9.6c5.3,0,9.6,4.3,9.6,9.6
			C60.4,78.2,56.1,82.5,50.8,82.5z M50.8,65.4c-4.2,0-7.6,3.4-7.6,7.6s3.4,7.6,7.6,7.6s7.6-3.4,7.6-7.6S55,65.4,50.8,65.4z"/>
		<circle id="XMLID_7103_" class="st0" cx="50.8" cy="73" r="6.2"/>
	</g>
	<g id="XMLID_9895_">
		<path id="XMLID_9875_" class="st0" d="M29.4,58.8C13.2,58.8,0,45.6,0,29.4S13.2,0,29.4,0c16.2,0,29.4,13.2,29.4,29.4
			S45.6,58.8,29.4,58.8z M29.4,3C14.8,3,3,14.8,3,29.4s11.8,26.4,26.4,26.4c14.6,0,26.4-11.8,26.4-26.4S43.9,3,29.4,3z"/>
	</g>
	<g id="XMLID_7619_">
		<polygon id="XMLID_9879_" class="st0" points="28.7,72.2 28.7,56.5 26.7,56.5 26.7,74.2 50.2,74.2 50.2,92.6 52.2,92.6 52.2,72.2 
					"/>
	</g>
</g>
</svg>
