<?xml version="1.0" encoding="utf-8"?>
<!-- Generator: Adobe Illustrator 19.0.0, SVG Export Plug-In . SVG Version: 6.00 Build 0)  -->
<svg version="1.1" id="Capa_1" xmlns="http://www.w3.org/2000/svg" xmlns:xlink="http://www.w3.org/1999/xlink" x="0px" y="0px"
	 viewBox="0 0 136.9 57.2" style="enable-background:new 0 0 136.9 57.2;" xml:space="preserve">
<style type="text/css">
	.st0{fill:#FFFFFF;}
	.st1{fill:#231F20;}
</style>
<g id="XMLID_12414_">
	<path id="XMLID_12430_" d="M128.3,35.9c0,11.8-9.5,21.3-21.3,21.3H21.3C9.5,57.2,0,47.6,0,35.9v-14C0,10.1,9.5,0.5,21.3,0.5h85.8
		c11.8,0,21.3,9.5,21.3,21.3V35.9z"/>
	<path id="XMLID_12446_" class="st0" d="M57.9,53l49.6,0c0,0,16.2-2,16.2-16.6c0-14.6,0-14.6,0-14.6S121.8,5,106.9,5
		C91.9,5,84.1,5,84.1,5S66.8,5.6,66.8,22.7v13C66.8,35.7,67.5,44.6,57.9,53z"/>
	<polygon id="XMLID_12599_" class="st0" points="45.1,14 37.1,14 34.6,30.6 31.6,14.1 24.4,14.1 21.3,30.6 19,14.1 10.8,14.1 
		17.6,42.4 24.8,42.4 27.9,24.9 31.1,42.4 38.3,42.4 	"/>
	<rect id="XMLID_12600_" x="48.5" y="21.8" class="st0" width="7.3" height="20.5"/>
	<ellipse id="XMLID_12604_" class="st0" cx="52.2" cy="16" rx="4.3" ry="3.7"/>
	<rect id="XMLID_12611_" x="105.5" y="21.8" width="7.3" height="20.5"/>
	<ellipse id="XMLID_12612_" cx="109.3" cy="16" rx="4.3" ry="3.7"/>
	<polygon id="XMLID_12613_" points="76.7,14.1 101,14.1 101,20.7 84.5,20.7 84.5,27 99.4,27 99.4,33.6 84.5,33.6 84.5,42.2 
		76.7,42.2 	"/>
	<g id="XMLID_12616_">
		<g id="XMLID_53_">
			<path id="XMLID_54_" class="st1" d="M127.5,2h-1.8V1.4h4.3V2h-1.8v5.2h-0.8V2z"/>
			<path id="XMLID_56_" class="st1" d="M135.5,4.7c0-0.8-0.1-1.8-0.1-2.5h0c-0.2,0.7-0.4,1.4-0.7,2.2l-1,2.8h-0.6l-0.9-2.8
				c-0.3-0.8-0.5-1.6-0.7-2.3h0c0,0.7-0.1,1.7-0.1,2.6l-0.2,2.5h-0.7l0.4-5.8h1l1,2.8c0.2,0.7,0.4,1.4,0.6,2h0
				c0.1-0.6,0.4-1.2,0.6-2l1-2.8h1l0.4,5.8h-0.7L135.5,4.7z"/>
		</g>
	</g>
</g>
</svg>
