<?xml version="1.0" encoding="utf-8"?>
<!-- Generator: Adobe Illustrator 19.0.0, SVG Export Plug-In . SVG Version: 6.00 Build 0)  -->
<svg version="1.1" id="Capa_1" xmlns="http://www.w3.org/2000/svg" xmlns:xlink="http://www.w3.org/1999/xlink" x="0px" y="0px"
	 viewBox="0 0 175.7 43.2" style="enable-background:new 0 0 175.7 43.2;" xml:space="preserve">
<style type="text/css">
	.st0{fill-rule:evenodd;clip-rule:evenodd;fill:#1D1D1B;}
	.st1{fill-rule:evenodd;clip-rule:evenodd;fill:#0056A3;}
	.st2{fill-rule:evenodd;clip-rule:evenodd;fill:#FFFFFF;}
</style>
<g id="XMLID_13645_">
	<path id="XMLID_15171_" class="st0" d="M38.9,36.3V6.5h8.3c2.2,0,4.4,0.2,5.8,2.2c1.2,1.6,1.4,3.3,1.4,5.4c0,2.6-0.5,5.1-3.3,6.2
		v0.1c2.9,0.4,4,3.1,4,6.9c0,1.2-0.1,2.5-0.4,3.7c-1.1,3.8-3.1,5.4-6.7,5.4H38.9L38.9,36.3z M45,18.5c1.2,0,2.9,0.1,3.7-1
		c0.5-0.8,0.6-1.8,0.6-3.2c0-2.2-0.4-3.3-2.8-3.4h-2.4v7.7H45L45,18.5z M45.2,31.9c1.1,0,2.2,0.1,3.1-0.3c1.4-0.7,1.6-2.6,1.6-4.1
		c0-3.2-0.6-4.6-3.8-4.6h-2v9H45.2L45.2,31.9z"/>
	<polygon id="XMLID_15170_" class="st0" points="57.1,6.6 61.6,6.6 61.6,36.3 57.1,36.3 57.1,6.6 	"/>
	<path id="XMLID_15169_" class="st0" d="M73.9,33L73.9,33c-0.8,2.6-2.2,3.8-4.4,3.9c-3.7,0-4.5-2.1-4.5-5.7V14.3h4.7v15
		c0,1,0,2.1,0.5,2.9c0.4,0.5,0.8,0.7,1.4,0.7c2.2,0,2.2-2.7,2.2-4.4V14.3h4.7v22h-4.5V33L73.9,33z"/>
	<path id="XMLID_15166_" class="st0" d="M81.5,21.9c-0.2-5.2,2.2-8.1,6.8-8.1c6.5,0,7.2,3.7,7.2,9.7v3h-9.4v3.2c0,2.9,1,3.4,2.4,3.4
		c1.7,0,2.2-1.4,2.2-4.1h4.7c0.2,4.9-1.7,8-6.5,8c-5.4,0-7.6-2.8-7.5-9.2V21.9L81.5,21.9z M90.9,22.4v-1.9c0-2.2-0.6-2.9-2.4-2.9
		c-2.3,0-2.2,1.9-2.2,3.9v0.9H90.9L90.9,22.4z"/>
	<path id="XMLID_15165_" class="st0" d="M107.7,36.4c-2.7,0.4-7.7,0.6-7.7-3.5V18h-2.7v-3.7h2.7v-6h4.5v6h3.2V18h-3.2v13.6
		c0.1,0.9,2.7,0.8,3.2,0.7V36.4L107.7,36.4z"/>
	<path id="XMLID_15162_" class="st0" d="M109.5,26.1c0-7.5,0.1-12.4,7.3-12.4c7,0,7.1,4.8,7.1,12.4c0,7.6-1,10.9-7.1,10.8
		C110.6,37,109.5,33.7,109.5,26.1L109.5,26.1z M114.3,29.1c0,2.7,0.2,3.9,2.5,3.9c2.2,0,2.4-1.2,2.4-3.9v-7.3c0-2.1,0-4.2-2.4-4.2
		c-2.5,0-2.5,2.1-2.5,4.2V29.1L114.3,29.1z"/>
	<path id="XMLID_14902_" class="st0" d="M126.3,26.1c0-7.5,0.1-12.4,7.2-12.4c7,0,7,4.8,7,12.4c0,7.6-1,10.9-7,10.8
		C127.3,37,126.3,33.7,126.3,26.1L126.3,26.1z M131,29.1c0,2.7,0.2,3.9,2.5,3.9c2.2,0,2.3-1.2,2.3-3.9v-7.3c0-2.1,0-4.2-2.3-4.2
		c-2.5,0-2.5,2.1-2.5,4.2V29.1L131,29.1z"/>
	<path id="XMLID_13781_" class="st0" d="M152.2,36.4c-2.7,0.4-7.7,0.6-7.7-3.5V18h-2.3v-3.7h2.2v-6h4.5v6h3.2V18H149v13.6
		c0.1,0.9,2.7,0.8,3.2,0.7V36.4L152.2,36.4z"/>
	<path id="XMLID_13650_" class="st0" d="M155.2,36.3V6.7h4.8v9.9h0.1c1.4-2.6,3.3-2.8,4.3-2.8c2.7,0,4.9,1.7,4.8,5.6v17h-4.8v-15
		c0-2.1-0.2-3.5-2-3.6c-1.8-0.1-2.4,1.7-2.4,4.1v14.6H155.2L155.2,36.3z"/>
	<polygon id="XMLID_13646_" class="st0" points="168.8,6.4 171.5,6.4 171.5,7 170.6,7 170.6,10.6 169.8,10.6 169.8,7 168.8,7 
		168.8,6.4 	"/>
	<path id="XMLID_13648_" class="st0" d="M172.8,10.6H172V6.4h1.3l0.4,2c0.1,0.3,0.1,0.6,0.2,1h0c0-0.4,0.1-0.7,0.1-1l0.4-2h1.3v4.2
		h-0.8V9.3c0-0.8,0-1.7,0.1-2.5h0l-0.9,3.8h-0.5l-0.9-3.8h0c0.1,0.8,0.1,1.7,0.1,2.5V10.6L172.8,10.6z"/>
	<path id="XMLID_13649_" class="st1" d="M15.1,0C6.9,0.2,1.3,4.6,0.5,12.4C0.3,15,0.1,17.7,0,20.3v4.3c0.1,3.9,0.6,7.4,1.8,10.2
		c2.2,5.2,6,8.3,12.9,8.5h1.1c7.5-0.2,12.4-2.3,14.9-10.9c2.5-8.6,0.7-21-1.6-25.4C26.7,2.5,23.1,0.1,16.1,0H15.1L15.1,0z"/>
	<path id="XMLID_13654_" class="st2" d="M25.6,29.1L18,21.5l7.5-7.5L14.4,3.1V18l-6.3-6.3l-2.3,2.3l7.7,7.7l-7.7,7.7l2.3,2.3
		l6.3-6.3v15L25.6,29.1L25.6,29.1z M17.4,10.2l3.8,3.9L17.4,18V10.2L17.4,10.2z M17.4,25l3.8,3.9l-3.8,3.8V25L17.4,25z"/>
</g>
</svg>
