<?xml version="1.0" encoding="utf-8"?>
<!-- Generator: Adobe Illustrator 19.0.0, SVG Export Plug-In . SVG Version: 6.00 Build 0)  -->
<svg version="1.1" id="Capa_1" xmlns="http://www.w3.org/2000/svg" xmlns:xlink="http://www.w3.org/1999/xlink" x="0px" y="0px"
	 viewBox="0 0 363.1 600" style="enable-background:new 0 0 363.1 600;" xml:space="preserve">
<style type="text/css">
	.st0{clip-path:url(#XMLID_9_);}
	.st1{fill:#E8C3AA;stroke:#E0AA86;stroke-width:0.5;stroke-miterlimit:10;}
	.st2{fill:#FFBD99;}
	.st3{fill:#EAA283;}
	.st4{fill:#F9B693;}
	.st5{fill:none;stroke:#D19879;stroke-miterlimit:10;}
	.st6{fill:#FFFFFF;}
	.st7{fill:#5098D8;}
	.st8{fill:#1D1D1B;}
	.st9{fill:#49342A;}
	.st10{fill:#5E4334;stroke:#846A5E;stroke-width:0.5;stroke-miterlimit:10;}
	.st11{fill:#1E5E82;}
	.st12{fill:#134465;}
	.st13{fill:#2F87AF;}
	.st14{fill:#0D3449;}
	.st15{fill:#514F4D;}
	.st16{fill:#2B2A29;stroke:#777777;stroke-width:0.5;stroke-miterlimit:10;}
	.st17{fill:#2B2A29;}
	.st18{fill:none;stroke:#D19879;stroke-width:0.75;stroke-miterlimit:10;}
	.st19{stroke:#333231;stroke-width:0.5;stroke-miterlimit:10;}
	.st20{fill:#353534;stroke:#1D1D1B;stroke-width:0.5;stroke-miterlimit:10;}
	.st21{fill:#262626;}
	.st22{fill:#1A1A1A;}
	.st23{fill:#3F3F3F;}
	.st24{fill:none;stroke:#727271;stroke-miterlimit:10;}
	.st25{fill:#4F2C15;}
	.st26{fill:#D6D6D6;stroke:#A0A0A0;stroke-miterlimit:10;}
</style>
<g id="XMLID_563_">
	<defs>
		<rect id="XMLID_280_" x="0" y="0" width="363.1" height="600"/>
	</defs>
	<clipPath id="XMLID_9_">
		<use xlink:href="#XMLID_280_"  style="overflow:visible;"/>
	</clipPath>
	<g id="XMLID_209_" class="st0">
		<path id="XMLID_239_" class="st1" d="M186.9,33.2"/>
		<polygon id="XMLID_238_" class="st2" points="157.1,170.6 156.1,202 174.6,258.6 227.6,202 225.4,166.2 		"/>
		<path id="XMLID_237_" class="st3" d="M225.5,191.6c0,0-19.4-5.4-64.7,22.3l-4.7-11.8l1-27.5l68.4-6.5
			C225.5,168.1,227.2,188.1,225.5,191.6z"/>
		<path id="cara_6_" class="st2" d="M241.2,92.4c-11.2,0-10.9,16.4-10.9,16.4c-3.9-12.5-3.2-26.2-3.2-26.2c3.1-33-7.4-39.3-7.4-39.3
			c-8.5-9.2-33.5-1.5-33.5-1.5l-0.5,0c0,0-25.6-6-33.4,3.8c0,0-10,7-4.6,39.7c0,0,1.6,13.6-1.4,26.4c0,0-0.8-16.4-12-15.6
			c0,0-14.8,8.4,0,29.2c0,0,2.6,1,2.7,8.4c0,0-0.3,12.8,6.9,6.4l5.2,21.2c0,0,1.8,13.2,14.2,15.4c0,0,11.2,5.6,14.6,9.2
			c0,0,3.1,7.1,12.3,7.3l0,0c0,0,0,0,0.1,0c0.2,0,0.4,0,0.6,0c10.3-0.1,13.2-8.2,13.2-8.2c3.1-3.8,13.9-10.2,13.9-10.2
			c12.2-3.1,13.1-16.3,13.1-16.3l3.7-21.5c7.6,5.9,6.4-6.9,6.4-6.9c-0.4-7.4,2.1-8.6,2.1-8.6C256.5,99.8,241.2,92.4,241.2,92.4z"/>
		<path id="Sombra_cara_7_" class="st4" d="M219.7,43.3c-0.9-0.9-1.9-1.7-3.1-2.3L200,39.1c-7.4,0.8-13.8,2.7-13.8,2.7l-0.5,0
			c0,0-25.6-6-33.4,3.8c0,0-10,7-4.6,39.7c0,0,1.6,13.6-1.4,26.4c0,0-0.8-16.4-12-15.6c0,0-14.8,8.4,0,29.2c0,0,2.6,1,2.7,8.4
			c0,0-0.3,12.8,6.9,6.4l5.2,21.2c0,0,1.8,13.2,14.2,15.4c0,0,11.2,5.6,14.6,9.2c0,0,3.1,7.1,12.3,7.3l0,0c0,0,0,0,0.1,0
			c0.2,0,0.4,0,0.6,0c10.3-0.1,13.2-8.2,13.2-8.2c-15.7,4.2-23.5-4.8-23.5-4.8c-5.1-4.3-22.1-12.2-22.1-12.2
			c-5.6-11.7-7.6-47.9-7.6-47.9c-2.3-20.2,14.6-41.2,14.6-41.2c-8.4-4.2-5.4-12.6-5.4-12.6c2.9,0,7-5.6,7-5.6
			c8-6.7,17.4,4.6,17.4,4.6c10.3-12.9,20.4-10,20.4-10c13.1-3.2,17,13.4,17,13.4l5.9,0.3C227.2,47.7,219.7,43.3,219.7,43.3z"/>
		<path id="XMLID_236_" class="st3" d="M136.7,107.3c0,0,0,8,3.4,11.1c0,0,3.8,1.2,2.8,5c0,0-0.1,15.1-4.5,0
			C138.4,123.4,134.5,115.2,136.7,107.3z"/>
		<path id="XMLID_235_" class="st3" d="M240.5,103.5c0,0,0,8-3.4,11.1c0,0-3.8,1.2-2.8,5c0,0,0.1,15.1,4.5,0
			C238.8,119.7,242.7,111.5,240.5,103.5z"/>
		<g id="XMLID_6430_">
			<path id="nariz_6_" class="st5" d="M181.3,96.3c0,0,7.2,22.9-8.3,31.2c0,0-4.3,11.5,12,13c0,0,4.8,0.5,11.2-5.3"/>
			<path id="boca_1_" class="st5" d="M160.8,145.3c0,0,12,18.6,44.7,11.2"/>
			<line id="boca1_1_" class="st5" x1="157.1" y1="146.5" x2="163" y2="144.8"/>
			<path id="boca2_1_" class="st5" d="M204.8,154.9c0,0,1,3.5,4.1,4.8"/>
			<path id="quijada_6_" class="st5" d="M175.3,162.4c0,0,13.3,6.2,25.2,0"/>
		</g>
		<g id="ojo_der_12_">
			<path id="XMLID_234_" class="st6" d="M194.3,101.7c0,0,9.6-5.6,20.9,2.4c0,0-0.2,2.2-1.4,4.6c-1.4,2.8-4.4,6-10.2,6.7
				C203.6,115.5,195.1,116.6,194.3,101.7z"/>
			<circle id="XMLID_233_" class="st7" cx="205.5" cy="104.8" r="5"/>
			<circle id="XMLID_232_" class="st8" cx="205.5" cy="105.8" r="3"/>
			<circle id="XMLID_231_" class="st6" cx="203.2" cy="104.2" r="1.5"/>
			<circle id="XMLID_230_" class="st6" cx="201.2" cy="102.5" r="0.4"/>
			<path id="XMLID_229_" class="st9" d="M192.8,100.4l0.5,2.1c0,0,8.9-5.9,24.2,2.9v-2.8C217.5,102.7,204.6,95.7,192.8,100.4z"/>
			<path id="XMLID_228_" class="st9" d="M193.6,88.6l3.1-9.4c0,0,2.7-5,8.1,1.2l10.3,10c0,0,2.6,6.2-2.3,2.7
				C212.9,93.1,199.5,83.6,193.6,88.6z"/>
		</g>
		<g id="ojo_izq_7_">
			<path id="XMLID_227_" class="st6" d="M177,101.2c0,0-9.6-5.6-20.9,2.4c0,0,0.2,2.2,1.4,4.6c1.4,2.8,4.4,6,10.2,6.7
				C167.7,114.9,176.2,116,177,101.2z"/>
			<circle id="XMLID_226_" class="st7" cx="166.9" cy="104.8" r="5"/>
			<circle id="XMLID_225_" class="st8" cx="167" cy="105.8" r="3"/>
			<circle id="XMLID_224_" class="st6" cx="164.7" cy="104.2" r="1.5"/>
			<circle id="XMLID_223_" class="st6" cx="162.7" cy="102.6" r="0.4"/>
			<path id="XMLID_222_" class="st9" d="M178.6,100l-0.5,2.3c0,0-8.7-6.3-23.6,3.1v-3C154.5,102.4,167.1,94.9,178.6,100z"/>
			<path id="XMLID_221_" class="st9" d="M176.3,92.1v-7c0,0-1.1-8-19.9,6.6c0,0-5.2,6,1.9,3C158.3,94.7,172.4,89.5,176.3,92.1z"/>
		</g>
		<path id="cabello_9_" class="st10" d="M228.2,41c-6.6-16-28.8-15.2-28.8-15.2c-9.8-7-23-8.7-23-8.7c-7.2-4.1-11.4-2.1-11.4-2.1
			c1.6,3.1,0.4,4.7-0.3,5.6C155.4,25.4,153,32,153,32c-18.9,9.6-11.4,27.6-11.4,27.6c-7.8,11.2,1.4,25,1.4,25l1,17.7
			c0.8,1.6,1.3,3.3,1.7,4.8l-1.1,8.9l2-0.7c0,0-0.1-1.7,0-4.4c0.7-3.4,1.2-6.8,1.4-9.9c1.4-5.8,4.1-12.4,9.2-18
			c0,0-10.6-11.7-6.3-22.5c0,0,4.7,1.2,16.2-4.8c0,0,13.2-2.2,17.4,4.2c0,0,3-9.4,17.7-9.6c0,0,15.3-3.8,19.3,7.2
			c0,0,5,8.4-5.2,21.3c0,0,10.6,13.6,12.8,25.2l1.2,7.4l-0.2-3.6c0.1,0.4,0.2,0.7,0.3,1.1c0,0-0.1-3.7,1-7.6c0.2-8.7,0.2-12,0.2-12
			C247,52.4,228.2,41,228.2,41z"/>
		<path id="mechon1_6_" class="st9" d="M164.7,21.7c0,0-14.3,7.5-9.5,18.9c0,0,2.3,12.8,24.4,10.8c0,0,6.2,0.5,4.8,8.4
			c0,0,2.7-5.6,0.2-10.9c0,0-18.8-8.3-14.6-16.9c0,0,4.6-13.8-5-16.9C165,15.1,167,18.4,164.7,21.7z"/>
		<path id="mechon2_6_" class="st9" d="M142.4,41.7c0,0-3.2,12.3,8.4,18.7c0,0-10.5,1.2-2.4,23.2c0,0-5.4,4.6-0.6,18.4l-1.3,8.9
			l0,4.4l-2,0.7l1.1-8.9l-1.7-4.8l-1-17.7c0,0-8.3-14-1.4-25C141.5,59.6,137.4,47.8,142.4,41.7z"/>
		<path id="mechon3_6_" class="st9" d="M176.3,17.7c0,0,13.4,1.7,23.1,8.1c0,0,14.8,10.9,3,23.6c0,0,3.4-13.8-8.1-15.8
			s-0.7-0.3-0.7-0.3S182.3,34.8,176.3,17.7z"/>
		<path id="mechon4_6_" class="st9" d="M228.2,41.7c0,0,5.7,7.1-1.5,16.4c0,0,8.7,7.9,1.8,23.7c0,0,2.7,6.8-1.3,14.5l2.7,11.4
			l1.4-6.5l0.2-12C231.6,89.2,246.2,53.8,228.2,41.7z"/>
		<path id="camisa_1_" class="st11" d="M137.5,201.9l-33.5,7.2c0,0-28,2-38.3,35.5l-24.8,109c0,0-6.8,26,15.6,40.8
			c0,0,20.4,9.2,40.7-8.8c0,0,17.2-6.4,25.6-38c0,0,3.6,34-8.4,54.7c0,0,1.2,8,18.4,14.8l50.5-6.8l76.6,10.4l13.6-10
			c0,0-3.2-8-3.2-17.2c0,0,15.6,21.3,38.7,10.9c0,0,18,3.2,22.8-40.4c0,0-16-92.3-26-120.7c0,0-5.6-26-41.1-37.1l-22.4-8.1l-2.8,21
			l-7.6-12.7l-53.2,52L156.1,218l-13,29.2L137.5,201.9z"/>
		<path id="XMLID_220_" class="st12" d="M99.2,242.3c0,0,1.6,21.3,7.2,25.4c0,0,1.2,31.3,2.8,30.7c1.6-0.5-1.6,0.5-1.6,0.5
			l15.6,45.3c0,0,8,34.5-8.8,58.1c0,0,8,11.6,18.4,14.8c0,0,42-2.9,50.5-1.8c0,0,67.2,2,75.6,6.4c0,0-86.1-23.8-97.3-31.8
			c0,0-41.3,5.3-17.4-25.9c0,0-14.5-13.1,2.3-45.6c0,0,16.5,0.3,19.3-15.1l-37-32.5C128.6,271.1,104,263.5,99.2,242.3z"/>
		<path id="XMLID_219_" class="st12" d="M246.9,344.4c0,0,0.6,6.9-5.7,10.6c0,0,17.8,23.4,31.4,30c0,0,9.2,20.6,31,10
			c0,0,17.4,6.2,28.1-29.9c0,0-4.7,40.7-23.1,38.7c0,0-16.7,13-38.3-10c0,0-20.7-14.8-39.1-40C231,353.7,237.2,351.6,246.9,344.4z"
			/>
		<polyline id="XMLID_218_" class="st12" points="156.1,219.3 175.9,253.8 157.6,226 146.2,240.2 156.1,220.2 		"/>
		<polygon id="XMLID_217_" class="st12" points="209.2,234.1 231.5,207.6 238,226 230.7,213.6 		"/>
		<path id="cuello_camisa_izq_1_" class="st13" d="M156.3,183l-19.6,12.8l6.4,51.3l13-29.2l22.4,40.6c0,0-18.8-41.8-18.5-53.4
			L156.3,183z"/>
		<path id="cuello_camisa_der_1_" class="st13" d="M226.5,184.2l13.3,5c0,0,7.6,18.8,0,40.3l-8-23c0,0-32.6,41.4-53.2,52
			c0,0,15.4-19.3,37.3-44L226.5,184.2z"/>
		<path id="XMLID_410_" class="st12" d="M47.2,353.7c0-0.3-1.3-28.4,28.3-38c0.2,0,14.6-4,23.7-4.4l0,1c-9,0.4-23.3,4.3-23.5,4.4
			c-28.8,9.4-27.6,36.7-27.6,37L47.2,353.7z"/>
		<path id="XMLID_409_" class="st12" d="M273,324l-0.9-0.4c7.9-20,8-48.7,8-48.9v-0.6l0.6,0.1c1.1,0.2,2-0.1,2.8-0.8
			c3.4-3.3,1.9-14.6,1.8-14.7l1-0.1c0.1,0.5,1.6,11.9-2.1,15.6c-0.8,0.8-1.8,1.2-3.1,1.1C281,279.3,280.3,305.3,273,324z"/>
		<path id="XMLID_461_" class="st12" d="M320,359.9c-0.2-0.4-15.8-37.5-43.8-33.6l-0.1,0l-0.1-0.1l-17.2-7.2l0.4-0.9l17,7.1
			c28.7-3.9,44.6,33.9,44.7,34.3L320,359.9z"/>
		<path id="XMLID_396_" class="st12" d="M183.7,410.5l-1,0c0.1-7.8-4.5-20.5-4.6-20.6c-2.5-6.1-0.1-13.2,0-13.5
			c2.2-12.5,2.9-60.5,2.9-61l1,0c0,0.5-0.6,48.5-2.9,61.2c0,0.1-2.4,7.2,0,12.9C179.2,390.1,183.8,402.5,183.7,410.5z"/>
		<path id="manga_izq_1_" class="st13" d="M123.1,344.4c0,0,8.2-11.6,13.6-25.8c0,0-18.2,1.2-22.4-22c0,0-10.2,1.9-15.2,15.2
			C99.2,311.8,95,339,123.1,344.4z"/>
		<path id="manga_der_1_" class="st13" d="M213.6,327.4c0,0,0.8,16.4,16.4,25.4c0,0,27.6-5,29-34.2l-14.4-16.4
			C244.6,302.2,241.6,326.8,213.6,327.4z"/>
		<path id="sombra_manga_der1_1_" class="st14" d="M213.6,322.4c0,0-1.2,3.4,0,5c0,0,5.3,0.2,9.7-1.3
			C223.3,326.1,215.4,322,213.6,322.4z"/>
		<path id="sombra_manga_der_2_1_" class="st14" d="M244.6,302.2h-3.4l1.7,6.1C242.9,308.3,244,305.4,244.6,302.2z"/>
		<path id="sombra_manga_izq_1_" class="st14" d="M128.6,317c0,0,5.8-0.8,8.1-3.1c0,0,1.4,2.9,0,4.7
			C136.7,318.6,130.8,318.1,128.6,317z"/>
		<circle id="boton1_1_" class="st12" cx="189.7" cy="396.6" r="3.4"/>
		<circle id="boton2_1_" class="st12" cx="189.2" cy="352.8" r="3.4"/>
		<path id="XMLID_216_" class="st15" d="M185.8,225.2l-3.8,11.8l-19.2,59.7c0,0-6.1,9.2,7.7,13.2l25.2,8.8c0,0,8,5.8,13.8-9.2
			l23.8-68.3c0,0,6-10.4-7.6-14.4l-27.6-8.6C198,218.2,189.4,213.8,185.8,225.2z"/>
		<circle id="XMLID_215_" class="st16" cx="194.6" cy="226" r="4.1"/>
		<path id="XMLID_214_" class="st17" d="M169.4,293.8l-1.9,5.3c-0.2,0.7,0.1,1.4,0.8,1.6l30.2,11.4c0.7,0.3,1.5-0.1,1.7-0.8l1.9-5.8
			c0.2-0.7-0.1-1.4-0.8-1.6L171.1,293C170.4,292.8,169.7,293.1,169.4,293.8z"/>
		<path id="XMLID_213_" class="st2" d="M114.6,296.4c0,0,3.3-14.4-1.1-30c0,0-1.4-0.6,4.3-5.6l10.7-10c0,0,3.9-3.5,6.8,3l4.8-4.1
			c0,0,4.4-2.9,8.2,4.3l7.2-0.8c0,0,3.7-0.1,5.3,4.7c0,0,2.2-2.6,5.4-1.6c0,0,3.9-1.1,6.7,10.5l1.8,13.4l-9.4,11.8
			c0,0-4.6,15.2-21.3,15.4l-11.8,10.4C132.2,317.8,119.4,315.9,114.6,296.4z"/>
		<path id="XMLID_212_" class="st18" d="M135.3,253.9l7,11c0,0,3.6,3.7-0.7,13.9l-4.3,12.6c0,0-2.4,2.8-5.3,0c0,0-5-2.4-2.4-8.5
			l3.3-9.2l-6.7-9.2"/>
		<path id="XMLID_211_" class="st18" d="M123.5,277.7c0,0,3.6,1.8,9.4-4"/>
		<path id="XMLID_210_" class="st18" d="M127,262.6c0,0-2.3,4.4-1.3,8.3"/>
		<path id="XMLID_240_" class="st18" d="M148.3,254.1l6.1,9.3c0,0,3,3.6,0,11.6l-3.4,9.1c0,0-1.4,2.2-4.7,0.9c0,0-3.7-0.9-2-7.7
			l1.3-7.7l-2.7-3.8"/>
		<path id="XMLID_241_" class="st18" d="M160.8,258l4.1,8.7c0,0,2.3,3-1.5,8.5l-5.7,7.9c0,0-2,2.1-4.3,0c0,0-1.1-0.8-1.4-1.6"/>
		<path id="XMLID_242_" class="st18" d="M141.9,278.1c0,0,3,16.1-4.9,24.4"/>
		<path id="XMLID_243_" class="st2" d="M219.8,326.6c0,0-12.6-9-19.7-28.2l-12.1-10l-17.6,8.9c0,0-2.3,0.3-4.1-3.5
			c0,0-2-2.6,2.1-5.7c0,0-3.3,1.6-5.3-2c0,0-1.5-3.7,2.5-6.9l6.2-5.5c0,0-2.8-2.5,0.4-4.8l12.4-5.7l-11.5-0.7c0,0-6.3,0.1-6.5-3.2
			c0,0-1.5-4.7,3.8-5.5l24.2,0.6c0,0,10.1,0,19.1,6.8c0,0,19.6,14.2,21.5,24.8l7.6,22C242.8,308,236.6,323.5,219.8,326.6z"/>
		<path id="XMLID_245_" class="st18" d="M168.4,288.1l11.9-8.5c0,0,5.9-5.3,13.1,1.3l11.3,8.5"/>
		<path id="XMLID_246_" class="st18" d="M171.7,273.7l9.3-5.3c0,0,4.3-3.7,12.5,4l11.2,8.1"/>
		<path id="XMLID_248_" class="st18" d="M185.8,263.1c0,0,4.3-3.3,11.5,1.3l16.3,9.6"/>
		<path id="XMLID_252_" class="st19" d="M61.2,832.8l-28.8,32.8c0,0-7.7,8.8-20,10.9c0,0-12.5,1.6-5.6,14.1c0,0,14.9,12.2,42.1,5.6
			c0,0,32.5-5.1,45.3-23.4c0,0,0.3-5.5,6.9-7.3c0,0,9.6-1,10.1-8.2l-3.2-19.2C108.1,838.1,76.4,823.1,61.2,832.8z"/>
		<path id="XMLID_253_" class="st20" d="M101.2,865.5c-6.7,1.8-6.9,7.3-6.9,7.3C81.5,891.1,49,896.2,49,896.2
			c-27.2,6.7-42.1-5.6-42.1-5.6l2,4.2c0,0,12.6,12.8,36.9,7.4c0,0,31.8-1.6,50.7-24c0,0-1.5-5.4,3.6-9.6c0,0,3.8,2.2,7.4,0l3.7-3.6
			v-7.7C110.8,864.5,101.2,865.5,101.2,865.5z"/>
		<path id="XMLID_254_" class="st20" d="M17.7,878.6c0,0-5-0.4-8,1.8c0,0-5.2,8.2,14.6,8.8c0,0,34.4,6,54.3-15.8
			c0,0-18.1,12.3-42.7,12.6c0,0-17.8,0.4-23.4-1.8C12.5,884.2,7.7,881.8,17.7,878.6z"/>
		<path id="XMLID_255_" class="st19" d="M226.8,827.2l31,30.7c0,0,8.3,8.2,20.7,9.5c0,0,12.6,0.7,6.6,13.7c0,0-14,13.3-41.6,8.6
			c0,0-32.8-2.7-46.8-20.2c0,0-0.7-5.5-7.4-6.8c0,0-9.6-0.3-10.7-7.4l1.8-19.4C180.4,835.9,211,818.7,226.8,827.2z"/>
		<path id="XMLID_256_" class="st20" d="M189.3,862.6c6.8,1.3,7.4,6.8,7.4,6.8c14.1,17.4,46.8,20.2,46.8,20.2
			c27.6,4.7,41.6-8.6,41.6-8.6l-1.7,4.3c0,0-11.6,13.6-36.3,10c0,0-31.8,0.7-52.3-20.3c0,0,1.2-5.5-4.3-9.3c0,0-3.6,2.5-7.4,0.5
			l-4-3.3l-0.5-7.7C179.6,862.3,189.3,862.6,189.3,862.6z"/>
		<path id="XMLID_257_" class="st20" d="M273.5,869.8c0,0,5-0.8,8.1,1.2c0,0,5.8,7.8-13.9,9.8c0,0-33.8,8.4-55.3-11.9
			c0,0,18.9,11,43.5,9.5c0,0,17.8-0.9,23.2-3.4C279,875,283.7,872.3,273.5,869.8z"/>
		<path id="XMLID_258_" class="st21" d="M131.6,429.4c0,0-12.8,27-18.2,65.9l-24,145c0,0-8.5,25.6-6.9,51.1c0,0-12.4,59.6-17.3,93.6
			c-1.4,10-9.5,26.7-6.1,35.1L57,834.9c0,0-2.2,2.4,7.4,0c0,0,22.1-2.5,44.3,7.2c0,0,3.2,5.2,5.8-19.3c0,0,0.7-6.9,3.9-7.7
			c0,0,3.7,0.8,4-15.4c0,0,7.9-25.6,9.1-40.5L164,646.4c0,0,18.4-51,19.7-66.4l1.3,118.6v38.3c0,0-1.6,18.9,2.4,27.7
			c0,0-0.2,13-3.7,22.1l-1.8,3.7c0,0-2.3,6.1-1.7,8.1c0.5,1.7,1.6,3.4,4,4.1c0,0,1.4,7.2-2.6,17.6c0,0-3.3,10.7-2.3,17
			c0,0,26-16.5,55-2.7l5.8-28.5c0,0,0.3-6.1,4.8-10.4c0,0,2.1-6.1-3.2-11.2c0,0-2.1-11.7,2.4-15.2c0,0,8.3-29.3,10.1-72.7l16-147.8
			c0,0,2.9-41,2.9-49.5c0,0-4.2-58.8-12.2-66c-8-7.2,0,0,0,0l-62.9-10.4l-63.4,4.3L131.6,429.4z"/>
		<g id="XMLID_259_">
			<path id="XMLID_261_" class="st22" d="M266.1,446.3c-1.5-6.3-3.2-11.2-5.2-12.9l-62.9-10.4l-63.4,4.3l-3.1,2.1
				c0,0-12.8,27-18.2,65.9l-24,145c0,0-8.5,25.6-6.9,51.1c0,0-12.4,59.6-17.3,93.6c-1.4,10-9.5,26.7-6.1,35.1L57,834.9
				c0,0-2.2,2.4,7.4,0c0,0,22.1-2.5,44.3,7.2c0,0,3.2,5.2,5.8-19.3c-29.8,10.4-31-2.6-31-2.6c-24,1.4-12.8-17.4-12.8-17.4l27.2-114
				c-8-20.8,5.9-47.9,5.9-47.9L128.3,499c-1.1-15.6,12.8-38.7,12.8-38.7C172,428.9,266.1,446.3,266.1,446.3L266.1,446.3z"/>
			<path id="XMLID_262_" class="st23" d="M260.4,432.9c-0.1-0.1-0.2-0.2-0.3-0.3C260.2,432.7,260.3,432.8,260.4,432.9z"/>
			<path id="XMLID_264_" class="st23" d="M260.1,432.6c-0.1-0.1-0.1-0.1-0.2-0.2C260,432.5,260,432.5,260.1,432.6z"/>
			<path id="XMLID_265_" class="st23" d="M261,433.4c-0.2-0.1-0.3-0.3-0.4-0.4C260.8,433.2,261,433.4,261,433.4z"/>
			<path id="XMLID_266_" class="st23" d="M260.5,433c0,0-0.1-0.1-0.1-0.1C260.4,432.9,260.5,433,260.5,433z"/>
			<path id="XMLID_267_" class="st23" d="M257.4,430.2C257.4,430.2,257.4,430.2,257.4,430.2L257.4,430.2z"/>
			<path id="XMLID_268_" class="st23" d="M257.9,430.6c-0.3-0.2-0.4-0.4-0.5-0.4C257.5,430.2,257.6,430.4,257.9,430.6z"/>
			<path id="XMLID_269_" class="st23" d="M258.8,431.5c-0.4-0.3-0.7-0.6-0.9-0.9C258.1,430.8,258.4,431.1,258.8,431.5z"/>
			<path id="XMLID_270_" class="st23" d="M259.9,432.4c-0.4-0.4-0.8-0.7-1.1-1C259.2,431.8,259.6,432.1,259.9,432.4z"/>
		</g>
		<path id="XMLID_271_" class="st22" d="M212.3,811.6c0,0-23.3,13.6-19.6,0c0,0,5.3-13.4,4.8-24.4l-0.5-43l-2.7-176.8l-8.1-60.2
			l-2.5,72.9l1.3,118.6v38.3c0,0-1.6,18.9,2.4,27.7c0,0-0.2,13-3.7,22.1l-1.8,3.7c0,0-2.3,6.1-1.7,8.1c0.5,1.7,1.6,3.4,4,4.1
			c0,0,1.4,7.2-2.6,17.6c0,0-3.3,10.7-2.3,17c0,0,26-16.5,55-2.7l2.7-13.3C229.7,821.4,219.9,819.7,212.3,811.6z"/>
		<path id="XMLID_272_" class="st24" d="M183.7,580"/>
		<path id="XMLID_273_" class="st22" d="M184.2,580.1l-1-0.1c2.1-22.2,3.4-76.8,3.5-77.4l1,0C187.7,503.2,186.3,557.9,184.2,580.1z"
			/>
		<path id="XMLID_274_" class="st22" d="M181.8,504.5c-0.7,0-1.1-0.1-1.1-0.1l0.2-1l-0.1,0.5l0.1-0.5c0.1,0,5.3,0.9,15.1-5.3
			l0.5,0.8C188.9,503.9,183.9,504.5,181.8,504.5z"/>
		<path id="XMLID_275_" class="st22" d="M185,484.1c-5.1-19.3-1.8-52.8-1.7-53.1l1,0.1c0,0.3-3.3,33.6,1.7,52.8L185,484.1z"/>
		<path id="XMLID_276_" class="st24" d="M59.1,820.1"/>
		<path id="XMLID_277_" class="st25" d="M132.5,419.5l-0.9,7.2c-0.1,1.2,0.9,2.3,2.1,2.2l48-3l76.1,9.5c1.9,0.2,3.5-1.4,3.3-3.3
			l-1-8.5c-0.2-1.6-1.5-2.9-3.1-3.1l-73.8-10L135,417C133.7,417.1,132.6,418.2,132.5,419.5z"/>
		<path id="XMLID_278_" class="st26" d="M165.4,409.9v14.5c0,0-1.3,4.7,6.9,4.7c0,0,14.9,0.4,23.2,1.7c0,0,9.2,3.3,10.1-2l1.3-14
			c0,0,2-4.7-3.5-4.9c0,0-24.8-5.3-33.4-0.9C170,409,165.4,407,165.4,409.9z"/>
		<path id="XMLID_279_" class="st25" d="M169.2,412.6v9.7c0,0-1.1,3.1,5.6,3.1c0,0,12.2,0.3,18.9,1.2c0,0,7.5,2.2,8.3-1.3l1.1-9.3
			c0,0,1.6-3.1-2.8-3.3c0,0-20.2-3.6-27.2-0.6C173,412,169.2,410.7,169.2,412.6z"/>
	</g>
</g>
</svg>
