<?xml version="1.0" encoding="utf-8"?>
<!-- Generator: Adobe Illustrator 19.0.0, SVG Export Plug-In . SVG Version: 6.00 Build 0)  -->
<svg version="1.1" id="Capa_1" xmlns="http://www.w3.org/2000/svg" xmlns:xlink="http://www.w3.org/1999/xlink" x="0px" y="0px"
	 viewBox="0 0 249.7 811.4" style="enable-background:new 0 0 249.7 811.4;" xml:space="preserve">
<style type="text/css">
	.st0{fill:#D8906C;stroke:#D36F37;stroke-width:0.9841;stroke-miterlimit:10;}
	.st1{fill:#FEAD78;stroke:#D36F37;stroke-width:0.9841;stroke-miterlimit:10;}
	.st2{fill:#BA0E09;stroke:#7F0A0A;stroke-width:0.937;stroke-miterlimit:10;}
	.st3{fill:#9B0D1E;}
	.st4{fill:#8C050B;}
	.st5{fill:#BF070F;stroke:#7F0A0A;stroke-miterlimit:10;}
	.st6{fill:#CE283C;}
	.st7{fill:#CE8967;stroke:#D36F37;stroke-width:0.9841;stroke-miterlimit:10;}
	.st8{fill:#E2956A;stroke:#D36F37;stroke-width:0.9841;stroke-miterlimit:10;}
	.st9{fill:#FCB48B;}
	.st10{fill:#E89669;}
	.st11{fill:#FFB68D;}
	.st12{fill:#E90D00;stroke:#8E0804;stroke-width:0.5449;stroke-miterlimit:10;}
	.st13{fill:#FEAD78;stroke:#D36F37;stroke-width:1.0168;stroke-miterlimit:10;}
	.st14{fill:#E90D00;stroke:#8E0804;stroke-width:0.563;stroke-miterlimit:10;}
	.st15{fill:#E90D00;stroke:#8E0804;stroke-width:0.585;stroke-miterlimit:10;}
	.st16{fill:none;stroke:#7F0A0A;stroke-width:0.937;stroke-miterlimit:10;}
	.st17{fill:#BF070F;}
	.st18{fill:#9B897B;stroke:#605650;stroke-width:0.937;stroke-miterlimit:10;}
	.st19{fill:none;stroke:#837167;stroke-miterlimit:10;}
	.st20{fill:#C5BAA6;}
	.st21{fill:none;stroke:#776960;stroke-width:0.937;stroke-miterlimit:10;}
	.st22{fill:#70645D;}
	.st23{fill:#AD9D92;}
	.st24{fill:#7C716C;}
	.st25{fill:#87786E;}
	.st26{fill:#7C2A04;}
	.st27{fill:#D68F6B;}
	.st28{fill:#A53D3D;}
	.st29{fill:#7F0A0A;}
	.st30{fill:#571B01;}
	.st31{fill:#FFFFFF;}
	.st32{clip-path:url(#XMLID_233_);}
	.st33{fill:#BC682A;}
	.st34{fill:#713213;}
	.st35{clip-path:url(#XMLID_234_);}
	.st36{fill:#9B3C0C;}
	.st37{fill:#E59A70;}
	.st38{fill:#FFBD99;}
	.st39{fill:none;stroke:#756850;stroke-width:0.7479;stroke-miterlimit:10;}
	.st40{fill:#A54F02;}
	.st41{fill:#913601;}
	.st42{fill:#C10C1A;}
	.st43{fill:#B20814;}
</style>
<g id="XMLID_281_">
	<g id="XMLID_878_">
		<g id="XMLID_899_">
			<path id="XMLID_916_" class="st0" d="M226.2,455.6c0.1,3.6,0.5,11.9-0.1,14.5c-0.6,2.5-7.2,8.9-8.8,10.4
				c-1.6,1.5-2.3-3.1-0.1-5.4c2.2-2.3,4.8-6.8,4.7-8c-0.1-1.2-0.4-6.1-2.3-8.3"/>
			<path id="XMLID_912_" class="st0" d="M230,459.4c-0.3,4.2,0,12.3-0.9,15.2c-0.9,2.9-9.3,9.9-11.3,11.5s-2.4-3.9,0.4-6.3
				c2.8-2.5,6.3-7.5,6.3-9s0-7.2-1.9-10"/>
			<path id="XMLID_908_" class="st0" d="M232.7,463c-0.5,4.2-1,15.1-2.1,17.9s-9.9,9.2-12.1,10.7c-2.2,1.5-2.1-4,0.8-6.3
				c3-2.3,6.8-7.1,6.9-8.5c0.1-1.5,0.5-7.2-1.2-10.1"/>
			<path id="XMLID_904_" class="st1" d="M223.2,434.6c0,0,2.2,11.7,5.8,16.1c3.5,4.4,6.4,8.1,6.3,12.3s0.6,18-0.2,21
				s-9,10.1-11,11.8c-2,1.7-2.5-3.8,0.2-6.3c2.7-2.5,6.1-7.7,6-9.1s-0.2-7.2-2.2-10c-2-2.7-5.3-5.4-8.9-7.3
				c-3.6-1.9-12.5-4.7-12.4-12.1c0.1-7.4,2.6-8.1,1-13.2S223.2,434.6,223.2,434.6z"/>
			<path id="XMLID_900_" class="st1" d="M208.8,438.3c0,0-0.6,5.8-2.3,9.1c-1.7,3.3,1.2,8,0.8,11.7c-0.6,5.6-2.1,6.8-5.2,11.6
				c-1.9,3,4.4,2.9,6.7,0.3c2.7-2.9,4.8-6.8,5-9.2s4.9,1,4.9,1"/>
		</g>
		<path id="XMLID_898_" class="st2" d="M203.2,421.3c0,0,3.1,14.9,4.2,16.6s16.2,0.2,16-2.3s-1.1-18.2-1.1-18.2L203.2,421.3z"/>
		<path id="XMLID_895_" class="st3" d="M223.5,435.6c-0.2-2.5-1.1-18.2-1.1-18.2l-5.5,1.1c1.5,0.4,0.8,3.1,2.7,3.1
			c-0.9,5.5-1.8,11.1,0.8,15.9C222.3,437,223.5,436.3,223.5,435.6z"/>
		<path id="XMLID_892_" class="st4" d="M203.2,421.3c0,0,3.1,14.9,4.2,16.6l2.5,0.7c1.9-5.6-4.7-11.8-2.9-18.1L203.2,421.3z"/>
		<path id="XMLID_888_" class="st5" d="M161.4,186.2c0,0,37.3,7.2,36,14.4c-1.3,7.2,0.1,11.9,0.7,15.7c1.3,9.2,9.2,64.7,10.5,95.4
			c1.3,30.7,10.5,31.4,11.1,48.4c0.7,17,2,52.3,3.9,58.8c2,6.5-17.1,6.9-20.3,5.9c-3.1-1-7.2-32-15.7-46.4s-7.2-40.5-10.5-52.9
			c-3.3-12.4-13.1-45.1-12.4-64.1"/>
		<path id="XMLID_885_" class="st4" d="M189.3,357.7c-9.4-25.1-8.4-50.2-13.6-77.4c-3.1-13.6-4.2-29.3,8.4-38.7
			c-6.5,4.6-15.5,4.3-20.3-1.7l0.9,21.4c-0.7,19,9.2,51.6,12.4,64.1c3.3,12.4,2,38.6,10.5,52.9c8.5,14.4,12.6,45.4,15.7,46.4
			c0.7,0.2,2.1,0.4,3.9,0.4c0.2-4.3-0.7-8.7-2.1-13C200.8,393.3,195.6,375.5,189.3,357.7z"/>
		<path id="XMLID_882_" class="st3" d="M191.4,201.8c2.1,1-1,4.2-4.2,5.2c3.1,5.2,6.3,11.5,7.3,17.8c10.5,45-3.1,90,18.8,131.9
			c10.9,19.9-4.9,46.9,4.9,67.3c3.5-1,6-2.6,5.2-5.2c-2-6.5-3.3-41.8-3.9-58.8c-0.7-17-9.8-17.6-11.1-48.4
			c-1.3-30.7-9.2-86.3-10.5-95.4c-0.5-3.8-2-8.5-0.7-15.7L191.4,201.8z"/>
		<path id="XMLID_879_" class="st6" d="M197.3,200.5c1.3-7.2-36-14.4-36-14.4l0.2,4c10.2,3.7,20.8,5.4,29.8,11.7"/>
	</g>
	<g id="XMLID_833_">
		<g id="XMLID_852_">
			<g id="XMLID_857_">
				<path id="XMLID_874_" class="st7" d="M12,431.7c-0.4,3.6-1.6,11.8-1.3,14.4s6.3,9.5,7.8,11.2c1.5,1.7,2.6-2.9,0.6-5.3
					s-4.2-7.2-3.9-8.4c0.2-1.2,1-6,3-8.1"/>
				<path id="XMLID_870_" class="st0" d="M7.9,435.1c-0.1,4.2-1.2,12.2-0.6,15.2s8.3,10.7,10.2,12.5s2.8-3.6,0.2-6.3
					c-2.6-2.7-5.6-8.1-5.4-9.5s0.7-7.2,2.9-9.8"/>
				<path id="XMLID_866_" class="st8" d="M4.9,438.4c0.1,4.2-0.4,15.1,0.4,18.1s9,10.1,11,11.8c2,1.7,2.5-3.8-0.2-6.3
					s-6.1-7.7-6-9.2c0.1-1.5,0.2-7.2,2.2-10"/>
				<path id="XMLID_862_" class="st1" d="M17,411c0,0-3.3,11.5-7.3,15.5s-7.2,7.4-7.4,11.6S0.1,456,0.6,459.1c0.5,3,8,10.9,9.8,12.8
					s2.9-3.5,0.4-6.3s-5.3-8.2-5.1-9.7c0.2-1.4,0.8-7.2,3.1-9.7c2.3-2.5,5.8-4.8,9.6-6.4s12.9-3.5,13.5-10.9
					c0.6-7.4-1.8-8.3,0.3-13.2C34.2,410.7,17,411,17,411z"/>
				<path id="XMLID_858_" class="st1" d="M31,416.1c0,0,0,5.8,1.4,9.3c1.4,3.4-1.9,7.8-1.9,11.5c0,5.6,1.5,7,4.1,12.1
					c1.6,3.2-4.6,2.5-6.7-0.3c-2.4-3.1-4.1-7.2-4.1-9.7c0-2.5-5,0.5-5,0.5"/>
			</g>
			<g id="XMLID_853_">
				<path id="XMLID_854_" class="st9" d="M17.7,419.5c0.9-1.9,1-5.5,1-8.4c-1,0-1.7,0-1.7,0s-3.3,11.5-7.3,15.5
					c-3.9,4-7.2,7.4-7.4,11.6c-0.3,4.2-2.3,17.9-1.8,20.9c0.1,0.4,0.3,1,0.6,1.6C1.1,445.5,7.2,431.7,17.7,419.5z"/>
			</g>
		</g>
		<g id="XMLID_844_">
			<path id="XMLID_851_" class="st2" d="M16,412.7c0,0,2.7,5.9,9.3,6.1c6.6,0.2,7.5,0,8.7-1.6c1.2-1.6,1.8-8.5,1.8-8.5L19.1,402
				C19.1,402,15.5,409.9,16,412.7z"/>
			<path id="XMLID_848_" class="st6" d="M20.5,402.5l-1.4-0.6c0,0-3.7,7.9-3.1,10.7c0,0,2,4.4,6.9,5.7
				C18.5,414.1,16.8,408.6,20.5,402.5z"/>
			<path id="XMLID_845_" class="st4" d="M31.4,406.9c0.2,4.8-0.6,8.6-2.6,11.9c3.4,0,4.1-0.4,5.1-1.7c1.2-1.6,1.8-8.5,1.8-8.5
				L31.4,406.9z"/>
		</g>
		<path id="XMLID_840_" class="st5" d="M100.1,186.9c0,0-23.8,5.5-33.3,5s-17.2,9.4-16.1,15.5s0.6,33.8-1.7,45.5
			c-2.2,11.6,0.3,41-5.8,57.7s-18,59.9-24.1,91.5c0,0,1.1,6.1,7.8,8.3c6.7,2.2,8.9-1.7,8.9-1.7s12.8-34.9,23.3-52.7
			c6.8-11.5,6.7-24.4,10-39.9c5-23.8,16.1-67.1,13.3-85.9"/>
		<path id="XMLID_837_" class="st4" d="M73.5,228.3c7.3,6.3,9.1,10.1,5.9,21.6c-9.4,30.3-13.6,59.6-19.9,92.1
			c-1,5.2-6.3,10.5-8.4,15.7c-8.6,17.9-13,35.3-19.6,52.9c2,0.3,4.2-2,4.2-2s12.8-34.9,23.3-52.7c6.8-11.5,6.7-24.4,10-39.9
			c5-23.8,16.1-67.1,13.3-85.9l2-4.9C79.3,223.2,78.5,225,73.5,228.3z"/>
		<path id="XMLID_834_" class="st6" d="M66.8,191.8c-9.4-0.6-17.2,9.4-16.1,15.5c1.1,6.1,0.6,33.8-1.7,45.5
			c-2.2,11.6,0.3,41-5.8,57.7c-6.1,16.6-18,59.9-24.1,91.5c0,0,0.5,0.6,1.4,2.2c9.6-27.8,15-55.5,23.3-85.1
			c2.1-5.2,6.3-10.5,7.3-15.7c8.4-32.4-3.1-63.8,4.2-97.3c0-2.1,1-5.2,3.1-6.3c13.9-1.9,26.2-5.3,39.7-8.3l1.9-4.6
			C100.1,186.9,76.2,192.4,66.8,191.8z"/>
	</g>
	<g id="XMLID_820_">
		<path id="XMLID_829_" class="st1" d="M116.1,732.1c0,0,8.8,22.6,2,32.4c-6.9,9.8-20.1,29.4-26.5,32.8c-6.4,3.4-2.5,9.3,7.8,8.3
			s14.2,4.4,24.5-10.3s13.7-17.2,18.1-21.1c4.4-3.9,8.3-6.9,3.4-16.2c-4.9-9.3-5.9-19.6-7.4-25.5
			C136.7,726.7,116.1,732.1,116.1,732.1z"/>
		<path id="XMLID_826_" class="st10" d="M145.5,758.1c-4.9-9.3-5.9-19.6-7.4-25.5c-0.3-1.3-1.6-2.1-3.5-2.4
			c-0.4,14.6,6.1,27.9,9.9,41.8C147.7,768.9,149.4,765.5,145.5,758.1z"/>
		<path id="XMLID_823_" class="st11" d="M112.9,782.6c4.2-6.3,7.3-12.6,10.5-17.8c5.8-10.6,1.8-23.1-1.3-34
			c-3.4,0.6-5.9,1.3-5.9,1.3s8.8,22.6,2,32.4c-6.9,9.8-20.1,29.4-26.5,32.8c-4.1,2.2-3.9,5.4-0.5,7.2c2-2.8,3.7-5.9,6.1-8.3
			C101.4,791,108.7,787.8,112.9,782.6z"/>
		<path id="XMLID_822_" class="st12" d="M146.2,794.6c0.7,2.2-1.7,3.1-5.7,2c-4-1.1-4.6-3.4-4.6-3.4l0.3-16.5l13.1-5.1
			C149.2,771.5,143,784.9,146.2,794.6z"/>
		<path id="XMLID_821_" class="st12" d="M143.7,754.2c-2.2,1.5-11.4,13.8-15.2,27.2c-3.7,13.3-14.4,15.8-17.7,16.1
			c-3.3,0.3-9.3-5.2-14.8-5.3c-5.5-0.1-10.3,5.2-12.2,8.1c-1.9,2.8-0.2,6.9,0.9,8c1,1,23.7,4.8,32.6-0.4s13.2-18.8,18.4-22.9
			s12.8-6.6,13.5-13.5S146.9,752,143.7,754.2z"/>
	</g>
	<g id="XMLID_807_">
		<path id="XMLID_816_" class="st13" d="M213.3,730.1c0,0,3.6,22.2,9,33.3c5.3,10.8,8.3,22.7,14.2,27.4c3.8,3,9,5.6,7.3,7.9
			c-6.3,8.6-23.3,8.4-27.1,0.5c-5.4-11.1-7.2-17.8-12.5-20.8s-9.9-5.1-7-15.6c2.9-10.5-6.4-21.1-6.2-27.3
			C191.3,729.1,213.3,730.1,213.3,730.1z"/>
		<path id="XMLID_813_" class="st10" d="M194.6,731.9c-2,0.8-3.4,1.9-3.5,3.4c-0.2,6.3,9.1,16.9,6.2,27.3c-2.3,8.2,0,11.2,3.6,13.6
			C204,760.9,203.3,745.2,194.6,731.9z"/>
		<path id="XMLID_810_" class="st11" d="M242.2,800.3c0.6-0.5,1.1-1.1,1.6-1.8c1.6-2.2-3.5-4.8-7.3-7.9c-5.8-4.7-8.9-16.6-14.2-27.4
			c-5.4-11.1-9-33.3-9-33.3s-1.6-0.1-3.9-0.1C214.9,755.4,217.4,788.1,242.2,800.3z"/>
		<path id="XMLID_809_" class="st14" d="M197.2,793.8c-0.9,2.2,1.6,3.3,5.7,2.4s4.9-3.2,4.9-3.2l-1.2-17.1l-12-2.2
			C194.7,773.7,201.1,784,197.2,793.8z"/>
		<path id="XMLID_808_" class="st15" d="M197.5,756.3c2.7-0.8,3,4.6,9.4,18c3,9.1,8.9,20.3,19,23.6c3.5,0.5,10.9-6.3,16.4-4.3
			c3.2,1.2,7.4,7.8,7.1,11.4c-0.3,3.7-3.4,4.3-4.8,4.9c-1.4,0.6-15.2,3.5-24.4-2.7s-9.8-20-15-24.7c-5.3-4.7-9.7-4.9-11.4-12.2
			C192.6,766.1,193.2,757.5,197.5,756.3z"/>
	</g>
	<path id="XMLID_806_" class="st16" d="M102,327.2c0,0-5-4.2-3.1-11.2c1.9-6.9,1.2-9.6-1.2-15c-2.3-5.4,4.6-9.6,0.8-16.2
		c-3.9-6.6-8.9-20-6.6-28.9c2.3-8.9,17-25.8,18.5-34.3"/>
	<g id="XMLID_794_">
		<path id="XMLID_803_" class="st17" d="M126.2,181.4c0,0-24.8,5.1-30.4,7.7c-5.6,2.6-12.3,22.1-15.8,33.2s98,7.4,101.2,2.6
			s6.3-28.1-4.2-33C166.6,187,140.8,180.7,126.2,181.4z"/>
		<path id="XMLID_799_" class="st5" d="M167.3,218.6c-2.4,10.8,7,23.5,5.1,37.7c-1.9,14.3-12,20.1-13.6,26.3s-0.7,25.3-0.7,29.6
			s-3.4,7-15.1,11.6c-11.7,4.6-31.6,2.3-36.2,3.5s-2.7-1.9-6.6-0.5s-23.5-1.1-26.2-4.5c-2.7-3.5,1.2-11.6,3.5-18.5
			c2.3-6.9,3.5-21.6-7.7-30.8s-13.1-22.3-5.4-37c7.7-14.6,20-20,20-27"/>
		<path id="XMLID_796_" class="st4" d="M171.7,259.9c-5.8,8.4-14.2,14.9-24.2,16.3c-29.3,5-70.2,10.1-87.2-18.7
			c1.1,5.8,4.3,11,9.6,15.4c11.2,9.2,10,23.9,7.7,30.8c-2.2,6.7-5.9,14.5-3.7,18.1c9.1-10.5,13.4-23.6,7.7-39.4
			c18.8,13.6,52.3-8.4,68,5.2c11.3,10.4,1.4,28.4-13.7,38c2.6-0.4,5.1-1.1,7.2-1.9c11.7-4.6,15.1-7.3,15.1-11.6s-0.9-23.4,0.7-29.6
			C160.2,277,168.7,271.6,171.7,259.9z"/>
		<path id="XMLID_795_" class="st16" d="M102,327.2c0,0-5-4.2-3.1-11.2c1.9-6.9,1.2-9.6-1.2-15c-2.3-5.4,4.6-9.6,0.8-16.2
			c-3.9-6.6-8.9-20-6.6-28.9c2.3-8.9,17-25.8,18.5-34.3"/>
	</g>
	<g id="XMLID_734_">
		<path id="XMLID_790_" class="st18" d="M74.9,321.8c-1.4,27.8-27,44.8-24.9,105.4s32.7,122.4,37.7,163c5,40.6,5,64.8,13.5,89.7
			s12.3,50,13,59.1c0.8,9.1,10.3,8.9,19.3,9.4s8.9-1.4,10.8-3.1c1.9-1.7,2.4-44.7,0-58.7s-6.4-51-5.6-61.8
			c0.7-10.8-1.7-35.3-5.4-56.6c-3.7-21.3-6.4-68.1-6.6-89.2c-0.2-21.1-5.9-59.6-5.9-59.6L98,326.7L74.9,321.8z"/>
		<path id="XMLID_787_" class="st19" d="M85.5,415.9c7.8,3.9,25.4,7.1,33.6,3.4c0,0-5.4,11.6-33.4,20.3"/>
		<path id="XMLID_784_" class="st20" d="M121.3,422.7c0.1,0.8,0.2,1.7,0.4,2.6c0-0.4-0.1-0.9-0.1-1.3
			C121.5,424.1,121.4,423.6,121.3,422.7z"/>
		<path id="XMLID_780_" class="st18" d="M119.2,415.5c1.6,4.5,2.3,8.6,2.3,8.6c2.6,32.7,9.8,77.1,16.3,98c6.5,20.9,19,53.6,20.3,83
			c1.3,29.4,6.5,51.6,13.7,70.6c7.2,19,14.4,52.9,20.9,66.7c4.3,9,24.7,2,22.8-6.9c0,0-0.5-1.6-5.1-24.5
			c-4.6-22.9-4.6-110.5-11.8-141.8c-7.2-31.4-9.8-49-8.5-120.3c1.2-63.3-22.5-94.1-32.8-120.4l-0.5-1.3c-1.1-2.8-2-5.6-2.7-8.4
			c-0.1,0.1-0.3,0.3-0.4,0.4l0-0.1c-12,9.1-49.5,8.6-54.4,7.6c-4.9-1-5.9-0.7-7.2,2.6c-1.3,3.3-0.7,5.9-2,12.1c-1,4.9,3.5,7,9.2,7.8
			c-0.1,1.5,0,2.4,0,2.4s0,0-1.3,13.7s5.2,36,13.1,39.2"/>
		<path id="XMLID_777_" class="st19" d="M165.7,428.1c-14.2,2.8-34.8-0.7-44.8-9.1c0,0,29.9,2.1,41.3-6.5"/>
		<path id="XMLID_774_" class="st21" d="M159.4,333.4c-2.2-5-4-9.8-5.2-14.6c-19.3,12.1-56.2,7.8-56.2,7.8l-23.1-4.9
			c-0.3,5.7-1.6,10.9-3.5,16.2C84.1,349.4,111.6,357.5,159.4,333.4z"/>
		<circle id="XMLID_771_" class="st22" cx="96.3" cy="342.8" r="2.5"/>
		<circle id="XMLID_768_" class="st22" cx="97.3" cy="333" r="2.5"/>
		<path id="XMLID_765_" class="st23" d="M121.3,729.2c-8.4-42.9-39.8-106.7-18.8-127.7c0-2.1,2.1-4.2,0-7.3
			c-3.1-5.2-6.3-10.5-7.3-15.7c-11.5-47.1-30.3-86.9-39.8-133.9c-6.3-35.6,1-71.2,22-101.5c2.9-4.9,1.3-13.5,1.1-20.5l-3.5-0.7
			c-1.4,27.8-27,44.8-24.9,105.4c2.1,60.5,32.7,122.4,37.7,163c5,40.6,5,64.8,13.5,89.7s12.3,50,13,59.1c0.4,4.8,3.2,7,7,8.1
			C122.5,741.9,122.6,736,121.3,729.2z"/>
		<path id="XMLID_762_" class="st24" d="M143.3,686.5c-2.5-14-6.4-51-5.6-61.8c0.7-10.8-1.7-35.3-5.4-56.6
			c-3.7-21.3-6.4-68.1-6.6-89.2c-0.2-21.1-3.9-50.5-5.9-59.6c-4.4,10-15.2,17.7-30.9,22.1c10.5,0.6,18.8-4,28.3-11.5
			c-1,16.7-4.2,32.4-1,50.2c9.4,59.6,14.7,116.2,17.8,174.8v-1c3.7,30.4,8.5,63.5,4.6,94.3c3.2-0.5,3.6-1.8,4.9-3
			C145.2,743.6,145.7,700.5,143.3,686.5z"/>
		<path id="XMLID_759_" class="st20" d="M121.3,422.7c0.1,0.8,0.2,1.7,0.4,2.6c0-0.4-0.1-0.9-0.1-1.3
			C121.5,424.1,121.4,423.6,121.3,422.7z"/>
		<path id="XMLID_756_" class="st24" d="M108.2,400.7c-5.2-13.6-5.9-38.7-1.7-52.3c-2.7,0-4.9,0.9-7.3,1.2c0,1.2,0,2,0,2
			s0,0-1.3,13.7c-1.3,13.5,5,35.1,12.6,39C109.6,403.3,108.8,402.1,108.2,400.7z"/>
		<path id="XMLID_753_" class="st24" d="M193.3,735.5c-13.6-48.1-33.5-94.2-32.4-145.5c0-9.4-4.2-17.8-7.3-27.2
			c-18.8-45-25.1-94.2-28.3-143.4c0-2.6-0.5-4.5-1.4-5.9c-1-0.1-2-0.3-3-0.4c-0.8,0.6-1.6,1.1-2.4,1.5l0.6,0.8
			c1.6,4.5,2.3,8.6,2.3,8.6c2.6,32.7,9.8,77.1,16.3,98c6.5,20.9,19,53.6,20.3,83c1.3,29.4,6.5,51.6,13.7,70.6
			c7.2,19,14.4,52.9,20.9,66.7c0.8,1.6,2,2.7,3.6,3.3C195.4,742.3,194.4,738.9,193.3,735.5z"/>
		<path id="XMLID_750_" class="st24" d="M215.5,735.5c0,0-0.5-1.6-5.1-24.5c-4.6-22.9-4.6-110.5-11.8-141.8
			c-7.2-31.4-9.8-49-8.5-120.3c1.2-63.3-22.5-94.1-32.8-120.4l-0.5-1.3c-0.7-1.8-1.3-3.5-1.8-5.2c-1,1.4-2.4,2.5-4,3.5
			c5.9,15.2,9.4,30.9,17.3,45.9c27.2,53.4,10.5,112,15.7,169.5c1,9.4,4.2,16.7,7.3,25.1c3.1,9.4,6.3,19.9,7.3,30.3
			c1,46-2.1,92.1,11.5,137.1c0.7,2.8,1.9,5.6,2.9,8.5C215,740.1,216,737.9,215.5,735.5z"/>
		<path id="XMLID_747_" class="st25" d="M154.2,318.8c-0.1,0.1-0.3,0.3-0.4,0.4l0-0.1c-1.2,0.9-2.6,1.7-4.3,2.4
			c-14.8,6.6-45.8,6.1-50.2,5.2c-4.9-1-5.9-0.7-7.2,2.6c-1.3,3.3-0.7,5.9-2,12.1c-0.1,0.3-0.1,0.6-0.1,0.8c0.3-0.4,0.6-0.8,0.9-1.2
			c2.1-3.1,0-9.4,1-9.4c11.5-4.2,23,3.1,35.6,0c7.1-1.4,17.2-2.4,23.5-6.1c1.6-1,3-2.1,4-3.5C154.8,320.9,154.5,319.9,154.2,318.8z"
			/>
		<circle id="XMLID_744_" class="st22" cx="96.3" cy="342.8" r="2.5"/>
		<circle id="XMLID_741_" class="st22" cx="97.3" cy="333" r="2.5"/>
		<path id="XMLID_738_" class="st19" d="M85.5,415.9c7.8,3.9,25.4,7.1,33.6,3.4c0,0-5.4,11.6-33.4,20.3"/>
		<path id="XMLID_735_" class="st19" d="M165.7,428.1c-14.2,2.8-34.8-0.7-44.8-9.1c0,0,29.9,2.1,41.3-6.5"/>
	</g>
	<path id="XMLID_731_" class="st26" d="M149.9,182.6c0,0,23-1,23.5-10.8c0.5-9.8-11.8-17.2-6.9-17.2c4.9,0,13.7,1,11.3-8.3
		s-16.7-12.7-1-17.6s38.7-2.9,37.3-41.2C213.3,66,185.6,3.4,145,2.9c-41.2-0.5-33.8,12.7-45.6,21.6S75.3,36.6,86.7,62.4
		c14.1,31.9-1,69.7,3.9,79.5c4.9,9.8,13.2,8.3,7.8,22.1c-5.4,13.7,7.4,27.9,16.7,21.1S149.9,182.6,149.9,182.6z"/>
	<path id="XMLID_727_" class="st1" d="M109.7,148c0,0,6.7,21.1-0.7,36.2c-9.5,19.2-2.8,14.9-1.4,23.2s2.8,14.2,2.8,14.2
		s13.4-21.4,18.1-24.6c4.6-3.3,18.1-18.8,18.1-18.8c-9.2-9.2-8.5-21.8-0.9-36.7L109.7,148z"/>
	<path id="XMLID_724_" class="st27" d="M119.3,165.2c3.8,0.2,13.4-6.3,22.8-15.4c0.9-2.7,2.1-5.5,3.6-8.3l-36,6.5
		c0,0,1.6,4.9,2.4,11.7C114.7,163,117.1,165.1,119.3,165.2z"/>
	<path id="XMLID_721_" class="st26" d="M100.4,27.9c0,0-14.2-0.7-19.4,15.2s2.7,32.4,11,35.5C100.4,81.8,100.4,27.9,100.4,27.9z"/>
	<path id="XMLID_717_" class="st1" d="M131.3,21.8c-26.8,0-43.6,9.3-42.4,30.4S96,74,91.6,87c-4.4,13-7.4,19.7-1.2,33.8
		c10.4,24.1,21.3,37.7,28.9,38.2c7.6,0.5,39.2-20.6,44.4-40.4s12.7-50.2,7.4-67.9C165.6,33,157.3,21.8,131.3,21.8z"/>
	<path id="XMLID_713_" class="st1" d="M114.6,83.9c0.4,4.2,0.2,18.1-6.5,22.6c-6.6,4.4,0.2,6,3.8,6.4c3.7,0.4,9.5-0.2,10.8-1.5"/>
	<path id="XMLID_712_" class="st28" d="M117,133.5c-3.5-0.2-8.9-3.2-9.2-6.1l19.4-0.4C127.1,127.1,125.3,133.9,117,133.5z"/>
	<path id="XMLID_711_" class="st29" d="M129.5,126c0.5-0.1-1.5,3.1-13.8,2.5c-12.4-0.6-12.1-3.1-12.1-3.1s2.9,0.9,5.3-0.4
		c2.3-1.3,5.7-1.2,9.7-0.6C122.7,124.9,125.4,126.9,129.5,126z"/>
	<g id="XMLID_687_">
		<path id="XMLID_708_" class="st30" d="M151,90c0,0-3.5-7.2-10.2-6.2c-6.7,1-11.6,6.8-11.4,7.6s1.8,4,10.8,3.2S150.3,91.4,151,90z"
			/>
		<path id="XMLID_707_" class="st31" d="M151,90c0,0-5-4.4-11.7-3.3c-6.7,1-10,3.9-9.8,4.8s1.8,4,10.8,3.2S150.3,91.4,151,90z"/>
		<g id="XMLID_692_">
			<defs>
				<path id="XMLID_698_" d="M151,90c0,0-5-4.4-11.7-3.3c-6.7,1-10,3.9-9.8,4.8s1.8,4,10.8,3.2S150.3,91.4,151,90z"/>
			</defs>
			<clipPath id="XMLID_233_">
				<use xlink:href="#XMLID_698_"  style="overflow:visible;"/>
			</clipPath>
			<g id="XMLID_699_" class="st32">
				<circle id="XMLID_704_" class="st33" cx="142.4" cy="90" r="5.9"/>
				<circle id="XMLID_701_" class="st34" cx="142.4" cy="90" r="3.2"/>
				<circle id="XMLID_700_" class="st31" cx="145" cy="88.7" r="1.4"/>
			</g>
		</g>
	</g>
	<g id="XMLID_670_">
		<path id="XMLID_682_" class="st30" d="M92.1,89.1c0,0,3.2-6.7,9.4-5.7c6.2,1,10.7,6.3,10.5,7s-1.7,3.7-10,3S92.7,90.4,92.1,89.1z"
			/>
		<path id="XMLID_681_" class="st31" d="M92.1,89.1c0,0,4.6-4,10.8-3.1c6.2,1,9.3,3.6,9.1,4.4s-1.7,3.7-10,3S92.7,90.4,92.1,89.1z"
			/>
		<g id="XMLID_671_">
			<defs>
				<path id="XMLID_672_" d="M92.1,89.1c0,0,4.6-4,10.8-3.1c6.2,1,9.3,3.6,9.1,4.4s-1.7,3.7-10,3S92.7,90.4,92.1,89.1z"/>
			</defs>
			<clipPath id="XMLID_234_">
				<use xlink:href="#XMLID_672_"  style="overflow:visible;"/>
			</clipPath>
			<g id="XMLID_673_" class="st35">
				<circle id="XMLID_678_" class="st33" cx="104.3" cy="89.1" r="5.5"/>
				<circle id="XMLID_675_" class="st34" cx="104.3" cy="89.1" r="3"/>
				<circle id="XMLID_674_" class="st31" cx="106.7" cy="87.9" r="1.3"/>
			</g>
		</g>
	</g>
	<path id="XMLID_667_" class="st36" d="M156.2,78.3c-1.1-1.6-4.6-6.1-10.5-5.6c-5.8,0.6-11.2,2.2-11.3,4.1s3,0.9,6.6,0
		c3.6-0.9,9.2-1.7,11.5-0.2S157.3,79.9,156.2,78.3z"/>
	<path id="XMLID_663_" class="st37" d="M163.3,117.1c-5.1,19.9-40.5,43.3-48,39.6c-0.5-0.2-1.1-0.1-1.7-0.3c2,1.4,3.9,2.2,5.6,2.3
		c7.6,0.5,39.2-20.6,44.4-40.4L163.3,117.1z"/>
	<path id="XMLID_660_" class="st37" d="M129.4,39.2c-4.9,3.9-5.9-2.9-8.8-3.9c-15.9-4.7-26.4,12.8-29.9,27.2
		c4.3-3.2,8.3-8.1,8.3-8.1L109.5,43c4-1.3,8.3-1,9.6,1.1c3.3,5.5,10.8,7.4,20.6-0.5c9.8-7.8,15.2,1.7,12.3,11.5
		c-2.9,9.8-0.5,12.5,5.4,13.5c5.9,1,12.7,16.9,9.8,22.8c-2.9,5.9-1,11.3-1,11.3s2.3-10,8.1-16.1c-1.8-18.7-12.1-25.7-16.4-43.4
		C153.9,30.4,140.1,31.4,129.4,39.2z"/>
	<path id="XMLID_657_" class="st38" d="M94.1,122.8c-10-24.3-2.8-23.4-0.5-38.1c2.1-13.6,0.3-9.4-0.9-30.5c-0.2-3.5,0.1-6.7,0.9-9.5
		c-1.4,1-2.9,1.7-4.7,2.1c-0.2,1.7-0.2,3.5-0.1,5.5C89.9,73.2,95.8,74,91.4,87c-4.4,13-7.4,19.7-1.2,33.8
		c9.7,22.3,19.7,35.7,27.2,37.9C110.4,153.9,101.9,141.6,94.1,122.8z"/>
	<g id="XMLID_653_">
		<path id="XMLID_656_" class="st39" d="M110.1,95.2c-8.2,0.2-15.6-0.8-22.3-3c-0.9-0.1-1.5-1-1.4-2c-0.1-2.3,0.1-4.9,0.5-8
			c0.1-1.1,0.9-1.9,1.8-1.9c7.6-0.3,15.4,0.1,23.3,1.3c0.9,0.1,1.6,1,1.6,2.1c0.1,2.9-0.7,5.9-1.4,9.6
			C111.9,94.5,111,95.3,110.1,95.2z"/>
		<path id="XMLID_655_" class="st39" d="M127,96.3c8.1,1.1,20.2,2.2,27.1,0.8c0.9,0,1.6-0.8,1.7-1.9c0.3-2.3,0.6-6.9,0.6-9.9
			c0.1-1.1-0.6-2-1.6-2.1c-7.5-1.1-19.9-0.9-27.9-0.6c-0.9-0.1-1.7,0.8-1.8,1.9c-0.5,2.9,0.1,6,0.3,9.7
			C125.3,95.4,126.1,96.3,127,96.3z"/>
		<path id="XMLID_654_" class="st39" d="M113.6,84.7c0,0,0.7-2.6,5-2.6c4.3,0,6.4,5.9,6.4,5.9"/>
	</g>
	<path id="XMLID_650_" class="st36" d="M109.7,79c2.1,1.3,3.5-1.4,1.2-3c-2.3-1.7-7.3-2.2-10.6-2c-3.3,0.2-6.7,2.6-7.4,4.3
		s1.1-0.5,2.5-0.9C99.5,75.8,104.6,75.8,109.7,79z"/>
	<path id="XMLID_646_" class="st1" d="M168.9,91.7c1.5-2.8,8.7-13.4,12.4-6.9c3.6,6.5,2.4,21.7-4.1,24.1c-6.5,2.4-2.3,7-6.1,10.7
		c-3.8,3.8-6.9-0.3-7.5-3.2"/>
	<path id="XMLID_645_" class="st1" d="M174.1,94.5c6-2.6,6.6,8.1-0.7,9.7c-4.1,0.9-7.5,4.5-7.3,8.2"/>
	<path id="XMLID_642_" class="st40" d="M99.5,20.3c0,0-26,12.4-18.4,33.2S99,50.4,99,50.4l11.3-12.3L99.5,20.3z"/>
	<path id="XMLID_639_" class="st41" d="M119.1,40.1c3.3,5.5,10.8,7.4,20.6-0.5c9.8-7.8,15.2-4.6,12.3,5.2
		c-2.9,9.8-0.5,16.7,5.4,17.6c5.9,1,12.7,21.1,9.8,27c-2.9,5.9-1,11.3-1,11.3s3.4-15.2,12.7-19.6s3.4-32.8-5.9-34.8
		c-9.3-2,10.8,1.6,3.4-15.5S162.2,2.8,142.1,0.4s-41.7,7.8-42.7,22.1c-1,14.2,3.9,19.1,8.3,17.2C112.2,37.6,117.6,37.6,119.1,40.1z"
		/>
	<path id="XMLID_635_" class="st4" d="M140.6,169.4c0,0,20.6,11.8,20.3,17.6s-3.3,21.5-10.6,24.3c-5.6,2.2-3.6-14.8-12.5-11.3
		c-8.9,3.5-24.3,17.1-27.4,22.1c0,0,18.2-35.6,29-39.4c2.4-0.6,5.7-3.7,3.8-6.1C141.7,174.9,140.8,171.4,140.6,169.4z"/>
	<path id="XMLID_631_" class="st4" d="M111.8,176.2c-0.2,11.6-9.8,16.2-2.1,29.3c0,0,2.3,11,0.7,17.2c0,0-3.4-14.5-9.6-17.2
		c-6.2-2.7-12.3,7.3-12.3,7.3s1.2-25.4,10.4-32.4C108.2,173.5,111.8,176.2,111.8,176.2z"/>
	<path id="XMLID_627_" class="st5" d="M140.6,166.3c0,0,21.4,8.3,21.1,14.1c-0.3,5.8-4.6,25-10,27.7c-5.4,2.7-5-14.6-13.9-11.2
		c-8.9,3.5-24.3,19.7-27.4,24.7c0,0,18.1-38.1,28.9-42c2.4-0.6,5.7-3.7,3.8-6.1C141.7,171.8,140.8,168.2,140.6,166.3z"/>
	<g id="XMLID_620_">
		<path id="XMLID_624_" class="st42" d="M140.8,166.7c0.2,1.9,1,5.4,2.5,7.1c0.5,0.6,0.7,1.3,0.5,2c0.9,2,1.5,4.4,0.6,5.3
			c-5.6,4.4-6,9.8-5.1,15.4c7.4-1.3,7.3,13.8,12.3,11.3c5.3-2.6,9.5-21.6,9.8-27.2C161.8,174.8,140.8,166.7,140.8,166.7z"/>
		<path id="XMLID_621_" class="st43" d="M144.3,180.9c0.9-0.9,0.2-3.4-0.6-5.4c-0.3,1.9-2.6,3.7-4.3,4.1c-10.8,3.9-28.9,42-28.9,42
			c3.1-5,18.5-21.2,27.4-24.7c0.5-0.2,0.9-0.3,1.3-0.4C138.2,190.9,138.6,185.4,144.3,180.9z"/>
	</g>
	<path id="XMLID_616_" class="st5" d="M111.8,173c-0.2,11.6-9.8,16.2-2.1,29.3c0,0,2.3,13.1,0.8,19.3c0,0-3.5-16.6-9.6-19.3
		c-6.2-2.7-12.3,7.3-12.3,7.3s1.2-25.4,10.4-32.4C108.2,170.4,111.8,173,111.8,173z"/>
	<g id="XMLID_488_">
		<path id="XMLID_489_" class="st42" d="M111.5,172.9c-1-0.5-4.8-1.4-12.6,4.4c-9.2,6.9-10.4,32.4-10.4,32.4s5.5-8.9,11.3-7.7
			C99.1,191.5,103.8,180.7,111.5,172.9z"/>
		<path id="XMLID_490_" class="st43" d="M111.5,172.9c-7.7,7.9-12.5,18.6-11.7,29.1c0.3,0.1,0.7,0.2,1,0.3
			c6.2,2.7,9.6,19.3,9.6,19.3c1.5-6.2-0.8-19.3-0.8-19.3c-7.7-13.1,1.9-17.7,2.1-29.3C111.8,173,111.7,173,111.5,172.9z"/>
	</g>
</g>
</svg>
