<?xml version="1.0" encoding="utf-8"?>
<!-- Generator: Adobe Illustrator 19.0.0, SVG Export Plug-In . SVG Version: 6.00 Build 0)  -->
<svg version="1.1" id="Capa_1" xmlns="http://www.w3.org/2000/svg" xmlns:xlink="http://www.w3.org/1999/xlink" x="0px" y="0px"
	 viewBox="0 0 201.6 537" style="enable-background:new 0 0 201.6 537;" xml:space="preserve">
<style type="text/css">
	.st0{fill:#C6C6C6;stroke:#575A5B;stroke-width:0.6929;stroke-linecap:round;stroke-linejoin:round;stroke-miterlimit:10;}
	.st1{fill:#FEAD78;stroke:#D36F37;stroke-width:0.5791;stroke-miterlimit:10;}
	.st2{fill:#FEAD78;stroke:#D36F37;stroke-width:0.6818;stroke-linecap:round;stroke-linejoin:round;stroke-miterlimit:10;}
	.st3{fill:#D3B15A;stroke:#8E7338;stroke-width:0.6929;stroke-miterlimit:10;}
	.st4{fill:#C19D4E;}
	.st5{fill:#F2CF91;}
	.st6{fill:#EAC883;}
	.st7{fill:#BF070F;stroke:#7F0A0A;stroke-width:0.7052;stroke-miterlimit:10;}
	.st8{fill:#FEAD78;stroke:#D36F37;stroke-width:0.5984;stroke-miterlimit:10;}
	.st9{fill:#E89669;}
	.st10{fill:#191919;}
	.st11{fill:#D3B15A;}
	.st12{fill:#FEAD78;stroke:#D36F37;stroke-width:0.6818;stroke-miterlimit:10;}
	.st13{fill:#CCA756;}
	.st14{fill:#B2904B;}
	.st15{fill:#D2AF58;}
	.st16{fill:none;stroke:#8E7338;stroke-width:0.6929;stroke-miterlimit:10;}
	.st17{fill:#3D4447;}
	.st18{fill:#7C2A04;}
	.st19{fill:#D68F6B;}
	.st20{fill:#A53D3D;}
	.st21{fill:#7F0A0A;}
	.st22{fill:#571B01;}
	.st23{fill:#FFFFFF;}
	.st24{clip-path:url(#XMLID_199_);}
	.st25{fill:#BC682A;}
	.st26{fill:#713213;}
	.st27{clip-path:url(#XMLID_200_);}
	.st28{fill:#9B3C0C;}
	.st29{fill:#E59A70;}
	.st30{fill:#FFBD99;}
	.st31{fill:#A54F02;}
	.st32{fill:#913601;}
	.st33{fill:#F7F7F7;}
	.st34{opacity:0.3;}
	.st35{fill:none;stroke:#000000;stroke-width:0.6929;stroke-miterlimit:10;}
	.st36{fill:#4D585E;}
	.st37{opacity:0.24;}
	.st38{fill:#F2F2F2;}
	.st39{fill:none;stroke:#4D585E;stroke-width:0.6929;stroke-miterlimit:10;}
</style>
<g id="XMLID_19668_">
	<g id="XMLID_19813_">
		<path id="XMLID_19815_" class="st0" d="M201.6,119.3"/>
		<path id="XMLID_19814_" class="st0" d="M201.6,119.3"/>
	</g>
	<g id="XMLID_19669_">
		<g id="XMLID_19771_">
			<g id="XMLID_19791_">
				<g id="XMLID_19806_">
					<g id="XMLID_19807_">
						<path id="XMLID_19812_" class="st1" d="M28.1,173.2c0,0-6.2-5.7-10.1-6.6s-7-1.8-8.7-4.3c-1.7-2.4-8-9.9-8.8-11.9
							s0.8-9.5,1.2-11.3c0.4-1.8,3,1.1,2.6,3.7s-0.2,6.9,0.5,7.7c0.7,0.8,3.1,4,5.4,4.7s5.2,0.8,8.1,0.3s9-2.6,12.1,1.6s2,5.7,5,7.9
							S28.1,173.2,28.1,173.2z"/>
						<path id="XMLID_19811_" class="st1" d="M34.6,165c0,0-2.1-3.5-2.6-6.1c-0.4-2.6-4-4-5.4-6.2c-2-3.4-1.7-4.8-2-8.7
							c-0.2-2.5-3.7,0.2-3.9,2.7c-0.3,2.7,0.2,5.8,1.1,7.3c0.9,1.5-3.2,1.5-3.2,1.5"/>
						<path id="XMLID_19810_" class="st2" d="M10.3,163.1c-3-4-6.1-7.6-6-9.8c0.1-2.2,4-9.2,4.9-10.8c0.9-1.6,2.5,2,1.3,4.3
							c-1.2,2.3-2.3,6.7-2,7.7s3,3.9,3.8,5.9"/>
						<path id="XMLID_19809_" class="st2" d="M11,164.1c-1.7-1.6-3.6-4.4-4.2-6.5c-0.6-2.1,4.9-10.1,6-11.6c1.1-1.5,2.3,2.2,0.8,4.4
							s-3.1,6.2-2.8,7.2c0.7,0.7,3.7,3.3,5.2,4.6"/>
						<path id="XMLID_19808_" class="st2" d="M11.9,164.1c-0.9-0.3-1.8-0.9-1.7-3c0.1-2.4-0.5-4.8-0.2-6c0.4-1.8,4.6-5.8,5.7-6.8
							s1.6,2.2,0.1,3.8s-2.2,2.8-2.2,3.7c0,0.4,0.6,3.3,0.9,4.7c2.4,0.5,5.3,0,7.4,2.5"/>
					</g>
				</g>
				<g id="XMLID_19802_">
					<path id="XMLID_19805_" class="st3" d="M26.8,172.6c0,0-0.6-4.5,3.3-7c3.9-2.5,4.5-2.7,5.8-2.2s4.2,4.5,4.2,4.5l-7.5,10.1
						C32.6,177.9,27.5,174.5,26.8,172.6z"/>
					<path id="XMLID_19804_" class="st4" d="M33.3,177l-0.6,0.9c0,0-5.1-3.4-5.8-5.3c0,0-0.4-3.4,2-6
						C27.8,170.8,28.8,174.8,33.3,177z"/>
					<path id="XMLID_19803_" class="st5" d="M38.2,170.4c-1.6-2.9-3.5-5-5.9-6.2c2-1.2,2.6-1.3,3.7-0.9c1.3,0.5,4.2,4.5,4.2,4.5
						L38.2,170.4z"/>
				</g>
				<path id="XMLID_19798_" class="st3" d="M71.1,212.9c1.8-1.9,3.2-4.1,4.3-6.5c1.4-2.8,2.1-5.5,1.5-8.6c-0.5-2.3-1.3-4.4-2.2-6.6
					c0,0,0,0,0-0.1c-0.4-0.2-0.7-0.4-1.1-0.6c-12.9-6.8-33.4-23.1-33.4-23.1s-2.8-1.5-5.9,2.3c-3.2,3.8-1.6,7.9-1.6,7.9
					c11,12,21.8,22.6,33,32.8C66.4,211.5,70.6,213.4,71.1,212.9z"/>
				<path id="XMLID_19795_" class="st6" d="M76.6,196.9c-0.5-1.9-1.2-3.8-1.9-5.7c0,0,0,0,0-0.1c-0.4-0.2-0.7-0.4-1.1-0.6
					c-12.9-6.8-33.4-23.1-33.4-23.1s-2.2-0.6-3.3,0.3c10.4,8.2,19.5,17,31.2,24.6C70.5,194.2,74,195.3,76.6,196.9z"/>
				<path id="XMLID_19792_" class="st4" d="M32.7,175.8c0,1.3,0,1.8,0,1.8c9,9.9,20.7,21.4,30.8,30.9c-1.4-2.3-2.5-4.8-3.3-7.3
					C51.2,192.4,42.4,183.8,32.7,175.8z"/>
			</g>
			<g id="XMLID_19772_">
				<path id="XMLID_19787_" class="st7" d="M65.9,210.6"/>
				<path id="XMLID_19783_" class="st7" d="M61.7,205.2"/>
				<path id="XMLID_19779_" class="st3" d="M65.3,210.1c2,2,5.1,3.3,7.9,3.8c1.5,0.3,5.1-2.2,5.4-3.4c3.4-16.1,10.8-45.2,9-57.9
					c2.4-8.7,6.6-18.6,12-29.1c0,0-16.1,3.7-22.4,3.4c-6.4-0.4-11.6,6.4-10.9,10.5c0.7,4.1,0.4,22.8-1.1,30.6
					c-0.9,4.8-0.6,13.9-1.2,22.9"/>
				<path id="XMLID_19776_" class="st4" d="M86.3,144c-3.3-1.5-3.9-0.4-7.4,1.7c4.7,4.5,5.1,7,3.2,14.8c-0.6,16.9-2,37.3-7.9,52.7
					c1,0.2,3.7-1.2,4-2.4c7.3-32.5,7.7-50.7,6.6-63.5L86.3,144z"/>
				<path id="XMLID_19773_" class="st6" d="M77,126.8c-6.4-0.4-11.6,6.4-10.9,10.5c0.7,4.1,0.4,22.8-1.1,30.6
					c-1,5.3-0.6,15.9-1.4,25.7c0.3,1.5,0.7,3,1.1,4.5c5.1-21.3-0.3-39.6,4.5-61.8c0-1.4,0.7-3.5,2.1-4.2c9.4-1.2,17.6-3.6,26.8-5.6
					l1.3-3.1C99.5,123.4,83.4,127.2,77,126.8z"/>
			</g>
		</g>
		<path id="XMLID_19770_" class="st8" d="M129.3,501.9c-1.5-2.8-3.2-10.9-3.6-25.6s1.9-33.7,1.9-40.9c0-38.2-4-45.1-6.4-59.3
			c-2.4-14.1-4.2-45.1-4.4-59.1c-0.2-14-3.9-39.4-3.9-39.4l-15.1-61.3l-14.7-2.1c-3,18.1-18.5,28.6-17.1,68.7
			c1.4,40.1,24.5,81.1,27.8,107.9c3.3,26.9,18.6,101.5,18.8,102.3c0.5,4.7,0.5,10.2-1.4,13.1c-4.3,6.7-13.3,19.5-17.5,21.7
			c-4.2,2.3-1.6,6.2,5.2,5.5c6.8-0.6,9.4,2.9,16.2-6.8c6.8-9.7,9.1-11.4,12-14C130,510.1,132.6,508.1,129.3,501.9z"/>
		<path id="XMLID_19769_" class="st8" d="M189.5,523.5c-3.9-3.1-5.9-11-9.4-18.1c-2.1-4.3-3.8-11-4.8-15.9c-0.3-1-1.2-3.5-3.1-18.7
			c-1.9-15.3-3-73.1-7.8-93.9c-4.8-20.8-6.5-32.5-5.6-79.6c0.8-41.9-14.9-62.3-21.7-79.7l-0.3-0.9c-0.7-1.9-1.3-3.7-1.8-5.5
			c-0.1,0.1-0.2,0.2-0.3,0.2l0-0.1c-7.9,6-32.8,5.7-36,5c-3.2-0.6-3.9-0.4-4.8,1.7c-0.9,2.2-0.4,3.9-1.3,8c-0.7,3.3,2.3,4.6,6.1,5.1
			c0,1,0,1.6,0,1.6s0,0-0.9,9.1c-0.9,9.1,3.5,23.8,8.7,26l5.4,7.3c1.1,3,1.5,5.7,1.5,5.7c1.7,21.6,6.5,51.1,10.8,64.9
			c4.3,13.8,12.6,35.5,13.4,55c0.9,19.5,4.3,34.2,9.1,46.7c4.8,12.6,12.1,38.5,14.5,45.1c1.6,3.7,3.6,8.1,2.4,12.5
			c-2,6.9,1.1,8.3,4.6,10.3c3.5,2,4.7,6.4,8.3,13.8c2.5,5.2,13.8,5.4,17.9-0.3C195.5,527.2,192.1,525.5,189.5,523.5z"/>
		<path id="XMLID_19768_" class="st9" d="M100.9,379c-0.6-9.2-4.5-16.7-8.7-24.6c-2.7,0.4-5.4,0.8-8.1,1.3
			c4.6,13.1,8.5,25.1,9.7,35.1c3.3,26.9,18.6,101.5,18.8,102.3c0.5,4.7,0.5,10.2-1.4,13.1c-3.3,5.1-9.4,13.9-14,18.7
			c2.8-1.5,2.2,0.1,7.9-4.6c5.6-4.7,12.3-18.4,11.1-24.1C107.4,457.1,103.7,418.5,100.9,379z"/>
		<path id="XMLID_19766_" class="st9" d="M142.7,423.3c-2.6-27-3-45-13.9-72.8c-2.1,0.3-1-0.2-3,0c4.5,13.7,11.1,32.8,11.8,50.1
			c0.9,19.5,4.3,34.2,9.1,46.7c4.8,12.6,12.1,38.5,14.5,45.1c1.6,3.7,3.6,8.1,2.4,12.5c-1.4,5.1-0.2,7.2,2,8.8
			c1.5-5.3-0.3-11.6-1.8-17.4C158.9,474.2,144.8,445,142.7,423.3z"/>
		<g id="XMLID_19760_">
			<g id="XMLID_155_">
				<path id="XMLID_156_" class="st10" d="M89.1,376.7c7.9,2.8,16.7,3.4,25,3.4c3.2,0,9.4-0.3,9.4-0.3l9-0.9c0,0,13.3-2.6,19.7-5.5
					c4.1-1.8,8-3.9,11.9-6c-3.3-16.4-4.4-30.6-3.7-70.4c0.6-33.3-8.9-52.9-16.5-68.7c-2-4.1-3.9-8-5.3-11.7l-0.3-0.9
					c-0.7-1.9-1.3-3.7-1.7-5.4l-0.7-2.8l-1.7,1.6l-0.6,0.5c-4.9,3.7-17.7,5-28,5c-3.8,0-6-0.2-6.6-0.3c-1.5-0.3-2.4-0.4-3.2-0.3
					l-12.7-1.5l-0.4,1.7c-1.5,5.9-4.3,10.8-7.1,16.7c-5.3,11.2-12.3,25.1-11.4,51.8c0.8,23.9,9.3,48,16.7,69.3
					C84,360.6,87,369.1,89.1,376.7z"/>
			</g>
		</g>
		<path id="XMLID_19759_" d="M132.6,379.2c0,0,13.3-2.6,19.7-5.5c4.1-1.8,8-3.9,11.9-6c-3.3-16.4-4.4-30.6-3.7-70.4
			c0.6-33.3-8.9-52.9-16.5-68.7c-0.6-1.2-1.2-2.5-1.8-3.7c-10.8,10.1,0,15.7-1.5,25.1c-2.5,16-6,20.9-35.1,27.8
			c-29.1,6.9,10.2,34.4,18.5,67.9s-25.3,19.4-10.1,34.7c3.2,0,9.4-0.3,9.4-0.3L132.6,379.2z"/>
		<path id="XMLID_19758_" class="st10" d="M129.8,526.1c0.5,1.4-1.1,2.1-3.8,1.3s-3-2.3-3-2.3l0.2-10.9l8.6-3.4
			C131.8,510.8,127.7,519.7,129.8,526.1z"/>
		<path id="XMLID_19757_" d="M128.1,499.4c-1.4,1-7.6,9.2-10,18c-2.5,8.8-9.5,10.5-11.7,10.7c-2.2,0.2-6.1-3.4-9.8-3.5
			s-6.8,3.5-8.1,5.3c-1.3,1.9-0.1,4.6,0.6,5.3c0.7,0.7,15.7,3.2,21.6-0.3s8.8-12.5,12.2-15.1c3.4-2.7,8.4-4.3,8.9-8.9
			C132.3,506.2,130.2,497.9,128.1,499.4z"/>
		<g id="XMLID_19754_">
			<path id="XMLID_19756_" class="st10" d="M163.5,525.6c-0.6,1.5,1,2.2,3.8,1.6c2.8-0.6,3.3-2.1,3.3-2.1l-0.8-11.3l-7.9-1.4
				C161.9,512.3,166.1,519.1,163.5,525.6z"/>
			<path id="XMLID_19755_" d="M163.7,500.7c1.8-0.5,2,3,6.2,11.9c2,6,5.9,13.4,12.6,15.6c2.3,0.4,7.2-4.2,10.9-2.8
				c2.1,0.8,4.9,5.2,4.7,7.6c-0.2,2.4-2.3,2.8-3.2,3.3c-1,0.4-10.1,2.3-16.2-1.8c-6.1-4.1-6.5-13.2-10-16.3s-6.4-3.3-7.6-8.1
				C160.5,507.3,160.9,501.6,163.7,500.7z"/>
		</g>
		<path id="XMLID_19753_" class="st11" d="M116.5,120.1c0,0-16.5,3.4-20.1,5.1c-3.7,1.7-8.1,14.6-10.5,22c-2.3,7.4,64.9,4.9,67,1.7
			c2.2-3.2,4.2-18.6-2.8-21.8C143.3,123.8,126.2,119.6,116.5,120.1z"/>
		<g id="XMLID_19739_">
			<g id="XMLID_19747_">
				<path id="XMLID_19752_" class="st12" d="M182.7,301.7c0,2.4,0.3,7.9-0.1,9.6c-0.4,1.7-4.8,5.9-5.8,6.9s-1.5-2.1-0.1-3.6
					s3.2-4.5,3.1-5.3c-0.1-0.8-0.3-4-1.5-5.5"/>
				<path id="XMLID_19751_" class="st12" d="M185.3,304.2c-0.2,2.8,0,8.1-0.6,10.1c-0.6,2-6.1,6.5-7.5,7.6c-1.4,1.1-1.6-2.6,0.3-4.2
					c1.9-1.6,4.2-5,4.2-6s0-4.8-1.3-6.6"/>
				<path id="XMLID_19750_" class="st12" d="M187,306.5c-0.4,2.8-0.7,10-1.4,11.9c-0.7,1.9-6.6,6.1-8,7.1c-1.4,1-1.4-2.7,0.5-4.2
					s4.5-4.7,4.5-5.7c0-1,0.3-4.8-0.8-6.7"/>
				<path id="XMLID_19749_" class="st2" d="M180.8,287.7c0,0,1.5,7.8,3.8,10.7c2.3,2.9,4.2,5.3,4.1,8.1c-0.1,2.8,0.4,11.9-0.2,13.9
					c-0.5,2-6,6.7-7.3,7.8c-1.3,1.1-1.7-2.5,0.2-4.2s4-5.1,4-6.1c0-1-0.1-4.8-1.4-6.6c-1.3-1.8-3.5-3.6-5.9-4.8
					c-2.4-1.3-8.3-3.1-8.2-8c0.1-4.9,1.7-5.4,0.7-8.7C169.5,286.4,180.8,287.7,180.8,287.7z"/>
				<path id="XMLID_19748_" class="st2" d="M171.2,290.2c0,0-0.4,3.8-1.5,6c-1.1,2.2,0.8,5.3,0.5,7.7c-0.4,3.7-1.4,4.5-3.4,7.7
					c-1.3,2,2.9,1.9,4.5,0.2c1.8-1.9,3.2-4.5,3.3-6.1s3.2,0.7,3.2,0.7"/>
			</g>
			<path id="XMLID_19746_" class="st13" d="M167.5,278.9c0,0,2.1,9.9,2.8,11s10.7,0.1,10.6-1.5c-0.1-1.6-0.7-12-0.7-12L167.5,278.9z
				"/>
			<path id="XMLID_19745_" class="st14" d="M180.9,288.4c-0.1-1.6-0.7-12-0.7-12l-3.6,0.7c1,0.3,0.5,2,1.8,2
				c-0.6,3.7-1.2,7.3,0.5,10.5C180.2,289.3,181,288.9,180.9,288.4z"/>
			<path id="XMLID_19744_" class="st14" d="M167.5,278.9c0,0,2.1,9.9,2.8,11l1.7,0.5c1.2-3.7-3.1-7.8-1.9-12L167.5,278.9z"/>
			<path id="XMLID_19743_" class="st15" d="M139.8,123.3c0,0,24.7,4.8,23.8,9.5c-0.9,4.8,0.1,7.9,0.4,10.4
				c0.9,6.1,6.1,42.8,6.9,63.2c0.9,20.3,6.9,20.8,7.4,32c0.4,11.3,1.3,34.6,2.6,39s-11.3,4.6-13.4,3.9c-2.1-0.7-4.8-21.2-10.4-30.7
				c-5.6-9.5-4.8-26.8-6.9-35.1c-2.2-8.2-8.7-29.9-8.2-42.4"/>
			<path id="XMLID_19742_" class="st4" d="M158.3,236.9c-6.2-16.6-5.5-33.3-9-51.3c-2.1-9-2.8-19.4,5.5-25.6
				c-4.3,3.1-10.3,2.9-13.5-1.1L142,173c-0.4,12.6,6.1,34.2,8.2,42.4c2.2,8.2,1.3,25.5,6.9,35.1c5.6,9.5,8.3,30,10.4,30.7
				c0.5,0.2,1.4,0.3,2.6,0.3c0.2-2.9-0.5-5.7-1.4-8.6C165.9,260.4,162.5,248.6,158.3,236.9z"/>
			<path id="XMLID_19741_" class="st4" d="M159.7,133.6c1.4,0.7-0.7,2.8-2.8,3.5c2.1,3.5,4.2,7.6,4.9,11.8
				c6.9,29.8-2.1,59.6,12.5,87.3c7.2,13.2-3.2,31,3.2,44.6c2.3-0.6,4-1.7,3.5-3.4c-1.3-4.3-2.2-27.7-2.6-39
				c-0.4-11.3-6.5-11.7-7.4-32c-0.9-20.3-6.1-57.1-6.9-63.2c-0.4-2.5-1.3-5.6-0.4-10.4L159.7,133.6z"/>
			<path id="XMLID_19740_" class="st6" d="M163.6,132.8c0.9-4.8-23.8-9.5-23.8-9.5l0.1,2.6c6.7,2.5,13.8,3.5,19.8,7.7"/>
		</g>
		<g id="XMLID_19735_">
			<path id="XMLID_19738_" class="st3" d="M143.8,144.8c-1.6,7.2,4.6,15.5,3.4,25c-1.3,9.4-8,13.3-9,17.4c-1,4.1-2.4,28.2,5.8,39.7
				c0,2.8-18.4,14.7-36.2,13.2c-5,0-8.2-12.3-8.2-12.3s-7.4,10.2-9.9,11.1s-14.2-6.6-13.1-9.3c4.6-11.6,8.3-21.4,8.6-27.4
				c0.3-4.8,1.5-15.4-5.9-21.5s-8.7-14.8-3.6-24.5c5.1-9.7,13.3-13.3,13.3-17.9"/>
			<path id="XMLID_19737_" class="st4" d="M146.7,172.1c-3.8,5.6-9.4,9.9-16,10.8c-19.4,3.3-46.5,6.7-57.7-12.4
				c0.7,3.9,2.8,7.3,6.3,10.2c7.4,6.1,6.6,15.8,6.1,20.6c-1.2,11-6.4,23.4-8.9,29.1c6-6.9,14.4-32.9,10.6-43.4
				c12.5,9,34.6-5.5,45,3.5c7.5,6.9,0.9,18.8-9.1,25.2c3.9,8.2,19.7,6.1,15.1,16.3c3.2-1.6,4.9-3.3,5.8-5.1
				c-8.5-14.9-6.7-35.6-5.7-39.7C139,183.4,144.7,179.8,146.7,172.1z"/>
			<path id="XMLID_19736_" class="st16" d="M99.7,227.7c-0.6-6.9-1.2-15.1-1.2-18.5c-0.1-4.8,2.3-16.3-0.3-20.7
				c-2.6-4.3-5.9-13.3-4.3-19.1c1.5-5.9,11.2-17.1,12.2-22.7"/>
		</g>
		<g id="XMLID_19670_">
			<path id="XMLID_19734_" class="st17" d="M101.7,54l-11.4,0c0,0-0.2,4.3-0.3,5.4s4.5-1.6,5.1-2.4s5-1.6,5.7-1.7
				C101.2,54.6,101.7,54,101.7,54z"/>
			<path id="XMLID_19733_" class="st18" d="M132.3,120.9c0,0,15.3-0.6,15.6-7.1c0.3-6.5-7.8-11.4-4.5-11.4s9.1,0.6,7.5-5.5
				c-1.6-6.2-11-8.4-0.6-11.7c10.4-3.2,25.6-1.9,24.7-27.3c-0.5-14.2-18.9-55.6-45.8-56c-27.3-0.3-22.4,8.4-30.2,14.3
				s-16,8-8.4,25.1c9.3,21.1-0.6,46.2,2.6,52.6c3.2,6.5,8.8,5.5,5.2,14.6c-3.6,9.1,4.9,18.5,11,14
				C115.4,118,132.3,120.9,132.3,120.9z"/>
			<path id="XMLID_19732_" class="st1" d="M105.6,98c0,0,4.5,14-0.5,24c-6.3,12.7-1.8,9.8-0.9,15.4c0.9,5.5,1.9,9.4,1.9,9.4
				s8.9-14.2,12-16.3c3.1-2.2,12-12.5,12-12.5c-6.1-6.1-5.6-14.4-0.6-24.3L105.6,98z"/>
			<path id="XMLID_19731_" class="st19" d="M112,109.4c2.5,0.2,8.9-4.2,15.1-10.2c0.6-1.8,1.4-3.6,2.4-5.5L105.6,98
				c0,0,1,3.3,1.6,7.7C108.9,108,110.5,109.3,112,109.4z"/>
			<path id="XMLID_19730_" class="st18" d="M99.5,18.5c0,0-9.4-0.5-12.8,10.1S88.4,50,94,52.1C99.5,54.2,99.5,18.5,99.5,18.5z"/>
			<path id="XMLID_19729_" class="st1" d="M119.9,14.4c-17.8,0-28.9,6.2-28.1,20.1c0.8,14,4.7,14.4,1.8,23s-4.9,13-0.8,22.4
				c6.9,16,14.1,25,19.2,25.3s26-13.6,29.4-26.8c3.4-13.1,8.4-33.3,4.9-45C142.6,21.9,137.1,14.4,119.9,14.4z"/>
			<path id="XMLID_19728_" class="st1" d="M108.8,55.5c0.3,2.8,0.1,12-4.3,14.9s0.1,3.9,2.5,4.2c2.4,0.3,6.3-0.2,7.1-1"/>
			<path id="XMLID_19727_" class="st20" d="M110.4,88.4c-2.3-0.1-5.9-2.1-6.1-4l12.8-0.3C117.2,84.1,115.9,88.7,110.4,88.4z"/>
			<path id="XMLID_19726_" class="st21" d="M118.7,83.4c0.4-0.1-1,2.1-9.2,1.6c-8.2-0.4-8-2.1-8-2.1s1.9,0.6,3.5-0.3
				c1.5-0.9,3.7-0.8,6.5-0.4S116,84,118.7,83.4z"/>
			<g id="XMLID_19717_">
				<path id="XMLID_19725_" class="st22" d="M133,59.6c0,0-2.3-4.8-6.7-4.1c-4.4,0.7-7.7,4.5-7.5,5c0.1,0.5,1.2,2.6,7.1,2.1
					C131.8,62.1,132.5,60.5,133,59.6z"/>
				<path id="XMLID_19724_" class="st23" d="M133,59.6c0,0-3.3-2.9-7.8-2.2c-4.4,0.7-6.6,2.6-6.5,3.2c0.1,0.5,1.2,2.6,7.1,2.1
					C131.8,62.1,132.5,60.5,133,59.6z"/>
				<g id="XMLID_19718_">
					<defs>
						<path id="XMLID_19719_" d="M133,59.6c0,0-3.3-2.9-7.8-2.2c-4.4,0.7-6.6,2.6-6.5,3.2c0.1,0.5,1.2,2.6,7.1,2.1
							C131.8,62.1,132.5,60.5,133,59.6z"/>
					</defs>
					<clipPath id="XMLID_199_">
						<use xlink:href="#XMLID_19719_"  style="overflow:visible;"/>
					</clipPath>
					<g id="XMLID_19720_" class="st24">
						<circle id="XMLID_19723_" class="st25" cx="127.2" cy="59.6" r="3.9"/>
						<circle id="XMLID_19722_" class="st26" cx="127.2" cy="59.6" r="2.1"/>
						<circle id="XMLID_19721_" class="st23" cx="129" cy="58.7" r="0.9"/>
					</g>
				</g>
			</g>
			<g id="XMLID_19708_">
				<path id="XMLID_19716_" class="st22" d="M94,59c0,0,2.1-4.4,6.2-3.8c4.1,0.6,7.1,4.1,7,4.6s-1.1,2.4-6.6,2S94.4,59.9,94,59z"/>
				<path id="XMLID_19715_" class="st23" d="M94,59c0,0,3.1-2.7,7.2-2c4.1,0.6,6.1,2.4,6,2.9s-1.1,2.4-6.6,2S94.4,59.9,94,59z"/>
				<g id="XMLID_19709_">
					<defs>
						<path id="XMLID_19710_" d="M94,59c0,0,3.1-2.7,7.2-2c4.1,0.6,6.1,2.4,6,2.9s-1.1,2.4-6.6,2S94.4,59.9,94,59z"/>
					</defs>
					<clipPath id="XMLID_200_">
						<use xlink:href="#XMLID_19710_"  style="overflow:visible;"/>
					</clipPath>
					<g id="XMLID_19711_" class="st27">
						<circle id="XMLID_19714_" class="st25" cx="102" cy="59" r="3.6"/>
						<circle id="XMLID_19713_" class="st26" cx="102" cy="59" r="2"/>
						<circle id="XMLID_19712_" class="st23" cx="103.6" cy="58.2" r="0.9"/>
					</g>
				</g>
			</g>
			<path id="XMLID_19707_" class="st28" d="M136.4,51.9c-0.7-1-3.1-4.1-6.9-3.7c-3.8,0.4-7.4,1.5-7.4,2.7s2,0.6,4.4,0
				s6.1-1.1,7.6-0.1C135.5,51.7,137.1,52.9,136.4,51.9z"/>
			<path id="XMLID_19704_" class="st29" d="M141.2,73.1c-1.2,15.9-26.8,32.8-31.8,30.4c-0.3-0.2-0.7-0.1-1.1-0.2
				c1.3,0.9,2.6,1.4,3.7,1.5c5,0.3,26-13.6,29.4-26.8L141.2,73.1z"/>
			<path id="XMLID_19703_" class="st29" d="M118.6,26c-3.2,2.6-3.9-1.9-5.8-2.6c-10.5-3.1-17.5,8.5-19.8,18c2.8-2.1,5.5-5.4,5.5-5.4
				l7-7.6c2.7-0.8,5.5-0.7,6.3,0.7c2.2,3.6,7.1,4.9,13.6-0.3s10.1,1.1,8.1,7.6s-0.3,8.3,3.6,8.9c3.9,0.6,8.4,11.2,6.5,15.1
				c0,0,0.8,0.9,4.7-3.2c-1.2-12.4-8-17-10.9-28.7C134.9,20.1,125.8,20.8,118.6,26z"/>
			<path id="XMLID_19700_" class="st30" d="M95.4,81c-6.7-16.1-1.8-15.5-0.4-25.3c1.4-9,0.2-6.2-0.6-20.2c-0.1-2.3,0.1-4.4,0.6-6.3
				c-0.9,0.6-1.9,1.1-3.1,1.4c-0.1,1.1-0.1,2.4-0.1,3.6c0.8,14,4.7,14.4,1.8,23s-4.9,13-0.8,22.4c6.4,14.8,13.1,23.6,18,25.1
				C106.2,101.6,100.6,93.5,95.4,81z"/>
			<path id="XMLID_19699_" class="st28" d="M105.6,52.3c1.4,0.8,2.3-0.9,0.8-2c-1.5-1.1-4.8-1.5-7-1.4s-4.4,1.7-4.9,2.8
				c-0.5,1.1,0.7-0.3,1.6-0.6C98.9,50.2,102.2,50.2,105.6,52.3z"/>
			<path id="XMLID_19698_" class="st31" d="M98.8,13.5c0,0-17.2,8.2-12.2,22s11.8-2.1,11.8-2.1l7.5-8.1L98.8,13.5z"/>
			<path id="XMLID_19697_" class="st32" d="M111.8,26.5c2.2,3.6,7.1,4.9,13.6-0.3s10.1-3,8.1,3.5s-0.3,11,3.6,11.7
				c3.9,0.6,8.4,14,6.5,17.9s-0.6,7.5-0.6,7.5s2.3-10.1,8.4-13c6.2-2.9,2.3-21.7-3.9-23s7.1,1.1,2.3-10.3
				C144.9,9,140.4,1.9,127.1,0.2S99.5,5.4,98.8,14.8s2.6,12.7,5.5,11.4C107.3,24.9,110.8,24.9,111.8,26.5z"/>
			<path id="XMLID_19696_" class="st4" d="M127.5,112.2c0,0,13.1,9.4,12.9,13.2c-0.2,3.8-1.6,12.7-6.4,14.6
				c-3.7,1.5-3.8-9.8-9.7-7.5c-5.9,2.3-16.1,11.3-18.1,14.6c0,0,12-23.6,19.2-26.1c1.6-0.4,5.2-2.5,3.9-4
				C128.2,115.8,127.6,113.5,127.5,112.2z"/>
			<path id="XMLID_19695_" class="st4" d="M107,116.7c-0.2,7.7-6.5,10.8-1.4,19.4c0,0,1.5,7.3,0.5,11.4c0,0-2.3-9.6-6.3-11.4
				c-4.1-1.8-8.2,4.8-8.2,4.8s0.8-16.8,6.9-21.4C104.6,114.9,107,116.7,107,116.7z"/>
			<path id="XMLID_19694_" class="st0" d="M107,114.6c-0.2,7.7-6.5,10.8-1.4,19.4c0,0,1.5,8.7,0.5,12.8c0,0-2.3-11-6.4-12.8
				c-4.1-1.8-8.2,4.8-8.2,4.8s0.8-16.8,6.9-21.4C104.6,112.8,107,114.6,107,114.6z"/>
			<g id="XMLID_19691_">
				<path id="XMLID_19693_" class="st23" d="M106.8,114.5c-0.7-0.3-3.2-0.9-8.3,2.9c-6.1,4.6-6.9,21.4-6.9,21.4s3.6-5.9,7.5-5.1
					C98.6,126.8,101.7,119.7,106.8,114.5z"/>
				<path id="XMLID_19692_" class="st33" d="M106.8,114.5c-5.1,5.2-8.2,12.3-7.7,19.3c0.2,0,0.5,0.1,0.7,0.2
					c4.1,1.8,6.4,12.8,6.4,12.8c1-4.1-0.5-12.8-0.5-12.8c-5.1-8.6,1.2-11.7,1.4-19.4C107,114.6,106.9,114.5,106.8,114.5z"/>
			</g>
			<path id="XMLID_19690_" class="st0" d="M126.1,110.1c0,0,14.2,5.5,14,9.3c-0.2,3.8-3.1,16.6-6.6,18.4c-3.6,1.8-3.3-9.7-9.2-7.4
				c-5.9,2.3-16.1,13-18.1,16.3c0,0,12-25.3,19.1-27.8c1.6-0.4,3.8-2.5,2.5-4C126.8,113.7,126.2,111.4,126.1,110.1z"/>
			<g id="XMLID_19686_">
				<g id="XMLID_19687_">
					<path id="XMLID_19689_" class="st23" d="M126.2,110.4c0.1,1.2,0.7,3.6,1.6,4.7c0.3,0.4,0.4,0.9,0.4,1.3c0.6,1.3,1,2.9,0.4,3.5
						c-3.7,2.9-4,6.5-3.4,10.2c4.9-0.9,4.8,9.2,8.2,7.5c3.5-1.8,6.3-14.3,6.5-18C140.1,115.7,126.2,110.4,126.2,110.4z"/>
					<path id="XMLID_19688_" class="st33" d="M128.5,119.8c0.6-0.6,0.2-2.2-0.4-3.5c-0.2,1.2-1.7,2.4-2.9,2.7
						c-7.1,2.6-19.1,27.8-19.1,27.8c2-3.3,12.2-14,18.1-16.3c0.3-0.1,0.6-0.2,0.9-0.2C124.5,126.4,124.8,122.8,128.5,119.8z"/>
				</g>
			</g>
			<path id="XMLID_19685_" class="st34" d="M148.1,56.8l-11.4,0c0,0-0.2,4.3-0.3,5.4c-0.1,1,4.5-1.6,5.1-2.4s5-1.6,5.7-1.7
				C147.6,57.4,148.1,56.8,148.1,56.8z"/>
			<g id="XMLID_19681_" class="st34">
				<g id="XMLID_172_">
					<path id="XMLID_175_" class="st35" d="M94.2,53.6c4.3,0,8.6,0.3,13,0.9c0.6,0,1.1,0.6,1,1.4c0.1,1.9-0.5,3.9-0.9,6.4
						c0,0.7-0.6,1.3-1.2,1.2c-5.1,0.1-9.8-0.5-14.1-1.7"/>
					<path id="XMLID_174_" class="st35" d="M117.2,64.2c5.4,0.7,13.4,1.5,17.9,0.5c0.6,0,1.1-0.6,1.1-1.2c0.2-1.5,0.4-4.6,0.4-6.6
						c0-0.7-0.4-1.3-1-1.4c-5-0.8-13.2-0.6-18.5-0.4c-0.6,0-1.1,0.5-1.2,1.2c-0.3,1.9,0,4,0.2,6.4C116.1,63.6,116.6,64.2,117.2,64.2
						z"/>
					<path id="XMLID_173_" class="st35" d="M108.2,56.8c0,0,0.5-1.7,3.3-1.7c2.8,0,4.3,3.9,4.3,3.9"/>
				</g>
			</g>
			<path id="XMLID_19680_" class="st36" d="M148.1,56.1l-11.4,0c0,0-0.2,4.3-0.3,5.4c-0.1,1,4.5-1.6,5.1-2.4s5-1.6,5.7-1.7
				C147.6,56.7,148.1,56.1,148.1,56.1z"/>
			<g id="XMLID_19677_" class="st37">
				<path id="XMLID_19679_" class="st38" d="M106,63c-5.4,0.1-10.3-0.5-14.8-2c-0.6-0.1-1-0.7-1-1.4c0-1.5,0-3.3,0.3-5.3
					c0-0.7,0.6-1.3,1.2-1.2c5-0.2,10.2,0.1,15.4,0.9c0.6,0,1.1,0.6,1,1.4c0.1,1.9-0.5,3.9-0.9,6.4C107.2,62.5,106.6,63.1,106,63z"/>
				<path id="XMLID_19678_" class="st38" d="M117.2,63.8c5.4,0.7,13.4,1.5,17.9,0.5c0.6,0,1.1-0.6,1.1-1.2c0.2-1.5,0.4-4.6,0.4-6.6
					c0-0.7-0.4-1.3-1-1.4c-5-0.8-13.2-0.6-18.5-0.4c-0.6,0-1.1,0.5-1.2,1.2c-0.3,1.9,0,4,0.2,6.4C116.1,63.2,116.6,63.8,117.2,63.8z
					"/>
			</g>
			<g id="XMLID_19673_">
				<path id="XMLID_19676_" class="st39" d="M106,63c-5.4,0.1-10.3-0.5-14.8-2c-0.6-0.1-1-0.7-1-1.4c0-1.5,0-3.3,0.3-5.3
					c0-0.7,0.6-1.3,1.2-1.2c5-0.2,10.2,0.1,15.4,0.9c0.6,0,1.1,0.6,1,1.4c0.1,1.9-0.5,3.9-0.9,6.4C107.2,62.5,106.6,63.1,106,63z"/>
				<path id="XMLID_19675_" class="st39" d="M117.2,63.8c5.4,0.7,13.4,1.5,17.9,0.5c0.6,0,1.1-0.6,1.1-1.2c0.2-1.5,0.4-4.6,0.4-6.6
					c0-0.7-0.4-1.3-1-1.4c-5-0.8-13.2-0.6-18.5-0.4c-0.6,0-1.1,0.5-1.2,1.2c-0.3,1.9,0,4,0.2,6.4C116.1,63.2,116.6,63.8,117.2,63.8z
					"/>
				<path id="XMLID_19674_" class="st39" d="M108.2,56.4c0,0,0.5-1.7,3.3-1.7s4.3,3.9,4.3,3.9"/>
			</g>
			<path id="XMLID_19672_" class="st1" d="M144.8,60.7c1-1.8,5.8-8.9,8.2-4.5s1.6,14.3-2.7,16s-1.5,4.6-4,7.1
				c-2.5,2.5-4.6-0.2-4.9-2.1"/>
			<path id="XMLID_19671_" class="st1" d="M148.3,62.6c4-1.7,4.4,5.4-0.5,6.4c-2.7,0.6-4.9,3-4.9,5.4"/>
		</g>
	</g>
</g>
</svg>
