<?xml version="1.0" encoding="utf-8"?>
<!-- Generator: Adobe Illustrator 19.0.0, SVG Export Plug-In . SVG Version: 6.00 Build 0)  -->
<svg version="1.1" id="Capa_1" xmlns="http://www.w3.org/2000/svg" xmlns:xlink="http://www.w3.org/1999/xlink" x="0px" y="0px"
	 viewBox="0 0 41.6 46.6" style="enable-background:new 0 0 41.6 46.6;" xml:space="preserve">
<style type="text/css">
	.st0{fill:#1E1E1E;}
	.st1{fill:#FFFFFF;stroke:#FFFFFF;stroke-width:0.115;stroke-miterlimit:10;}
	.st2{fill:#FFFFFF;stroke:#1E1E1E;stroke-width:1.7139;stroke-miterlimit:10;}
</style>
<g id="Capa_2">
	<g id="XMLID_723_">
		<path id="XMLID_852_" class="st0" d="M20.8,41.6c-4.7,0-9.3-1.6-12.9-4.5C-1.1,30-2.6,16.8,4.6,7.9c4-5,9.9-7.9,16.3-7.9
			c4.7,0,9.3,1.6,12.9,4.5c4.4,3.5,7.1,8.4,7.7,13.9c0.3,2.6,0.1,5.2-0.6,7.8c-0.4,1.6-1,3.1-1.8,4.5c-0.4,0.7-1.2,0.9-1.9,0.5
			s-0.9-1.2-0.5-1.9c0.7-1.2,1.2-2.6,1.6-3.9c0.6-2.2,0.8-4.5,0.5-6.7c-0.5-4.8-2.9-9.1-6.7-12.1c-3.2-2.5-7.2-3.9-11.2-3.9
			c-5.6,0-10.7,2.5-14.2,6.8c-6.2,7.8-4.9,19.2,2.9,25.4c3.2,2.5,7.2,3.9,11.2,3.9c0.8,0,1.4,0.6,1.4,1.4
			C22.2,40.9,21.6,41.6,20.8,41.6L20.8,41.6z"/>
		<path id="XMLID_792_" class="st0" d="M20.8,35.4c-3.3,0-6.5-1.1-9.1-3.2c-6.3-5-7.4-14.3-2.4-20.6c2.8-3.5,7-5.5,11.5-5.5
			c3.3,0,6.5,1.1,9.1,3.2c3.1,2.4,5,5.9,5.4,9.8c0.2,1.9,0.1,3.9-0.5,5.7c-0.2,0.7-1,1.1-1.7,0.9s-1.1-1-0.9-1.7
			c0.4-1.5,0.6-3.1,0.4-4.7c-0.4-3.2-1.9-6-4.4-8c-2.1-1.7-4.7-2.6-7.4-2.6c-3.7,0-7.1,1.6-9.4,4.5C7.3,18.4,8.2,25.9,13.3,30
			c2.1,1.7,4.7,2.6,7.4,2.6c0.8,0,1.4,0.6,1.4,1.4C22.2,34.8,21.6,35.4,20.8,35.4L20.8,35.4z"/>
		<path id="XMLID_727_" class="st1" d="M28,20.7c0,4-3.2,7.2-7.2,7.2s-7.2-3.2-7.2-7.2s3.2-7.2,7.2-7.2C24.8,13.6,28,16.8,28,20.7
			L28,20.7z"/>
		<path id="XMLID_746_" class="st0" d="M20.8,29.3c-1.9,0-3.8-0.7-5.3-1.8c-3.7-2.9-4.3-8.3-1.4-12c1.6-2,4.1-3.2,6.7-3.2
			c1.9,0,3.8,0.7,5.3,1.8c3.7,2.9,4.3,8.3,1.4,12C25.9,28.1,23.4,29.3,20.8,29.3L20.8,29.3z M20.8,15c-1.8,0-3.4,0.8-4.5,2.2
			c-2,2.5-1.6,6.1,0.9,8.1c1,0.8,2.3,1.3,3.6,1.3c1.8,0,3.4-0.8,4.5-2.2c2-2.5,1.6-6.1-0.9-8.1C23.4,15.4,22.1,15,20.8,15L20.8,15z"
			/>
		<path id="XMLID_726_" class="st2" d="M29.7,45.7c1.9,0,3.5-1.6,3.5-3.5v-9c0-2.6-2.1-4.7-4.7-4.7h-4.8v-7c0-1.5-1.2-2.7-2.6-2.8
			c-1.6-0.1-2.8,1.2-2.8,2.7v12.2l-0.7-1.5c-0.4-0.8-1.1-1.3-1.9-1.3c-0.3,0-0.7,0.1-1,0.3c-1,0.7-1.4,2.1-0.9,3.3
			c0,0,2.4,5.5,4.1,9.2c0.6,1.2,1.8,2,3.2,2h8.6V45.7z"/>
	</g>
</g>
</svg>
